<svg version="1.1" xmlns="http://www.w3.org/2000/svg" xmlns:xlink="http://www.w3.org/1999/xlink" width="33.02164" height="42.7295" viewBox="0,0,33.02164,42.7295"><g transform="translate(-223.48919,-159.00631)"><g data-paper-data="{&quot;isPaintingLayer&quot;:true}" fill-rule="nonzero" stroke="none" stroke-linecap="butt" stroke-linejoin="miter" stroke-miterlimit="10" stroke-dasharray="" stroke-dashoffset="0" style="mix-blend-mode: normal"><path d="M224.0341,181.92567l1.47727,-21.25l29.54545,-1.25l-0.22727,27.61364l-10.76961,-1.38363l1.5795,4.30542l1.97792,10.78609l-9.81723,0.98862l-1.88238,-2.21917l2.30919,-13.28725z" fill="#ffffff" stroke-width="0"/><path d="M246.75716,200.02683c-0.23717,0.71151 -0.94868,0.47434 -0.94868,0.47434l-0.40834,-0.13979c-0.80005,-0.36524 -1.53017,-0.90231 -2.15754,-1.51866c0,0 -0.11004,-0.11004 -0.17974,-0.27999c-0.00765,0.0001 -0.0153,0.00019 -0.02295,0.00029c-0.00335,-0.03285 -0.00665,-0.0654 -0.0099,-0.09759c-0.01763,-0.06655 -0.02699,-0.13935 -0.02159,-0.21624c-0.03889,-0.39241 -0.06901,-0.70758 -0.09039,-0.84542c-0.25651,-1.65323 -0.41597,-3.38979 -0.75581,-5.06285c-0.25831,2.10427 -0.71657,4.19422 -1.08433,6.27101c-0.02229,0.00084 -0.04458,0.0017 -0.06687,0.00256c-0.03951,0.285 -0.25909,0.48263 -0.25909,0.48263c-0.60705,0.54505 -1.22517,1.08455 -1.90082,1.54179l-0.86373,0.3168c0,0 -0.71151,0.23717 -0.94868,-0.47434c-0.23717,-0.71151 0.47434,-0.94868 0.47434,-0.94868l0.49991,-0.13775c0.58335,-0.39109 1.11575,-0.8551 1.63825,-1.3251c0.4506,-2.48495 1.02986,-4.99938 1.17731,-7.52774c-0.68808,2.11133 -1.31824,4.2427 -1.90139,6.38106l-0.2285,0.7998c0,0 -0.20604,0.72114 -0.92718,0.5151c-0.72114,-0.20604 -0.5151,-0.92718 -0.5151,-0.92718l0.22604,-0.79111c0.98763,-3.62099 2.10943,-7.22221 3.41505,-10.74171c-0.01202,-0.08549 -0.02447,-0.17105 -0.03738,-0.25669c-0.00099,-0.00165 -0.00198,-0.0033 -0.00297,-0.00495c0,0 -0.0557,-0.09283 -0.0895,-0.22911c-3.4422,0.41128 -5.95332,-0.93768 -7.4862,-3.12289c-2.12996,0.33416 -5.27537,0.6239 -7.21216,-0.33159c-3.21311,-1.58514 -3.50238,-5.34306 -0.4318,-6.731c-0.32557,-0.43995 -0.39449,-1.26615 -0.59637,-2.01655c-0.50085,-1.86159 -0.52591,-4.10979 1.35485,-5.23623c0.50932,-0.30505 1.13006,-0.41137 1.72221,-0.45408c0.34181,-0.02465 0.77032,0.51667 0.99519,0.25806c0.5805,-0.66761 -1.04792,-1.58713 -0.97433,-2.46875c0.1435,-1.71916 2.03857,-4.00237 3.71209,-4.40792c2.22523,-0.53924 4.15545,1.79307 5.12331,0.35501c2.28329,-2.29825 9.84749,-3.23156 12.15265,-0.22468c0.25776,0.33622 -0.18283,1.00893 0.15756,1.26116c0.53945,0.39974 1.15293,-0.85104 1.82434,-0.8538c0.91041,-0.00375 1.90847,0.05354 2.67701,0.5416c2.95737,1.87804 4.01339,5.85792 0.57863,7.401c0.68892,0.46947 0.9367,1.4075 1.05583,2.33312c0.40491,3.14625 -0.8452,5.74069 -3.52917,7.34271l-0.92422,0.22865c0,0 -0.3046,0.06157 -0.56129,-0.09062c-0.58237,3.00195 -2.47724,5.20253 -6.4643,5.32744c0.00866,0.05035 0.01336,0.10503 0.01336,0.16441c0,0.75 -0.75,0.75 -0.75,0.75l-0.73234,-0.00518c1.44453,2.53199 2.5805,5.37367 3.27813,8.16419l0.11364,0.45455c0,0 0.1819,0.72761 -0.54571,0.90951c-0.72761,0.1819 -0.90951,-0.54571 -0.90951,-0.54571l-0.11364,-0.45455c-0.28114,-1.12456 -0.63602,-2.25632 -1.0562,-3.37079c0.61827,2.17185 0.81705,4.4913 1.16144,6.71114c0.00063,0.00405 0.02438,0.32648 0.06002,0.76204c0.45281,0.43281 0.97592,0.80723 1.54877,1.05308l0.27348,0.08748c0,0 0.71151,0.23717 0.47434,0.94868zM235.92403,178.85498c0,0 0.48014,-0.57617 1.05631,-0.09602c0.57617,0.48014 0.09603,1.0563 0.09603,1.0563c-1.57153,1.49981 2.65892,3.20734 4.34654,3.84552c0.43272,-0.09727 0.85532,-0.2494 1.26069,-0.43808c0.18139,-0.27552 0.52221,-0.31336 0.61241,-0.31856c0.06891,-0.03958 0.13715,-0.08002 0.20469,-0.12122c0,0 0.51883,-0.3113 0.90408,0.09132c4.52754,-0.37152 5.11712,-4.24483 4.53478,-8.31941c0,0 -0.10607,-0.74246 0.63639,-0.84852c0.74246,-0.10607 0.84853,0.63639 0.84853,0.63639c0.16595,1.16216 0.22704,2.30303 0.15416,3.37503c0.05484,-0.01949 0.09114,-0.02683 0.09114,-0.02683l0.46105,-0.05138c3.18491,-1.83996 3.33027,-5.00623 1.88218,-7.84491l-0.52622,-0.46044c-0.15884,-0.13752 -0.25932,-0.34064 -0.25932,-0.56723c0,-0.3861 0.29176,-0.70407 0.66684,-0.74544l0.84574,-0.10572c2.52539,-0.76541 0.98992,-3.60313 -0.66194,-4.73758c-1.57728,-1.08324 -3.15786,0.92323 -4.49839,0.31378c-0.53084,-0.24133 -0.26363,-1.17249 -0.61543,-1.63755c-1.65142,-2.18312 -8.32558,-1.46009 -9.89691,0.30422c-0.48499,0.44237 -0.8276,1.13393 -1.45497,1.32712c-1.07561,0.33122 -2.7044,-1.62351 -4.32671,-1.27373c-1.08032,0.23292 -2.55641,1.97353 -2.65156,3.09208c-0.09387,1.1035 1.56298,1.9797 0.6925,3.23083c-0.0589,0.08465 -2.74943,0.39216 -3.19175,0.61945c-1.96496,1.00971 -0.92385,3.82668 0.36465,5.29757l0.27045,0.05409c0.35054,0.06296 0.61653,0.3695 0.61653,0.73816c0,0.34604 -0.23434,0.63734 -0.55299,0.72386l-1.23641,0.36641c-2.4155,0.62228 -1.99891,3.08636 0.10674,4.13927c1.47862,0.73937 3.9634,0.55587 5.77985,0.29604c-1.47348,-3.20075 -1.30335,-7.48761 0.61161,-10.87689c1.20009,-1.57201 2.10916,-2.14616 3.97193,-2.78601l0.7088,-0.19877c0,0 0.72246,-0.20138 0.92383,0.52108c0.20138,0.72246 -0.52108,0.92383 -0.52108,0.92383l-0.62914,0.17416c-1.54727,0.51886 -2.22737,0.87686 -3.20172,2.19088c-0.09266,0.15989 -0.18072,0.32217 -0.26422,0.48658c0.3116,-0.20754 0.63719,-0.40305 0.92075,-0.63344c0,0 0.58209,-0.47295 1.05503,0.10914c0.47295,0.58209 -0.10914,1.05503 -0.10914,1.05503c-0.04442,0.03609 -2.31854,1.60001 -2.19599,2.06034c0.09409,0.35342 3.1286,0.85559 3.26056,0.69687c0.49236,-0.5922 0.29342,-1.96726 1.14379,-2.3332c1.0959,-0.47161 2.7064,1.69183 3.65611,2.00379c1.94735,0.63968 3.75609,-0.31547 5.31483,-1.28997l0.71027,-0.93036c0,0 0.46045,-0.59201 1.05247,-0.13156c0.59202,0.46045 0.13156,1.05247 0.13156,1.05247l-0.88063,1.11509c-1.99516,1.32339 -4.29991,2.4122 -6.79146,1.6111c-0.54307,-0.17461 -1.03241,-0.49439 -1.50725,-0.81054c-0.4638,-0.30881 -1.27087,-1.76459 -1.13944,-1.2231c0.58417,2.40681 -4.2135,3.1736 -5.72546,1.49026c-0.35445,3.72602 1.22116,7.43402 4.62146,8.49658c-1.86071,-1.12174 -3.17535,-2.67324 -1.67722,-4.68816z" fill="#9966ff" stroke-width="0.5"/></g></g></svg>