<svg version="1.1" xmlns="http://www.w3.org/2000/svg" xmlns:xlink="http://www.w3.org/1999/xlink" width="70.12622" height="55.70093" viewBox="0,0,70.12622,55.70093"><g transform="translate(-187.79901,-153.92843)"><g data-paper-data="{&quot;isPaintingLayer&quot;:true}" fill-rule="nonzero" stroke="none" stroke-linecap="butt" stroke-linejoin="miter" stroke-miterlimit="10" stroke-dasharray="" stroke-dashoffset="0" style="mix-blend-mode: normal"><path d="M215.2275,209.62936c-6.02761,0 -8.77141,-3.47087 -10.28914,-8.52908c-0.01985,-0.06616 -0.053,-0.1103 -0.09672,-0.13733c-0.13305,0.00804 -0.26623,0.01245 -0.39947,0.01334c-0.32355,0.09999 -0.73234,0.3174 -1.02193,0.2812c-1.48935,-0.18616 -2.72642,-0.25803 -4.15927,-0.793l-0.77556,-0.44648c0,0 -0.22565,-0.13539 -0.37335,-0.38282c-0.31569,-0.12901 -0.62838,-0.27933 -0.9378,-0.45445c-1.6706,-0.84009 -3.46059,-1.6877 -3.21237,-3.85286c0.04489,-0.39146 0.22721,-0.80715 0.39197,-1.23118c-0.0466,-0.34718 -0.02814,-0.69854 0.07957,-1.04297c0.0361,-0.11541 0.10387,-0.24648 0.19199,-0.37868c-0.00605,-0.03907 -0.0137,-0.07806 -0.02311,-0.11697c-0.30113,-1.24529 -3.98236,-2.99593 -4.89577,-4.24749c-0.41187,-0.56433 -0.68224,-1.24372 -0.85107,-1.98817c-0.3842,-0.62303 -0.70983,-1.30246 -0.9939,-2.05448l-0.06256,-0.59104c0,0 0,-0.89039 0.84757,-0.97603c0.07789,-1.39948 0.27497,-2.77074 0.39797,-3.87193c0.37745,-1.4903 0.7129,-2.36064 2.03618,-3.23672c0.53057,-0.35126 1.94026,-0.59921 2.12308,-1.31242c0.04512,-0.17601 0.09043,-0.35457 0.1361,-0.53533c0.27949,-2.53907 0.03756,-4.22854 2.15729,-6.89029c0.00206,-0.00207 0.00411,-0.00413 0.00617,-0.0062c1.56974,-3.42887 4.09827,-6.01546 8.87891,-5.17681c0.36828,-0.16455 0.72778,-0.35273 1.0807,-0.55971c0.052,-0.18302 0.11868,-0.3525 0.22857,-0.47075c0.82226,-0.88459 2.07192,-1.55536 3.12875,-2.06385c0.04442,-0.02137 0.08887,-0.04258 0.13339,-0.06362c1.8974,-1.58363 3.82621,-3.2335 6.19102,-4.05327c2.98544,-1.03491 7.26077,-0.30701 10.3368,0.08079c1.46279,0.32451 2.6797,0.54881 3.82523,1.60419c0.57223,0.52719 1.11127,2.27381 1.7129,2.60844c0.01576,0.00877 4.06647,-1.47862 4.68844,-1.51905c3.75262,-0.24402 7.31418,0.64462 10.96535,1.37234c3.57499,0.79836 8.27128,2.57574 8.76908,6.75842c0.06641,0.55799 -0.0661,1.4208 -0.21917,2.3226c0.24545,0.67031 0.42297,1.3813 0.27383,1.98371c-0.07693,0.31075 -0.33366,0.50962 -0.61742,0.6961c0.00156,0.31978 0.03965,0.58692 0.13229,0.77457c0.9931,2.01149 2.38279,3.66324 2.89053,5.90841c0.009,1.86456 0.11354,4.0147 -0.21767,6.0077c-0.12984,1.0485 -0.43519,2.05892 -0.99587,3.01163c-0.27712,0.4926 -0.61512,0.95182 -1.02705,1.36683c-0.16688,0.17863 -0.3456,0.35455 -0.53683,0.5276c-0.12111,0.10961 -0.26201,0.19019 -0.41509,0.25251c-0.21038,0.11739 -0.45512,0.15792 -0.70582,0.18635c-0.40863,0.0764 -0.82499,0.13651 -1.14794,0.32393c-0.74188,0.65698 0.43769,2.27023 0.37649,3.36849c-0.13053,2.34287 -0.51671,4.0138 -2.30591,5.60862c-0.73124,0.6268 -4.13061,1.93524 -4.37684,2.38535c-0.48838,0.89278 0.13418,2.00988 -0.68437,3.04397c-2.16134,2.7305 -8.71092,2.58597 -11.22335,0.25873c-0.05922,0.18746 -0.17871,0.33086 -0.28874,0.43021c-0.13885,0.37416 -0.49906,0.64078 -0.92154,0.64078c-0.07636,0 -0.15068,-0.00871 -0.22204,-0.02519c-5.42811,2.64089 -12.03251,5.19136 -17.98256,5.19136zM251.51506,187.33175c0.40779,-0.49643 2.08188,-0.67156 2.72177,-1.37038c1.54932,-1.69198 1.73997,-3.99162 1.73664,-6.2462c-0.17106,-0.90995 -0.40786,-1.80674 -0.59191,-2.64354c-0.60157,-1.60046 -3.21199,-5.24739 -2.84085,-6.7792c0.04852,-0.20025 0.25541,-0.30303 0.4885,-0.38639c0.0871,-0.93983 0.31478,-1.94794 0.42361,-2.89943c-1.27203,-3.70701 -5.67226,-5.75401 -9.14772,-6.72892c-3.38663,-0.63354 -6.99325,-0.96818 -10.42614,-0.41352c-0.75738,0.12237 -4.0912,1.79068 -4.62971,1.56784c-0.23524,-0.09735 -0.47879,-1.27127 -0.75968,-2.33859c-0.811,-1.03305 -1.47504,-2.20017 -3.34341,-2.61618c-0.16373,-0.02028 -0.33245,-0.04217 -0.50552,-0.06521c-1.76455,0.01112 -3.70501,0.52424 -4.95448,0.82637c-3.23361,0.65182 -6.50635,1.2739 -9.53619,2.61136c-0.96572,0.77708 -1.91611,1.56295 -2.90094,2.25955c-0.78581,0.80356 -1.54705,1.5658 -2.165,1.74124c-0.20174,0.05727 -0.371,-0.0857 -0.54272,-0.24646c-0.93519,-0.07303 -1.98119,0.02472 -3.00857,0.29406c-1.88315,1.10828 -3.88811,3.22871 -4.75986,4.09791c-0.18012,0.22392 -0.3633,0.45872 -0.54232,0.70287c-0.5761,2.07645 -0.45938,4.34666 -1.20644,6.32171c-0.12026,0.31793 -0.27503,0.57888 -0.45391,0.79968c-0.05839,0.28652 -0.14252,0.53598 -0.26354,0.72792c-0.19074,0.30253 -0.65256,0.28743 -1.12462,0.30903c-0.4648,0.24994 -0.93605,0.48479 -1.33239,0.83604c-1.93138,4.28265 0.72243,8.60025 3.2664,11.84101c0.52557,0.52623 2.60883,1.87026 2.53301,2.65795c-0.04821,0.50079 -0.7617,0.6412 -1.21911,0.934c-0.08358,0.36549 -0.20496,0.76222 -0.32137,1.1449c0.26261,0.78754 1.15897,1.50587 1.66828,1.91138c0.9655,0.7687 2.02802,1.56878 3.16292,2.16422c1.29079,0.16096 2.62914,0.09203 3.95537,0.09203h0.36901c0,0 0.44424,0 0.73533,0.2987c0.33876,-2.90172 1.56116,-7.6915 4.14232,-7.6078c1.40299,0.04549 3.2125,2.28346 4.36382,3.00124c2.08181,1.29787 4.15071,2.14557 6.44173,3.00825c0.34508,0.08579 0.69647,0.17602 1.05342,0.26945c0.25006,-0.30817 0.68325,-0.30817 0.68325,-0.30817h0.22124c2.33765,0.01921 5.49443,-0.83092 6.50506,-3.15734c-0.53558,-0.34747 -1.09249,-0.71875 -1.74407,-1.05869c-0.40392,-0.21073 -0.88483,0.23079 -1.33776,0.27999c-1.95066,0.2119 -3.98527,-0.05617 -5.92797,-0.21778c-8.14718,-0.68004 -15.37123,-6.53191 -10.16821,-14.91312c0,0 0.45369,-0.72591 1.1796,-0.27222c0.72591,0.45369 0.27222,1.1796 0.27222,1.1796c-4.57163,7.25787 2.02035,11.73072 8.85858,12.29961c2.11368,0.17643 5.93737,-0.65852 7.77871,0.06221c2.10487,0.82388 2.73973,2.52782 5.45845,2.26133c2.07611,-0.2035 2.76198,-2.04796 4.54472,-2.41836c0.97371,-0.20231 2.47919,0.20377 3.50287,0.2089c3.38891,-0.87588 6.20709,-3.85906 5.24765,-7.57121l-0.26705,-0.48851c0,0 -0.38282,-0.76564 0.38282,-1.14847c0.76564,-0.38282 1.14847,0.38282 1.14847,0.38282l0.39668,0.83894c1.15876,4.76251 -2.28009,8.61039 -6.6994,9.68564c-1.02896,0.00404 -2.35539,-0.34746 -3.35561,-0.23359c-0.55536,0.06323 -0.76364,0.82278 -1.20356,1.16758c-0.93348,0.73166 -2.39399,1.16467 -3.54387,1.28137c-1.28127,0.13002 -2.21641,-0.08907 -3.04947,-0.47375c-0.99148,1.9525 -2.91646,3.104 -5.02103,3.64321c3.87994,1.01078 8.06403,1.91193 11.80561,1.4473c0.06717,-0.02547 0.13439,-0.05084 0.20166,-0.07606l0.5804,-0.04257c0.32081,-0.05784 0.63786,-0.12677 0.95064,-0.20761c0,0 0.83046,-0.20761 1.03807,0.62285c0.20761,0.83046 -0.62285,1.03807 -0.62285,1.03807c-0.29423,0.07159 -0.59113,0.13412 -0.89045,0.18813c-0.16939,0.05867 -0.31275,0.05867 -0.31275,0.05867l-0.01002,-0.00385c-0.14365,0.0229 -0.28782,0.04389 -0.43248,0.06306c-0.3804,0.14514 -0.75896,0.29425 -1.13591,0.44682c1.82906,0.93979 4.7587,1.02053 6.28292,-0.52927l0.00001,-0.00004c0.65543,-0.66642 0.94589,-1.94288 1.61835,-2.49609c0.01509,-0.01241 0.03016,-0.0247 0.04524,-0.03686c0.67409,-0.8333 2.39235,-1.39277 3.6741,-2.06101c0.33182,-0.24781 0.66198,-0.55165 0.99025,-0.94442c0.53391,-0.85631 1.05711,-1.7526 1.33298,-2.72953c0.06956,-2.06129 -0.72318,-4.31137 0.5362,-5.84449zM224.17398,203.46293c-0.15836,-0.66781 -0.23438,-1.35255 -0.3402,-2.03066c-0.04481,-0.2871 0.11481,-0.95983 -0.15713,-0.85743c-3.54897,1.33633 -6.06192,5.69511 -9.76786,6.22552c1.66812,0.44941 3.47668,0.6161 5.17134,0.52351c1.60941,-0.26929 3.2368,-0.6846 4.84577,-1.19553c0.25551,-0.11456 0.51054,-0.23017 0.76517,-0.34666c-0.2322,-0.94748 -0.46359,-2.09318 -0.51708,-2.31873zM213.20863,199.49185c0.1134,-0.76436 0.22833,-1.52857 0.32821,-2.29482c0.03925,-0.30109 0.4645,-0.90854 0.1611,-0.89654c-1.89909,0.07506 -4.25109,2.18698 -6.03997,2.94573c-0.03287,0.30551 -0.04984,0.61299 -0.0473,0.92266c-0.00508,3.23271 2.34534,5.29555 5.36278,6.34403c-0.17093,-2.29672 -0.10149,-4.75174 0.23518,-7.02104zM214.6891,203.53483c-0.02458,0.41803 0.02662,0.97766 -0.06627,1.43665c1.44669,-2.02553 5.0448,-3.78954 6.94015,-4.97312c0.13825,-0.08633 0.63895,-0.37224 1.14537,-0.63393c-0.77466,-0.20545 -1.53294,-0.40547 -2.26997,-0.5907c-1.75674,-0.65624 -3.40199,-1.31202 -5.011,-2.14727c0.31235,1.8277 -0.63436,5.14112 -0.73829,6.90835zM226.42728,204.95388c0.11249,-0.22611 0.33898,-0.52483 0.76808,-0.88166c0.60965,-0.60616 1.96729,-1.9006 3.3212,-2.87274c-1.84614,-0.31858 -3.68885,-0.76008 -5.47429,-1.22071c0.80281,1.40095 1.35085,3.76537 1.38501,4.97512zM210.0047,192.8362c-0.50544,-0.10478 -0.96989,1.54276 -1.00383,1.64137c-0.29394,0.854 -0.61801,1.71708 -0.8793,2.59379c1.27046,-0.74604 3.02686,-1.87623 4.46964,-2.31568c-0.85256,-0.78536 -1.82487,-1.76162 -2.58652,-1.91949z" fill="#000000" stroke-width="0.5"/><path d="M226.40002,205.00403c-0.03414,-1.20976 -0.59717,-3.6627 -1.39998,-5.06365c1.78544,0.46063 3.72218,0.91654 5.56831,1.23512c-1.35391,0.97215 -2.78284,2.3442 -3.3925,2.95034c-0.42911,0.35683 -0.66334,0.65205 -0.77584,0.87817z" data-paper-data="{&quot;noHover&quot;:false,&quot;origItem&quot;:[&quot;Path&quot;,{&quot;applyMatrix&quot;:true,&quot;segments&quot;:[[[236.0807,202.06706],[0,0],[0.09856,-0.19811]],[[236.75366,201.29459],[-0.37596,0.31264],[0.53415,-0.53108]],[[239.66353,198.77763],[-1.18623,0.85175],[-1.61749,-0.27913]],[[234.86723,197.70811],[1.56431,0.40358],[0.70338,1.22744]],[[236.0807,202.06707],[-0.02992,-1.05993],[0,0]]],&quot;closed&quot;:true,&quot;fillColor&quot;:[0,0,0],&quot;strokeWidth&quot;:0.5}]}" fill="#3d2747" stroke-width="0.25"/><path d="M224.7451,205.79995c-0.34747,0.15896 -0.6993,0.32466 -1.04849,0.47993c-2.41886,1.20876 -6.466,1.45561 -9.83832,0.54709c3.70594,-0.53041 6.31453,-4.9507 9.8635,-6.28703c0.27194,-0.10239 0.11703,0.57748 0.16183,0.86456c0.10582,0.67811 0.18876,1.38486 0.34712,2.05267c0.05348,0.22556 0.28215,1.39529 0.51435,2.34279z" data-paper-data="{&quot;noHover&quot;:false,&quot;origItem&quot;:[&quot;Path&quot;,{&quot;applyMatrix&quot;:true,&quot;segments&quot;:[[[234.10647,200.76076],[0.04686,0.19762],[-0.13875,-0.5851]],[[233.8084,198.98159],[0.09272,0.59413],[-0.03926,-0.25154]],[[233.67073,198.23035],[0.23826,-0.08971],[-3.10943,1.17083]],[[225.11261,203.68484],[3.24696,-0.46472],[2.95465,0.796]],[[233.64403,203.20548],[-2.11928,1.05906],[0.30594,-0.13604]],[[234.55951,202.79232],[-0.30444,0.13928],[-0.20345,-0.83014]]],&quot;closed&quot;:true,&quot;fillColor&quot;:[0,0,0],&quot;strokeWidth&quot;:0.5}]}" fill="#3d2747" stroke-width="0.25"/><path d="M209.99532,192.7799c0.76165,0.15789 1.80018,1.18545 2.65272,1.97081c-1.44277,0.43945 -3.29744,1.61388 -4.56789,2.35992c0.26129,-0.87669 0.5729,-1.7979 0.86684,-2.6519c0.03395,-0.09862 0.54291,-1.78361 1.04834,-1.67883z" data-paper-data="{&quot;noHover&quot;:false,&quot;origItem&quot;:[&quot;Path&quot;,{&quot;applyMatrix&quot;:true,&quot;segments&quot;:[[[221.69205,191.45014],[0,0],[-0.44284,-0.0918]],[[220.81254,192.88823],[0.02974,-0.0864],[-0.25753,0.74823]],[[220.04214,195.16078],[0.22893,-0.76812],[1.11311,-0.65365]],[[223.95822,193.1319],[-1.26409,0.38502],[-0.74697,-0.68809]],[[221.69204,191.45013],[0.66732,0.13833],[0,0]]],&quot;closed&quot;:true,&quot;fillColor&quot;:[0,0,0],&quot;strokeWidth&quot;:0.5}]}" fill="#3d2747" stroke-width="0.25"/><path d="M213.25391,199.45716c-0.33666,2.2693 -0.42827,4.81119 -0.25735,7.10791c-3.01744,-1.04847 -5.44399,-3.18466 -5.4389,-6.41737c-0.00254,-0.30965 0.02086,-0.62895 0.05372,-0.93446c1.78888,-0.75874 4.21629,-2.88693 6.11539,-2.96199c0.3034,-0.012 -0.11886,0.59734 -0.15811,0.89843c-0.09988,0.76625 -0.20134,1.54313 -0.31473,2.30749z" data-paper-data="{&quot;noHover&quot;:false,&quot;origItem&quot;:[&quot;Path&quot;,{&quot;applyMatrix&quot;:true,&quot;segments&quot;:[[[224.49917,197.2815],[0,0],[0.09935,-0.66969]],[[224.78673,195.27089],[-0.08751,0.67135],[0.03439,-0.2638]],[[224.92788,194.48538],[0.26582,-0.01051],[-1.66389,0.06576]],[[219.63595,197.06628],[1.56733,-0.66477],[-0.0288,0.26767]],[[219.59451,197.87466],[-0.00223,-0.2713],[-0.00445,2.83235]],[[224.29311,203.43299],[-2.64373,-0.91862],[-0.14976,-2.01227]],[[224.49916,197.2815],[-0.29497,1.98825],[0,0]]],&quot;closed&quot;:true,&quot;fillColor&quot;:[0,0,0],&quot;strokeWidth&quot;:0.5}]}" fill="#3d2747" stroke-width="0.25"/><path d="M214.64208,203.56717c0.10392,-1.76722 1.06266,-5.15808 0.75031,-6.98577c1.60901,0.83525 3.32684,1.49317 5.08358,2.14942c0.73702,0.18522 1.5115,0.4091 2.28616,0.61455c-0.50642,0.2617 -1.0059,0.55148 -1.14415,0.63781c-1.89535,1.18358 -5.58817,3.00377 -7.03486,5.0293c0.09289,-0.45901 0.03438,-1.02727 0.05896,-1.4453z" data-paper-data="{&quot;noHover&quot;:false,&quot;origItem&quot;:[&quot;Path&quot;,{&quot;applyMatrix&quot;:true,&quot;segments&quot;:[[[225.79628,200.82376],[0,0],[-0.02154,0.36625]],[[225.73822,202.08249],[0.08139,-0.40216],[1.26752,-1.77467]],[[231.81883,197.72529],[-1.66061,1.03699],[0.12113,-0.07564]],[[232.82235,197.16987],[-0.4437,0.22928],[-0.67872,-0.18]],[[230.83352,196.65233],[0.64574,0.16228],[-1.53917,-0.57497]],[[226.44313,194.771],[1.40973,0.73181],[0.27366,1.60134]],[[225.79628,200.82375],[0.09105,-1.54835],[0,0]]],&quot;closed&quot;:true,&quot;fillColor&quot;:[0,0,0],&quot;strokeWidth&quot;:0.5}]}" fill="#3d2747" stroke-width="0.25"/><path d="M243.35603,201.48665c-1.52424,1.5498 -4.46276,1.4756 -6.29184,0.53581c0.37694,-0.15257 0.69497,-0.39839 1.07537,-0.54354c0.14467,-0.01917 0.28812,-0.03969 0.43177,-0.06257l0.01001,0.00385c0,0 0.14285,0.00035 0.31224,-0.05832c0.29932,-0.05401 0.59478,-0.11551 0.88901,-0.18709c0,0 0.82857,-0.20614 0.62096,-1.0366c-0.20761,-0.83046 -0.96691,-0.53362 -0.96691,-0.53362c-0.31278,0.08084 -0.63142,0.15097 -0.95224,0.20882l-0.58131,0.04324c-0.06728,0.02522 -0.1349,0.05086 -0.20207,0.07633c-3.74158,0.46463 -7.95145,-0.42688 -11.83141,-1.43765c2.10457,-0.5392 3.99871,-1.79902 4.99019,-3.75152c0.83307,0.3847 1.76141,0.60757 3.04267,0.47755c1.14988,-0.1167 2.60214,-0.54319 3.53561,-1.27483c0.43992,-0.3448 0.64487,-1.10091 1.20024,-1.16414c1.00022,-0.11387 2.32341,0.24162 3.35237,0.23759c4.41929,-1.07525 7.84768,-4.8979 6.68892,-9.66041l-0.39692,-0.83718c0,0 -0.26945,-0.75244 -1.0351,-0.36962c-0.76564,0.38282 -0.38321,1.15132 -0.38321,1.15132l0.26687,0.48955c0.95942,3.71215 -1.86709,6.71629 -5.256,7.59216c-1.0237,-0.00511 -2.53227,-0.40688 -3.50598,-0.20457c-1.78274,0.3704 -2.47999,2.22571 -4.55611,2.42922c-2.7187,0.26648 -3.36601,-1.43069 -5.47087,-2.25457c-1.84134,-0.72072 -5.70075,0.11623 -7.81443,-0.0602c-6.83823,-0.56889 -13.47237,-5.09967 -8.90075,-12.35753c0,0 0.4542,-0.73124 -0.27171,-1.18493c-0.72591,-0.45369 -1.0664,0.28667 -1.0664,0.28667c-5.20302,8.38121 1.9779,14.17135 10.12508,14.85139c1.9427,0.16161 3.95286,0.42907 5.90353,0.21718c0.45293,-0.0492 0.92841,-0.48938 1.33231,-0.27865c0.65158,0.33994 1.24582,0.81895 1.7814,1.16643c-1.01062,2.32642 -4.19101,3.18052 -6.52866,3.16131l-0.22196,-0.00004c0,0 -0.43531,-0.00016 -0.68536,0.30801c-0.35696,-0.09343 -0.71176,-0.18408 -1.05684,-0.26987c-2.29102,-0.86269 -4.38152,-1.71847 -6.46333,-3.01632c-1.15132,-0.71777 -2.97378,-2.96694 -4.37678,-3.01243c-2.69089,-0.08726 -3.82334,5.0427 -4.09908,7.8877c-0.16951,-0.01196 -0.37598,0.1047 -0.37598,0.1047c-2.94095,0.7601 -5.6781,-1.18114 -7.89453,-2.9458c-0.65858,-0.52433 -1.9672,-1.57679 -1.71302,-2.62051c0.16532,-0.67888 1.51496,-0.68018 1.58191,-1.37568c0.07582,-0.78769 -2.00999,-2.13782 -2.53554,-2.66406c-2.60278,-3.3157 -5.32365,-7.7813 -3.12808,-12.16072c0.45784,-0.91326 1.93295,-0.24275 2.31577,-0.84998c0.62769,-0.99562 0.26485,-3.54717 0.46201,-4.78802c0.22142,-1.39361 1.15073,-2.71459 2.00851,-3.78089c1.30181,-1.29798 5.1392,-5.40017 7.3158,-4.74134c0.37019,0.11205 0.63208,0.68719 1.00415,0.58155c1.2344,-0.35046 3.05059,-3.05178 4.48231,-3.7372c3.1935,-1.52885 6.70738,-2.19974 10.15334,-2.89436c2.14325,-0.51823 6.34018,-1.65718 8.17447,0.18137c0.58794,0.58932 1.01673,3.84888 1.41548,4.01387c0.5385,0.22282 3.88182,-1.44161 4.63921,-1.56396c3.4329,-0.55465 7.05497,-0.20829 10.4416,0.42525c4.15675,1.16602 9.64874,3.88638 9.51701,9.12546c-0.01309,0.52035 -1.14617,0.40495 -1.26874,0.91084c-0.37115,1.53181 2.24181,5.19174 2.84339,6.7922c0.51591,2.34567 1.44595,5.1759 0.18031,7.43287c-0.53391,0.9521 -1.23475,2.10597 -2.21977,2.66091c-0.64496,0.36337 -1.66528,0.13161 -2.09816,0.73213c-0.69653,0.9663 0.03123,3.31045 -0.10145,4.46303c-0.15125,1.31386 -0.82117,2.48296 -1.50523,3.58008c-1.53577,1.83755 -3.11893,1.73671 -4.71573,3.05034c-0.67246,0.5532 -0.96697,1.83366 -1.6224,2.5001z" data-paper-data="{&quot;noHover&quot;:false,&quot;origItem&quot;:[&quot;Path&quot;,{&quot;applyMatrix&quot;:true,&quot;segments&quot;:[[[250.87948,198.99199],[0,0],[0.57426,-0.58389]],[[252.2974,196.80504],[-0.58918,0.48469],[1.39904,-1.15093]],[[256.42371,194.13954],[-1.34557,1.60997],[0.59934,-0.96124]],[[257.73949,191.0084],[-0.13252,1.15114],[0.11625,-1.00983]],[[257.82583,187.10475],[-0.61027,0.84662],[0.37927,-0.52615]],[[259.66357,186.46535],[-0.56509,0.31836],[0.86303,-0.48621]],[[261.60745,184.13874],[-0.46779,0.83418],[1.1089,-1.97744]],[[261.44903,177.63799],[0.45202,2.05516],[-0.52707,-1.40225]],[[258.96002,171.69838],[-0.32518,1.3421],[0.10739,-0.44323]],[[260.07187,170.90107],[-0.01147,0.45591],[0.11541,-4.59023]],[[251.74437,162.92395],[3.64194,1.02161],[-2.9672,-0.55508]],[[242.60949,162.56164],[3.00774,-0.48596],[-0.66358,0.10721]],[[238.55317,163.93531],[0.47181,0.19523],[-0.34936,-0.14456]],[[237.31846,160.4199],[0.51513,0.51633],[-1.60712,-1.61085]],[[230.17445,160.26106],[1.87781,-0.45405],[-3.01918,0.60859]],[[221.29918,162.78816],[2.79799,-1.3395],[-1.25441,0.60053]],[[217.3808,166.05431],[1.08152,-0.30706],[-0.32599,0.09255]],[[216.50126,165.54448],[0.32434,0.09817],[-1.90703,-0.57724]],[[210.09899,169.68639],[1.14058,-1.13723],[-0.75154,0.93424]],[[208.34156,172.99229],[0.194,-1.22102],[-0.17274,1.08717]],[[207.93822,177.17941],[0.54995,-0.87231],[-0.33541,0.53202]],[[205.9094,177.92243],[0.40114,-0.80015],[-1.92365,3.83704]],[[208.64737,188.55718],[-2.28043,-2.90505],[0.46047,0.46106]],[[210.86667,190.88595],[0.06643,-0.69014],[-0.05866,0.60936]],[[209.48029,192.09046],[0.14484,-0.5948],[-0.22269,0.91446]],[[210.97865,194.38204],[-0.57701,-0.4594],[1.94193,1.5461]],[[217.88725,196.95324],[-2.57672,0.66596],[0,0]],[[218.14923,196.93535],[-0.14852,-0.01048],[0.24159,-2.49264]],[[221.81221,189.95498],[-2.35762,-0.07645],[1.22924,0.03986]],[[225.63557,192.58452],[-1.00873,-0.62888],[1.82398,1.13712]],[[231.27949,195.2202],[-2.00728,-0.75584],[0.30234,0.07517]],[[232.20245,195.45628],[-0.31275,-0.08186],[0.21909,-0.27]],[232.80108,195.18628],[[232.99492,195.18628],[0,0],[2.04814,0.01683]],[[238.69433,192.41997],[-0.88546,2.0383],[-0.46924,-0.30444]],[[237.16626,191.4924],[0.57088,0.29784],[-0.35389,-0.18463]],[[235.99418,191.73771],[0.39683,-0.0431],[-1.70908,0.18565]],[[230.80039,191.5469],[1.70209,0.1416],[-7.13816,-0.59581]],[[221.89151,178.48076],[-4.55863,7.34321],[0,0]],[[222.92501,178.24226],[-0.636,-0.3975],[0.636,0.3975]],[[223.16351,179.27576],[0,0],[-4.00543,6.35898]],[[230.92496,190.05208],[-5.99132,-0.49844],[1.8519,0.15458]],[[237.74029,190.10658],[-1.61329,-0.63146],[1.84418,0.72184]],[[242.52271,192.08785],[-2.382,0.23348],[1.81899,-0.1783]],[[246.50457,189.969],[-1.56195,0.32453],[0.85312,-0.17725]],[[249.57362,190.15202],[-0.89691,-0.00448],[2.9692,-0.7674]],[[254.17136,183.5185],[0.8406,3.2524],[0,0]],[253.93738,183.09049],[[254.27279,182.08426],[-0.67082,0.33541],[0.67082,-0.33541]],[255.27902,182.41967],[[255.62657,183.1547],[0,0],[1.01525,4.17268]],[[249.75689,191.64078],[3.87197,-0.94208],[-0.90153,0.00354]],[[246.81687,191.43612],[0.87634,-0.09977],[-0.48658,0.0554]],[[245.76237,192.4591],[0.38544,-0.3021],[-0.81787,0.64104]],[[242.65741,193.58177],[1.00747,-0.10224],[-1.12258,0.11392]],[[239.98561,193.16669],[0.72989,0.33705],[-0.86869,1.71068]],[[235.58643,196.35869],[1.84392,-0.47243],[3.39942,0.88559]],[[245.92992,197.62675],[-3.27818,0.40708],[0.05885,-0.02232]],[[246.10661,197.56011],[-0.05895,0.0221],[0,0]],[[246.61512,197.52281],[0,0],[0.28108,-0.05068]],[[247.44802,197.34091],[-0.27404,0.07083],[0,0]],[[248.35753,197.88662],[-0.1819,-0.72761],[0.1819,0.72761]],[[247.81182,198.79613],[0,0],[-0.25779,0.06272]],[[247.03165,198.96096],[0.26225,-0.04732],[-0.14841,0.0514]],[246.75763,199.01236],[[246.74885,199.00899],[0,0],[-0.12586,0.02006]],[[246.36993,199.06424],[0.12675,-0.01679],[-0.33329,0.12717]],[[245.3747,199.45572],[0.33026,-0.13367],[1.60254,0.8234]],[[250.87949,198.992],[-1.33546,1.35786],[0,0]]],&quot;closed&quot;:true,&quot;fillColor&quot;:[0,0,0],&quot;strokeWidth&quot;:0.5}]}" fill="#3d2747" stroke-width="0.25"/></g></g></svg>