<svg version="1.1" xmlns="http://www.w3.org/2000/svg" xmlns:xlink="http://www.w3.org/1999/xlink" width="54.41429" height="50.31946" viewBox="0,0,54.41429,50.31946"><g transform="translate(-207.85415,-150.32112)"><g data-paper-data="{&quot;isPaintingLayer&quot;:true}" fill-rule="nonzero" stroke-miterlimit="10" stroke-dasharray="" stroke-dashoffset="0" style="mix-blend-mode: normal"><path d="M254.81892,187.75213l-0.17815,0.61606c-1.00359,3.1171 -2.56235,4.9611 -2.56235,4.9611c0,0 0.03128,-0.54893 -0.04518,-1.42441l-0.05233,-0.01531c-0.12495,0.46936 -0.33847,1.07733 -0.70633,1.83368c-0.80661,1.66093 -3.34832,3.14859 -3.34832,3.14859c0,0 0.13394,-0.5637 0.18922,-1.47765l-0.0437,-0.13716c-0.27185,0.23235 -0.55517,0.44757 -0.84192,0.6577c-0.08436,0.0622 -0.16874,0.12296 -0.25467,0.18202c-0.26139,0.18171 -0.5281,0.35589 -0.80098,0.51979c-0.10785,0.06406 -0.22018,0.12417 -0.32961,0.18585c-0.1996,0.1129 -0.40234,0.22026 -0.60836,0.32467c-0.1514,0.07582 -0.30386,0.15137 -0.45942,0.22248c-0.16099,0.07458 -0.32688,0.14268 -0.4916,0.21322c-0.30303,0.12625 -0.611,0.24539 -0.92647,0.35679c-0.10293,0.0363 -0.2059,0.07259 -0.31071,0.10687c-0.2252,0.07434 -0.45228,0.14733 -0.68389,0.21351l0.00074,0.00067c-1.16266,0.33427 -2.40192,0.5768 -3.73416,0.72739c-1.44135,0.16255 -2.75281,0.21504 -3.98127,0.19235v0c-0.9721,-0.01845 -1.88467,-0.0883 -2.75113,-0.20145c-0.04189,-0.00527 -0.08421,-0.01087 -0.12646,-0.01612c-0.26797,-0.0368 -0.53186,-0.07695 -0.791,-0.12157c-0.09048,-0.01624 -0.17717,-0.03438 -0.26729,-0.05131c-0.34451,-0.06355 -0.67988,-0.13537 -1.01095,-0.21305c-0.20929,-0.04929 -0.41729,-0.10009 -0.62086,-0.15496c-0.12089,-0.03158 -0.24224,-0.06493 -0.36078,-0.09875c-0.32378,-0.09357 -0.64483,-0.18901 -0.95683,-0.29378l-0.05057,0.05374c0.15767,0.82088 0.46547,1.25121 0.70403,1.45145c0.48632,0.40886 1.3852,0.46602 1.3852,0.46602c0,0 -2.71208,0.52174 -4.30718,-1.51131c-0.16947,-0.21612 -0.34078,-0.44028 -0.50475,-0.68l-0.07236,-0.13816c-0.32861,-0.09153 -0.66326,-0.21842 -0.99584,-0.38673c-2.02824,-1.03448 -2.32349,-1.95806 -2.32349,-1.95806l0.05869,0.34105c0.2354,0.88469 0.44935,1.43976 0.44935,1.43976c0,0 -2.43437,-1.37191 -3.59886,-3.55466c-0.93898,-1.76201 -1.06206,-2.85211 -1.07708,-3.03558l-0.11274,-0.6527c-0.18235,-2.56922 -0.16986,-5.46209 0.03862,-8.31805l0.01795,-0.07677c0.20299,-2.20988 -0.28811,-5.82871 2.43275,-9.6962c5.09868,-7.24536 10.68335,-7.28774 13.7532,-12.6068c2.25802,-3.91306 1.40653,-8.22523 1.40653,-8.22523c0,0 1.61195,2.0516 2.27551,3.27081c0.64295,1.18849 1.34327,2.72694 1.34327,2.72694l0.01937,-0.0144c0.01138,-0.04649 0.02131,-0.09391 0.02947,-0.14126c0.12649,-0.73728 0.00667,-1.81171 0.00667,-1.81171c0,0 1.64769,4.12717 4.10213,6.7628c2.45296,2.63434 5.83539,3.2503 10.53642,12.46081c0.58497,1.14453 1.12346,2.10547 1.44043,3.185l0.15038,0.62291c0.46819,1.94661 0.60079,7.38376 -0.05237,9.76911zM227.31586,179.90108c0,0 -2.58839,2.97885 -2.20645,6.9205c0.33794,3.48757 1.29906,4.52113 1.80103,4.76652c0.51603,0.25067 1.28586,0.04728 1.28586,0.04728c0,0 -2.14167,1.27811 -4.01678,-0.212c-1.25417,-0.99601 -2.62997,-2.29319 -3.19212,-6.12149M250.38317,185.03556c0,0 0.38927,0.9548 -0.33481,3.02897c-0.81439,2.33674 -2.74327,3.14525 -2.74327,3.14525c0,0 1.45268,-3.6101 -0.08682,-6.856c-0.67196,-1.41816 -2.57278,-2.40302 -4.53834,-3.06663c-2.66365,-0.90008 -5.44575,-1.20971 -5.44575,-1.20971M251.99093,191.85059c-0.12325,0.47491 -0.33951,1.09749 -0.71837,1.87415c-0.80625,1.66091 -3.34797,3.14857 -3.34797,3.14857c0,0 0.38892,-1.64453 0.11414,-3.86744M221.68897,188.10815c-0.24279,0.5114 -0.42178,1.05548 -0.50847,1.62487c-0.54565,3.55038 0.92784,7.3551 0.92784,7.3551c0,0 -2.43363,-1.37128 -3.59885,-3.55469c-1.03302,-1.93787 -1.07848,-3.06304 -1.07848,-3.06304M254.63915,188.37074c-1.00428,3.11713 -2.56271,4.96111 -2.56271,4.96111c0,0 0.182,-3.11889 -1.36036,-6.36501c-0.06959,-0.14677 -0.14708,-0.28891 -0.22855,-0.42661M237.23453,180.07741c0,0 0.47377,0.10003 1.75717,1.0187c1.28344,0.91866 1.79181,1.9665 1.79181,1.9665c0,0 -3.69041,-0.77313 -5.7435,-1.39524c-2.05102,-0.62292 -8.94162,-2.12654 -8.94162,-2.12654M226.44902,195.26717c1.06642,1.50037 2.13656,2.29159 2.13656,2.29159c0,0 -2.37736,0.87126 -4.66175,-0.29271c-2.02824,-1.03445 -2.32349,-1.95807 -2.32349,-1.95807M248.06943,195.25924c-2.50122,2.13598 -5.60929,3.27889 -9.43859,3.71154c-4.56536,0.51579 -7.94706,0.01765 -10.86552,-0.95867M227.67356,197.81139c0.13724,0.98743 0.48238,1.48538 0.74449,1.70487c0.48667,0.40884 1.38556,0.466 1.38556,0.466c0,0 -2.71279,0.52177 -4.30754,-1.5113c-0.16947,-0.21612 -0.34078,-0.44028 -0.50475,-0.68M237.50486,180.18147c0,0 10.03755,0.7074 10.31556,6.15193" fill="#be1e2d" stroke="#000000" stroke-width="1.2" stroke-linecap="round" stroke-linejoin="round"/><path d="M238.86335,197.55905c-5.79804,0.64011 -14.52586,-1.53614 -16.01879,-6.28805c-0.1486,-0.47765 -0.23828,-0.9417 -0.27916,-1.38989l0.13107,0.08578c0.47436,0.62365 0.98772,1.06466 1.48309,1.45717c1.87507,1.48941 4.01674,0.21131 4.01674,0.21131c0,0 -0.76979,0.2041 -1.28583,-0.04657c-0.50197,-0.24539 -1.46309,-1.27894 -1.80103,-4.76652c-0.38197,-3.94235 2.20645,-6.92051 2.20645,-6.92051l0.00486,-0.09131c2.07455,0.46222 6.20837,1.398 7.71854,1.85693c2.0531,0.62246 5.7435,1.39524 5.7435,1.39524c0,0 -0.50837,-1.04784 -1.79181,-1.9665c-0.64241,-0.45945 -1.08134,-0.71405 -1.3595,-0.85406l0.25545,0.02682c0,0 11.61973,-0.10584 13.20258,3.23487c1.53917,3.24628 1.38456,5.01121 -0.20491,7.52322c-1.58946,2.51201 -5.45353,5.81062 -12.02125,6.53206z" fill="#be1e2d" stroke="#000000" stroke-width="1.2" stroke-linecap="round" stroke-linejoin="round"/><g fill="#be1e2d" stroke="#000000" stroke-width="1.2" stroke-linecap="round" stroke-linejoin="miter"><path d="M252.24907,181.30099c0,0 3.34163,-4.14938 3.52917,-4.34742c0.1875,-0.19801 1.56067,-2.06851 5.75117,-2.8976c0,0 -2.09556,12.19435 -8.27008,15.27448c-0.00002,-0.00035 0.42463,-3.48066 -1.01026,-8.02947zM252.27866,181.39689c-0.11065,-0.37654 -0.42026,-1.03581 -0.42026,-1.03581M253.00384,190.27015c0,0 0.21297,-0.5903 0.25547,-0.94005"/><path d="M255.67945,187.30695c0,0 -0.65729,-0.4538 -0.81181,-2.04906c-0.09745,-0.98946 0.24594,-2.82044 0.24594,-2.82044l-0.03225,0.0595c0.25998,-0.33369 0.53234,-0.72198 0.7754,-1.14515c0.41196,-0.71587 0.88223,-1.78195 1.30967,-2.83102l0.06703,-0.14493c0,0 1.17376,-1.92 3.79096,-2.28902l0.03111,0.015c-0.46038,1.86098 -1.22665,4.59509 -2.13354,6.48237c-1.01721,2.11704 -2.23958,3.67922 -3.28703,4.76276l0.04453,-0.04002zM254.07433,183.58413c0,0 0.87646,-0.94852 1.03925,-1.14668"/></g><g fill="#be1e2d" stroke="#000000" stroke-width="1.2" stroke-linecap="round" stroke-linejoin="miter"><path d="M218.44916,191.10761c-6.4558,-2.4352 -9.78261,-14.35266 -9.78261,-14.35266c4.2532,0.39827 5.80978,2.11919 6.01645,2.29671c0.20667,0.17756 3.95363,3.96533 3.95363,3.96533c-0.96442,4.67167 -0.18747,8.09063 -0.18747,8.09063zM218.92916,182.04255c0,0 -0.24086,0.68738 -0.31254,1.07322M218.44916,191.10761c0.07787,0.34361 0.34991,0.90914 0.34991,0.90914"/><path d="M215.8839,189.37678c-1.1524,-0.97158 -2.52717,-2.40112 -3.7551,-4.40317c-1.09476,-1.78506 -2.13515,-4.42693 -2.78274,-6.23133l0.02946,-0.0181c2.64154,0.10085 4.00439,1.89097 4.00439,1.89097l0.08145,0.13735c0.53203,1.00007 1.10849,2.01271 1.59123,2.68289c0.28491,0.39622 0.59539,0.75474 0.88801,1.06021l-0.03813,-0.05591c0,0 0.52809,1.78648 0.5319,2.78072c0.00881,1.6027 -0.59887,2.12109 -0.59887,2.12109zM215.90247,184.43969c0.18212,0.18054 1.15064,1.03486 1.15064,1.03486"/></g><path d="M233.50935,189.32709l1.5436,-2.64628l2.10059,2.4602" fill="none" stroke="#231f20" stroke-width="1.5" stroke-linecap="round" stroke-linejoin="miter"/><path d="M244.8048,188.72065l1.49834,-2.64397l2.04736,2.46292" fill="none" stroke="#231f20" stroke-width="1.5" stroke-linecap="round" stroke-linejoin="miter"/><path d="M233.26207,188.35223l-0.32565,-0.57586" fill="none" stroke="#231f20" stroke-width="1.5" stroke-linecap="round" stroke-linejoin="miter"/><path d="M247.51821,187.13053l0.5658,-0.52263" fill="none" stroke="#231f20" stroke-width="1.5" stroke-linecap="round" stroke-linejoin="miter"/><path d="M233.40037,191.06075c0.02361,0.46236 -0.94942,0.88784 -2.17331,0.95034c-1.2239,0.0625 -2.2352,-0.26166 -2.25881,-0.72402c-0.02361,-0.46236 0.94942,-0.88784 2.17331,-0.95034c1.2239,-0.0625 2.2352,0.26166 2.25881,0.72402z" fill="#ff00c8" stroke="none" stroke-width="0" stroke-linecap="butt" stroke-linejoin="miter"/><path d="M250.54547,190.33339c0.01944,0.38077 -0.75853,0.72997 -1.73765,0.77997c-0.97912,0.05 -1.78861,-0.21815 -1.80805,-0.59891c-0.01944,-0.38077 0.75853,-0.72997 1.73765,-0.77997c0.97912,-0.05 1.78861,0.21815 1.80805,0.59891z" fill="#ff00c8" stroke="none" stroke-width="0" stroke-linecap="butt" stroke-linejoin="miter"/></g></g></svg>