<svg version="1.1" xmlns="http://www.w3.org/2000/svg" xmlns:xlink="http://www.w3.org/1999/xlink" width="92.65241" height="128.54402" viewBox="0,0,92.65241,128.54402"><defs><radialGradient cx="266.63642" cy="176.90991" r="7.50611" gradientUnits="userSpaceOnUse" id="color-1"><stop offset="0" stop-color="#54606d"/><stop offset="1" stop-color="#2c3136"/></radialGradient></defs><g transform="translate(-191.53398,-109.86393)"><g data-paper-data="{&quot;isPaintingLayer&quot;:true}" stroke-miterlimit="10" stroke-dasharray="" stroke-dashoffset="0" style="mix-blend-mode: normal"><g stroke="#001026" stroke-width="1.2"><path d="M244.36049,189.71424c0.54208,0.35208 7.35062,6.92521 9.23282,4.99555c2.26369,-2.2567 5.27425,-6.55005 9.21253,-3.60269c3.93828,2.94735 -2.50497,8.9977 -5.32757,10.70597c-6.7553,3.60406 -12.94604,-1.73339 -14.30087,-3.20673c-1.35484,-1.47333 -3.71738,-3.95349 -3.93616,-6.50608c-0.13393,-2.75707 3.26441,-3.72054 5.11924,-2.38601z" fill="#ff0000" fill-rule="evenodd" stroke-linecap="round" stroke-linejoin="round"/><g fill-rule="nonzero" stroke-linejoin="miter"><g><path d="M252.13381,200.25797l4.76444,-21.36389l12.62701,4.57155l-10.21433,18.60367c0,0 -2.51629,0.90654 -3.67525,0.61404c-1.22928,-0.31024 -3.50188,-2.42537 -3.50188,-2.42537z" fill="#505a63" stroke-linecap="butt"/><path d="M256.67487,177.37015c1.4555,-3.74773 5.78209,-5.64663 9.66367,-4.24133c3.8816,1.40531 5.84832,5.58269 4.39282,9.3304c-1.4555,3.74773 -5.7821,5.64664 -9.66368,4.24133c-3.8816,-1.40531 -5.84831,-5.58269 -4.39281,-9.33042z" fill="url(#color-1)" stroke-linecap="butt"/><path d="M258.45618,184.63521c0,0 0.76029,-4.50402 1.50996,-6.50311c0.70065,-1.86835 2.85091,-5.12574 2.85091,-5.12574" fill="none" stroke-linecap="round"/><path d="M265.04897,186.872c0,0 0.827,-5.61524 1.42318,-7.73706c0.44051,-1.56773 1.83038,-3.84241 1.83038,-3.84241" fill="none" stroke-linecap="round"/><path d="M256.46288,177.75996c0,0 5.05535,-0.81703 7.61168,-0.47443c2.22398,0.29805 6.86856,2.41503 6.86856,2.41503" fill="none" stroke-linecap="round"/><path d="M256.53114,183.1878c0,0 5.61632,-0.55526 8.12424,-0.46564c1.94955,0.06968 5.67457,0.95882 5.67457,0.95882" fill="none" stroke-linecap="round"/></g><path d="M264.68441,196.5891c-0.96292,2.50221 -3.91537,4.02168 -6.59451,3.39385c-2.67914,-0.62784 -4.55061,-2.5299 -3.58769,-5.03212c0.96292,-2.50221 4.39558,-4.65704 7.07471,-4.02919c2.67914,0.62784 4.07039,3.16525 3.10749,5.66747z" fill="#ffab19" stroke-linecap="butt"/></g></g><g fill-rule="evenodd"><path d="M224.55838,201.39984c0.81625,0.39405 2.55077,1.28066 0.10203,4.63008c-2.44874,3.34942 -9.48888,4.039 -10.30513,4.039c-3.16296,0.09851 -7.04014,0.09851 -11.32544,-1.28066c-12.44778,-3.94049 -12.54981,-16.84559 -8.5706,-18.91435c3.87718,-2.06876 5.6117,5.91073 11.22341,10.73783c2.44874,2.16727 5.40764,2.95537 7.85639,3.44793c3.46905,0.59107 10.10107,-3.15239 11.01935,-2.65983z" fill="#ffab19" stroke="#001026" stroke-width="1.2" stroke-linecap="round" stroke-linejoin="round"/><path d="M199.2547,193.42035c1.6325,2.65983 4.79546,6.4033 4.79546,6.4033c0,0 -3.77515,-0.88661 -5.9178,0.7881c-1.73453,1.28066 -1.3264,3.44793 -1.12234,4.13751c-1.3264,-1.28066 -2.9589,-3.05388 -3.97921,-6.50181c-1.02031,-3.44793 0,-7.58544 2.04062,-8.17652c2.04062,-0.39405 2.55077,1.08363 4.18327,3.34942z" fill="#ffffff" stroke="none" stroke-width="1" stroke-linecap="butt" stroke-linejoin="miter"/></g><g><path d="M240.22721,201.67217c0.08806,0.7302 0.27922,2.09029 0.43465,3.8893c0.29519,3.41637 0.4616,8.41556 -0.45132,13.68953l-0.09472,0.39574c-0.09472,0.39574 0.26684,0.79522 0.72312,0.79892c2.96967,-0.41639 8.76982,-0.98596 7.76276,4.60115c-0.91427,5.41163 -18.32048,7.78117 -19.73402,2.43869c-0.39064,-2.29418 1.03421,-3.47212 1.81528,-4.08256c0.41373,-0.34909 0.64571,-0.78778 0.78684,-1.27126c0.19328,-1.23204 0.48707,-3.52064 0.45799,-5.41536c-0.00407,-4.75826 -0.35792,-6.03881 -0.79305,-8.46551c-0.43512,-2.42671 -1.66304,-8.12014 2.96154,-9.93289c3.93824,-1.59807 5.82922,1.32514 6.13091,3.35424z" fill="#513726" fill-rule="evenodd" stroke="#001026" stroke-width="1.2" stroke-linecap="round" stroke-linejoin="round"/><path d="M222.44423,208.22002c0.11313,-2.047 1.72665,-5.12133 5.79678,-3.86864c4.77357,1.40745 4.07625,7.18391 3.86694,9.63841c-0.20931,2.4545 0.37274,3.76041 0.80806,8.50007c0.146,1.88967 -0.16631,4.14387 0.13997,5.35437c0.1031,0.2613 1.01043,10.38858 -7.75259,9.94987c-7.73678,-0.38733 -1.42339,-12.06668 -1.42339,-12.06668c0,0 -1.48809,-10.168 -1.50955,-13.59617c-0.01131,-1.80523 0.05351,-3.17636 0.07379,-3.91123z" data-paper-data="{&quot;index&quot;:null}" fill="#513726" fill-rule="evenodd" stroke="#001026" stroke-width="1.2" stroke-linecap="round" stroke-linejoin="round"/><g fill-rule="evenodd"><path d="M227.13592,208.03065c-11.13861,-4.61657 -5.8546,-10.27907 -5.04614,-15.64795c0.87501,-4.6546 2.21585,-4.30911 8.3683,-5.33258c3.42031,-0.7454 5.43444,-1.17848 7.49211,-2.0501c3.10487,-1.26147 4.29561,3.36317 4.35647,5.98004c0,0 0.02535,3.89708 -0.5148,6.10421c-0.67893,2.68113 -1.27072,4.48517 -2.08276,5.73771c0,0 -1.74466,2.69243 -3.93929,3.6016c-1.97274,0.81724 -8.6339,1.60707 -8.6339,1.60707z" fill="#ff0000" stroke="#001026" stroke-width="1.2" stroke-linecap="round" stroke-linejoin="round"/><path d="M238.8156,203.04903c0,0 -1.86847,-0.57138 -3.94227,-1.38307c-2.56471,-0.94568 -5.0193,-1.6156 -4.25322,-5.17382c0.83263,-2.84393 1.2764,-6.38774 6.62487,-5.31701c5.08466,0.95779 4.19353,3.92906 4.19353,3.92906c-0.44258,4.91593 -2.62292,7.94484 -2.62292,7.94484z" fill="#ffffff" stroke="none" stroke-width="1" stroke-linecap="butt" stroke-linejoin="miter"/></g><path d="M239.70911,202.82198c0,0 -1.74466,2.69243 -3.93929,3.6016c-1.97149,0.81673 -8.62551,1.60607 -8.63389,1.60707c-7.72783,-3.20292 -7.55077,-6.90928 -6.44775,-10.67176c0.2387,0.06898 0.45211,0.12736 0.63481,0.17487c6.37819,1.65853 12.5457,2.64832 18.70653,4.74477c-0.10323,0.19194 -0.20978,0.37282 -0.32041,0.54346z" fill="#513726" fill-rule="nonzero" stroke="#001026" stroke-width="1.2" stroke-linecap="butt" stroke-linejoin="miter"/></g><path d="M223.92467,199.2858c-0.56042,4.03691 1.26794,7.85467 -0.23268,9.89345c-0.97936,1.33059 -2.55288,2.23909 -3.5888,2.10504c-1.15459,-0.14941 -2.95971,-1.70317 -3.54105,-3.55178c-0.73944,-2.35135 -2.6554,-5.94097 -2.13689,-9.67605c0.45739,-3.29477 3.40449,-6.51831 4.54801,-8.58881c1.17197,-2.12204 3.15614,-2.51506 4.48385,-2.34323c1.43343,0.18551 2.82979,1.24954 3.34617,3.91577c0.42861,2.21301 -2.45855,5.2197 -2.87862,8.24562z" fill="#ff0000" fill-rule="nonzero" stroke="#001026" stroke-width="1.2" stroke-linecap="butt" stroke-linejoin="miter"/><path d="M227.13592,208.03065v0c-0.00001,0 -0.00001,0 -0.00001,0z" fill="#513726" fill-rule="nonzero" stroke="#001026" stroke-width="1.2" stroke-linecap="butt" stroke-linejoin="miter"/><g><g fill-rule="evenodd"><path d="M251.43947,131.5966c0.30661,-0.18971 0.80293,-0.07282 0.88932,0.33034l2.23576,10.78199c0,0 6.23699,4.91427 8.02402,8.27678c3.0117,5.60532 2.95909,10.10613 2.95909,10.10613c0,0 7.02473,2.33949 8.0308,8.0769c1.00608,5.73741 -3.75754,16.38203 -22.67216,19.44256c-18.91463,3.06053 -33.83305,-2.54845 -40.54249,-14.1826c-6.70944,-11.63415 4.94517,-24.84663 4.3184,-24.06744c0,0 -0.49448,-15.96809 -0.10149,-15.75465l11.25125,5.62682c0,0 4.55504,-1.54647 9.25913,-1.58702c2.80517,-0.10496 5.19701,0.17629 7.48213,0.65402z" fill="#ffab19" stroke="#001026" stroke-width="1.2" stroke-linecap="butt" stroke-linejoin="miter"/><path d="M265.23427,161.48143c0,0 6.83502,2.03288 7.84108,7.77029c1.00608,5.73741 -4.14036,15.86875 -22.85171,18.83612c-24.35559,4.17671 -35.36081,-10.60487 -28.3053,-20.97164c7.05889,-10.46671 18.24378,-0.98207 26.65929,-1.29696c7.21281,-0.25562 8.22593,-6.52488 16.65663,-4.33781z" fill="#ffffff" stroke="none" stroke-width="1" stroke-linecap="butt" stroke-linejoin="miter"/><path d="M283.58639,163.20458c-4.82613,3.63848 -12.02538,3.49433 -12.02538,3.49433" fill="none" stroke="#001026" stroke-width="1.2" stroke-linecap="round" stroke-linejoin="round"/><path d="M281.90745,174.35408c-6.31333,0.28613 -10.14667,-1.74499 -10.14667,-1.74499" fill="none" stroke="#001026" stroke-width="1.2" stroke-linecap="round" stroke-linejoin="round"/><path d="M248.266,163.20718c2.09879,0.07119 4.29075,0.34566 4.36696,1.04865c0.05248,1.40259 -1.54158,4.15012 -3.14405,4.19583c-1.80575,0.13886 -5.91858,-2.50209 -5.86434,-4.10117c-0.05926,-1.2027 2.64257,-1.2111 4.64143,-1.14331z" fill="#001026" stroke="#001026" stroke-width="1.2" stroke-linecap="round" stroke-linejoin="round"/><path d="M203.34272,160.18248c0,0 8.50013,3.08994 11.89302,6.30682" fill="none" stroke="#001026" stroke-width="1.2" stroke-linecap="round" stroke-linejoin="round"/><path d="M215.41693,169.99746c-4.35516,1.55324 -11.71362,0.20301 -11.71362,0.20301" fill="none" stroke="#001026" stroke-width="1.2" stroke-linecap="round" stroke-linejoin="round"/><g><path d="M260.45587,151.91394c2.74578,4.59572 2.67283,9.69618 -0.18659,11.40023c-2.85941,1.70404 -7.38558,-0.5507 -10.2313,-5.14982c-2.74578,-4.59572 -2.67283,-9.69618 0.18659,-11.40023c2.86281,-1.80399 7.48552,0.55408 10.2313,5.14982z" fill="#ffffff" stroke="#001026" stroke-width="1.2" stroke-linecap="round" stroke-linejoin="round"/><path d="M260.61243,157.62253c-0.03729,1.09937 -0.86734,1.97173 -1.86677,1.93783c-0.99943,-0.0339 -1.76845,-0.96051 -1.73116,-2.05987c0.03729,-1.09937 0.86734,-1.97173 1.86677,-1.93783c0.99943,0.0339 1.76845,0.96051 1.73116,2.05987" fill="#001026" stroke="none" stroke-width="1" stroke-linecap="butt" stroke-linejoin="miter"/></g><g><path d="M235.5752,153.87157c2.84911,4.49917 2.46616,9.88929 -0.2967,11.69666c-3.36252,1.78703 -7.71252,0.23867 -10.56163,-4.2605c-2.94906,-4.50257 -2.9557,-10.20607 0.2171,-12.29971c3.17619,-2.19359 7.79212,0.36437 10.64124,4.86354z" fill="#ffffff" stroke="#001026" stroke-width="1.2" stroke-linecap="round" stroke-linejoin="round"/><path d="M235.27863,159.66484c-0.03729,1.09937 -0.86734,1.97173 -1.86677,1.93783c-0.99943,-0.0339 -1.76845,-0.96051 -1.73116,-2.05987c0.03729,-1.09937 0.86734,-1.97173 1.86677,-1.93783c0.99604,0.13385 1.76845,0.96051 1.73116,2.05987" fill="#001026" stroke="none" stroke-width="1" stroke-linecap="butt" stroke-linejoin="miter"/></g></g><path d="M255.67816,184.98444c0.0368,-0.66513 0.36439,-1.26358 0.86874,-1.70149c-0.00061,-0.05007 0.00046,-0.1005 0.00327,-0.15124c0.04691,-0.84808 0.5666,-1.58777 1.32268,-2.02443c-0.02803,-0.16191 -0.0382,-0.32909 -0.02875,-0.49988c0.0274,-0.49522 0.21599,-0.95347 0.51873,-1.33603c-0.14453,-0.31805 -0.21538,-0.66959 -0.195,-1.03791c0.03865,-0.69852 0.39801,-1.32351 0.94603,-1.76622c-0.49786,-0.46388 -0.78735,-1.102 -0.7487,-1.80052c0.01175,-0.21245 0.05317,-0.41809 0.12054,-0.61388c-0.05301,-0.10941 -0.0972,-0.22297 -0.13185,-0.34c-0.5921,-0.12321 -1.1053,-0.41224 -1.47731,-0.80789c-0.28369,0.08442 -0.58582,0.13073 -0.89812,0.13213c-0.4305,0.20809 -0.92454,0.32234 -1.44453,0.31182c-0.1173,-0.00237 -0.23257,-0.01103 -0.34544,-0.0256c-0.53196,0.42192 -1.23728,0.6737 -1.99811,0.65829c-0.33734,-0.00683 -0.65799,-0.06562 -0.95262,-0.16752c-0.30524,0.08976 -0.63167,0.13545 -0.96901,0.12862c-0.69802,-0.01413 -1.32456,-0.25074 -1.79711,-0.63141c-0.38455,0.15549 -0.81206,0.23852 -1.25872,0.22948c-0.79693,-0.01613 -1.50068,-0.32227 -1.98847,-0.80169c-0.38231,0.15326 -0.80679,0.235 -1.25013,0.22602c-0.09731,-0.00197 -0.19322,-0.00826 -0.28754,-0.01867c-0.09524,0.00657 -0.19165,0.00897 -0.28896,0.007c-0.37549,-0.0076 -0.73031,-0.07959 -1.05159,-0.20374c-0.09369,0.00633 -0.18849,0.00861 -0.28416,0.00667c-0.37367,-0.00756 -0.72686,-0.0789 -1.04691,-0.20194c-0.33293,0.10983 -0.69322,0.16671 -1.06689,0.15915c-0.76864,-0.01556 -1.45061,-0.3009 -1.93573,-0.7513c-0.42232,0.21569 -0.90929,0.33993 -1.42386,0.34223c-0.04728,0.02286 -0.09532,0.04457 -0.14409,0.06513c-0.54181,0.47126 -1.28815,0.75705 -2.09728,0.74067c-0.15426,-0.00312 -0.30503,-0.01711 -0.45141,-0.04111c-0.23731,0.32082 -0.55323,0.59223 -0.9218,0.79286c0.52226,0.46661 0.82831,1.11996 0.78864,1.83697c-0.0018,0.03255 -0.0043,0.06494 -0.00748,0.09716c0.22513,0.37521 0.34209,0.80919 0.31662,1.26938c-0.02468,0.44602 -0.1801,0.86204 -0.43192,1.21979c0.66249,0.46951 1.0673,1.20474 1.02204,2.02282c-0.02468,0.44602 -0.18011,0.86204 -0.43193,1.21979c0.66249,0.46951 1.0673,1.20473 1.02204,2.02281c-0.03467,0.62667 -0.32748,1.19414 -0.78303,1.62391c0.29315,0.40944 0.45088,0.90221 0.42172,1.4294c-0.07631,1.37945 -1.4034,2.4721 -2.96413,2.44051c-1.56073,-0.03159 -2.76408,-1.17547 -2.68775,-2.55492c0.03467,-0.62667 0.32747,-1.19414 0.78303,-1.6239c-0.29315,-0.40944 -0.45088,-0.90222 -0.42172,-1.42941c0.02468,-0.44602 0.1801,-0.86204 0.43192,-1.21979c-0.66249,-0.46951 -1.0673,-1.20473 -1.02204,-2.02281c0.02468,-0.44602 0.18011,-0.86205 0.43193,-1.2198c-0.66249,-0.46951 -1.0673,-1.20473 -1.02204,-2.02281c0.0018,-0.03255 0.00431,-0.06494 0.00748,-0.09716c-0.22513,-0.37521 -0.34209,-0.80919 -0.31663,-1.26938c0.01161,-0.20977 0.05214,-0.41289 0.11801,-0.60645c-0.61238,-0.47087 -0.98118,-1.17784 -0.93787,-1.96067c0.05318,-0.96119 0.71365,-1.78314 1.63728,-2.18253c0.44788,-0.95067 1.52601,-1.61423 2.74718,-1.58951c0.15426,0.00312 0.30503,0.01711 0.45141,0.04111c0.29437,-0.39795 0.70967,-0.71987 1.19639,-0.92498c0.52378,-0.45557 1.23869,-0.73783 2.0167,-0.74132c0.4305,-0.20809 0.92454,-0.32234 1.44453,-0.31182c0.76864,0.01556 1.45061,0.3009 1.93573,0.7513c0.44431,-0.2269 0.96016,-0.35261 1.50443,-0.34159c0.37367,0.00756 0.72687,0.0789 1.04692,0.20194c0.33293,-0.10983 0.69322,-0.16671 1.06689,-0.15915c0.37549,0.0076 0.7303,0.07959 1.05159,0.20374c0.09369,-0.00633 0.18849,-0.00861 0.28416,-0.00667c0.09731,0.00197 0.19322,0.00826 0.28754,0.01866c0.09524,-0.00657 0.19164,-0.00896 0.28895,-0.00699c0.79693,0.01613 1.50069,0.32226 1.98847,0.80168c0.38231,-0.15326 0.80679,-0.23499 1.25013,-0.22601c0.69802,0.01413 1.32456,0.25074 1.79711,0.63141c0.38455,-0.15549 0.81206,-0.23852 1.25873,-0.22948c0.33734,0.00683 0.658,0.06562 0.95263,0.16752c0.30524,-0.08976 0.63167,-0.13545 0.96901,-0.12862c0.1173,0.00237 0.23257,0.01103 0.34544,0.0256c0.51312,-0.40699 1.18756,-0.65566 1.91753,-0.65894c0.4305,-0.20809 0.92454,-0.32234 1.44453,-0.31182c0.83582,0.01692 1.56915,0.35285 2.05833,0.87312c0.30802,-0.09165 0.63779,-0.13839 0.9787,-0.13149c1.26678,0.02564 2.29813,0.78406 2.60087,1.80645c1.26736,0.26372 2.17325,1.28721 2.10672,2.4897c-0.01175,0.21245 -0.05317,0.41809 -0.12054,0.61388c0.16045,0.33119 0.2402,0.70051 0.21874,1.08847c-0.03865,0.69852 -0.39802,1.32351 -0.94604,1.76621c0.49786,0.46388 0.78735,1.102 0.7487,1.80052c-0.0274,0.49522 -0.21599,0.95347 -0.51873,1.33603c0.14453,0.31805 0.21539,0.66959 0.19501,1.03791c-0.04691,0.84808 -0.56661,1.58777 -1.32269,2.02443c0.02803,0.16191 0.0382,0.32909 0.02875,0.49988c-0.0368,0.66513 -0.36439,1.26359 -0.86875,1.70149c0.00061,0.05007 -0.00046,0.10049 -0.00327,0.15124c-0.07631,1.37945 -1.40341,2.4721 -2.96413,2.44051c-1.56072,-0.03159 -2.76408,-1.17547 -2.68775,-2.55492z" fill="#ffffff" fill-rule="nonzero" stroke="#001026" stroke-width="1.2" stroke-linecap="butt" stroke-linejoin="miter"/><g fill-rule="nonzero" stroke-linecap="butt" stroke-linejoin="miter"><g><path d="M192.82222,152.09528c-0.29391,-3.09815 2.3514,-6.11031 5.90847,-6.72786c3.55707,-0.61754 6.67891,1.39338 6.97282,4.49153c0.29391,3.09815 -2.3514,6.11031 -5.90847,6.72786c-3.55707,0.61754 -6.67891,-1.39338 -6.97281,-4.49152z" fill="#ffffff" stroke="#001026" stroke-width="1.2"/><path d="M214.03667,115.62143c0.50831,0.99364 -0.68004,1.56059 -0.68004,1.56059l-0.74826,0.31342c-2.37311,1.87604 -4.15612,4.49655 -5.79631,6.87801c-1.32794,7.88911 -7.99494,14.74643 -7.14837,22.90758c0,0 0.10643,1.12193 -1.1817,1.34557c-1.28813,0.22363 -1.39456,-0.8983 -1.39456,-0.8983c-0.75098,-8.55512 5.69508,-15.677 7.30695,-23.91534c1.80941,-2.78587 3.88911,-5.74895 6.60783,-7.93643l1.33779,-0.68179c0,0 1.18837,-0.56694 1.69668,0.42671z" fill="#001026" stroke="none" stroke-width="0.5"/></g><g stroke="#001026" stroke-width="1.2"><path d="M217.00459,154.79061c-1.49257,-0.85977 -3.68092,-1.18896 -4.75392,-2.36869c-0.16364,-0.17992 -0.30135,-0.37962 -0.40668,-0.60399c-0.20099,-0.42814 -0.32226,-0.92394 -0.38141,-1.46818c-0.02246,-0.1762 -0.03535,-0.35543 -0.0383,-0.53727c-0.11997,-3.2483 1.57288,-7.85377 1.87483,-10.31692c0.22384,-1.82601 0.36322,-4.17905 0.04668,-5.91709c-0.91179,-5.00619 -5.94671,-19.01565 1.47133,-22.38635c6.21874,-2.82575 11.19482,3.28524 14.30872,6.16846c5.18129,4.79749 12.2549,11.58108 19.57409,14.02059c3.33641,1.11203 8.54889,4.26683 7.00849,8.2667c-4.52788,11.75722 -19.89927,2.14301 -29.10184,4.79646c-3.7531,1.08216 -0.4941,6.20775 -3.65,7.64176z" fill="#ff0000"/><path d="M261.29199,140.39307c3.53577,0.07158 6.00701,2.6899 5.51968,5.84817c-0.48733,3.15828 -3.74869,5.66056 -7.28446,5.58898c-2.50954,-0.0508 -4.48282,-1.38453 -5.24262,-3.2837c-0.68521,0.18814 -1.4042,0.28327 -2.1349,0.26848c-2.69144,-0.05448 -4.76605,-1.58462 -5.38846,-3.70532c-1.32564,1.91114 -3.73629,3.20217 -6.29009,3.15047c-2.27859,-0.04613 -4.11509,-1.14993 -5.00256,-2.77431c-1.36592,1.21768 -3.24347,1.97052 -5.2055,1.9308c-0.62497,-0.01265 -1.21669,-0.10488 -1.76468,-0.26557c-0.00875,0.17876 -0.02705,0.35972 -0.05525,0.54248c-0.48733,3.15828 -3.74869,5.66055 -7.28446,5.58897c-0.02802,-0.00057 -0.05597,-0.00129 -0.08385,-0.00218c-0.92663,2.69263 -3.87683,4.69847 -7.04772,4.63428c-3.53577,-0.07158 -6.007,-2.6899 -5.51967,-5.84817c0.48733,-3.15828 3.74869,-5.66055 7.28446,-5.58897c0.02802,0.00057 0.05598,0.00129 0.08385,0.00218c0.92663,-2.69262 3.87683,-4.69846 7.04771,-4.63427c0.62497,0.01265 1.21669,0.10488 1.76468,0.26558c0.00875,-0.17876 0.02705,-0.35972 0.05525,-0.54248c0.48733,-3.15828 3.74869,-5.66055 7.28446,-5.58897c2.27859,0.04613 4.11509,1.14993 5.00256,2.77431c1.36592,-1.21768 3.24347,-1.97052 5.20549,-1.9308c2.69144,0.05448 4.76606,1.58463 5.38846,3.70533c1.32564,-1.91114 3.73629,-3.20218 6.29009,-3.15048c2.50954,0.0508 4.48281,1.38453 5.24261,3.2837c0.68521,-0.18814 1.40419,-0.28327 2.1349,-0.26848z" fill="#ffffff"/></g></g></g><path d="M252.39298,178.70482c0,0 -6.13429,0.85226 -8.6457,0.11249c-2.60375,-0.76697 -6.70979,-4.63567 -6.70979,-4.63567" fill="none" fill-rule="nonzero" stroke="#001026" stroke-width="1.2" stroke-linecap="round" stroke-linejoin="miter"/></g></g></svg>