<svg version="1.1" xmlns="http://www.w3.org/2000/svg" xmlns:xlink="http://www.w3.org/1999/xlink" width="37.90168" height="37.13658" viewBox="0,0,37.90168,37.13658"><g transform="translate(-214.86398,-153.36605)"><g data-paper-data="{&quot;isPaintingLayer&quot;:true}" fill-rule="nonzero" stroke="none" stroke-width="0.5" stroke-linecap="butt" stroke-linejoin="miter" stroke-miterlimit="10" stroke-dasharray="" stroke-dashoffset="0" style="mix-blend-mode: normal"><g data-paper-data="{&quot;index&quot;:null}"><path d="M247.22672,178.07979c2.10646,0.53088 1.08626,2.68264 -0.50105,2.8442c0.23827,-0.83838 0.41458,-1.84003 0.50105,-2.8442z" data-paper-data="{&quot;noHover&quot;:false,&quot;origItem&quot;:[&quot;Path&quot;,{&quot;applyMatrix&quot;:true,&quot;segments&quot;:[[[246.75175,180.88133],[0.23827,-0.83838],[1.58731,-0.16156]],[[247.23917,178.12821],[2.10646,0.53088],[-0.08647,1.00417]]],&quot;closed&quot;:true}]}" fill="#c7b172"/><path d="M232.53489,172.84343c4.47407,-0.00165 8.9311,1.34637 13.27813,2.39568c-0.26211,0.30245 -0.12028,0.72783 -0.12028,0.72783l0.16773,0.38154c0.00877,5.94153 -2.27467,8.33109 -6.81681,11.63174c-3.84653,1.41172 -8.95635,1.40903 -13.05698,0.0613c-0.16598,-0.24969 -0.47198,-0.3275 -0.47198,-0.3275l-0.22223,-0.02715c-3.15975,-1.7997 -6.43259,-3.83705 -5.76734,-7.91748l0.74378,0.11022c0,0 0.74288,0.10258 0.84894,-0.63988c0.10607,-0.74246 -0.63576,-0.85189 -0.63576,-0.85189l-0.64455,-0.08781c-0.74951,-0.18738 -2.82019,-0.42769 -3.21232,-1.2501c-1.20947,-2.53657 2.08619,-5.95814 3.9443,-2.78556c0,0 0.3983,0.63473 1.0343,0.23723c0.636,-0.3975 0.24098,-1.03692 0.24098,-1.03692c-0.2344,-0.35914 -0.48535,-0.66192 -0.74884,-0.91158c3.83354,-0.00573 7.60207,-0.13141 11.43893,0.29033z" data-paper-data="{&quot;noHover&quot;:false,&quot;origItem&quot;:[&quot;Path&quot;,{&quot;applyMatrix&quot;:true,&quot;segments&quot;:[[[221.13458,172.58485],[3.83354,-0.00573],[0.2635,0.24965]],[[221.88403,173.49568],[-0.2344,-0.35914],[0,0]],[[221.64553,174.52917],[0.636,-0.3975],[-0.636,0.3975]],[[220.61204,174.29068],[0,0],[-1.85811,-3.17258]],[[216.67363,177.06242],[-1.20947,-2.53657],[0.39213,0.82241]],[[219.88637,178.3108],[-0.74951,-0.18738],[0,0]],[220.53086,178.39885],[[221.16726,179.24738],[0.10607,-0.74246],[-0.10607,0.74246]],[220.31873,179.88378],[[219.57493,179.77376],[0,0],[-0.66525,4.08043]],[[225.32471,187.64865],[-3.15975,-1.7997],[0,0]],[225.54612,187.67513],[[226.01553,188.00068],[-0.16598,-0.24969],[4.10064,1.34773]],[[239.00662,187.94662],[-3.84653,1.41172],[4.54214,-3.30065]],[[245.81259,176.36289],[0.00877,5.94153],[0,0]],[245.64527,175.98263],[[245.76624,175.25677],[-0.26211,0.30245],[-4.34703,-1.04931]],[[232.52608,172.89265],[4.47407,-0.00165],[-3.83686,-0.42174]]],&quot;closed&quot;:true}]}" fill="#c7b172"/><path d="M226.79308,173.12131c-1.86087,0.1536 -3.62738,0.71835 -5.10435,0.25682l-0.19971,0.35376l-0.65011,-0.29414c-0.25543,-0.10762 -0.40716,-0.37809 -0.36108,-0.70147c0.05102,-0.358 0.32836,-0.66789 0.66033,-0.76985l0.80825,-0.26729l0.00209,0.01397l0.04013,-0.02673c2.67702,-0.57724 5.7357,-0.50625 8.56883,-0.34887c2.62181,-0.15038 5.25614,-0.15991 7.65082,0.24982c3.77346,0.66843 6.31414,1.03327 8.32104,4.37856l0.26554,0.51238c0,0 0.28683,0.55643 -0.24625,1.00003c-0.05588,0.05848 -0.12417,0.11579 -0.20719,0.17051c-0.68872,0.45389 -1.01464,-0.17839 -1.01464,-0.17839c-2.11336,-4.10791 -7.7625,-4.18206 -12.33702,-4.4102c-0.90515,-0.05416 -1.87433,-0.12514 -2.87427,-0.18437c-1.12922,0.06617 -2.24722,0.15671 -3.32241,0.24546z" fill="#632c00"/><path d="M218.54345,169.17636c-0.29967,-0.9865 -0.65647,-1.94274 -1.06992,-2.90682c-0.66924,-1.50572 -2.7313,-4.18635 -2.28155,-5.90691c0.21455,-0.82079 2.29053,-1.97718 2.96363,-2.4257c2.91461,-1.94219 6.39862,-4.10603 10.02809,-4.13728c6.84399,-1.14066 16.71616,-0.08598 22.59317,3.82193c1.02276,0.64156 2.00969,1.11008 1.98846,2.52502c-0.01803,1.2018 -1.02554,2.6666 -1.50197,3.7559c-0.89912,2.0557 -2.10502,4.31313 -2.72387,6.59689c0.11537,0.15981 0.18448,0.39173 0.05023,0.705c-0.0772,0.18013 -0.18129,0.29302 -0.29295,0.36151c-0.09763,0.53859 -0.15502,1.07712 -0.16051,1.61332c0.60003,0.13233 1.10877,0.30987 1.29246,0.56596c1.23722,1.72481 0.60922,1.85608 -0.37881,2.01718c-0.24153,0.1532 -0.53299,0.10877 -0.57193,0.10193c-0.02101,0.00446 -0.04205,0.00904 -0.0631,0.01376c0,0 -0.20913,0 -0.40653,-0.11043c-0.3075,-0.06475 -0.61539,-0.13224 -0.92364,-0.2019l0.22789,0.79719c-0.00013,0.09631 -0.00083,0.19183 -0.0021,0.28659l0.25724,0.01485c4.11426,1.06097 2.24129,5.92664 -1.34878,5.70421c-1.19921,2.73243 -3.37843,4.69733 -6.50704,6.90194c-4.99048,1.90044 -11.73819,1.58219 -16.53538,-0.81434c0,0 -0.41402,-0.20701 -0.42891,-0.62102c-2.97465,-1.95459 -5.32361,-4.41461 -4.63343,-8.40679c-1.12256,-0.29566 -2.29749,-0.74356 -2.78802,-1.70687c-1.19326,-2.34332 0.08874,-4.82272 1.96728,-5.73869c-0.05639,-0.10532 -0.08836,-0.22567 -0.08836,-0.35348c0,-0.35692 0.24932,-0.65561 0.58331,-0.73141l0.80802,-0.20201l0.00391,0.01564l0.04027,-0.02528c0.10106,-0.01263 0.20204,-0.02506 0.30296,-0.03727l-0.06961,-0.27844c-0.0095,-0.03799 -0.01907,-0.07591 -0.02873,-0.11377c-0.11997,-0.06074 -0.23532,-0.16859 -0.3261,-0.35015c-0.15975,-0.31949 -0.09125,-0.5629 0.02432,-0.73023zM220.31975,169.96915c0.00315,0.01251 0.00629,0.02503 0.00942,0.03756l0.1029,0.41162c0,0 0.00596,0.02385 0.01141,0.06399c4.72238,-0.47712 9.325,-0.4887 14.10496,-0.00355c3.61036,0.89984 7.33719,1.36828 10.9612,2.27519c0.23482,0.05876 0.65297,0.1122 1.13286,0.17764c0.02049,-0.55099 0.08738,-1.10162 0.19072,-1.65053c-5.68031,-2.23598 -12.30358,-2.71647 -18.38185,-2.70927c-3.05572,0 -5.32362,0.73417 -8.13162,1.39735zM221.13458,172.58485c0.2635,0.24965 0.51505,0.55169 0.74945,0.91083c0,0 0.3975,0.63599 -0.2385,1.03349c-0.636,0.3975 -1.0335,-0.2385 -1.0335,-0.2385c-1.85811,-3.17258 -5.14788,0.23517 -3.9384,2.77175c0.39213,0.82241 2.46323,1.061 3.21274,1.24838l0.6445,0.08805c0,0 0.74246,0.10607 0.6364,0.84853c-0.10607,0.74246 -0.84853,0.6364 -0.84853,0.6364l-0.7438,-0.11002c-0.66525,4.08043 2.59002,6.07518 5.74978,7.87488l0.22142,0.02648c0,0 0.30343,0.07586 0.46941,0.32555c4.10064,1.34773 9.14456,1.35767 12.99108,-0.05406c4.54214,-3.30065 6.81474,-5.6422 6.80597,-11.58373l-0.16732,-0.38026c0,0 -0.14114,-0.42342 0.12097,-0.72586c-4.34703,-1.04931 -8.76609,-2.36577 -13.24016,-2.36412c-3.83686,-0.42174 -7.55796,-0.31353 -11.39149,-0.30779zM246.75175,180.88133c1.58731,-0.16156 2.59389,-2.22224 0.48743,-2.75312c-0.08647,1.00417 -0.24916,1.91474 -0.48743,2.75312z" fill="#000000"/><path d="M228.40535,168.55223c6.07827,-0.0072 12.79751,0.49485 18.47783,2.73083c-0.10334,0.54891 -0.17088,1.10577 -0.19136,1.65676c-0.47989,-0.06545 -0.99667,-0.13538 -1.23149,-0.19415c-3.62401,-0.90691 -7.34966,-1.35356 -10.96002,-2.2534c-4.77995,-0.48515 -9.28445,-0.48606 -14.00683,-0.00894c-0.00545,-0.04014 -0.11138,-0.06628 -0.11138,-0.06628l-0.10284,-0.41316c-0.00313,-0.01253 -0.00626,-0.02518 -0.00941,-0.0377c2.808,-0.66318 5.0798,-1.41397 8.13552,-1.41397z" data-paper-data="{&quot;noHover&quot;:false,&quot;origItem&quot;:[&quot;Path&quot;,{&quot;applyMatrix&quot;:true,&quot;segments&quot;:[[[220.31975,169.96915],[2.808,-0.66318],[0.00315,0.01251]],[[220.32917,170.0067],[-0.00313,-0.01253],[0,0]],[220.43207,170.41832],[[220.44348,170.48231],[-0.00545,-0.04014],[4.72238,-0.47712]],[[234.54844,170.47876],[-4.77995,-0.48515],[3.61036,0.89984]],[[245.50963,172.75395],[-3.62401,-0.90691],[0.23482,0.05876]],[[246.6425,172.93159],[-0.47989,-0.06545],[0.02049,-0.55099]],[[246.83322,171.28106],[-0.10334,0.54891],[-5.68031,-2.23598]],[[228.45136,168.5718],[6.07827,-0.0072],[-3.05572,0]]],&quot;closed&quot;:true}]}" fill="#ffffff"/></g><path d="M228.66918,174.81533c0.33541,0.67082 -0.33541,1.00623 -0.33541,1.00623l-0.28825,0.12784c-0.0575,0.01554 -0.1145,0.03179 -0.17104,0.04867c0.00568,0.00497 0.01137,0.00993 0.01705,0.0149l0.28034,0.37367c0,0 0.41603,0.62404 -0.20801,1.04006c-0.62404,0.41603 -1.04006,-0.20801 -1.04006,-0.20801l-0.02002,-0.07686c-0.19526,-0.17109 -0.39032,-0.34452 -0.58767,-0.51548c-0.51444,0.24459 -1.02343,0.50278 -1.56833,0.72249c0,0 -0.69636,0.27854 -0.9749,-0.41781c-0.27854,-0.69636 0.41781,-0.9749 0.41781,-0.9749c0.27365,-0.10845 0.53904,-0.22613 0.80077,-0.34722c-0.18011,-0.1139 -0.36541,-0.21912 -0.55728,-0.31297c0,0 -0.67082,-0.33541 -0.33541,-1.00623c0.33541,-0.67082 1.00623,-0.33541 1.00623,-0.33541c0.51883,0.26391 0.99333,0.58446 1.44766,0.93475c0.35267,-0.14802 0.71514,-0.28151 1.09819,-0.3868l0.0121,-0.02234c0,0 0.67082,-0.33541 1.00623,0.33541z" fill="#000000"/><path d="M240.76242,176.6525c0,0.44997 -0.26997,0.62998 -0.48596,0.70199l0.04591,0.06349c0,0 0.43593,0.6103 -0.17437,1.04623c-0.6103,0.43593 -1.04623,-0.17437 -1.04623,-0.17437l-0.13803,-0.19633c-0.20223,0.13963 -0.40263,0.28451 -0.60378,0.43549c0,0 -0.6,0.45 -1.05,-0.15c-0.45,-0.6 0.15,-1.05 0.15,-1.05c0.05266,-0.03946 0.1053,-0.07856 0.15797,-0.1173c-0.0593,-0.10735 -0.09304,-0.23078 -0.09304,-0.3621c0,-0.06374 0.00795,-0.12563 0.02292,-0.18472c-0.14478,-0.17732 -0.3136,-0.51156 -0.01258,-0.91291c0.45,-0.6 1.05,-0.15 1.05,-0.15c0.2248,0.17021 0.44011,0.35343 0.64674,0.54623c0.08779,-0.05102 0.17643,-0.10144 0.26605,-0.15132l0.51441,-0.09438c0,0 0.75,0 0.75,0.75z" fill="#000000"/><path d="M236.4201,187.20053c-0.71151,0.23717 -0.94868,-0.47434 -0.94868,-0.47434l0.03642,-0.01243c-2.33051,-3.18422 -7.21431,-2.01184 -10.44101,-1.3665c0,0 -0.73544,0.14709 -0.88252,-0.58835c-0.14709,-0.73544 0.58835,-0.88252 0.58835,-0.88252c3.93472,-0.78694 9.10638,-1.76605 11.93518,1.93737l0.1866,0.43809c0,0 0.23717,0.71151 -0.47434,0.94868z" fill="#000000"/></g></g></svg>