<svg version="1.1" xmlns="http://www.w3.org/2000/svg" xmlns:xlink="http://www.w3.org/1999/xlink" width="97.51629" height="117.20306" viewBox="0,0,97.51629,117.20306"><defs><radialGradient cx="267.21377" cy="179.03138" r="7.20705" gradientUnits="userSpaceOnUse" id="color-1"><stop offset="0" stop-color="#54606d"/><stop offset="1" stop-color="#2c3136"/></radialGradient></defs><g transform="translate(-184.02894,-121.20489)"><g data-paper-data="{&quot;isPaintingLayer&quot;:true}" stroke-miterlimit="10" stroke-dasharray="" stroke-dashoffset="0" style="mix-blend-mode: normal"><g fill-rule="evenodd"><path d="M226.48712,193.00381c0.75295,0.4655 2.34939,1.50543 -0.23923,4.77712c-2.58862,3.27169 -9.38032,3.46827 -10.16194,3.4087c-3.03597,-0.12935 -6.74868,-0.41231 -10.75185,-2.1458c-11.63302,-4.96773 -10.79159,-18.26935 -6.83062,-20.11008c3.86327,-1.84817 4.94354,6.49848 9.96593,11.88065c2.18715,2.41132 4.9632,3.43912 7.27222,4.12524c3.27889,0.86207 9.90202,-2.51026 10.74549,-1.93583z" fill="#ffab19" stroke="#001026" stroke-width="1.2" stroke-linecap="round" stroke-linejoin="round"/><path d="M202.83745,182.93708c1.36969,2.85917 4.12606,6.94632 4.12606,6.94632c0,0 -3.55049,-1.18886 -5.72413,0.37997c-1.75415,1.19268 -1.52106,3.45507 -1.37583,4.18034c-1.17694,-1.41607 -2.61115,-3.36189 -3.33727,-6.98823c-0.72612,-3.62634 0.55201,-7.81414 2.54909,-8.2741c1.98274,-0.257 2.36372,1.30247 3.76208,3.75569z" fill="#ffffff" stroke="none" stroke-width="1" stroke-linecap="butt" stroke-linejoin="miter"/></g><path d="M239.22928,197.63228c0.19663,0.79715 0.5873,2.27689 1.01636,4.25223c0.81478,3.7512 1.97383,15.27697 1.97383,15.27697c0,0 8.41433,10.98826 1.67792,13.58186c-7.62994,2.93764 -9.29182,-8.38072 -9.26435,-8.6951c-0.02399,-1.40835 -0.84793,-3.7834 -1.1786,-5.88879c-0.76835,-5.3001 -0.57207,-6.89004 -1.3538,-9.51281c-0.78172,-2.62278 -2.80219,-8.73778 1.06997,-11.61455c3.28874,-2.51036 5.46095,0.39561 6.05865,2.60018z" data-paper-data="{&quot;index&quot;:null}" fill="#ffab19" fill-rule="evenodd" stroke="#001026" stroke-width="1.2" stroke-linecap="round" stroke-linejoin="round"/><path d="M223.02907,204.36013c0.10335,-2.31403 1.57741,-5.78942 5.29573,-4.37332c4.36096,1.59107 3.72391,8.12107 3.5327,10.89578c-0.19121,2.7747 0.34052,4.25097 0.73822,9.60895c0.13337,2.1362 -0.15194,4.68446 0.12787,6.05287c0.09419,0.29538 0.92309,11.74382 -7.08249,11.24789c-7.06805,-0.43785 -1.30037,-13.64083 -1.30037,-13.64083c0,0 -1.35947,-11.49447 -1.37906,-15.36985c-0.01033,-2.04073 0.04888,-3.59073 0.06741,-4.42147z" data-paper-data="{&quot;index&quot;:null}" fill="#ffab19" fill-rule="evenodd" stroke="#001026" stroke-width="1.2" stroke-linecap="round" stroke-linejoin="round"/><path d="M243.81107,187.83959c0.44528,0.45893 5.63544,8.40506 7.77152,6.8008c2.55703,-1.86443 6.19956,-5.65476 9.3617,-1.92556c3.16214,3.72918 -4.04626,8.65761 -7.02769,9.86076c-7.0448,2.38818 -11.88365,-4.18845 -12.88548,-5.93741c-1.00185,-1.74894 -2.76551,-4.70842 -2.49406,-7.33898c0.38975,-2.82208 3.77469,-3.16159 5.27402,-1.45961z" fill="#ffab19" fill-rule="evenodd" stroke="#001026" stroke-width="1.2" stroke-linecap="round" stroke-linejoin="round"/><g fill-rule="evenodd"><path d="M226.37027,203.48989c-9.92296,-6.49175 -4.09204,-11.66049 -2.55565,-17.18077c1.49742,-4.76017 2.722,-4.19955 8.71429,-4.36737c3.35652,-0.27862 5.33224,-0.43652 7.4121,-1.04865c3.13064,-0.86721 3.60031,4.16612 3.2837,6.92385c0,0 -0.53353,4.09724 -1.36258,6.33597c-1.02874,2.71616 -1.84917,4.52387 -2.79996,5.71979c0,0 -2.04297,2.57087 -4.25833,3.20224c-1.99137,0.56753 -8.43359,0.41492 -8.43359,0.41492z" fill="#ffab19" stroke="#001026" stroke-width="1.2" stroke-linecap="round" stroke-linejoin="round"/><path d="M238.18071,199.97946c0,0 -1.6936,-0.8757 -3.54792,-2.0341c-2.30159,-1.37154 -4.538,-2.43718 -3.30097,-6.06177c1.19807,-2.86449 2.12679,-6.52148 7.05552,-4.6081c4.69422,1.75585 3.42236,4.74547 3.42236,4.74547c-1.12393,5.09844 -3.62901,7.9585 -3.62901,7.9585z" fill="#ffffff" stroke="none" stroke-width="1" stroke-linecap="butt" stroke-linejoin="miter"/></g><path d="M250.22223,126.115c0.30485,-0.18532 0.78811,-0.05401 0.86302,0.35825l1.93022,11.02378c0,0 5.99003,5.15486 7.65929,8.62002c2.81468,5.77724 2.65487,10.35434 2.65487,10.35434c0,0 6.82347,2.55538 7.67073,8.41687c0.84728,5.86149 -4.07413,16.57061 -22.67202,19.21126c-18.59791,2.64065 -33.07349,-3.43788 -39.36455,-15.44031c-6.29107,-12.00243 5.4409,-25.15151 4.80832,-24.37455c0,0 -0.1001,-16.25579 0.27964,-16.02887l10.88368,6.00502c0,0 4.49823,-1.45931 9.10622,-1.38299c2.7498,-0.03666 5.08551,0.3092 7.31198,0.85228z" fill="#ffab19" fill-rule="evenodd" stroke="#001026" stroke-width="1.2" stroke-linecap="butt" stroke-linejoin="miter"/><path d="M263.01332,156.8599c0,0 6.64506,2.23873 7.49231,8.10022c0.84728,5.86149 -4.43669,16.03892 -22.83328,18.58987c-23.95343,3.6401 -34.3759,-11.6714 -27.21658,-22.04061c7.16503,-10.47079 17.8909,-0.54311 26.1403,-0.65312c7.07011,-0.07978 8.21314,-6.43184 16.41725,-3.99637z" fill="#ffffff" fill-rule="evenodd" stroke="none" stroke-width="1" stroke-linecap="butt" stroke-linejoin="miter"/><path d="M280.94523,159.07137c-4.81407,3.58062 -11.86126,3.25408 -11.86126,3.25408" fill="none" fill-rule="evenodd" stroke="#001026" stroke-width="1.2" stroke-linecap="round" stroke-linejoin="round"/><path d="M279.03269,170.37118c-6.18993,0.1333 -9.89528,-2.02864 -9.89528,-2.02864" fill="none" fill-rule="evenodd" stroke="#001026" stroke-width="1.2" stroke-linecap="round" stroke-linejoin="round"/><path d="M246.35373,158.19138c2.05376,0.12486 4.19388,0.45884 4.25161,1.17586c0.01766,1.42808 -1.60961,4.18316 -3.18012,4.18961c-1.77182,0.09614 -5.73623,-2.69314 -5.64464,-4.31844c-0.02911,-1.22492 2.61717,-1.16595 4.57314,-1.04703z" fill="#001026" fill-rule="evenodd" stroke="#001026" stroke-width="1.2" stroke-linecap="round" stroke-linejoin="round"/><path d="M202.43034,153.9919c0,0 8.25037,3.35564 11.49584,6.71277" fill="none" fill-rule="evenodd" stroke="#001026" stroke-width="1.2" stroke-linecap="round" stroke-linejoin="round"/><path d="M214.01922,164.27785c-4.30265,1.4712 -11.47676,-0.08622 -11.47676,-0.08622" fill="none" fill-rule="evenodd" stroke="#001026" stroke-width="1.2" stroke-linecap="round" stroke-linejoin="round"/><g fill-rule="nonzero" stroke="#001026" stroke-width="1.2" stroke-linejoin="miter"><g><path d="M249.16785,199.99484l8.49148,-20.77847l11.05159,7.00776l-13.11409,16.95539c0,0 -2.54252,0.44733 -3.58068,-0.06694c-1.10114,-0.54547 -2.84831,-3.11775 -2.84831,-3.11775z" fill="#505a63" stroke-linecap="butt"/><path d="M257.73392,177.62847c2.07398,-3.52871 6.50936,-4.64296 9.90665,-2.48876c3.39731,2.15421 4.47005,6.76116 2.39608,10.28984c-2.07398,3.52871 -6.50937,4.64296 -9.90666,2.48875c-3.39731,-2.15421 -4.47004,-6.76115 -2.39606,-10.28986z" fill="url(#color-1)" stroke-linecap="butt"/><path d="M258.0539,185.33293c0,0 1.55997,-4.42643 2.64105,-6.31371c1.0104,-1.76385 3.64777,-4.66472 3.64777,-4.66472" fill="none" stroke-linecap="round"/><path d="M263.85224,188.83954c0,0 1.83085,-5.5412 2.79018,-7.58179c0.70882,-1.50772 2.44522,-3.5544 2.44522,-3.5544" fill="none" stroke-linecap="round"/><path d="M257.46104,177.98412c0,0 4.9201,0.12005 7.2666,0.94744c2.04142,0.71981 6.02503,3.73919 6.02503,3.73919" fill="none" stroke-linecap="round"/><path d="M256.5095,183.50325c0,0 5.4001,0.49091 7.74829,1.05258c1.82538,0.43661 5.17164,2.03781 5.17164,2.03781" fill="none" stroke-linecap="round"/></g><path d="M261.68973,198.6287c-1.37636,2.35766 -4.44491,3.3449 -6.85382,2.20511c-2.40891,-1.13979 -3.8177,-3.42064 -2.44134,-5.7783c1.37636,-2.35766 5.01667,-3.89932 7.42556,-2.75951c2.40891,1.13979 3.24594,3.97503 1.86959,6.3327z" fill="#ffab19" stroke-linecap="butt"/></g><g fill-rule="nonzero" stroke="#001026" stroke-width="1.2" stroke-linecap="butt" stroke-linejoin="miter"><path d="M225.31556,141.26879c-1.60207,4.35084 -21.46537,11.44662 -21.46537,11.44662c0,0 -2.80338,-0.29443 -4.11962,-0.50542c-9.85773,-1.58013 -16.32142,-5.44218 -14.90808,-9.28051c1.60207,-4.35084 12.71854,-7.02364 24.82932,-5.96986c12.11079,1.05377 17.26581,-0.04168 15.66373,4.30914z" fill="#00b0f7"/><path d="M210.53059,135.90548l-11.31536,-4.40149c0,0 14.48685,-5.72013 22.3428,-7.15011c9.50128,-1.72947 30.67317,-2.50011 30.67317,-2.50011l-14.63946,17.36123z" fill="#ff2b2b"/><path d="M201.34472,153.54231c0,0 -2.47295,-7.62266 -2.84484,-11.27798c-0.36077,-3.5462 0.6459,-10.33655 0.6459,-10.33655l25.81053,-2.83289c0,0 0.15966,7.82649 0.53659,11.53134c0.35472,3.48673 1.66236,10.08318 1.66236,10.08318z" data-paper-data="{&quot;index&quot;:null}" fill="#cc0000"/><path d="M226.74073,150.68836c0,0 -0.72373,-6.70884 -1.49695,-10.12176c-0.82158,-3.62644 -3.29627,-11.03524 -3.29627,-11.03524l30.93088,-7.56012c0,0 3.47672,5.97452 4.26312,9.44565c0.81061,3.57795 0.53009,11.71133 0.53009,11.71133z" fill="#f70000"/></g><path d="M217.82821,193.70148c-3.07595,2.73717 -4.29628,6.89274 -6.72156,7.46608c-1.58282,0.37418 -3.31142,0.02846 -3.96434,-0.76312c-0.72771,-0.88226 -0.99076,-3.27849 -0.1822,-5.08869c1.02845,-2.3025 2.03492,-6.34056 4.88088,-8.87307c2.51047,-2.23397 6.7564,-2.75878 8.94701,-3.59383c2.24511,-0.85584 3.92621,0.15981 4.76303,1.17436c0.90345,1.09534 1.19828,2.84273 -0.19851,5.23958c-1.15935,1.98941 -5.21869,2.38702 -7.52432,4.4387z" fill="#ffab19" fill-rule="nonzero" stroke="#001026" stroke-width="1.2" stroke-linecap="butt" stroke-linejoin="miter"/><path d="M248.79314,152.25972c0,-5.15146 4.02057,-9.32755 8.9802,-9.32755c4.95962,0 8.9802,4.17609 8.9802,9.32755c0,5.15146 -4.02057,9.32755 -8.9802,9.32755c-4.95962,0 -8.9802,-4.17609 -8.9802,-9.32755z" fill="#ffffff" fill-rule="nonzero" stroke="#001026" stroke-width="1.2" stroke-linecap="butt" stroke-linejoin="miter"/><path d="M223.6486,153.78605c0,-5.15146 4.02057,-9.32755 8.9802,-9.32755c4.95962,0 8.98019,4.17609 8.98019,9.32755c0,5.15146 -4.02056,9.32755 -8.98019,9.32755c-4.95962,0 -8.9802,-4.17609 -8.9802,-9.32755z" fill="#ffffff" fill-rule="nonzero" stroke="#001026" stroke-width="1.2" stroke-linecap="butt" stroke-linejoin="miter"/><path d="M248.33421,175.47834c-0.36281,1.73924 -3.41667,1.13988 -7.1622,0.29696c-3.74552,-0.84292 -6.76437,-1.61021 -6.40156,-3.34945c0.36281,-1.73924 3.69326,-2.46585 7.43879,-1.62293c3.74552,0.84292 6.48777,2.93617 6.12497,4.67542z" fill="#ffffff" fill-rule="nonzero" stroke="#001026" stroke-width="1.2" stroke-linecap="butt" stroke-linejoin="miter"/></g></g></svg>