<svg version="1.1" xmlns="http://www.w3.org/2000/svg" xmlns:xlink="http://www.w3.org/1999/xlink" width="435.12254" height="268.78004" viewBox="0,0,435.12254,268.78004"><g transform="translate(-4.45798,-109.02498)"><g data-paper-data="{&quot;isPaintingLayer&quot;:true}" fill="#000000" fill-rule="nonzero" stroke="none" stroke-width="0.5" stroke-linecap="butt" stroke-linejoin="miter" stroke-miterlimit="10" stroke-dasharray="" stroke-dashoffset="0" style="mix-blend-mode: normal"><path d="M239.31584,190.41729c1,0 1,1 1,1l-0.10557,-0.13471c3.3509,6.72611 13.34268,2.34452 18.12816,-0.60625c3.76607,-2.31577 9.53253,-4.48223 11.6254,-8.72609c2.45389,-4.97593 -4.34238,-10.3108 -7.86993,-12.09506c-2.2798,-0.56995 -6.97302,-2.45156 -8.07693,-4.6177c-0.6609,-1.29683 0.17711,-4.00879 0.625,-5.14037c0.20565,-0.51957 1.06814,-2.20839 1.5438,-2.58135c2.91965,-2.28925 7.44332,-2.41097 10.94258,-2.41097c0,0 1,0 1,1c0,1 -1,1 -1,1c-3.10591,0 -7.03118,0.03523 -9.68242,1.96403c-0.54789,0.39859 -0.70174,1.16571 -0.9562,1.79365c-0.25401,0.62684 -1.01512,2.79811 -0.625,3.60963c0.72494,1.50799 5.35468,3.1152 6.92307,3.5073c4.60264,2.27856 11.99276,8.61216 9.00507,14.77994c-2.2837,4.71446 -8.23016,7.04832 -12.40623,9.6203c-5.91232,3.63153 -16.92999,7.84116 -20.96521,-0.20264l-0.10557,-0.75971c0,0 0,-1 1,-1z"/><path d="M267.24091,192.74605c0.85874,-0.51242 1.37115,0.34632 1.37115,0.34632l-0.01288,0.28606c3.06059,1.55334 5.896,1.16372 9.1421,0.53048c4.21999,-2.10578 8.90698,-2.98914 12.87196,-5.80797c0.79844,-0.56764 4.5995,-2.4152 3.45737,-4.00346c-1.21176,-1.68509 -3.26147,-1.57431 -4.98455,-2.01945c-1.58662,-0.40989 -3.64216,-1.48535 -5.11719,-2.22286c-4.8666,-1.21665 -9.92371,-6.40991 -5.70815,-11.29512c3.33998,-3.87055 10.56591,-4.9561 15.28868,-5.63271c0,0 0.98995,-0.14142 1.13137,0.84853c0.14142,0.98995 -0.84853,1.13137 -0.84853,1.13137c-4.27312,0.60863 -11.00361,1.53888 -14.08632,4.99229c-3.33499,3.73602 1.60113,7.25095 4.91685,8.07988c1.39622,0.69811 3.38639,1.79339 4.88281,2.15214c2.22688,0.53387 4.90492,0.6448 6.26545,2.98055c1.49231,2.56199 -1.1079,4.65145 -2.9171,5.87165c-4.61107,3.1099 -9.66726,4.39388 -14.50356,6.81692c-3.80383,0.77719 -7.0796,1.14637 -10.6856,-0.63337l-0.81017,-1.05008c0,0 -0.51242,-0.85874 0.34632,-1.37115z"/><path d="M295.56584,193.22979c0.47778,0 0.72729,0.22828 0.85759,0.4667c0.26615,0.05423 0.53231,0.10846 0.79846,0.16269c6.47085,-0.07717 12.32461,-2.20366 17.81822,-5.48004c2.51465,-1.49973 4.12546,-5.34803 0.72835,-6.99293c-1.49724,-0.72497 -3.79333,-0.77361 -5.42201,-1.18078c-2.56209,-0.52073 -6.48241,-0.01197 -8.39021,-2.24679c-1.7186,-2.01319 0.41829,-4.2159 1.58626,-5.61283c3.344,-3.99955 9.23756,-6.99069 14.35894,-7.85241c0,0 0.98639,-0.1644 1.15079,0.82199c0.1644,0.98639 -0.82199,1.15079 -0.82199,1.15079c-4.2905,0.70767 -9.47667,3.17549 -12.58276,6.28368c-0.47069,0.47101 -3.05806,3.09569 -2.09704,4.00108c1.60322,1.51042 5.23163,1.10814 7.23479,1.50321c1.73696,0.43424 4.2448,0.50992 5.82799,1.31922c3.89518,1.99114 3.93962,6.74268 0.8659,9.46729c-5.26356,4.66572 -13.57742,6.75138 -20.44432,6.80974c-0.55502,-0.10918 -1.11005,-0.21836 -1.66507,-0.32753l-0.80388,-1.29308c0,0 0,-1 1,-1z"/><path d="M357.16098,178.67475c0.24254,0.97014 -0.72761,1.21268 -0.72761,1.21268l-1.18877,0.2951c-3.13778,1.21491 -6.92729,1.67607 -10.54276,1.83962c-2.95605,4.08079 -5.77617,8.34761 -6.94439,12.80843c0.66643,0.49142 1.11312,1.36354 1.91011,1.5881c0.99025,0.27901 2.05696,-0.0639 3.08577,-0.0639c3.79337,0 7.52341,-0.34829 11.29605,-0.74886c2.47477,-0.26277 5.38146,-0.47061 7.57702,-1.61605l0.88473,-0.59214c0,0 0.83205,-0.5547 1.38675,0.27735c0.5547,0.83205 -0.27735,1.38675 -0.27735,1.38675l-0.99027,0.65786c-4.99627,2.42562 -12.34871,2.63346 -17.87693,2.63509c-1.54726,0.00046 -4.32602,0.3997 -5.78923,-0.0639c-0.47538,-0.15062 -3.0882,-2.78527 -3.08989,-2.7869c0.58311,-4.84939 3.83274,-8.83711 6.42569,-12.88004c0.1147,-0.17884 0.23169,-0.35797 0.35066,-0.53738c-0.71073,0.0134 -1.40791,0.01822 -2.08474,0.01822c0,0 -1,0 -1,-1c0,-1 1,-1 1,-1c1.11629,0 2.29301,-0.01146 3.49538,-0.05433c2.02617,-2.83648 4.26781,-5.75029 5.60628,-8.77302c0.82433,-1.86163 1.27297,-3.77787 2.19142,-5.61986c0,0 0.44721,-0.89443 1.34164,-0.44721c0.89443,0.44721 0.44721,1.34164 0.44721,1.34164c-1.2196,2.43201 -1.74175,5.10649 -3.21046,7.41151c-1.23873,1.94407 -2.70746,3.93463 -4.20821,5.97272c2.93544,-0.21011 5.8994,-0.67064 8.40798,-1.65919l1.31123,-0.3299c0,0 0.97014,-0.24254 1.21268,0.72761z"/><path d="M381.44084,182.97979c0,-1 1,-1 1,-1h1.9375c5.75175,0 11.94683,-1.41516 10.90472,-8.58055c-1.42561,-1.68333 -1.90785,-1.518 -4.00974,-1.29785c-4.73504,0.49594 -9.77834,3.47097 -10.98333,8.66683c-0.19374,0.83539 -0.67172,4.5854 0.65832,3.74144c0,0 0.97014,-0.24254 1.21268,0.72761c0.24254,0.97014 -0.72761,1.21268 -0.72761,1.21268c-0.6368,0.08362 -1.34594,0.55729 -1.91039,0.25087c-0.99918,-0.54242 -1.35056,-2.15049 -1.39984,-3.68312c-2.27144,2.32691 -3.58546,2.8371 -6.9323,2.8371h-0.625c0,0 -1,0 -1,-1c0,-1 1,-1 1,-1h0.625c2.65911,0 3.39175,-0.11809 5.35155,-1.93907c0.09207,-1.00722 -0.07176,-2.03218 -0.28529,-3.0208c-0.17694,-0.81924 -0.37616,-3.00069 -1.46647,-3.46613c-2.12116,-0.90549 -5.62673,-0.39928 -7.19712,1.30467c-0.76283,0.8277 -0.44534,2.96908 -0.37593,3.87757c0.21209,2.77594 0.57263,5.38185 3.40715,6.44027c0,0 0.92848,0.37139 0.55709,1.29987c-0.37139,0.92848 -1.29987,0.55709 -1.29987,0.55709c-3.92894,-1.64982 -6.99884,-9.70792 -3.84378,-13.43215c2.03951,-2.40743 6.82316,-3.21097 9.67788,-1.82033c1.78162,0.8679 2.14267,3.1568 2.49665,4.82008c0.10436,0.49038 0.17608,0.98993 0.21664,1.49299c1.98524,-7.28829 13.05323,-14.08603 18.66928,-7.40851c0.21088,1.16231 0.58265,2.45053 0.39723,3.66663c-1.02171,6.70073 -7.55578,7.75282 -13.11751,7.75282h-1.9375c0,0 -1,0 -1,-1z"/><path d="M420.4002,193.72606c-0.74627,-0.66564 -0.08063,-1.41191 -0.08063,-1.41191l0.20742,-0.18022c1.73333,-3.46384 4.55852,-7.34663 4.53885,-11.34164c-0.00401,-0.81401 0.61646,-4.40448 -0.75282,-4.00749c-2.96711,0.74632 -4.73168,3.01233 -6.72602,5.14964c-4.73001,5.06908 -7.46336,13.60907 -13.16305,17.84097l0.1615,0.1615l-0.9375,0.9375c-0.18096,0.18096 -0.43096,0.29289 -0.70711,0.29289c-0.55228,0 -1,-0.44772 -1,-1c0,-0.12318 0.02227,-0.24116 0.06301,-0.35013l0.34793,-1.00164l0.02424,0.00842l-0.00106,-0.06877c3.85631,-7.73218 7.48342,-15.34525 10.237,-23.57556c0.4368,-1.30558 0.62354,-2.67471 0.82802,-4.0244c-2.06069,4.36738 -3.86035,8.81173 -5.84062,13.17994c-1.24721,2.75117 -3.11363,6.21391 -3.03351,9.26964c0,0 0,1 -1,1c-1,0 -1,-1 -1,-1c0.0625,-3.45741 1.79251,-6.98113 3.21649,-10.10536c2.3059,-5.05917 4.33108,-10.24164 6.85175,-15.26163l0.60079,-1.80237c0.12567,-0.40862 0.50614,-0.70565 0.95598,-0.70565c0.44984,0 0.83031,0.29702 0.95598,0.70565l0.61771,1.85312l-0.01423,0.00474c0.01859,0.04996 0.03616,0.10038 0.05263,0.1513c0.842,2.60346 -1.11126,6.77617 -1.99824,9.24599c-1.92631,5.36381 -4.11698,10.46254 -6.50907,15.5307c0.05084,-0.06727 0.09773,-0.13149 0.14019,-0.19238c4.33327,-6.21488 8.64747,-16.24128 16.63286,-18.22914c3.57433,0.3041 3.0101,3.08144 2.99718,5.99251c-0.01952,4.3978 -2.84305,8.41894 -4.75,12.23607l-0.50373,0.61707c0,0 -0.66564,0.74627 -1.41191,0.08063z"/><path d="M405.3125,233.97979c-1,0 -1,-1 -1,-1l0.16795,-1.1797c2.20844,-3.31265 3.5783,-6.37871 2.83138,-10.46174c-0.19498,-1.06584 -0.03612,-2.32308 -0.70904,-3.17232c-0.23003,-0.2903 -2.2159,0.3524 -2.58772,0.6301c-2.16658,1.61816 -3.53976,3.69935 -5.00619,5.96071c-1.47966,1.50895 -2.68446,5.21722 -4.76619,5.96815c-0.76459,0.27581 -1.86001,0.74274 -2.43278,0.16603c-0.60404,-0.60819 -0.0918,-1.72482 0.04404,-2.57118c0.2679,-1.66913 0.76542,-2.97976 0.89707,-4.76037c0.026,-0.35164 0.16292,-1.55543 -0.28708,-1.8299c-0.30181,-0.18408 -2.32101,2.16072 -2.646,2.53041c-1.90949,2.17217 -2.1928,4.85866 -3.82626,6.899l0.34041,0.34041l-0.9375,0.9375l-0.3301,-0.3301c-0.23094,0.19236 -0.48295,0.37512 -0.75969,0.54688l-0.26235,-0.92388h-0.35496c0,-3.4375 0,-8.125 0,-11.5625c0.00216,-0.4442 -0.34848,-2.19133 -0.60911,-3.54961c-0.24046,1.72895 -0.51671,3.31805 -0.51589,5.11211c0.00248,5.47619 -0.36545,10.39815 -1.26361,15.7894c0,0 -0.1644,0.98639 -1.15079,0.82199c-0.98639,-0.1644 -0.82199,-1.15079 -0.82199,-1.15079c0.88202,-5.2899 1.23404,-10.08595 1.23639,-15.4606c0.0008,-1.82009 -0.24126,-5.57362 0.67096,-7.17469c2.75819,-4.84095 4.44595,3.678 4.45404,5.61219c0,2.30454 0,4.60907 0,6.91361c1.03409,-2.08546 2.75586,-4.28264 3.60539,-5.12072c0.77243,-0.76201 2.32031,-2.7878 3.86816,-2.10518c2.38357,1.05118 1.71173,5.55303 1.24883,7.4207c-0.00631,0.02548 -0.08603,0.32068 -0.21848,0.68577c0.31996,-0.3676 0.64238,-0.73462 0.90318,-1.14491c0.72525,-1.14098 1.41005,-2.33394 2.34991,-3.30578c1.9478,-3.03261 4.41916,-7.31714 8.49301,-7.15599c0.61432,0.0243 1.38123,-0.22638 1.83471,0.18876c0.56932,0.52119 1.35968,3.62096 1.5111,4.45825c0.82835,4.58043 -0.6505,8.17531 -3.13876,11.90769l0.16795,0.0703c0,0 0,1 -1,1z"/><path d="M435.851,229.44246c-0.52517,0.851 -1.37617,0.32583 -1.37617,0.32583l-1.02253,-0.63398c-1.95657,-1.6397 -3.02462,-2.26441 -5.55732,-2.03293c-0.56556,0.05169 -1.47639,-0.42144 -1.70081,0.10027c-0.17738,0.41236 1.05024,2.11672 1.17957,2.38093c1.21749,1.19719 2.72659,4.24233 4.41851,4.61146c2.34026,0.51058 3.57184,-1.51542 4.52281,-3.26548c2.17666,-4.00567 1.27762,-9.19885 -0.07625,-13.25754c0,0 -0.31623,-0.94868 0.63246,-1.26491c0.94868,-0.31623 1.26491,0.63246 1.26491,0.63246c1.68466,5.05771 2.41413,11.16776 -0.74163,15.87093c-1.39789,2.08334 -3.21438,3.99126 -6.0618,3.23105c-2.39159,-0.63851 -3.92413,-3.70664 -5.58149,-5.38854c-0.42567,-0.83593 -1.18864,-1.53533 -1.38889,-2.44945c-0.55171,0.78278 -1.24027,1.23971 -2.12717,1.97966c-2.47468,2.43447 -10.69856,4.65313 -11.0477,-0.42742v-1.5625c0,0 0,-1 1,-1c1,0 1,1 1,1v1.5625c-0.19577,1.28741 0.19174,0.88599 1.5,0.875c2.21269,-0.0186 4.61577,-0.30977 6.2023,-1.92742c0.87631,-0.71547 1.77474,-1.24797 2.2156,-2.36236c1.55965,-3.94242 -3.80261,-6.02708 -6.6663,-5.60326c-1.37279,0.20317 -2.3633,1.59476 -1.50641,2.90034c1.13754,1.73318 2.32224,1.6802 4.1298,1.6802c0,0 1,0 1,1c0,1 -1,1 -1,1c-2.47277,0 -4.4242,-0.30998 -5.8702,-2.6948c-1.53716,-2.53518 0.20066,-5.30148 2.86859,-5.84966c3.91355,-0.80411 9.6592,2.18848 9.298,6.65482c0.63467,-0.2695 1.48018,-0.3388 2.37113,-0.41945c2.99432,-0.27106 4.60314,0.50679 6.89057,2.40281l0.90458,0.55528c0,0 0.851,0.52517 0.32583,1.37617z"/><path d="M179,187.83333c1,0 1,1 1,1l-0.07612,0.61732c1.6606,1.59531 1.62278,4.01747 2.04937,6.15293c0.70366,3.52243 0.53871,7.49722 -1.16201,10.81446c-1.82512,1.82512 -3.7367,4.88879 -6.58149,5.38854c-2.90026,0.50949 -6.53494,0.04893 -9.43712,-0.22198c-6.47261,-0.6042 -12.54097,-1.7022 -18.80316,-3.51773c-3.08457,-0.96193 -5.75842,-2.74433 -8.8057,-3.78486c-0.57131,-0.19508 -1.1905,-0.28968 -1.7095,-0.59803c-0.41035,-0.2438 -0.72246,-1.22939 -1.09159,-0.92677c-0.85316,0.69943 -0.93906,1.81386 -1.57144,2.66083c-0.51984,0.69624 -1.49878,1.02081 -1.88736,1.79797c-0.20006,0.40012 0.09955,1.0081 -0.21677,1.32442c-0.31632,0.31632 -0.92809,0.0093 -1.32442,0.21677c-2.30845,1.20841 -3.97972,2.07612 -6.88268,2.07612c-3.75114,0 -7.95483,0.52214 -11.66018,-0.01291c-9.17591,-1.32499 -16.71896,-7.00184 -24.16526,-12.01011c-2.81929,-1.89711 -4.71025,-3.78859 -6.91968,-6.31005c-0.63846,-0.72863 -2.54235,-2.26662 -2.59469,-3.17983c-0.02831,-0.49389 -0.04214,1.01885 -0.26576,1.46013c-0.56288,1.11075 -1.34153,2.15961 -2.08319,3.1375c-1.98055,2.61139 -5.45874,4.66113 -8.70026,5.01177c-5.68452,1.13432 -11.28959,1.36078 -16.84073,-0.12323c-0.85446,-0.22843 -1.82611,0.26471 -2.65293,-0.04937c-1.42366,-0.54079 -4.18126,-2.45778 -4.96797,-3.89815c-0.64368,-1.17851 -0.10274,-2.68371 -0.14935,-4.02573c0.0573,-2.6339 1.49065,-4.20299 2.57612,-6.38268c2.60091,-5.2228 7.13837,-11.61732 13.92388,-11.61732c0,0 1,0 1,1c0,1 -1,1 -1,1c-5.9204,0 -9.82959,5.90338 -12.07612,10.38268c-0.95461,1.90336 -2.50491,3.28419 -2.42388,5.61732c-0.01545,0.71016 -0.45272,1.36231 -0.50252,2.07089c-0.12061,1.71627 2.56593,2.49593 3.52825,3.07846c4.9508,2.99695 13.54873,2.11942 19.28561,0.9697c3.8968,-0.38481 6.66594,-3.29663 8.87741,-6.20376c0.56266,-0.73966 1.08212,-3.27176 2.15106,-3.40238c1.14296,-0.13966 2.91009,2.15777 3.47142,2.90238c2.13,2.82544 4.55942,4.9372 7.47987,6.90238c7.18679,4.83821 14.49705,10.4442 23.36907,11.69525c3.59894,0.50749 7.69585,-0.01291 11.33982,-0.01291c2.64656,0 3.98715,-0.92816 6.11732,-1.92388c0.21425,-0.10015 0.50835,0.384 0.67558,0.21677c0.16723,-0.16723 -0.32254,-0.46404 -0.21677,-0.67558c0.44694,-0.89388 1.52253,-1.41977 2.11264,-2.20203c0.88394,-1.17176 0.79821,-2.65558 2.42856,-3.33917c1.92681,-0.80788 1.65717,0.31473 2.90841,1.07323c0.85615,0.51899 1.93508,0.53626 2.85695,0.92677c2.45551,1.04018 4.61839,2.45168 7.18146,3.24176c8.25438,2.39272 18.54158,5.04761 27.20611,3.70887c2.2847,-0.35301 3.96564,-3.15859 5.41851,-4.61146c1.90434,-3.9406 2.07496,-11.72756 -1.11264,-15.03261l-0.07612,-1.38268c0,0 0,-1 1,-1z"/><path d="M132,281.83333c-0.55243,0 -0.79968,-0.30517 -0.91034,-0.57835c-0.30157,-0.0178 -0.60265,-0.03899 -0.9048,-0.06395c-0.25023,0.47524 -0.49999,0.88976 -0.65913,0.99295c-1.81951,1.17995 -6.67305,-0.02261 -8.59519,-0.3441c-3.89106,-0.6508 -7.8189,-1.37386 -11.77038,-1.97173c-1.31327,0.14196 -2.70764,0.64956 -3.93041,0.93842c-3.85319,0.91027 -8.5775,0.45867 -12.52926,-0.80999c-2.29011,0.74242 -4.77022,0.76291 -7.54031,1.32383c-4.96738,1.00585 -10.43268,0.70716 -15.343,-0.50202c-7.24556,-1.81379 -14.67959,-3.16993 -22,-5c-5.03282,-1.25818 -10.88137,-3.6709 -12.74106,-8.60239c-1.14574,-2.33315 -1.47645,-4.72774 -2.04937,-7.15293c-0.1349,-0.57104 0.47987,-1.31799 0.09157,-1.75789c-0.63903,-0.72396 -2.29393,-1.10838 -3.12025,-1.60695c-1.82042,-1.09836 -3.50621,-2.73272 -5.13206,-4.09157c-3.09528,-2.58695 -4.9903,-6.00657 -7.5987,-9.01269c-1.68585,-2.16923 -4.17305,-4.81686 -5.18577,-7.36513c-1.56413,-3.93579 -2.71195,-7.95918 -4.01857,-12.02958c-1.72525,-5.3745 -3.06297,-9.62179 -3.06297,-15.36595c0,-2.51082 -0.53772,-5.27309 1.97427,-6.85065c0.8505,-0.53412 1.81719,-0.89765 2.79598,-1.1226c0.07849,-0.01804 0.89074,0.40651 0.73227,-0.09764c-2.0995,-6.67934 -5.51944,-12.88997 -5.4896,-20.26893c-0.77279,-2.31838 -0.51291,-4.73223 -0.51291,-7.16018c0,-10.14015 4.02971,-19.94393 11.29289,-27.20711c5.87392,-5.87392 12.38362,-8.89287 20.39336,-10.64906c2.74314,-0.60145 5.35106,-0.64143 8.15559,-0.64362c0.5527,-0.00043 1.1054,-0.00016 1.65809,-0.00021c0.4419,-0.00003 1.29296,0.7348 1.29296,0.29289c0,-0.28175 -0.19526,-0.5286 -0.29289,-0.79289c0,-1.39141 -0.30987,-3.36943 0.02675,-4.72975c0.61305,-2.47743 2.692,-4.89316 4.30547,-6.5146c4.89074,-4.91493 11.53932,-8.09119 18.24892,-10.33678c11.64968,-3.88197 25.29706,-4.26061 37.495,-3.24932c13.09386,1.09116 27.51599,3.02345 39.37062,8.9358c2.40881,1.21203 4.57132,1.84443 6.68723,3.62131c0.55873,0.46921 2.36011,3.73364 3.09576,3.80009c6.81612,0.61567 13.97833,-0.03124 20.83238,-0.02482c9.1786,1.13859 19.23505,3.34063 26.92106,8.75017c1.91114,1.34509 4.59982,2.65053 5.86746,4.72217c0.62531,1.02192 0.92702,2.21897 1.5465,3.24443c0.54703,1.00552 1.37303,1.92453 1.57599,3.05108c0.18604,1.03265 -0.09357,2.10501 0.02345,3.14774c0.46698,4.16082 1.54604,9.48572 -1.18535,13.16719c-0.83477,1.12514 -2.68765,3.22661 -3.92856,3.83917c-1.66656,0.82268 -2.81757,-0.8456 -2.9588,1.69344c1.64591,1.64591 0.97742,4.07011 2,6c1.8841,3.5558 2.64525,8.00279 3.06927,12.16158c0.59889,5.87384 1.44822,11.76931 1.50195,17.67507c0.00895,5.55779 -0.02786,11.05629 -0.42513,16.60204c-0.43343,6.05061 -2.39657,10.84682 -8.90979,10.93109c-1.75133,0.60006 -3.2968,0.99698 -5.1554,1.0129c-0.57509,0.00493 -2.12006,-0.29504 -2.6221,-0.07611c-0.77939,0.33989 -0.79765,1.96074 -0.92792,2.35803c-0.61184,1.86593 -1.24259,3.67451 -2.01481,5.53827c-1.9581,4.7259 -6.06093,10.23469 -9.66661,13.81381c-0.80814,1.21221 -1.99544,3.16969 -3.07732,4.08403c-0.49981,0.42241 -1.29641,0.40642 -1.76146,0.86682c-0.9153,0.90613 -1.22879,2.3608 -2.25747,3.13582c-6.02929,4.54259 -12.1478,7.27934 -19.6771,7.27934c-1.72546,-0.21276 -3.25217,4.14978 -4.3382,5.24968c-4.3753,4.43117 -10.41853,7.25032 -16.6618,7.25032c-0.38011,0 -0.75256,-0.00318 -1.11999,-0.01015c-0.12329,0.25334 -0.37324,0.51015 -0.88001,0.51015zM131.49749,270.23554c-0.29819,-0.04681 -0.36313,0.37084 -0.49255,0.71537c0.00093,0.12082 0.00184,0.24164 0.00272,0.36248c0.12234,-0.3953 0.8798,-1.01662 0.48983,-1.07785zM127.66724,274.07817c-0.48447,0.37874 -1.20116,0.34328 -1.71371,0.68305c-1.17345,0.77787 -1.93302,2.35298 -3.09901,3.20593c0.63857,0.30129 1.27267,0.62216 1.93527,0.90908c0.65953,0.28559 2.72328,-0.01948 3.38231,0.07378c0.28861,0.04084 0.57253,0.07785 0.8532,0.11129c-0.06979,-2.03841 -0.06784,-4.08778 -0.05078,-6.13371c-0.4553,0.42484 -0.90005,0.83221 -1.30728,1.15057zM116.14935,278.85906c-0.04445,-0.05341 -0.06234,-0.11596 -0.06447,-0.18403c-0.15033,0.02302 -0.30051,0.04848 -0.45052,0.07593c0.17336,0.03797 0.34648,0.07575 0.51933,0.1133c-0.00145,-0.00173 -0.00289,-0.00346 -0.00434,-0.0052zM115.07612,275.71601c-0.32787,-0.80745 -1.07612,-1.51121 -1.07612,-2.38268c0,-0.1261 -0.04517,-0.3145 -0.10365,-0.5111c-0.13689,0.32616 -0.56215,0.58701 -0.92197,1.04383c-1.0659,1.35323 -2.3315,2.52949 -3.75291,3.51433c0.54871,0.10663 1.0977,0.21803 1.64629,0.33253c0.62674,-0.21162 1.05735,-0.64371 1.9025,-0.85284c0.67298,-0.16653 1.47742,-0.22535 2.31642,-0.22851c0.03922,-0.31424 0.1031,-0.63569 -0.01054,-0.91556zM110.35925,274.06558c0.28256,-0.27008 0.5737,-0.54449 0.84222,-0.83608c-3.18387,1.2217 -6.47221,2.08443 -9.65792,3.13525c1.53589,0.07079 3.10065,0.24732 4.67801,0.48921c1.41037,-0.71754 3.04189,-1.74102 4.13769,-2.78839zM115.92388,273.95064c0.63742,1.11584 0.92385,2.07647 1.39706,2.76676c0.61608,0.04075 1.20373,0.08694 1.72252,0.11687c0.37612,0.0217 0.73652,0.07187 1.08508,0.14424c0.02928,-0.14067 0.07537,-0.26754 0.16435,-0.35229c0.32393,-0.30853 0.9243,-0.01671 1.32442,-0.21677c1.16563,-0.58282 2.17552,-2.60709 3.25758,-3.33244c0.42571,-0.28537 1.04438,-0.18571 1.45786,-0.48852c1.11585,-0.8172 1.49157,-1.81022 2.70634,-2.60624c0.12763,-0.69329 0.49233,-1.55525 -0.06483,-1.79827c-0.97642,-0.42589 -4.2729,0.34295 -5.19606,0.60987c-2.69925,0.78046 -5.38656,1.51009 -7.9887,2.48907c0.51483,0.77574 -0.47602,1.59919 0.13437,2.66772zM132.43996,268.47152c0.85042,0.46542 0.42088,1.8945 0.56001,2.85391c0.36559,2.52096 0.08383,5.37099 0.01444,7.99949c0.32317,0.00574 0.65099,0.00841 0.98559,0.00841c5.85059,0 11.19231,-2.67398 15.3382,-6.74968c2.03635,-2.00188 2.30239,-5.56538 5.6618,-5.75032c7.24537,0 12.59509,-2.70609 18.49448,-6.89223c0.95746,-0.6794 1.16684,-2.06987 1.99325,-2.90375c0.47793,-0.48225 1.29172,-0.49093 1.81625,-0.92204c1.01882,-0.83736 2.15401,-2.76297 2.92268,-3.91597c3.45825,-3.48057 7.50187,-8.72993 9.36324,-13.30562c0.94174,-2.31502 1.64391,-7.73256 4.02742,-8.98427c0.68154,-0.35792 2.57727,-0.07386 3.3779,-0.07611c1.75536,-0.00494 3.18182,-0.44602 4.8446,-0.9871c5.65347,0.08409 6.86688,-3.92718 7.23524,-9.09941c0.39135,-5.49501 0.4289,-10.94188 0.42007,-16.44891c-0.05237,-5.84058 -0.8988,-11.67329 -1.49165,-17.48275c-0.30524,-2.99112 -0.55238,-7.74113 -1.88515,-10.50999c-0.21794,-0.45277 -0.82543,-0.63585 -1.0422,-1.08917c-0.94942,-1.98546 -0.39277,-4.39277 -2,-6c-0.03298,-1.41116 -0.39674,-2.47628 0.71677,-3.58979c1.31547,-1.31547 2.22948,-0.08706 3.32442,-0.71677c1.00924,-0.58043 2.34898,-2.21136 3.07144,-3.16083c2.4122,-3.17014 1.20513,-8.25509 0.81465,-11.83281c-0.07549,-0.69163 0.10594,-2.32548 0.02345,-2.85226c-0.14776,-0.94367 -0.90963,-1.67987 -1.36603,-2.51895c-0.60192,-1.00948 -0.91815,-2.17099 -1.51148,-3.18554c-1.80077,-3.07915 -7.02031,-5.3553 -10.12337,-6.64598c-7.03011,-2.92408 -13.4915,-4.92441 -21.08811,-5.88168c-4.97928,0.00497 -9.95858,0.00193 -14.93786,0.00193c-1.87863,0 -4.40391,0.36377 -6.22975,-0.02675c-2.0497,-0.4384 -2.39463,-2.96899 -3.90424,-4.19991c-2.02746,-1.65318 -4.0056,-2.23171 -6.31277,-3.37869c-11.62488,-5.79776 -25.80272,-7.66198 -38.64319,-8.73202c-11.9186,-0.99851 -25.312,-0.64249 -36.69645,3.15359c-6.45601,2.14265 -12.86405,5.20965 -17.54581,9.92813c-1.34997,1.36056 -3.16081,3.38421 -3.69453,5.4854c-0.29927,1.17817 0.02675,3.06648 0.02675,4.27025c-0.09763,0.7357 0.17073,1.62758 -0.29289,2.20711c-0.27947,0.34933 -2.14361,0.29285 -2.70704,0.29289c-2.45917,0.00019 -5.06843,-0.21695 -7.5077,0.14534c-8.23119,1.22252 -15.4024,4.67892 -21.28525,10.56177c-6.89676,6.89676 -10.70711,16.17457 -10.70711,25.79289c0,2.33145 -0.25381,4.61712 0.48709,6.83982c0.01635,4.29315 0.96507,10.33464 2.91123,14.22083c0.77171,1.54099 2.79166,4.70526 2.59917,6.51024c-0.26075,2.44495 -2.85779,1.8753 -4.47175,2.77976c-1.70133,0.95342 -1.02573,3.6206 -1.02573,5.14935c0,5.54142 1.29647,9.57088 2.96689,14.75348c1.29361,4.01353 2.48006,7.94617 3.95157,11.85099c0.88208,2.3407 3.34738,4.89475 4.89622,6.88903c3.55557,4.14331 6.47329,8.24433 10.81931,11.73315c1.47729,1.18592 4.14476,1.72006 5.24769,3.30148c0.66066,0.94727 -0.13691,1.38742 0.09157,2.24211c0.62659,2.34385 0.80221,4.59575 1.95063,6.84707c0.96002,3.55398 5.91601,5.92155 9.47376,6.95202c7.9342,2.29808 15.98601,3.49852 23.90461,5.47545c4.37359,1.11196 9.23161,1.36854 13.70748,0.61951c-0.00635,-0.05152 -0.00973,-0.10623 -0.00973,-0.1643c0,-1 1,-1 1,-1c1.35726,0 3.01553,0.27427 4.47844,0.20689l-0.08533,-0.21525c-0.25789,-0.03284 -0.89311,-0.19463 -0.89311,-0.99164c0,-1 1,-1 1,-1c1.70466,0 3.76053,0 5.5789,0c0.07164,-0.06707 0.14297,-0.13608 0.21399,-0.20711c0,0 0.67994,-0.67994 1.37307,-0.03957c0.99078,-0.43109 1.9823,-0.8472 2.98709,-1.19121c3.9344,-1.34702 8.01186,-2.31914 11.92934,-3.97074c4.13041,-2.06662 9.14168,-3.81161 13.72872,-4.56806c0.84719,-0.13971 4.03526,-0.36021 4.71462,0.12604c0.80326,0.57494 0.98233,1.41989 1.00404,2.28235c0.48162,-0.31861 0.96041,-0.53966 1.41018,-0.2935zM130.97994,279.24206c0.00669,0.00044 0.01337,0.00088 0.02006,0.00132c0,-0.39454 0,-0.79716 0,-1.20197c-0.00545,0.40033 -0.01209,0.80056 -0.02006,1.20066zM100.5,278.33333c-1.31365,0 -2.6273,0 -3.94095,0c-0.51357,0.22643 -1.02828,0.45224 -1.54552,0.66945c1.86316,0.2261 4.2242,-0.16945 5.98647,-0.16945c1.13185,0 2.53467,0.29863 3.63101,0.06041c-1.38858,-0.32222 -2.77345,-0.5849 -4.13101,-0.56041zM121.18889,279.85663c0.47315,0.07856 0.92439,0.14619 1.36443,0.20377c-0.46827,-0.22912 -0.92589,-0.46144 -1.42311,-0.68433c-0.24305,0.11846 -0.50029,0.22012 -0.73975,0.34281c0.26733,0.04777 0.5335,0.09376 0.79843,0.13775z"/><path d="M173,341.13835c0,0.00341 -0.00001,0.00681 -0.00003,0.0102c1.31684,0.1014 2.68558,0.03264 3.50003,0.03264c1.56578,0 3.42706,-0.40517 4.70711,0.79289c0.49378,0.46215 0.2304,1.5227 0.81862,1.85646c0.37676,0.21378 1.90612,0.37038 2.47427,0.35065h0.5c0,0 1,0 1,1c0,1 -1,1 -1,1h-0.5c-0.70968,-0.01544 -2.97056,-0.25797 -3.52573,-0.64935c-0.66681,-0.47008 -0.65025,-1.52427 -1.18138,-2.14354c-0.50718,-0.59135 -2.67816,-0.20711 -3.29289,-0.20711c-1.92247,0 -5.34103,0.12567 -7.31764,-1.04563c-2.45797,-0.01321 -4.84525,-0.08779 -7.30455,-0.5047c-0.57089,-0.09678 -2.01496,0.22571 -2.40355,-0.14186c-2.20313,-2.08396 0.92983,-3.74668 2.43292,-5.56997c-3.03933,0.57501 -6.37154,1.63144 -9.39017,0.61893c-4.61329,-1.5474 -5.38022,-7.55071 -3.95491,-11.70372c0.46463,-1.35381 1.59113,-2.1744 2.28268,-3.40851c2.16861,-0.72287 1.52493,-1.67438 3.8241,-2.68814c2.98273,-1.31517 5.81662,-3.14886 8.94842,-4.48029c1.49784,-0.63678 3.48161,-0.72667 4.88998,-1.44632c2.50694,-1.28099 4.96306,-2.1298 7.9927,-2.1298c0,0 1,0 1,1c0,1 -1,1 -1,1c-7.6579,0 -14.23989,5.44592 -21.16889,7.94359c-1.63099,0.58792 -1.38022,1.7133 -3.1759,2.31186c-0.7271,1.75298 -1.80878,2.24947 -2.14865,4.314c-0.11723,0.71212 -0.21734,2.55272 -0.0333,3.20079c0.26938,0.94859 0.53944,1.90317 0.93313,2.80728c0.45192,1.03785 2.15248,1.38894 3.13709,1.42342c1.87014,0.06549 4.0037,0.23658 5.858,0.00392c1.42981,-0.1794 2.35212,-0.99282 3.71585,-0.92875c1.51582,-1.75736 2.9398,-3.41679 3.98826,-5.52333l0.5,-1c0,0 0.1324,-0.2648 0.3972,-0.4342c-0.00048,-0.0394 -0.0014,-0.07892 -0.00277,-0.11859c0,0 0,-1 1,-1c1,0 1,1 1,1c-0.08254,3.79429 -3.58,9.65498 -0.76264,13.3245c0.04056,0.05282 0.08484,0.10336 0.1326,0.15172c0.3815,-0.01143 0.75892,-0.01906 1.13005,-0.01906h1c0,0 1,0 1,1zM161.37298,339.66778c0.29055,-0.03519 0.57437,-0.05005 0.7492,-0.02194c0.6594,0.10603 1.28148,0.40023 1.94388,0.48552c1.14012,0.14679 2.34765,0.14451 3.55675,0.10762c-0.87111,-2.08345 -0.94045,-5.29827 -0.66471,-7.34269c-0.76785,0.94454 -1.61872,1.82877 -2.56059,2.69515c-0.41607,1.05231 -1.76458,3.28035 -3.02452,4.07633z"/><path d="M198.29289,350.3883c-0.70711,-0.70711 0,-1.41421 0,-1.41421l0.08579,-0.08579c3.28901,-3.19109 2.01282,-8.74556 1.2983,-12.85907c-0.93797,-5.40521 -3.65756,-8.47543 -6.95907,-12.59986c-1.61979,-2.02354 -2.70779,-3.64091 -4.74364,-4.89752c-0.85719,-0.52909 -1.19919,-1.66595 -2.02431,-2.24378c-1.71517,-1.20113 -4.01796,-1.7778 -5.89718,-2.71244c0,0 -0.89443,-0.44721 -0.44721,-1.34164c0.44721,-0.89443 1.34164,-0.44721 1.34164,-0.44721c1.98359,0.99776 4.40122,1.61597 6.21419,2.90994c0.11133,0.07946 1.49201,1.91763 1.86433,2.13384c2.31048,1.34175 3.51071,3.16909 5.25392,5.34943c3.50931,4.3893 6.36764,7.7544 7.36782,13.50698c0.85841,4.9419 1.92591,10.74325 -1.85458,14.61556l-0.08579,0.08579c0,0 -0.70711,0.70711 -1.41421,0z"/><path d="M125.29289,361.43124c0.27526,-0.27526 0.55052,-0.33622 0.78407,-0.308c-2.39459,-3.03385 -6.98292,-6.51919 -7.07697,-10.44205c0,0 0,-1 1,-1c1,0 1,1 1,1c-0.07703,2.17262 2.00703,3.98723 3.58471,5.18876c1.87288,1.42634 3.71049,4.22211 4.32966,6.36524c2.30785,0.40431 4.01468,-0.01072 6.63695,-0.41307c0.52484,-0.08053 -0.88296,-0.6012 -1.25842,-0.97667c-0.29559,-0.29559 -0.54212,-0.64646 -0.8776,-0.89586c-1.71936,-1.27822 -2.88048,-2.07414 -3.68137,-4.01453c-0.99493,0.31642 -2.05669,0.66068 -3.1166,0.17001c-2.53559,-1.17382 -3.08488,-3.44308 -4.44937,-5.36918l-0.37506,-0.34759c0,0 -0.70711,-0.70711 0,-1.41421c0.70711,-0.70711 1.41421,0 1.41421,0l0.62494,0.65241c1.14751,1.80017 1.46436,3.54561 3.55063,4.63082c0.85931,0.44699 2.15827,-0.40864 2.88756,-0.54937c2.81403,-0.54301 5.13885,-0.35681 7.84707,-1.45063c0.78072,-0.31532 1.49249,-0.55013 2.00196,-0.85464c-0.3155,-0.5308 -0.64254,-1.0539 -0.98419,-1.56741c-0.46131,-0.91948 -0.929,-1.83502 -1.40243,-2.74706c-1.06486,-0.29672 -2.11484,-0.63371 -3.14033,-1.03671l-1.03955,-0.5187c0,0 -0.89443,-0.44721 -0.44721,-1.34164c0.44721,-0.89443 1.34164,-0.44721 1.34164,-0.44721l0.96045,0.4813c0.33671,0.13376 0.67618,0.26016 1.01805,0.38013c-0.74218,-1.39122 -1.49651,-2.77511 -2.26065,-4.15327c-0.29063,0.22912 -0.66506,0.22912 -0.66506,0.22912c-3.87217,0 -7.85697,-0.0848 -11.26267,1.84544c-0.30536,0.17307 -3.15675,1.35494 -3.48187,1.80976c-2.27696,3.18523 -1.66239,7.55213 -0.73822,10.94074c1.08315,4.01959 3.72157,6.41747 6.36562,9.48025l0.61715,-0.07619c0,0 1,0 1,1c0,1 -1,1 -1,1l-1.38285,-0.07619c-3.36935,-3.10266 -6.29172,-6.3112 -7.52944,-10.80164c-1.06797,-3.91588 -1.60203,-9.19111 1.15684,-12.77737c0.02164,-0.02813 2.06948,-1.1632 2.27318,-1.27638c4.50853,-2.50518 8.57783,-3.04642 13.65889,-3.06775c-0.03044,-0.05416 -0.0609,-0.1083 -0.09137,-0.16244c-0.91625,-0.05379 -2.36482,0.16177 -3.08524,0.16177c-3.26852,0 -6.05844,-0.09309 -9.18377,0.94868c-4.3149,1.43813 -8.16109,3.79848 -11.96397,6.23564c-0.16522,1.83747 -0.4387,3.66212 -0.86681,5.46352c-0.45371,1.9091 -1.37121,3.0234 -2.06157,4.73484c-1.60987,3.99096 -2.09216,7.21263 -5.33917,10.42856c-1.29254,0.66268 -2.11767,1.15685 -3.58471,1.18876h-1c0,0 -1,0 -1,-1c0,-1 1,-1 1,-1h1c0.99572,0.03458 1.52481,-0.38091 2.41529,-0.81124c2.891,-2.93154 3.21489,-5.96753 4.66083,-9.57144c0.54617,-1.36128 1.20713,-2.20758 1.67297,-3.46854c-0.1469,0.17202 -0.37981,0.30838 -0.74909,0.30838c-1,0 -1,-1 -1,-1c0,-0.70529 0,-1.43924 0,-2.19214c-0.34348,0.21006 -0.68806,0.41786 -1.03404,0.6228c-0.68057,0.40314 -1.32817,0.80301 -1.96732,1.17508c-0.04103,0.9371 -0.99864,0.9371 -0.99864,0.9371c-0.27364,0 -0.56096,0.01472 -0.85808,0.04394c-1.1064,0.50562 -2.25772,0.85982 -3.57726,0.93921c-2.20206,0.9445 -4.16975,2.55205 -4.59141,4.7466c-0.61896,3.22137 0.30623,7.03801 1.66541,9.89118c0.76311,0.50756 1.082,1.47959 1.6168,2.22387c1.10912,1.54355 3.49454,1.96833 5.1697,2.75008l0.07484,-0.09488c0,0 1,0 1,1c0,1 -1,1 -1,1l-0.92516,-0.09488c-0.3872,-0.18323 -0.79498,-0.35095 -1.21081,-0.51604c-0.1973,0.06808 -0.36403,0.06808 -0.36403,0.06808h-1c-3.59656,0 -7.5232,0.59702 -9.39443,-3.05279c-0.37265,-0.77112 -1.22148,-1.26537 -1.52945,-2.06453c-0.59808,-1.55197 -0.46065,-6.45038 -0.04937,-8.11244c0.17904,-0.72353 0.88933,-1.26291 1,-2c0.7109,-4.73473 2.9169,-8.91348 5.04937,-13.15293c0.88123,-2.66416 2.2813,-5.21204 2.95063,-7.84707c0.13841,-0.5449 0.2372,-1.11335 0.32009,-1.69287c-2.32184,1.13271 -4.67399,2.5448 -7.18666,2.95255c-0.17088,0.02773 -3.5084,0.12557 -3.86729,-0.27998c-1.01669,-1.14885 -0.09404,-2.13881 0.28323,-3.08979c1.51538,-3.81984 3.64494,-7.57968 6.20761,-10.80036c0.36609,-0.46009 0.83733,-1.20748 1.35022,-1.8066c-4.12891,0.0394 -8.27919,0.14589 -12.29414,-0.52327c-1.31974,-0.21996 -2.7631,0.58858 -3.7637,-1.1044c-0.08733,-0.14775 0.9767,-3.22132 1,-3.76537c3.75656,-4.05836 6.93038,-8.60653 10.02347,-13.20572c-0.59344,-0.8134 -1.82131,-1.29283 -2.07284,-2.72469c-0.30746,-1.75024 -0.02675,-3.93888 -0.02675,-5.72975c0.07704,-4.98149 4.65855,-8.08032 9.08471,-4.81124c2.61037,1.92797 3.7773,4.74333 4.9649,7.49206c0.04924,-0.11294 0.12721,-0.22901 0.24328,-0.34509c0.70711,-0.70711 1.41421,0 1.41421,0c1.64815,1.72087 1.92979,3.98751 2.94056,6.13841c4.21453,8.96842 5.65884,17.50931 6.1145,27.38898c0.18164,3.93834 0.41808,7.94197 0.25027,11.90778c3.5441,-2.23482 7.15685,-4.33843 11.17133,-5.67674c3.34346,-1.11449 6.33468,-1.05132 9.81623,-1.05132c0.54274,0 1.26889,-0.05263 1.99802,-0.0807c-4.0213,-7.05272 -8.24548,-13.99246 -12.35405,-21.03573c-3.92024,-6.74808 -8.99992,-13.21553 -13.46696,-19.66339c-1.80454,-2.60473 -5.05215,-5.98019 -5.177,-9.06804c0,0 0,-1 1,-1c1,0 1,1 1,1c-0.09991,1.46657 1.43055,3.58726 2.87644,5.42511c-0.18618,-2.1644 -0.44562,-5.14195 0.2729,-6.14582c1.03834,-1.45068 3.39221,-1.23888 4.55776,-0.18138c3.23738,2.93728 6.05882,7.468 7.82614,11.44489c1.62967,3.43395 3.57339,6.28296 5.25561,9.60386l0.20031,1.01151c0,0 0.04789,0.32262 -0.09527,0.62671c3.72794,4.24594 8.44209,7.91402 13.48879,9.59626l1.06453,0.52945c0,0 0.89443,0.44721 0.44721,1.34164c-0.44721,0.89443 -1.34164,0.44721 -1.34164,0.44721l-0.93547,-0.47055c-6.3818,-2.12727 -12.24889,-7.27088 -16.41732,-12.82388c0,0 -0.6,-0.8 0.2,-1.4c0.14758,-0.11068 0.28834,-0.17372 0.4198,-0.20293c-1.36549,-2.4532 -2.84079,-4.76254 -4.10394,-7.42435c-1.49257,-3.35793 -3.249,-5.72976 -5.57105,-8.51974c-0.63731,-0.76574 -1.21728,-1.57791 -1.85192,-2.34587c-0.13113,-0.15867 -1.3203,-0.46095 -1.44224,-0.18138c-0.59185,1.35693 0.14935,5.38523 0.14935,6.97427c0,0 0,0.32919 -0.18888,0.60983c0.00398,0.00572 0.00794,0.01142 0.01188,0.0171c4.50029,6.49541 9.57445,13.0047 13.54852,19.79173c4.33595,7.43305 8.81825,14.74917 13.0402,22.21003c2.93687,0.99425 5.71383,5.01449 6.56153,7.6844c0.19512,0.61455 0.47548,1.11215 0.74114,1.59547c3.42042,0.75969 6.89794,1.3658 10.12093,2.64933c5.3063,1.65844 10.8249,2.70982 16.12448,4.07909c3.78245,0.97728 8.57334,4.63205 12.59299,2.46859c0,0 0.89443,-0.44721 1.34164,0.44721c0.44721,0.89443 -0.44721,1.34164 -0.44721,1.34164c-4.85606,2.30873 -9.40737,-1.15369 -13.98472,-2.32026c-5.36021,-1.36609 -10.93582,-2.45108 -16.29781,-4.13206c-2.77615,-1.11559 -5.74031,-1.73259 -8.69864,-2.36908c0.00474,0.07806 0.0072,0.15801 0.0072,0.24006c0.68335,1.3667 0.62889,2.43002 0.13646,3.26349c2.04796,3.6979 3.6806,7.69446 5.81926,11.37725l0.51134,1.40083c0,0 0.34032,0.94031 -0.59999,1.28063c-0.94031,0.34032 -1.28063,-0.59999 -1.28063,-0.59999l-0.44221,-1.23382c-2.05289,-3.50201 -3.61537,-7.2807 -5.52696,-10.81957c-1.4311,0.83591 -3.39344,1.26343 -4.86077,1.53418c-0.73298,0.13525 -1.27647,0.82096 -2,1c-0.78045,0.19312 -1.6393,0.00286 -2.46459,-0.04969c0.87141,1.71517 2.52354,2.40809 3.94194,3.82649c0.66562,0.66562 2.09255,1.8132 1.74158,3.02333c-0.12941,0.44619 -1.96332,1.31638 -2.50147,1.5782c-1.74538,0.84915 -3.62172,0.82972 -5.45926,0.47245c0.16053,0.9837 0.08592,1.96977 -0.73827,2.83777c-1.32896,1.39959 -3.60102,1.8819 -5.30246,2.73262c-0.40582,0.19294 -0.78268,0.46533 -1.21746,0.57882c-0.44512,0.11619 -1.28709,-0.39826 -1.3791,0.05248c-0.39825,1.95085 -0.41173,3.36607 -2.26594,4.78551c-4.29275,3.2862 -11.56584,3.07866 -15.35805,-0.67725l-1.05871,-1.57929c0,0 -0.5547,-0.83205 0.27735,-1.38675c0.83205,-0.5547 1.38675,0.27735 1.38675,0.27735l0.94129,1.42071c2.44592,2.48022 5.39862,2.42999 8.4969,1.66074c1.69368,-0.42051 3.74768,-0.50223 4.91851,-2.11146c0.76709,-1.05432 0.39816,-2.556 0.96059,-3.44102c0.77931,-1.2263 2.33391,-0.79306 3.40344,-1.3687c1.47434,-0.73717 3.48137,-1.16292 4.69754,-2.26738c0.51475,-0.46747 0.53217,-1.21585 0.33239,-1.98992c-0.47425,-0.14007 -0.94162,-0.29084 -1.39893,-0.44244l-0.89088,-0.74158c0,0 -0.70711,-0.70711 0,-1.41421zM104,337.63835c0,-7.16676 0.96446,-16.43629 -2.39832,-23.06065c-1.07389,-2.11547 -2.4398,-3.93182 -3.49611,-5.99214c0,0 -0.44721,-0.89443 0.44721,-1.34164c0.89443,-0.44721 1.34164,0.44721 1.34164,0.44721c0.99343,2.05568 2.46382,3.90041 3.50389,6.00786c3.46235,7.01567 2.60168,16.37291 2.60168,23.93935c0,2.56446 0,5.12892 0,7.69338c0.31384,-0.20065 0.62747,-0.40169 0.94113,-0.60267c0.30575,-4.36343 0.02336,-8.79477 -0.17684,-13.13543c-0.4434,-9.61388 -1.81921,-17.90664 -5.9264,-26.62982c-0.73845,-1.56839 -1.05845,-3.6642 -2.07751,-5.04527c0.20136,0.43208 0.41068,0.85761 0.63404,1.27261c0,0 0.44721,0.89443 -0.44721,1.34164c-0.89443,0.44721 -1.34164,-0.44721 -1.34164,-0.44721c-1.02828,-2.16282 -1.79397,-4.59089 -3.09212,-6.68977c-1.83093,2.75116 -3.15088,5.80165 -5.21423,8.38113c-0.29248,0.36564 -0.59073,0.72916 -0.89312,1.09128c0.43575,0.38821 1.00205,0.68138 1.36724,1.13616c1.65726,2.06382 3.92581,4.33248 5.12497,6.69464c1.14152,2.24862 0.53108,4.62189 1.57493,6.7096c0,3.91134 1.4594,8.42414 0.5,12.45951c-0.04372,0.1839 -0.08394,0.37021 -0.12134,0.55844c1.5679,-0.69259 3.12038,-1.4221 4.68031,-2.131l1.02176,-0.50936c0,0 0.89502,-0.44603 1.34105,0.44899c0.44603,0.89502 -0.44899,1.34105 -0.44899,1.34105l-1.05385,0.525c-1.96316,0.89253 -3.91507,1.81598 -5.89929,2.66131c-0.13942,1.06192 -0.27648,2.12292 -0.51964,3.10558c-0.67805,2.7401 -2.12515,5.39902 -3.04937,8.15293c-2.10062,4.22356 -4.11059,8.18803 -4.95063,12.84707c-0.13226,0.73353 -0.8165,1.27759 -1,2c-0.30677,1.20771 -0.51653,5.78462 -0.04937,6.88756c0.31601,0.74608 1.10089,1.21446 1.47055,1.93547c0.9328,1.93022 3.09736,2.08796 5.2306,2.0267c-0.32435,-0.25713 -0.62132,-0.54737 -0.88048,-0.88144c-0.55487,-0.71524 -0.82481,-1.72171 -1.59435,-2.19842c-1.74363,-3.37432 -2.92089,-7.80553 -2.12345,-11.68653c0.53167,-2.58755 2.62909,-4.56559 5.09986,-5.80046c0.26907,-0.46979 0.87339,-0.46979 0.87339,-0.46979c0.05911,0 0.11783,-0.00069 0.17618,-0.00205c1.15106,-0.46263 2.34434,-0.77025 3.47039,-0.91056c1.10268,-0.53724 2.15962,-1.24486 3.32493,-1.9348c0.68085,-0.4031 1.35626,-0.81653 2.02851,-1.23597c0,-3.03943 0,-6.21618 0,-8.95946zM106,350.13835v0.88834c0.01355,-0.05257 0.02677,-0.10592 0.03964,-0.16009c0.28386,-1.19442 0.49664,-2.40006 0.65309,-3.61344c-0.23074,0.14785 -0.46162,0.29539 -0.69273,0.44243c0,0.81425 0,1.62851 0,2.44276zM95.02675,331.4086c0.74855,-2.80634 0.04035,-6.05301 -0.31919,-9.02076c-0.08075,0.08085 -0.17526,0.14795 -0.27973,0.19747l-0.84533,0.42266c-2.088,2.33775 -4.41122,5.01967 -5.68419,7.61257c-0.6535,1.33111 -1.33582,2.67225 -2,4c-0.22657,0.45293 -0.28478,0.97375 -0.47444,1.44333c-0.08376,0.20737 -0.32588,0.60848 -0.50617,0.83488c0.76207,-0.20184 3.34751,-0.69214 3.66343,-0.7987c2.09713,-0.70732 4.03344,-1.84517 6.06838,-2.73023c0.09387,-0.66698 0.20801,-1.32683 0.37723,-1.96123zM94.52675,319.8681c-1.00396,-2.00792 -0.38379,-4.16945 -1.42507,-6.2904c-1.34447,-2.73852 -4.20695,-4.67908 -6.07308,-7.09376c-1.7739,2.04946 -3.60363,4.08737 -5.18806,6.2443c-1.31012,1.78351 -2.26112,3.84686 -3.91667,5.33563c0.05689,0.97603 0.20041,1.09945 -0.52945,2.06453c-0.1006,0.13303 -0.63246,0.13008 -0.47055,0.1701c0.72444,0.17909 1.50021,-0.22709 2.2363,-0.1044c4.50817,0.75136 9.21,0.48709 13.83982,0.48709h1c0.20754,0 0.40031,0.06322 0.5601,0.17146c-0.02126,-0.33415 -0.03335,-0.66272 -0.03335,-0.98454zM91.91529,292.44959c-3.0777,-2.35703 -5.98702,-0.21751 -5.91529,3.18876c0,1.65543 -0.2783,3.64218 -0.02675,5.27025c0.14254,0.92252 0.6901,1.19276 1.21385,1.562c1.98494,-2.96681 3.96086,-5.9334 6.06197,-8.78244c-0.39778,-0.44394 -0.83878,-0.85948 -1.33378,-1.23857zM140.4452,347.99371c-0.01293,-0.07808 -0.02734,-0.15705 -0.04319,-0.23686c-0.02879,-0.00659 -0.05758,-0.01319 -0.08636,-0.0198c0.04324,0.08552 0.08643,0.17107 0.12956,0.25666zM136.68023,340.84138c0.83119,1.51968 1.64875,3.0472 2.44931,4.58473c0.19085,0.05043 0.38214,0.0997 0.57381,0.14795c-0.70375,-1.6563 -1.7953,-3.38871 -3.02312,-4.73268z"/><path d="M185.29289,353.93124c0.70711,-0.70711 1.41421,0 1.41421,0l0.10912,0.25842c4.02015,1.34685 7.15981,0.24267 11.30109,0.5248c1.69891,-1.69891 2.58353,-0.32351 4.5,-1c0.44452,-0.15691 0.5773,-0.79132 1,-1c3.02238,-1.49207 5.60416,-2.30427 8.13301,-4.73792c2.01274,-1.93697 0.3985,-6.88993 -0.1962,-9.01366c-0.36656,-1.30904 -1.47801,-1.46241 -1.47801,-2.94185c-1.42936,-1.2523 -2.02515,-2.31578 -2.92677,-3.85695c-0.80352,-1.37348 -2.72757,-2.67994 -3.85646,-3.81862c-0.53439,-0.53903 -0.66903,-1.46383 -1.31862,-1.85646c-0.28527,-0.17242 -0.7266,0.19069 -1,0c-0.6514,-0.45435 -0.91705,-1.32425 -1.53723,-1.82039c-0.76346,-0.61077 -1.14104,-1.64983 -1.96277,-2.17961c-0.3334,-0.21495 -0.90779,0.1437 -1.18138,-0.14354c-0.84588,-0.88812 0.35288,-1.91004 -1.29289,-1.70711c0,0 -1,0 -1,-1c0,-1 1,-1 1,-1c1.61422,0.08887 1.83365,-0.20748 2.92388,1.61732c0.1213,0.20303 -0.39397,0.51894 -0.21677,0.67558c0.20756,0.18349 0.59024,-0.30036 0.81862,-0.14354c1.1711,0.80414 2.38682,3.30606 3.5,4c0.28287,0.17634 0.72808,-0.19279 1,0c0.7408,0.52523 1.03615,1.50454 1.68138,2.14354c2.74107,2.71467 4.6508,5.54638 7.21677,8.32442c0,1.54383 1.04713,1.56567 1.52199,3.05815c0.92868,2.91877 2.33368,8.37409 -0.1962,10.98634c-2.64309,2.72915 -5.6754,3.64413 -8.86699,5.26208c-0.42046,0.21315 -0.55078,0.85709 -1,1c-1.46428,0.46583 -3.41347,-0.08653 -4.5,1c-4.60519,0.1862 -8.26547,0.99442 -12.69891,-0.4752l-0.89088,-0.74158c0,0 -0.70711,-0.70711 0,-1.41421z"/></g></g></svg>