<svg version="1.1" xmlns="http://www.w3.org/2000/svg" xmlns:xlink="http://www.w3.org/1999/xlink" width="112.3608" height="100.71878" viewBox="0,0,112.3608,100.71878"><g transform="translate(-186.4905,-136.34485)"><g data-paper-data="{&quot;isPaintingLayer&quot;:true}" stroke-miterlimit="10" stroke-dasharray="" stroke-dashoffset="0" style="mix-blend-mode: normal"><path d="M237.59802,205.03659c0.21268,0.6391 0.63802,1.82613 1.0958,3.40836c0.86934,3.00469 1.85577,7.43455 1.72519,12.24345l-0.03801,0.36411c-0.03801,0.36411 0.41555,0.67472 0.9071,0.62119c3.12813,-0.7406 9.27711,-1.97014 9.09581,3.12929c-0.1098,4.93165 -18.45623,9.20929 -20.83999,4.62917c-0.79083,-1.99376 0.55207,-3.21992 1.29393,-3.86066c0.3888,-0.36231 0.56756,-0.78176 0.64134,-1.22976c0.009,-1.12091 -0.04449,-3.19495 -0.38177,-4.87813c-0.77282,-4.23559 -1.36037,-5.33153 -2.22046,-7.43773c-0.8601,-2.1062 -3.10081,-7.02189 1.5825,-9.21176c3.97948,-1.91325 6.48625,0.45363 7.13857,2.22248z" fill="#000000" fill-rule="evenodd" stroke="#ff7b00" stroke-width="2" stroke-linecap="round" stroke-linejoin="round"/><path d="M231.2892,212.09082c-0.2307,0.63509 -0.63324,1.82718 -1.26329,3.37116c-1.19648,2.93205 -3.21339,7.13307 -6.43194,11.19827l-0.26778,0.29621c-0.26778,0.29621 -0.07995,0.74924 0.37567,0.90603c3.15782,0.65526 9.21901,2.13713 5.76934,6.43026c-3.28003,4.1789 -21.75803,0.27929 -20.84091,-4.62653c0.61065,-2.03378 2.55302,-2.53039 3.6024,-2.77338c0.56708,-0.15005 0.99117,-0.43562 1.3438,-0.78894c0.73187,-0.95641 2.02593,-2.75495 2.82442,-4.33571c2.07435,-3.94657 2.2791,-5.12752 2.90306,-7.28616c0.62396,-2.15865 1.88037,-7.2929 7.30654,-7.23785c4.6446,0.00181 5.26269,3.06261 4.67869,4.84663z" fill="#000000" fill-rule="evenodd" stroke="#ff7b00" stroke-width="2" stroke-linecap="round" stroke-linejoin="round"/><g fill="#000000" fill-rule="evenodd" stroke="#ff7b00" stroke-width="2"><path d="M222.0614,205.64887c0.94562,-0.07681 2.97409,-0.20003 1.88905,3.71383c-1.08505,3.91385 -7.66055,7.89943 -8.45385,8.29657c-3.0359,1.61888 -6.804,3.50516 -11.50189,4.46897c-13.6209,2.853 -18.70887,-7.58706 -15.64137,-11.20451c2.96835,-3.56782 7.73879,2.07429 15.05868,3.26775c3.21767,0.57029 6.39799,-0.22864 8.96825,-1.01961c3.59996,-1.20727 8.59825,-7.47661 9.68111,-7.52301z" stroke-linecap="round" stroke-linejoin="round"/><path d="M194.38485,211.47336c2.61481,1.36777 7.13592,2.87178 7.13592,2.87178c0,0 -4.01168,1.11599 -5.44666,3.51965c-1.19066,1.88482 0.04381,3.44788 0.50869,3.90912c-1.78415,-0.39565 -4.05622,-1.04275 -6.38072,-3.34896c-2.32451,-2.3062 -2.93236,-6.16569 -1.17766,-7.6389c1.83089,-1.31308 2.89791,-0.36017 5.36039,0.68731z" stroke-linecap="butt" stroke-linejoin="miter"/></g><path d="M248.17094,200.21398c0.42776,0.45434 5.0102,7.98749 7.65352,6.88821c3.15552,-1.26769 7.82684,-4.05088 10.79151,-0.41933c2.96467,3.63154 -5.88002,6.92308 -9.40844,7.56484c-8.26665,1.12467 -12.66815,-5.18209 -13.51924,-6.82153c-0.85113,-1.63944 -2.368,-4.42268 -1.65507,-6.65306c0.87527,-2.37972 4.72177,-2.22401 6.13775,-0.55914z" fill="#000000" fill-rule="evenodd" stroke="#ff7b00" stroke-width="2" stroke-linecap="round" stroke-linejoin="round"/><g fill="#000000" fill-rule="evenodd" stroke="#ff7b00" stroke-width="2"><path d="M226.73205,212.1538c-10.49687,-6.39848 -3.38258,-10.21153 -1.07007,-14.72166c2.18853,-3.87303 3.50928,-3.28616 10.27869,-2.86842c3.81125,0.07836 6.05401,0.12963 8.46191,-0.19229c3.61875,-0.43889 3.61784,3.84796 2.97067,6.14316c0,0 -1.03266,3.40414 -2.20256,5.21399c-1.44517,2.19367 -2.55996,3.641 -3.75722,4.56041c0,0 -2.57265,1.97656 -5.13526,2.30207c-2.30351,0.29258 -9.54615,-0.43726 -9.54615,-0.43726z" stroke-linecap="round" stroke-linejoin="round"/><path d="M240.40904,210.29672c0,0 -1.816,-0.89625 -3.78334,-2.04582c-2.44883,-1.37097 -4.85646,-2.478 -3.08091,-5.41805c1.65158,-2.30292 3.08318,-5.29905 8.43504,-3.22615c5.10423,1.91822 3.35631,4.31975 3.35631,4.31975c-1.80334,4.19302 -4.92713,6.37025 -4.92713,6.37025z" stroke-linecap="butt" stroke-linejoin="miter"/></g><g><path d="M274.35589,154.26977c0.38757,-0.07646 0.87382,0.15736 0.83104,0.52092l-1.22273,9.7023c0,0 4.96389,5.84394 5.73566,9.16667c1.32116,5.54792 -0.23242,9.32938 -0.23242,9.32938c0,0 6.65434,3.88711 5.80938,8.99995c-0.84494,5.11284 -9.42808,12.79211 -30.46048,10.21945c-21.03239,-2.57267 -34.95102,-11.36799 -38.17833,-23.00794c-3.2273,-11.63997 13.5019,-19.60723 12.57937,-19.12086c0,0 4.79124,-13.6016 5.13601,-13.31451l10.0324,7.81115c0,0 5.33442,-0.06307 10.32537,1.18448c3.00313,0.67584 5.44034,1.56474 7.69928,2.59029z" fill="#000000" fill-rule="evenodd" stroke="#ff7b00" stroke-width="2" stroke-linecap="butt" stroke-linejoin="miter"/><path d="M297.85131,189.68599c-6.31753,1.75352 -13.88715,-0.32966 -13.88715,-0.32966" fill="#000000" fill-rule="evenodd" stroke="#ff7b00" stroke-width="2" stroke-linecap="round" stroke-linejoin="round"/><path d="M292.36406,198.63158c-6.77547,-1.47893 -10.15554,-4.23638 -10.15554,-4.23638" fill="#000000" fill-rule="evenodd" stroke="#ff7b00" stroke-width="2" stroke-linecap="round" stroke-linejoin="round"/><path d="M260.47749,180.06421c2.19706,0.63191 4.42507,1.46063 4.27174,2.07429c-0.41128,1.19718 -3.01238,3.08001 -4.7232,2.6819c-1.9569,-0.37493 -5.42978,-3.72283 -4.8402,-5.05665c0.33758,-1.03046 3.19921,-0.30134 5.29166,0.30047z" fill="#000000" fill-rule="evenodd" stroke="#ff7b00" stroke-width="2" stroke-linecap="round" stroke-linejoin="round"/><path d="M213.95029,165.27272c0,0 7.96572,4.92204 10.48513,8.5595" fill="#000000" fill-rule="evenodd" stroke="#ff7b00" stroke-width="2" stroke-linecap="round" stroke-linejoin="round"/><path d="M223.45958,176.84022c-5.12519,0.12327 -12.46188,-3.02048 -12.46188,-3.02048" fill="#000000" fill-rule="evenodd" stroke="#ff7b00" stroke-width="2" stroke-linecap="round" stroke-linejoin="round"/><g fill="none" fill-rule="nonzero" stroke="none" stroke-width="1" stroke-linecap="butt" stroke-linejoin="miter" font-family="sans-serif" font-weight="normal" font-size="12" text-anchor="start"/><g fill="none" fill-rule="nonzero" stroke="none" stroke-width="1" stroke-linecap="butt" stroke-linejoin="miter" font-family="sans-serif" font-weight="normal" font-size="12" text-anchor="start"/></g><g fill="#000000" fill-rule="nonzero" stroke="#ff7b00" stroke-width="2" stroke-linejoin="miter"><g><path d="M258.95363,218.40271l2.13349,-20.07236l14.02834,1.66777l-8.29594,18.6468c0,0 -2.54681,1.29729 -3.817,1.25817c-1.34725,-0.04148 -4.04892,-1.50038 -4.04892,-1.50038z" stroke-linecap="butt"/><path d="M260.64149,197.00699c1.03204,-3.64048 5.36456,-6.17607 9.67692,-5.66338c4.31238,0.51267 6.97159,3.87948 5.93954,7.51994c-1.03204,3.64048 -5.36458,6.17609 -9.67693,5.66339c-4.31238,-0.51267 -6.97157,-3.87947 -5.93953,-7.51996z" stroke-linecap="butt"/><path d="M263.52646,203.17794c0,0 0.19064,-4.18472 0.71276,-6.12147c0.48801,-1.81008 2.3246,-5.14468 2.3246,-5.14468" stroke-linecap="round"/><path d="M270.83037,203.91411c0,0 0.10937,-5.19389 0.4518,-7.21112c0.25301,-1.49046 1.41702,-3.79755 1.41702,-3.79755" stroke-linecap="round"/><path d="M260.46984,197.39731c0,0 5.25411,-1.70588 8.01438,-1.89089c2.40139,-0.16095 7.62103,0.84289 7.62103,0.84289" stroke-linecap="round"/><path d="M261.28508,202.25083c0,0 5.88535,-1.57919 8.5596,-1.98167c2.07885,-0.31288 6.15438,-0.23285 6.15438,-0.23285" stroke-linecap="round"/></g><path d="M271.77319,212.69675c-0.67964,2.42889 -3.60552,4.35973 -6.53518,4.31262c-2.92967,-0.04709 -5.17639,-1.39217 -4.49674,-3.82109c0.67964,-2.42889 4.0283,-5.02183 6.95795,-4.97472c2.92967,0.04709 4.75361,2.0543 4.07397,4.4832z" stroke-linecap="butt"/></g><g fill="#000000" fill-rule="nonzero" stroke="#ff7b00" stroke-width="2" stroke-linecap="butt" stroke-linejoin="miter"><path d="M251.82724,159.5614c-4.00775,2.16557 -26.81906,-3.97645 -26.81906,-3.97645c0,0 -2.47593,-1.77946 -3.5967,-2.66618c-8.39376,-6.64088 -12.27619,-12.9854 -8.74054,-14.89588c4.00775,-2.16557 16.02916,2.18614 26.85056,9.71982c10.82143,7.53368 16.31349,9.6531 12.30573,11.81867z"/><path d="M240.95538,147.49311l-8.15025,-9.4452c0,0 16.94963,4.09576 25.18181,7.49422c9.95634,4.11026 30.37326,15.44048 30.37326,15.44048l-23.77256,4.01671z"/><path d="M222.16994,154.76223c0,0 2.04031,-6.75494 3.78668,-9.53767c1.69422,-2.69966 6.53986,-6.91713 6.53986,-6.91713l25.97649,12.47922c0,0 -4.33974,5.6012 -6.10976,8.42167c-1.66582,2.65439 -4.21676,8.03313 -4.21676,8.03313z" data-paper-data="{&quot;index&quot;:null}"/><path d="M247.76744,166.99417c0,0 3.16633,-5.13045 4.39497,-7.96755c1.3055,-3.0146 3.22147,-9.61989 3.22147,-9.61989l33.51952,12.02159c0,0 -0.1477,6.15714 -1.39729,9.04263c-1.28805,2.9743 -6.21916,8.54477 -6.21916,8.54477z"/></g><path d="M225.72129,203.84328c-1.6887,3.40133 -0.79754,7.12028 -2.93502,8.57876c-1.39501,0.95185 -3.30213,1.40907 -4.35864,1.07153c-1.17753,-0.37621 -2.65966,-2.11573 -2.77044,-3.85176c-0.14095,-2.20816 -1.18654,-5.74679 0.37587,-8.89382c1.37826,-2.77604 5.36392,-4.95969 7.13327,-6.52188c1.81337,-1.60109 4.01363,-1.52125 5.36773,-1.08863c1.46192,0.46707 2.64591,1.69243 2.4659,4.12769c-0.1494,2.02131 -4.01288,4.02861 -5.27867,6.57812z" fill="#000000" fill-rule="nonzero" stroke="#ff7b00" stroke-width="2" stroke-linecap="butt" stroke-linejoin="miter"/><path d="M247.56799,178.13817c-0.13048,1.03462 -1.1239,1.79281 -2.23221,1.68241c-1.1083,-0.11041 -1.88818,-1.04524 -1.75769,-2.07986c0.13048,-1.03462 1.1239,-1.79281 2.23221,-1.68241c1.09644,0.20446 1.88818,1.04524 1.75769,2.07986" fill="#000000" fill-rule="evenodd" stroke="#ff7b00" stroke-width="2" stroke-linecap="butt" stroke-linejoin="miter"/><path d="M274.73992,183.58391c-0.13048,1.03462 -1.1239,1.79281 -2.23221,1.68241c-1.1083,-0.11041 -1.88818,-1.04524 -1.75769,-2.07986c0.13048,-1.03462 1.1239,-1.79281 2.23221,-1.68241c1.09644,0.20446 1.88818,1.04524 1.75769,2.07986" fill="#000000" fill-rule="evenodd" stroke="#ff7b00" stroke-width="2" stroke-linecap="butt" stroke-linejoin="miter"/></g></g></svg>