<svg version="1.1" xmlns="http://www.w3.org/2000/svg" xmlns:xlink="http://www.w3.org/1999/xlink" width="86.55456" height="152.072" viewBox="0,0,86.55456,152.072"><g transform="translate(-207.68965,-89.77763)"><g data-paper-data="{&quot;isPaintingLayer&quot;:true}" fill-rule="nonzero" stroke-linejoin="miter" stroke-miterlimit="10" stroke-dasharray="" stroke-dashoffset="0" style="mix-blend-mode: normal"><g stroke="#0f002d" stroke-width="1.5" stroke-linecap="round"><g><path d="M243.45871,195.13138c4.63797,4.15347 0.35803,17.66949 -2.51651,11.18415c-0.71049,0.64125 -4.11469,1.15126 -3.94904,-1.32658c-3.04368,-0.11151 -1.97948,-1.96931 -0.25543,-4.67024c1.12896,-1.76864 1.02712,-4.46198 1.02712,-4.46198c0,0 4.065,-2.18405 5.69386,-0.72535z" fill="#e9caf8"/><path d="M244.47655,199.17799c0,0 0.95773,4.164 -0.45333,4.8453c-1.59207,0.76869 -2.14846,0.82462 -1.92783,-5.26799" fill="none"/></g><path d="M238.3166,196.32264c-0.3596,0.01945 -3.30948,-0.81883 -3.70317,-7.51818c-0.25561,-4.35003 -2.34147,-10.59054 -2.8291,-14.6824c-1.07684,-9.03631 -1.10153,-11.4881 1.54335,-12.96775c2.64488,-1.47964 2.09043,7.18823 3.66546,12.23717c0.77691,2.49048 2.16887,9.4582 5.95648,13.8254c3.65063,4.20926 1.21976,6.00238 1.80804,7.84022c0.44783,1.39905 -5.21983,1.19946 -6.44107,1.26553z" fill="#5e1284"/></g><g stroke="#0f002d" stroke-width="1.5"><path d="M258.33,223.80132c0,2.42092 -5.49632,3.65288 -9.0672,2.73965c-4.93726,-1.26267 -14.08308,-5.79807 -14.08308,-8.21899c0,-2.42092 0.28751,-5.47933 5.40173,-5.47933c1.51804,0 4.50503,1.02949 6.70731,2.43726c1.23684,0.79064 1.56585,1.82562 2.8587,2.55961c4.16053,2.36206 8.18253,4.66303 8.18253,5.96178z" fill="#e9caf8" stroke-linecap="butt"/><path d="M232.65101,229.4264c0.31854,5.04174 -3.11482,10.99596 -13.82657,11.67323c-7.75262,0.49017 -9.6786,-3.67354 -9.6786,-8.01103c0,-4.33749 6.12913,-11.56436 10.86373,-12.35505c10.94824,-1.82836 12.19709,1.65999 12.64144,8.69286z" fill="#e9caf8" stroke-linecap="butt"/><g stroke-linecap="round"><path d="M245.69855,179.15732c3.51702,4.94346 7.16348,13.54616 10.47965,19.26244c-2.71079,8.29988 -6.09995,18.35074 -6.84167,18.39626c-1.98217,0.12164 -7.23986,0.19221 -10.0632,-0.9299c-2.20279,-0.87548 -3.54512,-3.36922 -3.40008,-4.52543c0.11349,-0.90465 6.84725,-7.74854 6.38239,-15.66617c-1.37605,-6.23058 -5.93771,-16.71115 -6.77382,-16.35148c-0.62527,0.26897 -1.6487,15.83407 -1.15661,22.38644c0.67884,9.03923 -1.29151,21.34726 -1.29151,21.34726l-16.0897,-1.81683c0,0 5.39402,-17.70386 6.46596,-25.64428c0.9955,-7.37419 -1.09587,-19.76217 -0.27746,-19.95051c3.29969,-0.75933 13.13614,-3.4816 15.01113,-3.81613c0.81119,-0.14473 3.80952,2.04387 7.55492,7.30832z" fill="#414ca9"/><path d="M235.47439,179.08351l2.98961,-0.90842" fill="none"/></g></g><g stroke="#0f002d"><path d="M241.79775,172.83025c0,0 -3.92883,2.94625 -7.02729,3.48106c-5.27719,0.91089 -11.00923,-0.45283 -11.72443,-0.94492c-2.42314,-1.66723 -3.33416,-8.80094 -2.60252,-12.01033c0.75581,-3.31541 4.37002,-6.97418 8.40663,-5.8836c6.83199,1.84581 3.85546,5.6433 6.20378,8.43419c2.3143,2.75048 6.74383,6.92359 6.74383,6.92359z" fill="#8f21c6" stroke-width="1.5" stroke-linecap="round"/><path d="M234.12944,162.91349c0.56556,2.02172 -1.13899,2.94492 -3.80725,2.06201c-2.66826,-0.8829 -5.28977,-3.23758 -5.85534,-5.25931c-0.56556,-2.02172 1.13899,-2.94492 3.80725,-2.06201c2.66826,0.8829 5.28977,3.23758 5.85534,5.25931z" fill="#0f002d" stroke-width="1" stroke-linecap="butt"/><path d="M236.0886,167.12101c0.47861,0.4434 5.30314,5.5604 4.98159,5.82307c-2.61929,2.13974 -13.83415,3.54172 -14.77486,0.96637c-1.1785,-3.22636 9.54584,-7.01867 9.79328,-6.78945z" fill="#c168ee" stroke-width="1" stroke-linecap="round"/><path d="M231.52275,173.82827c0,0 0.42447,-3.54066 -1.52324,-4.20115c-3.91207,-1.32663 -5.72153,-2.4026 -5.9515,-4.01673c-0.35397,-2.48437 2.52637,-5.26128 2.52637,-5.26128" fill="none" stroke-width="1" stroke-linecap="round"/><path d="M231.34912,161.74634c0,0 2.06201,1.02334 3.07001,2.64639c0.57169,0.9205 0.94398,2.20115 0.70681,3.18156c-0.59852,2.47419 2.30012,2.96639 2.30012,2.96639" fill="none" stroke-width="1" stroke-linecap="round"/></g><g stroke="#0f002d" stroke-width="1.5" stroke-linecap="round"><path d="M222.91009,201.13516c0,0 3.64615,4.06723 3.1498,8.94839c-0.65255,6.41728 -2.9235,12.08504 -6.62235,7.67224c-2.85822,-0.60561 -3.80907,1.66852 -5.57134,0.79436c-2.30055,-1.14116 -1.71917,-1.25813 -2.28151,-2.42939c-3.95108,-0.8064 -3.71528,-4.46332 -1.82854,-7.38039c1.80708,-2.7939 1.96463,-6.69197 1.96463,-6.69197z" fill="#e9caf8"/><path d="M222.53041,181.04258c0.06324,6.5569 3.91926,11.50631 2.50179,16.98764c-1.41746,5.48134 -5.42452,5.76663 -8.10822,5.95555c-2.55361,0.17977 -5.2457,-0.57363 -6.02775,-3.48597c-2.44211,-9.09438 2.00867,-10.48418 2.94667,-18.72492c1.95289,-17.157 3.74284,-24.03268 6.36632,-24.47433c0.75022,-0.12629 1.65286,0.30687 2.00691,1.95705c1.07298,5.00104 0.26517,16.69513 0.31427,21.78499z" fill="#5e1284"/></g><g><g><path d="M225.95508,97.79393c10.65632,-6.19264 15.87551,-1.89496 15.87551,-1.89496c0,0 8.39297,-11.08714 25.12431,-1.40347c25.42432,-0.28784 22.72456,9.63687 22.72456,9.63687c0,0 5.35838,10.40148 3.37387,17.01648c-2.17536,7.25116 -10.73368,6.01777 -12.41082,7.92411c-1.10379,1.25466 0.42315,6.04382 -0.46301,9.18296c-0.75706,2.6818 -3.87266,3.76225 -3.87266,3.76225c0,0 -0.87257,4.21014 -1.41834,5.17764c-0.86305,1.52999 -5.11377,0.17954 -5.11377,0.17954l-1.91458,3.32417c0,0 -7.83565,4.54598 -21.95251,2.68797c-12.91244,-1.69949 -20.31899,-7.45965 -20.31899,-7.45965c0,0 -12.94584,-2.45202 -10.3384,-15.21383c-12.2598,-12.33309 -0.46804,-16.19702 -0.46804,-16.19702c0,0 2.73801,-11.82138 11.17288,-16.72308z" fill="#3d2747" stroke="#0f002d" stroke-width="1.5" stroke-linecap="round"/><g><g><path d="M252.07252,137.12112c-0.63358,3.39313 -8.40481,10.55545 -17.27322,7.66103c-7.4364,-2.78214 -6.31958,-7.33183 -5.96917,-10.76576c0.35041,-3.43395 3.24241,-10.24459 8.34848,-7.41997c3.14629,1.74049 15.81747,5.57863 14.89391,10.52471z" fill="#2f1e38" stroke="none" stroke-width="0" stroke-linecap="butt"/><path d="M251.9837,134.91319c0,0 3.03898,4.6273 -6.72803,9.36142c-7.40612,3.58978 -14.31917,-1.14314 -14.31917,-1.14314" fill="none" stroke="#0f002d" stroke-width="1" stroke-linecap="round"/></g><path d="M281.51778,128.07282c0,0 -1.78071,6.58691 -8.73519,8.72402c-10.73421,3.2986 -14.21615,-3.75236 -14.21615,-3.75236c0,0 -18.69235,5.26764 -21.38138,-6.12785c-5.60503,-1.31105 -1.9674,-5.09676 -1.9674,-5.09676" fill="#3d2747" stroke="#0f002d" stroke-width="1.5" stroke-linecap="round"/></g><path d="M227.04114,138.32039c0.168,-0.93187 3.95401,7.58124 10.23716,9.55135c5.89743,1.84916 13.84911,-1.17076 16.97251,-1.31402c1.87216,-0.06624 4.17767,2.17657 6.31882,3.13494c3.18576,1.42594 6.68387,1.22525 6.29538,1.46461c-1.10469,0.68066 -5.51539,9.78061 -11.44622,13.42701c-3.4275,2.10729 -15.01799,3.97926 -21.76885,1.34911c-7.33786,-2.85886 -7.07473,-10.16912 -6.60878,-27.61298z" fill="#e9caf8" stroke="#0f002d" stroke-width="1.5" stroke-linecap="round"/></g><g stroke="#0f002d" stroke-linecap="round"><path d="M227.54424,144.56536c0,0 4.58959,6.3664 9.97889,7.78751c3.34844,0.88295 6.77545,-0.14769 11.09551,0.15398c2.20786,0.15418 5.27603,1.14342 8.21586,1.50726c2.81244,0.34808 5.54793,0.07465 5.54793,0.07465c0,0 -2.88195,2.67933 -4.1629,4.20666c-1.6464,1.96306 -5.25044,6.97884 -5.25044,6.97884c0,0 -6.55718,2.03652 -12.65089,1.76121c-4.69874,-0.21228 -9.04149,-2.3654 -10.98151,-3.89513c-4.1084,-3.23949 -1.79244,-18.575 -1.79244,-18.575z" fill="#ffffff" stroke-width="1.5"/><path d="M254.60816,154.34251l-5.07996,10.79004l-1.50995,-11.88135l-8.01753,12.89854l-1.52899,-12.72094l-8.75559,8.84434l1.63273,-12.92183l-3.92522,3.57834" fill="none" stroke-width="1"/><path d="M260.276,155.235l-5.26817,6.47782l-0.04648,-7.75311z" fill="#0f002d" stroke-width="1"/></g></g></g></g></svg>