<svg version="1.1" xmlns="http://www.w3.org/2000/svg" xmlns:xlink="http://www.w3.org/1999/xlink" width="104.77571" height="173.36691" viewBox="0,0,104.77571,173.36691"><g transform="translate(-191.55262,-67.4849)"><g data-paper-data="{&quot;isPaintingLayer&quot;:true}" fill-rule="nonzero" stroke-linejoin="miter" stroke-miterlimit="10" stroke-dasharray="" stroke-dashoffset="0" style="mix-blend-mode: normal"><g stroke="#0f002d" stroke-width="1.5" stroke-linecap="round"><g><path d="M287.20647,168.56137c0.28323,0.90428 -3.04479,5.24424 -5.22907,3.95489c-2.79322,1.03759 -4.00813,-2.31493 -4.00813,-2.31493c0,0 -0.8081,0.76243 -1.73764,0.79869c-1.06091,0.04139 -2.3729,-0.98514 -2.87145,-1.77085c-1.13211,-1.78418 -1.49337,-4.581 -1.49337,-4.581c0,0 2.47949,-6.77166 4.49472,-7.48813c0,0 14.41383,2.47328 15.23314,7.8467c5.23404,3.96524 5.73921,9.09549 -1.07044,6.6259c-1.20742,-0.43788 -1.55252,-2.18874 -3.31777,-3.07125z" fill="#e9caf8"/><path d="M285.0174,165.30832c0,0 5.2507,8.07636 -2.26907,7.33886c-4.8261,0.80838 -5.06719,-1.93775 -3.4498,-4.22661c0.17104,-0.24205 0.77961,-1.14542 -1.41037,-3.00946c-0.192,-0.16342 2.01579,2.13492 2.19779,1.97289c0.37089,-0.3302 1.08156,-0.80438 1.51495,-1.04823" fill="none"/></g><path d="M270.10141,162.96102c-2.96829,-5.2945 -30.08381,-11.36716 -34.01245,-12.84582c-8.6759,-3.26539 -10.76384,-5.64705 -10.9926,-8.59299c-0.22876,-2.94594 21.98713,2.92965 28.29724,4.57602c7.6774,1.94781 10.19279,4.61392 16.76071,7.26991c3.65329,1.47735 6.63843,2.45471 7.32488,2.57929c0.70522,0.12798 -0.38494,3.28622 -1.77805,5.62681c-1.49497,2.5117 -4.0882,4.08292 -5.59975,1.38678z" fill="#5e1284"/></g><g stroke="#0f002d" stroke-width="1.5"><path d="M252.40102,226.36008c-4.57197,-1.30066 -14.18958,-5.36782 -14.18958,-7.8616c0,-2.49378 -0.99704,-5.88613 3.7388,-5.88613c0.7225,0 4.14208,-2.42325 6.41937,-0.86785c2.15354,1.47089 3.16416,6.88339 4.02422,8.25763c1.97458,3.15507 1.75109,6.85405 0.00721,6.35794z" fill="#e9caf8" stroke-linecap="butt"/><path d="M219.39123,239.90551c-7.17904,0.50492 -9.30704,0.32812 -9.30704,-4.1399c0,-4.2282 8.6762,-20.30287 8.91153,-20.34659c3.96028,-0.7357 11.15167,-0.96093 11.74008,3.60843c0.49903,3.87524 -1.68932,6.99362 -3.22471,10.39988c-2.35432,5.22306 -4.46131,10.22087 -8.11985,10.47818z" fill="#e9caf8" stroke-linecap="butt"/><g stroke-linecap="round"><path d="M250.63182,214.28635c-1.83551,0.1253 -5.55577,2.2541 -8.17023,1.09822c-2.03983,-0.90183 -4.5461,-2.26113 -4.41179,-3.45215c0.1051,-0.93188 0.59848,-12.2149 0.16801,-20.37081c-1.27425,-6.41808 -5.26872,-23.38241 -6.04298,-23.01191c-0.29261,0.14001 -1.52323,12.93887 -1.76015,25.4464c-0.2319,12.24181 0.52675,24.19949 0.52675,24.19949c0,0 -4.88927,0.26184 -7.03279,-0.18445c-2.37753,-0.49502 -6.60323,-2.65465 -6.60323,-2.65465c0,0 1.66449,-18.35761 2.65711,-26.537c0.92185,-7.59611 2.6602,-27.37189 3.41806,-27.56588c3.05555,-0.78218 7.34082,-2.135 9.07709,-2.47961c0.37992,-0.0754 10.13843,15.8095 14.72141,29.98155c4.47852,13.84897 3.79221,25.50763 3.45274,25.5308z" fill="#414ca9"/><path d="M231.8234,168.28236c0,0 0.09963,-1.06987 1.27546,-2.99187" fill="none"/></g></g><g stroke="#0f002d" stroke-linecap="round"><path d="M223.75986,160.94588c-1.45547,-1.61123 -1.0203,-5.43737 -2.40997,-10.43662c-6.07588,-7.52741 -1.92517,-13.23145 1.81278,-12.10805c6.32653,1.90136 6.44131,3.99892 8.61587,6.8738c2.14309,2.83325 3.81637,13.38927 0.50271,15.96114c-4.6829,3.6346 -6.7824,1.63482 -8.52139,-0.29027z" fill="#8f21c6" stroke-width="1.5"/><path d="M232.39216,150.15436c0.44321,0.45674 0.66156,9.83997 0.36381,10.11055c-2.42551,2.20413 -6.161,0.27787 -6.79111,-3.11676c-1.15797,-6.2382 6.19819,-7.22989 6.4273,-6.99377z" fill="#c168ee" stroke-width="1"/><path d="M221.28498,139.42927c0,0 17.62114,4.17928 19.3971,17.02945" fill="none" stroke-width="1"/><path d="M221.80178,139.1753c0,0 16.36674,0.64683 23.31326,10.75227" fill="none" stroke-width="1"/></g><g><path d="M208.99469,78.22234c10.01898,-7.17815 15.62329,-3.3964 15.62329,-3.3964c0,0 7.30034,-11.83519 24.87691,-3.78685c25.28167,-2.70482 23.53815,7.43168 23.53815,7.43168c0,0 6.32344,9.84466 4.97714,16.61842c-1.47578,7.4252 -10.11262,7.01144 -11.60083,9.06866c-0.97946,1.35396 0.99609,5.97617 0.41255,9.18537c-0.49854,2.74165 -3.49726,4.11355 -3.49726,4.11355c0,0 -0.46817,4.27405 -0.91942,5.28907c-0.71361,1.60514 -5.07351,0.66513 -5.07351,0.66513l-1.58971,3.4912c0,0 -7.36772,5.27067 -21.59732,4.76384c-13.01555,-0.46359 -20.9364,-5.49316 -20.9364,-5.49316c0,0 -13.12038,-1.20953 -11.73862,-14.16149c-13.37729,-11.11106 -2.00653,-16.07907 -2.00653,-16.07907c0,0 1.60119,-12.0282 9.53158,-17.70998z" fill="#3d2747" stroke="#0f002d" stroke-width="1.5" stroke-linecap="round"/><g><g><path d="M238.7344,114.88702c-0.30795,3.43801 -7.3627,11.30704 -16.46622,9.26927c-7.66732,-2.0622 -6.98832,-6.69748 -6.96612,-10.14919c0.0222,-3.45171 2.25328,-10.50656 7.60485,-8.18042c3.29756,1.43332 16.27637,4.04884 15.82747,9.06033z" fill="#2f1e38" stroke="none" stroke-width="0" stroke-linecap="butt"/><path d="M238.43597,112.69754c0,0 3.46535,4.31725 -5.8071,9.95892c-7.0311,4.27794 -14.36298,0.22405 -14.36298,0.22405" fill="none" stroke="#0f002d" stroke-width="1" stroke-linecap="round"/></g><path d="M267.1855,103.07901c0,0 -1.14611,6.72643 -7.8658,9.51533c-10.37179,4.30465 -14.50861,-2.38315 -14.50861,-2.38315c0,0 -18.10657,7.02173 -21.8673,-4.06634c-5.70432,-0.77198 -2.44327,-4.88651 -2.44327,-4.88651" fill="#3d2747" stroke="#0f002d" stroke-width="1.5" stroke-linecap="round"/></g></g><g stroke="#0f002d" stroke-linecap="round"><path d="M216.57726,118.38914c-0.00934,-1.04957 4.67611,8.01708 10.43518,9.58513c5.40551,1.47177 11.77941,-2.65587 14.45606,-3.12095c1.60763,-0.25701 3.97296,2.00338 5.98312,2.85592c2.99086,1.26846 5.98196,0.70298 5.68578,1.00645c-0.84218,0.86292 -13.50695,26.54099 -24.53766,23.50501c-10.03567,-2.76214 -9.53177,-14.44711 -12.02249,-33.83156z" fill="#e9caf8" stroke-width="1.5"/><g><path d="M218.01734,124.86567c0,0 4.73213,7.44994 9.26543,8.61589c2.81659,0.72441 5.37233,-0.95645 8.86465,-1.07058c1.78484,-0.05834 4.39612,0.83111 6.79947,0.952c2.29921,0.11565 4.43207,-0.53824 4.43207,-0.53824c0,0 -10.48718,18.3762 -15.38793,18.72532c-3.77887,0.2692 -6.94823,-1.52446 -8.75221,-3.21918c-3.82029,-3.58895 -5.22148,-23.46518 -5.22148,-23.46518z" fill="#0f002d" stroke-width="1.5"/><path d="M218.55735,126.31889c0,0 2.32086,4.29073 6.68947,6.59056c3.49237,1.83854 7.63137,-0.24271 10.81133,-0.12604c4.2067,0.15437 6.83384,0.77909 6.83384,0.77909l-3.40706,6.09996l-2.59664,-6.28777l-3.6139,6.23142l-2.49156,-5.1811l-4.34124,4.27774l-2.0785,-5.8578l-4.65294,3.44046z" fill="#ffffff" stroke-width="1"/><path d="M222.67556,148.0907c-0.36617,-0.99133 1.02705,-2.13144 3.14116,0.18607c3.50536,-0.17288 4.1561,3.24189 2.55428,3.7488c-0.74327,0.23522 -1.891,-0.6141 -2.84114,-1.20678c-1.97179,-1.23 -2.68812,-2.27816 -2.8543,-2.72807z" fill="#ff4848" stroke-width="1"/></g></g><g stroke="#0f002d" stroke-width="1.5"><path d="M209.93695,192.04872c-3.36592,-0.02274 -9.38881,-6.2631 -6.68411,-12.00113c4.94447,-10.48971 15.32557,-2.37227 15.32557,-2.37227c0,0 -1.35569,-1.0934 -1.25404,-2.20434c0.01057,-0.11553 -6.24595,-26.42774 -0.03822,-28.63919c4.35855,-1.55269 7.53058,19.42061 7.31501,32.45728c-0.11534,6.9753 -6.77291,12.813 -14.66421,12.75967z" fill="#5e1284" stroke-linecap="round"/><g fill="#e9caf8"><path d="M204.81192,172.61023c-0.68709,1.93474 -2.42502,3.75709 -4.1016,3.78036c-1.36244,0.01891 -1.66346,-0.93595 -1.36633,-2.63448c0.06852,-0.39164 1.1261,-1.42097 1.12025,-1.8062c-1.05947,-2.55645 0.5836,-4.04039 2.26018,-4.06366c1.67658,-0.02327 2.96838,2.24356 2.08751,4.72398z" stroke-linecap="butt"/><path d="M208.56644,186.8513c-8.15715,0.35832 -14.38967,-4.87514 -15.57349,-8.26499c-2.47963,-7.10037 2.34009,-11.79856 4.6918,-10.44138c1.87625,1.0828 1.99129,3.2902 1.72115,6.11287c-0.20777,2.17096 5.34197,-5.67941 7.20697,1.57042c0.77286,-0.30534 2.06139,-0.6422 3.50627,-0.25209c1.02824,0.27762 2.0016,1.32084 1.93916,3.00665c-0.01445,0.39002 0.03602,-1.20957 0.15338,-1.42308c0.31105,-0.56587 2.22489,0.92468 2.37882,1.11065c1.87363,2.26372 2.29442,4.10814 1.07866,5.83993c-1.21576,1.73179 -1.61501,2.49994 -7.10272,2.74101z" stroke-linecap="round"/></g></g></g></g></svg>