<svg version="1.1" xmlns="http://www.w3.org/2000/svg" xmlns:xlink="http://www.w3.org/1999/xlink" width="77.49022" height="170.26988" viewBox="0,0,77.49022,170.26988"><g transform="translate(-196.06173,-66.17033)"><g data-paper-data="{&quot;isPaintingLayer&quot;:true}" fill-rule="nonzero" stroke="none" stroke-linecap="butt" stroke-linejoin="miter" stroke-miterlimit="10" stroke-dasharray="" stroke-dashoffset="0" style="mix-blend-mode: normal"><path d="M224.5,234.88333l4.6,-14l18.8,-0.6l-3,15.6z" fill="#e9caf8" stroke-width="0"/><path d="M247.7,229.68333l-4.2,-8.4l17.8,-8.4l2.4,10.8z" fill="#e9caf8" stroke-width="0"/><path d="M232.1,221.28333l2.71751,-16.43692l8.88249,-36.56308l10.2,-1.6l1.99449,25.20087l5.80551,24.39913l-9.10777,1.89261l-4.23432,-6.37882l-1.00354,9.0081z" fill="#414ca9" stroke-width="0"/><path d="M240.3,166.48333l2.8,-28.4l11.2,-5.8l4.19568,9.61405l-2.99568,25.78595l-7.46277,1.19504l-1.62852,16.07477l-14.18852,-3.36588z" fill="#8f21c6" stroke-width="0"/><path d="M231.63529,199.9357l-0.20462,-19.64315l15.96006,5.1154l-4.29694,14.11851z" fill="#e9caf8" stroke-width="0"/><path d="M199.51055,131.59391l-0.20462,-62.40792l72.43411,-2.25078l-2.86463,68.13717z" fill="#3d2747" stroke-width="0"/><path d="M222.26577,111.7077c-0.23717,0.71151 -0.94868,0.47434 -0.94868,0.47434l-0.2955,-0.10284c-0.28928,-0.13162 -0.56502,-0.25695 -0.83345,-0.38234c1.1583,2.97321 -0.27363,6.36174 -2.9778,8.34265c0.49714,0.80834 1.01848,1.45919 1.77589,2.343c0.33727,0.33695 0.67412,0.68095 1.01223,1.02767c0.62545,-0.97877 1.34996,-1.8967 1.77228,-3.05899c0.13802,-0.37987 0.71837,-1.95517 1.14871,-2.02677c1.65705,-0.2757 2.23261,1.00257 2.97605,2.00305c0.64718,0.87092 1.32335,1.821 1.95914,2.81993l0.69403,0.27761c0,0 0.69636,0.27854 0.41781,0.9749c-0.05123,0.12808 -0.1166,0.22318 -0.18917,0.2931c0.833,1.50129 1.50901,3.07251 1.81965,4.62276c-0.03771,0.32359 -0.10229,0.59662 -0.19141,0.82631c3.81948,0.68203 8.04558,0.22883 11.57124,-0.00553c5.59236,-1.69067 14.49622,-3.38147 15.66457,-10.32984c0.09271,-1.1683 0.23556,-2.33433 0.33203,-3.50644c-1.49215,0.96511 -3.14869,1.53972 -4.94221,1.54668c-3.42076,0 -6.22408,1.80876 -9.5482,2.27477c-6.57432,0.92166 -12.26683,-2.53584 -16.79685,-7.06031l-0.52684,-0.52683c0,0 -0.53033,-0.53033 0,-1.06066c0.53033,-0.53033 1.06067,0 1.06067,0l0.52683,0.52683c4.19745,4.2029 9.42136,7.45465 15.51545,6.6373c3.40721,-0.45698 6.24269,-2.2911 9.76894,-2.2911c1.8603,0.00842 3.55371,-0.72428 5.04216,-1.91851c0.0018,-0.10592 0.00282,-0.21192 0.00298,-0.318v-0.7013c0,0 0,-0.75 0.75,-0.75c0.40472,0 0.59104,0.2184 0.67682,0.41949c3.40882,-3.72901 5.42199,-9.81415 5.42199,-13.71831c0,0 0,-0.75 0.75,-0.75c0.75,0 0.75,0.75 0.75,0.75c0,1.06813 -0.12812,2.25009 -0.37492,3.4848c2.41253,-1.61391 2.08943,-4.03555 3.52953,-6.47285c0.4623,-0.78242 2.89407,-1.42777 2.3976,-2.60483c-1.01716,-2.41153 -2.99786,-4.93093 -4.59033,-7.00531c-0.93188,-1.21464 -2.96807,-3.09463 -3.31858,-4.60957c-0.11834,-0.51147 0.18265,-1.13266 -0.10563,-1.57142c-1.91485,-2.91443 -4.61775,-5.39979 -7.67838,-7.10229c-1.11498,-0.62022 -2.63134,-1.42641 -3.9002,-1.6515c-1.70566,-0.30257 -2.82651,0.56391 -4.35565,-0.18658c-4.83363,-3.19645 -11.86299,-5.27703 -17.55024,-3.19316c-1.04322,0.38225 -2.2388,1.05847 -3.16589,1.66102c-1.71941,1.11752 -0.65897,2.49989 -2.90574,2.78206c-5.88008,0 -12.72002,-0.05973 -17.58707,3.84734c-2.56862,2.06199 -2.10577,6.67833 -4.67692,8.17815c-4.18583,2.92199 -5.39108,7.20184 -3.77116,12.02048c0.33068,0.98366 1.12535,1.8028 1.31088,2.82384c0.62554,3.44267 -0.53325,6.11575 1.61783,9.33648c0.98886,1.18607 3.39095,2.7548 3.83038,4.21381c0.24518,0.81406 -0.93218,1.45693 -0.62794,2.39821c1.30779,4.04615 6.87021,4.57358 10.28034,3.30627c-0.10799,-0.20256 -0.203,-0.55471 0.15864,-0.88876c0.55093,-0.50889 1.05983,0.04203 1.05983,0.04203l0.4746,0.55505c2.74425,-2.10229 3.89544,-5.98603 0.74606,-8.58781l-0.0574,-0.00642c0,0 -0.67082,-0.33541 -0.33541,-1.00623c0.33541,-0.67082 1.00623,-0.33541 1.00623,-0.33541l0.34686,0.19572c0.06779,0.05691 0.13403,0.11433 0.19872,0.17226c0.25308,-0.00695 0.4612,0.1245 0.4612,0.1245c0.95824,0.60858 1.78416,0.97215 2.79994,1.43344l0.14914,0.04537c0,0 0.71151,0.23718 0.47434,0.94869zM214.80638,121.28745c0,0 -0.68479,0.22826 -0.93469,-0.43489c-3.5891,0.83099 -7.79199,0.02952 -10.08294,-3.1278c-0.48529,-0.66881 -0.96411,-1.93965 -0.84682,-2.83927c0.06663,-0.51112 0.93097,-0.91637 0.70165,-1.378c-0.58043,-1.16844 -2.66683,-2.45849 -3.54525,-3.51305c-2.32557,-3.49394 -1.23057,-6.26139 -1.89438,-9.98067c-0.39121,-2.1919 -1.9367,-4.14712 -2.11415,-6.54738c-0.31015,-4.19517 1.9822,-7.52253 5.27255,-9.83122c0.95837,-0.41273 0.80357,-1.28573 1.12501,-2.28356c0.63286,-1.96458 1.69377,-4.38415 3.33066,-5.73016c5.12094,-4.21094 12.34446,-4.23074 18.58867,-4.23074c0.53759,0.22701 1.10447,-1.86649 2.01135,-2.48624c1.43709,-0.9821 3.34847,-1.94937 5.06364,-2.31844c5.93551,-1.27719 12.36582,0.50241 17.3389,3.78091c0.65527,0.56724 2.70973,-0.21717 3.80392,-0.0202c1.43867,0.25898 3.11908,1.11482 4.38909,1.82128c3.17872,1.76818 6.38758,4.48798 8.24167,7.65184c0.33636,0.57396 0.16881,1.31992 0.27047,1.97736c0.17085,1.10491 2.35134,3.13941 3.05138,4.05187c1.56635,2.04287 4.14171,5.02882 4.84465,7.51382c0.72743,2.5716 -1.7983,2.25593 -2.5195,3.71714c-1.51152,3.06249 -1.3952,5.76573 -4.89171,7.51695l-0.35122,0.17561c0,0 -0.03371,0.01686 -0.08981,0.03546c-1.0895,3.77093 -3.17707,7.7257 -6.01722,10.27717c-0.06063,1.32231 -0.22371,2.63523 -0.34786,3.94749c0.02776,0.13806 0.01695,0.24619 0.01695,0.24619c-0.02571,0.23991 -0.05848,0.47459 -0.09806,0.70419c-0.04571,0.61783 -0.07524,1.23597 -0.07382,1.85534c0,0 0,0.75 -0.75,0.75c-0.00007,0 -0.00014,0 -0.00021,0c-2.71389,5.64738 -10.43956,7.35206 -16.05311,9.02373c-4.23086,0.30802 -9.2018,0.79501 -13.56587,-0.34148c-0.5021,0.03373 -1.08117,-0.01782 -1.71336,-0.081c-2.99061,-0.29883 -5.71556,-2.41041 -7.24241,-4.92635l-0.23843,-0.20676c0,0 -0.02714,-0.02714 -0.063,-0.07528c-0.4874,-0.28702 -0.29379,-0.86784 -0.29379,-0.86784c0.03786,-0.1079 0.07857,-0.21376 0.12182,-0.31782c-0.45747,-0.47117 -0.91133,-0.93941 -1.36548,-1.39396c-0.79685,-0.92948 -1.3959,-1.68612 -1.95155,-2.58292c-0.3615,0.18078 -0.73814,0.33802 -1.12771,0.46868zM225.41721,123.7359c0.38581,1.41472 0.37337,2.93168 0.1653,4.42452h0.10102v0.30024c0.93373,0.56018 1.94153,0.97696 2.99705,1.28256c0.32225,-0.03347 0.50522,-0.11853 0.42369,-0.27962c-0.34403,-1.72478 -1.26418,-3.48845 -2.28232,-5.11352c-0.46734,-0.18586 -0.95433,-0.37977 -1.40474,-0.61418zM224.02058,126.53419c-0.0755,-1.39139 0.07808,-2.89664 -0.83125,-4.14444l-0.42781,-0.32086c-0.20469,0.42253 -0.46612,0.79999 -0.74004,1.16358c0.69007,1.05044 1.37034,2.17377 1.9991,3.30173zM223.00181,120.56161c0.14015,0 0.27131,0.03844 0.38354,0.10535l1.21784,0.69591l-0.1262,0.22086c0.24511,0.10672 0.4832,0.21852 0.7201,0.33351c-0.00031,-0.00045 -0.00062,-0.0009 -0.00093,-0.00135c-0.41612,-0.60174 -1.00227,-1.99995 -1.76077,-2.18297c-0.38804,-0.09363 -0.45839,0.31489 -0.47895,0.83004c0.01501,-0.0009 0.03014,-0.00135 0.04537,-0.00135z" fill="#000000" stroke-width="0.5"/><path d="M222.90769,120.55185c0.02056,-0.51515 0.11422,-0.9556 0.50226,-0.86197c0.7585,0.18302 1.40579,1.65928 1.82191,2.26102c0.00031,0.00045 0.00061,0.00091 0.00092,0.00136c-0.2369,-0.11499 -0.48752,-0.21749 -0.73263,-0.32421l0.13778,-0.22922l-1.30144,-0.74255c-0.11223,-0.06691 -0.14592,-0.08304 -0.28607,-0.08304c-0.01523,0 -0.12774,-0.02228 -0.14275,-0.02138z" data-paper-data="{&quot;noHover&quot;:false,&quot;origItem&quot;:[&quot;Path&quot;,{&quot;applyMatrix&quot;:true,&quot;segments&quot;:[[[223.00181,120.56161],[-0.01523,0],[0.14015,0]],[[223.38535,120.66696],[-0.11223,-0.06691],[0,0]],[224.60319,121.36287],[[224.47699,121.58373],[0,0],[0.24511,0.10672]],[[225.19709,121.91724],[-0.2369,-0.11499],[-0.00031,-0.00045]],[[225.19616,121.91589],[0.00031,0.00045],[-0.41612,-0.60174]],[[223.43539,119.73292],[0.7585,0.18302],[-0.38804,-0.09363]],[[222.95644,120.56296],[0.02056,-0.51515],[0.01501,-0.0009]]],&quot;closed&quot;:true,&quot;fillColor&quot;:[0,0,0,1]}]}" fill="#f7f7f7" stroke-width="0.5"/><path d="M226.81273,124.30094c1.01814,1.62507 1.97544,3.47936 2.31947,5.20414c0.08153,0.16109 -0.10811,0.24993 -0.43036,0.2834c-1.05552,-0.3056 -2.11846,-0.73088 -3.05219,-1.29106l-0.00336,-0.30365l-0.10202,-0.00115c0.20807,-1.49284 0.23251,-3.08455 -0.1533,-4.49927c0.45041,0.23441 0.95443,0.42173 1.42177,0.60759z" data-paper-data="{&quot;noHover&quot;:false,&quot;origItem&quot;:[&quot;Path&quot;,{&quot;applyMatrix&quot;:true,&quot;segments&quot;:[[[225.41721,123.7359],[0.45041,0.23441],[0.38581,1.41472]],[[225.58251,128.16042],[0.20807,-1.49284],[0,0]],[225.68353,128.16042],[[225.68353,128.46066],[0,0],[0.93373,0.56018]],[[228.68058,129.74322],[-1.05552,-0.3056],[0.32225,-0.03347]],[[229.10427,129.4636],[0.08153,0.16109],[-0.34403,-1.72478]],[[226.82195,124.35008],[1.01814,1.62507],[-0.46734,-0.18586]]],&quot;closed&quot;:true,&quot;fillColor&quot;:[0,0,0,1]}]}" fill="#f7f7f7" stroke-width="0.5"/><path d="M224.04101,126.57984c-0.62876,-1.12796 -1.36361,-2.33345 -2.05368,-3.38389c0.27392,-0.36359 0.56372,-0.75419 0.76841,-1.17672l0.43797,0.32072c0.90933,1.2478 0.7718,2.84849 0.8473,4.23988z" data-paper-data="{&quot;noHover&quot;:false,&quot;origItem&quot;:[&quot;Path&quot;,{&quot;applyMatrix&quot;:true,&quot;segments&quot;:[[[224.02058,126.53419],[0,0],[-0.0755,-1.39139]],[[223.18933,122.38975],[0.90933,1.2478],[0,0]],[[222.76152,122.06889],[0,0],[-0.20469,0.42253]],[[222.02148,123.23247],[0.27392,-0.36359],[0.69007,1.05044]],[[224.02058,126.5342],[-0.62876,-1.12796],[0,0]]],&quot;closed&quot;:true,&quot;fillColor&quot;:[0,0,0,1]}]}" fill="#f7f7f7" stroke-width="0.5"/><path d="M237.22752,161.68409c-0.1582,0.12077 -0.57634,0.36201 -0.99448,-0.05614c-0.53033,-0.53033 0,-1.06066 0,-1.06066l0.44194,-0.29078c0.72274,-0.18048 1.35671,-0.38116 1.9128,-0.60467c1.79915,-3.82168 3.56311,-7.45677 4.35719,-11.89282c0,0 0.03985,-0.2192 0.19559,-0.39693c0.01619,-1.74286 0.01745,-3.48772 0.01618,-5.23607c-0.72758,-0.01479 -0.72758,-0.74977 -0.72758,-0.74977c0.01651,-0.85893 0.2961,-1.7595 0.72522,-2.50333v-0.25251c0,0 0,-0.75 0.75,-0.75c0.00726,0 0.01445,0.00007 0.02158,0.00021c0.83418,-0.79589 1.8743,-1.00244 2.73175,0.05923c0.08549,-0.30868 0.12813,-0.63611 0.12278,-1.04998c0,0 0,-0.61918 0.5626,-0.73235c1.62997,-2.48049 4.5054,-4.11198 5.82967,-0.08726c0.09966,0.30286 0.18942,0.60899 0.27044,0.91796c0.71749,-0.89396 2.11407,-0.35894 2.14727,1.89015v0.17799c0.88774,0.0284 1.62254,0.21991 1.96164,0.7113v0.00001c0.36358,0.52686 0.30088,1.96278 0.30132,2.63392c0.00168,2.58238 -0.77974,4.09987 -2.14853,4.95812c0.02067,0.14388 0.00203,0.25564 0.00203,0.25564c-0.80795,4.74217 0.88861,9.97663 0.89546,14.77736c0.13551,1.08407 0.67773,4.39174 0.03938,5.3407c-0.70228,1.04398 -1.69344,1.17422 -2.40754,0.7076c0.61697,8.03028 -1.62857,16.15066 -0.17406,24.2558c1.84532,6.98391 4.22983,13.78504 6.58276,20.61501c0.22379,-0.04195 0.54722,-0.01573 0.76575,0.37763c0.36423,0.65562 -0.29138,1.01985 -0.29138,1.01985c-0.22984,0.12764 -0.48174,0.26503 -0.75144,0.4075c0.00882,2.92967 4.23627,3.57954 4.82556,6.17133c0.81727,3.5945 -4.19145,3.89301 -6.28989,4.68993c-3.31047,1.84715 -6.60727,2.69898 -10.41343,2.2296l-0.06999,-0.04105c-0.04216,0.18774 -0.09204,0.36997 -0.15069,0.5457c-1.22656,3.67479 -6.72893,6.5644 -10.30964,7.23023c-3.08178,0.30725 -8.15943,0.93641 -11.15278,-0.02487c-3.38481,-1.08699 -3.47309,-5.48627 -1.98645,-8.09479c0.60396,-1.05975 1.51867,-1.92815 2.2977,-2.85494c2.11603,-1.70146 4.70359,-2.71678 5.81847,-5.33004l0.06311,-0.12772c-0.07422,-0.0996 -0.14585,-0.20349 -0.21475,-0.31194c-0.76113,-1.19804 -0.32684,-2.356 0.01506,-3.59118c0.89767,-3.24302 1.83044,-6.42179 2.89953,-9.63011c0.69895,-2.09557 1.36225,-4.20592 1.97875,-6.31833c-0.59989,-0.04536 -1.21378,-0.12987 -1.9121,-0.51705c0,0 -0.2046,-0.11367 -0.32171,-0.3283c-6.65554,-2.56521 -3.01693,-13.07939 -1.83109,-17.83415c0,0 0.08984,-0.35935 0.39578,-0.50984c-0.50028,-3.60255 2.81989,-5.78941 4.60045,-8.84357c0.77204,-1.32427 1.33427,-2.69462 1.81813,-4.08764c-0.09461,-0.12382 -0.1339,-0.24173 -0.1339,-0.24173c-1.01308,-3.06324 1.55329,-4.72277 1.82656,-7.7145c-0.6842,0.54341 -1.48765,0.95914 -2.32277,1.29091c-0.53005,1.05514 -1.08185,2.1064 -1.64598,3.16146l-0.82728,0.5098c0,0 -0.65118,0.3721 -1.02329,-0.27908c-0.3721,-0.65118 0.27908,-1.02329 0.27908,-1.02329l0.48181,-0.23826c0.21376,-0.4916 0.431,-0.97616 0.65001,-1.45549c-0.16265,0.0438 -0.32373,0.08576 -0.48257,0.1262zM250.55085,172.53594c0.62404,0.41602 0.20801,1.04006 0.20801,1.04006l-0.34688,0.51712c-0.41696,0.71171 -0.4789,0.96368 -0.3733,1.78923c0,0 0.05662,0.50957 -0.34509,0.73289c-0.31459,2.1993 -0.67839,4.34076 -0.99671,6.48568c-0.08118,3.22554 -0.32533,6.40589 -0.32533,9.65448c0,4.10725 0.38333,8.5277 0.15564,12.75592c0.05858,0.41311 0.14213,0.82362 0.25793,1.22405c0.72749,2.42647 1.28025,7.83486 4.08695,8.89715c1.26732,0.47966 3.68202,-0.56982 4.86529,-0.94157c0.5392,-0.1694 1.04802,-0.40854 1.54539,-0.67148l-0.07025,-0.24624c-2.37106,-6.86986 -4.76602,-13.71454 -6.61689,-20.74231c-1.04602,-5.81828 -0.52724,-11.90794 -0.32835,-17.78239c0.07848,-2.318 0.6124,-4.66917 0.4451,-6.98606c-1.18086,0.58965 -2.53233,0.71609 -4.00485,0.71703c-0.05075,1.59483 -0.09863,3.18146 -0.12202,4.7508c0.09071,-0.00909 0.19204,0.00094 0.30399,0.03953c0.06413,-0.13386 0.1373,-0.27316 0.22015,-0.42094l0.40117,-0.60496c0,0 0.41602,-0.62404 1.04006,-0.20801zM253.06856,217.28733l-0.02976,-0.03608c-0.35835,2.86678 -1.77187,4.22807 -4.60444,4.86835c0,0 -0.00349,0.00078 -0.01003,0.00198c0.06471,1.40488 0.24875,3.02368 0.18428,4.50023c0.12258,0.02837 0.22556,0.08604 0.29629,0.13497c3.44862,0.3856 6.35322,-0.46258 9.36731,-2.13034c1.50919,-0.56077 4.7808,-0.49051 5.4801,-2.43633c0.38049,-1.05873 -1.68275,-2.11275 -2.25283,-2.60855c-1.16271,-1.01122 -2.20663,-2.28154 -2.52981,-3.75917c-1.86491,0.86869 -4.11678,1.6573 -5.87482,1.40148c-0.01463,0.04014 -0.02629,0.06347 -0.02629,0.06347zM251.55038,217.0652l0.13458,-0.34206c-1.88939,-1.11194 -2.79875,-3.635 -3.43735,-6.03958c-0.05319,0.00626 -0.103,0.00808 -0.14965,0.00608c0.49205,3.5941 2.41078,7.60174 0.30169,9.89833c2.04275,-0.50385 2.88559,-1.4016 3.15073,-3.52276zM228.16625,226.04915c-0.67798,0.82187 -1.50115,1.57831 -2.03469,2.50898c-0.97454,1.69991 -1.34298,5.20229 1.10811,5.9339c2.839,0.8474 7.59474,0.26757 10.50915,-0.02487c2.95704,-0.52255 8.06867,-3.13061 9.08296,-6.17953c0.6187,-1.85979 0.12884,-4.62172 0.07554,-6.66886c-0.44402,0.19801 -0.96074,0.36562 -1.55981,0.49909c-1.07281,0.23901 -2.27527,0.22513 -3.36812,0.22592c-1.29254,0 -2.51611,0.07126 -3.78264,-0.22637c-1.43954,-0.33828 -2.89406,-0.6741 -4.06127,-1.49518c-1.29706,2.59862 -3.74662,3.6593 -5.96922,5.42694zM237.12068,206.46128c-1.09395,3.28078 -3.51823,7.98482 -3.27245,11.50283c0.20071,2.87288 6.30718,2.87966 8.13115,2.87966c1.54261,0.00119 5.08778,-0.03011 6.06446,-1.60022c0.41526,-0.66757 -0.44583,-2.56762 -0.51916,-3.25579c-0.24008,-2.25304 -1.02765,-4.50544 -1.03455,-6.77224c0,0 0,-0.33563 0.22452,-0.55784c0.1085,-0.67201 0.19108,-1.35466 0.2527,-2.04519c-0.51834,-4.69416 -0.58038,-9.5369 -0.58038,-14.21075c0,-3.25197 0.36004,-6.32571 0.81213,-9.39148c0.00183,-0.07561 0.00357,-0.15126 0.00521,-0.22692c-0.17498,0.28259 -0.37206,0.54176 -0.59396,0.77108c-0.09695,0.10019 -0.19653,0.19617 -0.29856,0.28801l-0.00111,0.3241c-0.29608,1.65759 -0.87695,3.32889 -1.1483,4.94982c-0.45995,2.74755 0.49991,5.64816 0.50063,8.40354c0,0 0,0.47172 -0.3741,0.66694l-0.48068,0.45658c-1.28197,0.39425 -2.66485,0.60694 -3.97117,0.56669l-1.02757,0.86591c-0.21473,-0.09963 -0.42237,-0.17129 -0.62531,-0.224c-0.64362,2.20908 -1.3333,4.41742 -2.06348,6.60927zM243.68758,188.84251c0.2137,-1.2869 0.63329,-2.61109 0.94203,-3.92793c-3.28678,1.41491 -7.71669,0.10218 -9.84413,-2.46399c-0.90393,3.46943 -1.80042,6.53566 -1.56903,10.29855c0.09503,1.54539 1.10961,4.18688 2.70687,4.68114c0.18558,0.03193 0.3266,0.03157 0.4312,0.00554c-0.81045,-0.92134 -1.26023,-2.23827 -1.13676,-4.03625c0,0 0.05343,-0.74809 0.80152,-0.69465c0.7481,0.05344 0.69466,0.80152 0.69466,0.80152c-0.01688,0.2264 -0.02226,0.44204 -0.01681,0.64731c0.18007,0.09818 0.2857,0.24606 0.2857,0.24606l0.48175,0.70069c0.30407,0.69268 0.4963,1.31901 0.52974,1.8549c1.49498,1.10307 4.02004,0.94 6.16642,0.31608c-0.05075,-2.78866 -0.9358,-5.64301 -0.47317,-8.42897zM249.54092,140.60882c-0.08282,-0.74541 0.66259,-0.82824 0.66259,-0.82824c0.45046,-0.04995 1.26328,-0.22671 2.19366,-0.39234c-0.02936,-0.26193 -0.06153,-0.52325 -0.09702,-0.78385c-0.50916,-3.73919 -2.2616,-4.62625 -4.0631,-1.00639c-0.09228,0.76029 -0.32941,1.36863 -0.70256,2.12987c0.38654,1.15382 0.62149,2.40107 0.76093,3.68873c0.34444,-0.83626 0.86722,-1.6486 1.47567,-2.32259c-0.11296,-0.09895 -0.20418,-0.2513 -0.23018,-0.4852zM250.6596,148.38063c-1.02675,-0.19136 -1.7311,-0.59075 -2.17666,-1.1196c0.00842,1.76737 -0.05648,3.51417 -0.05887,5.11203c0.61199,4.89591 0.49136,10.02824 0.33126,15.10644c1.61953,-0.0024 3.13707,-0.10151 4.27287,-1.26234c0.91558,-5.39363 0.43849,-11.16673 0.13789,-16.62448c-0.0638,-0.44667 -0.11756,-0.89523 -0.1637,-1.34517c-0.71858,0.09755 -1.50279,0.13513 -2.3428,0.13313zM252.47277,141.01528c-0.22016,0.26071 -0.59095,0.26071 -0.59095,0.26071l0.09578,-0.10688c-1.51534,0.90867 -4.54778,5.27527 -1.19428,5.71663c3.52028,-0.00944 5.56737,-0.45795 5.57011,-4.47417c0.00039,-0.57249 0.19867,-1.17649 0.01123,-1.71742c-0.11841,-0.34172 -0.72485,-0.0343 -1.08495,-0.00089c-0.93859,0.08708 -1.87226,0.20382 -2.80694,0.32202zM245.84435,139.75546l0.02381,-0.04764c-0.35008,-0.80236 -0.8226,-0.99106 -1.2138,-0.71193v0.07966c0,7.59068 0.12365,15.11325 -0.74579,22.65635c-1.33441,3.59697 -2.0247,7.2656 -3.99044,10.63378c-1.57677,2.70171 -5.68789,5.30875 -4.19773,8.85881c1.74784,2.60166 6.28248,3.68506 9.13524,1.81618c0.06467,-0.20891 0.22908,-0.47919 0.64705,-0.50316c0.01575,-0.01447 0.03142,-0.02904 0.04702,-0.04374c1.4803,-1.39518 1.52086,-4.99142 1.52086,-6.86695c0,-7.57297 0.79557,-15.64718 -0.1436,-23.16055c-0.0053,-3.88638 -0.06046,-7.67837 -0.71567,-11.52218c-0.01068,-0.06265 -0.02182,-0.12376 -0.03341,-0.18334c-0.66834,-0.33572 -0.33354,-1.00529 -0.33354,-1.00529zM241.25672,157.81998c0.54924,-0.70149 0.8668,-1.52674 1.05042,-2.49939c-0.32894,0.84221 -0.68052,1.67416 -1.05042,2.49939z" fill="#000000" stroke-width="0.5"/><path d="M253.02795,146.63212l-0.15157,0.15157c-0.00799,-0.11119 -0.01568,-0.22242 -0.0231,-0.3337c0.05715,0.06187 0.11543,0.1226 0.17467,0.18213z" fill="#000000" stroke-width="0.5"/></g></g></svg>