<svg version="1.1" xmlns="http://www.w3.org/2000/svg" xmlns:xlink="http://www.w3.org/1999/xlink" width="136.28181" height="243.2575" viewBox="0,0,136.28181,243.2575"><g transform="translate(-167.15245,-86.46662)"><g data-paper-data="{&quot;isPaintingLayer&quot;:true}" fill-rule="nonzero" stroke-miterlimit="10" stroke-dasharray="" stroke-dashoffset="0" style="mix-blend-mode: normal"><g stroke-linecap="butt" stroke-linejoin="miter"><g fill="#686868" stroke="#000000" stroke-width="1"><path d="M195.90828,328.91508v-104.61283h101.23822v104.61283z"/><path d="M177.34795,319.63494v-104.61283l18.56034,9.28017v104.61283z"/><path d="M195.79516,223.83145l-17.71669,-8.85834l102.92552,1.26548l16.45121,8.43652z"/></g><path d="M199.48505,229.00102c0,-0.82843 0.67157,-1.5 1.5,-1.5c0.82843,0 1.5,0.67157 1.5,1.5c0,0.82843 -0.67157,1.5 -1.5,1.5c-0.82843,0 -1.5,-0.67157 -1.5,-1.5z" fill="#b9b9b9" stroke="none" stroke-width="0.5"/><path d="M291.48505,229.66768c0,-0.82843 0.67158,-1.5 1.5,-1.5c0.82842,0 1.5,0.67157 1.5,1.5c0,0.82843 -0.67158,1.5 -1.5,1.5c-0.82842,0 -1.5,-0.67157 -1.5,-1.5z" fill="#b9b9b9" stroke="none" stroke-width="0.5"/><path d="M292.81838,325.33435c0,-0.82842 0.67158,-1.5 1.5,-1.5c0.82842,0 1.5,0.67158 1.5,1.5c0,0.82842 -0.67158,1.5 -1.5,1.5c-0.82842,0 -1.5,-0.67158 -1.5,-1.5z" fill="#b9b9b9" stroke="none" stroke-width="0.5"/><path d="M198.81838,326.33435c0,-0.82842 0.67157,-1.5 1.5,-1.5c0.82843,0 1.5,0.67158 1.5,1.5c0,0.82842 -0.67157,1.5 -1.5,1.5c-0.82843,0 -1.5,-0.67158 -1.5,-1.5z" fill="#b9b9b9" stroke="none" stroke-width="0.5"/></g><path d="M230.32995,212.91409c0.94883,-1.59074 3.44796,-3.2562 4.79668,-2.22718c1.26793,0.96706 1.02462,2.31141 1.02462,2.31141c-0.23724,1.55503 -0.54756,4.43124 -1.11806,6.27804c-0.10188,0.32618 -0.20862,0.62665 -0.32001,0.92445l0.01177,-0.01479c0,0 1.15489,1.86407 0.23527,2.36808c-0.55404,0.30477 -1.15109,0.17604 -1.5428,0.03366c-0.73641,0.89697 -1.60161,1.33834 -2.62486,1.16987c-2.39482,-0.39331 -2.68155,-4.83136 -2.68155,-4.83136c-0.02181,-1.13536 1.27012,-4.42143 2.21895,-6.01217v0v0v0v0v0z" data-paper-data="{&quot;index&quot;:null}" fill="#be1e2d" stroke="#231f20" stroke-width="0.78673" stroke-linecap="round" stroke-linejoin="round"/><g stroke-width="0.90025"><path d="M248.98773,210.7736v0v0v0v0v0c0.089,2.83077 -1.1689,7.87865 -4.56664,9.30748c-3.36027,1.40963 -6.67795,0.78317 -9.87092,-1.98571c-2.6454,-2.29483 -1.92513,-7.89543 -1.26018,-10.99844v0c0,0 0.86283,-7.25701 7.07613,-7.44169c6.2114,-0.1848 8.40096,5.71481 8.46947,9.24459c0.07745,0.62894 0.1319,1.26788 0.15213,1.87376z" fill="#be1e2d" stroke="#000000" stroke-linecap="butt" stroke-linejoin="miter"/><path d="M246.37679,218.55271v0v0v0v0v0l-0.03171,0.14038c-0.54385,0.59301 -1.18346,1.07524 -1.92288,1.38631c-3.11257,1.30601 -6.18728,0.86553 -9.16138,-1.40758l-0.01646,-0.14688c0,0 -0.61962,-9.42865 5.31409,-9.15724c6.73748,0.31131 6.03973,7.64558 5.81834,9.18502z" fill="#e6e7e8" stroke="#231f20" stroke-linecap="round" stroke-linejoin="round"/></g><g stroke="#000000" stroke-width="0.90025" stroke-linecap="round" stroke-linejoin="round"><path d="M285.24588,181.69474l-0.47687,1.56718c-2.67401,7.92599 -6.72087,12.58058 -6.72087,12.58058c0,0 0.09938,-1.40095 -0.06482,-3.6398l-0.13311,-0.04099c-0.33581,1.19438 -0.90275,2.73969 -1.86921,4.65847c-2.11919,4.21365 -8.66404,7.92318 -8.66404,7.92318c0,0 0.3621,-1.43503 0.53576,-3.76748l-0.10673,-0.35188c-0.70262,0.58378 -1.4339,1.12349 -2.17377,1.65c-0.21767,0.15588 -0.43537,0.30807 -0.65693,0.45589c-0.67409,0.45483 -1.3615,0.89024 -2.06431,1.2992c-0.27776,0.15982 -0.56681,0.30935 -0.8485,0.46301c-0.51382,0.28126 -1.03547,0.5483 -1.56541,0.80765c-0.38938,0.18828 -0.78149,0.37586 -1.18133,0.55192c-0.41383,0.18478 -0.83999,0.35281 -1.26321,0.52714c-0.77847,0.3117 -1.56933,0.60505 -2.37904,0.87839c-0.26418,0.08906 -0.52845,0.17813 -0.79743,0.26197c-0.57785,0.18187 -1.16043,0.36021 -1.75437,0.52106l0.00187,0.00173c-2.9815,0.8125 -6.15543,1.38798 -9.56356,1.72529c-3.68723,0.36398 -7.03879,0.45152 -10.17572,0.34996v0c-2.48224,-0.08164 -4.81067,-0.29248 -7.01975,-0.61222c-0.10683,-0.01495 -0.21469,-0.03075 -0.32242,-0.04567c-0.68311,-0.10352 -1.35573,-0.21544 -2.01605,-0.33862c-0.23052,-0.04468 -0.4513,-0.09412 -0.68088,-0.14053c-0.87768,-0.17455 -1.73172,-0.36989 -2.5746,-0.58006c-0.53281,-0.13332 -1.06227,-0.27047 -1.58029,-0.41784c-0.30766,-0.08494 -0.6164,-0.17445 -0.91797,-0.26502c-0.82366,-0.25051 -1.6403,-0.50568 -2.43348,-0.78433l-0.13106,0.13546c0.37357,2.10228 1.1445,3.21234 1.74671,3.73225c1.22764,1.06157 3.52152,1.23947 3.52152,1.23947c0,0 -6.94571,1.2363 -10.94767,-4.0131c-0.4252,-0.55801 -0.85477,-1.13666 -1.26509,-1.75476l-0.17992,-0.35547c-0.83608,-0.24544 -1.68634,-0.58142 -2.52981,-1.02312c-5.14377,-2.71429 -5.8651,-5.08375 -5.8651,-5.08375l0.1378,0.87319c0.56986,2.26801 1.09661,3.69335 1.09661,3.69335c0,0 -6.16909,-3.59054 -9.06591,-9.20701c-2.33576,-4.53384 -2.61144,-7.32253 -2.64327,-7.79168l-0.2648,-1.67112c-0.37452,-6.56873 -0.23991,-13.95721 0.394,-21.24445l0.04858,-0.19544c0.59691,-5.63723 -0.52892,-14.89783 6.55797,-24.67946c13.28021,-18.32495 27.54598,-18.23488 35.57579,-31.71175c5.90634,-9.91451 3.8846,-20.95879 3.8846,-20.95879c0,0 4.04437,5.29736 5.69595,8.43504c1.6,3.05843 3.33414,7.0128 3.33414,7.0128l0.05,-0.03608c0.03073,-0.11832 0.05777,-0.23911 0.08031,-0.35973c0.34922,-1.87865 0.08134,-4.62721 0.08134,-4.62721c0,0 4.06196,10.60006 10.23747,17.41909c6.17178,6.81566 14.78925,8.50904 26.46951,32.2013c1.45346,2.94409 2.79477,5.41762 3.56604,8.1862l0.36199,1.59637c1.1267,4.98862 1.27234,18.88079 -0.48064,24.95022zM215.2768,160.66518c0,0 -6.71699,7.51664 -5.8814,17.59788c0.73932,8.91991 3.15752,11.59391 4.43092,12.2385c1.30914,0.65857 3.28264,0.1664 3.28264,0.1664c0,0 -5.51558,3.18848 -10.25205,-0.68412c-3.16804,-2.58852 -6.636,-5.95064 -7.9359,-15.74875M274.01262,174.59862c0,0 0.96037,2.45255 -0.9627,7.72465c-2.16307,5.93956 -7.1185,7.93613 -7.1185,7.93613c0,0 3.83858,-9.16926 0.02165,-17.51457c-1.66595,-3.64609 -6.48603,-6.2291 -11.48286,-7.99388c-6.77149,-2.39356 -13.86649,-3.28318 -13.86649,-3.28318M277.87715,192.06253c-0.33168,1.20864 -0.90615,2.79115 -1.90141,4.76144c-2.11829,4.21361 -8.66314,7.92314 -8.66314,7.92314c0,0 1.05176,-4.18661 0.42887,-9.87412M200.61329,181.42774c-0.63829,1.29758 -1.11478,2.68092 -1.35639,4.13218c-1.51974,9.04893 2.10873,18.81921 2.10873,18.81921c0,0 -6.16723,-3.58891 -9.06592,-9.20711c-2.56971,-4.98637 -2.64587,-7.86183 -2.64587,-7.86183M284.76476,183.26838c-2.67581,7.92606 -6.72177,12.58061 -6.72177,12.58061c0,0 0.57561,-7.95974 -3.24864,-16.30568c-0.17252,-0.37736 -0.36543,-0.74315 -0.56863,-1.09775M240.60462,161.46773c0,0 1.20654,0.27231 4.45194,2.66432c3.2455,2.39201 4.50676,5.08646 4.50676,5.08646c0,0 -9.39852,-2.10577 -14.62039,-3.76764c-5.21654,-1.66386 -22.76302,-5.74903 -22.76302,-5.74903M212.51713,199.88221c2.67056,3.87006 5.37583,5.92899 5.37583,5.92899c0,0 -6.10315,2.14096 -11.89658,-0.91315c-5.14377,-2.71419 -5.8651,-5.08375 -5.8651,-5.08375M267.7399,200.62962c-6.46439,5.36689 -14.44355,8.17573 -24.23963,9.14483c-11.67907,1.1553 -20.29888,-0.23708 -27.71848,-2.83443M215.55449,206.42411c0.31549,2.52693 1.17934,3.81106 1.84105,4.381c1.22854,1.06154 3.52242,1.23944 3.52242,1.23944c0,0 -6.9475,1.23637 -10.94857,-4.01307c-0.4252,-0.55801 -0.85477,-1.13666 -1.26509,-1.75476M241.29142,161.74314c0,0 25.61262,2.16321 26.1294,16.07942" fill="#be1e2d"/><path d="M272.64586,183.76566c-0.57928,10.04362 -11.69679,20.91277 -28.49753,22.52225c-14.83198,1.4291 -37.04716,-4.43935 -40.69165,-16.6296c-0.36262,-1.22529 -0.57517,-2.41372 -0.66366,-3.55992l0.33173,0.22374c1.18946,1.60977 2.48503,2.75438 3.73635,3.77455c4.73641,3.8708 10.25198,0.68232 10.25198,0.68232c0,0 -1.97343,0.49397 -3.28257,-0.1646c-1.2734,-0.64459 -3.69159,-3.31859 -4.43092,-12.2385c-0.83565,-10.08303 5.8814,-17.59788 5.8814,-17.59788l0.01566,-0.23304c5.28238,1.25424 15.80768,3.79119 19.64861,5.017c5.2219,1.66276 14.62039,3.76764 14.62039,3.76764c0,0 -1.26126,-2.69445 -4.50676,-5.08646c-1.62451,-1.19634 -2.73659,-1.86223 -3.44211,-2.2297l0.65153,0.07758c0,0 19.76646,2.17577 23.6907,10.76476c3.81606,8.34624 -0.02075,17.51453 -0.02075,17.51453c0,0 4.21956,-1.70166 6.56628,-6.62734l0.14134,0.02267z" fill="#e6e7e8"/></g><g stroke="#000000" stroke-width="0.90025" stroke-linecap="round" stroke-linejoin="miter"><path d="M278.91107,165.12611c0,0 8.68248,-10.47962 9.16849,-10.9788c0.48591,-0.49908 4.05969,-5.22795 14.79242,-7.1968c0,0 -5.7854,31.0722 -21.66563,38.72018c-0.00003,-0.0009 1.20818,-8.87515 -2.29528,-20.54457zM278.98324,165.3721c-0.26922,-0.96567 -1.03665,-2.66056 -1.03665,-2.66056M280.52042,188.06179c0,0 0.56492,-1.5002 0.68591,-2.392" fill="#be1e2d"/><path d="M287.45963,180.58822c0,0 -1.66272,-1.18241 -2.00077,-5.26248c-0.21376,-2.53071 0.72829,-7.19518 0.72829,-7.19518l-0.08446,0.15084c0.67588,-0.84306 1.38532,-1.82517 2.02117,-2.8974c1.07763,-1.81384 2.31666,-4.52008 3.44566,-7.18442l0.17637,-0.3678c0,0 3.06617,-4.86233 9.76406,-5.71198l0.07892,0.0394c-1.24197,4.73695 -3.29624,11.69318 -5.67959,16.48142c-2.67332,5.37121 -5.85095,9.31785 -8.56479,12.04824zM283.49204,171.02248c0,0 2.27231,-2.39157 2.69514,-2.89191" fill="#929497"/></g><g stroke="#000000" stroke-width="0.90025" stroke-linecap="round" stroke-linejoin="miter"><path d="M192.23175,188.97389c-16.40282,-6.44914 -24.47697,-37.00666 -24.47697,-37.00666c10.84933,1.16829 14.76399,5.61908 15.28555,6.07985c0.52156,0.46086 9.95752,10.26855 9.95752,10.26855c-2.62918,11.89806 -0.76611,20.65826 -0.76611,20.65826zM193.77962,165.8371c0,0 -0.6396,1.74714 -0.83636,2.73012M192.23175,188.97389c0.1867,0.88038 0.86143,2.33454 0.86143,2.33454" fill="#be1e2d"/><path d="M185.74104,184.46194c-2.90891,-2.52249 -6.36961,-6.22261 -9.4349,-11.37981c-2.73282,-4.59825 -5.29637,-11.38299 -6.88635,-16.01478l0.07588,-0.04515c6.74339,0.3514 10.16081,4.97206 10.16081,4.97206l0.20317,0.3537c1.3234,2.57326 2.75983,5.18015 3.96903,6.90907c0.71362,1.02212 1.49395,1.9489 2.2305,2.73951l-0.09542,-0.14416c0,0 1.28541,4.58175 1.25984,7.12135c-0.0344,4.0939 -1.60495,5.39638 -1.60495,5.39638l0.12239,0.09182zM185.96376,171.8524c0.45877,0.4676 2.9022,2.68405 2.9022,2.68405" fill="#929497"/></g><path d="M228.82277,180.59644v0v0v0v0v0c0.72445,0.17394 1.16856,0.90156 0.99273,1.62608c-0.17387,0.72625 -0.89789,1.17023 -1.62761,1.00009c-0.04184,-0.01105 -4.27011,-0.99362 -8.3182,0.35123c-0.12458,0.04065 -0.24899,0.06418 -0.374,0.06883c-0.5847,0.02171 -1.13882,-0.34328 -1.33245,-0.92519c-0.11449,-0.33989 -0.07726,-0.69531 0.06651,-0.99796c-0.26105,-0.21196 -0.5109,-0.48908 -0.69112,-0.87706c-0.21124,-0.44977 -0.01683,-0.98666 0.43477,-1.19716c0.44741,-0.20484 0.98576,-0.01949 1.19813,0.43394c0.16832,0.3613 0.62022,0.44989 0.62569,0.45149c0.13341,0.02477 0.2517,0.08162 0.35447,0.15705c0.13217,-0.03283 0.26511,-0.06658 0.39559,-0.09394c-0.14625,-0.20351 -0.28355,-0.43268 -0.37169,-0.7177c-0.14558,-0.47653 0.12231,-0.97751 0.5988,-1.124c0.47992,-0.15111 0.97938,0.12404 1.124,0.5988c0.11586,0.37946 0.54062,0.53751 0.54428,0.53917c0.19774,0.0594 0.34665,0.18897 0.45792,0.34514c3.2168,-0.26986 5.77668,0.32605 5.92218,0.36118z" fill="#231f20" stroke="none" stroke-width="0.90025" stroke-linecap="butt" stroke-linejoin="miter"/><path d="M248.07439,219.5082c-2.44968,2.73486 -5.33018,3.89198 -6.43377,2.5845c-1.10358,-1.30748 -0.01236,-4.58444 2.43732,-7.3193c2.44968,-2.73486 5.33018,-3.89198 6.43377,-2.5845c1.10358,1.30748 0.01236,4.58444 -2.43732,7.3193z" fill="#be1e2d" stroke="#231f20" stroke-width="0.90025" stroke-linecap="butt" stroke-linejoin="miter"/><path d="M248.2721,212.36096c1.60203,-0.52357 3.50941,-0.00722 3.50941,-0.00722c0,0 0.55382,5.91353 0.70635,8.05336c0.15338,2.14294 0.95755,5.49272 0.95755,5.49272c0,0 0.4752,0.3342 0.29211,1.20966c-0.18672,0.8734 -1.88636,1.04649 -4.03045,1.50925c-2.14017,0.45746 -3.85132,0.07307 -4.1404,-0.78694c-0.29202,-0.85587 0.35462,-1.25648 0.35462,-1.25648c0,0 1.34801,-7.06668 0.57415,-9.49594c0.00428,0.00516 -0.26589,-4.05111 1.77665,-4.71841z" fill="#be1e2d" stroke="#231f20" stroke-width="0.90025" stroke-linecap="round" stroke-linejoin="round"/><path d="M255.80443,204.79128c-0.40424,2.07288 -3.52303,5.5759 -4.14489,6.3119c-0.62227,0.73531 -2.64253,1.6125 -3.7512,0.88808c-1.10946,-0.72381 -0.89584,-2.43894 -0.89584,-2.43894c0.45104,-1.50613 1.16047,-4.31305 1.97769,-6.06258c0.14712,-0.30812 0.29704,-0.5921 0.445,-0.87112l-0.01311,0.01246c0,0 -0.88258,-2.0081 0.09693,-2.37904c0.59271,-0.22448 1.16261,-0.01618 1.53172,0.18158c0.85555,-0.78431 1.77385,-1.10771 2.7629,-0.7942c2.32036,0.71699 1.9908,5.15185 1.9908,5.15185v0v0v0v0v0z" data-paper-data="{&quot;index&quot;:null}" fill="#be1e2d" stroke="#231f20" stroke-width="0.78673" stroke-linecap="round" stroke-linejoin="round"/><g stroke="#000000" stroke-width="1" stroke-linecap="butt" stroke-linejoin="miter"><path d="M276.72181,266.93449c-6.94903,2.48678 -51.07106,1.87124 -57.88411,-0.34832c-7.86831,-2.56336 -6.89912,-21.57451 1.11074,-24.14005c6.78323,-2.17265 50.64342,-1.76459 57.67502,0.99318c6.36836,2.49765 6.19476,20.95566 -0.90165,23.49519z" data-paper-data="{&quot;index&quot;:null}" fill="#363636"/><path d="M272.63389,263.40279c-5.53329,1.76301 -40.66621,1.32662 -46.09121,-0.24694c-6.26528,-1.8173 -5.49355,-15.29531 0.88444,-17.11416c5.40126,-1.5403 40.32569,-1.25101 45.92472,0.70411c5.07091,1.77071 4.93268,14.85658 -0.71796,16.65699z" data-paper-data="{&quot;index&quot;:null}" fill="#4a4a4a"/></g><g stroke="#000000" stroke-width="1" stroke-linecap="butt" stroke-linejoin="miter"><path d="M277.22181,314.93449c-6.94903,2.48678 -51.07106,1.87124 -57.88411,-0.34832c-7.86831,-2.56336 -6.89912,-21.57451 1.11074,-24.14005c6.78323,-2.17265 50.64342,-1.76459 57.67502,0.99318c6.36836,2.49764 6.19476,20.95567 -0.90165,23.49519z" data-paper-data="{&quot;index&quot;:null}" fill="#363636"/><path d="M273.13389,311.40279c-5.53329,1.76301 -40.66621,1.32662 -46.09121,-0.24694c-6.26528,-1.8173 -5.49355,-15.29531 0.88444,-17.11416c5.40126,-1.5403 40.32569,-1.25101 45.92472,0.70412c5.07091,1.77071 4.93268,14.85658 -0.71796,16.65699z" data-paper-data="{&quot;index&quot;:null}" fill="#4a4a4a"/></g><path d="M257.05515,179.12327c0.12886,3.46996 -1.02487,6.32963 -2.57693,6.38727c-1.55205,0.05764 -2.9147,-2.70859 -3.04356,-6.17855c-0.12886,-3.46996 1.02487,-6.32963 2.57693,-6.38727c0.36744,-0.01364 1.00617,0.74412 1.58558,0.41172c0.62816,-0.36037 0.47535,-1.8654 1.37362,-1.32021c0.54337,0.32978 -0.13559,1.86362 -0.33627,3.31221c-0.14417,1.04071 1.90589,-2.17785 2.07759,-1.34789c0.06701,0.32388 -1.66613,4.87615 -1.65697,5.12272z" fill="#231f20" stroke="#000000" stroke-width="1" stroke-linecap="butt" stroke-linejoin="miter"/><path d="M227.66987,219.14462c-0.10577,-1.70629 2.29379,-2.89509 5.35957,-2.65525c3.06578,0.23983 5.63683,1.81748 5.7426,3.52377c0.10577,1.70629 -2.29378,2.89508 -5.35957,2.65525c-3.06578,-0.23983 -5.63684,-1.81749 -5.7426,-3.52378z" data-paper-data="{&quot;index&quot;:null}" fill="#be1e2d" stroke="#231f20" stroke-width="0.90025" stroke-linecap="butt" stroke-linejoin="miter"/><path d="M231.32073,217.4358c2.09832,0.46298 2.22878,4.52614 2.23254,4.52058c-0.53094,2.49364 1.50621,9.39328 1.50621,9.39328c0,0 0.68293,0.33501 0.47659,1.21547c-0.203,0.8843 -1.86801,1.43528 -4.04281,1.19073c-2.17923,-0.24943 -3.88765,-0.25435 -4.15945,-1.10513c-0.26838,-0.85318 0.1716,-1.23254 0.1716,-1.23254c0,0 0.4705,-3.41268 0.41216,-5.56031c-0.05887,-2.14446 -0.08992,-8.08378 -0.08992,-8.08378c0,0 1.84729,-0.70162 3.49308,-0.33831z" data-paper-data="{&quot;index&quot;:null}" fill="#be1e2d" stroke="#231f20" stroke-width="0.90025" stroke-linecap="round" stroke-linejoin="round"/><path d="M244.74472,189.06647c0,0.40546 -0.04821,0.79926 -0.13901,1.17569c-0.5089,2.10967 -2.356,3.67283 -4.55671,3.67283c-2.30167,0 -4.21657,-1.70989 -4.61822,-3.96656c-0.05091,-0.286 -0.07751,-0.58077 -0.07751,-0.88196c0,-2.67777 9.39143,-2.67777 9.39143,0z" fill="#231f20" stroke="#000000" stroke-width="1" stroke-linecap="butt" stroke-linejoin="miter"/></g></g></svg>