<svg version="1.1" xmlns="http://www.w3.org/2000/svg" xmlns:xlink="http://www.w3.org/1999/xlink" width="139.79899" height="153.94056" viewBox="0,0,139.79899,153.94056"><defs><linearGradient x1="181.82758" y1="145.92889" x2="187.35562" y2="192.36636" gradientUnits="userSpaceOnUse" id="color-1"><stop offset="0" stop-color="#cc2981"/><stop offset="1" stop-color="#a92292"/></linearGradient><linearGradient x1="291.7957" y1="142.36826" x2="285.52476" y2="188.71125" gradientUnits="userSpaceOnUse" id="color-2"><stop offset="0" stop-color="#cc2981"/><stop offset="1" stop-color="#a92292"/></linearGradient><linearGradient x1="279.40135" y1="213.14454" x2="279.40135" y2="237.25755" gradientUnits="userSpaceOnUse" id="color-3"><stop offset="0" stop-color="#9966ff"/><stop offset="1" stop-color="#66ebff"/></linearGradient><linearGradient x1="309.62404" y1="208.89782" x2="309.62404" y2="237.33108" gradientUnits="userSpaceOnUse" id="color-4"><stop offset="0" stop-color="#9966ff"/><stop offset="1" stop-color="#66ebff"/></linearGradient></defs><g transform="translate(-173.6892,-84.50862)"><g data-paper-data="{&quot;isPaintingLayer&quot;:true}" fill-rule="nonzero" stroke-miterlimit="10" stroke-dasharray="" stroke-dashoffset="0" style="mix-blend-mode: normal"><g data-paper-data="{&quot;index&quot;:null}" stroke="#000000" stroke-width="0.90024" stroke-linecap="round" stroke-linejoin="miter"><path d="M271.74649,161.4493c0,0 3.36222,-13.18725 3.58784,-13.8464c0.22557,-0.65902 1.43172,-6.46241 10.28929,-12.83511c0,0 8.0691,30.55883 -3.01025,44.26726c-0.00042,-0.0008 -2.70634,-8.53836 -10.86689,-17.58575zM271.91701,161.64074c-0.6566,-0.75755 -2.07555,-1.96094 -2.07555,-1.96094M283.01675,181.48968c0,0 -0.13147,-1.59764 -0.40378,-2.45542" fill="#be1e2d"/><path d="M286.08994,171.76535c0,0 -2.00879,-0.35707 -4.06046,-3.89992c-1.27626,-2.19576 -2.42109,-6.81464 -2.42109,-6.81464l-0.01178,0.17247c0.25006,-1.05121 0.47093,-2.24245 0.58673,-3.48365c0.19769,-2.10053 0.15932,-5.07667 0.03947,-7.96786l0.002,-0.40789c0,0 0.69026,-5.70677 6.38015,-9.34116l0.08819,0.00184c0.90478,4.81276 2.02519,11.97891 1.92035,17.32649c-0.11742,5.99856 -1.30031,10.92543 -2.58454,14.55458l0.061,-0.14024v0v0v0v0v0zM278.4102,164.81789c0,0 1.03018,-3.13397 1.19821,-3.76712" fill="#929497"/></g><g data-paper-data="{&quot;index&quot;:null}" stroke="#000000" stroke-width="0.90024" stroke-linecap="round" stroke-linejoin="miter"><path d="M190.56674,182.97365c-11.19411,-13.61381 -3.38388,-44.23984 -3.38388,-44.23984c8.91084,6.2984 10.16603,12.09137 10.39758,12.74766c0.23151,0.65638 3.70484,13.81555 3.70484,13.81555c-8.08494,9.11649 -10.71855,17.67663 -10.71855,17.67663zM203.17399,163.51181c0,0 -1.40873,1.21535 -2.0588,1.97848M190.56674,182.97365c-0.26514,0.86001 -0.383,2.45875 -0.383,2.45875" fill="#be1e2d"/><path d="M187.09058,175.87413c-1.31448,-3.61896 -2.5382,-8.53524 -2.70765,-14.53224c-0.15088,-5.34691 0.90976,-12.52183 1.77372,-17.34212l0.08826,-0.00253c5.72082,3.58733 6.45893,9.28685 6.45893,9.28685l0.00545,0.40786c-0.09549,2.89205 -0.10859,5.86846 0.10686,7.96725c0.12629,1.24018 0.35724,2.42951 0.61617,3.47856l-0.01323,-0.17237c0,0 -1.10571,4.62841 -2.36345,6.83484c-2.02153,3.56014 -4.02732,3.93413 -4.02732,3.93413zM193.41909,164.9654c0.17337,0.63171 1.23003,3.75685 1.23003,3.75685" fill="#929497"/></g><path d="M190.37182,145.01974c0,0 2.36302,-39.32256 50.2018,-40.02214c32.82687,-0.48005 44.77882,38.10314 44.77882,38.10314" data-paper-data="{&quot;index&quot;:null}" fill="none" stroke="#000000" stroke-width="7" stroke-linecap="round" stroke-linejoin="miter"/><path d="M234.23992,208.42785v0v0v0v0v0c0.90541,1.61585 2.10786,4.93571 2.05531,6.07006c0,0 -0.40683,4.42866 -2.81142,4.75696c-1.02744,0.14069 -1.88037,-0.32395 -2.59221,-1.24053c-0.39543,0.13172 -0.99574,0.24423 -1.54132,-0.07543c-0.90564,-0.52873 0.29931,-2.36084 0.29931,-2.36084l0.01136,0.01511c-0.10328,-0.3007 -0.20183,-0.60395 -0.29485,-0.93277c-0.52027,-1.86158 -0.75258,-4.74513 -0.94762,-6.30602c0,0 -0.20682,-1.35045 1.08684,-2.28281c1.3761,-0.99211 3.8292,0.74042 4.7346,2.35627z" data-paper-data="{&quot;index&quot;:null}" fill="#be1e2d" stroke="#231f20" stroke-width="0.78672" stroke-linecap="round" stroke-linejoin="round"/><path d="M248.72142,217.36084v0v0v0v0c0,0 -3.46029,2.79337 -5.36972,1.29263c-0.82038,-0.6352 -1.07667,-1.57444 -0.91815,-2.72422c-0.37259,-0.19113 -0.86805,-0.5414 -1.02052,-1.15659c-0.25199,-1.01661 1.90166,-1.43279 1.90166,-1.43279l-0.00279,0.01787c0.14535,-0.28038 0.29365,-0.56521 0.46342,-0.86146c0.97422,-1.66721 2.87946,-3.84715 3.86174,-5.07474c0,0 1.28923,-1.15117 2.51557,-0.6503c1.2264,0.49988 1.65391,2.66047 1.40303,3.5905c-0.25169,0.93009 -1.35917,5.48766 -2.83423,6.99909z" data-paper-data="{&quot;index&quot;:null}" fill="#be1e2d" stroke="#231f20" stroke-width="0.78672" stroke-linecap="round" stroke-linejoin="round"/><path d="M243.41362,218.20271c1.58098,-0.36581 3.46597,0.19223 3.46597,0.19223c0,0 0.56085,5.18662 0.71651,7.06071c0.15651,1.87685 0.95861,4.84261 0.95861,4.84261c0,0 0.4701,0.31822 0.29134,1.07108c-0.18236,0.75085 -1.86057,0.80561 -3.97704,1.08774c-2.11262,0.27774 -3.8035,-0.15416 -4.09102,-0.92026c-0.29041,-0.76265 0.34728,-1.07532 0.34728,-1.07532c0,0 1.31474,-6.08433 0.54476,-8.24589c0.00424,0.00474 -0.27212,-3.54671 1.74359,-4.0129z" data-paper-data="{&quot;index&quot;:null}" fill="#be1e2d" stroke="#231f20" stroke-width="0.90024" stroke-linecap="round" stroke-linejoin="round"/><path d="M236.67527,218.40698v0v0v0v0v0c2.73305,1.44176 2.88852,4.03625 2.88927,4.03899c-0.67838,2.18579 0.81309,7.43393 0.81309,7.43393c0,0 0.65152,0.28141 0.39942,1.05634c-0.25589,0.77652 -1.92229,1.28462 -4.04977,1.09903c-2.12379,-0.18729 -3.80185,-0.16759 -4.01753,-0.91257c-0.21568,-0.74499 0.24129,-1.0821 0.24129,-1.0821c0,0 0.14699,-1.75636 0.21803,-3.63861c0.06884,-1.87697 0.04697,-7.0409 0.04697,-7.0409c0,0 1.66873,-1.89911 3.45924,-0.95411z" data-paper-data="{&quot;index&quot;:null}" fill="#be1e2d" stroke="#231f20" stroke-width="0.90024" stroke-linecap="round" stroke-linejoin="round"/><g data-paper-data="{&quot;index&quot;:null}" stroke-width="0.90024"><path d="M247.88982,211.83662v0v0v0v0v0c0.25922,2.82028 -0.69256,7.93472 -3.99813,9.56548c-3.26933,1.60933 -6.6187,1.1837 -9.97254,-1.38797c-2.77873,-2.13145 -2.39687,-7.76524 -1.9199,-10.90265v0c0,0 0.42446,-7.29579 6.61538,-7.85412c6.18901,-0.55833 8.72971,5.19879 9.01056,8.71805c0.11517,0.62313 0.20798,1.25765 0.26464,1.86121z" fill="#be1e2d" stroke="#000000" stroke-linecap="butt" stroke-linejoin="miter"/><path d="M245.75184,219.75878v0v0v0v0v0l-0.0232,0.14203c-0.50717,0.62467 -1.11659,1.14452 -1.83596,1.49953c-3.02831,1.49099 -6.12396,1.23638 -9.22949,-0.8536l-0.02527,-0.14562c0,0 -1.18601,-9.37426 4.75328,-9.4605c6.744,-0.09479 6.48897,7.26819 6.36065,8.81816z" fill="#e6e7e8" stroke="#231f20" stroke-linecap="round" stroke-linejoin="round"/></g><g data-paper-data="{&quot;index&quot;:null}" stroke="#000000" stroke-linecap="butt" stroke-linejoin="miter"><g><g stroke-width="0.4"><path d="M215.14156,234.41136c-0.11124,-0.03069 -0.47382,-0.15343 -0.50208,-0.44441c-0.02734,-0.29003 0.28654,-0.445 0.38926,-0.49614c0.09863,-0.02477 1.71967,-0.17629 3.40225,-1.21102c-0.15075,-0.13853 -0.29311,-0.27387 -0.42896,-0.4079c-0.71164,0.6109 -2.6037,1.19864 -4.06257,1.26201c-0.19469,-0.04778 -0.54975,-0.19006 -0.56287,-0.48035c-0.01117,-0.29115 0.31143,-0.43059 0.41768,-0.4768c0.09933,-0.01907 1.75603,-0.08184 3.51039,-1.0508c-0.15989,-0.1863 -0.3076,-0.37108 -0.44136,-0.54954c-0.64528,0.54679 -2.65725,1.0665 -4.17202,1.04871c-0.19137,-0.05898 -0.53898,-0.21894 -0.53494,-0.51124c0.004,-0.29235 0.3342,-0.41157 0.44206,-0.45108c0.10287,-0.01419 1.84693,0.0208 3.70717,-0.92531c-0.09737,-0.1673 -0.18707,-0.33616 -0.26922,-0.50466c-0.68011,0.4401 -2.46611,0.78087 -3.90955,0.71431c-0.09353,-0.00432 -0.18603,-0.01044 -0.27558,-0.01838c-0.18596,-0.07294 -0.51998,-0.26063 -0.49425,-0.55199c0.02564,-0.28939 0.36329,-0.38462 0.4736,-0.41644l0.24416,0.00177c0.43454,0.02003 1.9516,0.02944 3.59631,-0.67574c-0.06048,-0.20822 -0.10204,-0.39474 -0.12968,-0.55505c-0.78963,0.41327 -2.42078,0.70157 -3.75747,0.63994c-0.09353,-0.00432 -0.18507,-0.01044 -0.27558,-0.01838c-0.18596,-0.07294 -0.52094,-0.26068 -0.49521,-0.55203c0.02565,-0.28944 0.36329,-0.38462 0.47455,-0.41645l0.24121,0.00359c0.44592,0.02056 2.03123,0.02739 3.72483,-0.73232l0.04444,-0.01974c0.11013,-0.25337 0.48055,-0.4237 0.64257,-0.48822l0.30467,-0.11939l0.01808,0.32645c0.17647,3.17377 3.63358,5.96775 3.66823,5.99681l0.31227,0.24915l-1.13897,0.47477l-0.10257,-0.0956c-0.67365,0.62876 -2.52572,1.31489 -3.97485,1.45446l-0.04384,0.00556z" fill="#871212"/><path d="M216.22704,226.35038c0,0 -0.68559,0.27131 -0.4905,0.51511c0,0 -0.00138,0.01033 -0.0032,0.02917c-0.08095,-0.03119 -0.17153,-0.03723 -0.1819,-0.03771c-0.00095,-0.00004 -0.00095,-0.00004 -0.00095,-0.00004c-1.72551,0.7743 -3.32453,0.77633 -3.83276,0.75289c-0.10766,-0.00496 -0.16605,-0.01147 -0.16605,-0.01147c-0.66948,0.18877 -0.02322,0.50353 -0.02322,0.50353c0.08764,0.00781 0.17638,0.01381 0.2661,0.01794c1.56529,0.07217 3.5152,-0.35386 3.91018,-0.79004c0.01107,-0.01465 0.01423,-0.02113 0.02431,-0.03393c0.01684,0.27062 0.07833,0.66158 0.24258,1.14438c-0.03289,-0.00533 -0.0602,-0.00845 -0.07152,-0.00897c-0.00381,-0.00017 -0.00566,-0.00026 -0.00566,-0.00026c-1.72356,0.77248 -3.32068,0.77459 -3.83077,0.75108c-0.10956,-0.00505 -0.16891,-0.0116 -0.16891,-0.0116c-0.66957,0.19067 -0.0233,0.50543 -0.0233,0.50543c0.08764,0.00781 0.17638,0.01381 0.2661,0.01794c1.56529,0.07217 3.5152,-0.35386 3.91018,-0.79004c0.03096,-0.03457 0.04644,-0.06318 0.06668,-0.09161c0.13056,0.31086 0.30232,0.65012 0.5317,1.01378c-0.01993,0.00099 -0.0341,0.00033 -0.0341,0.00033c-2.01571,1.09417 -3.93214,1.04085 -3.93214,1.04085c-0.65282,0.23778 0.01465,0.50336 0.01465,0.50336c1.60848,0.01829 3.72582,-0.5903 4.10742,-1.08482c0.03424,-0.04481 0.05298,-0.08089 0.07253,-0.11499c0.2201,0.3178 0.48778,0.65104 0.79846,0.9967c-1.9229,1.15433 -3.78464,1.20855 -3.78464,1.20855c-0.63939,0.27536 0.04205,0.50462 0.04205,0.50462c1.60592,-0.06984 3.68699,-0.79461 4.04016,-1.30942c0.01522,-0.02204 0.01968,-0.03695 0.03102,-0.05631c0.24575,0.25367 0.51787,0.5114 0.82089,0.7772c-1.84812,1.2363 -3.68707,1.39197 -3.68707,1.39197c-0.62393,0.3092 0.06971,0.50023 0.06971,0.50023c1.5995,-0.15724 3.63839,-0.9938 3.96399,-1.52595c0.00821,-0.01478 0.00947,-0.02135 0.01669,-0.03427l0.16886,0.15734l0.62935,-0.26346c0,0 -3.57296,-2.84763 -3.7569,-6.16753M216.6626,225.66993l0.03621,0.65206c0.17007,3.06649 3.54582,5.79803 3.57961,5.82514l0.62454,0.49835l-0.73747,0.30773l-0.62926,0.26162l-0.28189,0.11858l-0.05353,-0.05076c-0.83595,0.63835 -2.65207,1.2428 -3.95105,1.36941l-0.08658,0.00926l-0.0841,-0.02375c-0.14776,-0.03994 -0.63234,-0.20617 -0.67441,-0.6483c-0.01994,-0.2045 0.05421,-0.49833 0.52025,-0.73052l0.04747,-0.02337c-0.35876,0.06108 -0.70614,0.10093 -1.02205,0.11568l-0.08723,0.0026l-0.08298,-0.02747c-0.14542,-0.04933 -0.61942,-0.24062 -0.63875,-0.6836c-0.00839,-0.20772 0.08075,-0.49801 0.55881,-0.70318l0.08299,-0.03498l0.08921,-0.00437c0.01612,-0.00117 1.46242,-0.05758 3.06272,-0.86797c-0.04122,-0.0511 -0.08148,-0.10125 -0.12084,-0.15131c-0.88058,0.55862 -2.7969,0.97481 -4.12626,0.95991l-0.08804,-0.00025l-0.08163,-0.03595c-0.14127,-0.05672 -0.60453,-0.27593 -0.59836,-0.71774c0.00289,-0.20626 0.10883,-0.492 0.597,-0.6692l0.08472,-0.03114l0.08981,0.00224c0.01608,0.00074 1.56919,0.02883 3.28477,-0.77625c-0.01405,-0.0243 -0.027,-0.05139 -0.04099,-0.07574c-0.88058,0.43462 -2.55247,0.6832 -3.82023,0.62475c-0.09633,-0.00444 -0.19168,-0.01074 -0.285,-0.01881l-0.0877,-0.00786l-0.07869,-0.03862c-0.13793,-0.06695 -0.58359,-0.3185 -0.54427,-0.76068c0.01801,-0.20556 0.14522,-0.48083 0.64509,-0.62441l0.08723,-0.02344l0.08946,0.00985c0.00661,0.00031 0.05657,0.00447 0.14254,0.00843c0.40529,0.01869 1.77847,0.02714 3.30211,-0.5776c-0.00561,-0.02204 -0.01118,-0.045 -0.01593,-0.06509c-0.91933,0.37129 -2.43029,0.57899 -3.59885,0.52512c-0.09633,-0.00444 -0.19163,-0.01075 -0.285,-0.01881l-0.0877,-0.00786l-0.07869,-0.03862c-0.13793,-0.06695 -0.58359,-0.3185 -0.54427,-0.76068c0.01801,-0.20556 0.14527,-0.48082 0.64595,-0.62246l0.08723,-0.02344l0.08955,0.00794c0.00566,0.00026 0.05464,0.00629 0.13965,0.01021c0.42978,0.01982 1.95355,0.02757 3.58879,-0.69788c0.16775,-0.27155 0.51255,-0.44024 0.72661,-0.52501l0.60942,-0.24174zM215.1222,233.20914c0.19987,-0.02297 1.49705,-0.19228 2.91797,-0.99293c-0.0146,-0.01207 -0.02822,-0.025 -0.04178,-0.03887c-0.6222,0.4371 -1.78279,0.82663 -2.87619,1.0318z" fill="#000000"/></g><path d="M244.49438,212.94263l-3.23627,0.32033c-2.95012,-0.11519 -8.66729,3.19578 -10.99893,9.43757c-2.33172,6.24363 -10.74375,10.43191 -10.74375,10.43191c-4.63386,-3.88198 -3.75134,-6.76078 -3.75134,-6.76078c9.86991,-4.47609 8.41455,-8.84197 12.98144,-12.93208c4.56681,-4.0882 10.31301,-3.3897 10.31301,-3.3897z" fill="#ba2915" stroke-width="0.4"/><g fill="#871212" stroke-width="0.4"><path d="M219.7263,224.26813c-0.24936,2.00016 3.76954,6.36596 3.76954,6.36596l-1.1282,0.83688c-4.42889,-2.47527 -4.02399,-6.35023 -4.02399,-6.35023z"/><path d="M223.06473,221.32085c0.43185,3.09654 4.58414,5.63761 4.58414,5.63761l-1.36247,1.31838c-4.25467,-2.6812 -4.39261,-5.68466 -4.39261,-5.68466z"/><path d="M225.03162,218.49391c0.72562,2.02237 5.43825,3.74296 5.43825,3.74296l-0.70817,1.66473c-4.51744,-1.27326 -5.38299,-4.34722 -5.38299,-4.34722z"/><path d="M227.72116,214.46775c0.47103,1.09713 5.31083,3.55063 5.31083,3.55063l-1.05842,1.35604c-4.45329,-1.16527 -5.14654,-3.7873 -5.14654,-3.7873z"/><path d="M231.4895,211.55916c0.33396,-0.09821 5.58869,2.71901 5.58869,2.71901l-1.64763,1.32415l-5.56652,-3.05596c0,0 1.29151,-0.889 1.62547,-0.9872z"/><path d="M234.99085,210.54107l2.2609,-0.5603l4.53814,3.22622l-2.23104,0.24173l-4.56799,-2.90766"/></g><path d="M219.4817,233.41207l-0.11852,-0.09824c-4.69942,-3.93898 -3.86384,-6.8881 -3.82499,-7.01222l0.0312,-0.10178l0.0967,-0.04378c6.30305,-2.85799 7.93699,-5.6709 9.51645,-8.38979c0.86478,-1.48898 1.75851,-3.02963 3.40541,-4.50242c3.88949,-3.48235 8.65886,-3.54644 10.02766,-3.48332c0.30324,0.01398 0.47176,0.03501 0.47176,0.03501l6.2072,3.28617l-4.01326,0.39716c-3.03712,-0.11734 -8.58768,3.35845 -10.80156,9.2838c-2.33808,6.2585 -10.51268,10.38859 -10.8596,10.56197l-0.13846,0.06747zM215.97041,226.5364c-0.08736,0.51949 -0.26698,3.03881 3.57702,6.31256c1.09335,-0.57437 8.38002,-4.58169 10.49023,-10.23058c2.37806,-6.36555 8.14892,-9.7119 11.22949,-9.59164l2.42796,-0.24208l-4.728,-2.51652c-0.00896,0.00908 -0.15313,-0.00516 -0.37321,-0.01625c-1.32346,-0.06102 -5.93565,0.00178 -9.6898,3.36261c-1.59075,1.42428 -2.42677,2.86437 -3.31211,4.38743c-1.60822,2.76867 -3.27092,5.63047 -9.62157,8.5345z" fill="#000000" stroke-width="0.4"/><path d="M215.92338,226.55339c6.35065,-2.90403 8.02208,-5.81491 9.63029,-8.58358c0.88534,-1.52306 1.75395,-2.98069 3.34471,-4.40497c3.75415,-3.36083 8.40274,-3.41344 9.7262,-3.35242c0.22008,0.01109 0.36507,0.02599 0.37403,0.01691l4.73878,2.52865l-2.51036,0.29862c-3.08057,-0.12026 -8.80123,3.24522 -11.17929,9.61077c-2.11021,5.64889 -9.44059,9.64425 -10.53394,10.21862c-3.844,-3.27375 -3.67779,-5.81312 -3.59043,-6.33261z" data-paper-data="{&quot;noHover&quot;:true,&quot;origItem&quot;:[&quot;Path&quot;,{&quot;applyMatrix&quot;:true,&quot;segments&quot;:[[[431.94081,453.0728],[0,0],[-0.17472,1.03898]],[[439.09485,465.69792],[-7.688,-6.5475],[2.1867,-1.14874]],[[460.07531,445.23676],[-4.22042,11.29778],[4.75612,-12.7311]],[[482.53429,426.05348],[-6.16114,-0.24052],[0,0]],[487.39021,425.56932],[[477.93421,420.53628],[0,0],[-0.01792,0.01816]],[[477.18779,420.50378],[0.44016,0.02218],[-2.64692,-0.12204]],[[457.80819,427.229],[7.5083,-6.72166],[-3.1815,2.84856]],[[451.18397,436.00386],[1.77068,-3.04612],[-3.21644,5.53734]],[[431.94083,453.07286],[12.7013,-5.80806],[0,0]]],&quot;closed&quot;:true,&quot;fillColor&quot;:[0,0,0,1],&quot;strokeColor&quot;:[0,0,0],&quot;strokeWidth&quot;:0.4}]}" fill="#000000" stroke-width="0.2"/></g><g stroke-width="0.4"><path d="M252.59188,205.26938c1.84301,1.09131 0.55063,3.45705 0.55063,3.45705c3.41755,1.57759 2.26234,3.53502 2.26234,3.53502c-1.89704,-1.21303 -3.67142,0.06737 -9.04628,0.9442c-5.37395,0.87682 -10.73191,-1.85616 -10.73191,-1.85616c9.83528,-9.30943 16.96427,-6.08016 16.96523,-6.08011z" fill="#ba2915"/><g fill="#871212"><path d="M243.09655,206.15878c0,0 2.68538,2.10139 1.37623,7.2524l-0.85019,-0.0392c0,0 0.98376,-4.37647 -1.325,-6.80227z"/><path d="M247.40396,204.82288c2.16559,3.08751 1.43478,7.66597 1.43478,7.66597l-1.07914,0.22476c0.71086,-5.58283 -1.61001,-7.62293 -1.61001,-7.62293z"/><path d="M239.80742,207.93454c0,0 1.66778,2.32521 1.06544,5.12229l-0.60488,-0.12353c0,0 -0.30628,-3.86985 -1.13565,-4.48368z"/><path d="M253.68531,211.67476l-0.99282,-0.04578c0.27629,-1.88625 -1.2849,-3.40284 -1.2849,-3.40284c0.41331,-2.14788 -0.89432,-3.45493 -0.89432,-3.45493l1.33804,0.25769c0.57885,0.64766 0.53848,3.20653 0.5953,3.3701c1.40004,1.06988 1.23964,3.2758 1.23869,3.27576z"/></g><path d="M255.60755,212.38154l-0.12425,0.21105l-0.20695,-0.13164c-1.12648,-0.71934 -2.31555,-0.4722 -4.51662,0.06345c-1.13453,0.27617 -2.54665,0.61907 -4.36279,0.91586c-0.94236,0.15345 -1.94637,0.20655 -2.98739,0.15855c-4.23109,-0.19509 -7.85409,-2.01972 -7.89018,-2.03844l-0.29873,-0.15199l0.24346,-0.23015c6.11042,-5.78258 11.20019,-6.82117 14.39598,-6.67381c1.77689,0.08193 2.78617,0.5308 2.82977,0.54987c1.5095,0.89224 1.20708,2.60594 0.77101,3.5628c1.24213,0.61297 2.00517,1.35246 2.26904,2.19957c0.27375,0.87884 -0.10592,1.53721 -0.12235,1.56488zM255.27617,210.94626c-0.2267,-0.70908 -0.9453,-1.36509 -2.05887,-1.9125c-2.02286,-0.94808 -4.05048,-0.0476 -4.05048,-0.0476c1.95175,-1.08196 3.31057,-0.80253 3.87273,-0.59296c0.2518,-0.57532 0.76937,-2.12955 -0.56776,-2.92106c-0.00376,-0.00017 -0.96991,-0.41959 -2.63248,-0.49625c-3.05882,-0.14104 -7.92106,0.84839 -13.79693,6.30854c0.9476,0.43087 3.96557,1.68328 7.38995,1.84117c1.007,0.04644 1.98067,-0.00522 2.88967,-0.15358c1.79889,-0.29287 3.20151,-0.63435 4.32739,-0.90806c2.18192,-0.53085 3.45636,-0.78164 4.64152,-0.14383c0.06279,-0.21203 0.11569,-0.5589 -0.01473,-0.97387z" fill="#000000"/></g><g stroke-width="0.4"><path d="M226.95765,203.02244c0,0 -1.13997,-0.94056 -0.50058,-1.97509c0.63935,-1.03458 1.72315,-1.44186 1.71809,-1.33225c-0.00505,0.10956 9.82109,8.98317 21.74371,0.61918l0.0558,-1.2101c0,0 4.21737,2.19662 2.61531,6.14607c0,0 -2.5465,-0.94573 -5.06286,1.54155c-2.51822,2.48719 -4.89959,7.93903 -23.01853,1.83734c0,0 -1.45378,-0.5404 -0.62136,-1.92198c0.83238,-1.38163 3.19902,-2.63382 3.07042,-3.70472z" fill="#ba2915"/><g fill="#871212"><path d="M230.08687,201.24594c-1.31452,0.91539 -0.5533,2.3705 -0.65806,2.95923c-0.10476,0.58872 -0.30664,1.90755 -1.11584,2.7866c-0.80925,0.87911 -0.97325,2.50641 -0.97325,2.50641l-1.86853,-0.53774c0.22863,-0.46278 0.24019,-1.34929 1.47816,-2.53515c1.23803,-1.1859 1.3655,-2.67764 1.3655,-2.67764c-0.7059,-2.65477 0.9312,-3.15487 0.9312,-3.15487z"/><path d="M233.46738,202.97042c0,0 -0.32495,0.41671 -0.36991,1.3916c-0.04495,0.97484 0.22527,1.95101 -0.38691,2.90923c-0.61218,0.95817 -1.37718,3.32177 -1.37718,3.32177l-1.36421,-0.32703c0,0 0.07585,-0.47459 0.51139,-1.56496c0.43559,-1.09031 1.47811,-1.89711 1.35859,-3.57535c-0.11952,-1.67824 0.5267,-2.92266 0.49834,-2.67787z"/><path d="M236.99402,203.74365c-0.34419,1.30659 -0.3138,1.85802 -0.19855,3.62884c0.11525,1.77082 -0.77343,3.73678 -0.77343,3.73678l-1.3147,-0.14772c0,0 1.15256,-2.12509 0.83939,-3.87476c-0.31312,-1.74967 0.43557,-3.45038 0.43901,-3.52503z"/><path d="M239.6103,203.87373l1.23374,0.05689c0.97548,3.82972 -0.2763,4.84269 -0.2763,4.84269c0.21836,1.66954 -0.85685,2.50702 -0.85685,2.50702l-0.70757,-0.03262c1.12643,-1.33207 0.53798,-2.67413 0.53798,-2.67413c0.84078,-2.18018 0.06905,-4.70078 0.06905,-4.70078z"/><path d="M244.88483,202.99609c1.52945,3.94995 0.30071,5.42781 0.35419,5.62246c0.05353,0.19464 -0.21117,0.72012 -0.21117,0.72012l-1.05574,0.64147c0.45095,-0.78769 0.2555,-1.25013 0.2555,-1.25013c0.98518,-3.01132 -0.70386,-5.34795 -0.70386,-5.34795z"/><path d="M248.63596,201.24164c1.39057,1.0695 1.25354,4.04135 1.25354,4.04135l-1.07015,0.54235c0.54443,-2.83479 -1.07319,-4.11255 -1.07319,-4.11255z"/><path d="M249.97153,199.21299c4.61877,2.91472 2.51438,6.0146 2.51438,6.0146l0.00359,-0.36526c0.38977,-3.40325 -2.33979,-4.40194 -2.33979,-4.40194z"/></g><path d="M252.8093,205.35893l-0.08552,0.21188l-0.2141,-0.07895c-0.00371,-0.00113 -0.36504,-0.1314 -0.93369,-0.15762c-0.96638,-0.04456 -2.42536,0.20531 -3.88239,1.64523c-0.24195,0.23781 -0.48146,0.50413 -0.73478,0.78403c-1.58828,1.76045 -3.76508,4.17156 -9.95066,3.88635c-3.32709,-0.15341 -7.55723,-1.08781 -12.57425,-2.77699c-0.0373,-0.01307 -0.7434,-0.28228 -0.9709,-0.93272c-0.14122,-0.40603 -0.0666,-0.85507 0.22251,-1.33495c0.37102,-0.61436 1.00497,-1.18244 1.61823,-1.73256c0.68035,-0.60953 1.37955,-1.23807 1.41897,-1.72282c-0.00821,-0.00701 -0.0175,-0.01125 -0.02567,-0.01825l0.00852,-0.02044c-0.44261,-0.41987 -0.99739,-1.30218 -0.44907,-2.1895c0.60363,-0.97844 1.62055,-1.47496 1.90205,-1.46198l0.23616,0.01088l0.00959,0.14152c0.42231,0.38771 4.33458,3.78108 10.24338,4.05353c3.77105,0.17388 7.48458,-0.99065 11.04146,-3.46023l0.06747,-1.46328l0.32817,0.17132c0.04338,0.02379 4.38856,2.34374 2.72455,6.44554zM250.1928,199.52613l-0.04304,0.93331l-0.09395,0.06671c-3.67448,2.57681 -7.52098,3.79199 -11.43089,3.61171c-5.51768,-0.25442 -9.6491,-3.28965 -10.51692,-4.19868c-0.19088,0.05465 -0.95616,0.43209 -1.44935,1.23199c-0.52177,0.84501 0.41024,1.63582 0.45033,1.6689l0.07298,0.06019l0.00396,0.03709c0.3805,0.30912 1.20195,0.8279 2.85102,1.32144c0,0 -1.59577,-0.02719 -2.89952,-0.82384c-0.18719,0.5897 -0.83429,1.17611 -1.51861,1.79017c-0.58753,0.5258 -1.19485,1.07052 -1.52898,1.62407c-0.21221,0.35278 -0.27305,0.66616 -0.18117,0.93166c0.15199,0.44056 0.67839,0.64472 0.68397,0.64688c4.96762,1.6727 9.15463,2.59848 12.43729,2.74985c4.4682,0.20603 6.71389,-0.98924 8.23556,-2.35234c-1.24163,0.25798 -5.04834,0.83696 -7.96799,-1.00734c0,0 4.17754,1.66469 8.55453,0.44083c0.26824,-0.2745 0.5175,-0.5479 0.75693,-0.81238c0.25939,-0.28716 0.50481,-0.55983 0.75273,-0.80399c2.13252,-2.10741 4.37229,-1.83942 5.08729,-1.66066c1.07507,-2.99016 -1.33934,-4.86985 -2.25617,-5.45552z" fill="#000000"/></g></g><g data-paper-data="{&quot;index&quot;:null}" stroke="#000000" stroke-width="0.90024" stroke-linecap="round" stroke-linejoin="round"><path d="M284.52284,180.55879l-0.50331,1.55889c-2.8077,7.87962 -6.93272,12.46508 -6.93272,12.46508c0,0 0.12306,-1.39907 -0.00324,-3.64038l-0.1324,-0.04323c-0.35596,1.18853 -0.94897,2.72402 -1.94775,4.62619c-2.19017,4.17719 -8.79683,7.77548 -8.79683,7.77548c0,0 0.38632,-1.4287 0.59941,-3.75787l-0.10076,-0.35364c-0.71239,0.57181 -1.4527,1.09907 -2.20137,1.613c-0.22027,0.15218 -0.44052,0.30066 -0.66455,0.44471c-0.68168,0.44336 -1.37637,0.86708 -2.08599,1.26409c-0.28042,0.1551 -0.57196,0.29971 -0.85621,0.44859c-0.5185,0.27253 -1.04459,0.53071 -1.57884,0.78105c-0.39251,0.18167 -0.78774,0.36259 -1.1905,0.53186c-0.41689,0.17776 -0.84583,0.33855 -1.27194,0.5057c-0.78363,0.29849 -1.57934,0.57842 -2.39356,0.83802c-0.26565,0.08458 -0.53139,0.16917 -0.80174,0.24845c-0.58084,0.17207 -1.16636,0.34053 -1.76294,0.49131l0.00184,0.00176c-2.99482,0.76195 -6.17803,1.28366 -9.59138,1.56326c-3.69286,0.30156 -7.04542,0.33239 -10.18019,0.17778v0c-2.4805,-0.12362 -4.80503,-0.37381 -7.00839,-0.73088c-0.10656,-0.01675 -0.21414,-0.03438 -0.3216,-0.05111c-0.68126,-0.11506 -1.35189,-0.23834 -2.01004,-0.37267c-0.22973,-0.04857 -0.44965,-0.10174 -0.67841,-0.15203c-0.8746,-0.18937 -1.72521,-0.39913 -2.56442,-0.62353c-0.53048,-0.14231 -1.05754,-0.2884 -1.573,-0.44452c-0.30618,-0.09013 -0.61336,-0.18485 -0.91335,-0.28051c-0.81931,-0.2644 -1.63151,-0.53335 -2.41987,-0.82539l-0.13334,0.13322c0.33796,2.1083 1.08999,3.23124 1.68332,3.76126c1.20951,1.08219 3.50005,1.29886 3.50005,1.29886c0,0 -6.96562,1.11863 -10.87821,-4.19772c-0.4157,-0.56512 -0.83542,-1.15096 -1.23523,-1.77591l-0.17388,-0.35846c-0.83181,-0.25955 -1.67626,-0.60986 -2.51214,-1.06577c-5.09712,-2.80091 -5.77826,-5.18224 -5.77826,-5.18224l0.12301,0.87539c0.53141,2.27733 1.03398,3.71137 1.03398,3.71137c0,0 -6.10747,-3.69438 -8.90887,-9.35905c-2.25873,-4.57271 -2.48719,-7.36566 -2.51108,-7.83527l-0.23649,-1.67536c-0.26335,-6.57412 -0.00378,-13.95927 0.75331,-21.23475l0.05188,-0.19459c0.69219,-5.62633 -0.27683,-14.90465 6.97451,-24.565c13.5883,-18.09768 27.8505,-17.76631 36.10714,-31.10541c6.07321,-9.81318 4.23859,-20.89008 4.23859,-20.89008c0,0 3.95418,5.36502 5.55244,8.53018c1.54803,3.08506 3.21503,7.0682 3.21503,7.0682l0.0506,-0.03523c0.03273,-0.11779 0.0618,-0.2381 0.08638,-0.35832c0.38095,-1.87248 0.1596,-4.62517 0.1596,-4.62517c0,0 3.88207,10.66726 9.94134,17.58977c6.0556,6.91909 14.6432,8.75799 25.92101,32.64446c1.40345,2.96826 2.70273,5.46412 3.42706,8.24536l0.33493,1.60226c1.04215,5.00697 0.95277,18.89961 -0.90263,24.93852zM214.9195,158.34864c0,0 -6.84318,7.40194 -6.17824,17.49587c0.58833,8.93114 2.96095,11.64567 4.22326,12.3117c1.29781,0.68062 3.27935,0.2219 3.27935,0.2219c0,0 -5.56872,3.09472 -10.23901,-0.85745c-3.1238,-2.64174 -6.53439,-6.06204 -7.66836,-15.88074M273.41122,173.27366c0,0 0.91875,2.46844 -1.09324,7.70726c-2.26324,5.90212 -7.25173,7.81458 -7.25173,7.81458c0,0 3.99313,-9.10302 0.31793,-17.5117c-1.60404,-3.67375 -6.37973,-6.33792 -11.34599,-8.18698c-6.73003,-2.50777 -13.80897,-3.51728 -13.80897,-3.51728M276.97978,190.80045c-0.35207,1.20286 -0.95323,2.77542 -1.98169,4.72859c-2.18927,4.17718 -8.79593,7.77546 -8.79593,7.77546c0,0 1.12243,-4.16822 0.59584,-9.86545M199.90687,178.86018c-0.66015,1.2866 -1.15997,2.66167 -1.4261,4.10865c-1.6726,9.02193 1.79008,18.85219 1.79008,18.85219c0,0 -6.10564,-3.69272 -8.90887,-9.35915c-2.485,-5.02913 -2.5125,-7.90546 -2.5125,-7.90546M284.01516,182.12406c-2.8095,7.87966 -6.93362,12.4651 -6.93362,12.4651c0,0 0.71018,-7.94887 -2.97234,-16.3583c-0.16611,-0.38022 -0.35281,-0.74923 -0.54998,-1.10722M240.23012,159.57952c0,0 1.20176,0.29268 4.40623,2.73925c3.20457,2.44657 4.42007,5.16197 4.42007,5.16197c0,0 -9.36155,-2.26446 -14.55456,-4.01442c-5.18765,-1.75187 -22.66252,-6.13327 -22.66252,-6.13327M211.49681,197.51337c2.60471,3.91468 5.27476,6.01908 5.27476,6.01908c0,0 -6.1385,2.03741 -11.87943,-1.11426c-5.09712,-2.80081 -5.77826,-5.18224 -5.77826,-5.18224M266.69905,199.19483c-6.55425,5.25677 -14.57978,7.93023 -24.39086,8.73348c-11.69694,0.95757 -20.29196,-0.58042 -27.66656,-3.30291M214.42309,204.10571c0.2727,2.53191 1.1147,3.83046 1.76667,4.41151c1.21041,1.08217 3.50095,1.29885 3.50095,1.29885c0,0 -6.96742,1.11867 -10.87911,-4.1977c-0.4157,-0.56512 -0.83542,-1.15096 -1.23523,-1.77591M240.91216,159.8665c0,0 25.57236,2.59617 25.85366,16.51913" fill="#be1e2d"/><path d="M271.88734,182.30518c-0.7491,10.03238 -12.04888,20.71191 -28.87444,22.03696c-14.85404,1.17799 -36.96676,-5.0654 -40.40452,-17.31556c-0.34184,-1.23125 -0.53426,-2.4231 -0.60335,-3.57064l0.3279,0.22932c1.16206,1.62966 2.43808,2.79602 3.67196,3.83721c4.67025,3.95037 10.23897,0.85565 10.23897,0.85565c0,0 -1.9815,0.46052 -3.27932,-0.2201c-1.26231,-0.66604 -3.63493,-3.38056 -4.22326,-12.3117c-0.66497,-10.09573 6.17824,-17.49587 6.17824,-17.49587l0.0196,-0.23274c5.26041,1.34341 15.74128,4.05805 19.56093,5.34866c5.19303,1.75086 14.55456,4.01442 14.55456,4.01442c0,0 -1.2155,-2.7154 -4.42007,-5.16197c-1.60404,-1.22365 -2.7047,-1.90825 -3.4039,-2.28761l0.65012,0.08859c0,0 19.72682,2.50983 23.50521,11.16397c3.67432,8.40959 -0.31703,17.51168 -0.31703,17.51168c0,0 4.24774,-1.63004 6.67745,-6.51531z" fill="#e6e7e8"/></g><path d="M228.12637,178.50618v0v0v0v0v0c0.72141,0.18617 1.15314,0.92119 0.96508,1.64264c-0.18613,0.72321 -0.91756,1.15487 -1.64429,0.97241c-0.04165,-0.01176 -4.2527,-1.06571 -8.32295,0.21047c-0.12525,0.03854 -0.25004,0.05996 -0.37511,0.06249c-0.58498,0.01182 -1.13285,-0.36249 -1.31661,-0.9476c-0.10873,-0.34177 -0.06548,-0.69652 0.08338,-0.99669c-0.25742,-0.21634 -0.50256,-0.49765 -0.67619,-0.88862c-0.2036,-0.45328 -0.00013,-0.9868 0.45496,-1.18963c0.45081,-0.19725 0.98594,-0.00282 1.19062,0.45414c0.16219,0.3641 0.61252,0.46032 0.61796,0.46201c0.13297,0.02702 0.25029,0.08586 0.35176,0.16303c0.13271,-0.03059 0.2662,-0.06209 0.39712,-0.08724c-0.14279,-0.20596 -0.27619,-0.43741 -0.3595,-0.72389c-0.1375,-0.47892 0.13883,-0.9753 0.61773,-1.11371c0.48241,-0.14297 0.97714,0.14059 1.11371,0.61773c0.10943,0.38137 0.53145,0.54658 0.53508,0.5483c0.19671,0.06274 0.34341,0.1948 0.45202,0.35284c3.22091,-0.21541 5.77034,0.42373 5.91523,0.46131z" data-paper-data="{&quot;index&quot;:null}" fill="#231f20" stroke="none" stroke-width="0.90024" stroke-linecap="butt" stroke-linejoin="miter"/><path d="M260.3126,176.74656v0v0v0v0v0c-0.14225,0.80604 -0.61406,1.29547 -1.00154,1.59236c0.10499,0.25093 0.162,0.52804 0.09746,0.8138c-0.16446,0.72637 -0.87099,1.18734 -1.6145,1.02132c-2.81769,-0.63461 -6.45273,-0.81232 -7.16766,-0.05412c-0.25825,0.27257 -0.60115,0.41463 -0.95128,0.4217c-0.34473,0.00696 -0.6885,-0.11672 -0.9575,-0.37143c-0.54154,-0.51137 -0.566,-1.36535 -0.05297,-1.90882c1.38146,-1.4613 4.3587,-1.48455 6.74664,-1.21953c0.11406,-0.10222 0.29439,-0.31021 0.30668,-0.59322c0.01531,-0.49461 0.39487,-0.91656 0.92699,-0.8714c0.49641,0.01518 0.88564,0.4287 0.8714,0.92689c-0.01167,0.3136 -0.0837,0.57981 -0.17511,0.82291c0.11837,0.02191 0.23128,0.04124 0.33715,0.0635c0.09067,-0.14596 0.20508,-0.2752 0.37286,-0.3524c0.0249,-0.01491 0.41962,-0.22102 0.48922,-0.60781c0.08914,-0.4889 0.54798,-0.82324 1.04421,-0.72794c0.4889,0.08914 0.81435,0.55356 0.72794,1.04421z" data-paper-data="{&quot;index&quot;:null}" fill="#231f20" stroke="none" stroke-width="0.90024" stroke-linecap="butt" stroke-linejoin="miter"/><g data-paper-data="{&quot;index&quot;:null}" stroke-linejoin="miter"><path d="M194.47191,168.7461c0.11019,12.97822 -1.46167,23.51325 -6.80022,23.55858c-5.33856,0.04533 -13.42217,-10.40773 -13.53237,-23.38595c-0.11019,-12.97822 7.79478,-23.56703 13.13334,-23.61235c5.33856,-0.04533 7.08907,10.4615 7.19926,23.43972z" fill="url(#color-1)" stroke="#000000" stroke-width="0.90024" stroke-linecap="butt"/><path d="M182.42974,151.05427l-2.07584,2.86547" fill="none" stroke="#ea42a4" stroke-width="2" stroke-linecap="round"/><path d="M187.14876,158.54898l3.37616,-0.4019" fill="none" stroke="#ea42a4" stroke-width="2" stroke-linecap="round"/><path d="M182.7985,164.30356l-0.38302,1.85831" fill="none" stroke="#ea42a4" stroke-width="2" stroke-linecap="round"/><path d="M180.95433,174.19088l1.67388,2.21768" fill="none" stroke="#ea42a4" stroke-width="2" stroke-linecap="round"/><path d="M190.7896,180.67372l1.58878,-0.18913" fill="none" stroke="#ea42a4" stroke-width="2" stroke-linecap="round"/><path d="M185.33284,188.97697l-1.83467,-0.18443" fill="none" stroke="#ea42a4" stroke-width="2" stroke-linecap="round"/><path d="M179.52627,180.80607l-1.30033,-2.46357" fill="none" stroke="#ea42a4" stroke-width="2" stroke-linecap="round"/><path d="M177.6633,168.54029l-1.428,-1.84413" fill="none" stroke="#ea42a4" stroke-width="2" stroke-linecap="round"/><path d="M177.72956,157.25332l0.18913,1.58878" fill="none" stroke="#ea42a4" stroke-width="2" stroke-linecap="round"/><path d="M187.80606,152.22696l2.44939,-3.11135" fill="none" stroke="#ea42a4" stroke-width="2" stroke-linecap="round"/></g><g data-paper-data="{&quot;index&quot;:null}" stroke-linejoin="miter"><path d="M286.3613,141.65863c5.33715,0.13082 13.07153,10.84483 12.75355,23.81963c-0.31799,12.9748 -8.56796,23.29707 -13.90512,23.16626c-5.33715,-0.13082 -6.74012,-10.68966 -6.42211,-23.66445c0.31799,-12.9748 2.23653,-23.45224 7.57368,-23.32143z" fill="url(#color-2)" stroke="#000000" stroke-width="0.90025" stroke-linecap="butt"/><path d="M291.11155,147.48334l2.02968,2.89834" fill="none" stroke="#ea42a4" stroke-width="2" stroke-linecap="round"/><path d="M286.27313,154.90154l-3.3693,-0.45591" fill="none" stroke="#ea42a4" stroke-width="2" stroke-linecap="round"/><path d="M290.88389,162.58922l-0.35321,-1.86419" fill="none" stroke="#ea42a4" stroke-width="2" stroke-linecap="round"/><path d="M290.50711,172.83121l1.70919,-2.19059" fill="none" stroke="#ea42a4" stroke-width="2" stroke-linecap="round"/><path d="M282.27846,176.96513l-1.58555,-0.21456" fill="none" stroke="#ea42a4" stroke-width="2" stroke-linecap="round"/><path d="M287.60154,185.3547l1.83738,-0.15502" fill="none" stroke="#ea42a4" stroke-width="2" stroke-linecap="round"/><path d="M294.87783,174.83539l-1.33961,2.44243" fill="none" stroke="#ea42a4" stroke-width="2" stroke-linecap="round"/><path d="M295.59737,165.04345l1.45734,-1.82103" fill="none" stroke="#ea42a4" stroke-width="2" stroke-linecap="round"/><path d="M295.71187,153.75686l-0.21456,1.58556" fill="none" stroke="#ea42a4" stroke-width="2" stroke-linecap="round"/><path d="M283.31789,145.41961l2.39925,3.15018" fill="none" stroke="#ea42a4" stroke-width="2" stroke-linecap="round"/></g><path d="M232.20531,187.22213c0,0 1.1537,-1.27554 5.91486,-1.48301c4.76021,-0.20361 8.38418,0.37273 8.38418,0.37273c0,0 0.22125,8.76932 -6.23614,9.00832c-6.4628,0.24076 -8.0629,-7.89803 -8.0629,-7.89803z" fill="#58595b" stroke="#231f20" stroke-width="0.9025" stroke-linecap="round" stroke-linejoin="miter"/><g stroke-linejoin="miter"><g stroke-linecap="butt"><g stroke="#000000" stroke-width="1"><path d="M251.56208,213.14454h55.67854v24.113h-55.67854z" fill="url(#color-3)"/><path d="M256.50129,208.72383h55.67854l-4.93922,4.42072h-55.67855z" fill="#9966ff"/><path d="M307.4912,213.1176l4.71472,-4.21977l-0.67354,24.51489l-4.49021,3.91836z" fill="url(#color-4)"/></g><path d="M304.73978,213.99646c0.44092,0 0.79835,0.15996 0.79835,0.35728c0,0.19732 -0.35743,0.35727 -0.79835,0.35727c-0.44092,0 -0.79836,-0.15995 -0.79836,-0.35727c0,-0.19732 0.35744,-0.35728 0.79836,-0.35728z" fill="#b9b9b9" stroke="none" stroke-width="0.5"/><path d="M304.38496,235.9091c0.44092,0 0.79835,0.15995 0.79835,0.35727c0,0.19732 -0.35743,0.35727 -0.79835,0.35727c-0.44092,0 -0.79836,-0.15995 -0.79836,-0.35727c0,-0.19732 0.35744,-0.35727 0.79836,-0.35727z" fill="#b9b9b9" stroke="none" stroke-width="0.5"/><path d="M253.46787,236.22667c0.44091,0 0.79835,0.15996 0.79835,0.35727c0,0.19732 -0.35744,0.35727 -0.79835,0.35727c-0.44091,0 -0.79835,-0.15995 -0.79835,-0.35727c0,-0.19732 0.35744,-0.35727 0.79835,-0.35727z" fill="#b9b9b9" stroke="none" stroke-width="0.5"/><path d="M252.93563,213.83767c0.44091,0 0.79835,0.15995 0.79835,0.35727c0,0.19732 -0.35744,0.35727 -0.79835,0.35727c-0.44091,0 -0.79835,-0.15995 -0.79835,-0.35727c0,-0.19732 0.35744,-0.35727 0.79835,-0.35727z" fill="#b9b9b9" stroke="none" stroke-width="0.5"/></g><g stroke="#000000" stroke-width="1" stroke-linecap="butt"><path d="M256.16441,225.14221c0,-5.20726 4.22132,-9.42857 9.42857,-9.42857c5.20725,0 9.42857,4.22132 9.42857,9.42857c0,5.20726 -4.22132,9.42857 -9.42857,9.42857c-5.20725,0 -9.42857,-4.22132 -9.42857,-9.42857z" fill="#8499b1"/><path d="M259.39706,225.54629c0,-3.04996 2.47248,-5.52245 5.52245,-5.52245c3.04996,0 5.52245,2.47249 5.52245,5.52245c0,3.04996 -2.47249,5.52244 -5.52245,5.52244c-3.04996,0 -5.52245,-2.47248 -5.52245,-5.52244z" fill="#92c5ff"/></g><g stroke="#000000" stroke-width="1" stroke-linecap="butt"><path d="M280.16441,225.17792c0,-5.20726 4.22132,-9.42857 9.42857,-9.42857c5.20725,0 9.42857,4.22132 9.42857,9.42857c0,5.20726 -4.22132,9.42857 -9.42857,9.42857c-5.20725,0 -9.42857,-4.22132 -9.42857,-9.42857z" fill="#8499b1"/><path d="M283.39706,225.58201c0,-3.04996 2.47249,-5.52245 5.52245,-5.52245c3.04996,0 5.52245,2.47249 5.52245,5.52245c0,3.04996 -2.47249,5.52245 -5.52245,5.52245c-3.04996,0 -5.52245,-2.47248 -5.52245,-5.52245z" fill="#92c5ff"/></g><path d="M303.73583,192.24697l-4,18.57143" fill="none" stroke="#000000" stroke-width="2" stroke-linecap="round"/></g></g></g></svg>