<svg version="1.1" xmlns="http://www.w3.org/2000/svg" xmlns:xlink="http://www.w3.org/1999/xlink" width="97.99154" height="114.59549" viewBox="0,0,97.99154,114.59549"><defs><radialGradient cx="274.73118" cy="190.43034" r="7.15945" gradientUnits="userSpaceOnUse" id="color-1"><stop offset="0" stop-color="#54606d"/><stop offset="1" stop-color="#2c3136"/></radialGradient></defs><g transform="translate(-182.97613,-123.71404)"><g data-paper-data="{&quot;isPaintingLayer&quot;:true}" stroke-miterlimit="10" stroke-dasharray="" stroke-dashoffset="0" style="mix-blend-mode: normal"><path d="M238.01799,200.83529c0.18862,0.7249 0.56555,2.0712 0.9722,3.86602c0.77225,3.40841 1.65176,8.43425 1.55257,13.89334l-0.03217,0.41342c-0.03217,0.41342 0.36671,0.7648 0.79777,0.70272c2.74187,-0.84892 8.13231,-2.26082 7.98954,3.52815c-0.08057,5.59834 -16.16184,10.50238 -18.26768,5.30963c-0.70014,-2.26109 0.47404,-3.65647 1.12281,-4.38575c0.33992,-0.4123 0.49541,-0.8889 0.55871,-1.39762c0.00431,-1.27241 -0.04923,-3.62657 -0.35049,-5.53628c-0.69151,-4.80589 -1.21045,-6.04838 -1.97172,-8.43691c-0.76127,-2.38854 -2.7427,-7.96256 1.35887,-10.46068c3.485,-2.18227 5.6917,0.49781 6.2696,2.50397z" fill="#ffab19" fill-rule="evenodd" stroke="#001026" stroke-width="1.2" stroke-linecap="round" stroke-linejoin="round"/><g fill-rule="evenodd"><path d="M224.89498,200.63154c0.77855,0.40237 2.43297,1.30771 0.09732,4.72786c-2.33565,3.42015 -9.05065,4.1243 -9.8292,4.1243c-3.01688,0.10059 -6.715,0.10059 -10.80239,-1.30771c-11.87289,-4.02371 -11.97021,-17.20135 -8.17478,-19.3138c3.69811,-2.11245 5.35253,6.03556 10.70507,10.9646c2.33565,2.21304 5.1579,3.01778 7.49355,3.52074c3.30884,0.60356 9.63456,-3.21897 10.51043,-2.716z" fill="#ffab19" stroke="#001026" stroke-width="1.2" stroke-linecap="round" stroke-linejoin="round"/><path d="M200.75991,192.48353c1.5571,2.716 4.57398,6.53853 4.57398,6.53853c0,0 -3.6008,-0.90533 -5.64449,0.80474c-1.65442,1.30771 -1.26514,3.52074 -1.07051,4.22489c-1.26514,-1.30771 -2.82225,-3.11837 -3.79543,-6.63912c-0.97319,-3.52074 0,-7.74564 1.94638,-8.34919c1.94638,-0.40237 2.43297,1.10652 3.99007,3.42015z" fill="#ffffff" stroke="none" stroke-width="1" stroke-linecap="butt" stroke-linejoin="miter"/></g><path d="M243.64973,192.02585c0.41493,0.48056 5.10068,8.64452 7.31177,7.19444c2.64356,-1.68059 6.47511,-5.19403 9.39441,-1.31741c2.9193,3.87662 -4.51404,8.29114 -7.54008,9.29279c-7.12384,1.9181 -11.54066,-4.87262 -12.43266,-6.66077c-0.89201,-1.78814 -2.46925,-4.81819 -2.04759,-7.39703c0.55006,-2.76044 3.92615,-2.8848 5.31417,-1.11203z" fill="#ffab19" fill-rule="evenodd" stroke="#001026" stroke-width="1.2" stroke-linecap="round" stroke-linejoin="round"/><path d="M222.34054,207.33311c0.22869,-2.07981 1.94662,-5.11828 5.74778,-3.60137c4.46178,1.71614 3.45648,7.5629 3.11214,10.0524c-0.34433,2.48951 0.13266,3.85493 0.26703,8.71169c0.02733,1.93473 -0.40324,4.214 -0.18316,5.46591c0.08272,0.27243 0.3481,10.64857 -7.96932,9.68456c-7.34337,-0.85111 -0.64211,-12.38339 -0.64211,-12.38339c0,0 -0.81592,-10.4519 -0.63375,-13.94747c0.09592,-1.84072 0.23865,-3.23448 0.3014,-3.98232z" data-paper-data="{&quot;index&quot;:null}" fill="#ffab19" fill-rule="evenodd" stroke="#001026" stroke-width="1.2" stroke-linecap="round" stroke-linejoin="round"/><g fill-rule="evenodd"><path d="M227.35347,207.40237c-10.62419,-4.71407 -5.58421,-10.49615 -4.81309,-15.97842c0.8346,-4.75289 2.11351,-4.40012 7.98182,-5.44519c3.26235,-0.76114 5.18345,-1.20337 7.1461,-2.09339c2.96148,-1.28811 4.09722,3.43419 4.15527,6.10633c0,0 0.02418,3.97938 -0.49102,6.23313c-0.64758,2.73775 -1.21204,4.57989 -1.98657,5.85888c0,0 -1.66408,2.74929 -3.75736,3.67766c-1.88163,0.8345 -8.23516,1.64101 -8.23516,1.64101z" fill="#ffab19" stroke="#001026" stroke-width="1.2" stroke-linecap="round" stroke-linejoin="round"/><path d="M238.49374,202.31555c0,0 -1.78218,-0.58345 -3.7602,-1.41228c-2.44626,-0.96565 -4.78749,-1.64972 -4.05679,-5.28309c0.79418,-2.90399 1.21745,-6.52264 6.31891,-5.4293c4.84983,0.97801 3.99986,4.01204 3.99986,4.01204c-0.42214,5.01975 -2.50178,8.11262 -2.50178,8.11262z" fill="#ffffff" stroke="none" stroke-width="1" stroke-linecap="butt" stroke-linejoin="miter"/></g><g fill-rule="evenodd"><path d="M245.50161,129.03476c0.27313,-0.2277 0.76653,-0.17309 0.89872,0.21852l3.46326,10.48221c0,0 6.61717,4.12517 8.74957,7.25792c3.58631,5.21823 4.07997,9.71717 4.07997,9.71717c0,0 7.06638,1.45672 8.73194,7.05756c1.66557,5.60085 -1.64665,16.82116 -19.54113,22.24109c-17.89448,5.41992 -32.97884,1.68689 -40.86516,-9.08648c-7.88632,-10.77337 1.7695,-25.41841 1.25852,-24.56229c0,0 -2.4092,-15.87631 -2.00388,-15.71242l11.54535,4.20938c0,0 4.21145,-2.11314 8.749,-2.74182c2.69609,-0.45552 5.03976,-0.47389 7.30416,-0.28279z" fill="#ffab19" stroke="#001026" stroke-width="1.2" stroke-linecap="butt" stroke-linejoin="miter"/><path d="M262.43766,157.13863c0,0 6.84609,1.1744 8.51166,6.77525c1.66557,5.60085 -2.07841,16.35671 -19.78786,21.65823c-23.01346,7.21436 -35.42872,-6.16339 -29.86973,-17.39296c5.55016,-11.32975 17.49813,-3.26148 25.58638,-4.62806c6.93405,-1.15705 7.15395,-7.54123 15.55955,-6.41246z" fill="#ffffff" stroke="none" stroke-width="1" stroke-linecap="butt" stroke-linejoin="miter"/><path d="M280.36767,156.56376c-4.22014,4.23512 -11.18946,4.99146 -11.18946,4.99146" fill="none" stroke="#001026" stroke-width="1.2" stroke-linecap="round" stroke-linejoin="round"/><path d="M280.0952,167.90229c-6.06179,1.07503 -10.00913,-0.47296 -10.00913,-0.47296" fill="none" stroke="#001026" stroke-width="1.2" stroke-linecap="round" stroke-linejoin="round"/><path d="M246.2612,160.9829c2.03529,-0.19138 4.18514,-0.19151 4.34377,0.50063c0.22036,1.3934 -0.98656,4.3351 -2.52844,4.5811c-1.7269,0.3644 -6.0179,-1.75732 -6.15897,-3.36019c-0.20272,-1.19303 2.40526,-1.53927 4.34364,-1.72153z" fill="#001026" stroke="#001026" stroke-width="1.2" stroke-linecap="round" stroke-linejoin="round"/><path d="M202.51557,163.58118c0,0 8.58186,2.02127 12.24733,4.80786" fill="none" stroke="#001026" stroke-width="1.2" stroke-linecap="round" stroke-linejoin="round"/><path d="M215.36226,171.86796c-4.01761,2.09491 -11.28658,1.66732 -11.28658,1.66732" fill="none" stroke="#001026" stroke-width="1.2" stroke-linecap="round" stroke-linejoin="round"/><g><path d="M256.66604,148.18658c3.20739,4.24376 3.75396,9.34378 1.19894,11.40218c-2.55502,2.05839 -7.19843,0.37384 -10.50273,-3.86082c-3.20739,-4.24376 -3.75396,-9.34378 -1.19894,-11.40218c2.54621,-2.15858 7.29535,-0.38297 10.50273,3.86082z" fill="#ffffff" stroke="#001026" stroke-width="1.2" stroke-linecap="round" stroke-linejoin="round"/><path d="M254.77744,153.95828c0.09699,1.10197 -0.59902,2.07648 -1.5682,2.16762c-0.96919,0.09113 -1.82388,-0.73758 -1.92087,-1.83954c-0.09699,-1.10197 0.59902,-2.07648 1.5682,-2.16762c0.96919,-0.09113 1.82388,0.73758 1.92087,1.83954" fill="#001026" stroke="none" stroke-width="1" stroke-linecap="butt" stroke-linejoin="miter"/></g><g><path d="M232.8771,153.25169c3.2955,4.13448 3.57775,9.56237 1.12847,11.71183c-3.0308,2.20414 -7.41864,1.20262 -10.71414,-2.93186c-3.39242,-4.12537 -4.0888,-9.81734 -1.27829,-12.30379c2.80169,-2.58663 7.56846,-0.61066 10.86396,3.52382z" fill="#ffffff" stroke="#001026" stroke-width="1.2" stroke-linecap="round" stroke-linejoin="round"/><path d="M231.20275,159.70196c0.09699,1.10197 -0.59902,2.07648 -1.5682,2.16762c-0.96919,0.09113 -1.82388,-0.73758 -1.92087,-1.83954c-0.09699,-1.10197 0.59902,-2.07648 1.5682,-2.16762c0.97801,0.00905 1.82388,0.73758 1.92087,1.83954" fill="#001026" stroke="none" stroke-width="1" stroke-linecap="butt" stroke-linejoin="miter"/></g></g><path d="M236.19174,170.28969c-0.07194,-0.39048 0.26149,-0.76012 0.66682,-0.73927c1.96587,0.31864 21.69373,-1.56787 23.09239,-2.14866c0.46623,-0.19359 0.94351,0.21772 0.83974,0.7442c-0.386,2.80846 -2.71717,10.85927 -12.99336,12.289c-8.99237,0.7705 -11.0149,-5.30436 -11.6056,-10.14528z" fill="#ffffff" fill-rule="evenodd" stroke="#001026" stroke-width="1.2" stroke-linecap="round" stroke-linejoin="round"/><g fill-rule="nonzero" stroke="#001026" stroke-width="1.2" stroke-linejoin="miter"><g><path d="M249.56363,200.23334l16.67071,-14.17871l6.63353,11.391l-19.0508,8.63241c0,0 -2.4372,-0.81548 -3.12404,-1.7593c-0.72852,-1.00107 -1.1294,-4.0854 -1.1294,-4.0854z" fill="#505a63" stroke-linecap="butt"/><path d="M267.00248,184.69832c3.38767,-2.10778 7.787,-0.97782 9.82617,2.5238c2.03918,3.50163 0.946,8.04897 -2.44166,10.15673c-3.38767,2.10778 -7.78702,0.97783 -9.82618,-2.52381c-2.03918,-3.50163 -0.94599,-8.04896 2.44168,-10.15674z" fill="url(#color-1)" stroke-linecap="butt"/><path d="M263.87604,191.60301c0,0 3.33207,-3.13873 5.11912,-4.27941c1.6702,-1.06608 5.27631,-2.356 5.27631,-2.356" fill="none" stroke-linecap="round"/><path d="M267.43163,197.43035c0,0 4.0638,-3.98713 5.81144,-5.32003c1.29127,-0.98481 3.726,-1.95397 3.726,-1.95397" fill="none" stroke-linecap="round"/><path d="M266.60483,184.88044c0,0 4.28024,2.44201 5.98087,4.28164c1.47954,1.60045 3.65237,6.13884 3.65237,6.13884" fill="none" stroke-linecap="round"/><path d="M263.32522,189.26585c0,0 4.53893,2.99502 6.35862,4.60256c1.41454,1.24964 3.65341,4.24233 3.65341,4.24233" fill="none" stroke-linecap="round"/></g><path d="M261.19653,204.98318c-2.25519,1.41271 -5.39453,0.82062 -7.01194,-1.32248c-1.61741,-2.1431 -1.8492,-4.81129 0.40599,-6.224c2.25519,-1.41271 6.14335,-1.03499 7.76075,1.10812c1.61741,2.1431 1.10037,5.02564 -1.15481,6.43837z" fill="#ffab19" stroke-linecap="butt"/></g><g fill-rule="nonzero" stroke="#001026" stroke-width="1.2" stroke-linecap="butt" stroke-linejoin="miter"><path d="M223.18847,147.65035c-0.95532,4.49787 -19.45955,14.46626 -19.45955,14.46626c0,0 -2.79577,0.14003 -4.1188,0.13464c-9.90849,-0.04023 -16.80717,-2.82924 -15.9644,-6.79729c0.95532,-4.49787 11.49575,-8.8074 23.54272,-9.6256c12.04697,-0.81821 16.95534,-2.6759 16.00002,1.82198z" fill="#00b0f7"/><path d="M207.90185,144.66371l-11.74148,-2.57591c0,0 13.41818,-7.80299 20.93228,-10.39992c9.08783,-3.14083 29.77674,-7.12549 29.77674,-7.12549l-11.91324,19.20657z" fill="#ff2b2b"/><path d="M201.38519,163.30733c0,0 -3.51295,-7.07445 -4.3979,-10.59113c-0.85852,-3.41168 -0.8349,-10.20353 -0.8349,-10.20353l24.95255,-6.70867c0,0 1.26943,7.62678 2.16638,11.1911c0.84412,3.35447 3.06643,9.60355 3.06643,9.60355z" data-paper-data="{&quot;index&quot;:null}" fill="#cc0000"/><path d="M225.92755,156.64135c0,0 -1.66467,-6.44807 -2.90941,-9.66653c-1.32261,-3.4198 -4.80686,-10.28491 -4.80686,-10.28491l29.31059,-12.11147c0,0 4.2647,5.31005 5.53069,8.58337c1.30494,3.37407 2.18558,11.36804 2.18558,11.36804z" fill="#f70000"/></g><g fill-rule="nonzero" stroke="#001026" stroke-width="1.2" stroke-linecap="butt" stroke-linejoin="miter"><path d="M231.63357,184.17047c-0.27883,2.59999 -1.49905,4.37759 -2.72545,3.97039c-1.22641,-0.4072 -1.99457,-2.84501 -1.71574,-5.445c0.27883,-2.59999 1.49905,-4.3776 2.72545,-3.9704c1.22641,0.4072 1.99457,2.84502 1.71574,5.44501z" data-paper-data="{&quot;index&quot;:null}" fill="#ffab19"/><path d="M226.77608,181.08444c0.06659,2.68511 -0.88039,4.70025 -2.11516,4.50095c-1.23476,-0.19931 -2.2897,-2.5376 -2.35628,-5.22271c-0.06659,-2.68511 0.88039,-4.70025 2.11516,-4.50094c1.23476,0.19931 2.2897,2.5376 2.35628,5.22271z" data-paper-data="{&quot;index&quot;:null}" fill="#ffab19"/><path d="M225.96918,182.58962c4.16979,2.14615 6.02875,7.04397 4.1521,10.93962c-1.87666,3.89564 -6.77827,5.31389 -10.94806,3.16774c-4.16979,-2.14615 -6.02875,-7.04397 -4.1521,-10.93962c1.87666,-3.89564 6.77827,-5.31389 10.94806,-3.16774z" data-paper-data="{&quot;index&quot;:null}" fill="#ffab19"/><path d="M224.98372,185.76742c2.95551,1.52116 4.21391,5.11565 2.8107,8.0285c-1.40321,2.91285 -4.93666,4.04103 -7.89218,2.51986c-2.95551,-1.52116 -4.2139,-5.11564 -2.8107,-8.02849c1.40321,-2.91285 4.93666,-4.04103 7.89218,-2.51987z" data-paper-data="{&quot;index&quot;:null}" fill="#ffffff"/><path d="M222.88333,185.01507c0.06659,1.9926 -0.88039,3.48803 -2.11516,3.34012c-1.23476,-0.14791 -2.2897,-1.88314 -2.35628,-3.87574c-0.06659,-1.9926 0.88039,-3.48802 2.11516,-3.34011c1.23476,0.14791 2.2897,1.88314 2.35628,3.87574z" data-paper-data="{&quot;index&quot;:null}" fill="#ffab19"/><path d="M218.99058,186.77545c0.06659,1.9926 -0.88039,3.48803 -2.11516,3.34012c-1.23476,-0.14791 -2.2897,-1.88315 -2.35628,-3.87575c-0.06659,-1.9926 0.88039,-3.48802 2.11516,-3.34011c1.23476,0.14791 2.2897,1.88314 2.35628,3.87574z" data-paper-data="{&quot;index&quot;:null}" fill="#ffab19"/></g></g></g></svg>