<svg version="1.1" xmlns="http://www.w3.org/2000/svg" xmlns:xlink="http://www.w3.org/1999/xlink" width="102.67968" height="114.9488" viewBox="0,0,102.67968,114.9488"><defs><radialGradient cx="281.07188" cy="180.18921" r="7.3567" gradientUnits="userSpaceOnUse" id="color-1"><stop offset="0" stop-color="#54606d"/><stop offset="1" stop-color="#2c3136"/></radialGradient></defs><g transform="translate(-182.18533,-122.59608)"><g data-paper-data="{&quot;isPaintingLayer&quot;:true}" stroke-miterlimit="10" stroke-dasharray="" stroke-dashoffset="0" style="mix-blend-mode: normal"><path d="M246.57212,202.02332c-0.01752,0.74603 -0.02381,2.13931 -0.12668,3.96894c-0.19534,3.47451 -0.7389,8.52265 -2.36882,13.70004l-0.14775,0.38493c-0.14775,0.38493 0.14683,0.83574 0.58917,0.9016c2.94105,-0.01419 8.65093,0.20308 6.8855,5.68244c-1.65064,5.31558 -18.8791,5.32727 -19.49755,-0.23578c-0.05558,-2.35944 1.49349,-3.34953 2.3377,-3.85683c0.4508,-0.29458 0.73783,-0.70398 0.94301,-1.1708c0.36136,-1.2122 0.96929,-3.47282 1.2083,-5.38145c0.66716,-4.78383 0.50431,-6.11928 0.42425,-8.61801c-0.08006,-2.49872 -0.46887,-8.38928 4.27537,-9.58181c4.0478,-1.07017 5.47088,2.12591 5.47751,4.20676z" fill="#ffab19" fill-rule="evenodd" stroke="#001026" stroke-width="1.2" stroke-linecap="round" stroke-linejoin="round"/><path d="M231.84612,202.71649c4.07922,0.94337 6.35015,5.56665 5.38455,7.40991c-0.36378,0.65157 -0.81304,12.37085 -4.67153,16.18843l-0.31037,0.27142c-0.31036,0.27143 -0.26032,0.80761 0.10011,1.07238c2.60749,1.36052 7.55549,4.21839 3.43617,8.23973c-3.94134,3.9301 -19.18246,-4.10285 -17.13221,-9.31115c1.05238,-2.11246 2.88451,-2.26485 3.8679,-2.31932c0.53618,-0.05006 0.98116,-0.27809 1.38053,-0.59513c0.88549,-0.90328 2.47849,-2.6186 3.58093,-4.19489c2.82336,-3.91901 -0.38827,-17.92168 4.36396,-16.76137z" data-paper-data="{&quot;index&quot;:null}" fill="#ffab19" fill-rule="evenodd" stroke="#001026" stroke-width="1.2" stroke-linecap="round" stroke-linejoin="round"/><g fill-rule="evenodd"><path d="M232.76084,201.54509c0.54377,0.71014 1.67739,2.26415 -1.96992,4.26842c-3.64731,2.00428 -10.15616,-0.39049 -10.87524,-0.74109c-2.83026,-1.26871 -6.2459,-2.93407 -9.40751,-6.03313c-9.21296,-8.94212 -3.5617,-20.76089 0.86415,-20.93927c4.33597,-0.22222 2.31415,7.80351 5.11037,14.61828c1.19307,3.02929 3.44914,5.01931 5.38726,6.52054c2.79314,2.02937 10.30104,1.4624 10.89087,2.30626z" fill="#ffab19" stroke="#001026" stroke-width="1.2" stroke-linecap="round" stroke-linejoin="round"/><path d="M214.01922,183.39569c0.25487,3.1281 1.37594,7.90233 1.37594,7.90233c0,0 -2.93131,-2.4305 -5.56393,-1.82279c-2.09777,0.42347 -2.70241,2.57624 -2.82941,3.2931c-0.59877,-1.73823 -1.24807,-4.05738 -0.61303,-7.64161c0.63505,-3.58423 3.37456,-6.92116 5.43521,-6.58395c1.973,0.51696 1.76504,2.08437 2.19523,4.85294z" fill="#ffffff" stroke="none" stroke-width="1" stroke-linecap="butt" stroke-linejoin="miter"/></g><path d="M248.23194,186.6192c0.58145,0.26819 8.23226,5.79223 9.74136,3.56454c1.82533,-2.61499 4.04393,-7.3876 8.33118,-5.0489c4.28725,2.33869 -0.9686,9.40807 -3.42341,11.56073c-5.9534,4.66658 -12.80661,0.28439 -14.35578,-0.98054c-1.54919,-1.26493 -4.23622,-3.38148 -4.86073,-5.90536c-0.57547,-2.74205 2.55686,-4.23822 4.56738,-3.19046z" fill="#ffab19" fill-rule="evenodd" stroke="#001026" stroke-width="1.2" stroke-linecap="round" stroke-linejoin="round"/><g fill-rule="evenodd"><path d="M234.52808,207.6643c-11.52407,-2.88717 -7.32715,-9.38686 -7.41318,-14.89344c0.09387,-4.80117 1.44711,-4.66432 7.23455,-6.65065c3.18886,-1.28107 5.06763,-2.02957 6.91764,-3.22436c2.8002,-1.74899 4.70023,2.69961 5.18234,5.31257c0,0 0.65479,3.90145 0.4891,6.19764c-0.22332,2.79287 -0.50416,4.69318 -1.0873,6.07519c0,0 -1.25266,2.97061 -3.2291,4.2244c-1.7766,1.12702 -8.09405,2.95866 -8.09405,2.95866z" fill="#ffab19" stroke="#001026" stroke-width="1.2" stroke-linecap="round" stroke-linejoin="round"/><path d="M245.0234,200.8483c0,0 -1.90029,-0.28084 -4.03813,-0.77046c-2.6345,-0.54722 -5.11784,-0.8353 -4.95205,-4.52075c0.3457,-2.98002 0.20195,-6.6007 5.55018,-6.36283c5.0747,0.16587 4.69299,3.28264 4.69299,3.28264c0.3668,4.99554 -1.253,8.37138 -1.253,8.37138z" fill="#ffffff" stroke="none" stroke-width="1" stroke-linecap="butt" stroke-linejoin="miter"/></g><g fill-rule="evenodd"><path d="M244.82728,128.0257c0.26764,-0.24161 0.77687,-0.21558 0.93413,0.16556l4.1324,10.20653c0,0 7.01692,3.71658 9.37779,6.70427c3.96776,4.97463 4.72284,9.41195 4.72284,9.41195c0,0 7.33033,1.0423 9.34862,6.50641c2.01831,5.46411 -0.75992,16.79025 -18.81948,23.19196c-18.05957,6.40171 -33.74182,3.55797 -42.42819,-6.68493c-8.68637,-10.2429 0.4109,-25.33063 -0.06604,-24.45171c0,0 -3.34901,-15.62077 -2.92413,-15.48124l12.07769,3.51869c0,0 4.20402,-2.33798 8.82463,-3.22116c2.74092,-0.60613 5.14442,-0.75822 7.47816,-0.69786z" fill="#ffab19" stroke="#001026" stroke-width="1.2" stroke-linecap="butt" stroke-linejoin="miter"/><path d="M263.75596,154.95348c0,0 7.08872,0.77466 9.10701,6.23877c2.01831,5.46411 -1.22855,16.35392 -19.10483,22.62754c-23.2123,8.47519 -36.68908,-4.09407 -31.60629,-15.55771c5.06822,-11.56257 17.77219,-4.23666 25.99492,-6.05507c7.05014,-1.5445 6.92298,-7.89382 15.60918,-7.25352z" fill="#ffffff" stroke="none" stroke-width="1" stroke-linecap="butt" stroke-linejoin="miter"/><path d="M282.11969,153.35879c-4.09569,4.4447 -11.20416,5.59347 -11.20416,5.59347" fill="none" stroke="#001026" stroke-width="1.2" stroke-linecap="round" stroke-linejoin="round"/><path d="M282.46668,164.62865c-6.15977,1.41326 -10.29512,0.10224 -10.29512,0.10224" fill="none" stroke="#001026" stroke-width="1.2" stroke-linecap="round" stroke-linejoin="round"/><path d="M247.37194,159.69311c2.07755,-0.3062 4.28321,-0.42912 4.48421,0.24881c0.30307,1.37046 -0.77263,4.35924 -2.34095,4.69148c-1.75161,0.46032 -6.27124,-1.40055 -6.50455,-2.98345c-0.2739,-1.17259 2.38265,-1.66521 4.36129,-1.95684z" fill="#001026" stroke="#001026" stroke-width="1.2" stroke-linecap="round" stroke-linejoin="round"/><path d="M202.63416,164.77065c0,0 8.91636,1.51609 12.83096,4.07263" fill="none" stroke="#001026" stroke-width="1.2" stroke-linecap="round" stroke-linejoin="round"/><path d="M216.27227,172.26214c-4.00616,2.30882 -11.48747,2.29958 -11.48747,2.29958" fill="none" stroke="#001026" stroke-width="1.2" stroke-linecap="round" stroke-linejoin="round"/><g><path d="M257.33984,146.39758c3.52516,4.02905 4.36773,9.05996 1.86011,11.249c-2.50761,2.18903 -7.36465,0.78221 -10.98875,-3.23227c-3.52516,-4.02905 -4.36773,-9.05996 -1.86011,-11.249c2.49303,-2.28797 7.46358,-0.7968 10.98875,3.23227z" fill="#ffffff" stroke="#001026" stroke-width="1.2" stroke-linecap="round" stroke-linejoin="round"/><path d="M254.07985,153.23451c0.1604,1.08825 -0.49983,2.09527 -1.48915,2.24109c-0.98932,0.14581 -1.91199,-0.62793 -2.07239,-1.71616c-0.1604,-1.08825 0.49983,-2.09527 1.48915,-2.24109c0.98932,-0.14581 1.91199,0.62793 2.07239,1.71616" fill="#001026" stroke="none" stroke-width="1" stroke-linecap="butt" stroke-linejoin="miter"/></g><g><path d="M233.21316,152.78378c3.60951,3.91554 4.19903,9.28699 1.80492,11.56037c-2.98769,2.36087 -7.54479,1.61741 -11.15431,-2.29813c-3.70844,-3.90096 -4.73743,-9.51088 -1.99134,-12.13937c2.7315,-2.72744 7.73121,-1.0384 11.34072,2.87714z" fill="#ffffff" stroke="#001026" stroke-width="1.2" stroke-linecap="round" stroke-linejoin="round"/><path d="M230.03569,160.00704c0.1604,1.08825 -0.49983,2.09527 -1.48915,2.24109c-0.98932,0.14581 -1.91199,-0.62793 -2.07239,-1.71616c-0.1604,-1.08825 0.49983,-2.09527 1.48915,-2.24109c1.0039,-0.04688 1.91199,0.62793 2.07239,1.71616" fill="#001026" stroke="none" stroke-width="1" stroke-linecap="butt" stroke-linejoin="miter"/></g></g><g fill-rule="nonzero" stroke="#001026" stroke-width="1.2" stroke-linejoin="miter"><g><path d="M254.9123,189.10178l17.57234,-13.53971l6.45037,11.53624l-19.84029,7.95063c0,0 -2.47712,-0.89043 -3.15249,-1.85077c-0.71635,-1.01861 -1.02995,-4.09639 -1.02995,-4.09639z" fill="#505a63" stroke-linecap="butt"/><path d="M273.31668,174.2397c3.54628,-1.98288 8.02856,-0.71548 10.01142,2.8308c1.98288,3.54628 0.71547,8.02855 -2.8308,10.01142c-3.54628,1.98288 -8.02857,0.71548 -10.01143,-2.8308c-1.98288,-3.54628 -0.71546,-8.02856 2.83082,-10.01143z" fill="url(#color-1)" stroke-linecap="butt"/><path d="M269.88606,180.99738c0,0 3.52198,-3.00906 5.39362,-4.08368c1.74925,-1.00432 5.49385,-2.1674 5.49385,-2.1674" fill="none" stroke-linecap="round"/><path d="M273.35235,186.90434c0,0 4.30047,-3.82797 6.13774,-5.09486c1.35751,-0.93605 3.88885,-1.81893 3.88885,-1.81893" fill="none" stroke-linecap="round"/><path d="M272.90249,174.40759c0,0 4.31821,2.56714 6.00628,4.45092c1.46861,1.63887 3.55575,6.21966 3.55575,6.21966" fill="none" stroke-linecap="round"/><path d="M269.39473,178.65706c0,0 4.5663,3.1251 6.38401,4.78221c1.413,1.28816 3.61716,4.33532 3.61716,4.33532" fill="none" stroke-linecap="round"/></g><path d="M266.70845,194.20377c-2.36108,1.3295 -5.56641,0.63796 -7.15935,-1.54462c-1.59293,-2.18257 -1.7461,-4.8413 0.61499,-6.17082c2.36108,-1.3295 6.3423,-0.82632 7.93523,1.35625c1.59293,2.18257 0.97021,5.02966 -1.39086,6.35917z" fill="#ffab19" stroke-linecap="butt"/></g><g fill-rule="nonzero" stroke="#001026" stroke-width="1.2" stroke-linecap="butt" stroke-linejoin="miter"><path d="M222.96349,147.77743c-0.73158,4.51903 -19.1654,15.47023 -19.1654,15.47023c0,0 -2.86062,0.29866 -4.2183,0.3689c-10.16796,0.526 -17.39986,-1.84827 -16.75446,-5.83497c0.73158,-4.51903 11.30755,-9.39856 23.62205,-10.89875c12.31452,-1.5002 17.24767,-3.62443 16.51609,0.89459z" fill="#00b0f7"/><path d="M207.11495,145.68607l-12.18864,-1.88614c0,0 13.33537,-8.51141 20.90106,-11.51822c9.15022,-3.63655 30.15607,-8.77329 30.15607,-8.77329l-11.16124,19.74431z" fill="#ff2b2b"/><path d="M201.4593,164.56341c0,0 -3.99506,-6.82125 -5.09731,-10.26126c-1.06932,-3.3373 -1.42039,-10.08004 -1.42039,-10.08004l25.22967,-8.08402c0,0 1.72382,7.49761 2.84099,10.98423c1.0514,3.28134 3.6767,9.35707 3.6767,9.35707z" data-paper-data="{&quot;index&quot;:null}" fill="#cc0000"/><path d="M226.27049,156.54519c0,0 -2.06419,-6.30509 -3.51909,-9.42854c-1.54592,-3.31885 -5.49997,-9.93396 -5.49997,-9.93396l29.4023,-13.69559c0,0 4.66884,5.02701 6.14856,8.20373c1.52525,3.27447 2.87048,11.15876 2.87048,11.15876z" fill="#f70000"/></g><path d="M230.00669,199.40221c0.11062,4.13305 2.49712,7.67346 1.37488,9.95092c-0.73242,1.48635 -2.10799,2.6425 -3.132,2.66992c-1.14132,0.03055 -3.13919,-1.24466 -4.00064,-3.00645c-1.09574,-2.24091 -3.5301,-5.53903 -3.63246,-9.36306c-0.09029,-3.37323 2.23993,-7.06383 3.01152,-9.31732c0.79078,-2.30958 2.64706,-3.01325 3.95951,-3.04838c1.41696,-0.03792 2.94011,0.81034 3.87095,3.40165c0.77261,2.15081 -1.53468,5.61475 -1.45176,8.71273z" fill="#ffab19" fill-rule="nonzero" stroke="#001026" stroke-width="1.2" stroke-linecap="butt" stroke-linejoin="miter"/><path d="M237.66916,175.13875c0.05106,-1.74816 3.26243,-3.07272 7.17278,-2.95848c3.91036,0.11423 7.03891,1.62399 6.98785,3.37215c-0.05107,1.74814 -3.2235,1.73995 -7.13385,1.62572c-3.91035,-0.11423 -7.07785,-0.29124 -7.02677,-2.03939z" data-paper-data="{&quot;index&quot;:null}" fill="#ffffff" fill-rule="nonzero" stroke="#001026" stroke-width="1.2" stroke-linecap="butt" stroke-linejoin="miter"/></g></g></svg>