<svg version="1.1" xmlns="http://www.w3.org/2000/svg" xmlns:xlink="http://www.w3.org/1999/xlink" width="73.0225" height="188.80938" viewBox="0,0,73.0225,188.80938"><g transform="translate(-193.67176,-48.41826)"><g data-paper-data="{&quot;isPaintingLayer&quot;:true}" fill-rule="nonzero" stroke="none" stroke-linecap="butt" stroke-linejoin="miter" stroke-miterlimit="10" stroke-dasharray="" stroke-dashoffset="0" style="mix-blend-mode: normal"><path d="M231.21373,221.65588l2.65413,-40.45334l10.59922,-10.74666l8.78942,19.09185l6.44351,25.5356l-10.69654,2.55255l-5.98276,-21.08884l0.80318,25.57622z" fill="#414ca9" stroke-width="0"/><path d="M219.2702,237.22764l4.48549,-11.77098l19.91373,-4.83058l7.51764,12.54275z" fill="#e9caf8" stroke-width="0"/><path d="M199.3722,159.49514l0.59922,-21.03058l8.36743,8.22461l-4.57067,-13.98974l4.66823,-6.69644l12.02362,32.98391l-7.31686,16.31373z" fill="#e9caf8" stroke-width="0"/><path d="M247.24353,229.54137l1.19844,-12.14353l10.4,-2.74353l6.6298,11.20078z" fill="#e9caf8" stroke-width="0"/><path d="M229.60981,164.71157l8.03136,-23.51373l5.85277,-12.11152l3.23987,3.31636l10.05167,13.39751l-9.54927,5.27157l-0.8264,16.12531l-4.85491,9.77489l-11.35156,5.12035l-16.61113,-11.38191l4.98554,-10.99626z" fill="#8f21c6" stroke-width="0"/><path d="M209.67489,126.56804l-16.00313,-78.14978l70.73884,16.66351l-3.82745,62.4z" fill="#3d2747" stroke-width="0"/><path d="M207.18848,100.1088c0.67082,-0.33541 1.00624,0.33541 1.00624,0.33541l0.10159,0.23024c0.38365,0.51502 0.75096,1.0516 1.10388,1.60442c1.15577,0.03491 2.41358,0.1668 3.52081,0.00182c3.03742,-0.45258 3.96752,-2.34652 6.95888,-0.29743c3.00643,0.57801 4.71378,-2.90206 6.66113,-4.5502c1.98307,-1.67837 3.88883,0.37679 5.6601,0.18309c0.99353,-0.10865 2.05707,-1.3904 2.9119,-1.8144c2.03183,-1.0078 4.07869,-0.18307 5.18835,-2.4265l0.13172,-0.41901c0,0 0.23718,-0.71151 0.94869,-0.47434c0.71151,0.23717 0.47434,0.94868 0.47434,0.94868l-0.21311,0.61548c-1.4143,2.80321 -3.48915,1.90093 -5.84614,3.09073c-0.72107,0.364 -1.35123,0.94961 -2.05017,1.39118c0.10438,0.10549 0.17768,0.24179 0.20502,0.39405l0.16969,0.84844l-0.2039,0.04078c0.60443,2.41465 0.21847,5.23879 0.21847,7.69251c0,5.73522 0.04749,11.14243 -0.88419,16.73252c-0.14296,0.42635 -0.32063,0.89934 -0.53293,1.37917c3.43052,-0.16394 6.84269,-0.58376 10.11364,-1.65313l-0.67875,0.13895c0,0 -0.73544,0.14709 -0.88252,-0.58834c-0.14709,-0.73543 0.58835,-0.88253 0.58835,-0.88253l0.93525,-0.18333c2.05307,-0.00585 4.73305,0.40793 6.61204,-0.60212c1.27361,-0.68462 2.51108,-2.71541 3.42529,-3.81245c1.25615,-1.25351 2.93904,-1.69314 4.20388,-2.82249c1.19545,-1.0674 1.45557,-2.79181 2.03634,-4.20014c0.76153,-1.84668 2.1431,-3.01672 2.53707,-5.16672c0.4516,-2.46455 -0.42485,-5.02342 0.22156,-7.5919c1.90647,-3.22851 4.00155,-6.70513 3.17339,-10.58176c-0.85546,-4.0044 -4.94038,-6.5888 -5.98741,-10.55066c-0.30552,-1.15605 -0.1746,-2.50575 -0.17181,-3.69446c-0.48939,-3.07559 -0.95031,-6.46992 -3.34847,-8.78885c-1.96992,-1.90485 -5.80959,-1.25987 -8.18917,-1.93942c-2.51505,-0.71823 -5.16885,-2.05689 -7.63174,-2.99566c-5.19853,-1.73763 -12.37124,-5.21163 -17.97088,-3.19597c-3.47788,1.25191 -4.81037,5.95863 -8.14221,6.7282c-3.26003,0.93141 -8.08262,1.2473 -10.23684,4.33396c-0.70378,1.0084 -0.51901,2.95003 -0.95977,4.16063c-1.09504,3.00769 -2.55752,5.86397 -3.45353,8.97944c-0.90555,1.82558 -0.52419,3.3271 -0.34673,5.32038c0.43622,4.89966 2.68437,9.84217 7.40311,11.34294c0.12347,-0.23909 0.24663,-0.47831 0.36692,-0.7189c0,0 0.33541,-0.67082 1.00623,-0.33541c0.67082,0.33541 0.33541,1.00623 0.33541,1.00623c-0.04529,0.09058 -0.15239,0.27483 -0.29262,0.52031c0.14124,0.13317 0.2502,0.34381 0.18483,0.67068c-0.13545,0.67723 -0.76979,0.6061 -0.86936,0.5906c-0.57578,1.14386 -1.08869,2.46769 -0.55429,2.85851c0.28278,0.20681 0.87363,0.28162 1.45376,0.30604c-0.16443,-0.23565 -0.33219,-0.46704 -0.50348,-0.69362l-0.24323,-0.45941c0,0 -0.33541,-0.67082 0.33541,-1.00623zM213.70662,110.77857c1.71302,2.92554 0.8784,6.5421 2.25663,9.51384c1.31211,2.82917 5.29232,4.64279 8.65315,5.22405c-0.03904,-0.05473 -0.077,-0.10784 -0.11379,-0.15907c-3.2124,-4.47334 -3.34125,-10.1332 -5.41454,-15.1195c-0.0933,-0.34801 -0.17215,-0.69704 -0.24428,-1.04704c-0.9158,0.17251 -1.82047,0.26639 -2.69922,0.26981c0,0 -0.75,0 -0.75,-0.75c0,-0.75 0.75,-0.75 0.75,-0.75c0.78313,0.00362 1.59376,-0.07628 2.41794,-0.22845c-0.01638,-0.08454 -0.03298,-0.16913 -0.04992,-0.25377l-0.1078,-0.15651c0,0 -0.33541,-0.67082 0.33541,-1.00623c0.67082,-0.33541 1.00623,0.33541 1.00623,0.33541l0.23703,0.53315c0.01385,0.06925 0.02739,0.13852 0.04073,0.20778c4.66878,-1.30291 9.50501,-4.65741 12.07211,-8.0969l0.14049,-0.18731c-0.02642,0.00293 -0.053,0.00548 -0.07976,0.00767c-1.34346,0.10986 -3.25906,-1.86878 -4.68473,-0.50656c-2.43482,2.32646 -4.33673,5.54201 -8.16646,4.76014c-0.58659,-0.38244 -1.06414,-1.01905 -1.74944,-1.16297c-0.76841,-0.16137 -2.53138,0.94735 -3.24362,1.18158c-1.00223,0.32959 -2.42726,0.5798 -3.87623,0.6265c1.23225,2.19631 2.287,4.54736 3.27006,6.76438zM245.04382,124.75184c-4.22026,1.6727 -8.66165,2.21704 -13.13244,2.38985c-1.1072,1.7303 -2.72868,2.92316 -4.85899,1.29014c-0.39118,-0.29986 -0.80739,-0.758 -1.20619,-1.25404c-4.08878,-0.32256 -9.52474,-2.51557 -11.24442,-6.25579c-1.35895,-2.95566 -0.47719,-6.6203 -2.22612,-9.45167c-1.0932,-2.45427 -2.26256,-5.11491 -3.687,-7.50801c-2.80477,-0.27747 -5.05857,-1.5698 -3.57308,-4.86925c0.05578,-0.12388 0.11302,-0.24706 0.17142,-0.3697c-5.15733,-1.77157 -7.71143,-7.11565 -8.21505,-12.56065c-0.20302,-2.1951 -0.58229,-3.96784 0.44262,-5.99981c0.88153,-3.10685 2.35468,-5.95445 3.44302,-8.95159c0.5125,-1.41136 0.27487,-3.21187 1.1092,-4.46005c2.34893,-3.51403 7.48567,-3.93155 11.14247,-4.97639c1.25067,-0.19134 1.66114,-1.23264 2.40827,-2.17325c1.44897,-1.8242 3.32891,-3.70412 5.58107,-4.50915c6.00957,-2.14812 13.38327,1.32359 18.98211,3.19549c2.41742,0.92085 5.02142,2.24726 7.48423,2.95133c2.67659,0.76519 6.53121,0.12694 8.78272,2.23619c2.74808,2.57444 3.34997,6.35002 3.89291,9.83183c0.00225,1.07594 -0.14964,2.3807 0.12669,3.42858c1.04971,3.98059 5.11534,6.54391 6.00562,10.62785c0.90899,4.16974 -1.14001,7.99973 -3.25609,11.46151c-0.60374,2.43659 0.27407,4.86464 -0.12327,7.2357c-0.37967,2.26559 -1.89378,3.59539 -2.63535,5.52293c-0.6478,1.68381 -1.04882,3.50031 -2.44642,4.76537c-1.22085,1.10509 -2.86816,1.48788 -4.07199,2.69474c-1.06288,1.27546 -2.35181,3.31174 -3.8161,4.11858c-1.35169,0.7448 -2.9913,0.85513 -4.60217,0.83767c0.06809,0.53328 -0.4777,0.75159 -0.4777,0.75159zM229.53073,127.20281c-0.2671,0.00387 -0.53419,0.00689 -0.80121,0.00923c0.2772,0.06866 0.54405,0.06671 0.80121,-0.00923z" fill="#000000" stroke-width="0.5"/><path d="M249.60595,119.75823c-0.53033,0.53033 -1.06066,0 -1.06066,0l-0.02796,-0.05962c-1.7687,-1.06258 -2.6964,-2.00272 -4.00543,-3.639c-1.17613,-1.65108 -2.93897,-3.98925 -3.08061,-6.08438c-0.12085,-1.7875 0.81744,-3.39756 1.42811,-4.98473c1.18879,-3.08971 2.3667,-6.16122 4.21287,-8.93724c0,0 0.41602,-0.62404 1.04006,-0.20802c0.62404,0.41603 0.20802,1.04006 0.20802,1.04006c-1.79183,2.68071 -2.91436,5.66148 -4.06299,8.64897c-0.51931,1.35068 -1.43017,2.80121 -1.33051,4.32561c0.11552,1.76706 1.79108,3.91261 2.78145,5.29493c1.21257,1.51571 1.94816,2.27916 3.58078,3.25755l0.31687,0.2852c0,0 0.53033,0.53033 0,1.06066z" fill="#000000" stroke-width="0.5"/><path d="M233.59798,223.91107c-2.62277,3.08488 -7.59545,3.09829 -10.09751,6.23829c-0.3347,0.6625 -0.97636,4.24882 -0.04975,4.40151c2.05217,0.33818 3.62048,-0.69417 5.55099,-0.89691c3.25425,-0.34175 6.4608,-0.00761 9.72183,-0.51857c1.76803,0.00028 7.82627,-0.86382 8.24998,-3.07321c0.48327,-2.51996 -2.09346,-5.24906 -4.29974,-6.72117c-2.67069,1.17128 -5.98929,1.03969 -8.89565,0.4998c-0.06166,0.03277 -0.12393,0.05507 -0.18014,0.07025zM241.16342,221.65111c0.33541,-0.67082 1.00623,-0.33541 1.00623,-0.33541c0.17799,0.09069 0.36249,0.19162 0.55171,0.30207c1.57742,-0.98789 1.63469,-1.79318 1.47147,-3.85392c-0.17877,-2.25718 -0.84464,-4.49677 -1.03598,-6.73791c-0.27573,-3.22965 0.46461,-6.64245 -0.17241,-9.82759c0,-2.37855 -0.67837,-4.70524 -0.86207,-7.06897c-0.33706,-4.33701 -0.00365,-8.8277 -0.00365,-13.17735c0,0 0,-0.55828 0.48167,-0.71151c0.14292,-0.73599 0.37055,-1.4732 0.72523,-2.21993c0.00013,-0.01946 0.00999,-0.7496 0.75,-0.7496c0.75,0 0.75,0.75 0.75,0.75l-0.07918,0.50782c-1.33319,2.66054 -0.7895,5.27505 -0.78289,8.11287c0,3.72219 0.1962,7.22527 1.18177,10.84198c1.07498,3.94482 3.27647,7.92822 3.30099,12.08905c0,1.89654 0.0038,3.79312 0,5.68966c-0.00088,0.44017 -0.48823,1.10525 -0.10209,1.31655c0.39139,0.21417 2.72676,-0.30476 3.27101,-0.34096c1.35657,-0.09024 6.89579,-0.71224 7.06356,-2.46642c0.06118,-0.63966 -0.24643,-1.26151 -0.35061,-1.89558c0.01719,-4.26643 -1.2882,-8.39288 -2.38223,-12.42444c-0.58589,-2.15904 -0.81413,-4.41188 -1.39756,-6.56643c-0.06365,-0.02282 -0.13012,-0.05611 -0.19914,-0.10212c-0.62404,-0.41603 -0.20801,-1.04006 -0.20801,-1.04006l0.03778,-0.05535c-0.17839,-0.50803 -0.38506,-1.0083 -0.62997,-1.49811c-0.7718,-2.67772 -1.96863,-6.38742 -3.69292,-8.61339c-1.83804,-2.37283 -3.90724,-5.29354 -4.95307,-8.3061c-1.42159,3.72474 -3.67558,6.90824 -7.83807,8.56811c-1.14458,0.28312 -2.36603,0.46791 -3.61581,0.54206c0.03301,2.2976 0.33892,4.55112 0.34195,6.84777c0,7.43201 1.13386,16.0095 -1.23681,23.14073c-0.68133,2.71598 -2.70444,6.71258 -1.82318,9.54225c0.21207,0.68095 1.43461,0.04623 2.1297,0.20598c2.5179,0.57869 5.68951,0.9885 8.28676,0.19936c-0.08883,-0.16317 -0.12431,-0.38487 0.01581,-0.66511zM248.41909,230.46258c-0.85717,3.04355 -6.94142,4.16776 -9.57761,4.16817c-3.25511,0.52413 -6.43705,0.21137 -9.69196,0.51591c-1.9375,0.18128 -4.12845,1.65096 -6.17314,0.82723c-2.22876,-0.89788 -1.58031,-4.94021 -0.73941,-6.63297c2.41937,-3.0155 7.07012,-3.24083 9.71508,-5.83643c-0.87568,-0.06248 -1.99287,-0.02099 -2.463,-0.75267c-0.1597,-0.24854 -0.12971,-2.39908 -0.12895,-2.83426c0.00493,-2.8162 1.08412,-5.27906 1.75405,-7.96831c2.33151,-6.97508 1.17699,-15.4488 1.17699,-22.72134c0.00325,-2.28269 -0.30509,-4.52713 -0.34136,-6.81255c-3.44001,-0.04266 -6.94677,-0.94032 -9.54262,-2.94112c-2.04406,-1.5755 -3.60707,-3.60021 -5.43708,-5.43023c-0.68659,-0.83706 -1.5016,-1.47825 -2.35333,-2.09482c-0.74529,2.0556 -2.48853,2.31687 -4.33897,0.92072c-1.33438,-1.66137 -2.67775,-3.68054 -4.27326,-5.15471c-0.06114,0.01371 -0.12914,0.02133 -0.20476,0.02133c-0.75,0 -0.75,-0.75 -0.75,-0.75c0.00002,-0.00819 0.00004,-0.01637 0.00005,-0.02453c-1.37713,-0.92622 -3.21635,-1.70446 -4.1404,-2.77584c-0.99513,-1.1538 -0.44921,-3.17748 -0.33985,-4.50287c0.19451,-2.35772 -0.83773,-4.12682 -0.5058,-6.46162c0.35835,-1.41977 0.7863,-3.00204 1.55694,-4.1225c-0.15009,-0.11305 -0.30018,-0.2261 -0.45027,-0.33915c-1.93929,-1.93522 -3.44282,-3.67573 -2.07597,-6.41925c0.32999,-0.66234 0.78094,-1.71048 1.54441,-1.94885c0.56805,-0.17736 1.57415,0.68331 1.99021,0.99461c1.56386,1.17006 3.27658,2.18154 5.01607,3.08858c-0.25748,-0.45491 -0.51656,-0.91657 -0.75923,-1.40463c-2.43239,-3.27759 -3.75852,-9.67522 -2.13052,-13.59578c0.69529,-1.67439 4.35748,-4.70889 5.85312,-2.30635c0.10951,0.17592 0.07918,2.49884 0.07918,2.57679c0,1.51526 -0.18865,3.22015 -0.00725,4.72356c0.25895,2.14616 1.81357,4.25617 2.70005,6.1761c1.6345,3.53998 3.33644,6.84077 4.18999,10.68143c0.28115,1.6852 0.54249,3.45173 1.01485,5.09412c0.12025,0.41814 0.27999,0.8181 0.44891,1.21128c0.28166,-0.07039 0.54921,0.06339 0.54921,0.06339c3.79797,1.92235 7.1238,4.88313 10.76502,7.13885c0.5998,-2.70784 2.53042,-5.02578 3.94123,-7.36288c0.40837,-0.67648 0.77548,-1.38267 1.11399,-2.10804c-0.0091,-0.06098 -0.0091,-0.10056 -0.0091,-0.10056c0,-0.28735 0,-1.09196 0,-1.37932c0,-6.2555 0.86598,-15.12181 4.76224,-20.34192c0.436,-2.74276 1.43648,-6.64179 4.28832,-5.13831c0.70282,0.37052 1.07118,1.90018 1.22295,2.55131c0.07272,0.312 0.1412,0.62669 0.20557,0.94361c0.02478,-0.03216 0.05313,-0.06445 0.08542,-0.09673c0.53033,-0.53033 1.06066,0 1.06066,0c3.1566,3.21291 5.94328,7.1462 8.99534,10.54885c0.61903,0.69013 2.7952,2.95257 2.59181,3.90725c-0.1621,0.76091 -1.29251,1.23752 -1.92899,1.55927c-2.12134,1.26768 -4.39864,1.81105 -6.85077,1.81412l-0.97304,0.16477c0,0 -0.00959,0.0016 -0.02677,0.00334c3.7489,5.26731 8.70184,9.51183 12.57244,14.66894c4.88813,6.60988 0.83457,16.02942 -2.38611,22.41224c-0.77716,0.93259 -1.48623,1.93744 -2.02582,3.02835l-0.54332,0.58829c-0.19207,0.47263 -0.3973,0.94037 -0.6226,1.39801c0.69392,2.32092 0.91477,4.77235 1.55582,7.10984c1.13508,4.13888 2.42891,8.37167 2.44535,12.74797c0.16073,0.94924 0.09308,1.7471 -0.14962,2.41833c0.62894,-0.10317 0.81297,0.54093 0.81297,0.54093c0.8476,2.96661 2.37533,5.55614 3.74278,8.31891c0.34048,0.6879 1.12897,2.47756 0.44758,3.19765c-1.55742,1.64587 -6.7779,2.13524 -8.94673,2.33257c-1.78839,0.05215 -4.96354,1.00384 -6.56385,0.72313c-0.23731,-0.04163 -0.434,-0.08822 -0.59768,-0.14063c0.01945,0.44123 -0.02641,0.88265 -0.14943,1.31945zM251.15767,218.37891l-0.45722,0.4495c-1.77099,2.25874 -3.48706,4.22333 -2.14755,7.1612c0.13829,0.30331 0.39861,1.8486 0.77697,1.8031c2.11443,-0.25426 4.10727,-0.66613 6.31053,-0.7294c2.29574,-0.20852 5.82706,-0.6308 7.83405,-1.73214c0.19682,-0.108 -0.84012,-2.13637 -0.93173,-2.31959c-1.29405,-2.58811 -2.65724,-5.00251 -3.4683,-7.78305c-1.4792,1.82544 -4.65745,2.32557 -7.366,2.50653c-0.09209,0.00615 -0.19912,0.01764 -0.31806,0.03275c0.03407,0.34433 -0.2327,0.61109 -0.2327,0.61109zM249.42282,218.02744c-0.8287,0.07104 -1.63042,0.04653 -2.02959,-0.28851c-0.55185,-0.4632 -0.44577,-1.85711 -0.44692,-2.47656c-0.00351,-1.89654 0,-3.79312 0,-5.68966c0.02309,-3.1659 -1.39631,-6.31421 -2.49616,-9.36915c0.01733,0.28171 0.02699,0.56399 0.02699,0.84697c0.63756,3.18781 -0.08914,6.59612 0.17241,9.82759c0.32143,3.97131 2.62369,8.77566 -0.62746,11.60077c1.06758,0.78926 2.15719,1.80092 3.00247,2.92645c-0.55926,-2.85945 0.21163,-4.56572 2.39826,-7.3779zM245.84989,171.00115c0.19158,1.21607 0.63729,2.43516 1.22376,3.62286c1.44845,-3.75867 1.5644,-8.6438 0.15491,-12.42316c0.00525,0.58553 0.00781,1.17092 0.0072,1.75612c-0.43863,2.23768 -0.87288,4.54889 -1.49566,6.75751c0.0866,0.14753 0.10979,0.28667 0.10979,0.28667zM247.10787,148.60386c0.44634,-0.29756 0.78626,-0.06305 0.94366,0.09463c0.16676,-0.31793 0.55596,-0.3828 0.55596,-0.3828l1.09592,-0.18006c2.24994,0.00289 4.30871,-0.46276 6.25268,-1.63415c0.38266,-0.18893 1.06284,-0.09779 1.17445,-0.50969c0.08941,-0.32998 -2.85087,-3.24144 -3.14761,-3.56514c-2.74038,-2.98935 -5.07479,-6.64416 -7.90721,-9.45018c0.45158,2.62441 0.64036,5.3642 0.64644,7.97556c-0.00505,2.62866 0.05504,5.26334 0.13575,7.90071c0.05348,-0.0866 0.13365,-0.17135 0.24995,-0.24888zM241.55782,134.17917c-0.0274,0.03378 -0.05439,0.06775 -0.08098,0.1019c-0.03223,0.47774 -0.04006,0.95835 -0.10703,1.4322c0,0 -0.10607,0.74246 -0.84853,0.63639c-0.06245,-0.00892 -0.1189,-0.02235 -0.16991,-0.03945c-0.4296,1.07528 -0.71245,2.22015 -1.08383,3.3342c-1.32599,3.97773 -2.09817,7.7987 -2.31175,11.87325c0.51912,-1.42127 1.01412,-2.84668 1.56768,-4.20759c0.3295,-2.38544 0.96605,-4.7226 1.54868,-7.05719l0.18851,-0.57251c0,0 0.23717,-0.71151 0.94868,-0.47434c0.71151,0.23717 0.47434,0.94868 0.47434,0.94868l-0.15632,0.46197c-0.58738,2.34522 -1.20289,4.68711 -1.55477,7.08075c-1.36909,3.47329 -2.46372,7.30536 -4.3869,10.52875c-1.37525,2.30502 -3.51718,4.6847 -3.86197,7.41352c0.31789,0.1749 0.63879,0.34312 0.96317,0.50357l0.71216,0.65774c0,0 0.53033,0.53033 0,1.06066c-0.53033,0.53033 -1.06066,0 -1.06066,0l-0.32232,-0.37676c-4.30444,-2.1717 -7.98505,-5.68893 -12.23193,-7.9966c0.16431,0.53674 0.25912,1.09358 0.21133,1.69799c-0.23281,2.9443 -3.38064,6.36958 -5.43496,8.82628c0.05609,0.04648 0.10032,0.09992 0.13519,0.15528c1.2124,0.87794 2.39115,1.69189 3.382,2.86462c5.38275,5.38275 10.27202,9.46852 18.52578,7.37834c6.79111,-2.72644 7.82265,-10.16883 9.13958,-16.60166c-0.00815,-7.61603 -0.50771,-15.25748 -0.52089,-22.85713c0.00707,-2.68982 -0.22203,-5.57013 -0.75118,-8.20264c-0.08711,-0.43337 -0.24497,-2.69819 -0.76489,-3.04126c-1.04835,-0.69174 -1.86377,2.47826 -2.09805,3.58861c0.31304,0.42836 -0.05023,0.88244 -0.05023,0.88244zM207.87814,146.27803c-1.57876,-0.78938 -3.0222,-1.7065 -4.53322,-2.61391c-0.55501,-0.3333 -1.09839,-0.68854 -1.61585,-1.07761c-0.2823,-0.21225 -0.49295,-0.95057 -0.76842,-0.72953c-2.27381,1.82459 -0.17234,4.40149 1.19258,5.76984c0.18175,0.13565 0.3635,0.2713 0.54524,0.40695c0.7116,-0.43715 1.61819,-0.56809 2.79776,-0.21444c0.77775,0.23317 3.41635,1.95766 4.01543,1.8258c0.58643,-0.12909 -0.13811,-1.1979 -0.29885,-1.77646c-0.15891,-0.57197 -0.36871,-1.09809 -0.60729,-1.6025c-0.3347,0.20819 -0.72738,0.01186 -0.72738,0.01186zM205.45493,162.96066c0.75,0 0.75,0.75 0.75,0.75l-0.01456,0.19774c0.16072,0.80361 0.28013,1.5063 0.33156,2.27226c0.10192,0.08029 0.20054,0.16252 0.29525,0.24702c1.69497,1.51199 3.10953,3.61417 4.50455,5.36513c1.07225,0.79718 1.74953,0.69025 2.00973,-0.76522c-0.12688,-0.01057 -0.26674,-0.06173 -0.41402,-0.17955c-0.58565,-0.46852 -0.11713,-1.05417 -0.11713,-1.05417c1.75882,-2.1913 5.44399,-5.8687 5.70028,-8.73127c0.13169,-1.47083 -0.94825,-2.81261 -1.34846,-4.19955c-0.48863,-1.6934 -0.76468,-3.51232 -1.05412,-5.25071c-0.82767,-3.72481 -2.50567,-6.91778 -4.08588,-10.35305c-0.95664,-2.07967 -2.50893,-4.26279 -2.81719,-6.58253c-0.20712,-1.5586 -0.00725,-3.35676 -0.00725,-4.93161c0,-0.63587 0.13842,-1.27287 0.07918,-1.90597c-0.03978,-0.42516 -2.89848,1.60791 -3.11239,2.17642c-1.35036,3.58891 -0.24793,9.29361 2.00741,12.26629c1.01676,2.02303 2.46604,3.83625 2.69457,6.18247c0.05398,0.5542 0.03177,2.0963 -0.49273,2.41529c-1.79963,1.0945 -4.72855,-2.20735 -6.67734,-1.94721c-0.03322,0.00444 -0.06618,0.01188 -0.09886,0.02218c-0.0975,0.34791 -0.40067,0.45663 -0.58064,0.49061c-0.76531,1.05119 -1.30513,3.39319 -1.47111,4.0648c-0.31506,2.19303 0.71278,4.00049 0.52867,6.297c-0.05996,0.74794 -0.62625,2.77954 0.00498,3.42817c0.71066,0.73026 1.78203,1.29231 2.82182,1.88893c-0.04887,-0.29595 -0.10707,-0.59814 -0.17174,-0.92152l-0.01457,-0.49192c0,0 0,-0.75 0.75,-0.75z" fill="#000000" stroke-width="0.5"/></g></g></svg>