<svg version="1.1" xmlns="http://www.w3.org/2000/svg" xmlns:xlink="http://www.w3.org/1999/xlink" width="223.07856" height="163.03271" viewBox="0,0,223.07856,163.03271"><defs><radialGradient cx="220.72864" cy="231.48961" r="32.56883" gradientUnits="userSpaceOnUse" id="color-1"><stop offset="0" stop-color="#0006ff"></stop><stop offset="1" stop-color="#00e4ff"></stop></radialGradient><radialGradient cx="201.75197" cy="176.00267" r="62.64859" gradientUnits="userSpaceOnUse" id="color-2"><stop offset="0" stop-color="#0006ff"></stop><stop offset="1" stop-color="#00e4ff"></stop></radialGradient><radialGradient cx="138.81204" cy="250.03601" r="9.88717" gradientUnits="userSpaceOnUse" id="color-3"><stop offset="0" stop-color="#0006ff"></stop><stop offset="1" stop-color="#00e4ff"></stop></radialGradient><radialGradient cx="324.76826" cy="253.68405" r="12.01308" gradientUnits="userSpaceOnUse" id="color-4"><stop offset="0" stop-color="#0006ff"></stop><stop offset="1" stop-color="#00e4ff"></stop></radialGradient></defs><g transform="translate(-128.02121,-123.31628)"><g data-paper-data="{&quot;isPaintingLayer&quot;:true}" fill-rule="nonzero" stroke="none" stroke-width="0.5" stroke-linecap="butt" stroke-linejoin="miter" stroke-miterlimit="10" stroke-dasharray="" stroke-dashoffset="0" style="mix-blend-mode: normal"><path d="M278.62939,222.87957l-0.04451,2.83897c-2.62249,12.81553 -1.1056,26.73781 -1.1056,39.7329c0,4.45997 1.75805,12.60136 -1.45218,16.44874c-0.09623,0.11532 -0.19598,0.2281 -0.29892,0.33859l0.05164,0.02863l-2.27205,2.8349c-0.5824,0.75014 -1.59636,1.24668 -2.74973,1.24668c-1.4714,0 -2.71587,-0.80814 -3.12693,-1.91994l-1.12625,-2.81048l0.16551,-0.04589l-0.29113,-0.37867c-0.02592,-2.26291 -0.22623,-4.5285 -0.58835,-6.77139c-0.18838,-1.16676 -0.55788,-2.98821 -0.74993,-4.60778c-0.22374,0.25046 -0.4421,0.50341 -0.61643,0.77257c-1.56572,2.41765 -3.74604,6.87229 -6.18485,8.64097c-2.00066,1.45093 -4.43465,3.61792 -7.02162,3.12387c-2.12645,-0.4061 -1.94766,-3.25898 -2.66314,-4.97345c-1.60947,-3.85663 -2.19532,-7.9998 -2.88785,-12.02666c-0.04489,-0.26102 -0.10438,-0.52094 -0.17261,-0.78015c-1.25508,3.65155 -2.21734,7.37435 -3.89784,10.96902c-0.29268,0.62607 -3.0621,6.0894 -3.7365,6.68356c-0.07933,0.06989 -0.15994,0.13861 -0.24172,0.20623l0.04066,0.02706l-2.28133,2.37205c-0.59887,0.63374 -1.52882,1.04077 -2.57304,1.04077c-1.55664,0 -2.8593,-0.90451 -3.18986,-2.11614l-1.13351,-3.77147c-1.63268,-5.54455 -2.43475,-11.68235 -2.39787,-17.40165c0.00069,-0.10669 0.00084,-0.2146 0.00081,-0.32349c-1.54194,2.08836 -3.17614,3.94556 -4.95793,6.16685c-1.1226,1.39949 -1.49607,3.24584 -2.96184,4.40514c-0.11003,0.08703 -0.22254,0.17132 -0.3373,0.25312l0.03886,0.03233l-2.87527,2.39167c-0.59192,0.49237 -1.40965,0.7969 -2.31289,0.7969c-1.80648,0 -3.27093,-1.21815 -3.27093,-2.72081v-2.87002h0.09149l-0.08035,-0.22442c0.64687,-3.06988 -0.00716,-5.753 -0.01115,-8.86397c-0.00722,-5.6254 0.00421,-11.73265 -1.10786,-17.2626c-0.6223,-3.09445 -2.01141,-6.09012 -2.3313,-9.29979c-0.51203,-5.13774 -0.56219,-10.72282 -0.06805,-16.04732c-11.76516,-5.99482 -20.99801,-16.22873 -26.15929,-26.21229c-6.56639,-14.88197 1.57061,-32.24988 15.97961,-41.90891c9.61235,-6.44363 22.86765,-10.04916 35.10029,-13.03004c4.19819,-3.99756 9.53526,-5.75924 14.49327,-9.05854c21.65365,-10.85772 53.59955,-5.189 66.80452,13.30879c3.69842,5.18083 3.88458,11.66985 3.865,17.47932c-3.63116,12.08182 -1.88529,25.58442 -7.07754,37.43947c-4.95825,11.32078 -17.24238,20.29105 -30.38072,25.19882c0.10449,0.374 0.10449,0.64791 0.10449,0.64791zM210.26526,211.57608c3.23805,0.38479 2.77548,3.07824 2.77548,3.07824c-0.07827,0.44886 -0.1498,0.89716 -0.21491,1.34495c1.93457,0.77688 3.93133,1.4139 5.98147,1.8861c6.02025,1.38665 12.70286,2.10005 18.86656,2.9533c8.4983,1.17642 18.53038,2.40864 27.02557,0.37783c2.69283,-0.64373 5.13955,-1.85748 7.71505,-2.77512c12.76121,-3.9715 25.58466,-12.35572 30.35217,-23.28866c4.98449,-11.43052 3.21788,-24.55949 6.72367,-36.22421c-0.01965,-4.56518 -0.0606,-10.01942 -3.03561,-14.09083c-11.41368,-15.62008 -38.80845,-20.79728 -57.40643,-11.56467c-2.30938,1.53679 -4.77887,2.68596 -7.1379,3.93566c0.14073,0.20603 0.26285,0.44507 0.35997,0.72202c0.91586,2.61197 -2.22423,3.3738 -2.22423,3.3738c-1.61703,0.39231 -3.22022,0.79232 -4.81134,1.20255c-0.48157,0.45882 -1.23894,0.81964 -2.43008,0.81964c-0.20205,0 -0.39162,-0.01038 -0.56948,-0.02986c-8.59505,2.31207 -16.86471,4.97466 -25.09581,8.39454c-4.35171,1.80807 -8.55148,3.59081 -11.78998,6.76034c-2.73269,2.6745 -4.5661,5.90386 -6.88774,8.83481c-2.98119,3.76357 -4.16566,8.06986 -4.14062,12.54289c0.02127,3.79884 -0.18545,7.35789 1.48902,10.9434c4.18431,8.15285 11.632,16.79538 21.0604,22.30043c0.41449,-0.75822 1.35271,-1.73978 3.39475,-1.49713zM215.94886,261.62476c-0.0016,1.16424 0.07586,2.27182 0.14768,3.36267c0.83315,-0.81037 1.71732,-1.61164 2.54043,-2.5465c1.22597,-1.39242 3.09198,-4.73449 3.8082,-5.92668l0.06367,-0.05668l-0.01974,-0.00939l2.2687,-3.30249c0.55529,-0.84424 1.63299,-1.41677 2.87146,-1.41677c1.37554,0 2.55278,0.70628 3.03616,1.70667l1.69545,3.29071l-0.05517,0.01967c0.092,0.16494 0.17663,0.33315 0.25284,0.50504c0.41916,0.94547 -0.15338,7.30273 0.05358,8.91276c0.4076,3.17074 0.76974,6.49142 1.47732,9.68009c0.51407,-0.7691 1.06669,-1.54204 1.42436,-2.30524c2.62733,-5.60622 3.61393,-11.45415 6.45466,-16.97922l0.17288,-0.12857l-0.06537,-0.03263l1.6943,-2.34892c0.56499,-0.81508 1.62328,-1.36373 2.83564,-1.36373c1.58509,0 2.90686,0.93787 3.20702,2.18289l1.13613,4.25271l-0.00812,0.0015c0.00714,0.0167 0.01424,0.03343 0.0213,0.05015c2.01983,4.78179 0.54583,5.39643 1.71754,10.01456c0.36818,1.45112 1.2437,2.78478 1.70104,4.21823c0.05653,0.17717 0.1199,0.35572 0.18466,0.53528c0.63153,-0.7275 1.32303,-1.42823 1.86249,-2.20173c1.11685,-1.60137 5.48916,-10.32275 8.05562,-10.40841c2.62797,-0.08772 4.89199,2.07643 6.34729,3.89873c0.03729,0.04668 0.07276,0.09394 0.10651,0.14174c-0.00556,-13.31672 -1.3907,-27.40457 1.19462,-40.54727l-0.00822,-0.35899c-2.38439,0.84987 -5.47737,1.9483 -5.65807,1.99104c-9.47453,2.24113 -20.36844,1.06516 -29.86581,-0.24956c-6.41902,-0.88859 -13.44651,-1.63246 -19.70046,-3.11601c-1.55777,-0.36953 -3.08625,-0.81744 -4.58284,-1.33615c-0.4746,13.39255 3.65058,26.42232 3.63222,39.87049z" fill="#000000"></path><path d="M212.27236,221.71421c1.49658,0.51873 3.02789,0.96458 4.58566,1.33412c6.25395,1.48356 13.30967,2.21623 19.72868,3.10482c9.49737,1.31473 20.44837,2.50359 29.92288,0.26247c0.1807,-0.04275 3.27661,-1.13882 5.661,-1.98869l0.00856,0.35927c-2.58532,13.1427 -1.19354,27.29932 -1.18798,40.61603c-0.03376,-0.04779 -0.17684,-0.15695 -0.21412,-0.20364c-1.4553,-1.82231 -3.61129,-3.92506 -6.23926,-3.83734c-2.56646,0.08566 -6.96297,8.82492 -8.07983,10.42629c-0.53947,0.7735 -1.2362,1.47624 -1.86773,2.20374c-0.06476,-0.17953 -0.17781,-0.45878 -0.23433,-0.63596c-0.45734,-1.43345 -1.33368,-2.76684 -1.70185,-4.21795c-1.1717,-4.61812 0.29041,-5.22726 -1.72942,-10.00905c-0.00707,-0.01673 -0.01422,-0.03342 -0.02137,-0.05012l0.0081,-0.00149l-1.14566,-4.2459c-0.30015,-1.24502 -1.52985,-2.10561 -3.11495,-2.10561c-1.21235,0 -2.29977,0.56185 -2.86475,1.37693l-1.71098,2.35051l0.06582,0.03263l-0.17408,0.12855c-2.84074,5.52506 -3.84003,11.37168 -6.46736,16.9779c-0.35767,0.7632 -0.91177,1.53583 -1.42584,2.30494c-0.70758,-3.18868 -1.0812,-6.51269 -1.4888,-9.68344c-0.20697,-1.61001 0.34784,-7.97727 -0.07131,-8.92274c-0.07621,-0.1719 -0.16287,-0.34178 -0.25487,-0.50672l0.05524,-0.01961l-1.70736,-3.3049c-0.48338,-1.00039 -1.6653,-1.71755 -3.04084,-1.71755c-1.23847,0 -2.18993,0.54414 -2.74521,1.38837l-2.27208,3.29511l0.01972,0.00934l-0.06372,0.05661c-0.71622,1.19219 -2.58775,4.52631 -3.81372,5.91872c-0.82311,0.93486 -1.81342,1.79974 -2.64656,2.61012c-0.07182,-1.09085 -0.15322,-2.20339 -0.15164,-3.36764c0.01837,-13.44816 -4.09468,-26.54556 -3.62008,-39.9381z" data-paper-data="{&quot;noHover&quot;:false,&quot;origItem&quot;:[&quot;Path&quot;,{&quot;applyMatrix&quot;:true,&quot;segments&quot;:[[[220.06408,235.46885],[0.01404,-12.35677],[-0.00122,1.06976]],[[220.17695,238.55861],[-0.05489,-1.00232],[0.63678,-0.74461]],[[222.11861,236.21877],[-0.62911,0.85899],[0.93702,-1.27942]],[[225.02925,230.77307],[-0.54741,1.09544],[0,0]],[225.07791,230.72099],[225.06282,230.71237],[[226.79681,227.67789],[0,0],[0.42441,-0.77572]],[[228.9915,226.3761],[-0.94657,0],[1.05134,0]],[[231.31206,227.94426],[-0.36945,-0.9192],[0,0]],[232.60791,230.96792],[[232.56574,230.98599],[0,0],[0.07032,0.15156]],[[232.75899,231.45005],[-0.05825,-0.15795],[0.32037,0.86874]],[[232.79994,239.63949],[-0.15819,-1.47935],[0.31153,2.91342]],[[233.92907,248.53399],[-0.54081,-2.9299],[0.39291,-0.70669]],[[235.01772,246.41584],[-0.27337,0.70126],[2.00809,-5.15124]],[[239.95107,230.81459],[-2.1712,5.07667],[0,0]],[240.0832,230.69645],[240.03325,230.66648],[[241.32822,228.50819],[0,0],[0.43183,-0.74893]],[[243.49553,227.25514],[-0.92661,0],[1.2115,0]],[[245.94668,229.26088],[-0.22941,-1.14398],[0,0]],[246.81503,233.16846],[[246.80881,233.16984],[0,0],[0.00546,0.01535]],[[246.82509,233.21592],[-0.0054,-0.01537],[1.54377,4.39372]],[[248.13782,242.41774],[-0.89554,-4.24334],[0.2814,1.33335]],[[249.43794,246.29364],[-0.34955,-1.31712],[0.04321,0.1628]],[[249.57908,246.78547],[-0.0495,-0.16496],[0.48268,-0.66846]],[[251.00261,244.76242],[-0.41232,0.71072],[0.85362,-1.47141]],[[257.15959,235.19871],[-1.96157,0.07871],[2.00858,-0.0806]],[[262.01088,238.78104],[-1.1123,-1.67442],[0.0285,0.04289]],[[262.09229,238.91127],[-0.0258,-0.04391],[-0.00425,-12.236]],[[263.00535,201.65462],[-1.97598,12.0761],[0,0]],[[262.99907,201.32477],[0,0],[-1.82241,0.7809]],[[258.67456,203.15422],[0.13811,-0.03928],[-7.24146,2.05925]],[[235.84787,202.92492],[7.25892,1.20803],[-4.90611,-0.81647]],[[220.79064,200.06178],[4.77995,1.36316],[-1.19062,-0.33954]],[[217.28794,198.83406],[1.14385,0.47663],[-0.36274,12.30567]]],&quot;closed&quot;:true}]}" fill="url(#color-1)"></path><path d="M206.8271,213.11392c-9.42839,-5.50507 -16.89535,-14.17266 -21.07966,-22.32551c-1.67447,-3.5855 -1.4703,-7.15571 -1.49157,-10.95455c-0.02504,-4.47303 1.16012,-8.79289 4.14131,-12.55647c2.32164,-2.93094 4.15877,-6.17133 6.89146,-8.84583c3.23848,-3.16953 7.44596,-4.96396 11.79767,-6.77203c8.2311,-3.41989 16.53067,-6.10157 25.12572,-8.41364c0.17786,0.01948 0.3682,0.02962 0.57025,0.02962c1.19113,0 1.95244,-0.36189 2.43402,-0.82072c1.59112,-0.41021 3.20201,-0.8117 4.81904,-1.20401c0,0 3.14418,-0.76228 2.22831,-3.37426c-0.09712,-0.27697 -0.21961,-0.51597 -0.36035,-0.72198c2.35903,-1.24968 4.83833,-2.39914 7.14773,-3.93593c18.59798,-9.23259 46.04562,-4.02968 57.4593,11.59039c2.975,4.07141 3.02267,9.53778 3.04233,14.10296c-3.5058,11.66473 -1.74127,24.83139 -6.72577,36.2619c-4.7675,10.93294 -17.62223,19.34475 -30.38344,23.31625c-2.5755,0.91765 -5.03104,2.13438 -7.72388,2.77811c-8.49518,2.03081 -18.55836,0.80047 -27.05664,-0.37595c-6.1637,-0.85324 -12.86698,-1.57264 -18.88723,-2.95929c-2.05014,-0.47222 -4.05283,-1.11228 -5.9874,-1.88918c0.06512,-0.44778 0.13595,-0.8965 0.21422,-1.34536c0,0 0.45857,-2.69606 -2.77949,-3.08085c-2.04204,-0.24265 -2.98144,0.73807 -3.39593,1.49628z" data-paper-data="{&quot;noHover&quot;:false,&quot;origItem&quot;:[&quot;Path&quot;,{&quot;applyMatrix&quot;:true,&quot;segments&quot;:[[[215.72005,189.48188],[-1.56075,-0.22296],[2.47487,0.35356]],[[217.84137,192.3103],[0,0],[-0.05982,0.41243]],[[217.67712,193.5461],[0.04977,-0.41144],[1.47861,0.71383]],[[222.24881,195.27914],[-1.56694,-0.43389],[4.60133,1.27411]],[[236.66868,197.99275],[-4.71097,-0.784],[6.49532,1.08095]],[[257.32455,198.33992],[-6.49294,1.866],[2.05815,-0.59149]],[[263.22123,195.79002],[-1.96848,0.84318],[9.7535,-3.64919]],[[286.41965,174.39136],[-3.64384,10.04567],[3.80969,-10.50287]],[[291.55861,141.10694],[-2.67951,10.71807],[-0.01502,-4.19469]],[[289.23847,128.15965],[2.27382,3.74099],[-8.72357,-14.35242]],[[245.36225,117.53352],[14.21459,-8.48332],[-1.76508,1.41207]],[[239.90669,121.14978],[1.80303,-1.14827],[0.10756,0.18931]],[[240.18182,121.8132],[-0.07423,-0.25449],[0.7,2.4]],[[238.48182,124.9132],[0,0],[-1.23591,0.36047]],[[234.80447,126.01815],[1.21611,-0.37692],[-0.36807,0.42159]],[[232.94714,126.77127],[0.91039,0],[-0.15443,0]],[[232.51188,126.74383],[0.13594,0.0179],[-6.56927,2.12444]],[[213.33094,134.45711],[6.2911,-3.14235],[-3.32605,1.66133]],[[204.31977,140.66881],[2.4752,-2.91231],[-2.08862,2.45745]],[[199.0554,148.78662],[1.77445,-2.69308],[-2.27855,3.45814]],[[195.89069,160.31159],[-0.01914,-4.11002],[0.01626,3.49054]],[[197.02877,170.36687],[-1.27981,-3.29452],[3.1981,7.4912]],[[213.12541,190.85751],[-7.2062,-5.0583],[0.3168,-0.69669]]],&quot;closed&quot;:true}]}" fill="url(#color-2)"></path><path d="M248.33108,177.76681c-3.27093,0 -3.27093,-2.72081 -3.27093,-2.72081l0.12585,-2.66081c2.71652,-7.9033 4.25721,-15.8788 5.65753,-24.03244c0,0 0.46258,-2.69346 3.70064,-2.30869c3.23805,0.38479 2.77548,3.07823 2.77548,3.07823c-1.44232,8.39825 -3.0481,16.6137 -5.84349,24.75781l0.12585,1.16588c0,0 0,2.72081 -3.27093,2.72081z" fill="#000000"></path><path d="M261.91402,182.94727c-3.17326,-0.65989 -2.37996,-3.29946 -2.37996,-3.29946l0.64525,-2.11385c1.94181,-4.84218 2.98093,-9.73919 4.54387,-14.6718c1.33977,-4.22828 3.22184,-8.26586 3.94691,-12.59605c0,0 0.46258,-2.69346 3.70063,-2.30869c3.23805,0.38479 2.77548,3.07824 2.77548,3.07824c-0.80015,4.56019 -2.69004,8.78236 -4.1038,13.23406c-1.59894,5.03479 -2.67541,10.0368 -4.65694,14.98502l-0.50486,1.71284c0,0 -0.79332,2.63958 -3.96658,1.97968z" fill="#000000"></path><path d="M271.56093,192.36236c1.03436,2.58118 -2.06872,3.44158 -2.06872,3.44158l-3.6962,1.01607c-13.74072,1.90167 -35.51096,1.01586 -42.28854,-11.07038c-1.76095,-3.14025 -2.01221,-6.36068 -2.02441,-9.74695c0,0 0,-2.72081 3.27093,-2.72081c3.27093,0 3.27093,2.72081 3.27093,2.72081c-0.01234,2.92868 0.03899,6.87827 2.64227,9.21126c7.95244,7.12676 22.48423,7.86286 33.55188,6.32491l3.2044,-0.89728c0,0 3.10308,-0.86039 4.13744,1.72079z" fill="#000000"></path><path d="M138.49549,247.36348c-0.01303,-0.01446 -0.02585,-0.02888 -0.03849,-0.04329c-2.0129,1.38347 -4.18551,3.42134 -3.88606,4.70293c0.61533,2.63352 6.84973,5.47479 9.94049,5.85061c1.94841,0.23691 4.16507,0.61265 5.90441,-0.15522c2.32476,-1.02631 4.72783,-7.83233 3.40157,-9.65398c-0.59626,-0.81897 -3.25065,-1.34802 -4.02831,-1.56121c-1.95552,0.01903 -3.91101,0.20348 -5.83893,0.47645l-0.87539,0.92787c0,0 -2.61674,1.63249 -4.5793,-0.54416zM145.68864,241.31118c1.71071,-0.13557 3.43248,-0.18965 5.14835,-0.17919c3.34686,0.9336 6.56367,1.31518 8.6228,4.17882c3.21411,4.46985 -0.37311,14.64157 -5.79924,17.13282c-1.74338,0.80042 -8.12965,1.07457 -10.19701,0.80146c-5.89193,-0.77834 -14.37477,-5.19577 -15.36174,-10.41281c-0.88958,-4.70226 5.7717,-10.55927 10.77762,-12.06038c1.42263,-0.42661 3.02201,-0.10225 4.53301,-0.15338c0,0 1.31388,0 2.2762,0.69266z" fill="#000000"></path><path d="M143.05934,247.85476l0.88658,-0.92929c1.92791,-0.27298 3.92764,-0.44618 5.88316,-0.46522c0.77767,0.2132 3.44952,0.7593 4.04579,1.57828c1.32627,1.82163 -1.0896,8.69343 -3.41435,9.71973c-1.73934,0.76787 -3.99929,0.40678 -5.9477,0.16986c-3.09075,-0.3758 -9.39193,-3.27359 -10.00726,-5.90713c-0.29945,-1.28159 1.89274,-3.35621 3.90565,-4.73969c0.01264,0.01441 0.02541,0.02888 0.03844,0.04334c1.96256,2.17664 4.60968,0.53012 4.60968,0.53012z" data-paper-data="{&quot;noHover&quot;:false,&quot;origItem&quot;:[&quot;Path&quot;,{&quot;applyMatrix&quot;:true,&quot;segments&quot;:[[[177.32617,205.32369],[1.5,2],[-0.00996,-0.01328]],[[177.29675,205.28391],[0.00966,0.01324],[-1.53848,1.2712]],[[174.32661,209.60517],[-0.22887,-1.17758],[0.4703,2.4198]],[[181.92421,214.98097],[-2.36229,-0.34531],[1.48919,0.21768]],[[186.437,214.83835],[-1.32939,0.70555],[1.77683,-0.94302]],[[189.03685,205.96785],[1.01368,1.6738],[-0.45573,-0.75251]],[[185.95798,204.53334],[0.59438,0.1959],[-1.49462,0.01749]],[[181.49524,204.97112],[1.47352,-0.25082],[0,0]],[180.82617,205.82369]],&quot;closed&quot;:true}]}" fill="url(#color-3)"></path><path d="M321.61546,250.10786c-0.38636,1.18163 -0.46452,2.64727 -0.47688,4.05452c-0.0137,1.56119 -0.55331,2.61694 0.85417,3.89138c1.85829,1.68264 6.4723,1.72513 8.99783,2.02632c2.19188,0.26139 7.64317,1.24411 9.94649,0.60325c3.68855,-1.02626 4.51441,-6.11496 3.7067,-8.64515c-6.92309,-2.74478 -13.35513,-3.76504 -21.02562,-3.76504l1.77551,0.40932c0,0 -1.25941,2.09518 -3.77821,1.42539zM329.37772,243.01093c7.29517,0.48753 13.86499,2.04745 20.36897,5.62228c2.54243,5.96069 2.11052,14.43824 -6.64422,17.18497c-3.24991,1.01963 -9.79043,0.03333 -13.05553,-0.35342c-4.14587,-0.49107 -9.86882,-0.88312 -12.8541,-3.71372c-4.66563,-4.42385 -3.91733,-15.01767 2.25425,-18.43054c4.40265,-2.43465 5.53469,-1.39347 9.80583,-0.34936c0,0 0.04595,0.01275 0.12481,0.03977z" fill="#000000"></path><path d="M325.34591,248.64529l-1.77856,-0.40641c7.67049,0 14.21663,1.04071 21.13971,3.7855c0.80772,2.53019 -0.0333,7.66957 -3.72185,8.69582c-2.30332,0.64084 -7.82155,-0.32661 -10.01344,-0.58801c-2.52554,-0.30119 -7.18186,-0.37649 -9.04016,-2.05912c-1.40748,-1.27444 -0.87208,-2.35183 -0.85837,-3.91302c0.01235,-1.40726 0.09677,-2.89386 0.48312,-4.0755c2.5188,0.66979 3.78956,-1.43927 3.78956,-1.43927z" data-paper-data="{&quot;noHover&quot;:false,&quot;origItem&quot;:[&quot;Path&quot;,{&quot;applyMatrix&quot;:true,&quot;segments&quot;:[[[285.03743,207.56997],[1.92514,0.61544],[-0.2953,1.08573]],[[284.67295,211.29546],[0.00944,-1.29306],[-0.01047,1.43449]],[[285.3258,214.87103],[-1.07575,-1.17101],[1.42031,1.54608]],[[292.20292,216.7329],[-1.93029,-0.27675],[1.67527,0.24018]],[[299.80511,217.2872],[-1.76045,0.58884],[2.81919,-0.94297]],[[302.63817,209.34365],[0.61735,2.32485],[-5.29138,-2.52203]],[[286.56811,205.88417],[5.86262,0],[0,0]],[287.92515,206.26027]],&quot;closed&quot;:true}]}" fill="url(#color-4)"></path><path d="M293.69365,160.97223c-3.20741,-0.5336 -2.56593,-3.20156 -2.56593,-3.20156l0.55603,-1.41078c-1.37083,-6.97457 -3.9182,-14.3239 -11.22281,-18.74291c-2.44503,-1.47915 -5.67917,-1.72654 -8.5205,-2.58582c0,0 -3.07399,-0.92982 -1.95619,-3.48682c1.11782,-2.55699 4.19182,-1.62719 4.19182,-1.62719c3.31544,1.00302 7.00531,1.45439 9.88112,3.1542c8.9442,5.28666 12.34737,13.88958 14.07942,22.39394l-0.59407,3.37258c0,0 -0.64148,2.66797 -3.84889,2.13438z" fill="#d3faff"></path></g></g></svg>