<svg version="1.1" xmlns="http://www.w3.org/2000/svg" xmlns:xlink="http://www.w3.org/1999/xlink" width="52.29598" height="99.66204" viewBox="0,0,52.29598,99.66204"><g transform="translate(-214.01464,-142.0598)"><g data-paper-data="{&quot;isPaintingLayer&quot;:true}" fill="#9966ff" fill-rule="nonzero" stroke="none" stroke-width="0.5" stroke-linecap="butt" stroke-linejoin="miter" stroke-miterlimit="10" stroke-dasharray="" stroke-dashoffset="0" style="mix-blend-mode: normal"><path d="M233.88178,171.35917c-0.00017,-0.21066 0.05889,-0.3622 0.1439,-0.47121c-0.44452,-0.32212 -0.21641,-0.87475 -0.21641,-0.87475c1.85426,-4.49216 3.89178,-8.72035 6.18991,-13.00288c0.38045,-0.70896 1.91309,-4.28278 2.80113,-4.25791c0.73278,0.02052 0.91841,1.14668 1.31063,1.766c1.04634,1.6522 1.78055,3.62957 2.64256,5.38673c1.10105,2.24444 2.20808,4.48607 3.30319,6.73342c0.40369,0.82843 1.27272,2.29718 0.76455,3.25052c-0.43501,0.81609 -2.57667,0.95149 -3.32462,1.0533c-3.90463,0.53152 -7.74811,1.16212 -11.69123,1.16525l-1.17303,0.00093c0,0 -0.75,0.0006 -0.7506,-0.7494zM235.18541,170.60813l0.6188,-0.00049c3.38736,-0.00269 6.65008,-0.50024 10.00577,-0.9518c0.3581,-0.04819 3.54113,-0.17274 3.70863,-0.51048c0.0781,-0.15748 -0.80028,-1.82931 -0.8086,-1.84614c-1.10746,-2.24128 -2.20215,-4.48898 -3.30319,-6.73342c-0.66064,-1.34668 -1.32128,-2.69337 -1.98192,-4.04005c-0.22021,-0.44889 -0.51908,-0.86714 -0.66064,-1.34668c-0.08752,-0.29649 0.29521,-0.88244 -0.01065,-0.92737c-0.30297,-0.0445 0.03421,0.62628 -0.0636,0.91646c-0.3083,0.91463 -0.91272,1.70097 -1.36911,2.55144c-2.27485,4.23914 -4.28965,8.41931 -6.12511,12.86593c0,0 -0.00341,0.00826 -0.01039,0.0226z"/><path d="M239.77112,162.73885c0.05105,-0.41106 0.42566,-0.7029 0.83672,-0.65185c0.41106,0.05105 0.7029,0.42566 0.65185,0.83672c-0.05105,0.41106 -0.42566,0.7029 -0.83672,0.65185c-0.41106,-0.05105 -0.7029,-0.42566 -0.65185,-0.83672z"/><path d="M243.34993,162.27055c0.05105,-0.41106 0.42566,-0.7029 0.83672,-0.65185c0.41106,0.05105 0.7029,0.42566 0.65185,0.83672c-0.05105,0.41106 -0.42566,0.7029 -0.83672,0.65185c-0.41106,-0.05105 -0.7029,-0.42566 -0.65185,-0.83672z"/><path d="M243.07859,169.09485c0.09084,0.74448 -0.65364,0.83532 -0.65364,0.83532l-1.35928,0.10499c-1.81728,-1.38555 -3.34575,-1.7009 -1.83746,-3.89118c0,0 0.50782,-0.55192 1.05974,-0.0441c0.55192,0.50782 0.0441,1.05974 0.0441,1.05974c-1.05201,0.48845 0.52143,0.85795 1.15209,1.43509l0.75913,-0.1535c0,0 0.74448,-0.09084 0.83532,0.65364z"/><path d="M240.69909,177.94339c-3.60763,0.79411 -7.18454,1.32376 -10.96989,1.48125c-0.92434,0.03846 -4.63284,0.6705 -5.24997,-0.09695c-0.93693,-1.16516 -0.88491,-4.88599 -1.11749,-6.38278c-0.77716,-5.00525 -1.51796,-9.96008 -2.29501,-14.94832c-0.18807,-1.20733 -0.76556,-4.24619 0.09341,-5.24511c1.25844,-1.46349 4.83353,-1.88991 6.6107,-2.15602c5.07639,-0.75988 9.99834,-1.83405 15.16794,-1.90161c3.44668,-0.04505 6.86192,0.37898 10.32389,0.26454c0.83229,-0.02726 2.82675,-0.37031 3.50663,0.22418c2.89567,2.53198 2.67524,10.5644 2.87019,13.95905c0.08734,1.52087 0.90662,4.98081 0.27627,6.34729c-0.10634,0.23052 -2.39747,1.92502 -2.68622,2.14277c-4.14129,1.90421 -8.2043,3.83266 -12.49989,5.22108c-0.16069,0.14849 -0.3535,0.19915 -0.3535,0.19915c-0.7666,0.20143 -1.5283,0.39283 -2.2873,0.5732c-0.40404,0.10523 -0.81057,0.20494 -1.21983,0.29871l-0.01422,0.00326c0,0 -0.06275,0.01438 -0.1557,0.01632zM241.71576,176.17209c5.1573,-1.34524 9.87794,-3.62638 14.74443,-5.8281c0.67969,-0.51912 1.73525,-0.70679 2.0935,-1.48341c0.48282,-1.04668 -0.34174,-4.4142 -0.41174,-5.63297c-0.16114,-2.80599 -0.62096,-5.4282 -0.96303,-8.18501c-0.18072,-1.45648 -0.22781,-3.44668 -1.25515,-4.62105c-0.20954,-0.23953 -2.19335,0.02206 -2.61155,0.03601c-3.46353,0.11446 -6.88305,-0.31066 -10.33011,-0.26434c-5.11089,0.06867 -9.96976,1.13436 -14.98922,1.88571c-1.44301,0.21593 -4.54996,0.50969 -5.63062,1.56969c-0.47022,0.46123 0.07976,3.43328 0.18653,4.11679c0.77906,4.98735 1.51696,9.9452 2.29514,14.94919c0.26444,1.7018 0.19884,3.88645 0.62778,5.48841c0.15439,0.57658 1.18321,-0.18544 1.78003,-0.19509c0.88174,-0.01425 1.56255,-0.04649 2.41507,-0.08197c4.16672,-0.17341 8.06795,-0.80876 12.04892,-1.75385z"/><path d="M230.66416,183.88346c-0.09506,-0.47334 0.17578,-0.70318 0.38083,-0.80686c-2.19209,0.28833 -4.63586,0.7832 -6.75226,0.52514c-6.97326,-0.85028 -7.41448,-9.05841 -8.0815,-14.26359c-1.11202,-4.82211 -1.25986,-9.96387 -1.93805,-14.87571c-0.22582,-1.6355 -0.63516,-5.10784 0.52153,-6.51527c1.20205,-1.46262 5.47813,-2.60595 7.26798,-2.8929c10.54238,-1.64446 20.77975,-2.55749 31.4397,-2.99447c1.1297,0.0921 3.95639,-0.09936 4.88483,0.54518c1.4772,1.02551 1.70383,4.52647 2.09778,6.13103c1.33224,5.4262 3.33077,11.39102 4.02032,16.91533c0.51451,9.69355 -11.7757,12.37444 -18.9935,14.93012c-4.40605,1.55901 -8.98888,3.034 -13.58583,3.8132l-0.37885,0.07643c0,0 -0.73532,0.14767 -0.88299,-0.58765zM232.35145,182.79608c4.28439,-0.79031 8.55064,-2.17465 12.66002,-3.62869c6.34572,-2.24382 18.51977,-4.74413 17.99977,-13.38293c-0.64349,-5.42335 -2.67057,-11.36627 -3.98282,-16.69013c-0.25303,-1.02655 -0.527,-4.63411 -1.48083,-5.24635c-0.70587,-0.45308 -3.21785,-0.2169 -4.07548,-0.28848c-10.57304,0.45384 -20.71978,1.34548 -31.17824,2.97685c-1.50473,0.22726 -5.34327,1.21296 -6.34949,2.37429c-0.826,0.95333 -0.34298,4.22574 -0.18556,5.3448c0.68634,4.87902 0.77983,10.03455 1.92829,14.81485c0.55708,4.30214 0.64696,12.44109 6.77177,13.04069c2.32903,0.22801 4.99202,-0.39484 7.31307,-0.63041c0,0 0.74617,-0.07573 0.8219,0.67043c0.03322,0.32729 -0.09169,0.52559 -0.2424,0.64509z"/><path d="M242.92098,189.00324c0.57895,0.47678 0.10217,1.05573 0.10217,1.05573l-0.85804,1.04191c-0.42972,0.46351 -0.68988,1.18963 -1.28916,1.39054c-1.05939,0.35517 -6.13597,-1.83731 -6.42263,-2.94774c-0.31602,-1.22415 3.14882,-2.72614 3.84554,-2.99294c0,0 0.70225,-0.26334 0.96559,0.4389c0.26334,0.70225 -0.4389,0.96559 -0.4389,0.96559c-0.84376,0.30849 -1.54677,0.9143 -2.32173,1.36876c-0.16183,0.09491 -0.73878,-0.02362 -0.56155,0.03791c1.63093,0.56616 3.99208,2.3918 5.06495,0.78542l0.85804,-1.04191c0,0 0.47678,-0.57895 1.05573,-0.10217z"/><path d="M249.71798,186.38526c-0.03807,-0.74903 0.71096,-0.78711 0.71096,-0.78711l0.54688,-0.0278c1.72602,-0.01753 1.67005,-0.22639 2.03186,-1.74184c0.0767,-0.32127 0.55844,-0.66158 0.35787,-0.92401c-0.11801,-0.15441 -2.72304,-0.07839 -3.15734,-0.07753c0,0 -0.75,0 -0.75,-0.75c0,-0.75 0.75,-0.75 0.75,-0.75c0.88614,0.00156 3.82874,-0.01422 4.34913,0.66668c0.41436,0.54216 -0.00409,1.36641 -0.06461,2.0461c-0.20592,2.31262 -1.29972,2.85906 -3.44077,3.02867l-0.54688,0.0278c0,0 -0.74903,0.03807 -0.78711,-0.71096z"/><path d="M236.98965,198.97905c0.69636,-0.27854 0.9749,0.41781 0.9749,0.41781l0.25082,0.62782c0.99707,2.30534 2.19267,4.54742 2.63822,7.0256c0,0 0.08536,0.48371 -0.27353,0.73731c-0.03624,2.2309 0.01548,4.5034 -0.1913,6.71365c-0.06384,0.68234 0.13825,1.49976 -0.28906,2.03555c-0.59665,0.7481 -5.02886,-0.14645 -5.92121,-0.21379c-0.66308,-0.11693 -1.47839,0.08785 -1.98923,-0.35078c-0.5668,-0.48667 -0.27591,-3.74029 -0.32725,-4.46366c-0.28121,-3.96237 -3.82319,-8.75761 -2.81673,-12.74476c0.52915,-2.09628 3.03463,-4.67412 4.23255,-6.48914c0,0 0.41313,-0.62596 1.03909,-0.21283c0.62596,0.41313 0.21283,1.03909 0.21283,1.03909c-1.09146,1.65373 -3.55286,4.13945 -4.03008,6.03c-0.7963,3.15462 2.08853,7.93243 2.71644,11.00962c0.34502,1.69086 -0.69255,4.90718 1.07527,4.6867c0.99716,0.07526 1.99433,0.15052 2.99149,0.22577c0.61478,0.0464 1.71675,0.97895 1.81223,0.36986c0.39691,-2.53192 -0.0709,-5.81845 0.00249,-8.4604l0.0089,-0.32029c0,0 0.00365,-0.13135 0.06287,-0.28256c-0.51813,-1.98791 -1.5143,-3.85181 -2.33074,-5.7395l-0.26678,-0.66618c0,0 -0.27854,-0.69636 0.41781,-0.9749z"/><path d="M236.72419,218.69724c0,0.75 -0.75,0.75 -0.75,0.75h-0.3882c-0.20996,-0.00127 -0.4305,0.01663 -0.6574,0.05231c-0.00155,0.15556 -0.06124,0.32999 -0.23567,0.50442c-0.45718,0.45718 -0.91435,0.12613 -1.03178,0.0261c-0.10044,-0.01892 -0.19992,-0.03275 -0.29825,-0.04167c-1.59525,0.737 -3.04596,2.15699 -3.00975,3.82336c0.26438,0.48735 1.35575,0.21325 1.94955,0.45077c0.78841,0.31536 1.45501,1.04532 2.30304,1.08876c0.66069,0.03384 0.66147,-1.14943 1.05643,-1.68015c0.73782,-0.99144 1.47564,-1.98289 2.21346,-2.97433c0.02841,-0.17572 0.05175,-0.35111 0.07009,-0.52527c0,0 0.07851,-0.74588 0.82439,-0.66737c0.32832,0.03456 0.49691,0.19843 0.58277,0.37107c0.01499,0.00999 0.03008,0.02063 0.04527,0.03193c0.60167,0.44776 0.15392,1.04943 0.15392,1.04943c-0.08917,0.11983 -0.17798,0.24017 -0.26652,0.36093c-0.70613,3.4875 -3.1928,6.71222 -7.2208,5.76639c-0.87732,-0.20601 -2.36641,-0.61564 -2.83728,-1.56969c-0.73041,-1.47988 -0.4771,-2.91235 0.29709,-4.12546c0.56863,-2.04786 1.49686,-3.14725 3.71454,-2.93297c0.80572,-0.32333 1.62016,-0.50479 2.34688,-0.50856h0.3882c0,0 0.75,0 0.75,0.75z"/><path d="M246.47039,194.33347c-0.04468,0.00659 -0.09266,0.01013 -0.14418,0.01013c-0.75,0 -0.75,-0.75 -0.75,-0.75c0,-0.34534 -0.0321,-3.0205 0.11201,-3.2411c0.19228,-0.29434 3.87619,-2.41427 4.37524,-1.93866c0.35433,0.33768 1.0177,4.35321 0.51423,4.94235c-0.24907,0.29145 -2.69314,1.13931 -3.19135,1.32048zM247.05285,193.00017c0.12709,0.04359 0.22269,0.10995 0.26259,0.14045c0.69444,-0.15711 1.44703,-0.18284 2.0057,-0.60361c0.7513,-0.56585 -0.46658,-2.00308 -0.00337,-2.82166c0.2743,-0.48473 -0.80611,0.80399 -1.31451,1.03145c-1.33796,0.5986 -1.04554,1.01085 -0.95041,2.25337z"/><path d="M249.56122,194.7846c0.75,0 0.75,0.75 0.75,0.75l-0.00145,0.7298c0.45708,3.97771 2.40786,7.33869 1.98582,11.5022c-0.09601,0.93608 -0.53926,2.08253 -0.5274,2.0719c1.36392,-1.22357 3.98099,-1.61928 4.94933,-3.31392c0.03081,-0.05392 -1.44047,-2.7985 -1.54445,-3.00644c-1.4978,-2.99503 -3.03371,-5.96494 -4.59333,-8.92823c0,0 -0.34931,-0.66369 0.31438,-1.013c0.66369,-0.34931 1.013,0.31438 1.013,0.31438c1.56447,2.97249 3.1056,5.95146 4.6076,8.95603c0.35358,0.70729 1.95365,3.11911 1.67704,3.95415c-0.58894,1.77788 -3.32983,2.99135 -4.78134,3.81276c-0.42751,0.24193 -2.07414,1.40942 -2.68036,0.60696c-0.32286,-0.42737 0.00733,-2.96363 0.07338,-3.60762c0.41648,-4.01036 -1.48106,-7.40297 -1.99075,-11.25596l-0.00145,-0.823c0,0 0,-0.75 0.75,-0.75z"/><path d="M247.79388,217.95416c-0.16272,-0.73214 0.56942,-0.89485 0.56942,-0.89485l0.97491,-0.2087c1.93379,-1.08852 4.59481,-2.02163 6.27198,-3.4506c1.18495,-1.00959 2.04694,-4.55573 2.71544,-6.01427c0,0 0.10899,-0.23781 0.33869,-0.36816c-0.98471,-5.20115 -2.8334,-10.10106 -4.50921,-15.12781c0,0 -0.23717,-0.71151 0.47434,-0.94868c0.71151,-0.23717 0.94868,0.47434 0.94868,0.47434c1.8194,5.45893 3.83016,10.76972 4.7618,16.46642c0.25099,-0.35655 0.7318,-0.27642 0.7318,-0.27642l0.84961,0.1416c0.67574,0.13602 2.50295,0.21584 2.99658,-0.60409c0.39037,-0.64841 -0.59898,-1.40735 -0.71373,-2.15545c-0.04945,-0.32236 0.2868,-0.82417 -0.00056,-0.9784c-0.72248,-0.38776 -1.45797,0.76373 -2.23242,1.0331c0,0 -0.70837,0.24639 -0.95476,-0.46198c-0.10915,-0.3138 -0.03093,-0.53695 0.09006,-0.68817l-0.13369,-0.80213c-0.99321,-5.98811 -3.93272,-11.71694 -6.03312,-17.38803c0,0 -0.26049,-0.70331 0.44283,-0.9638c0.70331,-0.26049 0.9638,0.44283 0.9638,0.44283c2.13658,5.76878 5.08651,11.5727 6.10609,17.6624l0.06917,0.41504c0.93674,-0.32046 2.15174,-0.69956 2.3914,-0.57093c0.6069,0.32573 0.52821,1.27364 0.74424,1.92768c0.09775,0.29596 0.76019,2.87605 0.63851,3.12081c-0.7949,1.59895 -3.27575,1.68185 -4.62101,1.49072l-0.84961,-0.1416c0,0 -0.30442,-0.05074 -0.49016,-0.2824c-0.08099,0.19481 -0.25643,0.39748 -0.63478,0.42061c-0.19697,0.01204 -0.34528,-0.03091 -0.4569,-0.10075c-0.66289,1.80278 -1.41032,4.2581 -2.53223,5.29639c-1.74664,1.61645 -4.75205,2.68706 -6.84038,3.83404l-1.18195,0.27067c0,0 -0.73214,0.16272 -0.89485,-0.56942z"/><path d="M244.67857,219.05824c-0.7492,0.03456 -0.78377,-0.71464 -0.78377,-0.71464l-0.0418,-0.95267c-0.53408,-2.64992 -0.5625,-7.33002 -2.36644,-9.33402c0,0 -0.48809,-0.56944 0.08135,-1.05754c0.56944,-0.48809 1.05754,0.08135 1.05754,0.08135c2.01862,2.44082 2.10159,7.03154 2.71645,10.12804l0.05131,1.06571c0,0 0.03456,0.7492 -0.71464,0.78377z"/><path d="M255.54003,225.81425c0,-0.75 0.75,-0.75 0.75,-0.75l1.07015,0.00597c0.96105,-0.25386 2.69967,-0.2789 3.49708,-0.72922c0.9876,-0.55772 -0.33784,-2.2457 -0.41362,-3.37737c-0.08599,-1.28409 -0.18521,-2.52839 -0.31551,-3.75778c-0.11267,0.13682 -0.24253,0.20802 -0.24253,0.20802l-0.91642,0.50223c-0.8493,0.51712 -1.69863,1.03417 -2.548,1.55118c0,0 -0.03194,0.01944 -0.08591,0.04252c-0.87162,2.61582 -1.69073,5.14342 -2.26157,7.84191c-0.17652,0.83448 -0.30997,3.54894 -0.98022,4.14182c-2.98627,2.64158 -9.79432,0.95421 -10.87159,-2.5206c-0.98516,-3.50278 0.21551,-5.45471 1.57889,-8.72681l0.28031,-0.67275c0,0 0.28846,-0.69231 0.98077,-0.40385c0.69231,0.28846 0.40385,0.98077 0.40385,0.98077l-0.28031,0.67275c-1.24094,2.97826 -2.39549,4.62924 -1.51953,7.74377c0.62666,2.59889 6.11155,3.42454 8.31548,1.92016c0.19999,-0.13651 0.55106,-3.09695 0.62483,-3.4457c0.58683,-2.77411 1.42875,-5.37387 2.32533,-8.06361c0,0 0.11128,-0.33384 0.41006,-0.46795c0.11013,-0.20835 0.29969,-0.32373 0.29969,-0.32373c0.85903,-0.52289 1.7181,-1.04572 2.57719,-1.5685l0.946,-0.51889c0,0 0.48093,-0.26368 0.84574,0.07121c-0.22064,-1.80821 -0.52022,-3.59909 -0.95643,-5.453c0,0 -0.17178,-0.73006 0.55828,-0.90184c0.73006,-0.17178 0.90184,0.55828 0.90184,0.55828c0.83255,3.53832 1.1838,6.86769 1.42639,10.49016c0.04824,0.72042 0.68519,3.78161 0.13453,4.35369c-0.76214,0.79178 -3.42853,1.06367 -4.52573,1.34118l-1.25906,0.00597c0,0 -0.75,0 -0.75,-0.75z"/><path d="M241.39657,231.80224c0.74082,0.11697 0.62385,0.85779 0.62385,0.85779l-0.15426,0.97696c-0.69933,4.10633 3.51062,7.13261 7.48118,6.46882c1.49371,-0.24971 4.81413,-3.47147 3.88236,-5.17405c-0.36152,-0.66059 -1.48051,-0.28934 -2.2018,-0.50573c0,0 -0.71837,-0.21551 -0.50286,-0.93388c0.21551,-0.71837 0.93388,-0.50286 0.93388,-0.50286c0.30235,0.09071 2.80913,0.796 2.97421,1.04707c1.74698,2.65686 -2.14098,6.96067 -4.65805,7.50717c-5.07611,1.1021 -10.14128,-3.06287 -9.39057,-8.14049l0.15426,-0.97696c0,0 0.11697,-0.74082 0.85779,-0.62385z"/><path d="M255.92823,229.69626c0,-0.75 0.75,-0.75 0.75,-0.75l0.33544,0.02886c1.89282,0.54119 3.26072,0.74694 5.10265,-0.12597c0.50931,-0.24137 1.71587,-0.65459 1.3204,-1.05617c-0.52624,-0.53436 -1.50368,-0.06644 -2.24042,-0.20677c0,0 -0.73675,-0.14033 -0.59642,-0.87709c0.14033,-0.73675 0.87709,-0.59642 0.87709,-0.59642c0.36828,0.07015 3.03971,0.51809 3.19439,0.82843c1.11458,2.23612 -1.84118,3.60945 -3.38116,3.98161c-1.57766,0.38127 -3.19668,-0.07938 -4.68862,-0.50534l0.07664,0.02886c0,0 -0.75,0 -0.75,-0.75z"/><path d="M246.33514,181.26704c0.55114,-0.50867 1.05981,0.04247 1.05981,0.04247l0.00566,0.00613c3.49193,4.1154 -2.22509,4.42909 -5.17472,5.11505c0,0 -0.73051,0.16989 -0.90039,-0.56062c-0.16989,-0.73051 0.56062,-0.90039 0.56062,-0.90039c1.72609,-0.40142 6.79732,-0.36854 4.41221,-2.6367l-0.00566,-0.00613c0,0 -0.50867,-0.55114 0.04247,-1.05981z"/></g></g></svg>