<svg version="1.1" xmlns="http://www.w3.org/2000/svg" xmlns:xlink="http://www.w3.org/1999/xlink" width="57.3693" height="43.28455" viewBox="0,0,57.3693,43.28455"><g transform="translate(-211.55964,-159.50598)"><g data-paper-data="{&quot;isPaintingLayer&quot;:true}" fill-rule="nonzero" stroke="none" stroke-linecap="butt" stroke-linejoin="miter" stroke-miterlimit="10" stroke-dasharray="" stroke-dashoffset="0" style="mix-blend-mode: normal"><path d="M216.70117,195.85067l-1.93171,-25.89925l54.15948,-7.86994l-14.6667,40.70904z" fill="#ffffff" stroke-width="0"/><path d="M235.43802,178.7908c0.4345,0.4345 0,0.869 0,0.869l-0.30279,0.25819c-1.25841,0.62857 -2.54,1.03368 -3.89608,1.40089c-0.95376,0.25826 -1.35485,0.30759 -2.27972,0.61325c-0.1426,0.04713 -0.56984,0.13224 -0.4219,0.15812c0.66177,0.11574 1.13391,0.31679 1.81557,0.31246c0.58547,-0.00373 1.17102,-0.00195 1.7564,-0.01312c1.48635,-0.02787 3.14524,-0.64322 4.5451,-0.62723c0.48781,0.00557 1.20171,-0.03222 1.40449,0.41149c0.11208,0.24524 -0.71974,1.67374 -1.36293,2.36119c0.6123,-0.11646 1.43434,-0.17921 1.46723,-0.18644c1.89841,-0.41731 3.79594,-1.07081 5.11393,-2.53174c0,0 0.41334,-0.45467 0.86801,-0.04133c0.45467,0.41334 0.04133,0.86801 0.04133,0.86801c-1.70598,1.86399 -4.47379,2.86892 -6.97994,3.13184c-0.22444,0.02355 -2.0151,0.01963 -2.11388,-0.16048c-0.16801,-0.3063 0.2804,-1.57003 0.85538,-2.33708c-0.10151,0.02616 -0.19324,0.04835 -0.26566,0.06526c-1.14401,0.26704 -2.38418,0.25273 -3.54967,0.27525c-1.23285,0.02342 -5.87435,0.27063 -4.49942,-2.24368c0.29522,-0.53986 1.68845,-0.83152 2.0916,-0.94262c1.67139,-0.46057 3.30237,-0.8333 4.86055,-1.61322l-0.01661,-0.02799c0,0 0.4345,-0.4345 0.869,0z" fill="#001026" stroke-width="0.5"/><path d="M234.9092,170.10772c-0.61254,0.04877 -0.6613,-0.56377 -0.6613,-0.56377l-0.05265,-0.6923c0.08139,-0.80648 0.22233,-1.61473 0.47524,-2.38484c0.12926,-0.39359 0.20864,-0.80753 0.3897,-1.18015c2.01544,-4.14764 3.47362,3.25257 5.74584,3.59741c0.31786,0.04824 0.33982,-0.54715 0.53603,-0.80184c0.48912,-0.6349 0.93771,-1.21698 1.42882,-1.77801c0.00001,-0.00056 0.00001,-0.00111 0.00002,-0.00167l0.00152,-0.00008c0.01111,-0.01269 0.02225,-0.02537 0.03341,-0.03805l-0.06248,-0.0284l0.35196,-0.77432c0.09385,-0.21926 0.31156,-0.37288 0.56516,-0.37288c0.33936,0 0.61447,0.27511 0.61447,0.61447c0,0.0856 -0.0175,0.16711 -0.04912,0.24115l-0.24771,0.61928c0.02706,1.60641 0.54039,2.72548 1.29772,4.14473c0,0 0.28916,0.54218 -0.25302,0.83135c-0.54218,0.28916 -0.83135,-0.25302 -0.83135,-0.25302c-0.57988,-1.08781 -1.00522,-2.02496 -1.23262,-3.06437c-0.54524,0.94708 -1.38234,1.86203 -2.02444,1.88387c-1.3841,0.04708 -4.44991,-3.69377 -4.9612,-4.84268c0.04468,0.11413 0.18999,0.60708 -0.13567,1.58839c-0.21566,0.64985 -0.34599,1.3307 -0.41337,2.01207l0.04883,0.58234c0,0 0.04877,0.61254 -0.56377,0.6613z" fill="#001026" stroke-width="0.5"/><path d="M258.26802,181.03603c-0.40753,0.10659 -0.60876,-0.13925 -0.69502,-0.30442l-0.38016,-0.03635c0,0 -0.61142,-0.06114 -0.55028,-0.67257c0.03413,-0.34128 0.2397,-0.47302 0.41469,-0.52281c-2.0835,-4.19761 -6.49318,-9.69363 -11.12271,-10.32648c0,0 -0.6083,-0.0869 -0.5214,-0.6952c0.0869,-0.6083 0.6952,-0.5214 0.6952,-0.5214c0.77701,0.11507 1.54523,0.34524 2.29729,0.66903c0.01699,-0.00611 0.02696,-0.00888 0.02696,-0.00888c3.40048,-0.94444 6.36191,-3.04367 8.7551,-5.64512c0.42006,-0.45662 2.6023,-3.56782 3.30209,-3.46328c1.52632,0.22803 1.89692,3.91001 2.28596,5.07715c0.40566,1.62184 2.95891,-0.16865 4.22871,-0.70601l0.63547,-0.3004c0.08255,-0.04124 0.17569,-0.06445 0.27425,-0.06445c0.33936,0 0.61447,0.27511 0.61447,0.61447c0,0.04565 -0.00498,0.09014 -0.01442,0.13295l-0.1406,0.70301l-0.23431,-0.04686c-0.45072,1.60564 -1.73776,2.74804 -1.97482,4.56756c-0.21886,1.6798 2.18221,2.14931 1.69948,4.17412c-0.25018,1.04937 -1.38014,1.71075 -2.16613,2.2718c-1.77129,1.26438 -3.18048,2.90106 -5.05401,4.04729c-0.74556,0.34061 -1.28202,0.55121 -1.94908,0.68316c-0.04802,0.15084 -0.1643,0.30504 -0.42674,0.37368zM260.06606,178.89453c1.82177,-1.11187 3.18989,-2.72786 4.9132,-3.9596c0.5259,-0.37589 1.48471,-0.8803 1.69729,-1.59162c0.38776,-1.29748 -1.87367,-2.41075 -1.73467,-3.982c0.0583,-0.65897 0.80682,-2.7494 1.61237,-3.92489c-1.914,0.91021 -4.09872,1.98407 -4.94884,-0.47567c-0.13006,-0.39019 -0.95698,-4.19592 -1.14819,-4.22368c-0.46839,-0.068 -0.43872,0.85029 -0.75446,1.20288c-0.05937,0.0663 -1.56412,1.81346 -1.61107,1.8644c-2.27091,2.46345 -5.01909,4.49415 -8.15061,5.62094c3.69453,2.25409 6.83954,6.54682 8.46754,10.05065c0.58379,-0.10693 1.00626,-0.28082 1.65743,-0.58141z" fill="#001026" stroke-width="0.5"/><path d="M247.3589,196.00337c0.60733,-0.09344 0.70076,0.51389 0.70076,0.51389l0.13303,0.87913c0.02099,0.06744 0.05634,0.15363 0.09425,0.24574c0.29056,-0.46575 0.84169,-1.07789 1.05743,-1.46684c0.89863,-1.6201 1.52054,-3.30315 2.10389,-5.05323c0,0 0.11707,-0.35121 0.44208,-0.41755c-0.08611,-0.07854 -0.15589,-0.19687 -0.18126,-0.37441c-0.0869,-0.6083 0.5214,-0.6952 0.5214,-0.6952l0.51986,-0.07396c0.22364,-0.02465 0.44728,-0.0493 0.67093,-0.07394c0.6745,-0.0156 1.35402,-0.01593 2.03459,-0.01609c-1.29034,-0.39407 -2.58841,-0.76411 -3.92547,-0.75957c0,0 -0.56174,0 -0.61103,-0.53709c-0.38081,2.2993 -1.48216,4.4483 -3.37735,5.92015c0.21804,0.2166 0.15716,0.55143 0.15716,0.55143c-0.10213,0.53072 -0.28801,0.99682 -0.53655,1.41441c0.05553,-0.02551 0.12044,-0.04519 0.19628,-0.05686zM252.61415,191.51069c-0.74286,2.22858 -1.62453,4.30602 -2.82387,6.32963c-0.16469,0.27787 -0.89494,1.67548 -1.35718,1.6722c-1.02133,-0.00726 -1.21454,-1.19364 -1.43494,-1.82734l-0.15315,-0.98104c0,0 -0.01159,-0.07536 -0.00007,-0.17706c-0.75945,0.98697 -1.8817,1.6925 -3.00332,2.39421c-0.32901,0.20583 -1.72747,1.08651 -2.00712,0.89702c-1.53879,-1.04272 0.26404,-4.30695 0.42993,-5.57863l0.07446,-0.44869c0,0 0.10102,-0.60611 0.70713,-0.50509c0.60611,0.10102 0.50509,0.70713 0.50509,0.70713l-0.06863,0.40985c-0.19264,1.40557 -1.14189,2.88462 -1.14406,4.29457c-0.00022,0.14076 0.04577,-0.29829 0.14734,-0.39574c0.47583,-0.45656 1.13671,-0.67123 1.6781,-1.04773c1.00219,-0.69696 1.91412,-1.32927 2.2449,-2.47011c-0.72628,0.34551 -1.66589,0.66804 -2.05721,0.42538c-0.40551,-0.25145 -0.45931,-0.86081 -0.51835,-1.33428c-0.18892,-1.51509 1.2154,-3.65532 1.21997,-5.35083c-0.06762,-0.28715 -0.13523,-0.5743 -0.20285,-0.86145l-0.23104,-0.17406c0,0 -0.39338,-0.47205 0.07868,-0.86543c0.47205,-0.39338 0.86543,0.07868 0.86543,0.07868l0.48441,0.68448c0.07547,0.33291 0.15095,0.66581 0.22642,0.99872c0.00269,1.22739 -0.09178,2.29242 -0.45362,3.47339c-0.00301,0.00981 -0.56671,1.56098 -0.57827,1.59182c-0.08761,0.23371 -0.51811,0.72313 -0.26974,0.69849c3.23536,-0.32103 4.87113,-5.23312 4.87014,-7.84051c0,0 0,-0.61447 0.61447,-0.61447c0.61447,0 0.61447,0.61447 0.61447,0.61447c-0.00018,0.50279 -0.03267,1.00514 -0.09819,1.50184c0.1528,-0.32769 0.55689,-0.32769 0.55689,-0.32769c2.24713,0.00667 4.33681,0.94634 6.50567,1.44663l-0.06663,-0.01574c0,0 0.53827,0 0.60723,0.50378c0.1238,-0.00644 0.24743,-0.01365 0.37087,-0.02173c0.96265,-0.06301 1.39748,-0.21001 2.34844,-0.37841c0.13187,-0.02335 0.33233,-0.0838 0.53463,-0.14291c-0.49017,-0.20046 -1.08289,-0.62306 -1.33229,-0.74153c-1.87337,-0.88985 -3.83598,-2.00337 -5.93527,-2.14142c0,0 -0.61291,-0.04378 -0.56913,-0.65669c0.04001,-0.56021 0.55549,-0.57181 0.64385,-0.56966c-0.0015,-0.01931 -0.0015,-0.03047 -0.0015,-0.03047l0.01574,-0.3528c0.23561,-1.02067 0.64245,-2.26375 0.15152,-3.24806c-0.21467,-0.12779 -0.28671,-0.37993 -0.28671,-0.37993l-0.08118,-0.35685c-1.92908,-3.26222 -4.42477,-5.08678 -7.48156,-7.25201c0,0 -0.50143,-0.35518 -0.14625,-0.8566c0.35518,-0.50143 0.8566,-0.14625 0.8566,-0.14625c3.1972,2.26469 5.80819,4.2119 7.82904,7.62932l0.1603,0.50418c0.14541,0.10383 0.21811,0.24924 0.21811,0.24924c0.64269,1.35598 0.30233,2.72566 -0.02241,4.13331l0.01574,0.07646c0,0 0,0.09062 -0.0348,0.20227c2.04688,0.43202 3.95679,1.50254 5.83583,2.39019c1.05651,0.49909 3.23941,1.14242 1.27544,2.58142c-2.0568,1.50701 -7.0088,0.75276 -9.43873,0.8051c-0.20563,0.02305 -0.41126,0.0461 -0.61688,0.06915l-0.44444,0.06377c0.31205,0.24601 0.17253,0.66455 0.17253,0.66455z" fill="#001026" stroke-width="0.5"/><path d="M237.64546,187.66236c0.4345,-0.4345 0.869,0 0.869,0l0.0143,0.02101c1.43526,1.1168 2.81874,1.99685 4.71284,1.80532c0,0 0.61142,-0.06114 0.67257,0.55028c0.06114,0.61142 -0.55028,0.67257 -0.55028,0.67257c-2.22376,0.22009 -3.89789,-0.74289 -5.58962,-2.0581l-0.12879,-0.12208c0,0 -0.4345,-0.4345 0,-0.869z" fill="#001026" stroke-width="0.5"/><path d="M237.68012,190.52939c0,-0.33936 0.27511,-0.61447 0.61447,-0.61447c0.33936,0 0.61447,0.27511 0.61447,0.61447c0,0.33936 -0.27511,0.61447 -0.61447,0.61447c-0.33936,0 -0.61447,-0.27511 -0.61447,-0.61447z" fill="#001026" stroke-width="0.5"/><path d="M231.86601,185.10885c0.34085,0.51127 -0.17042,0.85212 -0.17042,0.85212l-0.65146,0.43422c-1.42587,0.85302 -3.00157,0.48828 -4.33924,-0.44548c0,0 -0.50002,-0.35716 -0.14286,-0.85717c0.35716,-0.50002 0.85717,-0.14286 0.85717,-0.14286c0.84778,0.62483 2.04309,1.02464 2.95834,0.41306l0.63635,-0.42431c0,0 0.51127,-0.34085 0.85212,0.17042z" fill="#001026" stroke-width="0.5"/><path d="M227.80692,188.1684c0,-0.33936 0.27511,-0.61447 0.61447,-0.61447c0.33936,0 0.61447,0.27511 0.61447,0.61447c0,0.33936 -0.27511,0.61447 -0.61447,0.61447c-0.33936,0 -0.61447,-0.27511 -0.61447,-0.61447z" fill="#001026" stroke-width="0.5"/><path d="M227.46082,193.22232c0.52659,-0.31667 0.84326,0.20991 0.84326,0.20991l0.45407,0.76812c0.46088,0.41092 0.95376,0.78581 1.4722,1.12051c0.03071,-0.32956 0.36607,-0.48434 0.36607,-0.48434c0.36277,-0.16704 0.80019,-0.38355 1.28914,-0.61913c0.02117,-0.58214 0.61389,-0.58214 0.61389,-0.58214h0.07154c0.16772,0.00087 0.33061,0.01263 0.48939,0.03388c2.62636,-1.17313 6.02453,-2.26278 7.72101,-0.01319c2.09785,2.78183 -1.68444,3.6403 -3.65752,3.33089c-1.33499,-0.56599 -2.57265,-1.79102 -3.97595,-2.06679c-0.62085,0.31447 -1.2453,0.65983 -1.92086,0.97832c1.84269,0.95204 3.92932,1.41985 6.01487,1.24472c0,0 0.61235,-0.05103 0.66338,0.56132c0.05103,0.61235 -0.56132,0.66338 -0.56132,0.66338c-3.51664,0.29093 -6.94664,-1.03692 -9.534,-3.38556l-0.55909,-0.91663c0,0 -0.31667,-0.52659 0.20991,-0.84326zM234.71227,194.2343c0.9135,0.48009 1.76174,1.14213 2.74978,1.57102c0.82556,0.12381 3.60504,0.3023 2.35225,-1.39108c-0.38491,-0.52028 -2.19726,-0.53329 -2.6836,-0.55197c-0.89908,-0.03453 -1.68192,0.1178 -2.41843,0.37203z" fill="#001026" stroke-width="0.5"/><path d="M220.8814,191.12406c0.4785,-0.38551 0.86401,0.09299 0.86401,0.09299l0.48683,0.60453c0.66488,0.90642 1.76099,1.89836 2.51455,2.92595c-0.2306,-1.66923 -0.22423,-3.36642 -0.57548,-5.02164c0,0 -0.12659,-0.60129 0.47471,-0.72788c0.60129,-0.12659 0.72788,0.47471 0.72788,0.47471c0.40341,1.93045 0.32397,3.9165 0.71073,5.84509l0.32062,1.15422c0.01704,0.05636 0.0262,0.11615 0.0262,0.17807c0,0.33936 -0.27511,0.61447 -0.61447,0.61447c-0.14904,0 -0.28568,-0.05306 -0.39207,-0.14132l-0.94851,-0.77439l0.10815,-0.13247c-1.31949,-0.97308 -2.2464,-2.17238 -3.32657,-3.64574l-0.46957,-0.58259c0,0 -0.38551,-0.4785 0.09299,-0.86401z" fill="#001026" stroke-width="0.5"/><path d="M221.58327,183.6385c-0.12051,0.60254 -0.72305,0.48203 -0.72305,0.48203l-0.69868,-0.13998c-0.06352,-0.00908 -0.12698,-0.01787 -0.19036,-0.02638c-0.06166,0.46547 -0.0934,0.94053 -0.09305,1.42398c0,0 0,0.44535 -0.37914,0.57777c-0.03829,0.04329 -0.08012,0.07674 -0.12347,0.10236c0.21468,0.13879 0.27335,0.40283 0.27335,0.40283l0.13543,0.61318c0.13798,0.42084 0.33836,0.82316 0.57334,1.19857c0.30456,0.48656 0.63595,0.95583 0.94828,1.43744c0.07439,0.11471 -0.08702,-0.26673 -0.07621,-0.40302c0.02644,-0.33347 0.10369,-0.66113 0.14211,-0.99343c0.10753,-0.93026 0.26425,-1.85023 0.35687,-2.7822c0,0 0.06114,-0.61142 0.67257,-0.55028c0.61142,0.06114 0.55028,0.67257 0.55028,0.67257c-0.09133,0.90794 -0.04726,4.05043 -0.67975,4.7261c-1.66748,1.78133 -3.25192,-1.7332 -3.67183,-2.97769l-0.15075,-0.67463c0,0 -0.1029,-0.46304 0.27895,-0.66587l-0.1048,-0.03506c-1.77807,-0.65031 -3.52755,-1.32014 -5.25753,-2.08873c-0.49392,-0.21944 -1.94936,-0.61656 -1.79471,-1.5703c0.08908,-0.54934 1.54623,-1.25071 1.97647,-1.47222c2.02861,-1.04444 4.14055,-1.89022 6.34477,-2.47861c0,0 0.54043,-0.14412 0.72758,0.35825c1.46145,-2.27143 3.63174,-4.10083 6.15333,-5.27517l0.88859,-0.41256c0,0 0.02215,-0.01028 0.05967,-0.02234c0.07332,-0.04795 0.13219,-0.06936 0.13219,-0.06936c4.27861,-1.5537 8.63089,-1.78809 13.11584,-2.11024l0.54459,-0.00156c0,0 0.61447,0 0.61447,0.61447c0,0.61447 -0.61447,0.61447 -0.61447,0.61447l-0.45703,-0.00156c-4.3673,0.31028 -8.61814,0.52253 -12.78341,2.03937c0,0 -0.00537,0.00195 -0.01526,0.00496c-0.04613,0.03115 -0.07906,0.04644 -0.07906,0.04644l-0.88859,0.41256c-3.43153,1.58797 -6.17619,4.5111 -7.08815,8.13139c0.05542,0.00752 0.1109,0.01524 0.16642,0.02316l0.73221,0.1462c0,0 0.60254,0.12051 0.48203,0.72305zM215.08847,182.54632c1.31573,-0.05479 2.59514,-0.0452 3.88546,0.06452c0.2498,-1.04938 0.6375,-2.04746 1.14142,-2.98132c-1.8582,0.5028 -3.6083,1.20858 -5.3425,2.04089c-0.5985,0.28724 -1.29501,0.89836 -1.98251,0.85145c-0.36773,-0.02509 0.72833,0.14461 1.06709,0.28987c0.21554,0.09243 0.42969,0.18805 0.64363,0.28416c0.03487,-0.52655 0.58741,-0.54957 0.58741,-0.54957zM218.66669,184.73473c0.01655,-0.30701 0.04471,-0.61074 0.08403,-0.91094c-0.90997,-0.073 -1.81465,-0.09313 -2.73268,-0.07628c0.87448,0.34982 1.76302,0.66598 2.64865,0.98722z" fill="#001026" stroke-width="0.5"/></g></g></svg>