<svg version="1.1" xmlns="http://www.w3.org/2000/svg" xmlns:xlink="http://www.w3.org/1999/xlink" width="128.89363" height="153.90512" viewBox="0,0,128.89363,153.90512"><defs><linearGradient x1="193.38898" y1="144.38045" x2="197.59607" y2="190.95618" gradientUnits="userSpaceOnUse" id="color-1"><stop offset="0" stop-color="#cc2981"/><stop offset="1" stop-color="#a92292"/></linearGradient><linearGradient x1="303.41385" y1="143.94412" x2="295.82941" y2="190.09033" gradientUnits="userSpaceOnUse" id="color-2"><stop offset="0" stop-color="#cc2981"/><stop offset="1" stop-color="#a92292"/></linearGradient><linearGradient x1="279.40136" y1="213.14454" x2="279.40136" y2="237.25755" gradientUnits="userSpaceOnUse" id="color-3"><stop offset="0" stop-color="#9966ff"/><stop offset="1" stop-color="#66ebff"/></linearGradient><linearGradient x1="309.62405" y1="208.89782" x2="309.62405" y2="237.33108" gradientUnits="userSpaceOnUse" id="color-4"><stop offset="0" stop-color="#9966ff"/><stop offset="1" stop-color="#66ebff"/></linearGradient><radialGradient cx="230.24877" cy="205.85558" r="5.02555" gradientUnits="userSpaceOnUse" id="color-5"><stop offset="0" stop-color="#54606d"/><stop offset="1" stop-color="#2c3136"/></radialGradient></defs><g transform="translate(-184.59458,-84.54406)"><g data-paper-data="{&quot;isPaintingLayer&quot;:true}" fill-rule="nonzero" stroke-miterlimit="10" stroke-dasharray="" stroke-dashoffset="0" style="mix-blend-mode: normal"><g data-paper-data="{&quot;index&quot;:null}" stroke="#000000" stroke-width="0.90024" stroke-linecap="round" stroke-linejoin="miter"><path d="M282.83088,162.4481c0,0 3.73535,-13.08645 3.9796,-13.73893c0.2442,-0.65235 1.61467,-6.41914 10.64962,-12.53774c0,0 7.19805,30.77565 -4.26613,44.16393c-0.0004,-0.00082 -2.46277,-8.61177 -10.36311,-17.88725zM282.9959,162.64431c-0.63482,-0.77589 -2.01903,-2.0191 -2.01903,-2.0191M293.52748,182.80046c0,0 -0.08605,-1.60073 -0.33389,-2.4659" fill="#be1e2d"/><path d="M296.8756,173.16732c0,0 -1.99784,-0.41397 -3.94807,-4.01366c-1.2134,-2.23112 -2.22659,-6.88065 -2.22659,-6.88065l-0.01667,0.17207c0.27981,-1.04368 0.53442,-2.22817 0.68542,-3.46559c0.25726,-2.09407 0.30343,-5.0701 0.26572,-7.96353l0.01359,-0.40767c0,0 0.85205,-5.68486 6.64284,-9.15621l0.0881,0.00434c0.76775,4.8365 1.6842,12.03158 1.42754,17.37404c-0.28772,5.9928 -1.61004,10.8841 -2.99682,14.47531l0.06496,-0.13845v0v0v0v0v0zM289.39624,166.00457c0,0 1.11877,-3.10345 1.3047,-3.73158" fill="#929497"/></g><g data-paper-data="{&quot;index&quot;:null}" stroke="#000000" stroke-width="0.90024" stroke-linecap="round" stroke-linejoin="miter"><path d="M201.07263,181.65846c-10.803,-13.92621 -2.1262,-44.31809 -2.1262,-44.31809c8.72838,6.54891 9.81856,12.37519 10.03138,13.03779c0.21277,0.66268 3.31102,13.91519 3.31102,13.91519c-8.34057,8.88321 -11.21621,17.36512 -11.21621,17.36512zM214.22747,162.56248c0,0 -1.44268,1.17486 -2.11416,1.91922M201.07263,181.65846c-0.28946,0.85213 -0.45267,2.44688 -0.45267,2.44688" fill="#be1e2d"/><path d="M197.79948,174.46308c-1.21118,-3.65483 -2.29479,-8.60388 -2.29388,-14.60327c0.00102,-5.34904 1.26499,-12.49095 2.26549,-17.28475l0.08829,-0.00003c5.61664,3.74834 6.1926,9.46653 6.1926,9.46653l-0.00613,0.40785c-0.17758,2.88817 -0.2752,5.86301 -0.11944,7.96707c0.09102,1.24326 0.2881,2.43867 0.51714,3.49466l-0.00834,-0.17268c0,0 -1.2367,4.59514 -2.55659,6.76497c-2.12181,3.50129 -4.13742,3.81818 -4.13742,3.81818zM204.43522,163.73847c0.15535,0.63638 1.12284,3.79026 1.12284,3.79026" fill="#929497"/></g><path d="M201.9556,143.71431c0,0 3.47874,-39.2396 51.31809,-38.58039c32.82726,0.45236 43.67872,39.35939 43.67872,39.35939" data-paper-data="{&quot;index&quot;:null}" fill="none" stroke="#000000" stroke-width="7" stroke-linecap="round" stroke-linejoin="miter"/><path d="M243.37296,214.83396v0v0v0v0v0c-0.65353,1.7331 -2.41972,4.79054 -3.32155,5.48062c0,0 -3.65069,2.53988 -5.44999,0.91126c-0.76912,-0.69561 -0.9627,-1.6474 -0.71963,-2.78219c-0.35537,-0.21778 -0.82794,-0.6047 -0.93459,-1.22797c-0.17847,-1.03339 1.99919,-1.29088 1.99919,-1.29088l-0.00425,0.01842c0.1636,-0.27262 0.3322,-0.54326 0.52392,-0.82614c1.08952,-1.5966 3.14642,-3.63079 4.21524,-4.78494c0,0 0.9002,-1.02768 2.4465,-0.63804c1.64509,0.41426 1.89868,3.40676 1.24515,5.13985z" data-paper-data="{&quot;index&quot;:null}" fill="#be1e2d" stroke="#231f20" stroke-width="0.78672" stroke-linecap="round" stroke-linejoin="round"/><path d="M258.22143,217.36084v0v0v0v0c0,0 -3.46029,2.79337 -5.36972,1.29263c-0.82038,-0.6352 -1.07667,-1.57444 -0.91815,-2.72422c-0.37259,-0.19113 -0.86805,-0.5414 -1.02052,-1.15659c-0.25199,-1.01661 1.90166,-1.43279 1.90166,-1.43279l-0.00279,0.01787c0.14535,-0.28038 0.29365,-0.56521 0.46342,-0.86146c0.97422,-1.66721 2.87946,-3.84715 3.86174,-5.07474c0,0 1.28923,-1.15117 2.51557,-0.6503c1.2264,0.49988 1.65391,2.66047 1.40303,3.5905c-0.25169,0.93009 -1.35917,5.48766 -2.83423,6.99909z" data-paper-data="{&quot;index&quot;:null}" fill="#be1e2d" stroke="#231f20" stroke-width="0.78672" stroke-linecap="round" stroke-linejoin="round"/><path d="M252.91363,218.20271c1.58098,-0.36581 3.46597,0.19223 3.46597,0.19223c0,0 0.56085,5.18662 0.71651,7.06071c0.15651,1.87685 0.95861,4.84261 0.95861,4.84261c0,0 0.4701,0.31822 0.29134,1.07108c-0.18236,0.75085 -1.86057,0.80561 -3.97704,1.08774c-2.11262,0.27774 -3.8035,-0.15416 -4.09102,-0.92026c-0.29041,-0.76265 0.34728,-1.07532 0.34728,-1.07532c0,0 1.31474,-6.08433 0.54476,-8.24589c0.00424,0.00474 -0.27212,-3.54671 1.74359,-4.0129z" data-paper-data="{&quot;index&quot;:null}" fill="#be1e2d" stroke="#231f20" stroke-width="0.90024" stroke-linecap="round" stroke-linejoin="round"/><path d="M246.17528,218.40698v0v0v0v0v0c2.73305,1.44176 2.88852,4.03625 2.88927,4.03899c-0.67838,2.18579 0.81309,7.43393 0.81309,7.43393c0,0 0.65152,0.28141 0.39942,1.05634c-0.25589,0.77652 -1.92229,1.28462 -4.04977,1.09903c-2.12379,-0.18729 -3.80185,-0.16759 -4.01753,-0.91257c-0.21568,-0.74499 0.24129,-1.0821 0.24129,-1.0821c0,0 0.14699,-1.75636 0.21803,-3.63861c0.06884,-1.87697 0.04697,-7.0409 0.04697,-7.0409c0,0 1.66873,-1.89911 3.45924,-0.95411z" data-paper-data="{&quot;index&quot;:null}" fill="#be1e2d" stroke="#231f20" stroke-width="0.90024" stroke-linecap="round" stroke-linejoin="round"/><g data-paper-data="{&quot;index&quot;:null}" stroke-width="0.90024"><path d="M257.38982,211.83662v0v0v0v0v0c0.25922,2.82028 -0.69256,7.93472 -3.99813,9.56548c-3.26933,1.60933 -6.6187,1.1837 -9.97254,-1.38797c-2.77873,-2.13145 -2.39687,-7.76524 -1.9199,-10.90265v0c0,0 0.42446,-7.29579 6.61538,-7.85412c6.18901,-0.55833 8.72971,5.19879 9.01056,8.71805c0.11517,0.62313 0.20798,1.25765 0.26464,1.86121z" fill="#be1e2d" stroke="#000000" stroke-linecap="butt" stroke-linejoin="miter"/><path d="M255.25185,219.75878v0v0v0v0v0l-0.0232,0.14203c-0.50717,0.62467 -1.11659,1.14452 -1.83596,1.49953c-3.02831,1.49099 -6.12396,1.23638 -9.22949,-0.8536l-0.02527,-0.14562c0,0 -1.18601,-9.37426 4.75328,-9.4605c6.744,-0.09479 6.48897,7.26819 6.36065,8.81816z" fill="#e6e7e8" stroke="#231f20" stroke-linecap="round" stroke-linejoin="round"/></g><g data-paper-data="{&quot;index&quot;:null}" stroke="#000000" stroke-linecap="butt" stroke-linejoin="miter"><g><g stroke-width="0.4"><path d="M276.08468,234.41991l-0.04384,-0.00556c-1.44913,-0.13957 -3.3012,-0.8257 -3.97485,-1.45446l-0.10257,0.0956l-1.13897,-0.47477l0.31227,-0.24915c0.03465,-0.02906 3.49176,-2.82304 3.66823,-5.99681l0.01808,-0.32645l0.30467,0.11939c0.16202,0.06452 0.53244,0.23485 0.64257,0.48822l0.04444,0.01974c1.6936,0.75971 3.27891,0.75288 3.72483,0.73232l0.24121,-0.00359c0.11126,0.03183 0.4489,0.12701 0.47455,0.41645c0.02573,0.29135 -0.30925,0.47909 -0.49521,0.55203c-0.09051,0.00794 -0.18205,0.01406 -0.27558,0.01838c-1.33669,0.06163 -2.96784,-0.22667 -3.75747,-0.63994c-0.02764,0.16031 -0.0692,0.34683 -0.12968,0.55505c1.64471,0.70518 3.16177,0.69577 3.59631,0.67574l0.24416,-0.00177c0.11031,0.03182 0.44796,0.12705 0.4736,0.41644c0.02573,0.29136 -0.30829,0.47905 -0.49425,0.55199c-0.08955,0.00794 -0.18205,0.01406 -0.27558,0.01838c-1.44344,0.06656 -3.22944,-0.27421 -3.90955,-0.71431c-0.08215,0.1685 -0.17185,0.33736 -0.26922,0.50466c1.86024,0.94611 3.6043,0.91112 3.70717,0.92531c0.10786,0.03951 0.43806,0.15873 0.44206,0.45108c0.00404,0.2923 -0.34357,0.45226 -0.53494,0.51124c-1.51477,0.01779 -3.52674,-0.50192 -4.17202,-1.04871c-0.13376,0.17846 -0.28147,0.36324 -0.44136,0.54954c1.75436,0.96896 3.41106,1.03173 3.51039,1.0508c0.10625,0.04621 0.42885,0.18565 0.41768,0.4768c-0.01312,0.29029 -0.36818,0.43257 -0.56287,0.48035c-1.45887,-0.06337 -3.35093,-0.65111 -4.06257,-1.26201c-0.13585,0.13403 -0.27821,0.26937 -0.42896,0.4079c1.68258,1.03473 3.30362,1.18625 3.40225,1.21102c0.10272,0.05114 0.4166,0.20611 0.38926,0.49614c-0.02826,0.29098 -0.39084,0.41372 -0.50208,0.44441z" fill="#871212"/><path d="M275.04134,226.35036c-0.18394,3.3199 -3.7569,6.16753 -3.7569,6.16753l0.62935,0.26346l0.16886,-0.15734c0.00722,0.01292 0.00848,0.01949 0.01669,0.03427c0.3256,0.53215 2.36449,1.36871 3.96399,1.52595c0,0 0.69364,-0.19103 0.06971,-0.50023c0,0 -1.83895,-0.15567 -3.68707,-1.39197c0.30302,-0.2658 0.57514,-0.52353 0.82089,-0.7772c0.01134,0.01936 0.0158,0.03427 0.03102,0.05631c0.35317,0.51481 2.43424,1.23958 4.04016,1.30942c0,0 0.68144,-0.22926 0.04205,-0.50462c0,0 -1.86174,-0.05422 -3.78464,-1.20855c0.31068,-0.34566 0.57836,-0.6789 0.79846,-0.9967c0.01955,0.0341 0.03829,0.07018 0.07253,0.11499c0.3816,0.49452 2.49894,1.10311 4.10742,1.08482c0,0 0.66747,-0.26558 0.01465,-0.50336c0,0 -1.91643,0.05332 -3.93214,-1.04085c0,0 -0.01417,0.00066 -0.0341,-0.00033c0.22938,-0.36366 0.40114,-0.70292 0.5317,-1.01378c0.02024,0.02843 0.03572,0.05704 0.06668,0.09161c0.39498,0.43618 2.34489,0.86221 3.91018,0.79004c0.08972,-0.00413 0.17846,-0.01013 0.2661,-0.01794c0,0 0.64627,-0.31476 -0.0233,-0.50543c0,0 -0.05935,0.00655 -0.16891,0.0116c-0.51009,0.02351 -2.10721,0.0214 -3.83077,-0.75108c0,0 -0.00185,0.00009 -0.00566,0.00026c-0.01132,0.00052 -0.03863,0.00364 -0.07152,0.00897c0.16425,-0.4828 0.22574,-0.87376 0.24258,-1.14438c0.01008,0.0128 0.01324,0.01928 0.02431,0.03393c0.39498,0.43618 2.34489,0.86221 3.91018,0.79004c0.08972,-0.00413 0.17846,-0.01013 0.2661,-0.01794c0,0 0.64626,-0.31476 -0.02322,-0.50353c0,0 -0.05839,0.00651 -0.16605,0.01147c-0.50823,0.02344 -2.10725,0.02141 -3.83276,-0.75289c0,0 0,0 -0.00095,0.00004c-0.01037,0.00048 -0.10095,0.00652 -0.1819,0.03771c-0.00182,-0.01884 -0.0032,-0.02917 -0.0032,-0.02917c0.19509,-0.2438 -0.4905,-0.51511 -0.4905,-0.51511M274.60582,225.66995l0.60942,0.24174c0.21406,0.08477 0.55886,0.25346 0.72661,0.52501c1.63524,0.72545 3.15901,0.7177 3.58879,0.69788c0.08501,-0.00392 0.13399,-0.00995 0.13965,-0.01021l0.08955,-0.00794l0.08723,0.02344c0.50068,0.14164 0.62794,0.4169 0.64595,0.62246c0.03932,0.44218 -0.40634,0.69373 -0.54427,0.76068l-0.07869,0.03862l-0.0877,0.00786c-0.09337,0.00806 -0.18867,0.01437 -0.285,0.01881c-1.16856,0.05387 -2.67952,-0.15383 -3.59885,-0.52512c-0.00475,0.02009 -0.01032,0.04305 -0.01593,0.06509c1.52364,0.60474 2.89682,0.59629 3.30211,0.5776c0.08597,-0.00396 0.13593,-0.00812 0.14254,-0.00843l0.08946,-0.00985l0.08723,0.02344c0.49987,0.14358 0.62708,0.41885 0.64509,0.62441c0.03932,0.44218 -0.40634,0.69373 -0.54427,0.76068l-0.07869,0.03862l-0.0877,0.00786c-0.09332,0.00807 -0.18867,0.01437 -0.285,0.01881c-1.26776,0.05845 -2.93965,-0.19013 -3.82023,-0.62475c-0.01399,0.02435 -0.02694,0.05144 -0.04099,0.07574c1.71558,0.80508 3.26869,0.77699 3.28477,0.77625l0.08981,-0.00224l0.08472,0.03114c0.48817,0.1772 0.59411,0.46294 0.597,0.6692c0.00617,0.44181 -0.45709,0.66102 -0.59836,0.71774l-0.08163,0.03595l-0.08804,0.00025c-1.32936,0.0149 -3.24568,-0.40129 -4.12626,-0.95991c-0.03936,0.05006 -0.07962,0.10021 -0.12084,0.15131c1.6003,0.81039 3.0466,0.8668 3.06272,0.86797l0.08921,0.00437l0.08299,0.03498c0.47806,0.20517 0.5672,0.49546 0.55881,0.70318c-0.01933,0.44298 -0.49333,0.63427 -0.63875,0.6836l-0.08298,0.02747l-0.08723,-0.0026c-0.31591,-0.01475 -0.66329,-0.0546 -1.02205,-0.11568l0.04747,0.02337c0.46604,0.23219 0.54019,0.52602 0.52025,0.73052c-0.04207,0.44213 -0.52665,0.60836 -0.67441,0.6483l-0.0841,0.02375l-0.08658,-0.00926c-1.29898,-0.12661 -3.1151,-0.73106 -3.95105,-1.36941l-0.05353,0.05076l-0.28189,-0.11858l-0.62926,-0.26162l-0.73747,-0.30773l0.62454,-0.49835c0.03379,-0.02711 3.40954,-2.75865 3.57961,-5.82514l0.03621,-0.65206zM273.27002,232.17734c-0.01356,0.01387 -0.02718,0.0268 -0.04178,0.03887c1.42092,0.80065 2.7181,0.96996 2.91797,0.99293c-1.0934,-0.20517 -2.25399,-0.5947 -2.87619,-1.0318z" fill="#000000"/></g><path d="M252.20987,210.04988c0,0 5.7462,-0.6985 10.31301,3.3897c4.56689,4.09011 3.11153,8.45599 12.98144,12.93208c0,0 0.88252,2.8788 -3.75134,6.76078c0,0 -8.41203,-4.18828 -10.74375,-10.43191c-2.33164,-6.24179 -8.04881,-9.55276 -10.99893,-9.43757l-3.23627,-0.32033z" fill="#ba2915" stroke-width="0.4"/><g fill="#871212" stroke-width="0.4"><path d="M272.92476,225.12074c0,0 0.4049,3.87496 -4.02399,6.35023l-1.1282,-0.83688c0,0 4.0189,-4.3658 3.76954,-6.36596z"/><path d="M269.37462,222.59218c0,0 -0.13794,3.00346 -4.39261,5.68466l-1.36247,-1.31838c0,0 4.15229,-2.54107 4.58414,-5.63761z"/><path d="M266.8897,219.55438c0,0 -0.86555,3.07396 -5.38299,4.34722l-0.70817,-1.66473c0,0 4.71263,-1.72059 5.43825,-3.74296z"/><path d="M264.44138,215.58712c0,0 -0.69325,2.62203 -5.14654,3.7873l-1.05842,-1.35604c0,0 4.8398,-2.4535 5.31083,-3.55063z"/><path d="M259.77889,211.55916c0.33396,0.0982 1.62547,0.9872 1.62547,0.9872l-5.56652,3.05596l-1.64763,-1.32415c0,0 5.25473,-2.81722 5.58869,-2.71901z"/><path d="M256.27754,210.54106l-4.56799,2.90766l-2.23104,-0.24173l4.53814,-3.22622l2.2609,0.5603"/></g><path d="M271.78672,233.4121l-0.13846,-0.06747c-0.34692,-0.17338 -8.52152,-4.30347 -10.8596,-10.56197c-2.21388,-5.92535 -7.76444,-9.40114 -10.80156,-9.2838l-4.01326,-0.39716l6.2072,-3.28617c0,0 0.16852,-0.02103 0.47176,-0.03501c1.3688,-0.06312 6.13817,0.00097 10.02766,3.48332c1.6469,1.47279 2.54063,3.01344 3.40541,4.50242c1.57946,2.71889 3.2134,5.5318 9.51645,8.38979l0.0967,0.04378l0.0312,0.10178c0.03885,0.12412 0.87443,3.07324 -3.82499,7.01222l-0.11852,0.09824zM275.29799,226.53643c-6.35065,-2.90403 -8.01335,-5.76583 -9.62157,-8.5345c-0.88534,-1.52306 -1.72136,-2.96315 -3.31211,-4.38743c-3.75415,-3.36083 -8.36634,-3.42363 -9.6898,-3.36261c-0.22008,0.01109 -0.36425,0.02533 -0.37321,0.01625l-4.728,2.51652l2.42796,0.24208c3.08057,-0.12026 8.85143,3.22609 11.22949,9.59164c2.11021,5.64889 9.39688,9.65621 10.49023,10.23058c3.844,-3.27375 3.66438,-5.79307 3.57702,-6.31256z" fill="#000000" stroke-width="0.4"/><path d="M275.34504,226.55338c0.08736,0.51949 0.25357,3.05886 -3.59043,6.33261c-1.09335,-0.57437 -8.42373,-4.56973 -10.53394,-10.21862c-2.37806,-6.36555 -8.09872,-9.73103 -11.17929,-9.61077l-2.51036,-0.29862l4.73878,-2.52865c0.00896,0.00908 0.15395,-0.00582 0.37403,-0.01691c1.32346,-0.06102 5.97205,-0.00841 9.7262,3.35242c1.59076,1.42428 2.45937,2.88191 3.34471,4.40497c1.60821,2.76867 3.27964,5.67955 9.63029,8.58358z" data-paper-data="{&quot;noHover&quot;:true,&quot;origItem&quot;:[&quot;Path&quot;,{&quot;applyMatrix&quot;:true,&quot;segments&quot;:[[[431.94081,453.0728],[0,0],[-0.17472,1.03898]],[[439.09485,465.69792],[-7.688,-6.5475],[2.1867,-1.14874]],[[460.07531,445.23676],[-4.22042,11.29778],[4.75612,-12.7311]],[[482.53429,426.05348],[-6.16114,-0.24052],[0,0]],[487.39021,425.56932],[[477.93421,420.53628],[0,0],[-0.01792,0.01816]],[[477.18779,420.50378],[0.44016,0.02218],[-2.64692,-0.12204]],[[457.80819,427.229],[7.5083,-6.72166],[-3.1815,2.84856]],[[451.18397,436.00386],[1.77068,-3.04612],[-3.21644,5.53734]],[[431.94083,453.07286],[12.7013,-5.80806],[0,0]]],&quot;closed&quot;:true,&quot;fillColor&quot;:[0,0,0,1],&quot;strokeColor&quot;:[0,0,0],&quot;strokeWidth&quot;:0.4}]}" fill="#000000" stroke-width="0.2"/></g><g stroke-width="0.4"><path d="M238.67652,205.26938c0.00096,-0.00005 7.12995,-3.22932 16.96523,6.08011c0,0 -5.35796,2.73298 -10.73191,1.85616c-5.37486,-0.87683 -7.14924,-2.15723 -9.04628,-0.9442c0,0 -1.15521,-1.95743 2.26234,-3.53502c0,0 -1.29238,-2.36574 0.55063,-3.45705z" fill="#ba2915"/><g fill="#871212"><path d="M248.97082,206.56971c-2.30876,2.4258 -1.325,6.80227 -1.325,6.80227l-0.85019,0.0392c-1.30915,-5.15101 1.37623,-7.2524 1.37623,-7.2524z"/><path d="M245.11882,205.09068c0,0 -2.32087,2.0401 -1.61001,7.62293l-1.07914,-0.22476c0,0 -0.73081,-4.57846 1.43478,-7.66597z"/><path d="M252.13608,208.44962c-0.82937,0.61383 -1.13565,4.48368 -1.13565,4.48368l-0.60488,0.12353c-0.60234,-2.79708 1.06544,-5.12229 1.06544,-5.12229z"/><path d="M237.58311,211.67476c-0.00095,0.00004 -0.16135,-2.20588 1.23869,-3.27576c0.05682,-0.16357 0.01645,-2.72244 0.5953,-3.3701l1.33804,-0.25769c0,0 -1.30763,1.30705 -0.89432,3.45493c0,0 -1.56119,1.51659 -1.2849,3.40284l-0.99282,0.04578z"/></g><path d="M235.53851,210.81666c0.26387,-0.84711 1.02691,-1.5866 2.26904,-2.19957c-0.43607,-0.95686 -0.73849,-2.67056 0.77101,-3.5628c0.0436,-0.01907 1.05288,-0.46794 2.82977,-0.54987c3.19579,-0.14736 8.28556,0.89123 14.39598,6.67381l0.24346,0.23015l-0.29873,0.15199c-0.03609,0.01872 -3.65909,1.84335 -7.89018,2.03844c-1.04102,0.048 -2.04503,-0.0051 -2.98739,-0.15855c-1.81614,-0.29679 -3.22826,-0.63969 -4.36279,-0.91586c-2.20107,-0.53565 -3.39014,-0.78279 -4.51662,-0.06345l-0.20695,0.13164l-0.12425,-0.21105c-0.01643,-0.02767 -0.3961,-0.68604 -0.12235,-1.56488zM235.99223,210.94626c-0.13042,0.41497 -0.07752,0.76184 -0.01473,0.97387c1.18516,-0.63781 2.4596,-0.38702 4.64152,0.14383c1.12588,0.27371 2.5285,0.61519 4.32739,0.90806c0.909,0.14836 1.88267,0.20002 2.88967,0.15358c3.42438,-0.15789 6.44235,-1.4103 7.38995,-1.84117c-5.87587,-5.46015 -10.73811,-6.44958 -13.79693,-6.30854c-1.66257,0.07666 -2.62872,0.49608 -2.63248,0.49625c-1.33713,0.79151 -0.81956,2.34574 -0.56776,2.92106c0.56216,-0.20957 1.92098,-0.489 3.87273,0.59296c0,0 -2.02762,-0.90048 -4.05048,0.0476c-1.11357,0.54741 -1.83217,1.20342 -2.05887,1.9125z" fill="#000000"/></g><g stroke-width="0.4"><path d="M267.38118,206.72716c0.83242,1.38158 -0.62136,1.92198 -0.62136,1.92198c-18.11894,6.10169 -20.50031,0.64985 -23.01853,-1.83734c-2.51636,-2.48728 -5.06286,-1.54155 -5.06286,-1.54155c-1.60206,-3.94945 2.61531,-6.14607 2.61531,-6.14607l0.0558,1.2101c11.92262,8.36399 21.74876,-0.50962 21.74371,-0.61918c-0.00506,-0.10961 1.07874,0.29767 1.71809,1.33225c0.63939,1.03453 -0.50058,1.97509 -0.50058,1.97509c-0.1286,1.0709 2.23804,2.32309 3.07042,3.70472z" fill="#ba2915"/><g fill="#871212"><path d="M262.02236,200.59278c0,0 1.6371,0.5001 0.9312,3.15487c0,0 0.12747,1.49174 1.3655,2.67764c1.23797,1.18586 1.24953,2.07237 1.47816,2.53515l-1.86853,0.53774c0,0 -0.164,-1.6273 -0.97325,-2.50641c-0.8092,-0.87905 -1.01108,-2.19788 -1.11584,-2.7866c-0.10476,-0.58873 0.65646,-2.04384 -0.65806,-2.95923z"/><path d="M258.93092,202.44781c-0.02836,-0.24479 0.61786,0.99963 0.49834,2.67787c-0.11952,1.67824 0.923,2.48504 1.35859,3.57535c0.43554,1.09037 0.51139,1.56496 0.51139,1.56496l-1.36421,0.32703c0,0 -0.765,-2.3636 -1.37718,-3.32177c-0.61218,-0.95822 -0.34196,-1.93439 -0.38691,-2.90923c-0.04496,-0.97489 -0.36991,-1.3916 -0.36991,-1.3916z"/><path d="M255.28267,203.56176c0.00344,0.07465 0.75213,1.77536 0.43901,3.52503c-0.31317,1.74967 0.83939,3.87476 0.83939,3.87476l-1.3147,0.14772c0,0 -0.88868,-1.96596 -0.77343,-3.73678c0.11525,-1.77082 0.14564,-2.32225 -0.19855,-3.62884z"/><path d="M251.65806,203.8728c0,0 -0.77173,2.5206 0.06905,4.70078c0,0 -0.58845,1.34206 0.53798,2.67413l-0.70757,0.03262c0,0 -1.07521,-0.83748 -0.85685,-2.50702c0,0 -1.25178,-1.01297 -0.2763,-4.84269l1.23374,-0.05689z"/><path d="M247.74466,203.38206c0,0 -1.68904,2.33663 -0.70386,5.34795c0,0 -0.19545,0.46244 0.2555,1.25013l-1.05574,-0.64147c0,0 -0.2647,-0.52548 -0.21117,-0.72012c0.05348,-0.19465 -1.17526,-1.67251 0.35419,-5.62246z"/><path d="M243.52225,201.71279c0,0 -1.61762,1.27776 -1.07319,4.11255l-1.07015,-0.54235c0,0 -0.13703,-2.97185 1.25354,-4.04135z"/><path d="M241.1187,200.46039c0,0 -2.72956,0.99869 -2.33979,4.40194l0.00359,0.36526c0,0 -2.10439,-3.09988 2.51438,-6.0146z"/></g><path d="M238.45908,205.35892c-1.66401,-4.1018 2.68117,-6.42175 2.72455,-6.44554l0.32817,-0.17132l0.06747,1.46328c3.55688,2.46958 7.27041,3.63411 11.04146,3.46023c5.9088,-0.27245 9.82107,-3.66582 10.24338,-4.05353l0.00959,-0.14152l0.23616,-0.01088c0.2815,-0.01298 1.29842,0.48354 1.90205,1.46198c0.54832,0.88732 -0.00646,1.76963 -0.44907,2.1895l0.00852,0.02044c-0.00817,0.007 -0.01746,0.01124 -0.02567,0.01825c0.03942,0.48475 0.73862,1.11329 1.41897,1.72282c0.61326,0.55012 1.24721,1.1182 1.61823,1.73256c0.28911,0.47988 0.36373,0.92892 0.22251,1.33495c-0.2275,0.65044 -0.9336,0.91965 -0.9709,0.93272c-5.01702,1.68918 -9.24716,2.62358 -12.57425,2.77699c-6.18558,0.28521 -8.36238,-2.1259 -9.95066,-3.88635c-0.25332,-0.2799 -0.49283,-0.54622 -0.73478,-0.78403c-1.45703,-1.43992 -2.91601,-1.68979 -3.88239,-1.64523c-0.56865,0.02622 -0.92998,0.15649 -0.93369,0.15762l-0.2141,0.07895l-0.08552,-0.21188zM241.07561,199.52618c-0.91683,0.58567 -3.33124,2.46536 -2.25617,5.45552c0.715,-0.17876 2.95477,-0.44675 5.08729,1.66066c0.24792,0.24416 0.49334,0.51683 0.75273,0.80399c0.23943,0.26448 0.48869,0.53788 0.75693,0.81238c4.37699,1.22386 8.55453,-0.44083 8.55453,-0.44083c-2.91965,1.8443 -6.72636,1.26532 -7.96799,1.00734c1.52167,1.3631 3.76736,2.55837 8.23556,2.35234c3.28266,-0.15137 7.46967,-1.07715 12.43729,-2.74985c0.00558,-0.00216 0.53198,-0.20632 0.68397,-0.64688c0.09188,-0.2655 0.03104,-0.57888 -0.18117,-0.93166c-0.33413,-0.55355 -0.94145,-1.09827 -1.52898,-1.62407c-0.68432,-0.61406 -1.33142,-1.20047 -1.51861,-1.79017c-1.30375,0.79665 -2.89952,0.82384 -2.89952,0.82384c1.64907,-0.49354 2.47052,-1.01232 2.85102,-1.32144l0.00396,-0.03709l0.07298,-0.06019c0.04009,-0.03308 0.9721,-0.82389 0.45033,-1.6689c-0.49319,-0.7999 -1.25847,-1.17734 -1.44935,-1.23199c-0.86782,0.90903 -4.99924,3.94426 -10.51692,4.19868c-3.90991,0.18028 -7.75641,-1.0349 -11.43089,-3.61171l-0.09395,-0.06671l-0.04304,-0.93331z" fill="#000000"/></g></g><g data-paper-data="{&quot;index&quot;:null}" stroke="#000000" stroke-width="0.90024" stroke-linecap="round" stroke-linejoin="round"><path d="M295.05942,181.9127l-0.54737,1.54396c-3.03034,7.79671 -7.2839,12.26319 -7.2839,12.26319c0,0 0.16274,-1.39501 0.10014,-3.63901l-0.13112,-0.04698c-0.38958,1.17794 -1.02595,2.69598 -2.07834,4.56901c-2.30791,4.11331 -9.01409,7.52254 -9.01409,7.52254c0,0 0.42673,-1.41715 0.70589,-3.73934l-0.09068,-0.35636c-0.72834,0.55135 -1.48332,1.05737 -2.24629,1.54983c-0.2245,0.14586 -0.44888,0.28803 -0.67691,0.42566c-0.694,0.42383 -1.40043,0.82764 -2.12105,1.20435c-0.28471,0.14708 -0.58024,0.28335 -0.86861,0.4241c-0.52603,0.2577 -1.05924,0.50083 -1.60039,0.7359c-0.39751,0.17044 -0.79771,0.34007 -1.20513,0.49783c-0.42178,0.16585 -0.8551,0.3144 -1.28579,0.46937c-0.79179,0.27612 -1.59513,0.53333 -2.41639,0.76971c-0.26794,0.07701 -0.53598,0.15401 -0.80847,0.22558c-0.5855,0.1555 -1.17556,0.30727 -1.77618,0.44105l0.00179,0.00181c-3.01525,0.6766 -6.21199,1.1077 -9.6319,1.29026c-3.69993,0.19656 -7.05202,0.13218 -10.18112,-0.11139v0c-2.47599,-0.19401 -4.79248,-0.51012 -6.98481,-0.9296c-0.10604,-0.01977 -0.21307,-0.04045 -0.32002,-0.06022c-0.67772,-0.13436 -1.34457,-0.27663 -1.99864,-0.42961c-0.22826,-0.05507 -0.44657,-0.11446 -0.67382,-0.17123c-0.86887,-0.21413 -1.71319,-0.44796 -2.54568,-0.6961c-0.52622,-0.15732 -1.04892,-0.31832 -1.55974,-0.48901c-0.3035,-0.09879 -0.60786,-0.20219 -0.90502,-0.30634c-0.81147,-0.28756 -1.6157,-0.57947 -2.39545,-0.89377l-0.13707,0.12938c0.27795,2.11705 0.99779,3.26089 1.57583,3.80755c1.17829,1.1161 3.46175,1.39773 3.46175,1.39773c0,0 -6.99458,0.92038 -10.75462,-4.50494c-0.39949,-0.57669 -0.80239,-1.17422 -1.1843,-1.81027l-0.16363,-0.36326c-0.82411,-0.28307 -1.65827,-0.65722 -2.48086,-1.13668c-5.01553,-2.94453 -5.62877,-5.34424 -5.62877,-5.34424l0.0981,0.87854c0.46652,2.2915 0.92817,3.73923 0.92817,3.73923c0,0 -6.00009,-3.86633 -8.63951,-9.60827c-2.12796,-4.63501 -2.27702,-7.43332 -2.28757,-7.90342l-0.18882,-1.6814c-0.07656,-6.57895 0.39263,-13.95375 1.35603,-21.2048l0.05739,-0.19304c0.85168,-5.60441 0.14654,-14.9065 7.66929,-24.35703c14.09675,-17.7045 28.3438,-16.96825 36.9759,-30.0675c6.34944,-9.63676 4.83011,-20.76129 4.83011,-20.76129c0,0 3.80023,5.47515 5.30797,8.68441c1.4598,3.12777 3.01301,7.15664 3.01301,7.15664l0.05157,-0.03378c0.03606,-0.11681 0.06854,-0.23625 0.09652,-0.35573c0.43398,-1.86091 0.29089,-4.61877 0.29089,-4.61877c0,0 3.57758,10.7732 9.43782,17.86499c5.85667,7.08826 14.38859,9.1703 24.98353,33.36739c1.31859,3.00691 2.54647,5.53866 3.19152,8.33935l0.2893,1.61112c0.89955,5.03454 0.41567,18.91904 -1.61046,24.90283zM226.11486,157.73494c0,0 -7.05062,7.20463 -6.6726,17.31336c0.33447,8.94424 2.62904,11.72505 3.87193,12.42667c1.27796,0.7172 3.27173,0.31494 3.27173,0.31494c0,0 -5.65436,2.93533 -10.21053,-1.14786c-3.04752,-2.72938 -6.3596,-6.24516 -7.21429,-16.0921M284.15914,174.31497c0,0 0.84828,2.49354 -1.31166,7.67311c-2.42993,5.83547 -7.47072,7.60549 -7.47072,7.60549c0,0 4.25002,-8.98596 0.8151,-17.4956c-1.49907,-3.71782 -6.19717,-6.51654 -11.10892,-8.50588c-6.6561,-2.69787 -13.70351,-3.908 -13.70351,-3.908M287.22856,191.93603c-0.3861,1.19237 -1.03166,2.74723 -2.11517,4.67042c-2.30701,4.11332 -9.01319,7.52255 -9.01319,7.52255c0,0 1.24035,-4.13466 0.87576,-9.84455M210.5258,177.81188c-0.69641,1.26733 -1.23509,2.62766 -1.5422,4.06649c-1.92812,8.97079 1.254,18.89542 1.254,18.89542c0,0 -5.99831,-3.86461 -8.6395,-9.60837c-2.34117,-5.09767 -2.28699,-7.97362 -2.28699,-7.97362M294.50747,183.46293c-3.03214,7.7967 -7.2848,12.26318 -7.2848,12.26318c0,0 0.93562,-7.92549 -2.50661,-16.43611c-0.15525,-0.38479 -0.33138,-0.75894 -0.51832,-1.12238M251.38032,159.68408c0,0 1.19296,0.3267 4.32666,2.86328c3.1338,2.53658 4.2717,5.28541 4.2717,5.28541c0,0 -9.29347,-2.52939 -14.4347,-4.42612c-5.1358,-1.89848 -22.47921,-6.77435 -22.47921,-6.77435M221.58137,196.78668c2.49249,3.98708 5.1017,6.16644 5.1017,6.16644c0,0 -6.19388,1.86227 -11.843,-1.45116c-5.01552,-2.94443 -5.62877,-5.34424 -5.62877,-5.34424M276.71358,200.03508c-6.70089,5.06852 -14.7991,7.513 -24.62903,8.03731c-11.71942,0.62502 -20.2673,-1.15643 -27.56161,-4.08724M224.31925,203.45945c0.20069,2.53863 1.00547,3.86058 1.64068,4.4599c1.17919,1.11611 3.46265,1.39774 3.46265,1.39774c0,0 -6.99638,0.92036 -10.75552,-4.50495c-0.39949,-0.57669 -0.80239,-1.17422 -1.1843,-1.81027M252.05393,159.99032c0,0 25.48833,3.32132 25.37413,17.24665" fill="#be1e2d"/><path d="M282.37942,183.29958c-1.03369,10.00706 -12.63219,20.3614 -29.4886,21.20811c-14.8815,0.75569 -36.808,-6.11313 -39.8965,-18.45598c-0.30673,-1.24046 -0.46523,-2.43729 -0.50171,-3.58633l0.32125,0.23854c1.11531,1.662 2.3577,2.86413 3.56151,3.93994c4.55619,4.0814 10.21055,1.14606 10.21055,1.14606c0,0 -1.99378,0.40406 -3.27174,-0.31314c-1.24289,-0.70162 -3.53747,-3.48242 -3.87193,-12.42667c-0.37801,-10.11054 6.6726,-17.31336 6.6726,-17.31336l0.0262,-0.2321c5.22014,1.49226 15.61969,4.50344 19.40116,5.90199c5.14121,1.89762 14.4347,4.42612 14.4347,4.42612c0,0 -1.1379,-2.74883 -4.2717,-5.28541c-1.56865,-1.26871 -2.64942,-1.98429 -3.33757,-2.38335l0.64734,0.10701c0,0 19.6476,3.06902 23.17869,11.82696c3.43403,8.51054 -0.8142,17.49561 -0.8142,17.49561c0,0 4.29231,-1.50875 6.85978,-6.32306z" fill="#e6e7e8"/></g><path d="M236.53262,179.33248v0v0v0v0v0c0.66782,0.3303 0.93945,1.13832 0.60728,1.80579c-0.33065,0.66959 -1.13512,0.94188 -1.8089,0.61412c-0.03835,-0.02007 -3.9433,-1.91612 -8.18886,-1.50278c-0.13049,0.012 -0.25703,0.00735 -0.37995,-0.01586c-0.57495,-0.10854 -1.0343,-0.58735 -1.09402,-1.19772c-0.03624,-0.35681 0.07892,-0.69513 0.28624,-0.95834c-0.20752,-0.26459 -0.38969,-0.59023 -0.47935,-1.00852c-0.1062,-0.48543 0.20247,-0.9658 0.68951,-1.07088c0.4817,-0.1005 0.96552,0.19966 1.07202,0.68891c0.08398,0.38964 0.50497,0.57627 0.50994,0.57904c0.1246,0.05374 0.22733,0.13542 0.3108,0.23178c0.13617,-0.00269 0.27328,-0.00612 0.40656,-0.00384c-0.09746,-0.23088 -0.1805,-0.4848 -0.20323,-0.78227c-0.03624,-0.49694 0.3361,-0.92602 0.83323,-0.96316c0.5015,-0.04089 0.92746,0.33821 0.96316,0.83323c0.0288,0.39571 0.40791,0.64404 0.41111,0.64648c0.17963,0.10179 0.2961,0.26115 0.36995,0.43812c3.19651,0.45045 5.56042,1.59939 5.69451,1.66592z" data-paper-data="{&quot;index&quot;:null}" fill="#231f20" stroke="none" stroke-width="0.90024" stroke-linecap="butt" stroke-linejoin="miter"/><path d="M268.58354,176.72973v0v0v0v0v0c-0.05122,0.81689 -0.46534,1.35601 -0.81719,1.69437c0.1324,0.23761 0.22004,0.50661 0.18786,0.7978c-0.08221,0.7402 -0.73275,1.27729 -1.49016,1.19546c-2.87099,-0.31552 -6.5031,-0.08562 -7.12875,0.74777c-0.22615,0.29974 -0.55101,0.47926 -0.89815,0.52545c-0.34178,0.04547 -0.69723,-0.03899 -0.99303,-0.26203c-0.59533,-0.44759 -0.71513,-1.29349 -0.26611,-1.89092c1.20938,-1.60662 4.16534,-1.96267 6.56794,-1.96636c0.10191,-0.11434 0.25786,-0.34118 0.23842,-0.6238c-0.0401,-0.49321 0.28989,-0.95497 0.82372,-0.96959c0.49499,-0.04043 0.92803,0.32697 0.96959,0.82363c0.02347,0.31294 -0.01834,0.58553 -0.08199,0.83733c0.12008,0.00853 0.23445,0.01511 0.34213,0.02539c0.07377,-0.15519 0.17302,-0.29642 0.33111,-0.39189c0.02309,-0.01761 0.39227,-0.26657 0.41819,-0.65871c0.03391,-0.4958 0.45248,-0.87936 0.95625,-0.84015c0.4958,0.03391 0.87114,0.45902 0.84015,0.95625z" data-paper-data="{&quot;index&quot;:null}" fill="#231f20" stroke="none" stroke-width="0.90024" stroke-linecap="butt" stroke-linejoin="miter"/><g data-paper-data="{&quot;index&quot;:null}" stroke-linejoin="miter"><path d="M205.38026,167.54753c-0.2584,12.97612 -2.12881,23.46227 -7.46649,23.35597c-5.3377,-0.10629 -13.1212,-10.78469 -12.8628,-23.7608c0.2584,-12.97612 8.46088,-23.33617 13.79858,-23.22988c5.3377,0.10629 6.78913,10.65859 6.53072,23.63471z" fill="url(#color-1)" stroke="#000000" stroke-width="0.90024" stroke-linecap="butt"/><path d="M193.84535,149.52088l-2.15638,2.80536" fill="none" stroke="#ea42a4" stroke-width="2" stroke-linecap="round"/><path d="M201.73584,156.84071l-3.38622,0.30587" fill="none" stroke="#ea42a4" stroke-width="2" stroke-linecap="round"/><path d="M193.40207,164.62197l0.43564,-1.84668" fill="none" stroke="#ea42a4" stroke-width="2" stroke-linecap="round"/><path d="M191.71351,172.60626l1.61023,2.26432" fill="none" stroke="#ea42a4" stroke-width="2" stroke-linecap="round"/><path d="M201.36071,179.36578l1.59352,-0.14394" fill="none" stroke="#ea42a4" stroke-width="2" stroke-linecap="round"/><path d="M195.67035,187.51072l-1.8287,-0.23645" fill="none" stroke="#ea42a4" stroke-width="2" stroke-linecap="round"/><path d="M190.09817,179.17822l-1.22985,-2.4995" fill="none" stroke="#ea42a4" stroke-width="2" stroke-linecap="round"/><path d="M187.20921,164.98054l1.37506,1.88394" fill="none" stroke="#ea42a4" stroke-width="2" stroke-linecap="round"/><path d="M188.97103,155.58395l0.14394,1.59352" fill="none" stroke="#ea42a4" stroke-width="2" stroke-linecap="round"/><path d="M201.72295,147.80522l-2.53676,3.04054" fill="none" stroke="#ea42a4" stroke-width="2" stroke-linecap="round"/></g><g data-paper-data="{&quot;index&quot;:null}" stroke-linejoin="miter"><path d="M298.00181,143.08045c5.33129,0.28233 12.75829,11.21166 12.07199,24.17219c-0.68632,12.96054 -9.22609,23.04436 -14.55738,22.76204c-5.33129,-0.28233 -6.43383,-10.87675 -5.7475,-23.83729c0.68632,-12.96054 2.90162,-23.37928 8.23291,-23.09695z" fill="url(#color-2)" stroke="#000000" stroke-width="0.90025" stroke-linecap="butt"/><path d="M302.58473,149.0377l1.94656,2.95481" fill="none" stroke="#ea42a4" stroke-width="2" stroke-linecap="round"/><path d="M294.18261,155.7641l3.35499,0.55141" fill="none" stroke="#ea42a4" stroke-width="2" stroke-linecap="round"/><path d="M301.92819,164.13102l-0.30013,-1.87346" fill="none" stroke="#ea42a4" stroke-width="2" stroke-linecap="round"/><path d="M303.03142,172.21701l-1.77071,2.14118" fill="none" stroke="#ea42a4" stroke-width="2" stroke-linecap="round"/><path d="M291.33918,177.99727l1.57882,0.25949" fill="none" stroke="#ea42a4" stroke-width="2" stroke-linecap="round"/><path d="M299.84172,186.69133l-1.84105,0.10277" fill="none" stroke="#ea42a4" stroke-width="2" stroke-linecap="round"/><path d="M305.57275,176.48568l-1.40843,2.4034" fill="none" stroke="#ea42a4" stroke-width="2" stroke-linecap="round"/><path d="M308.07855,164.9392l-1.50847,1.77891" fill="none" stroke="#ea42a4" stroke-width="2" stroke-linecap="round"/><path d="M306.74555,157.01815l0.25949,-1.57883" fill="none" stroke="#ea42a4" stroke-width="2" stroke-linecap="round"/><path d="M297.16165,149.97052l-2.30883,-3.21704" fill="none" stroke="#ea42a4" stroke-width="2" stroke-linecap="round"/></g><path d="M250.14981,189.70567c-4.28309,0.07719 -5.25948,-3.03381 -5.25948,-3.03381c0,0 0.77723,-0.48436 3.9329,-0.55271c3.155,-0.06687 5.54943,0.16143 5.54943,0.16143c0,0 0.05665,3.34858 -4.22285,3.42511z" data-paper-data="{&quot;index&quot;:null}" fill="#58595b" stroke="#231f20" stroke-width="0.9025" stroke-linecap="round" stroke-linejoin="miter"/><g stroke-linejoin="miter"><g stroke-linecap="butt"><g stroke="#000000" stroke-width="1"><path d="M251.56209,213.14454h55.67854v24.113h-55.67854z" fill="url(#color-3)"/><path d="M256.5013,208.72383h55.67854l-4.93922,4.42072h-55.67855z" fill="#9966ff"/><path d="M307.4912,213.1176l4.71472,-4.21977l-0.67354,24.51489l-4.49021,3.91836z" fill="url(#color-4)"/></g><path d="M304.73979,213.99646c0.44092,0 0.79835,0.15996 0.79835,0.35728c0,0.19732 -0.35743,0.35727 -0.79835,0.35727c-0.44092,0 -0.79836,-0.15995 -0.79836,-0.35727c0,-0.19732 0.35744,-0.35728 0.79836,-0.35728z" fill="#b9b9b9" stroke="none" stroke-width="0.5"/><path d="M304.38497,235.9091c0.44092,0 0.79835,0.15995 0.79835,0.35727c0,0.19732 -0.35743,0.35727 -0.79835,0.35727c-0.44092,0 -0.79836,-0.15995 -0.79836,-0.35727c0,-0.19732 0.35744,-0.35727 0.79836,-0.35727z" fill="#b9b9b9" stroke="none" stroke-width="0.5"/><path d="M253.46788,236.22667c0.44091,0 0.79835,0.15996 0.79835,0.35727c0,0.19732 -0.35744,0.35727 -0.79835,0.35727c-0.44091,0 -0.79835,-0.15995 -0.79835,-0.35727c0,-0.19732 0.35744,-0.35727 0.79835,-0.35727z" fill="#b9b9b9" stroke="none" stroke-width="0.5"/><path d="M252.93564,213.83767c0.44091,0 0.79835,0.15995 0.79835,0.35727c0,0.19732 -0.35744,0.35727 -0.79835,0.35727c-0.44091,0 -0.79835,-0.15995 -0.79835,-0.35727c0,-0.19732 0.35744,-0.35727 0.79835,-0.35727z" fill="#b9b9b9" stroke="none" stroke-width="0.5"/></g><g stroke="#000000" stroke-width="1" stroke-linecap="butt"><path d="M256.16442,225.14221c0,-5.20726 4.22132,-9.42857 9.42857,-9.42857c5.20725,0 9.42857,4.22132 9.42857,9.42857c0,5.20726 -4.22132,9.42857 -9.42857,9.42857c-5.20725,0 -9.42857,-4.22132 -9.42857,-9.42857z" fill="#8499b1"/><path d="M259.39707,225.54629c0,-3.04996 2.47248,-5.52245 5.52245,-5.52245c3.04996,0 5.52245,2.47249 5.52245,5.52245c0,3.04996 -2.47249,5.52244 -5.52245,5.52244c-3.04996,0 -5.52245,-2.47248 -5.52245,-5.52244z" fill="#92c5ff"/></g><g stroke="#000000" stroke-width="1" stroke-linecap="butt"><path d="M280.16442,225.17792c0,-5.20726 4.22132,-9.42857 9.42857,-9.42857c5.20725,0 9.42857,4.22132 9.42857,9.42857c0,5.20726 -4.22132,9.42857 -9.42857,9.42857c-5.20725,0 -9.42857,-4.22132 -9.42857,-9.42857z" fill="#8499b1"/><path d="M283.39707,225.58201c0,-3.04996 2.47249,-5.52245 5.52245,-5.52245c3.04996,0 5.52245,2.47249 5.52245,5.52245c0,3.04996 -2.47249,5.52245 -5.52245,5.52245c-3.04996,0 -5.52245,-2.47248 -5.52245,-5.52245z" fill="#92c5ff"/></g><path d="M303.73584,192.24697l-4,18.57143" fill="none" stroke="#000000" stroke-width="2" stroke-linecap="round"/></g><g data-paper-data="{&quot;index&quot;:null}" stroke="#001026" stroke-width="0.9" stroke-linejoin="miter"><g><path d="M240.90739,221.43793c0,0 -1.43134,1.55489 -2.24008,1.81875c-0.76247,0.24877 -2.4817,-0.27822 -2.4817,-0.27822l-7.59631,-12.46956l8.24993,-3.66887l4.06815,14.59791z" fill="#505a63" stroke-linecap="butt"/><path d="M236.92546,205.77621c1.12782,2.53606 -0.01377,5.50624 -2.54983,6.63406c-2.53606,1.12783 -5.50624,-0.01378 -6.63406,-2.54984c-1.12782,-2.53605 0.01378,-5.50623 2.54984,-6.63405c2.53606,-1.12782 5.50623,0.01378 6.63405,2.54984z" fill="url(#color-5)" stroke-linecap="butt"/><path d="M232.63989,203.00094c0,0 1.57187,2.16889 2.11744,3.43419c0.58374,1.35384 1.27822,4.44118 1.27822,4.44118" fill="none" stroke-linecap="round"/><path d="M229.06833,204.80257c0,0 1.02302,1.51903 1.38229,2.58663c0.48623,1.44493 1.27128,5.2988 1.27128,5.2988" fill="none" stroke-linecap="round"/><path d="M227.48591,207.95932c0,0 3.01655,-1.65093 4.49058,-1.94608c1.69431,-0.33927 5.10679,0.02434 5.10679,0.02434" fill="none" stroke-linecap="round"/><path d="M228.06041,210.69011c0,0 2.45277,-0.76427 3.75284,-0.89039c1.67242,-0.16222 5.44898,-0.00222 5.44898,-0.00222" fill="none" stroke-linecap="round"/></g><path d="M232.36758,219.39968c-0.74707,-1.69359 0.07777,-3.50558 1.84236,-4.0472c1.76458,-0.54162 4.1479,0.81284 4.89498,2.50642c0.74708,1.69359 -0.425,3.08497 -2.18958,3.62659c-1.76459,0.54162 -3.80068,-0.39223 -4.54776,-2.08581z" fill="#be1e2d" stroke-linecap="butt"/></g></g></g></svg>