<svg version="1.1" xmlns="http://www.w3.org/2000/svg" xmlns:xlink="http://www.w3.org/1999/xlink" width="71.41037" height="86.25953" viewBox="0,0,71.41037,86.25953"><defs><radialGradient cx="265.94045" cy="175.99021" r="7.3567" gradientUnits="userSpaceOnUse" id="color-1"><stop offset="0" stop-color="#54606d"/><stop offset="1" stop-color="#2c3136"/></radialGradient></defs><g transform="translate(-205.4977,-153.9753)"><g data-paper-data="{&quot;isPaintingLayer&quot;:true}" fill-rule="nonzero" stroke-linejoin="miter" stroke-miterlimit="10" stroke-dasharray="" stroke-dashoffset="0" style="mix-blend-mode: normal"><g stroke="none" stroke-width="0.5" stroke-linecap="butt"><path d="M241.40952,207.53977c5.0343,7.88649 13.22433,12.71835 15.08916,5.71946c0.1827,-2.9289 -3.19326,-5.43972 -5.82072,-6.74571c-0.86831,-0.43159 -0.57861,0.74731 -1.01268,1.17241c-1.27719,1.25075 -3.57355,-0.22082 -5.23137,-2.28895c-1.31512,0.02776 -2.89143,-0.32751 -4.41082,-1.00322c0.74177,1.14611 1.08311,1.97157 1.38644,3.14602zM250.45253,204.90671c3.63263,1.1588 7.75958,5.75152 7.5308,9.38222c-2.13585,8.22861 -12.07166,2.78493 -17.86354,-6.69186c-0.30942,-1.06813 -0.47223,-1.71164 -1.16556,-2.73821l-0.36366,-1.20179c0,0 -0.00081,-0.00378 -0.00209,-0.01073c-0.86789,-0.52365 -1.67883,-1.1549 -2.36461,-1.88035c-2.44689,-2.58841 -2.041,-7.4514 -0.95297,-9.41998c0.31657,-1.87043 2.47801,-2.55805 4.73548,-0.28895c1.54104,1.54898 1.6452,3.69142 2.47222,5.45272c1.28439,2.73536 2.75279,4.074 4.97301,6.1746c-0.23466,0.79505 -0.87217,1.29788 -1.74881,1.54067c2.32718,2.79665 2.75084,-0.95597 4.7497,-0.31835zM236.28113,195.65731c0.0019,0.22114 0.00601,0.45292 0.00591,0.69602c-0.00037,0.90944 -0.52573,2.02822 -0.35647,3.00459c0.18585,1.0721 1.73467,1.98878 2.42062,2.40671c2.11494,1.28855 3.78617,1.61677 5.50068,1.75744c0.15975,-0.0688 0.32065,-0.03923 0.46651,0.03413c0.58651,0.03841 1.1831,0.06325 1.80887,0.1048c-2.46331,-1.03872 -4.5014,-4.73045 -5.38154,-7.25636c-0.25722,-0.73819 -0.7013,-2.7159 -1.34542,-3.3085c-0.88226,-0.81169 -1.85186,-0.82155 -2.38259,-0.37574c0.02875,0.1932 -0.00504,0.32175 -0.00504,0.32175l-0.12346,0.29785c-0.10876,0.11393 -0.19839,0.23284 -0.27218,0.35707c0.02285,0.41373 0.2262,0.89958 0.67834,1.4126c0,0 0.61635,0.76597 0.18902,1.14753c-0.42733,0.38156 -1.04368,-0.38441 -1.04368,-0.38441c-0.05525,-0.07206 -0.10842,-0.14389 -0.15956,-0.21548z" fill="#000000"/><path d="M236.48997,195.9083c0,0 0.5188,0.69089 0.94613,0.30933c0.42733,-0.38156 -0.18504,-1.15552 -0.18504,-1.15552c-0.45215,-0.51302 -0.65268,-1.00203 -0.67553,-1.41577c0.07379,-0.12423 0.16648,-0.24552 0.27524,-0.35947l0.12553,-0.29905c0,0 0.03519,-0.12922 0.00644,-0.32241c0.53073,-0.4458 1.51893,-0.43722 2.40119,0.37447c0.64412,0.5926 1.09598,2.57256 1.3532,3.31075c0.88014,2.5259 2.97421,6.31355 5.43752,7.35227c-0.62576,-0.04155 -1.23102,-0.05544 -1.81753,-0.09385c-0.14585,-0.07335 -0.31091,-0.10071 -0.47066,-0.03191c-1.71451,-0.14067 -3.44926,-0.49911 -5.56419,-1.78766c-0.68595,-0.41793 -2.24948,-1.35907 -2.43533,-2.43118c-0.16925,-0.97636 0.34981,-2.12555 0.35018,-3.03498c0.0001,-0.24309 -0.00318,-0.48128 -0.00508,-0.70242c0.05114,0.07159 0.2027,0.21534 0.25795,0.28738z" data-paper-data="{&quot;noHover&quot;:false,&quot;origItem&quot;:[&quot;Path&quot;,{&quot;applyMatrix&quot;:true,&quot;selected&quot;:true,&quot;segments&quot;:[[[235.10618,192.13453],[0.05114,0.04349],[0.0019,0.2201],7],[[235.11209,192.82729],[0.0001,-0.24314],[-0.00037,0.90964],7],[[234.75562,196.02773],[-0.16925,-0.88337],[0.18585,0.96999],7],[[237.17624,197.10449],[-0.68595,-0.04105],[2.11494,0.12655],7],[[242.67691,195.83971],[-1.71451,0.80133],[0.15975,-0.15657],7],[[243.14342,195.61752],[-0.14585,0.00678],[0.58651,-0.28383],7],[[244.95229,194.72849],[-0.62576,0.30226],[-2.46331,0.31469],7],[[239.57075,190.42889],[0.88014,2.04233],[-0.25722,-0.59687],7],[[238.22533,187.85961],[0.64412,0.2387],[-0.88226,-0.32695],7],[[235.84273,188.79292],[0.53073,-0.7374],[0.02875,0.1774],7],[[235.8377,189.11744],[0,0],[0,0],7],[[235.71424,189.48313],[0,0],[-0.10876,0.17369],7],[[235.44206,189.98973],[0.07379,-0.16477],[0.02285,0.40118],7],[[236.1204,191.02963],[-0.45215,-0.2646],[0,0],7],[[236.30942,192.07331],[0.42733,-0.61635],[-0.42733,0.61635],7],[[235.26574,192.26234],[0,0],[-0.05525,-0.0417],7]],&quot;closed&quot;:true}]}" fill="#0032ff"/><path d="M239.97322,204.36256c1.51939,0.67571 3.10184,1.01386 4.41697,0.98611c1.65782,2.06812 4.02355,3.55918 5.30073,2.30842c0.43408,-0.42508 0.14422,-1.60417 1.01253,-1.17258c2.62746,1.30599 6.02769,3.8684 5.84499,6.79729c-1.86482,6.9989 -10.15297,2.13065 -15.18727,-5.75584c-0.30333,-1.17445 -0.64618,-2.01732 -1.38795,-3.16343z" data-paper-data="{&quot;noHover&quot;:false,&quot;origItem&quot;:[&quot;Path&quot;,{&quot;applyMatrix&quot;:true,&quot;selected&quot;:true,&quot;segments&quot;:[[[240.23457,201.19932],[-0.30333,-1.00779],[5.0343,5.12051],7],[[255.32372,198.62839],[-1.86482,8.02348],[0.1827,-3.02928],7],[[249.503,195.08075],[2.62746,-0.13761],[-0.86831,0.04548],7],[[248.49032,196.80954],[0.43408,-0.66358],[-1.27719,1.95247],7],[[243.25895,197.39485],[1.65782,1.15727],[-1.31512,0.75032],7],[[238.84813,198.81506],[1.51939,-0.15908],[0.74177,0.73856],7]],&quot;closed&quot;:true}]}" fill="#fff1e2"/></g><g stroke="#001026" stroke-width="1.2"><path d="M251.72652,199.69088l4.6696,-21.68653l12.37566,4.64059l-10.01101,18.88463c0,0 -2.4662,0.92023 -3.60209,0.62331c-1.20481,-0.31493 -3.43217,-2.462 -3.43217,-2.462z" fill="#505a63" stroke-linecap="butt"/><path d="M256.17719,176.4574c1.42653,-3.80433 5.66699,-5.73191 9.47131,-4.30538c3.80433,1.42653 5.73191,5.667 4.30538,9.47131c-1.42653,3.80433 -5.667,5.73192 -9.47132,4.30538c-3.80433,-1.42653 -5.7319,-5.667 -4.30537,-9.47133z" fill="url(#color-1)" stroke-linecap="butt"/><path d="M257.92304,183.83218c0,0 0.74516,-4.57204 1.4799,-6.60132c0.6867,-1.89657 2.79416,-5.20315 2.79416,-5.20315" fill="none" stroke-linecap="round"/><path d="M264.3846,186.10275c0,0 0.81054,-5.70004 1.39485,-7.85391c0.43174,-1.59141 1.79395,-3.90044 1.79395,-3.90044" fill="none" stroke-linecap="round"/><path d="M255.96942,176.8531c0,0 4.95472,-0.82937 7.46017,-0.4816c2.17971,0.30255 6.73184,2.4515 6.73184,2.4515" fill="none" stroke-linecap="round"/><path d="M256.03632,182.36291c0,0 5.50452,-0.56365 7.96252,-0.47267c1.91074,0.07073 5.56161,0.9733 5.56161,0.9733" fill="none" stroke-linecap="round"/></g><g stroke="none" stroke-width="0.5" stroke-linecap="butt"><path d="M259.26271,216.58808c0.52786,-0.01826 0.69685,0.34809 0.75063,0.56638c0.49314,-0.00959 1.0312,-0.2046 1.56983,-0.62854c1.03163,-0.81198 0.36379,-2.36889 -0.07693,-3.27955c-0.62815,1.46923 -2.0718,2.55279 -3.4317,2.48781c0.16621,0.42057 0.41704,0.76572 0.72706,1.01047c0.10563,-0.08679 0.25368,-0.14938 0.4611,-0.15656zM255.16744,220.7187l-0.0232,0.01101c0,0 -0.27996,0.00968 -0.50361,-0.15388c-2.67012,-0.04572 -3.78873,-3.21801 -2.10431,-5.57525c-2.4228,-2.46711 -1.3134,-9.19291 3.05938,-8.25147c0.84545,0.18202 1.41349,0.68778 1.7535,1.35279c1.5713,-0.827 3.70055,0.28062 4.3528,2.66069c0.01805,0.06587 0.0341,0.13175 0.04819,0.1976c0.40372,0.39126 0.72459,0.89501 0.98346,1.38233c0.82036,1.54428 1.46836,3.91123 -0.17201,5.32032c-0.86218,0.74062 -1.78921,1.03736 -2.65773,0.99273c-0.51365,2.01324 -2.42587,2.36028 -4.73647,2.06315zM259.9844,210.86267c0.03607,-0.10009 0.08124,-0.18087 0.13216,-0.24579c-0.43076,-1.102 -1.61564,-1.7234 -2.37111,-0.93063c0.06204,1.15772 -0.27306,2.40456 -0.85997,3.25606c0.36286,0.18828 0.37864,0.64448 0.37864,0.64448l-0.05816,-0.12974c0.7754,2.32435 2.90018,-0.4312 3.05587,-1.68217c0.00172,-0.01383 0.00332,-0.02764 0.00479,-0.04143c-0.19062,-0.12638 -0.45307,-0.39672 -0.2822,-0.87077zM257.46036,217.45706c-0.06931,0.14281 -0.1478,0.28637 -0.23588,0.4302l-1.32694,0.31058c0,0 -0.73835,0.13168 -0.87002,-0.60668c-0.13168,-0.73835 0.60668,-0.87002 0.60668,-0.87002l0.71785,-0.05407c0.11291,-0.30304 0.17665,-0.57204 0.19877,-0.80648c-0.05328,-0.16873 -0.0974,-0.34292 -0.13164,-0.52192l0.05818,-0.13947c-0.29175,-0.72973 -1.30994,-0.6885 -2.27777,0.17521c-0.05255,0.06996 -0.11034,0.1229 -0.17047,0.16242c-1.61396,1.65378 -0.78785,4.48612 1.79896,3.28114c0,0 0.68631,-0.30245 0.98876,0.38386c0.02315,0.05252 0.0405,0.10279 0.05282,0.15085c0.81118,-0.02089 1.41317,-0.27381 1.60826,-1.09814c-0.37603,-0.20083 -0.72021,-0.4708 -1.01755,-0.79748zM255.83034,210.16603c0.10179,-0.33912 0.22853,-0.63887 0.37537,-0.90082c-0.1261,-0.55616 -0.42602,-0.98171 -0.9602,-1.05756c-2.63419,-0.374 -3.3031,4.45624 -1.71719,5.7645c0.2806,-0.22106 0.55938,-0.39271 0.83238,-0.51958c-0.04751,-0.09218 -0.07888,-0.20708 -0.08383,-0.35028c-0.02593,-0.74955 0.72362,-0.77548 0.72362,-0.77548l0.35196,0.09477c0.34671,-0.20868 0.63486,-0.7624 0.79323,-1.40295c-0.48683,-0.27198 -0.31536,-0.85261 -0.31536,-0.85261z" fill="#000000"/><path d="M258.76925,216.78277c-0.31002,-0.24475 -0.57698,-0.61576 -0.74319,-1.03633c1.3599,0.06498 2.88111,-1.07152 3.50926,-2.54074c0.44072,0.91066 1.11713,2.54113 0.0855,3.35311c-0.53863,0.42395 -1.11638,0.63602 -1.60952,0.64561c-0.05378,-0.21829 -0.2467,-0.59187 -0.77456,-0.57361c-0.20743,0.00718 -0.36185,0.06517 -0.46749,0.15196z" data-paper-data="{&quot;noHover&quot;:false,&quot;origItem&quot;:[&quot;Path&quot;,{&quot;applyMatrix&quot;:true,&quot;selected&quot;:true,&quot;segments&quot;:[[[254.46427,197.47825],[0,-0.20755],[0,0.52818],7],[[253.87228,198.20884],[0.22002,-0.0462],[-0.00746,0.49318],7],[[254.44617,199.79946],[-0.40507,-0.55296],[0.77583,1.05909],7],[[257.72642,199.83596],[-0.92535,0.40897],[-1.44663,-0.67857],7],[[255.35874,196.32031],[-0.11196,1.35684],[-0.42606,0.15157],7],[[254.32375,197.012],[0.25532,-0.30137],[0.08309,0.10857],7]],&quot;closed&quot;:true}]}" fill="#fff1e2"/><path d="M256.19567,211.01707c-0.15837,0.64055 -0.46898,1.23759 -0.8157,1.44628l-0.35979,-0.09056c0,0 -0.77379,0.02976 -0.74786,0.77931c0.00495,0.1432 0.03873,0.25827 0.08625,0.35044c-0.273,0.12687 -0.56498,0.29616 -0.84557,0.51722c-1.58591,-1.30826 -0.8885,-6.23434 1.74571,-5.86033c0.53417,0.07585 0.85563,0.51364 0.98173,1.06981c-0.14684,0.26194 -0.26661,0.57007 -0.36841,0.9092c0,0 -0.16319,0.60665 0.32364,0.87864z" data-paper-data="{&quot;noHover&quot;:false,&quot;origItem&quot;:[&quot;Path&quot;,{&quot;applyMatrix&quot;:true,&quot;selected&quot;:true,&quot;segments&quot;:[[[261.00115,194.26996],[0,0],[0.3354,0.11345],7],[[261.88845,194.67626],[-0.25671,-0.15581],[0.56019,-0.1068],7],[[262.97857,193.75319],[-0.09427,0.53123],[0.46485,-2.61969],7],[[257.27688,191.83774],[1.36231,-1.53973],[0.21123,0.28807],7],[[257.76737,192.68758],[-0.11736,-0.27722],[0.09377,-0.04429],7],[[258.12034,192.61592],[-0.14329,0],[0.75,0],7],[[258.87034,193.36592],[0,0],[0,0],7],[[258.76346,193.71439],[0,0],[0.19657,0.35372],7],[[260.13815,194.55566],[-0.63469,-0.18042],[0.28865,-0.47714],7]],&quot;closed&quot;:true}]}" fill="#fff1e2"/><path d="M260.31651,211.73046c-0.00147,0.01379 -0.00301,0.0288 -0.00473,0.04263c-0.15569,1.25097 -2.36246,4.04671 -3.13787,1.72235l0.06047,0.13156c0,0 -0.02777,-0.46883 -0.39061,-0.65711c0.58691,-0.8515 0.94603,-2.17269 0.88399,-3.3304c0.75547,-0.79277 1.99743,-0.15541 2.42819,0.94659c-0.05094,0.06493 -0.09417,0.14832 -0.13025,0.24841c-0.17086,0.47405 0.1002,0.7696 0.29082,0.89597z" data-paper-data="{&quot;noHover&quot;:false,&quot;origItem&quot;:[&quot;Path&quot;,{&quot;applyMatrix&quot;:true,&quot;selected&quot;:true,&quot;segments&quot;:[[[260.16131,198.39745],[-0.46786,-0.18715],[0.09878,0.03951],7],[[260.40238,198.53803],[-0.06313,-0.05315],[1.11623,-0.3924],7],[[261.41444,196.20051],[0.76618,0.78243],[-1.15917,0.02198],7],[[258.19006,195.22848],[0.8307,0.616],[-0.20071,0.35613],7],[[257.53286,195.58461],[0,0],[0,0],7],[[257.66454,195.53096],[0,0],[-2.34977,0.69458],7],[[259.24006,198.64316],[-1.24484,-0.19885],[0.01376,0.0022],7],[[259.2813,198.64938],[-0.01373,-0.00195],[0.13289,-0.18614],7]],&quot;closed&quot;:true}]}" fill="#fff1e2"/><path d="M258.52339,218.27533c-0.19509,0.82433 -0.82176,1.10194 -1.63295,1.12283c-0.01232,-0.04806 -0.02939,-0.09846 -0.05254,-0.15098c-0.30245,-0.68631 -1.00933,-0.37921 -1.00933,-0.37921c-2.58682,1.20499 -3.45168,-1.70954 -1.83771,-3.36332c0.06013,-0.03952 0.12137,-0.09616 0.17391,-0.16612c0.96783,-0.86372 2.0379,-0.91605 2.32965,-0.18632l-0.05837,0.13941c0.03424,0.179 0.08815,0.35795 0.14142,0.52669c-0.02212,0.23443 -0.07117,0.51762 -0.18408,0.82066l-0.7347,0.12578c0,0 -0.72207,0.05914 -0.5904,0.79749c0.13168,0.73835 0.82552,0.58576 0.82552,0.58576l1.28783,-0.28653c0.08808,-0.14383 0.25783,-0.24919 0.32714,-0.392c0.29735,0.32667 0.63856,0.60505 1.01459,0.80587z" data-paper-data="{&quot;noHover&quot;:false,&quot;origItem&quot;:[&quot;Path&quot;,{&quot;applyMatrix&quot;:true,&quot;selected&quot;:true,&quot;segments&quot;:[[[253.65812,195.64694],[-0.33675,0.28588],[-0.14033,-0.07421],7],[[253.23633,195.39634],[0.1407,0.093],[0,0],7],[[252.97181,194.05946],[0,0],[0,0],7],[[253.60821,193.21093],[-0.74246,0.10607],[0.74246,-0.10607],7],[[254.45673,193.84733],[0,0],[0,0],7],[[254.48595,194.56662],[0,0],[0.29896,0.12332],7],[[255.28508,194.79314],[-0.23353,-0.03021],[0.17047,-0.04741],7],[[255.81124,194.67962],[-0.18008,0.02803],[0,0],7],[[255.94862,194.74259],[0,0],[0.73938,-0.26635],7],[[255.85226,192.46012],[0.82974,0.99711],[-0.0681,-0.05494],7],[[255.69583,192.28414],[0.03742,0.06146],[-1.59699,-1.67017],7],[[252.35447,193.96859],[-1.11484,-2.62693],[0,0],7],[[251.93665,194.94349],[0.69636,-0.27854],[-0.05329,0.02132],7],[[251.78406,194.99106],[0.04846,-0.01065],[-0.00717,0.81142],7],[[252.82594,196.63632],[-0.81709,-0.22347],[0.21371,-0.36886],7]],&quot;closed&quot;:true}]}" fill="#fff1e2"/></g><g stroke="none" stroke-width="0.5" stroke-linecap="butt"><path d="M225.91135,232.06939c-1.18188,1.31737 -3.16638,1.59422 -4.36664,2.69707c-1.76486,1.62163 -0.70296,3.97813 1.30643,3.96629c0.89884,-0.0053 1.79786,0 2.69672,0c3.76552,0 5.03951,-1.04182 6.36942,-4.80824c0.28503,-0.80722 0.90967,-1.9133 0.89735,-2.81329c-0.01455,-1.06246 -0.28371,-2.10571 -0.37473,-3.17369c-0.37083,0.13713 -0.7239,0.24991 -0.99913,0.35584c-1.20789,0.46487 -2.92699,1.2941 -4.47711,1.27777c-0.29069,0.82963 -0.46874,1.84779 -1.0523,2.49826zM233.78722,227.29263c-0.00313,1.28756 0.41648,2.54844 0.40451,3.81859c-0.05299,5.62175 -3.91795,9.12153 -8.64387,9.12153c-0.89887,0 -1.79787,0.00467 -2.69672,0c-3.30113,-0.01716 -4.80255,-4.0816 -2.1993,-6.60827c1.97958,-1.92135 3.79185,-1.65912 4.92889,-4.35327c-0.33367,-0.16051 -0.64497,-0.39275 -0.92425,-0.7139c-1.05976,-1.21862 -0.30071,-5.5106 -0.06449,-7.05442c0.00533,-3.55598 -0.69745,-7.18026 -1.33806,-10.66339c-0.18228,-0.99107 -1.0225,-3.53618 -0.44915,-4.50281c0.91143,-1.53661 4.87933,-1.82327 6.4053,-2.10792c3.70729,-0.67302 7.26721,-1.61629 10.81717,-2.90909l0.40451,-0.14687c0,0 0.65322,-0.23717 0.87096,0.47434c0.12877,0.42079 -0.04708,0.67568 -0.21229,0.81372c0.24762,0.21912 0.24762,0.5984 0.24762,0.5984c-0.00493,4.0294 0.51166,8.13657 0.91886,12.13043c0.11864,1.16366 0.70973,4.07172 0.2519,5.16657c-0.02322,0.05554 -0.04718,0.1095 -0.07186,0.16194c1.37064,-0.13239 2.78419,-0.57715 4.00173,-0.86192c0.68707,-0.1607 2.22126,-0.86391 2.91562,-0.56819c2.48629,1.05889 0.67655,6.94613 -0.54506,8.26971c-3.29245,0.95594 -6.70702,1.68375 -10.06907,2.29018c-1.02356,0.18462 -2.90124,0.46682 -3.7154,-0.51901c-0.44966,-0.54447 -0.6185,-1.42022 -0.69073,-2.35712c-0.14608,0.19332 -0.33419,0.36155 -0.54705,0.50971c0.00026,0.00719 0.00026,0.01106 0.00026,0.01106zM236.02669,228.09992c0.49097,0.66328 2.6765,0.06567 3.26906,-0.07289c2.93941,-0.68734 5.90008,-1.24634 8.83497,-1.97453c0.84482,-0.93377 0.86422,-2.51543 0.86422,-3.75342c0,-0.59459 0.48486,-1.79364 -0.06092,-1.78255c-2.72939,0.05548 -5.21571,1.69807 -7.9381,1.48928c-0.54218,0.27325 -1.15702,0.42246 -1.79513,0.57963c-0.80614,0.25102 -2.23599,0.85042 -3.63183,1.14411c0.08127,1.27356 -0.11308,3.59923 0.45773,4.37037zM239.05241,220.7401c0.21774,-0.71151 0.87096,-0.47434 0.87096,-0.47434c0.25774,0.09733 0.52423,0.16716 0.79723,0.21396c0.20414,-0.16016 0.37651,-0.36777 0.49663,-0.64387c0.35166,-0.8083 -0.23579,-3.56718 -0.32839,-4.47452c-0.41369,-4.05329 -0.92325,-8.21294 -0.9279,-12.30206c0,0 0,-0.05833 0.01493,-0.14245c-3.45961,1.22266 -6.92982,2.13625 -10.5394,2.79154c-1.04663,0.18375 -4.82361,0.48241 -5.46026,1.41693c-0.21079,0.30941 0.57518,3.13159 0.62954,3.42811c0.66473,3.62614 1.35419,7.36966 1.35865,11.07321c-0.11732,0.76676 -0.86335,5.38164 -0.33416,5.87004c0.27713,0.25577 0.58323,0.41606 0.9073,0.50384c0.10651,-0.01659 0.22789,-0.0019 0.36139,0.06823c1.37974,0.15578 2.99514,-0.77188 4.08226,-1.18934c0.38616,-0.14829 2.01385,-0.53662 2.30592,-1.08658c0.13114,-0.24695 -0.14536,-1.29958 -0.36355,-2.11568c-0.30413,-0.13289 -0.56528,-0.33226 -0.76648,-0.61499c-0.81704,-1.14814 -0.42112,-3.51776 -0.42112,-4.87536c0,-1.30313 0.02523,-2.5804 0.08256,-3.84601c-0.04227,-0.73616 -0.1045,-1.47235 -0.2093,-2.20779c-0.11922,-0.83662 -1.03383,-4.2517 -0.78108,-4.90706c0.3127,-0.81081 1.33723,-1.1949 2.19479,-1.13363c0.23308,-0.12576 0.46616,-0.25152 0.69924,-0.37728l0.07764,0.0171l-0.0053,-0.03463l0.79622,-0.14455c0.04085,-0.00823 0.08296,-0.01253 0.12599,-0.01253c0.38028,0 0.68855,0.33579 0.68855,0.75c0,0.3154 -0.17874,0.58533 -0.4319,0.69617l-0.92927,0.4338l-0.00721,-0.01833c-0.02322,0.0166 -0.04669,0.03285 -0.07042,0.04871c-0.05452,0.03645 -0.11778,0.06085 -0.18734,0.07604c-0.01131,2.65563 -0.38063,5.30213 -0.56435,7.97776c0.06569,2.32655 0.12348,4.62549 0.82183,6.9075c0.00186,0.01198 0.0038,0.02411 0.00583,0.03638c1.43877,0.02642 4.19745,-1.12336 4.81969,-1.3169c0.04919,-0.01168 0.09932,-0.02305 0.1502,-0.03433c-0.01128,-0.10286 -0.00144,-0.22134 0.0401,-0.35708zM232.28893,208.88354c0.06342,-0.48651 0.13308,-0.97433 0.20939,-1.46429c-0.22343,-0.00514 -0.37432,0.0557 -0.36515,0.28552c0.01439,0.36041 0.07329,0.75834 0.15576,1.17877z" fill="#000000"/><path d="M235.52328,223.72465c1.39584,-0.2937 2.83101,-0.91199 3.63715,-1.16301c0.6381,-0.15717 1.26929,-0.32517 1.81146,-0.59842c2.72239,0.20879 5.27291,-1.41538 8.0023,-1.47086c0.54578,-0.01109 0.06471,1.19777 0.06471,1.79236c0,1.23798 -0.01887,2.84633 -0.86369,3.7801c-2.93489,0.72819 -5.97153,1.31126 -8.91094,1.9986c-0.59256,0.13856 -2.78724,0.72306 -3.27821,0.05977c-0.57081,-0.77114 -0.38151,-3.12499 -0.46278,-4.39854z" data-paper-data="{&quot;noHover&quot;:false,&quot;origItem&quot;:[&quot;Path&quot;,{&quot;applyMatrix&quot;:true,&quot;segments&quot;:[[[236.02669,228.09992],[-0.57081,-0.77114],[0.49097,0.66328]],[[239.29575,228.02703],[-0.59256,0.13856],[2.93941,-0.68734]],[[248.13072,226.0525],[-2.93489,0.72819],[0.84482,-0.93377]],[[248.99494,222.29909],[0,1.23798],[0,-0.59459]],[[248.93402,220.51654],[0.54578,-0.01109],[-2.72939,0.05548]],[[240.99592,222.00581],[2.72239,0.20879],[-0.54218,0.27325]],[[239.20079,222.58544],[0.6381,-0.15717],[-0.80614,0.25102]],[[235.56896,223.72955],[1.39584,-0.2937],[0.08127,1.27356]]],&quot;closed&quot;:true}]}" fill="#424347"/><path d="M226.96672,229.52124c1.55012,0.01633 3.29888,-0.79806 4.50678,-1.26293c0.27523,-0.10593 0.63023,-0.21644 1.00106,-0.35357c0.09102,1.06798 0.36904,2.1281 0.38359,3.19056c0.01233,0.89998 -0.61018,2.02717 -0.89521,2.83439c-1.32991,3.76642 -2.66023,4.85168 -6.42575,4.85168c-0.89885,0 -1.81551,-0.01457 -2.71435,-0.00927c-2.00939,0.01185 -3.08748,-2.37174 -1.32262,-3.99337c1.20026,-1.10285 3.20277,-1.43282 4.38465,-2.75018c0.58357,-0.65047 0.79117,-1.67768 1.08186,-2.50731z" data-paper-data="{&quot;noHover&quot;:false,&quot;origItem&quot;:[&quot;Path&quot;,{&quot;applyMatrix&quot;:true,&quot;segments&quot;:[[[225.91135,232.06939],[0.58357,-0.65047],[-1.18188,1.31737]],[[221.54471,234.76646],[1.20026,-1.10285],[-1.76486,1.62163]],[[222.85114,238.73274],[-2.00939,0.01185],[0.89884,-0.0053]],[[225.54786,238.73274],[-0.89885,0],[3.76552,0]],[[231.91728,233.92451],[-1.32991,3.76642],[0.28503,-0.80722]],[[232.81463,231.11122],[0.01233,0.89998],[-0.01455,-1.06246]],[[232.43989,227.93753],[0.09102,1.06798],[-0.37083,0.13713]],[[231.44076,228.29337],[0.27523,-0.10593],[-1.20789,0.46487]],[[226.96365,229.57113],[1.55012,0.01633],[-0.29069,0.82963]]],&quot;closed&quot;:true}]}" fill="#424347"/><path d="M239.04806,221.12854c-0.05087,0.01128 -0.10143,0.02323 -0.15062,0.0349c-0.62224,0.19355 -3.40635,1.36022 -4.84512,1.33379c-0.00202,-0.01228 -0.02377,-0.12205 -0.02563,-0.13403c-0.69835,-2.28201 -0.79213,-4.53238 -0.85782,-6.85892c0.18372,-2.67564 0.59185,-5.27249 0.60316,-7.92812c0.06956,-0.01519 0.14805,-0.13819 0.20257,-0.17465c0.02373,-0.01586 0.04756,-0.03204 0.07078,-0.04864l0.00727,0.01834l0.93386,-0.43258c0.25317,-0.11084 0.40445,-0.28535 0.40445,-0.60075c0,-0.41421 -0.30417,-0.74876 -0.68445,-0.74876c-0.04303,0 -0.08457,0.00444 -0.12542,0.01267l-0.79247,0.14524l0.00525,0.03462l-0.07724,-0.01704c-0.23308,0.12576 -0.46271,0.25183 -0.69579,0.37759c-0.85756,-0.06127 -1.86941,0.32151 -2.18211,1.13232c-0.25275,0.65536 0.66569,4.06926 0.78491,4.90588c0.1048,0.73544 0.1805,1.46387 0.22276,2.20003c-0.05733,1.26561 -0.09475,2.4562 -0.09475,3.75933c0,1.3576 -0.40848,3.72432 0.40856,4.87246c0.2012,0.28273 0.45743,0.48202 0.76156,0.61491c0.21819,0.81609 0.49963,1.96858 0.36848,2.21552c-0.29207,0.54996 -1.9301,0.9378 -2.31626,1.08608c-1.08712,0.41746 -2.71578,1.34051 -4.09552,1.18473c-0.13349,-0.07013 -0.25598,-0.08544 -0.36249,-0.06885c-0.32407,-0.08777 -0.63327,-0.25003 -0.91039,-0.5058c-0.52918,-0.4884 0.20638,-5.11324 0.3237,-5.88c-0.00446,-3.70355 -0.69878,-7.50392 -1.36351,-11.13006c-0.05436,-0.29652 -0.83469,-3.12728 -0.62391,-3.43669c0.63665,-0.93452 4.43257,-1.24709 5.4792,-1.43083c3.60958,-0.65528 7.1198,-1.56397 10.5794,-2.78663c-0.01493,0.08412 -0.01477,0.14256 -0.01477,0.14256c0.00465,4.08912 0.53533,8.29008 0.94902,12.34337c0.0926,0.90733 0.6758,3.68803 0.32414,4.49633c-0.12012,0.27609 -0.29417,0.48728 -0.49831,0.64744c-0.27299,-0.0468 -0.54009,-0.1155 -0.79783,-0.21283c0,0 -0.65584,-0.23291 -0.87358,0.4786c-0.04154,0.13574 -0.05237,0.2556 -0.04109,0.35847z" data-paper-data="{&quot;noHover&quot;:false,&quot;origItem&quot;:[&quot;Path&quot;,{&quot;applyMatrix&quot;:true,&quot;segments&quot;:[[[239.05241,220.7401],[-0.04154,0.13574],[0.21774,-0.71151]],[[239.92337,220.26575],[0,0],[0.25774,0.09733]],[[240.7206,220.47971],[-0.27299,-0.0468],[0.20414,-0.16016]],[[241.21722,219.83584],[-0.12012,0.27609],[0.35166,-0.8083]],[[240.88883,215.36133],[0.0926,0.90733],[-0.41369,-4.05329]],[[239.96093,203.05926],[0.00465,4.08912],[0,0]],[[239.97586,202.91682],[-0.01493,0.08412],[-3.45961,1.22266]],[[229.43646,205.70835],[3.60958,-0.65528],[-1.04663,0.18375]],[[223.9762,207.12528],[0.63665,-0.93452],[-0.21079,0.30941]],[[224.60574,210.5534],[-0.05436,-0.29652],[0.66473,3.62614]],[[225.96439,221.6266],[-0.00446,-3.70355],[-0.11732,0.76676]],[[225.63023,227.49664],[-0.52918,-0.4884],[0.27713,0.25577]],[[226.53753,228.00048],[-0.32407,-0.08777],[0.10651,-0.01659]],[[226.89891,228.06871],[-0.13349,-0.07013],[1.37974,0.15578]],[[230.98118,226.87936],[-1.08712,0.41746],[0.38616,-0.14829]],[[233.28709,225.79278],[-0.29207,0.54996],[0.13114,-0.24695]],[[232.92354,223.67711],[0.21819,0.81609],[-0.30413,-0.13289]],[[232.15706,223.06212],[0.2012,0.28273],[-0.81704,-1.14814]],[[231.73594,218.18676],[0,1.3576],[0,-1.30313]],[[231.8185,214.34075],[-0.05733,1.26561],[-0.04227,-0.73616]],[[231.6092,212.13296],[0.1048,0.73544],[-0.11922,-0.83662]],[[230.82812,207.22589],[-0.25275,0.65536],[0.3127,-0.81081]],[[233.02291,206.09227],[-0.85756,-0.06127],[0.23308,-0.12576]],[[233.72215,205.71499],[-0.23308,0.12576],[0,0]],[233.79979,205.73208],[233.79449,205.69745],[[234.59071,205.55291],[0,0],[0.04085,-0.00823]],[[234.7167,205.54038],[-0.04303,0],[0.38028,0]],[[235.40525,206.29038],[0,-0.41421],[0,0.3154]],[[234.97335,206.98655],[0.25317,-0.11084],[0,0]],[234.04408,207.42034],[[234.03687,207.40201],[0,0],[-0.02322,0.0166]],[[233.96646,207.45073],[0.02373,-0.01586],[-0.05452,0.03645]],[[233.77912,207.52677],[0.06956,-0.01519],[-0.01131,2.65563]],[[233.21477,215.50453],[0.18372,-2.67564],[0.06569,2.32655]],[[234.03659,222.41203],[-0.69835,-2.28201],[0.00186,0.01198]],[[234.04242,222.44842],[-0.00202,-0.01228],[1.43877,0.02642]],[[238.86211,221.13151],[-0.62224,0.19355],[0.04919,-0.01168]],[[239.01231,221.09718],[-0.05087,0.01128],[-0.01128,-0.10286]]],&quot;closed&quot;:true}]}" fill="#3b3d48"/></g><g stroke="none" stroke-width="0.5" stroke-linecap="butt"><path d="M220.98004,193.92027c3.8813,-0.26809 8.36301,0.3133 12.08622,0.82201l0.18658,0.0593c0.36368,-0.30663 0.53966,-0.60718 0.85899,-1.08843c0,0 0.05837,-0.08784 0.19645,-0.17084c-0.00649,-0.05118 0.00333,-0.10862 0.03515,-0.17299c0.2202,-0.44539 1.05343,-0.33154 1.05343,-0.33154c0.73372,0.10042 2.77794,0.17007 3.23287,0.48888c0.93614,0.65604 0.48968,1.42801 -0.4444,1.98796c0.04529,0.06373 0.05657,0.11268 0.05657,0.11268c0.27419,1.19014 0.54839,2.38029 0.82258,3.57042l0.02012,0.08732c0.10233,0.06085 0.15255,0.11695 0.15255,0.11695c0.72027,0.80626 1.92209,1.30321 2.68407,2.07112c0.99682,1.00458 0.64616,2.6295 0.55744,3.72977l-0.32887,0.36501c0,0 -0.04512,0.03099 -0.12587,0.06796c0.04744,0.6745 -0.12718,1.2934 -0.90102,1.98043c-3.50324,2.39373 -8.94807,2.77417 -14.22104,3.14224c-3.04616,0.21263 -5.80177,0.54988 -5.8191,-1.49993c-0.18823,-0.11636 -0.22241,-0.26472 -0.22241,-0.26472l-0.08065,-0.61986c0.82929,-1.64846 0.78458,-4.40426 -0.40049,-6.02916c-1.14989,-1.57665 -3.7678,-2.61617 -5.02773,-4.1565c-2.01763,-0.15913 -3.72652,-0.47215 -3.71875,-1.25026c0.00451,-0.45111 1.57322,-1.21053 2.27586,-1.67552c-0.73708,-2.22689 3.11748,-1.84125 6.40883,-1.11456c0.2046,-0.19574 0.66262,-0.22771 0.66262,-0.22771zM240.82497,203.96275c0.024,-0.00168 0.04739,-0.00294 0.07023,-0.00383c0.06313,-0.74629 0.02305,-1.53872 -0.5152,-2.06745c-0.69025,-0.67805 -1.73469,-1.17049 -2.46563,-1.85067c-0.41651,-0.09764 -0.47847,-0.36662 -0.47847,-0.36662c-0.24531,-1.06478 -0.55647,-2.41535 -0.81565,-3.54033c-0.48987,0.11662 -0.99025,0.17148 -1.43955,0.14201l-0.423,-0.0577c-0.1184,0.19112 -0.22909,0.38359 -0.32847,0.57761c0.6306,0.27814 0.8087,0.673 0.09372,1.1521c0.63126,1.2286 3.4996,2.42662 3.7361,3.66416c0.21082,1.10319 -2.98782,2.35653 -3.7095,3.44463c-0.19736,0.29756 -0.41954,1.2123 -1.09397,1.25125c-1.1054,0.06385 -2.38791,-1.2174 -2.96788,-1.61809c-0.44193,-0.60095 -1.82331,-1.66354 -2.08961,-2.20758c-0.48406,-0.98897 1.48282,-2.38751 1.92629,-3.38966c-0.10187,0.00663 -0.20755,0.01362 -0.31826,0.02152l-0.33897,-0.06949c0.00668,0.02694 0.01321,0.05431 0.01961,0.08211l0.06169,0.26778c0,0 0.10502,0.45582 -0.7504,0.51553c-0.85542,0.05971 -0.96043,-0.39611 -0.96043,-0.39611l-0.06169,-0.26778c-0.06892,-0.29913 0.08447,-0.62566 -0.14147,-0.90124c-0.17619,-0.21489 -1.66664,-0.29181 -1.97977,-0.33459c-1.41027,-0.27934 -0.57952,0.70153 -2.21317,0.99887c-1.06954,0.19467 -1.55002,-0.26408 -2.34433,-0.43184c-0.75423,-0.1593 -2.28868,-0.19922 -3.917,-0.27143c1.33889,1.2914 3.57613,2.26655 4.59757,3.6881c1.31631,1.83192 1.37691,4.74245 0.46841,6.60765l0.11463,0.2501c0.25347,0.1378 0.24584,0.34381 0.24584,0.34381c-0.08078,1.47083 2.73469,0.7316 4.89026,0.58113c4.38898,-0.30636 9.11615,-0.67628 12.01113,-2.67945c0.93945,-0.79228 0.61218,-1.55277 0.40766,-2.44046l-0.04113,-0.17852c0,0 -0.10502,-0.45582 0.7504,-0.51553zM235.73599,194.01402c-0.34424,0.51744 -0.6015,0.88565 -1.01908,1.24772c0.00061,0.00008 0.00092,0.00012 0.00092,0.00012l0.85412,0.1169c0.92893,0.18463 2.10361,-1.09402 1.75884,-1.24215c-0.16152,-0.0694 -0.93883,-0.11147 -1.58029,-0.14894c-0.00818,0.01677 -0.01451,0.02634 -0.01451,0.02634zM232.04183,199.1995c-0.23383,0.6165 -2.36807,2.47245 -2.00775,2.98615c0.41785,0.59573 1.46254,1.35099 1.95386,2.04499c0.13476,0.0897 0.61448,0.34313 0.93994,0.59977c0.1878,-0.34573 0.48163,-0.74781 0.67235,-0.96393c0.39661,-0.44942 3.10502,-1.68909 2.94799,-2.13502c-0.36659,-1.04104 -2.46995,-2.08445 -3.40412,-3.14873c-0.2913,0.1008 -0.59655,0.19063 -0.91209,0.26663c-0.03832,0.00923 -0.07606,0.01804 -0.11329,0.02646zM230.63848,198.06448c0.85095,-0.16184 2.06416,-0.42672 2.49362,-0.58242c-0.2618,-0.04634 -0.40092,-0.13356 -0.47297,-0.22346c-1.39113,-0.15858 -3.83638,0.02921 -2.06226,0.78254c0,0 0.01649,0.00819 0.04162,0.02335zM223.13562,196.09834c0,0 -0.49429,-0.09157 -0.57453,-0.33812c-1.91778,-0.60492 -7.50909,-2.23436 -6.96165,-0.64547c0.10376,0.08518 0.12579,0.17448 0.11257,0.25301c0.02871,0.10752 0.04173,0.37468 -0.47917,0.49343c-0.5765,0.4195 -1.20501,0.75056 -1.88196,1.14318c-0.27496,0.15947 0.79608,0.07403 1.1917,0.1174c0.94534,0.10362 1.78281,0.12582 2.75589,0.14543c1.41775,0.02858 3.2909,0.17947 4.63183,0.45226c0.45676,0.09292 0.78579,0.48706 1.2527,0.40543c0.46179,-0.08073 0.20229,-0.53496 0.53766,-0.72315c1.05754,-0.59341 1.38576,-0.41106 2.57444,-0.28223c0.75704,0.10344 1.33981,0.20437 1.79299,0.3344c0.02678,-0.1409 0.10202,-0.26724 0.21704,-0.37967c-1.7452,-0.2599 -3.47485,-0.66198 -5.1695,-0.97592z" fill="#000000"/><path d="M230.55315,198.06121c-1.77412,-0.75333 0.76476,-0.97661 2.15589,-0.81802c0.07205,0.0899 0.21826,0.18838 0.48006,0.23473c-0.42946,0.15571 -1.74156,0.44588 -2.5925,0.60772c-0.02513,-0.01516 -0.04344,-0.02442 -0.04344,-0.02442z" data-paper-data="{&quot;noHover&quot;:false,&quot;origItem&quot;:[&quot;Path&quot;,{&quot;applyMatrix&quot;:true,&quot;segments&quot;:[[[467.52014,378.80687],[-0.03734,-0.05477],[1.53289,-0.33178]],[[472.05514,377.4843],[-0.80306,0.4072],[-0.43338,-0.20928]],[[471.32774,376.65365],[0.08859,0.30745],[-2.33771,-0.82811]],[[467.4576,378.72186],[-2.7622,-2.84089],[0,0]]],&quot;closed&quot;:true}]}" fill="#ff0000"/><path d="M232.10698,198.84587c0.03723,-0.00842 0.07623,-0.01737 0.11455,-0.0266c0.31555,-0.076 0.63048,-0.16637 0.9218,-0.26718c0.93419,1.06427 3.09573,2.13898 3.46234,3.18002c0.15703,0.44594 -2.60351,1.71544 -3.00011,2.16486c-0.19073,0.21612 -0.49273,0.61832 -0.68054,0.96406c-0.32547,-0.25665 -0.81677,-0.51097 -0.95153,-0.60067c-0.49133,-0.694 -1.57686,-1.47045 -1.99471,-2.06617c-0.36032,-0.51369 1.81519,-2.40783 2.04902,-3.02434z" data-paper-data="{&quot;noHover&quot;:false,&quot;origItem&quot;:[&quot;Path&quot;,{&quot;applyMatrix&quot;:true,&quot;segments&quot;:[[[469.49072,382.80012],[0,0],[-0.64867,1.94381]],[[464.83851,392.01747],[-0.41758,-1.74517],[0.48426,2.02384]],[[467.39735,399.08228],[-0.57199,-2.35872],[0.1969,0.32098]],[[468.78101,401.23726],[-0.45963,-0.90478],[0.46157,-1.07727]],[[470.3246,398.26738],[-0.41507,0.65682],[0.86314,-1.36588]],[[476.26104,392.01912],[0.0937,1.47976],[-0.21875,-3.45448]],[[471.63821,381.05177],[1.18903,3.65805],[-0.54281,0.26063]],[[469.95814,381.7091],[0.57477,-0.17481],[-0.0698,0.02123]],[[469.7521,381.76918],[0.0676,-0.01885],[0,0]]],&quot;closed&quot;:true}]}" fill="#ff0000"/><path d="M235.73795,193.95783c0.64146,0.03747 1.4768,0.09047 1.63833,0.15987c0.34477,0.14813 -0.89459,1.47466 -1.82353,1.29004l-0.87921,-0.12616c0,0 -0.00032,-0.00005 -0.00093,-0.00013c0.41759,-0.36207 0.70549,-0.77969 1.04973,-1.29713c0,0 0.00744,-0.0097 0.01562,-0.02648z" data-paper-data="{&quot;noHover&quot;:false,&quot;origItem&quot;:[&quot;Path&quot;,{&quot;applyMatrix&quot;:true,&quot;segments&quot;:[[[477.92773,366.84102],[0,0],[-0.79982,1.598]],[[475.67294,370.65163],[0.86461,-1.07823],[0.00102,0.0004]],[475.67448,370.65224],[[477.10202,371.22395],[0,0],[1.52973,0.80796]],[[480.63126,367.59862],[0.53609,0.55769],[-0.25116,-0.26128]],[[477.96326,366.759],[1.09212,0.26636],[-0.02077,0.05249]]],&quot;closed&quot;:true}]}" fill="#0032ff"/><path d="M228.3613,197.08045c-0.11502,0.11243 -0.19165,0.24158 -0.21843,0.38248c-0.45318,-0.13003 -1.03574,-0.23132 -1.79278,-0.33475c-1.18869,-0.12883 -1.52519,-0.30216 -2.58274,0.29125c-0.33537,0.18819 -0.08906,0.64952 -0.55085,0.73025c-0.46691,0.08163 -0.80505,-0.30961 -1.26182,-0.40254c-1.34092,-0.27279 -3.28818,-0.43574 -4.70594,-0.46432c-0.97308,-0.01962 -1.81634,-0.04922 -2.76168,-0.15285c-0.39562,-0.04337 -1.46757,0.03993 -1.19263,-0.11954c0.67694,-0.39263 1.30495,-0.73359 1.88145,-1.1531c0.52089,-0.11876 0.51037,-0.39159 0.48166,-0.49911c0.01322,-0.07853 -0.00727,-0.17002 -0.11102,-0.2552c-0.54744,-1.58889 5.14932,0.03968 7.06709,0.64459c0.08026,0.24654 0.57922,0.34779 0.57922,0.34779c1.69465,0.31394 3.42325,0.72514 5.16845,0.98504z" data-paper-data="{&quot;noHover&quot;:false,&quot;origItem&quot;:[&quot;Path&quot;,{&quot;applyMatrix&quot;:true,&quot;segments&quot;:[[[455.35362,370.74296],[2.79975,1.39988],[0,0]],[[454.49653,369.51802],[0.04047,0.81662],[-3.06915,-2.3927]],[[442.73893,365.85372],[-0.31301,-5.2697],[0.14519,0.29933]],[[442.83261,366.6986],[0.05403,-0.25136],[0.0068,0.35469]],[[441.80948,368.18836],[0.94617,-0.26686],[-1.16169,1.22832]],[[438.10712,371.46534],[1.32437,-1.11857],[-0.53791,0.45432]],[[440.11705,372.11496],[-0.66551,-0.22989],[1.59024,0.54932]],[[444.81527,373.209],[-1.67151,-0.28352],[2.43537,0.41308]],[[452.62894,375.72086],[-2.20566,-1.18664],[0.75132,0.40421]],[[454.62961,377.31713],[-0.83824,0.15881],[0.82904,-0.15707]],[[455.845,375.09662],[-0.6536,0.53365],[2.06102,-1.6828]],[[460.40012,374.76457],[-2.00018,-0.68598],[1.26536,0.50614]],[[463.36146,376.25293],[-0.73039,-0.52358],[0.10223,-0.45029]],[[463.88698,375.07234],[-0.24319,0.33812],[-2.90847,-1.23628]]],&quot;closed&quot;:true}]}" fill="#0032ff"/><path d="M240.13034,204.48542l0.0407,0.17939c0.20451,0.88769 0.52245,1.65833 -0.417,2.45061c-2.89499,2.00318 -7.67739,2.38522 -12.06637,2.69158c-2.15557,0.15046 -4.99182,0.88566 -4.91105,-0.58517c0,0 0.00556,-0.20671 -0.24791,-0.34451l-0.11598,-0.25059c0.9085,-1.8652 0.82614,-4.80905 -0.49017,-6.64097c-1.02144,-1.42155 -3.24957,-2.40655 -4.58846,-3.69795c1.62832,0.07222 3.16877,0.10845 3.923,0.26775c0.79431,0.16776 1.27962,0.62425 2.34916,0.42958c1.63365,-0.29734 0.81684,-1.28254 2.22712,-1.0032c0.31312,0.04278 1.81316,0.11812 1.98935,0.33301c0.22594,0.27557 0.09755,0.66183 0.16646,0.96096l0.03472,0.20831c0,0 0.11198,0.45512 0.9674,0.39541c0.85542,-0.05971 0.75741,-0.51577 0.75741,-0.51577l-0.06173,-0.20649c-0.00641,-0.0278 -0.01353,-0.11647 -0.0202,-0.1434l0.34155,0.0695c0.1107,-0.00789 0.20961,0.04631 0.31148,0.03968c-0.44346,1.00215 -2.36434,2.39118 -1.88028,3.38015c0.26629,0.54404 1.59141,1.55603 2.03334,2.15698c0.57997,0.40068 1.84672,1.68567 2.95212,1.62182c0.67443,-0.03896 0.88116,-0.94603 1.07851,-1.24358c0.72168,-1.0881 3.9118,-2.31346 3.70097,-3.41666c-0.2365,-1.23755 -3.07576,-2.41782 -3.70701,-3.64642c0.71498,-0.4791 0.54117,-0.87297 -0.08943,-1.1511c0.09936,-0.19402 0.25208,-0.44371 0.37048,-0.63484l0.42466,0.05805c0.44929,0.02947 0.95397,-0.02433 1.44384,-0.14094c0.25918,1.12498 0.58762,2.48293 0.83294,3.5477c0,0 0.06489,0.271 0.4814,0.36864c0.73094,0.68018 1.78457,1.18381 2.47483,1.86186c0.53824,0.52873 0.57901,1.33192 0.51588,2.0782c-0.02284,0.00088 -0.04624,0.0022 -0.07024,0.00387c-0.85542,0.05971 -0.7515,0.51852 -0.7515,0.51852z" data-paper-data="{&quot;noHover&quot;:false,&quot;origItem&quot;:[&quot;Path&quot;,{&quot;applyMatrix&quot;:true,&quot;segments&quot;:[[[482.75458,400.21246],[-1.5,0],[0.04208,0]],[[482.8773,400.21594],[-0.03975,-0.00229],[0.40568,-2.40273]],[[482.81021,393.4036],[0.71867,1.83408],[-0.92163,-2.35203]],[[479.29091,386.85244],[0.991,2.36813],[-0.67997,-0.41039]],[[478.61094,385.55689],[0,0],[0,-3.50396]],[[478.61094,373.90641],[0,3.70209],[-0.89177,0.26695]],[[476.07015,374.04091],[0.76367,0.19701],[0,0]],[[475.36308,373.75841],[0,0],[-0.28033,0.59223]],[[474.56657,375.55486],[0.24863,-0.60591],[0.97768,1.04337]],[[474.27023,379.30737],[1.42437,-1.39002],[0.60092,4.12177]],[[479.26104,392.01912],[0.0839,-4.06152],[-0.07479,3.62058]],[[471.48969,402.33665],[1.67808,-3.36089],[-0.4589,0.91908]],[[469.10425,406.14178],[1.1794,0.0263],[-1.93306,-0.0431]],[[464.62571,400.23033],[0.84158,1.4288],[-0.52374,-2.04619]],[[461.89726,392.60825],[0.24324,1.82219],[-0.44216,-3.31241]],[[466.56932,382.06561],[-1.16377,3.14543],[-0.17844,-0.00156]],[[466.01153,382.06335],[0.19419,-0.00053],[0,0]],[[465.45416,381.76167],[0,0],[0.00081,0.08875]],[[465.45536,382.03204],[0,-0.0915],[0,0]],[465.45536,382.91325],[[463.95536,384.41325],[1.5,0],[-1.5,0]],[462.45536,382.91325],[[462.45536,382.03204],[0,0],[0,-0.98435]],[[462.56954,379.08121],[0.28036,0.94358],[-0.21862,-0.73579]],[[459.28595,377.55],[0.52336,0.20934],[-2.32275,-1.22352]],[[455.06937,380.28472],[2.93755,-0.59369],[-1.92318,0.38868]],[[451.19529,378.35613],[1.3041,0.7229],[-1.2383,-0.68643]],[[444.54335,376.59154],[2.78141,0.602],[1.79716,4.48514]],[[451.01133,389.57559],[-1.19756,-4.8349],[1.54327,6.23062]],[[449.1925,411.08168],[2.30947,-5.83544],[0,0]],[[449.29088,411.91757],[0,0],[0.38264,0.5036]],[[449.57845,413.08663],[0,0],[-0.7242,4.74532]],[[457.78687,416.0743],[-3.77985,0],[7.6962,0]],[[479.58072,410.11169],[-5.79255,5.83321],[1.93629,-2.35358]],[[481.25458,402.29994],[0,2.92119],[0,0]],[481.25458,401.71246]],&quot;closed&quot;:true}]}" fill="#0032ff"/></g><g stroke="none" stroke-width="0.5" stroke-linecap="butt"><path d="M261.06157,184.89027c0.82416,1.23553 0.56238,2.02681 0.35075,3.14018l-0.27843,0.5251c0,0 -0.0814,0.14039 -0.26622,0.20849c0.03807,3.16552 0.21503,6.44479 -0.93406,9.17164c-0.48222,1.14435 -1.17996,2.38537 -2.87575,2.59853c-1.17638,0.14787 -2.65384,-0.05197 -3.92496,-0.18967c-3.15294,-0.13448 -6.0062,-1.02665 -9.19898,-1.62946c-5.85721,-1.10587 -11.63009,-2.36124 -17.51916,-3.77022c-1.63046,-0.41425 -3.03298,-1.45315 -3.99597,-2.74128c-0.26995,-0.36109 -0.57873,-1.47494 -1.0292,-1.76792c-0.71002,-0.46179 -2.50241,-0.62508 -3.21359,-0.82392c-4.99062,-1.39532 -8.18149,-3.04057 -9.25607,-7.44917c-0.84158,-3.50674 -0.54943,-6.82518 -0.54943,-10.19067v-0.2801c0,0 0,-0.00828 0.00125,-0.02258c-1.6321,-1.66988 -2.60773,-4.15824 -2.67377,-5.75728c-0.4543,-3.32781 -0.38262,-8.24927 2.9123,-9.86023c3.23249,-1.58044 8.02883,-1.6198 11.99043,-2.0055c8.68425,-0.61158 19.22179,2.87341 28.35244,5.05794c4.53403,1.08478 9.69167,1.77376 14.11895,3.61109c4.24784,1.76286 7.95341,4.7027 12.2443,6.33774l0.84167,0.20137c0.41422,0.0991 0.75,0.4432 0.75,0.76858c0,0.16269 -0.08395,0.28989 -0.21967,0.36403l-0.89146,0.48698l-0.17452,-0.17884c-3.06133,1.72957 -8.4477,1.81809 -12.71219,1.13685c0.13331,0.22849 0.07654,0.43784 0.07654,0.43784c-0.51147,1.88535 -0.94211,3.82446 -1.2791,5.80062c0.43379,0.45193 0.79464,1.02364 1.08605,1.76847l0.12869,0.72155c0,0 0.10607,0.6086 -0.63639,0.51428c-0.74246,-0.09432 -0.84853,-0.70292 -0.84853,-0.70292l-0.04314,-0.25452c-0.20783,1.53243 -0.35807,3.08325 -0.44495,4.64497c0.07277,0.07218 0.11219,0.12806 0.11219,0.12806zM213.38252,179.34001c0.74246,0.26096 0.63639,0.81879 0.63639,0.81879l-0.25019,0.84003c-0.9058,0.19491 -1.06635,0.36958 -2.11194,0.10434c-0.67426,-0.17104 -1.21113,-0.44932 -1.62791,-0.79493c0.08526,0.65277 0.20243,1.31062 0.36191,1.97515c0.90507,3.84128 3.51995,4.9575 7.85991,6.1694c1.12408,0.31389 2.87726,0.44683 3.91807,1.16245c1.81748,1.24964 1.52411,3.55976 4.24598,4.15133c5.85834,1.40162 11.5999,2.64963 17.42596,3.7502c3.1242,0.59018 5.9066,1.46838 8.98674,1.6011c1.15362,0.12497 2.48599,0.31675 3.56328,0.2014c1.32805,-0.14221 1.75881,-1.23622 2.11641,-2.08926c1.19992,-2.86236 0.85469,-6.40131 0.85469,-9.69706c0,-0.6075 0.0099,-1.21421 0.02938,-1.81969c-0.12196,0.16748 -0.27231,0.32085 -0.45762,0.4564c-0.97827,0.71568 -2.58875,0.7153 -3.56279,-0.74642c-0.63923,-0.95928 -0.35926,-2.1148 -0.55088,-3.05844c-0.40555,-1.99719 -0.68071,-3.76798 -0.43312,-5.60419c-3.03453,-0.45649 -6.00947,-0.35963 -7.32188,1.61039c0,0 -0.31035,0.46209 -0.99312,0.05495c-0.68277,-0.40714 -0.37242,-0.86923 -0.37242,-0.86923c1.98594,-2.9353 6.8762,-2.47522 11.30375,-1.46986c0.85226,0.19352 1.61672,0.3718 2.29727,0.59422c0.08765,-0.13478 0.27444,-0.25606 0.67251,-0.16082c0.16981,0.04063 0.30117,0.10226 0.40279,0.17329c0.31511,-1.70193 0.69791,-3.37451 1.1402,-5.00678c0,0 0.01256,-0.04633 0.04869,-0.10463c-2.4091,-0.51818 -4.90238,-1.42585 -7.26247,-1.61973c-2.60035,-0.6165 -5.03284,-0.66029 -7.65172,-1.17053c-6.47269,-1.26109 -13.03973,-3.07684 -19.52248,-4.62786c-5.32164,-1.28263 -7.60971,1.18979 -8.53572,4.7669l0.01457,0.02799c0,0 0,0.54957 -0.67572,0.42545c-1.00822,1.49022 -2.40249,3.13002 -4.26838,3.76973c-1.41704,0.48582 -2.6963,0.27975 -3.7943,-0.3249c-0.00691,0.84618 -0.02904,1.69042 -0.042,2.53643c0.8607,-0.64677 2.16193,-0.38592 3.42397,1.89007c0,0 0.33541,0.60719 -0.33541,0.71017c-0.67082,0.10298 -1.00623,-0.50422 -1.00623,-0.50422c-1.78425,-3.24395 -2.77856,2.35086 0.64319,2.55707l-0.01787,-0.38184c0,0 0.10607,-0.55784 0.84853,-0.29689zM256.42183,183.50574c0.06971,0.61782 -0.3159,1.56043 0.43066,1.88205c1.69997,0.73235 1.55788,-2.42488 1.55728,-2.99508c0.01303,-1.61895 0.63102,-3.01854 0.78072,-4.60953c-0.62421,-0.20036 -1.34971,-0.32728 -2.16624,-0.51309c-0.3666,-0.08342 -0.7396,-0.16423 -1.11585,-0.23985c-0.34033,2.14027 0.25672,4.20048 0.51343,6.4755zM217.32037,167.70234c1.24826,-3.70086 4.01623,-6.09309 9.80754,-4.71659c6.4546,1.54428 12.99334,3.35293 19.43793,4.6095c2.59651,0.50627 5.0054,0.53494 7.58846,1.15925c3.94495,0.32407 8.25898,2.42545 12.14299,2.23098c1.76772,-0.08851 3.73451,-0.16168 5.38585,-0.48237c0.88627,-0.17212 1.67278,-0.58009 2.58949,-0.675c-3.99189,-1.69877 -7.51913,-4.36936 -11.52978,-6.04209c-4.30232,-1.79439 -9.37908,-2.44833 -13.78971,-3.50358c-8.8408,-2.11519 -19.39106,-5.68587 -27.77841,-5.01029c-3.68885,0.35943 -9.96563,0.19688 -12.31803,2.43312c-2.04015,1.93942 -2.05453,5.62238 -1.66245,8.48175c0.06914,1.99304 1.03322,5.4446 4.48908,5.99492c2.44831,0.38988 4.51078,-2.99155 5.30578,-4.26223c0,0 0.1036,-0.16511 0.33126,-0.21733z" fill="#000000"/><path d="M255.89366,176.98918c0.37626,0.07561 0.75944,0.15728 1.12604,0.2407c0.81653,0.18581 1.56205,0.31929 2.18626,0.51965c-0.1497,1.59099 -0.74778,3.06043 -0.76081,4.67937c0.0006,0.5702 0.10113,3.72873 -1.59884,2.99638c-0.74656,-0.32162 -0.37202,-1.26898 -0.44173,-1.8868c-0.25671,-2.27502 -0.85126,-4.40904 -0.51093,-6.5493z" data-paper-data="{&quot;noHover&quot;:false,&quot;origItem&quot;:[&quot;Path&quot;,{&quot;applyMatrix&quot;:true,&quot;segments&quot;:[[[513.43113,327.1896],[-0.51342,-5.636],[0.13943,1.53055]],[[514.29246,331.71909],[-1.49313,-0.3641],[3.39994,0.82908]],[[517.40701,323.14475],[0.0012,1.45142],[0.02605,-4.1299]],[[518.96845,310.93296],[-0.2994,4.14197],[-1.24843,-0.1299]],[[514.63597,310.94616],[1.63306,-0.02431],[-0.7332,0.01091]],[[512.40427,311.01523],[0.75251,-0.03669],[-0.68066,5.6566]]],&quot;closed&quot;:true}]}" fill="#00ffe2"/><path d="M212.58252,179.63904l-0.07893,0.37838c-3.42175,-0.2062 -2.42872,-5.80635 -0.64447,-2.5624c0,0 0.33555,0.60801 1.00637,0.50503c0.67082,-0.10298 0.33514,-0.71186 0.33514,-0.71186c-1.26203,-2.27599 -2.56353,-2.53953 -3.42423,-1.89276c0.01296,-0.84601 0.0352,-1.69514 0.04212,-2.54132c1.09801,0.60466 2.37751,0.80894 3.79454,0.32312c1.86589,-0.63971 3.2651,-2.29097 4.27331,-3.78119c0.67572,0.12411 0.6769,-0.42688 0.6769,-0.42688l-0.01454,-0.02803c0.92601,-3.57711 3.23642,-6.06039 8.55806,-4.77776c6.48275,1.55102 13.09644,3.37976 19.56914,4.64085c2.61888,0.51024 5.06055,0.56173 7.6609,1.17822c2.36009,0.19388 4.85862,1.10748 7.26772,1.62567c-0.03613,0.05831 -0.04861,0.10473 -0.04861,0.10473c-0.44229,1.63227 -0.82059,3.31162 -1.1357,5.01355c-0.10162,-0.07104 -0.32188,-0.11796 -0.49169,-0.15859c-0.39807,-0.09524 -0.5849,0.02596 -0.67255,0.16075c-0.68055,-0.22242 -1.44392,-0.39889 -2.29618,-0.59241c-4.42755,-1.00535 -9.23353,-1.48743 -11.21948,1.44787c0,0 -0.30804,0.46548 0.37473,0.87262c0.68277,0.40714 0.90623,-0.03687 0.90623,-0.03687c1.31241,-1.97001 4.3744,-2.08471 7.40893,-1.62821c-0.24759,1.8362 0.03324,3.62043 0.43879,5.61763c0.19162,0.94364 -0.08746,2.10689 0.55177,3.06617c0.97403,1.46171 2.48452,1.43812 3.46279,0.72244c0.18531,-0.13556 0.43563,-0.26639 0.55759,-0.43388c-0.01947,0.60549 -0.02945,1.21603 -0.02945,1.82353c0,3.29574 0.33782,6.85107 -0.8621,9.71343c-0.3576,0.85303 -0.79263,1.95063 -2.12068,2.09285c-1.07728,0.11536 -2.41368,-0.07405 -3.5673,-0.19902c-3.08014,-0.13272 -5.87701,-1.00695 -9.00122,-1.59714c-5.82606,-1.10057 -11.60881,-2.35905 -17.46715,-3.76067c-2.72187,-0.59157 -2.43988,-2.91028 -4.25735,-4.15991c-1.04081,-0.71562 -2.7988,-0.85349 -3.92288,-1.16737c-4.33996,-1.2119 -6.96382,-2.34195 -7.86889,-6.18323c-0.15948,-0.66452 -0.27806,-1.32603 -0.36332,-1.9788c0.41678,0.34562 1.04921,0.62366 1.72347,0.79471c1.04558,0.26524 1.11107,0.0922 2.01687,-0.10272l0.24955,-0.84187c0,0 0.10553,-0.55962 -0.63693,-0.82057c-0.74246,-0.26096 -0.75127,0.30191 -0.75127,0.30191z" data-paper-data="{&quot;noHover&quot;:false,&quot;origItem&quot;:[&quot;Path&quot;,{&quot;applyMatrix&quot;:true,&quot;segments&quot;:[[[427.35252,342.801],[-1.48492,-0.21213],[1.48492,0.21213]],[428.62531,344.49805],[[428.12493,346.78923],[0,0],[-1.81159,1.04805]],[[423.90106,348.34139],[2.09117,0.0384],[-1.34852,-0.02476]],[[420.64524,347.30908],[0.83355,0.62607],[0.17053,1.61006]],[[421.36905,352.1175],[-0.31896,-1.59478],[1.81014,9.22887]],[[437.08887,363.03736],[-8.67992,-0.44188],[2.24815,0.11445]],[[444.925,363.61034],[-2.08161,-1.18802],[3.63495,2.07455]],[[453.41696,371.59348],[-5.44374,0.15187],[11.71667,0]],[[488.26888,370.52663],[-11.65213,0.74685],[6.24841,-0.40049]],[[506.24236,369.12883],[-6.16028,1.53837],[2.30724,-0.38454]],[[513.36891,367.47101],[-2.15457,0.94995],[2.6561,-1.17108]],[[517.60173,360.86238],[-0.71519,2.38973],[2.39984,-8.01873]],[[519.31112,335.65228],[0,8.39121],[0,-1.54673]],[[519.36987,331.00131],[-0.03895,1.55348],[-0.24391,0.50073]],[[518.45463,332.44212],[0.37062,-0.45804],[-1.95655,2.4181]],[[511.32905,332.71198],[1.94807,3.12831],[-1.27845,-2.05301]],[[510.22729,325.26052],[0.38324,2.28586],[-0.81111,-4.83796]],[[509.36105,311.25566],[-0.49519,4.82593],[-6.06906,0.68623]],[[494.71729,319.816],[2.62481,-5.81527],[0,0]],[[492.73104,320.56085],[1.36555,0.6207],[-1.36555,-0.6207]],[[491.9862,318.57459],[0,0],[3.97189,-8.68326]],[[514.59369,307.94646],[-8.8551,0.13735],[1.70452,-0.02644]],[[519.18823,308.05999],[-1.3611,-0.15174],[0.1753,-0.39656]],[[520.53325,307.24087],[-0.79614,0],[0.33962,0]],[[521.33883,307.43673],[-0.20324,-0.11897],[0.63022,-4.5252]],[[523.61924,293.9945],[-0.88458,4.42533],[0,0]],[[523.71662,293.69845],[-0.07226,0.17045],[-4.8182,0.14819]],[[509.19169,293.99846],[4.72017,-0.94403],[-5.2007,0.01436]],[[493.88825,295.67931],[5.23776,-0.2962],[-12.94539,0.73206]],[[454.84329,295.78867],[12.96551,0],[-10.64329,-0.02396]],[[437.77186,313.12516],[1.85202,-9.67168],[0,0]],[437.80099,313.18757],[[436.44954,314.68243],[1.35144,-0.09562],[-2.01643,4.40839]],[[427.91277,326.88058],[3.73179,-2.76537],[-2.83408,2.10014]],[[420.32417,328.36468],[2.19601,0.87063],[-0.01383,2.15867]],[[420.24016,334.84822],[0.02592,-2.1619],[1.7214,-2.17101]],[[427.0881,337.57476],[-2.52407,-5.02607],[0,0]],[[426.41728,339.58723],[1.34164,-0.67082],[-1.34164,0.67082]],[[424.40482,338.91641],[0,0],[-3.5685,-7.17245]],[[425.6912,345.0351],[-6.84351,1.55937],[0,0]],[425.65546,344.07379]],&quot;closed&quot;:true}]}" fill="#fff1e2"/><path d="M217.03741,167.92106c-0.795,1.27068 -2.95117,4.65631 -5.39947,4.26644c-3.45586,-0.55032 -4.42345,-4.01102 -4.49259,-6.00406c-0.39209,-2.85937 -0.37837,-6.5558 1.66179,-8.49521c2.3524,-2.23624 8.63527,-2.08648 12.32412,-2.4459c8.38735,-0.67558 19.00785,2.89813 27.84865,5.01331c4.41063,1.05526 9.50384,1.72656 13.80616,3.52093c4.01065,1.67273 7.54309,4.3545 11.53499,6.05328c-0.9167,0.09492 -1.70287,0.50411 -2.58914,0.67622c-1.65134,0.32069 -3.61774,0.39544 -5.38545,0.48395c-3.884,0.19449 -8.2952,-1.91197 -12.24015,-2.23605c-2.58307,-0.62431 -4.98827,-0.6449 -7.58478,-1.15117c-6.44459,-1.25658 -12.89023,-3.05249 -19.34483,-4.59677c-5.79131,-1.3765 -8.55961,0.99731 -9.80786,4.69817c-0.22765,0.05223 -0.33141,0.21685 -0.33141,0.21685z" data-paper-data="{&quot;noHover&quot;:false,&quot;origItem&quot;:[&quot;Path&quot;,{&quot;applyMatrix&quot;:true,&quot;segments&quot;:[[[435.22821,310.77181],[-0.45531,0.27165],[2.49651,-10.18306]],[[454.84329,292.78867],[-11.58263,0.02314],[12.90919,0]],[[493.71915,292.68408],[-12.88919,0.72643],[5.19302,-0.29268]],[[508.89608,291.01306],[-5.16613,-0.01606],[7.8899,-1.57798]],[[533.18205,289.29631],[-7.768,2.86114],[3.53543,-1.30218]],[[543.95374,284.78733],[-3.30268,1.82242],[1.77254,-0.97809]],[[549.13272,281.49131],[-1.83341,0.80008],[-7.98378,-1.89352]],[[526.07315,273.1311],[8.02131,1.8158],[-8.60463,-1.94785]],[[498.49374,272.61079],[8.82125,0],[-17.68159,0]],[[442.93692,276.7756],[16.77469,-6.82929],[-7.3777,3.16222]],[[418.30087,290.47412],[4.7048,-7.12662],[-4.08031,6.18067]],[[414.97597,313.082],[-0.78417,-7.04133],[0.13829,5.03232]],[[423.95413,325.61097],[-6.91171,0.704],[4.89662,-0.49875]],[[434.56569,311.52694],[-1.58999,3.71954],[0,0]]],&quot;closed&quot;:true}]}" fill="#442300"/><path d="M231.2813,170.29444c0.75,0.17944 0.75,0.76858 0.75,0.76858l-0.00078,0.00776c3.73387,0.90121 7.28957,2.48321 9.61997,4.68229c0.34077,0.40659 0.70071,0.80612 1.0802,1.19433l0.41815,0.52813c0,0 0.45,0.57898 -0.15,0.78891c-0.6,0.20993 -1.05,-0.36904 -1.05,-0.36904l-0.27881,-0.36859c-0.38667,-0.39689 -0.75732,-0.80343 -1.10401,-1.21916c-0.30764,-0.29207 -0.64321,-0.57183 -1.0031,-0.83911c-0.09907,2.07187 -0.57386,4.06469 -1.03849,6.01185c-0.14894,0.6242 -0.44581,2.06383 -1.23427,2.27134c-3.36554,0.88573 -4.83076,-3.86733 -5.24053,-5.57117c-0.23769,-1.93104 -0.66229,-4.20262 -1.28584,-6.22239c-4.54074,-0.87848 -9.1994,-0.71294 -11.61364,0.63691c0,0 -0.53033,0.2897 -1.06066,-0.25377c-0.53033,-0.54347 0,-0.83317 0,-0.83317c2.74755,-1.47195 7.6275,-1.68101 12.4438,-0.76076l-0.002,-0.04325c0,0 0,-0.58914 0.75,-0.4097zM233.53312,178.36112c0.16027,0.66946 1.07154,4.67846 2.89069,4.22145c0.49498,-0.12436 0.6698,-1.98425 0.73321,-2.41983c0.27999,-1.92324 0.88903,-3.65367 0.92319,-5.65232c-1.68432,-0.95239 -3.69225,-1.69527 -5.78399,-2.21438c0.58252,1.99304 1.0027,4.17615 1.2369,6.06509z" fill="#000000"/><path d="M232.27453,172.25546c2.09174,0.51912 4.14659,1.27471 5.83091,2.22709c-0.03417,1.99864 -0.63772,3.79529 -0.91771,5.71853c-0.06341,0.43558 -0.25858,2.29804 -0.75356,2.42239c-1.81915,0.45701 -2.77965,-3.57748 -2.93992,-4.24694c-0.2342,-1.88894 -0.6372,-4.12803 -1.21972,-6.12107z" data-paper-data="{&quot;noHover&quot;:false,&quot;origItem&quot;:[&quot;Path&quot;,{&quot;applyMatrix&quot;:true,&quot;segments&quot;:[[[467.65372,328.03382],[-0.4684,-4.66672],[0.32053,1.60687]],[[473.4351,337.02108],[-3.6383,2.27174],[0.98996,-0.61813]],[[474.90152,330.41336],[-0.12682,1.14764],[0.55997,-5.06727]],[[476.74791,315.45975],[-0.06834,5.10952],[-3.36864,-1.39885]],[[465.17993,313.3451],[4.18347,0.04753],[1.16504,4.71959]]],&quot;closed&quot;:true}]}" fill="#00ffe2"/><path d="M248.88462,187.32225c0,-0.56926 0.70024,-0.42093 0.7475,-0.41028c0.27222,-0.09513 0.51362,-0.23315 0.72465,-0.3942l-0.13672,-0.14129c-0.41819,-0.4947 -0.81552,-0.99837 -1.19573,-1.50702c0,0 -0.43593,-0.58369 0.17437,-0.78011c0.6103,-0.19642 1.04623,0.38728 1.04623,0.38728c0.35803,0.47984 0.73256,0.95493 1.12747,1.42122l0.30264,0.30672c0,0 0.34592,0.35449 0.19962,0.64349c0.11358,0.29895 -0.11965,0.49964 -0.11965,0.49964c-0.40857,0.34143 -0.90076,0.62855 -1.47204,0.79929l-0.64835,-0.05618c0,0 -0.75,-0.17944 -0.75,-0.76858zM249.601,186.92262l-0.15008,0.04492c0.05101,-0.01351 0.10104,-0.02852 0.15008,-0.04492z" fill="#000000"/></g><g stroke="none" stroke-width="0.5" stroke-linecap="butt"><path d="M218.02073,197.30593c1.4007,4.15701 1.06107,10.63044 0.14443,14.89467c-0.35663,1.65905 -2.09196,3.65228 -1.39127,5.3326c0.72738,1.05549 1.47774,0.75406 2.23753,1.60772c1.03815,1.16643 0.12079,2.12813 2.11803,2.26156c1.12634,0.07525 2.18582,-1.57484 3.40209,-0.70375c0.46045,0.32978 0.14562,1.59564 0.29124,2.10448c0.08362,0.2922 0.34735,-0.49955 0.50153,-0.76148c0.3687,-0.62639 0.681,-1.28584 0.97236,-1.95174c0.7772,-1.77627 0.94576,-3.17685 0.67371,-5.08119c0.00812,-4.63643 -2.5532,-9.04371 -3.08132,-13.6271c-0.23299,-2.02207 -0.04341,-4.20592 -0.00971,-6.27201c-1.99197,0.38214 -3.88231,0.62179 -6.00108,0.62179c-0.0319,-0.00079 -0.06355,-0.00183 -0.09497,-0.00314c0.08508,0.52494 0.16382,1.05094 0.23743,1.5776zM225.37942,201.21197c0.531,4.61856 3.07931,9.00999 3.08718,13.69051c0.40298,2.82085 -0.27272,5.55065 -1.87879,7.94769c-0.40089,0.59833 -1.41114,1.92123 -2.43585,1.29469c-1.44439,-0.88315 -1.06701,-1.56146 -0.58998,-2.30159c0.28895,-0.44831 -0.83355,0.70637 -1.33945,0.87532c-0.91952,0.30709 -1.86645,0.21685 -2.75896,-0.1837c-1.45218,-0.65171 -0.79738,-1.47969 -1.5435,-2.36492c-0.62858,-0.74576 -1.7025,-0.87761 -2.46227,-1.91713c-0.95323,-2.43929 0.75431,-4.08401 1.25237,-6.41691c0.87136,-4.08138 1.16413,-10.20645 -0.14931,-14.18536c-0.09519,-0.65367 -0.19496,-1.30674 -0.3036,-1.95831l-0.0102,-0.27017c0,0 0,-0.01128 0.00138,-0.03108c-3.62703,-1.63688 -1.65973,-8.66703 1.51935,-10.58775c1.95753,-1.18268 4.1305,0.29998 6.07553,0.94832c0,0 0.71151,0.23717 0.47434,0.94868c-0.10013,0.30038 -0.2848,0.43168 -0.46478,0.48312c0.99362,1.62466 4.58481,4.94633 3.60613,7.04259c-0.14767,0.31631 -1.4913,0.48005 -2.07597,0.57955c-0.0184,2.09766 -0.2409,4.34267 -0.00363,6.40646zM222.12484,186.63532c-1.01317,-0.47668 -2.19204,-1.02816 -2.96009,-0.89926c-3.07465,0.51601 -5.17575,8.63015 -1.28647,8.49542c2.49615,0 4.62261,-0.34746 7.04385,-0.8655c0.42165,-0.09021 1.27988,0.45209 1.2934,0.02111c0.04811,-1.53352 -2.92338,-4.22964 -3.72186,-5.56265l-0.31821,-0.78907c0,0 -0.07346,-0.18365 -0.05062,-0.40005z" fill="#000000"/><path d="M222.19415,186.98899l0.32816,0.79447c0.79848,1.333 3.78318,4.09744 3.73507,5.63096c-0.01352,0.43098 -0.87575,-0.106 -1.2974,-0.01579c-2.42125,0.51803 -4.61508,0.87321 -7.11123,0.87321c-3.88928,0.13473 -1.77845,-8.06569 1.29621,-8.58171c0.76805,-0.1289 1.98279,0.42116 2.99595,0.89784c-0.02284,0.2164 0.05323,0.40102 0.05323,0.40102z" data-paper-data="{&quot;noHover&quot;:false,&quot;origItem&quot;:[&quot;Path&quot;,{&quot;applyMatrix&quot;:true,&quot;segments&quot;:[[[222.12484,186.63532],[-0.02284,0.2164],[-1.01317,-0.47668]],[[219.16474,185.73606],[0.76805,-0.1289],[-3.07465,0.51601]],[[217.87827,194.23148],[-3.88928,0.13473],[2.49615,0]],[[224.92212,193.36598],[-2.42125,0.51803],[0.42165,-0.09021]],[[226.21552,193.38708],[-0.01352,0.43098],[0.04811,-1.53352]],[[222.49366,187.82444],[0.79848,1.333],[0,0]],[222.17545,187.03536]],&quot;closed&quot;:true}]}" fill="#0032ff"/><path d="M217.76864,195.68053c0.03141,0.00131 0.06338,0.00226 0.09528,0.00305c2.11877,0 4.03069,-0.24122 6.02266,-0.62336c-0.0337,2.06609 -0.21757,4.25112 0.01542,6.27319c0.52811,4.58339 3.10888,9.07706 3.10076,13.71349c0.27205,1.90434 0.08968,3.31325 -0.68751,5.08952c-0.29136,0.66589 -0.60939,1.32725 -0.97809,1.95364c-0.15417,0.26193 -0.42025,1.05424 -0.50387,0.76204c-0.14561,-0.50884 0.16986,-1.77484 -0.29059,-2.10462c-1.21627,-0.87109 -2.28981,0.78017 -3.41615,0.70492c-1.99724,-0.13343 -1.09044,-1.0969 -2.12859,-2.26333c-0.75979,-0.85366 -1.52222,-0.55739 -2.2496,-1.61289c-0.7007,-1.68032 1.02248,-3.68367 1.37911,-5.34273c0.91664,-4.26423 1.27839,-10.81803 -0.12231,-14.97504c-0.0736,-0.52666 -0.15143,-1.05295 -0.23651,-1.57789z" data-paper-data="{&quot;noHover&quot;:false,&quot;origItem&quot;:[&quot;Path&quot;,{&quot;applyMatrix&quot;:true,&quot;segments&quot;:[[[218.02073,197.30593],[-0.0736,-0.52666],[1.4007,4.15701]],[[218.16516,212.20061],[0.91664,-4.26423],[-0.35663,1.65905]],[[216.77389,217.5332],[-0.7007,-1.68032],[0.72738,1.05549]],[[219.01142,219.14092],[-0.75979,-0.85366],[1.03815,1.16643]],[[221.12945,221.40249],[-1.99724,-0.13343],[1.12634,0.07525]],[[224.53154,220.69874],[-1.21627,-0.87109],[0.46045,0.32978]],[[224.82278,222.80322],[-0.14561,-0.50884],[0.08362,0.2922]],[[225.3243,222.04174],[-0.15417,0.26193],[0.3687,-0.62639]],[[226.29666,220.09],[-0.29136,0.66589],[0.7772,-1.77627]],[[226.97037,215.00881],[0.27205,1.90434],[0.00812,-4.63643]],[[223.88905,201.3817],[0.52811,4.58339],[-0.23299,-2.02207]],[[223.87934,195.10969],[-0.0337,2.06609],[-1.99197,0.38214]],[[217.87827,195.73148],[2.11877,0],[-0.0319,-0.00079]],[[217.7833,195.72833],[0.03141,0.00131],[0.08508,0.52494]]],&quot;closed&quot;:true}]}" fill="#fff1e2"/></g><g stroke="none" stroke-width="0.5" stroke-linecap="butt"><path d="M227.94549,186.70071c1.43827,0.1832 6.57233,0.94406 7.86002,0.43266c-0.40236,-0.02075 -0.8019,-0.04338 -1.19814,-0.06776c-1.89146,-0.26726 -6.78926,-0.45979 -7.5767,-1.37063c-0.11217,-0.12974 0.22245,0.26181 0.26839,0.39861c0.07097,0.21137 0.09378,0.41578 0.10298,0.61898c0.26301,-0.04752 0.54346,-0.01185 0.54346,-0.01185zM234.32342,192.79508l0.0102,-0.00999c-0.204,-0.51885 -0.15698,-1.28633 -1.18414,-1.66731c-0.99762,-0.37003 -3.43104,0.06365 -3.97067,0.47487c0.11068,0.26803 0.22281,0.5336 0.42672,0.77769c0.54375,0.6509 3.39872,0.94822 4.78276,0.55629c-0.06488,-0.06936 -0.06488,-0.13155 -0.06488,-0.13155zM241.10594,187.28739l-0.01735,0.04349c-0.35772,0.45788 -0.61127,0.9315 -1.03141,1.37511c-0.29863,0.9094 -1.27685,1.62628 -2.08175,2.46116c-0.67444,0.69957 -0.85742,1.54066 -2.22481,2.10176c-1.7842,0.73213 -5.20114,0.51097 -6.79703,-0.19043c-1.16008,-0.50986 -1.14161,-1.47554 -1.65776,-2.13672c-0.55429,-1.41197 -1.1173,-2.79984 -1.34279,-4.23025c-0.07424,-0.471 -0.94442,-1.38494 0.71382,-1.6334c0.15552,-0.0233 1.8975,0.34003 2.16433,0.40468c2.06223,0.49965 3.92368,0.65353 6.12081,0.96398c1.62478,0.09665 3.32019,0.16528 5.04331,0.19479c0.12998,-0.05529 0.33028,-0.09602 0.63556,-0.07445c0.19878,0.01404 0.33524,0.04695 0.42853,0.08758c4.3873,0.03284 8.89576,-0.19983 12.82843,-0.8785c0,0 0.69636,-0.11807 0.9749,0.17711c0.27855,0.29518 -0.41782,0.41325 -0.41782,0.41325c-4.13643,0.69125 -8.78543,0.94753 -13.33898,0.92084z" fill="#000000"/><path d="M227.35246,186.71534c-0.0092,-0.20319 -0.0312,-0.41506 -0.10217,-0.62643c-0.04593,-0.1368 -0.28581,-0.51533 -0.17365,-0.3856c0.78744,0.91084 5.59326,1.08674 7.48472,1.354c0.39624,0.02439 0.88904,0.06225 1.2914,0.083c-1.2877,0.51139 -6.51849,-0.25336 -7.95676,-0.43656c0,0 -0.28053,-0.03593 -0.54354,0.01159z" data-paper-data="{&quot;noHover&quot;:false,&quot;origItem&quot;:[&quot;Path&quot;,{&quot;applyMatrix&quot;:true,&quot;segments&quot;:[[[455.3035,347.26607],[0,0],[2.87653,0.86436]],[[471.02354,349.30746],[-2.57539,2.41285],[-0.80472,-0.0979]],[[468.62726,348.98773],[0.79249,0.11507],[-3.78291,-1.26097]],[[453.47385,342.52084],[1.57489,4.29753],[-0.22433,-0.61213]],[[454.01063,344.40157],[-0.09187,-0.64544],[0.14194,0.99728]],[[454.21658,347.322],[-0.0184,-0.95871],[0.52602,-0.2242]]],&quot;closed&quot;:true}]}" fill="#ffffff"/><path d="M234.42729,192.9399c-1.38404,0.39193 -4.32507,0.08847 -4.86882,-0.56242c-0.2039,-0.24409 -0.31531,-0.52476 -0.42599,-0.79279c0.53964,-0.41121 3.04599,-0.85489 4.04361,-0.48486c1.02715,0.38099 0.99472,1.17844 1.19872,1.69729l-0.01044,0.01013c0,0 -0.00195,0.06328 0.06293,0.13264z" data-paper-data="{&quot;noHover&quot;:false,&quot;origItem&quot;:[&quot;Path&quot;,{&quot;applyMatrix&quot;:true,&quot;segments&quot;:[[468.05936,376.02042],[[468.07977,375.97328],[0,0],[-0.408,-2.44803]],[[465.71149,368.10661],[2.05431,1.79755],[-1.99524,-1.74586]],[[457.77015,370.34712],[1.07927,-1.94019],[0.22136,1.2646]],[[458.62359,374.01638],[-0.40781,-1.15164],[1.0875,3.07103]],[[468.18911,376.64107],[-2.76809,1.84919],[-0.12975,-0.32727]]],&quot;closed&quot;:true}]}" fill="#ff0000"/></g></g></g></svg>