<svg version="1.1" xmlns="http://www.w3.org/2000/svg" xmlns:xlink="http://www.w3.org/1999/xlink" width="49.05914" height="35.70694" viewBox="0,0,49.05914,35.70694"><g transform="translate(-215.47043,-162.22308)"><g data-paper-data="{&quot;isPaintingLayer&quot;:true}" fill-rule="evenodd" stroke-miterlimit="10" stroke-dasharray="" stroke-dashoffset="0" style="mix-blend-mode: normal"><path d="M244.3897,162.72682c0.18044,-0.11676 0.47764,-0.05309 0.53399,0.18614l1.46251,6.39874c0,0 3.77634,2.8535 4.88192,4.8359c1.8625,3.30427 1.88545,5.98724 1.88545,5.98724c0,0 4.21474,1.30952 4.88354,4.71669c0.66881,3.40717 -2.04174,9.8085 -13.27732,11.86067c-11.2356,2.05217 -20.19417,-1.11062 -24.33314,-7.96326c-4.13897,-6.85264 2.64741,-14.86747 2.28327,-14.39554c0,0 -0.48734,-9.51051 -0.25055,-9.38806l6.77328,3.21768c0,0 2.696,-0.9766 5.499,-1.05753c1.67053,-0.0964 3.09938,0.04237 4.467,0.29951z" fill="#ffab19" stroke="#001026" stroke-width="1.2" stroke-linecap="butt" stroke-linejoin="miter"/><path d="M263.92957,181.17635c-2.83232,2.22664 -7.12458,2.22759 -7.12458,2.22759" fill="none" stroke="#001026" stroke-width="1.2" stroke-linecap="round" stroke-linejoin="round"/><path d="M263.06349,187.84135c-3.75909,0.2467 -6.06814,-0.91754 -6.06814,-0.91754" fill="none" stroke="#001026" stroke-width="1.2" stroke-linecap="round" stroke-linejoin="round"/><path d="M242.87977,181.60402c1.25166,0.01711 2.56132,0.15423 2.61522,0.57228c0.0482,0.83526 -0.86866,2.49194 -1.82313,2.53851c-1.07449,0.10454 -3.55748,-1.41976 -3.54443,-2.37341c-0.04983,-0.71605 1.56028,-0.75366 2.75235,-0.73737z" fill="#001026" stroke="#001026" stroke-width="1.2" stroke-linecap="round" stroke-linejoin="round"/><path d="M216.07043,180.34336c0,0 5.10308,1.73896 7.16395,3.61518" fill="none" stroke="#001026" stroke-width="1.2" stroke-linecap="round" stroke-linejoin="round"/><path d="M223.38468,186.04711c-2.57679,0.97823 -6.9785,0.26231 -6.9785,0.26231" fill="none" stroke="#001026" stroke-width="1.2" stroke-linecap="round" stroke-linejoin="round"/><path d="M233.92835,179.91327c-0.01141,0.83415 -0.62739,1.50834 -1.3857,1.49798c-0.75831,-0.01037 -1.35564,-0.70115 -1.34425,-1.53529c0.01141,-0.83415 0.62739,-1.50834 1.3857,-1.49798c0.75727,0.08621 1.35564,0.70115 1.34425,1.53529" fill="#001026" stroke="none" stroke-width="1" stroke-linecap="butt" stroke-linejoin="miter"/><path d="M250.4345,179.32898c-0.01141,0.83415 -0.62739,1.50834 -1.3857,1.49798c-0.75831,-0.01037 -1.35564,-0.70115 -1.34425,-1.53529c0.01141,-0.83415 0.62739,-1.50834 1.3857,-1.49798c0.75727,0.08621 1.35564,0.70115 1.34425,1.53529" fill="#001026" stroke="none" stroke-width="1" stroke-linecap="butt" stroke-linejoin="miter"/></g></g></svg>