<svg version="1.1" xmlns="http://www.w3.org/2000/svg" xmlns:xlink="http://www.w3.org/1999/xlink" width="92.2033" height="128.86171" viewBox="0,0,92.2033,128.86171"><defs><radialGradient cx="265.94045" cy="175.99021" r="7.3567" gradientUnits="userSpaceOnUse" id="color-1"><stop offset="0" stop-color="#54606d"/><stop offset="1" stop-color="#2c3136"/></radialGradient></defs><g transform="translate(-191.25855,-109.54623)"><g data-paper-data="{&quot;isPaintingLayer&quot;:true}" stroke-miterlimit="10" stroke-dasharray="" stroke-dashoffset="0" style="mix-blend-mode: normal"><g stroke="#001026" stroke-width="1.2"><path d="M244.10793,188.98792c0.53129,0.3574 7.2043,7.0298 9.04904,5.07099c2.21863,-2.29078 5.16926,-6.64897 9.02915,-3.6571c3.85989,2.99186 -2.45511,9.13359 -5.22152,10.86765c-6.62083,3.65849 -12.68834,-1.75957 -14.0162,-3.25516c-1.32787,-1.49558 -3.64338,-4.0132 -3.85781,-6.60434c-0.13126,-2.79871 3.19943,-3.77673 5.01734,-2.42204z" fill="#ff0000" fill-rule="evenodd" stroke-linecap="round" stroke-linejoin="round"/><g fill-rule="nonzero" stroke-linejoin="miter"><g><path d="M251.72652,199.69088l4.6696,-21.68653l12.37566,4.64059l-10.01101,18.88463c0,0 -2.4662,0.92023 -3.60209,0.62331c-1.20481,-0.31493 -3.43217,-2.462 -3.43217,-2.462z" fill="#505a63" stroke-linecap="butt"/><path d="M256.17719,176.4574c1.42653,-3.80433 5.66699,-5.73191 9.47131,-4.30538c3.80433,1.42653 5.73191,5.667 4.30538,9.47131c-1.42653,3.80433 -5.667,5.73192 -9.47132,4.30538c-3.80433,-1.42653 -5.7319,-5.667 -4.30537,-9.47133z" fill="url(#color-1)" stroke-linecap="butt"/><path d="M257.92304,183.83218c0,0 0.74516,-4.57204 1.4799,-6.60132c0.6867,-1.89657 2.79416,-5.20315 2.79416,-5.20315" fill="none" stroke-linecap="round"/><path d="M264.3846,186.10275c0,0 0.81054,-5.70004 1.39485,-7.85391c0.43174,-1.59141 1.79395,-3.90044 1.79395,-3.90044" fill="none" stroke-linecap="round"/><path d="M255.96942,176.8531c0,0 4.95472,-0.82937 7.46017,-0.4816c2.17971,0.30255 6.73184,2.4515 6.73184,2.4515" fill="none" stroke-linecap="round"/><path d="M256.03632,182.36291c0,0 5.50452,-0.56365 7.96252,-0.47267c1.91074,0.07073 5.56161,0.9733 5.56161,0.9733" fill="none" stroke-linecap="round"/></g><path d="M264.0273,195.9666c-0.94375,2.54 -3.83743,4.08242 -6.46324,3.4451c-2.62581,-0.63732 -4.46003,-2.56811 -3.51628,-5.10812c0.94375,-2.54 4.30808,-4.72737 6.93388,-4.09004c2.62581,0.63732 3.98937,3.21305 3.04563,5.75306z" fill="#ffab19" stroke-linecap="butt"/></g></g><g fill-rule="evenodd"><path d="M224.7,200.85c0.8,0.4 2.5,1.3 0.1,4.7c-2.4,3.4 -9.3,4.1 -10.1,4.1c-3.1,0.1 -6.9,0.1 -11.1,-1.3c-12.2,-4 -12.3,-17.1 -8.4,-19.2c3.8,-2.1 5.5,6 11,10.9c2.4,2.2 5.3,3 7.7,3.5c3.4,0.6 9.9,-3.2 10.8,-2.7z" fill="#ffab19" stroke="#001026" stroke-width="1.2" stroke-linecap="round" stroke-linejoin="round"/><path d="M199.9,192.75c1.6,2.7 4.7,6.5 4.7,6.5c0,0 -3.7,-0.9 -5.8,0.8c-1.7,1.3 -1.3,3.5 -1.1,4.2c-1.3,-1.3 -2.9,-3.1 -3.9,-6.6c-1,-3.5 0,-7.7 2,-8.3c2,-0.4 2.5,1.1 4.1,3.4z" fill="#ffffff" stroke="none" stroke-width="1" stroke-linecap="butt" stroke-linejoin="miter"/></g><g><path d="M240.05693,201.12644c0.08631,0.74123 0.27366,2.12186 0.426,3.94804c0.28931,3.46796 0.45241,8.54265 -0.44234,13.89627l-0.09283,0.40172c-0.09283,0.40172 0.26153,0.80723 0.70873,0.81099c2.91056,-0.42268 8.59525,-1.00085 7.60824,4.67064c-0.89607,5.49336 -17.9558,7.89868 -19.3412,2.47552c-0.38286,-2.32883 1.01362,-3.52456 1.77915,-4.14422c0.40549,-0.35436 0.63286,-0.79968 0.77118,-1.29046c0.18943,-1.25065 0.47737,-3.57381 0.44887,-5.49714c-0.00399,-4.83012 -0.3508,-6.13001 -0.77726,-8.59336c-0.42646,-2.46336 -1.62994,-8.24277 2.90259,-10.0829c3.85985,-1.6222 5.71319,1.34515 6.00887,3.4049z" fill="#513726" fill-rule="evenodd" stroke="#001026" stroke-width="1.2" stroke-linecap="round" stroke-linejoin="round"/><path d="M222.62793,207.77317c0.11088,-2.07791 1.69228,-5.19867 5.68139,-3.92706c4.67855,1.42871 3.99511,7.2924 3.78997,9.78397c-0.20514,2.49157 0.36532,3.8172 0.79198,8.62844c0.14309,1.91821 -0.163,4.20645 0.13718,5.43523c0.10105,0.26525 0.99032,10.54547 -7.59827,10.10014c-7.58278,-0.39318 -1.39506,-12.24891 -1.39506,-12.24891c0,0 -1.45847,-10.32156 -1.4795,-13.8015c-0.01108,-1.83249 0.05244,-3.22433 0.07232,-3.9703z" data-paper-data="{&quot;index&quot;:null}" fill="#513726" fill-rule="evenodd" stroke="#001026" stroke-width="1.2" stroke-linecap="round" stroke-linejoin="round"/><g fill-rule="evenodd"><path d="M227.22623,207.58094c-10.91689,-4.68629 -5.73806,-10.43431 -4.94569,-15.88427c0.85759,-4.72489 2.17174,-4.37419 8.20172,-5.41311c3.35223,-0.75666 5.32626,-1.19628 7.34298,-2.08106c3.04307,-1.28052 4.2101,3.41396 4.26975,6.07035c0,0 0.02485,3.95593 -0.50455,6.1964c-0.66542,2.72162 -1.24543,4.55291 -2.0413,5.82436c0,0 -1.70993,2.73309 -3.86088,3.65599c-1.93347,0.82958 -8.46204,1.63134 -8.46204,1.63134z" fill="#ff0000" stroke="#001026" stroke-width="1.2" stroke-linecap="round" stroke-linejoin="round"/><path d="M238.67342,202.52409c0,0 -1.83128,-0.58001 -3.8638,-1.40396c-2.51366,-0.95996 -4.91939,-1.64 -4.16856,-5.25196c0.81606,-2.88688 1.25099,-6.48421 6.493,-5.39731c4.98345,0.97225 4.11006,3.9884 4.11006,3.9884c-0.43377,4.99017 -2.57071,8.06482 -2.57071,8.06482z" fill="#ffffff" stroke="none" stroke-width="1" stroke-linecap="butt" stroke-linejoin="miter"/></g><path d="M239.54914,202.29361c0,0 -1.70993,2.73309 -3.86088,3.65599c-1.93225,0.82906 -8.45381,1.63033 -8.46203,1.63134c-7.574,-3.25129 -7.40047,-7.01363 -6.3194,-10.83293c0.23395,0.07002 0.44311,0.12928 0.62217,0.17751c6.25123,1.68358 12.29597,2.68832 18.33417,4.81643c-0.10118,0.19484 -0.2056,0.37845 -0.31403,0.55167z" fill="#513726" fill-rule="nonzero" stroke="#001026" stroke-width="1.2" stroke-linecap="butt" stroke-linejoin="miter"/></g><path d="M224.0789,198.70403c-0.54926,4.09788 1.2427,7.97329 -0.22805,10.04286c-0.95987,1.35068 -2.50206,2.27291 -3.51736,2.13683c-1.13161,-0.15167 -2.9008,-1.72889 -3.47056,-3.60542c-0.72472,-2.38686 -2.60254,-6.03069 -2.09435,-9.82218c0.44829,-3.34453 3.33672,-6.61675 4.45748,-8.71852c1.14864,-2.15409 3.09332,-2.55304 4.3946,-2.37862c1.4049,0.18831 2.77346,1.26841 3.27956,3.97491c0.42008,2.24643 -2.40961,5.29853 -2.82132,8.37015z" fill="#ff0000" fill-rule="nonzero" stroke="#001026" stroke-width="1.2" stroke-linecap="butt" stroke-linejoin="miter"/><path d="M227.22622,207.58094c0,0 0,0 0.00001,0v0z" fill="#513726" fill-rule="nonzero" stroke="#001026" stroke-width="1.2" stroke-linecap="butt" stroke-linejoin="miter"/><g><g fill-rule="evenodd"><path d="M250.0818,130.6004c0.30271,-0.19588 0.80129,-0.08906 0.89582,0.31227l2.45352,10.73453c0,0 6.33517,4.78703 8.18989,8.11269c3.12453,5.54322 3.16302,10.04417 3.16302,10.04417c0,0 7.07064,2.19684 8.19262,7.91271c1.12199,5.71587 -3.42521,16.45472 -22.27402,19.89744c-18.84881,3.44272 -33.8777,-1.86318 -40.82123,-13.35915c-6.94353,-11.49597 4.44129,-24.94163 3.83041,-24.14991c0,0 -0.81756,-15.95481 -0.42033,-15.74937l11.36283,5.39795c0,0 4.52281,-1.63834 9.22511,-1.77409c2.80247,-0.16171 5.19951,0.07107 7.49383,0.50246z" fill="#ffab19" stroke="#001026" stroke-width="1.2" stroke-linecap="butt" stroke-linejoin="miter"/><path d="M264.47861,160.19992c0,0 6.87476,1.89413 7.99674,7.61c1.12199,5.71587 -3.81834,15.9493 -22.4658,19.29476c-24.26607,4.66879 -35.5682,-9.88703 -28.72395,-20.39447c6.84561,-10.60743 18.22017,-1.35111 26.62758,-1.83625c7.20616,-0.40155 8.09219,-6.69003 16.56543,-4.67404z" fill="#ffffff" stroke="none" stroke-width="1" stroke-linecap="butt" stroke-linejoin="miter"/><path d="M282.86185,161.55129c-4.7515,3.73541 -11.95219,3.737 -11.95219,3.737" fill="none" stroke="#001026" stroke-width="1.2" stroke-linecap="round" stroke-linejoin="round"/><path d="M281.40891,172.73248c-6.30625,0.41385 -10.17991,-1.53927 -10.17991,-1.53927" fill="none" stroke="#001026" stroke-width="1.2" stroke-linecap="round" stroke-linejoin="round"/><path d="M247.54875,162.26874c2.0998,0.0287 4.29687,0.25875 4.38729,0.96005c0.08086,1.40124 -1.45727,4.18047 -3.05849,4.2586c-1.80257,0.17538 -5.96801,-2.38179 -5.94614,-3.98164c-0.08359,-1.20125 2.61752,-1.26434 4.61734,-1.23701z" fill="#001026" stroke="#001026" stroke-width="1.2" stroke-linecap="round" stroke-linejoin="round"/><path d="M202.57345,160.15386c0,0 8.56093,2.91727 12.01823,6.06482" fill="none" stroke="#001026" stroke-width="1.2" stroke-linecap="round" stroke-linejoin="round"/><path d="M214.84383,169.72246c-4.32283,1.64107 -11.70711,0.44004 -11.70711,0.44004" fill="none" stroke="#001026" stroke-width="1.2" stroke-linecap="round" stroke-linejoin="round"/><g><path d="M259.50755,150.7311c2.83823,4.53921 2.86852,9.6401 0.04418,11.40167c-2.82434,1.76156 -7.39521,-0.40111 -10.33343,-4.94169c-2.83823,-4.53921 -2.86852,-9.6401 -0.04418,-11.40167c2.82571,-1.86156 7.4952,0.40247 10.33343,4.94169z" fill="#ffffff" stroke="#001026" stroke-width="1.2" stroke-linecap="round" stroke-linejoin="round"/><path d="M259.77962,156.43535c-0.01503,1.0999 -0.82726,1.98888 -1.82717,1.97521c-0.99991,-0.01367 -1.78753,-0.92452 -1.7725,-2.02441c0.01503,-1.0999 0.82726,-1.98888 1.82717,-1.97521c0.99991,0.01367 1.78753,0.92452 1.7725,2.02441" fill="#001026" stroke="none" stroke-width="1" stroke-linecap="butt" stroke-linejoin="miter"/></g><g><path d="M234.6716,153.19189c2.93959,4.44059 2.6658,9.83735 -0.05991,11.70027c-3.32566,1.85472 -7.70611,0.39472 -10.6457,-4.04587c-3.03958,-4.44196 -3.16166,-10.14416 -0.03188,-12.30158c3.13114,-2.25742 7.7979,0.20659 10.73749,4.64718z" fill="#ffffff" stroke="#001026" stroke-width="1.2" stroke-linecap="round" stroke-linejoin="round"/><path d="M234.49234,158.98998c-0.01503,1.0999 -0.82726,1.98888 -1.82717,1.97521c-0.99991,-0.01367 -1.78753,-0.92452 -1.7725,-2.02441c0.01503,-1.0999 0.82726,-1.98888 1.82717,-1.97521c0.99854,0.11366 1.78753,0.92452 1.7725,2.02441" fill="#001026" stroke="none" stroke-width="1" stroke-linecap="butt" stroke-linejoin="miter"/></g></g><path d="M255.40014,183.89152c0.02333,-0.66574 0.33874,-1.2707 0.83413,-1.71872c-0.00162,-0.05005 -0.00157,-0.10049 0.00021,-0.15128c0.02974,-0.84886 0.53435,-1.59891 1.28144,-2.05079c-0.0313,-0.16131 -0.04485,-0.32825 -0.03886,-0.4992c0.01737,-0.49567 0.19665,-0.95765 0.49158,-1.34625c-0.15094,-0.31506 -0.22889,-0.66509 -0.21597,-1.03375c0.0245,-0.69916 0.37114,-1.33129 0.91009,-1.785c-0.50715,-0.45371 -0.80949,-1.08584 -0.78499,-1.785c0.00745,-0.21264 0.0447,-0.41908 0.10809,-0.61619c-0.05521,-0.10831 -0.10169,-0.22096 -0.1387,-0.33726c-0.59447,-0.1112 -1.11342,-0.38979 -1.49336,-0.77783c-0.28192,0.09014 -0.58305,0.14256 -0.89526,0.15028c-0.4262,0.21676 -0.91783,0.34099 -1.43792,0.34099c-0.11732,0 -0.23275,-0.00632 -0.34589,-0.0186c-0.52331,0.4326 -1.22339,0.6986 -1.98438,0.6986c-0.33741,0 -0.65918,-0.05229 -0.95582,-0.14821c-0.30336,0.09592 -0.6288,0.14821 -0.96621,0.14821c-0.69816,0 -1.32936,-0.22388 -1.80952,-0.59491c-0.38132,0.16324 -0.80707,0.25491 -1.25382,0.25491c-0.79709,0 -1.5069,-0.29183 -2.00429,-0.76128c-0.37913,0.16097 -0.80187,0.25128 -1.2453,0.25128c-0.09733,0 -0.19335,-0.00435 -0.28786,-0.01285c-0.09509,0.0085 -0.19143,0.01285 -0.28876,0.01285c-0.37557,0 -0.73177,-0.06479 -1.0555,-0.18242c-0.09354,0.00822 -0.18828,0.01242 -0.28397,0.01242c-0.37375,0 -0.72831,-0.06417 -1.05078,-0.18071c-0.33064,0.11655 -0.6897,0.18071 -1.06345,0.18071c-0.7688,0 -1.4564,-0.27148 -1.95054,-0.71197c-0.41787,0.22419 -0.90222,0.35826 -1.41664,0.37098c-0.04681,0.02381 -0.0944,0.04649 -0.14274,0.06803c-0.53216,0.48213 -1.27256,0.78297 -2.08186,0.78297c-0.15429,0 -0.30531,-0.01093 -0.45215,-0.03197c-0.23077,0.32556 -0.54113,0.60331 -0.90556,0.81135c0.5316,0.45594 0.85081,1.10297 0.82566,1.82063c-0.00114,0.03258 -0.00298,0.06501 -0.00551,0.09729c0.23268,0.37058 0.3584,0.8021 0.34225,1.26271c-0.01565,0.44643 -0.16262,0.86551 -0.40714,1.22828c0.67186,0.45601 1.09146,1.18289 1.06277,2.00172c-0.01565,0.44643 -0.16263,0.86551 -0.40715,1.22828c0.67186,0.45601 1.09146,1.18288 1.06277,2.00171c-0.02198,0.62724 -0.30324,1.20052 -0.75,1.63943c0.30138,0.40342 0.46905,0.8929 0.45056,1.42057c-0.04838,1.38071 -1.35308,2.5 -2.91413,2.5c-1.56105,0 -2.7873,-1.11929 -2.73891,-2.5c0.02198,-0.62724 0.30323,-1.20052 0.75,-1.63942c-0.30138,-0.40342 -0.46905,-0.89291 -0.45056,-1.42058c0.01565,-0.44643 0.16262,-0.86551 0.40714,-1.22828c-0.67186,-0.45601 -1.09146,-1.18288 -1.06277,-2.00171c0.01565,-0.44643 0.16263,-0.86552 0.40715,-1.22829c-0.67186,-0.45601 -1.09146,-1.18288 -1.06277,-2.00171c0.00114,-0.03258 0.00299,-0.06501 0.00551,-0.09729c-0.23268,-0.37058 -0.3584,-0.8021 -0.34226,-1.26271c0.00736,-0.20996 0.04377,-0.41386 0.10571,-0.60871c-0.62178,-0.45838 -1.00482,-1.15774 -0.97736,-1.94129c0.03372,-0.96207 0.67741,-1.79722 1.59277,-2.21522c0.42855,-0.95954 1.49303,-1.64478 2.71445,-1.64478c0.15429,0 0.30531,0.01093 0.45215,0.03197c0.28626,-0.40383 0.69496,-0.73409 1.17742,-0.949c0.51445,-0.46608 1.2235,-0.76275 2.00128,-0.78198c0.4262,-0.21676 0.91783,-0.34099 1.43792,-0.34099c0.7688,0 1.4564,0.27148 1.95054,0.71197c0.43963,-0.23585 0.95283,-0.37197 1.49721,-0.37197c0.37375,0 0.72832,0.06417 1.05079,0.18071c0.33064,-0.11655 0.6897,-0.18071 1.06345,-0.18071c0.37557,0 0.73176,0.06479 1.0555,0.18242c0.09354,-0.00822 0.18828,-0.01242 0.28397,-0.01242c0.09733,0 0.19335,0.00435 0.28786,0.01284c0.09509,-0.0085 0.19142,-0.01284 0.28875,-0.01284c0.79709,0 1.5069,0.29182 2.00429,0.76127c0.37913,-0.16097 0.80187,-0.25127 1.2453,-0.25127c0.69816,0 1.32936,0.22388 1.80952,0.59491c0.38132,-0.16324 0.80707,-0.25491 1.25383,-0.25491c0.33741,0 0.65919,0.05229 0.95583,0.14821c0.30336,-0.09592 0.6288,-0.14821 0.96621,-0.14821c0.11732,0 0.23275,0.00632 0.34589,0.0186c0.50478,-0.41729 1.17405,-0.67956 1.9038,-0.69761c0.4262,-0.21676 0.91783,-0.34099 1.43792,-0.34099c0.83599,0 1.57597,0.32102 2.07558,0.83128c0.3061,-0.09787 0.63486,-0.15127 0.97584,-0.15127c1.26704,0 2.31353,0.73739 2.6369,1.75344c1.27244,0.23802 2.19886,1.24296 2.15668,2.44655c-0.00745,0.21264 -0.0447,0.41908 -0.10809,0.61619c0.16712,0.32787 0.25433,0.69551 0.24072,1.08382c-0.0245,0.69916 -0.37115,1.33129 -0.9101,1.785c0.50715,0.45371 0.80949,1.08584 0.78499,1.785c-0.01737,0.49567 -0.19665,0.95765 -0.49158,1.34625c0.15094,0.31506 0.2289,0.66509 0.21598,1.03375c-0.02974,0.84886 -0.53436,1.59891 -1.28145,2.05079c0.0313,0.16131 0.04485,0.32825 0.03886,0.4992c-0.02333,0.66574 -0.33874,1.27071 -0.83414,1.71872c0.00162,0.05005 0.00157,0.10048 -0.00021,0.15128c-0.04838,1.38071 -1.35309,2.5 -2.91413,2.5c-1.56104,0 -2.7873,-1.11929 -2.73891,-2.5z" fill="#ffffff" fill-rule="nonzero" stroke="#001026" stroke-width="1.2" stroke-linecap="butt" stroke-linejoin="miter"/><g fill-rule="nonzero" stroke-linecap="butt" stroke-linejoin="miter"><g><path d="M191.89143,152.28124c-0.35655,-3.09157 2.22725,-6.15665 5.77109,-6.84606c3.54384,-0.68941 6.70574,1.25792 7.0623,4.34949c0.35655,3.09157 -2.22725,6.15665 -5.77109,6.84606c-3.54384,0.68941 -6.70574,-1.25792 -7.06229,-4.34948z" fill="#ffffff" stroke="#001026" stroke-width="1.2"/><path d="M212.36334,115.3855c0.52832,0.98315 -0.64832,1.57403 -0.64832,1.57403l-0.74176,0.3285c-2.33465,1.92369 -4.06426,4.57974 -5.65592,6.99391c-1.168,7.91437 -7.69485,14.90522 -6.68328,23.04756c0,0 0.12912,1.11955 -1.15422,1.36921c-1.28334,0.24965 -1.41246,-0.86989 -1.41246,-0.86989c-0.92397,-8.53817 5.37663,-15.78905 6.82143,-24.05833c1.75266,-2.82192 3.77196,-5.82648 6.44585,-8.06854l1.32372,-0.70873c0,0 1.17665,-0.59088 1.70497,0.39228z" fill="#001026" stroke="none" stroke-width="0.5"/></g><g stroke="#001026" stroke-width="1.2"><path d="M216.1234,154.48659c-1.50967,-0.82939 -3.70423,-1.11422 -4.80089,-2.27199c-0.16725,-0.17657 -0.30897,-0.37344 -0.41882,-0.59564c-0.20961,-0.42398 -0.34089,-0.91723 -0.41105,-1.46016c-0.02602,-0.17571 -0.04254,-0.35464 -0.04917,-0.53638c-0.18569,-3.24521 1.41361,-7.88399 1.66564,-10.35275c0.18684,-1.83017 0.27857,-4.18555 -0.07309,-5.91682c-1.01292,-4.98671 -6.33035,-18.8914 1.01795,-22.41154c6.16028,-2.95103 11.25902,3.05799 14.43063,5.8776c5.27733,4.69164 12.48678,11.33068 19.85384,13.62156c3.35823,1.04428 8.6335,4.09293 7.17436,8.12316c-4.289,11.84645 -19.85182,2.54531 -28.9988,5.38447c-3.73043,1.1579 -0.36836,6.21648 -3.49459,7.71407z" fill="#ff0000"/><path d="M260.11033,139.19567c3.53649,0 6.06022,2.56777 5.63691,5.73526c-0.42331,3.1675 -3.63336,5.73527 -7.16985,5.73527c-2.51005,0 -4.50992,-1.29352 -5.30801,-3.17692c-0.68126,0.20197 -1.39818,0.31163 -2.12903,0.31163c-2.69199,0 -4.79715,-1.48784 -5.46235,-3.5955c-1.28669,1.93758 -3.67072,3.27713 -6.22504,3.27713c-2.27906,0 -4.13752,-1.06641 -5.05768,-2.67249c-1.341,1.24508 -3.20292,2.03576 -5.16536,2.03576c-0.6251,0 -1.21856,-0.08023 -1.76969,-0.2298c-0.00513,0.1789 -0.01976,0.36019 -0.04426,0.54349c-0.42331,3.1675 -3.63336,5.73526 -7.16985,5.73526c-0.02803,0 -0.05598,-0.00016 -0.08388,-0.00048c-0.87194,2.71083 -3.78094,4.77597 -6.95248,4.77597c-3.53649,0 -6.06021,-2.56777 -5.6369,-5.73526c0.42331,-3.1675 3.63336,-5.73526 7.16985,-5.73526c0.02803,0 0.05599,0.00016 0.08388,0.00048c0.87194,-2.71082 3.78094,-4.77596 6.95247,-4.77596c0.6251,0 1.21856,0.08023 1.76969,0.22981c0.00513,-0.1789 0.01976,-0.36019 0.04426,-0.54349c0.42331,-3.1675 3.63336,-5.73526 7.16985,-5.73526c2.27906,0 4.13752,1.06641 5.05768,2.67249c1.341,-1.24508 3.20292,-2.03576 5.16535,-2.03576c2.69199,0 4.79716,1.48784 5.46235,3.59551c1.28669,-1.93758 3.67072,-3.27714 6.22504,-3.27714c2.51005,0 4.50991,1.29352 5.308,3.17692c0.68126,-0.20197 1.39817,-0.31163 2.12903,-0.31163z" fill="#ffffff"/></g></g></g><path d="M251.98854,177.67968c0,0 -6.11578,0.97624 -8.64165,0.28745c-2.61874,-0.71412 -6.80224,-4.49892 -6.80224,-4.49892" fill="none" fill-rule="nonzero" stroke="#001026" stroke-width="1.2" stroke-linecap="round" stroke-linejoin="miter"/></g></g></svg>