<svg version="1.1" xmlns="http://www.w3.org/2000/svg" xmlns:xlink="http://www.w3.org/1999/xlink" width="136.36274" height="241.90362" viewBox="0,0,136.36274,241.90362"><g transform="translate(-169.50235,-88.02049)"><g data-paper-data="{&quot;isPaintingLayer&quot;:true}" fill-rule="nonzero" stroke-miterlimit="10" stroke-dasharray="" stroke-dashoffset="0" style="mix-blend-mode: normal"><g stroke-linecap="butt" stroke-linejoin="miter"><g fill="#686868" stroke="#000000" stroke-width="1"><path d="M195.70829,329.11509v-104.61283h101.23822v104.61283z"/><path d="M177.14796,319.83493v-104.61283l18.56034,9.28017v104.61283z"/><path d="M195.59517,224.03145l-17.71669,-8.85834l102.92552,1.26548l16.45121,8.43652z"/></g><path d="M199.28506,229.20101c0,-0.82843 0.67157,-1.5 1.5,-1.5c0.82843,0 1.5,0.67157 1.5,1.5c0,0.82843 -0.67157,1.5 -1.5,1.5c-0.82843,0 -1.5,-0.67157 -1.5,-1.5z" fill="#b9b9b9" stroke="none" stroke-width="0.5"/><path d="M291.28506,229.86768c0,-0.82843 0.67158,-1.5 1.5,-1.5c0.82842,0 1.5,0.67157 1.5,1.5c0,0.82843 -0.67158,1.5 -1.5,1.5c-0.82842,0 -1.5,-0.67157 -1.5,-1.5z" fill="#b9b9b9" stroke="none" stroke-width="0.5"/><path d="M292.61839,325.53434c0,-0.82842 0.67158,-1.5 1.5,-1.5c0.82842,0 1.5,0.67158 1.5,1.5c0,0.82842 -0.67158,1.5 -1.5,1.5c-0.82842,0 -1.5,-0.67158 -1.5,-1.5z" fill="#b9b9b9" stroke="none" stroke-width="0.5"/><path d="M198.61839,326.53434c0,-0.82842 0.67157,-1.5 1.5,-1.5c0.82843,0 1.5,0.67158 1.5,1.5c0,0.82842 -0.67157,1.5 -1.5,1.5c-0.82843,0 -1.5,-0.67158 -1.5,-1.5z" fill="#b9b9b9" stroke="none" stroke-width="0.5"/></g><path d="M237.51358,218.56329c1.64576,0.34943 2.85057,1.69194 2.85057,1.69194c0,0 -3.46638,5.07512 -4.75953,6.88843c-1.29452,1.81623 -2.86037,4.92838 -2.86037,4.92838c0,0 0.16405,0.50157 -0.56407,1.12467c-0.72971,0.61967 -2.22256,-0.06189 -4.2676,-0.72299c-2.03836,-0.66352 -3.17144,-1.80381 -2.83641,-2.64278c0.3299,-0.83703 1.11951,-0.84986 1.11951,-0.84986c0,0 5.77211,-5.09247 6.75305,-7.44164c0.00005,0.00626 2.4667,-3.42185 4.56484,-2.97615v0v0v0v0v0z" data-paper-data="{&quot;index&quot;:null}" fill="#be1e2d" stroke="#231f20" stroke-width="0.90025" stroke-linecap="round" stroke-linejoin="round"/><path d="M231.84278,211.78049c1.52657,-1.04897 4.49291,-1.51823 5.28849,-0.0199c0.74805,1.40829 -0.03458,2.52809 -0.03458,2.52809c-0.86511,1.31376 -2.3485,3.79739 -3.63829,5.23705c-0.22882,0.2538 -0.45132,0.48222 -0.67692,0.70626l0.01688,-0.00852c0,0 0.27065,2.17607 -0.77543,2.24986c-0.6307,0.04547 -1.11939,-0.32089 -1.41581,-0.61387c-1.04377,0.50735 -2.01424,0.54696 -2.87356,-0.03354c-2.01159,-1.35771 -0.41825,-5.50979 -0.41825,-5.50979c0.45444,-1.04067 3.00092,-3.48665 4.52748,-4.53562v0v0v0v0v0z" data-paper-data="{&quot;index&quot;:null}" fill="#be1e2d" stroke="#231f20" stroke-width="0.78673" stroke-linecap="round" stroke-linejoin="round"/><path d="M247.21167,219.11358v0v0v0v0v0c1.88758,0.87066 0.74092,4.73471 0.7463,4.73025c-1.29563,2.24525 -1.48399,9.18184 -1.48399,9.18184c0,0 0.5566,0.45743 0.08085,1.24629c-0.47371,0.79317 -2.25921,0.96956 -4.28932,0.28939c-2.03285,-0.68569 -3.68625,-1.04325 -3.68298,-1.90283c0.00733,-0.86116 0.5524,-1.12852 0.5524,-1.12852c0,0 1.52501,-3.12564 2.14138,-5.16584c0.61486,-2.03732 2.44565,-7.65263 2.44565,-7.65263c0,0 2.00927,-0.28099 3.48971,0.40206z" data-paper-data="{&quot;index&quot;:null}" fill="#be1e2d" stroke="#231f20" stroke-width="0.90025" stroke-linecap="round" stroke-linejoin="round"/><path d="M250.89915,215.66711c-1.78395,-0.49827 -4.0467,-2.47296 -3.40754,-4.04439c0.60056,-1.47722 1.96166,-1.59511 1.96166,-1.59511c0.62116,-0.07116 2.68734,-0.67134 4.86728,-0.65796c2.50425,0.01538 5.11371,0.65757 5.10348,0.78034c0.58571,0.26294 4.92849,-0.4877 4.93198,1.03931c0.00288,1.2645 -3.16179,0.72578 -3.11448,1.1867c0.24872,2.41411 -3.95867,3.85509 -3.95867,3.85509c-1.08987,0.31889 -4.59977,-0.06571 -6.3837,-0.564v0v0v0v0v0z" data-paper-data="{&quot;index&quot;:null}" fill="#be1e2d" stroke="#231f20" stroke-width="0.78673" stroke-linecap="round" stroke-linejoin="round"/><g stroke-width="0.90025"><path d="M249.53392,211.32651v0v0v0v0v0c0.37635,2.80705 -0.3618,7.95667 -3.59666,9.72355c-3.19954,1.74397 -6.56372,1.45807 -10.02166,-0.97182c-2.86501,-2.01398 -2.7179,-7.65879 -2.37189,-10.81332v0c0,0 0.12052,-7.30713 6.28285,-8.12258c6.16042,-0.81537 8.93846,4.83105 9.3655,8.33557c0.141,0.6178 0.26013,1.2479 0.34185,1.84859z" fill="#be1e2d" stroke="#000000" stroke-linecap="butt" stroke-linejoin="miter"/><path d="M247.72743,219.33077v0v0v0v0v0l-0.01727,0.14288c-0.48074,0.64524 -1.068,1.18999 -1.77197,1.57463c-2.96365,1.61571 -6.06721,1.49012 -9.25702,-0.46883l-0.03131,-0.14445c0,0 -1.57504,-9.31679 4.35552,-9.65009c6.73421,-0.37532 6.78578,6.99189 6.72205,8.54586z" fill="#e6e7e8" stroke="#231f20" stroke-linecap="round" stroke-linejoin="round"/></g><g stroke="#000000" stroke-width="0.90025" stroke-linecap="round" stroke-linejoin="round"><path d="M285.90398,185.63911l-0.55599,1.54088c-3.07382,7.77967 -7.35225,12.22233 -7.35225,12.22233c0,0 0.17053,-1.39408 0.12046,-3.63839l-0.13085,-0.04771c-0.39614,1.17575 -1.04098,2.69021 -2.10381,4.55734c-2.33084,4.10036 -9.05595,7.47209 -9.05595,7.47209c0,0 0.43464,-1.41474 0.72675,-3.73534l-0.08869,-0.35686c-0.73141,0.54727 -1.4892,1.04907 -2.2549,1.53727c-0.22531,0.14461 -0.45048,0.28552 -0.67928,0.42188c-0.69635,0.41994 -1.40503,0.81981 -2.12774,1.19249c-0.28553,0.14548 -0.58182,0.28011 -0.87096,0.41924c-0.52746,0.25475 -1.06202,0.49491 -1.60447,0.72696c-0.39846,0.16822 -0.7996,0.33561 -1.20788,0.4911c-0.42269,0.16349 -0.85685,0.30962 -1.28839,0.46219c-0.79332,0.27169 -1.59808,0.52442 -2.42065,0.75621c-0.26837,0.07551 -0.53683,0.15102 -0.80972,0.22106c-0.58635,0.15223 -1.17726,0.3007 -1.77861,0.43113l0.00178,0.00182c-3.01898,0.65975 -6.21808,1.073 -9.63896,1.23647c-3.70098,0.17591 -7.05265,0.0928 -10.18035,-0.16823v0c-2.47487,-0.20783 -4.78956,-0.53686 -6.97951,-0.96859c-0.10593,-0.02036 -0.21285,-0.04164 -0.31968,-0.06201c-0.67696,-0.13814 -1.34301,-0.28414 -1.99621,-0.44076c-0.22795,-0.05635 -0.44593,-0.11696 -0.67285,-0.17499c-0.86766,-0.21898 -1.71066,-0.45752 -2.54175,-0.7103c-0.52534,-0.16026 -1.04713,-0.32416 -1.55699,-0.49771c-0.30294,-0.10048 -0.60672,-0.20558 -0.90329,-0.31138c-0.80985,-0.29209 -1.61244,-0.58848 -2.39042,-0.90713l-0.13779,0.12861c0.26613,2.11857 0.97957,3.26641 1.55455,3.81629c1.17204,1.12266 3.4539,1.41704 3.4539,1.41704c0,0 -6.99961,0.88131 -10.7293,-4.56491c-0.39626,-0.57892 -0.79583,-1.17868 -1.17417,-1.81686l-0.1616,-0.36416c-0.82251,-0.28766 -1.65457,-0.66647 -2.47448,-1.15051c-4.99901,-2.97248 -5.59884,-5.37558 -5.59884,-5.37558l0.09319,0.87907c0.45372,2.29407 0.90728,3.74436 0.90728,3.74436c0,0 -5.97842,-3.89977 -8.58573,-9.65635c-2.10205,-4.64681 -2.23549,-7.44592 -2.24341,-7.91607l-0.17943,-1.68243c-0.03982,-6.57927 0.47053,-13.95134 1.47439,-21.19689l0.05846,-0.19271c0.88296,-5.59956 0.22976,-14.90545 7.80515,-24.31383c14.19538,-17.62552 28.43808,-16.80974 37.14319,-29.8606c6.40314,-9.60116 4.94594,-20.734 4.94594,-20.734c0,0 3.7696,5.49628 5.2594,8.71392c1.44232,3.13588 2.97301,7.17336 2.97301,7.17336l0.05177,-0.03349c0.03671,-0.11661 0.06986,-0.23586 0.0985,-0.35518c0.44436,-1.85845 0.31667,-4.61707 0.31667,-4.61707c0,0 3.51738,10.793 9.33794,17.9174c5.81701,7.12085 14.33717,9.25048 24.79685,33.50635c1.30178,3.01423 2.51551,5.5528 3.14492,8.35704l0.2803,1.61272c0.87143,5.03949 0.31005,18.92107 -1.74946,24.89345zM217.09549,161.07681c0,0 -7.09073,7.16515 -6.76915,17.27584c0.28453,8.94597 2.56354,11.73955 3.80249,12.44809c1.27394,0.72433 3.26992,0.3332 3.26992,0.3332c0,0 -5.67066,2.90372 -10.20396,-1.20485c-3.03224,-2.74635 -6.32464,-6.28057 -7.12433,-16.13212M275.04631,177.98064c0,0 0.83435,2.49824 -1.35448,7.66566c-2.46247,5.82181 -7.51306,7.56367 -7.51306,7.56367c0,0 4.30013,-8.96208 0.91276,-17.49078c-1.47828,-3.72613 -6.16069,-6.55103 -11.06126,-8.56777c-6.64094,-2.73499 -13.68148,-3.98445 -13.68148,-3.98445M278.01729,195.61856c-0.39274,1.1902 -1.04698,2.74143 -2.14121,4.65853c-2.32994,4.10038 -9.05505,7.47211 -9.05505,7.47211c0,0 1.26341,-4.12768 0.9307,-9.83951M201.39458,181.06641c-0.70348,1.26342 -1.24974,2.62072 -1.56488,4.05782c-1.97818,8.95989 1.14849,18.90212 1.14849,18.90212c0,0 -5.97664,-3.89804 -8.58572,-9.65645c-2.31268,-5.11066 -2.24244,-7.98627 -2.24244,-7.98627M285.34341,187.18623c-3.07562,7.77965 -7.35315,12.22231 -7.35315,12.22231c0,0 0.97985,-7.92015 -2.41481,-16.44985c-0.1531,-0.38565 -0.32715,-0.76078 -0.51204,-1.12526M242.34968,163.16698c0,0 1.19112,0.33335 4.31061,2.88739c3.11959,2.55404 4.24213,5.30917 4.24213,5.30917c0,0 -9.27921,-2.58124 -14.40976,-4.50663c-5.12513,-1.92712 -22.44103,-6.89975 -22.44103,-6.89975M212.34405,200.10263c2.47019,4.00093 5.0672,6.19483 5.0672,6.19483c0,0 -6.20418,1.82766 -11.83471,-1.51726c-4.99901,-2.97238 -5.59884,-5.37558 -5.59884,-5.37558M267.45728,203.65878c-6.72908,5.03103 -14.84082,7.43026 -24.67352,7.89968c-11.72273,0.55958 -20.26053,-1.26956 -27.53836,-4.24106M215.04463,206.79059c0.18651,2.53971 0.98391,3.86613 1.61576,4.46899c1.17294,1.12267 3.4548,1.41705 3.4548,1.41705c0,0 -7.00141,0.88129 -10.7302,-4.56492c-0.39626,-0.57892 -0.79583,-1.17868 -1.17417,-1.81686M243.02157,163.47697c0,0 25.46938,3.46357 25.27745,17.38804" fill="#be1e2d"/><path d="M273.21644,186.95517c-1.08955,10.00113 -12.74567,20.29056 -29.60654,21.04314c-14.88548,0.6726 -36.77331,-6.31853 -39.79284,-18.67843c-0.29981,-1.24215 -0.45162,-2.43986 -0.48168,-3.58908l0.31992,0.24033c1.10601,1.6682 2.34167,2.87725 3.53946,3.95976c4.53333,4.10677 10.20399,1.20305 10.20399,1.20305c0,0 -1.99601,0.39293 -3.26994,-0.3314c-1.23895,-0.70854 -3.51797,-3.50212 -3.80249,-12.44809c-0.32155,-10.11249 6.76915,-17.27584 6.76915,-17.27584l0.0275,-0.23194c5.21173,1.52138 15.59431,4.59057 19.3679,6.01021c5.13054,1.9263 14.40976,4.50663 14.40976,4.50663c0,0 -1.12253,-2.75513 -4.24213,-5.30917c-1.56154,-1.27744 -2.6383,-1.99905 -3.32421,-2.40194l0.64674,0.11062c0,0 19.63015,3.17866 23.11231,11.95619c3.38646,8.52958 -0.91186,17.49079 -0.91186,17.49079c0,0 4.30067,-1.48477 6.89497,-6.28467z" fill="#e6e7e8"/></g><g stroke="#000000" stroke-width="0.90025" stroke-linecap="round" stroke-linejoin="miter"><path d="M280.42037,168.76963c0,0 9.20444,-10.02429 9.71521,-10.4981c0.51068,-0.47371 4.32043,-5.01463 15.13943,-6.43485c0,0 -7.35885,30.7376 -23.60763,37.56769c0.00001,-0.0009 1.65818,-8.80218 -1.24702,-20.63475zM280.47993,169.01898c-0.21974,-0.97812 -0.89994,-2.70986 -0.89994,-2.70986M280.86068,191.75748c0,0 0.64051,-1.46951 0.80672,-2.354" fill="#be1e2d"/><path d="M288.17116,184.64667c0,0 -1.60041,-1.26548 -1.73042,-5.35746c-0.08472,-2.53831 1.09343,-7.14881 1.09343,-7.14881l-0.09203,0.14635c0.7179,-0.80758 1.47639,-1.75232 2.16597,-2.79081c1.16852,-1.75666 2.54364,-4.39636 3.80674,-6.9998l0.19486,-0.35835c0,0 3.30959,-4.70003 10.04203,-5.20779l0.07681,0.04336c-1.48137,4.66763 -3.88691,11.51032 -6.5108,16.1711c-2.94314,5.22823 -6.31746,9.00808 -9.16671,11.59686zM284.6954,174.89143c0,0 2.39105,-2.27286 2.83879,-2.75104" fill="#929497"/></g><g stroke="#000000" stroke-width="0.90025" stroke-linecap="round" stroke-linejoin="miter"><path d="M192.63996,188.17633c-16.05345,-7.27535 -22.56239,-38.2041 -22.56239,-38.2041c10.77583,1.71878 14.45897,6.36299 14.95641,6.84969c0.49744,0.4868 9.42217,10.76188 9.42217,10.76188c-3.23114,11.74888 -1.81619,20.59252 -1.81619,20.59252zM195.36301,165.14827c0,0 -0.72767,1.71233 -0.97419,2.68403M192.63996,188.17633c0.14166,0.88874 0.74153,2.37535 0.74153,2.37535" fill="#be1e2d"/><path d="M186.38722,183.33999c-2.7768,-2.66723 -6.04475,-6.53863 -8.84368,-11.84511c-2.49533,-4.73134 -4.71035,-11.63773 -6.06261,-16.34441l0.07808,-0.04123c6.71677,0.69404 9.89467,5.4826 9.89467,5.4826l0.18491,0.36358c1.19076,2.63726 2.4927,5.31386 3.61236,7.10206c0.66069,1.05711 1.39286,2.02239 2.08823,2.84945l-0.08796,-0.14883c0,0 1.05063,4.64122 0.89588,7.17623c-0.24265,4.08684 -1.87743,5.30773 -1.87743,5.30773zM187.25122,170.7581c0.43438,0.49033 2.76188,2.82823 2.76188,2.82823" fill="#929497"/></g><g stroke="#000000" stroke-width="1" stroke-linecap="butt" stroke-linejoin="miter"><path d="M276.72182,266.93448c-6.94903,2.48678 -51.07106,1.87124 -57.88411,-0.34832c-7.86831,-2.56336 -6.89912,-21.57451 1.11074,-24.14005c6.78323,-2.17265 50.64342,-1.76459 57.67502,0.99318c6.36836,2.49765 6.19476,20.95566 -0.90165,23.49519z" data-paper-data="{&quot;index&quot;:null}" fill="#363636"/><path d="M272.6339,263.40278c-5.53329,1.76301 -40.66621,1.32662 -46.09121,-0.24694c-6.26528,-1.8173 -5.49355,-15.29531 0.88444,-17.11416c5.40126,-1.5403 40.32569,-1.25101 45.92472,0.70411c5.07091,1.77071 4.93268,14.85658 -0.71796,16.65699z" data-paper-data="{&quot;index&quot;:null}" fill="#4a4a4a"/></g><g stroke="#000000" stroke-width="1" stroke-linecap="butt" stroke-linejoin="miter"><path d="M277.22182,314.93448c-6.94903,2.48678 -51.07106,1.87124 -57.88411,-0.34832c-7.86831,-2.56336 -6.89912,-21.57451 1.11074,-24.14005c6.78323,-2.17265 50.64342,-1.76459 57.67502,0.99318c6.36836,2.49764 6.19476,20.95567 -0.90165,23.49519z" data-paper-data="{&quot;index&quot;:null}" fill="#363636"/><path d="M273.1339,311.40278c-5.53329,1.76301 -40.66621,1.32662 -46.09121,-0.24694c-6.26528,-1.8173 -5.49355,-15.29531 0.88444,-17.11416c5.40126,-1.5403 40.32569,-1.25101 45.92472,0.70412c5.07091,1.77071 4.93268,14.85658 -0.71796,16.65699z" data-paper-data="{&quot;index&quot;:null}" fill="#4a4a4a"/></g><path d="M258.99654,188.80773c-1.45963,0.02323 -2.67366,-2.64714 -2.71162,-5.96444c-0.00886,-0.7744 0.15681,-2.19718 0.15681,-2.19718c0,0 4.2997,0.16627 4.85206,-0.13937c0.59882,-0.33136 1.56833,-0.75723 2.39924,-0.21801c0.37626,0.24417 -1.77602,1.51755 -1.83215,1.86442c-0.1604,0.99117 2.09928,-0.85583 2.24072,-0.05947c0.14145,0.79636 -2.36683,1.5231 -2.36414,1.75883c0,0 -1.2813,4.93199 -2.74094,4.95522z" fill="#231f20" stroke="#000000" stroke-width="1" stroke-linecap="butt" stroke-linejoin="miter"/><path d="M250.03338,193.12254c-0.34598,2.73614 -3.4049,4.7981 -6.8323,4.6055c-3.42738,-0.19259 -5.92536,-2.56679 -5.57937,-5.30292c0.16645,-1.31636 3.05044,-1.24349 6.03811,-1.12572c3.22238,0.12703 6.55309,0.40336 6.37356,1.82313z" fill="#292929" stroke="#231f20" stroke-width="0.9" stroke-linecap="butt" stroke-linejoin="miter"/><path d="M228.79028,188.6771c-1.45844,-0.06346 -2.60332,-5.02889 -2.60332,-5.02889c0.00919,-0.23557 -2.4781,-1.03117 -2.31476,-1.82333c0.16333,-0.79215 2.37125,1.11643 2.23823,0.12121c-0.04654,-0.34828 -2.16291,-1.6805 -1.78007,-1.91421c0.84546,-0.51611 1.80286,-0.06368 2.39232,0.28406c0.54373,0.32074 4.84638,0.27305 4.84638,0.27305c0,0 0.12639,1.42681 0.09619,2.20066c-0.12938,3.31499 -1.41655,5.95089 -2.87499,5.88743z" data-paper-data="{&quot;index&quot;:null}" fill="#231f20" stroke="#000000" stroke-width="1" stroke-linecap="butt" stroke-linejoin="miter"/></g></g></svg>