<svg version="1.1" xmlns="http://www.w3.org/2000/svg" xmlns:xlink="http://www.w3.org/1999/xlink" width="87.38699" height="82.98297" viewBox="0,0,87.38699,82.98297"><g transform="translate(-216.58136,-133.91039)"><g data-paper-data="{&quot;isPaintingLayer&quot;:true}" fill="#9966ff" fill-rule="nonzero" stroke="none" stroke-width="0.5" stroke-linecap="butt" stroke-linejoin="miter" stroke-miterlimit="10" stroke-dasharray="" stroke-dashoffset="0" style="mix-blend-mode: normal"><path d="M246.50648,140.60897c0.37681,-0.37675 0.75361,-0.59289 1.11329,-0.69976c0.02548,-0.6782 0.32878,-1.46624 1.39574,-1.99972c2.23607,-1.11804 3.3541,1.11803 3.3541,1.11803l1.02333,2.06312c1.74818,2.91379 3.4532,5.85935 5.23035,8.75684c0.16453,-3.85147 0.16689,-7.68319 0.16689,-11.56136l0.42044,-2.34973c0,0 0.49029,-2.45146 2.94174,-1.96117c2.45145,0.49029 1.96116,2.94175 1.96116,2.94175l-0.32334,1.36915c0,5.1723 -0.01095,10.26416 -0.37824,15.42552c0,0 -0.1147,1.60576 -1.44857,2.14812c0.00707,0.43249 -0.10338,0.91039 -0.45679,1.36203c1.98354,2.71262 4.61637,4.68698 6.65248,7.50283c0,0 0.28326,0.39656 0.42456,0.96457c1.81741,-1.97792 3.4346,-3.99561 5.1721,-6.09946c0.18259,-0.74069 0.73552,-1.86222 2.40998,-1.86222c2.5,0 2.5,2.5 2.5,2.5l-0.57944,1.97235c-1.84432,2.20741 -3.54683,4.34516 -5.42228,6.42917c3.88565,1.47306 8.98453,3.80085 4.49602,9.01475c-1.00761,1.17046 -2.89262,1.12847 -4.40771,1.42808c-4.67063,0.92361 -10.40126,0.01873 -15.18098,0.01873c0,0 -2.5,0 -2.5,-2.5c0,-0.41454 0.06873,-0.76034 0.18341,-1.0488c-5.66083,0.32333 -11.54844,-1.28557 -17.08339,-0.56128c0,0 -2.4807,0.31008 -2.79078,-2.17061c-0.3034,-2.42719 2.06489,-2.77639 2.1672,-2.79033c-0.02141,-0.03908 -0.04247,-0.07927 -0.06314,-0.12061c-1.11804,-2.23607 1.11803,-3.3541 1.11803,-3.3541c2.04074,-0.99855 3.99846,-2.33832 5.83498,-3.8897l-0.52537,-0.34753c0,0 -2.08013,-1.38674 -0.69338,-3.46687c1.38675,-2.08013 3.46688,-0.69338 3.46688,-0.69338l1.43421,0.96501c0.80732,-0.87485 1.57908,-1.77863 2.31077,-2.69608c-3.14741,-1.85969 -6.07584,-3.97905 -9.1217,-6.00909l-1.75893,-1.05206c0,0 -2.14373,-1.28624 -0.85749,-3.42997c1.28624,-2.14373 3.42997,-0.85749 3.42997,-0.85749l1.95995,1.17927c3.03529,2.02404 5.94651,4.14851 9.09618,5.9855c0.1376,-0.26061 0.33111,-0.51827 0.60322,-0.72754c-0.27741,-0.45738 -0.55344,-0.91567 -0.82849,-1.37459c-1.00042,-0.09393 -1.70303,-0.87461 -1.70303,-0.87461c-1.11494,-1.23882 -2.22988,-2.47765 -3.34482,-3.71647l-1.39939,-1.39475c0,0 -1.76762,-1.76791 0.00029,-3.53553zM256.18285,170.38662c1.16413,-0.12726 4.31348,-0.53808 5.08472,-1.71217c-4.13128,-0.63768 -8.23031,-2.01607 -12.11714,-3.58449c-1.95574,1.81457 -4.05625,3.44726 -6.28221,4.79612c4.42661,0.21235 8.86083,0.98744 13.31464,0.50054zM255.98453,157.33793c-0.96553,1.31918 -1.99714,2.61899 -3.09014,3.87472c1.38594,0.528 2.80374,1.02392 4.23635,1.44889c0.51905,-0.66565 1.2424,-0.82959 1.8017,-0.83847c-1.01458,-1.11722 -1.9764,-2.30363 -2.78796,-3.70221zM267.33623,172.75319c0,0 -1.27252,-0.14139 -1.89504,-1.13246c-1.04013,1.10573 -2.52424,1.91443 -3.80793,2.46687c2.73681,-0.00303 5.47365,-0.0061 8.21037,0.00298c0.76594,0.00254 1.53186,0.02686 2.29776,0.01873c0.55925,-0.00594 2.23545,0.03988 1.67783,-0.00321c-1.19424,-0.0923 -2.32027,-0.61248 -3.44135,-1.03428l-3.04165,-0.31863z" data-paper-data="{&quot;index&quot;:null}"></path><path d="M221.12868,204.11504c-2.23607,1.11803 -3.3541,-1.11804 -3.3541,-1.11804l-0.56117,-1.25547c-2.39582,-9.81466 2.07259,-20.7545 12.50205,-23.8297c3.44008,-1.01433 7.40526,-0.48856 10.87707,-0.05187c4.79166,1.38639 8.82166,3.77894 11.34787,8.28933c0.39941,0.71312 0.721,1.49549 0.96689,2.32673c0.70591,-1.79469 1.73228,-3.36822 3.05809,-4.5042c3.72123,-3.18842 7.83171,-3.18725 12.3907,-3.18725c0,0 2.5,0 2.5,2.5c0,2.5 -2.5,2.5 -2.5,2.5c-3.44999,0 -6.28847,-0.27876 -9.1788,2.01917c-3.17814,2.52675 -3.30368,10.65663 -0.02546,13.25386c1.59359,1.26255 4.16229,1.21717 5.97055,1.29903c1.76751,0.08002 3.59943,0.51494 5.30767,0.05409c4.54932,-1.2273 8.6019,-4.68664 12.17965,-7.53566c1.7052,-1.99792 3.20731,-4.16588 4.66227,-6.35276l-0.1135,-0.00367c0,0 0.71613,-2.39524 3.11137,-1.6791c1.76943,0.52903 1.84092,1.97439 1.75749,2.69353c3.79938,-0.77527 11.17155,-2.09049 11.9253,3.33452c0.23099,1.66257 -2.13791,2.61157 -3.41552,3.70024c-3.73339,3.18129 -9.41399,4.62306 -13.88722,6.90809l0.37896,0.42144c0.02066,1.57413 0.5436,3.2236 0.062,4.72239c-2.22916,6.93747 -12.23247,9.10344 -18.37455,8.00193c-1.59497,-0.28604 -3.39507,-0.21325 -4.72643,-1.13696c-3.52303,-2.44431 -2.82991,-5.47179 -1.31907,-8.2705c-2.39033,-0.18633 -4.51728,-0.59098 -6.67997,-2.28257c-1.7331,-1.35558 -2.91293,-3.34262 -3.57578,-5.58778c-1.2178,3.44536 -3.42196,6.42813 -6.49221,7.80336c-1.29093,0.57824 -2.79372,0.4713 -4.20444,0.5749c-7.36915,0.54121 -14.98505,-3.24161 -19.96248,-8.66582c0.08028,0.49419 0.18298,0.98576 0.30819,1.47254l0.1826,0.23208c0,0 1.11804,2.23608 -1.11803,3.35411zM224.90629,195.07206c3.7278,4.56699 12.83047,10.08142 19.02513,7.48884c0.96872,-0.40543 2.41851,-2.41173 2.87392,-3.33337c3.64386,-7.37436 0.71882,-14.24382 -7.21268,-16.46857c-2.64054,-0.32746 -5.84254,-0.81927 -8.46111,-0.05187c-5.69939,1.67028 -8.89833,6.53327 -9.49082,11.85092c1.80495,-1.23868 3.26556,0.51405 3.26556,0.51405zM288.90875,194.90785c-0.74704,1.0138 -1.51957,2.0083 -2.32583,2.9742c2.4783,-1.21394 5.0107,-2.31102 7.50359,-3.50046c-0.7337,0.05796 -1.46457,0.13346 -2.18309,0.27973l-1.37151,0.3458c0,0 -0.81834,0.20458 -1.62316,-0.09927zM281.09192,204.76239c0,0 -0.78821,-0.78821 -0.78566,-1.83832c-2.72674,1.90908 -5.64342,3.55345 -8.81773,4.37333c-0.09199,0.02376 -1.55758,0.04318 -3.08602,0.05394c-0.10284,0.23483 -0.19765,0.37702 -0.19765,0.37702c-0.09391,0.13697 -1.78806,2.38406 -1.84136,3.06221c-0.08051,1.02433 5.4962,1.26071 5.97494,1.23493c3.56931,-0.19216 9.84955,-1.8299 10.071,-6.21473l-1.31751,-1.04838z" data-paper-data="{&quot;index&quot;:null}"></path></g></g></svg>