<svg version="1.1" xmlns="http://www.w3.org/2000/svg" xmlns:xlink="http://www.w3.org/1999/xlink" width="100.22027" height="112.53675" viewBox="0,0,100.22027,112.53675"><g transform="translate(-185.29405,-126.2712)"><g data-paper-data="{&quot;isPaintingLayer&quot;:true}" stroke-miterlimit="10" stroke-dasharray="" stroke-dashoffset="0" style="mix-blend-mode: normal"><path d="M240.05693,201.12644c0.08631,0.74123 0.27366,2.12186 0.426,3.94804c0.28931,3.46796 0.45241,8.54265 -0.44234,13.89627l-0.09283,0.40172c-0.09283,0.40172 0.26153,0.80723 0.70873,0.81099c2.91056,-0.42268 8.59525,-1.00085 7.60824,4.67064c-0.89607,5.49336 -17.9558,7.89868 -19.3412,2.47552c-0.38286,-2.32883 1.01362,-3.52456 1.77915,-4.14422c0.40549,-0.35436 0.63286,-0.79968 0.77118,-1.29046c0.18943,-1.25065 0.47737,-3.57381 0.44887,-5.49714c-0.00399,-4.83012 -0.3508,-6.13001 -0.77726,-8.59336c-0.42646,-2.46336 -1.62994,-8.24277 2.90259,-10.0829c3.85985,-1.6222 5.71319,1.34515 6.00887,3.4049z" fill="#000000" fill-rule="evenodd" stroke="#ff7b00" stroke-width="2" stroke-linecap="round" stroke-linejoin="round"/><g fill="#000000" fill-rule="evenodd" stroke="#ff7b00" stroke-width="2"><path d="M225.34033,200.91836c0.80181,0.39637 2.50587,1.28864 0.12133,4.6995c-2.38455,3.41086 -9.2813,4.14217 -10.08129,4.1458c-3.09951,0.11407 -6.89947,0.13131 -11.10579,-1.24961c-12.21803,-3.94459 -12.37748,-17.044 -8.48705,-19.16168c3.79043,-2.11723 5.52717,5.97498 11.04936,10.84996c2.40996,2.18909 5.31356,2.97591 7.7158,3.46502c3.40269,0.58456 9.88537,-3.2449 10.78763,-2.74899z" stroke-linecap="round" stroke-linejoin="round"/><path d="M200.50382,192.931c1.61224,2.69271 4.72946,6.47861 4.72946,6.47861c0,0 -3.70405,-0.8832 -5.79631,0.82632c-1.69408,1.3077 -1.2841,3.50587 -1.08093,4.20495c-1.30589,-1.29409 -2.91404,-3.08681 -3.92991,-6.58223c-1.01587,-3.49542 -0.03494,-7.69992 1.96231,-8.30899c1.99817,-0.40907 2.50497,1.08864 4.11538,3.38135z" stroke-linecap="butt" stroke-linejoin="miter"/></g><path d="M244.69422,188.96831c0.53291,0.35498 7.23613,6.99703 9.07197,5.02986c2.20821,-2.30082 5.13903,-6.67236 9.01246,-3.69804c3.87343,2.97431 -2.41363,9.14464 -5.17214,10.89124c-6.60416,3.6885 -12.6962,-1.70196 -14.03083,-3.19151c-1.33465,-1.48954 -3.66155,-3.99662 -3.88775,-6.58676c-0.14397,-2.79809 3.18225,-3.79121 5.00629,-2.44479z" fill="#000000" fill-rule="evenodd" stroke="#ff7b00" stroke-width="2" stroke-linecap="round" stroke-linejoin="round"/><path d="M222.62793,207.77317c0.11088,-2.07791 1.69228,-5.19867 5.68139,-3.92706c4.67855,1.42871 3.99511,7.2924 3.78997,9.78397c-0.20514,2.49157 0.36532,3.8172 0.79198,8.62844c0.14309,1.91821 -0.163,4.20645 0.13718,5.43523c0.10105,0.26525 0.99032,10.54547 -7.59827,10.10014c-7.58278,-0.39318 -1.39506,-12.24891 -1.39506,-12.24891c0,0 -1.45847,-10.32156 -1.4795,-13.8015c-0.01108,-1.83249 0.05244,-3.22433 0.07232,-3.9703z" data-paper-data="{&quot;index&quot;:null}" fill="#000000" fill-rule="evenodd" stroke="#ff7b00" stroke-width="2" stroke-linecap="round" stroke-linejoin="round"/><g fill="#000000" fill-rule="evenodd" stroke="#ff7b00" stroke-width="2"><path d="M227.89708,207.63776c-10.93805,-4.63669 -5.78536,-10.40816 -5.01773,-15.86166c0.83614,-4.72873 2.15187,-4.384 8.17707,-5.45027c3.34876,-0.77187 5.32078,-1.22044 7.33346,-2.11436c3.03722,-1.29432 4.22555,3.39482 4.29726,6.05091c0,0 0.0428,3.95577 -0.47642,6.19863c-0.65306,2.72462 -1.22475,4.55852 -2.01485,5.83357c0,0 -1.69751,2.74082 -3.84425,3.67348c-1.92968,0.83835 -8.45455,1.66973 -8.45455,1.66973z" stroke-linecap="round" stroke-linejoin="round"/><path d="M239.32121,202.52901c0,0 -1.83389,-0.5717 -3.87013,-1.38641c-2.51799,-0.94854 -4.92678,-1.61766 -4.19235,-5.23298c0.80295,-2.89055 1.22155,-6.48982 6.46844,-5.42672c4.98781,0.94962 4.12812,3.96971 4.12812,3.96971c-0.41111,4.99208 -2.53408,8.0764 -2.53408,8.0764z" stroke-linecap="butt" stroke-linejoin="miter"/></g><g fill-rule="evenodd"><path d="M253.35959,131.51173c0.31233,-0.18014 0.80479,-0.04798 0.87868,0.35766l1.90148,10.84594c0,0 6.08213,5.10467 7.76439,8.52081c2.83703,5.69571 2.64535,10.19276 2.64535,10.19276c0,0 6.94907,2.55547 7.77734,8.32123c0.82829,5.76576 -4.26203,16.25807 -23.2622,18.73258c-19.00018,2.47452 -33.73813,-3.59284 -40.08482,-15.42878c-6.34668,-11.83594 5.7107,-24.68193 5.06013,-23.92248c0,0 -0.00076,-15.97574 0.38545,-15.75027l11.07199,5.97185c0,0 4.60066,-1.40496 9.30375,-1.3001c2.80707,-0.01822 5.18908,0.33682 7.45834,0.88495z" fill="#000000" stroke="#ff7b00" stroke-width="2" stroke-linecap="butt" stroke-linejoin="miter"/><path d="M284.51431,164.09811c-4.93627,3.4876 -12.12761,3.12103 -12.12761,3.12103" fill="#000000" stroke="#ff7b00" stroke-width="2" stroke-linecap="round" stroke-linejoin="round"/><path d="M282.4916,175.19039c-6.31916,0.09088 -10.0879,-2.05774 -10.0879,-2.05774" fill="#000000" stroke="#ff7b00" stroke-width="2" stroke-linecap="round" stroke-linejoin="round"/><path d="M249.21071,163.00914c2.09559,0.13602 4.27803,0.4781 4.33247,1.1831c0.00911,1.40354 -1.6691,4.1005 -3.27222,4.09666c-1.80917,0.08299 -5.83842,-2.6838 -5.73479,-4.28044c-0.02207,-1.20396 2.67875,-1.12886 4.67454,-0.99932z" fill="#000000" stroke="#ff7b00" stroke-width="2" stroke-linecap="round" stroke-linejoin="round"/><path d="M204.40237,158.59753c0,0 8.40058,3.35116 11.69243,6.67135" fill="#000000" stroke="#ff7b00" stroke-width="2" stroke-linecap="round" stroke-linejoin="round"/><path d="M216.16747,168.78097c-4.40107,1.4179 -11.7143,-0.15909 -11.7143,-0.15909" fill="#000000" stroke="#ff7b00" stroke-width="2" stroke-linecap="round" stroke-linejoin="round"/><g fill="#ff7b00" stroke="none" stroke-width="0" stroke-linecap="butt" stroke-linejoin="miter"><path d="M261.72384,157.80871c-0.07125,1.0977 -0.92787,1.94398 -1.92576,1.87921c-0.99791,-0.06477 -1.73792,-1.0147 -1.66668,-2.11239c0.07125,-1.0977 0.92787,-1.94398 1.92576,-1.87921c0.99791,0.06477 1.73792,1.0147 1.66668,2.11239"/></g><g fill="#ff7b00" stroke="none" stroke-width="0" stroke-linecap="butt" stroke-linejoin="miter"><path d="M236.33902,159.06712c-0.07125,1.0977 -0.92787,1.94398 -1.92576,1.87921c-0.99791,-0.06477 -1.73792,-1.0147 -1.66668,-2.11239c0.07125,-1.0977 0.92787,-1.94398 1.92576,-1.87921c0.99142,0.16456 1.73792,1.0147 1.66668,2.11239"/></g></g><g fill="#000000" fill-rule="nonzero" stroke="#ff7b00" stroke-width="2" stroke-linejoin="miter"><g><path d="M252.36131,199.63659l4.57112,-21.7075l12.3966,4.58437l-9.92519,18.92987c0,0 -2.462,0.93141 -3.59922,0.63965c-1.20622,-0.30945 -3.44331,-2.4464 -3.44331,-2.4464z" stroke-linecap="butt"/><path d="M256.70649,176.38315c1.40924,-3.81077 5.64092,-5.75757 9.45167,-4.34832c3.81077,1.40924 5.75757,5.64093 4.34832,9.45167c-1.40924,3.81077 -5.64093,5.75758 -9.45168,4.34832c-3.81077,-1.40924 -5.75756,-5.64093 -4.34831,-9.45169z" stroke-linecap="butt"/><path d="M258.48579,183.74993c0,0 0.72441,-4.57537 1.44992,-6.60797c0.67809,-1.89967 2.77052,-5.21578 2.77052,-5.21578" stroke-linecap="round"/><path d="M264.95758,185.99115c0,0 0.78466,-5.70366 1.35919,-7.86016c0.42451,-1.59336 1.77623,-3.90854 1.77623,-3.90854" stroke-linecap="round"/><path d="M256.50052,176.77978c0,0 4.95091,-0.85185 7.45791,-0.51545c2.18106,0.29266 6.74289,2.42092 6.74289,2.42092" stroke-linecap="round"/><path d="M256.59242,182.28924c0,0 5.5019,-0.58862 7.96029,-0.5088c1.91104,0.06205 5.56597,0.94805 5.56597,0.94805" stroke-linecap="round"/></g><path d="M264.64507,195.85651c-0.93221,2.54426 -3.81886,4.0998 -6.44754,3.4744c-2.62867,-0.6254 -4.47164,-2.54784 -3.53943,-5.0921c0.93221,-2.54426 4.28658,-4.74688 6.91525,-4.12147c2.62867,0.6254 4.00391,3.19491 3.07171,5.73918z" stroke-linecap="butt"/></g><g fill="#000000" fill-rule="nonzero" stroke="#ff7b00" stroke-width="2" stroke-linecap="butt" stroke-linejoin="miter"><path d="M227.84171,146.24245c-1.66245,4.26532 -21.98208,11.10986 -21.98208,11.10986c0,0 -2.85968,-0.30752 -4.20192,-0.52339c-10.05237,-1.61672 -16.62604,-5.45397 -15.15942,-9.21687c1.66245,-4.26532 13.02621,-6.81994 25.38163,-5.70586c12.35543,1.11406 17.62423,0.07092 15.96178,4.33624z"/><path d="M212.78349,140.87592l-11.52263,-4.39881c0,0 14.82307,-5.52748 22.85091,-6.88185c9.70917,-1.63803 31.32507,-2.25817 31.32507,-2.25817l-15.05148,16.96657z"/><path d="M203.29702,158.14865c0,0 -2.47669,-7.50706 -2.83348,-11.10167c-0.34612,-3.4873 0.72379,-10.15386 0.72379,-10.15386l26.36362,-2.6167c0,0 0.11414,7.69238 0.47577,11.33569c0.34032,3.42883 1.63393,9.91984 1.63393,9.91984z" data-paper-data="{&quot;index&quot;:null}"/><path d="M229.23766,155.50858c0,0 -0.69688,-6.59767 -1.46486,-9.95669c-0.816,-3.56914 -3.29579,-10.86604 -3.29579,-10.86604l31.61968,-7.22913c0,0 3.51156,5.89389 4.29262,9.31017c0.8051,3.52142 0.46802,11.51254 0.46802,11.51254z"/></g><path d="M224.70949,198.77523c-0.53066,4.10033 1.27888,7.96757 -0.18246,10.04379c-0.95373,1.35503 -2.49171,2.28424 -3.50763,2.15277c-1.13229,-0.14653 -2.90862,-1.71571 -3.48689,-3.58963c-0.73554,-2.38355 -2.62988,-6.01882 -2.13891,-9.81257c0.4331,-3.34653 3.30665,-6.63182 4.41786,-8.73866c1.13885,-2.15928 3.0817,-2.56705 4.38376,-2.39854c1.40574,0.18193 2.77919,1.25581 3.29757,3.95998c0.43027,2.2445 -2.38554,5.30941 -2.78331,8.38287z" fill="#000000" fill-rule="nonzero" stroke="#ff7b00" stroke-width="2" stroke-linecap="butt" stroke-linejoin="miter"/></g></g></svg>