<svg version="1.1" xmlns="http://www.w3.org/2000/svg" xmlns:xlink="http://www.w3.org/1999/xlink" width="125.05738" height="131.76826" viewBox="0,0,125.05738,131.76826"><g transform="translate(-176.73395,-113.75988)"><g data-paper-data="{&quot;isPaintingLayer&quot;:true}" fill-rule="nonzero" stroke="none" stroke-linecap="butt" stroke-linejoin="miter" stroke-miterlimit="10" stroke-dasharray="" stroke-dashoffset="0" style="mix-blend-mode: normal"><path d="M194.06398,153.71565c1.05319,-5.49239 2.90598,-10.4362 5.36927,-15.40595c3.4085,-4.65149 6.06082,-9.66761 10.2293,-13.85109c1.97041,-2.61641 4.96235,-4.50035 7.41265,-6.6252c1.00301,-0.86978 2.57365,-2.41172 3.94829,-2.62468c0.69238,-0.10726 1.47923,1.17943 1.94616,1.53247c1.96834,1.96396 4.84526,5.54704 7.31663,6.76691c1.87598,0.92598 7.00182,-1.77055 8.57141,-2.94628c2.51019,-0.98698 4.59652,-2.62807 7.17977,-3.35728c0.63601,-0.17953 1.56242,-1.05669 1.92025,-0.50111c1.34096,2.08203 2.49063,5.1377 3.29334,7.51469c0.19365,0.47864 0.79123,2.05235 1.1147,2.16968c0.63756,0.23124 1.61695,-0.88991 2.00154,-1.27401c1.51003,-1.50809 3.22498,-2.40553 5.2699,-2.91508c0.17586,-0.04382 2.67009,-0.86974 2.72566,-0.81851c0.28634,0.264 -0.11804,0.78172 -0.04692,1.16351c0.26247,1.409 0.37731,2.80618 0.69417,4.22006c3.4293,4.72641 8.65887,9.29297 13.1651,12.99222c2.86937,3.8541 5.22332,9.29051 5.31137,14.21267c-0.56221,0.31688 -1.1861,0.67541 -1.6645,1.04356c-0.5427,-0.88553 -1.68149,-1.64666 -2.33742,-2.46273l-0.6777,-0.53413c0,0 -0.50397,-0.47082 -0.95208,0.12702c-0.44811,0.59784 0.1536,1.04756 0.1536,1.04756l0.40584,0.27337c0.58181,0.71996 1.80688,1.51454 2.22386,2.30205c1.44477,2.72862 2.22933,6.01213 3.63027,8.78642c0.865,5.32816 2.33631,10.02237 0.5868,15.3019c0,0 -0.23521,0.70958 0.47705,0.9459c0.11323,0.03757 0.21442,0.05118 0.3045,0.04761c-0.8723,3.59889 -2.65566,6.86621 -4.71793,10.17555c-3.99388,5.13531 -9.34686,9.14976 -15.82994,10.46696c-3.02135,1.19462 -6.25241,1.94337 -9.28301,3.14066l-0.19054,-0.05339c0,0 -0.12297,0.0001 -0.26894,0.04954c-1.2316,-0.52734 -2.4765,-0.82684 -3.64347,-0.82684c-1.41698,0.0207 -2.17063,0.57837 -3.26189,1.39581l-0.17084,0.43191c-0.54187,0.21 -1.10717,0.49067 -1.65373,0.82488c-0.04177,-0.00471 -0.06745,-0.0047 -0.06745,-0.0047l-0.31283,0.00004c-0.26041,0 -0.52168,0.0001 -0.78209,0.0001c-6.22915,0.03203 -12.96488,-0.49728 -18.98613,-2.17446c-6.76722,0.04013 -12.16192,-5.13939 -17.15883,-8.86476c-2.47442,-2.46892 -4.30133,-5.33482 -6.50159,-8.00712c-0.96115,-1.16735 -1.61394,-2.40441 -2.6774,-3.20879c-0.84588,-3.10652 -0.34491,-6.91698 -0.59762,-9.82726c-0.00894,-3.91585 -1.32393,-12.11247 2.43863,-14.5657c0,0 0.62278,-0.41589 0.20479,-1.03768c-0.41799,-0.62179 -0.94088,-0.20167 -0.94088,-0.20167c-0.93693,0.63392 -1.61633,1.502 -2.10533,2.52589c-1.28816,-0.41955 -2.74638,-0.82236 -4.12814,-1.13175c-0.00292,-2.11663 0.71378,-4.14373 1.06235,-6.23876z" data-paper-data="{&quot;noHover&quot;:false,&quot;origItem&quot;:[&quot;Path&quot;,{&quot;applyMatrix&quot;:true,&quot;segments&quot;:[[[194.11337,153.72358],[0,0],[-0.34857,2.09503]],[[193.05164,159.95537],[-0.00292,-2.11663],[1.38176,0.30939]],[[197.07979,161.08647],[-1.28816,-0.41955],[0.489,-1.02389]],[[199.1852,158.55737],[-0.93693,0.63392],[0,0]],[[200.22592,158.76463],[-0.41799,-0.62179],[0.41799,0.62179]],[[200.02119,159.80095],[0,0],[-3.76256,2.45323]],[[197.58003,174.34957],[-0.00894,-3.91585],[0.25271,2.91028]],[[198.17342,184.16745],[-0.84588,-3.10652],[1.06346,0.80438]],[[200.8484,187.37247],[-0.96115,-1.16735],[2.20026,2.6723]],[[207.34258,195.37127],[-2.47442,-2.46892],[4.99691,3.72537]],[[224.48322,204.22561],[-6.76722,0.04013],[6.02125,1.67718]],[[243.44857,206.39801],[-6.22915,0.03203],[0.26041,0]],[[244.22982,206.39801],[-0.26041,0],[0,0]],[244.54232,206.39801],[[244.6097,206.40272],[-0.04177,-0.00471],[0.54656,-0.33421]],[[246.26153,205.57814],[-0.54187,0.21],[0,0]],[[246.4321,205.14628],[0,0],[1.09126,-0.81744]],[[249.69019,203.75132],[-1.41698,0.0207],[1.16697,0]],[[253.33024,204.5792],[-1.2316,-0.52734],[0.14597,-0.04944]],[253.5989,204.52976],[[253.78928,204.58321],[0,0],[3.0306,-1.19729]],[[263.06294,201.44699],[-3.02135,1.19462],[6.48308,-1.3172]],[[278.87876,190.99289],[-3.99388,5.13531],[2.06227,-3.30934]],[[283.59107,180.82698],[-0.8723,3.59889],[-0.09008,0.00357]],[[283.2866,180.7793],[0.11323,0.03757],[-0.71226,-0.23632]],[[282.80927,179.83404],[0,0],[1.74951,-5.27953]],[[282.21863,164.54757],[0.865,5.32816],[-1.40094,-2.77429]],[[278.58857,155.77161],[1.44477,2.72862],[-0.41698,-0.78751]],[[276.36523,153.47282],[0.58181,0.71996],[0,0]],[275.95948,153.19989],[[275.80617,152.15367],[-0.44811,0.59784],[0.44811,-0.59784]],[276.8557,152.00421],[[277.53358,152.53916],[0,0],[0.65593,0.81607]],[[279.8716,155.00529],[-0.5427,-0.88553],[0.4784,-0.36815]],[[281.4372,153.97652],[-0.56221,0.31688],[-0.08805,-4.92216]],[[276.13153,139.78033],[2.86937,3.8541],[-4.50623,-3.69925]],[[262.98078,126.80428],[3.4293,4.72641],[-0.31686,-1.41388]],[[262.2894,122.5861],[0.26247,1.409],[-0.07112,-0.38179]],[[262.33685,121.42292],[0.28634,0.264],[-0.05557,-0.05123]],[[259.61306,122.24251],[0.17586,-0.04382],[-2.04492,0.50955]],[[254.34683,125.15942],[1.51003,-1.50809],[-0.38459,0.3841]],[[252.3469,126.43412],[0.63756,0.23124],[-0.32347,-0.11733]],[[251.23443,124.26529],[0.19365,0.47864],[-0.80271,-2.37699]],[[247.94707,116.7523],[1.34096,2.08203],[-0.35783,-0.55558]],[[246.02878,117.2538],[0.63601,-0.17953],[-2.58325,0.72921]],[[238.85706,120.61184],[2.51019,-0.98698],[-1.56959,1.17573]],[[230.29684,123.557],[1.87598,0.92598],[-2.47137,-1.21987]],[[222.98612,116.78843],[1.96834,1.96396],[-0.46693,-0.35304]],[[221.04124,115.25549],[0.69238,-0.10726],[-1.37464,0.21296]],[[217.09737,117.87824],[1.00301,-0.86978],[-2.4503,2.12485]],[[209.69351,124.49788],[1.97041,-2.61641],[-4.16848,4.18348]],[[199.47653,138.33475],[3.4085,-4.65149],[-2.46329,4.96975]],[[194.11335,153.72358],[1.05319,-5.49239],[0,0]]],&quot;closed&quot;:true,&quot;fillColor&quot;:[0,0,0],&quot;strokeWidth&quot;:0.5}]}" fill="#9a8479" stroke-width="0.25"/><path d="M247.80973,211.93006c0.73498,-0.14656 0.88437,0.58623 0.88437,0.58623l0.10095,0.5074c0.02382,0.08215 0.04778,0.1643 0.07182,0.24644c1.2065,0.51063 2.31871,-0.14838 3.72518,0.69788c0.82759,0.49795 0.99051,1.81277 1.48377,2.53103c1.46983,2.14031 5.5833,0.70638 6.81593,-0.71586c-0.34691,-4.67793 -6.47409,-10.53725 -11.19683,-10.53725c-0.38438,-0.00811 -0.6937,0.05422 -0.97109,0.16629c0.09333,0.10968 0.15996,0.2657 0.16066,0.4876c0.00236,0.7473 -0.74764,0.7473 -0.74764,0.7473c-1.66571,-0.03512 -4.33473,1.57681 -4.9188,3.11106c-0.24449,0.64223 -0.78241,1.58696 -0.15922,2.15209c1.2276,1.11324 2.82598,0.17484 4.26874,0.3185c0.08626,-0.13259 0.23366,-0.24915 0.48214,-0.2987zM249.97848,218.77711c0.00504,3.08205 0.29665,6.5829 0.70505,9.63388c0.26308,1.96529 2.06873,3.30442 2.291,5.11149c0.25714,2.09048 -1.18759,2.64254 -2.89558,2.64633c-1.23957,0 -3.50883,0.37912 -4.5952,-0.33519c-2.80356,-1.84341 -3.08444,-7.50514 -3.11992,-10.97653c-0.43696,0.17141 -0.85216,0.35249 -1.12249,0.57801c-0.66682,0.55631 -0.58935,2.97931 -0.66598,3.72413c-0.41376,4.02202 0.72364,7.36466 1.82876,11.1522c1.72735,6.35525 -6.27639,6.26475 -9.63209,3.12937c-0.86458,-0.80781 -0.7222,-1.88527 -1.1065,-2.81736c-0.39125,-0.18907 -0.39278,-0.67285 -0.39278,-0.67285l-0.00046,-0.1465c-0.01197,-0.07251 -0.01502,-0.15228 -0.00074,-0.23455l-0.00059,-0.18509c-0.0114,-3.60446 0.93076,-6.72829 1.79983,-10.22087c0.6093,-4.38736 0.36932,-8.78629 -1.25407,-12.85278c-0.16259,2.27743 -0.50561,4.52789 -0.34905,6.8292c0.14958,2.19853 1.16651,4.4116 0.33153,6.61025c-0.69797,1.83789 -2.31909,1.51363 -3.71439,0.81959c-0.40564,-0.43585 -0.36819,1.27848 -0.8358,1.80152c-1.03616,1.15903 -2.24359,1.29355 -3.39363,0.18175c-2.96875,-2.86999 -0.24157,-9.37869 0.67834,-12.62257c0.93019,-3.23564 2.29326,-6.38065 3.14865,-9.61446c0.19032,-0.71952 0.37605,-2.79559 0.95701,-3.58406c-1.48317,-0.27567 -2.94177,-0.61348 -4.35951,-1.02626c-7.09201,-0.03924 -12.65917,-5.28587 -17.9165,-9.20539c-2.24945,-2.22537 -3.96624,-4.76133 -5.8897,-7.20756c-0.07959,0.01465 -0.13412,0.01465 -0.13412,0.01465l-0.72545,-0.16376c-1.38093,-1.10099 -2.19971,-2.48938 -2.68701,-4.02755c-0.25682,-0.13246 -0.53994,-0.22799 -0.85752,-0.27543c0,0 -0.09356,-0.01552 -0.20872,-0.06867c-5.17012,0.7082 -9.07589,-1.20346 -13.35756,-4.0871c-0.33623,-0.3974 -0.70042,-0.77195 -1.07354,-1.13954c-0.12421,0.18794 -0.36254,0.39294 -0.78927,0.28673c-0.72818,-0.18125 -0.54857,-0.90624 -0.54857,-0.90624l0.13857,-0.55042c-0.71188,-0.71258 -1.38178,-1.46211 -1.87451,-2.36147c-2.30036,-4.19874 -2.44964,-9.57855 1.49333,-12.88694c3.05892,-3.76365 7.41485,-4.18369 11.70612,-3.46574c0.05714,-2.11202 0.74322,-4.11279 1.08166,-6.2072c1.09659,-5.42338 2.84444,-10.2999 5.22236,-15.22495l0.08485,-0.34607c0.08178,-0.1088 0.16307,-0.21783 0.24392,-0.32708c0.02987,-0.06048 0.05984,-0.12098 0.08991,-0.18149c0,0 0.08788,-0.17624 0.26436,-0.30249c3.30972,-4.56919 5.91161,-9.47076 10.01478,-13.55344c2.00025,-2.68313 5.07408,-4.58163 7.55377,-6.76948c1.16745,-1.03005 3.13749,-2.85567 4.78839,-2.98199c1.49426,-0.11433 2.05423,1.14999 3.06596,1.89218c2.18757,2.16414 4.62535,4.87304 7.10665,6.62054c0.42347,0.29824 1.48573,-0.38547 1.83021,-0.52235c1.6592,-0.65929 3.78988,-1.38047 5.21585,-2.44862c2.7389,-1.10774 6.49435,-4.37922 9.57308,-4.14371c1.90477,0.14571 1.74512,1.92282 2.39321,3.20285c0.90762,1.79259 1.90271,3.44586 2.55693,5.38316c0.04148,0.10252 0.2604,0.45472 0.31414,0.77344c0.11256,-0.16793 0.23956,-0.33419 0.3274,-0.42207c0.57898,-0.57921 0.79928,-0.84229 1.49864,-1.32674c1.35841,-0.94099 6.82326,-3.88051 8.6127,-2.40976c0.7771,0.6387 0.76491,4.73693 0.95404,5.82814c3.64055,4.52624 8.41136,8.83899 12.86754,12.55668c2.98779,3.90529 5.40088,9.41674 5.69409,14.49301c4.7039,-2.06069 11.11648,-2.44518 15.10163,-0.07084c7.02488,4.25263 2.88252,13.54728 -1.36245,18.16954c-2.92178,2.4854 -7.1471,4.587 -10.99291,5.35057c-0.16323,5.65714 -2.55472,10.37095 -5.54504,15.15569c-4.16428,5.35841 -9.8193,9.7058 -16.6162,11.03076c-2.65876,1.07195 -5.50243,1.73917 -8.20683,2.73097c3.86879,2.42175 7.16186,6.80061 7.0282,10.64521c-1.86669,2.69786 -5.56168,3.59183 -8.57321,1.81634c-1.13484,-0.66905 -0.99821,-2.1969 -1.88595,-2.80354c-0.18718,-0.12792 -1.76077,0.12561 -2.04783,0.09336c-0.12198,-0.0137 -0.24283,-0.03277 -0.36221,-0.057c0.29773,1.13809 0.52371,2.28831 0.53141,3.47215zM245.09471,232.01244c0.21979,0.65275 0.51937,2.10879 1.16421,2.54405c0.74988,0.50615 2.91754,0.11771 3.81532,0.11771c0.81555,0.00206 1.57201,0.17247 1.41115,-0.97695c-0.23402,-1.67221 -2.01951,-3.16532 -2.28669,-5.07897c-0.43383,-3.10721 -0.70594,-6.69932 -0.72021,-9.84119c0.00102,-1.46914 -0.39938,-2.90135 -0.81953,-4.31415c-0.32307,-0.26161 -0.60682,-0.57261 -0.83767,-0.92501c-1.75577,-0.2454 -3.12538,1.18547 -4.81976,-0.57086c-1.57849,-1.6362 -0.82413,-3.55347 0.70106,-5.07946c-3.65716,-0.03318 -7.47402,-0.20212 -11.20399,-0.70121c0.06603,0.15546 0.07952,0.35618 -0.04314,0.60217c-0.3333,0.6684 -1.00517,0.3342 -1.00517,0.3342c-1.27897,-0.6911 -0.99965,1.37689 -1.31888,2.58418c-0.85648,3.23909 -2.24862,6.3885 -3.15409,9.63415c-0.14662,0.51703 -0.36582,1.16751 -0.60596,1.89746c0.11274,-0.03271 0.2492,-0.03799 0.41363,0.00293c0.72818,0.18125 0.54858,0.90624 0.54858,0.90624c-0.28876,1.13314 -0.23858,4.08897 1.15436,1.89522l-0.12644,-0.15161c0,0 -0.00236,-0.7473 0.74764,-0.7473c0.75,0 0.75236,0.7473 0.75236,0.7473l-0.12286,0.98067c-0.95872,1.39353 -3.03019,2.37495 -4.04355,0.21114c-0.12958,-0.27668 -0.17346,-0.64928 -0.16705,-1.05331c-0.64063,2.46528 -0.94461,5.07251 0.38469,6.46641c1.37676,1.44367 1.55266,-2.20045 2.34147,-2.53338c0.42495,-0.17936 0.91335,0.14268 1.37002,0.21403c0.33799,0.16812 1.12781,0.73783 1.56002,0.43255c0.54244,-0.38316 0.4746,-2.85585 0.37252,-3.46736c-0.68933,-4.12904 -0.14768,-7.76095 -0.16075,-11.89407l0.11042,-0.62487c-0.00454,-0.0078 -0.0091,-0.0156 -0.01366,-0.02341c0,0 -0.37415,-0.64884 0.27585,-1.01961c0.65001,-0.37076 1.02417,0.27808 1.02417,0.27808c2.93122,5.14049 3.56672,10.82444 2.75097,16.59268c-0.83898,3.40065 -1.78384,6.43193 -1.77276,9.93356l0.0005,0.1596c0.39805,0.87238 0.34621,2.23211 1.02063,2.80415c2.12962,1.80629 8.72961,3.29379 7.17104,-1.62617c-1.14539,-3.97951 -2.31106,-7.49763 -1.87998,-11.71969c0.13364,-1.30886 0.06576,-3.66969 1.12569,-4.65468c0.54322,-0.50482 1.59194,-0.75422 2.34661,-1.11799c0.07799,-0.08665 0.18675,-0.15967 0.33846,-0.19503c0.39377,-0.36866 0.88234,-0.64785 1.39353,-0.83267c0.07595,-0.06945 0.56176,-0.47568 1.05041,0.00968c0.532,0.52842 0.00334,1.05684 0.00334,1.05684l-0.43697,0.30335c-0.38942,0.09536 -0.75705,0.31786 -1.04337,0.60037c0.03227,2.81294 0.31327,5.10622 1.23384,7.84024zM194.11337,153.72358c-0.34857,2.09503 -1.06465,4.11516 -1.06173,6.23179c1.38176,0.30939 2.73999,0.71155 4.02815,1.1311c0.489,-1.02389 1.16848,-1.89518 2.10541,-2.5291c0,0 0.62273,-0.41453 1.04072,0.20726c0.41799,0.62179 -0.20473,1.03632 -0.20473,1.03632c-3.76256,2.45323 -2.4501,10.63277 -2.44116,14.54862c0.25271,2.91028 -0.25249,6.71136 0.59339,9.81788c1.06346,0.80438 1.71383,2.03767 2.67498,3.20502c2.20026,2.6723 4.01976,5.52988 6.49418,7.9988c4.99691,3.72537 10.37342,8.89447 17.14064,8.85434c6.02125,1.67718 12.7362,2.20443 18.96535,2.1724c0.26041,0 0.52084,0 0.78125,0h0.3125c0,0 0.02561,0 0.06738,0.00471c0.54656,-0.33421 1.10996,-0.61458 1.65183,-0.82458l0.17057,-0.43186c1.09126,-0.81744 1.84111,-1.37426 3.25809,-1.39496c1.16697,0 2.40845,0.30054 3.64005,0.82788c0.14597,-0.04944 0.26866,-0.04944 0.26866,-0.04944l0.19038,0.05345c3.0306,-1.19729 6.25231,-1.9416 9.27366,-3.13622c6.48308,-1.3172 11.82194,-5.31879 15.81582,-10.4541c2.06227,-3.30934 3.84001,-6.56702 4.71231,-10.16591c-0.09008,0.00357 -0.19124,-0.01011 -0.30447,-0.04768c-0.71226,-0.23632 -0.47733,-0.94526 -0.47733,-0.94526c1.74951,-5.27953 0.27436,-9.95831 -0.59064,-15.28647c-1.40094,-2.77429 -2.18529,-6.04734 -3.63006,-8.77596c-0.41698,-0.78751 -1.64153,-1.57883 -2.22334,-2.29879l-0.40575,-0.27293c0,0 -0.60142,-0.44838 -0.15331,-1.04622c0.44811,-0.59784 1.04953,-0.14946 1.04953,-0.14946l0.67788,0.53495c0.65593,0.81607 1.79532,1.5806 2.33802,2.46613c0.4784,-0.36815 1.00339,-0.71189 1.5656,-1.02877c-0.08805,-4.92216 -2.4363,-10.34209 -5.30567,-14.19619c-4.50623,-3.69925 -9.72145,-8.24964 -13.15075,-12.97605c-0.31686,-1.41388 -0.42891,-2.80918 -0.69138,-4.21818c-0.07112,-0.38179 0.33379,-0.89918 0.04745,-1.16318c-0.05557,-0.05123 -2.54793,0.77577 -2.72379,0.81959c-2.04492,0.50955 -3.7562,1.40882 -5.26623,2.91691c-0.38459,0.3841 -1.36237,1.50594 -1.99993,1.2747c-0.32347,-0.11733 -0.91882,-1.69019 -1.11247,-2.16883c-0.80271,-2.37699 -1.9464,-5.43096 -3.28736,-7.51299c-0.35783,-0.55558 -1.28228,0.32197 -1.91829,0.5015c-2.58325,0.72921 -4.66153,2.37106 -7.17172,3.35804c-1.56959,1.17573 -6.68424,3.87114 -8.56022,2.94516c-2.47137,-1.21987 -5.34238,-4.80461 -7.31072,-6.76857c-0.46693,-0.35304 -1.2525,-1.6402 -1.94488,-1.53294c-1.37464,0.21296 -2.94086,1.75297 -3.94387,2.62275c-2.4503,2.12485 -5.43345,4.00323 -7.40386,6.61964c-4.16848,4.18348 -6.80848,9.18538 -10.21698,13.83687c-2.46329,4.96975 -4.30999,9.89644 -5.36318,15.38883zM295.43931,169.02916l0.03711,-0.43692c-0.26579,-0.79362 -0.39716,-1.58358 -0.66458,-2.37401c-1.83227,-3.60863 -4.04862,-6.21565 -8.35161,-6.81692c-1.67446,-0.23398 -2.80967,0.76699 -4.35285,0.81511c0,0 -0.01589,0 -0.04305,-0.0023c0.47896,1.33286 0.96622,2.65707 1.57934,3.87125c0.69006,3.88628 1.59293,7.49071 1.47095,11.191c3.59095,-0.58321 7.75663,-2.70211 10.49091,-5.01066c0.14538,-0.15885 0.29207,-0.32565 0.43928,-0.49972c-0.60345,-0.09055 -0.60549,-0.73681 -0.60549,-0.73681zM282.10263,158.72181c1.4624,0.07899 2.84494,-1.01896 4.56096,-0.80067c4.8199,0.61312 7.49925,3.6794 9.53225,7.72512c0.27912,0.8277 0.42107,1.649 0.70211,2.47333l0.02402,0.5281c3.07523,-4.2162 5.6734,-11.05772 0.32185,-14.19302c-4.43788,-2.65249 -12.60972,-1.35711 -16.57226,1.82782c0,0 -0.04046,0.03232 -0.10865,0.06934c0.37802,0.8209 0.70986,1.68095 1.02866,2.55156c0.21904,-0.18157 0.51108,-0.18158 0.51108,-0.18158zM181.69656,174.89974c2.23473,-4.48163 9.20348,-9.28027 14.30162,-9.3141c0.09462,-1.08335 0.26485,-2.13483 0.55173,-3.10249c-5.09979,-1.68952 -11.72677,-3.27597 -15.62608,1.69013c-4.6431,3.83331 -2.74471,8.32627 0.01475,12.16083c0.19733,-0.4772 0.43381,-0.94758 0.75798,-1.43438zM182.9963,175.64992c-0.48354,0.72614 -0.74575,1.38098 -0.98618,2.09817c0.50299,0.63574 1.01042,1.24646 1.49222,1.82514c4.096,2.6595 7.61258,4.47839 12.5921,3.65103l0.09145,-0.14014c0,0 0.10853,-0.07224 0.26538,-0.11117c-0.40689,-2.8262 -0.13994,-5.91273 -0.36974,-8.56126c-0.00802,-2.0176 -0.25134,-4.69766 -0.16946,-7.33079c-4.58547,0.07034 -10.92699,4.58066 -12.91577,8.56902z" fill="#000000" stroke-width="0.5"/><path d="M295.48762,169.0421c0,0 0.00094,0.64985 0.60439,0.7404c-0.14721,0.17407 -0.29549,0.34486 -0.44087,0.50371c-2.73428,2.30855 -6.96776,4.45176 -10.55871,5.03497c0.12198,-3.70029 -0.80161,-7.37519 -1.49167,-11.26147c-0.61312,-1.21418 -1.09253,-2.54838 -1.57149,-3.88124c0.02716,0.0023 0.04315,0.0022 0.04315,0.0022c1.54318,-0.04812 2.69778,-1.06086 4.37224,-0.82688c4.30299,0.60127 6.58401,3.2464 8.41628,6.85503c0.26742,0.79043 0.39873,1.59951 0.66452,2.39313l-0.03786,0.44013z" data-paper-data="{&quot;noHover&quot;:false,&quot;origItem&quot;:[&quot;Path&quot;,{&quot;applyMatrix&quot;:true,&quot;segments&quot;:[[295.43931,169.02916],[[295.47642,168.59224],[0,0],[-0.26579,-0.79362]],[[294.81184,166.21823],[0.26742,0.79043],[-1.83227,-3.60863]],[[286.46023,159.40131],[4.30299,0.60127],[-1.67446,-0.23398]],[[282.10738,160.21642],[1.54318,-0.04812],[0,0]],[[282.06433,160.21412],[0.02716,0.0023],[0.47896,1.33286]],[[283.64367,164.08537],[-0.61312,-1.21418],[0.69006,3.88628]],[[285.11462,175.27637],[0.12198,-3.70029],[3.59095,-0.58321]],[[295.60553,170.26571],[-2.73428,2.30855],[0.14538,-0.15885]],[[296.04481,169.76599],[-0.14721,0.17407],[-0.60345,-0.09055]],[295.43932,169.02918]],&quot;closed&quot;:true,&quot;fillColor&quot;:[0,0,0,1]}]}" fill="#ee4036" stroke-width="0.5"/><path d="M195.94372,167.04219c-0.08188,2.63313 0.17942,5.3458 0.18744,7.3634c0.2298,2.64853 -0.05262,5.77767 0.35427,8.60387c-0.15685,0.03893 -0.26633,0.11204 -0.26633,0.11204l-0.09203,0.14065c-4.97952,0.82736 -8.56865,-0.99931 -12.66465,-3.65881c-0.4818,-0.57868 -0.99657,-1.20318 -1.49956,-1.83892c0.24043,-0.71719 0.5,-1.38518 0.98354,-2.11132c1.98878,-3.98836 8.41185,-8.54056 12.99732,-8.6109z" data-paper-data="{&quot;noHover&quot;:false,&quot;origItem&quot;:[&quot;Path&quot;,{&quot;applyMatrix&quot;:true,&quot;segments&quot;:[[[182.9963,175.64992],[1.98878,-3.98836],[-0.48354,0.72614]],[[182.01012,177.74809],[0.24043,-0.71719],[0.50299,0.63574]],[[183.50234,179.57323],[-0.4818,-0.57868],[4.096,2.6595]],[[196.09444,183.22426],[-4.97952,0.82736],[0,0]],[196.18589,183.08412],[[196.45127,182.97295],[-0.15685,0.03893],[-0.40689,-2.8262]],[[196.08153,174.41169],[0.2298,2.64853],[-0.00802,-2.0176]],[[195.91207,167.0809],[-0.08188,2.63313],[-4.58547,0.07034]]],&quot;closed&quot;:true,&quot;fillColor&quot;:[0,0,0,1]}]}" fill="#ee4036" stroke-width="0.5"/><path d="M245.05699,231.97964c-0.92057,-2.73402 -1.21249,-4.98296 -1.24476,-7.7959c0.28632,-0.28251 0.65453,-0.50278 1.04395,-0.59814l0.43728,-0.30232c0,0 0.53081,-0.52273 -0.00119,-1.05115c-0.48865,-0.48536 -0.97316,-0.07645 -1.04911,-0.007c-0.51119,0.18482 -0.91077,0.4184 -1.30454,0.78706c-0.15171,0.03536 -0.34992,0.15309 -0.42791,0.23974c-0.75467,0.36377 -1.71421,0.56794 -2.25743,1.07276c-1.05993,0.98499 -1.01805,3.41527 -1.15169,4.72413c-0.43108,4.22206 0.7266,7.7426 1.87199,11.72211c1.55857,4.91996 -5.06334,3.43222 -7.19296,1.62593c-0.67442,-0.57204 -0.6279,-1.93334 -1.02595,-2.80572l-0.00067,-0.15966c-0.01108,-3.50163 0.91871,-6.54157 1.75769,-9.94222c0.81575,-5.76824 0.19119,-11.53587 -2.74003,-16.67636c0,0 -0.32945,-0.55943 -0.97946,-0.18867c-0.65,0.37077 -0.27361,1.01834 -0.27361,1.01834c0.00456,0.00781 0.00912,0.01561 0.01366,0.02341l-0.10911,0.62405c0.01307,4.13312 -0.50584,7.71942 0.18349,11.84846c0.10208,0.61151 0.16428,3.06448 -0.37816,3.44764c-0.43221,0.30528 -1.31284,-0.22295 -1.65083,-0.39107c-0.45667,-0.07135 -0.85084,-0.42672 -1.27579,-0.24736c-0.78881,0.33293 -1.05781,4.01304 -2.43457,2.56937c-1.3293,-1.3939 -1.02981,-4.02418 -0.38918,-6.48946c-0.00641,0.40403 0.13739,0.7771 0.26697,1.05378c1.01336,2.16381 2.98488,1.18554 3.9436,-0.20799l0.12301,-0.98616c0,0 0.09689,-0.73562 -0.65311,-0.73562c-0.75,0 -0.74719,0.74323 -0.74719,0.74323l0.12648,0.15092c-1.39294,2.19375 -1.5419,-0.77549 -1.25314,-1.90863c0,0 0.18035,-0.72799 -0.54783,-0.90924c-0.16443,-0.04092 -0.301,-0.03523 -0.41374,-0.00252c0.24014,-0.72995 0.46195,-1.38771 0.60857,-1.90474c0.90547,-3.24565 2.31822,-6.41789 3.1747,-9.65698c0.31923,-1.20729 0.04568,-3.27813 1.32465,-2.58703c0,0 0.67448,0.3332 1.00778,-0.3352c0.12266,-0.24599 0.10975,-0.44691 0.04372,-0.60237c3.72997,0.49909 7.57634,0.66723 11.2335,0.70041c-1.52519,1.52599 -2.27707,3.44402 -0.69858,5.08022c1.69438,1.75633 3.07808,0.33287 4.83385,0.57827c0.23085,0.3524 0.51778,0.666 0.84085,0.92761c0.42015,1.4128 0.8295,2.8555 0.82848,4.32464c0.01427,3.14187 0.29259,6.77352 0.72642,9.88073c0.26718,1.91365 2.0474,3.41944 2.28142,5.09165c0.16086,1.14942 -0.5984,0.98327 -1.41395,0.98121c-0.89778,0 -3.07125,0.39505 -3.82113,-0.1111c-0.64484,-0.43526 -1.01665,-1.9603 -1.23644,-2.61305z" data-paper-data="{&quot;noHover&quot;:false,&quot;origItem&quot;:[&quot;Path&quot;,{&quot;applyMatrix&quot;:true,&quot;segments&quot;:[[[245.09471,232.01244],[0,0],[0.21979,0.65275]],[[246.25892,234.55649],[-0.64484,-0.43526],[0.74988,0.50615]],[[250.07424,234.6742],[-0.89778,0],[0.81555,0.00206]],[[251.48539,233.69725],[0.16086,1.14942],[-0.23402,-1.67221]],[[249.1987,228.61828],[0.26718,1.91365],[-0.43383,-3.10721]],[[248.47849,218.77709],[0.01427,3.14187],[0.00102,-1.46914]],[[247.65896,214.46294],[0.42015,1.4128],[-0.32307,-0.26161]],[[246.82129,213.53793],[0.23085,0.3524],[-1.75577,-0.2454]],[[242.00153,212.96707],[1.69438,1.75633],[-1.57849,-1.6362]],[[242.70259,207.88761],[-1.52519,1.52599],[-3.65716,-0.03318]],[[231.4986,207.1864],[3.72997,0.49909],[0.06603,0.15546]],[[231.45546,207.78857],[0.12266,-0.24599],[-0.3333,0.6684]],[[230.45029,208.12277],[0,0],[-1.27897,-0.6911]],[[229.13141,210.70695],[0.31923,-1.20729],[-0.85648,3.23909]],[[225.97732,220.3411],[0.90547,-3.24565],[-0.14662,0.51703]],[[225.37136,222.23856],[0.24014,-0.72995],[0.11274,-0.03271]],[[225.78499,222.24149],[-0.16443,-0.04092],[0.72818,0.18125]],[[226.33357,223.14773],[0,0],[-0.28876,1.13314]],[[227.48793,225.04295],[-1.39294,2.19375],[0,0]],[227.36149,224.89134],[[228.10913,224.14404],[-0.75,0],[0.75,0]],[228.86149,224.89134],[[228.73863,225.87201],[0,0],[-0.95872,1.39353]],[[224.69508,226.08315],[1.01336,2.16381],[-0.12958,-0.27668]],[[224.52803,225.02984],[-0.00641,0.40403],[-0.64063,2.46528]],[[224.91272,231.49625],[-1.3293,-1.3939],[1.37676,1.44367]],[[227.25419,228.96287],[-0.78881,0.33293],[0.42495,-0.17936]],[[228.62421,229.1769],[-0.45667,-0.07135],[0.33799,0.16812]],[[230.18423,229.60945],[-0.43221,0.30528],[0.54244,-0.38316]],[[230.55675,226.14209],[0.10208,0.61151],[-0.68933,-4.12904]],[[230.396,214.24802],[0.01307,4.13312],[0,0]],[[230.50642,213.62315],[0,0],[-0.00454,-0.0078]],[[230.49276,213.59974],[0.00456,0.00781],[0,0]],[[230.76861,212.58013],[-0.65,0.37077],[0.65001,-0.37076]],[[231.79278,212.85821],[0,0],[2.93122,5.14049]],[[234.54375,229.45089],[0.81575,-5.76824],[-0.83898,3.40065]],[[232.77099,239.38445],[-0.01108,-3.50163],[0,0]],[[232.77149,239.54405],[0,0],[0.39805,0.87238]],[[233.79212,242.3482],[-0.67442,-0.57204],[2.12962,1.80629]],[[240.96316,240.72203],[1.55857,4.91996],[-1.14539,-3.97951]],[[239.08318,229.00234],[-0.43108,4.22206],[0.13364,-1.30886]],[[240.20887,224.34766],[-1.05993,0.98499],[0.54322,-0.50482]],[[242.55548,223.22967],[-0.75467,0.36377],[0.07799,-0.08665]],[[242.89394,223.03464],[-0.15171,0.03536],[0.39377,-0.36866]],[[244.28747,222.20197],[-0.51119,0.18482],[0.07595,-0.06945]],[[245.33788,222.21165],[-0.48865,-0.48536],[0.532,0.52842]],[245.34122,223.26849],[[244.90425,223.57184],[0,0],[-0.38942,0.09536]],[[243.86088,224.17221],[0.28632,-0.28251],[0.03227,2.81294]],[[245.09472,232.01245],[-0.92057,-2.73402],[0,0]]],&quot;closed&quot;:true,&quot;fillColor&quot;:[0,0,0],&quot;strokeWidth&quot;:0.5}]}" fill="#9a8479" stroke-width="0.25"/><path d="M247.85931,211.92374c-0.24848,0.04955 -0.49468,0.18131 -0.58094,0.3139c-1.44276,-0.14366 -3.04185,0.78868 -4.26945,-0.32456c-0.62319,-0.56513 -0.08445,-1.52212 0.16004,-2.16435c0.58407,-1.53425 3.27158,-3.17626 4.93729,-3.14114c0,0 0.75706,-0.00457 0.7547,-0.75187c-0.0007,-0.2219 -0.06675,-0.37822 -0.16008,-0.4879c0.27739,-0.11207 0.59333,-0.17724 0.97771,-0.16913c4.72274,0 10.91131,5.92828 11.25822,10.60621c-1.23263,1.42224 -5.37094,2.8802 -6.84077,0.73989c-0.49326,-0.71826 -0.66208,-2.0309 -1.48967,-2.52885c-1.40647,-0.84626 -2.57538,-0.20865 -3.78188,-0.71928c-0.02404,-0.08214 -0.0498,-0.16741 -0.07362,-0.24956l-0.10394,-0.51425c0,0 -0.1518,-0.743 -0.88678,-0.59644z" data-paper-data="{&quot;noHover&quot;:false,&quot;origItem&quot;:[&quot;Path&quot;,{&quot;applyMatrix&quot;:true,&quot;segments&quot;:[[[247.80973,211.93006],[0,0],[0.73498,-0.14656]],[248.6941,212.51629],[[248.79505,213.02369],[0,0],[0.02382,0.08215]],[[248.86687,213.27013],[-0.02404,-0.08214],[1.2065,0.51063]],[[252.59205,213.96801],[-1.40647,-0.84626],[0.82759,0.49795]],[[254.07582,216.49904],[-0.49326,-0.71826],[1.46983,2.14031]],[[260.89175,215.78318],[-1.23263,1.42224],[-0.34691,-4.67793]],[[249.69492,205.24593],[4.72274,0],[-0.38438,-0.00811]],[[248.72383,205.41222],[0.27739,-0.11207],[0.09333,0.10968]],[[248.88449,205.89982],[-0.0007,-0.2219],[0.00236,0.7473]],[[248.13685,206.64712],[0,0],[-1.66571,-0.03512]],[[243.21805,209.75818],[0.58407,-1.53425],[-0.24449,0.64223]],[[243.05883,211.91027],[-0.62319,-0.56513],[1.2276,1.11324]],[[247.32757,212.22877],[-1.44276,-0.14366],[0.08626,-0.13259]],[[247.80971,211.93007],[-0.24848,0.04955],[0,0]]],&quot;closed&quot;:true,&quot;fillColor&quot;:[0,0,0],&quot;strokeWidth&quot;:0.5}]}" fill="#9a8479" stroke-width="0.25"/><path d="M282.15112,158.7341c0,0 -0.38936,-0.02295 -0.6084,0.15862c-0.3188,-0.87061 -0.64732,-1.74065 -1.02534,-2.56155c0.06819,-0.03702 0.10886,-0.0698 0.10886,-0.0698c3.96254,-3.18493 12.21615,-4.49342 16.65403,-1.84093c5.35155,3.1353 2.74884,10.04955 -0.32639,14.26575l-0.08908,-0.60402c-0.28104,-0.82433 -0.42819,-1.64028 -0.70731,-2.46798c-2.033,-4.04572 -4.6344,-7.0494 -9.4543,-7.66252c-1.71602,-0.21829 -3.0897,0.86143 -4.5521,0.78244z" data-paper-data="{&quot;noHover&quot;:false,&quot;origItem&quot;:[&quot;Path&quot;,{&quot;applyMatrix&quot;:true,&quot;segments&quot;:[[[282.10263,158.72181],[0,0],[1.4624,0.07899]],[[286.66359,157.92114],[-1.71602,-0.21829],[4.8199,0.61312]],[[296.19584,165.64626],[-2.033,-4.04572],[0.27912,0.8277]],[[296.89795,168.11959],[-0.28104,-0.82433],[0,0]],[[296.92197,168.64769],[0,0],[3.07523,-4.2162]],[[297.24382,154.45467],[5.35155,3.1353],[-4.43788,-2.65249]],[[280.67156,156.28249],[3.96254,-3.18493],[0,0]],[[280.56291,156.35183],[0.06819,-0.03702],[0.37802,0.8209]],[[281.59157,158.90339],[-0.3188,-0.87061],[0.21904,-0.18157]],[282.10265,158.72181]],&quot;closed&quot;:true,&quot;fillColor&quot;:[0,0,0],&quot;strokeWidth&quot;:0.5}]}" fill="#9a8479" stroke-width="0.25"/><path d="M181.72984,174.86241c-0.32417,0.4868 -0.62574,1.03307 -0.82307,1.51027c-2.75946,-3.83456 -4.66723,-8.39445 -0.02413,-12.22776c3.89931,-4.9661 10.60917,-3.37889 15.70896,-1.68937c-0.28688,0.96766 -0.45156,2.03039 -0.54618,3.11374c-5.09814,0.03383 -12.14742,4.88613 -14.38215,9.36776z" data-paper-data="{&quot;noHover&quot;:false,&quot;origItem&quot;:[&quot;Path&quot;,{&quot;applyMatrix&quot;:true,&quot;segments&quot;:[[[181.69656,174.89974],[0,0],[2.23473,-4.48163]],[[195.99818,165.58564],[-5.09814,0.03383],[0.09462,-1.08335]],[[196.54991,162.48315],[-0.28688,0.96766],[-5.09979,-1.68952]],[[180.92383,164.17328],[3.89931,-4.9661],[-4.6431,3.83331]],[[180.93858,176.33411],[-2.75946,-3.83456],[0.19733,-0.4772]],[[181.69656,174.89973],[-0.32417,0.4868],[0,0]]],&quot;closed&quot;:true,&quot;fillColor&quot;:[0,0,0],&quot;strokeWidth&quot;:0.5}]}" fill="#9a8479" stroke-width="0.25"/><path d="M237.11198,159.7504c-0.90771,2.0266 -2.49959,2.98524 -3.98116,4.51068c-0.3551,0.36562 -1.2485,1.68693 -0.9859,2.1689c1.35414,2.48535 6.32426,0.88838 8.45614,-0.62132c-0.2446,1.65963 0.82733,3.72531 2.26967,4.24531c1.3501,0.48675 2.6594,-0.18769 3.86159,-0.66754c2.5891,-1.03344 5.27843,-1.94849 7.77688,-3.20228c4.67588,-1.31525 8.81362,-5.80556 13.45965,-1.89326c0.76633,0.64531 1.47924,1.44718 2.12154,2.21169c3.77205,5.55902 2.56148,12.96582 -1.15524,18.16804c-4.1278,4.95741 -10.5005,7.52586 -16.26509,9.99337c-5.98735,2.99007 -13.75199,2.91586 -20.15739,1.49685c-5.91263,-0.71649 -12.92711,-2.65563 -17.22111,-6.92309c-4.85552,-4.12955 -8.67591,-10.62108 -5.11921,-16.85729c2.44396,-5.5428 9.72285,-9.90077 15.24347,-11.73496c3.63404,-1.55837 7.79809,-1.52852 11.67767,-0.99338z" data-paper-data="{&quot;noHover&quot;:false,&quot;origItem&quot;:[&quot;Path&quot;,{&quot;applyMatrix&quot;:true,&quot;segments&quot;:[[[237.10274,159.70127],[0,0],[-3.87958,-0.53514]],[[225.4485,160.68336],[3.63404,-1.55837],[-5.52062,1.83419]],[[210.22146,172.3899],[2.44396,-5.5428],[-3.5567,6.23621]],[[215.3374,189.21779],[-4.85552,-4.12955],[4.294,4.26746]],[[232.53319,196.11526],[-5.91263,-0.71649],[6.4054,1.41901]],[[252.64046,194.62371],[-5.98735,2.99007],[5.76459,-2.46751]],[[268.8864,184.65953],[-4.1278,4.95741],[3.71672,-5.20222]],[[270.04392,166.52104],[3.77205,5.55902],[-0.6423,-0.76451]],[[267.92428,164.31356],[0.76633,0.64531],[-4.64603,-3.9123]],[[254.47137,166.21685],[4.67588,-1.31525],[-2.49845,1.25379]],[[246.70375,169.42747],[2.5891,-1.03344],[-1.20219,0.47985]],[[242.85725,170.10212],[1.3501,0.48675],[-1.44234,-0.52]],[[240.601,165.85866],[-0.2446,1.65963],[-2.13188,1.5097]],[[232.17403,166.47063],[1.35414,2.48535],[-0.2626,-0.48197]],[[233.10726,164.21698],[-0.3551,0.36562],[1.48157,-1.52544]],[[237.10274,159.70126],[-0.90771,2.0266],[0,0]]],&quot;closed&quot;:true,&quot;fillColor&quot;:[0,0,0,1]}]}" fill="#e6e7e8" stroke-width="0.5"/><path d="M238.69063,159.24571c-0.0278,0.14073 -0.0774,0.24902 -0.13942,0.33216c0.11388,0.28912 -0.01485,0.59064 -0.01485,0.59064c-0.73605,1.71735 -1.84587,2.81434 -3.14603,4.10893c-0.37176,0.37017 -0.84013,0.63354 -1.21907,0.9964c-0.2108,0.20185 -0.88062,0.50508 -0.61322,0.62484c1.86122,0.83355 5.39993,-0.13572 6.61465,-1.63167c3.56744,-2.66835 0.81337,3.60798 3.16689,4.42142c0.96184,0.33244 1.98446,-0.32213 2.81597,-0.65388c2.59218,-1.03422 5.26057,-1.96632 7.76761,-3.21063c5.33206,-1.53707 9.64394,-6.12106 14.98032,-1.63947c0.84932,0.71327 1.62977,1.59641 2.33951,2.44237c4.1229,6.17596 2.97463,14.13862 -1.16642,19.94611c-4.29714,5.15467 -10.79389,7.84087 -16.80071,10.40664c-6.25655,3.1194 -14.29331,3.08925 -20.99403,1.60836c-6.21028,-0.79212 -13.44543,-2.79166 -17.96015,-7.27353c-5.34447,-4.56002 -9.3285,-11.7827 -5.4406,-18.59963c2.61123,-5.87108 10.15846,-10.47492 16.02993,-12.42846c3.93058,-1.67614 8.40672,-1.63259 12.59154,-1.03767l0.59695,0.1177c0,0 0.73589,0.14656 0.59113,0.87934zM237.10274,159.70127c-3.87958,-0.53514 -8.0202,-0.57628 -11.65424,0.98209c-5.52062,1.83419 -12.78308,6.16374 -15.22704,11.70654c-3.5567,6.23621 0.26042,12.69834 5.11594,16.82789c4.294,4.26746 11.28316,6.18098 17.19579,6.89747c6.4054,1.41901 14.11992,1.49852 20.10727,-1.49155c5.76459,-2.46751 12.11814,-5.00677 16.24594,-9.96418c3.71672,-5.20222 4.92957,-12.57947 1.15752,-18.13849c-0.6423,-0.76451 -1.35331,-1.56217 -2.11964,-2.20748c-4.64603,-3.9123 -8.77703,0.58804 -13.45291,1.90329c-2.49845,1.25379 -5.17852,2.17718 -7.76762,3.21062c-1.20219,0.47985 -2.4964,1.1614 -3.8465,0.67465c-1.44234,-0.52 -2.50085,-2.58383 -2.25625,-4.24346c-2.13188,1.5097 -7.07283,3.09732 -8.42697,0.61197c-0.2626,-0.48197 0.57813,-1.88803 0.93323,-2.25365c1.48157,-1.52544 3.08777,-2.48912 3.99548,-4.51572z" fill="#000000" stroke-width="0.5"/><path d="M229.81806,193.83828c-0.00038,-0.12111 0.01899,-0.2226 0.05174,-0.30763c-0.08749,-0.23178 -0.03632,-0.46452 -0.03632,-0.46452c0.37483,-1.70428 0.33206,-3.50113 1.04887,-5.11859c1.26536,-2.85526 6.00908,-6.30163 9.13679,-6.34565c3.196,0 12.04626,1.75859 11.16597,6.26932c-0.33638,1.72361 -2.28548,2.9381 -3.29936,4.29548c-0.69163,0.82952 -1.21012,2.13471 -2.07008,2.77916c-3.68302,2.76006 -10.87028,0.13943 -14.93013,-0.36604l-0.31511,0.00577c0,0 -0.75,0 -0.75236,-0.7473z" fill="#000000" stroke-width="0.5"/><path d="M229.22421,176.8467c-0.24145,0.4484 -0.79472,0.33822 -0.79472,0.33822c-1.60896,-0.32047 -3.14189,-0.73543 -4.71995,-1.12322l-0.89766,-0.19862c-0.34342,-0.06858 -0.6029,-0.37055 -0.60405,-0.73269c-0.00103,-0.32652 0.20826,-0.60412 0.50083,-0.70584l0.79898,-0.29889l0.0935,0.24635c2.83984,-1.148 5.94425,0.38873 9.00519,0.94294l0.02146,0.01498l0.00235,-0.00946l0.80173,0.19956c0.33423,0.07552 0.5845,0.37314 0.58563,0.72878c0.00123,0.3879 -0.29437,0.70678 -0.67382,0.74372l-0.90905,0.10068l-0.02701,-0.23552c-1.07618,0.22073 -2.08933,0.13284 -3.1834,-0.01096z" fill="#000000" stroke-width="0.5"/><path d="M257.34401,178.99949c-0.36122,-0.01592 -0.72345,-0.04003 -1.09067,-0.0763l-0.00873,-0.0049l-0.00046,0.00382l-0.80677,-0.10045c-0.37521,-0.04122 -0.66797,-0.35805 -0.66919,-0.74276c-0.0012,-0.37807 0.27958,-0.69055 0.64513,-0.74037l1.31438,-0.20158l0.03489,0.22145c1.53609,-0.38653 3.05658,-0.34683 4.79232,0.08361l0.87214,0.09652c0.37968,0.03695 0.6773,0.35582 0.67852,0.74372c0.00114,0.36015 -0.25359,0.66078 -0.59374,0.73154l-1.31089,0.30164l-0.04773,-0.20334c-0.9437,0.28178 -1.82175,0.28103 -3.17341,0.11502l-0.45069,-0.13425c0,0 -0.08417,-0.02793 -0.18511,-0.09338z" fill="#000000" stroke-width="0.5"/><path d="M228.33263,168.31043c0.41405,-0.62179 1.0394,-0.20726 1.0394,-0.20726l0.76738,0.54215c1.99264,2.30799 0.6963,3.0649 -1.88628,3.06376c-3.40683,-0.00151 -6.82592,-0.82701 -10.20665,-0.81339c0,0 -0.75,0 -0.75236,-0.7473c-0.00236,-0.7473 0.74764,-0.7473 0.74764,-0.7473c2.68672,0.00919 5.55954,0.41665 8.24937,0.7164c0.64932,0.07236 1.30416,0.09729 1.9573,0.09699c0.27969,-0.00013 0.8255,0.00055 1.24489,0.02114c-0.23841,-0.20752 -0.42723,-0.54529 -0.48968,-0.61763l-0.45969,-0.27124c0,0 -0.62534,-0.41452 -0.21129,-1.03631z" fill="#000000" stroke-width="0.5"/><path d="M217.86983,179.56842c0.75,0 0.75236,0.7473 0.75236,0.7473l-0.07748,0.53755c-1.85837,3.47433 -5.19422,0.86301 -4.14503,-2.40064c0,0 0.23493,-0.70895 0.94718,-0.47263c0.71226,0.23632 0.47733,0.94527 0.47733,0.94527c-0.50236,1.45966 0.51319,3.21384 1.37676,1.2596l-0.07877,0.13086c0,0 -0.00236,-0.7473 0.74764,-0.7473z" fill="#000000" stroke-width="0.5"/></g></g></svg>