<svg version="1.1" xmlns="http://www.w3.org/2000/svg" xmlns:xlink="http://www.w3.org/1999/xlink" width="168.6487" height="118.66758" viewBox="0,0,168.6487,118.66758"><g transform="translate(-204.8768,-102.76538)"><g stroke-miterlimit="10"><path d="M253.82088,174.7478c-0.07221,6.06691 1.57628,17.72343 1.22902,21.63868c-0.02414,5.74886 -8.14447,8.60511 -10.77442,-0.10307c-0.63809,-5.54359 3.25646,-23.90363 3.25646,-23.90363c1.36085,-3.83146 5.35321,-3.53422 6.28894,2.36802z" fill="#ffab19" fill-rule="evenodd" stroke="#231f20" stroke-width="1.2" stroke-linecap="round" stroke-linejoin="round"></path><path d="M249.1727,183.05823c0,0 -0.19614,25.78013 0.5,25.5c4.73663,-1.90602 7.79455,4.22424 5.29392,6.83424c-2.50063,2.61 -9.15826,2.5055 -9.15826,2.5055c0,0 -6.96938,0.51644 -8.42844,-2.08219c-1.19287,-2.12455 -0.38923,-5.77465 2.29278,-6.00755c1.94705,-0.16908 0.75,-26.75 0.75,-26.75z" fill="#ffab19" fill-rule="nonzero" stroke="#001026" stroke-width="1.2" stroke-linecap="round" stroke-linejoin="miter"></path><g fill-rule="evenodd"><path d="M231.69749,184.44197c0.77926,-0.43905 2.47661,-1.34402 3.95073,2.54789c1.47413,3.89191 -1.80798,10.00156 -2.25577,10.6645c-1.65231,2.62485 -3.7793,5.7738 -7.29033,8.4706c-10.14345,7.87086 -21.05504,0.62119 -20.61228,-3.78607c0.38678,-4.3244 8.05058,-1.19928 15.18961,-3.01428c3.16645,-0.7574 5.45261,-2.71277 7.21031,-4.42171c2.40031,-2.48165 2.88962,-9.995 3.80772,-10.46093z" fill="#ffab19" stroke="#001026" stroke-width="1.2" stroke-linecap="round" stroke-linejoin="round"></path><path d="M211.10383,200.45918c3.13299,0.18542 8.01712,-0.25648 8.01712,-0.25648c0,0 -2.81682,2.56233 -2.58352,5.25408c0.12572,2.13639 2.17269,3.03633 2.86471,3.26242c-1.80493,0.34962 -4.19212,0.66797 -7.65221,-0.46243c-3.46008,-1.1304 -6.38076,-4.30997 -5.7585,-6.30315c0.788,-1.88125 2.31088,-1.45598 5.1124,-1.49446z" fill="#ffffff" stroke="none" stroke-width="1" stroke-linecap="butt" stroke-linejoin="miter"></path></g><g fill-rule="evenodd"><path d="M239.26354,189.98671c-11.64506,-2.35211 -7.75266,-9.0386 -8.0928,-14.53535c-0.12787,-4.80038 1.23026,-4.72615 6.91984,-6.97753c3.12633,-1.42692 4.96854,-2.26134 6.76141,-3.54025c2.71647,-1.87638 4.81984,2.47974 5.42207,5.06766c0,0 0.83419,3.86706 0.77467,6.16846c-0.09415,2.80021 -0.28698,4.71144 -0.80569,6.1189c0,0 -0.59925,2.77392 -1.51507,4.33442c-1.52722,2.71805 -9.46441,3.36369 -9.46441,3.36369z" fill="#ffab19" stroke="#001026" stroke-width="1.2" stroke-linecap="round" stroke-linejoin="round"></path><path d="M249.43305,182.69347c0,0 -1.91124,-0.19282 -4.06938,-0.58322c-2.65695,-0.42503 -5.15094,-0.59816 -5.15546,-4.28733c0.20776,-2.9928 -0.10297,-6.60298 5.25053,-6.61226c5.07694,-0.06857 4.83953,3.06251 4.83953,3.06251c0.59701,4.97329 -0.86522,8.4203 -0.86522,8.4203z" fill="#ffffff" stroke="none" stroke-width="1" stroke-linecap="butt" stroke-linejoin="miter"></path></g><path d="M239.92267,189.80823c0,0 -0.44613,19.03013 0.25,18.75c4.73663,-1.90602 7.79455,4.22424 5.29392,6.83424c-2.50063,2.61 -9.15826,2.5055 -9.15826,2.5055c0,0 -6.96939,0.51644 -8.42844,-2.08219c-1.19286,-2.12455 -0.38922,-5.77464 2.29279,-6.00755c1.94705,-0.16908 0.75,-26.75 0.75,-26.75" fill="#ffab19" fill-rule="nonzero" stroke="#001026" stroke-width="1.2" stroke-linecap="round" stroke-linejoin="miter"></path><path d="M235.57088,175.4978c-0.07221,6.06691 1.57628,17.72343 1.22902,21.63868c-0.02414,5.74886 -8.14447,8.60511 -10.77442,-0.10307c-0.63809,-5.54359 3.25646,-23.90363 3.25646,-23.90363c1.36085,-3.83146 5.35321,-3.53422 6.28894,2.36802z" fill="#ffab19" fill-rule="evenodd" stroke="#231f20" stroke-width="1.2" stroke-linecap="round" stroke-linejoin="round"></path><g fill-rule="evenodd"><path d="M287.48786,145.51692c-4.84875,3.60828 -12.04695,3.41918 -12.04695,3.41918" fill="none" stroke="#001026" stroke-width="1.2" stroke-linecap="round" stroke-linejoin="round"></path><path d="M285.73931,156.65571c-6.31499,0.24671 -10.13557,-1.8083 -10.13557,-1.8083" fill="none" stroke="#001026" stroke-width="1.2" stroke-linecap="round" stroke-linejoin="round"></path><path d="M255.5389,113.70883c0.30778,-0.1878 0.80337,-0.06781 0.88723,0.33588l2.1684,10.79574c0,0 6.20618,4.95311 7.97219,8.32671c2.97665,5.62402 2.89594,10.12441 2.89594,10.12441c0,0 7.00999,2.38332 7.9802,8.12689c0.97023,5.74358 -3.85974,16.35825 -22.79313,19.30061c-18.93337,2.94238 -33.81649,-2.75964 -40.45316,-14.43545c-6.63667,-11.67581 5.10022,-24.81527 4.46859,-24.04l-1.37978,-17.96987c-0.08387,-0.4037 0.42778,-0.68339 0.81943,-0.46749l11.77314,8.37933c0,0 4.56461,-1.518 9.26886,-1.52918c2.80577,-0.08745 5.19581,0.20871 7.4779,0.70073z" fill="#ffab19" stroke="none" stroke-width="0" stroke-linecap="butt" stroke-linejoin="miter"></path><path d="M255.5389,113.70883c0.30778,-0.1878 0.80337,-0.06781 0.88723,0.33588l2.1684,10.79574c0,0 6.20618,4.95311 7.97219,8.32671c2.97665,5.62402 2.89594,10.12441 2.89594,10.12441c0,0 7.00999,2.38332 7.9802,8.12689c0.97023,5.74358 -3.85974,16.35825 -22.79313,19.30061c-18.93337,2.94238 -33.81649,-2.75964 -40.45316,-14.43545c-6.63667,-11.67581 5.10022,-24.81527 4.46859,-24.04l-1.37978,-17.96987c-0.08387,-0.4037 0.42778,-0.68339 0.81943,-0.46749l11.77314,8.37933c0,0 4.56461,-1.518 9.26886,-1.52918c2.80577,-0.08745 5.19581,0.20871 7.4779,0.70073z" fill="none" stroke="#001026" stroke-width="1.2" stroke-linecap="butt" stroke-linejoin="miter"></path><path d="M269.1468,143.67922c0,0 6.82219,2.07553 7.79241,7.8191c0.97023,5.74358 -4.23935,15.84259 -22.96887,18.69307c-24.38118,4.02457 -35.29389,-10.82545 -28.17381,-21.14796c7.1241,-10.42243 18.24956,-0.86815 26.66688,-1.13048c7.21427,-0.21058 8.2665,-6.4734 16.68339,-4.23372z" fill="#ffffff" stroke="none" stroke-width="1" stroke-linecap="butt" stroke-linejoin="miter"></path><path d="M252.16816,145.29898c2.0983,0.08429 4.2885,0.37246 4.36033,1.07589c0.04372,1.40289 -1.56746,4.14042 -3.17019,4.1761c-1.80658,0.12759 -5.90284,-2.53899 -5.83861,-4.1377c-0.05175,-1.20306 2.65009,-1.19458 4.64848,-1.11431z" fill="#001026" stroke="#001026" stroke-width="1.2" stroke-linecap="round" stroke-linejoin="round"></path><path d="M207.26463,141.99387c0,0 8.48067,3.14296 11.85341,6.38096" fill="none" stroke="#001026" stroke-width="1.2" stroke-linecap="round" stroke-linejoin="round"></path><path d="M219.27732,151.88402c-4.36477,1.52602 -11.71465,0.12986 -11.71465,0.12986" fill="none" stroke="#001026" stroke-width="1.2" stroke-linecap="round" stroke-linejoin="round"></path><path d="M264.42827,134.08209c2.71703,4.61278 2.61224,9.7127 -0.25778,11.39884c-2.87,1.68615 -7.382,-0.59679 -10.19895,-5.2136c-2.71703,-4.61278 -2.61224,-9.7127 0.25778,-11.39884c2.874,-1.78609 7.48191,0.6008 10.19895,5.2136z" fill="#ffffff" stroke="#000000" stroke-width="1.2" stroke-linecap="round" stroke-linejoin="round"></path><path d="M239.53588,135.88431c2.82096,4.51687 2.40437,9.90449 -0.36972,11.69458c-3.37361,1.76601 -7.71386,0.19052 -10.53483,-4.32634c-2.92088,-4.52089 -2.89193,-10.22432 0.29389,-12.29811c3.18982,-2.17371 7.7897,0.41302 10.61066,4.92989z" fill="#ffffff" stroke="#000000" stroke-width="1.2" stroke-linecap="round" stroke-linejoin="round"></path><path d="M240.9401,141.76817c0.01098,1.09994 -0.78001,2.00789 -1.77996,2.01786c-0.99995,0.00998 -1.80889,-0.88199 -1.81986,-1.98195c-0.01098,-1.09994 0.78001,-2.00789 1.77996,-2.01786c1.00094,0.09002 1.80889,0.88199 1.81986,1.98195" fill="#001026" stroke="none" stroke-width="1" stroke-linecap="butt" stroke-linejoin="miter"></path><path d="M266.12345,139.93558c0.01098,1.09994 -0.78001,2.00789 -1.77996,2.01786c-0.99995,0.00998 -1.80889,-0.88199 -1.81986,-1.98195c-0.01098,-1.09994 0.78001,-2.00789 1.77996,-2.01786c1.00094,0.09002 1.80889,0.88199 1.81986,1.98195" fill="#001026" stroke="none" stroke-width="1" stroke-linecap="butt" stroke-linejoin="miter"></path><path d="M238.37619,156.45778c-0.01198,-0.39982 0.37886,-0.71166 0.78168,-0.62369c1.92011,0.64279 7.3656,2.08038 13.37488,2.30054c5.40656,0.13817 8.59614,-0.25751 10.08649,-0.60229c0.49678,-0.11493 0.91157,0.37287 0.72664,0.87864c-0.81875,2.72574 -4.39247,10.33616 -14.90573,10.05083c-9.12586,-0.72707 -10.2171,-7.09725 -10.06395,-12.00404z" fill="#ffffff" stroke="#001026" stroke-width="1.2" stroke-linecap="round" stroke-linejoin="round"></path></g><path d="" fill="#ffffff" fill-rule="nonzero" stroke="none" stroke-width="0" stroke-linecap="butt" stroke-linejoin="miter"></path><g fill-rule="nonzero" stroke-linejoin="miter"><g><path d="M312.80822,199.32381c-20.76469,-3.39593 -5.80122,-19.89127 0.2171,-11.56769c6.62446,9.1619 17.15118,-6.47006 17.15118,-6.47006c0,0 -3.82722,20.2523 -17.36828,18.03775z" fill="#ffab19" stroke="none" stroke-width="0" stroke-linecap="round"></path><path d="M313.24243,187.75613c0.41884,0.57927 0.85327,1.05942 1.29966,1.45068c-0.14918,0.04521 -0.29946,0.08885 -0.45024,0.13183c-3.38566,0.21015 -6.05991,2.75697 -6.05991,5.86786c0,1.17691 0.38275,2.27309 1.04198,3.19255c-14.70178,-4.72106 -1.41584,-18.36631 4.16851,-10.64293z" fill="#ffffff" stroke="none" stroke-width="0" stroke-linecap="butt"></path><path d="M330.1765,181.28605c0,0 -3.82722,20.25231 -17.36828,18.03776c-20.76469,-3.39593 -5.80122,-19.89128 0.2171,-11.56769c6.62446,9.1619 17.15118,-6.47006 17.15118,-6.47006z" fill="none" stroke="#000000" stroke-width="1.2" stroke-linecap="round"></path></g><path d="M330.69685,177.77177c0.13533,-6.64843 1.66523,-13.32593 3.36228,-13.52771c2.96621,-0.35268 2.87225,7.25408 3.68505,13.17446c0.8128,5.92038 4.48216,14.42861 1.2223,18.84296c-3.22882,4.37231 -7.8947,-0.3507 -8.66923,-5.9923c-0.3314,-2.41388 0.29838,-7.52531 0.39959,-12.49741z" fill="#ffab19" stroke="#000000" stroke-width="1.2" stroke-linecap="butt"></path><path d="M336.63734,173.99003l0.24988,25.48768c0,0 7.53279,-0.51948 9.87023,1.2494c2.33744,1.76888 3.08385,5.41512 -0.6247,5.74722c-8.04621,0.72054 -15.58507,-1.30816 -16.49203,-1.62422c-0.90696,-0.31606 0,-4.12301 0,-4.12301l0.24988,-20.73998" fill="#ffab19" stroke="#000000" stroke-width="1.2" stroke-linecap="round"></path><g><path d="M335.38416,166.33087c1.52496,3.98015 1.853,8.18462 1.18692,11.30704c-0.71524,3.35293 -12.27101,4.78512 -12.74384,-1.2494c-0.3757,-4.79498 0.37832,-6.56862 0.93705,-9.37048c1.38432,-6.94201 8.59222,-5.97934 10.61987,-0.68716z" fill="#ffab19" stroke="#000000" stroke-width="1.2" stroke-linecap="round"></path><path d="M336.26252,173.24959c0,2.69109 -2.34937,4.87264 -5.24746,4.87264c-2.89809,0 -4.7477,-2.18156 -4.7477,-4.87264c0,-2.69109 0.85586,-9.12059 4.99759,-9.12059c4.14172,0 4.99759,6.42951 4.99759,9.12059z" fill="#ffffff" stroke="none" stroke-width="0" stroke-linecap="butt"></path></g><path d="M331.45235,180.74597l-0.0205,22.03134c0,0 7.72242,6.22871 9.3285,12.32705c1.63267,6.19929 -8.35063,7.62847 -12.24408,2.99855c-4.68648,-5.57296 -5.26413,-13.72339 -5.49734,-14.49299c-0.23321,-0.7696 0.49976,-1.99904 0.49976,-1.99904l0.24988,-26.29979" fill="#ffab19" stroke="#000000" stroke-width="1.2" stroke-linecap="round"></path><path d="M320.18382,177.96523c0.97485,-7.16781 3.25054,-14.18784 4.85479,-14.18784c2.80399,0 1.74525,8.20883 1.74525,14.71164c0,6.50281 2.32652,16.16947 -1.26927,20.52133c-3.56154,4.31042 -7.2983,-1.39347 -7.2983,-7.59008c0,-2.65135 1.23848,-8.09453 1.96754,-13.45505z" fill="#ffab19" stroke="#000000" stroke-width="1.2" stroke-linecap="butt"></path><g><g fill="none" stroke="#001026" stroke-width="1.2" stroke-linecap="round"><path d="M372.26329,143.21855c-5.78359,1.17748 -8.28954,0.52832 -8.28954,0.52832"></path><path d="M372.9255,149.18123c-5.17535,2.59613 -9.29105,-0.79375 -9.29105,-0.79375"></path></g><path d="M306.66292,143.81703c-3.47067,-17.31981 7.26499,-29.32461 23.79888,-32.14502c11.72704,-2.00043 29.0833,7.17339 28.31919,21.70431c-0.04784,0.90965 0.28463,1.01017 0.9336,1.6814c16.03119,8.47786 6.59264,26.25301 -6.19763,27.68272c-26.31972,2.94205 -44.52263,-7.28881 -46.85406,-18.92341z" fill="#ffab19" stroke="#001026" stroke-width="1.2" stroke-linecap="butt"></path><path d="M312.94359,120.36664c0,0 -0.94419,-17.32384 0.74372,-17.60126c1.30647,-0.21473 15.37011,9.9162 15.37011,9.9162" fill="#ffab19" stroke="#001026" stroke-width="1.2" stroke-linecap="round"></path><path d="M342.61636,113.25385c0,0 15.02081,-5.28393 15.86592,-4.7102c1.22496,0.8316 -3.47067,13.63478 -3.47067,13.63478" fill="#ffab19" stroke="#001026" stroke-width="1.2" stroke-linecap="round"></path><path d="M340.14884,136.60434c0,0 18.39543,-3.7162 22.86769,1.60069c9.42194,11.20135 0.18779,22.70731 -11.54321,24.19568c-21.54357,2.73333 -44.86278,-9.56157 -41.17446,-19.82127c5.70182,-15.86062 29.84999,-5.97511 29.84999,-5.97511z" fill="#ffffff" stroke="none" stroke-width="0" stroke-linecap="butt"></path><path d="M353.71354,151.71935c-2.9506,4.43755 -11.82724,6.06477 -20.24873,4.04778c-8.42149,-2.01699 -10.29823,-6.92596 -9.42039,-11.48627c0.11179,-0.58068 10.26139,4.36268 14.8743,5.45391c4.93052,1.16636 15.07707,1.56011 14.79482,1.98458z" fill="#ffffff" stroke="#001026" stroke-width="1.2" stroke-linecap="round"></path><path d="M346.82036,136.70531c-0.24791,0.72912 -1.5561,3.63192 -3.71858,3.96648c-1.02099,0.15796 -6.19763,-2.74155 -6.19763,-3.96648c0,-2.46445 10.70953,-2.33327 9.9162,0z" fill="#001026" stroke="#001026" stroke-width="1.2" stroke-linecap="butt"></path><path d="M352.83855,123.23619c4.01475,-0.1147 4.21439,6.4897 4.21439,9.29644c0,2.80674 -1.61301,4.09043 -4.21439,4.09043c-2.60138,0 -4.46229,-1.03579 -4.46229,-3.84253c0,-2.80674 0.44754,-9.42964 4.46229,-9.54434z" fill="#ffffff" stroke="#001026" stroke-width="1.2" stroke-linecap="butt"></path><path d="M329.3584,121.71334c4.77121,0.13632 5.63098,6.65028 5.63098,10.65992c0,4.00964 -2.65845,5.48933 -6.3747,5.48933c-3.71625,0 -6.02055,-1.83383 -6.02055,-5.84347c0,-4.00963 1.99306,-10.4421 6.76427,-10.30578z" fill="#ffffff" stroke="#001026" stroke-width="1.2" stroke-linecap="butt"></path><g fill="none" stroke="#001026" stroke-width="1.2" stroke-linecap="round"><path d="M307.9656,144.57086c0,0 -3.35683,-0.56446 -4.84623,-0.98736c-1.57228,-0.44643 -4.35229,-1.62446 -4.35229,-1.62446"></path><path d="M299.67495,135.23976c7.15859,0.62663 9.37369,5.09077 9.37369,5.09077"></path></g><path d="M354.36652,128.65212c1.04968,0 1.90061,1.66486 1.90061,3.71858c0,2.05371 -0.85094,3.71858 -1.90061,3.71858c-1.04968,0 -1.90061,-1.66486 -1.90061,-3.71858c0,-2.05371 0.85094,-3.71858 1.90061,-3.71858z" fill="#001026" stroke="#001026" stroke-width="1.2" stroke-linecap="butt"></path><path d="M331.64189,128.98267c1.09531,0 1.98324,1.59087 1.98324,3.5533c0,1.96245 -0.88793,3.55331 -1.98324,3.55331c-1.09531,0 -1.98324,-1.59088 -1.98324,-3.55331c0,-1.96244 0.88793,-3.5533 1.98324,-3.5533z" fill="#001026" stroke="#001026" stroke-width="1.2" stroke-linecap="butt"></path></g></g></g></g></svg>