<svg version="1.1" xmlns="http://www.w3.org/2000/svg" xmlns:xlink="http://www.w3.org/1999/xlink" width="101.93525" height="112.5902" viewBox="0,0,101.93525,112.5902"><defs><radialGradient cx="276.48371" cy="191.0597" r="7.45549" gradientUnits="userSpaceOnUse" id="color-1"><stop offset="0" stop-color="#54606d"/><stop offset="1" stop-color="#2c3136"/></radialGradient></defs><g transform="translate(-181.38058,-125.71932)"><g data-paper-data="{&quot;isPaintingLayer&quot;:true}" stroke-miterlimit="10" stroke-dasharray="" stroke-dashoffset="0" style="mix-blend-mode: normal"><path d="M238.25243,201.32615c0.19642,0.71525 0.58894,2.04363 1.0124,3.81456c0.80418,3.36304 1.72006,8.32198 1.61677,13.7084l-0.0335,0.40792c-0.0335,0.40792 0.38187,0.75462 0.83076,0.69337c2.85525,-0.83762 8.46858,-2.23073 8.31991,3.48119c-0.0839,5.52382 -16.83013,10.36258 -19.02305,5.23895c-0.72909,-2.23099 0.49364,-3.6078 1.16924,-4.32737c0.35398,-0.40681 0.5159,-0.87707 0.58181,-1.37902c0.00449,-1.25547 -0.05127,-3.5783 -0.36498,-5.46258c-0.7201,-4.74192 -1.2605,-5.96787 -2.05325,-8.3246c-0.79275,-2.35675 -2.85611,-7.85657 1.41506,-10.32143c3.6291,-2.15322 5.92705,0.49118 6.52885,2.47064z" fill="#ffab19" fill-rule="evenodd" stroke="#001026" stroke-width="1.2" stroke-linecap="round" stroke-linejoin="round"/><g fill-rule="evenodd"><path d="M224.67421,200.58891c0.84409,0.32875 2.64233,1.07681 0.5288,4.63894c-2.11352,3.56212 -9.01602,4.83004 -9.8237,4.89679c-3.12064,0.35756 -6.95711,0.67464 -11.32485,-0.35919c-12.68117,-2.93712 -13.97463,-15.88181 -10.22837,-18.28368c3.6453,-2.39353 6.09895,5.47374 12.09777,9.85983c2.6233,1.97505 5.62395,2.52409 8.09249,2.81821c3.48724,0.30956 9.70371,-3.9902 10.65785,-3.5709z" fill="#ffab19" stroke="#001026" stroke-width="1.2" stroke-linecap="round" stroke-linejoin="round"/><path d="M198.89889,194.64918c1.86113,2.53619 5.33678,6.0349 5.33678,6.0349c0,0 -3.81743,-0.58116 -5.78284,1.275c-1.59797,1.42727 -0.99386,3.56921 -0.72824,4.24467c-1.4308,-1.17694 -3.21002,-2.82323 -4.53821,-6.20053c-1.3282,-3.37729 -0.70092,-7.61362 1.26366,-8.37378c1.98278,-0.5624 2.62412,0.87905 4.44884,3.01974z" fill="#ffffff" stroke="none" stroke-width="1" stroke-linecap="butt" stroke-linejoin="miter"/></g><path d="M244.11705,192.63398c0.43209,0.47416 5.31159,8.52945 7.61411,7.09867c2.75287,-1.65822 6.74286,-5.12489 9.78287,-1.29987c3.04001,3.82502 -4.7007,8.18077 -7.85186,9.16909c-7.41841,1.89257 -12.01787,-4.80776 -12.94675,-6.57211c-0.92889,-1.76434 -2.57135,-4.75405 -2.13226,-7.29856c0.5728,-2.72369 4.0885,-2.8464 5.53391,-1.09723z" fill="#ffab19" fill-rule="evenodd" stroke="#001026" stroke-width="1.2" stroke-linecap="round" stroke-linejoin="round"/><path d="M221.92672,207.73747c0.23815,-2.05212 2.02711,-5.05015 5.98545,-3.55343c4.64627,1.6933 3.59941,7.46223 3.24083,9.91859c-0.35857,2.45637 0.13815,3.80362 0.27807,8.59572c0.02846,1.90898 -0.41991,4.15791 -0.19073,5.39315c0.08614,0.2688 0.36249,10.50682 -8.29885,9.55564c-7.64702,-0.83978 -0.66866,-12.21855 -0.66866,-12.21855c0,0 -0.84966,-10.31277 -0.65996,-13.76181c0.09989,-1.81622 0.24852,-3.19142 0.31386,-3.92931z" data-paper-data="{&quot;index&quot;:null}" fill="#ffab19" fill-rule="evenodd" stroke="#001026" stroke-width="1.2" stroke-linecap="round" stroke-linejoin="round"/><g fill-rule="evenodd"><path d="M227.14694,207.80581c-11.0635,-4.65132 -5.81512,-10.35643 -5.01211,-15.76572c0.86911,-4.68962 2.2009,-4.34155 8.31187,-5.37271c3.39725,-0.75101 5.39779,-1.18735 7.44159,-2.06552c3.08394,-1.27096 4.26664,3.38848 4.32709,6.02505c0,0 0.02518,3.92641 -0.51132,6.15016c-0.67436,2.70131 -1.26216,4.51892 -2.06871,5.78089c0,0 -1.73289,2.71269 -3.91273,3.6287c-1.95944,0.82339 -8.57568,1.61917 -8.57568,1.61917z" fill="#ffab19" stroke="#001026" stroke-width="1.2" stroke-linecap="round" stroke-linejoin="round"/><path d="M238.74786,202.7867c0,0 -1.85587,-0.57568 -3.91568,-1.39348c-2.54741,-0.9528 -4.98545,-1.62776 -4.22454,-5.21276c0.82702,-2.86533 1.26779,-6.43581 6.5802,-5.35703c5.05037,0.96499 4.16525,3.95863 4.16525,3.95863c-0.4396,4.95293 -2.60523,8.00463 -2.60523,8.00463z" fill="#ffffff" stroke="none" stroke-width="1" stroke-linecap="butt" stroke-linejoin="miter"/></g><g fill-rule="evenodd"><path d="M247.28621,130.89493c0.29142,-0.21647 0.80329,-0.14797 0.92862,0.24217l3.27671,10.44072c0,0 6.75855,4.26468 8.88005,7.41758c3.56957,5.25281 3.94258,9.7045 3.94258,9.7045c0,0 7.30965,1.64627 8.86797,7.21945c1.55834,5.5732 -2.24052,16.54091 -21.03617,21.35552c-18.79566,4.81461 -34.37979,0.68554 -42.25127,-10.17353c-7.87147,-10.85906 2.63751,-25.01623 2.07884,-24.18705c0,0 -2.01071,-15.72935 -1.59395,-15.5557l11.88555,4.4939c0,0 4.44976,-1.95916 9.19249,-2.44461c2.82056,-0.36929 5.26062,-0.31789 7.6116,-0.06226z" fill="#ffab19" stroke="#001026" stroke-width="1.2" stroke-linecap="butt" stroke-linejoin="miter"/><path d="M264.03486,159.11448c0,0 7.08919,1.36129 8.64753,6.9345c1.55834,5.5732 -2.67538,16.07004 -21.27474,20.77337c-24.18006,6.43254 -36.68409,-7.12941 -30.54634,-18.03961c6.1317,-11.00926 18.31553,-2.69762 26.77721,-3.8055c7.25373,-0.93547 7.68247,-7.2253 16.39635,-5.86275z" fill="#ffffff" stroke="none" stroke-width="1" stroke-linecap="butt" stroke-linejoin="miter"/><path d="M282.71583,159.07932c-4.52523,4.05169 -11.80313,4.59091 -11.80313,4.59091" fill="none" stroke="#001026" stroke-width="1.2" stroke-linecap="round" stroke-linejoin="round"/><path d="M282.07729,170.25378c-6.34325,0.88045 -10.40349,-0.76332 -10.40349,-0.76332" fill="none" stroke="#001026" stroke-width="1.2" stroke-linecap="round" stroke-linejoin="round"/><path d="M247.07678,162.42607c2.12448,-0.12838 4.36223,-0.06475 4.50567,0.62258c0.18575,1.38076 -1.16259,4.2462 -2.7752,4.44309c-1.8089,0.30816 -6.2089,-1.91163 -6.30556,-3.49664c-0.17367,-1.18263 2.55177,-1.44675 4.5751,-1.56901z" fill="#001026" stroke="#001026" stroke-width="1.2" stroke-linecap="round" stroke-linejoin="round"/><path d="M201.46152,163.69112c0,0 8.86941,2.248 12.59749,5.10497" fill="none" stroke="#001026" stroke-width="1.2" stroke-linecap="round" stroke-linejoin="round"/><path d="M214.57398,172.24493c-4.24743,1.94692 -11.80016,1.30962 -11.80016,1.30962" fill="none" stroke="#001026" stroke-width="1.2" stroke-linecap="round" stroke-linejoin="round"/><g><path d="M258.30752,150.1144c3.20566,4.28051 3.61493,9.32657 0.89103,11.28088c-2.7239,1.95429 -7.50439,0.1552 -10.81122,-4.11922c-3.20566,-4.28051 -3.61493,-9.32657 -0.89103,-11.28088c2.71787,-2.05337 7.60557,-0.16132 10.81122,4.11922z" fill="#ffffff" stroke="#001026" stroke-width="1.2" stroke-linecap="round" stroke-linejoin="round"/><path d="M256.16105,155.75068c0.06646,1.08969 -0.68851,2.03015 -1.70016,2.09129c-1.01166,0.06114 -1.87535,-0.78153 -1.94182,-1.87121c-0.06646,-1.08969 0.68851,-2.03015 1.70016,-2.09129c1.01166,-0.06114 1.87535,0.78153 1.94182,1.87121" fill="#001026" stroke="none" stroke-width="1" stroke-linecap="butt" stroke-linejoin="miter"/></g><g><path d="M233.38756,154.40425c3.3008,4.17534 3.42468,9.53694 0.80798,11.58418c-3.2237,2.08393 -7.75956,0.96604 -11.06036,-3.2093c-3.40197,-4.16923 -3.94863,-9.80355 -0.9454,-12.17244c2.99719,-2.46794 7.89697,-0.37778 11.19776,3.79757z" fill="#ffffff" stroke="#001026" stroke-width="1.2" stroke-linecap="round" stroke-linejoin="round"/><path d="M231.44285,160.71613c0.06646,1.08969 -0.68851,2.03015 -1.70016,2.09129c-1.01166,0.06114 -1.87535,-0.78153 -1.94182,-1.87121c-0.06646,-1.08969 0.68851,-2.03015 1.70016,-2.09129c1.01771,0.03793 1.87535,0.78153 1.94182,1.87121" fill="#001026" stroke="none" stroke-width="1" stroke-linecap="butt" stroke-linejoin="miter"/></g></g><path d="M236.30436,171.30617c-0.06266,-0.38725 0.29597,-0.74191 0.71722,-0.70932c2.03626,0.37256 22.62964,-0.90287 24.10365,-1.43418c0.49135,-0.1771 0.97527,0.24271 0.85077,0.75887c-0.48969,2.75838 -3.16817,10.62928 -13.9092,11.73456c-9.38409,0.49319 -11.29914,-5.55809 -11.76245,-10.34993z" fill="#ffffff" fill-rule="evenodd" stroke="#001026" stroke-width="1.2" stroke-linecap="round" stroke-linejoin="round"/><g fill-rule="nonzero" stroke="#001026" stroke-width="1.2" stroke-linejoin="miter"><g><path d="M250.27549,200.73221l17.36004,-13.98997l6.90783,11.23937l-19.83855,8.5175c0,0 -2.53798,-0.80462 -3.25322,-1.73588c-0.75864,-0.98774 -1.1761,-4.03102 -1.1761,-4.03102z" fill="#505a63" stroke-linecap="butt"/><path d="M268.43543,185.40399c3.52775,-2.07972 8.10899,-0.9648 10.23248,2.4902c2.1235,3.45502 0.98512,7.94183 -2.54262,10.02153c-3.52775,2.07972 -8.10901,0.96481 -10.23249,-2.49021c-2.1235,-3.45502 -0.98511,-7.94182 2.54264,-10.02154z" fill="url(#color-1)" stroke-linecap="butt"/><path d="M265.17971,192.21676c0,0 3.46985,-3.09695 5.3308,-4.22244c1.73926,-1.05189 5.49449,-2.32464 5.49449,-2.32464" fill="none" stroke-linecap="round"/><path d="M268.88233,197.96653c0,0 4.23184,-3.93406 6.05174,-5.24921c1.34466,-0.9717 3.88007,-1.92796 3.88007,-1.92796" fill="none" stroke-linecap="round"/><path d="M268.02134,185.58368c0,0 4.45723,2.4095 6.22818,4.22465c1.54072,1.57915 3.8034,6.05712 3.8034,6.05712" fill="none" stroke-linecap="round"/><path d="M264.60612,189.91072c0,0 4.72661,2.95515 6.62155,4.54129c1.47303,1.23301 3.80448,4.18586 3.80448,4.18586" fill="none" stroke-linecap="round"/></g><path d="M262.38941,205.41882c-2.34844,1.3939 -5.61759,0.8097 -7.30188,-1.30488c-1.68429,-2.11457 -1.92566,-4.74724 0.42278,-6.14115c2.34844,-1.3939 6.39738,-1.02121 8.08166,1.09337c1.68429,2.11457 1.14587,4.95874 -1.20256,6.35267z" fill="#ffab19" stroke-linecap="butt"/></g><g fill-rule="nonzero" stroke="#001026" stroke-width="1.2" stroke-linecap="butt" stroke-linejoin="miter"><path d="M223.4782,148.59261c-1.13517,4.40766 -20.70788,13.69008 -20.70788,13.69008c0,0 -2.91445,0.05519 -4.29139,0.01063c-10.31228,-0.33356 -17.40568,-3.28881 -16.40424,-7.17728c1.13517,-4.40766 12.24138,-8.34527 24.80645,-8.79491c12.56505,-0.44964 17.73223,-2.13619 16.59706,2.27148z" fill="#00b0f7"/><path d="M207.66017,145.19366l-12.14083,-2.88872c0,0 14.21096,-7.29766 22.11352,-9.636c9.55766,-2.82808 31.21705,-6.14429 31.21705,-6.14429l-13.00146,18.589z" fill="#ff2b2b"/><path d="M200.29351,163.38751c0,0 -3.43511,-7.08132 -4.24615,-10.57586c-0.78682,-3.39021 -0.54963,-10.08792 -0.54963,-10.08792l26.1826,-5.87629c0,0 1.08259,7.5595 1.90463,11.10139c0.77362,3.33336 2.89116,9.56238 2.89116,9.56238z" data-paper-data="{&quot;index&quot;:null}" fill="#cc0000"/><path d="M226.0478,157.54116c0,0 -1.53088,-6.40874 -2.72575,-9.61984c-1.26962,-3.41198 -4.68141,-10.28599 -4.68141,-10.28599l30.88791,-11.0755c0,0 4.27282,5.36349 5.4881,8.62932c1.25267,3.36635 1.91907,11.27647 1.91907,11.27647z" fill="#f70000"/></g><g fill-rule="nonzero" stroke="#001026" stroke-width="1.2" stroke-linecap="butt" stroke-linejoin="miter"><path d="M232.0382,184.75927c-0.30437,2.68913 -1.63634,4.52768 -2.97505,4.10652c-1.33873,-0.42116 -2.17724,-2.94255 -1.87288,-5.63168c0.30437,-2.68913 1.63634,-4.52769 2.97505,-4.10653c1.33873,0.42116 2.17724,2.94256 1.87288,5.63169z" data-paper-data="{&quot;index&quot;:null}" fill="#ffab19"/><path d="M226.73584,181.56743c0.07269,2.77717 -0.96102,4.8614 -2.30887,4.65527c-1.34784,-0.20614 -2.4994,-2.6246 -2.57207,-5.40177c-0.07269,-2.77717 0.96102,-4.8614 2.30887,-4.65526c1.34784,0.20614 2.4994,2.6246 2.57207,5.40177z" data-paper-data="{&quot;index&quot;:null}" fill="#ffab19"/><path d="M225.85505,183.12422c4.55168,2.21973 6.58088,7.28547 4.53236,11.31469c-2.04853,4.0292 -7.39905,5.49608 -11.95072,3.27635c-4.55168,-2.21973 -6.58088,-7.28547 -4.53236,-11.31469c2.04853,-4.0292 7.39905,-5.49608 11.95072,-3.27635z" data-paper-data="{&quot;index&quot;:null}" fill="#ffab19"/><path d="M224.77933,186.41097c3.22619,1.57331 4.59983,5.29104 3.06812,8.30376c-1.53172,3.01272 -5.38878,4.17958 -8.61497,2.60626c-3.22619,-1.57331 -4.59982,-5.29103 -3.06812,-8.30375c1.53172,-3.01272 5.38878,-4.17958 8.61497,-2.60627z" data-paper-data="{&quot;index&quot;:null}" fill="#ffffff"/><path d="M222.48658,185.63283c0.07269,2.06092 -0.96102,3.60762 -2.30887,3.45463c-1.34784,-0.15299 -2.4994,-1.9477 -2.57207,-4.00862c-0.07269,-2.06092 0.96102,-3.60761 2.30887,-3.45462c1.34784,0.15299 2.4994,1.9477 2.57207,4.00862z" data-paper-data="{&quot;index&quot;:null}" fill="#ffab19"/><path d="M218.23732,187.45356c0.07269,2.06092 -0.96102,3.60762 -2.30887,3.45463c-1.34784,-0.15299 -2.4994,-1.94771 -2.57207,-4.00863c-0.07269,-2.06092 0.96102,-3.60761 2.30887,-3.45462c1.34784,0.15299 2.4994,1.9477 2.57207,4.00862z" data-paper-data="{&quot;index&quot;:null}" fill="#ffab19"/></g></g></g></svg>