<svg version="1.1" xmlns="http://www.w3.org/2000/svg" xmlns:xlink="http://www.w3.org/1999/xlink" width="96.3878" height="127.78319" viewBox="0,0,96.3878,127.78319"><defs><radialGradient cx="267.68038" cy="178.19748" r="7.73023" gradientUnits="userSpaceOnUse" id="color-1"><stop offset="0" stop-color="#54606d"/><stop offset="1" stop-color="#2c3136"/></radialGradient></defs><g transform="translate(-190.35342,-110.62475)"><g data-paper-data="{&quot;isPaintingLayer&quot;:true}" stroke-miterlimit="10" stroke-dasharray="" stroke-dashoffset="0" style="mix-blend-mode: normal"><g stroke="#001026" stroke-width="1.2"><path d="M244.73933,190.73109c0.55827,0.34464 7.5701,6.77879 9.5085,4.88993c2.33128,-2.20899 5.43173,-6.41156 9.4876,-3.52652c4.05587,2.88503 -2.57976,8.80746 -5.48664,10.47961c-6.957,3.52786 -13.33259,-1.69674 -14.72787,-3.13893c-1.39529,-1.44218 -3.82837,-3.8699 -4.05369,-6.36852c-0.13793,-2.69878 3.36188,-3.64188 5.27209,-2.33556z" fill="#ff0000" fill-rule="evenodd" stroke-linecap="round" stroke-linejoin="round"/><g fill-rule="nonzero" stroke-linejoin="miter"><g><path d="M252.74475,201.05189l4.9067,-20.91219l13.00403,4.47489l-10.51931,18.21033c0,0 -2.59142,0.88737 -3.78499,0.60106c-1.26598,-0.30368 -3.60644,-2.37409 -3.60644,-2.37409z" fill="#505a63" stroke-linecap="butt"/><path d="M257.42139,178.64799c1.49896,-3.66849 5.95473,-5.52724 9.95221,-4.15166c3.9975,1.3756 6.02294,5.46465 4.52398,9.13313c-1.49896,3.66849 -5.95474,5.52725 -9.95222,4.15166c-3.9975,-1.3756 -6.02293,-5.46465 -4.52397,-9.13315z" fill="url(#color-1)" stroke-linecap="butt"/><path d="M259.25589,185.75944c0,0 0.78299,-4.40879 1.55504,-6.36561c0.72157,-1.82885 2.93603,-5.01737 2.93603,-5.01737" fill="none" stroke-linecap="round"/><path d="M266.04553,187.94894c0,0 0.85169,-5.49652 1.46567,-7.57347c0.45366,-1.53458 1.88503,-3.76117 1.88503,-3.76117" fill="none" stroke-linecap="round"/><path d="M257.20307,179.02956c0,0 5.20629,-0.79976 7.83895,-0.4644c2.29038,0.29175 7.07364,2.36397 7.07364,2.36397" fill="none" stroke-linecap="round"/><path d="M257.27337,184.34263c0,0 5.78401,-0.54352 8.36682,-0.45579c2.00776,0.06821 5.844,0.93855 5.844,0.93855" fill="none" stroke-linecap="round"/></g><path d="M265.67008,197.46059c-0.99167,2.44931 -4.03228,3.93665 -6.79141,3.32209c-2.75913,-0.61457 -4.68648,-2.47641 -3.69481,-4.92573c0.99167,-2.44931 4.52682,-4.55858 7.28595,-3.944c2.75913,0.61457 4.19192,3.09833 3.20027,5.54764z" fill="#ffab19" stroke-linecap="butt"/></g></g><g fill-rule="evenodd"><path d="M224.34596,202.16962c0.84062,0.38572 2.62693,1.25358 0.10508,4.53219c-2.52186,3.2786 -9.7722,3.9536 -10.61282,3.9536c-3.2574,0.09643 -7.25035,0.09643 -11.6636,-1.25358c-12.81945,-3.85718 -12.92453,-16.48942 -8.8265,-18.51444c3.99295,-2.02502 5.77926,5.78576 11.55852,10.5108c2.52186,2.12145 5.5691,2.89288 8.09097,3.37503c3.57263,0.57857 10.40267,-3.08574 11.34837,-2.60359z" fill="#ffab19" stroke="#001026" stroke-width="1.2" stroke-linecap="round" stroke-linejoin="round"/><path d="M198.28676,194.35884c1.68124,2.60359 4.93864,6.26791 4.93864,6.26791c0,0 -3.88787,-0.86786 -6.0945,0.77144c-1.78632,1.25358 -1.366,3.37503 -1.15585,4.05003c-1.366,-1.25358 -3.04725,-2.98931 -4.09802,-6.36434c-1.05077,-3.37503 0,-7.42506 2.10155,-8.00364c2.10155,-0.38572 2.62693,1.06072 4.30818,3.2786z" fill="#ffffff" stroke="none" stroke-width="1" stroke-linecap="butt" stroke-linejoin="miter"/></g><g><path d="M240.48264,202.43619c0.09069,0.71476 0.28756,2.04609 0.44763,3.80707c0.304,3.34414 0.47538,8.23763 -0.4648,13.40009l-0.09755,0.38737c-0.09755,0.38737 0.27481,0.77841 0.74471,0.78203c3.05834,-0.40759 9.03167,-0.96511 7.99454,4.50387c-0.94157,5.29721 -18.8675,7.61665 -20.32324,2.38713c-0.4023,-2.24567 1.06509,-3.39871 1.86948,-3.99624c0.42608,-0.34171 0.66499,-0.77112 0.81033,-1.24438c0.19905,-1.20599 0.50161,-3.4462 0.47166,-5.30086c-0.00419,-4.65766 -0.36861,-5.91113 -0.81673,-8.28652c-0.44811,-2.3754 -1.7127,-7.94846 3.04997,-9.72288c4.05583,-1.56428 6.00327,1.29712 6.31397,3.28332z" fill="#513726" fill-rule="evenodd" stroke="#001026" stroke-width="1.2" stroke-linecap="round" stroke-linejoin="round"/><path d="M222.16869,208.8456c0.11651,-2.00372 1.7782,-5.01305 5.96986,-3.78684c4.9161,1.37769 4.19796,7.03202 3.9824,9.43462c-0.21556,2.4026 0.38387,3.6809 0.83219,8.32035c0.15036,1.84972 -0.17128,4.05626 0.14415,5.24116c0.10618,0.25578 1.0406,10.16893 -7.98407,9.7395c-7.96779,-0.37914 -1.46589,-11.81155 -1.46589,-11.81155c0,0 -1.53252,-9.95302 -1.55462,-13.3087c-0.01165,-1.76706 0.05511,-3.1092 0.07599,-3.82853z" data-paper-data="{&quot;index&quot;:null}" fill="#513726" fill-rule="evenodd" stroke="#001026" stroke-width="1.2" stroke-linecap="round" stroke-linejoin="round"/><g fill-rule="evenodd"><path d="M227.00046,208.66023c-11.47119,-4.51896 -6.02941,-10.06174 -5.19681,-15.3171c0.90114,-4.55619 2.28201,-4.218 8.61816,-5.21983c3.52243,-0.72964 5.5967,-1.15356 7.71581,-2.00675c3.19758,-1.2348 4.42387,3.29206 4.48655,5.8536c0,0 0.02611,3.81468 -0.53017,5.97515c-0.6992,2.62444 -1.30866,4.39034 -2.14495,5.6164c0,0 -1.79675,2.6355 -4.05691,3.52545c-2.03164,0.79996 -8.89169,1.57309 -8.89169,1.57309z" fill="#ff0000" stroke="#001026" stroke-width="1.2" stroke-linecap="round" stroke-linejoin="round"/><path d="M239.02888,203.78394c0,0 -1.92426,-0.5593 -4.05998,-1.35383c-2.64129,-0.92569 -5.16917,-1.58144 -4.38021,-5.06443c0.85749,-2.7838 1.31451,-6.25268 6.82268,-5.20459c5.23648,0.93754 4.31874,3.84599 4.31874,3.84599c-0.45579,4.81199 -2.70124,7.77686 -2.70124,7.77686z" fill="#ffffff" stroke="none" stroke-width="1" stroke-linecap="butt" stroke-linejoin="miter"/></g><path d="M239.94907,203.56169c0,0 -1.79675,2.6355 -4.05691,3.52545c-2.03036,0.79946 -8.88305,1.57211 -8.89168,1.57309c-7.95857,-3.1352 -7.77622,-6.7632 -6.64027,-10.44613c0.24583,0.06752 0.46561,0.12467 0.65376,0.17117c6.56863,1.62346 12.92029,2.59233 19.26507,4.64445c-0.10631,0.18788 -0.21604,0.36494 -0.32998,0.53197z" fill="#513726" fill-rule="nonzero" stroke="#001026" stroke-width="1.2" stroke-linecap="butt" stroke-linejoin="miter"/></g><path d="M223.69333,200.10027c-0.57715,3.95156 1.3058,7.6886 -0.23963,9.68427c-1.0086,1.30246 -2.6291,2.19175 -3.69596,2.06053c-1.18906,-0.14625 -3.04808,-1.66716 -3.64678,-3.47668c-0.76152,-2.30164 -2.73469,-5.81536 -2.20069,-9.47147c0.47105,-3.22511 3.50614,-6.38049 4.68381,-8.40722c1.20696,-2.07717 3.25038,-2.46188 4.61773,-2.29369c1.47623,0.18159 2.91428,1.22312 3.44608,3.83298c0.44141,2.16622 -2.53196,5.10934 -2.96457,8.07128z" fill="#ff0000" fill-rule="nonzero" stroke="#001026" stroke-width="1.2" stroke-linecap="butt" stroke-linejoin="miter"/><path d="M227.00045,208.66023c0,0 0,0 0.00001,0v0z" fill="#513726" fill-rule="nonzero" stroke="#001026" stroke-width="1.2" stroke-linecap="butt" stroke-linejoin="miter"/><g><g fill-rule="evenodd"><path d="M255.34278,133.74005c0.31427,-0.17674 0.80527,-0.03921 0.87474,0.3672l1.78339,10.86598c0,0 6.02625,5.17053 7.67125,8.60476c2.77491,5.72624 2.53432,10.22092 2.53432,10.22092c0,0 6.92087,2.6309 7.68638,8.40533c0.76552,5.77443 -4.43862,16.21076 -23.46458,18.47846c-19.02597,2.2677 -33.69705,-3.9596 -39.91462,-15.86388c-6.21757,-11.90428 5.97882,-24.61836 5.32004,-23.86603c0,0 0.17302,-15.97481 0.55675,-15.74514l11.00637,6.09193c0,0 4.61567,-1.35483 9.31734,-1.19884c2.80711,0.01232 5.18511,0.39324 7.44828,0.96601z" fill="#ffab19" stroke="#001026" stroke-width="1.2" stroke-linecap="butt" stroke-linejoin="miter"/><path d="M267.8771,164.17507c0,0 6.74413,2.31664 7.50963,8.09107c0.76552,5.77443 -4.79966,15.68193 -23.61864,17.86505c-24.50881,3.15561 -34.88692,-12.07281 -27.4045,-22.13578c7.48997,-10.16269 18.26888,-0.21908 26.6902,-0.18214c7.21719,0.04592 8.49133,-6.17555 16.8233,-3.63819z" fill="#ffffff" stroke="none" stroke-width="1" stroke-linecap="butt" stroke-linejoin="miter"/><path d="M286.14122,166.66338c-4.97391,3.43369 -12.16086,2.98892 -12.16086,2.98892" fill="none" stroke="#001026" stroke-width="1.2" stroke-linecap="round" stroke-linejoin="round"/><path d="M283.99797,177.733c-6.31977,0.02214 -10.06492,-2.16734 -10.06492,-2.16734" fill="none" stroke="#001026" stroke-width="1.2" stroke-linecap="round" stroke-linejoin="round"/><path d="M250.85155,165.19047c2.09398,0.1588 4.27256,0.5246 4.31934,1.23016c-0.00616,1.40356 -1.71361,4.0821 -3.31659,4.06082c-1.80997,0.0633 -5.80889,-2.74715 -5.68789,-4.34257c-0.00897,-1.20413 2.69086,-1.09965 4.68514,-0.94842z" fill="#001026" stroke="#001026" stroke-width="1.2" stroke-linecap="round" stroke-linejoin="round"/><path d="M206.09384,160.29174c0,0 8.36363,3.44233 11.61917,6.79814" fill="none" stroke="#001026" stroke-width="1.2" stroke-linecap="round" stroke-linejoin="round"/><path d="M217.74749,170.60255c-4.41624,1.36995 -11.71188,-0.2865 -11.71188,-0.2865" fill="none" stroke="#001026" stroke-width="1.2" stroke-linecap="round" stroke-linejoin="round"/><g><path d="M263.50255,154.41632c2.5514,4.70641 2.26544,9.79937 -0.66267,11.38248c-2.9281,1.5831 -7.35613,-0.85875 -10.00724,-5.57274c-2.5514,-4.70641 -2.26544,-9.79937 0.66267,-11.38248c2.93567,-1.68282 7.45584,0.8663 10.00724,5.57274z" fill="#ffffff" stroke="#001026" stroke-width="1.2" stroke-linecap="round" stroke-linejoin="round"/><path d="M263.4205,160.12646c-0.08318,1.09685 -0.94895,1.93378 -1.94609,1.85815c-0.99714,-0.07562 -1.72678,-1.03355 -1.6436,-2.13039c0.08318,-1.09685 0.94895,-1.93378 1.94609,-1.85815c0.99714,0.07562 1.72678,1.03355 1.6436,2.13039" fill="#001026" stroke="none" stroke-width="1" stroke-linecap="butt" stroke-linejoin="miter"/></g><g><path d="M238.56182,155.33285c2.65867,4.61426 2.05088,9.98368 -0.78507,11.67405c-3.43424,1.645 -7.71576,-0.08373 -10.37443,-4.69799c-2.75839,-4.62184 -2.52676,-10.32063 0.73073,-12.2799c3.26505,-2.05899 7.7701,0.68957 10.42878,5.30383z" fill="#ffffff" stroke="#001026" stroke-width="1.2" stroke-linecap="round" stroke-linejoin="round"/><path d="M238.0235,161.10867c-0.08318,1.09685 -0.94895,1.93378 -1.94609,1.85815c-0.99714,-0.07562 -1.72678,-1.03355 -1.6436,-2.13039c0.08318,-1.09685 0.94895,-1.93378 1.94609,-1.85815c0.98958,0.17534 1.72678,1.03355 1.6436,2.13039" fill="#001026" stroke="none" stroke-width="1" stroke-linecap="butt" stroke-linejoin="miter"/></g></g><path d="M257.3475,187.25836c0.06455,-0.66301 0.41686,-1.24725 0.93906,-1.66371c0.00148,-0.05005 0.00466,-0.10039 0.00959,-0.15097c0.0823,-0.84538 0.63243,-1.56271 1.4061,-1.96741c-0.02124,-0.16294 -0.02442,-0.3304 -0.00784,-0.50064c0.04806,-0.49364 0.25563,-0.94361 0.57409,-1.31319c-0.13112,-0.32381 -0.18722,-0.678 -0.15147,-1.04515c0.0678,-0.6963 0.45295,-1.30573 1.01899,-1.72516c-0.47805,-0.48427 -0.74063,-1.13393 -0.67283,-1.83023c0.02061,-0.21177 0.07059,-0.4155 0.14608,-0.60831c-0.04839,-0.11153 -0.0878,-0.22684 -0.11753,-0.34521c-0.58644,-0.14784 -1.08711,-0.45805 -1.44227,-0.8689c-0.28697,0.0725 -0.59077,0.10614 -0.90286,0.0945c-0.43882,0.18992 -0.9372,0.28344 -1.4563,0.2512c-0.1171,-0.00727 -0.23191,-0.02074 -0.34407,-0.04001c-0.54912,0.39933 -1.26434,0.62142 -2.02387,0.57424c-0.33676,-0.02092 -0.65467,-0.09305 -0.94479,-0.20717c-0.30872,0.07693 -0.63678,0.10894 -0.97354,0.08803c-0.69682,-0.04328 -1.31293,-0.30585 -1.76916,-0.70593c-0.39071,0.13929 -0.82132,0.20439 -1.26721,0.1767c-0.79556,-0.04941 -1.48591,-0.38468 -1.95324,-0.88406c-0.38838,0.13716 -0.8159,0.20109 -1.25848,0.1736c-0.09714,-0.00603 -0.19271,-0.01632 -0.28651,-0.03067c-0.09543,0.00259 -0.19186,0.00096 -0.289,-0.00508c-0.37484,-0.02328 -0.72635,-0.11003 -1.04216,-0.24749c-0.09387,0.00241 -0.18869,0.00073 -0.28419,-0.00521c-0.37303,-0.02316 -0.72293,-0.1092 -1.03756,-0.2455c-0.33723,0.09583 -0.69958,0.13761 -1.07261,0.11444c-0.76732,-0.04766 -1.43677,-0.36124 -1.90265,-0.83151c-0.43096,0.19786 -0.9227,0.30165 -1.43691,0.28245c-0.04819,0.02086 -0.0971,0.04055 -0.14669,0.05905c-0.56102,0.44821 -1.31865,0.70258 -2.12639,0.65241c-0.154,-0.00956 -0.30405,-0.02984 -0.4493,-0.05993c-0.25051,0.31063 -0.57749,0.5686 -0.95412,0.75366c0.50231,0.48802 0.7808,1.15358 0.71121,1.86831c-0.00316,0.03245 -0.00701,0.0647 -0.01153,0.09676c0.20926,0.38429 0.30799,0.82277 0.26332,1.2815c-0.04329,0.4446 -0.21595,0.85376 -0.4825,1.20068c0.6423,0.49678 1.01604,1.24827 0.93664,2.06375c-0.04329,0.4446 -0.21596,0.85376 -0.48251,1.20068c0.6423,0.49678 1.01604,1.24826 0.93665,2.06374c-0.06082,0.62467 -0.37708,1.17942 -0.85019,1.58978c0.27579,0.42133 0.4128,0.92026 0.36164,1.44577c-0.13387,1.37506 -1.50545,2.41132 -3.06349,2.31455c-1.55805,-0.09676 -2.71256,-1.28991 -2.57867,-2.66497c0.06082,-0.62467 0.37707,-1.17942 0.85018,-1.58977c-0.27579,-0.42133 -0.4128,-0.92027 -0.36164,-1.44578c0.04329,-0.4446 0.21595,-0.85376 0.4825,-1.20068c-0.6423,-0.49678 -1.01604,-1.24826 -0.93665,-2.06374c0.04329,-0.4446 0.21596,-0.85377 0.48251,-1.20069c-0.6423,-0.49678 -1.01604,-1.24826 -0.93665,-2.06374c0.00316,-0.03245 0.00702,-0.0647 0.01153,-0.09676c-0.20926,-0.38429 -0.30799,-0.82277 -0.26333,-1.2815c0.02036,-0.2091 0.06934,-0.41035 0.14324,-0.60099c-0.59217,-0.49604 -0.93112,-1.2178 -0.85514,-1.99814c0.09329,-0.95813 0.78752,-1.75177 1.72703,-2.11223c0.4872,-0.93113 1.59211,-1.54907 2.81118,-1.47336c0.154,0.00956 0.30405,0.02984 0.4493,0.05993c0.31074,-0.38531 0.73912,-0.6896 1.23399,-0.87419c0.54235,-0.43329 1.26843,-0.68544 2.04591,-0.65643c0.43882,-0.18992 0.9372,-0.28344 1.4563,-0.2512c0.76732,0.04766 1.43677,0.36124 1.90265,0.83151c0.4534,-0.20814 0.97405,-0.31219 1.51739,-0.27844c0.37303,0.02316 0.72294,0.1092 1.03757,0.2455c0.33723,-0.09583 0.69958,-0.13761 1.07261,-0.11444c0.37484,0.02328 0.72634,0.11003 1.04216,0.24749c0.09387,-0.00241 0.18869,-0.00073 0.28419,0.00521c0.09714,0.00603 0.19271,0.01632 0.28651,0.03066c0.09543,-0.00259 0.19185,-0.00095 0.28899,0.00509c0.79556,0.04941 1.48592,0.38467 1.95324,0.88405c0.38838,-0.13716 0.8159,-0.20108 1.25848,-0.17359c0.69682,0.04328 1.31293,0.30585 1.76916,0.70593c0.39071,-0.13929 0.82132,-0.20439 1.26722,-0.1767c0.33676,0.02092 0.65468,0.09305 0.9448,0.20717c0.30872,-0.07693 0.63678,-0.10894 0.97354,-0.08803c0.1171,0.00727 0.23191,0.02074 0.34407,0.04001c0.52967,-0.3852 1.21391,-0.60548 1.94338,-0.57826c0.43882,-0.18992 0.9372,-0.28344 1.4563,-0.2512c0.83438,0.05182 1.55304,0.41809 2.02006,0.95834c0.31158,-0.0787 0.64301,-0.11163 0.98334,-0.09049c1.2646,0.07854 2.26337,0.87938 2.52314,1.91352c1.25524,0.31643 2.11758,1.37687 2.00087,2.57553c-0.02061,0.21177 -0.07059,0.4155 -0.14608,0.60831c0.14647,0.3376 0.21073,0.70993 0.17308,1.09666c-0.0678,0.6963 -0.45296,1.30573 -1.019,1.72515c0.47805,0.48427 0.74063,1.13393 0.67283,1.83023c-0.04806,0.49364 -0.25563,0.94361 -0.57409,1.31319c0.13112,0.32381 0.18723,0.678 0.15148,1.04515c-0.0823,0.84538 -0.63244,1.56271 -1.40611,1.96741c0.02124,0.16294 0.02442,0.3304 0.00784,0.50064c-0.06455,0.66301 -0.41686,1.24726 -0.93907,1.66371c-0.00148,0.05005 -0.00466,0.10038 -0.00959,0.15097c-0.13387,1.37506 -1.50546,2.41131 -3.06349,2.31455c-1.55804,-0.09676 -2.71256,-1.28991 -2.57867,-2.66497z" fill="#ffffff" fill-rule="nonzero" stroke="#001026" stroke-width="1.2" stroke-linecap="butt" stroke-linejoin="miter"/><g fill-rule="nonzero" stroke-linecap="butt" stroke-linejoin="miter"><g><path d="M195.92037,151.77211c-0.16423,-3.10772 2.6046,-6.00675 6.18437,-6.47516c3.57976,-0.4684 6.61487,1.67117 6.7791,4.7789c0.16423,3.10772 -2.6046,6.00675 -6.18437,6.47516c-3.57976,0.4684 -6.61487,-1.67117 -6.77909,-4.77889z" fill="#ffffff" stroke="#001026" stroke-width="1.2"/><path d="M218.63999,116.21633c0.46636,1.01401 -0.74464,1.53082 -0.74464,1.53082l-0.7607,0.28189c-2.44941,1.77527 -4.34033,4.319 -6.07858,6.62987c-1.65635,7.82675 -8.60399,14.39957 -8.09909,22.58896c0,0 0.05947,1.1254 -1.23688,1.29503c-1.29635,0.16962 -1.35582,-0.95577 -1.35582,-0.95577c-0.39294,-8.57902 6.34501,-15.4254 8.29963,-23.58922c1.92421,-2.70785 4.12588,-5.58146 6.93361,-7.65346l1.3651,-0.62531c0,0 1.21102,-0.5168 1.67737,0.49722z" fill="#001026" stroke="none" stroke-width="0.5"/></g><g stroke="#001026" stroke-width="1.2"><path d="M219.96903,155.4753c-1.45535,-0.92137 -3.62804,-1.34169 -4.65082,-2.56522c-0.15598,-0.1866 -0.28523,-0.39188 -0.38109,-0.62045c-0.18293,-0.43616 -0.28338,-0.9366 -0.31974,-1.48283c-0.01508,-0.17698 -0.02047,-0.3566 -0.01582,-0.5384c0.01583,-3.25048 1.8996,-7.78121 2.30418,-10.22959c0.29993,-1.81507 0.53748,-4.16023 0.29382,-5.90997c-0.70186,-5.03991 -5.14714,-19.24747 2.40523,-22.30534c6.33136,-2.5635 11.04781,3.75003 14.03854,6.76082c4.97635,5.00975 11.7604,12.08292 18.97129,14.82606c3.28704,1.25044 8.36318,4.62023 6.65703,8.55226c-5.01508,11.5578 -19.97142,1.30985 -29.27681,3.57655c-3.79503,0.92443 -0.753,6.18169 -3.96605,7.48261z" fill="#ff0000"/><path d="M264.81923,142.94043c3.52969,0.21922 5.8894,2.93849 5.27055,6.07365c-0.61884,3.13516 -3.98189,5.49902 -7.51158,5.27979c-2.50523,-0.15559 -4.42107,-1.57059 -5.10087,-3.49984c-0.69247,0.15935 -1.41481,0.22436 -2.14425,0.17906c-2.68681,-0.16687 -4.69569,-1.78234 -5.22897,-3.92719c-1.40432,1.85409 -3.8668,3.04329 -6.41621,2.88495c-2.27467,-0.14128 -4.06346,-1.32083 -4.8823,-2.98087c-1.4156,1.15956 -3.32296,1.8333 -5.28161,1.71166c-0.6239,-0.03875 -1.21125,-0.15562 -1.75205,-0.33906c-0.01621,0.17824 -0.04205,0.35828 -0.07786,0.5397c-0.61884,3.13516 -3.98189,5.49901 -7.51158,5.27978c-0.02797,-0.00174 -0.05587,-0.00363 -0.08369,-0.00568c-1.03831,2.65157 -4.06972,4.53241 -7.23516,4.33582c-3.52969,-0.21922 -5.88939,-2.93849 -5.27055,-6.07365c0.61884,-3.13516 3.98189,-5.49901 7.51158,-5.27978c0.02797,0.00174 0.05588,0.00363 0.08369,0.00568c1.0383,-2.65156 4.06972,-4.5324 7.23515,-4.33581c0.6239,0.03875 1.21125,0.15562 1.75204,0.33907c0.01621,-0.17824 0.04205,-0.35828 0.07786,-0.5397c0.61884,-3.13516 3.98189,-5.49901 7.51158,-5.27978c2.27467,0.14128 4.06346,1.32083 4.8823,2.98087c1.4156,-1.15956 3.32296,-1.8333 5.2816,-1.71166c2.68681,0.16687 4.6957,1.78235 5.22897,3.9272c1.40432,-1.85409 3.8668,-3.0433 6.41621,-2.88496c2.50523,0.15559 4.42106,1.57059 5.10086,3.49984c0.69247,-0.15935 1.4148,-0.22436 2.14425,-0.17906z" fill="#ffffff"/></g></g></g><path d="M254.32752,180.84698c0,0 -6.16454,0.59526 -8.64285,-0.24878c-2.56944,-0.87507 -6.51028,-4.91192 -6.51028,-4.91192" fill="none" fill-rule="nonzero" stroke="#001026" stroke-width="1.2" stroke-linecap="round" stroke-linejoin="miter"/></g></g></svg>