<svg version="1.1" xmlns="http://www.w3.org/2000/svg" xmlns:xlink="http://www.w3.org/1999/xlink" width="104.89976" height="126.84573" viewBox="0,0,104.89976,126.84573"><defs><radialGradient cx="271.60602" cy="184.57787" r="6.30877" gradientUnits="userSpaceOnUse" id="color-1"><stop offset="0" stop-color="#54606d"/><stop offset="1" stop-color="#2c3136"/></radialGradient></defs><g transform="translate(-205.41576,-111.56222)"><g data-paper-data="{&quot;isPaintingLayer&quot;:true}" stroke-miterlimit="10" stroke-dasharray="" stroke-dashoffset="0" style="mix-blend-mode: normal"><path d="M259.60028,189.96628c0.65332,0.2644 7.70467,5.31487 11.66465,3.69827c4.72819,-1.89273 11.70976,-5.4489 16.24717,-3.21486c4.53743,2.23405 -8.7205,7.32148 -14.02278,8.79251c-12.43002,3.13115 -19.18457,-0.94703 -20.499,-2.08499c-1.31443,-1.13795 -3.65427,-3.05071 -2.6244,-5.09568c1.27144,-2.21234 7.06859,-3.10434 9.23436,-2.09525z" fill="#ff0000" fill-rule="evenodd" stroke="#001026" stroke-width="1.2" stroke-linecap="round" stroke-linejoin="round"/><g fill-rule="evenodd"><path d="M235.98907,198.43119c0.72417,0.60696 2.25725,1.94715 -0.44472,4.76421c-2.70199,2.81705 -9.42559,1.76624 -10.1958,1.56258c-2.99606,-0.68836 -6.65454,-1.65575 -10.53698,-4.13652c-11.28523,-7.13881 -9.87363,-20.37228 -5.87714,-21.49675c3.90021,-1.14992 4.60453,7.44964 9.33569,13.79021c2.05739,2.82913 4.7573,4.37399 7.01037,5.48909c3.20431,1.47051 9.89965,-0.70608 10.70858,0.02717z" fill="#ffab19" stroke="#001026" stroke-width="1.2" stroke-linecap="round" stroke-linejoin="round"/><path d="M213.045,183.9509c1.22962,3.12958 3.77678,7.7501 3.77678,7.7501c0,0 -3.45862,-1.84936 -5.67609,-0.66994c-1.78634,0.87793 -1.65447,3.19791 -1.54249,3.95459c-1.10194,-1.64167 -2.43517,-3.86384 -2.99506,-7.64727c-0.55989,-3.78343 0.88631,-7.76349 2.8809,-7.85928c1.97157,0.10585 2.28028,1.74551 3.55595,4.4718z" fill="#ffffff" stroke="none" stroke-width="1" stroke-linecap="butt" stroke-linejoin="miter"/></g><g><path d="M251.2342,201.12644c-0.13955,0.74123 -0.3729,2.12186 -0.77701,3.94804c-0.76742,3.46796 -2.15063,8.54265 -4.67669,13.89627l-0.21524,0.40172c-0.21524,0.40172 0.01555,0.80723 0.46161,0.81099c3.03936,-0.42268 8.90023,-1.00085 6.18504,4.67064c-2.56996,5.49336 -20.36262,7.89868 -20.09552,2.47552c0.32676,-2.32883 2.0876,-3.52456 3.04194,-4.14422c0.51347,-0.35436 0.87653,-0.79968 1.16439,-1.29046c0.57052,-1.25065 1.56635,-3.57381 2.12391,-5.49714c1.46781,-4.83012 1.51708,-6.13001 1.84123,-8.59336c0.32416,-2.46336 0.88173,-8.24277 5.97497,-10.0829c4.35415,-1.6222 5.30331,1.34515 4.97136,3.4049z" fill="#513726" fill-rule="evenodd" stroke="#001026" stroke-width="1.2" stroke-linecap="round" stroke-linejoin="round"/><path d="M231.77987,207.77317c0.74404,-2.07791 3.27637,-5.19867 6.87802,-3.92706c4.2432,1.42871 1.77304,7.2924 0.80868,9.78397c-0.96435,2.49157 -0.79783,3.8172 -1.83721,8.62844c-0.44142,1.91821 -1.44475,4.20645 -1.519,5.43523c0.02023,0.26525 -2.22301,10.54547 -10.6759,10.10014c-7.46298,-0.39318 2.33732,-12.24891 2.33732,-12.24891c0,0 1.68663,-10.32156 2.72598,-13.8015c0.5473,-1.83249 1.03493,-3.22433 1.28212,-3.9703z" data-paper-data="{&quot;index&quot;:null}" fill="#513726" fill-rule="evenodd" stroke="#001026" stroke-width="1.2" stroke-linecap="round" stroke-linejoin="round"/><g fill-rule="evenodd"><path d="M236.43674,207.58094c-9.48892,-4.68629 -2.55861,-10.43431 -0.10557,-15.88427c2.29732,-4.72489 3.50461,-4.37419 9.85116,-5.41311c3.58279,-0.75666 5.69078,-1.19628 7.97711,-2.08106c3.43326,-1.28052 3.16982,3.41396 2.42005,6.07035c0,0 -1.18057,3.95593 -2.39267,6.1964c-1.49473,2.72162 -2.63276,4.55291 -3.81605,5.82436c0,0 -2.54273,2.73309 -4.9749,3.65599c-2.18625,0.82958 -8.95913,1.63134 -8.95913,1.63134z" fill="#ff0000" stroke="#001026" stroke-width="1.2" stroke-linecap="round" stroke-linejoin="round"/><path d="M249.42481,202.52409c0,0 -1.65455,-0.58001 -3.436,-1.40396c-2.22115,-0.95996 -4.41966,-1.64 -2.56823,-5.25196c1.69572,-2.88688 3.2268,-6.48421 8.13762,-5.39731c4.68719,0.97225 2.89475,3.9884 2.89475,3.9884c-1.95433,4.99017 -5.02815,8.06482 -5.02815,8.06482z" fill="#ffffff" stroke="none" stroke-width="1" stroke-linecap="butt" stroke-linejoin="miter"/></g><path d="M250.37077,202.29361c0,0 -2.54273,2.73309 -4.9749,3.65599c-2.18487,0.82906 -8.95059,1.63033 -8.95912,1.63134c-6.58329,-3.25129 -5.26333,-7.01363 -3.01848,-10.83293c0.21262,0.07002 0.40371,0.12928 0.56808,0.17751c5.73822,1.68358 11.47681,2.68832 16.86655,4.81643c-0.16055,0.19484 -0.32092,0.37845 -0.48213,0.55167z" fill="#513726" fill-rule="nonzero" stroke="#001026" stroke-width="1.2" stroke-linecap="butt" stroke-linejoin="miter"/></g><path d="M236.43674,207.58094v0c-0.00001,0 -0.00001,0 -0.00001,0z" fill="#513726" fill-rule="nonzero" stroke="#001026" stroke-width="1.2" stroke-linecap="butt" stroke-linejoin="miter"/><g fill-rule="nonzero" stroke="none" stroke-width="0.5" stroke-linecap="butt" stroke-linejoin="miter"><path d="M238.22338,193.51552c-0.00203,-0.00103 -0.00406,-0.00207 -0.00605,-0.00312c-2.18211,3.11079 -3.09807,6.29761 -4.22887,9.67044c-1.5876,2.52218 -4.13688,3.82224 -6.40934,3.41467c-0.6003,-0.10767 -1.28601,-0.59193 -2.05548,-0.34145c-1.83602,0.59768 -3.38893,2.42356 -5.06541,3.39956c-2.46488,0.93187 -2.35237,-0.67684 -4.04121,-0.96609c-1.11851,-0.19157 -2.03097,0.74283 -2.54751,-0.46305c-0.3444,-0.80403 0.18209,-1.96568 -0.25323,-2.80207c-0.32698,-0.62825 -1.88064,-0.35156 -2.61657,-0.41967c-2.82214,-1.06671 1.65568,-3.96908 3.62505,-4.76628c0.54673,-0.22131 4.0591,-0.7611 4.20365,-0.96345c1.19392,-1.67159 0.72667,-3.21799 3.31435,-3.54795c1.31582,0.11727 4.1374,2.43724 5.69334,1.54838c1.65284,-0.94421 3.1948,-4.57012 3.92381,-6.03587c1.03326,-1.13666 2.11085,-2.55145 3.47353,-3.29643c4.64755,-2.54085 5.33805,1.27116 4.21499,4.72648l-0.32689,0.50224c0,0 -0.44816,0.57229 -0.89813,0.34362z" fill="#ff0000"/><path d="M237.28209,193.87499c0.56442,0.04494 0.27328,0.65958 0.27328,0.65958l-0.14942,0.3112c-0.62278,1.11838 -1.00538,2.15075 -1.45928,3.27014c-0.31951,1.95324 -1.33792,6.67493 -3.79442,7.99256c-2.08018,1.11578 -3.57092,0.4331 -5.0887,0.0533c0,0 -0.00557,-0.00142 -0.01514,-0.00462l-0.68815,0.23437c-0.73115,0.16311 -1.07138,0.44134 -1.78623,0.91735c-1.47191,0.89711 -3.18802,2.66058 -4.81269,2.90538c-1.09097,0.16439 -1.25922,-0.88732 -2.15743,-0.96363c-1.36955,-0.11634 -2.22346,0.68108 -3.19671,-0.40133c-0.61718,-0.68638 -0.05438,-2.25953 -0.86637,-2.58089c-1.10189,-0.1919 -4.16148,-0.61605 -3.43142,-2.5446c0.8514,-2.24915 5.48504,-4.93841 7.74094,-5.15024c0.05087,-0.30151 0.1885,-0.63333 0.43614,-0.99816c1.79588,-2.64592 5.10308,-2.16214 6.81443,-1.12735c1.18184,-0.50649 2.12326,-0.43139 3.02217,-0.11989c0.77832,-1.13851 1.67191,-2.21021 2.36354,-3.36503c0,0 0.27257,-0.44593 0.67844,-0.48651c0.56791,-1.08213 1.29531,-2.21494 1.94842,-3.28349c3.56399,-6.27365 9.90883,-3.15322 6.92237,2.40453c0,0 -0.337,0.6088 -0.87529,0.51297c-0.53828,-0.09583 -0.20129,-0.70462 -0.20129,-0.70462c2.36784,-4.09749 -2.29594,-6.65741 -4.78948,-1.98553c-0.77273,1.26423 -1.89394,2.8779 -2.32289,4.07042l-0.30758,0.41772c0,0 -0.34857,0.36002 -0.68088,0.30986c-0.59289,0.83777 -1.23248,1.65041 -1.80023,2.50809c0.0271,0.01319 0.05422,0.02647 0.08137,0.03985l0.35238,0.28328c0,0 0.37463,0.31508 -0.13818,0.84473c-0.41453,0.42814 -0.73878,0.30433 -0.84782,0.24114c-0.06569,0.18576 -0.22231,0.4395 -0.59559,0.57746c-0.63504,0.23468 -0.62705,-0.33517 -0.62705,-0.33517l0.10271,-0.85689c-0.42553,-0.16159 -0.86227,-0.25726 -1.35494,-0.2031c0.044,0.15141 0.04938,0.43589 -0.33354,0.75351c-0.56742,0.47065 -0.85266,0.07278 -0.85266,0.07278c-0.07482,-0.10543 -0.15273,-0.20653 -0.23442,-0.30246c-0.01385,0.0083 -0.02774,0.01674 -0.04167,0.02527c0,0 -0.61527,0.37477 -0.77265,-0.11448c-0.06524,-0.2028 0.00228,-0.38592 0.1037,-0.53084c-0.44704,-0.27234 -0.99309,-0.41361 -1.68982,-0.36041c-2.66167,0.20323 -3.95561,1.9368 -1.65829,2.88515c0.36342,0.15002 0.79441,0.19832 1.19072,0.29895l0.40116,0.02553c0,0 0.56442,0.04494 0.27328,0.65958c-0.29113,0.61465 -0.85555,0.56971 -0.85555,0.56971l-0.55494,-0.0506c-0.79392,-0.20158 -2.21241,-0.63956 -2.85126,-1.47882c-0.2137,0.07575 -0.38291,0.03279 -0.38291,0.03279c-1.41692,-0.41344 -5.41886,2.26476 -6.4674,3.84823c-0.59287,0.89533 2.66236,1.36179 3.02179,1.42675c1.1885,0.64468 0.36473,1.93189 1.16451,2.76709c0.86259,0.9008 1.39283,0.07595 2.68189,0.1748c0.5918,0.04539 1.28156,1.12807 1.88338,0.97883c1.42545,-0.35348 2.86129,-1.85168 4.16687,-2.64639c0.84043,-0.55963 1.38153,-0.91176 2.26272,-1.13731l0.73439,-0.25177c0,0 0.22675,-0.07748 0.40319,-0.01653c0.10638,-0.00734 0.17605,0.01036 0.17605,0.01036c1.19798,0.30804 2.43072,1.00905 4.09908,0.13658c1.72271,-0.90088 2.61027,-5.50272 2.82624,-6.823c0.49155,-1.23977 0.92457,-2.38253 1.60446,-3.61704l0.09718,-0.20942c0,0 0.29112,-0.61464 0.85555,-0.56971z" fill="#001026"/></g><g><g fill-rule="evenodd"><path d="M277.46349,133.1836c0.30598,-0.19073 0.80268,-0.0755 0.89041,0.32737l2.27166,10.77448c0,0 6.25332,4.89346 8.05154,8.25001c3.03036,5.59526 2.99273,10.09622 2.99273,10.09622c0,0 7.03248,2.31608 8.05766,8.0501c1.02518,5.73402 -3.70295,16.39445 -22.60727,19.51797c-18.90433,3.12352 -33.84135,-2.43574 -40.58951,-14.04747c-6.74816,-11.61173 4.86238,-24.86297 4.2382,-24.08169c0,0 -0.54767,-15.96635 -0.15397,-15.75423l11.26993,5.58931c0,0 4.54987,-1.56163 9.25379,-1.61785c2.8048,-0.1143 5.19756,0.15898 7.48426,0.6291z" fill="#ffab19" stroke="#001026" stroke-width="1.2" stroke-linecap="butt" stroke-linejoin="miter"/><path d="M291.35776,163.02232c0,0 6.84175,2.0101 7.86692,7.74413c1.02518,5.73402 -4.08747,15.88246 -22.78884,18.91214c-24.34154,4.25782 -35.39594,-10.48703 -28.375,-20.87724c7.02399,-10.49016 18.24041,-1.04284 26.65482,-1.38575c7.21192,-0.27965 8.20415,-6.55225 16.64209,-4.39327z" fill="#ffffff" stroke="none" stroke-width="1" stroke-linecap="butt" stroke-linejoin="miter"/><path d="M309.71552,164.68433c-4.81398,3.65453 -12.01367,3.53437 -12.01367,3.53437" fill="none" stroke="#001026" stroke-width="1.2" stroke-linecap="round" stroke-linejoin="round"/><path d="M308.07373,175.83935c-6.31235,0.30716 -10.15243,-1.71118 -10.15243,-1.71118" fill="none" stroke="#001026" stroke-width="1.2" stroke-linecap="round" stroke-linejoin="round"/><path d="M274.39534,164.80458c2.09901,0.0642 4.29188,0.33137 4.37043,1.0341c0.05716,1.40241 -1.52775,4.15523 -3.13006,4.20628c-1.80528,0.14488 -5.92688,-2.48236 -5.87797,-4.08161c-0.06327,-1.20249 2.63852,-1.2199 4.6376,-1.15876z" fill="#001026" stroke="#001026" stroke-width="1.2" stroke-linecap="round" stroke-linejoin="round"/><path d="M229.46223,161.92953c0,0 8.51038,3.06161 11.91396,6.26716" fill="none" stroke="#001026" stroke-width="1.2" stroke-linecap="round" stroke-linejoin="round"/><path d="M241.56906,171.70424c-4.34996,1.56774 -11.71288,0.24203 -11.71288,0.24203" fill="none" stroke="#001026" stroke-width="1.2" stroke-linecap="round" stroke-linejoin="round"/><g><path d="M286.54751,153.4708c2.76107,4.58655 2.70511,9.68722 -0.14861,11.40079c-2.85372,1.71355 -7.38737,-0.5261 -10.2484,-5.11571c-2.76107,-4.58655 -2.70511,-9.68722 0.14861,-11.40079c2.85678,-1.81352 7.48732,0.52915 10.2484,5.11571z" fill="#ffffff" stroke="#001026" stroke-width="1.2" stroke-linecap="round" stroke-linejoin="round"/><path d="M287.72633,158.99577c-0.03363,1.09949 -0.86077,1.97461 -1.86031,1.94403c-0.99954,-0.03058 -1.77164,-0.95461 -1.73802,-2.05409c0.03363,-1.09949 0.86077,-1.97461 1.86031,-1.94403c0.99954,0.03058 1.77164,0.95461 1.73802,2.05409" fill="#001026" stroke="none" stroke-width="1" stroke-linecap="butt" stroke-linejoin="miter"/></g><g><path d="M261.6735,155.5113c2.86409,4.48966 2.49908,9.88102 -0.25774,11.69758c-3.35655,1.79822 -7.71168,0.26436 -10.57577,-4.2253c-2.96404,-4.49272 -2.98968,-10.19617 0.17613,-12.30036c3.16886,-2.20415 7.79329,0.33841 10.65738,4.82807z" fill="#ffffff" stroke="#001026" stroke-width="1.2" stroke-linecap="round" stroke-linejoin="round"/><path d="M262.79603,161.3292c-0.03363,1.09949 -0.86077,1.97461 -1.86031,1.94403c-0.99954,-0.03058 -1.77164,-0.95461 -1.73802,-2.05409c0.03363,-1.09949 0.86077,-1.97461 1.86031,-1.94403c0.99648,0.13053 1.77164,0.95461 1.73802,2.05409" fill="#001026" stroke="none" stroke-width="1" stroke-linecap="butt" stroke-linejoin="miter"/></g></g><path d="M281.87999,186.55703c0.03458,-0.66525 0.36018,-1.26479 0.86307,-1.70437c-0.00077,-0.05007 0.00013,-0.1005 0.00277,-0.15125c0.04409,-0.84824 0.56131,-1.58965 1.31593,-2.02883c-0.02857,-0.16182 -0.03929,-0.32896 -0.03041,-0.49979c0.02575,-0.49531 0.21281,-0.95419 0.51427,-1.33775c-0.14559,-0.31757 -0.21761,-0.66887 -0.19846,-1.03725c0.03632,-0.69865 0.3936,-1.32482 0.94014,-1.76936c-0.49941,-0.46222 -0.79101,-1.09937 -0.7547,-1.79802c0.01104,-0.21248 0.05178,-0.41826 0.11849,-0.61427c-0.05337,-0.10923 -0.09794,-0.22265 -0.13298,-0.33956c-0.5925,-0.12124 -1.10667,-0.40856 -1.47999,-0.80297c-0.2834,0.08536 -0.58538,0.13268 -0.89767,0.13512c-0.4298,0.20952 -0.92346,0.32542 -1.44348,0.31663c-0.1173,-0.00198 -0.23261,-0.01025 -0.34553,-0.02445c-0.53055,0.42369 -1.23503,0.67781 -1.99591,0.66495c-0.33736,-0.00571 -0.6582,-0.06343 -0.95318,-0.16435c-0.30494,0.09078 -0.63122,0.13756 -0.96858,0.13185c-0.69806,-0.0118 -1.32538,-0.24633 -1.7992,-0.62542c-0.38403,0.15677 -0.81126,0.24123 -1.25795,0.23367c-0.79698,-0.01348 -1.50175,-0.31727 -1.99113,-0.79506c-0.3818,0.15454 -0.806,0.23769 -1.24937,0.23019c-0.09732,-0.00165 -0.19325,-0.00762 -0.2876,-0.01772c-0.09522,0.00689 -0.19162,0.00961 -0.28894,0.00797c-0.37552,-0.00635 -0.73057,-0.07715 -1.05226,-0.20024c-0.09367,0.00664 -0.18846,0.00923 -0.28414,0.00762c-0.3737,-0.00632 -0.72712,-0.07648 -1.04757,-0.19845c-0.33256,0.11094 -0.69266,0.16902 -1.06635,0.1627c-0.76869,-0.013 -1.4516,-0.29607 -1.93822,-0.74485c-0.4216,0.21709 -0.90815,0.34295 -1.42271,0.34697c-0.04721,0.02302 -0.09517,0.04489 -0.14387,0.06561c-0.54024,0.47306 -1.28562,0.76134 -2.0948,0.74766c-0.15427,-0.00261 -0.30508,-0.01609 -0.45154,-0.03961c-0.23624,0.32161 -0.55125,0.59407 -0.91915,0.79592c0.52381,0.46486 0.83204,1.1172 0.79476,1.83433c-0.00169,0.03256 -0.00408,0.06495 -0.00715,0.09718c0.22638,0.37446 0.34479,0.80805 0.32085,1.26832c-0.0232,0.4461 -0.17723,0.86264 -0.42785,1.22122c0.66405,0.46731 1.0713,1.20118 1.02877,2.0194c-0.0232,0.4461 -0.17724,0.86264 -0.42786,1.22122c0.66405,0.46731 1.0713,1.20117 1.02877,2.01939c-0.03258,0.62678 -0.3235,1.19522 -0.77761,1.62651c0.29452,0.40846 0.45389,0.9007 0.42648,1.42799c-0.07172,1.37969 -1.39516,2.47676 -2.95598,2.45037c-1.56083,-0.0264 -2.76798,-1.16626 -2.69625,-2.54595c0.03258,-0.62678 0.32349,-1.19522 0.77761,-1.6265c-0.29452,-0.40846 -0.45389,-0.90071 -0.42648,-1.428c0.0232,-0.4461 0.17723,-0.86264 0.42785,-1.22122c-0.66405,-0.46731 -1.0713,-1.20117 -1.02877,-2.01939c0.0232,-0.4461 0.17724,-0.86265 0.42786,-1.22123c-0.66405,-0.46731 -1.0713,-1.20117 -1.02877,-2.01939c0.00169,-0.03256 0.00409,-0.06495 0.00715,-0.09718c-0.22638,-0.37446 -0.34479,-0.80805 -0.32086,-1.26832c0.01091,-0.20981 0.05076,-0.41306 0.11599,-0.60684c-0.61394,-0.46883 -0.9851,-1.17456 -0.9444,-1.95754c0.04998,-0.96136 0.7077,-1.78551 1.63,-2.18797c0.44471,-0.95216 1.52063,-1.6193 2.74187,-1.59865c0.15427,0.00261 0.30508,0.01609 0.45154,0.03961c0.29305,-0.39893 0.70727,-0.72223 1.1933,-0.92896c0.52226,-0.45731 1.23622,-0.74195 2.01422,-0.74803c0.4298,-0.20952 0.92346,-0.32542 1.44348,-0.31663c0.76869,0.013 1.4516,0.29607 1.93822,0.74485c0.44356,-0.22838 0.95898,-0.35581 1.50329,-0.3466c0.3737,0.00632 0.72713,0.07648 1.04758,0.19845c0.33256,-0.11094 0.69266,-0.16902 1.06635,-0.1627c0.37552,0.00635 0.73056,0.07715 1.05226,0.20024c0.09367,-0.00664 0.18846,-0.00923 0.28414,-0.00762c0.09732,0.00165 0.19325,0.00762 0.2876,0.01771c0.09522,-0.00689 0.19161,-0.0096 0.28893,-0.00796c0.79698,0.01348 1.50175,0.31726 1.99113,0.79505c0.3818,-0.15454 0.806,-0.23768 1.24937,-0.23018c0.69806,0.0118 1.32538,0.24633 1.7992,0.62542c0.38403,-0.15677 0.81126,-0.24123 1.25796,-0.23367c0.33736,0.00571 0.65821,0.06343 0.95319,0.16435c0.30494,-0.09078 0.63122,-0.13756 0.96858,-0.13185c0.1173,0.00198 0.23261,0.01025 0.34553,0.02445c0.51176,-0.4087 1.18537,-0.65961 1.91532,-0.66532c0.4298,-0.20952 0.92346,-0.32542 1.44348,-0.31663c0.83587,0.01414 1.57032,0.34762 2.06123,0.86626c0.30771,-0.09268 0.63733,-0.14051 0.97826,-0.13475c1.26686,0.02142 2.30073,0.7764 2.60687,1.79778c1.26823,0.2595 2.17753,1.27996 2.115,2.48267c-0.01104,0.21248 -0.05178,0.41826 -0.11849,0.61427c0.16155,0.33065 0.24253,0.69971 0.22236,1.08774c-0.03632,0.69865 -0.39361,1.32482 -0.94015,1.76936c0.49941,0.46222 0.79101,1.09937 0.7547,1.79802c-0.02575,0.49531 -0.21281,0.95419 -0.51427,1.33775c0.14559,0.31757 0.21762,0.66887 0.19847,1.03725c-0.04409,0.84824 -0.56132,1.58965 -1.31594,2.02883c0.02857,0.16182 0.03929,0.32896 0.03041,0.49979c-0.03458,0.66525 -0.36018,1.2648 -0.86308,1.70437c0.00077,0.05007 -0.00013,0.10049 -0.00277,0.15125c-0.07172,1.37969 -1.39517,2.47676 -2.95598,2.45037c-1.56082,-0.0264 -2.76798,-1.16626 -2.69625,-2.54595z" fill="#ffffff" fill-rule="nonzero" stroke="#001026" stroke-width="1.2" stroke-linecap="butt" stroke-linejoin="miter"/><g fill-rule="nonzero" stroke-linecap="butt" stroke-linejoin="miter"><g><path d="M218.91485,153.87742c-0.30422,-3.09716 2.33103,-6.11811 5.88602,-6.7475c3.55499,-0.62939 6.68351,1.37112 6.98775,4.46828c0.30422,3.09716 -2.33103,6.11811 -5.88602,6.7475c-3.55499,0.62939 -6.68351,-1.37112 -6.98774,-4.46827z" fill="#ffffff" stroke="#001026" stroke-width="1.2"/><path d="M240.00769,117.33311c0.51162,0.99194 -0.67484,1.56284 -0.67484,1.56284l-0.74721,0.31591c-2.36684,1.88394 -4.14112,4.51036 -5.77337,6.89728c-1.30165,7.89349 -7.94578,14.77298 -7.07203,22.93126c0,0 0.11017,1.12157 -1.17721,1.3495c-1.28738,0.22791 -1.39755,-0.89365 -1.39755,-0.89365c-0.77947,-8.55257 5.64283,-15.69588 7.22725,-23.93955c1.80012,-2.79188 3.86994,-5.76187 6.58136,-7.9584l1.33551,-0.68625c0,0 1.18647,-0.5709 1.69809,0.42105z" fill="#001026" stroke="none" stroke-width="0.5"/></g><g stroke="#001026" stroke-width="1.2"><path d="M243.10606,156.49219c-1.49543,-0.8548 -3.68486,-1.17669 -4.76179,-2.35284c-0.16424,-0.17937 -0.30261,-0.37861 -0.40869,-0.60264c-0.20241,-0.42746 -0.32533,-0.92286 -0.3863,-1.4669c-0.02305,-0.17612 -0.03654,-0.35531 -0.04009,-0.53713c-0.13079,-3.24789 1.54672,-7.85896 1.84045,-10.32311c0.21776,-1.82675 0.3493,-4.18024 0.02697,-5.91721c-0.92846,-5.00312 -6.01002,-18.99574 1.39675,-22.39112c6.2093,-2.84645 11.2057,3.24793 14.32918,6.12076c5.19725,4.7802 12.29341,11.54019 19.62068,13.95531c3.34009,1.10091 8.56306,4.23833 7.03598,8.24331c-4.48869,11.77224 -19.89202,2.20928 -29.0857,4.89337c-3.74948,1.09466 -0.47342,6.20936 -3.62452,7.65388z" fill="#ff0000"/><path d="M287.34525,141.94721c3.53598,0.0598 6.01594,2.66987 5.53913,5.82975c-0.47681,3.15989 -3.72982,5.67302 -7.2658,5.61322c-2.50969,-0.04244 -4.4874,-1.36959 -5.25353,-3.26622c-0.68458,0.19042 -1.40325,0.28794 -2.13399,0.27559c-2.69161,-0.04552 -4.77131,-1.56874 -5.40077,-3.68735c-1.31927,1.91555 -3.72561,3.21459 -6.27956,3.1714c-2.27873,-0.03854 -4.1189,-1.13622 -5.01177,-2.75763c-1.36186,1.22223 -3.23688,1.98131 -5.19904,1.94813c-0.62501,-0.01057 -1.21703,-0.10082 -1.76555,-0.25969c-0.00815,0.17879 -0.02585,0.3598 -0.05344,0.54266c-0.47681,3.15989 -3.72982,5.67301 -7.2658,5.61321c-0.02803,-0.00047 -0.05597,-0.00111 -0.08386,-0.0019c-0.91765,2.6957 -3.86115,4.71136 -7.03224,4.65773c-3.53598,-0.0598 -6.01593,-2.66987 -5.53912,-5.82975c0.47681,-3.15989 3.72982,-5.67301 7.2658,-5.61321c0.02803,0.00047 0.05598,0.00111 0.08386,0.0019c0.91765,-2.69569 3.86115,-4.71135 7.03223,-4.65772c0.62501,0.01057 1.21703,0.10082 1.76555,0.2597c0.00815,-0.17879 0.02585,-0.3598 0.05344,-0.54266c0.47681,-3.15989 3.72982,-5.67301 7.2658,-5.61321c2.27873,0.03854 4.1189,1.13622 5.01177,2.75763c1.36186,-1.22223 3.23688,-1.98131 5.19903,-1.94813c2.69161,0.04552 4.77132,1.56874 5.40077,3.68736c1.31927,-1.91555 3.72561,-3.2146 6.27956,-3.17141c2.50969,0.04244 4.48739,1.36959 5.25352,3.26622c0.68458,-0.19042 1.40324,-0.28794 2.13399,-0.27559z" fill="#ffffff"/></g></g></g><g fill-rule="nonzero" stroke="none" stroke-width="0.5" stroke-linecap="butt" stroke-linejoin="miter"><path d="M274.43952,179.24797c0.95788,0.02478 1.83036,0.01566 2.50857,0.02713c0,0 0.5642,0.00954 0.55343,0.64648c-0.01077,0.63694 -0.57497,0.6274 -0.57497,0.6274c-1.00832,-0.01705 -1.96881,-0.05089 -2.9063,-0.12804l-0.29999,0.1627c-2.92386,1.53034 -4.37542,6.7477 -7.29812,7.57657c-5.42813,1.39075 -4.42727,-6.1375 -2.53236,-9.42842c0.8801,-1.52848 0.24532,-3.0036 2.26078,-2.62233c1.10494,2.40196 4.53758,2.96905 7.48424,3.10935l0.15851,-0.08598c0,0 0.38613,-0.20943 0.6462,0.11511zM272.11241,180.19202c-1.29552,-0.21063 -2.57919,-0.5439 -3.92087,-1.07448c-1.00103,-0.39587 -2.27695,-0.81907 -2.74619,-1.98118c-0.0722,0.41898 -1.02736,3.04556 -1.10707,3.46839c-0.46504,2.46653 -2.33096,7.45587 1.83108,6.31503c1.24223,-0.29228 1.87399,-2.17082 2.66926,-3.18968c0.9828,-1.25913 2.04478,-2.56641 3.2738,-3.53807z" fill="#001026"/><path d="M268.86622,183.77292c-0.79527,1.01886 -1.47182,2.90406 -2.71405,3.19634c-4.16204,1.14084 -2.32261,-3.91743 -1.85758,-6.38396c0.07972,-0.42282 1.05642,-3.07669 1.12862,-3.49568c0.46924,1.16211 1.77368,1.57941 2.77471,1.97529c1.34168,0.53059 2.66261,0.89651 3.95813,1.10714c-1.22902,0.97166 -2.30703,2.34174 -3.28984,3.60088z" data-paper-data="{&quot;noHover&quot;:false,&quot;origItem&quot;:[&quot;Path&quot;,{&quot;applyMatrix&quot;:true,&quot;segments&quot;:[[[512.92341,357.31627],[-2.57834,1.86921],[-2.76224,-0.35543]],[[504.54781,355.4174],[2.8719,0.95662],[-2.14272,-0.71373]],[[498.63733,351.77339],[1.03954,2.17384],[-0.13847,0.79144]],[[496.40807,358.34122],[0.1543,-0.79891],[-0.90011,4.66041]],[[500.52857,370.177],[-8.80874,2.28129],[2.63084,-0.59006]],[[506.08953,364.08434],[-1.65434,1.94432],[2.04447,-2.40283]]],&quot;closed&quot;:true}]}" fill="#ffffff"/></g><g fill-rule="nonzero" stroke="#001026" stroke-width="1.2" stroke-linejoin="miter"><g><path d="M292.53577,198.24764l-20.00281,-5.39483l5.64679,-10.25806l16.81107,9.77031c0,0 0.61706,2.1642 0.22061,3.11411c-0.4205,1.00755 -2.67568,2.76848 -2.67568,2.76848z" fill="#505a63" stroke-linecap="butt"/><path d="M271.04972,192.93901c-3.44691,-1.46464 -4.83399,-5.20828 -3.09816,-8.36164c1.73584,-3.15337 5.93731,-4.52235 9.3842,-3.05772c3.44691,1.46464 4.834,5.20829 3.09815,8.36165c-1.73584,3.15337 -5.9373,4.52234 -9.38422,3.05771z" fill="url(#color-1)" stroke-linecap="butt"/><path d="M278.19253,191.92893c0,0 -4.24152,-0.93317 -6.08283,-1.69208c-1.72089,-0.70929 -4.62816,-2.72257 -4.62816,-2.72257" fill="none" stroke-linecap="round"/><path d="M280.99694,186.5631c0,0 -5.30008,-1.06231 -7.27441,-1.70096c-1.45875,-0.47189 -3.50013,-1.7844 -3.50013,-1.7844" fill="none" stroke-linecap="round"/><path d="M271.40217,193.14203c0,0 -0.277,-4.28168 0.3074,-6.39691c0.50842,-1.84022 3.00289,-5.58469 3.00289,-5.58469" fill="none" stroke-linecap="round"/><path d="M276.61225,193.44328c0,0 0.03011,-4.73353 0.36715,-6.82497c0.26201,-1.62579 1.48737,-4.68229 1.48737,-4.68229" fill="none" stroke-linecap="round"/></g><path d="M290.27546,187.50947c2.30225,0.97047 3.46321,3.53988 2.59307,5.73898c-0.87013,2.19909 -2.8809,3.63863 -5.18316,2.66816c-2.30225,-0.97047 -4.02419,-3.98342 -3.15404,-6.18251c0.87013,-2.19909 3.44186,-3.19507 5.74413,-2.22462z" fill="#ffab19" stroke-linecap="butt"/></g></g></g></svg>