<svg viewBox="0,0,14.95053,26.59041" height="26.59041" width="14.95053" xmlns:xlink="http://www.w3.org/1999/xlink" xmlns="http://www.w3.org/2000/svg" version="1.1"><g transform="translate(-232.52473,-167.22609)"><g style="mix-blend-mode: normal" stroke-dashoffset="0" stroke-dasharray="" stroke-miterlimit="10" stroke-linejoin="miter" fill-rule="nonzero" data-paper-data="{&quot;isPaintingLayer&quot;:true}"><path stroke-linecap="butt" stroke-width="0" stroke="none" fill="#ff0000" d="M236.86373,192.06466c0,0 -3.3144,-0.79023 -3.3144,-2.47278c0,-4.23074 0,-22.30327 0,-22.30327h12.90133c0,0 0,17.73214 0,22.03959c0,1.78652 -5.44067,3.41821 -6.79758,3.44185c-0.92237,0.01606 -2.78934,-0.70538 -2.78934,-0.70538z"></path><path stroke-linecap="butt" stroke-width="2" stroke="#000000" fill="none" d="M233.52473,167.22969l0.08301,23.11103"></path><path stroke-linecap="butt" stroke-width="2" stroke="#000000" fill="none" d="M246.47527,190.07703v-22.84734"></path><path stroke-linecap="round" stroke-width="2" stroke="#000000" fill="none" d="M246.42317,189.83252c0,0 -0.42883,0.78165 -1.24927,1.29137c-1.35419,0.84132 -3.47913,1.69262 -5.22986,1.69262c-1.19531,0 -2.54481,-0.25605 -3.70134,-0.85359c-1.56368,-0.8079 -2.66588,-2.0217 -2.66588,-2.0217"></path></g></g></svg>