<svg version="1.1" xmlns="http://www.w3.org/2000/svg" xmlns:xlink="http://www.w3.org/1999/xlink" width="239.76036" height="113.94663" viewBox="0,0,239.76036,113.94663"><defs><radialGradient cx="287.63199" cy="265.79473" r="32.56883" gradientUnits="userSpaceOnUse" id="color-1"><stop offset="0" stop-color="#0006ff"></stop><stop offset="1" stop-color="#00e4ff"></stop></radialGradient><radialGradient cx="229.49054" cy="295.35598" r="62.64859" gradientUnits="userSpaceOnUse" id="color-2"><stop offset="0" stop-color="#0006ff"></stop><stop offset="1" stop-color="#00e4ff"></stop></radialGradient><radialGradient cx="117.71524" cy="309.10633" r="9.88717" gradientUnits="userSpaceOnUse" id="color-3"><stop offset="0" stop-color="#0006ff"></stop><stop offset="1" stop-color="#00e4ff"></stop></radialGradient><radialGradient cx="319.05454" cy="311.54023" r="12.01308" gradientUnits="userSpaceOnUse" id="color-4"><stop offset="0" stop-color="#0006ff"></stop><stop offset="1" stop-color="#00e4ff"></stop></radialGradient></defs><g transform="translate(-106.92441,-209.42074)"><g data-paper-data="{&quot;isPaintingLayer&quot;:true}" fill-rule="nonzero" stroke="none" stroke-width="0.5" stroke-linecap="butt" stroke-linejoin="miter" stroke-miterlimit="10" stroke-dasharray="" stroke-dashoffset="0" style="mix-blend-mode: normal"><path d="M260.66416,224.9231l3.27429,-0.75384c15.49483,-1.59372 31.04012,-6.58689 45.96773,-10.1897c5.12322,-1.23649 13.9568,-4.80712 19.32317,-3.47536c0.16085,0.03992 0.31982,0.08318 0.47711,0.12946l0.01766,-0.04651l3.9266,0.91154c1.03347,0.22715 1.90291,0.84704 2.24309,1.70874c0.43398,1.09931 -0.1273,2.25313 -1.28319,2.86847l-2.89626,1.62063l-0.10153,-0.11094l-0.34912,0.32249c-2.59179,0.64674 -5.13521,1.42452 -7.60484,2.31689c-1.28471,0.46422 -3.26805,1.24526 -5.07182,1.83776c0.3537,0.09772 0.70866,0.19074 1.06926,0.24635c3.23898,0.4995 8.99914,0.89343 11.75016,2.22516c2.25678,1.09247 5.46391,2.31016 5.6594,4.3799c0.16069,1.7013 -3.16918,2.35866 -4.92758,3.36854c-3.95546,2.2717 -8.54197,3.85807 -12.96341,5.49188c-0.28659,0.1059 -0.56762,0.22241 -0.84526,0.34524c4.56475,-0.07468 9.12498,-0.38788 13.74988,-0.12896c0.80549,0.04509 7.89811,0.5995 8.77953,0.93863c0.10368,0.03989 0.20639,0.08107 0.30818,0.12343l0.01909,-0.03789l3.39766,1.04678c0.90461,0.27172 1.64645,0.85367 1.95444,1.63383c0.45912,1.16299 -0.19569,2.387 -1.49001,2.96989l-3.99801,1.89248c-5.88754,2.757 -12.70153,5.05791 -19.28224,6.61599c-0.12276,0.02906 -0.24675,0.05887 -0.37184,0.08908c2.85371,0.57302 5.46909,1.27907 8.54623,1.99444c1.93872,0.45071 4.16979,0.21785 5.93381,0.99155c0.13242,0.05808 0.26243,0.11876 0.39025,0.18182l0.02567,-0.03799l3.59538,1.48509c0.74017,0.30573 1.33118,0.83224 1.59758,1.50707c0.53281,1.34965 -0.43457,2.7815 -2.16069,3.1981l-3.29682,0.79569l-0.02698,-0.06835l-0.23409,0.12225c-3.71719,0.36782 -6.60642,1.60034 -10.17885,2.46581c-6.45984,1.56501 -13.47867,3.24966 -19.50298,5.61365c-3.37109,1.32285 -6.40253,3.19121 -9.99517,4.32007c-5.75076,1.80696 -12.15162,3.39286 -18.41367,4.49986c-3.41628,10.45199 -12.44893,20.18732 -22.39488,26.81129c-15.15839,9.03182 -37.50904,7.76766 -52.85431,-0.31966c-10.23696,-5.3951 -18.28822,-14.29877 -25.32031,-22.61158c-5.83027,-2.02825 -9.42805,-5.52725 -14.68032,-8.31676c-18.85896,-13.1676 -21.76944,-38.6066 -4.41552,-53.60067c4.86045,-4.19952 12.25957,-6.13764 18.93875,-7.73365c14.9495,-0.63671 29.94517,-5.68459 45.09462,-5.09211c14.4667,0.56578 28.39407,7.25653 37.90673,15.71177c0.3988,-0.18175 0.71344,-0.25769 0.71344,-0.25769zM267.84318,279.13303c-0.51303,-2.52588 2.71741,-2.92704 2.71741,-2.92704c0.53869,-0.06597 1.07476,-0.13682 1.60835,-0.21231c0.32183,-1.66074 0.46464,-3.32916 0.4024,-4.99177c-0.18277,-4.88228 -1.33426,-10.07276 -2.17206,-14.91434c-1.15514,-6.67539 -2.69855,-14.51218 -7.53696,-20.29605c-1.53369,-1.83339 -3.64957,-3.32488 -5.4633,-4.99467c-8.32593,-8.43306 -21.73916,-15.68921 -35.70409,-16.22002c-14.6005,-0.55496 -29.16085,4.40484 -43.59426,5.01957c-5.23828,1.28035 -11.49154,2.8231 -15.29096,6.17456c-14.57658,12.85795 -12.44381,34.76043 3.64712,46.09564c2.44646,1.29932 4.49489,2.82571 6.6262,4.24172c0.19516,-0.16226 0.43372,-0.31977 0.72322,-0.46912c2.73028,-1.40841 4.53154,0.72639 4.53154,0.72639c0.92758,1.09934 1.85993,2.18622 2.80045,3.26124c0.6691,0.23258 1.30694,0.6984 1.65826,1.58832c0.05959,0.15095 0.10358,0.29546 0.13366,0.43375c5.19095,5.78051 10.68856,11.22075 17.04472,16.4222c3.36045,2.74997 6.647,5.39344 11.24304,6.93425c3.87822,1.30015 8.12857,1.7746 12.18013,2.69656c5.20254,1.18388 10.49857,0.87492 15.62941,-0.3839c4.3575,-1.0691 8.50678,-1.90138 12.13163,-4.14647c8.13114,-5.3865 15.86228,-13.3469 19.40516,-21.91728c-0.99323,-0.09946 -2.39748,-0.52829 -2.72103,-2.12121zM323.65834,261.011c1.33785,-0.32158 2.58729,-0.68652 3.81918,-1.04262c-1.17662,-0.39779 -2.35782,-0.83622 -3.67447,-1.192c-1.96108,-0.5299 -6.35052,-0.99746 -7.93124,-1.20204l-0.08389,-0.03186l-0.00496,0.01735l-4.46275,-0.77939c-1.13356,-0.18081 -2.1091,-0.82724 -2.47438,-1.75253c-0.4057,-1.02769 0.0584,-2.10304 1.06498,-2.74154l3.28002,-2.17903l0.03886,0.03577c0.16234,-0.11446 0.3306,-0.22433 0.50558,-0.32893c0.96245,-0.57529 8.43397,-1.91005 10.22239,-2.51105c3.52205,-1.18359 7.22973,-2.37479 10.68391,-3.78748c-1.0351,-0.17084 -2.08596,-0.36943 -3.06815,-0.42506c-7.21483,-0.40864 -14.22341,0.47556 -21.40797,-0.11501l-0.19867,-0.09352l-0.0182,0.05788l-3.19795,-0.61463c-1.10293,-0.19614 -2.0453,-0.83469 -2.40288,-1.74048c-0.46751,-1.18426 0.21999,-2.43179 1.56162,-3.00122l4.55004,-2.02786l0.00412,0.00565c0.01708,-0.00996 0.03419,-0.01991 0.05133,-0.02982c4.89716,-2.83478 6.03795,-1.90393 10.99726,-4.05968c1.55832,-0.67738 2.83209,-1.70125 4.34382,-2.44036c0.18685,-0.09136 0.37326,-0.1882 0.56041,-0.28636c-1.02195,-0.27014 -2.03084,-0.59249 -3.07848,-0.78108c-2.16892,-0.39045 -13.47684,-1.23913 -14.3322,-3.13283c-0.87586,-1.93908 0.94236,-4.23057 2.60643,-5.82307c0.04263,-0.0408 0.08645,-0.08041 0.1314,-0.11888c-15.29543,3.69614 -31.06976,8.63677 -46.92945,10.34898l-0.40995,0.10566c1.67952,1.5458 3.85353,3.55209 3.95592,3.67525c5.36885,6.45726 7.23108,14.92232 8.52202,22.38249c0.87251,5.04212 2.09072,10.49873 2.2311,15.58247c0.03497,1.26629 -0.02873,2.53242 -0.18318,3.79437c15.52415,-3.35842 29.27491,-10.05285 44.72839,-13.76755z" fill="#000000"></path><path d="M278.89699,274.82275c0.15446,-1.26193 0.21497,-2.52962 0.18001,-3.7959c-0.14037,-5.08375 -1.37977,-10.55834 -2.25228,-15.60045c-1.29094,-7.46016 -3.15519,-15.97146 -8.52402,-22.42871c-0.1024,-0.12315 -2.27459,-2.13229 -3.9541,-3.67809l0.41018,-0.106c15.85969,-1.71219 31.71107,-6.67686 47.00649,-10.37299c-0.04494,0.03847 -0.12814,0.17564 -0.17078,0.21643c-1.66407,1.59251 -3.44365,3.78626 -2.56778,5.72534c0.85536,1.8937 12.19096,2.75551 14.35988,3.14597c1.04764,0.1886 2.06038,0.51431 3.08233,0.78444c-0.18713,0.09816 -0.47456,0.26004 -0.66143,0.35138c-1.51173,0.7391 -2.78494,1.76351 -4.34326,2.44088c-4.95931,2.15575 -6.09026,1.23225 -10.98743,4.06703c-0.01713,0.00992 -0.03419,0.01989 -0.05127,0.02986l-0.0041,-0.00564l-4.53941,2.03309c-1.34164,0.56942 -1.96753,1.72675 -1.50001,2.91101c0.35757,0.90577 1.3237,1.56243 2.42663,1.75857l3.2047,0.62664l0.01807,-0.05822l0.19901,0.09443c7.18455,0.59058 14.19537,-0.28378 21.4102,0.12486c0.98219,0.05563 2.03314,0.2554 3.06825,0.42624c-3.45418,1.41269 -7.16231,2.61339 -10.68438,3.79699c-1.78839,0.601 -9.26617,1.95177 -10.22862,2.52705c-0.17499,0.10459 -0.34456,0.21644 -0.50691,0.33091l-0.03882,-0.03583l-3.2928,2.19187c-1.00659,0.63849 -1.4818,1.72035 -1.07609,2.74804c0.36528,0.92529 1.27096,1.48528 2.40452,1.66608l4.45526,0.78396l0.00491,-0.01732l0.08382,0.03191c1.58073,0.20458 5.96265,0.67846 7.92373,1.20837c1.31665,0.35577 2.60224,0.85587 3.77885,1.25366c-1.23189,0.3561 -2.48586,0.72535 -3.82372,1.04695c-15.45347,3.7147 -29.2855,10.41881 -44.80964,13.77723z" data-paper-data="{&quot;noHover&quot;:false,&quot;origItem&quot;:[&quot;Path&quot;,{&quot;applyMatrix&quot;:true,&quot;segments&quot;:[[[220.06408,235.46885],[0.01404,-12.35677],[-0.00122,1.06976]],[[220.17695,238.55861],[-0.05489,-1.00232],[0.63678,-0.74461]],[[222.11861,236.21877],[-0.62911,0.85899],[0.93702,-1.27942]],[[225.02925,230.77307],[-0.54741,1.09544],[0,0]],[225.07791,230.72099],[225.06282,230.71237],[[226.79681,227.67789],[0,0],[0.42441,-0.77572]],[[228.9915,226.3761],[-0.94657,0],[1.05134,0]],[[231.31206,227.94426],[-0.36945,-0.9192],[0,0]],[232.60791,230.96792],[[232.56574,230.98599],[0,0],[0.07032,0.15156]],[[232.75899,231.45005],[-0.05825,-0.15795],[0.32037,0.86874]],[[232.79994,239.63949],[-0.15819,-1.47935],[0.31153,2.91342]],[[233.92907,248.53399],[-0.54081,-2.9299],[0.39291,-0.70669]],[[235.01772,246.41584],[-0.27337,0.70126],[2.00809,-5.15124]],[[239.95107,230.81459],[-2.1712,5.07667],[0,0]],[240.0832,230.69645],[240.03325,230.66648],[[241.32822,228.50819],[0,0],[0.43183,-0.74893]],[[243.49553,227.25514],[-0.92661,0],[1.2115,0]],[[245.94668,229.26088],[-0.22941,-1.14398],[0,0]],[246.81503,233.16846],[[246.80881,233.16984],[0,0],[0.00546,0.01535]],[[246.82509,233.21592],[-0.0054,-0.01537],[1.54377,4.39372]],[[248.13782,242.41774],[-0.89554,-4.24334],[0.2814,1.33335]],[[249.43794,246.29364],[-0.34955,-1.31712],[0.04321,0.1628]],[[249.57908,246.78547],[-0.0495,-0.16496],[0.48268,-0.66846]],[[251.00261,244.76242],[-0.41232,0.71072],[0.85362,-1.47141]],[[257.15959,235.19871],[-1.96157,0.07871],[2.00858,-0.0806]],[[262.01088,238.78104],[-1.1123,-1.67442],[0.0285,0.04289]],[[262.09229,238.91127],[-0.0258,-0.04391],[-0.00425,-12.236]],[[263.00535,201.65462],[-1.97598,12.0761],[0,0]],[[262.99907,201.32477],[0,0],[-1.82241,0.7809]],[[258.67456,203.15422],[0.13811,-0.03928],[-7.24146,2.05925]],[[235.84787,202.92492],[7.25892,1.20803],[-4.90611,-0.81647]],[[220.79064,200.06178],[4.77995,1.36316],[-1.19062,-0.33954]],[[217.28794,198.83406],[1.14385,0.47663],[-0.36274,12.30567]]],&quot;closed&quot;:true}]}" fill="url(#color-1)"></path><path d="M270.62377,281.27539c-3.5429,8.57037 -11.29714,16.55212 -19.42828,21.93862c-3.62484,2.24508 -7.78619,3.08236 -12.14369,4.15147c-5.13084,1.25883 -10.44266,1.57103 -15.64521,0.38716c-4.05155,-0.92196 -8.31568,-1.39613 -12.19389,-2.69629c-4.59605,-1.54079 -7.89829,-4.18679 -11.25874,-6.93675c-6.35617,-5.20146 -11.88454,-10.65875 -17.07548,-16.43926c-0.03008,-0.13829 -0.07457,-0.2833 -0.13416,-0.43426c-0.35131,-0.88991 -0.99156,-1.35838 -1.66066,-1.59097c-0.9405,-1.07503 -1.87681,-2.16725 -2.8044,-3.26659c0,0 -1.803,-2.13773 -4.53327,-0.72932c-0.28951,0.14935 -0.52792,0.30712 -0.72307,0.46939c-2.13131,-1.41601 -4.18294,-2.94966 -6.62941,-4.24899c-16.09092,-11.33522 -18.20973,-33.28433 -3.63316,-46.14227c3.79942,-3.35145 10.06464,-4.90258 15.30292,-6.18295c14.43342,-0.61473 29.03768,-5.58342 43.63818,-5.02846c13.96493,0.53079 27.41908,7.80268 35.745,16.23573c1.81374,1.66979 3.93565,3.16703 5.46935,5.00044c4.8384,5.78388 6.39316,13.64337 7.54829,20.31874c0.83781,4.84157 1.98851,10.04916 2.17127,14.93144c0.06224,1.66262 -0.08234,3.33632 -0.40418,4.99706c-0.53358,0.0755 -1.06991,0.14698 -1.6086,0.21294c0,0 -3.23225,0.40486 -2.71922,2.93075c0.32355,1.59292 1.72718,2.02286 2.7204,2.12232z" data-paper-data="{&quot;noHover&quot;:false,&quot;origItem&quot;:[&quot;Path&quot;,{&quot;applyMatrix&quot;:true,&quot;segments&quot;:[[[215.72005,189.48188],[-1.56075,-0.22296],[2.47487,0.35356]],[[217.84137,192.3103],[0,0],[-0.05982,0.41243]],[[217.67712,193.5461],[0.04977,-0.41144],[1.47861,0.71383]],[[222.24881,195.27914],[-1.56694,-0.43389],[4.60133,1.27411]],[[236.66868,197.99275],[-4.71097,-0.784],[6.49532,1.08095]],[[257.32455,198.33992],[-6.49294,1.866],[2.05815,-0.59149]],[[263.22123,195.79002],[-1.96848,0.84318],[9.7535,-3.64919]],[[286.41965,174.39136],[-3.64384,10.04567],[3.80969,-10.50287]],[[291.55861,141.10694],[-2.67951,10.71807],[-0.01502,-4.19469]],[[289.23847,128.15965],[2.27382,3.74099],[-8.72357,-14.35242]],[[245.36225,117.53352],[14.21459,-8.48332],[-1.76508,1.41207]],[[239.90669,121.14978],[1.80303,-1.14827],[0.10756,0.18931]],[[240.18182,121.8132],[-0.07423,-0.25449],[0.7,2.4]],[[238.48182,124.9132],[0,0],[-1.23591,0.36047]],[[234.80447,126.01815],[1.21611,-0.37692],[-0.36807,0.42159]],[[232.94714,126.77127],[0.91039,0],[-0.15443,0]],[[232.51188,126.74383],[0.13594,0.0179],[-6.56927,2.12444]],[[213.33094,134.45711],[6.2911,-3.14235],[-3.32605,1.66133]],[[204.31977,140.66881],[2.4752,-2.91231],[-2.08862,2.45745]],[[199.0554,148.78662],[1.77445,-2.69308],[-2.27855,3.45814]],[[195.89069,160.31159],[-0.01914,-4.11002],[0.01626,3.49054]],[[197.02877,170.36687],[-1.27981,-3.29452],[3.1981,7.4912]],[[213.12541,190.85751],[-7.2062,-5.0583],[0.3168,-0.69669]]],&quot;closed&quot;:true}]}" fill="url(#color-2)"></path><path d="M117.39869,306.59417c-0.01303,-0.01359 -0.02585,-0.02715 -0.03849,-0.0407c-2.0129,1.30046 -4.18551,3.21604 -3.88606,4.42073c0.61533,2.4755 6.84973,5.14627 9.94049,5.49954c1.94841,0.22269 4.16507,0.57589 5.90441,-0.1459c2.32476,-0.96473 4.72783,-7.36235 3.40157,-9.07468c-0.59626,-0.76983 -3.25065,-1.26714 -4.02831,-1.46753c-1.95552,0.01789 -3.91101,0.19127 -5.83893,0.44786l-0.87539,0.87219c0,0 -2.61674,1.53453 -4.5793,-0.51151zM124.59184,300.90504c1.71071,-0.12744 3.43248,-0.17828 5.14835,-0.16844c3.34686,0.87757 6.56367,1.23626 8.6228,3.92807c3.21411,4.20164 -0.37311,13.76299 -5.79924,16.10476c-1.74338,0.75239 -8.12965,1.01008 -10.19701,0.75337c-5.89193,-0.73163 -14.37477,-4.88399 -15.36174,-9.78798c-0.88958,-4.4201 5.7717,-9.92566 10.77762,-11.33669c1.42263,-0.401 3.02201,-0.09611 4.53301,-0.14418c0,0 1.31388,0 2.2762,0.65109z" fill="#000000"></path><path d="M121.96254,307.05597l0.88658,-0.87352c1.92791,-0.2566 3.92764,-0.4194 5.88316,-0.4373c0.77767,0.20041 3.44952,0.71375 4.04579,1.48357c1.32627,1.71233 -1.0896,8.17177 -3.41435,9.13649c-1.73934,0.72179 -3.99929,0.38238 -5.9477,0.15967c-3.09075,-0.35325 -9.39193,-3.07716 -10.00726,-5.55266c-0.29945,-1.20468 1.89274,-3.15483 3.90565,-4.45528c0.01264,0.01354 0.02541,0.02715 0.03844,0.04074c1.96256,2.04603 4.60968,0.49831 4.60968,0.49831z" data-paper-data="{&quot;noHover&quot;:false,&quot;origItem&quot;:[&quot;Path&quot;,{&quot;applyMatrix&quot;:true,&quot;segments&quot;:[[[177.32617,205.32369],[1.5,2],[-0.00996,-0.01328]],[[177.29675,205.28391],[0.00966,0.01324],[-1.53848,1.2712]],[[174.32661,209.60517],[-0.22887,-1.17758],[0.4703,2.4198]],[[181.92421,214.98097],[-2.36229,-0.34531],[1.48919,0.21768]],[[186.437,214.83835],[-1.32939,0.70555],[1.77683,-0.94302]],[[189.03685,205.96785],[1.01368,1.6738],[-0.45573,-0.75251]],[[185.95798,204.53334],[0.59438,0.1959],[-1.49462,0.01749]],[[181.49524,204.97112],[1.47352,-0.25082],[0,0]],[180.82617,205.82369]],&quot;closed&quot;:true}]}" fill="url(#color-3)"></path><path d="M315.90174,308.17862c-0.38636,1.11073 -0.46452,2.48842 -0.47688,3.81123c-0.0137,1.46751 -0.55331,2.45991 0.85417,3.65787c1.85829,1.58167 6.4723,1.62161 8.99783,1.90472c2.19188,0.2457 7.64317,1.16945 9.94649,0.56705c3.68855,-0.96468 4.51441,-5.74803 3.7067,-8.12639c-6.92309,-2.58008 -13.35513,-3.53911 -21.02562,-3.53911l1.77551,0.38476c0,0 -1.25941,1.96946 -3.77821,1.33986zM323.664,301.50755c7.29517,0.45828 13.86499,1.9246 20.36897,5.28492c2.54243,5.60302 2.11052,13.57186 -6.64422,16.15378c-3.24991,0.95844 -9.79043,0.03133 -13.05553,-0.33221c-4.14587,-0.46161 -9.86882,-0.83013 -12.8541,-3.49088c-4.66563,-4.15839 -3.91733,-14.11652 2.25425,-17.3246c4.40265,-2.28856 5.53469,-1.30984 9.80583,-0.3284c0,0 0.04595,0.01198 0.12481,0.03738z" fill="#000000"></path><path d="M319.63219,306.80382l-1.77856,-0.38203c7.67049,0 14.21663,0.97826 21.13971,3.55835c0.80772,2.37837 -0.0333,7.20935 -3.72185,8.17403c-2.30332,0.60239 -7.82155,-0.30701 -10.01344,-0.55273c-2.52554,-0.28312 -7.18186,-0.3539 -9.04016,-1.93556c-1.40748,-1.19797 -0.87208,-2.21071 -0.85837,-3.67822c0.01235,-1.32282 0.09677,-2.72021 0.48312,-3.83095c2.5188,0.62961 3.78956,-1.3529 3.78956,-1.3529z" data-paper-data="{&quot;noHover&quot;:false,&quot;origItem&quot;:[&quot;Path&quot;,{&quot;applyMatrix&quot;:true,&quot;segments&quot;:[[[285.03743,207.56997],[1.92514,0.61544],[-0.2953,1.08573]],[[284.67295,211.29546],[0.00944,-1.29306],[-0.01047,1.43449]],[[285.3258,214.87103],[-1.07575,-1.17101],[1.42031,1.54608]],[[292.20292,216.7329],[-1.93029,-0.27675],[1.67527,0.24018]],[[299.80511,217.2872],[-1.76045,0.58884],[2.81919,-0.94297]],[[302.63817,209.34365],[0.61735,2.32485],[-5.29138,-2.52203]],[[286.56811,205.88417],[5.86262,0],[0,0]],[287.92515,206.26027]],&quot;closed&quot;:true}]}" fill="url(#color-4)"></path><path d="M185.1074,230.83175c0.33306,2.54425 -2.92087,2.80467 -2.92087,2.80467l-1.78458,-0.02429c-7.60745,2.95783 -15.29838,6.89858 -18.22012,13.58114c-0.97798,2.23682 -0.30827,4.72168 -0.45731,7.08273c0,0 -0.16144,2.55443 -3.42838,2.4282c-3.26694,-0.12623 -3.10551,-2.68065 -3.10551,-2.68065c0.17432,-2.75511 -0.39548,-5.63701 0.70891,-8.25686c3.43483,-8.14808 12.31335,-13.07575 21.57156,-16.72758l4.04933,-0.49118c0,0 3.25393,-0.26042 3.58699,2.28383z" fill="#d3faff"></path><path d="M216.2963,261.94651c-2.45145,0.38336 -2.94174,-1.53343 -2.94174,-1.53343l-0.38263,-1.53996c-2.42495,-6.3392 -3.18205,-12.19283 -3.18205,-18.77557c0,0 0,-1.95475 2.5,-1.95475c2.5,0 2.5,1.95475 2.5,1.95475c0,6.20564 0.67016,11.67396 2.97118,17.6522l0.4964,1.89663c0,0 0.49029,1.9168 -1.96116,2.30015z" fill="#000000"></path><path d="M228.16191,262.53197c-2.32119,0.72598 -3.24967,-1.08897 -3.24967,-1.08897l-0.96165,-1.90725c-0.52708,-1.48055 -0.43201,-3.06444 -0.90834,-4.55546c-0.21386,-0.6694 -0.93242,-1.18335 -1.23014,-1.83286c-1.97348,-4.3055 -3.25792,-9.30612 -4.08581,-13.80442c0,0 -0.35355,-1.93511 2.12132,-2.21155c2.47487,-0.27645 2.82843,1.65866 2.82843,1.65866c0.76624,4.2275 1.98212,8.95135 3.82548,13.00092c0.3633,0.79811 1.14402,1.4692 1.40696,2.29103c0.45831,1.43244 0.31556,2.96336 0.84972,4.37966l0.79641,1.52933c0,0 0.92848,1.81494 -1.39272,2.54092z" fill="#000000"></path><path d="M203.57597,258.66339c-0.00006,-0.11246 -0.00059,-0.2257 -0.00178,-0.3398c0,0 0,-2.81785 3.60385,-2.81785c3.60385,0 3.60385,2.81785 3.60385,2.81785c-0.0205,1.51926 -0.34453,3.67236 0.81633,5.07548c3.19075,3.85657 12.62221,9.49872 19.09652,8.11821c3.99352,-0.85154 0.79096,-5.69324 8.16615,-4.0776c9.11077,1.99584 2.65096,10.92376 1.13576,14.46036c-1.33603,3.1184 -1.96957,5.83236 -4.63487,8.37687c-5.98763,5.71629 -14.82383,7.80078 -23.8248,8.4595c-2.44578,-1.03328 -5.21778,-1.69335 -7.33733,-3.09982c-6.1731,-4.09629 -6.93416,-8.90949 -8.10316,-14.69566c-0.53817,-2.66369 -1.29959,-5.95869 -0.72064,-8.66003c0.95127,-4.43859 3.58731,-7.40559 6.04448,-11.25433l1.49196,-1.78906c0,0 0.23462,-0.27517 0.66367,-0.57413z" fill="#000000"></path></g></g></svg>