<svg version="1.1" xmlns="http://www.w3.org/2000/svg" xmlns:xlink="http://www.w3.org/1999/xlink" width="74.78817" height="106.61168" viewBox="0,0,74.78817,106.61168"><g transform="translate(-193.72119,-130.90811)"><g data-paper-data="{&quot;isPaintingLayer&quot;:true}" fill-rule="nonzero" stroke="none" stroke-linecap="butt" stroke-linejoin="miter" stroke-miterlimit="10" stroke-dasharray="" stroke-dashoffset="0" style="mix-blend-mode: normal"><path d="M199.25858,164.12535l11.825,-32.07059l29.3966,4.80508l20.15713,10.90778l-5.1165,22.2861l-0.30628,11.5527l13.29483,4.81353l-2.85498,18.82748l0.7005,18.52604l-12.86067,-2.73673l0.23761,16.48305l-16.83304,-1.91135l-5.93538,-18.28976l-17.99292,4.69102l-13.21764,-25.64728l5.99298,-16.57971z" fill="#ffffff" stroke-width="0"/><path d="M216.81207,166.51338c-0.75255,-0.06961 -1.50509,-0.13923 -2.25764,-0.20884l-0.09989,-0.06647l-0.01015,0.04568l-1.72257,-0.38279c-0.68317,-0.137 -1.22255,-0.67181 -1.36626,-1.35252l-0.16882,-0.05627c-0.71509,-0.21992 -1.23488,-0.88574 -1.23488,-1.67296c0,-0.9665 0.7835,-1.75 1.75,-1.75h1.95136v0.3847c0.71778,-0.10037 1.43504,-0.10464 2.13585,0.04724l1.07888,0.17727c0,0 1.11022,0.18504 1.40153,1.14869c0.3943,0.32088 0.64618,0.81004 0.64618,1.35804c0,0.30294 -0.07698,0.5879 -0.21243,0.83639c-0.21069,1.6446 -1.89114,1.49183 -1.89114,1.49183z" fill="#9966ff" stroke-width="0.5"/><path d="M238.09223,174.09688c-0.71279,-0.14618 -1.42557,-0.29236 -2.13836,-0.43854l-0.14965,-0.13809l-0.0309,0.06952l-1.71972,-0.76432c-0.63179,-0.26401 -1.07576,-0.88785 -1.07576,-1.6154c0,-0.91431 0.70117,-1.66485 1.59512,-1.74324l1.9321,-0.19321l0.00747,0.07468c0.11885,-0.02885 0.23898,-0.05327 0.36059,-0.07258c0.75781,-0.12035 1.4634,0.46203 2.19511,0.69305l0.06361,0.06463l0.01432,-0.03222l1.71972,0.76432c0.63179,0.26401 1.07576,0.88785 1.07576,1.6154c0,0.9665 -0.7835,1.75 -1.75,1.75c-0.06679,0 -0.13271,-0.00374 -0.19756,-0.01103l-0.91527,-0.09153c-0.50434,0.16502 -0.9866,0.06857 -0.9866,0.06857z" fill="#9966ff" stroke-width="0.5"/><path d="M223.47978,172.02867l-1.71972,-0.76432c-0.63179,-0.26401 -1.07576,-0.88785 -1.07576,-1.6154c0,-0.91431 0.70117,-1.66485 1.59512,-1.74324l1.9321,-0.19321l0.01119,0.11188c0.089,-0.03916 0.178,-0.07831 0.26701,-0.11747l0.24796,0.16277l0.0276,-0.1242l1.72257,0.38279c0.80079,0.16059 1.40402,0.86775 1.40402,1.7158c0,0.90837 -0.69209,1.65509 -1.57773,1.74163l-0.86623,0.09625c-0.78322,0.87333 -1.96814,0.3467 -1.96814,0.3467z" fill="#9966ff" stroke-width="0.5"/><path d="M246.11266,148.83407c0.77245,-1.15952 1.56353,-2.30823 2.40719,-3.41701c0.35267,-0.46349 1.5958,-1.21711 1.04336,-1.40151c-4.44818,-1.48473 -8.50891,-3.57915 -12.65206,-5.95557c-2.82734,-1.05511 -5.57988,-2.38295 -8.48653,-3.21002c-5.80982,-1.65316 -14.75938,0.36407 -17.68749,6.10238c-0.5051,0.98986 -0.81618,2.3307 -1.02848,3.66567c3.40596,-2.67189 6.57408,-4.84177 10.7269,-6.45639c0.77144,-0.29994 3.35192,-1.58617 4.00945,-1.64793c3.79589,-0.35653 4.64341,1.4995 4.04929,3.9151c0.119,-0.00513 0.2383,-0.00976 0.35794,-0.01387c-0.51502,2.03686 -1.91129,4.23874 -2.64853,6.08229c-0.10302,0.25761 -0.28347,1.30985 -0.71744,2.02396c0.60168,-0.04523 1.21988,0.05937 1.82646,0.05937c1.33725,0 3.1432,-0.07185 4.46387,0.23384c1.67351,0.38736 3.21349,1.26949 4.66764,2.18388c0.94785,0.59602 1.69166,2.10859 2.78677,1.87533c1.71232,-0.36473 3.03948,-1.75799 4.65551,-2.43143c0.52013,-0.16203 1.05699,-0.32826 1.60591,-0.49344zM207.59302,139.4146c3.4318,-6.9596 12.40209,-9.05985 19.50185,-8.38778c3.91172,0.37029 7.68057,2.50006 11.30377,3.86497c3.08973,1.7593 6.23461,3.64843 9.50513,5.0482c0.56074,0.23999 4.21527,1.63578 4.38127,1.87518c0.62935,0.90767 0.71068,2.17974 0.53461,3.27013c-0.21261,1.31672 -1.93626,3.26592 -3.06926,4.69822c1.75892,-0.02854 3.31277,-0.44701 4.41751,-1.43547c0.06137,-0.05491 0.12037,-0.11168 0.17721,-0.17014c1.02294,-0.11944 2.21078,-0.48872 2.9196,0.18393c1.79217,1.7007 0.97133,5.47478 0.40421,7.36618c-1.80253,6.01161 -5.48592,13.40022 -10.57317,17.27233l-0.02727,0.04988c0.6407,0.60009 1.43524,1.33817 2.11311,2.0239c3.28431,-0.25894 5.54364,0.38024 8.1636,2.62437l0.28019,0.27471c0,0 1.23744,1.23744 0,2.47487c-1.23744,1.23744 -2.47487,0 -2.47487,0l-0.11008,-0.11556c-1.50934,-1.35854 -2.7283,-1.82609 -4.38738,-1.83462c-0.20914,1.18208 -0.91386,2.13329 -1.85627,2.92193c1.23691,0.48189 2.42212,0.80337 3.95632,0.92073l1.68349,-0.00151c0,0 1.75,0 1.75,1.75c0,0.59775 -0.20417,0.99133 -0.47304,1.25047c1.65821,0.20204 3.33814,0.32326 4.96739,0.31684c0,0 1.75,0 1.75,1.75c0,0.04207 -0.00101,0.08312 -0.00298,0.12319c4.25959,3.37297 7.06144,10.83469 2.35734,15.02622c-1.92867,1.71851 -4.6238,2.00605 -7.03139,2.01632c-3.51298,0.01498 -7.27831,-0.34524 -10.50748,-1.76212c0.24055,0.66518 0.48593,1.31628 0.74451,1.94104c2.62358,4.17052 5.68172,5.59332 10.20692,7.36955c0.84462,0.33153 5.02114,1.7205 5.28725,2.75714c1.35484,5.27765 -5.59665,4.63803 -8.33513,4.52342c-2.21139,-0.09256 -5.88082,-0.40085 -8.69713,-1.20352c1.38923,2.33515 2.82346,4.63394 4.35383,6.85646c1.44189,2.09402 4.57836,5.5277 3.30646,8.46114c-0.40617,0.93676 -1.48528,1.40139 -2.22792,2.10209c-1.75184,0.38431 -3.55938,0.64978 -5.35083,0.56411c-9.22227,-0.441 -9.4299,-8.65813 -11.88425,-15.37844c-0.9252,-2.53331 -1.95397,-5.22461 -3.16391,-7.85178c-2.12091,5.00156 -7.0858,8.86536 -12.65152,8.59554l-0.00002,-0.00003c-2.52542,-0.12243 -5.71921,-0.62882 -7.36475,-2.84795c-2.23151,-3.00935 -1.76858,-5.99148 -0.03337,-8.22273c-3.97879,-0.39534 -7.22038,-3.46703 -8.942,-7.94525c-0.2611,-0.2699 -0.38643,-0.54564 -0.38643,-0.54564c-1.80884,-4.06849 -1.992,-10.29516 1.73382,-12.47681c-1.93909,-2.81248 -3.74715,-6.58848 -0.14276,-8.74076c2.26976,-1.35533 4.99169,-0.05598 7.28654,1.51648l0.3156,-0.53242c0.02636,-0.04972 0.05541,-0.10012 0.08732,-0.15117c0.01116,-0.01785 0.02239,-0.03535 0.03371,-0.05251c-2.29299,-1.25291 -4.39625,-2.78895 -6.01336,-5.0144c-1.13344,-1.55983 -1.99452,-3.17933 -2.61235,-4.83414c-2.10917,-0.21042 -4.07238,-0.76019 -6.19045,-1.33775l-0.71244,-0.31822c0,0 -1.56525,-0.78262 -0.78262,-2.34787c0.78262,-1.56525 2.34787,-0.78262 2.34787,-0.78262l0.0681,0.07205c1.47491,0.40232 2.86361,0.81804 4.29829,1.06899c-0.24331,-1.46919 -0.31935,-2.95166 -0.24712,-4.43149c-1.10632,0.06795 -1.61665,-1.05476 -1.61665,-1.05476c-1.25735,-2.79652 -2.7777,-4.68542 -5.15901,-6.57766l-0.07968,0.00359c0,0 -1.56525,-0.78262 -0.78262,-2.34787c0.78262,-1.56525 2.34787,-0.78262 2.34787,-0.78262l0.70086,0.39386c2.24841,1.80939 3.87966,3.65533 5.21662,6.01316c0.6051,-2.55172 1.60635,-5.04743 2.90212,-7.402c-2.0052,-0.09772 -6.78527,-0.65602 -6.66571,-2.99187c0.04836,-0.94482 0.44775,-1.61393 1.04587,-2.08747c0.45175,-0.65084 1.30727,-0.73639 1.30727,-0.73639c0.09692,-0.00959 0.19367,-0.01873 0.29027,-0.02744c0.11347,-0.03189 0.22863,-0.0611 0.34505,-0.08786c0.04704,0.01614 0.09424,0.03193 0.14159,0.04739c1.49146,-0.11377 2.9541,-0.13318 4.45559,-0.13561c0.27319,-2.16076 0.68432,-4.64777 1.56528,-6.43432zM223.68221,142.37813l0.95229,-1.52257c0.29843,-0.44442 1.42267,-1.58401 0.99777,-1.25839c-1.59188,1.21995 -3.83384,1.63499 -5.65044,2.39821c-1.45539,0.61147 -2.77261,1.37826 -4.02594,2.23432c-6.99491,5.66207 -12.6117,15.40314 -10.43702,24.37026c0.3773,0.24211 0.71294,0.67287 0.71294,1.43927c0,0.2244 -0.02877,0.42003 -0.07895,0.59057c0.47272,1.22771 1.1058,2.43328 1.91653,3.60363c0.40775,-3.02565 1.35502,-6.42233 5.18982,-6.29124c0.7657,0.02618 3.78208,4.28682 4.74175,4.97559c2.9266,2.10047 5.93205,3.18959 9.50686,3.17688c0,0 1.75,0 1.75,1.75c0,1.75 -1.75,1.75 -1.75,1.75c-1.81935,-0.00558 -3.62042,-0.25399 -5.34766,-0.74236c-0.34001,0.32624 -0.73356,0.45742 -0.73356,0.45742h0.00001c-1.11471,0.36607 -2.19266,0.85671 -3.21597,1.43067l-0.00172,0.01464c7.72076,1.40946 15.65408,3.93706 23.22736,0.56221c1.47893,-0.65905 2.88003,-1.48087 4.30586,-2.24806c0.55994,-0.30129 1.8933,-0.56095 1.55772,-1.10104c-0.58547,-0.94225 -3.08931,-2.7011 -3.92806,-3.6441c0,0 -1.16264,-1.30797 0.14533,-2.4706c0.13529,-0.12026 0.26902,-0.21408 0.40008,-0.28566c0.07695,-0.14872 0.1431,-0.23692 0.1431,-0.23692l0.93541,-1.13054c4.01885,-2.95795 6.43195,-8.39638 8.20205,-12.89878c0.32692,-0.83154 2.54662,-5.15348 1.9231,-6.17312c-0.14558,-0.23807 -0.37158,0.45461 -0.63567,0.54477c-0.66125,0.22576 -1.37581,0.24524 -2.06214,0.3763c-1.71511,0.32751 -3.34639,0.62867 -4.98891,1.03025c-0.22278,0.12938 -0.49475,0.22002 -0.8131,0.20721c-0.50925,0.13532 -1.02107,0.2822 -1.53826,0.4444c-1.98404,0.82655 -3.73974,2.46576 -5.88182,2.6421c-2.52897,0.20819 -5.59621,-3.5694 -8.15645,-4.13649c-2.02971,-0.44958 -4.14544,0.19519 -6.16063,-0.1586c-1.14758,-0.20147 -2.75969,-0.00466 -3.34578,-1.01164c-0.625,-1.07382 0.32584,-2.46813 0.6175,-3.67587c0.28886,-1.19611 0.80864,-2.32291 1.33966,-3.44189c-0.30405,-0.78525 0.18693,-1.57083 0.18693,-1.57083zM230.11122,202.95055l0.68775,1.60425c0.47111,0.69945 0.92185,1.41769 1.35391,2.15048c0.12175,0.14763 0.2084,0.30908 0.27007,0.46412c2.27448,3.96018 4.02235,8.31299 5.50483,12.40592c1.85625,5.12487 1.63858,12.80799 8.80014,13.11138c1.20954,0.05124 2.43069,-0.02087 3.62542,-0.21643c0.84108,-0.39977 0.13229,-1.60252 -0.23185,-2.3641c-0.89924,-1.88074 -2.49623,-3.34639 -3.48205,-5.20728c-3.7935,-7.16085 -8.14432,-14.24329 -12.62136,-21.04705c-0.36605,0.37531 -1.14013,0.91391 -2.1811,0.25147c-1.47641,-0.93953 -0.53688,-2.41594 -0.53688,-2.41594c0.8219,-1.28686 1.69341,-2.55019 2.68447,-3.7118l1.21116,-1.00818c0,0 1.36652,-1.09322 2.45974,0.2733c1.09322,1.36652 -0.2733,2.45974 -0.2733,2.45974l-0.7402,0.55291c-0.15394,0.17865 -0.30436,0.3603 -0.45164,0.54453c1.55504,2.38611 3.02,4.84117 4.45422,7.31885c1.35073,-0.32519 1.93617,1.04084 1.93617,1.04084l0.4609,1.12781c0.63982,1.02371 1.53006,3.27062 2.67543,3.88156c1.67534,0.89363 5.37325,1.27226 7.22792,1.5604c1.53754,0.23887 3.06766,0.17133 4.61379,0.17502c0.13001,0.00031 0.26002,0.00104 0.39003,0.00199c-0.50969,-0.23417 -0.91983,-0.4826 -1.02912,-0.52557c-5.33939,-2.09939 -8.94842,-4.0518 -12.03855,-9.02185c-1.30402,-3.11069 -2.27822,-6.75421 -3.87066,-9.69754c-1.04203,-1.92599 -3.74073,-2.91721 -5.38795,-4.15055c-4.18172,-3.13102 -9.75581,-6.42145 -15.06825,-7.02476l-0.27707,0.11813c-2.27854,0.4938 -3.9142,0.43549 -5.62179,-0.19929l0.1728,0.2451c0,0 0.78262,1.56525 -0.78262,2.34787c-1.56525,0.78262 -2.34787,-0.78262 -2.34787,-0.78262l0.32011,0.2271c-1.28372,-0.96279 -2.76651,-2.4916 -4.27911,-3.09085c-1.43193,-0.56728 -3.16816,-1.06915 -2.21552,0.85058c0.40472,0.81558 0.7441,1.66761 1.21972,2.44398c0.23941,0.39081 0.53706,0.74114 0.83442,1.09167c0.20483,0.01174 0.41506,0.03027 0.63079,0.05585c0.96862,0.11485 1.94128,0.33293 2.83578,0.7219c3.33762,1.45133 4.52463,4.60314 5.73647,7.69034c0.32516,-0.21054 0.65464,-0.38351 0.98357,-0.51048c-0.53923,-1.58783 -1.09419,-3.10927 -1.80113,-4.66017c0,0 -0.72416,-1.59314 0.86899,-2.3173c1.59314,-0.72416 2.3173,0.86899 2.3173,0.86899c0.87524,1.93056 1.54475,3.82331 2.21355,5.82969l0.20088,0.78515l1.1913,0.5107c1.35896,0.60435 2.69575,1.25884 4.02008,1.93572c0.89237,0.87771 1.72745,1.82402 2.51124,2.82398c0.49264,0.14793 0.82513,0.48043 0.82513,0.48043zM205.55661,200.70755c1.63288,4.9722 5.30259,7.90374 10.07181,5.42839c-0.31391,-1.12593 0.76163,-1.84295 0.76163,-1.84295l0.15613,0.01582c0.07447,-0.09922 1.9771,-2.6082 2.09406,-2.85723c0.91553,-1.94945 -0.22217,-1.52826 -1.08949,-0.34259c-0.1598,0.34561 -0.45118,0.70194 -0.98247,0.85229c-0.31244,0.12661 -0.69884,0.1752 -1.13337,0.00377c-0.45049,-0.12358 -0.73045,-0.39429 -0.90444,-0.68304c-0.279,-0.36587 -0.33892,-0.74619 -0.30513,-1.07829c-1.05069,-2.58849 -1.78868,-6.31418 -4.59742,-7.48941c-5.6012,-2.34365 -6.04478,3.3978 -4.60149,7.18797c0.37963,0.35363 0.53018,0.80529 0.53018,0.80529zM259.18963,189.59089c0,0 -0.43362,-0.19272 -0.74891,-0.60324c-3.16085,-0.42167 -6.4868,-1.47189 -9.4445,-1.24689c-1.88345,0.14328 0.02763,3.24795 0.62447,3.72058c0.11213,0.08879 0.22685,0.16172 0.34371,0.2207c0.4214,-0.22863 1.04039,-0.37145 1.7227,0.10869c0.59023,-0.13808 1.1803,-0.38665 1.72371,-0.55323l1.64622,-0.73165c0.22616,-0.10665 0.47886,-0.16627 0.74549,-0.16627c0.9665,0 1.75,0.7835 1.75,1.75c0,0.41863 -0.147,0.80293 -0.39219,1.1041l-1.44448,1.8056c-0.22307,0.56469 -0.43286,1.14351 -0.76286,1.65264c-0.09764,0.15064 -0.65651,0.27213 -0.47885,0.24644c1.13125,-0.1636 2.37943,-0.61483 3.42558,-0.15433c1.74365,0.76752 1.44107,2.46647 3.39861,2.46647l1.06448,-0.91062c0,0 0.6136,-0.4602 1.33302,-0.36504c0.72426,-3.11529 -2.18146,-7.38083 -4.5062,-8.34393zM228.92456,209.6283c-2.00181,3.18019 -5.3543,5.55194 -9.07068,3.39732c-1.06332,-0.61647 -1.36989,-2.09529 -2.34071,-2.84907c-2.6228,0.56381 -5.22897,3.69082 -3.2378,6.42943c0.92062,1.2662 3.37089,1.3742 4.73367,1.44504c4.65856,0.24214 9.05431,-3.88127 9.91553,-8.42272zM221.1974,208.67523c0.39746,0.3841 0.30567,1.11324 0.69515,1.50543c0.57465,0.57864 1.99081,-0.54321 2.183,-0.66644c2.00882,-1.28806 2.73233,-2.22389 3.08661,-4.13058c-0.75491,-1.03309 -1.56373,-2.00614 -2.4338,-2.89815c-0.79414,-0.38533 -1.59304,-0.76106 -2.39625,-1.12725c-0.2422,1.74806 -1.63186,3.31677 -2.68556,4.65998c0.03628,0.06588 0.07079,0.13655 0.10327,0.21231c0.25164,0.58717 0.19709,1.05186 0.02635,1.40525c0.50649,0.30595 0.998,0.63045 1.42124,1.03946zM245.31899,186.32202c0.46536,-0.77027 1.26898,-1.31317 2.11783,-1.69388c-0.67843,-0.26059 -1.37152,-0.55978 -2.11524,-0.89735c0,0 -0.1138,-0.05173 -0.26675,-0.15795c-0.78823,0.34815 -1.55094,0.65626 -2.20509,0.94631c-2.39564,1.06221 -4.8123,1.61923 -7.24185,1.83471c2.84344,1.15177 6.20835,2.51478 9.20195,3.72737c-0.30486,-1.26558 -0.19917,-2.58678 0.50916,-3.75921zM249.66114,198.84528c-2.74041,-1.2725 -3.03942,-2.54646 -2.32958,-3.96637c-1.69892,-0.68817 -3.39783,-1.37634 -5.09675,-2.06451c0.70509,0.59611 1.33493,1.27753 1.82133,2.12051c0.2961,0.51317 0.56994,1.05352 0.82725,1.61264c0.51749,0.2911 0.77623,0.80859 0.77623,0.80859l0.06246,0.32573c2.92542,3.01798 7.93939,3.36691 11.98555,3.3899c-0.36838,-0.47033 -0.75029,-0.92321 -1.27041,-1.14798c-1.48735,-0.64275 -3.75823,0.3306 -4.77012,-0.93488c-0.01828,-0.02286 -0.03573,-0.04695 -0.05239,-0.07223c-0.6645,0.03239 -1.36181,0.20336 -1.95357,-0.07142zM251.22162,195.45896c0.15218,-0.01325 0.30154,-0.02366 0.4322,-0.03177c0.00841,-0.03111 0.01695,-0.06213 0.02562,-0.09305c-0.13334,0.02305 -0.2658,0.04263 -0.39666,0.05799c-0.02028,0.02278 -0.04067,0.04509 -0.06116,0.06683z" fill="#9966ff" stroke-width="0.5"/></g></g></svg>