<svg version="1.1" xmlns="http://www.w3.org/2000/svg" xmlns:xlink="http://www.w3.org/1999/xlink" width="61.68539" height="61.68539" viewBox="0,0,61.68539,61.68539"><defs><radialGradient cx="240" cy="180" r="30.8427" gradientUnits="userSpaceOnUse" id="color-1"><stop offset="0" stop-color="#ff1212"/><stop offset="1" stop-color="#ff1212" stop-opacity="0"/></radialGradient></defs><g transform="translate(-209.1573,-149.1573)"><g data-paper-data="{&quot;isPaintingLayer&quot;:true}" fill-rule="nonzero" stroke-linecap="butt" stroke-linejoin="miter" stroke-miterlimit="10" stroke-dasharray="" stroke-dashoffset="0" style="mix-blend-mode: normal"><path d="M217.6,171.04c0,0 11.44948,0 17.40296,0c1.6074,0 -4.6281,-11.04 -2.464,-11.04c6.28406,0 29.86104,17.1108 29.86104,20.05136c0,3.03009 -22.23614,19.94864 -28.51704,19.94864c-2.42004,0 2.43529,-11.04 0.672,-11.04c-5.86937,0 -16.95496,0 -16.95496,0z" fill="#460505" stroke="#000000" stroke-width="2"/><path d="M209.1573,180c0,-17.03395 13.80875,-30.8427 30.8427,-30.8427c17.03395,0 30.8427,13.80875 30.8427,30.8427c0,17.03395 -13.80875,30.8427 -30.8427,30.8427c-17.03395,0 -30.8427,-13.80875 -30.8427,-30.8427z" fill="url(#color-1)" stroke="none" stroke-width="0"/></g></g></svg>