<svg version="1.1" xmlns="http://www.w3.org/2000/svg" xmlns:xlink="http://www.w3.org/1999/xlink" width="145.62031" height="146.28776" viewBox="0,0,145.62031,146.28776"><defs><linearGradient x1="177.13558" y1="154.93989" x2="185.39117" y2="199.91418" gradientUnits="userSpaceOnUse" id="color-1"><stop offset="0" stop-color="#cc2981"/><stop offset="1" stop-color="#a92292"/></linearGradient><linearGradient x1="289.07393" y1="145.5406" x2="285.29227" y2="191.05882" gradientUnits="userSpaceOnUse" id="color-2"><stop offset="0" stop-color="#cc2981"/><stop offset="1" stop-color="#a92292"/></linearGradient><linearGradient x1="280.13268" y1="214.58843" x2="280.13268" y2="237.26195" gradientUnits="userSpaceOnUse" id="color-3"><stop offset="0" stop-color="#9966ff"/><stop offset="1" stop-color="#66ebff"/></linearGradient><linearGradient x1="311.67774" y1="210.59522" x2="311.67774" y2="237.3311" gradientUnits="userSpaceOnUse" id="color-4"><stop offset="0" stop-color="#9966ff"/><stop offset="1" stop-color="#66ebff"/></linearGradient></defs><g transform="translate(-170.14172,-92.08944)"><g data-paper-data="{&quot;isPaintingLayer&quot;:true}" fill-rule="nonzero" stroke-miterlimit="10" stroke-dasharray="" stroke-dashoffset="0" style="mix-blend-mode: normal"><g data-paper-data="{&quot;index&quot;:null}" stroke="#000000" stroke-width="0.90024" stroke-linecap="round" stroke-linejoin="miter"><path d="M269.70481,165.22365c0,0 2.68503,-13.03762 2.87793,-13.69239c0.19286,-0.65465 1.0956,-6.37744 9.7687,-13.06772c0,0 9.95148,29.35709 -0.57363,43.31881c-0.00047,-0.00075 -3.24121,-8.17823 -12.07301,-16.5587zM269.88949,165.40109c-0.71227,-0.70315 -2.2271,-1.79986 -2.2271,-1.79986M282.32756,184.15365c0,0 -0.22415,-1.55046 -0.5502,-2.37205" fill="#be1e2d"/><path d="M284.91312,174.50765c0,0 -2.06858,-0.23982 -4.36051,-3.58318c-1.42527,-2.07186 -2.85313,-6.51314 -2.85313,-6.51314l-0.00228,0.16878c0.19572,-1.0383 0.35379,-2.21157 0.40188,-3.42788c0.08315,-2.05848 -0.12378,-4.95788 -0.40903,-7.77007l-0.02097,-0.39776c0,0 0.38211,-5.60078 5.97939,-9.45071l0.09003,-0.00296c1.19401,4.64322 2.74061,11.56916 2.93522,16.78823c0.2185,5.85437 -0.70995,10.7214 -1.81489,14.32871l0.0543,-0.14002v0v0v0v0v0zM276.69002,168.14849c0,0 0.87381,-3.11086 1.00944,-3.73719" fill="#929497"/></g><g data-paper-data="{&quot;index&quot;:null}" stroke="#000000" stroke-width="0.90024" stroke-linecap="round" stroke-linejoin="miter"><path d="M188.13607,190.58406c-12.18274,-12.66878 -5.94517,-42.94739 -5.94517,-42.94739c9.4419,5.66001 11.0485,11.23997 11.32164,11.8673c0.27309,0.62743 4.55699,13.26919 4.55699,13.26919c-7.73051,9.32357 -9.93345,17.8109 -9.93345,17.8109zM199.89484,170.93092c0,0 -1.36801,1.2608 -1.98789,2.03982M188.13607,190.58406c-0.22188,0.85273 -0.25192,2.4177 -0.25192,2.4177" fill="#be1e2d"/><path d="M184.19098,183.85007c-1.54449,-3.4573 -3.06958,-8.18425 -3.58052,-14.02165c-0.45536,-5.20462 0.22167,-12.25668 0.83089,-17.0026l0.08986,-0.00723c6.03605,3.18893 7.1101,8.70565 7.1101,8.70565l0.02856,0.39734c0.0657,2.82463 0.22016,5.72707 0.5582,7.76158c0.19871,1.20226 0.50127,2.34929 0.82449,3.35807l-0.02321,-0.16734c0,0 -0.86656,4.57189 -2.02472,6.79074c-1.8607,3.57979 -3.885,4.05252 -3.885,4.05252zM190.02932,172.8739c0.2124,0.60651 1.46615,3.59628 1.46615,3.59628" fill="#929497"/></g><path d="M185.79725,153.59295c0,0 0.19244,-38.46328 48.9362,-41.72415c33.44787,-2.2376 47.81131,34.7332 47.81131,34.7332" data-paper-data="{&quot;index&quot;:null}" fill="none" stroke="#000000" stroke-width="7" stroke-linecap="round" stroke-linejoin="miter"/><path d="M234.06506,209.11004v0v0v0v0v0c0.9247,1.57771 2.15276,4.81922 2.09909,5.92679c0,0 -0.4155,4.32413 -2.8713,4.64469c-1.04932,0.13737 -1.92042,-0.3163 -2.64742,-1.21125c-0.40385,0.12861 -1.01695,0.23847 -1.57415,-0.07365c-0.92493,-0.51625 0.30569,-2.30512 0.30569,-2.30512l0.0116,0.01475c-0.10548,-0.2936 -0.20613,-0.5897 -0.30113,-0.91075c-0.53135,-1.81764 -0.76861,-4.63313 -0.9678,-6.15718c0,0 -0.21123,-1.31858 1.10999,-2.22893c1.40541,-0.96869 3.91076,0.72294 4.83545,2.30066z" data-paper-data="{&quot;index&quot;:null}" fill="#be1e2d" stroke="#231f20" stroke-width="0.78672" stroke-linecap="round" stroke-linejoin="round"/><path d="M248.85501,217.8322v0v0v0v0c0,0 -3.53399,2.72744 -5.48409,1.26212c-0.83785,-0.62021 -1.0996,-1.53728 -0.93771,-2.65992c-0.38053,-0.18662 -0.88654,-0.52862 -1.04226,-1.12929c-0.25736,-0.99262 1.94216,-1.39897 1.94216,-1.39897l-0.00285,0.01745c0.14845,-0.27376 0.2999,-0.55187 0.47329,-0.84113c0.99497,-1.62786 2.94079,-3.75635 3.94399,-4.95497c0,0 1.31669,-1.124 2.56915,-0.63495c1.25252,0.48808 1.68914,2.59768 1.43291,3.50576c-0.25705,0.90814 -1.38812,5.35814 -2.8946,6.8339z" data-paper-data="{&quot;index&quot;:null}" fill="#be1e2d" stroke="#231f20" stroke-width="0.78672" stroke-linecap="round" stroke-linejoin="round"/><path d="M243.43416,218.6542c1.61465,-0.35718 3.53979,0.18769 3.53979,0.18769c0,0 0.5728,5.0642 0.73177,6.89406c0.15984,1.83255 0.97903,4.72831 0.97903,4.72831c0,0 0.48011,0.31071 0.29755,1.0458c-0.18624,0.73313 -1.9002,0.7866 -4.06175,1.06207c-2.15762,0.27118 -3.88451,-0.15052 -4.17816,-0.89854c-0.2966,-0.74465 0.35468,-1.04994 0.35468,-1.04994c0,0 1.34274,-5.94073 0.55636,-8.05127c0.00433,0.00463 -0.27792,-3.463 1.78073,-3.91819z" data-paper-data="{&quot;index&quot;:null}" fill="#be1e2d" stroke="#231f20" stroke-width="0.90024" stroke-linecap="round" stroke-linejoin="round"/><path d="M236.55228,218.85364v0v0v0v0v0c2.79126,1.40773 2.95004,3.94099 2.95081,3.94366c-0.69283,2.1342 0.83041,7.25847 0.83041,7.25847c0,0 0.6654,0.27477 0.40793,1.03141c-0.26134,0.75819 -1.96323,1.2543 -4.13603,1.07309c-2.16903,-0.18287 -3.88283,-0.16363 -4.1031,-0.89103c-0.22027,-0.72741 0.24643,-1.05656 0.24643,-1.05656c0,0 0.15012,-1.71491 0.22267,-3.55273c0.07031,-1.83267 0.04797,-6.87472 0.04797,-6.87472c0,0 1.70427,-1.85429 3.53292,-0.93159z" data-paper-data="{&quot;index&quot;:null}" fill="#be1e2d" stroke="#231f20" stroke-width="0.90024" stroke-linecap="round" stroke-linejoin="round"/><g data-paper-data="{&quot;index&quot;:null}" stroke-width="0.90024"><path d="M248.0057,212.43836v0v0v0v0v0c0.26474,2.75372 -0.70731,7.74744 -4.08329,9.33971c-3.33897,1.57135 -6.75968,1.15576 -10.18495,-1.35521c-2.83792,-2.08114 -2.44792,-7.58196 -1.96079,-10.64532v0c0,0 0.4335,-7.12359 6.75629,-7.66875c6.32083,-0.54515 8.91565,5.07609 9.20248,8.51229c0.11762,0.60842 0.21241,1.22797 0.27028,1.81728z" fill="#be1e2d" stroke="#000000" stroke-linecap="butt" stroke-linejoin="miter"/><path d="M245.82218,220.17354v0v0v0v0v0l-0.02369,0.13868c-0.51797,0.60993 -1.14037,1.11751 -1.87507,1.46414c-3.09281,1.4558 -6.2544,1.2072 -9.42608,-0.83345l-0.02581,-0.14218c0,0 -1.21127,-9.15301 4.85452,-9.23721c6.88765,-0.09255 6.62718,7.09665 6.49613,8.61003z" fill="#e6e7e8" stroke="#231f20" stroke-linecap="round" stroke-linejoin="round"/></g><g data-paper-data="{&quot;index&quot;:null}" stroke="#000000" stroke-linecap="butt" stroke-linejoin="miter"><g><g stroke-width="0.4"><path d="M214.55991,234.48029c-0.11361,-0.02997 -0.48391,-0.14981 -0.51277,-0.43392c-0.02792,-0.28318 0.29264,-0.4345 0.39755,-0.48443c0.10073,-0.02419 1.7563,-0.17213 3.47472,-1.18244c-0.15396,-0.13526 -0.29935,-0.26741 -0.4381,-0.39827c-0.7268,0.59648 -2.65916,1.17035 -4.1491,1.23222c-0.19884,-0.04665 -0.56146,-0.18557 -0.57486,-0.46901c-0.01141,-0.28428 0.31806,-0.42043 0.42658,-0.46555c0.10145,-0.01862 1.79343,-0.07991 3.58516,-1.026c-0.1633,-0.1819 -0.31415,-0.36232 -0.45076,-0.53657c-0.65902,0.53388 -2.71385,1.04133 -4.26088,1.02396c-0.19545,-0.05759 -0.55046,-0.21377 -0.54633,-0.49917c0.00409,-0.28545 0.34132,-0.40186 0.45148,-0.44043c0.10506,-0.01386 1.88627,0.02031 3.78613,-0.90347c-0.09944,-0.16335 -0.19105,-0.32823 -0.27495,-0.49275c-0.6946,0.42971 -2.51864,0.76244 -3.99282,0.69745c-0.09552,-0.00422 -0.18999,-0.01019 -0.28145,-0.01795c-0.18992,-0.07122 -0.53106,-0.25448 -0.50478,-0.53896c0.02619,-0.28256 0.37103,-0.37554 0.48369,-0.40661l0.24936,0.00173c0.4438,0.01956 1.99317,0.02875 3.67291,-0.65979c-0.06177,-0.20331 -0.10421,-0.38542 -0.13244,-0.54195c-0.80645,0.40352 -2.47234,0.68501 -3.8375,0.62484c-0.09552,-0.00422 -0.18901,-0.01019 -0.28145,-0.01795c-0.18992,-0.07122 -0.53204,-0.25453 -0.50576,-0.539c0.0262,-0.28261 0.37103,-0.37554 0.48466,-0.40662l0.24635,0.00351c0.45542,0.02007 2.07449,0.02674 3.80417,-0.71504l0.04539,-0.01927c0.11248,-0.24739 0.49079,-0.4137 0.65626,-0.4767l0.31116,-0.11657l0.01847,0.31875c0.18023,3.09886 3.71097,5.8269 3.74636,5.85527l0.31892,0.24327l-1.16323,0.46356l-0.10475,-0.09334c-0.688,0.61392 -2.57952,1.28386 -4.05951,1.42013l-0.04477,0.00543z" fill="#871212"/><path d="M215.66851,226.60956c0,0 -0.70019,0.26491 -0.50095,0.50295c0,0 -0.00141,0.01009 -0.00327,0.02848c-0.08267,-0.03045 -0.17518,-0.03635 -0.18577,-0.03682c-0.00097,-0.00004 -0.00097,-0.00004 -0.00097,-0.00004c-1.76226,0.75602 -3.39534,0.75801 -3.9144,0.73512c-0.10995,-0.00484 -0.16959,-0.0112 -0.16959,-0.0112c-0.68374,0.18431 -0.02371,0.49165 -0.02371,0.49165c0.08951,0.00763 0.18014,0.01348 0.27177,0.01752c1.59863,0.07047 3.59007,-0.34551 3.99347,-0.77139c0.01131,-0.0143 0.01453,-0.02063 0.02483,-0.03313c0.0172,0.26423 0.08,0.64597 0.24775,1.11737c-0.03359,-0.0052 -0.06148,-0.00825 -0.07304,-0.00876c-0.00389,-0.00017 -0.00578,-0.00025 -0.00578,-0.00025c-1.76027,0.75425 -3.39141,0.75631 -3.91236,0.73335c-0.11189,-0.00493 -0.17251,-0.01133 -0.17251,-0.01133c-0.68383,0.18617 -0.0238,0.4935 -0.0238,0.4935c0.08951,0.00763 0.18014,0.01348 0.27177,0.01752c1.59863,0.07047 3.59007,-0.34551 3.99347,-0.77139c0.03162,-0.03375 0.04743,-0.06169 0.0681,-0.08945c0.13334,0.30352 0.30876,0.63478 0.54303,0.98985c-0.02035,0.00097 -0.03483,0.00032 -0.03483,0.00032c-2.05864,1.06835 -4.01589,1.01628 -4.01589,1.01628c-0.66672,0.23217 0.01496,0.49148 0.01496,0.49148c1.64274,0.01786 3.80518,-0.57637 4.19491,-1.05922c0.03497,-0.04375 0.05411,-0.07898 0.07407,-0.11228c0.22479,0.3103 0.49817,0.63567 0.81547,0.97318c-1.96386,1.12709 -3.86525,1.18003 -3.86525,1.18003c-0.65301,0.26886 0.04295,0.49271 0.04295,0.49271c1.64013,-0.06819 3.76552,-0.77586 4.12621,-1.27851c0.01554,-0.02152 0.0201,-0.03608 0.03168,-0.05498c0.25098,0.24768 0.5289,0.49933 0.83837,0.75886c-1.88748,1.20712 -3.7656,1.35912 -3.7656,1.35912c-0.63722,0.3019 0.07119,0.48842 0.07119,0.48842c1.63357,-0.15353 3.71589,-0.97034 4.04842,-1.48993c0.00838,-0.01443 0.00967,-0.02085 0.01705,-0.03346l0.17246,0.15363l0.64276,-0.25724c0,0 -3.64906,-2.78042 -3.83692,-6.02196M216.11335,225.94517l0.03698,0.63667c0.17369,2.99411 3.62135,5.66118 3.65585,5.68765l0.63784,0.48659l-0.75318,0.30047l-0.64266,0.25545l-0.28789,0.11578l-0.05467,-0.04956c-0.85376,0.62328 -2.70856,1.21347 -4.03521,1.33709l-0.08842,0.00904l-0.08589,-0.02319c-0.15091,-0.039 -0.64581,-0.2013 -0.68877,-0.633c-0.02036,-0.19967 0.05536,-0.48657 0.53133,-0.71328l0.04848,-0.02282c-0.3664,0.05964 -0.72118,0.09855 -1.04382,0.11295l-0.08909,0.00254l-0.08475,-0.02682c-0.14852,-0.04817 -0.63261,-0.23494 -0.65236,-0.66747c-0.00857,-0.20282 0.08247,-0.48626 0.57071,-0.68658l0.08476,-0.03415l0.09111,-0.00427c0.01646,-0.00114 1.49357,-0.05622 3.12796,-0.84748c-0.0421,-0.04989 -0.08322,-0.09886 -0.12341,-0.14774c-0.89934,0.54544 -2.85647,0.9518 -4.21415,0.93725l-0.08992,-0.00024l-0.08337,-0.0351c-0.14428,-0.05538 -0.61741,-0.26942 -0.6111,-0.7008c0.00295,-0.20139 0.11115,-0.48039 0.60972,-0.65341l0.08652,-0.03041l0.09172,0.00219c0.01642,0.00072 1.60261,0.02815 3.35473,-0.75793c-0.01435,-0.02373 -0.02758,-0.05018 -0.04186,-0.07395c-0.89934,0.42436 -2.60684,0.66708 -3.9016,0.61c-0.09838,-0.00434 -0.19576,-0.01049 -0.29107,-0.01837l-0.08957,-0.00767l-0.08037,-0.03771c-0.14087,-0.06537 -0.59602,-0.31098 -0.55586,-0.74273c0.01839,-0.20071 0.14831,-0.46948 0.65883,-0.60967l0.08909,-0.02289l0.09137,0.00962c0.00675,0.0003 0.05777,0.00436 0.14558,0.00823c0.41392,0.01825 1.81635,0.0265 3.37244,-0.56397c-0.00573,-0.02152 -0.01142,-0.04394 -0.01627,-0.06355c-0.93891,0.36253 -2.48205,0.56532 -3.6755,0.51273c-0.09838,-0.00434 -0.19571,-0.0105 -0.29107,-0.01837l-0.08957,-0.00767l-0.08037,-0.03771c-0.14087,-0.06537 -0.59602,-0.31098 -0.55586,-0.74273c0.01839,-0.20071 0.14836,-0.46947 0.65971,-0.60777l0.08909,-0.02289l0.09146,0.00775c0.00578,0.00025 0.0558,0.00614 0.14262,0.00997c0.43893,0.01935 1.99516,0.02692 3.66523,-0.68141c0.17132,-0.26514 0.52347,-0.42985 0.74209,-0.51262l0.6224,-0.23603zM214.54014,233.30644c0.20413,-0.02243 1.52894,-0.18774 2.98012,-0.96949c-0.01491,-0.01179 -0.02882,-0.02441 -0.04267,-0.03795c-0.63545,0.42678 -1.82076,0.80712 -2.93745,1.00745z" fill="#000000"/></g><path d="M244.53794,213.51827l-3.3052,0.31277c-3.01296,-0.11247 -8.8519,3.12035 -11.2332,9.21482c-2.38139,6.09627 -10.97259,10.18569 -10.97259,10.18569c-4.73256,-3.79036 -3.83124,-6.60121 -3.83124,-6.60121c10.08014,-4.37044 8.59378,-8.63328 13.25794,-12.62686c4.66408,-3.99171 10.53267,-3.3097 10.53267,-3.3097z" fill="#ba2915" stroke-width="0.4"/><g fill="#871212" stroke-width="0.4"><path d="M219.2423,224.57646c-0.25467,1.95295 3.84983,6.21571 3.84983,6.21571l-1.15223,0.81713c-4.52322,-2.41685 -4.1097,-6.20035 -4.1097,-6.20035z"/><path d="M222.65184,221.69874c0.44105,3.02345 4.68178,5.50455 4.68178,5.50455l-1.39149,1.28726c-4.34529,-2.61792 -4.48617,-5.55049 -4.48617,-5.55049z"/><path d="M224.66063,218.93852c0.74108,1.97464 5.55408,3.65462 5.55408,3.65462l-0.72325,1.62544c-4.61366,-1.24321 -5.49765,-4.24462 -5.49765,-4.24462z"/><path d="M227.40745,215.00739c0.48106,1.07124 5.42395,3.46683 5.42395,3.46683l-1.08096,1.32403c-4.54814,-1.13777 -5.25616,-3.69791 -5.25616,-3.69791z"/><path d="M231.25606,212.16745c0.34107,-0.09589 5.70773,2.65484 5.70773,2.65484l-1.68272,1.2929l-5.68509,-2.98383c0,0 1.31902,-0.86802 1.66009,-0.9639z"/><path d="M234.83199,211.17339l2.30906,-0.54708l4.6348,3.15007l-2.27856,0.23602l-4.66529,-2.83903"/></g><path d="M218.99249,233.50458l-0.12104,-0.09592c-4.79952,-3.84601 -3.94614,-6.72553 -3.90646,-6.84672l0.03186,-0.09938l0.09876,-0.04275c6.4373,-2.79054 8.10605,-5.53705 9.71915,-8.19177c0.8832,-1.45384 1.79597,-2.95812 3.47794,-4.39615c3.97234,-3.40016 8.84329,-3.46274 10.24125,-3.40111c0.3097,0.01365 0.48181,0.03418 0.48181,0.03418l6.33941,3.20861l-4.09874,0.38779c-3.10181,-0.11457 -8.7706,3.27918 -11.03163,9.06468c-2.38788,6.11079 -10.7366,10.1434 -11.09091,10.31268l-0.14141,0.06588zM215.40641,226.79119c-0.08922,0.50723 -0.27267,2.96709 3.65321,6.16357c1.11664,-0.56081 8.55851,-4.47355 10.71367,-9.98912c2.42871,-6.21531 8.32249,-9.48268 11.46868,-9.36526l2.47968,-0.23637l-4.82871,-2.45712c-0.00915,0.00887 -0.15639,-0.00504 -0.38116,-0.01587c-1.35165,-0.05958 -6.06208,0.00174 -9.89619,3.28325c-1.62463,1.39066 -2.47846,2.79676 -3.38266,4.28388c-1.64247,2.70332 -3.34059,5.49758 -9.82651,8.33307z" fill="#000000" stroke-width="0.4"/><path d="M215.35838,226.80778c6.48592,-2.83549 8.19295,-5.67767 9.83541,-8.38099c0.9042,-1.48711 1.79131,-2.91034 3.41595,-4.301c3.83411,-3.28151 8.58172,-3.33288 9.93337,-3.2733c0.22477,0.01083 0.37285,0.02538 0.382,0.01651l4.83971,2.46897l-2.56383,0.29157c-3.14619,-0.11742 -8.98869,3.16863 -11.41741,9.38394c-2.15516,5.51556 -9.64167,9.41662 -10.75831,9.97744c-3.92588,-3.19648 -3.75613,-5.67592 -3.66691,-6.18315z" data-paper-data="{&quot;noHover&quot;:true,&quot;origItem&quot;:[&quot;Path&quot;,{&quot;applyMatrix&quot;:true,&quot;segments&quot;:[[[431.94081,453.0728],[0,0],[-0.17472,1.03898]],[[439.09485,465.69792],[-7.688,-6.5475],[2.1867,-1.14874]],[[460.07531,445.23676],[-4.22042,11.29778],[4.75612,-12.7311]],[[482.53429,426.05348],[-6.16114,-0.24052],[0,0]],[487.39021,425.56932],[[477.93421,420.53628],[0,0],[-0.01792,0.01816]],[[477.18779,420.50378],[0.44016,0.02218],[-2.64692,-0.12204]],[[457.80819,427.229],[7.5083,-6.72166],[-3.1815,2.84856]],[[451.18397,436.00386],[1.77068,-3.04612],[-3.21644,5.53734]],[[431.94083,453.07286],[12.7013,-5.80806],[0,0]]],&quot;closed&quot;:true,&quot;fillColor&quot;:[0,0,0,1],&quot;strokeColor&quot;:[0,0,0],&quot;strokeWidth&quot;:0.4}]}" fill="#000000" stroke-width="0.2"/></g><g stroke-width="0.4"><path d="M252.80791,206.02612c1.88227,1.06555 0.56236,3.37546 0.56236,3.37546c3.49034,1.54036 2.31053,3.45159 2.31053,3.45159c-1.93745,-1.1844 -3.74962,0.06578 -9.23896,0.92191c-5.48841,0.85613 -10.9605,-1.81235 -10.9605,-1.81235c10.04477,-9.08971 17.32561,-5.93666 17.32659,-5.93661z" fill="#ba2915"/><g fill="#871212"><path d="M243.11034,206.89453c0,0 2.74258,2.05179 1.40554,7.08123l-0.8683,-0.03827c0,0 1.00471,-4.27318 -1.35322,-6.64172z"/><path d="M247.50949,205.59016c2.21172,3.01464 1.46534,7.48504 1.46534,7.48504l-1.10213,0.21946c0.726,-5.45106 -1.6443,-7.44301 -1.6443,-7.44301z"/><path d="M239.75115,208.62838c0,0 1.7033,2.27033 1.08813,5.00139l-0.61776,-0.12061c0,0 -0.3128,-3.77851 -1.15984,-4.37786z"/><path d="M253.92463,212.28032l-1.01397,-0.0447c0.28217,-1.84173 -1.31227,-3.32253 -1.31227,-3.32253c0.42211,-2.09719 -0.91337,-3.37339 -0.91337,-3.37339l1.36654,0.25161c0.59118,0.63237 0.54995,3.13085 0.60798,3.29056c1.42986,1.04463 1.26604,3.19848 1.26507,3.19845z"/></g><path d="M255.88782,212.97042l-0.1269,0.20607l-0.21136,-0.12853c-1.15047,-0.70236 -2.36487,-0.46106 -4.61282,0.06195c-1.1587,0.26965 -2.60089,0.60446 -4.45572,0.89424c-0.96243,0.14983 -1.98783,0.20167 -3.05102,0.15481c-4.32121,-0.19049 -8.02138,-1.97205 -8.05824,-1.99033l-0.30509,-0.1484l0.24865,-0.22472c6.24057,-5.6461 11.43875,-6.66018 14.70261,-6.51629c1.81474,0.08 2.84551,0.51827 2.89004,0.53689c1.54165,0.87118 1.23279,2.54443 0.78743,3.47871c1.26859,0.5985 2.04788,1.32054 2.31737,2.14766c0.27958,0.8581 -0.10818,1.50093 -0.12496,1.52795zM255.54938,211.56901c-0.23153,-0.69234 -0.96543,-1.33287 -2.10272,-1.86736c-2.06595,-0.9257 -4.13675,-0.04648 -4.13675,-0.04648c1.99332,-1.05642 3.38108,-0.78359 3.95522,-0.57896c0.25716,-0.56174 0.78576,-2.07929 -0.57985,-2.85212c-0.00384,-0.00017 -0.99057,-0.40969 -2.68855,-0.48454c-3.12397,-0.13771 -8.08978,0.82837 -14.0908,6.15964c0.96778,0.4207 4.05004,1.64355 7.54735,1.79771c1.02845,0.04534 2.02286,-0.0051 2.95122,-0.14996c1.83721,-0.28596 3.2697,-0.61938 4.41956,-0.88663c2.22839,-0.51832 3.52998,-0.76319 4.74038,-0.14044c0.06413,-0.20703 0.11815,-0.54571 -0.01504,-0.95088z" fill="#000000"/></g><g stroke-width="0.4"><path d="M226.62768,203.83221c0,0 -1.16425,-0.91836 -0.51124,-1.92847c0.65297,-1.01016 1.75985,-1.40783 1.75468,-1.30081c-0.00516,0.10697 10.03028,8.77115 22.20685,0.60457l0.05699,-1.18154c0,0 4.3072,2.14478 2.67102,6.00101c0,0 -2.60074,-0.92341 -5.1707,1.50517c-2.57186,2.42849 -5.00395,7.75165 -23.50882,1.79397c0,0 -1.48475,-0.52765 -0.63459,-1.87662c0.85011,-1.34902 3.26716,-2.57166 3.13582,-3.61728z" fill="#ba2915"/><g fill="#871212"><path d="M229.82355,202.09764c-1.34252,0.89378 -0.56509,2.31455 -0.67208,2.88939c-0.10699,0.57482 -0.31317,1.86253 -1.13961,2.72083c-0.82649,0.85836 -0.99398,2.44725 -0.99398,2.44725l-1.90833,-0.52505c0.2335,-0.45186 0.24531,-1.31744 1.50964,-2.47531c1.2644,-1.15791 1.39458,-2.61444 1.39458,-2.61444c-0.72094,-2.59211 0.95103,-3.08041 0.95103,-3.08041z"/><path d="M233.27607,203.78142c0,0 -0.33187,0.40687 -0.37779,1.35876c-0.04591,0.95183 0.23007,1.90496 -0.39515,2.84057c-0.62522,0.93556 -1.40651,3.24337 -1.40651,3.24337l-1.39327,-0.31931c0,0 0.07747,-0.46339 0.52228,-1.52802c0.44487,-1.06458 1.50959,-1.85233 1.38753,-3.49096c-0.12207,-1.63863 0.53792,-2.85368 0.50895,-2.61467z"/><path d="M236.87782,204.5364c-0.35152,1.27575 -0.32048,1.81417 -0.20278,3.54319c0.1177,1.72902 -0.7899,3.64858 -0.7899,3.64858l-1.3427,-0.14423c0,0 1.17711,-2.07493 0.85727,-3.78331c-0.31979,-1.70837 0.44485,-3.36894 0.44836,-3.44183z"/><path d="M239.54983,204.66341l1.26002,0.05555c0.99626,3.73933 -0.28219,4.72839 -0.28219,4.72839c0.22301,1.63014 -0.8751,2.44785 -0.8751,2.44785l-0.72264,-0.03185c1.15042,-1.30063 0.54944,-2.61101 0.54944,-2.61101c0.85869,-2.12872 0.07052,-4.58983 0.07052,-4.58983z"/><path d="M244.93671,203.80649c1.56203,3.85672 0.30712,5.2997 0.36173,5.48976c0.05467,0.19005 -0.21567,0.70312 -0.21567,0.70312l-1.07823,0.62633c0.46056,-0.7691 0.26094,-1.22062 0.26094,-1.22062c1.00616,-2.94025 -0.71885,-5.22173 -0.71885,-5.22173z"/><path d="M248.76773,202.09344c1.42019,1.04426 1.28024,3.94597 1.28024,3.94597l-1.09294,0.52955c0.55603,-2.76788 -1.09605,-4.01548 -1.09605,-4.01548z"/><path d="M250.13175,200.11267c4.71715,2.84593 2.56794,5.87264 2.56794,5.87264l0.00367,-0.35664c0.39807,-3.32293 -2.38963,-4.29804 -2.38963,-4.29804z"/></g><path d="M253.02996,206.11356l-0.08734,0.20688l-0.21866,-0.07709c-0.00379,-0.0011 -0.37282,-0.1283 -0.95358,-0.1539c-0.98696,-0.04351 -2.47702,0.20046 -3.96508,1.6064c-0.2471,0.2322 -0.49171,0.49223 -0.75043,0.76553c-1.62211,1.7189 -3.84528,4.0731 -10.16261,3.79462c-3.39796,-0.14979 -7.7182,-1.06214 -12.84208,-2.71145c-0.03809,-0.01276 -0.75923,-0.27562 -0.99158,-0.91071c-0.14423,-0.39645 -0.06802,-0.83489 0.22725,-1.30344c0.37892,-0.59986 1.02638,-1.15453 1.6527,-1.69167c0.69484,-0.59514 1.40893,-1.20885 1.44919,-1.68216c-0.00838,-0.00684 -0.01787,-0.01098 -0.02622,-0.01782l0.0087,-0.01996c-0.45204,-0.40996 -1.01863,-1.27145 -0.45864,-2.13782c0.61649,-0.95535 1.65507,-1.44015 1.94256,-1.42747l0.24119,0.01062l0.00979,0.13818c0.43131,0.37856 4.42691,3.69184 10.46156,3.95786c3.85137,0.16978 7.644,-0.96727 11.27664,-3.37856l0.06891,-1.42874l0.33516,0.16728c0.0443,0.02323 4.48204,2.28842 2.78258,6.29341zM250.35773,200.41842l-0.04396,0.91128l-0.09595,0.06514c-3.75275,2.51599 -7.68118,3.70249 -11.67437,3.52647c-5.63521,-0.24842 -9.85462,-3.21201 -10.74093,-4.09958c-0.19495,0.05336 -0.97653,0.42189 -1.48022,1.20291c-0.53288,0.82507 0.41898,1.59721 0.45992,1.62951l0.07453,0.05877l0.00404,0.03621c0.3886,0.30182 1.22755,0.80836 2.91175,1.29025c0,0 -1.62976,-0.02655 -2.96128,-0.8044c-0.19118,0.57578 -0.85206,1.14835 -1.55096,1.74792c-0.60004,0.51339 -1.2203,1.04525 -1.56155,1.58574c-0.21673,0.34445 -0.27887,0.65044 -0.18503,0.90967c0.15523,0.43016 0.69284,0.6295 0.69854,0.63161c5.07343,1.63322 9.34962,2.53715 12.7022,2.68495c4.56337,0.20117 6.85689,-0.96589 8.41098,-2.29682c-1.26808,0.25189 -5.15587,0.81721 -8.13771,-0.98356c0,0 4.26652,1.6254 8.73674,0.43043c0.27395,-0.26802 0.52852,-0.53497 0.77305,-0.79321c0.26491,-0.28038 0.51556,-0.54662 0.76876,-0.78501c2.17794,-2.05767 4.46542,-1.79601 5.19565,-1.62146c1.09797,-2.91959 -1.36787,-4.75491 -2.30423,-5.32676z" fill="#000000"/></g></g><g data-paper-data="{&quot;index&quot;:null}" stroke="#000000" stroke-width="0.90024" stroke-linecap="round" stroke-linejoin="round"><path d="M283.8109,183.16492l-0.42535,1.5469c-2.41884,7.83326 -6.36673,12.52603 -6.36673,12.52603c0,0 0.04661,-1.3706 -0.20856,-3.54885l-0.13746,-0.03501c-0.29597,1.1779 -0.81411,2.70683 -1.72535,4.61511c-1.99788,4.19046 -8.53207,8.0546 -8.53207,8.0546c0,0 0.31339,-1.41368 0.39936,-3.6959l-0.12269,-0.33933c-0.69421,0.59587 -1.4194,1.1498 -2.15387,1.6912c-0.21605,0.16024 -0.43227,0.31686 -0.6526,0.46937c-0.67015,0.46898 -1.35464,0.91951 -2.0559,1.34482c-0.27721,0.16632 -0.56635,0.32302 -0.84782,0.48348c-0.51337,0.29364 -1.03529,0.57371 -1.56598,0.84657c-0.39001,0.19827 -0.78285,0.39595 -1.18401,0.58268c-0.41511,0.19578 -0.84344,0.37566 -1.26854,0.56158c-0.78227,0.33324 -1.5779,0.64905 -2.39356,0.94602c-0.26612,0.09678 -0.53234,0.19357 -0.80357,0.28543c-0.58261,0.19907 -1.17018,0.39486 -1.77005,0.57401l0.00197,0.00162c-3.01098,0.90427 -6.22762,1.58449 -9.69258,2.04108c-3.74876,0.49306 -7.16578,0.70385 -10.37114,0.7221v0c-2.53645,0.01319 -4.92097,-0.10541 -7.18797,-0.33475c-0.10961,-0.01058 -0.2203,-0.02197 -0.33083,-0.0325c-0.70119,-0.07545 -1.39202,-0.15948 -2.07074,-0.25497c-0.237,-0.03496 -0.46426,-0.07495 -0.70037,-0.11164c-0.90254,-0.13747 -1.78177,-0.29611 -2.6502,-0.46965c-0.54898,-0.11015 -1.09468,-0.22415 -1.62912,-0.34856c-0.31731,-0.07136 -0.63589,-0.14714 -0.9472,-0.22424c-0.8504,-0.21361 -1.69378,-0.43202 -2.51418,-0.67422l-0.12846,0.13707c0.46351,2.03718 1.2937,3.0914 1.92863,3.57614c1.29441,0.98983 3.64238,1.07759 3.64238,1.07759c0,0 -7.04007,1.46606 -11.32967,-3.50598c-0.45578,-0.52852 -0.91681,-1.07704 -1.35974,-1.66476l-0.19752,-0.3401c-0.86287,-0.2082 -1.74375,-0.50419 -2.62183,-0.90361c-5.35568,-2.45587 -6.18453,-4.74071 -6.18453,-4.74071l0.1748,0.8468c0.67031,2.19154 1.26366,3.5625 1.26366,3.5625c0,0 -6.43636,-3.27246 -9.61246,-8.64397c-2.56115,-4.33621 -2.95162,-7.04677 -3.00246,-7.50331l-0.33563,-1.62058c-0.63923,-6.39498 -0.79096,-13.60881 -0.42915,-20.74256l0.04193,-0.1925c0.38861,-5.52248 -1.1227,-14.51575 5.72708,-24.3246c12.83611,-18.37608 27.39856,-18.82185 35.06606,-32.27135c5.63978,-9.89434 3.14437,-20.59441 3.14437,-20.59441c0,0 4.33475,5.01724 6.14304,8.01683c1.75255,2.92419 3.67705,6.71754 3.67705,6.71754l0.04961,-0.03706c0.02674,-0.11659 0.0496,-0.23546 0.06789,-0.35398c0.28289,-1.84604 -0.09804,-4.51771 -0.09804,-4.51771c0,0 4.56019,10.19033 11.12942,16.61252c6.56528,6.41904 15.42611,7.74888 28.27343,30.42804c1.59853,2.81812 3.06418,5.18132 3.95963,7.85372l0.43189,1.544c1.34504,4.82516 2.03725,18.37403 0.48573,24.36144zM211.5811,165.26415c0,0 -6.56091,7.58511 -5.3137,17.38992c1.10353,8.67532 3.67605,11.19384 5.00084,11.77512c1.36181,0.59359 3.3566,0.03956 3.3566,0.03956c0,0 -5.50416,3.31726 -10.4895,-0.28398c-3.33442,-2.40706 -7.00521,-5.55769 -8.71519,-15.06888M272.06912,176.66157c0,0 1.07607,2.35699 -0.68024,7.5728c-1.97512,5.87603 -6.95425,8.00942 -6.95425,8.00942c0,0 3.55869,-9.08986 -0.6632,-17.08944c-1.84285,-3.4951 -6.86304,-5.83498 -12.03162,-7.36993c-7.0043,-2.08205 -14.27991,-2.68463 -14.27991,-2.68463M276.6964,193.55623c-0.2912,1.19165 -0.81556,2.75717 -1.75418,4.71677c-1.99696,4.19038 -8.53115,8.05453 -8.53115,8.05453c0,0 0.90956,-4.12415 0.05133,-9.65003M197.42865,186.07031c-0.60064,1.2899 -1.03279,2.65741 -1.22258,4.08244c-1.19691,8.88572 2.88841,18.28266 2.88841,18.28266c0,0 -6.43439,-3.27093 -9.61247,-8.64407c-2.81762,-4.76899 -3.00786,-7.57166 -3.00786,-7.57166M283.38144,184.7183c-2.42067,7.83341 -6.36765,12.5261 -6.36765,12.5261c0,0 0.276,-7.78771 -3.9534,-15.78761c-0.19083,-0.36173 -0.40202,-0.71141 -0.62327,-1.04978M237.46081,165.09972c0,0 1.24198,0.22056 4.64767,2.43299c3.40579,2.21243 4.79839,4.79417 4.79839,4.79417c0,0 -9.67406,-1.70299 -15.06826,-3.1291c-5.38885,-1.42826 -23.45575,-4.75771 -23.45575,-4.75771M210.29918,203.63068c2.87686,3.67605 5.71829,5.58371 5.71829,5.58371c0,0 -6.1448,2.3172 -12.17678,-0.44592c-5.35568,-2.45577 -6.18453,-4.74071 -6.18453,-4.74071M266.68604,202.29418c-6.38724,5.47819 -14.42047,8.5172 -24.37995,9.82917c-11.87387,1.56409 -20.7253,0.52802 -28.399,-1.72861M213.65494,209.89986c0.42085,2.45369 1.35269,3.67426 2.05029,4.20559c1.29532,0.98976 3.6433,1.07752 3.6433,1.07752c0,0 -7.04189,1.4662 -11.33059,-3.50591c-0.45578,-0.52852 -0.91681,-1.07704 -1.35974,-1.66476M238.1725,165.34274c0,0 26.2236,1.1525 27.2955,14.71096" fill="#be1e2d"/><path d="M271.02442,185.54864c-0.1982,9.82103 -11.11889,20.84173 -28.20192,23.04055c-15.08086,1.94917 -37.98218,-2.94555 -42.17854,-14.70302c-0.41802,-1.18192 -0.68143,-2.3335 -0.8166,-3.44852l0.3473,0.20589c1.27689,1.52613 2.64387,2.59444 3.96082,3.54299c4.98519,3.59949 10.48935,0.28223 10.48935,0.28223c0,0 -1.99466,0.55579 -3.35647,-0.03781c-1.32479,-0.58128 -3.89731,-3.0998 -5.00084,-11.77512c-1.24734,-9.80656 5.3137,-17.38992 5.3137,-17.38992l0.00687,-0.22796c5.44001,1.02614 16.28087,3.10767 20.2487,4.15999c5.39427,1.42699 15.06826,3.1291 15.06826,3.1291c0,0 -1.3926,-2.58174 -4.79839,-4.79417c-1.7047,-1.10648 -2.8657,-1.71457 -3.60009,-2.04672l0.66795,0.05131c0,0 20.2578,1.38345 24.59874,9.61676c4.22104,8.00052 0.66412,17.08938 0.66412,17.08938c0,0 4.23969,-1.81812 6.44191,-6.7118z" fill="#e6e7e8"/></g><path d="M226.18531,184.20396v0v0v0v0v0c0.74614,0.1426 1.22785,0.83591 1.07675,1.5494c-0.14903,0.71509 -0.87056,1.17536 -1.62193,1.03665c-0.04313,-0.00923 -4.39674,-0.80972 -8.4754,0.65384c-0.12555,0.04432 -0.2516,0.07194 -0.37899,0.08115c-0.59587,0.04306 -1.17566,-0.29233 -1.39602,-0.85284c-0.13013,-0.32734 -0.10605,-0.67552 0.02883,-0.97617c-0.27471,-0.19704 -0.54054,-0.45808 -0.73965,-0.82988c-0.23317,-0.43093 -0.05577,-0.96204 0.39687,-1.18431c0.44859,-0.2166 1.00526,-0.0559 1.23973,0.37857c0.18592,0.34622 0.65058,0.41575 0.65621,0.41711c0.13712,0.01918 0.26007,0.07021 0.3679,0.13998c0.13361,-0.03698 0.26795,-0.07488 0.40004,-0.10646c-0.15722,-0.19309 -0.30631,-0.41155 -0.40741,-0.68634c-0.16723,-0.45949 0.08658,-0.95831 0.56713,-1.11906c0.48387,-0.16539 1.00436,0.08438 1.17052,0.54219c0.1331,0.3659 0.57276,0.50421 0.57656,0.50571c0.20414,0.05057 0.36117,0.1714 0.48084,0.31962c3.27235,-0.38363 5.90815,0.10203 6.05801,0.13086z" data-paper-data="{&quot;index&quot;:null}" fill="#231f20" stroke="none" stroke-width="0.90024" stroke-linecap="butt" stroke-linejoin="miter"/><path d="M258.90773,180.75344v0v0v0v0v0c-0.0996,0.79348 -0.55314,1.29607 -0.93153,1.6064c0.12121,0.23897 0.19498,0.50605 0.14527,0.78813c-0.12675,0.71702 -0.82124,1.20449 -1.58879,1.08273c-2.90911,-0.4668 -6.62592,-0.4441 -7.31221,0.33363c-0.24798,0.27965 -0.58963,0.43664 -0.94628,0.4624c-0.35114,0.02538 -0.70867,-0.07668 -0.99735,-0.31049c-0.58107,-0.46933 -0.65415,-1.30057 -0.16164,-1.85807c1.32634,-1.49911 4.36104,-1.68227 6.81107,-1.55262c0.11055,-0.10581 0.28272,-0.3183 0.27928,-0.59487c-0.01228,-0.48302 0.35098,-0.91486 0.89615,-0.89951c0.50707,-0.01196 0.9273,0.37019 0.94087,0.85665c0.00578,0.30635 -0.05266,0.56977 -0.13217,0.8117c0.12194,0.01499 0.23817,0.02773 0.34738,0.04373c0.08423,-0.14719 0.19362,-0.27935 0.36035,-0.36366c0.02455,-0.01587 0.41544,-0.23809 0.46461,-0.61893c0.06334,-0.48143 0.51238,-0.83213 1.02378,-0.76596c0.50357,0.06056 0.86164,0.49578 0.80119,0.97877z" data-paper-data="{&quot;index&quot;:null}" fill="#231f20" stroke="none" stroke-width="0.90024" stroke-linecap="butt" stroke-linejoin="miter"/><g data-paper-data="{&quot;index&quot;:null}" stroke-linejoin="miter"><path d="M191.31611,176.50297c0.84416,12.64664 -0.16472,23.00206 -5.60611,23.33404c-5.4414,0.33198 -14.274,-9.42303 -15.11816,-22.06968c-0.84416,-12.64664 6.61982,-23.3959 12.06122,-23.72786c5.4414,-0.33198 7.8189,9.81685 8.66306,22.4635z" fill="url(#color-1)" stroke="#000000" stroke-width="0.90024" stroke-linecap="butt"/><path d="M176.08338,162.80968l1.95525,-2.90547" fill="none" stroke="#ea42a4" stroke-width="2" stroke-linecap="round"/><path d="M183.2734,166.95649l3.42015,-0.57382" fill="none" stroke="#ea42a4" stroke-width="2" stroke-linecap="round"/><path d="M179.16174,172.80118l-0.2858,1.83233" fill="none" stroke="#ea42a4" stroke-width="2" stroke-linecap="round"/><path d="M177.83867,182.53984l1.83197,2.0718" fill="none" stroke="#ea42a4" stroke-width="2" stroke-linecap="round"/><path d="M188.23365,188.32983l1.60949,-0.27003" fill="none" stroke="#ea42a4" stroke-width="2" stroke-linecap="round"/><path d="M181.25605,196.63799l1.8813,0.08089" fill="none" stroke="#ea42a4" stroke-width="2" stroke-linecap="round"/><path d="M176.75543,189.06601l-1.4649,-2.33166" fill="none" stroke="#ea42a4" stroke-width="2" stroke-linecap="round"/><path d="M174.16405,177.20843l-1.56018,-1.72088" fill="none" stroke="#ea42a4" stroke-width="2" stroke-linecap="round"/><path d="M173.5952,166.20109l0.28245,1.53872" fill="none" stroke="#ea42a4" stroke-width="2" stroke-linecap="round"/><path d="M185.90953,157.59234l-2.32231,3.16533" fill="none" stroke="#ea42a4" stroke-width="2" stroke-linecap="round"/></g><g data-paper-data="{&quot;index&quot;:null}" stroke-linejoin="miter"><path d="M283.49224,145.14171c5.4499,-0.16017 13.94108,9.86807 14.34842,22.53446c0.40731,12.66638 -7.42348,23.17438 -12.87339,23.33457c-5.4499,0.16017 -7.47592,-10.05811 -7.88324,-22.72448c-0.40731,-12.66638 0.95831,-22.98436 6.40821,-23.14453z" fill="url(#color-2)" stroke="#000000" stroke-width="0.90025" stroke-linecap="butt"/><path d="M288.6647,150.56421l2.23317,2.7162" fill="none" stroke="#ea42a4" stroke-width="2" stroke-linecap="round"/><path d="M280.68752,157.79424l3.46152,0.26285" fill="none" stroke="#ea42a4" stroke-width="2" stroke-linecap="round"/><path d="M289.28429,165.30333l-0.46529,-1.79838" fill="none" stroke="#ea42a4" stroke-width="2" stroke-linecap="round"/><path d="M289.47758,175.30864l1.61941,-2.22776" fill="none" stroke="#ea42a4" stroke-width="2" stroke-linecap="round"/><path d="M281.31957,179.78242l-1.62894,-0.1237" fill="none" stroke="#ea42a4" stroke-width="2" stroke-linecap="round"/><path d="M289.08571,187.42436l-1.86491,0.25017" fill="none" stroke="#ea42a4" stroke-width="2" stroke-linecap="round"/><path d="M294.04759,177.02694l-1.22834,2.45336" fill="none" stroke="#ea42a4" stroke-width="2" stroke-linecap="round"/><path d="M295.61265,165.58799l-1.38343,1.85391" fill="none" stroke="#ea42a4" stroke-width="2" stroke-linecap="round"/><path d="M293.58018,157.98967l0.12939,-1.55734" fill="none" stroke="#ea42a4" stroke-width="2" stroke-linecap="round"/><path d="M280.60081,148.97238l2.62424,2.9418" fill="none" stroke="#ea42a4" stroke-width="2" stroke-linecap="round"/></g><path d="M230.83622,192.48133c0,0 1.10456,-1.30573 5.94801,-1.76465c4.8427,-0.4551 8.57072,-0.08859 8.57072,-0.08859c0,0 0.72008,8.53736 -5.85132,9.11846c-6.5768,0.5831 -8.66741,-7.26521 -8.66741,-7.26521z" fill="#58595b" stroke="#231f20" stroke-width="0.9025" stroke-linecap="round" stroke-linejoin="miter"/><g stroke-linejoin="miter"><g stroke-linecap="butt"><g stroke="#000000" stroke-width="1"><path d="M251.07531,214.58843h58.11472v22.67351h-58.11472z" fill="url(#color-3)"/><path d="M256.23064,210.43163h58.11472l-5.15534,4.15682h-58.11473z" fill="#9966ff"/><path d="M309.45158,214.5631l4.92101,-3.96786l-0.70301,23.05142l-4.68667,3.68445z" fill="url(#color-4)"/></g><path d="M306.57977,215.38949c0.46021,0 0.83328,0.15041 0.83328,0.33595c0,0.18554 -0.37307,0.33594 -0.83328,0.33594c-0.46021,0 -0.83329,-0.1504 -0.83329,-0.33594c0,-0.18554 0.37308,-0.33595 0.83329,-0.33595z" fill="#b9b9b9" stroke="none" stroke-width="0.5"/><path d="M306.20942,235.994c0.46021,0 0.83328,0.1504 0.83328,0.33594c0,0.18554 -0.37307,0.33594 -0.83328,0.33594c-0.46021,0 -0.83329,-0.1504 -0.83329,-0.33594c0,-0.18554 0.37308,-0.33594 0.83329,-0.33594z" fill="#b9b9b9" stroke="none" stroke-width="0.5"/><path d="M253.0645,236.29261c0.4602,0 0.83328,0.15041 0.83328,0.33594c0,0.18554 -0.37308,0.33594 -0.83328,0.33594c-0.4602,0 -0.83328,-0.1504 -0.83328,-0.33594c0,-0.18554 0.37308,-0.33594 0.83328,-0.33594z" fill="#b9b9b9" stroke="none" stroke-width="0.5"/><path d="M252.50896,215.24018c0.4602,0 0.83328,0.1504 0.83328,0.33594c0,0.18554 -0.37308,0.33594 -0.83328,0.33594c-0.4602,0 -0.83328,-0.1504 -0.83328,-0.33594c0,-0.18554 0.37308,-0.33594 0.83328,-0.33594z" fill="#b9b9b9" stroke="none" stroke-width="0.5"/></g><g stroke="#000000" stroke-width="1" stroke-linecap="butt"><path d="M255.87901,225.86986c0,-4.8964 4.40602,-8.86571 9.84111,-8.86571c5.43509,0 9.84111,3.96932 9.84111,8.86571c0,4.8964 -4.40602,8.86571 -9.84111,8.86571c-5.43509,0 -9.84111,-3.96932 -9.84111,-8.86571z" fill="#8499b1"/><path d="M259.25311,226.24982c0,-2.86789 2.58066,-5.19278 5.76408,-5.19278c3.18341,0 5.76408,2.32489 5.76408,5.19278c0,2.86789 -2.58067,5.19277 -5.76408,5.19277c-3.18341,0 -5.76408,-2.32488 -5.76408,-5.19277z" fill="#92c5ff"/></g><g stroke="#000000" stroke-width="1" stroke-linecap="butt"><path d="M280.92912,225.90344c0,-4.8964 4.40602,-8.86571 9.84111,-8.86571c5.43509,0 9.84111,3.96932 9.84111,8.86571c0,4.8964 -4.40602,8.86571 -9.84111,8.86571c-5.43509,0 -9.84111,-3.96932 -9.84111,-8.86571z" fill="#8499b1"/><path d="M284.30322,226.28341c0,-2.86789 2.58067,-5.19278 5.76408,-5.19278c3.18341,0 5.76408,2.32489 5.76408,5.19278c0,2.86789 -2.58067,5.19278 -5.76408,5.19278c-3.18341,0 -5.76408,-2.32488 -5.76408,-5.19278z" fill="#92c5ff"/></g><path d="M305.53189,194.93839l-4.17502,17.46276" fill="none" stroke="#000000" stroke-width="2" stroke-linecap="round"/></g></g></g></svg>