<svg version="1.1" xmlns="http://www.w3.org/2000/svg" xmlns:xlink="http://www.w3.org/1999/xlink" width="54.48515" height="49.93398" viewBox="0,0,54.48515,49.93398"><g transform="translate(-208.55167,-150.34642)"><g data-paper-data="{&quot;isPaintingLayer&quot;:true}" fill-rule="nonzero" stroke-width="1.2" stroke-miterlimit="10" stroke-dasharray="" stroke-dashoffset="0" style="mix-blend-mode: normal"><path d="M254.8599,188.74187l-0.20933,0.60617c-1.16124,3.06186 -2.81201,4.82397 -2.81201,4.82397c0,0 0.05923,-0.54662 0.02752,-1.42486l-0.05148,-0.01796c-0.14872,0.46238 -0.39297,1.05867 -0.79892,1.79527c-0.89026,1.61763 -3.50453,2.97374 -3.50453,2.97374c0,0 0.16251,-0.55614 0.26433,-1.46608l-0.03665,-0.13921c-0.28335,0.21818 -0.57727,0.41868 -0.87436,0.61391c-0.08742,0.05782 -0.17479,0.11419 -0.26362,0.1688c-0.27032,0.16814 -0.54556,0.3285 -0.82645,0.47827c-0.11098,0.05848 -0.22623,0.11278 -0.33866,0.1688c-0.2051,0.10257 -0.41305,0.19946 -0.62413,0.29322c-0.15507,0.068 -0.31118,0.13568 -0.47017,0.19876c-0.16458,0.06627 -0.33373,0.12582 -0.50183,0.18787c-0.30907,0.11063 -0.62272,0.21391 -0.94346,0.30908c-0.10465,0.031 -0.20933,0.062 -0.31576,0.09089c-0.2287,0.06276 -0.4592,0.12407 -0.69389,0.17836l0.0007,0.00071c-1.17819,0.27454 -2.42821,0.45356 -3.7664,0.53601c-1.44776,0.08883 -2.76019,0.07438 -3.9859,-0.01093v0c-0.96989,-0.068 -1.87771,-0.1843 -2.73728,-0.34149c-0.04157,-0.0074 -0.08355,-0.01515 -0.12547,-0.02255c-0.26574,-0.05042 -0.52724,-0.10397 -0.78377,-0.16175c-0.08953,-0.02083 -0.17519,-0.04337 -0.26433,-0.06487c-0.34082,-0.08104 -0.67209,-0.16987 -0.99877,-0.26433c-0.2065,-0.0599 -0.41164,-0.12124 -0.61215,-0.18642c-0.11912,-0.0377 -0.23861,-0.0772 -0.35527,-0.11702c-0.31859,-0.10996 -0.63435,-0.22165 -0.9406,-0.34219l-0.05324,0.05109c0.1156,0.82785 0.40106,1.27332 0.6291,1.48546c0.46484,0.43313 1.35963,0.53605 1.35963,0.53605c0,0 -2.73516,0.38275 -4.2245,-1.72899c-0.15823,-0.22448 -0.31788,-0.45709 -0.46942,-0.70486l-0.06522,-0.14167c-0.32351,-0.10817 -0.65126,-0.25196 -0.97482,-0.43701c-1.97285,-1.13657 -2.22061,-2.074 -2.22061,-2.074l0.04122,0.3436c0.18998,0.89554 0.37534,1.4608 0.37534,1.4608c0,0 -2.36124,-1.49427 -3.4129,-3.73356c-0.8479,-1.8076 -0.91523,-2.90256 -0.92087,-3.08656l-0.07931,-0.6576c-0.05109,-2.57518 0.10891,-5.46365 0.46276,-8.30526l0.02184,-0.07575c0.31542,-2.19665 0.00951,-5.83582 2.92406,-9.55952c5.46153,-6.97592 11.0411,-6.73344 14.37821,-11.88903c2.45463,-3.79282 1.82416,-8.1428 1.82416,-8.1428c0,0 1.50523,2.13113 2.10575,3.3826c0.5815,1.21973 1.20246,2.79189 1.20246,2.79189l0.02008,-0.01339c0.01374,-0.04585 0.02607,-0.0927 0.03664,-0.13957c0.16392,-0.72987 0.09905,-1.80901 0.09905,-1.80901c0,0 1.43507,4.20583 3.75191,6.96319c2.31543,2.756 5.66204,3.54365 9.88725,12.98192c0.52584,1.17287 1.01463,2.16002 1.27613,3.25431l0.11842,0.62977c0.36831,1.96795 0.22346,7.40479 -0.55049,9.75373zM227.793,179.49847c0,0 -2.73693,2.84298 -2.5565,6.79897c0.15965,3.50027 1.06681,4.58149 1.55561,4.85216c0.50258,0.27666 1.28178,0.11279 1.28178,0.11279c0,0 -2.20406,1.16723 -4.00074,-0.41657c-1.20175,-1.05867 -2.5096,-2.42433 -2.87579,-6.27631M250.56846,185.80262c0,0 0.34007,0.97341 -0.48884,3.00795c-0.9325,2.29217 -2.9001,3.00126 -2.9001,3.00126c0,0 1.63489,-3.53132 0.26292,-6.85151c-0.59876,-1.45058 -2.44689,-2.5311 -4.37605,-3.29408c-2.61428,-1.03475 -5.37697,-1.48585 -5.37697,-1.48585M251.82658,192.69077c-0.14731,0.46801 -0.39504,1.07875 -0.81301,1.83508c-0.8899,1.61763 -3.50418,2.97374 -3.50418,2.97374c0,0 0.47228,-1.62256 0.31122,-3.85659M221.7549,187.40791c-0.26855,0.49835 -0.47506,1.0326 -0.59067,1.59683c-0.726,3.51793 0.55155,7.39285 0.55155,7.39285c0,0 -2.36053,-1.4936 -3.41289,-3.73359c-0.93285,-1.98803 -0.92087,-3.11405 -0.92087,-3.11405M254.64882,189.3505c-1.16194,3.06186 -2.81237,4.82397 -2.81237,4.82397c0,0 0.34082,-3.10555 -1.034,-6.4261c-0.06201,-0.15013 -0.13216,-0.29603 -0.2065,-0.43771M237.68977,180.18039c0,0 0.46805,0.12406 1.70293,1.10698c1.23492,0.98292 1.68919,2.05532 1.68919,2.05532c0,0 -3.64618,-0.96032 -5.66487,-1.68632c-2.01658,-0.7267 -8.82154,-2.57976 -8.82154,-2.57976M226.14367,194.80036c0.98852,1.5528 2.01692,2.39757 2.01692,2.39757c0,0 -2.4187,0.74889 -4.64076,-0.53006c-1.97285,-1.13654 -2.22061,-2.07401 -2.22061,-2.07401M247.73636,195.89501c-2.60689,2.00565 -5.7692,2.98857 -9.61558,3.22538c-4.58572,0.2823 -7.93762,-0.38764 -10.80249,-1.51153M227.23687,197.40372c0.08671,0.99314 0.406,1.50805 0.65658,1.74062c0.46519,0.43313 1.35999,0.53605 1.35999,0.53605c0,0 -2.73587,0.38275 -4.22486,-1.729c-0.15823,-0.22448 -0.31788,-0.45709 -0.46942,-0.70486M237.95445,180.2981c0,0 9.98841,1.21836 9.98841,6.66998" fill="#be1e2d" stroke="#000000" stroke-linecap="round" stroke-linejoin="round"/><path d="M238.42497,197.72235c-5.82314,0.3436 -14.42862,-2.27491 -15.67728,-7.09677c-0.12405,-0.48461 -0.18995,-0.95263 -0.20792,-1.40232l0.12653,0.09235c0.44194,0.64703 0.93214,1.11364 1.40685,1.53091c1.79668,1.58309 4.00074,0.41587 4.00074,0.41587c0,0 -0.7792,0.16458 -1.28178,-0.11208c-0.4888,-0.27067 -1.39596,-1.35189 -1.55561,-4.85216c-0.18043,-3.9567 2.5565,-6.79898 2.5565,-6.79898l0.00951,-0.09094c2.04828,0.56741 6.129,1.71279 7.6138,2.24813c2.01869,0.72635 5.66487,1.68632 5.66487,1.68632c0,0 -0.45427,-1.0724 -1.68919,-2.05532c-0.61814,-0.49161 -1.04352,-0.76827 -1.31418,-0.92228l0.25375,0.03981c0,0 11.61001,0.48686 13.02043,3.90395c1.37162,3.32055 1.1272,5.0753 -0.5883,7.50298c-1.7155,2.42768 -5.74276,5.52495 -12.33872,5.91052z" fill="#be1e2d" stroke="#000000" stroke-linecap="round" stroke-linejoin="round"/><g stroke="#000000" stroke-linecap="round" stroke-linejoin="miter"><path d="M252.62238,182.16807c0,0 3.54889,-3.97357 3.74628,-4.16179c0.19735,-0.18819 1.66413,-1.98623 5.89145,-2.60054c0,0 -2.7147,12.07162 -9.03826,14.83286c0,-0.00035 0.60158,-3.45448 -0.59947,-8.07054zM252.64704,182.26535c-0.0913,-0.38169 -0.36689,-1.05589 -0.36689,-1.05589M252.91877,191.16405c0,0 0.2428,-0.57867 0.30308,-0.9258" fill="#be1e2d"/><path d="M255.74201,188.34115c0,0 -0.63329,-0.48673 -0.70626,-2.08779c-0.04686,-0.99314 0.38945,-2.80423 0.38945,-2.80423l-0.03524,0.05778c0.27666,-0.32 0.56847,-0.69389 0.83279,-1.10412c0.44793,-0.69393 0.97196,-1.73464 1.45234,-2.76055l0.07433,-0.14132c0,0 1.27015,-1.85764 3.90276,-2.09272l0.0303,0.01657c-0.55468,1.83508 -1.45939,4.52656 -2.46134,6.36513c-1.12385,2.06241 -2.42429,3.56022 -3.52564,4.58894l0.04651,-0.0377zM254.32883,184.54132c0,0 0.92369,-0.90259 1.09637,-1.09219" fill="#be1e2d"/></g><g stroke="#000000" stroke-linecap="round" stroke-linejoin="miter"><path d="M218.36635,190.23825c-6.32321,-2.76125 -9.03795,-14.83286 -9.03795,-14.83286c4.22736,0.61465 5.69415,2.41271 5.8915,2.60054c0.19735,0.18787 3.74627,4.16179 3.74627,4.16179c-1.2014,4.61641 -0.59982,8.07054 -0.59982,8.07054zM219.30801,181.20946c0,0 -0.2756,0.6742 -0.36686,1.05589M218.36635,190.23825c0.06025,0.34713 0.30309,0.9258 0.30309,0.9258" fill="#be1e2d"/><path d="M215.89269,188.37885c-1.10135,-1.02908 -2.40143,-2.52687 -3.52567,-4.58894c-1.0023,-1.83857 -1.90661,-4.53005 -2.46134,-6.36513l0.03034,-0.01657c2.63296,0.23543 3.90275,2.09272 3.90275,2.09272l0.07434,0.14132c0.48034,1.0259 1.00441,2.06662 1.45234,2.76055c0.26433,0.41023 0.55613,0.78412 0.83279,1.10412l-0.03523,-0.05778c0,0 0.4363,1.81109 0.3894,2.80423c-0.07293,1.60106 -0.70626,2.08779 -0.70626,2.08779l0.04654,0.0377zM216.16301,183.44914c0.17268,0.18959 1.09637,1.09219 1.09637,1.09219" fill="#be1e2d"/></g><path d="M247.45619,188.15066c0.05599,-0.08511 0.1325,-0.15684 0.23631,-0.19227c0.00191,-0.00096 0.2243,-0.09323 0.27833,-0.29698c0.06742,-0.2549 0.32716,-0.41083 0.58493,-0.34007c0.25586,0.06837 0.40796,0.32907 0.34007,0.58493c-0.04117,0.15306 -0.10955,0.27744 -0.18319,0.38836c0.06981,0.01196 0.14105,0.02726 0.21187,0.04208c0.05307,-0.04208 0.11476,-0.07459 0.1851,-0.09038c0.00287,-0.00096 0.24104,-0.0569 0.32328,-0.25203c0.10381,-0.24491 0.38597,-0.35394 0.62753,-0.254c0.24391,0.10285 0.35771,0.38406 0.25443,0.62701c-0.08803,0.20954 -0.21522,0.36158 -0.34963,0.47926c0.08229,0.15784 0.10907,0.3458 0.05499,0.52851c-0.09133,0.31276 -0.37832,0.51746 -0.68917,0.51746c-0.06646,0 -0.13297,-0.01003 -0.19992,-0.02916c-2.17567,-0.63418 -4.40112,-0.02917 -4.42311,-0.02248c-0.38406,0.10471 -0.7772,-0.11672 -0.88383,-0.49887c-0.10764,-0.38119 0.1138,-0.77624 0.49499,-0.88287v0v0v0v0v0c0.07656,-0.02152 1.42386,-0.38835 3.13701,-0.30851z" data-paper-data="{&quot;index&quot;:null}" fill="#231f20" stroke="none" stroke-linecap="butt" stroke-linejoin="miter"/><path d="M237.72963,188.73599v0v0v0v0v0c0.38119,0.10663 0.60263,0.50168 0.49499,0.88287c-0.10663,0.38215 -0.49978,0.60358 -0.88383,0.49887c-0.022,-0.00669 -2.24744,-0.61171 -4.42311,0.02247c-0.06695,0.01913 -0.13346,0.02916 -0.19992,0.02916c-0.31085,0 -0.59784,-0.2047 -0.68917,-0.51746c-0.05408,-0.1827 -0.0273,-0.37067 0.05499,-0.52851c-0.13441,-0.11767 -0.26159,-0.26972 -0.34963,-0.47925c-0.10328,-0.24295 0.01052,-0.52416 0.25443,-0.62702c0.24157,-0.09993 0.52372,0.0091 0.62753,0.25401c0.08225,0.19513 0.32041,0.25107 0.32328,0.25203c0.07034,0.01578 0.13202,0.0483 0.1851,0.09038c0.07082,-0.01483 0.14206,-0.03013 0.21187,-0.04208c-0.07363,-0.11093 -0.14202,-0.23531 -0.18319,-0.38836c-0.06789,-0.25586 0.0842,-0.51655 0.34007,-0.58493c0.25778,-0.07076 0.51752,0.08516 0.58493,0.34007c0.05403,0.20374 0.27642,0.29602 0.27834,0.29698c0.10381,0.03544 0.18031,0.10717 0.2363,0.19227c1.71314,-0.07985 3.06045,0.28699 3.13701,0.30851z" data-paper-data="{&quot;index&quot;:null}" fill="#231f20" stroke="none" stroke-linecap="butt" stroke-linejoin="miter"/></g></g></svg>