<svg viewBox="0,0,60.40268,60.40268" height="60.40268" width="60.40268" xmlns:xlink="http://www.w3.org/1999/xlink" xmlns="http://www.w3.org/2000/svg" version="1.1"><defs><radialGradient id="color-1" gradientUnits="userSpaceOnUse" r="30.20134" cy="180" cx="240"><stop stop-color="#ff6c6c" offset="0"></stop><stop stop-opacity="0" stop-color="#ff6c6c" offset="1"></stop></radialGradient></defs><g transform="translate(-209.79866,-149.79866)"><g style="mix-blend-mode: normal" stroke-dashoffset="0" stroke-dasharray="" stroke-miterlimit="10" stroke-linejoin="miter" stroke-linecap="butt" fill-rule="nonzero" data-paper-data="{&quot;isPaintingLayer&quot;:true}"><path stroke-width="2" stroke="#000000" fill="#ff6c6c" d="M217.6,171.04c0,0 11.44948,0 17.40296,0c1.6074,0 -4.6281,-11.04 -2.464,-11.04c6.28406,0 29.86104,17.1108 29.86104,20.05136c0,3.03009 -22.23614,19.94864 -28.51704,19.94864c-2.42004,0 2.43529,-11.04 0.672,-11.04c-5.86937,0 -16.95496,0 -16.95496,0z"></path><path stroke-width="0" stroke="none" fill="url(#color-1)" d="M209.79866,180c0,-16.67974 13.5216,-30.20134 30.20134,-30.20134c16.67974,0 30.20134,13.5216 30.20134,30.20134c0,16.67974 -13.5216,30.20134 -30.20134,30.20134c-16.67974,0 -30.20134,-13.5216 -30.20134,-30.20134z"></path></g></g></svg>