<svg version="1.1" xmlns="http://www.w3.org/2000/svg" xmlns:xlink="http://www.w3.org/1999/xlink" width="47.89905" height="42.5" viewBox="0,0,47.89905,42.5"><defs><linearGradient x1="226.30117" y1="180" x2="235.22332" y2="180" gradientUnits="userSpaceOnUse" id="color-1"><stop offset="0" stop-color="#5d5454"/><stop offset="1" stop-color="#5d5454" stop-opacity="0"/></linearGradient></defs><g transform="translate(-215.50096,-158.75)"><g data-paper-data="{&quot;isPaintingLayer&quot;:true}" fill-rule="nonzero" stroke-linecap="butt" stroke-linejoin="miter" stroke-miterlimit="10" stroke-dasharray="" stroke-dashoffset="0" style="mix-blend-mode: normal"><path d="M216.75097,171.04c0,0 11.44948,0 17.40296,0c1.6074,0 -4.6281,-11.04 -2.464,-11.04c6.28406,0 29.86104,17.1108 29.86104,20.05136c0,3.03009 -22.23614,19.94864 -28.51704,19.94864c-2.42004,0 2.43529,-11.04 0.672,-11.04c-5.86937,0 -16.95496,0 -16.95496,0z" data-paper-data="{&quot;index&quot;:null}" fill="#1e1919" stroke="#1e1919" stroke-width="2.5"/><path d="M217.60002,171.04c0,0 11.44948,0 17.40296,0c1.6074,0 -4.6281,-11.04 -2.464,-11.04c6.28406,0 29.86104,17.1108 29.86104,20.05136c0,3.03009 -22.23614,19.94864 -28.51704,19.94864c-2.42004,0 2.43529,-11.04 0.672,-11.04c-5.86937,0 -16.95496,0 -16.95496,0z" data-paper-data="{&quot;index&quot;:null}" fill="#7d6e6e" stroke="#4f4747" stroke-width="2"/><path d="M217.49703,188.8998v-17.7996h8.92215v17.7996z" fill="#5c5353" stroke="none" stroke-width="0"/><path d="M226.30117,188.8998v-17.7996h8.92215v17.7996z" fill="url(#color-1)" stroke="none" stroke-width="0"/><path d="M217.60002,171.04c0,0 11.44948,0 17.40296,0c1.6074,0 -4.6281,-11.04 -2.464,-11.04c6.28406,0 29.86104,17.1108 29.86104,20.05136c0,3.03009 -22.23614,19.94864 -28.51704,19.94864c-2.42004,0 2.43529,-11.04 0.672,-11.04c-5.86937,0 -16.95496,0 -16.95496,0z" data-paper-data="{&quot;index&quot;:null}" fill="none" stroke="#4f4747" stroke-width="2"/></g></g></svg>