<svg version="1.1" xmlns="http://www.w3.org/2000/svg" xmlns:xlink="http://www.w3.org/1999/xlink" width="143.33286" height="234.68075" viewBox="0,0,143.33286,234.68075"><g transform="translate(-158.21776,-96.04478)"><g data-paper-data="{&quot;isPaintingLayer&quot;:true}" fill="#000000" fill-rule="nonzero" stroke="#ff0090" stroke-width="2" stroke-miterlimit="10" stroke-dasharray="" stroke-dashoffset="0" style="mix-blend-mode: normal"><g stroke-linecap="butt" stroke-linejoin="miter"><g><path d="M195.71327,329.12272v-102.40653h101.23822v102.40653z"/><path d="M177.15294,320.03828v-102.40653l18.56034,9.08445v102.40653z"/><path d="M195.60015,226.2553l-17.71669,-8.67152l102.92552,1.23879l16.45121,8.25859z"/></g><path d="M199.29004,231.31583c0,-0.81096 0.67157,-1.46836 1.5,-1.46836c0.82843,0 1.5,0.65741 1.5,1.46836c0,0.81096 -0.67157,1.46836 -1.5,1.46836c-0.82843,0 -1.5,-0.65741 -1.5,-1.46836z"/><path d="M291.29004,231.96844c0,-0.81096 0.67158,-1.46836 1.5,-1.46836c0.82842,0 1.5,0.65741 1.5,1.46836c0,0.81096 -0.67158,1.46836 -1.5,1.46836c-0.82842,0 -1.5,-0.65741 -1.5,-1.46836z"/><path d="M292.62336,325.61748c0,-0.81095 0.67158,-1.46836 1.5,-1.46836c0.82842,0 1.5,0.65742 1.5,1.46836c0,0.81095 -0.67158,1.46836 -1.5,1.46836c-0.82842,0 -1.5,-0.65742 -1.5,-1.46836z"/><path d="M198.62337,326.59639c0,-0.81095 0.67157,-1.46836 1.5,-1.46836c0.82843,0 1.5,0.65742 1.5,1.46836c0,0.81095 -0.67157,1.46836 -1.5,1.46836c-0.82843,0 -1.5,-0.65742 -1.5,-1.46836z"/></g><path d="M230.33494,215.37239c0.94883,-1.55719 3.44796,-3.18753 4.79668,-2.18021c1.26793,0.94666 1.02462,2.26266 1.02462,2.26266c-0.23724,1.52223 -0.54756,4.33778 -1.11806,6.14564c-0.10188,0.3193 -0.20862,0.61343 -0.32001,0.90495l0.01177,-0.01448c0,0 1.15489,1.82476 0.23527,2.31814c-0.55404,0.29834 -1.15109,0.17233 -1.5428,0.03295c-0.73641,0.87805 -1.60161,1.31011 -2.62486,1.1452c-2.39482,-0.38502 -2.68155,-4.72947 -2.68155,-4.72947c-0.02181,-1.11142 1.27012,-4.32818 2.21895,-5.88537v0v0v0v0v0z" data-paper-data="{&quot;index&quot;:null}" stroke-linecap="round" stroke-linejoin="round"/><g><path d="M249.0002,213.54294v0v0v0v0v0c0.415,2.74251 -0.2521,7.793 -3.4623,9.5661c-3.1752,1.75019 -6.543,1.51574 -10.0341,-0.81602c-2.8925,-1.93266 -2.8232,-7.45988 -2.5207,-10.55226v0c0,0 0.0198,-7.15397 6.1703,-8.03528c6.1486,-0.88121 9.0042,4.60812 9.4795,8.03264c0.1495,0.60281 0.2773,1.21796 0.3673,1.80482z" stroke-linecap="butt" stroke-linejoin="miter"/><path d="M247.3042,221.40202v0v0v0v0v0l-0.0153,0.14008c-0.4718,0.63805 -1.0515,1.17919 -1.7501,1.56518c-2.9411,1.62147 -6.0461,1.54041 -9.2626,-0.334l-0.0333,-0.14096c0,0 -1.7033,-9.09818 4.2221,-9.50443c6.7284,-0.45823 6.8815,6.75223 6.8392,8.27414z" stroke-linecap="round" stroke-linejoin="round"/></g><path d="M249.30299,223.4152c-2.53434,2.60057 -5.44975,3.6442 -6.51174,2.33101c-1.06199,-1.31319 0.13158,-4.48592 2.66592,-7.0865c2.53434,-2.60057 5.44975,-3.6442 6.51174,-2.33101c1.06199,1.31319 -0.13158,4.48592 -2.66592,7.0865z" stroke-linecap="butt" stroke-linejoin="miter"/><path d="M235.86304,219.37061c1.65573,-0.31641 3.48167,0.4425 3.48167,0.4425c0,0 -0.20498,5.96326 -0.32664,8.11496c-0.12121,2.1549 0.24914,5.59571 0.24914,5.59571c0,0 0.42869,0.39389 0.13543,1.24275c-0.2966,0.84634 -2.00444,0.80102 -4.19004,0.98736c-2.18104,0.18158 -3.82919,-0.42069 -4.00621,-1.31466c-0.18047,-0.89022 0.51199,-1.20653 0.51199,-1.20653c0,0 2.23836,-6.86858 1.78067,-9.38829c0.00359,0.00569 0.253,-4.07063 2.36398,-4.4738v0v0v0v0v0z" stroke-linecap="round" stroke-linejoin="round"/><path d="M249.725,216.43301c1.61768,-0.47519 3.50791,0.10345 3.50791,0.10345c0,0 0.36788,5.95536 0.45315,8.10883c0.08602,2.15661 0.78463,5.54556 0.78463,5.54556c0,0 0.46447,0.35056 0.25399,1.22386c-0.21405,0.87111 -1.91829,0.99131 -4.07585,1.38833c-2.15348,0.39184 -3.85172,-0.0481 -4.11365,-0.92078c-0.265,-0.86862 0.39389,-1.25048 0.39389,-1.25048c0,0 1.56921,-7.05328 0.87201,-9.51696c0.00412,0.00532 -0.13857,-4.07619 1.92392,-4.68181z" stroke-linecap="round" stroke-linejoin="round"/><path d="M255.55931,221.94759v0v0v0v0v0c0,0 -1.77845,3.99003 -4.16521,3.5506c-1.02104,-0.18047 -1.68224,-0.88001 -2.07282,-1.94992c-0.41874,0.00256 -1.01998,-0.07748 -1.4394,-0.54263c-0.69314,-0.76866 1.02466,-2.10392 1.02466,-2.10392l0.00578,0.01678c-0.00062,-0.30916 -0.00067,-0.62351 0.01303,-0.95748c0.09382,-1.88802 0.77649,-4.64224 1.08056,-6.15223c0,0 0.61159,-1.58247 1.93062,-1.7022c1.31862,-0.12062 2.69591,1.56184 2.90305,2.48274c0.20645,0.92131 1.32972,5.37898 0.71974,7.35826z" data-paper-data="{&quot;index&quot;:null}" stroke-linecap="round" stroke-linejoin="round"/><g stroke-linecap="butt" stroke-linejoin="miter"><path d="M277.56672,268.59872c-7.15099,2.50508 -52.55532,1.88501 -59.56638,-0.35088c-8.09698,-2.58223 -7.09963,-21.73329 1.14302,-24.31772c6.98037,-2.18864 52.11526,-1.77757 59.35121,1.00049c6.55344,2.51603 6.3748,21.10989 -0.92785,23.6681z" data-paper-data="{&quot;index&quot;:null}"/><path d="M273.36,265.04103c-5.6941,1.77599 -41.84808,1.33639 -47.43075,-0.24876c-6.44737,-1.83068 -5.65321,-15.40788 0.91014,-17.24011c5.55824,-1.55164 41.49766,-1.26022 47.25942,0.70929c5.21828,1.78374 5.07604,14.96592 -0.73883,16.77958z" data-paper-data="{&quot;index&quot;:null}"/></g><g stroke-linecap="butt" stroke-linejoin="miter"><path d="M278.62869,315.81738c-7.28611,2.55242 -53.54841,1.92063 -60.69194,-0.35752c-8.24998,-2.63102 -7.23378,-22.14396 1.16462,-24.77722c7.11227,-2.23 53.10002,-1.81117 60.47271,1.0194c6.67728,2.56357 6.49525,21.50878 -0.94539,24.11534z" data-paper-data="{&quot;index&quot;:null}"/><path d="M274.34247,312.19246c-5.8017,1.80954 -42.63884,1.36163 -48.32699,-0.25346c-6.5692,-1.86526 -5.76003,-15.69902 0.92734,-17.56588c5.66326,-1.58096 42.2818,-1.28403 48.15243,0.72271c5.31689,1.81744 5.17195,15.24871 -0.75279,17.09664z" data-paper-data="{&quot;index&quot;:null}"/></g><g stroke-linecap="round" stroke-linejoin="round"><path d="M283.24472,180.43215l-0.21642,1.5907c-1.35897,8.08788 -4.65428,13.24312 -4.65428,13.24312c0,0 -0.13618,-1.36844 -0.67954,-3.50242l-0.14114,-0.01777c-0.13708,1.20778 -0.44801,2.79213 -1.09879,4.80236c-1.42592,4.41396 -7.3996,9.06617 -7.3996,9.06617c0,0 0.12298,-1.44434 -0.09548,-3.72401l-0.167,-0.32215c-0.60999,0.67851 -1.25632,1.31919 -1.91354,1.94855c-0.19318,0.1861 -0.38703,0.36865 -0.5855,0.5476c-0.60298,0.54938 -1.22268,1.0822 -1.86236,1.59203c-0.25312,0.19974 -0.51935,0.39141 -0.77748,0.58585c-0.47066,0.35562 -0.95161,0.69879 -1.44223,1.03589c-0.36087,0.24549 -0.72461,0.49076 -1.09809,0.72617c-0.38611,0.24612 -0.78748,0.4781 -1.18483,0.71566c-0.73239,0.42834 -1.48037,0.841 -2.25074,1.23742c-0.25136,0.12923 -0.50282,0.25848 -0.7599,0.38345c-0.552,0.27017 -1.10936,0.53772 -1.68113,0.79023l0.00217,0.00137c-2.86936,1.27249 -5.97274,2.34774 -9.35248,3.23146c-3.65668,0.95518 -7.02151,1.58857 -10.20183,2.00429v0c-2.51679,0.32773 -4.90028,0.50557 -7.18181,0.55875c-0.11025,0.00307 -0.22167,0.00547 -0.33282,0.00872c-0.7063,0.01196 -1.40343,0.0141 -2.09006,0.00335c-0.23999,-0.00536 -0.47096,-0.01693 -0.7103,-0.02412c-0.91448,-0.02473 -1.80862,-0.0734 -2.69402,-0.1382c-0.55977,-0.04142 -1.1168,-0.08707 -1.66403,-0.14448c-0.32457,-0.0316 -0.65099,-0.06742 -0.97037,-0.10545c-0.87283,-0.10689 -1.73935,-0.21943 -2.5862,-0.35848l-0.1093,0.15221c0.73143,1.96788 1.69612,2.91302 2.3911,3.3162c1.41704,0.82355 3.76014,0.61957 3.76014,0.61957c0,0 -6.79522,2.33077 -11.71645,-2.0804c-0.52292,-0.46894 -1.05373,-0.95709 -1.57178,-1.48646l-0.2414,-0.31362c-0.8845,-0.09997 -1.79856,-0.285 -2.72362,-0.57318c-5.64482,-1.77734 -6.77201,-3.94615 -6.77201,-3.94615l0.28629,0.82021c0.95733,2.0957 1.72901,3.38512 1.72901,3.38512c0,0 -6.82659,-2.45515 -10.69537,-7.4016c-3.12034,-3.9934 -3.86888,-6.63982 -3.98015,-7.08742l-0.549,-1.56956c-1.48606,-6.27862 -2.59705,-13.43183 -3.18748,-20.56909l0.01601,-0.19658c-0.34931,-5.53866 -3.04719,-14.29235 2.44847,-24.89395c10.29922,-19.86168 24.69958,-22.11111 30.52252,-36.43368c4.28281,-10.53652 0.38055,-20.86504 0.38055,-20.86504c0,0 4.97209,4.45051 7.16693,7.20842c2.12947,2.68988 4.54538,6.22252 4.54538,6.22252l0.04433,-0.04301c0.01102,-0.11923 0.0179,-0.24023 0.02028,-0.36035c0.03514,-1.87041 -0.69877,-4.47937 -0.69877,-4.47937c0,0 5.8846,9.56564 13.26243,15.1358c7.3735,5.56751 16.34883,5.7906 32.12465,26.74481c1.9624,2.60352 3.73233,4.77123 4.97722,7.31708l0.63439,1.48148c1.97791,4.63036 4.46891,18.01485 3.72542,24.15999v0zM209.14156,171.59408c0,0 -5.50485,8.35492 -2.96117,17.94821c2.25065,8.48817 5.14029,10.67301 6.53312,11.08659c1.43122,0.42123 3.33818,-0.37701 3.33818,-0.37701c0,0 -5.02371,3.98074 -10.45329,1.01872c-3.63134,-1.97952 -7.69564,-4.6566 -10.65974,-13.90057M270.72006,175.42287c0,0 1.38225,2.20985 0.33269,7.61329c-1.17894,6.08696 -5.83894,8.82556 -5.83894,8.82556c0,0 2.32349,-9.47858 -2.93356,-16.90812c-2.29513,-3.24626 -7.5914,-4.94992 -12.92784,-5.83488c-7.23205,-1.20121 -14.53654,-0.89788 -14.53654,-0.89788M277.56378,191.64566c-0.13051,1.22087 -0.44276,2.84234 -1.11389,4.90701c-1.42502,4.41379 -7.3987,9.066 -7.3987,9.066c0,0 0.35412,-4.21305 -1.23369,-9.60046M197.85878,194.03503c-0.42468,1.35693 -0.67173,2.77012 -0.67048,4.21041c-0.00555,8.98267 5.30191,17.81842 5.30191,17.81842c0,0 -6.82444,-2.45389 -10.69539,-7.40169c-3.43262,-4.39186 -3.99461,-7.1547 -3.99461,-7.1547M283.02511,182.02978c-1.36077,8.08824 -4.65518,13.2433 -4.65518,13.2433c0,0 -0.76269,-7.77679 -6.02723,-15.20574c-0.23764,-0.33596 -0.49389,-0.65743 -0.75862,-0.9664M234.81678,168.22065c0,0 1.26258,0.06523 4.93877,1.84243c3.67629,1.77717 5.40276,4.17122 5.40276,4.17122c0,0 -9.8325,-0.4932 -15.37849,-1.24198c-5.54095,-0.75158 -23.92362,-1.82083 -23.92362,-1.82083M212.97623,209.89724c3.34594,3.29791 6.42127,4.84207 6.42127,4.84207c0,0 -5.79297,3.06594 -12.15023,1.067c-5.6448,-1.77724 -6.77201,-3.94614 -6.77201,-3.94614M268.78729,201.57458c-5.61288,6.23867 -13.18487,10.25646 -22.89941,12.79614c-11.58187,3.02779 -20.50877,3.0956 -28.42874,1.80384M217.14288,215.71384c0.74453,2.38726 1.83229,3.48519 2.5957,3.92691c1.41794,0.82337 3.76104,0.61939 3.76104,0.61939c0,0 -6.79703,2.33113 -11.71736,-2.08021c-0.52292,-0.46894 -1.05372,-0.95709 -1.57177,-1.48646M235.55579,168.37398c0,0 26.19199,-2.1068 29.0613,11.24011"/><path d="M270.86581,184.38799c1.11062,9.78869 -8.26588,22.10006 -24.93565,26.405c-14.71497,3.80841 -38.1063,1.7826 -43.83826,-9.38622c-0.57241,-1.12322 -0.98727,-2.23546 -1.26991,-3.32725l0.37226,0.16162c1.47104,1.3589 2.97059,2.25146 4.40453,3.03117c5.4292,2.96029 10.45291,-1.02045 10.45291,-1.02045c0,0 -1.9066,0.79997 -3.33782,0.37873c-1.39282,-0.41359 -4.28246,-2.59843 -6.53311,-11.08659c-2.54405,-9.59501 2.96117,-17.94821 2.96117,-17.94821l-0.02353,-0.22749c5.53823,0.34544 16.5797,1.07027 20.65962,1.62434c5.54618,0.74964 15.37849,1.24199 15.37849,1.24199c0,0 -1.72648,-2.39405 -5.40277,-4.17122c-1.83998,-0.88862 -3.07372,-1.34919 -3.84715,-1.58832l0.67007,-0.03182c0,0 20.29902,-1.13723 25.7054,6.50994c5.25632,7.43058 2.93446,16.90795 2.93446,16.90795c0,0 3.96773,-2.33345 5.50295,-7.47191l0.14635,-0.00127v0z"/></g><g stroke-linecap="round" stroke-linejoin="miter"><path d="M274.06111,165.47804c0,0 6.98682,-11.5366 7.39267,-12.09799c0.40577,-0.56127 3.21151,-5.71074 13.70184,-9.36875c0,0 -0.59073,30.93753 -15.31335,40.9199c-0.00018,-0.00086 -0.27929,-8.76392 -5.78116,-19.45315zM274.17539,165.70364c-0.43442,-0.88795 -1.49426,-2.39812 -1.49426,-2.39812M279.55408,187.35135c0,0 0.3165,-1.54046 0.28802,-2.42102"/><path d="M285.29029,179.00162c0,0 -1.87616,-0.86892 -2.9055,-4.75153c-0.64258,-2.40756 -0.47972,-7.06386 -0.47972,-7.06386l-0.05971,0.15943c0.53928,-0.92439 1.08894,-1.98848 1.54918,-3.12751c0.78059,-1.92716 1.57333,-4.74206 2.26221,-7.49851l0.11579,-0.38388c0,0 2.27137,-5.19514 8.88194,-7.11213l0.08622,0.02511c-0.45305,4.77538 -1.35073,11.82577 -2.94607,16.83758c-1.78936,5.62196 -4.32763,9.95156 -6.60346,13.03131l0.09913,-0.11599v0zM279.67537,170.4188c0,0 1.88778,-2.68042 2.22972,-3.23259"/></g><g stroke-linecap="round" stroke-linejoin="miter"><path d="M190.68043,202.69102c-17.62832,-3.53818 -30.92628,-31.70913 -30.92628,-31.70913c11.13726,-0.64923 15.83572,3.00543 16.43939,3.36473c0.60369,0.3594 11.77356,8.28015 11.77356,8.28015c-0.64351,11.91427 2.71334,20.06426 2.71334,20.06426v0zM188.33717,180.10654c0,0 -0.35015,1.79104 -0.38268,2.77201M190.68043,202.69102c0.33682,0.81914 1.26256,2.11215 1.26256,2.11215"/><path d="M183.37405,199.39923c-3.3589,-1.95823 -7.47291,-4.96272 -11.43408,-9.4383c-3.5316,-3.99055 -7.26145,-10.11914 -9.6463,-14.32922l0.0689,-0.056c6.85912,-0.76523 11.08483,3.13482 11.08483,3.13482l0.26455,0.30811c1.76869,2.2669 3.65703,4.54775 5.16808,6.01843c0.89207,0.86965 1.83531,1.63636 2.71143,2.2788l-0.12054,-0.12351c0,0 2.06929,4.21167 2.47203,6.667c0.65611,3.95695 -0.7078,5.47128 -0.7078,5.47128l0.13891,0.06858v0zM181.47092,187.19236c0.54151,0.37618 3.37939,2.11527 3.37939,2.11527"/></g><path d="M226.16408,188.61269v0v0v0v0v0c0.75986,0.04923 1.33047,0.67878 1.27542,1.40686c-0.05278,0.72943 -0.70795,1.27653 -1.47248,1.23182c-0.04406,-0.00382 -4.47351,-0.25969 -8.32854,1.7013c-0.11876,0.05964 -0.24024,0.10273 -0.36552,0.12768c-0.58593,0.11672 -1.20628,-0.14481 -1.49972,-0.67475c-0.1728,-0.3093 -0.19523,-0.65844 -0.10133,-0.97409c-0.29899,-0.16182 -0.5977,-0.38837 -0.8449,-0.73332c-0.2889,-0.39951 -0.18346,-0.94953 0.2364,-1.22667c0.41659,-0.27098 0.99072,-0.18026 1.28138,0.2226c0.2307,0.32115 0.70133,0.33264 0.7071,0.3333c0.13871,0.00206 0.26758,0.03755 0.38394,0.09353c0.12774,-0.05333 0.2561,-0.10768 0.38305,-0.15546c-0.18182,-0.17247 -0.35894,-0.37117 -0.4959,-0.63184c-0.22721,-0.43608 -0.04161,-0.96349 0.41415,-1.18291c0.45844,-0.22445 1.0085,-0.04067 1.23444,0.39386c0.18086,0.34727 0.63584,0.43025 0.63982,0.43126c0.20942,0.02495 0.38144,0.12561 0.52,0.25813c3.19818,-0.78729 5.88004,-0.63137 6.03269,-0.62129z" stroke-linecap="butt" stroke-linejoin="miter"/><path d="M258.19626,181.12348v0v0v0v0v0c0.00673,0.80124 -0.37669,1.35716 -0.7111,1.71262c0.15217,0.22256 0.26097,0.47894 0.24917,0.76554c-0.0304,0.72857 -0.6551,1.29938 -1.43344,1.27351c-2.95072,-0.10327 -6.63828,0.38032 -7.2162,1.23864c-0.209,0.30879 -0.52735,0.50723 -0.87805,0.57709c-0.34528,0.06878 -0.71388,0.01168 -1.03164,-0.18499c-0.63945,-0.39455 -0.82268,-1.2119 -0.40786,-1.82725c1.11741,-1.65493 4.10633,-2.21343 6.55632,-2.38842c0.09568,-0.11891 0.23834,-0.35152 0.19812,-0.62606c-0.07649,-0.4787 0.22671,-0.95308 0.77008,-1.00545c0.50189,-0.07479 0.97004,0.25304 1.04827,0.73499c0.04653,0.30386 0.02356,0.573 -0.02318,0.82338c0.12307,-0.00023 0.24018,-0.00197 0.35075,0.00039c0.06404,-0.15678 0.15506,-0.30174 0.3094,-0.40625c0.02227,-0.01883 0.38082,-0.28825 0.37894,-0.67297c-0.0012,-0.48651 0.39799,-0.89085 0.91458,-0.88851c0.50809,-0.00226 0.92156,0.38603 0.92584,0.87373z" stroke-linecap="butt" stroke-linejoin="miter"/></g></g></svg>