<svg version="1.1" xmlns="http://www.w3.org/2000/svg" xmlns:xlink="http://www.w3.org/1999/xlink" width="100.10159" height="108.23625" viewBox="0,0,100.10159,108.23625"><defs><radialGradient cx="274.36338" cy="186.06764" r="7.45407" gradientUnits="userSpaceOnUse" id="color-1"><stop offset="0" stop-color="#54606d"/><stop offset="1" stop-color="#2c3136"/></radialGradient></defs><g transform="translate(-193.47232,-128.88409)"><g data-paper-data="{&quot;isPaintingLayer&quot;:true}" stroke-miterlimit="10" stroke-dasharray="" stroke-dashoffset="0" style="mix-blend-mode: normal"><path d="M239.31981,200.74281c0.14751,0.72301 0.44911,2.06761 0.75162,3.8537c0.57447,3.39183 1.15228,8.37577 0.6844,13.71832l-0.06106,0.40293c-0.06106,0.40293 0.32984,0.7741 0.7818,0.74232c2.90514,-0.64719 8.59939,-1.66764 8.06421,3.99523c-0.45784,5.48025 -17.4917,9.20256 -19.33233,3.97249c-0.57624,-2.26274 0.73682,-3.55095 1.45953,-4.22188c0.38068,-0.38111 0.57408,-0.83764 0.67382,-1.33188c0.08952,-1.24651 0.19122,-3.5569 0.00588,-5.44847c-0.39719,-4.75575 -0.85327,-6.00818 -1.48449,-8.39992c-0.63123,-2.39175 -2.31714,-7.98703 2.11076,-10.15865c3.76626,-1.90365 5.87959,0.87112 6.34588,2.87583z" fill="#ffab19" fill-rule="evenodd" stroke="#001026" stroke-width="1.2" stroke-linecap="round" stroke-linejoin="round"/><path d="M233.83776,209.97258c-0.22853,0.7027 -0.62958,2.02237 -1.24832,3.72918c-1.17496,3.24129 -3.13473,7.87877 -6.18791,12.33859l-0.25284,0.32423c-0.25284,0.32423 -0.09407,0.8332 0.31756,1.01792c2.865,0.79938 8.35784,2.5835 5.08721,7.29226c-3.11252,4.58516 -19.87522,-0.16524 -18.89986,-5.61222c0.61476,-2.25308 2.40234,-2.76397 3.36736,-3.01179c0.52203,-0.15481 0.91731,-0.46376 1.24921,-0.84978c0.69515,-1.04978 1.92736,-3.02578 2.7009,-4.76989c2.00507,-4.35265 2.22524,-5.66424 2.85568,-8.05617c0.63045,-2.39193 1.92203,-8.08607 6.87514,-7.90592c4.24097,0.10375 4.71929,3.52822 4.13587,5.50358z" fill="#ffab19" fill-rule="evenodd" stroke="#001026" stroke-width="1.2" stroke-linecap="round" stroke-linejoin="round"/><g fill-rule="evenodd"><path d="M227.60837,202.05315c0.787,0.46423 2.45476,1.4999 -0.33158,4.63318c-2.78635,3.13329 -9.95798,3.21255 -10.78198,3.14189c-3.2022,-0.17542 -7.11615,-0.51107 -11.31265,-2.25951c-12.19599,-5.01321 -11.0877,-17.91118 -6.87656,-19.6329c4.10813,-1.73055 5.11014,6.38922 10.322,11.69616c2.26855,2.37657 5.18153,3.41984 7.60728,4.12378c3.44648,0.89065 10.49276,-2.27404 11.37352,-1.7026z" fill="#ffab19" stroke="#001026" stroke-width="1.2" stroke-linecap="round" stroke-linejoin="round"/><path d="M202.81366,191.893c1.39833,2.79787 4.23992,6.81052 4.23992,6.81052c0,0 -3.72773,-1.21232 -6.0479,0.27482c-1.87118,1.12892 -1.66261,3.32883 -1.52134,4.03523c-1.21878,-1.3939 -2.70032,-3.30625 -3.40668,-6.83825c-0.70637,-3.53199 0.71198,-7.57606 2.82743,-7.98975c2.09696,-0.2169 2.47326,1.30312 3.90856,3.70742z" fill="#ffffff" stroke="none" stroke-width="1" stroke-linecap="butt" stroke-linejoin="miter"/></g><path d="M249.31177,194.23005c0.46835,0.43772 5.97203,8.06063 8.15346,6.46626c2.61227,-1.85421 6.31401,-5.59673 9.64808,-2.03187c3.33407,3.56486 -4.03568,8.47409 -7.09819,9.69379c-7.24417,2.44064 -12.36104,-3.85903 -13.4271,-5.53927c-1.06606,-1.68024 -2.94072,-4.52227 -2.70517,-7.08042c0.35459,-2.74609 3.84921,-3.13451 5.42891,-1.5085z" fill="#ffab19" fill-rule="evenodd" stroke="#001026" stroke-width="1.2" stroke-linecap="round" stroke-linejoin="round"/><g fill-rule="evenodd"><path d="M229.23313,209.47014c-10.08483,-6.40783 -3.91759,-11.12608 -2.18095,-16.29631c1.67595,-4.4535 2.92697,-3.88986 9.12678,-3.88091c3.47771,-0.16933 5.5246,-0.26325 7.69135,-0.78322c3.25999,-0.73149 3.61042,4.03492 3.20906,6.63039c0,0 -0.6616,3.85437 -1.57885,5.9454c-1.13652,2.53629 -2.03327,4.22051 -3.04839,5.32333c0,0 -2.1812,2.37076 -4.48856,2.9051c-2.07406,0.48032 -8.73044,0.1562 -8.73044,0.1562z" fill="#ffab19" stroke="#001026" stroke-width="1.2" stroke-linecap="round" stroke-linejoin="round"/><path d="M241.53793,206.48501c0,0 -1.72746,-0.87431 -3.61349,-2.02007c-2.34274,-1.35953 -4.6263,-2.42838 -3.25003,-5.81675c1.31556,-2.67165 2.37394,-6.09924 7.41827,-4.1546c4.80611,1.78931 3.41088,4.57707 3.41088,4.57707c-1.2989,4.78339 -3.96563,7.41434 -3.96563,7.41434z" fill="#ffffff" stroke="none" stroke-width="1" stroke-linecap="butt" stroke-linejoin="miter"/></g><path d="M260.12821,134.76654c0.30901,-0.19 0.8129,-0.07873 0.90392,0.31878l2.3589,10.63179c0,0 6.36197,4.80162 8.2018,8.10807c3.10013,5.51157 3.08591,9.95802 3.08591,9.95802c0,0 7.13776,2.25152 8.20693,7.91056c1.06918,5.65904 -3.66485,16.21438 -22.80253,19.39779c-19.13768,3.18341 -34.30171,-2.23095 -41.20075,-13.66663c-6.89903,-11.43568 4.79466,-24.58598 4.16637,-23.81095c0,0 -0.63969,-15.76948 -0.23966,-15.56196l11.44861,5.46304c0,0 4.60174,-1.5662 9.36755,-1.64609c2.84128,-0.12743 5.26713,0.13014 7.58656,0.58272z" fill="#ffab19" fill-rule="evenodd" stroke="#001026" stroke-width="1.2" stroke-linecap="butt" stroke-linejoin="miter"/><path d="M274.3646,164.17069c0,0 6.94288,1.95025 8.01206,7.60929c1.06918,5.65904 -4.05718,15.7106 -22.98972,18.80027c-24.64077,4.33207 -35.91959,-10.17634 -28.86101,-20.47664c7.06116,-10.39904 18.47603,-1.12459 26.99988,-1.5069c7.30579,-0.31358 8.27784,-6.51509 16.83879,-4.42602z" fill="#ffffff" fill-rule="evenodd" stroke="none" stroke-width="1" stroke-linecap="butt" stroke-linejoin="miter"/><path d="M245.89848,173.94908c0.01027,-0.39502 0.42314,-0.68127 0.82573,-0.5725c1.90656,0.73883 8.01069,0.97224 14.07788,1.51742c5.46202,0.43141 8.03554,1.69702 9.56261,1.43829c0.50902,-0.08624 0.90135,0.41754 0.68593,0.9063c-0.98092,2.64384 -5.02251,9.95531 -15.64266,9.10002c-9.19182,-1.21529 -9.93915,-7.55808 -9.5095,-12.38954z" fill="#ffffff" fill-rule="evenodd" stroke="#001026" stroke-width="1.2" stroke-linecap="round" stroke-linejoin="round"/><path d="M292.97391,165.71748c-4.85823,3.63504 -12.15375,3.5536 -12.15375,3.5536" fill="none" fill-rule="evenodd" stroke="#001026" stroke-width="1.2" stroke-linecap="round" stroke-linejoin="round"/><path d="M291.36963,176.74542c-6.39416,0.3361 -10.29575,-1.63783 -10.29575,-1.63783" fill="none" fill-rule="evenodd" stroke="#001026" stroke-width="1.2" stroke-linecap="round" stroke-linejoin="round"/><path d="M257.18739,166.0191c2.12711,0.05255 4.35038,0.30513 4.43369,0.9989c0.06535,1.38506 -1.52588,4.11265 -3.1491,4.17136c-1.82837,0.15247 -6.01842,-2.42151 -5.97736,-4.00158c-0.07048,-1.18755 2.66694,-1.21874 4.69276,-1.16868z" fill="#001026" fill-rule="evenodd" stroke="#001026" stroke-width="1.2" stroke-linecap="round" stroke-linejoin="round"/><path d="M211.64494,163.41158c0,0 8.63916,2.98034 12.10477,6.12933" fill="none" fill-rule="evenodd" stroke="#001026" stroke-width="1.2" stroke-linecap="round" stroke-linejoin="round"/><path d="M223.96373,173.00483c-4.39915,1.5712 -11.86644,0.29972 -11.86644,0.29972" fill="none" fill-rule="evenodd" stroke="#001026" stroke-width="1.2" stroke-linecap="round" stroke-linejoin="round"/><g fill-rule="evenodd"><path d="M269.44004,154.76015c2.82192,4.51652 2.79231,9.55549 -0.09005,11.263c-2.88235,1.7075 -7.48784,-0.48146 -10.41105,-5.00048c-2.82192,-4.51652 -2.79231,-9.55549 0.09005,-11.263c2.88492,-1.80625 7.58913,0.48396 10.41105,5.00048z" fill="#ffffff" stroke="#001026" stroke-width="1.2" stroke-linecap="round" stroke-linejoin="round"/><path d="M269.64826,160.39792c-0.02823,1.08629 -0.86167,1.95506 -1.87458,1.93004c-1.0129,-0.02502 -1.80013,-0.93383 -1.77189,-2.02013c0.02823,-1.08629 0.86167,-1.95506 1.87458,-1.93004c1.0129,0.02502 1.80013,0.93383 1.77189,2.02013" fill="#001026" stroke="none" stroke-width="1" stroke-linecap="butt" stroke-linejoin="miter"/></g><g fill-rule="evenodd"><path d="M244.24801,156.90462c2.92579,4.42027 2.58458,9.748 -0.19904,11.55676c-3.39138,1.79375 -7.81225,0.30107 -10.73802,-4.1192c-3.02707,-4.42278 -3.08335,-10.05677 0.11315,-12.15179c3.19906,-2.19377 7.89814,0.29396 10.82391,4.71423z" fill="#ffffff" stroke="#001026" stroke-width="1.2" stroke-linecap="round" stroke-linejoin="round"/><path d="M243.99783,162.62988c-0.02823,1.08629 -0.86167,1.95506 -1.87458,1.93004c-1.0129,-0.02502 -1.80013,-0.93383 -1.77189,-2.02013c0.02823,-1.08629 0.86167,-1.95506 1.87458,-1.93004c1.01034,0.12378 1.80013,0.93383 1.77189,2.02013" fill="#001026" stroke="none" stroke-width="1" stroke-linecap="butt" stroke-linejoin="miter"/></g><g fill-rule="nonzero" stroke="#001026" stroke-width="1.2" stroke-linecap="butt" stroke-linejoin="miter"><path d="M235.86024,150.28547c-1.34565,4.32481 -21.33605,12.56863 -21.33605,12.56863c0,0 -2.91277,-0.09172 -4.28553,-0.20524c-10.2809,-0.85022 -17.22151,-4.14493 -16.03437,-7.9603c1.34565,-4.32481 12.6249,-7.68085 25.19291,-7.49597c12.56801,0.18489 17.80869,-1.23193 16.46306,3.09287z" fill="#00b0f7"/><path d="M220.22932,146.11086l-11.98373,-3.48241c0,0 14.54111,-6.54032 22.54448,-8.46755c9.67958,-2.33088 31.46641,-4.53845 31.46641,-4.53845l-13.87692,17.82648z" fill="#ff2b2b"/><path d="M211.99785,163.8279c0,0 -3.08914,-7.21268 -3.73078,-10.7276c-0.62246,-3.40997 -0.06324,-10.05659 -0.06324,-10.05659l26.42654,-4.52519c0,0 0.71711,7.56975 1.36743,11.13229c0.61202,3.35278 2.42659,9.65188 2.42659,9.65188z" data-paper-data="{&quot;index&quot;:null}" fill="#cc0000"/><path d="M237.9953,159.31093c0,0 -1.22013,-6.44827 -2.25866,-9.70068c-1.1035,-3.45588 -4.17935,-10.46129 -4.17935,-10.46129l31.37511,-9.45737c0,0 4.00831,5.54701 5.06456,8.8549c1.08876,3.40968 1.37343,11.30708 1.37343,11.30708z" fill="#f70000"/></g><path d="M227.63154,200.2981c-1.25936,3.89541 -0.14295,7.97037 -1.97026,9.73581c-1.19257,1.15219 -2.89212,1.78888 -3.88204,1.48468c-1.10333,-0.33905 -2.59578,-2.1734 -2.83894,-4.09615c-0.3093,-2.44566 -1.55162,-6.30975 -0.38642,-9.91391c1.02785,-3.17929 4.47906,-5.8754 5.96255,-7.73138c1.52042,-1.90218 3.53095,-1.96149 4.79972,-1.5716c1.36978,0.42094 2.54856,1.70369 2.58417,4.42346c0.02956,2.25744 -3.32482,4.74926 -4.26879,7.66911z" fill="#ffab19" fill-rule="nonzero" stroke="#001026" stroke-width="1.2" stroke-linecap="butt" stroke-linejoin="miter"/><g fill-rule="nonzero" stroke="#001026" stroke-width="1.2" stroke-linejoin="miter"><g><path d="M253.90716,204.71077l10.59741,-19.32576l10.76065,7.77251l-15.01891,15.21229c0,0 -2.65897,0.20329 -3.68261,-0.38758c-1.08575,-0.62672 -2.65654,-3.27148 -2.65654,-3.27148z" fill="#505a63" stroke-linecap="butt"/><path d="M264.72279,183.85636c2.45067,-3.22503 7.11889,-3.90251 10.42676,-1.51321c3.30787,2.3893 4.00276,6.94062 1.55208,10.16564c-2.45067,3.22503 -7.1189,3.90252 -10.42677,1.51321c-3.30787,-2.3893 -4.00274,-6.94062 -1.55207,-10.16564z" fill="url(#color-1)" stroke-linecap="butt"/><path d="M264.36643,191.33491c0,0 2.00108,-4.1394 3.28279,-5.8668c1.1979,-1.61443 4.17302,-4.18157 4.17302,-4.18157" fill="none" stroke-linecap="round"/><path d="M270.02726,195.24837c0,0 2.3794,-5.19289 3.54931,-7.0795c0.86443,-1.39394 2.83537,-3.21638 2.83537,-3.21638" fill="none" stroke-linecap="round"/><path d="M264.41003,184.17566c0,0 5.05766,0.55971 7.4012,1.5713c2.03884,0.88006 5.87364,4.15879 5.87364,4.15879" fill="none" stroke-linecap="round"/><path d="M262.9384,189.42649c0,0 5.5191,0.96157 7.88804,1.71639c1.8415,0.58677 5.14603,2.43674 5.14603,2.43674" fill="none" stroke-linecap="round"/></g><path d="M268.6671,204.85606c-1.62775,2.15559 -4.87667,2.83353 -7.25667,1.51421c-2.38001,-1.31931 -3.62817,-3.65176 -2.00041,-5.80734c1.62775,-2.15559 5.51501,-3.31804 7.89501,-1.99873c2.38001,1.31931 2.98982,4.13626 1.36207,6.29186z" fill="#ffab19" stroke-linecap="butt"/></g></g></g></svg>