<svg version="1.1" xmlns="http://www.w3.org/2000/svg" xmlns:xlink="http://www.w3.org/1999/xlink" width="87.387" height="82.98296" viewBox="0,0,87.387,82.98296"><g transform="translate(-216.58135,-133.9104)"><g data-paper-data="{&quot;isPaintingLayer&quot;:true}" fill="#9966ff" fill-rule="nonzero" stroke="none" stroke-width="0.5" stroke-linecap="butt" stroke-linejoin="miter" stroke-miterlimit="10" stroke-dasharray="" stroke-dashoffset="0" style="mix-blend-mode: normal"><path d="M246.50649,210.19477c-1.76791,-1.76762 -0.00029,-3.53553 -0.00029,-3.53553l1.39939,-1.39475c1.11494,-1.23882 2.22988,-2.47765 3.34482,-3.71647c0,0 0.70261,-0.78068 1.70303,-0.87461c0.27505,-0.45892 0.55108,-0.91721 0.82849,-1.37459c-0.27211,-0.20927 -0.46562,-0.46693 -0.60322,-0.72754c-3.14967,1.83699 -6.06089,3.96146 -9.09618,5.9855l-1.95995,1.17927c0,0 -2.14373,1.28624 -3.42997,-0.85749c-1.28624,-2.14373 0.85749,-3.42997 0.85749,-3.42997l1.75893,-1.05206c3.04586,-2.03004 5.97429,-4.1494 9.1217,-6.00909c-0.73169,-0.91745 -1.50345,-1.82123 -2.31077,-2.69608l-1.43421,0.96501c0,0 -2.08013,1.38675 -3.46688,-0.69338c-1.38675,-2.08013 0.69338,-3.46687 0.69338,-3.46687l0.52537,-0.34753c-1.83652,-1.55138 -3.79424,-2.89115 -5.83498,-3.8897c0,0 -2.23607,-1.11803 -1.11803,-3.3541c0.02067,-0.04134 0.04173,-0.08153 0.06314,-0.12061c-0.10231,-0.01394 -2.4706,-0.36314 -2.1672,-2.79033c0.31008,-2.48069 2.79078,-2.17061 2.79078,-2.17061c5.53495,0.72429 11.42256,-0.88461 17.08339,-0.56128c-0.11468,-0.28846 -0.18341,-0.63426 -0.18341,-1.0488c0,-2.5 2.5,-2.5 2.5,-2.5c4.77972,0 10.51035,-0.90488 15.18098,0.01873c1.51509,0.29961 3.4001,0.25762 4.40771,1.42808c4.48851,5.2139 -0.61037,7.54169 -4.49602,9.01475c1.87545,2.08401 3.57796,4.22176 5.42228,6.42917l0.57944,1.97235c0,0 0,2.5 -2.5,2.5c-1.67446,0 -2.22739,-1.12153 -2.40998,-1.86222c-1.7375,-2.10385 -3.35469,-4.12154 -5.1721,-6.09946c-0.1413,0.56801 -0.42456,0.96457 -0.42456,0.96457c-2.03611,2.81585 -4.66894,4.79021 -6.65248,7.50283c0.35341,0.45164 0.46386,0.92954 0.45679,1.36203c1.33387,0.54236 1.44857,2.14812 1.44857,2.14812c0.36729,5.16136 0.37824,10.25322 0.37824,15.42552l0.32334,1.36915c0,0 0.49029,2.45146 -1.96116,2.94175c-2.45145,0.49029 -2.94174,-1.96117 -2.94174,-1.96117l-0.42044,-2.34973c0,-3.87817 -0.00236,-7.70989 -0.16689,-11.56136c-1.77715,2.89749 -3.48217,5.84305 -5.23035,8.75684l-1.02333,2.06312c0,0 -1.11803,2.23607 -3.3541,1.11803c-1.06696,-0.53348 -1.37026,-1.32152 -1.39574,-1.99972c-0.35968,-0.10687 -0.73648,-0.32301 -1.11329,-0.69976zM256.18286,180.41713c-4.45381,-0.4869 -8.88803,0.28819 -13.31464,0.50054c2.22596,1.34886 4.32647,2.98155 6.28221,4.79612c3.88683,-1.56842 7.98586,-2.94681 12.11714,-3.58449c-0.77124,-1.17409 -3.92059,-1.58491 -5.08472,-1.71217zM256.14448,192.68289c0.81156,-1.39858 1.77338,-2.58499 2.78796,-3.70221c-0.5593,-0.00888 -1.28265,-0.17282 -1.8017,-0.83847c-1.43261,0.42497 -2.85041,0.92089 -4.23635,1.44889c1.093,1.25573 2.12461,2.55554 3.09014,3.87472zM267.33622,178.05056l3.04165,-0.31863c1.12108,-0.4218 2.24711,-0.94198 3.44135,-1.03428c0.55762,-0.04309 -1.11858,0.00273 -1.67783,-0.00321c-0.7659,-0.00813 -1.53182,0.01619 -2.29776,0.01873c-2.73672,0.00908 -5.47356,0.00601 -8.21037,0.00298c1.28369,0.55244 2.7678,1.36114 3.80793,2.46687c0.62252,-0.99107 1.89504,-1.13246 1.89504,-1.13246z"></path><path d="M221.12867,146.68872c2.23607,1.11803 1.11803,3.35411 1.11803,3.35411l-0.1826,0.23208c-0.12521,0.48678 -0.22791,0.97835 -0.30819,1.47254c4.97743,-5.42421 12.59333,-9.20703 19.96248,-8.66582c1.41072,0.1036 2.91351,-0.00334 4.20444,0.5749c3.07025,1.37523 5.27441,4.358 6.49221,7.80336c0.66285,-2.24516 1.84268,-4.2322 3.57578,-5.58778c2.16269,-1.69159 4.28964,-2.09624 6.67997,-2.28257c-1.51084,-2.79871 -2.20396,-5.82619 1.31907,-8.2705c1.33136,-0.92371 3.13146,-0.85092 4.72643,-1.13696c6.14208,-1.10151 16.14539,1.06446 18.37455,8.00193c0.4816,1.49879 -0.04134,3.14826 -0.062,4.72239l-0.37896,0.42144c4.47323,2.28503 10.15383,3.7268 13.88722,6.90809c1.27761,1.08867 3.64651,2.03767 3.41552,3.70024c-0.75375,5.42501 -8.12592,4.10979 -11.9253,3.33452c0.08343,0.71914 0.01194,2.1645 -1.75749,2.69353c-2.39524,0.71614 -3.11137,-1.6791 -3.11137,-1.6791l0.1135,-0.00367c-1.45496,-2.18688 -2.95707,-4.35484 -4.66227,-6.35276c-3.57775,-2.84902 -7.63033,-6.30836 -12.17965,-7.53566c-1.70824,-0.46085 -3.54016,-0.02593 -5.30767,0.05409c-1.80826,0.08186 -4.37696,0.03648 -5.97055,1.29903c-3.27822,2.59723 -3.15268,10.72711 0.02546,13.25386c2.89033,2.29793 5.72881,2.01917 9.1788,2.01917c0,0 2.5,0 2.5,2.5c0,2.5 -2.5,2.5 -2.5,2.5c-4.55899,0 -8.66947,0.00117 -12.3907,-3.18725c-1.32581,-1.13598 -2.35218,-2.70951 -3.05809,-4.5042c-0.24589,0.83124 -0.56748,1.61361 -0.96689,2.32673c-2.52621,4.51039 -6.55621,6.90294 -11.34787,8.28933c-3.47181,0.43669 -7.43699,0.96246 -10.87707,-0.05187c-10.42946,-3.0752 -14.89787,-14.01504 -12.50205,-23.8297l0.56117,-1.25547c0,0 1.11803,-2.23607 3.3541,-1.11804zM221.64073,156.24574c0.59249,5.31765 3.79143,10.18064 9.49082,11.85092c2.61857,0.7674 5.82057,0.27559 8.46111,-0.05187c7.9315,-2.22475 10.85654,-9.09421 7.21268,-16.46857c-0.45541,-0.92164 -1.9052,-2.92794 -2.87392,-3.33337c-6.19466,-2.59258 -15.29733,2.92185 -19.02513,7.48884c0,0 -1.46061,1.75273 -3.26556,0.51405zM290.53191,155.79663l1.37151,0.3458c0.71852,0.14627 1.44939,0.22177 2.18309,0.27973c-2.49289,-1.18944 -5.02529,-2.28652 -7.50359,-3.50046c0.80626,0.9659 1.57879,1.9604 2.32583,2.9742c0.80482,-0.30385 1.62316,-0.09927 1.62316,-0.09927zM281.09193,146.04136l1.31751,-1.04838c-0.22145,-4.38483 -6.50169,-6.02257 -10.071,-6.21473c-0.47874,-0.02578 -6.05545,0.2106 -5.97494,1.23493c0.0533,0.67815 1.74745,2.92524 1.84136,3.06221c0,0 0.09481,0.14219 0.19765,0.37702c1.52844,0.01076 2.99403,0.03018 3.08602,0.05394c3.17431,0.81988 6.09099,2.46425 8.81773,4.37333c-0.00255,-1.05011 0.78566,-1.83832 0.78566,-1.83832z"></path></g></g></svg>