<svg version="1.1" xmlns="http://www.w3.org/2000/svg" xmlns:xlink="http://www.w3.org/1999/xlink" width="98.70542" height="131.0036" viewBox="0,0,98.70542,131.0036"><defs><radialGradient cx="279.40859" cy="239.42836" r="7.3567" gradientUnits="userSpaceOnUse" id="color-1"><stop offset="0" stop-color="#54606d"/><stop offset="1" stop-color="#2c3136"/></radialGradient></defs><g transform="translate(-187.36957,-113.30185)"><g data-paper-data="{&quot;isPaintingLayer&quot;:true}" stroke-miterlimit="10" stroke-dasharray="" stroke-dashoffset="0" style="mix-blend-mode: normal"><g fill="#ffa000" fill-rule="nonzero" stroke="#ffa000" stroke-width="1.2" stroke-linecap="butt" stroke-linejoin="miter"><path d="M227.39813,135.62965c-1.29803,4.53827 -20.19888,13.10676 -20.19888,13.10676c0,0 -2.74519,-0.11012 -4.03848,-0.23591c-9.68579,-0.94194 -16.20608,-4.43686 -15.06097,-8.44053c1.29803,-4.53827 11.95366,-8.01166 23.80003,-7.75806c11.84637,0.25359 16.79631,-1.21052 15.49828,3.32774z"/><path d="M212.69165,131.16912l-11.27306,-3.71594c0,0 13.75227,-6.80412 21.31003,-8.79154c9.14066,-2.40367 29.69373,-4.62065 29.69373,-4.62065l-13.20317,18.66701z"/><path d="M204.81109,149.7478c0,0 -2.86284,-7.59383 -3.44371,-11.29041c-0.5635,-3.58621 0.00903,-10.56801 0.00903,-10.56801l24.94266,-4.63049c0,0 0.62434,7.95787 1.21306,11.70453c0.55407,3.52608 2.22161,10.15389 2.22161,10.15389z" data-paper-data="{&quot;index&quot;:null}"/><path d="M229.34918,145.12391c0,0 -1.10617,-6.78175 -2.06298,-10.20437c-1.01668,-3.63674 -3.86838,-11.01271 -3.86838,-11.01271l29.64125,-9.79001c0,0 3.74068,5.84785 4.71382,9.32883c1.00308,3.58811 1.21752,11.88822 1.21752,11.88822z"/></g><g fill="#ffa000" fill-rule="evenodd" stroke="#ffa000"><path d="M225.85154,192.8838c0.59032,0.89381 3.24679,2.23452 -0.19677,4.69251c-3.54195,2.34625 -12.49522,5.58631 -21.25171,-3.24007c-9.4452,-9.60844 -4.42744,-22.68041 -0.09839,-23.12731c4.23066,-0.4469 2.55808,7.37392 5.60809,16.08857c4.32906,12.62506 15.34846,4.69251 15.93879,5.58631z" stroke-width="1.2" stroke-linecap="round" stroke-linejoin="round"/><path d="M207.05952,177.01869c0.49194,4.91595 1.47581,8.26773 1.47581,8.26773c0,0 -1.57421,-2.23452 -3.93551,-1.78762c-2.85323,0.55863 -3.73873,3.24007 -3.83712,4.02214c-0.68871,-1.89934 -1.27904,-4.24559 -1.08226,-8.26773c0.49194,-3.9104 2.65647,-7.93255 5.11616,-7.48565c1.96774,0.4469 1.86937,2.23452 2.26291,5.25113z" stroke-width="1" stroke-linecap="butt" stroke-linejoin="miter"/></g><path d="M230.47576,201.92104c-0.68871,1.10737 -2.65647,5.41379 -7.37907,9.10499c-3.24679,2.58384 -11.60973,-1.72257 -11.60973,-1.72257c0.88549,11.31972 -6.49358,11.07363 -7.87101,7.38243c-1.08226,-2.95298 -0.88549,-15.62614 1.27904,-16.61046c3.34518,-1.47648 7.87101,0.98432 11.9049,0.98432c1.18065,0 2.45969,-3.19905 5.21454,-6.64419c1.96774,-2.46081 4.52582,-7.01331 8.65811,-3.81425c3.54195,2.82992 1.67259,7.99763 -0.19677,11.31972z" fill="#ffa000" fill-rule="evenodd" stroke="#ffa000" stroke-width="1.2" stroke-linecap="round" stroke-linejoin="round"/><path d="M244.73904,178.31586c0.32877,2.73782 0.54795,13.19133 3.17809,14.80915c2.52056,1.49335 10.19181,-0.99557 10.63017,5.10231c0.43837,5.97344 -6.68496,6.09788 -12.60278,4.23118c-7.67125,-2.36449 -11.17812,-15.68027 -6.79454,-23.89375c1.64384,-2.86227 5.26029,-3.11116 5.58906,-0.24889z" fill="#ffa000" fill-rule="evenodd" stroke="#ffa000" stroke-width="1.2" stroke-linecap="round" stroke-linejoin="round"/><g fill="#ffa000" fill-rule="evenodd" stroke="#ffa000"><path d="M241.82377,203.46718c0.59032,3.68696 -4.13228,12.06642 -4.13228,12.06642c0,0 5.90325,4.58077 2.16452,9.27328c-2.75485,3.46351 -4.91938,0.67036 -12.10167,-7.2622c-1.08226,-1.229 -1.08226,-3.01659 -0.19677,-4.24559c2.06614,-2.68144 5.01776,-7.2622 3.05002,-9.38499c-2.75485,-2.23452 -5.90325,-4.46903 -7.87101,-5.80976c-8.06777,-5.36285 -2.16452,-11.9547 2.26291,-21.22797c2.36131,-5.02768 3.54195,-3.68696 9.4452,-2.34625c3.34518,0.55863 5.31293,0.89381 7.47746,0.78208c3.24679,-0.11173 2.65647,5.25113 1.77097,8.04428c0,0 -1.37743,4.13388 -2.65647,6.25666c-1.57421,2.68144 -3.34518,5.36285 -4.52582,6.36839c0,0 4.62422,3.9104 5.31293,7.48565z" stroke-width="1.2" stroke-linecap="round" stroke-linejoin="round"/><path d="M235.75167,195.87304c0,0 -1.47581,-1.34071 -3.05002,-3.01659c-1.96774,-2.01107 -3.93551,-3.68696 -1.96774,-7.15047c1.77097,-2.68144 3.44356,-6.25666 7.87101,-3.01659c4.23066,3.01659 2.36131,5.80976 2.36131,5.80976c-2.16452,5.02768 -5.21454,7.37392 -5.21454,7.37392z" stroke-width="1" stroke-linecap="butt" stroke-linejoin="miter"/></g><path d="M229.88542,184.39262c-2.16452,1.11726 -6.19842,-0.89381 -7.28067,-0.67036c-0.29517,0.11173 -2.06614,5.92148 -3.1484,9.38499c-1.47581,4.91595 -8.16617,3.46351 -8.55971,-1.67589c-0.29517,-4.80422 3.54195,-14.0775 4.82099,-15.75338c2.85323,-3.9104 12.55346,-0.7728 19.03435,1.18039" fill="#ffa000" fill-rule="evenodd" stroke="#ffa000" stroke-width="1.2" stroke-linecap="round" stroke-linejoin="round"/><g fill="#ffa000" fill-rule="evenodd" stroke="#ffa000"><path d="M251.9088,116.61061c0.30331,-0.22693 0.80882,-0.11347 0.90992,0.34041l2.62868,12.14116c0,0 6.47059,5.33303 8.39155,9.07749c3.2353,6.24078 3.3364,11.34687 3.3364,11.34687c0,0 7.17832,2.38284 8.39155,8.85055c1.21323,6.46771 -3.2353,18.72233 -22.24266,22.92067c-19.00735,4.19834 -34.2739,-1.58855 -41.45222,-14.52399c-7.17832,-12.93543 4.14523,-28.36716 3.53859,-27.45942c0,0 -1.11843,-14.25384 -0.71402,-14.02689l11.63315,2.11267c0,0 4.54963,-1.92896 9.30147,-2.1559c2.83088,-0.22693 5.25735,0 7.58272,0.45388z" stroke-width="1.2" stroke-linecap="butt" stroke-linejoin="miter"/><path d="M266.87204,149.9704c0,0 6.9761,2.04243 8.18934,8.51015c1.21323,6.46771 -3.6397,18.155 -22.44486,22.23986c-24.46691,5.67343 -36.09377,-10.66607 -29.31987,-22.69374c6.7739,-12.14116 18.40074,-1.8155 26.8934,-2.49631c7.27942,-0.56734 8.08823,-7.71587 16.68199,-5.55997z" stroke-width="1" stroke-linecap="butt" stroke-linejoin="miter"/><path d="M235.0246,162.11155c0,-0.45388 0.40441,-0.79429 0.80882,-0.68081c1.92096,0.79429 7.38052,2.60977 13.44669,3.06365c5.45956,0.34041 8.69486,0 10.21141,-0.34041c0.50551,-0.11347 0.90992,0.45388 0.70772,1.02122c-0.90992,3.06365 -4.75185,11.5738 -15.36765,10.893c-9.20037,-1.13469 -10.1103,-8.39668 -9.80699,-13.95664z" stroke-width="1.2" stroke-linecap="round" stroke-linejoin="round"/><path d="M285.47499,151.21857c-4.75185,4.31181 -12.03125,4.42528 -12.03125,4.42528" stroke-width="1.2" stroke-linecap="round" stroke-linejoin="round"/><path d="M284.16065,163.92706c-6.36949,0.56734 -10.31251,-1.58855 -10.31251,-1.58855" stroke-width="1.2" stroke-linecap="round" stroke-linejoin="round"/><path d="M249.78562,152.58019c2.12316,0 4.34743,0.22693 4.44853,1.02122c0.10111,1.58855 -1.41544,4.76569 -3.03309,4.87916c-1.81986,0.22693 -6.06618,-2.60977 -6.06618,-4.42528c-0.10111,-1.36162 2.62868,-1.47509 4.65074,-1.47509z" stroke-width="1.2" stroke-linecap="round" stroke-linejoin="round"/><path d="M204.28929,150.87816c0,0 8.69486,3.17712 12.23346,6.69465" stroke-width="1.2" stroke-linecap="round" stroke-linejoin="round"/><path d="M216.82606,161.54422c-4.34743,1.92896 -11.82905,0.68081 -11.82905,0.68081" stroke-width="1.2" stroke-linecap="round" stroke-linejoin="round"/><g><path d="M261.71579,139.30436c2.93198,5.10609 3.03309,10.893 0.20221,12.93543c-2.83088,2.04243 -7.48162,-0.34041 -10.51471,-5.4465c-2.93198,-5.10609 -3.03309,-10.893 -0.20221,-12.93543c2.83088,-2.1559 7.58272,0.34041 10.51471,5.4465z" stroke-width="1.2" stroke-linecap="round" stroke-linejoin="round"/><path d="M261.31137,145.77207c0,1.24815 -0.80882,2.26937 -1.81986,2.26937c-1.01103,0 -1.81986,-1.02122 -1.81986,-2.26937c0,-1.24815 0.80882,-2.26937 1.81986,-2.26937c1.01103,0 1.81986,1.02122 1.81986,2.26937" stroke-width="1" stroke-linecap="butt" stroke-linejoin="miter"/></g><g><path d="M236.64225,142.48146c3.03309,4.99262 2.83088,11.11993 0.10111,13.27584c-3.3364,2.1559 -7.78493,0.56734 -10.81802,-4.42528c-3.1342,-4.99262 -3.3364,-11.46034 -0.20221,-13.95664c3.1342,-2.60977 7.88604,0.11347 10.91913,5.10609z" stroke-width="1.2" stroke-linecap="round" stroke-linejoin="round"/><path d="M236.03562,149.06266c0,1.24815 -0.80882,2.26937 -1.81986,2.26937c-1.01103,0 -1.81986,-1.02122 -1.81986,-2.26937c0,-1.24815 0.80882,-2.26937 1.81986,-2.26937c1.01103,0.11347 1.81986,1.02122 1.81986,2.26937" stroke-width="1" stroke-linecap="butt" stroke-linejoin="miter"/></g></g><g fill-rule="evenodd" stroke="#ffffff"><g fill="#ffffff"><path d="M224.54741,192.69631c0.51995,0.75355 2.85976,1.88389 -0.17332,3.95616c-3.11974,1.97809 -11.00576,4.70971 -18.71844,-2.73164c-8.3193,-8.10072 -3.89968,-19.12146 -0.08666,-19.49823c3.72636,-0.37678 2.25315,6.21683 4.93959,13.56399c3.81301,10.64395 13.51888,3.95616 14.03883,4.70971z" stroke-width="1.2" stroke-linecap="round" stroke-linejoin="round"/><path d="M207.99545,179.32072c0.43329,4.14455 1.29989,6.97038 1.29989,6.97038c0,0 -1.38655,-1.88389 -3.46639,-1.50711c-2.51313,0.47097 -3.29306,2.73164 -3.37972,3.39099c-0.60662,-1.6013 -1.12658,-3.57939 -0.95326,-6.97038c0.43329,-3.2968 2.33981,-6.6878 4.50629,-6.31103c1.73319,0.37678 1.64653,1.88389 1.99316,4.42713z" stroke-width="1" stroke-linecap="butt" stroke-linejoin="miter"/></g><path d="M228.62039,202.49253c-0.60662,0.84775 -2.33981,4.14455 -6.49947,6.97038c-2.85976,1.97809 -10.22581,-1.31872 -10.22581,-1.31872c0.77993,8.66589 -5.71953,8.47749 -6.93275,5.65166c-0.95326,-2.26066 -0.77993,-11.96269 1.12658,-12.71624c2.94641,-1.13033 6.93275,0.75355 10.48579,0.75355c1.03991,0 2.16648,-2.44906 4.59295,-5.0865c1.73319,-1.88389 3.98634,-5.36908 7.62603,-2.92003c3.11974,2.16646 1.47321,6.12264 -0.17332,8.66589z" fill="#ffffff" stroke-width="1.2" stroke-linecap="round" stroke-linejoin="round"/><path d="M243.52582,182.52332c0.25998,2.07228 0.43329,9.9846 2.51313,11.20913c1.99316,1.13033 8.05933,-0.75355 8.40597,3.86196c0.34664,4.52134 -5.28622,4.61553 -9.96583,3.2026c-6.06616,-1.78969 -8.83926,-11.86849 -5.37289,-18.08532c1.29989,-2.16646 4.15966,-2.35485 4.41963,-0.18839z" fill="#ffffff" stroke-width="1.2" stroke-linecap="round" stroke-linejoin="round"/><g fill="#ffffff"><path d="M241.35934,204.18803c0.51995,3.10841 -3.63969,10.17299 -3.63969,10.17299c0,0 5.19956,3.86196 1.90651,7.81813c-2.42646,2.92003 -4.33297,0.56516 -10.65911,-6.12264c-0.95326,-1.03614 -0.95326,-2.54325 -0.17332,-3.57939c1.81985,-2.26066 4.41963,-6.12264 2.68644,-7.91233c-2.42646,-1.88389 -5.19956,-3.76778 -6.93275,-4.8981c-7.10608,-4.52134 -1.90651,-10.07879 1.99316,-17.89693c2.07983,-4.23875 3.11974,-3.10841 8.3193,-1.97809c2.94641,0.47097 4.67961,0.75355 6.58612,0.65936c2.85976,-0.09419 2.33981,4.42713 1.55987,6.78199c0,0 -1.21323,3.4852 -2.33981,5.27489c-1.38655,2.26066 -2.94641,4.52134 -3.98634,5.36908c0,0 4.07299,3.2968 4.67961,6.31103z" stroke-width="1.2" stroke-linecap="round" stroke-linejoin="round"/><path d="M236.01106,197.78554c0,0 -1.29989,-1.13033 -2.68644,-2.54325c-1.73319,-1.6955 -3.46639,-3.10841 -1.73319,-6.02844c1.55987,-2.26066 3.03308,-5.27489 6.93275,-2.54325c3.72636,2.54325 2.07983,4.8981 2.07983,4.8981c-1.90651,4.23875 -4.59295,6.21683 -4.59295,6.21683z" stroke-width="1" stroke-linecap="butt" stroke-linejoin="miter"/></g><path d="M228.10044,185.53755c-1.90651,0.94195 -5.45954,-0.75355 -6.4128,-0.56516c-0.25998,0.09419 -1.81985,4.9923 -2.7731,7.91233c-1.29989,4.14455 -7.19273,2.92003 -7.53937,-1.41292c-0.25998,-4.05036 3.11974,-11.86849 4.24632,-13.2814c2.51313,-3.2968 11.05705,-0.65155 16.7654,0.99516" fill="#ffffff" stroke-width="1.2" stroke-linecap="round" stroke-linejoin="round"/><g><path d="M250.76189,125.53574c0.25998,-0.18839 0.69328,-0.09419 0.77993,0.28259l2.25315,10.07879c0,0 5.5462,4.42713 7.19273,7.53554c2.7731,5.18069 2.85976,9.41944 2.85976,9.41944c0,0 6.15282,1.97809 7.19273,7.34716c1.03991,5.36908 -2.7731,15.54208 -19.06508,19.02726c-16.29198,3.4852 -29.37755,-1.31872 -35.53037,-12.05688c-6.15282,-10.73816 3.55303,-23.54859 3.03308,-22.79504l-1.81985,-16.86079c-0.08666,-0.37678 0.34664,-0.65936 0.69328,-0.47097l10.48579,7.44135c0,0 3.89968,-1.6013 7.97267,-1.78969c2.42646,-0.18839 4.50629,0 6.49947,0.37678z" fill="#ffffff" stroke-width="1.2" stroke-linecap="butt" stroke-linejoin="miter"/><path d="M263.58749,153.22888c0,0 5.9795,1.6955 7.01942,7.06459c1.03991,5.36908 -3.11974,15.0711 -19.23839,18.46209c-20.97159,4.70971 -30.93742,-8.85427 -25.13124,-18.83887c5.80619,-10.07879 15.77203,-1.50711 23.05142,-2.07228c6.23948,-0.47097 6.93275,-6.40521 14.29882,-4.61553z" fill="#ffffff" stroke-width="1" stroke-linecap="butt" stroke-linejoin="miter"/><path d="M236.28976,163.30767c0,-0.37678 0.34664,-0.65936 0.69328,-0.56516c1.64653,0.65936 6.32614,2.16646 11.52571,2.54325c4.67961,0.28259 7.45271,0 8.75261,-0.28259c0.43329,-0.09419 0.77993,0.37678 0.60662,0.84775c-0.77993,2.54325 -4.07299,9.60782 -13.17224,9.04265c-7.88601,-0.94195 -8.66595,-6.97038 -8.40597,-11.5859z" fill="#ffffff" stroke-width="1.2" stroke-linecap="round" stroke-linejoin="round"/><path d="M279.53283,154.26502c-4.07299,3.57939 -10.31248,3.67358 -10.31248,3.67358" fill="#ffffff" stroke-width="1.2" stroke-linecap="round" stroke-linejoin="round"/><path d="M278.40626,164.81478c-5.45954,0.47097 -8.83926,-1.31872 -8.83926,-1.31872" fill="#ffffff" stroke-width="1.2" stroke-linecap="round" stroke-linejoin="round"/><path d="M248.94204,155.39535c1.81985,0 3.72636,0.18839 3.81301,0.84775c0.08666,1.31872 -1.21323,3.95616 -2.59979,4.05036c-1.55987,0.18839 -5.19956,-2.16646 -5.19956,-3.67358c-0.08666,-1.13033 2.25315,-1.22453 3.98634,-1.22453z" fill="#000000" stroke-width="1.2" stroke-linecap="round" stroke-linejoin="round"/><path d="M209.94528,153.98243c0,0 7.45271,2.63744 10.48579,5.55747" fill="#ffffff" stroke-width="1.2" stroke-linecap="round" stroke-linejoin="round"/><path d="M220.69106,162.8367c-3.72636,1.6013 -10.13916,0.56516 -10.13916,0.56516" fill="#ffffff" stroke-width="1.2" stroke-linecap="round" stroke-linejoin="round"/><g fill="#000000" stroke-width="1.2" stroke-linecap="round" stroke-linejoin="round"><path d="M259.16785,144.37461c2.51313,4.23875 2.59979,9.04265 0.17332,10.73816c-2.42646,1.6955 -6.4128,-0.28259 -9.01258,-4.52134c-2.51313,-4.23875 -2.59979,-9.04265 -0.17332,-10.73816c2.42646,-1.78969 6.49947,0.28259 9.01258,4.52134z"/></g><g fill="#000000" stroke-width="1.2" stroke-linecap="round" stroke-linejoin="round"><path d="M237.67631,147.01205c2.59979,4.14455 2.42646,9.23105 0.08666,11.02074c-2.85976,1.78969 -6.67277,0.47097 -9.27256,-3.67358c-2.68644,-4.14455 -2.85976,-9.51363 -0.17332,-11.5859c2.68644,-2.16646 6.75944,0.09419 9.35922,4.23875z"/></g></g></g><g fill-rule="nonzero" stroke="#001026" stroke-width="1.2" stroke-linejoin="miter"><path d="M256.76104,223.59025l21.30645,6.17621l-5.4955,12.02046l-18.13754,-11.30839c0,0 -0.74533,-2.52456 -0.36965,-3.63691c0.39849,-1.17979 2.6962,-3.25141 2.6962,-3.25141z" fill="#505a63" stroke-linecap="butt"/><path d="M279.62598,229.65633c3.69515,1.68934 5.32116,6.05432 3.63182,9.74945c-1.68934,3.69515 -6.05434,5.32116 -9.74945,3.63182c-3.69515,-1.68934 -5.32117,-6.05432 -3.63182,-9.74946c1.68934,-3.69515 6.05435,-5.32115 9.74947,-3.63182z" fill="url(#color-1)" stroke-linecap="butt"/><path d="M272.14708,230.88166c0,0 4.50866,1.06338 6.48154,1.93837c1.84385,0.81777 4.99479,3.15152 4.99479,3.15152" fill="none" stroke-linecap="round"/><path d="M269.42976,237.16844c0,0 5.62931,1.20756 7.73701,1.94121c1.55731,0.54209 3.76529,2.06258 3.76529,2.06258" fill="none" stroke-linecap="round"/><path d="M279.24579,229.42139c0,0 0.4805,5.00062 -0.04179,7.47558c-0.4544,2.15319 -2.91672,6.54373 -2.91672,6.54373" fill="none" stroke-linecap="round"/><path d="M273.74482,229.10243c0,0 0.17695,5.53048 -0.08587,7.97609c-0.20432,1.90109 -1.36023,5.47983 -1.36023,5.47983" fill="none" stroke-linecap="round"/></g></g></g></svg>