<svg version="1.1" xmlns="http://www.w3.org/2000/svg" xmlns:xlink="http://www.w3.org/1999/xlink" width="50.20361" height="47.51703" viewBox="0,0,50.20361,47.51703"><g transform="translate(-216.07072,-156.60204)"><g data-paper-data="{&quot;isPaintingLayer&quot;:true}" fill-rule="nonzero" stroke-linejoin="miter" stroke-miterlimit="10" stroke-dasharray="" stroke-dashoffset="0" style="mix-blend-mode: normal"><path d="M219.71038,181.29205l21.05003,-22.78714l0.14456,20.76936l22.15036,-3.06802l-18.50259,12.06083l11.60633,8.78276l-13.85771,-1.34509z" fill="#0400ff" stroke="#ffffff" stroke-width="1.5" stroke-linecap="round"/><path d="M216.82072,189.55649c0,-7.62848 6.18411,-13.81259 13.81259,-13.81259c7.62848,0 13.81259,6.18411 13.81259,13.81259c0,7.62848 -6.18411,13.81259 -13.81259,13.81259c-7.62848,0 -13.81259,-6.18411 -13.81259,-13.81259z" fill="#0400ff" stroke="#ffffff" stroke-width="1.5" stroke-linecap="butt"/><path d="M224.62412,187.18697c0,-0.41421 0.33579,-0.75 0.75,-0.75c0.41421,0 0.75,0.33579 0.75,0.75c0,0.41421 -0.33579,0.75 -0.75,0.75c-0.41421,0 -0.75,-0.33579 -0.75,-0.75z" fill="#ffffff" stroke="none" stroke-width="0.5" stroke-linecap="butt"/><path d="M234.2178,184.41289c0,-0.41421 0.33579,-0.75 0.75,-0.75c0.41421,0 0.75,0.33579 0.75,0.75c0,0.41421 -0.33579,0.75 -0.75,0.75c-0.41421,0 -0.75,-0.33579 -0.75,-0.75z" fill="#ffffff" stroke="none" stroke-width="0.5" stroke-linecap="butt"/><path d="M233.75283,199.55472c0,0.75 -0.75,0.75 -0.75,0.75h-0.11559c-4.02468,0 -10.97087,0.28491 -10.33909,-5.45628c0,0 0.08282,-0.74541 0.82824,-0.66259c0.74541,0.08282 0.66259,0.82824 0.66259,0.82824c-0.49211,4.38335 5.86185,3.79064 8.84827,3.79064h0.11559c0,0 0.75,0 0.75,0.75z" fill="#ffffff" stroke="none" stroke-width="0.5" stroke-linecap="butt"/></g></g></svg>