<svg version="1.1" xmlns="http://www.w3.org/2000/svg" xmlns:xlink="http://www.w3.org/1999/xlink" width="104.88483" height="148.65156" viewBox="0,0,104.88483,148.65156"><g transform="translate(-159.875,-91.28928)"><g data-paper-data="{&quot;isPaintingLayer&quot;:true}" fill-rule="nonzero" stroke="none" stroke-linecap="butt" stroke-linejoin="miter" stroke-miterlimit="10" stroke-dasharray="" stroke-dashoffset="0" style="mix-blend-mode: normal"><path d="M187.625,199.75l-21.47279,-33.34463l-6.27721,-24.65537l17.70213,-50.46072l34.54787,32.96072l35.73079,13.94156l15.23722,27.0508l-10.968,33.25764l5.5635,23.97656l-12.54238,17.46428l-26.98355,-1.092l-23.93458,-16.70706l7.89589,-20.97113z" fill="#ffffff" stroke-width="0"/><path d="M238.00113,183.64554c0.07208,-0.21594 0.25212,-0.48566 0.70189,-0.48566c0.75,0 0.75,0.75 0.75,0.75l-0.41459,0.87082c-0.83084,0.40251 -1.36521,0.9726 -2.2,1.4c0,0 -0.48266,0.24133 -0.83387,-0.09484c-0.21835,0.17402 -0.50154,0.17402 -0.50154,0.17402c-1.91219,0 -3.73965,-0.17382 -5.5819,-0.62239l-0.78478,-0.19619c-0.33399,-0.07579 -0.58332,-0.37449 -0.58332,-0.73141c0,-0.35693 0.24933,-0.65562 0.58332,-0.73141l1.43999,-0.36l0.06724,0.26896c0.85662,-0.21144 1.651,-0.24314 2.48443,-0.17879c0.10809,-0.28065 0.19888,-0.5681 0.2716,-0.85897l0.43259,-0.8752c0,0 0.33541,-0.67082 1.00623,-0.33541c0.67082,0.33541 0.33541,1.00623 0.33541,1.00623l-0.36741,0.7248c-0.04489,0.17955 -0.09733,0.35737 -0.15621,0.53321c0.4951,0.08023 1.01907,0.17429 1.58801,0.26887l0.01105,0.00642l0.00083,-0.00414l0.76497,0.15299c0.3238,-0.22689 0.6321,-0.46479 0.98606,-0.6819z" fill="#9966ff" stroke-width="0.5"/><path d="M210.44993,204.50113c0,0 -0.3975,-0.636 0.2385,-1.0335c0.636,-0.3975 1.0335,0.2385 1.0335,0.2385c0.80942,1.30037 1.42258,2.62928 1.79893,4.11804l0.00234,0.04449c0.53843,0.18502 0.9924,0.39388 1.27391,0.61258c0.51804,0.40245 0.97577,1.13975 1.2378,1.94817c0.33003,-0.07232 0.62298,0.14739 0.62298,0.14739l0.62346,0.49733c1.56919,1.96774 3.41559,3.41076 5.18858,5.18209c0,0 0.00286,0.00286 0.00794,0.00836c0.33368,0.20683 0.33368,0.64392 0.33368,0.64392v0.12195c0,2.54291 -0.40997,4.94359 -0.86334,7.43721c-0.47385,3.26635 -5.1755,8.94111 -2.38409,12.29824c0.78744,0.94704 3.57983,1.11831 4.64451,1.22551c1.16092,0.1169 2.41508,-0.00365 3.58245,-0.00365c0.13831,-0.00075 2.20643,-0.00461 2.33451,-0.03497c0.6196,-0.14685 0.63065,-3.43048 0.70569,-3.95525c0.57843,-4.04507 -0.36059,-8.29867 0.62461,-12.27096c0,0 0.02828,-0.11311 0.10713,-0.23899c-0.4293,-0.30119 -0.83975,-0.63255 -1.21926,-0.96977c0,0 -0.56056,-0.49827 -0.06228,-1.05883c0.49827,-0.56056 1.05883,-0.06228 1.05883,-0.06228c0.57563,0.51185 1.41558,1.21716 2.27422,1.63002l-0.17616,-0.42507c0,0 -0.27854,-0.69636 0.41781,-0.9749c0.69636,-0.27854 0.9749,0.41781 0.9749,0.41781l0.27515,0.7064c0.0477,0.19159 0.09241,0.3842 0.1343,0.57772c0.43746,-0.09551 0.8307,-0.38219 1.13635,-0.94585l0.21707,-0.66275c0,0 0.23717,-0.71151 0.94868,-0.47434c0.71151,0.23717 0.47434,0.94868 0.47434,0.94868l-0.27074,0.80066c-0.63187,1.07228 -1.40971,1.60022 -2.24796,1.75584c0.40024,2.691 0.36206,5.50535 0.36206,8.18194c0,1.48128 -0.38696,3.76704 0.27331,5.1269c0.85385,1.75855 4.00525,1.32403 5.4572,1.20364c2.10176,-0.38382 3.40822,-2.95727 3.25918,-5.05786c-0.29923,-4.21735 -2.07393,-8.48803 -3.1516,-12.57363c-0.34223,-0.22692 -0.67827,-0.51533 -1.03242,-0.86346c-0.30554,-0.30035 -0.35301,-0.97924 -0.7793,-1.02214c-1.57635,-0.15865 -3.11194,1.01168 -4.8005,0.35044c-1.63997,-0.64221 -3.29106,-2.65833 -4.31822,-4.8863c-0.15602,0.05778 -0.2918,0.05778 -0.2918,0.05778c-1.96147,-0.01033 -3.96678,-0.75426 -5.48014,-2.0031l-0.21348,-0.3579c-0.23377,0.07906 -0.46389,0.02153 -0.46389,0.02153l-0.56925,-0.14731c-0.0964,-0.03638 -0.19352,-0.07374 -0.29127,-0.11207c-0.56085,-0.01593 -1.11688,-0.06935 -1.66196,-0.1646c-0.12648,0.31684 -0.25303,0.63369 -0.37975,0.95053c0,0 -0.27854,0.69636 -0.9749,0.41781c-0.69636,-0.27854 -0.41781,-0.9749 -0.41781,-0.9749c0.10192,-0.25477 0.20373,-0.50954 0.30548,-0.7643c-0.07891,-0.02666 -0.15743,-0.05437 -0.23556,-0.08315c-0.61681,-0.22725 -1.15096,-0.53497 -1.60293,-0.90401c-0.12392,0.3123 -0.2439,0.62695 -0.35847,0.94485c0,0 -0.25631,0.70485 -0.96115,0.44854c-0.70485,-0.25631 -0.44854,-0.96115 -0.44854,-0.96115c0.20944,-0.57139 0.43528,-1.13169 0.66918,-1.68642c-0.19096,-0.31029 -0.34653,-0.63897 -0.46686,-0.98056c-0.26786,-0.22646 -0.52201,-0.45763 -0.75951,-0.69273c0,0 -0.53033,-0.53033 0,-1.06066c0.15525,-0.15525 0.31049,-0.2196 0.45243,-0.23297c0.03306,-1.34549 0.52705,-2.72872 1.4753,-3.88879c0.38027,-0.38041 0.7597,-0.75917 1.14494,-1.12859c-2.16422,0.37915 -4.74997,0.36622 -6.53629,-0.49971c0,0 -0.5226,-0.2613 -0.41464,-0.7839c-0.02036,-0.003 -0.04072,-0.00604 -0.06106,-0.0091c-0.7161,0.31153 -1.42805,0.62305 -2.02243,1.09339c0.12551,0.08301 0.25063,0.1737 0.37523,0.2724l0.39942,0.53548c0,0 0.41603,0.62404 -0.20801,1.04006c-0.62404,0.41603 -1.04006,-0.20801 -1.04006,-0.20801l-0.08839,-0.19623c-2.43968,-1.97565 -5.338,0.78005 -6.74271,2.79953c-4.29392,5.15805 -8.72573,15.60967 -0.98606,19.55554c2.2411,0.25399 8.57061,0.59463 10.02789,-1.54998c0.76797,-1.13018 0.52272,-2.79917 1.26569,-3.83831c0.44041,-0.61597 1.80795,-0.28465 2.03956,-1.1844c0.27389,-1.06401 -0.76074,-2.49733 -1.25169,-3.31925c2.16465,-3.56835 -1.80815,-5.31002 -4.87119,-4.94905c-0.75492,0.08896 -1.26908,0.83834 -1.92428,1.22375c-2.15484,1.26755 -4.30967,2.5351 -6.46451,3.80265c0,0 -0.64645,0.38027 -1.02672,-0.26619c-0.38027,-0.64645 0.26619,-1.02672 0.26619,-1.02672c2.43054,-1.42973 6.26477,-4.83685 9.04711,-5.23001c0.61484,-0.08688 1.72227,0.02275 2.82536,0.24987c-0.33506,-1.03162 -0.81088,-1.98622 -1.3965,-2.919zM212.00084,197.07681l0.43329,-0.14811c0,0 0.61664,-0.20555 0.89316,0.34013c0.77665,0.0799 1.56788,0.11376 2.36484,0.11036c-1.83406,-0.50222 -3.67872,-1.11033 -5.47612,-1.5764c-1.54461,-0.92677 -3.19265,-1.6405 -4.78414,-2.4892c0.40129,0.56715 0.8316,1.09437 1.28924,1.56681l0.70279,0.35139c0.15815,0.07497 0.28589,0.20364 0.35968,0.36247c1.27826,0.74346 2.70378,1.21619 4.20714,1.48706c0.00338,-0.0015 0.00675,-0.00301 0.01013,-0.00451zM233.51067,202.20259c-0.09439,-0.14201 -0.19122,-0.28061 -0.29041,-0.41618c0.03334,0.33371 0.0433,0.67091 0.03461,1.01012c0.1785,-0.10344 0.36378,-0.1972 0.55524,-0.28109zM230.59784,199.06332c0,0 -0.13517,-0.11586 -0.21735,-0.30054c-2.28685,-2.36942 -6.62529,-0.28234 -9.41619,1.78859c0.06339,0.0139 0.13065,0.03692 0.2018,0.07102c0.67637,0.32408 0.35229,1.00044 0.35229,1.00044l-0.08513,0.15353c-0.23364,0.8121 -0.5132,1.59605 -0.8169,2.36506c0.61114,0.23466 1.21643,0.48318 1.81477,0.74903c0.49275,-1.2154 0.99114,-2.42873 1.50008,-3.63865l0.10174,-0.31217c0,0 0.23717,-0.71151 0.94868,-0.47434c0.71151,0.23717 0.47434,0.94868 0.47434,0.94868l-0.14216,0.41954c-0.51542,1.22478 -1.01987,2.4531 -1.51852,3.68356l0.27741,0.05408c0,0 0.72761,0.1819 0.54571,0.90951c-0.1819,0.72761 -0.90951,0.54571 -0.90951,0.54571l-0.46973,-0.13092c-0.23478,0.58421 -0.4687,1.16879 -0.7023,1.75358c0.41675,0.19318 0.82882,0.37072 1.22833,0.53057c2.11862,0.01212 4.30833,-0.57202 6.1342,-1.42485c0.05848,-0.20137 0.13259,-0.39225 0.22332,-0.57086l0.09583,-0.96797c0,0 0.07501,-0.67505 0.72466,-0.66897c0.17242,-0.45419 0.3933,-0.86857 0.65654,-1.24091c0.18142,-1.08317 0.23649,-2.16636 -0.01932,-3.1811c-0.20509,-0.81352 -0.49883,-1.45797 -0.8617,-1.95761c-0.04014,-0.0347 -0.08044,-0.06937 -0.12091,-0.10402zM231.57402,197.92444c1.21576,1.04309 2.29361,2.11308 3.18472,3.4461l0.27215,0.25155c0,0 0.19534,0.19534 0.23036,0.46747c0.38169,-0.06327 0.77815,-0.0945 1.18615,-0.09252c-1.27962,-1.8485 -3.45604,-4.48079 -5.14539,-4.22872c-0.00111,0.00143 -0.00222,0.00286 -0.00334,0.00428c0.16508,0.05733 0.27534,0.15184 0.27534,0.15184zM230.4829,196.4409c3.18056,-0.92701 6.38554,3.31876 7.92234,5.80637c0.54037,0.1328 1.09087,0.31937 1.64535,0.56193c2.41045,1.05444 2.02924,2.83096 4.71255,3.36262c2.2061,0.40172 5.57795,0.73514 6.31037,3.32916c0.28742,1.01797 0.18911,1.94907 0.68378,2.92688c0.46991,0.92888 1.38812,2.17145 1.50545,3.35995c1.61872,0.56513 3.8938,1.48862 4.14673,2.47584c0.56175,2.19257 -0.5707,2.67805 -2.03704,2.49302c1.45243,1.37254 2.50471,3.26251 1.20133,5.00313c-1.36495,1.82284 -8.11966,3.93304 -2.76416,5.05072c1.60004,0.36278 3.34192,0.38215 4.94171,-0.03205c1.10146,-0.28518 3.50426,-1.5486 4.64496,-1.04488c1.66352,0.73459 1.67267,2.79743 0.73711,4.07687c-1.24668,1.70494 -3.39724,1.92372 -5.32271,2.13957l-1.13938,0.00117c0,0 -0.75,0 -0.75,-0.75c0,-0.75 0.75,-0.75 0.75,-0.75l1.05574,0.00117c1.46839,-0.16444 3.19575,-0.25264 4.18949,-1.51897c0.28005,-0.35687 0.68408,-1.63718 0.00541,-1.77678c-0.91496,-0.18821 -2.94797,0.85943 -3.7986,1.07499c-1.84237,0.46689 -3.79562,0.44569 -5.63913,0.0432c-1.53294,-0.35694 -4.45008,-1.6602 -3.27669,-3.81495c1.22312,-2.24606 8.4382,-3.08251 4.02386,-6.85797c-0.71394,-0.61061 -1.03061,-0.72672 -1.77354,-1.09572c0,0 -0.57935,-0.28968 -0.39204,-0.86903c-0.33744,-0.17128 -0.61963,-0.33363 -0.81596,-0.46372l-0.60621,-0.22733c-2.00497,0.80521 -4.65577,0.9708 -6.26683,1.26372c-0.33137,0.03937 -0.63525,0.04915 -0.91902,0.02987c0.25251,0.76102 0.53051,1.50377 0.782,2.29548c1.46903,4.62472 4.57508,14.72331 -2.43923,16.21355c-2.17326,0.18192 -5.74997,0.45558 -6.98182,-1.96709c-0.7218,-1.41956 -0.4584,-3.44947 -0.4584,-4.99505c0,-2.97977 0.10797,-6.13326 -0.38701,-9.11257c-0.36857,-0.09342 -0.7389,-0.23444 -1.1047,-0.4104c-0.96756,4.05536 -0.15339,8.63217 -0.6728,12.78816c-0.14595,1.16783 0.01131,3.63141 -1.36904,4.22709c-0.54625,0.23573 -2.31973,0.20452 -3.03134,0.20894c-1.21888,0 -2.52254,0.11681 -3.73462,-0.00365c-0.94179,-0.09359 -1.87114,-0.29182 -2.79709,-0.48761c-7.9672,-1.68462 -1.40636,-10.42347 -0.79615,-14.76912c0.42778,-2.35276 0.82328,-4.61664 0.84319,-7.00873c-1.72534,-1.71379 -3.51596,-3.15472 -5.06382,-5.03887c-0.06613,0.5827 -0.29776,1.09876 -0.75247,1.43603c1.40015,0.81364 1.70239,3.73493 0.47806,4.83055c-0.43999,0.39373 -1.35097,0.15174 -1.64141,0.6658c-0.60953,1.07882 -0.32955,2.55764 -1.17334,3.72267c-1.99065,2.74852 -8.68882,2.50688 -11.67943,2.10855c-8.92242,-4.39379 -4.83812,-15.82874 0.23345,-21.90788c1.62246,-2.22326 4.29928,-4.54522 6.99102,-3.97005c0.37568,-0.3818 0.78318,-0.68932 1.2176,-0.95683c-1.10241,-0.32725 -2.15527,-0.77557 -3.13488,-1.37042l-0.53543,0.10709l-0.04649,-0.23247c-2.39145,0.62159 -5.44774,0.53058 -7.64242,0.0335c-0.58251,-0.13193 -3.35398,-1.98339 -3.74478,-1.85508c-0.01343,0.00441 0.01002,1.54186 0.00987,1.86632l0.51351,0.85585c0.07176,0.11502 0.11322,0.25089 0.11322,0.39644c0,0.41421 -0.33579,0.75 -0.75,0.75c-0.04044,0 -0.08013,-0.0032 -0.11884,-0.00936l-1.38723,-0.19818l0.02985,-0.20896c-4.4013,-0.5806 -7.28945,-3.73233 -8.95915,-7.81331c-0.27123,0.60801 -1.05335,0.62017 -2.26694,-0.16325c-3.55632,-2.29574 -4.55423,-8.21207 -3.6253,-11.93885l0.01663,-0.06652c-3.93389,-2.28348 -7.35966,-5.78996 -9.12701,-9.35728c-1.60963,-2.14617 -3.28246,-5.58609 -4.07563,-8.16355c-0.29414,-0.95581 -0.47043,-1.74978 0.434,-2.60735c0.89183,-0.84562 3.05205,-0.94075 5.17745,-0.85175c-0.2882,-0.18133 -0.57415,-0.35603 -0.85873,-0.5142c-1.48798,-0.82703 -3.47467,-1.449 -4.61491,-2.77689c-1.80329,-2.10008 -2.71091,-6.09389 -3.16398,-8.75726c-0.45322,-2.75326 -0.24462,-5.73113 -0.2102,-8.5233c0.00828,-0.67161 -0.69849,-1.46268 -0.28799,-1.9943c0.72003,-0.93246 4.17413,-0.21759 5.06992,0.08106c0.34758,0.11588 0.96793,0.67361 1.27513,0.96895c-0.88902,-1.05834 -0.50212,-3.54364 -0.21047,-4.71592c3.65256,-7.35565 10.73902,-12.79027 12.15597,-21.20165c-0.00833,-3.70828 -0.93031,-7.17686 -1.59027,-10.80293c-0.24034,-1.32051 -0.95053,-3.7104 -0.3552,-5.02222c1.65325,-3.64297 3.24291,0.28555 3.24291,2.28701c0,1.72652 0.0483,4.20158 1.04529,5.74378c0.77963,1.20598 3.21798,-0.30196 4.42953,1.24136c0.53328,0.67932 0.72995,2.3259 1.0681,3.12785c1.0931,2.59242 1.96082,5.29851 3.2105,7.8268c0.29353,1.17413 1.12217,3.64739 2.11868,4.44026c0.4763,0.37897 1.21553,-0.20289 1.57581,-0.30231c1.75504,-0.48433 4.7611,-1.28941 6.57441,-0.80768c2.55918,0.67989 4.10924,4.11523 4.5654,6.39473c0.27093,1.64487 0.21229,3.27185 0.21229,4.93521v0.6c0,0 0,0.75 -0.75,0.75c-0.75,0 -0.75,-0.75 -0.75,-0.75v-0.6c0,-1.56828 0.07386,-3.11595 -0.18771,-4.66479c-0.15461,-0.77352 -0.25552,-1.83305 -0.68842,-2.52234c-2.13341,-3.39696 -5.03865,-2.8433 -8.57178,-1.89061c-1.17618,0.31715 -1.43174,0.94727 -2.82419,0.09769c-1.25787,-0.76747 -2.35024,-3.83544 -2.68132,-5.15974c-1.69706,-3.34786 -2.29558,-7.43962 -4.1214,-10.64535c-0.47704,-0.83758 -2.46006,0.00294 -3.21236,-0.30335c-0.9817,-0.39969 -1.58097,-1.3913 -1.94631,-2.5645c0.57264,2.88248 1.137,5.71676 1.13093,8.71485c-1.42923,8.65525 -8.46141,14.08889 -12.24403,21.59835c-0.35619,1.41422 0.7333,4.62366 -0.30912,5.57778c-0.29016,0.26558 -3.21319,-1.00751 -3.72951,-1.10028c-0.06758,-0.01214 -1.32977,-0.18443 -1.92963,-0.35711c0.24387,0.72625 0.21484,2.85985 0.21484,3.0194c0,2.08137 -0.15697,4.22414 0.1898,6.2767c0.38756,2.38149 1.22437,6.15772 2.83602,8.04274c0.983,1.14974 2.88823,1.70296 4.18509,2.42311c0.95964,0.53289 2.2093,1.56655 3.40032,2.04917c0.48509,0.0344 0.90826,0.05829 1.23877,0.05829c1.247,0.003 2.41614,0.13014 3.51758,0.36771c0.40165,-2.65035 2.51314,-5.63815 4.72152,-6.87516c0.9156,-0.51287 3.42459,-0.55564 3.97123,-1.40599c1.45185,-2.25849 0.37048,-4.4256 3.73653,-5.24255c4.21937,-2.13933 8.96002,-3.05109 13.08554,-5.34774c2.28771,-1.27356 3.52031,-3.42885 5.54912,-4.96866c2.63583,-1.56665 4.87857,-4.68643 7.78774,-5.69123c0.59227,-0.20457 2.67464,-0.83954 3.16027,-0.56012c2.51265,1.44571 -0.91401,3.36151 -0.8261,4.81353c0.02896,0.47825 0.95725,-0.04748 1.43473,-0.08723c1.39645,-0.11627 2.85896,-0.00256 4.26186,-0.00256c8.91199,0 15.01982,3.32315 20.57763,10.27162c2.73294,3.18826 5.23776,6.62379 7.63462,10.0452c0.87669,1.25143 2.50029,3.21489 2.53638,4.78797c0.01024,0.44628 -0.01013,0.89544 -0.05344,1.34609c1.08074,-0.76365 1.44734,-3.02699 3.09596,-1.36244c0.36916,0.37272 0.15923,2.92421 0.15885,3.46156c-0.00331,4.64767 -2.06272,8.90596 -4.10132,12.97645c-0.06631,0.09947 -0.13245,0.19916 -0.19815,0.29918c0.15032,0.93474 0.36468,1.89673 0.66838,2.91066c0.83545,2.78926 3.3416,5.19872 1.2165,7.88453c-0.74625,0.05204 -1.77622,-0.49099 -2.24221,0.0942c-1.90792,2.39602 -1.5363,6.38702 -4.23164,8.42613c-0.30938,0.23406 -2.00973,1.26667 -2.43387,1.13878c-0.83222,-0.25093 -0.53141,-2.23326 -1.4,-2.2c-0.70797,0.02711 -1.8421,1.83534 -2.39952,2.28584c-0.62682,0.37687 -2.87447,2.01359 -3.63785,1.70432c-1.19397,-0.48372 -1.46686,-2.22786 -1.52626,-3.67197c-2.5023,1.52322 -5.48607,2.51016 -8.20858,3.2595c-0.64164,0.16113 -1.32794,0.34239 -2.04381,0.52825c0.31521,0.123 0.62234,0.26591 0.91748,0.42774zM229.74014,209.45985c-1.05934,0.43002 -2.19878,0.76939 -3.36312,0.97887c1.09889,0.7822 2.4867,1.27247 3.82388,1.32498c-0.25461,-0.78874 -0.41713,-1.57303 -0.46076,-2.30384zM250.98417,215.81768c0.13901,-0.41702 0.44095,-0.50815 0.66709,-0.51215c-0.30493,-0.81252 -1.01613,-1.76336 -1.2367,-2.20905c-0.5828,-1.17759 -0.30972,-3.30058 -1.38551,-4.14131c-1.14804,-0.89719 -3.17005,-1.05997 -4.54717,-1.30997c-0.85509,-0.17246 -2.25311,-0.37347 -2.93559,-0.9234c-1.1456,-0.92311 -0.53295,-1.85408 -2.10796,-2.54325c-0.54627,-0.23903 -1.08379,-0.4155 -1.60449,-0.5314c-0.0451,-0.00474 -0.08775,-0.01428 -0.12785,-0.02731c-1.96731,-0.40259 -3.68243,0.06633 -4.70335,1.29679c-0.23108,1.19899 -0.57208,2.38549 -0.81872,3.49604l-0.14613,0.25704c0.00959,0.11196 0.02165,0.2256 0.03624,0.34089c0,0 0.09303,0.74421 -0.65118,0.83723c-0.09055,0.01132 -0.17147,0.01024 -0.24375,-0.00038c0.23161,1.87716 1.70661,3.63012 2.92678,5.12328c0.42469,0.51971 0.833,1.48794 1.51636,1.7251c1.55155,0.53846 3.21971,-0.72307 4.71169,-0.38127c1.02935,0.23582 1.40994,1.26294 2.07043,1.91256c0.30575,0.02411 0.47359,0.23669 0.55727,0.39585c0.31006,0.14136 0.687,0.19524 1.17488,0.10618c1.3386,-0.24338 4.08456,-0.37271 5.9245,-1.12462c0.11537,-0.11836 0.26954,-0.19872 0.44195,-0.22055l0.04756,-0.00679c0.3389,-0.17954 0.63051,-0.38822 0.85481,-0.63241c-0.16064,-0.07239 -0.61817,-0.33612 -0.42117,-0.92712zM220.04218,205.52666c-0.20154,0.46868 -0.40729,0.93471 -0.61206,1.40123c0.56312,0.3734 1.15783,0.72501 1.76043,1.04866c0.22595,-0.56539 0.45222,-1.13057 0.67929,-1.69542c-0.60202,-0.26893 -1.21178,-0.51901 -1.82766,-0.75447zM219.99163,201.36203l0.02815,-0.06265c-0.30998,0.26273 -0.58572,0.51578 -0.81905,0.74903c-0.34859,0.40709 -0.61521,0.85347 -0.80077,1.31724c0.07237,0.01117 0.11827,0.02647 0.11827,0.02647c0.23271,0.0776 0.46477,0.15658 0.69613,0.23712c0.28835,-0.73685 0.5537,-1.48846 0.77727,-2.26721zM218.08363,204.82841c-0.01678,0.40498 0.02434,0.80624 0.12281,1.19033c0.14634,-0.33287 0.29217,-0.66599 0.43562,-1.00059c-0.18572,-0.06422 -0.37188,-0.12743 -0.55843,-0.18974zM175.30301,159.25989c-0.48455,-0.01227 -0.95521,-0.11436 -1.41468,-0.27521c-2.36642,-0.19012 -5.86767,-0.61263 -7.3057,0.3018c-0.46465,0.29547 0.33458,1.75965 0.40456,1.91616c1.01059,2.26038 2.06424,4.92686 3.55381,6.91294c1.64941,3.27299 4.87007,6.66491 8.56053,8.85575c0.10675,-0.02541 0.23349,-0.02654 0.38338,0.01094c0.35478,0.0887 0.49332,0.30713 0.54215,0.5077c2.23531,1.17864 4.60439,1.89434 6.87595,1.86991c0,0 0.75,0 0.75,0.75c0,0.75 -0.75,0.75 -0.75,0.75c-2.3594,-0.02071 -4.81463,-0.71703 -7.14428,-1.8653c-0.59593,2.66189 -0.14437,4.93534 1.20173,7.3544c0.45899,0.82485 0.90202,1.35615 1.50914,2.06951c0.30447,0.35775 0.79304,1.67104 0.72999,1.20552c-0.0252,-0.18603 -0.00775,-0.36794 0.04053,-0.54556l-0.20793,-0.10397l0.59273,-1.18547c0.12026,-0.25368 0.37868,-0.42912 0.67809,-0.42912c0.35693,0 0.65562,0.24933 0.73141,0.58332l0.19096,0.76384c0.38263,1.1502 0.56711,2.57816 1.13645,3.64443c1.48938,2.78937 4.71662,3.08315 7.0128,4.60629c-0.05187,-1.07041 -0.35979,-2.92255 0.81499,-3.52926c1.23397,-0.63728 3.47493,1.48926 4.65522,1.74492c1.23883,0.26833 4.32227,-0.23962 6.18299,0.04316c-0.90836,-1.07174 -1.69936,-2.32147 -2.36381,-3.64843l-0.61102,-0.45826c0,0 -0.6,-0.45 -0.15,-1.05c0.01576,-0.02101 0.0317,-0.04074 0.0478,-0.05924c-0.62353,-1.51305 -1.08872,-3.07269 -1.38323,-4.54368c0,0 -0.14709,-0.73544 0.58835,-0.88252c0.73544,-0.14709 0.88252,0.58835 0.88252,0.58835c0.34761,1.73996 0.96107,3.64396 1.80661,5.41567c2.17702,1.60824 4.67885,2.47884 6.94497,3.83851c0.121,0.02878 0.24199,0.05834 0.36299,0.08858c0.00281,-5.49599 5.34972,-8.47105 10.56371,-6.91458c2.01699,0.60211 2.92144,2 4.31662,3.38858c0.54976,0.5604 2.272,1.3586 2.40435,2.17953c0.10904,0.67634 -0.1996,1.44204 -0.71885,2.17146c0.49787,-0.17138 0.99352,-0.35707 1.51141,-0.56054c0.08754,-0.19844 0.27431,-0.41012 0.67276,-0.41012c0.42772,0 0.61152,0.24393 0.69049,0.45356c0.06173,-0.01578 0.12298,-0.03135 0.18374,-0.0467c2.79159,-0.76084 6.0531,-1.7884 8.58201,-3.53675c0.02455,-0.19323 0.14571,-0.67012 0.74376,-0.67012c0.04731,0 0.09164,0.00298 0.13317,0.00858c1.98165,-1.63569 3.33205,-3.82945 3.31683,-6.85858c0,0 0,-0.75 0.75,-0.75c0.09524,0 0.17839,0.01209 0.25098,0.03321c-0.01705,-4.86679 0.01664,-9.29022 -1.54388,-13.9962c-0.28967,-0.58865 -0.67233,-1.13502 -1.10219,-1.63064c-0.32086,-0.36995 -0.73271,-1.66053 -0.86346,-1.1886c-0.72828,2.62853 -4.97787,6.51551 -8.02328,6.07775c-1.68164,-0.24173 -2.14706,-1.77555 -2.62239,-3.08752c-0.03881,-0.10713 -0.73956,-1.51073 -0.79826,-1.51503c-0.66582,-0.0488 -1.06204,0.84221 -1.68464,1.08317c-2.39424,2.42744 -6.89399,2.56472 -10.02959,2.08177c-1.48178,-0.22823 -2.13148,0.10356 -2.90606,-1.5077c-0.12803,-0.26632 0.45236,-1.05173 0.23115,-0.85582c-1.84414,1.63321 -3.96131,2.57268 -5.74952,4.35581c-0.94598,1.18136 -1.85817,2.71269 -2.14754,4.28884c2.44046,0.29651 6.00778,0.25445 6.89234,-2.06758l-0.05364,0.07854c0,0 0,-0.75 0.75,-0.75c0.75,0 0.75,0.75 0.75,0.75l-0.05364,0.47854c-1.2654,3.05252 -5.24233,3.35433 -8.35424,3.00831c0.00136,0.01309 0.00277,0.02617 0.00423,0.03925c0.01052,0.09381 0.02861,0.19778 0.05172,0.30981c0.4485,-0.01981 0.67275,0.42869 0.67275,0.42869l0.2,0.4c0.19087,0.38234 0.39518,0.758 0.60768,1.12897c0.39343,-0.04832 0.80276,-0.0687 1.22275,-0.06575c0.00153,-0.00417 0.0024,-0.00635 0.0024,-0.00635c0.13333,-0.33333 0.26667,-0.66667 0.4,-1l0.18485,-0.55863c0,0 0.23717,-0.71151 0.94868,-0.47434c0.71151,0.23717 0.47434,0.94868 0.47434,0.94868l-0.21515,0.64137c-0.07408,0.1852 -0.14816,0.37039 -0.22224,0.55559c2.31457,0.27974 4.74835,1.05389 6.52856,1.64345l0.764,0.191c0.33399,0.07579 0.58332,0.37449 0.58332,0.73141c0,0.41421 -0.33579,0.75 -0.75,0.75h-1v-0.15913c-1.4212,0.27729 -2.84095,0.24057 -4.34709,-0.05543l-0.25291,0.01456c0,0 -0.75,0 -0.75,-0.75c0,-0.07856 0.00823,-0.14889 0.02296,-0.21185c-1.15636,-0.12552 -2.29343,-0.31666 -3.48369,-0.54708c-0.00113,0.00068 -0.00227,0.00137 -0.00341,0.00205c-0.52043,0.31226 -0.87241,-0.04932 -0.98776,-0.19864l-0.48195,-0.09639c-0.08645,0.11223 -0.19492,0.21145 -0.32931,0.29444c-0.6077,0.3753 -2.08877,-0.45576 -2.72226,-0.77171c-2.38849,-1.19123 -4.31049,-2.59116 -4.80439,-5.34752c0,0 -0.1233,-0.7398 0.6165,-0.86309c0.7398,-0.1233 0.86309,0.6165 0.86309,0.6165c0.33706,2.23957 2.09626,3.30024 3.99561,4.25248c0.45374,0.22748 0.78669,0.95677 1.27774,0.82829c0.4685,-0.12258 -0.25153,-0.93593 -0.34858,-1.41038c-0.10869,-0.53138 -0.18637,-1.0729 -0.20831,-1.6153c-0.14055,-0.12915 -0.24955,-0.33408 -0.19605,-0.65509c0.03724,-0.22345 0.13073,-0.36816 0.24308,-0.46131c0.25197,-1.93659 1.36037,-3.84252 2.53787,-5.31558c1.50818,-1.51208 3.00338,-2.56568 4.75463,-3.73156c0.70789,-0.47127 1.45752,-1.25547 2.29585,-1.11263c0.88171,0.15023 0.56612,2.04919 1.43325,2.2684c3.06961,0.77602 7.88248,0.59931 10.26224,-1.75015c0.93028,-0.38274 1.72658,-1.50187 2.71536,-1.31683c2.20912,0.41341 1.47496,4.44031 3.37935,4.59744c2.20521,0.18195 4.7173,-2.37054 5.92526,-3.91379c0.4862,-0.62116 0.53868,-1.67057 1.25146,-2.00846c1.30716,-0.61964 2.06643,0.86424 2.65709,1.51606c0.55552,0.61304 1.00365,1.32657 1.37726,2.0647c1.11606,3.33226 1.48935,6.54883 1.60778,9.86171c0.71256,-2.00343 1.61915,-3.99086 2.01542,-5.23912l0.36905,-1.16251c0,0 0.22693,-0.71484 0.94178,-0.48791c0.71484,0.22693 0.48791,0.94178 0.48791,0.94178l-0.36905,1.16251c-1.0375,3.26812 -1.79145,6.86813 -3.3517,9.95237l0.17462,0.05543l-0.44869,1.41337c-0.09102,0.31168 -0.37893,0.53938 -0.72002,0.53938c-0.0653,0 -0.12864,-0.00834 -0.18903,-0.02402c-0.45671,2.81621 -2.00013,4.91134 -4.06951,6.51085c-0.02218,0.97341 -0.04778,2.94293 0.46823,3.24308c0.80559,0.46858 1.5625,-1.01704 2.36215,-1.49568c1.16977,-0.92352 1.72305,-2.78953 3.60048,-2.51416c1.30681,0.19167 0.94974,2.11928 1.4,2.2c0.47564,0.08527 0.77798,-0.57339 1.16613,-0.86122c2.92342,-2.16784 2.08798,-9.47014 6.72615,-8.67967c0.84797,-1.38748 -1.54501,-4.65579 -1.9835,-6.11547c-0.15006,-0.49955 -0.27936,-0.98843 -0.39066,-1.46907l-0.1601,0.18569c0,0 -0.53033,0.53033 -1.06066,0c-0.53033,-0.53033 0,-1.06066 0,-1.06066l0.05951,-0.00508c0.22899,-0.45622 0.48732,-0.89743 0.75966,-1.32991c-0.38934,-2.90836 -0.23519,-5.6406 -0.23519,-8.80858c0.30647,-1.55717 0.77009,-3.1426 1.07869,-4.73701c-0.18022,-0.12949 -0.36132,-0.3655 -0.25994,-0.77099c0.08333,-0.33333 0.28119,-0.47578 0.47115,-0.53228c0.06042,-0.48004 0.09918,-0.96042 0.10782,-1.44061c0.02145,-1.1925 -1.59195,-3.05168 -2.26362,-4.01203c-2.37185,-3.39125 -4.85764,-6.7956 -7.56538,-9.9548c-5.28979,-6.61112 -10.9471,-9.72838 -19.42237,-9.72838c-1.5421,0 -6.3636,0.92209 -7.10341,-0.88979c-0.24255,-0.59404 0.52695,-1.98277 0.83259,-2.59562c0.23447,-0.47013 1.24833,-1.52843 0.74131,-1.39085c-3.82345,1.03749 -6.1413,4.14512 -9.45199,6.14865c-2.06826,1.52662 -3.30683,3.73804 -5.65088,5.03134c-4.20811,2.32178 -8.99985,3.32143 -13.31446,5.45226c-2.74118,0.58289 -1.63816,2.83393 -3.06347,4.75745c-0.90013,1.21477 -2.47307,0.9715 -3.72947,1.43997c-2.14986,0.80162 -4.50467,3.90043 -4.69842,6.30005c3.94508,1.26384 6.98604,4.02061 9.67222,7.52824c0.28953,-0.47565 0.61535,-0.9428 0.98034,-1.40023c0,0 0.46852,-0.58565 1.05417,-0.11713c0.58565,0.46852 0.11713,1.05417 0.11713,1.05417c-1.56964,1.95653 -2.33164,4.13528 -2.57194,6.40213c0.04063,0.01911 0.0812,0.03861 0.1217,0.05853c0,0 0.67082,0.33541 0.33541,1.00623c-0.14524,0.29047 -0.35336,0.39228 -0.54268,0.41434c-0.04752,3.84842 1.19424,7.8626 2.38338,11.41307c0.24192,0.7264 0.50028,1.44785 0.78485,2.15863l0.03397,-0.05179c0,0 0.53033,0.53033 0,1.06066c-0.53033,0.53033 -1.06066,0 -1.06066,0l-0.36603,-0.45179c-0.29504,-0.73823 -0.56356,-1.48723 -0.81515,-2.24137c-1.30027,-3.92115 -2.57994,-8.25761 -2.4254,-12.41196c-1.40084,-0.55376 -2.80155,-0.90649 -3.99342,-2.09488c-0.99798,-0.99508 -1.36706,-3.28757 -2.592,-3.85313c-1.72552,-0.79667 -4.03961,-0.5272 -5.87767,-0.5272h-0.4c0,0 -0.75,0 -0.75,-0.75c0,-0.75 0.75,-0.75 0.75,-0.75h0.4c2.01903,0 4.66335,-0.29878 6.52233,0.6728c1.6713,0.87348 1.7387,2.87287 3.008,4.14687c0.90405,0.9074 1.9696,1.26461 3.05606,1.64327c0.17032,-1.32844 0.50925,-2.63013 1.06483,-3.88474l-0.25121,-0.37821c-3.32568,-4.46057 -7.2305,-7.72442 -13.07548,-7.8932c-0.22088,0.1932 -0.52452,0.1932 -0.52452,0.1932zM179.87324,98.95258c-0.10618,-1.001 -0.12023,-1.95381 -0.12023,-2.64269c0,-0.76215 0.07666,-1.55473 0.048,-2.31349c-0.00911,-0.24128 -0.3224,0.37365 -0.40509,0.6005c-0.15003,0.41159 0.05853,0.87491 0.05709,1.31299c-0.0033,1.00368 0.20707,1.87025 0.38771,2.86479c0.01078,0.05935 0.02162,0.11865 0.03252,0.1779zM257.77513,164.9291c0.37332,-1.4991 -0.04209,-3.5702 0.1943,-5.19633c-0.12263,0.2474 -0.26046,0.46151 -0.39712,0.56215c-0.63703,0.46913 -1.04412,0.59865 -1.46311,0.5803c-0.31033,1.52614 -0.76193,3.04708 -1.05983,4.50857c0,2.27269 -0.0869,4.28355 0.02302,6.3097c1.07425,-2.17318 2.12663,-4.45098 2.70275,-6.76439zM212.6526,194.5242c0.26667,0.06667 0.76565,0.19141 1.03232,0.25808c1.82163,0.45541 4.89111,1.55475 7.39868,1.9357c0.54938,-0.01683 1.11526,-0.06506 1.68969,-0.13694c0.68968,-0.13564 1.36186,-0.28049 2.0097,-0.42777c1.02833,-0.72956 2.16661,-1.92772 2.18534,-2.69259c0.02,-0.81627 -1.41383,-0.84759 -1.99565,-1.42047c-1.20213,-1.20717 -1.94696,-2.48716 -3.68338,-3.01142c-4.29798,-1.29766 -8.63629,0.999 -8.63629,5.48109c0,0 0,0.00505 -0.00041,0.01431z" fill="#9966ff" stroke-width="0.5"/></g></g></svg>