<svg version="1.1" xmlns="http://www.w3.org/2000/svg" xmlns:xlink="http://www.w3.org/1999/xlink" width="130.54191" height="147.10047" viewBox="0,0,130.54191,147.10047"><g transform="translate(-291.19305,-162.48418)"><g data-paper-data="{&quot;isPaintingLayer&quot;:true}" stroke-width="1.5" stroke-miterlimit="10" stroke-dasharray="" stroke-dashoffset="0" style="mix-blend-mode: normal"><path d="M351.42498,255.5343c-0.75231,4.96054 1.34071,9.70023 -0.48716,12.18046c-1.19293,1.6187 -3.08344,2.70534 -4.31248,2.51896c-1.36983,-0.20774 -3.48338,-2.15849 -4.13535,-4.44727c-0.8293,-2.91123 -3.03133,-7.37173 -2.33528,-11.96138c0.61401,-4.0486 4.18719,-7.95833 5.59107,-10.48497c1.43882,-2.58954 3.8067,-3.03284 5.38192,-2.79394c1.70065,0.25792 3.33852,1.59712 3.89586,4.89159c0.46261,2.73445 -3.03467,6.37833 -3.59858,10.09657z" data-paper-data="{&quot;index&quot;:null}" fill="#ffab19" fill-rule="nonzero" stroke="#001026" stroke-linecap="butt" stroke-linejoin="miter"/><path d="M355.64404,256.54105c5.91486,2.40133 4.34434,9.94334 3.78782,13.15798c-0.55652,3.21462 -1.0091,4.91095 -1.01431,11.21416c-0.03719,2.50991 0.33856,5.54158 0.58577,7.17365c0.1805,0.64046 0.47722,1.22159 1.00637,1.68402c0.999,0.80864 2.82138,2.36905 2.32175,5.40812c-1.80792,7.07711 -24.07052,3.93822 -25.23987,-3.2305c-1.28803,-7.40118 6.13038,-6.64668 9.9286,-6.09509c0.58359,-0.00491 1.04602,-0.53409 0.92488,-1.05833l-0.12114,-0.52424c-1.16763,-6.98636 -0.95479,-13.60873 -0.57724,-18.13435c0.1988,-2.38313 0.44329,-4.18482 0.55592,-5.15211c0.38586,-2.68793 2.80443,-6.56026 7.84145,-4.44332z" data-paper-data="{&quot;index&quot;:null}" fill="#ffab19" fill-rule="evenodd" stroke="#001026" stroke-linecap="round" stroke-linejoin="round"/><g data-paper-data="{&quot;index&quot;:null}" fill-rule="evenodd"><path d="M381.93684,264.14708c3.13195,-0.65249 6.91639,-1.69647 10.04834,-4.56743c7.17739,-6.3944 9.39585,-16.96473 14.35477,-14.22428c5.08942,2.74046 4.95892,19.83569 -10.96183,25.05561c-5.48091,1.82697 -10.43984,1.82697 -14.48527,1.69647c-1.04398,0 -10.04834,-0.91349 -13.18029,-5.35042c-3.13195,-4.43693 -0.91349,-5.61141 0.1305,-6.1334c1.17448,-0.65249 9.65685,4.30643 14.09378,3.52344z" fill="#ffab19" stroke="#001026" stroke-linecap="round" stroke-linejoin="round"/><path d="M405.55697,245.61637c2.60996,0.78299 3.91494,6.2639 2.60996,10.83133c-1.30498,4.56743 -3.39295,6.91639 -5.08942,8.61286c0.261,-0.91349 0.78299,-3.78444 -1.43548,-5.48091c-2.74046,-2.21847 -7.56888,-1.04398 -7.56888,-1.04398c0,0 4.04544,-4.95892 6.1334,-8.48237c2.08797,-3.00145 2.74046,-4.95892 5.35042,-4.43693z" fill="#ffffff" stroke="none" stroke-linecap="butt" stroke-linejoin="miter"/></g><path d="M370.54706,269.65824c0.02594,0.97348 0.10884,2.7898 0.09438,5.18116c-0.02744,4.54125 -1.93072,18.01067 -1.93072,18.01067c0,0 8.07485,15.47148 -1.82052,15.98458c-11.20793,0.58115 -10.04745,-12.83433 -9.91559,-13.18047c0.39173,-1.60353 -0.00771,-4.58964 0.17902,-7.09286c0.55678,-6.27857 1.30122,-8.00849 1.03352,-11.25994c-0.2677,-3.25145 -1.15958,-10.90344 4.94583,-12.76788c5.20571,-1.65942 7.2694,2.4131 7.4141,5.12473z" data-paper-data="{&quot;index&quot;:null}" fill="#ffab19" fill-rule="evenodd" stroke="#001026" stroke-linecap="round" stroke-linejoin="round"/><g data-paper-data="{&quot;index&quot;:null}" fill-rule="evenodd"><path d="M364.5464,269.40737c0,0 -8.51965,-1.04628 -11.04279,-2.12887c-2.80695,-1.20437 -5.03837,-4.77099 -5.03837,-4.77099c-1.03859,-1.65922 -1.7955,-4.04901 -2.66385,-7.60067c-0.69086,-2.92377 -0.65843,-8.08617 -0.65843,-8.08617c0.07784,-3.46653 1.60079,-9.59273 5.57194,-7.92168c2.63178,1.15462 5.20785,1.72831 9.58244,2.71574c7.869,1.35577 9.58394,0.89811 10.70308,7.064c1.03403,7.11209 7.79229,14.61313 -6.45402,20.72865z" fill="#ffab19" stroke="#001026" stroke-linecap="round" stroke-linejoin="round"/><path d="M349.60805,262.80827c0,0 -2.78866,-4.01235 -3.35472,-10.52442c0,0 -1.13976,-3.93601 5.36354,-5.20478c6.84072,-1.41838 7.40829,3.27606 8.47323,7.04338c0.97982,4.71353 -2.15961,5.60097 -5.43989,6.8537c-2.6524,1.07524 -5.04218,1.83214 -5.04218,1.83214z" fill="#ffffff" stroke="none" stroke-linecap="butt" stroke-linejoin="miter"/></g><path d="M346.08479,179.2348c2.99404,-0.56296 6.12213,-0.86673 9.77929,-0.6557c6.1364,0.17715 12.03858,2.31515 12.03858,2.31515l14.82826,-7.04421c0.51838,-0.26809 -0.54852,20.5526 -0.54852,20.5526c-0.79719,-1.03318 14.05977,16.51313 4.99861,31.51514c-9.06116,15.002 -28.67356,21.92609 -53.27087,17.43342c-24.59731,-4.49268 -30.53131,-18.50666 -29.06714,-25.96575c1.46416,-7.45909 10.6912,-10.32592 10.6912,-10.32592c0,0 0.05023,-5.87365 4.12768,-13.10744c2.42037,-4.33992 10.68764,-10.58689 10.68764,-10.58689l3.20179,-14.00834c0.12336,-0.52373 0.774,-0.66313 1.16903,-0.40751z" fill="#ffab19" fill-rule="evenodd" stroke="#001026" stroke-linecap="butt" stroke-linejoin="miter"/><path d="M337.55034,213.67564c10.9715,0.6331 25.81506,-11.44621 34.74844,2.39627c8.93161,13.71199 -5.81744,32.70704 -37.48416,26.61436c-24.33455,-4.36576 -30.78158,-17.72017 -29.31741,-25.17926c1.46416,-7.45909 10.43558,-9.93089 10.43558,-9.93089c11.0574,-2.63083 12.21365,5.57551 21.61755,6.09953z" fill="#ffffff" fill-rule="evenodd" stroke="none" stroke-linecap="butt" stroke-linejoin="miter"/><path d="M307.54041,214.21633c0,0 -9.39675,-0.00207 -15.59736,-4.87671" fill="none" fill-rule="evenodd" stroke="#001026" stroke-linecap="round" stroke-linejoin="round"/><path d="M307.12368,221.92213c0,0 -5.05505,2.54878 -13.28457,2.00872" fill="none" fill-rule="evenodd" stroke="#001026" stroke-linecap="round" stroke-linejoin="round"/><path d="M344.05145,211.89015c0.02854,2.08777 -5.40727,5.42483 -7.75959,5.19596c-2.08956,-0.10196 -4.09679,-3.7288 -3.99127,-5.55739c0.118,-0.91518 2.98513,-1.21539 5.72532,-1.25285c2.60972,-0.03567 6.13462,0.04667 6.02553,1.61427z" fill="#001026" fill-rule="evenodd" stroke="#001026" stroke-linecap="round" stroke-linejoin="round"/><path d="M381.03422,215.43047c4.51171,-4.10749 15.68354,-7.91447 15.68354,-7.91447" fill="none" fill-rule="evenodd" stroke="#001026" stroke-linecap="round" stroke-linejoin="round"/><path d="M395.9827,220.57707c0,0 -9.63633,1.56732 -15.27754,-0.57424" fill="none" fill-rule="evenodd" stroke="#001026" stroke-linecap="round" stroke-linejoin="round"/><g fill-rule="evenodd"><path d="M335.90484,188.77069c3.68571,2.29881 3.64618,8.95537 -0.05765,14.87894c-3.83432,5.92536 -9.79921,8.7476 -13.48491,6.4488c-3.68571,-2.29881 -3.64618,-8.95537 0.05765,-14.87894c3.70383,-5.92359 9.79742,-8.8781 13.48491,-6.4488z" fill="#ffffff" stroke="#001026" stroke-linecap="round" stroke-linejoin="round"/><path d="M321.23155,202.66343c-0.01961,-1.43533 1.00821,-2.62397 2.31308,-2.64181c1.30486,-0.01784 2.36481,1.14226 2.38442,2.57761c0.01961,1.43533 -1.00821,2.62397 -2.31308,2.64181c-1.30486,0.01784 -2.36481,-1.14226 -2.38442,-2.57761" fill="#001026" stroke="none" stroke-linecap="butt" stroke-linejoin="miter"/></g><g fill-rule="evenodd"><path d="M368.84254,192.36632c4.0843,2.81539 3.92499,10.25664 -0.0416,16.05331c-3.8361,5.79488 -9.5525,7.70015 -13.89242,5.27978c-3.557,-2.43107 -3.91429,-9.47373 -0.07818,-15.26861c3.8361,-5.79488 9.92613,-9.01036 14.0122,-6.06447z" fill="#ffffff" stroke="#001026" stroke-linecap="round" stroke-linejoin="round"/><path d="M353.8976,205.99718c-0.01961,-1.43533 1.01,-2.49349 2.31308,-2.64181c1.30486,-0.01784 2.36481,1.14226 2.38442,2.57761c0.01961,1.43533 -1.00821,2.62397 -2.31308,2.64181c-1.30486,0.01784 -2.36481,-1.14226 -2.38442,-2.57761" fill="#001026" stroke="none" stroke-linecap="butt" stroke-linejoin="miter"/></g><g data-paper-data="{&quot;index&quot;:null}" fill-rule="nonzero" stroke="#001026" stroke-linecap="butt" stroke-linejoin="miter"><path d="M366.99425,189.85006c-1.88204,-5.6698 4.91504,-3.95877 21.09187,-4.58632c16.17683,-0.62756 30.81645,3.45997 32.69849,9.12978c1.66034,5.00193 -7.16298,9.5643 -20.37183,11.00064c-1.76371,0.19179 -5.51118,0.40176 -5.51118,0.40176c0,0 -26.02534,-10.27603 -27.90738,-15.94584z" fill="#00b0f7"/><path d="M350.77581,186.48638l-18.48415,-23.11631c0,0 28.13003,2.25044 40.67443,5.03304c10.37209,2.30074 29.32179,10.49356 29.32179,10.49356l-15.31062,4.96405z" fill="#ff2b2b"/><path d="M364.00387,201.83546c0,0 2.11901,-8.37324 2.79132,-12.81923c0.71438,-4.72412 1.37639,-14.74177 1.37639,-14.74177l34.18439,5.16928c0,0 0.94958,8.75974 0.26581,13.28155c-0.70483,4.66097 -4.43352,14.27946 -4.43352,14.27946z" data-paper-data="{&quot;index&quot;:null}" fill="#cc0000"/><path d="M323.82996,190.30198c0,0 0.09387,-10.43709 1.37808,-14.97275c1.24588,-4.40023 6.21564,-11.84728 6.21564,-11.84728l40.72674,11.53122c0,0 -3.71871,9.3444 -5.02032,13.94151c-1.22498,4.32646 -2.57342,12.87854 -2.57342,12.87854z" fill="#f70000"/></g><path d="M368.65359,257.8232c-0.53727,-4.0084 -4.22996,-7.99133 -3.68176,-10.92287c0.66045,-3.53193 2.44639,-4.94144 4.27976,-5.18718c1.69814,-0.22761 4.23591,0.29301 5.73486,3.10405c1.46257,2.74277 5.23191,7.01295 5.81692,11.37749c0.66318,4.94782 -1.78734,9.70294 -2.73308,12.81774c-0.74353,2.44883 -3.05228,4.50707 -4.52901,4.705c-1.32495,0.17758 -3.33747,-1.02591 -4.59008,-2.78852c-1.9193,-2.70075 0.41917,-7.75808 -0.2976,-13.10573z" data-paper-data="{&quot;index&quot;:null}" fill="#ffab19" fill-rule="nonzero" stroke="#001026" stroke-linecap="butt" stroke-linejoin="miter"/><path d="M353.5311,223.28543c0.24636,4.903 -0.72363,11.29276 -9.83403,12.19311c-10.50594,0.48504 -14.22364,-7.0561 -15.09403,-9.76578c-0.19453,-0.50216 0.21093,-0.99774 0.7098,-0.89228c1.49663,0.31639 4.08134,-0.87179 9.4843,-1.11268c6.00401,-0.33431 12.03301,-0.35192 13.94056,-1.03108c0.40106,-0.09561 0.79775,0.20875 0.79338,0.60872z" data-paper-data="{&quot;index&quot;:null}" fill="#ffffff" fill-rule="evenodd" stroke="#001026" stroke-linecap="round" stroke-linejoin="round"/></g></g></svg>