<svg viewBox="0,0,74.20164,76.94477" height="76.94477" width="74.20164" xmlns:xlink="http://www.w3.org/1999/xlink" xmlns="http://www.w3.org/2000/svg" version="1.1"><g transform="translate(-205.10908,-144.69377)"><g style="mix-blend-mode: normal" stroke-dashoffset="0" stroke-dasharray="" stroke-miterlimit="10" stroke-linejoin="miter" stroke-linecap="butt" stroke-width="2" stroke="#000000" fill-rule="nonzero" fill="#ff2e2e" data-paper-data="{&quot;isPaintingLayer&quot;:true}"><path d="M245.22577,153.95289c0,4.56139 -1.58474,5.8418 -3.53962,5.8418c-1.95488,0 -3.53963,-1.28043 -3.53963,-5.8418c0,-4.56139 1.58474,-8.25912 3.53963,-8.25912c1.95488,0 3.53962,3.69773 3.53962,8.25912z"></path><path d="M262.89336,163.60525c-3.08533,3.35961 -5.11864,3.23076 -6.55847,1.90848c-1.43983,-1.32228 -1.74096,-3.33729 1.34437,-6.6969c3.08533,-3.35961 6.7537,-5.01118 8.19353,-3.6889c1.43983,1.32228 0.10589,5.11771 -2.97943,8.47731z"></path><path d="M269.35099,197.7823c-4.39679,-1.2143 -5.20912,-3.08274 -4.68871,-4.96706c0.52042,-1.88434 2.17652,-3.07102 6.5733,-1.85671c4.39679,1.2143 7.5392,3.72626 7.01878,5.61059c-0.52042,1.88434 -4.50659,2.4275 -8.90337,1.21319z"></path><path d="M255.2539,214.15598c-2.27533,-3.95336 -1.54055,-5.85363 0.15375,-6.82877c1.69429,-0.97514 3.7065,-0.6559 5.98184,3.29745c2.27534,3.95336 2.74636,7.94872 1.05207,8.92386c-1.69429,0.97514 -4.91233,-1.43918 -7.18765,-5.39254z"></path><path d="M228.27495,211.74342c1.0528,-4.43823 2.89029,-5.31831 4.79238,-4.86711c1.90209,0.4512 3.14852,2.06283 2.09571,6.50104c-1.0528,4.43823 -3.44822,7.67035 -5.35031,7.21914c-1.90209,-0.4512 -2.59058,-4.41487 -1.53778,-8.85308z"></path><path d="M210.26417,197.68536c3.53188,-2.88653 5.52617,-2.46974 6.76325,-0.95608c1.23708,1.51365 1.24851,3.55099 -2.28337,6.43753c-3.53188,2.88653 -7.39789,3.99946 -8.63497,2.48581c-1.23708,-1.51365 0.62321,-5.08072 4.15508,-7.96725z"></path><path d="M219.43012,168.77102c3.67099,1.47143 4.19025,3.15988 3.55964,4.73315c-0.63062,1.57328 -2.1723,2.43562 -5.84329,0.96419c-3.67099,-1.47143 -6.13569,-3.93966 -5.50507,-5.51294c0.63062,-1.57328 4.11775,-1.65583 7.78873,-0.1844z"></path></g></g></svg>