<svg version="1.1" xmlns="http://www.w3.org/2000/svg" xmlns:xlink="http://www.w3.org/1999/xlink" width="697" height="418" viewBox="0,0,697,418"><g transform="translate(108.5,29)"><g data-paper-data="{&quot;isPaintingLayer&quot;:true}" fill-rule="nonzero" stroke-linecap="butt" stroke-linejoin="miter" stroke-miterlimit="10" stroke-dasharray="" stroke-dashoffset="0" style="mix-blend-mode: normal"><path d="M-107.5,388v-416h695v416z" fill="#716d79" stroke="#000000" stroke-width="2"/><path d="M28.24784,113.65667c2.03254,0.2347 4.0646,0.47309 6.09056,0.75796c1.35269,0.1902 2.69732,0.89157 4.04403,0.66285c0.888,-0.15081 1.37459,-1.16606 2.09581,-1.70562c1.33453,-0.9984 2.71244,-1.93746 4.06867,-2.90619c0,0 2.03433,-1.4531 3.48743,0.58124c1.4531,2.03433 -0.58124,3.48743 -0.58124,3.48743c-0.19122,0.13659 -7.27916,5.27648 -7.83553,5.38819c-1.93079,0.38768 -3.92444,-0.33716 -5.88282,-0.54447c-3.31481,-0.35089 -6.6179,-0.80488 -9.92685,-1.20732c-13.2358,-1.60976 -26.4716,-3.21952 -39.70741,-4.82928c-4.9632,-0.60363 -9.92985,-1.185 -14.89028,-1.81098c-1.65962,-0.20944 -3.38794,-0.125 -4.97599,-0.65065c-1.73194,-0.57327 -3.21358,-1.72797 -4.82037,-2.59196c-7.22372,-3.96139 -15.04188,-7.4931 -21.92031,-12.02082c-1.96046,-1.29047 -5.27966,-1.88355 -5.65057,-4.20112c-0.37091,-2.31757 2.59741,-3.91692 4.05721,-5.75477c2.07322,-2.61014 4.55303,-4.86974 6.82955,-7.3046c5.69129,-6.08717 11.38259,-12.17434 17.07388,-18.26151c0.58011,-0.62046 6.98822,-7.51954 7.39904,-7.75842c1.64868,-0.95865 3.68889,-0.97036 5.53942,-1.43157c6.46757,-1.61192 12.97001,-3.09659 19.45325,-4.64447c12.96751,-3.09599 25.92481,-6.70884 38.99938,-9.30925c8.18273,-1.62747 16.54155,-2.64237 24.78103,-3.95764c4.93749,-0.78817 9.87498,-1.57635 14.81246,-2.36452c0.13434,-0.02145 8.37569,-1.4639 9.05909,-1.13124c1.86279,0.90674 2.92097,2.93988 4.33119,4.45758c2.26897,2.4419 4.40076,5.00777 6.60115,7.51165c5.42481,6.17306 11.65087,12.15204 16.50287,18.77912c1.17978,1.61141 3.72819,3.16558 3.17104,5.08342c-0.65536,2.25592 -3.79848,2.77506 -5.80764,3.99241c-4.2131,2.5527 -9.00873,4.50437 -13.41641,6.7082c-16.39062,8.19531 -32.65454,16.41576 -48.62422,25.40682c-4.43171,2.4753 -7.54611,5.44745 -11.28825,8.85968l-2.63256,2.40048c0,0 -0.16312,0.14874 -0.43662,0.30935z" fill="#eee6ff" stroke="none" stroke-width="0.5"/><path d="M305.98107,149.13534c4.20264,-0.70044 8.40529,-1.40088 12.60793,-2.10132c0,0 2.46598,-0.411 2.87698,2.05499c0.411,2.46598 -2.05499,2.87698 -2.05499,2.87698c-8.21995,1.36999 -16.4399,2.73998 -24.65985,4.10997c-0.60814,0.10136 -10.03816,1.6888 -10.36984,1.6762c-4.73179,-0.17976 -10.45432,-2.51751 -15.06817,-3.65194c-12.94771,-3.1835 -25.89541,-6.367 -38.84312,-9.5505c-9.71078,-2.38762 -19.42156,-4.77525 -29.13234,-7.16287l-4.80501,-1.18142c-1.11786,-0.24928 -1.95348,-1.2471 -1.95348,-2.44008c0,-1.1112 0.72497,-2.05308 1.72774,-2.37844l4.66362,-1.63495c5.68699,-2.9634 12.81357,-4.49211 18.87378,-6.61667c9.43689,-3.30834 18.87378,-6.61667 28.31067,-9.92501c4.71845,-1.65417 9.43689,-3.30834 14.15534,-4.9625c0.52721,-0.18483 9.13361,-3.2433 9.62645,-3.24697c1.92276,-0.01433 3.71566,0.99185 5.56601,1.51475c4.81018,1.35936 9.59338,2.82752 14.38807,4.24069c23.98011,7.06782 47.96023,14.13565 71.94034,21.20347l3.82199,1.12648c1.06393,0.28721 1.84679,1.25908 1.84679,2.4138c0,1.24305 -0.90723,2.27422 -2.09567,2.46747l-4.87646,0.88663c-3.14995,1.09039 -6.55913,1.19257 -9.8387,1.78885c-4.91935,0.89443 -9.8387,1.78885 -14.75805,2.68328c-10.65002,1.93637 -21.30003,3.87273 -31.95005,5.8091z" fill="#eee6ff" stroke="none" stroke-width="0.5"/><path d="M339.05848,58.01286c-0.64502,0.83411 -1.75766,0.96898 -1.75766,0.96898c-6.61823,0.80221 -13.23645,1.60442 -19.85468,2.40663c-4.31521,0.52306 -9.08503,1.70041 -13.43842,1.61153c-6.65392,-0.13585 -13.54736,-1.53981 -20.16238,-2.30015c-11.59035,-1.33222 -23.18071,-2.66445 -34.77106,-3.99667c-9.93459,-1.14191 -19.86918,-2.28381 -29.80377,-3.42572l-2.52519,-0.29025c-1.26109,-0.12759 -2.24533,-1.19245 -2.24533,-2.48719c0,-0.88784 0.46281,-1.66758 1.16034,-2.11114l4.14524,-2.72401l0.2481,0.37754c6.4143,-5.28222 13.62651,-9.49513 20.64454,-14.10698c0.69871,-0.45915 8.55799,-5.65953 9.00454,-5.79494c1.82096,-0.55217 3.80412,-0.11242 5.70668,-0.14477c4.99824,-0.08498 10.00073,-0.07454 14.99958,-0.1118c13.33296,-0.09938 26.66593,-0.19876 39.99889,-0.29814c19.99944,-0.14907 39.99889,-0.29814 59.99833,-0.44721c4.99165,-0.03721 10.00898,-0.21043 14.99958,-0.1118c1.56667,0.03096 3.33577,-0.55019 4.69536,0.22887c1.77104,1.01483 2.64237,3.11263 3.9176,4.70646c4.69642,5.86974 8.94073,11.65033 12.47901,18.28565c-10.00358,3.95997 -20.61779,5.7016 -31.11606,8.00234c-4.78748,1.0492 -10.12631,2.90982 -15.00724,3.26256c-0.23513,0.01699 -9.88592,-0.68181 -10.33317,-0.71382c-3.66094,-0.26204 -7.3219,-0.52389 -10.98284,-0.78593z" fill="#eee6ff" stroke="none" stroke-width="0.5"/><path d="M187.03451,207.77592c-1.06635,0.48471 -2.36688,1.07585 -3.73699,1.69863c0.06185,0.15926 0.11356,0.3354 0.15293,0.53015c0.4953,2.45044 -1.95514,2.94575 -1.95514,2.94575c-29.40533,5.94363 -58.81065,11.88726 -88.21598,17.83089c-8.34656,1.66423 -16.92862,0.91209 -25.42275,0.81764c-11.66595,-0.12971 -23.33189,-0.25942 -34.99784,-0.38914c-4.94917,-0.05503 -10.06626,0.22312 -14.99907,-0.16677c-1.89132,-0.14949 -4.41431,0.66532 -5.63723,-0.78516c-1.46029,-1.73202 -0.5835,-4.4967 -0.72243,-6.75791c-0.4059,-6.60626 0,-13.37962 0,-20c0.21489,-1.55855 -0.5658,-3.67065 0.64468,-4.67564c1.72002,-1.42803 4.36759,-0.96981 6.57571,-1.31901c4.90461,-0.77565 9.98176,-1.01855 14.92251,-1.52271c26.52891,-2.70703 53.05782,-5.41406 79.58673,-8.1211c34.14273,-3.48395 68.22949,-6.27846 102.46803,-8.63974c1.77434,0.26873 4.54663,-0.81174 5.32303,0.80619c0.80237,1.67203 -2.54802,9.66182 -3.41341,11.68524c-0.80238,1.87609 -0.99165,4.22359 -2.51534,5.58075c-1.52369,1.35716 -3.87736,1.27467 -5.83341,1.85553c-3.19542,0.94889 -6.43391,1.7462 -9.65087,2.6193c-3.73418,1.01348 -7.46882,2.01905 -11.2058,3.0136c0.69683,2.05524 -1.36735,2.9935 -1.36735,2.9935z" fill="#eee6ff" stroke="none" stroke-width="0.5"/><path d="M409.29043,280.56861c-0.36175,0.67408 -0.96544,1.05138 -0.96544,1.05138c-0.33289,0.20805 -8.17998,5.14094 -8.54679,5.2558c-0.39766,0.12451 -9.82518,0.80631 -10.56443,0.86147c-4.98613,0.3721 -9.97227,0.7442 -14.9584,1.1163c-18.37032,1.37092 -36.63967,2.96984 -55.06488,3.04445c-13.33675,0.05401 -26.67299,0.10129 -40.00986,0.10159c-3.33333,0.00008 -6.66694,0.043 -10,0.00023c-1.94119,-0.02491 -3.98906,0.49956 -5.82238,-0.139c-1.83332,-0.63856 -3.11223,-2.32179 -4.64884,-3.50823c-3.95611,-3.05457 -7.83742,-6.21382 -11.75398,-9.31901l-3.89922,-3.09145c-0.58762,-0.45744 -0.9656,-1.17152 -0.9656,-1.97388c0,-1.23378 0.89373,-2.25881 2.06911,-2.463l4.86416,-0.94231l0.07175,0.37039c9.53602,-2.87609 19.60668,-4.1826 29.38067,-6.07606c21.2712,-4.12077 42.54239,-8.24153 63.81359,-12.3623c22.90744,-4.43775 45.81488,-8.87549 68.72232,-13.31324c6.50094,-1.2594 13.07143,-2.93936 19.63495,-3.80378c2.24162,-0.29523 4.86838,-1.82764 6.75762,-0.58553c1.05897,0.69623 2.84157,9.62469 3.21391,11.31969c0.71518,3.25571 1.5375,6.48971 2.14554,9.76712c0.26566,1.43193 1.17117,2.9685 0.63521,4.32266c-0.35241,0.89041 -6.67759,7.12207 -7.70275,8.13695c-3.93666,3.89718 -7.91875,5.19154 -12.99161,7.28036c-4.47454,1.84246 -8.86017,3.5225 -13.41466,4.94942z" fill="#eee6ff" stroke="none" stroke-width="0.5"/></g></g></svg>