<svg version="1.1" xmlns="http://www.w3.org/2000/svg" xmlns:xlink="http://www.w3.org/1999/xlink" width="171.34754" height="193.87566" viewBox="0,0,171.34754,193.87566"><g transform="translate(-276.57933,-179.49932)"><g data-paper-data="{&quot;isPaintingLayer&quot;:true}" fill="#000000" fill-rule="nonzero" stroke="none" stroke-width="0.5" stroke-linecap="butt" stroke-linejoin="miter" stroke-miterlimit="10" stroke-dasharray="" stroke-dashoffset="0" style="mix-blend-mode: normal"><path d="M382.74172,365.56361c0.09628,0.19256 0.15703,0.37328 0.18953,0.54216c0.28768,0.43649 0.65378,1.31349 -0.22322,2.19049c-0.81597,0.81597 -1.63193,0.55584 -2.09311,0.28398c-2.70814,1.32999 -5.51206,2.56398 -8.44814,3.29271c-7.34924,1.82408 -15.41022,0.23017 -22.87669,0.92065c-5.66101,0.52352 -11.2111,0.85338 -16.92525,0.27973c-9.12275,-2.11566 -12.05821,-8.30062 -13.06137,-16.96743c-0.91238,-7.88259 -0.83241,-16.30759 -0.46343,-24.25072c0.19242,-4.14235 1.24532,-7.66742 0.8866,-11.83419c0,0 -0.05076,-0.60911 0.2677,-1.13738c-1.09844,-0.63295 -2.14871,-1.2722 -3.11539,-1.8306c-3.37841,-3.35309 -7.60605,-6.98424 -10.35559,-11.18019c-0.74659,0.13256 -1.39688,-0.35516 -1.39688,-0.35516c-8.62656,-6.47668 -16.74893,-14.26449 -21.60915,-23.99656c-2.30569,-4.61689 -3.70687,-9.88599 -5.18571,-14.81643c-1.77975,-5.34611 -1.5522,-10.20499 -1.5522,-15.7929c0,-4.28496 -0.45708,-8.90228 0.01045,-13.16154c0.93227,-8.49308 4.9663,-16.93845 9.44688,-24.08045c5.51277,-6.41735 9.2637,-14.13396 15.86739,-19.71094c6.506,-5.49448 17.13822,-8.33794 25.54292,-8.35589c1.37255,0 2.7451,0 4.11765,0h0.88235c0,0 0.44495,0 0.88613,0.22436c0.61664,-1.28518 1.18716,-2.60646 1.71002,-3.97083c0.92462,-0.78478 1.56375,-2.43473 2.77384,-2.35433c1.2638,0.08397 1.9328,1.67691 2.65815,2.71523c0.47971,0.68669 0.49161,1.61201 0.88235,2.35294c1.11249,2.10957 2.76216,4.02499 4.22686,5.88879c0.05858,0.07454 0.11726,0.14905 0.17606,0.22354c0.28695,-0.0797 0.51012,-0.0797 0.51012,-0.0797c13.0068,0.00463 23.98177,5.08775 35.13821,11.25005c5.24225,2.89558 10.71084,4.57073 15.33028,8.51678c8.42358,5.59744 18.24361,10.57783 24.1954,18.91359c1.38199,1.93555 2.42205,2.99718 3.06505,4.77964c5.52587,-1.62174 11.13473,-3.77492 16.74977,-4.5477c0.88466,-0.12175 5.6849,0.01481 6.10017,0.43122c1.10348,1.1065 1.04569,5.38179 0.4871,6.875c-0.24238,0.64792 -3.42049,5.70031 -3.86998,6.33455c-2.06309,2.91106 -4.56999,5.52297 -6.91495,8.20261c-1.52567,1.54631 -3.70773,4.51113 -5.9504,5.09614c-3.31335,0.8643 -5.79124,-0.91121 -8.47787,-2.36364c-0.26063,6.04232 -3.73172,11.71257 -6.76977,16.84047c-5.3839,9.08745 -12.04068,15.91404 -19.85002,22.93237c-2.09384,2.39859 -4.66964,3.75339 -6.81909,5.90283c-2.45662,2.45662 -3.58467,6.15436 -6.22341,8.57463c-3.97667,3.64742 -9.23109,5.11491 -13.9685,7.35664c-3.23396,1.5303 -7.06187,2.91089 -10.81449,3.45324c-1.04455,0.5263 -2.10194,1.00229 -3.17494,1.39534c-0.17969,0.06583 -0.36061,0.12753 -0.54263,0.18541l-0.27131,0.47479c-0.29709,0.543 -0.87368,0.91125 -1.53628,0.91125c-0.57835,0 -1.09118,-0.28056 -1.40981,-0.71301c-2.22891,0.27563 -4.5216,0.25873 -6.70143,0.41449c-0.593,0.04237 -1.19339,0.08665 -1.79948,0.13095c-0.03693,2.06008 -0.20987,4.05627 0.53428,6.19686c2.1197,6.09743 7.34605,10.25131 12.00454,14.36359c6.73161,5.94232 13.29136,12.14694 20.11602,17.96217c1.84782,1.57586 3.41811,3.22284 5.55476,4.20959c0.47742,-0.14662 1.50341,-0.29215 2.08989,0.88081zM322.33644,332.01377c-0.34454,7.76402 -0.44553,15.98509 0.44388,23.69022c0.8064,6.98601 2.6231,12.23626 10.14897,13.91515c5.40631,0.53821 10.66611,0.17421 16.01592,-0.30851c7.27948,-0.65683 15.27,0.95772 22.41743,-0.84406c1.89721,-0.47826 3.73292,-1.18691 5.52095,-1.99185c-1.3909,-0.9823 -2.65562,-2.14286 -4.05759,-3.33839c-6.83577,-5.83398 -13.41323,-12.04459 -20.15998,-18.0003c-5.12656,-4.52549 -10.70934,-9.12871 -12.99934,-15.85061c-0.87158,-2.55836 -0.61251,-4.7645 -0.62999,-7.10092c-2.77213,0.16959 -5.59635,0.27091 -8.32411,0.13773c-0.74847,0.72608 -1.4715,1.56181 -2.44762,1.56038c-2.20761,-0.00324 -2.91728,-1.1381 -3.14283,-2.49482c-0.61849,-0.2231 -1.23831,-0.48477 -1.85415,-0.77193c0.15916,3.96306 -0.75415,7.40099 -0.93152,11.39791zM340.34075,317.67935c0.9653,-0.1379 1.46957,0.3389 1.72689,0.7882c0.6482,-0.04665 1.29082,-0.09377 1.92595,-0.13912c0.99153,-0.0708 2.0231,-0.09394 3.06505,-0.12912c-0.04282,-1.31595 1.34046,-1.66177 1.34046,-1.66177l0.54527,-0.11797c-0.43876,-1.32746 -1.02896,-2.81816 -1.5681,-2.92453c-1.61,-0.31764 -3.11191,1.0466 -4.68946,1.49863c-2.72127,1.06987 -4.97822,2.35908 -7.20258,3.84187c1.16667,-0.03316 2.33534,-0.09061 3.49586,-0.16029c0.17133,-0.43732 0.54835,-0.87985 1.36067,-0.9959zM417.12718,229.57643c-3.09556,-4.14278 -7.93476,-6.81902 -12.20436,-9.58353c-3.40092,-2.20205 -6.72584,-4.57922 -10.0972,-6.83326c-4.46288,-3.83897 -9.81758,-5.43483 -14.90809,-8.24239c-9.95602,-5.49103 -19.73056,-10.18798 -31.11697,-10.75661c8.05713,9.54677 17.79734,18.52146 27.78174,25.64962c2.66177,2.49993 2.423,-3.81373 4.90208,-4.4048c1.15888,-0.27631 2.04417,1.23401 2.98834,1.96055c2.10399,1.61901 4.77627,3.89851 6.63675,5.76644c0.90801,0.91165 2.21321,1.74858 2.40255,3.02128c0.20222,1.35933 -3.37552,4.86059 -4.20779,5.90018c-1.00125,1.25068 -3.50002,4.89712 -5.14977,5.32679c-1.02267,0.26635 -3.76329,-1.40203 -4.87137,-1.88671c-3.76173,-1.64539 -7.47696,-3.27701 -11.13155,-5.16549c-0.34707,-0.17939 -0.69442,-0.35832 -1.04204,-0.53686c0.16916,0.75105 -0.59015,1.75992 -0.74343,2.60051l-1.58714,0.18576c-0.03488,0.01342 -0.07084,0.02633 -0.10789,0.03868c-0.36672,0.12224 -0.67944,0.13647 -0.94412,0.08445l-0.98014,0.11472c0,0 -1.56525,-0.78262 -0.78262,-2.34787c0.02921,-0.05842 0.05951,-0.11357 0.09078,-0.16561l-0.17281,-0.51843c-0.06649,-0.18494 -0.10272,-0.38431 -0.10272,-0.59215c0,-0.70556 0.41755,-1.3136 1.01903,-1.59049c-10.39802,-5.23529 -20.93724,-10.26147 -30.96863,-16.1575c-5.23268,-3.07555 -9.83029,-6.85909 -14.85936,-10.20768c0,0 -1.45609,-0.97072 -0.48536,-2.42681c0.97073,-1.45609 2.42681,-0.48537 2.42681,-0.48537c1.16134,0.77512 2.29948,1.57347 3.42787,2.38067c0.01275,-0.00257 0.01959,-0.00371 0.01959,-0.00371c0.49524,-0.06135 0.98705,-0.21967 1.44219,-0.44962c0.05466,-0.83157 0.81596,-1.33911 0.81596,-1.33911l0.50869,-0.25247c2.5466,-3.05568 4.78865,-6.19343 6.69456,-9.55664c-1.33768,0 -3.05091,0 -4.1737,0c-7.54717,-0.01798 -17.44616,2.5787 -23.28061,7.52646c-6.36844,5.40059 -9.99228,12.89626 -15.30908,19.11258c-4.14042,6.6522 -7.90067,14.50715 -8.78841,22.39014c-0.46423,4.1223 0.01045,8.63053 0.01045,12.77963c0,5.23058 -0.27404,9.75405 1.38898,14.73652c1.42858,4.76102 2.76063,9.876 4.99174,14.33242c4.06485,8.11914 10.56401,14.8083 17.64691,20.47789c-0.08004,-0.764 -0.10566,-1.54126 -0.16872,-2.29905c-0.34771,-4.17825 -1.07968,-7.99199 0.06137,-12.09569l0.64607,-1.63976c0,0 0.33484,-0.8371 1.12469,-1.06928c0.4875,-1.60285 1.02907,-3.20727 1.45011,-4.88432c1.89663,-7.55455 3.98384,-15.23242 7.65854,-22.15302c3.65364,-6.88095 8.85658,-12.65908 14.32905,-18.12392c2.28754,-1.90754 4.23253,-3.79371 6.80856,-5.24183c3.4735,-1.95263 8.31727,-4.13877 12.52571,-2.78791c3.57915,1.14887 4.66965,5.58645 6.3121,8.46374c3.64137,6.37905 7.77717,13.26847 14.50533,16.62361c0.00617,0.00264 0.01233,0.00528 0.01849,0.00792c0.78629,-0.4929 1.6104,-1.00066 2.32283,-0.60149c0.69144,0.38741 0.95784,1.19156 1.10602,2.04916c3.06965,1.26164 6.09441,2.36859 9.4477,3.13327c1.047,0.23876 2.1789,0.46291 3.35349,0.69605c0.13311,-0.07656 0.26663,-0.15228 0.40057,-0.22711l1.17883,-0.42454c0,0 1.66019,-0.5534 2.21359,1.1068c0.04171,0.12513 0.07084,0.24397 0.08906,0.35677c3.27091,0.75122 6.52277,1.75003 8.93773,3.4534c2.88763,2.03677 5.56938,6.73946 2.51845,9.82999c-1.92665,1.95165 -7.6413,2.28229 -10.2004,3.24311c-2.6049,1.11496 -5.767,1.74259 -8.04397,3.52942c-1.50435,1.18052 -2.04308,3.85304 -2.76432,5.53596c-1.45653,3.39866 -1.98448,6.06182 -2.21741,9.7491c-0.16459,2.60552 0.84103,6.76689 -0.09269,9.25845c-0.37874,1.01063 -1.04457,1.93097 -1.88724,2.76824c1.55527,-0.80342 3.03085,-1.74075 4.3395,-2.93948c2.59551,-2.3775 3.68929,-6.04394 6.12954,-8.48419c2.18816,-2.18816 4.68169,-3.46443 6.80138,-5.885c7.593,-6.84268 14.09065,-13.41392 19.33141,-22.25936c2.72977,-4.60734 6.36209,-10.13956 6.29582,-15.6182c0,0 0,-0.52584 0.28825,-1.00104c-5.53514,-2.54181 -11.24511,-4.50627 -16.74624,-7.04652c0.80877,0.86025 1.27376,2.3852 1.6329,3.15642l-1.57182,2.59772c0,0 -1.45609,0.97073 -2.42681,-0.48536c-0.00582,-0.00873 -0.01155,-0.01744 -0.01719,-0.02613c-0.45347,-0.29674 -0.6802,-0.75021 -0.6802,-0.75021c-0.26858,-1.15579 -1.58708,-2.57433 -0.80574,-3.46736c1.02955,-1.17673 1.86028,-1.63519 2.53877,-1.65317c-1.15128,-0.55636 -2.29191,-1.14241 -3.41831,-1.76893c-0.39982,0.25568 -0.97322,0.39531 -1.70511,-0.0039c-1.53632,-0.83799 -0.69833,-2.37431 -0.69833,-2.37431c0.05795,-0.10596 0.11617,-0.21155 0.17466,-0.3168c0.09992,-0.29454 0.23495,-0.51865 0.38929,-0.68811c1.67377,-2.90675 3.57282,-5.55002 5.80103,-8.09684c0.74063,-0.84653 1.2812,-1.9743 2.28388,-2.484c2.70183,-1.37344 9.4822,1.18637 9.62308,4.84696c0.04449,1.15589 -0.35779,2.17448 -0.94343,3.10101c1.18392,-0.24149 2.27005,-0.44722 2.33515,-0.46271c2.00447,-0.47699 3.9683,-1.11221 5.96145,-1.63431c-0.75127,-1.97323 -2.45679,-3.69638 -3.72632,-5.3954zM364.53789,311.27673c0.03886,-0.44617 0.15299,-0.89213 0.11657,-1.3385c-0.01999,-0.24493 -0.00618,0.53238 -0.16719,0.71803c-0.47893,0.55225 -1.08823,0.98021 -1.67896,1.41077c-0.85996,0.6268 -1.82492,1.10427 -2.66603,1.75615c-0.13387,0.10375 -0.26658,0.20909 -0.39821,0.31592c1.62525,-0.95648 3.22502,-1.95245 4.8091,-2.84222zM326.06978,304.0674c-0.04716,-0.55295 -1.12747,-0.05519 -1.66228,0.09298c-1.03546,0.28689 -2.09933,0.49233 -3.09969,0.88444c-2.66589,1.04496 -5.209,2.5568 -7.81514,3.80489c1.8409,1.90918 3.80424,3.69973 5.51075,5.42181c1.7375,0.97863 3.86915,2.37494 6.00601,3.3302c0.07702,-4.49026 1.43951,-9.08874 1.06035,-13.53432zM338.22059,235.95638c0,5.30032 -1.22297,10.1663 -1.47264,15.3789c-0.02031,0.42387 0.01867,0.98875 0.04105,1.56006c0.29008,-0.40487 0.59821,-0.79795 0.90571,-1.18767c0.75294,-0.95426 1.59859,-1.83226 2.43014,-2.71885c1.65852,-1.76829 4.02649,-5.34458 6.20485,-6.51092c1.06444,-0.56992 2.3351,-1.52415 3.45765,-1.07947c2.44763,0.96959 1.95757,8.0078 1.9522,9.95524c0.62702,2.77771 1.39488,5.71468 2.5243,8.34479c0.32968,0.76774 0.83339,1.45699 1.12493,2.24002c0.11278,0.30291 -0.24525,0.89245 0.06921,0.96718c1.53022,0.36366 2.76388,-1.50229 4.15591,-2.23445c2.08364,-1.09593 4.19296,-2.33582 6.30511,-3.47766c-6.20781,-3.9663 -10.26984,-10.47718 -13.9147,-16.84951c-0.90474,-1.58177 -2.186,-6.37339 -4.27614,-6.83038c-3.48747,-0.76251 -6.65463,0.41933 -9.52413,2.24101c0.01655,0.12345 0.01655,0.20173 0.01655,0.20173zM371.73955,266.73557c-0.12049,0.95088 0.10547,2.55548 0.08652,3.71474c0.69166,-0.62399 1.68007,-1.11228 2.35109,-1.72101c2.42286,-1.70355 4.78163,-3.57378 7.2113,-5.31042c-2.30203,-0.54077 -4.56962,-1.15388 -6.72875,-2.00802c-0.50346,-0.19916 -1.0052,-0.41386 -1.50583,-0.63779c-0.33314,2.01333 -1.17645,4.08526 -1.41433,5.96249z"/></g></g></svg>