<svg version="1.1" xmlns="http://www.w3.org/2000/svg" xmlns:xlink="http://www.w3.org/1999/xlink" width="90.53234" height="127.18442" viewBox="0,0,90.53234,127.18442"><defs><radialGradient cx="259.78845" cy="161.14011" r="7.0775" gradientUnits="userSpaceOnUse" id="color-1"><stop offset="0" stop-color="#54606d"/><stop offset="1" stop-color="#2c3136"/></radialGradient></defs><g transform="translate(-180.34492,-111.22353)"><g data-paper-data="{&quot;isPaintingLayer&quot;:true}" stroke-miterlimit="10" stroke-dasharray="" stroke-dashoffset="0" style="mix-blend-mode: normal"><path d="M243.01529,180.14776c0.59225,0.25086 8.6275,5.71388 9.80962,3.19652c1.43948,-2.9587 2.9955,-8.28248 7.40627,-6.0413c4.41078,2.24117 0.21008,10.2617 -1.89146,12.76241c-5.16392,5.46435 -12.29276,1.18419 -13.93756,-0.08064c-1.6448,-1.26482 -4.48828,-3.37472 -5.3959,-6.0671c-0.8869,-2.93218 1.94652,-4.76781 4.00903,-3.76989z" fill="#ffab19" fill-rule="evenodd" stroke="#001026" stroke-width="1.2" stroke-linecap="round" stroke-linejoin="round"/><path d="M239.17881,198.3798c0.19779,0.78231 0.59076,2.23452 1.02234,4.1731c0.81958,3.6814 1.98546,14.99272 1.98546,14.99272c0,0 8.46389,10.78381 1.6878,13.32915c-7.67489,2.88299 -9.34655,-8.22479 -9.31892,-8.53331c-0.02413,-1.38215 -0.85293,-3.713 -1.18554,-5.77922c-0.77287,-5.20149 -0.57544,-6.76184 -1.36177,-9.3358c-0.78632,-2.57397 -2.8187,-8.5752 1.07627,-11.39844c3.30811,-2.46366 5.49312,0.38826 6.09434,2.5518z" data-paper-data="{&quot;index&quot;:null}" fill="#ffab19" fill-rule="evenodd" stroke="#001026" stroke-width="1.2" stroke-linecap="round" stroke-linejoin="round"/><g fill-rule="evenodd"><path d="M224.82595,197.41603c0.75009,0.43717 2.34403,1.42078 0.09376,5.13669c-2.25027,3.71591 -8.71977,4.48094 -9.46986,4.48094c-2.90659,0.10929 -6.4695,0.10929 -10.40747,-1.42078c-11.43883,-4.37166 -11.5326,-18.68885 -7.87593,-20.98398c3.56291,-2.29512 5.15685,6.55749 10.3137,11.91279c2.25027,2.40442 4.96934,3.27874 7.21959,3.8252c3.18787,0.65575 9.28233,-3.49733 10.12618,-2.95088z" fill="#ffab19" stroke="#001026" stroke-width="1.2" stroke-linecap="round" stroke-linejoin="round"/><path d="M201.57325,188.56342c1.50018,2.95088 4.40676,7.10395 4.40676,7.10395c0,0 -3.46915,-0.98363 -5.43814,0.87432c-1.59394,1.42078 -1.21889,3.8252 -1.03137,4.59026c-1.21889,-1.42078 -2.71907,-3.38805 -3.65668,-7.21325c-0.93761,-3.8252 0,-8.41545 1.87522,-9.0712c1.87522,-0.43717 2.34403,1.20221 3.8442,3.71591z" fill="#ffffff" stroke="none" stroke-width="1" stroke-linecap="butt" stroke-linejoin="miter"/></g><path d="M222.88317,204.98248c0.10396,-2.27098 1.5867,-5.68169 5.32693,-4.29194c4.38665,1.56146 3.74585,7.96997 3.55351,10.69304c-0.19234,2.72307 0.34253,4.17188 0.74257,9.43016c0.13416,2.09645 -0.15283,4.5973 0.12863,5.94025c0.09475,0.28989 0.92853,11.52531 -7.12421,11.03859c-7.10969,-0.42971 -1.30803,-13.38702 -1.30803,-13.38702c0,0 -1.36748,-11.2806 -1.38719,-15.08387c-0.01039,-2.00275 0.04917,-3.52392 0.06781,-4.3392z" data-paper-data="{&quot;index&quot;:null}" fill="#ffab19" fill-rule="evenodd" stroke="#001026" stroke-width="1.2" stroke-linecap="round" stroke-linejoin="round"/><g fill-rule="evenodd"><path d="M227.19458,204.77238c-10.23577,-5.12173 -5.38006,-11.40383 -4.63713,-17.36016c0.80408,-5.16391 2.03624,-4.78061 7.69001,-5.91607c3.14308,-0.82698 4.99395,-1.30743 6.88485,-2.27442c2.85321,-1.3995 3.94743,3.73116 4.00335,6.63438c0,0 0.0233,4.3235 -0.47307,6.77214c-0.6239,2.9745 -1.16773,4.97595 -1.91395,6.36553c0,0 -1.60325,2.98704 -3.62,3.99569c-1.81284,0.90665 -7.9341,1.78291 -7.9341,1.78291z" fill="#ffab19" stroke="#001026" stroke-width="1.2" stroke-linecap="round" stroke-linejoin="round"/><path d="M237.92757,199.24567c0,0 -1.71703,-0.6339 -3.62274,-1.53441c-2.35683,-1.04916 -4.61246,-1.79238 -3.90848,-5.73995c0.76515,-3.15512 1.17294,-7.08669 6.0879,-5.8988c4.67253,1.0626 3.85363,4.35898 3.85363,4.35898c-0.40671,5.45384 -2.41033,8.81418 -2.41033,8.81418z" fill="#ffffff" stroke="none" stroke-width="1" stroke-linecap="butt" stroke-linejoin="miter"/></g><path d="M224.88904,117.6871c0.15096,-0.35119 0.60443,-0.5237 0.87217,-0.19624l7.10111,8.80025c0,0 7.39799,1.04957 10.48169,3.17554c5.16663,3.52545 7.34462,7.75856 7.34462,7.75856c0,0 6.75627,-1.80206 10.3885,2.98503c3.63224,4.78709 5.08348,17.43155 -8.4917,31.02479c-13.57517,13.59322 -28.23943,16.82204 -39.32869,9.765c-11.08926,-7.05704 -8.31136,-26.01061 -8.4269,-24.92721c0,0 -8.27037,-14.63175 -7.85168,-14.65548l11.74841,-1.13085c0,0 2.86996,-4.02945 6.60154,-6.73713c2.1854,-1.6901 4.23164,-2.78494 6.28971,-3.63571z" fill="#ffab19" fill-rule="evenodd" stroke="#001026" stroke-width="1.2" stroke-linecap="butt" stroke-linejoin="miter"/><path d="M250.63087,137.76693c0,0 6.45373,-1.98074 10.08598,2.80634c3.63224,4.78709 4.52501,17.16951 -8.934,30.56034c-17.3639,17.72363 -33.43155,10.16531 -32.91791,-3.52044c0.46705,-13.78102 14.06534,-11.27143 20.62155,-16.34172c5.62626,-4.33237 3.34202,-10.76215 11.14439,-13.50453z" fill="#ffffff" fill-rule="evenodd" stroke="none" stroke-width="1" stroke-linecap="butt" stroke-linejoin="miter"/><path d="M266.11693,128.96039c-2.0543,6.137 -7.86692,10.08834 -7.86692,10.08834" fill="none" fill-rule="evenodd" stroke="#001026" stroke-width="1.2" stroke-linecap="round" stroke-linejoin="round"/><path d="M270.27726,140.32565c-4.89386,3.85036 -8.95284,4.12913 -8.95284,4.12913" fill="none" fill-rule="evenodd" stroke="#001026" stroke-width="1.2" stroke-linecap="round" stroke-linejoin="round"/><path d="M237.94959,149.00895c1.70893,-1.12468 3.59244,-2.11241 3.99995,-1.49916c0.73365,1.28008 0.81754,4.75068 -0.43792,5.70284c-1.37163,1.15454 -5.9543,1.02243 -6.69975,-0.50173c-0.64047,-1.08954 1.51015,-2.63084 3.1377,-3.70196z" fill="#001026" fill-rule="evenodd" stroke="#001026" stroke-width="1.2" stroke-linecap="round" stroke-linejoin="round"/><path d="M200.6306,171.6805c0,0 8.30306,-1.93861 12.59563,-0.86004" fill="none" fill-rule="evenodd" stroke="#001026" stroke-width="1.2" stroke-linecap="round" stroke-linejoin="round"/><path d="M215.10108,173.99386c-2.7072,3.92232 -9.24167,6.83767 -9.24167,6.83767" fill="none" fill-rule="evenodd" stroke="#001026" stroke-width="1.2" stroke-linecap="round" stroke-linejoin="round"/><g fill-rule="evenodd"><path d="M242.101,131.54396c4.45658,2.73351 6.91412,7.53817 5.47419,10.75243c-1.43994,3.21426 -6.16174,3.6774 -10.69971,0.99743c-4.45658,-2.73351 -6.91412,-7.53817 -5.47419,-10.75243c1.39334,-3.30951 6.24312,-3.73097 10.69971,-0.99743z" fill="#ffffff" stroke="#001026" stroke-width="1.2" stroke-linecap="round" stroke-linejoin="round"/><path d="M245.99731,137.49088c0.51251,1.04785 0.2808,2.33363 -0.53299,2.8692c-0.81378,0.53556 -1.88413,0.10668 -2.39663,-0.94118c-0.51251,-1.04785 -0.2808,-2.33363 0.53299,-2.8692c0.81378,-0.53556 1.88413,-0.10668 2.39663,0.94118" fill="#001026" stroke="none" stroke-width="1" stroke-linecap="butt" stroke-linejoin="miter"/></g><g fill-rule="evenodd"><path d="M223.2238,147.49324c4.49136,2.58471 6.84454,7.83581 5.53257,11.09177c-1.80024,3.57729 -6.03314,4.60016 -10.52451,2.01545c-4.57275,-2.53114 -7.39122,-7.85381 -5.8935,-11.60976c1.45112,-3.8512 6.39407,-4.08217 10.88544,-1.49745z" fill="#ffffff" stroke="#001026" stroke-width="1.2" stroke-linecap="round" stroke-linejoin="round"/><path d="M227.7563,154.48103c0.51251,1.04785 0.2808,2.33363 -0.53299,2.8692c-0.81378,0.53556 -1.88413,0.10668 -2.39663,-0.94118c-0.51251,-1.04785 -0.2808,-2.33363 0.53299,-2.8692c0.86037,-0.44031 1.88413,-0.10668 2.39663,0.94118" fill="#001026" stroke="none" stroke-width="1" stroke-linecap="butt" stroke-linejoin="miter"/></g><g fill-rule="nonzero" stroke="#001026" stroke-width="1.2" stroke-linecap="butt" stroke-linejoin="miter"><path d="M212.5621,146.39128c0.90807,4.89767 -11.43666,23.27997 -11.43666,23.27997c0,0 -2.39515,1.42312 -3.55639,2.02557c-8.69677,4.51188 -15.82301,4.91617 -16.62413,0.59544c-0.90807,-4.89767 6.65479,-14.01186 16.8921,-20.35707c10.23732,-6.34523 13.81699,-10.44157 14.72505,-5.54391z" fill="#00b0f7"/><path d="M198.01021,150.45291l-11.28649,2.84025c0,0 8.72877,-13.89929 14.30459,-19.92548c6.74361,-7.28831 23.32392,-20.74244 23.32392,-20.74244l-2.98596,24.51253z" fill="#ff2b2b"/><path d="M199.534,171.92831c0,0 -5.82251,-5.39926 -7.96224,-8.47889c-2.07582,-2.98766 -4.69019,-9.73142 -4.69019,-9.73142l19.25899,-18.11311c0,0 4.07117,6.97742 6.23989,10.09875c2.04102,2.93759 6.41252,8.11154 6.41252,8.11154z" data-paper-data="{&quot;index&quot;:null}" fill="#cc0000"/><path d="M218.45017,154.04595c0,0 -3.96016,-5.62738 -6.2994,-8.2461c-2.48558,-2.78253 -8.20172,-7.98745 -8.20172,-7.98745l20.98108,-25.47097c0,0 5.79661,3.30483 8.17574,5.96818c2.45236,2.74532 6.32537,10.26535 6.32537,10.26535z" fill="#f70000"/></g><path d="M221.84693,206.54906c-1.09555,1.28597 -2.67637,2.02012 -3.61023,1.71014c-1.04085,-0.34551 -2.4755,-2.31609 -2.74077,-4.41153c-0.33743,-2.66534 1.19902,-6.2174 2.2213,-10.18195c0.90179,-3.49722 1.30861,-7.16335 2.66322,-9.2249c1.38832,-2.11289 3.27186,-2.2232 4.46879,-1.82588c1.29221,0.42895 2.42212,1.80391 2.50831,4.77495c0.07153,2.46599 -0.93873,6.03418 -1.76691,9.24599c0,0 -2.06502,7.94278 -3.74367,9.91319z" fill="#ffab19" fill-rule="nonzero" stroke="#001026" stroke-width="1.2" stroke-linecap="butt" stroke-linejoin="miter"/><path d="M236.66223,166.6479c-0.24934,-0.25271 -0.21626,-0.73857 0.06616,-0.97175c0.99933,-0.65115 3.42011,-1.82771 5.61307,-4.49016c1.05855,-1.28516 1.6322,-3.71659 2.78809,-5.08153c1.11186,-1.34182 2.74656,-1.73184 3.59024,-2.53454c1.55267,-1.47721 1.96566,-2.8715 2.37922,-3.71435c0.21275,-0.43362 0.74452,-0.4141 0.94614,0.04994c1.18786,2.37252 3.77219,9.92599 -2.37888,17.32627c-5.63013,6.11034 -10.11473,2.73397 -13.00407,-0.58387z" fill="#ffffff" fill-rule="evenodd" stroke="#001026" stroke-width="1.2" stroke-linecap="round" stroke-linejoin="round"/><g fill-rule="nonzero" stroke="#001026" stroke-width="1.2" stroke-linejoin="miter"><g><path d="M253.03211,189.65184l-1.57845,-24.0865l12.78888,1.94177l-4.15962,22.40232c0,0 -2.04442,1.5668 -3.183,1.52521c-1.20764,-0.04413 -3.86782,-1.78279 -3.86782,-1.78279z" fill="#505a63" stroke-linecap="butt"/><path d="M250.82717,163.97978c0.28853,-4.37121 3.70942,-7.4309 7.64077,-6.83401c3.93136,0.59689 6.88444,4.62438 6.59592,8.99557c-0.28853,4.37121 -3.70943,7.43091 -7.64078,6.83401c-3.93136,-0.59689 -6.88443,-4.62438 -6.59592,-8.99561z" fill="url(#color-1)" stroke-linecap="butt"/><path d="M254.4675,171.36998c0,0 -0.55556,-5.02054 -0.42603,-7.3459c0.12107,-2.17331 1.17949,-6.18098 1.17949,-6.18098" fill="none" stroke-linecap="round"/><path d="M261.10317,172.22247c0,0 -0.8029,-6.23072 -0.84746,-8.65192c-0.03291,-1.78893 0.60431,-4.56125 0.60431,-4.56125" fill="none" stroke-linecap="round"/><path d="M250.74187,164.4487c0,0 4.38589,-2.06829 6.81331,-2.30178c2.11184,-0.20313 6.93673,0.97916 6.93673,0.97916" fill="none" stroke-linecap="round"/><path d="M252.30964,170.26724c0,0 4.97032,-1.91895 7.28342,-2.41298c1.7981,-0.38402 5.44344,-0.30512 5.44344,-0.30512" fill="none" stroke-linecap="round"/></g><path d="M263.4657,182.75361c-0.18454,2.91641 -2.45691,5.24476 -5.07552,5.20054c-2.61859,-0.04422 -4.8537,-1.64829 -4.66914,-4.5647c0.18454,-2.91641 2.71885,-6.04076 5.33743,-5.99654c2.61859,0.04422 4.59175,2.4443 4.40721,5.3607z" fill="#ffab19" stroke-linecap="butt"/></g></g></g></svg>