<svg version="1.1" xmlns="http://www.w3.org/2000/svg" xmlns:xlink="http://www.w3.org/1999/xlink" width="125.54577" height="154.84634" viewBox="0,0,125.54577,154.84634"><defs><linearGradient x1="195.89209" y1="147.70102" x2="203.74288" y2="193.80268" gradientUnits="userSpaceOnUse" id="color-1"><stop offset="0" stop-color="#cc2981"/><stop offset="1" stop-color="#a92292"/></linearGradient><linearGradient x1="305.54308" y1="138.6279" x2="301.60503" y2="185.22714" gradientUnits="userSpaceOnUse" id="color-2"><stop offset="0" stop-color="#cc2981"/><stop offset="1" stop-color="#a92292"/></linearGradient><linearGradient x1="279.40136" y1="213.14454" x2="279.40136" y2="237.25755" gradientUnits="userSpaceOnUse" id="color-3"><stop offset="0" stop-color="#9966ff"/><stop offset="1" stop-color="#66ebff"/></linearGradient><linearGradient x1="309.62405" y1="208.89782" x2="309.62405" y2="237.33108" gradientUnits="userSpaceOnUse" id="color-4"><stop offset="0" stop-color="#9966ff"/><stop offset="1" stop-color="#66ebff"/></linearGradient><radialGradient cx="242.9019" cy="194.83367" r="5.02555" gradientUnits="userSpaceOnUse" id="color-5"><stop offset="0" stop-color="#54606d"/><stop offset="1" stop-color="#2c3136"/></radialGradient></defs><g transform="translate(-188.91676,-83.60284)"><g data-paper-data="{&quot;isPaintingLayer&quot;:true}" fill-rule="nonzero" stroke-miterlimit="10" stroke-dasharray="" stroke-dashoffset="0" style="mix-blend-mode: normal"><g data-paper-data="{&quot;index&quot;:null}" stroke="#000000" stroke-width="0.90024" stroke-linecap="round" stroke-linejoin="miter"><path d="M286.4764,158.69076c0,0 2.6964,-13.33931 2.88867,-14.00896c0.19223,-0.6695 1.10571,-6.5261 9.6324,-13.33515c0,0 9.59205,30.11553 -0.78562,44.36254c-0.00045,-0.00078 -3.13129,-8.39184 -11.73546,-17.01842zM286.65631,158.8734c-0.69378,-0.72365 -2.17132,-1.85435 -2.17132,-1.85435M298.73787,178.14049c0,0 -0.21145,-1.58903 -0.52646,-2.43207" fill="#be1e2d"/><path d="M301.31934,168.27422c0,0 -2.02418,-0.25584 -4.251,-3.69131c-1.38482,-2.12896 -2.75992,-6.6846 -2.75992,-6.6846l-0.00311,0.17286c0.19701,-1.06242 0.35783,-2.26325 0.41122,-3.5087c0.09205,-2.10781 -0.09557,-5.07828 -0.36032,-7.95982l-0.01846,-0.40748c0,0 0.40309,-5.73421 5.90348,-9.64948l0.08817,-0.00259c1.14509,4.7613 2.6236,11.86222 2.78717,17.20833c0.18367,5.9969 -0.75055,10.9769 -1.8511,14.66591l0.05388,-0.14313v0v0v0v0zM293.30073,161.7208c0,0 0.87166,-3.1817 1.00771,-3.8225" fill="#929497"/></g><g data-paper-data="{&quot;index&quot;:null}" stroke="#000000" stroke-width="0.90024" stroke-linecap="round" stroke-linejoin="miter"><path d="M206.47873,184.26071c-11.86301,-13.03507 -5.59908,-44.01436 -5.59908,-44.01436c9.2156,5.84342 10.75984,11.56613 11.02403,12.20997c0.26414,0.64395 4.39328,13.61229 4.39328,13.61229c-7.6174,9.51062 -9.81823,18.19211 -9.81823,18.19211zM218.09372,164.19088c0,0 -1.34598,1.2845 -1.95695,2.07928M206.47873,184.26071c-0.22166,0.87223 -0.25917,2.47487 -0.25917,2.47487" fill="#be1e2d"/><path d="M202.65077,177.34452c-1.49438,-3.54845 -2.96321,-8.39715 -3.43331,-14.3781c-0.41894,-5.3326 0.28041,-12.55171 0.90145,-17.40927l0.08802,-0.00695c5.89359,3.29581 6.91671,8.95112 6.91671,8.95112l0.0259,0.40709c0.04971,2.89319 0.18596,5.86652 0.50644,7.95185c0.18835,1.23228 0.47868,2.40853 0.78991,3.44327l-0.02187,-0.17148c0,0 -0.87211,4.67805 -2.01758,6.9448c-1.84037,3.65707 -3.82488,4.13123 -3.82488,4.13123zM208.42404,166.13204c0.20484,0.62222 1.41696,3.69041 1.41696,3.69041" fill="#929497"/></g><path d="M204.37996,146.36436c0,0 0.38727,-39.39159 48.13071,-42.49031c32.76146,-2.12633 46.63403,35.80866 46.63403,35.80866" data-paper-data="{&quot;index&quot;:null}" fill="none" stroke="#000000" stroke-width="7" stroke-linecap="round" stroke-linejoin="miter"/><path d="M242.7029,213.68334v0v0v0v0v0c-1.8265,-0.30764 -5.16677,-1.45218 -6.01756,-2.20429c0,0 -3.19519,-3.09343 -1.94345,-5.1726c0.53452,-0.88865 1.43124,-1.26185 2.5916,-1.24179c0.14529,-0.39065 0.43399,-0.92886 1.02507,-1.15352c0.9797,-0.37408 1.65162,1.71327 1.65162,1.71327l-0.01889,-0.00063c0.29901,0.10806 0.59704,0.2214 0.91155,0.35507c1.77648,0.76177 4.16862,2.38856 5.50694,3.21518c0,0 1.18176,0.68551 1.09711,2.2779c-0.0898,1.69407 -2.9775,2.51904 -4.80399,2.21138z" data-paper-data="{&quot;index&quot;:null}" fill="#be1e2d" stroke="#231f20" stroke-width="0.78672" stroke-linecap="round" stroke-linejoin="round"/><path d="M261.0008,216.39799v0v0v0v0c0,0 -3.28745,2.99485 -5.28303,1.61072c-0.85682,-0.58512 -1.16869,-1.50739 -1.07906,-2.66458c-0.38333,-0.16856 -0.89881,-0.48865 -1.08771,-1.09364c-0.3122,-0.99976 1.81277,-1.5437 1.81277,-1.5437l-0.00171,0.018c0.12837,-0.28855 0.2594,-0.58173 0.41119,-0.88758c0.87301,-1.72237 2.64479,-4.0121 3.55207,-5.29612c0,0 1.21824,-1.22604 2.47228,-0.79923c1.25404,0.42581 1.8097,2.55705 1.61476,3.50039c-0.19575,0.94345 -1.02932,5.55898 -2.41157,7.15573z" data-paper-data="{&quot;index&quot;:null}" fill="#be1e2d" stroke="#231f20" stroke-width="0.78672" stroke-linecap="round" stroke-linejoin="round"/><path d="M253.99384,217.83448c1.57405,-0.39455 3.4689,0.12907 3.4689,0.12907c0,0 0.65523,5.17554 0.84499,7.04649c0.19067,1.87369 1.04665,4.82435 1.04665,4.82435c0,0 0.47582,0.3096 0.3108,1.0656c-0.16865,0.75405 -1.84559,0.83936 -3.95657,1.16c-2.10721,0.31617 -3.80568,-0.08486 -4.1071,-0.84559c-0.30425,-0.75723 0.32764,-1.08147 0.32764,-1.08147c0,0 1.2037,-6.10727 0.39448,-8.25444c0.00433,0.00466 -0.33667,-3.54117 1.67021,-4.04399z" data-paper-data="{&quot;index&quot;:null}" fill="#be1e2d" stroke="#231f20" stroke-width="0.90024" stroke-linecap="round" stroke-linejoin="round"/><path d="M249.0785,218.88854v0v0v0v0v0c0.93833,2.94411 -0.76961,4.90332 -0.77099,4.90581c-2.01608,1.0832 -4.63153,5.8714 -4.63153,5.8714c0,0 0.26735,0.65742 -0.45568,1.03332c-0.72684,0.37438 -2.27141,-0.43147 -3.65848,-2.05524c-1.38326,-1.62239 -2.59375,-2.78471 -2.22531,-3.46717c0.36845,-0.68247 0.93065,-0.60253 0.93065,-0.60253c0,0 1.33608,-1.14948 2.70624,-2.44198c1.3649,-1.29027 4.96935,-4.98819 4.96935,-4.98819c0,0 2.52136,-0.1845 3.13577,1.74461z" data-paper-data="{&quot;index&quot;:null}" fill="#be1e2d" stroke="#231f20" stroke-width="0.90024" stroke-linecap="round" stroke-linejoin="round"/><g data-paper-data="{&quot;index&quot;:null}" stroke-width="0.90024"><path d="M259.84106,210.93323v0v0v0v0v0c0.42704,2.79979 -0.21789,7.9619 -3.42027,9.78699c-3.16748,1.80153 -6.53628,1.57651 -10.03758,-0.79047c-2.90095,-1.96186 -2.85592,-7.60838 -2.56699,-10.76868v0c0,0 -0.01161,-7.30811 6.13497,-8.23485c6.14467,-0.92661 9.02435,4.66866 9.51468,8.1649c0.15215,0.61515 0.28265,1.243 0.37522,1.8421z" fill="#be1e2d" stroke="#000000" stroke-linecap="butt" stroke-linejoin="miter"/><path d="M258.17958,218.96883v0v0v0v0v0l-0.01468,0.14316c-0.469,0.65382 -1.04631,1.2091 -1.74322,1.6064c-2.93395,1.66903 -6.03928,1.59957 -9.26398,-0.30139l-0.03392,-0.14386c0,0 -1.74323,-9.2868 4.18034,-9.72725c6.72633,-0.497 6.91108,6.86807 6.87546,8.42293z" fill="#e6e7e8" stroke="#231f20" stroke-linecap="round" stroke-linejoin="round"/></g><g data-paper-data="{&quot;index&quot;:null}" stroke="#000000" stroke-linecap="butt" stroke-linejoin="miter"><g><g stroke-width="0.4"><path d="M279.85007,232.36082l-0.04409,-0.00294c-1.45487,-0.05286 -3.34458,-0.62727 -4.05455,-1.2147l-0.09669,0.10155l-1.16527,-0.40596l0.29684,-0.26734c0.03286,-0.03107 3.3171,-3.02635 3.30389,-6.20501l-0.00144,-0.32695l0.31125,0.101c0.16557,0.05474 0.54551,0.20267 0.67056,0.44901l0.04554,0.01705c1.73591,0.6573 3.31799,0.5559 3.76189,0.50878l0.24057,-0.01797c0.11297,0.02514 0.45569,0.10001 0.49855,0.38739c0.04308,0.28929 -0.28011,0.49668 -0.46139,0.58059c-0.08988,0.01333 -0.18089,0.0249 -0.27399,0.0348c-1.33064,0.14128 -2.97607,-0.04918 -3.78895,-0.4146c-0.01803,0.16168 -0.04839,0.35034 -0.09633,0.5618c1.68385,0.60579 3.19764,0.50588 3.63022,0.45996l0.24361,-0.01634c0.11202,0.02518 0.45475,0.10009 0.4976,0.38744c0.04308,0.2893 -0.27915,0.49659 -0.46043,0.58049c-0.08892,0.01327 -0.18089,0.0249 -0.27399,0.0348c-1.4369,0.15257 -3.24004,-0.08103 -3.9452,-0.47977c-0.07195,0.1731 -0.15141,0.34702 -0.23863,0.51982c1.91338,0.83343 3.65224,0.69444 3.75577,0.70246c0.11003,0.033 0.44675,0.1323 0.46819,0.42389c0.02147,0.29154 -0.31597,0.47195 -0.50348,0.54225c-1.51101,0.10814 -3.5504,-0.2906 -4.22715,-0.79792c-0.12287,0.18613 -0.25929,0.37939 -0.40779,0.57489c1.80904,0.86256 3.46655,0.82637 3.56683,0.83947c0.10881,0.03979 0.43916,0.15973 0.44538,0.45103c0.00422,0.29056 -0.34171,0.45377 -0.5332,0.51308c-1.46005,0.0238 -3.38381,-0.45001 -4.13064,-1.01736c-0.12762,0.1419 -0.26164,0.28549 -0.40386,0.43277c1.74131,0.9325 3.36852,0.98702 3.46845,1.00586c0.10559,0.04491 0.42816,0.18088 0.41817,0.47202c-0.01085,0.29216 -0.36546,0.4363 -0.47467,0.47357z" fill="#871212"/><path d="M278.32711,224.36791c0.01448,3.32497 -3.38221,6.3807 -3.38221,6.3807l0.64394,0.22544l0.15917,-0.16714c0.00798,0.01247 0.00963,0.01895 0.01871,0.0332c0.35677,0.51178 2.44194,1.2252 4.04798,1.28671c0,0 0.68101,-0.23207 0.03975,-0.5035c0,0 -1.84496,-0.04567 -3.76356,-1.1695c0.28662,-0.28341 0.54288,-0.55691 0.77306,-0.8248c0.01248,0.01866 0.01782,0.03326 0.03433,0.05436c0.38326,0.49282 2.50386,1.09213 4.1111,1.06603c0,0 0.66655,-0.26951 0.01187,-0.50623c0,0 -1.86166,0.05696 -3.85001,-0.98058c0.28951,-0.36358 0.53683,-0.71221 0.73756,-1.04256c0.02155,0.03287 0.0424,0.06777 0.07925,0.11045c0.41042,0.47087 2.56031,0.95204 4.16483,0.83781c0,0 0.65043,-0.30494 -0.01541,-0.50333c0,0 -1.90983,0.16757 -3.98723,-0.80438c0,0 -0.0141,0.00151 -0.03405,0.0017c0.20727,-0.3767 0.35848,-0.7256 0.47027,-1.0437c0.0219,0.02718 0.03905,0.05481 0.07202,0.08746c0.4203,0.41184 2.39215,0.72076 3.95035,0.55532c0.08931,-0.00948 0.17754,-0.02076 0.26456,-0.03378c0,0 0.62634,-0.35276 -0.05341,-0.50313c0,0 -0.05885,0.01008 -0.16792,0.02166c-0.50778,0.05391 -2.10218,0.14708 -3.86875,-0.52118c0,0 -0.00185,0.0002 -0.00563,0.00059c-0.01127,0.0012 -0.03834,0.00594 -0.07085,0.01322c0.13515,-0.49174 0.17321,-0.88567 0.17387,-1.15682c0.01083,0.01217 0.01437,0.01846 0.02628,0.03242c0.4203,0.41184 2.39215,0.72076 3.95035,0.55532c0.08931,-0.00948 0.17754,-0.02076 0.26456,-0.03378c0,0 0.62633,-0.35276 -0.05322,-0.50125c0,0 -0.0579,0.00999 -0.16507,0.02136c-0.50593,0.05372 -2.10222,0.1471 -3.87085,-0.52285c0,0 0,0 -0.00095,0.0001c-0.01032,0.0011 -0.10038,0.01253 -0.17932,0.04849c-0.00294,-0.0187 -0.00494,-0.02892 -0.00494,-0.02892c0.1802,-0.255 -0.52037,-0.48493 -0.52037,-0.48493M277.85177,223.71469l0.62276,0.20495c0.21874,0.07185 0.57299,0.21966 0.75664,0.48072c1.67561,0.62659 3.1962,0.52793 3.62404,0.4825c0.08462,-0.00898 0.13316,-0.01793 0.13879,-0.01853l0.08892,-0.01327l0.08847,0.01819c0.50825,0.11151 0.6517,0.37869 0.68194,0.58281c0.06563,0.43904 -0.36423,0.71673 -0.49791,0.7918l-0.07625,0.04325l-0.08708,0.01308c-0.09272,0.01361 -0.18747,0.0256 -0.28337,0.03579c-1.16326,0.1235 -2.68393,0.00633 -3.62377,-0.30946c-0.00354,0.02034 -0.00773,0.04359 -0.01202,0.06593c1.55701,0.51276 2.92724,0.42238 3.33069,0.37954c0.08558,-0.00908 0.13521,-0.01622 0.14179,-0.01692l0.08872,-0.01517l0.08847,0.01819c0.50755,0.11349 0.65096,0.38069 0.68119,0.58481c0.06563,0.43904 -0.36423,0.71673 -0.49791,0.7918l-0.07625,0.04325l-0.08708,0.01308c-0.09267,0.01362 -0.18747,0.0256 -0.28337,0.03579c-1.26202,0.13399 -2.94575,-0.01439 -3.8507,-0.3957c-0.01251,0.02514 -0.02383,0.05296 -0.03639,0.07806c1.76056,0.70129 3.30922,0.58057 3.32524,0.57888l0.08952,-0.00759l0.08643,0.02603c0.49787,0.14776 0.62067,0.42667 0.63586,0.63239c0.03252,0.44066 -0.41683,0.68712 -0.55447,0.75216l-0.07934,0.04075l-0.08786,0.00551c-1.3261,0.09419 -3.26384,-0.20692 -4.17618,-0.71199c-0.0363,0.05232 -0.0735,0.10478 -0.1116,0.15826c1.64581,0.71346 3.09289,0.68347 3.10905,0.68368l0.08931,-0.00096l0.08493,0.02997c0.48945,0.17628 0.59575,0.46074 0.59977,0.66859c0.00714,0.44334 -0.45461,0.66257 -0.59683,0.7205l-0.08119,0.03237l-0.08723,0.00261c-0.31623,0.00412 -0.66537,-0.01492 -1.02713,-0.05449l0.04878,0.02049c0.47906,0.20397 0.57062,0.49286 0.56291,0.69818c-0.01561,0.44386 -0.48942,0.6387 -0.63453,0.68738l-0.08254,0.02872l-0.08698,-0.00408c-1.30423,-0.04887 -3.15317,-0.54389 -4.02572,-1.13122l-0.05041,0.05387l-0.28847,-0.10155l-0.64375,-0.2236l-0.75451,-0.26318l0.5937,-0.53472c0.03212,-0.02908 3.23888,-2.95717 3.22567,-6.02834l-0.00277,-0.65306zM276.90662,230.29019c-0.01271,0.01465 -0.02554,0.02838 -0.03938,0.04129c1.46616,0.71444 2.77114,0.80605 2.97201,0.81705c-1.1037,-0.13957 -2.28545,-0.45915 -2.93263,-0.85836z" fill="#000000"/></g><path d="M254.56372,209.45873c0,0 5.69429,-1.04011 10.49689,2.76832c4.8028,3.81032 3.61053,8.25527 13.72992,12.13449c0,0 1.05272,2.82101 -3.34126,6.97256c0,0 -8.64695,-3.67891 -11.34704,-9.77229c-2.69991,-6.09154 -8.60445,-9.0555 -11.54244,-8.76448l-3.24963,-0.12666z" fill="#ba2915" stroke-width="0.4"/><g fill="#871212" stroke-width="0.4"><path d="M276.14093,223.26676c0,0 0.63538,3.84389 -3.63792,6.57901l-1.17612,-0.76808c0,0 3.75125,-4.59782 3.38299,-6.57953z"/><path d="M272.44625,220.95453c0,0 0.04151,3.00634 -4.04559,5.93662l-1.43871,-1.23474c0,0 3.99328,-2.78429 4.23959,-5.90108z"/><path d="M269.7845,218.07041c0,0 -0.68059,3.12012 -5.11401,4.66066l-0.80624,-1.61951c0,0 4.60158,-1.99871 5.20523,-4.06077z"/><path d="M267.10383,214.25631c0,0 -0.53557,2.65873 -4.9114,4.08762l-1.13745,-1.29048c0,0 4.68479,-2.7379 5.08952,-3.86118z"/><path d="M262.20932,210.51371c0.33923,0.0781 1.68148,0.88845 1.68148,0.88845l-5.37426,3.38265l-1.7237,-1.22349c0,0 5.07727,-3.12573 5.4165,-3.04762z"/><path d="M258.65345,209.70634l-4.38636,3.17503l-2.24149,-0.10818l4.33756,-3.49124l2.2903,0.42441"/></g><path d="M275.49964,231.61126l-0.14224,-0.05908c-0.35664,-0.15238 -8.76312,-3.78735 -11.47045,-9.8952c-2.56348,-5.7827 -8.31155,-8.92111 -11.33624,-8.62277l-4.02981,-0.15699l6.00006,-3.65067c0,0 0.16696,-0.03105 0.46883,-0.0631c1.3626,-0.14468 6.12729,-0.36528 10.21763,2.87881c1.73183,1.37189 2.71591,2.85648 3.66799,4.29121c1.73888,2.6198 3.53773,5.33021 10.00008,7.80704l0.09914,0.03793l0.03721,0.09974c0.04619,0.12158 1.05624,3.01559 -3.39979,7.22794l-0.11245,0.10514zM278.59441,224.53832c-6.51261,-2.51994 -8.34311,-5.27743 -10.11365,-7.94521c-0.97464,-1.46752 -1.8951,-2.85517 -3.56799,-4.182c-3.94799,-3.13085 -8.55571,-2.91834 -9.87316,-2.77846c-0.21903,0.0242 -0.36209,0.04702 -0.37157,0.03849l-4.56943,2.79414l2.43809,0.09678c3.0679,-0.30385 9.02815,2.69221 11.78178,8.90453c2.4435,5.51291 9.95629,9.07833 11.08196,9.58644c3.64182,-3.49727 3.3122,-6.00138 3.194,-6.51475z" fill="#000000" stroke-width="0.4"/><path d="M278.64238,224.55244c0.1182,0.51335 0.43563,3.03828 -3.20618,6.53556c-1.12567,-0.50811 -8.68138,-4.05897 -11.12489,-9.5719c-2.75364,-6.21232 -8.6649,-9.23047 -11.73281,-8.92662l-2.5237,-0.14831l4.57946,-2.8069c0.00949,0.00853 0.15333,-0.015 0.37236,-0.0392c1.31746,-0.13988 5.96091,-0.36472 9.9089,2.76612c1.6729,1.32683 2.62694,2.73004 3.60158,4.19755c1.77054,2.66778 3.61268,5.47374 10.12529,7.99368z" data-paper-data="{&quot;noHover&quot;:true,&quot;origItem&quot;:[&quot;Path&quot;,{&quot;applyMatrix&quot;:true,&quot;segments&quot;:[[[431.94081,453.0728],[0,0],[-0.17472,1.03898]],[[439.09485,465.69792],[-7.688,-6.5475],[2.1867,-1.14874]],[[460.07531,445.23676],[-4.22042,11.29778],[4.75612,-12.7311]],[[482.53429,426.05348],[-6.16114,-0.24052],[0,0]],[487.39021,425.56932],[[477.93421,420.53628],[0,0],[-0.01792,0.01816]],[[477.18779,420.50378],[0.44016,0.02218],[-2.64692,-0.12204]],[[457.80819,427.229],[7.5083,-6.72166],[-3.1815,2.84856]],[[451.18397,436.00386],[1.77068,-3.04612],[-3.21644,5.53734]],[[431.94083,453.07286],[12.7013,-5.80806],[0,0]]],&quot;closed&quot;:true,&quot;fillColor&quot;:[0,0,0,1],&quot;strokeColor&quot;:[0,0,0],&quot;strokeWidth&quot;:0.4}]}" fill="#000000" stroke-width="0.2"/></g><g stroke-width="0.4"><path d="M240.76925,205.49425c0.00096,-0.00011 6.92456,-3.64899 17.29779,5.05702c0,0 -5.18535,3.0478 -10.60204,2.49319c-5.4176,-0.55457 -7.26522,-1.72681 -9.08649,-0.40277c0,0 -1.26994,-1.88502 2.04738,-3.66371c0,0 -1.43124,-2.28441 0.34337,-3.48374z" fill="#ba2915"/><g fill="#871212"><path d="M251.1228,206.17803c-2.1599,2.55922 -0.91678,6.86922 -0.91678,6.86922l-0.84633,0.08986c-1.61416,-5.06372 0.94105,-7.32159 0.94105,-7.32159z"/><path d="M247.18941,204.93148c0,0 -2.19501,2.17494 -1.15231,7.70542l-1.09062,-0.15997c0,0 -1.00268,-4.5267 0.97482,-7.73792z"/><path d="M254.39458,207.86573c-0.79127,0.66222 -0.8661,4.54345 -0.8661,4.54345l-0.59644,0.15941c-0.76816,-2.75616 0.75792,-5.17673 0.75792,-5.17673z"/><path d="M240.05998,211.95345c-0.00095,0.0001 -0.29268,-2.19232 1.04103,-3.34383c0.04695,-0.16667 -0.14602,-2.71857 0.39316,-3.39961l1.32029,-0.33706c0,0 -1.22732,1.38274 -0.68658,3.50213c0,0 -1.46792,1.60703 -1.07957,3.47344z"/></g><path d="M237.96782,211.21887c0.21285,-0.86135 0.93041,-1.64505 2.13376,-2.33104c-0.49238,-0.92914 -0.89652,-2.62175 0.55706,-3.60245c0.04238,-0.02164 1.02308,-0.52992 2.79192,-0.71773c3.18131,-0.33778 8.32397,0.39527 14.76853,5.80297l0.25676,0.21522l-0.28912,0.16954c-0.03491,0.02084 -3.54259,2.0584 -7.7545,2.50559c-1.0363,0.11003 -2.04169,0.11693 -2.99153,0.01998c-1.83062,-0.1879 -3.26067,-0.44593 -4.40966,-0.65392c-2.22912,-0.40337 -3.43081,-0.57912 -4.51235,0.20615l-0.19872,0.14375l-0.13662,-0.20326c-0.01806,-0.02665 -0.43633,-0.66118 -0.2155,-1.55479zM238.42846,211.32118c-0.10543,0.42202 -0.03192,0.76511 0.04341,0.97302c1.145,-0.70739 2.43212,-0.53308 4.64183,-0.13338c1.14021,0.20605 2.5607,0.46323 4.37386,0.64824c0.91623,0.09386 1.89125,0.08733 2.89368,-0.01912c3.40886,-0.36193 6.34673,-1.79218 7.26693,-2.27883c-6.19119,-5.09983 -11.1038,-5.79738 -14.14875,-5.47408c-1.65503,0.17572 -2.59443,0.65204 -2.59819,0.65244c-1.28752,0.86987 -0.67814,2.39046 -0.39246,2.94973c0.54866,-0.24273 1.88838,-0.60275 3.90121,0.36083c0,0 -2.07774,-0.77789 -4.04042,0.2892c-1.07893,0.61288 -1.7571,1.31059 -1.94109,2.03194z" fill="#000000"/></g><g stroke-width="0.4"><path d="M269.50974,205.23672c0.91337,1.32944 -0.50557,1.95563 -0.50557,1.95563c-17.72259,7.17191 -20.425,1.87187 -23.08715,-0.46063c-2.66029,-2.33271 -5.14582,-1.23672 -5.14582,-1.23672c-1.83486,-3.84683 2.24395,-6.29116 2.24395,-6.29116l0.1279,1.20461c12.40043,7.63771 21.67961,-1.80638 21.66803,-1.91545c-0.01159,-0.10911 1.09458,0.23277 1.79451,1.22737c0.69997,0.99454 -0.38184,2.00144 -0.38184,2.00144c-0.06447,1.07666 2.37267,2.18542 3.286,3.51492z" fill="#ba2915"/><g fill="#871212"><path d="M263.79447,199.43301c0,0 1.66402,0.40153 1.11778,3.09368c0,0 0.21625,1.48148 1.52283,2.5914c1.30652,1.10988 1.37096,1.99413 1.62679,2.44245l-1.83312,0.64827c0,0 -0.2608,-1.61462 -1.12107,-2.44388c-0.86021,-0.8292 -1.14042,-2.13363 -1.28011,-2.71505c-0.1397,-0.58143 0.53334,-2.07937 -0.83346,-2.91469z"/><path d="M260.81922,201.46919c-0.04291,-0.24266 0.67641,0.96099 0.65722,2.64337c-0.01918,1.68239 1.06963,2.42554 1.5695,3.48792c0.49982,1.06244 0.60385,1.53166 0.60385,1.53166l-1.34226,0.40785c0,0 -0.90466,-2.31375 -1.57293,-3.23368c-0.66827,-0.91999 -0.45676,-1.91055 -0.55981,-2.88096c-0.10304,-0.97046 -0.45228,-1.36705 -0.45228,-1.36705z"/><path d="M257.24393,202.79883c0.00789,0.07431 0.85672,1.72732 0.64855,3.49256c-0.20822,1.76524 1.06909,3.81777 1.06909,3.81777l-1.30354,0.2259c0,0 -1.00439,-1.90943 -0.99501,-3.68398c0.00938,-1.77454 0.00682,-2.3268 -0.41471,-3.61053z"/><path d="M253.64433,203.32558c0,0 -0.61997,2.56216 0.3494,4.68829c0,0 -0.50732,1.37478 0.69658,2.63726l-0.70436,0.07478c0,0 -1.12326,-0.77184 -1.00491,-2.45142c0,0 -1.30999,-0.93648 -0.56476,-4.81758l1.22815,-0.1304z"/><path d="M249.70862,203.06922c0,0 -1.54661,2.43324 -0.38351,5.38042c0,0 -0.16751,0.47328 0.32964,1.23265l-1.09214,-0.57733c0,0 -0.29559,-0.50875 -0.25376,-0.70624c0.04177,-0.19749 -1.27296,-1.59941 0.01808,-5.63357z"/><path d="M245.39414,201.65486c0,0 -1.53851,1.372 -0.8259,4.16926l-1.10061,-0.47753c0,0 -0.31411,-2.95838 1.01018,-4.10894z"/><path d="M242.92015,200.5481c0,0 -2.66511,1.15977 -2.07297,4.5337l0.02537,0.3644c0,0 -2.2856,-2.96879 2.15103,-6.15391z"/></g><path d="M240.55754,205.5966c-1.90578,-3.99521 2.29323,-6.57029 2.33512,-6.59663l0.31736,-0.19059l0.15466,1.45664c3.69789,2.25295 7.47429,3.19383 11.22825,2.79526c5.88202,-0.62452 9.58485,-4.24527 9.98327,-4.6575l0.00113,-0.14184l0.23509,-0.02496c0.28022,-0.02975 1.32496,0.4052 1.98589,1.34588c0.60029,0.85303 0.09914,1.76686 -0.31764,2.21239l0.00972,0.0199c-0.00774,0.00748 -0.01676,0.01227 -0.02453,0.01974c0.06827,0.48154 0.80373,1.06724 1.51924,1.63509c0.64499,0.51256 1.3117,1.04179 1.71872,1.63293c0.31723,0.46178 0.4185,0.90556 0.30176,1.31929c-0.18829,0.66286 -0.87706,0.97372 -0.91352,0.98899c-4.90729,1.98552 -9.07415,3.17065 -12.38615,3.5223c-6.15754,0.65377 -8.47432,-1.62316 -10.16482,-3.2857c-0.26957,-0.26428 -0.52454,-0.51584 -0.78026,-0.73879c-1.54035,-1.35042 -3.01163,-1.5128 -3.97363,-1.41065c-0.56608,0.06011 -0.91899,0.2117 -0.92262,0.21305l-0.20901,0.09158l-0.09801,-0.2064zM242.82139,199.61812c-0.88025,0.63933 -3.1782,2.65973 -1.92664,5.58042c0.70306,-0.2211 2.92285,-0.62225 5.1773,1.35417c0.26204,0.22893 0.5233,0.48647 0.79936,0.75765c0.25479,0.24972 0.51991,0.50776 0.80405,0.76577c4.44221,0.96052 8.51299,-0.95046 8.51299,-0.95046c-2.80441,2.01521 -6.63888,1.66441 -7.89369,1.48097c1.60029,1.26987 3.91329,2.32903 8.36125,1.85676c3.26777,-0.34697 7.39208,-1.52092 12.25106,-3.48704c0.00544,-0.00249 0.51873,-0.23769 0.64415,-0.68654c0.07588,-0.27051 -0.00355,-0.5797 -0.23644,-0.91919c-0.36656,-0.53263 -1.0053,-1.04014 -1.62316,-1.52995c-0.71973,-0.57214 -1.40067,-1.11888 -1.62273,-1.69638c-1.2539,0.87302 -2.8452,0.99538 -2.8452,0.99538c1.61669,-0.59105 2.40572,-1.15793 2.7671,-1.4892l0.00174,-0.03726l0.06926,-0.06444c0.03804,-0.03542 0.92121,-0.88042 0.34996,-1.69279c-0.54004,-0.76904 -1.32648,-1.10015 -1.52028,-1.14332c-0.81203,0.95919 -4.75499,4.23552 -10.24766,4.8187c-3.89219,0.41325 -7.80434,-0.57026 -11.62602,-2.92324l-0.09776,-0.06098l-0.09865,-0.92908z" fill="#000000"/></g></g><g data-paper-data="{&quot;index&quot;:null}" stroke="#000000" stroke-width="0.90024" stroke-linecap="round" stroke-linejoin="round"><path d="M300.19537,177.13521l-0.42446,1.58217c-2.40886,8.01055 -6.29864,12.7972 -6.29864,12.7972c0,0 0.05272,-1.40348 -0.18587,-3.63563l-0.13441,-0.03654c-0.29588,1.2049 -0.8111,2.7682 -1.71321,4.71808c-1.97784,4.2818 -8.39567,8.20702 -8.39567,8.20702c0,0 0.31416,-1.44627 0.41013,-3.78322l-0.11837,-0.34814c-0.68281,0.60683 -1.39573,1.17057 -2.11767,1.72141c-0.21236,0.16303 -0.42488,0.32238 -0.6414,0.47749c-0.65858,0.477 -1.33113,0.93503 -2.01994,1.36715c-0.27229,0.16897 -0.55621,0.32804 -0.83263,0.49098c-0.50417,0.2982 -1.01666,0.58244 -1.53767,0.85928c-0.38291,0.20113 -0.76856,0.40166 -1.16232,0.59091c-0.40745,0.19845 -0.82779,0.38057 -1.24497,0.56887c-0.76767,0.33743 -1.54833,0.65692 -2.3485,0.95704c-0.26107,0.09781 -0.52223,0.19561 -0.78827,0.28836c-0.57148,0.20099 -1.14781,0.39862 -1.73607,0.57914l0.00192,0.00167c-2.95281,0.91124 -6.10586,1.592 -9.50087,2.04249c-3.67309,0.48645 -7.01987,0.68543 -10.15845,0.68829v0c-2.48358,0.00098 -4.81774,-0.13227 -7.03624,-0.37836c-0.10727,-0.01138 -0.2156,-0.0236 -0.32376,-0.03492c-0.68617,-0.08074 -1.36215,-0.17022 -2.0262,-0.27136c-0.23188,-0.03698 -0.45419,-0.07905 -0.68518,-0.1178c-0.883,-0.14525 -1.74306,-0.31207 -2.59247,-0.49408c-0.53695,-0.11552 -1.07068,-0.23498 -1.59332,-0.36504c-0.31032,-0.07466 -0.62186,-0.15384 -0.92628,-0.23434c-0.83154,-0.22296 -1.65621,-0.45083 -2.45823,-0.70294l-0.12649,0.13975c0.44331,2.08869 1.25073,3.17249 1.8699,3.67208c1.26228,1.02015 3.56081,1.12164 3.56081,1.12164c0,0 -6.90073,1.46668 -11.07511,-3.64668c-0.44352,-0.54355 -0.89211,-1.10759 -1.32277,-1.7117l-0.19163,-0.34929c-0.84378,-0.21749 -1.70475,-0.525 -2.56245,-0.9384c-5.23122,-2.54167 -6.03097,-4.88582 -6.03097,-4.88582l0.16677,0.86812c0.64499,2.24781 1.21887,3.65482 1.21887,3.65482c0,0 -6.28513,-3.38332 -9.36718,-8.90031c-2.48529,-4.45363 -2.85359,-7.2316 -2.90101,-7.69943l-0.32024,-1.66139c-0.59284,-6.55263 -0.7041,-13.9415 -0.31296,-21.2458l0.04205,-0.19694c0.40905,-5.65398 -1.02423,-14.87199 5.73333,-24.88396c12.66325,-18.7566 26.92411,-19.14116 34.50114,-32.8777c5.57325,-10.10552 3.18522,-21.07642 3.18522,-21.07642c0,0 4.21835,5.15989 5.9734,8.24088c1.70086,3.00351 3.56559,6.89801 3.56559,6.89801l0.04876,-0.03772c0.02677,-0.11928 0.04977,-0.2409 0.06829,-0.3622c0.28654,-1.88923 -0.07263,-4.62735 -0.07263,-4.62735c0,0 4.41234,10.45907 10.81128,17.06888c6.3951,6.60658 15.06414,8.01233 27.5261,31.30292c1.55059,2.89411 2.97345,5.32164 3.8364,8.06304l0.4149,1.58344c1.29203,4.94838 1.89974,18.82801 0.34965,24.9524zM229.56541,158.44496c0,0 -6.46321,7.73593 -5.29272,17.78379c1.03566,8.89038 3.54147,11.48245 4.8356,12.08433c1.33033,0.61466 3.28636,0.0571 3.28636,0.0571c0,0 -5.40645,3.3702 -10.26914,-0.34269c-3.2524,-2.48169 -6.83029,-5.72658 -8.45542,-15.47602M288.73224,170.41672c0,0 1.04143,2.41924 -0.7052,7.7524c-1.96429,6.00823 -6.85055,8.16855 -6.85055,8.16855c0,0 3.53141,-9.29188 -0.56102,-17.5056c-1.78633,-3.58865 -6.68965,-6.00988 -11.74244,-7.60746c-6.84736,-2.16696 -13.96804,-2.82007 -13.96804,-2.82007M293.17562,187.7424c-0.29129,1.219 -0.8128,2.81975 -1.74196,4.82206c-1.97694,4.28176 -8.39477,8.20695 -8.39477,8.20695c0,0 0.9119,-4.21928 0.10015,-9.88292M215.60073,179.68383c-0.59477,1.3181 -1.02498,2.71652 -1.21818,4.17502c-1.21787,9.09448 2.73362,18.73864 2.73362,18.73864c0,0 -6.28322,-3.38175 -9.36718,-8.90041c-2.73417,-4.89812 -2.90595,-7.76946 -2.90595,-7.76946M299.76684,178.72398c-2.41064,8.01069 -6.29953,12.79726 -6.29953,12.79726c0,0 0.31051,-7.97449 -3.78927,-16.18858c-0.18499,-0.37141 -0.38995,-0.73059 -0.60483,-1.07823M254.90592,158.40448c0,0 1.21493,0.23203 4.53811,2.51475c3.32328,2.28272 4.67348,4.93372 4.67348,4.93372c0,0 -9.46337,-1.79195 -14.73763,-3.27918c-5.269,-1.48941 -22.94168,-4.98859 -22.94168,-4.98859M228.11189,197.73208c2.79783,3.77908 5.57009,5.74686 5.57009,5.74686c0,0 -6.02855,2.3428 -11.92037,-0.51689c-5.23121,-2.54157 -6.03097,-4.88582 -6.03097,-4.88582M283.32896,196.64199c-6.28227,5.57896 -14.16358,8.6517 -23.922,9.94615c-11.63417,1.54319 -20.29553,0.43833 -27.79743,-1.91075M231.36522,204.1693c0.39938,2.51503 1.30548,3.76972 1.98576,4.31732c1.26317,1.02008 3.56171,1.12157 3.56171,1.12157c0,0 -6.90253,1.46681 -11.07601,-3.64662c-0.44352,-0.54355 -0.89211,-1.10759 -1.32277,-1.7117M255.60149,158.65688c0,0 25.67041,1.30996 26.64985,15.20127" fill="#be1e2d"/><path d="M287.66339,179.51331c-0.24484,10.05733 -10.99462,21.29032 -27.73251,23.45781c-14.77623,1.92172 -37.17433,-3.20444 -41.22234,-15.26671c-0.40318,-1.21255 -0.65515,-2.39325 -0.78172,-3.53588l0.339,0.21258c1.24236,1.5693 2.57527,2.67019 3.85985,3.64816c4.86255,3.7111 10.269,0.3409 10.269,0.3409c0,0 -1.95591,0.55936 -3.28623,-0.0553c-1.29414,-0.60187 -3.79995,-3.19395 -4.8356,-12.08433c-1.17062,-10.04966 5.29272,-17.78379 5.29272,-17.78379l0.0079,-0.23343c5.32118,1.07782 15.92506,3.26321 19.80464,4.36057c5.27432,1.48812 14.73763,3.27918 14.73763,3.27918c0,0 -1.3502,-2.651 -4.67348,-4.93372c-1.66342,-1.14164 -2.79703,-1.77016 -3.51439,-2.11396l0.65375,0.05586c0,0 19.8279,1.517 24.03569,9.97068c4.0916,8.21466 0.56192,17.50553 0.56192,17.50553c0,0 4.16062,-1.84109 6.34217,-6.84211z" fill="#e6e7e8"/></g><path d="M241.64666,179.15793v0v0v0v0v0c0.6917,0.27686 1.02592,1.06105 0.74717,1.75253c-0.27705,0.69349 -1.05766,1.02809 -1.7551,0.75424c-0.0398,-0.017 -4.08156,-1.60061 -8.28157,-0.85523c-0.12915,0.02221 -0.25566,0.0275 -0.38003,0.01402c-0.5817,-0.06307 -1.07722,-0.50433 -1.18467,-1.10813c-0.06415,-0.35287 0.02409,-0.69917 0.21011,-0.97786c-0.22765,-0.24748 -0.43481,-0.5578 -0.55705,-0.96777c-0.14399,-0.47559 0.12602,-0.97871 0.60331,-1.12171c0.47232,-0.13801 0.97821,0.12324 1.1228,0.60262c0.1143,0.38184 0.54866,0.53485 0.55383,0.53721c0.12843,0.0438 0.23726,0.11716 0.32804,0.20666c0.13554,-0.01337 0.27195,-0.02756 0.40501,-0.03575c-0.11528,-0.22252 -0.21801,-0.46913 -0.26402,-0.7639c-0.07514,-0.49256 0.26236,-0.94956 0.75504,-1.02561c0.49673,-0.08014 0.95114,0.26435 1.02561,0.75504c0.05977,0.39223 0.45722,0.61003 0.4606,0.61221c0.18707,0.08737 0.31568,0.2371 0.4032,0.40773c3.22201,0.19811 5.66883,1.1579 5.80773,1.2137z" data-paper-data="{&quot;index&quot;:null}" fill="#231f20" stroke="none" stroke-width="0.90024" stroke-linecap="butt" stroke-linejoin="miter"/><path d="M273.3943,174.04687v0v0v0v0v0c0.01307,0.81839 -0.35744,1.38835 -0.68163,1.75329c0.15064,0.22648 0.25914,0.48778 0.24991,0.78059c-0.02384,0.74437 -0.63021,1.33088 -1.39169,1.30877c-2.8869,-0.08914 -6.48975,0.4252 -7.04804,1.30516c-0.20192,0.31657 -0.51168,0.52104 -0.85413,0.59434c-0.33716,0.07216 -0.69815,0.01587 -1.01054,-0.18325c-0.62864,-0.39948 -0.81447,-1.23335 -0.41374,-1.86419c1.07951,-1.69661 3.99839,-2.28363 6.39329,-2.47595c0.09262,-0.12199 0.23027,-0.36037 0.1887,-0.64059c-0.0787,-0.48854 0.21402,-0.97479 0.74506,-1.03127c0.49028,-0.07917 0.95084,0.2531 1.03126,0.74497c0.04798,0.31013 0.02768,0.58516 -0.01599,0.84118c0.12037,-0.00092 0.23491,-0.00334 0.34307,-0.00154c0.06136,-0.1605 0.14922,-0.30909 0.29932,-0.41667c0.02163,-0.01936 0.37013,-0.29653 0.36518,-0.6895c-0.00512,-0.49693 0.38205,-0.91217 0.88733,-0.91263c0.49693,-0.00512 0.9045,0.38921 0.91263,0.88733z" data-paper-data="{&quot;index&quot;:null}" fill="#231f20" stroke="none" stroke-width="0.90024" stroke-linecap="butt" stroke-linejoin="miter"/><g data-paper-data="{&quot;index&quot;:null}" stroke-linejoin="miter"><path d="M209.6652,169.85515c0.76115,12.95636 -0.28019,23.55697 -5.60975,23.87007c-5.32956,0.3131 -13.92742,-9.72124 -14.68857,-22.67759c-0.76115,-12.95636 6.60263,-23.92842 11.9322,-24.2415c5.32956,-0.3131 7.60498,10.09267 8.36614,23.04902z" fill="url(#color-1)" stroke="#000000" stroke-width="0.90024" stroke-linecap="butt"/><path d="M194.82116,155.75574l1.92947,-2.96601" fill="none" stroke="#ea42a4" stroke-width="2" stroke-linecap="round"/><path d="M201.83969,160.03827l3.35175,-0.57077" fill="none" stroke="#ea42a4" stroke-width="2" stroke-linecap="round"/><path d="M197.49431,167.87903l0.2893,-1.87518" fill="none" stroke="#ea42a4" stroke-width="2" stroke-linecap="round"/><path d="M196.43781,175.97124l1.78303,2.13091" fill="none" stroke="#ea42a4" stroke-width="2" stroke-linecap="round"/><path d="M206.58593,181.95249l1.5773,-0.2686" fill="none" stroke="#ea42a4" stroke-width="2" stroke-linecap="round"/><path d="M201.5526,190.51904l-1.8416,-0.09215" fill="none" stroke="#ea42a4" stroke-width="2" stroke-linecap="round"/><path d="M193.92114,180.25451l1.42228,2.39523" fill="none" stroke="#ea42a4" stroke-width="2" stroke-linecap="round"/><path d="M192.86743,170.49288l-1.51872,-1.77017" fill="none" stroke="#ea42a4" stroke-width="2" stroke-linecap="round"/><path d="M192.63596,160.79408l-0.2686,-1.5773" fill="none" stroke="#ea42a4" stroke-width="2" stroke-linecap="round"/><path d="M204.4692,150.46091l-2.29021,3.23032" fill="none" stroke="#ea42a4" stroke-width="2" stroke-linecap="round"/></g><g data-paper-data="{&quot;index&quot;:null}" stroke-linejoin="miter"><path d="M300.07992,138.19181c5.337,-0.13711 13.59915,10.17539 13.93249,23.1498c0.33333,12.97442 -7.38838,23.69757 -12.72538,23.83469c-5.337,0.13711 -7.26792,-10.33806 -7.60124,-23.31246c-0.33333,-12.97442 1.05714,-23.53492 6.39413,-23.67202z" fill="url(#color-2)" stroke="#000000" stroke-width="0.90025" stroke-linecap="butt"/><path d="M307.28896,146.56373l-2.17253,-2.79286" fill="none" stroke="#ea42a4" stroke-width="2" stroke-linecap="round"/><path d="M300.65626,151.42244l-3.38793,-0.2863" fill="none" stroke="#ea42a4" stroke-width="2" stroke-linecap="round"/><path d="M305.2006,157.02502l0.44629,1.84412" fill="none" stroke="#ea42a4" stroke-width="2" stroke-linecap="round"/><path d="M307.38155,166.84355l-1.59713,2.27359" fill="none" stroke="#ea42a4" stroke-width="2" stroke-linecap="round"/><path d="M296.17922,173.52394l1.59432,0.13474" fill="none" stroke="#ea42a4" stroke-width="2" stroke-linecap="round"/><path d="M303.51079,181.77063l1.82729,-0.247" fill="none" stroke="#ea42a4" stroke-width="2" stroke-linecap="round"/><path d="M309.03479,173.40608l1.21538,-2.50656" fill="none" stroke="#ea42a4" stroke-width="2" stroke-linecap="round"/><path d="M310.47757,161.0838l1.36415,-1.89185" fill="none" stroke="#ea42a4" stroke-width="2" stroke-linecap="round"/><path d="M309.89094,151.40001l0.13474,-1.59433" fill="none" stroke="#ea42a4" stroke-width="2" stroke-linecap="round"/><path d="M299.7833,145.12657l-2.55427,-3.02584" fill="none" stroke="#ea42a4" stroke-width="2" stroke-linecap="round"/></g><g stroke-linecap="butt" stroke-linejoin="miter"><g stroke="#000000" stroke-width="1"><path d="M251.56209,213.14454h55.67854v24.113h-55.67854z" fill="url(#color-3)"/><path d="M256.5013,208.72383h55.67854l-4.93922,4.42072h-55.67855z" fill="#9966ff"/><path d="M307.4912,213.1176l4.71472,-4.21977l-0.67354,24.51489l-4.49021,3.91836z" fill="url(#color-4)"/></g><path d="M304.73979,213.99646c0.44092,0 0.79835,0.15996 0.79835,0.35728c0,0.19732 -0.35743,0.35727 -0.79835,0.35727c-0.44092,0 -0.79836,-0.15995 -0.79836,-0.35727c0,-0.19732 0.35744,-0.35728 0.79836,-0.35728z" fill="#b9b9b9" stroke="none" stroke-width="0.5"/><path d="M304.38497,235.9091c0.44092,0 0.79835,0.15995 0.79835,0.35727c0,0.19732 -0.35743,0.35727 -0.79835,0.35727c-0.44092,0 -0.79836,-0.15995 -0.79836,-0.35727c0,-0.19732 0.35744,-0.35727 0.79836,-0.35727z" fill="#b9b9b9" stroke="none" stroke-width="0.5"/><path d="M253.46788,236.22667c0.44091,0 0.79835,0.15996 0.79835,0.35727c0,0.19732 -0.35744,0.35727 -0.79835,0.35727c-0.44091,0 -0.79835,-0.15995 -0.79835,-0.35727c0,-0.19732 0.35744,-0.35727 0.79835,-0.35727z" fill="#b9b9b9" stroke="none" stroke-width="0.5"/><path d="M252.93564,213.83767c0.44091,0 0.79835,0.15995 0.79835,0.35727c0,0.19732 -0.35744,0.35727 -0.79835,0.35727c-0.44091,0 -0.79835,-0.15995 -0.79835,-0.35727c0,-0.19732 0.35744,-0.35727 0.79835,-0.35727z" fill="#b9b9b9" stroke="none" stroke-width="0.5"/></g><g stroke="#000000" stroke-width="1" stroke-linecap="butt" stroke-linejoin="miter"><path d="M256.83108,225.14221c0,-5.20726 4.22132,-9.42857 9.42857,-9.42857c5.20725,0 9.42857,4.22132 9.42857,9.42857c0,5.20726 -4.22132,9.42857 -9.42857,9.42857c-5.20725,0 -9.42857,-4.22132 -9.42857,-9.42857z" fill="#8499b1"/><path d="M260.06373,225.54629c0,-3.04996 2.47248,-5.52245 5.52245,-5.52245c3.04996,0 5.52245,2.47249 5.52245,5.52245c0,3.04996 -2.47249,5.52244 -5.52245,5.52244c-3.04996,0 -5.52245,-2.47248 -5.52245,-5.52244z" fill="#92c5ff"/></g><g stroke="#000000" stroke-width="1" stroke-linecap="butt" stroke-linejoin="miter"><path d="M280.83108,225.17792c0,-5.20726 4.22132,-9.42857 9.42857,-9.42857c5.20725,0 9.42857,4.22132 9.42857,9.42857c0,5.20726 -4.22132,9.42857 -9.42857,9.42857c-5.20725,0 -9.42857,-4.22132 -9.42857,-9.42857z" fill="#8499b1"/><path d="M284.06373,225.58201c0,-3.04996 2.47249,-5.52245 5.52245,-5.52245c3.04996,0 5.52245,2.47249 5.52245,5.52245c0,3.04996 -2.47249,5.52245 -5.52245,5.52245c-3.04996,0 -5.52245,-2.47248 -5.52245,-5.52245z" fill="#92c5ff"/></g><path d="M303.73584,192.24697l-4,18.57143" fill="none" stroke="#000000" stroke-width="2" stroke-linecap="round" stroke-linejoin="miter"/><g data-paper-data="{&quot;index&quot;:null}" stroke="#001026" stroke-width="0.9" stroke-linejoin="miter"><g><path d="M240.01805,213.49108c0,0 -2.10769,0.15513 -2.87811,-0.20559c-0.72635,-0.34009 -1.61997,-1.9005 -1.61997,-1.9005l2.98842,-14.29207l8.52755,2.96694l-7.01791,13.43123z" fill="#505a63" stroke-linecap="butt"/><path d="M247.82653,199.34283c-0.91206,2.6214 -3.77649,4.00712 -6.39789,3.09507c-2.62141,-0.91205 -4.00711,-3.77649 -3.09506,-6.39789c0.91205,-2.62139 3.77649,-4.00711 6.39789,-3.09506c2.6214,0.91206 4.00711,3.77649 3.09506,6.39789z" fill="url(#color-5)" stroke-linecap="butt"/><path d="M246.59878,194.38694c0,0 -0.33699,2.65731 -0.80453,3.95348c-0.50025,1.38686 -2.10551,4.11397 -2.10551,4.11397" fill="none" stroke-linecap="round"/><path d="M242.76112,193.25807c0,0 -0.29282,1.80783 -0.76102,2.83236c-0.63369,1.3866 -2.6972,4.73482 -2.6972,4.73482" fill="none" stroke-linecap="round"/><path d="M239.4475,194.47836c0,0 3.32972,0.85914 4.60685,1.65213c1.46798,0.91147 3.70851,3.51097 3.70851,3.51097" fill="none" stroke-linecap="round"/><path d="M237.99863,196.86331c0,0 2.31196,1.12028 3.34657,1.91756c1.33091,1.02565 3.97629,3.72565 3.97629,3.72565" fill="none" stroke-linecap="round"/></g><path d="M235.18289,206.16277c0.61351,-1.7464 2.45465,-2.50395 4.11232,-1.69201c1.65767,0.81194 2.4697,3.43023 1.85618,5.17663c-0.61351,1.74641 -2.42024,1.95963 -4.07789,1.14768c-1.65767,-0.81195 -2.50412,-2.8859 -1.89062,-4.6323z" fill="#be1e2d" stroke-linecap="butt"/></g><path d="M257.54698,190.39502c0.11324,2.83806 -1.20095,5.19488 -2.93532,5.26408c-1.73437,0.0692 -3.23216,-2.17541 -3.3454,-5.01347c-0.11324,-2.83806 1.20095,-5.19488 2.93532,-5.26408c1.73437,-0.0692 3.23216,2.17541 3.3454,5.01347z" fill="#58595b" stroke="#231f20" stroke-width="0.9025" stroke-linecap="butt" stroke-linejoin="miter"/></g></g></svg>