<svg version="1.1" xmlns="http://www.w3.org/2000/svg" xmlns:xlink="http://www.w3.org/1999/xlink" width="168.13905" height="197.75447" viewBox="0,0,168.13905,197.75447"><defs><radialGradient cx="219.8496" cy="201.3463" r="32.56883" gradientUnits="userSpaceOnUse" id="color-1"><stop offset="0" stop-color="#0006ff"></stop><stop offset="1" stop-color="#00e4ff"></stop></radialGradient><radialGradient cx="200.87293" cy="134.04207" r="62.64859" gradientUnits="userSpaceOnUse" id="color-2"><stop offset="0" stop-color="#0006ff"></stop><stop offset="1" stop-color="#00e4ff"></stop></radialGradient><radialGradient cx="168.69913" cy="205.61528" r="9.88717" gradientUnits="userSpaceOnUse" id="color-3"><stop offset="0" stop-color="#0006ff"></stop><stop offset="1" stop-color="#00e4ff"></stop></radialGradient><radialGradient cx="299.71583" cy="207.69896" r="12.01308" gradientUnits="userSpaceOnUse" id="color-4"><stop offset="0" stop-color="#0006ff"></stop><stop offset="1" stop-color="#00e4ff"></stop></radialGradient></defs><g transform="translate(-157.9083,-70.13484)"><g data-paper-data="{&quot;isPaintingLayer&quot;:true}" fill-rule="nonzero" stroke="none" stroke-width="0.5" stroke-linecap="butt" stroke-linejoin="miter" stroke-miterlimit="10" stroke-dasharray="" stroke-dashoffset="0" style="mix-blend-mode: normal"><path d="M277.75035,190.90255l-0.04451,3.4436c-2.62249,15.54491 -1.1056,32.43227 -1.1056,48.19499c0,5.40983 1.75805,15.28513 -1.45218,19.9519c-0.09623,0.13988 -0.19598,0.27668 -0.29892,0.41071l0.05164,0.03472l-2.27205,3.43866c-0.5824,0.9099 -1.59636,1.51219 -2.74973,1.51219c-1.4714,0 -2.71587,-0.98025 -3.12693,-2.32884l-1.12625,-3.40904l0.16551,-0.05567l-0.29113,-0.45932c-0.02592,-2.74485 -0.22623,-5.49295 -0.58835,-8.21352c-0.18838,-1.41524 -0.55788,-3.62462 -0.74993,-5.58912c-0.22374,0.3038 -0.4421,0.61062 -0.61643,0.9371c-1.56572,2.93255 -3.74604,8.33591 -6.18485,10.48127c-2.00066,1.75994 -4.43465,4.38845 -7.02162,3.78917c-2.12645,-0.49259 -1.94766,-3.95306 -2.66314,-6.03267c-1.60947,-4.678 -2.19532,-9.70355 -2.88785,-14.58803c-0.04489,-0.31662 -0.10438,-0.63189 -0.17261,-0.9463c-1.25508,4.42924 -2.21734,8.9449 -3.89784,13.30514c-0.29268,0.75941 -3.0621,7.38628 -3.7365,8.10698c-0.07933,0.08478 -0.15994,0.16814 -0.24172,0.25015l0.04066,0.03282l-2.28133,2.87723c-0.59887,0.76871 -1.52882,1.26243 -2.57304,1.26243c-1.55664,0 -2.8593,-1.09715 -3.18986,-2.56683l-1.13351,-4.57469c-1.63268,-6.72539 -2.43475,-14.17039 -2.39787,-21.10775c0.00069,-0.12941 0.00084,-0.2603 0.00081,-0.39238c-1.54194,2.53313 -3.17614,4.78586 -4.95793,7.48023c-1.1226,1.69755 -1.49607,3.93712 -2.96184,5.34332c-0.11003,0.10557 -0.22254,0.2078 -0.3373,0.30703l0.03886,0.03921l-2.87527,2.90103c-0.59192,0.59723 -1.40965,0.96662 -2.31289,0.96662c-1.80648,0 -3.27093,-1.47759 -3.27093,-3.30027v-3.48126h0.09149l-0.08035,-0.27222c0.64687,-3.72368 -0.00716,-6.97824 -0.01115,-10.75177c-0.00722,-6.82346 0.00421,-14.2314 -1.10786,-20.93909c-0.6223,-3.75349 -2.01141,-7.38716 -2.3313,-11.28041c-0.51203,-6.23194 -0.56219,-13.0065 -0.06805,-19.46498c-11.76516,-7.27156 -20.99801,-19.68503 -26.15929,-31.79483c-6.56639,-18.05145 1.57061,-39.11828 15.97961,-50.83443c9.61235,-7.81596 22.86765,-12.18937 35.10029,-15.8051c4.19819,-4.84894 9.53526,-6.98581 14.49327,-10.98777c21.65365,-13.17014 53.59955,-6.29412 66.80452,16.14322c3.69842,6.28421 3.88458,14.15523 3.865,21.20196c-3.63116,14.65494 -1.88529,31.03324 -7.07754,45.41312c-4.95825,13.73181 -17.24238,24.61252 -30.38072,30.56552c0.10449,0.45365 0.10449,0.7859 0.10449,0.7859zM209.38622,177.1917c3.23805,0.46674 2.77548,3.73383 2.77548,3.73383c-0.07827,0.54445 -0.1498,1.08823 -0.21491,1.63139c1.93457,0.94234 3.93133,1.71503 5.98147,2.28779c6.02025,1.68197 12.70286,2.54731 18.86656,3.58228c8.4983,1.42697 18.53038,2.92162 27.02557,0.4583c2.69283,-0.78082 5.13955,-2.25308 7.71505,-3.36615c12.76121,-4.81733 25.58466,-14.98717 30.35217,-28.24854c4.98449,-13.86493 3.21788,-29.79003 6.72367,-43.93903c-0.01965,-5.53744 -0.0606,-12.1533 -3.03561,-17.09181c-11.41368,-18.94675 -38.80845,-25.22656 -57.40643,-14.02765c-2.30938,1.86408 -4.77887,3.258 -7.1379,4.77385c0.14073,0.2499 0.26285,0.53985 0.35997,0.87579c0.91586,3.16825 -2.22423,4.09233 -2.22423,4.09233c-1.61703,0.47586 -3.22022,0.96106 -4.81134,1.45867c-0.48157,0.55654 -1.23894,0.9942 -2.43008,0.9942c-0.20205,0 -0.39162,-0.01259 -0.56948,-0.03622c-8.59505,2.80448 -16.86471,6.03414 -25.09581,10.18236c-4.35171,2.19315 -8.55148,4.35556 -11.78998,8.20012c-2.73269,3.2441 -4.5661,7.16123 -6.88774,10.7164c-2.98119,4.56512 -4.16566,9.78853 -4.14062,15.2142c0.02127,4.60789 -0.18545,8.92493 1.48902,13.27406c4.18431,9.8892 11.632,20.37236 21.0604,27.04984c0.41449,-0.9197 1.35271,-2.11031 3.39475,-1.81598zM215.06982,237.89947c-0.0016,1.41219 0.07586,2.75565 0.14768,4.07883c0.83315,-0.98296 1.71732,-1.95488 2.54043,-3.08884c1.22597,-1.68897 3.09198,-5.74281 3.8082,-7.18891l0.06367,-0.06876l-0.01974,-0.01139l2.2687,-4.00584c0.55529,-1.02404 1.63299,-1.7185 2.87146,-1.7185c1.37554,0 2.55278,0.8567 3.03616,2.07014l1.69545,3.99155l-0.05517,0.02386c0.092,0.20007 0.17663,0.40411 0.25284,0.6126c0.41916,1.14683 -0.15338,8.85803 0.05358,10.81095c0.4076,3.84603 0.76974,7.87392 1.47732,11.74171c0.51407,-0.9329 1.06669,-1.87045 1.42436,-2.7962c2.62733,-6.80021 3.61393,-13.89359 6.45466,-20.59536l0.17288,-0.15595l-0.06537,-0.03958l1.6943,-2.84918c0.56499,-0.98867 1.62328,-1.65417 2.83564,-1.65417c1.58509,0 2.90686,1.13762 3.20702,2.64779l1.13613,5.15843l-0.00812,0.00182c0.00714,0.02026 0.01424,0.04055 0.0213,0.06083c2.01983,5.80019 0.54583,6.54574 1.71754,12.1474c0.36818,1.76017 1.2437,3.37786 1.70104,5.1166c0.05653,0.2149 0.1199,0.43147 0.18466,0.64928c0.63153,-0.88244 1.32303,-1.7324 1.86249,-2.67064c1.11685,-1.94242 5.48916,-12.52123 8.05562,-12.62513c2.62797,-0.1064 4.89199,2.51866 6.34729,4.72906c0.03729,0.05662 0.07276,0.11395 0.10651,0.17193c-0.00556,-16.15284 -1.3907,-33.24104 1.19462,-49.1828l-0.00822,-0.43544c-2.38439,1.03087 -5.47737,2.36324 -5.65807,2.41508c-9.47453,2.71843 -20.36844,1.29201 -29.86581,-0.30272c-6.41902,-1.07784 -13.44651,-1.98013 -19.70046,-3.77964c-1.55777,-0.44823 -3.08625,-0.99154 -4.58284,-1.62071c-0.4746,16.24482 3.65058,32.0496 3.63222,48.36188z" fill="#000000"></path><path d="M211.39332,189.48899c1.49658,0.62921 3.02789,1.17001 4.58566,1.61826c6.25395,1.79952 13.30967,2.68823 19.72868,3.76607c9.49737,1.59474 20.44837,3.03679 29.92288,0.31837c0.1807,-0.05186 3.27661,-1.38136 5.661,-2.41223l0.00856,0.43578c-2.58532,15.94176 -1.19354,33.11337 -1.18798,49.2662c-0.03376,-0.05797 -0.17684,-0.19038 -0.21412,-0.24701c-1.4553,-2.21041 -3.61129,-4.761 -6.23926,-4.65459c-2.56646,0.1039 -6.96297,10.7044 -8.07983,12.64682c-0.53947,0.93824 -1.2362,1.79064 -1.86773,2.67308c-0.06476,-0.21777 -0.17781,-0.55649 -0.23433,-0.7714c-0.45734,-1.73874 -1.33368,-3.35611 -1.70185,-5.11627c-1.1717,-5.60166 0.29041,-6.34053 -1.72942,-12.14072c-0.00707,-0.02029 -0.01422,-0.04053 -0.02137,-0.06079l0.0081,-0.00181l-1.14566,-5.15017c-0.30015,-1.51018 -1.52985,-2.55405 -3.11495,-2.55405c-1.21235,0 -2.29977,0.68151 -2.86475,1.67018l-1.71098,2.85111l0.06582,0.03958l-0.17408,0.15592c-2.84074,6.70176 -3.84003,13.79356 -6.46736,20.59376c-0.35767,0.92575 -0.91177,1.86292 -1.42584,2.79583c-0.70758,-3.86778 -1.0812,-7.89972 -1.4888,-11.74576c-0.20697,-1.9529 0.34784,-9.67623 -0.07131,-10.82306c-0.07621,-0.20851 -0.16287,-0.41457 -0.25487,-0.61464l0.05524,-0.02379l-1.70736,-4.00876c-0.48338,-1.21345 -1.6653,-2.08334 -3.04084,-2.08334c-1.23847,0 -2.18993,0.66003 -2.74521,1.68406l-2.27208,3.99688l0.01972,0.01133l-0.06372,0.06867c-0.71622,1.4461 -2.58775,5.4903 -3.81372,7.17926c-0.82311,1.13396 -1.81342,2.18303 -2.64656,3.16601c-0.07182,-1.32318 -0.15322,-2.67265 -0.15164,-4.08486c0.01837,-16.31228 -4.09468,-32.19908 -3.62008,-48.44389z" data-paper-data="{&quot;noHover&quot;:false,&quot;origItem&quot;:[&quot;Path&quot;,{&quot;applyMatrix&quot;:true,&quot;segments&quot;:[[[220.06408,235.46885],[0.01404,-12.35677],[-0.00122,1.06976]],[[220.17695,238.55861],[-0.05489,-1.00232],[0.63678,-0.74461]],[[222.11861,236.21877],[-0.62911,0.85899],[0.93702,-1.27942]],[[225.02925,230.77307],[-0.54741,1.09544],[0,0]],[225.07791,230.72099],[225.06282,230.71237],[[226.79681,227.67789],[0,0],[0.42441,-0.77572]],[[228.9915,226.3761],[-0.94657,0],[1.05134,0]],[[231.31206,227.94426],[-0.36945,-0.9192],[0,0]],[232.60791,230.96792],[[232.56574,230.98599],[0,0],[0.07032,0.15156]],[[232.75899,231.45005],[-0.05825,-0.15795],[0.32037,0.86874]],[[232.79994,239.63949],[-0.15819,-1.47935],[0.31153,2.91342]],[[233.92907,248.53399],[-0.54081,-2.9299],[0.39291,-0.70669]],[[235.01772,246.41584],[-0.27337,0.70126],[2.00809,-5.15124]],[[239.95107,230.81459],[-2.1712,5.07667],[0,0]],[240.0832,230.69645],[240.03325,230.66648],[[241.32822,228.50819],[0,0],[0.43183,-0.74893]],[[243.49553,227.25514],[-0.92661,0],[1.2115,0]],[[245.94668,229.26088],[-0.22941,-1.14398],[0,0]],[246.81503,233.16846],[[246.80881,233.16984],[0,0],[0.00546,0.01535]],[[246.82509,233.21592],[-0.0054,-0.01537],[1.54377,4.39372]],[[248.13782,242.41774],[-0.89554,-4.24334],[0.2814,1.33335]],[[249.43794,246.29364],[-0.34955,-1.31712],[0.04321,0.1628]],[[249.57908,246.78547],[-0.0495,-0.16496],[0.48268,-0.66846]],[[251.00261,244.76242],[-0.41232,0.71072],[0.85362,-1.47141]],[[257.15959,235.19871],[-1.96157,0.07871],[2.00858,-0.0806]],[[262.01088,238.78104],[-1.1123,-1.67442],[0.0285,0.04289]],[[262.09229,238.91127],[-0.0258,-0.04391],[-0.00425,-12.236]],[[263.00535,201.65462],[-1.97598,12.0761],[0,0]],[[262.99907,201.32477],[0,0],[-1.82241,0.7809]],[[258.67456,203.15422],[0.13811,-0.03928],[-7.24146,2.05925]],[[235.84787,202.92492],[7.25892,1.20803],[-4.90611,-0.81647]],[[220.79064,200.06178],[4.77995,1.36316],[-1.19062,-0.33954]],[[217.28794,198.83406],[1.14385,0.47663],[-0.36274,12.30567]]],&quot;closed&quot;:true}]}" fill="url(#color-1)"></path><path d="M205.94806,179.05706c-9.42839,-6.6775 -16.89535,-17.19107 -21.07966,-27.08027c-1.67447,-4.34912 -1.4703,-8.67969 -1.49157,-13.28759c-0.02504,-5.42567 1.16012,-10.66554 4.14131,-15.23067c2.32164,-3.55516 4.15877,-7.48566 6.89146,-10.72977c3.23848,-3.84456 7.44596,-6.02116 11.79767,-8.2143c8.2311,-4.14824 16.53067,-7.40105 25.12572,-10.20553c0.17786,0.02363 0.3682,0.03592 0.57025,0.03592c1.19113,0 1.95244,-0.43896 2.43402,-0.99552c1.59112,-0.49757 3.20201,-0.98457 4.81904,-1.46043c0,0 3.14418,-0.92463 2.22831,-4.09289c-0.09712,-0.33596 -0.21961,-0.62585 -0.36035,-0.87575c2.35903,-1.51583 4.83833,-2.91009 7.14773,-4.77419c18.59798,-11.1989 46.04562,-4.8879 57.4593,14.05884c2.975,4.93851 3.02267,11.56908 3.04233,17.10652c-3.5058,14.14902 -1.74127,30.11984 -6.72577,43.98475c-4.7675,13.26137 -17.62223,23.46469 -30.38344,28.28201c-2.5755,1.11308 -5.03104,2.58895 -7.72388,3.36977c-8.49518,2.46332 -18.55836,0.97095 -27.05664,-0.45602c-6.1637,-1.03496 -12.86698,-1.90757 -18.88723,-3.58954c-2.05014,-0.57279 -4.05283,-1.34917 -5.9874,-2.29152c0.06512,-0.54314 0.13595,-1.08743 0.21422,-1.63189c0,0 0.45857,-3.27025 -2.77949,-3.73699c-2.04204,-0.29433 -2.98144,0.89526 -3.39593,1.81495z" data-paper-data="{&quot;noHover&quot;:false,&quot;origItem&quot;:[&quot;Path&quot;,{&quot;applyMatrix&quot;:true,&quot;segments&quot;:[[[215.72005,189.48188],[-1.56075,-0.22296],[2.47487,0.35356]],[[217.84137,192.3103],[0,0],[-0.05982,0.41243]],[[217.67712,193.5461],[0.04977,-0.41144],[1.47861,0.71383]],[[222.24881,195.27914],[-1.56694,-0.43389],[4.60133,1.27411]],[[236.66868,197.99275],[-4.71097,-0.784],[6.49532,1.08095]],[[257.32455,198.33992],[-6.49294,1.866],[2.05815,-0.59149]],[[263.22123,195.79002],[-1.96848,0.84318],[9.7535,-3.64919]],[[286.41965,174.39136],[-3.64384,10.04567],[3.80969,-10.50287]],[[291.55861,141.10694],[-2.67951,10.71807],[-0.01502,-4.19469]],[[289.23847,128.15965],[2.27382,3.74099],[-8.72357,-14.35242]],[[245.36225,117.53352],[14.21459,-8.48332],[-1.76508,1.41207]],[[239.90669,121.14978],[1.80303,-1.14827],[0.10756,0.18931]],[[240.18182,121.8132],[-0.07423,-0.25449],[0.7,2.4]],[[238.48182,124.9132],[0,0],[-1.23591,0.36047]],[[234.80447,126.01815],[1.21611,-0.37692],[-0.36807,0.42159]],[[232.94714,126.77127],[0.91039,0],[-0.15443,0]],[[232.51188,126.74383],[0.13594,0.0179],[-6.56927,2.12444]],[[213.33094,134.45711],[6.2911,-3.14235],[-3.32605,1.66133]],[[204.31977,140.66881],[2.4752,-2.91231],[-2.08862,2.45745]],[[199.0554,148.78662],[1.77445,-2.69308],[-2.27855,3.45814]],[[195.89069,160.31159],[-0.01914,-4.11002],[0.01626,3.49054]],[[197.02877,170.36687],[-1.27981,-3.29452],[3.1981,7.4912]],[[213.12541,190.85751],[-7.2062,-5.0583],[0.3168,-0.69669]]],&quot;closed&quot;:true}]}" fill="url(#color-2)"></path><path d="M247.45204,136.18193c-3.27093,0 -3.27093,-3.30027 -3.27093,-3.30027l0.12585,-3.22749c2.71652,-9.58649 4.25721,-19.26058 5.65753,-29.15073c0,0 0.46258,-3.2671 3.70064,-2.80038c3.23805,0.46674 2.77548,3.73381 2.77548,3.73381c-1.44232,10.18686 -3.0481,20.15199 -5.84349,30.03059l0.12585,1.41418c0,0 0,3.30027 -3.27093,3.30027z" fill="#000000"></path><path d="M261.03498,142.46569c-3.17326,-0.80043 -2.37996,-4.00216 -2.37996,-4.00216l0.64525,-2.56405c1.94181,-5.87344 2.98093,-11.81338 4.54387,-17.79651c1.33977,-5.12879 3.22184,-10.02628 3.94691,-15.27868c0,0 0.46258,-3.2671 3.70063,-2.80038c3.23805,0.46674 2.77548,3.73383 2.77548,3.73383c-0.80015,5.5314 -2.69004,10.65278 -4.1038,16.05257c-1.59894,6.10707 -2.67541,12.17438 -4.65694,18.17644l-0.50486,2.07763c0,0 -0.79332,3.20174 -3.96658,2.4013z" fill="#000000"></path><path d="M270.68189,153.88596c1.03436,3.1309 -2.06872,4.17454 -2.06872,4.17454l-3.6962,1.23246c-13.74072,2.30668 -35.51096,1.23221 -42.28854,-13.42809c-1.76095,-3.80904 -2.01221,-7.71534 -2.02441,-11.8228c0,0 0,-3.30027 3.27093,-3.30027c3.27093,0 3.27093,3.30027 3.27093,3.30027c-0.01234,3.55241 0.03899,8.34316 2.64227,11.17302c7.95244,8.64458 22.48423,9.53745 33.55188,7.67195l3.2044,-1.08837c0,0 3.10308,-1.04363 4.13744,2.08728z" fill="#000000"></path><path d="M168.38258,202.37356c-0.01303,-0.01754 -0.02585,-0.03503 -0.03849,-0.05251c-2.0129,1.67811 -4.18551,4.15 -3.88606,5.70453c0.61533,3.19439 6.84973,6.64078 9.94049,7.09664c1.94841,0.28737 4.16507,0.74313 5.90441,-0.18828c2.32476,-1.24489 4.72783,-9.50041 3.40157,-11.71003c-0.59626,-0.99339 -3.25065,-1.63511 -4.02831,-1.89371c-1.95552,0.02308 -3.91101,0.24682 -5.83893,0.57792l-0.87539,1.12548c0,0 -2.61674,1.98016 -4.5793,-0.66005zM175.57573,195.03228c1.71071,-0.16445 3.43248,-0.23004 5.14835,-0.21735c3.34686,1.13243 6.56367,1.59528 8.6228,5.0688c3.21411,5.42182 -0.37311,17.75984 -5.79924,20.78167c-1.74338,0.97089 -8.12965,1.30342 -10.19701,0.97215c-5.89193,-0.9441 -14.37477,-6.30233 -15.36174,-12.63047c-0.88958,-5.70372 5.7717,-12.80812 10.77762,-14.62893c1.42263,-0.51746 3.02201,-0.12402 4.53301,-0.18605c0,0 1.31388,0 2.2762,0.84018z" fill="#000000"></path><path d="M172.94643,202.96947l0.88658,-1.12721c1.92791,-0.33112 3.92764,-0.54121 5.88316,-0.5643c0.77767,0.2586 3.44952,0.92101 4.04579,1.91442c1.32627,2.20959 -1.0896,10.54491 -3.41435,11.78978c-1.73934,0.9314 -3.99929,0.49342 -5.9477,0.20604c-3.09075,-0.45584 -9.39193,-3.97078 -10.00726,-7.1652c-0.29945,-1.55454 1.89274,-4.071 3.90565,-5.74912c0.01264,0.01748 0.02541,0.03503 0.03844,0.05257c1.96256,2.64021 4.60968,0.64302 4.60968,0.64302z" data-paper-data="{&quot;noHover&quot;:false,&quot;origItem&quot;:[&quot;Path&quot;,{&quot;applyMatrix&quot;:true,&quot;segments&quot;:[[[177.32617,205.32369],[1.5,2],[-0.00996,-0.01328]],[[177.29675,205.28391],[0.00966,0.01324],[-1.53848,1.2712]],[[174.32661,209.60517],[-0.22887,-1.17758],[0.4703,2.4198]],[[181.92421,214.98097],[-2.36229,-0.34531],[1.48919,0.21768]],[[186.437,214.83835],[-1.32939,0.70555],[1.77683,-0.94302]],[[189.03685,205.96785],[1.01368,1.6738],[-0.45573,-0.75251]],[[185.95798,204.53334],[0.59438,0.1959],[-1.49462,0.01749]],[[181.49524,204.97112],[1.47352,-0.25082],[0,0]],[180.82617,205.82369]],&quot;closed&quot;:true}]}" fill="url(#color-3)"></path><path d="M296.56303,203.36114c-0.38636,1.43329 -0.46452,3.21107 -0.47688,4.91803c-0.0137,1.89368 -0.55331,3.17428 0.85417,4.72014c1.85829,2.041 6.4723,2.09253 8.99783,2.45787c2.19188,0.31706 7.64317,1.50908 9.94649,0.73172c3.68855,-1.24483 4.51441,-7.41729 3.7067,-10.48634c-6.92309,-3.32935 -13.35513,-4.56689 -21.02562,-4.56689l1.77551,0.4965c0,0 -1.25941,2.5414 -3.77821,1.72896zM304.32529,194.75274c7.29517,0.59136 13.86499,2.48351 20.36897,6.81968c2.54243,7.23017 2.11052,17.51322 -6.64422,20.84493c-3.24991,1.23679 -9.79043,0.04042 -13.05553,-0.42868c-4.14587,-0.59565 -9.86882,-1.07121 -12.8541,-4.50465c-4.66563,-5.36602 -3.91733,-18.21605 2.25425,-22.35577c4.40265,-2.95317 5.53469,-1.69025 9.80583,-0.42376c0,0 0.04595,0.01547 0.12481,0.04823z" fill="#000000"></path><path d="M300.29348,201.58708l-1.77856,-0.49296c7.67049,0 14.21663,1.26235 21.13971,4.59172c0.80772,3.06906 -0.0333,9.30299 -3.72185,10.54781c-2.30332,0.77732 -7.82155,-0.39617 -10.01344,-0.71324c-2.52554,-0.36534 -7.18186,-0.45667 -9.04016,-2.49766c-1.40748,-1.54587 -0.87208,-2.85271 -0.85837,-4.7464c0.01235,-1.70697 0.09677,-3.51018 0.48312,-4.94348c2.5188,0.81244 3.78956,-1.74579 3.78956,-1.74579z" data-paper-data="{&quot;noHover&quot;:false,&quot;origItem&quot;:[&quot;Path&quot;,{&quot;applyMatrix&quot;:true,&quot;segments&quot;:[[[285.03743,207.56997],[1.92514,0.61544],[-0.2953,1.08573]],[[284.67295,211.29546],[0.00944,-1.29306],[-0.01047,1.43449]],[[285.3258,214.87103],[-1.07575,-1.17101],[1.42031,1.54608]],[[292.20292,216.7329],[-1.93029,-0.27675],[1.67527,0.24018]],[[299.80511,217.2872],[-1.76045,0.58884],[2.81919,-0.94297]],[[302.63817,209.34365],[0.61735,2.32485],[-5.29138,-2.52203]],[[286.56811,205.88417],[5.86262,0],[0,0]],[287.92515,206.26027]],&quot;closed&quot;:true}]}" fill="url(#color-4)"></path><path d="M292.81461,115.81053c-3.20741,-0.64724 -2.56593,-3.88341 -2.56593,-3.88341l0.55603,-1.71124c-1.37083,-8.45998 -3.9182,-17.37453 -11.22281,-22.73467c-2.44503,-1.79417 -5.67917,-2.09424 -8.5205,-3.13654c0,0 -3.07399,-1.12785 -1.95619,-4.22942c1.11782,-3.10156 4.19182,-1.97374 4.19182,-1.97374c3.31544,1.21664 7.00531,1.76414 9.88112,3.82596c8.9442,6.41258 12.34737,16.84771 14.07942,27.16327l-0.59407,4.09085c0,0 -0.64148,3.23618 -3.84889,2.58895z" fill="#d3faff"></path></g></g></svg>