<svg version="1.1" xmlns="http://www.w3.org/2000/svg" xmlns:xlink="http://www.w3.org/1999/xlink" width="100.65817" height="114.24773" viewBox="0,0,100.65817,114.24773"><defs><radialGradient cx="277.98346" cy="178.27723" r="7.3567" gradientUnits="userSpaceOnUse" id="color-1"><stop offset="0" stop-color="#54606d"/><stop offset="1" stop-color="#2c3136"/></radialGradient></defs><g transform="translate(-182.79977,-123.44886)"><g data-paper-data="{&quot;isPaintingLayer&quot;:true}" stroke-miterlimit="10" stroke-dasharray="" stroke-dashoffset="0" style="mix-blend-mode: normal"><path d="M245.03478,201.42964c0.02455,0.74583 0.09679,2.13725 0.09719,3.96977c0.00077,3.48 -0.25744,8.55075 -1.593,13.81176l-0.12582,0.39264c-0.12582,0.39264 0.19369,0.82614 0.63904,0.86697c2.93558,-0.17991 8.64863,-0.28476 7.19479,5.28538c-1.34846,5.40015 -18.54888,6.38272 -19.47985,0.86336c-0.18846,-2.35256 1.30236,-3.42837 2.11664,-3.98244c0.43348,-0.31952 0.69699,-0.74444 0.87553,-1.22208c0.29247,-1.23064 0.77204,-3.52192 0.90311,-5.44099c0.39651,-4.81382 0.15866,-6.13798 -0.06208,-8.62822c-0.22075,-2.49024 -0.9409,-8.34953 3.7286,-9.80752c3.98106,-1.29658 5.58199,1.81422 5.70587,3.89139z" fill="#ffab19" fill-rule="evenodd" stroke="#001026" stroke-width="1.2" stroke-linecap="round" stroke-linejoin="round"/><path d="M230.37125,202.95158c4.1259,0.71199 6.65376,5.19995 5.79357,7.09469c-0.32648,0.67103 -0.1146,12.39701 -3.75182,16.42596l-0.29458,0.28848c-0.29457,0.28849 -0.21439,0.821 0.16038,1.06503c2.68002,1.21141 7.78121,3.7859 3.89505,8.03299c-3.7136,4.14597 -19.38319,-3.01532 -17.62971,-8.33088c0.93166,-2.16841 2.75229,-2.4238 3.73105,-2.53361c0.53251,-0.0802 0.96393,-0.33294 1.3448,-0.67198c0.83318,-0.95175 2.32698,-2.75411 3.33884,-4.39002c2.59802,-4.07189 -1.39761,-17.87132 3.41245,-16.98066z" data-paper-data="{&quot;index&quot;:null}" fill="#ffab19" fill-rule="evenodd" stroke="#001026" stroke-width="1.2" stroke-linecap="round" stroke-linejoin="round"/><g fill-rule="evenodd"><path d="M230.89392,201.4726c0.50341,0.7393 1.54879,2.35399 -2.20441,4.15218c-3.7532,1.79819 -10.11869,-0.95509 -10.81714,-1.34517c-2.75527,-1.42425 -6.07293,-3.27712 -9.05718,-6.54733c-8.70104,-9.44098 -2.4008,-20.92693 2.02812,-20.85873c4.34162,0.01943 1.87628,7.9202 4.28892,14.88003c1.02264,3.09099 3.16446,5.20348 5.01603,6.81025c2.67587,2.18167 10.20369,2.03341 10.74564,2.90878z" fill="#ffab19" stroke="#001026" stroke-width="1.2" stroke-linecap="round" stroke-linejoin="round"/><path d="M213.19139,182.30832c0.08039,3.13744 0.93403,7.96666 0.93403,7.96666c0,0 -2.79151,-2.58987 -5.45387,-2.12961c-2.11809,0.30607 -2.84159,2.42185 -3.00829,3.13053c-0.50111,-1.76886 -1.02034,-4.12055 -0.18681,-7.66388c0.83353,-3.54333 3.75451,-6.72263 5.7932,-6.27127c1.94117,0.62596 1.64631,2.17937 1.92175,4.96759z" fill="#ffffff" stroke="none" stroke-width="1" stroke-linecap="butt" stroke-linejoin="miter"/></g><path d="M247.17169,187.43084c0.56562,0.30013 7.89715,6.24139 9.52789,4.10114c1.96803,-2.50935 4.4488,-7.1511 8.59925,-4.57743c4.15045,2.57366 -1.49068,9.33959 -4.06148,11.35229c-6.20388,4.32803 -12.80259,-0.42876 -14.27896,-1.77795c-1.47639,-1.34918 -4.04147,-3.61199 -4.52455,-6.16672c-0.42198,-2.76983 2.78876,-4.08936 4.73786,-2.93133z" fill="#ffab19" fill-rule="evenodd" stroke="#001026" stroke-width="1.2" stroke-linecap="round" stroke-linejoin="round"/><g fill-rule="evenodd"><path d="M232.31787,207.68068c-11.34553,-3.52403 -6.7934,-9.78008 -6.57284,-15.28292c0.36092,-4.78851 1.70445,-4.57656 7.59346,-6.23773c3.25521,-1.10162 5.17273,-1.7444 7.08636,-2.83438c2.89319,-1.59044 4.54271,2.957 4.87865,5.59274c0,0 0.43665,3.93184 0.14343,6.21525c-0.3784,2.77611 -0.76456,4.65785 -1.42371,6.00526c0,0 -1.41604,2.89629 -3.45919,4.03815c-1.83657,1.0264 -8.24616,2.50363 -8.24616,2.50363z" fill="#ffab19" stroke="#001026" stroke-width="1.2" stroke-linecap="round" stroke-linejoin="round"/><path d="M243.17625,201.45932c0,0 -1.88172,-0.38616 -3.98899,-0.99399c-2.59996,-0.69299 -5.06342,-1.11882 -4.69279,-4.78933c0.51101,-2.95616 0.56898,-6.57923 5.89568,-6.04409c5.0576,0.44803 4.50303,3.53873 4.50303,3.53873c0.08822,5.00821 -1.71694,8.28867 -1.71694,8.28867z" fill="#ffffff" stroke="none" stroke-width="1" stroke-linecap="butt" stroke-linejoin="miter"/></g><g fill-rule="evenodd"><path d="M247.03314,128.73867c0.28067,-0.22634 0.78766,-0.17201 0.92347,0.21729l3.55798,10.42069c0,0 6.79921,4.10132 8.99015,7.21577c3.68476,5.18773 4.19173,9.6602 4.19173,9.6602c0,0 7.26096,1.44863 8.97204,7.01659c1.71109,5.56796 -1.69315,16.72194 -20.08099,22.10868c-18.38785,5.38674 -33.88754,1.67466 -41.99041,-9.03578c-8.10287,-10.71044 1.81996,-25.26851 1.29484,-24.41749c0,0 -2.4745,-15.78294 -2.05804,-15.61998l11.86315,4.18538c0,0 4.32762,-2.1004 8.99022,-2.72506c2.7704,-0.45265 5.17864,-0.47075 7.50541,-0.28061z" fill="#ffab19" stroke="#001026" stroke-width="1.2" stroke-linecap="butt" stroke-linejoin="miter"/><path d="M264.43391,156.67813c0,0 7.03462,1.16796 8.7457,6.73592c1.71109,5.56796 -2.13677,16.2602 -20.33449,21.52925c-23.64799,7.17025 -36.40438,-6.12954 -30.69149,-17.29255c5.70384,-11.2626 17.98043,-3.24104 26.29161,-4.59902c7.12517,-1.14975 7.35156,-7.49631 15.98866,-6.3736z" fill="#ffffff" stroke="none" stroke-width="1" stroke-linecap="butt" stroke-linejoin="miter"/><path d="M282.85793,156.10789c-4.3367,4.20988 -11.49808,4.96127 -11.49808,4.96127" fill="none" stroke="#001026" stroke-width="1.2" stroke-linecap="round" stroke-linejoin="round"/><path d="M282.57719,167.37959c-6.22887,1.06827 -10.28485,-0.47086 -10.28485,-0.47086" fill="none" stroke="#001026" stroke-width="1.2" stroke-linecap="round" stroke-linejoin="round"/><path d="M247.81151,160.49862c2.09137,-0.19011 4.30045,-0.19009 4.46341,0.49798c0.22633,1.3852 -1.01403,4.30949 -2.59841,4.55393c-1.77451,0.36213 -6.18358,-1.74739 -6.32843,-3.34082c-0.20822,-1.18602 2.47163,-1.53003 4.46343,-1.71109z" fill="#001026" stroke="#001026" stroke-width="1.2" stroke-linecap="round" stroke-linejoin="round"/><path d="M202.86049,163.07855c0,0 8.81817,2.00995 12.58443,4.78038" fill="none" stroke="#001026" stroke-width="1.2" stroke-linecap="round" stroke-linejoin="round"/><path d="M216.06055,171.31741c-4.12844,2.08229 -11.59764,1.65672 -11.59764,1.65672" fill="none" stroke="#001026" stroke-width="1.2" stroke-linecap="round" stroke-linejoin="round"/><g><path d="M258.50388,147.77842c3.29547,4.21899 3.85676,9.28899 1.2312,11.33509c-2.62555,2.04608 -7.39677,0.37114 -10.79184,-3.8388c-3.29547,-4.21899 -3.85676,-9.28899 -1.2312,-11.33509c2.6165,-2.14568 7.49636,-0.3802 10.79184,3.8388z" fill="#ffffff" stroke="#001026" stroke-width="1.2" stroke-linecap="round" stroke-linejoin="round"/><path d="M254.86846,154.42333c0.09959,1.09549 -0.61566,2.06421 -1.61156,2.15474c-0.9959,0.09053 -1.87408,-0.73336 -1.97367,-1.82883c-0.09959,-1.09549 0.61566,-2.06421 1.61156,-2.15474c0.9959,-0.09053 1.87408,0.73336 1.97367,1.82883" fill="#001026" stroke="none" stroke-width="1" stroke-linecap="butt" stroke-linejoin="miter"/></g><g><path d="M234.05919,152.81203c3.38601,4.11035 3.67568,9.50628 1.15877,11.6429c-3.11445,2.19094 -7.62311,1.19502 -11.00913,-2.91533c-3.4856,-4.1013 -4.20079,-9.75979 -1.31268,-12.23138c2.87905,-2.5712 7.77702,-0.60653 11.16303,3.50381z" fill="#ffffff" stroke="#001026" stroke-width="1.2" stroke-linecap="round" stroke-linejoin="round"/><path d="M230.48466,159.84727c0.09959,1.09549 -0.61566,2.06421 -1.61156,2.15474c-0.9959,0.09053 -1.87408,-0.73336 -1.97367,-1.82883c-0.09959,-1.09549 0.61566,-2.06421 1.61156,-2.15474c1.00495,0.00906 1.87408,0.73336 1.97367,1.82883" fill="#001026" stroke="none" stroke-width="1" stroke-linecap="butt" stroke-linejoin="miter"/></g></g><g fill-rule="nonzero" stroke="#001026" stroke-width="1.2" stroke-linejoin="miter"><g><path d="M253.71565,191.49959l15.01993,-16.32521l8.31442,10.27436l-18.2034,11.20204c0,0 -2.59229,-0.45717 -3.42083,-1.28898c-0.87881,-0.88228 -1.71013,-3.86221 -1.71013,-3.86221z" fill="#505a63" stroke-linecap="butt"/><path d="M269.33116,173.72999c3.15837,-2.55589 7.79071,-2.06748 10.34659,1.0909c2.55589,3.15837 2.06747,7.79071 -1.0909,10.34659c-3.15837,2.55589 -7.79072,2.06748 -10.3466,-1.0909c-2.55589,-3.15837 -2.06746,-7.79072 1.09092,-10.3466z" fill="url(#color-1)" stroke-linecap="butt"/><path d="M267.09701,180.97181c0,0 2.96029,-3.56307 4.62244,-4.9397c1.55346,-1.28659 5.04639,-3.06822 5.04639,-3.06822" fill="none" stroke-linecap="round"/><path d="M271.51538,186.20491c0,0 3.58853,-4.5022 5.18418,-6.06249c1.17898,-1.15283 3.5238,-2.45245 3.5238,-2.45245" fill="none" stroke-linecap="round"/><path d="M268.95146,173.96573c0,0 4.6912,1.79715 6.67445,3.36716c1.72541,1.36589 4.5596,5.52608 4.5596,5.52608" fill="none" stroke-linecap="round"/><path d="M266.21567,178.74881c0,0 5.03038,2.30492 7.10292,3.62955c1.6111,1.0297 4.30037,3.65865 4.30037,3.65865" fill="none" stroke-linecap="round"/></g><path d="M266.20648,194.52589c-2.10123,1.71087 -5.37743,1.57328 -7.31763,-0.30734c-1.94019,-1.88061 -2.5423,-4.47479 -0.44106,-6.18568c2.10123,-1.71087 6.1101,-1.89057 8.05029,-0.00996c1.94019,1.88061 1.80963,4.79208 -0.2916,6.50296z" fill="#ffab19" stroke-linecap="butt"/></g><g fill-rule="nonzero" stroke="#001026" stroke-width="1.2" stroke-linecap="butt" stroke-linejoin="miter"><path d="M224.10402,147.24303c-0.98194,4.47131 -19.99664,14.37967 -19.99664,14.37967c0,0 -2.87281,0.139 -4.23229,0.13357c-10.18147,-0.04068 -17.27003,-2.81374 -16.40377,-6.75834c0.98194,-4.47131 11.81307,-8.75471 24.19198,-9.56725c12.37892,-0.81255 17.42265,-2.65895 16.44071,1.81235z" fill="#00b0f7"/><path d="M208.39643,144.27291l-12.06478,-2.56154c0,0 13.78838,-7.75608 21.50968,-10.33719c9.33842,-3.12169 30.59758,-7.08145 30.59758,-7.08145l-12.24275,19.09257z" fill="#ff2b2b"/><path d="M201.69898,162.80625c0,0 -3.60925,-7.03301 -4.51835,-10.52903c-0.88194,-3.39164 -0.85722,-10.14347 -0.85722,-10.14347l25.64046,-6.66741c0,0 1.30389,7.58192 2.2253,11.12531c0.86716,3.33477 3.15026,9.54718 3.15026,9.54718z" data-paper-data="{&quot;index&quot;:null}" fill="#cc0000"/><path d="M226.91795,156.18124c0,0 -1.7101,-6.41019 -2.98892,-9.60977c-1.35882,-3.39974 -4.9386,-10.22465 -4.9386,-10.22465l30.11892,-12.03807c0,0 4.38184,5.27905 5.68248,8.53319c1.34066,3.35428 2.24503,11.30121 2.24503,11.30121z" fill="#f70000"/></g><path d="M228.26329,199.17977c-0.11956,4.1328 2.06621,7.80054 0.81896,10.01201c-0.814,1.44329 -2.25178,2.52109 -3.27573,2.49148c-1.14125,-0.03301 -3.06506,-1.41743 -3.82713,-3.22443c-0.96933,-2.29842 -3.21637,-5.7269 -3.10576,-9.5507c0.09758,-3.37303 2.62957,-6.92823 3.52538,-9.13528c0.91809,-2.26199 2.81065,-2.86127 4.12302,-2.8233c1.41687,0.04099 2.89046,0.97271 3.67564,3.6118c0.65172,2.19047 -1.84477,5.52064 -1.93439,8.61843z" fill="#ffab19" fill-rule="nonzero" stroke="#001026" stroke-width="1.2" stroke-linecap="butt" stroke-linejoin="miter"/><path d="M237.26419,175.38034c0.14827,-1.74261 3.42838,-2.8864 7.32631,-2.55472c3.89794,0.33167 6.93762,2.0132 6.78935,3.75581c-0.14828,1.74259 -3.31534,1.55786 -7.21327,1.22619c-3.89793,-0.33167 -7.05067,-0.68468 -6.90238,-2.42728z" data-paper-data="{&quot;index&quot;:null}" fill="#ffffff" fill-rule="nonzero" stroke="#001026" stroke-width="1.2" stroke-linecap="butt" stroke-linejoin="miter"/></g></g></svg>