<svg version="1.1" xmlns="http://www.w3.org/2000/svg" xmlns:xlink="http://www.w3.org/1999/xlink" width="130.0751" height="244.72208" viewBox="0,0,130.0751,244.72208"><g transform="translate(-169.7807,-85.60969)"><g data-paper-data="{&quot;isPaintingLayer&quot;:true}" fill-rule="nonzero" stroke-miterlimit="10" stroke-dasharray="" stroke-dashoffset="0" style="mix-blend-mode: normal"><g stroke-linecap="butt" stroke-linejoin="miter"><g fill="#686868" stroke="#000000" stroke-width="1"><path d="M196.50253,329.51509v-105.18892h99.69291v105.18892z"/><path d="M178.22551,320.18382v-105.18892l18.27703,9.33127v105.18892z"/><path d="M196.39114,223.85277l-17.44626,-8.90712l101.35446,1.27245l16.2001,8.48298z"/></g><path d="M200.02471,229.05079c0,-0.83299 0.66132,-1.50826 1.4771,-1.50826c0.81578,0 1.4771,0.67527 1.4771,1.50826c0,0.83299 -0.66132,1.50826 -1.4771,1.50826c-0.81578,0 -1.4771,-0.67527 -1.4771,-1.50826z" fill="#b9b9b9" stroke="none" stroke-width="0.5"/><path d="M290.62042,229.72114c0,-0.83299 0.66133,-1.50826 1.4771,-1.50826c0.81577,0 1.4771,0.67527 1.4771,1.50826c0,0.83299 -0.66133,1.50826 -1.4771,1.50826c-0.81577,0 -1.4771,-0.67527 -1.4771,-1.50826z" fill="#b9b9b9" stroke="none" stroke-width="0.5"/><path d="M291.93339,325.91462c0,-0.83298 0.66133,-1.50826 1.4771,-1.50826c0.81577,0 1.4771,0.67528 1.4771,1.50826c0,0.83298 -0.66133,1.50826 -1.4771,1.50826c-0.81577,0 -1.4771,-0.67528 -1.4771,-1.50826z" fill="#b9b9b9" stroke="none" stroke-width="0.5"/><path d="M199.36821,326.92013c0,-0.83298 0.66132,-1.50826 1.4771,-1.50826c0.81578,0 1.4771,0.67528 1.4771,1.50826c0,0.83298 -0.66132,1.50826 -1.4771,1.50826c-0.81578,0 -1.4771,-0.67528 -1.4771,-1.50826z" fill="#b9b9b9" stroke="none" stroke-width="0.5"/></g><g stroke="#000000" stroke-width="1" stroke-linecap="butt" stroke-linejoin="miter"><path d="M276.08252,266.58986c-6.84296,2.50047 -50.29151,1.88154 -57.00056,-0.35024c-7.74821,-2.57748 -6.79381,-21.69332 1.09379,-24.27299c6.67969,-2.18461 49.8704,-1.77431 56.79467,0.99865c6.27115,2.5114 6.1002,21.07106 -0.88789,23.62457z" data-paper-data="{&quot;index&quot;:null}" fill="#363636"/><path d="M272.057,263.03871c-5.44883,1.77272 -40.04548,1.33393 -45.38767,-0.2483c-6.16965,-1.82731 -5.4097,-15.37954 0.87094,-17.20841c5.31881,-1.54878 39.71016,-1.2579 45.22372,0.70799c4.99351,1.78046 4.85739,14.93839 -0.707,16.74872z" data-paper-data="{&quot;index&quot;:null}" fill="#4a4a4a"/></g><g stroke="#000000" stroke-width="1" stroke-linecap="butt" stroke-linejoin="miter"><path d="M276.57489,314.85418c-6.84296,2.50047 -50.29151,1.88154 -57.00056,-0.35024c-7.74821,-2.57748 -6.79381,-21.69332 1.09379,-24.27299c6.67969,-2.18461 49.8704,-1.77431 56.79467,0.99865c6.27115,2.51139 6.1002,21.07107 -0.88789,23.62457z" data-paper-data="{&quot;index&quot;:null}" fill="#363636"/><path d="M272.54937,311.30304c-5.44883,1.77272 -40.04548,1.33393 -45.38767,-0.2483c-6.16965,-1.82731 -5.4097,-15.37954 0.87094,-17.20841c5.31881,-1.54878 39.71016,-1.2579 45.22372,0.708c4.99351,1.78046 4.85739,14.93839 -0.707,16.74872z" data-paper-data="{&quot;index&quot;:null}" fill="#4a4a4a"/></g><path d="M230.49286,211.07541c1.23648,-1.37534 3.9821,-2.50256 5.0735,-1.20528c1.02609,1.21925 0.5194,2.49757 0.5194,2.49757c-0.5435,1.48783 -1.42493,4.26644 -2.34867,5.97345c-0.16422,0.30126 -0.32794,0.5761 -0.49558,0.84732l0.01434,-0.01217c0,0 0.73552,2.08244 -0.25277,2.38964c-0.59564,0.18618 -1.14494,-0.06506 -1.4936,-0.28715c-0.89129,0.73369 -1.81445,0.99026 -2.76644,0.61123c-2.22823,-0.88616 -1.60592,-5.3326 -1.60592,-5.3326c0.20887,-1.1268 2.11928,-4.10666 3.35576,-5.482v0v0v0v0v0z" data-paper-data="{&quot;index&quot;:null}" fill="#be1e2d" stroke="#231f20" stroke-width="0.78673" stroke-linecap="round" stroke-linejoin="round"/><path d="M245.30828,217.26903v0v0v0v0v0c2.12838,0.09408 3.16589,3.77273 3.16826,3.76709c0.04722,2.35302 3.56077,8.31646 3.56077,8.31646c0,0 0.73408,0.19842 0.73255,1.03217c0.00254,0.83672 -1.48026,1.59811 -3.63343,1.71483c-2.15853,0.11297 -3.80795,0.37504 -4.26108,-0.35707c-0.45037,-0.73484 -0.11097,-1.14886 -0.11097,-1.14886c0,0 -0.31175,-3.18025 -0.84989,-5.12631c-0.53795,-1.94308 -1.90049,-7.34528 -1.90049,-7.34528c0,0 1.62487,-0.92698 3.29429,-0.85303z" data-paper-data="{&quot;index&quot;:null}" fill="#be1e2d" stroke="#231f20" stroke-width="0.90025" stroke-linecap="round" stroke-linejoin="round"/><path d="M235.85769,217.43263c1.63828,-0.30459 3.41619,0.54135 3.41619,0.54135c0,0 -0.35674,6.35759 -0.53242,8.65064c-0.17532,2.29646 0.09989,5.97453 0.09989,5.97453c0,0 0.41181,0.42874 0.10104,1.32848c-0.31399,0.89698 -1.99417,0.81465 -4.15072,0.96994c-2.15193,0.1503 -3.75888,-0.525 -3.90993,-1.48223c-0.15454,-0.95329 0.5354,-1.27696 0.5354,-1.27696c0,0 2.38211,-7.28294 1.99699,-9.98009c0.00339,0.00614 0.35484,-4.33757 2.44356,-4.72566v0v0v0z" fill="#be1e2d" stroke="#231f20" stroke-width="0.90025" stroke-linecap="round" stroke-linejoin="round"/><g stroke-width="0.90025"><path d="M248.77914,210.28187v0v0v0v0v0c0.40867,2.82977 -0.24825,8.04095 -3.40945,9.87047c-3.12673,1.80588 -6.44313,1.56397 -9.88094,-0.84198c-2.84835,-1.99415 -2.78011,-7.69723 -2.48222,-10.88799v0c0,0 0.0195,-7.38159 6.07612,-8.29094c6.05475,-0.90925 8.86676,4.75473 9.3348,8.28821c0.14722,0.622 0.27307,1.25671 0.36169,1.86224z" fill="#be1e2d" stroke="#000000" stroke-linecap="butt" stroke-linejoin="miter"/><path d="M247.10903,218.391v0v0v0v0v0l-0.01507,0.14454c-0.4646,0.65836 -1.03545,1.21671 -1.72339,1.61497c-2.89621,1.67305 -5.95381,1.58942 -9.12122,-0.34463l-0.03279,-0.14545c0,0 -1.6773,-9.38765 4.15765,-9.80683c6.6257,-0.47281 6.77646,6.96706 6.73481,8.53739z" fill="#e6e7e8" stroke="#231f20" stroke-linecap="round" stroke-linejoin="round"/></g><g stroke="#000000" stroke-width="0.90025" stroke-linecap="round" stroke-linejoin="round"><path d="M283.92656,182.33178l-0.48648,1.57757c-2.71856,7.97561 -6.75363,12.63192 -6.75363,12.63192c0,0 0.11298,-1.41385 -0.02455,-3.6769l-0.13064,-0.04286c-0.34355,1.20261 -0.91848,2.75708 -1.89084,4.68434c-2.13219,4.2323 -8.61677,7.90647 -8.61677,7.90647c0,0 0.37203,-1.44536 0.5682,-3.7992l-0.1013,-0.35658c-0.69816,0.58184 -1.42405,1.11885 -2.15827,1.64244c-0.21601,0.15503 -0.43202,0.30633 -0.65179,0.45318c-0.66867,0.4519 -1.35024,0.88407 -2.04669,1.28933c-0.27523,0.15834 -0.56147,0.30617 -0.8405,0.45824c-0.50898,0.27838 -1.02551,0.54232 -1.55013,0.7984c-0.38545,0.18585 -0.77357,0.37096 -1.16919,0.54436c-0.40948,0.18206 -0.83092,0.34704 -1.24954,0.51843c-0.76991,0.3062 -1.55181,0.59373 -2.35206,0.86084c-0.26109,0.08703 -0.52227,0.17406 -0.78803,0.25577c-0.57096,0.17729 -1.14654,0.35096 -1.73312,0.50686l0.00182,0.00177c-2.94459,0.78762 -6.07609,1.33372 -9.43563,1.63668c-3.63466,0.32681 -6.93581,0.37812 -10.02358,0.24083v0c-2.44333,-0.10993 -4.73379,-0.34865 -6.90558,-0.69604c-0.10503,-0.01628 -0.21107,-0.03343 -0.31699,-0.04969c-0.67153,-0.11211 -1.33263,-0.23259 -1.98151,-0.36432c-0.2265,-0.04767 -0.44338,-0.10006 -0.66893,-0.14947c-0.86235,-0.18601 -1.70119,-0.39276 -2.52889,-0.61434c-0.52321,-0.14055 -1.04307,-0.28493 -1.55157,-0.43952c-0.30203,-0.0892 -0.60507,-0.18301 -0.90104,-0.27782c-0.80834,-0.26213 -1.60971,-0.52889 -2.38773,-0.81911l-0.13052,0.13536c0.34516,2.12743 1.0923,3.25712 1.67966,3.78889c1.19737,1.08577 3.45419,1.29084 3.45419,1.29084c0,0 -6.85262,1.17179 -10.73661,-4.17438c-0.41266,-0.56829 -0.8294,-1.15748 -1.22677,-1.7863l-0.17332,-0.36102c-0.82062,-0.25715 -1.65423,-0.6059 -2.48001,-1.06134c-5.03566,-2.79835 -5.72037,-5.19948 -5.72037,-5.19948l0.12626,0.88345c0.53665,2.29699 1.03996,3.7424 1.03996,3.7424c0,0 -6.03582,-3.69471 -8.82765,-9.39938c-2.25105,-4.60501 -2.49241,-7.42462 -2.51869,-7.8988l-0.24271,-1.69076c-0.2979,-6.63853 -0.08562,-14.09936 0.6172,-21.45243l0.04995,-0.19685c0.6486,-5.68697 -0.36005,-15.05259 6.7238,-24.85355c13.27446,-18.36111 27.32066,-18.11226 35.37286,-31.63494c5.92282,-9.94822 4.05124,-21.12528 4.05124,-21.12528c0,0 3.92524,5.39507 5.51764,8.58239c1.54248,3.1067 3.20737,7.1198 3.20737,7.1198l0.04962,-0.03589c0.03154,-0.11916 0.05946,-0.24086 0.08295,-0.36243c0.36415,-1.89356 0.13002,-4.67256 0.13002,-4.67256c0,0 3.88533,10.75097 9.89263,17.7065c6.00366,6.95209 14.47081,8.75777 25.71644,32.81612c1.39942,2.9896 2.69349,5.5027 3.42306,8.3075l0.33922,1.61633c1.05561,5.05095 1.0491,19.08359 -0.7425,25.19427zM215.25655,160.3176c0,0 -6.69517,7.51743 -5.98118,17.70867c0.63174,9.01723 2.98403,11.74474 4.23096,12.40987c1.28198,0.67964 3.23054,0.2044 3.23054,0.2044c0,0 -5.46546,3.1593 -10.08758,-0.80443c-3.09157,-2.64946 -6.4701,-6.08357 -7.64435,-15.99399M272.942,175.0404c0,0 0.91919,2.48769 -1.0313,7.79119c-2.19402,5.97498 -7.09505,7.93666 -7.09505,7.93666c0,0 3.8787,-9.21842 0.21032,-17.68938c-1.60108,-3.70097 -6.31942,-6.36315 -11.22064,-8.20087c-6.6419,-2.49243 -13.61858,-3.46947 -13.61858,-3.46947M276.55887,192.72164c-0.33964,1.21705 -0.92238,2.80901 -1.92366,4.78798c-2.1313,4.23228 -8.61589,7.90645 -8.61589,7.90645c0,0 1.08082,-4.21682 0.52885,-9.96805M200.59369,181.12537c-0.64251,1.30349 -1.12663,2.69537 -1.3802,4.15846c-1.5941,9.12255 1.87334,19.03065 1.87334,19.03065c0,0 -6.034,-3.69304 -8.82765,-9.39948c-2.47653,-5.06465 -2.52049,-7.96969 -2.52049,-7.96969M283.43583,183.91582c-2.72033,7.97566 -6.75452,12.63195 -6.75452,12.63195c0,0 0.65268,-8.03293 -3.0229,-16.50461c-0.16581,-0.38305 -0.35181,-0.75462 -0.54807,-1.11502M240.18762,161.40851c0,0 1.18511,0.28839 4.35498,2.74023c3.16996,2.45184 4.38281,5.18718 4.38281,5.18718c0,0 -9.23178,-2.23085 -14.3557,-3.96712c-5.11865,-1.73823 -22.35219,-6.05844 -22.35219,-6.05844M212.11599,199.89604c2.58788,3.9383 5.22947,6.04774 5.22947,6.04774c0,0 -6.03274,2.0948 -11.70443,-1.05395c-5.03565,-2.79825 -5.72037,-5.19948 -5.72037,-5.19948M266.48451,201.26214c-6.42325,5.34898 -14.31045,8.09758 -23.96689,8.96792c-11.51258,1.03758 -19.98528,-0.46412 -27.26315,-3.16955M215.03621,206.53694c0.28339,2.55569 1.12015,3.8622 1.76556,4.44516c1.19826,1.08575 3.45507,1.29081 3.45507,1.29081c0,0 -6.85439,1.17184 -10.73749,-4.17435c-0.41266,-0.56829 -0.8294,-1.15748 -1.22677,-1.7863M240.86091,161.69426c0,0 25.19681,2.46832 25.5555,16.52934" fill="#be1e2d"/><path d="M271.49441,184.17175c-0.67879,10.13758 -11.74322,20.99232 -28.3039,22.43193c-14.62013,1.27922 -36.43158,-4.89377 -39.88868,-17.2462c-0.34384,-1.24155 -0.5403,-2.44422 -0.61508,-3.60285l0.32423,0.22966c1.15386,1.63903 2.41722,2.80941 3.63836,3.85363c4.62206,3.96191 10.08753,0.80261 10.08753,0.80261c0,0 -1.94852,0.47707 -3.2305,-0.20258c-1.24693,-0.66512 -3.59922,-3.39262 -4.23096,-12.40987c-0.71404,-10.19306 5.98118,-17.70867 5.98118,-17.70867l0.01794,-0.2352c5.1879,1.32525 15.52454,4.00405 19.2934,5.28462c5.12395,1.73717 14.3557,3.96712 14.3557,3.96712c0,0 -1.21286,-2.73534 -4.38281,-5.18718c-1.58671,-1.22628 -2.67456,-1.91113 -3.36531,-2.29009l0.64071,0.08556c0,0 19.4401,2.41629 23.21152,11.13457c3.66752,8.47189 -0.20943,17.68936 -0.20943,17.68936c0,0 4.17326,-1.67197 6.53718,-6.6209z" fill="#e6e7e8"/></g><g stroke="#000000" stroke-width="0.90025" stroke-linecap="round" stroke-linejoin="miter"><path d="M277.66485,165.13847c0,0 7.47594,-11.40696 7.90301,-11.95762c0.42698,-0.55054 3.46327,-5.6632 13.78555,-8.72325c0,0 -2.61095,31.81094 -17.41794,41.09726c-0.00012,-0.00089 0.31043,-9.0414 -4.27062,-20.41636zM277.75975,165.37843c-0.35881,-0.94341 -1.27753,-2.56946 -1.27753,-2.56946M281.49865,188.02705c0,0 0.40588,-1.56465 0.43667,-2.4731" fill="#be1e2d"/><path d="M287.56233,179.81686c0,0 -1.74551,-1.02081 -2.47822,-5.0873c-0.45847,-2.52186 0.00554,-7.30466 0.00554,-7.30466l-0.06791,0.16011c0.57927,-0.9154 1.17774,-1.9739 1.69524,-3.11556c0.87738,-1.93151 1.82508,-4.77617 2.66912,-7.56762l0.13662,-0.38741c0,0 2.52579,-5.19565 9.00482,-6.72438l0.0812,0.03164c-0.75075,4.88585 -2.07902,12.08393 -3.94307,17.13632c-2.09079,5.66748 -4.81589,9.95409 -7.20626,12.97159zM282.73354,170.60287c0,0 1.9911,-2.63251 2.35615,-3.17795" fill="#929497"/></g><g stroke="#000000" stroke-width="0.90025" stroke-linecap="round" stroke-linejoin="miter"><path d="M190.69884,186.18659c-15.44346,-8.11819 -20.37224,-39.63722 -20.37224,-39.63722c10.51713,2.25642 13.9186,7.12043 14.3847,7.63556c0.46609,0.51525 8.75489,11.31423 8.75489,11.31423c-3.73779,11.69662 -2.76735,20.6874 -2.76735,20.6874zM194.47418,163.08598c0,0 -0.7973,1.69228 -1.08606,2.66065M190.69884,186.18659c0.097,0.9035 0.61621,2.43238 0.61621,2.43238" fill="#be1e2d"/><path d="M184.77909,181.0042c-2.60418,-2.82552 -5.63409,-6.88974 -8.13429,-12.37905c-2.229,-4.89433 -4.07867,-11.96945 -5.18453,-16.7835l0.07876,-0.0378c6.5735,1.02581 9.47114,6.01096 9.47114,6.01096l0.16455,0.37578c1.04559,2.71841 2.19866,5.48189 3.21476,7.34027c0.5995,1.09853 1.27367,2.10788 1.91823,2.976l-0.07942,-0.15443c0,0 0.8123,4.73338 0.53933,7.28341c-0.43335,4.11138 -2.09947,5.26386 -2.09947,5.26386zM186.22827,168.35241c0.4039,0.51575 2.58184,2.98725 2.58184,2.98725" fill="#929497"/></g><path d="M228.37988,180.59798v0v0v0v0v0c0.71147,0.18369 1.14092,0.92351 0.95997,1.65331c-0.17904,0.73159 -0.89676,1.17199 -1.61346,0.99206c-0.02786,-0.00789 -2.0084,-1.18279 -4.48849,-1.08153c-1.17689,0.04805 -2.41858,0.92151 -3.70604,1.34421c-0.12311,0.03968 -0.24587,0.06207 -0.36902,0.06537c-0.57597,0.01545 -1.11767,-0.35931 -1.30205,-0.94919c-0.10907,-0.34455 -0.06857,-0.70312 0.07626,-1.0072c-0.25476,-0.21697 -0.49779,-0.49963 -0.67107,-0.89347c-0.20315,-0.4566 -0.00592,-0.9967 0.44103,-1.20431c0.44276,-0.20194 0.97086,-0.00878 1.17509,0.45153c0.16184,0.36678 0.60587,0.46126 0.61123,0.46293c0.1311,0.0265 0.24696,0.08522 0.34735,0.16255c0.1305,-0.03169 0.26177,-0.06431 0.39054,-0.09051c-0.14181,-0.20716 -0.27453,-0.44014 -0.35825,-0.72898c-0.13821,-0.48289 0.13098,-0.98593 0.60175,-1.1286c0.4742,-0.14732 0.96303,0.13613 1.10031,0.61722c0.11,0.38454 0.52654,0.54887 0.53012,0.5506c0.19407,0.06219 0.3393,0.19469 0.44718,0.35366c3.17043,-0.23695 5.68464,0.39325 5.82754,0.43034z" fill="#231f20" stroke="none" stroke-width="0.90025" stroke-linecap="butt" stroke-linejoin="miter"/><path d="M252.74054,211.01901c-1.30506,1.32957 -4.0991,2.34545 -5.11562,0.99515c-0.95573,-1.2691 -0.3824,-2.53227 -0.3824,-2.53227c0.24692,-0.58513 0.76002,-2.713 1.84973,-4.63511c1.25184,-2.20805 3.08731,-4.19615 3.18637,-4.1258c0.51273,-0.38691 2.0244,-4.60423 3.32117,-3.84473c1.07383,0.62895 -0.94855,3.15998 -0.53424,3.34831c2.17042,0.98556 1.31119,5.42785 1.31119,5.42785c-0.26869,1.12356 -2.33114,4.03701 -3.6362,5.36655v0v0v0v0v0z" data-paper-data="{&quot;index&quot;:null}" fill="#be1e2d" stroke="#231f20" stroke-width="0.78673" stroke-linecap="round" stroke-linejoin="round"/><path d="M255.40932,179.03897c0.10655,-0.15992 0.25066,-0.2937 0.44421,-0.35758c0.00357,-0.00176 0.41874,-0.16973 0.52551,-0.55523c0.13325,-0.48229 0.6197,-0.77001 1.09511,-0.62687c0.47194,0.13853 0.74533,0.63917 0.61116,1.12327c-0.0813,0.28958 -0.21206,0.52371 -0.35214,0.73211c0.12898,0.02506 0.26051,0.05653 0.39127,0.08707c0.09973,-0.07821 0.21511,-0.13796 0.34598,-0.1656c0.00535,-0.00173 0.44856,-0.1001 0.60734,-0.46828c0.20037,-0.46209 0.72684,-0.65989 1.17127,-0.46185c0.44867,0.20367 0.6504,0.74201 0.45107,1.20039c-0.16998,0.39536 -0.41064,0.68014 -0.66358,0.89934c0.14737,0.3028 0.19085,0.66099 0.08467,1.00649c-0.17945,0.59147 -0.71799,0.97099 -1.29407,0.96059c-0.12317,-0.00222 -0.24612,-0.02354 -0.36955,-0.06213c-1.29095,-0.41138 -2.53989,-1.2739 -3.71713,-1.31159c-2.48085,-0.07946 -4.45149,1.1128 -4.47929,1.12094c-0.71517,0.1862 -1.43654,-0.24787 -1.62168,-0.97786c-0.18705,-0.7282 0.23621,-1.47175 0.94612,-1.66169v0v0v0v0v0c0.14258,-0.03834 2.65145,-0.69061 5.82373,-0.48153z" data-paper-data="{&quot;index&quot;:null}" fill="#231f20" stroke="none" stroke-width="0.90025" stroke-linecap="butt" stroke-linejoin="miter"/><path d="M244.12704,188.49884c0.0869,2.77273 -1.73596,5.09421 -4.07148,5.18518c-2.33551,0.09098 -4.29927,-2.08301 -4.38617,-4.85573c-0.04181,-1.33396 1.91298,-1.49995 3.94299,-1.62951c2.18949,-0.13974 4.46957,-0.13871 4.51466,1.30004z" fill="#292929" stroke="#231f20" stroke-width="0.9" stroke-linecap="butt" stroke-linejoin="miter"/></g></g></svg>