<svg version="1.1" xmlns="http://www.w3.org/2000/svg" xmlns:xlink="http://www.w3.org/1999/xlink" width="167.028" height="161.71601" viewBox="0,0,167.028,161.71601"><g transform="translate(-279.71981,-240.18555)"><g data-paper-data="{&quot;isPaintingLayer&quot;:true}" fill="#000000" fill-rule="nonzero" stroke="none" stroke-linecap="butt" stroke-linejoin="miter" stroke-miterlimit="10" stroke-dasharray="" stroke-dashoffset="0" style="mix-blend-mode: normal"><path d="M310.78262,358.04256c-2.65364,1.28283 -3.49254,3.49874 -5.30946,5.71805c-5.95422,7.2729 -7.69335,15.74109 -5.84062,24.91459c0.60582,1.86691 1.39089,2.82579 2.78136,4.21173c1.54131,1.5363 3.61384,4.59046 5.92934,5.12249c5.78213,1.32854 12.57352,-1.35714 18.23455,-2.09413c5.44342,-0.70866 11.09046,-0.16006 16.50101,-1.1419c2.86886,-0.5206 5.59178,-1.68697 8.4432,-2.31466c0.83214,-0.35676 5.94843,-2.52892 5.0965,-3.84114c-1.24124,-1.91188 -5.60683,-2.94199 -7.56242,-4.19608c-4.79782,-3.07679 -9.10876,-6.1052 -10.48572,-12.05398c-0.23409,-1.01131 0.24138,-5.20371 0.26938,-5.66883c0.06622,-1.10009 0.28387,-2.20855 0.65679,-3.25274c-4.76911,-0.73418 -9.5515,-1.93324 -14.26942,-2.90338c-4.37926,-0.9005 -8.88137,-1.85774 -13.31428,-3.06513zM343.03584,364.02464c-0.45864,0.85279 -0.65092,1.85242 -0.69911,2.81952c-0.08179,1.64121 -0.69385,3.31952 -0.31886,4.91941c1.26059,5.37822 6.35287,8.39324 10.86671,10.81787c2.19375,1.17838 6.00953,2.03436 6.96751,4.69676c1.68132,4.67273 -3.94846,7.09448 -7.25644,8.5118c-3.00287,0.67326 -5.88288,1.87906 -8.90868,2.43016c-5.46572,0.99549 -11.15663,0.4469 -16.65234,1.1652c-6.01809,0.78657 -13.36042,3.64401 -19.49551,2.03044c-3.24233,-0.85275 -5.36102,-3.80809 -7.60008,-6.05398c-1.82876,-1.83435 -2.85558,-3.3324 -3.68923,-5.78827c-2.03923,-10.27981 -0.1766,-19.84623 6.51232,-28.02658c1.68879,-2.06534 2.72289,-3.92894 4.57731,-5.42219c-3.39574,-1.09292 -6.70922,-2.37804 -9.84982,-3.94663c-1.07914,-0.53898 -2.11742,-1.15996 -3.12427,-1.83587c-0.0062,0.02923 -0.01304,0.05886 -0.02055,0.08889c-0.42444,1.69775 -2.12219,1.27331 -2.12219,1.27331c-5.97784,-1.66387 -8.03728,-7.4957 -10.03767,-12.84799c-2.57875,-6.89978 -2.46437,-14.16557 -2.46437,-21.438c0,-5.91781 0.12671,-10.92346 2.42831,-16.45456c4.95839,-7.76228 9.02853,-16.46539 14.98797,-23.5158c3.47693,-4.11343 7.59789,-6.95274 11.77267,-10.28072c7.33635,-5.84828 15.04135,-10.6827 23.40134,-14.94549c8.40941,-4.28231 18.58869,-9.05829 27.95149,-10.6993c13.25628,-2.32341 27.70671,-0.91296 41.11998,-0.91296c15.42175,0.02734 29.27208,10.88017 35.44325,24.8243c2.01205,4.54636 2.9201,9.78245 3.18989,15.04206c1.29662,-0.78471 2.52547,-1.41335 2.90377,-1.24278c1.42711,0.64345 1.51313,2.75754 2.02835,4.23579c1.64819,4.72894 1.30238,11.15789 1.80022,16.1564c-0.08953,5.1104 -3.29544,7.45043 -7.05401,10.50996c-2.05355,1.67161 -4.17921,3.03154 -6.36422,4.2076c-1.34516,3.57138 -2.8568,7.03847 -5.13126,10.19675c-5.9501,8.26222 -14.34843,14.75721 -22.48939,20.72452c-7.39674,4.93248 -14.59426,10.51004 -22.79181,14.09231c0.16708,0.15896 0.34257,0.31286 0.52903,0.4601l0.76615,1.17213c0,0 0.78262,1.56525 -0.78262,2.34787c-1.56525,0.78262 -2.34787,-0.78262 -2.34787,-0.78262l0.17791,-0.00434c-0.7191,-0.58139 -1.37105,-1.16787 -1.99481,-1.75083c-1.53274,0.54286 -3.06302,1.00821 -4.59579,1.40614c-0.08232,0.40347 -0.33581,0.8269 -0.94533,1.13165c-1.06157,0.53078 -1.76315,-0.01838 -2.10476,-0.42678c-4.99726,1.01712 -10.0553,1.39346 -15.34363,1.4756c-0.67498,0.99303 -1.38205,2.00045 -2.47223,2.07699c-1.03793,0.07287 -1.64272,-1.08568 -2.2979,-2.04796c-2.83974,0.01634 -5.62477,0.0066 -8.4445,-0.44524c-0.01518,0.03581 -0.02495,0.05536 -0.02495,0.05536zM366.53703,353.73595c-0.51958,-0.50041 -1.05189,0.98876 -1.60668,1.44983c-0.60111,0.49957 -1.20136,1.00016 -1.80204,1.50024c-1.79602,1.27762 -2.94414,2.64864 -4.09745,4.12741c3.70345,-0.14081 7.2963,-0.4677 10.85295,-1.12608c-0.98557,-2.15274 -1.91732,-4.57469 -3.34678,-5.9514zM345.36247,355.75962c-0.44628,-0.60608 -1.01486,-2.21734 -2.12718,-2.23819c-1.27495,-0.0239 -2.19378,1.3052 -3.33502,1.87407c-2.17048,1.08191 -3.93472,2.50073 -5.90265,3.47479c2.87462,0.61117 5.75699,1.15663 8.6238,1.46597c2.05547,0.41616 4.0898,0.54614 6.13756,0.57889c-1.16107,-1.70779 -2.20061,-3.53141 -3.39651,-5.15554zM329.70588,356.49202c2.67727,0.09751 3.26882,-1.28804 5.55056,-2.67982c0.57917,-0.35327 1.17312,-0.68087 1.77618,-0.99204c-4.64593,0.45472 -8.96695,1.06903 -12.84158,3.93393c0.58816,0.12253 1.17443,0.24363 1.75831,0.36383c0.70261,0.14463 1.40703,0.29503 2.11292,0.4486c0.37941,-1.0745 1.64361,-1.0745 1.64361,-1.0745zM350.9004,357.61611c0.72498,1.16117 1.76996,2.12751 2.48044,3.28846c0.14736,-0.0005 0.29492,-0.00079 0.44269,-0.00079c0.16196,0 0.32367,-0.00021 0.48512,-0.00065c0.19271,-0.44733 0.42674,-0.87821 0.70405,-1.27618c1.61417,-2.31654 3.7126,-4.08788 5.97665,-5.71128c0.4734,-0.3949 1.11092,-1.0144 1.83346,-1.63317c-5.21694,-0.95619 -10.54829,-0.9069 -15.95488,-0.45891c1.70375,1.63079 2.93125,4.02869 4.03249,5.79252zM372.99778,355.6673c-0.52949,-0.26732 -1.06052,-0.51917 -1.59305,-0.75625c0.71072,1.37977 1.34256,2.83323 1.95792,4.01931c0.99708,-0.25079 1.99322,-0.53164 2.99007,-0.84578c-0.98703,-0.8586 -2.05597,-1.67529 -3.35494,-2.41728zM320.60207,355.16935c6.12931,-5.40504 12.83024,-5.36894 20.6242,-6.28671c11.58142,-1.36376 22.69527,-1.62316 33.42301,3.6988c1.56938,0.89709 3.73174,2.06245 5.06275,3.19418c0.294,0.24998 0.56096,0.51728 0.81264,0.79458c0.17989,-0.07417 0.35988,-0.14956 0.53998,-0.22618c8.16763,-3.47508 15.30255,-9.0587 22.63816,-13.94777c7.80679,-5.7277 15.91035,-11.9439 21.62826,-19.86371c1.35674,-1.87921 2.41473,-3.87866 3.3264,-5.94596c-3.35962,1.45749 -6.83048,2.70677 -10.37077,4.1667c-3.48052,1.43529 -6.55348,3.51539 -9.98757,4.99506l-2.39056,0.89696c0,0 -1.11509,0.41816 -1.85047,-0.35532c-0.09904,0.51787 -0.42825,1.17323 -1.43908,1.32875c-1.72965,0.2661 -1.99575,-1.46355 -1.99575,-1.46355c-0.64341,-4.22288 -2.12914,-7.77216 -3.46487,-11.7865c-0.83291,-2.50319 -1.06789,-5.21129 -1.7846,-7.71298c-0.48091,-1.67865 -2.14473,-3.55715 -1.42781,-5.48891c0.41724,-1.12425 1.76824,-1.6289 2.74152,-2.32943c2.16738,-1.56001 4.7937,-3.09872 7.23573,-4.21941c1.03559,-0.47524 1.99828,-1.43113 3.13556,-1.36122c1.35854,0.08351 2.66291,0.86976 3.67499,1.77987c1.30428,1.17287 2.32316,6.00339 3.13272,7.62117c0.01042,0.31076 -0.27494,0.98628 0.03127,0.93229c1.24484,-0.21948 1.60126,-1.95632 2.40145,-2.93484c1.50825,-1.84439 3.07281,-3.64886 4.75035,-5.34073c4.75552,-4.79615 9.81207,-8.5607 15.33554,-12.4349c0.04958,-0.03478 0.12522,-0.08803 0.22301,-0.15653c-0.10107,-5.52696 -0.87745,-11.13894 -2.98188,-15.86982c-5.62441,-12.64395 -18.19281,-22.7714 -32.24393,-22.74358c-13.19259,0 -27.42746,-1.41041 -40.46826,0.85175c-9.02496,1.56554 -18.91606,6.24551 -27.01353,10.37867c-8.15236,4.15543 -15.6552,8.86523 -22.8101,14.56477c-3.99936,3.18587 -7.95054,5.86948 -11.28145,9.80373c-5.80104,6.85181 -9.7094,15.34853 -14.55972,22.87939c-2.0617,4.94025 -2.02871,9.54288 -2.02871,14.83051c0,6.82592 -0.19444,13.73613 2.24152,20.20906c0.28085,0.7463 0.56803,1.56747 0.88118,2.41356c0.06954,-0.04494 0.14507,-0.08807 0.22703,-0.12905c1.56525,-0.78262 2.34787,0.78262 2.34787,0.78262l0.68895,1.46081c2.98295,2.39135 5.91943,5.12684 9.37382,6.85628c6.5471,3.27781 13.89142,5.26403 21.12663,6.86795c0.18395,-0.43436 0.49447,-0.71038 0.49447,-0.71038z" stroke-width="0.5"/><path d="M304.21572,303.01296c-0.12663,-0.31322 -0.15895,-0.71053 0.00644,-1.20669c0.5534,-1.6602 2.21359,-1.1068 2.21359,-1.1068l1.01831,0.34581c12.18252,5.22108 25.05912,8.04868 37.72789,11.79713c3.36196,0.99474 6.67984,2.11374 10.03105,3.13647c1.41361,0.43141 4.8797,0.6151 6.09877,1.42611c-0.50044,-0.90309 -0.18682,-2.0651 -0.11722,-3.09523c0.21516,-3.18451 -1.02411,-9.86062 1.46349,-12.37316c0.64201,-0.64844 1.75314,-0.51066 2.64249,-0.71488c2.69862,-0.61967 5.4466,-0.82461 8.13815,-1.45156c2.5277,-0.58879 7.14792,-2.56747 9.56776,-0.70243c1.22278,0.94243 0.03973,6.1854 -0.1238,6.91641c-1.00194,4.479 -2.06792,8.9638 -3.28218,13.40222c-1.03006,2.56831 -1.89713,5.16987 -2.28032,7.93013c-0.43557,3.13759 -0.12569,7.83477 -3.6367,9.56914c-0.95268,0.47061 -2.1212,0.13896 -3.18345,0.16522c-3.49458,0.08639 -7.00713,0.00441 -10.50289,0c-11.58884,-0.01462 -22.9043,-0.56585 -34.35907,-2.39062c-5.5602,-0.42543 -11.25348,-0.64461 -16.75267,-1.44839c-2.50717,-0.36646 -3.81994,-0.07696 -5.41354,-2.64647c-0.97865,-1.57797 -0.51594,-4.93659 -0.51594,-6.7351c0,-4.33661 -0.10962,-8.82163 0.30457,-13.13213c0.24014,-2.49917 0.87574,-4.61325 0.8719,-7.16199c0,0 0,-0.22997 0.08337,-0.52318z" stroke-width="0.25"/><path d="M360.30882,342.06555c0,-0.9665 0.7835,-1.75 1.75,-1.75c0.9665,0 1.75,0.7835 1.75,1.75c0,0.9665 -0.7835,1.75 -1.75,1.75c-0.9665,0 -1.75,-0.7835 -1.75,-1.75z" stroke-width="0.5"/><path d="M408.25,329.41849c0,-0.9665 0.7835,-1.75 1.75,-1.75c0.9665,0 1.75,0.7835 1.75,1.75c0,0.9665 -0.7835,1.75 -1.75,1.75c-0.9665,0 -1.75,-0.7835 -1.75,-1.75z" stroke-width="0.5"/></g></g></svg>