<svg version="1.1" xmlns="http://www.w3.org/2000/svg" xmlns:xlink="http://www.w3.org/1999/xlink" width="138.76661" height="239.05109" viewBox="0,0,138.76661,239.05109"><g transform="translate(-166.43355,-90.86536)"><g data-paper-data="{&quot;isPaintingLayer&quot;:true}" fill-rule="nonzero" stroke-miterlimit="10" stroke-dasharray="" stroke-dashoffset="0" style="mix-blend-mode: normal"><g stroke-linecap="butt" stroke-linejoin="miter"><g fill="#686868" stroke="#000000" stroke-width="1"><path d="M194.96564,329.1151v-104.28393h103.11166v104.28393z"/><path d="M176.06185,319.86411v-104.28393l18.9038,9.25099v104.28393z"/><path d="M194.85043,224.36185l-18.04454,-8.83049l104.83018,1.2615l16.75564,8.41z"/></g><path d="M198.6086,229.51515c0,-0.82583 0.684,-1.49528 1.52776,-1.49528c0.84376,0 1.52776,0.66946 1.52776,1.49528c0,0.82583 -0.684,1.49528 -1.52776,1.49528c-0.84376,0 -1.52776,-0.66946 -1.52776,-1.49528z" fill="#b9b9b9" stroke="none" stroke-width="0.5"/><path d="M292.31109,230.17973c0,-0.82583 0.68401,-1.49528 1.52776,-1.49528c0.84375,0 1.52776,0.66946 1.52776,1.49528c0,0.82583 -0.68401,1.49528 -1.52776,1.49528c-0.84375,0 -1.52776,-0.66946 -1.52776,-1.49528z" fill="#b9b9b9" stroke="none" stroke-width="0.5"/><path d="M293.66909,325.54561c0,-0.82582 0.68401,-1.49528 1.52776,-1.49528c0.84375,0 1.52776,0.66947 1.52776,1.49528c0,0.82582 -0.68401,1.49528 -1.52776,1.49528c-0.84375,0 -1.52776,-0.66947 -1.52776,-1.49528z" fill="#b9b9b9" stroke="none" stroke-width="0.5"/><path d="M197.92959,326.54247c0,-0.82582 0.684,-1.49528 1.52776,-1.49528c0.84376,0 1.52776,0.66947 1.52776,1.49528c0,0.82582 -0.684,1.49528 -1.52776,1.49528c-0.84376,0 -1.52776,-0.66947 -1.52776,-1.49528z" fill="#b9b9b9" stroke="none" stroke-width="0.5"/></g><path d="M235.85839,217.26952c1.68637,-0.31396 3.5461,0.43909 3.5461,0.43909c0,0 -0.20877,5.9172 -0.33268,8.05228c-0.12345,2.13826 0.25375,5.55249 0.25375,5.55249c0,0 0.43662,0.39085 0.13794,1.23315c-0.30209,0.8398 -2.04153,0.79483 -4.26758,0.97974c-2.2214,0.18017 -3.90005,-0.41744 -4.08035,-1.30451c-0.18381,-0.88334 0.52146,-1.19721 0.52146,-1.19721c0,0 2.27978,-6.81552 1.81362,-9.31577c0.00366,0.00564 0.25768,-4.03919 2.40773,-4.43925v0v0v0v0v0z" fill="#be1e2d" stroke="#231f20" stroke-width="0.90025" stroke-linecap="round" stroke-linejoin="round"/><path d="M258.60992,215.62365v0v0v0v0v0c0,0 1.8688,3.50239 -0.21159,4.812c-0.88461,0.56581 -2.20655,1.16901 -3.26043,0.6449c-0.30805,0.2887 -0.8102,0.64128 -1.45311,0.58439c-1.06243,-0.09398 -0.74576,-2.25851 -0.74576,-2.25851l0.01628,0.00845c-0.22146,-0.22832 -0.44622,-0.46088 -0.67483,-0.71737c-1.28026,-1.46121 -2.74398,-3.96663 -3.59841,-5.29214c0,0 -0.67867,-1.58976 0.21186,-2.58178c0.88958,-0.9924 3.11156,-0.69087 3.92318,-0.15137c0.8114,0.54028 4.8293,3.06917 5.79283,4.95143z" data-paper-data="{&quot;index&quot;:null}" fill="#be1e2d" stroke="#231f20" stroke-width="0.78673" stroke-linecap="round" stroke-linejoin="round"/><g stroke-width="0.90025"><path d="M249.37272,211.68335v0v0v0v0v0c0.45179,2.78843 -0.17396,7.93802 -3.42456,9.77621c-3.2152,1.81451 -6.64763,1.61005 -10.22792,-0.7288c-2.96641,-1.93855 -2.95454,-7.56751 -2.67931,-10.71949v0c0,0 -0.05583,-7.28494 6.1988,-8.24497c6.2527,-0.9599 9.21931,4.60071 9.73975,8.08299c0.15866,0.61231 0.29536,1.2374 0.39326,1.83407z" fill="#be1e2d" stroke="#000000" stroke-linecap="butt" stroke-linejoin="miter"/><path d="M247.72892,219.70336v0v0v0v0v0l-0.0141,0.1428c-0.47373,0.65452 -1.05838,1.21145 -1.76576,1.61161c-2.97814,1.68104 -6.1413,1.63011 -9.43706,-0.24583l-0.03541,-0.1432c0,0 -1.83138,-9.24716 4.19903,-9.72114c6.84769,-0.53509 7.08021,6.80562 7.0533,8.35578z" fill="#e6e7e8" stroke="#231f20" stroke-linecap="round" stroke-linejoin="round"/></g><path d="M249.54705,221.46968c-2.58124,2.64825 -5.5506,3.71101 -6.63224,2.37374c-1.08164,-1.33726 0.13401,-4.56816 2.71525,-7.21641c2.58124,-2.64825 5.5506,-3.71101 6.63224,-2.37374c1.08164,1.33726 -0.13401,4.56816 -2.71525,7.21641z" fill="#be1e2d" stroke="#231f20" stroke-width="0.90025" stroke-linecap="butt" stroke-linejoin="miter"/><path d="M250.03403,213.65049c1.53439,-0.7533 3.53363,-0.52667 3.53363,-0.52667c0,0 1.4523,5.74756 1.92961,7.83444c0.47863,2.08981 1.79531,5.27297 1.79531,5.27297c0,0 0.52917,0.2591 0.47719,1.14924c-0.05596,0.88865 -1.74167,1.31091 -3.83122,2.08452c-2.08641,0.76781 -3.86804,0.64221 -4.28928,-0.1628c-0.42359,-0.80049 0.16711,-1.29114 0.16711,-1.29114c0,0 0.2888,-7.16591 -0.85809,-9.44612c0.0051,0.00446 -0.88059,-3.95422 1.07575,-4.91444z" fill="#be1e2d" stroke="#231f20" stroke-width="0.90025" stroke-linecap="round" stroke-linejoin="round"/><path d="M235.68536,217.22221v0v0v0v0v0c-0.3088,1.98488 -1.47827,5.66525 -2.25484,6.64257c0,0 -3.19585,3.6937 -5.36423,2.53182c-0.41408,-0.22166 -1.28749,3.16917 -2.47891,2.6889c-1.43874,-0.57998 1.16509,-4.67064 1.17278,-5.35985c-0.12028,-0.03604 0.41318,-2.90673 1.49191,-5.43481c0.93903,-2.20069 2.40711,-4.05517 2.74538,-4.65394c0,0 0.70539,-1.3264 2.36086,-1.37361c1.7612,-0.05052 2.6359,2.97399 2.32708,4.95889z" data-paper-data="{&quot;index&quot;:null}" fill="#be1e2d" stroke="#231f20" stroke-width="0.78673" stroke-linecap="round" stroke-linejoin="round"/><g stroke="#000000" stroke-width="0.90025" stroke-linecap="round" stroke-linejoin="round"><path d="M286.82359,185.6031l-0.47947,1.56408c-2.69203,7.91139 -6.79528,12.56701 -6.79528,12.56701c0,0 0.09566,-1.39691 -0.08046,-3.62808l-0.13574,-0.04034c-0.33728,1.19192 -0.90859,2.73456 -1.88531,4.65105c-2.14168,4.2086 -8.79288,7.93184 -8.79288,7.93184c0,0 0.3631,-1.43191 0.53071,-3.75768l-0.1101,-0.35036c-0.7133,0.58467 -1.45596,1.12551 -2.20744,1.65325c-0.22107,0.15624 -0.44219,0.3088 -0.66727,0.45701c-0.68475,0.45601 -1.38315,0.89271 -2.09735,1.30312c-0.28227,0.16039 -0.57607,0.31057 -0.86236,0.46485c-0.52221,0.28237 -1.05244,0.55059 -1.59116,0.81117c-0.39583,0.1892 -0.79446,0.37771 -1.201,0.55476c-0.42075,0.18581 -0.85412,0.35497 -1.28448,0.53039c-0.79162,0.31374 -1.59596,0.60924 -2.41956,0.88486c-0.26871,0.08981 -0.53752,0.17963 -0.81114,0.26424c-0.58782,0.18354 -1.18047,0.36358 -1.78477,0.52623l0.00191,0.00171c-3.03343,0.82152 -6.26379,1.4075 -9.73362,1.75698c-3.754,0.37715 -7.16721,0.47742 -10.36257,0.38836v0c-2.52847,-0.07175 -4.90081,-0.27289 -7.15204,-0.58304c-0.10886,-0.01448 -0.21879,-0.02982 -0.32856,-0.04427c-0.69616,-0.10055 -1.38166,-0.2095 -2.05469,-0.32972c-0.23496,-0.04364 -0.46002,-0.09206 -0.69404,-0.13744c-0.8946,-0.1706 -1.76522,-0.362 -2.62453,-0.56824c-0.5432,-0.13083 -1.08299,-0.26548 -1.61118,-0.41039c-0.31369,-0.08348 -0.62849,-0.17151 -0.93601,-0.26062c-0.8399,-0.24651 -1.67265,-0.49772 -2.48161,-0.77241l-0.13296,0.13553c0.38882,2.09421 1.17841,3.19777 1.79381,3.71371c1.25455,1.05346 3.59158,1.22189 3.59158,1.22189c0,0 -7.06928,1.25937 -11.16609,-3.95795c-0.43528,-0.55459 -0.87508,-1.12977 -1.29546,-1.74433l-0.18466,-0.35365c-0.85253,-0.24142 -1.71985,-0.57304 -2.58066,-1.01008c-5.24968,-2.68577 -5.99375,-5.04496 -5.99375,-5.04496l0.1438,0.8699c0.5894,2.25866 1.13155,3.67745 1.13155,3.67745c0,0 -6.29745,-3.55528 -9.27013,-9.14279c-2.39694,-4.51048 -2.68879,-7.28931 -2.72308,-7.75687l-0.27632,-1.66483c-0.40751,-6.54656 -0.29972,-13.91229 0.31701,-21.17903l0.0487,-0.19501c0.58559,-5.62179 -0.5978,-14.84883 6.58138,-24.62715c13.45318,-18.31876 27.98318,-18.28436 36.10806,-31.74994c5.97626,-9.90621 3.87332,-20.90782 3.87332,-20.90782c0,0 4.14019,5.26496 5.83476,8.38634c1.64173,3.04258 3.42362,6.97775 3.42362,6.97775l0.05078,-0.03616c0.03083,-0.11807 0.05789,-0.23859 0.08037,-0.35891c0.34824,-1.87409 0.0645,-4.61294 0.0645,-4.61294c0,0 4.17914,10.55088 10.49594,17.32445c6.31298,6.77022 15.09657,8.42481 27.08686,31.99705c1.49202,2.92917 2.86796,5.38968 3.66448,8.14657l0.37501,1.58993c1.16733,4.96853 1.37078,18.81634 -0.39056,24.87345zM215.47684,164.91148c0,0 -6.81142,7.51903 -5.92038,17.56525c0.78838,8.88893 3.26192,11.54511 4.56142,12.18272c1.33597,0.65142 3.34402,0.15313 3.34402,0.15313c0,0 -5.60495,3.19984 -10.44439,-0.64215c-3.2369,-2.56805 -6.78236,-5.90612 -8.14517,-15.6683M275.3544,178.57295c0,0 0.98787,2.44109 -0.94987,7.70404c-2.17953,5.92924 -7.2187,7.93875 -7.2187,7.93875c0,0 3.8732,-9.15528 -0.04741,-17.45944c-1.71123,-3.62814 -6.63072,-6.1843 -11.72698,-7.92411c-6.90624,-2.35973 -14.13601,-3.219 -14.13601,-3.219M279.3597,195.96683c-0.33302,1.20612 -0.91184,2.78586 -1.91769,4.75382c-2.14077,4.20856 -8.79196,7.9318 -8.79196,7.9318c0,0 1.0546,-4.1775 0.39762,-9.84467M200.62447,185.66553c-0.64495,1.29596 -1.12477,2.6768 -1.36509,4.12442c-1.51196,9.02631 2.22238,18.75171 2.22238,18.75171c0,0 -6.29554,-3.55364 -9.27014,-9.14289c-2.63703,-4.96068 -2.726,-7.82678 -2.726,-7.82678M286.33982,187.17365c-2.69385,7.91147 -6.7962,12.56705 -6.7962,12.56705c0,0 0.55469,-7.93689 -3.37341,-16.24168c-0.17721,-0.3755 -0.37514,-0.73939 -0.5835,-1.09209M241.27635,165.61316c0,0 1.22994,0.26677 4.54486,2.63865c3.31502,2.37187 4.6103,5.05293 4.6103,5.05293c0,0 -9.58072,-2.06265 -14.90578,-3.699c-5.31963,-1.63837 -23.20689,-5.64253 -23.20689,-5.64253M212.82169,204.01561c2.73531,3.8475 5.49879,5.88944 5.49879,5.88944c0,0 -6.20756,2.1579 -12.12026,-0.86408c-5.24968,-2.68567 -5.99375,-5.04496 -5.99375,-5.04496M269.06893,204.54627c-6.56268,5.37508 -14.67829,8.20605 -24.65173,9.21011c-11.89051,1.197 -20.6753,-0.15751 -28.24245,-2.71788M215.94119,210.52511c0.33135,2.51774 1.21627,3.79447 1.89247,4.36004c1.25547,1.05344 3.59249,1.22185 3.59249,1.22185c0,0 -7.07112,1.25945 -11.167,-3.95791c-0.43528,-0.55459 -0.87508,-1.12977 -1.29546,-1.74433M241.97694,165.88502c0,0 26.09497,2.05695 26.67651,15.9273" fill="#be1e2d"/><path d="M273.99409,187.60574c-0.55016,10.01422 -11.83018,20.89228 -28.93533,22.56192c-15.10066,1.48219 -37.75005,-4.28152 -41.5103,-16.4192c-0.37419,-1.22002 -0.59539,-2.40388 -0.69006,-3.54613l0.33875,0.22175c1.21785,1.60007 2.54192,2.73606 3.82043,3.74815c4.83938,3.84022 10.44433,0.64036 10.44433,0.64036c0,0 -2.00797,0.50007 -3.34395,-0.15133c-1.2995,-0.63761 -3.77304,-3.2938 -4.56142,-12.18272c-0.89111,-10.04801 5.92038,-17.56525 5.92038,-17.56525l0.01502,-0.23238c5.38507,1.22978 16.11513,3.71787 20.03197,4.9249c5.32509,1.63725 14.90578,3.699 14.90578,3.699c0,0 -1.29527,-2.68105 -4.6103,-5.05293c-1.65932,-1.18627 -2.7946,-1.84574 -3.51463,-2.20931l0.66389,0.0748c0,0 20.14072,2.09217 24.17162,10.63885c3.91975,8.30511 0.04833,17.45941 0.04833,17.45941c0,0 4.29086,-1.71268 6.66145,-6.63194z" fill="#e6e7e8"/></g><g stroke="#000000" stroke-width="0.90025" stroke-linecap="round" stroke-linejoin="miter"><path d="M280.30589,170.10813c0,0 8.80153,-10.48031 9.29454,-10.9798c0.49293,-0.49938 4.11405,-5.22724 15.03749,-7.23155c0,0 -5.76916,30.99673 -21.91279,38.68227c-0.00004,-0.0009 1.19532,-8.85186 -2.41924,-20.47092zM280.38037,170.35307c-0.27803,-0.96159 -1.06638,-2.64815 -1.06638,-2.64815M282.03599,192.96528c0,0 0.56943,-1.49767 0.6891,-2.38713" fill="#be1e2d"/><path d="M289.07391,185.48834c0,0 -1.69817,-1.17223 -2.05864,-5.23812c-0.22775,-2.52191 0.71322,-7.17534 0.71322,-7.17534l-0.08543,0.15069c0.68504,-0.84303 1.4037,-1.82479 2.04706,-2.89612c1.09037,-1.81231 2.34158,-4.51483 3.48089,-7.17516l0.17818,-0.36732c0,0 3.1036,-4.85892 9.92201,-5.73188l0.08053,0.03897c-1.24615,4.72684 -3.31082,11.66913 -5.71927,16.45152c-2.70145,5.36466 -5.92221,9.31119 -8.67543,12.04352zM284.99498,175.96813c0,0 2.30486,-2.39286 2.73353,-2.89325" fill="#929497"/></g><g stroke="#000000" stroke-width="0.90025" stroke-linecap="round" stroke-linejoin="miter"><path d="M192.11781,194.21729c-16.73182,-6.36512 -25.07653,-36.79499 -25.07653,-36.79499c11.05464,1.12248 15.05938,5.54405 15.59241,6.00134c0.53303,0.45739 10.18245,10.19752 10.18245,10.19752c-2.63062,11.87077 -0.69833,20.59613 -0.69833,20.59613zM193.60253,171.14742c0,0 -0.6445,1.74412 -0.841,2.72477M192.11781,194.21729c0.19364,0.87687 0.88662,2.32385 0.88662,2.32385" fill="#be1e2d"/><path d="M185.48915,189.74476c-2.97273,-2.50324 -6.51211,-6.17826 -9.65456,-11.30732c-2.80161,-4.57315 -5.43948,-11.32656 -7.07726,-15.93757l0.0771,-0.0453c6.86951,0.32411 10.36848,4.91695 10.36848,4.91695l0.20833,0.35181c1.3581,2.56002 2.83143,5.15311 4.06986,6.87189c0.73088,1.01614 1.52933,1.93696 2.28262,2.72221l-0.09775,-0.14333c0,0 1.32736,4.56232 1.31139,7.09403c-0.0188,4.08113 -1.61323,5.38559 -1.61323,5.38559zM185.66596,177.17409c0.46911,0.46435 2.96653,2.66433 2.96653,2.66433" fill="#929497"/></g><path d="M228.89416,187.22891v0v0v0v0v0c0.73855,0.17057 1.19376,0.89418 1.01754,1.61711c-0.17421,0.72464 -0.90985,1.17002 -1.65375,1.00326c-0.04267,-0.01086 -4.35304,-0.97391 -8.47067,0.38241c-0.12672,0.04101 -0.25334,0.06495 -0.38065,0.07007c-0.59542,0.0239 -1.16125,-0.33777 -1.36077,-0.9171c-0.11795,-0.33836 -0.08144,-0.69281 0.06379,-0.99507c-0.26671,-0.21028 -0.52229,-0.48555 -0.70739,-0.87161c-0.21693,-0.44753 -0.02105,-0.98349 0.43807,-1.19507c0.45486,-0.20593 1.00391,-0.02326 1.222,0.42792c0.17287,0.35951 0.63348,0.44606 0.63905,0.44764c0.13598,0.02417 0.25668,0.08038 0.36165,0.15519c0.13448,-0.03324 0.26975,-0.0674 0.40254,-0.09519c-0.14976,-0.2023 -0.29051,-0.4302 -0.38142,-0.71401c-0.15017,-0.47446 0.12069,-0.97491 0.60541,-1.12278c0.4882,-0.1525 0.99799,0.11984 1.14716,0.59254c0.11951,0.37782 0.55275,0.53372 0.55649,0.53536c0.20163,0.05846 0.35382,0.18702 0.46777,0.34228c3.27524,-0.28149 5.88483,0.30261 6.03317,0.33705z" fill="#231f20" stroke="none" stroke-width="0.90025" stroke-linecap="butt" stroke-linejoin="miter"/><path d="M261.63161,184.80751v0v0v0v0v0c-0.12776,0.80628 -0.59783,1.30386 -0.98611,1.60779c0.11224,0.24791 0.17615,0.5229 0.11649,0.80905c-0.15207,0.72735 -0.86175,1.20141 -1.62237,1.05137c-2.88267,-0.57402 -6.58793,-0.67574 -7.29986,0.09474c-0.25719,0.27702 -0.60335,0.42571 -0.95974,0.44002c-0.35089,0.0141 -0.70355,-0.10204 -0.98288,-0.35033c-0.56228,-0.49842 -0.60529,-1.34903 -0.0944,-1.9013c1.37576,-1.48506 4.40694,-1.56998 6.84416,-1.35539c0.11397,-0.10425 0.2932,-0.31528 0.29972,-0.59759c0.00511,-0.49326 0.38266,-0.92168 0.92546,-0.8877c0.5058,0.00482 0.91092,0.40888 0.90698,0.90569c-0.00524,0.31279 -0.07294,0.5796 -0.16087,0.82377c0.121,0.01939 0.23638,0.0363 0.34466,0.05629c0.08923,-0.14736 0.203,-0.27853 0.3722,-0.35896c0.02505,-0.01537 0.42262,-0.22899 0.48529,-0.61591c0.08041,-0.4891 0.54055,-0.83185 1.04787,-0.74716c0.49972,0.0787 0.84097,0.53481 0.76339,1.0256z" fill="#231f20" stroke="none" stroke-width="0.90025" stroke-linecap="butt" stroke-linejoin="miter"/><path d="M238.64905,196.94877c-0.02388,-1.16969 0.92556,-2.13684 2.12065,-2.16023c1.19509,-0.02338 2.18325,0.90588 2.20714,2.07557c0.02388,1.16969 -0.92556,2.13684 -2.12065,2.16023c-1.19509,0.02338 -2.18325,-0.90588 -2.20714,-2.07557z" fill="#292929" stroke="#231f20" stroke-width="0.9" stroke-linecap="butt" stroke-linejoin="miter"/><g stroke="#000000" stroke-width="1" stroke-linecap="butt" stroke-linejoin="miter"><path d="M278.25148,266.81661c-7.26514,2.54464 -53.39429,1.91478 -60.51727,-0.35643c-8.22624,-2.62301 -7.21296,-22.07649 1.16127,-24.70172c7.0918,-2.2232 52.9472,-1.80565 60.29867,1.01628c6.65806,2.55576 6.47656,21.44324 -0.94267,24.04186z" data-paper-data="{&quot;index&quot;:null}" fill="#363636"/><path d="M273.9776,263.20274c-5.785,1.80403 -42.51613,1.35749 -48.18791,-0.25268c-6.55029,-1.85959 -5.74345,-15.65119 0.92467,-17.51236c5.64696,-1.57614 42.16011,-1.28012 48.01385,0.7205c5.30158,1.81191 5.15707,15.20225 -0.75062,17.04455z" data-paper-data="{&quot;index&quot;:null}" fill="#4a4a4a"/></g><g stroke="#000000" stroke-width="1" stroke-linecap="butt" stroke-linejoin="miter"><path d="M278.77422,315.93344c-7.26514,2.54464 -53.39429,1.91478 -60.51727,-0.35643c-8.22624,-2.62301 -7.21296,-22.07649 1.16127,-24.70172c7.0918,-2.2232 52.9472,-1.80565 60.29867,1.01628c6.65806,2.55575 6.47656,21.44325 -0.94267,24.04186z" data-paper-data="{&quot;index&quot;:null}" fill="#363636"/><path d="M274.50034,312.31957c-5.785,1.80403 -42.51613,1.35749 -48.18791,-0.25268c-6.55029,-1.85959 -5.74345,-15.65119 0.92467,-17.51236c5.64696,-1.57614 42.16011,-1.28012 48.01385,0.72051c5.30158,1.81191 5.15707,15.20225 -0.75062,17.04455z" data-paper-data="{&quot;index&quot;:null}" fill="#4a4a4a"/></g></g></g></svg>