<svg version="1.1" xmlns="http://www.w3.org/2000/svg" xmlns:xlink="http://www.w3.org/1999/xlink" width="122.05581" height="160.38144" viewBox="0,0,122.05581,160.38144"><g transform="translate(-154.8394,-78.70176)"><g data-paper-data="{&quot;isPaintingLayer&quot;:true}" fill-rule="nonzero" stroke="none" stroke-linecap="butt" stroke-linejoin="miter" stroke-miterlimit="10" stroke-dasharray="" stroke-dashoffset="0" style="mix-blend-mode: normal"><path d="M211.45,216.38333l13.36382,-16.84926l-2.26382,-25.90074l17.4,-4.05l20.65,44.85l-13.55223,2.95902l-11.82551,-34.03571l2.59862,21.48205l-7.20917,19.90555z" fill="#414ca9" stroke-width="0"/><path d="M207.75,222.48333l10.3,-5l22.75,19.75l-28.95,0.9z" fill="#e9caf8" stroke-width="0"/><path d="M240.6,227.73333l2,-8.3l20.45,-3.35l2.45,11.35z" fill="#e9caf8" stroke-width="0"/><path d="M209.1,162.38333l0.91879,-7.58046l-2.64327,-9.45609l5.12448,-9.06345l5.94552,-0.5729l0.87614,6.14381l20.03752,4.49017l28.5682,-8.25171l-19.70628,16.52107l-19.1711,-1.43045l8.95,17.2l-17.49147,3.56599l0.01446,-17.64181l-18.72653,15.37057l-31.39647,-0.39475l-15.56059,-24.21849l16.19691,-5.04251z" fill="#8f21c6" stroke-width="0"/><path d="M161.5,151.33333l18.15,-13.15l22.05,20l-31.65,5.6z" fill="#e9caf8" stroke-width="0"/><path d="M189.85,134.03333l-12.35,-54.7l87.75,0.85l-18.95,57.7z" fill="#3d2747" stroke-width="0"/><path d="M215.8511,147.33325c0.02793,0.07721 0.05422,0.15563 0.07894,0.23519c-0.07748,-0.19498 -0.15463,-0.38986 -0.23086,-0.58488c0.06053,0.12228 0.11195,0.23919 0.15193,0.34969z" fill="#000000" stroke-width="0.5"/><path d="M254.02158,138.33394l-10.25,-13l28,-3.25l4.25,14.75z" fill="#e9caf8" stroke-width="0"/><path d="M246.82619,133.10043c-0.01044,-0.03351 -0.01245,-0.07177 -0.00705,-0.1141c-1.44312,0.40934 -2.90721,0.45967 -4.23326,-0.15268c-1.40323,-0.648 -1.77176,-2.01268 -1.27674,-2.99111c-0.58377,0.17617 -1.24665,0.27305 -2.01568,0.27454c-0.26316,0 -0.52632,0 -0.78947,0h-0.13158c0,0 -0.55004,0 -0.70803,-0.47104c-3.29422,2.47206 -8.02013,3.82753 -11.69227,4.49703c-0.1293,0.1034 -0.25726,0.14605 -0.25726,0.14605l-0.63191,0.17007c-1.06303,0 -2.82496,0.4362 -3.80089,0.0893c-0.17003,-0.06044 -0.31594,-0.14316 -0.44372,-0.24212c-5.00317,-0.31646 -10.20965,-1.3922 -14.60959,-3.82941c-0.67713,0.20951 -1.24774,0.31667 -1.5401,0.18601c-0.20883,-0.09333 -0.33201,-0.3169 -0.39906,-0.61941c-2.63123,3.15393 -11.17981,0.09149 -12.89042,-3.07872c-1.24959,-2.31583 -0.01825,-4.17991 -1.90937,-6.08554c-3.79669,-2.24472 -5.64664,-5.47404 -6.81466,-9.66049c-0.35574,-1.27506 0.06462,-2.67664 -0.17597,-3.84546c-0.22601,-1.09798 -1.39234,-1.79631 -1.69101,-2.93534c-0.60487,-2.30674 -0.31011,-4.41831 0.12989,-6.71467c1.19326,-3.34697 3.1219,-6.83168 6.43788,-8.49916c0.79326,-0.3989 2.18167,-0.50725 2.9421,-1.00287c0.78781,-0.51347 0.67618,-2.31388 1.26238,-3.10943c2.03377,-2.76007 5.03488,-3.62085 8.24228,-4.28091c6.82767,-1.40055 14.14299,-2.59508 21.15138,-1.94912c0.46869,0.0432 0.98933,0.01598 1.38613,0.26913c0.49933,0.31855 0.37386,1.32281 0.93559,1.5106c0.96804,0.32363 2.9619,-0.07081 3.99767,-0.07081c6.4794,0 13.42468,0.44481 19.21445,3.70205c2.60014,1.4628 5.82569,4.23511 3.97378,7.4467c-1.26175,0.55111 0.82279,4.7269 1.2396,5.87737c1.21893,3.36446 2.77672,7.16224 3.31134,10.70212c0.15755,1.04317 0.44517,3.01103 -0.25293,3.97329c-0.53609,0.73895 -1.69835,1.30306 -2.33104,2.04503c-0.9437,3.01872 -1.8286,6.17507 -3.89098,8.66314c-0.64352,0.77635 -1.64768,1.00385 -2.20842,1.80515c-1.06743,1.52535 -1.89805,2.94944 -3.05211,3.9383c3.41853,-0.10847 4.43913,-2.0564 6.95533,-4.28816c2.78677,-2.47174 7.70335,-5.13239 11.60138,-5.41888c0.45371,-0.39309 0.94605,0.0172 0.94605,0.0172c0.3121,0.26009 0.62074,0.50874 0.93079,0.75065c0.0778,-0.0041 0.12947,0.00236 0.12947,0.00236c2.35041,0.31547 4.92733,1.6598 7.11607,2.60663c0.94123,0.40717 2.75248,0.87406 3.45734,1.69076c2.63728,3.05571 3.211,7.81481 1.45175,11.38749c-3.26993,6.52055 -12.36823,10.23445 -18.6402,13.36917c-7.8586,3.49271 -14.94366,5.99279 -23.60956,5.99279c-0.88164,0 -1.769,0.03509 -2.65207,0.01772c0.48231,0.59049 0.95899,1.1785 1.42759,1.76426c1.82119,2.27649 3.55902,4.60878 5.40076,6.85865c2.15132,1.44982 3.80471,3.65676 3.81056,6.26726l-0.35125,0.66191c0,0 -0.27729,0.27729 -0.63136,0.23035c1.68247,6.84604 5.3723,13.37593 8.89442,19.36733c4.53575,6.80541 7.35242,14.30656 10.97847,21.55866c0.26841,0.80017 0.98016,2.31426 0.6765,3.15576c-0.16078,0.44555 -0.51106,0.77951 -0.92254,1.02713c1.32313,1.70377 2.49513,3.49538 4.03083,5.04747c0.55751,0.56346 1.34375,1.18707 1.27198,2.13131c-0.28037,3.68842 -8.32368,3.88392 -10.88126,3.88586c-2.32178,-0.00334 -6.0214,2.06481 -8.18175,1.12712c-3.00972,-1.30636 -3.63174,-5.50079 -1.57336,-7.78754c1.34233,-1.49125 3.68817,-2.19217 5.54502,-2.75388c0.12844,-0.12103 0.25688,-0.24206 0.38532,-0.36309l0.00696,-0.06755c-0.0576,-0.0137 -0.11438,-0.02821 -0.17029,-0.04354c-2.8654,-0.78565 -2.9191,-5.22493 -3.56067,-7.45238c-1.5427,-3.58635 -2.90078,-7.17755 -4.173,-10.85348c-0.26428,-0.11386 -0.39642,-0.37814 -0.39642,-0.37814l-0.2643,-0.52861c-1.87766,-3.78868 -3.75838,-7.60617 -5.89777,-11.27246c-0.25105,-0.43023 -0.53085,-0.85748 -0.81218,-1.28814c2.07914,5.75205 4.06015,11.7904 5.22641,17.62717c0.52838,3.86533 -4.73134,6.17342 -6.20176,9.67159c-0.83294,1.98158 -1.55091,4.77097 -1.16253,6.93444c0.00721,0.04017 0.6955,2.39876 0.63591,2.54161c-0.21919,0.52542 -0.83702,0.77192 -1.25553,1.15788c-0.34661,0.0132 -0.70691,0.02965 -1.07845,0.04757c0.53946,0.95406 1.049,1.9531 1.77347,2.6908c2.25995,2.3012 7.93846,4.9073 4.76449,9.00162c-0.51798,0.66818 -1.24137,1.15308 -1.9201,1.65715c-0.84909,0.6306 -1.25506,0.71072 -2.2156,1.07359c-6.90359,2.5847 -18.01738,2.37092 -22.25102,-4.71108c-0.871,-2.16747 -1.56849,-4.2281 -1.25671,-6.60912c0.08246,-0.62972 0.65502,-1.15469 0.65331,-1.78978c-0.00253,-0.93915 -0.81163,-1.58206 -0.65331,-2.68391c0.32361,-2.25212 2.54265,-3.92413 4.59005,-4.65442c-0.08042,-0.48544 -0.12231,-1.00778 -0.12199,-1.56973c0.0007,-1.22816 0.12781,-2.30688 0.42465,-3.49916c1.43242,-4.30646 4.26465,-7.02736 8.07077,-9.49564c0.64952,-0.42122 3.20494,-1.34761 3.61984,-1.91741c0.32037,-0.43998 0.01939,-1.08924 -0.00922,-1.63274c-0.12269,-2.33047 -0.63286,-4.56184 -1.03692,-6.85131c-1.40815,-5.63193 -3.15699,-12.12974 -3.17437,-17.91951l-0.11701,-0.51081c0,0 -0.04854,-0.24271 0.04958,-0.47716c-0.16091,-0.04699 -0.30133,-0.10408 -0.41701,-0.17275c-1.82473,-1.0833 -1.46475,-3.41019 -1.74374,-5.17301c-0.25812,-1.63093 -0.59682,-3.23626 -0.90508,-4.84182c-0.23472,0.69568 -0.63625,1.33746 -1.31531,1.90003c-3.43287,2.56337 -8.02366,3.05735 -12.17355,3.51581c-4.66606,0.51549 -9.25261,1.18865 -13.94495,1.46463c-2.29972,0.16436 -4.59438,0.41499 -6.89524,0.52112c-0.10563,0.57659 -0.73504,0.57659 -0.73504,0.57659h-0.13158c-4.82142,0 -9.55506,0.03269 -14.1742,-1.53742c-7.17547,-3.25675 -10.81034,-11.93154 -13.14506,-19.09244c-0.00729,-1.18039 -0.21297,-2.49268 0.32497,-3.5976c2.19672,-4.51208 7.8368,-4.84978 12.17286,-5.39279c1.46725,-0.18375 3.57377,-0.05203 4.8303,-0.8518c0,0 0.64312,-0.38587 1.02899,0.25725c0.23253,0.38754 0.0914,0.68167 -0.05749,0.85424c1.33697,-0.28001 2.61994,-0.42582 3.75648,-0.4289c0,0 0.68463,0 0.74566,0.65412c1.32278,0.33785 2.49863,1.26568 3.70146,1.94247c2.96726,1.66957 6.26153,2.7378 8.81651,5.09482c1.56184,1.44084 1.92363,3.44996 3.80079,4.5026c1.53111,0.76561 4.16802,1.98811 2.16547,4.2021c-0.75375,0.83333 -2.83668,1.04096 -3.888,1.15239c-1.17792,0.12484 -2.40269,0.17329 -3.58404,0.08348c0.01008,0.01335 0.01996,0.02698 0.02965,0.04087l-0.00002,-0.00002c0.46086,0.66096 0.47933,1.24387 0.24264,1.72363c1.70066,1.95125 4.52398,2.35841 7.3593,2.43131c3.09709,-0.72547 6.21023,-1.3907 9.27796,-2.23423c1.88233,-0.51758 3.78784,-0.60192 4.88792,-2.49801c0.57979,-0.99932 0.64003,-2.27021 0.82881,-3.38109c-0.0003,-0.13104 -0.0026,-0.26175 -0.0068,-0.39215c-1.44173,0.44225 -3.01328,0.54932 -4.77443,0.23438c-0.76428,-0.46742 -1.70009,-0.9855 -2.3585,-1.60714c-0.69994,-0.66086 -1.39274,-1.35587 -1.90327,-2.17197c-2.18708,-3.49615 0.609,-4.23735 2.72672,-6.04722c0.85229,-0.7284 1.54051,-1.57646 2.01667,-2.51664c-0.01268,-0.07063 -0.02448,-0.1413 -0.03536,-0.21202c-0.14846,-0.96453 -0.09088,-1.67039 0.16854,-2.195c0.14749,-2.05928 1.02462,-3.7307 3.33703,-2.7066c0.39629,-0.68424 1.10096,-1.1792 2.25163,-1.35445c0.60219,-0.09855 1.21502,-0.13881 1.82522,-0.1404l0.70822,0.15397c0,0 0.72761,0.1819 0.54571,0.90951c-0.06742,0.26968 -0.2098,0.41442 -0.36232,0.48978c0.09821,0.17351 0.19763,0.3467 0.29821,0.51957c0.47407,-0.41859 1.14297,-0.56484 2.02304,-0.15992c1.18295,0.54427 1.47357,2.23367 1.98802,3.36431c0.58924,0.26425 1.20179,0.48082 1.84315,0.63459c1.4922,0.35776 3.11078,0.48156 4.76743,0.5467c1.92133,-1.16936 3.71875,-2.99546 5.99664,-3.45507c3.80813,-0.37228 7.2194,0.08571 10.6699,1.80515l1.16872,0.51922c0,0 0.68536,0.3046 0.38075,0.98996c-0.3046,0.68536 -0.98996,0.38075 -0.98996,0.38075l-1.1997,-0.53341c-3.17893,-1.59516 -6.29502,-2.02118 -9.80941,-1.67794c-1.49056,0.29505 -2.72538,1.15389 -3.92993,2.04063c3.18882,0.09175 6.36931,0.26147 8.92994,1.72301c1.01495,0.77155 2.00666,1.53257 2.96299,2.36211c3.64563,-1.29864 6.81943,-3.73745 10.06427,-5.76566c0.38307,-0.22037 0.71997,-0.53192 0.99026,-0.88157l0.22477,-0.34224c0,0 0.0426,-0.0639 0.12098,-0.13717c-2.32066,-0.43602 -4.50524,-1.39227 -5.33373,-3.53359c-0.18129,-0.46857 -0.08649,-1.27574 0.17812,-2.17764c-0.89265,0.51616 -2.03883,0.84476 -2.46651,-0.52853zM185.12291,157.43075l-0.03107,-0.05593c-0.00126,-0.00217 -0.00251,-0.00435 -0.00375,-0.00653c-0.00221,0.00656 -0.00442,0.01311 -0.00665,0.01966zM188.3426,160.38018l-0.11167,-0.07445c-0.0091,0.00864 -0.01841,0.01705 -0.02793,0.02523c-0.04262,0.0679 -0.09155,0.12165 -0.1439,0.16399c0.15402,0.00043 0.32012,-0.00481 0.48885,-0.01566c-0.07395,-0.02257 -0.14305,-0.05625 -0.20535,-0.09911zM189.38729,160.18378c-0.06648,0.09751 -0.15536,0.17854 -0.25923,0.23566c0.1235,-0.01804 0.2422,-0.03929 0.35189,-0.06372c-0.03144,-0.05658 -0.06233,-0.11389 -0.09266,-0.17194zM185.38211,156.24799c-0.00654,0.03448 -0.01331,0.06895 -0.0203,0.10338c0.02291,-0.01344 0.04659,-0.0257 0.07096,-0.0367c-0.01703,-0.02206 -0.03392,-0.04428 -0.05066,-0.06668zM188.65601,162.0905c-2.30078,0.01154 -3.60742,-0.83239 -5.11442,-2.28822c-1.59433,1.25637 -3.67911,0.71204 -5.60385,0.96709c-2.78019,0.36841 -4.54359,2.25853 -7.59501,1.27245c-1.89749,-0.82546 -3.73506,-2.58703 -4.41666,-4.64166c-1.5508,-1.33074 -2.84086,-2.69121 -3.17018,-4.822c-0.00741,-4.34228 3.94185,-7.61399 8.42229,-9.49854c-5.49559,0.72099 -12.27702,0.01917 -12.3286,7.08839c2.26702,6.61653 5.53526,14.89633 12.21762,17.93844c3.68677,1.26316 7.48267,1.41526 11.3181,1.43089c0.1323,-0.52552 0.72397,-0.52552 0.72397,-0.52552h0.39474c2.9568,0.00001 5.89897,-0.35748 8.84857,-0.56823c4.66986,-0.27473 9.23377,-0.94559 13.87773,-1.45873c3.83542,-0.4238 8.24802,-0.82016 11.41965,-3.21068c1.4775,-1.12045 1.03433,-3.27577 1.02512,-4.92971c-0.00972,-1.74416 -0.11658,-3.50649 -0.30292,-5.26809c-0.09493,-0.26464 -0.19545,-0.52655 -0.30075,-0.78609c0.00028,-0.40081 -0.00208,-0.80596 -0.00943,-1.21301c-0.70953,-3.98873 -1.80923,-8.47783 -4.85407,-11.2099c-0.07391,-0.01741 -0.15098,-0.02663 -0.23021,-0.02663c-0.1161,0 -0.22759,0.01979 -0.33126,0.05617c-0.01546,-0.1014 -0.02928,-0.20242 -0.04131,-0.30291l-0.03045,0.01285c-0.1343,0.02238 -0.46519,0.0219 -0.79625,0.05487c-0.02298,0.03318 -0.0459,0.06639 -0.06877,0.09965c-0.0716,0.70049 -0.22885,1.34195 -0.46398,1.95215c0.02033,0.13163 0.04218,0.26002 0.06513,0.38375c0.00067,-0.0002 0.00134,-0.00041 0.00201,-0.00061c0.71777,-0.2175 0.93527,0.50026 0.93527,0.50026l0.01082,0.03572c0.48673,1.60623 1.07594,3.17779 1.6059,4.75481c0.79632,1.73799 1.46511,3.54999 1.94345,5.36769c0,0 0.19033,0.72325 -0.53135,0.91536c0.01842,0.30343 0.02781,0.60878 0.02718,0.91632c-0.21617,1.32008 -0.31931,2.80227 -1.0133,3.98733c-1.34578,2.29809 -3.48972,2.57657 -5.79945,3.21404c-2.4111,0.66545 -4.85117,1.21812 -7.28946,1.77619c-0.13188,0.52637 -0.72418,0.52637 -0.72418,0.52637h-0.39474c-0.36599,0 -0.73167,-0.00431 -1.0957,-0.01442c-0.7157,0.16822 -1.43044,0.34 -2.14345,0.51834c0,0 -0.72761,0.1819 -0.90951,-0.54571c-0.02209,-0.08836 -0.03077,-0.16866 -0.02896,-0.24158c-2.17575,-0.35559 -4.12828,-1.11757 -5.51395,-2.66612c-0.54746,0.28791 -1.19175,0.44647 -1.73537,0.4492zM241.00404,118.22236c0.74996,0.00003 0.74996,0.75 0.74996,0.75v0.52632c0,1.28116 0.09856,2.45378 0.25737,3.72276c0,0 0.08214,0.65708 -0.52537,0.81358c-0.34265,1.80037 -1.2911,3.31398 -2.60732,4.58208c0.14897,0 0.29542,0 0.4148,0c3.39685,0.00738 4.07753,-2.33217 5.83894,-4.68853c0.64727,-0.8659 1.60961,-1.06355 2.26527,-1.87906c1.99118,-2.47665 2.7186,-5.5077 3.7406,-8.44212c0.7127,-0.86825 1.71882,-1.35596 2.40581,-2.16549c0.63423,-0.74737 -0.01004,-2.93565 -0.22442,-3.72574c-0.87326,-3.21835 -1.87213,-6.4514 -3.00865,-9.58829c-0.70766,-1.9532 -2.94222,-5.9877 -0.88997,-7.44898c1.34421,-1.95376 -2.41538,-4.38656 -3.64797,-5.07837c-5.56559,-3.1238 -12.25856,-3.50972 -18.4796,-3.50972c-1.18327,0 -3.55005,0.39957 -4.63391,-0.07081c-0.61777,-0.26811 -0.62175,-1.25575 -1.16967,-1.64729c-0.7263,-0.51901 -4.04677,0.00331 -4.97161,0.02367c-5.60931,0.12346 -10.90023,0.77707 -16.39417,1.90403c-2.86601,0.5859 -5.47083,1.27965 -7.32811,3.69034c-0.90781,1.17831 -0.28136,2.43288 -1.63236,3.46952c-0.7522,0.57718 -2.27899,0.68582 -3.11053,1.10239c-2.91338,1.45949 -4.61906,4.62404 -5.66738,7.55347c-0.38269,2.05668 -0.62885,3.85091 -0.13327,5.91691c0.29011,1.20942 1.45386,1.85836 1.73004,3.11729c0.25059,1.14225 -0.20368,2.45881 0.14424,3.69052c1.11602,3.95097 2.75154,6.7082 6.28619,8.85617c2.13609,2.12282 1.02293,3.25076 1.83327,5.63069c0.87514,2.57024 4.0084,3.56195 6.3996,4.13514c1.1376,0.27269 3.87551,0.79487 4.49732,-0.38017c0,0 0.1612,-0.2418 0.43342,-0.32403c-0.72306,-0.5462 -1.41313,-1.1406 -2.06432,-1.7867c-0.07233,-0.055 -0.14404,-0.11078 -0.21512,-0.16732c-0.09392,0.05689 -0.19719,0.11904 -0.31573,0.18736c0,0 -0.65118,0.3721 -1.02329,-0.27908c-0.27664,-0.48411 0.0123,-0.81398 0.17877,-0.95138c-2.86855,-2.89858 -4.5152,-7.12056 -5.16334,-11.00707l-0.0102,-0.60717c0,0 0,-0.75 0.75,-0.75c0.75,0 0.75,0.75 0.75,0.75l-0.0102,0.36057c0.3203,1.92297 0.90333,3.96712 1.78987,5.86082c1.58864,-0.75117 3.19707,1.47298 4.09076,2.24428c0.85017,0.73373 1.72144,1.38391 2.61299,1.97062c0.10336,0.04644 0.19592,0.10557 0.27559,0.17895c1.66745,1.06831 3.4049,1.9238 5.20707,2.69599c0.99135,-0.15325 1.90471,-0.18046 2.22919,0.14023c0.1287,0.1272 0.2406,0.46768 0.33756,0.90033c0.91591,0.35555 1.84689,0.70558 2.79232,1.06551c2.45417,0.70105 5.07757,1.08317 7.60505,1.42c0.48568,0.06473 2.44503,0.16922 2.69783,0.79827c0.11875,0.2955 -0.07727,0.58739 -0.28386,0.87914c4.9237,-0.85504 10.9016,-2.64648 13.18065,-7.20957c0.48785,-0.97677 1.17111,-1.66205 1.13647,-2.75673c0,0 0,-0.36595 0.25563,-0.58661c-0.08009,-0.86264 -0.12622,-1.71426 -0.12622,-2.61038v-0.37264c-1.73457,1.63396 -4.29998,1.33231 -7.18251,0.09232c-1.09785,-0.27835 -1.88747,0.7789 -2.92203,1.12246c-1.34881,0.44792 -2.96707,0.54362 -4.37982,0.35552c-2.36462,-0.31483 -5.22518,-1.40025 -7.10599,-2.8696c-0.89873,-0.70212 -1.70281,-2.43032 -2.68299,-2.93701c-0.52278,-0.27025 -0.61555,1.02169 -1.04809,1.42073c-1.1965,1.10383 -2.35065,2.08022 -3.98291,2.13416c-8.79615,-0.11977 -16.20949,-6.56019 -14.68583,-15.71098c0,0 0.1233,-0.7398 0.86309,-0.6165c0.7398,0.1233 0.6165,0.86309 0.6165,0.86309c-1.37264,8.22766 5.32974,13.87588 13.21644,13.96442c1.4716,0.08967 2.87785,-1.68383 3.86427,-2.64363c0.31104,-0.30265 0.51149,-0.92682 0.9444,-0.89622c1.67498,0.11839 2.65908,2.33638 3.81789,3.23935c1.10777,0.8632 2.45679,1.41766 3.78387,1.80673c1.7823,0.52253 3.41554,0.99282 5.30351,0.76008c1.91364,-0.2359 2.81225,-1.78013 4.84261,-1.42511c3.22662,1.37782 5.82943,1.86744 6.94923,-2.02979l0.15303,-0.92565c0,0 0.1233,-0.7398 0.86309,-0.6165c0.7398,0.1233 0.6165,0.86309 0.6165,0.86309l-0.16955,1.00984c-0.24581,0.85685 -0.55843,1.56328 -0.9295,2.13551c0.00159,-0.00001 0.00316,-0.00001 0.00476,-0.00001zM219.8734,152.94572c0,0 0.05983,0.17948 0.02924,0.3882c0.27068,0.86256 0.49661,1.75132 0.66411,2.67635c0.00487,3.98634 1.08694,7.74164 1.7049,11.66424c0.15145,0.96135 -0.14698,3.4604 0.88784,4.03752c0.38621,0.21539 1.20472,0.26043 2.1433,0.23265c-0.60062,-1.26582 -0.38089,-2.90856 0.28298,-4.46993c1.45989,-3.43354 5.13559,-5.1843 8.60826,-6.01924c-0.97749,-1.30133 -1.9404,-2.61526 -2.95423,-3.88256c-0.77182,-0.96478 -1.56458,-1.9355 -2.36782,-2.91317l-0.342,-0.10749c0,0 -0.68037,-0.22679 -0.48871,-0.90214c-2.67564,-3.24893 -5.42648,-6.57772 -7.87409,-10.02291c-2.26202,-1.14411 -4.09569,-3.01238 -4.57479,-5.33745c-0.02285,-0.01903 -0.04569,-0.03805 -0.06853,-0.05706c0,0 -0.36487,-0.30406 -0.27193,-0.71861c-0.47529,0.10988 -0.79627,0.36553 -0.99785,0.71072c1.28658,1.2266 2.21574,3.18428 3.23593,4.6076c0.43693,0.08146 0.55738,0.56327 0.55738,0.56327c0.02066,0.08265 0.04121,0.16539 0.06165,0.24821l0.20548,0.27316c0,0 0.32088,0.42784 0.05943,0.83192c0.33905,1.45782 0.64176,2.93806 0.89786,4.42951c0.04655,0.0183 0.09469,0.04196 0.14437,0.07177c0.64312,0.38587 0.25725,1.02899 0.25725,1.02899l-0.17697,0.29062c0.10706,0.70874 0.20296,1.41921 0.28661,2.13021zM258.55017,214.84356c0.27935,-0.23279 0.53613,-0.21728 0.72655,-0.13951c0.26609,-0.12116 0.44533,-0.26688 0.48944,-0.44255c0.1216,-0.4843 -0.48251,-1.63351 -0.63929,-2.1074c-3.58833,-7.17666 -6.3735,-14.60265 -10.86364,-21.33608c-3.84794,-6.53752 -7.81235,-13.66087 -9.38636,-21.16482c-0.53874,0.3216 -1.10321,0.57653 -1.4917,0.78253c-2.38765,1.26603 -4.99319,1.97604 -7.59295,2.70042c-0.29483,0.00239 -0.70362,0.03138 -1.18011,0.07055c-0.00104,0.15609 -0.06048,0.3313 -0.23569,0.50651c-0.53033,0.53033 -1.06066,0 -1.06066,0l0.16158,0.0496c-0.31899,-0.1111 -0.60374,-0.2437 -0.85647,-0.39512c-0.76819,0.05258 -1.55521,0.08697 -2.24972,0.06366l0.14599,0.80416c-0.01991,5.66814 1.76331,12.0937 3.14142,17.6068c0.40596,2.2907 2.2744,7.53065 0.79596,9.67384c-0.60876,0.88247 -3.09782,1.70369 -4.01174,2.29312c-3.51472,2.26679 -6.13423,4.70735 -7.45555,8.66225c-0.26463,1.05346 -0.36547,1.99411 -0.36483,3.07978c0.00409,6.87772 7.43952,6.23032 13.00143,6.10883c0.03437,-0.03903 0.07482,-0.07766 0.12215,-0.11553c0.52571,-0.42056 0.95703,0.00828 1.03982,0.10048c0.54479,-0.00052 1.0622,0.01085 1.5418,0.04312c0.5422,-0.26474 -0.36088,-2.10828 -0.3631,-2.97901c-0.00593,-2.32675 0.36347,-4.66874 1.27114,-6.82108c0.7254,-1.72014 1.83131,-3.30051 3.15378,-4.62497c1.40342,-1.40552 3.28729,-2.00933 2.95427,-4.21679c-1.3845,-6.91573 -3.92982,-14.15392 -6.41888,-20.80765c-0.12088,-0.1418 -0.1577,-0.31521 -0.16618,-0.44362c-0.07344,-0.19577 -0.1468,-0.39101 -0.22006,-0.58571c0,0 -0.26334,-0.70225 0.4389,-0.96559c0.17501,-0.06563 0.32277,-0.07129 0.44598,-0.04279c0.37293,-0.44715 0.86403,-0.79643 1.44249,-1.2785l0.55645,-0.41857c0,0 0.6,-0.45 1.05,0.15c0.45,0.6 -0.15,1.05 -0.15,1.05l-0.49618,0.3709c-0.27491,0.22909 -0.57886,0.41945 -0.8466,0.62677c0.26109,0.18173 0.31678,0.51587 0.31678,0.51587c0.23363,1.59746 1.60446,3.10424 2.40889,4.4837c1.691,2.89978 3.2227,5.89226 4.71865,8.89122c0.04363,-0.01587 0.09134,-0.02926 0.14348,-0.03968c0.73544,-0.14709 0.88252,0.58835 0.88252,0.58835l0.10766,0.56781c1.51051,4.53153 3.1262,8.89927 4.99515,13.2754c0.59713,2.10324 0.54885,4.52579 2.06051,6.29986c0.60076,0.70504 3.4455,0.10476 4.27621,0.04605c0.45628,-0.03225 2.25468,-0.08468 3.53721,-0.3643c0.03435,-0.04118 0.07521,-0.08209 0.12349,-0.12232zM189.14638,156.92113c0.4208,-0.08416 0.64898,0.12061 0.7672,0.31122c1.48703,0.29537 3.16555,0.23298 4.69589,0.0731c0.75019,-0.07838 2.32436,-0.18245 2.9541,-0.68972c1.15687,-0.93189 -1.50305,-1.71112 -1.7819,-1.85054c-2.07813,-1.20501 -2.41866,-3.17853 -4.09395,-4.70793c-2.48096,-2.26491 -5.68065,-3.29054 -8.55191,-4.90518c-1.09278,-0.61452 -2.59158,-1.94745 -3.84235,-1.8771c0,0 -0.57136,0 -0.71669,-0.4987c-5.3455,0.3482 -14.31384,3.96244 -14.32467,9.69553c0.14083,1.12877 0.75518,2.00945 1.52094,2.78077c0.10199,-0.16736 0.28767,-0.31971 0.62569,-0.31971c0.75,0 0.75,0.75 0.75,0.75v0.13158c-0.00569,0.23746 0.01753,0.47582 0.06579,0.71276c0.06383,0.05296 0.12743,0.10575 0.19067,0.15844l0.4563,0.14297c0,0 0.69636,0.27854 0.41781,0.9749c-0.08176,0.2044 -0.19952,0.32481 -0.3251,0.39291c0.74267,1.09328 1.88342,2.00705 2.92159,2.44329c2.53827,0.88369 4.50497,-1.00209 6.87867,-1.35913c1.6144,-0.24283 3.99357,0.50249 5.20776,-0.99841c0.95978,-1.18642 1.07302,-3.01787 1.31196,-4.69719c-0.01087,-0.06051 -0.02114,-0.12166 -0.0308,-0.18344l-0.30145,-0.03015l0.13075,-1.30754c0.0336,-0.38312 0.35526,-0.68362 0.7471,-0.68362c0.38198,0 0.69727,0.28556 0.74402,0.65485l0.13002,0.91014l-0.00258,0.00037l0.00348,0.00615c0.28114,2.27325 1.57269,3.45907 3.26041,4.0281c0.05596,-0.02437 0.11939,-0.04435 0.19125,-0.05872zM212.13905,222.53643c0.13247,0.72581 0.66777,1.20168 0.66655,2.00155c-0.00102,0.66897 -0.58449,1.23002 -0.66248,1.89443c-0.24715,2.10558 0.34759,3.83946 1.11172,5.7593c3.82749,6.34898 14.26514,6.27028 20.38056,3.97313c0.77303,-0.28748 1.1951,-0.37789 1.85796,-0.88069c4.76762,-3.61637 -0.40584,-5.66333 -3.07127,-8.43958c-0.96857,-1.00884 -1.55462,-2.4238 -2.33901,-3.61685c-5.52208,0.25444 -12.51435,0.29057 -14.44618,-4.65518c-1.56611,0.57666 -3.83685,2.10651 -3.49784,3.96389zM264.16189,134.66973c0.75,0 0.75,0.75 0.75,0.75l-0.0102,0.25488c-0.07268,0.43228 -0.19464,0.82166 -0.35866,1.17147l0.52848,-0.07379c2.39234,-0.24453 4.27843,-0.89309 6.3209,-2.1179c2.91983,-1.91194 1.47088,-3.02776 0.03046,-5.28097c-2.40068,-3.75533 -5.85265,-6.10046 -9.21229,-8.86017c-3.54784,0.08168 -8.42867,2.8094 -10.9814,5.08096c-2.86499,2.54943 -4.13382,4.64903 -8.25151,4.65446c-0.69426,-0.31081 -0.42755,1.0263 0.12863,1.17817c0.70539,0.19261 1.46296,-0.00713 2.19319,-0.04514c1.41127,-0.07346 2.48673,-0.36625 3.46801,-0.84c0.07849,-0.06359 0.18705,-0.13128 0.31811,-0.16146c0.95693,-0.50922 1.847,-1.19278 2.90684,-2.01307l0.33502,-0.55837c0.12955,-0.22468 0.37221,-0.37592 0.65019,-0.37592c0.41421,0 0.75,0.33579 0.75,0.75c0,0.07754 -0.01177,0.15234 -0.03362,0.2227l-0.2584,0.9044l-0.24483,-0.06995c-0.21742,1.07575 -0.76562,1.81565 -1.57118,3.09999c-0.33898,0.54045 -1.43122,2.26045 -1.09467,2.95597c1.21737,2.51585 5.10136,2.91709 7.78685,2.93507c0.21002,-0.14028 0.45531,-0.14028 0.45531,-0.14028c2.07883,0 4.2974,-0.49635 4.65494,-2.66277l-0.0102,-0.00828c0,0 0,-0.75 0.75,-0.75zM233.63558,153.35394c8.43972,0 15.31341,-2.44666 22.96938,-5.84932c5.91712,-2.95979 14.86518,-6.51658 17.93874,-12.68346c1.55786,-3.06068 0.92018,-6.99069 -1.17982,-9.66514c-0.93375,-1.18917 -4.06769,-1.74713 -5.44578,-2.25556c-0.05217,-0.01925 -0.1041,-0.03897 -0.15584,-0.05912c4.20508,3.50236 9.58676,9.59389 4.43227,13.08056c-2.2359,1.34225 -4.32812,2.06602 -6.94203,2.33943l-0.98681,0.13802c0,0 -0.4469,0.06245 -0.69585,-0.25618c-0.86656,0.76674 -2.05183,1.18169 -3.32174,1.35259c-0.22219,0.2266 -0.55989,0.2266 -0.55989,0.2266h-0.39474c-1.05577,-0.01729 -2.35506,-0.04502 -3.67609,-0.20404c0.23341,0.37805 -0.04198,0.79112 -0.04198,0.79112l-0.30154,0.44723c-0.38957,0.47503 -0.85559,0.90069 -1.37816,1.2237c-3.20975,2.00591 -6.3596,4.3625 -9.92348,5.73678c-0.11569,0.55785 -0.73138,0.55785 -0.73138,0.55785l-0.4603,-0.14179c-0.70462,0.21982 -1.4265,0.39782 -2.16904,0.52449c-2.93376,0.50046 -6.94219,0.25089 -9.91726,-0.12099c-3.51288,0.00448 -5.56134,-1.43403 -7.72627,-3.91413c-0.09157,-0.01997 -0.18305,-0.04109 -0.27438,-0.06336c2.23138,2.98843 4.65123,5.89092 6.99256,8.73224c1.30138,0.16228 2.63961,0.06248 3.94943,0.06248zM252.19719,217.7366c-0.31016,0.31757 -0.62031,0.63513 -0.93047,0.9527c-1.70671,0.60694 -3.97392,1.13135 -5.24445,2.50928c-1.46844,1.59256 -0.91144,4.38194 1.05822,5.37035c1.50669,0.75608 5.8402,-1.23897 7.60772,-1.2413c2.58795,0.0021 5.58032,-0.22262 7.92821,-1.35526c0.35265,-0.17012 1.42614,-0.38492 1.45369,-1.07466c0.02153,-0.53889 -1.57361,-1.7494 -1.78285,-1.97778c-1.30848,-1.4281 -2.30208,-3.09323 -3.4951,-4.60353c-1.72865,0.40997 -4.34646,0.94023 -6.47953,0.85047zM233.97999,163.38418c0,0 -0.21634,-0.05408 -0.38359,-0.22123c-2.54192,0.74175 -4.88825,2.0303 -6.29139,4.35318c-0.81686,1.3523 -1.36616,3.29882 -0.26076,4.32182c1.06226,-0.08749 2.04528,-0.19251 2.53993,-0.18728c2.42421,-0.71483 4.855,-1.35449 7.09219,-2.53688c0.27778,-0.14681 2.1261,-0.88498 2.28072,-1.49287c0.19655,-0.77274 -1.65235,-2.27243 -2.06813,-2.75765c-0.11776,-0.13743 -0.23462,-0.27567 -0.35065,-0.41465c-0.82614,-0.49299 -1.71133,-0.85718 -2.55831,-1.06443zM209.48567,145.09717c-1.39614,1.72855 -5.36881,2.25983 -3.45843,5.11684c0.47001,0.70291 1.06771,1.31744 1.67973,1.9009c0.40303,0.38423 1.37049,0.97788 1.85203,1.2876c1.54112,0.22509 2.88657,0.08129 4.11201,-0.3472c-0.11602,-0.83854 -0.29846,-1.66636 -0.52184,-2.48785c-1.02421,-2.0726 -2.32917,-4.12436 -3.10341,-6.20184c-0.17472,0.24266 -0.36161,0.48581 -0.56009,0.73154zM230.78744,147.0396c2.85948,0.35743 6.73908,0.62194 9.55642,0.14216c0.33307,-0.05672 0.66175,-0.12444 0.98639,-0.20221c-0.67841,-0.55668 -1.3732,-1.08925 -2.07911,-1.62796c-2.68029,-1.60852 -6.4329,-1.54866 -10.01787,-1.61712c-0.70374,0.43622 -1.43639,0.78944 -2.23959,0.96068c-0.58765,0.12528 -1.20656,0.18309 -1.83997,0.17827c1.54861,1.35346 3.41029,2.16357 5.63375,2.16619zM210.29644,129.05998c-0.45488,0.05749 -1.27983,0.38002 -2.16826,0.72573c1.22166,0.58871 2.49968,1.07696 3.81082,1.47861c-0.0258,-0.47456 -0.03596,-1.10321 -0.07122,-1.61898c-0.49119,-0.19964 -0.9764,-0.40199 -1.45659,-0.60918c-0.03935,0.01095 -0.0777,0.01915 -0.11475,0.02383zM205.83294,128.18289c0.0001,0.07985 -0.01244,0.18829 -0.03287,0.3086c0.08864,0.05662 0.17771,0.11258 0.26721,0.16787c0.4941,-0.27519 1.13298,-0.42264 1.22453,-0.45199c0.1562,-0.05007 0.44154,-0.13588 0.80308,-0.23443c-0.76322,-0.37445 -1.5172,-0.77133 -2.26613,-1.20009c0.02281,0.51482 0.0037,1.02153 0.00418,1.41004zM218.86373,131.94047c-0.83243,-0.20579 -1.70451,0.03754 -2.55271,0.3459c1.1596,0.19623 2.32491,0.34013 3.48139,0.44036c-0.21991,-0.36994 -0.48542,-0.67668 -0.92868,-0.78626zM204.33923,125.99554c-0.1919,-0.48011 -0.91901,-0.06169 -1.50808,0.17349c0.48328,0.46272 0.98905,0.89592 1.51454,1.30125c0.06017,-0.64809 0.099,-1.2109 -0.00646,-1.47474zM202.60168,124.68643c-0.43762,-0.31835 -1.44878,-0.97823 -2.29229,-1.66385c0.17289,0.22521 0.34973,0.44762 0.52004,0.67469c0,0 0.27762,0.37017 0.106,0.74706c0.20358,0.21732 0.41434,0.42682 0.6324,0.62767c0.3324,-0.13168 0.69459,-0.26011 1.06062,-0.36612c-0.00892,-0.00648 -0.01784,-0.01296 -0.02676,-0.01945zM213.44241,131.42315c-0.01325,0.0428 0.84286,-0.17967 1.90918,-0.42483c-0.01201,-0.00341 -0.02402,-0.00683 -0.03602,-0.01026c-0.6925,-0.26269 -1.3707,-0.52153 -2.03685,-0.78153c0.068,0.50843 0.12184,0.96132 0.16369,1.21662zM222.39023,132.8367c0.04637,-0.1391 0.09273,-0.2782 0.1391,-0.4173c0,0 0.00954,-0.02863 0.03054,-0.07249c-0.25655,-0.01442 -0.45287,-0.02947 -0.51984,-0.04075c-0.42169,-0.07108 -0.8448,-0.13985 -1.26844,-0.20882c0.15369,0.2787 0.30647,0.53938 0.50431,0.73504c0.35344,0.01984 0.70544,0.03588 1.05559,0.04838c0.0191,-0.01604 0.03876,-0.03068 0.05874,-0.04406zM219.63325,139.12524c-0.2947,-0.18453 -0.48619,-0.13086 -0.60631,0.02193c0.48021,0.36339 0.97116,0.71131 1.47722,1.03179c-0.25599,-0.46439 -0.53858,-0.84563 -0.87091,-1.05372zM221.1553,142.43803c0.14615,0.06518 0.29403,0.1271 0.44325,0.18569c-0.02855,-0.06278 -0.05696,-0.12646 -0.08526,-0.19085c-0.18595,-0.08659 -0.36976,-0.17728 -0.55156,-0.27174c0.06429,0.09239 0.12882,0.18468 0.19357,0.2769zM224.00695,132.3942l0.00119,-0.00059c-0.0171,-0.00003 -0.03441,-0.0001 -0.05192,-0.0002c0.00336,0.01075 0.00643,0.02149 0.00923,0.03221c0.02536,-0.02066 0.04151,-0.03142 0.04151,-0.03142zM223.71819,143.21644c-0.04765,-0.01168 -0.09515,-0.02366 -0.14251,-0.03593c0.00314,0.00406 0.00628,0.00812 0.00942,0.01218c0.04439,0.00822 0.08875,0.01614 0.13309,0.02375z" fill="#000000" stroke-width="0.5"/><path d="M233.99487,163.33646c0.84698,0.20725 1.75644,0.58807 2.58258,1.08106c0.11603,0.13898 0.23606,0.2817 0.35382,0.41913c0.41578,0.48522 2.27235,2.0125 2.0758,2.78524c-0.15462,0.60789 -2.00659,1.36389 -2.28437,1.5107c-2.23719,1.18239 -4.74432,1.84326 -7.16853,2.55809c-0.49465,-0.00523 -1.48734,0.09023 -2.5496,0.17772c-1.1054,-1.023 -0.56643,-2.99981 0.25043,-4.35211c1.40314,-2.32288 3.80962,-3.66053 6.35154,-4.40228c0.16725,0.16715 0.38832,0.22245 0.38832,0.22245z" data-paper-data="{&quot;noHover&quot;:false,&quot;origItem&quot;:[&quot;Path&quot;,{&quot;applyMatrix&quot;:true,&quot;segments&quot;:[[233.97999,163.38418],[[233.5964,163.16295],[0.16725,0.16715],[-2.54192,0.74175]],[[227.30501,167.51613],[1.40314,-2.32288],[-0.81686,1.3523]],[[227.04425,171.83795],[-1.1054,-1.023],[1.06226,-0.08749]],[[229.58418,171.65067],[-0.49465,-0.00523],[2.42421,-0.71483]],[[236.67637,169.11379],[-2.23719,1.18239],[0.27778,-0.14681]],[[238.95709,167.62092],[-0.15462,0.60789],[0.19655,-0.77274]],[[236.88896,164.86327],[0.41578,0.48522],[-0.11776,-0.13743]],[[236.53831,164.44862],[0.11603,0.13898],[-0.82614,-0.49299]],[[233.98,163.38419],[0.84698,0.20725],[0,0]]],&quot;closed&quot;:true,&quot;fillColor&quot;:[0,0,0,1]}]}" fill="#c168ee" stroke-width="0.5"/><path d="M222.37459,132.90612c-0.35015,-0.0125 -0.78277,-0.02085 -1.13621,-0.04069c-0.19784,-0.19566 -0.3589,-0.50945 -0.51259,-0.78815c0.42364,0.06897 0.93747,0.13585 1.35916,0.20693c0.06697,0.01128 0.26775,0.04043 0.5243,0.05485c-0.021,0.04386 -0.03008,0.07632 -0.03008,0.07632c-0.04637,0.1391 -0.09749,0.30385 -0.14386,0.44295c-0.01998,0.01338 -0.04162,0.03174 -0.06072,0.04778z" data-paper-data="{&quot;noHover&quot;:false,&quot;origItem&quot;:[&quot;Path&quot;,{&quot;applyMatrix&quot;:true,&quot;segments&quot;:[[[222.39023,132.8367],[-0.01998,0.01338],[0.04637,-0.1391]],[[222.52933,132.4194],[-0.04637,0.1391],[0,0]],[[222.55987,132.34691],[-0.021,0.04386],[-0.25655,-0.01442]],[[222.04003,132.30616],[0.06697,0.01128],[-0.42169,-0.07108]],[[220.77159,132.09734],[0.42364,0.06897],[0.15369,0.2787]],[[221.2759,132.83238],[-0.19784,-0.19566],[0.35344,0.01984]],[[222.33149,132.88076],[-0.35015,-0.0125],[0.0191,-0.01604]]],&quot;closed&quot;:true,&quot;fillColor&quot;:[0,0,0],&quot;strokeWidth&quot;:0.5}]}" fill="#f7f7f7" stroke-width="0.25"/><path d="M219.84095,132.73875c-1.15648,-0.10023 -2.42032,-0.25642 -3.57992,-0.45265c0.8482,-0.30836 1.81609,-0.57146 2.64852,-0.36567c0.44326,0.10958 0.71149,0.44837 0.9314,0.81831z" data-paper-data="{&quot;noHover&quot;:false,&quot;origItem&quot;:[&quot;Path&quot;,{&quot;applyMatrix&quot;:true,&quot;segments&quot;:[[[218.86373,131.94047],[0.44326,0.10958],[-0.83243,-0.20579]],[[216.31102,132.28637],[0.8482,-0.30836],[1.1596,0.19623]],[[219.79241,132.72673],[-1.15648,-0.10023],[-0.21991,-0.36994]]],&quot;closed&quot;:true,&quot;fillColor&quot;:[0,0,0],&quot;strokeWidth&quot;:0.5}]}" fill="#f7f7f7" stroke-width="0.25"/><path d="M213.23565,130.18114c0.66615,0.26 1.43671,0.55263 2.12921,0.81532c0.012,0.00343 0.02398,0.00704 0.03599,0.01045c-1.06632,0.24516 -2.01276,0.48754 -1.99951,0.44474c-0.04185,-0.2553 -0.09769,-0.76209 -0.16569,-1.27052z" data-paper-data="{&quot;noHover&quot;:false,&quot;origItem&quot;:[&quot;Path&quot;,{&quot;applyMatrix&quot;:true,&quot;segments&quot;:[[[213.44241,131.42315],[-0.04185,-0.2553],[-0.01325,0.0428]],[[215.35159,130.99832],[-1.06632,0.24516],[-0.01201,-0.00341]],[[215.31557,130.98806],[0.012,0.00343],[-0.6925,-0.26269]],[[213.27872,130.20653],[0.66615,0.26],[0.068,0.50843]]],&quot;closed&quot;:true,&quot;fillColor&quot;:[0,0,0],&quot;strokeWidth&quot;:0.5}]}" fill="#f7f7f7" stroke-width="0.25"/><path d="M210.30816,129.01138c0.03705,-0.00468 0.07973,-0.01163 0.11908,-0.02258c0.48019,0.20719 0.99756,0.44362 1.48875,0.64326c0.03526,0.51577 0.04038,1.18293 0.06618,1.65749c-1.31114,-0.40165 -2.68143,-0.92453 -3.90309,-1.51324c0.88843,-0.34571 1.77421,-0.70745 2.22909,-0.76494z" data-paper-data="{&quot;noHover&quot;:false,&quot;origItem&quot;:[&quot;Path&quot;,{&quot;applyMatrix&quot;:true,&quot;segments&quot;:[[[210.29644,129.05998],[0,0],[-0.45488,0.05749]],[[208.12818,129.78571],[0.88843,-0.34571],[1.22166,0.58871]],[[211.939,131.26432],[-1.31114,-0.40165],[-0.0258,-0.47456]],[[211.86778,129.64534],[0.03526,0.51577],[-0.49119,-0.19964]],[[210.41119,129.03616],[0.48019,0.20719],[-0.03935,0.01095]],[[210.29644,129.05999],[0.03705,-0.00468],[0,0]]],&quot;closed&quot;:true,&quot;fillColor&quot;:[0,0,0],&quot;strokeWidth&quot;:0.5}]}" fill="#f7f7f7" stroke-width="0.25"/><path d="M205.79054,126.74062c0.74893,0.42876 1.58993,0.86879 2.35315,1.24324c-0.36154,0.09855 -0.66697,0.21438 -0.82317,0.26445c-0.09155,0.02935 -0.79324,0.17241 -1.28734,0.4476c-0.0895,-0.05529 -0.18589,-0.11981 -0.27453,-0.17643c0.02043,-0.12031 0.02828,-0.23743 0.02818,-0.31728c-0.00048,-0.38851 0.02652,-0.94677 0.00371,-1.46159z" data-paper-data="{&quot;noHover&quot;:false,&quot;origItem&quot;:[&quot;Path&quot;,{&quot;applyMatrix&quot;:true,&quot;segments&quot;:[[[205.83294,128.18289],[-0.00048,-0.38851],[0.0001,0.07985]],[[205.80007,128.49149],[0.02043,-0.12031],[0.08864,0.05662]],[[206.06728,128.65936],[-0.0895,-0.05529],[0.4941,-0.27519]],[[207.29181,128.20737],[-0.09155,0.02935],[0.1562,-0.05007]],[[208.09489,127.97294],[-0.36154,0.09855],[-0.76322,-0.37445]],[[205.82876,126.77285],[0.74893,0.42876],[0.02281,0.51482]]],&quot;closed&quot;:true,&quot;fillColor&quot;:[0,0,0],&quot;strokeWidth&quot;:0.5}]}" fill="#f7f7f7" stroke-width="0.25"/><path d="M204.37826,127.50822c-0.52549,-0.40533 -1.10714,-0.90144 -1.59042,-1.36416c0.58907,-0.23518 1.39723,-0.66144 1.58913,-0.18133c0.10546,0.26384 0.06146,0.8974 0.00129,1.54549z" data-paper-data="{&quot;noHover&quot;:false,&quot;origItem&quot;:[&quot;Path&quot;,{&quot;applyMatrix&quot;:true,&quot;segments&quot;:[[[204.33923,125.99554],[0.10546,0.26384],[-0.1919,-0.48011]],[[202.83115,126.16903],[0.58907,-0.23518],[0.48328,0.46272]],[[204.34569,127.47028],[-0.52549,-0.40533],[0.06017,-0.64809]]],&quot;closed&quot;:true,&quot;fillColor&quot;:[0,0,0],&quot;strokeWidth&quot;:0.5}]}" fill="#f7f7f7" stroke-width="0.25"/><path d="M202.64524,124.711c0.00892,0.00649 0.01777,0.01309 0.02669,0.01957c-0.36603,0.10601 -0.76689,0.25951 -1.09929,0.39119c-0.21806,-0.20085 -0.47373,-0.43027 -0.67731,-0.64759c0.17162,-0.37689 -0.10975,-0.80092 -0.10975,-0.80092c-0.17031,-0.22707 -0.34076,-0.45858 -0.51365,-0.68379c0.84351,0.68562 1.93568,1.40318 2.3733,1.72153z" data-paper-data="{&quot;noHover&quot;:false,&quot;origItem&quot;:[&quot;Path&quot;,{&quot;applyMatrix&quot;:true,&quot;segments&quot;:[[[202.60168,124.68643],[0,0],[-0.43762,-0.31835]],[[200.30939,123.02258],[0.84351,0.68562],[0.17289,0.22521]],[[200.82943,123.69727],[-0.17031,-0.22707],[0,0]],[[200.93543,124.44433],[0.17162,-0.37689],[0.20358,0.21732]],[[201.56783,125.072],[-0.21806,-0.20085],[0.3324,-0.13168]],[[202.62845,124.70588],[-0.36603,0.10601],[-0.00892,-0.00648]],[[202.60169,124.68643],[0.00892,0.00649],[0,0]]],&quot;closed&quot;:true,&quot;fillColor&quot;:[0,0,0],&quot;strokeWidth&quot;:0.5}]}" fill="#f7f7f7" stroke-width="0.25"/></g></g></svg>