<svg version="1.1" xmlns="http://www.w3.org/2000/svg" xmlns:xlink="http://www.w3.org/1999/xlink" width="187.03824" height="210.53094" viewBox="0,0,187.03824,210.53094"><defs><radialGradient cx="218.97058" cy="196.22416" r="32.56883" gradientUnits="userSpaceOnUse" id="color-1"><stop offset="0" stop-color="#0006ff"></stop><stop offset="1" stop-color="#00e4ff"></stop></radialGradient><radialGradient cx="199.99391" cy="129.51828" r="62.64859" gradientUnits="userSpaceOnUse" id="color-2"><stop offset="0" stop-color="#0006ff"></stop><stop offset="1" stop-color="#00e4ff"></stop></radialGradient><radialGradient cx="152.43703" cy="63.05077" r="9.88717" gradientUnits="userSpaceOnUse" id="color-3"><stop offset="0" stop-color="#0006ff"></stop><stop offset="1" stop-color="#00e4ff"></stop></radialGradient><radialGradient cx="302.35293" cy="200.24951" r="12.01308" gradientUnits="userSpaceOnUse" id="color-4"><stop offset="0" stop-color="#0006ff"></stop><stop offset="1" stop-color="#00e4ff"></stop></radialGradient></defs><g transform="translate(-141.6462,-51.64467)"><g data-paper-data="{&quot;isPaintingLayer&quot;:true}" fill-rule="nonzero" stroke="none" stroke-width="0.5" stroke-linecap="butt" stroke-linejoin="miter" stroke-miterlimit="10" stroke-dasharray="" stroke-dashoffset="0" style="mix-blend-mode: normal"><path d="M276.87133,185.87325l-0.04451,3.41299c-2.62249,15.40671 -1.1056,32.14395 -1.1056,47.76653c0,5.36174 1.75805,15.14924 -1.45218,19.77453c-0.09623,0.13864 -0.19598,0.27422 -0.29892,0.40705l0.05164,0.03442l-2.27205,3.40809c-0.5824,0.90181 -1.59636,1.49875 -2.74973,1.49875c-1.4714,0 -2.71587,-0.97154 -3.12693,-2.30813l-1.12625,-3.37874l0.16551,-0.05517l-0.29113,-0.45524c-0.02592,-2.72045 -0.22623,-5.44412 -0.58835,-8.1405c-0.18838,-1.40267 -0.55788,-3.5924 -0.74993,-5.53943c-0.22374,0.3011 -0.4421,0.60519 -0.61643,0.92877c-1.56572,2.90648 -3.74604,8.2618 -6.18485,10.3881c-2.00066,1.7443 -4.43465,4.34943 -7.02162,3.75549c-2.12645,-0.48821 -1.94766,-3.91792 -2.66314,-5.97903c-1.60947,-4.63641 -2.19532,-9.61729 -2.88785,-14.45834c-0.04489,-0.31379 -0.10438,-0.62627 -0.17261,-0.93789c-1.25508,4.38986 -2.21734,8.86537 -3.89784,13.18686c-0.29268,0.75265 -3.0621,7.32062 -3.7365,8.03491c-0.07933,0.08402 -0.15994,0.16663 -0.24172,0.24792l0.04066,0.03253l-2.28133,2.85166c-0.59887,0.76187 -1.52882,1.2512 -2.57304,1.2512c-1.55664,0 -2.8593,-1.08739 -3.18986,-2.544l-1.13351,-4.53403c-1.63268,-6.66561 -2.43475,-14.04441 -2.39787,-20.9201c0.00069,-0.12826 0.00084,-0.25798 0.00081,-0.3889c-1.54194,2.51061 -3.17614,4.74332 -4.95793,7.41373c-1.1226,1.68246 -1.49607,3.90212 -2.96184,5.29582c-0.11003,0.10462 -0.22254,0.20596 -0.3373,0.3043l0.03886,0.03886l-2.87527,2.87525c-0.59192,0.59192 -1.40965,0.95803 -2.31289,0.95803c-1.80648,0 -3.27093,-1.46445 -3.27093,-3.27093v-3.45031h0.09149l-0.08035,-0.26979c0.64687,-3.69058 -0.00716,-6.9162 -0.01115,-10.65618c-0.00722,-6.76281 0.00421,-14.10488 -1.10786,-20.75293c-0.6223,-3.72012 -2.01141,-7.32148 -2.3313,-11.18012c-0.51203,-6.17654 -0.56219,-12.89088 -0.06805,-19.29194c-11.76516,-7.20692 -20.99801,-19.51003 -26.15929,-31.51218c-6.56639,-17.89097 1.57061,-38.7705 15.97961,-50.38251c9.61235,-7.74647 22.86765,-12.08101 35.10029,-15.66459c4.19819,-4.80583 9.53526,-6.9237 14.49327,-10.89009c21.65365,-13.05305 53.59955,-6.23817 66.80452,15.9997c3.69842,6.22834 3.88458,14.02939 3.865,21.01348c-3.63116,14.52465 -1.88529,30.75736 -7.07754,45.00939c-4.95825,13.60973 -17.24238,24.39372 -30.38072,30.29379c0.10449,0.44962 0.10449,0.77891 0.10449,0.77891zM208.5072,172.28429c3.23805,0.46259 2.77548,3.70064 2.77548,3.70064c-0.07827,0.53961 -0.1498,1.07856 -0.21491,1.61689c1.93457,0.93396 3.93133,1.69977 5.98147,2.26746c6.02025,1.66701 12.70286,2.52466 18.86656,3.55043c8.4983,1.41428 18.53038,2.89565 27.02557,0.45423c2.69283,-0.77389 5.13955,-2.23304 7.71505,-3.33622c12.76121,-4.7745 25.58466,-14.85394 30.35217,-27.99741c4.98449,-13.74166 3.21788,-29.52519 6.72367,-43.54841c-0.01965,-5.48822 -0.0606,-12.04525 -3.03561,-16.93986c-11.41368,-18.77831 -38.80845,-25.00229 -57.40643,-13.90293c-2.30938,1.84751 -4.77887,3.22904 -7.1379,4.73141c0.14073,0.24769 0.26285,0.53505 0.35997,0.868c0.91586,3.14009 -2.22423,4.05595 -2.22423,4.05595c-1.61703,0.47163 -3.22022,0.95252 -4.81134,1.44569c-0.48157,0.5516 -1.23894,0.98536 -2.43008,0.98536c-0.20205,0 -0.39162,-0.01248 -0.56948,-0.0359c-8.59505,2.77956 -16.86471,5.98049 -25.09581,10.09184c-4.35171,2.17364 -8.55148,4.31684 -11.78998,8.12722c-2.73269,3.21526 -4.5661,7.09757 -6.88774,10.62112c-2.98119,4.52453 -4.16566,9.70151 -4.14062,15.07895c0.02127,4.56693 -0.18545,8.84558 1.48902,13.15605c4.18431,9.80128 11.632,20.19125 21.0604,26.80938c0.41449,-0.91153 1.35271,-2.09155 3.39475,-1.79984zM214.1908,232.45236c-0.0016,1.39964 0.07586,2.73116 0.14768,4.04257c0.83315,-0.97423 1.71732,-1.9375 2.54043,-3.06138c1.22597,-1.67396 3.09198,-5.69176 3.8082,-7.125l0.06367,-0.06814l-0.01974,-0.01128l2.2687,-3.97023c0.55529,-1.01493 1.63299,-1.70323 2.87146,-1.70323c1.37554,0 2.55278,0.84909 3.03616,2.05174l1.69545,3.95606l-0.05517,0.02364c0.092,0.1983 0.17663,0.40051 0.25284,0.60716c0.41916,1.13664 -0.15338,8.77928 0.05358,10.71484c0.4076,3.81184 0.76974,7.80392 1.47732,11.63732c0.51407,-0.92461 1.06669,-1.85382 1.42436,-2.77133c2.62733,-6.73974 3.61393,-13.77007 6.45466,-20.41226l0.17288,-0.15456l-0.06537,-0.03923l1.6943,-2.82385c0.56499,-0.97988 1.62328,-1.63946 2.83564,-1.63946c1.58509,0 2.90686,1.1275 3.20702,2.62425l1.13613,5.11257l-0.00812,0.00181c0.00714,0.02008 0.01424,0.04018 0.0213,0.06029c2.01983,5.74862 0.54583,6.48754 1.71754,12.03941c0.36818,1.74452 1.2437,3.34784 1.70104,5.07112c0.05653,0.213 0.1199,0.42765 0.18466,0.6435c0.63153,-0.87459 1.32303,-1.717 1.86249,-2.6469c1.11685,-1.92515 5.48916,-12.40991 8.05562,-12.51289c2.62797,-0.10545 4.89199,2.49626 6.34729,4.68702c0.03729,0.05612 0.07276,0.11293 0.10651,0.17039c-0.00556,-16.00924 -1.3907,-32.94552 1.19462,-48.74555l-0.00822,-0.43157c-2.38439,1.02171 -5.47737,2.34222 -5.65807,2.3936c-9.47453,2.69427 -20.36844,1.28053 -29.86581,-0.30002c-6.41902,-1.06825 -13.44651,-1.96253 -19.70046,-3.74604c-1.55777,-0.44424 -3.08625,-0.98271 -4.58284,-1.60631c-0.4746,16.1004 3.65058,31.76467 3.63222,47.93193z" fill="#000000"></path><path d="M210.5143,184.47226c1.49658,0.62361 3.02789,1.15961 4.58566,1.60386c6.25395,1.78352 13.30967,2.66434 19.72868,3.73259c9.49737,1.58055 20.44837,3.00979 29.92288,0.31554c0.1807,-0.05139 3.27661,-1.36908 5.661,-2.39079l0.00856,0.43192c-2.58532,15.80003 -1.19354,32.81899 -1.18798,48.82822c-0.03376,-0.05745 -0.17684,-0.18869 -0.21412,-0.24482c-1.4553,-2.19076 -3.61129,-4.71868 -6.23926,-4.61322c-2.56646,0.10298 -6.96297,10.60924 -8.07983,12.53439c-0.53947,0.92989 -1.2362,1.77472 -1.86773,2.64931c-0.06476,-0.21583 -0.17781,-0.55154 -0.23433,-0.76455c-0.45734,-1.72328 -1.33368,-3.32627 -1.70185,-5.07078c-1.1717,-5.55187 0.29041,-6.28416 -1.72942,-12.03279c-0.00707,-0.02011 -0.01422,-0.04017 -0.02137,-0.06025l0.0081,-0.00179l-1.14566,-5.10438c-0.30015,-1.49675 -1.52985,-2.53135 -3.11495,-2.53135c-1.21235,0 -2.29977,0.67545 -2.86475,1.65533l-1.71098,2.82576l0.06582,0.03923l-0.17408,0.15454c-2.84074,6.64217 -3.84003,13.67093 -6.46736,20.41067c-0.35767,0.91751 -0.91177,1.84636 -1.42584,2.77098c-0.70758,-3.8334 -1.0812,-7.8295 -1.4888,-11.64135c-0.20697,-1.93554 0.34784,-9.5902 -0.07131,-10.72683c-0.07621,-0.20666 -0.16287,-0.41088 -0.25487,-0.60918l0.05524,-0.02358l-1.70736,-3.97312c-0.48338,-1.20266 -1.6653,-2.06482 -3.04084,-2.06482c-1.23847,0 -2.18993,0.65416 -2.74521,1.66909l-2.27208,3.96135l0.01972,0.01123l-0.06372,0.06805c-0.71622,1.43324 -2.58775,5.44148 -3.81372,7.11543c-0.82311,1.12388 -1.81342,2.16363 -2.64656,3.13786c-0.07182,-1.31141 -0.15322,-2.64889 -0.15164,-4.04854c0.01837,-16.16725 -4.09468,-31.91283 -3.62008,-48.01322z" data-paper-data="{&quot;noHover&quot;:false,&quot;origItem&quot;:[&quot;Path&quot;,{&quot;applyMatrix&quot;:true,&quot;segments&quot;:[[[220.06408,235.46885],[0.01404,-12.35677],[-0.00122,1.06976]],[[220.17695,238.55861],[-0.05489,-1.00232],[0.63678,-0.74461]],[[222.11861,236.21877],[-0.62911,0.85899],[0.93702,-1.27942]],[[225.02925,230.77307],[-0.54741,1.09544],[0,0]],[225.07791,230.72099],[225.06282,230.71237],[[226.79681,227.67789],[0,0],[0.42441,-0.77572]],[[228.9915,226.3761],[-0.94657,0],[1.05134,0]],[[231.31206,227.94426],[-0.36945,-0.9192],[0,0]],[232.60791,230.96792],[[232.56574,230.98599],[0,0],[0.07032,0.15156]],[[232.75899,231.45005],[-0.05825,-0.15795],[0.32037,0.86874]],[[232.79994,239.63949],[-0.15819,-1.47935],[0.31153,2.91342]],[[233.92907,248.53399],[-0.54081,-2.9299],[0.39291,-0.70669]],[[235.01772,246.41584],[-0.27337,0.70126],[2.00809,-5.15124]],[[239.95107,230.81459],[-2.1712,5.07667],[0,0]],[240.0832,230.69645],[240.03325,230.66648],[[241.32822,228.50819],[0,0],[0.43183,-0.74893]],[[243.49553,227.25514],[-0.92661,0],[1.2115,0]],[[245.94668,229.26088],[-0.22941,-1.14398],[0,0]],[246.81503,233.16846],[[246.80881,233.16984],[0,0],[0.00546,0.01535]],[[246.82509,233.21592],[-0.0054,-0.01537],[1.54377,4.39372]],[[248.13782,242.41774],[-0.89554,-4.24334],[0.2814,1.33335]],[[249.43794,246.29364],[-0.34955,-1.31712],[0.04321,0.1628]],[[249.57908,246.78547],[-0.0495,-0.16496],[0.48268,-0.66846]],[[251.00261,244.76242],[-0.41232,0.71072],[0.85362,-1.47141]],[[257.15959,235.19871],[-1.96157,0.07871],[2.00858,-0.0806]],[[262.01088,238.78104],[-1.1123,-1.67442],[0.0285,0.04289]],[[262.09229,238.91127],[-0.0258,-0.04391],[-0.00425,-12.236]],[[263.00535,201.65462],[-1.97598,12.0761],[0,0]],[[262.99907,201.32477],[0,0],[-1.82241,0.7809]],[[258.67456,203.15422],[0.13811,-0.03928],[-7.24146,2.05925]],[[235.84787,202.92492],[7.25892,1.20803],[-4.90611,-0.81647]],[[220.79064,200.06178],[4.77995,1.36316],[-1.19062,-0.33954]],[[217.28794,198.83406],[1.14385,0.47663],[-0.36274,12.30567]]],&quot;closed&quot;:true}]}" fill="url(#color-1)"></path><path d="M205.06904,174.13307c-9.42839,-6.61814 -16.89535,-17.03824 -21.07966,-26.83952c-1.67447,-4.31046 -1.4703,-8.60253 -1.49157,-13.16946c-0.02504,-5.37744 1.16012,-10.57073 4.14131,-15.09527c2.32164,-3.52355 4.15877,-7.41912 6.89146,-10.63438c3.23848,-3.81039 7.44596,-5.96763 11.79767,-8.14127c8.2311,-4.11136 16.53067,-7.33525 25.12572,-10.1148c0.17786,0.02342 0.3682,0.03561 0.57025,0.03561c1.19113,0 1.95244,-0.43506 2.43402,-0.98666c1.59112,-0.49315 3.20201,-0.97581 4.81904,-1.44745c0,0 3.14418,-0.91641 2.22831,-4.0565c-0.09712,-0.33297 -0.21961,-0.62029 -0.36035,-0.86796c2.35903,-1.50236 4.83833,-2.88422 7.14773,-4.73173c18.59798,-11.09934 46.04562,-4.84444 57.4593,13.93386c2.975,4.89461 3.02267,11.46623 3.04233,16.95445c-3.5058,14.02323 -1.74127,29.85207 -6.72577,43.59373c-4.7675,13.14348 -17.62223,23.25608 -30.38344,28.03058c-2.5755,1.10319 -5.03104,2.56593 -7.72388,3.33982c-8.49518,2.44142 -18.55836,0.96232 -27.05664,-0.45196c-6.1637,-1.02576 -12.86698,-1.89061 -18.88723,-3.55763c-2.05014,-0.56769 -4.05283,-1.33718 -5.9874,-2.27115c0.06512,-0.53832 0.13595,-1.07776 0.21422,-1.61737c0,0 0.45857,-3.24118 -2.77949,-3.70377c-2.04204,-0.29171 -2.98144,0.8873 -3.39593,1.79882z" data-paper-data="{&quot;noHover&quot;:false,&quot;origItem&quot;:[&quot;Path&quot;,{&quot;applyMatrix&quot;:true,&quot;segments&quot;:[[[215.72005,189.48188],[-1.56075,-0.22296],[2.47487,0.35356]],[[217.84137,192.3103],[0,0],[-0.05982,0.41243]],[[217.67712,193.5461],[0.04977,-0.41144],[1.47861,0.71383]],[[222.24881,195.27914],[-1.56694,-0.43389],[4.60133,1.27411]],[[236.66868,197.99275],[-4.71097,-0.784],[6.49532,1.08095]],[[257.32455,198.33992],[-6.49294,1.866],[2.05815,-0.59149]],[[263.22123,195.79002],[-1.96848,0.84318],[9.7535,-3.64919]],[[286.41965,174.39136],[-3.64384,10.04567],[3.80969,-10.50287]],[[291.55861,141.10694],[-2.67951,10.71807],[-0.01502,-4.19469]],[[289.23847,128.15965],[2.27382,3.74099],[-8.72357,-14.35242]],[[245.36225,117.53352],[14.21459,-8.48332],[-1.76508,1.41207]],[[239.90669,121.14978],[1.80303,-1.14827],[0.10756,0.18931]],[[240.18182,121.8132],[-0.07423,-0.25449],[0.7,2.4]],[[238.48182,124.9132],[0,0],[-1.23591,0.36047]],[[234.80447,126.01815],[1.21611,-0.37692],[-0.36807,0.42159]],[[232.94714,126.77127],[0.91039,0],[-0.15443,0]],[[232.51188,126.74383],[0.13594,0.0179],[-6.56927,2.12444]],[[213.33094,134.45711],[6.2911,-3.14235],[-3.32605,1.66133]],[[204.31977,140.66881],[2.4752,-2.91231],[-2.08862,2.45745]],[[199.0554,148.78662],[1.77445,-2.69308],[-2.27855,3.45814]],[[195.89069,160.31159],[-0.01914,-4.11002],[0.01626,3.49054]],[[197.02877,170.36687],[-1.27981,-3.29452],[3.1981,7.4912]],[[213.12541,190.85751],[-7.2062,-5.0583],[0.3168,-0.69669]]],&quot;closed&quot;:true}]}" fill="url(#color-2)"></path><path d="M152.12048,59.83788c-0.01303,-0.01738 -0.02585,-0.03472 -0.03849,-0.05205c-2.0129,1.6632 -4.18551,4.1131 -3.88606,5.65382c0.61533,3.166 6.84973,6.58174 9.94049,7.03355c1.94841,0.28481 4.16507,0.73652 5.90441,-0.1866c2.32476,-1.23382 4.72783,-9.41596 3.40157,-11.60592c-0.59626,-0.98456 -3.25065,-1.62058 -4.02831,-1.87687c-1.95552,0.02288 -3.91101,0.24463 -5.83893,0.57279l-0.87539,1.11547c0,0 -2.61674,1.96256 -4.5793,-0.65419zM159.31363,52.56185c1.71071,-0.16298 3.43248,-0.228 5.14835,-0.21542c3.34686,1.12236 6.56367,1.5811 8.6228,5.02374c3.21411,5.37362 -0.37311,17.60196 -5.79924,20.59692c-1.74338,0.96226 -8.12965,1.29183 -10.19701,0.96351c-5.89193,-0.93571 -14.37477,-6.2463 -15.36174,-12.51818c-0.88958,-5.65302 5.7717,-12.69426 10.77762,-14.49888c1.42263,-0.51286 3.02201,-0.12292 4.53301,-0.18439c0,0 1.31388,0 2.2762,0.83271z" fill="#000000"></path><path d="M156.68433,60.42849l0.88658,-1.11718c1.92791,-0.32817 3.92764,-0.53639 5.88316,-0.55928c0.77767,0.25631 3.44952,0.91283 4.04579,1.89739c1.32627,2.18995 -1.0896,10.45116 -3.41435,11.68497c-1.73934,0.92312 -3.99929,0.48903 -5.9477,0.20421c-3.09075,-0.45179 -9.39193,-3.93548 -10.00726,-7.10149c-0.29945,-1.54071 1.89274,-4.03481 3.90565,-5.69801c0.01264,0.01732 0.02541,0.03472 0.03844,0.0521c1.96256,2.61674 4.60968,0.6373 4.60968,0.6373z" data-paper-data="{&quot;noHover&quot;:false,&quot;origItem&quot;:[&quot;Path&quot;,{&quot;applyMatrix&quot;:true,&quot;segments&quot;:[[[177.32617,205.32369],[1.5,2],[-0.00996,-0.01328]],[[177.29675,205.28391],[0.00966,0.01324],[-1.53848,1.2712]],[[174.32661,209.60517],[-0.22887,-1.17758],[0.4703,2.4198]],[[181.92421,214.98097],[-2.36229,-0.34531],[1.48919,0.21768]],[[186.437,214.83835],[-1.32939,0.70555],[1.77683,-0.94302]],[[189.03685,205.96785],[1.01368,1.6738],[-0.45573,-0.75251]],[[185.95798,204.53334],[0.59438,0.1959],[-1.49462,0.01749]],[[181.49524,204.97112],[1.47352,-0.25082],[0,0]],[180.82617,205.82369]],&quot;closed&quot;:true}]}" fill="url(#color-3)"></path><path d="M299.20013,195.95024c-0.38636,1.42054 -0.46452,3.18252 -0.47688,4.87431c-0.0137,1.87685 -0.55331,3.14606 0.85417,4.67818c1.85829,2.02285 6.4723,2.07393 8.99783,2.43602c2.19188,0.31424 7.64317,1.49565 9.94649,0.72523c3.68855,-1.23376 4.51441,-7.35135 3.7067,-10.39312c-6.92309,-3.29975 -13.35513,-4.52629 -21.02562,-4.52629l1.77551,0.49208c0,0 -1.25941,2.51881 -3.77821,1.71359zM306.96239,187.41838c7.29517,0.5861 13.86499,2.46143 20.36897,6.75906c2.54243,7.16589 2.11052,17.35752 -6.64422,20.65962c-3.24991,1.22579 -9.79043,0.04006 -13.05553,-0.42488c-4.14587,-0.59036 -9.86882,-1.06169 -12.8541,-4.4646c-4.66563,-5.31831 -3.91733,-18.0541 2.25425,-22.15702c4.40265,-2.92692 5.53469,-1.67521 9.80583,-0.42c0,0 0.04595,0.01532 0.12481,0.04781z" fill="#000000"></path><path d="M302.93058,194.19196l-1.77856,-0.48859c7.67049,0 14.21663,1.25113 21.13971,4.55089c0.80772,3.04177 -0.0333,9.22028 -3.72185,10.45404c-2.30332,0.77042 -7.82155,-0.39264 -10.01344,-0.7069c-2.52554,-0.36209 -7.18186,-0.45261 -9.04016,-2.47545c-1.40748,-1.53212 -0.87208,-2.82735 -0.85837,-4.7042c0.01235,-1.6918 0.09677,-3.47897 0.48312,-4.89953c2.5188,0.80522 3.78956,-1.73027 3.78956,-1.73027z" data-paper-data="{&quot;noHover&quot;:false,&quot;origItem&quot;:[&quot;Path&quot;,{&quot;applyMatrix&quot;:true,&quot;segments&quot;:[[[285.03743,207.56997],[1.92514,0.61544],[-0.2953,1.08573]],[[284.67295,211.29546],[0.00944,-1.29306],[-0.01047,1.43449]],[[285.3258,214.87103],[-1.07575,-1.17101],[1.42031,1.54608]],[[292.20292,216.7329],[-1.93029,-0.27675],[1.67527,0.24018]],[[299.80511,217.2872],[-1.76045,0.58884],[2.81919,-0.94297]],[[302.63817,209.34365],[0.61735,2.32485],[-5.29138,-2.52203]],[[286.56811,205.88417],[5.86262,0],[0,0]],[287.92515,206.26027]],&quot;closed&quot;:true}]}" fill="url(#color-4)"></path><path d="M291.93559,111.44881c-3.20741,-0.64148 -2.56593,-3.84889 -2.56593,-3.84889l0.55603,-1.69603c-1.37083,-8.38476 -3.9182,-17.22006 -11.22281,-22.53256c-2.44503,-1.77823 -5.67917,-2.07563 -8.5205,-3.10865c0,0 -3.07399,-1.11782 -1.95619,-4.19182c1.11782,-3.07399 4.19182,-1.95619 4.19182,-1.95619c3.31544,1.20582 7.00531,1.74846 9.88112,3.79195c8.9442,6.35558 12.34737,16.69792 14.07942,26.92179l-0.59407,4.05448c0,0 -0.64148,3.20741 -3.84889,2.56593z" fill="#d3faff"></path><path d="M232.77301,108.97666c0.79057,-2.37171 3.16228,-1.58114 3.16228,-1.58114l1.54291,0.52652c5.5213,2.51786 9.12554,8.10391 14.83416,9.89707c-5.18129,-5.94676 -9.37749,-12.71933 -15.32393,-18.06058c0,0 -1.85823,-1.67241 -0.18582,-3.53064c1.67241,-1.85823 3.53065,-0.18583 3.53065,-0.18583c4.34983,3.92211 7.43146,7.99602 10.89328,12.68804c1.74759,2.36862 3.83845,4.50863 5.29774,7.06498c1.17552,2.05924 3.65582,4.09575 3.10215,6.40134c-0.46747,1.94666 -3.35081,2.40127 -5.31227,2.80213c-1.81552,0.37104 -3.68612,-0.38448 -5.52811,-0.58668c-3.88098,-0.42603 -7.53093,-0.71722 -11.44375,-0.71722h-0.87903c0,0 -2.5,0 -2.5,-2.5c0,-2.5 2.5,-2.5 2.5,-2.5h0.87903c2.52812,0 4.96818,0.08979 7.42068,0.27962c-2.91845,-2.27622 -5.60947,-4.89483 -9.31466,-6.48281l-1.09418,-0.35252c0,0 -2.37171,-0.79057 -1.58114,-3.16228z" fill="#000000"></path><path d="M288.33588,122.5229c-1.76776,1.76776 -3.53553,0 -3.53553,0l-0.81548,-0.92104c-0.19087,-0.31982 -1.91143,-3.35579 -2.42242,-3.6736c-3.61039,-2.24546 -8.11518,-2.28153 -12.3534,-2.19781c0.58841,0.42884 1.18152,0.85192 1.75733,1.29684c4.19677,3.2428 7.9205,5.73628 10.71321,10.35289l0.81543,1.21804c0,0 1.38675,2.08012 -0.69338,3.46687c-2.08013,1.38675 -3.46687,-0.69337 -3.46687,-0.69337l-0.94264,-1.41906c-2.42643,-4.08382 -5.87669,-6.09402 -9.5223,-8.99964c-1.44314,-1.15021 -3.24737,-1.95443 -4.33184,-3.4476c-1.19018,-1.63872 -2.45216,-3.62062 -2.2665,-5.63741c0.13509,-1.46748 1.99657,-2.17241 3.07764,-3.17393c3.18779,-2.95324 5.66313,-3.55497 9.91255,-3.62444c0,0 2.5,0 2.5,2.5c0,2.5 -2.5,2.5 -2.5,2.5c-2.15687,-0.04904 -3.05635,0.172 -3.95839,0.69042c4.94349,0.01129 9.97911,0.35777 14.23825,3.15259c1.33828,0.87816 2.8796,3.70466 3.73081,5.11673l0.06355,-0.04201c0,0 1.76776,1.76777 0,3.53553z" fill="#000000"></path><path d="M226.96213,142.17998c-1.1908,-2.02168 -1.74843,-4.55054 -1.78918,-7.36033c0,0 0,-2.5 2.5,-2.5c2.5,0 2.5,2.5 2.5,2.5c-0.01109,0.53181 -0.03538,0.99095 -0.04645,1.41096c0.47414,0.04381 0.99297,0.25809 1.5118,0.77692c1.2766,1.2766 0.70939,2.5532 0.29565,3.16405c0.00162,0.25822 0.00395,0.51523 0.00705,0.7711c3.0494,2.88348 9.95602,0.56999 12.90668,-0.79575c1.39565,-0.64599 2.7575,-2.68492 4.14608,-2.02389c1.89724,0.90317 2.47581,3.4787 3.11488,5.4804c0.44626,1.39778 0.04891,2.93444 0.04011,4.40171c-0.01107,1.84482 0.43923,3.76927 -0.0997,5.53364c-1.35692,4.44236 -6.12477,8.42736 -9.56964,11.31316c-0.91487,0.7664 -6.04539,4.93361 -7.7769,4.51297c-3.82362,-0.92889 -4.23835,-6.16273 -4.93245,-8.82241c-2.00512,-6.24845 -2.6669,-12.04211 -2.80794,-18.36252z" fill="#000000"></path></g></g></svg>