<svg version="1.1" xmlns="http://www.w3.org/2000/svg" xmlns:xlink="http://www.w3.org/1999/xlink" width="82.01613" height="139.79767" viewBox="0,0,82.01613,139.79767"><g transform="translate(-184.57015,-101.19515)"><g data-paper-data="{&quot;isPaintingLayer&quot;:true}" fill-rule="nonzero" stroke="none" stroke-linecap="butt" stroke-linejoin="miter" stroke-miterlimit="10" stroke-dasharray="" stroke-dashoffset="0" style="mix-blend-mode: normal"><path d="M204.7623,193.67414l-16.26952,-21.28291l-3.74362,-28.76735l8.99327,-42.42873l46.22458,24.40084l26.61928,20.77749l-2.78622,18.36889l-8.8391,16.92992l3.12647,39.46424l-13.09849,18.23028l-19.71435,1.62601l-8.59741,-20.40907l6.6358,-13.87515z" fill="#ffffff" stroke-width="0"/><path d="M215.83052,148.48566c-0.22897,-0.71151 0.48527,-0.94868 0.48527,-0.94868l0.70828,-0.22822c4.43587,-2.98366 10.19817,-4.80779 15.54739,-4.8642c0,0 0.5633,0 0.70791,0.48817c0.10338,-0.02396 0.17889,-0.02396 0.17889,-0.02396c2.71918,0.05933 5.77429,-1.21325 8.52201,-1.49902c2.5037,-0.26039 4.88967,-0.20593 7.21359,0.15802c-1.66574,-2.35996 -3.0275,-5.03642 -4.26448,-7.64633c-0.51846,-1.09391 -1.18414,-2.93406 -2.1097,-3.72917c-1.92046,0.14814 -3.18193,2.20088 -4.99326,2.17249c-1.27308,-0.01996 -2.51357,-1.71481 -3.34985,-2.48095c-1.38437,-1.26826 -2.81936,-2.29655 -4.41788,-3.26633c-1.15254,-0.69921 -3.11437,-1.53166 -4.0767,-0.15171c-7.07293,7.02089 -15.46649,2.82735 -19.41173,-5.22003c-2.15931,-4.42252 -3.61136,-9.18671 -6.06085,-13.46164c-0.9362,-1.63389 -2.44818,-2.67109 -4.04029,-3.62564c-0.13603,-0.08155 0.06222,0.31339 0.06739,0.47265c0.00382,0.11769 -0.02038,1.67594 -0.02634,2.07385c0.51852,3.37345 0.56027,6.77114 1.24139,10.11834c0.49781,2.44639 1.34753,4.99483 1.14746,7.52727c-0.14929,1.88953 -1.23327,6.13034 -3.63992,3.33482c-1.51413,-1.5288 -2.56301,-3.13961 -3.80007,-4.93668c-0.31988,-0.4647 -0.74756,-1.70534 -1.28049,-1.85599c-1.29992,-0.36747 -2.2878,1.42148 -2.40039,2.42916c-0.33696,3.01594 0.4337,5.76241 1.14157,8.65038c0.94725,2.43101 1.76881,4.89236 2.60874,7.3443c0.28754,0.8394 1.33327,2.25558 0.34197,3.23753c-0.9218,0.91311 -4.74498,-1.46255 -5.63967,-0.02552c-0.86762,1.39356 1.34192,5.99105 1.92238,7.17929c2.80732,5.01044 6.10743,8.87851 10.76925,12.24955c1.02318,0.73988 3.29462,2.78778 4.57619,1.68239c0,0 0.60519,-0.45 1.04827,0.15c0.44308,0.6 -0.1621,1.05 -0.1621,1.05c-2.22003,1.52305 -4.5391,-0.3533 -6.36169,-1.67156c-4.8441,-3.50367 -8.28582,-7.54493 -11.20055,-12.75255c-0.80229,-1.64255 -3.18461,-6.78322 -1.85862,-8.67571c0.81938,-1.16945 3.14766,-1.13567 4.39953,-0.95989c0.55377,0.07776 1.12449,0.99783 1.55065,0.62947c0.46684,-0.40351 -0.61887,-1.06104 -0.82025,-1.63824c-0.85182,-2.4415 -1.66408,-4.90392 -2.60502,-7.33233c-0.75374,-3.04785 -2.3891,-7.69389 -0.80558,-10.75662c0.69145,-1.33737 2.3362,-2.79617 3.98605,-2.21267c0.99061,0.35035 1.07845,1.01562 1.58822,1.82418c1.24424,1.97352 2.54043,3.78179 4.1461,5.40872c0.38829,0.75545 0.66575,0.13511 0.84467,-0.59562c0.37753,-1.54197 0.17724,-3.58724 -0.09416,-5.12973c-0.83001,-4.71738 -1.43219,-9.4038 -2.14046,-14.15131c0.00689,-0.80541 -0.33599,-2.61855 0.11469,-3.29247c1.3632,-2.03847 4.76249,0.79918 5.79964,2.14669c3.29595,4.28228 4.63625,10.07382 6.99168,14.89486c3.44755,7.08776 10.63181,11.11607 16.94048,4.90798c2.89407,-3.58617 8.36782,1.21138 10.63703,3.28983c0.33773,0.30934 1.79968,2.11725 2.39061,2.09261c0.6909,-0.0288 1.36784,-0.96929 1.88955,-1.26316c1.27846,-0.72013 2.14335,-0.8781 3.53312,-0.833c3.52941,2.5601 4.75197,8.77076 7.38623,12.30521l0.25523,0.83008c1.97568,0.44803 3.91585,1.1242 5.85599,2.02509c2.65015,1.60607 5.19304,3.30361 7.10086,5.75453l0.00732,0.11495l0.03989,-0.01588l0.28999,0.74647c0.03755,0.09037 0.05777,0.18986 0.05657,0.29434c-0.00477,0.41422 -0.34442,0.75 -0.75864,0.75c-0.1576,0 -0.30329,-0.04861 -0.42304,-0.13165l-0.89922,-0.60412l0.05091,-0.07506c-0.22792,-0.11088 -0.44759,-0.23601 -0.65453,-0.38142c0.51689,1.09343 1.01664,2.78285 1.10659,3.15804c1.02476,4.27453 1.4187,9.20231 0.15066,13.46836c-0.54756,2.54972 -2.29144,2.8166 -3.80596,1.75903c0.09627,0.15569 0.12013,0.30954 0.12013,0.30954l0.16162,1.04177c0.90691,5.93559 -0.14692,10.8962 -6.13113,12.58946c0.02649,0.07997 0.04147,0.17365 0.0402,0.28339c-0.00864,0.75 -0.75864,0.75 -0.75864,0.75c-4.79891,0 -11.87405,-0.74384 -15.28997,3.50399c-2.62692,3.8458 3.21123,7.73018 6.80991,6.67771c0.58319,-0.33639 1.17591,-0.69231 1.78784,-1.05825c0,0 0.64757,-0.38587 1.02603,0.25725c0.37846,0.64312 -0.26911,1.02899 -0.26911,1.02899c-0.01577,0.00935 -0.03153,0.01871 -0.04726,0.02805c-0.0518,0.05424 -0.09168,0.0839 -0.09168,0.0839l-0.64685,0.47974c-0.30373,0.17164 -0.62138,0.31222 -0.94922,0.42359c-2.11538,1.20607 -4.1125,2.17472 -6.35687,2.56338c-4.02842,1.31279 -10.22498,1.80814 -12.74652,-1.29907c-0.16093,0.43559 -0.30787,0.82324 -0.4253,1.14246c-0.11432,0.31074 -0.92049,2.20248 -1.25587,2.28893c-0.94177,0.24275 -1.80946,-0.90434 -2.21441,-1.50878c-1.71787,-2.5642 -3.238,-5.36517 -4.59132,-8.1357c-0.33203,-0.68229 -0.60345,-1.3715 -0.84425,-2.07149c-0.49146,1.1281 -1.49391,2.01948 -2.66966,1.6363c-1.45635,-0.47461 -2.42419,-2.65085 -3.06677,-3.83185c-1.43877,-2.64431 -2.99356,-6.08089 -3.28368,-9.23976c-4.10506,-0.89881 -8.17779,-1.72271 -12.22913,-2.97438c-1.75485,-0.54217 -3.37817,-0.94626 -4.72978,-1.9221l-0.18551,0.2286l-0.85477,-0.69018c-0.17311,-0.13732 -0.28285,-0.35055 -0.28009,-0.58998c0.00434,-0.37645 0.28528,-0.68812 0.64741,-0.74182l0.97154,-0.16161c0.2844,-0.11324 0.56879,-0.22647 0.85319,-0.33971c5.08687,-0.85026 9.95141,-2.23407 15.06707,-2.6699c-0.19115,-3.31216 0.03237,-6.57295 1.80985,-9.00548l0.2248,-0.23278c0,0 0.53644,-0.53033 1.06066,0c0.52422,0.53033 -0.01223,1.06066 -0.01223,1.06066l-0.08362,0.07212c-0.78866,0.97201 -0.76005,2.46274 -0.96873,3.63389c-0.26265,1.47396 -0.3316,2.9231 -0.30698,4.36312c0.46079,-0.0183 0.92397,-0.02779 1.38991,-0.02741c2.05522,0.00168 4.26114,0.0529 6.0939,0.95989c0.3476,-1.33986 0.67573,-2.67495 0.95635,-4.00315c0,0 0.15557,-0.73544 0.88931,-0.58835c0.73373,0.14709 0.57818,0.88252 0.57818,0.88252c-1.28104,6.04924 -3.60877,12.28763 -4.13483,18.42155l-0.06736,0.76157c0,0 -0.06614,0.74779 -0.81327,0.69027c-0.74713,-0.05752 -0.68099,-0.80531 -0.68099,-0.80531l0.06736,-0.76158c0.13125,-1.44419 0.35664,-2.89173 0.64157,-4.33999c-0.04689,0.00575 -0.07604,0.00575 -0.07604,0.00575l-0.68176,-0.07918c-0.39189,-0.21382 -0.86591,-0.28187 -1.31452,-0.27355c-0.7703,-0.18551 -1.53935,-0.36297 -2.30723,-0.53566c0.37079,3.05147 2.05076,6.43384 3.38137,8.94761c0.10556,0.19942 1.95474,2.64814 2.17425,2.42255c0.53551,-0.55038 0.85594,-1.67527 1.14064,-2.73896l-0.29767,-0.03726l0.16515,-1.20975c0.04569,-0.37508 0.36703,-0.66684 0.75314,-0.66684c0.37373,0 0.68046,0.27336 0.73334,0.63103l0.15979,0.95785c0.41907,1.44842 0.8161,2.83947 1.47947,4.19195c0.62097,1.27124 1.20894,2.51376 1.96131,3.7125c0.66954,1.06678 1.33515,2.13164 1.95985,3.22626c0.1938,0.33957 0.3611,0.69491 0.5711,1.02459c0.08645,0.1357 0.27042,0.358 0.41198,0.55196c0.09758,-0.62178 0.64469,-1.80355 0.69884,-2.0001c0.67857,-2.46254 1.06058,-5.14295 1.96474,-7.54628l-0.20759,-0.04625l0.31734,-1.35764c0.07279,-0.3432 0.37883,-0.60173 0.74228,-0.60173c0.41422,0 0.74613,0.33578 0.74136,0.75l-0.00879,0.76226c-0.03583,2.36166 1.83701,3.81399 3.57966,5.16039c-1.5664,-4.28236 -0.57847,-10.60378 0.06655,-14.27835c0,0 0.13183,-0.7398 0.87021,-0.6165c0.73837,0.1233 0.60654,0.8631 0.60654,0.8631c-0.87075,4.80465 -2.12847,13.09947 2.10459,16.49509l0.02046,0.20895l0.07855,-0.03128l0.21237,0.54667c1.02481,0.09559 1.97392,0.05662 2.87615,-0.0885c0.52575,-0.17893 1.05564,-0.39885 1.59327,-0.6667c0,0 0.42146,-0.20952 0.75996,0.03383c0.2453,-0.09154 0.48881,-0.18992 0.73127,-0.29445c-4.20419,-0.80302 -8.03604,-4.83474 -5.23139,-8.99456c3.58008,-4.37996 10.02735,-4.17918 15.28317,-4.1261c-0.03008,-0.6185 0.61486,-0.74719 0.61486,-0.74719c6.06463,-1.186 6.82012,-5.66847 5.95971,-11.12158l-0.16162,-1.04177c0,0 -0.11477,-0.73979 0.62644,-0.86309c0.14142,-0.02353 0.26004,-0.01563 0.35941,0.01255c-0.28771,-0.24998 -0.56197,-0.54787 -0.81198,-0.88643l-0.32328,-0.49133c0,0 -0.40883,-0.62404 0.22,-1.04006c0.62884,-0.41602 1.03766,0.20801 1.03766,0.20801l0.27599,0.42338c0.93763,1.26968 1.92386,1.92281 2.33032,-0.03161c1.20224,-4.04466 0.80372,-8.70045 -0.1569,-12.75337c-0.30625,-1.29207 -2.51419,-4.52696 -1.34742,-5.64893c0.0902,-0.08675 0.1935,-0.14541 0.3064,-0.17988c-1.2842,-1.04892 -2.70174,-1.94693 -4.13356,-2.81767c-4.50328,-2.08788 -8.971,-2.87414 -13.97151,-2.35324c-2.85694,0.29761 -5.84077,1.46465 -8.67757,1.5071c0,0 -0.5633,0 -0.70791,-0.48817c-0.10338,0.02396 -0.17889,0.02396 -0.17889,0.02396c-5.12452,-0.07323 -10.63928,1.93944 -14.8866,4.71168l-0.89383,0.30377c0,0 -0.71424,0.23717 -0.94321,-0.47434zM226.52792,194.90879c0.72532,1.54268 2.01464,1.69262 3.54887,1.84622c1.03594,0.10371 2.02662,0.18794 2.99306,0.21203c-0.02204,-0.10615 -0.01802,-0.22886 0.0304,-0.36811c-2.18319,-1.1619 -4.56221,-3.19984 -5.86533,-5.39498c-0.17374,1.13568 -0.52422,2.36838 -0.89583,3.49222zM204.44315,173.34056c-0.15557,0.73543 -0.8893,0.58835 -0.8893,0.58835l-0.85429,-0.17135c-1.88772,-0.32259 -3.46271,-0.90971 -4.81123,-2.00464l-0.10626,0.17377l-0.85043,-0.51381c-0.22319,-0.12955 -0.37163,-0.37221 -0.36843,-0.65019c0.00477,-0.41422 0.34442,-0.75 0.75864,-0.75c0.05933,0 0.11696,0.00689 0.17216,0.01991l0.7571,0.16227c2.96806,0.06477 5.88067,0.58334 8.78614,1.0356c-0.09844,-0.94251 -0.20484,-1.91047 -0.29019,-2.8841c-4.99667,0.42557 -9.7481,1.77717 -14.71299,2.60487c1.55829,0.30827 3.44829,1.34035 4.61089,1.69937c3.51968,1.08689 7.10033,1.7466 10.68269,2.50656c-0.01141,-0.7546 -0.0651,-1.55478 -0.13891,-2.38541c-1.69429,-0.25794 -3.39005,-0.54366 -5.09673,-0.75878c0.33365,0.12821 0.63929,0.2276 0.89498,0.26916l0.87798,0.17591c0,0 0.73373,0.14709 0.57818,0.88253zM214.14171,171.92259c0,0 0.3021,-0.00001 0.52063,0.19173c0.26055,-0.98517 0.52721,-1.96905 0.78901,-2.95081c-1.61003,-0.98309 -3.85133,-0.95134 -5.71856,-0.94976c-0.44146,0.00037 -0.88042,0.00979 -1.31717,0.02731c0.0582,1.0765 0.14944,2.15096 0.23151,3.23c1.82681,0.25788 3.65434,0.45153 5.49459,0.45153zM214.12442,173.42259c-1.79961,0 -3.58654,-0.17953 -5.37186,-0.42351c0.0486,0.82263 0.0805,1.6497 0.07728,2.48408c0.85937,0.19154 1.71837,0.3931 2.57617,0.61196c0.61848,0.0095 1.24675,0.15605 1.80278,0.42096l0.01275,-0.07918c0,0 0.17425,0 0.3538,0.08399c0.23042,-1.04324 0.48589,-2.08642 0.75348,-3.12855c-0.11623,0.03024 -0.20441,0.03024 -0.20441,0.03024z" fill="#9966ff" stroke-width="0.5"/><path d="M235.26926,170.95992c0.52665,0 0.67923,0.36981 0.7234,0.59007c0.40664,-1.04642 1.36799,-2.07637 1.8291,-3.05847c0.81876,-1.74389 1.37048,-3.75354 2.38395,-5.40086c0.42133,-0.68485 1.41767,-2.08998 2.32556,-2.19232c0.81075,-0.0914 1.49555,1.10946 1.74867,1.65598c1.21647,2.62647 1.57626,4.8473 3.57202,7.09438c0.69348,0.59945 1.37558,1.38823 2.15295,1.89177c0.21549,0.13959 0.67281,0.48297 0.91243,0.67387c-0.26124,-0.48281 0.33019,-2.20274 0.39599,-2.60098c0.51174,-3.09748 2.31194,-5.55813 2.84402,-8.54592c0,0 0.13183,-0.7398 0.8702,-0.6165c0.73837,0.1233 0.60655,0.86309 0.60655,0.86309c-0.58213,3.26494 -2.35867,6.10532 -3.00775,9.46393c-0.11002,0.56933 -0.32935,2.48431 -0.81103,2.77561c-1.57331,0.95147 -4.06236,-1.99824 -5.02346,-2.83147c-1.24751,-1.40366 -2.32936,-2.75902 -2.88353,-4.58237c-0.2124,-0.69881 -0.44114,-1.39393 -0.71522,-2.0703c-0.22407,-0.55295 -0.15699,-2.03059 -0.64068,-1.67159c-1.28985,0.95734 -1.63741,2.9261 -2.28099,4.2835c-1.21739,2.56764 -2.22539,5.06367 -4.3822,6.99704c-0.39069,-0.27611 -0.78139,-0.55222 -1.17206,-0.82833l-0.20653,-1.14013c0,0 0.00864,-0.75 0.75864,-0.75zM235.92495,171.74079l-0.13493,0.04861c0.01116,0.13043 0.02233,0.26085 0.03349,0.39128c0.01983,-0.14686 0.0546,-0.29352 0.10143,-0.43989z" fill="#9966ff" stroke-width="0.5"/><path d="M247.13063,173.5516c0.75,0 0.74136,0.75 0.74136,0.75l-0.01802,0.29954c-0.17767,0.83995 -0.32035,1.66112 -0.61614,2.40212c0.94158,-0.01242 1.87527,0.02168 2.7255,0.04156c0.11676,-0.00862 0.22708,-0.00768 0.32834,0.00692c0.20969,0.00384 0.41337,0.00625 0.60983,0.00625h0.76226c0.41422,0 0.74613,0.33578 0.74136,0.75c-0.00477,0.41422 -0.34442,0.75 -0.75864,0.75h-0.76226c-0.12025,0 -0.24302,0.00233 -0.36806,0.00666c-2.83623,0.89292 -6.41736,1.14663 -9.3704,1.20058c-0.21851,0.16482 -0.49164,0.16482 -0.49164,0.16482l-0.71578,-0.00754l-1.0545,-0.15089c-0.36875,-0.04675 -0.65068,-0.36204 -0.64627,-0.74402c0.00477,-0.41422 0.34442,-0.75 0.75864,-0.75h0.76226c0.46247,0 0.92434,-0.01736 1.38569,-0.04752c0.02135,-0.36919 0.3088,-0.66868 0.67166,-0.7099c-0.63714,-0.73477 -1.1827,-1.50888 -1.73092,-2.34521l-0.23259,-0.63621c0,0 -0.22897,-0.71151 0.48527,-0.94868c0.71424,-0.23717 0.94322,0.47434 0.94322,0.47434l0.06177,0.2785c0.66152,1.01035 1.31046,1.92502 2.161,2.78228c0,0 0.11613,0.11749 0.18313,0.29716c0.5865,-0.16629 1.2177,-0.2705 1.86736,-0.33372c0.55981,-0.7439 0.64461,-1.8938 0.83242,-2.78169l-0.01451,-0.00536c0,0 0.00864,-0.75 0.75864,-0.75z" fill="#9966ff" stroke-width="0.5"/><path d="M249.52586,218.17492c0.16961,0.34722 0.07067,0.60458 -0.06425,0.77207c0.63672,2.55162 2.17619,4.64226 5.00477,1.90285c0.66022,-1.22576 -0.27513,-2.26945 -0.10009,-3.43445c0.35857,-2.38657 2.23851,-0.46568 2.8766,-1.84489c1.3157,-2.84382 -1.95932,-3.58853 -4.11676,-3.54863c0.30337,0.94203 0.46631,1.82309 0.32665,2.46836c-0.34561,1.59682 -2.69406,3.05016 -4.31622,2.38729c0.02281,0.31482 0.05845,0.64106 0.10771,0.96983c0.10443,0.06364 0.20299,0.16664 0.28158,0.32755zM238.06505,216.80059l-0.01425,-0.02654c0,0 0.00598,-0.51845 0.43905,-0.69324c-0.0886,-1.99285 -0.29264,-3.94404 -0.67052,-5.98245c-0.0237,-0.07686 -0.03693,-0.16601 -0.03573,-0.26942c0.00254,-0.22073 0.0693,-0.3765 0.16226,-0.48642c0.09109,-0.11147 0.23219,-0.20572 0.44913,-0.24901c0.10233,-0.02042 0.19311,-0.02383 0.27361,-0.01457h0.22091c2.86469,0 5.81104,0.27906 8.50779,-0.82209c0.40898,-0.5186 -1.78492,-2.06546 -2.20969,-2.27141c-3.05382,-1.48061 -6.27469,-2.63163 -9.32787,-4.16707c0,0 -0.66695,-0.33541 -0.32381,-1.00623c0.34314,-0.67082 1.0101,-0.33541 1.0101,-0.33541c2.09139,1.05175 4.30025,2.3006 6.49863,3.09714c1.16594,0.42246 2.67844,0.68089 3.6638,1.51219c1.15812,0.97705 2.17155,1.81141 2.06285,3.11601c0.11977,-0.12674 0.25737,-0.24038 0.41656,-0.33796c0.13406,-0.08218 0.275,-0.1496 0.4203,-0.20768c-0.82727,-1.64906 -1.28251,-3.49306 -0.96042,-5.26168c0.0194,-0.10653 0.04521,-0.21231 0.07703,-0.31709c-0.1837,-0.00421 -0.36777,-0.00646 -0.55224,-0.00646c0,0 -0.75,0 -0.74136,-0.75c0.00864,-0.75 0.75864,-0.75 0.75864,-0.75c0.4735,0 0.94415,0.01482 1.41297,0.03947c0.45679,-0.49494 1.03771,-0.92014 1.67211,-1.23238c0.01216,-0.14484 0.10166,-0.717 0.75674,-0.717c0.29231,0 0.46938,0.11392 0.57663,0.25297c0.54785,-0.11407 1.0996,-0.13439 1.61741,-0.03779c0.00468,-0.10925 0.00768,-0.2203 0.00898,-0.33333c0,0 0.00864,-0.75 0.75864,-0.75c0.75,0 0.74136,0.75 0.74136,0.75c-0.00418,0.36238 -0.02376,0.7084 -0.05821,1.04253c0.14517,0.20736 0.52547,0.97518 0.78449,1.50633c0.01899,0.00005 0.03799,0.00007 0.05699,0.00007h0.17363c0,0 0.75,0 0.74136,0.75c-0.00454,0.39387 -0.21354,0.58089 -0.411,0.6697c1.25127,3.94795 0.33241,6.92112 -4.0472,7.32564c0.05033,0.05281 0.10072,0.10472 0.15114,0.15572c0,0 0.15092,0.15267 0.20793,0.37611c1.32593,-0.18153 2.65271,-0.13455 3.74378,0.81267c2.32454,2.01806 2.3698,6.15181 -1.22159,6.23014c-0.34586,0.00754 0.28006,0.63731 0.33475,0.97815c0.18991,1.18373 0.00626,2.28784 -0.5176,3.33671c-0.41943,0.42081 -0.90856,0.79094 -1.43686,1.08381c0.00297,0.10981 -0.01344,0.1874 -0.01344,0.1874c-0.08942,0.38882 -0.23904,0.68774 -0.4091,0.95479c-0.02977,0.10288 -0.06086,0.20868 -0.0932,0.31664c0.33022,0.75355 -0.00546,1.32175 -0.58457,1.70604c-0.04295,0.10667 -0.08689,0.2116 -0.13178,0.31405c0.19285,0.63548 0.5262,1.2937 -0.03837,1.89847c-0.08854,0.09484 -0.18899,0.17386 -0.29925,0.23823c-0.06251,0.65235 0.23452,1.28985 1.15438,1.14903c4.35209,-0.66626 7.98294,-6.23906 11.19627,-0.83464c3.02507,6.30095 -5.09817,8.57869 -9.54457,6.07228c-0.11398,0.1935 -0.30263,0.39624 -0.49749,0.59763c0.14504,0.17622 0.29086,0.48628 0.02485,0.8785c-0.42321,0.62404 -1.04246,0.20801 -1.04246,0.20801l-0.68848,-1.42129c0.27535,-0.36157 0.52769,-0.78593 0.6722,-1.22944l-0.02695,-0.05518c-0.05367,-0.10423 -0.08336,-0.22294 -0.08191,-0.34891c0.00477,-0.41422 0.34442,-0.75 0.75864,-0.75c0.12597,0 0.24432,0.03106 0.34792,0.08593l0.6771,0.34051l-0.01148,0.02246l0.06999,0.01037c2.8218,2.24531 10.58574,1.4409 8.01942,-3.68905c-2.38245,-4.10218 -6.06817,1.33209 -9.6671,1.59615c-1.83798,0.13485 -2.82395,-1.04128 -2.84048,-2.45375c-1.50762,-0.25844 -3.22683,-1.52227 -3.16821,-2.68851c0.06029,-1.19939 0.81461,-2.20257 1.81492,-2.86787c-0.46133,-0.25738 -0.89132,-0.62814 -1.26926,-1.13033c-0.42932,-0.57049 -0.67518,-1.29452 -0.81299,-2.07331c-2.23376,0.97245 -5.33313,2.02148 -7.46034,1.66267c-0.28463,0.07525 -0.49402,-0.03447 -0.63015,-0.15854c-0.7587,4.59973 -0.02711,9.63519 -0.68048,14.25089c-0.06386,0.45115 0.85435,0.31154 0.923,0.37166c0.31904,0.27939 0.40604,0.74549 0.60906,1.11822c0.00197,0.61578 0.11786,1.95969 -0.41007,2.44741c-0.57718,0.53322 -2.53167,0.55714 -3.3062,0.55845c-2.32239,0.00393 -4.60947,-0.17363 -6.94311,-0.17363c-0.66223,0 -2.62662,0.24674 -3.17105,-0.11201c-1.43094,-0.94291 -0.64468,-5.14902 -0.62506,-6.5945c0.23256,-1.52068 0.31698,-3.03593 0.52656,-4.54498c-1.44499,0.59744 -1.93879,0.42607 -2.68955,-1.09149c-0.13693,-0.72855 -0.23126,-1.46193 -0.2902,-2.19918c-0.2833,-0.06223 -0.56917,-0.15672 -0.8602,-0.29538c-0.86509,-0.436 -2.91466,-0.97151 -3.40667,-1.83917c-0.43888,-0.77395 -0.04816,-2.4807 0.11202,-3.30755c0.56487,-2.91576 2.50268,-6.38909 5.29121,-7.62038c0.30794,-2.14445 0.56103,-4.27525 0.59002,-6.37012c0.25719,-1.46259 0.0427,-4.94182 1.07283,-6.0999c0.06317,-0.07101 0.12751,-0.1361 0.1929,-0.19549c0.08176,-0.11304 0.20983,-0.23756 0.39574,-0.28558c1.95326,-1.07663 4.57644,1.99245 5.34805,3.52937l0.05421,0.82946c0.70221,1.57631 0.61188,3.26634 0.81971,4.96249c0.5684,4.63888 0.95989,9.23047 0.88435,13.91587c0.4424,2.34728 0.79012,6.69949 -1.92004,7.87732c-1.46865,0.63827 -2.57278,0.11188 -3.23038,-1.23942c-0.16423,-0.33747 -0.36731,-0.98601 -0.4648,-1.5285c-0.07932,0.05758 -0.16565,0.11439 -0.25591,0.1697c-0.33953,1.80366 -0.39063,3.61713 -0.67487,5.43927c-0.01316,1.4288 -0.01457,2.85882 -0.04753,4.28753c-0.00711,0.30821 -0.31796,0.85254 -0.01911,0.92466c2.18281,0.52676 5.80067,0.06582 8.11275,0.06162c0.7019,-0.00127 2.8429,0.25542 3.4733,-0.13607c0.29196,-0.18132 -0.03574,-0.68336 -0.02278,-1.02515c-0.18753,-0.73129 -1.41958,-0.89258 -1.55722,-1.63541c-0.2893,-1.56131 0.45127,-4.4483 0.58593,-6.05606c0.26002,-3.1044 -0.32515,-6.35094 0.25382,-9.42297c-0.46586,-0.74913 -0.60572,-1.88081 -0.26559,-3.51941zM247.61482,215.832l0.1954,-0.94133c0,0 0.03464,-0.16378 0.14834,-0.3213c-0.00121,-0.22758 0.0107,-0.45612 0.03084,-0.67805c-0.05412,0.05528 -0.11036,0.10853 -0.1689,0.1596c-2.83399,2.47252 -5.70057,1.30446 -7.53495,-0.96783c-0.02443,2.27925 0.008,4.92681 0.40139,7.06099c1.77904,0.46921 4.98126,-0.91954 6.9118,-1.84966c-0.03213,-0.87275 0.00488,-1.73499 0.01609,-2.46243zM251.65905,224.57584c-0.19963,-0.04078 -0.4825,0.01196 -0.84244,0.24421c-0.02568,0.01657 -0.04619,0.0371 -0.06207,0.06108c0.33497,0.0212 0.50361,0.20167 0.5885,0.38002c0.04012,0.01074 0.07837,0.01888 0.11476,0.02466c0.00811,-0.13205 0.03308,-0.26978 0.08113,-0.41481c0.03555,-0.10731 0.07602,-0.20495 0.12014,-0.29517zM252.44085,223.48561c-0.01827,0.01588 -0.03691,0.03166 -0.05589,0.04733c0.00702,0.00134 0.01404,0.00269 0.02103,0.00405c0.01177,-0.01692 0.02339,-0.03403 0.03485,-0.05137zM255.42085,205.89099h-0.17363c-1.02641,-0.0029 -2.06067,-0.02894 -3.06078,-0.17944c-0.00633,0.15646 -0.01057,0.3135 -0.01239,0.47121l-0.006,0.52088c0,0 -0.00864,0.75 -0.75864,0.75c-0.08686,0 -0.16354,-0.01006 -0.23125,-0.02785c0.18765,0.33142 0.39168,0.65204 0.60666,0.95864h0.13475c3.02712,0 4.17143,-1.06387 4.17744,-2.87689c-0.1966,0.38345 -0.67615,0.38345 -0.67615,0.38345zM255.26452,204.39099h0.17363c0,0 0.37189,0 0.5889,0.26188c-0.09784,-0.6297 -0.29476,-1.32711 -0.56848,-2.08282c-0.18013,-0.0073 -0.35991,-0.01623 -0.53942,-0.02651c-0.20372,0.50189 -0.44341,1.00978 -0.71658,1.54384l0.07704,0.18547c0,0 -0.00052,0.04473 -0.01222,0.11234c0.33675,0.00673 0.67054,0.00684 0.99713,0.0058zM252.77961,204.27285l0.08905,-0.85629c0.17515,-0.34239 0.33485,-0.67023 0.47829,-0.99115c-0.27272,-0.02416 -0.54513,-0.04956 -0.81745,-0.0752c-0.07876,0.62658 -0.16283,1.25116 -0.22953,1.88031c0.15902,0.02545 0.31925,0.04695 0.48024,0.0651c-0.00068,-0.01461 -0.00059,-0.02277 -0.00059,-0.02277zM254.04839,200.32944c-0.39372,-0.11414 -0.85283,-0.08127 -1.31585,0.05226c-0.01093,0.16129 -0.02371,0.32201 -0.03797,0.48228c0.39779,0.03728 0.79585,0.07367 1.19479,0.10604c0.06081,-0.2107 0.11389,-0.42348 0.15903,-0.64058zM250.67406,206.18275c0.00312,-0.27106 0.01346,-0.53999 0.02932,-0.80731c-0.14853,-0.04697 -0.29571,-0.09818 -0.44139,-0.15403c0.10491,0.40141 0.24386,0.79784 0.4095,1.18497zM251.04925,202.21441c-0.24436,-0.02083 -0.48892,-0.04039 -0.73382,-0.05796c-0.10006,0.1754 -0.1686,0.3513 -0.19804,0.52196c-0.04493,0.26061 -0.06924,0.52294 -0.07488,0.78583c0.25522,0.15285 0.52323,0.28067 0.80091,0.38752c0.06397,-0.5471 0.13768,-1.09138 0.20582,-1.63735zM251.14777,211.53866c-0.03579,-0.18991 -0.01319,-0.34058 0.04004,-0.45962c-0.27672,-0.68285 -0.54795,-1.35585 -0.6841,-1.90774c-0.07746,-0.1132 -0.15351,-0.228 -0.22801,-0.34431c-0.53353,0.88281 -0.80563,2.0137 -1.17341,3.05258c0.22078,-0.05464 0.61258,-0.07129 0.83888,0.39199c0.32768,0.67082 -0.34701,1.00623 -0.34701,1.00623l0.05681,-0.35011c-0.06241,0.28861 -0.45443,2.35288 -0.02286,2.51385c0.87315,0.32566 2.09214,-0.41621 2.35715,-1.24526c0.14952,-0.46775 -0.07417,-1.24741 -0.39559,-2.10247c-0.18727,-0.06491 -0.37807,-0.21643 -0.4419,-0.55514zM246.87264,212.89931c0.89457,-0.71988 0.88706,-2.18245 1.23396,-3.40702c-2.38257,1.16487 -5.00204,1.14537 -7.61572,1.10448c1.17349,2.55969 3.5165,4.6083 6.38177,2.30254zM227.57916,226.26809c0.06359,0 0.12174,0.00539 0.17489,0.01526c0.64916,-0.48189 1.23002,-0.91014 1.44111,-0.85122c1.33426,0.37246 0.18674,4.6855 2.3858,3.67932c1.89368,-0.86645 1.32003,-4.77943 1.02211,-6.36015c0.03579,-4.6774 -0.31787,-9.23185 -0.87897,-13.86458c-0.18041,-1.48952 -0.04394,-3.13699 -0.68851,-4.51503c-0.05925,-0.09346 -0.09133,-0.19303 -0.10867,-0.27433c-0.03278,-0.139 -0.04946,-0.34594 0.0596,-0.53786c-0.39731,-0.83997 -0.93245,-1.05885 -1.56447,-1.69977c-0.86163,-0.87376 -1.39917,-1.0428 -1.7425,-0.78825c-0.75731,3.94335 0.45669,7.37863 0.46382,11.18825c0,0 -0.00756,0.65607 -0.62215,0.74098c-0.20478,0.35627 -0.66138,0.35627 -0.66138,0.35627c-0.27128,0 -0.53598,0.02983 -0.79358,0.0862c-0.55132,3.54414 -1.18204,7.1224 -1.06309,10.60144c0.75049,-0.02892 1.53123,-0.20451 2.25676,-0.20732h0.34725c0,0 0.75,0 0.74136,0.75c-0.00864,0.75 -0.75864,0.75 -0.75864,0.75h-0.34725c-0.75285,-0.00346 -1.45544,0.09969 -2.1458,0.13569c0.05559,0.56287 0.13418,1.12262 0.23937,1.67865c0.05906,0.62552 0.7229,0.31856 1.48958,-0.199c0.02243,-0.18265 0.13984,-0.68454 0.75337,-0.68454zM220.92074,220.20819c-0.08417,0.43629 -0.4925,1.88794 -0.29927,2.24853c0.2317,0.43238 2.27677,1.01957 2.8079,1.28613c0.03281,0.0179 0.06585,0.03486 0.0991,0.05091c-0.05163,-3.17336 0.44875,-6.40499 0.93547,-9.62044c-1.85799,1.31247 -3.14203,3.95521 -3.54321,6.03487zM226.65056,211.86197c0.00421,-0.66849 -0.03039,-1.32854 -0.08581,-1.9843c-0.07692,0.66803 -0.16686,1.33893 -0.26409,2.01178c0.11557,-0.01308 0.23222,-0.02229 0.34991,-0.02748z" fill="#9966ff" stroke-width="0.5"/><path d="M221.3536,201.21744c-0.00864,0.75 -0.75864,0.75 -0.75864,0.75h-0.21932c-2.21485,-0.10866 -5.27712,-4.76682 -6.26318,-7.8063c-0.13874,1.14229 -0.38651,2.22046 -0.45012,3.39546c-2.64029,2.28709 -3.19158,-1.08109 -4.73566,-2.86616c-4.25868,-4.92332 -3.9752,-9.7469 -3.50787,-15.89243c0,0 0.05692,-0.74844 0.8048,-0.70016c0.74788,0.04829 0.69098,0.79673 0.69098,0.79673c-0.35125,4.61916 -1.11639,8.88887 1.6916,12.90099c0.71105,1.01596 1.6524,1.85693 2.37343,2.84223c0.22698,0.31018 1.23931,2.65397 1.30353,2.34477c-0.06686,-1.39364 0.41211,-2.91542 0.43802,-4.41045l0.04737,-0.08285l-0.02956,-0.00741l0.22546,-0.86208c0.07964,-0.33399 0.38121,-0.58332 0.73813,-0.58332c0.28012,0 0.5226,0.15357 0.64877,0.38111l0.74009,1.27995l-0.11467,0.06717c1.15698,1.61062 2.08501,3.34043 3.10301,5.10102c0.52594,0.90957 1.07623,2.72121 2.31317,2.60171h0.21932c0,0 0.75,0 0.74136,0.75z" fill="#9966ff" stroke-width="0.5"/></g></g></svg>