<svg version="1.1" xmlns="http://www.w3.org/2000/svg" xmlns:xlink="http://www.w3.org/1999/xlink" width="88.71597" height="105.1011" viewBox="0,0,88.71597,105.1011"><defs><radialGradient cx="265.94045" cy="175.99021" r="7.3567" gradientUnits="userSpaceOnUse" id="color-1"><stop offset="0" stop-color="#54606d"/><stop offset="1" stop-color="#2c3136"/></radialGradient></defs><g transform="translate(-182.30826,-135.13373)"><g data-paper-data="{&quot;isPaintingLayer&quot;:true}" fill-rule="nonzero" stroke-linejoin="miter" stroke-miterlimit="10" stroke-dasharray="" stroke-dashoffset="0" style="mix-blend-mode: normal"><g stroke="none" stroke-width="0.5" stroke-linecap="butt"><path d="M187.68026,199.14568c0.6949,7.14709 6.85454,12.55502 13.34962,7.48867c2.04682,-2.24064 -0.1658,-4.87345 -2.29539,-6.41855c-0.70378,-0.51061 -1.1197,0.46447 -1.87448,0.70753c-2.2208,0.71513 -3.87443,-0.89198 -4.43585,-2.83426c-1.4944,-0.24349 -3.04129,-0.83745 -4.32277,-1.66912c0.11239,1.0407 -0.0233,1.75137 -0.42111,2.72573zM199.49165,198.92093c3.351,1.63325 5.09796,6.03628 2.55811,8.81333c-7.57266,5.96792 -15.30821,-0.26761 -15.85396,-8.80398c0.32413,-0.89293 0.54591,-1.42612 0.41275,-2.36411l0.34726,-1.00779c0,0 0.00146,-0.0031 0.0044,-0.00876c-0.64542,-0.58211 -1.15923,-1.23641 -1.47325,-1.93873c-1.12044,-2.50589 2.39315,-6.20545 4.85287,-7.51688c1.53161,-1.3906 4.39139,-1.48964 5.49987,0.72978c0.7567,1.51507 -0.47345,3.20198 -0.65214,4.73823c-0.27751,2.38584 0.52987,3.72271 1.70248,5.8036c-0.76345,0.57092 -1.79557,0.83341 -2.93275,0.84551c0.85507,2.64368 3.69043,-0.1889 5.53433,0.70979zM189.39228,188.87243c-0.13692,0.17234 -0.27804,0.3534 -0.43101,0.5424c-0.57225,0.70709 -1.86573,1.47114 -2.28956,2.26446c-0.4654,0.87111 0.69761,1.89608 1.20518,2.35931c1.56497,1.42824 3.23547,2.0203 5.0725,2.47525c0.22267,-0.0213 0.38477,0.03413 0.50245,0.12057c0.63453,0.14809 1.28891,0.28764 1.96556,0.44608c-2.1133,-1.30419 -2.08089,-4.5856 -1.48108,-6.7271c0.17529,-0.62585 0.92011,-2.25319 0.56935,-2.84381c-0.48045,-0.80898 -1.56316,-1.01208 -2.43951,-0.77239c-0.08919,0.15602 -0.20797,0.24917 -0.20797,0.24917l-0.32593,0.20672c-0.19378,0.06667 -0.36921,0.14106 -0.53019,0.22279c-0.23449,0.32632 -0.3116,0.74509 -0.1264,1.23514c0,0 0.21057,0.71983 -0.50927,0.9304c-0.71983,0.21057 -0.9304,-0.50927 -0.9304,-0.50927c-0.01674,-0.06717 -0.03129,-0.13374 -0.04371,-0.19971z" fill="#000000"/><path d="M189.469,189.10969c0,0 0.14822,0.64179 0.86805,0.43123c0.71983,-0.21057 0.51876,-0.9358 0.51876,-0.9358c-0.18521,-0.49005 -0.10294,-0.91071 0.13156,-1.23704c0.16098,-0.08172 0.34134,-0.15736 0.53513,-0.22404l0.32901,-0.20723c0,0 0.12077,-0.09338 0.20996,-0.2494c0.87635,-0.23968 1.98075,-0.03382 2.4612,0.77516c0.35077,0.59062 -0.38674,2.22128 -0.56203,2.84713c-0.5998,2.1415 -0.62965,5.50878 1.48365,6.81296c-0.67664,-0.15843 -1.34764,-0.29123 -1.98217,-0.43931c-0.11767,-0.08644 -0.28584,-0.14098 -0.50851,-0.11968c-1.83703,-0.45495 -3.55987,-1.08332 -5.12483,-2.51155c-0.50757,-0.46323 -1.67172,-1.51019 -1.20632,-2.3813c0.42384,-0.79331 1.72936,-1.58229 2.30161,-2.28937c0.15296,-0.189 0.29905,-0.37487 0.43596,-0.54721c0.01242,0.06597 0.09224,0.2083 0.10899,0.27546z" data-paper-data="{&quot;noHover&quot;:false,&quot;origItem&quot;:[&quot;Path&quot;,{&quot;applyMatrix&quot;:true,&quot;selected&quot;:true,&quot;segments&quot;:[[[235.10618,192.13453],[0.05114,0.04349],[0.0019,0.2201],7],[[235.11209,192.82729],[0.0001,-0.24314],[-0.00037,0.90964],7],[[234.75562,196.02773],[-0.16925,-0.88337],[0.18585,0.96999],7],[[237.17624,197.10449],[-0.68595,-0.04105],[2.11494,0.12655],7],[[242.67691,195.83971],[-1.71451,0.80133],[0.15975,-0.15657],7],[[243.14342,195.61752],[-0.14585,0.00678],[0.58651,-0.28383],7],[[244.95229,194.72849],[-0.62576,0.30226],[-2.46331,0.31469],7],[[239.57075,190.42889],[0.88014,2.04233],[-0.25722,-0.59687],7],[[238.22533,187.85961],[0.64412,0.2387],[-0.88226,-0.32695],7],[[235.84273,188.79292],[0.53073,-0.7374],[0.02875,0.1774],7],[[235.8377,189.11744],[0,0],[0,0],7],[[235.71424,189.48313],[0,0],[-0.10876,0.17369],7],[[235.44206,189.98973],[0.07379,-0.16477],[0.02285,0.40118],7],[[236.1204,191.02963],[-0.45215,-0.2646],[0,0],7],[[236.30942,192.07331],[0.42733,-0.61635],[-0.42733,0.61635],7],[[235.26574,192.26234],[0,0],[-0.05525,-0.0417],7]],&quot;closed&quot;:true}]}" fill="#0032ff"/><path d="M188.06499,196.38564c1.28148,0.83167 2.84603,1.41356 4.34044,1.65705c0.56142,1.94228 2.28071,3.57853 4.5015,2.86339c0.75478,-0.24305 1.17064,-1.21831 1.87442,-0.70769c2.12959,1.54509 4.33703,4.22292 2.29021,6.46355c-6.49506,5.06635 -12.74202,-0.38964 -13.43693,-7.53673c0.39782,-0.97437 0.54276,-1.69887 0.43036,-2.73958z" data-paper-data="{&quot;noHover&quot;:false,&quot;origItem&quot;:[&quot;Path&quot;,{&quot;applyMatrix&quot;:true,&quot;selected&quot;:true,&quot;segments&quot;:[[[240.23457,201.19932],[-0.30333,-1.00779],[5.0343,5.12051],7],[[255.32372,198.62839],[-1.86482,8.02348],[0.1827,-3.02928],7],[[249.503,195.08075],[2.62746,-0.13761],[-0.86831,0.04548],7],[[248.49032,196.80954],[0.43408,-0.66358],[-1.27719,1.95247],7],[[243.25895,197.39485],[1.65782,1.15727],[-1.31512,0.75032],7],[[238.84813,198.81506],[1.51939,-0.15908],[0.74177,0.73856],7]],&quot;closed&quot;:true}]}" fill="#fff1e2"/></g><g stroke="#001026" stroke-width="1.2"><path d="M251.72652,199.69088l4.6696,-21.68653l12.37566,4.64059l-10.01101,18.88463c0,0 -2.4662,0.92023 -3.60209,0.62331c-1.20481,-0.31493 -3.43217,-2.462 -3.43217,-2.462z" fill="#505a63" stroke-linecap="butt"/><path d="M256.17719,176.4574c1.42653,-3.80433 5.66699,-5.73191 9.47131,-4.30538c3.80433,1.42653 5.73191,5.667 4.30538,9.47131c-1.42653,3.80433 -5.667,5.73192 -9.47132,4.30538c-3.80433,-1.42653 -5.7319,-5.667 -4.30537,-9.47133z" fill="url(#color-1)" stroke-linecap="butt"/><path d="M257.92304,183.83218c0,0 0.74516,-4.57204 1.4799,-6.60132c0.6867,-1.89657 2.79416,-5.20315 2.79416,-5.20315" fill="none" stroke-linecap="round"/><path d="M264.3846,186.10275c0,0 0.81054,-5.70004 1.39485,-7.85391c0.43174,-1.59141 1.79395,-3.90044 1.79395,-3.90044" fill="none" stroke-linecap="round"/><path d="M255.96942,176.8531c0,0 4.95472,-0.82937 7.46017,-0.4816c2.17971,0.30255 6.73184,2.4515 6.73184,2.4515" fill="none" stroke-linecap="round"/><path d="M256.03632,182.36291c0,0 5.50452,-0.56365 7.96252,-0.47267c1.91074,0.07073 5.56161,0.9733 5.56161,0.9733" fill="none" stroke-linecap="round"/></g><g stroke="none" stroke-width="0.5" stroke-linecap="butt"><path d="M206.20094,205.01838c0.43542,-0.29897 0.77475,-0.08076 0.93738,0.07447c0.41079,-0.27301 0.75985,-0.72654 0.98641,-1.37347c0.43393,-1.23907 -0.96575,-2.19347 -1.82669,-2.72481c0.25947,1.57667 -0.37608,3.26614 -1.55799,3.94188c0.36612,0.26544 0.76311,0.42181 1.15607,0.4617c0.04247,-0.12995 0.13372,-0.26227 0.30481,-0.37975zM204.96579,210.70235l-0.01366,0.02175c0,0 -0.23093,0.15857 -0.50744,0.14075c-2.27667,1.39584 -4.92434,-0.67889 -4.76995,-3.57199c-3.36887,-0.77933 -6.04629,-7.04819 -1.85232,-8.60323c0.81088,-0.30066 1.56169,-0.17923 2.20571,0.19901c0.88104,-1.54165 3.27198,-1.75128 5.10071,-0.0942c0.05061,0.04586 0.09953,0.09281 0.1468,0.14078c0.5507,0.11312 1.09196,0.36565 1.57209,0.6376c1.52153,0.86182 3.33963,2.51011 2.71304,4.57982c-0.32934,1.08785 -0.95183,1.83614 -1.70836,2.26507c0.64829,1.97401 -0.77814,3.29397 -2.88664,4.28463zM203.73391,199.80158c-0.02334,-0.1038 -0.02865,-0.19619 -0.02057,-0.27831c-0.95532,-0.69807 -2.28854,-0.58567 -2.49986,0.48884c0.67426,0.94315 1.06144,2.17481 1.02384,3.20831c0.4072,-0.03613 0.66558,0.34018 0.66558,0.34018l-0.11875,-0.07818c1.90267,1.54392 2.21451,-1.9217 1.67379,-3.06047c-0.00598,-0.01259 -0.01205,-0.0251 -0.01822,-0.03752c-0.22867,-0.00419 -0.59526,-0.09123 -0.70581,-0.58285zM205.14758,206.71955c0.01826,0.15769 0.02918,0.32094 0.03216,0.48957l-0.95236,0.9748c0,0 -0.55202,0.50771 -1.05974,-0.04432c-0.50771,-0.55202 0.04432,-1.05974 0.04432,-1.05974l0.57642,-0.43124c-0.06756,-0.31626 -0.15831,-0.57738 -0.2656,-0.78701c-0.13558,-0.11369 -0.26637,-0.23691 -0.39141,-0.36949l-0.02585,-0.1489c-0.6381,-0.45876 -1.47474,0.12299 -1.82706,1.37142c-0.00674,0.08724 -0.02704,0.16293 -0.05653,0.22857c-0.47287,2.26191 1.74547,4.20706 3.27999,1.80106c0,0 0.41639,-0.62379 1.04018,-0.20741c0.04774,0.03186 0.08938,0.06494 0.12559,0.09886c0.67297,-0.45339 1.04484,-0.99011 0.76655,-1.79019c-0.42505,0.03262 -0.86038,-0.0102 -1.28666,-0.126zM199.85593,201.4456c-0.09633,-0.34071 -0.15046,-0.66162 -0.16732,-0.96145c-0.40514,-0.40135 -0.88671,-0.59916 -1.37801,-0.37617c-2.42273,1.09966 -0.39207,5.53307 1.64837,5.78456c0.11791,-0.33719 0.26084,-0.63174 0.42295,-0.8854c-0.08959,-0.05223 -0.17777,-0.13229 -0.25888,-0.25041c-0.42454,-0.61828 0.19374,-1.04282 0.19374,-1.04282l0.34777,-0.10914c0.18033,-0.36227 0.1259,-0.9841 -0.08463,-1.60945c-0.55673,0.03213 -0.72401,-0.54972 -0.72401,-0.54972z" fill="#000000"/><path d="M205.88933,205.44767c-0.39296,-0.03989 -0.81745,-0.2094 -1.18357,-0.47484c1.18192,-0.67574 1.85444,-2.45153 1.59497,-4.02819c0.86094,0.53134 2.30736,1.54318 1.87343,2.78225c-0.22656,0.64693 -0.59994,1.13618 -1.01072,1.40919c-0.16263,-0.15523 -0.52604,-0.36669 -0.96146,-0.06771c-0.1711,0.11748 -0.2702,0.24936 -0.31266,0.37931z" data-paper-data="{&quot;noHover&quot;:false,&quot;origItem&quot;:[&quot;Path&quot;,{&quot;applyMatrix&quot;:true,&quot;selected&quot;:true,&quot;segments&quot;:[[[254.46427,197.47825],[0,-0.20755],[0,0.52818],7],[[253.87228,198.20884],[0.22002,-0.0462],[-0.00746,0.49318],7],[[254.44617,199.79946],[-0.40507,-0.55296],[0.77583,1.05909],7],[[257.72642,199.83596],[-0.92535,0.40897],[-1.44663,-0.67857],7],[[255.35874,196.32031],[-0.11196,1.35684],[-0.42606,0.15157],7],[[254.32375,197.012],[0.25532,-0.30137],[0.08309,0.10857],7]],&quot;closed&quot;:true}]}" fill="#fff1e2"/><path d="M200.62126,201.96714c0.21053,0.62535 0.26928,1.29579 0.08895,1.65806l-0.35211,0.1169c0,0 -0.63667,0.44079 -0.21213,1.05907c0.08111,0.11812 0.17141,0.19703 0.261,0.24924c-0.1621,0.25367 -0.31743,0.55331 -0.43534,0.8905c-2.04044,-0.25149 -4.09854,-4.78104 -1.6758,-5.8807c0.49129,-0.22299 0.99761,-0.02643 1.40275,0.37493c0.01686,0.29982 0.08137,0.62405 0.1777,0.96478c0,0 0.18825,0.59935 0.74498,0.56722z" data-paper-data="{&quot;noHover&quot;:false,&quot;origItem&quot;:[&quot;Path&quot;,{&quot;applyMatrix&quot;:true,&quot;selected&quot;:true,&quot;segments&quot;:[[[261.00115,194.26996],[0,0],[0.3354,0.11345],7],[[261.88845,194.67626],[-0.25671,-0.15581],[0.56019,-0.1068],7],[[262.97857,193.75319],[-0.09427,0.53123],[0.46485,-2.61969],7],[[257.27688,191.83774],[1.36231,-1.53973],[0.21123,0.28807],7],[[257.76737,192.68758],[-0.11736,-0.27722],[0.09377,-0.04429],7],[[258.12034,192.61592],[-0.14329,0],[0.75,0],7],[[258.87034,193.36592],[0,0],[0,0],7],[[258.76346,193.71439],[0,0],[0.19657,0.35372],7],[[260.13815,194.55566],[-0.63469,-0.18042],[0.28865,-0.47714],7]],&quot;closed&quot;:true}]}" fill="#fff1e2"/><path d="M204.48021,200.3551c0.00616,0.01242 0.01294,0.02591 0.01891,0.0385c0.54071,1.13877 0.18131,4.68232 -1.72137,3.13841l0.12168,0.07848c0,0 -0.27528,-0.38052 -0.68247,-0.3444c0.0376,-1.03349 -0.36926,-2.34077 -1.04352,-3.28391c0.21132,-1.07451 1.60125,-1.20412 2.55657,-0.50604c-0.00808,0.08213 0.00025,0.17569 0.02359,0.27949c0.11055,0.49163 0.49794,0.59529 0.72662,0.59948z" data-paper-data="{&quot;noHover&quot;:false,&quot;origItem&quot;:[&quot;Path&quot;,{&quot;applyMatrix&quot;:true,&quot;selected&quot;:true,&quot;segments&quot;:[[[260.16131,198.39745],[-0.46786,-0.18715],[0.09878,0.03951],7],[[260.40238,198.53803],[-0.06313,-0.05315],[1.11623,-0.3924],7],[[261.41444,196.20051],[0.76618,0.78243],[-1.15917,0.02198],7],[[258.19006,195.22848],[0.8307,0.616],[-0.20071,0.35613],7],[[257.53286,195.58461],[0,0],[0,0],7],[[257.66454,195.53096],[0,0],[-2.34977,0.69458],7],[[259.24006,198.64316],[-1.24484,-0.19885],[0.01376,0.0022],7],[[259.2813,198.64938],[-0.01373,-0.00195],[0.13289,-0.18614],7]],&quot;closed&quot;:true}]}" fill="#fff1e2"/><path d="M206.48377,206.83865c0.27829,0.80008 -0.10115,1.37089 -0.77412,1.82428c-0.03621,-0.03392 -0.07769,-0.06726 -0.12543,-0.09912c-0.62379,-0.41639 -1.05504,0.22238 -1.05504,0.22238c-1.53452,2.40601 -3.82969,0.41236 -3.35682,-1.84956c0.02948,-0.06564 0.05071,-0.14631 0.05744,-0.23354c0.35232,-1.24843 1.22675,-1.86742 1.86485,-1.40866l0.02566,0.14894c0.12504,0.13259 0.26664,0.25456 0.40222,0.36826c0.10728,0.20962 0.21804,0.47482 0.28561,0.79108l-0.55212,0.50077c0,0 -0.57726,0.43778 -0.06956,0.98981c0.50771,0.55202 1.01096,0.05058 1.01096,0.05058l0.9323,-0.9335c-0.00298,-0.16863 0.0836,-0.34869 0.06534,-0.50638c0.42629,0.11579 0.86363,0.16729 1.28868,0.13467z" data-paper-data="{&quot;noHover&quot;:false,&quot;origItem&quot;:[&quot;Path&quot;,{&quot;applyMatrix&quot;:true,&quot;selected&quot;:true,&quot;segments&quot;:[[[253.65812,195.64694],[-0.33675,0.28588],[-0.14033,-0.07421],7],[[253.23633,195.39634],[0.1407,0.093],[0,0],7],[[252.97181,194.05946],[0,0],[0,0],7],[[253.60821,193.21093],[-0.74246,0.10607],[0.74246,-0.10607],7],[[254.45673,193.84733],[0,0],[0,0],7],[[254.48595,194.56662],[0,0],[0.29896,0.12332],7],[[255.28508,194.79314],[-0.23353,-0.03021],[0.17047,-0.04741],7],[[255.81124,194.67962],[-0.18008,0.02803],[0,0],7],[[255.94862,194.74259],[0,0],[0.73938,-0.26635],7],[[255.85226,192.46012],[0.82974,0.99711],[-0.0681,-0.05494],7],[[255.69583,192.28414],[0.03742,0.06146],[-1.59699,-1.67017],7],[[252.35447,193.96859],[-1.11484,-2.62693],[0,0],7],[[251.93665,194.94349],[0.69636,-0.27854],[-0.05329,0.02132],7],[[251.78406,194.99106],[0.04846,-0.01065],[-0.00717,0.81142],7],[[252.82594,196.63632],[-0.81709,-0.22347],[0.21371,-0.36886],7]],&quot;closed&quot;:true}]}" fill="#fff1e2"/></g><g stroke="none" stroke-width="0.5" stroke-linecap="butt"><path d="M225.91135,232.06939c-1.18188,1.31737 -3.16638,1.59422 -4.36664,2.69707c-1.76486,1.62163 -0.70296,3.97813 1.30643,3.96629c0.89884,-0.0053 1.79786,0 2.69672,0c3.76552,0 5.03951,-1.04182 6.36942,-4.80824c0.28503,-0.80722 0.90967,-1.9133 0.89735,-2.81329c-0.01455,-1.06246 -0.28371,-2.10571 -0.37473,-3.17369c-0.37083,0.13713 -0.7239,0.24991 -0.99913,0.35584c-1.20789,0.46487 -2.92699,1.2941 -4.47711,1.27777c-0.29069,0.82963 -0.46874,1.84779 -1.0523,2.49826zM233.78722,227.29263c-0.00313,1.28756 0.41648,2.54844 0.40451,3.81859c-0.05299,5.62175 -3.91795,9.12153 -8.64387,9.12153c-0.89887,0 -1.79787,0.00467 -2.69672,0c-3.30113,-0.01716 -4.80255,-4.0816 -2.1993,-6.60827c1.97958,-1.92135 3.79185,-1.65912 4.92889,-4.35327c-0.33367,-0.16051 -0.64497,-0.39275 -0.92425,-0.7139c-1.05976,-1.21862 -0.30071,-5.5106 -0.06449,-7.05442c0.00533,-3.55598 -0.69745,-7.18026 -1.33806,-10.66339c-0.18228,-0.99107 -1.0225,-3.53618 -0.44915,-4.50281c0.91143,-1.53661 4.87933,-1.82327 6.4053,-2.10792c3.70729,-0.67302 7.26721,-1.61629 10.81717,-2.90909l0.40451,-0.14687c0,0 0.65322,-0.23717 0.87096,0.47434c0.12877,0.42079 -0.04708,0.67568 -0.21229,0.81372c0.24762,0.21912 0.24762,0.5984 0.24762,0.5984c-0.00493,4.0294 0.51166,8.13657 0.91886,12.13043c0.11864,1.16366 0.70973,4.07172 0.2519,5.16657c-0.02322,0.05554 -0.04718,0.1095 -0.07186,0.16194c1.37064,-0.13239 2.78419,-0.57715 4.00173,-0.86192c0.68707,-0.1607 2.22126,-0.86391 2.91562,-0.56819c2.48629,1.05889 0.67655,6.94613 -0.54506,8.26971c-3.29245,0.95594 -6.70702,1.68375 -10.06907,2.29018c-1.02356,0.18462 -2.90124,0.46682 -3.7154,-0.51901c-0.44966,-0.54447 -0.6185,-1.42022 -0.69073,-2.35712c-0.14608,0.19332 -0.33419,0.36155 -0.54705,0.50971c0.00026,0.00719 0.00026,0.01106 0.00026,0.01106zM236.02669,228.09992c0.49097,0.66328 2.6765,0.06567 3.26906,-0.07289c2.93941,-0.68734 5.90008,-1.24634 8.83497,-1.97453c0.84482,-0.93377 0.86422,-2.51543 0.86422,-3.75342c0,-0.59459 0.48486,-1.79364 -0.06092,-1.78255c-2.72939,0.05548 -5.21571,1.69807 -7.9381,1.48928c-0.54218,0.27325 -1.15702,0.42246 -1.79513,0.57963c-0.80614,0.25102 -2.23599,0.85042 -3.63183,1.14411c0.08127,1.27356 -0.11308,3.59923 0.45773,4.37037zM239.05241,220.7401c0.21774,-0.71151 0.87096,-0.47434 0.87096,-0.47434c0.25774,0.09733 0.52423,0.16716 0.79723,0.21396c0.20414,-0.16016 0.37651,-0.36777 0.49663,-0.64387c0.35166,-0.8083 -0.23579,-3.56718 -0.32839,-4.47452c-0.41369,-4.05329 -0.92325,-8.21294 -0.9279,-12.30206c0,0 0,-0.05833 0.01493,-0.14245c-3.45961,1.22266 -6.92982,2.13625 -10.5394,2.79154c-1.04663,0.18375 -4.82361,0.48241 -5.46026,1.41693c-0.21079,0.30941 0.57518,3.13159 0.62954,3.42811c0.66473,3.62614 1.35419,7.36966 1.35865,11.07321c-0.11732,0.76676 -0.86335,5.38164 -0.33416,5.87004c0.27713,0.25577 0.58323,0.41606 0.9073,0.50384c0.10651,-0.01659 0.22789,-0.0019 0.36139,0.06823c1.37974,0.15578 2.99514,-0.77188 4.08226,-1.18934c0.38616,-0.14829 2.01385,-0.53662 2.30592,-1.08658c0.13114,-0.24695 -0.14536,-1.29958 -0.36355,-2.11568c-0.30413,-0.13289 -0.56528,-0.33226 -0.76648,-0.61499c-0.81704,-1.14814 -0.42112,-3.51776 -0.42112,-4.87536c0,-1.30313 0.02523,-2.5804 0.08256,-3.84601c-0.04227,-0.73616 -0.1045,-1.47235 -0.2093,-2.20779c-0.11922,-0.83662 -1.03383,-4.2517 -0.78108,-4.90706c0.3127,-0.81081 1.33723,-1.1949 2.19479,-1.13363c0.23308,-0.12576 0.46616,-0.25152 0.69924,-0.37728l0.07764,0.0171l-0.0053,-0.03463l0.79622,-0.14455c0.04085,-0.00823 0.08296,-0.01253 0.12599,-0.01253c0.38028,0 0.68855,0.33579 0.68855,0.75c0,0.3154 -0.17874,0.58533 -0.4319,0.69617l-0.92927,0.4338l-0.00721,-0.01833c-0.02322,0.0166 -0.04669,0.03285 -0.07042,0.04871c-0.05452,0.03645 -0.11778,0.06085 -0.18734,0.07604c-0.01131,2.65563 -0.38063,5.30213 -0.56435,7.97776c0.06569,2.32655 0.12348,4.62549 0.82183,6.9075c0.00186,0.01198 0.0038,0.02411 0.00583,0.03638c1.43877,0.02642 4.19745,-1.12336 4.81969,-1.3169c0.04919,-0.01168 0.09932,-0.02305 0.1502,-0.03433c-0.01128,-0.10286 -0.00144,-0.22134 0.0401,-0.35708zM232.28893,208.88354c0.06342,-0.48651 0.13308,-0.97433 0.20939,-1.46429c-0.22343,-0.00514 -0.37432,0.0557 -0.36515,0.28552c0.01439,0.36041 0.07329,0.75834 0.15576,1.17877z" fill="#000000"/><path d="M235.52328,223.72465c1.39584,-0.2937 2.83101,-0.91199 3.63715,-1.16301c0.6381,-0.15717 1.26929,-0.32517 1.81146,-0.59842c2.72239,0.20879 5.27291,-1.41538 8.0023,-1.47086c0.54578,-0.01109 0.06471,1.19777 0.06471,1.79236c0,1.23798 -0.01887,2.84633 -0.86369,3.7801c-2.93489,0.72819 -5.97153,1.31126 -8.91094,1.9986c-0.59256,0.13856 -2.78724,0.72306 -3.27821,0.05977c-0.57081,-0.77114 -0.38151,-3.12499 -0.46278,-4.39854z" data-paper-data="{&quot;noHover&quot;:false,&quot;origItem&quot;:[&quot;Path&quot;,{&quot;applyMatrix&quot;:true,&quot;segments&quot;:[[[236.02669,228.09992],[-0.57081,-0.77114],[0.49097,0.66328]],[[239.29575,228.02703],[-0.59256,0.13856],[2.93941,-0.68734]],[[248.13072,226.0525],[-2.93489,0.72819],[0.84482,-0.93377]],[[248.99494,222.29909],[0,1.23798],[0,-0.59459]],[[248.93402,220.51654],[0.54578,-0.01109],[-2.72939,0.05548]],[[240.99592,222.00581],[2.72239,0.20879],[-0.54218,0.27325]],[[239.20079,222.58544],[0.6381,-0.15717],[-0.80614,0.25102]],[[235.56896,223.72955],[1.39584,-0.2937],[0.08127,1.27356]]],&quot;closed&quot;:true}]}" fill="#424347"/><path d="M226.96672,229.52124c1.55012,0.01633 3.29888,-0.79806 4.50678,-1.26293c0.27523,-0.10593 0.63023,-0.21644 1.00106,-0.35357c0.09102,1.06798 0.36904,2.1281 0.38359,3.19056c0.01233,0.89998 -0.61018,2.02717 -0.89521,2.83439c-1.32991,3.76642 -2.66023,4.85168 -6.42575,4.85168c-0.89885,0 -1.81551,-0.01457 -2.71435,-0.00927c-2.00939,0.01185 -3.08748,-2.37174 -1.32262,-3.99337c1.20026,-1.10285 3.20277,-1.43282 4.38465,-2.75018c0.58357,-0.65047 0.79117,-1.67768 1.08186,-2.50731z" data-paper-data="{&quot;noHover&quot;:false,&quot;origItem&quot;:[&quot;Path&quot;,{&quot;applyMatrix&quot;:true,&quot;segments&quot;:[[[225.91135,232.06939],[0.58357,-0.65047],[-1.18188,1.31737]],[[221.54471,234.76646],[1.20026,-1.10285],[-1.76486,1.62163]],[[222.85114,238.73274],[-2.00939,0.01185],[0.89884,-0.0053]],[[225.54786,238.73274],[-0.89885,0],[3.76552,0]],[[231.91728,233.92451],[-1.32991,3.76642],[0.28503,-0.80722]],[[232.81463,231.11122],[0.01233,0.89998],[-0.01455,-1.06246]],[[232.43989,227.93753],[0.09102,1.06798],[-0.37083,0.13713]],[[231.44076,228.29337],[0.27523,-0.10593],[-1.20789,0.46487]],[[226.96365,229.57113],[1.55012,0.01633],[-0.29069,0.82963]]],&quot;closed&quot;:true}]}" fill="#424347"/><path d="M239.04806,221.12854c-0.05087,0.01128 -0.10143,0.02323 -0.15062,0.0349c-0.62224,0.19355 -3.40635,1.36022 -4.84512,1.33379c-0.00202,-0.01228 -0.02377,-0.12205 -0.02563,-0.13403c-0.69835,-2.28201 -0.79213,-4.53238 -0.85782,-6.85892c0.18372,-2.67564 0.59185,-5.27249 0.60316,-7.92812c0.06956,-0.01519 0.14805,-0.13819 0.20257,-0.17465c0.02373,-0.01586 0.04756,-0.03204 0.07078,-0.04864l0.00727,0.01834l0.93386,-0.43258c0.25317,-0.11084 0.40445,-0.28535 0.40445,-0.60075c0,-0.41421 -0.30417,-0.74876 -0.68445,-0.74876c-0.04303,0 -0.08457,0.00444 -0.12542,0.01267l-0.79247,0.14524l0.00525,0.03462l-0.07724,-0.01704c-0.23308,0.12576 -0.46271,0.25183 -0.69579,0.37759c-0.85756,-0.06127 -1.86941,0.32151 -2.18211,1.13232c-0.25275,0.65536 0.66569,4.06926 0.78491,4.90588c0.1048,0.73544 0.1805,1.46387 0.22276,2.20003c-0.05733,1.26561 -0.09475,2.4562 -0.09475,3.75933c0,1.3576 -0.40848,3.72432 0.40856,4.87246c0.2012,0.28273 0.45743,0.48202 0.76156,0.61491c0.21819,0.81609 0.49963,1.96858 0.36848,2.21552c-0.29207,0.54996 -1.9301,0.9378 -2.31626,1.08608c-1.08712,0.41746 -2.71578,1.34051 -4.09552,1.18473c-0.13349,-0.07013 -0.25598,-0.08544 -0.36249,-0.06885c-0.32407,-0.08777 -0.63327,-0.25003 -0.91039,-0.5058c-0.52918,-0.4884 0.20638,-5.11324 0.3237,-5.88c-0.00446,-3.70355 -0.69878,-7.50392 -1.36351,-11.13006c-0.05436,-0.29652 -0.83469,-3.12728 -0.62391,-3.43669c0.63665,-0.93452 4.43257,-1.24709 5.4792,-1.43083c3.60958,-0.65528 7.1198,-1.56397 10.5794,-2.78663c-0.01493,0.08412 -0.01477,0.14256 -0.01477,0.14256c0.00465,4.08912 0.53533,8.29008 0.94902,12.34337c0.0926,0.90733 0.6758,3.68803 0.32414,4.49633c-0.12012,0.27609 -0.29417,0.48728 -0.49831,0.64744c-0.27299,-0.0468 -0.54009,-0.1155 -0.79783,-0.21283c0,0 -0.65584,-0.23291 -0.87358,0.4786c-0.04154,0.13574 -0.05237,0.2556 -0.04109,0.35847z" data-paper-data="{&quot;noHover&quot;:false,&quot;origItem&quot;:[&quot;Path&quot;,{&quot;applyMatrix&quot;:true,&quot;segments&quot;:[[[239.05241,220.7401],[-0.04154,0.13574],[0.21774,-0.71151]],[[239.92337,220.26575],[0,0],[0.25774,0.09733]],[[240.7206,220.47971],[-0.27299,-0.0468],[0.20414,-0.16016]],[[241.21722,219.83584],[-0.12012,0.27609],[0.35166,-0.8083]],[[240.88883,215.36133],[0.0926,0.90733],[-0.41369,-4.05329]],[[239.96093,203.05926],[0.00465,4.08912],[0,0]],[[239.97586,202.91682],[-0.01493,0.08412],[-3.45961,1.22266]],[[229.43646,205.70835],[3.60958,-0.65528],[-1.04663,0.18375]],[[223.9762,207.12528],[0.63665,-0.93452],[-0.21079,0.30941]],[[224.60574,210.5534],[-0.05436,-0.29652],[0.66473,3.62614]],[[225.96439,221.6266],[-0.00446,-3.70355],[-0.11732,0.76676]],[[225.63023,227.49664],[-0.52918,-0.4884],[0.27713,0.25577]],[[226.53753,228.00048],[-0.32407,-0.08777],[0.10651,-0.01659]],[[226.89891,228.06871],[-0.13349,-0.07013],[1.37974,0.15578]],[[230.98118,226.87936],[-1.08712,0.41746],[0.38616,-0.14829]],[[233.28709,225.79278],[-0.29207,0.54996],[0.13114,-0.24695]],[[232.92354,223.67711],[0.21819,0.81609],[-0.30413,-0.13289]],[[232.15706,223.06212],[0.2012,0.28273],[-0.81704,-1.14814]],[[231.73594,218.18676],[0,1.3576],[0,-1.30313]],[[231.8185,214.34075],[-0.05733,1.26561],[-0.04227,-0.73616]],[[231.6092,212.13296],[0.1048,0.73544],[-0.11922,-0.83662]],[[230.82812,207.22589],[-0.25275,0.65536],[0.3127,-0.81081]],[[233.02291,206.09227],[-0.85756,-0.06127],[0.23308,-0.12576]],[[233.72215,205.71499],[-0.23308,0.12576],[0,0]],[233.79979,205.73208],[233.79449,205.69745],[[234.59071,205.55291],[0,0],[0.04085,-0.00823]],[[234.7167,205.54038],[-0.04303,0],[0.38028,0]],[[235.40525,206.29038],[0,-0.41421],[0,0.3154]],[[234.97335,206.98655],[0.25317,-0.11084],[0,0]],[234.04408,207.42034],[[234.03687,207.40201],[0,0],[-0.02322,0.0166]],[[233.96646,207.45073],[0.02373,-0.01586],[-0.05452,0.03645]],[[233.77912,207.52677],[0.06956,-0.01519],[-0.01131,2.65563]],[[233.21477,215.50453],[0.18372,-2.67564],[0.06569,2.32655]],[[234.03659,222.41203],[-0.69835,-2.28201],[0.00186,0.01198]],[[234.04242,222.44842],[-0.00202,-0.01228],[1.43877,0.02642]],[[238.86211,221.13151],[-0.62224,0.19355],[0.04919,-0.01168]],[[239.01231,221.09718],[-0.05087,0.01128],[-0.01128,-0.10286]]],&quot;closed&quot;:true}]}" fill="#3b3d48"/></g><g stroke="none" stroke-width="0.5" stroke-linecap="butt"><path d="M209.13621,185.40906c3.09439,-1.41465 7.10811,-1.66294 10.45526,-1.82923l0.18445,0.04422c0.15071,-0.57022 0.14838,-1.08274 0.17586,-1.91306c0,0 0.00508,-0.15158 0.07884,-0.31612c-0.03071,-0.0779 -0.05095,-0.16974 -0.05634,-0.27799c-0.03721,-0.74908 0.71186,-0.78629 0.71186,-0.78629c0.65969,-0.0325 2.39375,-0.44976 2.92966,-0.07105c1.10279,0.7793 1.1134,2.09429 0.61374,3.20501c0.06917,0.08744 0.10276,0.16065 0.10276,0.16065c0.8166,1.77986 1.6332,3.55974 2.44979,5.33959l0.05991,0.13059c0.11517,0.06829 0.18467,0.14261 0.18467,0.14261c0.99761,1.06834 2.24261,1.532 3.25593,2.53c1.32562,1.30559 1.83774,3.92206 2.30815,5.6555l-0.0929,0.65204c0,0 -0.02218,0.05978 -0.07104,0.13802c0.37304,1.03647 0.53395,2.04359 0.23036,3.31069c-1.72875,4.62227 -6.06753,6.61356 -10.26953,8.54143c-2.42747,1.11371 -4.55174,2.34649 -5.57995,-0.83598c-0.21405,-0.13251 -0.31585,-0.35439 -0.31585,-0.35439l-0.37362,-0.94299c-0.12581,-2.77613 -1.52596,-7.04917 -3.31491,-9.27079c-1.73582,-2.15564 -4.42653,-3.0988 -6.23588,-5.16969c-1.7562,0.2713 -3.33182,0.22397 -3.71019,-0.98777c-0.21936,-0.70251 0.70929,-2.28652 1.0635,-3.19009c-1.7142,-3.27273 1.68127,-3.66413 4.77717,-3.38049c0.0733,-0.35693 0.43829,-0.52439 0.43829,-0.52439zM230.60251,195.92057c0.01912,-0.00877 0.03795,-0.01676 0.0565,-0.02401c-0.31661,-1.17652 -0.74186,-2.39824 -1.45088,-3.08189c-0.90924,-0.87673 -2.02116,-1.37383 -2.96528,-2.24341c-0.39459,-0.04473 -0.57913,-0.44699 -0.57913,-0.44699c-0.73058,-1.59238 -1.65725,-3.61217 -2.42914,-5.29459c-0.34961,0.30726 -0.7385,0.52118 -1.12663,0.59088l-0.38023,0.01904c-0.00391,0.32758 -0.00076,0.65528 0.01258,0.98247c0.66185,0.27031 1.00522,0.83844 0.64773,1.76712c1.13249,1.74786 4.1098,2.87304 4.9185,4.73629c0.7209,1.66098 -1.31863,4.43192 -1.38048,6.30917c-0.01692,0.51336 0.25077,1.99266 -0.2907,2.22661c-0.88747,0.38346 -2.58746,-1.27884 -3.26783,-1.7527c-0.66465,-0.8207 -2.33869,-2.11761 -2.82917,-2.89499c-0.89158,-1.41314 0.05202,-4.09317 -0.07493,-5.76526c-0.08142,0.0365 -0.16582,0.07454 -0.25396,0.11528l-0.31619,-0.02089c0.01888,0.04017 0.03784,0.08104 0.05692,0.12262l0.18374,0.40047c0,0 0.31275,0.68168 -0.36893,0.99443c-0.68168,0.31275 -0.99443,-0.36893 -0.99443,-0.36893l-0.18374,-0.40047c-0.20524,-0.44734 -0.23921,-0.99446 -0.56336,-1.36481c-0.25277,-0.2888 -1.53,-0.02521 -1.8115,-0.01122c-1.31068,-0.07174 -0.13485,1.23968 -1.34604,2.12196c-0.79295,0.57762 -1.41932,-0.01209 -2.1627,-0.0687c-0.70587,-0.05376 -2.00138,0.27867 -3.39091,0.58502c1.75188,1.66357 4.09426,2.60451 5.64658,4.55205c2.00044,2.50974 3.49033,7.01927 3.65749,10.15273l0.219,0.35936c0.27889,0.14908 0.37443,0.47133 0.37443,0.47133c0.66029,2.30752 2.63551,0.43438 4.35327,-0.35372c3.49756,-1.60467 7.24485,-3.3951 8.66106,-7.25377c0.38922,-1.47331 -0.259,-2.57153 -0.86807,-3.89908l-0.12249,-0.26698c0,0 -0.31275,-0.68168 0.36893,-0.99443zM221.45095,181.76123c-0.03029,0.89298 -0.06207,1.53159 -0.23018,2.20187c0.00055,-0.00003 0.00082,-0.00005 0.00082,-0.00005l0.76795,-0.03783c0.86365,0.04823 1.2079,-2.24173 0.84798,-2.3834c-0.16862,-0.06637 -0.83569,0.06805 -1.38754,0.17471c0.0015,0.02818 0.00096,0.04468 0.00096,0.04468zM220.94422,190.77302c0.1105,1.01861 -0.74602,4.45281 -0.19238,5.15885c0.64205,0.81877 1.88416,1.72444 2.6359,2.6771c0.15641,0.10482 0.68059,0.3755 1.07812,0.69084c-0.01485,-0.5858 0.03058,-1.28647 0.08226,-1.67151c0.10747,-0.80069 1.74617,-3.42435 1.39506,-4.07729c-0.81967,-1.52429 -3.0845,-2.60578 -4.38756,-4.02028c-0.19234,0.23161 -0.4017,0.44974 -0.62646,0.64903c-0.02729,0.02421 -0.05432,0.04761 -0.08111,0.07026zM219.21608,189.36915c0.62745,-0.47039 1.50514,-1.1941 1.78519,-1.5466c-0.24059,-0.00475 -0.39939,-0.10458 -0.50376,-0.22582c-1.23504,0.11109 -3.17519,1.03171 -1.32757,1.74683c0,0 0.01776,0.00849 0.04615,0.0256zM212.00564,188.24122c0,0 -0.45625,-0.0153 -0.6449,-0.37797c-1.89366,-0.44745 -7.34828,-1.54334 -6.10728,0.78623c0.1284,0.10575 0.19088,0.23893 0.21873,0.36443c0.07705,0.15978 0.22,0.5718 -0.15434,0.89035c-0.27183,0.80043 -0.63065,1.47672 -0.99929,2.26118c-0.14973,0.31862 0.69849,-0.08957 1.04886,-0.12385c0.83722,-0.08193 1.54449,-0.26273 2.36323,-0.4824c1.19288,-0.32005 2.82488,-0.56703 4.07467,-0.48764c0.42572,0.02704 0.89421,0.55523 1.24204,0.30829c0.34401,-0.24423 -0.0964,-0.88373 0.08936,-1.26253c0.58577,-1.19448 0.94884,-0.99535 2.00086,-1.10065c0.68058,-0.03381 1.21502,-0.02671 1.65611,0.05895c-0.04742,-0.22595 -0.04735,-0.44172 -0.00733,-0.64609c-1.57953,0.04459 -3.21645,-0.13585 -4.78069,-0.18828z" fill="#000000"/><path d="M219.14352,189.386c-1.84762,-0.71513 0.15282,-1.71498 1.38787,-1.82606c0.10437,0.12125 0.27463,0.23678 0.51522,0.24152c-0.28005,0.35249 -1.22744,1.14096 -1.85488,1.61135c-0.02839,-0.01711 -0.0482,-0.0268 -0.0482,-0.0268z" data-paper-data="{&quot;noHover&quot;:false,&quot;origItem&quot;:[&quot;Path&quot;,{&quot;applyMatrix&quot;:true,&quot;segments&quot;:[[[467.52014,378.80687],[-0.03734,-0.05477],[1.53289,-0.33178]],[[472.05514,377.4843],[-0.80306,0.4072],[-0.43338,-0.20928]],[[471.32774,376.65365],[0.08859,0.30745],[-2.33771,-0.82811]],[[467.4576,378.72186],[-2.7622,-2.84089],[0,0]]],&quot;closed&quot;:true}]}" fill="#ff0000"/><path d="M220.82348,190.20646c0.02679,-0.02266 0.05479,-0.0466 0.08208,-0.0708c0.22476,-0.19928 0.44191,-0.42076 0.63426,-0.65237c1.30307,1.4145 3.63176,2.52968 4.45144,4.05396c0.35111,0.65294 -1.31617,3.3364 -1.42364,4.13709c-0.05169,0.38504 -0.10385,1.08801 -0.089,1.67381c-0.39753,-0.31534 -0.93179,-0.58444 -1.0882,-0.68925c-0.75174,-0.95266 -2.03829,-1.88076 -2.68034,-2.69953c-0.55364,-0.70603 0.3183,-4.21021 0.2078,-5.22883z" data-paper-data="{&quot;noHover&quot;:false,&quot;origItem&quot;:[&quot;Path&quot;,{&quot;applyMatrix&quot;:true,&quot;segments&quot;:[[[469.49072,382.80012],[0,0],[-0.64867,1.94381]],[[464.83851,392.01747],[-0.41758,-1.74517],[0.48426,2.02384]],[[467.39735,399.08228],[-0.57199,-2.35872],[0.1969,0.32098]],[[468.78101,401.23726],[-0.45963,-0.90478],[0.46157,-1.07727]],[[470.3246,398.26738],[-0.41507,0.65682],[0.86314,-1.36588]],[[476.26104,392.01912],[0.0937,1.47976],[-0.21875,-3.45448]],[[471.63821,381.05177],[1.18903,3.65805],[-0.54281,0.26063]],[[469.95814,381.7091],[0.57477,-0.17481],[-0.0698,0.02123]],[[469.7521,381.76918],[0.0676,-0.01885],[0,0]]],&quot;closed&quot;:true}]}" fill="#ff0000"/><path d="M221.42479,181.67338c0.55185,-0.10666 1.27259,-0.23902 1.4412,-0.17264c0.35991,0.14166 -0.01443,2.5227 -0.87809,2.47448l-0.79339,0.02989c0,0 -0.0003,0 -0.00084,0.00003c0.16811,-0.67028 0.20093,-1.39359 0.23123,-2.28657c0,0 0.00139,-0.017 -0.00011,-0.04519z" data-paper-data="{&quot;noHover&quot;:false,&quot;origItem&quot;:[&quot;Path&quot;,{&quot;applyMatrix&quot;:true,&quot;segments&quot;:[[[477.92773,366.84102],[0,0],[-0.79982,1.598]],[[475.67294,370.65163],[0.86461,-1.07823],[0.00102,0.0004]],[475.67448,370.65224],[[477.10202,371.22395],[0,0],[1.52973,0.80796]],[[480.63126,367.59862],[0.53609,0.55769],[-0.25116,-0.26128]],[[477.96326,366.759],[1.09212,0.26636],[-0.02077,0.05249]]],&quot;closed&quot;:true}]}" fill="#0032ff"/><path d="M216.8361,188.42467c-0.04002,0.20437 -0.03986,0.42487 0.00756,0.65081c-0.44109,-0.08566 -0.97554,-0.09336 -1.65612,-0.05955c-1.05201,0.1053 -1.41752,-0.07768 -2.00329,1.1168c-0.18576,0.3788 0.2472,1.03272 -0.09681,1.27696c-0.34783,0.24695 -0.82247,-0.2744 -1.24819,-0.30144c-1.24978,-0.07939 -2.94936,0.1679 -4.14225,0.48795c-0.81874,0.21967 -1.53448,0.39043 -2.37171,0.47236c-0.35037,0.03428 -1.20042,0.43938 -1.05069,0.12076c0.36864,-0.78446 0.72213,-1.47603 0.99396,-2.27646c0.37434,-0.31855 0.23065,-0.74004 0.15361,-0.89981c-0.02785,-0.1255 -0.09013,-0.26247 -0.21852,-0.36823c-1.24099,-2.32956 4.30086,-1.26215 6.19452,-0.8147c0.18866,0.36267 0.65359,0.39181 0.65359,0.39181c1.56424,0.05242 3.20479,0.24732 4.78433,0.20273z" data-paper-data="{&quot;noHover&quot;:false,&quot;origItem&quot;:[&quot;Path&quot;,{&quot;applyMatrix&quot;:true,&quot;segments&quot;:[[[455.35362,370.74296],[2.79975,1.39988],[0,0]],[[454.49653,369.51802],[0.04047,0.81662],[-3.06915,-2.3927]],[[442.73893,365.85372],[-0.31301,-5.2697],[0.14519,0.29933]],[[442.83261,366.6986],[0.05403,-0.25136],[0.0068,0.35469]],[[441.80948,368.18836],[0.94617,-0.26686],[-1.16169,1.22832]],[[438.10712,371.46534],[1.32437,-1.11857],[-0.53791,0.45432]],[[440.11705,372.11496],[-0.66551,-0.22989],[1.59024,0.54932]],[[444.81527,373.209],[-1.67151,-0.28352],[2.43537,0.41308]],[[452.62894,375.72086],[-2.20566,-1.18664],[0.75132,0.40421]],[[454.62961,377.31713],[-0.83824,0.15881],[0.82904,-0.15707]],[[455.845,375.09662],[-0.6536,0.53365],[2.06102,-1.6828]],[[460.40012,374.76457],[-2.00018,-0.68598],[1.26536,0.50614]],[[463.36146,376.25293],[-0.73039,-0.52358],[0.10223,-0.45029]],[[463.88698,375.07234],[-0.24319,0.33812],[-2.90847,-1.23628]]],&quot;closed&quot;:true}]}" fill="#0032ff"/><path d="M230.28348,196.91176l0.12257,0.26844c0.60907,1.32755 1.25456,2.44396 0.86534,3.91726c-1.41621,3.85868 -5.20343,5.68216 -8.70099,7.28683c-1.71777,0.78811 -3.71226,2.66031 -4.37255,0.35279c0,0 -0.09761,-0.3228 -0.3765,-0.47188l-0.22036,-0.35978c-0.16716,-3.13346 -1.69162,-7.6892 -3.69206,-10.19894c-1.55232,-1.94754 -3.89199,-2.90612 -5.64387,-4.56969c1.38953,-0.30635 2.68821,-0.64604 3.39408,-0.59228c0.74338,0.05662 1.37265,0.64157 2.1656,0.06394c1.21119,-0.88228 0.04481,-2.20401 1.3555,-2.13228c0.28149,-0.01399 1.56592,-0.2825 1.81868,0.00631c0.32415,0.37036 0.40843,1.00389 0.61367,1.45124l0.1319,0.31495c0,0 0.3182,0.6788 0.99987,0.36604c0.68168,-0.31275 0.37463,-0.99661 0.37463,-0.99661l-0.15345,-0.30517c-0.01908,-0.04158 -0.06885,-0.1776 -0.08772,-0.21776l0.31834,0.02024c0.08813,-0.04073 0.19718,0.01812 0.27859,-0.01838c0.12695,1.67209 -0.78311,4.3255 0.10847,5.73864c0.49047,0.77738 2.09272,2.01009 2.75737,2.83078c0.68037,0.47385 2.3691,2.14601 3.25657,1.76255c0.54146,-0.23395 0.26472,-1.69736 0.28164,-2.21072c0.06186,-1.87724 2.10814,-4.60251 1.38723,-6.26348c-0.8087,-1.86326 -3.75306,-2.96833 -4.88554,-4.71619c0.35749,-0.92868 0.01818,-1.49636 -0.64367,-1.76667c-0.01335,-0.32719 -0.00987,-0.75466 -0.00596,-1.08225l0.38178,-0.01892c0.38812,-0.0697 0.78111,-0.28307 1.13073,-0.59032c0.77189,1.68242 1.71658,3.70922 2.44716,5.30161c0,0 0.18799,0.40465 0.58257,0.44938c0.94412,0.86958 2.06922,1.38173 2.97846,2.25845c0.70901,0.68366 1.14015,1.92192 1.45676,3.09843c-0.01855,0.00724 -0.03736,0.0153 -0.05648,0.02408c-0.68168,0.31275 -0.36836,0.99936 -0.36836,0.99936z" data-paper-data="{&quot;noHover&quot;:false,&quot;origItem&quot;:[&quot;Path&quot;,{&quot;applyMatrix&quot;:true,&quot;segments&quot;:[[[482.75458,400.21246],[-1.5,0],[0.04208,0]],[[482.8773,400.21594],[-0.03975,-0.00229],[0.40568,-2.40273]],[[482.81021,393.4036],[0.71867,1.83408],[-0.92163,-2.35203]],[[479.29091,386.85244],[0.991,2.36813],[-0.67997,-0.41039]],[[478.61094,385.55689],[0,0],[0,-3.50396]],[[478.61094,373.90641],[0,3.70209],[-0.89177,0.26695]],[[476.07015,374.04091],[0.76367,0.19701],[0,0]],[[475.36308,373.75841],[0,0],[-0.28033,0.59223]],[[474.56657,375.55486],[0.24863,-0.60591],[0.97768,1.04337]],[[474.27023,379.30737],[1.42437,-1.39002],[0.60092,4.12177]],[[479.26104,392.01912],[0.0839,-4.06152],[-0.07479,3.62058]],[[471.48969,402.33665],[1.67808,-3.36089],[-0.4589,0.91908]],[[469.10425,406.14178],[1.1794,0.0263],[-1.93306,-0.0431]],[[464.62571,400.23033],[0.84158,1.4288],[-0.52374,-2.04619]],[[461.89726,392.60825],[0.24324,1.82219],[-0.44216,-3.31241]],[[466.56932,382.06561],[-1.16377,3.14543],[-0.17844,-0.00156]],[[466.01153,382.06335],[0.19419,-0.00053],[0,0]],[[465.45416,381.76167],[0,0],[0.00081,0.08875]],[[465.45536,382.03204],[0,-0.0915],[0,0]],[465.45536,382.91325],[[463.95536,384.41325],[1.5,0],[-1.5,0]],[462.45536,382.91325],[[462.45536,382.03204],[0,0],[0,-0.98435]],[[462.56954,379.08121],[0.28036,0.94358],[-0.21862,-0.73579]],[[459.28595,377.55],[0.52336,0.20934],[-2.32275,-1.22352]],[[455.06937,380.28472],[2.93755,-0.59369],[-1.92318,0.38868]],[[451.19529,378.35613],[1.3041,0.7229],[-1.2383,-0.68643]],[[444.54335,376.59154],[2.78141,0.602],[1.79716,4.48514]],[[451.01133,389.57559],[-1.19756,-4.8349],[1.54327,6.23062]],[[449.1925,411.08168],[2.30947,-5.83544],[0,0]],[[449.29088,411.91757],[0,0],[0.38264,0.5036]],[[449.57845,413.08663],[0,0],[-0.7242,4.74532]],[[457.78687,416.0743],[-3.77985,0],[7.6962,0]],[[479.58072,410.11169],[-5.79255,5.83321],[1.93629,-2.35358]],[[481.25458,402.29994],[0,2.92119],[0,0]],[481.25458,401.71246]],&quot;closed&quot;:true}]}" fill="#0032ff"/></g><g stroke="none" stroke-width="0.5" stroke-linecap="butt"><path d="M243.63935,165.94913c1.27016,1.36647 1.35631,2.43694 1.62187,3.90437l-0.03928,0.73628c0,0 -0.01691,0.19858 -0.15899,0.33084c1.34434,4.01393 2.86365,8.13808 2.93304,11.88813c0.02913,1.57374 -0.10028,3.32368 -1.57413,4.0141c-1.02242,0.47895 -2.46598,0.59044 -3.69377,0.72987c-2.95983,0.60904 -5.95701,0.18092 -9.14724,0.20458c-5.85254,0.04338 -11.68923,-0.12411 -17.69647,-0.45809c-1.67317,-0.12317 -3.39474,-1.09666 -4.81453,-2.49563c-0.398,-0.39216 -1.14311,-1.73147 -1.67922,-1.99241c-0.84501,-0.41129 -2.56353,-0.17543 -3.30085,-0.25223c-5.17402,-0.53888 -8.79365,-1.84063 -11.60687,-7.1781c-2.22559,-4.24885 -3.329,-8.53881 -4.72097,-12.81633l-0.11585,-0.35601c0,0 -0.00342,-0.01052 -0.00819,-0.029c-2.19401,-1.71866 -4.12187,-4.63999 -4.84407,-6.65602c-1.79485,-4.11723 -3.76436,-10.3901 -1.39566,-13.25269c2.32381,-2.80837 6.7255,-4.04488 10.21504,-5.51512c7.74621,-2.92559 18.89386,-1.10294 28.20774,-0.58512c4.62502,0.25713 9.66074,-0.14305 14.49868,1.09697c4.64186,1.18976 9.27103,4.00961 13.89967,5.02626l0.85856,0.04773c0.42253,0.02349 0.87414,0.37777 1.00872,0.79133c0.06729,0.20678 0.04257,0.38921 -0.05178,0.51702l-0.61972,0.83947l-0.23472,-0.18414c-2.10447,2.95556 -7.02931,4.40054 -11.23914,4.58961c0.2173,0.25743 0.2516,0.53756 0.2516,0.53756c0.30867,2.52279 0.71402,5.0939 1.22096,7.68895c0.58649,0.46709 1.15533,1.10446 1.73182,1.97905l0.41697,0.88525c0,0 0.34942,0.74728 -0.37348,0.81107c-0.7229,0.06379 -1.07232,-0.6835 -1.07232,-0.6835l-0.14501,-0.31282c0.44238,1.99911 0.94542,4.00736 1.51132,6.01378c0.09688,0.07373 0.1563,0.13501 0.1563,0.13501zM197.42602,170.68945c0.79182,0.14801 0.92484,0.88325 0.92484,0.88325l0.11698,1.12956c-0.75373,0.47181 -0.82937,0.73353 -1.90218,0.65506c-0.69181,-0.0506 -1.30143,-0.27148 -1.82827,-0.60764c0.34852,0.80857 0.72854,1.61571 1.15029,2.42087c2.42243,4.65833 5.2927,5.43018 9.79153,5.89689c1.16523,0.12088 2.83509,-0.14385 4.08977,0.50823c2.19095,1.13867 2.8762,4.14739 5.62802,4.22594c5.9759,0.33224 11.78069,0.49811 17.60234,0.4557c3.12184,-0.02274 6.04796,0.40514 8.94001,-0.18812c1.1143,-0.12654 2.42088,-0.21238 3.36548,-0.62549c1.16446,-0.50928 1.10876,-2.00631 1.08533,-3.17898c-0.07862,-3.93487 -1.86033,-8.34743 -3.22346,-12.53629c-0.25126,-0.77213 -0.49308,-1.5457 -0.72557,-2.32008c-0.04307,0.24304 -0.11812,0.47516 -0.23275,0.69329c-0.60509,1.15162 -2.08868,1.54953 -3.59045,-0.06734c-0.98556,-1.0611 -1.20561,-2.59902 -1.7724,-3.75098c-1.1996,-2.43809 -2.18546,-4.62068 -2.71686,-7.01572c-2.98395,0.17047 -5.68414,1.02951 -6.07821,3.85804c0,0 -0.09475,0.66408 -0.89205,0.31551c-0.7973,-0.34857 -0.70256,-1.01265 -0.70256,-1.01265c0.61522,-4.22202 5.30999,-4.84698 9.80408,-4.66445c0.86507,0.03513 1.64296,0.07262 2.36181,0.18696c0.02499,-0.19299 0.14688,-0.39334 0.55294,-0.37076c0.17322,0.00963 0.31971,0.05547 0.44269,0.12062c-0.41367,-2.24109 -0.75285,-4.46161 -1.02057,-6.64563c0,0 -0.00759,-0.06199 0.00157,-0.14503c-2.43337,-0.06265 -5.10538,-0.59952 -7.35947,-0.2621c-2.6502,-0.1403 -4.9089,0.40578 -7.53222,0.40512c-6.48366,-0.00164 -13.28363,-0.68492 -19.89648,-1.05257c-5.43232,-0.31376 -6.51729,3.39467 -5.89075,8.17021l0.025,0.03198c0,0 0.2273,0.69849 -0.44644,0.70791c-0.31232,2.14346 -0.91837,4.57255 -2.37248,5.84719c-1.10431,0.96802 -2.36789,1.02256 -3.62935,0.52567c0.34362,1.0772 0.67241,2.1557 1.01039,3.23417c0.5253,-1.03495 1.83176,-1.02531 3.9356,1.55526c0,0 0.56009,0.68876 -0.01522,0.98559c-0.57531,0.29683 -1.13539,-0.39194 -1.13539,-0.39194c-2.9852,-3.68165 -1.58704,3.67527 1.65006,3.0909l-0.17439,-0.4809c0,0 -0.13302,-0.73525 0.6588,-0.58724zM238.79298,165.33717c0.31974,0.768 0.35442,2.06143 1.17511,2.28553c1.86877,0.51028 0.43205,-3.46738 0.19565,-4.19195c-0.6576,-2.06089 -0.66723,-3.99263 -1.18738,-6.0518c-0.65784,-0.10025 -1.3786,-0.08209 -2.20757,-0.11626c-0.37218,-0.01534 -0.74918,-0.02578 -1.12702,-0.02881c0.57174,2.80445 1.9738,5.27526 3.15121,8.10329zM196.23985,154.92396c-0.3809,-5.01254 1.17928,-8.73778 7.08304,-8.42089c6.58413,0.36605 13.3551,1.0473 19.811,1.05015c2.60107,0.00115 4.83178,-0.55832 7.46929,-0.40381c3.76778,-0.56399 8.61062,1.03965 12.10779,-0.16833c1.59166,-0.54979 3.37303,-1.12933 4.76146,-1.94542c0.74517,-0.438 1.30089,-1.15109 2.10603,-1.4985c-4.37959,-1.17162 -8.73314,-3.69336 -13.11924,-4.82725c-4.70508,-1.21636 -9.65181,-0.79164 -14.15095,-1.04177c-9.01821,-0.50138 -20.21302,-2.4298 -27.65928,0.50368c-3.24918,1.36936 -9.09803,2.71549 -10.33994,6.13966c-1.07706,2.96967 0.43298,7.65423 1.97677,11.19147c0.88801,2.51603 3.20361,6.66444 6.61446,6.50899c2.41642,-0.11012 2.91762,-4.91808 3.12435,-6.72977c0,0 0.02714,-0.23548 0.21524,-0.35818z" fill="#000000"/><path d="M235.61122,157.18534c0.37785,0.00302 0.76458,0.01203 1.13676,0.02737c0.82896,0.03417 1.57088,0.0194 2.22872,0.11964c0.52015,2.05917 0.57701,4.07475 1.23461,6.13564c0.23639,0.72458 1.63537,4.71417 -0.2334,4.20388c-0.82069,-0.2241 -0.86752,-1.52083 -1.18727,-2.28883c-1.17741,-2.82802 -2.60769,-5.39326 -3.17943,-8.19771z" data-paper-data="{&quot;noHover&quot;:false,&quot;origItem&quot;:[&quot;Path&quot;,{&quot;applyMatrix&quot;:true,&quot;segments&quot;:[[[513.43113,327.1896],[-0.51342,-5.636],[0.13943,1.53055]],[[514.29246,331.71909],[-1.49313,-0.3641],[3.39994,0.82908]],[[517.40701,323.14475],[0.0012,1.45142],[0.02605,-4.1299]],[[518.96845,310.93296],[-0.2994,4.14197],[-1.24843,-0.1299]],[[514.63597,310.94616],[1.63306,-0.02431],[-0.7332,0.01091]],[[512.40427,311.01523],[0.75251,-0.03669],[-0.68066,5.6566]]],&quot;closed&quot;:true}]}" fill="#00ffe2"/><path d="M196.81281,171.26742l0.08379,0.50044c-3.2371,0.58438 -4.63864,-6.779 -1.65344,-3.09736c0,0 0.56055,0.68977 1.13586,0.39294c0.57531,-0.29683 0.01427,-0.98767 0.01427,-0.98767c-2.10383,-2.58057 -3.41165,-2.59356 -3.93695,-1.55861c-0.33797,-1.07848 -0.66869,-2.16321 -1.0123,-3.24041c1.26148,0.49689 2.52453,0.44002 3.62884,-0.528c1.45411,-1.27465 2.05997,-3.7195 2.37229,-5.86297c0.67375,-0.00941 0.44694,-0.71002 0.44694,-0.71002l-0.02498,-0.03202c-0.62654,-4.77554 0.47451,-8.5033 5.90684,-8.18954c6.61284,0.36765 13.46116,1.0559 19.94483,1.05754c2.62332,0.00066 4.89366,-0.53791 7.54386,-0.39761c2.2541,-0.3374 4.93339,0.2057 7.36676,0.26835c-0.00916,0.08304 -0.00146,0.14513 -0.00146,0.14513c0.26771,2.18402 0.61384,4.41204 1.02751,6.65311c-0.12298,-0.06515 -0.34528,-0.0703 -0.51849,-0.07993c-0.40606,-0.02258 -0.52802,0.17769 -0.55301,0.37068c-0.71886,-0.11434 -1.49499,-0.1498 -2.36006,-0.18493c-4.49408,-0.18253 -9.12031,0.39365 -9.73555,4.61566c0,0 -0.09121,0.66783 0.70609,1.0164c0.7973,0.34857 0.81949,-0.27104 0.81949,-0.27104c0.39408,-2.82852 3.16707,-3.73176 6.15102,-3.90223c0.5314,2.39504 1.52804,4.59331 2.72764,7.0314c0.5668,1.15196 0.79085,2.69947 1.77642,3.76058c1.50176,1.61687 2.88333,1.21322 3.48842,0.0616c0.11462,-0.21814 0.29108,-0.44635 0.33415,-0.68939c0.2325,0.77439 0.47583,1.55284 0.72709,2.32497c1.36313,4.18886 3.14479,8.62408 3.22341,12.55893c0.02343,1.17266 0.07669,2.67531 -1.08778,3.18459c-0.94458,0.41312 -2.25389,0.50297 -3.3682,0.62951c-2.89205,0.59326 -5.82986,0.174 -8.95171,0.19674c-5.82165,0.04241 -11.66872,-0.12659 -17.64462,-0.45883c-2.75182,-0.07856 -3.4511,-3.09536 -5.64204,-4.23404c-1.25469,-0.65208 -2.93101,-0.39242 -4.09624,-0.5133c-4.49883,-0.46671 -7.38309,-1.25391 -9.80553,-5.91225c-0.42175,-0.80515 -0.80457,-1.61659 -1.15309,-2.42516c0.52685,0.33617 1.22439,0.53312 1.9162,0.58372c1.0728,0.07847 1.06155,-0.15766 1.81528,-0.62948l-0.11834,-1.13174c0,0 -0.13426,-0.73738 -0.92607,-0.88537c-0.79182,-0.14801 -0.56713,0.56957 -0.56713,0.56957z" data-paper-data="{&quot;noHover&quot;:false,&quot;origItem&quot;:[&quot;Path&quot;,{&quot;applyMatrix&quot;:true,&quot;segments&quot;:[[[427.35252,342.801],[-1.48492,-0.21213],[1.48492,0.21213]],[428.62531,344.49805],[[428.12493,346.78923],[0,0],[-1.81159,1.04805]],[[423.90106,348.34139],[2.09117,0.0384],[-1.34852,-0.02476]],[[420.64524,347.30908],[0.83355,0.62607],[0.17053,1.61006]],[[421.36905,352.1175],[-0.31896,-1.59478],[1.81014,9.22887]],[[437.08887,363.03736],[-8.67992,-0.44188],[2.24815,0.11445]],[[444.925,363.61034],[-2.08161,-1.18802],[3.63495,2.07455]],[[453.41696,371.59348],[-5.44374,0.15187],[11.71667,0]],[[488.26888,370.52663],[-11.65213,0.74685],[6.24841,-0.40049]],[[506.24236,369.12883],[-6.16028,1.53837],[2.30724,-0.38454]],[[513.36891,367.47101],[-2.15457,0.94995],[2.6561,-1.17108]],[[517.60173,360.86238],[-0.71519,2.38973],[2.39984,-8.01873]],[[519.31112,335.65228],[0,8.39121],[0,-1.54673]],[[519.36987,331.00131],[-0.03895,1.55348],[-0.24391,0.50073]],[[518.45463,332.44212],[0.37062,-0.45804],[-1.95655,2.4181]],[[511.32905,332.71198],[1.94807,3.12831],[-1.27845,-2.05301]],[[510.22729,325.26052],[0.38324,2.28586],[-0.81111,-4.83796]],[[509.36105,311.25566],[-0.49519,4.82593],[-6.06906,0.68623]],[[494.71729,319.816],[2.62481,-5.81527],[0,0]],[[492.73104,320.56085],[1.36555,0.6207],[-1.36555,-0.6207]],[[491.9862,318.57459],[0,0],[3.97189,-8.68326]],[[514.59369,307.94646],[-8.8551,0.13735],[1.70452,-0.02644]],[[519.18823,308.05999],[-1.3611,-0.15174],[0.1753,-0.39656]],[[520.53325,307.24087],[-0.79614,0],[0.33962,0]],[[521.33883,307.43673],[-0.20324,-0.11897],[0.63022,-4.5252]],[[523.61924,293.9945],[-0.88458,4.42533],[0,0]],[[523.71662,293.69845],[-0.07226,0.17045],[-4.8182,0.14819]],[[509.19169,293.99846],[4.72017,-0.94403],[-5.2007,0.01436]],[[493.88825,295.67931],[5.23776,-0.2962],[-12.94539,0.73206]],[[454.84329,295.78867],[12.96551,0],[-10.64329,-0.02396]],[[437.77186,313.12516],[1.85202,-9.67168],[0,0]],[437.80099,313.18757],[[436.44954,314.68243],[1.35144,-0.09562],[-2.01643,4.40839]],[[427.91277,326.88058],[3.73179,-2.76537],[-2.83408,2.10014]],[[420.32417,328.36468],[2.19601,0.87063],[-0.01383,2.15867]],[[420.24016,334.84822],[0.02592,-2.1619],[1.7214,-2.17101]],[[427.0881,337.57476],[-2.52407,-5.02607],[0,0]],[[426.41728,339.58723],[1.34164,-0.67082],[-1.34164,0.67082]],[[424.40482,338.91641],[0,0],[-3.5685,-7.17245]],[[425.6912,345.0351],[-6.84351,1.55937],[0,0]],[425.65546,344.07379]],&quot;closed&quot;:true}]}" fill="#fff1e2"/><path d="M196.06968,155.27196c-0.20673,1.81169 -0.79249,6.64818 -3.20891,6.7583c-3.41085,0.15544 -5.73346,-4.00371 -6.62147,-6.51974c-1.5438,-3.53724 -3.06002,-8.23876 -1.98295,-11.20842c1.24191,-3.42417 7.09108,-4.78805 10.34026,-6.15741c7.44626,-2.93349 18.70702,-1.0186 27.72523,-0.51721c4.49914,0.25014 9.4682,-0.15659 14.17328,1.05976c4.3861,1.13389 8.74906,3.66855 13.12867,4.84019c-0.80513,0.34741 -1.36003,1.06197 -2.1052,1.49996c-1.38843,0.81609 -3.16879,1.39754 -4.76044,1.94733c-3.49716,1.208 -8.4316,-0.37807 -12.19938,0.18593c-2.63751,-0.15451 -4.86148,0.41432 -7.46255,0.41317c-6.45591,-0.00286 -13.13586,-0.69095 -19.71998,-1.057c-5.90377,-0.31689 -7.47186,3.38502 -7.09096,8.39756c-0.18809,0.1227 -0.21558,0.3576 -0.21558,0.3576z" data-paper-data="{&quot;noHover&quot;:false,&quot;origItem&quot;:[&quot;Path&quot;,{&quot;applyMatrix&quot;:true,&quot;segments&quot;:[[[435.22821,310.77181],[-0.45531,0.27165],[2.49651,-10.18306]],[[454.84329,292.78867],[-11.58263,0.02314],[12.90919,0]],[[493.71915,292.68408],[-12.88919,0.72643],[5.19302,-0.29268]],[[508.89608,291.01306],[-5.16613,-0.01606],[7.8899,-1.57798]],[[533.18205,289.29631],[-7.768,2.86114],[3.53543,-1.30218]],[[543.95374,284.78733],[-3.30268,1.82242],[1.77254,-0.97809]],[[549.13272,281.49131],[-1.83341,0.80008],[-7.98378,-1.89352]],[[526.07315,273.1311],[8.02131,1.8158],[-8.60463,-1.94785]],[[498.49374,272.61079],[8.82125,0],[-17.68159,0]],[[442.93692,276.7756],[16.77469,-6.82929],[-7.3777,3.16222]],[[418.30087,290.47412],[4.7048,-7.12662],[-4.08031,6.18067]],[[414.97597,313.082],[-0.78417,-7.04133],[0.13829,5.03232]],[[423.95413,325.61097],[-6.91171,0.704],[4.89662,-0.49875]],[[434.56569,311.52694],[-1.58999,3.71954],[0,0]]],&quot;closed&quot;:true}]}" fill="#442300"/><path d="M210.17153,154.7649c0.76505,0.04253 1.00872,0.79133 1.00872,0.79133l0.00249,0.01005c3.81205,0.22176 7.74157,1.35287 10.79767,3.5714c0.48206,0.43248 0.97884,0.85123 1.48896,1.25076l0.6036,0.56781c0,0 0.65397,0.62455 0.18813,1.0398c-0.46584,0.41525 -1.1198,-0.20931 -1.1198,-0.20931l-0.40926,-0.3995c-0.52032,-0.40879 -1.02988,-0.83381 -1.52116,-1.27643c-0.40417,-0.29511 -0.82898,-0.56768 -1.27103,-0.81836c0.76568,2.65784 1.15258,5.30815 1.52995,7.8979c0.12098,0.8302 0.44296,2.73339 -0.19747,3.19218c-2.7337,1.95831 -6.04921,-3.72033 -7.13136,-5.78452c-1.01762,-2.39554 -2.34826,-5.17765 -3.758,-7.5905c-4.54587,0.00673 -8.76855,1.36957 -10.43403,3.68244c0,0 -0.36867,0.4994 -1.08194,-0.06015c-0.71327,-0.55955 -0.3446,-1.05895 -0.3446,-1.05895c1.922,-2.55052 6.33051,-4.02341 11.14747,-4.04522l-0.01973,-0.05448c0,0 -0.24367,-0.74879 0.52138,-0.70626zM215.5821,164.46053c0.42452,0.81124 2.92203,5.68121 4.40865,4.65033c0.4045,-0.2805 -0.20373,-2.68766 -0.32548,-3.25696c-0.53756,-2.51368 -0.69227,-4.86371 -1.48745,-7.41242c-1.94536,-0.79382 -4.10214,-1.24129 -6.24357,-1.38364c1.36089,2.38903 2.65086,5.0598 3.64786,7.40269z" fill="#000000"/><path d="M211.89748,157.01163c2.14143,0.14235 4.34669,0.59437 6.29205,1.38819c0.79517,2.54871 0.98233,4.98153 1.51989,7.49522c0.12175,0.5693 0.71229,2.98475 0.30779,3.26524c-1.48662,1.03087 -4.04002,-3.85932 -4.46454,-4.67056c-0.99699,-2.34289 -2.2943,-5.08906 -3.65519,-7.47809z" data-paper-data="{&quot;noHover&quot;:false,&quot;origItem&quot;:[&quot;Path&quot;,{&quot;applyMatrix&quot;:true,&quot;segments&quot;:[[[467.65372,328.03382],[-0.4684,-4.66672],[0.32053,1.60687]],[[473.4351,337.02108],[-3.6383,2.27174],[0.98996,-0.61813]],[[474.90152,330.41336],[-0.12682,1.14764],[0.55997,-5.06727]],[[476.74791,315.45975],[-0.06834,5.10952],[-3.36864,-1.39885]],[[465.17993,313.3451],[4.18347,0.04753],[1.16504,4.71959]]],&quot;closed&quot;:true}]}" fill="#00ffe2"/><path d="M233.42889,172.05244c-0.23545,-0.72352 0.4709,-0.70822 0.51884,-0.70637c0.2114,-0.18825 0.37667,-0.42339 0.50444,-0.68029l-0.18437,-0.14575c-0.58981,-0.52531 -1.16411,-1.06717 -1.72471,-1.61961c0,0 -0.64296,-0.63403 -0.16204,-1.03465c0.48092,-0.40062 1.12388,0.23342 1.12388,0.23342c0.52825,0.52131 1.06973,1.03249 1.62635,1.52745l0.40563,0.31497c0,0 0.46525,0.36498 0.45002,0.76849c0.22827,0.35186 0.09644,0.66464 0.09644,0.66464c-0.23512,0.53503 -0.56973,1.02171 -1.02532,1.38004l-0.62044,0.08899c0,0 -0.76505,-0.04253 -1.00872,-0.79133zM233.92347,171.3673l-0.11966,0.09422c0.0414,-0.02979 0.08127,-0.06124 0.11966,-0.09422z" fill="#000000"/></g><g stroke="none" stroke-width="0.5" stroke-linecap="butt"><path d="M218.02073,197.30593c1.4007,4.15701 1.06107,10.63044 0.14443,14.89467c-0.35663,1.65905 -2.09196,3.65228 -1.39127,5.3326c0.72738,1.05549 1.47774,0.75406 2.23753,1.60772c1.03815,1.16643 0.12079,2.12813 2.11803,2.26156c1.12634,0.07525 2.18582,-1.57484 3.40209,-0.70375c0.46045,0.32978 0.14562,1.59564 0.29124,2.10448c0.08362,0.2922 0.34735,-0.49955 0.50153,-0.76148c0.3687,-0.62639 0.681,-1.28584 0.97236,-1.95174c0.7772,-1.77627 0.94576,-3.17685 0.67371,-5.08119c0.00812,-4.63643 -2.5532,-9.04371 -3.08132,-13.6271c-0.23299,-2.02207 -0.04341,-4.20592 -0.00971,-6.27201c-1.99197,0.38214 -3.88231,0.62179 -6.00108,0.62179c-0.0319,-0.00079 -0.06355,-0.00183 -0.09497,-0.00314c0.08508,0.52494 0.16382,1.05094 0.23743,1.5776zM225.37942,201.21197c0.531,4.61856 3.07931,9.00999 3.08718,13.69051c0.40298,2.82085 -0.27272,5.55065 -1.87879,7.94769c-0.40089,0.59833 -1.41114,1.92123 -2.43585,1.29469c-1.44439,-0.88315 -1.06701,-1.56146 -0.58998,-2.30159c0.28895,-0.44831 -0.83355,0.70637 -1.33945,0.87532c-0.91952,0.30709 -1.86645,0.21685 -2.75896,-0.1837c-1.45218,-0.65171 -0.79738,-1.47969 -1.5435,-2.36492c-0.62858,-0.74576 -1.7025,-0.87761 -2.46227,-1.91713c-0.95323,-2.43929 0.75431,-4.08401 1.25237,-6.41691c0.87136,-4.08138 1.16413,-10.20645 -0.14931,-14.18536c-0.09519,-0.65367 -0.19496,-1.30674 -0.3036,-1.95831l-0.0102,-0.27017c0,0 0,-0.01128 0.00138,-0.03108c-3.62703,-1.63688 -1.65973,-8.66703 1.51935,-10.58775c1.95753,-1.18268 4.1305,0.29998 6.07553,0.94832c0,0 0.71151,0.23717 0.47434,0.94868c-0.10013,0.30038 -0.2848,0.43168 -0.46478,0.48312c0.99362,1.62466 4.58481,4.94633 3.60613,7.04259c-0.14767,0.31631 -1.4913,0.48005 -2.07597,0.57955c-0.0184,2.09766 -0.2409,4.34267 -0.00363,6.40646zM222.12484,186.63532c-1.01317,-0.47668 -2.19204,-1.02816 -2.96009,-0.89926c-3.07465,0.51601 -5.17575,8.63015 -1.28647,8.49542c2.49615,0 4.62261,-0.34746 7.04385,-0.8655c0.42165,-0.09021 1.27988,0.45209 1.2934,0.02111c0.04811,-1.53352 -2.92338,-4.22964 -3.72186,-5.56265l-0.31821,-0.78907c0,0 -0.07346,-0.18365 -0.05062,-0.40005z" fill="#000000"/><path d="M222.19415,186.98899l0.32816,0.79447c0.79848,1.333 3.78318,4.09744 3.73507,5.63096c-0.01352,0.43098 -0.87575,-0.106 -1.2974,-0.01579c-2.42125,0.51803 -4.61508,0.87321 -7.11123,0.87321c-3.88928,0.13473 -1.77845,-8.06569 1.29621,-8.58171c0.76805,-0.1289 1.98279,0.42116 2.99595,0.89784c-0.02284,0.2164 0.05323,0.40102 0.05323,0.40102z" data-paper-data="{&quot;noHover&quot;:false,&quot;origItem&quot;:[&quot;Path&quot;,{&quot;applyMatrix&quot;:true,&quot;segments&quot;:[[[222.12484,186.63532],[-0.02284,0.2164],[-1.01317,-0.47668]],[[219.16474,185.73606],[0.76805,-0.1289],[-3.07465,0.51601]],[[217.87827,194.23148],[-3.88928,0.13473],[2.49615,0]],[[224.92212,193.36598],[-2.42125,0.51803],[0.42165,-0.09021]],[[226.21552,193.38708],[-0.01352,0.43098],[0.04811,-1.53352]],[[222.49366,187.82444],[0.79848,1.333],[0,0]],[222.17545,187.03536]],&quot;closed&quot;:true}]}" fill="#0032ff"/><path d="M217.76864,195.68053c0.03141,0.00131 0.06338,0.00226 0.09528,0.00305c2.11877,0 4.03069,-0.24122 6.02266,-0.62336c-0.0337,2.06609 -0.21757,4.25112 0.01542,6.27319c0.52811,4.58339 3.10888,9.07706 3.10076,13.71349c0.27205,1.90434 0.08968,3.31325 -0.68751,5.08952c-0.29136,0.66589 -0.60939,1.32725 -0.97809,1.95364c-0.15417,0.26193 -0.42025,1.05424 -0.50387,0.76204c-0.14561,-0.50884 0.16986,-1.77484 -0.29059,-2.10462c-1.21627,-0.87109 -2.28981,0.78017 -3.41615,0.70492c-1.99724,-0.13343 -1.09044,-1.0969 -2.12859,-2.26333c-0.75979,-0.85366 -1.52222,-0.55739 -2.2496,-1.61289c-0.7007,-1.68032 1.02248,-3.68367 1.37911,-5.34273c0.91664,-4.26423 1.27839,-10.81803 -0.12231,-14.97504c-0.0736,-0.52666 -0.15143,-1.05295 -0.23651,-1.57789z" data-paper-data="{&quot;noHover&quot;:false,&quot;origItem&quot;:[&quot;Path&quot;,{&quot;applyMatrix&quot;:true,&quot;segments&quot;:[[[218.02073,197.30593],[-0.0736,-0.52666],[1.4007,4.15701]],[[218.16516,212.20061],[0.91664,-4.26423],[-0.35663,1.65905]],[[216.77389,217.5332],[-0.7007,-1.68032],[0.72738,1.05549]],[[219.01142,219.14092],[-0.75979,-0.85366],[1.03815,1.16643]],[[221.12945,221.40249],[-1.99724,-0.13343],[1.12634,0.07525]],[[224.53154,220.69874],[-1.21627,-0.87109],[0.46045,0.32978]],[[224.82278,222.80322],[-0.14561,-0.50884],[0.08362,0.2922]],[[225.3243,222.04174],[-0.15417,0.26193],[0.3687,-0.62639]],[[226.29666,220.09],[-0.29136,0.66589],[0.7772,-1.77627]],[[226.97037,215.00881],[0.27205,1.90434],[0.00812,-4.63643]],[[223.88905,201.3817],[0.52811,4.58339],[-0.23299,-2.02207]],[[223.87934,195.10969],[-0.0337,2.06609],[-1.99197,0.38214]],[[217.87827,195.73148],[2.11877,0],[-0.0319,-0.00079]],[[217.7833,195.72833],[0.03141,0.00131],[0.08508,0.52494]]],&quot;closed&quot;:true}]}" fill="#fff1e2"/></g><g stroke="none" stroke-width="0.5" stroke-linecap="butt"><path d="M204.05723,173.71098c1.67337,0.51305 7.7609,2.59627 8.5373,1.46481c-0.43554,-0.07169 -0.87018,-0.14764 -1.30332,-0.22755c-2.22878,-0.73673 -7.46625,-1.46797 -9.24859,-3.65793c-0.25388,-0.31193 0.50832,0.62926 0.7017,0.95407c0.29879,0.50186 0.54066,0.9846 0.76726,1.46371c0.21942,-0.097 0.54565,0.00291 0.54565,0.00291zM217.12227,188.42672l-0.0002,-0.02295c-0.76405,-1.23362 -1.5359,-3.03858 -2.99828,-3.99415c-1.42033,-0.9281 -3.45684,-0.04466 -3.57177,0.89327c0.40013,0.63756 0.79913,1.26942 1.26946,1.85588c1.25419,1.56389 4.50497,2.42609 5.50801,1.58147c-0.14078,-0.16705 -0.20723,-0.31351 -0.20723,-0.31351zM218.20448,175.83915l0.02865,0.10145c0.12181,1.05816 0.36745,2.15928 0.40989,3.18029c0.66503,2.12497 0.42615,3.75794 0.49144,5.6787c0.05471,1.60944 0.76555,3.58007 -0.03961,4.82409c-1.05059,1.6232 -4.79731,0.90852 -7.18638,-0.83398c-1.73666,-1.26665 -2.74965,-3.54007 -3.98649,-5.12662c-2.07834,-3.35703 -4.13988,-6.65779 -5.90014,-10.03962c-0.5796,-1.11355 -2.45025,-3.31549 -1.01218,-3.80665c0.13487,-0.04606 2.31276,0.90849 2.65597,1.07589c2.65256,1.29377 4.72936,1.76177 7.31832,2.61757c1.77249,0.31978 3.58761,0.57759 5.38937,0.7448c0.07445,-0.12285 0.2367,-0.20742 0.57338,-0.13931c0.21922,0.04435 0.39458,0.1296 0.53384,0.23057c4.54236,0.32617 8.92545,0.03384 12.2404,-1.3416c0,0 0.58922,-0.2386 1.19083,0.47244c0.60161,0.71104 0.01238,0.94964 0.01238,0.94964c-3.51084,1.3935 -8.01308,1.73346 -12.71966,1.41237z" fill="#000000"/><path d="M203.46361,173.7118c-0.22659,-0.4791 -0.47561,-0.97936 -0.7744,-1.48123c-0.19338,-0.32481 -0.84433,-1.22997 -0.59047,-0.91804c1.78234,2.18996 6.90754,2.8768 9.13633,3.61354c0.43314,0.07992 0.97987,0.19703 1.41541,0.26872c-0.77641,1.13145 -6.96748,-0.96642 -8.64085,-1.47947c0,0 -0.3266,-0.10053 -0.54602,-0.00353z" data-paper-data="{&quot;noHover&quot;:false,&quot;origItem&quot;:[&quot;Path&quot;,{&quot;applyMatrix&quot;:true,&quot;segments&quot;:[[[455.3035,347.26607],[0,0],[2.87653,0.86436]],[[471.02354,349.30746],[-2.57539,2.41285],[-0.80472,-0.0979]],[[468.62726,348.98773],[0.79249,0.11507],[-3.78291,-1.26097]],[[453.47385,342.52084],[1.57489,4.29753],[-0.22433,-0.61213]],[[454.01063,344.40157],[-0.09187,-0.64544],[0.14194,0.99728]],[[454.21658,347.322],[-0.0184,-0.95871],[0.52602,-0.2242]]],&quot;closed&quot;:true}]}" fill="#ffffff"/><path d="M217.38374,188.77369c-1.00305,0.84462 -4.34879,-0.03691 -5.60298,-1.6008c-0.47032,-0.58646 -0.88471,-1.25384 -1.28484,-1.8914c0.11495,-0.93792 2.21571,-1.84076 3.63604,-0.91266c1.46237,0.95559 2.28125,2.83198 3.04529,4.06559l0.0001,0.02327c0,0 0.06562,0.14894 0.2064,0.31599z" data-paper-data="{&quot;noHover&quot;:false,&quot;origItem&quot;:[&quot;Path&quot;,{&quot;applyMatrix&quot;:true,&quot;segments&quot;:[[468.05936,376.02042],[[468.07977,375.97328],[0,0],[-0.408,-2.44803]],[[465.71149,368.10661],[2.05431,1.79755],[-1.99524,-1.74586]],[[457.77015,370.34712],[1.07927,-1.94019],[0.22136,1.2646]],[[458.62359,374.01638],[-0.40781,-1.15164],[1.0875,3.07103]],[[468.18911,376.64107],[-2.76809,1.84919],[-0.12975,-0.32727]]],&quot;closed&quot;:true}]}" fill="#ff0000"/></g></g></g></svg>