<svg version="1.1" xmlns="http://www.w3.org/2000/svg" xmlns:xlink="http://www.w3.org/1999/xlink" width="120.79522" height="151.68132" viewBox="0,0,120.79522,151.68132"><g transform="translate(-197.47994,-89.24534)"><g data-paper-data="{&quot;isPaintingLayer&quot;:true}" fill-rule="nonzero" stroke-linejoin="miter" stroke-miterlimit="10" stroke-dasharray="" stroke-dashoffset="0" style="mix-blend-mode: normal"><g data-paper-data="{&quot;index&quot;:null}" stroke="#0f002d" stroke-width="1.5" stroke-linecap="round"><path d="M216.57151,176.3903c-3.40375,2.09202 -6.90043,0.33937 -10.39315,-0.67373c-1.86345,-0.54051 -4.77263,0.35082 -5.34152,-0.56302c-1.14222,-1.83479 3.88753,-4.50741 2.19216,-4.04868c-6.56593,1.77657 -5.01622,-3.47394 -3.34229,-4.24156c2.8457,-1.30496 8.10602,0.23848 11.14352,1.37967c0.49759,0.18695 -3.36125,-3.3089 -1.12961,-4.25862c4.06913,-1.7317 9.2703,10.93122 6.87089,12.40595z" fill="#e9caf8"/><path d="M216.57151,176.3903c-1.14082,0.70117 -3.61141,0.54388 -5.20749,1.33967c-3.43216,1.71124 -6.26883,1.17355 -5.18567,-2.0134c-3.32686,1.04485 -4.77263,0.35082 -5.34152,-0.56302c-1.14222,-1.83479 3.88753,-4.50741 2.19216,-4.04868c-6.56593,1.77657 -5.01622,-3.47394 -3.34229,-4.24156c2.8457,-1.30496 8.10602,0.23848 11.14352,1.37967c0.49759,0.18695 -3.36125,-3.3089 -1.12961,-4.25862c4.06913,-1.7317 9.2703,10.93122 6.87089,12.40595z" fill="#e9caf8"/><path d="M215.11758,181.0406c-2.69513,-2.62681 -0.92693,-7.12249 2.5633,-8.66708c2.00486,-0.88725 5.19297,5.44404 17.57083,3.48899c12.23375,-1.93229 19.66434,-12.70651 20.87678,-11.58211c0.5363,0.49737 1.19606,1.94125 0.06603,3.22106c-2.21447,2.508 -15.02134,12.9879 -26.14953,16.42381c-6.08145,1.87769 -11.06285,0.88192 -14.92741,-2.88468z" fill="#5e1284"/></g><g stroke="#0f002d" stroke-width="1.5"><path d="M271.79701,233.28911c-6.11299,0.52534 -12.96897,-1.58212 -13.64047,-3.94308c-0.97561,-3.43021 -0.33378,-6.65311 4.57542,-6.65311c1.45719,0 9.77077,-0.92171 11.0118,-0.17751c3.99375,2.39492 17.27569,9.12176 -1.94675,10.77371z" fill="#e9caf8" stroke-linecap="butt"/><path d="M220.50569,239.87956c-7.44184,0.49699 -8.55889,0.90949 -8.55889,-3.48834c0,-2.13119 1.30822,-6.69644 4.88209,-8.90487c3.52591,-2.17879 6.98423,-5.8918 9.32662,-6.30499c4.42702,-0.7809 9.42995,-0.65424 9.86392,3.61658c0.59623,5.86773 -9.5628,14.68419 -15.51374,15.08161z" fill="#e9caf8" stroke-linecap="butt"/><g stroke-linecap="round"><path d="M265.26446,200.38645c3.65238,8.62187 11.59431,17.80345 11.35943,22.67657c-0.13151,2.72848 -6.52463,2.84871 -11.24516,2.83765c-4.72053,-0.01106 -9.2815,-1.2541 -8.87353,-3.36888c0.61208,-3.17282 -2.69553,-14.1978 -3.14175,-22.22558c-1.32089,-6.31725 0.51983,-19.38265 -0.28277,-19.01797c-0.29578,0.1344 -6.32444,11.00224 -9.47667,21.86375c-3.27904,11.29847 -5.19039,21.8686 -5.19039,21.8686l-16.78616,-3.42747c0,0 -1.42847,-3.1265 2.39889,-7.91726c2.54289,-3.18298 5.85035,-8.80395 10.75907,-14.42524c4.37023,-9.06214 11.63099,-22.84198 12.41658,-23.03293c2.84741,-0.6921 9.95924,1.65286 10.14108,1.61859c0.77867,-0.14675 4.26898,13.9283 7.92136,22.55017z" fill="#414ca9"/><path d="M249.65892,180.78119l3.11366,0.17651" fill="none"/></g></g><g data-paper-data="{&quot;index&quot;:null}" stroke="#0f002d"><path d="M247.16536,174.90306c0,0 2.70303,-6.56721 5.06284,-9.52953c2.39449,-3.00585 9.96248,-3.91718 11.52956,0.62105c1.56709,4.53823 -4.19871,11.65791 -6.66949,13.45355c-0.34663,0.25191 -5.19639,-0.37385 -7.47142,-1.50768c-2.51135,-1.25161 -2.4515,-3.03738 -2.4515,-3.03738z" fill="#8f21c6" stroke-width="1.5" stroke-linecap="round"/><path d="M263.27096,167.09106c-2.72072,0.95091 -9.51092,-0.82064 -8.93424,-2.99809c0.30297,-1.14395 4.2014,-1.48571 6.94742,-0.43077c2.48086,0.95307 3.27816,2.97752 1.98682,3.42886z" fill="#0f002d" stroke-width="1" stroke-linecap="butt"/><path d="M256.8841,176.06648c-0.95921,2.7737 -6.30609,1.26373 -8.97688,-1.04081c-0.32786,-0.2829 1.61204,-4.88723 2.10007,-5.36478c0.25229,-0.24688 8.07848,2.93073 6.87681,6.40559z" fill="#c168ee" stroke-width="1" stroke-linecap="round"/><path d="M260.74491,166.51275c0,0 -5.77972,-0.67818 -10.44349,2.56719c-3.99589,2.78061 -9.34136,4.62266 -13.12667,2.49359" fill="none" stroke-width="1" stroke-linecap="round"/><path d="M255.22857,164.13135c-2.86592,1.03477 -5.50221,0.22141 -7.78315,0.74081c-4.67667,1.06493 -7.99937,-0.20753 -7.99937,-0.20753" fill="none" stroke-width="1" stroke-linecap="round"/></g><g><g><g fill="none" stroke="none" stroke-width="1" stroke-linecap="butt" font-family="sans-serif" font-weight="normal" font-size="12" text-anchor="start"/><path d="M297.61296,190.02762c-2.83209,-1.70906 -15.8465,-7.60638 -9.04748,-14.41113c-26.41833,-2.67098 -25.34989,-6.98898 -25.61942,-9.37796c-0.29859,-2.64661 1.93905,-2.22136 6.98545,-1.32725c4.30515,0.76278 7.40872,4.01453 13.07113,4.84699c17.72542,2.60589 19.72216,4.94998 19.80744,5.00115c15.23069,9.13785 0.22548,18.54055 -5.19713,15.2682z" fill="#5e1284" stroke="#0f002d" stroke-width="1.5" stroke-linecap="round"/></g><g fill="#e9caf8" stroke="#0f002d" stroke-width="1.5" stroke-linecap="butt"><path d="M288.60245,181.73423c0.50888,1.49873 -0.59696,3.67611 -2.46997,4.86332c-1.873,1.18721 -3.8039,0.93466 -4.31278,-0.56407c-0.50888,-1.49873 0.02819,-1.93752 2.28897,-2.74124c1.67696,-1.76459 3.98489,-3.05674 4.49377,-1.55801z"/><path d="M303.06469,180.71542c4.01096,6.57035 -1.42574,11.16731 -6.43429,10.16008c-2.7169,-0.54638 -4.03043,-1.71062 -5.94924,-3.56241c-5.3225,-0.00343 -3.27689,-4.64133 -1.82378,-6.17084c1.00994,-1.06304 -0.52844,1.27326 -1.71077,1.5847c-1.04408,0.27502 -1.99428,-0.31374 -1.99428,-0.31374c0,0 -4.47336,1.92142 -6.23398,0.25343c-1.88495,-1.78578 4.09676,-7.13415 9.45122,-7.13415c5.35447,0 10.92451,-0.9937 14.69512,5.18293z"/></g></g><g><path d="M247.32277,102.32888c9.41589,-7.95279 15.3034,-4.62908 15.3034,-4.62908c0,0 6.33522,-12.37867 24.49659,-5.75478c24.9862,-4.7084 24.05497,5.53471 24.05497,5.53471c0,0 7.08692,9.31013 6.28401,16.16957c-0.88013,7.5191 -9.5225,7.79406 -10.84226,9.96321c-0.86858,1.42762 1.46859,5.87794 1.1423,9.1234c-0.27875,2.77263 -3.15876,4.37885 -3.15876,4.37885c0,0 -0.12651,4.29775 -0.49555,5.34547c-0.5836,1.65685 -5.00448,1.06683 -5.00448,1.06683l-1.3068,3.60666c0,0 -6.92487,5.84035 -21.14965,6.46766c-13.01116,0.57378 -21.30718,-3.8094 -21.30718,-3.8094c0,0 -13.17502,-0.16145 -12.8285,-13.18229c-14.21919,-10.01111 -3.2799,-15.86836 -3.2799,-15.86836c0,0 0.63878,-12.11749 8.0918,-18.41242z" fill="#3d2747" stroke="#0f002d" stroke-width="1.5" stroke-linecap="round"/><g><g><path d="M279.88626,136.51025c-0.03335,3.45162 -6.43943,11.85716 -15.67624,10.55041c-7.80712,-1.44541 -7.4992,-6.12004 -7.75178,-9.56256c-0.25259,-3.44252 1.40991,-10.65256 6.92965,-8.75973c3.40119,1.16633 16.54699,2.74055 16.49837,7.77187z" fill="#2f1e38" stroke="none" stroke-width="0" stroke-linecap="butt"/><path d="M279.41453,134.35149c0,0 3.79796,4.02776 -4.99605,10.38952c-6.6683,4.82398 -14.29958,1.36648 -14.29958,1.36648" fill="none" stroke="#0f002d" stroke-width="1" stroke-linecap="round"/></g><path d="M307.30733,122.47527c0,0 -0.60711,6.79631 -7.08351,10.11119c-9.99628,5.11649 -14.65226,-1.22086 -14.65226,-1.22086c0,0 -17.49026,8.44055 -22.12157,-2.31302c-5.74767,-0.31553 -2.82443,-4.67655 -2.82443,-4.67655" fill="#3d2747" stroke="#0f002d" stroke-width="1.5" stroke-linecap="round"/></g></g><g stroke="#0f002d" stroke-linecap="round"><path d="M255.44565,142.04779c0.00325,-0.94689 5.21313,6.77736 11.74327,7.62385c6.12926,0.79452 13.43398,-3.56325 16.48477,-4.24794c1.83206,-0.39107 4.49273,1.41626 6.768,1.98734c3.38531,0.84972 6.7951,0.04325 6.45421,0.34658c-0.96936,0.86254 -15.71443,25.30345 -28.22159,23.65266c-11.37896,-1.50188 -10.65146,-12.10377 -13.22863,-29.36249z" fill="#e9caf8" stroke-width="1.5"/><g><path d="M256.99818,147.75397c0,0 5.28433,6.25965 10.4255,6.86425c3.19426,0.37564 6.12357,-1.395 10.09755,-1.84343c2.031,-0.22919 4.98956,0.31579 7.72173,0.18729c2.61379,-0.12294 5.04852,-0.92436 5.04852,-0.92436c0,0 -12.17167,17.63163 -17.75081,18.43155c-4.30197,0.6168 -7.88338,-0.68952 -9.913,-2.04154c-4.29812,-2.86318 -5.62948,-20.67375 -5.62948,-20.67375z" fill="#0f002d" stroke-width="1.5"/><path d="M257.59326,149.01289c0,0 2.58328,3.64521 7.52213,5.29004c3.94824,1.31492 8.68376,-0.97386 12.2994,-1.18297c4.78302,-0.27661 7.7631,0.02774 7.7631,0.02774l-3.95603,5.84547l-2.87062,-5.42136l-4.19304,5.98463l-2.7657,-4.43237l-4.99457,4.2923l-2.28692,-5.08431l-5.33809,3.56703l-1.17966,-8.88622z" fill="#ffffff" stroke-width="1"/><path d="M261.99016,168.26657c-0.40342,-0.859 1.19639,-2.02634 3.57056,-0.14261c3.98958,-0.50277 4.68468,2.51657 2.85595,3.13274c-0.84855,0.28591 -2.14287,-0.36755 -3.21581,-0.80882c-2.22665,-0.91575 -3.0276,-1.79145 -3.21069,-2.18131z" fill="#ff4848" stroke-width="1"/></g></g></g></g></svg>