<svg version="1.1" xmlns="http://www.w3.org/2000/svg" xmlns:xlink="http://www.w3.org/1999/xlink" width="103.28829" height="126.87393" viewBox="0,0,103.28829,126.87393"><defs><radialGradient cx="279.40859" cy="239.42836" r="7.3567" gradientUnits="userSpaceOnUse" id="color-1"><stop offset="0" stop-color="#54606d"/><stop offset="1" stop-color="#2c3136"/></radialGradient></defs><g transform="translate(-185.07813,-117.43152)"><g data-paper-data="{&quot;isPaintingLayer&quot;:true}" stroke-miterlimit="10" stroke-dasharray="" stroke-dashoffset="0" style="mix-blend-mode: normal"><g fill="#ffa000" fill-rule="nonzero" stroke="#ffa000" stroke-width="1.2" stroke-linecap="butt" stroke-linejoin="miter"><path d="M226.95988,138.96081c-1.35904,4.37148 -21.14825,12.62506 -21.14825,12.62506c0,0 -2.87422,-0.10607 -4.22829,-0.22724c-10.14103,-0.90732 -16.96779,-4.2738 -15.76885,-8.13033c1.35904,-4.37148 12.5155,-7.71722 24.91866,-7.47294c12.40316,0.24427 17.58576,-1.16603 16.22672,3.20544z"/><path d="M211.56218,134.66422l-11.80291,-3.57937c0,0 14.39864,-6.55406 22.31163,-8.46844c9.57028,-2.31533 31.08937,-4.45083 31.08937,-4.45083l-13.82374,17.98097z"/><path d="M203.31122,152.5601c0,0 -2.9974,-7.31474 -3.60557,-10.87547c-0.58999,-3.45441 0.00945,-10.17962 0.00945,-10.17962l26.115,-4.46031c0,0 0.65368,7.6654 1.27008,11.27437c0.58011,3.39649 2.32603,9.78072 2.32603,9.78072z" data-paper-data="{&quot;index&quot;:null}"/><path d="M229.00263,148.10614c0,0 -1.15816,-6.53251 -2.15994,-9.82934c-1.06446,-3.50308 -4.0502,-10.60797 -4.0502,-10.60797l31.03443,-9.43021c0,0 3.9165,5.63293 4.93538,8.98598c1.05023,3.45624 1.27475,11.45131 1.27475,11.45131z"/></g><g fill="#ffa000" fill-rule="evenodd" stroke="#ffa000"><path d="M225.3406,194.11078c0.61807,0.86096 3.39939,2.1524 -0.20602,4.52005c-3.70843,2.26002 -13.08251,5.381 -22.25057,-3.12099c-9.88914,-9.25531 -4.63554,-21.84687 -0.10301,-22.27734c4.42951,-0.43048 2.67831,7.10292 5.87168,15.49729c4.53253,12.16107 16.06986,4.52005 16.68793,5.381z" stroke-width="1.2" stroke-linecap="round" stroke-linejoin="round"/><path d="M205.66533,178.82874c0.51506,4.73528 1.54517,7.96388 1.54517,7.96388c0,0 -1.6482,-2.1524 -4.12048,-1.72192c-2.98734,0.5381 -3.91445,3.12099 -4.01747,3.87432c-0.72108,-1.82954 -1.33916,-4.08956 -1.13313,-7.96388c0.51506,-3.76669 2.78133,-7.64102 5.35663,-7.21054c2.06023,0.43048 1.95723,2.1524 2.36927,5.05814z" stroke-width="1" stroke-linecap="butt" stroke-linejoin="miter"/></g><path d="M230.18216,202.81588c-0.72108,1.06667 -2.78133,5.21482 -7.7259,8.77037c-3.39939,2.48888 -12.1554,-1.65926 -12.1554,-1.65926c0.92711,10.9037 -6.79879,10.66666 -8.24096,7.11111c-1.13313,-2.84445 -0.92711,-15.05185 1.33916,-16c3.50241,-1.42222 8.24096,0.94814 12.46444,0.94814c1.23614,0 2.5753,-3.08148 5.45963,-6.4c2.06023,-2.37037 4.73854,-6.75556 9.06505,-3.67407c3.70843,2.72592 1.7512,7.7037 -0.20602,10.9037z" fill="#ffa000" fill-rule="evenodd" stroke="#ffa000" stroke-width="1.2" stroke-linecap="round" stroke-linejoin="round"/><path d="M245.11583,180.07823c0.34422,2.6372 0.5737,12.70653 3.32746,14.26489c2.63903,1.43847 10.67084,-0.95898 11.1298,4.91479c0.45897,5.75391 -6.99916,5.87377 -13.19513,4.07568c-8.03181,-2.27759 -11.70351,-15.10399 -7.11389,-23.01561c1.7211,-2.75708 5.50753,-2.99682 5.85175,-0.23974z" fill="#ffa000" fill-rule="evenodd" stroke="#ffa000" stroke-width="1.2" stroke-linecap="round" stroke-linejoin="round"/><g fill="#ffa000" fill-rule="evenodd" stroke="#ffa000"><path d="M242.06354,204.3052c0.61807,3.55146 -4.3265,11.62296 -4.3265,11.62296c0,0 6.18071,4.41242 2.26626,8.93247c-2.88433,3.33622 -5.1506,0.64572 -12.67046,-6.9953c-1.13313,-1.18383 -1.13313,-2.90573 -0.20602,-4.08956c2.16325,-2.58289 5.2536,-6.9953 3.19337,-9.04008c-2.88433,-2.1524 -6.18071,-4.30479 -8.24096,-5.59624c-8.44697,-5.16576 -2.26626,-11.51534 2.36927,-20.44781c2.47229,-4.8429 3.70843,-3.55146 9.88914,-2.26002c3.50241,0.5381 5.56264,0.86096 7.82891,0.75334c3.39939,-0.10762 2.78133,5.05814 1.85421,7.74864c0,0 -1.44217,3.98195 -2.78133,6.02672c-1.6482,2.58289 -3.50241,5.16576 -4.73854,6.13434c0,0 4.84156,3.76669 5.56264,7.21054z" stroke-width="1.2" stroke-linecap="round" stroke-linejoin="round"/><path d="M235.70605,196.99016c0,0 -1.54517,-1.29144 -3.19337,-2.90573c-2.06023,-1.93716 -4.12048,-3.55146 -2.06023,-6.88768c1.85421,-2.58289 3.60541,-6.02672 8.24096,-2.90573c4.42951,2.90573 2.47229,5.59624 2.47229,5.59624c-2.26626,4.8429 -5.45963,7.10292 -5.45963,7.10292z" stroke-width="1" stroke-linecap="butt" stroke-linejoin="miter"/></g><path d="M229.56408,185.93166c-2.26626,1.0762 -6.48975,-0.86096 -7.62287,-0.64572c-0.30904,0.10762 -2.16325,5.70386 -3.29638,9.04008c-1.54517,4.73528 -8.54999,3.33622 -8.96203,-1.6143c-0.30904,-4.62766 3.70843,-13.56013 5.04758,-15.17442c2.98734,-3.76669 13.14349,-0.7444 19.92899,1.13701" fill="#ffa000" fill-rule="evenodd" stroke="#ffa000" stroke-width="1.2" stroke-linecap="round" stroke-linejoin="round"/><g fill="#ffa000" fill-rule="evenodd" stroke="#ffa000"><path d="M252.62258,120.64076c0.31757,-0.21859 0.84684,-0.1093 0.95269,0.3279l2.75223,11.69495c0,0 6.77472,5.13703 8.78596,8.74388c3.38736,6.01142 3.49322,10.92985 3.49322,10.92985c0,0 7.51571,2.29527 8.78596,8.52528c1.27025,6.23001 -3.38736,18.03425 -23.28809,22.0783c-19.90072,4.04404 -35.88482,-1.53017 -43.40053,-13.99021c-7.51571,-12.46003 4.34006,-27.32462 3.70491,-26.45024c0,0 -1.171,-13.72999 -0.74758,-13.51138l12.17992,2.03503c0,0 4.76347,-1.85807 9.73865,-2.07667c2.96394,-0.21859 5.50445,0 7.93912,0.4372z" stroke-width="1.2" stroke-linecap="butt" stroke-linejoin="miter"/><path d="M268.28911,152.77452c0,0 7.30399,1.96737 8.57425,8.19739c1.27025,6.23001 -3.81077,17.48777 -23.4998,21.42251c-25.61689,5.46492 -37.79022,-10.27407 -30.69794,-21.85971c7.09228,-11.69495 19.2656,-1.74878 28.15742,-2.40457c7.62156,-0.54649 8.46839,-7.4323 17.46606,-5.35563z" stroke-width="1" stroke-linecap="butt" stroke-linejoin="miter"/><path d="M234.9448,164.46946c0,-0.4372 0.42342,-0.7651 0.84684,-0.65579c2.01125,0.7651 7.72741,2.51386 14.0787,2.95106c5.71617,0.3279 9.10353,0 10.69136,-0.3279c0.52927,-0.1093 0.95269,0.4372 0.74098,0.98369c-0.95269,2.95106 -4.97519,11.14844 -16.08995,10.49266c-9.6328,-1.09299 -10.5855,-8.08809 -10.26793,-13.44371z" stroke-width="1.2" stroke-linecap="round" stroke-linejoin="round"/><path d="M287.76642,153.97681c-4.97519,4.15334 -12.59673,4.26264 -12.59673,4.26264" stroke-width="1.2" stroke-linecap="round" stroke-linejoin="round"/><path d="M286.39031,166.21825c-6.66886,0.54649 -10.79721,-1.53017 -10.79721,-1.53017" stroke-width="1.2" stroke-linecap="round" stroke-linejoin="round"/><path d="M250.39961,155.28839c2.22295,0 4.55176,0.21859 4.65762,0.98369c0.10586,1.53017 -1.48197,4.59054 -3.17565,4.69984c-1.9054,0.21859 -6.3513,-2.51386 -6.3513,-4.26264c-0.10586,-1.31158 2.75223,-1.42088 4.86933,-1.42088z" stroke-width="1.2" stroke-linecap="round" stroke-linejoin="round"/><path d="M202.7649,153.64891c0,0 9.10353,3.06036 12.80845,6.44861" stroke-width="1.2" stroke-linecap="round" stroke-linejoin="round"/><path d="M215.89091,163.92298c-4.55176,1.85807 -12.38503,0.65579 -12.38503,0.65579" stroke-width="1.2" stroke-linecap="round" stroke-linejoin="round"/><g><path d="M262.89051,142.50047c3.06979,4.91843 3.17565,10.49266 0.21171,12.46003c-2.96394,1.96737 -7.83327,-0.3279 -11.00891,-5.24633c-3.06979,-4.91843 -3.17565,-10.49266 -0.21171,-12.46003c2.96394,-2.07667 7.93912,0.3279 11.00891,5.24633z" stroke-width="1.2" stroke-linecap="round" stroke-linejoin="round"/><path d="M262.46708,148.73048c0,1.20228 -0.84684,2.18597 -1.9054,2.18597c-1.05855,0 -1.9054,-0.98369 -1.9054,-2.18597c0,-1.20228 0.84684,-2.18597 1.9054,-2.18597c1.05855,0 1.9054,0.98369 1.9054,2.18597" stroke-width="1" stroke-linecap="butt" stroke-linejoin="miter"/></g><g><path d="M236.63849,145.56081c3.17565,4.80913 2.96394,10.71125 0.10586,12.78793c-3.49322,2.07667 -8.15083,0.54649 -11.32648,-4.26264c-3.28151,-4.80913 -3.49322,-11.03915 -0.21171,-13.44371c3.28151,-2.51386 8.25669,0.1093 11.43234,4.91843z" stroke-width="1.2" stroke-linecap="round" stroke-linejoin="round"/><path d="M236.00334,151.90014c0,1.20228 -0.84684,2.18597 -1.9054,2.18597c-1.05855,0 -1.9054,-0.98369 -1.9054,-2.18597c0,-1.20228 0.84684,-2.18597 1.9054,-2.18597c1.05855,0.1093 1.9054,0.98369 1.9054,2.18597" stroke-width="1" stroke-linecap="butt" stroke-linejoin="miter"/></g></g><g fill-rule="evenodd" stroke="#ffffff"><g fill="#ffffff"><path d="M223.97517,193.93018c0.54439,0.72586 2.99417,1.81465 -0.18147,3.81076c-3.26637,1.90539 -11.52304,4.53662 -19.59823,-2.63125c-8.71032,-7.803 -4.08297,-18.41871 -0.09073,-18.78164c3.9015,-0.36293 2.35905,5.98835 5.17176,13.06549c3.99223,10.25277 14.15428,3.81076 14.69867,4.53662z" stroke-width="1.2" stroke-linecap="round" stroke-linejoin="round"/><path d="M206.64525,181.04616c0.45366,3.99223 1.36099,6.71421 1.36099,6.71421c0,0 -1.45172,-1.81465 -3.62931,-1.45172c-2.63125,0.45366 -3.44784,2.63125 -3.53857,3.26637c-0.63513,-1.54245 -1.17953,-3.44784 -0.99806,-6.71421c0.45366,-3.17564 2.44978,-6.44201 4.71809,-6.07909c1.81465,0.36293 1.72392,1.81465 2.08684,4.26443z" stroke-width="1" stroke-linecap="butt" stroke-linejoin="miter"/></g><path d="M228.23959,203.36637c-0.63513,0.81659 -2.44978,3.99223 -6.80495,6.71421c-2.99417,1.90539 -10.70644,-1.27025 -10.70644,-1.27025c0.81659,8.3474 -5.98835,8.16593 -7.2586,5.44395c-0.99806,-2.17758 -0.81659,-11.52304 1.17953,-12.2489c3.0849,-1.08879 7.2586,0.72586 10.97864,0.72586c1.08879,0 2.26831,-2.35905 4.80882,-4.89956c1.81465,-1.81465 4.1737,-5.17176 7.98446,-2.81271c3.26637,2.08684 1.54245,5.89762 -0.18147,8.3474z" fill="#ffffff" stroke-width="1.2" stroke-linecap="round" stroke-linejoin="round"/><path d="M243.84559,184.13106c0.2722,1.99612 0.45366,9.61765 2.63125,10.79718c2.08684,1.08879 8.43813,-0.72586 8.80106,3.72003c0.36293,4.35517 -5.53468,4.4459 -10.43424,3.0849c-6.35128,-1.72392 -9.25472,-11.4323 -5.62542,-17.42065c1.36099,-2.08684 4.35517,-2.26831 4.62736,-0.18147z" fill="#ffffff" stroke-width="1.2" stroke-linecap="round" stroke-linejoin="round"/><g fill="#ffffff"><path d="M241.57728,204.99956c0.54439,2.99417 -3.81076,9.79912 -3.81076,9.79912c0,0 5.44395,3.72003 1.99612,7.5308c-2.54051,2.81271 -4.53662,0.54439 -11.1601,-5.89762c-0.99806,-0.99806 -0.99806,-2.44978 -0.18147,-3.44784c1.90539,-2.17758 4.62736,-5.89762 2.81271,-7.62154c-2.54051,-1.81465 -5.44395,-3.62931 -7.2586,-4.71809c-7.44007,-4.35517 -1.99612,-9.70838 2.08684,-17.23919c2.17758,-4.08297 3.26637,-2.99417 8.71032,-1.90539c3.0849,0.45366 4.89956,0.72586 6.89568,0.63513c2.99417,-0.09073 2.44978,4.26443 1.63319,6.53274c0,0 -1.27025,3.35711 -2.44978,5.08103c-1.45172,2.17758 -3.0849,4.35517 -4.1737,5.17176c0,0 4.26443,3.17564 4.89956,6.07909z" stroke-width="1.2" stroke-linecap="round" stroke-linejoin="round"/><path d="M235.97763,198.83237c0,0 -1.36099,-1.08879 -2.81271,-2.44978c-1.81465,-1.63319 -3.62931,-2.99417 -1.81465,-5.80688c1.63319,-2.17758 3.17564,-5.08103 7.2586,-2.44978c3.9015,2.44978 2.17758,4.71809 2.17758,4.71809c-1.99612,4.08297 -4.80882,5.98835 -4.80882,5.98835z" stroke-width="1" stroke-linecap="butt" stroke-linejoin="miter"/></g><path d="M227.6952,187.03451c-1.99612,0.90733 -5.71615,-0.72586 -6.71421,-0.54439c-0.2722,0.09073 -1.90539,4.80882 -2.90344,7.62154c-1.36099,3.99223 -7.5308,2.81271 -7.89373,-1.36099c-0.2722,-3.9015 3.26637,-11.4323 4.4459,-12.79329c2.63125,-3.17564 11.57675,-0.6276 17.55339,0.95859" fill="#ffffff" stroke-width="1.2" stroke-linecap="round" stroke-linejoin="round"/><g><path d="M251.42177,129.23787c0.2722,-0.18147 0.72586,-0.09073 0.81659,0.2722l2.35905,9.70838c0,0 5.80688,4.26443 7.5308,7.2586c2.90344,4.99029 2.99417,9.07326 2.99417,9.07326c0,0 6.44201,1.90539 7.5308,7.07714c1.08879,5.17176 -2.90344,14.97088 -19.96116,18.32798c-17.05772,3.35711 -30.75833,-1.27025 -37.20034,-11.61377c-6.44201,-10.34351 3.72003,-22.68314 3.17564,-21.95728l-1.90539,-16.24113c-0.09073,-0.36293 0.36293,-0.63513 0.72586,-0.45366l10.97864,7.16787c0,0 4.08297,-1.54245 8.3474,-1.72392c2.54051,-0.18147 4.71809,0 6.80495,0.36293z" fill="#ffffff" stroke-width="1.2" stroke-linecap="butt" stroke-linejoin="miter"/><path d="M264.85018,155.91324c0,0 6.26054,1.63319 7.34934,6.80495c1.08879,5.17176 -3.26637,14.51721 -20.14262,17.78358c-21.95728,4.53662 -32.39152,-8.52886 -26.31244,-18.14651c6.07909,-9.70838 16.51333,-1.45172 24.13486,-1.99612c6.53274,-0.45366 7.2586,-6.16981 14.97088,-4.4459z" fill="#ffffff" stroke-width="1" stroke-linecap="butt" stroke-linejoin="miter"/><path d="M236.26943,165.62162c0,-0.36293 0.36293,-0.63513 0.72586,-0.54439c1.72392,0.63513 6.62348,2.08684 12.06743,2.44978c4.89956,0.2722 7.803,0 9.16399,-0.2722c0.45366,-0.09073 0.81659,0.36293 0.63513,0.81659c-0.81659,2.44978 -4.26443,9.25472 -13.79135,8.71032c-8.25666,-0.90733 -9.07326,-6.71421 -8.80106,-11.1601z" fill="#ffffff" stroke-width="1.2" stroke-linecap="round" stroke-linejoin="round"/><path d="M281.54497,156.9113c-4.26443,3.44784 -10.79718,3.53857 -10.79718,3.53857" fill="#ffffff" stroke-width="1.2" stroke-linecap="round" stroke-linejoin="round"/><path d="M280.36545,167.07334c-5.71615,0.45366 -9.25472,-1.27025 -9.25472,-1.27025" fill="#ffffff" stroke-width="1.2" stroke-linecap="round" stroke-linejoin="round"/><path d="M249.51638,158.00009c1.90539,0 3.9015,0.18147 3.99223,0.81659c0.09073,1.27025 -1.27025,3.81076 -2.72198,3.9015c-1.63319,0.18147 -5.44395,-2.08684 -5.44395,-3.53857c-0.09073,-1.08879 2.35905,-1.17953 4.1737,-1.17953z" fill="#000000" stroke-width="1.2" stroke-linecap="round" stroke-linejoin="round"/><path d="M208.68673,156.6391c0,0 7.803,2.54051 10.97864,5.35322" fill="#ffffff" stroke-width="1.2" stroke-linecap="round" stroke-linejoin="round"/><path d="M219.93757,165.16796c-3.9015,1.54245 -10.61571,0.54439 -10.61571,0.54439" fill="#ffffff" stroke-width="1.2" stroke-linecap="round" stroke-linejoin="round"/><g fill="#000000" stroke-width="1.2" stroke-linecap="round" stroke-linejoin="round"><path d="M260.22282,147.38438c2.63125,4.08297 2.72198,8.71032 0.18147,10.34351c-2.54051,1.63319 -6.71421,-0.2722 -9.43618,-4.35517c-2.63125,-4.08297 -2.72198,-8.71032 -0.18147,-10.34351c2.54051,-1.72392 6.80495,0.2722 9.43618,4.35517z"/></g><g fill="#000000" stroke-width="1.2" stroke-linecap="round" stroke-linejoin="round"><path d="M237.72115,149.92489c2.72198,3.99223 2.54051,8.89179 0.09073,10.61571c-2.99417,1.72392 -6.9864,0.45366 -9.70838,-3.53857c-2.81271,-3.99223 -2.99417,-9.16399 -0.18147,-11.1601c2.81271,-2.08684 7.07714,0.09073 9.79912,4.08297z"/></g></g></g><g fill-rule="nonzero" stroke="#001026" stroke-width="1.2" stroke-linejoin="miter"><path d="M256.76104,223.59025l21.30645,6.17621l-5.4955,12.02046l-18.13754,-11.30839c0,0 -0.74533,-2.52456 -0.36965,-3.63691c0.39849,-1.17979 2.6962,-3.25141 2.6962,-3.25141z" fill="#505a63" stroke-linecap="butt"/><path d="M279.62598,229.65633c3.69515,1.68934 5.32116,6.05432 3.63182,9.74945c-1.68934,3.69515 -6.05434,5.32116 -9.74945,3.63182c-3.69515,-1.68934 -5.32117,-6.05432 -3.63182,-9.74946c1.68934,-3.69515 6.05435,-5.32115 9.74947,-3.63182z" fill="url(#color-1)" stroke-linecap="butt"/><path d="M272.14708,230.88166c0,0 4.50866,1.06338 6.48154,1.93837c1.84385,0.81777 4.99479,3.15152 4.99479,3.15152" fill="none" stroke-linecap="round"/><path d="M269.42976,237.16844c0,0 5.62931,1.20756 7.73701,1.94121c1.55731,0.54209 3.76529,2.06258 3.76529,2.06258" fill="none" stroke-linecap="round"/><path d="M279.24579,229.42139c0,0 0.4805,5.00062 -0.04179,7.47558c-0.4544,2.15319 -2.91672,6.54373 -2.91672,6.54373" fill="none" stroke-linecap="round"/><path d="M273.74482,229.10243c0,0 0.17695,5.53048 -0.08587,7.97609c-0.20432,1.90109 -1.36023,5.47983 -1.36023,5.47983" fill="none" stroke-linecap="round"/></g></g></g></svg>