<svg version="1.1" xmlns="http://www.w3.org/2000/svg" xmlns:xlink="http://www.w3.org/1999/xlink" width="131.01308" height="148.79031" viewBox="0,0,131.01308,148.79031"><defs><linearGradient x1="189.2087" y1="154.47107" x2="197.69985" y2="200.45909" gradientUnits="userSpaceOnUse" id="color-1"><stop offset="0" stop-color="#cc2981"/><stop offset="1" stop-color="#a92292"/></linearGradient><linearGradient x1="298.72291" y1="143.87396" x2="295.43327" y2="190.52345" gradientUnits="userSpaceOnUse" id="color-2"><stop offset="0" stop-color="#cc2981"/><stop offset="1" stop-color="#a92292"/></linearGradient><linearGradient x1="279.40136" y1="213.14454" x2="279.40136" y2="237.25755" gradientUnits="userSpaceOnUse" id="color-3"><stop offset="0" stop-color="#9966ff"/><stop offset="1" stop-color="#66ebff"/></linearGradient><linearGradient x1="309.62405" y1="208.89782" x2="309.62405" y2="237.33108" gradientUnits="userSpaceOnUse" id="color-4"><stop offset="0" stop-color="#9966ff"/><stop offset="1" stop-color="#66ebff"/></linearGradient><radialGradient cx="239.50637" cy="203.57261" r="5.02555" gradientUnits="userSpaceOnUse" id="color-5"><stop offset="0" stop-color="#54606d"/><stop offset="1" stop-color="#2c3136"/></radialGradient></defs><g transform="translate(-182.47512,-89.65887)"><g data-paper-data="{&quot;isPaintingLayer&quot;:true}" fill-rule="nonzero" stroke-miterlimit="10" stroke-dasharray="" stroke-dashoffset="0" style="mix-blend-mode: normal"><g data-paper-data="{&quot;index&quot;:null}" stroke="#000000" stroke-width="0.90024" stroke-linecap="round" stroke-linejoin="miter"><path d="M279.93709,164.20002c0,0 2.51063,-13.37553 2.69357,-14.04778c0.1829,-0.67211 1.01484,-6.54085 9.44603,-13.46782c0,0 10.00993,29.97922 -0.16861,44.36917c-0.00046,-0.00078 -3.24769,-8.34748 -11.971,-16.85357zM280.11951,164.38014c-0.70377,-0.71393 -2.1969,-1.82397 -2.1969,-1.82397M292.46784,183.47735c0,0 -0.23354,-1.58594 -0.56023,-2.42452" fill="#be1e2d"/><path d="M294.91187,173.57614c0,0 -2.02754,-0.22766 -4.30192,-3.63183c-1.41429,-2.1095 -2.85262,-6.64557 -2.85262,-6.64557l-0.0007,0.17288c0.18221,-1.06506 0.32632,-2.26801 0.36239,-3.51408c0.06274,-2.10888 -0.16618,-5.07646 -0.47098,-7.95403l-0.02413,-0.40718c0,0 0.32331,-5.73926 5.76872,-9.73064l0.08812,-0.00381c1.2112,4.74492 2.78831,11.82458 3.02622,17.16791c0.26704,5.99376 -0.59783,10.98628 -1.64697,14.69024l0.05189,-0.14386v0v0v0v0v0zM286.80288,167.13486c0,0 0.82732,-3.19352 0.95446,-3.83614" fill="#929497"/></g><g data-paper-data="{&quot;index&quot;:null}" stroke="#000000" stroke-width="0.90024" stroke-linecap="round" stroke-linejoin="miter"><path d="M200.30275,190.87999c-12.04314,-12.86884 -6.21063,-43.93225 -6.21063,-43.93225c9.29597,5.7147 10.91964,11.41537 11.19276,12.05549c0.27308,0.6402 4.58217,13.54987 4.58217,13.54987c-7.4844,9.61563 -9.56429,18.32689 -9.56429,18.32689zM211.63752,170.65057c0,0 -1.32798,1.30309 -1.92785,2.10629M200.30275,190.87999c-0.20951,0.87523 -0.22472,2.47823 -0.22472,2.47823" fill="#be1e2d"/><path d="M196.37898,184.01771c-1.54358,-3.52733 -3.0797,-8.35513 -3.63293,-14.32896c-0.49305,-5.32626 0.10584,-12.55439 0.65926,-17.42012l0.08792,-0.00818c5.93886,3.21353 7.04052,8.85407 7.04052,8.85407l0.03156,0.40668c0.08995,2.89222 0.26753,5.86337 0.61696,7.94404c0.20546,1.22954 0.51213,2.40164 0.83772,3.43195l-0.02425,-0.17116c0,0 -0.80697,4.68973 -1.9208,6.97219c-1.78934,3.68232 -3.76706,4.18402 -3.76706,4.18402zM201.99575,172.72602c0.21347,0.6193 1.46814,3.67035 1.46814,3.67035" fill="#929497"/></g><path d="M197.67716,153.0165c0,0 -0.16057,-39.39317 47.53516,-43.15554c32.72872,-2.58173 47.1275,35.15667 47.1275,35.15667" data-paper-data="{&quot;index&quot;:null}" fill="none" stroke="#000000" stroke-width="7" stroke-linecap="round" stroke-linejoin="miter"/><path d="M244.41323,216.76773v0v0v0v0v0c-1.77131,0.54148 -5.27083,1.01122 -6.36813,0.71889c0,0 -4.24115,-1.33835 -4.05113,-3.7578c0.08078,-1.03387 0.71601,-1.76863 1.76288,-2.26951c-0.0447,-0.4144 -0.02712,-1.02489 0.40114,-1.49011c0.70906,-0.77265 2.24337,0.794 2.24337,0.794l-0.01718,0.00789c0.31578,-0.03703 0.63304,-0.06893 0.97412,-0.08997c1.92962,-0.11292 4.7967,0.27263 6.36339,0.41363c0,0 1.36355,0.08479 1.99982,1.54699c0.67713,1.55545 -1.53698,3.58451 -3.30829,4.12597z" data-paper-data="{&quot;index&quot;:null}" fill="#be1e2d" stroke="#231f20" stroke-width="0.78672" stroke-linecap="round" stroke-linejoin="round"/><path d="M259.18091,218.83142v0v0v0v0c0,0 -3.34431,2.93124 -5.31295,1.50907c-0.84543,-0.60145 -1.13955,-1.52954 -1.02774,-2.6848c-0.38002,-0.17588 -0.88927,-0.5058 -1.06653,-1.1143c-0.29296,-1.00557 1.84207,-1.50863 1.84207,-1.50863l-0.00207,0.01797c0.13388,-0.28604 0.27051,-0.57664 0.42815,-0.87952c0.90589,-1.7053 2.72127,-3.96062 3.65302,-5.22699c0,0 1.24154,-1.20245 2.48717,-0.75166c1.24564,0.4498 1.76031,2.5913 1.54731,3.53073c-0.21381,0.93952 -1.13579,5.53821 -2.54841,7.10815z" data-paper-data="{&quot;index&quot;:null}" fill="#be1e2d" stroke="#231f20" stroke-width="0.78672" stroke-linecap="round" stroke-linejoin="round"/><path d="M252.97586,218.43887c1.57611,-0.38626 3.46817,0.14731 3.46817,0.14731c0,0 0.62801,5.17892 0.80794,7.05083c0.18082,1.87466 1.02128,4.82978 1.02128,4.82978c0,0 0.47418,0.3121 0.30519,1.06722c-0.17262,0.75315 -1.84998,0.82965 -3.96261,1.13918c-2.10884,0.30509 -3.80518,-0.10486 -4.1026,-0.86718c-0.30027,-0.75882 0.33332,-1.07973 0.33332,-1.07973c0,0 1.23579,-6.10085 0.43787,-8.25226c0.0043,0.00468 -0.31805,-3.54289 1.69145,-4.03515z" data-paper-data="{&quot;index&quot;:null}" fill="#be1e2d" stroke="#231f20" stroke-width="0.90024" stroke-linecap="round" stroke-linejoin="round"/><path d="M246.17528,218.40698v0v0v0v0v0c2.73305,1.44176 2.88852,4.03625 2.88927,4.03899c-0.67838,2.18579 0.81309,7.43393 0.81309,7.43393c0,0 0.65152,0.28141 0.39942,1.05634c-0.25589,0.77652 -1.92229,1.28462 -4.04977,1.09903c-2.12379,-0.18729 -3.80185,-0.16759 -4.01753,-0.91257c-0.21568,-0.74499 0.24129,-1.0821 0.24129,-1.0821c0,0 0.14699,-1.75636 0.21803,-3.63861c0.06884,-1.87697 0.04697,-7.0409 0.04697,-7.0409c0,0 1.66873,-1.89911 3.45924,-0.95411z" data-paper-data="{&quot;index&quot;:null}" fill="#be1e2d" stroke="#231f20" stroke-width="0.90024" stroke-linecap="round" stroke-linejoin="round"/><g data-paper-data="{&quot;index&quot;:null}" stroke-width="0.90024"><path d="M258.12623,213.34543v0v0v0v0v0c0.37324,2.80747 -0.3706,7.95626 -3.60741,9.71957c-3.20146,1.74043 -6.56532,1.45081 -10.02058,-0.98291c-2.86279,-2.01715 -2.70943,-7.66179 -2.35993,-10.81594v0c0,0 0.1286,-7.307 6.29182,-8.11562c6.16132,-0.80855 8.93311,4.84093 9.35628,8.34593c0.14032,0.61795 0.25874,1.24819 0.33981,1.84896z" fill="#be1e2d" stroke="#000000" stroke-linecap="butt" stroke-linejoin="miter"/><path d="M256.31089,221.34768v0v0v0v0v0l-0.01743,0.14286c-0.48146,0.6447 -1.06932,1.1888 -1.77371,1.57266c-2.96544,1.61243 -6.06886,1.48341 -9.25649,-0.47906l-0.03114,-0.14448c0,0 -1.56473,-9.31853 4.36619,-9.64526c6.73463,-0.36787 6.77804,6.99939 6.7126,8.55329z" fill="#e6e7e8" stroke="#231f20" stroke-linecap="round" stroke-linejoin="round"/></g><g data-paper-data="{&quot;index&quot;:null}" stroke="#000000" stroke-linecap="butt" stroke-linejoin="miter"><g><g stroke-width="0.4"><path d="M277.72045,235.15296l-0.04403,-0.00378c-1.4536,-0.08076 -3.33194,-0.69131 -4.0305,-1.29227l-0.09862,0.09968l-1.15727,-0.42825l0.30193,-0.26159c0.03345,-0.03044 3.37455,-2.96215 3.42233,-6.14047l0.00484,-0.32691l0.30925,0.10695c0.1645,0.0579 0.54152,0.21309 0.66182,0.46179l0.04521,0.01793c1.72298,0.69049 3.30671,0.61946 3.75143,0.58085l0.24087,-0.01336c0.11245,0.0273 0.45368,0.10872 0.49102,0.39689c0.03751,0.29007 -0.28959,0.49122 -0.47244,0.57164c-0.09012,0.0116 -0.18133,0.02142 -0.27461,0.02953c-1.33309,0.11572 -2.97459,-0.10628 -3.78031,-0.48722c-0.02112,0.1613 -0.0551,0.34935 -0.1071,0.55984c1.67193,0.63798 3.18736,0.56714 3.62072,0.52952l0.24389,-0.01166c0.1115,0.02733 0.45274,0.1088 0.49007,0.39691c0.03751,0.29008 -0.28863,0.49114 -0.47148,0.57156c-0.08916,0.01156 -0.18133,0.02142 -0.27461,0.02953c-1.43956,0.12497 -3.2379,-0.14318 -3.93528,-0.55537c-0.07526,0.17169 -0.15805,0.34405 -0.24856,0.51515c1.89703,0.86998 3.63825,0.76438 3.74161,0.77439c0.10937,0.03511 0.44413,0.14086 0.45997,0.43281c0.01587,0.2919 -0.32497,0.46581 -0.51379,0.53249c-1.5128,0.07913 -3.54417,-0.35866 -4.21107,-0.87886c-0.12642,0.18373 -0.26652,0.37434 -0.41874,0.56696c1.79216,0.8971 3.45005,0.89272 3.55007,0.90775c0.10803,0.04186 0.43601,0.16812 0.43665,0.45949c-0.00136,0.29058 -0.35036,0.44713 -0.54295,0.50276c-1.46024,-0.00423 -3.37455,-0.51485 -4.11035,-1.09642c-0.13031,0.13942 -0.26707,0.28041 -0.41209,0.42494c1.72311,0.96572 3.34896,1.05147 3.44851,1.07222c0.10471,0.04694 0.42461,0.18906 0.40903,0.47997c-0.01645,0.29189 -0.37376,0.42921 -0.48366,0.46439z" fill="#871212"/><path d="M276.35113,227.13229c-0.04932,3.32463 -3.50401,6.31464 -3.50401,6.31464l0.6395,0.23775l0.16235,-0.16405c0.00773,0.01262 0.00926,0.01913 0.01807,0.03357c0.34689,0.51853 2.41799,1.27182 4.02254,1.36414c0,0 0.68533,-0.21897 0.04939,-0.50264c0,0 -1.84375,-0.08106 -3.74042,-1.24149c0.292,-0.27786 0.55347,-0.5464 0.78873,-0.80981c0.01212,0.01888 0.01718,0.0336 0.03328,0.055c0.37373,0.50008 2.48245,1.13997 4.08989,1.1447c0,0 0.67159,-0.25667 0.02158,-0.50591c0,0 -1.86241,0.02123 -3.83048,-1.05427c0.29643,-0.35796 0.55038,-0.70177 0.75743,-1.02822c0.02091,0.03328 0.0411,0.06857 0.07713,0.11196c0.40132,0.47866 2.54157,1.00098 4.14799,0.91756c0,0 0.65617,-0.2924 -0.00575,-0.50354c0,0 -1.91269,0.1309 -3.97108,-0.88073c0,0 -0.01414,0.00123 -0.03409,0.00105c0.21446,-0.37265 0.37234,-0.71859 0.4902,-1.03449c0.02138,0.02759 0.038,0.05554 0.07034,0.08884c0.41232,0.41982 2.37789,0.76652 3.93897,0.63102c0.08948,-0.00776 0.1779,-0.01735 0.26515,-0.02871c0,0 0.63299,-0.34068 -0.04375,-0.50408c0,0 -0.05904,0.00895 -0.16831,0.01843c-0.50872,0.04416 -2.10461,0.10673 -3.85805,-0.5953c0,0 -0.00185,0.00016 -0.00564,0.00049c-0.01129,0.00098 -0.03846,0.0052 -0.0711,0.01186c0.14456,-0.48905 0.19017,-0.88219 0.19603,-1.15327c0.01059,0.01238 0.01401,0.01873 0.02567,0.03292c0.41232,0.41982 2.37789,0.76652 3.93897,0.63102c0.08948,-0.00776 0.1779,-0.01735 0.26515,-0.02871c0,0 0.63298,-0.34068 -0.0436,-0.50218c0,0 -0.05808,0.00887 -0.16545,0.01819c-0.50686,0.04401 -2.10465,0.10675 -3.86011,-0.59703c0,0 0,0 -0.00095,0.00008c-0.01034,0.0009 -0.1006,0.0106 -0.18022,0.04505c-0.00258,-0.01875 -0.00438,-0.02902 -0.00438,-0.02902c0.18506,-0.2515 -0.51096,-0.49482 -0.51096,-0.49482M275.88841,226.47008l0.61871,0.21686c0.21731,0.07603 0.56867,0.23061 0.74728,0.49515c1.66328,0.65862 3.18549,0.58915 3.61412,0.55195c0.08478,-0.00736 0.13347,-0.01537 0.13913,-0.01585l0.08916,-0.01156l0.08811,0.01989c0.506,0.12124 0.64431,0.39112 0.67064,0.59578c0.0572,0.44023 -0.37791,0.70962 -0.51301,0.7821l-0.07707,0.04177l-0.08731,0.0114c-0.09296,0.01184 -0.18793,0.022 -0.284,0.03034c-1.16542,0.10116 -2.68355,-0.04517 -3.61716,-0.37892c-0.00393,0.02026 -0.00857,0.04343 -0.01328,0.06568c1.54688,0.54253 2.91859,0.47846 3.32279,0.44337c0.08574,-0.00744 0.13548,-0.01362 0.14208,-0.01419l0.08898,-0.01346l0.08811,0.01989c0.50528,0.12321 0.64353,0.3931 0.66985,0.59777c0.0572,0.44023 -0.37791,0.70962 -0.51301,0.7821l-0.07707,0.04177l-0.08731,0.0114c-0.09291,0.01184 -0.18793,0.022 -0.284,0.03034c-1.26435,0.10975 -2.94494,-0.07091 -3.8424,-0.4695c-0.01299,0.0249 -0.02483,0.05249 -0.03789,0.07734c1.74678,0.73493 3.29748,0.64396 3.31351,0.64257l0.08964,-0.00587l0.08592,0.02768c0.49495,0.15728 0.61237,0.43849 0.62361,0.64447c0.02406,0.4412 -0.42994,0.67899 -0.5688,0.74138l-0.08011,0.03923l-0.08796,0.00382c-1.32766,0.06873 -3.25927,-0.2695 -4.16175,-0.79199c-0.0373,0.05162 -0.0755,0.10336 -0.11461,0.15608c1.63181,0.74491 3.07921,0.74268 3.09536,0.74321l0.08932,0.00075l0.08434,0.03159c0.48598,0.18564 0.58681,0.47208 0.58683,0.67997c-0.00138,0.4434 -0.46724,0.65373 -0.61054,0.70891l-0.0818,0.03081l-0.08727,0.00093c-0.31625,-0.00194 -0.66495,-0.02769 -1.0259,-0.07418l0.04838,0.02142c0.47506,0.21312 0.56105,0.50371 0.54941,0.70885c-0.02413,0.44347 -0.50158,0.62919 -0.6476,0.67509l-0.08307,0.02714l-0.08688,-0.00574c-1.30305,-0.07389 -3.14215,-0.60429 -4.00327,-1.20825l-0.05143,0.05289l-0.28646,-0.10707l-0.63934,-0.23592l-0.74933,-0.2776l0.60384,-0.52324c0.03266,-0.02846 3.295,-2.89449 3.34073,-5.96535l0.00977,-0.65299zM274.81728,233.02624c-0.01298,0.01441 -0.02607,0.02788 -0.04017,0.04053c1.45218,0.74244 2.75515,0.85907 2.95579,0.87393c-1.10081,-0.16071 -2.27623,-0.50292 -2.91562,-0.91446z" fill="#000000"/></g><path d="M252.87816,211.76995c0,0 5.71319,-0.93067 10.44185,2.9692c4.72881,3.90178 3.45148,8.32302 13.49459,12.39567c0,0 0.9984,2.84069 -3.47443,6.90718c0,0 -8.57477,-3.84412 -11.15746,-9.98818c-2.58254,-6.14222 -8.42913,-9.21891 -11.37216,-8.98432l-3.24659,-0.18899z" fill="#ba2915" stroke-width="0.4"/><g fill="#871212" stroke-width="0.4"><path d="M274.18648,225.98941c0,0 0.56152,3.85538 -3.76348,6.50801l-1.16117,-0.7905c0,0 3.83877,-4.525 3.5086,-6.51342z"/><path d="M270.53684,223.60672c0,0 -0.01617,3.00658 -4.15876,5.85792l-1.41475,-1.26211c0,0 4.04596,-2.70717 4.35203,-5.81866z"/><path d="M267.93091,220.67206c0,0 -0.74033,3.10649 -5.20249,4.56168l-0.77502,-1.63468c0,0 4.63907,-1.91006 5.28218,-3.96016z"/><path d="M265.32391,216.80723c0,0 -0.58648,2.64796 -4.98892,3.99265l-1.11247,-1.31206c0,0 4.73645,-2.64752 5.16266,-3.76283z"/><path d="M260.50209,212.97142c0.33766,0.08459 1.66412,0.92056 1.66412,0.92056l-5.43817,3.27892l-1.69991,-1.25633c0,0 5.13631,-3.02775 5.47398,-2.94314z"/><path d="M256.96238,212.09598l-4.44647,3.09029l-2.239,-0.15116l4.40374,-3.40739l2.28174,0.46826"/></g><path d="M273.38521,234.32007l-0.14108,-0.06181c-0.35366,-0.15919 -8.68883,-3.95478 -11.27849,-10.11344c-2.45207,-5.83082 -8.13885,-9.07894 -11.16873,-8.83868l-4.02605,-0.23428l6.06901,-3.53489c0,0 0.16753,-0.02784 0.46996,-0.05409c1.36512,-0.11851 6.13318,-0.24765 10.16052,3.0743c1.70521,1.40487 2.6606,2.90806 3.58498,4.3608c1.68829,2.65269 3.43482,5.39711 9.84846,7.99745l0.09839,0.03983l0.03529,0.10043c0.04385,0.12244 0.99819,3.0353 -3.53783,7.16139l-0.11445,0.10296zM276.6151,227.30782c-6.46307,-2.64442 -8.24031,-5.43653 -9.95936,-8.13778c-0.9463,-1.48595 -1.83996,-2.89099 -3.48711,-4.24967c-3.8872,-3.20601 -8.49815,-3.08195 -9.81805,-2.96738c-0.21945,0.02 -0.36292,0.04007 -0.37224,0.03136l-4.62219,2.70596l2.43577,0.14354c3.07317,-0.24494 8.97483,2.86492 11.60878,9.12893c2.33728,5.55878 9.78028,9.26767 10.896,9.79728c3.70824,-3.42677 3.42673,-5.93674 3.3184,-6.45227z" fill="#000000" stroke-width="0.4"/><path d="M276.6628,227.32284c0.10833,0.51553 0.37726,3.04608 -3.33099,6.47284c-1.11572,-0.52962 -8.60191,-4.22478 -10.93919,-9.78356c-2.63394,-6.26401 -8.48622,-9.39501 -11.55939,-9.15007l-2.5204,-0.1967l4.63248,-2.71851c0.00932,0.00871 0.15359,-0.01205 0.37304,-0.03205c1.31991,-0.11457 5.96681,-0.25029 9.854,2.95572c1.64714,1.35868 2.57409,2.77993 3.52039,4.26588c1.71903,2.70126 3.50699,5.54205 9.97006,8.18646z" data-paper-data="{&quot;noHover&quot;:true,&quot;origItem&quot;:[&quot;Path&quot;,{&quot;applyMatrix&quot;:true,&quot;segments&quot;:[[[431.94081,453.0728],[0,0],[-0.17472,1.03898]],[[439.09485,465.69792],[-7.688,-6.5475],[2.1867,-1.14874]],[[460.07531,445.23676],[-4.22042,11.29778],[4.75612,-12.7311]],[[482.53429,426.05348],[-6.16114,-0.24052],[0,0]],[487.39021,425.56932],[[477.93421,420.53628],[0,0],[-0.01792,0.01816]],[[477.18779,420.50378],[0.44016,0.02218],[-2.64692,-0.12204]],[[457.80819,427.229],[7.5083,-6.72166],[-3.1815,2.84856]],[[451.18397,436.00386],[1.77068,-3.04612],[-3.21644,5.53734]],[[431.94083,453.07286],[12.7013,-5.80806],[0,0]]],&quot;closed&quot;:true,&quot;fillColor&quot;:[0,0,0,1],&quot;strokeColor&quot;:[0,0,0],&quot;strokeWidth&quot;:0.4}]}" fill="#000000" stroke-width="0.2"/></g><g stroke-width="0.4"><path d="M239.16229,207.54154c0.00096,-0.00009 6.9933,-3.51546 17.19758,5.38796c0,0 -5.24287,2.94776 -10.64792,2.28933c-5.40596,-0.65841 -7.23075,-1.86589 -9.0771,-0.57702c0,0 -1.23355,-1.90904 2.1173,-3.62375c0,0 -1.38715,-2.31145 0.41015,-3.47652z" fill="#ba2915"/><g fill="#871212"><path d="M249.50081,208.42384c-2.20861,2.51733 -1.0484,6.85036 -1.0484,6.85036l-0.84791,0.0736c-1.51672,-5.09376 1.08135,-7.30219 1.08135,-7.30219z"/><path d="M245.59205,207.10205c0,0 -2.23634,2.13244 -1.29992,7.68189l-1.08735,-0.18087c0,0 -0.91566,-4.5451 1.12309,-7.71779z"/><path d="M252.7396,210.174c-0.80383,0.64692 -0.95311,4.526 -0.95311,4.526l-0.59938,0.14793c-0.71514,-2.77039 0.85709,-5.16124 0.85709,-5.16124z"/><path d="M238.32922,213.98595c-0.00095,0.00008 -0.25056,-2.19754 1.10499,-3.32325c0.05015,-0.16573 -0.09383,-2.72087 0.45831,-3.39144l1.3265,-0.31167c0,0 -1.25362,1.35894 -0.75365,3.48832c0,0 -1.49848,1.57858 -1.14602,3.45209l-0.99015,0.08596z"/></g><path d="M236.25154,213.21137c0.22934,-0.8571 0.9618,-1.62689 2.17809,-2.28967c-0.47447,-0.93841 -0.84606,-2.63846 0.62607,-3.5911c0.04279,-0.02082 1.03307,-0.5102 2.80517,-0.66403c3.1872,-0.27668 8.31486,0.5549 14.65449,6.08523l0.25258,0.2201l-0.29233,0.16396c-0.0353,0.02017 -3.58143,1.99004 -7.80114,2.35635c-1.03822,0.09013 -2.04355,0.07773 -2.99136,-0.03741c-1.82667,-0.22298 -3.25152,-0.5084 -4.39631,-0.7384c-2.22096,-0.44606 -3.41906,-0.64483 -4.51548,0.11955l-0.20144,0.13991l-0.1327,-0.20585c-0.01754,-0.02698 -0.42356,-0.66944 -0.18563,-1.55864zM236.71013,213.32248c-0.11351,0.41992 -0.0466,0.76436 0.02473,0.97367c1.15836,-0.68529 2.4419,-0.48633 4.64354,-0.04429c1.13604,0.22788 2.55134,0.51228 4.36062,0.73204c0.91426,0.11142 1.88923,0.1236 2.89351,0.03641c3.41518,-0.29647 6.37994,-1.67009 7.30931,-2.13899c-6.09221,-5.21767 -10.99054,-6.00935 -14.04113,-5.74453c-1.6581,0.14394 -2.60647,0.60214 -2.61022,0.60247c-1.30397,0.84502 -0.72387,2.37701 -0.44898,2.94166c0.55321,-0.23217 1.8996,-0.56641 3.89357,0.43561c0,0 -2.06243,-0.81762 -4.04523,0.21162c-1.09048,0.59207 -1.78192,1.27665 -1.97972,1.99432z" fill="#000000"/></g><g stroke-width="0.4"><path d="M267.90243,207.83546c0.88769,1.34673 -0.54301,1.94557 -0.54301,1.94557c-17.85692,6.83058 -20.45717,1.47967 -23.07406,-0.90348c-2.61504,-2.38332 -5.12114,-1.33522 -5.12114,-1.33522c-1.76072,-3.88132 2.36423,-6.24696 2.36423,-6.24696l0.10477,1.20684c12.25161,7.87421 21.71027,-1.39012 21.70078,-1.49938c-0.0095,-0.10932 1.08991,0.25373 1.77064,1.26156c0.68077,1.00778 -0.42017,1.99374 -0.42017,1.99374c-0.08512,1.07523 2.3303,2.23053 3.21796,3.57732z" fill="#ba2915"/><g fill="#871212"><path d="M262.29954,201.92317c0,0 1.65601,0.43338 1.05822,3.11456c0,0 0.18779,1.48535 1.47283,2.62014c1.28499,1.13475 1.33245,2.02006 1.57963,2.4732l-1.84521,0.61298c0,0 -0.22978,-1.61932 -1.07397,-2.46493c-0.84414,-0.84555 -1.09928,-2.15513 -1.22779,-2.73912c-0.12852,-0.584 0.57313,-2.06875 -0.77738,-2.93014z"/><path d="M259.28578,203.9019c-0.03825,-0.24344 0.65784,0.97379 0.6064,2.65549c-0.05144,1.68171 1.02289,2.44561 1.50229,3.51739c0.47935,1.07183 0.57436,1.54296 0.57436,1.54296l-1.34984,0.38202c0,0 -0.86011,-2.33067 -1.5106,-3.26326c-0.65049,-0.93264 -0.42003,-1.91895 -0.50442,-2.89117c-0.08441,-0.97227 -0.42597,-1.37548 -0.42597,-1.37548z"/><path d="M255.68564,205.1627c0.00647,0.07445 0.82342,1.74344 0.58142,3.50435c-0.24204,1.76091 0.99565,3.83758 0.99565,3.83758l-1.30764,0.20085c0,0 -0.96758,-1.92835 -0.92415,-3.70239c0.04343,-1.77403 0.05146,-2.32624 -0.34537,-3.61782z"/><path d="M252.0766,205.62029c0,0 -0.669,2.54979 0.25939,4.69412c0,0 -0.53361,1.36479 0.64585,2.65014l-0.70567,0.06125c0,0 -1.10825,-0.79325 -0.95769,-2.47026c0,0 -1.29179,-0.96143 -0.47222,-4.82753l1.23042,-0.10681z"/><path d="M248.14654,205.28847c0,0 -1.59301,2.40312 -0.48666,5.37207c0,0 -0.17656,0.46998 0.30593,1.23876l-1.08085,-0.59819c0,0 -0.28577,-0.51433 -0.24016,-0.71098c0.04556,-0.19666 -1.24204,-1.62353 0.12616,-5.63219z"/><path d="M243.85998,203.79159c0,0 -1.56454,1.34223 -0.90573,4.15264l-1.09124,-0.49856c0,0 -0.25729,-2.96387 1.08882,-4.08881z"/><path d="M241.40767,202.63758c0,0 -2.68687,1.10843 -2.15957,4.4931l0.01838,0.36481c0,0 -2.22822,-3.0121 2.2687,-6.11151z"/></g><path d="M238.94864,207.63981c-1.82878,-4.03103 2.41887,-6.52508 2.46124,-6.55061l0.32096,-0.18447l0.12668,1.45935c3.65399,2.32348 7.41164,3.33665 11.17255,3.01017c5.89292,-0.51156 9.66453,-4.0606 10.07079,-4.4651l0.00385,-0.14179l0.23553,-0.02043c0.28075,-0.02437 1.31694,0.43055 1.9597,1.38374c0.58381,0.86438 0.06522,1.76844 -0.36002,2.20589l0.00934,0.02008c-0.00788,0.00732 -0.01699,0.01194 -0.02491,0.01927c0.05902,0.48276 0.78311,1.08246 1.48758,1.66393c0.63504,0.52483 1.29148,1.06677 1.68708,1.66559c0.30831,0.46777 0.40106,0.91342 0.2764,1.32484c-0.20097,0.65912 -0.89559,0.95671 -0.93232,0.97128c-4.94448,1.891 -9.13331,2.99597 -12.45145,3.28402c-6.16895,0.53552 -8.44162,-1.78544 -10.09991,-3.48012c-0.26445,-0.26941 -0.51455,-0.52581 -0.76593,-0.75363c-1.51415,-1.37973 -2.98206,-1.57029 -3.94584,-1.48663c-0.56712,0.04923 -0.92287,0.19403 -0.92654,0.19531l-0.21072,0.08756l-0.09404,-0.20824zM241.32677,201.70588c-0.89235,0.62232 -3.22865,2.59826 -2.03335,5.54243c0.70717,-0.20757 2.93425,-0.56607 5.15038,1.45324c0.2576,0.23392 0.51387,0.49642 0.78468,0.77284c0.24995,0.25456 0.51008,0.51764 0.78922,0.78105c4.42297,1.04557 8.52966,-0.78697 8.52966,-0.78697c-2.84255,1.96105 -6.66959,1.53673 -7.92065,1.32925c1.57563,1.30034 3.86789,2.40368 8.32408,2.01683c3.27383,-0.2842 7.41991,-1.37882 12.31571,-3.25136c0.00549,-0.00238 0.52318,-0.2277 0.65721,-0.67405c0.08105,-0.269 0.00757,-0.57967 -0.21875,-0.92355c-0.35628,-0.53956 -0.98516,-1.05923 -1.59351,-1.5608c-0.70863,-0.58584 -1.37895,-1.14556 -1.58987,-1.72719c-1.27041,0.8488 -2.86377,0.9406 -2.86377,0.9406c1.62772,-0.55993 2.42749,-1.11156 2.79516,-1.43584l0.00246,-0.03722l0.07048,-0.0631c0.03871,-0.03467 0.93793,-0.86259 0.38236,-1.68577c-0.52518,-0.77927 -1.30512,-1.1254 -1.49807,-1.17228c-0.83029,0.94344 -4.83538,4.14351 -10.33823,4.62121c-3.8994,0.3385 -7.79196,-0.71988 -11.5678,-3.14575l-0.09657,-0.06285l-0.08081,-0.9308z" fill="#000000"/></g></g><g data-paper-data="{&quot;index&quot;:null}" stroke="#000000" stroke-width="0.90024" stroke-linecap="round" stroke-linejoin="round"><path d="M293.91123,182.4519l-0.40242,1.58792c-2.29723,8.04328 -6.12005,12.88355 -6.12005,12.88355c0,0 0.03319,-1.40408 -0.2364,-3.6327l-0.1349,-0.03467c-0.2791,1.20889 -0.77254,2.77922 -1.64743,4.74145c-1.9181,4.3089 -8.28072,8.32298 -8.28072,8.32298c0,0 0.29402,-1.45051 0.35747,-3.78855l-0.12321,-0.34646c-0.67431,0.61627 -1.37932,1.18986 -2.09353,1.75069c-0.21007,0.16598 -0.42035,0.32825 -0.6347,0.48637c-0.65189,0.48612 -1.318,0.95346 -2.00074,1.39512c-0.26991,0.17274 -0.55159,0.33573 -0.82572,0.5025c-0.49998,0.30518 -1.00845,0.59653 -1.52557,0.88058c-0.38007,0.20643 -0.76289,0.4123 -1.15398,0.60702c-0.40465,0.20409 -0.82241,0.39204 -1.23694,0.58613c-0.76291,0.34807 -1.53905,0.6784 -2.33496,0.98961c-0.25968,0.10143 -0.51947,0.20286 -0.78419,0.29929c-0.56863,0.20892 -1.14215,0.41454 -1.72784,0.60323l0.00194,0.00164c-2.93986,0.95221 -6.08312,1.67674 -9.47155,2.17441c-3.66597,0.53747 -7.00966,0.78298 -10.14789,0.82949v0c-2.48333,0.03552 -4.81911,-0.06527 -7.04082,-0.28047c-0.10741,-0.00989 -0.2159,-0.02059 -0.32421,-0.03041c-0.68724,-0.07119 -1.36438,-0.15126 -2.02978,-0.24316c-0.23237,-0.03375 -0.45524,-0.07273 -0.68675,-0.10826c-0.88494,-0.13296 -1.74724,-0.2878 -2.59909,-0.45799c-0.53851,-0.10805 -1.07384,-0.22006 -1.59824,-0.34285c-0.31133,-0.07034 -0.62394,-0.14518 -0.92945,-0.22143c-0.83456,-0.21138 -1.66232,-0.42775 -2.46777,-0.66869l-0.12453,0.14149c0.47231,2.08233 1.29472,3.15478 1.92079,3.64571c1.27634,1.00249 3.57606,1.072 3.57606,1.072c0,0 -6.87967,1.5625 -11.12475,-3.49231c-0.45104,-0.53733 -0.90742,-1.09508 -1.34644,-1.69314l-0.19648,-0.34658c-0.84673,-0.20573 -1.71188,-0.50124 -2.57524,-0.90268c-5.26606,-2.46867 -6.09833,-4.80148 -6.09833,-4.80148l0.17883,0.86572c0.67619,2.23862 1.26958,3.63752 1.26958,3.63752c0,0 -6.33157,-3.29559 -9.49005,-8.7692c-2.54699,-4.41864 -2.95388,-7.19122 -3.00781,-7.65834l-0.34332,-1.65677c-0.6839,-6.54375 -0.89791,-13.93036 -0.60839,-21.2394l0.03931,-0.19751c0.33038,-5.65911 -1.23095,-14.85631 5.38672,-24.96129c12.40118,-18.93088 26.65532,-19.51374 34.04059,-33.35431c5.43218,-10.18204 2.8918,-21.11868 2.8918,-21.11868c0,0 4.28971,5.10073 6.08743,8.15701c1.74246,2.97957 3.66117,6.84775 3.66117,6.84775l0.04824,-0.0384c0.02511,-0.11964 0.04642,-0.24156 0.06325,-0.36311c0.26023,-1.89304 -0.13698,-4.62589 -0.13698,-4.62589c0,0 4.55737,10.39669 11.04761,16.91687c6.48635,6.517 15.17411,7.80207 27.95876,30.9171c1.59069,2.87227 3.04717,5.27978 3.94816,8.00891l0.43687,1.57751c1.36073,4.92994 2.16138,18.79977 0.69662,24.94512zM223.02819,164.74568c0,0 -6.35501,7.82507 -5.04489,17.85567c1.15919,8.87511 3.70081,11.43209 5.00319,12.01591c1.33875,0.5961 3.28683,0.0114 3.28683,0.0114c0,0 -5.35906,3.44506 -10.27291,-0.19984c-3.28659,-2.43623 -6.90926,-5.63104 -8.66982,-15.35695M282.35577,175.89346c0,0 1.07497,2.40453 -0.59731,7.76145c-1.88054,6.03497 -6.73628,8.26303 -6.73628,8.26303c0,0 3.40186,-9.3401 -0.8044,-17.49609c-1.83606,-3.56346 -6.77259,-5.91627 -11.84709,-7.44343c-6.87684,-2.07153 -14.0059,-2.62554 -14.0059,-2.62554M287.03967,193.15569c-0.27431,1.22294 -0.77349,2.83078 -1.67474,4.84582c-1.91722,4.30883 -8.27982,8.3229 -8.27982,8.3229c0,0 0.85313,-4.23156 -0.0373,-9.88336M209.36021,186.17671c-0.57638,1.32623 -0.9871,2.73051 -1.16,4.19155c-1.09128,9.11054 2.99395,18.69882 2.99395,18.69882c0,0 -6.32963,-3.29405 -9.49007,-8.76929c-2.80202,-4.85963 -3.01371,-7.72829 -3.01371,-7.72829M293.50484,184.04648c-2.29901,8.04344 -6.12095,12.88363 -6.12095,12.88363c0,0 0.19957,-7.97803 -4.01404,-16.13432c-0.19013,-0.3688 -0.40007,-0.72509 -0.61977,-1.06971M248.36568,164.3528c0,0 1.21804,0.2151 4.57264,2.45139c3.3547,2.23628 4.74164,4.86825 4.74164,4.86825c0,0 -9.48737,-1.66017 -14.78181,-3.07391c-5.2892,-1.41599 -23.00884,-4.66907 -23.00884,-4.66907M222.12116,204.04922c2.8501,3.73981 5.64947,5.66885 5.64947,5.66885c0,0 -5.99539,2.42642 -11.92641,-0.35106c-5.26605,-2.46857 -6.09833,-4.80148 -6.09833,-4.80148M277.31773,202.19135c-6.20407,5.66579 -14.04189,8.84783 -23.78137,10.27785c-11.61159,1.70484 -20.28747,0.72053 -27.82132,-1.524M225.46368,210.44057c0.43432,2.50924 1.35777,3.7512 2.04562,4.28929c1.27724,1.00241 3.57696,1.07193 3.57696,1.07193c0,0 -6.88147,1.56266 -11.12565,-3.49223c-0.45104,-0.53733 -0.90742,-1.09508 -1.34644,-1.69314M249.06469,164.59551c0,0 25.68614,0.95285 26.85867,14.8292" fill="#be1e2d"/><path d="M281.41354,185.00406c-0.10495,10.05976 -10.69747,21.44115 -27.40361,23.8412c-14.74807,2.12702 -37.2153,-2.68717 -41.43067,-14.69197c-0.42001,-1.20682 -0.68837,-2.38391 -0.83082,-3.52466l0.34191,0.20785c1.26406,1.55188 2.61216,2.63411 3.91021,3.59413c4.9137,3.64311 10.27275,0.19806 10.27275,0.19806c0,0 -1.94794,0.5865 -3.28668,-0.0096c-1.30239,-0.58381 -3.844,-3.14079 -5.00319,-12.01591c-1.31026,-10.03241 5.04489,-17.85567 5.04489,-17.85567l0.00465,-0.23352c5.33566,1.00371 15.96889,3.04144 19.86336,4.08474c5.29451,1.41463 14.78181,3.07391 14.78181,3.07391c0,0 -1.38694,-2.63197 -4.74164,-4.86825c-1.67913,-1.11839 -2.82138,-1.73109 -3.54344,-2.06487l0.65446,0.04676c0,0 19.84707,1.24111 24.17203,9.63547c4.20544,8.15697 0.8053,17.49603 0.8053,17.49603c0,0 4.1346,-1.89877 6.24642,-6.92964z" fill="#e6e7e8"/></g><path d="M249.5405,198.40193c0.08798,2.80606 -1.30967,5.12689 -3.12174,5.18371c-1.81208,0.05682 -3.35237,-2.1719 -3.44036,-4.97796c-0.08798,-2.80606 1.30967,-5.12689 3.12174,-5.18371c1.81208,-0.05682 3.35237,2.1719 3.44036,4.97796z" fill="#58595b" stroke="#231f20" stroke-width="0.9025" stroke-linecap="butt" stroke-linejoin="miter"/><path d="M235.84438,188.94306v0v0v0v0v0c0.69548,0.26722 1.04057,1.04668 0.77147,1.74198c-0.26738,0.69727 -1.04326,1.04271 -1.74445,0.77857c-0.04003,-0.01643 -4.10342,-1.5437 -8.29266,-0.73998c-0.12883,0.024 -0.25525,0.03106 -0.37979,0.0193c-0.58252,-0.05497 -1.08413,-0.4893 -1.19997,-1.09155c-0.06904,-0.35195 0.01437,-0.69944 0.19649,-0.98068c-0.23107,-0.24429 -0.44254,-0.55171 -0.57045,-0.95992c-0.15058,-0.47354 0.11239,-0.98037 0.58766,-1.12999c0.47036,-0.14456 0.97983,0.10963 1.13107,0.58695c0.1196,0.38022 0.55604,0.52716 0.56124,0.52946c0.12903,0.04201 0.23887,0.11384 0.33088,0.20208c0.13534,-0.01526 0.27154,-0.03134 0.40447,-0.04139c-0.11837,-0.2209 -0.22451,-0.46605 -0.27461,-0.76016c-0.08199,-0.49147 0.24913,-0.95312 0.7407,-1.036c0.49558,-0.08703 0.95473,0.25109 1.036,0.7407c0.06523,0.39136 0.46566,0.60361 0.46906,0.60575c0.18827,0.08476 0.31896,0.23269 0.40883,0.40208c3.22446,0.15328 5.68439,1.07895 5.82404,1.13281z" data-paper-data="{&quot;index&quot;:null}" fill="#231f20" stroke="none" stroke-width="0.90024" stroke-linecap="butt" stroke-linejoin="miter"/><path d="M267.51788,183.39099v0v0v0v0v0c0.02445,0.81813 -0.33809,1.39319 -0.65718,1.7626c0.15378,0.22437 0.26588,0.48413 0.26074,0.77704c-0.01348,0.74463 -0.61164,1.33952 -1.37337,1.32799c-2.88786,-0.04899 -6.4832,0.51541 -7.0292,1.40304c-0.19749,0.31936 -0.50439,0.52811 -0.84578,0.60615c-0.33613,0.07684 -0.69785,0.02558 -1.01299,-0.16919c-0.63413,-0.3907 -0.83154,-1.2219 -0.43962,-1.85827c1.0558,-1.71147 3.96625,-2.33902 6.35824,-2.56461c0.09091,-0.12326 0.22524,-0.36355 0.17977,-0.64315c-0.08549,-0.4874 0.20044,-0.97767 0.73064,-1.04154c0.48914,-0.08598 0.95427,0.23985 1.04152,0.73055c0.05228,0.30942 0.03582,0.58472 -0.0043,0.84132c0.12035,-0.00259 0.23484,-0.0066 0.34302,-0.00631c0.05912,-0.16134 0.1449,-0.31112 0.2935,-0.42079c0.02136,-0.01966 0.36597,-0.30166 0.35556,-0.69451c-0.01204,-0.49681 0.36933,-0.9174 0.87456,-0.92488c0.49681,-0.01204 0.90982,0.37659 0.92488,0.87456z" data-paper-data="{&quot;index&quot;:null}" fill="#231f20" stroke="none" stroke-width="0.90024" stroke-linecap="butt" stroke-linejoin="miter"/><g data-paper-data="{&quot;index&quot;:null}" stroke-linejoin="miter"><path d="M203.28858,176.43151c0.94127,12.94451 0.04743,23.5586 -5.27726,23.94578c-5.3247,0.38718 -14.06126,-9.52662 -15.00252,-22.47114c-0.94127,-12.94451 6.26922,-24.01792 11.59392,-24.40509c5.3247,-0.38718 7.74461,9.98593 8.68586,22.93044z" fill="url(#color-1)" stroke="#000000" stroke-width="0.90024" stroke-linecap="butt"/><path d="M190.13792,159.54735l-1.88803,2.99255" fill="none" stroke="#ea42a4" stroke-width="2" stroke-linecap="round"/><path d="M198.67079,166.10709l-3.34349,0.61733" fill="none" stroke="#ea42a4" stroke-width="2" stroke-linecap="round"/><path d="M191.09138,174.62485l0.2632,-1.87902" fill="none" stroke="#ea42a4" stroke-width="2" stroke-linecap="round"/><path d="M190.14751,182.73096l1.81249,2.10591" fill="none" stroke="#ea42a4" stroke-width="2" stroke-linecap="round"/><path d="M201.95123,188.27999l-1.57341,0.29051" fill="none" stroke="#ea42a4" stroke-width="2" stroke-linecap="round"/><path d="M193.6214,197.1397l1.84272,0.06653" fill="none" stroke="#ea42a4" stroke-width="2" stroke-linecap="round"/><path d="M187.69065,187.04883l1.45546,2.37521" fill="none" stroke="#ea42a4" stroke-width="2" stroke-linecap="round"/><path d="M184.95811,175.5539l1.5432,1.74888" fill="none" stroke="#ea42a4" stroke-width="2" stroke-linecap="round"/><path d="M185.84446,166.03473l0.29051,1.57341" fill="none" stroke="#ea42a4" stroke-width="2" stroke-linecap="round"/><path d="M197.82337,157.11142l-2.24507,3.26185" fill="none" stroke="#ea42a4" stroke-width="2" stroke-linecap="round"/></g><g data-paper-data="{&quot;index&quot;:null}" stroke-linejoin="miter"><path d="M293.25423,143.51388c5.33457,-0.21132 13.73933,9.98528 14.25308,22.95381c0.51374,12.96853 -7.05811,23.79803 -12.39269,24.00935c-5.33457,0.21132 -7.41098,-10.23598 -7.92471,-23.2045c-0.51374,-12.96853 0.72975,-23.54734 6.06432,-23.75865z" fill="url(#color-2)" stroke="#000000" stroke-width="0.90025" stroke-linecap="butt"/><path d="M298.36782,149.02234l2.21116,2.76238" fill="none" stroke="#ea42a4" stroke-width="2" stroke-linecap="round"/><path d="M290.62291,156.49607l3.39158,0.23917" fill="none" stroke="#ea42a4" stroke-width="2" stroke-linecap="round"/><path d="M298.6363,162.27405l0.4719,1.83773" fill="none" stroke="#ea42a4" stroke-width="2" stroke-linecap="round"/><path d="M299.38822,174.35688l1.56537,-2.29558" fill="none" stroke="#ea42a4" stroke-width="2" stroke-linecap="round"/><path d="M289.84524,178.89683l1.59603,0.11256" fill="none" stroke="#ea42a4" stroke-width="2" stroke-linecap="round"/><path d="M297.2908,187.04077l1.82368,-0.27239" fill="none" stroke="#ea42a4" stroke-width="2" stroke-linecap="round"/><path d="M302.69793,178.60021l1.18041,-2.52322" fill="none" stroke="#ea42a4" stroke-width="2" stroke-linecap="round"/><path d="M305.30692,164.34843l-1.33771,1.91064" fill="none" stroke="#ea42a4" stroke-width="2" stroke-linecap="round"/><path d="M303.36053,154.98833l-0.11256,1.59604" fill="none" stroke="#ea42a4" stroke-width="2" stroke-linecap="round"/><path d="M290.45797,147.46206l2.5961,2.99003" fill="none" stroke="#ea42a4" stroke-width="2" stroke-linecap="round"/></g><g stroke-linecap="butt" stroke-linejoin="miter"><g stroke="#000000" stroke-width="1"><path d="M251.56209,213.14454h55.67854v24.113h-55.67854z" fill="url(#color-3)"/><path d="M256.5013,208.72383h55.67854l-4.93922,4.42072h-55.67855z" fill="#9966ff"/><path d="M307.4912,213.1176l4.71472,-4.21977l-0.67354,24.51489l-4.49021,3.91836z" fill="url(#color-4)"/></g><path d="M304.73979,213.99646c0.44092,0 0.79835,0.15996 0.79835,0.35728c0,0.19732 -0.35743,0.35727 -0.79835,0.35727c-0.44092,0 -0.79836,-0.15995 -0.79836,-0.35727c0,-0.19732 0.35744,-0.35728 0.79836,-0.35728z" fill="#b9b9b9" stroke="none" stroke-width="0.5"/><path d="M304.38497,235.9091c0.44092,0 0.79835,0.15995 0.79835,0.35727c0,0.19732 -0.35743,0.35727 -0.79835,0.35727c-0.44092,0 -0.79836,-0.15995 -0.79836,-0.35727c0,-0.19732 0.35744,-0.35727 0.79836,-0.35727z" fill="#b9b9b9" stroke="none" stroke-width="0.5"/><path d="M253.46788,236.22667c0.44091,0 0.79835,0.15996 0.79835,0.35727c0,0.19732 -0.35744,0.35727 -0.79835,0.35727c-0.44091,0 -0.79835,-0.15995 -0.79835,-0.35727c0,-0.19732 0.35744,-0.35727 0.79835,-0.35727z" fill="#b9b9b9" stroke="none" stroke-width="0.5"/><path d="M252.93564,213.83767c0.44091,0 0.79835,0.15995 0.79835,0.35727c0,0.19732 -0.35744,0.35727 -0.79835,0.35727c-0.44091,0 -0.79835,-0.15995 -0.79835,-0.35727c0,-0.19732 0.35744,-0.35727 0.79835,-0.35727z" fill="#b9b9b9" stroke="none" stroke-width="0.5"/></g><g stroke="#000000" stroke-width="1" stroke-linecap="butt" stroke-linejoin="miter"><path d="M256.16442,225.47554c0,-5.20726 4.22132,-9.42857 9.42857,-9.42857c5.20725,0 9.42857,4.22132 9.42857,9.42857c0,5.20726 -4.22132,9.42857 -9.42857,9.42857c-5.20725,0 -9.42857,-4.22132 -9.42857,-9.42857z" fill="#8499b1"/><path d="M259.39707,225.87962c0,-3.04996 2.47248,-5.52245 5.52245,-5.52245c3.04996,0 5.52245,2.47249 5.52245,5.52245c0,3.04996 -2.47249,5.52244 -5.52245,5.52244c-3.04996,0 -5.52245,-2.47248 -5.52245,-5.52244z" fill="#92c5ff"/></g><g stroke="#000000" stroke-width="1" stroke-linecap="butt" stroke-linejoin="miter"><path d="M280.16442,225.51125c0,-5.20726 4.22132,-9.42857 9.42857,-9.42857c5.20725,0 9.42857,4.22132 9.42857,9.42857c0,5.20726 -4.22132,9.42857 -9.42857,9.42857c-5.20725,0 -9.42857,-4.22132 -9.42857,-9.42857z" fill="#8499b1"/><path d="M283.39707,225.91534c0,-3.04996 2.47249,-5.52245 5.52245,-5.52245c3.04996,0 5.52245,2.47249 5.52245,5.52245c0,3.04996 -2.47249,5.52245 -5.52245,5.52245c-3.04996,0 -5.52245,-2.47248 -5.52245,-5.52245z" fill="#92c5ff"/></g><path d="M299.73584,210.8184l4,-18.57143" fill="none" stroke="#000000" stroke-width="2" stroke-linecap="round" stroke-linejoin="miter"/><g data-paper-data="{&quot;index&quot;:null}" stroke="#001026" stroke-width="0.9" stroke-linejoin="miter"><g><path d="M237.99894,222.3913c0,0 -2.09063,0.30933 -2.88544,0.00609c-0.74935,-0.28589 -1.75503,-1.77655 -1.75503,-1.77655l1.93194,-14.47279l8.72223,2.33338l-6.01371,13.90985z" fill="#505a63" stroke-linecap="butt"/><path d="M244.7485,207.70838c-0.7173,2.68124 -3.47235,4.27336 -6.1536,3.55606c-2.68125,-0.71729 -4.27336,-3.47236 -3.55606,-6.1536c0.71729,-2.68123 3.47236,-4.27335 6.15361,-3.55604c2.68124,0.7173 4.27335,3.47236 3.55604,6.15361z" fill="url(#color-5)" stroke-linecap="butt"/><path d="M243.1605,202.85589c0,0 -0.14113,2.67487 -0.51234,4.00183c-0.39718,1.41982 -1.79804,4.25734 -1.79804,4.25734" fill="none" stroke-linecap="round"/><path d="M239.25037,202.01161c0,0 -0.1594,1.82445 -0.55119,2.88055c-0.53026,1.42935 -2.34261,4.91993 -2.34261,4.91993" fill="none" stroke-linecap="round"/><path d="M236.0352,203.47166c0,0 3.38377,0.61257 4.71563,1.30972c1.5309,0.80133 3.95608,3.22945 3.95608,3.22945" fill="none" stroke-linecap="round"/><path d="M234.76519,205.95648c0,0 2.38791,0.94766 3.47822,1.6669c1.40258,0.92526 4.23888,3.42392 4.23888,3.42392" fill="none" stroke-linecap="round"/></g><path d="M232.63921,215.43745c0.48375,-1.78671 2.26436,-2.67727 3.97712,-1.98912c1.71276,0.68816 2.71467,3.23981 2.23093,5.02652c-0.48374,1.78672 -2.26996,2.13189 -3.98272,1.44374c-1.71277,-0.68816 -2.70907,-2.69442 -2.22534,-4.48114z" fill="#be1e2d" stroke-linecap="butt"/></g></g></g></svg>