<svg version="1.1" xmlns="http://www.w3.org/2000/svg" xmlns:xlink="http://www.w3.org/1999/xlink" width="223.05874" height="133.00429" viewBox="0,0,223.05874,133.00429"><defs><radialGradient cx="284.99489" cy="229.21692" r="32.56883" gradientUnits="userSpaceOnUse" id="color-1"><stop offset="0" stop-color="#0006ff"></stop><stop offset="1" stop-color="#00e4ff"></stop></radialGradient><radialGradient cx="226.85344" cy="267.0238" r="62.64859" gradientUnits="userSpaceOnUse" id="color-2"><stop offset="0" stop-color="#0006ff"></stop><stop offset="1" stop-color="#00e4ff"></stop></radialGradient><radialGradient cx="131.77977" cy="243.2524" r="9.88717" gradientUnits="userSpaceOnUse" id="color-3"><stop offset="0" stop-color="#0006ff"></stop><stop offset="1" stop-color="#00e4ff"></stop></radialGradient><radialGradient cx="300.59486" cy="252.55194" r="12.01308" gradientUnits="userSpaceOnUse" id="color-4"><stop offset="0" stop-color="#0006ff"></stop><stop offset="1" stop-color="#00e4ff"></stop></radialGradient></defs><g transform="translate(-120.98893,-157.11835)"><g data-paper-data="{&quot;isPaintingLayer&quot;:true}" fill-rule="nonzero" stroke="none" stroke-width="0.5" stroke-linecap="butt" stroke-linejoin="miter" stroke-miterlimit="10" stroke-dasharray="" stroke-dashoffset="0" style="mix-blend-mode: normal"><path d="M258.02706,176.94481l3.27429,-0.96411c15.49483,-2.03826 31.04012,-8.42419 45.96773,-13.03195c5.12322,-1.5814 13.9568,-6.14799 19.32317,-4.44476c0.16085,0.05106 0.31982,0.10638 0.47711,0.16557l0.01766,-0.05949l3.9266,1.16579c1.03347,0.29051 1.90291,1.0833 2.24309,2.18536c0.43398,1.40594 -0.1273,2.8816 -1.28319,3.66859l-2.89626,2.07268l-0.10153,-0.14188l-0.34912,0.41245c-2.59179,0.82714 -5.13521,1.82187 -7.60484,2.96315c-1.28471,0.59371 -3.26805,1.59261 -5.07182,2.35038c0.3537,0.12498 0.70866,0.24394 1.06926,0.31507c3.23898,0.63883 8.99914,1.14264 11.75016,2.84583c2.25678,1.39719 5.46391,2.95454 5.6594,5.60161c0.16069,2.17585 -3.16918,3.01658 -4.92758,4.30814c-3.95546,2.90535 -8.54197,4.93421 -12.96341,7.02376c-0.28659,0.13544 -0.56762,0.28445 -0.84526,0.44155c4.56475,-0.09551 9.12498,-0.49607 13.74988,-0.16492c0.80549,0.05767 7.89811,0.76672 8.77953,1.20045c0.10368,0.05102 0.20639,0.10368 0.30818,0.15785l0.01909,-0.04845l3.39766,1.33877c0.90461,0.34752 1.64645,1.09178 1.95444,2.08955c0.45912,1.48739 -0.19569,3.05282 -1.49001,3.79829l-3.99801,2.42036c-5.88754,3.52602 -12.70153,6.46873 -19.28224,8.46142c-0.12276,0.03717 -0.24675,0.07529 -0.37184,0.11393c2.85371,0.73286 5.46909,1.63584 8.54623,2.55075c1.93872,0.57643 4.16979,0.27862 5.93381,1.26812c0.13242,0.07428 0.26243,0.15189 0.39025,0.23254l0.02567,-0.04859l3.59538,1.89933c0.74017,0.39101 1.33118,1.06438 1.59758,1.92744c0.53281,1.72612 -0.43457,3.55735 -2.16069,4.09016l-3.29682,1.01764l-0.02698,-0.08742l-0.23409,0.15635c-3.71719,0.47041 -6.60642,2.04672 -10.17885,3.15361c-6.45984,2.00154 -13.47867,4.1561 -19.50298,7.17949c-3.37109,1.69184 -6.40253,4.08135 -9.99517,5.52508c-5.75076,2.31098 -12.15162,4.33925 -18.41367,5.75503c-3.41628,13.36741 -12.44893,25.81825 -22.39488,34.28987c-15.15839,11.55109 -37.50904,9.93432 -52.85431,-0.40883c-10.23696,-6.89998 -18.28822,-18.28718 -25.32031,-28.91871c-5.83027,-2.59399 -9.42805,-7.06899 -14.68032,-10.63659c-18.85896,-16.84049 -21.76944,-49.37528 -4.41552,-68.55171c4.86045,-5.3709 12.25957,-7.84963 18.93875,-9.89083c14.9495,-0.8143 29.94517,-7.27022 45.09462,-6.51248c14.4667,0.7236 28.39407,9.28062 37.90673,20.09432c0.3988,-0.23245 0.71344,-0.32958 0.71344,-0.32958zM265.20608,246.27572c-0.51303,-3.23044 2.71741,-3.74349 2.71741,-3.74349c0.53869,-0.08437 1.07476,-0.17498 1.60835,-0.27154c0.32183,-2.12398 0.46464,-4.25778 0.4024,-6.38415c-0.18277,-6.24411 -1.33426,-12.8824 -2.17206,-19.07445c-1.15514,-8.53738 -2.69855,-18.56011 -7.53696,-25.95731c-1.53369,-2.34479 -3.64957,-4.2523 -5.4633,-6.38785c-8.32593,-10.78533 -21.73916,-20.06547 -35.70409,-20.74434c-14.6005,-0.70976 -29.16085,5.63349 -43.59426,6.4197c-5.23828,1.63748 -11.49154,3.61056 -15.29096,7.89685c-14.57658,16.44446 -12.44381,44.45629 3.64712,58.95327c2.44646,1.66174 4.49489,3.6139 6.6262,5.42488c0.19516,-0.20752 0.43372,-0.40897 0.72322,-0.59997c2.73028,-1.80126 4.53154,0.92901 4.53154,0.92901c0.92758,1.40599 1.85993,2.79603 2.80045,4.17091c0.6691,0.29746 1.30694,0.8932 1.65826,2.03135c0.05959,0.19306 0.10358,0.37788 0.13366,0.55474c5.19095,7.39289 10.68856,14.35059 17.04472,21.00291c3.36045,3.51703 6.647,6.89785 11.24304,8.86844c3.87822,1.66281 8.12857,2.2696 12.18013,3.44872c5.20254,1.5141 10.49857,1.11897 15.62941,-0.49099c4.3575,-1.3673 8.50678,-2.43174 12.13163,-5.30306c8.13114,-6.88898 15.86228,-17.0698 19.40516,-28.03075c-0.99323,-0.1272 -2.39748,-0.67565 -2.72103,-2.71289zM321.02124,223.09885c1.33785,-0.41128 2.58729,-0.87802 3.81918,-1.33344c-1.17662,-0.50875 -2.35782,-1.06947 -3.67447,-1.52449c-1.96108,-0.67771 -6.35052,-1.27569 -7.93124,-1.53733l-0.08389,-0.04074l-0.00496,0.02219l-4.46275,-0.99679c-1.13356,-0.23124 -2.1091,-1.05799 -2.47438,-2.24137c-0.4057,-1.31435 0.0584,-2.68965 1.06498,-3.50624l3.28002,-2.78684l0.03886,0.04574c0.16234,-0.14639 0.3306,-0.2869 0.50558,-0.42067c0.96245,-0.73576 8.43397,-2.44282 10.22239,-3.21146c3.52205,-1.51374 7.22973,-3.0372 10.68391,-4.84394c-1.0351,-0.2185 -2.08596,-0.47247 -3.06815,-0.54362c-7.21483,-0.52262 -14.22341,0.60821 -21.40797,-0.14709l-0.19867,-0.1196l-0.0182,0.07403l-3.19795,-0.78606c-1.10293,-0.25085 -2.0453,-1.06752 -2.40288,-2.22595c-0.46751,-1.51458 0.21999,-3.1101 1.56162,-3.83836l4.55004,-2.5935l0.00412,0.00722c0.01708,-0.01274 0.03419,-0.02546 0.05133,-0.03813c4.89716,-3.62549 6.03795,-2.435 10.99726,-5.19207c1.55832,-0.86633 2.83209,-2.17579 4.34382,-3.12106c0.18685,-0.11684 0.37326,-0.2407 0.56041,-0.36624c-1.02195,-0.34548 -2.03084,-0.75776 -3.07848,-0.99895c-2.16892,-0.49936 -13.47684,-1.58477 -14.3322,-4.00669c-0.87586,-2.47996 0.94236,-5.41062 2.60643,-7.44733c0.04263,-0.05218 0.08645,-0.10283 0.1314,-0.15203c-15.29543,4.72711 -31.06976,11.04586 -46.92945,13.23565l-0.40995,0.13514c1.67952,1.97698 3.85353,4.54289 3.95592,4.7004c5.36885,8.2584 7.23108,19.08467 8.52202,28.62572c0.87251,6.44854 2.09072,13.42718 2.2311,19.92895c0.03497,1.6195 -0.02873,3.2388 -0.18318,4.85274c15.52415,-4.2952 29.27491,-12.85693 44.72839,-17.60779z" fill="#000000"></path><path d="M276.25989,240.76316c0.15446,-1.61393 0.21497,-3.23521 0.18001,-4.85471c-0.14037,-6.50178 -1.37977,-13.50342 -2.25228,-19.95195c-1.29094,-9.54105 -3.15519,-20.42644 -8.52402,-28.68483c-0.1024,-0.1575 -2.27459,-2.72705 -3.9541,-4.70403l0.41018,-0.13557c15.85969,-2.18978 31.71107,-8.53926 47.00649,-13.26637c-0.04494,0.0492 -0.12814,0.22463 -0.17078,0.2768c-1.66407,2.03671 -3.44365,4.84238 -2.56778,7.32234c0.85536,2.42192 12.19096,3.52411 14.35988,4.02348c1.04764,0.24121 2.06038,0.65777 3.08233,1.00325c-0.18713,0.12554 -0.47456,0.33257 -0.66143,0.4494c-1.51173,0.94526 -2.78494,2.25541 -4.34326,3.12173c-4.95931,2.75706 -6.09026,1.57597 -10.98743,5.20147c-0.01713,0.01269 -0.03419,0.02544 -0.05127,0.03819l-0.0041,-0.00721l-4.53941,2.60019c-1.34164,0.72825 -1.96753,2.2084 -1.50001,3.72298c0.35757,1.15842 1.3237,1.99825 2.42663,2.24909l3.2047,0.80143l0.01807,-0.07446l0.19901,0.12076c7.18455,0.75531 14.19537,-0.36293 21.4102,0.15969c0.98219,0.07115 2.03314,0.32664 3.06825,0.54513c-3.45418,1.80674 -7.16231,3.34235 -10.68438,4.8561c-1.78839,0.76864 -9.26617,2.49619 -10.22862,3.23193c-0.17499,0.13377 -0.34456,0.27681 -0.50691,0.42321l-0.03882,-0.04583l-3.2928,2.80325c-1.00659,0.81659 -1.4818,2.20022 -1.07609,3.51457c0.36528,1.18338 1.27096,1.89957 2.40452,2.1308l4.45526,1.00264l0.00491,-0.02215l0.08382,0.04081c1.58073,0.26164 5.96265,0.86771 7.92373,1.54543c1.31665,0.45501 2.60224,1.0946 3.77885,1.60334c-1.23189,0.45542 -2.48586,0.92767 -3.82372,1.33898c-15.45347,4.75085 -29.2855,13.32497 -44.80964,17.62017z" data-paper-data="{&quot;noHover&quot;:false,&quot;origItem&quot;:[&quot;Path&quot;,{&quot;applyMatrix&quot;:true,&quot;segments&quot;:[[[220.06408,235.46885],[0.01404,-12.35677],[-0.00122,1.06976]],[[220.17695,238.55861],[-0.05489,-1.00232],[0.63678,-0.74461]],[[222.11861,236.21877],[-0.62911,0.85899],[0.93702,-1.27942]],[[225.02925,230.77307],[-0.54741,1.09544],[0,0]],[225.07791,230.72099],[225.06282,230.71237],[[226.79681,227.67789],[0,0],[0.42441,-0.77572]],[[228.9915,226.3761],[-0.94657,0],[1.05134,0]],[[231.31206,227.94426],[-0.36945,-0.9192],[0,0]],[232.60791,230.96792],[[232.56574,230.98599],[0,0],[0.07032,0.15156]],[[232.75899,231.45005],[-0.05825,-0.15795],[0.32037,0.86874]],[[232.79994,239.63949],[-0.15819,-1.47935],[0.31153,2.91342]],[[233.92907,248.53399],[-0.54081,-2.9299],[0.39291,-0.70669]],[[235.01772,246.41584],[-0.27337,0.70126],[2.00809,-5.15124]],[[239.95107,230.81459],[-2.1712,5.07667],[0,0]],[240.0832,230.69645],[240.03325,230.66648],[[241.32822,228.50819],[0,0],[0.43183,-0.74893]],[[243.49553,227.25514],[-0.92661,0],[1.2115,0]],[[245.94668,229.26088],[-0.22941,-1.14398],[0,0]],[246.81503,233.16846],[[246.80881,233.16984],[0,0],[0.00546,0.01535]],[[246.82509,233.21592],[-0.0054,-0.01537],[1.54377,4.39372]],[[248.13782,242.41774],[-0.89554,-4.24334],[0.2814,1.33335]],[[249.43794,246.29364],[-0.34955,-1.31712],[0.04321,0.1628]],[[249.57908,246.78547],[-0.0495,-0.16496],[0.48268,-0.66846]],[[251.00261,244.76242],[-0.41232,0.71072],[0.85362,-1.47141]],[[257.15959,235.19871],[-1.96157,0.07871],[2.00858,-0.0806]],[[262.01088,238.78104],[-1.1123,-1.67442],[0.0285,0.04289]],[[262.09229,238.91127],[-0.0258,-0.04391],[-0.00425,-12.236]],[[263.00535,201.65462],[-1.97598,12.0761],[0,0]],[[262.99907,201.32477],[0,0],[-1.82241,0.7809]],[[258.67456,203.15422],[0.13811,-0.03928],[-7.24146,2.05925]],[[235.84787,202.92492],[7.25892,1.20803],[-4.90611,-0.81647]],[[220.79064,200.06178],[4.77995,1.36316],[-1.19062,-0.33954]],[[217.28794,198.83406],[1.14385,0.47663],[-0.36274,12.30567]]],&quot;closed&quot;:true}]}" fill="url(#color-1)"></path><path d="M267.98667,249.01565c-3.5429,10.96094 -11.29714,21.16906 -19.42828,28.05804c-3.62484,2.87132 -7.78619,3.94214 -12.14369,5.30945c-5.13084,1.60996 -10.44266,2.00924 -15.64521,0.49515c-4.05155,-1.17912 -8.31568,-1.78556 -12.19389,-3.44837c-4.59605,-1.97057 -7.89829,-5.35462 -11.25874,-8.87165c-6.35617,-6.65233 -11.88454,-13.63183 -17.07548,-21.02472c-0.03008,-0.17686 -0.07457,-0.36232 -0.13416,-0.55539c-0.35131,-1.13814 -0.99156,-1.73727 -1.66066,-2.03474c-0.9405,-1.37489 -1.87681,-2.77176 -2.8044,-4.17775c0,0 -1.803,-2.73402 -4.53327,-0.93275c-0.28951,0.19101 -0.52792,0.39279 -0.72307,0.60032c-2.13131,-1.81098 -4.18294,-3.77242 -6.62941,-5.43418c-16.09092,-14.49699 -18.20973,-42.56845 -3.63316,-59.01291c3.79942,-4.28628 10.06464,-6.27008 15.30292,-7.90758c14.43342,-0.7862 29.03768,-7.14083 43.63818,-6.43106c13.96493,0.67885 27.41908,9.97911 35.745,20.76443c1.81374,2.13555 3.93565,4.05043 5.46935,6.39523c4.8384,7.39719 6.39316,17.44896 7.54829,25.98633c0.83781,6.19205 1.98851,12.85221 2.17127,19.09633c0.06224,2.12638 -0.08234,4.26693 -0.40418,6.39091c-0.53358,0.09655 -1.06991,0.18797 -1.6086,0.27234c0,0 -3.23225,0.51779 -2.71922,3.74824c0.32355,2.03724 1.72718,2.58711 2.7204,2.71431z" data-paper-data="{&quot;noHover&quot;:false,&quot;origItem&quot;:[&quot;Path&quot;,{&quot;applyMatrix&quot;:true,&quot;segments&quot;:[[[215.72005,189.48188],[-1.56075,-0.22296],[2.47487,0.35356]],[[217.84137,192.3103],[0,0],[-0.05982,0.41243]],[[217.67712,193.5461],[0.04977,-0.41144],[1.47861,0.71383]],[[222.24881,195.27914],[-1.56694,-0.43389],[4.60133,1.27411]],[[236.66868,197.99275],[-4.71097,-0.784],[6.49532,1.08095]],[[257.32455,198.33992],[-6.49294,1.866],[2.05815,-0.59149]],[[263.22123,195.79002],[-1.96848,0.84318],[9.7535,-3.64919]],[[286.41965,174.39136],[-3.64384,10.04567],[3.80969,-10.50287]],[[291.55861,141.10694],[-2.67951,10.71807],[-0.01502,-4.19469]],[[289.23847,128.15965],[2.27382,3.74099],[-8.72357,-14.35242]],[[245.36225,117.53352],[14.21459,-8.48332],[-1.76508,1.41207]],[[239.90669,121.14978],[1.80303,-1.14827],[0.10756,0.18931]],[[240.18182,121.8132],[-0.07423,-0.25449],[0.7,2.4]],[[238.48182,124.9132],[0,0],[-1.23591,0.36047]],[[234.80447,126.01815],[1.21611,-0.37692],[-0.36807,0.42159]],[[232.94714,126.77127],[0.91039,0],[-0.15443,0]],[[232.51188,126.74383],[0.13594,0.0179],[-6.56927,2.12444]],[[213.33094,134.45711],[6.2911,-3.14235],[-3.32605,1.66133]],[[204.31977,140.66881],[2.4752,-2.91231],[-2.08862,2.45745]],[[199.0554,148.78662],[1.77445,-2.69308],[-2.27855,3.45814]],[[195.89069,160.31159],[-0.01914,-4.11002],[0.01626,3.49054]],[[197.02877,170.36687],[-1.27981,-3.29452],[3.1981,7.4912]],[[213.12541,190.85751],[-7.2062,-5.0583],[0.3168,-0.69669]]],&quot;closed&quot;:true}]}" fill="url(#color-2)"></path><path d="M131.46322,240.03951c-0.01303,-0.01738 -0.02585,-0.03472 -0.03849,-0.05205c-2.0129,1.6632 -4.18551,4.1131 -3.88606,5.65382c0.61533,3.166 6.84973,6.58174 9.94049,7.03355c1.94841,0.28481 4.16507,0.73652 5.90441,-0.1866c2.32476,-1.23382 4.72783,-9.41596 3.40157,-11.60592c-0.59626,-0.98456 -3.25065,-1.62058 -4.02831,-1.87687c-1.95552,0.02288 -3.91101,0.24463 -5.83893,0.57279l-0.87539,1.11547c0,0 -2.61674,1.96256 -4.5793,-0.65419zM138.65637,232.76348c1.71071,-0.16298 3.43248,-0.228 5.14835,-0.21542c3.34686,1.12236 6.56367,1.5811 8.6228,5.02374c3.21411,5.37362 -0.37311,17.60196 -5.79924,20.59692c-1.74338,0.96226 -8.12965,1.29183 -10.19701,0.96351c-5.89193,-0.93571 -14.37477,-6.2463 -15.36174,-12.51818c-0.88958,-5.65302 5.7717,-12.69426 10.77762,-14.49888c1.42263,-0.51286 3.02201,-0.12292 4.53301,-0.18439c0,0 1.31388,0 2.2762,0.83271z" fill="#000000"></path><path d="M136.02707,240.63012l0.88658,-1.11718c1.92791,-0.32817 3.92764,-0.53639 5.88316,-0.55928c0.77767,0.25631 3.44952,0.91283 4.04579,1.89739c1.32627,2.18995 -1.0896,10.45116 -3.41435,11.68497c-1.73934,0.92312 -3.99929,0.48903 -5.9477,0.20421c-3.09075,-0.45179 -9.39193,-3.93548 -10.00726,-7.10149c-0.29945,-1.54071 1.89274,-4.03481 3.90565,-5.69801c0.01264,0.01732 0.02541,0.03472 0.03844,0.0521c1.96256,2.61674 4.60968,0.6373 4.60968,0.6373z" data-paper-data="{&quot;noHover&quot;:false,&quot;origItem&quot;:[&quot;Path&quot;,{&quot;applyMatrix&quot;:true,&quot;segments&quot;:[[[177.32617,205.32369],[1.5,2],[-0.00996,-0.01328]],[[177.29675,205.28391],[0.00966,0.01324],[-1.53848,1.2712]],[[174.32661,209.60517],[-0.22887,-1.17758],[0.4703,2.4198]],[[181.92421,214.98097],[-2.36229,-0.34531],[1.48919,0.21768]],[[186.437,214.83835],[-1.32939,0.70555],[1.77683,-0.94302]],[[189.03685,205.96785],[1.01368,1.6738],[-0.45573,-0.75251]],[[185.95798,204.53334],[0.59438,0.1959],[-1.49462,0.01749]],[[181.49524,204.97112],[1.47352,-0.25082],[0,0]],[180.82617,205.82369]],&quot;closed&quot;:true}]}" fill="url(#color-3)"></path><path d="M297.44206,248.25267c-0.38636,1.42054 -0.46452,3.18252 -0.47688,4.87431c-0.0137,1.87685 -0.55331,3.14606 0.85417,4.67818c1.85829,2.02285 6.4723,2.07393 8.99783,2.43602c2.19188,0.31424 7.64317,1.49565 9.94649,0.72523c3.68855,-1.23376 4.51441,-7.35135 3.7067,-10.39312c-6.92309,-3.29975 -13.35513,-4.52629 -21.02562,-4.52629l1.77551,0.49208c0,0 -1.25941,2.51881 -3.77821,1.71359zM305.20432,239.72081c7.29517,0.5861 13.86499,2.46143 20.36897,6.75906c2.54243,7.16589 2.11052,17.35752 -6.64422,20.65962c-3.24991,1.22579 -9.79043,0.04006 -13.05553,-0.42488c-4.14587,-0.59036 -9.86882,-1.06169 -12.8541,-4.4646c-4.66563,-5.31831 -3.91733,-18.0541 2.25425,-22.15702c4.40265,-2.92692 5.53469,-1.67521 9.80583,-0.42c0,0 0.04595,0.01532 0.12481,0.04781z" fill="#000000"></path><path d="M301.17251,246.49439l-1.77856,-0.48859c7.67049,0 14.21663,1.25113 21.13971,4.55089c0.80772,3.04177 -0.0333,9.22028 -3.72185,10.45404c-2.30332,0.77042 -7.82155,-0.39264 -10.01344,-0.7069c-2.52554,-0.36209 -7.18186,-0.45261 -9.04016,-2.47545c-1.40748,-1.53212 -0.87208,-2.82735 -0.85837,-4.7042c0.01235,-1.6918 0.09677,-3.47897 0.48312,-4.89953c2.5188,0.80522 3.78956,-1.73027 3.78956,-1.73027z" data-paper-data="{&quot;noHover&quot;:false,&quot;origItem&quot;:[&quot;Path&quot;,{&quot;applyMatrix&quot;:true,&quot;segments&quot;:[[[285.03743,207.56997],[1.92514,0.61544],[-0.2953,1.08573]],[[284.67295,211.29546],[0.00944,-1.29306],[-0.01047,1.43449]],[[285.3258,214.87103],[-1.07575,-1.17101],[1.42031,1.54608]],[[292.20292,216.7329],[-1.93029,-0.27675],[1.67527,0.24018]],[[299.80511,217.2872],[-1.76045,0.58884],[2.81919,-0.94297]],[[302.63817,209.34365],[0.61735,2.32485],[-5.29138,-2.52203]],[[286.56811,205.88417],[5.86262,0],[0,0]],[287.92515,206.26027]],&quot;closed&quot;:true}]}" fill="url(#color-4)"></path><path d="M182.4703,184.50159c0.33306,3.25393 -2.92087,3.58699 -2.92087,3.58699l-1.78458,-0.03106c-7.60745,3.78287 -15.29838,8.82282 -18.22012,17.36937c-0.97798,2.86074 -0.30827,6.03872 -0.45731,9.05834c0,0 -0.16144,3.26694 -3.42838,3.10551c-3.26694,-0.16144 -3.10551,-3.42838 -3.10551,-3.42838c0.17432,-3.5236 -0.39548,-7.20937 0.70891,-10.55997c3.43483,-10.42085 12.31335,-16.72302 21.57156,-21.39347l4.04933,-0.62819c0,0 3.25393,-0.33306 3.58699,2.92087z" fill="#d3faff"></path><path d="M213.6592,224.2953c-2.45145,0.49029 -2.94174,-1.96116 -2.94174,-1.96116l-0.38263,-1.9695c-2.42495,-8.10741 -3.18205,-15.59383 -3.18205,-24.01272c0,0 0,-2.5 2.5,-2.5c2.5,0 2.5,2.5 2.5,2.5c0,7.9366 0.67016,14.93022 2.97118,22.57599l0.4964,2.42566c0,0 0.49029,2.45145 -1.96116,2.94174z" fill="#000000"></path><path d="M225.52481,225.04407c-2.32119,0.92848 -3.24967,-1.39272 -3.24967,-1.39272l-0.96165,-2.43925c-0.52708,-1.89352 -0.43201,-3.91922 -0.90834,-5.82613c-0.21386,-0.85612 -0.93242,-1.51342 -1.23014,-2.34411c-1.97348,-5.50645 -3.25792,-11.90191 -4.08581,-17.65494c0,0 -0.35355,-2.47487 2.12132,-2.82843c2.47487,-0.35355 2.82843,2.12132 2.82843,2.12132c0.76624,5.4067 1.98212,11.44818 3.82548,16.62732c0.3633,1.02073 1.14402,1.87901 1.40696,2.93008c0.45831,1.832 0.31556,3.78995 0.84972,5.60129l0.79641,1.95591c0,0 0.92848,2.32119 -1.39272,3.24967z" fill="#000000"></path><path d="M209.5668,231.15299c-0.00003,-0.06586 -0.00027,-0.13218 -0.00081,-0.19899c0,0 0,-1.65026 1.65026,-1.65026c1.65026,0 1.65026,1.65026 1.65026,1.65026c-0.00939,0.88975 -0.15777,2.15069 0.37381,2.97242c1.46109,2.25857 5.7799,5.56286 8.74459,4.75437c1.8287,-0.4987 0.36219,-3.3342 3.7394,-2.38801c4.17196,1.16885 1.21392,6.39743 0.52008,8.46861c-0.61179,1.82627 -0.90189,3.41568 -2.12237,4.90586c-2.74183,3.34771 -6.78806,4.56847 -10.90974,4.95424c-1.11996,-0.60513 -2.3893,-0.9917 -3.35988,-1.81539c-2.82676,-2.39896 -3.17526,-5.21778 -3.71056,-8.60641c-0.24643,-1.55997 -0.5951,-3.48967 -0.32999,-5.07169c0.4356,-2.59943 1.64269,-4.33703 2.76786,-6.59102l0.68319,-1.04775c0,0 0.10744,-0.16115 0.3039,-0.33624z" fill="#000000"></path></g></g></svg>