<svg version="1.1" xmlns="http://www.w3.org/2000/svg" xmlns:xlink="http://www.w3.org/1999/xlink" width="103.98607" height="96.33582" viewBox="0,0,103.98607,96.33582"><defs><radialGradient cx="268.07216" cy="213.4757" r="7.70847" gradientUnits="userSpaceOnUse" id="color-1"><stop offset="0" stop-color="#54606d"/><stop offset="1" stop-color="#2c3136"/></radialGradient></defs><g transform="translate(-192.31788,-140.32781)"><g data-paper-data="{&quot;isPaintingLayer&quot;:true}" stroke-miterlimit="10" stroke-dasharray="" stroke-dashoffset="0" style="mix-blend-mode: normal"><path d="M249.58464,205.04071c-0.11462,4.00783 2.15951,7.42607 0.87154,9.64223c-0.84058,1.44635 -2.3286,2.57663 -3.39013,2.60988c-1.18313,0.03706 -3.18056,-1.18673 -3.97462,-2.88984c-1.01003,-2.16628 -3.34712,-5.3492 -3.24109,-9.05737c0.09356,-3.27104 2.7103,-6.86565 3.63395,-9.05628c0.94663,-2.24517 2.90719,-2.93972 4.26773,-2.98234c1.46888,-0.04601 2.99856,0.76679 3.81846,3.27398c0.68053,2.08101 -1.89991,5.45562 -1.98583,8.45974z" fill="#ffab19" fill-rule="nonzero" stroke="#001026" stroke-width="1.2" stroke-linecap="butt" stroke-linejoin="miter"/><g fill-rule="nonzero" stroke="#001026" stroke-width="1.2" stroke-linejoin="miter"><g><path d="M241.15425,207.22874l21.45023,-2.38853l0.51215,13.51412l-20.94661,-3.69951c0,0 -1.77541,-2.10363 -1.93944,-3.3028c-0.17398,-1.27192 0.92367,-4.12329 0.92367,-4.12329z" fill="#505a63" stroke-linecap="butt"/><path d="M263.92398,204.13315c3.99457,0.17147 7.36045,3.67823 7.51789,7.83251c0.15745,4.1543 -2.95317,7.38301 -6.94773,7.21151c-3.99457,-0.17147 -7.36047,-3.67824 -7.51789,-7.83252c-0.15745,-4.1543 2.95318,-7.383 6.94775,-7.21152z" fill="url(#color-1)" stroke-linecap="butt"/><path d="M257.90133,208.18653c0,0 4.43092,-0.73621 6.5517,-0.67021c1.98209,0.0617 5.78496,1.05419 5.78496,1.05419" fill="none" stroke-linecap="round"/><path d="M258.30694,215.19382c0,0 5.47892,-1.03301 7.65531,-1.15306c1.60805,-0.08868 4.2219,0.49798 4.2219,0.49798" fill="none" stroke-linecap="round"/><path d="M263.48585,204.05758c0,0 2.64231,4.55201 3.28266,7.0989c0.5571,2.21576 0.34461,7.32787 0.34461,7.32787" fill="none" stroke-linecap="round"/><path d="M258.51416,205.88287c0,0 2.61105,5.1714 3.46618,7.59012c0.66475,1.88021 1.23887,5.71792 1.23887,5.71792" fill="none" stroke-linecap="round"/></g><path d="M249.22448,217.9977c-2.6637,-0.10605 -5.16649,-2.42649 -5.59014,-5.18291c-0.42366,-2.75642 0.62778,-5.15647 3.29151,-5.05043c2.6637,0.10605 5.93098,2.67802 6.35461,5.43443c0.42366,2.75642 -1.39227,4.90494 -4.05599,4.7989z" fill="#ffab19" stroke-linecap="butt"/></g><path d="M237.94303,202.52819c0.20089,0.69077 0.60264,1.97376 1.03504,3.6839c0.82115,3.2476 1.75287,8.03559 1.62953,13.23328l-0.0359,0.39355c-0.0359,0.39355 0.39251,0.72926 0.85681,0.6714c2.95469,-0.80048 8.76274,-2.12942 8.59149,3.38227c-0.10371,5.33034 -17.43292,9.95381 -19.68451,5.00341c-0.74698,-2.15495 0.52146,-3.48023 1.22219,-4.17277c0.36724,-0.3916 0.5361,-0.84496 0.60578,-1.32918c0.0085,-1.21153 -0.04202,-3.45325 -0.3606,-5.2725c-0.72997,-4.57801 -1.28495,-5.76256 -2.09735,-8.03903c-0.81241,-2.27648 -2.92888,-7.58957 1.49476,-9.95648c3.75883,-2.06792 6.12663,0.4903 6.74277,2.40215z" fill="#ffab19" fill-rule="evenodd" stroke="#001026" stroke-width="1.2" stroke-linecap="round" stroke-linejoin="round"/><path d="M231.984,210.15272c-0.21791,0.68644 -0.59814,1.9749 -1.19325,3.6437c-1.13014,3.16909 -3.03522,7.70974 -6.07532,12.1036l-0.25293,0.32016c-0.25293,0.32016 -0.07552,0.80981 0.35484,0.97928c2.98273,0.70823 8.70785,2.3099 5.44946,6.95011c-3.09817,4.51674 -20.55164,0.30187 -19.68538,-5.00055c0.57679,-2.1982 2.41147,-2.73497 3.40267,-2.99759c0.53564,-0.16218 0.93622,-0.47084 1.26929,-0.85273c0.69128,-1.03373 1.9136,-2.97768 2.66781,-4.68623c1.95934,-4.26563 2.15274,-5.54205 2.7421,-7.8752c0.58936,-2.33316 1.77611,-7.8825 6.90142,-7.82299c4.38708,0.00196 4.97091,3.3102 4.41929,5.23845z" fill="#ffab19" fill-rule="evenodd" stroke="#001026" stroke-width="1.2" stroke-linecap="round" stroke-linejoin="round"/><g fill-rule="evenodd"><path d="M225.94612,205.02413c0.82105,0.4131 2.56369,1.33877 -0.08983,4.50202c-2.65352,3.16325 -9.90677,3.57214 -10.74438,3.54188c-3.24983,-0.02158 -7.22842,-0.16535 -11.56787,-1.66414c-12.60782,-4.28985 -12.17033,-16.83128 -8.00014,-18.69358c4.0655,-1.86608 5.51016,5.95052 11.06585,10.84824c2.42174,2.19637 5.42492,3.07174 7.91702,3.64106c3.53495,0.70288 10.49772,-2.68807 11.41933,-2.17549z" fill="#ffab19" stroke="#001026" stroke-width="1.2" stroke-linecap="round" stroke-linejoin="round"/><path d="M200.31581,196.33358c1.56345,2.64462 4.65187,6.39879 4.65187,6.39879c0,0 -3.83664,-1.00134 -6.1057,0.54622c-1.8337,1.17987 -1.50595,3.30057 -1.32553,3.97808c-1.30729,-1.29337 -2.90798,-3.07664 -3.81013,-6.46423c-0.90214,-3.38759 0.31869,-7.36945 2.43751,-7.86803c2.11055,-0.30716 2.57197,1.14736 4.15197,3.40917z" fill="#ffffff" stroke="none" stroke-width="1" stroke-linecap="butt" stroke-linejoin="miter"/></g><g fill-rule="evenodd"><path d="M228.10332,210.45429c-10.00481,-6.77082 -3.33979,-10.98952 -1.21978,-15.8956c2.01197,-4.21583 3.2677,-3.59972 9.66711,-3.2413c3.60071,0.03231 5.71963,0.05688 7.98925,-0.32413c3.41154,-0.52407 3.47158,4.10892 2.89295,6.59834c0,0 -0.92696,3.69319 -2.00618,5.66525c-1.33375,2.39066 -2.36607,3.97016 -3.48378,4.98028c0,0 -2.40169,2.17151 -4.81737,2.55852c-2.17143,0.34787 -9.0222,-0.34135 -9.0222,-0.34135z" fill="#ffab19" stroke="#001026" stroke-width="1.2" stroke-linecap="round" stroke-linejoin="round"/><path d="M240.99436,208.25927c0,0 -1.72789,-0.94365 -3.60229,-2.159c-2.33231,-1.44801 -4.62195,-2.61132 -2.98677,-5.81317c1.52715,-2.51157 2.83667,-5.76929 7.92076,-3.60258c4.84801,2.00294 3.23128,4.62241 3.23128,4.62241c-1.64362,4.55637 -4.56301,6.95233 -4.56301,6.95233z" fill="#ffffff" stroke="none" stroke-width="1" stroke-linecap="butt" stroke-linejoin="miter"/></g><g><path d="M272.46582,148.48908c0.36365,-0.09372 0.82971,0.14495 0.80015,0.53895l-0.8655,10.51738c0,0 4.86073,6.17143 5.68836,9.73917c1.41262,5.95607 0.0584,10.0861 0.0584,10.0861c0,0 6.39852,4.00883 5.75299,9.55694c-0.6455,5.54811 -8.52064,14.09086 -28.45516,11.9144c-19.93451,-2.17646 -33.33783,-11.27982 -36.73157,-23.76304c-3.39374,-12.48322 12.16399,-21.57067 11.30746,-21.01876c0,0 4.11859,-14.83247 4.45267,-14.53219l9.70479,8.15148c0,0 5.03467,-0.2211 9.78407,0.98365c2.85555,0.64406 5.18314,1.53455 7.34647,2.57779z" fill="#ffab19" fill-rule="evenodd" stroke="#001026" stroke-width="1.2" stroke-linecap="butt" stroke-linejoin="miter"/><path d="M277.71899,179.64665c0,0 6.29608,3.67644 5.65057,9.22455c-0.6455,5.54811 -8.75779,13.51721 -28.46064,11.30863c-24.94595,-2.50599 -32.11072,-18.09869 -23.32782,-26.04985c0.27852,-0.25215 0.57308,-0.49661 0.88362,-0.73273c4.29867,-3.29669 6.80963,-1.42425 10.65449,0.05095c5.2205,2.00302 11.63682,4.68151 16.57011,5.79418c7.33822,1.66915 10.17111,-3.83547 18.02968,0.40426z" fill="#ffffff" fill-rule="evenodd" stroke="none" stroke-width="1" stroke-linecap="butt" stroke-linejoin="miter"/><path d="M295.70395,186.07895c-5.91252,2.07564 -13.12148,0.04201 -13.12148,0.04201" fill="none" fill-rule="evenodd" stroke="#001026" stroke-width="1.2" stroke-linecap="round" stroke-linejoin="round"/><path d="M290.78953,195.90104c-6.44114,-1.40356 -9.71461,-4.28579 -9.71461,-4.28579" fill="none" fill-rule="evenodd" stroke="#001026" stroke-width="1.2" stroke-linecap="round" stroke-linejoin="round"/><path d="M260.13062,176.75518c2.09319,0.61972 4.22145,1.45121 4.09496,2.11857c-0.35265,1.30523 -2.75244,3.414 -4.37957,3.03295c-1.85879,-0.34896 -5.23744,-3.86645 -4.7205,-5.32441c0.28804,-1.12297 3.01159,-0.4173 5.00511,0.1729z" fill="#001026" fill-rule="evenodd" stroke="#001026" stroke-width="1.2" stroke-linecap="round" stroke-linejoin="round"/><path d="M215.7611,162.10855c0,0 7.66748,5.08934 10.15453,8.94701" fill="none" fill-rule="evenodd" stroke="#001026" stroke-width="1.2" stroke-linecap="round" stroke-linejoin="round"/><path d="M225.08386,174.33339c-4.83531,0.28013 -11.85594,-2.90601 -11.85594,-2.90601" fill="none" fill-rule="evenodd" stroke="#001026" stroke-width="1.2" stroke-linecap="round" stroke-linejoin="round"/><g fill="none" fill-rule="nonzero" stroke="none" stroke-width="1" stroke-linecap="butt" stroke-linejoin="miter" font-family="sans-serif" font-weight="normal" font-size="12" text-anchor="start"/><g fill="none" fill-rule="nonzero" stroke="none" stroke-width="1" stroke-linecap="butt" stroke-linejoin="miter" font-family="sans-serif" font-weight="normal" font-size="12" text-anchor="start"/></g><g fill-rule="nonzero" stroke="#001026" stroke-width="1.2" stroke-linecap="butt" stroke-linejoin="miter"><path d="M244.75171,157.4069c-2.78819,3.5686 -25.18954,5.13868 -25.18954,5.13868c0,0 -2.82499,-0.95887 -4.13249,-1.47533c-9.79225,-3.86799 -15.479,-8.97845 -13.01925,-12.12668c2.78819,-3.5686 14.98785,-3.26459 27.24868,0.67901c12.26085,3.94358 17.88078,4.21573 15.09258,7.78431z" fill="#00b0f7"/><path d="M230.84242,148.8788l-10.56808,-6.79714c0,0 16.47948,-1.64154 24.98172,-1.00871c10.28295,0.76537 32.3958,5.2794 32.3958,5.2794l-19.66102,12.20811z" fill="#ff2b2b"/><path d="M216.75427,162.68153c0,0 -0.57963,-7.55293 -0.0151,-10.97427c0.54768,-3.3192 3.35325,-9.25668 3.35325,-9.25668l27.44944,3.77828c0,0 -1.86755,7.16868 -2.43972,10.63639c-0.53849,3.26354 -0.89841,9.59457 -0.89841,9.59457z" data-paper-data="{&quot;index&quot;:null}" fill="#cc0000"/><path d="M243.78016,166.33851c0,0 0.99346,-6.28955 1.07964,-9.58898c0.09157,-3.50582 -0.54539,-10.86436 -0.54539,-10.86436l33.97679,0.73362c0,0 2.04657,6.29889 1.95893,9.65456c-0.09035,3.45895 -2.4932,10.79874 -2.4932,10.79874z" fill="#f70000"/></g><path d="M227.03063,201.48667c-1.5466,3.69917 -0.65209,7.70615 -2.65015,9.31176c-1.30401,1.04788 -3.09872,1.56822 -4.10135,1.21795c-1.11748,-0.3904 -2.54201,-2.24999 -2.67131,-4.12467c-0.16448,-2.38451 -1.20228,-6.19449 0.22866,-9.61709c1.26228,-3.01912 4.99558,-5.43388 6.64447,-7.14653c1.68992,-1.75529 3.76912,-1.69925 5.05416,-1.25031c1.38737,0.48469 2.523,1.79271 2.38759,4.42708c-0.11239,2.18657 -3.73279,4.40905 -4.89206,7.18181z" fill="#ffab19" fill-rule="nonzero" stroke="#001026" stroke-width="1.2" stroke-linecap="butt" stroke-linejoin="miter"/><path d="M252.09602,189.06429c0.18507,-1.72043 2.17177,-2.54511 4.43743,-1.84198c2.26566,0.70313 3.95231,2.6678 3.76725,4.38822c-0.18507,1.72041 -2.03069,1.23348 -4.29634,0.53035c-2.26566,-0.70313 -4.0934,-1.35618 -3.90834,-3.0766z" data-paper-data="{&quot;index&quot;:null}" fill="#ffffff" fill-rule="nonzero" stroke="#001026" stroke-width="1.2" stroke-linecap="butt" stroke-linejoin="miter"/><path d="M263.20041,169.89829c0.89898,-4.98215 5.66658,-8.29222 10.64874,-7.39324c4.98215,0.89898 8.29222,5.66658 7.39324,10.64874c-0.89898,4.98215 -5.66658,8.29222 -10.64874,7.39324c-4.98215,-0.89898 -8.29222,-5.66658 -7.39324,-10.64874z" fill="#ffffff" fill-rule="nonzero" stroke="#001026" stroke-width="1.2" stroke-linecap="butt" stroke-linejoin="miter"/><path d="M237.67529,166.81676c0.89898,-4.98215 5.66658,-8.29222 10.64874,-7.39324c4.98215,0.89898 8.29221,5.66658 7.39323,10.64874c-0.89898,4.98215 -5.66657,8.29223 -10.64873,7.39325c-4.98215,-0.89898 -8.29222,-5.66658 -7.39324,-10.64874z" fill="#ffffff" fill-rule="nonzero" stroke="#001026" stroke-width="1.2" stroke-linecap="butt" stroke-linejoin="miter"/></g></g></svg>