<svg version="1.1" xmlns="http://www.w3.org/2000/svg" xmlns:xlink="http://www.w3.org/1999/xlink" width="129.72526" height="154.2528" viewBox="0,0,129.72526,154.2528"><defs><linearGradient x1="192.36633" y1="144.49502" x2="196.9552" y2="191.03468" gradientUnits="userSpaceOnUse" id="color-1"><stop offset="0" stop-color="#cc2981"/><stop offset="1" stop-color="#a92292"/></linearGradient><linearGradient x1="302.38392" y1="143.15648" x2="295.17814" y2="189.36334" gradientUnits="userSpaceOnUse" id="color-2"><stop offset="0" stop-color="#cc2981"/><stop offset="1" stop-color="#a92292"/></linearGradient><linearGradient x1="279.40136" y1="213.14454" x2="279.40136" y2="237.25755" gradientUnits="userSpaceOnUse" id="color-3"><stop offset="0" stop-color="#9966ff"/><stop offset="1" stop-color="#66ebff"/></linearGradient><linearGradient x1="309.62405" y1="208.89782" x2="309.62405" y2="237.33108" gradientUnits="userSpaceOnUse" id="color-4"><stop offset="0" stop-color="#9966ff"/><stop offset="1" stop-color="#66ebff"/></linearGradient><radialGradient cx="230.24877" cy="205.85558" r="5.02555" gradientUnits="userSpaceOnUse" id="color-5"><stop offset="0" stop-color="#54606d"/><stop offset="1" stop-color="#2c3136"/></radialGradient></defs><g transform="translate(-183.76295,-84.19638)"><g data-paper-data="{&quot;isPaintingLayer&quot;:true}" fill-rule="nonzero" stroke-miterlimit="10" stroke-dasharray="" stroke-dashoffset="0" style="mix-blend-mode: normal"><g data-paper-data="{&quot;index&quot;:null}" stroke="#000000" stroke-width="0.90024" stroke-linecap="round" stroke-linejoin="miter"><path d="M281.95338,161.82863c0,0 3.62792,-13.11664 3.86681,-13.7711c0.23884,-0.65433 1.56197,-6.43217 10.54646,-12.62465c0,0 7.45017,30.71559 -3.90383,44.19742c-0.0004,-0.00081 -2.53331,-8.59129 -10.50944,-17.80167zM282.11999,162.02347c-0.64116,-0.77066 -2.03552,-2.00247 -2.03552,-2.00247M292.81651,182.09258c0,0 -0.09917,-1.59997 -0.3541,-2.46308" fill="#be1e2d"/><path d="M296.08552,172.43231c0,0 -2.00117,-0.39757 -3.98085,-3.98115c-1.23165,-2.22109 -2.28294,-6.86216 -2.28294,-6.86216l-0.01526,0.1722c0.27124,-1.04594 0.51613,-2.23248 0.65698,-3.47109c0.24008,-2.09611 0.26184,-5.07242 0.20041,-7.96544l0.01024,-0.40777c0,0 0.8054,-5.69166 6.56754,-9.21037l0.08813,0.00362c0.80738,4.83005 1.7828,12.01737 1.56996,17.36175c-0.23857,5.99496 -1.52074,10.89693 -2.87802,14.4994l0.06382,-0.13898v0v0v0v0v0zM288.54768,165.33114c0,0 1.09328,-3.11252 1.27406,-3.74215" fill="#929497"/></g><g data-paper-data="{&quot;index&quot;:null}" stroke="#000000" stroke-width="0.90024" stroke-linecap="round" stroke-linejoin="miter"><path d="M200.3554,181.70876c-10.91683,-13.83715 -2.48954,-44.29917 -2.48954,-44.29917c8.78179,6.47711 9.91971,12.29426 10.13796,12.95509c0.2182,0.66092 3.42501,13.88757 3.42501,13.88757c-8.26744,8.95131 -11.07343,17.45651 -11.07343,17.45651zM213.35321,162.50555c0,0 -1.43299,1.18665 -2.09835,1.93649M200.3554,181.70876c-0.28246,0.85448 -0.43259,2.45051 -0.43259,2.45051" fill="#be1e2d"/><path d="M197.02336,174.54047c-1.24111,-3.64477 -2.36527,-8.58477 -2.41355,-14.58397c-0.04284,-5.34887 1.16252,-12.5009 2.12367,-17.30275l0.08829,-0.00075c5.64719,3.70216 6.27002,9.41543 6.27002,9.41543l-0.00279,0.40789c-0.15389,2.88953 -0.22711,5.86507 -0.0541,7.96778c0.10121,1.24248 0.30809,2.43623 0.54578,3.4903l-0.00975,-0.1726c0,0 -1.19898,4.60513 -2.50103,6.7857c-2.09303,3.51858 -4.10597,3.85198 -4.10597,3.85198zM203.57093,163.7618c0.16057,0.63508 1.15389,3.78093 1.15389,3.78093" fill="#929497"/></g><path d="M200.92719,143.75865c0,0 3.15685,-39.2668 51,-38.9999c32.82987,0.18315 44,38.9999 44,38.9999" data-paper-data="{&quot;index&quot;:null}" fill="none" stroke="#000000" stroke-width="7" stroke-linecap="round" stroke-linejoin="miter"/><path d="M243.37296,214.83396v0v0v0v0v0c-0.65353,1.7331 -2.41972,4.79054 -3.32155,5.48062c0,0 -3.65069,2.53988 -5.44999,0.91126c-0.76912,-0.69561 -0.9627,-1.6474 -0.71963,-2.78219c-0.35537,-0.21778 -0.82794,-0.6047 -0.93459,-1.22797c-0.17847,-1.03339 1.99919,-1.29088 1.99919,-1.29088l-0.00425,0.01842c0.1636,-0.27262 0.3322,-0.54326 0.52392,-0.82614c1.08952,-1.5966 3.14642,-3.63079 4.21524,-4.78494c0,0 0.9002,-1.02768 2.4465,-0.63804c1.64509,0.41426 1.89868,3.40676 1.24515,5.13985z" data-paper-data="{&quot;index&quot;:null}" fill="#be1e2d" stroke="#231f20" stroke-width="0.78672" stroke-linecap="round" stroke-linejoin="round"/><path d="M258.22143,217.36084v0v0v0v0c0,0 -3.46029,2.79337 -5.36972,1.29263c-0.82038,-0.6352 -1.07667,-1.57444 -0.91815,-2.72422c-0.37259,-0.19113 -0.86805,-0.5414 -1.02052,-1.15659c-0.25199,-1.01661 1.90166,-1.43279 1.90166,-1.43279l-0.00279,0.01787c0.14535,-0.28038 0.29365,-0.56521 0.46342,-0.86146c0.97422,-1.66721 2.87946,-3.84715 3.86174,-5.07474c0,0 1.28923,-1.15117 2.51557,-0.6503c1.2264,0.49988 1.65391,2.66047 1.40303,3.5905c-0.25169,0.93009 -1.35917,5.48766 -2.83423,6.99909z" data-paper-data="{&quot;index&quot;:null}" fill="#be1e2d" stroke="#231f20" stroke-width="0.78672" stroke-linecap="round" stroke-linejoin="round"/><path d="M252.91363,218.20271c1.58098,-0.36581 3.46597,0.19223 3.46597,0.19223c0,0 0.56085,5.18662 0.71651,7.06071c0.15651,1.87685 0.95861,4.84261 0.95861,4.84261c0,0 0.4701,0.31822 0.29134,1.07108c-0.18236,0.75085 -1.86057,0.80561 -3.97704,1.08774c-2.11262,0.27774 -3.8035,-0.15416 -4.09102,-0.92026c-0.29041,-0.76265 0.34728,-1.07532 0.34728,-1.07532c0,0 1.31474,-6.08433 0.54476,-8.24589c0.00424,0.00474 -0.27212,-3.54671 1.74359,-4.0129z" data-paper-data="{&quot;index&quot;:null}" fill="#be1e2d" stroke="#231f20" stroke-width="0.90024" stroke-linecap="round" stroke-linejoin="round"/><path d="M246.17528,218.40698v0v0v0v0v0c2.73305,1.44176 2.88852,4.03625 2.88927,4.03899c-0.67838,2.18579 0.81309,7.43393 0.81309,7.43393c0,0 0.65152,0.28141 0.39942,1.05634c-0.25589,0.77652 -1.92229,1.28462 -4.04977,1.09903c-2.12379,-0.18729 -3.80185,-0.16759 -4.01753,-0.91257c-0.21568,-0.74499 0.24129,-1.0821 0.24129,-1.0821c0,0 0.14699,-1.75636 0.21803,-3.63861c0.06884,-1.87697 0.04697,-7.0409 0.04697,-7.0409c0,0 1.66873,-1.89911 3.45924,-0.95411z" data-paper-data="{&quot;index&quot;:null}" fill="#be1e2d" stroke="#231f20" stroke-width="0.90024" stroke-linecap="round" stroke-linejoin="round"/><g data-paper-data="{&quot;index&quot;:null}" stroke-width="0.90024"><path d="M257.38982,211.83662v0v0v0v0v0c0.25922,2.82028 -0.69256,7.93472 -3.99813,9.56548c-3.26933,1.60933 -6.6187,1.1837 -9.97254,-1.38797c-2.77873,-2.13145 -2.39687,-7.76524 -1.9199,-10.90265v0c0,0 0.42446,-7.29579 6.61538,-7.85412c6.18901,-0.55833 8.72971,5.19879 9.01056,8.71805c0.11517,0.62313 0.20798,1.25765 0.26464,1.86121z" fill="#be1e2d" stroke="#000000" stroke-linecap="butt" stroke-linejoin="miter"/><path d="M255.25185,219.75878v0v0v0v0v0l-0.0232,0.14203c-0.50717,0.62467 -1.11659,1.14452 -1.83596,1.49953c-3.02831,1.49099 -6.12396,1.23638 -9.22949,-0.8536l-0.02527,-0.14562c0,0 -1.18601,-9.37426 4.75328,-9.4605c6.744,-0.09479 6.48897,7.26819 6.36065,8.81816z" fill="#e6e7e8" stroke="#231f20" stroke-linecap="round" stroke-linejoin="round"/></g><g data-paper-data="{&quot;index&quot;:null}" stroke="#000000" stroke-linecap="butt" stroke-linejoin="miter"><g><g stroke-width="0.4"><path d="M276.08468,234.41991l-0.04384,-0.00556c-1.44913,-0.13957 -3.3012,-0.8257 -3.97485,-1.45446l-0.10257,0.0956l-1.13897,-0.47477l0.31227,-0.24915c0.03465,-0.02906 3.49176,-2.82304 3.66823,-5.99681l0.01808,-0.32645l0.30467,0.11939c0.16202,0.06452 0.53244,0.23485 0.64257,0.48822l0.04444,0.01974c1.6936,0.75971 3.27891,0.75288 3.72483,0.73232l0.24121,-0.00359c0.11126,0.03183 0.4489,0.12701 0.47455,0.41645c0.02573,0.29135 -0.30925,0.47909 -0.49521,0.55203c-0.09051,0.00794 -0.18205,0.01406 -0.27558,0.01838c-1.33669,0.06163 -2.96784,-0.22667 -3.75747,-0.63994c-0.02764,0.16031 -0.0692,0.34683 -0.12968,0.55505c1.64471,0.70518 3.16177,0.69577 3.59631,0.67574l0.24416,-0.00177c0.11031,0.03182 0.44796,0.12705 0.4736,0.41644c0.02573,0.29136 -0.30829,0.47905 -0.49425,0.55199c-0.08955,0.00794 -0.18205,0.01406 -0.27558,0.01838c-1.44344,0.06656 -3.22944,-0.27421 -3.90955,-0.71431c-0.08215,0.1685 -0.17185,0.33736 -0.26922,0.50466c1.86024,0.94611 3.6043,0.91112 3.70717,0.92531c0.10786,0.03951 0.43806,0.15873 0.44206,0.45108c0.00404,0.2923 -0.34357,0.45226 -0.53494,0.51124c-1.51477,0.01779 -3.52674,-0.50192 -4.17202,-1.04871c-0.13376,0.17846 -0.28147,0.36324 -0.44136,0.54954c1.75436,0.96896 3.41106,1.03173 3.51039,1.0508c0.10625,0.04621 0.42885,0.18565 0.41768,0.4768c-0.01312,0.29029 -0.36818,0.43257 -0.56287,0.48035c-1.45887,-0.06337 -3.35093,-0.65111 -4.06257,-1.26201c-0.13585,0.13403 -0.27821,0.26937 -0.42896,0.4079c1.68258,1.03473 3.30362,1.18625 3.40225,1.21102c0.10272,0.05114 0.4166,0.20611 0.38926,0.49614c-0.02826,0.29098 -0.39084,0.41372 -0.50208,0.44441z" fill="#871212"/><path d="M275.04134,226.35036c-0.18394,3.3199 -3.7569,6.16753 -3.7569,6.16753l0.62935,0.26346l0.16886,-0.15734c0.00722,0.01292 0.00848,0.01949 0.01669,0.03427c0.3256,0.53215 2.36449,1.36871 3.96399,1.52595c0,0 0.69364,-0.19103 0.06971,-0.50023c0,0 -1.83895,-0.15567 -3.68707,-1.39197c0.30302,-0.2658 0.57514,-0.52353 0.82089,-0.7772c0.01134,0.01936 0.0158,0.03427 0.03102,0.05631c0.35317,0.51481 2.43424,1.23958 4.04016,1.30942c0,0 0.68144,-0.22926 0.04205,-0.50462c0,0 -1.86174,-0.05422 -3.78464,-1.20855c0.31068,-0.34566 0.57836,-0.6789 0.79846,-0.9967c0.01955,0.0341 0.03829,0.07018 0.07253,0.11499c0.3816,0.49452 2.49894,1.10311 4.10742,1.08482c0,0 0.66747,-0.26558 0.01465,-0.50336c0,0 -1.91643,0.05332 -3.93214,-1.04085c0,0 -0.01417,0.00066 -0.0341,-0.00033c0.22938,-0.36366 0.40114,-0.70292 0.5317,-1.01378c0.02024,0.02843 0.03572,0.05704 0.06668,0.09161c0.39498,0.43618 2.34489,0.86221 3.91018,0.79004c0.08972,-0.00413 0.17846,-0.01013 0.2661,-0.01794c0,0 0.64627,-0.31476 -0.0233,-0.50543c0,0 -0.05935,0.00655 -0.16891,0.0116c-0.51009,0.02351 -2.10721,0.0214 -3.83077,-0.75108c0,0 -0.00185,0.00009 -0.00566,0.00026c-0.01132,0.00052 -0.03863,0.00364 -0.07152,0.00897c0.16425,-0.4828 0.22574,-0.87376 0.24258,-1.14438c0.01008,0.0128 0.01324,0.01928 0.02431,0.03393c0.39498,0.43618 2.34489,0.86221 3.91018,0.79004c0.08972,-0.00413 0.17846,-0.01013 0.2661,-0.01794c0,0 0.64626,-0.31476 -0.02322,-0.50353c0,0 -0.05839,0.00651 -0.16605,0.01147c-0.50823,0.02344 -2.10725,0.02141 -3.83276,-0.75289c0,0 0,0 -0.00095,0.00004c-0.01037,0.00048 -0.10095,0.00652 -0.1819,0.03771c-0.00182,-0.01884 -0.0032,-0.02917 -0.0032,-0.02917c0.19509,-0.2438 -0.4905,-0.51511 -0.4905,-0.51511M274.60582,225.66995l0.60942,0.24174c0.21406,0.08477 0.55886,0.25346 0.72661,0.52501c1.63524,0.72545 3.15901,0.7177 3.58879,0.69788c0.08501,-0.00392 0.13399,-0.00995 0.13965,-0.01021l0.08955,-0.00794l0.08723,0.02344c0.50068,0.14164 0.62794,0.4169 0.64595,0.62246c0.03932,0.44218 -0.40634,0.69373 -0.54427,0.76068l-0.07869,0.03862l-0.0877,0.00786c-0.09337,0.00806 -0.18867,0.01437 -0.285,0.01881c-1.16856,0.05387 -2.67952,-0.15383 -3.59885,-0.52512c-0.00475,0.02009 -0.01032,0.04305 -0.01593,0.06509c1.52364,0.60474 2.89682,0.59629 3.30211,0.5776c0.08597,-0.00396 0.13593,-0.00812 0.14254,-0.00843l0.08946,-0.00985l0.08723,0.02344c0.49987,0.14358 0.62708,0.41885 0.64509,0.62441c0.03932,0.44218 -0.40634,0.69373 -0.54427,0.76068l-0.07869,0.03862l-0.0877,0.00786c-0.09332,0.00807 -0.18867,0.01437 -0.285,0.01881c-1.26776,0.05845 -2.93965,-0.19013 -3.82023,-0.62475c-0.01399,0.02435 -0.02694,0.05144 -0.04099,0.07574c1.71558,0.80508 3.26869,0.77699 3.28477,0.77625l0.08981,-0.00224l0.08472,0.03114c0.48817,0.1772 0.59411,0.46294 0.597,0.6692c0.00617,0.44181 -0.45709,0.66102 -0.59836,0.71774l-0.08163,0.03595l-0.08804,0.00025c-1.32936,0.0149 -3.24568,-0.40129 -4.12626,-0.95991c-0.03936,0.05006 -0.07962,0.10021 -0.12084,0.15131c1.6003,0.81039 3.0466,0.8668 3.06272,0.86797l0.08921,0.00437l0.08299,0.03498c0.47806,0.20517 0.5672,0.49546 0.55881,0.70318c-0.01933,0.44298 -0.49333,0.63427 -0.63875,0.6836l-0.08298,0.02747l-0.08723,-0.0026c-0.31591,-0.01475 -0.66329,-0.0546 -1.02205,-0.11568l0.04747,0.02337c0.46604,0.23219 0.54019,0.52602 0.52025,0.73052c-0.04207,0.44213 -0.52665,0.60836 -0.67441,0.6483l-0.0841,0.02375l-0.08658,-0.00926c-1.29898,-0.12661 -3.1151,-0.73106 -3.95105,-1.36941l-0.05353,0.05076l-0.28189,-0.11858l-0.62926,-0.26162l-0.73747,-0.30773l0.62454,-0.49835c0.03379,-0.02711 3.40954,-2.75865 3.57961,-5.82514l0.03621,-0.65206zM273.27002,232.17734c-0.01356,0.01387 -0.02718,0.0268 -0.04178,0.03887c1.42092,0.80065 2.7181,0.96996 2.91797,0.99293c-1.0934,-0.20517 -2.25399,-0.5947 -2.87619,-1.0318z" fill="#000000"/></g><path d="M252.20987,210.04988c0,0 5.7462,-0.6985 10.31301,3.3897c4.56689,4.09011 3.11153,8.45599 12.98144,12.93208c0,0 0.88252,2.8788 -3.75134,6.76078c0,0 -8.41203,-4.18828 -10.74375,-10.43191c-2.33164,-6.24179 -8.04881,-9.55276 -10.99893,-9.43757l-3.23627,-0.32033z" fill="#ba2915" stroke-width="0.4"/><g fill="#871212" stroke-width="0.4"><path d="M272.92476,225.12074c0,0 0.4049,3.87496 -4.02399,6.35023l-1.1282,-0.83688c0,0 4.0189,-4.3658 3.76954,-6.36596z"/><path d="M269.37462,222.59218c0,0 -0.13794,3.00346 -4.39261,5.68466l-1.36247,-1.31838c0,0 4.15229,-2.54107 4.58414,-5.63761z"/><path d="M266.8897,219.55438c0,0 -0.86555,3.07396 -5.38299,4.34722l-0.70817,-1.66473c0,0 4.71263,-1.72059 5.43825,-3.74296z"/><path d="M264.44138,215.58712c0,0 -0.69325,2.62203 -5.14654,3.7873l-1.05842,-1.35604c0,0 4.8398,-2.4535 5.31083,-3.55063z"/><path d="M259.77889,211.55916c0.33396,0.0982 1.62547,0.9872 1.62547,0.9872l-5.56652,3.05596l-1.64763,-1.32415c0,0 5.25473,-2.81722 5.58869,-2.71901z"/><path d="M256.27754,210.54106l-4.56799,2.90766l-2.23104,-0.24173l4.53814,-3.22622l2.2609,0.5603"/></g><path d="M271.78672,233.4121l-0.13846,-0.06747c-0.34692,-0.17338 -8.52152,-4.30347 -10.8596,-10.56197c-2.21388,-5.92535 -7.76444,-9.40114 -10.80156,-9.2838l-4.01326,-0.39716l6.2072,-3.28617c0,0 0.16852,-0.02103 0.47176,-0.03501c1.3688,-0.06312 6.13817,0.00097 10.02766,3.48332c1.6469,1.47279 2.54063,3.01344 3.40541,4.50242c1.57946,2.71889 3.2134,5.5318 9.51645,8.38979l0.0967,0.04378l0.0312,0.10178c0.03885,0.12412 0.87443,3.07324 -3.82499,7.01222l-0.11852,0.09824zM275.29799,226.53643c-6.35065,-2.90403 -8.01335,-5.76583 -9.62157,-8.5345c-0.88534,-1.52306 -1.72136,-2.96315 -3.31211,-4.38743c-3.75415,-3.36083 -8.36634,-3.42363 -9.6898,-3.36261c-0.22008,0.01109 -0.36425,0.02533 -0.37321,0.01625l-4.728,2.51652l2.42796,0.24208c3.08057,-0.12026 8.85143,3.22609 11.22949,9.59164c2.11021,5.64889 9.39688,9.65621 10.49023,10.23058c3.844,-3.27375 3.66438,-5.79307 3.57702,-6.31256z" fill="#000000" stroke-width="0.4"/><path d="M275.34504,226.55338c0.08736,0.51949 0.25357,3.05886 -3.59043,6.33261c-1.09335,-0.57437 -8.42373,-4.56973 -10.53394,-10.21862c-2.37806,-6.36555 -8.09872,-9.73103 -11.17929,-9.61077l-2.51036,-0.29862l4.73878,-2.52865c0.00896,0.00908 0.15395,-0.00582 0.37403,-0.01691c1.32346,-0.06102 5.97205,-0.00841 9.7262,3.35242c1.59076,1.42428 2.45937,2.88191 3.34471,4.40497c1.60821,2.76867 3.27964,5.67955 9.63029,8.58358z" data-paper-data="{&quot;noHover&quot;:true,&quot;origItem&quot;:[&quot;Path&quot;,{&quot;applyMatrix&quot;:true,&quot;segments&quot;:[[[431.94081,453.0728],[0,0],[-0.17472,1.03898]],[[439.09485,465.69792],[-7.688,-6.5475],[2.1867,-1.14874]],[[460.07531,445.23676],[-4.22042,11.29778],[4.75612,-12.7311]],[[482.53429,426.05348],[-6.16114,-0.24052],[0,0]],[487.39021,425.56932],[[477.93421,420.53628],[0,0],[-0.01792,0.01816]],[[477.18779,420.50378],[0.44016,0.02218],[-2.64692,-0.12204]],[[457.80819,427.229],[7.5083,-6.72166],[-3.1815,2.84856]],[[451.18397,436.00386],[1.77068,-3.04612],[-3.21644,5.53734]],[[431.94083,453.07286],[12.7013,-5.80806],[0,0]]],&quot;closed&quot;:true,&quot;fillColor&quot;:[0,0,0,1],&quot;strokeColor&quot;:[0,0,0],&quot;strokeWidth&quot;:0.4}]}" fill="#000000" stroke-width="0.2"/></g><g stroke-width="0.4"><path d="M238.67652,205.26938c0.00096,-0.00005 7.12995,-3.22932 16.96523,6.08011c0,0 -5.35796,2.73298 -10.73191,1.85616c-5.37486,-0.87683 -7.14924,-2.15723 -9.04628,-0.9442c0,0 -1.15521,-1.95743 2.26234,-3.53502c0,0 -1.29238,-2.36574 0.55063,-3.45705z" fill="#ba2915"/><g fill="#871212"><path d="M248.97082,206.56971c-2.30876,2.4258 -1.325,6.80227 -1.325,6.80227l-0.85019,0.0392c-1.30915,-5.15101 1.37623,-7.2524 1.37623,-7.2524z"/><path d="M245.11882,205.09068c0,0 -2.32087,2.0401 -1.61001,7.62293l-1.07914,-0.22476c0,0 -0.73081,-4.57846 1.43478,-7.66597z"/><path d="M252.13608,208.44962c-0.82937,0.61383 -1.13565,4.48368 -1.13565,4.48368l-0.60488,0.12353c-0.60234,-2.79708 1.06544,-5.12229 1.06544,-5.12229z"/><path d="M237.58311,211.67476c-0.00095,0.00004 -0.16135,-2.20588 1.23869,-3.27576c0.05682,-0.16357 0.01645,-2.72244 0.5953,-3.3701l1.33804,-0.25769c0,0 -1.30763,1.30705 -0.89432,3.45493c0,0 -1.56119,1.51659 -1.2849,3.40284l-0.99282,0.04578z"/></g><path d="M235.53851,210.81666c0.26387,-0.84711 1.02691,-1.5866 2.26904,-2.19957c-0.43607,-0.95686 -0.73849,-2.67056 0.77101,-3.5628c0.0436,-0.01907 1.05288,-0.46794 2.82977,-0.54987c3.19579,-0.14736 8.28556,0.89123 14.39598,6.67381l0.24346,0.23015l-0.29873,0.15199c-0.03609,0.01872 -3.65909,1.84335 -7.89018,2.03844c-1.04102,0.048 -2.04503,-0.0051 -2.98739,-0.15855c-1.81614,-0.29679 -3.22826,-0.63969 -4.36279,-0.91586c-2.20107,-0.53565 -3.39014,-0.78279 -4.51662,-0.06345l-0.20695,0.13164l-0.12425,-0.21105c-0.01643,-0.02767 -0.3961,-0.68604 -0.12235,-1.56488zM235.99223,210.94626c-0.13042,0.41497 -0.07752,0.76184 -0.01473,0.97387c1.18516,-0.63781 2.4596,-0.38702 4.64152,0.14383c1.12588,0.27371 2.5285,0.61519 4.32739,0.90806c0.909,0.14836 1.88267,0.20002 2.88967,0.15358c3.42438,-0.15789 6.44235,-1.4103 7.38995,-1.84117c-5.87587,-5.46015 -10.73811,-6.44958 -13.79693,-6.30854c-1.66257,0.07666 -2.62872,0.49608 -2.63248,0.49625c-1.33713,0.79151 -0.81956,2.34574 -0.56776,2.92106c0.56216,-0.20957 1.92098,-0.489 3.87273,0.59296c0,0 -2.02762,-0.90048 -4.05048,0.0476c-1.11357,0.54741 -1.83217,1.20342 -2.05887,1.9125z" fill="#000000"/></g><g stroke-width="0.4"><path d="M267.38118,206.72716c0.83242,1.38158 -0.62136,1.92198 -0.62136,1.92198c-18.11894,6.10169 -20.50031,0.64985 -23.01853,-1.83734c-2.51636,-2.48728 -5.06286,-1.54155 -5.06286,-1.54155c-1.60206,-3.94945 2.61531,-6.14607 2.61531,-6.14607l0.0558,1.2101c11.92262,8.36399 21.74876,-0.50962 21.74371,-0.61918c-0.00506,-0.10961 1.07874,0.29767 1.71809,1.33225c0.63939,1.03453 -0.50058,1.97509 -0.50058,1.97509c-0.1286,1.0709 2.23804,2.32309 3.07042,3.70472z" fill="#ba2915"/><g fill="#871212"><path d="M262.02236,200.59278c0,0 1.6371,0.5001 0.9312,3.15487c0,0 0.12747,1.49174 1.3655,2.67764c1.23797,1.18586 1.24953,2.07237 1.47816,2.53515l-1.86853,0.53774c0,0 -0.164,-1.6273 -0.97325,-2.50641c-0.8092,-0.87905 -1.01108,-2.19788 -1.11584,-2.7866c-0.10476,-0.58873 0.65646,-2.04384 -0.65806,-2.95923z"/><path d="M258.93092,202.44781c-0.02836,-0.24479 0.61786,0.99963 0.49834,2.67787c-0.11952,1.67824 0.923,2.48504 1.35859,3.57535c0.43554,1.09037 0.51139,1.56496 0.51139,1.56496l-1.36421,0.32703c0,0 -0.765,-2.3636 -1.37718,-3.32177c-0.61218,-0.95822 -0.34196,-1.93439 -0.38691,-2.90923c-0.04496,-0.97489 -0.36991,-1.3916 -0.36991,-1.3916z"/><path d="M255.28267,203.56176c0.00344,0.07465 0.75213,1.77536 0.43901,3.52503c-0.31317,1.74967 0.83939,3.87476 0.83939,3.87476l-1.3147,0.14772c0,0 -0.88868,-1.96596 -0.77343,-3.73678c0.11525,-1.77082 0.14564,-2.32225 -0.19855,-3.62884z"/><path d="M251.65806,203.8728c0,0 -0.77173,2.5206 0.06905,4.70078c0,0 -0.58845,1.34206 0.53798,2.67413l-0.70757,0.03262c0,0 -1.07521,-0.83748 -0.85685,-2.50702c0,0 -1.25178,-1.01297 -0.2763,-4.84269l1.23374,-0.05689z"/><path d="M247.74466,203.38206c0,0 -1.68904,2.33663 -0.70386,5.34795c0,0 -0.19545,0.46244 0.2555,1.25013l-1.05574,-0.64147c0,0 -0.2647,-0.52548 -0.21117,-0.72012c0.05348,-0.19465 -1.17526,-1.67251 0.35419,-5.62246z"/><path d="M243.52225,201.71279c0,0 -1.61762,1.27776 -1.07319,4.11255l-1.07015,-0.54235c0,0 -0.13703,-2.97185 1.25354,-4.04135z"/><path d="M241.1187,200.46039c0,0 -2.72956,0.99869 -2.33979,4.40194l0.00359,0.36526c0,0 -2.10439,-3.09988 2.51438,-6.0146z"/></g><path d="M238.45908,205.35892c-1.66401,-4.1018 2.68117,-6.42175 2.72455,-6.44554l0.32817,-0.17132l0.06747,1.46328c3.55688,2.46958 7.27041,3.63411 11.04146,3.46023c5.9088,-0.27245 9.82107,-3.66582 10.24338,-4.05353l0.00959,-0.14152l0.23616,-0.01088c0.2815,-0.01298 1.29842,0.48354 1.90205,1.46198c0.54832,0.88732 -0.00646,1.76963 -0.44907,2.1895l0.00852,0.02044c-0.00817,0.007 -0.01746,0.01124 -0.02567,0.01825c0.03942,0.48475 0.73862,1.11329 1.41897,1.72282c0.61326,0.55012 1.24721,1.1182 1.61823,1.73256c0.28911,0.47988 0.36373,0.92892 0.22251,1.33495c-0.2275,0.65044 -0.9336,0.91965 -0.9709,0.93272c-5.01702,1.68918 -9.24716,2.62358 -12.57425,2.77699c-6.18558,0.28521 -8.36238,-2.1259 -9.95066,-3.88635c-0.25332,-0.2799 -0.49283,-0.54622 -0.73478,-0.78403c-1.45703,-1.43992 -2.91601,-1.68979 -3.88239,-1.64523c-0.56865,0.02622 -0.92998,0.15649 -0.93369,0.15762l-0.2141,0.07895l-0.08552,-0.21188zM241.07561,199.52618c-0.91683,0.58567 -3.33124,2.46536 -2.25617,5.45552c0.715,-0.17876 2.95477,-0.44675 5.08729,1.66066c0.24792,0.24416 0.49334,0.51683 0.75273,0.80399c0.23943,0.26448 0.48869,0.53788 0.75693,0.81238c4.37699,1.22386 8.55453,-0.44083 8.55453,-0.44083c-2.91965,1.8443 -6.72636,1.26532 -7.96799,1.00734c1.52167,1.3631 3.76736,2.55837 8.23556,2.35234c3.28266,-0.15137 7.46967,-1.07715 12.43729,-2.74985c0.00558,-0.00216 0.53198,-0.20632 0.68397,-0.64688c0.09188,-0.2655 0.03104,-0.57888 -0.18117,-0.93166c-0.33413,-0.55355 -0.94145,-1.09827 -1.52898,-1.62407c-0.68432,-0.61406 -1.33142,-1.20047 -1.51861,-1.79017c-1.30375,0.79665 -2.89952,0.82384 -2.89952,0.82384c1.64907,-0.49354 2.47052,-1.01232 2.85102,-1.32144l0.00396,-0.03709l0.07298,-0.06019c0.04009,-0.03308 0.9721,-0.82389 0.45033,-1.6689c-0.49319,-0.7999 -1.25847,-1.17734 -1.44935,-1.23199c-0.86782,0.90903 -4.99924,3.94426 -10.51692,4.19868c-3.90991,0.18028 -7.75641,-1.0349 -11.43089,-3.61171l-0.09395,-0.06671l-0.04304,-0.93331z" fill="#000000"/></g></g><g data-paper-data="{&quot;index&quot;:null}" stroke="#000000" stroke-width="0.90024" stroke-linecap="round" stroke-linejoin="round"><path d="M294.34111,181.1923l-0.5347,1.5484c-2.9663,7.8213 -7.1831,12.3225 -7.1831,12.3225c0,0 0.1513,-1.3963 0.0703,-3.6397l-0.1315,-0.0459c-0.3799,1.1811 -1.0038,2.7043 -2.0408,4.5859c-2.2741,4.1321 -8.9521,7.5962 -8.9521,7.5962c0,0 0.4151,-1.4206 0.6752,-3.745l-0.0936,-0.3556c-0.7238,0.5573 -1.4746,1.0695 -2.2335,1.5682c-0.2233,0.1477 -0.4465,0.2917 -0.6734,0.4312c-0.6905,0.4295 -1.3936,0.8391 -2.1111,1.2217c-0.2835,0.1494 -0.5779,0.2881 -0.8651,0.4312c-0.5239,0.262 -1.0551,0.5095 -1.5943,0.749c-0.3961,0.1737 -0.7949,0.3466 -1.201,0.5077c-0.4204,0.1693 -0.8525,0.3214 -1.2819,0.4799c-0.7895,0.2826 -1.5907,0.5464 -2.41,0.7895c-0.2673,0.0792 -0.5347,0.1584 -0.8066,0.2322c-0.5842,0.1603 -1.173,0.3169 -1.7725,0.4556l0.0018,0.0018c-3.0096,0.7013 -6.2027,1.1586 -9.621,1.3692c-3.6982,0.2269 -7.0507,0.19 -10.1817,-0.0279v0c-2.4775,-0.1737 -4.7965,-0.4708 -6.9922,-0.8723c-0.1062,-0.0189 -0.2134,-0.0387 -0.3205,-0.0576c-0.6788,-0.1288 -1.3468,-0.2656 -2.0021,-0.4132c-0.2287,-0.0532 -0.4475,-0.1108 -0.6752,-0.1657c-0.8706,-0.207 -1.7168,-0.4339 -2.5513,-0.6752c-0.5275,-0.153 -1.0515,-0.3097 -1.5637,-0.4762c-0.3043,-0.0963 -0.6095,-0.1972 -0.9075,-0.2989c-0.8138,-0.2809 -1.6204,-0.5662 -2.4027,-0.8741l-0.136,0.1305c0.2953,2.1147 1.0245,3.2526 1.607,3.7945c1.1874,1.1064 3.4731,1.3693 3.4731,1.3693c0,0 -6.9868,0.9777 -10.7912,-4.4166c-0.4042,-0.5734 -0.812,-1.1676 -1.1991,-1.8005l-0.1666,-0.3619c-0.8264,-0.2763 -1.6636,-0.6436 -2.4901,-1.1163c-5.0395,-2.9033 -5.6724,-5.2979 -5.6724,-5.2979l0.1053,0.8777c0.4853,2.2876 0.9588,3.7315 0.9588,3.7315c0,0 -6.0316,-3.817 -8.718,-9.5371c-2.1659,-4.6174 -2.3379,-7.4144 -2.3523,-7.8844l-0.2026,-1.6798c-0.1305,-6.5781 0.2782,-13.9565 1.1821,-21.2152l0.0558,-0.1935c0.8057,-5.6112 0.0243,-14.9072 7.4693,-24.4191c13.9511,-17.8195 28.2037,-17.2001 36.7281,-30.3697c6.2702,-9.6885 4.6597,-20.8002 4.6597,-20.8002c0,0 3.845,5.4438 5.379,8.6406c1.4854,3.1157 3.0716,7.1317 3.0716,7.1317l0.0513,-0.0342c0.0351,-0.1171 0.0666,-0.2368 0.0936,-0.3565c0.4187,-1.8644 0.253,-4.621 0.253,-4.621c0,0 3.6658,10.7435 9.584,17.787c5.9146,7.04 14.4633,9.052 25.2563,33.1614c1.3432,2.996 2.5918,5.5176 3.2598,8.3129l0.3025,1.6087c0.9408,5.027 0.5708,18.915 -1.4062,24.9152zM225.20061,157.5807c0,0 -6.9913,7.2622 -6.5304,17.3675c0.4078,8.9412 2.7251,11.7031 3.9737,12.3945c1.2838,0.7067 3.2742,0.2881 3.2742,0.2881c0,0 -5.6301,2.9816 -10.2196,-1.0641c-3.0698,-2.7043 -6.4106,-6.1928 -7.346,-16.0324M283.3789,173.6842c0,0 0.8687,2.4865 -1.2487,7.6836c-2.382,5.8552 -7.4081,7.6665 -7.4081,7.6665c0,0 4.1762,-9.0205 0.6716,-17.5017c-1.5295,-3.7054 -6.2504,-6.4655 -11.1783,-8.4145c-6.678,-2.6432 -13.7351,-3.7955 -13.7351,-3.7955M286.59271,191.2795c-0.3763,1.1955 -1.0091,2.7556 -2.0768,4.6876c-2.2732,4.1321 -8.9512,7.5962 -8.9512,7.5962c0,0 1.2064,-4.1447 0.795,-9.8514M209.77671,177.7848c-0.686,1.273 -1.2135,2.6377 -1.5088,4.079c-1.8545,8.9863 1.4089,18.8845 1.4089,18.8845c0,0 -6.0298,-3.8153 -8.718,-9.5372c-2.3829,-5.0783 -2.3523,-7.9546 -2.3523,-7.9546M293.8019,182.747c-2.9681,7.8213 -7.184,12.3225 -7.184,12.3225c0,0 0.8706,-7.9329 -2.6413,-16.415c-0.1584,-0.3835 -0.3376,-0.7562 -0.5275,-1.1181M250.48121,159.3226c0,0 1.1956,0.3169 4.35,2.8277c3.1545,2.5108 4.3149,5.2502 4.3149,5.2502c0,0 -9.3139,-2.4531 -14.4705,-4.3076c-5.1512,-1.8563 -22.534,-6.5898 -22.534,-6.5898M220.9875,196.6683c2.5251,3.9665 5.1521,6.1244 5.1521,6.1244c0,0 -6.1784,1.913 -11.8545,-1.354c-5.0395,-2.9032 -5.6724,-5.2979 -5.6724,-5.2979M276.1445,199.4645c-6.6591,5.1233 -14.737,7.6341 -24.5623,8.239c-11.7139,0.7211 -20.2761,-0.9902 -27.5942,-3.8611M223.78001,203.3184c0.2215,2.5369 1.0371,3.8522 1.6772,4.4463c1.1883,1.1064 3.474,1.3693 3.474,1.3693c0,0 -6.9886,0.9777 -10.7921,-4.4166c-0.4042,-0.5734 -0.812,-1.1676 -1.1991,-1.8005M251.15731,159.6233c0,0 25.5147,3.1122 25.5147,17.038" fill="#be1e2d"/><path d="M281.67291,182.6831c-0.9516,10.0152 -12.4648,20.4643 -29.3137,21.4492c-14.8748,0.8777 -36.8569,-5.8111 -40.0465,-18.1282c-0.3169,-1.2379 -0.4852,-2.4334 -0.5311,-3.5821l0.3232,0.2359c1.1289,1.6528 2.3811,2.8447 3.5937,3.9106c4.5895,4.0439 10.2196,1.0623 10.2196,1.0623c0,0 -1.9904,0.4204 -3.2742,-0.2863c-1.2486,-0.6914 -3.5659,-3.4533 -3.9737,-12.3945c-0.4609,-10.1071 6.5304,-17.3675 6.5304,-17.3675l0.0243,-0.2323c5.2322,1.4494 15.6561,4.3752 19.4489,5.7427c5.1566,1.8554 14.4705,4.3076 14.4705,4.3076c0,0 -1.1604,-2.7394 -4.3149,-5.2502c-1.579,-1.2558 -2.6656,-1.9625 -3.357,-2.3559l0.6482,0.1017c0,0 19.6721,2.9078 23.2749,11.6365c3.5037,8.4821 -0.6707,17.5017 -0.6707,17.5017c0,0 4.2798,-1.5439 6.8077,-6.3791z" fill="#e6e7e8"/></g><path d="M235.79513,179.09209v0v0v0v0v0c0.67051,0.32482 0.94875,1.13058 0.62206,1.80075c-0.32514,0.67228 -1.12735,0.95116 -1.80381,0.62893c-0.03851,-0.01975 -3.95888,-1.88372 -8.20091,-1.43558c-0.13039,0.01307 -0.25696,0.00946 -0.38007,-0.01274c-0.57582,-0.10382 -1.03908,-0.57885 -1.1038,-1.18871c-0.03917,-0.35651 0.07321,-0.69575 0.27837,-0.96065c-0.20968,-0.26288 -0.39451,-0.58701 -0.4876,-1.00455c-0.11018,-0.48454 0.19454,-0.96743 0.68071,-1.0765c0.48086,-0.10444 0.96712,0.19174 1.07763,0.6801c0.08717,0.38894 0.50968,0.57211 0.51467,0.57484c0.12503,0.05272 0.22843,0.13355 0.31269,0.22922c0.13614,-0.00381 0.27322,-0.00836 0.40652,-0.00718c-0.09935,-0.23008 -0.18447,-0.4833 -0.20963,-0.78058c-0.04032,-0.49663 0.3285,-0.92875 0.8253,-0.96996c0.50114,-0.045 0.9302,0.33059 0.96996,0.8253c0.03204,0.39546 0.41318,0.64068 0.4164,0.64309c0.18046,0.10031 0.29823,0.25872 0.37353,0.43508c3.2001,0.42423 5.57335,1.55374 5.70798,1.61917z" data-paper-data="{&quot;index&quot;:null}" fill="#231f20" stroke="none" stroke-width="0.90024" stroke-linecap="butt" stroke-linejoin="miter"/><path d="M267.82363,176.2266v0v0v0v0v0c-0.04452,0.81728 -0.4542,1.35978 -0.80326,1.70101c0.13434,0.23652 0.22418,0.50479 0.19439,0.79623c-0.07613,0.74085 -0.72225,1.28326 -1.4803,1.20764c-2.87348,-0.29197 -6.50358,-0.03229 -7.12238,0.80621c-0.22368,0.30159 -0.54706,0.48376 -0.89381,0.53279c-0.3414,0.04827 -0.69753,-0.03327 -0.99515,-0.25388c-0.59898,-0.4427 -0.72571,-1.28758 -0.2816,-1.88868c1.19616,-1.61649 4.14911,-1.99676 6.5516,-2.02015c0.10097,-0.11517 0.25505,-0.34329 0.23329,-0.62573c-0.04414,-0.49287 0.28205,-0.95732 0.81574,-0.97632c0.49464,-0.04449 0.93068,0.31935 0.97631,0.81565c0.02604,0.31273 -0.01354,0.58566 -0.07512,0.83797c0.12014,0.00755 0.23456,0.01319 0.34233,0.02259c0.0725,-0.15579 0.17058,-0.29782 0.32788,-0.39459c0.02294,-0.01779 0.39007,-0.26977 0.41277,-0.66211c0.02984,-0.49606 0.44526,-0.88304 0.94933,-0.84796c0.49606,0.02984 0.87488,0.45186 0.84796,0.94933z" data-paper-data="{&quot;index&quot;:null}" fill="#231f20" stroke="none" stroke-width="0.90024" stroke-linecap="butt" stroke-linejoin="miter"/><g data-paper-data="{&quot;index&quot;:null}" stroke-linejoin="miter"><path d="M204.54717,167.56299c-0.15199,12.9778 -1.93634,23.47893 -7.27472,23.41641c-5.33839,-0.06252 -13.2092,-10.67673 -13.05721,-23.65453c0.15199,-12.9778 8.26924,-23.40477 13.60763,-23.34224c5.33839,0.06252 6.8763,10.60256 6.72431,23.58036z" fill="url(#color-1)" stroke="#000000" stroke-width="0.90024" stroke-linecap="butt"/><path d="M190.73153,152.45447l2.1333,-2.82295" fill="none" stroke="#ea42a4" stroke-width="2" stroke-linecap="round"/><path d="M197.43149,157.22003l3.38359,-0.33362" fill="none" stroke="#ea42a4" stroke-width="2" stroke-linecap="round"/><path d="M192.96588,162.88556l-0.42048,1.85019" fill="none" stroke="#ea42a4" stroke-width="2" stroke-linecap="round"/><path d="M190.92236,172.73361l1.62874,2.25104" fill="none" stroke="#ea42a4" stroke-width="2" stroke-linecap="round"/><path d="M200.62467,179.4138l1.59228,-0.157" fill="none" stroke="#ea42a4" stroke-width="2" stroke-linecap="round"/><path d="M195.0013,187.60513l-1.83057,-0.22145" fill="none" stroke="#ea42a4" stroke-width="2" stroke-linecap="round"/><path d="M189.36097,179.3186l-1.2503,-2.48933" fill="none" stroke="#ea42a4" stroke-width="2" stroke-linecap="round"/><path d="M187.74615,167.01769l-1.39046,-1.8726" fill="none" stroke="#ea42a4" stroke-width="2" stroke-linecap="round"/><path d="M188.04039,155.73436l0.157,1.59228" fill="none" stroke="#ea42a4" stroke-width="2" stroke-linecap="round"/><path d="M198.21636,150.91257l2.51174,-3.06124" fill="none" stroke="#ea42a4" stroke-width="2" stroke-linecap="round"/></g><g data-paper-data="{&quot;index&quot;:null}" stroke-linejoin="miter"><path d="M296.96497,142.33722c5.33342,0.2386 12.8498,11.10666 12.26979,24.07239c-0.58002,12.96573 -9.03681,23.11924 -14.37024,22.88065c-5.33342,-0.2386 -6.52281,-10.82363 -5.94278,-23.78935c0.58002,-12.96573 2.70981,-23.40228 8.04323,-23.16368z" fill="url(#color-2)" stroke="#000000" stroke-width="0.90025" stroke-linecap="butt"/><path d="M303.56732,151.19544l-1.97072,-2.93875" fill="none" stroke="#ea42a4" stroke-width="2" stroke-linecap="round"/><path d="M293.24992,155.05176l3.3594,0.52388" fill="none" stroke="#ea42a4" stroke-width="2" stroke-linecap="round"/><path d="M301.06384,163.35489l-0.31548,-1.87094" fill="none" stroke="#ea42a4" stroke-width="2" stroke-linecap="round"/><path d="M302.23334,171.43156l-1.75309,2.15562" fill="none" stroke="#ea42a4" stroke-width="2" stroke-linecap="round"/><path d="M290.58889,177.3075l1.58089,0.24654" fill="none" stroke="#ea42a4" stroke-width="2" stroke-linecap="round"/><path d="M299.16244,185.93155l-1.84014,0.11787" fill="none" stroke="#ea42a4" stroke-width="2" stroke-linecap="round"/><path d="M304.80959,175.67924l-1.38867,2.41487" fill="none" stroke="#ea42a4" stroke-width="2" stroke-linecap="round"/><path d="M305.72679,165.90383l1.49383,-1.79122" fill="none" stroke="#ea42a4" stroke-width="2" stroke-linecap="round"/><path d="M305.82271,156.20276l0.24654,-1.5809" fill="none" stroke="#ea42a4" stroke-width="2" stroke-linecap="round"/><path d="M293.84621,146.03595l2.33513,3.198" fill="none" stroke="#ea42a4" stroke-width="2" stroke-linecap="round"/></g><path d="M249.46742,189.35745c-4.28358,0.04206 -5.23443,-3.07684 -5.23443,-3.07684c0,0 0.78117,-0.47797 3.9373,-0.52044c3.15544,-0.041 5.54792,0.20693 5.54792,0.20693c0,0 0.02919,3.34893 -4.25079,3.39036z" data-paper-data="{&quot;index&quot;:null}" fill="#58595b" stroke="#231f20" stroke-width="0.9025" stroke-linecap="round" stroke-linejoin="miter"/><g stroke-linejoin="miter"><g stroke-linecap="butt"><g stroke="#000000" stroke-width="1"><path d="M251.56209,213.14454h55.67854v24.113h-55.67854z" fill="url(#color-3)"/><path d="M256.5013,208.72383h55.67854l-4.93922,4.42072h-55.67855z" fill="#9966ff"/><path d="M307.4912,213.1176l4.71472,-4.21977l-0.67354,24.51489l-4.49021,3.91836z" fill="url(#color-4)"/></g><path d="M304.73979,213.99646c0.44092,0 0.79835,0.15996 0.79835,0.35728c0,0.19732 -0.35743,0.35727 -0.79835,0.35727c-0.44092,0 -0.79836,-0.15995 -0.79836,-0.35727c0,-0.19732 0.35744,-0.35728 0.79836,-0.35728z" fill="#b9b9b9" stroke="none" stroke-width="0.5"/><path d="M304.38497,235.9091c0.44092,0 0.79835,0.15995 0.79835,0.35727c0,0.19732 -0.35743,0.35727 -0.79835,0.35727c-0.44092,0 -0.79836,-0.15995 -0.79836,-0.35727c0,-0.19732 0.35744,-0.35727 0.79836,-0.35727z" fill="#b9b9b9" stroke="none" stroke-width="0.5"/><path d="M253.46788,236.22667c0.44091,0 0.79835,0.15996 0.79835,0.35727c0,0.19732 -0.35744,0.35727 -0.79835,0.35727c-0.44091,0 -0.79835,-0.15995 -0.79835,-0.35727c0,-0.19732 0.35744,-0.35727 0.79835,-0.35727z" fill="#b9b9b9" stroke="none" stroke-width="0.5"/><path d="M252.93564,213.83767c0.44091,0 0.79835,0.15995 0.79835,0.35727c0,0.19732 -0.35744,0.35727 -0.79835,0.35727c-0.44091,0 -0.79835,-0.15995 -0.79835,-0.35727c0,-0.19732 0.35744,-0.35727 0.79835,-0.35727z" fill="#b9b9b9" stroke="none" stroke-width="0.5"/></g><g stroke="#000000" stroke-width="1" stroke-linecap="butt"><path d="M256.16442,225.14221c0,-5.20726 4.22132,-9.42857 9.42857,-9.42857c5.20725,0 9.42857,4.22132 9.42857,9.42857c0,5.20726 -4.22132,9.42857 -9.42857,9.42857c-5.20725,0 -9.42857,-4.22132 -9.42857,-9.42857z" fill="#8499b1"/><path d="M259.39707,225.54629c0,-3.04996 2.47248,-5.52245 5.52245,-5.52245c3.04996,0 5.52245,2.47249 5.52245,5.52245c0,3.04996 -2.47249,5.52244 -5.52245,5.52244c-3.04996,0 -5.52245,-2.47248 -5.52245,-5.52244z" fill="#92c5ff"/></g><g stroke="#000000" stroke-width="1" stroke-linecap="butt"><path d="M280.16442,225.17792c0,-5.20726 4.22132,-9.42857 9.42857,-9.42857c5.20725,0 9.42857,4.22132 9.42857,9.42857c0,5.20726 -4.22132,9.42857 -9.42857,9.42857c-5.20725,0 -9.42857,-4.22132 -9.42857,-9.42857z" fill="#8499b1"/><path d="M283.39707,225.58201c0,-3.04996 2.47249,-5.52245 5.52245,-5.52245c3.04996,0 5.52245,2.47249 5.52245,5.52245c0,3.04996 -2.47249,5.52245 -5.52245,5.52245c-3.04996,0 -5.52245,-2.47248 -5.52245,-5.52245z" fill="#92c5ff"/></g><path d="M299.73584,210.8184l4,-18.57143" fill="none" stroke="#000000" stroke-width="2" stroke-linecap="round"/></g><g data-paper-data="{&quot;index&quot;:null}" stroke="#001026" stroke-width="0.9" stroke-linejoin="miter"><g><path d="M240.90739,221.43793c0,0 -1.43134,1.55489 -2.24008,1.81875c-0.76247,0.24877 -2.4817,-0.27822 -2.4817,-0.27822l-7.59631,-12.46956l8.24993,-3.66887l4.06815,14.59791z" fill="#505a63" stroke-linecap="butt"/><path d="M236.92546,205.77621c1.12782,2.53606 -0.01377,5.50624 -2.54983,6.63406c-2.53606,1.12783 -5.50624,-0.01378 -6.63406,-2.54984c-1.12782,-2.53605 0.01378,-5.50623 2.54984,-6.63405c2.53606,-1.12782 5.50623,0.01378 6.63405,2.54984z" fill="url(#color-5)" stroke-linecap="butt"/><path d="M232.63989,203.00094c0,0 1.57187,2.16889 2.11744,3.43419c0.58374,1.35384 1.27822,4.44118 1.27822,4.44118" fill="none" stroke-linecap="round"/><path d="M229.06833,204.80257c0,0 1.02302,1.51903 1.38229,2.58663c0.48623,1.44493 1.27128,5.2988 1.27128,5.2988" fill="none" stroke-linecap="round"/><path d="M227.48591,207.95932c0,0 3.01655,-1.65093 4.49058,-1.94608c1.69431,-0.33927 5.10679,0.02434 5.10679,0.02434" fill="none" stroke-linecap="round"/><path d="M228.06041,210.69011c0,0 2.45277,-0.76427 3.75284,-0.89039c1.67242,-0.16222 5.44898,-0.00222 5.44898,-0.00222" fill="none" stroke-linecap="round"/></g><path d="M232.36758,219.39968c-0.74707,-1.69359 0.07777,-3.50558 1.84236,-4.0472c1.76458,-0.54162 4.1479,0.81284 4.89498,2.50642c0.74708,1.69359 -0.425,3.08497 -2.18958,3.62659c-1.76459,0.54162 -3.80068,-0.39223 -4.54776,-2.08581z" fill="#be1e2d" stroke-linecap="butt"/></g></g></g></svg>