<svg version="1.1" xmlns="http://www.w3.org/2000/svg" xmlns:xlink="http://www.w3.org/1999/xlink" width="154.29982" height="154.05779" viewBox="0,0,154.29982,154.05779"><g transform="translate(-269.35008,-249.97112)"><g data-paper-data="{&quot;isPaintingLayer&quot;:true}" fill="#000000" fill-rule="nonzero" stroke="none" stroke-width="0.5" stroke-linecap="butt" stroke-linejoin="miter" stroke-miterlimit="10" stroke-dasharray="" stroke-dashoffset="0" style="mix-blend-mode: normal"><path d="M417.21652,386.34784l-0.93448,1.80584c-2.96102,3.83146 -8.74989,6.47868 -12.93005,8.97927c-4.48365,1.79353 -8.36648,5.58895 -13.11808,6.68499c-1.96321,0.45285 -4.02941,0.03574 -6.04417,0.03574c-6.39661,0 -12.63628,0.266 -18.81403,-1.66425c-4.84733,-1.51455 -12.68126,-4.70538 -11.44286,-11.18592c0.39448,-2.06428 1.23834,-2.81475 2.43888,-4.4019c2.3002,-1.55887 4.12058,-3.43093 6.2795,-5.10807c2.16217,-1.67966 4.75261,-2.78951 6.86889,-4.57131c5.46383,-4.60023 10.72121,-13.55169 12.14493,-20.53089c0.62669,-3.07207 0.19965,-6.18219 0.51062,-9.26626c-3.80436,2.11448 -7.87593,3.57928 -11.90433,5.19058c-10.86984,5.13524 -22.15257,4.99956 -33.98761,4.99956h-1.53846c0,0 -0.79898,0 -1.31721,-0.53986c-1.5959,0.03994 -3.17386,-0.02937 -4.66584,-0.24248c-4.52446,-0.64627 -9.06062,-2.72674 -13.37768,-4.16631c-3.03731,-1.01283 -6.85761,-1.87354 -9.40855,-3.88352c-3.55482,-2.80099 -6.73613,-6.68196 -9.22527,-10.40864c-3.02705,-4.54057 -6.11713,-9.44259 -7.95592,-14.67466c-5.10355,-3.90372 -9.69763,-8.64414 -13.48198,-13.26616c-1.90449,-2.32604 -4.87968,-5.40838 -5.7156,-8.332c-1.24294,-4.34717 2.51631,-10.53557 4.29522,-14.39688c1.07775,-0.42676 2.07464,-1.3164 3.23324,-1.28028c2.83598,0.08841 7.28957,4.75069 8.97293,6.79285c0.54922,0.66629 1.09087,1.33661 1.62613,2.01048c1.35754,-6.16361 4.39655,-12.15043 7.71375,-17.3429c10.26927,-14.38189 25.7219,-25.19331 43.72393,-27.07873c5.30284,-0.55539 10.81327,-0.53341 16.13886,-0.53501c8.73465,0.76 16.19642,4.24544 23.4386,8.99596c2.56683,1.68372 5.7032,3.49971 7.87881,5.64762c8.3003,8.19466 13.25137,21.67067 14.43499,33.00151c0.64504,5.85287 1.69007,11.85843 1.20296,17.76601c-0.27995,3.39523 -1.02669,6.78286 -2.18452,10.04471c0.55286,-0.15819 1.08199,0.00056 1.08199,0.00056c3.84359,1.17293 6.39789,2.86712 9.65392,5.18754c2.46431,1.75619 5.11011,3.73395 6.98196,6.16842c7.33866,9.54444 6.16521,25.0079 4.97871,36.22515c-1.50266,4.27877 -3.18009,8.46349 -5.35676,12.43091c0.00769,0.50207 -0.19544,0.90834 -0.19544,0.90834zM385.82882,346.29303c-0.73128,3.56797 -0.00394,7.19756 -0.73401,10.79593c-1.57402,7.75802 -7.26508,17.36466 -13.31239,22.50384c-2.14769,1.82518 -4.78211,2.94975 -6.97726,4.65946c-2.06227,1.60621 -3.80149,3.43561 -6.02819,4.89194c-4.6535,6.29814 5.60374,9.45649 10.31806,10.47912c4.95146,1.07407 10.06733,0.73035 15.09469,0.73035c1.78019,0 3.6059,0.43626 5.34045,0.03574c4.38529,-1.01261 8.09652,-4.724 12.26653,-6.39193c3.43545,-2.06886 8.83471,-4.39965 11.38923,-7.55613l0.19549,-1.00728c2.50036,-4.16167 4.33728,-8.63426 5.97301,-13.1953c0.45221,-4.52598 0.31606,-9.05031 0.31606,-13.59664c0,-6.73785 -0.26272,-14.07033 -4.61951,-19.67977c-1.68667,-2.17161 -4.0639,-3.9275 -6.27192,-5.49546c-2.95608,-2.09917 -5.14073,-3.66077 -8.63066,-4.68704c0,0 -0.70993,-0.21298 -1.06715,-0.82375c-2.89497,6.74228 -7.56355,12.7839 -13.47908,17.00707c0.37214,0.60237 0.22664,1.32985 0.22664,1.32985zM368.2904,344.87957c-1.23744,1.23744 -2.47487,0 -2.47487,0l-0.19718,-0.22206c-3.89723,-2.97761 -8.50322,-1.49342 -13.07202,-1.19184c-2.69181,0.17768 -5.20693,-0.08447 -7.89021,0.36287c-4.80135,0.80046 -9.51053,2.75379 -14.13828,4.22104c-2.59813,0.82374 -5.67621,1.30714 -7.58039,3.0951c5.98116,1.78072 11.50449,2.63018 17.96666,1.17372c0,0 1.70833,-0.37962 2.08796,1.3287c0.01138,0.05122 0.02089,0.10125 0.02862,0.15011c8.91887,-0.10462 17.51896,-0.75913 25.85303,-4.69042c4.17524,-1.67016 8.39046,-3.16662 12.30088,-5.43981c9.95653,-5.78787 16.65134,-17.21688 17.59398,-28.57333c0.4713,-5.67805 -0.57521,-11.48099 -1.19509,-17.10592c-0.9498,-9.30142 -4.3344,-17.95519 -9.65307,-25.65924c-0.06484,-0.09393 -3.63472,-5.0992 -3.7614,-5.22388c-2.02288,-1.99089 -4.95617,-3.64905 -7.3384,-5.21074c-6.67919,-4.37863 -13.58717,-7.7574 -21.66641,-8.42588c-5.1627,0.00622 -10.49108,-0.00591 -15.6313,0.51949c-16.95983,1.73354 -31.52876,12.04398 -41.18481,25.55756c-3.51148,5.49216 -6.74433,11.99633 -7.62752,18.56013c-0.02667,0.19819 -0.04999,0.39813 -0.07029,0.59963c3.04851,4.05136 5.95168,8.19619 8.95727,12.33661c1.41198,1.9451 3.28712,3.59082 4.83801,5.46391c-0.20027,-1.16134 -0.36896,-2.33556 -0.28644,-3.63244c0.06474,-1.0174 -0.32045,-2.30793 0.39665,-3.03256c2.88858,-2.91888 9.7936,1.6884 11.58851,4.27574c2.26367,3.26306 0.11049,7.44575 -0.42515,10.92262c-0.31133,2.0208 0.75028,3.81412 -1.52121,5.43716c-0.4928,0.35211 -1.11242,0.35855 -1.74943,0.32232c-0.11395,2.47921 -0.05754,5.91933 -1.45578,7.15831c-4.61551,4.08978 -9.16044,-3.1373 -10.53825,-6.31731l-0.43602,-1.65937c-1.97555,-0.79895 -3.91436,-1.77997 -5.80371,-2.90255c1.60004,3.16102 3.53949,6.17768 5.45816,9.05568c2.3015,3.45921 5.22354,6.94559 8.46704,9.59136c2.78753,2.27383 7.79796,3.19978 11.25714,4.29106c2.39578,-3.24556 5.99865,-4.00929 10.07257,-5.30199c4.78425,-1.51808 9.64028,-3.50726 14.60555,-4.3346c2.8141,-0.46889 5.44867,-0.21676 8.26364,-0.40635c5.59637,-0.37691 10.55432,-1.68856 15.38951,1.88508l0.57205,0.54718c0,0 1.23744,1.23744 0,2.47487zM306.75649,334.80885c0.53751,0.31966 1.48289,1.23759 1.75135,0.67277c0.52328,-1.10095 0.50107,-2.86288 0.50921,-4.51693c-1.71824,0.12527 -3.34675,0.13149 -5.06994,-0.01495c0.65754,1.60349 1.19368,2.89824 2.80939,3.85911z"/><path d="M353.99362,332.51983c-1.95668,3.61762 -7.06331,6.01454 -10.67565,3.297c-2.77393,-2.08681 -4.41446,-6.86935 -5.90718,-9.85361c0,0 -0.12311,-0.24622 -0.17402,-0.59218c-0.2567,0.04603 -0.51354,0.09159 -0.77052,0.13663c-0.07646,0.52137 -0.37674,1.18874 -1.37778,1.38894c-1.71602,0.34321 -2.05922,-1.37282 -2.05922,-1.37282c-0.00026,-0.00139 -0.00052,-0.00277 -0.00079,-0.00417c-0.41202,-0.23015 -0.80243,-0.66631 -0.80243,-1.49289c0,-0.18755 0.02009,-0.355 0.05599,-0.5045c-1.21199,-2.51707 -3.27391,-5.70448 -2.21408,-7.89577c0.94615,-1.95626 7.33522,-4.39758 9.4527,-4.11163c1.03932,0.14035 2.12868,0.49419 2.91184,1.19173c0.88854,0.7914 1.39056,1.95484 1.85224,3.05151c0.03542,0.08412 0.00189,0.228 -0.05217,0.37049c2.91302,-5.37142 9.03175,-9.50598 13.4138,-13.71275c5.065,-4.86208 10.74123,-8.85944 15.93179,-13.53919c0.92372,-0.83282 4.94431,-5.31448 6.53209,-4.63831c2.79854,1.19177 4.21408,7.02307 5.13301,9.59516c1.1025,3.08595 2.35348,6.12926 3.45801,9.22078c0.33477,0.937 1.49849,4.12597 1.22228,5.15828c-0.66732,2.49412 -2.0357,3.21044 -3.78291,4.55052c-8.81932,5.87439 -17.84132,7.30376 -28.10462,8.76983c-1.95434,0.27917 -3.8979,0.60472 -5.83589,0.95616c2.08008,2.91919 3.85249,6.22402 1.79349,10.0308zM345.40333,333.0059c1.79011,1.48266 4.59445,-0.49151 5.47821,-2.08761c1.72457,-3.11467 -0.87825,-5.58151 -2.49427,-7.7091c-2.56201,0.49915 -5.1202,1.0201 -7.68669,1.51506c1.22519,2.56441 2.5321,6.48381 4.70276,8.28166z"/></g></g></svg>