<svg version="1.1" xmlns="http://www.w3.org/2000/svg" xmlns:xlink="http://www.w3.org/1999/xlink" width="135.42401" height="250.01831" viewBox="0,0,135.42401,250.01831"><g transform="translate(-164.13601,-79.70583)"><g data-paper-data="{&quot;isPaintingLayer&quot;:true}" fill-rule="nonzero" stroke-miterlimit="10" stroke-dasharray="" stroke-dashoffset="0" style="mix-blend-mode: normal"><g stroke-linecap="butt" stroke-linejoin="miter"><g fill="#686868" stroke="#000000" stroke-width="1"><path d="M195.90828,328.91508v-104.61283h101.23822v104.61283z"/><path d="M177.34795,319.63495v-104.61283l18.56034,9.28017v104.61283z"/><path d="M195.79516,223.83146l-17.71669,-8.85834l102.92552,1.26548l16.45121,8.43652z"/></g><path d="M199.48505,229.00103c0,-0.82843 0.67157,-1.5 1.5,-1.5c0.82843,0 1.5,0.67157 1.5,1.5c0,0.82843 -0.67157,1.5 -1.5,1.5c-0.82843,0 -1.5,-0.67157 -1.5,-1.5z" fill="#b9b9b9" stroke="none" stroke-width="0.5"/><path d="M291.48505,229.66769c0,-0.82843 0.67158,-1.5 1.5,-1.5c0.82842,0 1.5,0.67157 1.5,1.5c0,0.82843 -0.67158,1.5 -1.5,1.5c-0.82842,0 -1.5,-0.67157 -1.5,-1.5z" fill="#b9b9b9" stroke="none" stroke-width="0.5"/><path d="M292.81838,325.33436c0,-0.82842 0.67158,-1.5 1.5,-1.5c0.82842,0 1.5,0.67158 1.5,1.5c0,0.82842 -0.67158,1.5 -1.5,1.5c-0.82842,0 -1.5,-0.67158 -1.5,-1.5z" fill="#b9b9b9" stroke="none" stroke-width="0.5"/><path d="M198.81838,326.33436c0,-0.82842 0.67157,-1.5 1.5,-1.5c0.82843,0 1.5,0.67158 1.5,1.5c0,0.82842 -0.67157,1.5 -1.5,1.5c-0.82843,0 -1.5,-0.67158 -1.5,-1.5z" fill="#b9b9b9" stroke="none" stroke-width="0.5"/></g><path d="M230.67879,210.22025c1.27185,-1.34653 4.07319,-2.42908 5.16605,-1.13155c1.02747,1.21949 0.49782,2.47884 0.49782,2.47884c-0.56951,1.46631 -1.49746,4.20634 -2.45567,5.88503c-0.17033,0.29624 -0.33982,0.56634 -0.51326,0.83281l0.0147,-0.01188c0,0 0.72219,2.0705 -0.28498,2.36261c-0.60703,0.17708 -1.16184,-0.07832 -1.51324,-0.30242c-0.91374,0.7155 -1.85418,0.9583 -2.81636,0.57148c-2.25211,-0.90435 -1.56752,-5.29864 -1.56752,-5.29864c0.22545,-1.11297 2.20062,-4.03974 3.47247,-5.38627v0v0v0v0v0z" data-paper-data="{&quot;index&quot;:null}" fill="#be1e2d" stroke="#231f20" stroke-width="0.78673" stroke-linecap="round" stroke-linejoin="round"/><g stroke="#000000" stroke-width="1" stroke-linecap="butt" stroke-linejoin="miter"><path d="M276.72181,266.9345c-6.94903,2.48678 -51.07106,1.87124 -57.88411,-0.34832c-7.86831,-2.56336 -6.89912,-21.57451 1.11074,-24.14005c6.78323,-2.17265 50.64342,-1.76459 57.67502,0.99318c6.36836,2.49765 6.19476,20.95566 -0.90165,23.49519z" data-paper-data="{&quot;index&quot;:null}" fill="#363636"/><path d="M272.63389,263.4028c-5.53329,1.76301 -40.66621,1.32662 -46.09121,-0.24694c-6.26528,-1.8173 -5.49355,-15.29531 0.88444,-17.11416c5.40126,-1.5403 40.32569,-1.25101 45.92472,0.70411c5.07091,1.77071 4.93268,14.85658 -0.71796,16.65699z" data-paper-data="{&quot;index&quot;:null}" fill="#4a4a4a"/></g><g stroke="#000000" stroke-width="1" stroke-linecap="butt" stroke-linejoin="miter"><path d="M277.22181,314.9345c-6.94903,2.48678 -51.07106,1.87124 -57.88411,-0.34832c-7.86831,-2.56336 -6.89912,-21.57451 1.11074,-24.14005c6.78323,-2.17265 50.64342,-1.76459 57.67502,0.99318c6.36836,2.49764 6.19476,20.95567 -0.90165,23.49519z" data-paper-data="{&quot;index&quot;:null}" fill="#363636"/><path d="M273.13389,311.4028c-5.53329,1.76301 -40.66621,1.32662 -46.09121,-0.24694c-6.26528,-1.8173 -5.49355,-15.29531 0.88444,-17.11416c5.40126,-1.5403 40.32569,-1.25101 45.92472,0.70412c5.07091,1.77071 4.93268,14.85658 -0.71796,16.65699z" data-paper-data="{&quot;index&quot;:null}" fill="#4a4a4a"/></g><g stroke-width="0.90025"><path d="M248.89169,205.15198v0v0v0v0v0c0.44323,2.84508 -0.17184,8.09913 -3.36362,9.97419c-3.15702,1.85092 -6.52706,1.64187 -10.042,-0.74493c-2.91226,-1.97828 -2.89987,-7.72148 -2.62923,-10.93742v0c0,0 -0.05387,-7.43281 6.08724,-8.41151c6.13921,-0.97857 9.0512,4.69528 9.56174,8.24832c0.1557,0.62476 0.28983,1.26255 0.38587,1.87134z" fill="#be1e2d" stroke="#000000" stroke-linecap="butt" stroke-linejoin="miter"/><path d="M247.27671,213.33455v0v0v0v0v0l-0.01386,0.1457c-0.46521,0.66774 -1.03931,1.2359 -1.73389,1.64409c-2.92425,1.71477 -6.02993,1.6624 -9.26557,-0.25204l-0.03475,-0.14612c0,0 -1.79691,-9.43509 4.12401,-9.91792c6.72334,-0.54506 6.95068,6.94467 6.92406,8.52629z" fill="#e6e7e8" stroke="#231f20" stroke-linecap="round" stroke-linejoin="round"/></g><g stroke="#000000" stroke-width="0.90025" stroke-linecap="round" stroke-linejoin="round"><path d="M284.58758,171.27334l-0.32389,1.63322c-1.8991,8.2857 -5.47942,13.39384 -5.47942,13.39384c0,0 -0.03586,-1.42801 -0.41468,-3.67849l-0.13644,-0.02848c-0.21935,1.24202 -0.635,2.86191 -1.41239,4.89901c-1.704,4.47314 -7.86162,8.86895 -7.86162,8.86895c0,0 0.22237,-1.48822 0.17083,-3.86651l-0.14009,-0.34579c-0.6432,0.65976 -1.31917,1.2777 -2.00495,1.88311c-0.20167,0.17911 -0.40371,0.35449 -0.61003,0.52582c-0.62721,0.52642 -1.26954,1.03447 -1.92975,1.51725c-0.26109,0.18898 -0.53442,0.36863 -0.80002,0.55176c-0.48438,0.33501 -0.97792,0.6564 -1.48045,0.97081c-0.36946,0.22871 -0.74171,0.45698 -1.12276,0.67434c-0.39413,0.22755 -0.80215,0.43937 -1.20664,0.65726c-0.74488,0.39172 -1.50385,0.76608 -2.28351,1.12204c-0.25439,0.11602 -0.50887,0.23205 -0.76853,0.34324c-0.55768,0.24066 -1.1204,0.47821 -1.6961,0.69916l0.00203,0.00157c-2.88951,1.11428 -5.99336,2.00744 -9.35322,2.6824c-3.63511,0.72926 -6.9627,1.14582 -10.09486,1.34994v0c-2.47859,0.16023 -4.8165,0.1746 -7.04609,0.06707c-0.10778,-0.00469 -0.21665,-0.01012 -0.32531,-0.0147c-0.6899,-0.03796 -1.37017,-0.08545 -2.03928,-0.14555c-0.23375,-0.02267 -0.45826,-0.05112 -0.69124,-0.07565c-0.8904,-0.09083 -1.75927,-0.20502 -2.61846,-0.33531c-0.54317,-0.08284 -1.08337,-0.16987 -1.61316,-0.26838c-0.31441,-0.05589 -0.63032,-0.11629 -0.9392,-0.17848c-0.84394,-0.17302 -1.68134,-0.35143 -2.49765,-0.55592l-0.11742,0.14996c0.57408,2.09174 1.44822,3.14009 2.09766,3.60753c1.32407,0.95458 3.62443,0.91023 3.62443,0.91023c0,0 -6.79456,1.93121 -11.28296,-2.99157c-0.47691,-0.52331 -0.96015,-1.06709 -1.42803,-1.65269l-0.21328,-0.34227c-0.85581,-0.16667 -1.73445,-0.42362 -2.6165,-0.78824c-5.38103,-2.24456 -6.32697,-4.57277 -6.32697,-4.57277l0.22116,0.87051c0.7854,2.24031 1.44684,3.63174 1.44684,3.63174c0,0 -6.48589,-3.03133 -9.90959,-8.43385c-2.76109,-4.36139 -3.30377,-7.15761 -3.38059,-7.62944l-0.42434,-1.66589c-1.00471,-6.61335 -1.58152,-14.10642 -1.6516,-21.54584l0.02955,-0.2026c0.05182,-5.76538 -1.95967,-15.03039 4.15333,-25.62647c11.45571,-19.85109 25.66398,-21.15577 32.36003,-35.58506c4.92514,-10.61509 1.85029,-21.59819 1.85029,-21.59819c0,0 4.53523,4.96717 6.481,7.98207c1.8868,2.93971 3.99333,6.77333 3.99333,6.77333l0.0463,-0.04142c0.0192,-0.12278 0.0345,-0.24772 0.04533,-0.37203c0.16687,-1.93606 -0.36419,-4.69241 -0.36419,-4.69241c0,0 5.06287,10.33376 11.86575,16.6329c6.79883,6.2961 15.53925,7.16725 29.44458,30.00975c1.72994,2.8383 3.30299,5.21119 4.33703,7.93856l0.51388,1.5807c1.60139,4.9401 3.08281,18.98989 1.92186,25.30594zM212.91994,156.82982c0,0 -5.96271,8.26687 -4.16116,18.39108c1.594,8.95794 4.25824,11.42841 5.58774,11.95637c1.36643,0.53862 3.28342,-0.15274 3.28342,-0.15274c0,0 -5.18326,3.76761 -10.27031,0.31054c-3.40237,-2.31056 -7.17769,-5.37495 -9.41416,-15.1671M272.72375,165.18856c0,0 1.19186,2.38892 -0.21511,7.91441c-1.58164,6.22469 -6.32201,8.73083 -6.32201,8.73083c0,0 2.93867,-9.65829 -1.66339,-17.73339c-2.00899,-3.52819 -7.0552,-5.67154 -12.19863,-6.96923c-6.97035,-1.76061 -14.11802,-1.96701 -14.11802,-1.96701M278.25043,182.49041c-0.21386,1.25605 -0.63343,2.91434 -1.43453,5.00639c-1.70311,4.47301 -7.86074,8.86883 -7.86074,8.86883c0,0 0.64412,-4.34131 -0.52303,-10.03825M200.32185,179.28404c-0.5105,1.37608 -0.8517,2.82317 -0.95257,4.31602c-0.64216,9.30958 3.9094,18.84571 3.9094,18.84571c0,0 -6.48388,-3.02987 -9.90962,-8.43395c-3.03749,-4.79663 -3.38993,-7.7002 -3.38993,-7.7002M284.26007,172.91352c-1.90089,8.28593 -5.4803,13.39396 -5.4803,13.39396c0,0 -0.19281,-8.11454 -4.80222,-16.18955c-0.20803,-0.36515 -0.43523,-0.71659 -0.6716,-1.05569M238.20749,155.16406c0,0 1.22714,0.15762 4.6876,2.26167c3.46057,2.10404 4.97519,4.70841 4.97519,4.70841c0,0 -9.55751,-1.21221 -14.91504,-2.3837c-5.35241,-1.17403 -23.21051,-3.59287 -23.21051,-3.59287M213.94584,196.80208c3.03048,3.65664 5.92128,5.47635 5.92128,5.47635c0,0 -5.86888,2.76462 -11.92925,0.23959c-5.38103,-2.24446 -6.32697,-4.57277 -6.32697,-4.57277M268.98437,192.15538c-5.9181,6.0658 -13.59003,9.69013 -23.24745,11.62973c-11.51376,2.31234 -20.22753,1.74616 -27.8626,-0.15734M217.59846,203.12772c0.55713,2.52733 1.5405,3.74282 2.25397,4.25506c1.32497,0.95447 3.62532,0.91012 3.62532,0.91012c0,0 -6.79633,1.93145 -11.28385,-2.99143c-0.47691,-0.52331 -0.96015,-1.06709 -1.42803,-1.65269M238.9176,155.37568c0,0 25.70193,-0.31613 27.55508,13.72169" fill="#be1e2d"/><path d="M272.24523,174.60275c0.38963,10.22456 -9.63068,22.31599 -26.19865,25.58928c-14.62571,2.89804 -37.3024,-0.86934 -42.10272,-12.85381c-0.47881,-1.20497 -0.80471,-2.38731 -1.00306,-3.53903l0.35172,0.19405c1.33881,1.5133 2.73848,2.54531 4.08214,3.45566c5.08682,3.45525 10.27007,-0.31236 10.27007,-0.31236c0,0 -1.91676,0.69318 -3.28318,0.15456c-1.32951,-0.52797 -3.99373,-2.99844 -5.58774,-11.95637c-1.80179,-10.12601 4.16116,-18.39108 4.16116,-18.39108l-0.00683,-0.23746c5.37854,0.75289 16.09908,2.29137 20.04012,3.15652c5.35764,1.17239 14.91504,2.3837 14.91504,2.3837c0,0 -1.51462,-2.60437 -4.97519,-4.70841c-1.73207,-1.05219 -2.90304,-1.6175 -3.64064,-1.92049l0.65597,0.0148c0,0 19.8841,0.2686 24.61642,8.57989c4.60129,8.07612 1.66429,17.73325 1.66429,17.73325c0,0 4.03629,-2.13558 5.89826,-7.35183l0.14286,0.00912z" fill="#e6e7e8"/></g><g stroke="#000000" stroke-width="0.90025" stroke-linecap="round" stroke-linejoin="miter"><path d="M276.68821,155.11956c0,0 7.63404,-11.45883 8.06978,-12.01174c0.43564,-0.5528 3.53792,-5.68986 14.03146,-8.73323c0,0 -2.76934,32.02271 -17.84016,41.31915c-0.00011,-0.00091 0.34876,-9.10318 -4.26107,-20.57417zM276.78371,155.36153c-0.36087,-0.95127 -1.28779,-2.59204 -1.28779,-2.59204M280.49657,178.18154c0,0 0.41798,-1.57404 0.45262,-2.48871" fill="#be1e2d"/><path d="M286.68462,169.93653c0,0 -1.76876,-1.03435 -2.49775,-5.13183c-0.45623,-2.54111 0.03271,-7.35546 0.03271,-7.35546l-0.06956,0.16097c0.59165,-0.91962 1.20331,-1.98329 1.73306,-3.13102c0.89814,-1.94172 1.87108,-4.80268 2.73852,-7.61045l0.14017,-0.38961c0,0 2.58418,-5.2225 9.16927,-6.73803l0.08235,0.03217c-0.78051,4.91708 -2.15604,12.16037 -4.0677,17.24105c-2.1442,5.69924 -4.92741,10.00562 -7.36599,13.03534zM281.81517,160.64065c0,0 2.03169,-2.6435 2.40443,-3.19139" fill="#929497"/></g><g stroke="#000000" stroke-width="0.90025" stroke-linecap="round" stroke-linejoin="miter"><path d="M192.70514,187.74365c-16.94716,-4.92398 -27.92357,-35.06953 -27.92357,-35.06953c10.9114,0.12118 15.23608,4.244 15.79955,4.65943c0.56348,0.41553 10.8992,9.42129 10.8992,9.42129c-1.47237,12.30252 1.22482,20.98881 1.22482,20.98881zM192.02001,164.16915c0,0 -0.46856,1.83134 -0.56984,2.84573M192.70514,187.74365c0.27053,0.87301 1.08202,2.27914 1.08202,2.27914" fill="#be1e2d"/><path d="M185.81047,183.81096c-3.13809,-2.26908 -6.9387,-5.67636 -10.4859,-10.59743c-3.16251,-4.38773 -6.36687,-11.00559 -8.39507,-15.53912l0.07119,-0.05313c6.74592,-0.30407 10.59201,4.03938 10.59201,4.03938l0.23625,0.3382c1.56482,2.47561 3.24537,4.9742 4.61529,6.6062c0.80864,0.96493 1.67451,1.82683 2.4837,2.55516l-0.10885,-0.13662c0,0 1.72022,4.51266 1.93909,7.08619c0.3596,4.14792 -1.07836,5.62018 -1.07836,5.62018zM184.81909,171.02364c0.50162,0.4285 3.14695,2.43329 3.14695,2.43329" fill="#929497"/></g><path d="M228.32051,175.68225v0v0v0v0v0c0.73782,0.10521 1.24987,0.79837 1.14456,1.54907c-0.1032,0.75225 -0.78115,1.27257 -1.52385,1.17172c-0.04271,-0.00709 -4.34589,-0.5881 -8.24582,1.16948c-0.12009,0.05335 -0.24166,0.08934 -0.36564,0.10628c-0.5799,0.07919 -1.16657,-0.2361 -1.41527,-0.80626c-0.14666,-0.33289 -0.14379,-0.69635 -0.02981,-1.01682c-0.28023,-0.18905 -0.55558,-0.44514 -0.77229,-0.82028c-0.25353,-0.43466 -0.11167,-0.99723 0.31758,-1.25451c0.42562,-0.25116 0.97931,-0.11619 1.23432,0.32208c0.20229,0.3493 0.66062,0.39477 0.66622,0.39585c0.13518,0.01202 0.25838,0.058 0.36793,0.12431c0.1284,-0.04617 0.25748,-0.09335 0.38472,-0.13382c-0.16515,-0.19172 -0.32386,-0.41029 -0.43901,-0.69022c-0.19075,-0.46818 0.0277,-1.00158 0.48789,-1.19649c0.46316,-0.19994 0.98677,0.02974 1.17639,0.49623c0.15183,0.37281 0.58982,0.49126 0.59362,0.49259c0.20254,0.04079 0.36323,0.15738 0.489,0.3046c3.17592,-0.58795 5.78126,-0.23514 5.92945,-0.21381z" fill="#231f20" stroke="none" stroke-width="0.90025" stroke-linecap="butt" stroke-linejoin="miter"/><path d="M248.97545,215.67573c-2.47454,2.75874 -5.36548,3.90885 -6.45709,2.56883c-1.0916,-1.34001 0.02948,-4.66271 2.50401,-7.42145c2.47454,-2.75874 5.36548,-3.90885 6.45709,-2.56883c1.0916,1.34001 -0.02948,4.66271 -2.50401,7.42145z" fill="#be1e2d" stroke="#231f20" stroke-width="0.90025" stroke-linecap="butt" stroke-linejoin="miter"/><path d="M249.23839,208.40847c1.60674,-0.51763 3.50933,0.02523 3.50933,0.02523c0,0 0.49983,6.01948 0.63282,8.1972c0.13382,2.18089 0.90738,5.59524 0.90738,5.59524c0,0 0.47213,0.34431 0.28105,1.23299c-0.19469,0.88656 -1.89583,1.04682 -4.04405,1.49756c-2.14426,0.44539 -3.85183,0.03857 -4.13305,-0.83878c-0.28419,-0.87317 0.36608,-1.27461 0.36608,-1.27461c0,0 1.41245,-7.17463 0.66079,-9.65249c0.00424,0.00529 -0.22891,-4.12264 1.81964,-4.78236z" fill="#be1e2d" stroke="#231f20" stroke-width="0.90025" stroke-linecap="round" stroke-linejoin="round"/><path d="M256.29348,198.09191c-0.38394,2.37659 -3.46833,6.41702 -4.08296,7.2656c-0.61505,0.8478 -2.62664,1.87184 -3.74235,1.05367c-1.11649,-0.81747 -0.91966,-2.7827 -0.91966,-2.7827c0.43629,-1.72836 1.11822,-4.94816 1.91829,-6.95875c0.1441,-0.35413 0.29123,-0.68065 0.43646,-1.00148l-0.01299,0.01439c0,0 -0.90219,-2.28969 0.07365,-2.72398c0.59049,-0.26282 1.1624,-0.03004 1.53343,0.19265c0.84784,-0.9062 1.76294,-1.28546 2.75501,-0.93641c2.32728,0.79765 2.04112,5.877 2.04112,5.877v0v0v0v0v0z" data-paper-data="{&quot;index&quot;:null}" fill="#be1e2d" stroke="#231f20" stroke-width="0.78673" stroke-linecap="round" stroke-linejoin="round"/><path d="M256.28022,171.42842c0.46208,3.50028 -0.41119,6.50822 -1.95051,6.71844c-1.53931,0.21022 -3.16175,-2.45691 -3.62384,-5.95719c-0.46208,-3.50028 0.41119,-6.50822 1.95051,-6.71844c0.36443,-0.04976 1.07308,0.65488 1.61784,0.26167c0.59058,-0.42629 0.29369,-1.93499 1.24024,-1.47095c0.57258,0.2807 0.04432,1.89994 -0.01607,3.38609c-0.04339,1.06769 1.68754,-2.39128 1.93829,-1.56784c0.09785,0.32133 -1.18931,5.0995 -1.15647,5.34823z" fill="#231f20" stroke="#000000" stroke-width="1" stroke-linecap="butt" stroke-linejoin="miter"/><path d="M227.60358,215.22613c-0.07621,-1.73705 2.34357,-2.90373 5.40473,-2.60584c3.06117,0.29788 5.60452,1.94752 5.68073,3.68457c0.07621,1.73705 -2.34356,2.90372 -5.40473,2.60584c-3.06117,-0.29788 -5.60453,-1.94753 -5.68073,-3.68458z" data-paper-data="{&quot;index&quot;:null}" fill="#be1e2d" stroke="#231f20" stroke-width="0.90025" stroke-linecap="butt" stroke-linejoin="miter"/><path d="M230.78582,212.29893c2.10334,0.44714 2.27894,4.57802 2.28264,4.57232c-0.50319,2.5421 1.61051,9.53619 1.61051,9.53619c0,0 0.68661,0.333 0.49007,1.23078c-0.19316,0.90165 -1.85195,1.48083 -4.02933,1.25671c-2.18187,-0.22904 -3.89024,-0.21474 -4.17147,-1.07694c-0.27784,-0.86468 0.1579,-1.25546 0.1579,-1.25546c0,0 0.43254,-3.4761 0.35034,-5.65965c-0.0827,-2.1803 -0.17975,-8.2204 -0.17975,-8.2204c0,0 1.83938,-0.73444 3.48911,-0.38355z" data-paper-data="{&quot;index&quot;:null}" fill="#be1e2d" stroke="#231f20" stroke-width="0.90025" stroke-linecap="round" stroke-linejoin="round"/><path d="M244.98345,182.69917c0.03901,0.41048 0.0289,0.81386 -0.02526,1.20385c-0.30358,2.18556 -1.99174,3.9488 -4.18224,4.16413c-2.29099,0.2252 -4.36151,-1.31846 -4.97839,-3.56376c-0.07819,-0.28456 -0.13303,-0.58037 -0.16199,-0.8853c-0.25761,-2.7109 9.09026,-3.62982 9.34788,-0.91892z" fill="#231f20" stroke="#000000" stroke-width="1" stroke-linecap="butt" stroke-linejoin="miter"/></g></g></svg>