<svg version="1.1" xmlns="http://www.w3.org/2000/svg" xmlns:xlink="http://www.w3.org/1999/xlink" width="60.40268" height="60.40268" viewBox="0,0,60.40268,60.40268"><defs><linearGradient x1="226.30118" y1="180" x2="235.22333" y2="180" gradientUnits="userSpaceOnUse" id="color-1"><stop offset="0" stop-color="#7f4141"/><stop offset="1" stop-color="#7f4141" stop-opacity="0"/></linearGradient><radialGradient cx="240" cy="180" r="30.20134" gradientUnits="userSpaceOnUse" id="color-2"><stop offset="0" stop-color="#ff6c6c" stop-opacity="0.57258"/><stop offset="1" stop-color="#ff6c6c" stop-opacity="0"/></radialGradient></defs><g transform="translate(-209.79866,-149.79866)"><g data-paper-data="{&quot;isPaintingLayer&quot;:true}" fill-rule="nonzero" stroke-linecap="butt" stroke-linejoin="miter" stroke-miterlimit="10" stroke-dasharray="" stroke-dashoffset="0" style="mix-blend-mode: normal"><path d="M216.75098,171.04c0,0 11.44948,0 17.40296,0c1.6074,0 -4.6281,-11.04 -2.464,-11.04c6.28406,0 29.86104,17.1108 29.86104,20.05136c0,3.03009 -22.23614,19.94864 -28.51704,19.94864c-2.42004,0 2.43529,-11.04 0.672,-11.04c-5.86937,0 -16.95496,0 -16.95496,0z" data-paper-data="{&quot;index&quot;:null}" fill="#2c0f0f" stroke="#421d1d" stroke-width="2.5"/><path d="M217.60003,171.04c0,0 11.44948,0 17.40296,0c1.6074,0 -4.6281,-11.04 -2.464,-11.04c6.28406,0 29.86104,17.1108 29.86104,20.05136c0,3.03009 -22.23614,19.94864 -28.51704,19.94864c-2.42004,0 2.43529,-11.04 0.672,-11.04c-5.86937,0 -16.95496,0 -16.95496,0z" data-paper-data="{&quot;index&quot;:null}" fill="#a45959" stroke="#4e0f0f" stroke-width="2"/><path d="M217.49704,188.8998v-17.7996h8.92215v17.7996z" fill="#804141" stroke="none" stroke-width="0"/><path d="M226.30118,188.8998v-17.7996h8.92215v17.7996z" fill="url(#color-1)" stroke="none" stroke-width="0"/><path d="M217.60003,171.04c0,0 11.44948,0 17.40296,0c1.6074,0 -4.6281,-11.04 -2.464,-11.04c6.28406,0 29.86104,17.1108 29.86104,20.05136c0,3.03009 -22.23614,19.94864 -28.51704,19.94864c-2.42004,0 2.43529,-11.04 0.672,-11.04c-5.86937,0 -16.95496,0 -16.95496,0z" data-paper-data="{&quot;index&quot;:null}" fill="none" stroke="#702d2d" stroke-width="2"/><path d="M209.79866,180c0,-16.67974 13.5216,-30.20134 30.20134,-30.20134c16.67974,0 30.20134,13.5216 30.20134,30.20134c0,16.67974 -13.5216,30.20134 -30.20134,30.20134c-16.67974,0 -30.20134,-13.5216 -30.20134,-30.20134z" fill="url(#color-2)" stroke="none" stroke-width="0"/></g></g></svg>