<svg version="1.1" xmlns="http://www.w3.org/2000/svg" xmlns:xlink="http://www.w3.org/1999/xlink" width="91.36391" height="131.54877" viewBox="0,0,91.36391,131.54877"><defs><radialGradient cx="220.88213" cy="177.28663" r="7.3567" gradientUnits="userSpaceOnUse" id="color-1"><stop offset="0" stop-color="#54606d"/><stop offset="1" stop-color="#2c3136"/></radialGradient></defs><g transform="translate(-173.81704,-106.85918)"><g data-paper-data="{&quot;isPaintingLayer&quot;:true}" stroke-miterlimit="10" stroke-dasharray="" stroke-dashoffset="0" style="mix-blend-mode: normal"><g fill-rule="evenodd"><path d="M222.43919,201.06929c0.67626,0.58539 2.10093,1.87778 -1.06523,4.57879c-3.16616,2.70101 -10.025,1.67318 -10.80015,1.47536c-3.02847,-0.66961 -6.71048,-1.60919 -10.4339,-4.00422c-10.83214,-6.89237 -7.68993,-19.61032 -3.39179,-20.68081c4.20125,-1.09521 3.84566,7.17363 7.9633,13.28141c1.7815,2.72511 4.39365,4.21733 6.5955,5.29522c3.14607,1.42205 10.38383,-0.65277 11.13225,0.05424z" fill="#ffab19" stroke="#001026" stroke-width="1.2" stroke-linecap="round" stroke-linejoin="round"/><path d="M200.41205,187.08875c0.88272,3.01178 2.94687,7.46029 2.94687,7.46029c0,0 -3.36258,-1.78692 -5.81771,-0.65894c-1.96865,0.8393 -2.12505,3.06988 -2.10434,3.7976c-0.93819,-1.58107 -2.04345,-3.72079 -2.14698,-7.35937c-0.10354,-3.63858 1.9039,-7.46091 3.99015,-7.54776c2.0368,0.10694 2.15039,1.684 3.13201,4.30819z" fill="#ffffff" stroke="none" stroke-width="1" stroke-linecap="butt" stroke-linejoin="miter"/></g><g><path d="M230.94977,201.12644c0.27034,0.74123 0.80047,2.12186 1.4062,3.94804c1.15032,3.46796 2.57335,8.54265 3.00777,13.89627l0.0069,0.40172c0.0069,0.40172 0.46195,0.80723 0.91008,0.81099c2.80562,-0.42268 8.34676,-1.00085 8.76785,4.67064c0.4678,5.49336 -15.99475,7.89868 -18.72659,2.47552c-0.96105,-2.32883 0.13855,-3.52456 0.75023,-4.14422c0.31751,-0.35436 0.43432,-0.79968 0.45079,-1.29046c-0.12108,-1.25065 -0.40992,-3.57381 -0.91594,-5.49714c-1.20319,-4.83012 -1.87274,-6.13001 -2.91079,-8.59336c-1.03806,-2.46336 -3.67643,-8.24277 0.39924,-10.0829c3.45709,-1.6222 6.04716,1.34515 6.85423,3.4049z" fill="#513726" fill-rule="evenodd" stroke="#001026" stroke-width="1.2" stroke-linecap="round" stroke-linejoin="round"/><path d="M215.17099,207.77317c-0.40502,-2.07791 0.40158,-5.19867 4.7064,-3.92706c5.03326,1.42871 5.80564,7.2924 6.2191,9.78397c0.41346,2.49157 1.31304,3.8172 2.93422,8.62844c0.61933,1.91821 0.88136,4.20645 1.48662,5.43523c0.16691,0.26525 3.60852,10.54547 -5.09064,10.10014c-7.68039,-0.39318 -4.43618,-12.24891 -4.43618,-12.24891c0,0 -4.02107,-10.32156 -4.90609,-13.8015c-0.46604,-1.83249 -0.74808,-3.22433 -0.91341,-3.9703z" data-paper-data="{&quot;index&quot;:null}" fill="#513726" fill-rule="evenodd" stroke="#001026" stroke-width="1.2" stroke-linecap="round" stroke-linejoin="round"/><g fill-rule="evenodd"><path d="M219.72157,207.58094c-12.08039,-4.68629 -8.32865,-10.43431 -8.88937,-15.88427c-0.31549,-4.72489 1.08573,-4.37419 6.85777,-5.41311c3.16437,-0.75666 5.02925,-1.19628 6.8263,-2.08106c2.72514,-1.28052 5.0577,3.41396 5.77688,6.07035c0,0 1.00701,3.95593 1.03387,6.1964c0.01029,2.72162 -0.11505,4.55291 -0.59524,5.82436c0,0 -1.03137,2.73309 -2.95319,3.65599c-1.7275,0.82958 -8.05702,1.63134 -8.05702,1.63134z" fill="#ff0000" stroke="#001026" stroke-width="1.2" stroke-linecap="round" stroke-linejoin="round"/><path d="M229.91327,202.52409c0,0 -1.97529,-0.58001 -4.21237,-1.40396c-2.752,-0.95996 -5.32656,-1.64 -5.47249,-5.25196c0.09932,-2.88688 -0.35889,-6.48421 5.15298,-5.39731c5.22484,0.97225 5.10028,3.9884 5.10028,3.9884c0.80517,4.99017 -0.5684,8.06482 -0.5684,8.06482z" fill="#ffffff" stroke="none" stroke-width="1" stroke-linecap="butt" stroke-linejoin="miter"/></g><path d="M230.73176,202.29361c0,0 -1.03137,2.73309 -2.95319,3.65599c-1.72642,0.82906 -8.04904,1.63033 -8.05701,1.63134c-8.38122,-3.25129 -9.14179,-7.01363 -9.00896,-10.83293c0.25133,0.07002 0.4752,0.12928 0.66624,0.17751c6.66923,1.68358 12.96342,2.68832 19.52997,4.81643c-0.05281,0.19484 -0.11164,0.37845 -0.17707,0.55167z" fill="#513726" fill-rule="nonzero" stroke="#001026" stroke-width="1.2" stroke-linecap="butt" stroke-linejoin="miter"/></g><path d="M227.22622,207.58094c0,0 0,0 0.00001,0v0z" fill="#513726" fill-rule="nonzero" stroke="#001026" stroke-width="1.2" stroke-linecap="butt" stroke-linejoin="miter"/><g><g><path d="M234.24009,130.42567c0.31668,-0.17238 0.80573,-0.0281 0.86958,0.37924l1.63318,10.88957c0,0 5.95428,5.25325 7.55169,8.70987c2.69557,5.76402 2.39294,10.25495 2.39294,10.25495c0,0 6.88388,2.72624 7.56958,8.51068c0.68571,5.78445 -4.66205,16.14791 -23.71751,18.15267c-19.05547,2.00475 -33.63916,-4.42455 -39.69176,-16.41355c-6.05259,-11.989 6.3182,-24.53345 5.64911,-23.79029c0,0 0.39359,-15.97089 0.77412,-15.73595l10.9212,6.24334c0,0 4.63394,-1.29096 9.333,-1.07006c2.80667,0.05108 5.17919,0.46481 7.43422,1.06878z" fill="#ffab19" fill-rule="evenodd" stroke="#001026" stroke-width="1.2" stroke-linecap="butt" stroke-linejoin="miter"/><path d="M246.35294,161.03088c0,0 6.71149,2.40954 7.39719,8.19399c0.68571,5.78445 -5.01575,15.61417 -23.86308,17.5372c-24.55005,2.81687 -34.71688,-12.55341 -27.09622,-22.5121c7.6296,-10.05829 18.27017,0.03321 26.69017,0.18644c7.21587,0.14557 8.5758,-6.05769 16.87195,-3.40554z" fill="#ffffff" fill-rule="evenodd" stroke="none" stroke-width="1" stroke-linecap="butt" stroke-linejoin="miter"/><path d="M264.58094,163.77116c-5.02085,3.36468 -12.20097,2.82071 -12.20097,2.82071" fill="none" fill-rule="evenodd" stroke="#001026" stroke-width="1.2" stroke-linecap="round" stroke-linejoin="round"/><path d="M262.28505,174.81013c-6.31948,-0.06513 -10.03402,-2.30612 -10.03402,-2.30612" fill="none" fill-rule="evenodd" stroke="#001026" stroke-width="1.2" stroke-linecap="round" stroke-linejoin="round"/><path d="M229.31498,161.81108c2.09159,0.18771 4.26491,0.58356 4.30194,1.28969c-0.02554,1.40334 -1.76981,4.05804 -3.37235,4.01463c-1.81067,0.0383 -5.7704,-2.82711 -5.62738,-4.4207c0.00765,-1.20413 2.70579,-1.06239 4.69779,-0.88362z" fill="#001026" fill-rule="evenodd" stroke="#001026" stroke-width="1.2" stroke-linecap="round" stroke-linejoin="round"/><path d="M184.62919,156.29475c0,0 8.3153,3.5575 11.52418,6.95795" fill="none" fill-rule="evenodd" stroke="#001026" stroke-width="1.2" stroke-linecap="round" stroke-linejoin="round"/><path d="M196.13934,166.76551c-4.43474,1.30883 -11.7068,-0.4482 -11.7068,-0.4482" fill="none" fill-rule="evenodd" stroke="#001026" stroke-width="1.2" stroke-linecap="round" stroke-linejoin="round"/><g fill="none" fill-rule="nonzero" stroke="none" stroke-width="1" stroke-linecap="butt" stroke-linejoin="miter" font-family="sans-serif" font-weight="normal" font-size="12" text-anchor="start"/><g fill="none" fill-rule="nonzero" stroke="none" stroke-width="1" stroke-linecap="butt" stroke-linejoin="miter" font-family="sans-serif" font-weight="normal" font-size="12" text-anchor="start"/></g><path d="M235.50558,183.96655c0.0737,-0.66205 0.43404,-1.24138 0.96195,-1.65058c0.00218,-0.05003 0.00605,-0.10032 0.01167,-0.15083c0.09397,-0.84417 0.65395,-1.55383 1.43313,-1.94781c-0.01899,-0.16322 -0.01985,-0.3307 -0.00093,-0.50071c0.05487,-0.49292 0.26865,-0.94 0.59217,-1.30513c-0.12664,-0.3256 -0.17784,-0.68052 -0.13703,-1.04714c0.0774,-0.69529 0.47093,-1.29935 1.04271,-1.71092c-0.47132,-0.49083 -0.72489,-1.14405 -0.6475,-1.83935c0.02354,-0.21147 0.07632,-0.41449 0.15447,-0.60623c-0.04685,-0.11218 -0.08467,-0.22804 -0.11276,-0.3468c-0.58433,-0.15591 -1.08068,-0.47303 -1.43013,-0.88873c-0.28794,0.06852 -0.59217,0.09798 -0.90407,0.08202c-0.44139,0.18385 -0.94103,0.27047 -1.45962,0.23106c-0.11698,-0.00889 -0.2316,-0.02394 -0.34349,-0.04475c-0.55458,0.39171 -1.27281,0.6039 -2.03161,0.54624c-0.33645,-0.02556 -0.65332,-0.10208 -0.94185,-0.22021c-0.30976,0.07266 -0.63822,0.10014 -0.97466,0.07458c-0.69616,-0.05289 -1.30858,-0.32395 -1.75925,-0.7303c-0.39259,0.13388 -0.82406,0.19303 -1.26952,0.15919c-0.7948,-0.06039 -1.48045,-0.40517 -1.94085,-0.91095c-0.39023,0.13178 -0.8186,0.1898 -1.26076,0.1562c-0.09705,-0.00737 -0.19247,-0.01899 -0.28606,-0.03462c-0.09546,0.00128 -0.19185,-0.00169 -0.28891,-0.00906c-0.37449,-0.02845 -0.72476,-0.12004 -1.03865,-0.26186c-0.0939,0.00111 -0.18868,-0.00188 -0.28409,-0.00914c-0.37268,-0.02832 -0.72135,-0.11917 -1.03407,-0.2598c-0.33852,0.09116 -0.70141,0.12794 -1.07408,0.09963c-0.76659,-0.05824 -1.43164,-0.38104 -1.891,-0.8577c-0.43365,0.19189 -0.92677,0.28887 -1.44067,0.26258c-0.04848,0.02019 -0.09766,0.03921 -0.14749,0.05703c-0.56716,0.44043 -1.32822,0.6843 -2.13519,0.62299c-0.15385,-0.01169 -0.3036,-0.03402 -0.44842,-0.06613c-0.25478,0.30713 -0.58529,0.56058 -0.96444,0.7404c0.49553,0.4949 0.7648,1.16426 0.68535,1.87795c-0.0036,0.0324 -0.0079,0.06461 -0.01287,0.0966c0.20394,0.38714 0.29661,0.82695 0.2456,1.28501c-0.04943,0.44396 -0.22773,0.8507 -0.49903,1.1939c0.63538,0.5056 0.9987,1.26218 0.90806,2.07648c-0.04943,0.44396 -0.22773,0.8507 -0.49904,1.1939c0.63538,0.5056 0.9987,1.26217 0.90806,2.07647c-0.06944,0.62377 -0.39333,1.17409 -0.87206,1.57789c0.26995,0.42509 0.40006,0.92587 0.34163,1.45063c-0.15286,1.37308 -1.53861,2.3903 -3.09517,2.27203c-1.55657,-0.11827 -2.69448,-1.32726 -2.54163,-2.70033c0.06944,-0.62377 0.39331,-1.17409 0.87205,-1.57788c-0.26995,-0.42509 -0.40005,-0.92587 -0.34163,-1.45063c0.04943,-0.44396 0.22773,-0.85071 0.49903,-1.1939c-0.63538,-0.5056 -0.9987,-1.26217 -0.90806,-2.07647c0.04943,-0.44396 0.22773,-0.85072 0.49904,-1.19391c-0.63538,-0.5056 -0.9987,-1.26217 -0.90806,-2.07647c0.0036,-0.0324 0.00791,-0.06461 0.01287,-0.0966c-0.20394,-0.38714 -0.2966,-0.82695 -0.2456,-1.28501c0.02324,-0.2088 0.07499,-0.40935 0.15152,-0.59895c-0.58526,-0.50416 -0.91422,-1.23054 -0.82747,-2.00976c0.10651,-0.95675 0.81163,-1.74073 1.75602,-2.08818c0.50002,-0.92431 1.61335,-1.52693 2.83126,-1.43439c0.15385,0.01169 0.30361,0.03402 0.44843,0.06613c0.31603,-0.38099 0.74857,-0.67932 1.24594,-0.85706c0.54829,-0.42577 1.27777,-0.66786 2.05478,-0.62811c0.44139,-0.18385 0.94103,-0.27047 1.45962,-0.23106c0.76659,0.05824 1.43164,0.38104 1.891,0.8577c0.45623,-0.20187 0.97827,-0.29871 1.52109,-0.25747c0.37268,0.02832 0.72137,0.11917 1.03408,0.2598c0.33852,-0.09116 0.7014,-0.12794 1.07408,-0.09962c0.37449,0.02845 0.72475,0.12005 1.03865,0.26187c0.0939,-0.00111 0.18868,0.00188 0.2841,0.00913c0.09705,0.00737 0.19246,0.01899 0.28606,0.03461c0.09546,-0.00128 0.19184,0.0017 0.2889,0.00907c0.7948,0.06039 1.48045,0.40516 1.94085,0.91094c0.39023,-0.13178 0.8186,-0.1898 1.26076,-0.1562c0.69616,0.05289 1.30858,0.32395 1.75925,0.73029c0.39259,-0.13388 0.82406,-0.19303 1.26953,-0.15918c0.33645,0.02556 0.65333,0.10208 0.94186,0.22021c0.30976,-0.07266 0.63822,-0.10015 0.97466,-0.07458c0.11698,0.00889 0.23159,0.02394 0.34348,0.04476c0.53494,-0.37785 1.22216,-0.58866 1.95118,-0.55137c0.44139,-0.18385 0.94103,-0.27047 1.45962,-0.23106c0.83358,0.06333 1.54712,0.43951 2.00663,0.98614c0.31263,-0.0744 0.64449,-0.10274 0.9845,-0.07691c1.26339,0.09599 2.25102,0.91056 2.49647,1.94818c1.25074,0.33374 2.09837,1.40598 1.96512,2.60292c-0.02354,0.21147 -0.07632,0.41449 -0.15447,0.60623c0.1418,0.33959 0.20091,0.71278 0.15792,1.09895c-0.0774,0.69529 -0.47094,1.29935 -1.04272,1.71092c0.47132,0.49083 0.72489,1.14405 0.6475,1.83935c-0.05487,0.49292 -0.26865,0.94 -0.59217,1.30513c0.12664,0.3256 0.17785,0.68052 0.13704,1.04714c-0.09397,0.84417 -0.65396,1.55383 -1.43314,1.9478c0.01899,0.16322 0.01985,0.33071 0.00093,0.50071c-0.0737,0.66205 -0.43404,1.24139 -0.96196,1.65058c-0.00218,0.05003 -0.00605,0.10031 -0.01167,0.15083c-0.15286,1.37308 -1.53862,2.3903 -3.09516,2.27202c-1.55655,-0.11827 -2.69449,-1.32726 -2.54163,-2.70033z" fill="#ffffff" fill-rule="nonzero" stroke="#001026" stroke-width="1.2" stroke-linecap="butt" stroke-linejoin="miter"/><g fill-rule="nonzero" stroke-linecap="butt" stroke-linejoin="miter"><g><path d="M174.42082,147.89184c-0.12129,-3.1097 2.6873,-5.97021 6.27319,-6.38914c3.58588,-0.41893 6.59116,1.76236 6.71246,4.87205c0.12129,3.1097 -2.6873,5.97021 -6.27319,6.38914c-3.58588,0.41893 -6.59117,-1.76237 -6.71246,-4.87205z" fill="#ffffff" stroke="#001026" stroke-width="1.2"/><path d="M197.78279,112.39679c0.45232,1.02035 -0.76571,1.52038 -0.76571,1.52038l-0.76452,0.27135c-2.47369,1.74127 -4.39956,4.25865 -6.16954,6.5453c-1.76426,7.80313 -8.80202,14.27938 -8.41025,22.47496c0,0 0.04393,1.12612 -1.25464,1.27783c-1.29856,0.1517 -1.34249,-0.9744 -1.34249,-0.9744c-0.27443,-8.58363 6.55742,-15.33631 8.62458,-23.47236c1.96142,-2.68102 4.20256,-5.52395 7.03864,-7.55698l1.37361,-0.6064c0,0 1.21804,-0.50004 1.67035,0.52033z" fill="#001026" stroke="none" stroke-width="0.5"/></g><g stroke="#001026" stroke-width="1.2"><path d="M198.56957,151.67038c-1.44249,-0.94139 -3.60917,-1.39167 -4.61496,-2.62919c-0.15339,-0.18874 -0.27979,-0.39578 -0.37248,-0.62566c-0.17688,-0.43864 -0.27042,-0.94043 -0.29924,-1.48711c-0.01264,-0.17718 -0.01555,-0.35684 -0.00839,-0.53856c0.06072,-3.24995 2.00687,-7.75423 2.44522,-10.1968c0.32496,-1.81076 0.59489,-4.15241 0.37541,-5.90536c-0.63219,-5.04912 -4.88087,-19.31671 2.71301,-22.26999c6.36615,-2.47581 10.99498,3.90224 13.94385,6.95404c4.9067,5.07799 11.59243,12.24417 18.76475,15.08662c3.26946,1.29572 8.29859,4.73527 6.5383,8.64336c-5.17421,11.48745 -19.98761,1.03394 -29.3234,3.17192c-3.80743,0.87194 -0.83828,6.1707 -4.069,7.42713z" fill="#ff0000"/><path d="M243.58857,139.75604c3.52633,0.26795 5.84826,3.01953 5.18619,6.14585c-0.66207,3.12633 -4.05745,5.44351 -7.58378,5.17557c-2.50283,-0.19017 -4.39895,-1.6315 -5.05205,-3.56995c-0.69461,0.14977 -1.41777,0.2048 -2.14652,0.14943c-2.68425,-0.20396 -4.67064,-1.84702 -5.17424,-3.99902c-1.42979,1.83453 -3.90846,2.98961 -6.45544,2.79608c-2.2725,-0.17267 -4.04484,-1.37683 -4.84067,-3.048c-1.43148,1.1399 -3.34795,1.78724 -5.30475,1.63856c-0.6233,-0.04736 -1.20898,-0.17232 -1.74719,-0.36321c-0.01867,0.178 -0.04699,0.35765 -0.08531,0.53857c-0.66207,3.12633 -4.05744,5.4435 -7.58377,5.17556c-0.02795,-0.00212 -0.05581,-0.0044 -0.0836,-0.00683c-1.07481,2.63698 -4.13193,4.47578 -7.29435,4.23549c-3.52633,-0.26795 -5.84825,-3.01953 -5.18617,-6.14585c0.66207,-3.12633 4.05745,-5.4435 7.58377,-5.17556c0.02795,0.00212 0.05581,0.0044 0.08359,0.00683c1.07481,-2.63697 4.13193,-4.47578 7.29434,-4.23549c0.6233,0.04736 1.20898,0.17232 1.74719,0.36323c0.01867,-0.178 0.04699,-0.35766 0.08531,-0.53858c0.66207,-3.12633 4.05745,-5.44349 7.58377,-5.17556c2.2725,0.17267 4.04484,1.37682 4.84066,3.04799c1.43148,-1.1399 3.34795,-1.78724 5.30474,-1.63856c2.68425,0.20396 4.67066,1.84702 5.17424,3.99903c1.4298,-1.83453 3.90845,-2.98962 6.45543,-2.79609c2.50283,0.19017 4.39895,1.63149 5.05205,3.56994c0.69461,-0.14977 1.41776,-0.2048 2.14652,-0.14943z" fill="#ffffff"/></g></g></g><path d="M215.76635,151.7205c1.17976,-0.28134 2.693,-0.67916 3.53129,-0.09638c2.10297,1.46201 0.40958,7.69292 -0.11674,9.69994c-2.72185,5.9526 -10.82508,4.7051 -13.69331,-0.33635c-0.55914,-4.44658 5.91216,-0.29881 8.34418,-0.48554c1.07028,-0.08218 1.25018,-2.50111 0.78344,-3.19102c-1.23423,-2.0944 -1.94174,-4.18994 0.25588,-5.70635l0.49142,-0.08725c0,0 0.24254,0.01994 0.40382,0.20297z" fill="#001026" fill-rule="nonzero" stroke="none" stroke-width="0.5" stroke-linecap="butt" stroke-linejoin="miter"/><path d="M229.11202,154.88455c-0.17291,0.05434 -0.44373,0.06536 -0.64311,-0.27298c-0.31622,-0.53661 0.17968,-0.87881 0.17968,-0.87881c0.05988,-0.04038 0.11689,-0.08192 0.17162,-0.12427c-0.00189,-0.17901 0.04727,-0.55974 0.48712,-0.64102c0.08453,-0.01562 0.15883,-0.01562 0.22411,-0.00423c0.25747,-0.23594 0.53445,-0.44963 0.9303,-0.58781c4.39608,-1.53458 3.62993,6.17501 7.75553,6.43525c0.40981,0.21184 0.83197,0.40595 1.27143,0.52999c3.91787,1.10584 1.17876,-2.87048 2.5969,-4.84662c0.9614,-1.33969 2.04727,-0.34068 2.65279,0.67943c0.71931,1.21178 0.32627,2.74595 0.23061,4.1082c-0.32703,4.10603 -3.54752,6.40577 -7.24807,5.29115c-1.89085,-0.56952 -3.59032,-2.47461 -5.02726,-3.85871c-1.11514,-1.89231 -2.7825,-3.69851 -3.58168,-5.8296z" fill="#001026" fill-rule="nonzero" stroke="none" stroke-width="0.5" stroke-linecap="butt" stroke-linejoin="miter"/><g data-paper-data="{&quot;index&quot;:null}" fill-rule="nonzero" stroke="none" stroke-width="0.5" stroke-linecap="butt" stroke-linejoin="miter"><path d="M231.34413,189.14038l-0.25542,-0.02055c-1.38263,-0.11122 -2.62308,-0.48724 -3.95415,-0.88735c-0.76855,-0.39943 -1.83416,-0.43555 -1.96132,-1.61486c-0.08436,-0.78232 0.98641,-2.13716 1.25273,-2.87304c0.88141,-2.43553 3.5948,-8.67489 6.30062,-8.49708c1.84855,0.32926 1.70112,2.23007 1.58373,3.86568c-0.21999,3.06517 -1.14406,6.34848 -2.39575,9.14544c0.03639,0.08411 0.05593,0.18932 0.04649,0.32087c-0.04356,0.60701 -0.61692,0.56089 -0.61692,0.56089zM233.16359,179.02094c0.04457,-0.62105 0.35389,-2.72175 -0.52414,-2.55941c-1.15866,-0.11732 -1.28424,0.95957 -1.96875,1.8836c-1.64813,2.22482 -3.57584,5.47691 -4.34923,8.20477c-0.1272,0.44864 0.82619,0.33878 1.22336,0.54519c1.11095,0.32453 2.14333,0.6418 3.27156,0.77502c1.23531,-2.67492 2.13516,-5.89448 2.34721,-8.84916z" fill="#001026"/><path d="M230.82501,187.91999c-1.12822,-0.13322 -2.18957,-0.45445 -3.30053,-0.77898c-0.39716,-0.20641 -1.36037,-0.10306 -1.23317,-0.5517c0.77339,-2.72785 2.74295,-6.06856 4.39108,-8.29338c0.68451,-0.92404 0.82123,-1.99632 1.97989,-1.879c0.87803,-0.16234 0.58261,1.95041 0.53805,2.57144c-0.21206,2.95468 -1.14001,6.2567 -2.37532,8.93162z" data-paper-data="{&quot;noHover&quot;:false,&quot;origItem&quot;:[&quot;Path&quot;,{&quot;applyMatrix&quot;:true,&quot;segments&quot;:[[[467.75241,357.38201],[-0.41122,5.82661],[0.08643,-1.22469]],[[466.63144,352.3428],[1.83064,-0.32986],[-2.41924,-0.21825]],[[462.54284,356.07783],[1.41871,-1.82913],[-3.41588,4.40405]],[[453.55344,372.29979],[1.58505,-5.38579],[-0.26069,0.88578]],[[456.11224,373.36072],[-0.83103,-0.40242],[2.32189,0.62724]],[[462.94783,374.85171],[-2.35589,-0.24993],[2.54961,-5.28663]]],&quot;closed&quot;:true}]}" fill="#ffffff"/></g><g fill-rule="nonzero" stroke="#001026" stroke-width="1.2" stroke-linejoin="miter"><path d="M215.29355,204.35183l-2.75496,-22.01184l13.21387,0.29281l-3.21212,21.1313c0,0 -2.02388,1.68312 -3.19409,1.77801c-1.24121,0.10066 -4.05271,-1.19028 -4.05271,-1.19028z" fill="#505a63" stroke-linecap="butt"/><path d="M211.82104,180.95216c0.09,-4.06199 3.45588,-7.28193 7.51786,-7.19192c4.06199,0.09 7.28193,3.45589 7.19192,7.51786c-0.09,4.06199 -3.45589,7.28194 -7.51787,7.19193c-4.06199,-0.09 -7.28192,-3.45589 -7.19192,-7.51789z" fill="url(#color-1)" stroke-linecap="butt"/><path d="M215.90463,187.33649c0,0 -0.80669,-4.56158 -0.78339,-6.71965c0.02178,-2.01694 0.9189,-5.83401 0.9189,-5.83401" fill="none" stroke-linecap="round"/><path d="M222.75351,187.34555c0,0 -1.11753,-5.64788 -1.27737,-7.87387c-0.11809,-1.6447 0.40506,-4.27406 0.40506,-4.27406" fill="none" stroke-linecap="round"/><path d="M211.75561,181.39428c0,0 4.40277,-2.41925 6.88248,-2.91848c2.15732,-0.43434 7.16375,0.09057 7.16375,0.09057" fill="none" stroke-linecap="round"/><path d="M213.63852,186.5728c0,0 5.00947,-2.35003 7.35959,-3.07597c1.82688,-0.56431 5.57098,-0.91817 5.57098,-0.91817" fill="none" stroke-linecap="round"/></g><g fill-rule="nonzero" stroke="none" stroke-width="0.5" stroke-linecap="butt" stroke-linejoin="miter"><path d="M220.18599,197.86123c-0.25384,-0.11781 -0.31626,-0.42578 -0.31626,-0.42578c-0.30295,-1.69865 -2.23632,-1.11441 -2.55317,-2.70992c-0.37629,-1.89484 1.70397,-2.07378 2.93225,-1.98047c1.35003,0.10255 2.20417,0.83137 2.94135,1.76362c-0.04502,-1.64656 0.9269,-4.50377 1.86577,-5.21512c0.66579,-1.1033 1.94028,-3.09138 3.42133,-1.89148c0.97448,0.7895 1.19027,2.81449 1.42944,3.9971c0.42542,2.10346 1.22144,3.89017 2.20679,5.76006c0.58767,2.80345 1.12542,7.26118 -2.07637,9.01147c-1.62739,0.88963 -4.09846,-0.21 -5.72144,-0.47626c-1.34382,-0.24244 -3.05572,-1.30553 -3.30137,-2.82688c-0.16285,-1.00848 0.8485,-1.70789 0.60842,-2.70869c-0.1567,-0.65323 -1.24687,-0.4226 -1.49141,-0.81101c-0.19301,-0.30655 -0.09857,-0.91983 0.05468,-1.48665zM224.57204,196.38984c0.26635,0.36599 0.57943,0.83838 0.76394,1.25406c0.05956,-0.2516 0.08538,-0.49222 -0.0095,-0.63431c-0.19196,-0.28748 -0.46591,-0.46107 -0.75444,-0.61975z" fill="#ff0000"/><g><path d="M213.0083,193.81861c-0.19521,-0.03249 -0.31527,-0.11775 -0.3885,-0.21762c-0.43212,0.57077 -0.733,1.19666 -0.83599,1.78773c0,0 -0.0981,0.56307 -0.6589,0.49497c-0.274,0.68495 -0.3995,1.44021 -0.52546,2.16321l-0.04028,0.23124c0,0 -0.10252,0.58843 -0.69707,0.48947c-0.59455,-0.09896 -0.49203,-0.6874 -0.49203,-0.6874l0.04028,-0.23124c0.24437,-1.4026 0.53945,-2.76009 1.48298,-3.87176c0,0 0.11196,-0.12898 0.28578,-0.19063c0.38525,-0.63358 0.92808,-1.29362 1.55861,-1.87348c0.46249,-2.3799 1.17532,-5.75737 -1.02334,-7.28588c-1.02836,-0.6506 -2.11327,-0.20904 -3.24552,-0.01551c-0.71896,0.12288 -1.49997,0.02466 -2.1638,0.32562c-0.67573,0.30636 -0.73118,1.94305 -0.82953,2.50097c-0.40944,2.32262 -0.81673,4.6258 -1.20858,6.93712c-0.86862,4.98579 0.66568,8.59544 5.61154,10.45112c4.08158,1.40625 7.99271,0.19748 11.24712,-2.12439c0,0 0.15335,-0.10768 0.34934,-0.11857c1.39912,-2.45047 -1.82347,-2.4009 -3.5214,-2.0365c0,0 -0.59011,0.12664 -0.71573,-0.45645c-0.12563,-0.5831 0.46447,-0.70975 0.46447,-0.70975c0.56022,-0.12024 1.16276,-0.18109 1.75368,-0.17383c-0.03663,-0.22191 -0.03506,-0.44249 0.00096,-0.65602c-0.17184,0.02185 -0.52586,0.0106 -0.65571,-0.41471c-0.14967,-0.49023 0.25568,-0.68817 0.37279,-0.7342c0.17027,-0.55208 0.00842,-0.93431 -0.33275,-1.18365c-0.15918,0.44814 -0.66464,0.364 -0.66464,0.364l-0.58259,-0.22966c-0.13711,-0.17165 -0.24926,-0.34691 -0.33835,-0.52388c-0.72507,-0.00038 -1.46768,0.15855 -1.87964,0.39261c0,0 -0.52831,0.29031 -0.81967,-0.231c-0.29136,-0.52131 0.23694,-0.81163 0.23694,-0.81163c0.48894,-0.26188 1.0742,-0.43219 1.67938,-0.50423l0.25811,-0.55625c0.26758,-0.14931 0.95912,-2.16976 0.72736,-2.28059c-1.19116,-0.56964 -2.51542,-0.21398 -3.58887,0.54906c-0.02159,0.12258 -0.04274,0.24401 -0.0632,0.36413l-0.10071,0.5781c0,0 -0.10252,0.58843 -0.69707,0.48947zM209.46244,205.94841c-5.47435,-2.07649 -7.35426,-6.20523 -6.3846,-11.77095c0.18256,-1.02459 0.82037,-1.9383 0.99273,-2.93778c0.3314,-1.92173 -0.58834,-6.14197 1.60197,-7.31608c0.92378,-0.49518 2.7406,-0.51653 3.78542,-0.69121c1.17665,-0.19671 1.8959,-0.20398 2.93058,0.40232c2.33753,1.73841 2.16999,4.59522 1.74406,7.23501c1.40996,-0.82541 2.97381,-1.05995 4.16197,0.10457c0.29609,0.29019 0.40475,0.72581 0.3908,1.20913c0.52248,-0.24502 1.12385,-0.34727 1.74272,-0.24425c0,0 0.31974,0.05322 0.44984,0.31366c0.11322,0.02743 0.19064,0.07419 0.19064,0.07419c3.86321,2.35624 6.28067,4.17437 5.40411,9.12589l-0.25214,0.72146c0,0 -0.19886,0.56416 -0.76847,0.3698c-0.56961,-0.19437 -0.37074,-0.75852 -0.37074,-0.75852l0.22322,-0.62706c0.75182,-4.39684 -1.45215,-5.76616 -4.86796,-7.81239c0,0 -0.1365,-0.08245 -0.22557,-0.23211c-0.90558,-0.14141 -2.13597,0.71094 -2.13859,1.60472c1.3095,0.24142 2.37662,1.01281 2.32502,2.39108c0.40413,-0.28641 0.9168,-0.47475 1.50319,-0.51189c0,0 0.60311,-0.01835 0.61919,0.57806c0.01608,0.59642 -0.58703,0.61476 -0.58703,0.61476c-0.54461,-0.01585 -1.90996,1.07781 -1.37419,1.46148l0.50991,0.05075c0,0 0.27227,0.04533 0.41654,0.25699c1.40215,0.54943 2.13987,1.77071 0.87303,3.88132l-0.59355,0.33687c0,0 -0.05088,0.01538 -0.12699,0.0221c-3.57976,2.42593 -7.76301,3.64119 -12.17512,2.14809z" fill="#001026"/><path d="M213.71044,193.27965l0.10156,-0.578c0.02046,-0.12013 0.04195,-0.24152 0.06354,-0.36409c1.07344,-0.76305 2.42973,-1.10172 3.62091,-0.53209c0.23176,0.11083 -0.45028,2.14801 -0.71786,2.29732l-0.25629,0.56357c-0.60518,0.07204 -1.18976,0.25098 -1.6787,0.51286c0,0 -0.53934,0.32094 -0.24798,0.84226c0.29136,0.52131 0.73684,0.17548 0.73684,0.17548c0.41196,-0.23406 1.1487,-0.37708 1.87376,-0.3767c0.08909,0.17697 0.29891,0.37488 0.43601,0.54654l0.48638,0.20116c0,0 0.60276,0.10836 0.76192,-0.33977c0.34117,0.24933 0.50039,0.64026 0.33011,1.19234c-0.11711,0.04602 -0.52545,0.25007 -0.37578,0.7403c0.12986,0.42532 0.48372,0.43681 0.65556,0.41497c-0.03602,0.21353 -0.03974,0.43746 -0.00311,0.65937c-0.59092,-0.00727 -1.19963,0.06088 -1.75986,0.18111c0,0 -0.59523,0.131 -0.4696,0.71411c0.12563,0.5831 0.65395,0.37827 0.65395,0.37827c1.69793,-0.36441 4.98877,-0.34151 3.58966,2.10896c-0.196,0.01089 -0.3504,0.11965 -0.3504,0.11965c-3.25442,2.32187 -7.21859,3.54219 -11.30017,2.13594c-4.94585,-1.85569 -6.51264,-5.5163 -5.64402,-10.50208c0.39186,-2.31132 0.81325,-4.64478 1.22269,-6.9674c0.09835,-0.55791 0.16109,-2.20073 0.83681,-2.50709c0.66383,-0.30097 1.45207,-0.2069 2.17103,-0.32979c1.13225,-0.19353 2.23025,-0.6392 3.25861,0.0114c2.19866,1.5285 1.50578,5.00332 1.04328,7.38321c-0.63052,0.57985 -1.14187,1.21705 -1.52712,1.85064c-0.17382,0.06165 -0.28324,0.18588 -0.28324,0.18588c-0.94353,1.11167 -1.24217,2.42098 -1.48652,3.82358l-0.04125,0.22984c0,0 -0.10789,0.58211 0.48667,0.68108c0.59455,0.09896 0.62682,-0.41804 0.62682,-0.41804l0.03914,-0.23234c0.12596,-0.72299 0.23895,-1.49907 0.51295,-2.18403c0.56081,0.06809 0.6572,-0.50306 0.6572,-0.50306c0.10297,-0.59107 0.42908,-1.26644 0.8612,-1.8372c0.07323,0.09987 0.20048,0.1818 0.39568,0.21429c0.59455,0.09896 0.71963,-0.49241 0.71963,-0.49241z" data-paper-data="{&quot;noHover&quot;:false,&quot;origItem&quot;:[&quot;Path&quot;,{&quot;applyMatrix&quot;:true,&quot;segments&quot;:[[[213.71102,194.79772],[0.6,0.08172],[-0.197,-0.02683]],[[213.31017,194.59156],[0.07894,0.09764],[-0.39912,0.5825]],[[212.57733,196.40114],[0.06894,-0.5933],[0,0]],[[211.94717,196.91446],[0.56449,0.05186],[-0.2345,0.69199]],[[211.54631,199.09011],[0.08433,-0.72572],[0,0]],[211.51934,199.32222],[[210.8507,199.83115],[0.6,0.08172],[-0.6,-0.08172]],[210.31934,199.15877],[[210.34631,198.92666],[0,0],[0.16361,-1.40789]],[[211.60604,195.01701],[-0.87922,1.13746],[0,0]],[[211.88074,194.81839],[-0.1702,0.06658],[0.34866,-0.64389]],[[213.33098,192.90236],[-0.59692,0.59729],[0.32545,-2.39026]],[[211.88909,185.65502],[2.28565,1.46328],[-1.06535,-0.62018]],[[208.64401,185.73299],[1.12066,-0.22589],[-0.7116,0.14343]],[[206.49983,186.12051],[0.64625,-0.31971],[-0.65783,0.32544]],[[205.81446,188.64226],[0.06623,-0.56005],[-0.27571,2.33152]],[[205.00528,195.60555],[0.25879,-2.31973],[-0.58156,5.0046]],[[211.21549,205.88206],[-5.05052,-1.71095],[4.16076,1.28696]],[[222.33582,203.43643],[-3.11956,2.4127],[0,0]],[[222.6782,203.30796],[-0.19529,0.01652],[1.25763,-2.48771]],[[219.04114,201.3754],[1.67628,-0.41285],[0,0]],[[218.29946,200.94013],[0.15911,0.57876],[-0.15911,-0.57876]],[[218.72293,200.21789],[0,0],[0.55308,-0.13622]],[[220.46589,199.99377],[-0.59109,0.00976],[-0.04938,-0.22058]],[[220.42913,199.33855],[-0.02373,0.2143],[-0.17051,0.02677]],[[219.74984,198.94323],[0.15426,0.42105],[-0.1778,-0.48531]],[[220.08026,198.19921],[-0.11442,0.04934],[0.13845,-0.5563]],[[219.67958,197.02663],[0.35537,0.23919],[-0.13334,0.45217]],[219.03615,197.40932],[[218.44059,197.19672],[0,0],[-0.14692,-0.16749]],[[218.07225,196.68323],[0.09923,0.17418],[-0.72479,0.0205]],[[216.21595,197.12949],[0.39833,-0.24563],[0,0]],[[215.38334,196.92237],[0.32122,0.51227],[-0.32122,-0.51227]],[[215.57351,196.10494],[0,0],[0.47368,-0.27563]],[[217.2232,195.55297],[-0.60079,0.08938],[0,0]],[[217.44921,194.98998],[0,0],[0.25888,-0.15683]],[[218.04513,192.69128],[0.23804,0.10402],[-1.22343,-0.53463]],[[214.48931,193.34301],[1.02912,-0.79301],[-0.01453,0.12305]],[[214.44708,193.70852],[0.01354,-0.12057],[0,0]],[214.37965,194.28879]],&quot;closed&quot;:true}]}" fill="#ff0000"/><path d="M224.43673,192.38977c-0.59455,-0.09896 -0.49203,-0.6874 -0.49203,-0.6874l0.10551,-0.55787c0.47409,-1.34493 2.55682,-6.3467 4.59588,-4.5305c0.91562,0.81555 0.59293,2.41278 0.82601,3.47894c1.79055,4.52247 4.9633,9.45514 2.00874,14.21977c-2.10762,5.41248 -7.89568,0.48796 -11.04842,0.0215c0,0 -0.59455,-0.09896 -0.49203,-0.6874c0.10252,-0.58843 0.69707,-0.48947 0.69707,-0.48947c2.50213,0.45019 8.06567,4.98653 9.762,0.63028c2.75731,-4.44655 -0.44011,-9.12798 -2.08372,-13.34907c-0.15577,-0.73047 0.06019,-2.35076 -0.46299,-2.92216c-0.52554,-0.57397 -2.46737,3.46099 -2.6633,4.01681l-0.05563,0.36708c0,0 -0.10252,0.58843 -0.69707,0.48947z" fill="#001026"/><path d="M224.1825,193.15898c0.59455,0.09896 0.49203,0.6874 0.49203,0.6874l-0.09241,0.03001c0.52922,1.37851 1.85325,2.09425 2.19072,3.54458c0,0 0.12563,0.5831 -0.46447,0.70975c-0.59011,0.12664 -0.71573,-0.45645 -0.71573,-0.45645c-0.2393,-1.25716 -1.63641,-2.11193 -2.13564,-3.36211l0.02845,-0.66371c0,0 0.10252,-0.58843 0.69707,-0.48947z" fill="#001026"/></g></g></g></g></svg>