<svg version="1.1" xmlns="http://www.w3.org/2000/svg" xmlns:xlink="http://www.w3.org/1999/xlink" width="75.59132" height="91.99279" viewBox="0,0,75.59132,91.99279"><g transform="translate(-239.09412,-137.46019)"><g data-paper-data="{&quot;isPaintingLayer&quot;:true}" fill-rule="nonzero" stroke="none" stroke-linecap="butt" stroke-linejoin="miter" stroke-miterlimit="10" stroke-dasharray="" stroke-dashoffset="0" style="mix-blend-mode: normal"><path d="M254.07308,187.07216l-9.2469,-27.7929l24.10319,-21.81907l34.99444,13.86618l7.64012,21.76734l1.43315,23.73074l-42.64727,0.40628l-8.72554,22.93527l-11.21128,-2.63825l-1.39885,11.92523l-9.92003,-2.12263l7.43442,-23.54018l-3.99441,-14.74398z" fill="#ffffff" stroke-width="0"/><path d="M288.42344,179.30088c0.64503,0 1.06362,0.25419 1.33495,0.57316c0.70073,0.24261 1.23375,0.92894 1.27782,1.73772c0.02598,0.47669 -0.12254,0.91084 -0.38692,1.23669l-0.69153,0.85911c-0.75043,2.60327 -2.53498,4.81669 -4.69029,6.01507c1.34704,-0.13094 2.67405,-0.36222 3.95938,-0.76186c5.40908,-1.68178 9.27994,-6.21228 11.27769,-11.55771c-0.28958,-0.73121 -0.31543,-1.52626 0.04515,-2.38141c0.23582,-0.55924 0.73521,-0.87917 1.32638,-1.07993l-0.21588,-2.32855c1.8013,-1.77855 3.76829,-6.1129 1.33258,-8.77245c-2.11024,-2.30417 -4.15366,-1.03819 -5.73226,-4.77053c-0.38224,-0.90375 -0.06471,-1.94697 -0.23606,-2.90874c-0.72078,-4.04552 -2.7437,-8.86076 -7.01802,-8.79504c-2.43147,0.1601 -5.1091,0.30483 -7.39396,1.16434c-2.18385,0.82151 -3.39622,3.29625 -5.4939,4.14653c-3.22964,1.30911 -5.53693,-1.90524 -8.57316,-2.643c-3.2424,-0.78785 -6.34101,0.17357 -9.16619,1.61694c-2.71382,1.38647 -2.16646,3.26834 -3.29556,5.74413c-0.92002,2.01734 -1.87694,2.30568 -3.51491,3.30868c-0.57743,0.3869 -1.18282,0.73244 -1.73227,1.1607c-5.01031,3.90521 4.04008,6.68371 4.28296,10.50566c0.05881,0.92538 -0.94649,1.50002 -1.35826,2.29053c-0.58224,1.11776 -0.61624,1.7541 -0.46209,3.1494c0.51661,4.67617 6.2102,5.78815 10.33422,6.15534c-1.18512,-2.63602 -1.74132,-5.53945 -1.50034,-8.34441l-0.03109,-0.20095c0,0 -0.09981,-1.83146 1.63163,-1.83146c0.27378,0 0.50678,0.0458 0.70503,0.1229c-1.7521,-2.79347 -1.85957,-6.52686 0.28972,-9.16706c0.40727,-0.50029 3.24371,-2.10243 3.75489,-2.40305c0,0 1.47715,-0.86829 2.38591,0.74425c0.90875,1.61254 -0.56841,2.48084 -0.56841,2.48084c-0.99061,0.58199 -2.19643,0.88203 -2.96843,1.752c-3.13505,3.53289 1.86344,6.70946 4.69329,7.28687c1.17371,0.23948 2.02562,-1.3405 3.19958,-1.43537c2.36713,-0.19129 3.95905,2.36426 6.14689,2.72393c2.44038,0.40117 3.7056,-0.64669 5.56878,-1.94753c2.02331,-1.62137 3.35858,-2.80369 4.02013,-5.45768l0.00536,-1.20118c0,0 0.07297,-1.82238 1.80575,-1.64013c1.73278,0.18224 1.6598,2.00461 1.6598,2.00461l-0.12262,1.99502c-0.9263,3.438 -2.62661,5.21337 -5.25453,7.32712c-2.56901,1.7965 -4.72718,3.13564 -8.08689,2.52714c-1.35188,-0.24485 -2.92503,-1.16747 -4.07996,-1.9373c-0.33664,-0.22439 -0.57763,-0.87548 -0.94715,-0.77231c-0.54302,0.1516 -0.54396,1.15443 -1.07672,1.33734c-2.25221,0.77325 -5.71815,-0.29304 -7.78276,-1.57241c-0.58163,-0.36041 -1.10646,-0.78927 -1.56958,-1.2702c0.04577,0.19777 0.05318,0.33367 0.05318,0.33367l0.02117,0.75792c-0.44678,4.60082 2.06595,9.42497 5.89701,12.06525c1.42856,0.98453 3.52274,0.74887 5.12646,0.83983c-0.131,-0.15488 -0.26002,-0.31733 -0.38689,-0.48752c-0.26347,0.00178 -0.52783,0.00249 -0.79314,0.00249h-0.30216c0,0 -1.02166,0 -1.54063,-0.83013c-0.05597,0.01067 -1.68908,0.30631 -2.0991,-1.46286c-0.41718,-1.8001 1.2662,-2.13761 1.2662,-2.13761c4.72376,-0.94692 9.40262,-2.19146 14.17443,-2.87402c0.17736,-0.48205 0.58102,-0.99279 1.49535,-0.99279zM278.49437,189.85641c0.06795,0.00074 0.13595,0.00152 0.20398,0.0023c-0.07183,-0.04097 -0.1434,-0.08358 -0.21468,-0.12782c0.00456,0.04082 0.00814,0.08265 0.01071,0.12551zM305.02328,173.30458c0.02735,0.08251 0.05281,0.1733 0.07294,0.27012c3.43358,0.53326 8.86708,4.66583 7.44326,7.03137c0.63649,0.86118 1.21453,1.75589 1.61743,2.81016c1.64515,4.30489 -0.75168,8.4339 -4.40864,9.97596c-6.93194,2.92303 -15.68424,0.7583 -23.08395,0.7583c-3.27344,0 -6.54688,0 -9.82032,0h-1.20865c0,0 -0.98195,0 -1.5095,-0.7822c-5.58786,1.8579 -11.42952,3.23049 -16.5958,6.1656c-0.16539,0.09397 -0.36561,0.21299 -0.58811,0.35391c-1.56072,1.53103 -2.38363,3.7889 -3.1698,5.9989c0.03474,0.04324 0.07127,0.0864 0.10962,0.12946c0.78891,0.88589 3.6379,1.5424 4.59083,1.95751c2.18394,1.57663 5.02995,3.84386 3.63,7.14167c-0.8451,1.99079 -4.49051,2.52408 -6.24393,2.95972l-0.84002,0.04691c0,0 -1.73143,0 -1.83124,-1.83146c-0.09981,-1.83146 1.63163,-1.83146 1.63163,-1.83146l0.06647,0.04691c2.77619,-0.68361 5.68741,-0.82701 2.09345,-3.32263c-1.29692,-0.54971 -3.17655,-1.01641 -4.54985,-1.8948c-1.76991,3.67982 -4.89861,7.50478 -5.35524,11.68649c-0.1363,1.24824 1.55543,3.41777 2.06365,4.46585l0.25329,0.65813c0,0 0.64222,1.73748 -0.96881,2.31663c-1.61102,0.57916 -2.25323,-1.15832 -2.25323,-1.15832l-0.10113,-0.30073c-0.98428,-2.03585 -2.55505,-4.01567 -2.45671,-6.40123c0.11139,-2.70198 2.09028,-6.13425 3.25182,-8.40245c1.0844,-2.11757 2.00122,-4.62648 3.02712,-7.08504c-0.30766,-2.82144 1.59318,-5.48344 3.65415,-7.2437c-0.43067,-0.04167 -0.86452,-0.10291 -1.30178,-0.18564c-2.03125,-0.38432 -3.8571,-1.91292 -5.64577,-3.02212c-1.40489,0.29516 -1.97188,-1.23879 -1.97188,-1.23879c-0.23036,-1.10531 -1.14834,-2.33498 -0.6911,-3.31593c1.11573,-2.39366 8.18672,-2.71648 8.48354,1.23988c0.06611,0.88119 -0.53033,1.58363 -1.24336,2.16885c0.51405,0.28122 1.0161,0.49146 1.47279,0.56075c4.7391,0.71906 8.81352,-1.17278 12.98264,-2.82857c0.35273,-0.29617 1.2822,-0.87555 2.29864,0.14101c0.01141,0.01141 0.02262,0.02281 0.03365,0.03422c0.80492,-0.23657 1.60575,-0.47053 2.39696,-0.70815c-0.17492,-0.09272 -0.34844,-0.19464 -0.52045,-0.30674c-1.47815,-0.96348 -2.78923,-2.18692 -3.89364,-3.58419c-6.86975,-0.45615 -17.64309,-2.90378 -16.05265,-12.80182c0.1848,-1.15009 1.40629,-1.80369 1.7601,-2.8991c0.24094,-0.74596 -1.37309,-0.79126 -1.99075,-1.29678c-0.65222,-0.53378 -1.33903,-1.04809 -1.86974,-1.71589c-3.88929,-4.89397 -1.06724,-8.85815 2.86774,-11.52981c3.60505,-2.07081 2.84847,-6.96011 7.00269,-9.16553c3.49817,-1.85713 7.47033,-2.87991 11.49149,-1.89888c2.22838,0.54365 3.7564,2.05128 5.76062,2.88007c1.07493,0.44451 3.41039,-2.49661 4.0816,-2.96119c3.1123,-2.15417 6.99705,-2.43695 10.70354,-2.68455c6.24034,0.06618 9.6621,5.85162 10.73317,11.98025c0.12752,0.72969 -0.17657,1.49482 0.04264,2.20518c0.60604,1.96399 3.80195,2.10685 4.99417,3.53959c3.24711,3.90218 2.13931,9.47961 -0.44557,12.87426zM304.8786,190.97876c2.80559,-0.35369 7.75271,-2.32174 6.06638,-6.37717c-0.25014,-0.60156 -0.60769,-1.17655 -1.00102,-1.72754c-0.59045,0.21004 -1.20463,-0.01467 -1.20463,-0.01467c-1.11228,-0.41036 -3.57362,-1.29632 -5.55552,-2.60257c-1.96606,4.4719 -5.0754,8.28986 -9.17914,10.63454c3.6601,0.28135 7.33353,0.53373 10.87394,0.08741z" fill="#9966ff" stroke-width="0.5"/></g></g></svg>