<svg version="1.1" xmlns="http://www.w3.org/2000/svg" xmlns:xlink="http://www.w3.org/1999/xlink" width="54.45104" height="49.63253" viewBox="0,0,54.45104,49.63253"><g transform="translate(-209.29167,-150.40126)"><g data-paper-data="{&quot;isPaintingLayer&quot;:true}" fill-rule="nonzero" stroke-miterlimit="10" stroke-dasharray="" stroke-dashoffset="0" style="mix-blend-mode: normal"><path d="M255.07376,189.40785l-0.23064,0.59839c-1.26881,3.01887 -2.98088,4.72149 -2.98088,4.72149c0,0 0.07853,-0.54418 0.0779,-1.42299l-0.05081,-0.01977c-0.16498,0.45683 -0.43017,1.04411 -0.86192,1.76589c-0.94692,1.58513 -3.60752,2.84792 -3.60752,2.84792c0,0 0.18208,-0.55004 0.31602,-1.45581l-0.0317,-0.14042c-0.29089,0.20802 -0.59172,0.398 -0.89553,0.5826c-0.08941,0.05469 -0.17872,0.10794 -0.26943,0.15937c-0.2761,0.15847 -0.55684,0.309 -0.84285,0.44874c-0.11298,0.05452 -0.23008,0.10471 -0.34442,0.15672c-0.2086,0.09525 -0.41985,0.18473 -0.63411,0.27096c-0.15738,0.06247 -0.31578,0.12459 -0.47691,0.18201c-0.16682,0.06041 -0.33797,0.11394 -0.50816,0.17c-0.31279,0.09963 -0.6299,0.19175 -0.9538,0.27552c-0.10568,0.02728 -0.21139,0.05456 -0.31878,0.07966c-0.23078,0.05463 -0.4633,0.10775 -0.69976,0.1537l0.00067,0.00073c-1.18716,0.23269 -2.44273,0.36739 -3.783,0.40245c-1.45,0.03757 -2.76109,-0.0233 -3.98302,-0.15191v0c-0.96688,-0.10226 -1.87002,-0.2506 -2.72349,-0.4381c-0.04128,-0.00887 -0.08296,-0.0181 -0.12459,-0.02697c-0.26379,-0.05979 -0.52323,-0.12255 -0.77756,-0.18937c-0.08874,-0.02398 -0.17355,-0.04954 -0.26187,-0.07418c-0.33774,-0.09304 -0.66566,-0.19354 -0.9888,-0.29949c-0.20425,-0.06717 -0.40709,-0.13572 -0.60517,-0.20796c-0.11771,-0.04189 -0.23573,-0.08559 -0.35091,-0.12951c-0.3145,-0.12116 -0.62611,-0.24395 -0.92791,-0.37525l-0.05501,0.04917c0.08625,0.83142 0.35577,1.28671 0.57616,1.50678c0.44923,0.4493 1.33982,0.58381 1.33982,0.58381c0,0 -2.74699,0.28576 -4.1607,-1.87733c-0.15019,-0.22994 -0.30151,-0.46805 -0.44419,-0.72102l-0.06017,-0.14389c-0.31948,-0.11955 -0.64194,-0.27484 -0.95875,-0.47122c-1.93141,-1.20564 -2.14586,-2.15125 -2.14586,-2.15125l0.02904,0.34484c0.15818,0.9017 0.32344,1.47316 0.32344,1.47316c0,0 -2.30691,-1.57685 -3.2787,-3.85194c-0.78343,-1.83646 -0.81199,-2.93312 -0.81112,-3.1172l-0.056,-0.65999c0.04003,-2.57538 0.3021,-5.45638 0.75624,-8.28369l0.02451,-0.07493c0.39292,-2.18412 0.21592,-5.83183 3.26036,-9.45011c5.70486,-6.77837 11.27236,-6.33869 14.78974,-11.37302c2.58725,-3.70362 2.11104,-8.07318 2.11104,-8.07318c0,0 1.42891,2.18304 1.98479,3.45497c0.53799,1.23954 1.10296,2.83268 1.10296,2.83268l0.02054,-0.01267c0.01535,-0.04534 0.02933,-0.09172 0.04155,-0.13819c0.18963,-0.72362 0.16297,-1.80437 0.16297,-1.80437c0,0 1.28541,4.25396 3.50327,7.09154c2.2165,2.83617 5.53315,3.7417 9.42188,13.32352c0.48403,1.19074 0.93759,2.19456 1.16022,3.29741l0.09607,0.63356c0.29847,1.97975 -0.0386,7.40806 -0.89515,9.72816zM228.35075,179.21285c0,0 -2.83578,2.74439 -2.79539,6.70429c0.03574,3.50373 0.90409,4.61636 1.38301,4.90415c0.49248,0.29426 1.27699,0.15806 1.27699,0.15806c0,0 -2.24397,1.08854 -3.9835,-0.55782c-1.16355,-1.10051 -2.42228,-2.51158 -2.65199,-6.3741M250.88897,186.31864c0,0 0.30543,0.98483 -0.59493,2.98878c-1.01299,2.25775 -3.00444,2.8968 -3.00444,2.8968c0,0 1.75877,-3.47128 0.5051,-6.83792c-0.54708,-1.47085 -2.35583,-2.61607 -4.2568,-3.4468c-2.57604,-1.12657 -5.32105,-1.67511 -5.32105,-1.67511M251.90266,193.24698c-0.16377,0.46251 -0.43295,1.0641 -0.87741,1.80517c-0.94656,1.58514 -3.60717,2.84793 -3.60717,2.84793c0,0 0.52938,-1.60484 0.44744,-3.84317M222.03666,186.90376c-0.28601,0.48854 -0.51129,1.01515 -0.64678,1.57494c-0.84998,3.49005 0.28971,7.40773 0.28971,7.40773c0,0 -2.30622,-1.57616 -3.27869,-3.85197c-0.86195,-2.01978 -0.81015,-3.14467 -0.81015,-3.14467M254.84129,190.00863c-1.26951,3.01884 -2.98124,4.72147 -2.98124,4.72147c0,0 0.45045,-3.09155 -0.80605,-6.45865c-0.05666,-0.15223 -0.12161,-0.30052 -0.19089,-0.44474M238.2172,180.2444c0,0 0.46337,0.14054 1.66271,1.16652c1.19938,1.02599 1.61543,2.11378 1.61543,2.11378c0,0 -3.60993,-1.08869 -5.60168,-1.88564c-1.98961,-0.79757 -8.72477,-2.89017 -8.72477,-2.89017M226.16121,194.44682c0.93298,1.58679 1.93085,2.46741 1.93085,2.46741c0,0 -2.44368,0.66287 -4.61911,-0.69388c-1.93141,-1.20561 -2.14586,-2.15126 -2.14586,-2.15126M247.70166,196.30454c-2.6762,1.91219 -5.8713,2.78264 -9.72365,2.88325c-4.59284,0.11992 -7.91894,-0.66816 -10.74227,-1.89268M227.16164,197.08722c0.05153,0.99559 0.3524,1.52147 0.5946,1.76275c0.44958,0.44931 1.34018,0.58382 1.34018,0.58382c0,0 -2.7477,0.28574 -4.16106,-1.87736c-0.15019,-0.22994 -0.30151,-0.46805 -0.44419,-0.72102M238.47755,180.3714c0,0 9.93907,1.5709 9.74624,7.01911" fill="#be1e2d" stroke="#000000" stroke-width="1.2" stroke-linecap="round" stroke-linejoin="round"/><path d="M238.33147,197.80139c-5.83165,0.13741 -14.33913,-2.78384 -15.41645,-7.64685c-0.10683,-0.48869 -0.15614,-0.95875 -0.15819,-1.4088l0.12318,0.09677c0.41878,0.66226 0.89217,1.14591 1.35182,1.57971c1.73956,1.64565 3.98353,0.55712 3.98353,0.55712c0,0 -0.78453,0.13692 -1.27701,-0.15735c-0.47892,-0.28779 -1.34727,-1.40042 -1.38301,-4.90415c-0.04036,-3.96061 2.79539,-6.7043 2.79539,-6.7043l0.01272,-0.09055c2.02693,0.6395 6.06458,1.92851 7.52952,2.51603c1.99174,0.7973 5.60168,1.88564 5.60168,1.88564c0,0 -0.41605,-1.0878 -1.61543,-2.11378c-0.60036,-0.51317 -1.01569,-0.8047 -1.28074,-0.96819l0.25218,0.04876c0,0 11.58552,0.89721 12.8742,4.36205c1.25331,3.36699 0.94698,5.11199 -0.85332,7.47748c-1.8003,2.36548 -5.93459,5.31837 -12.54006,5.47039z" fill="#be1e2d" stroke="#000000" stroke-width="1.2" stroke-linecap="round" stroke-linejoin="round"/><g fill="#be1e2d" stroke="#000000" stroke-width="1.2" stroke-linecap="round" stroke-linejoin="miter"><path d="M253.07016,182.75902c0,0 3.68722,-3.84556 3.89114,-4.02668c0.20388,-0.18109 1.73334,-1.92613 5.97975,-2.39053c0,0 -3.13999,11.96804 -9.55726,14.50389c0.00001,-0.00035 0.72339,-3.43104 -0.31363,-8.08669zM253.09137,182.85711c-0.07774,-0.38468 -0.32931,-1.06821 -0.32931,-1.06821M253.04817,191.75985c0,0 0.26312,-0.56972 0.33564,-0.9145"/><path d="M255.96949,189.03858c0,0 -0.61568,-0.50883 -0.63197,-2.11146c-0.0117,-0.99418 0.48839,-2.7887 0.48839,-2.7887l-0.03726,0.0565c0.28781,-0.31001 0.59266,-0.67335 0.87132,-1.07397c0.47219,-0.67765 1.03271,-1.69918 1.54907,-2.70745l0.07928,-0.1386c0,0 1.33506,-1.81155 3.97434,-1.95337l0.02969,0.01763c-0.61924,1.81431 -1.61859,4.47211 -2.68494,6.27409c-1.1961,2.02137 -2.5487,3.47224 -3.68575,4.46136l0.04781,-0.03603zM254.6916,185.19114c0,0 0.95504,-0.86935 1.13432,-1.05273"/></g><g fill="#be1e2d" stroke="#000000" stroke-width="1.2" stroke-linecap="round" stroke-linejoin="miter"><path d="M218.55012,189.61248c-6.22158,-2.98318 -8.50764,-15.14326 -8.50764,-15.14326c4.20297,0.76379 5.60525,2.61261 5.79583,2.8073c0.19058,0.19473 3.59672,4.2917 3.59672,4.2917c-1.36394,4.57103 -0.88491,8.04427 -0.88491,8.04427zM219.81055,180.62264c0,0 -0.29927,0.66403 -0.40398,1.04225M218.55012,189.61248c0.04793,0.34904 0.27015,0.93594 0.27015,0.93594"/><path d="M216.14378,187.66674c-1.06426,-1.06739 -2.31055,-2.61023 -3.36115,-4.71078c-0.93664,-1.87287 -1.74518,-4.59465 -2.23466,-6.44821l0.03091,-0.01549c2.62299,0.32841 3.82629,2.22945 3.82629,2.22945l0.06929,0.14386c0.44375,1.04225 0.93068,2.10085 1.35379,2.81019c0.24965,0.41932 0.52805,0.8033 0.79321,1.13289l-0.03316,-0.05899c0,0 0.37197,1.82539 0.28997,2.81625c-0.12952,1.59748 -0.77967,2.0615 -0.77967,2.0615l0.04518,0.03932zM216.5883,182.74968c0.16587,0.19558 1.05705,1.13029 1.05705,1.13029"/></g><path d="M247.52984,189.78133c0.08102,-0.06176 0.17697,-0.10411 0.28665,-0.10315c0.00212,-0.00027 0.24252,-0.01368 0.36098,-0.18803c0.14804,-0.21819 0.44477,-0.27928 0.66455,-0.12714c0.21877,0.14926 0.27595,0.44562 0.12714,0.66455c-0.08954,0.13079 -0.19525,0.2255 -0.30148,0.30577c0.06191,0.0344 0.12406,0.07244 0.18597,0.10988c0.06402,-0.02213 0.13299,-0.03236 0.20459,-0.02397c0.00302,0.00004 0.24628,0.02615 0.38851,-0.13073c0.17907,-0.1967 0.48142,-0.20613 0.67623,-0.03181c0.19608,0.17783 0.21031,0.48086 0.03239,0.67589c-0.15247,0.16856 -0.32283,0.26989 -0.48863,0.3364c0.02537,0.17619 -0.01162,0.36241 -0.12316,0.51689c-0.18977,0.26485 -0.52836,0.36294 -0.82166,0.25999c-0.06271,-0.02201 -0.12214,-0.05351 -0.17898,-0.09373c-1.84282,-1.319 -4.14304,-1.48523 -4.16601,-1.48621c-0.39706,-0.02841 -0.69468,-0.36756 -0.66871,-0.76345c0.02469,-0.39533 0.36448,-0.69473 0.75947,-0.66909v0v0v0v0v0c0.07936,0.00505 1.47212,0.10518 3.06213,0.74792z" data-paper-data="{&quot;index&quot;:null}" fill="#231f20" stroke="none" stroke-width="1.2" stroke-linecap="butt" stroke-linejoin="miter"/><path d="M237.54264,189.13785v0v0v0v0v0c0.39558,0.01385 0.70384,0.34562 0.68901,0.74145c-0.01362,0.39651 -0.34356,0.70431 -0.74146,0.69301c-0.02296,-0.00132 -2.32829,-0.06515 -4.29338,1.06364c-0.06056,0.03436 -0.12284,0.05977 -0.18743,0.07543c-0.30211,0.07321 -0.62924,-0.05813 -0.79166,-0.34057c-0.09559,-0.16482 -0.11383,-0.35381 -0.07104,-0.52659c-0.15834,-0.0827 -0.31776,-0.20051 -0.45267,-0.38342c-0.1576,-0.21179 -0.11324,-0.51189 0.09959,-0.66931c0.21123,-0.15401 0.51113,-0.11451 0.6697,0.09906c0.1259,0.17027 0.37053,0.16854 0.37354,0.1688c0.07208,-0.00123 0.13968,0.01585 0.20118,0.04424c0.06533,-0.0311 0.13097,-0.06275 0.196,-0.0908c-0.09768,-0.09046 -0.19345,-0.19524 -0.26951,-0.33429c-0.12625,-0.23267 -0.03983,-0.52185 0.19273,-0.64858c0.23386,-0.12949 0.52301,-0.03913 0.64858,0.19273c0.1005,0.18528 0.33837,0.22258 0.34046,0.22307c0.10924,0.00999 0.20048,0.06168 0.27494,0.13121c1.64613,-0.4811 3.04194,-0.44193 3.12141,-0.43904z" data-paper-data="{&quot;index&quot;:null}" fill="#231f20" stroke="none" stroke-width="1.2" stroke-linecap="butt" stroke-linejoin="miter"/><path d="M225.27662,178.08287l-2.26826,5.9172" fill="none" stroke="#0067ff" stroke-width="1.5" stroke-linecap="round" stroke-linejoin="miter"/><path d="M226.6573,184.09869l2.56412,-7.10064" fill="none" stroke="#0067ff" stroke-width="1.5" stroke-linecap="round" stroke-linejoin="miter"/><path d="M231.29244,178.67459l-0.39448,3.74756" fill="none" stroke="#0067ff" stroke-width="1.5" stroke-linecap="round" stroke-linejoin="miter"/></g></g></svg>