<svg version="1.1" xmlns="http://www.w3.org/2000/svg" xmlns:xlink="http://www.w3.org/1999/xlink" width="102.51204" height="107.04836" viewBox="0,0,102.51204,107.04836"><g transform="translate(-186.23755,-131.75958)"><g data-paper-data="{&quot;isPaintingLayer&quot;:true}" stroke-miterlimit="10" stroke-dasharray="" stroke-dashoffset="0" style="mix-blend-mode: normal"><path d="M240.34378,201.12644c0.08852,0.74123 0.28067,2.12186 0.43691,3.94804c0.29672,3.46796 0.464,8.54265 -0.45367,13.89627l-0.09521,0.40172c-0.09521,0.40172 0.26823,0.80723 0.72688,0.81099c2.98511,-0.42268 8.81541,-1.00085 7.80312,4.67064c-0.91902,5.49336 -18.41573,7.89868 -19.83662,2.47552c-0.39267,-2.32883 1.03958,-3.52456 1.82472,-4.14422c0.41588,-0.35436 0.64907,-0.79968 0.79093,-1.29046c0.19428,-1.25065 0.4896,-3.57381 0.46037,-5.49714c-0.00409,-4.83012 -0.35979,-6.13001 -0.79717,-8.59336c-0.43738,-2.46336 -1.67169,-8.24277 2.97694,-10.0829c3.95872,-1.6222 5.85953,1.34515 6.16279,3.4049z" fill="#000000" fill-rule="evenodd" stroke="#ff7b00" stroke-width="2" stroke-linecap="round" stroke-linejoin="round"/><g fill="#000000" fill-rule="evenodd" stroke="#ff7b00" stroke-width="2"><path d="M224.39124,201.88868c0.86795,0.29056 2.71848,0.9558 0.68079,4.48371c-2.03767,3.52791 -9.01293,4.99106 -9.83165,5.08308c-3.16021,0.45221 -7.0491,0.8893 -11.51964,0.03339c-12.97768,-2.42244 -14.6923,-14.94013 -10.95955,-17.39721c3.63043,-2.44558 6.36711,5.10594 12.59883,9.15982c2.72691,1.82809 5.7932,2.25967 8.31088,2.46182c3.55337,0.18278 9.73774,-4.19929 10.72033,-3.8246z" stroke-linecap="round" stroke-linejoin="round"/><path d="M198.01423,196.99417c1.96974,2.39832 5.60993,5.67617 5.60993,5.67617c0,0 -3.89731,-0.4352 -5.8372,1.43227c-1.57978,1.43889 -0.89964,3.49702 -0.60882,4.14352c-1.4904,-1.09383 -3.34937,-2.63136 -4.80352,-5.86383c-1.45416,-3.23247 -0.94768,-7.36449 1.02525,-8.1684c1.99755,-0.61261 2.69387,0.76452 4.61436,2.78026z" stroke-linecap="butt" stroke-linejoin="miter"/></g><path d="M245.51719,193.98103c0.47618,0.42711 6.07048,7.86367 8.29061,6.31012c2.65859,-1.8067 6.42663,-5.45421 9.81623,-1.97608c3.38959,3.47814 -4.11063,8.26135 -7.22686,9.44906c-7.37098,2.37601 -12.57257,-3.76998 -13.65604,-5.40907c-1.08349,-1.63909 -2.98886,-4.41154 -2.74768,-6.90601c0.36239,-2.67768 3.91771,-3.05452 5.52375,-1.46803z" fill="#000000" fill-rule="evenodd" stroke="#ff7b00" stroke-width="2" stroke-linecap="round" stroke-linejoin="round"/><path d="M222.17058,208.87487c0.1143,-2.00169 1.74434,-5.00798 5.85618,-3.78301c4.82249,1.3763 4.11802,7.02491 3.90657,9.42508c-0.21145,2.40018 0.37656,3.67718 0.81635,8.31194c0.1475,1.84785 -0.16802,4.05215 0.1414,5.23586c0.10416,0.25552 1.02079,10.15865 -7.83204,9.72966c-7.81606,-0.37876 -1.43798,-11.79961 -1.43798,-11.79961c0,0 -1.50334,-9.94296 -1.52502,-13.29525c-0.01142,-1.76527 0.05405,-3.10606 0.07455,-3.82467z" data-paper-data="{&quot;index&quot;:null}" fill="#000000" fill-rule="evenodd" stroke="#ff7b00" stroke-width="2" stroke-linecap="round" stroke-linejoin="round"/><g fill="#000000" fill-rule="evenodd" stroke="#ff7b00" stroke-width="2"><path d="M226.6197,209.27339c-10.81605,-5.36632 -5.00744,-10.47319 -3.73019,-15.64241c1.28262,-4.46794 2.60278,-4.02685 8.88542,-4.54519c3.50791,-0.4601 5.57312,-0.72532 7.72001,-1.41453c3.23486,-0.98759 4.03462,3.612 3.87009,6.16698c0,0 -0.31076,3.79981 -1.04506,5.90869c-0.91491,2.55999 -1.66641,4.27202 -2.59205,5.42943c0,0 -1.98888,2.48802 -4.2769,3.20315c-2.05669,0.64282 -8.83134,0.89387 -8.83134,0.89387z" stroke-linecap="round" stroke-linejoin="round"/><path d="M238.80875,205.32806c0,0 -1.83189,-0.70232 -3.84976,-1.65482c-2.50056,-1.12129 -4.91405,-1.96529 -3.83571,-5.37325c1.08371,-2.70668 1.8363,-6.1257 7.12877,-4.66578c5.03662,1.32931 3.88303,4.15554 3.88303,4.15554c-0.8698,4.75629 -3.32635,7.5383 -3.32635,7.5383z" stroke-linecap="butt" stroke-linejoin="miter"/></g><g fill-rule="evenodd"><path d="M257.03226,136.71831c0.32924,-0.16113 0.83088,-0.01458 0.88993,0.37877l1.50263,10.51408c0,0 6.04956,5.15218 7.63859,8.50633c2.68256,5.59365 2.29619,9.91459 2.29619,9.91459c0,0 7.04953,2.73257 7.66031,8.31474c0.61079,5.58217 -5.07262,15.48134 -24.74504,17.11699c-19.67243,1.63566 -34.59623,-4.78301 -40.63542,-16.42455c-6.03919,-11.64154 6.91857,-23.53256 6.21665,-22.82713c0,0 0.67048,-15.37698 1.05877,-15.14477l11.1522,6.18279c0,0 4.79729,-1.17164 9.63664,-0.88603c2.89179,0.09269 5.33013,0.52796 7.64422,1.14466z" fill="#000000" stroke="#ff7b00" stroke-width="2" stroke-linecap="butt" stroke-linejoin="miter"/><path d="M287.74959,169.3067c-5.23044,3.16303 -12.62149,2.52781 -12.62149,2.52781" fill="#000000" stroke="#ff7b00" stroke-width="2" stroke-linecap="round" stroke-linejoin="round"/><path d="M285.2003,179.90379c-6.51197,-0.16066 -10.30315,-2.37675 -10.30315,-2.37675" fill="#000000" stroke="#ff7b00" stroke-width="2" stroke-linecap="round" stroke-linejoin="round"/><path d="M251.43586,166.87222c2.15255,0.21321 4.38588,0.62817 4.41233,1.30889c-0.04959,1.35129 -1.89132,3.88126 -3.54223,3.81461c-1.86676,0.00883 -5.90028,-2.81248 -5.72645,-4.3452c0.02787,-1.1597 2.80629,-0.98136 4.85634,-0.7783z" fill="#000000" stroke="#ff7b00" stroke-width="2" stroke-linecap="round" stroke-linejoin="round"/><path d="M205.47272,160.86642c0,0 8.51102,3.55543 11.76183,6.88045" fill="#000000" stroke="#ff7b00" stroke-width="2" stroke-linecap="round" stroke-linejoin="round"/><path d="M217.16182,171.13016c-4.59228,1.19194 -12.05797,-0.61313 -12.05797,-0.61313" fill="#000000" stroke="#ff7b00" stroke-width="2" stroke-linecap="round" stroke-linejoin="round"/><g fill="#ff7b00" stroke="none" stroke-width="0" stroke-linecap="butt" stroke-linejoin="miter"><path d="M265.20842,162.35809c-0.1195,1.05375 -1.0373,1.83468 -2.06232,1.73316c-1.02502,-0.10153 -1.74727,-1.04491 -1.62776,-2.09866c0.1195,-1.05375 1.0373,-1.83468 2.06232,-1.73316c1.02502,0.10153 1.74727,1.04491 1.62776,2.09866"/></g><g fill="#ff7b00" stroke="none" stroke-width="0" stroke-linecap="butt" stroke-linejoin="miter"><path d="M239.01149,162.57252c-0.1195,1.05375 -1.0373,1.83468 -2.06232,1.73316c-1.02502,-0.10153 -1.74727,-1.04491 -1.62776,-2.09866c0.1195,-1.05375 1.0373,-1.83468 2.06232,-1.73316c1.01416,0.19733 1.74727,1.04491 1.62776,2.09866"/></g></g><g fill="#000000" fill-rule="nonzero" stroke="#ff7b00" stroke-width="2" stroke-linejoin="miter"><g><path d="M251.35782,205.39907l8.58252,-19.80746l11.74481,6.45229l-13.51015,16.26437c0,0 -2.66725,0.46508 -3.76807,-0.00469c-1.16763,-0.49829 -3.04911,-2.90451 -3.04911,-2.90451z" stroke-linecap="butt"/><path d="M259.992,184.08734c2.12233,-3.37416 6.76963,-4.50155 10.38003,-2.5181c3.6104,1.98345 4.81673,6.32667 2.6944,9.70082c-2.12233,3.37416 -6.76964,4.50156 -10.38004,2.5181c-3.6104,-1.98345 -4.81672,-6.32667 -2.69439,-9.70083z" stroke-linecap="butt"/><path d="M260.45868,191.37493c0,0 1.5664,-4.21549 2.67188,-6.01965c1.0332,-1.68617 3.75881,-4.47527 3.75881,-4.47527" stroke-linecap="round"/><path d="M266.61784,194.59919c0,0 1.83258,-5.27514 2.80736,-7.22243c0.72025,-1.43877 2.51244,-3.40455 2.51244,-3.40455" stroke-linecap="round"/><path d="M259.71094,184.42847c0,0 5.1781,0.03303 7.66062,0.77776c2.15977,0.6479 6.40158,3.4407 6.40158,3.4407" stroke-linecap="round"/><path d="M258.80304,189.66831c0,0 5.68931,0.3762 8.16915,0.86939c1.9277,0.38338 5.47508,1.84421 5.47508,1.84421" stroke-linecap="round"/></g><path d="M264.50806,203.90077c-1.40817,2.25423 -4.6197,3.23903 -7.17316,2.19958c-2.55346,-1.03943 -4.07403,-3.17534 -2.66586,-5.42957c1.40817,-2.25423 5.21183,-3.77317 7.7653,-2.73373c2.55346,1.03943 3.48191,3.70947 2.07374,5.96373z" stroke-linecap="butt"/></g><g fill="#000000" fill-rule="nonzero" stroke="#ff7b00" stroke-width="2" stroke-linecap="butt" stroke-linejoin="miter"><path d="M230.13224,149.89485c-1.89139,4.04017 -23.10634,9.83025 -23.10634,9.83025c0,0 -2.93229,-0.40828 -4.30561,-0.66877c-10.28509,-1.95088 -16.89415,-5.90242 -15.22555,-9.46669c1.89139,-4.04017 13.70236,-6.05278 26.38052,-4.49531c12.67816,1.55747 18.14838,0.76034 16.25698,4.80051z"/><path d="M214.84913,144.13817l-11.68243,-4.68641c0,0 15.49865,-4.73822 23.8235,-5.72658c10.06838,-1.19537 32.35684,-0.94345 32.35684,-0.94345l-16.21454,15.73959z"/><path d="M204.35319,160.39097c0,0 -2.23535,-7.32294 -2.45176,-10.79684c-0.20994,-3.37018 1.17206,-9.74486 1.17206,-9.74486l27.26207,-1.48337c0,0 -0.20566,7.40854 0.0137,10.9295c0.20643,3.31367 1.26601,9.61219 1.26601,9.61219z" data-paper-data="{&quot;index&quot;:null}"/><path d="M231.18061,158.86849c0,0 -0.4405,-6.37776 -1.09031,-9.64102c-0.69044,-3.46741 -2.93781,-10.58818 -2.93781,-10.58818l32.86914,-5.71651c0,0 3.36894,5.81087 4.02981,9.12978c0.68122,3.42104 -0.00172,11.09941 -0.00172,11.09941z"/></g><path d="M224.14121,200.50117c-0.91259,3.89048 0.59878,7.75339 -1.08799,9.6234c-1.10085,1.22045 -2.76347,1.9833 -3.79487,1.772c-1.14957,-0.23551 -2.83288,-1.89025 -3.25865,-3.73706c-0.54156,-2.34905 -2.16081,-5.99645 -1.31646,-9.59604c0.74482,-3.17526 3.99014,-6.08724 5.32011,-8.01598c1.36307,-1.97675 3.39465,-2.20526 4.71658,-1.93443c1.42718,0.2924 2.74121,1.43806 3.03104,4.07661c0.24056,2.19003 -2.9257,4.89536 -3.60975,7.81152z" fill="#000000" fill-rule="nonzero" stroke="#ff7b00" stroke-width="2" stroke-linecap="butt" stroke-linejoin="miter"/></g></g></svg>