<svg version="1.1" xmlns="http://www.w3.org/2000/svg" xmlns:xlink="http://www.w3.org/1999/xlink" width="20.61314" height="26.35894" viewBox="0,0,20.61314,26.35894"><g transform="translate(-309.04826,-214.68601)"><g data-paper-data="{&quot;isPaintingLayer&quot;:true}" fill-rule="nonzero" stroke="none" stroke-width="0.5" stroke-linecap="butt" stroke-linejoin="miter" stroke-miterlimit="10" stroke-dasharray="" stroke-dashoffset="0" style="mix-blend-mode: normal"><path d="" fill="#ff0000"/><path d="M328.98767,226.59308c-0.74628,0.07463 -0.82091,-0.67165 -0.82091,-0.67165l-0.06814,-0.68136c-0.08453,-0.85303 -0.20075,-1.70562 -0.38697,-2.54236c-1.23197,-5.71827 -6.32548,-7.03353 -11.45675,-5.90257c-1.77837,0.39196 -4.50404,1.22052 -5.34812,3.04267c-0.67453,1.45615 -0.32238,3.6124 -0.27919,5.15383c0.93095,4.92218 3.04827,12.04542 8.21577,14.14678c1.84106,0.74867 4.41098,0.30619 6.37403,0.30619c0,0 0.75,0 0.75,0.75c0,0.75 -0.75,0.75 -0.75,0.75c-2.20736,0 -4.84588,0.40516 -6.9298,-0.41295c-5.73812,-2.25269 -8.13784,-9.92988 -9.15135,-15.37913c-0.07598,-2.44683 -0.48941,-5.4942 1.47268,-7.36141c5.81221,-5.53118 16.74318,-3.47268 18.56729,4.58242c0.19704,0.89482 0.32303,1.80563 0.41498,2.71726l0.06814,0.68136c0,0 0.07463,0.74628 -0.67165,0.82091z" fill="#9966ff"/><path d="M314.90217,221.06419c0,-0.41421 0.33579,-0.75 0.75,-0.75c0.41421,0 0.75,0.33579 0.75,0.75c0,0.41421 -0.33579,0.75 -0.75,0.75c-0.41421,0 -0.75,-0.33579 -0.75,-0.75z" fill="#9966ff"/><path d="M321.42391,221.49897c0,-0.41421 0.33579,-0.75 0.75,-0.75c0.41421,0 0.75,0.33579 0.75,0.75c0,0.41421 -0.33579,0.75 -0.75,0.75c-0.41421,0 -0.75,-0.33579 -0.75,-0.75z" fill="#9966ff"/><path d="M320.07543,231.89827c-0.1819,0.72761 -0.90951,0.54571 -0.90951,0.54571l-0.7793,-0.20062c-1.73591,0.01254 -2.68972,0.145 -3.62266,-1.49593c0,0 -0.33541,-0.67082 0.33541,-1.00623c0.67082,-0.33541 1.00623,0.33541 1.00623,0.33541c0.39898,1.06039 1.42674,0.67192 2.4643,0.67799l0.95983,0.23417c0,0 0.72761,0.1819 0.54571,0.90951z" fill="#9966ff"/></g></g></svg>