<svg version="1.1" xmlns="http://www.w3.org/2000/svg" xmlns:xlink="http://www.w3.org/1999/xlink" width="122.4845" height="120.92102" viewBox="0,0,122.4845,120.92102"><g transform="translate(-178.39579,-119.82944)"><g data-paper-data="{&quot;isPaintingLayer&quot;:true}" fill-rule="nonzero" stroke="none" stroke-linecap="butt" stroke-linejoin="miter" stroke-miterlimit="10" stroke-dasharray="" stroke-dashoffset="0" style="mix-blend-mode: normal"><g><path d="M244.77535,231.07082c2.47517,0.01355 4.89756,-0.61976 6.88414,-2.58863c0.06614,-0.07745 0.13111,-0.15448 0.19342,-0.23184c0.2456,2.14502 0.31288,4.35533 0.84612,6.49241c0.24298,0.97379 0.37678,1.97011 1.15698,2.68874c0.36602,0.33713 1.67936,0.53424 1.25968,0.80163c-0.31026,0.19768 -0.71746,0.18867 -1.07071,0.29138c-2.5594,0.77055 -7.49014,0.9691 -9.83559,-0.58107c-0.27911,-0.18447 0.65272,-2.05976 0.70354,-2.28466c0.25871,-1.14487 0.20912,-2.28038 0.09286,-3.44342c-0.07546,-0.37918 -0.14962,-0.76645 -0.23043,-1.14453z" data-paper-data="{&quot;noHover&quot;:false,&quot;origItem&quot;:[&quot;Path&quot;,{&quot;applyMatrix&quot;:true,&quot;selected&quot;:true,&quot;segments&quot;:[[[245.05347,232.23036],[-0.07546,-0.37918],[0.11626,1.16304]],[[244.95912,235.63964],[0.25871,-1.14487],[-0.05082,0.2249]],[[244.24884,237.91271],[-0.27911,-0.18447],[2.34545,1.55017]],[[254.01147,238.48738],[-2.5594,0.77055],[0.35325,-0.10271]],[[255.07732,238.20104],[-0.31026,0.19768],[0.41968,-0.26739]],[[253.81877,237.39811],[0.36602,0.33713],[-0.7802,-0.71863]],[[252.65182,234.72624],[0.24298,0.97379],[-0.53324,-2.13708]],[[251.83433,228.29676],[0.2456,2.14502],[-0.06231,0.07736]],[[251.64169,228.52891],[0.06614,-0.07745],[-1.98658,1.96887]],[[244.81946,231.09435],[2.47517,0.01355],[0.08081,0.37808]]],&quot;closed&quot;:true,&quot;fillColor&quot;:[0,0,0],&quot;strokeWidth&quot;:0.5}]}" fill="#9a8479" stroke-width="0.25"/><path d="M231.86513,233.37218c0.39097,-0.12371 0.77991,-0.30721 1.15476,-0.53708c1.24062,-1.08451 3.07014,-1.65132 3.93644,-3.04371c0.82497,0.17414 1.69083,0.37585 2.54193,0.55529c0.19279,2.01976 0.85674,4.25033 1.52612,6.07745c0.19498,0.53223 1.28673,1.41821 0.66723,2.0382c-0.66029,0.66081 -2.55048,0.6202 -3.41727,0.7179c-1.75893,-0.0028 -3.6017,0.02367 -5.34918,-0.17049c-0.20009,-0.02223 -2.67033,-0.50406 -2.60414,-0.55547c1.89762,-1.47395 2.09469,-2.41216 1.53852,-4.93077z" data-paper-data="{&quot;noHover&quot;:false,&quot;origItem&quot;:[&quot;Path&quot;,{&quot;applyMatrix&quot;:true,&quot;selected&quot;:true,&quot;segments&quot;:[[[231.90828,233.53458],[0,0],[0.55617,2.51861]],[[230.36223,238.42597],[1.89762,-1.47395],[-0.06619,0.05141]],[[232.95388,238.96881],[-0.20009,-0.02223],[1.74748,0.19416]],[[238.25331,239.13486],[-1.75893,-0.0028],[0.86679,-0.0977]],[[241.65085,238.43336],[-0.66029,0.66081],[0.6195,-0.61999]],[[240.97784,236.40583],[0.19498,0.53223],[-0.66938,-1.82712]],[[239.46653,230.38533],[0.19279,2.01976],[-0.8511,-0.17944]],[[236.94735,229.84058],[0.82497,0.17414],[-0.8663,1.39239]],[[233.06394,232.85874],[1.24062,-1.08451],[-0.37485,0.22987]],[[231.91347,233.38492],[0.39097,-0.12371],[0,0]]],&quot;closed&quot;:true,&quot;fillColor&quot;:[0,0,0],&quot;strokeWidth&quot;:0.5}]}" fill="#9a8479" stroke-width="0.25"/><path d="M235.6567,228.8228c-0.02783,0.13915 -0.02504,0.25951 -0.00064,0.35952c-0.09827,0.1548 -0.21392,0.32104 -0.34395,0.49114c-0.51688,0.67616 -2.29494,1.30295 -3.11979,2.02558c-1.41061,0.90876 -3.19347,0.43378 -4.6043,-0.02041c-1.0321,-0.33226 -2.11688,-0.0551 -3.10268,-0.62798c-2.38653,-1.3869 -1.86555,-4.57159 -0.4687,-6.41009c0.90543,-1.20724 2.5674,-4.38256 4.41153,-4.06063c0.36222,1.4497 1.17807,2.86447 2.14238,4.40736l-0.01219,0.12364c-0.13475,0.03515 -0.25894,0.07664 -0.38555,0.11461c0,0 -0.66388,0.13181 -0.44837,0.85018c0.21551,0.71837 0.85551,0.53333 0.85551,0.53333c1.94233,-0.5829 6.20484,-0.7119 5.51216,1.65913c-0.18334,0.06763 -0.36941,0.2246 -0.43542,0.55463z" data-paper-data="{&quot;noHover&quot;:false,&quot;origItem&quot;:[&quot;Path&quot;,{&quot;applyMatrix&quot;:true,&quot;selected&quot;:true,&quot;segments&quot;:[[[235.61019,228.80443],[0,0],[0.06601,-0.33003]],[[236.04402,228.25447],[-0.18334,0.06763],[0.69268,-2.37103]],[[230.62894,226.61904],[1.94233,-0.5829],[0,0]],[[229.69506,226.11618],[0.21551,0.71837],[-0.21551,-0.71837]],[[230.19792,225.1823],[0,0],[0.12661,-0.03797]],[[230.5903,225.07246],[-0.13475,0.03515],[0,0]],[[230.54014,225.02698],[0,0],[-0.96431,-1.54289]],[[228.43722,220.6291],[0.36222,1.4497],[-1.84413,-0.32193]],[[224.06427,224.65575],[0.90543,-1.20724],[-1.39685,1.8385]],[[224.52194,231.0166],[-2.38653,-1.3869],[0.9858,0.57288]],[[227.60499,231.6316],[-1.0321,-0.33226],[1.41083,0.45419]],[[232.16969,231.65445],[-1.41061,0.90876],[0.82485,-0.72263]],[[235.26857,229.64886],[-0.51688,0.67616],[0.13003,-0.1701]],[[235.61052,229.16166],[-0.09827,0.1548],[-0.0244,-0.10001]],[[235.61019,228.80442],[-0.02783,0.13915],[0,0]]],&quot;closed&quot;:true,&quot;fillColor&quot;:[0,0,0],&quot;strokeWidth&quot;:0.5}]}" fill="#9a8479" stroke-width="0.25"/><path d="M240.13778,228.58568c-0.36215,0 -0.55204,0.17355 -0.64889,0.35441c-0.703,-0.15945 -1.4031,-0.33191 -2.06969,-0.48151c0.62283,-3.36077 -2.38095,-4.00246 -5.09661,-3.70387c-0.08493,-0.16561 -0.20696,-0.26843 -0.20696,-0.26843l-0.35284,-0.24638c-0.58885,-0.94216 -1.121,-1.81788 -1.50674,-2.6741c0.41756,-0.31104 0.21688,-0.85047 0.21688,-0.85047l-0.55836,-1.05418c-0.08533,-0.04996 -0.16977,-0.09645 -0.25347,-0.13898c-0.12598,-1.09692 0.08282,-2.27734 0.78558,-3.64814c0,0 0.07191,-0.14375 0.08297,-0.33045c3.941,0.49489 8.05624,0.44354 11.87473,0.44354c2.54486,0 5.07249,-0.32704 7.53694,-0.81466l0.2614,0.52085c0,0 0.33837,0.67426 1.00919,0.33885c0.11454,-0.05727 0.19976,-0.12429 0.26231,-0.19611c2.43762,1.15779 6.5627,4.68564 4.41077,7.40819c-0.59483,0.75256 -1.60447,1.0405 -2.52982,1.26156c-0.08502,-0.10933 -0.21763,-0.20465 -0.42252,-0.25587c-0.41414,-0.10354 -0.65194,0.08972 -0.77958,0.27361c-0.81988,-0.17826 -1.64137,-0.34791 -2.46048,-0.52998l-0.43392,-0.14921c0,0 -0.41288,-0.13514 -0.71439,0.11308c-0.00903,-0.00494 -0.11447,-0.03665 -0.12359,-0.04166c-0.61061,-0.52644 -1.17279,-1.45985 -1.88469,-1.82183c-0.69063,-0.35117 -2.59976,-0.06569 -2.86701,-1.22785c-0.53555,-2.32889 4.0179,-3.56335 5.42903,-3.4043c0,0 0.66814,0.14628 0.75096,-0.59913c0.08282,-0.74542 -0.65854,-0.82386 -0.65854,-0.82386c-2.45511,-0.26926 -7.7043,1.66885 -6.93881,5.15445c0.43081,1.9617 2.4733,1.65564 3.73154,2.26436c0.55293,0.2675 1.18004,1.30863 1.67193,1.72849c1.32286,0.74144 2.05436,0.9355 3.56022,0.9355l0.29668,0.04079c-0.2433,0.48056 -0.54487,0.92867 -0.92953,1.37542c-2.58105,2.61158 -6.24039,2.39554 -9.69685,1.70465c-0.0291,-0.20216 -0.16553,-0.65677 -0.74786,-0.65677z" data-paper-data="{&quot;noHover&quot;:false,&quot;origItem&quot;:[&quot;Path&quot;,{&quot;applyMatrix&quot;:true,&quot;selected&quot;:true,&quot;segments&quot;:[[[240.15919,228.5405],[0,0],[0.58233,0]],[[240.90081,229.19481],[-0.0291,-0.20216],[3.45646,0.69089]],[[250.5411,227.50973],[-2.58105,2.61158],[0.38466,-0.44675]],[[251.46626,226.1422],[-0.2433,0.48056],[0,0]],[[251.26088,226.1422],[0,0],[-1.50586,0]],[[247.61221,225.1604],[1.32286,0.74144],[-0.49189,-0.41986]],[[245.93599,223.44106],[0.55293,0.2675],[-1.25824,-0.60872]],[[242.22438,221.15133],[0.43081,1.9617],[-0.76549,-3.4856]],[[249.22506,216.00272],[-2.45511,-0.26926],[0,0]],[[249.88765,216.83096],[0.08282,-0.74542],[-0.08282,0.74541]],[[249.05941,217.49355],[0,0],[-1.41113,-0.15905]],[[243.68721,220.81952],[-0.53555,-2.32889],[0.26725,1.16216]],[[246.58577,222.08911],[-0.69063,-0.35117],[0.7119,0.36198]],[[248.46888,223.9291],[-0.61061,-0.52644],[0.00912,0.00501]],[[248.49611,223.94403],[-0.00903,-0.00494],[0.30151,-0.24822]],[249.20992,223.83324],[[249.64392,223.9821],[0,0],[0.81911,0.18207]],[[252.10434,224.51233],[-0.81988,-0.17826],[0.12764,-0.18389]],[[252.88347,224.24087],[-0.41414,-0.10354],[0.20489,0.05122]],[[253.30615,224.49592],[-0.08502,-0.10933],[0.92535,-0.22106]],[[255.83509,223.24107],[-0.59483,0.75256],[2.15193,-2.72255]],[[251.43486,215.86688],[2.43762,1.15779],[-0.06255,0.07182]],[[251.17257,216.06302],[0.11454,-0.05727],[-0.67082,0.33541]],[250.16634,215.72761],[[249.90691,215.20874],[0,0],[-2.46445,0.48762]],[[242.40941,216.03687],[2.54486,0],[-3.81849,0]],[[230.57346,215.56767],[3.941,0.49489],[-0.01106,0.1867]],[[230.49104,215.8971],[0,0],[-0.70276,1.3708]],[[229.70996,219.53278],[-0.12598,-1.09692],[0.0837,0.04253]],[[229.96349,219.67146],[-0.08533,-0.04996],[0,0]],[230.52247,220.72208],[[230.30593,221.56917],[0.41756,-0.31104],[0.38574,0.85622]],[[231.81215,224.23199],[-0.58885,-0.94216],[0,0]],[232.16476,224.47705],[[232.37145,224.74413],[-0.08493,-0.16561],[2.71566,-0.29859]],[[237.45335,228.42206],[0.62283,-3.36077],[0.66659,0.1496]],[[239.51292,228.89624],[-0.703,-0.15945],[0.09685,-0.18086]],[[240.1592,228.5405],[-0.36215,0],[0,0]]],&quot;closed&quot;:true,&quot;fillColor&quot;:[0,0,0],&quot;strokeWidth&quot;:0.5}]}" fill="#9a8479" stroke-width="0.25"/><path d="M296.2736,170.95531c-3.51041,-3.51041 -10.31913,-6.49474 -15.40298,-4.51205c-0.00902,-0.01665 -0.01808,-0.03356 -0.02715,-0.05009c-0.51057,-0.93085 -1.21496,-1.9706 -1.78807,-3.03927c4.85129,-2.3328 11.25933,-3.7053 16.68321,-3.68112c1.64348,-0.09647 3.38459,2.35894 3.36944,3.9157c-0.0331,3.40298 -0.6167,5.80466 -1.85961,8.63598c-0.31714,-0.41815 -0.65374,-0.91414 -1.0569,-1.32629z" data-paper-data="{&quot;noHover&quot;:false,&quot;origItem&quot;:[&quot;Path&quot;,{&quot;applyMatrix&quot;:true,&quot;selected&quot;:true,&quot;segments&quot;:[[[296.23258,170.92673],[0,0],[0.40316,0.41215]],[[297.2088,172.19399],[-0.31714,-0.41815],[1.24291,-2.83132]],[[299.05939,163.59993],[-0.0331,3.40298],[0.01515,-1.55676]],[[295.70224,159.70707],[1.64348,-0.09647],[-5.42388,-0.02418]],[[279.10381,163.36642],[4.85129,-2.3328],[0.57311,1.06867]],[[280.8934,166.39047],[-0.51057,-0.93085],[0.00907,0.01653]],[[280.92053,166.44025],[-0.00902,-0.01665],[5.08385,-1.98269]],[[296.23256,170.92674],[-3.51041,-3.51041],[0,0]]],&quot;closed&quot;:true,&quot;fillColor&quot;:[0,0,0],&quot;strokeWidth&quot;:0.5}]}" fill="#9a8479" stroke-width="0.25"/><path d="M191.1123,168.80848c0.10586,0.02117 0.20135,0.02475 0.28414,0.01418c2.41322,0.50409 4.74947,1.43127 6.42859,2.73743c-0.29052,0.72032 -0.55986,1.42821 -0.80304,2.12753c-5.62426,0.03343 -11.197,0.98303 -13.55938,6.88899c-0.31873,0.53121 -0.56926,1.08532 -0.80259,1.64827c-3.54862,-4.49757 -4.40258,-10.7715 1.28409,-13.67737c2.01598,-0.3188 4.51496,-0.27119 6.90625,0.16748c0.07123,0.04008 0.15888,0.07289 0.26194,0.0935z" data-paper-data="{&quot;noHover&quot;:false,&quot;origItem&quot;:[&quot;Path&quot;,{&quot;applyMatrix&quot;:true,&quot;selected&quot;:true,&quot;segments&quot;:[[[191.09564,168.85563],[0,0],[-0.10306,-0.02061]],[[190.83562,168.76277],[0.07123,0.04008],[-2.39129,-0.43867]],[[183.97343,168.58801],[2.01598,-0.3188],[-5.68667,2.90587]],[[182.69322,182.1875],[-3.54862,-4.49757],[0.23333,-0.56295]],[[183.49819,180.54149],[-0.31873,0.53121],[2.36238,-5.90596]],[[196.97291,173.69719],[-5.62426,0.03343],[0.24318,-0.69932]],[[197.77883,171.57921],[-0.29052,0.72032],[-1.67912,-1.30616]],[[191.37795,168.86911],[2.41322,0.50409],[-0.08279,0.01057]],[[191.09564,168.85562],[0.10586,0.02117],[0,0]]],&quot;closed&quot;:true,&quot;fillColor&quot;:[0,0,0],&quot;strokeWidth&quot;:0.5}]}" fill="#9a8479" stroke-width="0.25"/><path d="M282.49158,160.40238c-1.38538,0.46275 -2.81701,1.01043 -4.06364,1.6082c-0.23313,-0.63274 -0.37592,-1.27089 -0.36622,-1.90968c0,0 0.00022,-0.74892 -0.74978,-0.74892c-0.75,0 -0.65218,0.72924 -0.65218,0.72924c0.05404,4.89789 4.70115,8.68191 4.70115,13.87873c0.66843,3.34214 1.40429,7.15998 1.05788,10.62049c-0.16871,1.68536 -0.80696,3.40263 -0.90334,5.06978c-0.12094,0.15871 -0.36129,0.57705 0.05626,0.99459c0.53033,0.53033 0.97188,-0.04602 0.97188,-0.04602l0.37084,-0.68114c-0.01086,-0.49442 0.04902,-1.00478 0.14392,-1.52458l0.79076,-0.21404c0.18017,-0.09009 0.45185,-0.14012 0.63189,-0.23045c-0.53203,5.07711 -4.64685,9.74507 -8.02526,13.13784c-2.45363,1.84022 -4.21119,4.59206 -6.7614,6.28011c-2.86571,1.89689 -5.99749,2.64075 -9.14248,3.91259c-6.02802,1.2056 -11.91799,3.30757 -18.13806,3.30757c-6.31204,0 -13.22429,0.03406 -19.15169,-2.30804c-5.24715,-0.8957 -9.77913,-2.67319 -14.13657,-5.57794c-0.99733,-0.66484 -1.96897,-0.88987 -2.71852,-1.90634c-4.18752,-3.19346 -7.23342,-7.75029 -9.89756,-12.20128c0,0 0.07009,-0.07755 0.03906,-0.11689c0.38483,0.07088 0.76556,0.171 1.13074,0.31036c0.529,1.33194 1.20899,2.57082 2.08821,3.66985c0,0 0.38862,0.64578 0.97427,0.17726c0.58565,-0.46852 0.11664,-1.05483 0.11664,-1.05483c-0.77065,-0.96333 -1.37761,-2.05547 -1.85175,-3.22465c0.00897,-0.05114 0.01378,-0.10689 0.01378,-0.16741c0,-0.33116 -0.14661,-0.51674 -0.30993,-0.62002c-1.25674,-3.6141 -1.40978,-7.87533 -1.40978,-11.53496c0,-4.06671 1.32968,-6.6251 2.80151,-10.3047l0.28569,-0.7152c0,0 0.27852,-0.69764 -0.41784,-0.97619c-0.69636,-0.27854 -0.8749,0.41702 -0.8749,0.41702l-0.28574,0.71338c-0.13517,0.33792 -0.36899,0.67176 -0.50085,0.99458c-1.75259,-1.218 -3.93747,-2.10273 -6.23105,-2.63972c1.09823,-5.47423 2.08047,-10.02507 4.6359,-15.11101c0.88755,-2.26482 2.72927,-3.98315 3.81696,-6.13322c1.56439,-3.09239 4.02007,-6.65162 6.54045,-9.16133c2.69197,-2.69197 5.39138,-4.63063 8.5646,-6.74897c2.09035,-1.39545 3.93955,-3.36551 6.28991,-4.30565c2.58521,-1.95494 6.264,-2.67373 9.44505,-3.2523c0.56079,-0.102 1.7982,-0.61663 2.34501,-0.51226c1.12022,0.21381 1.92167,5.06661 2.13273,6.13323c0.45004,1.34648 0.64911,2.89743 0.65078,4.31488l-0.15242,0.76351c-0.01152,0.05225 -0.02325,0.00671 -0.02325,0.06243c0,0.41421 0.33684,0.74995 0.75105,0.74995c0.20711,0 0.39541,-0.08397 0.53113,-0.21969l0.66766,-0.66668l-0.10996,-0.1098c2.20158,-1.64479 3.8282,-4.04274 5.91146,-5.85344c2.50405,-2.17642 5.1655,-3.36659 8.08142,-4.85166c2.10269,-0.34167 3.935,-1.12802 6.10652,-1.12802c0.91932,0 1.75718,-0.1678 2.66876,-0.16571c0.10376,0.00024 0.21513,0.07374 0.37644,0.04672c-0.46449,0.4664 -0.97081,1.27167 -1.03595,1.36505c-1.21638,1.7438 -2.09663,3.67844 -3.04517,5.57442c-1.19479,2.09623 -2.68242,4.97481 -2.69767,7.41892l-0.28694,0.71759c-0.0386,0.09037 -0.05986,0.18991 -0.05986,0.29439c0,0.41421 0.33708,0.75068 0.75129,0.75068c0.2485,0 0.46924,-0.12059 0.60572,-0.30672l0.49489,-0.65961l-0.04317,-0.03237c2.85982,-1.9905 5.28807,-4.66715 8.44702,-6.24329c1.27587,-0.63659 5.34261,-3.11443 4.30742,-0.62046c-0.47698,1.96972 -2.00587,5.99466 -1.16065,8.07409c1.56472,3.84958 6.62585,6.69023 9.10235,10.00893c2.85292,3.8039 4.92149,7.55466 5.69852,12.35448z" data-paper-data="{&quot;noHover&quot;:false,&quot;origItem&quot;:[&quot;Path&quot;,{&quot;applyMatrix&quot;:true,&quot;selected&quot;:true,&quot;segments&quot;:[[[282.33627,160.07683],[0,0],[-0.77703,-4.79982]],[[276.64273,147.73686],[2.85292,3.8039],[-2.4765,-3.3187]],[[267.54982,137.74054],[1.56472,3.84958],[-0.84522,-2.07943]],[[268.71415,129.66968],[-0.47698,1.96972],[1.03519,-2.49397]],[[264.40934,130.29208],[1.27587,-0.63659],[-3.15895,1.57614]],[[255.96629,136.53786],[2.85982,-1.9905],[0,0]],[256.0094,136.57019],[[255.51464,137.22987],[0,0],[-0.13648,0.18613]],[[254.9094,137.53685],[0.2485,0],[-0.41421,0]],[[254.1594,136.78685],[0,0.41421],[0,-0.10448]],[[254.21936,136.49251],[-0.0386,0.09037],[0,0]],[[254.50638,135.77496],[0,0],[0.01525,-2.44411]],[[257.24814,128.26629],[-1.19479,2.09623],[0.94854,-1.89598]],[[260.29362,122.69202],[-1.21638,1.7438],[0.06514,-0.09338]],[[261.32986,121.32711],[-0.46449,0.4664],[-0.16131,0.02702]],[[260.9094,121.37018],[0.10376,0.00024],[-0.91158,-0.00209]],[[258.24273,121.53685],[0.91932,0],[-2.17152,0]],[[252.14133,122.66675],[2.10269,-0.34167],[-2.91592,1.48507]],[[244.06746,127.5201],[2.50405,-2.17642],[-2.08326,1.8107]],[[238.16326,133.37404],[2.20158,-1.64479],[0,0]],[238.27306,133.48384],[[237.60639,134.15051],[0,0],[-0.13572,0.13572]],[[237.07606,134.37018],[0.20711,0],[-0.41421,0]],[[236.32606,133.62018],[0,0.41421],[0,-0.05572]],[[236.34366,133.45791],[-0.01152,0.05225],[0,0]],[[236.49636,132.69439],[0,0],[-0.00167,-1.41745]],[[235.85118,128.47935],[0.45004,1.34648],[-0.21106,-1.06662]],[[233.72035,122.34597],[1.12022,0.21381],[-0.54681,-0.10437]],[[231.37793,122.8579],[0.56079,-0.102],[-3.18105,0.57857]],[[221.9435,126.10735],[2.58521,-1.95494],[-2.35036,0.94014]],[[215.66121,130.40925],[2.09035,-1.39545],[-3.17322,2.11834]],[[207.10638,137.15053],[2.69197,-2.69197],[-2.52038,2.50971]],[[200.57372,146.30161],[1.56439,-3.09239],[-1.08769,2.15007]],[[196.76023,152.42744],[0.88755,-2.26482],[-2.55543,5.08594]],[[192.12749,167.5214],[1.09823,-5.47423],[2.29358,0.53699]],[[198.35846,170.15789],[-1.75259,-1.218],[0.13186,-0.32282]],[[198.75941,169.16766],[-0.13517,0.33792],[0,0]],[199.04513,168.45338],[[200.02003,168.03556],[-0.69636,-0.27854],[0.69636,0.27855]],[200.43785,169.01046],[[200.15213,169.72474],[0,0],[-1.47183,3.6796]],[[197.34863,180.01763],[0,-4.06671],[0,3.65963]],[[198.75338,191.54111],[-1.25674,-3.6141],[0.16332,0.10328]],[[199.06292,192.16049],[0,-0.33116],[0,0.06052]],[[199.04906,192.32778],[0.00897,-0.05114],[0.47414,1.16918]],[[200.89857,195.54912],[-0.77065,-0.96333],[0,0]],[[200.78143,196.60329],[0.58565,-0.46852],[-0.58565,0.46852]],[[199.72726,196.48616],[0,0],[-0.87922,-1.09903]],[[197.63659,192.81266],[0.529,1.33194],[-0.36518,-0.13936]],[[196.5054,192.50154],[0.38483,0.07088],[0.03103,0.03934]],[[196.5525,192.56766],[0,0],[2.66414,4.45099]],[[206.43971,204.75654],[-4.18752,-3.19346],[0.74955,1.01647]],[[209.15558,206.66074],[-0.99733,-0.66484],[4.35744,2.90475]],[[223.27814,212.23128],[-5.24715,-0.8957],[5.9274,2.3421]],[[242.40938,214.53687],[-6.31204,0],[6.22007,0]],[[260.529,211.23463],[-6.02802,1.2056],[3.14499,-1.27184]],[[269.66318,207.32741],[-2.86571,1.89689],[2.55021,-1.68805]],[[276.41798,201.05362],[-2.45363,1.84022],[3.37841,-3.39277]],[[284.43511,187.92869],[-0.53203,5.07711],[-0.18004,0.09033]],[[283.89479,188.19932],[0.18017,-0.09009],[0,0]],[[283.10381,188.41384],[0,0],[-0.0949,0.5198]],[[282.95927,189.93973],[-0.01086,-0.49442],[0,0]],[282.58808,190.62157],[[281.52742,190.62157],[0.53033,0.53033],[-0.41755,-0.41754]],[[281.47076,189.62777],[-0.12094,0.15871],[0.09638,-1.66715]],[[282.372,184.56279],[-0.16871,1.68536],[0.34641,-3.46051]],[[281.31139,173.95302],[0.66843,3.34214],[0,-5.19682]],[[276.61077,160.09124],[0.05404,4.89789],[0,0]],[[277.36077,159.34124],[-0.75,0],[0.75,0]],[[278.11077,160.09124],[0,0],[-0.0097,0.63879]],[[278.4774,162.00328],[-0.23313,-0.63274],[1.24663,-0.59777]],[[282.44228,160.41077],[-1.38538,0.46275],[0,0]]],&quot;closed&quot;:true,&quot;fillColor&quot;:[0,0,0],&quot;strokeWidth&quot;:0.5}]}" fill="#9a8479" stroke-width="0.25"/><path d="M245.05348,232.23036c0.11626,1.16304 0.16436,2.26441 -0.09435,3.40928c-0.05082,0.2249 -0.98939,2.0886 -0.71028,2.27307c2.34545,1.55017 7.20323,1.34522 9.76263,0.57467c0.35325,-0.10271 0.75559,-0.08866 1.06585,-0.28634c0.41968,-0.26739 -0.89253,-0.4658 -1.25855,-0.80293c-0.7802,-0.71863 -0.92397,-1.69808 -1.16695,-2.67187c-0.53324,-2.13708 -0.57189,-4.28446 -0.81749,-6.42948c-0.06231,0.07736 -0.1265,0.1547 -0.19264,0.23215c-1.98658,1.96887 -4.34706,2.57899 -6.82223,2.56544c0.08081,0.37808 0.15855,0.75683 0.23401,1.13601zM254.48465,235.84151c0.35078,0.8389 1.47181,0.67714 1.84603,1.57297c0.71701,1.71638 -0.62591,2.12161 -1.88818,2.50964c-2.46824,0.73805 -9.25299,1.29534 -11.25432,-0.95075c-0.0299,-0.03356 -0.05767,-0.06904 -0.0834,-0.10636c-0.09597,0.22914 -0.22083,0.43699 -0.36945,0.60266c-0.92743,1.03379 -3.13326,1.02408 -4.39907,1.16291c-1.9053,0.00272 -7.9353,0.67454 -9.10721,-1.2195c-1.45234,-2.34728 1.28244,-1.64767 1.48039,-2.87171c0.13626,-0.84255 -0.08223,-1.86266 -0.26544,-2.68139l-0.00477,-0.22452c-1.11557,0.04308 -2.24679,-0.21162 -3.31907,-0.58437c-1.12435,-0.39085 -2.24038,-0.07849 -3.35763,-0.74093c-3.17064,-1.87994 -2.81982,-5.96491 -0.89826,-8.55441c1.38721,-1.84962 3.01941,-4.66609 5.35621,-4.62251c-0.04324,-1.16701 0.21034,-2.39817 0.86713,-3.77908c-2.14938,-0.34996 -4.24254,-0.87895 -6.21364,-1.67837c-5.38471,-0.87261 -10.08273,-2.78831 -14.54411,-5.7628c-1.06574,-0.71055 -2.12877,-1.0165 -2.9508,-2.0958c-4.3042,-3.15898 -7.41164,-7.98591 -10.11279,-12.47779c0,0 -0.38239,-0.63732 0.2486,-1.02375c-4.69711,-0.98754 -9.55289,-3.56776 -12.61631,-7.26482c-0.09704,0.01606 -0.20934,0.01253 -0.33896,-0.01988c-0.72761,-0.1819 -0.5457,-0.90951 -0.5457,-0.90951l0.04608,-0.17682c-0.1773,-0.25693 -0.34605,-0.5185 -0.50567,-0.78455c-4.25547,-5.34814 -4.77151,-12.69717 1.95527,-15.99854c2.1705,-0.37414 4.68157,-0.34934 7.14743,0.06483c1.11965,-5.56745 2.15671,-10.22678 4.73489,-15.41341c0.92998,-2.28483 2.77505,-4.02375 3.85318,-6.2075c1.59985,-3.24047 4.1935,-6.89852 6.80067,-9.51558c2.75663,-2.75663 5.52867,-4.76189 8.77851,-6.92539c2.12736,-1.41624 3.99243,-3.40799 6.38438,-4.36477c2.73626,-2.03619 6.55373,-2.80922 9.8989,-3.41722c0.74755,-0.13587 2.29101,-0.70338 2.99091,-0.48807c2.16825,0.66699 2.81344,5.27408 3.20251,7.19995c0.36823,1.10763 0.56414,2.26984 0.64411,3.43684c0.71905,-0.93225 1.93389,-1.94218 2.43402,-2.44134c3.50308,-3.49626 6.86681,-5.66921 11.2984,-7.84957c2.83484,-0.48362 5.43938,-1.08411 8.3247,-1.36645c0.52956,-0.05182 2.98344,-0.15227 3.21189,0.35205c0.3527,0.77862 -0.58931,1.93225 -1.04509,2.52028c-1.48947,1.92167 -2.51818,4.06637 -3.59831,6.22791c-0.85625,1.49443 -1.88172,3.438 -2.344,5.29517c0.54427,-0.46385 1.16241,-0.89559 1.51589,-1.20791c2.59446,-2.29238 5.74513,-3.88829 8.85962,-5.292c2.44422,-1.10163 4.45495,-0.87989 3.55381,2.31407c-0.32488,1.34687 -1.96094,5.67592 -1.22032,7.08309c1.95258,3.70987 6.37391,6.3077 8.90709,9.67035c3.00194,4.00259 5.11509,7.96819 5.97313,12.99337l0.04839,0.13503c3.86817,-1.13429 8.04276,-1.74388 11.838,-1.75821c1.99199,0.06785 2.71761,1.1592 3.81428,2.62143c3.15851,4.21135 0.1136,10.01424 -1.92629,14.05858c-3.34504,4.47055 -7.23724,8.68791 -11.59996,12.09752c-0.12257,5.91144 -4.65009,11.27771 -8.58948,15.2022c-2.51116,1.88337 -4.30543,4.64491 -6.91187,6.39287c-2.96155,1.98612 -6.2627,2.79718 -9.53249,4.09278c-2.86797,0.57359 -5.70123,1.34068 -8.5515,1.99753c3.28438,1.682 7.23851,5.89142 4.62072,9.48353c-0.87646,1.20268 -2.4854,1.60899 -3.88257,1.89978c-0.03041,0.07704 -0.06157,0.15305 -0.09353,0.22812c0.58129,3.13411 0.18119,6.56146 1.43507,9.56012zM243.57,232.45234c-0.09672,-0.48102 -0.19757,-0.96123 -0.30323,-1.44037c-0.74735,-0.07161 -1.5001,-0.18494 -2.25141,-0.32063c0.31337,2.01956 1.25459,3.82271 1.94607,5.68557c0.24005,-1.39333 0.70561,-2.9547 0.60857,-3.92457zM231.90829,233.53458c0.55617,2.51861 0.35157,3.41744 -1.54605,4.89139c-0.06619,0.05141 2.39156,0.52061 2.59165,0.54284c1.74748,0.19416 3.5405,0.16325 5.29943,0.16605c0.86679,-0.0977 2.73725,-0.04069 3.39754,-0.7015c0.6195,-0.61999 -0.47803,-1.4953 -0.67301,-2.02753c-0.66938,-1.82712 -1.31852,-4.00074 -1.51131,-6.0205c-0.8511,-0.17944 -1.69421,-0.37061 -2.51918,-0.54475c-0.8663,1.39239 -2.64279,1.93365 -3.88341,3.01816c-0.37485,0.22987 -0.7595,0.40247 -1.15047,0.52618zM240.1592,228.5405c0.58233,0 0.71252,0.45215 0.74162,0.65431c3.45646,0.69089 7.05924,0.9265 9.64029,-1.68508c0.38466,-0.44675 0.68186,-0.88697 0.92516,-1.36753h-0.20538c-1.50586,0 -2.32581,-0.24036 -3.64867,-0.9818c-0.49189,-0.41986 -1.12329,-1.45184 -1.67622,-1.71934c-1.25824,-0.60872 -3.2808,-0.32803 -3.71161,-2.28973c-0.76549,-3.4856 4.54557,-5.41787 7.00068,-5.14861c0,0 0.74541,0.08282 0.66259,0.82824c-0.08282,0.74541 -0.82824,0.66259 -0.82824,0.66259c-1.41113,-0.15905 -5.90775,0.99708 -5.3722,3.32597c0.26725,1.16216 2.20793,0.91842 2.89856,1.26959c0.7119,0.36198 1.2725,1.31355 1.88311,1.83999c0.00912,0.00501 0.0182,0.00999 0.02723,0.01493c0.30151,-0.24822 0.71381,-0.11079 0.71381,-0.11079l0.434,0.14886c0.81911,0.18207 1.64054,0.35197 2.46042,0.53023c0.12764,-0.18389 0.36499,-0.375 0.77913,-0.27146c0.20489,0.05122 0.33766,0.14572 0.42268,0.25505c0.92535,-0.22106 1.93411,-0.50229 2.52894,-1.25485c2.15193,-2.72255 -1.96261,-6.2164 -4.40023,-7.37419c-0.06255,0.07182 -0.14775,0.13887 -0.26229,0.19614c-0.67082,0.33541 -1.00623,-0.33541 -1.00623,-0.33541l-0.25943,-0.51887c-2.46445,0.48762 -4.95264,0.82813 -7.4975,0.82813c-3.81849,0 -7.89495,0.02569 -11.83595,-0.4692c-0.01106,0.1867 -0.08242,0.32943 -0.08242,0.32943c-0.70276,1.3708 -0.90706,2.53876 -0.78108,3.63568c0.0837,0.04253 0.1682,0.08872 0.25353,0.13868l0.55898,1.05062c0,0 0.20102,0.53605 -0.21654,0.84709c0.38574,0.85622 0.91737,1.72066 1.50622,2.66282l0.35261,0.24506c0,0 0.12176,0.10147 0.20669,0.26708c2.71566,-0.29859 5.70473,0.31716 5.0819,3.67793c0.66659,0.1496 1.35657,0.31473 2.05957,0.47418c0.09685,-0.18086 0.28413,-0.35574 0.64628,-0.35574zM235.6102,228.80443c0.06601,-0.33003 0.25049,-0.48233 0.43383,-0.54996c0.69268,-2.37103 -3.47275,-2.21833 -5.41508,-1.63543c0,0 -0.71837,0.21551 -0.93388,-0.50286c-0.21551,-0.71837 0.50286,-0.93388 0.50286,-0.93388c0.12661,-0.03797 0.25763,-0.07469 0.39238,-0.10984l-0.05016,-0.04548c-0.96431,-1.54289 -1.7407,-2.94818 -2.10292,-4.39788c-1.84413,-0.32193 -3.46752,2.81941 -4.37295,4.02665c-1.39685,1.8385 -1.92886,4.97395 0.45767,6.36085c0.9858,0.57288 2.05095,0.28274 3.08305,0.615c1.41083,0.45419 3.15409,0.93161 4.5647,0.02285c0.82485,-0.72263 2.582,-1.32943 3.09888,-2.00559c0.13003,-0.1701 0.24368,-0.3324 0.34195,-0.4872c-0.0244,-0.10001 -0.02816,-0.21809 -0.00033,-0.35724zM282.33628,160.07683c-0.77703,-4.79982 -2.84062,-8.53607 -5.69354,-12.33997c-2.4765,-3.3187 -7.52819,-6.14674 -9.09291,-9.99632c-0.84522,-2.07943 0.68735,-6.10114 1.16433,-8.07086c1.03519,-2.49397 -3.02894,-0.01419 -4.30481,0.6224c-3.15895,1.57614 -5.58323,4.25528 -8.44305,6.24578l0.04311,0.03233l-0.49476,0.65968c-0.13648,0.18613 -0.35674,0.30698 -0.60524,0.30698c-0.41421,0 -0.75,-0.33579 -0.75,-0.75c0,-0.10448 0.02136,-0.20397 0.05996,-0.29434l0.28702,-0.71755c0.01525,-2.44411 1.54697,-5.41244 2.74176,-7.50867c0.94854,-1.89598 1.8291,-3.83047 3.04548,-5.57427c0.06514,-0.09338 0.57175,-0.89851 1.03624,-1.36491c-0.16131,0.02702 -0.3167,0.04331 -0.42046,0.04307c-0.91158,-0.00209 -1.74735,0.16667 -2.66667,0.16667c-2.17152,0 -3.99871,0.78823 -6.1014,1.1299c-2.91592,1.48507 -5.56982,2.67693 -8.07387,4.85335c-2.08326,1.8107 -3.70262,4.20915 -5.9042,5.85394l0.1098,0.1098l-0.66667,0.66667c-0.13572,0.13572 -0.32322,0.21967 -0.53033,0.21967c-0.41421,0 -0.75,-0.33579 -0.75,-0.75c0,-0.05572 0.00608,-0.11002 0.0176,-0.16227l0.1527,-0.76352c-0.00167,-1.41745 -0.19514,-2.86856 -0.64518,-4.21504c-0.21106,-1.06662 -1.01061,-5.91957 -2.13083,-6.13338c-0.54681,-0.10437 -1.78163,0.40993 -2.34242,0.51193c-3.18105,0.57857 -6.84922,1.29451 -9.43443,3.24945c-2.35036,0.94014 -4.19194,2.90645 -6.28229,4.3019c-3.17322,2.11834 -5.86286,4.04931 -8.55483,6.74128c-2.52038,2.50971 -4.96827,6.05869 -6.53266,9.15108c-1.08769,2.15007 -2.92594,3.86101 -3.81349,6.12583c-2.55543,5.08594 -3.53451,9.61973 -4.63274,15.09396c2.29358,0.53699 4.47838,1.41849 6.23097,2.63649c0.13186,-0.32282 0.26578,-0.65231 0.40095,-0.99023l0.28572,-0.71428c0,0 0.27854,-0.69636 0.9749,-0.41782c0.69636,0.27855 0.41782,0.9749 0.41782,0.9749l-0.28572,0.71428c-1.47183,3.6796 -2.8035,6.22618 -2.8035,10.29289c0,3.65963 0.14801,7.90938 1.40475,11.52348c0.16332,0.10328 0.30954,0.28822 0.30954,0.61938c0,0.06052 -0.00489,0.11615 -0.01386,0.16729c0.47414,1.16918 1.07886,2.25801 1.84951,3.22134c0,0 0.46851,0.58565 -0.11714,1.05417c-0.58565,0.46852 -1.05417,-0.11713 -1.05417,-0.11713c-0.87922,-1.09903 -1.56167,-2.34156 -2.09067,-3.6735c-0.36518,-0.13936 -0.74636,-0.24024 -1.13119,-0.31112c0.03103,0.03934 0.0471,0.06612 0.0471,0.06612c2.66414,4.45099 5.69969,8.99542 9.88721,12.18888c0.74955,1.01647 1.71854,1.23936 2.71587,1.9042c4.35744,2.90475 8.87541,4.67484 14.12256,5.57054c5.9274,2.3421 12.8192,2.30559 19.13124,2.30559c6.22007,0 12.0916,-2.09664 18.11962,-3.30224c3.14499,-1.27184 6.26847,-2.01033 9.13418,-3.90722c2.55021,-1.68805 4.30117,-4.43357 6.7548,-6.27379c3.37841,-3.39277 7.4851,-8.04782 8.01713,-13.12493c-0.18004,0.09033 -0.36015,0.18054 -0.54032,0.27063l-0.79098,0.21452c-0.0949,0.5198 -0.1554,1.03147 -0.14454,1.52589l-0.37119,0.68184c0,0 -0.53033,0.53033 -1.06066,0c-0.41755,-0.41754 -0.1776,-0.83509 -0.05666,-0.9938c0.09638,-1.66715 0.73253,-3.37962 0.90124,-5.06498c0.34641,-3.46051 -0.39218,-7.26763 -1.06061,-10.60977c0,-5.19682 -4.64658,-8.96389 -4.70062,-13.86178c0,0 0,-0.75 0.75,-0.75c0.75,0 0.75,0.75 0.75,0.75c-0.0097,0.63879 0.1335,1.2793 0.36663,1.91204c1.24663,-0.59777 2.5795,-1.12976 3.96488,-1.59251zM191.09565,168.85563c-0.10306,-0.02061 -0.18879,-0.05278 -0.26002,-0.09286c-2.39129,-0.43867 -4.84621,-0.49356 -6.86219,-0.17476c-5.68667,2.90587 -4.82883,9.10192 -1.28021,13.59949c0.23333,-0.56295 0.48624,-1.1148 0.80497,-1.64601c2.36238,-5.90596 7.85046,-6.81087 13.47472,-6.8443c0.24318,-0.69932 0.5154,-1.39766 0.80592,-2.11798c-1.67912,-1.30616 -3.98766,-2.20601 -6.40088,-2.7101c-0.08279,0.01057 -0.17645,0.00768 -0.28231,-0.01349zM285.24274,185.20353c0.19795,0 0.34365,0.05224 0.4509,0.12915c3.99034,-3.16648 7.54825,-7.15031 10.62064,-11.23421c0.06895,-0.13934 0.1365,-0.27708 0.20267,-0.41335c-0.51871,-0.56216 -0.7949,-1.1641 -1.34501,-1.69774c-3.1731,-3.1731 -6.41466,-4.24461 -10.89824,-4.24461c-0.88151,0 -1.86347,-0.15982 -2.71291,0.07137c0.75615,1.87969 1.24335,4.14255 1.24335,5.99106c0.68914,3.4457 1.41681,7.34031 1.06061,10.90538c-0.06564,0.65697 -0.22031,1.33645 -0.38367,2.01865c0.33697,-0.16819 0.67418,-0.33591 1.01167,-0.50306v-0.27265c0,0 0,-0.75 0.75,-0.75zM296.23258,170.92673c0.40316,0.41215 0.65908,0.84911 0.97622,1.26726c1.24291,-2.83132 1.81749,-5.19108 1.85059,-8.59406c0.01515,-1.55676 -1.71367,-3.98933 -3.35715,-3.89286c-5.42388,-0.02418 -11.74714,1.32655 -16.59843,3.65935c0.57311,1.06867 1.27902,2.0932 1.78959,3.02405c0.00907,0.01653 0.01811,0.03313 0.02713,0.04978c5.08385,-1.98269 11.80162,0.97608 15.31203,4.48649zM184.84197,181.20805c-0.471,0.78501 -0.79126,1.61243 -1.12432,2.45711c2.98351,3.86295 8.08197,6.55743 12.86145,7.32697c0.15607,0.02675 0.31181,0.05713 0.46678,0.09143c-1.03572,-3.55463 -1.19722,-7.5399 -1.19722,-11.06592c0,-1.81214 0.24877,-3.35108 0.65281,-4.81671c-4.92486,0.06131 -9.57149,0.78712 -11.65949,6.00712z" fill="#000000" stroke-width="0.5"/><path d="M285.2213,185.24869c-0.75,0 -0.70549,0.66047 -0.70549,0.66047l-0.04557,0.36166c-0.33749,0.16715 -0.6774,0.3334 -1.01437,0.5016c0.16336,-0.6822 0.31485,-1.36371 0.38049,-2.02068c0.3562,-3.56507 -0.38697,-7.5248 -1.07611,-10.97049c0,-1.84851 -0.47445,-4.12653 -1.2306,-6.00623c0.84944,-0.23119 1.84006,-0.07691 2.72157,-0.07691c4.48358,0 7.78569,1.08376 10.95879,4.25686c0.55011,0.53364 0.83346,1.14668 1.35217,1.70884c-0.06617,0.13627 -0.13298,0.27567 -0.20193,0.41501c-3.07239,4.0839 -6.69531,8.13362 -10.68565,11.3001c-0.10725,-0.07691 -0.25536,-0.13021 -0.45331,-0.13021z" data-paper-data="{&quot;noHover&quot;:false,&quot;origItem&quot;:[&quot;Path&quot;,{&quot;applyMatrix&quot;:true,&quot;segments&quot;:[[[570.48547,370.40706],[0,0],[0.3959,0]],[[571.38727,370.66536],[-0.2145,-0.15382],[7.98068,-6.33296]],[[592.62855,348.19694],[-6.14478,8.1678],[0.1379,-0.27868]],[[593.03389,347.37024],[-0.13234,0.27254],[-1.03742,-1.12432]],[[590.34387,343.97476],[1.10022,1.06728],[-6.3462,-6.3462]],[[568.54739,335.48554],[8.96716,0],[-1.76302,0]],[[563.12157,335.62828],[1.69888,-0.46238],[1.5123,3.75938]],[[565.60827,347.6104],[0,-3.69702],[1.37828,6.8914]],[[567.72949,369.42116],[0.7124,-7.13014],[-0.13128,1.31394]],[[566.96215,373.45846],[0.32672,-1.3644],[0.67394,-0.33638]],[[568.98549,372.45234],[-0.67498,0.3343],[0,0]],[568.98549,371.90704],[[570.48549,370.40704],[-1.5,0],[0,0]]],&quot;closed&quot;:true,&quot;fillColor&quot;:[0,0,0,1]}]}" fill="#ee4036" stroke-width="0.5"/><path d="M184.79477,181.19157c2.088,-5.22 6.81235,-5.96893 11.73721,-6.03024c-0.40404,1.46563 -0.63992,3.01936 -0.63992,4.8315c0,3.52602 0.15023,7.5744 1.18595,11.12903c-0.15497,-0.0343 -0.31187,-0.06374 -0.46794,-0.09049c-4.77948,-0.76954 -9.95877,-3.49935 -12.94228,-7.3623c0.33306,-0.84468 0.65596,-1.6925 1.12696,-2.47751z" data-paper-data="{&quot;noHover&quot;:false,&quot;origItem&quot;:[&quot;Path&quot;,{&quot;applyMatrix&quot;:true,&quot;segments&quot;:[[[369.68393,362.4161],[0,0],[-0.942,1.57002]],[[367.43529,367.33032],[0.66612,-1.68936],[5.96702,7.7259]],[[393.15819,381.98426],[-9.55896,-1.53908],[0.31214,0.0535]],[[394.09175,382.16712],[-0.30994,-0.0686],[-2.07144,-7.10926]],[[391.69731,360.03528],[0,7.05204],[0,-3.62428]],[[393.00293,350.40186],[-0.80808,2.93126],[-9.84972,0.12262]],[[369.68395,362.4161],[4.176,-10.44],[0,0]]],&quot;closed&quot;:true,&quot;fillColor&quot;:[0,0,0,1]}]}" fill="#ee4036" stroke-width="0.5"/><path d="M240.23008,169.89606c0,0.75 -0.75,0.75 -0.75,0.75h-0.32106c-0.743,1.81723 -2.17405,3.77035 -3.38465,5.29692c-0.12146,0.15316 -0.95072,1.1459 -1.42638,1.64432c0.49874,-0.1198 1.40227,-0.04512 1.61443,-0.11876c0.98887,-0.34324 2.21112,-0.7213 2.93626,-1.46662c2.0517,-1.04826 3.72342,-2.30855 5.33677,-3.9219l0.57143,-0.57143l0.23245,0.23244l0.73642,-0.31054c-0.02847,0.26127 -0.06936,0.51669 -0.12121,0.76709l0.3535,0.17675l-0.42857,0.85715l-0.17716,-0.08858c-0.56045,1.72118 -1.59465,3.23637 -2.56483,4.85333c-0.30204,0.50341 -0.56151,1.03117 -0.84281,1.54646c-0.11298,0.20696 -0.51991,0.5516 -0.73815,0.72407c0.56162,-0.32346 1.8693,-0.12101 2.3664,-0.12069c1.96603,0.00127 4.09811,-0.09216 6.03467,-0.42073c4.99907,-0.62185 9.57194,-2.93526 13.50377,-5.99186c1.25055,-0.97217 1.98379,-2.40421 3.17584,-3.44456c2.69967,2.37857 2.45094,5.62355 4.20942,8.49856c1.64265,2.68562 2.93709,6.01613 2.96916,9.25144c0,6.87254 -1.20044,11.79681 -6.21967,16.81605c-4.47053,4.47054 -11.71517,5.64114 -17.70998,6.49784c-6.37162,0.90991 -13.15834,1.60951 -19.39308,-0.47812c-5.952,-2.976 -11.66384,-4.21324 -16.04305,-9.69332c-3.37318,-5.62196 -7.13555,-11.66193 -2.98519,-17.87688c4.29728,-5.15937 9.69088,-9.04897 15.91442,-11.54123c3.83068,-1.27838 7.9093,-2.60589 11.97225,-2.61719h0.42857c0,0 0.75,0 0.75,0.75zM237.48723,170.70975c-3.36322,0.27699 -6.72934,1.40903 -9.89204,2.46197c-5.9476,2.37591 -11.11998,6.1029 -15.22844,11.03019c-3.69421,5.55188 0.01405,11.12184 3.01482,16.12312c4.18033,5.21834 9.71108,6.32661 15.38552,9.16383c5.96994,1.97922 12.51242,1.24997 18.60692,0.37902c5.65285,-0.80726 12.6384,-1.85053 16.86145,-6.07358c4.74575,-4.74576 5.78033,-9.27219 5.78033,-15.75538c0.05878,-4.47303 -2.85621,-8.13163 -4.10935,-12.20692c-0.29834,-0.9702 -1.43645,-2.5821 -1.57056,-3.66008c-0.19036,1.58739 -2.62696,2.77621 -3.67995,3.60101c-3.71086,2.90668 -8.06491,4.84432 -12.78195,5.43672c-2.40224,0.3939 -4.9589,0.44296 -7.3939,0.43642c-0.81579,-0.00219 -2.18623,0.10401 -2.69291,-0.74871c-0.23029,-0.38757 0.66272,-1.65469 0.8926,-2.07649c0.31337,-0.575 0.85083,-1.79835 1.47829,-3.006c-0.74502,0.52052 -1.5325,0.99014 -2.3823,1.40391c-1.01791,0.99364 -5.98905,3.21697 -7.11574,1.28533c-0.2268,-0.38884 0.63788,-1.71758 0.89122,-2.13677c1.16852,-1.93349 2.92208,-3.6156 3.93599,-5.65758z" fill="#000000" stroke-width="0.5"/><path d="M237.49687,170.75883c-1.01391,2.04198 -2.75308,3.71888 -3.9216,5.65237c-0.25334,0.41919 -1.17116,1.66343 -0.94436,2.05227c1.12669,1.93164 6.12091,-0.30068 7.13882,-1.29432c0.8498,-0.41377 1.64579,-0.88369 2.39081,-1.40421c-0.62746,1.20765 -1.1643,2.53084 -1.47767,3.10584c-0.22988,0.4218 -1.13417,1.58969 -0.90388,1.97726c0.50668,0.85272 1.89111,0.74618 2.7069,0.74837c2.435,0.00654 5.01906,-0.03024 7.4213,-0.42414c4.71704,-0.5924 9.07877,-2.52145 12.78963,-5.42813c1.05299,-0.8248 3.48881,-2.0147 3.67917,-3.60209c0.13411,1.07798 1.2757,2.69523 1.57404,3.66543c1.25314,4.07529 4.17436,7.75402 4.11558,12.22705c0,6.48319 -1.04014,11.03729 -5.78589,15.78305c-4.22305,4.22305 -11.23365,5.2892 -16.8865,6.09646c-6.0945,0.87095 -12.68086,1.59751 -18.6508,-0.38171c-5.67444,-2.83722 -11.22742,-3.97168 -15.40775,-9.19002c-3.00077,-5.00128 -6.7109,-10.59949 -3.01669,-16.15137c4.10846,-4.92729 9.29869,-8.6826 15.24629,-11.05851c3.1627,-1.05294 6.55011,-2.19476 9.91333,-2.47175z" data-paper-data="{&quot;noHover&quot;:false,&quot;origItem&quot;:[&quot;Path&quot;,{&quot;applyMatrix&quot;:true,&quot;segments&quot;:[[[237.48722,170.70975],[0,0],[-3.36322,0.27699]],[[227.59518,173.17172],[3.1627,-1.05294],[-5.9476,2.37591]],[[212.36674,184.20191],[4.10846,-4.92729],[-3.69421,5.55188]],[[215.38156,200.32503],[-3.00077,-5.00128],[4.18033,5.21834]],[[230.76708,209.48886],[-5.67444,-2.83722],[5.96994,1.97922]],[[249.374,209.86788],[-6.0945,0.87095],[5.65285,-0.80726]],[[266.23545,203.7943],[-4.22305,4.22305],[4.74575,-4.74576]],[[272.01578,188.03892],[0,6.48319],[0.05878,-4.47303]],[[267.90643,175.832],[1.25314,4.07529],[-0.29834,-0.9702]],[[266.33587,172.17192],[0.13411,1.07798],[-0.19036,1.58739]],[[262.65592,175.77293],[1.05299,-0.8248],[-3.71086,2.90668]],[[249.87397,181.20965],[4.71704,-0.5924],[-2.40224,0.3939]],[[242.48007,181.64607],[2.435,0.00654],[-0.81579,-0.00219]],[[239.78716,180.89736],[0.50668,0.85272],[-0.23029,-0.38757]],[[240.67976,178.82087],[-0.22988,0.4218],[0.31337,-0.575]],[[242.15805,175.81487],[-0.62746,1.20765],[-0.74502,0.52052]],[[239.77575,177.21878],[0.8498,-0.41377],[-1.01791,0.99364]],[[232.66001,178.50411],[1.12669,1.93164],[-0.2268,-0.38884]],[[233.55123,176.36734],[-0.25334,0.41919],[1.16852,-1.93349]],[[237.48722,170.70976],[-1.01391,2.04198],[0,0]]],&quot;closed&quot;:true,&quot;fillColor&quot;:[0,0,0,1]}]}" fill="#e6e7e8" stroke-width="0.5"/></g><path d="M229.58093,189.39277c-0.22198,0.23496 -0.56794,0.23496 -0.56794,0.23496c-2.12378,0 -4.21129,0.05024 -6.31861,-0.23019l-0.08463,-0.06874l-0.01465,0.0342l-0.6984,-0.29932c-0.27576,-0.11084 -0.47044,-0.38076 -0.47044,-0.69617c0,-0.3154 0.19468,-0.58533 0.47044,-0.69617l0.6984,-0.29931l0.08577,0.20014c2.75704,-1.33005 6.68183,-1.03008 9.7339,-0.98107c0.30659,-0.19338 0.57757,-0.10337 0.75082,0.006h0.74535c0.41422,0 0.75,0.33578 0.75,0.75c0,0.23361 -0.10681,0.44228 -0.27426,0.57983l-0.60784,0.50654l-0.12557,-0.15069c-1.35269,0.86199 -2.70482,1.26526 -4.07234,1.10997z" fill="#000000" stroke-width="0.5"/><path d="M250.77319,201.85818c-0.1233,0.73979 -0.8631,0.6165 -0.8631,0.6165l-0.58197,-0.09763c-5.0189,-0.63689 -9.88889,0.43922 -14.74428,1.51855c0,0 -0.73214,0.1627 -0.89484,-0.56944c-0.1627,-0.73214 0.56945,-0.89484 0.56945,-0.89484c5.03173,-1.1178 10.05736,-2.18368 15.25572,-1.54268l0.64252,0.10646c0,0 0.7398,0.1233 0.6165,0.86309z" fill="#000000" stroke-width="0.5"/><path d="M227.26761,179.41287c0.68936,0.29544 0.39392,0.98479 0.39392,0.98479l-0.34187,0.78666c-1.67983,2.3605 -4.74309,3.74502 -7.51253,4.44142c0,0 -0.72761,0.1819 -0.90951,-0.5457c-0.1819,-0.72761 0.54571,-0.9095 0.54571,-0.9095c2.31926,-0.57608 5.14648,-1.74038 6.5691,-3.72184l0.27038,-0.64191c0,0 0.29543,-0.68936 0.98479,-0.39391z" fill="#000000" stroke-width="0.5"/><path d="M258.5673,189.28343c-0.22165,0.24227 -0.57473,0.24226 -0.57473,0.24226c-1.4608,0 -2.92071,0.05251 -4.37364,-0.10721l-0.00488,-0.00239l-0.00022,0.00177l-0.80645,-0.10081c-0.37508,-0.04137 -0.66684,-0.35934 -0.66684,-0.74544c0,-0.2994 0.17544,-0.55782 0.42912,-0.67808l0.80179,-0.4009l0.12364,0.24729c2.69274,-1.37212 5.95206,-0.22411 9.03388,-0.22298l0.04418,0.02226l0.00223,-0.01791l0.80646,0.10081c0.37508,0.04137 0.66684,0.35934 0.66684,0.74544c0,0.3277 -0.21016,0.60631 -0.50305,0.7084l-0.79993,0.29997l-0.09689,-0.25837c-1.34798,0.54936 -2.67827,0.39401 -4.08152,0.1659z" fill="#000000" stroke-width="0.5"/><path d="M216.30635,194.26038c0.75,0 0.75,0.75 0.75,0.75v0.375c-0.00745,2.73468 2.46829,0.45762 1.14486,-0.42383c0,0 -0.57617,-0.48013 -0.09603,-1.0563c0.48014,-0.57617 1.05631,-0.09603 1.05631,-0.09603c2.6601,2.4751 -1.20814,6.15089 -3.30033,3.81339c-0.3878,-0.43327 -0.30356,-1.72008 -0.30481,-2.23722v-0.375c0,0 0,-0.75 0.75,-0.75z" fill="#000000" stroke-width="0.5"/></g></g></svg>