<svg version="1.1" xmlns="http://www.w3.org/2000/svg" xmlns:xlink="http://www.w3.org/1999/xlink" width="125.61178" height="157.54801" viewBox="0,0,125.61178,157.54801"><defs><linearGradient x1="199.26281" y1="134.56392" x2="198.13906" y2="181.93181" gradientUnits="userSpaceOnUse" id="color-1"><stop offset="0" stop-color="#cc2981"/><stop offset="1" stop-color="#a92292"/></linearGradient><linearGradient x1="306.28112" y1="146.87633" x2="293.74138" y2="192.4453" gradientUnits="userSpaceOnUse" id="color-2"><stop offset="0" stop-color="#cc2981"/><stop offset="1" stop-color="#a92292"/></linearGradient><radialGradient cx="233.6557" cy="191.01899" r="4.91855" gradientUnits="userSpaceOnUse" id="color-3"><stop offset="0" stop-color="#54606d"/><stop offset="1" stop-color="#2c3136"/></radialGradient><linearGradient x1="279.40136" y1="213.14454" x2="279.40136" y2="237.25755" gradientUnits="userSpaceOnUse" id="color-4"><stop offset="0" stop-color="#9966ff"/><stop offset="1" stop-color="#66ebff"/></linearGradient><linearGradient x1="309.62405" y1="208.89782" x2="309.62405" y2="237.33108" gradientUnits="userSpaceOnUse" id="color-5"><stop offset="0" stop-color="#9966ff"/><stop offset="1" stop-color="#66ebff"/></linearGradient></defs><g transform="translate(-187.87643,-80.90117)"><g data-paper-data="{&quot;isPaintingLayer&quot;:true}" fill-rule="nonzero" stroke-miterlimit="10" stroke-dasharray="" stroke-dashoffset="0" style="mix-blend-mode: normal"><path d="M241.0857,210.239v0v0v0v0v0c-1.71988,0.68757 -5.16793,1.44805 -6.28581,1.24842c0,0 -4.33813,-0.97934 -4.35092,-3.40621c-0.00587,-1.037 0.56575,-1.82227 1.56712,-2.40886c-0.07917,-0.4092 -0.11265,-1.01905 0.27524,-1.51842c0.64202,-0.82918 2.30186,0.6038 2.30186,0.6038l-0.01646,0.0093c0.31158,-0.0633 0.62507,-0.12157 0.9632,-0.17104c1.91344,-0.27374 4.8027,-0.12906 6.3757,-0.11944c0,0 1.36588,-0.02943 2.12208,1.3745c0.80471,1.49344 -1.23214,3.70039 -2.95201,4.38795z" data-paper-data="{&quot;index&quot;:null}" fill="#be1e2d" stroke="#231f20" stroke-width="0.78672" stroke-linecap="round" stroke-linejoin="round"/><g data-paper-data="{&quot;index&quot;:null}" stroke="#000000" stroke-width="0.90024" stroke-linecap="round" stroke-linejoin="miter"><path d="M284.19828,163.11581c0,0 5.09661,-12.73911 5.40712,-13.36754c0.31045,-0.62831 2.28843,-6.27399 11.75745,-11.38547c0,0 3.55292,31.81114 -9.09167,43.95829c-0.00029,-0.00086 -1.43032,-8.95352 -8.0729,-19.20527zM284.33675,163.33242c-0.53033,-0.85454 -1.73693,-2.2663 -1.73693,-2.2663M292.31945,184.84095c0,0 0.09554,-1.62116 -0.04857,-2.52073" fill="#be1e2d"/><path d="M296.65299,175.53286c0,0 -1.89602,-0.64822 -3.38912,-4.49747c-0.92993,-2.38634 -1.39449,-7.1837 -1.39449,-7.1837l-0.03547,0.17126c0.38888,-1.01808 0.76901,-2.1808 1.05435,-3.40881c0.48454,-2.07795 0.86258,-5.06809 1.14984,-7.98481l0.05885,-0.40877c0,0 1.46478,-5.62329 7.48338,-8.44619l0.08516,0.01458c0.20499,4.95711 0.29053,12.30546 -0.55708,17.6531c-0.95061,5.99864 -2.78378,10.76867 -4.53406,14.22264l0.07866,-0.13183v0v0v0v0v0zM290.18318,167.45644c0,0 1.43512,-2.99409 1.68621,-3.60477" fill="#929497"/></g><g data-paper-data="{&quot;index&quot;:null}" stroke="#000000" stroke-width="0.90024" stroke-linecap="round" stroke-linejoin="miter"><path d="M202.55993,172.9762c-8.944,-15.26931 2.89412,-44.85432 2.89412,-44.85432c7.75286,7.60332 8.16053,13.59406 8.29327,14.28566c0.13268,0.69168 1.6613,14.38992 1.6613,14.38992c-9.10339,7.97465 -12.8487,16.17874 -12.8487,16.17874zM217.48719,155.27996c0,0 -1.53413,1.01534 -2.2703,1.68674M202.55993,172.9762c-0.37681,0.82416 -0.71402,2.41041 -0.71402,2.41041" fill="#be1e2d"/><path d="M200.18318,165.35444c-0.7684,-3.8191 -1.26789,-8.9261 -0.59538,-14.96462c0.5998,-5.3839 2.62818,-12.42601 4.13755,-17.13522l0.08585,0.01021c5.04105,4.42381 4.96088,10.24614 4.96088,10.24614l-0.05162,0.4098c-0.49597,2.88647 -0.9239,5.86946 -1.00801,8.00533c-0.05069,1.26194 0.0071,2.48801 0.11156,3.57745l0.01123,-0.17477c0,0 -1.71677,4.48186 -3.24291,6.5129c-2.45485,3.27829 -4.44995,3.36364 -4.44995,3.36364zM207.83522,155.32875c0.0798,0.65854 0.66735,3.94518 0.66735,3.94518" fill="#929497"/></g><path d="M207.6661,134.88627c0,0 7.77488,-39.09302 54.21193,-32.88503c31.86501,4.25991 38.05959,44.67903 38.05959,44.67903" data-paper-data="{&quot;index&quot;:null}" fill="none" stroke="#000000" stroke-width="7" stroke-linecap="round" stroke-linejoin="miter"/><path d="M252.83981,217.98137c1.54723,-0.37063 3.39198,0.19477 3.39198,0.19477c0,0 0.54888,5.25503 0.70122,7.15384c0.15317,1.90161 0.93815,4.90648 0.93815,4.90648c0,0 0.46007,0.32242 0.28512,1.08521c-0.17847,0.76075 -1.82085,0.81624 -3.89214,1.10209c-2.06752,0.2814 -3.72231,-0.15619 -4.00369,-0.9324c-0.28421,-0.77271 0.33987,-1.0895 0.33987,-1.0895c0,0 1.28668,-6.16458 0.53313,-8.35465c0.00415,0.0048 -0.26631,-3.59349 1.70637,-4.06583z" data-paper-data="{&quot;index&quot;:null}" fill="#be1e2d" stroke="#231f20" stroke-width="0.90024" stroke-linecap="round" stroke-linejoin="round"/><path d="M246.24529,218.18833v0v0v0v0v0c2.67471,1.46078 2.82686,4.08949 2.82759,4.09226c-0.6639,2.21462 0.79573,7.53198 0.79573,7.53198c0,0 0.63761,0.28512 0.39089,1.07027c-0.25043,0.78676 -1.88126,1.30156 -3.96332,1.11353c-2.07845,-0.18976 -3.72069,-0.1698 -3.93177,-0.92461c-0.21108,-0.75482 0.23614,-1.09637 0.23614,-1.09637c0,0 0.14385,-1.77953 0.21338,-3.6866c0.06737,-1.90173 0.04597,-7.13377 0.04597,-7.13377c0,0 1.63311,-1.92416 3.3854,-0.96669z" data-paper-data="{&quot;index&quot;:null}" fill="#be1e2d" stroke="#231f20" stroke-width="0.90024" stroke-linecap="round" stroke-linejoin="round"/><g data-paper-data="{&quot;index&quot;:null}" stroke-width="0.90024"><path d="M257.1326,211.12465v0v0v0v0v0c0.14407,2.86564 -0.98508,8.00524 -4.28082,9.52344c-3.25947,1.49796 -6.51824,0.93253 -9.69814,-1.80573c-2.63458,-2.26947 -2.0426,-7.95775 -1.45446,-11.11488v0c0,0 0.69813,-7.36916 6.77379,-7.68575c6.0738,-0.31667 8.33495,5.61386 8.47306,9.18801c0.08845,0.63548 0.15459,1.28159 0.18658,1.89491z" fill="#be1e2d" stroke="#000000" stroke-linecap="butt" stroke-linejoin="miter"/><path d="M254.73456,219.05912v0v0v0v0v0l-0.0282,0.14286c-0.52019,0.61204 -1.1363,1.11385 -1.85353,1.44437c-3.01918,1.38783 -6.03649,1.00573 -8.99226,-1.23488l-0.01906,-0.14844c0,0 -0.7961,-9.53807 5.01519,-9.38682c6.59853,0.17491 6.06348,7.6189 5.87787,9.18293z" fill="#e6e7e8" stroke="#231f20" stroke-linecap="round" stroke-linejoin="round"/></g><g data-paper-data="{&quot;index&quot;:null}" stroke="#000000" stroke-linecap="butt" stroke-linejoin="miter"><g><g stroke-width="0.4"><path d="M274.53786,234.73871l-0.04266,-0.00739c-1.41167,-0.1995 -3.19616,-0.96853 -3.83052,-1.63214l-0.10401,0.09267l-1.09536,-0.5264l0.31503,-0.23969c0.03501,-0.02803 3.52406,-2.71778 3.81976,-5.92379l0.03035,-0.32977l0.2933,0.13311c0.15593,0.07183 0.51155,0.25915 0.60941,0.52008l0.04269,0.02177c1.62667,0.83715 3.17718,0.89391 3.61404,0.891l0.23601,0.00606c0.10757,0.03669 0.43404,0.14662 0.4479,0.44067c0.01386,0.296 -0.321,0.4726 -0.50568,0.53898c-0.08881,0.00441 -0.17857,0.00692 -0.2702,0.00754c-1.30952,0.00871 -2.89341,-0.34868 -3.64955,-0.7988c-0.03325,0.16119 -0.08112,0.34834 -0.14835,0.55672c1.58098,0.77998 3.06486,0.83139 3.49056,0.82856l0.23883,0.00801c0.10664,0.03664 0.43312,0.14662 0.44697,0.44062c0.01386,0.29601 -0.32006,0.4726 -0.50474,0.53898c-0.08787,0.00444 -0.17857,0.00692 -0.2702,0.00754c-1.4141,0.00941 -3.14738,-0.40732 -3.79537,-0.88019c-0.08687,0.16729 -0.18114,0.33464 -0.28285,0.5001c1.7824,1.03256 3.48924,1.06718 3.58929,1.08567c0.10394,0.04434 0.42221,0.17829 0.41478,0.47443c-0.00739,0.29609 -0.35352,0.44407 -0.54295,0.49609c-1.48196,-0.04283 -3.42927,-0.6498 -4.03906,-1.22928c-0.13772,0.1753 -0.28934,0.35644 -0.45292,0.53862c1.67797,1.05143 3.29559,1.18152 3.39199,1.20482c0.10211,0.05105 0.41216,0.20518 0.38994,0.49948c-0.02409,0.29336 -0.37682,0.42314 -0.56906,0.46369c-1.42415,-0.12275 -3.25156,-0.79377 -3.92376,-1.44082c-0.13804,0.13023 -0.28251,0.26153 -0.4353,0.39572c1.60522,1.11513 3.18453,1.33364 3.28002,1.36268c0.09846,0.0559 0.39939,0.22539 0.3614,0.51792c-0.03892,0.29345 -0.39825,0.40315 -0.50822,0.42976z" fill="#871212"/><path d="M273.83066,226.52725c-0.30867,3.35366 -3.91309,6.09307 -3.91309,6.09307l0.60521,0.29201l0.17123,-0.15251c0.00656,0.01337 0.00754,0.02007 0.01499,0.03536c0.29775,0.55182 2.2591,1.48065 3.81713,1.70408c0,0 0.68572,-0.16554 0.08758,-0.50363c0,0 -1.79224,-0.23146 -3.55153,-1.55732c0.30664,-0.25692 0.58273,-0.50692 0.83289,-0.75386c0.01034,0.02006 0.01412,0.03533 0.02815,0.05825c0.32539,0.53538 2.33232,1.35271 3.90001,1.48793c0,0 0.67526,-0.20473 0.0607,-0.50919c0,0 -1.81847,-0.12967 -3.65405,-1.37554c0.31722,-0.33746 0.59191,-0.66408 0.81947,-0.97698c0.01779,0.0353 0.03472,0.07259 0.06647,0.11933c0.35398,0.51598 2.40088,1.21716 3.9745,1.26324c0,0 0.66301,-0.24206 0.03385,-0.50901c0,0 -1.87612,-0.02299 -3.80479,-1.21168c0,0 -0.01388,0.0001 -0.03333,-0.0017c0.23842,-0.35896 0.41954,-0.69551 0.55927,-1.00499c0.01869,0.02959 0.03272,0.05919 0.06165,0.09542c0.36933,0.45745 2.25958,0.96708 3.79306,0.95689c0.0879,-0.00057 0.17491,-0.00309 0.26091,-0.00747c0,0 0.64418,-0.29271 -0.00317,-0.51263c0,0 -0.05829,0.00425 -0.16563,0.00496c-0.49973,0.00331 -2.06144,-0.06298 -3.71691,-0.91425c0,0 -0.00181,0.00002 -0.00554,0.00003c-0.01109,0.00007 -0.03792,0.00213 -0.07029,0.00621c0.17935,-0.48219 0.25464,-0.87552 0.28161,-1.14882c0.00936,0.01336 0.0122,0.02005 0.02245,0.03533c0.36933,0.45745 2.25958,0.96708 3.79306,0.95689c0.0879,-0.00057 0.17491,-0.00309 0.26091,-0.00747c0,0 0.64418,-0.29271 -0.00317,-0.5107c0,0 -0.05735,0.00425 -0.16282,0.00494c-0.4979,0.00331 -2.06148,-0.06297 -3.71879,-0.91616c0,0 0,0 -0.00093,0c-0.01016,0.00007 -0.09897,0.00255 -0.17934,0.03087c-0.00105,-0.01915 -0.00199,-0.02966 -0.00199,-0.02966c0.20024,-0.23899 -0.45967,-0.54119 -0.45967,-0.54119M273.43117,225.82091l0.58656,0.26921c0.20603,0.09441 0.53667,0.27905 0.69017,0.5607c1.57093,0.80012 3.0613,0.85348 3.48235,0.85067c0.08329,-0.00056 0.13142,-0.00469 0.13696,-0.00473l0.08787,-0.00444l0.08439,0.02723c0.48411,0.16351 0.59787,0.44729 0.60751,0.65612c0.0213,0.44924 -0.42427,0.686 -0.56174,0.74824l-0.07845,0.03594l-0.08606,0.00444c-0.09162,0.00441 -0.18505,0.00697 -0.27943,0.00759c-1.14481,0.0076 -2.61429,-0.26336 -3.49888,-0.67618c-0.00542,0.02015 -0.01176,0.04317 -0.01811,0.06526c1.46648,0.67343 2.80962,0.72003 3.20668,0.71739c0.08423,-0.00056 0.13324,-0.00276 0.13971,-0.00281l0.08787,-0.00638l0.08439,0.02723c0.48324,0.16544 0.59696,0.44923 0.6066,0.65806c0.0213,0.44924 -0.42427,0.686 -0.56174,0.74824l-0.07845,0.03594l-0.08606,0.00444c-0.09157,0.00442 -0.18505,0.00697 -0.27943,0.00759c-1.24199,0.00825 -2.86727,-0.31056 -3.71151,-0.78594c-0.01463,0.02409 -0.02834,0.05099 -0.04303,0.07503c1.6464,0.88396 3.16625,0.91791 3.18201,0.91781l0.08791,0.00134l0.08164,0.03493c0.4705,0.199 0.56301,0.49254 0.55783,0.70147c-0.0111,0.44754 -0.47263,0.65086 -0.61297,0.7026l-0.08122,0.03312l-0.0861,-0.00329c-1.30053,-0.03831 -3.15833,-0.53662 -3.99777,-1.13754c-0.04043,0.0491 -0.08175,0.09825 -0.12404,0.14833c1.53347,0.88471 2.94559,0.99991 2.96131,1.00174l0.08707,0.00801l0.0798,0.03875c0.45952,0.22691 0.53543,0.52438 0.51917,0.73434c-0.03608,0.44769 -0.50703,0.62231 -0.65114,0.66641l-0.08221,0.02448l-0.0852,-0.00614c-0.30835,-0.02762 -0.6465,-0.08192 -0.99496,-0.15817l0.04551,0.02556c0.44673,0.25378 0.50783,0.55424 0.4804,0.76047c-0.05829,0.44592 -0.53861,0.59474 -0.68465,0.62924l-0.08316,0.02066l-0.0843,-0.01285c-1.26534,-0.18035 -3.01785,-0.86524 -3.81054,-1.54508l-0.05432,0.04924l-0.27106,-0.13138l-0.60519,-0.29013l-0.70922,-0.34117l0.63006,-0.47944c0.03409,-0.02609 3.44117,-2.6559 3.72644,-5.75356l0.0607,-0.65869zM271.87245,232.3553c-0.01379,0.0135 -0.02762,0.02604 -0.04236,0.03768c1.35843,0.86764 2.62036,1.09116 2.81491,1.12244c-1.06125,-0.25163 -2.18107,-0.6926 -2.77255,-1.16011z" fill="#000000"/></g><path d="M252.13653,209.10771c0,0 5.64621,-0.47636 9.95342,3.84594c4.30721,4.32423 2.71466,8.68577 12.19263,13.61376c0,0 0.75132,2.94993 -3.93067,6.6939c0,0 -8.0635,-4.57807 -10.10142,-10.99272c-2.03791,-6.4128 -7.50019,-9.99444 -10.38953,-9.99631l-3.15227,-0.45429z" fill="#ba2915" stroke-width="0.4"/><g fill="#871212" stroke-width="0.4"><path d="M271.8086,225.19738c0,0 0.24561,3.93925 -4.18136,6.26731l-1.07078,-0.89257c0,0 4.0994,-4.25849 3.93315,-6.29345z"/><path d="M268.43507,222.49488c0,0 -0.25141,3.03514 -4.51601,5.57868l-1.28119,-1.38944c0,0 4.15904,-2.40578 4.70148,-5.52335z"/><path d="M266.12296,219.31963c0,0 -0.96566,3.07729 -5.4326,4.18489l-0.62792,-1.71381c0,0 4.67516,-1.55263 5.46319,-3.57091z"/><path d="M263.8827,215.20486c0,0 -0.77965,2.62668 -5.17965,3.62752l-0.98241,-1.41536c0,0 4.82796,-2.28952 5.33113,-3.38132z"/><path d="M259.4796,210.93971c0.32277,0.11283 1.55123,1.06472 1.55123,1.06472l-5.56197,2.87025l-1.55982,-1.40674c0,0 5.24782,-2.64108 5.57058,-2.52824z"/><path d="M256.09518,209.76836l-4.57977,2.76022l-2.17232,-0.33434l4.56294,-3.08393l2.18916,0.65805"/></g><path d="M270.37405,233.54579l-0.13278,-0.07387c-0.33252,-0.18946 -8.1661,-4.69908 -10.20967,-11.12905c-1.93503,-6.08771 -7.22799,-9.82952 -10.20249,-9.8327l-3.90909,-0.56327l6.19742,-3.07759c0,0 0.16561,-0.01452 0.46269,-0.0165c1.34098,-0.00893 6.00239,0.24752 9.67075,3.92926c1.55334,1.55719 2.36753,3.15283 3.15542,4.695c1.43904,2.81602 2.92772,5.72943 8.98049,8.876l0.09286,0.04821l0.02656,0.1043c0.03318,0.12722 0.73586,3.14645 -4.01245,6.94549l-0.11971,0.09469zM274.07441,226.72594c-6.09754,-3.19509 -7.61243,-6.15915 -9.07768,-9.02673c-0.80667,-1.5775 -1.56834,-3.06901 -3.06864,-4.57484c-3.54073,-3.55327 -8.04848,-3.8021 -9.34505,-3.79348c-0.21564,0.00239 -0.35718,0.01102 -0.36559,0.00146l-4.72107,2.3578l2.36487,0.3426c3.01711,0.00198 8.53051,3.62159 10.60902,10.16155c1.84438,5.80365 8.81444,10.15331 9.86132,10.77872c3.88599,-3.15992 3.80809,-5.71769 3.74282,-6.24712z" fill="#000000" stroke-width="0.4"/><path d="M274.11977,226.74498c0.06528,0.52944 0.12929,3.10695 -3.75671,6.26688c-1.04689,-0.6254 -8.06015,-4.96471 -9.90453,-10.76837c-2.07851,-6.53995 -7.54208,-10.17692 -10.55919,-10.1789l-2.44326,-0.40315l4.73208,-2.36965c0.00841,0.00956 0.15077,0.00029 0.36641,-0.00209c1.29656,-0.00862 5.8403,0.23136 9.38104,3.78463c1.50033,1.50583 2.29317,3.01641 3.09985,4.59391c1.46522,2.86758 2.98676,5.88166 9.0843,9.07677z" data-paper-data="{&quot;noHover&quot;:true,&quot;origItem&quot;:[&quot;Path&quot;,{&quot;applyMatrix&quot;:true,&quot;segments&quot;:[[[431.94081,453.0728],[0,0],[-0.17472,1.03898]],[[439.09485,465.69792],[-7.688,-6.5475],[2.1867,-1.14874]],[[460.07531,445.23676],[-4.22042,11.29778],[4.75612,-12.7311]],[[482.53429,426.05348],[-6.16114,-0.24052],[0,0]],[487.39021,425.56932],[[477.93421,420.53628],[0,0],[-0.01792,0.01816]],[[477.18779,420.50378],[0.44016,0.02218],[-2.64692,-0.12204]],[[457.80819,427.229],[7.5083,-6.72166],[-3.1815,2.84856]],[[451.18397,436.00386],[1.77068,-3.04612],[-3.21644,5.53734]],[[431.94083,453.07286],[12.7013,-5.80806],[0,0]]],&quot;closed&quot;:true,&quot;fillColor&quot;:[0,0,0,1],&quot;strokeColor&quot;:[0,0,0],&quot;strokeWidth&quot;:0.4}]}" fill="#000000" stroke-width="0.2"/></g><g stroke-width="0.4"><path d="M239.08794,203.72439c0.00094,-0.00001 7.09756,-2.98296 16.35415,6.83689c0,0 -5.34549,2.55165 -10.56658,1.44811c-5.22197,-1.10358 -6.90743,-2.47112 -8.80958,-1.31925c0,0 -1.05372,-2.02808 2.34945,-3.48796c0,0 -1.17201,-2.44697 0.67257,-3.47777z" fill="#ba2915"/><g fill="#871212"><path d="M249.10413,205.45432c-2.35181,2.36313 -1.5596,6.83336 -1.5596,6.83336l-0.83291,0.00553c-1.08035,-5.26743 1.62716,-7.287 1.62716,-7.287z"/><path d="M245.3947,203.80224c0,0 -2.34869,1.97216 -1.87014,7.65273l-1.04655,-0.27089c0,0 -0.53702,-4.66455 1.70046,-7.70335z"/><path d="M252.12645,207.48465c-0.83484,0.58812 -1.28449,4.49363 -1.28449,4.49363l-0.59629,0.10077c-0.4805,-2.85594 1.2406,-5.14298 1.2406,-5.14298z"/><path d="M237.77021,210.16524c-0.00093,0 -0.0722,-2.2397 1.33839,-3.26661c0.06191,-0.16331 0.12171,-2.75552 0.71288,-3.38796l1.31844,-0.20714c0,0 -1.32942,1.27073 -1.00858,3.46182c0,0 -1.5855,1.47268 -1.3885,3.39341z"/></g><path d="M235.80412,209.21438c0.2909,-0.84701 1.06575,-1.56502 2.3042,-2.13569c-0.38931,-0.98623 -0.61855,-2.73332 0.89218,-3.57598c0.04337,-0.01755 1.04775,-0.43145 2.78852,-0.44302c3.13083,-0.02082 8.06774,1.23506 13.81869,7.33474l0.22915,0.24278l-0.29802,0.14188c-0.03602,0.01751 -3.64968,1.71922 -7.79477,1.74679c-1.01986,0.00678 -1.99961,-0.0873 -2.91517,-0.2805c-1.76446,-0.37341 -3.13205,-0.77728 -4.23077,-1.10245c-2.13161,-0.6307 -3.2848,-0.92866 -4.41427,-0.24565l-0.20748,0.12496l-0.11331,-0.21866c-0.01499,-0.02868 -0.36073,-0.71045 -0.05894,-1.58918zM236.24277,209.36381c-0.14364,0.41487 -0.10536,0.76817 -0.05219,0.98535c1.1837,-0.59811 2.42022,-0.29303 4.53329,0.33204c1.09036,0.32233 2.44871,0.72437 4.19646,1.09313c0.88315,0.18671 1.83328,0.27811 2.81981,0.27155c3.35477,-0.02231 6.35459,-1.16901 7.29795,-1.56717c-5.53409,-5.76383 -10.25041,-6.96081 -13.24705,-6.94089c-1.62878,0.01084 -2.58983,0.39664 -2.59351,0.39667c-1.33827,0.74761 -0.89245,2.3419 -0.66853,2.93446c0.55786,-0.18958 1.89747,-0.4179 3.76408,0.75586c0,0 -1.94785,-0.99308 -3.96275,-0.1145c-1.11018,0.50946 -1.83834,1.14475 -2.08754,1.85351z" fill="#000000"/></g><g stroke-width="0.4"><path d="M267.10122,206.35318c0.76041,1.43213 -0.68218,1.92085 -0.68218,1.92085c-17.95495,5.44955 -20.07215,-0.16551 -22.43818,-2.78466c-2.36421,-2.61917 -4.89108,-1.76401 -4.89108,-1.76401c-1.41341,-4.06274 2.79592,-6.1172 2.79592,-6.1172l0.00762,1.22734c11.33446,8.94653 21.28754,0.35762 21.28686,0.24649c-0.00069,-0.11118 1.04333,0.34469 1.62841,1.41777c0.58511,1.07303 -0.56614,1.97946 -0.56614,1.97946c-0.16731,1.079 2.09842,2.44178 2.85878,3.87396z" fill="#ba2915"/><g fill="#871212"><path d="M262.0989,199.92753c0,0 1.58149,0.57205 0.78821,3.23138c0,0 0.06677,1.51534 1.23142,2.76567c1.16459,1.25028 1.14149,2.14824 1.34711,2.62594l-1.84807,0.46936c0,0 -0.09723,-1.65406 -0.85449,-2.57656c-0.7572,-0.92244 -0.90345,-2.26573 -0.98305,-2.86595c-0.0796,-0.60023 0.72124,-2.0428 -0.5287,-3.02233z"/><path d="M259.00387,201.68138c-0.01824,-0.24897 0.56542,1.03683 0.38342,2.73108c-0.18198,1.69424 0.80618,2.55291 1.18983,3.67423c0.3836,1.12138 0.43937,1.6049 0.43937,1.6049l-1.34673,0.27628c0,0 -0.65638,-2.42362 -1.21785,-3.41825c-0.56146,-0.99469 -0.25935,-1.9721 -0.26548,-2.96083c-0.00614,-0.98878 -0.30774,-1.4237 -0.30774,-1.4237z"/><path d="M255.39308,202.6626c0.00047,0.07572 0.66662,1.82757 0.29254,3.58635c-0.37413,1.75877 0.6705,3.9565 0.6705,3.9565l-1.29136,0.09674c0,0 -0.79276,-2.02602 -0.61135,-3.81415c0.1814,-1.78814 0.23251,-2.34518 -0.05337,-3.68178z"/><path d="M251.83657,202.83192c0,0 -0.85246,2.52084 -0.11485,4.76181c0,0 -0.6275,1.33506 0.42234,2.72888l-0.69319,0.0046c0,0 -1.01894,-0.89105 -0.74064,-2.57251c0,0 -1.1848,-1.0758 -0.08231,-4.91381l1.20867,-0.00804z"/><path d="M248.02875,202.17791c0,0 -1.74234,2.29775 -0.89577,5.38596c0,0 -0.20907,0.46032 0.20135,1.27589l-1.0075,-0.69183c0,0 -0.23846,-0.54263 -0.17856,-0.73752c0.05985,-0.19491 -1.08438,-1.74045 0.56449,-5.67791z"/><path d="M243.96449,200.31836c0,0 -1.63142,1.22863 -1.20901,4.12042l-1.02544,-0.59206c0,0 -0.0187,-3.01418 1.38261,-4.04108z"/><path d="M241.66268,198.9539c0,0 -2.70794,0.90143 -2.45883,4.36252l-0.01066,0.36993c0,0 -1.93759,-3.22282 2.69212,-5.98815z"/></g><path d="M238.87183,203.80631c-1.46807,-4.21947 2.87102,-6.39364 2.91436,-6.41599l0.32756,-0.16026l0.00921,1.48412c3.3824,2.64305 6.96863,3.97117 10.66303,3.9466c5.78869,-0.03849 9.74609,-3.31679 10.17411,-3.69234l0.01487,-0.14289l0.23136,-0.00153c0.27578,-0.00183 1.25095,0.54168 1.80327,1.55649c0.50177,0.92034 -0.07497,1.7913 -0.52408,2.1986l0.00754,0.02103c-0.00826,0.00676 -0.01751,0.01068 -0.02581,0.01745c0.01974,0.49234 0.67909,1.15676 1.32074,1.80117c0.57835,0.58157 1.17624,1.18215 1.51522,1.81903c0.26409,0.49744 0.31964,0.95504 0.1658,1.36044c-0.2477,0.64936 -0.94863,0.89354 -0.98561,0.90529c-4.9716,1.5086 -9.14444,2.28468 -12.4039,2.30635c-6.05985,0.0403 -8.09496,-2.48812 -9.57982,-4.33419c-0.23686,-0.29354 -0.46074,-0.57279 -0.68811,-0.82326c-1.36894,-1.51629 -2.78596,-1.82786 -3.7327,-1.82155c-0.55709,0.00371 -0.91548,0.12108 -0.91916,0.12207l-0.21242,0.07132l-0.07541,-0.21794zM241.65679,198.00637c-0.91928,0.55611 -3.35322,2.36211 -2.41793,5.43251c0.70612,-0.15226 2.90676,-0.3336 4.91035,1.88557c0.23297,0.25714 0.46238,0.54305 0.70489,0.84418c0.22387,0.27737 0.45701,0.56418 0.70868,0.85285c4.23271,1.41483 8.38245,-0.1027 8.38245,-0.1027c-2.92663,1.74989 -6.62669,1.01084 -7.83085,0.69979c1.43514,1.44112 3.58479,2.7414 7.96216,2.71228c3.21594,-0.02139 7.34626,-0.79048 12.26891,-2.28438c0.00554,-0.00197 0.52822,-0.18751 0.69394,-0.62742c0.10015,-0.2651 0.05281,-0.58481 -0.14102,-0.95048c-0.30526,-0.57384 -0.87802,-1.1497 -1.43216,-1.70561c-0.64536,-0.64916 -1.2554,-1.26883 -1.41557,-1.87335c-1.30582,0.75416 -2.86735,0.71759 -2.86735,0.71759c1.63174,-0.43342 2.45516,-0.92564 2.83923,-1.2233l0.00531,-0.03739l0.0737,-0.058c0.04048,-0.03188 0.98257,-0.79506 0.50512,-1.67149c-0.45125,-0.82962 -1.18496,-1.24248 -1.3695,-1.30547c-0.8839,0.88544 -5.0417,3.79234 -10.44723,3.82829c-3.83043,0.02547 -7.54472,-1.35927 -11.03796,-4.1156l-0.08928,-0.07131l-0.00588,-0.9466z" fill="#000000"/></g></g><g data-paper-data="{&quot;index&quot;:null}" stroke="#000000" stroke-width="0.90024" stroke-linecap="round" stroke-linejoin="round"><path d="M293.90822,184.12495l-0.70502,1.49062c-3.819,7.49649 -8.45446,11.49918 -8.45446,11.49918c0,0 0.31439,-1.38527 0.50474,-3.6512l-0.12222,-0.06248c-0.51062,1.14049 -1.29925,2.5947 -2.5321,4.35801c-2.70429,3.87273 -9.60589,6.52702 -9.60589,6.52702c0,0 0.57353,-1.37696 1.10489,-3.68198l-0.04827,-0.36919c-0.76984,0.47054 -1.5605,0.89237 -2.3574,1.29963c-0.2346,0.1208 -0.46865,0.23789 -0.70577,0.34999c-0.72217,0.34616 -1.4542,0.67075 -2.19697,0.9664c-0.29327,0.11504 -0.59585,0.21795 -0.89196,0.32619c-0.54027,0.19841 -1.0859,0.38134 -1.63833,0.55524c-0.40555,0.12549 -0.81363,0.24984 -1.22739,0.36142c-0.42862,0.11805 -0.86656,0.21735 -1.30263,0.32342c-0.80072,0.18615 -1.61054,0.35196 -2.43546,0.49469c-0.26912,0.04646 -0.53834,0.0929 -0.81128,0.13336c-0.58665,0.08866 -1.17731,0.17304 -1.77623,0.23808l0.00153,0.00203c-3.00726,0.33156 -6.16349,0.39498 -9.50887,0.18238c-3.61919,-0.23096 -6.87099,-0.68427 -9.88593,-1.29209v0c-2.38551,-0.48224 -4.60228,-1.06889 -6.68677,-1.74521c-0.10088,-0.03219 -0.20263,-0.0654 -0.30439,-0.0977c-0.64386,-0.21379 -1.27627,-0.43428 -1.89505,-0.66405c-0.21575,-0.08189 -0.42137,-0.16697 -0.63594,-0.25045c-0.82077,-0.31624 -1.61546,-0.64944 -2.39706,-0.99569c-0.494,-0.21934 -0.98416,-0.44196 -1.46169,-0.67297c-0.28402,-0.13461 -0.56835,-0.27397 -0.84559,-0.41323c-0.75674,-0.3835 -1.50597,-0.77052 -2.22887,-1.17724l-0.14774,0.11434c0.03323,2.16311 0.60504,3.39785 1.10583,4.01508c1.02062,1.25996 3.20915,1.80808 3.20915,1.80808c0,0 -6.90338,0.11574 -9.95165,-5.78083c-0.32383,-0.62677 -0.64866,-1.27489 -0.94875,-1.95937l-0.11842,-0.38459c-0.76953,-0.38043 -1.53864,-0.8537 -2.28472,-1.43164c-4.54661,-3.54507 -4.87418,-6.03154 -4.87418,-6.03154l-0.00298,0.89565c0.19704,2.36056 0.4838,3.87126 0.4838,3.87126c0,0 -5.40065,-4.58701 -7.32396,-10.6724c-1.54999,-4.91194 -1.38165,-7.74584 -1.33928,-8.22023l0.00465,-1.71428c0.66207,-6.63085 1.94381,-13.9995 3.69218,-21.1863l0.0774,-0.18765c1.45543,-5.54235 1.8112,-14.987 10.183,-23.62746c15.68725,-16.1865 29.45622,-13.79423 39.31504,-25.97871c7.25192,-8.96389 7.02013,-20.33725 7.02013,-20.33725c0,0 3.08177,5.95139 4.18837,9.35639c1.06912,3.31742 2.12818,7.55265 2.12818,7.55265l0.05393,-0.02803c0.04814,-0.1134 0.09308,-0.22985 0.13366,-0.34686c0.63024,-1.82278 0.79987,-4.61526 0.79987,-4.61526c0,0 2.2722,11.25828 7.1758,19.07563c4.90052,7.81339 12.96242,10.89786 20.55435,36.48112c0.94536,3.1794 1.85571,5.87001 2.16933,8.76377l0.10091,1.65519c0.31096,5.17173 -1.7138,19.09094 -4.35354,24.87903zM229.58489,151.79858c0,0 -7.66136,6.4346 -8.42548,16.65325c-0.6761,9.0415 1.24345,12.10643 2.37328,12.95667c1.16218,0.87001 3.14562,0.69618 3.14562,0.69618c0,0 -5.82594,2.2992 -9.79848,-2.33875c-2.65734,-3.10043 -5.48387,-7.02306 -5.21248,-17.03345M284.16119,175.21422c0,0 0.54558,2.60816 -2.13422,7.57126c-3.01571,5.59201 -8.11467,6.78939 -8.11467,6.78939c0,0 5.13796,-8.55214 2.75104,-17.51555c-1.04123,-3.91586 -5.29557,-7.27738 -9.84822,-9.849c-6.16925,-3.48694 -12.88548,-5.52176 -12.88548,-5.52176M285.17275,193.30624c-0.50885,1.15542 -1.31056,2.64563 -2.57927,4.45582c-2.70342,3.87285 -9.60502,6.52713 -9.60502,6.52713c0,0 1.66876,-4.01795 1.9535,-9.80743M212.18119,170.20008c-0.81895,1.19491 -1.49495,2.5017 -1.9546,3.91434c-2.87884,8.80599 -0.89611,19.16431 -0.89611,19.16431c0,0 -5.3991,-4.58508 -7.32395,-10.6725c-1.70549,-5.40234 -1.33086,-8.29082 -1.33086,-8.29082M293.19806,185.62135c-3.82075,7.49627 -8.45533,11.49908 -8.45533,11.49908c0,0 1.79688,-7.86889 -0.59703,-16.8341c-0.10787,-0.40529 -0.23722,-0.80232 -0.37828,-1.1898M253.93053,156.68867c0,0 1.12326,0.46709 3.88598,3.38345c2.76281,2.91637 3.56139,5.81505 3.56139,5.81505c0,0 -8.75223,-3.62303 -13.53834,-6.128c-4.78066,-2.50612 -21.09658,-9.42394 -21.09658,-9.42394M220.80557,190.58026c1.97693,4.30202 4.26972,6.79805 4.26972,6.79805c0,0 -6.23035,1.15659 -11.35166,-2.83322c-4.54662,-3.54497 -4.87418,-6.03154 -4.87418,-6.03154M274.04311,200.2396c-7.08221,4.32505 -15.22919,5.84695 -24.84483,5.23542c-11.46394,-0.72915 -19.57501,-3.51292 -26.33866,-7.3083M222.72043,197.61399c-0.08908,2.57849 0.54537,4.00236 1.09585,4.67922c1.0215,1.26007 3.21002,1.80819 3.21002,1.80819c0,0 -6.90512,0.11551 -9.95252,-5.78095c-0.32383,-0.62677 -0.64866,-1.27489 -0.94875,-1.95937M254.55116,157.07498c0,0 24.4087,6.29707 22.73878,20.30023" fill="#be1e2d"/><path d="M281.42509,184.05131c-2.12525,9.9527 -14.56079,19.03051 -31.04388,17.92913c-14.55283,-0.96409 -35.1015,-10.41907 -36.72248,-23.20056c-0.15935,-1.28412 -0.17947,-2.50715 -0.0863,-3.66793l0.28563,0.27733c0.89829,1.80213 1.97159,3.15611 3.02155,4.37847c3.97276,4.63613 9.7987,2.33694 9.7987,2.33694c0,0 -1.98365,0.17563 -3.14583,-0.69438c-1.12983,-0.85025 -3.04938,-3.91518 -2.37328,-12.95667c0.76434,-10.22047 8.42548,-16.65325 8.42548,-16.65325l0.05145,-0.23057c4.90813,2.10701 14.68179,6.34316 18.20168,8.18913c4.786,2.50589 13.53834,6.128 13.53834,6.128c0,0 -0.79858,-2.89867 -3.56139,-5.81505c-1.38306,-1.45881 -2.35371,-2.30432 -2.97807,-2.78575l0.61739,0.18273c0,0 18.75841,5.3662 21.21103,14.59066c2.38593,8.96419 -2.75016,17.51565 -2.75016,17.51565c0,0 4.34202,-1.02115 7.37713,-5.56937z" fill="#e6e7e8"/></g><g data-paper-data="{&quot;index&quot;:null}" stroke-linejoin="miter"><path d="M208.3276,159.27225c-1.70386,13.03102 -4.69621,23.36896 -9.87378,22.64335c-5.17757,-0.72562 -11.54952,-12.37593 -9.84565,-25.40695c1.70386,-13.03102 10.83834,-22.50818 16.0159,-21.78256c5.17757,0.72562 5.40739,11.51513 3.70353,24.54616z" fill="url(#color-1)" stroke="#000000" stroke-width="0.90024" stroke-linecap="butt"/><path d="M199.13105,139.79084l-2.41055,2.57379" fill="none" stroke="#ea42a4" stroke-width="2" stroke-linecap="round"/><path d="M202.65657,147.98845l3.32641,0.08459" fill="none" stroke="#ea42a4" stroke-width="2" stroke-linecap="round"/><path d="M197.00957,154.93931l0.63027,-1.80826" fill="none" stroke="#ea42a4" stroke-width="2" stroke-linecap="round"/><path d="M194.47407,162.78011l1.31202,2.46575" fill="none" stroke="#ea42a4" stroke-width="2" stroke-linecap="round"/><path d="M204.66203,170.74172l-1.56537,-0.0398" fill="none" stroke="#ea42a4" stroke-width="2" stroke-linecap="round"/><path d="M196.65253,178.24063l-1.75144,-0.44994" fill="none" stroke="#ea42a4" stroke-width="2" stroke-linecap="round"/><path d="M191.25199,166.54945l0.91589,2.65838" fill="none" stroke="#ea42a4" stroke-width="2" stroke-linecap="round"/><path d="M192.07451,156.63812l-1.12597,-2.05562" fill="none" stroke="#ea42a4" stroke-width="2" stroke-linecap="round"/><path d="M193.6749,146.94926l0.03844,-1.62062" fill="none" stroke="#ea42a4" stroke-width="2" stroke-linecap="round"/><path d="M206.98196,138.97696l-2.8067,2.76642" fill="none" stroke="#ea42a4" stroke-width="2" stroke-linecap="round"/></g><g data-paper-data="{&quot;index&quot;:null}" stroke-linejoin="miter"><path d="M301.11605,145.37978c5.15163,0.90205 11.14888,12.76363 9.03074,25.72938c-2.11816,12.96575 -11.54962,22.12577 -16.70126,21.22373c-5.15163,-0.90205 -5.03754,-11.69354 -2.91939,-24.65928c2.11816,-12.96575 5.43828,-23.19586 10.58991,-22.29381z" fill="url(#color-2)" stroke="#000000" stroke-width="0.90025" stroke-linecap="butt"/><path d="M304.90483,151.90714l1.56171,3.19973" fill="none" stroke="#ea42a4" stroke-width="2" stroke-linecap="round"/><path d="M295.98303,157.70373l3.20009,0.94385" fill="none" stroke="#ea42a4" stroke-width="2" stroke-linecap="round"/><path d="M302.4948,165.10256l0.08206,1.9205" fill="none" stroke="#ea42a4" stroke-width="2" stroke-linecap="round"/><path d="M302.74424,175.28979l-1.96123,1.94996" fill="none" stroke="#ea42a4" stroke-width="2" stroke-linecap="round"/><path d="M290.72961,179.75274l1.50592,0.44417" fill="none" stroke="#ea42a4" stroke-width="2" stroke-linecap="round"/><path d="M296.22134,189.37916l1.80143,0.10992" fill="none" stroke="#ea42a4" stroke-width="2" stroke-linecap="round"/><path d="M304.73714,179.8809l-1.63837,2.25589" fill="none" stroke="#ea42a4" stroke-width="2" stroke-linecap="round"/><path d="M308.46594,168.54934l-1.66572,1.61571" fill="none" stroke="#ea42a4" stroke-width="2" stroke-linecap="round"/><path d="M308.48573,158.86293l-0.42903,1.55907" fill="none" stroke="#ea42a4" stroke-width="2" stroke-linecap="round"/><path d="M299.5279,152.21752l-1.88457,-3.50566" fill="none" stroke="#ea42a4" stroke-width="2" stroke-linecap="round"/></g><path d="M247.60087,192.67533c-5.45502,1.34043 -7.33516,-7.07844 -7.33516,-7.07844c0,0 0.89419,-1.55488 4.91097,-2.57448c4.01622,-1.01531 7.12105,-1.00769 7.12105,-1.00769c0,0 0.75371,9.323 -4.69686,10.66062z" data-paper-data="{&quot;index&quot;:null}" fill="#58595b" stroke="#231f20" stroke-width="0.9025" stroke-linecap="round" stroke-linejoin="miter"/><g data-paper-data="{&quot;index&quot;:null}" stroke="#001026" stroke-width="0.9" stroke-linejoin="miter"><g><path d="M234.29457,210.13555c0,0 -1.998,0.5534 -2.80467,0.34019c-0.76052,-0.20101 -1.90497,-1.58501 -1.90497,-1.58501l0.25987,-14.7913l8.74107,1.33887z" fill="#505a63" stroke-linecap="butt"/><path d="M239.21483,194.57496c-0.39755,2.78186 -2.8981,4.70338 -5.58514,4.2918c-2.68705,-0.41157 -4.54305,-3.00038 -4.1455,-5.78224c0.39755,-2.78186 2.8981,-4.70336 5.58514,-4.29178c2.68704,0.41158 4.54304,3.00038 4.1455,5.78224z" fill="url(#color-3)" stroke-linecap="butt"/><path d="M237.12827,189.87453c0,0 0.1619,2.70874 -0.0506,4.08738c-0.22737,1.4751 -1.27205,4.49342 -1.27205,4.49342" fill="none" stroke-linecap="round"/><path d="M233.23226,189.4774c0,0 0.04903,1.85487 -0.21377,2.96324c-0.35571,1.50012 -1.7274,5.22336 -1.7274,5.22336" fill="none" stroke-linecap="round"/><path d="M230.2696,191.31925c0,0 3.35835,0.22484 4.73121,0.77237c1.57802,0.62934 4.20741,2.79261 4.20741,2.79261" fill="none" stroke-linecap="round"/><path d="M229.31272,193.96739c0,0 2.42762,0.67742 3.56809,1.27514c1.4671,0.76894 4.50411,2.95561 4.50411,2.95561" fill="none" stroke-linecap="round"/></g><path d="M228.30598,203.75661c0.27052,-1.85444 1.9021,-2.95697 3.64429,-2.46261c1.74218,0.49437 3.00163,2.94675 2.73111,4.80118c-0.27051,1.85444 -1.96855,2.40867 -3.71072,1.9143c-1.74219,-0.49437 -2.93519,-2.39844 -2.66468,-4.25287z" fill="#be1e2d" stroke-linecap="butt"/></g><path d="M229.62028,173.96626c0.01102,-0.24246 -1.73915,-4.73249 -1.66821,-5.05057c0.18171,-0.81507 2.08876,0.76817 2.08876,0.76817l5.31158,3.38923c0,0 0.07097,0.41971 0.03828,1.13938c-0.15492,3.41196 -1.57225,6.12279 -3.16571,6.0548c-1.59345,-0.06799 -2.75964,-2.88905 -2.60471,-6.30102z" data-paper-data="{&quot;index&quot;:null}" fill="#231f20" stroke="#000000" stroke-width="1" stroke-linecap="butt" stroke-linejoin="miter"/><path d="M260.931,178.72903c-0.70026,3.33792 -2.52972,5.75219 -4.08622,5.39242c-1.55649,-0.35974 -2.2506,-3.35731 -1.55033,-6.69521c0.1477,-0.70406 0.32082,-1.09062 0.32082,-1.09062l5.97618,-1.8564c0,0 2.23691,-1.0205 2.20945,-0.18448c-0.01071,0.32626 -2.82016,4.19711 -2.86991,4.43431z" data-paper-data="{&quot;index&quot;:null}" fill="#231f20" stroke="#000000" stroke-width="1" stroke-linecap="butt" stroke-linejoin="miter"/><path d="M258.22143,217.36084v0v0v0v0c0,0 -3.46029,2.79337 -5.36972,1.29263c-0.82038,-0.6352 -1.07667,-1.57444 -0.91815,-2.72422c-0.37259,-0.19113 -0.86805,-0.5414 -1.02052,-1.15659c-0.25199,-1.01661 1.90166,-1.43279 1.90166,-1.43279l-0.00279,0.01787c0.14535,-0.28038 0.29365,-0.56521 0.46342,-0.86146c0.97422,-1.66721 2.87946,-3.84715 3.86174,-5.07474c0,0 1.28923,-1.15117 2.51557,-0.6503c1.2264,0.49988 1.65391,2.66047 1.40303,3.5905c-0.25169,0.93009 -1.35917,5.48766 -2.83423,6.99909z" data-paper-data="{&quot;index&quot;:null}" fill="#be1e2d" stroke="#231f20" stroke-width="0.78672" stroke-linecap="round" stroke-linejoin="round"/><g stroke-linecap="butt" stroke-linejoin="miter"><g stroke="#000000" stroke-width="1"><path d="M251.56209,213.14454h55.67854v24.113h-55.67854z" fill="url(#color-4)"/><path d="M256.5013,208.72383h55.67854l-4.93922,4.42072h-55.67855z" fill="#9966ff"/><path d="M307.4912,213.1176l4.71472,-4.21977l-0.67354,24.51489l-4.49021,3.91836z" fill="url(#color-5)"/></g><path d="M304.73979,213.99646c0.44092,0 0.79835,0.15996 0.79835,0.35728c0,0.19732 -0.35743,0.35727 -0.79835,0.35727c-0.44092,0 -0.79836,-0.15995 -0.79836,-0.35727c0,-0.19732 0.35744,-0.35728 0.79836,-0.35728z" fill="#b9b9b9" stroke="none" stroke-width="0.5"/><path d="M304.38497,235.9091c0.44092,0 0.79835,0.15995 0.79835,0.35727c0,0.19732 -0.35743,0.35727 -0.79835,0.35727c-0.44092,0 -0.79836,-0.15995 -0.79836,-0.35727c0,-0.19732 0.35744,-0.35727 0.79836,-0.35727z" fill="#b9b9b9" stroke="none" stroke-width="0.5"/><path d="M253.46788,236.22667c0.44091,0 0.79835,0.15996 0.79835,0.35727c0,0.19732 -0.35744,0.35727 -0.79835,0.35727c-0.44091,0 -0.79835,-0.15995 -0.79835,-0.35727c0,-0.19732 0.35744,-0.35727 0.79835,-0.35727z" fill="#b9b9b9" stroke="none" stroke-width="0.5"/><path d="M252.93564,213.83767c0.44091,0 0.79835,0.15995 0.79835,0.35727c0,0.19732 -0.35744,0.35727 -0.79835,0.35727c-0.44091,0 -0.79835,-0.15995 -0.79835,-0.35727c0,-0.19732 0.35744,-0.35727 0.79835,-0.35727z" fill="#b9b9b9" stroke="none" stroke-width="0.5"/></g><g stroke="#000000" stroke-width="1" stroke-linecap="butt" stroke-linejoin="miter"><path d="M256.16442,224.80887c0,-5.20726 4.22132,-9.42857 9.42857,-9.42857c5.20725,0 9.42857,4.22132 9.42857,9.42857c0,5.20726 -4.22132,9.42857 -9.42857,9.42857c-5.20725,0 -9.42857,-4.22132 -9.42857,-9.42857z" fill="#8499b1"/><path d="M259.39707,225.21295c0,-3.04996 2.47248,-5.52245 5.52245,-5.52245c3.04996,0 5.52245,2.47249 5.52245,5.52245c0,3.04996 -2.47249,5.52244 -5.52245,5.52244c-3.04996,0 -5.52245,-2.47248 -5.52245,-5.52244z" fill="#92c5ff"/></g><g stroke="#000000" stroke-width="1" stroke-linecap="butt" stroke-linejoin="miter"><path d="M280.16442,224.84458c0,-5.20726 4.22132,-9.42857 9.42857,-9.42857c5.20725,0 9.42857,4.22132 9.42857,9.42857c0,5.20726 -4.22132,9.42857 -9.42857,9.42857c-5.20725,0 -9.42857,-4.22132 -9.42857,-9.42857z" fill="#8499b1"/><path d="M283.39707,225.24867c0,-3.04996 2.47249,-5.52245 5.52245,-5.52245c3.04996,0 5.52245,2.47249 5.52245,5.52245c0,3.04996 -2.47249,5.52245 -5.52245,5.52245c-3.04996,0 -5.52245,-2.47248 -5.52245,-5.52245z" fill="#92c5ff"/></g><path d="M299.73584,210.8184l4,-18.57143" fill="none" stroke="#000000" stroke-width="2" stroke-linecap="round" stroke-linejoin="miter"/></g></g></svg>