<svg version="1.1" xmlns="http://www.w3.org/2000/svg" xmlns:xlink="http://www.w3.org/1999/xlink" width="63.25358" height="109.52717" viewBox="0,0,63.25358,109.52717"><g transform="translate(-202.85879,-136.72951)"><g data-paper-data="{&quot;isPaintingLayer&quot;:true}" fill-rule="nonzero" stroke="none" stroke-linecap="butt" stroke-linejoin="miter" stroke-miterlimit="10" stroke-dasharray="" stroke-dashoffset="0" style="mix-blend-mode: normal"><g><g><path d="M238.65097,183.00932c-0.32807,0.05468 -0.48783,0.23054 -0.56245,0.40942c-4.94044,1.65569 -9.96169,2.01361 -14.98509,0.12983c-5.51192,-2.72583 -5.46442,-12.35938 -6.4258,-17.76568c-0.48502,-3.78142 -1.45378,-7.49347 -2.23617,-11.23198c-0.14365,-0.68642 -0.95016,-3.32468 -0.5577,-4.06202c0.52955,-0.9949 2.51639,-1.89359 3.51792,-2.38747c6.0045,-3.02038 14.37063,-2.35313 20.92018,-3.18065c4.9556,0.00756 9.92431,-0.68925 14.79991,-1.49412c1.67671,-0.27679 3.87016,-0.94867 5.30469,0.26442c3.69777,5.65003 5.0203,13.56625 5.68182,20.17309c0.24087,1.66188 0.58736,4.40419 -0.06725,5.96904c-0.59333,1.41834 -2.82743,2.19622 -3.99824,2.9994c-2.79934,1.92036 -5.80981,3.63571 -8.92342,4.97295c-3.50249,1.17515 -6.84827,3.09709 -10.33491,4.23559l-0.34829,0.16531c0,0 -0.33562,0.16727 -0.41415,0.5017c-0.30281,0.12137 -0.60825,0.23842 -0.91147,0.35079c-0.11733,-0.05571 -0.2685,-0.08147 -0.4596,-0.04962z" data-paper-data="{&quot;noHover&quot;:false,&quot;origItem&quot;:[&quot;Path&quot;,{&quot;applyMatrix&quot;:true,&quot;segments&quot;:[[[238.6521,182.95934],[0,0],[0.1911,-0.03185]],[[239.1105,183.00895],[-0.11733,-0.05571],[0.30322,-0.11237]],[[240.01955,182.65822],[-0.30281,0.12137],[0.07853,-0.33443]],[240.43251,182.15659],[[240.77982,181.99136],[0,0],[3.48664,-1.1385]],[[251.08666,177.76773],[-3.50249,1.17515],[3.11361,-1.33724]],[[259.99679,172.81299],[-2.79934,1.92036],[1.17081,-0.80318]],[[263.99238,169.82163],[-0.59333,1.41834],[0.65461,-1.56485]],[[264.05827,163.86423],[0.24087,1.66188],[-0.66152,-6.60684]],[[258.39189,143.7272],[3.69777,5.65003],[-1.43453,-1.21309]],[[253.0935,143.4679],[1.67671,-0.27679],[-4.8756,0.80487]],[[238.32388,144.97073],[4.9556,0.00756],[-6.54955,0.82752]],[[217.44208,148.13086],[6.0045,-3.02038],[-1.00153,0.49388]],[[213.92789,150.51238],[0.52955,-0.9949],[-0.39246,0.73734]],[[214.4882,154.56865],[-0.14365,-0.68642],[0.78239,3.73851]],[[216.72744,165.77872],[-0.48502,-3.78142],[0.96138,5.4063]],[[223.13498,183.5098],[-5.51192,-2.72583],[5.0234,1.88378]],[[238.09108,183.36881],[-4.94044,1.65569],[0.07462,-0.17888]],[[238.65212,182.95934],[-0.32807,0.05468],[0,0]]],&quot;closed&quot;:true,&quot;fillColor&quot;:[0,0,0,1]}]}" fill="#151515" stroke-width="0.5"/><g><path d="M240.45173,186.5193c-0.06796,-0.14296 -0.13592,-0.29309 -0.20388,-0.43605c0.19279,-0.03654 0.44486,-0.00974 0.44486,-0.00974c0.25665,0.03229 0.39803,0.04879 0.62631,0.06622c-0.85654,-0.20731 -1.55172,-0.69448 -1.71306,-1.76075c0.63723,-0.23477 1.29052,-0.50739 1.92733,-0.77895c0,0 0.36394,-0.157 0.45484,-0.49835c0.07843,-0.02887 0.16019,-0.05938 0.23848,-0.08885c0.56144,0.89875 1.42723,1.33686 2.18793,1.84521c-0.1387,0.48514 0.34148,0.81418 0.34148,0.81418c0.4361,0.29073 2.80573,1.49582 2.33814,2.36884c-0.29727,0.55503 -0.96194,1.06466 -1.73852,1.41648c-1.38971,0.21755 -3.4015,0.21867 -4.28958,-0.46345c-0.17793,-0.13667 -0.33079,-0.35941 -0.4653,-0.6051c0.01764,-0.02785 0.03425,-0.0584 0.05045,-0.09079c0.0303,-0.06058 0.05146,-0.11971 0.06658,-0.17482c-0.07543,-0.00771 -0.15309,-0.01796 -0.23057,-0.02698c-0.05003,-0.60089 -0.02927,-1.24569 -0.03545,-1.57708z" data-paper-data="{&quot;noHover&quot;:false,&quot;origItem&quot;:[&quot;Path&quot;,{&quot;applyMatrix&quot;:true,&quot;segments&quot;:[[[240.50161,186.51562],[0,0],[0.00618,0.33139]],[[240.52969,188.07004],[-0.05003,-0.60089],[0.07748,0.00902]],[[240.75904,188.09514],[-0.07543,-0.00771],[-0.01512,0.05511]],[[240.69155,188.26867],[0.0303,-0.06058],[-0.0162,0.03239]],[[240.64073,188.35896],[0.01764,-0.02785],[0.13451,0.24569]],[[241.09864,188.95616],[-0.17793,-0.13667],[0.88808,0.68212]],[[245.32909,189.41515],[-1.38971,0.21755],[0.77658,-0.35182]],[[247.04886,188.01985],[-0.29727,0.55503],[0.46759,-0.87302]],[[244.71055,185.69304],[0.4361,0.29073],[0,0]],[[244.38542,184.89868],[-0.1387,0.48514],[-0.7607,-0.50835]],[[242.24314,183.06],[0.56144,0.89875],[-0.07829,0.02947]],[[242.00806,183.14752],[0.07843,-0.02887],[-0.0909,0.34135]],[[241.56149,183.6413],[0,0],[-0.63681,0.27156]],[[239.6505,184.40167],[0.63723,-0.23477],[0.16134,1.06627]],[[241.36886,186.14366],[-0.85654,-0.20731],[-0.22828,-0.01743]],[[240.64289,186.06925],[0.25665,0.03229],[0,0]],[[240.29773,186.08674],[0.19279,-0.03654],[0.06796,0.14296]],[[240.5016,186.51561],[-0.06796,-0.14296],[0,0]]],&quot;closed&quot;:true,&quot;fillColor&quot;:[0,0,0,1]}]}" fill="#151515" stroke-width="0.5"/><path d="M244.8591,185.8401c0.00783,-0.01386 0.01558,-0.02787 0.02325,-0.04203c-0.00004,-0.00002 -0.00007,-0.00004 -0.00011,-0.00007zM244.79055,185.95436c0.00104,-0.02702 0.00603,-0.10128 0.02991,-0.19289c-0.04411,-0.02637 -0.0812,-0.04929 -0.1099,-0.06843c0,0 -0.46383,-0.30922 -0.32513,-0.79436c-0.7607,-0.50835 -1.58084,-0.93993 -2.14228,-1.83868c-0.07829,0.02947 -0.15665,0.05865 -0.23508,0.08752c-0.0909,0.34135 -0.44657,0.49378 -0.44657,0.49378c-0.63681,0.27156 -1.27376,0.5256 -1.91099,0.76037c0.16134,1.06627 0.86182,1.53468 1.71836,1.74199c-0.22828,-0.01743 -0.46932,-0.04212 -0.72597,-0.07441c0,0 -0.15237,-0.01905 -0.34516,0.01749c0.06796,0.14296 0.13591,0.28591 0.20387,0.42887l0.00001,0.00001c0.00094,0.05044 0.00109,0.10762 0.00083,0.17044c1.51186,0.34075 3.37606,0.70054 4.2881,-0.7317zM238.97453,201.14715l0.10866,0.22312c0.0735,0.18375 0.147,0.36749 0.2205,0.55124c0.11306,0.11008 0.16959,0.22314 0.16959,0.22314c0.33972,0.6797 0.65649,1.32785 0.93006,2.01208c2.2958,3.01209 3.61518,6.4355 3.85317,10.26057c0.11456,1.84136 -0.83232,3.7468 0.8074,4.02629c6.58077,-0.02077 10.21464,-4.36405 14.01944,-9.11946c-0.02366,-0.13082 -0.04739,-0.26161 -0.07117,-0.39236c0,0 -0.06954,-0.38249 0.16689,-0.64678c-0.22774,-5.5255 -2.71386,-10.572 -5.15636,-15.457l-0.26766,-0.79704c0,0 -0.23717,-0.71151 0.47434,-0.94868c0.71151,-0.23717 0.94868,0.47434 0.94868,0.47434l0.23046,0.69735c1.89689,3.79379 3.78286,7.67675 4.70482,11.79463c0.68883,-0.56336 1.57203,-1.42282 1.36101,-2.3093c-2.47184,-4.80453 -4.80038,-9.8959 -7.75252,-14.43661c-0.01127,0.15389 -0.04548,0.28772 -0.10715,0.39477c-0.16269,0.28242 -1.49478,0.68779 -1.89975,0.82279l-0.15338,0.03897c-0.03983,0.11947 -0.07964,0.23894 -0.11947,0.35841l0.03849,-0.11263c0,0 0,0.75 -0.75,0.75c-0.75,0 -0.75,-0.75 -0.75,-0.75l0.03849,-0.36171c0.06904,-0.20711 0.13807,-0.41424 0.20711,-0.62135c0.01985,-0.20538 0.12534,-0.34732 0.2404,-0.44272c0.10443,-0.1079 0.25496,-0.20258 0.46277,-0.20578l0.31126,-0.07621c0.30309,-0.10103 0.51683,-0.21185 0.65529,-0.33773l0.12439,-0.79391c-0.15872,-0.40086 -0.54186,-0.90641 -1.02149,-1.56477c-0.40446,-0.55519 -1.29422,0.24245 -1.97583,0.56158c-0.20002,0.35849 -0.65851,0.35849 -0.65851,0.35849c-0.16932,-0.00218 -0.34596,0.05806 -0.5075,0.15831c1.13669,0.99221 1.42842,2.57439 0.67928,3.78468c0.95173,0.12548 1.67299,0.73886 1.61935,2.00222c0.36733,-0.10534 0.68943,0.17073 0.68943,0.17073c5.46917,4.7048 11.46982,17.74784 0.83422,19.80867c-0.4024,-2.61032 -0.1385,-5.32798 -0.56926,-7.91654c-0.51155,-3.07405 -2.0763,-5.80866 -2.96434,-8.7688l-0.15253,-0.45741c-1.48308,0.27195 -3.25312,-0.62969 -3.61996,-2.24817l0.21964,-0.5971c-2.66691,0.73934 -4.69734,-0.32818 -5.33928,-2.57773c-0.07135,-0.14175 -0.15068,-0.28133 -0.24853,-0.41582l-0.06685,-0.03342c-1.19602,-0.61839 -1.89285,-0.29904 -2.89782,0.22054c-0.06605,0.41781 -0.51466,0.56735 -0.51466,0.56735c-2.03496,0.60539 -2.02185,1.30826 -1.25091,1.94939c0.13099,0.04513 0.26338,0.10447 0.39702,0.17915c0.1599,0.08936 0.30381,0.21289 0.43443,0.35972c0.93524,0.50221 2.14641,0.92668 2.84527,1.17615c0.69715,0.24885 1.11339,-0.99317 1.81306,-1.12921c0.11381,-0.02213 1.73874,0.45312 1.95666,0.51534l0.04303,-0.02886c0,0 0.75,0 0.75,0.75c0,0.75 -0.75,0.75 -0.75,0.75l-0.45511,-0.02885c-0.43859,-0.1254 -0.82951,-0.54465 -1.2812,-0.48093c-1.16206,0.16393 -0.61037,1.42279 -2.42106,1.11238c-0.30931,-0.05302 -0.81456,-0.21533 -1.39806,-0.44537c0.00607,0.01439 0.01211,0.02862 0.01814,0.04266l0.06064,0.5445c0,0 0,0.75 -0.75,0.75c-0.75,0 -0.75,-0.75 -0.75,-0.75l0.06064,0.04638c-1.40541,-3.28244 -3.05906,-0.93032 -3.82321,1.66536c-0.95036,3.22816 0.76182,7.21452 1.39236,10.37237c0.31583,2.51723 0.10196,5.04921 0.38309,7.54385c0.09607,0.85248 -0.58133,2.21933 0.20357,2.56556c0.05397,0.02381 0.10841,0.04177 0.16327,0.05459c0.0979,-0.0515 0.22156,-0.08402 0.37774,-0.08402c0.10687,0 0.19851,0.01523 0.27709,0.04134c0.48586,-0.14097 0.9894,-0.45764 1.48235,-0.53158c1.52536,-0.22879 3.20901,-0.17976 4.71422,-0.56519c-0.03257,-5.30776 -2.35252,-11.1396 -3.10653,-16.39486c0,0 -0.10607,-0.74247 0.63639,-0.84853c0.74246,-0.10607 0.84853,0.63639 0.84853,0.63639c0.09841,0.69206 0.22088,1.39077 0.35988,2.09453c0.14505,0.12148 0.21757,0.26653 0.21757,0.26653zM242.04018,232.42745c-2.38198,5.20222 -0.92518,10.86623 5.14661,12.21156c3.50914,0.7129 7.30038,-1.45666 6.50961,-5.59427c-0.30254,-1.58301 -2.71473,-3.53802 -3.50511,-5.04459c0,0 -0.01875,-0.03581 -0.03924,-0.09514c-2.23448,0.29944 -5.08522,-0.58801 -6.71107,-1.16841c-0.42162,-0.30727 -0.76012,-0.60673 -1.02865,-0.90165zM255.16373,238.73335c1.15795,5.20637 -3.8338,8.25156 -8.28673,7.37331c-7.09677,-1.58128 -8.91537,-8.28883 -6.15846,-14.38861l0.44045,-0.7078c0,0 0.18855,-0.30169 0.51371,-0.35964c-0.62336,-1.75165 0.67445,-3.49905 0.95584,-5.97192c0.04477,-0.39342 0.08188,-0.79474 0.1125,-1.20056c-2.44085,5.31967 -10.65267,4.89408 -12.42185,-0.52717c-0.19827,-2.47392 -0.35843,-3.90506 1.82289,-5.13222c0.01587,-0.03162 0.03441,-0.06323 0.05607,-0.09394c-0.03896,-0.01529 -0.07404,-0.03345 -0.10465,-0.0548c-0.24503,-0.17096 -0.45893,-1.64065 -0.53361,-2.09166c-0.48981,-2.95789 -0.25108,-5.98105 -0.62319,-8.96954c-0.69299,-3.45921 -2.3374,-7.50053 -1.34736,-11.04731c0.32705,-1.17164 1.30148,-3.2457 2.62303,-4.20007c-0.04702,-0.0597 -0.08608,-0.11807 -0.11634,-0.17483c-0.61127,-1.14646 1.17051,-2.60966 2.31474,-3.27564c0.06845,-0.34932 0.41777,-0.52399 0.41777,-0.52399c0.90258,-0.45129 1.64031,-0.81289 2.3998,-0.93373c0.18971,-0.39077 0.67533,-0.39078 0.67533,-0.39078c0.18814,0.00206 0.37629,0.00413 0.56444,0.0062c-0.08513,-0.09992 -0.33806,-0.44643 -0.12871,-0.82952c-0.03918,-0.11132 -0.07468,-0.22722 -0.10632,-0.34786c-5.18842,1.67014 -10.4003,1.97999 -15.69769,-0.00653c-6.21302,-3.13214 -6.19719,-12.72955 -7.29108,-18.88163c-0.4557,-3.75481 -1.44979,-7.41894 -2.22437,-11.12751c-0.25469,-1.21943 -1.04437,-3.77506 -0.45554,-4.98846c0.67647,-1.39398 2.85753,-2.41555 4.20685,-3.09793c6.2297,-3.09833 14.67578,-2.47622 21.45942,-3.31559c4.9042,-0.00681 9.797,-0.67386 14.62016,-1.48596c2.35819,-0.39706 4.6576,-0.91452 6.65679,0.73696c3.94281,5.83799 5.35144,14.06707 6.03972,20.95887c0.27189,1.92904 0.60561,4.93115 -0.18318,6.74497c-0.58832,1.35283 -2.11232,2.1379 -3.30365,2.83904c-3.48988,2.05391 -6.7112,4.30614 -10.44069,5.90228c-2.71025,0.89715 -5.30217,2.21725 -7.94332,3.31944c0.60428,0.72405 1.82261,1.33411 2.56618,1.9977c0.35572,-0.42067 0.92815,-0.61299 1.79693,-0.65663c0.14364,-0.15007 0.31759,-0.21333 0.31759,-0.21333c1.04365,-0.37946 2.52848,-1.30279 3.59955,-0.37041c0.34533,0.30061 0.92981,1.25086 1.3319,2.22172c0.06055,-0.00949 0.12111,-0.01898 0.18166,-0.02846c0,0 0.21434,0 0.41385,0.11459c0.43536,-0.06551 0.70831,0.34392 0.70831,0.34392c3.18031,4.78636 5.78385,10.21491 8.30838,15.37712c0.07902,0.56346 0.04088,1.06934 -0.09231,1.53348c2.4295,-0.21078 3.99548,1.67097 2.5105,4.31861c-1.03132,1.83877 -2.77604,2.05083 -4.66562,2.22361c-0.00802,0.02569 -0.01756,0.05228 -0.02888,0.07922c0.51655,2.95994 0.91812,5.92964 1.36355,8.89884c0.23778,1.58503 1.06088,4.01086 0.65375,5.60101c-0.12633,0.49341 -0.36744,0.86406 -0.6771,1.1603c1.39061,0.61499 2.94466,1.2246 3.74337,2.43168c1.28046,1.93515 -0.74371,3.44059 -2.41204,3.93728c-2.21217,0.65861 -6.2144,-0.7065 -8.05952,-1.7955c-0.59614,-1.23897 -0.94584,-2.03136 -0.93879,-2.92401c-0.12486,0.51404 -0.25382,1.0281 -0.3914,1.54154c-0.35082,1.30922 -0.50752,3.61521 -1.51023,4.62288c-0.2304,0.23155 -0.49418,0.41894 -0.78412,0.56804c0.98753,1.73355 3.13349,3.38058 3.55171,5.26094zM256.34733,228.65591c1.37356,0.76891 4.87922,1.86353 6.50683,1.37012c0.64382,-0.19518 2.25329,-0.79026 1.57797,-1.71525c-0.83775,-1.14747 -2.68909,-1.65397 -4.01544,-2.29345c-0.08844,0.03942 -0.1771,0.07849 -0.26553,0.11768c-1.65492,0.36635 -2.94249,0.20049 -4.08213,-0.57559c-0.49336,1.2485 -0.32822,1.66186 0.2783,3.0965zM255.79143,223.06603l0.05554,0.22565c1.07321,1.34892 2.08282,1.81027 3.83456,1.41874c0.08574,-0.03826 0.1668,-0.07779 0.24337,-0.11855c0.07879,-0.07384 0.16305,-0.11943 0.2468,-0.1455c1.43807,-0.94094 0.90879,-2.44336 0.66452,-4.23883c-0.40521,-2.97851 -0.88507,-5.96065 -1.40486,-8.92911c-3.86922,4.73111 -7.81458,8.67833 -14.49117,8.66006c-0.12022,-0.01965 -0.32871,-0.05017 -0.56757,-0.09015c-0.00739,2.04733 -0.06251,4.29506 -0.51705,6.24268c-0.53134,2.27668 -2.00523,3.65856 0.28345,5.3179c1.54926,0.53905 5.82779,1.92014 7.19883,0.43242c0.73782,-0.80061 0.85361,-2.95686 1.12214,-3.95737c0.79924,-2.97779 1.32022,-5.97178 2.4021,-8.86799c-0.00132,-0.00152 -0.00265,-0.00306 -0.00396,-0.0046c-0.48809,-0.56944 0.08135,-1.05754 0.08135,-1.05754c0.83235,-0.71344 1.66435,-1.42412 2.48358,-2.15237l0.04049,-0.10485c0,0 0.41602,-0.62404 1.04006,-0.20801c0.62404,0.41602 0.20801,1.04006 0.20801,1.04006l-0.29202,0.3939c-0.63468,0.56412 -1.27688,1.1179 -1.92101,1.67047c0.04486,0.24057 -0.04217,0.45816 -0.04217,0.45816c-0.46827,1.16942 -0.83248,2.35732 -1.15175,3.55518c0.3419,0.09753 0.48675,0.45964 0.48675,0.45964zM254.8461,224.43453c-0.03071,0.12817 -0.06126,0.25641 -0.0917,0.38471c0.04293,-0.1067 0.08906,-0.2167 0.13846,-0.33039c-0.0156,-0.01797 -0.03119,-0.03608 -0.04676,-0.05432zM251.02333,193.97744l-0.66551,-0.82838c-0.19382,-0.12068 -0.38764,-0.24137 -0.58146,-0.36204c-0.12102,0.23686 -0.2685,0.44072 -0.43632,0.61321l0.23564,0.70718c1.45529,4.85097 4.87439,10.71124 2.9502,15.89986c0.81414,-1.40939 3.40781,-1.52973 3.6643,-3.44349c0.53649,-4.00311 -1.78655,-9.00629 -4.63354,-12.2962c-0.31793,-0.02691 -0.5333,-0.29013 -0.5333,-0.29013zM245.88323,191.95566l-0.01636,0.03605c0.08466,0.92938 1.94049,0.7806 2.44998,0.24618c1.66863,-1.75025 -1.33715,-1.97028 -2.2403,-0.48061c0,0 -0.06913,0.10371 -0.19332,0.19838zM240.69155,188.26867c-0.0162,0.03239 -0.03318,0.06244 -0.05082,0.09029c0.13451,0.24569 0.27998,0.46053 0.45791,0.5972c0.88808,0.68212 2.84074,0.67654 4.23045,0.45899c0.77658,-0.35182 1.4225,-0.84027 1.71977,-1.3953c0.24225,-0.4523 -0.2771,-0.98246 -0.89456,-1.42882c-1.26313,2.04948 -3.36407,2.03997 -5.45296,1.65756c-0.00316,0.00666 -0.00643,0.01335 -0.00979,0.02008zM238.65211,182.95934c0.1911,-0.03185 0.34107,-0.0061 0.4584,0.04961c0.30322,-0.11237 0.60624,-0.22936 0.90905,-0.35073c0.07853,-0.33443 0.41296,-0.50163 0.41296,-0.50163l0.34731,-0.16523c3.48664,-1.1385 6.80435,-3.04848 10.30684,-4.22363c3.11361,-1.33724 6.11079,-3.03438 8.91013,-4.95474c1.17081,-0.80318 3.40226,-1.57302 3.99559,-2.99136c0.65461,-1.56485 0.30676,-4.29552 0.06589,-5.9574c-0.66152,-6.60684 -1.96861,-14.487 -5.66638,-20.13703c-1.43453,-1.21309 -3.62168,-0.53609 -5.29839,-0.2593c-4.8756,0.80487 -9.81402,1.51039 -14.76962,1.50283c-6.54955,0.82752 -14.8773,0.13975 -20.8818,3.16013c-1.00153,0.49388 -2.98464,1.38662 -3.51419,2.38152c-0.39246,0.73734 0.41666,3.36985 0.56031,4.05627c0.78239,3.73851 1.75422,7.42865 2.23924,11.21007c0.96138,5.4063 0.89562,15.00525 6.40754,17.73108c5.0234,1.88378 10.01566,1.5147 14.9561,-0.14099c0.07462,-0.17888 0.23297,-0.35479 0.56104,-0.40947zM234.13068,217.79157c-0.16604,0.20756 -0.33209,0.41511 -0.49813,0.62266c0,0 -0.12451,0.15564 -0.3254,0.24226l-0.17391,0.33363c-1.82842,0.90746 -1.48855,1.68405 -1.34372,3.66391c1.44772,4.23504 8.23389,4.16833 9.78663,-0.29266c0.29031,-0.83406 0.82641,-3.4534 -0.29248,-3.96352c-0.00965,0.00352 -0.01948,0.00696 -0.0295,0.0103c-0.71151,0.23717 -0.94868,-0.47434 -0.94868,-0.47434c-0.08302,-0.24907 -0.16604,-0.49813 -0.24907,-0.7472l-0.0205,-0.25899c-1.81781,0.40187 -3.82501,0.39808 -5.6406,0.64017c-0.06309,0.00841 -0.13429,0.01963 -0.21166,0.03258zM242.63772,213.42082c-0.28986,-2.6147 -1.15147,-4.94123 -2.52548,-7.07622c-0.03859,-0.01724 -0.07421,-0.03686 -0.10646,-0.05715c0.76729,3.16443 1.48555,6.34865 1.51216,9.41668v0.16677c0.01391,0.08745 0.01251,0.16639 0,0.23743v0.343c0,0 0,0.05016 -0.01297,0.12454c0.01297,0.07438 0.01297,0.12453 0.01297,0.12453l-0.03848,0.0119c0.02715,0.08147 0.05431,0.16294 0.08146,0.24441c0.39103,0.14494 0.71104,0.35366 0.96923,0.61043c-0.03466,-1.46259 0.20237,-3.29121 0.10757,-4.1463zM263.13701,207.36202c1.91862,-1.29987 1.70983,-3.83521 -0.96129,-2.90156c0,0 -0.16671,0.05558 -0.36564,0.03222c-0.26418,0.28829 -0.56585,0.56484 -0.89538,0.83656l-0.4849,0.38792c0.10853,0.70233 0.18629,1.41183 0.22878,2.12919c0.7534,-0.05237 1.83005,-0.04506 2.47843,-0.48433zM247.23695,185.04646c0.02296,0.01266 0.0457,0.02552 0.06823,0.03857c-0.02166,-0.01362 -0.04439,-0.02651 -0.06823,-0.03857z" fill="#000000" stroke-width="0.5"/><path d="M256.29839,228.66614c-0.60652,-1.43464 -0.76639,-1.88256 -0.27303,-3.13106c1.13964,0.77608 2.46985,0.91629 4.12477,0.54994c0.08843,-0.03919 0.18433,-0.07788 0.27277,-0.1173c1.32635,0.63948 3.2212,1.20094 4.05895,2.34841c0.67532,0.92499 -0.94509,1.54629 -1.58891,1.74147c-1.62761,0.49341 -5.22099,-0.62256 -6.59455,-1.39147z" data-paper-data="{&quot;noHover&quot;:false,&quot;origItem&quot;:[&quot;Path&quot;,{&quot;applyMatrix&quot;:true,&quot;segments&quot;:[[[256.34733,228.65591],[0,0],[1.37356,0.76891]],[[262.85416,230.02603],[-1.62761,0.49341],[0.64382,-0.19518]],[[264.43213,228.31078],[0.67532,0.92499],[-0.83775,-1.14747]],[[260.41669,226.01733],[1.32635,0.63948],[-0.08844,0.03942]],[[260.15116,226.13501],[0.08843,-0.03919],[-1.65492,0.36635]],[[256.06903,225.55942],[1.13964,0.77608],[-0.49336,1.2485]],[[256.34733,228.65592],[-0.60652,-1.43464],[0,0]]],&quot;closed&quot;:true,&quot;fillColor&quot;:[0,0,0,1]}]}" fill="#151515" stroke-width="0.5"/><path d="M242.38189,231.79529c0.26853,0.29492 0.60861,0.59322 1.03023,0.90049c1.62585,0.5804 4.53213,1.46638 6.76661,1.16694c0.02049,0.05933 0.03993,0.09558 0.03993,0.09558c0.79038,1.50657 3.22487,3.50925 3.52741,5.09226c0.79077,4.13761 -3.05164,6.35133 -6.56078,5.63843c-6.07179,-1.34533 -7.5607,-7.09633 -5.17872,-12.29855z" data-paper-data="{&quot;noHover&quot;:false,&quot;origItem&quot;:[&quot;Path&quot;,{&quot;applyMatrix&quot;:true,&quot;segments&quot;:[[[242.04018,232.42745],[0,0],[-2.38198,5.20222]],[[247.18679,244.63901],[-6.07179,-1.34533],[3.50914,0.7129]],[[253.6964,239.04474],[0.79077,4.13761],[-0.30254,-1.58301]],[[250.19129,234.00015],[0.79038,1.50657],[0,0]],[[250.15205,233.90501],[0.02049,0.05933],[-2.23448,0.29944]],[[243.44098,232.7366],[1.62585,0.5804],[-0.42162,-0.30727]],[[242.41233,231.83495],[0.26853,0.29492],[0,0]]],&quot;closed&quot;:true,&quot;fillColor&quot;:[0,0,0,1]}]}" fill="#151515" stroke-width="0.5"/><path d="M255.74367,223.0512c0,0 -0.14596,-0.35787 -0.48786,-0.4554c0.31927,-1.19786 0.69024,-2.34821 1.15851,-3.51763c0,0 0.08888,-0.2149 0.04402,-0.45547c0.64413,-0.55257 1.2871,-1.10534 1.92178,-1.66946l0.2925,-0.3933c0,0 0.41947,-0.62018 -0.20457,-1.0362c-0.62404,-0.41603 -1.03749,0.21044 -1.03749,0.21044l-0.04067,0.10469c-0.81923,0.72825 -1.64783,1.44169 -2.48018,2.15513c0,0 -0.50455,0.41233 -0.01646,0.98177c0.00131,0.00154 0.00269,0.00313 0.00401,0.00465c-1.08188,2.89621 -1.63432,5.97562 -2.43356,8.95341c-0.26853,1.00051 -0.39142,3.15678 -1.12924,3.95739c-1.37104,1.48772 -5.67805,0.09526 -7.22731,-0.44379c-2.28868,-1.65934 -0.82737,-3.05687 -0.29603,-5.33355c0.45454,-1.94762 0.50583,-4.23114 0.51322,-6.27847c0.23886,0.03998 0.44746,0.07011 0.56768,0.08976c6.67659,0.01827 10.69877,-3.95662 14.56799,-8.68773c0.51979,2.96846 1.02013,5.9822 1.42534,8.96071c0.24427,1.79547 0.77216,3.32221 -0.66591,4.26315c-0.08375,0.02607 -0.16841,0.07287 -0.2472,0.14671c-0.07657,0.04076 -0.15802,0.08139 -0.24376,0.11965c-1.75174,0.39153 -2.85526,-0.1042 -3.92847,-1.45312l-0.05632,-0.22334z" data-paper-data="{&quot;noHover&quot;:false,&quot;origItem&quot;:[&quot;Path&quot;,{&quot;applyMatrix&quot;:true,&quot;segments&quot;:[[255.79143,223.06603],[[255.84697,223.29168],[0,0],[1.07321,1.34892]],[[259.68153,224.71042],[-1.75174,0.39153],[0.08574,-0.03826]],[[259.9249,224.59187],[-0.07657,0.04076],[0.07879,-0.07384]],[[260.1717,224.44637],[-0.08375,0.02607],[1.43807,-0.94094]],[[260.83622,220.20754],[0.24427,1.79547],[-0.40521,-2.97851]],[[259.43136,211.27843],[0.51979,2.96846],[-3.86922,4.73111]],[[244.94019,219.93849],[6.67659,0.01827],[-0.12022,-0.01965]],[[244.37262,219.84834],[0.23886,0.03998],[-0.00739,2.04733]],[[243.85557,226.09102],[0.45454,-1.94762],[-0.53134,2.27668]],[[244.13902,231.40892],[-2.28868,-1.65934],[1.54926,0.53905]],[[251.33785,231.84134],[-1.37104,1.48772],[0.73782,-0.80061]],[[252.45999,227.88397],[-0.26853,1.00051],[0.79924,-2.97779]],[[254.86209,219.01598],[-1.08188,2.89621],[-0.00132,-0.00152]],[[254.85813,219.01138],[0.00131,0.00154],[-0.48809,-0.56944]],[[254.93948,217.95384],[0,0],[0.83235,-0.71344]],[[257.42306,215.80147],[-0.81923,0.72825],[0,0]],[257.46355,215.69662],[[258.50361,215.48861],[-0.62404,-0.41603],[0.62404,0.41602]],[258.71162,216.52867],[[258.4196,216.92257],[0,0],[-0.63468,0.56412]],[[256.49859,218.59304],[0.64413,-0.55257],[0.04486,0.24057]],[[256.45642,219.0512],[0,0],[-0.46827,1.16942]],[[255.30467,222.60638],[0.31927,-1.19786],[0.3419,0.09753]],[255.79142,223.06602]],&quot;closed&quot;:true,&quot;fillColor&quot;:[0,0,0,1]}]}" fill="#1f1f1f" stroke-width="0.5"/><path d="M251.01167,193.92883c0,0 0.21842,0.26259 0.53635,0.2895c2.84699,3.28991 5.20605,8.38416 4.66956,12.38727c-0.25649,1.91376 -2.87918,2.04226 -3.69332,3.45165c1.92419,-5.18862 -1.51354,-11.14458 -2.96883,-15.99555l-0.23527,-0.70734c0.16782,-0.17249 0.31859,-0.37764 0.43961,-0.6145c0.19382,0.12067 0.39001,0.24059 0.58383,0.36127l0.66806,0.8277z" data-paper-data="{&quot;noHover&quot;:false,&quot;origItem&quot;:[&quot;Path&quot;,{&quot;applyMatrix&quot;:true,&quot;segments&quot;:[[251.02333,193.97744],[[250.35782,193.14906],[0,0],[-0.19382,-0.12068]],[[249.77636,192.78702],[0.19382,0.12067],[-0.12102,0.23686]],[[249.34004,193.40023],[0.16782,-0.17249],[0,0]],[[249.57568,194.10741],[0,0],[1.45529,4.85097]],[[252.52588,210.00727],[1.92419,-5.18862],[0.81414,-1.40939]],[[256.19018,206.56378],[-0.25649,1.91376],[0.53649,-4.00311]],[[251.55664,194.26758],[2.84699,3.28991],[-0.31793,-0.02691]],[251.02334,193.97745]],&quot;closed&quot;:true}]}" fill="#ff0000" stroke-width="0.5"/><path d="M246.02658,191.7589c0.90315,-1.48967 4.00302,-1.24772 2.33439,0.50253c-0.50949,0.53442 -2.45858,0.66885 -2.54324,-0.26053l0.01617,-0.03713c0.12419,-0.09467 0.19268,-0.20487 0.19268,-0.20487z" data-paper-data="{&quot;noHover&quot;:false,&quot;origItem&quot;:[&quot;Path&quot;,{&quot;applyMatrix&quot;:true,&quot;segments&quot;:[[[245.88323,191.95566],[0.12419,-0.09467],[0,0]],[[245.86687,191.99171],[0,0],[0.08466,0.92938]],[[248.31685,192.23789],[-0.50949,0.53442],[1.66863,-1.75025]],[[246.07655,191.75728],[0.90315,-1.48967],[0,0]]],&quot;closed&quot;:true}]}" fill="#ff0000" stroke-width="0.5"/><path d="M240.75126,188.24576c2.08889,0.38241 4.18187,0.36755 5.445,-1.68192c0.61747,0.44636 1.14485,1.00295 0.9026,1.45525c-0.29727,0.55503 -0.9565,1.07822 -1.73308,1.43004c-1.38971,0.21755 -3.42667,0.20438 -4.31475,-0.47774c-0.17793,-0.13667 -0.32558,-0.36226 -0.46009,-0.60795c0.01764,-0.02785 0.03452,-0.05923 0.05072,-0.09162c0.00336,-0.00673 0.10645,-0.01939 0.10961,-0.02605z" data-paper-data="{&quot;noHover&quot;:false,&quot;origItem&quot;:[&quot;Path&quot;,{&quot;applyMatrix&quot;:true,&quot;segments&quot;:[[[240.69155,188.26867],[0.00336,-0.00673],[-0.0162,0.03239]],[[240.64073,188.35896],[0.01764,-0.02785],[0.13451,0.24569]],[[241.09864,188.95616],[-0.17793,-0.13667],[0.88808,0.68212]],[[245.32909,189.41515],[-1.38971,0.21755],[0.77658,-0.35182]],[[247.04886,188.01985],[-0.29727,0.55503],[0.24225,-0.4523]],[[246.1543,186.59103],[0.61747,0.44636],[-1.26313,2.04948]],[[240.70134,188.24859],[2.08889,0.38241],[-0.00316,0.00666]]],&quot;closed&quot;:true}]}" fill="#9c9c9c" stroke-width="0.5"/><path d="M260.62357,207.88205c-0.04249,-0.71736 -0.13455,-1.47088 -0.24308,-2.17321l0.48915,-0.40128c0.32953,-0.27172 0.65811,-0.57318 0.92229,-0.86147c0.19893,0.02336 0.37628,-0.03506 0.37628,-0.03506c2.67112,-0.93365 2.9115,1.69495 0.99288,2.99482c-0.64838,0.43927 -1.78411,0.42384 -2.53751,0.47621z" data-paper-data="{&quot;noHover&quot;:false,&quot;origItem&quot;:[&quot;Path&quot;,{&quot;applyMatrix&quot;:true,&quot;segments&quot;:[[[263.137,207.36202],[-0.64838,0.43927],[1.91862,-1.29987]],[[262.17571,204.46046],[2.67112,-0.93365],[0,0]],[[261.81007,204.49268],[0.19893,0.02336],[-0.26418,0.28829]],[[260.91469,205.32924],[0.32953,-0.27172],[0,0]],[[260.42979,205.71716],[0,0],[0.10853,0.70233]],[[260.65857,207.84635],[-0.04249,-0.71736],[0.7534,-0.05237]]],&quot;closed&quot;:true,&quot;fillColor&quot;:[0,0,0,1]}]}" fill="#151515" stroke-width="0.5"/><path d="M234.15494,217.55944c0.07737,-0.01295 0.15035,-0.02536 0.21344,-0.03377c1.81559,-0.24209 3.87918,-0.23659 5.69699,-0.63846l0.02178,0.25995c0.08303,0.24907 0.17107,0.50261 0.25409,0.75168c0,0 0.24311,0.71886 0.95462,0.48169c0.01002,-0.00334 0.01989,-0.00672 0.02954,-0.01024c1.11889,0.51012 0.58997,3.16741 0.29966,4.00147c-1.55274,4.46099 -8.43621,4.52987 -9.88393,0.29483c-0.14483,-1.97986 -0.47841,-2.79599 1.35001,-3.70345l0.17635,-0.3371c0.20089,-0.08662 0.32831,-0.24571 0.32831,-0.24571c0.16604,-0.20755 0.33873,-0.42112 0.50477,-0.62868z" data-paper-data="{&quot;noHover&quot;:false,&quot;origItem&quot;:[&quot;Path&quot;,{&quot;applyMatrix&quot;:true,&quot;segments&quot;:[[[234.13067,217.79157],[0,0],[-0.16604,0.20756]],[[233.63254,218.41423],[0.16604,-0.20755],[0,0]],[[233.30714,218.65649],[0.20089,-0.08662],[0,0]],[[233.13323,218.99012],[0,0],[-1.82842,0.90746]],[[231.78951,222.65403],[-0.14483,-1.97986],[1.44772,4.23504]],[[241.57614,222.36137],[-1.55274,4.46099],[0.29031,-0.83406]],[[241.28366,218.39785],[1.11889,0.51012],[-0.00965,0.00352]],[[241.25416,218.40815],[0.01002,-0.00334],[-0.71151,0.23717]],[[240.30548,217.93381],[0,0],[-0.08302,-0.24907]],[[240.05641,217.18661],[0.08303,0.24907],[0,0]],[[240.03591,216.92762],[0,0],[-1.81781,0.40187]],[[234.39531,217.56779],[1.81559,-0.24209],[-0.06309,0.00841]],[[234.18365,217.60037],[0.07737,-0.01295],[0,0]]],&quot;closed&quot;:true,&quot;fillColor&quot;:[0,0,0,1]}]}" fill="#151515" stroke-width="0.5"/><path d="M238.92453,201.14593c0,0 -0.07244,-0.14682 -0.21749,-0.2683c-0.139,-0.70376 -0.25906,-1.41506 -0.35747,-2.10712c0,0 -0.01168,-0.70948 -0.75414,-0.60341c-0.74246,0.10606 -0.6348,0.84341 -0.6348,0.84341c0.75401,5.25526 3.04539,11.02898 3.07796,16.33674c-1.50521,0.38543 -3.2385,0.42247 -4.76386,0.65126c-0.49295,0.07394 -0.99826,0.38924 -1.48412,0.53021c-0.07858,-0.02611 -0.17069,-0.04173 -0.27756,-0.04173c-0.15618,0 -0.28029,0.03214 -0.37819,0.08364c-0.05486,-0.01282 -0.1096,-0.03104 -0.16357,-0.05485c-0.7849,-0.34623 -0.11112,-1.71654 -0.20719,-2.56902c-0.28113,-2.49464 -0.07784,-5.04369 -0.39367,-7.56092c-0.63054,-3.15785 -2.34294,-7.17811 -1.39258,-10.40627c0.76415,-2.59568 2.42246,-4.95751 3.82787,-1.67507l0.02432,0.00636c0,0 -0.08546,0.69807 0.66454,0.69807c0.75,0 0.75233,-0.75356 0.75233,-0.75356l-0.05967,-0.54581c-0.00603,-0.01404 -0.01201,-0.02834 -0.01808,-0.04273c0.5835,0.23004 1.09016,0.3906 1.39947,0.44362c1.81069,0.31041 1.26761,-0.9565 2.42967,-1.12043c0.45169,-0.06372 0.84599,0.35325 1.28458,0.47865l0.45691,0.02779c0,0 0.75495,-0.00243 0.75495,-0.75243c0,-0.75 -0.70927,-0.65869 -0.70927,-0.65869l-0.0428,0.02875c-0.21792,-0.06222 -1.83705,-0.54072 -1.95086,-0.51859c-0.69967,0.13604 -1.10883,1.37248 -1.80598,1.12363c-0.69886,-0.24947 -1.90706,-0.677 -2.8423,-1.17921c-0.13062,-0.14683 -0.27449,-0.27041 -0.43439,-0.35977c-0.13364,-0.07468 -0.34105,-0.20014 -0.47204,-0.24527c-0.77094,-0.64113 -0.77903,-1.34898 1.25593,-1.95437c0,0 0.45041,-0.15102 0.51646,-0.56883c1.00497,-0.51958 1.70858,-0.8434 2.9046,-0.22501l0.06698,0.03335c0.09785,0.13449 0.17724,0.27404 0.24859,0.41579c0.64194,2.24955 2.68872,3.31157 5.35563,2.57223l-0.22121,0.59736c0.36684,1.61848 2.15849,2.52088 3.64157,2.24893l0.15432,0.45791c0.88804,2.96014 2.48488,5.7613 2.99643,8.83535c0.43076,2.58856 0.09603,5.24396 0.49843,7.85428c10.6356,-2.06083 4.63784,-15.01512 -0.83133,-19.71992c0,0 -0.31916,-0.27478 -0.68649,-0.16944c0.05364,-1.26336 -0.65883,-1.87412 -1.61056,-1.9996c0.74914,-1.21029 0.46178,-2.7918 -0.67491,-3.78401c0.16154,-0.10025 0.35054,-0.25971 0.51986,-0.25753c0,0 0.46028,0.00028 0.6603,-0.35821c0.68161,-0.31913 1.57649,-1.11558 1.98095,-0.56039c0.47963,0.65836 0.86685,1.16528 1.02557,1.56614l-0.16072,0.88708c-0.13846,0.12588 -0.3507,0.23727 -0.65379,0.3383l-0.31042,0.0765c-0.20781,0.0032 -0.35713,0.09827 -0.46156,0.20617c-0.11506,0.0954 -0.22022,0.23744 -0.24007,0.44282c-0.06904,0.20711 -0.10907,0.31854 -0.17811,0.52565l-0.03824,0.36179c0,0 0.0035,0.75122 0.7535,0.75122c0.75,0 0.71212,-0.65747 0.71212,-0.65747l-0.03852,0.11262c0.03983,-0.11947 0.11892,-0.3309 0.15875,-0.45037l0.15379,-0.03879c0.40497,-0.135 1.74114,-0.53836 1.90383,-0.82078c0.06167,-0.10705 0.09562,-0.24102 0.10689,-0.39491c2.95214,4.54071 5.30685,9.67739 7.77869,14.48192c0.21102,0.88648 -0.77124,1.73505 -1.46007,2.29841c-0.92196,-4.11788 -2.79461,-7.95634 -4.6915,-11.75013l-0.22868,-0.69562c0,0 -0.23421,-0.70897 -0.94572,-0.4718c-0.71151,0.23717 -0.41159,0.87082 -0.41159,0.87082l0.26997,0.79906c2.4425,4.885 4.93871,9.99165 5.16645,15.51715c-0.23643,0.26429 -0.16795,0.64867 -0.16795,0.64867c0.02378,0.13075 0.047,0.26239 0.07066,0.39321c-3.8048,4.75541 -7.48431,9.12233 -14.06508,9.1431c-1.63972,-0.27949 -0.69681,-2.18534 -0.81137,-4.0267c-0.23799,-3.82507 -1.59512,-7.27581 -3.89092,-10.2879c-0.27357,-0.68423 -0.59515,-1.34844 -0.93487,-2.02814c0,0 -0.05671,-0.11482 -0.16977,-0.2249c-0.0735,-0.18375 -0.14719,-0.37152 -0.22069,-0.55527l-0.10865,-0.22468z" data-paper-data="{&quot;noHover&quot;:false,&quot;origItem&quot;:[&quot;Path&quot;,{&quot;applyMatrix&quot;:true,&quot;segments&quot;:[[238.97452,201.14715],[[239.08318,201.37027],[0,0],[0.0735,0.18375]],[[239.30368,201.92151],[-0.0735,-0.18375],[0.11306,0.11008]],[[239.47327,202.14465],[0,0],[0.33972,0.6797]],[[240.40333,204.15673],[-0.27357,-0.68423],[2.2958,3.01209]],[[244.2565,214.4173],[-0.23799,-3.82507],[0.11456,1.84136]],[[245.0639,218.44359],[-1.63972,-0.27949],[6.58077,-0.02077]],[[259.08334,209.32413],[-3.8048,4.75541],[-0.02366,-0.13082]],[[259.01217,208.93177],[0.02378,0.13075],[0,0]],[[259.17906,208.28499],[-0.23643,0.26429],[-0.22774,-5.5255]],[[254.0227,192.82799],[2.4425,4.885],[0,0]],[253.75504,192.03095],[[254.22938,191.08227],[-0.71151,0.23717],[0.71151,-0.23717]],[255.17806,191.55661],[[255.40852,192.25396],[0,0],[1.89689,3.79379]],[[260.11334,204.04859],[-0.92196,-4.11788],[0.68883,-0.56336]],[[261.47435,201.73929],[0.21102,0.88648],[-2.47184,-4.80453]],[[253.72183,187.30268],[2.95214,4.54071],[-0.01127,0.15389]],[[253.61468,187.69745],[0.06167,-0.10705],[-0.16269,0.28242]],[[251.71493,188.52024],[0.40497,-0.135],[0,0]],[[251.56155,188.55921],[0,0],[-0.03983,0.11947]],[[251.44208,188.91762],[0.03983,-0.11947],[0,0]],[251.48057,188.80499],[[250.73057,189.55499],[0.75,0],[-0.75,0]],[249.98057,188.80499],[[250.01906,188.44328],[0,0],[0.06904,-0.20711]],[[250.22617,187.82193],[-0.06904,0.20711],[0.01985,-0.20538]],[[250.46657,187.37921],[-0.11506,0.0954],[0.10443,-0.1079]],[[250.92934,187.17343],[-0.20781,0.0032],[0,0]],[[251.2406,187.09722],[0,0],[0.30309,-0.10103]],[[251.89589,186.75949],[-0.13846,0.12588],[0,0]],[[252.02028,185.96558],[0,0],[-0.15872,-0.40086]],[[250.99879,184.40081],[0.47963,0.65836],[-0.40446,-0.55519]],[[249.02296,184.96239],[0.68161,-0.31913],[-0.20002,0.35849]],[[248.36445,185.32088],[0,0],[-0.16932,-0.00218]],[[247.85695,185.47919],[0.16154,-0.10025],[1.13669,0.99221]],[[248.53623,189.26387],[0.74914,-1.21029],[0.95173,0.12548]],[[250.15558,191.26609],[0.05364,-1.26336],[0.36733,-0.10534]],[[250.84501,191.43682],[0,0],[5.46917,4.7048]],[[251.67923,211.24549],[10.6356,-2.06083],[-0.4024,-2.61032]],[[251.10997,203.32895],[0.43076,2.58856],[-0.51155,-3.07405]],[[248.14563,194.56015],[0.88804,2.96014],[0,0]],[[247.9931,194.10274],[0,0],[-1.48308,0.27195]],[[244.37314,191.85457],[0.36684,1.61848],[0,0]],[[244.59278,191.25747],[0,0],[-2.66691,0.73934]],[[239.2535,188.67974],[0.64194,2.24955],[-0.07135,-0.14175]],[[239.00497,188.26392],[0.09785,0.13449],[0,0]],[[238.93812,188.2305],[0,0],[-1.19602,-0.61839]],[[236.0403,188.45104],[1.00497,-0.51958],[-0.06605,0.41781]],[[235.52564,189.01839],[0,0],[-2.03496,0.60539]],[[234.27473,190.96778],[-0.77094,-0.64113],[0.13099,0.04513]],[[234.67175,191.14693],[-0.13364,-0.07468],[0.1599,0.08936]],[[235.10618,191.50665],[-0.13062,-0.14683],[0.93524,0.50221]],[[237.95145,192.6828],[-0.69886,-0.24947],[0.69715,0.24885]],[[239.76451,191.55359],[-0.69967,0.13604],[0.11381,-0.02213]],[[241.72117,192.06893],[-0.21792,-0.06222],[0,0]],[241.7642,192.04007],[[242.5142,192.79007],[0,-0.75],[0,0.75]],[241.7642,193.54007],[[241.30909,193.51122],[0,0],[-0.43859,-0.1254]],[[240.02789,193.03029],[0.45169,-0.06372],[-1.16206,0.16393]],[[237.60683,194.14267],[1.81069,0.31041],[-0.30931,-0.05302]],[[236.20877,193.6973],[0.5835,0.23004],[0.00607,0.01439]],[[236.22691,193.73996],[-0.00603,-0.01404],[0,0]],[236.28755,194.28446],[[235.53755,195.03446],[0.75,0],[-0.75,0]],[234.78755,194.28446],[[234.84819,194.33084],[0,0],[-1.40541,-3.28244]],[[231.02498,195.9962],[0.76415,-2.59568],[-0.95036,3.22816]],[[232.41734,206.36857],[-0.63054,-3.15785],[0.31583,2.51723]],[[232.80043,213.91242],[-0.28113,-2.49464],[0.09607,0.85248]],[[233.004,216.47798],[-0.7849,-0.34623],[0.05397,0.02381]],[[233.16727,216.53257],[-0.05486,-0.01282],[0.0979,-0.0515]],[[233.54501,216.44855],[-0.15618,0],[0.10687,0]],[[233.8221,216.48989],[-0.07858,-0.02611],[0.48586,-0.14097]],[[235.30445,215.95831],[-0.49295,0.07394],[1.52536,-0.22879]],[[240.01867,215.39312],[-1.50521,0.38543],[-0.03257,-5.30776]],[[236.91214,198.99826],[0.75401,5.25526],[0,0]],[[237.54853,198.14973],[-0.74246,0.10606],[0.74246,-0.10607]],[[238.39706,198.78612],[0,0],[0.09841,0.69206]],[[238.75694,200.88065],[-0.139,-0.70376],[0.14505,0.12148]],[238.97451,201.14718]],&quot;closed&quot;:true,&quot;fillColor&quot;:[0,0,0],&quot;strokeWidth&quot;:0.5}]}" fill="#2d2d2d" stroke-width="0.25"/></g></g><path d="M263.63809,169.64958c-0.28589,0.52445 -1.20887,0.82985 -1.70272,1.11568c-1.93733,1.1213 -3.79867,2.35064 -5.75848,3.43977l-0.47658,0.23908c0,0 -0.2231,0.11155 -0.47632,0.07733c-1.85428,0.86867 -3.75473,1.63947 -5.54742,2.38581c-3.93511,1.95206 -9.08859,3.83637 -13.58928,4.77248c-1.22786,0.33846 -2.47925,0.59803 -3.60307,0.87742c-0.40259,0.10009 -1.53429,0.59966 -1.8475,0.50019c-2.57811,-0.8188 -4.45887,-6.67562 -4.77769,-8.97456c-2.24521,-4.4722 -2.69984,-11.12436 -3.24556,-16.06871c-0.26699,-2.41895 -0.00427,-4.02667 1.89651,-5.57935c1.75945,-1.60152 5.60344,-2.11067 7.92699,-2.44423c5.35323,-0.7685 10.70622,-1.58718 16.07935,-2.27924c2.6188,-0.37408 5.2257,-0.8906 7.82639,-1.24247c0.53884,-0.0729 1.19445,-0.6384 1.74622,-0.49616c1.31066,0.33787 1.29451,1.50401 1.58467,2.52119c0.75415,2.64371 0.82718,5.39049 1.62457,7.99057c0.42474,1.90962 1.51513,4.8799 1.94168,7.52036c0.53994,1.63285 1.11238,4.33483 0.39825,5.64484z" fill="#000000" stroke-width="0.5"/></g><path d="" fill="#000000" stroke-width="0.5"/><g fill="#ff0000" stroke-width="0.5"><path d="M238.89615,173.60927c0.80627,-5.91145 2.40667,-11.74882 3.1909,-17.65558c0.90407,-1.79417 2.17767,-1.62402 3.77158,-0.57758c3.22825,2.11943 6.33208,5.26704 8.57352,8.38201c0.61575,0.85572 2.32583,2.14697 2.49409,3.24352c0.25307,1.64922 -1.40506,2.14958 -2.52469,2.73138c-4.17716,2.06002 -7.7793,4.54262 -12.27159,5.90554c-2.0602,0.62505 -4.71791,1.50271 -3.50561,-1.71441zM240.2912,174.41252c1.11224,-0.3264 2.49415,-0.42147 3.53155,-0.74c3.56109,-1.09343 6.59328,-3.64639 9.90217,-5.27821c0.60471,-0.31195 2.06044,-0.47714 1.73537,-1.0749c-1.57157,-2.88988 -4.77194,-5.89316 -7.22257,-8.05732c-0.35187,-0.31074 -4.81212,-3.93025 -4.69638,-2.94087c-0.79802,6.01068 -2.49211,11.948 -3.22282,17.97272c0,0 -0.00604,0.04822 -0.02731,0.11858z"/><path d="M243.54526,165.51565c0.01712,-0.41386 0.36649,-0.73548 0.78035,-0.71837c0.41386,0.01712 0.73548,0.36649 0.71837,0.78035c-0.01712,0.41386 -0.36649,0.73548 -0.78035,0.71837c-0.41386,-0.01712 -0.73548,-0.36649 -0.71837,-0.78035z"/><path d="M248.36611,163.47154c0.01712,-0.41386 0.36649,-0.73548 0.78035,-0.71837c0.41386,0.01712 0.73548,0.36649 0.71837,0.78035c-0.01712,0.41386 -0.36649,0.73548 -0.78035,0.71837c-0.41386,-0.01712 -0.73548,-0.36649 -0.71837,-0.78035z"/><path d="M246.55437,171.24889c-0.03099,0.74936 -0.78035,0.71837 -0.78035,0.71837l-0.87099,-0.03602c-2.20332,-0.14329 -2.69436,-1.10498 -1.95646,-3.06316c0,0 0.26637,-0.70111 0.96747,-0.43474c0.7011,0.26637 0.43474,0.96748 0.43474,0.96748c-0.12181,0.31761 -0.61382,0.62209 -0.4459,0.91792c0.17577,0.30967 0.70608,0.11222 1.06215,0.11378l0.87099,0.03602c0,0 0.74936,0.03099 0.71837,0.78035z"/></g><g stroke-width="0.5"><path d="M220.28704,147.26938c-0.0802,-0.206 -0.16622,-0.41728 -0.25791,-0.63262c-1.67555,2.94375 -4.94746,5.10821 -8.244,6.13023c0.25902,0.1439 0.5037,0.27853 0.7293,0.40357c0,0 0.44089,0.24454 0.41366,0.69473c3.28395,1.3031 7.74152,-3.14449 7.5796,-6.324zM224.87815,144.22328c2.79356,4.99963 -0.01975,11.25454 -4.84491,13.73287c-1.94137,0.99714 -4.0755,0.89734 -6.19209,1.0011c-3.54203,-0.63619 -5.98691,-2.71662 -5.75059,-6.54585c-2.02414,-1.29087 -3.94935,-2.87199 -4.76079,-4.85522c-1.97224,-4.82034 2.63809,-8.99062 6.62825,-10.70997c3.56102,-0.64776 6.52394,1.4836 8.70948,4.34595c2.16289,0.06834 3.89933,1.09863 5.38757,2.64417c0.5283,-0.13289 0.82308,0.38695 0.82308,0.38695z" fill="#000000"/><path d="M220.55071,147.5128c0.16192,3.17951 -4.37398,7.69322 -7.65793,6.39012c0.02724,-0.45019 -0.41954,-0.70128 -0.41954,-0.70128c-0.2256,-0.12504 -0.47456,-0.26636 -0.73358,-0.41025c3.29654,-1.02202 6.65082,-3.24695 8.32636,-6.1907c0.0917,0.21534 0.18184,0.43139 0.26204,0.63739z" data-paper-data="{&quot;noHover&quot;:false,&quot;origItem&quot;:[&quot;Path&quot;,{&quot;applyMatrix&quot;:true,&quot;segments&quot;:[[[220.28704,147.26938],[0,0],[-0.0802,-0.206]],[[220.02912,146.63676],[0.0917,0.21534],[-1.67555,2.94375]],[[211.78512,152.76699],[3.29654,-1.02202],[0.25902,0.1439]],[[212.51442,153.17055],[-0.2256,-0.12504],[0,0]],[[212.92808,153.86528],[0.02724,-0.45019],[3.28395,1.3031]],[[220.50768,147.54128],[0.16192,3.17951],[0,0]]],&quot;closed&quot;:true}]}" fill="#ff0000"/></g></g></g></svg>