<svg version="1.1" xmlns="http://www.w3.org/2000/svg" xmlns:xlink="http://www.w3.org/1999/xlink" width="64.22819" height="62.21477" viewBox="0,0,64.22819,62.21477"><g transform="translate(-207.8859,-148.89261)"><g data-paper-data="{&quot;isPaintingLayer&quot;:true}" fill-rule="nonzero" stroke-linecap="butt" stroke-linejoin="miter" stroke-miterlimit="10" stroke-dasharray="" stroke-dashoffset="0" style="mix-blend-mode: normal"><path d="M207.8859,181.91275l9.11609,-10.61073l0.54914,-12.3067l16.11715,2.03368l7.64043,-12.13639l7.03503,15.27275l15.60655,-2.21336l-1.74472,13.37997l9.90852,5.17138l-8.89631,9.15912l0.86076,9.89399l-12.55065,-3.25343l-10.01783,14.80435l-6.66111,-14.92985l-12.76915,3.85615l-0.90391,-13.04791z" fill="#ff8124" stroke="none" stroke-width="0"/><path d="M222.60005,167.08034c5.21687,-5.01105 14.21109,-6.76047 23.02945,-3.81894c8.18054,2.72877 14.0404,8.77083 15.75043,15.32222c0.73188,2.80395 6.34118,5.29851 4.60397,10.284c-2.90922,5.48232 -7.36107,3.10745 -9.5116,4.87644c-5.31344,4.37075 -13.78582,5.7685 -22.10181,2.99455c-8.69632,-2.90082 -14.7701,-9.5459 -16.02393,-16.56679c-0.43044,-2.41026 -6.21719,-4.57886 -3.72644,-9.24078c2.39401,-4.48085 6.28597,-2.22357 7.97993,-3.8507z" fill="#ffce2e" stroke="#000000" stroke-width="2"/></g></g></svg>