<svg version="1.1" xmlns="http://www.w3.org/2000/svg" xmlns:xlink="http://www.w3.org/1999/xlink" width="104.21697" height="118.12449" viewBox="0,0,104.21697,118.12449"><defs><radialGradient cx="255.93419" cy="199.5789" r="7.3567" gradientUnits="userSpaceOnUse" id="color-1"><stop offset="0" stop-color="#54606d"/><stop offset="1" stop-color="#2c3136"/></radialGradient></defs><g transform="translate(-183.92324,-120.28345)"><g data-paper-data="{&quot;isPaintingLayer&quot;:true}" stroke-miterlimit="10" stroke-dasharray="" stroke-dashoffset="0" style="mix-blend-mode: normal"><path d="M249.25373,196.55357c0.76743,0.2077 10.61197,4.95388 12.97541,2.54251c2.84859,-2.83642 6.51352,-7.89271 12.12625,-5.99678c5.61272,1.89591 -2.53098,9.59869 -6.18854,12.0367c-8.79988,5.35358 -17.69007,1.67332 -19.66483,0.56456c-1.97477,-1.10876 -5.40985,-2.95373 -5.94994,-5.43302c-0.44477,-2.70475 4.06331,-4.55363 6.70163,-3.71396z" fill="#ff0000" fill-rule="evenodd" stroke="#001026" stroke-width="1.2" stroke-linecap="round" stroke-linejoin="round"/><g fill-rule="evenodd"><path d="M223.3834,202.71259c0.79281,0.43725 2.47493,1.41594 -0.14523,4.66177c-2.62015,3.24583 -9.67626,3.58627 -10.49009,3.54533c-3.15886,-0.05957 -7.02458,-0.25403 -11.22365,-1.85605c-12.2008,-4.58743 -11.61421,-17.57174 -7.53643,-19.4528c3.97605,-1.88617 5.27985,6.22612 10.6175,11.36239c2.3259,2.30253 5.23402,3.24356 7.64925,3.86176c3.42727,0.76846 10.23934,-2.66386 11.12863,-2.12242z" fill="#ffab19" stroke="#001026" stroke-width="1.2" stroke-linecap="round" stroke-linejoin="round"/><path d="M198.58012,193.41816c1.4858,2.75698 4.43974,6.68057 4.43974,6.68057c0,0 -3.7167,-1.08104 -5.94233,0.49581c-1.7977,1.20101 -1.50639,3.40119 -1.33971,4.10498c-1.25417,-1.35454 -2.78727,-3.21982 -3.62066,-6.73871c-0.83339,-3.51889 0.40459,-7.62899 2.4707,-8.12111c2.0556,-0.29396 2.48543,1.21779 3.99225,3.57846z" fill="#ffffff" stroke="none" stroke-width="1" stroke-linecap="butt" stroke-linejoin="miter"/></g><path d="M242.15929,205.09616c0.28697,0.64215 0.84859,1.83822 1.49419,3.42028c1.22602,3.00437 2.75496,7.4007 3.28122,12.03866l0.01332,0.34802c0.01332,0.34802 0.48319,0.69932 0.93973,0.70257c2.85133,-0.36617 8.48677,-0.86706 9.00442,4.04628c0.56245,4.75903 -16.16949,6.84281 -19.03711,2.1446c-1.0154,-2.01752 0.08601,-3.05341 0.6994,-3.59024c0.31789,-0.30699 0.42991,-0.69278 0.43901,-1.11796c-0.1429,-1.08347 -0.47347,-3.09607 -1.01901,-4.7623c-1.30118,-4.18444 -2.00354,-5.31056 -3.09949,-7.44463c-1.09594,-2.13406 -3.87391,-7.1409 0.24898,-8.73505c3.4962,-1.40535 6.18097,1.16534 7.03531,2.94975z" fill="#513726" fill-rule="evenodd" stroke="#001026" stroke-width="1.2" stroke-linecap="round" stroke-linejoin="round"/><path d="M218.65669,208.01049c1.01529,-2.06149 3.98138,-5.15759 7.49269,-3.89603c4.14538,1.41742 0.90287,7.23478 -0.38806,9.70666c-1.29093,2.47188 -1.28549,3.78704 -2.94018,8.56026c-0.68723,1.90305 -1.9927,4.17321 -2.22052,5.39228c-0.01225,0.26315 -3.57061,10.46214 -12.12599,10.02033c-7.55346,-0.39007 3.89805,-12.15212 3.89805,-12.15212c0,0 2.9965,-10.24 4.48624,-13.69245c0.78448,-1.81801 1.45359,-3.19885 1.79778,-3.93893z" data-paper-data="{&quot;index&quot;:null}" fill="#513726" fill-rule="evenodd" stroke="#001026" stroke-width="1.2" stroke-linecap="round" stroke-linejoin="round"/><path d="M227.28391,207.81978v0c-0.00001,0 -0.00001,0 -0.00001,0z" fill="#513726" fill-rule="nonzero" stroke="#001026" stroke-width="1.2" stroke-linecap="butt" stroke-linejoin="miter"/><g><g fill-rule="evenodd"><path d="M229.117,209.40714c-13.39031,-4.33399 -9.43852,-9.6499 -10.21023,-14.69016c-0.4818,-4.3697 1.06583,-4.04536 7.36966,-5.00618c3.45054,-0.69978 5.48427,-1.10635 7.43077,-1.92461c2.95355,-1.18426 5.64781,3.15731 6.51319,5.61401c0,0 1.21854,3.65854 1.31231,5.73058c0.08942,2.51702 0.00443,4.21064 -0.486,5.38651c0,0 -1.05327,2.52763 -3.1356,3.38115c-1.87178,0.76722 -8.79414,1.5087 -8.79414,1.5087z" fill="#ff0000" stroke="#001026" stroke-width="1.2" stroke-linecap="round" stroke-linejoin="round"/><path d="M240.1552,204.73044c0,0 -2.18412,-0.53641 -4.66252,-1.29842c-3.04732,-0.8878 -5.89191,-1.51671 -6.15572,-4.85714c0.02612,-2.66986 -0.57991,-5.99676 5.49944,-4.99156c5.76112,0.89916 5.71102,3.68857 5.71102,3.68857c1.02675,4.61503 -0.39223,7.45855 -0.39223,7.45855z" fill="#ffffff" stroke="none" stroke-width="1" stroke-linecap="butt" stroke-linejoin="miter"/></g><path d="M241.04673,204.51728c0,0 -1.05327,2.52763 -3.1356,3.38115c-1.8706,0.76673 -8.78541,1.50777 -8.79413,1.5087c-9.29002,-3.00687 -10.23259,-6.48638 -10.19646,-10.01856c0.2778,0.06475 0.52515,0.11956 0.73616,0.16416c7.36646,1.55702 14.30191,2.48623 21.56848,4.45435c-0.05235,0.18019 -0.11163,0.35 -0.17846,0.5102z" fill="#513726" fill-rule="nonzero" stroke="#001026" stroke-width="1.2" stroke-linecap="butt" stroke-linejoin="miter"/></g><g><g fill-rule="evenodd"><path d="M253.45078,139.86808c0.29394,-0.2088 0.79668,-0.12367 0.9085,0.27319l2.91601,10.61822c0,0 6.53649,4.50824 8.53347,7.75047c3.36161,5.40274 3.59496,9.8978 3.59496,9.8978c0,0 7.15913,1.88864 8.52754,7.55057c1.36842,5.66193 -2.70953,16.58759 -21.3916,20.84321c-18.68207,4.25562 -33.9266,-0.39457 -41.36138,-11.57912c-7.43478,-11.18454 3.35719,-25.11054 2.78116,-24.29311c0,0 -1.50762,-15.90445 -1.10186,-15.7164l11.5859,4.90089c0,0 4.44763,-1.83263 9.13964,-2.17186c2.79284,-0.2829 5.19771,-0.15412 7.50856,0.17751z" fill="#ffab19" stroke="#001026" stroke-width="1.2" stroke-linecap="butt" stroke-linejoin="miter"/><path d="M269.1157,168.81648c0,0 6.95033,1.59468 8.31874,7.25662c1.36842,5.66193 -3.12418,16.09967 -21.6093,20.2494c-24.04116,5.71509 -35.96293,-8.33771 -29.58006,-19.13164c6.37991,-10.89388 18.14458,-2.13875 26.5231,-2.98746c7.18201,-0.71319 7.79493,-7.03414 16.34752,-5.38692z" fill="#ffffff" stroke="none" stroke-width="1" stroke-linecap="butt" stroke-linejoin="miter"/><path d="M287.54021,169.37062c-4.58531,3.93764 -11.77917,4.25101 -11.77917,4.25101" fill="none" stroke="#001026" stroke-width="1.2" stroke-linecap="round" stroke-linejoin="round"/><path d="M286.57276,180.60423c-6.28242,0.68651 -10.23702,-1.09705 -10.23702,-1.09705" fill="none" stroke="#001026" stroke-width="1.2" stroke-linecap="round" stroke-linejoin="round"/><path d="M252.29129,171.6164c2.09908,-0.06224 4.30405,0.07246 4.42475,0.76919c0.14146,1.39642 -1.2749,4.23965 -2.87124,4.38703c-1.79329,0.25327 -6.06555,-2.12115 -6.11296,-3.72045c-0.13553,-1.1965 2.56032,-1.37649 4.55944,-1.43577z" fill="#001026" stroke="#001026" stroke-width="1.2" stroke-linecap="round" stroke-linejoin="round"/><path d="M207.2666,171.45087c0,0 8.67921,2.54386 12.26956,5.53876" fill="none" stroke="#001026" stroke-width="1.2" stroke-linecap="round" stroke-linejoin="round"/><path d="M219.93978,180.47921c-4.24771,1.8267 -11.67707,0.94653 -11.67707,0.94653" fill="none" stroke="#001026" stroke-width="1.2" stroke-linecap="round" stroke-linejoin="round"/><g><path d="M263.73932,159.57178c3.03211,4.41207 3.28324,9.50685 0.53781,11.38906c-2.74542,1.8822 -7.40564,-0.08053 -10.5377,-4.48963c-3.03211,-4.41206 -3.28324,-9.50685 -0.53782,-11.38906c2.74246,-1.98216 7.5056,0.07756 10.53771,4.48963z" fill="#ffffff" stroke="#001026" stroke-width="1.2" stroke-linecap="round" stroke-linejoin="round"/><path d="M257.25812,165.25889c0.03261,1.09952 -0.74037,2.02283 -1.73994,2.05248c-0.99957,0.02963 -1.82588,-0.84626 -1.85849,-1.94577c-0.03261,-1.09952 0.74036,-2.02283 1.73993,-2.05247c0.99957,-0.02963 1.82588,0.84626 1.8585,1.94577" fill="#001026" stroke="none" stroke-width="1" stroke-linecap="butt" stroke-linejoin="miter"/></g><g><path d="M239.0332,163.10563c3.1291,4.30915 3.08924,9.7127 0.44675,11.69189c-3.24223,1.99698 -7.68179,0.72802 -10.81089,-3.58113c-3.22906,-4.30618 -3.59792,-9.99776 -0.56449,-12.28867c3.03046,-2.39087 7.79952,-0.13124 10.92863,4.1779z" fill="#ffffff" stroke="#001026" stroke-width="1.2" stroke-linecap="round" stroke-linejoin="round"/><path d="M231.90516,169.10603c0.03261,1.09952 -0.74037,2.02283 -1.73993,2.05248c-0.99956,0.02963 -1.82588,-0.84626 -1.85849,-1.94577c-0.03261,-1.09952 0.74037,-2.02283 1.73994,-2.05247c1.00253,0.07032 1.82588,0.84625 1.85849,1.94576" fill="#001026" stroke="none" stroke-width="1" stroke-linecap="butt" stroke-linejoin="miter"/></g></g><path d="M261.07155,192.87895c-0.00551,-0.66613 0.2834,-1.28417 0.75893,-1.75322c-0.00378,-0.04994 -0.00593,-0.10033 -0.00634,-0.15115c-0.00704,-0.84935 0.46462,-1.62054 1.19145,-2.10435c-0.03825,-0.15981 -0.05902,-0.326 -0.06044,-0.49704c-0.0041,-0.49596 0.155,-0.96527 0.43283,-1.36627c-0.16444,-0.30822 -0.25748,-0.65455 -0.26053,-1.02342c-0.0058,-0.69956 0.31316,-1.34611 0.83195,-1.82273c-0.52631,-0.43132 -0.85575,-1.04977 -0.86154,-1.74934c-0.00177,-0.21277 0.02651,-0.42063 0.08131,-0.62029c-0.05985,-0.10582 -0.11117,-0.21635 -0.15317,-0.33093c-0.59873,-0.08535 -1.12925,-0.34122 -1.52564,-0.71244c-0.27775,0.10227 -0.57633,0.16768 -0.88792,0.18891c-0.41641,0.235 -0.9022,0.38041 -1.42181,0.40293c-0.11721,0.00507 -0.23281,0.00376 -0.34637,-0.00361c-0.50409,0.45485 -1.19199,0.75092 -1.95226,0.78386c-0.33709,0.01461 -0.66083,-0.0237 -0.96134,-0.10668c-0.29891,0.10897 -0.62179,0.1753 -0.95888,0.18991c-0.6975,0.03022 -1.33781,-0.16611 -1.83358,-0.516c-0.37389,0.17959 -0.79528,0.2896 -1.24161,0.30896c-0.79634,0.03451 -1.51812,-0.2263 -2.03538,-0.67378c-0.37181,0.17724 -0.79024,0.28576 -1.23325,0.30496c-0.09724,0.00421 -0.19336,0.00402 -0.28815,-0.00038c-0.09463,0.01261 -0.19069,0.02112 -0.28794,0.02534c-0.37522,0.01627 -0.73388,-0.03305 -1.0624,-0.13654c-0.09309,0.01226 -0.18756,0.02056 -0.28316,0.02471c-0.3734,0.01618 -0.73041,-0.03257 -1.05762,-0.13504c-0.32528,0.13076 -0.68123,0.2104 -1.05462,0.22658c-0.76808,0.03329 -1.46679,-0.20817 -1.97953,-0.62684c-0.40777,0.24208 -0.88587,0.39699 -1.39925,0.43197c-0.04574,0.02582 -0.09231,0.05053 -0.13966,0.07415c-0.51079,0.50471 -1.23747,0.83733 -2.04601,0.87237c-0.15415,0.00668 -0.30549,0.0023 -0.4531,-0.01237c-0.21646,0.33524 -0.5145,0.62617 -0.86958,0.8498c0.55085,0.43249 0.89777,1.0651 0.90371,1.78317c0.00028,0.0326 -0.00016,0.06508 -0.00129,0.09743c0.2485,0.36016 0.39279,0.78584 0.3966,1.24671c0.00369,0.44669 -0.125,0.87174 -0.35358,1.24475c0.69097,0.42649 1.14165,1.13452 1.14844,1.95382c0.00369,0.44669 -0.125,0.87174 -0.35358,1.24475c0.69097,0.42649 1.14165,1.13452 1.14844,1.95382c0.00519,0.6276 -0.25097,1.21252 -0.67831,1.67036c0.31856,0.38999 0.50728,0.87175 0.51164,1.39973c0.01144,1.38151 -1.24356,2.55624 -2.80315,2.62383c-1.55959,0.0676 -2.83315,-0.99755 -2.84458,-2.37906c-0.00519,-0.6276 0.25096,-1.21253 0.67831,-1.67036c-0.31856,-0.38999 -0.50728,-0.87176 -0.51165,-1.39973c-0.00369,-0.44669 0.125,-0.87174 0.35358,-1.24475c-0.69097,-0.42649 -1.14165,-1.13452 -1.14844,-1.95382c-0.00369,-0.44669 0.125,-0.87174 0.35359,-1.24476c-0.69097,-0.42649 -1.14165,-1.13452 -1.14844,-1.95382c-0.00028,-0.0326 0.00017,-0.06508 0.00129,-0.09743c-0.2485,-0.36016 -0.39279,-0.78583 -0.39661,-1.24671c-0.00174,-0.21008 0.02581,-0.41537 0.07925,-0.61272c-0.64104,-0.43102 -1.054,-1.11315 -1.0605,-1.89715c-0.00797,-0.96263 0.59895,-1.82486 1.49536,-2.28211c0.3866,-0.97719 1.42042,-1.70789 2.64069,-1.76077c0.15415,-0.00668 0.30549,-0.0023 0.4531,0.01237c0.26851,-0.41584 0.66252,-0.76349 1.13523,-0.99909c0.49379,-0.48792 1.18933,-0.81501 1.96554,-0.8679c0.41641,-0.235 0.90221,-0.38042 1.42181,-0.40294c0.76808,-0.03329 1.46679,0.20817 1.97953,0.62685c0.429,-0.25467 0.93582,-0.41289 1.4797,-0.43646c0.3734,-0.01618 0.73041,0.03257 1.05763,0.13505c0.32528,-0.13076 0.68123,-0.2104 1.05463,-0.22658c0.37522,-0.01627 0.73387,0.03304 1.0624,0.13654c0.09309,-0.01226 0.18756,-0.02056 0.28316,-0.02471c0.09724,-0.00421 0.19336,-0.00403 0.28815,0.00037c0.09463,-0.01261 0.19068,-0.02111 0.28792,-0.02532c0.79634,-0.03451 1.51812,0.2263 2.03537,0.67377c0.37181,-0.17724 0.79024,-0.28575 1.23326,-0.30496c0.6975,-0.03022 1.3378,0.1661 1.83358,0.516c0.37389,-0.17959 0.79528,-0.2896 1.24163,-0.30896c0.33709,-0.01461 0.66083,0.0237 0.96134,0.10668c0.29891,-0.10897 0.6218,-0.1753 0.95889,-0.18991c0.11721,-0.00507 0.23281,-0.00376 0.34637,0.00361c0.48624,-0.43875 1.14352,-0.72976 1.87181,-0.77939c0.41641,-0.235 0.9022,-0.38042 1.42181,-0.40294c0.83521,-0.0362 1.58839,0.25248 2.10963,0.74064c0.30158,-0.11104 0.62772,-0.17862 0.96837,-0.19338c1.26586,-0.05485 2.34329,0.63652 2.71034,1.63762c1.28155,0.1827 2.25062,1.14659 2.26059,2.35087c0.00177,0.21277 -0.02651,0.42062 -0.08131,0.62029c0.18116,0.32033 0.28421,0.68384 0.28742,1.07238c0.0058,0.69956 -0.31317,1.34611 -0.83196,1.82273c0.52631,0.43132 0.85575,1.04977 0.86154,1.74934c0.0041,0.49596 -0.155,0.96526 -0.43283,1.36627c0.16444,0.30822 0.25748,0.65456 0.26053,1.02343c0.00704,0.84935 -0.46463,1.62054 -1.19145,2.10435c0.03825,0.15981 0.05902,0.326 0.06044,0.49704c0.00551,0.66613 -0.2834,1.28418 -0.75894,1.75322c0.00378,0.04994 0.00592,0.10032 0.00634,0.15114c0.01145,1.38151 -1.24358,2.55624 -2.80316,2.62383c-1.55958,0.0676 -2.83315,-0.99755 -2.84459,-2.37906z" fill="#ffffff" fill-rule="nonzero" stroke="#001026" stroke-width="1.2" stroke-linecap="butt" stroke-linejoin="miter"/><g fill-rule="nonzero" stroke-linecap="butt" stroke-linejoin="miter"><g><path d="M196.25373,164.04815c-0.49008,-3.07323 1.95859,-6.24731 5.46925,-7.08952c3.51067,-0.84221 6.75391,0.9664 7.244,4.03963c0.49008,3.07323 -1.95859,6.24731 -5.46925,7.08952c-3.51067,0.84221 -6.75391,-0.96639 -7.24399,-4.03961z" fill="#ffffff" stroke="#001026" stroke-width="1.2"/><path d="M215.10891,126.3006c0.57039,0.95935 -0.57955,1.60063 -0.57955,1.60063l-0.72684,0.36031c-2.24916,2.02297 -3.86215,4.75143 -5.34779,7.23224c-0.82423,7.95752 -7.04227,15.22441 -5.67909,23.31532c0,0 0.17747,1.11292 -1.09385,1.41791c-1.27133,0.30498 -1.4488,-0.80792 -1.4488,-0.80792c-1.29279,-8.49015 4.68794,-16.00704 5.77334,-24.33113c1.62883,-2.89516 3.51615,-5.98434 6.09045,-8.34007l1.29179,-0.76537c0,0 1.14997,-0.64128 1.72036,0.31808z" fill="#001026" stroke="none" stroke-width="0.5"/></g><g stroke="#001026" stroke-width="1.2"><path d="M220.55846,165.20222c-1.54417,-0.76324 -3.749,-0.95278 -4.89477,-2.06199c-0.17473,-0.16917 -0.32485,-0.35971 -0.44421,-0.57695c-0.22778,-0.41451 -0.38029,-0.90161 -0.47389,-1.44099c-0.03361,-0.17442 -0.05785,-0.35246 -0.07235,-0.53376c-0.32603,-3.23412 1.07091,-7.93781 1.21582,-10.41516c0.10742,-1.83654 0.09708,-4.19369 -0.32921,-5.9081c-1.22788,-4.93818 -7.14239,-18.59959 0.04661,-22.43459c6.02673,-3.21499 11.38088,2.56762 14.67159,5.24727c5.47552,4.45874 12.96567,10.77939 20.42501,12.74914c3.4003,0.8979 8.80262,3.71528 7.51935,7.80491c-3.77204,12.02104 -19.72299,3.40247 -28.73846,6.63502c-3.67679,1.31834 -0.09885,6.22661 -3.15731,7.85815z" fill="#ff0000"/><path d="M263.84206,148.02107c3.53318,-0.15313 6.16571,2.30296 5.87995,5.4858c-0.28576,3.18286 -3.38162,5.88721 -6.9148,6.04034c-2.5077,0.10868 -4.56171,-1.09703 -5.4406,-2.94411c-0.67188,0.23128 -1.38338,0.37188 -2.11354,0.40352c-2.68946,0.11655 -4.85707,-1.27873 -5.61291,-3.35562c-1.20159,1.99147 -3.52537,3.43299 -6.0773,3.54359c-2.27692,0.09868 -4.17982,-0.88626 -5.16866,-2.451c-1.28584,1.30198 -3.11177,2.17253 -5.07237,2.2575c-0.62451,0.02706 -1.22089,-0.02739 -1.77798,-0.15296c0.00263,0.17895 -0.00414,0.36071 -0.02069,0.5449c-0.28576,3.18286 -3.38162,5.88719 -6.9148,6.04032c-0.02801,0.00121 -0.05593,0.00226 -0.08382,0.00315c-0.75375,2.74604 -3.57061,4.9352 -6.73917,5.07253c-3.53318,0.15313 -6.1657,-2.30297 -5.87994,-5.48581c0.28576,-3.18286 3.38163,-5.8872 6.91481,-6.04033c0.02801,-0.00121 0.05594,-0.00226 0.08382,-0.00315c0.75375,-2.74603 3.57061,-4.93518 6.73916,-5.07251c0.62451,-0.02706 1.22089,0.02739 1.77798,0.15297c-0.00263,-0.17895 0.00414,-0.36072 0.02069,-0.5449c0.28576,-3.18286 3.38163,-5.8872 6.91481,-6.04033c2.27692,-0.09868 4.17981,0.88626 5.16865,2.451c1.28584,-1.30198 3.11177,-2.17254 5.07236,-2.2575c2.68946,-0.11655 4.85708,1.27874 5.6129,3.35564c1.20159,-1.99147 3.52538,-3.43301 6.07731,-3.54361c2.5077,-0.10868 4.56169,1.09703 5.44058,2.94412c0.67188,-0.23128 1.38337,-0.37188 2.11354,-0.40352z" fill="#ffffff"/></g></g></g><g fill-rule="nonzero" stroke="none" stroke-width="0.5" stroke-linecap="butt" stroke-linejoin="miter"><path d="M204.89384,186.8096c-0.113,0.00682 -0.22704,0.01146 -0.34166,0.01394c-1.09406,0.0238 -2.3803,-0.23445 -3.49138,-0.34751c-0.4566,-0.05011 -0.92007,-0.20205 -1.32082,-0.40601c-0.34149,-0.17379 0.26823,0.61503 0.14282,0.87593c-0.38438,0.79966 -1.54031,2.5022 -2.67974,2.83203c-1.7181,0.49733 -6.52882,-1.7436 -5.39591,-3.16951c0.33662,-0.42368 -1.24734,0.45591 -1.94969,0.39387c-1.73828,-0.15351 -2.67867,-0.25924 -3.75587,-1.48242c-1.41093,-1.81139 -0.60278,-3.45214 -0.9776,-5.33495c-0.17487,-0.8784 -0.92824,-1.68564 -1.12642,-2.61403c-0.60533,-2.83557 2.60053,-3.81151 5.47422,-4.24362c4.24366,-1.56509 10.6631,0.79576 14.23071,2.9346c1.59737,0.95764 3.74965,1.70798 4.83441,3.02489c2.16527,0.66876 3.76208,2.29484 5.75452,3.23108c2.34863,1.10361 5.23024,2.17784 6.76859,4.0191c1.24394,1.48889 2.35719,3.61907 -0.12637,4.22152c-5.61563,0.77344 -10.52162,-1.9279 -15.64475,-3.67474zM206.84488,186.38913c4.27496,1.64491 8.94047,3.90967 13.57582,3.17902c1.3298,0.1656 -0.61525,-2.62047 -1.16272,-3.08247c-1.50556,-1.27053 -3.84193,-2.09025 -5.67315,-2.96197c-2.11592,-1.00725 -3.78828,-2.53573 -6.02536,-3.38295c-2.6767,-3.24955 -12.77388,-7.63589 -17.3762,-5.66333c-5.29015,0.76058 -4.27756,2.23967 -3.46674,5.6774c0.37305,1.58167 -0.58566,3.37516 0.72632,4.83608c1.33079,1.82014 3.9107,-0.16002 5.5035,0.88514c0.78964,0.51815 1.17982,3.4418 3.58122,2.74276c1.7508,-0.50966 1.08411,-3.21163 2.48821,-3.69554c0.58575,-0.20187 1.35861,0.29064 2.04226,0.35276c1.3602,0.1384 4.09228,0.74046 5.17114,0.00986c0.35476,-0.24025 -1.70511,-1.56446 -1.9384,-1.6865c-2.34626,-1.22734 -4.30514,-2.47223 -6.68676,-3.57867c0,0 -0.72234,-0.34176 -0.3627,-0.8417c0.35963,-0.49994 1.08198,-0.15817 1.08198,-0.15817c2.69828,1.2956 6.64671,2.91165 8.67792,4.99663c1.12682,1.15665 0.79192,1.93356 -0.15634,2.37164z" fill="#001026"/><path d="M206.9419,183.98783c-2.03121,-2.08498 -5.86539,-3.63689 -8.56367,-4.93248c0,0 -0.71775,-0.34688 -1.07738,0.15306c-0.35963,0.49994 0.36617,0.83629 0.36617,0.83629c2.38162,1.10643 4.24819,2.27936 6.59445,3.5067c0.2333,0.12204 2.36271,1.53846 2.00795,1.77871c-1.07886,0.7306 -3.88343,0.12488 -5.24363,-0.01353c-0.68365,-0.06212 -1.3754,-0.62447 -1.96114,-0.42261c-1.4041,0.48391 -0.82585,3.25153 -2.57665,3.76119c-2.4014,0.69904 -2.8096,-2.24109 -3.59925,-2.75924c-1.5928,-1.04517 -4.1782,0.92594 -5.50898,-0.8942c-1.31198,-1.46092 -0.35739,-3.2736 -0.73044,-4.85527c-0.81081,-3.43773 -1.81261,-4.94142 3.47754,-5.702c4.60233,-1.97256 14.8076,2.42013 17.4843,5.66969c2.23707,0.84722 3.92496,2.4108 6.04088,3.41805c1.83122,0.87172 4.16602,1.70059 5.67158,2.97112c0.54747,0.462 2.48838,3.25701 1.15858,3.09141c-4.63534,0.73065 -9.32522,-1.51516 -13.60018,-3.16007c0.94826,-0.43808 1.1867,-1.29014 0.05988,-2.4468z" data-paper-data="{&quot;noHover&quot;:false,&quot;origItem&quot;:[&quot;Path&quot;,{&quot;applyMatrix&quot;:true,&quot;segments&quot;:[[[421.10361,371.80441],[1.8754,-0.92051],[8.62489,3.08795]],[[448.39719,377.52252],[-9.23378,1.6788],[2.66666,0.2686]],[[445.9275,371.41394],[1.11635,0.89801],[-3.07002,-2.46958]],[[434.4451,365.75832],[3.7024,1.65688],[-4.27802,-1.91448]],[[422.23869,359.27755],[4.51274,1.5888],[-5.50468,-6.37149]],[[387.22966,348.77087],[9.10938,-4.16037],[-10.54162,1.76943]],[[380.56498,360.2855],[-1.78279,-6.83545],[0.82024,3.14493]],[[382.24456,369.92084],[-2.69192,-2.85935],[2.7464,3.57672]],[[393.29012,371.43192],[-3.23385,-2.01488],[1.6032,0.99889]],[[400.57953,376.74757],[-4.76862,1.51059],[3.47667,-1.10133]],[[405.38085,369.24157],[-2.78468,1.03356],[1.16167,-0.43116]],[[409.48084,369.85089],[-1.36984,-0.09206],[2.72616,0.21279]],[[419.82071,369.6275],[-2.12277,1.51153],[0.69804,-0.49704]],[[415.86569,366.34656],[0.4722,0.23304],[-4.74892,-2.34371]],[[402.32763,359.50554],[4.81394,2.10031],[0,0]],[[401.56286,357.83965],[-0.69557,1.0165],[0.69557,-1.0165]],[[403.71877,357.47254],[0,0],[5.45599,2.46363]],[[421.3047,367.05509],[-4.15931,-4.07332],[2.3074,2.25969]]],&quot;closed&quot;:true}]}" fill="#ffab19"/></g><g fill-rule="nonzero" stroke="none" stroke-width="0.5" stroke-linecap="butt" stroke-linejoin="miter"><path d="M253.71191,197.67627c-0.08238,0.15868 -0.34258,0.55954 -0.70521,0.1507c-0.44287,-0.49932 -0.15277,-1.20769 -0.15277,-1.20769c1.20953,-2.94589 5.21958,-18.14139 6.80093,-8.36653c0.07241,1.83339 -0.39514,6.99616 -1.21241,8.40389c-0.68178,1.17434 -3.05536,1.09872 -3.99464,1.46395l-0.22876,0.02794c0,0 -0.36424,0.01762 -0.50712,-0.47225zM254.16942,196.42813l0.00515,0.00356c0.59093,-0.22142 3.16884,-0.33606 3.47309,-0.96401c0.57031,-1.17708 1.02249,-5.40703 0.96228,-6.99331c-0.11168,-0.69035 0.16272,-2.36906 -0.23262,-2.10292c-2.22954,1.50095 -3.08046,6.59315 -4.20789,10.05667z" fill="#001026"/><path d="M258.40107,186.31197c0.39534,-0.26614 0.13112,1.42784 0.24281,2.1182c0.06022,1.58627 -0.40559,5.92563 -0.9759,7.10271c-0.30424,0.62795 -2.92769,0.73521 -3.51862,0.95663l-0.0052,-0.00361c1.12743,-3.46352 2.02737,-8.67298 4.25691,-10.17393z" data-paper-data="{&quot;noHover&quot;:false,&quot;origItem&quot;:[&quot;Path&quot;,{&quot;applyMatrix&quot;:true,&quot;segments&quot;:[[[507.46006,391.14667],[2.40899,-6.49772],[0,0]],[[507.47093,391.15338],[0,0],[1.25162,-0.4122]],[[514.82471,389.36429],[-0.64795,1.17743],[1.21459,-2.20711]],[[516.90877,376.23647],[0.11639,2.97946],[-0.23148,-1.2972]],[[516.43123,372.28567],[0.83816,-0.4974],[-4.72685,2.80513]]],&quot;closed&quot;:true}]}" fill="#ffffff"/></g><g fill-rule="nonzero" stroke="#001026" stroke-width="1.2" stroke-linejoin="miter"><g><path d="M282.27009,191.20165l-17.8448,13.17854l-6.21378,-11.66537l19.99829,-7.54439c0,0 2.45845,0.94075 3.11409,1.91468c0.69543,1.03302 0.9462,4.11654 0.9462,4.11654z" fill="#505a63" stroke-linecap="butt"/><path d="M263.56644,205.68532c-3.58599,1.91015 -8.04148,0.55161 -9.95161,-3.03437c-1.91015,-3.58598 -0.5516,-8.04149 3.03437,-9.95161c3.58599,-1.91015 8.04149,-0.55161 9.95161,3.03438c1.91015,3.58598 0.5516,8.04148 -3.03439,9.95162z" fill="url(#color-1)" stroke-linecap="butt"/><path d="M267.13415,198.999c0,0 -3.58262,2.93662 -5.47579,3.97283c-1.76937,0.96845 -5.53692,2.05491 -5.53692,2.05491" fill="none" stroke-linecap="round"/><path d="M263.78905,193.02258c0,0 -4.37764,3.73947 -6.24037,4.96863c-1.37631,0.90816 -3.92513,1.73925 -3.92513,1.73925" fill="none" stroke-linecap="round"/><path d="M263.98397,205.52592c0,0 -4.26496,-2.65467 -5.91426,-4.57248c-1.43488,-1.66846 -3.42817,-6.29087 -3.42817,-6.29087" fill="none" stroke-linecap="round"/><path d="M267.57766,201.34884c0,0 -4.50162,-3.21758 -6.28516,-4.9114c-1.38645,-1.3167 -3.52799,-4.40818 -3.52799,-4.40818" fill="none" stroke-linecap="round"/></g><path d="M270.58043,185.86016c2.38771,-1.28108 5.57827,-0.52431 7.12636,1.69029c1.54809,2.21459 1.64701,4.87591 -0.7407,6.15698c-2.38771,1.28108 -6.35784,0.69682 -7.90591,-1.51778c-1.54809,-2.21459 -0.86745,-5.0484 1.52026,-6.32949z" fill="#ffab19" stroke-linecap="butt"/></g></g></g></svg>