<svg version="1.1" xmlns="http://www.w3.org/2000/svg" xmlns:xlink="http://www.w3.org/1999/xlink" width="143.94803" height="126.30269" viewBox="0,0,143.94803,126.30269"><g transform="translate(-153.66261,-126.0529)"><g data-paper-data="{&quot;isPaintingLayer&quot;:true}" fill-rule="nonzero" stroke-linejoin="miter" stroke-miterlimit="10" stroke-dasharray="" stroke-dashoffset="0" style="mix-blend-mode: normal"><path d="M253.40933,188.45958c2.96232,-5.7268 31.14294,6.18941 37.99833,14.93225c10.38307,13.24177 -10.60429,16.50313 -19.77595,15.28904c-5.99344,-0.79338 -12.71487,0.62458 -14.98009,-10.23431c-2.26522,-10.85889 12.49555,-7.34205 13.71898,-8.09616c-5.9971,-2.26629 -19.70464,-6.58733 -16.96129,-11.89082z" fill="#8f21c6" stroke="#0f002d" stroke-width="1.5" stroke-linecap="round"/><g stroke="#0f002d" stroke-width="1.5"><path d="M247.36678,231.79582c-0.99736,-3.81167 6.80343,-7.55295 11.29471,-7.55295c1.33314,0 8.68045,0.53259 9.81793,1.27378c3.66048,2.38523 11.23469,0.42126 10.95136,4.70387c-0.28333,4.28262 -31.44828,3.92833 -32.06397,1.57529z" fill="#e9caf8" stroke-linecap="butt"/><path d="M210.5465,245.48676c-1.0881,-4.18475 -2.56738,-13.11555 1.33672,-14.80015c6.24155,-2.69318 17.12589,-3.76656 17.64557,4.00341c4.87499,5.98312 11.23414,13.84517 -2.59474,16.52341c-7.761,1.50308 -15.29086,-1.50883 -16.38756,-5.72666z" fill="#e9caf8" stroke-linecap="butt"/><g fill="#414ca9" stroke-linecap="round"><path d="M246.86765,226.51893c-2.54711,-2.29075 -2.8692,-2.62658 -0.58456,-4.70826c-2.49814,-0.82142 -8.7882,-3.82918 -11.94355,-5.13173c7.37307,-1.98142 -1.51481,-0.37641 -1.61677,-0.3259c-0.54835,0.27162 9.85966,10.06293 9.71481,12.29573c-0.23529,3.62704 -6.81986,2.18782 -12.42617,6.66935c-3.845,3.07358 -17.74551,4.80916 -20.704,1.8289c-2.35726,-2.3746 -4.17854,-11.26467 5.85365,-11.315c-4.15313,-3.30015 -12.45117,-7.83384 -11.5324,-15.85216c0.85328,-7.44652 42.80729,-0.9796 44.45295,-1.31742c0.36023,-0.07395 19.18004,7.05673 25.1194,10.98297c0.16327,1.9215 -4.19288,2.48158 -5.18992,3.72687c2.47351,4.95372 -18.35714,5.6525 -21.14343,3.14666z"/></g></g><g stroke="#0f002d"><path d="M200.64388,200.69655c-0.20861,-7.01932 11.94908,-18.53849 15.3839,-17.3232c3.41316,1.20762 11.29745,1.79995 15.95298,5.64846c2.95929,2.4463 3.79019,5.35461 2.16269,11.42658c8.25137,4.22362 12.84297,7.67676 12.5763,7.92383c-1.48898,1.37957 -31.77555,4.38096 -42.58519,2.98064c0,0 -4.67725,-7.16028 -3.49065,-10.65631z" fill="#8f21c6" stroke-width="1.5" stroke-linecap="round"/><path d="M213.83996,184.9511c-0.17118,-0.9016 4.09556,-1.06601 5.12749,-1.16476c1.33233,-0.12748 15.33207,9.28488 15.67547,10.43237c0,0 -1.86098,1.23227 -6.02607,0.44455c-1.87778,-0.35514 -7.5602,-1.74317 -9.36373,-2.54618c-7.34792,-3.27163 -5.3281,-6.71796 -5.41316,-7.16598z" fill="#0f002d" stroke-width="1" stroke-linecap="butt"/><path d="M246.19823,207.93544c-1.57541,3.04951 -32.1373,4.39059 -33.12239,3.35182c-7.28015,-15.17051 21.75563,-10.05325 21.96161,-9.81489c0,0 11.44421,6.20709 11.16079,6.46307z" fill="#c168ee" stroke-width="1" stroke-linecap="round"/><path d="M239.15126,220.7882c0.02273,-5.96325 -13.41139,-13.01978 -15.68695,-16.70264c-2.27556,-3.68287 -1.93823,-11.8226 -1.93823,-11.8226" fill="none" stroke-width="1" stroke-linecap="round"/><path d="M242.20881,213.56913c-3.67383,-4.2659 -9.82751,-7.98921 -10.12405,-11.12233c-0.34081,-3.60085 -2.77908,-8.01563 -2.77908,-8.01563" fill="none" stroke-width="1" stroke-linecap="round"/></g><path d="M251.27652,198.56323c-1.45696,2.3295 -13.34273,-2.11344 -17.10775,-5.16294c-0.51622,-0.36851 -11.20013,2.76732 -12.20805,-3.21954c-2.6045,-0.88185 -10.06813,-4.92204 -8.78285,-13.29845c-5.16597,-3.02182 -12.6019,-9.93947 -6.91434,-15.69338c-1.03424,-7.19782 2.22756,-19.79645 9.56341,-21.45998c-0.8451,-6.4887 19.67907,-17.37359 27.76531,-7.96824c19.39396,-12.29979 32.8593,1.80401 32.31245,4.69084c14.8108,-1.41463 18.05917,17.85706 17.39368,19.41039c2.85928,0.81066 7.90698,17.99778 -3.87053,22.41783c0.61614,2.58196 -5.7137,13.24734 -12.90688,12.01751c-0.57255,1.75826 -5.78683,7.77968 -10.10432,7.18764c-4.48409,2.63062 -14.60365,0.90992 -15.14014,1.07834z" fill="#3d2747" stroke="#0f002d" stroke-width="1.5" stroke-linecap="round"/><g><g><path d="M252.66417,183.22245c-0.49215,3.08789 -4.25946,10.19944 -11.69191,9.01485c-7.43247,-1.18459 -13.04677,-4.87806 -12.55463,-7.96593c0.65162,-7.0604 -0.78968,-11.79098 7.65307,-8.97975c3.26757,0.06088 6.26296,3.62714 9.29452,4.11031c5.18625,1.89322 7.29895,3.82051 7.29895,3.82051z" fill="#2f1e38" stroke="none" stroke-width="0" stroke-linecap="butt"/><path d="M252.2325,181.06307c0.84533,9.6266 -11.5213,18.66079 -24.34834,3.45129" fill="none" stroke="#0f002d" stroke-width="1.5" stroke-linecap="round"/></g><path d="M278.22383,179.01592c0.07595,3.62977 -5.16439,5.42611 -13.51112,3.39273c-5.84266,1.89537 -11.33298,1.55598 -15.9922,-1.28867c-15.41274,4.75521 -24.07616,-5.28489 -20.94533,-11.19016" fill="#3d2747" stroke="#0f002d" stroke-width="1.5" stroke-linecap="round"/></g><path d="M265.82339,188.24482c4.81111,-1.8172 -1.85208,11.90746 -2.41192,11.98319c-3.34636,0.45277 -15.51913,1.65851 -17.50183,1.82919c-0.59187,0.05095 11.19458,-10.5191 19.91372,-13.81239z" fill="#0f002d" stroke="#0f002d" stroke-width="1.5" stroke-linecap="round"/><path d="M241.05461,207.51918c1.59528,-3.8054 6.14503,-4.47214 12.72526,-5.49357c2.81142,-0.4364 13.15641,1.30949 14.81577,7.98879c1.65937,6.67931 2.51454,13.65932 -7.49693,14.2962c-0.53295,0.0339 2.64376,3.01503 -3.60404,0.45376c-9.19523,-3.76954 -8.50732,-10.04862 -10.34436,-11.92904c-0.62394,-0.63866 3.96352,5.85994 0.3507,6.77979c-3.00559,0.76523 -8.53196,-7.12101 -6.44638,-12.09593z" fill="#e9caf8" stroke="#0f002d" stroke-width="1.5" stroke-linecap="round"/><g stroke="#0f002d" stroke-width="1.5" stroke-linecap="round"><path d="M181.65294,182.14385c2.40058,3.28917 6.85848,11.36339 6.50824,18.2644c-0.35024,6.90101 -3.12747,11.31571 -9.22501,11.5464c-6.42475,0.24306 -4.58649,-4.46875 -4.58649,-4.46875c0,0 -12.2749,2.74954 -14.81607,-7.12302c-12.28029,-7.3757 1.38326,-13.4366 1.38326,-13.4366c0,0 0.89674,-9.05187 5.36529,-10.08335c6.64125,-1.533 11.13963,-0.49644 15.37078,5.30091z" fill="#e9caf8"/><g fill="#5e1284"><path d="M214.81409,178.07115c3.38916,3.99465 3.04221,7.75811 -3.43452,8.23487c-3.98933,0.29366 -23.50066,-8.40569 -27.40633,-12.35724c-0.46473,-0.47019 2.4392,3.07114 2.37657,3.78505c-0.12903,11.75441 -19.65416,11.61905 -24.29087,-0.48837c-2.08239,-5.43755 16.95208,-28.85438 18.13136,-31.91841c0,0 22.49936,18.45358 34.62377,32.7441z"/></g></g></g></g></svg>