<svg version="1.1" xmlns="http://www.w3.org/2000/svg" xmlns:xlink="http://www.w3.org/1999/xlink" width="49.44943" height="35.51785" viewBox="0,0,49.44943,35.51785"><g transform="translate(-214.28223,-162.56058)"><g data-paper-data="{&quot;isPaintingLayer&quot;:true}" fill-rule="nonzero" stroke="none" stroke-linecap="butt" stroke-linejoin="miter" stroke-miterlimit="10" stroke-dasharray="" stroke-dashoffset="0" style="mix-blend-mode: normal"><path d="M238.21195,194.29138c0.43641,0.26846 0.85822,0.5852 1.20072,0.80295c-0.74547,-0.04255 -1.58551,-0.11146 -2.32995,-0.16631c0.38911,-0.20177 0.81318,-0.46827 1.12925,-0.63665z" data-paper-data="{&quot;noHover&quot;:false,&quot;origItem&quot;:[&quot;Path&quot;,{&quot;applyMatrix&quot;:true,&quot;segments&quot;:[[[237.07402,194.71242],[0.40093,-0.16448],[0.76706,0.08621]],[[239.37729,194.96706],[-0.76812,-0.07509],[-0.3529,-0.21474]],[[238.19237,194.24305],[0.44967,0.26543],[-0.32567,0.13769]]],&quot;closed&quot;:true,&quot;fillColor&quot;:[0,0,0],&quot;strokeWidth&quot;:0.5}]}" fill="#3d2747" stroke-width="0.25"/><path d="M232.34009,190.29074c-0.00982,0.02123 -0.09594,0.11452 -0.10577,0.13576c-0.78505,0.30269 -1.78348,1.50063 -2.74387,2.60939c0.43815,-1.14431 1.66412,-2.3748 2.8721,-2.78224z" data-paper-data="{&quot;noHover&quot;:false,&quot;origItem&quot;:[&quot;Path&quot;,{&quot;applyMatrix&quot;:true,&quot;segments&quot;:[[232.09844,190.29976],[[232.12177,190.26736],[0,0],[-1.24469,0.31151]],[[229.2402,192.59432],[0.45146,-1.01919],[0.98957,-0.96136]],[[232.06807,190.35623],[-0.8089,0.23692],[0.01012,-0.01883]],[[232.09844,190.29975],[-0.01012,0.01883],[0,0]]],&quot;closed&quot;:true,&quot;fillColor&quot;:[0,0,0],&quot;strokeWidth&quot;:0.5}]}" fill="#3d2747" stroke-width="0.25"/><path d="M233.32053,193.16909c0.16856,0.38529 0.34937,1.09866 0.63624,1.66708c-1.1294,0.03939 -2.33044,0.21177 -3.4451,0.5743c-0.17099,0.03269 -0.34655,0.06414 -0.51331,0.10153c-0.13513,-0.07106 -0.26571,-0.10346 -0.38211,-0.10147c1.1878,-0.90146 2.74568,-2.26101 3.2115,-3.17617c0.09768,-0.02259 0.1866,-0.0608 0.26102,-0.1103c0.05465,0.3408 0.13874,0.83239 0.23178,1.04502z" data-paper-data="{&quot;noHover&quot;:false,&quot;origItem&quot;:[&quot;Path&quot;,{&quot;applyMatrix&quot;:true,&quot;segments&quot;:[[[233.10013,192.94912],[0,0],[-0.09586,-0.19791]],[[232.87518,192.00916],[0.05631,0.31258],[-0.07668,0.04138]],[[232.60928,192.09929],[0.10065,-0.01577],[-0.47997,0.80945]],[[229.3737,194.7654],[1.22389,-0.76174],[0.11994,0.00388]],[[229.76379,194.8711],[-0.13924,-0.07122],[0.17183,-0.02586]],[[230.28781,194.79851],[-0.17619,0.02138],[1.14853,-0.27525]],[[233.75799,194.45981],[-1.16372,-0.01933],[-0.29558,-0.5309]],[[233.10013,192.94911],[0.17368,0.35859],[0,0]]],&quot;closed&quot;:true,&quot;fillColor&quot;:[0,0,0],&quot;strokeWidth&quot;:0.5}]}" fill="#3d2747" stroke-width="0.25"/><path d="M234.12388,190.32408c1.02257,0.50417 1.9878,1.81092 2.81189,2.40756c0.1533,0.11099 0.3107,0.21816 0.47341,0.31696c-0.78312,0.46521 -1.75797,1.07926 -2.0655,1.17009c-0.62203,0.18371 -0.32631,-1.24059 -0.57045,-1.795c-0.27716,-0.62938 -0.3952,-1.41503 -0.81328,-1.84399l0.14967,-0.23122c0,0 0.00568,-0.00885 0.01426,-0.02441z" data-paper-data="{&quot;noHover&quot;:false,&quot;origItem&quot;:[&quot;Path&quot;,{&quot;applyMatrix&quot;:true,&quot;segments&quot;:[[233.99448,190.44446],[[233.84398,190.64365],[0,0],[0.43078,0.41048]],[[234.69403,192.31952],[-0.28558,-0.58586],[0.25156,0.51607]],[[235.24184,193.93801],[-0.64093,0.13669],[0.31687,-0.06758]],[[237.31539,193.00265],[-0.80692,0.3848],[-0.16765,-0.09779]],[[236.82654,192.69374],[0.15796,0.10842],[-0.84913,-0.5828]],[[234.00878,190.42331],[1.05364,0.5084],[-0.00884,0.01373]]],&quot;closed&quot;:true,&quot;fillColor&quot;:[0,0,0],&quot;strokeWidth&quot;:0.5}]}" fill="#3d2747" stroke-width="0.25"/><path d="M247.26016,195.21447c0.14779,-0.11192 0.24201,-0.32202 0.38429,-0.44895l0.01779,-0.00589l0.12247,0.18577l0.72424,-0.50231c0.23659,-0.15955 0.39782,-0.42247 0.40935,-0.71392c0.01805,-0.45647 -0.28274,-0.72255 -0.74502,-0.69773c-0.08654,0.00465 -0.17109,0.02261 -0.25057,0.0509l-0.74469,0.24831c-1.80636,0.0817 -3.35833,0.12803 -5.10557,-0.15841c-1.36216,-0.51844 -2.94343,-0.91177 -4.11849,-1.77221c-1.15074,-0.84262 -2.26479,-2.42124 -3.76247,-2.7728c-2.68208,-0.62958 -5.60504,1.80123 -6.32924,4.3663l-0.23097,0.24556c-0.42649,0.63351 -0.92767,1.62528 -1.01054,2.45619c-0.4788,-0.09672 -0.93703,-0.25313 -1.34418,-0.4898c-0.63051,-0.36651 -0.87175,-1.37075 -1.6199,-1.45444c-0.39156,-0.0438 -0.64979,0.54004 -1.02762,0.70371c-1.3829,0.59902 -3.68228,-1.45846 -4.03132,-2.52266c-0.08414,-1.3065 1.13464,-3.07097 0.87573,-4.20464c-0.44286,-1.93908 -4.19595,-1.70284 -3.52835,-4.28796c0.61659,-2.38762 3.41853,-3.6456 4.54802,-5.66969c0.83814,-1.50197 -0.27586,-1.94986 0.413,-3.40655c1.09582,-2.06782 2.79002,-3.99323 5.13167,-4.67675c1.63668,-0.47775 3.83159,-0.17238 5.28007,-1.27602c1.52069,-1.15866 2.13769,-3.14678 4.11788,-3.99359c0.96595,-0.41307 2.37368,-0.19985 3.38331,-0.25619c4.18973,0.42066 7.72287,2.01192 11.71231,2.90097c3.94164,0.87841 6.21209,1.17123 8.6976,4.67138c1.48184,2.01861 0.49889,2.59192 0.74195,4.8227c0.26763,2.45643 2.7958,4.85178 1.98784,7.57861c-0.46094,1.55568 -1.56184,1.37886 -2.4905,2.3518c-0.85299,0.89368 -0.90083,2.12933 -1.17175,3.20519c-1.02562,1.70054 -2.54406,1.21867 -4.144,2c-1.46641,0.71613 -0.91693,1.37603 -1.90807,2.27181c-1.14021,1.0305 -3.23586,1.32771 -4.98429,1.25131z" data-paper-data="{&quot;noHover&quot;:false,&quot;origItem&quot;:[&quot;Path&quot;,{&quot;applyMatrix&quot;:true,&quot;segments&quot;:[[[252.61105,194.54487],[-1.17486,0.88142],[1.02126,-0.76618]],[[254.57243,192.57765],[-1.51097,0.57961],[1.64855,-0.63238]],[[258.83784,190.96869],[-1.05678,1.49631],[0.27915,-0.9651]],[[260.04253,188.11772],[-0.87891,0.77102],[0.95687,-0.8394]],[[262.60723,186.10615],[-0.47495,1.39215],[0.83251,-2.44019]],[[260.55813,179.1324],[0.27576,2.24683],[-0.25044,-2.04044]],[[259.79564,174.72075],[1.52687,1.90797],[-2.56104,-3.30422]],[[250.84499,170.06754],[4.06141,0.99124],[-4.11066,-1.00326]],[[238.81398,166.87354],[4.31703,0.5871],[-1.04031,0.00194]],[[235.33971,166.93974],[0.9953,-0.32847],[-2.04036,0.67336]],[[231.11377,170.36218],[1.5669,-0.97938],[-1.49249,0.93287]],[[225.6839,171.25416],[1.68641,-0.35453],[-2.4128,0.50723]],[[220.40382,175.24171],[1.12912,-1.82686],[-0.70979,1.291]],[[219.98006,178.31152],[0.86361,-1.3249],[-1.16381,1.78546]],[[215.29419,183.23344],[0.63533,-2.14107],[-0.68788,2.31818]],[[218.92774,187.29472],[-0.45632,-1.78492],[0.26678,1.04354]],[[218.02279,191.06872],[-0.0867,-1.19218],[0.35964,0.98478]],[[222.17164,193.55125],[-1.42492,0.4772],[0.38931,-0.13038]],[[223.23025,192.9612],[-0.40346,-0.05895],[0.77088,0.11263]],[[224.89584,194.35869],[-0.64967,-0.36408],[0.41952,0.2351]],[[226.27836,194.86724],[-0.49335,-0.11133],[0.08538,-0.75155]],[[227.25011,192.75492],[-0.43945,0.55526],[0,0]],[[227.48814,192.54294],[0,0],[0.7462,-2.29719]],[[234.07217,188.80417],[-2.76357,-0.70347],[1.54318,0.39282]],[[237.92708,191.50169],[-1.1857,-0.82243],[1.21076,0.83981]],[[242.15305,193.31568],[-1.40355,-0.53795],[1.80033,0.34578]],[[247.39853,193.71584],[-1.86125,-0.01391],[0,0]],[[248.16388,193.52778],[0,0],[0.08189,-0.02185]],[[248.42148,193.49416],[-0.08917,0],[0.47633,0]],[[249.25027,194.24416],[0.0186,-0.41421],[-0.01188,0.26446]],[[248.82677,194.87465],[0.24378,-0.13354],[0,0]],[248.07842,195.29749],[247.9522,195.1226],[[247.93382,195.12712],[0,0],[-0.14661,0.10848]],[[247.4854,195.43148],[0.15228,-0.09455],[1.80156,0.15484]]],&quot;closed&quot;:true,&quot;fillColor&quot;:[0,0,0],&quot;strokeWidth&quot;:0.5}]}" fill="#3d2747" stroke-width="0.25"/><path d="M245.28333,197.36924c-2.05832,0.55621 -3.95383,0.98427 -5.89936,0.26972l-0.43064,-0.04423c0,0 -0.50226,-0.0728 -0.62286,-0.50087c-0.15011,0.23821 -0.38824,0.36609 -0.38824,0.36609l-0.63503,0.32548c-1.8924,0.61237 -3.30375,0.20016 -4.92138,-0.63883c0,0 -0.31014,-0.16196 -0.39267,-0.48525c-0.39714,0.07677 -0.78543,0.17686 -1.163,0.30525c-0.25773,0.05046 -0.82707,0.218 -1.40119,0.36842l-0.10567,0.0847c-0.0931,0.00486 -0.18692,0.00931 -0.28134,0.01325c-0.50199,0.1216 -0.95211,0.20511 -1.13001,0.15419c-0.1471,-0.04212 -0.27929,-0.09339 -0.39766,-0.15278c-1.12191,-0.05646 -2.23411,-0.26692 -3.14245,-0.81751c-0.44253,-0.26825 -0.45988,-1.59164 -0.90635,-1.24704c-2.26226,1.74609 -5.6317,-0.66375 -6.46901,-3.00048c-0.07294,-1.20599 1.02954,-3.29458 0.88646,-4.15884c-0.10069,-0.60818 -1.02332,-0.64782 -1.5325,-0.97523c-1.15536,-0.74291 -1.84453,-1.30356 -2.0392,-2.80244c-0.38066,-2.93093 3.08401,-5.36796 4.82026,-7.41836c0.18324,-0.21641 -0.03788,-2.44358 0.32977,-3.25105c1.35998,-2.55268 3.41842,-4.76486 6.27855,-5.62978c1.26212,-0.38168 3.56174,-0.08384 4.61736,-0.91932c1.64201,-1.29958 2.38869,-3.36565 4.59169,-4.27231c1.22253,-0.50314 2.8063,-0.31631 4.06366,-0.38144c4.30751,0.41944 7.91906,1.93795 11.99834,2.92461c1.14046,0.27585 2.35998,-0.08218 3.51838,0.30377c2.62076,0.87316 4.51546,2.77069 6.04967,4.92333c1.59371,2.21851 0.76632,3.11703 1.00437,5.48047c0.2807,2.78683 2.91784,5.09197 1.92672,8.27843c-0.57072,1.83486 -1.801,2.05494 -2.98686,3.1412c-0.43253,0.39621 -0.62091,2.15493 -0.7322,2.56914c-1.34376,2.249 -2.86977,2.29492 -5.14108,2.99148c-0.69979,0.2146 -1.30399,2.05706 -2.32051,2.58118c-1.87183,0.96513 -4.31833,1.23321 -6.37671,0.97927c-0.12092,0.48731 -0.66928,0.63581 -0.66928,0.63581zM252.20988,193.92643c0.99114,-0.89577 0.43713,-1.5494 1.90354,-2.26553c1.59994,-0.78133 3.11401,-0.29109 4.13963,-1.99163c0.27092,-1.07586 0.31617,-2.30427 1.16917,-3.19795c0.92865,-0.97294 2.02813,-0.79007 2.48907,-2.34574c0.80796,-2.72682 -1.72105,-5.10572 -1.98867,-7.56215c-0.24305,-2.23079 0.74184,-2.79309 -0.74001,-4.8117c-2.48552,-3.50015 -4.74506,-3.77223 -8.68671,-4.65064c-3.98944,-0.88906 -7.4865,-2.46479 -11.67623,-2.88544c-1.00963,0.05635 -2.40587,-0.15923 -3.37182,0.25385c-1.98019,0.84681 -2.58063,2.82516 -4.10132,3.98383c-1.44848,1.10363 -3.63307,0.7861 -5.26975,1.26386c-2.34165,0.68353 -4.02855,2.59239 -5.12438,4.6602c-0.68886,1.45668 0.42688,1.89594 -0.41126,3.39791c-1.12949,2.02409 -3.93109,3.26913 -4.54769,5.65675c-0.6676,2.58512 3.08354,2.33771 3.5264,4.27679c0.25891,1.13367 -0.96241,2.89086 -0.87826,4.19737c0.34903,1.06421 2.6436,3.11283 4.02651,2.5138c0.37783,-0.16367 0.63583,-0.74784 1.02739,-0.70403c0.74815,0.08369 0.98596,1.08349 1.61647,1.45c0.40715,0.23667 0.86295,0.39048 1.34175,0.4872c0.08286,-0.83092 0.5166,-1.74001 0.94309,-2.37353l0.23101,-0.24552c0.7242,-2.56507 3.7078,-5.08416 6.38987,-4.45457c1.49767,0.35156 2.5905,1.92291 3.74123,2.76554c1.17506,0.86044 2.73919,1.25616 4.10135,1.7746c1.74724,0.28644 3.28443,0.2484 5.0908,0.1667l0.74278,-0.24669c0.07948,-0.02829 0.16346,-0.04575 0.25,-0.0504c0.46228,-0.02482 0.8224,0.3251 0.80435,0.78158c-0.01153,0.29144 -0.17442,0.55586 -0.41101,0.71541l-0.72628,0.50399l-0.1225,-0.18575l-0.01784,0.00593c-0.14229,0.12694 -0.28741,0.24615 -0.4352,0.35807c1.74843,0.0764 3.83429,-0.21159 4.9745,-1.2421zM234.14229,190.3874l-0.14606,0.22689c0.41808,0.42895 0.54782,1.16925 0.82498,1.79864c0.24414,0.55441 -0.09037,1.935 0.53166,1.75128c0.30753,-0.09083 1.22928,-0.67145 2.0124,-1.13666c-0.16271,-0.09881 -0.32113,-0.20323 -0.47443,-0.31422c-0.82409,-0.59665 -1.7121,-1.84575 -2.73467,-2.34992c-0.00858,0.01556 -0.01388,0.02401 -0.01388,0.02401zM232.30217,190.32708l0.02264,-0.03685c-1.20799,0.40742 -2.35845,1.56478 -2.7966,2.70909c0.96039,-1.10876 1.95943,-2.30587 2.74448,-2.60855c0.00982,-0.02123 0.01965,-0.04246 0.02947,-0.06369zM237.13102,194.92034c0.74444,0.05483 1.48988,0.11745 2.23535,0.15999c-0.34249,-0.21776 -0.71357,-0.46598 -1.14998,-0.73444c-0.31607,0.16838 -0.69626,0.37267 -1.08537,0.57444zM233.27432,193.18834c-0.09303,-0.21265 -0.16367,-0.68113 -0.21832,-1.02194c-0.07442,0.0495 -0.16038,0.09038 -0.25806,0.11297c-0.46582,0.91515 -1.95237,2.19904 -3.14017,3.10049c0.1164,-0.00198 0.24345,0.02484 0.37859,0.0959c0.16676,-0.03739 0.33757,-0.07444 0.50857,-0.10713c1.11466,-0.36254 2.23845,-0.51392 3.36785,-0.5533c-0.28686,-0.56842 -0.4699,-1.24173 -0.63846,-1.62702z" fill="#000000" stroke-width="0.5"/><path d="M256.76864,184.07103c0.78374,0.21873 0.48804,1.01704 0.48804,1.01704l-0.2791,0.7519c-0.1463,0.35138 -0.29262,0.70278 -0.43892,1.05415c-1.37426,1.99794 -2.72613,2.5836 -4.9869,2.10471c-0.41581,-0.08808 -1.89592,-0.85995 -2.32563,-0.69257c-2.58165,1.00563 -4.89234,1.21919 -7.45526,0.2329c-1.2141,-0.46722 -3.50211,-2.63621 -4.66735,-2.29376c-2.36123,0.79176 -5.41735,1.21757 -7.69044,0.35908c-5.05093,-1.90764 -3.31212,-6.86448 1.37367,-8.6917c0,0 0.80442,-0.30401 1.0381,0.46588c0.23368,0.76989 -0.57073,1.0739 -0.57073,1.0739c-3.37586,1.22276 -4.74304,4.24578 -1.10401,5.60383c1.98047,0.73909 4.63952,0.26027 6.68269,-0.41268c2.73297,-0.34968 4.60065,2.54752 7.37247,2.90529c2.10859,0.27216 4.32893,-1.17445 6.1217,-0.77169c1.92114,0.4316 3.25589,1.60292 4.75154,-0.55683c0.11819,-0.29226 0.23638,-0.58453 0.35457,-0.87678l0.25614,-0.6931c0,0 0.29571,-0.79832 1.07944,-0.57959z" fill="#000000" stroke-width="0.5"/></g></g></svg>