<svg version="1.1" xmlns="http://www.w3.org/2000/svg" xmlns:xlink="http://www.w3.org/1999/xlink" width="88.37391" height="182.90313" viewBox="0,0,88.37391,182.90313"><g transform="translate(-186.76124,-67.09517)"><g data-paper-data="{&quot;isPaintingLayer&quot;:true}" fill-rule="nonzero" stroke-linejoin="miter" stroke-miterlimit="10" stroke-dasharray="" stroke-dashoffset="0" style="mix-blend-mode: normal"><path d="M251.39988,191.39675c1.05367,3.00886 1.15177,8.5892 -0.98701,6.8104c0.26356,5.96696 -2.51762,9.32738 -5.33635,8.24641c-4.74669,0.8779 -4.87825,-10.16085 -4.861,-22.13381c-5.42467,-27.65203 0.86896,-28.87939 1.33497,-28.32074c6.12574,7.34375 5.50629,22.26847 9.84939,35.39773z" fill="#0f002d" stroke="#0f002d" stroke-width="1.5" stroke-linecap="butt"/><path d="M242.53192,196.51097c0,0 0.91934,4.22192 -0.43516,4.9127c-1.52824,0.77939 -2.06233,0.83609 -1.85055,-5.34127" fill="none" stroke="#0f002d" stroke-width="1.5" stroke-linecap="round"/><g stroke="#0f002d" stroke-width="1.5" stroke-linecap="round"><path d="M227.821,146.00437c0.78521,0.05151 3.52584,5.90916 3.52584,5.90916c0,0 -2.6015,6.29167 -3.07619,12.30276c-1.1937,4.08811 9.75104,-1.76387 2.03838,11.26701c-3.34645,5.65397 -17.46504,-1.53013 -16.31235,-4.6063c0,0 11.07844,-25.05276 13.82432,-24.87263z" fill="#5e1284"/><path d="M228.36148,164.12725l-2.48587,0.16978" fill="none"/></g><g stroke="#0f002d" stroke-width="1.5"><path d="M238.18357,223.58597c-0.9413,-3.72496 0.13375,-7.54338 4.8205,-7.54338c1.39116,0 5.04049,0.68269 6.20812,1.40702c3.75756,2.33099 11.3639,1.06055 10.95651,5.24577c-0.40742,4.18521 -21.40402,3.19011 -21.98511,0.8906z" fill="#e9caf8" stroke-linecap="butt"/><path d="M225.86406,249.21283c-7.11608,0.48372 -10.35544,-4.07001 -11.38982,-8.1919c-1.02627,-4.08956 -2.23696,-17.03488 1.88099,-18.68118c6.58346,-2.63192 14.69904,0.69897 15.03861,8.29222c1.56309,7.30699 4.30247,17.9125 -5.52977,18.58084z" fill="#e9caf8" stroke-linecap="butt"/><g stroke-linecap="round"><path d="M249.6545,215.89742c-2.54458,3.07812 -10.58451,4.36359 -11.64516,0.74729c-1.2567,-4.28466 0.29353,-11.81322 1.04847,-20.17401c0.74514,-8.25238 1.01934,-17.15699 0.63454,-16.98067c-0.5793,0.26543 -1.98788,12.34635 -3.41232,20.27887c-1.42445,7.93251 -1.67671,23.36633 -7.64392,27.74592c-4.09253,3.00367 -10.61815,1.59547 -13.62764,-1.317c-2.39789,-2.32059 -2.28602,-5.77037 1.05585,-7.44172c1.29452,-5.00947 4.33522,-13.84489 5.5032,-21.68085c1.08471,-7.27716 4.77379,-22.65108 5.52822,-22.83693c3.04164,-0.74933 17.27868,-3.9129 19.00476,-4.24304c0.37783,-0.07227 2.71531,11.76274 3.45957,23.3861c0.72676,11.35004 0.43078,22.49385 0.09443,22.51604z" fill="#414ca9"/><path d="M244.24897,177.57405l-4.46829,1.85067" fill="none"/></g></g><g stroke="#0f002d"><path d="M227.24263,174.68722c-2.2468,-1.5892 2.89788,-12.45149 3.87048,-16.04795c-0.74289,-7.01133 -7.64843,-18.50507 -3.98389,-17.56614c6.20226,1.58915 8.99637,5.93206 13.40698,12.1415c4.21351,5.93196 5.72641,15.31004 5.46749,15.579c-1.44577,1.50178 -7.41004,6.42115 -18.76106,5.89361z" fill="#8f21c6" stroke-width="1.5" stroke-linecap="round"/><path d="M232.14963,143.43758c0.38357,0.97024 -5.26644,1.13376 -5.54519,0.12503c-0.24563,-0.8889 0.11558,-2.08558 1.18179,-2.26793c1.37657,-0.23543 3.92018,1.02174 4.36342,2.1429z" fill="#0f002d" stroke-width="1" stroke-linecap="butt"/><path d="M244.10191,161.27632c0.44909,0.42945 1.65758,7.55507 1.38191,7.83431c-1.41056,3.18083 -13.36248,6.60717 -13.21656,5.11982c-2.38687,-12.5133 11.60249,-13.17615 11.83464,-12.95414z" fill="#c168ee" stroke-width="1" stroke-linecap="round"/><path d="M229.65423,144.0979c0,0 3.70807,5.34964 4.13818,9.14873c0.44168,3.90131 2.44223,6.47029 2.75455,11.01867" fill="none" stroke-width="1" stroke-linecap="round"/><path d="M230.97267,143.0266c0,0 4.08235,3.86127 5.20091,7.66804c1.0354,3.52377 3.75224,7.75956 4.89195,11.82382" fill="none" stroke-width="1" stroke-linecap="round"/></g><path d="M247.89531,134.45144c-3.60257,4.97956 -15.98869,1.77683 -16.5086,1.99101c-1.25013,2.44675 -9.28693,2.11399 -13.3015,-0.59859c-0.54615,-0.3225 -13.01749,2.13039 -14.53921,-3.74692c-2.67098,-0.6534 -10.82252,-2.14379 -10.26622,-10.59995c-5.40787,-2.56388 -8.19819,-10.66439 -3.02938,-16.88847c-1.65263,-7.08146 -0.58381,-17.72687 6.58075,-20.01835c-1.4029,-6.39134 14.82785,-19.65347 23.69694,-10.98243c18.258,-13.93041 31.69408,1.40044 31.39885,4.32374c14.63305,-2.68977 19.73999,15.59343 19.21127,17.19848c2.91867,0.56043 7.14275,14.67105 -4.20855,20.09276c0.83706,2.51903 -2.78132,14.06681 -10.05388,13.46345c-0.4184,1.80118 -3.44758,6.65993 -8.98048,5.76527z" fill="#3d2747" stroke="#0f002d" stroke-width="1.5" stroke-linecap="round"/><g><g><path d="M238.15992,105.798c-0.22335,3.11888 -7.11045,12.03119 -14.61748,11.49359c-7.50704,-0.5376 -12.51115,-3.17326 -12.2878,-6.29212c0.03879,-7.09031 0.56138,-7.98967 9.21557,-5.91886c3.2606,-0.22183 6.37323,-3.1291 9.43521,-2.90982c5.3305,1.43775 8.47751,2.35637 8.2545,3.62722z" fill="#2f1e38" stroke="none" stroke-width="0" stroke-linecap="butt"/><path d="M238.65228,105.34723c-0.30088,4.31021 -13.67341,20.22292 -27.76733,6.17928" fill="none" stroke="#0f002d" stroke-width="1.5" stroke-linecap="round"/></g><path d="M259.9505,98.25918c0.38947,3.6096 -2.52209,6.4491 -11.01336,5.14494c-5.65692,2.39339 -14.3677,1.01198 -19.25542,-1.41922c-14.94392,6.06987 -26.95031,0.09638 -19.27929,-6.53144" fill="#3d2747" stroke="#0f002d" stroke-width="1.5" stroke-linecap="round"/></g><g><g><path d="M249.59215,117.29218c0.57187,-0.12268 -3.20652,2.89485 -7.71046,6.44708c-5.68315,7.41951 -11.94062,18.22437 -19.06928,17.10347c-7.37924,-1.16031 -13.22217,-16.85915 -13.2309,-29.37971c0.07542,-0.58202 0.58676,-0.77504 0.79974,-0.54005c9.79884,10.8109 34.33655,7.41497 39.21091,6.36922z" fill="#ffffff" stroke="#0f002d" stroke-width="1.5" stroke-linecap="round"/><path d="M239.76497,126.49125c0,0 0.28657,-2.98332 0.53345,-4.36371c0.20075,-1.12245 1.11757,-3.37738 1.11757,-3.37738l6.90373,-0.69365z" fill="#0f002d" stroke="none" stroke-width="0" stroke-linecap="butt"/><path d="M238.41396,127.49113c0,0 -2.08659,-8.82 -2.23434,-8.47918c-1.43615,3.31286 -9.73358,21.73764 -9.77332,21.28841c-0.34486,-3.89868 -1.98034,-22.3613 -2.14115,-21.98826c-0.84144,1.95185 -7.79104,17.24483 -7.83825,16.73822c-0.21729,-2.33148 -1.42788,-20.30409 -1.56763,-20.02643c-0.50228,0.99796 -3.85746,7.30566 -3.85746,7.30566" fill="none" stroke="#0f002d" stroke-width="1.5" stroke-linecap="round"/></g><path d="M208.13328,111.34043c0,0 1.05351,-2.74834 3.63708,-1.01897" fill="none" stroke="#0f002d" stroke-width="1.5" stroke-linecap="round"/></g></g></g></svg>