<svg version="1.1" xmlns="http://www.w3.org/2000/svg" xmlns:xlink="http://www.w3.org/1999/xlink" width="91.44911" height="131.65222" viewBox="0,0,91.44911,131.65222"><defs><radialGradient cx="220.52433" cy="177.57601" r="7.3567" gradientUnits="userSpaceOnUse" id="color-1"><stop offset="0" stop-color="#54606d"/><stop offset="1" stop-color="#2c3136"/></radialGradient></defs><g transform="translate(-174.01483,-106.75573)"><g data-paper-data="{&quot;isPaintingLayer&quot;:true}" stroke-miterlimit="10" stroke-dasharray="" stroke-dashoffset="0" style="mix-blend-mode: normal"><g fill-rule="evenodd"><path d="M222.80728,200.30211c0.71382,0.53895 2.22157,1.73338 -0.75727,4.63967c-2.97884,2.90629 -9.89098,2.3385 -10.67761,2.19286c-3.06641,-0.466 -6.80291,-1.15776 -10.67787,-3.29895c-11.26798,-6.15408 -8.98155,-19.05339 -4.76443,-20.40834c4.11879,-1.37315 4.31584,6.90098 8.83193,12.72034c1.9594,2.60014 4.66531,3.9147 6.93419,4.84324c3.23396,1.20892 10.31711,-1.34431 11.11105,-0.68883z" fill="#ffab19" stroke="#001026" stroke-width="1.2" stroke-linecap="round" stroke-linejoin="round"/><path d="M199.89621,187.8228c1.08175,2.94615 3.43819,7.24699 3.43819,7.24699c0,0 -3.47434,-1.55852 -5.84872,-0.26921c-1.90825,0.96881 -1.91543,3.20486 -1.8462,3.92957c-1.04162,-1.51493 -2.28721,-3.57612 -2.63335,-7.19968c-0.34614,-3.62356 1.40173,-7.57134 3.47753,-7.79723c2.0394,-0.02923 2.25798,1.53673 3.41255,4.08956z" fill="#ffffff" stroke="none" stroke-width="1" stroke-linecap="butt" stroke-linejoin="miter"/></g><g><path d="M231.45868,201.12644c0.26006,0.74123 0.77103,2.12186 1.35143,3.94804c1.10221,3.46796 2.45483,8.54265 2.81498,13.89627l0.00133,0.40172c0.00133,0.40172 0.45075,0.80723 0.89883,0.81099c2.81148,-0.42268 8.36065,-1.00085 8.70305,4.67064c0.39159,5.49336 -16.10433,7.89868 -18.76093,2.47552c-0.92874,-2.32883 0.18745,-3.52456 0.80773,-4.14422c0.32243,-0.35436 0.44541,-0.79968 0.46869,-1.29046c-0.10373,-1.25065 -0.36034,-3.57381 -0.83967,-5.49714c-1.13618,-4.83012 -1.78769,-6.13001 -2.79157,-8.59336c-1.00388,-2.46336 -3.56207,-8.24277 0.53913,-10.0829c3.4796,-1.6222 6.0285,1.34515 6.80699,3.4049z" fill="#513726" fill-rule="evenodd" stroke="#001026" stroke-width="1.2" stroke-linecap="round" stroke-linejoin="round"/><path d="M215.58769,207.77317c-0.37619,-2.07791 0.4737,-5.19867 4.76088,-3.92706c5.01344,1.42871 5.70447,7.2924 6.08336,9.78397c0.37889,2.49157 1.26008,3.8172 2.81451,8.62844c0.59272,1.91821 0.823,4.20645 1.41121,5.43523c0.16323,0.26525 3.46221,10.54547 -5.23077,10.10014c-7.67494,-0.39318 -4.26624,-12.24891 -4.26624,-12.24891c0,0 -3.87787,-10.32156 -4.71461,-13.8015c-0.44062,-1.83249 -0.70335,-3.22433 -0.85833,-3.9703z" data-paper-data="{&quot;index&quot;:null}" fill="#513726" fill-rule="evenodd" stroke="#001026" stroke-width="1.2" stroke-linecap="round" stroke-linejoin="round"/><g fill-rule="evenodd"><path d="M220.14093,207.58094c-12.01537,-4.68629 -8.18389,-10.43431 -8.669,-15.88427c-0.24994,-4.72489 1.14642,-4.37419 6.93287,-5.41311c3.17487,-0.75666 5.04585,-1.19628 6.85517,-2.08106c2.74291,-1.28052 5.01034,3.41396 5.69266,6.07035c0,0 0.95213,3.95593 0.9479,6.1964c-0.02747,2.72162 -0.17822,4.55291 -0.67605,5.82436c0,0 -1.06929,2.73309 -3.00391,3.65599c-1.73901,0.82958 -8.07965,1.63134 -8.07965,1.63134z" fill="#ff0000" stroke="#001026" stroke-width="1.2" stroke-linecap="round" stroke-linejoin="round"/><path d="M230.40279,202.52409c0,0 -1.96724,-0.58001 -4.19289,-1.40396c-2.73868,-0.95996 -5.30381,-1.64 -5.39963,-5.25196c0.13937,-2.88688 -0.26893,-6.48421 5.22786,-5.39731c5.21135,0.97225 5.04495,3.9884 5.04495,3.9884c0.73594,4.99017 -0.68029,8.06482 -0.68029,8.06482z" fill="#ffffff" stroke="none" stroke-width="1" stroke-linecap="butt" stroke-linejoin="miter"/></g><path d="M231.22448,202.29361c0,0 -1.06929,2.73309 -3.00391,3.65599c-1.73792,0.82906 -8.07166,1.63033 -8.07964,1.63134c-8.33611,-3.25129 -9.04448,-7.01363 -8.85867,-10.83293c0.25036,0.07002 0.47341,0.12928 0.66378,0.17751c6.64587,1.68358 12.92612,2.68832 19.46315,4.81643c-0.05551,0.19484 -0.11689,0.37845 -0.18472,0.55167z" fill="#513726" fill-rule="nonzero" stroke="#001026" stroke-width="1.2" stroke-linecap="butt" stroke-linejoin="miter"/></g><path d="M227.22623,207.58094v0c-0.00001,0 -0.00001,0 -0.00001,0z" fill="#513726" fill-rule="nonzero" stroke="#001026" stroke-width="1.2" stroke-linecap="butt" stroke-linejoin="miter"/><g><g><path d="M234.34422,130.14688c0.31575,-0.17408 0.80557,-0.03243 0.87161,0.37456l1.69171,10.88063c0,0 5.98244,5.22116 7.59842,8.66914c2.72653,5.74944 2.44805,10.24193 2.44805,10.24193c0,0 6.89844,2.68918 7.61523,8.46985c0.7168,5.78068 -4.57515,16.17275 -23.61956,18.27994c-19.04441,2.10719 -33.66247,-4.2436 -39.77944,-16.19988c-6.11697,-11.95628 6.18619,-24.56707 5.5211,-23.82032c0,0 0.30771,-15.97278 0.68949,-15.73989l10.95461,6.18452c0,0 4.62693,-1.31586 9.32711,-1.12023c2.8069,0.03599 5.18161,0.43695 7.43986,1.02879z" fill="#ffab19" fill-rule="evenodd" stroke="#001026" stroke-width="1.2" stroke-linecap="butt" stroke-linejoin="miter"/><path d="M246.62146,160.68652c0,0 6.72435,2.37342 7.44114,8.1541c0.7168,5.78068 -4.93172,15.64091 -23.76843,17.66526c-24.53455,2.94884 -34.78388,-12.36655 -27.21688,-22.36607c7.5754,-10.09917 18.27008,-0.06503 26.69079,0.04292c7.21655,0.10677 8.5431,-6.10372 16.85339,-3.49621z" fill="#ffffff" fill-rule="evenodd" stroke="none" stroke-width="1" stroke-linecap="butt" stroke-linejoin="miter"/><path d="M264.86394,163.32874c-5.00269,3.39163 -12.18563,2.88628 -12.18563,2.88628" fill="none" fill-rule="evenodd" stroke="#001026" stroke-width="1.2" stroke-linecap="round" stroke-linejoin="round"/><path d="M262.62744,174.3799c-6.31974,-0.03115 -10.04628,-2.25213 -10.04628,-2.25213" fill="none" fill-rule="evenodd" stroke="#001026" stroke-width="1.2" stroke-linecap="round" stroke-linejoin="round"/><path d="M229.58795,161.55832c2.09257,0.17646 4.26799,0.56062 4.30881,1.26654c-0.01799,1.40346 -1.74796,4.0675 -3.35071,4.03271c-1.81044,0.04804 -5.78552,-2.79604 -5.65107,-4.39038c0.00118,-1.20415 2.70004,-1.07692 4.69297,-0.90887z" fill="#001026" fill-rule="evenodd" stroke="#001026" stroke-width="1.2" stroke-linecap="round" stroke-linejoin="round"/><path d="M184.87314,156.28236c0,0 8.33431,3.51274 11.56143,6.89588" fill="none" fill-rule="evenodd" stroke="#001026" stroke-width="1.2" stroke-linecap="round" stroke-linejoin="round"/><path d="M196.43943,166.69107c-4.42764,1.33266 -11.70904,-0.38524 -11.70904,-0.38524" fill="none" fill-rule="evenodd" stroke="#001026" stroke-width="1.2" stroke-linecap="round" stroke-linejoin="round"/><g fill="none" fill-rule="nonzero" stroke="none" stroke-width="1" stroke-linecap="butt" stroke-linejoin="miter" font-family="sans-serif" font-weight="normal" font-size="12" text-anchor="start"/><g fill="none" fill-rule="nonzero" stroke="none" stroke-width="1" stroke-linecap="butt" stroke-linejoin="miter" font-family="sans-serif" font-weight="normal" font-size="12" text-anchor="start"/></g><path d="M235.89759,183.68019c0.07014,-0.66244 0.42736,-1.2437 0.95306,-1.65573c0.00191,-0.05004 0.00551,-0.10035 0.01086,-0.15089c0.08943,-0.84466 0.64559,-1.55732 1.42264,-1.95549c-0.01987,-0.16312 -0.02163,-0.33059 -0.00362,-0.5007c0.05222,-0.49321 0.26359,-0.94143 0.58514,-1.3083c-0.12839,-0.32491 -0.1815,-0.67955 -0.14266,-1.04639c0.07366,-0.6957 0.46394,-1.30186 1.0335,-1.7165c-0.47395,-0.48829 -0.73103,-1.14014 -0.65738,-1.83584c0.0224,-0.21159 0.07409,-0.41489 0.15121,-0.60705c-0.04745,-0.11193 -0.08589,-0.22758 -0.11462,-0.34619c-0.58516,-0.15277 -1.08321,-0.46721 -1.43489,-0.88103c-0.28757,0.07007 -0.59163,0.10116 -0.90362,0.08688c-0.4404,0.18622 -0.93956,0.27553 -1.45836,0.23891c-0.11703,-0.00826 -0.23173,-0.02269 -0.34373,-0.0429c-0.55247,0.39469 -1.26954,0.61074 -2.02864,0.55716c-0.33658,-0.02375 -0.65386,-0.09857 -0.94302,-0.21514c-0.30936,0.07432 -0.63767,0.10357 -0.97424,0.07982c-0.69643,-0.04915 -1.3103,-0.31691 -1.76315,-0.72083c-0.39186,0.13599 -0.82301,0.19746 -1.26865,0.16601c-0.79511,-0.05612 -1.48261,-0.3972 -1.94572,-0.9005c-0.38952,0.13388 -0.81757,0.1942 -1.2599,0.16298c-0.09709,-0.00685 -0.19257,-0.01795 -0.28624,-0.03308c-0.09545,0.00179 -0.19186,-0.00066 -0.28895,-0.00751c-0.37464,-0.02644 -0.72539,-0.11614 -1.04004,-0.25627c-0.09389,0.00161 -0.18869,-0.00087 -0.28414,-0.00761c-0.37283,-0.02632 -0.72198,-0.11529 -1.03545,-0.25424c-0.33802,0.09298 -0.70071,0.13171 -1.07353,0.1054c-0.76689,-0.05412 -1.43367,-0.37334 -1.89558,-0.84752c-0.43261,0.19422 -0.9252,0.29385 -1.43924,0.27032c-0.04837,0.02045 -0.09745,0.03973 -0.14718,0.05782c-0.56478,0.44347 -1.32452,0.69143 -2.13181,0.63446c-0.15391,-0.01086 -0.30378,-0.03239 -0.44877,-0.06372c-0.25312,0.3085 -0.58227,0.56372 -0.96044,0.74558c0.49818,0.49223 0.77105,1.16013 0.69544,1.87424c-0.00343,0.03242 -0.00755,0.06465 -0.01235,0.09667c0.20602,0.38604 0.30105,0.82534 0.25251,1.28367c-0.04704,0.44422 -0.22315,0.85191 -0.4926,1.19657c0.63809,0.50218 1.00547,1.25679 0.91921,2.07157c-0.04704,0.44422 -0.22315,0.85191 -0.49261,1.19657c0.63809,0.50218 1.00547,1.25678 0.91921,2.07156c-0.06608,0.62413 -0.38701,1.17619 -0.86356,1.58256c0.27223,0.42363 0.40503,0.92371 0.34943,1.44877c-0.14547,1.37388 -1.52573,2.39854 -3.08291,2.28864c-1.55718,-0.1099 -2.70158,-1.31275 -2.55611,-2.68662c0.06608,-0.62413 0.38699,-1.17619 0.86355,-1.58255c-0.27223,-0.42363 -0.40502,-0.92371 -0.34943,-1.44877c0.04704,-0.44422 0.22315,-0.85192 0.4926,-1.19657c-0.63809,-0.50218 -1.00547,-1.25678 -0.91921,-2.07156c0.04704,-0.44422 0.22315,-0.85193 0.49261,-1.19658c-0.63809,-0.50218 -1.00547,-1.25678 -0.91921,-2.07156c0.00343,-0.03242 0.00756,-0.06465 0.01235,-0.09667c-0.20602,-0.38604 -0.30104,-0.82534 -0.25251,-1.28367c0.02212,-0.20892 0.07279,-0.40975 0.1483,-0.59976c-0.58796,-0.50101 -0.92082,-1.22561 -0.83826,-2.00528c0.10136,-0.95731 0.80226,-1.74507 1.74477,-2.09759c0.49504,-0.92699 1.60512,-1.53558 2.82351,-1.44959c0.15391,0.01086 0.30379,0.03239 0.44878,0.06372c0.31398,-0.38268 0.74491,-0.68334 1.24131,-0.86375c0.54599,-0.42871 1.27416,-0.67472 2.05137,-0.63915c0.4404,-0.18622 0.93956,-0.27553 1.45836,-0.23891c0.76689,0.05412 1.43367,0.37334 1.89558,0.84752c0.45514,-0.20432 0.97665,-0.30397 1.51968,-0.26565c0.37283,0.02632 0.722,0.11529 1.03546,0.25424c0.33802,-0.09298 0.7007,-0.13171 1.07353,-0.10539c0.37464,0.02644 0.72539,0.11615 1.04004,0.25628c0.09389,-0.00161 0.18869,0.00087 0.28414,0.0076c0.09709,0.00685 0.19256,0.01795 0.28624,0.03307c0.09545,-0.00179 0.19185,0.00067 0.28894,0.00752c0.79511,0.05612 1.48261,0.39719 1.94572,0.90049c0.38952,-0.13388 0.81757,-0.1942 1.2599,-0.16298c0.69643,0.04915 1.3103,0.31691 1.76315,0.72082c0.39186,-0.13599 0.82301,-0.19746 1.26866,-0.166c0.33658,0.02375 0.65387,0.09857 0.94303,0.21514c0.30936,-0.07432 0.63767,-0.10358 0.97424,-0.07982c0.11703,0.00826 0.23172,0.02269 0.34372,0.04291c0.5329,-0.38072 1.21898,-0.59522 1.94819,-0.56185c0.4404,-0.18622 0.93956,-0.27553 1.45836,-0.23891c0.83391,0.05885 1.54946,0.43118 2.0119,0.97534c0.31223,-0.07608 0.64393,-0.1062 0.98407,-0.0822c1.26389,0.0892 2.25588,0.89844 2.50691,1.93473c1.25252,0.32701 2.1059,1.39468 1.97909,2.59232c-0.0224,0.21159 -0.07409,0.41489 -0.15121,0.60705c0.14362,0.33882 0.20474,0.71169 0.16383,1.09808c-0.07366,0.6957 -0.46395,1.30186 -1.03351,1.7165c0.47395,0.48829 0.73103,1.14014 0.65738,1.83584c-0.05222,0.49321 -0.26359,0.94143 -0.58514,1.3083c0.12839,0.32491 0.18151,0.67955 0.14267,1.04639c-0.08943,0.84466 -0.6456,1.55732 -1.42265,1.95548c0.01987,0.16312 0.02163,0.3306 0.00362,0.5007c-0.07014,0.66244 -0.42736,1.24371 -0.95307,1.65573c-0.00191,0.05004 -0.00551,0.10034 -0.01086,0.15089c-0.14547,1.37388 -1.52574,2.39854 -3.0829,2.28863c-1.55716,-0.1099 -2.70159,-1.31275 -2.55611,-2.68662z" fill="#ffffff" fill-rule="nonzero" stroke="#001026" stroke-width="1.2" stroke-linecap="butt" stroke-linejoin="miter"/><g fill-rule="nonzero" stroke-linecap="butt" stroke-linejoin="miter"><g><path d="M174.61973,147.93446c-0.13801,-3.109 2.65516,-5.98457 6.23874,-6.42278c3.58358,-0.43821 6.60054,1.72689 6.73856,4.83589c0.13801,3.109 -2.65516,5.98457 -6.23874,6.42278c-3.58358,0.43821 -6.60055,-1.7269 -6.73856,-4.83589z" fill="#ffffff" stroke="#001026" stroke-width="1.2"/><path d="M197.7905,112.3143c0.4578,1.0179 -0.75752,1.52448 -0.75752,1.52448l-0.76305,0.27546c-2.46429,1.75455 -4.3766,4.28225 -6.13426,6.57838c-1.72228,7.8125 -8.72511,14.3265 -8.28928,22.51986c0,0 0.04998,1.12587 -1.24775,1.28456c-1.29773,0.15868 -1.34771,-0.96717 -1.34771,-0.96717c-0.32058,-8.58203 6.47486,-15.37135 8.49824,-23.5184c1.94698,-2.69153 4.1728,-5.54647 6.9979,-7.59472l1.37033,-0.61378c0,0 1.21533,-0.50658 1.67312,0.51134z" fill="#001026" stroke="none" stroke-width="0.5"/></g><g stroke="#001026" stroke-width="1.2"><path d="M198.78845,151.58309c-1.44753,-0.93362 -3.6166,-1.37224 -4.62903,-2.60434c-0.1544,-0.18791 -0.28191,-0.39427 -0.37584,-0.62365c-0.17924,-0.43768 -0.27547,-0.93896 -0.30723,-1.48548c-0.01359,-0.17711 -0.01747,-0.35675 -0.01129,-0.53851c0.04324,-3.25023 1.96515,-7.76491 2.39035,-10.2098c0.31522,-1.81248 0.57255,-4.15555 0.34365,-5.90729c-0.65933,-5.04565 -4.98467,-19.29019 2.59322,-22.28426c6.35275,-2.51001 11.0158,3.84306 13.98104,6.87896c4.93393,5.05153 11.6581,12.18166 18.8456,14.9855c3.27638,1.27812 8.32393,4.69058 6.58468,8.60808c-5.11237,11.51511 -19.98176,1.1414 -29.30592,3.32955c-3.80269,0.8924 -0.80509,6.17512 -4.029,7.4489z" fill="#ff0000"/><path d="M243.74274,139.42685c3.52772,0.24898 5.86441,2.98804 5.21916,6.11787c-0.64525,3.12984 -4.02812,5.46525 -7.55584,5.21627c-2.50382,-0.17671 -4.40766,-1.60782 -5.07117,-3.54273c-0.69379,0.1535 -1.41665,0.21242 -2.14569,0.16097c-2.68531,-0.18952 -4.6805,-1.82188 -5.19567,-3.97114c-1.4199,1.84219 -3.89233,3.01058 -6.44031,2.83075c-2.2734,-0.16045 -4.05218,-1.35506 -4.85699,-3.02193c-1.42533,1.14758 -3.33829,1.80522 -5.29586,1.66706c-0.62355,-0.04401 -1.20989,-0.16582 -1.74912,-0.35381c-0.01771,0.1781 -0.04507,0.3579 -0.08241,0.53902c-0.64525,3.12984 -4.02811,5.46524 -7.55583,5.21626c-0.02796,-0.00197 -0.05583,-0.0041 -0.08364,-0.00638c-1.06062,2.64272 -4.1078,4.49793 -7.27147,4.27465c-3.52772,-0.24898 -5.8644,-2.98804 -5.21914,-6.11787c0.64525,-3.12984 4.02812,-5.46524 7.55583,-5.21626c0.02796,0.00197 0.05583,0.0041 0.08363,0.00638c1.06062,-2.64271 4.1078,-4.49793 7.27146,-4.27465c0.62355,0.04401 1.20989,0.16582 1.74912,0.35383c0.01771,-0.1781 0.04507,-0.35791 0.08241,-0.53903c0.64525,-3.12984 4.02812,-5.46523 7.55583,-5.21626c2.2734,0.16045 4.05218,1.35505 4.85698,3.02192c1.42533,-1.14758 3.33829,-1.80522 5.29585,-1.66706c2.68531,0.18952 4.68052,1.82188 5.19567,3.97115c1.41991,-1.84219 3.89232,-3.01059 6.4403,-2.83076c2.50382,0.17671 4.40766,1.60781 5.07117,3.54272c0.69379,-0.1535 1.41664,-0.21242 2.14569,-0.16097z" fill="#ffffff"/></g></g></g><path d="M215.79505,151.91909c1.20209,-0.27171 2.74378,-0.65504 3.60189,-0.11023c2.15272,1.36676 0.45682,7.25021 -0.06992,9.1452c-2.74647,5.62671 -11.01916,4.49509 -13.97069,-0.24198c-0.59293,-4.18892 6.02967,-0.31414 8.50971,-0.50352c1.09141,-0.08335 1.26267,-2.36476 0.78303,-3.01261c-1.2697,-1.96771 -2.00207,-3.93939 0.23211,-5.38103l0.50087,-0.08495c0,0 0.24753,0.01747 0.41298,0.18913z" fill="#001026" fill-rule="nonzero" stroke="none" stroke-width="0.5" stroke-linecap="butt" stroke-linejoin="miter"/><path d="M229.42544,154.82877c-0.17611,0.05218 -0.45233,0.06405 -0.65744,-0.25382c-0.32531,-0.50415 0.17884,-0.82947 0.17884,-0.82947c0.06088,-0.0384 0.11883,-0.07787 0.17445,-0.1181c-0.00284,-0.16875 0.04538,-0.52795 0.49367,-0.60699c0.08615,-0.01519 0.16195,-0.0156 0.2286,-0.00522c0.26146,-0.22384 0.54293,-0.42682 0.94605,-0.55926c4.47681,-1.47083 3.73431,5.80154 7.94429,6.02425c0.41914,0.19746 0.85078,0.37814 1.29972,0.49267c4.00235,1.02103 1.18794,-2.7126 2.62461,-4.58337c0.97396,-1.26826 2.08676,-0.33241 2.70965,0.62598c0.73993,1.13845 0.34676,2.58693 0.25608,3.87172c-0.3128,3.87273 -3.58646,6.05846 -7.36716,5.02796c-1.9318,-0.52654 -3.67514,-2.31323 -5.14803,-3.6102c-1.14719,-1.77785 -2.85727,-3.47149 -3.68334,-5.47617z" fill="#001026" fill-rule="nonzero" stroke="none" stroke-width="0.5" stroke-linecap="butt" stroke-linejoin="miter"/><g data-paper-data="{&quot;index&quot;:null}" fill-rule="nonzero" stroke="none" stroke-width="0.5" stroke-linecap="butt" stroke-linejoin="miter"><path d="M232.03133,188.67489l-0.26663,-0.01882c-1.44329,-0.10186 -2.73962,-0.4655 -4.13064,-0.85238c-0.80406,-0.38936 -1.91615,-0.41898 -2.05509,-1.58059c-0.09217,-0.77058 1.01794,-2.11191 1.29193,-2.83868c0.9068,-2.40539 3.705,-8.57009 6.52932,-8.41003c1.93061,0.31414 1.78684,2.1884 1.67302,3.80111c-0.2133,3.02225 -1.16012,6.26345 -2.45136,9.02714c0.03842,0.08269 0.05936,0.18628 0.05021,0.31599c-0.04224,0.59851 -0.64075,0.55627 -0.64075,0.55627zM233.87621,178.69101c0.04322,-0.61235 0.35484,-2.68453 -0.56048,-2.5196c-1.20962,-0.10913 -1.33495,0.95295 -2.0443,1.86751c-1.70794,2.20202 -3.70217,5.41808 -4.4947,8.11098c-0.13035,0.44289 0.86388,0.32926 1.2794,0.53047c1.16094,0.31362 2.23985,0.62053 3.4178,0.7455c1.2748,-2.64332 2.19668,-5.82155 2.40229,-8.73485z" fill="#001026"/><path d="M231.48319,187.47499c-1.17794,-0.12497 -2.2871,-0.43562 -3.44805,-0.74924c-0.41551,-0.20121 -1.42002,-0.09394 -1.28967,-0.53683c0.79253,-2.69289 2.82996,-5.99653 4.5379,-8.19855c0.70935,-0.91457 0.84633,-1.97217 2.05595,-1.86304c0.91532,-0.16493 0.61826,1.91904 0.57505,2.53138c-0.20561,2.91331 -1.15638,6.17297 -2.43118,8.81628z" data-paper-data="{&quot;noHover&quot;:false,&quot;origItem&quot;:[&quot;Path&quot;,{&quot;applyMatrix&quot;:true,&quot;segments&quot;:[[[467.75241,357.38201],[-0.41122,5.82661],[0.08643,-1.22469]],[[466.63144,352.3428],[1.83064,-0.32986],[-2.41924,-0.21825]],[[462.54284,356.07783],[1.41871,-1.82913],[-3.41588,4.40405]],[[453.55344,372.29979],[1.58505,-5.38579],[-0.26069,0.88578]],[[456.11224,373.36072],[-0.83103,-0.40242],[2.32189,0.62724]],[[462.94783,374.85171],[-2.35589,-0.24993],[2.54961,-5.28663]]],&quot;closed&quot;:true}]}" fill="#ffffff"/></g><g fill-rule="nonzero" stroke="#001026" stroke-width="1.2" stroke-linejoin="miter"><path d="M216.60045,204.93219l-4.09519,-21.8023l13.20706,-0.51538l-1.91455,21.28812c0,0 -1.91722,1.80367 -3.07945,1.96991c-1.23274,0.17634 -4.11788,-0.94035 -4.11788,-0.94035z" fill="#505a63" stroke-linecap="butt"/><path d="M211.70422,181.78851c-0.15844,-4.0599 3.00434,-7.47954 7.06423,-7.63797c4.0599,-0.15844 7.47954,3.00435 7.63797,7.06423c0.15844,4.0599 -3.00435,7.47955 -7.06424,7.63798c-4.0599,0.15844 -7.47953,-3.00435 -7.63797,-7.06426z" fill="url(#color-1)" stroke-linecap="butt"/><path d="M216.17039,187.91131c0,0 -1.08399,-4.50375 -1.19264,-6.65921c-0.10154,-2.0145 0.5606,-5.87927 0.5606,-5.87927" fill="none" stroke-linecap="round"/><path d="M223.00702,187.50175c0,0 -1.46064,-5.56902 -1.75624,-7.78107c-0.21839,-1.63441 0.14307,-4.29083 0.14307,-4.29083" fill="none" stroke-linecap="round"/><path d="M211.66594,182.2338c0,0 4.24667,-2.68383 6.69123,-3.33369c2.12674,-0.56538 7.15589,-0.34745 7.15589,-0.34745" fill="none" stroke-linecap="round"/><path d="M213.86184,187.28756c0,0 4.85647,-2.65182 7.15782,-3.52004c1.78897,-0.67491 5.50444,-1.25696 5.50444,-1.25696" fill="none" stroke-linecap="round"/></g><g fill-rule="nonzero" stroke="none" stroke-width="0.5" stroke-linecap="butt" stroke-linejoin="miter"><path d="M221.11822,198.62862c-0.26051,-0.11035 -0.34061,-0.41614 -0.34061,-0.41614c-0.4005,-1.68781 -2.29948,-1.04862 -2.70795,-2.63302c-0.4851,-1.88165 1.58402,-2.12027 2.81716,-2.06245c1.35537,0.06355 2.25107,0.76686 3.04155,1.67672c-0.13968,-1.64321 0.66753,-4.52486 1.56511,-5.26236c0.60207,-1.1211 1.76171,-3.14341 3.31115,-1.98765c1.01948,0.76046 1.35162,2.77671 1.6587,3.95096c0.5462,2.08859 1.44464,3.85015 2.53711,5.68934c0.74864,2.78304 1.5425,7.21973 -1.55732,9.06005c-1.57556,0.93539 -4.10885,-0.09171 -5.74647,-0.31091c-1.35721,-0.20344 -3.12953,-1.21591 -3.46257,-2.72829c-0.22077,-1.00254 0.74994,-1.7302 0.45241,-2.72284c-0.1942,-0.6479 -1.27066,-0.38617 -1.53743,-0.76705c-0.21056,-0.30061 -0.15142,-0.91585 -0.03083,-1.48637zM225.41785,197.03275c0.28729,0.35786 0.6274,0.82065 0.83574,1.2305c0.04507,-0.253 0.05704,-0.49407 -0.04597,-0.63325c-0.20841,-0.28159 -0.49223,-0.44708 -0.78977,-0.59725z" fill="#ff0000"/><g><path d="M213.71102,194.79772c-0.197,-0.02683 -0.32191,-0.10852 -0.40085,-0.20616c-0.39912,0.5825 -0.66389,1.21628 -0.73284,1.80958c0,0 -0.06568,0.56519 -0.63017,0.51333c-0.2345,0.69199 -0.31652,1.44992 -0.40085,2.17565l-0.02697,0.23211c0,0 -0.06864,0.59065 -0.66864,0.50893c-0.6,-0.08172 -0.53136,-0.67238 -0.53136,-0.67238l0.02697,-0.23211c0.16361,-1.40789 0.38051,-2.77219 1.25973,-3.90965c0,0 0.1045,-0.13204 0.2747,-0.19862c0.34866,-0.64389 0.85331,-1.31874 1.45024,-1.91603c0.32545,-2.39026 0.84376,-5.78405 -1.44189,-7.24734c-1.06535,-0.62018 -2.12442,-0.14792 -3.24508,0.07797c-0.7116,0.14343 -1.49793,0.06782 -2.14418,0.38753c-0.65783,0.32544 -0.61915,1.96169 -0.68537,2.52175c-0.27571,2.33152 -0.55039,4.64356 -0.80917,6.96329c-0.58156,5.0046 1.15968,8.56557 6.21021,10.27652c4.16076,1.28696 8.00077,-0.03293 11.12033,-2.44563c0,0 0.14709,-0.11196 0.34238,-0.12848c1.25763,-2.48771 -1.96078,-2.3454 -3.63706,-1.93256c0,0 -0.58258,0.14348 -0.74168,-0.43527c-0.15911,-0.57876 0.42347,-0.72224 0.42347,-0.72224c0.55308,-0.13622 1.15187,-0.21435 1.74296,-0.22411c-0.04938,-0.22058 -0.06049,-0.44093 -0.03676,-0.65523c-0.17051,0.02677 -0.52503,0.02573 -0.67929,-0.39531c-0.1778,-0.48531 0.216,-0.69468 0.33042,-0.74402c0.13845,-0.5563 -0.04531,-0.93339 -0.40068,-1.17259c-0.13334,0.45217 -0.64343,0.38269 -0.64343,0.38269l-0.59556,-0.2126c-0.14692,-0.16749 -0.26911,-0.3393 -0.36834,-0.51348c-0.72479,0.0205 -1.45796,0.20062 -1.85629,0.44625c0,0 -0.5114,0.30516 -0.83262,-0.20711c-0.32122,-0.51227 0.19017,-0.81744 0.19017,-0.81744c0.47368,-0.27563 1.0489,-0.46259 1.64969,-0.55196l0.22602,-0.56299c0.25888,-0.15683 0.83396,-2.19468 0.59592,-2.2987c-1.22343,-0.53463 -2.52669,-0.14128 -3.55582,0.65173c-0.01453,0.12305 -0.02869,0.24494 -0.04223,0.3655l-0.06743,0.58028c0,0 -0.06864,0.59065 -0.66864,0.50893zM210.86413,207.01454c-5.5915,-1.91626 -7.70806,-5.98572 -7.05885,-11.57244c0.12357,-1.02857 0.70857,-1.95951 0.82339,-2.96271c0.22076,-1.92888 -0.94129,-6.11738 1.18061,-7.35311c0.89492,-0.52117 2.70977,-0.59481 3.74411,-0.79936c1.16485,-0.23035 1.88339,-0.25832 2.95251,0.31743c2.43653,1.66893 2.43334,4.52701 2.15938,7.17578c1.36191,-0.86499 2.91163,-1.14427 4.16627,-0.01541c0.31265,0.2813 0.44632,0.71325 0.46017,1.19637c0.50818,-0.25976 1.10342,-0.3792 1.72796,-0.29413c0,0 0.32267,0.04395 0.46769,0.30032c0.11475,0.02414 0.19483,0.06861 0.19483,0.06861c3.99711,2.24206 6.51813,3.98831 5.92666,8.95891l-0.21055,0.72782c0,0 -0.16634,0.56918 -0.74689,0.39147c-0.58055,-0.17772 -0.41421,-0.7469 -0.41421,-0.7469l0.18707,-0.63271c0.49867,-4.41302 -1.78313,-5.71717 -5.3152,-7.66248c0,0 -0.14119,-0.07842 -0.23882,-0.22533c-0.91334,-0.11516 -2.09421,0.77157 -2.04543,1.66431c1.32284,0.20341 2.43388,0.94311 2.46156,2.32115c0.38749,-0.29769 0.88912,-0.50056 1.47314,-0.55454c0,0 0.60181,-0.0357 0.65218,0.55951c0.05037,0.59521 -0.55144,0.6309 -0.55144,0.6309c-0.5453,-0.00015 -1.84719,1.13147 -1.28958,1.49923l0.51262,0.036c0,0 0.27476,0.03743 0.43115,0.24467c1.43317,0.50837 2.24081,1.70688 1.09586,3.85135l-0.57393,0.35354c0,0 -0.04997,0.01683 -0.12567,0.02573c-3.43878,2.526 -7.55043,3.86021 -12.04658,2.49603z" fill="#001026"/><path d="M214.38187,194.23922l0.06828,-0.58021c0.01354,-0.12057 0.02804,-0.24243 0.04258,-0.36547c1.02912,-0.79301 2.36538,-1.17032 3.58882,-0.6357c0.23804,0.10402 -0.32658,2.1583 -0.58546,2.31513l-0.22378,0.57025c-0.60079,0.08938 -1.17484,0.28493 -1.64852,0.56056c0,0 -0.52066,0.33607 -0.19944,0.84835c0.32122,0.51227 0.74663,0.15404 0.74663,0.15404c0.39833,-0.24563 1.12654,-0.40969 1.85133,-0.43019c0.09923,0.17418 0.32034,0.36581 0.46726,0.5333l0.49775,0.1869c0,0 0.60874,0.09087 0.74207,-0.36129c0.35537,0.23919 0.537,0.62505 0.39854,1.18135c-0.11442,0.04934 -0.51085,0.26489 -0.33305,0.7502c0.15426,0.42105 0.50864,0.42234 0.67915,0.39558c-0.02373,0.2143 -0.01457,0.43806 0.03481,0.65864c-0.59109,0.00976 -1.19564,0.09535 -1.74872,0.23156c0,0 -0.58745,0.14798 -0.42834,0.72674c0.15911,0.57876 0.67543,0.35897 0.67543,0.35897c1.67628,-0.41285 4.96708,-0.48475 3.70945,2.00296c-0.19529,0.01652 -0.34338,0.12959 -0.34338,0.12959c-3.11956,2.4127 -7.01193,3.74566 -11.17269,2.4587c-5.05052,-1.71095 -6.82717,-5.32189 -6.24561,-10.32648c0.25879,-2.31973 0.54582,-4.66242 0.82153,-6.99394c0.06623,-0.56005 0.03447,-2.20263 0.6923,-2.52807c0.64625,-0.31971 1.43957,-0.24846 2.15117,-0.3919c1.12066,-0.22589 2.19257,-0.70263 3.25792,-0.08245c2.28565,1.46328 1.79287,4.95373 1.46741,7.34398c-0.59692,0.59729 -1.07141,1.24842 -1.42007,1.89231c-0.1702,0.06658 -0.27243,0.19381 -0.27243,0.19381c-0.87922,1.13746 -1.10244,2.45374 -1.26604,3.86163l-0.02802,0.23074c0,0 -0.07437,0.58449 0.52563,0.66622c0.6,0.08172 0.60252,-0.43557 0.60252,-0.43557l0.02576,-0.23318c0.08433,-0.72572 0.15265,-1.50409 0.38715,-2.19608c0.56449,0.05186 0.628,-0.52136 0.628,-0.52136c0.06894,-0.5933 0.35608,-1.27722 0.7552,-1.85971c0.07894,0.09764 0.21085,0.1758 0.40784,0.20263c0.6,0.08172 0.69102,-0.51252 0.69102,-0.51252z" data-paper-data="{&quot;noHover&quot;:false,&quot;origItem&quot;:[&quot;Path&quot;,{&quot;applyMatrix&quot;:true,&quot;segments&quot;:[[[213.71102,194.79772],[0.6,0.08172],[-0.197,-0.02683]],[[213.31017,194.59156],[0.07894,0.09764],[-0.39912,0.5825]],[[212.57733,196.40114],[0.06894,-0.5933],[0,0]],[[211.94717,196.91446],[0.56449,0.05186],[-0.2345,0.69199]],[[211.54631,199.09011],[0.08433,-0.72572],[0,0]],[211.51934,199.32222],[[210.8507,199.83115],[0.6,0.08172],[-0.6,-0.08172]],[210.31934,199.15877],[[210.34631,198.92666],[0,0],[0.16361,-1.40789]],[[211.60604,195.01701],[-0.87922,1.13746],[0,0]],[[211.88074,194.81839],[-0.1702,0.06658],[0.34866,-0.64389]],[[213.33098,192.90236],[-0.59692,0.59729],[0.32545,-2.39026]],[[211.88909,185.65502],[2.28565,1.46328],[-1.06535,-0.62018]],[[208.64401,185.73299],[1.12066,-0.22589],[-0.7116,0.14343]],[[206.49983,186.12051],[0.64625,-0.31971],[-0.65783,0.32544]],[[205.81446,188.64226],[0.06623,-0.56005],[-0.27571,2.33152]],[[205.00528,195.60555],[0.25879,-2.31973],[-0.58156,5.0046]],[[211.21549,205.88206],[-5.05052,-1.71095],[4.16076,1.28696]],[[222.33582,203.43643],[-3.11956,2.4127],[0,0]],[[222.6782,203.30796],[-0.19529,0.01652],[1.25763,-2.48771]],[[219.04114,201.3754],[1.67628,-0.41285],[0,0]],[[218.29946,200.94013],[0.15911,0.57876],[-0.15911,-0.57876]],[[218.72293,200.21789],[0,0],[0.55308,-0.13622]],[[220.46589,199.99377],[-0.59109,0.00976],[-0.04938,-0.22058]],[[220.42913,199.33855],[-0.02373,0.2143],[-0.17051,0.02677]],[[219.74984,198.94323],[0.15426,0.42105],[-0.1778,-0.48531]],[[220.08026,198.19921],[-0.11442,0.04934],[0.13845,-0.5563]],[[219.67958,197.02663],[0.35537,0.23919],[-0.13334,0.45217]],[219.03615,197.40932],[[218.44059,197.19672],[0,0],[-0.14692,-0.16749]],[[218.07225,196.68323],[0.09923,0.17418],[-0.72479,0.0205]],[[216.21595,197.12949],[0.39833,-0.24563],[0,0]],[[215.38334,196.92237],[0.32122,0.51227],[-0.32122,-0.51227]],[[215.57351,196.10494],[0,0],[0.47368,-0.27563]],[[217.2232,195.55297],[-0.60079,0.08938],[0,0]],[[217.44921,194.98998],[0,0],[0.25888,-0.15683]],[[218.04513,192.69128],[0.23804,0.10402],[-1.22343,-0.53463]],[[214.48931,193.34301],[1.02912,-0.79301],[-0.01453,0.12305]],[[214.44708,193.70852],[0.01354,-0.12057],[0,0]],[214.37965,194.28879]],&quot;closed&quot;:true}]}" fill="#ff0000"/><path d="M225.05257,193.04156c-0.6,-0.08172 -0.53136,-0.67238 -0.53136,-0.67238l0.07339,-0.56021c0.39656,-1.35691 2.19081,-6.41243 4.33346,-4.65721c0.96214,0.78817 0.73143,2.3927 1.02572,3.45082c2.04987,4.46528 5.50496,9.30044 2.82561,14.14423c-1.79551,5.46644 -7.86437,0.71473 -11.04263,0.33964c0,0 -0.6,-0.08172 -0.53136,-0.67238c0.06864,-0.59065 0.66864,-0.50893 0.66864,-0.50893c2.52699,0.37758 8.34909,4.74806 9.79422,0.34838c2.50048,-4.52042 -0.96482,-9.10395 -2.85049,-13.27245c-0.19771,-0.72508 -0.07501,-2.34957 -0.63084,-2.90519c-0.55833,-0.55812 -2.26733,3.52774 -2.43122,4.08851l-0.0345,0.36823c0,0 -0.06864,0.59065 -0.66864,0.50893z" fill="#001026"/><path d="M224.84268,193.81713c0.6,0.08172 0.53136,0.67238 0.53136,0.67238l-0.09065,0.03263c0.60827,1.36155 1.97291,2.03828 2.39364,3.47708c0,0 0.15911,0.57876 -0.42347,0.72224c-0.58258,0.14348 -0.74168,-0.43527 -0.74168,-0.43527c-0.31149,-1.2487 -1.75718,-2.06218 -2.3281,-3.29643l-0.00973,-0.6637c0,0 0.06864,-0.59065 0.66864,-0.50893z" fill="#001026"/></g></g></g></g></svg>