<svg version="1.1" xmlns="http://www.w3.org/2000/svg" xmlns:xlink="http://www.w3.org/1999/xlink" width="41.80558" height="30.36199" viewBox="0,0,41.80558,30.36199"><g transform="translate(-219.09721,-164.819)"><g data-paper-data="{&quot;isPaintingLayer&quot;:true}" fill-rule="nonzero" stroke="none" stroke-width="0.5" stroke-linecap="butt" stroke-linejoin="miter" stroke-miterlimit="10" stroke-dasharray="" stroke-dashoffset="0" style="mix-blend-mode: normal"><path d="M221.21408,173.70818c-0.67714,-0.25923 -1.83373,-0.61603 -2.09095,-1.35287c-0.14259,-0.40846 0.33957,-0.79888 0.56236,-1.16974c0.7748,-1.28976 2.11288,-2.32157 3.09676,-3.44432c0.40743,-0.46494 1.95847,-2.90715 2.50333,-2.92216c0.53943,-0.01486 1.24289,1.71894 1.49382,2.07448c0.98998,1.40265 2.20969,2.68571 3.24491,4.07793c0.6411,-0.44518 1.30511,-0.85774 2.01114,-1.21114l0.68058,-0.34029c0,0 0.54159,-0.2708 0.81239,0.2708c0.2708,0.54159 -0.2708,0.81239 -0.2708,0.81239l-0.68058,0.34029c-0.67588,0.33756 -1.3137,0.72961 -1.93009,1.15288c0.93147,-0.15653 1.88663,-0.26367 2.76153,-0.36523c5.22057,-1.20542 10.25665,-2.16237 15.69789,-2.16149c2.93688,0.12206 5.89692,0.34034 8.83488,0.34016c1.13434,-0.00007 2.39664,-0.34318 2.949,1.07355c0.05911,0.15161 -0.10884,2.39454 -0.12763,2.67021c-0.17628,2.58546 -1.07665,4.86615 -1.42897,7.38986c-0.50921,3.05588 -0.48659,6.04684 -0.8418,9.11533c-0.07792,0.67308 0.11215,3.32343 -0.31867,3.7779c-0.29134,0.30734 -2.29777,0.48973 -2.78499,0.54732c-3.06098,0.3618 -6.13522,0.4802 -9.21352,0.61408c-4.81722,0.20901 -9.75887,0.24803 -14.57819,0.06938c-0.70359,-0.02608 -4.09666,0.08549 -4.63269,-0.36729c-0.40883,-0.34533 -0.30155,-1.02755 -0.42294,-1.54876c-0.37667,-1.61735 -0.48127,-3.22585 -0.57138,-4.87662c-0.17658,-3.2349 -0.37144,-6.46868 -0.38698,-9.70934c-0.00355,-0.73986 -0.09389,-1.7922 -0.0142,-2.76361c-0.51694,0.34105 -1.05114,0.65871 -1.61187,0.94c0,0 -0.54159,0.2708 -0.81239,-0.2708c-0.2708,-0.54159 0.2708,-0.81239 0.2708,-0.81239c0.38363,-0.19114 0.75471,-0.39947 1.11625,-0.62082c-1.12709,-0.39201 -2.17795,-0.95025 -3.31698,-1.32968zM225.78845,167.58975c-0.23596,-0.33424 -0.45906,-0.68871 -0.58997,-1.07634c-0.0011,-0.00324 -0.00212,-0.00664 -0.00307,-0.01017c-0.3934,1.43812 -2.43504,2.95711 -3.32469,3.97287c-0.41377,0.47242 -0.75211,1.01612 -1.2176,1.43767c-0.0975,0.08829 -0.42942,0.09048 -0.34508,0.19141c0.29727,0.35578 0.87755,0.29992 1.31192,0.462c1.14834,0.38303 2.20529,0.96307 3.34589,1.34398l0.63416,0.10381c0,0 0.14323,0.02387 0.27772,0.11838c0.07761,-0.05623 0.15493,-0.11286 0.23198,-0.16984c0.01182,-0.01652 0.02387,-0.03279 0.03616,-0.04883c0.32791,-0.42778 0.80506,-0.7675 1.37849,-1.0415c0.50532,-0.39915 1.00883,-0.80029 1.52116,-1.18862c-1.03906,-1.39835 -2.26218,-2.68554 -3.2571,-4.09484zM236.47626,172.18993c-0.15648,0.30556 -0.54029,0.30556 -0.54029,0.30556l0.0168,-0.01417c-2.32081,0.5107 -4.6737,0.80491 -6.97927,1.39497c-0.25579,0.06546 -0.8505,0.1935 -1.31187,0.39284c-0.20318,0.15901 -0.4071,0.31712 -0.61245,0.47338c-0.5249,0.90163 -0.2601,2.88356 -0.25567,3.81719c0.0153,3.22054 0.20972,6.4343 0.38519,9.64912c0.08814,1.61466 0.37821,3.13078 0.55389,4.72731c0.03043,0.27658 -0.20811,0.65906 0.00768,0.83473c0.39056,0.31793 1.0058,-0.12881 1.50803,-0.09164c1.20003,0.08882 2.37793,0.17787 3.58164,0.17766c4.42398,-0.00077 8.87216,0.12404 13.2921,-0.06866c2.6356,-0.11463 5.30018,-0.15484 7.9214,-0.4648c0.45449,-0.05374 2.92196,-0.00521 3.21216,-0.27707c0.05453,-0.05109 0.00175,-2.85336 0.03319,-3.12643c0.35493,-3.08242 0.33605,-6.09023 0.84806,-9.16163c0.4372,-2.99972 2.16388,-6.34368 1.61942,-9.44977c-0.10726,-0.61191 -2.44593,-0.28137 -2.84729,-0.28771c-2.60317,-0.04115 -5.22482,-0.23157 -7.82782,-0.34031c-4.36407,0.00073 -8.45847,0.63261 -12.6049,1.50944z" fill="#ff0000"/><path d="M229.08408,171.69662c-0.51234,0.38833 -1.02429,0.80436 -1.52962,1.20351c-0.57343,0.274 -1.06534,0.62414 -1.39324,1.05192c-0.01229,0.01603 -0.02484,0.03251 -0.03666,0.04903c-0.07706,0.05698 -0.15702,0.11454 -0.23463,0.17078c-0.13449,-0.0945 -0.28006,-0.11771 -0.28006,-0.11771l-0.6407,-0.10273c-1.1406,-0.38091 -2.23335,-0.97723 -3.38169,-1.36026c-0.43438,-0.16208 -1.01951,-0.11487 -1.31679,-0.47065c-0.08434,-0.10094 0.24742,-0.10352 0.34491,-0.19182c0.46549,-0.42154 0.80104,-0.97788 1.21481,-1.4503c0.88966,-1.01576 2.9771,-2.57701 3.37051,-4.01514c0.00095,0.00353 0.00202,0.00693 0.00311,0.01017c0.13091,0.38763 0.36376,0.74473 0.59972,1.07897c0.99491,1.4093 2.24126,2.74587 3.28032,4.14422z" data-paper-data="{&quot;noHover&quot;:false,&quot;origItem&quot;:[&quot;Path&quot;,{&quot;applyMatrix&quot;:true,&quot;selected&quot;:true,&quot;segments&quot;:[[[225.78845,167.58975],[0.99491,1.4093],[-0.23596,-0.33424],7],[[225.19848,166.51341],[0.13091,0.38763],[-0.0011,-0.00324],7],[[225.19542,166.50324],[0.00095,0.00353],[-0.3934,1.43812],7],[[221.87072,170.47611],[0.88966,-1.01576],[-0.41377,0.47242],7],[[220.65313,171.91378],[0.46549,-0.42154],[-0.0975,0.08829],7],[[220.30805,172.10519],[-0.08434,-0.10094],[0.29727,0.35578],7],[[221.61997,172.56719],[-0.43438,-0.16208],[1.14834,0.38303],7],[[224.96586,173.91118],[-1.1406,-0.38091],[0,0],7],[[225.60002,174.01499],[0,0],[0,0],7],[[225.87775,174.13337],[-0.13449,-0.0945],[0.07761,-0.05623],7],[[226.10973,173.96353],[-0.07706,0.05698],[0.01182,-0.01652],7],[[226.14589,173.9147],[-0.01229,0.01603],[0.32791,-0.42778],7],[[227.52438,172.87321],[-0.57343,0.274],[0.50532,-0.39915],7],[[229.04555,171.68459],[-0.51234,0.38833],[-1.03906,-1.39835],7]],&quot;closed&quot;:true}]}" fill="#000000"/><path d="M249.09917,170.64436c2.603,0.10874 5.23774,0.30955 7.84091,0.3507c0.40137,0.00635 2.74252,-0.32086 2.84978,0.29105c0.54445,3.10609 -1.17565,6.46831 -1.61285,9.46803c-0.51201,3.07139 -0.49784,6.10268 -0.85277,9.18509c-0.03144,0.27307 0.01788,3.08065 -0.03665,3.13174c-0.29021,0.27186 -2.76147,0.22761 -3.21597,0.28135c-2.62122,0.30996 -5.30432,0.36045 -7.93993,0.47508c-4.41994,0.1927 -8.90484,0.05863 -13.32882,0.0594c-1.2037,0.00021 -2.38588,-0.09334 -3.58591,-0.18217c-0.50223,-0.03717 -1.11859,0.40812 -1.50915,0.09019c-0.21579,-0.17567 0.02191,-0.55932 -0.00852,-0.83591c-0.17568,-1.59653 -0.47033,-3.12153 -0.55847,-4.73619c-0.17548,-3.21481 -0.37138,-6.4514 -0.38668,-9.67194c-0.00443,-0.93363 -0.26647,-2.92367 0.25843,-3.8253c0.20534,-0.15626 0.40996,-0.31579 0.61314,-0.4748c0.46137,-0.19934 1.05719,-0.32939 1.31298,-0.39486c2.30557,-0.59007 4.66908,-0.89614 6.98989,-1.40685l-0.01685,0.01421c0,0 0.38547,-0.00118 0.54195,-0.30674c4.14643,-0.87683 8.28142,-1.51137 12.6455,-1.5121z" data-paper-data="{&quot;noHover&quot;:false,&quot;origItem&quot;:[&quot;Path&quot;,{&quot;applyMatrix&quot;:true,&quot;selected&quot;:true,&quot;segments&quot;:[[[236.47626,172.18993],[4.14643,-0.87683],[-0.15648,0.30556],7],[[235.93597,172.49549],[0,0],[0,0],7],[[235.95277,172.48132],[0,0],[-2.32081,0.5107],7],[[228.97349,173.87629],[2.30557,-0.59007],[-0.25579,0.06546],7],[[227.66163,174.26913],[0.46137,-0.19934],[-0.20318,0.15901],7],[[227.04918,174.74251],[0.20534,-0.15626],[-0.5249,0.90163],7],[[226.79351,178.5597],[-0.00443,-0.93363],[0.0153,3.22054],7],[[227.1787,188.20882],[-0.17548,-3.21481],[0.08814,1.61466],7],[[227.73259,192.93613],[-0.17568,-1.59653],[0.03043,0.27658],7],[[227.74027,193.77086],[-0.21579,-0.17567],[0.39056,0.31793],7],[[229.2483,193.67921],[-0.50223,-0.03717],[1.20003,0.08882],7],[[232.82994,193.85687],[-1.2037,0.00021],[4.42398,-0.00077],7],[[246.12204,193.78821],[-4.41994,0.1927],[2.6356,-0.11463],7],[[254.04344,193.32341],[-2.62122,0.30996],[0.45449,-0.05374],7],[[257.2556,193.04634],[-0.29021,0.27186],[0.05453,-0.05109],7],[[257.28879,189.91991],[-0.03144,0.27307],[0.35493,-3.08242],7],[[258.13685,180.75828],[-0.51201,3.07139],[0.4372,-2.99972],7],[[259.75627,171.30851],[0.54445,3.10609],[-0.10726,-0.61191],7],[[256.90898,171.0208],[0.40137,0.00635],[-2.60317,-0.04115],7],[[249.08115,170.68049],[2.603,0.10874],[-4.36407,0.00073],7]],&quot;closed&quot;:true}]}" fill="#000000"/><path d="M237.67095,186.89973c1.18575,-3.74532 2.84313,-6.958 5.08226,-10.32971c0.29778,-0.44839 2.33292,-3.7448 3.01783,-3.5788c0.71331,0.17288 1.37167,2.77676 1.62662,3.46552c1.02297,3.20387 2.13017,6.36039 3.233,9.53592c0.24791,0.71385 1.21857,3.00335 0.82338,3.74185c-0.46404,0.86714 -1.84317,0.83527 -2.59763,0.91373c-2.42948,0.25264 -4.81514,0.33633 -7.25637,0.33617c-1.51837,-0.03698 -3.1457,0.08673 -4.6506,-0.11343c-0.39794,-0.05293 -1.03833,0.11161 -1.1746,-0.266c-0.46816,-1.29725 1.03733,-2.33458 1.56613,-3.253l0.09513,-0.193c0,0 0.07829,-0.15657 0.23485,-0.25925zM237.43871,189.31633c-0.20206,0.22776 -0.42151,0.43584 -0.66104,0.6097c-0.33349,0.24205 0.80054,-0.25106 1.2125,-0.24102c1.20822,0.02944 2.41643,0.05894 3.62465,0.08845c2.39846,-0.00016 4.73353,-0.10192 7.1211,-0.33025c0.54556,-0.05218 1.42198,0.27342 1.6273,-0.23471c0.15401,-0.38116 -0.73228,-2.4044 -0.87636,-2.81799c-1.10633,-3.17564 -2.21167,-6.334 -3.23416,-9.53926c-0.22539,-0.60819 -0.64063,-1.28273 -0.71262,-1.95929c-0.28526,0.54082 -0.81132,0.9372 -1.17335,1.43623c-0.68561,0.94504 -1.29833,1.95678 -1.94405,2.92954c-2.00106,3.01456 -3.15873,6.20911 -4.08676,9.68921c0,0 -0.15602,0.58507 -0.74109,0.42905c-0.05935,-0.01583 -0.11107,-0.03607 -0.15611,-0.05967z" fill="#ff0000"/><path d="M241.92252,185.49966c0.03402,-0.17567 0.15588,-0.49027 0.59234,-0.49027c0.60552,0 0.60552,0.60552 0.60552,0.60552l-0.17735,0.5416c-1.47282,1.01489 2.60407,0.69676 2.78125,0.67306c0,0 0.60021,-0.08003 0.68024,0.52018c0.08003,0.60021 -0.52018,0.68024 -0.52018,0.68024c-1.62328,0.21577 -6.00127,0.08199 -3.96182,-2.53032z" fill="#ff0000"/><path d="M243.2705,182.21203c0,-0.33442 0.2711,-0.60552 0.60552,-0.60552c0.33442,0 0.60552,0.2711 0.60552,0.60552c0,0.33442 -0.2711,0.60552 -0.60552,0.60552c-0.33442,0 -0.60552,-0.2711 -0.60552,-0.60552z" fill="#ff0000"/><path d="M245.31222,182.0986c0,-0.33442 0.2711,-0.60552 0.60552,-0.60552c0.33442,0 0.60552,0.2711 0.60552,0.60552c0,0.33442 -0.2711,0.60552 -0.60552,0.60552c-0.33442,0 -0.60552,-0.2711 -0.60552,-0.60552z" fill="#ff0000"/></g></g></svg>