<svg version="1.1" xmlns="http://www.w3.org/2000/svg" xmlns:xlink="http://www.w3.org/1999/xlink" width="88.10354" height="173.55839" viewBox="0,0,88.10354,173.55839"><g transform="translate(-196.19822,-93.35017)"><g data-paper-data="{&quot;isPaintingLayer&quot;:true}" fill-rule="nonzero" stroke-width="2" stroke-linejoin="miter" stroke-miterlimit="10" stroke-dasharray="" stroke-dashoffset="0" style="mix-blend-mode: normal"><g fill="#6b542b" stroke="#001026" stroke-linecap="round"><path d="M241.09031,174.29889c4.96471,-0.60105 5.16007,12.4923 6.12185,15.26629c0.96178,2.77398 6.71343,12.59407 7.63403,15.63905c0.92061,3.04498 -0.72082,5.01096 -2.57776,7.67185c-1.85694,2.66089 -5.01869,4.15726 -7.12692,3.67628c-2.10823,-0.48098 -3.55647,-5.82137 -3.55647,-5.82137c0,0 -1.48034,-3.99766 -1.12154,-9.16421c0.3588,-5.16655 0.27532,-21.3076 0.27532,-21.3076"/><path d="M247.91044,214.55102c0,0 -2.23667,5.17315 0.63434,8.2358c1.82875,1.95081 -1.32961,7.36763 -5.23502,4.93441c-2.50345,-1.55974 -3.03931,-5.48349 -2.38653,-14.39288c0.10421,-1.42222 -0.7119,-8.19449 -0.50493,-9.72761"/><path d="M251.26337,209.89338c0,0 3.13536,9.77585 4.31186,14.93765c0.65965,2.89418 -1.98862,6.90523 -5.31897,5.67104c-3.33035,-1.23419 -2.28999,-4.47173 -3.48355,-7.99785c-1.19356,-3.52612 -1.16139,-10.51215 -1.16139,-10.51215"/><path d="M254.58722,204.07985c0,0 1.36482,6.88309 6.8787,12.3721c4.68584,4.6647 -0.65707,10.39942 -3.88643,8.45998c-2.18729,-1.31362 -4.73804,-6.26695 -5.18049,-9.15485c-0.62626,-4.08768 -0.95157,-6.98573 -0.95157,-6.98573"/><path d="M250.93554,198.06462c0,0 5.37935,5.33472 7.97021,7.05491c2.68022,1.77953 3.60099,8.56196 1.69419,11.5202c-1.90679,2.95825 -5.48174,0.8291 -6.22548,-1.80047c-0.90471,-3.1987 -1.12653,-6.35274 -1.12653,-6.35274l-3.03547,-1.88483"/></g><g stroke-linecap="round"><path d="M241.94326,202.71589c0,0 -5.96143,23.08118 -17.76531,29.52048c-10.70013,5.83718 -21.30066,0.39146 -25.34961,-9.48948c-5.24194,-12.79228 3.24262,-22.63094 10.11773,-17.36393c6.88337,5.27332 7.69036,15.69798 13.69755,15.21244c6.00719,-0.48555 19.29963,-17.8795 19.29963,-17.8795z" fill="#6b542b" stroke="none"/><path d="M213.44307,221.41936c-2.4203,2.4919 -5.82128,10.13077 0.74266,11.5038c7.06255,1.47733 16.11012,-4.02424 9.99222,-0.68678c-10.70013,5.83718 -21.30066,0.39146 -25.34961,-9.48948c-5.24194,-12.79228 3.24262,-22.63094 10.11773,-17.36393c6.88337,5.27332 6.01233,14.69116 12.01952,14.20562c2.82805,-0.22858 1.74818,1.82778 0.24113,1.17267c-1.69415,-0.73644 -4.52928,-2.67194 -7.76366,0.65812z" fill="#dac3a1" stroke="none"/><path d="M241.94326,202.71589c0,0 -5.96142,23.08118 -17.76531,29.52048c-10.70013,5.83718 -21.30067,0.39146 -25.34961,-9.48948c-5.24194,-12.79228 3.24262,-22.63094 10.11773,-17.36393c6.88337,5.27332 7.69035,15.36237 13.69755,14.87683c6.00719,-0.48555 19.29963,-17.54389 19.29963,-17.54389z" fill="none" stroke="#001026"/></g><path d="M250.48584,189.11812c4.83824,17.02506 5.00538,38.32879 5.00538,38.32879c0,0 6.12985,-1.06635 12.16295,0.9848c7.99178,2.71707 6.81686,11.71087 -6.088,11.91138c-11.2871,0.17538 -21.12381,1.5045 -19.22223,-13.76017c1.73138,-13.8984 -0.71522,-27.61421 -0.71522,-27.61421" fill="#6b542b" stroke="#001026" stroke-linecap="round"/><g><g><path d="M250.0804,187.14631c3.37095,9.15485 -5.26798,15.79819 -13.74771,12.60207c-4.16706,-1.57061 -3.20781,-12.8312 -3.20781,-12.8312c0,0 -7.08179,-9.66953 0.45826,-13.06033c7.39843,-3.32711 13.71424,5.73131 16.49726,13.28946z" fill="#6b542b" stroke="#001026" stroke-linecap="round"/><path d="M249.879,190.6159c0,4.04941 -2.51332,7.33211 -5.61366,7.33211c-3.10033,0 -5.84278,-1.90793 -5.84278,-5.95734c0,-4.04941 -2.28624,-7.9277 2.17673,-11.45643c4.04504,-3.19829 9.27971,6.03224 9.27971,10.08166z" fill="#dac3a1" stroke="none" stroke-linecap="butt"/></g><path d="M230.90168,177.49954c-0.2612,-0.77923 0.39485,-2.31397 0.8077,-2.93868c0.56737,-0.16927 0.91176,-0.89264 1.5519,-1.03612c1.62995,-0.36532 3.19168,-0.02512 4.85961,0.01201c2.23858,0.87384 3.62262,2.73783 5.71679,3.75739c1.86876,1.89638 0.65204,0.7298 -0.73872,0.3745c-0.677,-0.17296 -0.90315,0.25689 -0.85777,0.74419c-0.22427,-0.37741 -0.40777,-0.76751 -0.68718,-1.10737l0.04584,-0.03725l-0.21072,-0.25934c-0.03075,-0.03847 -0.07807,-0.06311 -0.13114,-0.06311c-0.09267,0 -0.1678,0.07513 -0.1678,0.1678c0,0.00002 0,0.00004 0,0.00006l0.0001,0.3356h0.00004l-0.00004,0.00019c0.00261,1.03092 -0.00136,2.23502 0.12108,3.2957c-0.73101,-1.60785 -0.4011,-3.96653 -1.45263,-5.46655l0.05237,-0.03107l-0.16965,-0.28595c-0.02888,-0.05068 -0.0834,-0.08486 -0.14591,-0.08486c-0.09267,0 -0.1678,0.07513 -0.1678,0.1678c0,0.01453 0.00185,0.02863 0.00532,0.04209l0.07614,0.32305l0.00564,-0.00133l-0.00064,0.01844c0.04725,0.09979 0.08816,0.19875 0.12415,0.29731c0.02895,0.18087 0.08779,0.36582 0.15905,0.54942c0.07469,0.32611 0.12443,0.65675 0.20052,1.00764c-0.02822,0.25977 -1.56512,-1.86968 -2.09411,-1.52055c-0.26524,0.17505 -0.20115,2.30352 -0.07297,3.24934c-0.3288,-0.85118 -1.49172,-3.08769 -1.93292,-2.86499c-0.16343,0.0825 -0.11109,0.8176 -0.09963,1.26515c-0.24951,-0.31104 -0.54295,-0.93142 -0.87021,-1.07146c-0.45526,-0.19481 -1.00944,0.06242 -1.52073,0.49909c0.3141,-0.77387 0.5872,-1.5762 0.94105,-2.28239c0,0 0.07505,-0.15008 -0.07504,-0.22513c-0.15008,-0.07505 -0.22513,0.07504 -0.22513,0.07504c-0.46206,0.92599 -1.67503,1.18453 -2.15598,2.17346c-0.18395,0.22139 -0.56477,1.89287 -0.89059,0.92086zM231.94692,178.60388l-0.01162,-0.00564c0.00556,-0.00162 0.01112,-0.00328 0.01669,-0.00498c-0.0017,0.00354 -0.00339,0.00709 -0.00507,0.01062z" fill="#001026" stroke="none" stroke-linecap="butt"/></g><path d="M244.86057,199.50816l-1.24101,37.52101c0,0 5.80182,6.27666 8.59818,15.301c2.79636,9.02434 -4.49713,16.93218 -15.04808,12.12425c-6.09638,-2.77805 -8.23395,-8.3078 -9.06191,-12.03676c-1.32371,-5.96168 -1.71615,-12.2021 -0.30612,-15.28807c2.29199,-5.0162 5.65911,-41.49833 5.65911,-41.49833" fill="#6b542b" stroke="#001026" stroke-linecap="round"/><g><g fill="none" stroke="#001026" stroke-linecap="round"><path d="M283.30177,147.41342l-16.44471,4.69849"/><path d="M265.85024,159.15965l11.74622,3.02046"/></g><path d="M236.08014,109.11375l21.49065,-14.07764c0,0 16.16334,22.10672 18.14676,43.33629" fill="#6b542b" stroke="#001026" stroke-linecap="round"/><g stroke-linecap="butt"><path d="M205.79219,141.81671c0,-17.4098 14.33126,-32.99705 33.5113,-33.65208c18.98814,-0.64848 32.61766,7.3994 37.08583,31.19572c0.07156,0.38109 3.99745,3.38689 3.85261,9.44454c-0.00897,0.37552 0.05875,0.76152 -0.05507,1.10639c-1.77369,5.37378 -6.96961,8.98991 -10.87942,11.84261c-6.82536,4.97996 -14.19774,6.94629 -24.64214,6.94629c-19.00132,0 -38.8731,-9.47365 -38.8731,-26.88346z" fill="#6b542b" stroke="none"/><path d="M253.30377,147.19341c0,0 11.76619,-7.06581 21.29829,-7.56011c0.07156,0.38109 7.79836,-2.08794 3.96185,10.51403c-1.78496,5.44736 -7.71495,10.94037 -12.14299,14.46236c-8.19889,6.52128 -16.54583,8.73014 -21.25222,8.62119c-5.53659,-0.12818 -8.76522,-3.22792 -13.28372,-5.67855c-10.98461,-5.95756 -19.70539,-15.49402 -15.96494,-23.00631c0.57508,-1.3745 0.74881,-4.20195 2.68548,-4.82266c0.72394,-0.23203 1.70032,-0.62325 2.31587,-0.18717c1.03116,0.73051 1.65598,2.57025 2.81816,2.50362c11.55242,-0.66234 29.56421,5.15361 29.56421,5.15361z" fill="#dac3a1" stroke="none"/><path d="M205.79219,141.81671c0,-17.4098 14.33126,-32.99705 33.5113,-33.65208c18.98814,-0.64848 32.61766,7.3994 37.08583,31.19572c0.07156,0.38109 5.17207,1.54106 2.84579,9.78015c-4.01624,9.35166 -10.19435,14.81024 -16.67522,18.58943c-4.98198,2.90514 -8.28941,5.8323 -14.53854,6.00435c-10.50662,0.28926 -14.20457,-4.35222 -19.05985,-6.62885c-13.56574,-6.36095 -23.16931,-11.30881 -23.16931,-25.2887z" fill="none" stroke="#001026"/></g><path d="M223.55477,143.66366c2.11985,1.4079 -1.17851,-0.95278 -2.18054,-3.7133c-0.29878,-0.8231 -2.13931,-0.86431 -3.57157,0.04408c-1.69946,1.07786 -0.93566,7.02213 -1.16635,4.62364c-0.23068,-2.39849 -0.43558,-2.17688 0.04127,-4.098c0.25642,-1.03306 3.06128,-2.31219 4.90725,-1.47115c1.65363,0.75341 0.85617,3.87503 1.96994,4.61474z" fill="#001026" stroke="none" stroke-linecap="butt"/><path d="M205.78843,144.28188c-4.11174,-29.11543 19.06421,-49.67299 19.06421,-49.67299l20.5536,13.64643" fill="#6b542b" stroke="#001026" stroke-linecap="round"/><path d="M248.3481,148.94183c-3.30974,-2.60843 10.72654,-3.63149 8.4517,-0.62141c-1.59614,2.11202 -1.84343,2.36778 -3.94285,2.33433c-2.09942,-0.03345 -2.71641,-0.30029 -4.50885,-1.71292z" fill="#001026" stroke="none" stroke-linecap="round"/><g fill="none" stroke="#001026" stroke-linecap="round"><path d="M214.67026,145.39979l-16.44471,-4.69849"/><path d="M203.93085,155.46798l11.74622,-3.02046"/></g><path d="M274.47452,138.96318c0.6593,6.95378 -2.92285,8.71422 -6.88173,9.32182c-3.95888,0.60761 -11.19725,0.20734 -11.85654,-6.74644c-0.6593,-6.95378 3.77263,-12.75204 7.73151,-13.35965c7.11775,-1.09243 10.34746,3.83048 11.00676,10.78426z" fill="#001026" stroke="#001026" stroke-linecap="butt"/><path d="M269.81973,141.5334c0,2.03886 -0.47557,4.22669 -0.47557,4.22669c0,0 -0.23779,-1.3853 -0.23779,-3.42416c0,-2.03886 0.23779,-3.95918 0.23779,-3.95918c0,0 0.47557,1.11779 0.47557,3.15665z" fill="#006aff" stroke="none" stroke-linecap="butt"/><path d="M248.75321,140.64882c0,6.91584 -4.70532,8.10262 -9.74628,8.10262c-5.04096,0 -14.07797,-1.48143 -14.07797,-8.39726c0,-6.91584 6.25235,-11.93296 11.29331,-11.93296c9.06324,0 12.53093,5.31176 12.53093,12.2276z" fill="#001026" stroke="#001026" stroke-linecap="butt"/><path d="M243.13037,137.76048c0,0 0.30098,2.40065 0.30098,4.9495c0,2.54884 -0.30098,4.28065 -0.30098,4.28065c0,0 -0.60196,-2.73508 -0.60196,-5.28392c0,-2.54884 0.60196,-3.94623 0.60196,-3.94623z" fill="#006aff" stroke="none" stroke-linecap="butt"/><path d="M242.83517,162.07437c0.07667,0.07248 0.11799,0.18638 0.13402,0.32804c0.00001,0.00005 0.00001,0.00009 0.00001,0.00013c-0.0417,-0.10935 -0.08683,-0.21866 -0.13403,-0.32818z" fill="#001026" stroke="none" stroke-linecap="butt"/><g stroke-linecap="butt"><path d="M276.35372,142.69888c0,0 0.28614,3.3975 -0.71833,5.0556c-4.05605,6.69544 -16.48227,23.50833 -28.59531,22.97415c-15.11277,-0.66647 -27.97907,-29.72832 -27.97907,-29.72832c0,0 8.5943,13.93896 29.17245,14.87881c27.99434,1.27855 28.12025,-13.18023 28.12025,-13.18023z" fill="#001026" stroke="#001026"/><g stroke="none"><g fill="#0062ea"><path d="M237.56942,163.09901c-0.48752,0.11544 -1.03955,-0.36194 -1.23304,-1.06627c-0.19347,-0.70432 0.83708,-1.89602 0.83708,-1.89602c0,0 0.69514,1.00944 0.88863,1.71377c0.22267,0.81059 -0.00515,1.13309 -0.49266,1.24852z"/><path d="M239.58616,164.12383c-0.63175,0.21969 -1.37062,-0.15284 -1.65024,-0.83206c-0.27961,-0.67923 1.01947,-2.11189 1.01947,-2.11189c0,0 0.94608,0.88626 1.2257,1.56548c0.32179,0.78172 0.03684,1.15877 -0.59493,1.37847z"/><path d="M241.74116,164.54673c-0.70466,0.14634 -1.41327,-0.31031 -1.58278,-1.01995c-0.16952,-0.70964 0.87457,-1.99534 0.87457,-1.99534c0,0 1.10258,0.93335 1.58655,1.70899c0.46337,0.74262 -0.1737,1.15996 -0.87833,1.3063z"/><path d="M244.66202,165.49854c-0.74595,0.31827 -1.62101,0.04249 -1.9545,-0.61599c-0.33349,-0.65847 0.68231,-3.65173 0.68231,-3.65173c0,0 0.87697,1.92477 1.96959,2.76191c0.73155,0.5605 0.04857,1.18753 -0.69738,1.50581z"/><path d="M247.61667,165.93479c-0.63328,0.31295 -1.41245,-0.0751 -1.74032,-0.86673c-0.32785,-0.79164 0.91425,-2.6102 0.91425,-2.6102c0,0 0.4632,1.16473 1.35062,1.77876c0.82791,0.57285 0.10873,1.38521 -0.52454,1.69816z"/><path d="M249.07829,164.3389c0.62746,-0.73284 1.40949,-1.89669 1.40949,-1.89669c0,0 1.42949,1.68444 1.10119,2.50201c-0.32826,0.81758 -1.16598,1.27841 -1.87111,1.02928c-0.70512,-0.24914 -1.32587,-0.83305 -0.63959,-1.63459z"/><path d="M259.27272,162.46078c0.166,-0.71471 0.82124,-1.76316 0.82124,-1.76316c0,0 1.07558,1.13084 0.90959,1.84555c-0.166,0.71471 -0.69893,1.22343 -1.19036,1.13629c-0.49143,-0.08715 -0.73149,-0.39612 -0.54047,-1.21866z"/><path d="M256.93039,162.7963c0.30768,-0.67695 1.29031,-1.55576 1.29031,-1.55576c0,0 1.23956,1.44248 0.93188,2.11943c-0.30768,0.67695 -1.06182,1.04372 -1.6844,0.81917c-0.62258,-0.22454 -0.89189,-0.60374 -0.53775,-1.38283z"/><path d="M254.53299,163.56487c0.28216,-0.6857 1.26706,-1.58231 1.26706,-1.58231c0,0 1.40923,1.44028 1.12707,2.12598c-0.28216,0.6857 -1.05817,1.06367 -1.7333,0.8442c-0.67512,-0.21947 -0.98557,-0.5987 -0.66083,-1.38788z"/><path d="M251.75218,164.43074c1.00675,-0.94707 1.69454,-2.95378 1.69454,-2.95378c0,0 1.29803,2.87211 1.02942,3.56211c-0.2686,0.68999 -1.1128,1.05579 -1.88555,0.81705c-0.77275,-0.23874 -1.51247,-0.79127 -0.83843,-1.42539z"/></g><g fill="#006aff"><path d="M236.28355,159.26692c-0.02143,0.72819 -0.43229,1.86372 -0.43229,1.86372c0,0 -1.19918,-0.93346 -1.17773,-1.66165c0.02143,-0.72819 0.41891,-1.31432 0.88777,-1.30915c0.46884,0.00517 0.74695,0.26902 0.72227,1.10707z"/><path d="M237.86462,160.09035c-0.02143,0.72819 -0.45901,1.86343 -0.45901,1.86343c0,0 -1.28592,-0.93441 -1.26445,-1.66259c0.02143,-0.72819 0.44579,-1.31403 0.94781,-1.30849c0.50204,0.00554 0.80033,0.2696 0.77565,1.10766z"/><path d="M240.16712,160.65307c-0.02143,0.72819 -0.59695,1.86192 -0.59695,1.86192c0,0 -1.73423,-0.93935 -1.71278,-1.66753c0.02143,-0.72819 0.58473,-1.3125 1.25818,-1.30507c0.67345,0.00744 1.0762,0.27264 1.05154,1.1107z"/><path d="M242.70091,161.08399c-0.02143,0.72819 -0.63483,1.86148 -0.63483,1.86148c0,0 -1.85739,-0.94071 -1.83593,-1.6689c0.02143,-0.72819 0.62292,-1.31207 1.34345,-1.30414c0.72053,0.00794 1.152,0.27347 1.12731,1.11154z"/><path d="M245.37347,161.48254c-0.63312,1.18002 -0.59522,3.2715 -0.59522,3.2715c0,0 -2.23245,-2.34788 -2.21483,-3.07611c0.01761,-0.72823 0.69671,-1.31281 1.51679,-1.30568c0.82007,0.00713 1.7172,0.32022 1.29331,1.11029z"/><path d="M247.32317,162.12317c-0.57583,0.95767 -0.5968,2.23381 -0.5968,2.23381c0,0 -1.69281,-1.12203 -1.6671,-1.99516c0.02571,-0.87311 0.5813,-1.57502 1.24099,-1.56776c0.65968,0.00727 1.56013,0.43568 1.02291,1.32913z"/><path d="M251.08539,160.76556c0.68048,-0.03979 1.26448,0.6345 1.30437,1.50605c0.03988,0.87156 -1.68944,2.07672 -1.68944,2.07672c0,0 -0.32756,-1.32895 -0.64996,-2.20363c-0.35264,-0.95669 0.35455,-1.33934 1.03503,-1.37912z"/><path d="M262.06859,158.30076c0.46885,0.00517 0.83157,0.59967 0.81011,1.32785c-0.02143,0.72819 -1.27477,1.63463 -1.27477,1.63463c0,0 -0.34376,-1.14385 -0.32232,-1.87205c0.02467,-0.83806 0.31811,-1.0956 0.78698,-1.09043z"/><path d="M260.49346,159.08942c0.50204,0.00554 0.89165,0.60034 0.87017,1.32852c-0.02143,0.72819 -1.36153,1.63367 -1.36153,1.63367c0,0 -0.37046,-1.14416 -0.34902,-1.87234c0.02467,-0.83806 0.33832,-1.09538 0.84034,-1.08985z"/><path d="M258.43522,159.60408c0.67347,0.00744 1.20199,0.60374 1.18054,1.33195c-0.02143,0.72819 -1.80983,1.62872 -1.80983,1.62872c0,0 -0.50841,-1.14566 -0.48696,-1.87385c0.02467,-0.83806 0.44279,-1.09424 1.11625,-1.08681z"/><path d="M256.12054,159.9816c0.72053,0.00794 1.28723,0.6047 1.2658,1.33288c-0.02143,0.72819 -1.93299,1.62737 -1.93299,1.62737c0,0 -0.54629,-1.14609 -0.52483,-1.87427c0.02467,-0.83806 0.47151,-1.09392 1.19205,-1.08597z"/><path d="M253.50849,160.325c0.81995,0.01094 1.46418,0.61009 1.43894,1.33823c-0.02524,0.72814 -2.39448,3.02534 -2.39448,3.02534c0,0 0.16094,-2.08929 -0.40228,-3.28249c-0.37712,-0.79888 0.53786,-1.09202 1.35782,-1.08108z"/><path d="M250.05507,162.19806c-0.02506,0.85106 -1.35957,2.19148 -1.35957,2.19148c0,0 -1.25297,-1.42937 -1.22788,-2.28045c0.02506,-0.85106 0.61076,-1.05116 1.32574,-1.04329c0.715,0.00787 1.28676,0.28117 1.26169,1.13224z"/></g></g><path d="M276.35372,142.53108c0,0 0.28614,3.3975 -0.71833,5.0556c-4.05605,6.69544 -16.48227,23.50833 -28.59531,22.97415c-15.11277,-0.66647 -27.97907,-29.72832 -27.97907,-29.72832c0,0 8.5943,13.93896 29.17245,14.87881c27.99434,1.27855 28.12025,-13.18023 28.12025,-13.18023z" fill-opacity="0.71373" fill="#001026" stroke="none"/></g><path d="M224.01249,155.00887c1.98171,2.44977 4.82916,7.74849 4.82916,7.74849c0,0 -2.80644,-4.18079 -4.78815,-6.63056c-1.98171,-2.44977 -2.38824,-2.24083 -2.38824,-2.24083c0,0 0.36553,-1.32687 2.34724,1.12289z" fill="#001026" stroke="none" stroke-linecap="butt"/><path d="M252.13636,153.73625c0,0 -0.46985,-0.79339 -0.46985,-1.2753c0,-0.48191 1.54379,-1.2753 1.54379,-1.2753c0,0 -1.00682,0.79339 -1.00682,1.2753c0,0.48191 -0.06712,1.2753 -0.06712,1.2753z" fill="#001026" stroke="none" stroke-linecap="butt"/></g><g fill="#6b542b" stroke="#001026" stroke-linecap="round"><path d="M231.61101,208.12945c0,0 4.7241,8.43135 7.35393,10.79496c2.72054,2.44513 2.63429,10.22686 0,13.23909c-2.63429,3.01223 -6.30345,0.02581 -6.70505,-3.05517c-0.48853,-3.74781 -0.21629,-7.33242 -0.21629,-7.33242l-4.10955,-6.31403"/><path d="M233.60988,182.50828c0,0 -2.98121,13.82585 -2.35822,17.10534c0.62299,3.27949 2.60094,15.15695 3.13278,18.73448c0.53184,3.57754 -1.63979,5.51748 -4.1688,8.20347c-2.52902,2.68599 -6.33314,3.84617 -8.62508,2.95637c-2.29194,-0.8898 -3.03758,-7.13666 -3.03758,-7.13666c0,0 -0.19535,-16.43385 2.82538,-26.16408c3.02073,-9.73023 5.2079,-18.66656 11.35472,-21.60357"/><path d="M225.03633,227.71474c0,0 -3.37176,5.44916 -0.64887,9.36921c1.73439,2.49695 -2.71447,8.06774 -6.70505,4.6846c-2.55805,-2.16866 -2.51172,-6.67105 -0.30357,-16.58503c0.35249,-1.58259 0.89041,-8.32875 1.37685,-10.01909"/><path d="M229.57845,223.03013c0,0 1.9097,11.51532 2.37921,17.51635c0.26326,3.36472 -3.37927,7.43856 -6.92134,5.49931c-3.54207,-1.93924 -1.83621,-5.40897 -2.59551,-9.57288c-0.75929,-4.16391 0.43259,-12.01703 0.43259,-12.01703"/><path d="M234.27911,217.04048c0,0 0.39659,7.96842 5.69101,15.05504c4.49933,6.02239 -2.45948,11.58938 -5.77128,8.87352c-2.24313,-1.83949 -4.29299,-7.83335 -4.31295,-11.15509c-0.02824,-4.70175 0.08524,-8.01551 0.08524,-8.01551"/></g></g></g></svg>