<svg version="1.1" xmlns="http://www.w3.org/2000/svg" xmlns:xlink="http://www.w3.org/1999/xlink" width="92.55251" height="136.82398" viewBox="0,0,92.55251,136.82398"><defs><radialGradient cx="254.55789" cy="182.0339" r="6.63383" gradientUnits="userSpaceOnUse" id="color-1"><stop offset="0" stop-color="#54606d"/><stop offset="1" stop-color="#2c3136"/></radialGradient></defs><g transform="translate(-168.74819,-97.01022)"><g data-paper-data="{&quot;isPaintingLayer&quot;:true}" stroke-miterlimit="10" stroke-dasharray="" stroke-dashoffset="0" style="mix-blend-mode: normal"><g fill-rule="nonzero" stroke="#001026" stroke-width="1.2" stroke-linejoin="miter"><path d="M237.50342,182.64479c1.89516,4.5768 5.38871,7.58999 5.46749,10.58042c0.05141,1.95168 -0.5662,3.78883 -1.38986,4.2249c-0.918,0.48603 -3.10521,-0.14861 -4.57757,-1.77716c-1.87276,-2.07143 -5.29956,-4.79478 -7.05302,-9.02938c-1.54676,-3.7354 -1.25692,-8.78395 -1.61136,-11.60876c-0.36329,-2.89512 0.84419,-4.41674 1.89987,-4.97563c1.13971,-0.6034 2.7531,-0.25813 4.64431,2.27032c1.56973,2.09863 1.19961,6.8847 2.62015,10.3153z" fill="#ffab19" stroke-linecap="butt"/><g><g><path d="M230.83993,189.5932l15.54537,-13.99455l6.55176,14.35l-17.92748,7.13935c0,0 -2.33476,-1.33175 -3.00805,-2.54202c-0.71417,-1.28369 -1.1616,-4.95277 -1.1616,-4.95277z" fill="#505a63" stroke-linecap="butt"/><path d="M247.08649,174.13172c3.17561,-1.93931 7.38265,0.06459 9.3967,4.47583c2.01404,4.41124 1.07239,9.5594 -2.10321,11.49869c-3.17561,1.93931 -7.38268,-0.0646 -9.3967,-4.47585c-2.01404,-4.41124 -1.07238,-9.55939 2.10322,-11.4987z" fill="url(#color-1)" stroke-linecap="butt"/><path d="M244.26232,181.72117c0,0 3.1006,-3.15356 4.77516,-4.21024c1.56506,-0.98758 4.96594,-1.93658 4.96594,-1.93658" fill="none" stroke-linecap="round"/><path d="M247.7681,189.08739c0,0 3.77807,-4.03217 5.41103,-5.31975c1.20654,-0.95133 3.50058,-1.70696 3.50058,-1.70696" fill="none" stroke-linecap="round"/><path d="M246.71231,174.28301c0,0 4.12201,3.51977 5.77846,5.93491c1.4411,2.10115 3.60448,7.74552 3.60448,7.74552" fill="none" stroke-linecap="round"/><path d="M243.6884,178.90259c0,0 4.37985,4.2066 6.1445,6.36881c1.37177,1.68081 3.56473,5.52786 3.56473,5.52786" fill="none" stroke-linecap="round"/></g><path d="M242.00224,196.9525c-2.11381,1.30217 -5.11133,0.12273 -6.69518,-2.63438c-1.58385,-2.75711 -1.86156,-5.9133 0.25226,-7.21549c2.11381,-1.30217 5.81868,-0.25725 7.40252,2.49986c1.58385,2.75711 1.1542,6.0478 -0.95962,7.35z" fill="#ffab19" stroke-linecap="butt"/></g></g><path d="M233.37357,187.14256c0.45749,0.74369 1.3298,2.11498 2.4111,3.97878c2.05343,3.53938 4.86054,8.85481 7.01154,15.02078l0.14188,0.47612c0.14188,0.47612 0.62548,0.72222 0.96717,0.49215c1.98747,-1.97323 6.00005,-5.56391 8.24903,0.98863c2.2239,6.31537 -9.46346,17.80431 -13.3833,12.75777c-1.52219,-2.27809 -1.0936,-4.28157 -0.83972,-5.34174c0.12066,-0.58936 0.05792,-1.18231 -0.0965,-1.77702c-0.51738,-1.43017 -1.527,-4.05332 -2.5656,-6.08533c-2.55692,-5.13842 -3.50769,-6.34032 -5.13411,-8.73875c-1.62643,-2.39845 -5.59646,-7.91935 -3.12636,-12.25005c2.07434,-3.74669 5.05117,-1.55868 6.36486,0.47866z" fill="#ffab19" fill-rule="evenodd" stroke="#001026" stroke-width="1.2" stroke-linecap="round" stroke-linejoin="round"/><g fill-rule="evenodd"><path d="M221.70197,191.48636c0.82506,0.24451 2.5956,0.8218 1.70775,5.3989c-0.88786,4.5771 -6.572,7.25933 -7.25903,7.47662c-2.62776,0.95744 -5.89119,1.98955 -9.98125,1.51403c-11.85763,-1.3043 -16.46404,-16.40083 -13.83939,-19.88452c2.53876,-3.45653 6.79385,5.43304 13.20812,9.59615c2.82029,1.888 5.58686,2.02392 7.82051,1.9493c3.12696,-0.23078 7.39784,-6.38327 8.34331,-6.05048z" fill="#ffab19" stroke="#001026" stroke-width="1.2" stroke-linecap="round" stroke-linejoin="round"/><path d="M197.60866,188.87097c2.30579,2.68252 6.27934,6.22756 6.27934,6.22756c0,0 -3.48812,-0.03408 -4.70496,2.49892c-1.01135,1.96256 0.09133,4.39377 0.50464,5.14759c-1.56504,-1.14774 -3.56025,-2.79123 -5.62682,-6.5603c-2.06657,-3.76908 -2.6571,-8.8895 -1.14655,-10.12541c1.57957,-1.00501 2.52657,0.59091 4.69433,2.81164z" fill="#ffffff" stroke="none" stroke-width="1" stroke-linecap="butt" stroke-linejoin="miter"/></g><path d="M221.39968,197.85215c-0.28784,-2.46791 0.56241,-6.26216 4.41605,-5.00351c4.50797,1.40196 4.98433,8.38917 5.26403,11.35284c0.27971,2.96369 1.04455,4.49835 2.33049,10.17021c0.48822,2.26301 0.63839,4.99214 1.14016,6.42885c0.14118,0.30789 2.86856,12.4284 -4.99994,12.43365c-6.94703,0.00463 -3.55381,-14.42081 -3.55381,-14.42081c0,0 -3.25108,-12.13417 -3.92052,-16.25442c-0.35252,-2.16967 -0.55507,-3.82208 -0.67646,-4.70683z" data-paper-data="{&quot;index&quot;:null}" fill="#ffab19" fill-rule="evenodd" stroke="#001026" stroke-width="1.2" stroke-linecap="round" stroke-linejoin="round"/><g fill-rule="evenodd"><path d="M226.19419,198.57096c-10.99253,-2.44511 -8.52848,-10.4877 -9.72864,-16.99479c-0.89396,-5.68772 0.35565,-5.63979 5.17568,-8.47699c2.61777,-1.78404 4.16137,-2.82774 5.588,-4.39696c2.17151,-2.30486 4.79369,2.79785 5.76159,5.8484c0,0 1.38645,4.56029 1.70493,7.29066c0.36771,3.32279 0.50154,5.59451 0.2568,7.27855c0,0 -0.52535,3.61973 -2.05411,5.26942c-1.37419,1.48288 -6.70423,4.18172 -6.70423,4.18172z" fill="#ffab19" stroke="#001026" stroke-width="1.2" stroke-linecap="round" stroke-linejoin="round"/><path d="M234.27999,189.62376c0,0 -1.77283,-0.17222 -3.8027,-0.57141c-2.48998,-0.42553 -4.79068,-0.5572 -5.39229,-4.93107c-0.29537,-3.5545 -1.1632,-7.82567 3.71368,-7.99465c4.61528,-0.2311 4.90603,3.48821 4.90603,3.48821c1.34948,5.87887 0.57528,10.00891 0.57528,10.00891z" fill="#ffffff" stroke="none" stroke-width="1" stroke-linecap="butt" stroke-linejoin="miter"/></g><g><path d="M219.25822,103.49062c0.19237,-0.30836 0.65741,-0.32046 0.87709,0.1172l5.81132,11.72641c0,0 7.09251,3.80585 9.83297,7.1415c4.59617,5.55089 6.18241,10.7367 6.18241,10.7367c0,0 6.83032,0.61576 9.7663,6.90989c2.93598,6.29412 2.73659,19.92698 -12.2627,29.02103c-14.99931,9.09405 -29.73703,7.05047 -39.6671,-4.33548c-9.93009,-11.38595 -4.79263,-30.00093 -5.04405,-28.92098c0,0 -6.20778,-18.19747 -5.79574,-18.06818l11.62108,3.14559c0,0 3.31883,-3.11987 7.31031,-4.55377c2.35094,-0.94786 4.48985,-1.33019 6.60906,-1.45531z" fill="#ffab19" fill-rule="evenodd" stroke="#001026" stroke-width="1.2" stroke-linecap="butt" stroke-linejoin="miter"/><path d="M241.8363,133.75241c0,0 6.55764,0.31949 9.49362,6.61362c2.93598,6.29412 2.22456,19.45026 -12.63539,28.37734c-19.22855,11.98091 -33.95766,-1.75376 -31.70572,-15.74335c2.21861,-14.1054 15.1812,-6.50858 22.23404,-9.3522c6.05007,-2.42084 4.64097,-9.92142 12.61344,-9.89541z" fill="#ffffff" fill-rule="evenodd" stroke="none" stroke-width="1" stroke-linecap="butt" stroke-linejoin="miter"/><path d="M258.09011,130.31948c-2.79156,5.60301 -8.97495,7.56062 -8.97495,7.56062" fill="none" fill-rule="evenodd" stroke="#001026" stroke-width="1.2" stroke-linecap="round" stroke-linejoin="round"/><path d="M260.7007,143.62259c-5.27299,2.19062 -9.27365,0.9879 -9.27365,0.9879" fill="none" fill-rule="evenodd" stroke="#001026" stroke-width="1.2" stroke-linecap="round" stroke-linejoin="round"/><path d="M228.01088,140.73911c1.81321,-0.53718 3.77944,-0.86835 4.09908,-0.08327c0.55298,1.59574 0.19109,5.22208 -1.15707,5.74718c-1.48754,0.69207 -5.9472,-1.12876 -6.48051,-2.98171c-0.48631,-1.36412 1.81162,-2.1706 3.53851,-2.68221z" fill="#001026" fill-rule="evenodd" stroke="#001026" stroke-width="1.2" stroke-linecap="round" stroke-linejoin="round"/><path d="M188.65641,150.51321c0,0 8.35879,1.04271 12.41406,3.73746" fill="none" fill-rule="evenodd" stroke="#001026" stroke-width="1.2" stroke-linecap="round" stroke-linejoin="round"/><path d="M202.49609,158.22723c-3.14614,3.06871 -9.90219,3.68778 -9.90219,3.68778" fill="none" fill-rule="evenodd" stroke="#001026" stroke-width="1.2" stroke-linecap="round" stroke-linejoin="round"/><g fill="none" fill-rule="nonzero" stroke="none" stroke-width="1" stroke-linecap="butt" stroke-linejoin="miter" font-family="sans-serif" font-weight="normal" font-size="12" text-anchor="start"/><g fill="none" fill-rule="nonzero" stroke="none" stroke-width="1" stroke-linecap="butt" stroke-linejoin="miter" font-family="sans-serif" font-weight="normal" font-size="12" text-anchor="start"/></g><g fill-rule="nonzero" stroke="#001026" stroke-width="1.2" stroke-linecap="butt" stroke-linejoin="miter"><path d="M203.54581,128.69818c0.26071,5.40764 -14.14905,19.91531 -14.14905,19.91531c0,0 -2.5217,0.59422 -3.73311,0.79162c-9.07246,1.4785 -16.08544,-0.72128 -16.31546,-5.49194c-0.26071,-5.40764 8.29265,-12.07076 19.10444,-14.8825c10.81181,-2.81175 14.83246,-5.74014 15.09318,-0.33251z" fill="#00b0f7"/><path d="M188.81135,127.55869l-11.38845,-1.20492c0,0 10.30422,-11.19201 16.52162,-15.3862c7.51956,-5.07259 25.43666,-12.91827 25.43666,-12.91827l-6.05159,24.29755z" fill="#ff2b2b"/><path d="M187.5535,150.36697c0,0 -4.99726,-7.73317 -6.69361,-11.7099c-1.64569,-3.858 -3.33713,-11.80516 -3.33713,-11.80516l21.12958,-11.68801c0,0 3.08465,8.72456 4.80398,12.75518c1.6181,3.79332 5.22676,10.75987 5.22676,10.75987z" data-paper-data="{&quot;index&quot;:null}" fill="#cc0000"/><path d="M208.31867,138.79203c0,0 -3.14883,-7.28514 -5.09904,-10.8577c-2.07221,-3.79604 -6.99042,-11.2888 -6.99042,-11.2888l23.75275,-18.67793c0,0 5.2398,5.55383 7.22327,9.18731c2.04451,3.74528 4.86618,12.95917 4.86618,12.95917z" fill="#f70000"/></g><path d="M218.86478,189.908c0.41999,4.89943 2.89349,9.28045 2.03361,11.88514c-0.56119,1.69993 -1.74096,2.95746 -2.68333,2.90762c-1.05031,-0.05553 -2.99113,-1.72498 -3.9212,-3.87886c-1.18303,-2.73965 -3.68204,-6.83781 -4.07063,-11.37091c-0.34277,-3.99872 1.52253,-8.17852 2.06083,-10.78303c0.5517,-2.66933 2.20965,-3.35285 3.41746,-3.28898c1.30399,0.06897 2.7741,1.19507 3.83198,4.33607c0.87806,2.60708 -0.98354,6.5205 -0.66874,10.19293z" fill="#ffab19" fill-rule="nonzero" stroke="#001026" stroke-width="1.2" stroke-linecap="butt" stroke-linejoin="miter"/><path d="M226.15834,133.65704c-1.68811,-5.64767 0.34916,-11.30313 4.55035,-12.63182c4.2012,-1.3287 8.97542,2.17252 10.66353,7.82019c1.68811,5.64767 -0.34916,11.30313 -4.55035,12.63182c-4.2012,1.3287 -8.97542,-2.17252 -10.66353,-7.82019z" fill="#ffffff" fill-rule="nonzero" stroke="#001026" stroke-width="1.2" stroke-linecap="butt" stroke-linejoin="miter"/><path d="M205.33443,143.88814c-1.68811,-5.64766 0.34917,-11.30313 4.55035,-12.63182c4.20119,-1.3287 8.97542,2.17252 10.66352,7.82019c1.68811,5.64766 -0.34916,11.30313 -4.55036,12.63181c-4.20119,1.3287 -8.97542,-2.17252 -10.66353,-7.82019z" fill="#ffffff" fill-rule="nonzero" stroke="#001026" stroke-width="1.2" stroke-linecap="butt" stroke-linejoin="miter"/><path d="M239.75965,154.91934c0.98362,2.60745 -9.67524,7.51197 -10.65888,4.90452c-0.98362,-2.60745 0.60505,-5.81913 3.54842,-7.17347c2.94336,-1.35435 6.12683,-0.3385 7.11046,2.26895z" fill="none" fill-rule="nonzero" stroke="#001026" stroke-width="1.2" stroke-linecap="butt" stroke-linejoin="miter"/></g></g></svg>