<svg version="1.1" xmlns="http://www.w3.org/2000/svg" xmlns:xlink="http://www.w3.org/1999/xlink" width="121.31532" height="167.06872" viewBox="0,0,121.31532,167.06872"><g transform="translate(-211.84369,-99.83986)"><g data-paper-data="{&quot;isPaintingLayer&quot;:true}" fill-rule="nonzero" stroke-width="2" stroke-linejoin="miter" stroke-miterlimit="10" stroke-dasharray="" stroke-dashoffset="0" style="mix-blend-mode: normal"><g fill="#6b542b" stroke="#001026" stroke-linecap="round"><path d="M266.79119,179.50141c-0.32607,-5.18453 12.53329,-0.43835 15.3066,-0.3519c2.7733,0.08644 12.71569,-1.95111 15.75275,-1.72127c3.03706,0.22983 4.87914,2.61087 7.39171,5.46938c2.51257,2.8585 3.81303,6.5805 3.22902,8.50423c-0.58401,1.92374 -5.90167,1.35454 -5.90167,1.35454c0,0 -4.0017,-0.03042 -9.05275,-2.3385c-5.05106,-2.30808 -20.89529,-8.31614 -20.89529,-8.31614"/><path d="M306.6544,187.88154c0,0 4.95777,4.18579 8.11579,2.47464c2.01156,-1.08996 7.15948,4.10818 4.56419,7.08981c-1.66363,1.91129 -5.54262,0.96562 -14.25104,-3.04853c-1.39014,-0.64079 -8.07937,-2.3816 -9.57288,-3.16686"/><path d="M302.26182,182.77561c0,0 9.75997,0.55835 14.88794,1.33151c2.87521,0.43351 6.6707,4.59176 5.28261,7.45163c-1.38809,2.85988 -4.50993,0.59918 -8.03365,0.46035c-3.52372,-0.13884 -10.37765,-2.8074 -10.37765,-2.8074"/><path d="M296.73339,177.26251c0,0 6.82713,1.2347 12.50664,-2.19992c4.82659,-2.91882 10.17042,4.58075 8.0956,7.07363c-1.40531,1.68846 -6.40171,2.36628 -9.25921,1.71825c-4.04466,-0.91726 -6.9059,-1.6861 -6.9059,-1.6861"/><path d="M290.63642,178.63896c0,0 5.52095,-3.3585 7.34668,-5.29652c1.88871,-2.00486 8.59347,-0.36473 11.3952,2.65578c2.80173,3.0205 0.52239,5.78689 -2.09762,5.53721c-3.18707,-0.30372 -6.29402,-1.2725 -6.29402,-1.2725l-2.01092,2.31987"/></g><g stroke-linecap="round"><path d="M262.46302,202.71589c0,0 -13.45629,23.08118 -27.35112,29.52048c-12.59556,5.83718 -21.42777,0.39146 -22.26821,-9.48948c-1.08807,-12.79228 10.59128,-22.63094 15.7561,-17.36393c5.17103,5.27332 2.59295,15.69798 8.75781,15.21244c6.16486,-0.48555 25.10541,-17.8795 25.10541,-17.8795z" fill="#6b542b" stroke="none"/><path d="M227.88949,221.41936c-3.22946,2.4919 -9.11092,10.13077 -2.99282,11.5038c6.58284,1.47733 17.41686,-4.02424 10.21523,-0.68678c-12.59556,5.83718 -21.42777,0.39146 -22.26821,-9.48948c-1.08807,-12.79228 10.59128,-22.63094 15.7561,-17.36393c5.17103,5.27332 1.24186,14.69116 7.40671,14.20562c2.90227,-0.22858 1.15467,1.82778 -0.13966,1.17267c-1.45502,-0.73644 -3.66165,-2.67194 -7.97736,0.65812z" fill="#dac3a1" stroke="none"/><path d="M262.46302,202.71589c0,0 -13.45628,23.08118 -27.35112,29.52048c-12.59556,5.83718 -21.42778,0.39146 -22.26821,-9.48948c-1.08807,-12.79228 10.59128,-22.63094 15.7561,-17.36393c5.17103,5.27332 2.70192,15.36237 8.86679,14.87683c6.16486,-0.48555 24.99643,-17.54389 24.99643,-17.54389z" fill="none" stroke="#001026"/></g><path d="M275.42103,189.11812c-0.69009,17.02506 -7.44064,38.32879 -7.44064,38.32879c0,0 6.47611,-1.06635 11.84317,0.9848c7.1095,2.71707 3.01414,11.71087 -9.95583,11.91138c-11.34405,0.17538 -21.61235,1.5045 -14.75407,-13.76017c6.24443,-13.8984 8.25159,-27.61421 8.25159,-27.61421" fill="#6b542b" stroke="#001026" stroke-linecap="round"/><g><g><path d="M275.65587,187.14631c0.39821,9.15485 -10.39793,15.79819 -17.83982,12.60207c-3.65706,-1.57061 0.9587,-12.8312 0.9587,-12.8312c0,0 -3.94193,-9.66953 4.69917,-13.06033c8.4788,-3.32711 11.85318,5.73131 12.18194,13.28946z" fill="#6b542b" stroke="#001026" stroke-linecap="round"/><path d="M274.32783,190.6159c-1.31491,4.04941 -4.89418,7.33211 -7.99452,7.33211c-3.10033,0 -5.22324,-1.90793 -3.90833,-5.95734c1.31491,-4.04941 0.28802,-7.9277 5.89683,-11.45643c5.08358,-3.19829 7.32094,6.03224 6.00602,10.08166z" fill="#dac3a1" stroke="none" stroke-linecap="butt"/></g><path d="M259.60962,177.49954c-0.00817,-0.77923 1.14624,-2.31397 1.76194,-2.93868c0.62233,-0.16927 1.20162,-0.89264 1.88835,-1.03612c1.74858,-0.36532 3.19984,-0.02512 4.85571,0.01201c1.95483,0.87384 2.7336,2.73783 4.4967,3.75739c1.25297,1.89638 0.41506,0.7298 -0.86033,0.3745c-0.62084,-0.17296 -0.98657,0.25689 -1.09942,0.74419c-0.10172,-0.37741 -0.15855,-0.76751 -0.3276,-1.10737l0.05794,-0.03725l-0.12651,-0.25934c-0.01826,-0.03847 -0.05758,-0.06311 -0.11065,-0.06311c-0.09267,0 -0.1922,0.07513 -0.22229,0.1678c-0.00001,0.00002 -0.00001,0.00004 -0.00002,0.00006l-0.10888,0.3356h0.00004l-0.0001,0.00019c-0.33215,1.03092 -0.72711,2.23502 -0.94909,3.2957c-0.20891,-1.60785 0.8869,-3.96653 0.32245,-5.46655l0.06246,-0.03107l-0.0768,-0.28595c-0.01242,-0.05068 -0.05584,-0.08486 -0.11835,-0.08486c-0.09267,0 -0.1922,0.07513 -0.22229,0.1678c-0.00472,0.01453 -0.00745,0.02863 -0.00835,0.04209l-0.02876,0.32305l0.00607,-0.00133l-0.00663,0.01844c0.01485,0.09979 0.02362,0.19875 0.02761,0.29731c-0.02978,0.18087 -0.031,0.36582 -0.01936,0.54942c-0.0312,0.32611 -0.08883,0.65675 -0.12668,1.00764c-0.11257,0.25977 -0.958,-1.86968 -1.60036,-1.52055c-0.32208,0.17505 -0.94914,2.30352 -1.12809,3.24934c-0.05241,-0.85118 -0.48909,-3.08769 -1.00261,-2.86499c-0.19022,0.0825 -0.37658,0.8176 -0.51045,1.26515c-0.14851,-0.31104 -0.2405,-0.93142 -0.52229,-1.07146c-0.392,-0.19481 -1.02971,0.06242 -1.68279,0.49909c0.56539,-0.77387 1.09902,-1.5762 1.68218,-2.28239c0,0 0.12378,-0.15008 -0.00194,-0.22513c-0.12571,-0.07505 -0.2495,0.07504 -0.2495,0.07504c-0.76274,0.92599 -2.05967,1.18453 -2.86174,2.17346c-0.25584,0.22139 -1.17942,1.89287 -1.18961,0.92086zM260.29626,178.60388l-0.00979,-0.00564c0.00609,-0.00162 0.01219,-0.00328 0.01831,-0.00498c-0.00285,0.00354 -0.00569,0.00709 -0.00852,0.01062z" fill="#001026" stroke="none" stroke-linecap="butt"/></g><path d="M266.42193,199.50816l-13.42473,37.52101c0,0 3.76368,6.27666 3.62968,15.301c-0.134,9.02434 -9.9953,16.93218 -18.98503,12.12425c-5.1943,-2.77805 -5.53626,-8.3078 -5.15337,-12.03676c0.61215,-5.96168 2.24608,-12.2021 4.65818,-15.28807c3.92084,-5.0162 19.13433,-41.49833 19.13433,-41.49833" fill="#6b542b" stroke="#001026" stroke-linecap="round"/><g fill="#6b542b" stroke="#001026" stroke-linecap="round"><path d="M292.99321,189.98215c0,0 8.33182,-2.36936 10.60789,-4.33771c2.35457,-2.03624 10.24755,0.21868 13.42164,3.68972c3.1741,3.47105 0.3141,6.30406 -2.79102,5.84658c-3.77717,-0.55649 -7.42365,-1.82747 -7.42365,-1.82747l-6.21337,2.34555"/><path d="M266.92744,180.84477c0,0 14.15267,6.83135 17.44893,7.123c3.29625,0.29165 15.24714,1.626 18.84971,2.09177c3.60258,0.46577 5.66847,3.17579 8.50702,6.45075c2.83855,3.27496 4.1885,7.39845 3.39112,9.44001c-0.79738,2.04156 -7.09631,1.04543 -7.09631,1.04543c0,0 -16.65153,-4.38495 -26.65392,-10.11433c-10.00239,-5.72938 -19.16185,-10.40482 -22.42014,-17.36376"/><path d="M313.14889,202.00836c0,0 5.67832,4.88692 9.52804,3.25938c2.45215,-1.03668 8.30298,4.96011 5.05548,8.00364c-2.08171,1.95098 -6.6483,0.64988 -16.79985,-4.31898c-1.62051,-0.79319 -8.48427,-3.21069 -10.22014,-4.16772"/><path d="M308.1922,196.16539c0,0 11.58687,1.3016 17.6492,2.50506c3.39909,0.67476 7.69549,5.44886 5.8913,8.44677c-1.80418,2.99791 -5.39968,0.32682 -9.58632,-0.07515c-4.18664,-0.40198 -12.20249,-3.78127 -12.20249,-3.78127"/><path d="M301.90524,189.80033c0,0 8.06018,1.82461 15.00267,-1.48924c5.89991,-2.8162 11.86153,5.68686 9.25951,8.2383c-1.76239,1.72812 -7.74526,2.10536 -11.1119,1.19954c-4.76529,-1.28216 -8.12993,-2.31907 -8.12993,-2.31907"/></g><g><g fill="none" stroke="#001026" stroke-linecap="round"><path d="M325.29496,152.70124l-17.26951,5.2539"/><path d="M305.91969,165.03299l11.3464,2.62007"/></g><path d="M283.73745,116.02628l23.79958,-14.79889c0,0 12.82917,21.54542 11.5316,42.69545" fill="#6b542b" stroke="#001026" stroke-linecap="round"/><g stroke-linecap="butt"><path d="M248.2005,149.73833c2.70015,-17.39977 19.53264,-33.46443 38.92634,-34.77002c19.19967,-1.29254 31.66065,6.28814 32.46426,29.9191c0.01287,0.37844 3.49552,3.24927 2.41033,9.30835c-0.06726,0.37561 -0.05901,0.75909 -0.22699,1.10762c-2.61749,5.43088 -8.40461,9.22127 -12.77971,12.20502c-7.6376,5.20873 -15.35803,7.42414 -25.86345,7.77861c-19.11235,0.64488 -37.63094,-8.14889 -34.93078,-25.54867z" fill="#6b542b" stroke="none"/><path d="M295.1558,153.49945c0,0 12.93081,-7.46107 22.59527,-8.27859c0.01287,0.37844 8.16775,-2.3514 2.35434,10.37351c-2.64024,5.5048 -9.45681,11.1959 -14.45697,14.86615c-9.25821,6.79578 -17.9965,9.28665 -22.71349,9.3375c-5.54906,0.0598 -8.31581,-2.92858 -12.48063,-5.22445c-10.12481,-5.58132 -17.4175,-14.81632 -12.49009,-22.45123c0.79162,-1.39323 1.40488,-4.22494 3.44914,-4.91102c0.76416,-0.25647 1.80692,-0.6806 2.35843,-0.26566c0.92389,0.69509 1.26703,2.51257 2.44633,2.40653c11.72265,-1.05403 28.93766,4.14727 28.93766,4.14727z" fill="#dac3a1" stroke="none"/><path d="M248.2005,149.73833c2.70015,-17.39977 19.53264,-33.46443 38.92634,-34.77002c19.19967,-1.29254 31.66065,6.28814 32.46426,29.9191c0.01287,0.37844 4.96328,1.36464 1.34558,9.67793c-5.49009,9.48258 -12.55089,15.14769 -19.65576,19.14466c-5.46166,3.07255 -9.2424,6.11027 -15.55473,6.49431c-10.61287,0.64567 -13.61257,-3.86763 -18.14313,-5.97816c-12.65846,-5.89688 -21.55076,-10.51596 -19.38257,-24.4878z" fill="none" stroke="#001026"/></g><path d="M265.78042,150.98138c1.91388,1.33514 -1.03763,-0.91223 -1.61737,-3.63716c-0.17287,-0.81249 -2.01776,-0.79121 -3.59928,0.16527c-1.87656,1.13492 -2.03022,7.04984 -1.89026,4.66056c0.13996,-2.38928 -0.1005,-2.16084 0.67709,-4.09704c0.41814,-1.04117 3.43777,-2.41475 5.16409,-1.63685c1.54644,0.69685 0.26018,3.84374 1.26573,4.54522z" fill="#001026" stroke="none" stroke-linecap="butt"/><path d="M247.81438,152.20221c0.37986,-28.95911 26.87958,-50.29139 26.87958,-50.29139l18.55722,12.94101" fill="#6b542b" stroke="#001026" stroke-linecap="round"/><path d="M289.9,155.41505c-2.92453,-2.4946 11.35244,-3.99344 8.59746,-0.90789c-1.93303,2.16497 -2.22143,2.42898 -4.32793,2.4668c-2.1065,0.03782 -2.68571,-0.20793 -4.26953,-1.55891z" fill="#001026" stroke="none" stroke-linecap="round"/><g fill="none" stroke="#001026" stroke-linecap="round"><path d="M240.76264,148.88036l15.81209,4.13767"/><path d="M244.21105,163.44491l12.28331,-3.41737"/></g><path d="M317.72671,144.55545c-0.41534,6.9274 -4.29145,8.8084 -8.3677,9.55001c-4.07625,0.74162 -11.29483,0.58724 -10.87949,-6.34016c0.41534,-6.9274 5.77244,-12.87273 9.84869,-13.61435c7.32877,-1.33337 9.81384,3.47709 9.3985,10.40449z" fill="#001026" stroke="#001026" stroke-linecap="butt"/><path d="M312.6461,147.28217c-0.31621,2.03769 -1.13388,4.2404 -1.13388,4.2404c0,0 -0.02433,-1.37643 0.29189,-3.41412c0.31621,-2.03769 0.85322,-3.96497 0.85322,-3.96497c0,0 0.30499,1.10101 -0.01123,3.13869z" fill="#006aff" stroke="none" stroke-linecap="butt"/><path d="M291.59368,147.11307c-1.0726,6.91186 -5.98948,8.25764 -11.0599,8.42873c-5.07042,0.17108 -13.93047,-1.00279 -12.85787,-7.91463c1.0726,-6.91186 8.13961,-12.13828 13.21003,-12.30937c9.1162,-0.30759 11.78033,4.88342 10.70772,11.79527z" fill="#001026" stroke="#001026" stroke-linecap="butt"/><path d="M286.38595,144.41723c0,0 -0.06959,2.38905 -0.4649,4.93643c-0.39531,2.54737 -0.96664,4.2884 -0.96664,4.2884c0,0 -0.18128,-2.71307 0.21403,-5.26045c0.39531,-2.54737 1.21751,-3.96439 1.21751,-3.96439z" fill="#006aff" stroke="none" stroke-linecap="butt"/><path d="M282.31808,168.72713c0.06588,0.06984 0.08977,0.18227 0.08393,0.3233c0,0.00005 0,0.00009 -0.00001,0.00013c-0.02498,-0.10787 -0.05342,-0.21559 -0.08391,-0.32344z" fill="#001026" stroke="none" stroke-linecap="butt"/><g stroke-linecap="butt"><path d="M319.03751,148.22523c0,0 -0.23912,3.38583 -1.50662,5.07707c-5.11817,6.82924 -20.22458,24.05417 -32.32555,23.9314c-15.09771,-0.15318 -23.53187,-28.76162 -23.53187,-28.76162c0,0 6.48267,13.63925 27.0353,13.88016c27.95962,0.32772 30.32873,-14.127 30.32873,-14.127z" fill="#001026" stroke="#001026"/><g stroke="none"><g fill="#0062ea"><path d="M276.86265,169.92989c-0.50827,0.13192 -0.98949,-0.32645 -1.07487,-1.02381c-0.08536,-0.69735 1.13603,-1.92334 1.13603,-1.92334c0,0 0.54264,0.98527 0.62803,1.68262c0.09825,0.80257 -0.18092,1.13261 -0.68918,1.26452z"/><path d="M278.73223,170.88568c-0.66951,0.241 -1.35492,-0.10623 -1.53084,-0.77557c-0.1759,-0.66935 1.35297,-2.14527 1.35297,-2.14527c0,0 0.81415,0.85364 0.99007,1.52298c0.20243,0.77035 -0.14266,1.15685 -0.8122,1.39787z"/><path d="M280.83423,171.23519c-0.73147,0.17017 -1.3734,-0.26217 -1.43384,-0.96564c-0.06045,-0.70348 1.18915,-2.02387 1.18915,-2.02387c0,0 0.96427,0.89539 1.33077,1.65416c0.3509,0.72647 -0.35462,1.16519 -1.08606,1.33536z"/><path d="M283.62454,172.08733c-0.79967,0.3434 -1.63707,0.09748 -1.87038,-0.5493c-0.23331,-0.64677 1.25266,-3.67278 1.25266,-3.67278c0,0 0.58357,1.8939 1.55274,2.69347c0.64889,0.53535 -0.13532,1.1852 -0.935,1.52861z"/><path d="M286.5288,172.42305c-0.68552,0.33426 -1.40906,-0.02712 -1.61606,-0.80717c-0.20699,-0.78006 1.32442,-2.63972 1.32442,-2.63972c0,0 0.28526,1.14834 1.08264,1.7319c0.7439,0.54442 -0.10547,1.38072 -0.79098,1.71498z"/><path d="M288.24647,170.77847c0.74479,-0.75371 1.71189,-1.94343 1.71189,-1.94343c0,0 1.1766,1.63495 0.71958,2.4632c-0.45698,0.82825 -1.37107,1.31725 -2.04168,1.09219c-0.6706,-0.22507 -1.20442,-0.78757 -0.38981,-1.61194z"/><path d="M298.79175,168.55545c0.27782,-0.71993 1.09949,-1.79002 1.09949,-1.79002c0,0 0.90648,1.09368 0.62867,1.81362c-0.27782,0.71993 -0.89276,1.24645 -1.37355,1.17603c-0.48079,-0.07042 -0.67433,-0.37107 -0.35462,-1.19962z"/><path d="M296.3837,168.97027c0.41447,-0.687 1.53914,-1.59866 1.53914,-1.59866c0,0 1.02308,1.39958 0.60861,2.08658c-0.41447,0.687 -1.2299,1.07916 -1.82129,0.87586c-0.59139,-0.20328 -0.80347,-0.57312 -0.32642,-1.36378z"/><path d="M293.85309,169.81976c0.39016,-0.69488 1.51987,-1.6244 1.51987,-1.6244c0,0 1.19409,1.39162 0.80393,2.0865c-0.39016,0.69488 -1.22932,1.09897 -1.87436,0.90254c-0.64503,-0.19643 -0.89847,-0.56491 -0.44944,-1.36465z"/><path d="M290.92174,170.77951c1.15952,-0.98069 2.16255,-3.00959 2.16255,-3.00959c0,0 0.86017,2.8264 0.48297,3.52512c-0.37718,0.69871 -1.28305,1.09295 -2.02329,0.88057c-0.74024,-0.21238 -1.39859,-0.73948 -0.62226,-1.39611z"/></g><g fill="#006aff"><path d="M276.1636,166.14365c-0.13449,0.7285 -0.72387,1.87732 -0.72387,1.87732c0,0 -1.06141,-0.89222 -0.9269,-1.62072c0.13449,-0.7285 0.6252,-1.32778 1.096,-1.33853c0.47078,-0.01074 0.70959,0.24351 0.55479,1.08192z"/><path d="M277.6262,166.91295c-0.13449,0.7285 -0.7507,1.87793 -0.7507,1.87793c0,0 -1.14851,-0.89023 -1.01398,-1.61872c0.13449,-0.7285 0.65219,-1.3284 1.15629,-1.3399c0.50411,-0.0115 0.76319,0.24228 0.60839,1.0807z"/><path d="M279.85488,167.3972c-0.13449,0.7285 -0.88921,1.88111 -0.88921,1.88111c0,0 -1.59868,-0.87995 -1.46416,-1.60844c0.13449,-0.7285 0.79171,-1.33159 1.46794,-1.34702c0.67623,-0.01542 1.0402,0.23596 0.88542,1.07437z"/><path d="M282.33664,167.74188c-0.13449,0.7285 -0.92724,1.88195 -0.92724,1.88195c0,0 -1.72234,-0.87713 -1.58782,-1.60563c0.13449,-0.7285 0.83005,-1.33246 1.55356,-1.34898c0.72351,-0.01652 1.11632,0.23422 0.9615,1.07264z"/><path d="M284.96301,168.04949c-0.81983,1.20083 -1.10609,3.28982 -1.10609,3.28982c0,0 -1.88135,-2.27076 -1.75069,-2.99917c0.13066,-0.72841 0.90439,-1.3357 1.72816,-1.35641c0.82376,-0.02071 1.67757,0.26176 1.12867,1.06576z"/><path d="M286.82474,168.62358c-0.72772,0.97666 -0.94674,2.25278 -0.94674,2.25278c0,0 -1.52868,-1.06393 -1.3674,-1.93743c0.16127,-0.87348 0.82897,-1.59384 1.49139,-1.60897c0.66241,-0.01512 1.50167,0.38248 0.82275,1.29365z"/><path d="M290.8195,167.13907c0.69063,-0.06286 1.17346,0.59122 1.07841,1.46091c-0.09506,0.8697 -2.0214,2.13286 -2.0214,2.13286c0,0 -0.12336,-1.31707 -0.31199,-2.1803c-0.20632,-0.94417 0.56435,-1.3506 1.25497,-1.41345z"/><path d="M302.24915,164.30294c0.47079,-0.01075 0.74342,0.5711 0.6089,1.29959c-0.13449,0.7285 -1.53574,1.67695 -1.53574,1.67695c0,0 -0.16836,-1.13152 -0.03386,-1.86003c0.15479,-0.83841 0.48989,-1.10577 0.9607,-1.11651z"/><path d="M300.5425,165.1446c0.50411,-0.0115 0.80375,0.56973 0.66921,1.29822c-0.13449,0.7285 -1.62286,1.67894 -1.62286,1.67894c0,0 -0.19517,-1.13093 -0.06067,-1.85942c0.15479,-0.83841 0.51018,-1.10623 1.01428,-1.11774z"/><path d="M298.39241,165.72882c0.67625,-0.01542 1.11538,0.5626 0.98086,1.29112c-0.13449,0.7285 -2.07301,1.6892 -2.07301,1.6892c0,0 -0.3337,-1.12775 -0.19918,-1.85624c0.15479,-0.83841 0.61509,-1.10864 1.29133,-1.12407z"/><path d="M296.00566,166.18468c0.72351,-0.01652 1.20097,0.56066 1.06647,1.28915c-0.13449,0.7285 -2.19668,1.69204 -2.19668,1.69204c0,0 -0.37173,-1.12689 -0.23721,-1.85538c0.15479,-0.83841 0.64393,-1.10929 1.36744,-1.1258z"/><path d="M293.32509,166.61653c0.82304,-0.01689 1.37811,0.56005 1.2398,1.28862c-0.13832,0.72858 -2.87768,3.10486 -2.87768,3.10486c0,0 0.48592,-2.09355 0.10446,-3.26695c-0.25542,-0.78562 0.71037,-1.10965 1.53342,-1.12654z"/><path d="M289.56099,168.60571c-0.1572,0.85142 -1.7074,2.23636 -1.7074,2.23636c0,0 -1.0386,-1.38602 -0.88137,-2.23746c0.1572,-0.85142 0.77736,-1.07128 1.49529,-1.08768c0.71796,-0.0164 1.25067,0.23734 1.09346,1.08877z"/></g></g><path d="M319.06353,148.05752c0,0 -0.23912,3.38583 -1.50662,5.07707c-5.11817,6.82924 -20.22458,24.05417 -32.32555,23.9314c-15.09771,-0.15318 -23.53187,-28.76162 -23.53187,-28.76162c0,0 6.48267,13.63925 27.0353,13.88016c27.95962,0.32772 30.32873,-14.127 30.32873,-14.127z" fill-opacity="0.71373" fill="#001026" stroke="none"/></g><path d="M264.48124,162.30452c1.61335,2.3811 3.65563,7.58013 3.65563,7.58013c0,0 -2.17442,-4.08313 -3.78777,-6.46424c-1.61335,-2.3811 -2.05466,-2.15849 -2.05466,-2.15849c0,0 0.57346,-1.33851 2.1868,1.04258z" fill="#001026" stroke="none" stroke-linecap="butt"/><path d="M292.96681,160.07814c0,0 -0.34955,-0.77699 -0.2748,-1.25862c0.07474,-0.48163 1.7506,-1.32696 1.7506,-1.32696c0,0 -1.13575,0.8271 -1.21049,1.30874c-0.07474,0.48163 -0.2653,1.27684 -0.2653,1.27684z" fill="#001026" stroke="none" stroke-linecap="butt"/></g></g></g></svg>