<svg version="1.1" xmlns="http://www.w3.org/2000/svg" xmlns:xlink="http://www.w3.org/1999/xlink" width="136.34557" height="240.8574" viewBox="0,0,136.34557,240.8574"><g transform="translate(-168.12601,-89.06671)"><g data-paper-data="{&quot;isPaintingLayer&quot;:true}" fill-rule="nonzero" stroke-miterlimit="10" stroke-dasharray="" stroke-dashoffset="0" style="mix-blend-mode: normal"><g stroke-linecap="butt" stroke-linejoin="miter"><g fill="#686868" stroke="#000000" stroke-width="1"><path d="M195.70828,329.1151v-104.61283h101.23822v104.61283z"/><path d="M177.14795,319.83493v-104.61283l18.56034,9.28017v104.61283z"/><path d="M195.59516,224.03146l-17.71669,-8.85834l102.92552,1.26548l16.45121,8.43652z"/></g><path d="M199.28505,229.20102c0,-0.82843 0.67157,-1.5 1.5,-1.5c0.82843,0 1.5,0.67157 1.5,1.5c0,0.82843 -0.67157,1.5 -1.5,1.5c-0.82843,0 -1.5,-0.67157 -1.5,-1.5z" fill="#b9b9b9" stroke="none" stroke-width="0.5"/><path d="M291.28505,229.86769c0,-0.82843 0.67158,-1.5 1.5,-1.5c0.82842,0 1.5,0.67157 1.5,1.5c0,0.82843 -0.67158,1.5 -1.5,1.5c-0.82842,0 -1.5,-0.67157 -1.5,-1.5z" fill="#b9b9b9" stroke="none" stroke-width="0.5"/><path d="M292.61838,325.53435c0,-0.82842 0.67158,-1.5 1.5,-1.5c0.82842,0 1.5,0.67158 1.5,1.5c0,0.82842 -0.67158,1.5 -1.5,1.5c-0.82842,0 -1.5,-0.67158 -1.5,-1.5z" fill="#b9b9b9" stroke="none" stroke-width="0.5"/><path d="M198.61838,326.53435c0,-0.82842 0.67157,-1.5 1.5,-1.5c0.82843,0 1.5,0.67158 1.5,1.5c0,0.82842 -0.67157,1.5 -1.5,1.5c-0.82843,0 -1.5,-0.67158 -1.5,-1.5z" fill="#b9b9b9" stroke="none" stroke-width="0.5"/></g><path d="M235.85805,216.91676c1.65573,-0.31495 3.48167,0.44047 3.48167,0.44047c0,0 -0.20498,5.93586 -0.32664,8.07768c-0.12121,2.145 0.24914,5.57 0.24914,5.57c0,0 0.42869,0.39208 0.13543,1.23704c-0.2966,0.84245 -2.00444,0.79734 -4.19004,0.98283c-2.18104,0.18074 -3.82919,-0.41876 -4.00621,-1.30862c-0.18047,-0.88613 0.51199,-1.20099 0.51199,-1.20099c0,0 2.23836,-6.83702 1.78067,-9.34515c0.00359,0.00566 0.253,-4.05193 2.36398,-4.45325v0v0v0v0v0z" fill="#be1e2d" stroke="#231f20" stroke-width="0.90025" stroke-linecap="round" stroke-linejoin="round"/><path d="M258.02374,215.09033v0v0v0v0v0c0,0 1.79888,3.53199 -0.25703,4.82481c-0.87429,0.55869 -2.17832,1.15052 -3.20763,0.61421c-0.30539,0.28651 -0.80201,0.63514 -1.43262,0.57163c-1.04211,-0.10493 -0.70904,-2.27299 -0.70904,-2.27299l0.01589,0.00864c-0.21509,-0.23125 -0.43337,-0.46678 -0.65519,-0.72636c-1.24197,-1.47858 -2.65335,-4.00644 -3.47864,-5.34463c0,0 -0.65002,-1.60149 0.23444,-2.58766c0.88354,-0.98656 3.06195,-0.66182 3.85325,-0.11251c0.79108,0.55009 4.70988,3.1271 5.63657,5.02486z" data-paper-data="{&quot;index&quot;:null}" fill="#be1e2d" stroke="#231f20" stroke-width="0.78673" stroke-linecap="round" stroke-linejoin="round"/><g stroke-width="0.90025"><path d="M248.99521,211.04522v0v0v0v0v0c0.415,2.8016 -0.2521,7.9609 -3.4623,9.7722c-3.1752,1.7879 -6.543,1.5484 -10.0341,-0.8336c-2.8925,-1.9743 -2.8232,-7.6206 -2.5207,-10.7796v0c0,0 0.0198,-7.3081 6.1703,-8.2084c6.1486,-0.9002 9.0042,4.7074 9.4795,8.2057c0.1495,0.6158 0.2773,1.2442 0.3673,1.8437z" fill="#be1e2d" stroke="#000000" stroke-linecap="butt" stroke-linejoin="miter"/><path d="M247.29921,219.07362v0v0v0v0v0l-0.0153,0.1431c-0.4718,0.6518 -1.0515,1.2046 -1.7501,1.5989c-2.9411,1.6564 -6.0461,1.5736 -9.2626,-0.3412l-0.0333,-0.144c0,0 -1.7033,-9.2942 4.2221,-9.7092c6.7284,-0.4681 6.8815,6.8977 6.8392,8.4524z" fill="#e6e7e8" stroke="#231f20" stroke-linecap="round" stroke-linejoin="round"/></g><path d="M249.298,221.13017c-2.53434,2.6566 -5.44975,3.72271 -6.51174,2.38123c-1.06199,-1.34148 0.13158,-4.58257 2.66592,-7.23917c2.53434,-2.6566 5.44975,-3.72271 6.51174,-2.38123c1.06199,1.34148 -0.13158,4.58257 -2.66592,7.23917z" fill="#be1e2d" stroke="#231f20" stroke-width="0.90025" stroke-linecap="butt" stroke-linejoin="miter"/><path d="M249.77613,213.28632c1.50651,-0.75568 3.46943,-0.52833 3.46943,-0.52833c0,0 1.42591,5.76569 1.89455,7.85915c0.46993,2.0964 1.76269,5.2896 1.76269,5.2896c0,0 0.51956,0.25992 0.46852,1.15286c-0.05494,0.89145 -1.71003,1.31504 -3.76161,2.09109c-2.0485,0.77023 -3.79776,0.64424 -4.21135,-0.16331c-0.41589,-0.80301 0.16407,-1.29521 0.16407,-1.29521c0,0 0.28355,-7.18851 -0.8425,-9.47591c0.00501,0.00447 -0.86459,-3.96669 1.0562,-4.92994z" fill="#be1e2d" stroke="#231f20" stroke-width="0.90025" stroke-linecap="round" stroke-linejoin="round"/><g stroke="#000000" stroke-width="1" stroke-linecap="butt" stroke-linejoin="miter"><path d="M276.72181,266.93449c-6.94903,2.48678 -51.07106,1.87124 -57.88411,-0.34832c-7.86831,-2.56336 -6.89912,-21.57451 1.11074,-24.14005c6.78323,-2.17265 50.64342,-1.76459 57.67502,0.99318c6.36836,2.49765 6.19476,20.95566 -0.90165,23.49519z" data-paper-data="{&quot;index&quot;:null}" fill="#363636"/><path d="M272.63389,263.40279c-5.53329,1.76301 -40.66621,1.32662 -46.09121,-0.24694c-6.26528,-1.8173 -5.49355,-15.29531 0.88444,-17.11416c5.40126,-1.5403 40.32569,-1.25101 45.92472,0.70411c5.07091,1.77071 4.93268,14.85658 -0.71796,16.65699z" data-paper-data="{&quot;index&quot;:null}" fill="#4a4a4a"/></g><g stroke="#000000" stroke-width="1" stroke-linecap="butt" stroke-linejoin="miter"><path d="M277.22181,314.93449c-6.94903,2.48678 -51.07106,1.87124 -57.88411,-0.34832c-7.86831,-2.56336 -6.89912,-21.57451 1.11074,-24.14005c6.78323,-2.17265 50.64342,-1.76459 57.67502,0.99318c6.36836,2.49764 6.19476,20.95567 -0.90165,23.49519z" data-paper-data="{&quot;index&quot;:null}" fill="#363636"/><path d="M273.13389,311.40279c-5.53329,1.76301 -40.66621,1.32662 -46.09121,-0.24694c-6.26528,-1.8173 -5.49355,-15.29531 0.88444,-17.11416c5.40126,-1.5403 40.32569,-1.25101 45.92472,0.70412c5.07091,1.77071 4.93268,14.85658 -0.71796,16.65699z" data-paper-data="{&quot;index&quot;:null}" fill="#4a4a4a"/></g><path d="M235.5005,216.46404v0v0v0v0v0c-0.3235,1.98794 -1.50936,5.668 -2.28179,6.64057c0,0 -3.17545,3.67312 -5.29243,2.4859c-0.40427,-0.2265 -1.2965,3.1661 -2.46128,2.67239c-1.40659,-0.5962 1.1917,-4.67345 1.20631,-5.36471c-0.11771,-0.03735 0.43542,-2.91161 1.52039,-5.43671c0.94446,-2.1981 2.40479,-4.04362 2.74303,-4.64085c0,0 0.70612,-1.32344 2.33192,-1.3542c1.72963,-0.03302 2.55741,3.00964 2.23389,4.9976z" data-paper-data="{&quot;index&quot;:null}" fill="#be1e2d" stroke="#231f20" stroke-width="0.78673" stroke-linecap="round" stroke-linejoin="round"/><g stroke="#000000" stroke-width="0.90025" stroke-linecap="round" stroke-linejoin="round"><path d="M285.71763,185.07722l-0.50202,1.5593c-2.80116,7.88195 -6.92237,12.47083 -6.92237,12.47083c0,0 0.1219,-1.39917 -0.00626,-3.64037l-0.13244,-0.04312c-0.35498,1.18883 -0.94671,2.72481 -1.94391,4.6278c-2.1867,4.17901 -8.79037,7.78278 -8.79037,7.78278c0,0 0.38513,-1.42902 0.59629,-3.75837l-0.10106,-0.35355c-0.71192,0.5724 -1.45178,1.10027 -2.20003,1.61482c-0.22014,0.15236 -0.44027,0.30103 -0.66418,0.44527c-0.68132,0.44393 -1.37565,0.86822 -2.08494,1.26583c-0.2803,0.15533 -0.57171,0.30019 -0.85584,0.4493c-0.51827,0.27296 -1.04415,0.53158 -1.5782,0.78236c-0.39236,0.18199 -0.78744,0.36324 -1.19006,0.53284c-0.41675,0.1781 -0.84555,0.33926 -1.27152,0.50675c-0.78338,0.29914 -1.57886,0.57973 -2.39286,0.84001c-0.26558,0.0848 -0.53125,0.16961 -0.80154,0.24911c-0.5807,0.17255 -1.16608,0.3415 -1.76253,0.49277l0.00184,0.00176c-2.99419,0.76444 -6.17696,1.28878 -9.59008,1.57122c-3.69261,0.30462 -7.04515,0.33823 -10.18004,0.18622v0c-2.4806,-0.12156 -4.80534,-0.36983 -7.009,-0.72506c-0.10657,-0.01666 -0.21417,-0.0342 -0.32164,-0.05085c-0.68136,-0.1145 -1.35209,-0.23722 -2.01035,-0.37101c-0.22977,-0.04838 -0.44973,-0.10136 -0.67854,-0.15146c-0.87476,-0.18865 -1.72555,-0.3977 -2.56494,-0.6214c-0.5306,-0.14187 -1.05778,-0.28752 -1.57337,-0.44321c-0.30626,-0.08988 -0.61351,-0.18434 -0.91359,-0.27975c-0.81953,-0.26372 -1.63195,-0.532 -2.42055,-0.82338l-0.13323,0.13333c0.33971,2.10802 1.09267,3.23034 1.68644,3.75987c1.2104,1.08118 3.50113,1.29596 3.50113,1.29596c0,0 -6.96469,1.12441 -10.88169,-4.18869c-0.41617,-0.56477 -0.83637,-1.15027 -1.2367,-1.77489l-0.17417,-0.35832c-0.83203,-0.25886 -1.67677,-0.60847 -2.51302,-1.06369c-5.09944,-2.79668 -5.78256,-5.17744 -5.78256,-5.17744l0.12373,0.87529c0.5333,2.27689 1.03706,3.71051 1.03706,3.71051c0,0 -6.11054,-3.68931 -8.91663,-9.35165c-2.26252,-4.57083 -2.49331,-7.36359 -2.51759,-7.83319l-0.23788,-1.67517c-0.26881,-6.5739 -0.01536,-13.95926 0.73569,-21.23537l0.05172,-0.19463c0.68752,-5.6269 -0.2892,-14.90441 6.95412,-24.57078c13.57328,-18.10895 27.83575,-17.78941 36.08131,-31.13537c6.06507,-9.81822 4.22125,-20.89359 4.22125,-20.89359c0,0 3.95863,5.36174 5.55952,8.52557c1.55059,3.08377 3.2209,7.06553 3.2209,7.06553l0.05057,-0.03527c0.03263,-0.11781 0.06161,-0.23815 0.08608,-0.35839c0.3794,-1.87279 0.15577,-4.6253 0.15577,-4.6253c0,0 3.89092,10.66403 9.95594,17.58152c6.06134,6.91406 14.65046,8.74584 25.94809,32.62293c1.40591,2.96709 2.70726,5.46187 3.4339,8.24251l0.33626,1.60198c1.04631,5.0061 0.96845,18.89881 -0.88193,24.93926zM216.09589,162.92485c0,0 -6.83703,7.40762 -6.16372,17.50099c0.59574,8.93065 2.97061,11.6432 4.23347,12.30819c1.29838,0.67955 3.27953,0.21918 3.27953,0.21918c0,0 -5.56615,3.09934 -10.23972,-0.84895c-3.12599,-2.63914 -6.53942,-6.05662 -7.68153,-15.87437M274.59997,177.80131c0,0 0.9208,2.46768 -1.08684,7.70816c-2.25834,5.904 -7.24524,7.82059 -7.24524,7.82059c0,0 3.98558,-9.10633 0.3034,-17.51195c-1.60709,-3.67242 -6.38499,-6.33263 -11.35278,-8.17756c-6.73211,-2.50218 -13.81188,-3.50582 -13.81188,-3.50582M278.18308,195.32514c-0.35108,1.20315 -0.95093,2.77621 -1.97776,4.73024c-2.1858,4.17899 -8.78947,7.78276 -8.78947,7.78276c0,0 1.11897,-4.16915 0.58765,-9.86594M201.10029,183.44884c-0.65908,1.28714 -1.15776,2.66264 -1.42269,4.10983c-1.66511,9.02331 1.80572,18.85069 1.80572,18.85069c0,0 -6.1087,-3.68765 -8.91664,-9.35175c-2.48917,-5.02707 -2.51906,-7.90337 -2.51906,-7.90337M285.21126,186.64292c-2.80296,7.88199 -6.92327,12.47085 -6.92327,12.47085c0,0 0.70358,-7.94945 -2.98592,-16.35582c-0.16643,-0.38008 -0.35343,-0.74893 -0.5509,-1.10676M241.40753,164.13472c0,0 1.202,0.29169 4.4085,2.7356c3.2066,2.44391 4.42436,5.1583 4.42436,5.1583c0,0 -9.36343,-2.25669 -14.55789,-4.00234c-5.1891,-1.74756 -22.6676,-6.11446 -22.6676,-6.11446M212.70572,202.0924c2.60796,3.91252 5.27976,6.0147 5.27976,6.0147c0,0 -6.1368,2.04251 -11.88035,-1.1044c-5.09944,-2.79658 -5.78256,-5.17744 -5.78256,-5.17744M267.90933,203.72805c-6.54989,5.26221 -14.5732,7.94233 -24.3836,8.75372c-11.69614,0.96728 -20.29244,-0.56358 -27.6693,-3.27995M215.63745,208.68231c0.2748,2.53168 1.11788,3.82954 1.77033,4.41005c1.2113,1.08117 3.50203,1.29594 3.50203,1.29594c0,0 -6.96649,1.12445 -10.88259,-4.18867c-0.41617,-0.56477 -0.83637,-1.15027 -1.2367,-1.77489M242.0898,164.42113c0,0 25.57451,2.57494 25.86736,16.49766" fill="#be1e2d"/><path d="M273.0836,186.8341c-0.74077,10.033 -12.03168,20.72191 -28.85615,22.06092c-14.85305,1.19032 -36.97095,-5.03472 -40.41887,-17.28202c-0.34286,-1.23096 -0.53627,-2.42266 -0.60631,-3.57014l0.32809,0.22905c1.16341,1.62869 2.4404,2.794 3.67514,3.83416c4.67353,3.94649 10.23968,0.84715 10.23968,0.84715c0,0 -1.98112,0.46216 -3.2795,-0.21738c-1.26286,-0.66499 -3.63773,-3.37755 -4.23347,-12.30819c-0.67335,-10.09517 6.16372,-17.50099 6.16372,-17.50099l0.01941,-0.23276c5.26152,1.33905 15.74465,4.04499 19.56537,5.33242c5.19448,1.74655 14.55789,4.00234 14.55789,4.00234c0,0 -1.21775,-2.71439 -4.42436,-5.1583c-1.60506,-1.22232 -2.70628,-1.90601 -3.4058,-2.28478l0.6502,0.08805c0,0 19.7289,2.49346 23.51447,11.14446c3.6813,8.40654 -0.3025,17.51193 -0.3025,17.51193c0,0 4.24639,-1.63356 6.67204,-6.52085z" fill="#e6e7e8"/></g><g stroke="#000000" stroke-width="0.90025" stroke-linecap="round" stroke-linejoin="miter"><path d="M279.65017,168.40883c0,0 8.84994,-10.3386 9.34392,-10.8299c0.49388,-0.49119 4.14326,-5.16197 14.90627,-6.95791c0,0 -6.28449,30.97511 -22.28569,38.36665c-0.00002,-0.0009 1.35079,-8.85456 -1.9645,-20.57884zM279.71837,168.65595c-0.25365,-0.96988 -0.99371,-2.67689 -0.99371,-2.67689M280.89036,191.36743c0,0 0.58898,-1.49092 0.7243,-2.38066" fill="#be1e2d"/><path d="M287.9489,184.00646c0,0 -1.64349,-1.20901 -1.91585,-5.29398c-0.17302,-2.53382 0.84394,-7.18254 0.84394,-7.18254l-0.08688,0.14946c0.68935,-0.83208 1.4145,-1.80265 2.06752,-2.86451c1.10667,-1.79627 2.38907,-4.48223 3.56079,-7.12806l0.18227,-0.36491c0,0 3.14399,-4.81238 9.85468,-5.55417l0.07827,0.04066c-1.31801,4.71636 -3.48391,11.63864 -5.94398,16.38792c-2.75937,5.32751 -6.00008,9.22252 -8.7575,11.9089zM284.13569,174.37812c0,0 2.31049,-2.35471 2.74131,-2.84818" fill="#929497"/></g><g stroke="#000000" stroke-width="0.90025" stroke-linecap="round" stroke-linejoin="miter"><path d="M192.59844,190.85917c-16.29696,-6.71216 -23.8785,-37.39561 -23.8785,-37.39561c10.82913,1.34266 14.67169,5.85585 15.18577,6.32495c0.51408,0.46919 9.79105,10.4274 9.79105,10.4274c-2.82023,11.85423 -1.09832,20.64326 -1.09832,20.64326zM194.51829,167.75029c0,0 -0.66763,1.73662 -0.88017,2.71631M192.59844,190.85917c0.17251,0.88327 0.82376,2.3481 0.82376,2.3481" fill="#be1e2d"/><path d="M186.18116,186.2434c-2.86796,-2.56896 -6.26868,-6.32427 -9.25062,-11.53011c-2.6585,-4.64162 -5.11257,-11.46672 -6.62784,-16.12348l0.07659,-0.04392c6.73686,0.45983 10.07951,5.13487 10.07951,5.13487l0.19745,0.35693c1.28184,2.59422 2.67615,5.22388 3.85737,6.97202c0.69709,1.03347 1.46241,1.97268 2.18614,2.77504l-0.09308,-0.14567c0,0 1.21154,4.60184 1.14512,7.1407c-0.10025,4.09281 -1.69155,5.36986 -1.69155,5.36986zM186.60668,173.63907c0.45119,0.47492 2.85865,2.73039 2.85865,2.73039" fill="#929497"/></g><path d="M228.81949,185.57141v0v0v0v0v0c0.72156,0.18557 1.15391,0.92024 0.96644,1.64184c-0.18553,0.72336 -0.9166,1.15563 -1.64349,0.97378c-0.04166,-0.01173 -4.25358,-1.06218 -8.32277,0.21737c-0.12522,0.03864 -0.24999,0.06017 -0.37506,0.0628c-0.58497,0.0123 -1.13315,-0.36155 -1.3174,-0.9465c-0.10901,-0.34168 -0.06606,-0.69646 0.08256,-0.99676c-0.2576,-0.21613 -0.50297,-0.49723 -0.67693,-0.88806c-0.20397,-0.45311 -0.00095,-0.9868 0.45397,-1.19001c0.45064,-0.19762 0.98594,-0.00363 1.19099,0.45315c0.16249,0.36396 0.61291,0.45981 0.61834,0.4615c0.133,0.02691 0.25036,0.08565 0.3519,0.16274c0.13268,-0.0307 0.26615,-0.06231 0.39705,-0.08757c-0.14296,-0.20584 -0.27655,-0.43718 -0.3601,-0.72359c-0.1379,-0.47881 0.13802,-0.97542 0.6168,-1.11422c0.48229,-0.14337 0.97726,0.13978 1.11422,0.6168c0.10974,0.38128 0.5319,0.54614 0.53554,0.54786c0.19676,0.06258 0.34357,0.19452 0.45231,0.35247c3.22073,-0.21808 5.77069,0.41894 5.91561,0.4564z" fill="#231f20" stroke="none" stroke-width="0.90025" stroke-linecap="butt" stroke-linejoin="miter"/><path d="M261.00424,183.78508v0v0v0v0v0c-0.14158,0.80616 -0.61298,1.29598 -1.00022,1.59319c0.1052,0.25084 0.16244,0.5279 0.09813,0.81372c-0.16386,0.72651 -0.87001,1.18806 -1.61365,1.02266c-2.81822,-0.63227 -6.4534,-0.80697 -7.1677,-0.04818c-0.25802,0.27279 -0.6008,0.41513 -0.95093,0.42249c-0.34472,0.00725 -0.68859,-0.11614 -0.95781,-0.37064c-0.54196,-0.51092 -0.56713,-1.36488 -0.05455,-1.90877c1.38025,-1.46245 4.35747,-1.48817 6.74563,-1.22513c0.11397,-0.10232 0.29414,-0.31045 0.30619,-0.59347c0.0149,-0.49462 0.39411,-0.91689 0.92626,-0.87217c0.49642,0.01476 0.886,0.42796 0.87217,0.92616c-0.01141,0.31361 -0.08322,0.57988 -0.17443,0.82305c0.11838,0.02182 0.23131,0.04104 0.3372,0.06322c0.09055,-0.14604 0.20485,-0.27537 0.37256,-0.35271c0.02489,-0.01493 0.41944,-0.22137 0.48872,-0.60821c0.08874,-0.48897 0.5473,-0.82369 1.0436,-0.72881c0.48897,0.08874 0.81481,0.55289 0.72881,1.0436z" fill="#231f20" stroke="none" stroke-width="0.90025" stroke-linecap="butt" stroke-linejoin="miter"/><path d="M238.2004,195.51134c0,-1.17361 0.95139,-2.125 2.125,-2.125c1.17361,0 2.125,0.95139 2.125,2.125c0,1.17361 -0.95139,2.125 -2.125,2.125c-1.17361,0 -2.125,-0.95139 -2.125,-2.125z" fill="#292929" stroke="#231f20" stroke-width="0.9" stroke-linecap="butt" stroke-linejoin="miter"/></g></g></svg>