<svg version="1.1" xmlns="http://www.w3.org/2000/svg" xmlns:xlink="http://www.w3.org/1999/xlink" width="71.72182" height="83.91827" viewBox="0,0,71.72182,83.91827"><g transform="translate(-209.79848,-153.44637)"><g data-paper-data="{&quot;isPaintingLayer&quot;:true}" fill-rule="nonzero" stroke="none" stroke-linecap="butt" stroke-linejoin="miter" stroke-miterlimit="10" stroke-dasharray="" stroke-dashoffset="0" style="mix-blend-mode: normal"><path d="M210.96674,175.63836l6.94661,-18.9965l21.98144,-3.19549l28.93824,3.2975l7.37218,23.45691l-14.94146,11.16242l13.6851,6.17948l-8.31878,9.07069l6.35944,13.64764l-17.15365,1.55626l-0.73807,11.79979l-17.61359,3.74759l-4.56943,-18.09462l-17.79779,-2.33387l-0.33869,-13.93914l7.94433,-10.5305z" fill="#ffffff" stroke-width="0"/><path d="M236.5014,185.53996c-0.416,0.50045 -1.06187,0.635 -1.06187,0.635c-1.1017,0.22818 -2.2034,0.45637 -3.3051,0.68455l-0.11924,-0.02376l0.00258,0.03603l-1.84254,0.13161c-0.04707,0.0038 -0.09465,0.00574 -0.1427,0.00574c-0.9665,0 -1.75,-0.7835 -1.75,-1.75c0,-0.36773 0.11342,-0.70897 0.30718,-0.99063l1.0499,-1.57485l0.06989,0.0466c0.10344,-0.1721 0.22033,-0.33598 0.35442,-0.48936c1.22259,-1.39837 5.09865,-1.00017 6.74634,-1.001l0.6799,3.66771c0,0 -0.39125,0.46949 -0.98877,0.62238z" fill="#9966ff" stroke-width="0.5"/><path d="M262.48509,178.45148c-1.05243,0.26298 -5.08666,1.49242 -5.74903,0.36084c-2.35353,-4.0207 2.07512,-4.85251 3.93033,-5.6065l0.12827,0.00878l-0.00749,-0.03743l1.95801,-0.3916c0.12192,-0.02689 0.24863,-0.04107 0.37864,-0.04107c0.9665,0 1.75,0.7835 1.75,1.75c0,0.32701 -0.0897,0.63307 -0.24583,0.89493l-0.80233,1.40409c0.04005,1.31282 -1.34058,1.65797 -1.34058,1.65797z" fill="#9966ff" stroke-width="0.5"/><path d="M243.58601,184.06336c-0.2661,-1.72965 1.46355,-1.99575 1.46355,-1.99575l1.19168,-0.17971c0.29119,-0.50866 0.58236,-1.01732 0.87355,-1.52597l0.90281,0.1085l-0.02751,-0.41274l1.97643,-0.13176c0.04404,-0.00332 0.08854,-0.00501 0.13343,-0.00501c0.9665,0 1.75,0.7835 1.75,1.75c0,0.45549 -0.17402,0.87033 -0.45919,1.18167l-1.32488,1.45737l-0.06953,-0.06321c-0.10509,0.13831 -0.2181,0.27076 -0.34085,0.39604c-0.38601,0.39398 -0.98353,0.42578 -1.564,0.48678c-0.26289,0.1448 -0.59203,0.22871 -0.99029,0.1596l-1.51945,0.23774c0,0 -1.72965,0.2661 -1.99575,-1.46355z" fill="#9966ff" stroke-width="0.5"/><path d="M221.00913,209.80022c-0.75617,-0.28975 -1.5309,-1.01538 -2.30332,-0.77226c-0.92118,0.28994 1.02583,3.60807 1.44855,3.91463c3.21635,2.33247 11.35225,3.43853 13.23375,-0.99287c-3.04885,0.73554 -6.46292,0.74223 -9.14051,-0.1512c-1.40602,0.70901 -2.24369,-0.68711 -2.24369,-0.68711c-0.20346,-0.33962 -0.41348,-0.69329 -0.62102,-1.05833zM216.32386,213.97708c-1.32809,-2.17226 -2.07278,-6.27754 0.59533,-7.95877c0.85164,-0.53663 1.79375,-0.54487 2.71758,-0.35153c-0.21501,-1.35069 -0.04581,-2.71722 0.82394,-4.00584c0.37643,-0.55772 0.89014,-1.05379 1.49745,-1.49224c-0.09564,-0.34291 -0.17501,-0.68827 -0.1979,-1.04215c-0.38885,-6.01148 4.90762,-6.45106 9.44436,-6.47543c0.02229,-0.05649 0.04743,-0.11154 0.07524,-0.16498c-2.10739,-0.47673 -3.93775,-1.3294 -5.52769,-2.46591c-1.81107,1.78699 -3.54479,3.01159 -5.7875,4.22194l-0.96535,0.60766c0,0 -1.48399,0.92749 -2.4115,-0.5565c-0.9275,-1.48399 0.5565,-2.4115 0.5565,-2.4115l1.161,-0.72131c1.89592,-1.01836 3.31997,-1.99086 4.83307,-3.47666c-0.46797,-0.51433 -0.90825,-1.05763 -1.32249,-1.62574c-2.85804,-0.06507 -5.80343,-0.22655 -8.56038,0.38058l-1.35244,0.27066c0,0 -1.71601,0.3432 -2.05922,-1.37282c-0.34321,-1.71601 1.37282,-2.05922 1.37282,-2.05922l1.3055,-0.26093c2.34591,-0.49126 4.76283,-0.52391 7.17696,-0.48981c-1.1205,-2.27006 -1.96083,-4.74613 -2.59198,-7.24974c-1.49075,0.373 -5.20218,1.59504 -6.23853,-0.26101c-2.04974,-3.67099 2.50822,-4.93844 5.14391,-5.32686c-0.14008,-0.9567 -0.25626,-1.89719 -0.35279,-2.81077c0.00203,-2.91361 -0.40243,-6.41341 3.90566,-6.21956c1.09847,0.04943 2.52968,0.76741 3.94376,1.68261c2.07174,-1.85368 4.3401,-2.74659 7.07448,-3.82643c6.02164,-2.37801 12.70008,-3.93461 19.21077,-4.10964c3.73475,-0.1004 9.56416,-1.21865 11.0457,3.34094c0.0913,0.28097 0.01049,1.03358 -0.12268,1.85805c0.78967,-1.21415 1.9534,-2.91771 2.32211,-3.28546c0.81964,-0.81751 1.61428,-2.51553 2.71699,-2.16316c1.42048,0.45391 1.78225,2.42269 2.37603,3.79062c1.35453,3.12052 0.86106,7.37761 0.86106,10.70085v0.19455c1.00086,0.24067 2.45222,0.49028 3.74704,0.96131c1.08991,-0.88668 2.25213,-1.5799 3.55305,-2.38047l1.36668,-0.45806c0,0 1.68267,-0.48076 2.16343,1.20191c0.48076,1.68266 -1.20191,2.16342 -1.20191,2.16342l-0.49387,0.07353c-0.93056,0.57265 -1.79216,1.05501 -2.59489,1.63411c0.38524,0.96248 0.4367,2.0667 0.24889,3.2271c0.84274,-0.38079 1.66273,-0.80879 2.50511,-1.33007l0.66613,-0.34064c0,0 1.56525,-0.78262 2.34787,0.78262c0.78262,1.56525 -0.78262,2.34787 -0.78262,2.34787l-0.39704,0.19094c-1.88454,1.15405 -3.69948,1.93962 -5.77735,2.68268c0,0 -0.06198,0.02214 -0.16621,0.04581c-1.39336,2.57091 -3.38156,4.90408 -4.95941,6.0892c-3.5132,2.63874 -7.89873,3.90798 -12.33974,4.78841c1.13365,0.35463 2.26909,0.6548 3.49276,0.89767c0,0 0.88711,0.17742 1.2581,0.91496c2.99422,-1.43133 6.57328,-0.73654 8.2144,1.76264c0.93098,-0.27914 1.69901,0.48888 1.69901,0.48888c1.014,1.0364 3.41882,3.01183 2.36813,4.89564c-0.60519,1.08506 -2.34413,0.8243 -3.51619,1.23645l-0.38237,-0.23695c-2.13051,3.76464 -8.59423,3.63368 -11.46443,0.59981c-0.10855,-0.11474 -0.19895,-0.24098 -0.27602,-0.37565c-0.1121,0.02178 -0.18287,0.0265 -0.18287,0.0265c-0.1136,0.00753 -0.23272,0.0165 -0.35673,0.02648l0.06634,0.13267c0.73645,1.49278 1.27601,2.53602 2.78074,3.3737c1.83822,1.02332 5.4923,1.31131 5.78318,4.15633c0.35563,3.47831 -4.41998,2.04225 -1.30786,4.25214c2.37947,1.06359 6.87598,2.66236 3.95829,6.52341c-0.63834,0.84474 -2.08053,0.41443 -3.13478,0.51256c-3.49949,0.32575 -8.64211,0.24768 -11.66733,-1.83983c-0.84098,-0.5803 -1.85855,-1.12421 -2.27061,-2.0592c-0.96502,-2.18969 1.24061,-3.97923 0.18984,-5.93931c-0.68991,-1.28693 -1.73055,-2.29511 -2.8804,-3.19581c0.616,1.40775 1.2409,2.8069 1.69098,4.26038c0.87097,2.81276 0.21238,5.61842 -0.25425,8.41824l0.02381,0.34475c0,0 0,0.75562 -0.49652,1.27382c2.5967,3.41704 3.74047,5.86194 2.954,10.34576c-6.70942,5.81839 -16.59854,3.46797 -17.64464,-6.18808c-0.32022,-2.95577 1.33968,-4.9756 1.57397,-7.78942c0.12378,-1.48661 -0.09579,-3.02822 -0.34159,-4.55981c-2.9631,7.07964 -16.26228,8.01696 -20.43189,1.19705zM234.58312,193.29307c0,0.11208 -0.01054,0.22169 -0.03067,0.32791c0.27418,0.31892 0.45735,0.79013 0.30522,1.47473c-0.05634,0.25351 -0.14193,0.46104 -0.24686,0.63065l1.19405,0.9287c0,0 0.61554,0.47875 0.70525,1.20798c1.46325,0.97428 1.92061,2.13878 1.84204,3.35752c1.90768,0.29364 2.8414,1.77761 2.871,3.97945c0.02083,1.54945 -0.62666,2.6243 -1.56671,3.53001c0.11786,0.29934 0.13834,0.54512 0.13834,0.54512c0.22841,2.74752 1.02052,5.59648 0.79064,8.35337c-0.20231,2.42621 -1.92012,4.6568 -1.58827,7.07309c0.83186,6.05703 6.12827,8.16052 11.13171,4.87975c0.18678,-2.84659 -1.32072,-4.72701 -3.02403,-6.91188l-0.5001,-0.92422c0,0 -0.72317,-1.44635 0.61114,-2.25355l0.01848,-0.71411c0.35798,-2.14789 1.09301,-4.59489 0.37819,-6.76049c-0.96013,-2.90881 -2.48244,-5.612 -3.3388,-8.59845c0,0 -0.38277,-1.33969 0.73015,-1.96984c0.01922,-0.02605 0.03932,-0.05221 0.06033,-0.07847c1.09322,-1.36652 2.45974,-0.2733 2.45974,-0.2733c3.20968,2.57219 8.25469,5.12504 8.40419,9.88865c0.03677,1.17168 -1.20232,2.33738 -0.77716,3.42982c0.30378,0.78056 1.46331,0.84393 2.26374,1.09066c2.235,0.68894 4.3982,0.43713 6.59491,0.52179c-0.39566,-0.18513 -0.70469,-0.3353 -0.78608,-0.37284c-1.67976,-1.4172 -3.35726,-2.1043 -2.84357,-4.89471c0.13022,-0.70736 0.76372,-1.72227 1.43122,-2.16675c-0.3475,-0.109 -0.68427,-0.26164 -1.02143,-0.39908c-0.66039,-0.2692 -1.3288,-0.53212 -1.94516,-0.89084c-2.11478,-1.23083 -3.10528,-2.72962 -4.17618,-4.84812l-0.31622,-0.63245c0,0 -0.18661,-0.37322 -0.19534,-0.84628c-2.72499,-0.00766 -5.4614,-0.66531 -5.36462,-3.9349c0.05306,-1.79235 1.4048,-3.18231 3.16164,-4.12502c0,-0.42213 0,-0.8931 0,-1.30125c-0.01559,-0.07011 -0.02634,-0.14332 -0.03129,-0.21965c-1.23727,0.20585 -2.45453,0.40989 -3.6332,0.6344c-4.36696,0.77049 -9.19548,1.30452 -13.73902,0.92391c0.02149,0.10957 0.03275,0.22281 0.03275,0.33868zM231.72634,196.14985c-3.20835,0 -6.15301,-0.32297 -6.30828,2.33869c2.06962,-0.6876 4.29941,-1.02854 5.91932,-1.09382c0.06828,-0.00275 0.15375,-0.00551 0.25353,-0.00802c-0.11137,-0.34523 -0.12042,-0.76828 0.13867,-1.23599zM266.83193,199.03567c1.22372,-0.99932 -0.00446,-3.47583 -1.10361,-4.01924c-1.52978,-0.75631 -2.3133,-0.089 -3.36878,0.94759c-0.15902,0.86842 -0.54352,1.70512 -1.08901,2.40118c1.07776,1.65385 3.87224,2.04988 5.5614,0.67047zM224.26763,207.86682l0.13727,0.21116c2.42939,1.61436 7.76684,0.89854 10.41329,-0.26016c0.74903,-0.32795 3.57173,-1.75904 2.95709,-3.15506c-0.1479,-0.33592 -0.59688,0.44387 -0.81879,0.73622c-0.33108,0.43617 -0.66851,0.86747 -1.00277,1.30121c0,0 -1.0744,1.38137 -2.45576,0.30697c-0.89714,-0.69777 -0.75845,-1.52502 -0.55098,-2.01926c-0.058,-0.78606 0.54605,-1.39011 0.54605,-1.39011l0.36927,-0.29538c0.4603,-0.73312 1.67565,-2.30087 0.82519,-2.46236c-2.97587,-0.56506 -6.11098,0.4894 -8.81966,1.51921c-0.68642,0.26097 -1.97625,0.5098 -2.48172,1.22313c-0.82639,1.16622 -0.1852,2.73005 0.57483,4.04668c0.19296,0.12402 0.30668,0.23774 0.30668,0.23774zM225.1377,184.32885c0,0.13064 -0.00975,0.25153 -0.0278,0.36339c1.93936,2.35876 4.49029,4.05839 7.85601,4.55326c4.15609,0.61109 8.64828,0.28851 12.84147,-0.3523c0.10799,-0.63281 0.58502,-1.07009 0.58502,-1.07009c1.28869,-1.17327 4.11939,-3.9198 6.02889,-3.9034c2.33254,0.02004 4.38786,0.99635 4.26517,3.11329c3.78982,-0.7721 7.49617,-1.90244 10.44283,-4.10817c1.95763,-1.4654 3.32092,-3.78214 4.19916,-6.01121c0.35092,-0.89067 0.99514,-1.83493 1.07104,-2.76216c-0.31336,-0.02883 -0.65722,-0.16446 -1.01067,-0.48256c-0.31374,-0.28237 -0.48371,-0.57231 -0.56099,-0.84973c-1.20721,-0.31339 -2.71872,-0.59041 -2.81255,-0.61384c0,0 -0.59474,-0.14869 -0.9922,-0.62206c-1.52943,-0.14049 -1.52943,-1.74017 -1.52943,-1.74017v-1.19607c0,-2.41249 0.08265,-4.79879 -0.24881,-7.19898c-0.00209,-0.01515 -0.21221,-0.64398 -0.35514,-1.39195c-0.62373,0.76739 -1.36134,1.48082 -1.80629,2.3515c-1.69752,3.32173 -1.87838,4.96702 -5.87754,5.46329c-6.56733,0.00333 -12.94248,1.17806 -19.34412,2.61572c-1.77808,0.39932 -4.82372,2.24895 -6.56017,2.02612c-2.8011,-0.35946 -6.07433,-4.57944 -8.4644,-6.1166c-0.67819,-0.43617 -1.36727,-0.85519 -2.05084,-1.28288c-0.58339,-0.365 -1.7144,-1.73542 -1.77746,-1.05015c-0.0805,0.87488 0.1453,1.75309 0.14606,2.63166c0.51299,4.89515 1.63908,11.18978 4.48645,15.90824c0.48505,0.07652 1.49631,0.39556 1.49631,1.72586zM256.45664,163.99565l0.01759,-0.38038c0.09111,-0.63618 0.18222,-1.27235 0.27333,-1.90852c0.21116,-1.05582 0.75339,-2.08185 0.68617,-3.15648c-0.06243,-0.9981 -1.16816,-0.64664 -1.72797,-0.6489c-2.82992,-0.01144 -5.77924,-0.20419 -8.59137,0.12435c-5.23702,0.61185 -10.35898,1.81658 -15.24082,3.74275c-2.07488,0.81866 -3.86521,1.42354 -5.46641,2.68104c0.59193,0.46787 1.11923,0.90158 1.54073,1.24567c0.67614,0.55195 2.86588,3.25573 3.73934,3.33888c1.10221,0.10492 4.09443,-1.66438 5.40054,-1.96078c6.41515,-1.45582 12.8401,-2.63513 19.41657,-2.69755c-0.04769,-0.22158 -0.0477,-0.38005 -0.0477,-0.38005z" fill="#9966ff" stroke-width="0.5"/></g></g></svg>