<svg version="1.1" xmlns="http://www.w3.org/2000/svg" xmlns:xlink="http://www.w3.org/1999/xlink" width="107.78982" height="115.18389" viewBox="0,0,107.78982,115.18389"><defs><radialGradient cx="257.1772" cy="175.88942" r="7.85069" gradientUnits="userSpaceOnUse" id="color-1"><stop offset="0" stop-color="#54606d"/><stop offset="1" stop-color="#2c3136"/></radialGradient></defs><g transform="translate(-171.32618,-123.92308)"><g data-paper-data="{&quot;isPaintingLayer&quot;:true}" stroke-miterlimit="10" stroke-dasharray="" stroke-dashoffset="0" style="mix-blend-mode: normal"><path d="M239.52726,203.66583c0.33632,0.66617 0.98971,1.89876 1.75723,3.5587c1.45754,3.15227 3.32678,7.84567 4.21814,13.12764l0.04085,0.4043c0.04085,0.4043 0.53597,0.67357 0.99021,0.53851c2.8063,-1.2971 8.37042,-3.59922 9.27505,2.00849c0.93694,5.41301 -15.53591,12.94822 -18.76026,8.30785c-1.1698,-2.0584 -0.15675,-3.60895 0.4106,-4.42547c0.29174,-0.45692 0.37254,-0.94368 0.34785,-1.44533c-0.22807,-1.22784 -0.71649,-3.48882 -1.3912,-5.27795c-1.62595,-4.51408 -2.41371,-5.62176 -3.67287,-7.79241c-1.25913,-2.17065 -4.41885,-7.20043 -0.44557,-10.32522c3.36508,-2.7126 6.23881,-0.513 7.22996,1.32088z" fill="#ffab19" fill-rule="evenodd" stroke="#001026" stroke-width="1.2" stroke-linecap="round" stroke-linejoin="round"/><path d="M222.66525,208.98409c0.08175,-2.04795 1.71419,-5.14669 5.99295,-3.9593c5.01717,1.3309 4.39112,7.11606 4.21607,9.57288c-0.17505,2.45681 0.45697,3.75293 0.99688,8.4837c0.18643,1.88657 -0.0999,4.14481 0.24201,5.34993c0.11249,0.25956 1.24224,10.36821 -7.92965,10.06916c-8.09776,-0.26403 -1.70407,-12.03903 -1.70407,-12.03903c0,0 -1.73782,-10.14011 -1.82148,-13.56652c-0.04406,-1.8043 -0.00078,-3.1759 0.0073,-3.91079z" data-paper-data="{&quot;index&quot;:null}" fill="#ffab19" fill-rule="evenodd" stroke="#001026" stroke-width="1.2" stroke-linecap="round" stroke-linejoin="round"/><g fill-rule="evenodd"><path d="M220.39642,203.74019c0.94644,-0.0198 2.97997,-0.01793 2.19729,4.08492c-0.78269,4.10287 -7.09025,7.92156 -7.85788,8.29298c-2.92975,1.52711 -6.57584,3.29129 -11.23167,4.01057c-13.49428,2.14794 -19.44717,-9.32069 -16.64402,-12.97724c2.7072,-3.61012 7.95983,2.72064 15.42783,4.47436c3.28641,0.81959 6.42664,0.17647 8.95299,-0.49826c3.53055,-1.05108 8.06834,-7.40902 9.15545,-7.38735z" fill="#ffab19" stroke="#001026" stroke-width="1.2" stroke-linecap="round" stroke-linejoin="round"/><path d="M192.97937,208.13384c2.74237,1.63052 7.41576,3.53155 7.41576,3.53155c0,0 -3.95254,0.92666 -5.20743,3.39591c-1.04994,1.93196 0.31749,3.68009 0.82234,4.20253c-1.82858,-0.53917 -4.16854,-1.37859 -6.69288,-3.99086c-2.52434,-2.61228 -3.44263,-6.76838 -1.79189,-8.22431c1.74017,-1.28014 2.89056,-0.19374 5.45406,1.08518z" fill="#ffffff" stroke="none" stroke-width="1" stroke-linecap="butt" stroke-linejoin="miter"/></g><path d="M242.66427,191.23404c0.58264,0.32945 7.99966,6.61578 9.87772,4.61124c2.26168,-2.34682 5.21012,-6.7585 9.46104,-3.97603c4.25093,2.78246 -2.20373,9.08976 -5.07466,10.91169c-6.89326,3.87669 -13.60786,-1.20075 -15.09138,-2.61681c-1.48353,-1.41607 -4.06637,-3.79647 -4.4124,-6.33709c-0.26677,-2.74833 3.24004,-3.84995 5.23966,-2.59301z" fill="#ffab19" fill-rule="evenodd" stroke="#001026" stroke-width="1.2" stroke-linecap="round" stroke-linejoin="round"/><g fill-rule="evenodd"><path d="M225.50775,210.23481c-11.85178,-4.15461 -6.59064,-10.02699 -5.99278,-15.42268c0.70025,-4.68498 2.11727,-4.39485 8.49928,-5.66926c3.53982,-0.88471 5.62457,-1.39983 7.73468,-2.35475c3.18645,-1.38724 4.64344,3.18314 4.82741,5.79443c0,0 0.20575,3.89144 -0.25717,6.11812c-0.58614,2.70579 -1.12155,4.53197 -1.91249,5.8163c0,0 -1.69926,2.76076 -3.95075,3.75879c-2.02385,0.89714 -8.94818,1.95904 -8.94818,1.95904z" fill="#ffab19" stroke="#001026" stroke-width="1.2" stroke-linecap="round" stroke-linejoin="round"/><path d="M237.48344,204.78037c0,0 -1.97877,-0.49412 -4.18314,-1.21986c-2.72352,-0.83944 -5.3193,-1.40797 -4.68243,-4.9934c0.73925,-2.8747 1.03997,-6.43252 6.67817,-5.58227c5.35733,0.74826 4.56282,3.75255 4.56282,3.75255c-0.23636,4.92827 -2.37542,8.04297 -2.37542,8.04297z" fill="#ffffff" stroke="none" stroke-width="1" stroke-linecap="butt" stroke-linejoin="miter"/></g><path d="M246.76949,135.37622c0.34084,-0.16128 0.85976,-0.00596 0.92039,0.39701l1.54272,10.77104c0,0 6.25369,5.33525 7.89406,8.78332c2.76928,5.75061 2.36451,10.16635 2.36451,10.16635c0,0 7.29119,2.87099 7.91676,8.58759c0.62557,5.71658 -5.26658,15.78131 -25.62403,17.24278c-20.35746,1.46146 -35.7921,-5.26477 -42.02762,-17.23789c-6.2355,-11.97313 7.18592,-23.99706 6.4588,-23.28302c0,0 0.71148,-15.72192 1.11296,-15.48023l11.53235,6.44438c0,0 4.96524,-1.14685 9.97229,-0.80265c2.99211,0.12593 5.5146,0.5974 7.90837,1.25311z" fill="#ffab19" fill-rule="evenodd" stroke="#001026" stroke-width="1.2" stroke-linecap="butt" stroke-linejoin="miter"/><path d="M259.12762,165.85097c0,0 7.11314,2.55441 7.7387,8.27099c0.62557,5.71658 -5.63403,15.246 -25.76802,16.63257c-26.23173,2.11344 -36.79289,-13.30135 -28.48429,-22.9061c8.31996,-9.70262 19.48277,0.52492 28.45909,0.90271c7.69238,0.33781 9.25592,-5.73626 18.05451,-2.90017z" fill="#ffffff" fill-rule="evenodd" stroke="none" stroke-width="1" stroke-linecap="butt" stroke-linejoin="miter"/><path d="M278.516,169.04143c-5.41571,3.17919 -13.06268,2.44991 -13.06268,2.44991" fill="none" fill-rule="evenodd" stroke="#001026" stroke-width="1.2" stroke-linecap="round" stroke-linejoin="round"/><path d="M275.86599,179.85378c-6.73794,-0.23442 -10.65821,-2.54202 -10.65821,-2.54202" fill="none" fill-rule="evenodd" stroke="#001026" stroke-width="1.2" stroke-linecap="round" stroke-linejoin="round"/><path d="M240.94404,166.16051c2.22705,0.24125 4.53747,0.68974 4.56404,1.38634c-0.05287,1.3817 -1.96146,3.9498 -3.66961,3.86386c-1.93162,-0.01104 -6.10194,-2.94037 -5.9203,-4.50633c0.03017,-1.18596 2.90488,-0.97364 5.02586,-0.74388z" fill="#001026" fill-rule="evenodd" stroke="#001026" stroke-width="1.2" stroke-linecap="round" stroke-linejoin="round"/><path d="M193.39171,159.52266c0,0 8.80248,3.72843 12.16234,7.16455" fill="none" fill-rule="evenodd" stroke="#001026" stroke-width="1.2" stroke-linecap="round" stroke-linejoin="round"/><path d="M205.4749,170.14721c-4.75314,1.16983 -12.47598,-0.7569 -12.47598,-0.7569" fill="none" fill-rule="evenodd" stroke="#001026" stroke-width="1.2" stroke-linecap="round" stroke-linejoin="round"/><path d="M254.51022,161.684c-0.12485,1.07659 -1.07543,1.86554 -2.13593,1.75066c-1.0605,-0.11489 -1.80674,-1.08764 -1.68188,-2.16424c0.12485,-1.07659 1.07543,-1.86554 2.13593,-1.75066c1.0605,0.11489 1.80674,1.08764 1.68188,2.16424" fill="#001026" fill-rule="evenodd" stroke="none" stroke-width="1" stroke-linecap="butt" stroke-linejoin="miter"/><path d="M227.40336,161.62149c-0.12485,1.07659 -1.07543,1.86554 -2.13593,1.75066c-1.0605,-0.11489 -1.80674,-1.08764 -1.68188,-2.16424c0.12485,-1.07659 1.07543,-1.86554 2.13593,-1.75066c1.04915,0.21275 1.80674,1.08764 1.68188,2.16424" fill="#001026" fill-rule="evenodd" stroke="none" stroke-width="1" stroke-linecap="butt" stroke-linejoin="miter"/><g fill-rule="nonzero" stroke="#001026" stroke-width="1.2" stroke-linejoin="miter"><g><path d="M254.43121,203.27478l-5.45341,-21.23339l13.94766,-1.59273l-0.93178,21.21746c0,0 -1.93589,1.94157 -3.15708,2.20134c-1.29527,0.27552 -4.40537,-0.59267 -4.40537,-0.59267z" fill="#505a63" stroke-linecap="butt"/><path d="M248.06129,180.78005c-0.37627,-4.0035 2.79448,-7.64589 7.08203,-8.13551c4.28756,-0.48962 8.06835,2.35895 8.4446,6.36245c0.37627,4.0035 -2.79448,7.6459 -7.08204,8.13551c-4.28756,0.48962 -8.06834,-2.35896 -8.4446,-6.36246z" fill="url(#color-1)" stroke-linecap="butt"/><path d="M253.10149,186.47118c0,0 -1.37838,-4.36671 -1.60412,-6.49021c-0.21096,-1.98464 0.29103,-5.86236 0.29103,-5.86236" fill="none" stroke-linecap="round"/><path d="M260.31414,185.50546c0,0 -1.83166,-5.38972 -2.25812,-7.55388c-0.31507,-1.59902 -0.06912,-4.25666 -0.06912,-4.25666" fill="none" stroke-linecap="round"/><path d="M248.04366,181.22372c0,0 4.35541,-3.00333 6.90855,-3.84666c2.2212,-0.73371 7.55365,-0.93045 7.55365,-0.93045" fill="none" stroke-linecap="round"/><path d="M250.6268,186.04338c0,0 5.00225,-3.02165 7.39266,-4.06928c1.85819,-0.81438 5.75955,-1.69483 5.75955,-1.69483" fill="none" stroke-linecap="round"/></g><path d="M264.48271,194.35269c0.25952,2.66899 -1.80039,5.35443 -4.60094,5.99809c-2.80054,0.64367 -5.4361,-0.2145 -5.69563,-2.8835c-0.25952,-2.66899 1.95525,-6.13811 4.75578,-6.78177c2.80054,-0.64367 5.28123,0.99817 5.54075,3.66718z" fill="#ffab19" stroke-linecap="butt"/></g><g fill-rule="nonzero" stroke="#001026" stroke-width="1.2" stroke-linecap="butt" stroke-linejoin="miter"><path d="M215.83289,146.12674c-1.36737,4.35608 -22.30717,13.1949 -22.30717,13.1949c0,0 -3.06558,-0.002 -4.51111,-0.0731c-10.82609,-0.53236 -18.16519,-3.60617 -16.95888,-7.44911c1.36737,-4.35608 13.19679,-8.05086 26.4217,-8.25254c13.22494,-0.20166 18.72282,-1.77623 17.35544,2.57985z" fill="#00b0f7"/><path d="M199.34083,142.44211l-12.64707,-3.1061c0,0 15.22562,-6.97186 23.62441,-9.14049c10.15787,-2.62286 33.05518,-5.49467 33.05518,-5.49467l-14.40056,18.21134z" fill="#ff2b2b"/><path d="M190.87866,160.3708c0,0 -3.33077,-7.10097 -4.04515,-10.588c-0.69302,-3.38291 -0.17902,-10.03123 -0.17902,-10.03123l27.75286,-5.32659c0,0 0.83915,7.5301 1.5632,11.06435c0.68142,3.32618 2.66099,9.55486 2.66099,9.55486z" data-paper-data="{&quot;index&quot;:null}" fill="#cc0000"/><path d="M218.18014,155.06558c0,0 -1.35581,-6.39577 -2.48486,-9.60869c-1.19966,-3.41393 -4.5141,-10.30852 -4.5141,-10.30852l32.90409,-10.39934c0,0 4.27919,5.41095 5.4275,8.67866c1.18363,3.36829 1.57147,11.23854 1.57147,11.23854z" fill="#f70000"/></g><path d="M221.74987,201.63188c-0.39994,4.05513 1.68624,7.79345 0.21193,9.89131c-0.9622,1.36917 -2.56467,2.34108 -3.65333,2.24964c-1.21338,-0.10192 -3.17113,-1.57986 -3.86363,-3.40246c-0.88085,-2.31828 -3.04806,-5.82514 -2.67805,-9.57706c0.3264,-3.30963 3.25775,-6.65016 4.35744,-8.76509c1.12706,-2.16756 3.18236,-2.64144 4.57768,-2.52425c1.5064,0.12653 3.01449,1.13208 3.67673,3.77401c0.54966,2.19284 -2.32899,5.31431 -2.62878,8.35388z" fill="#ffab19" fill-rule="nonzero" stroke="#001026" stroke-width="1.2" stroke-linecap="butt" stroke-linejoin="miter"/><path d="M239.2693,180.14406c-0.10255,0.87808 -3.68532,1.2084 -8.00232,0.73778c-4.31701,-0.47062 -7.73351,-1.56396 -7.63096,-2.44205c0.10255,-0.87808 3.68532,-1.2084 8.00232,-0.73778c4.31701,0.47062 7.73351,1.56396 7.63096,2.44205z" fill="none" fill-rule="nonzero" stroke="#001026" stroke-width="1.2" stroke-linecap="butt" stroke-linejoin="miter"/></g></g></svg>