<svg version="1.1" xmlns="http://www.w3.org/2000/svg" xmlns:xlink="http://www.w3.org/1999/xlink" width="97.13644" height="126.54813" viewBox="0,0,97.13644,126.54813"><defs><radialGradient cx="268.02836" cy="178.7493" r="7.80494" gradientUnits="userSpaceOnUse" id="color-1"><stop offset="0" stop-color="#54606d"/><stop offset="1" stop-color="#2c3136"/></radialGradient></defs><g transform="translate(-189.95989,-111.85981)"><g data-paper-data="{&quot;isPaintingLayer&quot;:true}" stroke-miterlimit="10" stroke-dasharray="" stroke-dashoffset="0" style="mix-blend-mode: normal"><g stroke="#001026" stroke-width="1.2"><path d="M244.8656,191.16688c0.56367,0.34145 7.64326,6.71604 9.60039,4.84466c2.35381,-2.18854 5.48422,-6.35221 9.57929,-3.49387c4.09507,2.85832 -2.60469,8.72593 -5.53966,10.3826c-7.02423,3.4952 -13.46144,-1.68103 -14.8702,-3.10987c-1.40877,-1.42883 -3.86537,-3.83408 -4.09287,-6.30957c-0.13926,-2.6738 3.39437,-3.60817 5.32304,-2.31394z" fill="#ff0000" fill-rule="evenodd" stroke-linecap="round" stroke-linejoin="round"/><g fill-rule="nonzero" stroke-linejoin="miter"><g><path d="M252.94839,201.39214l4.95412,-20.7186l13.1297,4.43347l-10.62097,18.04176c0,0 -2.61646,0.87916 -3.82157,0.5955c-1.27821,-0.30087 -3.64129,-2.35211 -3.64129,-2.35211z" fill="#505a63" stroke-linecap="butt"/><path d="M257.67023,179.19564c1.51345,-3.63453 6.01228,-5.47607 10.04839,-4.11323c4.03613,1.36287 6.08115,5.41406 4.5677,9.04858c-1.51345,3.63453 -6.01229,5.47608 -10.0484,4.11323c-4.03613,-1.36287 -6.08114,-5.41406 -4.56769,-9.0486z" fill="url(#color-1)" stroke-linecap="butt"/><path d="M259.52246,186.24126c0,0 0.79056,-4.36798 1.57007,-6.30668c0.72854,-1.81192 2.9644,-4.97092 2.9644,-4.97092" fill="none" stroke-linecap="round"/><path d="M266.37771,188.41049c0,0 0.85992,-5.44564 1.47983,-7.50336c0.45804,-1.52037 1.90325,-3.72635 1.90325,-3.72635" fill="none" stroke-linecap="round"/><path d="M257.4498,179.57367c0,0 5.2566,-0.79236 7.91471,-0.4601c2.31251,0.28905 7.142,2.34209 7.142,2.34209" fill="none" stroke-linecap="round"/><path d="M257.52078,184.83756c0,0 5.83991,-0.53849 8.44768,-0.45157c2.02716,0.06758 5.90048,0.92986 5.90048,0.92986" fill="none" stroke-linecap="round"/></g><path d="M265.99863,197.83409c-1.00125,2.42664 -4.07125,3.90021 -6.85704,3.29134c-2.78579,-0.60888 -4.73177,-2.45349 -3.73052,-4.88013c1.00125,-2.42664 4.57057,-4.51638 7.35636,-3.90749c2.78579,0.60888 4.23243,3.06965 3.2312,5.49629z" fill="#ffab19" stroke-linecap="butt"/></g></g><g fill-rule="evenodd"><path d="M224.27515,202.49953c0.84874,0.38215 2.65232,1.24198 0.1061,4.49024c-2.54623,3.24825 -9.86664,3.917 -10.71538,3.917c-3.28888,0.09554 -7.32042,0.09554 -11.77632,-1.24198c-12.94334,-3.82147 -13.04944,-16.33678 -8.9118,-18.34305c4.03154,-2.00627 5.83511,5.7322 11.67022,10.4135c2.54623,2.10181 5.62292,2.8661 8.16916,3.34379c3.60716,0.57321 10.5032,-3.05718 11.45804,-2.57949z" fill="#ffab19" stroke="#001026" stroke-width="1.2" stroke-linecap="round" stroke-linejoin="round"/><path d="M197.96411,194.76105c1.69749,2.57949 4.98637,6.20989 4.98637,6.20989c0,0 -3.92544,-0.85983 -6.1534,0.7643c-1.80358,1.24198 -1.3792,3.34379 -1.16702,4.01254c-1.3792,-1.24198 -3.0767,-2.96164 -4.13762,-6.30542c-1.06092,-3.34379 0,-7.35633 2.12186,-7.92955c2.12186,-0.38215 2.65232,1.0509 4.34982,3.24825z" fill="#ffffff" stroke="none" stroke-width="1" stroke-linecap="butt" stroke-linejoin="miter"/></g><g><path d="M240.56778,202.76363c0.09157,0.70814 0.29034,2.02715 0.45196,3.77183c0.30694,3.31318 0.47997,8.16137 -0.46929,13.27604l-0.09849,0.38378c-0.09849,0.38378 0.27747,0.7712 0.75191,0.77479c3.0879,-0.40382 9.11895,-0.95618 8.0718,4.46218c-0.95067,5.24817 -19.04984,7.54614 -20.51965,2.36503c-0.40619,-2.22488 1.07538,-3.36725 1.88755,-3.95925c0.4302,-0.33855 0.67142,-0.76398 0.81816,-1.23286c0.20097,-1.19483 0.50646,-3.4143 0.47622,-5.25179c-0.00423,-4.61454 -0.37217,-5.85641 -0.82462,-8.20981c-0.45244,-2.35341 -1.72925,-7.87488 3.07945,-9.63287c4.09503,-1.5498 6.06129,1.28511 6.37499,3.25293z" fill="#513726" fill-rule="evenodd" stroke="#001026" stroke-width="1.2" stroke-linecap="round" stroke-linejoin="round"/><path d="M222.07684,209.11371c0.11764,-1.98517 1.79538,-4.96664 6.02755,-3.75179c4.96361,1.36494 4.23853,6.96692 4.02089,9.34728c-0.21764,2.38036 0.38758,3.64683 0.84023,8.24333c0.15181,1.8326 -0.17294,4.01871 0.14554,5.19264c0.10721,0.25341 1.05066,10.0748 -8.06123,9.64934c-8.04479,-0.37563 -1.48006,-11.70221 -1.48006,-11.70221c0,0 -1.54733,-9.86088 -1.56964,-13.1855c-0.01176,-1.7507 0.05564,-3.08042 0.07672,-3.79309z" data-paper-data="{&quot;index&quot;:null}" fill="#513726" fill-rule="evenodd" stroke="#001026" stroke-width="1.2" stroke-linecap="round" stroke-linejoin="round"/><g fill-rule="evenodd"><path d="M226.9553,208.93005c-11.58205,-4.47713 -6.08768,-9.9686 -5.24703,-15.17531c0.90985,-4.51401 2.30406,-4.17895 8.70145,-5.17151c3.55647,-0.72289 5.65079,-1.14288 7.79038,-1.98817c3.22848,-1.22337 4.46662,3.26159 4.52991,5.79941c0,0 0.02636,3.77937 -0.53529,5.91984c-0.70596,2.60015 -1.32131,4.3497 -2.16568,5.56441c0,0 -1.81411,2.6111 -4.09612,3.49281c-2.05127,0.79255 -8.97762,1.55853 -8.97762,1.55853z" fill="#ff0000" stroke="#001026" stroke-width="1.2" stroke-linecap="round" stroke-linejoin="round"/><path d="M239.09997,204.0989c0,0 -1.94286,-0.55412 -4.09922,-1.3413c-2.66682,-0.91712 -5.21913,-1.5668 -4.42254,-5.01755c0.86578,-2.75803 1.32721,-6.1948 6.88862,-5.15641c5.28709,0.92886 4.36048,3.81039 4.36048,3.81039c-0.46019,4.76745 -2.72735,7.70487 -2.72735,7.70487z" fill="#ffffff" stroke="none" stroke-width="1" stroke-linecap="butt" stroke-linejoin="miter"/></g><path d="M240.02905,203.87871c0,0 -1.81411,2.6111 -4.09612,3.49281c-2.04998,0.79206 -8.9689,1.55756 -8.97761,1.55853c-8.03548,-3.10618 -7.85137,-6.70059 -6.70444,-10.34943c0.24821,0.06689 0.47011,0.12352 0.66008,0.16959c6.63211,1.60843 13.04515,2.56833 19.45125,4.60146c-0.10734,0.18614 -0.21813,0.36156 -0.33317,0.52705z" fill="#513726" fill-rule="nonzero" stroke="#001026" stroke-width="1.2" stroke-linecap="butt" stroke-linejoin="miter"/></g><path d="M223.61621,200.44933c-0.58273,3.91498 1.31842,7.61743 -0.24195,9.59462c-1.01835,1.2904 -2.65451,2.17146 -3.73168,2.04146c-1.20055,-0.1449 -3.07754,-1.65173 -3.68202,-3.4445c-0.76888,-2.28033 -2.76112,-5.76153 -2.22196,-9.38379c0.4756,-3.19525 3.54002,-6.32143 4.72908,-8.32939c1.21862,-2.05794 3.28179,-2.43909 4.66236,-2.27246c1.4905,0.17991 2.94244,1.2118 3.47938,3.7975c0.44568,2.14617 -2.55643,5.06204 -2.99322,7.99656z" fill="#ff0000" fill-rule="nonzero" stroke="#001026" stroke-width="1.2" stroke-linecap="butt" stroke-linejoin="miter"/><path d="M226.95529,208.93005c0,0 0,0 0.00001,0v0z" fill="#513726" fill-rule="nonzero" stroke="#001026" stroke-width="1.2" stroke-linecap="butt" stroke-linejoin="miter"/><g><g fill-rule="evenodd"><path d="M254.92417,134.19181c0.30998,-0.18416 0.80411,-0.05834 0.88322,0.34631l2.04112,10.82053c0,0 6.14743,5.02586 7.87358,8.42002c2.91021,5.65868 2.7765,10.15781 2.7765,10.15781c0,0 6.98144,2.46568 7.88396,8.22029c0.90253,5.75461 -4.05212,16.31167 -23.01881,19.03088c-18.9667,2.71921 -33.78163,-3.15767 -40.28035,-14.91083c-6.49872,-11.75316 5.39208,-24.75349 4.75136,-23.98572c0,0 -0.20667,-15.97441 0.18241,-15.75392l11.14804,5.82864c0,0 4.58217,-1.46414 9.28622,-1.41993c2.80661,-0.05439 5.19299,0.2699 7.46913,0.78873z" fill="#ffab19" stroke="#001026" stroke-width="1.2" stroke-linecap="butt" stroke-linejoin="miter"/><path d="M268.17824,164.32035c0,0 6.79728,2.15571 7.69979,7.91032c0.90253,5.75461 -4.42562,15.79157 -23.18741,18.4213c-24.42689,3.73717 -35.16398,-11.24031 -27.92282,-21.47826c7.24634,-10.33782 18.25851,-0.65318 26.67833,-0.81638c7.21624,-0.12561 8.34217,-6.3756 16.73209,-4.03697z" fill="#ffffff" stroke="none" stroke-width="1" stroke-linecap="butt" stroke-linejoin="miter"/><path d="M286.49634,166.37391c-4.8909,3.55093 -12.08639,3.27708 -12.08639,3.27708" fill="none" stroke="#001026" stroke-width="1.2" stroke-linecap="round" stroke-linejoin="round"/><path d="M284.61676,177.49134c-6.31746,0.17232 -10.11358,-1.92753 -10.11358,-1.92753" fill="none" stroke="#001026" stroke-width="1.2" stroke-linecap="round" stroke-linejoin="round"/><path d="M251.18163,165.74008c2.09716,0.10899 4.28382,0.42291 4.34735,1.12716c0.0272,1.40331 -1.61611,4.12167 -3.21915,4.13849c-1.80795,0.1063 -5.87254,-2.60833 -5.78948,-4.20617c-0.03758,-1.20358 2.66397,-1.16329 4.66128,-1.05949z" fill="#001026" stroke="#001026" stroke-width="1.2" stroke-linecap="round" stroke-linejoin="round"/><path d="M206.32014,161.9064c0,0 8.44307,3.2426 11.77745,6.52009" fill="none" stroke="#001026" stroke-width="1.2" stroke-linecap="round" stroke-linejoin="round"/><path d="M218.21554,171.93735c-4.38244,1.47452 -11.71538,-0.00809 -11.71538,-0.00809" fill="none" stroke="#001026" stroke-width="1.2" stroke-linecap="round" stroke-linejoin="round"/><g><path d="M263.57301,154.66832c2.66253,4.64445 2.49768,9.74276 -0.39198,11.39501c-2.88965,1.65224 -7.37446,-0.68369 -10.13685,-5.33334c-2.66253,-4.64445 -2.49768,-9.74276 0.39198,-11.39501c2.89485,-1.75211 7.47432,0.68887 10.13685,5.33334z" fill="#ffffff" stroke="#001026" stroke-width="1.2" stroke-linecap="round" stroke-linejoin="round"/><path d="M263.62668,160.3788c-0.05709,1.09852 -0.90273,1.95579 -1.90138,1.90387c-0.99866,-0.0519 -1.75085,-0.99222 -1.69376,-2.09073c0.05709,-1.09852 0.90273,-1.95579 1.90138,-1.90387c0.99866,0.0519 1.75085,0.99222 1.69376,2.09073" fill="#001026" stroke="none" stroke-width="1" stroke-linecap="butt" stroke-linejoin="miter"/></g><g><path d="M238.6611,156.17731c2.76758,4.54977 2.28756,9.93212 -0.50741,11.68941c-3.39418,1.72615 -7.71557,0.09966 -10.48315,-4.45011c-2.86745,-4.55498 -2.77132,-10.25767 0.43869,-12.2938c3.2152,-2.136 7.78429,0.50472 10.55188,5.05449z" fill="#ffffff" stroke="#001026" stroke-width="1.2" stroke-linecap="round" stroke-linejoin="round"/><path d="M238.2602,161.96429c-0.05709,1.09852 -0.90273,1.95579 -1.90138,1.90387c-0.99866,-0.0519 -1.75085,-0.99222 -1.69376,-2.09073c0.05709,-1.09852 0.90273,-1.95579 1.90138,-1.90387c0.99347,0.15177 1.75085,0.99222 1.69376,2.09073" fill="#001026" stroke="none" stroke-width="1" stroke-linecap="butt" stroke-linejoin="miter"/></g></g><path d="M258.20019,187.64736c0.04878,-0.66436 0.3871,-1.2568 0.89926,-1.68556c0.00029,-0.05007 0.00227,-0.10047 0.006,-0.15116c0.06219,-0.8471 0.59511,-1.5773 1.35895,-2.00027c-0.02511,-0.16239 -0.03227,-0.32973 -0.01974,-0.50031c0.03632,-0.49464 0.23313,-0.94942 0.54272,-1.32646c-0.13878,-0.3206 -0.20328,-0.67336 -0.17627,-1.04126c0.05123,-0.69771 0.42179,-1.31613 0.9777,-1.74889c-0.48942,-0.47277 -0.76737,-1.11601 -0.71614,-1.81372c0.01557,-0.2122 0.0607,-0.41706 0.13158,-0.61161c-0.05103,-0.11035 -0.09317,-0.22469 -0.1257,-0.34232c-0.58979,-0.13386 -1.09769,-0.43209 -1.46251,-0.83438c-0.28517,0.0793 -0.58808,0.12015 -0.90036,0.11593c-0.43418,0.20029 -0.9302,0.30563 -1.44992,0.28574c-0.11724,-0.00449 -0.23234,-0.01522 -0.34492,-0.03182c-0.53947,0.41227 -1.24921,0.65129 -2.00965,0.62218c-0.33716,-0.01291 -0.6567,-0.07747 -0.94945,-0.18466c-0.3068,0.08425 -0.63401,0.12404 -0.97117,0.11114c-0.69765,-0.02671 -1.31983,-0.27456 -1.78544,-0.66369c-0.38729,0.14854 -0.81623,0.22385 -1.26265,0.20677c-0.79651,-0.03049 -1.49463,-0.34926 -1.9737,-0.83739c-0.38501,0.14635 -0.81089,0.22042 -1.254,0.20346c-0.09726,-0.00372 -0.19304,-0.01174 -0.28716,-0.02385c-0.09534,0.00486 -0.19178,0.00552 -0.28904,0.00179c-0.37529,-0.01437 -0.72876,-0.09274 -1.04775,-0.22265c-0.09379,0.00464 -0.18862,0.00521 -0.28423,0.00155c-0.37348,-0.01429 -0.72532,-0.09199 -1.0431,-0.22077c-0.33486,0.10382 -0.69611,0.1542 -1.06959,0.1399c-0.76824,-0.02941 -1.44495,-0.32699 -1.92187,-0.78606c-0.42614,0.20805 -0.91527,0.32349 -1.42979,0.31652c-0.04768,0.022 -0.09611,0.04285 -0.14525,0.06252c-0.55021,0.46142 -1.30158,0.73372 -2.11028,0.70276c-0.15418,-0.0059 -0.30467,-0.02261 -0.4506,-0.04924c-0.24306,0.3165 -0.56381,0.58216 -0.93594,0.77612c0.51377,0.47594 0.80799,1.1347 0.75541,1.85088c-0.00239,0.03252 -0.00547,0.06485 -0.00923,0.09701c0.21833,0.37921 0.32746,0.81522 0.2937,1.27488c-0.03271,0.4455 -0.1956,0.85865 -0.45383,1.21181c0.65392,0.48138 1.04542,1.22377 0.98542,2.04091c-0.03271,0.4455 -0.19561,0.85865 -0.45384,1.21181c0.65392,0.48138 1.04542,1.22376 0.98543,2.0409c-0.04596,0.62594 -0.34894,1.18805 -0.81217,1.60954c0.28573,0.41466 0.43455,0.91019 0.3959,1.43677c-0.10115,1.37785 -1.44772,2.44642 -3.00762,2.3867c-1.55991,-0.05971 -2.74245,-1.22508 -2.64127,-2.60294c0.04596,-0.62594 0.34893,-1.18805 0.81216,-1.60953c-0.28573,-0.41466 -0.43455,-0.9102 -0.3959,-1.43678c0.03271,-0.4455 0.1956,-0.85865 0.45383,-1.21181c-0.65392,-0.48138 -1.04542,-1.22376 -0.98543,-2.0409c0.03271,-0.4455 0.19561,-0.85866 0.45384,-1.21182c-0.65392,-0.48138 -1.04542,-1.22376 -0.98543,-2.0409c0.00239,-0.03252 0.00548,-0.06485 0.00923,-0.09701c-0.21833,-0.37921 -0.32746,-0.81522 -0.29371,-1.27488c0.01538,-0.20952 0.05957,-0.41188 0.12892,-0.60422c-0.60379,-0.48183 -0.9598,-1.19533 -0.90238,-1.97725c0.07049,-0.96008 0.74567,-1.76999 1.67635,-2.15268c0.46493,-0.94245 1.55485,-1.58647 2.77537,-1.53975c0.15418,0.0059 0.30467,0.02261 0.4506,0.04924c0.3015,-0.39259 0.72252,-0.70697 1.21287,-0.90327c0.5319,-0.44606 1.25178,-0.71539 2.02973,-0.70487c0.43418,-0.20029 0.9302,-0.30563 1.44992,-0.28574c0.76824,0.02941 1.44495,0.32699 1.92187,0.78606c0.44833,-0.21886 0.96636,-0.33525 1.51034,-0.31442c0.37348,0.01429 0.72533,0.09199 1.04311,0.22077c0.33486,-0.10382 0.69611,-0.1542 1.06959,-0.1399c0.37529,0.01437 0.72875,0.09274 1.04775,0.22265c0.09379,-0.00464 0.18862,-0.00521 0.28423,-0.00155c0.09726,0.00372 0.19304,0.01174 0.28716,0.02384c0.09534,-0.00486 0.19177,-0.00551 0.28903,-0.00178c0.79651,0.03049 1.49464,0.34925 1.9737,0.83738c0.38501,-0.14635 0.81089,-0.22041 1.254,-0.20345c0.69765,0.02671 1.31983,0.27456 1.78544,0.66369c0.38729,-0.14854 0.81623,-0.22385 1.26266,-0.20677c0.33716,0.01291 0.65671,0.07747 0.94946,0.18466c0.3068,-0.08425 0.63401,-0.12404 0.97117,-0.11114c0.11724,0.00449 0.23234,0.01522 0.34492,0.03182c0.52037,-0.39768 1.19918,-0.63416 1.92909,-0.62428c0.43418,-0.20029 0.9302,-0.30563 1.44992,-0.28574c0.83538,0.03198 1.56254,0.38106 2.04226,0.91006c0.30962,-0.08608 0.64018,-0.12688 0.98091,-0.11383c1.26611,0.04846 2.28363,0.82534 2.5679,1.85302c1.26241,0.28651 2.1497,1.32616 2.06151,2.52725c-0.01557,0.2122 -0.0607,0.41706 -0.13158,0.61161c0.15445,0.33402 0.22754,0.70472 0.19909,1.09224c-0.05123,0.69771 -0.4218,1.31613 -0.97771,1.74888c0.48942,0.47277 0.76737,1.11601 0.71614,1.81372c-0.03632,0.49464 -0.23313,0.94942 -0.54272,1.32646c0.13878,0.3206 0.20329,0.67336 0.17628,1.04125c-0.06219,0.8471 -0.59512,1.5773 -1.35896,2.00027c0.02511,0.16239 0.03227,0.32973 0.01974,0.50031c-0.04878,0.66436 -0.3871,1.25681 -0.89927,1.68556c-0.00029,0.05007 -0.00227,0.10046 -0.006,0.15116c-0.10115,1.37785 -1.44773,2.44641 -3.00762,2.3867c-1.5599,-0.05971 -2.74245,-1.22508 -2.64127,-2.60294z" fill="#ffffff" fill-rule="nonzero" stroke="#001026" stroke-width="1.2" stroke-linecap="butt" stroke-linejoin="miter"/><g fill-rule="nonzero" stroke-linecap="butt" stroke-linejoin="miter"><g><path d="M195.94708,153.63095c-0.23804,-3.10294 2.46111,-6.06695 6.02874,-6.6203c3.56762,-0.55334 6.65272,1.5135 6.89076,4.61644c0.23804,3.10294 -2.46111,6.06695 -6.02874,6.6203c-3.56762,0.55334 -6.65272,-1.5135 -6.89075,-4.61644z" fill="#ffffff" stroke="#001026" stroke-width="1.2"/><path d="M217.8153,117.54528c0.49033,1.00264 -0.70805,1.54808 -0.70805,1.54808l-0.75379,0.29989c-2.40653,1.83298 -4.23646,4.42093 -5.9193,6.77246c-1.46988,7.8639 -8.25935,14.59998 -7.55998,22.77506c0,0 0.0862,1.12367 -1.20575,1.32406c-1.29195,0.20038 -1.37815,-0.92328 -1.37815,-0.92328c-0.59671,-8.56726 5.97663,-15.57183 7.73669,-23.7798c1.85931,-2.75281 3.99207,-5.67794 6.74977,-7.81608l1.34985,-0.65758c0,0 1.1984,-0.54543 1.68871,0.45722z" fill="#001026" stroke="none" stroke-width="0.5"/></g><g stroke="#001026" stroke-width="1.2"><path d="M220.07695,156.76158c-1.47684,-0.88652 -3.6589,-1.25509 -4.71047,-2.45397c-0.16037,-0.18284 -0.29446,-0.38499 -0.39573,-0.61122c-0.19324,-0.43169 -0.30556,-0.9296 -0.35489,-1.47481c-0.01928,-0.17657 -0.02894,-0.35601 -0.02861,-0.53787c-0.06142,-3.24994 1.71414,-7.82416 2.06042,-10.28146c0.25671,-1.82169 0.43846,-4.17183 0.15329,-5.91528c-0.82144,-5.02181 -5.6031,-19.11971 1.87446,-22.3562c6.26865,-2.71324 11.13381,3.48642 14.19525,6.42528c5.094,4.89007 12.04423,11.80002 19.31827,14.37102c3.31583,1.17197 8.47062,4.42017 6.85839,8.39164c-4.73899,11.67372 -19.93465,1.7841 -29.18354,4.2713c-3.77199,1.01436 -0.60588,6.19784 -3.78711,7.57475z" fill="#ff0000"/><path d="M264.61659,143.16438c3.5339,0.13527 5.95757,2.7977 5.4134,5.94668c-0.54416,3.14898 -3.85008,5.5921 -7.38398,5.45681c-2.50822,-0.09601 -4.45715,-1.46508 -5.1826,-3.37763c-0.68849,0.17576 -1.40908,0.25792 -2.13939,0.22997c-2.69002,-0.10297 -4.73672,-1.67024 -5.32082,-3.80181c-1.35986,1.88694 -3.79338,3.13433 -6.34584,3.03662c-2.27739,-0.08718 -4.0937,-1.22389 -4.95176,-2.864c-1.38764,1.19287 -3.27845,1.91175 -5.23944,1.83669c-0.62464,-0.02391 -1.21461,-0.12679 -1.75961,-0.29733c-0.01197,0.17857 -0.03352,0.35918 -0.06501,0.5414c-0.54416,3.14898 -3.85008,5.59209 -7.38398,5.4568c-0.028,-0.00107 -0.05594,-0.0023 -0.0838,-0.00369c-0.975,2.6755 -3.96086,4.62785 -7.13008,4.50654c-3.5339,-0.13527 -5.95756,-2.7977 -5.4134,-5.94668c0.54416,-3.14898 3.85008,-5.59209 7.38398,-5.4568c0.028,0.00107 0.05595,0.0023 0.0838,0.00369c0.97499,-2.67549 3.96086,-4.62784 7.13007,-4.50653c0.62464,0.02391 1.21461,0.12679 1.7596,0.29734c0.01197,-0.17857 0.03352,-0.35918 0.06501,-0.5414c0.54416,-3.14898 3.85008,-5.59209 7.38398,-5.4568c2.27739,0.08718 4.0937,1.22389 4.95176,2.864c1.38764,-1.19287 3.27845,-1.91175 5.23943,-1.83669c2.69002,0.10297 4.73673,1.67025 5.32082,3.80182c1.35986,-1.88694 3.79338,-3.13434 6.34584,-3.03663c2.50822,0.09601 4.45714,1.46508 5.18259,3.37763c0.68849,-0.17576 1.40907,-0.25792 2.13939,-0.22997z" fill="#ffffff"/></g></g></g><path d="M255.0287,181.30956c0,0 -6.14865,0.74159 -8.64632,-0.04331c-2.58951,-0.81376 -6.62517,-4.75582 -6.62517,-4.75582" fill="none" fill-rule="nonzero" stroke="#001026" stroke-width="1.2" stroke-linecap="round" stroke-linejoin="miter"/></g></g></svg>