<svg version="1.1" xmlns="http://www.w3.org/2000/svg" xmlns:xlink="http://www.w3.org/1999/xlink" width="198.39063" height="129.63182" viewBox="0,0,198.39063,129.63182"><g transform="translate(-146.47114,-98.08473)"><g data-paper-data="{&quot;isPaintingLayer&quot;:true}" fill-rule="nonzero" stroke="none" stroke-width="0.5" stroke-linecap="butt" stroke-linejoin="miter" stroke-miterlimit="10" stroke-dasharray="" stroke-dashoffset="0" style="mix-blend-mode: normal"><path d="M242.05524,206.93931c0,-2.5 2.5,-2.5 2.5,-2.5l2.84956,0.01217c5.79752,1.14622 11.65897,1.68093 17.51637,2.27814c0.74074,-2.0181 2.92558,-1.47189 2.92558,-1.47189l2.87784,0.72151c4.12314,0.68694 8.24952,1.34833 12.3923,1.75868c2.77017,-0.06288 5.55071,-0.00665 8.32146,0.02717c0.01134,-0.43177 0.0848,-0.87165 0.23149,-1.31641c0.47646,-1.44465 2.20646,-2.14165 3.52849,-2.89415c1.89607,-1.07923 5.60789,-1.16826 7.52634,-1.33711c2.14914,-0.18915 4.37561,-0.40089 6.58646,-0.45299c-0.04049,-1.3053 1.16908,-2.11168 1.16908,-2.11168c5.22885,-3.41271 12.08986,-3.85427 17.58277,-0.41456c4.03435,2.52635 5.5948,6.76798 2.078,9.93928c3.8535,0.43948 7.57522,1.41585 11.19486,3.00938l0.14218,0.16885l0.03918,-0.05877l2.19906,1.46604c0.68925,0.44514 1.14551,1.2201 1.14551,2.10163c0,1.21151 -0.86176,2.22174 -2.00574,2.45115l-3.29892,0.73309l-0.00806,-0.03627c-0.08665,0.02825 -0.1738,0.05524 -0.26147,0.08088c-1.27709,0.37343 -2.66111,0.01268 -3.99167,0.01493c-0.20425,0.00035 -9.35731,0.00599 -9.60266,-0.01873c-2.84534,-0.28669 -5.72117,-1.18145 -8.59284,-1.69904c-2.31804,0.39118 -4.70776,0.45233 -6.52925,0.59474l-2.42307,0.00736c0,0 -2.5,0 -2.5,-2.5c0,-2.5 2.5,-2.5 2.5,-2.5l2.03959,0.00736c0.25896,-0.01957 0.51203,-0.03686 0.76016,-0.05277c0.01955,-0.06283 0.04146,-0.12677 0.06587,-0.19185c0.87781,-2.34082 3.21863,-1.46301 3.21863,-1.46301l2.5848,0.98687c0.28039,-0.0701 0.5653,-0.14939 0.8564,-0.23946c0.08156,-0.02523 0.16173,-0.05023 0.24037,-0.07508c-0.72293,-0.15642 -1.58992,-0.63725 -1.81892,-2.01127c-0.16692,-1.00151 0.1407,-1.66407 0.56493,-2.0978c-0.66117,-0.30839 -1.36015,-0.54088 -2.06526,-0.72567c-3.51454,-0.92102 -7.92614,-0.23268 -11.43601,0.06849c-0.22576,0.01937 -6.09987,0.21548 -6.79579,0.97517c-0.14324,0.15636 0.33887,0.2553 0.50171,0.39112c0.51457,0.42918 0.91451,1.03913 1.53018,1.30358c1.49676,0.6429 3.24059,0.33841 4.85701,0.54041c0,0 2.48069,0.31009 2.17061,2.79078c-0.31009,2.48069 -2.79078,2.17061 -2.79078,2.17061c-0.69214,-0.08654 -5.79337,-0.67646 -6.29963,-0.94714c-0.74283,-0.39717 -1.55691,-0.95638 -2.30426,-1.63724c-0.53362,-0.00138 -1.0681,-0.00567 -1.60325,-0.01171c-0.66608,0.38407 -1.38319,0.38407 -1.38319,0.38407c-0.05951,0 -0.11902,-0.00008 -0.17852,-0.00023c-0.46676,2.0926 -2.70077,1.84438 -2.70077,1.84438c-4.48566,-0.50379 -8.97245,-0.3566 -13.48378,-0.3566h-3.71888c0,0 -1.03503,0 -1.77313,-0.66598c-6.09629,0.10916 -12.20674,0.29409 -18.30882,0.29409h-1.48755c0,0 -2.5,0 -2.5,-2.5c0,-1.17605 0.55324,-1.79887 1.13921,-2.12869c-0.37262,-0.07011 -0.74492,-0.14272 -1.11688,-0.21802l-2.35687,0.01217c0,0 -2.5,0 -2.5,-2.5zM329.15656,214.07987c-0.57311,-0.05474 -1.14782,-0.09629 -1.72325,-0.12543c0.56916,0.0562 1.14293,0.0993 1.72325,0.12543zM323.36692,206.33103c1.34974,-0.19446 3.36903,0.1082 3.93059,-1.13449c0.34864,-0.77152 -1.13543,-1.30161 -1.87554,-1.71275c-0.85528,-0.47513 -1.73525,-0.94255 -2.67991,-1.19725c-2.45103,-0.66084 -4.73815,-0.60892 -6.8807,0.17029c2.49678,0.7379 5.36326,2.08919 7.25171,3.90993c0.08465,-0.01165 0.16927,-0.02354 0.25385,-0.03573z" fill="#9966ff"></path><path d="M192.47848,145.71836c-2,-1.5 -0.5,-3.5 -0.5,-3.5l1.06758,-1.42121c2.78841,-3.89816 3.36813,-5.82208 2.97584,-10.5802c-0.32721,-0.70888 -2.00488,-4.82904 -3.0544,-5.6135c-0.73658,-0.55055 -5.09315,-0.33392 -5.19783,-0.32905c-4.81195,0.22358 -8.63663,2.04739 -12.17452,5.28708c-2.96616,2.71616 -5.40004,7.9977 -1.27576,11.0707c3.09203,2.30387 7.39042,2.37495 10.96822,3.26404c0,0 2.42536,0.60634 1.81902,3.0317c-0.60634,2.42536 -3.0317,1.81902 -3.0317,1.81902c-4.27657,-1.07623 -9.21882,-1.24262 -12.83261,-4.17372c-5.19389,-4.2127 -5.11778,-11.61904 -1.1386,-16.57156c4.26658,-5.31023 10.73462,-8.39667 17.43936,-8.72211c2.20362,-0.10696 6.20632,-0.22717 8.19014,1.1585c2.57174,1.79632 3.95492,5.90997 5.12713,8.51825c0.53411,6.36283 -0.09603,9.44068 -3.71814,14.70818l-1.16374,1.5539c0,0 -1.5,2 -3.5,0.5z" fill="#9966ff"></path><path d="M226.74332,163.93973c-1.62698,1.89814 -3.52512,0.27116 -3.52512,0.27116l-2.48585,-2.13671c-5.52136,-3.67155 -11.15199,-7.20714 -17.08716,-10.16955c0,0 -2.23607,-1.11803 -1.11803,-3.3541c1.11803,-2.23607 3.3541,-1.11803 3.3541,-1.11803c6.20929,3.10976 12.09884,6.79944 17.87031,10.65617l2.72058,2.32594c0,0 1.89814,1.62698 0.27116,3.52512z" fill="#9966ff"></path><path d="M246.04753,147.81149c-1.11803,2.23607 -3.3541,1.11803 -3.3541,1.11803l0.0207,-0.13308c-4.82295,-0.69232 -9.63819,-2.02063 -14.45554,-2.59682c-5.04856,-0.60385 -10.59364,0.01873 -15.68572,0.01873c0,0 -2.5,0 -2.5,-2.5c0,-2.5 2.5,-2.5 2.5,-2.5c5.30866,0 11.02819,-0.59215 16.29664,0.01873c4.8516,0.56255 9.69788,1.9198 14.55173,2.60961l1.50826,0.61069c0,0 2.23607,1.11803 1.11803,3.3541z" fill="#9966ff"></path><path d="M201.3979,181.89448c-2.47487,0.35355 -2.82843,-2.12132 -2.82843,-2.12132l-0.37189,-2.60322c-0.97531,-6.9382 1.05308,-13.24511 -0.69426,-20.20105c0,0 -0.60634,-2.42536 1.81902,-3.0317c2.42536,-0.60634 3.0317,1.81902 3.0317,1.81902c0.97261,3.9077 1.66944,7.98346 1.17538,12.03577c-0.3959,3.24721 -0.85953,5.38892 -0.38209,8.67085l0.37189,2.60322c0,0 0.35355,2.47487 -2.12132,2.82843z" fill="#9966ff"></path><path d="M220.75441,198.28267c-2.5,0 -2.5,-2.5 -2.5,-2.5l0.02513,-1.46922c0.73368,-5.09197 2.42387,-9.94628 3.36437,-14.98101c0.54923,-2.94019 0.79261,-5.77949 1.51969,-8.70071c0,0 0.60634,-2.42536 3.0317,-1.81902c0.61379,0.15345 1.03342,0.4234 1.31784,0.74106c-0.14227,-0.30729 -0.28915,-0.61291 -0.44137,-0.91654c0,0 -1.11803,-2.23607 1.11803,-3.3541c2.23607,-1.11803 3.3541,1.11803 3.3541,1.11803c2.78518,5.58423 3.58855,12.80847 8.08512,17.20089l0.84019,1.39351c0,0 1.11803,2.23607 -1.11803,3.3541c-2.23607,1.11803 -3.3541,-1.11803 -3.3541,-1.11803l0.09641,-0.09404c-4.44993,-4.53147 -5.63053,-10.65325 -8.03941,-16.35894c0.08016,0.58606 -0.03977,1.06577 -0.03977,1.06577c-0.71,2.82643 -0.91932,5.55651 -1.45541,8.40613c-0.93404,4.96492 -2.61896,9.74785 -3.32961,14.77002l0.02513,0.76211c0,0 0,2.5 -2.5,2.5z" fill="#9966ff"></path><path d="M187.08318,227.30555c-2.14373,1.28624 -3.42997,-0.85749 -3.42997,-0.85749l-1.29312,-2.2172c-2.07978,-5.20343 -3.63118,-10.55766 -5.61633,-15.79376c-4.31014,-13.82252 -10.80963,-26.98288 -16.02549,-40.4874c-5.10432,-13.21574 -8.33043,-27.01378 -14.02652,-39.95945c0,0 -1.00685,-2.28829 1.28144,-3.29513c2.28829,-1.00685 3.29513,1.28144 3.29513,1.28144c5.72975,13.02215 8.98114,26.88168 14.11415,40.17169c5.23843,13.56296 11.74145,26.77909 16.08734,40.65655c1.95539,5.16234 3.47994,10.4414 5.53266,15.56912l0.9382,1.50168c0,0 1.28624,2.14373 -0.85749,3.42997z" fill="#e2ff66"></path><path d="M308.05641,166.31185c-1.76777,1.76777 -3.53553,0 -3.53553,0l0.33719,-0.10773c-0.98858,-0.29282 -1.97716,-0.58564 -2.96575,-0.87847c-4.12661,-2.71043 -8.86462,-4.35266 -13.15751,-6.7649c-8.03426,-4.51458 -16.55563,-8.15878 -24.60866,-12.68012c-9.96777,-5.59636 -20.08472,-11.68809 -30.52829,-16.38658c-8.26906,-4.8189 -16.92682,-9.00296 -25.49001,-13.29066c-5.7133,-2.86073 -11.15349,-6.23149 -17.20958,-8.43802c-5.23644,-1.9079 -10.83427,-3.24959 -16.201,-4.7822c0,0 -2.40381,-0.6868 -1.71701,-3.09061c0.6868,-2.40381 3.09061,-1.71701 3.09061,-1.71701c5.47409,1.5648 11.17912,2.94635 16.52515,4.88688c6.2416,2.26561 11.85986,5.72917 17.74789,8.66882c8.58265,4.28497 17.26464,8.48368 25.543,13.31755c10.51486,4.73624 20.71923,10.85455 30.74886,16.50728c8.00082,4.50929 16.49341,8.11068 24.48055,12.60827c4.19137,2.36017 8.88223,3.91681 12.87465,6.62307c0.7469,0.20303 1.49379,0.40606 2.24069,0.60909l1.82474,1.37982c0,0 1.76777,1.76777 0,3.53553z" fill="#e2ff66"></path><path d="M175.11299,119.02255c-2.08013,-1.38675 -0.69338,-3.46688 -0.69338,-3.46688l0.34903,0.62464c-0.11322,-1.00591 0.38965,-2.64506 -0.56421,-2.98391c-0.4567,-0.16224 -0.94002,0.26308 -1.42357,0.29581c-2.62233,0.17751 -4.4547,-0.16073 -6.59656,1.66468c-1.56727,1.33572 -5.23457,4.99974 -0.8412,4.49196c0,0 2.5,0 2.5,2.5c0,2.5 -2.5,2.5 -2.5,2.5c-4.53851,-0.24261 -8.24446,-2.18996 -6.85539,-7.68712c1.51905,-6.01152 8.95347,-8.67899 14.29315,-8.46952c1.26383,0.04958 2.69707,-0.35286 3.78286,0.29581c2.83859,1.69582 2.72276,4.03166 3.15467,6.68518l-1.13852,2.85597c0,0 -1.38675,2.08013 -3.46688,0.69338z" fill="#e2ff66"></path><path d="M192.11904,175.43205c2.5,0 2.5,2.5 2.5,2.5l-0.02513,1.134c0.09381,0.65682 0.78243,5.3597 0.76407,5.77653c-0.06725,1.52665 0.37426,3.4673 -0.7274,4.52633c-1.1464,1.10203 -3.12827,0.75609 -4.71774,0.70807c-4.36388,-0.13185 -7.65967,-3.95778 -9.94087,-7.27317c-2.79976,4.10134 -6.31988,2.92635 -10.43382,1.87719c-5.6096,-3.65751 -10.51748,-7.15396 -13.19292,-13.58798c-0.77136,-1.85501 -2.07524,-6.72484 0.13613,-8.23185c1.20205,-0.81918 8.79862,1.72149 10.78944,1.78707c7.81591,0.25749 14.67288,-1.90232 21.49888,-5.31532c0,0 2.23607,-1.11803 3.3541,1.11803c1.11803,2.23607 -1.11803,3.3541 -1.11803,3.3541c-7.53084,3.76542 -15.27458,6.14554 -23.87145,5.84132c-0.65504,-0.02318 -3.74876,-0.02559 -5.84614,-0.67415c0.31399,0.84969 0.57192,1.73325 1.01913,2.51306c2.29852,4.00799 5.4765,6.01899 9.25364,8.62315c2.95217,0.71397 3.87357,1.40012 4.67015,-1.68447l0,-2.35134c0,0 0,0 0,0c0,-1.38071 1.11929,-2.5 2.5,-2.5c0.94657,0 1.77027,0.52607 2.19469,1.30179l1.42364,2.49137c1.8419,1.89842 2.56419,4.29287 4.66063,6.07068c0.92423,0.78376 2.18475,1.03477 3.29208,1.54064c-0.54019,-1.53896 -0.57966,-4.65612 -0.65794,-5.20394l-0.02513,-1.84111c0,0 0,-2.5 2.5,-2.5z" fill="#ffffff"></path><path d="M221.22951,138.14004c0,-2.5 2.5,-2.5 2.5,-2.5l0.01833,0.02513c2.76906,-0.38925 5.31383,-0.61394 8.0545,-1.09416c0.55033,-0.09643 1.11372,-0.11725 1.67327,-0.1065c-1.86209,-0.45794 -3.59956,-1.17837 -2.90036,-4.6244c0.55143,-2.71775 7.24013,-5.05246 9.72418,-5.05662c-4.17807,-2.291 -7.55886,-6.11235 -11.60385,-8.71587c-1.02074,-0.65699 -2.10838,-1.21411 -3.08521,-1.93476c-0.4168,-0.30749 -0.79206,-0.66776 -1.15274,-1.04194c0.97074,1.88105 0.65239,4.62656 0.65621,6.45473c0.01447,6.93135 -0.19951,13.8545 -6.31968,18.07131c0,0 -2.08013,1.38675 -3.46688,-0.69338c-1.38675,-2.08013 0.69338,-3.46688 0.69338,-3.46688c4.84123,-3.07482 4.73953,-11.74446 4.11191,-16.95259c-0.2688,-2.2306 -2.36179,-5.94187 -0.03027,-8.02343c3.7255,-3.32611 6.05805,-0.05338 8.44032,1.60224c3.4708,2.41212 6.94514,4.44004 10.18861,7.18144c0.44285,0.3743 4.71564,3.89834 4.85343,4.13433c0.84712,1.45088 1.00499,3.20635 1.50749,4.80952c-1.93481,1.67386 -3.98701,3.37779 -6.39342,4.2464c-0.68929,0.2488 -1.3902,0.49967 -2.11265,0.61847c1.0937,0.90325 2.69553,1.757 2.64924,3.12173c-0.06325,1.86499 -1.68538,3.46074 -3.13096,4.64078c-0.87848,0.7171 -2.23282,0.40081 -3.34084,0.64215c-2.8522,0.62124 -5.43821,0.7196 -8.30857,1.13716l-0.72544,0.02513c0,0 -2.5,0 -2.5,-2.5z" fill="#ffffff"></path></g></g></svg>