<svg version="1.1" xmlns="http://www.w3.org/2000/svg" xmlns:xlink="http://www.w3.org/1999/xlink" width="64.53269" height="108.91861" viewBox="0,0,64.53269,108.91861"><g transform="translate(-202.51763,-137.7631)"><g data-paper-data="{&quot;isPaintingLayer&quot;:true}" fill-rule="nonzero" stroke="none" stroke-linecap="butt" stroke-linejoin="miter" stroke-miterlimit="10" stroke-dasharray="" stroke-dashoffset="0" style="mix-blend-mode: normal"><g><path d="M249.01026,194.40862c0.61732,1.22925 1.13174,2.48995 1.74419,3.72093c1.65181,2.47772 1.67665,5.6815 2.07081,8.52823c0.00889,0.06418 0.0077,1.60955 0.00725,1.73193c-0.00135,0.36963 -0.48923,1.00775 -0.13157,1.10107c1.21865,0.31795 3.43831,-2.26402 4.04059,-3.13962c0.9829,-4.7226 -4.03951,-9.39631 -6.63407,-13.07276c-0.38211,0.29077 -0.86182,0.53029 -1.37905,0.70594zM251.07864,192.04346c2.91121,4.37168 8.36917,9.19243 7.04252,14.89644c-0.56562,0.86457 -1.17147,1.48782 -1.90367,2.21271c-0.70066,0.69366 -3.18401,2.32938 -4.28829,1.62442c-1.09908,-0.70164 -0.43833,-2.88918 -0.58944,-3.91119c-0.39167,-2.64906 -0.3427,-5.67343 -1.88268,-7.98339c-0.61732,-1.22925 -1.13174,-2.48995 -1.74419,-3.72093l-0.44047,-0.65809c0,0 -0.05292,-0.07938 -0.0927,-0.20038c-1.74245,0.13232 -3.26653,-0.54648 -2.48077,-2.47652c-2.72072,0.09141 -5.74993,-1.32462 -6.77564,-3.33394l-0.05141,-0.44423c-1.39664,-0.14722 -2.12144,1.95855 -3.42543,2.95368c0.86829,0.12846 1.92086,0.40271 2.40853,0.67993c0.94007,0.53439 1.40769,2.87346 1.95705,1.48508c1.01282,-0.98562 1.52196,-1.21393 2.92161,-1.22499h0.11628c0,0 0.75,0 0.75,0.75c0,0.75 -0.75,0.75 -0.75,0.75h-0.11628c-0.88746,-0.00906 -1.11186,-0.01364 -1.72955,0.63548c-0.63338,0.93188 -0.71066,1.63963 -2.22899,1.01996c-0.75048,-0.30629 -0.8695,-1.59597 -1.55599,-2.04977c0.09225,0.10899 0.1845,0.21799 0.27675,0.32698l0.21093,0.37729c0,0 0.33541,0.67082 -0.33541,1.00623c-0.67082,0.33541 -1.00623,-0.33541 -1.00623,-0.33541l-0.02162,-0.08783c-0.16884,-0.20665 -0.33768,-0.4133 -0.50652,-0.61995c-1.86651,-1.24636 -4.98532,-0.47632 -5.26759,2.1043c-0.32768,2.99569 0.72144,7.46682 2.06006,10.11881c0.36187,1.79547 1.08483,3.51446 1.42142,5.3299c0.32139,1.73346 -0.25977,3.77085 0.18961,5.43932c0.09517,0.35336 1.43373,0.54785 1.67281,0.60002c1.83158,0.39967 3.5362,0.08409 5.00008,-1.02275c0.2962,-5.65418 -2.93149,-10.93551 -2.29726,-16.69866c0,0 0.08282,-0.74541 0.82824,-0.66259c0.74541,0.08282 0.66259,0.82824 0.66259,0.82824c-0.08361,0.74475 -0.09466,1.48815 -0.05246,2.23025c0.08209,0.1051 0.11969,0.19909 0.11969,0.19909l0.16024,0.44391c0.67098,1.01407 1.14841,2.11803 1.57507,3.25577c0.97685,1.94692 2.58437,3.67194 3.16988,5.78012c0.37003,1.33233 0.15542,2.97831 -0.38077,4.24168c-0.22807,0.53739 -1.10445,1.43906 -0.83858,2.13339c0.22214,0.58012 2.46348,0.33027 2.89023,0.30345c0.6266,-0.03938 0.86471,-0.14604 1.47503,-0.32187c3.64739,-1.04211 7.11454,-3.77326 9.37566,-6.70848c1.25246,-1.62586 2.64399,-2.34307 2.63852,-4.54712c0.00831,-3.35075 -1.57421,-6.13417 -2.73968,-9.14671c-0.58179,-1.50381 -1.08905,-3.24079 -2.27321,-4.39272c0,0 -0.53033,-0.53033 0,-1.06066c0.53033,-0.53033 1.06066,0 1.06066,0c2.34522,2.39393 4.32115,7.25718 5.0985,11.32424c0.90259,-1.10229 1.07872,-1.55802 0.23411,-3.20816c-1.69007,-2.5351 -2.24779,-6.09982 -4.01711,-8.40957c-0.99725,-1.30186 -2.07556,-2.21447 -2.9522,-3.50054c-0.82738,0.23618 -1.87541,0.14995 -2.06002,0.82257l0.2581,-0.03256c0,0 0.27854,0.69636 -0.41781,0.9749c-0.69636,0.27854 -0.9749,-0.41781 -0.9749,-0.41781l-0.20702,-1.19535c0.15134,-0.25279 1.59396,-1.1619 2.40276,-1.43827c-0.50228,-0.63263 -1.17016,-1.95599 -1.17758,-1.97383c-0.24665,-0.59333 -2.25527,0.14051 -3.37518,0.64093c1.17865,0.92295 1.66841,2.64161 0.64275,4.12033l0.29109,0.00929c0.3623,0.12552 0.805,0.11666 1.08689,0.37657c0.64339,0.59323 0.88673,1.15634 0.85075,1.66395c0.07026,0.06806 0.10826,0.12506 0.10826,0.12506zM246.3112,191.94528c-1.81875,2.27541 5.18996,-0.15367 2.30946,-0.62511l-0.49163,0.02886c0,0 -0.41304,0 -0.62608,-0.30652c-0.32811,0.20417 -0.68316,0.36591 -1.05711,0.48837c-0.01348,0.23269 -0.13463,0.41441 -0.13463,0.41441zM254.80925,225.25018c-0.02464,2.4128 1.80792,2.9291 3.56072,4.10798c1.84679,0.78916 3.27374,1.60254 5.35066,1.31235c0.49555,-0.06924 2.0835,-0.25069 1.81799,-1.06197c-0.44817,-1.3694 -3.38263,-2.47267 -4.30536,-3.81531c-1.98458,0.50629 -4.84815,0.71711 -6.36717,-0.58898zM262.47399,224.95043c1.035,1.58882 4.1469,2.44034 4.5245,4.31348c0.31156,1.54554 -0.82883,2.36015 -2.15534,2.75492c-2.66486,0.79307 -4.84047,-0.33295 -7.18764,-1.34175c-1.55315,-1.02768 -3.01052,-1.74672 -3.77962,-3.09539c-0.43254,1.69009 -0.8484,3.37015 -1.3048,4.96755l-0.07272,0.292c-0.00177,0.18711 -0.08509,0.33305 -0.17785,0.43784c-0.08365,0.11533 -0.21107,0.23035 -0.39875,0.27082c-0.10906,0.05082 -0.2224,0.10028 -0.33964,0.14824c0.14278,0.73919 0.33241,1.71194 0.68166,2.33449c1.65232,2.94535 5.95556,3.68417 3.74535,7.92506c-0.30356,0.58246 -0.80647,1.10233 -1.39724,1.38937c-0.99836,0.48508 -1.86323,0.59567 -2.91679,0.86016c-7.83172,2.22195 -12.70251,-3.67461 -12.6863,-11.12648c0.16636,-1.12655 0.48266,-1.82619 1.11701,-2.76981l0.88719,-0.76972c0,0 0.1087,-0.09317 0.27182,-0.15061c-0.48166,-1.6801 0.29618,-3.79893 0.5469,-5.43381c0.39296,-0.78592 0.58829,-1.69436 0.68521,-2.62609c-1.60617,3.59807 -7.09415,5.59205 -11.11572,2.28789c-3.25835,-2.18619 -3.35235,-6.96277 0.8544,-7.70885c-0.15442,-0.18415 -0.28912,-0.39293 -0.40092,-0.62836c-0.58332,-1.22834 -0.0968,-3.42779 -0.17222,-4.78042c-0.11667,-2.09243 -1.08482,-4.05322 -1.47256,-6.07826c-1.38752,-2.80031 -2.59502,-7.67607 -2.12599,-10.81143c0.32598,-2.1791 1.86482,-3.47392 3.66005,-3.83109c-0.08732,-0.11584 -0.1474,-0.24751 -0.17401,-0.39771c-0.1467,-0.82797 1.50112,-1.35832 1.97869,-1.65399c1.61316,-0.99876 2.22365,-2.97179 3.77432,-3.21243c-0.25146,-0.81193 -0.36207,-1.70577 -0.39661,-2.43264c-3.57229,0.58706 -7.0542,1.4109 -10.64749,2.02229c-1.41615,0.24095 -3.66456,0.81163 -4.89921,-0.15498c-1.00251,-0.78486 -1.66209,-2.37607 -2.43949,-3.3697c-4.89758,-5.88245 -5.57754,-13.532 -7.36238,-20.68149c-0.47537,-3.80556 -1.67839,-9.41959 2.2623,-11.38993l-0.07864,0.02421c0,0 0.4769,-0.4769 0.97846,-0.07398c2.53183,-0.50283 4.77779,-1.90875 7.2076,-2.77677c3.48853,-1.24623 7.10531,-2.15803 10.69756,-3.05578c6.69229,-1.91619 14.46585,-1.98696 21.41415,-1.98756c1.00405,0.00249 3.72545,-0.71706 4.53133,-0.07371c0.9248,0.73829 1.10099,3.432 1.51649,4.50531c1.39748,3.60995 2.54165,7.36186 4.06677,10.92266c0.99538,2.65751 1.71273,5.66231 1.91259,8.48211c0.0656,0.92554 0.50078,1.91814 0.03899,2.83044c-1.46825,2.90059 -6.22671,4.96385 -9.00263,6.35507c-4.52433,2.26216 -8.80624,4.98 -13.46687,6.74474c0.38349,0.44818 0.76394,0.89902 1.13718,1.35576c0.25038,0.16508 1.12563,0.72921 1.67842,1.16002c0.04572,-0.04143 0.07869,-0.0634 0.07869,-0.0634c1.37125,-0.89179 4.79673,-2.29416 6.14074,-0.62845c0.33558,0.41591 0.02871,1.16984 0.40236,1.55192c0.53803,0.55015 1.61311,-0.30613 1.5986,1.28847c-0.00044,0.04834 -0.00247,0.09493 -0.00602,0.13983c0.88453,1.45769 2.07134,2.34257 3.10893,3.74725c1.80596,2.44489 2.37308,5.94316 4.12242,8.56717c0.56311,1.1457 0.78151,1.98544 0.6763,2.7652c2.5049,-0.29435 3.85272,1.91963 2.47402,4.4801c-0.85366,1.58538 -2.64257,2.47207 -4.38039,2.48579h-0.16655c0.28366,0.18666 0.32937,0.55232 0.32937,0.55232c0.43987,3.56321 1.24057,7.1439 1.74273,10.68667c0.25267,1.78258 0.85759,3.16731 -0.14287,4.42298c0.01591,0.02009 0.02416,0.03246 0.02416,0.03246zM241.24849,233.30572c-0.42322,0.64292 -0.63951,1.1164 -0.74345,1.88135c0.016,6.45306 3.9828,11.53454 10.80207,9.57119c0.88384,-0.22013 2.47338,-0.28231 3.15204,-0.96865c2.74843,-2.77954 -2.37185,-5.12865 -3.48817,-6.9963c-0.41205,-0.68939 -0.65065,-1.77796 -0.82418,-2.63351c-2.77222,0.6875 -6.49654,0.57822 -8.17366,-1.46616zM244.11158,220.1339v0.23256c0,1.93065 0.0279,4.28564 -0.84807,6.03758c-0.18348,1.42441 -0.9714,3.34062 -0.47039,4.76907c0.91163,2.59922 6.10041,2.0295 8.30047,1.10445l0.03522,-0.14039c1.19626,-4.18692 2.13214,-8.89797 3.76858,-12.94005c-0.28971,-0.50449 0.1854,-0.91172 0.1854,-0.91172c1.12642,-0.95977 2.45568,-1.79026 3.81225,-2.41295c0.10119,-0.16972 0.28725,-0.32574 0.62933,-0.32574c0.75,0 0.75,0.75 0.75,0.75l-0.45456,0.80564c-1.13575,0.48159 -2.2788,1.14722 -3.26859,1.9185c-0.01442,0.14306 -0.05842,0.24572 -0.05842,0.24572c-0.43458,1.00903 -0.81887,2.06808 -1.16973,3.15573c0.36144,0.24279 0.2926,0.72467 0.2926,0.72467l-0.11048,0.65678c0.20605,1.29493 4.41573,0.82519 5.44857,0.53317c1.26076,-0.78615 0.32315,-2.45452 0.15344,-3.63384c-0.49572,-3.44478 -1.24872,-6.92836 -1.70522,-10.39547c-0.48001,0.58983 -1.04234,1.17399 -1.60536,1.90711c-2.45012,3.19034 -6.21154,6.11709 -10.15923,7.245c-0.79632,0.22585 -2.24499,0.53614 -3.55211,0.48573c0.0263,0.10811 0.0263,0.18847 0.0263,0.18847zM233.13363,219.21751l-0.47994,0.14723c-3.07759,0.43256 -2.58557,3.57522 -0.35502,5.05193c4.66622,3.95292 12.29082,-1.26318 7.82406,-6.34702c0,0 -0.0766,-0.08755 -0.13499,-0.22385c-1.77171,0.94154 -4.50249,1.63979 -6.38948,0.96893c-0.13621,0.29332 -0.46462,0.40279 -0.46462,0.40279zM241.25159,217.08188c0.04812,0.0552 0.09513,0.11044 0.14106,0.16572c0.27318,-1.43528 1.41337,-3.00254 1.33666,-4.39268c-0.1092,-1.97884 -1.63693,-3.76415 -2.70496,-5.50295c0.82301,3.23947 1.77247,6.45615 1.20399,9.65447c-0.00912,0.00837 -0.01835,0.01675 -0.02768,0.02513c0.03298,0.0298 0.05094,0.05032 0.05094,0.05032zM260.73949,206.76181c-0.00079,0.36173 -0.02901,0.69076 -0.08093,0.99419h0.02861c2.8246,0.02884 4.95968,-4.83721 1.60139,-3.87769c0,0 -0.16805,0.04801 -0.36508,0.01656c-0.21179,0.31879 -0.47102,0.65436 -0.77642,1.0215l0.01907,0.10587c0,0 -0.13039,0.39117 -0.48785,0.49675c0.03951,0.435 0.06037,0.85106 0.06122,1.24282zM247.52324,188.99404c0.62467,-0.78568 0.2151,-1.8143 -0.51169,-2.22906c-0.65831,1.81033 -4.428,2.47026 -6.83941,2.16707c1.92877,1.60031 5.76259,2.05994 7.35111,0.06199zM241.438,187.40904c1.14108,0.07094 2.20672,-0.16111 3.27959,-0.53226c0.06635,-0.02295 0.72587,-0.44443 0.87649,-0.6842c-0.02699,-0.05516 -0.04807,-0.11815 -0.06102,-0.19007c-0.42288,-0.34645 -1.25807,-0.79841 -1.74254,-1.1247c-0.44738,-0.52857 -0.89655,-1.05563 -1.34723,-1.5814l-0.07717,-0.07404c0,0 -0.11663,-0.11663 -0.1858,-0.29519c-1.05274,0.34376 -2.1273,0.63338 -3.23046,0.85351c-0.17885,0.02387 -0.35738,0.04853 -0.53563,0.07392c0.02388,2.35659 0.69282,3.40952 3.02377,3.55443zM223.50905,153.61786c5.26611,-2.30605 11.21441,-2.7942 16.73983,-4.09638c4.90392,-0.90156 9.81649,-1.93827 14.71272,-2.9143c1.23914,-0.24701 2.53407,-0.49501 3.45862,-0.10237c-0.19643,-1.00041 -0.34598,-2.15612 -0.75275,-2.75651c-0.21431,-0.31631 -0.73208,0.24602 -1.11318,0.27324c-0.82767,0.05912 -1.66375,0.11636 -2.49503,0.11817c-6.80079,-0.0006 -14.47991,0.03156 -21.02426,1.936c-3.55413,0.88883 -7.13317,1.78822 -10.58496,3.02067c-2.71607,0.96976 -5.16877,2.52746 -8.05215,2.94277c0,0 -0.08987,0.01284 -0.21155,-0.00169c-2.64604,1.73135 -1.49612,6.69214 -1.13401,9.58662c1.7242,6.88692 2.33151,14.35186 7.05623,20.01619c0.73018,0.94368 1.33383,2.32495 2.21167,3.14192c0.76007,0.70736 3.59334,-0.13285 4.53969,-0.32212c0.66318,-0.13264 1.32329,-0.26629 1.98156,-0.39941c-0.53525,-0.60275 -0.87268,-1.52504 -1.17886,-2.14325c-0.87392,-3.03893 -2.44567,-5.78313 -3.28306,-8.8055c-1.01133,-3.65016 -1.74646,-7.38827 -2.79143,-11.04938c-0.66378,-2.98701 -2.56192,-7.34328 1.33488,-8.46373l0.32232,-0.02886c0,0 0.11986,0 0.26375,0.04792z" fill="#000000" stroke-width="0.5"/><path d="M244.06249,220.12443c0,0 0.00022,-0.08143 -0.02608,-0.18954c1.30712,0.05041 2.75987,-0.27154 3.55619,-0.49739c3.94769,-1.12791 7.77963,-4.07531 10.22975,-7.26565c0.56302,-0.73312 1.12659,-1.31651 1.6066,-1.90634c0.4565,3.46711 1.23223,6.98738 1.72795,10.43216c0.16971,1.17932 1.1055,2.86749 -0.15526,3.65364c-1.03284,0.29202 -5.24803,0.77391 -5.45408,-0.52102l0.02198,-0.70263c0,0 0.06624,-0.47382 -0.2952,-0.71661c0.35086,-1.08765 0.74009,-2.11129 1.17467,-3.12032c0,0 0.0449,-0.10109 0.05932,-0.24415c0.98979,-0.77128 2.13274,-1.43708 3.26849,-1.91867l0.45581,-0.80364c0,0 0.00322,-0.74565 -0.74678,-0.74565c-0.34208,0 -0.5276,0.15666 -0.62879,0.32638c-1.35657,0.62269 -2.68076,1.4583 -3.80718,2.41807c0,0 -0.40491,0.33628 -0.1152,0.84077c-1.63644,4.04208 -2.61431,8.83621 -3.81057,13.02313l-0.03532,0.14038c-2.20006,0.92505 -7.41908,1.48067 -8.33071,-1.11855c-0.50101,-1.42845 0.27783,-3.3568 0.46131,-4.78121c0.87597,-1.75194 0.84284,-4.13857 0.84284,-6.06922l0.00025,-0.23395z" data-paper-data="{&quot;noHover&quot;:false,&quot;origItem&quot;:[&quot;Path&quot;,{&quot;applyMatrix&quot;:true,&quot;segments&quot;:[[244.11158,220.1339],[[244.11158,220.36646],[0,0],[0,1.93065]],[[243.26351,226.40404],[0.87597,-1.75194],[-0.18348,1.42441]],[[242.79312,231.17311],[-0.50101,-1.42845],[0.91163,2.59922]],[[251.09359,232.27756],[-2.20006,0.92505],[0,0]],[[251.12881,232.13717],[0,0],[1.19626,-4.18692]],[[254.89739,219.19712],[-1.63644,4.04208],[-0.28971,-0.50449]],[[255.08279,218.2854],[0,0],[1.12642,-0.95977]],[[258.89504,215.87245],[-1.35657,0.62269],[0.10119,-0.16972]],[[259.52437,215.54671],[-0.34208,0],[0.75,0]],[260.27437,216.29671],[[259.81981,217.10235],[0,0],[-1.13575,0.48159]],[[256.55122,219.02085],[0.98979,-0.77128],[-0.01442,0.14306]],[[256.4928,219.26657],[0,0],[-0.43458,1.00903]],[[255.32307,222.4223],[0.35086,-1.08765],[0.36144,0.24279]],[255.61567,223.14697],[[255.50519,223.80375],[0,0],[0.20605,1.29493]],[[260.95376,224.33692],[-1.03284,0.29202],[1.26076,-0.78615]],[[261.1072,220.70308],[0.16971,1.17932],[-0.49572,-3.44478]],[[259.40198,210.30761],[0.4565,3.46711],[-0.48001,0.58983]],[[257.79662,212.21472],[0.56302,-0.73312],[-2.45012,3.19034]],[[247.63739,219.45972],[3.94769,-1.12791],[-0.79632,0.22585]],[[244.08528,219.94545],[1.30712,0.05041],[0.0263,0.10811]],[244.11158,220.13392]],&quot;closed&quot;:true,&quot;fillColor&quot;:[0,0,0,1]}]}" fill="#1f1f1f" stroke-width="0.5"/><path d="M238.3673,183.83736c0.17825,-0.02539 0.35822,-0.05355 0.53707,-0.07742c1.10316,-0.22013 2.22712,-0.53884 3.27986,-0.8826c0.06917,0.17856 0.19101,0.29588 0.19101,0.29588l0.07944,0.07452c0.45068,0.52577 0.93779,1.09333 1.38517,1.6219c0.48447,0.32629 1.31901,0.79786 1.74189,1.14431c0.01295,0.07192 0.03346,0.13713 0.06045,0.19229c-0.15062,0.23977 -0.81589,0.67418 -0.88224,0.69713c-1.07287,0.37115 -2.19315,0.6251 -3.33423,0.55416c-2.33095,-0.14491 -3.03454,-1.26356 -3.05842,-3.62015z" data-paper-data="{&quot;noHover&quot;:false,&quot;origItem&quot;:[&quot;Path&quot;,{&quot;applyMatrix&quot;:true,&quot;segments&quot;:[[[241.438,187.40904],[-2.33095,-0.14491],[1.14108,0.07094]],[[244.71759,186.87678],[-1.07287,0.37115],[0.06635,-0.02295]],[[245.59408,186.19258],[-0.15062,0.23977],[-0.02699,-0.05516]],[[245.53306,186.00251],[0.01295,0.07192],[-0.42288,-0.34645]],[[243.79052,184.87781],[0.48447,0.32629],[-0.44738,-0.52857]],[[242.44329,183.29641],[0.45068,0.52577],[0,0]],[242.36612,183.22237],[[242.18032,182.92718],[0.06917,0.17856],[-1.05274,0.34376]],[[238.94986,183.78069],[1.10316,-0.22013],[-0.17885,0.02387]],[[238.41423,183.85461],[0.17825,-0.02539],[0.02388,2.35659]]],&quot;closed&quot;:true,&quot;fillColor&quot;:[0,0,0,1]}]}" fill="#151515" stroke-width="0.5"/><path d="M223.54626,153.65129c-0.14389,-0.04792 -0.26346,-0.04824 -0.26346,-0.04824l-0.32185,0.02832c-3.8968,1.12045 -1.98727,5.45231 -1.32349,8.43932c1.04497,3.66111 1.77,7.36005 2.78133,11.01021c0.83739,3.02237 2.3902,5.75187 3.26412,8.7908c0.30618,0.61821 0.63924,1.5388 1.17449,2.14155c-0.65827,0.13312 -1.35395,0.36014 -2.01713,0.49278c-0.94635,0.18927 -3.78701,1.02556 -4.54708,0.3182c-0.87784,-0.81697 -1.48764,-2.20291 -2.21782,-3.14659c-4.72472,-5.66433 -5.34846,-13.17271 -7.07266,-20.05963c-0.36211,-2.89448 -1.50566,-7.87428 1.14038,-9.60563c0.12168,0.01453 0.21166,0.0015 0.21166,0.0015c2.88338,-0.41531 5.34681,-1.98582 8.06288,-2.95558c3.45179,-1.23245 7.0567,-2.14335 10.61083,-3.03218c6.54435,-1.90444 14.26389,-1.92383 21.06468,-1.92323c0.83128,-0.00181 1.6695,-0.05696 2.49717,-0.11608c0.3811,-0.02722 0.89952,-0.58886 1.11383,-0.27255c0.40677,0.60039 0.55914,1.75942 0.75557,2.75983c-0.92455,-0.39264 -2.29594,-0.0803 -3.53508,0.16671c-4.89623,0.97603 -9.78719,2.02667 -14.69111,2.92823c-5.52542,1.30218 -11.42116,1.77618 -16.68727,4.08223z" data-paper-data="{&quot;noHover&quot;:false,&quot;origItem&quot;:[&quot;Path&quot;,{&quot;applyMatrix&quot;:true,&quot;segments&quot;:[[[223.50905,153.61786],[0,0],[5.26611,-2.30605]],[[240.24888,149.52148],[-5.52542,1.30218],[4.90392,-0.90156]],[[254.9616,146.60718],[-4.89623,0.97603],[1.23914,-0.24701]],[[258.42022,146.50481],[-0.92455,-0.39264],[-0.19643,-1.00041]],[[257.66747,143.7483],[0.40677,0.60039],[-0.21431,-0.31631]],[[256.55429,144.02154],[0.3811,-0.02722],[-0.82767,0.05912]],[[254.05926,144.13971],[0.83128,-0.00181],[-6.80079,-0.0006]],[[233.035,146.07571],[6.54435,-1.90444],[-3.55413,0.88883]],[[222.45004,149.09638],[3.45179,-1.23245],[-2.71607,0.96976]],[[214.39789,152.03915],[2.88338,-0.41531],[0,0]],[[214.18634,152.03746],[0.12168,0.01453],[-2.64604,1.73135]],[[213.05233,161.62408],[-0.36211,-2.89448],[1.7242,6.88692]],[[220.10856,181.64027],[-4.72472,-5.66433],[0.73018,0.94368]],[[222.32023,184.78219],[-0.87784,-0.81697],[0.76007,0.70736]],[[226.85992,184.46007],[-0.94635,0.18927],[0.66318,-0.13264]],[[228.84148,184.06066],[-0.65827,0.13312],[-0.53525,-0.60275]],[[227.66262,181.91741],[0.30618,0.61821],[-0.87392,-3.03893]],[[224.37956,173.11191],[0.83739,3.02237],[-1.01133,-3.65016]],[[221.58813,162.06253],[1.04497,3.66111],[-0.66378,-2.98701]],[[222.92301,153.5988],[-3.8968,1.12045],[0,0]],[223.24533,153.56994],[[223.50908,153.61786],[-0.14389,-0.04792],[0,0]]],&quot;closed&quot;:true,&quot;fillColor&quot;:[0,0,0,1]}]}" fill="#151515" stroke-width="0.5"/><path d="M241.93878,232.65732c1.67712,2.04438 5.45721,2.14479 8.22943,1.45729c0.17353,0.85555 0.43178,1.96077 0.84383,2.65016c1.11632,1.86765 6.23578,4.27497 3.48735,7.05451c-0.67866,0.68634 -2.28308,0.76193 -3.16692,0.98206c-6.81927,1.96335 -10.856,-3.18389 -10.872,-9.63695c0.10394,-0.76495 0.32669,-1.24813 0.74991,-1.89105z" data-paper-data="{&quot;noHover&quot;:false,&quot;origItem&quot;:[&quot;Path&quot;,{&quot;applyMatrix&quot;:true,&quot;segments&quot;:[[[241.24849,233.30572],[0,0],[-0.42322,0.64292]],[[240.50504,235.18707],[0.10394,-0.76495],[0.016,6.45306]],[[251.30711,244.75826],[-6.81927,1.96335],[0.88384,-0.22013]],[[254.45915,243.78961],[-0.67866,0.68634],[2.74843,-2.77954]],[[250.97098,236.79331],[1.11632,1.86765],[-0.41205,-0.68939]],[[250.1468,234.1598],[0.17353,0.85555],[-2.77222,0.6875]],[[241.97314,232.69364],[1.67712,2.04438],[0,0]]],&quot;closed&quot;:true,&quot;fillColor&quot;:[0,0,0,1]}]}" fill="#151515" stroke-width="0.5"/><path d="M254.82171,225.18122c1.51902,1.30609 4.44862,1.07324 6.4332,0.56695c0.92273,1.34264 3.88334,2.50564 4.33151,3.87504c0.26551,0.81128 -1.33054,1.00845 -1.82609,1.07769c-2.07692,0.29019 -3.58329,-0.52321 -5.43008,-1.31237c-1.7528,-1.17888 -3.59027,-1.7481 -3.56563,-4.1609z" data-paper-data="{&quot;noHover&quot;:false,&quot;origItem&quot;:[&quot;Path&quot;,{&quot;applyMatrix&quot;:true,&quot;segments&quot;:[[[254.80925,225.25018],[0,0],[-0.02464,2.4128]],[[258.36997,229.35816],[-1.7528,-1.17888],[1.84679,0.78916]],[[263.72063,230.67051],[-2.07692,0.29019],[0.49555,-0.06924]],[[265.53862,229.60854],[0.26551,0.81128],[-0.44817,-1.3694]],[[261.23326,225.79323],[0.92273,1.34264],[-1.98458,0.50629]],[[254.86609,225.20425],[1.51902,1.30609],[0,0]]],&quot;closed&quot;:true,&quot;fillColor&quot;:[0,0,0,1]}]}" fill="#151515" stroke-width="0.5"/><path d="M260.69725,206.78855c-0.00085,-0.39176 -0.02896,-0.84161 -0.06847,-1.27661c0.35746,-0.10558 0.49502,-0.5163 0.49502,-0.5163l-0.01755,-0.10815c0.3054,-0.36714 0.59473,-0.72266 0.80652,-1.04145c0.19703,0.03145 0.37465,-0.01771 0.37465,-0.01771c3.35829,-0.95952 1.19261,3.99515 -1.63199,3.96631l-0.02894,-0.00027c0.05192,-0.30343 0.06995,-0.64409 0.07074,-1.00582z" data-paper-data="{&quot;noHover&quot;:false,&quot;origItem&quot;:[&quot;Path&quot;,{&quot;applyMatrix&quot;:true,&quot;segments&quot;:[[[260.73949,206.76181],[0,0],[-0.00079,0.36173]],[[260.65856,207.756],[0.05192,-0.30343],[0,0]],[[260.68717,207.756],[0,0],[2.8246,0.02884]],[[262.28856,203.87831],[3.35829,-0.95952],[0,0]],[[261.92348,203.89487],[0.19703,0.03145],[-0.21179,0.31879]],[[261.14706,204.91637],[0.3054,-0.36714],[0,0]],[261.16613,205.02224],[[260.67828,205.51899],[0.35746,-0.10558],[0.03951,0.435]],[[260.7395,206.76181],[-0.00085,-0.39176],[0,0]]],&quot;closed&quot;:true,&quot;fillColor&quot;:[0,0,0,1]}]}" fill="#151515" stroke-width="0.5"/><path d="M233.09678,219.18374c0,0 0.33425,-0.1149 0.47046,-0.40822c1.88699,0.67086 4.68426,-0.02342 6.45597,-0.96496c0.05839,0.1363 0.13655,0.2255 0.13655,0.2255c4.46676,5.08384 -3.23577,10.3623 -7.90199,6.40938c-2.23055,-1.47671 -2.72187,-4.67788 0.35572,-5.11044l0.48327,-0.15127z" data-paper-data="{&quot;noHover&quot;:false,&quot;origItem&quot;:[&quot;Path&quot;,{&quot;applyMatrix&quot;:true,&quot;segments&quot;:[[233.13363,219.21751],[[232.65369,219.36474],[0,0],[-3.07759,0.43256]],[[232.29867,224.41667],[-2.23055,-1.47671],[4.66622,3.95292]],[[240.12273,218.06965],[4.46676,5.08384],[0,0]],[[239.98774,217.8458],[0.05839,0.1363],[-1.77171,0.94154]],[[233.59826,218.81473],[1.88699,0.67086],[-0.13621,0.29332]],[233.13364,219.21752]],&quot;closed&quot;:true,&quot;fillColor&quot;:[0,0,0,1]}]}" fill="#151515" stroke-width="0.5"/><path d="M247.57284,189.00041c-1.58852,1.99795 -5.52168,1.53702 -7.45045,-0.06329c2.41141,0.30319 6.2739,-0.38722 6.93221,-2.19755c0.72679,0.41476 1.1429,1.47516 0.51823,2.26084z" data-paper-data="{&quot;noHover&quot;:false,&quot;origItem&quot;:[&quot;Path&quot;,{&quot;applyMatrix&quot;:true,&quot;segments&quot;:[[[247.52324,188.99404],[0,0],[0.62467,-0.78568]],[[247.01155,186.76498],[0.72679,0.41476],[-0.65831,1.81033]],[[240.17214,188.93205],[2.41141,0.30319],[1.92877,1.60031]],[[247.52325,188.99404],[-1.58852,1.99795],[0,0]]],&quot;closed&quot;:true,&quot;fillColor&quot;:[0,0,0,1]}]}" fill="#9c9c9c" stroke-width="0.5"/><path d="M251.05301,192.0864c0,0 -0.0374,-0.05665 -0.10766,-0.12471c0.03598,-0.50761 -0.20166,-1.06789 -0.84505,-1.66112c-0.28189,-0.25991 -0.72022,-0.24945 -1.08252,-0.37497l-0.28999,-0.00896c1.02566,-1.47872 0.55833,-3.29468 -0.62032,-4.21763c1.11991,-0.50042 3.13737,-1.23188 3.38402,-0.63855c0.00742,0.01784 0.68034,1.34339 1.18262,1.97602c-0.8088,0.27637 -2.29137,1.277 -2.44271,1.52979l0.24424,1.10256c0,0 0.28222,0.69811 0.97858,0.41957c0.69635,-0.27854 0.37132,-0.88636 0.37132,-0.88636l-0.21257,-0.05647c0.18461,-0.67262 1.23674,-0.58409 2.06412,-0.82027c0.87664,1.28607 1.96618,2.20828 2.96343,3.51014c1.76932,2.30975 2.33909,5.90278 4.02916,8.43788c0.84461,1.65014 0.56905,2.10429 -0.33354,3.20658c-0.77735,-4.06706 -2.73983,-8.88975 -5.08505,-11.28368c0,0 -0.52833,-0.52835 -1.05866,0.00198c-0.53033,0.53033 0.07046,0.98976 0.07046,0.98976c1.18416,1.15193 1.70216,2.90631 2.28395,4.41012c1.16547,3.01254 2.7479,5.83021 2.73959,9.18096c0.00547,2.20405 -1.39503,2.93655 -2.64749,4.56241c-2.26112,2.93522 -5.7605,5.68349 -9.40789,6.7256c-0.61032,0.17583 -0.85292,0.2828 -1.47952,0.32218c-0.42675,0.02682 -2.6768,0.27612 -2.89894,-0.304c-0.26587,-0.69433 0.6237,-1.69511 0.85177,-2.2325c0.53619,-1.26337 0.73885,-2.81007 0.36882,-4.1424c-0.58551,-2.10818 -2.22295,-3.84827 -3.1998,-5.79519c-0.42666,-1.13774 -0.91729,-2.26823 -1.58827,-3.2823l-0.1607,-0.44763c0,0 -0.03771,-0.09564 -0.1198,-0.20074c-0.0422,-0.7421 -0.02905,-1.50271 0.05456,-2.24746c0,0 0.17714,-0.71245 -0.56827,-0.79527c-0.74542,-0.08282 -0.82643,0.65711 -0.82643,0.65711c-0.63423,5.76315 2.56254,10.98468 2.26634,16.63886c-1.46388,1.10684 -3.21359,1.51092 -5.04517,1.11125c-0.23908,-0.05217 -1.58125,-0.2493 -1.67642,-0.60266c-0.44938,-1.66847 0.12372,-3.71402 -0.19767,-5.44748c-0.33659,-1.81544 -1.0679,-3.55032 -1.42977,-5.34579c-1.33862,-2.65199 -2.38692,-7.15539 -2.05924,-10.15108c0.28227,-2.58062 3.40809,-3.36346 5.2746,-2.1171c0.16884,0.20665 0.41792,0.47298 0.58676,0.67963l0.02176,0.08764c0,0 0.25528,0.611 0.9261,0.27559c0.67082,-0.33541 0.33817,-1.00951 0.33817,-1.00951l-0.21055,-0.3777c-0.09225,-0.10899 -0.11163,-0.14951 -0.20388,-0.2585c0.68649,0.4538 0.73135,1.67642 1.48183,1.98271c1.51833,0.61967 1.60461,-0.09622 2.23799,-1.0281c0.61769,-0.64912 0.85078,-0.64944 1.73824,-0.64038l0.11683,-0.00024c0,0 0.75494,-0.0018 0.75494,-0.7518c0,-0.75 -0.71848,-0.65513 -0.71848,-0.65513l-0.11578,-0.00018c-1.39965,0.01106 -1.89571,0.23213 -2.90853,1.21775c-0.54936,1.38838 -1.01506,-0.95224 -1.95513,-1.48663c-0.48767,-0.27722 -1.60839,-0.6245 -2.47668,-0.75296c1.30399,-0.99513 2.04048,-3.10978 3.43712,-2.96256l0.05092,0.4445c1.02571,2.00932 4.07622,3.41902 6.79694,3.32761c-0.78576,1.93004 0.75372,2.61023 2.49617,2.47791c0.03978,0.121 0.09361,0.20062 0.09361,0.20062l0.44459,0.6594c0.61245,1.23098 1.15118,2.51074 1.7685,3.73999c1.53998,2.30996 1.48725,5.39502 1.87892,8.04408c0.15111,1.02201 -0.57666,3.13622 0.52242,3.83786c1.10428,0.70496 3.57574,-0.91861 4.2764,-1.61227c0.7322,-0.72489 1.33301,-1.33887 1.89863,-2.20344c1.32665,-5.70401 -4.11075,-10.46272 -7.02196,-14.8344z" data-paper-data="{&quot;noHover&quot;:false,&quot;origItem&quot;:[&quot;Path&quot;,{&quot;applyMatrix&quot;:true,&quot;segments&quot;:[[[251.07864,192.04346],[0,0],[2.91121,4.37168]],[[258.12116,206.9399],[1.32665,-5.70401],[-0.56562,0.86457]],[[256.21749,209.15261],[0.7322,-0.72489],[-0.70066,0.69366]],[[251.9292,210.77703],[1.10428,0.70496],[-1.09908,-0.70164]],[[251.33976,206.86584],[0.15111,1.02201],[-0.39167,-2.64906]],[[249.45708,198.88245],[1.53998,2.30996],[-0.61732,-1.22925]],[[247.71289,195.16152],[0.61245,1.23098],[0,0]],[247.27242,194.50343],[[247.17972,194.30305],[0.03978,0.121],[-1.74245,0.13232]],[[244.69895,191.82653],[-0.78576,1.93004],[-2.72072,0.09141]],[[237.92331,188.49259],[1.02571,2.00932],[0,0]],[[237.8719,188.04836],[0,0],[-1.39664,-0.14722]],[[234.44647,191.00204],[1.30399,-0.99513],[0.86829,0.12846]],[[236.855,191.68197],[-0.48767,-0.27722],[0.94007,0.53439]],[[238.81205,193.16705],[-0.54936,1.38838],[1.01282,-0.98562]],[[241.73366,191.94206],[-1.39965,0.01106],[0,0]],[241.84994,191.94206],[[242.59994,192.69206],[0,-0.75],[0,0.75]],[241.84994,193.44206],[[241.73366,193.44206],[0,0],[-0.88746,-0.00906]],[[240.00411,194.07754],[0.61769,-0.64912],[-0.63338,0.93188]],[[237.77512,195.0975],[1.51833,0.61967],[-0.75048,-0.30629]],[[236.21913,193.04773],[0.68649,0.4538],[0.09225,0.10899]],[[236.49588,193.37471],[-0.09225,-0.10899],[0,0]],[236.70681,193.752],[[236.3714,194.75823],[0.67082,-0.33541],[-0.67082,0.33541]],[235.36517,194.42282],[[235.34355,194.33499],[0,0],[-0.16884,-0.20665]],[[234.83703,193.71504],[0.16884,0.20665],[-1.86651,-1.24636]],[[229.56944,195.81934],[0.28227,-2.58062],[-0.32768,2.99569]],[[231.6295,205.93815],[-1.33862,-2.65199],[0.36187,1.79547]],[[233.05092,211.26805],[-0.33659,-1.81544],[0.32139,1.73346]],[[233.24053,216.70737],[-0.44938,-1.66847],[0.09517,0.35336]],[[234.91334,217.30739],[-0.23908,-0.05217],[1.83158,0.39967]],[[239.91342,216.28464],[-1.46388,1.10684],[0.2962,-5.65418]],[[237.61616,199.58598],[-0.63423,5.76315],[0,0]],[[238.4444,198.92339],[-0.74542,-0.08282],[0.74541,0.08282]],[[239.10699,199.75163],[0,0],[-0.08361,0.74475]],[[239.05453,201.98188],[-0.0422,-0.7421],[0.08209,0.1051]],[239.17422,202.18097],[[239.33446,202.62488],[0,0],[0.67098,1.01407]],[[240.90953,205.88065],[-0.42666,-1.13774],[0.97685,1.94692]],[[244.07941,211.66077],[-0.58551,-2.10818],[0.37003,1.33233]],[[243.69864,215.90245],[0.53619,-1.26337],[-0.22807,0.53739]],[[242.86006,218.03584],[-0.26587,-0.69433],[0.22214,0.58012]],[[245.75029,218.33929],[-0.42675,0.02682],[0.6266,-0.03938]],[[247.22532,218.01742],[-0.61032,0.17583],[3.64739,-1.04211]],[[256.60098,211.30894],[-2.26112,2.93522],[1.25246,-1.62586]],[[259.2395,206.76182],[0.00547,2.20405],[0.00831,-3.35075]],[[256.49982,197.61511],[1.16547,3.01254],[-0.58179,-1.50381]],[[254.22661,193.22239],[1.18416,1.15193],[0,0]],[[254.22661,192.16173],[-0.53033,0.53033],[0.53033,-0.53033]],[[255.28727,192.16173],[0,0],[2.34522,2.39393]],[[260.38577,203.48597],[-0.77735,-4.06706],[0.90259,-1.10229]],[[260.61988,200.27781],[0.84461,1.65014],[-1.69007,-2.5351]],[[256.60277,191.86824],[1.76932,2.30975],[-0.99725,-1.30186]],[[253.65057,188.3677],[0.87664,1.28607],[-0.82738,0.23618]],[[251.59055,189.19027],[0.18461,-0.67262],[0,0]],[251.84865,189.15771],[[251.43084,190.13261],[0.69635,-0.27854],[-0.69636,0.27854]],[250.45594,189.7148],[[250.24892,188.51945],[0,0],[0.15134,-0.25279]],[[252.65168,187.08118],[-0.8088,0.27637],[-0.50228,-0.63263]],[[251.4741,185.10735],[0.00742,0.01784],[-0.24665,-0.59333]],[[248.09892,185.74828],[1.11991,-0.50042],[1.17865,0.92295]],[[248.74167,189.86861],[1.02566,-1.47872],[0,0]],[[249.03276,189.8779],[0,0],[0.3623,0.12552]],[[250.11965,190.25447],[-0.28189,-0.25991],[0.64339,0.59323]],[[250.9704,191.91842],[0.03598,-0.50761],[0.07026,0.06806]],[251.07866,192.04348]],&quot;closed&quot;:true,&quot;fillColor&quot;:[0,0,0,1],&quot;strokeWidth&quot;:0.5}]}" fill="#2d2d2d" stroke-width="0.25"/><path d="M246.39882,191.51382c0.37395,-0.12247 0.76742,-0.31641 1.09553,-0.52058c0.21304,0.30652 0.6645,0.31566 0.6645,0.31566l0.50308,-0.01694c2.88051,0.47145 -4.21948,2.92771 -2.40073,0.65229c0,0 0.12413,-0.19774 0.13761,-0.43043z" data-paper-data="{&quot;noHover&quot;:false,&quot;origItem&quot;:[&quot;Path&quot;,{&quot;applyMatrix&quot;:true,&quot;segments&quot;:[[[246.3112,191.94528],[0,0],[-1.81875,2.27541]],[[248.62066,191.32016],[2.88051,0.47145],[0,0]],[248.12902,191.34902],[[247.50294,191.0425],[0.21304,0.30652],[-0.32811,0.20417]],[[246.44583,191.53087],[0.37395,-0.12247],[-0.01348,0.23269]]],&quot;closed&quot;:true}]}" fill="#ff0000" stroke-width="0.5"/><path d="M248.70435,193.94051c0.51723,-0.17564 1.00528,-0.4188 1.38739,-0.70957c2.59456,3.67645 7.66384,8.43674 6.68094,13.15934c-0.60228,0.8756 -2.85368,3.46845 -4.07233,3.1505c-0.35766,-0.09331 0.13057,-0.83143 0.13192,-1.20106c0.00045,-0.12238 0.00215,-1.56775 -0.00674,-1.63193c-0.39416,-2.84673 -0.44577,-6.14291 -2.09758,-8.62063c-0.61245,-1.23098 -1.12418,-2.49324 -1.7415,-3.72249z" data-paper-data="{&quot;noHover&quot;:false,&quot;origItem&quot;:[&quot;Path&quot;,{&quot;applyMatrix&quot;:true,&quot;segments&quot;:[[[249.01026,194.40862],[0,0],[0.61732,1.22925]],[[250.75445,198.12955],[-0.61245,-1.23098],[1.65181,2.47772]],[[252.82526,206.65778],[-0.39416,-2.84673],[0.00889,0.06418]],[[252.83251,208.38972],[0.00045,-0.12238],[-0.00135,0.36963]],[[252.70094,209.49078],[-0.35766,-0.09331],[1.21865,0.31795]],[[256.74153,206.35116],[-0.60228,0.8756],[0.9829,-4.7226]],[[250.10746,193.2784],[2.59456,3.67645],[-0.38211,0.29077]],[[248.72841,193.98434],[0.51723,-0.17564],[0,0]]],&quot;closed&quot;:true}]}" fill="#ff0000" stroke-width="0.5"/></g><g fill="#ff0000" stroke-width="0.5"><path d="M239.32944,176.71392c-0.12455,0.0042 -0.26635,-0.02865 -0.4235,-0.12294c-0.64312,-0.38587 -0.25725,-1.02899 -0.25725,-1.02899c1.97495,-3.28177 1.71129,-6.94411 2.22432,-10.636c0.25068,-1.80396 1.16904,-3.50207 1.40622,-5.29734c0.26779,-0.94421 0.47135,-3.56322 1.3896,-4.03006c1.00852,-0.51273 3.08059,1.55039 3.76262,2.08657c3.30572,2.59882 6.73338,5.56342 9.71627,8.54632c0.90481,0.9236 1.62223,1.75426 0.61332,3.00343c-0.76088,0.94208 -3.56048,1.61404 -4.7099,2.06346c-3.87792,1.51625 -7.59887,3.98647 -11.57655,5.13808c-0.27132,0.07752 -0.54264,0.15504 -0.81395,0.23256l-0.50889,0.20777c0,0 -0.50021,0.20008 -0.82231,-0.16285zM240.56121,175.13738c0.1671,-0.04774 0.3342,-0.09549 0.5013,-0.14323c4.07938,-1.14728 8.72263,-3.61391 12.5313,-5.52402c1.22352,-0.61362 4.0299,-0.68316 2.49325,-2.178c-2.53598,-2.53598 -5.48895,-4.55446 -8.02326,-7.09302c-0.71252,-0.71372 -1.50353,-1.28413 -2.27539,-1.93091c-0.51674,-0.433 -1.69732,-1.9357 -1.5713,-1.27341c0.19551,1.02753 -0.18671,1.96034 -0.47086,2.94669c-0.26483,1.74276 -1.16306,3.41644 -1.38448,5.16778c-0.4391,3.47306 -0.36898,6.87376 -1.80056,10.02812z"/><path d="M247.71623,171.06413c0,0.75 -0.75,0.75 -0.75,0.75l0.06288,-0.06064c-2.14475,0.88189 -5.02749,0.53923 -4.2724,-2.40703c0,0 0.20604,-0.72114 0.92718,-0.5151c0.72114,0.20604 0.5151,0.92718 0.5151,0.92718c-0.47304,1.41172 1.22909,1.0743 2.23923,0.61623l0.528,-0.06064c0,0 0.75,0 0.75,0.75z"/><path d="M243.54181,165.94786c0,-0.41421 0.33579,-0.75 0.75,-0.75c0.41421,0 0.75,0.33579 0.75,0.75c0,0.41421 -0.33579,0.75 -0.75,0.75c-0.41421,0 -0.75,-0.33579 -0.75,-0.75z"/><path d="M248.42553,163.73855c0,-0.41421 0.33579,-0.75 0.75,-0.75c0.41421,0 0.75,0.33579 0.75,0.75c0,0.41421 -0.33579,0.75 -0.75,0.75c-0.41421,0 -0.75,-0.33579 -0.75,-0.75z"/></g><g stroke-width="0.5"><path d="M212.20682,154.66342c0.17794,-0.0807 0.34762,-0.0807 0.34762,-0.0807c3.44159,0.006 7.68137,-2.48475 7.68137,-6.30882l0.092,-0.52069c-0.04067,-0.40136 -0.12151,-0.77888 -0.22982,-1.14265c-2.10053,3.68066 -4.05681,6.9156 -8.3749,7.83737c0.1592,0.07439 0.32034,0.14598 0.48373,0.2155zM222.78532,143.5226c3.81999,3.58012 3.59043,9.14094 -0.09271,12.83064c-1.21298,1.21099 -2.38437,2.09628 -3.67764,3.18309l-0.73296,0.38877c0,0 -0.41065,0.20533 -0.75001,-0.02662c-3.91859,0.95983 -10.95539,-0.39177 -9.41456,-5.6853l0.01031,-0.00778c-5.69159,-3.41373 -7.98506,-10.2573 -2.41385,-14.92272c0.11672,-0.18729 0.29196,-0.28743 0.29196,-0.28743c0.07943,-0.04539 0.15892,-0.08944 0.23847,-0.13216c0.02003,-0.01498 0.04015,-0.02993 0.06035,-0.04486c0.00596,0.00109 0.01191,0.00219 0.01787,0.00328c4.376,-2.30173 8.90526,-0.6103 12.27354,2.77391c0.07507,0.0513 0.1508,0.12049 0.2077,0.21235c0.00521,0.00542 0.01041,0.01084 0.01561,0.01626c1.79686,-0.3429 2.70156,0.5136 3.96592,1.69856z" fill="#000000"/><path d="M211.76051,154.41476c4.31809,-0.92176 6.20139,-4.0884 8.30192,-7.76906c0.10831,0.36377 0.26624,0.6783 0.30691,1.07966l-0.08993,0.52405c0,3.82408 -4.3164,6.37684 -7.758,6.37084c0,0 -0.17106,-0.00126 -0.349,0.07944c-0.16339,-0.06952 -0.2527,-0.21055 -0.4119,-0.28494z" data-paper-data="{&quot;noHover&quot;:false,&quot;origItem&quot;:[&quot;Path&quot;,{&quot;applyMatrix&quot;:true,&quot;segments&quot;:[[[212.20682,154.66342],[-0.16339,-0.06952],[0.17794,-0.0807]],[[212.55444,154.58272],[0,0],[3.44159,0.006]],[[220.23581,148.27389],[0,3.82408],[0,0]],[[220.32781,147.7532],[0,0],[-0.04067,-0.40136]],[[220.09799,146.61055],[0.10831,0.36377],[-2.10053,3.68066]],[[211.72309,154.44792],[4.31809,-0.92176],[0.1592,0.07439]]],&quot;closed&quot;:true}]}" fill="#ff0000"/></g></g></g></svg>