<svg version="1.1" xmlns="http://www.w3.org/2000/svg" xmlns:xlink="http://www.w3.org/1999/xlink" width="90.37049" height="141.00298" viewBox="0,0,90.37049,141.00298"><defs><radialGradient cx="244.21293" cy="159.5919" r="7.3567" gradientUnits="userSpaceOnUse" id="color-1"><stop offset="0" stop-color="#54606d"/><stop offset="1" stop-color="#2c3136"/></radialGradient></defs><g transform="translate(-184.14291,-97.40498)"><g data-paper-data="{&quot;isPaintingLayer&quot;:true}" stroke-miterlimit="10" stroke-dasharray="" stroke-dashoffset="0" style="mix-blend-mode: normal"><g fill-rule="evenodd"><path d="M221.27724,198.75946c0.69619,-0.56154 2.22106,-1.73404 4.31681,1.86149c2.09575,3.59553 -0.13388,10.16278 -0.46622,10.89048c-1.19683,2.8614 -2.7754,6.318 -5.79364,9.55687c-8.7066,9.43584 -20.66432,4.08485 -20.95442,-0.33508c-0.33164,-4.32897 7.74258,-2.51047 14.48456,-5.47791c2.99819,-1.2692 4.9306,-3.5748 6.38241,-5.55021c1.9582,-2.84349 1.2018,-10.33468 2.03049,-10.94564z" fill="#ffab19" stroke="#001026" stroke-width="1.2" stroke-linecap="round" stroke-linejoin="round"/><path d="M203.6069,217.95345c3.12067,-0.33379 7.86506,-1.57506 7.86506,-1.57506c0,0 -2.35571,2.99176 -1.68171,5.6082c0.47631,2.08641 2.64367,2.63647 3.36349,2.74534c-1.72256,0.64248 -4.02457,1.35014 -7.62369,0.80581c-3.59913,-0.54433 -7.00416,-3.1987 -6.71911,-5.26721c0.46698,-1.98543 2.03913,-1.81712 4.79595,-2.31708z" fill="#ffffff" stroke="none" stroke-width="1" stroke-linecap="butt" stroke-linejoin="miter"/></g><path d="M239.26071,184.90143c0.60868,-0.19877 9.97463,-1.35156 9.56615,-4.0111c-0.44002,-3.15854 -2.05897,-8.16644 2.67475,-9.36727c4.73371,-1.20084 5.68773,7.55644 5.35181,10.80408c-1.19141,7.46997 -9.19607,8.91753 -11.1921,9.04361c-1.99602,0.1261 -5.40544,0.40159 -7.57965,-1.02416c-2.28662,-1.61906 -1.00754,-4.84612 1.17904,-5.44517z" fill="#ff0000" fill-rule="evenodd" stroke="#001026" stroke-width="1.2" stroke-linecap="round" stroke-linejoin="round"/><g><path d="M240.15541,196.19714c0.0812,0.84083 0.25868,2.407 0.39921,4.47859c0.26688,3.93398 0.40056,9.69062 -0.51133,15.76367l-0.09378,0.4557c-0.09378,0.4557 0.25378,0.91571 0.69513,0.91998c2.87488,-0.47949 8.48857,-1.13534 7.48392,5.29828c-0.91394,6.23156 -17.76419,8.96011 -19.10235,2.80819c-0.36534,-2.64178 1.01936,-3.9982 1.77825,-4.70113c0.40211,-0.40197 0.62891,-0.90714 0.76806,-1.46387c0.19369,-1.41872 0.49037,-4.05406 0.47259,-6.23585c0.02205,-5.47919 -0.31325,-6.95377 -0.7209,-9.74815c-0.40765,-2.79438 -1.56436,-9.35044 2.91898,-11.43785c3.81825,-1.8402 5.63147,1.52592 5.91221,3.86245z" fill="#513726" fill-rule="evenodd" stroke="#001026" stroke-width="1.2" stroke-linecap="round" stroke-linejoin="round"/><path d="M222.91789,203.73706c0.12062,-2.35715 1.69818,-5.89727 5.62844,-4.45478c4.60986,1.62071 3.90379,8.27236 3.68793,11.09875c-0.21587,2.82639 0.34003,4.33016 0.73524,9.78794c0.13091,2.17598 -0.18351,4.77172 0.10616,6.16563c0.0983,0.30089 0.92068,11.96259 -7.55354,11.45741c-7.48181,-0.44601 -1.31098,-13.89494 -1.31098,-13.89494c0,0 -1.38394,-11.70858 -1.38597,-15.65616c-0.00108,-2.07874 0.0691,-3.65762 0.09273,-4.50383z" data-paper-data="{&quot;index&quot;:null}" fill="#513726" fill-rule="evenodd" stroke="#001026" stroke-width="1.2" stroke-linecap="round" stroke-linejoin="round"/><g fill-rule="evenodd"><path d="M232.25052,202.52694c-12.15705,2.37315 -11.54382,-5.76059 -14.40515,-11.02329c-2.338,-4.66404 -1.01255,-5.13734 3.35704,-9.63725c2.31338,-2.65907 3.67951,-4.21969 4.79351,-6.19706c1.7162,-2.93575 5.7272,0.49734 7.49463,2.79727c0,0 2.57857,3.46313 3.5846,5.74775c1.2034,2.78854 1.90255,4.74352 2.05925,6.3347c0,0 0.33756,3.41987 -0.86401,5.5106c-1.08008,1.87933 -6.01987,6.46728 -6.01987,6.46728z" fill="#ff0000" stroke="#001026" stroke-width="1.2" stroke-linecap="round" stroke-linejoin="round"/><path d="M238.55128,191.27257c0,0 -1.90605,0.57929 -4.13808,1.0638c-2.72222,0.65112 -5.17321,1.48413 -6.88087,-2.13796c-1.18432,-3.02342 -3.14662,-6.44476 1.93869,-8.60704c4.79502,-2.10929 6.01498,1.06188 6.01498,1.06188c2.86385,4.64518 3.06526,8.61932 3.06526,8.61932z" fill="#ffffff" stroke="none" stroke-width="1" stroke-linecap="butt" stroke-linejoin="miter"/></g><path d="M239.13439,190.54907c0,0 0.33756,3.41987 -0.86401,5.5106c-1.0794,1.87815 -6.01365,6.4615 -6.01987,6.46728c-8.4344,1.64645 -10.72194,-1.76448 -12.28758,-5.76527c0.24087,-0.07759 0.45405,-0.14989 0.63493,-0.214c6.31487,-2.23798 12.01818,-4.94993 18.44238,-6.67038c0.04138,0.23148 0.07281,0.455 0.09415,0.67179z" fill="#513726" fill-rule="nonzero" stroke="#001026" stroke-width="1.2" stroke-linecap="butt" stroke-linejoin="miter"/></g><path d="M227.22622,207.58094c0,0 0,0 0.00001,0v0z" fill="#513726" fill-rule="nonzero" stroke="#001026" stroke-width="1.2" stroke-linecap="butt" stroke-linejoin="miter"/><g><g><path d="M245.13907,122.45347c0.32428,-0.15763 0.80617,0.00901 0.85121,0.41885l1.13037,10.95318c0,0 5.70624,5.52167 7.14291,9.04813c2.42748,5.88194 1.91851,10.3542 1.91851,10.3542c0,0 6.75114,3.04009 7.16994,8.84997c0.41881,5.80987 -5.40014,15.91629 -24.52768,17.04208c-19.12753,1.1258 -33.39993,-5.96776 -38.89444,-18.22257c-5.4945,-12.2548 7.44043,-24.21673 6.73782,-23.50514c0,0 1.12808,-15.93586 1.49739,-15.68365l10.62234,6.73926c0,0 4.68843,-1.07637 9.37236,-0.63947c2.80135,0.18018 5.1523,0.70263 7.37717,1.40973z" fill="#ffab19" fill-rule="evenodd" stroke="#001026" stroke-width="1.2" stroke-linecap="butt" stroke-linejoin="miter"/><path d="M255.83079,153.58364c0,0 6.59351,2.71582 7.0123,8.52569c0.41881,5.80987 -5.72892,15.36682 -24.64477,16.42056c-24.65366,1.68423 -34.10247,-14.13761 -26.03163,-23.73509c8.08434,-9.69656 18.24928,0.87387 26.65331,1.41439c7.20152,0.47746 8.84545,-5.65668 17.01077,-2.62557z" fill="#ffffff" fill-rule="evenodd" stroke="none" stroke-width="1" stroke-linecap="butt" stroke-linejoin="miter"/><path d="M273.9134,157.15977c-5.17036,3.13008 -12.31784,2.2563 -12.31784,2.2563" fill="none" fill-rule="evenodd" stroke="#001026" stroke-width="1.2" stroke-linecap="round" stroke-linejoin="round"/><path d="M271.11197,168.08141c-6.30979,-0.35585 -9.91729,-2.7654 -9.91729,-2.7654" fill="none" fill-rule="evenodd" stroke="#001026" stroke-width="1.2" stroke-linecap="round" stroke-linejoin="round"/><path d="M238.77499,153.579c2.08074,0.28375 4.23354,0.77918 4.23804,1.48627c-0.09008,1.40068 -1.95467,3.9723 -3.55351,3.8552c-1.81052,-0.04505 -5.6342,-3.08964 -5.418,-4.67497c0.06306,-1.20251 2.75181,-0.93677 4.73347,-0.66652z" fill="#001026" fill-rule="evenodd" stroke="#001026" stroke-width="1.2" stroke-linecap="round" stroke-linejoin="round"/><path d="M194.39036,146.01233c0,0 8.14279,3.93635 11.19181,7.48086" fill="none" fill-rule="evenodd" stroke="#001026" stroke-width="1.2" stroke-linecap="round" stroke-linejoin="round"/><path d="M205.40652,157.00162c-4.49027,1.10339 -11.67378,-0.98642 -11.67378,-0.98642" fill="none" fill-rule="evenodd" stroke="#001026" stroke-width="1.2" stroke-linecap="round" stroke-linejoin="round"/><g fill="none" fill-rule="nonzero" stroke="none" stroke-width="1" stroke-linecap="butt" stroke-linejoin="miter" font-family="sans-serif" font-weight="normal" font-size="12" text-anchor="start"/><g fill="none" fill-rule="nonzero" stroke="none" stroke-width="1" stroke-linecap="butt" stroke-linejoin="miter" font-family="sans-serif" font-weight="normal" font-size="12" text-anchor="start"/></g><path d="M243.93955,175.99588c0.10409,-0.65797 0.4907,-1.2201 1.03688,-1.60457c0.00448,-0.04987 0.01067,-0.09993 0.0186,-0.15013c0.13271,-0.83895 0.72476,-1.52209 1.52125,-1.8798c-0.01146,-0.16391 -0.00461,-0.33126 0.02211,-0.50022c0.0775,-0.48988 0.31161,-0.92665 0.65159,-1.2765c-0.11152,-0.33107 -0.14634,-0.68798 -0.08871,-1.05234c0.10932,-0.691 0.53023,-1.27629 1.12034,-1.66113c-0.44823,-0.512 -0.67149,-1.17619 -0.56217,-1.86719c0.03325,-0.21016 0.09532,-0.41054 0.1822,-0.59847c-0.04163,-0.11421 -0.07407,-0.23169 -0.09667,-0.35162c-0.57655,-0.18264 -1.05777,-0.52225 -1.38773,-0.95361c-0.29078,0.0552 -0.59606,0.07063 -0.90689,0.04032c-0.4494,0.16334 -0.95248,0.22688 -1.46871,0.16366c-0.11644,-0.01426 -0.23026,-0.03457 -0.34106,-0.06051c-0.57201,0.36577 -1.29924,0.5447 -2.05459,0.45219c-0.3349,-0.04102 -0.64793,-0.13204 -0.93072,-0.26331c-0.31277,0.05834 -0.64215,0.07068 -0.97706,0.02966c-0.69298,-0.08488 -1.29229,-0.38382 -1.72378,-0.81048c-0.39834,0.11567 -0.83207,0.15491 -1.27551,0.1006c-0.79118,-0.0969 -1.46026,-0.47285 -1.89688,-0.99929c-0.39588,0.11368 -0.82647,0.15193 -1.26661,0.09803c-0.09661,-0.01183 -0.19138,-0.02782 -0.28416,-0.04776c-0.09542,-0.00312 -0.19157,-0.01052 -0.28819,-0.02235c-0.37278,-0.04566 -0.71847,-0.15327 -1.02549,-0.30938c-0.09385,-0.00322 -0.18839,-0.01055 -0.28338,-0.02219c-0.37097,-0.04544 -0.7151,-0.15223 -1.02102,-0.30711c-0.34236,0.07549 -0.70656,0.09553 -1.07753,0.05009c-0.76311,-0.09346 -1.4126,-0.44651 -1.84952,-0.94381c-0.44202,0.17173 -0.93908,0.24592 -1.45124,0.19602c-0.04936,0.01794 -0.09935,0.03467 -0.14995,0.05018c-0.58682,0.41386 -1.35831,0.62246 -2.1616,0.52408c-0.15314,-0.01876 -0.30172,-0.04796 -0.44491,-0.08669c-0.26863,0.29509 -0.61046,0.53305 -0.99748,0.69525c0.47223,0.51719 0.71042,1.19822 0.5982,1.9075c-0.00509,0.03221 -0.01086,0.06417 -0.0173,0.0959c0.1859,0.39612 0.25824,0.83972 0.18621,1.29495c-0.06981,0.44122 -0.26663,0.83932 -0.55344,1.16967c0.61144,0.5343 0.93956,1.30681 0.81154,2.11607c-0.06981,0.44122 -0.26664,0.83932 -0.55345,1.16967c0.61144,0.5343 0.93956,1.3068 0.81154,2.11606c-0.09806,0.61992 -0.44693,1.15475 -0.94374,1.5361c0.2501,0.43707 0.35703,0.9433 0.27453,1.46481c-0.21586,1.36458 -1.64696,2.31696 -3.19643,2.12719c-1.54947,-0.18977 -2.63056,-1.44982 -2.41468,-2.81442c0.09806,-0.61992 0.44692,-1.15476 0.94374,-1.53609c-0.2501,-0.43707 -0.35703,-0.94331 -0.27453,-1.46482c0.06981,-0.44122 0.26663,-0.83932 0.55344,-1.16967c-0.61144,-0.5343 -0.93956,-1.3068 -0.81154,-2.11606c0.06981,-0.44122 0.26664,-0.83933 0.55345,-1.16968c-0.61144,-0.5343 -0.93956,-1.3068 -0.81154,-2.11606c0.00509,-0.03221 0.01087,-0.06416 0.0173,-0.0959c-0.1859,-0.39612 -0.25824,-0.83972 -0.18622,-1.29495c0.03283,-0.2075 0.09376,-0.40547 0.17893,-0.59134c-0.56145,-0.53057 -0.85662,-1.2713 -0.73412,-2.0457c0.15043,-0.95083 0.89086,-1.70155 1.85025,-2.00516c0.54202,-0.90033 1.68191,-1.45108 2.89427,-1.30259c0.15314,0.01876 0.30172,0.04796 0.44491,0.08669c0.33323,-0.36603 0.77904,-0.64416 1.28406,-0.79883c0.56729,-0.40008 1.30715,-0.60836 2.08149,-0.53289c0.4494,-0.16334 0.95248,-0.22688 1.46871,-0.16366c0.76311,0.09346 1.4126,0.44651 1.84952,0.94381c0.46504,-0.18066 0.99098,-0.25338 1.53133,-0.1872c0.37097,0.04544 0.71511,0.15224 1.02103,0.30711c0.34236,-0.07549 0.70656,-0.09553 1.07753,-0.05009c0.37278,0.04566 0.71846,0.15327 1.02549,0.30938c0.09385,0.00322 0.18839,0.01055 0.28338,0.02219c0.09661,0.01183 0.19138,0.02782 0.28416,0.04775c0.09542,0.00312 0.19156,0.01053 0.28817,0.02236c0.79118,0.0969 1.46026,0.47284 1.89688,0.99928c0.39588,-0.11368 0.82647,-0.15192 1.26661,-0.09802c0.69298,0.08488 1.29229,0.38382 1.72378,0.81048c0.39834,-0.11567 0.83207,-0.15491 1.27552,-0.1006c0.3349,0.04102 0.64794,0.13204 0.93073,0.26331c0.31277,-0.05834 0.64215,-0.07068 0.97706,-0.02966c0.11644,0.01426 0.23026,0.03457 0.34106,0.06051c0.55177,-0.35283 1.24795,-0.53179 1.97448,-0.461c0.4494,-0.16334 0.95248,-0.22688 1.46871,-0.16366c0.82978,0.10163 1.52525,0.51023 1.95913,1.07743c0.31572,-0.05993 0.64855,-0.07297 0.98699,-0.03152c1.25765,0.15403 2.20673,1.01317 2.40418,2.061c1.23406,0.39094 2.03145,1.50105 1.84326,2.69058c-0.03325,0.21016 -0.09532,0.41054 -0.1822,0.59847c0.12602,0.34576 0.1679,0.72127 0.10718,1.10504c-0.10932,0.691 -0.53024,1.27629 -1.12035,1.66112c0.44823,0.512 0.67149,1.17619 0.56217,1.86719c-0.0775,0.48988 -0.31161,0.92665 -0.65159,1.2765c0.11152,0.33107 0.14635,0.68798 0.08872,1.05234c-0.13271,0.83895 -0.72477,1.52209 -1.52126,1.8798c0.01146,0.16391 0.00461,0.33126 -0.02211,0.50022c-0.10409,0.65797 -0.4907,1.22011 -1.03689,1.60457c-0.00448,0.04987 -0.01067,0.09992 -0.0186,0.15013c-0.21586,1.36458 -1.64697,2.31696 -3.19643,2.12719c-1.54946,-0.18977 -2.63056,-1.44982 -2.41468,-2.81442z" fill="#ffffff" fill-rule="nonzero" stroke="#001026" stroke-width="1.2" stroke-linecap="butt" stroke-linejoin="miter"/><g fill-rule="nonzero" stroke-linecap="butt" stroke-linejoin="miter"><g><path d="M184.74461,136.8995c0.02193,-3.11199 2.95918,-5.84023 6.56054,-6.09371c3.60137,-0.25348 6.50308,2.06378 6.48116,5.17577c-0.02193,3.11199 -2.95918,5.84023 -6.56054,6.09371c-3.60137,0.25348 -6.50308,-2.06378 -6.48115,-5.17576z" fill="#ffffff" stroke="#001026" stroke-width="1.2"/><path d="M209.54999,102.76612c0.40488,1.04009 -0.83486,1.48354 -0.83486,1.48354l-0.77619,0.23589c-2.55119,1.62561 -4.59086,4.0517 -6.46419,6.25447c-2.12146,7.71368 -9.44976,13.85923 -9.43552,22.06416c0,0 -0.00793,1.12694 -1.3121,1.21874c-1.30417,0.09179 -1.29623,-1.03514 -1.29623,-1.03514c0.12084,-8.58717 7.25617,-15.01833 9.69552,-23.05064c2.08271,-2.58793 4.45229,-5.32473 7.37891,-7.2251l1.40006,-0.54256c0,0 1.23976,-0.44345 1.64464,0.59663z" fill="#001026" stroke="none" stroke-width="0.5"/></g><g stroke="#001026" stroke-width="1.2"><path d="M208.52877,142.0343c-1.39765,-1.00676 -3.5413,-1.55626 -4.48909,-2.83877c-0.14455,-0.1956 -0.26127,-0.40823 -0.3433,-0.64214c-0.15651,-0.44632 -0.22685,-0.95187 -0.23049,-1.4993c-0.00447,-0.17757 0.00089,-0.35718 0.0164,-0.53838c0.21019,-3.24372 2.36156,-7.65367 2.91184,-10.07348c0.40794,-1.79388 0.78533,-4.12065 0.64673,-5.88182c-0.39919,-5.07287 -3.98684,-19.52084 3.7349,-22.12157c6.47333,-2.18026 10.80377,4.40403 13.60908,7.58829c4.66784,5.2984 11.01673,12.76462 18.05066,15.9341c3.20637,1.44479 8.0719,5.11212 6.13364,8.93507c-5.69732,11.2372 -20.01401,0.11311 -29.43829,1.81924c-3.84352,0.69582 -1.12134,6.1256 -4.40644,7.23202z" fill="#ff0000"/><path d="M254.04833,132.20413c3.51026,0.42993 5.70312,3.28545 4.89789,6.37799c-0.80524,3.09254 -4.30362,5.25104 -7.81389,4.82112c-2.49143,-0.30513 -4.31922,-1.83218 -4.88244,-3.79863c-0.70077,0.11765 -1.42569,0.13935 -2.15113,0.0505c-2.67202,-0.32726 -4.5807,-2.05997 -4.98474,-4.23287c-1.51269,1.76679 -4.04189,2.80659 -6.57725,2.49606c-2.26215,-0.27706 -3.97719,-1.56149 -4.69529,-3.26752c-1.48241,1.07282 -3.42665,1.6313 -5.37452,1.39272c-0.62046,-0.07599 -1.19977,-0.22778 -1.72863,-0.44322c-0.02685,0.17695 -0.0634,0.35511 -0.11,0.53407c-0.80524,3.09254 -4.30362,5.25103 -7.81389,4.82111c-0.02782,-0.00341 -0.05554,-0.00696 -0.08319,-0.01068c-1.19503,2.58472 -4.33349,4.28091 -7.48152,3.89536c-3.51026,-0.42993 -5.70311,-3.28545 -4.89788,-6.37799c0.80524,-3.09254 4.30362,-5.25103 7.81389,-4.82111c0.02782,0.00341 0.05555,0.00696 0.08319,0.01068c1.19503,-2.58471 4.33349,-4.2809 7.4815,-3.89535c0.62046,0.07599 1.19977,0.22778 1.72863,0.44323c0.02685,-0.17695 0.0634,-0.35511 0.11,-0.53407c0.80524,-3.09254 4.30362,-5.25103 7.81389,-4.82111c2.26215,0.27706 3.97719,1.56149 4.69529,3.26752c1.48241,-1.07282 3.42665,-1.6313 5.37451,-1.39272c2.67202,0.32726 4.58071,2.05997 4.98474,4.23288c1.51269,-1.76679 4.04189,-2.8066 6.57725,-2.49607c2.49143,0.30513 4.31921,1.83218 4.88243,3.79863c0.70077,-0.11765 1.42568,-0.13935 2.15113,-0.0505z" fill="#ffffff"/></g></g></g><path d="M215.77344,152.79237c0.14815,0.08954 0.29826,0.26085 0.25954,0.58364c-0.07243,0.60397 -0.66107,0.53035 -0.66107,0.53035l-0.57207,-0.13627c-4.2713,-2.96449 -0.11272,-9.99785 2.44916,-12.80456c3.41586,-3.6345 10.53386,-3.93714 13.8677,0.35061c2.68849,3.52914 3.82563,6.74448 2.2017,11.07481c-0.61449,1.63859 -1.10913,3.36145 -3.12433,3.20005c-1.36118,-0.53591 -4.7084,-0.5958 -5.48044,-2.12522c-0.83407,-1.65232 2.30465,-7.43867 -0.9725,-7.74103c-2.76893,-0.34635 -9.19202,2.63008 -7.77931,6.37946c0,0 0.15311,0.4422 -0.1884,0.68819z" fill="#001026" fill-rule="nonzero" stroke="none" stroke-width="0.5" stroke-linecap="butt" stroke-linejoin="miter"/><path d="M245.56383,156.20648c-0.03963,0.14411 -0.14122,0.29178 -0.37249,0.37632c-0.55888,0.20425 -0.75735,-0.36889 -0.75735,-0.36889l-0.26923,-0.82616c0.06957,-0.69782 0.15106,-1.39286 0.23455,-2.08904c0.45839,-3.82207 4.76639,-12.94329 9.4872,-8.56327c2.82996,1.95352 1.71691,5.52689 1.35942,8.43685c-0.12435,1.01223 -0.52488,3.3508 -2.14279,2.23098c-0.97947,-0.67792 -0.15746,-2.88218 -0.28333,-3.86891c-0.28006,-2.45347 -3.73303,0.77399 -4.07231,2.21834c-0.12687,0.54009 0.01885,1.77264 -0.3464,2.18159c-0.67613,0.75705 -1.92715,0.42585 -2.83729,0.27219z" fill="#001026" fill-rule="nonzero" stroke="none" stroke-width="0.5" stroke-linecap="butt" stroke-linejoin="miter"/><g fill-rule="nonzero" stroke="none" stroke-width="0.5" stroke-linecap="butt" stroke-linejoin="miter"><path d="M234.09537,167.61051c-2.45939,-0.44994 -4.94616,-1.30547 -6.7203,-3.26985c-0.57385,-1.59505 0.0039,2.59318 -0.1032,3.59096c-0.29532,2.75114 -1.15413,6.22863 0.68459,8.46814c0.68906,0.12493 1.63502,0.60159 2.30221,0.54657c2.98693,-0.24627 2.52523,-6.71698 3.83669,-9.33584zM235.30502,167.80296l-0.07173,0.24523c-2.13626,2.58952 -0.52726,9.79326 -4.78943,10.19069c-0.84686,0.07896 -2.09818,-0.4691 -2.94028,-0.69807c-2.91618,-3.0266 -1.25961,-6.76722 -1.25381,-10.54867c0.00135,-0.88236 -0.50647,-4.09223 0.38062,-4.58014c1.01066,-0.55587 1.3403,0.58836 1.62204,1.21451c2.14131,2.32723 5.17275,2.35851 7.88348,2.89237c0.19655,0.03871 1.83285,0.14977 2.69828,0.26791c-0.10833,-0.08997 -0.21248,-0.18719 -0.29026,-0.25467c0,0 -0.46108,-0.40117 -0.15236,-0.91129c0.30871,-0.51011 0.76979,-0.10895 0.76979,-0.10895c2.56993,2.24205 -0.15466,2.69216 -1.96271,2.51044c-0.61137,-0.06145 -1.24722,-0.13015 -1.89365,-0.21937z" fill="#001026"/><path d="M230.26017,176.99967c-0.66719,0.05501 -1.63291,-0.42573 -2.32196,-0.55066c-1.83873,-2.23951 -0.9971,-5.80075 -0.70179,-8.55189c0.1071,-0.99778 -0.45566,-5.19932 0.11819,-3.60427c1.77414,1.96437 4.32036,2.83803 6.77973,3.28797c-1.31146,2.61887 -0.88725,9.17259 -3.87417,9.41885z" data-paper-data="{&quot;noHover&quot;:false,&quot;origItem&quot;:[&quot;Path&quot;,{&quot;applyMatrix&quot;:true,&quot;segments&quot;:[[[234.69251,169.11669],[-1.33265,2.48522],[-2.64249,-0.36192]],[[227.41731,166.21625],[1.95008,1.7973],[-0.65643,-1.48039]],[[227.40295,169.58288],[0.08787,-0.93735],[-0.24229,2.58452]],[[228.36163,177.49953],[-2.02652,-2.05349],[0.74033,0.10034]],[[230.8386,177.9558],[-0.71213,0.0677],[3.18811,-0.3031]]],&quot;closed&quot;:true}]}" fill="#ffffff"/></g><g fill-rule="nonzero" stroke="#001026" stroke-width="1.2" stroke-linejoin="miter"><g><path d="M251.92215,186.13102l-12.72349,-18.17206l11.81864,-5.91708l7.03673,20.18252c0,0 -1.00256,2.43389 -1.99274,3.06473c-1.05025,0.66911 -4.13913,0.84189 -4.13913,0.84189z" fill="#505a63" stroke-linecap="butt"/><path d="M237.91564,167.06743c-1.81894,-3.6331 -0.34826,-8.05284 3.28483,-9.87177c3.6331,-1.81894 8.05285,-0.34826 9.87177,3.28483c1.81894,3.6331 0.34826,8.05286 -3.28483,9.87178c-3.6331,1.81894 -8.05284,0.34825 -9.87178,-3.28485z" fill="url(#color-1)" stroke-linecap="butt"/><path d="M244.50969,170.80293c0,0 -2.84516,-3.65566 -3.83322,-5.5744c-0.92344,-1.79326 -1.91437,-5.58707 -1.91437,-5.58707" fill="none" stroke-linecap="round"/><path d="M250.56871,167.60989c0,0 -3.62767,-4.47072 -4.80938,-6.36391c-0.87311,-1.39881 -1.63953,-3.96783 -1.63953,-3.96783" fill="none" stroke-linecap="round"/><path d="M238.06444,167.48886c0,0 2.76157,-4.19653 4.72044,-5.79685c1.70419,-1.39227 6.37549,-3.26814 6.37549,-3.26814" fill="none" stroke-linecap="round"/><path d="M242.14938,171.18693c0,0 3.33029,-4.41889 5.06863,-6.15908c1.35131,-1.35273 4.49591,-3.4155 4.49591,-3.4155" fill="none" stroke-linecap="round"/></g><path d="M257.55727,174.58005c1.22034,2.4193 0.38321,5.58973 -1.8698,7.08138c-2.253,1.49165 -4.91596,1.52329 -6.1363,-0.89602c-1.22034,-2.4193 -0.53597,-6.37341 1.71704,-7.86505c2.253,-1.49165 5.0687,-0.73962 6.28906,1.67969z" fill="#ffab19" stroke-linecap="butt"/></g><path d="M213.45338,182.99379c-0.23328,-0.71502 -1.6237,-11.59788 -4.6898,-11.2931c-3.64167,0.30989 -9.40965,1.86462 -10.82569,-3.6745c-1.41605,-5.53912 8.68245,-6.09133 12.43192,-5.50002c8.62695,1.84344 10.34873,11.17351 10.50707,13.48531c0.15835,2.3118 0.49816,6.26436 -1.13296,8.68455c-1.85345,2.53783 -5.58525,0.85915 -6.29053,-1.70224z" fill="#ff0000" fill-rule="evenodd" stroke="#001026" stroke-width="1.2" stroke-linecap="round" stroke-linejoin="round"/></g></g></svg>