<svg version="1.1" xmlns="http://www.w3.org/2000/svg" xmlns:xlink="http://www.w3.org/1999/xlink" width="112.65274" height="89.33582" viewBox="0,0,112.65274,89.33582"><defs><radialGradient cx="270.07565" cy="215.1377" r="8.35843" gradientUnits="userSpaceOnUse" id="color-1"><stop offset="0" stop-color="#54606d"/><stop offset="1" stop-color="#2c3136"/></radialGradient></defs><g transform="translate(-187.98455,-147.32781)"><g data-paper-data="{&quot;isPaintingLayer&quot;:true}" stroke-miterlimit="10" stroke-dasharray="" stroke-dashoffset="0" style="mix-blend-mode: normal"><path d="M250.02931,207.32334c-0.12428,3.71294 2.34159,6.87967 0.94503,8.93276c-0.91146,1.33993 -2.52494,2.38704 -3.67598,2.41785c-1.28289,0.03433 -3.44874,-1.09941 -4.30975,-2.67721c-1.09519,-2.00689 -3.62934,-4.95561 -3.51437,-8.39094c0.10145,-3.03036 2.93883,-6.36048 3.94036,-8.38993c1.02645,-2.07997 3.15232,-2.72342 4.62757,-2.7629c1.59273,-0.04262 3.25139,0.71037 4.14042,3.03308c0.73791,1.92789 -2.06011,5.0542 -2.15327,7.83728z" fill="#ffab19" fill-rule="nonzero" stroke="#001026" stroke-width="1.2" stroke-linecap="butt" stroke-linejoin="miter"/><g fill-rule="nonzero" stroke="#001026" stroke-width="1.2" stroke-linejoin="miter"><g><path d="M240.88809,209.35038l23.25886,-2.21278l0.55533,12.51976l-22.71278,-3.4273c0,0 -1.92511,-1.94885 -2.10297,-3.05978c-0.18865,-1.17833 1.00155,-3.8199 1.00155,-3.8199z" fill="#505a63" stroke-linecap="butt"/><path d="M265.57771,206.48256c4.33138,0.15885 7.98106,3.40759 8.15178,7.2562c0.17073,3.84863 -3.20217,6.83978 -7.53355,6.68089c-4.33138,-0.15885 -7.98109,-3.4076 -8.15178,-7.25621c-0.17073,-3.84863 3.20218,-6.83977 7.53357,-6.6809z" fill="url(#color-1)" stroke-linecap="butt"/><path d="M259.04724,210.2377c0,0 4.80452,-0.68204 7.10412,-0.6209c2.14921,0.05716 6.27273,0.97662 6.27273,0.97662" fill="none" stroke-linecap="round"/><path d="M259.48705,216.7294c0,0 5.94089,-0.957 8.30079,-1.06822c1.74364,-0.08216 4.57788,0.46134 4.57788,0.46134" fill="none" stroke-linecap="round"/><path d="M265.10263,206.41255c0,0 2.8651,4.21708 3.55945,6.57657c0.60407,2.05273 0.37367,6.78869 0.37367,6.78869" fill="none" stroke-linecap="round"/><path d="M259.71174,208.10354c0,0 2.83121,4.79089 3.75844,7.03165c0.7208,1.74187 1.34333,5.2972 1.34333,5.2972" fill="none" stroke-linecap="round"/></g><path d="M249.63878,219.32697c-2.8883,-0.09825 -5.60212,-2.24795 -6.06149,-4.80156c-0.45938,-2.55361 0.68071,-4.77706 3.56904,-4.67882c2.8883,0.09825 6.43107,2.48097 6.89041,5.03457c0.45938,2.55361 -1.50966,4.54404 -4.39798,4.4458z" fill="#ffab19" stroke-linecap="butt"/></g><path d="M237.40611,204.99569c0.21783,0.63994 0.65345,1.82853 1.12231,3.41284c0.89039,3.00864 1.90067,7.44434 1.76693,12.25959l-0.03893,0.36459c-0.03893,0.36459 0.42561,0.6756 0.92905,0.622c3.20382,-0.74158 9.50159,-1.97274 9.3159,3.13341c-0.11245,4.93814 -18.90282,9.22142 -21.34426,4.63526c-0.80996,-1.99639 0.56543,-3.22416 1.32524,-3.86574c0.3982,-0.36279 0.5813,-0.78279 0.65686,-1.23138c0.00922,-1.12239 -0.04556,-3.19916 -0.391,-4.88455c-0.79152,-4.24116 -1.39329,-5.33856 -2.27419,-7.44753c-0.88091,-2.10898 -3.17584,-7.03114 1.62079,-9.22389c4.07577,-1.91576 6.64321,0.45422 7.3113,2.2254z" fill="#ffab19" fill-rule="evenodd" stroke="#001026" stroke-width="1.2" stroke-linecap="round" stroke-linejoin="round"/><path d="M230.94463,212.05922c-0.23628,0.63593 -0.64857,1.82959 -1.29386,3.3756c-1.22543,2.93591 -3.29114,7.14246 -6.58758,11.21303l-0.27426,0.2966c-0.27426,0.2966 -0.08189,0.75022 0.38476,0.90723c3.23423,0.65612 9.44207,2.13994 5.90894,6.43873c-3.3594,4.1844 -22.2845,0.27966 -21.3452,-4.63261c0.62542,-2.03646 2.6148,-2.53373 3.68957,-2.77703c0.5808,-0.15025 1.01516,-0.4362 1.37631,-0.78999c0.74957,-0.95767 2.07495,-2.75859 2.89275,-4.34142c2.12455,-3.95177 2.33425,-5.13427 2.97331,-7.29575c0.63905,-2.16149 1.92587,-7.30251 7.48333,-7.24738c4.75699,0.00182 5.39004,3.06664 4.79191,4.85301z" fill="#ffab19" fill-rule="evenodd" stroke="#001026" stroke-width="1.2" stroke-linecap="round" stroke-linejoin="round"/><g fill-rule="evenodd"><path d="M224.39765,207.30798c0.89028,0.3827 2.77985,1.24026 -0.0974,4.17077c-2.87726,2.9305 -10.74208,3.30931 -11.65032,3.28127c-3.52385,-0.01999 -7.8379,-0.15318 -12.54324,-1.54169c-13.67088,-3.97421 -13.1965,-15.59285 -8.67469,-17.31812c4.40829,-1.72878 5.97476,5.51269 11.9989,10.05004c2.62594,2.03476 5.88234,2.84572 8.58456,3.37315c3.83301,0.65116 11.38286,-2.49028 12.38218,-2.01542z" fill="#ffab19" stroke="#001026" stroke-width="1.2" stroke-linecap="round" stroke-linejoin="round"/><path d="M196.60625,199.25688c1.69528,2.45003 5.0441,5.92797 5.0441,5.92797c0,0 -4.16014,-0.92766 -6.62052,0.50603c-1.98831,1.09306 -1.63293,3.05772 -1.4373,3.68538c-1.41752,-1.19821 -3.15317,-2.85026 -4.13139,-5.9886c-0.97821,-3.13833 0.34556,-6.82721 2.64303,-7.28911c2.28851,-0.28456 2.78883,1.06294 4.50205,3.15833z" fill="#ffffff" stroke="none" stroke-width="1" stroke-linecap="butt" stroke-linejoin="miter"/></g><g fill-rule="evenodd"><path d="M226.73674,212.3386c-10.84839,-6.27263 -3.62139,-10.18092 -1.32263,-14.72602c2.18161,-3.90563 3.54322,-3.33486 10.48222,-3.00281c3.90431,0.02993 6.2019,0.05269 8.66288,-0.30028c3.69919,-0.48551 3.7643,3.80659 3.13688,6.11284c0,0 -1.00512,3.42145 -2.17534,5.24841c-1.44621,2.21476 -2.56557,3.67804 -3.77752,4.61384c0,0 -2.60419,2.01173 -5.22356,2.37027c-2.35452,0.32227 -9.78293,-0.31623 -9.78293,-0.31623z" fill="#ffab19" stroke="#001026" stroke-width="1.2" stroke-linecap="round" stroke-linejoin="round"/><path d="M240.71472,210.30508c0,0 -1.87358,-0.87422 -3.90603,-2.00014c-2.52896,-1.34147 -5.01166,-2.41918 -3.23861,-5.38544c1.65592,-2.32677 3.07585,-5.34479 8.58862,-3.33751c5.25678,1.85557 3.50373,4.2823 3.50373,4.2823c-1.78221,4.22112 -4.94775,6.44078 -4.94775,6.44078z" fill="#ffffff" stroke="none" stroke-width="1" stroke-linecap="butt" stroke-linejoin="miter"/></g><g><path d="M274.83977,154.93273c0.39431,-0.08682 0.89967,0.13428 0.86762,0.49929l-0.93848,9.74352c0,0 5.27057,5.71734 6.16799,9.02257c1.53173,5.51783 0.06332,9.34397 0.06332,9.34397c0,0 6.93803,3.71386 6.23807,8.85375c-0.69993,5.13989 -9.23908,13.05407 -30.85443,11.03775c-21.61534,-2.01632 -36.14879,-10.44986 -39.82868,-22.01458c-3.67989,-11.56472 13.18963,-19.98352 12.26088,-19.47222c0,0 4.46586,-13.74111 4.82811,-13.46293l10.52307,7.5517c0,0 5.45918,-0.20483 10.60904,0.91127c3.09632,0.59667 5.62017,1.42164 7.96591,2.38812z" fill="#ffab19" fill-rule="evenodd" stroke="#001026" stroke-width="1.2" stroke-linecap="butt" stroke-linejoin="miter"/><path d="M280.53588,183.79775c0,0 6.82695,3.40593 6.12701,8.54582c-0.69993,5.13989 -9.49623,12.52263 -30.86037,10.47655c-27.04933,-2.3216 -34.81822,-16.76701 -25.29476,-24.13313c0.302,-0.2336 0.6214,-0.46007 0.95812,-0.67882c4.66112,-3.05412 7.3838,-1.31946 11.55285,0.0472c5.66068,1.85564 12.61801,4.33705 17.96726,5.36785c7.95696,1.54634 11.02871,-3.55326 19.5499,0.37451z" fill="#ffffff" fill-rule="evenodd" stroke="none" stroke-width="1" stroke-linecap="butt" stroke-linejoin="miter"/><path d="M300.03728,189.75677c-6.41105,1.92292 -14.22785,0.03892 -14.22785,0.03892" fill="none" fill-rule="evenodd" stroke="#001026" stroke-width="1.2" stroke-linecap="round" stroke-linejoin="round"/><path d="M294.70849,198.85616c-6.98424,-1.30029 -10.53372,-3.97045 -10.53372,-3.97045" fill="none" fill-rule="evenodd" stroke="#001026" stroke-width="1.2" stroke-linecap="round" stroke-linejoin="round"/><path d="M261.4645,181.11903c2.26968,0.57412 4.57739,1.34443 4.44024,1.96269c-0.38238,1.20919 -2.98452,3.1628 -4.74884,2.80979c-2.01552,-0.32328 -5.67905,-3.58196 -5.11852,-4.93265c0.31233,-1.04034 3.26552,-0.3866 5.42713,0.16018z" fill="#001026" fill-rule="evenodd" stroke="#001026" stroke-width="1.2" stroke-linecap="round" stroke-linejoin="round"/><path d="M213.35385,167.55009c0,0 8.31398,4.71487 11.01073,8.2887" fill="none" fill-rule="evenodd" stroke="#001026" stroke-width="1.2" stroke-linecap="round" stroke-linejoin="round"/><path d="M223.46268,178.87544c-5.24301,0.25952 -12.8556,-2.69219 -12.8556,-2.69219" fill="none" fill-rule="evenodd" stroke="#001026" stroke-width="1.2" stroke-linecap="round" stroke-linejoin="round"/><g fill="none" fill-rule="nonzero" stroke="none" stroke-width="1" stroke-linecap="butt" stroke-linejoin="miter" font-family="sans-serif" font-weight="normal" font-size="12" text-anchor="start"/><g fill="none" fill-rule="nonzero" stroke="none" stroke-width="1" stroke-linecap="butt" stroke-linejoin="miter" font-family="sans-serif" font-weight="normal" font-size="12" text-anchor="start"/></g><g fill-rule="nonzero" stroke="#001026" stroke-width="1.2" stroke-linecap="butt" stroke-linejoin="miter"><path d="M244.78888,163.19438c-3.02328,3.30603 -27.31346,4.76058 -27.31346,4.76058c0,0 -3.06319,-0.88832 -4.48093,-1.36678c-10.61791,-3.58339 -16.78415,-8.31782 -14.117,-11.23441c3.02328,-3.30603 16.25159,-3.02438 29.54622,0.62905c13.29465,3.65342 19.38844,3.90554 16.36515,7.21155z" fill="#00b0f7"/><path d="M229.70679,155.29377l-11.45915,-6.29701c0,0 17.86899,-1.52076 27.08812,-0.93449c11.14998,0.70905 35.12733,4.89095 35.12733,4.89095l-21.31879,11.30985z" fill="#ff2b2b"/><path d="M214.43076,168.08091c0,0 -0.6285,-6.99719 -0.01637,-10.16679c0.59386,-3.07498 3.63599,-8.57558 3.63599,-8.57558l29.76391,3.50028c0,0 -2.02502,6.64122 -2.64543,9.85377c-0.58389,3.02341 -0.97416,8.88861 -0.97416,8.88861z" data-paper-data="{&quot;index&quot;:null}" fill="#cc0000"/><path d="M243.73541,171.46881c0,0 1.07723,-5.82677 1.17067,-8.88343c0.09929,-3.24787 -0.59138,-10.06497 -0.59138,-10.06497l36.84163,0.67964c0,0 2.21913,5.83542 2.1241,8.94419c-0.09797,3.20444 -2.70342,10.00418 -2.70342,10.00418z" fill="#f70000"/></g><path d="M225.5736,204.03081c-1.67701,3.42699 -0.70707,7.13914 -2.8736,8.62661c-1.41396,0.97078 -3.36,1.45283 -4.44717,1.12833c-1.2117,-0.36167 -2.75635,-2.08444 -2.89655,-3.82118c-0.17835,-2.20906 -1.30365,-5.73871 0.24794,-8.90947c1.36871,-2.79698 5.41679,-5.03406 7.20472,-6.6207c1.83241,-1.62614 4.08692,-1.57422 5.48031,-1.15831c1.50435,0.44903 2.73573,1.6608 2.58891,4.10134c-0.12187,2.02568 -4.04753,4.08464 -5.30455,6.65338z" fill="#ffab19" fill-rule="nonzero" stroke="#001026" stroke-width="1.2" stroke-linecap="butt" stroke-linejoin="miter"/><path d="M252.75244,192.52245c0.20067,-1.59384 2.35489,-2.35784 4.81158,-1.70645c2.45669,0.65139 4.28556,2.47151 4.0849,4.06534c-0.20067,1.59382 -2.20191,1.14272 -4.6586,0.49133c-2.45669,-0.65139 -4.43855,-1.25639 -4.23788,-2.85023z" data-paper-data="{&quot;index&quot;:null}" fill="#ffffff" fill-rule="nonzero" stroke="#001026" stroke-width="1.2" stroke-linecap="butt" stroke-linejoin="miter"/><path d="M264.79313,174.76667c0.97478,-4.61557 6.14437,-7.68209 11.54662,-6.84925c5.40223,0.83283 8.9914,5.24964 8.01662,9.86522c-0.97478,4.61557 -6.14437,7.68209 -11.54662,6.84925c-5.40223,-0.83283 -8.9914,-5.24964 -8.01662,-9.86522z" fill="#ffffff" fill-rule="nonzero" stroke="#001026" stroke-width="1.2" stroke-linecap="butt" stroke-linejoin="miter"/><path d="M237.11579,171.91187c0.97478,-4.61557 6.14437,-7.68209 11.54662,-6.84925c5.40223,0.83283 8.99139,5.24964 8.01661,9.86522c-0.97478,4.61557 -6.14436,7.6821 -11.5466,6.84926c-5.40223,-0.83283 -8.9914,-5.24964 -8.01662,-9.86522z" fill="#ffffff" fill-rule="nonzero" stroke="#001026" stroke-width="1.2" stroke-linecap="butt" stroke-linejoin="miter"/></g></g></svg>