<svg version="1.1" xmlns="http://www.w3.org/2000/svg" xmlns:xlink="http://www.w3.org/1999/xlink" width="164.17482" height="157.49724" viewBox="0,0,164.17482,157.49724"><g transform="translate(-257.88416,-232.45791)"><g data-paper-data="{&quot;isPaintingLayer&quot;:true}" fill="#000000" fill-rule="nonzero" stroke="none" stroke-width="0.5" stroke-linecap="butt" stroke-linejoin="miter" stroke-miterlimit="10" stroke-dasharray="" stroke-dashoffset="0" style="mix-blend-mode: normal"><path d="M286.5885,300.98797c-0.23335,-2.35622 -0.25644,-4.53517 0.00202,-6.88913c0,0 0.04919,-0.44269 0.32127,-0.85658c-0.50368,-0.19554 -1.01294,-0.38049 -1.52938,-0.55174c-5.41932,-1.79696 -11.20988,-2.99291 -16.67718,-4.86396c0.15653,4.41064 0.68976,8.81108 1.54972,13.1145c4.43357,17.86829 16.26672,33.6004 33.50956,40.93219c6.31721,2.36714 12.20201,3.15559 18.74683,4.24251c7.85008,1.30368 16.5382,1.88109 24.41847,0.44229c0,0 1.72177,-0.31304 2.03482,1.40873c0.31305,1.72177 -1.40873,2.03482 -1.40873,2.03482c-1.28412,0.23255 -2.58825,0.41576 -3.90607,0.55416l0.11443,0.11801c7.58549,0.96404 13.88317,-0.51081 20.83522,-3.35135c4.54713,-1.85791 8.16138,-3.11945 11.75611,-6.71094c9.50822,-12.73354 16.05452,-26.64047 15.14011,-42.6502c-0.53573,0.11107 -1.06011,0.23562 -1.56157,0.39388c-10.44087,3.29521 -21.01534,3.98508 -31.95981,3.98947c-2.0115,0.18286 -4.02708,0.29547 -6.04509,0.36346c-0.03848,0.50027 -0.07697,1.00055 -0.11545,1.50082l0.00303,0.94395c1.96391,-0.00819 3.92044,-0.00208 5.86082,-0.00208l-0.34784,-0.03264c0,0 1.56525,-0.78262 2.34787,0.78262c0.78262,1.56525 -0.78262,2.34787 -0.78262,2.34787l-1.21741,0.40214c-9.60014,0 -19.64018,-0.20598 -28.92339,2.12166c0,0 -1.69775,0.42444 -2.12219,-1.27331c-0.42444,-1.69775 1.27331,-2.12219 1.27331,-2.12219c1.72043,-0.42874 3.46482,-0.77528 5.22642,-1.05531c-0.03024,-0.17345 -0.03024,-0.29042 -0.03024,-0.29042l0.04482,-1.48046c0.12326,-0.53411 0.24651,-1.06823 0.36977,-1.60234c-1.92715,0.00655 -3.8323,-0.25847 -5.08963,-1.52024c-2.97561,-2.98612 -3.62144,-8.07753 -4.01844,-12.04892l-0.00066,-0.6179c-0.14836,-1.16344 -0.52785,-3.55695 -0.0857,-4.4868c1.0203,-2.14566 2.70362,-2.73483 4.63198,-3.55129c3.32632,-1.40836 7.38875,-3.11511 11.13274,-2.74632c1.10806,0.10914 2.45694,0.01163 3.243,0.80019c0.55215,0.55391 -0.7567,2.9511 0.66744,2.69347c5.84136,-1.05671 11.96121,-3.38903 17.45313,-5.57034c8.28698,-2.48581 16.54597,-5.00296 24.956,-7.00703c0.45667,-0.10882 0.91849,-0.20283 1.38298,-0.28929c-2.63714,-8.58599 -7.04873,-16.39087 -14.21707,-21.75949c-3.53909,-2.76629 -7.61389,-4.32954 -11.79883,-5.86404c-12.79743,-4.69248 -25.95815,-5.68639 -39.46308,-4.64755c-10.17992,0.00491 -19.39531,1.20163 -29.0523,4.54862c-7.01184,2.43022 -13.51189,5.72797 -16.63103,12.761c-0.89442,1.53333 -1.70708,3.10244 -2.44119,4.70178c1.01315,0.88173 1.99361,1.79394 3.06543,2.62621c3.79686,2.94826 7.47752,5.77831 10.82888,9.29334c2.69228,2.82377 4.36038,5.15565 7.85174,7.11396c0.94465,-0.01133 2.29755,0.65894 2.8316,-0.12034c0.76758,-1.12005 0.30439,-3.10106 1.46886,-3.79943c0.91056,-0.5461 2.12325,-0.0362 3.18499,-0.0442c2.27409,-0.01712 5.68859,-0.23123 7.67019,1.19412c2.37323,1.70706 2.03504,4.57259 2.03611,7.07544c0.00192,4.50644 0.06229,8.74141 -1.63044,12.99846c-0.54629,1.37386 -1.83381,3.97432 -3.30135,4.67839c-0.85327,0.40937 -2.06602,0.43158 -3.32908,0.29591c0,0.24096 0,0.48193 0,0.72289v1.07609c1.51812,0 3.03623,0 4.55435,0h1.30435c0,0 1.75,0 1.75,1.75c0,1.75 -1.75,1.75 -1.75,1.75c-7.46377,0 -16.23188,0 -23.69565,0c0,0 -1.75,0 -1.75,-1.75c0,-1.27246 0.92523,-1.61969 1.43018,-1.71444zM290.07113,300.63971l0.17383,0.61926c0,0 0.01862,0.07449 0.03246,0.19618c3.695,0 7.39,0 11.085,0c0,-0.71083 0,-1.72762 0,-2.42265c-0.37012,-0.07835 -0.71107,-0.14934 -1.01024,-0.20364c-3.68571,-0.92217 -6.94058,-2.67038 -10.29568,-4.22937c-0.22422,2.06828 -0.19529,3.96278 0.01463,6.04023zM261.08377,284.497c-0.51605,0.45815 -1.23222,0.45815 -1.23222,0.45815l-1.96739,-1.75c0,-3.03451 0.31921,-5.68416 0.91638,-8.66294c1.35984,-4.97721 3.35486,-9.86004 5.56753,-14.50052c0.92565,-1.94129 1.52389,-5.00886 4.27803,-5.53905c1.03382,-0.19902 1.8038,1.08461 2.69184,1.65214c0.66582,-1.39355 1.38959,-2.76379 2.17326,-4.10719c2.91306,-6.54081 8.64597,-10.83868 15.32153,-13.24351c11.12849,-4.00898 21.49941,-5.97461 33.34296,-5.96861c13.95808,-1.0737 27.59228,0.02071 40.81563,4.86383c4.52096,1.65582 8.86957,3.39387 12.70507,6.36371c7.88058,5.91841 12.70101,14.51021 15.53624,23.9314c0.52794,-0.10635 1.05148,-0.22612 1.56697,-0.37006c0.9293,-0.2595 1.79884,-1.14619 2.73993,-0.9334c1.15435,0.26101 2.1814,1.17543 2.79804,2.18558c0.60885,0.9974 0.45872,2.29233 0.64013,3.44671c0.49963,3.17943 0.66367,6.72971 0.66621,9.94996c0.25796,3.61142 1.60238,10.5165 -1.44114,13.31367c-0.92747,0.8524 -2.05281,1.3274 -3.24518,1.65349c0.70917,10.29492 -1.5231,19.83046 -5.62966,28.73789c4.47087,3.17133 7.79426,8.51677 11.23037,12.72069c6.26033,7.65924 12.3885,15.87751 16.08688,25.12317c0.34702,0.62325 0.69404,1.24651 1.04106,1.86976l0.21321,0.58183c1.20281,1.3694 2.28229,2.87024 2.93176,4.56017c0.96898,2.52131 2.04274,8.56487 0.30261,11.09933c-1.69606,2.47025 -3.45997,2.88663 -6.04736,3.9757c-7.31597,3.07941 -14.98331,4.04624 -22.8436,4.04625c-9.327,0 -19.09848,-1.74207 -27.05629,-7.03211c-3.45799,-2.29873 -8.04843,-5.7065 -5.81761,-10.49184c1.47725,-3.16886 6.4097,-5.91348 9.1186,-7.9394c3.68063,-3.69424 5.82597,-7.26412 5.07138,-12.74547c-0.18138,-1.31757 -1.06193,-2.54942 -1.8248,-3.70758c-1.79004,0.88561 -3.68587,1.65284 -5.76094,2.50283c-7.53267,3.08553 -14.44177,4.6152 -22.64304,3.60517l-1.77026,-0.88805c0,0 -1.50062,-0.90037 -0.60025,-2.40098c0.01742,-0.02904 0.03507,-0.05717 0.05293,-0.08443c-6.35954,0.38638 -12.93478,-0.178 -19.03818,-1.19896c-6.80613,-1.13851 -12.94661,-1.98854 -19.51404,-4.45314c-18.2984,-7.89617 -30.89643,-24.34189 -35.62088,-43.41564c-0.9973,-4.98239 -1.57656,-10.09698 -1.66684,-15.21645c-1.4005,-0.58935 -2.76774,-1.24551 -4.08885,-1.99211zM348.3241,303.94049c0.02959,-0.38469 0.05918,-0.76937 0.08877,-1.15406c-3.57684,0.04398 -7.1583,-0.0052 -10.73523,-0.0052c-0.17263,0 -0.35055,0.00327 -0.53298,0.00889c-0.19597,0.84922 -0.39195,1.69844 -0.58792,2.54766l0.03344,0.51743c3.87266,-0.43515 7.80593,-0.60419 11.73049,-0.6685zM377.01374,351.1857c1.04892,6.61989 -1.75684,11.48805 -6.23298,15.95018c-2.35172,1.76857 -4.96803,3.54315 -7.08941,5.57387c-0.85005,0.81372 -1.52957,1.27254 -1.44332,2.52826c0.1737,2.52882 5.32003,5.04929 7.10288,5.97783c7.28311,3.79316 14.77198,5.23931 22.89194,5.23931c6.78308,0.00001 12.98206,-0.79973 19.44389,-2.95277c2.12079,-0.70664 5.04479,-1.4903 6.44775,-3.3731c1.11822,-1.50068 -0.01122,-6.58765 -0.56696,-8.03111c-0.49127,-1.27603 -1.32826,-2.43162 -2.25626,-3.48647c-0.14369,-0.12041 -0.25817,-0.25704 -0.3469,-0.38559c-0.44574,-0.48519 -0.9047,-0.94857 -1.35027,-1.39222c0,0 -0.95991,-0.95992 -0.3434,-2.03429c-3.99234,-9.67405 -10.68267,-17.65244 -16.98381,-25.89231c-2.4083,-3.14928 -5.24068,-7.32121 -8.51337,-9.75519c-2.4663,4.75788 -5.44792,9.33507 -8.77384,13.7526c-1.3952,1.39616 -2.7907,2.49706 -4.23194,3.42705c0.94678,1.52758 1.9567,3.02815 2.24599,4.85395z"/><path d="M374.63416,323.43341c-1.75,0 -1.75,-1.75 -1.75,-1.75l0.01351,-0.8699c-0.21988,-1.78708 -0.36732,-4.16374 -2.22956,-5.13717c-0.95938,-0.50149 -3.75242,0.81512 -4.51926,1.11207c-4.6453,1.79882 -7.50182,4.65402 -12.81904,4.68847c-6.06682,0 -12.44448,-0.32167 -18.46124,0.41901c-7.6578,0.9427 -16.274,5.34393 -22.84443,9.13302c0,0 -1.51943,0.86824 -2.38767,-0.65118c-0.86824,-1.51943 0.65118,-2.38767 0.65118,-2.38767c7.04806,-3.99632 15.94734,-8.52868 24.1121,-9.56263c6.16395,-0.78057 12.71286,-0.45055 18.93006,-0.45055c1.40083,0.01104 2.86089,-0.03591 4.1677,-0.54058c5.47856,-2.11577 14.35997,-10.05528 18.1083,-0.97057c0.50045,1.21293 0.6022,2.6304 0.76484,3.91366l0.01351,1.30402c0,0 0,1.75 -1.75,1.75z"/></g></g></svg>