<svg version="1.1" xmlns="http://www.w3.org/2000/svg" xmlns:xlink="http://www.w3.org/1999/xlink" width="71.96517" height="85.81461" viewBox="0,0,71.96517,85.81461"><defs><radialGradient cx="265.94045" cy="175.99021" r="7.3567" gradientUnits="userSpaceOnUse" id="color-1"><stop offset="0" stop-color="#54606d"/><stop offset="1" stop-color="#2c3136"/></radialGradient></defs><g transform="translate(-205.71047,-154.42021)"><g data-paper-data="{&quot;isPaintingLayer&quot;:true}" fill-rule="nonzero" stroke-linejoin="miter" stroke-miterlimit="10" stroke-dasharray="" stroke-dashoffset="0" style="mix-blend-mode: normal"><g stroke="none" stroke-width="0.5" stroke-linecap="butt"><path d="M242.25143,208.37734c5.29139,7.96078 13.64137,12.91349 15.28106,5.94211c0.0882,-2.9262 -3.37046,-5.48684 -6.04134,-6.8316c-0.88266,-0.4444 -0.55475,0.73877 -0.9753,1.15747c-1.23741,1.2319 -3.58238,-0.27355 -5.30778,-2.36614c-1.31485,0.00835 -2.90338,-0.37018 -4.44532,-1.06831c0.77914,1.15706 1.1473,1.98755 1.4887,3.16648zM251.21371,205.87772c3.67178,1.2124 7.94902,5.86602 7.83739,9.49334c-1.87113,8.19709 -11.98747,2.6068 -18.08816,-6.95545c-0.34406,-1.0727 -0.52773,-1.71861 -1.25455,-2.75541l-0.40264,-1.20716c0,0 -0.00093,-0.00379 -0.00244,-0.01076c-0.88521,-0.53646 -1.71693,-1.17967 -2.42646,-1.91524c-2.53165,-2.62452 -2.28261,-7.48152 -1.25764,-9.43404c0.25632,-1.86576 2.39658,-2.52148 4.72841,-0.21907c1.5918,1.57172 1.7652,3.7157 2.64949,5.4892c1.37334,2.75431 2.88567,4.11462 5.17479,6.24798c-0.2091,0.79159 -0.83067,1.28501 -1.69989,1.51486c2.41861,2.83099 2.72128,-0.91538 4.74168,-0.24826zM236.73685,196.41921c0.00904,0.22117 0.02064,0.45301 0.02839,0.69611c0.029,0.90943 -0.46048,2.02046 -0.25961,2.99933c0.22056,1.07484 1.79972,2.01438 2.4995,2.44243c2.15756,1.31976 3.84019,1.67264 5.56006,1.83861c0.1576,-0.06644 0.31954,-0.0345 0.46783,0.04101c0.58803,0.04706 1.18571,0.08071 1.81312,0.13149c-2.49803,-1.07507 -4.65631,-4.79687 -5.61845,-7.33577c-0.28118,-0.74199 -0.78934,-2.72625 -1.45291,-3.32835c-0.90889,-0.82471 -1.87927,-0.84888 -2.39586,-0.4109c0.035,0.19362 0.00535,0.32168 0.00535,0.32168l-0.1139,0.29603c-0.10513,0.11233 -0.19097,0.22991 -0.26078,0.35305c0.03622,0.41407 0.25536,0.90292 0.72428,1.42261c0,0 0.64138,0.77506 0.22617,1.15032c-0.41521,0.37525 -1.05659,-0.39981 -1.05659,-0.39981c-0.0576,-0.07288 -0.11312,-0.14549 -0.16659,-0.21783z" fill="#000000"/><path d="M236.9539,196.67328c0,0 0.54136,0.69855 0.95657,0.32329c0.41521,-0.37525 -0.22245,-1.15825 -0.22245,-1.15825c-0.46893,-0.51969 -0.68535,-1.01166 -0.72157,-1.42574c0.06981,-0.12314 0.15863,-0.24306 0.26376,-0.35541l0.11593,-0.2972c0,0 0.03103,-0.1287 -0.00397,-0.32231c0.51659,-0.43797 1.50553,-0.41481 2.41443,0.4099c0.66356,0.6021 1.17958,2.58873 1.46076,3.33072c0.96213,2.53889 3.17952,6.35744 5.67755,7.43251c-0.6274,-0.05078 -1.2334,-0.0736 -1.82143,-0.12067c-0.14829,-0.0755 -0.31431,-0.1053 -0.47191,-0.03885c-1.71987,-0.16597 -3.46702,-0.55001 -5.62457,-1.86976c-0.69977,-0.42805 -2.29444,-1.39226 -2.515,-2.46712c-0.20086,-0.97886 0.28133,-2.12039 0.25233,-3.02981c-0.00775,-0.24309 -0.01872,-0.48133 -0.02777,-0.70249c0.05348,0.07234 0.20975,0.21833 0.26735,0.29119z" data-paper-data="{&quot;noHover&quot;:false,&quot;origItem&quot;:[&quot;Path&quot;,{&quot;applyMatrix&quot;:true,&quot;selected&quot;:true,&quot;segments&quot;:[[[235.10618,192.13453],[0.05114,0.04349],[0.0019,0.2201],7],[[235.11209,192.82729],[0.0001,-0.24314],[-0.00037,0.90964],7],[[234.75562,196.02773],[-0.16925,-0.88337],[0.18585,0.96999],7],[[237.17624,197.10449],[-0.68595,-0.04105],[2.11494,0.12655],7],[[242.67691,195.83971],[-1.71451,0.80133],[0.15975,-0.15657],7],[[243.14342,195.61752],[-0.14585,0.00678],[0.58651,-0.28383],7],[[244.95229,194.72849],[-0.62576,0.30226],[-2.46331,0.31469],7],[[239.57075,190.42889],[0.88014,2.04233],[-0.25722,-0.59687],7],[[238.22533,187.85961],[0.64412,0.2387],[-0.88226,-0.32695],7],[[235.84273,188.79292],[0.53073,-0.7374],[0.02875,0.1774],7],[[235.8377,189.11744],[0,0],[0,0],7],[[235.71424,189.48313],[0,0],[-0.10876,0.17369],7],[[235.44206,189.98973],[0.07379,-0.16477],[0.02285,0.40118],7],[[236.1204,191.02963],[-0.45215,-0.2646],[0,0],7],[[236.30942,192.07331],[0.42733,-0.61635],[-0.42733,0.61635],7],[[235.26574,192.26234],[0,0],[-0.05525,-0.0417],7]],&quot;closed&quot;:true}]}" fill="#0032ff"/><path d="M240.71184,205.17894c1.54194,0.69813 3.13606,1.05963 4.45092,1.05129c1.7254,2.09258 4.14041,3.61855 5.37781,2.38664c0.42056,-0.41867 0.09248,-1.60204 0.97514,-1.15764c2.67089,1.34476 6.15549,3.95734 6.06729,6.88354c-1.63968,6.97138 -10.089,1.98083 -15.38039,-5.97994c-0.3414,-1.17893 -0.71164,-2.02685 -1.49077,-3.18391z" data-paper-data="{&quot;noHover&quot;:false,&quot;origItem&quot;:[&quot;Path&quot;,{&quot;applyMatrix&quot;:true,&quot;selected&quot;:true,&quot;segments&quot;:[[[240.23457,201.19932],[-0.30333,-1.00779],[5.0343,5.12051],7],[[255.32372,198.62839],[-1.86482,8.02348],[0.1827,-3.02928],7],[[249.503,195.08075],[2.62746,-0.13761],[-0.86831,0.04548],7],[[248.49032,196.80954],[0.43408,-0.66358],[-1.27719,1.95247],7],[[243.25895,197.39485],[1.65782,1.15727],[-1.31512,0.75032],7],[[238.84813,198.81506],[1.51939,-0.15908],[0.74177,0.73856],7]],&quot;closed&quot;:true}]}" fill="#fff1e2"/></g><g stroke="#001026" stroke-width="1.2"><path d="M251.72652,199.69088l4.6696,-21.68653l12.37566,4.64059l-10.01101,18.88463c0,0 -2.4662,0.92023 -3.60209,0.62331c-1.20481,-0.31493 -3.43217,-2.462 -3.43217,-2.462z" fill="#505a63" stroke-linecap="butt"/><path d="M256.17719,176.4574c1.42653,-3.80433 5.66699,-5.73191 9.47131,-4.30538c3.80433,1.42653 5.73191,5.667 4.30538,9.47131c-1.42653,3.80433 -5.667,5.73192 -9.47132,4.30538c-3.80433,-1.42653 -5.7319,-5.667 -4.30537,-9.47133z" fill="url(#color-1)" stroke-linecap="butt"/><path d="M257.92304,183.83218c0,0 0.74516,-4.57204 1.4799,-6.60132c0.6867,-1.89657 2.79416,-5.20315 2.79416,-5.20315" fill="none" stroke-linecap="round"/><path d="M264.3846,186.10275c0,0 0.81054,-5.70004 1.39485,-7.85391c0.43174,-1.59141 1.79395,-3.90044 1.79395,-3.90044" fill="none" stroke-linecap="round"/><path d="M255.96942,176.8531c0,0 4.95472,-0.82937 7.46017,-0.4816c2.17971,0.30255 6.73184,2.4515 6.73184,2.4515" fill="none" stroke-linecap="round"/><path d="M256.03632,182.36291c0,0 5.50452,-0.56365 7.96252,-0.47267c1.91074,0.07073 5.56161,0.9733 5.56161,0.9733" fill="none" stroke-linecap="round"/></g><g stroke="none" stroke-width="0.5" stroke-linecap="butt"><path d="M259.70332,217.02869c0.52786,-0.01826 0.69685,0.34809 0.75063,0.56638c0.49314,-0.00959 1.0312,-0.2046 1.56983,-0.62854c1.03163,-0.81198 0.36379,-2.36889 -0.07693,-3.27955c-0.62815,1.46923 -2.0718,2.55279 -3.4317,2.48781c0.16621,0.42057 0.41704,0.76572 0.72706,1.01047c0.10563,-0.08679 0.25368,-0.14938 0.4611,-0.15656zM255.60805,221.15931l-0.0232,0.01101c0,0 -0.27996,0.00968 -0.50361,-0.15388c-2.67012,-0.04572 -3.78873,-3.21801 -2.10431,-5.57525c-2.4228,-2.46711 -1.3134,-9.19291 3.05938,-8.25147c0.84545,0.18202 1.41349,0.68778 1.7535,1.35279c1.5713,-0.827 3.70055,0.28062 4.3528,2.66069c0.01805,0.06587 0.0341,0.13175 0.04819,0.1976c0.40372,0.39126 0.72459,0.89501 0.98346,1.38233c0.82036,1.54428 1.46836,3.91123 -0.17201,5.32032c-0.86218,0.74062 -1.78921,1.03736 -2.65773,0.99273c-0.51365,2.01324 -2.42587,2.36028 -4.73647,2.06315zM260.42501,211.30328c0.03607,-0.10009 0.08124,-0.18087 0.13216,-0.24579c-0.43076,-1.102 -1.61564,-1.7234 -2.37111,-0.93063c0.06204,1.15772 -0.27306,2.40456 -0.85997,3.25606c0.36286,0.18828 0.37864,0.64448 0.37864,0.64448l-0.05816,-0.12974c0.7754,2.32435 2.90018,-0.4312 3.05587,-1.68217c0.00172,-0.01383 0.00332,-0.02764 0.00479,-0.04143c-0.19062,-0.12638 -0.45307,-0.39672 -0.2822,-0.87077zM257.90097,217.89767c-0.06931,0.14281 -0.1478,0.28637 -0.23588,0.4302l-1.32694,0.31058c0,0 -0.73835,0.13168 -0.87002,-0.60668c-0.13168,-0.73835 0.60668,-0.87002 0.60668,-0.87002l0.71785,-0.05407c0.11291,-0.30304 0.17665,-0.57204 0.19877,-0.80648c-0.05328,-0.16873 -0.0974,-0.34292 -0.13164,-0.52192l0.05818,-0.13947c-0.29175,-0.72973 -1.30994,-0.6885 -2.27777,0.17521c-0.05255,0.06996 -0.11034,0.1229 -0.17047,0.16242c-1.61396,1.65378 -0.78785,4.48612 1.79896,3.28114c0,0 0.68631,-0.30245 0.98876,0.38386c0.02315,0.05252 0.0405,0.10279 0.05282,0.15085c0.81118,-0.02089 1.41317,-0.27381 1.60826,-1.09814c-0.37603,-0.20083 -0.72021,-0.4708 -1.01755,-0.79748zM256.27095,210.60664c0.10179,-0.33912 0.22853,-0.63887 0.37537,-0.90082c-0.1261,-0.55616 -0.42602,-0.98171 -0.9602,-1.05756c-2.63419,-0.374 -3.3031,4.45624 -1.71719,5.7645c0.2806,-0.22106 0.55938,-0.39271 0.83238,-0.51958c-0.04751,-0.09218 -0.07888,-0.20708 -0.08383,-0.35028c-0.02593,-0.74955 0.72362,-0.77548 0.72362,-0.77548l0.35196,0.09477c0.34671,-0.20868 0.63486,-0.7624 0.79323,-1.40295c-0.48683,-0.27198 -0.31536,-0.85261 -0.31536,-0.85261z" fill="#000000"/><path d="M259.20986,217.22338c-0.31002,-0.24475 -0.57698,-0.61576 -0.74319,-1.03633c1.3599,0.06498 2.88111,-1.07152 3.50926,-2.54074c0.44072,0.91066 1.11713,2.54113 0.0855,3.35311c-0.53863,0.42395 -1.11638,0.63602 -1.60952,0.64561c-0.05378,-0.21829 -0.2467,-0.59187 -0.77456,-0.57361c-0.20743,0.00718 -0.36185,0.06517 -0.46749,0.15196z" data-paper-data="{&quot;noHover&quot;:false,&quot;origItem&quot;:[&quot;Path&quot;,{&quot;applyMatrix&quot;:true,&quot;selected&quot;:true,&quot;segments&quot;:[[[254.46427,197.47825],[0,-0.20755],[0,0.52818],7],[[253.87228,198.20884],[0.22002,-0.0462],[-0.00746,0.49318],7],[[254.44617,199.79946],[-0.40507,-0.55296],[0.77583,1.05909],7],[[257.72642,199.83596],[-0.92535,0.40897],[-1.44663,-0.67857],7],[[255.35874,196.32031],[-0.11196,1.35684],[-0.42606,0.15157],7],[[254.32375,197.012],[0.25532,-0.30137],[0.08309,0.10857],7]],&quot;closed&quot;:true}]}" fill="#fff1e2"/><path d="M256.63628,211.45768c-0.15837,0.64055 -0.46898,1.23759 -0.8157,1.44628l-0.35979,-0.09056c0,0 -0.77379,0.02976 -0.74786,0.77931c0.00495,0.1432 0.03873,0.25827 0.08625,0.35044c-0.273,0.12687 -0.56498,0.29616 -0.84557,0.51722c-1.58591,-1.30826 -0.8885,-6.23434 1.74571,-5.86033c0.53417,0.07585 0.85563,0.51364 0.98173,1.06981c-0.14684,0.26194 -0.26661,0.57007 -0.36841,0.9092c0,0 -0.16319,0.60665 0.32364,0.87864z" data-paper-data="{&quot;noHover&quot;:false,&quot;origItem&quot;:[&quot;Path&quot;,{&quot;applyMatrix&quot;:true,&quot;selected&quot;:true,&quot;segments&quot;:[[[261.00115,194.26996],[0,0],[0.3354,0.11345],7],[[261.88845,194.67626],[-0.25671,-0.15581],[0.56019,-0.1068],7],[[262.97857,193.75319],[-0.09427,0.53123],[0.46485,-2.61969],7],[[257.27688,191.83774],[1.36231,-1.53973],[0.21123,0.28807],7],[[257.76737,192.68758],[-0.11736,-0.27722],[0.09377,-0.04429],7],[[258.12034,192.61592],[-0.14329,0],[0.75,0],7],[[258.87034,193.36592],[0,0],[0,0],7],[[258.76346,193.71439],[0,0],[0.19657,0.35372],7],[[260.13815,194.55566],[-0.63469,-0.18042],[0.28865,-0.47714],7]],&quot;closed&quot;:true}]}" fill="#fff1e2"/><path d="M260.75712,212.17107c-0.00147,0.01379 -0.00301,0.0288 -0.00473,0.04263c-0.15569,1.25097 -2.36246,4.04671 -3.13787,1.72235l0.06047,0.13156c0,0 -0.02777,-0.46883 -0.39061,-0.65711c0.58691,-0.8515 0.94603,-2.17269 0.88399,-3.3304c0.75547,-0.79277 1.99743,-0.15541 2.42819,0.94659c-0.05094,0.06493 -0.09417,0.14832 -0.13025,0.24841c-0.17086,0.47405 0.1002,0.7696 0.29082,0.89597z" data-paper-data="{&quot;noHover&quot;:false,&quot;origItem&quot;:[&quot;Path&quot;,{&quot;applyMatrix&quot;:true,&quot;selected&quot;:true,&quot;segments&quot;:[[[260.16131,198.39745],[-0.46786,-0.18715],[0.09878,0.03951],7],[[260.40238,198.53803],[-0.06313,-0.05315],[1.11623,-0.3924],7],[[261.41444,196.20051],[0.76618,0.78243],[-1.15917,0.02198],7],[[258.19006,195.22848],[0.8307,0.616],[-0.20071,0.35613],7],[[257.53286,195.58461],[0,0],[0,0],7],[[257.66454,195.53096],[0,0],[-2.34977,0.69458],7],[[259.24006,198.64316],[-1.24484,-0.19885],[0.01376,0.0022],7],[[259.2813,198.64938],[-0.01373,-0.00195],[0.13289,-0.18614],7]],&quot;closed&quot;:true}]}" fill="#fff1e2"/><path d="M258.964,218.71594c-0.19509,0.82433 -0.82176,1.10194 -1.63295,1.12283c-0.01232,-0.04806 -0.02939,-0.09846 -0.05254,-0.15098c-0.30245,-0.68631 -1.00933,-0.37921 -1.00933,-0.37921c-2.58682,1.20499 -3.45168,-1.70954 -1.83771,-3.36332c0.06013,-0.03952 0.12137,-0.09616 0.17391,-0.16612c0.96783,-0.86372 2.0379,-0.91605 2.32965,-0.18632l-0.05837,0.13941c0.03424,0.179 0.08815,0.35795 0.14142,0.52669c-0.02212,0.23443 -0.07117,0.51762 -0.18408,0.82066l-0.7347,0.12578c0,0 -0.72207,0.05914 -0.5904,0.79749c0.13168,0.73835 0.82552,0.58576 0.82552,0.58576l1.28783,-0.28653c0.08808,-0.14383 0.25783,-0.24919 0.32714,-0.392c0.29735,0.32667 0.63856,0.60505 1.01459,0.80587z" data-paper-data="{&quot;noHover&quot;:false,&quot;origItem&quot;:[&quot;Path&quot;,{&quot;applyMatrix&quot;:true,&quot;selected&quot;:true,&quot;segments&quot;:[[[253.65812,195.64694],[-0.33675,0.28588],[-0.14033,-0.07421],7],[[253.23633,195.39634],[0.1407,0.093],[0,0],7],[[252.97181,194.05946],[0,0],[0,0],7],[[253.60821,193.21093],[-0.74246,0.10607],[0.74246,-0.10607],7],[[254.45673,193.84733],[0,0],[0,0],7],[[254.48595,194.56662],[0,0],[0.29896,0.12332],7],[[255.28508,194.79314],[-0.23353,-0.03021],[0.17047,-0.04741],7],[[255.81124,194.67962],[-0.18008,0.02803],[0,0],7],[[255.94862,194.74259],[0,0],[0.73938,-0.26635],7],[[255.85226,192.46012],[0.82974,0.99711],[-0.0681,-0.05494],7],[[255.69583,192.28414],[0.03742,0.06146],[-1.59699,-1.67017],7],[[252.35447,193.96859],[-1.11484,-2.62693],[0,0],7],[[251.93665,194.94349],[0.69636,-0.27854],[-0.05329,0.02132],7],[[251.78406,194.99106],[0.04846,-0.01065],[-0.00717,0.81142],7],[[252.82594,196.63632],[-0.81709,-0.22347],[0.21371,-0.36886],7]],&quot;closed&quot;:true}]}" fill="#fff1e2"/></g><g stroke="none" stroke-width="0.5" stroke-linecap="butt"><path d="M225.91135,232.06939c-1.18188,1.31737 -3.16638,1.59422 -4.36664,2.69707c-1.76486,1.62163 -0.70296,3.97813 1.30643,3.96629c0.89884,-0.0053 1.79786,0 2.69672,0c3.76552,0 5.03951,-1.04182 6.36942,-4.80824c0.28503,-0.80722 0.90967,-1.9133 0.89735,-2.81329c-0.01455,-1.06246 -0.28371,-2.10571 -0.37473,-3.17369c-0.37083,0.13713 -0.7239,0.24991 -0.99913,0.35584c-1.20789,0.46487 -2.92699,1.2941 -4.47711,1.27777c-0.29069,0.82963 -0.46874,1.84779 -1.0523,2.49826zM233.78722,227.29263c-0.00313,1.28756 0.41648,2.54844 0.40451,3.81859c-0.05299,5.62175 -3.91795,9.12153 -8.64387,9.12153c-0.89887,0 -1.79787,0.00467 -2.69672,0c-3.30113,-0.01716 -4.80255,-4.0816 -2.1993,-6.60827c1.97958,-1.92135 3.79185,-1.65912 4.92889,-4.35327c-0.33367,-0.16051 -0.64497,-0.39275 -0.92425,-0.7139c-1.05976,-1.21862 -0.30071,-5.5106 -0.06449,-7.05442c0.00533,-3.55598 -0.69745,-7.18026 -1.33806,-10.66339c-0.18228,-0.99107 -1.0225,-3.53618 -0.44915,-4.50281c0.91143,-1.53661 4.87933,-1.82327 6.4053,-2.10792c3.70729,-0.67302 7.26721,-1.61629 10.81717,-2.90909l0.40451,-0.14687c0,0 0.65322,-0.23717 0.87096,0.47434c0.12877,0.42079 -0.04708,0.67568 -0.21229,0.81372c0.24762,0.21912 0.24762,0.5984 0.24762,0.5984c-0.00493,4.0294 0.51166,8.13657 0.91886,12.13043c0.11864,1.16366 0.70973,4.07172 0.2519,5.16657c-0.02322,0.05554 -0.04718,0.1095 -0.07186,0.16194c1.37064,-0.13239 2.78419,-0.57715 4.00173,-0.86192c0.68707,-0.1607 2.22126,-0.86391 2.91562,-0.56819c2.48629,1.05889 0.67655,6.94613 -0.54506,8.26971c-3.29245,0.95594 -6.70702,1.68375 -10.06907,2.29018c-1.02356,0.18462 -2.90124,0.46682 -3.7154,-0.51901c-0.44966,-0.54447 -0.6185,-1.42022 -0.69073,-2.35712c-0.14608,0.19332 -0.33419,0.36155 -0.54705,0.50971c0.00026,0.00719 0.00026,0.01106 0.00026,0.01106zM236.02669,228.09992c0.49097,0.66328 2.6765,0.06567 3.26906,-0.07289c2.93941,-0.68734 5.90008,-1.24634 8.83497,-1.97453c0.84482,-0.93377 0.86422,-2.51543 0.86422,-3.75342c0,-0.59459 0.48486,-1.79364 -0.06092,-1.78255c-2.72939,0.05548 -5.21571,1.69807 -7.9381,1.48928c-0.54218,0.27325 -1.15702,0.42246 -1.79513,0.57963c-0.80614,0.25102 -2.23599,0.85042 -3.63183,1.14411c0.08127,1.27356 -0.11308,3.59923 0.45773,4.37037zM239.05241,220.7401c0.21774,-0.71151 0.87096,-0.47434 0.87096,-0.47434c0.25774,0.09733 0.52423,0.16716 0.79723,0.21396c0.20414,-0.16016 0.37651,-0.36777 0.49663,-0.64387c0.35166,-0.8083 -0.23579,-3.56718 -0.32839,-4.47452c-0.41369,-4.05329 -0.92325,-8.21294 -0.9279,-12.30206c0,0 0,-0.05833 0.01493,-0.14245c-3.45961,1.22266 -6.92982,2.13625 -10.5394,2.79154c-1.04663,0.18375 -4.82361,0.48241 -5.46026,1.41693c-0.21079,0.30941 0.57518,3.13159 0.62954,3.42811c0.66473,3.62614 1.35419,7.36966 1.35865,11.07321c-0.11732,0.76676 -0.86335,5.38164 -0.33416,5.87004c0.27713,0.25577 0.58323,0.41606 0.9073,0.50384c0.10651,-0.01659 0.22789,-0.0019 0.36139,0.06823c1.37974,0.15578 2.99514,-0.77188 4.08226,-1.18934c0.38616,-0.14829 2.01385,-0.53662 2.30592,-1.08658c0.13114,-0.24695 -0.14536,-1.29958 -0.36355,-2.11568c-0.30413,-0.13289 -0.56528,-0.33226 -0.76648,-0.61499c-0.81704,-1.14814 -0.42112,-3.51776 -0.42112,-4.87536c0,-1.30313 0.02523,-2.5804 0.08256,-3.84601c-0.04227,-0.73616 -0.1045,-1.47235 -0.2093,-2.20779c-0.11922,-0.83662 -1.03383,-4.2517 -0.78108,-4.90706c0.3127,-0.81081 1.33723,-1.1949 2.19479,-1.13363c0.23308,-0.12576 0.46616,-0.25152 0.69924,-0.37728l0.07764,0.0171l-0.0053,-0.03463l0.79622,-0.14455c0.04085,-0.00823 0.08296,-0.01253 0.12599,-0.01253c0.38028,0 0.68855,0.33579 0.68855,0.75c0,0.3154 -0.17874,0.58533 -0.4319,0.69617l-0.92927,0.4338l-0.00721,-0.01833c-0.02322,0.0166 -0.04669,0.03285 -0.07042,0.04871c-0.05452,0.03645 -0.11778,0.06085 -0.18734,0.07604c-0.01131,2.65563 -0.38063,5.30213 -0.56435,7.97776c0.06569,2.32655 0.12348,4.62549 0.82183,6.9075c0.00186,0.01198 0.0038,0.02411 0.00583,0.03638c1.43877,0.02642 4.19745,-1.12336 4.81969,-1.3169c0.04919,-0.01168 0.09932,-0.02305 0.1502,-0.03433c-0.01128,-0.10286 -0.00144,-0.22134 0.0401,-0.35708zM232.28893,208.88354c0.06342,-0.48651 0.13308,-0.97433 0.20939,-1.46429c-0.22343,-0.00514 -0.37432,0.0557 -0.36515,0.28552c0.01439,0.36041 0.07329,0.75834 0.15576,1.17877z" fill="#000000"/><path d="M235.52328,223.72465c1.39584,-0.2937 2.83101,-0.91199 3.63715,-1.16301c0.6381,-0.15717 1.26929,-0.32517 1.81146,-0.59842c2.72239,0.20879 5.27291,-1.41538 8.0023,-1.47086c0.54578,-0.01109 0.06471,1.19777 0.06471,1.79236c0,1.23798 -0.01887,2.84633 -0.86369,3.7801c-2.93489,0.72819 -5.97153,1.31126 -8.91094,1.9986c-0.59256,0.13856 -2.78724,0.72306 -3.27821,0.05977c-0.57081,-0.77114 -0.38151,-3.12499 -0.46278,-4.39854z" data-paper-data="{&quot;noHover&quot;:false,&quot;origItem&quot;:[&quot;Path&quot;,{&quot;applyMatrix&quot;:true,&quot;segments&quot;:[[[236.02669,228.09992],[-0.57081,-0.77114],[0.49097,0.66328]],[[239.29575,228.02703],[-0.59256,0.13856],[2.93941,-0.68734]],[[248.13072,226.0525],[-2.93489,0.72819],[0.84482,-0.93377]],[[248.99494,222.29909],[0,1.23798],[0,-0.59459]],[[248.93402,220.51654],[0.54578,-0.01109],[-2.72939,0.05548]],[[240.99592,222.00581],[2.72239,0.20879],[-0.54218,0.27325]],[[239.20079,222.58544],[0.6381,-0.15717],[-0.80614,0.25102]],[[235.56896,223.72955],[1.39584,-0.2937],[0.08127,1.27356]]],&quot;closed&quot;:true}]}" fill="#424347"/><path d="M226.96672,229.52124c1.55012,0.01633 3.29888,-0.79806 4.50678,-1.26293c0.27523,-0.10593 0.63023,-0.21644 1.00106,-0.35357c0.09102,1.06798 0.36904,2.1281 0.38359,3.19056c0.01233,0.89998 -0.61018,2.02717 -0.89521,2.83439c-1.32991,3.76642 -2.66023,4.85168 -6.42575,4.85168c-0.89885,0 -1.81551,-0.01457 -2.71435,-0.00927c-2.00939,0.01185 -3.08748,-2.37174 -1.32262,-3.99337c1.20026,-1.10285 3.20277,-1.43282 4.38465,-2.75018c0.58357,-0.65047 0.79117,-1.67768 1.08186,-2.50731z" data-paper-data="{&quot;noHover&quot;:false,&quot;origItem&quot;:[&quot;Path&quot;,{&quot;applyMatrix&quot;:true,&quot;segments&quot;:[[[225.91135,232.06939],[0.58357,-0.65047],[-1.18188,1.31737]],[[221.54471,234.76646],[1.20026,-1.10285],[-1.76486,1.62163]],[[222.85114,238.73274],[-2.00939,0.01185],[0.89884,-0.0053]],[[225.54786,238.73274],[-0.89885,0],[3.76552,0]],[[231.91728,233.92451],[-1.32991,3.76642],[0.28503,-0.80722]],[[232.81463,231.11122],[0.01233,0.89998],[-0.01455,-1.06246]],[[232.43989,227.93753],[0.09102,1.06798],[-0.37083,0.13713]],[[231.44076,228.29337],[0.27523,-0.10593],[-1.20789,0.46487]],[[226.96365,229.57113],[1.55012,0.01633],[-0.29069,0.82963]]],&quot;closed&quot;:true}]}" fill="#424347"/><path d="M239.04806,221.12854c-0.05087,0.01128 -0.10143,0.02323 -0.15062,0.0349c-0.62224,0.19355 -3.40635,1.36022 -4.84512,1.33379c-0.00202,-0.01228 -0.02377,-0.12205 -0.02563,-0.13403c-0.69835,-2.28201 -0.79213,-4.53238 -0.85782,-6.85892c0.18372,-2.67564 0.59185,-5.27249 0.60316,-7.92812c0.06956,-0.01519 0.14805,-0.13819 0.20257,-0.17465c0.02373,-0.01586 0.04756,-0.03204 0.07078,-0.04864l0.00727,0.01834l0.93386,-0.43258c0.25317,-0.11084 0.40445,-0.28535 0.40445,-0.60075c0,-0.41421 -0.30417,-0.74876 -0.68445,-0.74876c-0.04303,0 -0.08457,0.00444 -0.12542,0.01267l-0.79247,0.14524l0.00525,0.03462l-0.07724,-0.01704c-0.23308,0.12576 -0.46271,0.25183 -0.69579,0.37759c-0.85756,-0.06127 -1.86941,0.32151 -2.18211,1.13232c-0.25275,0.65536 0.66569,4.06926 0.78491,4.90588c0.1048,0.73544 0.1805,1.46387 0.22276,2.20003c-0.05733,1.26561 -0.09475,2.4562 -0.09475,3.75933c0,1.3576 -0.40848,3.72432 0.40856,4.87246c0.2012,0.28273 0.45743,0.48202 0.76156,0.61491c0.21819,0.81609 0.49963,1.96858 0.36848,2.21552c-0.29207,0.54996 -1.9301,0.9378 -2.31626,1.08608c-1.08712,0.41746 -2.71578,1.34051 -4.09552,1.18473c-0.13349,-0.07013 -0.25598,-0.08544 -0.36249,-0.06885c-0.32407,-0.08777 -0.63327,-0.25003 -0.91039,-0.5058c-0.52918,-0.4884 0.20638,-5.11324 0.3237,-5.88c-0.00446,-3.70355 -0.69878,-7.50392 -1.36351,-11.13006c-0.05436,-0.29652 -0.83469,-3.12728 -0.62391,-3.43669c0.63665,-0.93452 4.43257,-1.24709 5.4792,-1.43083c3.60958,-0.65528 7.1198,-1.56397 10.5794,-2.78663c-0.01493,0.08412 -0.01477,0.14256 -0.01477,0.14256c0.00465,4.08912 0.53533,8.29008 0.94902,12.34337c0.0926,0.90733 0.6758,3.68803 0.32414,4.49633c-0.12012,0.27609 -0.29417,0.48728 -0.49831,0.64744c-0.27299,-0.0468 -0.54009,-0.1155 -0.79783,-0.21283c0,0 -0.65584,-0.23291 -0.87358,0.4786c-0.04154,0.13574 -0.05237,0.2556 -0.04109,0.35847z" data-paper-data="{&quot;noHover&quot;:false,&quot;origItem&quot;:[&quot;Path&quot;,{&quot;applyMatrix&quot;:true,&quot;segments&quot;:[[[239.05241,220.7401],[-0.04154,0.13574],[0.21774,-0.71151]],[[239.92337,220.26575],[0,0],[0.25774,0.09733]],[[240.7206,220.47971],[-0.27299,-0.0468],[0.20414,-0.16016]],[[241.21722,219.83584],[-0.12012,0.27609],[0.35166,-0.8083]],[[240.88883,215.36133],[0.0926,0.90733],[-0.41369,-4.05329]],[[239.96093,203.05926],[0.00465,4.08912],[0,0]],[[239.97586,202.91682],[-0.01493,0.08412],[-3.45961,1.22266]],[[229.43646,205.70835],[3.60958,-0.65528],[-1.04663,0.18375]],[[223.9762,207.12528],[0.63665,-0.93452],[-0.21079,0.30941]],[[224.60574,210.5534],[-0.05436,-0.29652],[0.66473,3.62614]],[[225.96439,221.6266],[-0.00446,-3.70355],[-0.11732,0.76676]],[[225.63023,227.49664],[-0.52918,-0.4884],[0.27713,0.25577]],[[226.53753,228.00048],[-0.32407,-0.08777],[0.10651,-0.01659]],[[226.89891,228.06871],[-0.13349,-0.07013],[1.37974,0.15578]],[[230.98118,226.87936],[-1.08712,0.41746],[0.38616,-0.14829]],[[233.28709,225.79278],[-0.29207,0.54996],[0.13114,-0.24695]],[[232.92354,223.67711],[0.21819,0.81609],[-0.30413,-0.13289]],[[232.15706,223.06212],[0.2012,0.28273],[-0.81704,-1.14814]],[[231.73594,218.18676],[0,1.3576],[0,-1.30313]],[[231.8185,214.34075],[-0.05733,1.26561],[-0.04227,-0.73616]],[[231.6092,212.13296],[0.1048,0.73544],[-0.11922,-0.83662]],[[230.82812,207.22589],[-0.25275,0.65536],[0.3127,-0.81081]],[[233.02291,206.09227],[-0.85756,-0.06127],[0.23308,-0.12576]],[[233.72215,205.71499],[-0.23308,0.12576],[0,0]],[233.79979,205.73208],[233.79449,205.69745],[[234.59071,205.55291],[0,0],[0.04085,-0.00823]],[[234.7167,205.54038],[-0.04303,0],[0.38028,0]],[[235.40525,206.29038],[0,-0.41421],[0,0.3154]],[[234.97335,206.98655],[0.25317,-0.11084],[0,0]],[234.04408,207.42034],[[234.03687,207.40201],[0,0],[-0.02322,0.0166]],[[233.96646,207.45073],[0.02373,-0.01586],[-0.05452,0.03645]],[[233.77912,207.52677],[0.06956,-0.01519],[-0.01131,2.65563]],[[233.21477,215.50453],[0.18372,-2.67564],[0.06569,2.32655]],[[234.03659,222.41203],[-0.69835,-2.28201],[0.00186,0.01198]],[[234.04242,222.44842],[-0.00202,-0.01228],[1.43877,0.02642]],[[238.86211,221.13151],[-0.62224,0.19355],[0.04919,-0.01168]],[[239.01231,221.09718],[-0.05087,0.01128],[-0.01128,-0.10286]]],&quot;closed&quot;:true}]}" fill="#3b3d48"/></g><g stroke="none" stroke-width="0.5" stroke-linecap="butt"><path d="M220.42441,194.6674c3.98145,-0.37393 8.60525,0.07052 12.44727,0.46504l0.19354,0.05302c0.36471,-0.31189 0.53666,-0.61247 0.8506,-1.09484c0,0 0.05739,-0.08805 0.19685,-0.1736c-0.00819,-0.05015 0.0002,-0.10692 0.03099,-0.17113c0.21311,-0.44428 1.07293,-0.35599 1.07293,-0.35599c0.75714,0.07791 2.86037,0.08833 3.33743,0.38895c0.98169,0.6186 0.54572,1.39049 -0.39775,1.96772c0.04844,0.06139 0.06149,0.10921 0.06149,0.10921c0.31717,1.16267 0.63434,2.32535 0.95151,3.48802l0.02327,0.0853c0.10699,0.05694 0.16027,0.11068 0.16027,0.11068c0.76427,0.77247 2.01432,1.22705 2.82033,1.96062c1.05441,0.95965 0.74224,2.56767 0.68371,3.65226l-0.32719,0.36832c0,0 -0.04546,0.03176 -0.12736,0.07041c0.06879,0.662 -0.09232,1.27563 -0.86731,1.97328c-3.52974,2.45368 -9.11493,2.98252 -14.52385,3.49431c-3.12469,0.29566 -5.94704,0.70562 -6.02572,-1.30981c-0.19693,-0.10909 -0.23647,-0.25402 -0.23647,-0.25402l-0.1013,-0.60732c0.80344,-1.64476 0.67566,-4.35373 -0.59067,-5.91809c-1.22873,-1.51791 -3.95043,-2.46587 -5.29119,-3.94493c-2.07855,-0.09918 -3.84434,-0.35847 -3.85945,-1.12394c-0.00876,-0.44378 1.5811,-1.23521 2.2895,-1.71248c-0.82373,-2.16913 3.14964,-1.89938 6.55424,-1.27821c0.20449,-0.19832 0.67431,-0.24277 0.67431,-0.24277zM241.12028,203.98003c0.02462,-0.00233 0.04862,-0.00424 0.07207,-0.00576c0.04273,-0.73574 -0.022,-1.51393 -0.59094,-2.01863c-0.72961,-0.64723 -1.81776,-1.10185 -2.58926,-1.75002c-0.43101,-0.08419 -0.50268,-0.34696 -0.50268,-0.34696c-0.28376,-1.04021 -0.64369,-2.3596 -0.94349,-3.45862c-0.50005,0.12861 -1.01274,0.19678 -1.47543,0.18056l-0.4365,-0.04473c-0.11602,0.19132 -0.22408,0.38376 -0.32047,0.57739c0.65642,0.25563 0.85121,0.6389 0.13054,1.13039c0.68532,1.19035 3.66913,2.28707 3.94896,3.49743c0.24945,1.07896 -3.00107,2.40245 -3.71054,3.49306c-0.19402,0.29825 -0.39523,1.20417 -1.08729,1.26164c-1.13429,0.0942 -2.49057,-1.12943 -3.09859,-1.50702c-0.47208,-0.57846 -1.92349,-1.58423 -2.21336,-2.11171c-0.52691,-0.95887 1.45323,-2.39016 1.8793,-3.38834c-0.10451,0.00941 -0.21293,0.01929 -0.32649,0.03021l-0.35047,-0.05871c0.00767,0.0263 0.01519,0.05304 0.02259,0.0802l0.07136,0.2616c0,0 0.12148,0.4453 -0.75599,0.52833c-0.87747,0.08303 -0.99894,-0.36227 -0.99894,-0.36227l-0.07136,-0.2616c-0.07972,-0.29223 0.06825,-0.61771 -0.17217,-0.88232c-0.18748,-0.20633 -1.72173,-0.23963 -2.04485,-0.27281c-1.45785,-0.23465 -0.57483,0.7064 -2.24516,1.04523c-1.09355,0.22184 -1.60103,-0.21568 -2.42245,-0.3581c-0.77997,-0.13524 -2.35834,-0.1309 -4.03416,-0.15566c1.41453,1.23201 3.74304,2.12747 4.83514,3.4965c1.40737,1.76423 1.55608,4.62492 0.67766,6.48509l0.12525,0.24271c0.26462,0.12832 0.2629,0.33114 0.2629,0.33114c-0.03936,1.44881 2.83258,0.64181 5.04373,0.43259c4.50213,-0.42599 9.34999,-0.92409 12.26612,-2.97639c0.94209,-0.80587 0.58313,-1.54449 0.34655,-2.41169l-0.04758,-0.1744c0,0 -0.12148,-0.4453 0.75599,-0.52833zM235.59415,194.34037c-0.33846,0.51866 -0.59196,0.8881 -1.01042,1.25604c0.00063,0.00006 0.00095,0.00009 0.00095,0.00009l0.88138,0.0907c0.96029,0.15519 2.12972,-1.1357 1.77095,-1.27158c-0.16808,-0.06366 -0.96829,-0.08295 -1.62873,-0.10158c-0.00791,0.01673 -0.01413,0.02632 -0.01413,0.02632zM231.95106,199.54507c-0.22204,0.61295 -2.36062,2.49885 -1.97501,2.99382c0.44718,0.57401 1.54339,1.2871 2.069,1.95567c0.14118,0.08439 0.64178,0.32 0.98393,0.56315c0.18277,-0.34535 0.47284,-0.74913 0.66246,-0.96709c0.39431,-0.45326 3.14135,-1.74938 2.96671,-2.18347c-0.40771,-1.01341 -2.60064,-1.97981 -3.59243,-2.99995c-0.29642,0.10741 -0.60751,0.20443 -0.92958,0.28813c-0.03911,0.01017 -0.07764,0.0199 -0.11566,0.02924zM230.47492,198.46869c0.86985,-0.18334 2.10898,-0.47831 2.54578,-0.64364c-0.27047,-0.03814 -0.41605,-0.11996 -0.49278,-0.20633c-1.43459,-0.11644 -3.94237,0.13772 -2.09647,0.82819c0,0 0.01719,0.00759 0.04347,0.02178zM222.7047,196.74822c0,0 -0.51078,-0.07601 -0.60057,-0.31621c-1.98916,-0.54043 -7.78459,-1.98408 -7.17472,-0.43701c0.10918,0.08082 0.13447,0.16802 0.12322,0.24563c0.0327,0.10493 0.05402,0.3673 -0.47787,0.49888c-0.5801,0.42894 -1.21629,0.77239 -1.90044,1.17775c-0.27788,0.16465 0.82045,0.05019 1.22838,0.0816c0.97475,0.07505 1.8362,0.07309 2.83697,0.06473c1.45809,-0.01217 3.38789,0.08301 4.77427,0.31319c0.47224,0.07841 0.82214,0.45668 1.29963,0.36314c0.47226,-0.09251 0.19204,-0.53186 0.53116,-0.72647c1.06938,-0.61364 1.41215,-0.44363 2.63777,-0.3507c0.7812,0.08022 1.3832,0.16293 1.85286,0.27793c0.02334,-0.13933 0.09693,-0.26572 0.21181,-0.37956c-1.80153,-0.20602 -3.59129,-0.55231 -5.34247,-0.81292z" fill="#000000"/><path d="M230.38712,198.46789c-1.8459,-0.69047 0.75706,-0.98219 2.19165,-0.86574c0.07673,0.08637 0.22993,0.17906 0.5004,0.21721c-0.4368,0.16534 -1.77683,0.48799 -2.64667,0.67133c-0.02628,-0.0142 -0.04538,-0.02278 -0.04538,-0.02278z" data-paper-data="{&quot;noHover&quot;:false,&quot;origItem&quot;:[&quot;Path&quot;,{&quot;applyMatrix&quot;:true,&quot;segments&quot;:[[[467.52014,378.80687],[-0.03734,-0.05477],[1.53289,-0.33178]],[[472.05514,377.4843],[-0.80306,0.4072],[-0.43338,-0.20928]],[[471.32774,376.65365],[0.08859,0.30745],[-2.33771,-0.82811]],[[467.4576,378.72186],[-2.7622,-2.84089],[0,0]]],&quot;closed&quot;:true}]}" fill="#ff0000"/><path d="M232.00753,199.19544c0.03802,-0.00934 0.07784,-0.01925 0.11695,-0.02941c0.32208,-0.08371 0.6431,-0.18153 0.93954,-0.28895c0.99181,1.02013 3.24547,2.01566 3.6532,3.02907c0.17465,0.43411 -2.62509,1.76104 -3.01939,2.2143c-0.18963,0.21797 -0.48809,0.6221 -0.67087,0.96745c-0.34216,-0.24316 -0.85469,-0.47932 -0.99587,-0.5637c-0.52562,-0.66857 -1.66444,-1.40134 -2.11162,-1.97534c-0.38561,-0.49496 1.79425,-2.41959 2.01629,-3.03255z" data-paper-data="{&quot;noHover&quot;:false,&quot;origItem&quot;:[&quot;Path&quot;,{&quot;applyMatrix&quot;:true,&quot;segments&quot;:[[[469.49072,382.80012],[0,0],[-0.64867,1.94381]],[[464.83851,392.01747],[-0.41758,-1.74517],[0.48426,2.02384]],[[467.39735,399.08228],[-0.57199,-2.35872],[0.1969,0.32098]],[[468.78101,401.23726],[-0.45963,-0.90478],[0.46157,-1.07727]],[[470.3246,398.26738],[-0.41507,0.65682],[0.86314,-1.36588]],[[476.26104,392.01912],[0.0937,1.47976],[-0.21875,-3.45448]],[[471.63821,381.05177],[1.18903,3.65805],[-0.54281,0.26063]],[[469.95814,381.7091],[0.57477,-0.17481],[-0.0698,0.02123]],[[469.7521,381.76918],[0.0676,-0.01885],[0,0]]],&quot;closed&quot;:true}]}" fill="#ff0000"/><path d="M235.59449,194.28506c0.66044,0.01863 1.52062,0.04702 1.68871,0.11068c0.35877,0.13589 -0.87572,1.47569 -1.83602,1.32052l-0.90745,-0.0991c0,0 -0.00033,-0.00004 -0.00096,-0.0001c0.41847,-0.36795 0.70199,-0.78684 1.04045,-1.30551c0,0 0.00736,-0.00975 0.01527,-0.02649z" data-paper-data="{&quot;noHover&quot;:false,&quot;origItem&quot;:[&quot;Path&quot;,{&quot;applyMatrix&quot;:true,&quot;segments&quot;:[[[477.92773,366.84102],[0,0],[-0.79982,1.598]],[[475.67294,370.65163],[0.86461,-1.07823],[0.00102,0.0004]],[475.67448,370.65224],[[477.10202,371.22395],[0,0],[1.52973,0.80796]],[[480.63126,367.59862],[0.53609,0.55769],[-0.25116,-0.26128]],[[477.96326,366.759],[1.09212,0.26636],[-0.02077,0.05249]]],&quot;closed&quot;:true}]}" fill="#0032ff"/><path d="M228.1051,197.56562c-0.11489,0.11384 -0.18981,0.24303 -0.21316,0.38236c-0.46966,-0.115 -1.07146,-0.19807 -1.85266,-0.27828c-1.22562,-0.09293 -1.57664,-0.25383 -2.64603,0.35981c-0.33912,0.19461 -0.07225,0.64131 -0.54451,0.73383c-0.47749,0.09355 -0.83667,-0.28162 -1.30892,-0.36004c-1.38637,-0.23018 -3.39271,-0.33512 -4.8508,-0.32294c-1.00077,0.00835 -1.86839,0.0032 -2.84314,-0.07186c-0.40793,-0.03141 -1.50726,0.08096 -1.2294,-0.08368c0.68414,-0.40537 1.31952,-0.75854 1.89962,-1.18749c0.53187,-0.1316 0.51296,-0.39962 0.48026,-0.50454c0.01126,-0.07761 -0.01252,-0.167 -0.12169,-0.24783c-0.60987,-1.54707 5.29393,-0.10727 7.28307,0.43315c0.08982,0.24018 0.60568,0.32558 0.60568,0.32558c1.75117,0.2606 3.54013,0.61589 5.34166,0.82191z" data-paper-data="{&quot;noHover&quot;:false,&quot;origItem&quot;:[&quot;Path&quot;,{&quot;applyMatrix&quot;:true,&quot;segments&quot;:[[[455.35362,370.74296],[2.79975,1.39988],[0,0]],[[454.49653,369.51802],[0.04047,0.81662],[-3.06915,-2.3927]],[[442.73893,365.85372],[-0.31301,-5.2697],[0.14519,0.29933]],[[442.83261,366.6986],[0.05403,-0.25136],[0.0068,0.35469]],[[441.80948,368.18836],[0.94617,-0.26686],[-1.16169,1.22832]],[[438.10712,371.46534],[1.32437,-1.11857],[-0.53791,0.45432]],[[440.11705,372.11496],[-0.66551,-0.22989],[1.59024,0.54932]],[[444.81527,373.209],[-1.67151,-0.28352],[2.43537,0.41308]],[[452.62894,375.72086],[-2.20566,-1.18664],[0.75132,0.40421]],[[454.62961,377.31713],[-0.83824,0.15881],[0.82904,-0.15707]],[[455.845,375.09662],[-0.6536,0.53365],[2.06102,-1.6828]],[[460.40012,374.76457],[-2.00018,-0.68598],[1.26536,0.50614]],[[463.36146,376.25293],[-0.73039,-0.52358],[0.10223,-0.45029]],[[463.88698,375.07234],[-0.24319,0.33812],[-2.90847,-1.23628]]],&quot;closed&quot;:true}]}" fill="#0032ff"/><path d="M240.42182,204.51379l0.04716,0.17527c0.23656,0.8672 0.58624,1.61607 -0.35585,2.42194c-2.91615,2.05231 -7.82041,2.5639 -12.32254,2.98989c-2.21114,0.20921 -5.10456,1.01284 -5.06522,-0.43597c0,0 -0.00042,-0.20345 -0.26504,-0.33177l-0.12665,-0.24315c0.87842,-1.86017 0.70636,-4.75301 -0.70101,-6.51724c-1.0921,-1.36903 -3.41154,-2.27444 -4.82607,-3.50645c1.67582,0.02476 3.26025,0.01663 4.04022,0.15187c0.82142,0.14242 1.3338,0.57757 2.42735,0.35574c1.67032,-0.33884 0.80151,-1.28454 2.25937,-1.04989c0.32311,0.03318 1.86717,0.06465 2.05465,0.27099c0.24042,0.26459 0.11992,0.64812 0.19963,0.94034l0.04187,0.20388c0,0 0.12861,0.44441 1.00609,0.36139c0.87747,-0.08303 0.76319,-0.52876 0.76319,-0.52876l-0.06958,-0.20132c-0.00741,-0.02716 -0.01737,-0.11416 -0.02502,-0.14046l0.35313,0.05865c0.11355,-0.0109 0.21682,0.03959 0.32133,0.03017c-0.42606,0.99818 -2.35919,2.41882 -1.83229,3.37768c0.28986,0.52748 1.68194,1.48509 2.15402,2.06355c0.60802,0.37758 1.94821,1.60533 3.0825,1.51113c0.69206,-0.05748 0.87761,-0.95542 1.07162,-1.25366c0.70947,-1.09061 3.95206,-2.38635 3.7026,-3.46531c-0.27983,-1.21037 -3.23322,-2.29046 -3.91854,-3.48081c0.72067,-0.49149 0.53032,-0.87391 -0.1261,-1.12953c0.09637,-0.19363 0.24593,-0.44354 0.36195,-0.63487l0.43821,0.04503c0.46268,0.01622 0.97982,-0.05103 1.47987,-0.17963c0.2998,1.09902 0.67771,2.42518 0.96148,3.46538c0,0 0.07474,0.26468 0.50575,0.34887c0.7715,0.64817 1.86943,1.11354 2.59905,1.76076c0.56893,0.5047 0.63469,1.29345 0.59196,2.02918c-0.02345,0.00151 -0.04746,0.00348 -0.07208,0.0058c-0.87747,0.08303 -0.75704,0.5313 -0.75704,0.5313z" data-paper-data="{&quot;noHover&quot;:false,&quot;origItem&quot;:[&quot;Path&quot;,{&quot;applyMatrix&quot;:true,&quot;segments&quot;:[[[482.75458,400.21246],[-1.5,0],[0.04208,0]],[[482.8773,400.21594],[-0.03975,-0.00229],[0.40568,-2.40273]],[[482.81021,393.4036],[0.71867,1.83408],[-0.92163,-2.35203]],[[479.29091,386.85244],[0.991,2.36813],[-0.67997,-0.41039]],[[478.61094,385.55689],[0,0],[0,-3.50396]],[[478.61094,373.90641],[0,3.70209],[-0.89177,0.26695]],[[476.07015,374.04091],[0.76367,0.19701],[0,0]],[[475.36308,373.75841],[0,0],[-0.28033,0.59223]],[[474.56657,375.55486],[0.24863,-0.60591],[0.97768,1.04337]],[[474.27023,379.30737],[1.42437,-1.39002],[0.60092,4.12177]],[[479.26104,392.01912],[0.0839,-4.06152],[-0.07479,3.62058]],[[471.48969,402.33665],[1.67808,-3.36089],[-0.4589,0.91908]],[[469.10425,406.14178],[1.1794,0.0263],[-1.93306,-0.0431]],[[464.62571,400.23033],[0.84158,1.4288],[-0.52374,-2.04619]],[[461.89726,392.60825],[0.24324,1.82219],[-0.44216,-3.31241]],[[466.56932,382.06561],[-1.16377,3.14543],[-0.17844,-0.00156]],[[466.01153,382.06335],[0.19419,-0.00053],[0,0]],[[465.45416,381.76167],[0,0],[0.00081,0.08875]],[[465.45536,382.03204],[0,-0.0915],[0,0]],[465.45536,382.91325],[[463.95536,384.41325],[1.5,0],[-1.5,0]],[462.45536,382.91325],[[462.45536,382.03204],[0,0],[0,-0.98435]],[[462.56954,379.08121],[0.28036,0.94358],[-0.21862,-0.73579]],[[459.28595,377.55],[0.52336,0.20934],[-2.32275,-1.22352]],[[455.06937,380.28472],[2.93755,-0.59369],[-1.92318,0.38868]],[[451.19529,378.35613],[1.3041,0.7229],[-1.2383,-0.68643]],[[444.54335,376.59154],[2.78141,0.602],[1.79716,4.48514]],[[451.01133,389.57559],[-1.19756,-4.8349],[1.54327,6.23062]],[[449.1925,411.08168],[2.30947,-5.83544],[0,0]],[[449.29088,411.91757],[0,0],[0.38264,0.5036]],[[449.57845,413.08663],[0,0],[-0.7242,4.74532]],[[457.78687,416.0743],[-3.77985,0],[7.6962,0]],[[479.58072,410.11169],[-5.79255,5.83321],[1.93629,-2.35358]],[[481.25458,402.29994],[0,2.92119],[0,0]],[481.25458,401.71246]],&quot;closed&quot;:true}]}" fill="#0032ff"/></g><g stroke="none" stroke-width="0.5" stroke-linecap="butt"><path d="M218.02073,197.30593c1.4007,4.15701 1.06107,10.63044 0.14443,14.89467c-0.35663,1.65905 -2.09196,3.65228 -1.39127,5.3326c0.72738,1.05549 1.47774,0.75406 2.23753,1.60772c1.03815,1.16643 0.12079,2.12813 2.11803,2.26156c1.12634,0.07525 2.18582,-1.57484 3.40209,-0.70375c0.46045,0.32978 0.14562,1.59564 0.29124,2.10448c0.08362,0.2922 0.34735,-0.49955 0.50153,-0.76148c0.3687,-0.62639 0.681,-1.28584 0.97236,-1.95174c0.7772,-1.77627 0.94576,-3.17685 0.67371,-5.08119c0.00812,-4.63643 -2.5532,-9.04371 -3.08132,-13.6271c-0.23299,-2.02207 -0.04341,-4.20592 -0.00971,-6.27201c-1.99197,0.38214 -3.88231,0.62179 -6.00108,0.62179c-0.0319,-0.00079 -0.06355,-0.00183 -0.09497,-0.00314c0.08508,0.52494 0.16382,1.05094 0.23743,1.5776zM225.37942,201.21197c0.531,4.61856 3.07931,9.00999 3.08718,13.69051c0.40298,2.82085 -0.27272,5.55065 -1.87879,7.94769c-0.40089,0.59833 -1.41114,1.92123 -2.43585,1.29469c-1.44439,-0.88315 -1.06701,-1.56146 -0.58998,-2.30159c0.28895,-0.44831 -0.83355,0.70637 -1.33945,0.87532c-0.91952,0.30709 -1.86645,0.21685 -2.75896,-0.1837c-1.45218,-0.65171 -0.79738,-1.47969 -1.5435,-2.36492c-0.62858,-0.74576 -1.7025,-0.87761 -2.46227,-1.91713c-0.95323,-2.43929 0.75431,-4.08401 1.25237,-6.41691c0.87136,-4.08138 1.16413,-10.20645 -0.14931,-14.18536c-0.09519,-0.65367 -0.19496,-1.30674 -0.3036,-1.95831l-0.0102,-0.27017c0,0 0,-0.01128 0.00138,-0.03108c-3.62703,-1.63688 -1.65973,-8.66703 1.51935,-10.58775c1.95753,-1.18268 4.1305,0.29998 6.07553,0.94832c0,0 0.71151,0.23717 0.47434,0.94868c-0.10013,0.30038 -0.2848,0.43168 -0.46478,0.48312c0.99362,1.62466 4.58481,4.94633 3.60613,7.04259c-0.14767,0.31631 -1.4913,0.48005 -2.07597,0.57955c-0.0184,2.09766 -0.2409,4.34267 -0.00363,6.40646zM222.12484,186.63532c-1.01317,-0.47668 -2.19204,-1.02816 -2.96009,-0.89926c-3.07465,0.51601 -5.17575,8.63015 -1.28647,8.49542c2.49615,0 4.62261,-0.34746 7.04385,-0.8655c0.42165,-0.09021 1.27988,0.45209 1.2934,0.02111c0.04811,-1.53352 -2.92338,-4.22964 -3.72186,-5.56265l-0.31821,-0.78907c0,0 -0.07346,-0.18365 -0.05062,-0.40005z" fill="#000000"/><path d="M222.19415,186.98899l0.32816,0.79447c0.79848,1.333 3.78318,4.09744 3.73507,5.63096c-0.01352,0.43098 -0.87575,-0.106 -1.2974,-0.01579c-2.42125,0.51803 -4.61508,0.87321 -7.11123,0.87321c-3.88928,0.13473 -1.77845,-8.06569 1.29621,-8.58171c0.76805,-0.1289 1.98279,0.42116 2.99595,0.89784c-0.02284,0.2164 0.05323,0.40102 0.05323,0.40102z" data-paper-data="{&quot;noHover&quot;:false,&quot;origItem&quot;:[&quot;Path&quot;,{&quot;applyMatrix&quot;:true,&quot;segments&quot;:[[[222.12484,186.63532],[-0.02284,0.2164],[-1.01317,-0.47668]],[[219.16474,185.73606],[0.76805,-0.1289],[-3.07465,0.51601]],[[217.87827,194.23148],[-3.88928,0.13473],[2.49615,0]],[[224.92212,193.36598],[-2.42125,0.51803],[0.42165,-0.09021]],[[226.21552,193.38708],[-0.01352,0.43098],[0.04811,-1.53352]],[[222.49366,187.82444],[0.79848,1.333],[0,0]],[222.17545,187.03536]],&quot;closed&quot;:true}]}" fill="#0032ff"/><path d="M217.76864,195.68053c0.03141,0.00131 0.06338,0.00226 0.09528,0.00305c2.11877,0 4.03069,-0.24122 6.02266,-0.62336c-0.0337,2.06609 -0.21757,4.25112 0.01542,6.27319c0.52811,4.58339 3.10888,9.07706 3.10076,13.71349c0.27205,1.90434 0.08968,3.31325 -0.68751,5.08952c-0.29136,0.66589 -0.60939,1.32725 -0.97809,1.95364c-0.15417,0.26193 -0.42025,1.05424 -0.50387,0.76204c-0.14561,-0.50884 0.16986,-1.77484 -0.29059,-2.10462c-1.21627,-0.87109 -2.28981,0.78017 -3.41615,0.70492c-1.99724,-0.13343 -1.09044,-1.0969 -2.12859,-2.26333c-0.75979,-0.85366 -1.52222,-0.55739 -2.2496,-1.61289c-0.7007,-1.68032 1.02248,-3.68367 1.37911,-5.34273c0.91664,-4.26423 1.27839,-10.81803 -0.12231,-14.97504c-0.0736,-0.52666 -0.15143,-1.05295 -0.23651,-1.57789z" data-paper-data="{&quot;noHover&quot;:false,&quot;origItem&quot;:[&quot;Path&quot;,{&quot;applyMatrix&quot;:true,&quot;segments&quot;:[[[218.02073,197.30593],[-0.0736,-0.52666],[1.4007,4.15701]],[[218.16516,212.20061],[0.91664,-4.26423],[-0.35663,1.65905]],[[216.77389,217.5332],[-0.7007,-1.68032],[0.72738,1.05549]],[[219.01142,219.14092],[-0.75979,-0.85366],[1.03815,1.16643]],[[221.12945,221.40249],[-1.99724,-0.13343],[1.12634,0.07525]],[[224.53154,220.69874],[-1.21627,-0.87109],[0.46045,0.32978]],[[224.82278,222.80322],[-0.14561,-0.50884],[0.08362,0.2922]],[[225.3243,222.04174],[-0.15417,0.26193],[0.3687,-0.62639]],[[226.29666,220.09],[-0.29136,0.66589],[0.7772,-1.77627]],[[226.97037,215.00881],[0.27205,1.90434],[0.00812,-4.63643]],[[223.88905,201.3817],[0.52811,4.58339],[-0.23299,-2.02207]],[[223.87934,195.10969],[-0.0337,2.06609],[-1.99197,0.38214]],[[217.87827,195.73148],[2.11877,0],[-0.0319,-0.00079]],[[217.7833,195.72833],[0.03141,0.00131],[0.08508,0.52494]]],&quot;closed&quot;:true}]}" fill="#fff1e2"/></g><g stroke="none" stroke-width="0.5" stroke-linecap="butt"><path d="M261.62949,185.32523c0.82517,1.22811 0.55754,2.00689 0.33898,3.10421l-0.28317,0.51578c0,0 -0.08272,0.13783 -0.26938,0.20326c0.02361,3.12617 0.18672,6.36602 -0.98455,9.04738c-0.49152,1.12526 -1.20079,2.34386 -2.91152,2.53771c-1.18674,0.13448 -2.67541,-0.07735 -3.95634,-0.22579c-3.17823,-0.16372 -6.05078,-1.07268 -9.26699,-1.69924c-5.90019,-1.14944 -11.71467,-2.44568 -17.64557,-3.89475c-1.64193,-0.42504 -3.05113,-1.46466 -4.01602,-2.74607c-0.27048,-0.35921 -0.5766,-1.46211 -1.02941,-1.75583c-0.7137,-0.46296 -2.52006,-0.64178 -3.23616,-0.8451c-5.02513,-1.42676 -8.23455,-3.08266 -9.29738,-7.44648c-0.83213,-3.47099 -0.52209,-6.74492 -0.50638,-10.06817l0.00131,-0.27658c0,0 0.00004,-0.00818 0.00137,-0.02228c-1.63772,-1.66493 -2.60976,-4.13164 -2.66888,-5.71126c-0.4425,-3.2905 -0.34726,-8.1495 2.98226,-9.70793c3.26644,-1.5289 8.10239,-1.52072 12.09835,-1.86272c8.75849,-0.51872 19.36638,3.02589 28.56188,5.27257c4.56624,1.11564 9.76305,1.84656 14.21815,3.70426c4.27453,1.7824 7.99684,4.7217 12.31536,6.37831l0.84765,0.2071c0.41716,0.10192 0.7541,0.44499 0.75258,0.76629c-0.00076,0.16065 -0.08599,0.28543 -0.22317,0.35731l-0.90106,0.47212l-0.17512,-0.17831c-3.09457,1.67784 -8.52562,1.71241 -12.82199,0.99789c0.13334,0.22693 0.07513,0.4331 0.07513,0.4331c-0.52447,1.85667 -0.9677,3.76722 -1.31669,5.71528c0.43525,0.45051 0.79639,1.01859 1.08672,1.75693l0.12638,0.71376c0,0 0.1041,0.602 -0.64402,0.50158c-0.74812,-0.10042 -0.85222,-0.70242 -0.85222,-0.70242l-0.04231,-0.25175c-0.21669,1.51116 -0.3754,3.04105 -0.47029,4.58231c0.07303,0.07199 0.11251,0.12755 0.11251,0.12755zM213.58443,179.37695c0.74734,0.26497 0.6378,0.81476 0.6378,0.81476l-0.25617,0.82703c-0.91416,0.18358 -1.07684,0.35448 -2.12979,0.08232c-0.679,-0.17551 -1.21899,-0.45556 -1.63758,-0.80092c0.08291,0.64541 0.19798,1.29616 0.35567,1.95391c0.89458,3.80195 3.52574,4.92981 7.89572,6.16907c1.13185,0.32098 2.89882,0.46944 3.94485,1.18629c1.82659,1.25179 1.52002,3.53004 4.2615,4.14088c5.89995,1.44149 11.68288,2.73016 17.55169,3.87406c3.14713,0.61342 5.9483,1.50789 9.05314,1.66916c1.16252,0.13472 2.50495,0.33716 3.59163,0.23382c1.33963,-0.1274 1.77904,-1.20345 2.14356,-2.04228c1.22314,-2.81467 0.89159,-6.31259 0.90698,-9.56699c0.00284,-0.59988 0.01565,-1.19888 0.03811,-1.79657c-0.12374,0.16418 -0.27605,0.31415 -0.46351,0.44618c-0.98965,0.6971 -2.61337,0.68093 -3.58859,-0.772c-0.64001,-0.95351 -0.35234,-2.09178 -0.54113,-3.02546c-0.39956,-1.9761 -0.66872,-3.72737 -0.41052,-5.53811c-3.05734,-0.48053 -6.05719,-0.41406 -7.38958,1.51836c0,0 -0.31506,0.45325 -1.00154,0.04452c-0.68648,-0.40873 -0.37142,-0.86197 -0.37142,-0.86197c2.01596,-2.87898 6.94427,-2.37671 11.40352,-1.34054c0.85836,0.19945 1.62827,0.38299 2.31338,0.6093c0.089,-0.13223 0.27789,-0.25015 0.67879,-0.15221c0.17102,0.04179 0.30317,0.10393 0.40529,0.17507c0.32564,-1.67748 0.7194,-3.32532 1.17294,-4.93276c0,0 0.01288,-0.04563 0.04958,-0.10284c-2.42648,-0.53531 -4.93602,-1.45604 -7.31461,-1.67064c-2.61885,-0.63427 -5.07113,-0.70137 -7.70915,-1.23089c-6.52001,-1.30875 -13.13255,-3.16613 -19.66135,-4.76127c-5.3594,-1.31873 -7.67781,1.10022 -8.62813,4.62335l0.01456,0.02778c0,0 -0.00257,0.54267 -0.68326,0.41348c-1.02346,1.46163 -2.43685,3.06718 -4.32106,3.68056c-1.43096,0.46582 -2.71977,0.24979 -3.82397,-0.35804c-0.01092,0.83549 -0.03717,1.66892 -0.05418,2.50419c0.87079,-0.63021 2.1815,-0.35987 3.44329,1.89994c0,0 0.33533,0.60286 -0.34148,0.69797c-0.67681,0.09511 -1.01215,-0.50776 -1.01215,-0.50776c-1.78378,-3.22074 -2.81237,2.2941 0.63654,2.53129l-0.01623,-0.37722c0,0 0.10955,-0.5498 0.85689,-0.28484zM256.95807,183.91256c0.0674,0.61075 -0.32578,1.53775 0.42542,1.86266c1.71053,0.73983 1.582,-2.37917 1.58406,-2.94222c0.02069,-1.59851 0.6503,-2.97447 0.80865,-4.54403c-0.62841,-0.20397 -1.35928,-0.33641 -2.18165,-0.5279c-0.36922,-0.08597 -0.74491,-0.16942 -1.1239,-0.24779c-0.35312,2.11007 0.23922,4.15029 0.48743,6.39927zM217.60897,167.92395c1.27579,-3.64217 4.07768,-5.97723 9.91017,-4.5612c6.50045,1.58821 13.08449,3.4383 19.57619,4.74232c2.61549,0.52539 5.04405,0.57732 7.64542,1.21914c3.97586,0.3587 8.31555,2.47602 12.23239,2.32209c1.78266,-0.07006 3.76596,-0.12302 5.43237,-0.42349c0.89436,-0.16127 1.68924,-0.5564 2.61393,-0.64113c-4.01677,-1.71661 -7.56054,-4.38828 -11.59635,-6.07936c-4.32931,-1.81407 -9.44475,-2.5096 -13.8867,-3.59487c-8.9036,-2.17536 -19.52391,-5.80472 -27.98336,-5.21989c-3.72085,0.31874 -10.04846,0.09666 -12.43064,2.28176c-2.06597,1.89507 -2.09766,5.53167 -1.7157,8.359c0.06041,1.96871 1.0163,5.38641 4.498,5.96372c2.46661,0.409 4.56182,-2.90976 5.36929,-4.1567c0,0 0.10522,-0.16202 0.335,-0.21135z" fill="#000000"/><path d="M256.45598,177.4726c0.379,0.07835 0.76495,0.16276 1.13417,0.24872c0.82237,0.19149 1.5734,0.3306 2.20181,0.53457c-0.15836,1.56956 -0.76821,3.01469 -0.7889,4.61318c-0.00206,0.56305 0.08456,3.68293 -1.62597,2.94309c-0.7512,-0.32491 -0.36916,-1.2567 -0.43655,-1.86745c-0.2482,-2.24899 -0.83768,-4.36206 -0.48456,-6.47212z" data-paper-data="{&quot;noHover&quot;:false,&quot;origItem&quot;:[&quot;Path&quot;,{&quot;applyMatrix&quot;:true,&quot;segments&quot;:[[[513.43113,327.1896],[-0.51342,-5.636],[0.13943,1.53055]],[[514.29246,331.71909],[-1.49313,-0.3641],[3.39994,0.82908]],[[517.40701,323.14475],[0.0012,1.45142],[0.02605,-4.1299]],[[518.96845,310.93296],[-0.2994,4.14197],[-1.24843,-0.1299]],[[514.63597,310.94616],[1.63306,-0.02431],[-0.7332,0.01091]],[[512.40427,311.01523],[0.75251,-0.03669],[-0.68066,5.6566]]],&quot;closed&quot;:true}]}" fill="#00ffe2"/><path d="M212.77646,179.66438l-0.08134,0.37286c-3.44891,-0.23718 -2.42158,-5.75731 -0.63781,-2.53657c0,0 0.33547,0.60367 1.01228,0.50856c0.67681,-0.09511 0.34122,-0.69964 0.34122,-0.69964c-1.26178,-2.25981 -2.57275,-2.53281 -3.44354,-1.90259c0.01702,-0.83527 0.0434,-1.67352 0.05433,-2.50902c1.10421,0.60784 2.39328,0.82211 3.82422,0.35628c1.88421,-0.61338 3.30263,-2.23019 4.32608,-3.69182c0.68069,0.12918 0.68446,-0.41488 0.68446,-0.41488l-0.01453,-0.02782c0.95032,-3.52314 3.29131,-5.95259 8.6507,-4.63386c6.5288,1.59514 13.18831,3.46581 19.70833,4.77456c2.63802,0.52952 5.09952,0.60432 7.71837,1.23858c2.37858,0.2146 4.89339,1.14124 7.31987,1.67656c-0.0367,0.05722 -0.0495,0.10294 -0.0495,0.10294c-0.45354,1.60745 -0.84279,3.26201 -1.16844,4.93949c-0.10212,-0.07115 -0.32398,-0.11964 -0.49499,-0.16142c-0.4009,-0.09795 -0.58983,0.0199 -0.67883,0.15214c-0.68511,-0.2263 -1.45393,-0.40805 -2.31229,-0.6075c-4.45925,-1.03616 -9.30248,-1.55933 -11.31846,1.31965c0,0 -0.31274,0.45662 0.37374,0.86534c0.68648,0.40873 0.91385,-0.02752 0.91385,-0.02752c1.33239,-1.93241 4.42009,-2.01564 7.47743,-1.5351c-0.2582,1.81073 0.01662,3.57532 0.41618,5.55144c0.18879,0.93368 -0.09801,2.07959 0.54199,3.0331c0.97521,1.45292 2.49823,1.44444 3.48788,0.74734c0.18747,-0.13204 0.44045,-0.25877 0.5642,-0.42297c-0.02246,0.5977 -0.03537,1.20048 -0.0382,1.80036c-0.01538,3.25438 0.30862,6.76841 -0.91452,9.58308c-0.36452,0.83882 -0.80825,1.91838 -2.14788,2.04579c-1.08667,0.10335 -2.43317,-0.0968 -3.59569,-0.23151c-3.10484,-0.16127 -5.92062,-1.05196 -9.06775,-1.66539c-5.86881,-1.1439 -11.69322,-2.44331 -17.59317,-3.88481c-2.74148,-0.61084 -2.44635,-2.89769 -4.27293,-4.14947c-1.04603,-0.71685 -2.81782,-0.87023 -3.94968,-1.1912c-4.36998,-1.23926 -7.01013,-2.38087 -7.90471,-6.18282c-0.15769,-0.65775 -0.27416,-1.31212 -0.35707,-1.95753c0.41859,0.34537 1.05492,0.62612 1.73393,0.80164c1.05294,0.27217 1.11977,0.10194 2.03393,-0.08165l0.25553,-0.82886c0,0 0.10901,-0.55156 -0.63834,-0.81652c-0.74734,-0.26497 -0.75885,0.29075 -0.75885,0.29075z" data-paper-data="{&quot;noHover&quot;:false,&quot;origItem&quot;:[&quot;Path&quot;,{&quot;applyMatrix&quot;:true,&quot;segments&quot;:[[[427.35252,342.801],[-1.48492,-0.21213],[1.48492,0.21213]],[428.62531,344.49805],[[428.12493,346.78923],[0,0],[-1.81159,1.04805]],[[423.90106,348.34139],[2.09117,0.0384],[-1.34852,-0.02476]],[[420.64524,347.30908],[0.83355,0.62607],[0.17053,1.61006]],[[421.36905,352.1175],[-0.31896,-1.59478],[1.81014,9.22887]],[[437.08887,363.03736],[-8.67992,-0.44188],[2.24815,0.11445]],[[444.925,363.61034],[-2.08161,-1.18802],[3.63495,2.07455]],[[453.41696,371.59348],[-5.44374,0.15187],[11.71667,0]],[[488.26888,370.52663],[-11.65213,0.74685],[6.24841,-0.40049]],[[506.24236,369.12883],[-6.16028,1.53837],[2.30724,-0.38454]],[[513.36891,367.47101],[-2.15457,0.94995],[2.6561,-1.17108]],[[517.60173,360.86238],[-0.71519,2.38973],[2.39984,-8.01873]],[[519.31112,335.65228],[0,8.39121],[0,-1.54673]],[[519.36987,331.00131],[-0.03895,1.55348],[-0.24391,0.50073]],[[518.45463,332.44212],[0.37062,-0.45804],[-1.95655,2.4181]],[[511.32905,332.71198],[1.94807,3.12831],[-1.27845,-2.05301]],[[510.22729,325.26052],[0.38324,2.28586],[-0.81111,-4.83796]],[[509.36105,311.25566],[-0.49519,4.82593],[-6.06906,0.68623]],[[494.71729,319.816],[2.62481,-5.81527],[0,0]],[[492.73104,320.56085],[1.36555,0.6207],[-1.36555,-0.6207]],[[491.9862,318.57459],[0,0],[3.97189,-8.68326]],[[514.59369,307.94646],[-8.8551,0.13735],[1.70452,-0.02644]],[[519.18823,308.05999],[-1.3611,-0.15174],[0.1753,-0.39656]],[[520.53325,307.24087],[-0.79614,0],[0.33962,0]],[[521.33883,307.43673],[-0.20324,-0.11897],[0.63022,-4.5252]],[[523.61924,293.9945],[-0.88458,4.42533],[0,0]],[[523.71662,293.69845],[-0.07226,0.17045],[-4.8182,0.14819]],[[509.19169,293.99846],[4.72017,-0.94403],[-5.2007,0.01436]],[[493.88825,295.67931],[5.23776,-0.2962],[-12.94539,0.73206]],[[454.84329,295.78867],[12.96551,0],[-10.64329,-0.02396]],[[437.77186,313.12516],[1.85202,-9.67168],[0,0]],[437.80099,313.18757],[[436.44954,314.68243],[1.35144,-0.09562],[-2.01643,4.40839]],[[427.91277,326.88058],[3.73179,-2.76537],[-2.83408,2.10014]],[[420.32417,328.36468],[2.19601,0.87063],[-0.01383,2.15867]],[[420.24016,334.84822],[0.02592,-2.1619],[1.7214,-2.17101]],[[427.0881,337.57476],[-2.52407,-5.02607],[0,0]],[[426.41728,339.58723],[1.34164,-0.67082],[-1.34164,0.67082]],[[424.40482,338.91641],[0,0],[-3.5685,-7.17245]],[[425.6912,345.0351],[-6.84351,1.55937],[0,0]],[425.65546,344.07379]],&quot;closed&quot;:true}]}" fill="#fff1e2"/><path d="M217.32266,168.13715c-0.80747,1.24694 -2.99716,4.56893 -5.46377,4.15994c-3.4817,-0.57731 -4.44109,-4.00407 -4.50149,-5.97278c-0.38197,-2.82733 -0.35088,-6.47724 1.7151,-8.3723c2.38217,-2.1851 8.71599,-1.9756 12.43684,-2.29432c8.45944,-0.58483 19.15056,3.0482 28.05416,5.22356c4.44196,1.08528 9.5739,1.79811 13.90321,3.61217c4.03581,1.69108 7.58477,4.37384 11.60155,6.09046c-0.92468,0.08474 -1.71922,0.48108 -2.61358,0.64234c-1.66641,0.30047 -3.64932,0.35499 -5.43198,0.42505c-3.91683,0.15395 -8.35446,-1.96934 -12.33032,-2.32805c-2.60139,-0.64181 -5.02626,-0.68574 -7.64175,-1.21112c-6.4917,-1.30402 -12.98194,-3.14062 -19.48238,-4.72883c-5.83249,-1.41603 -8.63462,0.90084 -9.91041,4.54301c-0.22976,0.04934 -0.33515,0.21088 -0.33515,0.21088z" data-paper-data="{&quot;noHover&quot;:false,&quot;origItem&quot;:[&quot;Path&quot;,{&quot;applyMatrix&quot;:true,&quot;segments&quot;:[[[435.22821,310.77181],[-0.45531,0.27165],[2.49651,-10.18306]],[[454.84329,292.78867],[-11.58263,0.02314],[12.90919,0]],[[493.71915,292.68408],[-12.88919,0.72643],[5.19302,-0.29268]],[[508.89608,291.01306],[-5.16613,-0.01606],[7.8899,-1.57798]],[[533.18205,289.29631],[-7.768,2.86114],[3.53543,-1.30218]],[[543.95374,284.78733],[-3.30268,1.82242],[1.77254,-0.97809]],[[549.13272,281.49131],[-1.83341,0.80008],[-7.98378,-1.89352]],[[526.07315,273.1311],[8.02131,1.8158],[-8.60463,-1.94785]],[[498.49374,272.61079],[8.82125,0],[-17.68159,0]],[[442.93692,276.7756],[16.77469,-6.82929],[-7.3777,3.16222]],[[418.30087,290.47412],[4.7048,-7.12662],[-4.08031,6.18067]],[[414.97597,313.082],[-0.78417,-7.04133],[0.13829,5.03232]],[[423.95413,325.61097],[-6.91171,0.704],[4.89662,-0.49875]],[[434.56569,311.52694],[-1.58999,3.71954],[0,0]]],&quot;closed&quot;:true}]}" fill="#442300"/><path d="M231.67256,170.62046c0.75533,0.18454 0.75258,0.76629 0.75258,0.76629l-0.00082,0.00765c3.76036,0.92652 7.3379,2.52355 9.67719,4.71789c0.34167,0.40483 0.70271,0.80288 1.0835,1.18994l0.41912,0.5256c0,0 0.451,0.57613 -0.15492,0.77754c-0.60591,0.20141 -1.05691,-0.37471 -1.05691,-0.37471l-0.27938,-0.3667c-0.388,-0.3957 -0.7598,-0.80078 -1.10739,-1.21469c-0.30881,-0.29142 -0.64583,-0.57096 -1.00743,-0.83842c-0.10955,2.0449 -0.59755,4.00805 -1.07509,5.92622c-0.15308,0.61491 -0.45911,2.03356 -1.25502,2.23073c-3.39734,0.8416 -4.85242,-3.86618 -5.2576,-5.55266c-0.23063,-1.90914 -0.64812,-4.15638 -1.26737,-6.15692c-4.57396,-0.91199 -9.27169,-0.79423 -11.71207,0.515c0,0 -0.53604,0.28086 -1.06819,-0.26099c-0.53215,-0.54185 0.00389,-0.82271 0.00389,-0.82271c2.777,-1.42653 7.69804,-1.5851 12.54964,-0.62916l-0.00181,-0.04273c0,0 0.00275,-0.58175 0.75808,-0.3972zM233.90524,178.60799c0.15846,0.66263 1.05851,4.63026 2.89475,4.19683c0.49963,-0.11794 0.68457,-1.95278 0.75053,-2.38227c0.29127,-1.89636 0.91339,-3.5991 0.95716,-5.57233c-1.69372,-0.95696 -3.71469,-1.71021 -5.8212,-2.24332c0.57801,1.97374 0.99145,4.13358 1.21876,6.00111z" fill="#000000"/><path d="M232.6648,172.56661c2.10651,0.53312 4.17472,1.29939 5.86844,2.25634c-0.04378,1.97322 -0.66068,3.74141 -0.95194,5.63776c-0.06596,0.42949 -0.27143,2.26666 -0.77106,2.3846c-1.83624,0.43343 -2.7858,-3.55985 -2.94426,-4.22248c-0.22731,-1.86753 -0.62317,-4.08248 -1.20118,-6.05622z" data-paper-data="{&quot;noHover&quot;:false,&quot;origItem&quot;:[&quot;Path&quot;,{&quot;applyMatrix&quot;:true,&quot;segments&quot;:[[[467.65372,328.03382],[-0.4684,-4.66672],[0.32053,1.60687]],[[473.4351,337.02108],[-3.6383,2.27174],[0.98996,-0.61813]],[[474.90152,330.41336],[-0.12682,1.14764],[0.55997,-5.06727]],[[476.74791,315.45975],[-0.06834,5.10952],[-3.36864,-1.39885]],[[465.17993,313.3451],[4.18347,0.04753],[1.16504,4.71959]]],&quot;closed&quot;:true}]}" fill="#00ffe2"/><path d="M249.3411,187.60725c0.00266,-0.56212 0.70796,-0.40878 0.75556,-0.3978c0.2749,-0.09127 0.51893,-0.22519 0.73245,-0.38215l-0.13718,-0.14086c-0.41932,-0.49259 -0.81756,-0.99384 -1.19852,-1.49984c0,0 -0.43679,-0.58064 0.17944,-0.76861c0.61623,-0.18797 1.05302,0.39268 1.05302,0.39268c0.35873,0.47733 0.73412,0.95013 1.1301,1.41444l0.3037,0.30584c0,0 0.34711,0.35343 0.19826,0.63737c0.11312,0.29631 -0.12297,0.4922 -0.12297,0.4922c-0.41352,0.33314 -0.9111,0.61183 -1.48787,0.77482l-0.65342,-0.06183c0,0 -0.75533,-0.18454 -0.75258,-0.76629zM250.06523,187.21966l-0.15152,0.04288c0.05149,-0.01284 0.102,-0.02717 0.15152,-0.04288z" fill="#000000"/></g><g stroke="none" stroke-width="0.5" stroke-linecap="butt"><path d="M228.60843,186.61066c1.40552,0.20688 6.42215,1.05809 7.68388,0.53104c-0.39335,-0.02571 -0.78393,-0.05338 -1.17128,-0.08285c-1.84826,-0.29983 -6.63669,-0.54946 -7.40216,-1.51748c-0.10904,-0.13788 0.21622,0.27821 0.26046,0.42291c0.06835,0.22358 0.08963,0.43935 0.09762,0.65373c0.25743,-0.04761 0.53149,-0.00733 0.53149,-0.00733zM234.81481,193.09817l0.01002,-0.01044c-0.1969,-0.5491 -0.14709,-1.358 -1.14962,-1.76953c-0.97369,-0.39971 -3.35541,0.03448 -3.88515,0.463c0.10689,0.2837 0.21522,0.56483 0.4134,0.82417c0.52847,0.69158 3.31876,1.03228 4.67412,0.63214c-0.0631,-0.07376 -0.06279,-0.13934 -0.06279,-0.13934zM241.47466,187.35455l-0.01718,0.0457c-0.35208,0.47946 -0.60238,0.9765 -1.01543,1.44031c-0.29655,0.95617 -1.25669,1.70285 -2.04794,2.57562c-0.663,0.73132 -0.84612,1.61655 -2.18604,2.19525c-1.74836,0.7551 -5.08856,0.48936 -6.64563,-0.26548c-1.13186,-0.54871 -1.10899,-1.56689 -1.61042,-2.26905c-0.53498,-1.49427 -1.07861,-2.96321 -1.29198,-4.47379c-0.07025,-0.4974 -0.91661,-1.46948 0.70616,-1.71571c0.15219,-0.02309 1.8538,0.37663 2.11441,0.44735c2.01409,0.54653 3.83357,0.72651 5.98052,1.0748c1.58833,0.11738 3.24588,0.20588 4.93071,0.2534c0.12738,-0.05707 0.32345,-0.09812 0.62186,-0.07247c0.19431,0.0167 0.32759,0.0527 0.41861,0.09643c4.29003,0.07637 8.69985,-0.1261 12.54886,-0.80438c0,0 0.68153,-0.11789 0.95244,0.19605c0.27091,0.31393 -0.41063,0.43182 -0.41063,0.43182c-4.04832,0.68961 -8.59569,0.91564 -13.04832,0.84417z" fill="#000000"/><path d="M228.02846,186.62045c-0.00798,-0.21436 -0.02844,-0.438 -0.09679,-0.66158c-0.04423,-0.1447 -0.27691,-0.54616 -0.16788,-0.40829c0.76547,0.96802 5.46404,1.19924 7.3123,1.49907c0.38735,0.02949 0.86905,0.0741 1.2624,0.09981c-1.26175,0.52704 -6.37294,-0.32919 -7.77846,-0.53607c0,0 -0.27414,-0.04056 -0.53157,0.00705z" data-paper-data="{&quot;noHover&quot;:false,&quot;origItem&quot;:[&quot;Path&quot;,{&quot;applyMatrix&quot;:true,&quot;segments&quot;:[[[455.3035,347.26607],[0,0],[2.87653,0.86436]],[[471.02354,349.30746],[-2.57539,2.41285],[-0.80472,-0.0979]],[[468.62726,348.98773],[0.79249,0.11507],[-3.78291,-1.26097]],[[453.47385,342.52084],[1.57489,4.29753],[-0.22433,-0.61213]],[[454.01063,344.40157],[-0.09187,-0.64544],[0.14194,0.99728]],[[454.21658,347.322],[-0.0184,-0.95871],[0.52602,-0.2242]]],&quot;closed&quot;:true}]}" fill="#ffffff"/><path d="M234.91566,193.25188c-1.35536,0.40014 -4.22978,0.05215 -4.75825,-0.63942c-0.19817,-0.25935 -0.30572,-0.55639 -0.41261,-0.84009c0.52974,-0.42851 2.98283,-0.87255 3.95652,-0.47284c1.00252,0.41155 0.96683,1.25219 1.16373,1.80129l-0.01026,0.01058c0,0 -0.00222,0.06671 0.06088,0.14047z" data-paper-data="{&quot;noHover&quot;:false,&quot;origItem&quot;:[&quot;Path&quot;,{&quot;applyMatrix&quot;:true,&quot;segments&quot;:[[468.05936,376.02042],[[468.07977,375.97328],[0,0],[-0.408,-2.44803]],[[465.71149,368.10661],[2.05431,1.79755],[-1.99524,-1.74586]],[[457.77015,370.34712],[1.07927,-1.94019],[0.22136,1.2646]],[[458.62359,374.01638],[-0.40781,-1.15164],[1.0875,3.07103]],[[468.18911,376.64107],[-2.76809,1.84919],[-0.12975,-0.32727]]],&quot;closed&quot;:true}]}" fill="#ff0000"/></g></g></g></svg>