<svg version="1.1" xmlns="http://www.w3.org/2000/svg" xmlns:xlink="http://www.w3.org/1999/xlink" width="99.96801" height="145.75711" viewBox="0,0,99.96801,145.75711"><g transform="translate(-170.52501,-93.80784)"><g data-paper-data="{&quot;isPaintingLayer&quot;:true}" fill-rule="nonzero" stroke="none" stroke-linecap="butt" stroke-linejoin="miter" stroke-miterlimit="10" stroke-dasharray="" stroke-dashoffset="0" style="mix-blend-mode: normal"><path d="M194.37502,202.05002l-19.97279,-41.89463l-3.87721,-19.50537l12.75213,-46.76072l33.04787,31.31072l32.33079,5.39156l21.83722,29.3508l-2.918,47.60764l-8.9865,9.92656l-16.09238,21.16428l-21.68355,-0.842l-12.48458,-24.40706l3.54589,-13.67113z" fill="#ffffff" stroke-width="0"/><path d="M221.27394,179.82639c0.67082,-0.33541 1.00623,0.33541 1.00623,0.33541l0.1666,0.36193c0.11645,0.40817 0.22241,0.81936 0.32129,1.23225c2.51027,-0.0366 5.08548,0.20054 7.44594,0.20054h0.81395v0c0.41422,0 0.75,0.33578 0.75,0.75c0,0.35159 -0.24192,0.64667 -0.56838,0.72786l-1.26336,0.34455l-0.07379,-0.27058c-1.51949,0.49093 -2.99709,0.45158 -4.72595,0.42406c-0.19472,0.10551 -0.39758,0.10551 -0.39758,0.10551c-2.24936,-0.001 -4.39306,-0.46511 -6.62791,-0.46511h-0.93023v0c-0.41422,0 -0.75,-0.33578 -0.75,-0.75c0,-0.39565 0.30635,-0.71974 0.69478,-0.748l0.19638,-0.01636c-0.2527,-0.43046 -0.51257,-0.85677 -0.77716,-1.28l-0.2206,-0.33031c0,0 -0.41603,-0.62404 0.20801,-1.04006c0.62404,-0.41602 1.04006,0.20801 1.04006,0.20801l0.24452,0.36737c0.3645,0.58337 0.72032,1.17238 1.0617,1.76958c0,0 0.08405,0.1471 0.10235,0.34142c0.00492,0.00024 0.00984,0.00046 0.01476,0.0007c0.72769,-0.13816 1.47498,-0.22592 2.23377,-0.27805c-0.07342,-0.29506 -0.15121,-0.58901 -0.23484,-0.88127l-0.06596,-0.10319c0,0 -0.33541,-0.67082 0.33541,-1.00623z" fill="#9966ff" stroke-width="0.5"/><path d="M251.3814,180.3671c0.71151,0.23717 0.47434,0.94868 0.47434,0.94868l-0.56445,0.81391c-0.07194,0.02698 -0.14389,0.05396 -0.21583,0.08094c-0.03743,0.32974 -0.28867,0.59463 -0.61172,0.65265l-1.14917,0.22983l-0.0433,-0.21648c-0.01605,0.00036 -0.03232,0.00077 -0.04882,0.00124c-0.15286,0.04586 -0.30695,0.08589 -0.46195,0.11913c-0.19753,0.11068 -0.40697,0.11068 -0.40697,0.11068c-1.44965,0 -2.89928,0.00047 -4.34893,-0.00145l-0.04405,-0.02332l-0.00237,0.01898l-0.92037,-0.11505c-0.37508,-0.04137 -0.66684,-0.35934 -0.66684,-0.74544c0,-0.3861 0.29176,-0.70407 0.66684,-0.74544l0.92037,-0.11505l0.02658,0.21263l0.08338,0.01042c0.95932,-0.23044 1.93349,-0.27419 2.93448,-0.26828c0.06227,-0.21508 0.12454,-0.43016 0.18681,-0.64524l0.377,-0.76119c0,0 0.33541,-0.67082 1.00623,-0.33541c0.67082,0.33541 0.33541,1.00623 0.33541,1.00623l-0.32067,0.63415c-0.01227,0.04365 -0.02455,0.08729 -0.03683,0.13094c0.28064,0.00572 0.56372,0.00996 0.84947,0.00996h0.0503c0.14701,-0.2122 0.38403,-0.30109 0.38403,-0.30109c0.31008,-0.11628 0.62015,-0.23256 0.93023,-0.34884l-0.33189,0.11624c0,0 0.23718,-0.71151 0.94869,-0.47434z" fill="#9966ff" stroke-width="0.5"/><path d="M238.63715,189.8506c0.40956,-0.40956 0.81911,-0.18654 0.98441,-0.06372c4.60571,0.69163 0.17333,3.26574 -2.09424,3.89495c-2.4915,0.01746 -4.90841,-0.08267 -7.31083,-0.84286c-2.88489,-0.91286 -5.61262,-4.55106 -8.11312,-0.97559c0,0 -0.43593,0.6103 -1.04623,0.17437c-0.6103,-0.43593 -0.17437,-1.04623 -0.17437,-1.04623c3.27031,-4.50269 6.09589,-0.71856 9.79386,0.41976c2.19809,0.67662 4.36948,0.7651 6.64265,0.78505c1.26333,-0.37433 4.3348,-0.6533 1.87146,-0.9549l-0.55358,-0.33015c0,0 -0.53033,-0.53034 0,-1.06067z" fill="#9966ff" stroke-width="0.5"/><path d="M234.35713,205.27808c0.33541,-0.67082 1.00623,-0.33541 1.00623,-0.33541l0.10319,0.06596c0.67875,0.19444 1.08314,0.32854 1.2942,0.40479c-0.50825,-0.23415 -1.84471,-1.003 -1.51932,-2.23007c0.08005,-0.30188 0.43114,-0.65777 0.82203,-0.92415c-0.43551,-0.03389 -0.8291,-0.0851 -0.87775,-0.08291c-1.04312,0.04705 -1.24108,0.21625 -1.95301,0.94427c0,0 -0.53033,0.53033 -1.06066,0c-0.53033,-0.53033 0,-1.06066 0,-1.06066c0.28071,-0.27584 0.96805,-0.64341 1.79908,-0.94936c-0.16574,0.03223 -0.33425,0.07029 -0.50545,0.11427c-0.99801,0.2481 -1.58903,0.49109 -2.43941,1.05863c-4.81323,3.21233 -1.07045,7.55449 3.36964,8.64895c0,0 0.72761,0.1819 0.54571,0.90951c-0.1819,0.72761 -0.90951,0.54571 -0.90951,0.54571c-5.63605,-1.42667 -9.83392,-7.35872 -3.83966,-11.35105c0.97858,-0.65176 1.76615,-0.97966 2.90943,-1.26695c2.37071,-0.57922 5.53941,-0.43687 7.08202,1.81876c1.87233,2.73774 2.44054,9.436 -1.34524,10.6765l-0.78042,0.13493c0,0 -0.7398,0.1233 -0.86309,-0.6165c-0.1233,-0.7398 0.6165,-0.86309 0.6165,-0.86309l0.61493,-0.09763c1.90905,-0.40364 1.74514,-3.61014 1.55468,-5.11745c-0.16668,-1.31917 -0.58343,-2.38706 -1.21605,-3.17202c-0.24429,0.98067 -1.51261,0.55152 -2.09027,1.09192c-0.19863,0.18582 0.52814,0.16388 0.75023,0.3209c0.58159,0.41118 1.52323,1.48149 1.07083,2.33843c-0.78979,1.49603 -2.42588,0.45592 -3.44152,0.16655l-0.36193,-0.1666c0,0 -0.67082,-0.33541 -0.33541,-1.00623z" fill="#9966ff" stroke-width="0.5"/><path d="M256.10438,204.85019c0.1819,0.72761 -0.54571,0.90951 -0.54571,0.90951l-0.23894,0.0595c0.04908,0.54875 -0.51974,0.73836 -0.51974,0.73836l-1.0299,0.3433c-0.07926,0.0285 -0.16471,0.04402 -0.25378,0.04402c-0.41421,0 -0.75,-0.33579 -0.75,-0.75c0,-0.16573 0.05375,-0.3189 0.14477,-0.44303l0.57632,-0.80685l0.25816,0.1844c0.26413,-0.32102 0.57957,-0.5775 0.96005,-0.70218l0.48926,-0.12274c0,0 0.72761,-0.1819 0.90951,0.54571z" fill="#9966ff" stroke-width="0.5"/><path d="M221.30241,219.58082l-0.40711,-0.13843c-0.86884,-0.37421 -1.51553,-0.53903 -2.4618,-0.64162c0,0 -0.33828,-0.03759 -0.53375,-0.29c-3.26866,-0.64218 -7.5336,-2.08388 -7.56804,-5.32688c1.27546,-4.59653 3.49479,-11.39208 7.252,-15.00741c-1.05869,-0.73571 -2.02111,-1.68855 -3.05572,-2.45213c0.52999,0.98578 1.20511,2.25124 0.76088,2.92664c-0.8145,1.23834 -2.76306,0.8523 -3.95355,0.85089c-3.12619,-0.3472 -8.02168,-1.00769 -9.81714,-3.84662c-0.17137,0.74812 -0.56824,1.52878 -0.67045,2.31906v0.89499c0,0.41421 -0.33579,0.75 -0.75,0.75c-0.17598,0 -0.3378,-0.06061 -0.46573,-0.16209l-1.04124,-0.80985l0.12494,-0.16063c-3.92359,-2.96092 -4.69834,-7.86579 -6.97977,-12.15454c-0.355,-0.66735 -2.62558,2.22808 -3.48776,1.85826c-0.56112,-0.24068 -0.70654,-0.99595 -1.05981,-1.49393c-0.80393,-3.41225 -1.04484,-6.28993 -0.28059,-9.58924c-1.80991,-1.17914 -3.48557,-2.51606 -4.62553,-4.07541c-1.47738,-2.02092 -2.47002,-4.42025 -3.66319,-6.60593c-1.89343,-3.79062 -2.16195,-6.22302 -1.47094,-10.35119c0.03373,-0.20151 0.18878,-1.21259 0.39995,-2.08946c-5.51758,-4.12708 -6.41766,-11.45774 -6.40775,-17.84357c0.72641,-2.5851 2.90572,-0.9941 4.88665,-0.39354c-0.62281,-6.08966 5.66872,-12.2517 7.10096,-17.94683c0.77721,-6.29362 0.88721,-12.83859 0.00374,-19.12447c-0.23936,-0.8309 -0.98047,-2.20932 -0.94612,-3.03323c0.11171,-2.67928 3.94207,-1.92749 5.38416,-0.86368c3.04695,2.24767 4.53406,5.74868 5.99101,9.09551c0.44035,0.16687 0.84593,0.48744 1.21555,0.77653c1.01713,0.79553 1.56043,3.05391 1.99112,4.16283c0.71383,1.83797 1.18794,4.03137 1.44682,6.00933c0.13847,1.05794 -0.24689,2.82895 0.78045,3.58372c1.06633,0.78342 2.32241,0.89935 3.54335,1.24606c5.0223,1.11867 11.69099,-0.11535 11.72834,7.35487v0.5814c0,0 0,0.75 -0.75,0.75c-0.75,0 -0.75,-0.75 -0.75,-0.75v-0.5814c0.03906,-6.38494 -6.41424,-4.97333 -10.59724,-5.90094c-1.42079,-0.40859 -2.92711,-0.5588 -4.13107,-1.54463c-1.77759,-1.45553 -1.68057,-6.1065 -2.11644,-8.21566c-0.3043,-1.47247 -0.71583,-2.86783 -1.4386,-4.21743c-0.03037,-0.05671 -0.50977,-0.88249 -0.7278,-1.28323c-0.13739,0.17303 -0.34958,0.28398 -0.58768,0.28398c-0.38198,0 -0.69727,-0.28556 -0.74402,-0.65485l-0.10359,-0.72516c-1.17887,-2.61024 -2.19022,-5.17501 -4.12983,-7.35817c-1.074,-1.20886 -2.73915,-2.61504 -4.53457,-2.02367c-0.3149,0.10372 0.22967,0.62208 0.33901,0.93508c0.13153,0.37652 0.47173,1.5929 0.60419,2.05989c0.93736,6.46935 0.82266,13.2334 0.00374,19.71274c-1.15504,4.64462 -4.11535,8.22913 -5.85381,12.58009c-0.83769,2.09654 -1.68359,3.75648 -1.02276,6.02964c0,0 0.20604,0.72114 -0.5151,0.92718c-0.39911,0.11403 -0.64045,-0.05593 -0.7764,-0.23047c-1.14546,-0.21323 -3.87916,-1.30929 -3.79781,-1.13519c0.00971,5.70853 0.67369,12.5549 5.56252,16.35537c1.01005,-0.23334 1.92244,0.72046 2.6016,1.2631c2.18116,1.74276 4.76643,3.12577 7.21436,4.46064c0.09577,0.05224 0.1927,0.10457 0.2907,0.15701c0.39979,-2.19728 0.84151,-4.33198 2.401,-6.05086c1.22979,-1.35548 3.47338,-1.91673 4.27069,-3.40049c1.40868,-2.62151 -0.0403,-5.21713 2.9857,-6.96667c2.85108,-1.88887 6.82051,-3.00411 10.01396,-4.13283c3.26638,-1.1545 6.47548,-4.13107 8.88741,-6.54096c1.96627,-2.46169 3.57928,-4.78481 6.82757,-5.35532c0.58682,-0.10307 2.22677,-0.59309 2.74998,-0.02365c0.86045,0.93648 -0.10955,3.33 0.56537,4.5429c0.8125,1.46016 4.9687,0.81883 6.34616,0.81883c2.76973,0 5.70689,-0.29227 8.41236,0.4182c5.44546,1.43 8.56626,6.04624 11.93125,10.08422c1.60574,1.92697 2.82082,4.21565 4.61372,6.00485c1.45696,1.45395 4.01064,2.48508 4.80836,4.42822c0.71613,1.74438 0.68724,4.20894 0.65053,6.30687c0.54842,-0.89213 1.10538,-1.79618 1.73077,-2.57491c0.33847,-0.42146 0.57826,-1.2557 1.11335,-1.17906c1.06146,0.15203 1.57437,2.34375 1.6701,3.10021c0.51916,4.10258 -0.45562,7.99269 -1.54808,11.85094c-0.32547,0.78226 -0.64899,1.56641 -0.96304,2.35367c0.01882,0.08648 0.03782,0.17288 0.05702,0.25922l0.09565,0.27436c0,0 0.15347,0.46041 -0.15686,0.76396c0.95078,2.26581 1.30942,4.91531 2.23128,7.20946c0.30081,0.7486 1.15592,1.74435 0.14733,2.59779c-1.21949,1.0319 -2.34093,-0.53554 -3.25655,-0.41152c-0.62434,0.08457 -1.04668,4.4769 -1.16064,5.15181c-0.04799,0.13171 -0.09778,0.26336 -0.14927,0.39489c1.82446,0.64982 3.10713,2.11583 4.09301,3.84316c2.74914,6.17415 -0.99479,12.09996 -7.38429,10.98518c1.43006,1.95577 2.43909,4.17905 2.46517,6.09779c-0.06807,3.34638 -2.26619,1.96966 -3.87567,3.48411c-0.93045,0.8755 -0.73347,2.88648 -1.49845,3.93117c-0.79822,1.09007 -2.00205,1.64355 -3.32948,1.82425l0.13605,0.42506c0.49192,0.98693 0.80618,1.95721 1.11774,3.0172c0.0006,0.9743 -0.02319,2.4049 -0.77777,3.18157c-0.56121,0.57764 -1.58353,1.10044 -2.70764,1.40677c-0.00555,0.07366 -0.01741,0.12108 -0.01741,0.12108c-0.78938,2.69555 2.49532,1.77643 4.03317,1.5201c2.57639,-0.42943 8.23717,-2.48822 8.31476,1.77887c0.02213,1.21692 -0.20848,1.70912 -0.53246,2.87633c-1.48087,2.17774 -4.97995,2.62619 -7.46694,2.05072c-0.88634,-0.20509 -1.67766,-1.26159 -2.54481,-0.9864c-0.00928,0.00295 -0.0374,1.74925 -0.03715,1.8808v0.46512c0,0 0,0.75 -0.75,0.75c-0.75,0 -0.75,-0.75 -0.75,-0.75v-0.46512c0.00151,-0.89814 -0.10677,-2.71792 0.89308,-3.23548c0.47387,-0.24529 1.62722,0.3211 2.13705,0.48295c1.86134,0.59089 5.88869,1.16371 7.15352,-0.81397c0.16281,-0.61129 0.98477,-3.00191 0.02039,-3.42653c-1.98085,-0.87216 -6.03969,1.13066 -8.13418,1.22957c-2.4238,0.11446 -4.19742,-0.74304 -3.88214,-3.20963c-1.51784,0.10096 -2.92692,-0.31 -3.38451,-1.61198c-0.67588,-1.92311 0.8408,-2.44978 1.57717,-3.74486c0.62804,-1.10455 0.50561,-2.15552 0.36839,-3.37794c0,0 -0.02104,-0.18939 0.05355,-0.38785c-0.1298,-0.05659 -0.25662,-0.11514 -0.38009,-0.17543c-0.00662,0.01276 -0.01363,0.02563 -0.02104,0.03861c-0.3721,0.65118 -1.02329,0.27908 -1.02329,0.27908c-0.46518,-0.26672 -0.85556,-0.49083 -1.18448,-0.74451c-0.07436,0.97635 -0.26051,1.95541 -0.38058,2.90546c-0.61182,2.45126 -1.24911,5.18092 -1.38405,7.69959c-0.26478,4.94225 -0.28763,10.89091 -6.79506,10.93596c-1.05444,-0.00347 -2.73715,0.10077 -3.55359,-0.80107c-0.24554,-0.27123 -0.4143,-0.57928 -0.52863,-0.91041c-3.14892,4.40772 -9.43388,2.76096 -11.72155,-1.76199c-1.88791,-5.03442 -1.70037,-10.42854 -0.39367,-15.59898c-0.11917,-0.00802 -0.20254,-0.03581 -0.20254,-0.03581zM221.48617,218.06367l0.29057,0.09413c0,0 0.04694,0.01565 0.11269,0.05096c0.14123,-0.48164 0.29158,-0.96082 0.45025,-1.43709c0,0 0.0082,-0.02461 0.02614,-0.06315c-1.78101,-0.72455 -2.62503,-2.3653 -2.89165,-4.31246c-0.73729,-0.36864 -1.51417,-0.75709 -2.2235,-1.11175c0,0 -0.67082,-0.33541 -0.33541,-1.00623c0.33541,-0.67082 1.00623,-0.33541 1.00623,-0.33541c0.4857,0.24285 0.97139,0.4857 1.45709,0.72855c0.03744,-2.33575 0.6783,-4.84006 1.40764,-6.63968c-0.08934,-0.06513 -0.17542,-0.14129 -0.25767,-0.22935c-0.46856,-0.50162 -0.00901,-1.41107 -0.28542,-2.03938c-0.36076,-0.82008 -2.55636,1.06272 -2.23723,-1.60065c0.05241,-0.4374 0.55973,-0.84936 1.08051,-1.18026c-0.05128,-0.01758 -0.10186,-0.03581 -0.1517,-0.05472c-3.72286,3.1135 -5.86278,10.23015 -7.11751,14.46476c-0.04872,2.48616 5.89971,3.61564 7.8619,3.91342l0.70789,-0.10874c0,0 0.74246,-0.10607 0.84853,0.6364c0.00658,0.04606 0.00989,0.08967 0.01032,0.13096c0.07907,0.03183 0.1591,0.06504 0.24033,0.0997zM258.93078,193.83937c0.01355,0.00339 0.02678,0.00696 0.0397,0.01072c0.32058,-0.46229 0.69838,-1.27879 0.81482,-1.49747c0.56771,-1.06625 1.22191,-2.06636 1.77676,-3.1238c-0.04613,-0.0949 -0.0748,-0.21287 -0.0748,-0.35952c0,-0.52945 0.37376,-0.68514 0.59358,-0.73093c0.07001,-0.16637 0.13638,-0.33496 0.19849,-0.50619c0.29287,-1.78294 0.27126,-5.56611 2.32773,-6.24354c0.48236,-0.1589 1.97138,0.66232 2.55741,0.75127c0.34502,0.05237 -0.4143,-0.56922 -0.55035,-0.89058c-0.29404,-0.69457 -0.54723,-1.40574 -0.82029,-2.10883c-0.54103,-1.39307 -0.71715,-2.93929 -1.15173,-4.36075c-0.1327,0.07343 -0.30888,0.10755 -0.54023,0.04971c-0.72761,-0.1819 -0.54571,-0.90951 -0.54571,-0.90951l0.14164,-0.54656c0.06125,-0.16285 0.12305,-0.32553 0.18533,-0.48806c-0.02463,-0.18702 0.00624,-0.42753 0.24037,-0.62043c0.02931,-0.07488 0.05871,-0.14973 0.08821,-0.22454c-0.82541,-3.93043 -1.30636,-7.99776 -1.9545,-11.95855c-0.00349,-2.16615 0.24742,-5.18931 -0.52983,-7.21197c-0.60514,-1.57478 -3.30031,-2.74803 -4.49396,-3.94387c-1.81887,-1.82221 -3.05791,-4.13142 -4.68861,-6.08818c-3.14476,-3.77371 -6.05138,-8.27114 -11.16665,-9.59547c-2.57397,-0.6664 -5.39148,-0.36722 -8.02463,-0.36722c-2.68552,0 -7.20597,0.73887 -8.05502,-2.6686c-0.24101,-0.96725 0.28215,-2.35182 0.08283,-3.13247c-0.18866,-0.7389 -1.47267,0.40126 -2.22023,0.55201c-2.32141,0.46814 -3.80934,3.0572 -5.17897,4.76668c-2.59522,2.59722 -5.97637,5.68262 -9.48468,6.94741c-3.09656,1.11634 -6.99278,2.15361 -9.75348,4.00671c-2.45464,1.29298 -1.16223,4.2452 -2.45908,6.42108c-1.06698,1.79019 -3.05299,2.12138 -4.47057,3.67688c-1.46327,1.60563 -1.74615,3.70363 -2.11522,5.76189c3.02985,1.53623 6.62609,3.21943 8.83592,5.41133l0.34884,0.34884c0,0 0.04427,0.04427 0.09444,0.12002c0.01342,-0.2886 0.02058,-0.57815 0.02058,-0.86876c0,0 0,-0.75 0.75,-0.75c0.75,0 0.75,0.75 0.75,0.75c0,5.60363 -2.82306,10.95118 -1.41774,16.56228c0.31718,1.27591 0.84859,2.35388 1.4327,3.52639l0.44047,0.65809c0,0 0.41603,0.62404 -0.20801,1.04006c-0.62404,0.41603 -1.04006,-0.20801 -1.04006,-0.20801l-0.48976,-0.73725c-0.65097,-1.2976 -1.23534,-2.50192 -1.59055,-3.91547c-0.7319,-2.93264 -0.37449,-5.74864 0.1587,-8.56081c-1.68682,-0.69365 -3.43914,-1.16914 -4.8956,-2.31132c-1.00919,-0.79143 -1.18321,-1.62138 -1.88344,-2.58576c-1.17293,-1.6154 -3.34642,-1.67168 -5.09391,-1.67168l-0.82097,-0.12648c0,0 -0.7398,-0.1233 -0.6165,-0.86309c0.1233,-0.7398 0.86309,-0.6165 0.86309,-0.6165l0.57438,0.10607c2.29452,0 4.76152,0.27779 6.30144,2.2818c0.68755,0.89476 0.67882,1.5736 1.60493,2.29796c1.25205,0.97928 2.79044,1.41919 4.26165,1.9931c0.33918,-1.6841 0.6833,-3.374 0.83664,-5.09386c-0.01035,0.01129 -0.02117,0.02259 -0.03247,0.03389c-0.53033,0.53033 -1.06066,0 -1.06066,0l-0.34884,-0.34884c-2.48955,-2.51395 -7.06353,-4.33611 -10.17765,-6.0347c-2.36042,-1.28785 -6.61708,-2.97053 -8.26014,-5.34402c-0.06832,0.07176 -0.13999,0.12168 -0.21196,0.15504c0.03278,0.23587 0.05866,0.48799 0.02677,0.63111c-0.2388,1.07168 -0.35157,2.16533 -0.57797,3.24041c-0.58765,2.79042 0.4262,4.90971 1.67508,7.40475c1.16007,2.12849 2.13352,4.43267 3.54611,6.41733c0.92827,1.3042 2.31464,2.4523 3.84273,3.47676c0.09681,-0.18682 0.36358,-0.55487 0.90453,-0.37455c0.71151,0.23717 0.47434,0.94868 0.47434,0.94868l-0.08363,0.24913c1.59272,0.96479 3.24029,1.81342 4.62007,2.57901c0,0 0.65562,0.36423 0.29139,1.01985c-0.36423,0.65562 -1.01985,0.29139 -1.01985,0.29139c-1.31096,-0.72917 -2.79858,-1.51516 -4.26389,-2.39002c-0.56026,2.78954 -0.33485,5.26619 0.3282,8.20951c0.17821,1.03669 2.33257,-2.80398 4.28964,-0.79846c1.22954,1.25998 1.74187,4.75531 2.53683,6.42049c0.95208,1.99428 3.04442,3.60735 4.0133,5.55674c0.19122,-1.16994 0.49423,-1.92376 1.1083,-2.67358l-0.10861,-0.08146l0.69244,-0.92325c0.13648,-0.18613 0.35674,-0.30698 0.60524,-0.30698c0.34853,0 0.64154,0.23774 0.7257,0.5599l0.21808,0.76329c1.03004,2.47875 6.33569,3.06086 8.74886,3.32912c0.60987,-0.00079 2.0619,0.31865 2.55808,-0.07934c0.49942,-0.40058 -0.70868,-1.0745 -0.96145,-1.66272c-0.42853,-0.99722 -0.81802,-2.05014 -1.18198,-3.0718c-1.11125,-3.11939 -2.24745,-6.4425 -2.25264,-9.78613c0,0 0,-0.75 0.75,-0.75c0.75,0 0.75,0.75 0.75,0.75c-0.00181,1.06333 0.11904,2.12142 0.32271,3.17116c0.24367,0.15046 0.33648,0.42888 0.33648,0.42888l0.05595,0.2139c2.04533,3.64606 6.76487,4.4587 9.9974,6.60853c5.85805,3.96092 15.91797,0.83671 21.79525,-1.36871c1.19991,-0.3244 2.26712,-0.81838 3.21393,-1.44666l-0.01241,-0.16524c0,0 0,-0.75 0.75,-0.75c0.15004,0 0.27006,0.03002 0.36607,0.07804c3.29515,-2.83847 4.85726,-7.47728 5.40135,-11.86292c0,0 0.04603,-0.36822 0.33234,-0.55427c-0.31623,-1.49422 -0.25247,-3.96066 -0.43014,-4.74487c-1.04987,-3.5256 -2.21231,-6.73469 -5.10324,-9.14795c-0.41044,-0.34262 -1.64945,-1.56085 -2.13983,-1.51117c-0.74425,0.0754 -0.63272,1.42527 -1.22787,1.87848c-1.81428,1.3816 -3.65502,2.81121 -5.92379,2.19969c-0.38391,-0.65936 -0.24962,-2.26335 -0.98648,-2.06545c-0.62832,0.16875 -0.97645,0.87403 -1.54007,1.19898c-2.08289,1.2009 -4.7117,2.38041 -6.97796,3.19468c-1.82092,0.65426 -8.0784,0.51726 -6.86984,-1.76923c-3.4838,1.93664 -7.31752,5.06026 -7.75635,9.13001c0.00003,0.03479 -0.00003,0.06967 -0.00019,0.10462c0.22133,-0.19842 0.53042,-0.19842 0.53042,-0.19842c1.91282,0 9.41175,0.66173 8.90695,-2.29651l-0.30656,-0.2059c0,0 -0.46852,-0.58565 0.11713,-1.05417c0.58565,-0.46852 1.05417,0.11713 1.05417,0.11713l0.62367,0.95689c0.45926,4.74458 -7.21893,3.98256 -10.39537,3.98256c0,0 -0.33515,0 -0.55737,-0.22404c-0.04582,1.20886 -0.11748,2.46209 0.05693,3.61102c0.04315,0.28424 0.6814,3.01503 0.65016,3.12328c-0.16282,0.5643 -0.64088,1.15933 -1.21685,1.27431c-0.64685,0.12913 -1.71805,-1.07394 -2.13763,-1.49262c-2.10595,-2.10147 -2.90417,-4.00866 -4.51231,-6.39337c0,0 -0.41603,-0.62404 0.20801,-1.04006c0.62404,-0.41602 1.04006,0.20801 1.04006,0.20801c0.85979,1.30206 1.1645,2.90328 2.16527,4.12658c0.92321,1.1285 2.26472,1.8478 3.04525,3.10371c0.21929,0.35285 -0.29783,-0.77752 -0.40235,-1.1796c-0.13223,-0.50867 -0.25063,-1.02239 -0.3278,-1.54227c-0.24087,-1.62282 -0.04087,-3.42327 -0.0393,-5.06411c0.56274,-4.94836 5.17037,-8.71786 9.38332,-10.80577l0.75798,-0.6497c0.1316,-0.11417 0.30337,-0.18328 0.49127,-0.18328c0.41422,0 0.75,0.33578 0.75,0.75v1.16279h-0.01404c0.00163,0.04715 0.00186,0.09441 0.00051,0.14183c-0.00762,0.26769 -0.19414,0.73197 -0.39597,1.07034c0.24318,-0.0094 0.52196,0.01471 0.70602,0.01458c1.21101,-0.00091 2.76722,0.25414 3.92729,-0.18651c2.19102,-0.83226 4.71618,-1.90907 6.74297,-3.08438c0.60631,-0.3516 1.93163,-1.46106 2.64598,-1.35916c0.66381,0.09469 1.37491,1.76802 1.57166,2.35316c1.13573,0.20189 3.85957,-1.85671 4.53309,-2.68237c0.21592,-0.26469 0.96246,-1.57176 1.10595,-1.61156c1.25092,-0.34691 2.81839,1.03265 3.67413,1.74465c3.14854,2.6197 4.44049,6.09964 5.59444,9.92182c0.21447,0.98072 -0.02298,4.43663 0.44367,5.07127c0.16917,0.23007 2.72851,-2.34835 2.88652,-2.90991c0.85106,-3.02462 0.11805,-5.75527 -0.26525,-8.73957l-0.00579,-0.32558c0,0 0,-0.75 0.75,-0.75c0.75,0 0.75,0.75 0.75,0.75l-0.0058,0.13953c0.42524,3.51444 1.89006,8.36994 -1.01961,11.31268c-0.70763,0.71567 -2.19941,2.15351 -3.48035,1.91423c-0.69445,4.76075 -2.55453,9.62167 -6.239,12.54992c0.16393,0.71841 0.30208,1.43384 0.39447,2.17657c-0.05372,3.71242 4.69466,-1.44474 6.01985,-2.3043c0.41289,-0.26781 0.91026,-0.55334 1.39669,-0.47859c0.68779,0.10569 1.36332,1.36484 1.66055,1.85639c0.15749,0.26046 0.21903,0.75737 0.3553,1.05217c0.13953,-0.11091 0.3417,-0.1808 0.62888,-0.10901zM259.49134,198.64696c0,0 0.10607,0.74246 -0.6364,0.84853c-0.74246,0.10607 -0.84853,-0.6364 -0.84853,-0.6364c-0.08814,-0.62662 -0.11947,-1.25379 -0.12858,-1.88231c-0.49723,-0.0986 -0.98521,-0.15297 -1.45454,-0.14818c0,0 -0.22804,0 -0.43263,-0.12574c0.2795,0.98103 0.72299,1.97693 1.03993,3.13189c0,0 0.00158,0.00579 0.00394,0.01649c0.53522,0.41328 1.06606,0.88783 1.57621,1.40706c0.16227,0.00219 0.2852,0.04829 0.2852,0.04829c6.26505,2.39008 9.88677,-2.86034 7.43963,-8.37757c-0.79021,-1.381 -1.83466,-2.67137 -3.34879,-3.15377c-0.59293,1.2475 -1.30464,2.46894 -2.03487,3.62143c0.69271,0.19317 1.35035,0.49531 1.99533,0.83262c0.02108,-0.14692 0.03993,-0.2945 0.05622,-0.44282c0,0 0.08282,-0.74541 0.82824,-0.66259c0.74541,0.08282 0.66259,0.82824 0.66259,0.82824c-0.03928,0.34986 -0.0924,0.69562 -0.15507,1.03853c0.26273,0.14386 0.52607,0.28462 0.79158,0.41713l0.3112,0.25677c0,0 0.53033,0.53033 0,1.06066c-0.53033,0.53033 -1.06066,0 -1.06066,0l0.07864,0.02421c-0.14977,-0.07502 -0.30005,-0.15483 -0.45091,-0.23781c-0.09376,0.3876 -0.19165,0.77393 -0.28714,1.16088c0.28279,0.13931 0.55905,0.27676 0.82748,0.40971l-0.10285,-0.07918c0,0 0.75,0 0.75,0.75c0,0.75 -0.75,0.75 -0.75,0.75l-0.56797,-0.07918c-0.16193,-0.08188 -0.32843,-0.1665 -0.49894,-0.25295c-0.06417,0.32001 -0.12115,0.64209 -0.16737,0.96727l-0.12331,0.62242c0,0 -0.14709,0.73544 -0.88252,0.58835c-0.73544,-0.14709 -0.58835,-0.88252 -0.58835,-0.88252l0.10925,-0.54037c0.06982,-0.48646 0.16399,-0.96576 0.27028,-1.44149c-0.83725,-0.4018 -1.72548,-0.7939 -2.61399,-1.09565c0.01537,0.42054 0.04696,0.84011 0.10771,1.25807zM256.4233,195.32861c0.47793,0.00377 0.96549,0.05495 1.45758,0.14319c0.00007,-0.01013 0.00014,-0.02025 0.0002,-0.03038c-0.86771,-0.59254 -0.95469,-2.18606 -1.55966,-2.74955l-0.04125,0.1175c-0.52822,1.0553 -0.6269,1.97585 -0.5096,2.86759c0.20292,-0.34835 0.65274,-0.34835 0.65274,-0.34835zM262.66143,195.74007c-0.8413,-0.47354 -1.70839,-0.89794 -2.61661,-1.0112c-0.19952,0.2493 -0.42589,0.49286 -0.6639,0.66913c-0.00123,0.14758 -0.00297,0.29516 -0.00468,0.44272c1.00926,0.31021 2.01585,0.73086 2.9766,1.17492c0.10625,-0.42421 0.21207,-0.84853 0.30858,-1.27556zM254.17166,194.45434c-2.24049,1.74856 -6.747,3.89498 -6.79924,-0.53843c-0.05749,-0.45721 -0.13625,-0.90368 -0.2284,-1.34737c-0.0825,0.04943 -0.16577,0.09799 -0.24981,0.14565c-0.05308,0.2398 -0.21966,0.40637 -0.21966,0.40637c-1.96914,1.92854 -4.96259,3.28244 -8.16988,4.21878c0.42091,0.17962 0.8188,0.3818 1.19805,0.60787c0.42041,-0.22375 0.8191,0.1251 0.8191,0.1251c1.9845,1.73759 4.63124,4.97211 5.34214,7.56285c0.32342,1.17863 0.14843,3.23676 0.92453,4.33366c0.56709,-0.50537 1.35358,-0.49888 1.81972,-1.07659c0.21783,-0.26997 0.20795,-3.37823 0.20522,-3.82997c-0.005,-0.82791 -1.56623,-1.97283 -1.85382,-2.9494c0.15156,-3.04124 5.57086,-4.63509 8.13663,-3.46556c-0.49737,-1.49988 -0.96803,-2.82029 -0.82392,-4.29765c-0.05198,0.05712 -0.0873,0.09425 -0.10066,0.10468zM248.56282,215.90628l0.00216,0.00144c1.83536,1.1661 6.02978,2.14733 7.59872,-0.03509c0.86716,-1.20625 0.56359,-3.14058 1.75736,-4.20837c1.20556,-1.07834 3.40216,-0.13827 3.33363,-2.32984c0.06324,-3.44819 -4.35648,-8.80507 -7.67172,-9.61742c-1.03972,-0.25477 -5.3112,1.06767 -5.13786,2.18781c0.26334,0.97783 0.86749,0.9475 1.38041,1.76285c0.52412,0.83315 0.47652,3.84138 0.36839,4.91559c-0.19337,1.92111 -1.68392,1.33133 -2.43064,2.53375c0.02667,0.17591 -0.01228,0.38553 -0.21605,0.59581c-0.20815,1.24524 0.64747,3.06099 1.01559,4.19346zM244.51831,206.48125c-0.16046,1.20984 -0.39281,2.42901 -0.15086,3.63342c0.30328,1.50972 1.20315,2.83891 1.65072,4.29919c0.57373,0.10719 0.57373,0.73451 0.57373,0.73451l-0.02886,-0.08976c0.07905,0.36383 0.22768,0.60961 0.42717,0.80156c-0.4352,-1.36165 -1.10885,-3.03457 -0.88909,-4.45873c-1.35353,-1.25587 -1.23294,-3.1395 -1.58281,-4.92018zM224.861,200.69984c0.72761,0.1819 0.54571,0.90951 0.54571,0.90951l-0.23359,0.71914c-0.5192,0.69253 -1.71269,1.70783 -2.86605,1.96081c-0.71018,1.67418 -1.54145,4.66408 -1.46059,7.13804c0.17612,0.14032 0.43659,0.44595 0.20112,0.9169c-0.0305,0.061 -0.06377,0.11368 -0.09906,0.15905c0.23036,1.38446 0.85538,2.47627 2.10727,2.8638l0.7301,0.41723c0,0 0.64312,0.38587 0.25725,1.02899c-0.07514,0.12524 -0.16004,0.21145 -0.24804,0.2691c-0.01054,0.098 -0.0324,0.1636 -0.0324,0.1636c-1.8792,5.63454 -2.59036,11.76679 -0.48915,17.37002c1.93822,3.93561 7.98399,5.06383 9.77415,0.3824c0.19274,-0.50402 0.32746,-1.01007 0.41587,-1.5174c0.00024,-0.02574 0.00038,-0.05136 0.0004,-0.07684c0.00065,-0.90551 0.03706,-1.81059 0.09137,-2.71598c-0.11555,-1.404 -0.42038,-2.8071 -0.66973,-4.19341c-0.00259,-1.34029 -0.00303,-2.68055 -0.00303,-4.02084l-0.17559,-0.41664c-1.1358,-0.38116 -2.01022,-1.15263 -2.36016,-2.42471c0,0 -0.1819,-0.72761 0.54571,-0.90951c0.72761,-0.1819 0.90951,0.54571 0.90951,0.54571c0.32699,1.54078 1.59727,1.293 2.99332,1.29237c2.23642,-0.00101 5.816,-0.49313 6.62333,-3.00171l-0.04775,0.03078c0,0 0,-0.75 0.75,-0.75c0.75,0 0.75,0.75 0.75,0.75l-0.04775,0.4959c-0.86966,2.12563 -4.2514,3.93129 -7.29859,4.22346c0.02076,0.09573 0.02076,0.16436 0.02076,0.16436c0,2.78488 -0.33723,5.55182 -0.49803,8.31308c0.06855,0.96016 0.0584,1.91781 -0.09061,2.84963c-0.05032,0.91795 -0.32903,2.55722 0.25269,3.19068c0.47806,0.52058 1.94926,0.36376 2.49293,0.36173c5.50401,0.04599 5.06806,-5.51745 5.29796,-9.52916c0.14817,-2.58545 0.777,-5.36734 1.40665,-7.88181c0.16868,-1.36592 0.50946,-2.80642 0.3417,-4.18925c-0.2189,-1.80445 -1.49364,-3.38136 -1.85094,-5.17422c-0.42183,-2.11667 0.69384,-4.42569 0.13572,-6.43645c-0.18943,-0.68247 -0.88029,-1.39408 -1.20165,-2.04015c-1.49948,-1.99475 -3.06987,-3.13877 -5.47415,-3.73646l-0.54658,-0.10845c0,0 -0.0538,-0.01076 -0.12938,-0.04101c-2.76163,0.59875 -5.50818,0.93104 -7.7484,1.0921c-1.77671,0.01342 -4.53745,0.39687 -6.83745,0.21426c-0.10447,0.25601 -0.34697,0.39459 -0.34697,0.39459c-0.40579,0.2298 -0.82227,0.44545 -1.25705,0.6141c-0.21533,0.08352 0.47077,-0.08659 0.69252,-0.02205c0.43448,0.12646 0.97949,0.15645 1.2563,0.51442c0.37598,0.48622 -0.04544,1.26275 0.15107,1.84121c0.15962,-0.07591 0.37032,-0.09825 0.63209,0.03264c0.02401,0.01201 0.04674,0.02444 0.06823,0.03726c0.65897,-0.33139 1.55645,-1.15712 1.66047,-1.314l-0.00103,-0.21109c0,0 0.1819,-0.72761 0.90951,-0.54571zM218.91425,197.08248c0,0 0.62404,-0.41603 1.04006,0.20801c0.10787,0.1618 0.14581,0.30962 0.14285,0.43982c2.23847,0.53188 5.92066,-0.07202 7.77723,-0.08495c2.12087,-0.15042 4.30738,-0.46824 6.44353,-0.96796c-4.76298,0.85138 -9.70508,0.80408 -13.35717,-1.60266c-2.71906,-1.81741 -6.10278,-2.71372 -8.55974,-4.83364c0.38392,1.14675 0.81276,2.27851 1.2309,3.39096c0.39227,-0.18669 0.77152,0.11671 0.77152,0.11671l0.5289,0.42673c1.32974,0.88714 2.49934,2.1468 3.85695,2.99448c0.04149,-0.02956 0.08314,-0.05873 0.12495,-0.08751zM265.32002,169.31931c0.87262,-3.02858 1.46955,-5.63977 1.46955,-8.8221c0,-0.35371 -0.20768,-2.31281 -0.24226,-3.40286c-0.11477,0.24588 -0.25009,0.49423 -0.33847,0.64432c-0.65332,1.10955 -1.40094,2.10252 -2.11501,3.17457c0,0 -0.05643,0.08465 -0.15891,0.17081c0.44199,2.79153 0.81426,5.6226 1.31208,8.41041c0.02431,-0.0584 0.04865,-0.11678 0.07301,-0.17515z" fill="#9966ff" stroke-width="0.5"/></g></g></svg>