<svg version="1.1" xmlns="http://www.w3.org/2000/svg" xmlns:xlink="http://www.w3.org/1999/xlink" width="70.35853" height="104.68215" viewBox="0,0,70.35853,104.68215"><g transform="translate(-201.77618,-127.40748)"><g data-paper-data="{&quot;isPaintingLayer&quot;:true}" fill-rule="nonzero" stroke="none" stroke-linecap="butt" stroke-linejoin="miter" stroke-miterlimit="10" stroke-dasharray="" stroke-dashoffset="0" style="mix-blend-mode: normal"><path d="M201.83742,189.85242l3.92618,-58.89268l59.07964,-3.55226l7.29148,51.22729l-20.73097,5.1504l3.93177,4.39588l-1.49393,11.91558l3.13408,17.64375l-9.86272,-0.95457l3.50159,13.76239l-6.11528,1.54143l-10.14276,-18.58318l-0.43392,-27.28428z" fill="#ffffff" stroke-width="0"/><path d="M244.96515,190.17025c-4.69246,-4.22732 2.81186,-8.78566 6.14774,-4.90185c0.55404,0.64504 0.45897,1.63139 0.65343,2.4655c0.51459,0.03281 1.15739,0.27472 1.46289,1.19122c0.33638,1.00914 -0.14511,1.60935 -0.57447,1.9249c0.56039,0.53503 0.90401,1.3157 0.85124,2.36771c-0.01973,0.39329 -0.16895,0.73778 -0.39177,1.05454l0.20481,1.00203c0,0 0,1.75 -1.75,1.75c-0.96373,0 -1.39673,-0.53073 -1.59128,-1.00764l-0.42422,-0.18106l-0.5129,0.31569c-1.14369,0.45568 -2.38923,0.99695 -3.66417,1.30116c1.66373,1.48159 4.1237,2.79244 5.1678,4.44491c2.43844,3.85925 -0.58812,5.17763 -1.15491,8.59703c-0.10075,0.6078 1.02052,0.70612 1.58841,0.94502c0.69636,0.29294 1.37551,0.62522 2.06327,0.93783l0.44813,0.08235c0,0 1.69775,0.42444 1.27331,2.12219c-0.42444,1.69775 -2.12219,1.27331 -2.12219,1.27331l-1.04756,-0.29157c-2.37307,-1.07869 -5.31303,-1.63109 -5.69636,-4.84774c-0.20436,-1.71479 3.13298,-5.30203 1.83646,-6.73376c-1.33975,-1.47947 -3.19087,-2.54687 -4.72656,-3.93897c0.63866,6.7226 1.42167,13.51657 2.97293,20.06237c0.64603,2.72605 2.04745,5.11289 2.79112,7.80049l0.14167,0.05061c0,0 0.97073,1.45609 -0.48536,2.42681c-1.45609,0.97073 -2.42681,-0.48536 -2.42681,-0.48536l-0.60617,-1.07115c-0.72964,-2.7219 -2.15619,-5.13728 -2.81771,-7.90422c-0.75715,-3.16695 -1.33456,-6.39245 -1.80205,-9.64065c-2.69786,3.73097 -3.39393,1.55118 -5.27179,-0.49721l-0.266,-1.67534c0,0 0,-1.75 1.75,-1.75c0.11197,0 0.21677,0.00716 0.31487,0.02058c-0.21417,-1.45385 -0.36747,-2.96284 -0.55277,-4.3881c-0.6976,-5.36571 -0.53177,-10.79765 -0.94607,-16.18357c0,0 -0.10967,-1.42567 1.15796,-1.79875c-0.00588,-0.03487 -0.01172,-0.06965 -0.01754,-0.10434c0,0 -0.00691,-0.04146 -0.01216,-0.1126c-2.40369,-0.21836 -4.66032,-0.88038 -6.72356,-1.88928l-0.32032,0.37102c-3.14696,5.02915 -7.99436,5.1446 -13.08802,3.01215c-2.3037,-2.04448 -4.29728,-4.30502 -4.54166,-7.59597c-0.05078,-0.68387 0.64169,-1.32664 0.49565,-1.99666c-0.0686,-0.3147 -0.50019,0.46759 -0.81913,0.51256c-0.88613,0.12494 -1.79875,0.10822 -2.68461,-0.01855c-2.58374,-0.36973 -5.09635,-1.93241 -6.33282,-4.26369c-2.68156,-5.05591 0.03848,-10.59955 1.34217,-15.52874c0.81655,-3.08735 -0.83637,-4.2898 -0.61241,-7.51004c0.30791,-4.42715 3.27986,-7.64486 6.39796,-10.48325c1.90184,-0.84553 3.34823,-1.6271 5.30515,-2.12076c1.86039,-0.46932 3.98128,-0.30656 5.59789,-1.33996c1.02063,-0.65243 1.2423,-2.13204 2.1607,-2.92191c2.93118,-2.52097 7.01996,-4.79318 10.86051,-5.29237c3.99336,-0.51905 7.95417,0.38793 11.67018,1.78027c1.35656,0.50828 2.62946,1.97646 4.03325,1.61873c1.28598,-0.32771 2.01705,-1.88831 3.30023,-2.22685c2.59065,-0.68348 5.12868,0.4966 7.39782,1.5242c4.85856,4.26899 6.87421,8.79817 6.21524,15.2933c-0.20357,2.00647 -1.56256,4.40125 -1.3396,6.37344c0.1891,1.67261 2.51647,3.33022 2.82137,5.32457c0.83431,5.45706 -1.80116,10.35237 -6.64687,12.54559c0,0 -0.10647,0.04563 -0.27635,0.08602c-2.40113,8.82259 -11.03865,14.14624 -20.66786,14.76486c0.47502,2.8219 1.17789,6.49501 2.54848,9.3615c1.07311,0.35918 2.79983,-0.41513 3.98627,-0.95099c-0.05857,-0.24335 -0.11571,-0.48616 -0.15259,-0.72136c-0.48699,-0.08913 -1.04182,-0.3911 -1.27682,-1.25276c-0.05248,-0.19241 -0.07704,-0.36887 -0.07938,-0.53053c-0.11716,-0.12704 -0.22934,-0.25899 -0.33413,-0.39507c-0.07074,-0.04422 -0.13824,-0.09448 -0.20192,-0.15185zM264.1979,156.76461c-0.2644,-0.50292 -2.29728,-3.38607 -2.37383,-3.93438c-0.40538,-2.90354 0.56406,-3.37121 1.12091,-5.78394c1.2582,-5.45153 -0.40797,-10.00792 -4.47155,-13.68071c-1.27891,-0.55177 -3.11276,-1.51378 -4.56768,-1.09325c-1.74567,0.50457 -1.38011,1.86581 -3.43036,2.26022c-2.09257,0.40255 -4.29343,-1.08256 -6.06264,-1.74657c-3.2161,-1.20705 -6.561,-1.99597 -10.01729,-1.58503c-3.14015,0.37336 -6.54911,2.41331 -8.95735,4.4296c-0.9826,0.82268 -1.25503,2.3576 -2.32636,3.06084c-3.05229,2.00356 -7.7256,2.17239 -11.15835,3.6438c-2.5284,2.34011 -5.7913,5.99914 -4.86969,9.87306c0.15532,0.65286 0.89172,1.104 0.95548,1.77204c0.13501,1.41443 -0.08479,2.85589 -0.38109,4.24552c-0.7862,3.68724 -4.75055,10.74253 -0.89245,14.07702c1.77906,1.53761 3.00643,1.20845 5.16763,1.40362c1.10671,0.09994 2.57809,-0.3373 3.29401,0.51256c0.86263,1.02401 0.2561,2.66876 0.49565,3.98608c0.40469,2.22548 1.2936,3.65289 2.93677,5.11737c3.19184,1.31997 6.3918,1.40597 8.22552,-1.84883l0.30951,-0.38063c-10.35785,-7.48406 -13.93191,-24.25824 -2.63117,-33.42158c1.34881,-0.8585 2.73212,-1.66869 4.16141,-2.38524l0.74785,-0.37392c0,0 1.56525,-0.78262 2.34787,0.78262c0.78262,1.56525 -0.78262,2.34787 -0.78262,2.34787l-0.74785,0.37393c-1.26708,0.6317 -2.4964,1.34183 -3.69094,2.10182c-9.45894,7.42941 -6.00809,21.25437 2.49704,27.5624c-0.59114,-0.91847 -0.89763,-2.03123 -0.76452,-3.40072c0.08973,-0.92324 0.7189,-1.71023 1.07835,-2.56534c0,0 0.72416,-1.59314 2.3173,-0.86899c1.59314,0.72415 0.86899,2.3173 0.86899,2.3173c-1.2704,2.48508 -0.48945,3.34649 2.06793,4.38965c3.68573,1.50341 8.99866,1.24591 12.82221,0.46166l-0.0655,-0.03619c0,0 1.23817,-0.61908 2.06266,0.3452c6.19834,-3.24168 10.47917,-9.22305 8.64639,-16.61893c-0.88182,0.68706 -1.97521,1.19375 -3.07625,1.68998c-4.21799,1.64702 -9.69583,1.59638 -14.06625,0.44294c-1.37817,-0.36372 -3.96505,-1.74367 -4.97718,-2.51686c-0.38928,0.84078 -0.96716,1.61827 -1.67648,2.20693c-2.07299,1.72036 -8.31319,2.79876 -10.66316,1.20306c-3.49179,-2.37102 -1.71746,-7.36651 -0.42613,-10.22535c0,0 0.73335,-1.58892 2.32228,-0.85557c1.58893,0.73335 0.85557,2.32228 0.85557,2.32228c-0.32259,0.68075 -2.4101,5.04388 -0.80006,5.8533c1.32002,0.66362 5.49538,-0.19553 6.53725,-1.04047c0.86789,-0.70383 1.55537,-3.61496 2.38879,-3.83616c0.95267,-0.25285 5.33366,2.6089 6.03531,2.97912c3.45455,1.82278 9.56303,1.70625 13.10914,0.24221c2.00819,-0.8765 3.2878,-1.32872 2.25184,-3.22225c-0.30462,-0.18337 -1.3827,-0.95162 -0.70613,-2.30475c0.78263,-1.56525 2.34787,-0.78262 2.34787,-0.78262l1.12761,0.91422c0.37279,0.76867 1.0294,1.46588 1.25307,2.27209c0.34942,0.3151 0.50865,0.69724 0.50865,0.69724c0.6508,1.5971 1.10784,3.30169 1.25078,5.02036c0.07181,0.86338 0.09223,1.70472 0.06425,2.52333c2.45687,-2.03275 4.00025,-5.89238 2.40699,-8.92293z" fill="#9966ff" stroke-width="0.5"/></g></g></svg>