<svg version="1.1" xmlns="http://www.w3.org/2000/svg" xmlns:xlink="http://www.w3.org/1999/xlink" width="70.5423" height="54.16716" viewBox="0,0,70.5423,54.16716"><g transform="translate(-191.21286,-152.62418)"><g data-paper-data="{&quot;isPaintingLayer&quot;:true}" fill-rule="nonzero" stroke="none" stroke-linecap="butt" stroke-linejoin="miter" stroke-miterlimit="10" stroke-dasharray="" stroke-dashoffset="0" style="mix-blend-mode: normal"><path d="M213.92776,203.30986c0.23337,-0.00078 0.46726,0.00346 0.70157,0.01193c1.28219,-0.1387 2.57868,-0.18849 3.90729,-0.09314c0.89839,0.06449 1.72275,0.24155 2.49531,0.42578c-0.36511,-1.71249 -0.26026,-4.3786 -0.35625,-5.10882h-0.00003c-0.02042,-0.15542 -0.12987,-0.39761 -0.17112,-0.63403c-0.02656,0.04063 -0.0515,0.07613 -0.07281,0.1033c-0.42912,0.547 -0.83529,1.11259 -1.28415,1.6435c-0.96209,1.13799 -2.14081,2.06088 -3.10989,3.19913c-2.97795,1.46193 -2.8416,-1.85001 -3.48534,-4.17721c-0.0798,-0.28849 -0.68206,-1.83234 -0.90018,-2.81765c-0.34668,0.45903 -0.85687,0.94586 -0.89797,0.99456c-1.08632,1.28678 -2.4112,2.36524 -3.37178,3.75343c0,0 -0.12672,0.18138 -0.34336,0.29425c0.09921,1.39119 0.40712,2.76394 0.7685,3.88934c0.26748,-0.12531 0.53495,-0.2506 0.80243,-0.37591c0.33727,-0.07347 0.67358,-0.14692 1.00928,-0.21932c1.41294,-0.39875 2.84657,-0.62736 4.30848,-0.88914zM224.31395,204.05501c0.81809,-0.07914 1.48694,-0.52479 2.14598,-0.99772l0.0684,-0.60582c0.00257,-0.02198 0.05629,-0.65615 0.1269,-1.17596c-0.62605,0.61962 -1.76303,1.89849 -2.81798,2.81641c0.15928,-0.00938 0.31819,-0.0216 0.4767,-0.03693zM242.13199,193.48882c0.36145,-0.44436 0.92197,-0.68182 1.51994,-0.90047c0.77145,-0.51982 1.66263,-0.95503 2.41376,-1.50162c0.92413,-1.43876 0.13204,-3.04382 1.0687,-4.43466c0.50476,-0.74953 2.14837,-1.27366 2.90894,-1.81649c0.51633,-0.51946 1.71958,-1.38822 1.91172,-2.09568c0.28389,-1.04528 -0.56839,-1.65403 -0.31903,-2.84049c-2.09712,-2.98473 2.85154,-4.97333 2.61264,-8.58433c-0.02909,-0.43982 -0.10263,-0.7359 -0.21033,-0.93234c-0.23375,-0.11476 -0.52289,-0.17161 -0.87791,-0.15371c0,0 -0.25575,0 -0.50722,-0.13002c-0.3492,0.0352 -0.71674,0.02587 -1.06001,-0.21176c-0.10569,-0.07316 -0.20463,-0.18559 -0.29769,-0.3295l-0.094,-0.01152l-1.34378,-0.99941l-0.39757,-1.49208l-0.13157,-1.04386c-0.11058,-1.00685 -0.1554,-2.62858 -0.49,-4.002c-0.4482,-0.84366 -1.00553,-1.65212 -1.5984,-1.91542c-0.95402,-0.42368 -2.43042,0.55787 -3.5015,0.239c-1.27526,-0.37964 -2.56141,-1.14578 -3.83682,-1.92391c-0.44461,-0.25241 -0.88256,-0.52057 -1.31797,-0.79579c-0.59512,-0.34879 -1.18622,-0.67158 -1.77105,-0.92942c-2.30755,-1.01739 -4.8551,-1.52048 -7.30496,-2.03735c-1.28699,0.05179 -2.56453,0.18898 -3.81831,0.55495c-3.1848,0.92962 -5.86749,3.37555 -9.0654,4.21798c-1.92488,0.50709 -4.0388,0.2822 -6.01363,0.27898c-0.68568,-0.08571 -1.49237,-0.17729 -2.33527,-0.22626c-0.29291,0.00643 -0.58116,0.02025 -0.86325,0.04427c-2.07112,0.17374 -4.35862,0.82346 -5.97239,2.21152c-0.66348,0.77654 -1.25848,1.72116 -1.80141,2.74594c-0.26166,1.04815 -0.11154,1.99948 -0.75841,3.12606c-0.60764,1.05825 -1.30463,2.09604 -1.95638,3.15779c-0.37138,0.92508 -0.72578,1.77155 -1.07617,2.47006c-0.67997,1.80406 -1.96302,5.39762 -0.89499,7.3259c0.06592,0.11901 0.13461,0.22616 0.20505,0.32386c0.99313,1.13322 2.35705,1.57779 1.96663,3.48541c-0.37778,1.84578 -2.74632,4.57092 -3.87217,7.14111c-0.04286,0.60765 -0.04724,1.23461 -0.04724,1.89107c0,0.50252 -0.10801,1.38078 -0.05597,2.17953c0.09978,0.15068 0.21623,0.29733 0.35063,0.43956c1.96542,1.15526 4.41187,0.034 6.27176,0.97366c1.74153,0.87988 0.71321,2.36485 2.08467,3.33587c0.89477,0.63353 2.14417,0.28458 3.10992,0.09183l0.37702,-0.23202c-0.03486,-2.76626 0.73268,-5.47371 3.10331,-7.01612c0.19397,-0.12619 0.39631,-0.23791 0.60545,-0.337c-0.22586,-0.06861 -0.45172,-0.13718 -0.67758,-0.20579l-0.75038,-0.29542c0,0 -0.78878,-0.31385 -0.47493,-1.10264c0.31385,-0.78878 1.10264,-0.47493 1.10264,-0.47493l0.61719,0.24874c0.36465,0.11132 0.72929,0.22264 1.09396,0.33395c5.64899,1.18392 11.98519,-2.16068 11.02446,-8.18809c-0.33669,-0.09398 -0.66849,-0.21334 -0.99377,-0.36401c-0.90822,-0.42064 -1.54841,-1.9922 -2.49582,-1.66941c-0.57622,0.19633 -1.91618,1.28824 -2.61901,1.63562c-2.27717,0.4389 -6.10761,1.30727 -8.2081,-0.00281c-3.92859,-2.45026 -2.90708,-8.7749 -2.48471,-12.52287c0,0 0.09525,-0.84357 0.93882,-0.74832c0.84357,0.09525 0.74832,0.93882 0.74832,0.93882c-0.33923,2.99864 -1.49981,8.88799 1.71228,10.90195c1.57944,0.99031 5.03553,0.1309 6.75118,-0.17575c0.55106,-0.28223 2.34087,-1.63578 2.82308,-1.69051c1.14536,-0.12999 2.39281,1.17543 3.36986,1.70421c0.01776,-0.24706 0.13681,-0.55014 0.57105,-0.69884c0.80315,-0.27505 1.07819,0.52809 1.07819,0.52809c0.08612,0.25675 0.16204,0.51057 0.22809,0.76137c1.47295,0.26428 3.18147,0.22768 4.35619,-0.13267c1.9839,-0.60859 3.51437,-3.8573 5.34211,-3.63231c0.8211,0.10107 2.80012,1.56894 3.55956,1.92119c4.45408,1.39339 9.03925,0.33582 7.21249,-5.34265c-0.32591,-1.01309 -0.94184,-1.87376 -1.49004,-2.77072l-0.18604,-0.22288c0,0 -0.52915,-0.66386 0.1347,-1.19299c0.66386,-0.52913 1.19299,0.1347 1.19299,0.1347l0.30706,0.39574c0.62116,1.01629 1.28381,1.97795 1.65473,3.12726c2.30152,7.13124 -3.70186,9.2521 -9.43795,7.45527c-0.89231,-0.41366 -1.79712,-0.8206 -2.61453,-1.36755c-0.25877,-0.17315 -0.65308,-0.7187 -0.81647,-0.45369c-1.49047,2.41765 -3.49962,3.64182 -6.40679,3.76732c-0.8316,0.0359 -1.67387,0.06335 -2.50426,0.00252c0.39323,4.18982 -2.08359,7.34279 -5.60289,8.84689c3.69217,0.92686 5.86406,3.40493 9.45998,5.45273c0.90559,0.51571 3.31691,1.0508 3.61818,2.1991c0.10351,0.39452 -0.06898,0.91929 -0.3283,1.45754c0.2112,0.16222 0.41607,0.30413 0.61521,0.42722c2.04652,0.03783 3.47527,0.1973 5.49349,-0.88671c0.90132,-0.66345 1.85134,-1.3869 2.98654,-1.83814l-0.00007,0.00009c0.77378,-0.30759 1.59294,-0.52061 2.234,-0.9262c0.85758,-1.45231 -0.16703,-3.30725 0.9459,-4.67551zM253.16041,168.24986c7.16841,0.21963 2.20417,8.33185 0.60231,11.62983c0.74589,1.19689 0.65783,2.18551 0.15458,3.06997c-0.00784,0.09336 -0.023,0.18958 -0.04701,0.28909c-0.27369,1.1342 -1.7547,2.31781 -2.5477,3.10698c-0.23939,0.17109 -0.95947,0.48915 -1.57581,0.7965c-0.25551,0.31083 -0.46821,0.63214 -0.61655,0.96932c-0.51612,1.17327 -0.21479,2.05689 -0.86513,3.09572c-0.05121,0.16419 -0.11724,0.32123 -0.20281,0.4681c-0.82288,1.41224 -2.19826,1.75044 -3.32338,2.31608c-0.6715,0.56935 -1.05725,1.26882 -0.74163,2.43271c-0.14729,0.96964 -0.46765,1.69252 -0.92816,2.25795c-0.01826,0.04735 -0.03804,0.0914 -0.05953,0.13179c-1.09902,2.06605 -3.047,2.2573 -4.95432,3.17676c-0.18089,0.20096 -0.36141,0.38715 -0.54879,0.52784c-2.05581,1.54354 -4.3088,2.02133 -6.43571,1.36837c-0.60321,-0.01682 -1.23854,-0.05212 -1.92338,-0.08847c-0.30066,-0.01597 -0.61447,0.07072 -0.93759,0.21819c-0.8889,0.91095 -1.7325,1.39595 -2.58399,1.61788c-0.36749,0.19785 -0.73434,0.34395 -1.09592,0.38789c-3.36061,0.40839 -6.99457,-0.72796 -10.42443,-0.74132c-1.71116,0.31656 -6.86597,2.35969 -8.31108,1.10897c-0.29687,-0.25695 -0.84358,-2.09225 -1.20008,-2.99211c-1.85454,0.39244 -3.34329,-0.17833 -4.71876,-1.8166c-0.45923,-0.54697 -0.73262,-1.89749 -1.48943,-2.20016c-1.11742,-0.44687 -2.88832,0.10724 -4.06233,-0.04941c-2.82872,-0.37744 -3.08023,-2.67753 -3.09816,-4.94342c-0.01723,-0.26129 -0.01668,-0.52527 -0.00046,-0.79094c0.00015,-0.06783 0.00025,-0.13543 0.00025,-0.20273c0,-2.05192 0.0366,-3.88982 0.97382,-5.77353c0.67409,-1.35485 2.41484,-2.57422 2.62029,-4.07207c0.0578,-0.42148 -0.3145,-0.90274 -0.75237,-1.42535c-0.18918,-0.15602 -0.35815,-0.31624 -0.47895,-0.48907c-0.08691,-0.12434 -0.16451,-0.25655 -0.23363,-0.39543c-0.25458,-0.35627 -0.45601,-0.72515 -0.51139,-1.1019c-0.23091,-1.57081 -0.09228,-3.11581 0.24457,-4.61452c0.14498,-0.78527 0.37241,-1.54597 0.65849,-2.28676c0.0922,-0.26861 0.18819,-0.53524 0.28687,-0.79979c2.08657,-4.18539 4.09502,-11.89958 8.52405,-14.1194c2.26422,-1.13483 5.74248,-0.89844 8.17638,-0.59421c2.64774,-0.0048 4.72177,-0.56887 6.69271,-1.33489c0.7948,-0.596 1.57125,-1.25586 2.35453,-1.65626c2.34184,-1.19708 4.69084,-1.74523 7.17357,-1.8393c2.24221,-0.36093 4.55329,-0.26349 6.8213,-0.23239c3.21096,1.2407 5.73961,3.63339 8.8529,4.88453c1.99191,0.80049 4.70919,-0.51463 6.46613,0.90793c1.02239,0.82781 1.51512,2.36082 1.79202,3.91879c0.14557,0.32318 0.27161,0.62602 0.37643,0.8893c0.41827,0.97369 0.79134,1.97104 1.05447,3.00047c0.09851,0.38541 -0.06486,0.97878 -0.12074,1.45287l0.69039,0.04564l-0.05473,0.5473c0.18078,-0.05672 0.32788,-0.05672 0.32788,-0.05672zM210.05606,195.0511c0.17327,-0.20533 0.56893,-0.69625 0.9584,-1.10038c-0.59588,0.13082 -1.15986,0.32855 -1.64594,0.64159c-1.268,0.81664 -1.93131,2.11834 -2.20603,3.58642c0.94198,-1.05923 1.97869,-2.04347 2.89356,-3.12764zM212.97679,194.69226c0.90691,1.44556 1.23215,3.6079 1.68897,5.2568c0.14363,0.51843 0.21842,2.77608 0.20599,1.67419c0.97035,-1.16407 4.30715,-5.71051 6.30578,-5.76113c-1.97038,-1.28872 -4.03656,-2.17951 -6.83548,-2.25526c-0.59142,0.0513 -1.24209,0.0777 -1.89716,0.13694c0.20443,0.28564 0.3536,0.66419 0.5319,0.94842zM222.59401,201.08188c0.00228,0.0269 0.16149,0.84163 0.19001,1.52635c0.85681,-1.01338 2.63338,-2.52509 2.9255,-2.77209c0.24635,-0.19047 0.47067,-0.33496 0.67469,-0.43876c-0.70203,-0.33627 -1.33354,-0.6496 -1.46015,-0.74747c-0.97172,-0.75121 -1.87856,-1.47315 -2.78358,-2.12451c0.46158,1.18125 0.39558,3.87602 0.45354,4.5565z" fill="#000000" stroke-width="0.5"/><path d="M226.47559,203.38967c-0.8875,0.67651 -1.85369,0.87248 -2.77335,0.82383c1.08101,-0.92221 2.34818,-2.33973 2.99303,-2.97795c-0.0706,0.5198 -0.109,1.18241 -0.11156,1.20439z" data-paper-data="{&quot;noHover&quot;:false,&quot;origItem&quot;:[&quot;Path&quot;,{&quot;applyMatrix&quot;:true,&quot;segments&quot;:[[[236.70106,199.78753],[0,0],[0.00227,-0.01942]],[[236.81317,198.74862],[-0.06238,0.45923],[-0.5697,0.56385]],[[234.23984,201.30899],[0.95503,-0.81473],[0.81248,0.04298]],[[236.61008,200.59339],[-0.78407,0.59767],[0,0]]],&quot;closed&quot;:true,&quot;fillColor&quot;:[0,0,0],&quot;strokeWidth&quot;:0.5}]}" fill="#3d2747" stroke-width="0.25"/><path d="M222.55212,201.11993c-0.05795,-0.68046 0.01756,-3.4597 -0.44402,-4.64095c0.90503,0.65138 1.87736,1.37383 2.84908,2.12504c0.1266,0.09788 0.78141,0.45258 1.48344,0.78885c-0.20401,0.1038 -0.42912,0.26315 -0.67547,0.45362c-0.29212,0.247 -2.14907,1.79926 -3.00588,2.81264c-0.02853,-0.68473 -0.20488,-1.51231 -0.20718,-1.53921z" data-paper-data="{&quot;noHover&quot;:false,&quot;origItem&quot;:[&quot;Path&quot;,{&quot;applyMatrix&quot;:true,&quot;segments&quot;:[[[233.22526,198.57755],[0,0],[0.00202,0.02377]],[[233.39313,199.92602],[-0.0252,-0.60493],[0.75696,-0.89528]],[[235.97769,197.47699],[-0.25808,0.21821],[0.21764,-0.16828]],[[236.57375,197.08936],[-0.18024,0.0917],[-0.62022,-0.29708]],[[235.28377,196.429],[0.11185,0.08647],[-0.85848,-0.66366]],[[232.82459,194.55208],[0.79955,0.57546],[0.40779,1.04359]],[[233.22527,198.57755],[-0.0512,-0.60116],[0,0]]],&quot;closed&quot;:true,&quot;fillColor&quot;:[0,0,0],&quot;strokeWidth&quot;:0.5}]}" fill="#3d2747" stroke-width="0.25"/><path d="M210.09513,195.01014c-0.91487,1.08417 -2.02878,2.15118 -2.97076,3.21042c0.27472,-1.46808 0.98671,-2.86721 2.25472,-3.68385c0.48608,-0.31305 1.0776,-0.49702 1.67348,-0.62783c-0.38947,0.40413 -0.78415,0.89595 -0.95743,1.10128z" data-paper-data="{&quot;noHover&quot;:false,&quot;origItem&quot;:[&quot;Path&quot;,{&quot;applyMatrix&quot;:true,&quot;segments&quot;:[[[222.1485,193.24961],[0,0],[0.15308,-0.1814]],[[222.9952,192.27747],[-0.34408,0.35703],[-0.52644,0.11557]],[[221.54108,192.84429],[0.42943,-0.27656],[-1.12023,0.72147]],[[219.59215,196.01274],[0.2427,-1.29699],[0.8322,-0.93579]],[[222.14849,193.2496],[-0.80825,0.95781],[0,0]]],&quot;closed&quot;:true,&quot;fillColor&quot;:[0,0,0],&quot;strokeWidth&quot;:0.5}]}" fill="#3d2747" stroke-width="0.25"/><path d="M220.73032,198.53094c0.09599,0.73021 -0.0124,3.43529 0.35271,5.14779c-0.77257,-0.18423 -1.60047,-0.35494 -2.49886,-0.41944c-3.42037,-0.24551 -6.72063,0.4745 -10.01939,1.19309c-0.26748,0.12531 -0.53576,0.24952 -0.80323,0.37482c-0.36138,-1.1254 -0.67971,-2.52649 -0.77891,-3.91768c0.21664,-0.11288 0.34322,-0.2965 0.34322,-0.2965c0.96056,-1.38818 2.30313,-2.51017 3.38944,-3.79695c0.0411,-0.0487 0.56353,-0.54433 0.91021,-1.00336c0.21813,0.98533 0.88489,2.62116 0.96469,2.90966c0.64374,2.32721 0.43441,5.5527 3.41235,4.09076c0.96909,-1.13824 2.12681,-2.00941 3.0889,-3.14739c0.44886,-0.53093 0.85794,-1.08461 1.28706,-1.63161c0.02131,-0.02717 0.15249,-0.10174 0.17905,-0.14237c0.04125,0.23643 0.15233,0.48374 0.17277,0.63916z" data-paper-data="{&quot;noHover&quot;:false,&quot;origItem&quot;:[&quot;Path&quot;,{&quot;applyMatrix&quot;:true,&quot;segments&quot;:[[[231.53046,196.33686],[0,0],[-0.01805,-0.1373]],[[231.37928,195.77672],[0.03644,0.20887],[-0.02346,0.03589]],[[231.31496,195.86798],[0.01882,-0.024],[-0.37911,0.48325]],[[230.18046,197.31995],[0.39655,-0.46905],[-0.84997,1.00536]],[[227.433,200.14624],[0.85615,-1.00559],[-2.63089,1.29156]],[[224.35385,196.45585],[0.56872,2.05599],[-0.0705,-0.25487]],[[223.55857,193.96657],[0.19271,0.87049],[-0.30628,0.40553]],[[222.76525,194.84522],[0.03631,-0.04302],[-0.95971,1.13682]],[[219.78643,198.16122],[0.84862,-1.2264],[0,0]],[[219.48309,198.42118],[0.19139,-0.09972],[0.08765,1.22905]],[[220.16203,201.85725],[-0.31926,-0.99424],[0.2363,-0.1107]],[[220.87094,201.52515],[-0.2363,0.1107],[2.91431,-0.63484]],[[229.64069,200.47413],[-3.02176,-0.21689],[0.79369,0.05698]],[[231.8452,200.85029],[-0.68253,-0.16276],[-0.32256,-1.51292]],[[231.53047,196.33686],[0.0848,0.64512],[0,0]]],&quot;closed&quot;:true,&quot;fillColor&quot;:[0,0,0],&quot;strokeWidth&quot;:0.5}]}" fill="#3d2747" stroke-width="0.25"/><path d="M212.93262,194.65688c-0.17831,-0.28422 -0.32494,-0.66572 -0.52937,-0.95138c0.65507,-0.05924 1.31847,-0.09598 1.90989,-0.14728c2.79892,0.07575 4.94589,0.99258 6.91626,2.2813c-1.99863,0.05061 -5.41273,4.67023 -6.38307,5.8343c0.01244,1.10189 -0.07659,-1.16596 -0.22023,-1.68438c-0.4568,-1.6489 -0.78655,-3.88701 -1.69347,-5.33256z" data-paper-data="{&quot;noHover&quot;:false,&quot;origItem&quot;:[&quot;Path&quot;,{&quot;applyMatrix&quot;:true,&quot;segments&quot;:[[[224.72884,192.9326],[0,0],[0.80122,1.27709]],[[226.22097,197.57676],[-0.40357,-1.45673],[0.12689,0.45801]],[[226.40295,199.05584],[0.01099,0.97347],[0.85726,-1.02841]],[[231.97384,193.96613],[-1.7657,0.04471],[-1.74075,-1.13853]],[[225.93498,191.97371],[2.47273,0.06692],[-0.5225,0.04532]],[[224.25892,192.0947],[0.57873,-0.05234],[0.18061,0.25236]],[[224.72884,192.93259],[-0.15753,-0.2511],[0,0]]],&quot;closed&quot;:true,&quot;fillColor&quot;:[0,0,0],&quot;strokeWidth&quot;:0.5}]}" fill="#3d2747" stroke-width="0.25"/><path d="M238.98619,199.13567c-3.46341,1.37674 -5.22195,5.29638 -9.11405,2.30694c0.25932,-0.53826 0.43353,-1.06353 0.33,-1.45805c-0.30127,-1.1483 -2.72052,-1.68151 -3.6261,-2.19723c-3.59591,-2.04779 -5.80058,-4.53036 -9.49275,-5.45721c3.5193,-1.5041 6.02838,-4.7644 5.63515,-8.95422c0.83039,0.06081 1.64504,0.03605 2.47664,0.00015c2.90718,-0.12549 4.87935,-1.30418 6.36982,-3.72183c0.16339,-0.26502 0.66948,0.29818 0.92825,0.47133c0.81742,0.54696 1.61165,0.93006 2.50396,1.34373c5.7361,1.79682 11.73897,-0.29822 9.43745,-7.42945c-0.37092,-1.14931 -1.03087,-2.10208 -1.65204,-3.11836l-0.30656,-0.39452c0,0 -0.42548,-0.70928 -1.08934,-0.18014c-0.66385,0.52913 -0.13351,1.19582 -0.13351,1.19582l0.18633,0.22364c0.54821,0.89695 1.1666,1.76621 1.49252,2.7793c1.82677,5.67846 -2.75762,6.7537 -7.2117,5.36031c-0.75944,-0.35225 -2.73822,-1.83003 -3.55932,-1.9311c-1.82775,-0.22499 -3.37331,3.06592 -5.35722,3.67451c-1.17472,0.36035 -2.94222,0.41213 -4.41517,0.14786c-0.06605,-0.25078 -0.15056,-0.50822 -0.23667,-0.76497c0,0 -0.2927,-0.81751 -1.09586,-0.54247c-0.43424,0.14871 -0.5516,0.45375 -0.56936,0.70082c-0.97704,-0.52878 -2.23835,-1.86379 -3.38372,-1.7338c-0.4822,0.05473 -2.1616,1.38454 -2.71267,1.66676c-1.71565,0.30666 -5.28189,1.19144 -6.86134,0.20112c-3.2121,-2.01395 -2.04714,-7.93681 -1.70793,-10.93545c0,0 0.19739,-0.7948 -0.64619,-0.89005c-0.84357,-0.09525 -0.93759,0.74567 -0.93759,0.74567c-0.42239,3.74796 -1.44097,10.03642 2.48762,12.48668c2.10049,1.31008 5.92681,0.43052 8.20398,-0.00839c0.70284,-0.34738 2.04394,-1.43682 2.62016,-1.63316c0.94741,-0.32279 1.57142,1.22742 2.47963,1.64804c0.32528,0.15065 0.64804,0.26399 0.98473,0.35798c0.96073,6.02741 -5.44323,9.46086 -11.09222,8.27694c-0.36465,-0.11131 -0.73126,-0.22481 -1.09592,-0.33614l-0.61829,-0.25005c0,0 -0.70003,-0.38409 -1.01388,0.40471c-0.31385,0.78878 0.47294,1.10022 0.47294,1.10022l0.74907,0.29396c0.22586,0.06861 0.45053,0.13595 0.67639,0.20457c-0.20914,0.09909 -0.41112,0.21116 -0.60511,0.33735c-2.37063,1.54241 -3.14238,4.24597 -3.10752,7.01223l-0.44986,0.31866c-0.96573,0.19274 -2.21846,0.53867 -3.11323,-0.09487c-1.37146,-0.97104 -0.34793,-2.46142 -2.08947,-3.34128c-1.8599,-0.93966 -4.31058,0.17534 -6.276,-0.97992c-3.01493,-3.19034 2.99641,-8.62879 3.61836,-11.66756c0.41546,-2.02996 -1.15687,-2.41123 -2.15378,-3.72057c-0.73421,-0.9643 -0.40702,-3.33094 -0.27728,-4.44045c0.42264,-3.25501 2.61079,-5.88617 4.19043,-8.63723c0.80302,-1.39852 0.38169,-2.53417 1.04072,-3.91303c1.32775,-2.77792 4.63145,-3.94953 7.50671,-4.19074c2.61863,-0.22301 5.7816,0.42393 8.29133,-0.28732c1.78604,-0.50617 3.24672,-2.16042 4.88716,-3.0022c2.86741,-1.47139 5.76033,-1.8496 8.94512,-1.59683c2.45679,0.51858 5.02859,1.02821 7.34323,2.04873c2.25821,0.99562 4.62259,2.97019 6.93844,3.65961c1.07108,0.31885 2.55008,-0.65957 3.5041,-0.23588c1.09128,0.48465 2.06689,2.82344 2.4583,3.82193c0.51403,1.19006 0.91732,5.30683 1.90408,5.98992c1.12162,0.77645 2.5035,-0.88083 2.65648,1.43153c0.25424,3.84292 -5.36548,5.86512 -2.11677,9.18923c1.41251,1.25713 -1.21963,3.83099 -2.27854,4.69803c-0.74515,0.61012 -1.88158,1.31801 -2.27744,2.2539c-0.47839,1.13102 0.20735,1.80165 -0.53595,2.75412c-1.22821,1.57386 -3.80319,2.11937 -4.81162,3.80181c-0.56079,0.9356 -0.18401,1.65585 0.05924,2.55288c-0.31724,1.76084 -1.91868,2.01202 -3.35655,2.58358z" data-paper-data="{&quot;noHover&quot;:false,&quot;origItem&quot;:[&quot;Path&quot;,{&quot;applyMatrix&quot;:true,&quot;segments&quot;:[[[247.67693,196.81828],[0,0],[1.27029,-0.50495]],[[250.63622,194.5412],[-0.28027,1.55563],[-0.2149,-0.79248]],[[250.58142,192.28862],[-0.49543,0.82656],[0.89091,-1.48637]],[[254.82608,188.93949],[-1.08507,1.39044],[0.65667,-0.84147]],[[255.29749,186.51117],[-0.42263,0.99921],[0.34972,-0.82682]],[[257.30794,184.52503],[-0.65831,0.53902],[0.93551,-0.766]],[[259.31954,180.38331],[1.24789,1.11062],[-2.8701,-2.93671]],[[261.19082,172.27982],[0.22461,3.39506],[-0.13516,-2.04288]],[[258.84482,171.01839],[0.99091,0.68596],[-0.87175,-0.60347]],[[257.16677,165.73621],[0.45412,1.05137],[-0.3458,-0.88211]],[[254.99912,162.36599],[0.9641,0.42817],[-0.84284,-0.37431]],[[251.90569,162.57714],[0.94625,0.2817],[-2.04597,-0.60907]],[[245.787,159.3533],[1.99504,0.87959],[-2.04489,-0.90158]],[[239.31341,157.54916],[2.17047,0.45814],[-2.81363,-0.22331]],[[231.42945,158.96099],[2.53323,-1.29991],[-1.44926,0.74368]],[[227.12409,161.61011],[1.57789,-0.44718],[-2.21723,0.62836]],[[219.81262,161.85577],[2.31345,-0.19702],[-2.54018,0.2131]],[[213.1908,165.54656],[1.17301,-2.45418],[-0.58223,1.21816]],[[212.27476,168.99722],[0.70943,-1.23553],[-1.39554,2.43044]],[[208.57684,176.61154],[0.37339,-2.87566],[-0.11463,0.9802]],[[208.82182,180.52677],[-0.64865,-0.85192],[0.88073,1.15675]],[[210.72354,183.80664],[0.36705,-1.79339],[-0.54947,2.68463]],[[207.52124,194.10005],[-2.66357,-2.81853],[1.73636,1.02062]],[[213.06208,194.96024],[-1.64314,-0.83015],[1.53857,0.77733]],[[214.9038,197.90735],[-1.21163,-0.85787],[0.7905,0.5597]],[[217.65128,197.98848],[-0.85319,0.17028],[0,0]],[[217.98436,197.7835],[0,0],[-0.0308,-2.44388]],[[220.726,191.58505],[-2.09435,1.36265],[0.17137,-0.11149]],[[221.26089,191.28733],[-0.18477,0.08754],[-0.19954,-0.06061]],[[220.66227,191.10552],[0.19954,0.06061],[0,0]],[219.99934,190.84453],[[219.57976,189.87039],[-0.27728,0.69686],[0.27728,-0.69686]],[220.5539,189.45081],[[221.09916,189.67056],[0,0],[0.32216,0.09835]],[[222.06562,189.96559],[-0.32216,-0.09834],[4.99064,1.04594]],[[231.80527,182.73175],[0.84877,5.32497],[-0.29745,-0.08303]],[[230.92731,182.41017],[0.28737,0.1331],[-0.80237,-0.37161]],[[228.72236,180.93531],[0.83699,-0.28517],[-0.50907,0.17345]],[[226.40857,182.38032],[0.62093,-0.3069],[-2.01179,0.38775]],[[219.15706,182.37784],[1.85569,1.1574],[-3.47074,-2.1647]],[[216.96193,171.31441],[-0.37316,3.31117],[0,0]],[[217.79134,170.6533],[-0.74526,-0.08415],[0.74526,0.08415]],[[218.45245,171.48271],[0,0],[-0.29969,2.64917]],[[219.96518,181.11412],[-2.83775,-1.77924],[1.39537,0.8749]],[[225.92956,180.95885],[-1.5157,0.27092],[0.48684,-0.24933]],[[228.42363,179.46535],[-0.426,0.04835],[1.01188,-0.11484]],[[231.40076,180.97095],[-0.86318,-0.46715],[0.01569,-0.21827]],[[231.90526,180.35355],[-0.38363,0.13138],[0.70955,-0.24299]],[[232.8578,180.8201],[0,0],[0.07608,0.22683]],[[233.05931,181.49273],[-0.05835,-0.22156],[1.30129,0.23348]],[[236.90783,181.37552],[-1.03782,0.31836],[1.7527,-0.53766]],[[241.62737,178.16653],[-1.61474,-0.19877],[0.72541,0.08929]],[[244.77209,179.86382],[-0.67093,-0.3112],[3.93499,1.231]],[[251.14402,175.14381],[1.61387,5.01669],[-0.28793,-0.89502]],[[249.82763,172.696],[0.48432,0.79242],[0,0]],[249.66327,172.49909],[[249.78227,171.44513],[-0.58648,0.46747],[0.58649,-0.46747]],[250.83623,171.56413],[[251.1075,171.91375],[0,0],[0.54877,0.89785]],[[252.56938,174.67655],[-0.32769,-1.01536],[2.03329,6.30015]],[[244.23134,181.26297],[5.0676,1.58742],[-0.78832,-0.36545]],[[241.92151,180.05479],[0.72215,0.48322],[-0.22861,-0.15297]],[[241.2002,179.65398],[0.14434,-0.23413],[-1.31677,2.13589]],[[235.54007,182.98225],[2.56837,-0.11087],[-0.73468,0.03172]],[[233.32766,182.98448],[0.73361,0.05373],[0.3474,3.70153]],[[228.37774,190.80034],[3.10916,-1.32881],[3.26188,0.81884]],[[236.73523,195.6176],[-3.17684,-1.80914],[0.80005,0.45561]],[[239.93174,197.56042],[-0.26616,-1.01448],[0.09145,0.34855]],[[239.6417,198.8481],[0.2291,-0.47553],[3.4385,2.64104]],[[247.67697,196.81823],[-3.05978,1.21629],[0,0]]],&quot;closed&quot;:true,&quot;fillColor&quot;:[0,0,0],&quot;strokeWidth&quot;:0.5}]}" fill="#3d2747" stroke-width="0.25"/><path d="M255.90588,187.60301c-0.10664,-0.0357 -0.22874,-0.10272 -0.31136,-0.22853c-0.08612,-0.12342 -0.103,-0.26167 -0.09654,-0.37395c0.00194,-0.14883 0.03942,-0.26188 0.09525,-0.34774l0.18473,-0.46185c0.08948,-0.23968 0.3205,-0.41033 0.59137,-0.41033c0.27087,0 0.50189,0.17066 0.59137,0.41033l0.23494,0.58735l-0.43421,0.35228l-0.04658,0.11645c0,0 -0.23135,0.57839 -0.80898,0.35597z" fill="#ffffff" stroke-width="0.5"/><path d="M257.99123,184.14907c0,0 -0.26845,0.80537 -1.07382,0.53692c-0.80537,-0.26845 -0.53692,-1.07382 -0.53692,-1.07382c0.04094,-0.12136 0.08033,-0.24337 0.11823,-0.36597c-0.00005,-0.00412 -0.00009,-0.00825 -0.00009,-0.01239c0,-0.10082 0.01757,-0.19755 0.04982,-0.28725l0.2019,-0.60569c0.07362,-0.29583 0.14006,-0.59427 0.20034,-0.89467c0.04404,-1.90582 0.33134,-3.77662 0.6641,-5.65708c0.00617,-0.07525 0.01239,-0.15036 0.01863,-0.22535c0.07269,-0.87225 -0.09414,-2.58601 0.46771,-3.31839c0.13627,-0.17764 0.29437,-0.32817 0.46683,-0.45163c0.12072,-0.19388 0.40806,-0.52368 0.91239,-0.38546c1.0772,-0.19658 2.22512,0.39596 2.27321,1.77504c0.05301,1.52042 -1.24403,3.11798 -1.48392,4.61074c-0.65969,1.72058 -0.97195,3.27149 -1.82031,4.97105l-0.22802,0.57006c-0.06593,0.27523 -0.142,0.5468 -0.23011,0.81388z" fill="#ffffff" stroke-width="0.5"/></g></g></svg>