<svg version="1.1" xmlns="http://www.w3.org/2000/svg" xmlns:xlink="http://www.w3.org/1999/xlink" width="48.77457" height="36.66715" viewBox="0,0,48.77457,36.66715"><g transform="translate(-215.9255,-161.78155)"><g data-paper-data="{&quot;isPaintingLayer&quot;:true}" stroke-miterlimit="10" stroke-dasharray="" stroke-dashoffset="0" style="mix-blend-mode: normal"><path d="M241.19959,162.21818c0.1564,-0.14741 0.46021,-0.13844 0.55882,0.08669l2.59353,6.02963c0,0 4.2294,2.12495 5.67466,3.87522c2.42836,2.91379 2.93524,5.54854 2.93524,5.54854c0,0 4.38189,0.5272 5.65474,3.75767c1.27286,3.23047 -0.23765,10.01593 -10.91822,14.06254c-10.68059,4.04662 -20.06292,2.55291 -25.37088,-3.44003c-5.30796,-5.99294 -0.07983,-15.10113 -0.3528,-14.57122c0,0 -2.19609,-9.26631 -1.94109,-9.18861l7.24284,1.94217c0,0 2.47542,-1.44722 5.21777,-2.03279c1.62569,-0.39637 3.05611,-0.5178 4.44768,-0.51176z" fill="#ffab19" fill-rule="evenodd" stroke="#001026" stroke-width="1.2" stroke-linecap="butt" stroke-linejoin="miter"/><path d="M263.74883,176.83746c-2.38386,2.70133 -6.60544,3.47707 -6.60544,3.47707" fill="none" fill-rule="evenodd" stroke="#001026" stroke-width="1.2" stroke-linecap="round" stroke-linejoin="round"/><path d="M264.10008,183.54931c-3.65281,0.92121 -6.13408,0.1929 -6.13408,0.1929" fill="none" fill-rule="evenodd" stroke="#001026" stroke-width="1.2" stroke-linecap="round" stroke-linejoin="round"/><path d="M243.73627,181.42639c1.23419,-0.20911 2.54709,-0.31065 2.67556,0.0908c0.19818,0.81284 -0.40457,2.60781 -1.33495,2.82591c-1.03797,0.29678 -3.75532,-0.75427 -3.91463,-1.69461c-0.17827,-0.69529 1.3986,-1.02293 2.57403,-1.22209z" fill="#001026" fill-rule="evenodd" stroke="#001026" stroke-width="1.2" stroke-linecap="round" stroke-linejoin="round"/><path d="M216.52551,184.65729c0,0 5.33315,0.78923 7.69885,2.26262" fill="none" fill-rule="evenodd" stroke="#001026" stroke-width="1.2" stroke-linecap="round" stroke-linejoin="round"/><path d="M224.7492,188.94704c-2.35788,1.4273 -6.81651,1.5177 -6.81651,1.5177" fill="none" fill-rule="evenodd" stroke="#001026" stroke-width="1.2" stroke-linecap="round" stroke-linejoin="round"/><path d="M250.14197,177.45646c0.13935,0.82251 -0.34481,1.59681 -1.09253,1.72351c-0.74773,0.12668 -1.45994,-0.44492 -1.59931,-1.26742c-0.13935,-0.82251 0.34481,-1.59681 1.09253,-1.72351c0.76039,-0.0519 1.45994,0.44492 1.59931,1.26742" fill="#001026" fill-rule="evenodd" stroke="none" stroke-width="1" stroke-linecap="butt" stroke-linejoin="miter"/><path d="M230.16397,181.21767h4.17694l-2.82558,2.57987" fill="none" fill-rule="nonzero" stroke="#000000" stroke-width="1.5" stroke-linecap="round" stroke-linejoin="miter"/></g></g></svg>