<svg version="1.1" xmlns="http://www.w3.org/2000/svg" xmlns:xlink="http://www.w3.org/1999/xlink" width="132.09585" height="152.06355" viewBox="0,0,132.09585,152.06355"><defs><linearGradient x1="189.01356" y1="150.59485" x2="196.99151" y2="196.67466" gradientUnits="userSpaceOnUse" id="color-1"><stop offset="0" stop-color="#cc2981"/><stop offset="1" stop-color="#a92292"/></linearGradient><linearGradient x1="298.6391" y1="141.21924" x2="294.82963" y2="187.82915" gradientUnits="userSpaceOnUse" id="color-2"><stop offset="0" stop-color="#cc2981"/><stop offset="1" stop-color="#a92292"/></linearGradient><linearGradient x1="279.34678" y1="213.68101" x2="279.34678" y2="237.25918" gradientUnits="userSpaceOnUse" id="color-3"><stop offset="0" stop-color="#9966ff"/><stop offset="1" stop-color="#66ebff"/></linearGradient><linearGradient x1="310.23395" y1="209.52849" x2="310.23395" y2="237.33108" gradientUnits="userSpaceOnUse" id="color-4"><stop offset="0" stop-color="#9966ff"/><stop offset="1" stop-color="#66ebff"/></linearGradient><radialGradient cx="230.24877" cy="205.85558" r="5.02555" gradientUnits="userSpaceOnUse" id="color-5"><stop offset="0" stop-color="#54606d"/><stop offset="1" stop-color="#2c3136"/></radialGradient></defs><g transform="translate(-182.10267,-86.35402)"><g data-paper-data="{&quot;isPaintingLayer&quot;:true}" fill-rule="nonzero" stroke-miterlimit="10" stroke-dasharray="" stroke-dashoffset="0" style="mix-blend-mode: normal"><g data-paper-data="{&quot;index&quot;:null}" stroke="#000000" stroke-width="0.90024" stroke-linecap="round" stroke-linejoin="miter"><path d="M279.62786,161.33462c0,0 2.65958,-13.34671 2.85,-14.01687c0.19038,-0.67003 1.08769,-6.52912 9.59558,-13.36168c0,0 9.6751,30.08895 -0.66322,44.36454c-0.00046,-0.00078 -3.15442,-8.38317 -11.78237,-16.98598zM279.80825,161.51676c-0.69577,-0.72175 -2.17643,-1.84834 -2.17643,-1.84834M291.94293,180.75044c0,0 -0.21584,-1.58845 -0.53317,-2.43061" fill="#be1e2d"/><path d="M294.49717,170.87708c0,0 -2.02487,-0.25026 -4.26117,-3.67957c-1.39069,-2.12513 -2.77835,-6.67695 -2.77835,-6.67695l-0.00264,0.17285c0.19408,-1.06297 0.35159,-2.26423 0.40153,-3.50982c0.08624,-2.10805 -0.10958,-5.078 -0.38227,-7.95878l-0.01959,-0.40743c0,0 0.38726,-5.7353 5.87683,-9.66573l0.08816,-0.00283c1.15823,4.75813 2.65633,11.85493 2.83465,17.20059c0.20021,5.99637 -0.72027,10.97893 -1.81064,14.67096l0.05349,-0.14326v0v0v0v0v0zM286.46051,164.34581c0,0 0.86288,-3.1841 0.99716,-3.82527" fill="#929497"/></g><g data-paper-data="{&quot;index&quot;:null}" stroke="#000000" stroke-width="0.90024" stroke-linecap="round" stroke-linejoin="miter"><path d="M199.70103,187.12519c-11.89893,-13.00228 -5.72049,-43.99875 -5.72049,-43.99875c9.23168,5.81796 10.79171,11.5364 11.05768,12.17952c0.26592,0.64322 4.43082,13.60011 4.43082,13.60011c-7.59112,9.5316 -9.768,18.21913 -9.768,18.21913zM211.26061,167.02338c0,0 -1.34243,1.28821 -1.95121,2.08467M199.70103,187.12519c-0.21926,0.87284 -0.25234,2.47558 -0.25234,2.47558" fill="#be1e2d"/><path d="M195.85402,180.21959c-1.50417,-3.54431 -2.98636,-8.38895 -3.47296,-14.36858c-0.43364,-5.33144 0.24578,-12.55243 0.85341,-17.4117l0.088,-0.00719c5.90266,3.27954 6.94137,8.932 6.94137,8.932l0.02702,0.407c0.05771,2.89306 0.20214,5.86598 0.52838,7.95043c0.19174,1.23176 0.48533,2.4072 0.79942,3.44108l-0.02233,-0.17143c0,0 -0.8592,4.68044 -1.99841,6.95034c-1.83027,3.66213 -3.81347,4.14176 -3.81347,4.14176zM201.59631,168.9912c0.20655,0.62165 1.42713,3.68649 1.42713,3.68649" fill="#929497"/></g><path d="M197.16438,149.90143c0,0 0.27858,-39.39251 48.01329,-42.62294c32.75547,-2.21672 46.73264,35.67985 46.73264,35.67985" data-paper-data="{&quot;index&quot;:null}" fill="none" stroke="#000000" stroke-width="7" stroke-linecap="round" stroke-linejoin="miter"/><path d="M243.37296,214.83396v0v0v0v0v0c-0.65353,1.7331 -2.41972,4.79054 -3.32155,5.48062c0,0 -3.65069,2.53988 -5.44999,0.91126c-0.76912,-0.69561 -0.9627,-1.6474 -0.71963,-2.78219c-0.35537,-0.21778 -0.82794,-0.6047 -0.93459,-1.22797c-0.17847,-1.03339 1.99919,-1.29088 1.99919,-1.29088l-0.00425,0.01842c0.1636,-0.27262 0.3322,-0.54326 0.52392,-0.82614c1.08952,-1.5966 3.14642,-3.63079 4.21524,-4.78494c0,0 0.9002,-1.02768 2.4465,-0.63804c1.64509,0.41426 1.89868,3.40676 1.24515,5.13985z" data-paper-data="{&quot;index&quot;:null}" fill="#be1e2d" stroke="#231f20" stroke-width="0.78672" stroke-linecap="round" stroke-linejoin="round"/><path d="M258.22143,217.36084v0v0v0v0c0,0 -3.46029,2.79337 -5.36972,1.29263c-0.82038,-0.6352 -1.07667,-1.57444 -0.91815,-2.72422c-0.37259,-0.19113 -0.86805,-0.5414 -1.02052,-1.15659c-0.25199,-1.01661 1.90166,-1.43279 1.90166,-1.43279l-0.00279,0.01787c0.14535,-0.28038 0.29365,-0.56521 0.46342,-0.86146c0.97422,-1.66721 2.87946,-3.84715 3.86174,-5.07474c0,0 1.28923,-1.15117 2.51557,-0.6503c1.2264,0.49988 1.65391,2.66047 1.40303,3.5905c-0.25169,0.93009 -1.35917,5.48766 -2.83423,6.99909z" data-paper-data="{&quot;index&quot;:null}" fill="#be1e2d" stroke="#231f20" stroke-width="0.78672" stroke-linecap="round" stroke-linejoin="round"/><path d="M252.91363,218.20271c1.58098,-0.36581 3.46597,0.19223 3.46597,0.19223c0,0 0.56085,5.18662 0.71651,7.06071c0.15651,1.87685 0.95861,4.84261 0.95861,4.84261c0,0 0.4701,0.31822 0.29134,1.07108c-0.18236,0.75085 -1.86057,0.80561 -3.97704,1.08774c-2.11262,0.27774 -3.8035,-0.15416 -4.09102,-0.92026c-0.29041,-0.76265 0.34728,-1.07532 0.34728,-1.07532c0,0 1.31474,-6.08433 0.54476,-8.24589c0.00424,0.00474 -0.27212,-3.54671 1.74359,-4.0129z" data-paper-data="{&quot;index&quot;:null}" fill="#be1e2d" stroke="#231f20" stroke-width="0.90024" stroke-linecap="round" stroke-linejoin="round"/><path d="M246.17528,218.40698v0v0v0v0v0c2.73305,1.44176 2.88852,4.03625 2.88927,4.03899c-0.67838,2.18579 0.81309,7.43393 0.81309,7.43393c0,0 0.65152,0.28141 0.39942,1.05634c-0.25589,0.77652 -1.92229,1.28462 -4.04977,1.09903c-2.12379,-0.18729 -3.80185,-0.16759 -4.01753,-0.91257c-0.21568,-0.74499 0.24129,-1.0821 0.24129,-1.0821c0,0 0.14699,-1.75636 0.21803,-3.63861c0.06884,-1.87697 0.04697,-7.0409 0.04697,-7.0409c0,0 1.66873,-1.89911 3.45924,-0.95411z" data-paper-data="{&quot;index&quot;:null}" fill="#be1e2d" stroke="#231f20" stroke-width="0.90024" stroke-linecap="round" stroke-linejoin="round"/><g data-paper-data="{&quot;index&quot;:null}" stroke-width="0.90024"><path d="M257.38982,211.83662v0v0v0v0v0c0.25922,2.82028 -0.69256,7.93472 -3.99813,9.56548c-3.26933,1.60933 -6.6187,1.1837 -9.97254,-1.38797c-2.77873,-2.13145 -2.39687,-7.76524 -1.9199,-10.90265v0c0,0 0.42446,-7.29579 6.61538,-7.85412c6.18901,-0.55833 8.72971,5.19879 9.01056,8.71805c0.11517,0.62313 0.20798,1.25765 0.26464,1.86121z" fill="#be1e2d" stroke="#000000" stroke-linecap="butt" stroke-linejoin="miter"/><path d="M255.25185,219.75878v0v0v0v0v0l-0.0232,0.14203c-0.50717,0.62467 -1.11659,1.14452 -1.83596,1.49953c-3.02831,1.49099 -6.12396,1.23638 -9.22949,-0.8536l-0.02527,-0.14562c0,0 -1.18601,-9.37426 4.75328,-9.4605c6.744,-0.09479 6.48897,7.26819 6.36065,8.81816z" fill="#e6e7e8" stroke="#231f20" stroke-linecap="round" stroke-linejoin="round"/></g><g data-paper-data="{&quot;index&quot;:null}" stroke="#000000" stroke-linecap="butt" stroke-linejoin="miter"><g><g stroke-width="0.4"><path d="M276.08468,234.41991l-0.04384,-0.00556c-1.44913,-0.13957 -3.3012,-0.8257 -3.97485,-1.45446l-0.10257,0.0956l-1.13897,-0.47477l0.31227,-0.24915c0.03465,-0.02906 3.49176,-2.82304 3.66823,-5.99681l0.01808,-0.32645l0.30467,0.11939c0.16202,0.06452 0.53244,0.23485 0.64257,0.48822l0.04444,0.01974c1.6936,0.75971 3.27891,0.75288 3.72483,0.73232l0.24121,-0.00359c0.11126,0.03183 0.4489,0.12701 0.47455,0.41645c0.02573,0.29135 -0.30925,0.47909 -0.49521,0.55203c-0.09051,0.00794 -0.18205,0.01406 -0.27558,0.01838c-1.33669,0.06163 -2.96784,-0.22667 -3.75747,-0.63994c-0.02764,0.16031 -0.0692,0.34683 -0.12968,0.55505c1.64471,0.70518 3.16177,0.69577 3.59631,0.67574l0.24416,-0.00177c0.11031,0.03182 0.44796,0.12705 0.4736,0.41644c0.02573,0.29136 -0.30829,0.47905 -0.49425,0.55199c-0.08955,0.00794 -0.18205,0.01406 -0.27558,0.01838c-1.44344,0.06656 -3.22944,-0.27421 -3.90955,-0.71431c-0.08215,0.1685 -0.17185,0.33736 -0.26922,0.50466c1.86024,0.94611 3.6043,0.91112 3.70717,0.92531c0.10786,0.03951 0.43806,0.15873 0.44206,0.45108c0.00404,0.2923 -0.34357,0.45226 -0.53494,0.51124c-1.51477,0.01779 -3.52674,-0.50192 -4.17202,-1.04871c-0.13376,0.17846 -0.28147,0.36324 -0.44136,0.54954c1.75436,0.96896 3.41106,1.03173 3.51039,1.0508c0.10625,0.04621 0.42885,0.18565 0.41768,0.4768c-0.01312,0.29029 -0.36818,0.43257 -0.56287,0.48035c-1.45887,-0.06337 -3.35093,-0.65111 -4.06257,-1.26201c-0.13585,0.13403 -0.27821,0.26937 -0.42896,0.4079c1.68258,1.03473 3.30362,1.18625 3.40225,1.21102c0.10272,0.05114 0.4166,0.20611 0.38926,0.49614c-0.02826,0.29098 -0.39084,0.41372 -0.50208,0.44441z" fill="#871212"/><path d="M275.04134,226.35036c-0.18394,3.3199 -3.7569,6.16753 -3.7569,6.16753l0.62935,0.26346l0.16886,-0.15734c0.00722,0.01292 0.00848,0.01949 0.01669,0.03427c0.3256,0.53215 2.36449,1.36871 3.96399,1.52595c0,0 0.69364,-0.19103 0.06971,-0.50023c0,0 -1.83895,-0.15567 -3.68707,-1.39197c0.30302,-0.2658 0.57514,-0.52353 0.82089,-0.7772c0.01134,0.01936 0.0158,0.03427 0.03102,0.05631c0.35317,0.51481 2.43424,1.23958 4.04016,1.30942c0,0 0.68144,-0.22926 0.04205,-0.50462c0,0 -1.86174,-0.05422 -3.78464,-1.20855c0.31068,-0.34566 0.57836,-0.6789 0.79846,-0.9967c0.01955,0.0341 0.03829,0.07018 0.07253,0.11499c0.3816,0.49452 2.49894,1.10311 4.10742,1.08482c0,0 0.66747,-0.26558 0.01465,-0.50336c0,0 -1.91643,0.05332 -3.93214,-1.04085c0,0 -0.01417,0.00066 -0.0341,-0.00033c0.22938,-0.36366 0.40114,-0.70292 0.5317,-1.01378c0.02024,0.02843 0.03572,0.05704 0.06668,0.09161c0.39498,0.43618 2.34489,0.86221 3.91018,0.79004c0.08972,-0.00413 0.17846,-0.01013 0.2661,-0.01794c0,0 0.64627,-0.31476 -0.0233,-0.50543c0,0 -0.05935,0.00655 -0.16891,0.0116c-0.51009,0.02351 -2.10721,0.0214 -3.83077,-0.75108c0,0 -0.00185,0.00009 -0.00566,0.00026c-0.01132,0.00052 -0.03863,0.00364 -0.07152,0.00897c0.16425,-0.4828 0.22574,-0.87376 0.24258,-1.14438c0.01008,0.0128 0.01324,0.01928 0.02431,0.03393c0.39498,0.43618 2.34489,0.86221 3.91018,0.79004c0.08972,-0.00413 0.17846,-0.01013 0.2661,-0.01794c0,0 0.64626,-0.31476 -0.02322,-0.50353c0,0 -0.05839,0.00651 -0.16605,0.01147c-0.50823,0.02344 -2.10725,0.02141 -3.83276,-0.75289c0,0 0,0 -0.00095,0.00004c-0.01037,0.00048 -0.10095,0.00652 -0.1819,0.03771c-0.00182,-0.01884 -0.0032,-0.02917 -0.0032,-0.02917c0.19509,-0.2438 -0.4905,-0.51511 -0.4905,-0.51511M274.60582,225.66995l0.60942,0.24174c0.21406,0.08477 0.55886,0.25346 0.72661,0.52501c1.63524,0.72545 3.15901,0.7177 3.58879,0.69788c0.08501,-0.00392 0.13399,-0.00995 0.13965,-0.01021l0.08955,-0.00794l0.08723,0.02344c0.50068,0.14164 0.62794,0.4169 0.64595,0.62246c0.03932,0.44218 -0.40634,0.69373 -0.54427,0.76068l-0.07869,0.03862l-0.0877,0.00786c-0.09337,0.00806 -0.18867,0.01437 -0.285,0.01881c-1.16856,0.05387 -2.67952,-0.15383 -3.59885,-0.52512c-0.00475,0.02009 -0.01032,0.04305 -0.01593,0.06509c1.52364,0.60474 2.89682,0.59629 3.30211,0.5776c0.08597,-0.00396 0.13593,-0.00812 0.14254,-0.00843l0.08946,-0.00985l0.08723,0.02344c0.49987,0.14358 0.62708,0.41885 0.64509,0.62441c0.03932,0.44218 -0.40634,0.69373 -0.54427,0.76068l-0.07869,0.03862l-0.0877,0.00786c-0.09332,0.00807 -0.18867,0.01437 -0.285,0.01881c-1.26776,0.05845 -2.93965,-0.19013 -3.82023,-0.62475c-0.01399,0.02435 -0.02694,0.05144 -0.04099,0.07574c1.71558,0.80508 3.26869,0.77699 3.28477,0.77625l0.08981,-0.00224l0.08472,0.03114c0.48817,0.1772 0.59411,0.46294 0.597,0.6692c0.00617,0.44181 -0.45709,0.66102 -0.59836,0.71774l-0.08163,0.03595l-0.08804,0.00025c-1.32936,0.0149 -3.24568,-0.40129 -4.12626,-0.95991c-0.03936,0.05006 -0.07962,0.10021 -0.12084,0.15131c1.6003,0.81039 3.0466,0.8668 3.06272,0.86797l0.08921,0.00437l0.08299,0.03498c0.47806,0.20517 0.5672,0.49546 0.55881,0.70318c-0.01933,0.44298 -0.49333,0.63427 -0.63875,0.6836l-0.08298,0.02747l-0.08723,-0.0026c-0.31591,-0.01475 -0.66329,-0.0546 -1.02205,-0.11568l0.04747,0.02337c0.46604,0.23219 0.54019,0.52602 0.52025,0.73052c-0.04207,0.44213 -0.52665,0.60836 -0.67441,0.6483l-0.0841,0.02375l-0.08658,-0.00926c-1.29898,-0.12661 -3.1151,-0.73106 -3.95105,-1.36941l-0.05353,0.05076l-0.28189,-0.11858l-0.62926,-0.26162l-0.73747,-0.30773l0.62454,-0.49835c0.03379,-0.02711 3.40954,-2.75865 3.57961,-5.82514l0.03621,-0.65206zM273.27002,232.17734c-0.01356,0.01387 -0.02718,0.0268 -0.04178,0.03887c1.42092,0.80065 2.7181,0.96996 2.91797,0.99293c-1.0934,-0.20517 -2.25399,-0.5947 -2.87619,-1.0318z" fill="#000000"/></g><path d="M252.20987,210.04988c0,0 5.7462,-0.6985 10.31301,3.3897c4.56689,4.09011 3.11153,8.45599 12.98144,12.93208c0,0 0.88252,2.8788 -3.75134,6.76078c0,0 -8.41203,-4.18828 -10.74375,-10.43191c-2.33164,-6.24179 -8.04881,-9.55276 -10.99893,-9.43757l-3.23627,-0.32033z" fill="#ba2915" stroke-width="0.4"/><g fill="#871212" stroke-width="0.4"><path d="M272.92476,225.12074c0,0 0.4049,3.87496 -4.02399,6.35023l-1.1282,-0.83688c0,0 4.0189,-4.3658 3.76954,-6.36596z"/><path d="M269.37462,222.59218c0,0 -0.13794,3.00346 -4.39261,5.68466l-1.36247,-1.31838c0,0 4.15229,-2.54107 4.58414,-5.63761z"/><path d="M266.8897,219.55438c0,0 -0.86555,3.07396 -5.38299,4.34722l-0.70817,-1.66473c0,0 4.71263,-1.72059 5.43825,-3.74296z"/><path d="M264.44138,215.58712c0,0 -0.69325,2.62203 -5.14654,3.7873l-1.05842,-1.35604c0,0 4.8398,-2.4535 5.31083,-3.55063z"/><path d="M259.77889,211.55916c0.33396,0.0982 1.62547,0.9872 1.62547,0.9872l-5.56652,3.05596l-1.64763,-1.32415c0,0 5.25473,-2.81722 5.58869,-2.71901z"/><path d="M256.27754,210.54106l-4.56799,2.90766l-2.23104,-0.24173l4.53814,-3.22622l2.2609,0.5603"/></g><path d="M271.78672,233.4121l-0.13846,-0.06747c-0.34692,-0.17338 -8.52152,-4.30347 -10.8596,-10.56197c-2.21388,-5.92535 -7.76444,-9.40114 -10.80156,-9.2838l-4.01326,-0.39716l6.2072,-3.28617c0,0 0.16852,-0.02103 0.47176,-0.03501c1.3688,-0.06312 6.13817,0.00097 10.02766,3.48332c1.6469,1.47279 2.54063,3.01344 3.40541,4.50242c1.57946,2.71889 3.2134,5.5318 9.51645,8.38979l0.0967,0.04378l0.0312,0.10178c0.03885,0.12412 0.87443,3.07324 -3.82499,7.01222l-0.11852,0.09824zM275.29799,226.53643c-6.35065,-2.90403 -8.01335,-5.76583 -9.62157,-8.5345c-0.88534,-1.52306 -1.72136,-2.96315 -3.31211,-4.38743c-3.75415,-3.36083 -8.36634,-3.42363 -9.6898,-3.36261c-0.22008,0.01109 -0.36425,0.02533 -0.37321,0.01625l-4.728,2.51652l2.42796,0.24208c3.08057,-0.12026 8.85143,3.22609 11.22949,9.59164c2.11021,5.64889 9.39688,9.65621 10.49023,10.23058c3.844,-3.27375 3.66438,-5.79307 3.57702,-6.31256z" fill="#000000" stroke-width="0.4"/><path d="M275.34504,226.55338c0.08736,0.51949 0.25357,3.05886 -3.59043,6.33261c-1.09335,-0.57437 -8.42373,-4.56973 -10.53394,-10.21862c-2.37806,-6.36555 -8.09872,-9.73103 -11.17929,-9.61077l-2.51036,-0.29862l4.73878,-2.52865c0.00896,0.00908 0.15395,-0.00582 0.37403,-0.01691c1.32346,-0.06102 5.97205,-0.00841 9.7262,3.35242c1.59076,1.42428 2.45937,2.88191 3.34471,4.40497c1.60821,2.76867 3.27964,5.67955 9.63029,8.58358z" data-paper-data="{&quot;noHover&quot;:true,&quot;origItem&quot;:[&quot;Path&quot;,{&quot;applyMatrix&quot;:true,&quot;segments&quot;:[[[431.94081,453.0728],[0,0],[-0.17472,1.03898]],[[439.09485,465.69792],[-7.688,-6.5475],[2.1867,-1.14874]],[[460.07531,445.23676],[-4.22042,11.29778],[4.75612,-12.7311]],[[482.53429,426.05348],[-6.16114,-0.24052],[0,0]],[487.39021,425.56932],[[477.93421,420.53628],[0,0],[-0.01792,0.01816]],[[477.18779,420.50378],[0.44016,0.02218],[-2.64692,-0.12204]],[[457.80819,427.229],[7.5083,-6.72166],[-3.1815,2.84856]],[[451.18397,436.00386],[1.77068,-3.04612],[-3.21644,5.53734]],[[431.94083,453.07286],[12.7013,-5.80806],[0,0]]],&quot;closed&quot;:true,&quot;fillColor&quot;:[0,0,0,1],&quot;strokeColor&quot;:[0,0,0],&quot;strokeWidth&quot;:0.4}]}" fill="#000000" stroke-width="0.2"/></g><g stroke-width="0.4"><path d="M238.67652,205.26938c0.00096,-0.00005 7.12995,-3.22932 16.96523,6.08011c0,0 -5.35796,2.73298 -10.73191,1.85616c-5.37486,-0.87683 -7.14924,-2.15723 -9.04628,-0.9442c0,0 -1.15521,-1.95743 2.26234,-3.53502c0,0 -1.29238,-2.36574 0.55063,-3.45705z" fill="#ba2915"/><g fill="#871212"><path d="M248.97082,206.56971c-2.30876,2.4258 -1.325,6.80227 -1.325,6.80227l-0.85019,0.0392c-1.30915,-5.15101 1.37623,-7.2524 1.37623,-7.2524z"/><path d="M245.11882,205.09068c0,0 -2.32087,2.0401 -1.61001,7.62293l-1.07914,-0.22476c0,0 -0.73081,-4.57846 1.43478,-7.66597z"/><path d="M252.13608,208.44962c-0.82937,0.61383 -1.13565,4.48368 -1.13565,4.48368l-0.60488,0.12353c-0.60234,-2.79708 1.06544,-5.12229 1.06544,-5.12229z"/><path d="M237.58311,211.67476c-0.00095,0.00004 -0.16135,-2.20588 1.23869,-3.27576c0.05682,-0.16357 0.01645,-2.72244 0.5953,-3.3701l1.33804,-0.25769c0,0 -1.30763,1.30705 -0.89432,3.45493c0,0 -1.56119,1.51659 -1.2849,3.40284l-0.99282,0.04578z"/></g><path d="M235.53851,210.81666c0.26387,-0.84711 1.02691,-1.5866 2.26904,-2.19957c-0.43607,-0.95686 -0.73849,-2.67056 0.77101,-3.5628c0.0436,-0.01907 1.05288,-0.46794 2.82977,-0.54987c3.19579,-0.14736 8.28556,0.89123 14.39598,6.67381l0.24346,0.23015l-0.29873,0.15199c-0.03609,0.01872 -3.65909,1.84335 -7.89018,2.03844c-1.04102,0.048 -2.04503,-0.0051 -2.98739,-0.15855c-1.81614,-0.29679 -3.22826,-0.63969 -4.36279,-0.91586c-2.20107,-0.53565 -3.39014,-0.78279 -4.51662,-0.06345l-0.20695,0.13164l-0.12425,-0.21105c-0.01643,-0.02767 -0.3961,-0.68604 -0.12235,-1.56488zM235.99223,210.94626c-0.13042,0.41497 -0.07752,0.76184 -0.01473,0.97387c1.18516,-0.63781 2.4596,-0.38702 4.64152,0.14383c1.12588,0.27371 2.5285,0.61519 4.32739,0.90806c0.909,0.14836 1.88267,0.20002 2.88967,0.15358c3.42438,-0.15789 6.44235,-1.4103 7.38995,-1.84117c-5.87587,-5.46015 -10.73811,-6.44958 -13.79693,-6.30854c-1.66257,0.07666 -2.62872,0.49608 -2.63248,0.49625c-1.33713,0.79151 -0.81956,2.34574 -0.56776,2.92106c0.56216,-0.20957 1.92098,-0.489 3.87273,0.59296c0,0 -2.02762,-0.90048 -4.05048,0.0476c-1.11357,0.54741 -1.83217,1.20342 -2.05887,1.9125z" fill="#000000"/></g><g stroke-width="0.4"><path d="M267.38118,206.72716c0.83242,1.38158 -0.62136,1.92198 -0.62136,1.92198c-18.11894,6.10169 -20.50031,0.64985 -23.01853,-1.83734c-2.51636,-2.48728 -5.06286,-1.54155 -5.06286,-1.54155c-1.60206,-3.94945 2.61531,-6.14607 2.61531,-6.14607l0.0558,1.2101c11.92262,8.36399 21.74876,-0.50962 21.74371,-0.61918c-0.00506,-0.10961 1.07874,0.29767 1.71809,1.33225c0.63939,1.03453 -0.50058,1.97509 -0.50058,1.97509c-0.1286,1.0709 2.23804,2.32309 3.07042,3.70472z" fill="#ba2915"/><g fill="#871212"><path d="M262.02236,200.59278c0,0 1.6371,0.5001 0.9312,3.15487c0,0 0.12747,1.49174 1.3655,2.67764c1.23797,1.18586 1.24953,2.07237 1.47816,2.53515l-1.86853,0.53774c0,0 -0.164,-1.6273 -0.97325,-2.50641c-0.8092,-0.87905 -1.01108,-2.19788 -1.11584,-2.7866c-0.10476,-0.58873 0.65646,-2.04384 -0.65806,-2.95923z"/><path d="M258.93092,202.44781c-0.02836,-0.24479 0.61786,0.99963 0.49834,2.67787c-0.11952,1.67824 0.923,2.48504 1.35859,3.57535c0.43554,1.09037 0.51139,1.56496 0.51139,1.56496l-1.36421,0.32703c0,0 -0.765,-2.3636 -1.37718,-3.32177c-0.61218,-0.95822 -0.34196,-1.93439 -0.38691,-2.90923c-0.04496,-0.97489 -0.36991,-1.3916 -0.36991,-1.3916z"/><path d="M255.28267,203.56176c0.00344,0.07465 0.75213,1.77536 0.43901,3.52503c-0.31317,1.74967 0.83939,3.87476 0.83939,3.87476l-1.3147,0.14772c0,0 -0.88868,-1.96596 -0.77343,-3.73678c0.11525,-1.77082 0.14564,-2.32225 -0.19855,-3.62884z"/><path d="M251.65806,203.8728c0,0 -0.77173,2.5206 0.06905,4.70078c0,0 -0.58845,1.34206 0.53798,2.67413l-0.70757,0.03262c0,0 -1.07521,-0.83748 -0.85685,-2.50702c0,0 -1.25178,-1.01297 -0.2763,-4.84269l1.23374,-0.05689z"/><path d="M247.74466,203.38206c0,0 -1.68904,2.33663 -0.70386,5.34795c0,0 -0.19545,0.46244 0.2555,1.25013l-1.05574,-0.64147c0,0 -0.2647,-0.52548 -0.21117,-0.72012c0.05348,-0.19465 -1.17526,-1.67251 0.35419,-5.62246z"/><path d="M243.52225,201.71279c0,0 -1.61762,1.27776 -1.07319,4.11255l-1.07015,-0.54235c0,0 -0.13703,-2.97185 1.25354,-4.04135z"/><path d="M241.1187,200.46039c0,0 -2.72956,0.99869 -2.33979,4.40194l0.00359,0.36526c0,0 -2.10439,-3.09988 2.51438,-6.0146z"/></g><path d="M238.45908,205.35892c-1.66401,-4.1018 2.68117,-6.42175 2.72455,-6.44554l0.32817,-0.17132l0.06747,1.46328c3.55688,2.46958 7.27041,3.63411 11.04146,3.46023c5.9088,-0.27245 9.82107,-3.66582 10.24338,-4.05353l0.00959,-0.14152l0.23616,-0.01088c0.2815,-0.01298 1.29842,0.48354 1.90205,1.46198c0.54832,0.88732 -0.00646,1.76963 -0.44907,2.1895l0.00852,0.02044c-0.00817,0.007 -0.01746,0.01124 -0.02567,0.01825c0.03942,0.48475 0.73862,1.11329 1.41897,1.72282c0.61326,0.55012 1.24721,1.1182 1.61823,1.73256c0.28911,0.47988 0.36373,0.92892 0.22251,1.33495c-0.2275,0.65044 -0.9336,0.91965 -0.9709,0.93272c-5.01702,1.68918 -9.24716,2.62358 -12.57425,2.77699c-6.18558,0.28521 -8.36238,-2.1259 -9.95066,-3.88635c-0.25332,-0.2799 -0.49283,-0.54622 -0.73478,-0.78403c-1.45703,-1.43992 -2.91601,-1.68979 -3.88239,-1.64523c-0.56865,0.02622 -0.92998,0.15649 -0.93369,0.15762l-0.2141,0.07895l-0.08552,-0.21188zM241.07561,199.52618c-0.91683,0.58567 -3.33124,2.46536 -2.25617,5.45552c0.715,-0.17876 2.95477,-0.44675 5.08729,1.66066c0.24792,0.24416 0.49334,0.51683 0.75273,0.80399c0.23943,0.26448 0.48869,0.53788 0.75693,0.81238c4.37699,1.22386 8.55453,-0.44083 8.55453,-0.44083c-2.91965,1.8443 -6.72636,1.26532 -7.96799,1.00734c1.52167,1.3631 3.76736,2.55837 8.23556,2.35234c3.28266,-0.15137 7.46967,-1.07715 12.43729,-2.74985c0.00558,-0.00216 0.53198,-0.20632 0.68397,-0.64688c0.09188,-0.2655 0.03104,-0.57888 -0.18117,-0.93166c-0.33413,-0.55355 -0.94145,-1.09827 -1.52898,-1.62407c-0.68432,-0.61406 -1.33142,-1.20047 -1.51861,-1.79017c-1.30375,0.79665 -2.89952,0.82384 -2.89952,0.82384c1.64907,-0.49354 2.47052,-1.01232 2.85102,-1.32144l0.00396,-0.03709l0.07298,-0.06019c0.04009,-0.03308 0.9721,-0.82389 0.45033,-1.6689c-0.49319,-0.7999 -1.25847,-1.17734 -1.44935,-1.23199c-0.86782,0.90903 -4.99924,3.94426 -10.51692,4.19868c-3.90991,0.18028 -7.75641,-1.0349 -11.43089,-3.61171l-0.09395,-0.06671l-0.04304,-0.93331z" fill="#000000"/></g></g><g data-paper-data="{&quot;index&quot;:null}" stroke="#000000" stroke-width="0.90024" stroke-linecap="round" stroke-linejoin="round"><path d="M293.39766,179.74114l-0.4201,1.58333c-2.38675,8.01717 -6.2633,12.81453 -6.2633,12.81453c0,0 0.04885,-1.40362 -0.1959,-3.63511l-0.13451,-0.03617c-0.29257,1.20571 -0.80347,2.77043 -1.70018,4.72279c-1.96602,4.28725 -8.37299,8.23016 -8.37299,8.23016c0,0 0.31017,-1.44713 0.39968,-3.78434l-0.11934,-0.34782c-0.68113,0.60871 -1.3925,1.17441 -2.11291,1.72724c-0.21191,0.16363 -0.42399,0.32354 -0.64009,0.47926c-0.65726,0.47882 -1.32856,0.9387 -2.01616,1.37273c-0.27182,0.16972 -0.5553,0.32956 -0.83127,0.49328c-0.50336,0.29959 -1.01505,0.58524 -1.53529,0.86352c-0.38235,0.20218 -0.76744,0.40377 -1.16068,0.59412c-0.40689,0.19957 -0.82673,0.38285 -1.2434,0.5723c-0.76674,0.33954 -1.54651,0.66119 -2.34586,0.96352c-0.2608,0.09852 -0.5217,0.19706 -0.78747,0.29053c-0.57092,0.20256 -1.14671,0.40178 -1.73447,0.58393l0.00193,0.00166c-2.9503,0.91939 -6.10143,1.60882 -9.4952,2.06868c-3.67173,0.49658 -7.01796,0.70479 -10.15651,0.71631v0c-2.48357,0.00783 -4.81809,-0.11898 -7.03726,-0.35893c-0.10729,-0.01109 -0.21566,-0.023 -0.32385,-0.03403c-0.6864,-0.07884 -1.36261,-0.16646 -2.02694,-0.26577c-0.23198,-0.03635 -0.4544,-0.0778 -0.6855,-0.11591c-0.8834,-0.14281 -1.74392,-0.30726 -2.59382,-0.48693c-0.53728,-0.11404 -1.07132,-0.23203 -1.59432,-0.36065c-0.31052,-0.0738 -0.62228,-0.15212 -0.92692,-0.23177c-0.83215,-0.22068 -1.65745,-0.44627 -2.46016,-0.69615l-0.12609,0.14009c0.44907,2.08745 1.25947,3.16902 1.88003,3.6669c1.26509,1.01667 3.56389,1.11181 3.56389,1.11181c0,0 -6.89667,1.48571 -11.08513,-3.6161c-0.44504,-0.54232 -0.89516,-1.10513 -1.32747,-1.70805l-0.19259,-0.34875c-0.84439,-0.21516 -1.70619,-0.52029 -2.56502,-0.93132c-5.23822,-2.52723 -6.04444,-4.86916 -6.04444,-4.86916l0.16916,0.86766c0.65118,2.24602 1.22895,3.65145 1.22895,3.65145c0,0 -6.29444,-3.36596 -9.3917,-8.87443c-2.49757,-4.44676 -2.87353,-7.2237 -2.92224,-7.6914l-0.32482,-1.6605c-0.61091,-6.55096 -0.74255,-13.93951 -0.37157,-21.24486l0.0415,-0.19707c0.39345,-5.65508 -1.06526,-14.86912 5.66465,-24.89969c12.61144,-18.79147 26.8712,-19.21537 34.4103,-32.97277c5.54535,-10.12084 3.12706,-21.08512 3.12706,-21.08512c0,0 4.23258,5.14823 5.99612,8.22437c1.70914,2.9988 3.5846,6.88814 3.5846,6.88814l0.04867,-0.03785c0.02644,-0.11935 0.04912,-0.24103 0.0673,-0.36239c0.28132,-1.89002 -0.0854,-4.62713 -0.0854,-4.62713c0,0 4.44119,10.44685 10.85834,17.03898c6.41331,6.58891 15.08619,7.97074 27.61236,31.22685c1.55857,2.88981 2.98812,5.31342 3.85863,8.05242l0.41927,1.5823c1.30568,4.9448 1.95168,18.82269 0.4185,24.95134zM222.7164,161.24582c0,0 -6.44184,7.75374 -5.24363,17.79832c1.06018,8.88748 3.57314,11.47263 4.86894,12.07093c1.33202,0.61097 3.28651,0.04804 3.28651,0.04804c0,0 -5.39713,3.38511 -10.27004,-0.31435c-3.25924,-2.47271 -6.84606,-5.70772 -8.49808,-15.45264M281.91604,173.05428c0,0 1.0481,2.41637 -0.6838,7.75432c-1.94771,6.01363 -6.82798,8.18743 -6.82798,8.18743c0,0 3.50576,-9.3016 -0.6093,-17.50397c-1.79623,-3.5837 -6.70621,-5.9914 -11.76339,-7.57503c-6.85332,-2.14806 -13.97577,-2.78151 -13.97577,-2.78151M286.4072,190.36765c-0.28792,1.21981 -0.80501,2.82198 -1.72865,4.82685c-1.96512,4.28719 -8.3721,8.23008 -8.3721,8.23008c0,0 0.90026,-4.22179 0.07288,-9.88317M208.81037,182.52315c-0.59112,1.31973 -1.01747,2.71933 -1.20665,4.17836c-1.19278,9.09781 2.78531,18.73102 2.78531,18.73102c0,0 -6.29251,-3.36441 -9.39172,-8.87454c-2.74768,-4.89056 -2.92738,-7.76141 -2.92738,-7.76141M292.97352,181.33109c-2.38854,8.01731 -6.26419,12.81459 -6.26419,12.81459c0,0 0.28849,-7.9753 -3.83393,-16.17806c-0.186,-0.3709 -0.39197,-0.7295 -0.6078,-1.07656M248.0567,161.13542c0,0 1.21556,0.22866 4.54502,2.50221c3.32957,2.27354 4.68707,4.92081 4.68707,4.92081c0,0 -9.46827,-1.76583 -14.74662,-3.23849c-5.27309,-1.47486 -22.95535,-4.92528 -22.95535,-4.92528M221.37127,200.53682c2.80823,3.77134 5.58592,5.73149 5.58592,5.73149c0,0 -6.02207,2.35943 -11.92175,-0.48399c-5.23821,-2.52713 -6.04444,-4.86916 -6.04444,-4.86916M276.58513,199.29438c-6.26685,5.59627 -14.13965,8.69074 -23.89446,10.01211c-11.62987,1.57528 -20.29425,0.49433 -27.80259,-1.83404M224.64234,206.96503c0.40632,2.51393 1.31587,3.7661 1.99767,4.31183c1.26598,1.01659 3.56479,1.11174 3.56479,1.11174c0,0 -6.89846,1.48586 -11.08602,-3.61605c-0.44504,-0.54232 -0.89516,-1.10513 -1.32747,-1.70805M248.75296,161.38591c0,0 25.67392,1.23913 26.69169,15.12768" fill="#be1e2d"/><path d="M280.87228,182.1538c-0.21709,10.05796 -10.93583,21.32056 -27.66769,23.53423c-14.77087,1.96248 -37.18303,-3.10186 -41.2643,-15.15292c-0.40652,-1.21143 -0.66174,-2.39142 -0.79148,-3.5337l0.33957,0.21165c1.24668,1.56587 2.58263,2.66306 3.8699,3.63751c4.87278,3.69766 10.2699,0.31256 10.2699,0.31256c0,0 -1.95435,0.56475 -3.28636,-0.04624c-1.2958,-0.5983 -3.80875,-3.18345 -4.86894,-12.07093c-1.19835,-10.04638 5.24363,-17.79832 5.24363,-17.79832l0.00726,-0.23345c5.32413,1.06313 15.93399,3.21927 19.8166,4.30591c5.27842,1.47357 14.74662,3.23849 14.74662,3.23849c0,0 -1.3575,-2.64727 -4.68707,-4.92081c-1.66656,-1.13704 -2.80191,-1.76244 -3.52021,-2.10426l0.6539,0.05406c0,0 19.832,1.46229 24.0631,9.90433c4.11425,8.20335 0.61021,17.50392 0.61021,17.50392c0,0 4.15553,-1.85257 6.32327,-6.85958z" fill="#e6e7e8"/></g><path d="M234.85475,181.92539v0v0v0v0v0c0.69245,0.27495 1.02884,1.05821 0.752,1.75047c-0.27513,0.69425 -1.05482,1.03101 -1.75301,0.75907c-0.03985,-0.01689 -4.08597,-1.58934 -8.28391,-0.83237c-0.1291,0.02257 -0.25558,0.02821 -0.37998,0.01507c-0.58187,-0.06146 -1.07861,-0.50135 -1.18773,-1.10485c-0.06512,-0.35269 0.02216,-0.69923 0.20742,-0.97843c-0.22833,-0.24686 -0.43637,-0.5566 -0.55971,-0.96622c-0.1453,-0.4752 0.12331,-0.97905 0.60022,-1.12337c0.47194,-0.13931 0.97854,0.12054 1.12446,0.59952c0.11537,0.38152 0.55013,0.53333 0.5553,0.53569c0.12854,0.04344 0.23758,0.1165 0.32861,0.20575c0.13549,-0.01375 0.27189,-0.0283 0.40492,-0.03687c-0.1159,-0.2222 -0.2193,-0.46853 -0.26612,-0.76317c-0.07652,-0.49236 0.25974,-0.95028 0.7522,-1.02768c0.4965,-0.08151 0.95187,0.26173 1.02768,0.7522c0.06086,0.39206 0.4589,0.60876 0.46229,0.61093c0.1873,0.08685 0.31634,0.23624 0.40434,0.40662c3.22255,0.18922 5.672,1.14226 5.81106,1.19767z" data-paper-data="{&quot;index&quot;:null}" fill="#231f20" stroke="none" stroke-width="0.90024" stroke-linecap="butt" stroke-linejoin="miter"/><path d="M266.58817,176.72676v0v0v0v0v0c0.01533,0.81834 -0.35361,1.38934 -0.6768,1.75517c0.15128,0.22607 0.26047,0.48706 0.25206,0.77989c-0.02178,0.74442 -0.62654,1.33262 -1.38808,1.3126c-2.88714,-0.08119 -6.48855,0.44311 -7.04441,1.32459c-0.20104,0.31713 -0.51025,0.52245 -0.85248,0.59669c-0.33696,0.0731 -0.6981,0.0178 -1.01105,-0.18047c-0.62973,-0.39773 -0.81787,-1.2311 -0.41889,-1.86304c1.07482,-1.69958 3.99208,-2.29466 6.38644,-2.49358c0.09229,-0.12223 0.22928,-0.36101 0.18693,-0.64111c-0.08005,-0.48832 0.21133,-0.97538 0.7422,-1.03332c0.49007,-0.08052 0.95153,0.25048 1.03331,0.74212c0.04884,0.30999 0.0293,0.58508 -0.01367,0.84122c0.12038,-0.00125 0.2349,-0.00399 0.34306,-0.00249c0.06092,-0.16068 0.14835,-0.30948 0.29817,-0.4175c0.02157,-0.01942 0.36931,-0.29755 0.36328,-0.6905c-0.00649,-0.49692 0.37954,-0.91323 0.88482,-0.91507c0.49692,-0.00649 0.90557,0.38672 0.91507,0.88482z" data-paper-data="{&quot;index&quot;:null}" fill="#231f20" stroke="none" stroke-width="0.90024" stroke-linecap="butt" stroke-linejoin="miter"/><g data-paper-data="{&quot;index&quot;:null}" stroke-linejoin="miter"><path d="M202.84775,172.71088c0.7969,12.9542 -0.21519,23.55766 -5.54387,23.88546c-5.32869,0.3278 -13.95418,-9.68278 -14.75109,-22.63698c-0.7969,-12.9542 6.53658,-23.94654 11.86527,-24.27434c5.32869,-0.3278 7.63279,10.07166 8.4297,23.02586z" fill="url(#color-1)" stroke="#000000" stroke-width="0.90024" stroke-linecap="butt"/><path d="M189.88614,155.68118l-1.92128,2.97132" fill="none" stroke="#ea42a4" stroke-width="2" stroke-linecap="round"/><path d="M198.34535,162.33561l-3.35017,0.58002" fill="none" stroke="#ea42a4" stroke-width="2" stroke-linecap="round"/><path d="M190.67144,170.76836l0.28414,-1.87597" fill="none" stroke="#ea42a4" stroke-width="2" stroke-linecap="round"/><path d="M189.63727,178.86344l1.78889,2.12599" fill="none" stroke="#ea42a4" stroke-width="2" stroke-linecap="round"/><path d="M201.37841,184.54372l-1.57656,0.27295" fill="none" stroke="#ea42a4" stroke-width="2" stroke-linecap="round"/><path d="M192.95033,193.31001l1.84186,0.08708" fill="none" stroke="#ea42a4" stroke-width="2" stroke-linecap="round"/><path d="M188.56132,185.54494l-1.42889,-2.39129" fill="none" stroke="#ea42a4" stroke-width="2" stroke-linecap="round"/><path d="M184.52821,171.62898l1.5236,1.76597" fill="none" stroke="#ea42a4" stroke-width="2" stroke-linecap="round"/><path d="M185.5206,162.12028l0.27295,1.57656" fill="none" stroke="#ea42a4" stroke-width="2" stroke-linecap="round"/><path d="M195.31696,156.56769l2.28129,-3.23662" fill="none" stroke="#ea42a4" stroke-width="2" stroke-linecap="round"/></g><g data-paper-data="{&quot;index&quot;:null}" stroke-linejoin="miter"><path d="M293.17477,140.79821c5.33659,-0.15184 13.62717,10.13783 13.99632,23.11126c0.36913,12.97346 -7.32297,23.71787 -12.65958,23.86972c-5.33659,0.15184 -7.29641,-10.31796 -7.66553,-23.29141c-0.36913,-12.97346 0.9922,-23.53775 6.3288,-23.68957z" fill="url(#color-2)" stroke="#000000" stroke-width="0.90025" stroke-linecap="butt"/><path d="M298.22663,146.36333l2.18023,2.78687" fill="none" stroke="#ea42a4" stroke-width="2" stroke-linecap="round"/><path d="M290.3989,153.75026l3.3887,0.27696" fill="none" stroke="#ea42a4" stroke-width="2" stroke-linecap="round"/><path d="M298.34738,159.61721l0.45138,1.84288" fill="none" stroke="#ea42a4" stroke-width="2" stroke-linecap="round"/><path d="M298.96455,171.70767l1.59086,-2.27798" fill="none" stroke="#ea42a4" stroke-width="2" stroke-linecap="round"/><path d="M289.37155,176.14096l1.59467,0.13035" fill="none" stroke="#ea42a4" stroke-width="2" stroke-linecap="round"/><path d="M298.55246,184.11535l-1.8266,0.25204" fill="none" stroke="#ea42a4" stroke-width="2" stroke-linecap="round"/><path d="M302.22676,175.98763l1.20847,-2.5099" fill="none" stroke="#ea42a4" stroke-width="2" stroke-linecap="round"/><path d="M303.63552,163.66142l1.35892,-1.89561" fill="none" stroke="#ea42a4" stroke-width="2" stroke-linecap="round"/><path d="M303.15252,152.38461l-0.13035,1.59468" fill="none" stroke="#ea42a4" stroke-width="2" stroke-linecap="round"/><path d="M292.89728,147.73377l-2.56261,-3.01879" fill="none" stroke="#ea42a4" stroke-width="2" stroke-linecap="round"/></g><path d="M248.37185,191.32967c-4.27894,-0.20351 -5.04948,-3.37178 -5.04948,-3.37178c0,0 0.80727,-0.43243 3.96065,-0.29394c3.1526,0.13991 5.52694,0.52455 5.52694,0.52455c0,0 -0.16279,3.3451 -4.43811,3.14116z" data-paper-data="{&quot;index&quot;:null}" fill="#58595b" stroke="#231f20" stroke-width="0.9025" stroke-linecap="round" stroke-linejoin="miter"/><g stroke-linejoin="miter"><g stroke-linecap="butt"><g stroke="#000000" stroke-width="1"><path d="M250.89543,213.68101h56.9027v23.57816h-56.9027z" fill="url(#color-3)"/><path d="M255.94323,209.35836h56.9027l-5.04782,4.32267h-56.90271z" fill="#9966ff"/><path d="M308.05421,213.65467l4.81838,-4.12617l-0.68835,23.97113l-4.58893,3.83145z" fill="url(#color-4)"/></g><path d="M305.24231,214.51403c0.45061,0 0.8159,0.15641 0.8159,0.34936c0,0.19294 -0.36529,0.34935 -0.8159,0.34935c-0.45061,0 -0.81591,-0.1564 -0.81591,-0.34935c0,-0.19294 0.3653,-0.34936 0.81591,-0.34936z" fill="#b9b9b9" stroke="none" stroke-width="0.5"/><path d="M304.87969,235.94064c0.45061,0 0.8159,0.1564 0.8159,0.34935c0,0.19294 -0.36529,0.34935 -0.8159,0.34935c-0.45061,0 -0.81591,-0.1564 -0.81591,-0.34935c0,-0.19294 0.3653,-0.34935 0.81591,-0.34935z" fill="#b9b9b9" stroke="none" stroke-width="0.5"/><path d="M252.84312,236.25116c0.4506,0 0.8159,0.15641 0.8159,0.34935c0,0.19294 -0.3653,0.34935 -0.8159,0.34935c-0.4506,0 -0.8159,-0.1564 -0.8159,-0.34935c0,-0.19294 0.3653,-0.34935 0.8159,-0.34935z" fill="#b9b9b9" stroke="none" stroke-width="0.5"/><path d="M252.29918,214.35877c0.4506,0 0.8159,0.1564 0.8159,0.34935c0,0.19294 -0.3653,0.34935 -0.8159,0.34935c-0.4506,0 -0.8159,-0.1564 -0.8159,-0.34935c0,-0.19294 0.3653,-0.34935 0.8159,-0.34935z" fill="#b9b9b9" stroke="none" stroke-width="0.5"/></g><g stroke="#000000" stroke-width="1" stroke-linecap="butt"><path d="M255.59894,225.41256c0,-5.09176 4.31413,-9.21944 9.63587,-9.21944c5.32174,0 9.63587,4.12769 9.63587,9.21944c0,5.09176 -4.31413,9.21944 -9.63587,9.21944c-5.32174,0 -9.63587,-4.12769 -9.63587,-9.21944z" fill="#8499b1"/><path d="M258.90267,225.80768c0,-2.98231 2.52684,-5.39996 5.64387,-5.39996c3.11702,0 5.64387,2.41765 5.64387,5.39996c0,2.98231 -2.52685,5.39995 -5.64387,5.39995c-3.11702,0 -5.64387,-2.41764 -5.64387,-5.39995z" fill="#92c5ff"/></g><g stroke="#000000" stroke-width="1" stroke-linecap="butt"><path d="M280.12662,225.44748c0,-5.09176 4.31413,-9.21944 9.63587,-9.21944c5.32174,0 9.63587,4.12769 9.63587,9.21944c0,5.09176 -4.31413,9.21944 -9.63587,9.21944c-5.32174,0 -9.63587,-4.12769 -9.63587,-9.21944z" fill="#8499b1"/><path d="M283.43034,225.84261c0,-2.98231 2.52685,-5.39996 5.64387,-5.39996c3.11702,0 5.64387,2.41765 5.64387,5.39996c0,2.98231 -2.52685,5.39996 -5.64387,5.39996c-3.11702,0 -5.64387,-2.41764 -5.64387,-5.39996z" fill="#92c5ff"/></g><path d="M300.12834,211.40647l4.08795,-18.1595" fill="none" stroke="#000000" stroke-width="2" stroke-linecap="round"/></g><g data-paper-data="{&quot;index&quot;:null}" stroke="#001026" stroke-width="0.9" stroke-linejoin="miter"><g><path d="M240.90739,221.43793c0,0 -1.43134,1.55489 -2.24008,1.81875c-0.76247,0.24877 -2.4817,-0.27822 -2.4817,-0.27822l-7.59631,-12.46956l8.24993,-3.66887l4.06815,14.59791z" fill="#505a63" stroke-linecap="butt"/><path d="M236.92546,205.77621c1.12782,2.53606 -0.01377,5.50624 -2.54983,6.63406c-2.53606,1.12783 -5.50624,-0.01378 -6.63406,-2.54984c-1.12782,-2.53605 0.01378,-5.50623 2.54984,-6.63405c2.53606,-1.12782 5.50623,0.01378 6.63405,2.54984z" fill="url(#color-5)" stroke-linecap="butt"/><path d="M232.63989,203.00094c0,0 1.57187,2.16889 2.11744,3.43419c0.58374,1.35384 1.27822,4.44118 1.27822,4.44118" fill="none" stroke-linecap="round"/><path d="M229.06833,204.80257c0,0 1.02302,1.51903 1.38229,2.58663c0.48623,1.44493 1.27128,5.2988 1.27128,5.2988" fill="none" stroke-linecap="round"/><path d="M227.48591,207.95932c0,0 3.01655,-1.65093 4.49058,-1.94608c1.69431,-0.33927 5.10679,0.02434 5.10679,0.02434" fill="none" stroke-linecap="round"/><path d="M228.06041,210.69011c0,0 2.45277,-0.76427 3.75284,-0.89039c1.67242,-0.16222 5.44898,-0.00222 5.44898,-0.00222" fill="none" stroke-linecap="round"/></g><path d="M232.36758,219.39968c-0.74707,-1.69359 0.07777,-3.50558 1.84236,-4.0472c1.76458,-0.54162 4.1479,0.81284 4.89498,2.50642c0.74708,1.69359 -0.425,3.08497 -2.18958,3.62659c-1.76459,0.54162 -3.80068,-0.39223 -4.54776,-2.08581z" fill="#be1e2d" stroke-linecap="butt"/></g></g></g></svg>