<svg version="1.1" xmlns="http://www.w3.org/2000/svg" xmlns:xlink="http://www.w3.org/1999/xlink" width="129.77363" height="188.78824" viewBox="0,0,129.77363,188.78824"><g transform="translate(-129.07355,-61.48098)"><g data-paper-data="{&quot;isPaintingLayer&quot;:true}" fill-rule="nonzero" stroke-linejoin="miter" stroke-miterlimit="10" stroke-dasharray="" stroke-dashoffset="0" style="mix-blend-mode: normal"><g stroke="#0f002d" stroke-width="1.5"><path d="M238.09699,217.12195c1.39116,0.01232 8.19696,-0.08104 9.39398,0.66366c3.85215,2.39653 10.83787,1.31171 10.6003,5.5513c-0.23757,4.23958 -21.47675,2.96833 -22.78967,1.68731c-1.88421,-1.83844 -1.89136,-7.94375 2.79539,-7.90226z" fill="#e9caf8" stroke-linecap="butt"/><path d="M200.05165,244.63709c-11.08421,2.23941 -10.88365,-14.68362 -6.83249,-16.31625c6.47665,-2.6101 27.65932,-3.13341 28.30701,4.56803c1.28573,2.32721 5.08586,4.7833 7.25692,5.10267c17.28312,2.54233 7.46938,10.83232 -1.2131,11.52769c-14.54503,1.16488 -21.45486,-0.3691 -27.51834,-4.88212z" fill="#e9caf8" stroke-linecap="butt"/><g stroke-linecap="round"><path d="M234.55291,217.5599c-0.57238,-1.74251 -4.32798,-13.77625 -9.19967,-19.29612c-7.30432,-8.27619 -15.39581,-9.94782 -15.62235,-9.84263c-0.56853,0.26399 17.86931,16.89871 16.76677,24.9285c-0.41058,2.99026 -8.50044,6.79203 -9.06033,9.25087c2.44993,5.71303 6.92735,9.72344 3.29384,12.47701c-2.34804,1.7794 -17.09586,2.5234 -22.93461,-1.87078c-4.03483,-3.03656 -5.83307,-6.4608 -4.79148,-10.98298c1.04159,-4.52218 6.0442,-6.21748 10.23841,-12.66551c1.09123,-5.0674 -14.68102,-15.71178 -13.83103,-23.64594c0.78939,-7.36836 24.80197,-4.9078 26.51466,-5.22723c0.17444,-0.03254 18.51598,16.17183 25.52641,24.66043c8.05555,9.75409 4.90064,11.9722 4.72128,11.98264c0,0 -10.41448,3.90752 -11.62189,0.23173z" fill="#414ca9"/><path d="M209.53085,188.35321l2.68595,-1.42911" fill="none"/></g></g><g stroke="#0f002d"><path d="M179.91535,173.10352c-16.4828,-10.0108 -21.46055,-28.11644 -17.83597,-26.89622c6.13461,2.06522 17.17007,-4.54572 21.3208,1.987c1.69983,2.67532 12.78645,9.2446 18.43509,15.89718c7.52808,8.86605 14.9792,16.63007 14.8249,16.77179c-1.50805,1.38517 -15.05025,6.75325 -26.37675,5.34725c0,0 -5.91488,-9.04121 -10.36807,-13.107z" fill="#8f21c6" stroke-width="1.5" stroke-linecap="round"/><path d="M185.76653,150.69991c0.34304,0.99706 -21.04737,0.38871 -21.284,-0.6386c-0.20852,-0.90526 -1.36237,-3.68939 2.70606,-3.93139c19.17135,-2.128 18.57794,4.57 18.57794,4.57z" fill="#0f002d" stroke-width="1" stroke-linecap="butt"/><path d="M216.15564,180.90092c-1.54288,3.0619 -19.18074,6.26557 -21.52887,5.22258c-11.95098,-11.08927 12.19715,-14.8798 12.41999,-14.64047c0,0 9.39614,9.16087 9.10887,9.41789z" fill="#c168ee" stroke-width="1" stroke-linecap="round"/><path d="M212.92137,163.41302c-0.06592,-2.45119 -11.96722,-4.57158 -23.41335,-4.06503c-8.46087,-2.14404 -13.46659,-7.86178 -13.46659,-7.86178" fill="none" stroke-width="1" stroke-linecap="round"/><path d="M218.94085,153.0932c-0.59336,-2.53277 -14.23706,-2.17106 -23.79297,-0.66638c-6.08296,0.95783 -10.58819,-2.54932 -10.58819,-2.54932" fill="none" stroke-width="1" stroke-linecap="round"/></g><g stroke="#0f002d" stroke-width="1.5" stroke-linecap="round"><path d="M159.101,147.58564c9.90434,-1.00888 8.80761,8.48463 4.3688,12.02645c-1.16758,0.93163 -6.54608,0.84963 -8.37848,1.75597c-0.38492,0.19039 3.40062,-0.67902 3.14054,-0.42787c3.04116,3.92896 15.12148,4.73151 7.23477,17.79681c-3.42197,5.6689 -17.11082,25.25544 -24.64914,3.37106c-3.1516,-9.14934 13.09466,-33.53448 18.28352,-34.52242z" fill="#5e1284"/><path d="M166.31383,164.72397c2.81115,-2.47019 4.06467,-6.65614 7.04719,-5.76952c3.33351,0.99097 3.31502,4.38032 1.7514,7.28424c-1.29584,2.40662 -3.78787,4.44483 -3.70022,4.56668c4.35452,6.05358 16.33829,0.07389 15.66222,10.21698c-0.50525,7.58027 -13.92062,4.92238 -17.26455,1.37392c0.90193,2.64898 -2.17224,5.47946 -4.81991,6.26551c-2.06807,8.85929 -12.28741,5.25443 -14.629,2.39507c-4.55251,-5.55915 -1.9064,-13.27168 0.22179,-16.85254c1.35929,-2.28713 4.43586,-5.2128 7.75739,-6.7382c3.18087,-1.46081 6.60884,-1.54282 7.9737,-2.74214z" fill="#e9caf8"/><path d="M162.95394,186.22704l1.05023,1.46095" fill="none"/></g><g stroke="#0f002d" stroke-width="1.5" stroke-linecap="round"><path d="M218.12504,159.66592c0,0 4.78966,2.65386 5.12638,5.52996c0.33672,2.87609 -1.34255,7.78167 -4.90524,10.76003c-3.56269,2.97836 -7.56478,-2.79392 -7.56478,-2.79392l0.41199,-9.14981z" fill="#5e1284"/><path d="M204.85193,154.06229c5.24428,1.81379 14.64281,2.72512 15.57123,11.72926c0.87085,8.44584 -15.69177,10.48526 -20.09734,3.88652c-5.11329,-0.59045 -5.8072,-8.44069 -5.99456,-7.90983c-0.42573,1.20622 -1.34101,3.23668 -2.77261,3.60957c-3.20291,0.83427 -7.58255,-2.60009 -3.97894,-11.02579c2.52841,-5.91177 12.89344,-1.8042 17.27224,-0.28973z" fill="#e9caf8"/></g><path d="M177.45696,146.07336c-1.4585,2.42968 -10.4479,4.46699 -14.38792,1.39333c-0.53928,-0.37027 -11.4844,2.4594 -12.63668,-3.69528c-2.70241,-0.86025 -13.34142,-3.5619 -12.17402,-12.22394c-5.38417,-3.01869 -11.95856,-11.41221 -6.20203,-17.45294c-1.20226,-7.40293 -4.35047,-24.03875 3.18292,-25.89253c-0.99384,-6.67524 23.14508,-29.18463 31.66105,-19.63828c19.76722,-13.04939 33.8531,-2.36696 33.34364,0.62026c15.24631,-1.7381 23.49181,15.5281 22.83485,17.14245c2.9638,0.78204 11.00954,26.07012 -1.05215,30.85021c0.68406,2.65092 -6.37505,22.81896 -13.81588,21.68641c-0.55726,1.82392 -7.55229,5.48604 -11.71135,6.32732c-6.6696,3.48795 -18.49241,0.69918 -19.04246,0.88296z" fill="#3d2747" stroke="#0f002d" stroke-width="1.5" stroke-linecap="round"/><g><g><path d="M160.31368,130.93249c-3.03246,-0.90014 -9.08212,-1.70782 -10.60396,-5.73549c-2.21267,-5.85602 -0.40139,-16.41033 4.49045,-14.03565c3.33328,0.50081 10.1905,6.37444 13.22576,7.27541c5.04942,2.63208 6.69436,1.74862 6.18749,2.97906c0,0 -5.85822,11.72555 -13.29974,9.51667z" fill="#2f1e38" stroke="none" stroke-width="0" stroke-linecap="butt"/><path d="M173.17582,122.10027c-1.55797,5.59973 -12.51428,16.01742 -23.00933,2.72194" fill="none" stroke="#0f002d" stroke-width="1.5" stroke-linecap="round"/></g><path d="M208.58485,116.4775c-0.40948,3.72203 -4.87303,13.44759 -15.34374,9.35916c-6.22913,1.15407 -14.10849,-1.13941 -18.49128,-4.6737c-16.39942,2.79416 -28.77372,-11.49147 -25.176,-15.73848" fill="#3d2747" stroke="#0f002d" stroke-width="1.5" stroke-linecap="round"/></g><g><g><path d="M177.89693,145.94332c-7.5202,5.71831 -16.56742,4.17604 -23.43443,1.17089c-7.10838,-3.11079 -8.2372,-9.29849 -5.16495,-21.52163c0.21878,-0.54786 0.64236,-0.16569 0.79795,0.12077c10.21542,11.7396 25.83596,14.13788 38.3183,17.01903c3.57304,0.82472 -5.12986,0.95119 -10.51688,3.21094z" fill="#ffffff" stroke="#0f002d" stroke-width="1.5" stroke-linecap="round"/><path d="M175.09881,148.06196c0,0 1.02126,-2.83508 1.60831,-4.11623c0.47735,-1.04176 1.95087,-2.99692 1.95087,-2.99692l9.30575,1.46767z" fill="#0f002d" stroke="none" stroke-width="0" stroke-linecap="butt"/><path d="M147.30257,136.28892c0,0 4.91402,-5.25722 5.66288,-6.09664c0.20835,-0.23354 -1.2113,12.72098 -1.56729,15.05489c-0.07736,0.50714 8.85929,-7.64429 10.18271,-9.32385c0.25292,-0.32098 0.21015,9.03484 -0.40368,12.93263c-0.07072,0.44912 9.91538,-6.20691 12.16961,-9.05544c0.23192,-0.29304 0.15228,8.87518 0.15228,8.87518" fill="none" stroke="#0f002d" stroke-width="1.5" stroke-linecap="round"/></g><path d="M147.57454,124.79483c0,0 2.6566,-0.80761 4.81976,1.57297" fill="none" stroke="#0f002d" stroke-width="1.5" stroke-linecap="round"/></g></g></g></svg>