<svg version="1.1" xmlns="http://www.w3.org/2000/svg" xmlns:xlink="http://www.w3.org/1999/xlink" width="157.86744" height="215.99216" viewBox="0,0,157.86744,215.99216"><g transform="translate(-238.05034,-155.0265)"><g data-paper-data="{&quot;isPaintingLayer&quot;:true}" fill="#000000" fill-rule="nonzero" stroke="none" stroke-width="0.5" stroke-linecap="butt" stroke-linejoin="miter" stroke-miterlimit="10" stroke-dasharray="" stroke-dashoffset="0" style="mix-blend-mode: normal"><path d="M362.35294,303.39822c0.35762,0 0.64215,0.07308 0.86854,0.18937c0.65867,-0.11176 1.31847,-0.21062 1.97964,-0.29424c3.76791,-1.27416 8.03599,-2.40223 11.73829,-4.21317c0.22051,-0.26166 0.54763,-0.48342 1.03087,-0.53094c0.663,-0.35996 1.30323,-0.74593 1.91395,-1.16315c2.97796,-2.03443 3.66732,-5.27675 5.35372,-8.24136c2.09565,-3.68407 5.35764,-8.38096 6.31413,-12.56473c0.77858,-3.40556 0.52145,-7.24166 0.52145,-10.69764c0,-4.21851 0.80655,-8.71134 0.03871,-12.86927c-0.17749,-0.96112 -1.13227,-2.83097 -1.40818,-3.60331c-3.46755,-9.70665 -9.13102,-18.24061 -13.73989,-27.45067c-1.91506,-3.83347 -3.91936,-7.5708 -5.61055,-11.5169l-0.24928,-0.49807c-6.56887,1.2699 -12.83958,3.54909 -19.38701,4.95344c-8.89635,1.90817 -17.78807,3.22136 -26.93033,2.95382c-0.84955,-0.55667 -1.87888,-0.90644 -2.54864,-1.67c-4.5854,-5.22755 -2.68614,-11.22035 -4.23087,-17.23013c-0.3966,-1.54296 -2.38371,-5.62059 -1.33164,-7.0983c0.86824,-1.21952 2.49711,-1.67405 3.8555,-2.30322c2.4061,-1.11445 7.5558,-2.51921 9.94266,-0.64634c0.81066,0.63609 1.36581,1.59087 1.75439,2.54523c0.297,0.72942 0.41595,1.54053 0.40212,2.33421c0.5538,-0.5614 1.24188,-0.9151 1.96365,-1.39954c3.37188,-2.40895 6.83451,-4.67041 10.363,-6.82268c-5.83779,-0.12173 -11.5687,-1.07068 -17.4115,-1.4606c-8.22743,-0.54906 -16.55052,-0.28265 -24.81143,-0.29335c-4.2141,0.41388 -6.58655,1.39803 -9.87631,4.03046l-0.1499,0.16503c0,0 -0.63355,0.63355 -1.44733,0.54067c0.29497,1.88605 0.80477,3.74081 1.01417,5.63878c0.66378,6.01634 0.06337,12.41144 0.06337,18.46546c0,3.14788 0.39222,7.7954 -2.3681,10.14557c-2.86514,2.43941 -7.89927,0.58962 -10.57868,-0.99928c-8.53976,-5.06412 -15.19864,-12.32459 -21.98409,-19.43238c-1.63702,1.08118 -4.2961,2.11984 -5.42648,3.69877c-1.41586,1.97768 -1.58025,4.99311 -1.70364,7.26273c-0.16255,2.98974 -0.77502,6.35346 -0.31454,9.33839c0.7615,4.93618 4.64109,10.42988 7.7919,14.09128c1.92512,1.98153 4.31434,3.04305 6.89842,3.52339c0.29682,-0.44401 0.74083,-0.66602 0.74083,-0.66602c2.15719,-1.06912 4.51096,-1.70265 6.94989,-2.07375c0.78332,-0.74023 1.55972,-0.50911 2.01513,-0.24886c4.10714,-0.39902 8.36468,-0.2066 12.26467,-0.21199c2.27504,-0.00315 4.54964,-0.04551 6.82428,-0.11017c0.05011,-0.05221 0.10237,-0.09894 0.15617,-0.14072c0.25439,-0.19969 0.60862,-0.33873 1.10189,-0.33873c0.31751,0 0.57742,0.05761 0.79017,0.15192c0.25581,0.07289 0.51068,0.15215 0.7646,0.23741c7.41487,-0.26126 14.83226,-0.68516 22.26877,-0.68516c3.80308,0 7.98539,-0.45784 11.75091,0.0226c4.02337,0.51334 8.33661,2.56589 12.09154,3.90963c2.48874,0.89062 4.98176,1.50976 7.41541,2.34642c0.31057,-0.43519 0.91427,-0.94168 1.9426,-0.5989c1.16805,0.38935 1.24037,1.32656 1.18061,1.848c0.60312,0.28417 1.20061,0.59613 1.79142,0.94395c4.19407,2.46907 7.86195,5.80562 11.73882,8.72096c2.27664,2.27284 5.08158,4.7038 6.35254,7.71117c0.95277,2.25446 1.01323,4.441 1.01556,6.84617c0.00273,2.81495 0.18071,5.44505 -0.6726,8.18388c-2.87367,9.22337 -12.80709,14.54689 -21.53531,16.74917c-6.50652,1.61258 -13.4134,2.15789 -20.303,2.33497c-0.18018,0.29688 -0.41433,0.51466 -0.75673,0.57439c-0.66928,0.11675 -1.29995,-0.14373 -1.90777,-0.52274c-3.80551,0.05185 -7.58925,0.01857 -11.28047,0.01857c-3.18729,0 -6.21814,0.13019 -9.18068,-0.04406l0.04833,0.35459c0,0 0,1.75 -1.75,1.75c-1.75,0 -1.75,-1.75 -1.75,-1.75l0.03954,-0.71858c-2.24661,-0.36493 -4.473,-1.00902 -6.71922,-2.12965c-4.21894,-2.10947 -8.24803,-4.47255 -11.83262,-7.42383c3.60241,6.836 8.30855,13.42005 14.28045,18.01035c4.6282,3.55747 11.14175,4.4917 16.72725,5.51878c7.32802,-0.03223 15.32523,1.27404 22.5702,0.30016c7.14713,-0.96073 14.11925,-3.64181 21.19405,-5.13029c0.25192,-0.33642 0.67205,-0.61695 1.37271,-0.61695zM361.40428,318.80536c-1.41693,5.63781 -1.64228,11.48475 -3.25102,17.11774c-2.25776,7.90163 -4.59893,16.13549 -7.72404,23.73972c-0.0668,0.16253 -3.40786,6.12913 -1.90378,6.91299c0.64615,0.33674 4.61662,-0.28539 5.40684,-0.23303c2.83878,0.1881 5.25224,1.17963 8.12655,1.17309c6.5418,0.02037 13.77882,0.25492 20.13982,-1.41216c0.62932,-0.16493 4.31338,-0.82025 4.67942,-2.12298c0.26616,-0.94725 -0.09865,-1.96622 -0.09865,-2.95015c0,-3.88873 -0.08704,-7.69302 -0.57472,-11.54765c0,0 -0.10891,-0.87126 0.44471,-1.45664c-0.21605,-0.77544 -0.44789,-1.54643 -0.70073,-2.31033c-2.47597,-14.60549 -10.15418,-27.58312 -9.67394,-42.49162c-3.37686,1.38854 -7.01468,2.39954 -10.29937,3.48231c-0.68235,0.08426 -1.36324,0.18483 -2.04291,0.29918c-0.6269,4.01156 -1.5359,7.85146 -2.52816,11.79953zM390.27941,361.03057c0,0.57507 0.02474,3.79815 -0.09865,4.10867c-1.15301,2.90177 -4.44179,3.65106 -7.08529,4.34761c-6.67832,1.7597 -14.16558,1.51042 -21.03665,1.52901c-3.65469,-0.00737 -6.93085,-1.17934 -10.58824,-1.17647c-0.67077,0.00053 -4.30444,0.06046 -4.7019,-0.23641c-2.89349,-2.16117 -2.15491,-5.30646 -1.04465,-8.0356c3.52129,-8.65574 6.4927,-17.60606 9.06389,-26.60581c1.59859,-5.59263 1.82424,-11.39205 3.21956,-16.9999c0.85324,-3.42919 1.65789,-6.76569 2.25591,-10.21708c-6.6803,1.53977 -13.2848,3.97875 -20.04958,4.87465c-7.48663,0.9915 -15.74677,-0.26024 -23.31216,-0.28808c-5.06033,-0.91089 -10.87722,-1.7775 -15.39084,-4.32652c-10.19116,-5.75533 -17.15018,-17.44216 -21.64874,-27.90352c0,0 -0.66894,-1.56085 0.84866,-2.26639c0.14193,-0.38113 0.45308,-0.75532 1.0888,-0.96723c1.6602,-0.5534 2.21359,1.1068 2.21359,1.1068l-0.03738,0.29687c4.28306,5.00184 9.78127,8.41378 15.6304,11.33834c1.98535,0.99503 3.97362,1.56067 5.98567,1.87508c1.21356,-3.27272 2.35878,-6.58689 3.4875,-9.88142c0.39516,-1.1534 0.46347,-2.4447 1.08709,-3.49236c0.88785,-1.49156 1.69033,-3.50362 3.35993,-3.97846c1.07535,-0.30583 1.67975,1.4872 2.4035,2.33932c1.90231,2.23973 3.42909,4.79859 5.35418,7.04517c1.98316,1.98316 3.73246,4.1725 5.78738,6.08149c0.45632,0.42391 1.47516,1.0041 2.02324,1.77028c0.35876,-0.87382 0.99923,-1.62059 1.54671,-2.39491c1.5766,-2.2298 3.24724,-4.06634 4.55217,-6.50904c0.47082,-0.88134 0.56138,-2.08185 1.37297,-2.66474c0.88626,-0.63652 2.13604,-0.8069 3.21253,-0.62861c2.54102,0.42083 2.42921,1.98871 4.01845,3.33347c2.4043,2.03443 5.09913,3.84335 7.58987,5.83457c0,0 0.39183,0.31346 0.588,0.81449c0.32562,-0.09149 0.65311,-0.18791 0.98187,-0.28931c-0.00133,-0.02646 -0.00133,-0.04101 -0.00133,-0.04101c0,-3.45065 -1.83929,-13.88731 4.07731,-13.78811c1.02749,0.01723 1.54794,1.35549 2.26351,2.09305c1.51326,1.55976 3.04172,3.03177 4.5878,4.57527l0.74108,0.96732c2.36458,-2.0779 4.23306,-4.60492 5.17938,-7.62136c0.73779,-2.35176 0.50138,-4.68892 0.50387,-7.11024c0.00201,-1.96126 0.00187,-3.66687 -0.74914,-5.50677c-0.99758,-2.44398 -3.57717,-4.56794 -5.41217,-6.40648c-3.99055,-2.98458 -7.83571,-6.60424 -12.28546,-8.9927c-1.05391,3.19813 -2.12038,6.18142 -4.28058,9.00977c-1.05751,1.38461 -3.20502,4.24579 -5.50886,3.91941c-1.40011,-0.19835 -2.93853,-2.76634 -3.88586,-3.71295c-2.35545,-2.35365 -4.83408,-4.65995 -7.11783,-7.11953c-1.4597,-1.57208 -3.42377,-3.47483 -4.5609,-5.48128c-0.02575,0.16328 -0.05143,0.31385 -0.07273,0.44221c-0.58448,4.00166 -2.30959,13.12885 -7.66033,13.24642c-1.8069,0.0397 -3.90516,-2.84688 -5.20025,-3.94345c-3.71993,-3.14975 -7.68092,-6.19347 -11.65072,-9.0289c-1.91399,-1.36707 -3.59149,-2.806 -5.6171,-3.73138c-0.28359,3.99802 0.26904,9.64132 -2.32161,12.55265c-0.88129,0.99038 -2.22489,1.8084 -3.55051,1.79207c-0.59554,-0.00734 -3.81738,-2.76553 -4.5056,-3.34786c-4.23672,-3.5849 -8.77555,-6.91382 -12.7734,-10.72888c-0.68325,0.09988 -1.35773,0.22289 -2.01981,0.37377c0.18955,0.25249 0.3199,0.59975 0.3199,1.07736c0,1.75 -1.75,1.75 -1.75,1.75h-1.17647c-5.12792,-0.008 -9.64884,-1.35525 -13.34284,-4.97273c-3.60773,-4.2233 -7.81018,-10.25163 -8.67868,-15.90872c-0.49838,-3.24627 0.08957,-6.82461 0.27369,-10.07338c0.16893,-2.98066 0.54372,-6.66036 2.41401,-9.20786c1.30171,-1.77304 3.80241,-2.95777 5.73691,-4.15125c-0.6798,-0.69874 -1.36324,-1.39317 -2.05229,-2.08098c-3.54364,-3.54364 -7.12531,-7.15061 -10.81203,-10.5217c-1.08775,-0.99462 -2.60774,-1.79449 -3.33011,-3.15027c-1.57463,-2.95537 -0.12365,-6.76004 1.14495,-9.47825c3.43707,-7.36457 9.01786,-14.15549 16.31977,-17.84886c1.19245,-0.55168 2.28466,-1.89002 3.57736,-1.65503c1.19405,0.21706 1.75858,1.70849 2.39646,2.74096c1.16863,1.89153 1.61898,4.70261 2.63477,6.73869c2.30395,4.61815 5.71283,8.7074 8.44196,13.07582c1.50171,2.40372 2.67463,4.9116 4.12444,7.27739c-0.12245,-1.19242 -0.12065,-2.46399 0.40458,-3.07675c0.67068,-0.78246 1.93666,-0.75301 2.95565,-0.907c1.14827,-0.17353 6.78983,-0.38057 7.87286,0.12725c1.0319,0.48385 1.88733,1.40889 2.41768,2.41768c0.10447,0.19871 0.14075,0.68121 0.14721,1.2601c3.65338,-2.81464 6.66118,-3.9176 11.38412,-4.39706c8.38579,-0.00984 16.83634,-0.25434 25.18857,0.29489c6.17977,0.40637 12.2399,1.46765 18.42801,1.46765c0,0 1.72311,0 1.74969,1.70981c10.07649,-5.92236 20.62414,-11.05699 31.08022,-16.26981c1.54001,-0.57815 6.15457,-2.80129 7.81099,-1.63986c0.94684,0.6639 1.04276,2.07839 1.36787,3.18815c0.94202,3.21557 0.33163,7.32858 0.32946,10.64407c-0.003,4.60056 0.31999,9.19976 0.29412,13.82353c-0.01205,2.15295 -0.44169,5.6842 -1.79065,7.47944c-2.07808,2.76556 -7.08962,5.02666 -10.25767,6.22905c-0.88377,0.29474 -1.76756,0.58942 -2.65136,0.88407c-0.00011,0.00231 -0.00023,0.00461 -0.00036,0.00692l0.41995,0.84068c1.67802,3.91539 3.66317,7.62193 5.56592,11.42427c5.07253,10.15394 13.28618,20.53559 15.44016,31.88719c0.83855,4.4192 0.03871,9.12283 0.03871,13.60131c0,3.77977 0.23943,7.93934 -0.65502,11.6553c-1.07579,4.46938 -4.38135,9.3871 -6.62704,13.31762c-2.00407,3.50762 -2.91581,6.96062 -6.41099,9.4057c-0.63966,0.44748 -1.31079,0.86254 -2.00645,1.25025c-1.2903,15.2964 7.04697,28.52236 9.47143,43.36105c0.4542,1.35234 0.82911,2.73124 1.17582,4.11505l0.29412,1.17647c0,0 0.34445,1.37778 -0.82843,1.96128c0.23325,2.95855 0.29244,5.9075 0.29244,8.90549zM341.49665,285.14227c-0.59101,-0.50008 -0.95311,-1.22384 -1.48985,-1.78176c-0.34959,-0.36338 -1.05306,-1.25821 -1.27917,-0.8075c-1.64848,3.286 -3.68661,6.07912 -5.65545,9.1226c5.04249,-0.17693 10.07086,-0.59818 14.89326,-1.56849c-2.1654,-1.65685 -4.41751,-3.22916 -6.4688,-4.96484zM318.71599,285.89492c-1.27129,-1.48279 -2.51849,-2.99076 -3.66242,-4.57388c-0.51682,-0.71525 -1.14259,-1.3735 -1.61824,-2.11365c-0.30125,1.45924 -0.96411,3.29273 -1.04384,3.52695c-1.03052,3.02741 -2.08553,6.06958 -3.19111,9.08167c2.64238,0.10208 5.34496,-0.03832 8.15256,-0.03832c2.21365,0 4.46618,0.01575 6.73948,0.01845c-1.90491,-1.86398 -3.58116,-4.10595 -5.37643,-5.90123zM361.40962,284.17861c-1.69328,-1.69633 -4.46137,-3.23828 -4.9134,-5.68463c-0.13273,-0.71832 -0.03551,1.46058 -0.04302,2.19102c-0.00672,0.65398 0.0023,1.30803 0.00268,1.96205c0.00095,1.65208 0.00038,3.30416 0.00011,4.95624c1.86082,-0.77371 3.69367,-1.71219 5.38951,-2.82575zM312.00268,247.77326c1.91057,1.59301 3.8723,2.9399 5.61452,4.72823c0.42659,0.43788 0.64484,1.29808 1.25489,1.33742c0.95949,0.06187 1.99682,-2.60762 2.14402,-3.00274c0.86319,-2.31697 1.62031,-4.83748 1.96036,-7.28025c0.15066,-0.90017 0.38166,-2.71922 0.89685,-4.03274c-1.80923,0.0619 -3.6183,0.16628 -5.3439,0.16628c-5.34379,0 -10.67694,0.21821 -16.00647,0.43801c3.40427,2.31553 6.58078,5.22868 9.47973,7.64578zM330.23384,242.78742c2.96051,4.04284 6.89615,7.45352 10.40292,10.96283c0.80216,0.80274 0.95746,2.30128 1.99649,2.75764c0.2077,0.09122 0.26875,-0.36592 0.41447,-0.53979c0.56718,-0.67673 1.2016,-1.29933 1.72373,-2.01139c1.96288,-2.67688 2.90431,-5.38917 3.88081,-8.36519c-2.44024,-0.87476 -5.06446,-1.32092 -7.49473,-2.18723c-3.54938,-1.26525 -7.64299,-3.27532 -11.43787,-3.73743c-0.53281,-0.06488 -1.07449,-0.10998 -1.62252,-0.13973c0.91211,1.12542 1.62562,2.5624 2.13668,3.26029zM286.13888,247.20071c1.26172,1.08096 2.62583,2.04912 3.80497,3.21961c0.31607,0.31375 0.38072,0.91561 0.79783,1.07172c1.0643,0.39832 1.09812,-2.0148 1.38931,-3.11325c0.65919,-2.48664 0.50631,-5.26445 0.68157,-7.89753c-2.06101,0.05485 -4.12211,0.09025 -6.1837,0.09365c-2.71683,0.00448 -5.69915,-0.13291 -8.67369,-0.05318c2.67055,2.28322 5.51486,4.39247 8.18372,6.67898z"/><path d="M271.48529,224.41176c0,-0.9665 0.7835,-1.75 1.75,-1.75c0.9665,0 1.75,0.7835 1.75,1.75c0,0.9665 -0.7835,1.75 -1.75,1.75c-0.9665,0 -1.75,-0.7835 -1.75,-1.75z"/><path d="M331.77941,223.23529c0,-0.9665 0.7835,-1.75 1.75,-1.75c0.9665,0 1.75,0.7835 1.75,1.75c0,0.9665 -0.7835,1.75 -1.75,1.75c-0.9665,0 -1.75,-0.7835 -1.75,-1.75z"/></g></g></svg>