<svg version="1.1" xmlns="http://www.w3.org/2000/svg" xmlns:xlink="http://www.w3.org/1999/xlink" width="128.04773" height="155.94477" viewBox="0,0,128.04773,155.94477"><defs><linearGradient x1="196.05525" y1="137.92772" x2="196.75778" y2="184.68779" gradientUnits="userSpaceOnUse" id="color-1"><stop offset="0" stop-color="#cc2981"/><stop offset="1" stop-color="#a92292"/></linearGradient><linearGradient x1="305.80304" y1="145.74336" x2="294.77946" y2="191.19089" gradientUnits="userSpaceOnUse" id="color-2"><stop offset="0" stop-color="#cc2981"/><stop offset="1" stop-color="#a92292"/></linearGradient><linearGradient x1="279.40136" y1="213.14454" x2="279.40136" y2="237.25755" gradientUnits="userSpaceOnUse" id="color-3"><stop offset="0" stop-color="#9966ff"/><stop offset="1" stop-color="#66ebff"/></linearGradient><linearGradient x1="309.62405" y1="208.89782" x2="309.62405" y2="237.33108" gradientUnits="userSpaceOnUse" id="color-4"><stop offset="0" stop-color="#9966ff"/><stop offset="1" stop-color="#66ebff"/></linearGradient><radialGradient cx="233.37558" cy="192.21364" r="5.02555" gradientUnits="userSpaceOnUse" id="color-5"><stop offset="0" stop-color="#54606d"/><stop offset="1" stop-color="#2c3136"/></radialGradient></defs><g transform="translate(-185.44048,-82.50441)"><g data-paper-data="{&quot;isPaintingLayer&quot;:true}" fill-rule="nonzero" stroke-miterlimit="10" stroke-dasharray="" stroke-dashoffset="0" style="mix-blend-mode: normal"><g data-paper-data="{&quot;index&quot;:null}" stroke="#000000" stroke-width="0.90024" stroke-linecap="round" stroke-linejoin="miter"><path d="M283.89042,162.65173c0,0 4.70619,-12.76949 4.99868,-13.40181c0.29243,-0.6322 2.09149,-6.27999 11.55985,-11.70383c0,0 4.86992,31.22878 -7.56596,43.71965c-0.00033,-0.00084 -1.81004,-8.77221 -8.99257,-18.61401zM284.04025,162.85976c-0.57485,-0.82131 -1.86193,-2.16482 -1.86193,-2.16482M293.03068,183.74891c0,0 0.03423,-1.60267 -0.14803,-2.484" fill="#be1e2d"/><path d="M297.09175,174.39397c0,0 -1.96117,-0.56262 -3.63597,-4.29842c-1.04267,-2.31583 -1.70434,-7.02825 -1.70434,-7.02825l-0.02953,0.17033c0.35729,-1.01976 0.7,-2.18182 0.94338,-3.40443c0.41357,-2.06888 0.68278,-5.03307 0.86216,-7.92118l0.04412,-0.40551c0,0 1.27595,-5.60496 7.31076,-8.63228l0.08752,0.01094c0.40289,4.88046 0.77721,12.12401 0.12064,17.43217c-0.73631,5.95435 -2.42171,10.73271 -4.07388,14.20982l0.07516,-0.13319v0v0v0v0v0zM290.17059,166.69052c0,0 1.34834,-3.01082 1.58086,-3.62323" fill="#929497"/></g><g data-paper-data="{&quot;index&quot;:null}" stroke="#000000" stroke-width="0.90024" stroke-linecap="round" stroke-linejoin="miter"><path d="M200.92179,175.67695c-9.72825,-14.69711 1.2032,-44.35275 1.2032,-44.35275c8.2127,7.185 8.8629,13.07664 9.02544,13.75333c0.16248,0.67678 2.25819,14.1243 2.25819,14.1243c-8.98323,8.23274 -12.48683,16.47512 -12.48683,16.47512zM215.47159,157.62122c0,0 -1.52671,1.06337 -2.25213,1.75527M200.92179,175.67695c-0.35254,0.82803 -0.63489,2.40604 -0.63489,2.40604" fill="#be1e2d"/><path d="M198.19744,168.25639c-0.9337,-3.73536 -1.64313,-8.75174 -1.19232,-14.73417c0.40214,-5.3339 2.19812,-12.36091 3.55529,-17.0662l0.08805,0.0066c5.31974,4.15898 5.46527,9.90426 5.46527,9.90426l-0.0367,0.40624c-0.39366,2.86672 -0.71409,5.82587 -0.71655,7.93568c-0.00247,1.24659 0.10442,2.45341 0.25362,3.5236l0.00464,-0.17281c0,0 -1.57781,4.48946 -3.05669,6.5542c-2.3784,3.33233 -4.41209,3.49717 -4.41209,3.49717zM205.61873,158.05958c0.1072,0.64623 0.83545,3.86379 0.83545,3.86379" fill="#929497"/></g><path d="M204.64769,137.90586c0,0 6.41151,-38.86824 54.06673,-34.62341c32.70091,2.91279 40.60417,42.52403 40.60417,42.52403" data-paper-data="{&quot;index&quot;:null}" fill="none" stroke="#000000" stroke-width="7" stroke-linecap="round" stroke-linejoin="miter"/><path d="M241.0857,210.239v0v0v0v0v0c-1.71988,0.68757 -5.16793,1.44805 -6.28581,1.24842c0,0 -4.33813,-0.97934 -4.35092,-3.40621c-0.00587,-1.037 0.56575,-1.82227 1.56712,-2.40886c-0.07917,-0.4092 -0.11265,-1.01905 0.27524,-1.51842c0.64202,-0.82918 2.30186,0.6038 2.30186,0.6038l-0.01646,0.0093c0.31158,-0.0633 0.62507,-0.12157 0.9632,-0.17104c1.91344,-0.27374 4.8027,-0.12906 6.3757,-0.11944c0,0 1.36588,-0.02943 2.12208,1.3745c0.80471,1.49344 -1.23214,3.70039 -2.95201,4.38795z" data-paper-data="{&quot;index&quot;:null}" fill="#be1e2d" stroke="#231f20" stroke-width="0.78672" stroke-linecap="round" stroke-linejoin="round"/><path d="M258.22143,217.36084v0v0v0v0c0,0 -3.46029,2.79337 -5.36972,1.29263c-0.82038,-0.6352 -1.07667,-1.57444 -0.91815,-2.72422c-0.37259,-0.19113 -0.86805,-0.5414 -1.02052,-1.15659c-0.25199,-1.01661 1.90166,-1.43279 1.90166,-1.43279l-0.00279,0.01787c0.14535,-0.28038 0.29365,-0.56521 0.46342,-0.86146c0.97422,-1.66721 2.87946,-3.84715 3.86174,-5.07474c0,0 1.28923,-1.15117 2.51557,-0.6503c1.2264,0.49988 1.65391,2.66047 1.40303,3.5905c-0.25169,0.93009 -1.35917,5.48766 -2.83423,6.99909z" data-paper-data="{&quot;index&quot;:null}" fill="#be1e2d" stroke="#231f20" stroke-width="0.78672" stroke-linecap="round" stroke-linejoin="round"/><path d="M252.91363,218.20271c1.58098,-0.36581 3.46597,0.19223 3.46597,0.19223c0,0 0.56085,5.18662 0.71651,7.06071c0.15651,1.87685 0.95861,4.84261 0.95861,4.84261c0,0 0.4701,0.31822 0.29134,1.07108c-0.18236,0.75085 -1.86057,0.80561 -3.97704,1.08774c-2.11262,0.27774 -3.8035,-0.15416 -4.09102,-0.92026c-0.29041,-0.76265 0.34728,-1.07532 0.34728,-1.07532c0,0 1.31474,-6.08433 0.54476,-8.24589c0.00424,0.00474 -0.27212,-3.54671 1.74359,-4.0129z" data-paper-data="{&quot;index&quot;:null}" fill="#be1e2d" stroke="#231f20" stroke-width="0.90024" stroke-linecap="round" stroke-linejoin="round"/><path d="M246.17528,218.40698v0v0v0v0v0c2.73305,1.44176 2.88852,4.03625 2.88927,4.03899c-0.67838,2.18579 0.81309,7.43393 0.81309,7.43393c0,0 0.65152,0.28141 0.39942,1.05634c-0.25589,0.77652 -1.92229,1.28462 -4.04977,1.09903c-2.12379,-0.18729 -3.80185,-0.16759 -4.01753,-0.91257c-0.21568,-0.74499 0.24129,-1.0821 0.24129,-1.0821c0,0 0.14699,-1.75636 0.21803,-3.63861c0.06884,-1.87697 0.04697,-7.0409 0.04697,-7.0409c0,0 1.66873,-1.89911 3.45924,-0.95411z" data-paper-data="{&quot;index&quot;:null}" fill="#be1e2d" stroke="#231f20" stroke-width="0.90024" stroke-linecap="round" stroke-linejoin="round"/><g data-paper-data="{&quot;index&quot;:null}" stroke-width="0.90024"><path d="M257.22088,211.29129v0v0v0v0v0c0.19677,2.82532 -0.8679,7.91746 -4.20874,9.4747c-3.30413,1.53662 -6.64326,1.03701 -9.9394,-1.60822c-2.7309,-2.19239 -2.22452,-7.81636 -1.67827,-10.94245v0c0,0 0.58574,-7.28462 6.78749,-7.70587c6.19985,-0.4213 8.61258,5.39062 8.81552,8.91523c0.10136,0.62553 0.18011,1.26194 0.22341,1.86661z" fill="#be1e2d" stroke="#000000" stroke-linecap="butt" stroke-linejoin="miter"/><path d="M254.9082,219.16422v0v0v0v0v0l-0.02634,0.14148c-0.52086,0.6133 -1.14163,1.11954 -1.86868,1.45855c-3.06055,1.42364 -6.14981,1.10062 -9.20835,-1.05754l-0.02204,-0.14614c0,0 -0.97837,-9.3982 4.96138,-9.35304c6.74445,0.05441 6.32661,7.40994 6.16404,8.9567z" fill="#e6e7e8" stroke="#231f20" stroke-linecap="round" stroke-linejoin="round"/></g><g data-paper-data="{&quot;index&quot;:null}" stroke="#000000" stroke-linecap="butt" stroke-linejoin="miter"><g><g stroke-width="0.4"><path d="M275.41163,234.28258l-0.04371,-0.00653c-1.44569,-0.17159 -3.28213,-0.89852 -3.94171,-1.54203l-0.10466,0.09331l-1.12819,-0.49985l0.3177,-0.24218c0.03528,-0.02829 3.55335,-2.74511 3.79998,-5.9142l0.0253,-0.32597l0.30195,0.1261c0.16055,0.06809 0.52711,0.24657 0.63161,0.50231l0.04399,0.02072c1.67638,0.79699 3.26145,0.82522 3.70772,0.81453l0.24123,0.00175c0.11053,0.03428 0.44598,0.13691 0.46522,0.42684c0.01928,0.29185 -0.31977,0.47213 -0.5073,0.54094c-0.09066,0.00594 -0.18232,0.01003 -0.27592,0.01228c-1.33773,0.03205 -2.9621,-0.29226 -3.7424,-0.7229c-0.03118,0.15966 -0.07685,0.34521 -0.14193,0.55205c1.62871,0.74139 3.14561,0.76554 3.58048,0.75512l0.24414,0.00363c0.10958,0.03425 0.44504,0.13693 0.46427,0.42681c0.01928,0.29186 -0.31881,0.47211 -0.50634,0.54092c-0.0897,0.00596 -0.18232,0.01003 -0.27592,0.01228c-1.44456,0.03462 -3.22258,-0.34558 -3.89279,-0.80061c-0.08586,0.16664 -0.17927,0.33348 -0.28032,0.49858c1.83886,0.98703 3.58326,0.99062 3.6858,1.00708c0.10696,0.04189 0.43444,0.16838 0.43197,0.46075c-0.00243,0.29232 -0.35349,0.44455 -0.54612,0.49928c-1.51479,-0.01572 -3.51477,-0.57981 -4.1478,-1.14074c-0.13767,0.17546 -0.28944,0.35693 -0.45341,0.53964c1.7325,1.00753 3.3874,1.10693 3.48629,1.12819c0.1052,0.04855 0.42464,0.19509 0.40703,0.48592c-0.01954,0.28993 -0.37766,0.42432 -0.57336,0.46778c-1.45711,-0.09562 -3.33571,-0.72507 -4.03366,-1.35156c-0.13878,0.13099 -0.2841,0.26315 -0.43788,0.39831c1.65928,1.07169 3.27657,1.25903 3.37463,1.28598c0.10156,0.0534 0.41194,0.21527 0.37819,0.50463c-0.03469,0.29028 -0.3999,0.40497 -0.51179,0.4332z" fill="#871212"/><path d="M274.54704,226.19193c-0.25733,3.31502 -3.8924,6.08292 -3.8924,6.08292l0.62337,0.27732l0.1723,-0.15357c0.00693,0.01308 0.00805,0.01967 0.01593,0.03463c0.31375,0.53922 2.33364,1.42068 3.92927,1.61326c0,0 0.6977,-0.17564 0.08076,-0.49857c0,0 -1.83506,-0.19631 -3.65538,-1.47319c0.30883,-0.25903 0.58658,-0.51068 0.83788,-0.75885c0.01091,0.01961 0.01504,0.03461 0.02977,0.05698c0.3417,0.5225 2.40623,1.29312 4.01021,1.39847c0,0 0.68634,-0.21413 0.0532,-0.50357c0,0 -1.86009,-0.09539 -3.75698,-1.29197c0.31825,-0.3387 0.59324,-0.66594 0.82031,-0.97879c0.01879,0.03452 0.03673,0.07101 0.06997,0.11657c0.37057,0.50284 2.47393,1.15812 4.08242,1.17541c0,0 0.67318,-0.25075 0.02578,-0.50291c0,0 -1.91714,0.01092 -3.90815,-1.12757c0,0 -0.01418,0.00035 -0.03408,-0.00108c0.23737,-0.3585 0.41659,-0.69387 0.55399,-1.00177c0.01961,0.02887 0.03445,0.05782 0.06464,0.09306c0.38524,0.44481 2.32524,0.91387 3.89175,0.87634c0.08979,-0.00214 0.17864,-0.00618 0.26643,-0.01205c0,0 0.65307,-0.30039 -0.01211,-0.50582c0,0 -0.05948,0.00524 -0.16913,0.00786c-0.51049,0.01222 -2.10717,-0.02522 -3.81322,-0.83563c0,0 -0.00185,0.00005 -0.00566,0.00013c-0.01133,0.00027 -0.0387,0.00278 -0.0717,0.00739c0.17489,-0.47905 0.24501,-0.86855 0.26783,-1.13873c0.00979,0.01302 0.01281,0.01957 0.02355,0.03446c0.38524,0.44481 2.32524,0.91387 3.89175,0.87634c0.08979,-0.00214 0.17864,-0.00618 0.26643,-0.01205c0,0 0.65306,-0.30039 -0.01208,-0.50392c0,0 -0.05852,0.00522 -0.16626,0.00779c-0.50862,0.01219 -2.10721,-0.02521 -3.81517,-0.83748c0,0 0,0 -0.00095,0.00002c-0.01038,0.00025 -0.10107,0.00429 -0.18269,0.03368c-0.0014,-0.01888 -0.00255,-0.02923 -0.00255,-0.02923c0.20044,-0.23943 -0.47899,-0.52583 -0.47899,-0.52583M274.12668,225.50205l0.60392,0.25516c0.21213,0.08948 0.55312,0.26576 0.71482,0.54095c1.61879,0.76144 3.14236,0.7874 3.57248,0.77709c0.08508,-0.00204 0.13418,-0.00698 0.13984,-0.00712l0.0897,-0.00596l0.08669,0.02536c0.49742,0.15268 0.61856,0.43069 0.63202,0.6366c0.02953,0.44294 -0.42159,0.68457 -0.56096,0.74845l-0.07953,0.03687l-0.08785,0.00592c-0.09353,0.00599 -0.18894,0.01019 -0.28535,0.0125c-1.16947,0.02801 -2.67546,-0.21306 -3.58635,-0.6046c-0.00519,0.01998 -0.01127,0.04281 -0.01737,0.06472c1.50989,0.63829 2.88292,0.66022 3.28853,0.6505c0.08604,-0.00206 0.13608,-0.00511 0.14269,-0.00528l0.08966,-0.00787l0.08669,0.02536c0.49657,0.1546 0.61766,0.43262 0.63112,0.63853c0.02953,0.44294 -0.42159,0.68457 -0.56096,0.74845l-0.07953,0.03687l-0.08785,0.00592c-0.09348,0.006 -0.18894,0.01019 -0.28535,0.0125c-1.26874,0.03039 -2.93473,-0.25511 -3.80548,-0.7091c-0.01453,0.02403 -0.02807,0.05083 -0.04266,0.07481c1.69735,0.84283 3.2507,0.8491 3.2668,0.84872l0.08984,-0.00025l0.08401,0.03301c0.48413,0.18795 0.58372,0.47597 0.58205,0.68224c-0.0036,0.44184 -0.4716,0.65075 -0.61409,0.70433l-0.08241,0.03414l-0.08802,-0.0017c-1.32936,-0.01451 -3.23601,-0.47298 -4.10402,-1.05095c-0.04046,0.04918 -0.08182,0.09842 -0.12416,0.1486c1.58198,0.84559 3.02668,0.93398 3.04277,0.9355l0.08909,0.00634l0.0822,0.03681c0.4734,0.21569 0.5561,0.50788 0.54312,0.71537c-0.02912,0.44244 -0.50724,0.6232 -0.65371,0.6693l-0.08357,0.02563l-0.08715,-0.00453c-0.31551,-0.02173 -0.66192,-0.06926 -1.01924,-0.13826l0.04694,0.02441c0.46079,0.24244 0.52842,0.53784 0.50396,0.74185c-0.05184,0.44109 -0.53998,0.59656 -0.68859,0.63322l-0.0846,0.02188l-0.08635,-0.01117c-1.29586,-0.15531 -3.09817,-0.79979 -3.91979,-1.45647l-0.05464,0.04956l-0.2792,-0.12479l-0.62332,-0.27547l-0.73048,-0.32397l0.63541,-0.48441c0.03438,-0.02636 3.46973,-2.68256 3.70758,-5.74454l0.05062,-0.6511zM272.64727,231.9783c-0.01386,0.01357 -0.02777,0.02619 -0.04263,0.03794c1.40286,0.83188 2.69598,1.02985 2.89529,1.05723c-1.08859,-0.22931 -2.24028,-0.64441 -2.85266,-1.09517z" fill="#000000"/></g><path d="M252.08172,209.39041c0,0 5.76024,-0.57123 10.23551,3.61699c4.4753,4.19013 2.92373,8.52275 12.69221,13.21606c0,0 0.81863,2.89762 -3.89997,6.67615c0,0 -8.31733,-4.37333 -10.51037,-10.667c-2.193,-6.29184 -7.83554,-9.72846 -10.78748,-9.67855l-3.22839,-0.39184z" fill="#ba2915" stroke-width="0.4"/><g fill="#871212" stroke-width="0.4"><path d="M272.45818,224.91579c0,0 0.31909,3.88297 -4.16347,6.25967l-1.10941,-0.86163c0,0 4.11449,-4.27584 3.90943,-6.28102z"/><path d="M268.96484,222.30932c0,0 -0.20434,2.99967 -4.51728,5.58611l-1.33297,-1.34819c0,0 4.20748,-2.4486 4.70772,-5.53483z"/><path d="M266.54772,219.2173c0,0 -0.93333,3.05406 -5.47783,4.22709l-0.67117,-1.67999c0,0 4.74954,-1.61593 5.51971,-3.62175z"/><path d="M264.18775,215.19685c0,0 -0.75108,2.60605 -5.22905,3.67253l-1.02817,-1.37912c0,0 4.89289,-2.34585 5.38807,-3.43229z"/><path d="M259.6155,211.06675c0.33171,0.10556 1.60324,1.02291 1.60324,1.02291l-5.63275,2.93208l-1.61794,-1.36027c0,0 5.31576,-2.7003 5.64747,-2.59473z"/><path d="M256.13753,209.97145l-4.63119,2.80591l-2.22515,-0.29102l4.60839,-3.12505l2.24795,0.61017"/></g><path d="M271.13702,233.17995l-0.13693,-0.07052c-0.343,-0.18101 -8.42424,-4.49091 -10.62332,-10.7996c-2.08227,-5.97287 -7.55459,-9.57059 -10.59356,-9.52045l-4.00349,-0.48583l6.27837,-3.14807c0,0 0.16894,-0.0173 0.47242,-0.02457c1.36986,-0.03283 6.13665,0.13674 9.94816,3.70428c1.61392,1.50886 2.47335,3.0689 3.30499,4.57664c1.51893,2.75316 3.09025,5.60153 9.32854,8.59824l0.09571,0.04591l0.02894,0.10245c0.0361,0.12495 0.80624,3.09183 -3.97916,6.9259l-0.12066,0.09559zM274.79951,226.38363c-6.28486,-3.04379 -7.88385,-5.94167 -9.43044,-8.74524c-0.85143,-1.54227 -1.6554,-3.0005 -3.21425,-4.45962c-3.67889,-3.44305 -8.28856,-3.60785 -9.61305,-3.57612c-0.22027,0.00622 -0.36472,0.01727 -0.37348,0.00799l-4.78251,2.41132l2.42201,0.29573c3.08248,-0.05209 8.7779,3.42109 11.01458,9.83768c1.98474,5.69418 9.18099,9.8617 10.26137,10.46012c3.91547,-3.18792 3.79162,-5.7106 3.71578,-6.23189z" fill="#000000" stroke-width="0.4"/><path d="M274.84618,226.40161c0.07585,0.5213 0.18585,3.06372 -3.72963,6.25164c-1.08038,-0.59841 -8.32059,-4.75494 -10.30533,-10.44913c-2.23668,-6.41659 -7.88149,-9.90779 -10.96397,-9.8557l-2.50314,-0.35407l4.79355,-2.42321c0.00876,0.00928 0.15404,-0.00241 0.37431,-0.00863c1.32449,-0.03173 5.97077,0.12369 9.64967,3.56674c1.55887,1.45912 2.39502,2.93561 3.24646,4.47788c1.54657,2.80357 3.15321,5.7507 9.43807,8.7945z" data-paper-data="{&quot;noHover&quot;:true,&quot;origItem&quot;:[&quot;Path&quot;,{&quot;applyMatrix&quot;:true,&quot;segments&quot;:[[[431.94081,453.0728],[0,0],[-0.17472,1.03898]],[[439.09485,465.69792],[-7.688,-6.5475],[2.1867,-1.14874]],[[460.07531,445.23676],[-4.22042,11.29778],[4.75612,-12.7311]],[[482.53429,426.05348],[-6.16114,-0.24052],[0,0]],[487.39021,425.56932],[[477.93421,420.53628],[0,0],[-0.01792,0.01816]],[[477.18779,420.50378],[0.44016,0.02218],[-2.64692,-0.12204]],[[457.80819,427.229],[7.5083,-6.72166],[-3.1815,2.84856]],[[451.18397,436.00386],[1.77068,-3.04612],[-3.21644,5.53734]],[[431.94083,453.07286],[12.7013,-5.80806],[0,0]]],&quot;closed&quot;:true,&quot;fillColor&quot;:[0,0,0,1],&quot;strokeColor&quot;:[0,0,0],&quot;strokeWidth&quot;:0.4}]}" fill="#000000" stroke-width="0.2"/></g><g stroke-width="0.4"><path d="M238.65742,204.31173c0.00096,-0.00003 7.19964,-3.07082 16.82659,6.45389c0,0 -5.4171,2.6138 -10.77034,1.61832c-5.35415,-0.9955 -7.09977,-2.31484 -9.02318,-1.14407c0,0 -1.11163,-1.9825 2.33998,-3.48411c0,0 -1.23973,-2.39375 0.62696,-3.44402z" fill="#ba2915"/><g fill="#871212"><path d="M248.92044,205.83945c-2.36185,2.37414 -1.47514,6.7713 -1.47514,6.7713l-0.85085,0.02038c-1.19489,-5.17871 1.53631,-7.22018 1.53631,-7.22018z"/><path d="M245.1021,204.27558c0,0 -2.36543,1.98826 -1.77823,7.58545l-1.0739,-0.24858c0,0 -0.62936,-4.5935 1.604,-7.63236z"/><path d="M252.04334,207.78891c-0.84274,0.59533 -1.23455,4.45746 -1.23455,4.45746l-0.60746,0.11012c-0.54032,-2.80972 1.17848,-5.09747 1.17848,-5.09747z"/><path d="M237.4226,210.69136c-0.00095,0.00002 -0.11252,-2.20891 1.31085,-3.24756c0.06042,-0.16227 0.07667,-2.72141 0.6697,-3.35611l1.34341,-0.22803c0,0 -1.33622,1.27781 -0.97052,3.4343c0,0 -1.59435,1.48169 -1.35985,3.37359z"/></g><path d="M235.39748,209.78824c0.28254,-0.84107 1.06175,-1.5635 2.31714,-2.14884c-0.4148,-0.96627 -0.67924,-2.68624 0.84963,-3.54487c0.04401,-0.0181 1.06297,-0.44454 2.84124,-0.48714c3.19827,-0.07663 8.26382,1.07428 14.24484,6.99061l0.23831,0.23548l-0.30202,0.14535c-0.0365,0.01792 -3.69897,1.76196 -7.93334,1.86341c-1.04183,0.02496 -2.04442,-0.05033 -2.98315,-0.22459c-1.80913,-0.33689 -3.21332,-0.71094 -4.34146,-1.01214c-2.18868,-0.58421 -3.372,-0.85759 -4.51411,-0.16334l-0.20981,0.12703l-0.11955,-0.21375c-0.01581,-0.02803 -0.38083,-0.69463 -0.08771,-1.5672zM235.84822,209.92785c-0.13957,0.41198 -0.09435,0.75994 -0.03627,0.97331c1.19898,-0.61144 2.46756,-0.33252 4.6372,0.24646c1.11955,0.29855 2.51427,0.67097 4.30625,1.00356c0.9055,0.16843 1.87779,0.24161 2.88557,0.21746c3.42703,-0.08211 6.47197,-1.26745 7.42887,-1.67726c-5.75366,-5.58879 -10.59282,-6.68552 -13.65401,-6.61218c-1.66386,0.03987 -2.63905,0.43781 -2.64281,0.4379c-1.35431,0.76174 -0.87125,2.32704 -0.63223,2.90779c0.56666,-0.19708 1.93133,-0.44639 3.85867,0.67848c0,0 -2.00721,-0.94511 -4.05054,-0.04201c-1.12541,0.52264 -1.85834,1.1626 -2.10067,1.86649z" fill="#000000"/></g><g stroke-width="0.4"><path d="M267.32281,206.40409c0.80166,1.39965 -0.66372,1.90777 -0.66372,1.90777c-18.24947,5.69941 -20.50967,0.19623 -22.97226,-2.34605c-2.46073,-2.54233 -5.02752,-1.65316 -5.02752,-1.65316c-1.51431,-3.98392 2.75062,-6.08672 2.75062,-6.08672l0.02902,1.21104c11.7347,8.62567 21.75471,-0.02842 21.75209,-0.13807c-0.00263,-0.1097 1.07189,0.32146 1.6882,1.36993c0.61635,1.04842 -0.54415,1.96353 -0.54415,1.96353c-0.15226,1.06779 2.18611,2.37203 2.98772,3.77173z" fill="#ba2915"/><g fill="#871212"><path d="M262.10099,200.15267c0,0 1.62564,0.53619 0.86119,3.1747c0,0 0.09444,1.49419 1.30594,2.70719c1.21144,1.21295 1.20338,2.0995 1.42172,2.56723l-1.87997,0.49628c0,0 -0.12796,-1.63053 -0.91757,-2.52732c-0.78956,-0.89673 -0.96222,-2.21971 -1.05393,-2.8106c-0.09171,-0.5909 0.70151,-2.02882 -0.59244,-2.97306z"/><path d="M258.96928,201.93887c-0.02294,-0.24536 0.5956,1.01305 0.43898,2.68824c-0.15661,1.67519 0.86781,2.50485 1.27917,3.60453c0.41131,1.09974 0.47665,1.57589 0.47665,1.57589l-1.37111,0.29677c0,0 -0.71253,-2.37994 -1.30337,-3.35142c-0.59083,-0.97153 -0.29909,-1.94148 -0.32246,-2.91708c-0.02338,-0.97565 -0.33904,-1.39944 -0.33904,-1.39944z"/><path d="M255.29728,202.97185c0.00179,0.07471 0.71268,1.79156 0.36093,3.53388c-0.3518,1.74231 0.75348,3.89238 0.75348,3.89238l-1.31765,0.1186c0,0 -0.84498,-1.98514 -0.69058,-3.75297c0.15439,-1.76784 0.19697,-2.31846 -0.11823,-3.63234z"/><path d="M251.66668,203.20264c0,0 -0.8273,2.50291 -0.03495,4.70116c0,0 -0.61799,1.32872 0.4787,2.68538l-0.70812,0.01696c0,0 -1.05642,-0.86106 -0.80119,-2.52536c0,0 -1.22907,-1.04041 -0.16911,-4.84762l1.2347,-0.02959z"/><path d="M247.76509,202.62546c0,0 -1.74031,2.2987 -0.82198,5.33107c0,0 -0.20563,0.458 0.22779,1.25548l-1.04129,-0.66467c0,0 -0.25301,-0.53121 -0.19519,-0.72461c0.05777,-0.19342 -1.13798,-1.6981 0.47847,-5.61325z"/><path d="M243.58064,200.8632c0,0 -1.64549,1.24167 -1.1639,4.08781l-1.05789,-0.56589c0,0 -0.07126,-2.97415 1.34263,-4.01263z"/><path d="M241.20538,199.55794c0,0 -2.75098,0.93807 -2.43659,4.34911l-0.00449,0.36525c0,0 -2.03531,-3.14567 2.64681,-5.95751z"/></g><path d="M238.43805,204.39644c-1.57287,-4.1376 2.82256,-6.36087 2.86646,-6.3837l0.33188,-0.16402l0.03509,1.46441c3.50138,2.54765 7.18825,3.79404 10.96222,3.70362c5.91338,-0.14168 9.89975,-3.44769 10.33054,-3.82596l0.01272,-0.14127l0.23634,-0.00565c0.28172,-0.00675 1.28741,0.51214 1.86925,1.50369c0.52856,0.89923 -0.0456,1.76905 -0.49739,2.17903l0.00807,0.02062c-0.00832,0.00682 -0.0177,0.01085 -0.02607,0.01768c0.02869,0.4855 0.71381,1.12936 1.38051,1.75379c0.60094,0.56355 1.22217,1.14551 1.57951,1.76793c0.27842,0.48616 0.34309,0.93674 0.19293,1.33955c-0.24183,0.64525 -0.95371,0.89877 -0.99129,0.91102c-5.05316,1.57779 -9.30293,2.4184 -12.6326,2.49817c-6.19038,0.14832 -8.31331,-2.31035 -9.86226,-4.1055c-0.24707,-0.28543 -0.48063,-0.55699 -0.71726,-0.80009c-1.42482,-1.4718 -2.87792,-1.75388 -3.84505,-1.7307c-0.56909,0.01364 -0.93321,0.13588 -0.93695,0.13693l-0.21579,0.07419l-0.08081,-0.21372zM241.18296,198.623c-0.92956,0.56525 -3.38496,2.39107 -2.37629,5.40428c0.71878,-0.1629 2.96393,-0.38128 5.04931,1.77278c0.24246,0.24958 0.48179,0.52762 0.73476,0.82044c0.23352,0.26971 0.47667,0.54856 0.73878,0.82892c4.34885,1.32038 8.56219,-0.2515 8.56219,-0.2515c-2.95973,1.77927 -6.7527,1.11623 -7.98832,0.83085c1.49115,1.39643 3.70985,2.64108 8.18151,2.53393c3.28521,-0.07872 7.49167,-0.91166 12.49507,-2.47407c0.00563,-0.00204 0.53641,-0.1945 0.69811,-0.63159c0.09773,-0.2634 0.04384,-0.57805 -0.16052,-0.93544c-0.3218,-0.56081 -0.91693,-1.11883 -1.49268,-1.65749c-0.67057,-0.62905 -1.30454,-1.22963 -1.47864,-1.82332c-1.32105,0.76762 -2.91703,0.7595 -2.91703,0.7595c1.65958,-0.45694 2.49231,-0.95743 2.87955,-1.25805l0.00478,-0.03699l0.07429,-0.05856c0.04081,-0.03219 0.99009,-0.80219 0.48714,-1.65853c-0.47538,-0.81061 -1.23212,-1.20489 -1.42174,-1.26375c-0.88772,0.88961 -5.08526,3.83271 -10.60722,3.96502c-3.91294,0.09375 -7.73162,-1.20622 -11.3482,-3.86367l-0.09245,-0.06877l-0.02239,-0.93403z" fill="#000000"/></g></g><g data-paper-data="{&quot;index&quot;:null}" stroke="#000000" stroke-width="0.90024" stroke-linecap="round" stroke-linejoin="round"><path d="M294.62487,182.97854l-0.66162,1.49857c-3.60648,7.54752 -8.18301,11.68243 -8.18301,11.68243c0,0 0.2669,-1.37888 0.37275,-3.62125l-0.12723,-0.05668c-0.47681,1.14541 -1.22522,2.61145 -2.41511,4.40029c-2.60987,3.92866 -9.55282,6.82539 -9.55282,6.82539c0,0 0.53181,-1.38116 0.98431,-3.67587l-0.0637,-0.36215c-0.76764,0.49518 -1.55844,0.94316 -2.35618,1.37702c-0.23481,0.12862 -0.46921,0.25356 -0.70693,0.3737c-0.72383,0.37059 -1.45856,0.7203 -2.20539,1.0419c-0.29494,0.12531 -0.59986,0.23904 -0.89796,0.35776c-0.54387,0.21752 -1.09382,0.41999 -1.65107,0.61382c-0.40917,0.14016 -0.82097,0.27929 -1.23906,0.40606c-0.43302,0.13375 -0.87628,0.24939 -1.31737,0.37163c-0.81027,0.21596 -1.63063,0.41222 -2.46731,0.58634c-0.27296,0.0567 -0.54602,0.11338 -0.82312,0.16432c-0.59551,0.11116 -1.19529,0.21825 -1.80425,0.30661l0.00164,0.00194c-3.0575,0.44858 -6.27757,0.63874 -9.70154,0.56433c-3.70426,-0.08144 -7.04208,-0.39703 -10.14411,-0.87456v0c-2.45447,-0.37914 -4.74073,-0.86807 -6.89543,-1.45078c-0.10426,-0.02767 -0.20944,-0.05631 -0.3146,-0.08405c-0.66574,-0.18481 -1.32005,-0.37669 -1.9608,-0.57827c-0.22348,-0.07204 -0.43674,-0.14763 -0.65908,-0.22128c-0.85037,-0.27869 -1.67477,-0.57517 -2.48631,-0.88504c-0.51295,-0.19634 -1.0221,-0.39607 -1.51868,-0.60459c-0.29524,-0.12127 -0.59099,-0.24721 -0.8795,-0.37334c-0.78762,-0.34761 -1.5677,-0.699 -2.32168,-1.07089l-0.14638,0.11874c0.11841,2.13193 0.75045,3.32653 1.28587,3.915c1.09127,1.20132 3.34719,1.65339 3.34719,1.65339c0,0 -7.04391,0.39326 -10.38651,-5.29874c-0.35511,-0.60503 -0.71208,-1.23108 -1.04521,-1.89399l-0.13593,-0.3745c-0.80056,-0.34407 -1.60431,-0.77972 -2.38864,-1.31952c-4.78059,-3.31235 -5.21215,-5.75129 -5.21215,-5.75129l0.03194,0.88342c0.29337,2.32004 0.64515,3.79831 0.64515,3.79831c0,0 -5.69327,-4.30539 -7.89465,-10.22909c-1.77439,-4.78153 -1.71319,-7.58315 -1.68845,-8.05271l-0.0622,-1.69083c0.41702,-6.56617 1.43792,-13.88502 2.94235,-21.0434l0.0717,-0.18819c1.26956,-5.52476 1.26396,-14.85354 9.47422,-23.71333c15.38472,-16.59754 29.53643,-14.79497 39.12655,-27.21002c7.05422,-9.13348 6.37339,-20.34062 6.37339,-20.34062c0,0 3.37895,5.74471 4.64178,9.05801c1.22114,3.22844 2.46786,7.36244 2.46786,7.36244l0.05397,-0.02982c0.04472,-0.11378 0.08606,-0.23044 0.12292,-0.34748c0.5723,-1.82312 0.63643,-4.58395 0.63643,-4.58395c0,0 2.75962,11.01115 8.07155,18.52243c5.30863,7.5075 13.66039,10.22347 22.41096,35.14695c1.08939,3.09733 2.12395,5.71403 2.55717,8.5552l0.16767,1.62828c0.51947,5.08783 -1.00423,18.89695 -3.47339,24.71194zM227.68753,153.69871c0,0 -7.57104,6.65562 -7.95214,16.76424c-0.3372,8.94414 1.74238,11.88919 2.92915,12.68203c1.22058,0.81102 3.2389,0.5594 3.2389,0.5594c0,0 -5.85856,2.50305 -10.0957,-1.91032c-2.83426,-2.95023 -5.87337,-6.70448 -5.98723,-16.58779M284.32504,174.58479c0,0 0.6589,2.55013 -1.88338,7.55314c-2.86069,5.63682 -8.02002,7.02385 -8.02002,7.02385c0,0 4.91192,-8.64194 2.12479,-17.38522c-1.21604,-3.81976 -5.69105,-6.96291 -10.43979,-9.31499c-6.43505,-3.18942 -13.37187,-4.92462 -13.37187,-4.92462M286.06441,192.38641c-0.47442,1.16006 -1.23477,2.66213 -2.45945,4.49865c-2.60897,3.92874 -9.55193,6.82546 -9.55193,6.82546c0,0 1.54691,-4.03001 1.61153,-9.75116M210.63679,172.5501c-0.78949,1.21154 -1.42866,2.52764 -1.8428,3.93939c-2.59542,8.80094 -0.1665,18.93625 -0.1665,18.93625c0,0 -5.69161,-4.30355 -7.89464,-10.22919c-1.95231,-5.25888 -1.68261,-8.12267 -1.68261,-8.12267M293.95823,184.48302c-3.60827,7.54737 -8.18391,11.68236 -8.18391,11.68236c0,0 1.52732,-7.83302 -1.26701,-16.5778c-0.12596,-0.39534 -0.27354,-0.78166 -0.43269,-1.1581M252.73569,157.53702c0,0 1.1651,0.41523 4.09977,3.17967c2.93476,2.76444 3.86332,5.59086 3.86332,5.59086c0,0 -9.07762,-3.21919 -14.06213,-5.49611c-4.97898,-2.27827 -21.9079,-8.441 -21.9079,-8.441M220.23831,192.30052c2.18648,4.16276 4.62492,6.53166 4.62492,6.53166c0,0 -6.31609,1.39255 -11.70083,-2.33518c-4.7806,-3.31225 -5.21215,-5.75129 -5.21215,-5.75129M274.9717,199.67414c-7.06211,4.55175 -15.32083,6.38206 -25.1624,6.16775c-11.73329,-0.25558 -20.12351,-2.67302 -27.1775,-6.14258M222.4681,199.15982c0.00975,2.54653 0.71314,3.92511 1.30162,4.57038c1.09217,1.20139 3.34809,1.65347 3.34809,1.65347c0,0 -7.0457,0.39311 -10.38741,-5.29882c-0.35511,-0.60503 -0.71208,-1.23108 -1.04521,-1.89399M253.38444,157.89291c0,0 25.16749,5.22333 24.00936,19.10089" fill="#be1e2d"/><path d="M281.87657,183.41064c-1.78121,9.90137 -14.12352,19.35678 -30.99596,18.93704c-14.89626,-0.36239 -36.24595,-8.85615 -38.40015,-21.39584c-0.21285,-1.25997 -0.28115,-2.46532 -0.23136,-3.61386l0.30246,0.26196c0.98754,1.74096 2.13627,3.03287 3.25603,4.19592c4.23729,4.41157 10.09585,1.90853 10.09585,1.90853c0,0 -2.01847,0.25341 -3.23905,-0.55761c-1.18677,-0.79284 -3.26636,-3.73789 -2.92915,-12.68203c0.38125,-10.11042 7.95214,-16.76424 7.95214,-16.76424l0.04353,-0.22947c5.09354,1.87951 15.238,5.66207 18.90394,7.34026c4.98443,2.27782 14.06213,5.49611 14.06213,5.49611c0,0 -0.92856,-2.82641 -3.86332,-5.59086c-1.46909,-1.38277 -2.49316,-2.17738 -3.14944,-2.62692l0.6375,0.15525c0,0 19.36213,4.53375 22.22653,13.53183c2.78615,8.7441 -2.12389,17.38529 -2.12389,17.38529c0,0 4.39337,-1.18262 7.31463,-5.79084z" fill="#e6e7e8"/></g><g data-paper-data="{&quot;index&quot;:null}" stroke-linejoin="miter"><path d="M206.27546,161.92879c-1.23075,12.9202 -3.88224,23.23656 -9.19693,22.73029c-5.3147,-0.50627 -12.27552,-11.73828 -11.04476,-24.65848c1.23075,-12.9202 10.18704,-22.63599 15.50173,-22.12971c5.3147,0.50627 5.97072,11.13769 4.73997,24.0579z" fill="url(#color-1)" stroke="#000000" stroke-width="0.90024" stroke-linecap="butt"/><path d="M196.12485,143.08788l-2.36068,2.63576" fill="none" stroke="#ea42a4" stroke-width="2" stroke-linecap="round"/><path d="M200.0446,151.02989l3.39961,-0.05107" fill="none" stroke="#ea42a4" stroke-width="2" stroke-linecap="round"/><path d="M195.12329,156.30441l-0.57289,1.80881" fill="none" stroke="#ea42a4" stroke-width="2" stroke-linecap="round"/><path d="M192.26784,165.9484l1.43589,2.3787" fill="none" stroke="#ea42a4" stroke-width="2" stroke-linecap="round"/><path d="M201.38098,173.41233l1.59982,-0.02404" fill="none" stroke="#ea42a4" stroke-width="2" stroke-linecap="round"/><path d="M195.09587,181.10762l-1.80581,-0.37292" fill="none" stroke="#ea42a4" stroke-width="2" stroke-linecap="round"/><path d="M190.16422,172.38072l-1.03895,-2.58469" fill="none" stroke="#ea42a4" stroke-width="2" stroke-linecap="round"/><path d="M189.57799,159.98813l-1.22991,-1.98175" fill="none" stroke="#ea42a4" stroke-width="2" stroke-linecap="round"/><path d="M190.83362,150.36818l-0.02404,-1.59982" fill="none" stroke="#ea42a4" stroke-width="2" stroke-linecap="round"/><path d="M201.3513,144.80955l2.75763,-2.84175" fill="none" stroke="#ea42a4" stroke-width="2" stroke-linecap="round"/></g><g data-paper-data="{&quot;index&quot;:null}" stroke-linejoin="miter"><path d="M300.471,144.47628c5.2951,0.68132 11.88161,12.13683 10.22532,25.00941c-1.6563,12.87258 -10.9282,22.28761 -16.22331,21.6063c-5.2951,-0.68132 -5.60007,-11.3286 -3.94377,-24.20117c1.6563,-12.87258 4.64666,-23.09585 9.94176,-22.41453z" fill="url(#color-2)" stroke="#000000" stroke-width="0.90025" stroke-linecap="butt"/><path d="M306.31379,153.85289l-1.71949,-3.09246" fill="none" stroke="#ea42a4" stroke-width="2" stroke-linecap="round"/><path d="M295.71142,156.83781l3.30419,0.80145" fill="none" stroke="#ea42a4" stroke-width="2" stroke-linecap="round"/><path d="M302.80775,165.76202l-0.15879,-1.8907" fill="none" stroke="#ea42a4" stroke-width="2" stroke-linecap="round"/><path d="M303.3015,173.90797l-1.92629,2.00236" fill="none" stroke="#ea42a4" stroke-width="2" stroke-linecap="round"/><path d="M292.76363,179.17231l-1.55491,-0.37716" fill="none" stroke="#ea42a4" stroke-width="2" stroke-linecap="round"/><path d="M299.03536,188.10234l-1.84357,-0.03557" fill="none" stroke="#ea42a4" stroke-width="2" stroke-linecap="round"/><path d="M305.51557,178.35519l-1.58469,2.29102" fill="none" stroke="#ea42a4" stroke-width="2" stroke-linecap="round"/><path d="M308.88018,167.02914l-1.63762,1.66078" fill="none" stroke="#ea42a4" stroke-width="2" stroke-linecap="round"/><path d="M308.52209,157.47551l-0.37716,1.55492" fill="none" stroke="#ea42a4" stroke-width="2" stroke-linecap="round"/><path d="M297.05544,147.90282l2.06108,3.38112" fill="none" stroke="#ea42a4" stroke-width="2" stroke-linecap="round"/></g><path d="M247.26776,193.14396c-5.62198,1.10138 -7.21284,-7.2774 -7.21284,-7.2774c0,0 0.9737,-1.49728 5.1147,-2.34041c4.14026,-0.83892 7.31003,-0.70587 7.31003,-0.70587c0,0 0.40544,9.2249 -5.21189,10.3237z" data-paper-data="{&quot;index&quot;:null}" fill="#58595b" stroke="#231f20" stroke-width="0.9025" stroke-linecap="round" stroke-linejoin="miter"/><g stroke-linejoin="miter"><g stroke-linecap="butt"><g stroke="#000000" stroke-width="1"><path d="M251.56209,213.14454h55.67854v24.113h-55.67854z" fill="url(#color-3)"/><path d="M256.5013,208.72383h55.67854l-4.93922,4.42072h-55.67855z" fill="#9966ff"/><path d="M307.4912,213.1176l4.71472,-4.21977l-0.67354,24.51489l-4.49021,3.91836z" fill="url(#color-4)"/></g><path d="M304.73979,213.99646c0.44092,0 0.79835,0.15996 0.79835,0.35728c0,0.19732 -0.35743,0.35727 -0.79835,0.35727c-0.44092,0 -0.79836,-0.15995 -0.79836,-0.35727c0,-0.19732 0.35744,-0.35728 0.79836,-0.35728z" fill="#b9b9b9" stroke="none" stroke-width="0.5"/><path d="M304.38497,235.9091c0.44092,0 0.79835,0.15995 0.79835,0.35727c0,0.19732 -0.35743,0.35727 -0.79835,0.35727c-0.44092,0 -0.79836,-0.15995 -0.79836,-0.35727c0,-0.19732 0.35744,-0.35727 0.79836,-0.35727z" fill="#b9b9b9" stroke="none" stroke-width="0.5"/><path d="M253.46788,236.22667c0.44091,0 0.79835,0.15996 0.79835,0.35727c0,0.19732 -0.35744,0.35727 -0.79835,0.35727c-0.44091,0 -0.79835,-0.15995 -0.79835,-0.35727c0,-0.19732 0.35744,-0.35727 0.79835,-0.35727z" fill="#b9b9b9" stroke="none" stroke-width="0.5"/><path d="M252.93564,213.83767c0.44091,0 0.79835,0.15995 0.79835,0.35727c0,0.19732 -0.35744,0.35727 -0.79835,0.35727c-0.44091,0 -0.79835,-0.15995 -0.79835,-0.35727c0,-0.19732 0.35744,-0.35727 0.79835,-0.35727z" fill="#b9b9b9" stroke="none" stroke-width="0.5"/></g><g stroke="#000000" stroke-width="1" stroke-linecap="butt"><path d="M256.16442,225.14221c0,-5.20726 4.22132,-9.42857 9.42857,-9.42857c5.20725,0 9.42857,4.22132 9.42857,9.42857c0,5.20726 -4.22132,9.42857 -9.42857,9.42857c-5.20725,0 -9.42857,-4.22132 -9.42857,-9.42857z" fill="#8499b1"/><path d="M259.39707,225.54629c0,-3.04996 2.47248,-5.52245 5.52245,-5.52245c3.04996,0 5.52245,2.47249 5.52245,5.52245c0,3.04996 -2.47249,5.52244 -5.52245,5.52244c-3.04996,0 -5.52245,-2.47248 -5.52245,-5.52244z" fill="#92c5ff"/></g><g stroke="#000000" stroke-width="1" stroke-linecap="butt"><path d="M280.16442,225.17792c0,-5.20726 4.22132,-9.42857 9.42857,-9.42857c5.20725,0 9.42857,4.22132 9.42857,9.42857c0,5.20726 -4.22132,9.42857 -9.42857,9.42857c-5.20725,0 -9.42857,-4.22132 -9.42857,-9.42857z" fill="#8499b1"/><path d="M283.39707,225.58201c0,-3.04996 2.47249,-5.52245 5.52245,-5.52245c3.04996,0 5.52245,2.47249 5.52245,5.52245c0,3.04996 -2.47249,5.52245 -5.52245,5.52245c-3.04996,0 -5.52245,-2.47248 -5.52245,-5.52245z" fill="#92c5ff"/></g><path d="M299.73584,210.8184l4,-18.57143" fill="none" stroke="#000000" stroke-width="2" stroke-linecap="round"/></g><g data-paper-data="{&quot;index&quot;:null}" stroke="#001026" stroke-width="0.9" stroke-linejoin="miter"><g><path d="M234.77445,211.04073c0,0 -2.01837,0.62655 -2.85031,0.4489c-0.78435,-0.16749 -2.0069,-1.48613 -2.0069,-1.48613l-0.31233,-14.59782l8.97702,0.96699z" fill="#505a63" stroke-linecap="butt"/><path d="M239.19039,195.4958c-0.29726,2.75957 -2.77531,4.75569 -5.53488,4.45843c-2.75958,-0.29725 -4.75568,-2.77532 -4.45842,-5.53489c0.29726,-2.75957 2.77531,-4.75567 5.53488,-4.45841c2.75957,0.29726 4.75567,2.77532 4.45842,5.53489z" fill="url(#color-5)" stroke-linecap="butt"/><path d="M236.87642,190.94456c0,0 0.27109,2.66484 0.10796,4.03306c-0.17454,1.46395 -1.12329,4.48288 -1.12329,4.48288" fill="none" stroke-linecap="round"/><path d="M232.88304,190.71043c0,0 0.1225,1.82731 -0.10254,2.93102c-0.3046,1.49381 -1.5597,5.22117 -1.5597,5.22117" fill="none" stroke-linecap="round"/><path d="M229.93006,192.64667c0,0 3.4377,0.08595 4.86078,0.57043c1.63575,0.55686 4.40488,2.58398 4.40488,2.58398" fill="none" stroke-linecap="round"/><path d="M229.05649,195.29698c0,0 2.50508,0.56992 3.69286,1.11329c1.52796,0.69902 4.71418,2.73274 4.71418,2.73274" fill="none" stroke-linecap="round"/></g><path d="M228.41091,204.9919c0.20378,-1.8398 1.82659,-2.9931 3.62469,-2.57599c1.79809,0.41711 3.17978,2.78475 2.976,4.62454c-0.20377,1.8398 -1.91584,2.45504 -3.71393,2.03793c-1.7981,-0.41711 -3.09053,-2.24669 -2.88676,-4.08648z" fill="#be1e2d" stroke-linecap="butt"/></g><path d="M228.58939,175.55925c0.00178,-0.23956 -1.96051,-4.59691 -1.90051,-4.91347c0.1537,-0.81118 2.16265,0.67312 2.16265,0.67312l5.55555,3.12773c0,0 0.08885,0.41105 0.08358,1.12212c-0.02492,3.37117 -1.36617,6.10192 -2.99576,6.09929c-1.62959,-0.00263 -2.93045,-2.73763 -2.90552,-6.10881z" data-paper-data="{&quot;index&quot;:null}" fill="#231f20" stroke="#000000" stroke-width="1" stroke-linecap="butt" stroke-linejoin="miter"/><path d="M260.74401,178.99038c-0.58461,3.3202 -2.35823,5.77514 -3.96148,5.48327c-1.60324,-0.29185 -2.429,-3.22001 -1.84438,-6.54019c0.12331,-0.70032 0.28497,-1.08855 0.28497,-1.08855l6.02925,-2.07243c0,0 2.24406,-1.09687 2.24867,-0.27127c0.00181,0.32219 -2.7155,4.25325 -2.75703,4.48919z" data-paper-data="{&quot;index&quot;:null}" fill="#231f20" stroke="#000000" stroke-width="1" stroke-linecap="butt" stroke-linejoin="miter"/></g></g></svg>