<svg version="1.1" xmlns="http://www.w3.org/2000/svg" xmlns:xlink="http://www.w3.org/1999/xlink" width="136.00583" height="243.73525" viewBox="0,0,136.00583,243.73525"><g transform="translate(-165.76536,-85.98888)"><g data-paper-data="{&quot;isPaintingLayer&quot;:true}" fill-rule="nonzero" stroke-miterlimit="10" stroke-dasharray="" stroke-dashoffset="0" style="mix-blend-mode: normal"><g stroke-linecap="butt" stroke-linejoin="miter"><g fill="#686868" stroke="#000000" stroke-width="1"><path d="M195.90828,328.91508v-104.61283h101.23822v104.61283z"/><path d="M177.34795,319.63494v-104.61283l18.56034,9.28017v104.61283z"/><path d="M195.79516,223.83145l-17.71669,-8.85834l102.92552,1.26548l16.45121,8.43652z"/></g><path d="M199.48505,229.00102c0,-0.82843 0.67157,-1.5 1.5,-1.5c0.82843,0 1.5,0.67157 1.5,1.5c0,0.82843 -0.67157,1.5 -1.5,1.5c-0.82843,0 -1.5,-0.67157 -1.5,-1.5z" fill="#b9b9b9" stroke="none" stroke-width="0.5"/><path d="M291.48505,229.66768c0,-0.82843 0.67158,-1.5 1.5,-1.5c0.82842,0 1.5,0.67157 1.5,1.5c0,0.82843 -0.67158,1.5 -1.5,1.5c-0.82842,0 -1.5,-0.67157 -1.5,-1.5z" fill="#b9b9b9" stroke="none" stroke-width="0.5"/><path d="M292.81838,325.33435c0,-0.82842 0.67158,-1.5 1.5,-1.5c0.82842,0 1.5,0.67158 1.5,1.5c0,0.82842 -0.67158,1.5 -1.5,1.5c-0.82842,0 -1.5,-0.67158 -1.5,-1.5z" fill="#b9b9b9" stroke="none" stroke-width="0.5"/><path d="M198.81838,326.33435c0,-0.82842 0.67157,-1.5 1.5,-1.5c0.82843,0 1.5,0.67158 1.5,1.5c0,0.82842 -0.67157,1.5 -1.5,1.5c-0.82843,0 -1.5,-0.67158 -1.5,-1.5z" fill="#b9b9b9" stroke="none" stroke-width="0.5"/></g><path d="M229.92995,212.51409c0.94883,-1.59074 3.44796,-3.2562 4.79668,-2.22718c1.26793,0.96706 1.02462,2.31141 1.02462,2.31141c-0.23724,1.55503 -0.54756,4.43124 -1.11806,6.27804c-0.10188,0.32618 -0.20862,0.62665 -0.32001,0.92445l0.01177,-0.01479c0,0 1.15489,1.86407 0.23527,2.36808c-0.55404,0.30477 -1.15109,0.17604 -1.5428,0.03366c-0.73641,0.89697 -1.60161,1.33834 -2.62486,1.16987c-2.39482,-0.39331 -2.68155,-4.83136 -2.68155,-4.83136c-0.02181,-1.13536 1.27012,-4.42143 2.21895,-6.01217v0v0v0v0v0z" data-paper-data="{&quot;index&quot;:null}" fill="#be1e2d" stroke="#231f20" stroke-width="0.78673" stroke-linecap="round" stroke-linejoin="round"/><g stroke-width="0.90025"><path d="M248.80564,209.77382v0v0v0v0v0c0.29641,2.81662 -0.58782,7.94317 -3.8716,9.61738c-3.24782,1.65232 -6.60251,1.27091 -9.98999,-1.25629c-2.80661,-2.0946 -2.4991,-7.73294 -2.06356,-10.87637v0c0,0 0.32818,-7.30075 6.51119,-7.9407c6.18111,-0.63993 8.79753,5.08317 9.12478,8.59842c0.12338,0.62156 0.22455,1.25479 0.28917,1.85755z" fill="#be1e2d" stroke="#000000" stroke-linecap="butt" stroke-linejoin="miter"/><path d="M246.77236,217.72349v0v0v0v0v0l-0.02133,0.14233c-0.49889,0.63131 -1.1014,1.15915 -1.81601,1.52363c-3.00838,1.53081 -6.10712,1.31706 -9.23995,-0.73177l-0.02719,-0.14528c0,0 -1.30958,-9.3578 4.62806,-9.52238c6.74216,-0.18375 6.58429,7.18195 6.47642,8.73348z" fill="#e6e7e8" stroke="#231f20" stroke-linecap="round" stroke-linejoin="round"/></g><g stroke="#000000" stroke-width="0.90025" stroke-linecap="round" stroke-linejoin="round"><path d="M284.88534,179.34826l-0.41927,1.58356c-2.38253,8.01843 -6.25657,12.81782 -6.25657,12.81782c0,0 0.04811,-1.40365 -0.19781,-3.635l-0.13452,-0.0361c-0.29193,1.20586 -0.80201,2.77085 -1.6977,4.72368c-1.96377,4.28829 -8.36866,8.23455 -8.36866,8.23455c0,0 0.30941,-1.44731 0.3977,-3.78454l-0.11952,-0.34774c-0.68081,0.60907 -1.39188,1.17515 -2.11201,1.72835c-0.21183,0.16373 -0.42382,0.32378 -0.63983,0.4796c-0.65702,0.47916 -1.32805,0.93941 -2.01545,1.37378c-0.27173,0.16987 -0.55512,0.32986 -0.83101,0.49371c-0.5032,0.29985 -1.01474,0.58578 -1.53484,0.86433c-0.38224,0.20239 -0.76723,0.40417 -1.16037,0.59473c-0.4068,0.19978 -0.82653,0.38328 -1.2431,0.57296c-0.76656,0.33994 -1.54617,0.662 -2.34535,0.96476c-0.26075,0.09866 -0.52159,0.19733 -0.78732,0.29094c-0.57082,0.20287 -1.14649,0.40238 -1.73415,0.58483l0.00193,0.00166c-2.94981,0.92093 -6.10059,1.61203 -9.49411,2.07368c-3.67146,0.4985 -7.01758,0.70848 -10.15613,0.72164v0c-2.48357,0.00914 -4.81815,-0.11646 -7.03744,-0.35524c-0.10731,-0.01104 -0.21567,-0.02288 -0.32387,-0.03386c-0.68644,-0.07848 -1.3627,-0.16574 -2.02708,-0.26471c-0.232,-0.03622 -0.45444,-0.07756 -0.68556,-0.11555c-0.88347,-0.14235 -1.74408,-0.30635 -2.59408,-0.48557c-0.53733,-0.11376 -1.07145,-0.23146 -1.59451,-0.3598c-0.31056,-0.07364 -0.62236,-0.1518 -0.92704,-0.23129c-0.83227,-0.22024 -1.65769,-0.44539 -2.46052,-0.69486l-0.12602,0.14016c0.45016,2.08722 1.26114,3.16836 1.88195,3.66592c1.26562,1.01599 3.56447,1.10993 3.56447,1.10993c0,0 -6.89588,1.48934 -11.08703,-3.61029c-0.44531,-0.5421 -0.89574,-1.10466 -1.32838,-1.70735l-0.19279,-0.34866c-0.84449,-0.21472 -1.70646,-0.5194 -2.56551,-0.92997c-5.23954,-2.52447 -6.04699,-4.86599 -6.04699,-4.86599l0.16962,0.86757c0.65237,2.24567 1.23087,3.6508 1.23087,3.6508c0,0 -6.2962,-3.36266 -9.39636,-8.8695c-2.49991,-4.44544 -2.87733,-7.22219 -2.92629,-7.68986l-0.3257,-1.66033c-0.61435,-6.55065 -0.74988,-13.93912 -0.38274,-21.24466l0.0414,-0.19708c0.39047,-5.65528 -1.07307,-14.86854 5.65157,-24.90266c12.60157,-18.79809 26.8611,-19.22949 34.39297,-32.99084c5.54002,-10.12376 3.11597,-21.08677 3.11597,-21.08677c0,0 4.23528,5.146 6.00044,8.22122c1.71071,2.99791 3.58823,6.88625 3.58823,6.88625l0.04865,-0.03788c0.02638,-0.11936 0.04899,-0.24106 0.06711,-0.36242c0.28032,-1.89016 -0.08784,-4.62709 -0.08784,-4.62709c0,0 4.44667,10.44452 10.86729,17.03328c6.41676,6.58553 15.09037,7.96282 27.62876,31.21234c1.56009,2.889 2.99091,5.31185 3.86286,8.05039l0.42009,1.58207c1.30828,4.94411 1.96157,18.82167 0.4316,24.95112zM214.19439,160.89008c0,0 -6.43777,7.75712 -5.23428,17.80108c1.06484,8.88693 3.57916,11.47076 4.87527,12.06838c1.33234,0.61028 3.28653,0.04631 3.28653,0.04631c0,0 -5.39536,3.38794 -10.2702,-0.30896c-3.26053,-2.471 -6.84906,-5.70412 -8.50621,-15.44817M273.40022,172.66745c0,0 1.04937,2.41581 -0.67973,7.75467c-1.94454,6.01465 -6.82368,8.191 -6.82368,8.191c0,0 3.50088,-9.30343 -0.61851,-17.50366c-1.7981,-3.58276 -6.70937,-5.98788 -11.76736,-7.56885c-6.85445,-2.14447 -13.97722,-2.77417 -13.97722,-2.77417M277.90047,189.97844c-0.28728,1.21996 -0.80353,2.8224 -1.72611,4.82775c-1.96287,4.28822 -8.36777,8.23448 -8.36777,8.23448c0,0 0.89804,-4.22225 0.06769,-9.8832M200.29954,182.17471c-0.59044,1.32004 -1.01605,2.71987 -1.20445,4.17899c-1.18799,9.09843 2.79515,18.72956 2.79515,18.72956c0,0 -6.29428,-3.3611 -9.39638,-8.8696c-2.75024,-4.88912 -2.93145,-7.75987 -2.93145,-7.75987M284.46205,180.93843c-2.38433,8.01856 -6.25746,12.81788 -6.25746,12.81788c0,0 0.2843,-7.97546 -3.84243,-16.17605c-0.1862,-0.3708 -0.39235,-0.7293 -0.60837,-1.07623M239.53462,160.76638c0,0 1.21569,0.22803 4.54634,2.49982c3.33076,2.27179 4.68966,4.91834 4.68966,4.91834c0,0 -9.46921,-1.76085 -14.74833,-3.23076c-5.27387,-1.47209 -22.95793,-4.91321 -22.95793,-4.91321M212.86992,200.18177c2.81022,3.76987 5.58894,5.72855 5.58894,5.72855c0,0 -6.02082,2.3626 -11.92201,-0.47773c-5.23954,-2.52437 -6.04699,-4.86599 -6.04699,-4.86599M268.08311,198.91032c-6.26391,5.59957 -14.13508,8.69817 -23.8892,10.02466c-11.62904,1.58139 -20.29398,0.50499 -27.80356,-1.81944M216.14436,206.60829c0.40764,2.51371 1.31784,3.76541 1.99994,4.31078c1.26652,1.01593 3.56537,1.10987 3.56537,1.10987c0,0 -6.89767,1.48947 -11.08793,-3.61022c-0.44531,-0.5421 -0.89574,-1.10466 -1.32838,-1.70735M240.23103,161.0165c0,0 25.67457,1.22564 26.69963,15.11366" fill="#be1e2d"/><path d="M272.36943,181.87832c-0.2118,10.05808 -10.92463,21.32631 -27.65531,23.54877c-14.76984,1.97025 -37.18466,-3.08233 -41.27226,-15.13123c-0.40716,-1.21122 -0.66301,-2.39109 -0.79333,-3.53329l0.33969,0.21147c1.2475,1.56522 2.58404,2.66171 3.87181,3.63547c4.87472,3.6951 10.27007,0.30716 10.27007,0.30716c0,0 -1.95406,0.56577 -3.28639,-0.04451c-1.29611,-0.59762 -3.81042,-3.18145 -4.87527,-12.06838c-1.20362,-10.04575 5.23428,-17.80108 5.23428,-17.80108l0.00713,-0.23346c5.32469,1.06033 15.93568,3.2109 19.81885,4.2955c5.27918,1.47079 14.74833,3.23076 14.74833,3.23076c0,0 -1.3589,-2.64655 -4.68966,-4.91834c-1.66715,-1.13617 -2.80282,-1.76096 -3.5213,-2.1024l0.65393,0.05372c0,0 19.83278,1.45186 24.06832,9.89169c4.11856,8.20119 0.61941,17.50359 0.61941,17.50359c0,0 4.15455,-1.85475 6.31967,-6.86291l0.14207,0.01749z" fill="#e6e7e8"/></g><g stroke="#000000" stroke-width="0.90025" stroke-linecap="round" stroke-linejoin="miter"><path d="M277.94919,163.02223c0,0 8.29365,-10.78996 8.7611,-11.30657c0.46734,-0.51651 3.8659,-5.37284 14.5195,-7.73265c0,0 -4.64586,31.26289 -20.23595,39.48618c-0.00006,-0.0009 0.88299,-8.91338 -3.04464,-20.44695zM278.0303,163.26542c-0.30433,-0.95518 -1.1332,-2.62089 -1.1332,-2.62089M280.39575,185.88377c0,0 0.50971,-1.51985 0.59803,-2.41547" fill="#be1e2d"/><path d="M287.05717,178.16157c0,0 -1.70483,-1.12085 -2.19177,-5.18584c-0.30611,-2.52121 0.46482,-7.21699 0.46482,-7.21699l-0.07889,0.15383c0.64462,-0.8672 1.31769,-1.87458 1.91392,-2.96934c1.01062,-1.85201 2.14991,-4.60173 3.18077,-7.30556l0.16281,-0.374c0,0 2.88641,-4.97115 9.54877,-6.06503l0.08031,0.03649c-1.06801,4.77918 -2.86666,11.80584 -5.07341,16.67799c-2.47522,5.46533 -5.50648,9.52547 -8.11871,12.35323zM282.7426,168.74723c0,0 2.18338,-2.47302 2.58764,-2.98848" fill="#929497"/></g><g stroke="#000000" stroke-width="0.90025" stroke-linecap="round" stroke-linejoin="miter"><path d="M192.1994,190.02216c-16.62757,-5.84532 -25.81319,-36.08731 -25.81319,-36.08731c10.88478,0.77097 14.9595,5.07571 15.49755,5.51711c0.53806,0.44149 10.32618,9.89775 10.32618,9.89775c-2.19256,11.98621 -0.01055,20.67246 -0.01055,20.67246zM192.9006,166.84425c0,0 -0.57532,1.76935 -0.73602,2.75886M192.1994,190.02216c0.21875,0.87297 0.94618,2.3015 0.94618,2.3015" fill="#be1e2d"/><path d="M185.54812,185.75045c-2.99916,-2.41449 -6.59279,-5.98565 -9.84452,-11.02737c-2.89906,-4.49529 -5.70887,-11.18181 -7.46708,-15.75239l0.07418,-0.04789c6.75173,0.1047 10.33575,4.59737 10.33575,4.59737l0.21596,0.34604c1.41657,2.52317 2.94732,5.07582 4.2189,6.75939c0.7505,0.99535 1.56418,1.89299 2.32914,2.65616l-0.10063,-0.14058c0,0 1.45201,4.53171 1.51928,7.07055c0.11525,4.09242 -1.40664,5.45143 -1.40664,5.45143zM185.30982,173.1412c0.47555,0.45052 2.99836,2.57618 2.99836,2.57618" fill="#929497"/></g><path d="M228.45978,180.31292v0v0v0v0v0c0.73032,0.14735 1.20073,0.85825 1.0515,1.58871c-0.14721,0.73212 -0.85452,1.20227 -1.58997,1.05891c-0.04222,-0.00951 -4.30357,-0.83689 -8.2998,0.65502c-0.12301,0.04518 -0.24648,0.07324 -0.37123,0.08245c-0.58352,0.04307 -1.15061,-0.30143 -1.36537,-0.87587c-0.12684,-0.33548 -0.10262,-0.69202 0.02999,-0.99972c-0.26862,-0.20228 -0.52843,-0.47008 -0.72271,-0.85121c-0.22754,-0.44175 -0.05288,-0.98539 0.39072,-1.21225c0.43962,-0.22106 0.98439,-0.05551 1.21319,0.38986c0.18141,0.35491 0.63625,0.42692 0.64177,0.42832c0.13423,0.01988 0.25451,0.07237 0.35997,0.14399c0.13088,-0.03764 0.2625,-0.07623 0.39189,-0.10834c-0.15359,-0.19803 -0.29917,-0.42203 -0.39767,-0.70364c-0.1629,-0.47089 0.0865,-0.98133 0.55732,-1.14513c0.47408,-0.16855 0.98326,0.08816 1.14513,0.55732c0.12965,0.37497 0.5599,0.51739 0.56362,0.51892c0.19978,0.05213 0.35333,0.17617 0.47023,0.32817c3.20479,-0.38725 5.78474,0.1147 5.93142,0.14449z" fill="#231f20" stroke="none" stroke-width="0.90025" stroke-linecap="butt" stroke-linejoin="miter"/><path d="M248.12373,219.75064c-2.63549,2.55628 -5.59007,3.50849 -6.59922,2.12681c-1.00914,-1.38167 0.30926,-4.57401 2.94475,-7.13029c2.63549,-2.55628 5.59007,-3.50849 6.59922,-2.12681c1.00914,1.38167 -0.30926,4.57401 -2.94475,7.13029z" fill="#be1e2d" stroke="#231f20" stroke-width="0.90025" stroke-linecap="butt" stroke-linejoin="miter"/><path d="M248.82233,212.63487c1.63481,-0.4099 3.50127,0.23898 3.50127,0.23898c0,0 0.13763,5.93781 0.13968,8.08307c0.00268,2.14842 0.56988,5.54636 0.56988,5.54636c0,0 0.45059,0.36671 0.20653,1.22717c-0.24753,0.85815 -1.95512,0.91159 -4.12639,1.2228c-2.16699,0.3062 -3.84696,-0.19727 -4.075,-1.07544c-0.23126,-0.87425 0.44189,-1.22851 0.44189,-1.22851c0,0 1.84041,-6.95471 1.23886,-9.43227c0.00391,0.00545 0.01894,-4.05978 2.10326,-4.58216z" fill="#be1e2d" stroke="#231f20" stroke-width="0.90025" stroke-linecap="round" stroke-linejoin="round"/><path d="M255.59348,203.08178c-0.38394,2.20666 -3.46833,5.95818 -4.08296,6.74608c-0.61505,0.78717 -2.62664,1.738 -3.74235,0.97833c-1.11649,-0.75901 -0.91966,-2.58372 -0.91966,-2.58372c0.43629,-1.60478 1.11822,-4.59435 1.91829,-6.46117c0.1441,-0.32881 0.29123,-0.63198 0.43646,-0.92987l-0.01299,0.01336c0,0 -0.90219,-2.12597 0.07365,-2.5292c0.59049,-0.24402 1.1624,-0.0279 1.53343,0.17887c0.84784,-0.8414 1.76294,-1.19354 2.75501,-0.86946c2.32728,0.74062 2.04112,5.45677 2.04112,5.45677v0v0v0v0v0z" data-paper-data="{&quot;index&quot;:null}" fill="#be1e2d" stroke="#231f20" stroke-width="0.78673" stroke-linecap="round" stroke-linejoin="round"/><g stroke="#000000" stroke-width="1" stroke-linecap="butt" stroke-linejoin="miter"><path d="M276.72181,266.93449c-6.94903,2.48678 -51.07106,1.87124 -57.88411,-0.34832c-7.86831,-2.56336 -6.89912,-21.57451 1.11074,-24.14005c6.78323,-2.17265 50.64342,-1.76459 57.67502,0.99318c6.36836,2.49765 6.19476,20.95566 -0.90165,23.49519z" data-paper-data="{&quot;index&quot;:null}" fill="#363636"/><path d="M272.63389,263.40279c-5.53329,1.76301 -40.66621,1.32662 -46.09121,-0.24694c-6.26528,-1.8173 -5.49355,-15.29531 0.88444,-17.11416c5.40126,-1.5403 40.32569,-1.25101 45.92472,0.70411c5.07091,1.77071 4.93268,14.85658 -0.71796,16.65699z" data-paper-data="{&quot;index&quot;:null}" fill="#4a4a4a"/></g><g stroke="#000000" stroke-width="1" stroke-linecap="butt" stroke-linejoin="miter"><path d="M277.22181,314.93449c-6.94903,2.48678 -51.07106,1.87124 -57.88411,-0.34832c-7.86831,-2.56336 -6.89912,-21.57451 1.11074,-24.14005c6.78323,-2.17265 50.64342,-1.76459 57.67502,0.99318c6.36836,2.49764 6.19476,20.95567 -0.90165,23.49519z" data-paper-data="{&quot;index&quot;:null}" fill="#363636"/><path d="M273.13389,311.40279c-5.53329,1.76301 -40.66621,1.32662 -46.09121,-0.24694c-6.26528,-1.8173 -5.49355,-15.29531 0.88444,-17.11416c5.40126,-1.5403 40.32569,-1.25101 45.92472,0.70412c5.07091,1.77071 4.93268,14.85658 -0.71796,16.65699z" data-paper-data="{&quot;index&quot;:null}" fill="#4a4a4a"/></g><path d="M256.61946,177.80886c0.2556,3.46293 -0.79284,6.36286 -2.34176,6.47719c-1.54891,0.11433 -3.01175,-2.60025 -3.26735,-6.06318c-0.2556,-3.46293 0.79284,-6.36286 2.34176,-6.47719c0.3667,-0.02706 1.03269,0.70685 1.59957,0.35349c0.61457,-0.38309 0.40685,-1.88153 1.32445,-1.36953c0.55506,0.3097 -0.06739,1.86733 -0.21499,3.32229c-0.10604,1.04528 1.82502,-2.24605 2.02694,-1.42292c0.0788,0.32121 -1.4868,4.93379 -1.46863,5.17986z" fill="#231f20" stroke="#000000" stroke-width="1" stroke-linecap="butt" stroke-linejoin="miter"/><path d="M227.08005,219.92783c-0.28129,-1.68626 1.98277,-3.11635 5.05693,-3.19418c3.07416,-0.07784 5.7943,1.22606 6.07559,2.91232c0.28129,1.68626 -1.98276,3.11634 -5.05693,3.19418c-3.07416,0.07784 -5.79431,-1.22607 -6.07559,-2.91233z" data-paper-data="{&quot;index&quot;:null}" fill="#be1e2d" stroke="#231f20" stroke-width="0.90025" stroke-linecap="butt" stroke-linejoin="miter"/><path d="M230.53507,217.85137c2.1349,0.24396 2.68397,4.27197 2.68714,4.26605c-0.27076,2.53512 2.46755,9.18769 2.46755,9.18769c0,0 0.71386,0.26274 0.59948,1.1598c-0.11066,0.90053 -1.70992,1.62039 -3.89834,1.60159c-2.19334,-0.0232 -3.89314,0.14821 -4.25129,-0.66998c-0.35499,-0.82093 0.04349,-1.24367 0.04349,-1.24367c0,0 0.1158,-3.44301 -0.16386,-5.57316c-0.27986,-2.12693 -0.92368,-8.03134 -0.92368,-8.03134c0,0 1.76502,-0.88851 3.43952,-0.69699z" data-paper-data="{&quot;index&quot;:null}" fill="#be1e2d" stroke="#231f20" stroke-width="0.90025" stroke-linecap="round" stroke-linejoin="round"/><path d="M244.68067,188.19536c0.01482,0.40519 -0.01897,0.80049 -0.09595,1.17999c-0.43145,2.12686 -2.22019,3.75649 -4.41943,3.83692c-2.30013,0.08412 -4.27625,-1.55463 -4.76011,-3.79512c-0.06133,-0.28395 -0.09869,-0.57755 -0.10969,-0.87854c-0.09787,-2.67598 9.28728,-3.01923 9.38516,-0.34325z" fill="#231f20" stroke="#000000" stroke-width="1" stroke-linecap="butt" stroke-linejoin="miter"/></g></g></svg>