<svg version="1.1" xmlns="http://www.w3.org/2000/svg" xmlns:xlink="http://www.w3.org/1999/xlink" width="42.00001" height="52.30746" viewBox="0,0,42.00001,52.30746"><g transform="translate(-218.5632,-150.91355)"><g data-paper-data="{&quot;isPaintingLayer&quot;:true}" fill-rule="nonzero" stroke-linecap="butt" stroke-linejoin="miter" stroke-miterlimit="10" stroke-dasharray="" stroke-dashoffset="0" style="mix-blend-mode: normal"><path d="M230.6032,202.22102c0,0 0,-16.39915 0,-17.40296c0,-1.6074 -11.04,4.6281 -11.04,2.464c0,-3.57931 5.8864,-27.68511 11.20844,-34.9327c1.84851,-2.51732 0.14274,6.62462 2.22948,8.18322c2.45321,1.83232 5.92953,-3.11156 6.61345,-3.11156c0.61847,0 1.81553,0.92636 3.32923,2.45434c0.52915,0.53415 10.48248,-4.89171 11.07783,-4.2244c2.00667,2.24921 -5.05967,11.20956 -2.85659,14.28279c4.43415,6.18551 8.39817,12.96406 8.39817,16.0043c0,2.42004 -11.04,-2.43529 -11.04,-0.672c0,5.86937 0,16.95496 0,16.95496h-17.92001z" fill="#ffc93e" stroke="#603813" stroke-width="2"/><g stroke="none" stroke-width="0.66342"><path d="M251.48265,175.32349v0c0.36677,1.98857 -0.94767,3.89873 -2.93661,4.26647c-1.98818,0.3667 -3.89773,-0.94971 -4.26451,-2.93829c-0.36654,-1.98731 0.94775,-3.89605 2.93632,-4.26283c1.98864,-0.36679 3.89826,0.94734 4.26479,2.93465z" fill="#ffffff"/><path d="M248.28511,177.09775c-0.69894,0.12891 -1.38484,-0.03813 -1.92798,-0.41246c-0.54345,-0.37385 -0.94411,-0.95499 -1.07304,-1.65398c-0.12892,-0.699 0.03804,-1.38491 0.41238,-1.92798c0.37384,-0.54352 0.95505,-0.94421 1.65398,-1.07312c0.699,-0.12892 1.38491,0.03805 1.92798,0.41246c0.54351,0.37377 0.94419,0.95499 1.07312,1.65398c0.12892,0.699 -0.03805,1.38484 -0.41245,1.92799c-0.37378,0.54344 -0.95499,0.94419 -1.65399,1.07312z" fill="#603813"/></g><path d="M236.23371,179.99307c0.02877,-0.60639 1.41963,-0.42481 2.83882,-0.36724c1.46548,0.05945 2.95985,0.01471 2.93015,0.64087c-0.05846,1.23255 -1.39727,2.17047 -2.99033,2.0949c-1.59306,-0.07557 -2.8371,-1.13599 -2.77863,-2.36854z" data-paper-data="{&quot;index&quot;:null}" fill="#603813" stroke="#603813" stroke-width="1.32684"/><g stroke="none" stroke-width="0.66342"><path d="M233.41003,175.85421v0c0.36677,1.98857 -0.94767,3.89873 -2.93661,4.26647c-1.98818,0.3667 -3.89773,-0.94971 -4.26451,-2.93829c-0.36654,-1.98731 0.94775,-3.89605 2.93632,-4.26283c1.98864,-0.36679 3.89826,0.94734 4.26479,2.93465z" fill="#ffffff"/><path d="M230.21248,177.62848c-0.69894,0.12891 -1.38484,-0.03813 -1.92798,-0.41245c-0.54345,-0.37385 -0.94412,-0.95499 -1.07305,-1.65399c-0.12892,-0.699 0.03804,-1.38491 0.41238,-1.92798c0.37384,-0.54352 0.95504,-0.94421 1.65398,-1.07312c0.699,-0.12892 1.38491,0.03804 1.92799,0.41245c0.54351,0.37377 0.94419,0.95499 1.07312,1.65398c0.12892,0.699 -0.03805,1.38484 -0.41245,1.92799c-0.37378,0.54344 -0.95499,0.94419 -1.65399,1.07312z" fill="#603813"/></g></g></g></svg>