<svg version="1.1" xmlns="http://www.w3.org/2000/svg" xmlns:xlink="http://www.w3.org/1999/xlink" width="30.57" height="42.82461" viewBox="0,0,30.57,42.82461"><g transform="translate(-224.03017,-158.88632)"><g data-paper-data="{&quot;isPaintingLayer&quot;:true}" fill-rule="nonzero" stroke="none" stroke-linecap="butt" stroke-linejoin="miter" stroke-miterlimit="10" stroke-dasharray="" stroke-dashoffset="0" style="mix-blend-mode: normal"><path d="M224.03017,183.28931l3.63636,-23.29545l24.20455,-0.11364l2.27273,22.84091l-8.57144,0.68514l3.48613,5.94507l-0.13777,12.35959l-11.49051,-0.48257l-1.98648,-7.32475l2.44502,-8.83676z" fill="#ffffff" stroke-width="0"/><path d="M237.33113,191.6874c-0.67082,-0.33541 -0.33541,-1.00623 -0.33541,-1.00623l0.11364,-0.22727c1.04378,-2.08756 2.64793,-3.81388 3.74666,-5.90807c-1.25153,0.22089 -2.53288,0.28962 -3.75401,-0.08609c-0.87436,-0.26902 -1.62619,-0.71989 -2.27004,-1.30131c-1.33597,1.10979 -3.24035,1.85817 -4.62013,0.98665c-1.52618,-0.96399 -2.45893,-3.97567 -1.24321,-5.0744c0.33121,-0.29934 -0.91591,-0.13664 -1.27958,-0.39558c-0.92024,-0.65523 -1.68954,-1.3332 -2.3505,-2.2416c-0.70341,-1.14395 -1.45043,-2.87908 -0.74157,-4.24906c0.22122,-0.42755 0.55312,-0.80759 0.93508,-1.10057c0.35554,-0.27272 1.75742,-0.30686 1.30934,-0.30445c-0.93008,0.00499 -1.05157,-2.48353 -0.92751,-3.00333c0.68222,-2.85848 3.08441,-2.96062 4.97616,-3.97654c0.00993,-0.00533 0.68384,-2.17821 0.80405,-2.39204c2.09608,-2.86408 5.49578,-2.55745 8.50962,-1.80742c1.21862,0.30327 2.9903,-0.88456 4.4765,-0.69266c2.65389,0.34268 4.25603,2.7968 5.67433,4.79049c1.31264,2.63207 5.41043,5.45606 3.92631,9.05127c-0.21777,0.52755 -1.03506,0.61266 -1.29395,1.1213c-0.21957,0.43139 0.28437,0.93457 0.31456,1.41769c0.13904,2.22502 0.15888,4.46473 -2.61333,4.54515c-0.3185,-0.03932 -0.63701,-0.07865 -0.95552,-0.11798l-0.94367,-0.6131c0,0 -0.0527,-0.04216 -0.11383,-0.11698c-1.35099,2.25503 -3.46833,4.09994 -5.88276,5.12845c-0.01901,0.00477 -0.03805,0.00955 -0.0571,0.01432c0.03136,0.05511 0.05402,0.11128 0.07041,0.16368c1.73868,1.63845 3.87201,2.74477 5.8451,4.0554l0.36843,0.5159c0,0 0.33541,0.67082 -0.33541,1.00623c-0.67082,0.33541 -1.00623,-0.33541 -1.00623,-0.33541l0.14116,0.06136c-1.63579,-1.09497 -3.36163,-2.05343 -4.91474,-3.25925c0.05212,0.81954 0.13676,1.65571 0.23771,2.48903c0.33291,0.24776 0.26734,0.70679 0.26734,0.70679c-0.03048,0.21032 -0.06128,0.42143 -0.09274,0.63309c0.0849,0.6153 0.17401,1.22317 0.26058,1.81554c0.09399,0.10016 0.16546,0.24274 0.17848,0.44571c0.21664,1.53552 0.66373,4.96228 1.53381,6.17971c0.20611,0.2884 1.71316,0.47737 1.99113,0.54683l0.57503,0.33084c0,0 0.62403,0.41602 0.20801,1.04006c-0.41602,0.62404 -1.04006,0.20801 -1.04006,0.20801l-0.10678,-0.12371c-0.80054,-0.20023 -2.21189,-0.36074 -2.7816,-1.04408c-0.79339,-0.95165 -1.30294,-3.38015 -1.61147,-5.25397c-0.57485,2.2005 -1.46778,4.26477 -3.07653,5.87351l-0.56818,0.56818c0,0 -0.53033,0.53033 -1.06066,0c-0.53033,-0.53033 0,-1.06066 0,-1.06066l0.56818,-0.56818c2.29919,-2.29919 2.95206,-5.74426 3.42304,-8.99497c-0.15738,-1.19615 -0.29773,-2.41076 -0.38117,-3.60167c-0.99518,1.54754 -2.16146,2.96751 -2.97708,4.59874l-0.11364,0.22727c0,0 -0.33541,0.67082 -1.00623,0.33541zM249.72597,177.93093l0.19269,0.29599c0.28755,0.03643 0.57511,0.07287 0.86266,0.1093c1.76044,0.10179 0.98457,-2.69483 0.91374,-3.81752c-0.02847,-0.45122 -0.21225,-0.94195 -0.03069,-1.35601c0.2034,-0.46383 1.05207,-0.44166 1.20606,-0.92415c0.84402,-2.64454 -1.36869,-3.9799 -2.79418,-5.47927c-0.55921,-0.58819 -0.6513,-1.57927 -1.00678,-2.28764c-1.56253,-2.17803 -3.09434,-4.42539 -6.09382,-4.07315c-1.18643,0.13933 -1.79355,0.88877 -3.07355,0.67097c-2.33847,-0.3979 -5.2648,-1.29105 -6.94492,1.14712c-0.45998,0.787 -0.48776,2.27064 -1.24141,2.83524c-1.46837,1.10002 -3.65929,0.53531 -4.34202,3.06891c-0.2933,1.08841 1.22368,2.1762 0.89067,3.13304c-0.3056,0.87808 -1.28473,0.69007 -1.87249,1.05918c-1.12141,0.70424 -0.3046,2.50635 0.1935,3.28673c0.73327,1.05273 3.56325,2.17469 3.86992,3.27191c0.01478,0.05288 -0.60816,1.62826 -0.46968,2.19286c0.53284,2.17243 2.55619,2.18935 3.90823,1.06297c-1.95391,-2.58698 -2.56115,-6.56123 -2.5383,-9.39667c0.16283,-0.58718 0.32881,-1.17349 0.49831,-1.75877l0.36907,-0.74534c0,0 0.33541,-0.67082 1.00623,-0.33541c0.67082,0.33541 0.33541,1.00623 0.33541,1.00623l-0.31275,0.6183c-0.13361,0.47529 -0.27039,0.94971 -0.41078,1.42305c0.0239,2.27919 0.45844,5.7032 1.99538,7.96995c0.00005,-0.0001 0.00009,-0.0002 0.00014,-0.0003c0,0 0.33541,-0.67082 1.00623,-0.33541c0.05733,0.02866 0.10732,0.05978 0.15079,0.09272c-0.37803,-2.52373 -0.05838,-5.98103 0.24861,-8.16433l-0.00753,-0.00757c0,0 0,-0.60982 0.54988,-0.72969c-3.98745,-0.08556 -4.24957,-3.3897 -0.93075,-5.05477c0,0 0.67082,-0.33541 1.00623,0.33541c0.33541,0.67082 -0.33541,1.00623 -0.33541,1.00623c-0.18231,0.09081 -2.12938,0.95092 -1.89139,1.49471c1.18602,2.70995 3.96442,-1.2747 4.55026,-1.32097c0.53777,-0.04247 1.28901,0.96466 1.70166,1.31612c1.00206,0.85346 1.75635,0.90329 2.99953,1.18471c1.84966,-0.01161 3.87115,0.33515 4.04279,-1.68298c-0.0485,-0.05125 -0.49842,-0.55381 0.00413,-1.05637c0.53033,-0.53033 1.06066,0 1.06066,0l0.44694,0.7576c-0.00161,0.72144 -0.12582,1.29363 -0.34666,1.74732c0.59627,-0.06959 0.77235,0.54664 0.77235,0.54664c0.66245,2.31857 0.37631,4.64794 -0.55065,6.72164c0.23594,0.03089 0.41166,0.17147 0.41166,0.17147zM236.55512,182.58565c-0.11933,-0.21283 -0.21618,-0.43579 -0.28628,-0.66362c-0.03345,-0.10871 -0.06472,-0.22093 -0.09392,-0.33637c-0.08542,0.16277 -0.19071,0.32922 -0.31303,0.49606c0.2162,0.18787 0.44699,0.35683 0.69323,0.50393zM242.31347,182.69219c4.20734,-1.81634 7.44413,-6.57002 6.1092,-11.2423c0,0 -0.01014,-0.03549 -0.01805,-0.09299c-1.09445,0.87811 -2.90568,0.86882 -4.68355,0.85974c-0.96811,-0.21151 -1.95581,-0.24917 -2.81246,-0.78935c-0.35439,-0.22347 -0.68563,-0.48346 -1.00619,-0.75322c-0.12669,-0.10661 -0.31522,-0.34946 -0.45794,-0.56752c-0.25858,0.61081 -1.95586,1.49414 -2.50241,1.63812c0.01395,-0.00055 0.02817,-0.00083 0.04266,-0.00083c0.18479,0 0.32404,0.04552 0.42898,0.11415c2.12774,0.02136 4.17717,0.69081 6.27556,0.68131c0.50851,-0.00231 1.98495,-0.05958 2.22889,0.3557c0.46153,0.7857 -0.56761,1.70792 -0.94612,2.20665c-1.17798,1.55211 -1.78041,3.81451 -2.65741,5.56851c-0.31872,0.6301 -0.49035,1.49998 -0.82684,2.22307c0.28071,-0.06529 0.55671,-0.13417 0.82568,-0.20106zM247.93417,168.94711c0.00356,-0.06537 0.00528,-0.1331 0.0051,-0.20326zM237.63835,173.36131c-0.30985,2.39862 -0.57471,6.04353 0.06226,8.11347c0.23422,0.76113 1.23974,1.8854 2.13738,1.20875c0.60979,-0.45967 0.80527,-2.01828 1.13501,-2.68417c0.81936,-1.63871 1.45175,-3.38051 2.27603,-5.00652c0.00131,-0.00258 0.25974,-0.47539 0.55814,-0.88452c-0.51483,0.00928 -1.08094,-0.06977 -1.131,-0.07626c-1.66833,-0.21633 -3.33043,-0.62686 -5.03781,-0.67076z" fill="#9966ff" stroke-width="0.5"/></g></g></svg>