<svg version="1.1" xmlns="http://www.w3.org/2000/svg" xmlns:xlink="http://www.w3.org/1999/xlink" width="29.98688" height="43.98979" viewBox="0,0,29.98688,43.98979"><g transform="translate(-226.55318,-157.83476)"><g data-paper-data="{&quot;isPaintingLayer&quot;:true}" fill-rule="nonzero" stroke="none" stroke-linecap="butt" stroke-linejoin="miter" stroke-miterlimit="10" stroke-dasharray="" stroke-dashoffset="0" style="mix-blend-mode: normal"><path d="M227.09836,184.42567l0.34091,-21.36364l22.61364,-5.22727l6.25,23.97727l-11.35556,7.97553l4.59329,11.62989l-14.62657,0.4071l1.69306,-4.58686l1.20247,-9.85001z" fill="#ffffff" stroke-width="0"/><path d="M246.98473,183.58476c-0.47379,0 -0.64828,-0.29931 -0.71254,-0.51976c-2.36046,1.75881 -5.35563,2.54579 -8.54122,1.6033c-0.98545,-0.49507 -1.86632,-1.24974 -2.61259,-2.17429l-0.10332,0.30289c-2.3104,2.23025 -4.705,1.39247 -5.86861,-1.1213c-0.62433,-1.34875 -2.30718,-2.03099 -2.56467,-3.85869c-0.29525,-2.09579 1.78087,-2.22517 2.29056,-3.57938c0.17957,-0.47712 -0.71658,-0.76666 -0.88352,-1.24834c-0.58129,-1.67715 0.02812,-3.29895 0.75381,-4.76579c0.70073,-0.95829 2.52581,-2.13322 2.98724,-3.13205c0.28453,-0.61591 0.09071,-1.43577 0.50756,-1.97106c1.9657,-2.52422 5.17549,-3.28562 8.22308,-2.7141c1.38688,0.26009 2.56873,1.58559 3.81034,1.79232c0.68831,0.1146 1.08437,-0.98033 1.76779,-1.1212c2.3387,-0.48205 4.53255,2.42159 5.77224,3.95108c1.51418,2.08978 2.56697,4.61272 3.8864,6.85439c0.43716,0.74272 1.07572,1.93305 0.75666,2.86921c-0.25328,0.74316 -1.38816,0.9269 -1.67213,1.65888c-0.26684,0.68784 0.10123,1.4839 -0.00939,2.21335c-0.44905,2.96113 -2.33327,2.70094 -4.79413,2.45681c0,0 -0.74628,-0.07463 -0.67165,-0.82091c0.07463,-0.74628 0.82091,-0.67165 0.82091,-0.67165c0.58753,0.05925 2.22313,0.42856 2.764,0.19304c0.87003,-0.37885 0.34378,-3.55589 0.61429,-4.15924c0.2713,-0.60511 1.28011,-0.67352 1.50969,-1.29567c0.30078,-0.8151 -1.03128,-2.25357 -1.38349,-2.78246c-1.19824,-1.79932 -1.73504,-3.85528 -3.01069,-5.60196c-0.72099,-0.88891 -2.83742,-3.84834 -4.28142,-3.39544c-1.02326,0.32094 -0.70618,1.25596 -2.09585,1.15153c-2.72964,-0.20513 -4.35124,-2.69585 -7.55787,-1.83447c-1.06208,0.2853 -3.40222,1.45633 -3.62653,2.7158c-0.05859,0.32899 0.23687,0.69887 0.08901,0.99855c-0.61291,1.24224 -2.28713,2.27557 -3.12582,3.42693c-0.50091,0.97616 -1.07618,2.30328 -0.63313,3.44796c0.393,1.01538 1.25413,0.72715 0.93466,2.16075c-0.25658,1.15138 -2.55939,1.58599 -2.25489,3.01153c0.33963,1.59002 1.77555,2.15716 2.43533,3.41404c0.70711,1.34703 1.75853,2.31274 3.26904,0.87765c0.05903,-0.19787 0.20709,-0.45592 0.57845,-0.5056c-2.32607,-3.74976 -2.74905,-9.28943 0.14868,-12.37994c1.60152,-1.70807 3.57331,-2.11646 5.79979,-2.39547l0.19676,-0.08094c0,0 0.71151,-0.23717 0.94868,0.47434c0.23717,0.71151 -0.47434,0.94868 -0.47434,0.94868l-0.48505,0.14633c-1.85809,0.23165 -3.54168,0.49278 -4.88202,1.92271c-3.21781,3.43289 -1.34182,11.22923 2.67912,13.22681c1.58057,0.48298 3.09796,0.43368 4.48284,-0.00104c-0.16127,-0.33732 0.04404,-0.69661 0.04404,-0.69661c1.03552,-1.78499 2.95769,-3.22523 4.10593,-2.1127c1.46405,-1.67076 2.4618,-3.81665 2.76759,-5.95969c-0.3929,-0.00725 -0.85799,-0.27738 -1.14176,-0.02605c-0.61732,0.54675 -0.97889,1.54214 -1.78583,1.71199c-0.48068,0.10118 -0.97326,-0.20776 -1.40684,-0.43862c-0.41759,-0.22233 -0.76183,-1.36143 -1.0327,-0.97356c-2.91257,4.17053 -7.65337,2.40441 -7.2848,-2.68225c0,0 0.05752,-0.74779 0.80531,-0.69027c0.74779,0.05752 0.69027,0.80531 0.69027,0.80531c-0.19211,2.34118 0.89177,4.45929 3.47093,3.06595c0.75309,-0.40684 0.95514,-1.55297 1.74426,-1.88457c1.46725,-0.61655 1.90785,1.58631 2.78773,1.3151c0.62266,-0.19193 0.72183,-1.17439 1.16871,-1.46982c1.15749,-0.76522 2.18409,0.36046 2.7517,-1.33164c0.00109,-0.20816 0.00219,-0.41632 0.00328,-0.62447l-0.29558,-0.65081c0,0 -0.29544,-0.68936 0.39392,-0.9848c0.68936,-0.29544 0.9848,0.39392 0.9848,0.39392l0.38623,0.94009c0.00109,0.3979 0.00219,0.79581 0.00328,1.19371c-0.30979,0.7869 -0.38159,1.18662 -0.69002,1.51811c0.02511,0.1247 0.01833,0.21969 0.01833,0.21969c-0.21251,2.96922 -1.5664,5.87151 -3.63059,7.97176c0.03943,0.16049 0.07422,0.33303 0.10397,0.51814l0.00579,0.43394c0,0 0,0.75 -0.75,0.75zM245.84336,181.52829c-0.30266,-0.10624 -0.72652,0.30823 -1.10831,0.82248c0.38651,-0.2451 0.75666,-0.52076 1.10831,-0.82248z" fill="#9966ff" stroke-width="0.5"/><path d="M244.14382,196.08476c-0.75,0 -0.75,-0.75 -0.75,-0.75l0.02886,0.0924c-0.4184,-1.46439 -0.97432,-2.8932 -1.4834,-4.33011c0,0.16257 0,0.32514 0,0.4877v0.323c0.87733,2.43196 2.14929,6.37758 4.54544,7.39673l0.46216,0.3863c0,0 0.53033,0.53033 0,1.06066c-0.53033,0.53033 -1.06066,0 -1.06066,0l0.00762,-0.06824c-2.03985,-0.88002 -3.35519,-3.21046 -4.32127,-5.52032c-0.23026,1.31009 -0.66468,2.56496 -1.47785,3.23413c-1.11319,0.91607 -2.5088,1.19129 -3.64462,2.16627l-0.09133,0.18749c0,0 -0.41603,0.62404 -1.04006,0.20801c-0.62404,-0.41603 -0.20801,-1.04006 -0.20801,-1.04006l0.36322,-0.49433c1.15651,-0.98993 2.45467,-1.30107 3.62811,-2.15191c0.58732,-0.42586 0.89401,-1.45733 1.05348,-2.54805c-0.17215,0.38925 -0.36237,0.74846 -0.57142,1.06587l-0.30618,0.83051c0,0 -0.26334,0.70225 -0.96559,0.4389c-0.70225,-0.26334 -0.4389,-0.96559 -0.4389,-0.96559l0.37563,-0.98768c1.2189,-1.80453 1.74462,-5.2433 1.7357,-7.38535c0,0 0,-0.53712 0.45455,-0.70227c0,-0.30511 0,-0.6025 0,-0.88864c0,0 0,-0.75 0.75,-0.75c0.75,0 0.75,0.75 0.75,0.75c0,0.21855 0,0.4371 0,0.65565c0.35018,0.1415 0.4379,0.55084 0.4379,0.55084c0.55261,2.6077 1.74888,5.09218 2.48779,7.67838l0.02886,0.31968c0,0 0,0.75 -0.75,0.75z" fill="#9966ff" stroke-width="0.5"/></g></g></svg>