<svg version="1.1" xmlns="http://www.w3.org/2000/svg" xmlns:xlink="http://www.w3.org/1999/xlink" width="99.51629" height="115.20239" viewBox="0,0,99.51629,115.20239"><defs><radialGradient cx="267.92864" cy="180.04517" r="7.3567" gradientUnits="userSpaceOnUse" id="color-1"><stop offset="0" stop-color="#54606d"/><stop offset="1" stop-color="#2c3136"/></radialGradient></defs><g transform="translate(-183.02894,-123.20557)"><g data-paper-data="{&quot;isPaintingLayer&quot;:true}" stroke-miterlimit="10" stroke-dasharray="" stroke-dashoffset="0" style="mix-blend-mode: normal"><g fill-rule="evenodd"><path d="M226.35631,193.7766c0.76858,0.45747 2.39817,1.47946 -0.2442,4.69472c-2.64237,3.21526 -9.5751,3.40845 -10.37295,3.34991c-3.09901,-0.12712 -6.88882,-0.4052 -10.97511,-2.10879c-11.87458,-4.88205 -11.01568,-17.95424 -6.97246,-19.76322c3.94349,-1.81629 5.04619,6.38639 10.17287,11.67573c2.23257,2.36973 5.06626,3.3798 7.42323,4.05409c3.34698,0.8472 10.10763,-2.46696 10.96862,-1.90244z" fill="#ffab19" stroke="#001026" stroke-width="1.2" stroke-linecap="round" stroke-linejoin="round"/><path d="M202.21555,183.88351c1.39813,2.80985 4.21174,6.82651 4.21174,6.82651c0,0 -3.62422,-1.16835 -5.84299,0.37342c-1.79057,1.17211 -1.55264,3.39548 -1.4044,4.10824c-1.20138,-1.39165 -2.66537,-3.3039 -3.40657,-6.8677c-0.7412,-3.56379 0.56347,-7.67936 2.60202,-8.13139c2.02391,-0.25257 2.4128,1.28 3.8402,3.69091z" fill="#ffffff" stroke="none" stroke-width="1" stroke-linecap="butt" stroke-linejoin="miter"/></g><path d="M239.36306,198.32524c0.20071,0.7834 0.5995,2.23762 1.03746,4.17889c0.8317,3.6865 2.01482,15.01347 2.01482,15.01347c0,0 8.58905,10.79873 1.71276,13.3476c-7.78838,2.88697 -9.48476,-8.23617 -9.45672,-8.54513c-0.02449,-1.38406 -0.86554,-3.71814 -1.20307,-5.78722c-0.7843,-5.20868 -0.58395,-6.7712 -1.38191,-9.34873c-0.79795,-2.57754 -2.86038,-8.58707 1.09219,-11.41422c3.35703,-2.46706 5.57435,0.38879 6.18446,2.55533z" data-paper-data="{&quot;index&quot;:null}" fill="#ffab19" fill-rule="evenodd" stroke="#001026" stroke-width="1.2" stroke-linecap="round" stroke-linejoin="round"/><path d="M222.82645,204.93705c0.1055,-2.27412 1.61016,-5.68956 5.4057,-4.29789c4.45152,1.56363 3.80124,7.981 3.60606,10.70785c-0.19518,2.72684 0.34759,4.17765 0.75355,9.44321c0.13614,2.09935 -0.15509,4.60366 0.13053,5.94847c0.09615,0.29029 0.94226,11.54126 -7.22956,11.05388c-7.21482,-0.4303 -1.32737,-13.40555 -1.32737,-13.40555c0,0 -1.3877,-11.29621 -1.4077,-15.10475c-0.01054,-2.00553 0.0499,-3.5288 0.06881,-4.34521z" data-paper-data="{&quot;index&quot;:null}" fill="#ffab19" fill-rule="evenodd" stroke="#001026" stroke-width="1.2" stroke-linecap="round" stroke-linejoin="round"/><path d="M244.03999,188.70146c0.45453,0.45101 5.75246,8.26009 7.9329,6.6835c2.61013,-1.83227 6.32829,-5.55723 9.55609,-1.89235c3.2278,3.66486 -4.13028,8.50828 -7.17362,9.69068c-7.19108,2.34699 -12.13041,-4.11621 -13.15305,-5.835c-1.02265,-1.71877 -2.82294,-4.62721 -2.54585,-7.2124c0.39784,-2.7734 3.85307,-3.10706 5.38353,-1.43443z" fill="#ffab19" fill-rule="evenodd" stroke="#001026" stroke-width="1.2" stroke-linecap="round" stroke-linejoin="round"/><g fill-rule="evenodd"><path d="M226.23703,204.08182c-10.12901,-6.37978 -4.17701,-11.45937 -2.60872,-16.88443c1.52851,-4.67807 2.77852,-4.12712 8.89524,-4.29204c3.42622,-0.27381 5.44296,-0.42899 7.56601,-1.03056c3.19565,-0.85225 3.67507,4.09426 3.35189,6.80443c0,0 -0.54461,4.02657 -1.39087,6.22669c-1.0501,2.66931 -1.88757,4.44584 -2.8581,5.62113c0,0 -2.08539,2.52653 -4.34675,3.14701c-2.03272,0.55774 -8.60871,0.40776 -8.60871,0.40776z" fill="#ffab19" stroke="#001026" stroke-width="1.2" stroke-linecap="round" stroke-linejoin="round"/><path d="M238.29271,200.63194c0,0 -1.72877,-0.8606 -3.62159,-1.99902c-2.34938,-1.34788 -4.63223,-2.39514 -3.36951,-5.95722c1.22295,-2.81508 2.17095,-6.409 7.20203,-4.52862c4.7917,1.72556 3.49342,4.66362 3.49342,4.66362c-1.14727,5.0105 -3.70437,7.82123 -3.70437,7.82123z" fill="#ffffff" stroke="none" stroke-width="1" stroke-linecap="butt" stroke-linejoin="miter"/></g><path d="M250.58427,128.04151c0.31118,-0.18212 0.80447,-0.05308 0.88094,0.35207l1.9703,10.83364c0,0 6.11441,5.06595 7.81833,8.47134c2.87313,5.67759 2.71,10.17575 2.71,10.17575c0,0 6.96516,2.5113 7.83001,8.27169c0.86487,5.76039 -4.15873,16.2848 -23.1428,18.8799c-18.98409,2.5951 -33.76026,-3.37858 -40.18195,-15.17399c-6.4217,-11.79541 5.55388,-24.71769 4.90816,-23.95413c0,0 -0.10218,-15.97541 0.28545,-15.7524l11.10968,5.90144c0,0 4.59164,-1.43414 9.29531,-1.35914c2.8069,-0.03603 5.19111,0.30387 7.46381,0.83758z" fill="#ffab19" fill-rule="evenodd" stroke="#001026" stroke-width="1.2" stroke-linecap="butt" stroke-linejoin="miter"/><path d="M263.64097,158.25611c0,0 6.78304,2.20012 7.64789,7.96051c0.86487,5.76039 -4.52882,15.76228 -23.30741,18.26923c-24.45082,3.57731 -35.08971,-11.47009 -27.78173,-21.66045c7.31381,-10.29019 18.2624,-0.53374 26.6831,-0.64185c7.21692,-0.0784 8.38369,-6.3209 16.75815,-3.92744z" fill="#ffffff" fill-rule="evenodd" stroke="none" stroke-width="1" stroke-linecap="butt" stroke-linejoin="miter"/><path d="M281.94523,160.42944c-4.91403,3.51886 -12.10756,3.19795 -12.10756,3.19795" fill="none" fill-rule="evenodd" stroke="#001026" stroke-width="1.2" stroke-linecap="round" stroke-linejoin="round"/><path d="M279.99298,171.53435c-6.31846,0.131 -10.10075,-1.99365 -10.10075,-1.99365" fill="none" fill-rule="evenodd" stroke="#001026" stroke-width="1.2" stroke-linecap="round" stroke-linejoin="round"/><path d="M246.63544,159.56463c2.09641,0.12271 4.28097,0.45093 4.33989,1.15558c0.01803,1.40345 -1.64303,4.11101 -3.24615,4.11735c-1.80861,0.09448 -5.85534,-2.64669 -5.76185,-4.24395c-0.02971,-1.20379 2.67152,-1.14584 4.6681,-1.02897z" fill="#001026" fill-rule="evenodd" stroke="#001026" stroke-width="1.2" stroke-linecap="round" stroke-linejoin="round"/><path d="M201.79999,155.43758c0,0 8.42169,3.29776 11.73455,6.59699" fill="none" fill-rule="evenodd" stroke="#001026" stroke-width="1.2" stroke-linecap="round" stroke-linejoin="round"/><path d="M213.62951,165.54612c-4.39199,1.44582 -11.71507,-0.08473 -11.71507,-0.08473" fill="none" fill-rule="evenodd" stroke="#001026" stroke-width="1.2" stroke-linecap="round" stroke-linejoin="round"/><g fill-rule="nonzero" stroke="#001026" stroke-width="1.2" stroke-linejoin="miter"><g><path d="M249.508,200.64705l8.6678,-20.42008l11.28108,6.88689l-13.3864,16.66294c0,0 -2.59532,0.43961 -3.65503,-0.06579c-1.124,-0.53606 -2.90745,-3.06397 -2.90745,-3.06397z" fill="#505a63" stroke-linecap="butt"/><path d="M258.25194,178.66646c2.11705,-3.46785 6.64453,-4.56288 10.11236,-2.44583c3.46785,2.11705 4.56287,6.64454 2.44583,10.11236c-2.11705,3.46785 -6.64454,4.56288 -10.11237,2.44582c-3.46785,-2.11705 -4.56286,-6.64453 -2.44581,-10.11238z" fill="url(#color-1)" stroke-linecap="butt"/><path d="M258.57857,186.23803c0,0 1.59236,-4.35008 2.69589,-6.20481c1.03138,-1.73343 3.72352,-4.58426 3.72352,-4.58426" fill="none" stroke-linecap="round"/><path d="M264.49731,189.68416c0,0 1.86887,-5.44562 2.84812,-7.45102c0.72354,-1.48171 2.49599,-3.49309 2.49599,-3.49309" fill="none" stroke-linecap="round"/><path d="M257.9734,179.01598c0,0 5.02227,0.11798 7.41749,0.9311c2.08381,0.70739 6.15014,3.6747 6.15014,3.6747" fill="none" stroke-linecap="round"/><path d="M257.0021,184.43991c0,0 5.51223,0.48244 7.90918,1.03442c1.86328,0.42908 5.27903,2.00266 5.27903,2.00266" fill="none" stroke-linecap="round"/></g><path d="M262.2899,199.30448c-1.40494,2.31699 -4.53721,3.28721 -6.99614,2.16708c-2.45893,-1.12013 -3.89697,-3.36164 -2.49203,-5.67863c1.40494,-2.31699 5.12084,-3.83206 7.57975,-2.71191c2.45893,1.12013 3.31334,3.90647 1.90841,6.22347z" fill="#ffab19" stroke-linecap="butt"/></g><g fill-rule="nonzero" stroke="#001026" stroke-width="1.2" stroke-linecap="butt" stroke-linejoin="miter"><path d="M225.16042,142.93392c-1.63534,4.2758 -21.9111,11.24919 -21.9111,11.24919c0,0 -2.86159,-0.28935 -4.20516,-0.4967c-10.06243,-1.55288 -16.66033,-5.34831 -15.21764,-9.12044c1.63534,-4.2758 12.98264,-6.90249 25.3449,-5.86689c12.36227,1.03559 17.62433,-0.04096 15.98899,4.23482z" fill="#00b0f7"/><path d="M210.06844,137.66312l-11.55032,-4.32557c0,0 14.78767,-5.62147 22.80675,-7.02678c9.69857,-1.69964 31.3101,-2.45699 31.3101,-2.45699l-14.94345,17.06178z" fill="#ff2b2b"/><path d="M200.69183,154.99574c0,0 -2.5243,-7.49118 -2.90391,-11.08346c-0.36826,-3.48503 0.65931,-10.15826 0.65931,-10.15826l26.34648,-2.78403c0,0 0.16298,7.6915 0.54773,11.33245c0.36209,3.42659 1.69688,9.90926 1.69688,9.90926z" data-paper-data="{&quot;index&quot;:null}" fill="#cc0000"/><path d="M226.61518,152.19102c0,0 -0.73876,-6.59312 -1.52803,-9.94718c-0.83864,-3.56389 -3.36472,-10.8449 -3.36472,-10.8449l31.57316,-7.42972c0,0 3.54891,5.87147 4.35164,9.28273c0.82744,3.51624 0.5411,11.50933 0.5411,11.50933z" fill="#f70000"/></g><path d="M217.51759,194.46224c-3.13982,2.68996 -4.38549,6.77385 -6.86113,7.3373c-1.61569,0.36773 -3.38018,0.02797 -4.04666,-0.74996c-0.74282,-0.86704 -1.01133,-3.22194 -0.18598,-5.00092c1.04981,-2.26279 2.07717,-6.2312 4.98223,-8.72003c2.5626,-2.19544 6.8967,-2.7112 9.13279,-3.53184c2.29173,-0.84108 4.00774,0.15705 4.86193,1.1541c0.92221,1.07645 1.22316,2.7937 -0.20263,5.14921c-1.18342,1.9551 -5.32706,2.34585 -7.68056,4.36214z" fill="#ffab19" fill-rule="nonzero" stroke="#001026" stroke-width="1.2" stroke-linecap="butt" stroke-linejoin="miter"/><path d="M249.12551,153.73528c0,-5.06261 4.10406,-9.16667 9.16667,-9.16667c5.06261,0 9.16667,4.10406 9.16667,9.16667c0,5.06261 -4.10406,9.16667 -9.16667,9.16667c-5.06261,0 -9.16667,-4.10406 -9.16667,-9.16667z" fill="#ffffff" fill-rule="nonzero" stroke="#001026" stroke-width="1.2" stroke-linecap="butt" stroke-linejoin="miter"/><path d="M223.45884,155.23528c0,-5.06261 4.10406,-9.16667 9.16667,-9.16667c5.06261,0 9.16666,4.10406 9.16666,9.16667c0,5.06261 -4.10405,9.16667 -9.16666,9.16667c-5.06261,0 -9.16667,-4.10406 -9.16667,-9.16667z" fill="#ffffff" fill-rule="nonzero" stroke="#001026" stroke-width="1.2" stroke-linecap="butt" stroke-linejoin="miter"/><path d="M248.65705,176.55342c-0.37034,1.70924 -3.48762,1.12022 -7.31092,0.29184c-3.8233,-0.82838 -6.90483,-1.58244 -6.53449,-3.29168c0.37034,-1.70924 3.76995,-2.42332 7.59326,-1.59494c3.8233,0.82838 6.62249,2.88553 6.25215,4.59478z" fill="#ffffff" fill-rule="nonzero" stroke="#001026" stroke-width="1.2" stroke-linecap="butt" stroke-linejoin="miter"/></g></g></svg>