<svg version="1.1" xmlns="http://www.w3.org/2000/svg" xmlns:xlink="http://www.w3.org/1999/xlink" width="103.39358" height="148.81175" viewBox="0,0,103.39358,148.81175"><g transform="translate(-170.69942,-90.28928)"><g data-paper-data="{&quot;isPaintingLayer&quot;:true}" fill-rule="nonzero" stroke="none" stroke-linecap="butt" stroke-linejoin="miter" stroke-miterlimit="10" stroke-dasharray="" stroke-dashoffset="0" style="mix-blend-mode: normal"><path d="M194.375,203.25l-19.97279,-43.09463l-3.27721,-26.90537l15.95213,-42.96072l43.04787,33.71072l24.73079,15.19156l19.23722,25.5508l-5.718,39.00764l-9.1865,14.72656l-11.29238,17.96428l-24.48355,2.158l-14.68458,-21.20706l5.14589,-15.47113z" fill="#ffffff" stroke-width="0"/><path d="M239.55772,197.48349c0.95231,0.40835 1.90148,0.73183 2.79314,1.26246l0.50844,0.6325c0,0 0.25675,0.38513 0.0643,0.75198c1.28619,1.04692 2.24751,2.37722 2.46386,4.06523c0.31784,0.06058 0.45869,0.28128 0.52111,0.46499c0.03209,0.08349 0.04967,0.17418 0.04967,0.26897c0,0.03152 -0.00194,0.06258 -0.00572,0.09308l-0.02314,0.37655c0.5024,1.75963 1.32215,3.36517 1.92119,5.07356c0.29881,-0.20575 0.51974,-0.45699 0.52889,-0.87213c0.03115,-1.41362 -0.30711,-2.43664 0.46508,-3.75336c0.43816,-1.12106 -0.70629,-0.93488 -1.28437,-1.84858c-0.95837,-1.51478 -0.66862,-3.36892 0.6861,-4.51399c2.52061,-2.13054 5.65976,-0.75385 8.40749,0.74502c-1.4934,-1.79271 -1.90488,-4.0029 -1.9245,-6.33685c-0.05006,0.05752 -0.09287,0.10248 -0.12661,0.13023c-1.42632,1.17311 -3.16457,2.0952 -4.70503,3.08695c-0.39994,0.25748 -0.8171,0.92039 -1.24093,0.70448c-0.57475,-0.29279 -0.54559,-1.16902 -0.81838,-1.75353c0.13048,-1.27559 0.23112,-2.51063 0.2601,-3.77759c-1.18579,0.92286 -2.50579,1.78062 -3.97753,2.62168c-1.76961,1.0106 -3.79344,1.95838 -5.94511,2.74061c0.14337,0.0501 0.28789,0.10206 0.4332,0.15595c0.31177,-0.59118 0.94876,-0.31818 0.94876,-0.31818zM247.56975,217.67777c-0.68262,-0.21023 -1.14282,-0.43136 -1.52895,-0.76534c-0.26055,1.41661 -0.68283,2.81208 -0.75918,4.27075c-0.14083,2.69039 0.17476,5.26982 -0.41548,7.92848c-0.46671,3.75685 -0.77422,6.96348 -4.75787,8.66509c-1.88523,0.80527 -5.4323,0.86153 -6.91166,-0.71499c-0.57268,0.73271 -1.30111,1.34685 -2.23979,1.77797c-2.94076,1.35066 -8.39659,-2.85986 -9.79474,-5.1903c-1.71088,-3.98143 -1.93226,-8.26273 -0.72335,-12.159c-3.37163,0.00128 -8.11423,0.15628 -8.80866,-4.27852c-0.16519,-1.05492 0.32385,-2.08297 0.57744,-3.08305c1.91515,-3.85682 1.37986,-9.03432 3.73101,-12.59269c0.85134,-1.28847 2.12332,-2.19715 3.2318,-3.25629c-2.28477,-0.71518 -4.56775,-1.83081 -6.20676,-3.44173c0.13565,0.46301 0.2733,0.90723 0.4109,1.32702c0.32586,0.99417 2.21884,3.21859 1.58567,4.37013c-0.4402,0.80057 -1.58967,0.67755 -2.29244,0.68486c-2.73943,-0.01676 -5.89952,-0.85562 -8.05235,-2.61017c-0.78089,-0.63643 -1.46361,-1.50074 -2.0295,-2.31594c-0.31163,-0.44892 -0.32914,-1.69389 -0.80629,-1.42748c-2.03351,1.13539 -1.64999,7.35758 -4.6928,3.6455c-1.7763,-2.13141 -3.16053,-4.4467 -3.79765,-7.19393c-0.30451,-1.31301 -0.1302,-2.81485 -0.85913,-3.97563l-0.17831,-0.0321c0,0 -0.092,-0.06133 -0.1818,-0.17223c-1.59889,0.58484 -4.02747,1.35619 -4.95018,0.71486c-2.3437,-1.62898 -0.16016,-7.45483 0.20596,-9.60691l-0.00256,-0.88409c0,0 0,-0.20183 0.1047,-0.39609c-4.33599,-2.35215 -8.00565,-5.07367 -10.24273,-10.35211c-1.2249,-3.36679 -2.57304,-6.65285 -3.12342,-10.21819c-0.16923,-1.09625 -1.0044,-3.11791 0.19798,-3.98721c0.10702,-0.07737 0.3471,-0.09524 0.64536,-0.07815c-0.42088,-0.72444 -0.94252,-1.43842 -1.20825,-2.13323c-1.2641,-3.30519 -1.76137,-7.06828 -2.3364,-10.54956c-0.091,-0.55092 -0.84202,-2.47016 -0.62006,-2.86297c0.27839,-0.49267 0.98622,-0.55523 1.47933,-0.83285c0.27505,-0.00204 3.60401,0.04603 4.26569,0.69011c-0.1122,-0.70667 -0.2703,-2.21563 -0.27029,-2.25273c0.00015,-1.23016 0.01132,-2.47718 0.29033,-3.68583c0.93015,-4.02927 4.15378,-6.2949 5.89206,-9.79873c4.41584,-6.63827 5.47457,-13.19158 3.31056,-20.75325c-0.40387,-1.21075 -0.74242,-2.33179 -0.96636,-3.59568c-0.14413,-0.81345 -0.66392,-2.54706 -0.20933,-3.30222c1.33422,-2.21638 4.03895,-0.0556 5.15374,1.17605c1.54382,1.70565 1.66361,4.40934 2.07076,6.5812c0.07837,0.41804 0.45411,1.68882 0.60436,2.6982c0.36383,-0.75753 1.27491,-1.18971 2.30198,-0.38494c0.10981,0.08604 1.33647,2.32205 1.35364,2.35655c1.87271,3.76263 -0.35067,11.94824 5.0199,12.83922c3.08045,0.77504 6.17509,-0.53821 9.20878,0.13948c4.66553,1.04223 4.4966,6.65678 4.4966,10.32453v0.13514c0,0 0,0.75 -0.75,0.75c-0.75,0 -0.75,-0.75 -0.75,-0.75v-0.13514c0,-1.22627 -0.13544,-2.42537 -0.13514,-3.64865c0.00188,-7.50602 -7.67809,-4.17953 -12.3757,-5.3468c-5.17349,-0.86609 -4.51162,-6.22395 -5.18167,-10.20558c-0.20205,-1.20064 -0.3235,-2.33528 -0.87952,-3.44168c-0.20184,-0.40163 -0.43964,-0.78416 -0.65572,-1.17831c-0.04415,-0.08053 -0.10053,-0.20596 -0.15572,-0.34292c-0.23933,0.72309 -1.42738,1.46577 -1.67363,1.669c-2.65473,-2.84462 -1.26257,-7.25481 -3.16059,-10.49796c-0.23439,-0.4005 -3.05992,-2.74793 -3.14013,-2.08762c-0.2202,1.81275 0.69881,4.12989 1.25674,5.8048c2.2643,7.93839 1.20557,14.98771 -3.44619,21.94945c-1.68359,3.3429 -4.84625,5.56128 -5.72956,9.39046c-0.32126,1.39269 0.56685,6.48275 -0.61335,7.22697c-0.6309,0.39784 -3.92771,-0.84444 -4.83065,-0.85379c-0.3092,-0.01651 0.36568,2.63032 0.58084,3.55984c0.55622,2.40298 0.76391,4.96919 1.50334,7.33098c0.46354,1.48058 1.52528,2.86734 2.08111,4.31755c0.17931,0.04357 0.31925,0.08201 0.3943,0.10692c2.2815,0.75751 4.32683,2.1766 6.34627,3.43913c1.58659,0.88198 3.19191,1.72013 4.78381,2.57228c0.20049,-1.76799 0.75103,-3.40393 2.14271,-4.75389c1.20789,-1.17168 2.71843,-1.08381 3.65891,-2.67249c0.82438,-1.39256 0.61607,-3.40064 0.86951,-4.93509c1.02319,-3.59451 3.30078,-3.91496 6.54619,-5.1307c4.77201,-1.78762 9.16506,-2.26006 11.78835,-6.9867c2.29603,-3.43973 4.38739,-6.33719 8.28737,-8.12286c0.82854,-0.37936 3.87404,-1.2482 4.70011,-0.59624c0.9831,0.77589 0.05503,4.91812 0.14789,6.14016c7.32484,-1.96344 16.46018,-1.68774 22.11284,3.95012c2.57771,3.08881 4.85949,6.48358 7.91551,9.13268c2.45622,2.12917 4.68632,3.68614 6.01946,6.79286c0.79442,2.64061 1.14623,5.07021 1.36992,7.54827c0.45617,-1.34705 1.20237,-3.31678 1.59228,-3.47546c2.16355,-0.88047 2.92896,2.93894 3.27349,4.23231c0.84632,3.17706 0.51937,6.45727 -0.69047,9.49066c-0.54342,1.90703 -0.87167,3.77563 -1.8575,5.51053c-0.01536,0.12343 -0.07046,0.36686 -0.26821,0.5245c0.00256,0.11443 0.00387,0.22908 0.00387,0.34398c0,0.57014 -0.21718,1.68292 -0.03218,2.21509c0.50675,1.45776 2.75856,3.47626 2.03275,5.27966c-0.68055,1.69095 -2.4422,1.35316 -3.10581,0.01239c0.10722,0.27335 0.33344,1.01557 0.14094,1.84697c-0.31734,1.37054 -0.96675,2.60557 -1.54025,3.86416c0.1458,-0.04937 0.26807,-0.04937 0.26807,-0.04937l0.66547,0.21967c1.11315,1.1356 2.49753,1.45418 3.37541,2.88218c1.28291,2.56439 2.38065,6.24732 0.48647,8.89749c-1.8115,2.53451 -5.61453,2.74971 -8.51037,1.89212c-0.0588,0.08943 -0.12465,0.15533 -0.19352,0.20307c0.40487,0.26266 0.81298,0.5204 1.22633,0.76943c1.83928,1.46971 3.26464,4.73831 1.67353,6.9907c-0.92911,1.31526 -2.5389,0.68335 -3.43412,1.42187c-0.09556,0.07883 -0.24958,2.64992 -0.4071,3.03076c-0.92599,2.23884 -2.04033,2.97506 -4.00349,3.9552c0.00652,0.0504 0.00652,0.08212 0.00652,0.08212c-0.00262,1.54865 0.49744,5.66768 -0.40032,6.90858c-0.31406,0.4341 -1.11014,0.68811 -2.07478,0.77712c2.72211,4.34204 10.37686,-3.47522 12.96463,3.12349c0.34367,0.87635 0.33749,1.31731 0.45497,2.25232c-0.18449,6.8277 -9.9945,0.52245 -12.55695,4.51668l-0.04766,0.22655c0,0 -0.23717,0.71151 -0.94868,0.47434c-0.71151,-0.23717 -0.47434,-0.94868 -0.47434,-0.94868l0.22261,-0.58426c2.24742,-3.27809 5.39935,-1.82213 8.86669,-1.82046c1.61893,0.00078 3.52771,0.18059 3.44123,-1.77096c-0.85983,-6.92267 -7.03393,-1.5063 -11.20841,-2.56706c-1.33359,-0.33888 -1.88549,-1.75931 -2.37705,-2.85061c0,0 -0.00824,-0.01853 -0.01895,-0.05085c-1.68931,-0.13913 -3.37144,-0.68004 -3.76038,-1.56094c-0.59699,-1.3521 1.41195,-3.39759 2.04016,-4.43966c0.3234,-0.75508 0.54456,-1.44176 0.69337,-2.22797c-0.40786,-0.28495 -0.7735,-0.65024 -1.11257,-1.10069c-0.27695,0.16081 -0.60556,0.06692 -0.60556,0.06692zM224.60703,216.77887c0.22189,0.05931 0.54038,0.22956 0.54038,0.7183c0,0.75 -0.75,0.75 -0.75,0.75l-0.66547,-0.21967c-0.00259,-0.00263 -0.00517,-0.00526 -0.00776,-0.00789c-2.89411,4.3926 -3.37904,9.90873 -1.22657,14.94693c1.24102,2.06816 3.64732,3.23024 5.81965,4.10165c0.4227,0.16956 1.48736,0.71584 1.95318,0.43778c0.68612,-0.40957 1.64737,-1.38281 2.20261,-1.97919c1.24958,-1.34217 1.34244,-4.52262 1.5864,-6.23727c0.32284,-2.56771 0.51061,-4.94507 0.53188,-7.51645c-1.44234,-0.19898 -2.89834,-0.78995 -4.27849,-1.7737c0,0 -0.6103,-0.43593 -0.17437,-1.04623c0.43593,-0.6103 1.04623,-0.17437 1.04623,-0.17437c3.52743,2.5253 7.63837,2.12737 10.24169,-1.74624l0.23249,-0.71847c0,0 0.23717,-0.71151 0.94868,-0.47434c0.71151,0.23717 0.47434,0.94868 0.47434,0.94868l-0.30805,0.90315c-1.74374,2.63041 -4.14177,4.01417 -6.6831,4.14675c-0.02449,2.61074 -0.22042,5.04108 -0.54457,7.65032c-0.28382,1.97929 -0.57898,4.27006 -1.48582,6.16236c0.21915,1.51065 4.28583,1.27566 5.43701,0.75581c3.50333,-1.58202 3.47155,-4.21677 3.89078,-7.55113c0.57678,-2.59293 0.25636,-5.12001 0.39533,-7.74719c0.11938,-2.25683 1.12084,-4.40502 0.9469,-6.66623c-0.16495,-2.1443 -1.45517,-3.69765 -1.75676,-5.81081c0.00821,-1.48157 1.07078,-2.64655 0.94661,-4.04536c-0.30466,-3.43217 -4.61229,-5.06243 -7.34155,-5.88121l-0.85915,-0.25775c-4.46547,1.29055 -9.25458,1.76319 -13.35193,0.59252c-0.28393,-0.04711 -0.57322,-0.10046 -0.86636,-0.16029c-0.0805,0.06631 -0.14681,0.09947 -0.14681,0.09947c-0.91924,0.44365 -1.2187,1.02164 -2.02149,1.55257c-0.46191,0.30549 1.13249,-0.44548 1.6447,-0.23491c0.68755,0.28266 1.70897,4.24015 2.73041,1.09446l0.11298,-0.34714c0,0 0.23717,-0.71151 0.94868,-0.47434c0.71151,0.23717 0.47434,0.94868 0.47434,0.94868l-0.15729,0.46367c-0.35943,0.73634 -1.4608,1.86315 -2.58948,2.08652c-1.03564,2.28126 -1.14057,5.26415 -0.42434,7.95853l0.41304,0.23261c0,0 0.64312,0.38587 0.25725,1.02899c-0.05581,0.09301 -0.117,0.1645 -0.18084,0.21875c0.49639,1.24072 1.18213,2.36925 2.04464,3.27168zM220.89436,213.23986c-0.4241,0.03137 -0.84688,0.08333 -1.26879,0.13666c0,0 -0.74421,0.09303 -0.83723,-0.65118c-0.09303,-0.74421 0.65118,-0.83723 0.65118,-0.83723c0.34925,-0.0432 0.70043,-0.07532 1.05227,-0.095c-0.61915,-2.75053 -0.47567,-5.69165 0.53647,-8.10427c-0.40276,-0.53444 0.1588,-2.02545 -0.50838,-1.96392c-1.31653,0.12143 -2.01145,-0.14576 -2.2644,-0.60328c-0.39578,0.38584 -0.76454,0.79512 -1.07486,1.25547c-2.27127,3.36946 -1.70363,8.57422 -3.56629,12.27217c-1.2571,5.10863 2.75853,5.34114 6.86415,5.34114l0.35864,-0.11274c0,0 0.08409,-0.02102 0.20225,-0.02019c0.4496,-1.0514 1.00959,-2.06536 1.6787,-3.02706c-0.77762,-1.06449 -1.38966,-2.28941 -1.82372,-3.59057zM250.39013,217.31011c0.26661,0.06665 0.41111,0.20657 0.48718,0.35712c0.88508,0.28147 1.87796,0.35316 2.88277,0.19779c1.84103,-0.93419 2.99633,-1.69115 3.5581,-3.92701c0.18912,-0.75272 -0.12588,-2.15695 0.43869,-2.75114c0.59144,-0.62247 2.10605,-0.53989 2.87669,-0.95467c1.89742,-1.02124 0.31023,-4.29504 -0.85349,-5.22736c-0.47149,-0.28164 -0.93308,-0.58006 -1.38784,-0.88798l-0.71847,-0.23249c0,0 -0.71151,-0.23717 -0.47434,-0.94868c0.09185,-0.27556 0.25486,-0.40883 0.42012,-0.46869c-2.54526,-1.46386 -5.96259,-3.73515 -8.42231,-1.82225c-2.16744,1.6856 1.51035,3.7929 1.02335,5.79959c-0.72971,1.18535 -0.19742,2.01373 -0.34574,3.27366c-0.1344,1.14173 -1.20834,1.50998 -1.80259,1.9973c-0.04757,0.12784 -0.13881,0.25412 -0.30557,0.34498c-0.03925,0.07188 -0.06644,0.14854 -0.07891,0.23168c-0.36328,2.42219 0.68074,4.1409 2.31359,5.00851c0.10787,-0.02667 0.23635,-0.02848 0.38877,0.00963zM259.53255,193.63906c0.07794,0 0.14779,0.0081 0.21037,0.02262c-0.03849,-0.13011 -0.03881,-0.28954 0.03333,-0.48191c0.07917,-0.21113 0.19802,-0.33498 0.32553,-0.40495c0.32079,-0.77456 0.65301,-1.55696 1.02909,-2.3063c0.63666,-2.2142 2.05651,-4.11928 2.38926,-6.45791c0.09693,-0.68123 0.14404,-2.33624 0.95943,-2.64486c0.60956,-0.23072 1.66886,1.12558 1.96496,1.60652c0.12906,0.20963 -0.1392,-0.47225 -0.20947,-0.70819c-0.16222,-0.54472 -0.28156,-1.10528 -0.49864,-1.63056c-0.78938,-1.9101 -1.41332,-2.71691 -1.41332,-4.89311c0,-3.61117 -1.34176,-7.00395 -1.61907,-10.61382c-0.3564,-4.63955 -0.35951,-8.51986 -1.71431,-13.04922c-1.22233,-2.85644 -3.34725,-4.2199 -5.60216,-6.18011c-3.09505,-2.69055 -5.4216,-6.11028 -8.03044,-9.24569c-6.1299,-6.15015 -14.02264,-3.93147 -21.67094,-3.61745c-0.98861,-1.42645 -1.0331,-3.06834 -0.81806,-4.80798c0.06314,-0.5108 0.93847,-1.44342 0.42541,-1.48429c-4.84448,-0.386 -8.50229,4.86271 -10.79629,8.30793c-2.82564,5.08115 -7.43466,5.69293 -12.53598,7.60789c-2.76706,1.03871 -4.76265,1.08429 -5.61598,4.05849c-0.29094,1.72552 -0.10922,3.75261 -1.02239,5.33518c-0.86962,1.5071 -1.96299,1.91408 -3.41929,2.59876c-1.70209,0.80024 -2.14985,3.01856 -2.26158,4.87153c3.29371,1.80379 6.4872,3.74377 9.28969,6.34277c0.08147,-0.41342 0.1719,-0.82124 0.27197,-1.22266c0.04321,-0.26046 0.08642,-0.52093 0.12963,-0.78139l0.13514,-0.81081c0,0 0.1233,-0.7398 0.86309,-0.6165c0.7398,0.1233 0.6165,0.86309 0.6165,0.86309l-0.13514,0.81081c-0.04688,0.28008 -0.09376,0.56016 -0.14064,0.84023c-1.53536,6.12328 -0.75259,13.83628 -0.12314,20.04292c0,0 0.07463,0.74628 -0.67165,0.82091c-0.74628,0.07463 -0.82091,-0.67165 -0.82091,-0.67165c-0.37752,-3.83401 -0.81489,-8.20579 -0.76111,-12.44912l-0.72568,-0.14761c-1.755,-0.50143 -3.45786,-1.02919 -4.78902,-2.3583c-0.59619,-0.59527 -0.88351,-1.61885 -1.47554,-2.15122c-1.82214,-1.63853 -5.9933,-1.68011 -8.25912,-1.67783c0,0 -0.75,0 -0.75,-0.75c0,-0.75 0.75,-0.75 0.75,-0.75c2.72501,0.00258 7.14265,0.15568 9.30844,2.10595c2.15283,1.9386 2.52471,3.25266 5.62733,4.13912l0.35511,0.06958c0.05095,-1.19262 0.14676,-2.36846 0.30003,-3.51231c-0.026,-0.02137 -0.04015,-0.03553 -0.04015,-0.03553c-2.67455,-2.68989 -5.79965,-4.66551 -9.04534,-6.46123c-0.07664,0.21203 -0.25929,0.46468 -0.6946,0.46468c-0.75,0 -0.75,-0.75 -0.75,-0.75c0.00015,-0.16649 0.00158,-0.33239 0.00466,-0.4976c-1.81207,-0.97096 -3.6462,-1.91091 -5.44646,-2.91043c-1.76903,-1.10533 -3.4489,-2.06236 -5.33997,-2.93861c-0.07435,-0.03445 -0.17757,-0.08555 -0.29954,-0.14604c-0.0384,0.21444 -0.18401,0.62106 -0.73625,0.62106c-0.75,0 -0.75,-0.75 -0.75,-0.75c0.00733,-0.18034 -0.01016,-0.36052 -0.04722,-0.54039c-0.17943,-0.05236 -0.32714,-0.07427 -0.41633,-0.04655c-0.50184,0.15598 0.23579,1.0246 0.33117,1.5414c0.13219,0.71632 0.11818,1.0445 0.26532,1.73066c0.6803,3.17236 1.80381,6.08568 2.90871,9.12571c2.92355,6.90223 8.56107,9.1676 14.80053,12.24809l0.48602,0.31705c0,0 0.62404,0.41603 0.20801,1.04006c-0.41603,0.62404 -1.04006,0.20801 -1.04006,0.20801l-0.32479,-0.22349c-1.33104,-0.67258 -2.63284,-1.30755 -3.88842,-1.95346l-0.0017,0.66882c-0.33749,2.06165 -1.08463,4.22004 -1.07853,6.28949c0.00083,0.28153 -0.08467,1.73444 0.20341,1.94144c0.51475,0.36986 4.16387,-1.07768 4.72919,-1.29233c0,0 0.70225,-0.26334 0.96559,0.4389c0.11871,0.31657 0.0412,0.54395 -0.07974,0.69822l0.15575,0.1252c0.80566,1.38699 0.68207,2.87413 1.03276,4.40275c0.58171,2.53558 1.86574,4.62902 3.49965,6.58985c0.1094,0.14131 0.02842,0.71106 0.05067,0.53374c0.152,-1.21139 2.06886,-4.55945 3.36463,-4.72608c1.43256,-0.18421 2.92497,3.27566 3.92097,4.09442c1.84572,1.51727 4.72784,2.27217 7.08279,2.2547c0.32053,0.00449 1.09202,0.4321 0.9508,0.14432c-2.18649,-4.45574 -3.97839,-10.76193 -3.9981,-15.88081c0,0 0,-0.75 0.75,-0.75c0.75,0 0.75,0.75 0.75,0.75c-0.00521,1.16167 0.10893,2.47871 0.30388,3.84602c0.01494,-0.01005 0.03051,-0.01995 0.04674,-0.02968c0.64312,-0.38587 1.02899,0.25725 1.02899,0.25725c2.76536,4.61717 10.19929,6.66467 15.07821,8.30664c6.84132,1.1428 12.36092,-1.51107 18.08885,-4.78417c5.06999,-3.02644 6.77464,-6.94655 8.58642,-12.42782l0.13514,-0.40541c0,0 0.0148,-0.0444 0.0481,-0.10733c-0.02174,-0.12625 -0.04518,-0.24722 -0.07777,-0.35162c-0.47645,-1.5265 -0.28147,-3.53888 -0.27909,-5.11469c0.00515,-3.41554 -1.39954,-6.25872 -3.55505,-8.78509c-1.54637,-1.24084 -3.02706,-2.55555 -4.78659,-3.53427c-0.11508,-0.06401 0.23364,0.19054 0.22869,0.32213c-0.02701,0.71881 -0.34045,1.39884 -0.55609,2.08508c-0.43659,1.38938 -1.49732,4.42634 -3.49607,4.00982c-1.2438,-0.25919 -3.46187,-4.64492 -4.32602,-3.91192c-3.01755,3.01755 -7.60182,5.59418 -12.02132,5.9671c-0.86419,0.07292 -3.13795,0.12589 -3.66435,-0.4749c-0.50346,-0.5746 0.39141,-2.48455 1.20651,-3.73351c-4.32335,2.30752 -7.95499,3.26758 -8.75756,8.99735c-0.53897,2.96423 -0.45282,5.09794 -0.26117,8.05041c0.05876,0.90523 0.01206,2.27297 -1.12709,2.68629c-0.67893,0.24634 -1.65608,-1.06098 -1.98252,-1.50607c-1.5773,-2.15057 -2.70687,-4.43793 -3.4898,-6.97888c0,0 -0.22056,-0.71683 0.49627,-0.9374c0.71683,-0.22056 0.9374,0.49627 0.9374,0.49627c0.5234,1.70353 1.13669,3.17755 2.08133,4.68793c0.29072,0.46483 0.83665,1.362 1.18563,1.8467c0.20058,0.27858 0.53044,1.26007 0.44991,0.92637c-0.76876,-3.18536 -0.34514,-6.35176 0.22947,-9.51221c0.96738,-6.6177 5.23428,-7.60988 10.34236,-10.52519l0.78613,-0.52408c0.12072,-0.08304 0.26696,-0.13165 0.42456,-0.13165c0.41421,0 0.75,0.33579 0.75,0.75c0,0.08105 -0.01286,0.15909 -0.03664,0.23221l-0.4004,1.33465l-0.11694,-0.03508c-0.11912,0.58049 -0.29478,1.13988 -0.57813,1.84822c-0.18548,0.46368 -1.36883,1.31581 -0.88027,1.21232c5.12514,-1.0856 9.68714,-2.04278 13.50351,-5.85915c2.69528,-1.42955 3.90506,2.14195 5.67398,3.65565c0.32514,0.27823 0.55246,-0.65856 0.77122,-1.02636c0.74492,-1.25247 0.92883,-2.61032 1.39283,-3.95982c0.15087,-0.43878 0.0561,-1.16104 0.49896,-1.29949c2.11764,-0.66205 5.17534,2.65495 6.56476,3.76302c2.44149,2.83617 4.00712,6.02513 4.01251,9.86356c0.00152,1.08342 0.05675,2.11981 0.13369,3.19664c0.03013,0.42171 -0.11789,1.3929 -0.19131,1.82566c0.24825,-0.96879 1.87827,-2.45867 2.48297,-3.16354c1.40298,-2.34562 1.46746,-5.31124 1.08347,-7.96029l-0.13375,-0.8022c0,0 -0.1233,-0.7398 0.6165,-0.86309c0.7398,-0.1233 0.86309,0.6165 0.86309,0.6165l0.13652,0.81942c0.43408,3.07821 0.28259,6.35383 -1.34896,9.06674c-0.74139,0.86571 -2.0863,3.21263 -3.53962,3.69971l-0.00595,0.01785c-0.2744,0.81534 -0.54724,1.59791 -0.82835,2.34982c0.31939,0.31517 0.14341,0.78446 0.14341,0.78446c-1.31278,3.49955 -3.04674,6.07924 -5.38477,8.24468c0.0001,0.0036 0.0001,0.00549 0.0001,0.00549v0.54054c0,1.31143 -0.06978,2.57233 -0.20926,3.86425c1.1167,-0.99754 3.21808,-1.71016 4.25403,-2.55236c0.47716,-0.38792 0.72043,-1.03538 1.23754,-1.36819c2.45547,-1.58036 3.35874,0.72325 4.54003,2.14921c0.03276,-0.00332 0.06717,-0.00506 0.10333,-0.00506zM259.4642,198.81945c0,0 -0.10607,0.74246 -0.84853,0.6364c-0.74246,-0.10607 -0.6364,-0.84853 -0.6364,-0.84853c0.05381,-0.37207 0.12647,-0.73859 0.20775,-1.10268c-0.54372,-0.20537 -1.08299,-0.42881 -1.61835,-0.67183c0.2792,1.04137 0.76887,2.00593 1.60232,2.83674c0,0 0.48775,0.48775 0.05997,0.99549c0.18048,0.021 0.31447,0.09544 0.31447,0.09544c2.12409,1.20422 6.6691,1.76201 8.35166,-0.72886c1.49398,-2.21169 0.45801,-5.21225 -0.5849,-7.2993c-0.65101,-1.13291 -1.93996,-1.52033 -2.90808,-2.34785c-0.16992,-0.04021 -0.41219,-0.14546 -0.51651,-0.42087c-0.13542,0.34383 -0.25763,0.69238 -0.35877,1.04871c-0.19932,0.40008 -0.47001,1.26891 -0.81853,2.13992c0.33533,0.15806 0.66701,0.33126 0.99093,0.51891c0.00016,-0.03091 0.00024,-0.06187 0.00024,-0.09288c0,0 0,-0.75 0.75,-0.75c0.75,0 0.75,0.75 0.75,0.75c0,0.37094 -0.01061,0.7351 -0.0313,1.09411c0.26564,0.21316 0.51923,0.43763 0.75757,0.67286l0.40541,0.40541c0,0 0.53033,0.53033 0,1.06066c-0.53033,0.53033 -1.06066,0 -1.06066,0l-0.29951,-0.29951c-0.05133,0.32786 -0.11086,0.6536 -0.17813,0.97861c0.15142,0.02696 0.30328,0.05288 0.4556,0.0778l0.75265,0.33925c0,0 0.67082,0.33541 0.33541,1.00623c-0.33541,0.67082 -1.00623,0.33541 -1.00623,0.33541l-0.32843,-0.2013c-0.18772,-0.03179 -0.37478,-0.06493 -0.5612,-0.09946c-0.14693,0.5357 -0.31291,1.07496 -0.49588,1.62386l0.03849,0.16823c0,0 0,0.75 -0.75,0.75c-0.75,0 -0.75,-0.75 -0.75,-0.75l0.03849,-0.64258c0.1641,-0.49231 0.31383,-0.97555 0.44737,-1.45506c-0.79792,-0.18433 -1.58463,-0.39775 -2.36162,-0.64443c-0.05647,0.2716 -0.10637,0.54489 -0.14528,0.82111zM256.35445,195.0696c0.71995,0.36064 1.44726,0.68218 2.18331,0.96807c0.0851,-0.35958 0.16513,-0.72087 0.23017,-1.08689c-0.76118,-0.87688 -1.32582,-2.42488 -2.50065,-2.51474c-0.0804,-0.00615 -0.17141,0.02576 -0.26864,0.08449c0.48777,0.25355 0.3426,0.83422 0.3426,0.83422l-0.11274,0.35864c0,0.44615 0.01298,0.88878 0.04702,1.32443c0.04955,0.01709 0.07893,0.03178 0.07893,0.03178zM262.32508,197.19229c0.12459,-0.60126 0.22062,-1.2052 0.28449,-1.82249c-0.4879,-0.3314 -1.01098,-0.62266 -1.53897,-0.86796c-0.26079,0.44044 -0.55079,0.79042 -0.87139,0.94953c-0.07265,0.36601 -0.15838,0.7281 -0.24658,1.08923c0.77984,0.25233 1.57013,0.46826 2.37245,0.65168zM266.52557,168.87619c0.93536,-2.33145 1.46658,-5.06875 0.92134,-7.57764c-0.19788,-0.91052 -0.44234,-1.85244 -0.77757,-2.72402c-0.09509,-0.24724 -0.30996,-0.68987 -0.47147,-1.06246c-0.21498,0.93731 -1.21805,2.62182 -1.34313,3.13999c0,0 -0.1819,0.72761 -0.90951,0.54571c-0.00409,-0.00102 -0.00816,-0.00206 -0.0122,-0.00312c0.08618,1.23077 0.16266,2.49017 0.26587,3.80825c0.20004,2.55473 0.91402,4.99322 1.3257,7.48176c0.41038,-1.16963 0.65261,-2.39206 1.00097,-3.60845zM212.65747,192.10198l0.24792,0.27959c1.8577,3.11231 6.38677,4.62469 9.79208,5.19477c2.20908,0.63116 4.63213,0.75433 7.09102,0.51631c-0.83893,-0.03795 -1.69527,-0.12714 -2.57188,-0.273c-5.03121,-1.66302 -12.21944,-3.76716 -15.50628,-8.24544c0.14174,0.76982 0.30327,1.54149 0.47806,2.2972c0.27297,0.03445 0.46908,0.23057 0.46908,0.23057z" fill="#9966ff" stroke-width="0.5"/><path d="M220.50552,178.09852c0.75,0 0.75,0.75 0.75,0.75l-0.03849,0.16823c0.18051,0.5625 0.49756,1.08002 0.84473,1.558c0,0 0.10499,0.14699 0.13979,0.34822c1.25831,-0.01068 2.50066,-0.09927 3.67219,-0.37195c2.2025,-0.51266 4.51432,-1.23197 6.79394,-1.23628h0.94595c0.41421,0 0.75,0.33579 0.75,0.75c0,0.37645 -0.27735,0.68812 -0.63886,0.74182l-0.79865,0.13311l-0.02082,-0.12493h-0.01055c-3.90884,1.81874 -9.84429,2.30321 -14.05278,1.51078c-0.62024,-0.01312 -1.23779,-0.02429 -1.84995,-0.02429c0,0 -0.71508,0 -0.74877,-0.69823c-0.10371,-0.12947 -0.17034,-0.31539 -0.12616,-0.58048c0.09531,-0.57188 0.55903,-0.628 0.76462,-0.62402c-0.31268,-0.41623 -0.62663,-0.83133 -0.91913,-1.26909l-0.18192,-0.35089c0,0 -0.33541,-0.67082 0.33541,-1.00623c0.67082,-0.33541 1.00623,0.33541 1.00623,0.33541l0.08835,0.18966c0.55796,0.83902 1.19666,1.5942 1.75676,2.43243c0,0 0.02449,0.03674 0.05267,0.09832c0.04472,0.00835 0.08951,0.01648 0.13437,0.0244c0.43858,0.01612 0.88065,0.0332 1.32384,0.04663c-0.27574,-0.44575 -0.51519,-0.91502 -0.68427,-1.40805l-0.03849,-0.64258c0,0 0,-0.75 0.75,-0.75z" fill="#9966ff" stroke-width="0.5"/><path d="M238.71293,189.82757c0.23717,-0.71151 0.94868,-0.47434 0.94868,-0.47434l0.86065,0.28887c2.78037,1.98628 -0.37645,2.86533 -2.29645,3.18395c-3.10607,0.77652 -6.41782,1.13888 -9.47331,-0.03324c-1.64618,-0.6315 -4.75089,-2.29428 -6.23016,-0.71125c0,0 -0.53033,0.53033 -1.06066,0c-0.53033,-0.53033 0,-1.06066 0,-1.06066c2.71529,-2.60142 6.50156,0.23396 9.47053,0.8779c2.25283,0.48862 4.79375,0.00728 6.98816,-0.54132c0.20805,-0.03481 1.43609,-0.25286 1.98725,-0.34299l-0.72035,-0.23823c0,0 -0.71151,-0.23717 -0.47434,-0.94868z" fill="#9966ff" stroke-width="0.5"/><path d="M252.39256,179.18879c0.33541,0.67082 -0.33541,1.00623 -0.33541,1.00623l-0.31024,0.15367c-0.2912,0.12474 -0.57621,0.24554 -0.86047,0.35868c-0.09883,0.17246 -0.26419,0.3019 -0.46108,0.35334l-0.93,0.26572l-0.03916,-0.13707c-0.23374,0.0611 -0.4726,0.11361 -0.71926,0.15572c0,0 -0.20937,0.03489 -0.42391,-0.04382c-0.75182,0.03831 -1.53913,-0.12219 -2.60807,-0.30677c-0.02644,-0.00328 -0.05283,-0.00666 -0.07915,-0.01014c-0.21987,0.43189 -0.75385,0.36514 -0.75385,0.36514c-0.71158,-0.09535 -1.42697,-0.27212 -2.07293,-0.58553l-0.75751,-0.2525c-0.30647,-0.09425 -0.52924,-0.3796 -0.52924,-0.71698c0,-0.3893 0.29661,-0.70933 0.67617,-0.74641l1.20722,-0.13414l0.03637,0.32733c1.29478,-0.13592 2.55953,0.05901 3.89105,0.20615c0,-0.19963 0,-0.39925 0,-0.59888v-0.81081c0,0 0,-0.75 0.75,-0.75c0.75,0 0.75,0.75 0.75,0.75c0,0.24676 0,1.16942 0,1.53376c0.19829,0.00866 0.39864,0.01353 0.60135,0.01353h0.18683c0.51877,-0.17213 1.01872,-0.38947 1.54476,-0.61503l0.2303,-0.1166c0,0 0.67082,-0.33541 1.00623,0.33541z" fill="#9966ff" stroke-width="0.5"/><path d="M224.39147,169.86802c0.75,0 0.75,0.75 0.75,0.75l-0.00754,0.2412c-0.63657,4.25086 -5.6611,5.67389 -9.40295,6.30941c0,0 -0.7398,0.1233 -0.86309,-0.6165c-0.1233,-0.7398 0.6165,-0.86309 0.6165,-0.86309c2.96038,-0.48288 7.70126,-1.592 8.16462,-5.04195l-0.00754,-0.02907c0,0 0,-0.75 0.75,-0.75z" fill="#9966ff" stroke-width="0.5"/><path d="M253.53328,206.48422c-0.12769,-0.03318 -0.26104,-0.11166 -0.38771,-0.26366c-0.48014,-0.57617 0.09603,-1.0563 0.09603,-1.0563c0.30866,-0.25157 0.61731,-0.50314 0.92597,-0.75471l0.14366,-0.00878l-0.01584,-0.04753l0.7942,-0.26473c0.07926,-0.0285 0.16471,-0.04402 0.25378,-0.04402c0.41421,0 0.75,0.33579 0.75,0.75c0,0.12597 -0.03106,0.24468 -0.08593,0.34891l-0.39866,0.79732l-0.12925,-0.06463c-0.12776,0.31388 -0.28785,0.61029 -0.49645,0.87341l-0.72079,0.28148c0,0 -0.60749,0 -0.729,-0.54674z" fill="#9966ff" stroke-width="0.5"/><path d="M234.18795,206.14582c0,-0.75 0.75,-0.75 0.75,-0.75h0.13514c3.03475,0.00576 -0.74857,-0.29363 -0.74831,-1.76723c0.00014,-0.82821 1.73465,-1.9136 2.50992,-1.60196c0.15492,0.06227 -0.30993,-0.13514 -0.47533,-0.15802c-0.44899,-0.06211 -0.90645,0.01298 -1.35956,0.02466c-0.70877,0.01827 -1.1969,0.85627 -1.74388,1.31521c0,0 -0.57617,0.48014 -1.0563,-0.09603c-0.48014,-0.57617 0.09603,-1.0563 0.09603,-1.0563c0.48547,-0.40138 1.34643,-1.06086 2.27515,-1.48878c-0.66139,-0.03111 -1.33613,0.05007 -1.97743,0.21346c-1.21067,0.44902 -2.84015,1.19114 -3.30335,2.5171c-1.05516,3.02046 2.4033,8.11914 5.64794,8.04384c0,0 0.75,0 0.75,0.75c0,0.75 -0.75,0.75 -0.75,0.75c-4.22468,-0.06729 -8.53425,-5.98326 -7.05477,-10.06426c0.6578,-1.81447 2.57902,-2.79134 4.26421,-3.42885c2.49183,-0.61362 5.17317,-0.25518 6.89522,1.87615c2.48696,3.07802 2.72178,8.63849 -1.5702,10.09199l-0.17203,0.09444c0,0 -0.67082,0.33541 -1.00623,-0.33541c-0.33541,-0.67082 0.33541,-1.00623 0.33541,-1.00623l0.36851,-0.17583c3.09392,-1.01143 2.715,-4.91738 1.20249,-7.26801c-0.00714,0.02413 -0.0152,0.04803 -0.02423,0.07169c-0.18287,0.47927 -1.0351,0.99935 -1.662,1.1331c0.8098,0.51348 1.93358,1.57518 1.05192,2.62843c-0.4239,0.5064 -1.82527,0.43572 -2.49317,0.43685h-0.13514c0,0 -0.75,0 -0.75,-0.75z" fill="#9966ff" stroke-width="0.5"/></g></g></svg>