<svg version="1.1" xmlns="http://www.w3.org/2000/svg" xmlns:xlink="http://www.w3.org/1999/xlink" width="139.06596" height="153.90244" viewBox="0,0,139.06596,153.90244"><defs><linearGradient x1="183.22208" y1="144.36998" x2="187.41837" y2="190.94668" gradientUnits="userSpaceOnUse" id="color-1"><stop offset="0" stop-color="#cc2981"/><stop offset="1" stop-color="#a92292"/></linearGradient><linearGradient x1="293.24705" y1="143.95912" x2="285.65191" y2="190.10358" gradientUnits="userSpaceOnUse" id="color-2"><stop offset="0" stop-color="#cc2981"/><stop offset="1" stop-color="#a92292"/></linearGradient><linearGradient x1="279.40135" y1="213.14454" x2="279.40135" y2="237.25755" gradientUnits="userSpaceOnUse" id="color-3"><stop offset="0" stop-color="#9966ff"/><stop offset="1" stop-color="#66ebff"/></linearGradient><linearGradient x1="309.62404" y1="208.89782" x2="309.62404" y2="237.33108" gradientUnits="userSpaceOnUse" id="color-4"><stop offset="0" stop-color="#9966ff"/><stop offset="1" stop-color="#66ebff"/></linearGradient></defs><g transform="translate(-174.42224,-84.54674)"><g data-paper-data="{&quot;isPaintingLayer&quot;:true}" fill-rule="nonzero" stroke-miterlimit="10" stroke-dasharray="" stroke-dashoffset="0" style="mix-blend-mode: normal"><g data-paper-data="{&quot;index&quot;:null}" stroke="#000000" stroke-width="0.90024" stroke-linecap="round" stroke-linejoin="miter"><path d="M272.65979,162.45834c0,0 3.73839,-13.08558 3.98279,-13.73801c0.24435,-0.65229 1.61615,-6.41877 10.65253,-12.53528c0,0 7.19092,30.77732 -4.27635,44.16293c-0.00039,-0.00081 -2.46078,-8.61234 -10.35897,-17.88965zM272.82475,162.65458c-0.63464,-0.77604 -2.01856,-2.01956 -2.01856,-2.01956M283.35168,182.81317c0,0 -0.08568,-1.60075 -0.33332,-2.46598" fill="#be1e2d"/><path d="M286.70202,173.1808c0,0 -1.99775,-0.41443 -3.94714,-4.01457c-1.21288,-2.2314 -2.225,-6.88117 -2.225,-6.88117l-0.01671,0.17207c0.28005,-1.04362 0.53494,-2.22805 0.68622,-3.46543c0.25775,-2.09401 0.3046,-5.07003 0.26756,-7.96347l0.01368,-0.40767c0,0 0.85336,-5.68467 6.64497,-9.15467l0.0881,0.00436c0.76663,4.83669 1.68141,12.03197 1.42352,17.37437c-0.28911,5.99274 -1.61257,10.88372 -3.00017,14.47462l0.06499,-0.13844v0v0v0v0v0zM279.22432,166.01633c0,0 1.11948,-3.10319 1.30557,-3.73127" fill="#929497"/></g><g data-paper-data="{&quot;index&quot;:null}" stroke="#000000" stroke-width="0.90024" stroke-linecap="round" stroke-linejoin="miter"><path d="M190.89709,181.64976c-10.79977,-13.92871 -2.11593,-44.31859 -2.11593,-44.31859c8.72686,6.55093 9.8157,12.37746 10.02837,13.04011c0.21262,0.66274 3.30779,13.91595 3.30779,13.91595c-8.34262,8.88128 -11.22022,17.36252 -11.22022,17.36252zM204.05635,162.55682c0,0 -1.44294,1.17453 -2.1146,1.91873M190.89709,181.64976c-0.28965,0.85207 -0.45324,2.44678 -0.45324,2.44678" fill="#be1e2d"/><path d="M187.62561,174.45363c-1.21033,-3.65511 -2.2928,-8.60441 -2.2905,-14.6038c0.00226,-5.34904 1.26788,-12.49065 2.26949,-17.28423l0.08829,-0.00001c5.61577,3.74964 6.19041,9.46796 6.19041,9.46796l-0.00623,0.40785c-0.17825,2.88813 -0.27655,5.86295 -0.12128,7.96704c0.09073,1.24329 0.28754,2.43874 0.51633,3.49478l-0.00829,-0.17268c0,0 -1.23777,4.59486 -2.55816,6.76437c-2.12262,3.50081 -4.1383,3.81722 -4.1383,3.81722zM194.26383,163.73055c0.15521,0.63641 1.12197,3.79052 1.12197,3.79052" fill="#929497"/></g><path d="M191.78884,143.70582c0,0 3.48782,-39.23879 51.32702,-38.5685c32.82716,0.45995 43.6696,39.36951 43.6696,39.36951" data-paper-data="{&quot;index&quot;:null}" fill="none" stroke="#000000" stroke-width="7" stroke-linecap="round" stroke-linejoin="miter"/><path d="M234.23992,208.42785v0v0v0v0v0c0.90541,1.61585 2.10786,4.93571 2.05531,6.07006c0,0 -0.40683,4.42866 -2.81142,4.75696c-1.02744,0.14069 -1.88037,-0.32395 -2.59221,-1.24053c-0.39543,0.13172 -0.99574,0.24423 -1.54132,-0.07543c-0.90564,-0.52873 0.29931,-2.36084 0.29931,-2.36084l0.01136,0.01511c-0.10328,-0.3007 -0.20183,-0.60395 -0.29485,-0.93277c-0.52027,-1.86158 -0.75258,-4.74513 -0.94762,-6.30602c0,0 -0.20682,-1.35045 1.08684,-2.28281c1.3761,-0.99211 3.8292,0.74042 4.7346,2.35627z" data-paper-data="{&quot;index&quot;:null}" fill="#be1e2d" stroke="#231f20" stroke-width="0.78672" stroke-linecap="round" stroke-linejoin="round"/><path d="M248.72142,217.36084v0v0v0v0c0,0 -3.46029,2.79337 -5.36972,1.29263c-0.82038,-0.6352 -1.07667,-1.57444 -0.91815,-2.72422c-0.37259,-0.19113 -0.86805,-0.5414 -1.02052,-1.15659c-0.25199,-1.01661 1.90166,-1.43279 1.90166,-1.43279l-0.00279,0.01787c0.14535,-0.28038 0.29365,-0.56521 0.46342,-0.86146c0.97422,-1.66721 2.87946,-3.84715 3.86174,-5.07474c0,0 1.28923,-1.15117 2.51557,-0.6503c1.2264,0.49988 1.65391,2.66047 1.40303,3.5905c-0.25169,0.93009 -1.35917,5.48766 -2.83423,6.99909z" data-paper-data="{&quot;index&quot;:null}" fill="#be1e2d" stroke="#231f20" stroke-width="0.78672" stroke-linecap="round" stroke-linejoin="round"/><path d="M243.41362,218.20271c1.58098,-0.36581 3.46597,0.19223 3.46597,0.19223c0,0 0.56085,5.18662 0.71651,7.06071c0.15651,1.87685 0.95861,4.84261 0.95861,4.84261c0,0 0.4701,0.31822 0.29134,1.07108c-0.18236,0.75085 -1.86057,0.80561 -3.97704,1.08774c-2.11262,0.27774 -3.8035,-0.15416 -4.09102,-0.92026c-0.29041,-0.76265 0.34728,-1.07532 0.34728,-1.07532c0,0 1.31474,-6.08433 0.54476,-8.24589c0.00424,0.00474 -0.27212,-3.54671 1.74359,-4.0129z" data-paper-data="{&quot;index&quot;:null}" fill="#be1e2d" stroke="#231f20" stroke-width="0.90024" stroke-linecap="round" stroke-linejoin="round"/><path d="M236.67527,218.40698v0v0v0v0v0c2.73305,1.44176 2.88852,4.03625 2.88927,4.03899c-0.67838,2.18579 0.81309,7.43393 0.81309,7.43393c0,0 0.65152,0.28141 0.39942,1.05634c-0.25589,0.77652 -1.92229,1.28462 -4.04977,1.09903c-2.12379,-0.18729 -3.80185,-0.16759 -4.01753,-0.91257c-0.21568,-0.74499 0.24129,-1.0821 0.24129,-1.0821c0,0 0.14699,-1.75636 0.21803,-3.63861c0.06884,-1.87697 0.04697,-7.0409 0.04697,-7.0409c0,0 1.66873,-1.89911 3.45924,-0.95411z" data-paper-data="{&quot;index&quot;:null}" fill="#be1e2d" stroke="#231f20" stroke-width="0.90024" stroke-linecap="round" stroke-linejoin="round"/><g data-paper-data="{&quot;index&quot;:null}" stroke-width="0.90024"><path d="M247.88982,211.83662v0v0v0v0v0c0.25922,2.82028 -0.69256,7.93472 -3.99813,9.56548c-3.26933,1.60933 -6.6187,1.1837 -9.97254,-1.38797c-2.77873,-2.13145 -2.39687,-7.76524 -1.9199,-10.90265v0c0,0 0.42446,-7.29579 6.61538,-7.85412c6.18901,-0.55833 8.72971,5.19879 9.01056,8.71805c0.11517,0.62313 0.20798,1.25765 0.26464,1.86121z" fill="#be1e2d" stroke="#000000" stroke-linecap="butt" stroke-linejoin="miter"/><path d="M245.75184,219.75878v0v0v0v0v0l-0.0232,0.14203c-0.50717,0.62467 -1.11659,1.14452 -1.83596,1.49953c-3.02831,1.49099 -6.12396,1.23638 -9.22949,-0.8536l-0.02527,-0.14562c0,0 -1.18601,-9.37426 4.75328,-9.4605c6.744,-0.09479 6.48897,7.26819 6.36065,8.81816z" fill="#e6e7e8" stroke="#231f20" stroke-linecap="round" stroke-linejoin="round"/></g><g data-paper-data="{&quot;index&quot;:null}" stroke="#000000" stroke-linecap="butt" stroke-linejoin="miter"><g><g stroke-width="0.4"><path d="M215.14156,234.41136c-0.11124,-0.03069 -0.47382,-0.15343 -0.50208,-0.44441c-0.02734,-0.29003 0.28654,-0.445 0.38926,-0.49614c0.09863,-0.02477 1.71967,-0.17629 3.40225,-1.21102c-0.15075,-0.13853 -0.29311,-0.27387 -0.42896,-0.4079c-0.71164,0.6109 -2.6037,1.19864 -4.06257,1.26201c-0.19469,-0.04778 -0.54975,-0.19006 -0.56287,-0.48035c-0.01117,-0.29115 0.31143,-0.43059 0.41768,-0.4768c0.09933,-0.01907 1.75603,-0.08184 3.51039,-1.0508c-0.15989,-0.1863 -0.3076,-0.37108 -0.44136,-0.54954c-0.64528,0.54679 -2.65725,1.0665 -4.17202,1.04871c-0.19137,-0.05898 -0.53898,-0.21894 -0.53494,-0.51124c0.004,-0.29235 0.3342,-0.41157 0.44206,-0.45108c0.10287,-0.01419 1.84693,0.0208 3.70717,-0.92531c-0.09737,-0.1673 -0.18707,-0.33616 -0.26922,-0.50466c-0.68011,0.4401 -2.46611,0.78087 -3.90955,0.71431c-0.09353,-0.00432 -0.18603,-0.01044 -0.27558,-0.01838c-0.18596,-0.07294 -0.51998,-0.26063 -0.49425,-0.55199c0.02564,-0.28939 0.36329,-0.38462 0.4736,-0.41644l0.24416,0.00177c0.43454,0.02003 1.9516,0.02944 3.59631,-0.67574c-0.06048,-0.20822 -0.10204,-0.39474 -0.12968,-0.55505c-0.78963,0.41327 -2.42078,0.70157 -3.75747,0.63994c-0.09353,-0.00432 -0.18507,-0.01044 -0.27558,-0.01838c-0.18596,-0.07294 -0.52094,-0.26068 -0.49521,-0.55203c0.02565,-0.28944 0.36329,-0.38462 0.47455,-0.41645l0.24121,0.00359c0.44592,0.02056 2.03123,0.02739 3.72483,-0.73232l0.04444,-0.01974c0.11013,-0.25337 0.48055,-0.4237 0.64257,-0.48822l0.30467,-0.11939l0.01808,0.32645c0.17647,3.17377 3.63358,5.96775 3.66823,5.99681l0.31227,0.24915l-1.13897,0.47477l-0.10257,-0.0956c-0.67365,0.62876 -2.52572,1.31489 -3.97485,1.45446l-0.04384,0.00556z" fill="#871212"/><path d="M216.22704,226.35038c0,0 -0.68559,0.27131 -0.4905,0.51511c0,0 -0.00138,0.01033 -0.0032,0.02917c-0.08095,-0.03119 -0.17153,-0.03723 -0.1819,-0.03771c-0.00095,-0.00004 -0.00095,-0.00004 -0.00095,-0.00004c-1.72551,0.7743 -3.32453,0.77633 -3.83276,0.75289c-0.10766,-0.00496 -0.16605,-0.01147 -0.16605,-0.01147c-0.66948,0.18877 -0.02322,0.50353 -0.02322,0.50353c0.08764,0.00781 0.17638,0.01381 0.2661,0.01794c1.56529,0.07217 3.5152,-0.35386 3.91018,-0.79004c0.01107,-0.01465 0.01423,-0.02113 0.02431,-0.03393c0.01684,0.27062 0.07833,0.66158 0.24258,1.14438c-0.03289,-0.00533 -0.0602,-0.00845 -0.07152,-0.00897c-0.00381,-0.00017 -0.00566,-0.00026 -0.00566,-0.00026c-1.72356,0.77248 -3.32068,0.77459 -3.83077,0.75108c-0.10956,-0.00505 -0.16891,-0.0116 -0.16891,-0.0116c-0.66957,0.19067 -0.0233,0.50543 -0.0233,0.50543c0.08764,0.00781 0.17638,0.01381 0.2661,0.01794c1.56529,0.07217 3.5152,-0.35386 3.91018,-0.79004c0.03096,-0.03457 0.04644,-0.06318 0.06668,-0.09161c0.13056,0.31086 0.30232,0.65012 0.5317,1.01378c-0.01993,0.00099 -0.0341,0.00033 -0.0341,0.00033c-2.01571,1.09417 -3.93214,1.04085 -3.93214,1.04085c-0.65282,0.23778 0.01465,0.50336 0.01465,0.50336c1.60848,0.01829 3.72582,-0.5903 4.10742,-1.08482c0.03424,-0.04481 0.05298,-0.08089 0.07253,-0.11499c0.2201,0.3178 0.48778,0.65104 0.79846,0.9967c-1.9229,1.15433 -3.78464,1.20855 -3.78464,1.20855c-0.63939,0.27536 0.04205,0.50462 0.04205,0.50462c1.60592,-0.06984 3.68699,-0.79461 4.04016,-1.30942c0.01522,-0.02204 0.01968,-0.03695 0.03102,-0.05631c0.24575,0.25367 0.51787,0.5114 0.82089,0.7772c-1.84812,1.2363 -3.68707,1.39197 -3.68707,1.39197c-0.62393,0.3092 0.06971,0.50023 0.06971,0.50023c1.5995,-0.15724 3.63839,-0.9938 3.96399,-1.52595c0.00821,-0.01478 0.00947,-0.02135 0.01669,-0.03427l0.16886,0.15734l0.62935,-0.26346c0,0 -3.57296,-2.84763 -3.7569,-6.16753M216.6626,225.66993l0.03621,0.65206c0.17007,3.06649 3.54582,5.79803 3.57961,5.82514l0.62454,0.49835l-0.73747,0.30773l-0.62926,0.26162l-0.28189,0.11858l-0.05353,-0.05076c-0.83595,0.63835 -2.65207,1.2428 -3.95105,1.36941l-0.08658,0.00926l-0.0841,-0.02375c-0.14776,-0.03994 -0.63234,-0.20617 -0.67441,-0.6483c-0.01994,-0.2045 0.05421,-0.49833 0.52025,-0.73052l0.04747,-0.02337c-0.35876,0.06108 -0.70614,0.10093 -1.02205,0.11568l-0.08723,0.0026l-0.08298,-0.02747c-0.14542,-0.04933 -0.61942,-0.24062 -0.63875,-0.6836c-0.00839,-0.20772 0.08075,-0.49801 0.55881,-0.70318l0.08299,-0.03498l0.08921,-0.00437c0.01612,-0.00117 1.46242,-0.05758 3.06272,-0.86797c-0.04122,-0.0511 -0.08148,-0.10125 -0.12084,-0.15131c-0.88058,0.55862 -2.7969,0.97481 -4.12626,0.95991l-0.08804,-0.00025l-0.08163,-0.03595c-0.14127,-0.05672 -0.60453,-0.27593 -0.59836,-0.71774c0.00289,-0.20626 0.10883,-0.492 0.597,-0.6692l0.08472,-0.03114l0.08981,0.00224c0.01608,0.00074 1.56919,0.02883 3.28477,-0.77625c-0.01405,-0.0243 -0.027,-0.05139 -0.04099,-0.07574c-0.88058,0.43462 -2.55247,0.6832 -3.82023,0.62475c-0.09633,-0.00444 -0.19168,-0.01074 -0.285,-0.01881l-0.0877,-0.00786l-0.07869,-0.03862c-0.13793,-0.06695 -0.58359,-0.3185 -0.54427,-0.76068c0.01801,-0.20556 0.14522,-0.48083 0.64509,-0.62441l0.08723,-0.02344l0.08946,0.00985c0.00661,0.00031 0.05657,0.00447 0.14254,0.00843c0.40529,0.01869 1.77847,0.02714 3.30211,-0.5776c-0.00561,-0.02204 -0.01118,-0.045 -0.01593,-0.06509c-0.91933,0.37129 -2.43029,0.57899 -3.59885,0.52512c-0.09633,-0.00444 -0.19163,-0.01075 -0.285,-0.01881l-0.0877,-0.00786l-0.07869,-0.03862c-0.13793,-0.06695 -0.58359,-0.3185 -0.54427,-0.76068c0.01801,-0.20556 0.14527,-0.48082 0.64595,-0.62246l0.08723,-0.02344l0.08955,0.00794c0.00566,0.00026 0.05464,0.00629 0.13965,0.01021c0.42978,0.01982 1.95355,0.02757 3.58879,-0.69788c0.16775,-0.27155 0.51255,-0.44024 0.72661,-0.52501l0.60942,-0.24174zM215.1222,233.20914c0.19987,-0.02297 1.49705,-0.19228 2.91797,-0.99293c-0.0146,-0.01207 -0.02822,-0.025 -0.04178,-0.03887c-0.6222,0.4371 -1.78279,0.82663 -2.87619,1.0318z" fill="#000000"/></g><path d="M244.49438,212.94263l-3.23627,0.32033c-2.95012,-0.11519 -8.66729,3.19578 -10.99893,9.43757c-2.33172,6.24363 -10.74375,10.43191 -10.74375,10.43191c-4.63386,-3.88198 -3.75134,-6.76078 -3.75134,-6.76078c9.86991,-4.47609 8.41455,-8.84197 12.98144,-12.93208c4.56681,-4.0882 10.31301,-3.3897 10.31301,-3.3897z" fill="#ba2915" stroke-width="0.4"/><g fill="#871212" stroke-width="0.4"><path d="M219.7263,224.26813c-0.24936,2.00016 3.76954,6.36596 3.76954,6.36596l-1.1282,0.83688c-4.42889,-2.47527 -4.02399,-6.35023 -4.02399,-6.35023z"/><path d="M223.06473,221.32085c0.43185,3.09654 4.58414,5.63761 4.58414,5.63761l-1.36247,1.31838c-4.25467,-2.6812 -4.39261,-5.68466 -4.39261,-5.68466z"/><path d="M225.03162,218.49391c0.72562,2.02237 5.43825,3.74296 5.43825,3.74296l-0.70817,1.66473c-4.51744,-1.27326 -5.38299,-4.34722 -5.38299,-4.34722z"/><path d="M227.72116,214.46775c0.47103,1.09713 5.31083,3.55063 5.31083,3.55063l-1.05842,1.35604c-4.45329,-1.16527 -5.14654,-3.7873 -5.14654,-3.7873z"/><path d="M231.4895,211.55916c0.33396,-0.09821 5.58869,2.71901 5.58869,2.71901l-1.64763,1.32415l-5.56652,-3.05596c0,0 1.29151,-0.889 1.62547,-0.9872z"/><path d="M234.99085,210.54107l2.2609,-0.5603l4.53814,3.22622l-2.23104,0.24173l-4.56799,-2.90766"/></g><path d="M219.4817,233.41207l-0.11852,-0.09824c-4.69942,-3.93898 -3.86384,-6.8881 -3.82499,-7.01222l0.0312,-0.10178l0.0967,-0.04378c6.30305,-2.85799 7.93699,-5.6709 9.51645,-8.38979c0.86478,-1.48898 1.75851,-3.02963 3.40541,-4.50242c3.88949,-3.48235 8.65886,-3.54644 10.02766,-3.48332c0.30324,0.01398 0.47176,0.03501 0.47176,0.03501l6.2072,3.28617l-4.01326,0.39716c-3.03712,-0.11734 -8.58768,3.35845 -10.80156,9.2838c-2.33808,6.2585 -10.51268,10.38859 -10.8596,10.56197l-0.13846,0.06747zM215.97041,226.5364c-0.08736,0.51949 -0.26698,3.03881 3.57702,6.31256c1.09335,-0.57437 8.38002,-4.58169 10.49023,-10.23058c2.37806,-6.36555 8.14892,-9.7119 11.22949,-9.59164l2.42796,-0.24208l-4.728,-2.51652c-0.00896,0.00908 -0.15313,-0.00516 -0.37321,-0.01625c-1.32346,-0.06102 -5.93565,0.00178 -9.6898,3.36261c-1.59075,1.42428 -2.42677,2.86437 -3.31211,4.38743c-1.60822,2.76867 -3.27092,5.63047 -9.62157,8.5345z" fill="#000000" stroke-width="0.4"/><path d="M215.92338,226.55339c6.35065,-2.90403 8.02208,-5.81491 9.63029,-8.58358c0.88534,-1.52306 1.75395,-2.98069 3.34471,-4.40497c3.75415,-3.36083 8.40274,-3.41344 9.7262,-3.35242c0.22008,0.01109 0.36507,0.02599 0.37403,0.01691l4.73878,2.52865l-2.51036,0.29862c-3.08057,-0.12026 -8.80123,3.24522 -11.17929,9.61077c-2.11021,5.64889 -9.44059,9.64425 -10.53394,10.21862c-3.844,-3.27375 -3.67779,-5.81312 -3.59043,-6.33261z" data-paper-data="{&quot;noHover&quot;:true,&quot;origItem&quot;:[&quot;Path&quot;,{&quot;applyMatrix&quot;:true,&quot;segments&quot;:[[[431.94081,453.0728],[0,0],[-0.17472,1.03898]],[[439.09485,465.69792],[-7.688,-6.5475],[2.1867,-1.14874]],[[460.07531,445.23676],[-4.22042,11.29778],[4.75612,-12.7311]],[[482.53429,426.05348],[-6.16114,-0.24052],[0,0]],[487.39021,425.56932],[[477.93421,420.53628],[0,0],[-0.01792,0.01816]],[[477.18779,420.50378],[0.44016,0.02218],[-2.64692,-0.12204]],[[457.80819,427.229],[7.5083,-6.72166],[-3.1815,2.84856]],[[451.18397,436.00386],[1.77068,-3.04612],[-3.21644,5.53734]],[[431.94083,453.07286],[12.7013,-5.80806],[0,0]]],&quot;closed&quot;:true,&quot;fillColor&quot;:[0,0,0,1],&quot;strokeColor&quot;:[0,0,0],&quot;strokeWidth&quot;:0.4}]}" fill="#000000" stroke-width="0.2"/></g><g stroke-width="0.4"><path d="M252.59188,205.26938c1.84301,1.09131 0.55063,3.45705 0.55063,3.45705c3.41755,1.57759 2.26234,3.53502 2.26234,3.53502c-1.89704,-1.21303 -3.67142,0.06737 -9.04628,0.9442c-5.37395,0.87682 -10.73191,-1.85616 -10.73191,-1.85616c9.83528,-9.30943 16.96427,-6.08016 16.96523,-6.08011z" fill="#ba2915"/><g fill="#871212"><path d="M243.09655,206.15878c0,0 2.68538,2.10139 1.37623,7.2524l-0.85019,-0.0392c0,0 0.98376,-4.37647 -1.325,-6.80227z"/><path d="M247.40396,204.82288c2.16559,3.08751 1.43478,7.66597 1.43478,7.66597l-1.07914,0.22476c0.71086,-5.58283 -1.61001,-7.62293 -1.61001,-7.62293z"/><path d="M239.80742,207.93454c0,0 1.66778,2.32521 1.06544,5.12229l-0.60488,-0.12353c0,0 -0.30628,-3.86985 -1.13565,-4.48368z"/><path d="M253.68531,211.67476l-0.99282,-0.04578c0.27629,-1.88625 -1.2849,-3.40284 -1.2849,-3.40284c0.41331,-2.14788 -0.89432,-3.45493 -0.89432,-3.45493l1.33804,0.25769c0.57885,0.64766 0.53848,3.20653 0.5953,3.3701c1.40004,1.06988 1.23964,3.2758 1.23869,3.27576z"/></g><path d="M255.60755,212.38154l-0.12425,0.21105l-0.20695,-0.13164c-1.12648,-0.71934 -2.31555,-0.4722 -4.51662,0.06345c-1.13453,0.27617 -2.54665,0.61907 -4.36279,0.91586c-0.94236,0.15345 -1.94637,0.20655 -2.98739,0.15855c-4.23109,-0.19509 -7.85409,-2.01972 -7.89018,-2.03844l-0.29873,-0.15199l0.24346,-0.23015c6.11042,-5.78258 11.20019,-6.82117 14.39598,-6.67381c1.77689,0.08193 2.78617,0.5308 2.82977,0.54987c1.5095,0.89224 1.20708,2.60594 0.77101,3.5628c1.24213,0.61297 2.00517,1.35246 2.26904,2.19957c0.27375,0.87884 -0.10592,1.53721 -0.12235,1.56488zM255.27617,210.94626c-0.2267,-0.70908 -0.9453,-1.36509 -2.05887,-1.9125c-2.02286,-0.94808 -4.05048,-0.0476 -4.05048,-0.0476c1.95175,-1.08196 3.31057,-0.80253 3.87273,-0.59296c0.2518,-0.57532 0.76937,-2.12955 -0.56776,-2.92106c-0.00376,-0.00017 -0.96991,-0.41959 -2.63248,-0.49625c-3.05882,-0.14104 -7.92106,0.84839 -13.79693,6.30854c0.9476,0.43087 3.96557,1.68328 7.38995,1.84117c1.007,0.04644 1.98067,-0.00522 2.88967,-0.15358c1.79889,-0.29287 3.20151,-0.63435 4.32739,-0.90806c2.18192,-0.53085 3.45636,-0.78164 4.64152,-0.14383c0.06279,-0.21203 0.11569,-0.5589 -0.01473,-0.97387z" fill="#000000"/></g><g stroke-width="0.4"><path d="M226.95765,203.02244c0,0 -1.13997,-0.94056 -0.50058,-1.97509c0.63935,-1.03458 1.72315,-1.44186 1.71809,-1.33225c-0.00505,0.10956 9.82109,8.98317 21.74371,0.61918l0.0558,-1.2101c0,0 4.21737,2.19662 2.61531,6.14607c0,0 -2.5465,-0.94573 -5.06286,1.54155c-2.51822,2.48719 -4.89959,7.93903 -23.01853,1.83734c0,0 -1.45378,-0.5404 -0.62136,-1.92198c0.83238,-1.38163 3.19902,-2.63382 3.07042,-3.70472z" fill="#ba2915"/><g fill="#871212"><path d="M230.08687,201.24594c-1.31452,0.91539 -0.5533,2.3705 -0.65806,2.95923c-0.10476,0.58872 -0.30664,1.90755 -1.11584,2.7866c-0.80925,0.87911 -0.97325,2.50641 -0.97325,2.50641l-1.86853,-0.53774c0.22863,-0.46278 0.24019,-1.34929 1.47816,-2.53515c1.23803,-1.1859 1.3655,-2.67764 1.3655,-2.67764c-0.7059,-2.65477 0.9312,-3.15487 0.9312,-3.15487z"/><path d="M233.46738,202.97042c0,0 -0.32495,0.41671 -0.36991,1.3916c-0.04495,0.97484 0.22527,1.95101 -0.38691,2.90923c-0.61218,0.95817 -1.37718,3.32177 -1.37718,3.32177l-1.36421,-0.32703c0,0 0.07585,-0.47459 0.51139,-1.56496c0.43559,-1.09031 1.47811,-1.89711 1.35859,-3.57535c-0.11952,-1.67824 0.5267,-2.92266 0.49834,-2.67787z"/><path d="M236.99402,203.74365c-0.34419,1.30659 -0.3138,1.85802 -0.19855,3.62884c0.11525,1.77082 -0.77343,3.73678 -0.77343,3.73678l-1.3147,-0.14772c0,0 1.15256,-2.12509 0.83939,-3.87476c-0.31312,-1.74967 0.43557,-3.45038 0.43901,-3.52503z"/><path d="M239.6103,203.87373l1.23374,0.05689c0.97548,3.82972 -0.2763,4.84269 -0.2763,4.84269c0.21836,1.66954 -0.85685,2.50702 -0.85685,2.50702l-0.70757,-0.03262c1.12643,-1.33207 0.53798,-2.67413 0.53798,-2.67413c0.84078,-2.18018 0.06905,-4.70078 0.06905,-4.70078z"/><path d="M244.88483,202.99609c1.52945,3.94995 0.30071,5.42781 0.35419,5.62246c0.05353,0.19464 -0.21117,0.72012 -0.21117,0.72012l-1.05574,0.64147c0.45095,-0.78769 0.2555,-1.25013 0.2555,-1.25013c0.98518,-3.01132 -0.70386,-5.34795 -0.70386,-5.34795z"/><path d="M248.63596,201.24164c1.39057,1.0695 1.25354,4.04135 1.25354,4.04135l-1.07015,0.54235c0.54443,-2.83479 -1.07319,-4.11255 -1.07319,-4.11255z"/><path d="M249.97153,199.21299c4.61877,2.91472 2.51438,6.0146 2.51438,6.0146l0.00359,-0.36526c0.38977,-3.40325 -2.33979,-4.40194 -2.33979,-4.40194z"/></g><path d="M252.8093,205.35893l-0.08552,0.21188l-0.2141,-0.07895c-0.00371,-0.00113 -0.36504,-0.1314 -0.93369,-0.15762c-0.96638,-0.04456 -2.42536,0.20531 -3.88239,1.64523c-0.24195,0.23781 -0.48146,0.50413 -0.73478,0.78403c-1.58828,1.76045 -3.76508,4.17156 -9.95066,3.88635c-3.32709,-0.15341 -7.55723,-1.08781 -12.57425,-2.77699c-0.0373,-0.01307 -0.7434,-0.28228 -0.9709,-0.93272c-0.14122,-0.40603 -0.0666,-0.85507 0.22251,-1.33495c0.37102,-0.61436 1.00497,-1.18244 1.61823,-1.73256c0.68035,-0.60953 1.37955,-1.23807 1.41897,-1.72282c-0.00821,-0.00701 -0.0175,-0.01125 -0.02567,-0.01825l0.00852,-0.02044c-0.44261,-0.41987 -0.99739,-1.30218 -0.44907,-2.1895c0.60363,-0.97844 1.62055,-1.47496 1.90205,-1.46198l0.23616,0.01088l0.00959,0.14152c0.42231,0.38771 4.33458,3.78108 10.24338,4.05353c3.77105,0.17388 7.48458,-0.99065 11.04146,-3.46023l0.06747,-1.46328l0.32817,0.17132c0.04338,0.02379 4.38856,2.34374 2.72455,6.44554zM250.1928,199.52613l-0.04304,0.93331l-0.09395,0.06671c-3.67448,2.57681 -7.52098,3.79199 -11.43089,3.61171c-5.51768,-0.25442 -9.6491,-3.28965 -10.51692,-4.19868c-0.19088,0.05465 -0.95616,0.43209 -1.44935,1.23199c-0.52177,0.84501 0.41024,1.63582 0.45033,1.6689l0.07298,0.06019l0.00396,0.03709c0.3805,0.30912 1.20195,0.8279 2.85102,1.32144c0,0 -1.59577,-0.02719 -2.89952,-0.82384c-0.18719,0.5897 -0.83429,1.17611 -1.51861,1.79017c-0.58753,0.5258 -1.19485,1.07052 -1.52898,1.62407c-0.21221,0.35278 -0.27305,0.66616 -0.18117,0.93166c0.15199,0.44056 0.67839,0.64472 0.68397,0.64688c4.96762,1.6727 9.15463,2.59848 12.43729,2.74985c4.4682,0.20603 6.71389,-0.98924 8.23556,-2.35234c-1.24163,0.25798 -5.04834,0.83696 -7.96799,-1.00734c0,0 4.17754,1.66469 8.55453,0.44083c0.26824,-0.2745 0.5175,-0.5479 0.75693,-0.81238c0.25939,-0.28716 0.50481,-0.55983 0.75273,-0.80399c2.13252,-2.10741 4.37229,-1.83942 5.08729,-1.66066c1.07507,-2.99016 -1.33934,-4.86985 -2.25617,-5.45552z" fill="#000000"/></g></g><g data-paper-data="{&quot;index&quot;:null}" stroke="#000000" stroke-width="0.90024" stroke-linecap="round" stroke-linejoin="round"><path d="M284.88381,181.92577l-0.54774,1.54384c-3.03214,7.79601 -7.28674,12.2615 -7.28674,12.2615c0,0 0.16307,-1.39497 0.10099,-3.63898l-0.13111,-0.04701c-0.38985,1.17785 -1.02657,2.69574 -2.07939,4.56853c-2.30886,4.11278 -9.01583,7.52045 -9.01583,7.52045c0,0 0.42706,-1.41705 0.70675,-3.73917l-0.0906,-0.35638c-0.72847,0.55118 -1.48357,1.05703 -2.24664,1.54931c-0.22454,0.14581 -0.44894,0.28792 -0.67701,0.42551c-0.6941,0.42366 -1.40063,0.82732 -2.12133,1.20386c-0.28475,0.147 -0.58031,0.28322 -0.8687,0.42389c-0.52609,0.25757 -1.05936,0.50059 -1.60056,0.73553c-0.39755,0.17035 -0.79779,0.33989 -1.20524,0.49756c-0.42181,0.16575 -0.85518,0.3142 -1.2859,0.46907c-0.79185,0.27593 -1.59525,0.53297 -2.41657,0.76915c-0.26796,0.07694 -0.53602,0.15389 -0.80853,0.22539c-0.58553,0.15537 -1.17563,0.307 -1.77628,0.44064l0.00178,0.00182c-3.01541,0.6759 -6.21225,1.10626 -9.6322,1.28803c-3.69998,0.19571 -7.05205,0.13054 -10.1811,-0.11375v0c-2.47595,-0.19458 -4.79236,-0.51123 -6.9846,-0.93123c-0.10604,-0.01979 -0.21307,-0.0405 -0.32,-0.0603c-0.67769,-0.13452 -1.34451,-0.27695 -1.99854,-0.43007c-0.22824,-0.05513 -0.44655,-0.11457 -0.67378,-0.17139c-0.86882,-0.21433 -1.71308,-0.44836 -2.54552,-0.69669c-0.52619,-0.15744 -1.04885,-0.31855 -1.55963,-0.48937c-0.30348,-0.09886 -0.60782,-0.20233 -0.90495,-0.30654c-0.8114,-0.28775 -1.61557,-0.57984 -2.39524,-0.89433l-0.1371,0.12935c0.27746,2.11711 0.99704,3.26112 1.57495,3.80791c1.17803,1.11637 3.46143,1.39854 3.46143,1.39854c0,0 -6.9948,0.91875 -10.75358,-4.50743c-0.39935,-0.57679 -0.80213,-1.17441 -1.18388,-1.81055l-0.16354,-0.36329c-0.82404,-0.28326 -1.65811,-0.6576 -2.4806,-1.13726c-5.01484,-2.94569 -5.62753,-5.34554 -5.62753,-5.34554l0.0979,0.87856c0.46599,2.29161 0.9273,3.73945 0.9273,3.73945c0,0 -5.9992,-3.86772 -8.63728,-9.61027c-2.12689,-4.6355 -2.2753,-7.43385 -2.28574,-7.90395l-0.18843,-1.68145c-0.07503,-6.57897 0.39587,-13.95366 1.36094,-21.20448l0.05743,-0.19302c0.85298,-5.60421 0.14999,-14.90647 7.67493,-24.35525c14.10085,-17.70124 28.34772,-16.96168 36.98286,-30.05894c6.35167,-9.63529 4.83492,-20.76017 4.83492,-20.76017c0,0 3.79896,5.47603 5.30595,8.68565c1.45908,3.12811 3.01136,7.15735 3.01136,7.15735l0.05159,-0.03377c0.03609,-0.1168 0.06859,-0.23623 0.0966,-0.3557c0.43441,-1.8608 0.29195,-4.6187 0.29195,-4.6187c0,0 3.57508,10.77403 9.43368,17.86718c5.85503,7.08962 14.38646,9.17363 24.9758,33.37317c1.31789,3.00722 2.54519,5.53926 3.18959,8.34009l0.28893,1.61119c0.89838,5.03475 0.41129,18.91914 -1.61623,24.90246zM215.94485,157.73204c0,0 -7.05228,7.20299 -6.67661,17.31182c0.3324,8.94432 2.62633,11.72566 3.86905,12.42756c1.2778,0.7175 3.27165,0.3157 3.27165,0.3157c0,0 -5.65504,2.93402 -10.21026,-1.15023c-3.04689,-2.73009 -6.35816,-6.24663 -7.21056,-16.09377M273.98531,174.32551c0,0 0.8477,2.49374 -1.31344,7.6728c-2.43128,5.83491 -7.47248,7.60376 -7.47248,7.60376c0,0 4.25211,-8.98497 0.81914,-17.49542c-1.4982,-3.71816 -6.19566,-6.51797 -11.10695,-8.50845c-6.65548,-2.69941 -13.70261,-3.91118 -13.70261,-3.91118M277.05063,191.94728c-0.38637,1.19228 -1.0323,2.74699 -2.11625,4.66992c-2.30796,4.11279 -9.01493,7.52046 -9.01493,7.52046c0,0 1.2413,-4.13438 0.87804,-9.84435M200.35115,177.80538c-0.69671,1.26717 -1.2357,2.62737 -1.54314,4.06613c-1.9302,8.97034 1.24962,18.89571 1.24962,18.89571c0,0 -5.99742,-3.86601 -8.63728,-9.61037c-2.34,-5.09821 -2.28515,-7.97415 -2.28515,-7.97415M284.33152,183.47587c-3.03394,7.796 -7.28764,12.26149 -7.28764,12.26149c0,0 0.93746,-7.92528 -2.5028,-16.43669c-0.15516,-0.38482 -0.33121,-0.75902 -0.51805,-1.12251M241.20987,159.68704c0,0 1.19289,0.32697 4.326,2.86428c3.13322,2.53731 4.27048,5.2864 4.27048,5.2864c0,0 -9.29289,-2.53154 -14.43367,-4.42946c-5.13537,-1.89967 -22.47764,-6.77957 -22.47764,-6.77957M211.40232,196.78273c2.49157,3.98765 5.10028,6.16762 5.10028,6.16762c0,0 -6.19431,1.86084 -11.84266,-1.45391c-5.01484,-2.94559 -5.62753,-5.34554 -5.62753,-5.34554M266.53379,200.0439c-6.70206,5.06697 -14.80084,7.50957 -24.6309,8.03161c-11.71956,0.62231 -20.26703,-1.16113 -27.56066,-4.09363M214.13866,203.45614c0.2001,2.53868 1.00458,3.86081 1.63965,4.46028c1.17893,1.11638 3.46233,1.39854 3.46233,1.39854c0,0 -6.9966,0.91874 -10.75448,-4.50744c-0.39935,-0.57679 -0.80213,-1.17441 -1.18388,-1.81055M241.88341,159.99343c0,0 25.48755,3.32722 25.37013,17.25253" fill="#be1e2d"/><path d="M272.20349,183.30971c-1.03601,10.00682 -12.63691,20.35847 -29.49351,21.20127c-14.88167,0.75225 -36.80659,-6.12166 -39.89223,-18.46522c-0.30645,-1.24053 -0.46467,-2.4374 -0.50088,-3.58645l0.3212,0.23862c1.11492,1.66226 2.35703,2.86468 3.5606,3.94076c4.55524,4.08245 10.21028,1.14843 10.21028,1.14843c0,0 -1.99387,0.4036 -3.27167,-0.3139c-1.24273,-0.7019 -3.53666,-3.48324 -3.86905,-12.42756c-0.37566,-10.11063 6.67661,-17.31182 6.67661,-17.31182l0.02626,-0.23209c5.21979,1.49346 15.61865,4.50705 19.39979,5.90648c5.14077,1.89881 14.43367,4.42946 14.43367,4.42946c0,0 -1.13726,-2.74909 -4.27048,-5.2864c-1.56836,-1.26907 -2.64896,-1.98491 -3.33702,-2.38412l0.64732,0.10716c0,0 19.64688,3.07357 23.17596,11.83233c3.43206,8.51134 -0.81824,17.49542 -0.81824,17.49542c0,0 4.29267,-1.50776 6.86124,-6.32147z" fill="#e6e7e8"/></g><path d="M228.56922,178.25942v0v0v0v0v0c0.71578,0.20674 1.1263,0.95383 0.91766,1.6696c-0.20676,0.71758 -0.95025,1.12813 -1.67146,0.92494c-0.04129,-0.01295 -4.22044,-1.18703 -8.32556,-0.0279c-0.1263,0.03494 -0.25165,0.05278 -0.37675,0.05173c-0.58508,-0.00493 -1.12201,-0.39477 -1.28894,-0.9849c-0.0989,-0.34475 -0.04552,-0.69811 0.11188,-0.99389c-0.25112,-0.22363 -0.4881,-0.51183 -0.65047,-0.90762c-0.19054,-0.45892 0.02812,-0.9864 0.48883,-1.17612c0.45627,-0.18426 0.98562,0.02541 1.17713,0.48804c0.1517,0.36859 0.59909,0.47767 0.60448,0.47951c0.13214,0.03082 0.24772,0.09299 0.34695,0.17303c0.13353,-0.02678 0.26787,-0.05444 0.39945,-0.07583c-0.13683,-0.20996 -0.26356,-0.44514 -0.33862,-0.73388c-0.12373,-0.48266 0.16669,-0.97093 0.64936,-1.09556c0.48631,-0.1291 0.97271,0.16851 1.09556,0.64936c0.09846,0.38434 0.51558,0.56157 0.51917,0.5634c0.19483,0.06835 0.33769,0.20455 0.44173,0.36564c3.22575,-0.12311 5.75584,0.58875 5.89959,0.63047z" data-paper-data="{&quot;index&quot;:null}" fill="#231f20" stroke="none" stroke-width="0.90024" stroke-linecap="butt" stroke-linejoin="miter"/><path d="M260.79263,177.42199v0v0v0v0v0c-0.16527,0.80164 -0.65089,1.27736 -1.04672,1.56303c0.09776,0.25383 0.14682,0.53246 0.07412,0.81625c-0.18519,0.72136 -0.90463,1.16191 -1.64308,0.97468c-2.79837,-0.71502 -6.42682,-0.99672 -7.16317,-0.25931c-0.26594,0.26507 -0.61277,0.39725 -0.96296,0.39429c-0.34479,-0.00291 -0.68487,-0.13638 -0.94647,-0.39869c-0.52668,-0.52666 -0.52667,-1.38099 0.0017,-1.90955c1.42273,-1.42115 4.39942,-1.35915 6.77879,-1.02588c0.11694,-0.09892 0.30315,-0.30165 0.32354,-0.58419c0.02947,-0.49397 0.42094,-0.90488 0.95155,-0.84451c0.49577,0.02938 0.873,0.45388 0.84451,0.95145c-0.02064,0.31314 -0.10027,0.57718 -0.1986,0.81755c0.11769,0.02529 0.23,0.04784 0.3352,0.07313c0.09481,-0.14331 0.21288,-0.26921 0.38279,-0.34158c0.02532,-0.01419 0.42578,-0.20892 0.50642,-0.59355c0.1031,-0.48615 0.57133,-0.80721 1.06462,-0.69775c0.48615,0.1031 0.79817,0.57665 0.69775,1.06462z" data-paper-data="{&quot;index&quot;:null}" fill="#231f20" stroke="none" stroke-width="0.90024" stroke-linecap="butt" stroke-linejoin="miter"/><g data-paper-data="{&quot;index&quot;:null}" stroke-linejoin="miter"><path d="M195.20798,167.53984c-0.26141,12.97606 -2.13424,23.46177 -7.4719,23.35424c-5.33767,-0.10753 -13.11871,-10.78773 -12.8573,-23.76378c0.26141,-12.97606 8.46629,-23.33421 13.80396,-23.22668c5.33767,0.10753 6.78666,10.66016 6.52525,23.63622z" fill="url(#color-1)" stroke="#000000" stroke-width="0.90024" stroke-linecap="butt"/><path d="M181.52022,152.31536l2.15703,-2.80486" fill="none" stroke="#ea42a4" stroke-width="2" stroke-linecap="round"/><path d="M188.17976,157.13725l3.38628,-0.30508" fill="none" stroke="#ea42a4" stroke-width="2" stroke-linecap="round"/><path d="M183.66654,162.76492l-0.43607,1.84658" fill="none" stroke="#ea42a4" stroke-width="2" stroke-linecap="round"/><path d="M181.54006,172.59539l1.6097,2.26469" fill="none" stroke="#ea42a4" stroke-width="2" stroke-linecap="round"/><path d="M191.1857,179.35715l1.59355,-0.14357" fill="none" stroke="#ea42a4" stroke-width="2" stroke-linecap="round"/><path d="M185.49346,187.50078l-1.82864,-0.23688" fill="none" stroke="#ea42a4" stroke-width="2" stroke-linecap="round"/><path d="M179.9232,179.16698l-1.22927,-2.49978" fill="none" stroke="#ea42a4" stroke-width="2" stroke-linecap="round"/><path d="M178.41216,166.85289l-1.37462,-1.88426" fill="none" stroke="#ea42a4" stroke-width="2" stroke-linecap="round"/><path d="M178.80152,155.57245l0.14357,1.59355" fill="none" stroke="#ea42a4" stroke-width="2" stroke-linecap="round"/><path d="M189.01779,150.83663l2.53746,-3.03995" fill="none" stroke="#ea42a4" stroke-width="2" stroke-linecap="round"/></g><g data-paper-data="{&quot;index&quot;:null}" stroke-linejoin="miter"><path d="M287.8352,143.0942c5.33122,0.28356 12.7557,11.21461 12.06638,24.17499c-0.68932,12.96038 -9.23142,23.04222 -14.56265,22.75867c-5.33122,-0.28356 -6.43132,-10.87824 -5.74198,-23.83861c0.68932,-12.96038 2.90703,-23.3786 8.23825,-23.09504z" fill="url(#color-2)" stroke="#000000" stroke-width="0.90025" stroke-linecap="butt"/><path d="M294.36262,152.00777l-1.94587,-2.95526" fill="none" stroke="#ea42a4" stroke-width="2" stroke-linecap="round"/><path d="M287.36793,156.32915l-3.35486,-0.55219" fill="none" stroke="#ea42a4" stroke-width="2" stroke-linecap="round"/><path d="M291.45701,162.27215l0.29969,1.87353" fill="none" stroke="#ea42a4" stroke-width="2" stroke-linecap="round"/><path d="M291.08686,174.37269l1.7712,-2.14076" fill="none" stroke="#ea42a4" stroke-width="2" stroke-linecap="round"/><path d="M282.74323,178.26934l-1.57876,-0.25986" fill="none" stroke="#ea42a4" stroke-width="2" stroke-linecap="round"/><path d="M289.66501,186.70551l-1.84107,0.10235" fill="none" stroke="#ea42a4" stroke-width="2" stroke-linecap="round"/><path d="M293.98942,178.90425l1.40898,-2.40308" fill="none" stroke="#ea42a4" stroke-width="2" stroke-linecap="round"/><path d="M297.90687,164.95529l-1.50888,1.77856" fill="none" stroke="#ea42a4" stroke-width="2" stroke-linecap="round"/><path d="M296.57571,157.03393l0.25986,-1.57877" fill="none" stroke="#ea42a4" stroke-width="2" stroke-linecap="round"/><path d="M284.68537,146.7665l2.30808,3.21758" fill="none" stroke="#ea42a4" stroke-width="2" stroke-linecap="round"/></g><path d="M232.39695,187.08858c0,0 1.18974,-1.24198 5.95489,-1.31307c4.76409,-0.06724 8.37007,0.61261 8.37007,0.61261c0,0 -0.0299,8.77206 -6.49149,8.82609c-6.46704,0.05563 -7.83348,-8.12563 -7.83348,-8.12563z" fill="#58595b" stroke="#231f20" stroke-width="0.9025" stroke-linecap="round" stroke-linejoin="miter"/><g stroke-linejoin="miter"><g stroke-linecap="butt"><g stroke="#000000" stroke-width="1"><path d="M251.56208,213.14454h55.67854v24.113h-55.67854z" fill="url(#color-3)"/><path d="M256.50129,208.72383h55.67854l-4.93922,4.42072h-55.67855z" fill="#9966ff"/><path d="M307.4912,213.1176l4.71472,-4.21977l-0.67354,24.51489l-4.49021,3.91836z" fill="url(#color-4)"/></g><path d="M304.73978,213.99646c0.44092,0 0.79835,0.15996 0.79835,0.35728c0,0.19732 -0.35743,0.35727 -0.79835,0.35727c-0.44092,0 -0.79836,-0.15995 -0.79836,-0.35727c0,-0.19732 0.35744,-0.35728 0.79836,-0.35728z" fill="#b9b9b9" stroke="none" stroke-width="0.5"/><path d="M304.38496,235.9091c0.44092,0 0.79835,0.15995 0.79835,0.35727c0,0.19732 -0.35743,0.35727 -0.79835,0.35727c-0.44092,0 -0.79836,-0.15995 -0.79836,-0.35727c0,-0.19732 0.35744,-0.35727 0.79836,-0.35727z" fill="#b9b9b9" stroke="none" stroke-width="0.5"/><path d="M253.46787,236.22667c0.44091,0 0.79835,0.15996 0.79835,0.35727c0,0.19732 -0.35744,0.35727 -0.79835,0.35727c-0.44091,0 -0.79835,-0.15995 -0.79835,-0.35727c0,-0.19732 0.35744,-0.35727 0.79835,-0.35727z" fill="#b9b9b9" stroke="none" stroke-width="0.5"/><path d="M252.93563,213.83767c0.44091,0 0.79835,0.15995 0.79835,0.35727c0,0.19732 -0.35744,0.35727 -0.79835,0.35727c-0.44091,0 -0.79835,-0.15995 -0.79835,-0.35727c0,-0.19732 0.35744,-0.35727 0.79835,-0.35727z" fill="#b9b9b9" stroke="none" stroke-width="0.5"/></g><g stroke="#000000" stroke-width="1" stroke-linecap="butt"><path d="M256.16441,225.14221c0,-5.20726 4.22132,-9.42857 9.42857,-9.42857c5.20725,0 9.42857,4.22132 9.42857,9.42857c0,5.20726 -4.22132,9.42857 -9.42857,9.42857c-5.20725,0 -9.42857,-4.22132 -9.42857,-9.42857z" fill="#8499b1"/><path d="M259.39706,225.54629c0,-3.04996 2.47248,-5.52245 5.52245,-5.52245c3.04996,0 5.52245,2.47249 5.52245,5.52245c0,3.04996 -2.47249,5.52244 -5.52245,5.52244c-3.04996,0 -5.52245,-2.47248 -5.52245,-5.52244z" fill="#92c5ff"/></g><g stroke="#000000" stroke-width="1" stroke-linecap="butt"><path d="M280.16441,225.17792c0,-5.20726 4.22132,-9.42857 9.42857,-9.42857c5.20725,0 9.42857,4.22132 9.42857,9.42857c0,5.20726 -4.22132,9.42857 -9.42857,9.42857c-5.20725,0 -9.42857,-4.22132 -9.42857,-9.42857z" fill="#8499b1"/><path d="M283.39706,225.58201c0,-3.04996 2.47249,-5.52245 5.52245,-5.52245c3.04996,0 5.52245,2.47249 5.52245,5.52245c0,3.04996 -2.47249,5.52245 -5.52245,5.52245c-3.04996,0 -5.52245,-2.47248 -5.52245,-5.52245z" fill="#92c5ff"/></g><path d="M299.73583,210.8184l4,-18.57143" fill="none" stroke="#000000" stroke-width="2" stroke-linecap="round"/></g></g></g></svg>