<svg version="1.1" xmlns="http://www.w3.org/2000/svg" xmlns:xlink="http://www.w3.org/1999/xlink" width="43.33174" height="28.39287" viewBox="0,0,43.33174,28.39287"><g transform="translate(-220.70678,-167.71465)"><g data-paper-data="{&quot;isPaintingLayer&quot;:true}" fill-rule="nonzero" stroke="none" stroke-width="0.5" stroke-linecap="butt" stroke-linejoin="miter" stroke-miterlimit="10" stroke-dasharray="" stroke-dashoffset="0" style="mix-blend-mode: normal"><path d="M249.2328,171.83489c0.49638,0 0.66424,0.32852 0.721,0.55071c1.28755,0.1676 2.53204,0.36312 3.64824,0.50264c2.25397,0.26525 4.46326,0.47889 6.73441,0.26016c0.52767,-0.05082 1.87335,-0.16975 2.16922,-0.66054c0.34367,-0.57008 -1.69588,-1.39527 -1.85594,-1.46011c-2.95497,-1.19715 -6.21591,-1.80039 -9.40847,-1.79712c-5.26092,0 -10.52604,-0.07149 -15.7842,0.08701c-1.89739,0.0572 -4.1015,-0.07244 -5.92597,0.62745c0.22194,0.05898 0.5417,0.22894 0.5417,0.71865c0,0.50322 -0.33764,0.6688 -0.55984,0.72328c-0.53543,0.37006 -1.37062,0.87101 -1.54175,1.46563c-0.07491,0.26029 0.09595,0.50477 0.41621,0.72696c0.11631,-0.02031 0.25323,-0.01033 0.41281,0.04951c0.23853,0.08945 0.36566,0.22954 0.42954,0.37555c1.37226,0.53838 3.42266,0.85837 3.90377,0.80872c0.59249,-0.13167 1.18131,-0.27276 1.76744,-0.42018c-0.07394,-0.21439 -0.12539,-0.60326 0.31584,-0.87506c0.63857,-0.39336 1.03193,0.2452 1.03193,0.2452l0.14807,0.2404c2.01173,-0.53888 4.00157,-1.12173 6.01056,-1.62078c1.83778,-0.45652 4.01789,-0.3867 6.16351,-0.16149c0.09178,-0.19129 0.2792,-0.38661 0.66194,-0.38661zM245.36192,185.28351c-0.21958,-0.12809 -0.32132,-0.28719 -0.35988,-0.44156c-1.15187,-0.10301 -2.50327,-0.10614 -3.16347,-0.15719c-2.56143,-0.19807 -5.02539,-0.69263 -7.55701,-1.05311c0,0 -0.74246,-0.10607 -0.6364,-0.84853c0.10607,-0.74246 0.84853,-0.6364 0.84853,-0.6364c3.29974,0.47287 6.71454,0.72328 9.98739,1.31522c0.23044,0.04168 0.58807,0.07194 0.9856,0.10851c0.3329,-0.65695 0.6057,-1.33042 0.83775,-2.01565c-0.50657,0.55675 -1.0995,0.85855 -1.76305,0.64847c-1.10408,-0.34956 -1.05856,-1.83564 -0.79964,-3.14644c-0.56949,0.17055 -1.08014,0.13278 -1.45992,-0.22853c-0.21861,-0.20798 0.7217,-3.09996 0.7944,-3.64242c0,0 0.10607,-0.74246 0.84853,-0.6364c0.74246,0.10607 0.6364,0.84853 0.6364,0.84853c-0.08512,0.56689 -0.09252,1.20416 -0.34525,1.74227c0.01337,-0.00714 0.02662,-0.01434 0.03973,-0.02159c0.05316,-0.12909 0.20603,-0.41664 0.53082,-0.47762c0.58538,-0.69355 1.67169,-2.14943 2.69161,-3.03545c-1.6619,-0.13237 -3.29794,-0.12279 -4.69314,0.22906c-1.84618,0.46558 -3.67602,0.99006 -5.52138,1.48761c0.78539,1.18848 1.51848,2.65194 -0.48834,3.15553c-0.5508,0.13822 -1.56057,-0.17494 -2.48157,-0.5186c-0.92042,1.81211 -4.89973,4.08076 -6.63307,1.79593c-0.89372,-1.17807 -0.66086,-2.88314 -0.29757,-4.26315c-0.02067,-0.00701 -0.04134,-0.01401 -0.06201,-0.02101c-0.73623,1.83439 -0.48081,3.98721 -0.46042,5.96329c0.01061,0.08258 0.01969,0.16443 0.0273,0.24558l0.02277,0.01157c0,0 0.08095,0.24284 0.00639,0.49207c0.06991,3.19065 -2.0688,5.33755 -2.06369,8.65221c0,0 0,0.00893 -0.00098,0.02485l0.08876,0.19319c2.4263,1.72468 6.05227,2.47746 8.91554,3.15089c3.35358,0.56036 7.54826,0.55489 10.83743,-0.33884c3.18606,-0.86571 4.53388,-1.73905 1.55312,-3.52218c0,0 -0.01717,-0.0103 -0.04422,-0.03035c0.23369,2.43935 -3.22461,2.76918 -5.76545,2.49041l-0.53483,-0.3024c0,0 -0.53033,-0.53033 0,-1.06066c0.36897,-0.36897 0.73794,-0.22453 0.92831,-0.10247c1.63553,0.1776 4.8157,0.41791 3.62972,-1.71226c-0.24848,-0.4038 -0.87212,-0.7545 -0.74545,-1.2114c0.19427,-0.70072 2.1549,-1.10339 2.68186,-1.71544c0.15806,-0.18358 0.53449,-1.40319 0.34936,-1.50244c-0.09869,-0.05291 -0.22296,-0.09934 -0.36736,-0.1402c-0.09918,0.13808 -0.45293,0.5446 -0.99721,0.22711zM225.34179,181.66664c0,-0.03263 -0.00005,-0.06527 -0.00014,-0.09792c-0.02068,-0.17242 -0.04831,-0.34791 -0.08353,-0.52678l-0.00365,-0.94715c0,0 0,-0.13962 0.06024,-0.29839c-0.025,-1.64737 0.00745,-3.2748 0.5769,-4.79369c-1.52845,-0.49704 -3.06464,-0.95735 -4.60992,-1.34093c0,0 -0.72761,-0.1819 -0.54571,-0.90951c0.1819,-0.72761 0.90951,-0.54571 0.90951,-0.54571c1.65563,0.41658 3.29263,0.92752 4.92159,1.46929c0.01386,-0.01605 0.03003,-0.03371 0.04843,-0.05215c-0.11982,-0.29284 -0.1699,-0.61162 -0.1327,-0.9573c0.11079,-1.02947 1.19291,-1.79617 2.01065,-2.38844c-0.18862,-0.02269 -0.39551,-0.12489 -0.54008,-0.41404c-0.33541,-0.67082 0.33541,-1.00623 0.33541,-1.00623c2.16606,-1.0627 4.76602,-0.96829 7.12518,-1.03944c5.27253,-0.15902 10.55201,-0.08763 15.8273,-0.08763c3.38364,0.00318 6.8493,0.62842 9.97922,1.90995c1.19109,0.48769 3.38246,1.66536 2.68332,3.39062c-1.15966,2.86169 -8.3164,1.60087 -10.48243,1.34612c-1.11873,-0.13984 -2.39524,-0.35031 -3.71731,-0.52685c-0.00248,0.00841 -0.00496,0.01683 -0.00743,0.02525c0.14218,1.27119 -0.60995,3.34782 -0.7796,4.11134l-0.07526,0.62892c0,0 -0.05055,0.40438 -0.3752,0.57971c-0.35152,1.56435 -0.76658,3.10611 -1.44349,4.58727c0.30661,0.07153 0.55847,0.16497 0.69909,0.29179c2.73632,2.46783 -2.5028,4.64261 -2.08047,4.65248c0.12055,0.22387 0.21984,0.43658 0.29935,0.6386c0.0089,-0.01688 0.01852,-0.03395 0.02886,-0.0512c0.38587,-0.64312 1.029,-0.25725 1.029,-0.25725c3.54093,2.1315 3.19258,4.34575 -0.81794,5.88504c-3.71419,1.42556 -8.7548,1.37887 -12.6396,0.73289c-3.21485,-0.75673 -7.12571,-1.61673 -9.77192,-3.66043l-0.44431,-0.84374c0,0 -0.20082,-0.40163 0.01909,-0.73874c0.17267,-3.2657 2.3243,-5.43859 2.01559,-8.69404zM245.33624,178.77522c-0.93268,3.98499 1.00265,0.07899 1.3539,-1.7201c-0.36572,0.34917 -0.75572,0.69006 -1.1509,0.99216c-0.07337,0.24116 -0.14558,0.48262 -0.203,0.72794zM235.04158,176.49527c0.54328,0.16299 1.90994,1.05552 1.59939,0.58089c-0.29756,-0.45478 -0.61171,-0.89853 -0.91754,-1.3478c-0.58412,0.14978 -1.17064,0.29453 -1.76057,0.43159c0.35767,0.11451 0.71668,0.22671 1.07873,0.33533zM228.7146,178.68794c0.21609,0.40432 0.91227,0.09204 1.36865,0.13547c1.61971,0.15412 2.27276,0.00645 2.82548,-1.40285c-0.08068,-0.0304 -0.15504,-0.0575 -0.22201,-0.08048c-1.29882,-0.44561 -2.60185,-0.90827 -3.90998,-1.36243c-0.23944,0.88245 -0.4419,1.99971 -0.06214,2.71029z" fill="#000000"/><path d="M245.51778,178.00212c0.39518,-0.3021 0.82774,-0.64316 1.19346,-0.99233c-0.35125,1.79909 -2.35767,5.75 -1.42499,1.76501c0.05742,-0.24531 0.15817,-0.53151 0.23153,-0.77268z" data-paper-data="{&quot;noHover&quot;:false,&quot;origItem&quot;:[&quot;Path&quot;,{&quot;applyMatrix&quot;:true,&quot;selected&quot;:true,&quot;segments&quot;:[[[245.33624,178.77522],[0.05742,-0.24531],[-0.93268,3.98499],7],[[246.69014,177.05512],[-0.35125,1.79909],[-0.36572,0.34917],7],[[245.53924,178.04728],[0.39518,-0.3021],[-0.07337,0.24116],7]],&quot;closed&quot;:true}]}" fill="#183257"/><path d="M228.73687,175.94748c1.30813,0.45416 2.70098,0.94453 3.99979,1.39014c0.06697,0.02298 0.1414,0.05215 0.22207,0.08255c-0.55272,1.4093 -1.27627,1.60296 -2.89598,1.44884c-0.45638,-0.04343 -1.17441,0.24984 -1.3905,-0.15449c-0.37976,-0.71057 -0.17483,-1.88459 0.06461,-2.76704z" data-paper-data="{&quot;noHover&quot;:false,&quot;origItem&quot;:[&quot;Path&quot;,{&quot;applyMatrix&quot;:true,&quot;selected&quot;:true,&quot;segments&quot;:[[[228.7146,178.68794],[-0.37976,-0.71057],[0.21609,0.40432],7],[[230.08325,178.82341],[-0.45638,-0.04343],[1.61971,0.15412],7],[[232.90874,177.42056],[-0.55272,1.4093],[-0.08068,-0.0304],7],[[232.68672,177.34009],[0.06697,0.02298],[-1.29882,-0.44561],7],[[228.77674,175.97766],[1.30813,0.45416],[-0.23944,0.88245],7]],&quot;closed&quot;:true}]}" fill="#183257"/><path d="M248.62077,172.22457c-2.14562,-0.22521 -4.32605,-0.30451 -6.16383,0.15201c-2.00899,0.49905 -3.99963,1.07735 -6.01136,1.61622l-0.24594,-0.21992c0,0 -0.29483,-0.65549 -0.9334,-0.26213c-0.44123,0.2718 -0.39049,0.65688 -0.31656,0.87127c-0.58613,0.14742 -1.27239,0.31096 -1.86489,0.44262c-0.48111,0.04965 -2.53241,-0.27543 -3.90467,-0.81381c-0.06388,-0.14601 -0.19115,-0.28738 -0.42969,-0.37683c-0.15958,-0.05984 -0.29652,-0.07009 -0.41283,-0.04978c-0.32026,-0.22219 -0.49127,-0.46887 -0.41636,-0.72916c0.17113,-0.59462 1.00631,-1.09998 1.54174,-1.47004c0.22219,-0.05448 0.56,-0.2225 0.56,-0.72572c0,-0.48971 -0.31953,-0.66176 -0.54147,-0.72074c1.82448,-0.69989 4.02995,-0.57701 5.92734,-0.6342c5.25816,-0.15851 10.61683,-0.09481 15.87775,-0.09481c3.19255,-0.00327 6.45805,0.61785 9.41302,1.815c0.16006,0.06485 2.19969,0.8946 1.85602,1.46468c-0.29587,0.49078 -1.64167,0.6121 -2.16934,0.66291c-2.27115,0.21873 -4.48057,0.00654 -6.73454,-0.25872c-1.11619,-0.13952 -2.46026,-0.34414 -3.74781,-0.51174c-0.05676,-0.22219 -0.22472,-0.54452 -0.7211,-0.54452c-0.38274,0 -0.47031,0.19612 -0.56208,0.38741z" data-paper-data="{&quot;noHover&quot;:false,&quot;origItem&quot;:[&quot;Path&quot;,{&quot;applyMatrix&quot;:true,&quot;selected&quot;:true,&quot;segments&quot;:[[[249.2328,171.83489],[-0.38274,0],[0.49638,0],7],[[249.9538,172.3856],[-0.05676,-0.22219],[1.28755,0.1676],7],[[253.60204,172.88824],[-1.11619,-0.13952],[2.25397,0.26525],7],[[260.33645,173.14841],[-2.27115,0.21873],[0.52767,-0.05082],7],[[262.50567,172.48787],[-0.29587,0.49078],[0.34367,-0.57008],7],[[260.64973,171.02775],[0.16006,0.06485],[-2.95497,-1.19715],7],[[251.24127,169.23063],[3.19255,-0.00327],[-5.26092,0],7],[[235.45707,169.31765],[5.25816,-0.15851],[-1.89739,0.0572],7],[[229.53109,169.94509],[1.82448,-0.69989],[0.22194,0.05898],7],[[230.0728,170.66375],[0,-0.48971],[0,0.50322],7],[[229.51296,171.38703],[0.22219,-0.05448],[-0.53543,0.37006],7],[[227.9712,172.85266],[0.17113,-0.59462],[-0.07491,0.26029],7],[[228.38741,173.57962],[-0.32026,-0.22219],[0.11631,-0.02031],7],[[228.80022,173.62913],[-0.15958,-0.05984],[0.23853,0.08945],7],[[229.22976,174.00468],[-0.06388,-0.14601],[1.37226,0.53838],7],[[233.13353,174.8134],[-0.48111,0.04965],[0.59249,-0.13167],7],[[234.90097,174.39322],[-0.58613,0.14742],[-0.07394,-0.21439],7],[[235.2168,173.51816],[-0.44123,0.2718],[0.63857,-0.39336],7],[[236.24873,173.76337],[0,0],[0,0],7],[[236.3968,174.00376],[0,0],[2.01173,-0.53888],7],[[242.40736,172.38298],[-2.00899,0.49905],[1.83778,-0.45652],7],[[248.57087,172.22149],[-2.14562,-0.22521],[0.09178,-0.19129],7]],&quot;closed&quot;:true}]}" fill="#572818"/><path d="M233.91412,176.14881c0.58993,-0.13706 1.24885,-0.31472 1.83297,-0.4645c0.30583,0.44927 0.64175,0.95796 0.93932,1.41274c0.31055,0.47463 -1.15135,-0.43452 -1.69464,-0.59751c-0.36205,-0.10862 -0.71998,-0.23622 -1.07765,-0.35073z" data-paper-data="{&quot;noHover&quot;:false,&quot;origItem&quot;:[&quot;Path&quot;,{&quot;applyMatrix&quot;:true,&quot;selected&quot;:true,&quot;segments&quot;:[[[235.04158,176.49527],[-0.36205,-0.10862],[0.54328,0.16299],7],[[236.64097,177.07616],[0.31055,0.47463],[-0.29756,-0.45478],7],[[235.72343,175.72836],[0.30583,0.44927],[-0.58412,0.14978],7],[[233.96286,176.15994],[0.58993,-0.13706],[0.35767,0.11451],7]],&quot;closed&quot;:true}]}" fill="#d89562"/><path d="M246.30937,185.05144c0.1444,0.04086 0.36812,0.09772 0.46681,0.15063c0.18514,0.09925 -0.19264,1.32615 -0.35071,1.50973c-0.52696,0.61204 -2.49295,1.0275 -2.68722,1.72822c-0.12667,0.4569 0.49514,0.81043 0.74363,1.21423c1.18598,2.13017 -2.00928,1.90415 -3.64481,1.72655c-0.19037,-0.12205 -0.56389,-0.26403 -0.93286,0.10494c-0.53033,0.53033 -0.04078,0.96939 -0.04078,0.96939l0.53304,0.30319c2.54084,0.27877 5.978,-0.03256 5.74432,-2.47191c0.02705,0.02005 0.12857,0.08408 0.12857,0.08408c2.98076,1.78313 1.6231,2.66775 -1.56296,3.53346c-3.28917,0.89373 -7.52825,0.90959 -10.88183,0.34923c-2.86327,-0.67343 -6.51982,-1.44864 -8.94612,-3.17332l-0.08917,-0.19386c0.00098,-0.01592 0.00094,-0.02492 0.00094,-0.02492c-0.00511,-3.31465 2.12766,-5.49662 2.05775,-8.68727c0.07456,-0.24923 -0.00585,-0.49448 -0.00585,-0.49448l-0.02277,-0.01159c-0.00761,-0.08115 -0.01639,-0.16413 -0.02701,-0.24671c-0.02039,-1.97608 -0.26389,-4.15002 0.47234,-5.98441c0.02067,0.007 0.11384,0.08287 0.13451,0.08988c-0.36329,1.38002 -0.58754,3.07277 0.30618,4.25084c1.73334,2.28483 5.65179,-0.05335 6.5722,-1.86545c0.921,0.34366 1.95053,0.65431 2.50133,0.51609c2.00682,-0.50359 1.27517,-1.96693 0.48978,-3.15541c1.84536,-0.49756 3.69667,-1.01464 5.54284,-1.48021c1.39521,-0.35185 3.04107,-0.35334 4.70297,-0.22097c-1.01993,0.88601 -2.10513,2.34311 -2.69051,3.03666c-0.32479,0.06098 -0.47764,0.34855 -0.5308,0.47764c-0.0131,0.00725 -0.10144,0.0805 -0.11481,0.08764c0.25273,-0.53811 0.26327,-1.17212 0.34839,-1.73901c0,0 0.10932,-0.73964 -0.63314,-0.8457c-0.74246,-0.10607 -0.78722,0.5574 -0.78722,0.5574c-0.07269,0.54246 -1.00571,3.44121 -0.7871,3.64919c0.37978,0.36131 0.89434,0.40413 1.46384,0.23358c-0.25893,1.3108 -0.29708,2.81387 0.807,3.16343c0.66354,0.21008 1.2562,-0.09286 1.76277,-0.64962c-0.23205,0.68523 -0.5034,1.36823 -0.8363,2.02518c-0.39754,-0.03657 -0.85496,-0.0605 -1.0854,-0.10218c-3.27284,-0.59195 -6.60285,-0.81024 -9.90259,-1.28311c0,0 -0.73214,-0.12059 -0.8382,0.62187c-0.10607,0.74246 0.54216,0.81724 0.54216,0.81724c2.53162,0.36048 4.99488,0.8594 7.55632,1.05747c0.66021,0.05105 2.11107,0.06439 3.26294,0.1674c0.03856,0.15437 0.14004,0.3157 0.35962,0.44379c0.54428,0.3175 0.79873,-0.10074 0.89791,-0.23882z" data-paper-data="{&quot;noHover&quot;:false,&quot;origItem&quot;:[&quot;Path&quot;,{&quot;applyMatrix&quot;:true,&quot;selected&quot;:true,&quot;segments&quot;:[[[245.36192,185.28351],[0.54428,0.3175],[-0.21958,-0.12809],7],[[245.00204,184.84195],[0.03856,0.15437],[-1.15187,-0.10301],7],[[241.83857,184.68476],[0.66021,0.05105],[-2.56143,-0.19807],7],[[234.28156,183.63165],[2.53162,0.36048],[0,0],7],[[233.64516,182.78312],[-0.10607,0.74246],[0.10607,-0.74246],7],[[234.49369,182.14673],[0,0],[3.29974,0.47287],7],[[244.48107,183.46195],[-3.27284,-0.59195],[0.23044,0.04168],7],[[245.46668,183.57046],[-0.39754,-0.03657],[0.3329,-0.65695],7],[[246.30442,181.55481],[-0.23205,0.68523],[-0.50657,0.55675],7],[[244.54138,182.20327],[0.66354,0.21008],[-1.10408,-0.34956],7],[[243.74174,179.05683],[-0.25893,1.3108],[-0.56949,0.17055],7],[[242.28182,178.8283],[0.37978,0.36131],[-0.21861,-0.20798],7],[[243.07622,175.18588],[-0.07269,0.54246],[0,0],7],[[243.92474,174.54949],[-0.74246,-0.10607],[0.74246,0.10607],7],[[244.56114,175.39801],[0,0],[-0.08512,0.56689],7],[[244.21589,177.14028],[0.25273,-0.53811],[0.01337,-0.00714],7],[[244.25562,177.11869],[-0.0131,0.00725],[0.05316,-0.12909],7],[[244.78644,176.64108],[-0.32479,0.06098],[0.58538,-0.69355],7],[[247.47806,173.60563],[-1.01993,0.88601],[-1.6619,-0.13237],7],[[242.78491,173.83469],[1.39521,-0.35185],[-1.84618,0.46558],7],[[237.26353,175.3223],[1.84536,-0.49756],[0.78539,1.18848],7],[[236.77519,178.47784],[2.00682,-0.50359],[-0.5508,0.13822],7],[[234.29362,177.95924],[0.921,0.34366],[-0.92042,1.81211],7],[[227.66055,179.75517],[1.73334,2.28483],[-0.89372,-1.17807],7],[[227.36298,175.49201],[-0.36329,1.38002],[-0.02067,-0.00701],7],[[227.30097,175.47101],[0.02067,0.007],[-0.73623,1.83439],7],[[226.84055,181.4343],[-0.02039,-1.97608],[0.01061,0.08258],7],[[226.86785,181.67988],[-0.00761,-0.08115],[0,0],7],[[226.89062,181.69145],[0,0],[0,0],7],[[226.89701,182.18352],[0.07456,-0.24923],[0.06991,3.19065],7],[[224.83332,190.83573],[-0.00511,-3.31465],[0,0],7],[[224.83235,190.86058],[0.00098,-0.01592],[0,0],7],[[224.92111,191.05376],[0,0],[2.4263,1.72468],7],[[233.83664,194.20465],[-2.86327,-0.67343],[3.35358,0.56036],7],[[244.67407,193.86581],[-3.28917,0.89373],[3.18606,-0.86571],7],[[246.22719,190.34363],[2.98076,1.78313],[0,0],7],[[246.18297,190.31327],[0.02705,0.02005],[0.23369,2.43935],7],[[240.41752,192.80368],[2.54084,0.27877],[0,0],7],[[239.88269,192.50128],[0,0],[0,0],7],[[239.88269,191.44062],[-0.53033,0.53033],[0.36897,-0.36897],7],[[240.811,191.33814],[-0.19037,-0.12205],[1.63553,0.1776],7],[[244.44071,189.62588],[1.18598,2.13017],[-0.24848,-0.4038],7],[[243.69527,188.41449],[-0.12667,0.4569],[0.19427,-0.70072],7],[[246.37713,186.69905],[-0.52696,0.61204],[0.15806,-0.18358],7],[[246.72648,185.19661],[0.18514,0.09925],[-0.09869,-0.05291],7],[[246.35913,185.05641],[0.1444,0.04086],[-0.09918,0.13808],7]],&quot;closed&quot;:true}]}" fill="#d89562"/></g></g></svg>