<svg version="1.1" xmlns="http://www.w3.org/2000/svg" xmlns:xlink="http://www.w3.org/1999/xlink" width="81.90133" height="175.11457" viewBox="0,0,81.90133,175.11457"><g transform="translate(-196.19867,-60.88333)"><g data-paper-data="{&quot;isPaintingLayer&quot;:true}" fill-rule="nonzero" stroke="none" stroke-linecap="butt" stroke-linejoin="miter" stroke-miterlimit="10" stroke-dasharray="" stroke-dashoffset="0" style="mix-blend-mode: normal"><path d="M231.9,220.28333l12.2,-50.4l11,-2.8l0.56181,23.38181l5.03819,26.41819l-10.35223,1.80902l-2.12551,-16.08571l0.88945,20.2876z" fill="#414ca9" stroke-width="0"/><path d="M222.5,233.08333l2.6,-11.6l23.8,0.4l-4.4,13.6z" fill="#e9caf8" stroke-width="0"/><path d="M233.3,201.28333l-0.2,-18.2l14.2,-0.2l-0.4,17.4z" fill="#e9caf8" stroke-width="0"/><path d="M243.5,227.88333l7,-10l10.2,-0.8l4,8.4z" fill="#e9caf8" stroke-width="0"/><path d="M237.7,171.48333l5.4,-26.2l1.99552,-9.8229l8.52614,0.54381l6.07834,9.07909l-6.6,21.6l-5.4,-0.2l-0.06059,16.98151l-14.75309,-0.69251z" fill="#8f21c6" stroke-width="0"/><path d="M201.5,129.08333l-3.8,-68.2l80.4,11.2l-16.6,61.8z" fill="#3d2747" stroke-width="0"/><path d="M229.52527,125.95081l0.19371,-0.01937c-0.03253,-0.12357 -0.06928,-0.24624 -0.11051,-0.36783c-0.05372,-0.07929 -0.10926,-0.15966 -0.16653,-0.24094c0.03587,0.20641 0.06364,0.41565 0.08333,0.62815zM229.87364,127.2007c0.00312,0.02779 0.00473,0.05604 0.00473,0.08467c0,0.41421 -0.33578,0.75 -0.75,0.75c-0.17942,0 -0.34411,-0.063 -0.47319,-0.16808l-0.59042,-0.47233c-0.84691,-0.43201 -2.05645,-1.19034 -3.06345,-2.06594c0.24051,0.6334 0.4077,1.26371 0.46886,1.95636h0.30562v1.41026c0,0.14397 -0.04056,0.27845 -0.11088,0.39267c1.16589,0.52312 2.43141,0.95154 3.75896,1.28841l0.13073,-0.06811c0.33791,-1.34829 0.5221,-2.8167 0.21123,-4.18591zM224.22698,127.26189c-0.65962,-1.17044 -1.12404,-2.49084 -1.7096,-3.69826c-0.36395,0.6122 -0.68344,1.23794 -1.07759,1.76612c0.83901,0.81487 1.76775,1.39392 2.78719,1.93214zM224.33241,122.59079l-0.15963,0.20523c1.3396,0.92793 2.50775,2.04209 3.89717,2.89115c-0.60456,-1.09167 -0.91371,-2.47384 -1.70673,-3.4461l-0.39897,-0.53134c0,0 -0.08605,-0.11474 -0.13272,-0.2815c-0.54682,-0.43873 -1.10146,-0.81439 -1.64038,-1.0878c-0.25365,-0.12868 -0.02892,0.58181 -0.14719,0.84047c-0.13118,0.28686 -0.29002,0.56036 -0.46348,0.82506zM219.50808,126.61491c0,0 -0.73979,0.1233 -0.86309,-0.61649c-0.02294,-0.13764 -0.01601,-0.25393 0.01048,-0.35207c-1.59589,-1.61818 -2.97888,-3.43489 -3.70354,-5.33946c-2.04671,0.18623 -4.27937,-0.161 -5.91269,-0.38062c-1.16525,-0.56755 -2.50179,-1.24177 -3.31463,-2.29759c-0.55487,-0.72074 -0.35485,-1.74866 -1.04086,-2.32315c-0.96444,-0.80766 -2.44714,0.12488 -3.58513,-0.76555c-2.5164,-1.96895 -3.71361,-6.42893 -3.22424,-9.42057c0.19652,-1.22309 0.86059,-2.06193 0.88866,-3.33813c0.02686,-1.22092 -1.31757,-2.46703 -1.7439,-3.58298c-1.45766,-3.81556 -0.92757,-7.96228 1.22879,-11.20074c0.79964,-1.14292 2.09017,-1.15058 2.86795,-2.11488c1.17972,-1.46262 0.92694,-4.20179 1.83842,-5.89991c1.61893,-3.01614 6.44943,-5.31593 9.67263,-6.13253c2.41801,-0.86151 4.97383,-0.68594 7.52709,-0.67383c0.60904,0.00289 2.32013,0.6837 2.86194,0.33953c2.77789,-1.76453 4.82148,-3.58146 8.05474,-4.66002c3.15279,-1.01462 9.20485,-0.83405 12.42678,0.39508c2.64411,1.0087 4.35533,2.77813 7.29756,2.77155c7.65146,0 13.16729,5.95096 16.03391,12.68231c2.24171,2.96953 5.71777,7.78067 4.42292,11.76117c-0.69707,2.14288 -2.411,4.56609 -3.6543,6.42656c-0.35888,0.70049 -0.42079,1.27983 -0.54991,2.05455l-0.9962,0.62671c0,0 -0.21062,0 -0.40863,-0.11162c-1.43664,4.29242 -2.88729,8.94003 -6.04864,12.08513c0.2842,0.21707 0.28419,0.60981 0.28419,0.60981c-0.01579,1.45018 -0.70727,2.40592 -1.2028,3.72807c-2.22391,5.93378 -5.41471,8.49325 -11.2331,10.44498c-7.15601,2.37903 -17.57899,1.98682 -24.10325,-1.74663c-1.18397,-0.84807 -2.4796,-1.86096 -3.70756,-2.9941c-0.04051,0.0092 -0.0817,0.01767 -0.12358,0.02542zM222.84046,119.72634c2.05356,-2.54414 6.93481,3.38549 8.11549,5.17823c0.62616,1.89715 0.534,3.84278 0.05387,5.76782l-0.04131,0.05011c5.35274,1.04549 11.4342,0.71078 15.99961,-0.81531c5.41727,-1.79559 8.22673,-4.0151 10.30536,-9.55502c0.41701,-1.11142 1.12296,-1.98386 1.10489,-3.195c0,0 0,-0.11074 0.04255,-0.24711c-3.24142,0.28539 -6.79577,-0.20276 -9.88099,0.59038c-3.24257,0.83359 -5.97302,2.19674 -9.41156,2.20161c-4.78243,0 -10.35737,-3.46907 -13.39668,-7.06473l-0.22448,-0.11251c0,0 -0.62403,-0.41603 -0.20801,-1.04006c0.41602,-0.62404 1.04006,-0.20801 1.04006,-0.20801l0.54476,0.40031c2.68145,3.27519 7.95095,6.52501 12.24435,6.52501c3.31417,0.00522 5.90731,-1.39097 9.04998,-2.15738c3.26072,-0.7952 7.14747,-0.37473 10.49693,-0.58911c3.46684,-3.95761 4.74495,-9.52721 6.54572,-14.33096c0,0 0.26335,-0.70225 0.96559,-0.4389c0.12828,0.04811 0.22433,0.11085 0.29566,0.18129c1.17696,-1.75782 2.66702,-3.90417 3.34314,-5.86483c1.18135,-3.42576 -2.4231,-8.03532 -4.29503,-10.54653c-2.67991,-6.21538 -7.6017,-11.93308 -14.73532,-11.93308c-3.18983,-0.00633 -5.00806,-1.77373 -7.83064,-2.86947c-2.84619,-1.10491 -8.68484,-1.32846 -11.41938,-0.37414c-3.12838,1.04205 -5.05356,3.16864 -7.8427,4.57075c-1.03651,0.52106 -1.79365,-0.02887 -2.77101,-0.18298c-2.36556,-0.37301 -5.65951,-0.2027 -7.86559,0.61791c-3.34449,0.82398 -7.84851,3.08338 -9.27008,6.36469c-0.69503,1.6043 -0.34931,3.76535 -1.52657,5.19261c-0.81271,0.9853 -2.09846,0.89642 -2.77308,1.98768c-1.88865,2.82976 -2.38427,6.45872 -1.0789,9.82491c0.5426,1.39922 1.82292,2.53733 1.84584,4.10932c0.02017,1.38388 -0.75762,2.3227 -0.9062,3.58495c-0.44275,2.60116 0.63816,6.21266 2.67319,8.01532c0.94173,0.8342 2.45944,-0.17062 3.59436,0.77291c1.13873,0.94671 0.50643,1.65485 1.26683,2.54864c0.68102,0.80048 1.66324,1.32816 2.58281,1.80497c1.28565,0.14539 3.43865,0.52822 5.33232,0.37364c0.07788,-0.09632 0.19459,-0.18165 0.36702,-0.23913c0.30586,-0.10196 0.52406,-0.0286 0.67345,0.08818c1.02732,-0.22593 1.89267,-0.6863 2.37006,-1.53652c0.7938,-1.41379 0.45407,-3.69748 0.42057,-5.30155l-0.38372,-0.57558c-0.08304,-0.12072 -0.13165,-0.26696 -0.13165,-0.42455c0,-0.41421 0.33578,-0.75 0.75,-0.75c0.04688,0 0.09274,0.0043 0.13723,0.01252l0.7553,0.12588l-0.02488,0.14927c0.54515,0.06445 0.94824,0.27533 1.77545,0.68894l0.25641,0.1282c0,0 0.67082,0.33541 0.33541,1.00623c-0.33541,0.67082 -1.00623,0.33541 -1.00623,0.33541l-0.25641,-0.1282c-0.21937,-0.10968 -0.4728,-0.19043 -0.70115,-0.28348c0.05278,1.82885 0.31048,4.19262 -0.61593,5.74688c-0.69214,1.16121 -1.79247,1.80992 -3.06545,2.14438c0.70018,1.68718 1.99837,3.31877 3.46836,4.77121c1.20864,-0.98074 1.96553,-3.92543 2.9104,-5.09602z" fill="#000000" stroke-width="0.5"/><path d="M221.38988,125.32677c0.39415,-0.52818 0.75513,-1.20023 1.11908,-1.81243c0.58556,1.20742 1.0885,2.61704 1.74812,3.78748c-1.01944,-0.53822 -2.02818,-1.16017 -2.86719,-1.97504z" data-paper-data="{&quot;noHover&quot;:false,&quot;origItem&quot;:[&quot;Path&quot;,{&quot;applyMatrix&quot;:true,&quot;segments&quot;:[[[224.22698,127.26189],[-1.01944,-0.53822],[-0.65962,-1.17044]],[[222.51738,123.56363],[0.58556,1.20742],[-0.36395,0.6122]],[[221.43979,125.32975],[0.39415,-0.52818],[0.83901,0.81487]]],&quot;closed&quot;:true,&quot;fillColor&quot;:[0,0,0],&quot;strokeWidth&quot;:0.5}]}" fill="#f7f7f7" stroke-width="0.25"/><path d="M229.8058,126.09266c0.31087,1.36921 0.11913,2.90572 -0.21878,4.25401l-0.13247,0.06953c-1.32755,-0.33687 -2.66496,-0.77646 -3.83085,-1.29958c0.07032,-0.11422 0.10736,-0.25467 0.10736,-0.39864l-0.00266,-1.44854l-0.30632,0.00225c-0.06116,-0.69265 -0.21517,-1.34506 -0.45568,-1.97846c1.007,0.8756 2.29124,1.63944 3.13815,2.07145l0.60063,0.50322c0.12908,0.10508 0.19407,0.16203 0.37349,0.16203c0.41422,0 0.75103,-0.31891 0.75103,-0.73312c0,-0.02863 -0.0012,-0.05526 -0.00432,-0.08305z" data-paper-data="{&quot;noHover&quot;:false,&quot;origItem&quot;:[&quot;Path&quot;,{&quot;applyMatrix&quot;:true,&quot;segments&quot;:[[[229.87364,127.2007],[0,0],[0.00312,0.02779]],[[229.87837,127.28537],[0,-0.02863],[0,0.41421]],[[229.12837,128.03537],[0.41422,0],[-0.17942,0]],[[228.65518,127.86729],[0.12908,0.10508],[0,0]],[[228.06476,127.39496],[0,0],[-0.84691,-0.43201]],[[225.00131,125.32902],[1.007,0.8756],[0.24051,0.6334]],[[225.47017,127.28538],[-0.06116,-0.69265],[0,0]],[225.77579,127.28538],[[225.77579,128.69564],[0,0],[0,0.14397]],[[225.66491,129.08831],[0.07032,-0.11422],[1.16589,0.52312]],[[229.42387,130.37672],[-1.32755,-0.33687],[0,0]],[[229.5546,130.30861],[0,0],[0.33791,-1.34829]],[[229.76583,126.1227],[0.31087,1.36921],[0,0]]],&quot;closed&quot;:true,&quot;fillColor&quot;:[0,0,0],&quot;strokeWidth&quot;:0.5}]}" fill="#f7f7f7" stroke-width="0.25"/><path d="M223.53481,121.98561c0.17346,-0.2647 0.34305,-0.55363 0.47423,-0.84049c0.11827,-0.25866 -0.09767,-0.97599 0.15598,-0.84731c0.53892,0.27341 1.11989,0.6417 1.66671,1.08043c0.04667,0.16676 0.13785,0.28178 0.13785,0.28178l0.4224,0.54016c0.79302,0.97226 1.10551,2.43367 1.71007,3.52534c-1.38942,-0.84906 -2.63927,-2.00786 -3.97887,-2.93579l0.16106,-0.21233z" data-paper-data="{&quot;noHover&quot;:false,&quot;origItem&quot;:[&quot;Path&quot;,{&quot;applyMatrix&quot;:true,&quot;segments&quot;:[[224.33241,122.59079],[[224.17278,122.79602],[0,0],[1.3396,0.92793]],[[228.06995,125.68717],[-1.38942,-0.84906],[-0.60456,-1.09167]],[[226.36322,122.24107],[0.79302,0.97226],[0,0]],[225.96425,121.70973],[[225.83153,121.42823],[0.04667,0.16676],[-0.54682,-0.43873]],[[224.19115,120.34043],[0.53892,0.27341],[-0.25365,-0.12868]],[[224.04396,121.1809],[0.11827,-0.25866],[-0.13118,0.28686]],[[223.58048,122.00596],[0.17346,-0.2647],[0,0]]],&quot;closed&quot;:true,&quot;fillColor&quot;:[0,0,0],&quot;strokeWidth&quot;:0.5}]}" fill="#f7f7f7" stroke-width="0.25"/><path d="M250.42793,213.93452l0.30939,0.42136c0.03499,0.11131 0.07605,0.22125 0.12269,0.32909c0.00914,0.00405 0.01402,0.00649 0.01402,0.00649c0.14337,0.07168 0.52721,0.26361 0.88262,0.44131c0.20851,-0.13587 0.44864,-0.13587 0.44864,-0.13587h0.12821c2.16316,0 4.09033,-0.22837 6.22336,-0.49528c0.04708,-0.00944 0.0981,-0.01534 0.15338,-0.01704c0.64635,-0.62985 1.05205,-1.8567 0.72956,-2.61137c-0.41173,-0.96349 -1.53099,-1.92094 -2.09977,-2.77772c-1.59027,-2.39549 -2.26832,-5.81681 -2.66311,-8.5768c-0.7243,-2.51778 -1.75076,-5.154 -2.18629,-7.72859c-0.73387,-4.33817 -0.14427,-9.21981 -0.13644,-13.62828c0.48181,-3.85444 0.35974,-7.73726 0.90352,-11.59792l-0.00754,-0.27855c0,0 0,-0.22815 0.12584,-0.43278c-0.00249,-0.32297 0.0113,-0.65299 0.03501,-0.98728c-1.45489,1.73783 -3.05744,2.55687 -5.23917,3.02317c-0.08641,0.9079 -0.2,1.80562 -0.34731,2.68952c0.01034,2.86081 -0.1057,5.72616 -0.12445,8.57439c0.20177,-2.46281 0.69347,-4.85724 1.92652,-7.07741c0,0 0.36423,-0.65562 1.01985,-0.29139c0.65562,0.36423 0.29139,1.01985 0.29139,1.01985c-2.93915,5.28878 -1.38587,11.83234 -2.2152,17.63765c0.01279,6.59073 -1.84057,15.31315 1.09864,21.19828c0.13289,0.3967 0.31105,0.8029 0.50783,1.21514c0.06275,0.04393 0.09882,0.08 0.09882,0.08zM251.74167,216.80234c-0.02671,-0.01335 -0.05342,-0.02671 -0.08012,-0.04006c0.14064,0.42103 0.23853,0.84008 0.2671,1.25368c0.17498,2.53265 -1.07905,3.94392 -2.96431,4.67182c-0.01035,0.05653 -0.0219,0.09117 -0.0219,0.09117l-0.08972,0.14744c0,1.0988 0.12239,2.57882 0.13426,4.08739c0.30804,-0.18747 0.67633,-0.04016 0.67633,-0.04016c1.57216,0.64887 5.16773,1.0025 6.70318,-0.1569c1.12966,-0.85299 1.70723,-1.69058 3.22618,-2.05511c0.97074,-0.23297 4.08814,-0.42922 4.32636,-1.39669c0.29919,-1.5629 -2.14099,-2.16947 -3.17793,-2.90702c-1.52357,-1.08367 -2.11066,-2.42515 -2.65887,-4.09205c-0.14838,-0.00393 -0.38068,-0.04331 -0.54468,-0.22888c-1.60708,0.18956 -3.1498,0.33661 -4.80387,0.3574c-0.33976,0.63409 -0.99202,0.30796 -0.99202,0.30796zM253.85127,179.25505c0.00864,4.31025 -0.5742,9.05142 0.11997,13.2948c0.41623,2.54434 1.4646,5.16297 2.17268,7.65603c0.37028,2.5946 0.95978,5.84253 2.4651,8.08987c0.64247,0.95916 1.86001,2.01479 2.2592,3.11971c0.54144,1.49867 -0.18118,3.36375 -1.38214,4.33247l-0.00202,0.13525c1.17051,3.35404 6.29207,4.44594 5.87927,7.88674c-1.20054,2.39654 -3.93369,1.70212 -6.20019,2.66815c-0.91983,0.39205 -1.13927,1.04132 -1.88829,1.57235c-2.06001,1.46049 -6.005,1.19914 -8.16861,0.35592c0,0 -0.06158,-0.02463 -0.14078,-0.07755c-0.07586,1.6461 -0.36486,3.20641 -1.17691,4.21168c-0.62811,0.77757 -1.73708,1.01088 -2.57219,1.48944c-3.02684,1.14178 -5.63926,0.91439 -8.75493,1.46547c-4.22533,0.74735 -9.28297,1.15108 -12.74045,-1.74757c-3.37668,-4.52454 3.16135,-8.54834 6.26129,-10.62795c0.89358,-0.59946 2.73877,-1.30569 2.62688,-2.58935c0,0 0,-0.34319 0.23215,-0.56527c-0.61856,-2.73177 2.13771,-6.65031 2.89136,-8.6693c0.72855,-1.95176 0.76296,-4.17194 1.10982,-6.21191c-0.00468,-1.52898 0.12565,-3.02682 0.12565,-4.55352v-0.15147c-0.24837,-0.05343 -0.4936,-0.1213 -0.73336,-0.20043c-5.99911,-4.00249 -3.88269,-12.17366 -2.44938,-17.90692c0,0 0.05381,-0.21523 0.21995,-0.38231c-0.44573,-1.12949 -0.36191,-2.54587 0.49348,-4.15975c0.96155,-1.81418 3.09936,-2.49624 4.10943,-4.24284c0.85692,-1.48178 0.93031,-3.60866 1.47528,-5.24474c1.30767,-3.9138 1.87892,-7.83779 2.11631,-11.85192c-0.14087,0.241 -0.28611,0.4821 -0.43581,0.72169c0.52773,0.3715 0.19946,0.9624 0.19946,0.9624c-1.31969,2.37289 -3.13968,4.47531 -4.34377,6.89426l-0.12821,0.25641c0,0 -0.33541,0.67082 -1.00623,0.33541c-0.67082,-0.33541 -0.33541,-1.00623 -0.33541,-1.00623l0.12821,-0.25641c0.53386,-1.06347 1.18049,-2.06505 1.85029,-3.05507c-1.57355,1.08728 -3.42117,1.50794 -5.57747,0.61829l-0.36309,-0.28723c0,0 -0.53033,-0.53033 0,-1.06066c0.53033,-0.53033 1.06066,0 1.06066,0l-0.10668,-0.03082c4.51372,2.03437 7.59061,-4.31791 9.16195,-7.46657c0,0 0.00878,-0.01757 0.02635,-0.0456c0.01567,-0.78665 0.02311,-1.57751 0.02523,-2.37315c0.49322,-2.95933 0.63847,-6.15671 0.63847,-9.16891v-0.76923c0,0 0,-0.69629 0.6709,-0.74708c0.45734,-1.03424 1.31468,-1.77528 2.15424,-1.47638l0.00557,-0.20753c0.89394,-4.83118 5.71717,-3.44201 7.13739,-0.24891c0.61323,-1.51412 2.27196,-1.56915 2.42933,0.75683l-0.20812,0.3748c1.32718,0.11915 2.40305,0.87954 2.63677,2.7263c0.25874,2.04454 -0.94832,3.55696 -2.59914,4.47316c0.04228,0.13598 0.04228,0.24625 0.04228,0.24625c0,4.70286 0.17985,9.37292 0.2383,14.0626c0.40273,0.18551 0.40273,0.68099 0.40273,0.68099v0.12821c0,2.50379 0.1074,5.03301 -0.29317,7.50471c0.00971,0.07901 0.02009,0.15788 0.03117,0.2366c0.26199,0.22002 0.26199,0.59202 0.26199,0.59202c0,0.59024 -0.00298,1.18047 -0.00725,1.77069l-0.05761,0.09173l0.036,0.01029l-0.25185,0.8815c-0.08416,0.32216 -0.37717,0.5599 -0.7257,0.5599c-0.24003,0 -0.45373,-0.11276 -0.59101,-0.2882c-0.11274,2.17165 -0.18476,4.34351 -0.45531,6.50788zM225.68434,227.8157c-0.84153,0.83611 -1.7523,3.92245 -0.89216,4.8421c3.01245,2.49181 7.71909,1.97089 11.36212,1.32935c3.00104,-0.52849 5.52795,-0.27575 8.42456,-1.35504c0.5227,-0.29786 1.65444,-0.57908 2.04319,-1.07466c1.40474,-1.79078 0.77134,-6.15146 0.73251,-8.42812c-3.36301,0.6184 -7.74311,-0.13594 -10.14119,-0.61647c-0.62772,-0.0791 -1.29423,0.05635 -1.89207,-0.1507c-0.59511,-0.20611 -1.06867,-0.46518 -1.4387,-0.76686c-1.13077,2.97737 -6.12668,4.16217 -8.19825,6.2204zM242.33559,199.59431l-0.33838,0.55059c-0.88815,1.6499 -1.78015,1.49568 -3.50497,1.21359c0,0 -0.01304,-0.00217 -0.03538,-0.00768c-0.03108,1.27348 -0.11611,2.53522 -0.11952,3.81692c-0.35594,2.17454 -0.41604,4.53188 -1.19788,6.60861c-0.95298,2.53133 -2.83115,3.74865 -2.64687,6.62139c0.06019,0.93832 0.15828,2.1859 1.26336,2.52878c0.54152,0.16802 1.135,0.03586 1.69767,0.10571c3.3129,0.66136 13.33118,2.68688 12.97701,-2.93899c-0.09846,-1.56406 -1.49094,-3.35913 -1.99519,-4.87983c-3.05368,-6.09858 -1.22096,-15.06675 -1.20905,-21.87864c0.46428,-3.24993 0.23642,-6.66159 0.39657,-9.98158c-0.14441,1.00996 -0.51173,2.15675 -1.2445,2.68206c-0.11395,0.08169 -0.23442,0.15568 -0.36065,0.22261c-1.21077,3.94451 -0.43751,7.6219 0.64816,11.51323c0.00571,1.13705 0.07294,3.18846 -1.23583,3.75005c-0.80013,0.34333 -1.99609,-0.21808 -2.99725,-0.19025c-0.03213,0.15478 -0.09732,0.26343 -0.09732,0.26343zM245.41042,182.56101c0.12137,0 0.2231,0.01964 0.30837,0.05257c0.5907,-0.74033 0.42534,-2.32482 0.48198,-3.07368c0.20297,-2.68326 0.12058,-5.38847 0.12888,-8.08562c0.12633,-0.75797 0.22764,-1.52623 0.30815,-2.30247c-0.07755,0.01067 -0.15578,0.02111 -0.23469,0.03134l-0.78998,-0.14453c0,0 -0.72761,-0.1819 -0.54571,-0.90951c0.1819,-0.72761 0.90951,-0.5457 0.90951,-0.5457l0.23566,0.11189c0.19053,-0.02406 0.3763,-0.04906 0.55761,-0.0754c0.36355,-5.18276 -0.0585,-10.64594 -0.0585,-15.71914c0,-3.47275 -0.43564,-6.50462 -0.89182,-9.90836c-0.08724,-0.65095 0.08202,-1.64584 -0.34651,-2.23463c-0.52319,-0.71884 -0.62209,1.94442 -0.6174,1.96109c0,0 0.15048,0.60189 -0.36972,0.84767c-0.0351,2.69749 -0.20024,5.49901 -0.63609,8.11405c0.01892,6.18856 -0.38754,12.11469 -2.34363,17.99582c-0.58734,1.76073 -0.68853,3.91124 -1.60164,5.52449c-1.00536,1.77622 -3.14527,2.45255 -4.0957,4.21871c-1.72607,3.2075 0.58146,4.78245 3.31916,4.78245c1.44361,0 3.90565,0.44533 5.54483,-0.01448c0.03689,-0.2129 0.18023,-0.62655 0.73722,-0.62655zM235.81426,195.23408c0,0 0,-0.75 0.75,-0.75c0.75,0 0.75,0.75 0.75,0.75c-0.00192,0.62748 0.30614,2.08766 0.8849,3.0913c0.05536,0.0005 0.11488,0.00662 0.17886,0.01942c0.64907,0.12981 0.61072,0.71791 0.59277,0.85424c0.19059,0.1159 0.39653,0.17512 0.61724,0.15872c0.49791,-0.03699 1.29772,-1.17562 1.87252,-1.37538c2.46625,-0.85708 3.69409,1.32166 3.71995,-2.00325c-1.11012,-3.76662 -1.75934,-7.42856 -0.85261,-11.22194c-1.72564,0.23701 -3.77938,-0.05516 -5.19951,-0.05516c-1.62794,0 -3.08584,-0.49436 -4.07339,-1.37215c-1.22652,4.82421 -3.09068,12.01204 1.69501,15.36305c-0.61257,-1.17493 -0.93335,-2.56491 -0.93573,-3.45885zM252.6908,164.38093c0.86192,-2.66938 0.36642,-6.32337 0.17664,-9.09368c-0.1829,-2.66977 0.12083,-5.4909 0.12624,-8.18589c-0.93275,0.20586 -1.86979,0.25218 -2.67868,0.13066c-2.62876,-1.39306 -1.78197,-3.98874 -1.00071,-6.33767l0.96792,-0.51283c0,0 0.15907,0 0.33069,0.07326c0.38544,-0.25421 0.81689,-0.49233 1.27211,-0.69759c0.24353,-2.53335 -4.04315,-5.18602 -4.58095,-1.32288l0.0102,0.13311c0,0 0,0.5939 -0.52849,0.72471c0.07458,0.12217 0.14737,0.25725 0.218,0.40592c1.59793,3.36351 1.20793,8.54547 1.20793,12.2027c0,4.98135 0.40269,10.33313 0.08213,15.43392c1.81823,-0.44047 3.14383,-1.22053 4.39696,-2.95374zM250.33874,142.50632c-0.40779,1.23815 -0.7414,2.79259 0.42351,3.29394c1.94288,0.25651 7.01484,-1.66665 5.41202,-4.41659c-1.23879,-2.12538 -4.3929,-0.19034 -5.48993,0.91922c0,0 -0.13889,0.13889 -0.3456,0.20344z" fill="#000000" stroke-width="0.5"/></g></g></svg>