<svg version="1.1" xmlns="http://www.w3.org/2000/svg" xmlns:xlink="http://www.w3.org/1999/xlink" width="101.52206" height="110.63349" viewBox="0,0,101.52206,110.63349"><defs><radialGradient cx="267.6894" cy="181.049" r="7.46367" gradientUnits="userSpaceOnUse" id="color-1"><stop offset="0" stop-color="#54606d"/><stop offset="1" stop-color="#2c3136"/></radialGradient></defs><g transform="translate(-182.65869,-127.77446)"><g data-paper-data="{&quot;isPaintingLayer&quot;:true}" stroke-miterlimit="10" stroke-dasharray="" stroke-dashoffset="0" style="mix-blend-mode: normal"><path d="M240.15344,201.83606c0.08756,0.72689 0.27764,2.08081 0.43219,3.87166c0.29352,3.40087 0.45899,8.37739 -0.44877,13.62744l-0.09418,0.39395c-0.09418,0.39395 0.26533,0.79161 0.71904,0.7953c2.95288,-0.4145 8.72023,-0.98149 7.71887,4.58028c-0.9091,5.38709 -18.21688,7.74588 -19.62242,2.42763c-0.38843,-2.28378 1.02836,-3.45638 1.80502,-4.06405c0.41139,-0.3475 0.64206,-0.78421 0.78239,-1.2655c0.19218,-1.22646 0.48431,-3.50467 0.4554,-5.3908c-0.00405,-4.73668 -0.3559,-6.01142 -0.78856,-8.42712c-0.43266,-2.41571 -1.65364,-8.08331 2.94479,-9.88784c3.91597,-1.59082 5.79626,1.31913 6.09624,3.33903z" fill="#ffab19" fill-rule="evenodd" stroke="#001026" stroke-width="1.2" stroke-linecap="round" stroke-linejoin="round"/><g fill-rule="evenodd"><path d="M224.57321,201.56497c0.81163,0.39226 2.53635,1.27485 0.10145,4.60908c-2.4349,3.33423 -9.43522,4.02068 -10.24686,4.02068c-3.14507,0.09807 -7.00033,0.09807 -11.2614,-1.27485c-12.37739,-3.92262 -12.47884,-16.76919 -8.52214,-18.82857c3.85525,-2.05937 5.57997,5.88393 11.15994,10.68913c2.4349,2.15744 5.37706,2.94196 7.81196,3.43229c3.44944,0.58839 10.04395,-3.13809 10.95703,-2.64777z" fill="#ffab19" stroke="#001026" stroke-width="1.2" stroke-linecap="round" stroke-linejoin="round"/><path d="M199.41262,193.62167c1.62326,2.64777 4.76834,6.37425 4.76834,6.37425c0,0 -3.7538,-0.88259 -5.88433,0.78452c-1.72472,1.27485 -1.3189,3.43229 -1.11599,4.11875c-1.3189,-1.27485 -2.94217,-3.04003 -3.95671,-6.47232c-1.01454,-3.43229 0,-7.55104 2.02908,-8.13943c2.02908,-0.39226 2.53635,1.07872 4.15961,3.33423z" fill="#ffffff" stroke="none" stroke-width="1" stroke-linecap="butt" stroke-linejoin="miter"/></g><path d="M244.11102,191.12066c0.49136,0.41075 6.39575,7.69538 8.49328,6.00662c2.5147,-1.96773 6.01954,-5.86153 9.54098,-2.49253c3.52144,3.36899 -3.58996,8.60124 -6.58825,9.96223c-7.11564,2.77866 -12.56366,-3.21328 -13.71803,-4.82625c-1.15439,-1.61296 -3.17844,-4.33766 -3.07743,-6.88549c0.21017,-2.74007 3.68428,-3.29832 5.34945,-1.76458z" fill="#ffab19" fill-rule="evenodd" stroke="#001026" stroke-width="1.2" stroke-linecap="round" stroke-linejoin="round"/><path d="M222.47102,208.35421c0.11249,-2.03771 1.71689,-5.0981 5.764,-3.85109c4.74658,1.40107 4.0532,7.15132 3.84508,9.59469c-0.20812,2.44337 0.37063,3.74335 0.8035,8.46152c0.14517,1.8811 -0.16537,4.12507 0.13917,5.33008c0.10252,0.26012 1.00472,10.34146 -7.70875,9.90475c-7.69304,-0.38557 -1.41534,-12.01195 -1.41534,-12.01195c0,0 -1.47968,-10.12188 -1.50101,-13.5345c-0.01124,-1.79704 0.0532,-3.16195 0.07337,-3.89349z" data-paper-data="{&quot;index&quot;:null}" fill="#ffab19" fill-rule="evenodd" stroke="#001026" stroke-width="1.2" stroke-linecap="round" stroke-linejoin="round"/><g fill-rule="evenodd"><path d="M227.13618,208.16569c-11.07562,-4.59563 -5.82149,-10.23245 -5.0176,-15.57698c0.87006,-4.63348 2.20332,-4.28957 8.32097,-5.30839c3.40097,-0.74202 5.4037,-1.17314 7.44975,-2.0408c3.08732,-1.25575 4.27132,3.34792 4.33183,5.95292c0,0 0.02521,3.8794 -0.51189,6.07653c-0.6751,2.66897 -1.26354,4.46483 -2.07098,5.71168c0,0 -1.73479,2.68022 -3.91702,3.58526c-1.96158,0.81353 -8.58508,1.59978 -8.58508,1.59978z" fill="#ffab19" stroke="#001026" stroke-width="1.2" stroke-linecap="round" stroke-linejoin="round"/><path d="M238.74981,203.20667c0,0 -1.85791,-0.56879 -3.91998,-1.3768c-2.55021,-0.94139 -4.99092,-1.60827 -4.22917,-5.15036c0.82793,-2.83103 1.26918,-6.35877 6.58741,-5.2929c5.05591,0.95344 4.16982,3.91124 4.16982,3.91124c-0.44008,4.89363 -2.60809,7.9088 -2.60809,7.9088z" fill="#ffffff" stroke="none" stroke-width="1" stroke-linecap="butt" stroke-linejoin="miter"/></g><g fill-rule="evenodd"><path d="M250.32407,132.67438c0.30711,-0.19209 0.81294,-0.08734 0.90885,0.30623l2.48919,10.52687c0,0 6.42728,4.69442 8.30897,7.95575c3.16996,5.43598 3.20901,9.84986 3.20901,9.84986c0,0 7.17345,2.15434 8.31174,7.75963c1.1383,5.60529 -3.47501,16.1364 -22.59789,19.51251c-19.12288,3.37612 -34.37029,-1.82714 -41.41478,-13.10071c-7.04449,-11.27357 4.50587,-24.45912 3.8861,-23.68272c0,0 -0.82945,-15.64616 -0.42644,-15.44469l11.52805,5.29352c0,0 4.58857,-1.60665 9.35924,-1.73977c2.84322,-0.15858 5.27511,0.0697 7.60279,0.49274z" fill="#ffab19" stroke="#001026" stroke-width="1.2" stroke-linecap="butt" stroke-linejoin="miter"/><path d="M264.93021,161.70128c0,0 6.97472,1.85749 8.11301,7.46278c1.1383,5.60529 -3.87386,15.64075 -22.79246,18.92149c-24.6189,4.57847 -36.08537,-9.69576 -29.1416,-19.99993c6.94515,-10.40222 18.48509,-1.32497 27.01475,-1.80073c7.31094,-0.39378 8.20985,-6.56061 16.80629,-4.58362z" fill="#ffffff" stroke="none" stroke-width="1" stroke-linecap="butt" stroke-linejoin="miter"/><path d="M283.58075,163.02651c-4.82059,3.66315 -12.12598,3.66471 -12.12598,3.66471" fill="none" stroke="#001026" stroke-width="1.2" stroke-linecap="round" stroke-linejoin="round"/><path d="M282.10668,173.9914c-6.39794,0.40584 -10.32793,-1.50949 -10.32793,-1.50949" fill="none" stroke="#001026" stroke-width="1.2" stroke-linecap="round" stroke-linejoin="round"/><path d="M247.75419,163.73008c2.13033,0.02814 4.35935,0.25374 4.45108,0.94148c0.08204,1.37413 -1.47846,4.0996 -3.10296,4.17622c-1.82878,0.17199 -6.05479,-2.33571 -6.0326,-3.90461c-0.08481,-1.17801 2.65558,-1.23988 4.68448,-1.21308z" fill="#001026" stroke="#001026" stroke-width="1.2" stroke-linecap="round" stroke-linejoin="round"/><path d="M202.12494,161.65612c0,0 8.68541,2.86083 12.19298,5.94749" fill="none" stroke="#001026" stroke-width="1.2" stroke-linecap="round" stroke-linejoin="round"/><path d="M214.57373,171.03961c-4.38568,1.60932 -11.87733,0.43153 -11.87733,0.43153" fill="none" stroke="#001026" stroke-width="1.2" stroke-linecap="round" stroke-linejoin="round"/><g><path d="M259.88687,152.41564c2.8795,4.4514 2.91023,9.45361 0.04482,11.1811c-2.86541,1.72748 -7.50274,-0.39335 -10.48368,-4.84609c-2.8795,-4.4514 -2.91023,-9.45361 -0.04482,-11.1811c2.8668,-1.82555 7.60418,0.39468 10.48368,4.84609z" fill="#ffffff" stroke="#001026" stroke-width="1.2" stroke-linecap="round" stroke-linejoin="round"/><path d="M260.1629,158.00954c-0.01525,1.07862 -0.83929,1.9504 -1.85374,1.937c-1.01445,-0.01341 -1.81352,-0.90663 -1.79827,-1.98525c0.01525,-1.07862 0.83929,-1.9504 1.85374,-1.937c1.01445,0.01341 1.81352,0.90663 1.79827,1.98525" fill="#001026" stroke="none" stroke-width="1" stroke-linecap="butt" stroke-linejoin="miter"/></g><g><path d="M234.6898,154.82884c2.98233,4.35468 2.70456,9.64704 -0.06078,11.47392c-3.37402,1.81884 -7.81816,0.38708 -10.80049,-3.9676c-3.08378,-4.35603 -3.20763,-9.94792 -0.03234,-12.0636c3.17667,-2.21375 7.91128,0.20259 10.89362,4.55728z" fill="#ffffff" stroke="#001026" stroke-width="1.2" stroke-linecap="round" stroke-linejoin="round"/><path d="M234.50794,160.51476c-0.01525,1.07862 -0.83929,1.9504 -1.85374,1.937c-1.01445,-0.01341 -1.81352,-0.90663 -1.79827,-1.98525c0.01525,-1.07862 0.83929,-1.9504 1.85374,-1.937c1.01306,0.11146 1.81352,0.90663 1.79827,1.98525" fill="#001026" stroke="none" stroke-width="1" stroke-linecap="butt" stroke-linejoin="miter"/></g></g><g fill-rule="nonzero" stroke="#001026" stroke-width="1.2" stroke-linejoin="miter"><g><path d="M250.47467,202.44085l7.35588,-20.55967l11.89631,5.98098l-12.39266,17.20042c0,0 -2.59638,0.60423 -3.70406,0.18086c-1.17489,-0.44905 -3.15548,-2.80259 -3.15548,-2.80259z" fill="#505a63" stroke-linecap="butt"/><path d="M257.79929,180.34934c1.9021,-3.53483 6.40864,-4.90991 10.0656,-3.07134c3.65697,1.83857 5.07957,6.1946 3.17747,9.72941c-1.9021,3.53483 -6.40865,4.90992 -10.06561,3.07134c-3.65697,-1.83857 -5.07956,-6.1946 -3.17746,-9.72943z" fill="url(#color-1)" stroke-linecap="butt"/><path d="M258.65544,187.73513c0,0 1.30978,-4.36277 2.29801,-6.25139c0.92361,-1.76511 3.45061,-4.73486 3.45061,-4.73486" fill="none" stroke-linecap="round"/><path d="M264.88536,190.70957c0,0 1.51362,-5.45315 2.36558,-7.48084c0.6295,-1.49819 2.2839,-3.58495 2.2839,-3.58495" fill="none" stroke-linecap="round"/><path d="M257.54164,180.70999c0,0 5.09154,-0.22152 7.57234,0.4133c2.15826,0.55228 6.48,3.18255 6.48,3.18255" fill="none" stroke-linecap="round"/><path d="M256.935,186.0817c0,0 5.61276,0.10217 8.07718,0.48139c1.91573,0.29479 5.48224,1.60515 5.48224,1.60515" fill="none" stroke-linecap="round"/></g><path d="M263.31885,200.26978c-1.26121,2.36109 -4.36423,3.52047 -6.93082,2.58956c-2.56658,-0.93093 -4.1777,-3.02744 -2.9165,-5.38854c1.26121,-2.36109 4.91714,-4.09268 7.48372,-3.16175c2.56658,0.93093 3.62479,3.59963 2.36358,5.96073z" fill="#ffab19" stroke-linecap="butt"/></g><g fill-rule="nonzero" stroke="#001026" stroke-width="1.2" stroke-linecap="butt" stroke-linejoin="miter"><path d="M225.23312,148.38067c-1.46317,4.2607 -21.69625,11.98284 -21.69625,11.98284c0,0 -2.91342,-0.15779 -4.2846,-0.30191c-10.26905,-1.07937 -17.12863,-4.50785 -15.83782,-8.26666c1.46317,-4.2607 12.84457,-7.33236 25.42104,-6.86077c12.57648,0.47159 17.86079,-0.8142 16.39762,3.44649z" fill="#00b0f7"/><path d="M209.69756,143.87985l-11.90305,-3.73034c0,0 14.73221,-6.15667 22.79587,-7.88561c9.75249,-2.09105 31.62184,-3.78219 31.62184,-3.78219l-14.37027,17.37125z" fill="#ff2b2b"/><path d="M200.98172,161.27192c0,0 -2.89883,-7.22802 -3.44679,-10.73061c-0.53159,-3.39801 0.20665,-9.9807 0.20665,-9.9807l26.57624,-3.88457c0,0 0.51467,7.52797 1.07006,11.07801c0.52268,3.34103 2.17008,9.63328 2.17008,9.63328z" data-paper-data="{&quot;index&quot;:null}" fill="#cc0000"/><path d="M227.12817,157.38567c0,0 -1.04832,-6.42664 -2.00067,-9.67785c-1.01192,-3.4546 -3.90299,-10.47665 -3.90299,-10.47665l31.6625,-8.66538c0,0 3.86368,5.59624 4.83228,8.90289c0.9984,3.40841 1.07137,11.25159 1.07137,11.25159z" fill="#f70000"/></g><path d="M223.94308,199.46051c-0.55725,4.0186 1.26077,7.81904 -0.23137,9.84858c-0.97383,1.32455 -2.53844,2.22894 -3.5685,2.09549c-1.14806,-0.14874 -2.94298,-1.69544 -3.52102,-3.53567c-0.73526,-2.34068 -2.64038,-5.91402 -2.1248,-9.63216c0.45481,-3.27983 3.38524,-6.48875 4.52229,-8.54986c1.16534,-2.11242 3.1383,-2.50365 4.4585,-2.3326c1.42533,0.18467 2.81379,1.24387 3.32725,3.89801c0.42619,2.20297 -2.44465,5.19603 -2.86234,8.20823z" fill="#ffab19" fill-rule="nonzero" stroke="#001026" stroke-width="1.2" stroke-linecap="butt" stroke-linejoin="miter"/><path d="M249.07619,178.43275l-7.18218,0.17648" fill="none" fill-rule="nonzero" stroke="#001026" stroke-width="1.2" stroke-linecap="round" stroke-linejoin="miter"/></g></g></svg>