<svg version="1.1" xmlns="http://www.w3.org/2000/svg" xmlns:xlink="http://www.w3.org/1999/xlink" width="88.3244" height="183.57991" viewBox="0,0,88.3244,183.57991"><g transform="translate(-186.1518,-66.41837)"><g data-paper-data="{&quot;isPaintingLayer&quot;:true}" fill-rule="nonzero" stroke-linejoin="miter" stroke-miterlimit="10" stroke-dasharray="" stroke-dashoffset="0" style="mix-blend-mode: normal"><path d="M250.7477,190.52717c1.05367,3.00886 1.15177,8.5892 -0.98701,6.8104c0.26356,5.96696 -2.51762,9.32738 -5.33635,8.24641c-4.74669,0.8779 -4.87825,-10.16085 -4.861,-22.13381c-5.42467,-27.65203 0.86896,-28.87939 1.33497,-28.32074c6.12574,7.34375 5.50629,22.26847 9.84939,35.39773z" fill="#0f002d" stroke="#0f002d" stroke-width="1.5" stroke-linecap="butt"/><path d="M242.53191,196.51095c0,0 0.91934,4.22192 -0.43516,4.9127c-1.52824,0.77939 -2.06233,0.83609 -1.85055,-5.34127" fill="none" stroke="#0f002d" stroke-width="1.5" stroke-linecap="round"/><g stroke="#0f002d" stroke-width="1.5" stroke-linecap="round"><path d="M227.16882,145.13479c0.78521,0.05151 3.52584,5.90916 3.52584,5.90916c0,0 -2.6015,6.29167 -3.07619,12.30276c-1.1937,4.08811 9.75104,-1.76387 2.03838,11.26701c-3.34645,5.65397 -17.46504,-1.53013 -16.31235,-4.6063c0,0 11.07844,-25.05276 13.82432,-24.87263z" fill="#5e1284"/><path d="M225.22343,163.42745l2.48587,-0.16978" fill="none"/></g><g stroke="#0f002d" stroke-width="1.5"><path d="M237.6865,223.09321c-1.01345,-3.79649 -0.01236,-7.68822 4.67439,-7.68822c1.39116,0 5.05371,0.6958 6.23537,1.43404c3.80271,2.37574 11.38445,1.08091 11.05811,5.34649c-0.32635,4.26557 -21.34223,3.25136 -21.96786,0.9077z" fill="#e9caf8" stroke-linecap="butt"/><path d="M225.86337,249.21214c-7.10671,0.49301 -10.43428,-4.14815 -11.5485,-8.34919c-1.10548,-4.16809 -2.56692,-17.36197 1.51915,-19.03987c6.53248,-2.68246 14.71258,0.71239 15.19922,8.45144c1.70463,7.44729 4.64943,18.25643 -5.16987,18.93761z" fill="#e9caf8" stroke-linecap="butt"/><g stroke-linecap="round"><path d="M249.00851,215.25703c-2.48496,3.13722 -10.49999,4.44738 -11.63069,0.76164c-1.33969,-4.36693 0.06472,-12.04004 0.65771,-20.56137c0.5853,-8.41084 0.68702,-17.48642 0.30564,-17.30672c-0.57416,0.27053 -1.74873,12.58342 -3.01953,20.66824c-1.2708,8.08482 -1.22411,23.81498 -7.1065,28.27867c-4.03435,3.06134 -10.58725,1.62611 -13.65315,-1.34229c-2.44284,-2.36515 -2.39778,-5.88117 0.91171,-7.58461c1.19749,-5.10566 4.06705,-14.11073 5.08326,-22.09714c0.94375,-7.41689 4.33506,-23.086 5.08588,-23.27542c3.02712,-0.76372 17.20289,-3.98803 18.92258,-4.32451c0.37643,-0.07366 2.94314,11.9886 3.91254,23.83514c0.94661,11.56797 0.86647,22.92575 0.53056,22.94837z" fill="#414ca9"/><path d="M242.86068,176.19782l-4.43245,1.88621" fill="none"/></g></g><g stroke="#0f002d"><path d="M225.53389,173.03051c-2.14273,-1.72696 3.67295,-12.24528 4.86915,-15.77367c-0.30178,-7.04412 -6.47303,-18.94825 -2.87457,-17.78138c6.09041,1.97493 8.6067,6.4845 12.61927,12.95828c3.83326,6.18449 4.75514,15.63898 4.47986,15.89118c-1.53709,1.40817 -7.79809,5.94387 -19.0937,4.70561z" fill="#8f21c6" stroke-width="1.5" stroke-linecap="round"/><path d="M232.39073,142.15006c0.32198,0.99239 -5.32717,0.8013 -5.54212,-0.22293c-0.18941,-0.90255 0.24612,-2.07423 1.32167,-2.18937c1.38863,-0.14865 3.8484,1.26554 4.22046,2.41228z" fill="#0f002d" stroke-width="1" stroke-linecap="butt"/><path d="M243.20091,160.70316c0.42128,0.45677 1.18059,7.64414 0.88795,7.90555c-1.60724,3.08612 -13.75048,5.75628 -13.51158,4.28101c-1.59754,-12.63835 12.40586,-12.42269 12.62364,-12.18656z" fill="#c168ee" stroke-width="1" stroke-linecap="round"/><path d="M229.85884,142.65261c0,0 3.36533,5.57162 3.55637,9.39021c0.19618,3.92133 2.0317,6.6107 2.05821,11.16971" fill="none" stroke-width="1" stroke-linecap="round"/><path d="M231.24185,141.6661c0,0 3.8322,4.10965 4.70986,7.97907c0.81241,3.58176 3.2583,7.97958 4.14092,12.1073" fill="none" stroke-width="1" stroke-linecap="round"/></g><path d="M247.41269,133.7041c-3.5743,4.99989 -15.97837,1.86739 -16.49706,2.08451c-1.23624,2.45379 -9.27481,2.16657 -13.30468,-0.52321c-0.54796,-0.3194 -13.00521,2.20411 -14.56021,-3.66448c-2.67464,-0.63825 -10.83449,-2.08244 -10.32612,-10.54161c-5.42231,-2.5332 -8.25849,-10.61777 -3.12502,-16.87103c-1.69273,-7.07198 -0.68424,-17.72327 6.46722,-20.05532c-1.43909,-6.38329 14.71625,-19.73717 23.63433,-11.11651c18.17878,-14.03363 31.7015,1.22084 31.42284,4.14576c14.61757,-2.77264 19.82802,15.48134 19.30841,17.08935c2.92179,0.54389 7.22576,14.63035 -4.09463,20.11628c0.85131,2.51425 -2.70157,14.08235 -9.97743,13.5202c-0.40819,1.80352 -3.40979,6.67936 -8.94767,5.81606z" fill="#3d2747" stroke="#0f002d" stroke-width="1.5" stroke-linecap="round"/><g><g><path d="M237.51511,105.10628c-0.20568,3.12009 -7.04217,12.07128 -14.55213,11.57623c-7.50997,-0.49505 -12.52893,-3.10232 -12.32325,-6.22239c-0.00139,-7.09041 0.5161,-7.99272 9.18188,-5.97098c3.25929,-0.2403 6.3554,-3.16516 9.41858,-2.96323c5.33856,1.40753 8.49072,2.3083 8.27492,3.58039z" fill="#2f1e38" stroke="none" stroke-width="0" stroke-linecap="butt"/><path d="M238.00491,104.65272c-0.27645,4.31185 -13.55861,20.30006 -27.73187,6.33651" fill="none" stroke="#0f002d" stroke-width="1.5" stroke-linecap="round"/></g><path d="M259.26263,97.44411c0.40992,3.60734 -2.48551,6.46328 -10.98403,5.20726c-5.64327,2.4254 -14.36174,1.09337 -19.26315,-1.3101c-14.90929,6.15444 -26.94933,0.24908 -19.31599,-6.4221" fill="#3d2747" stroke="#0f002d" stroke-width="1.5" stroke-linecap="round"/></g><g><g><path d="M249.01228,116.5355c0.57116,-0.12592 -3.19006,2.91297 -7.67381,6.49067c-5.64102,7.45159 -11.83717,18.29173 -18.97206,17.21124c-7.38569,-1.11848 -13.31748,-16.78397 -13.39715,-29.30427c0.07212,-0.58244 0.58235,-0.77835 0.79667,-0.54457c9.85994,10.75521 34.37802,7.2203 39.24636,6.14695z" fill="#ffffff" stroke="#0f002d" stroke-width="1.5" stroke-linecap="round"/><path d="M239.23739,125.79011c0,0 0.26966,-2.9849 0.50871,-4.36666c0.19439,-1.12357 1.09841,-3.38366 1.09841,-3.38366l6.89969,-0.73275z" fill="#0f002d" stroke="none" stroke-width="0" stroke-linecap="butt"/><path d="M237.89206,126.79762c0,0 -2.13653,-8.80803 -2.28235,-8.46639c-1.41736,3.32094 -9.61026,21.79244 -9.65254,21.34345c-0.36694,-3.89666 -2.107,-22.34972 -2.2657,-21.97578c-0.83037,1.95659 -7.69321,17.2887 -7.74329,16.78236c-0.2305,-2.33021 -1.5429,-20.29567 -1.68107,-20.01723c-0.49661,1.00079 -3.816,7.3274 -3.816,7.3274" fill="none" stroke="#0f002d" stroke-width="1.5" stroke-linecap="round"/></g><path d="M207.52035,110.81874c0,0 1.03792,-2.75426 3.63125,-1.03956" fill="none" stroke="#0f002d" stroke-width="1.5" stroke-linecap="round"/></g></g></g></svg>