<svg version="1.1" xmlns="http://www.w3.org/2000/svg" xmlns:xlink="http://www.w3.org/1999/xlink" width="94.89673" height="125.82114" viewBox="0,0,94.89673,125.82114"><defs><radialGradient cx="260.79699" cy="166.61623" r="6.99971" gradientUnits="userSpaceOnUse" id="color-1"><stop offset="0" stop-color="#54606d"/><stop offset="1" stop-color="#2c3136"/></radialGradient></defs><g transform="translate(-178.17305,-112.58681)"><g data-paper-data="{&quot;isPaintingLayer&quot;:true}" stroke-miterlimit="10" stroke-dasharray="" stroke-dashoffset="0" style="mix-blend-mode: normal"><path d="M239.36306,199.27209c0.20071,0.76461 0.5995,2.18395 1.03746,4.07867c0.8317,3.59809 2.01482,14.65343 2.01482,14.65343c0,0 8.58905,10.53976 1.71276,13.0275c-7.78838,2.81774 -9.48476,-8.03865 -9.45672,-8.34021c-0.02449,-1.35087 -0.86554,-3.62898 -1.20307,-5.64843c-0.7843,-5.08377 -0.58395,-6.60882 -1.38191,-9.12454c-0.79795,-2.51573 -2.86038,-8.38114 1.09219,-11.1405c3.35703,-2.4079 5.57435,0.37947 6.18446,2.49405z" data-paper-data="{&quot;index&quot;:null}" fill="#ffab19" fill-rule="evenodd" stroke="#001026" stroke-width="1.2" stroke-linecap="round" stroke-linejoin="round"/><g fill-rule="evenodd"><path d="M222.49585,196.85778c0.78079,-0.38998 2.48388,-1.18855 4.18221,2.75343c1.69833,3.94198 -1.39056,9.80639 -1.81998,10.43741c-1.57617,2.50548 -3.61593,5.50285 -7.10018,7.97206c-10.06235,7.21262 -21.62322,-0.60282 -21.37446,-4.94454c0.1951,-4.26286 8.22275,-0.72257 15.47926,-2.10801c3.22078,-0.56731 5.48017,-2.37267 7.20764,-3.96443c2.3521,-2.32028 2.50319,-9.7373 3.4255,-10.1459z" fill="#ffab19" stroke="#001026" stroke-width="1.2" stroke-linecap="round" stroke-linejoin="round"/><path d="M202.0686,211.53828c3.23056,0.36503 8.23253,0.20977 8.23253,0.20977c0,0 -2.77665,2.37612 -2.41059,5.05702c0.22941,2.12434 2.37663,3.13458 3.09888,3.39867c-1.83974,0.242 -4.27974,0.41934 -7.89096,-0.90106c-3.61122,-1.3204 -6.76377,-4.64018 -6.21726,-6.57932c0.7222,-1.81861 2.30821,-1.30907 5.18739,-1.18508z" fill="#ffffff" stroke="none" stroke-width="1" stroke-linecap="butt" stroke-linejoin="miter"/></g><path d="M242.35057,183.49085c0.55714,0.30073 7.90557,6.38355 9.32594,4.04903c1.71869,-2.739 3.7937,-7.76665 7.90486,-5.16434c4.11118,2.6023 -0.84166,9.99866 -3.16502,12.22882c-5.63947,4.81835 -12.21686,-0.02733 -13.7061,-1.41499c-1.48924,-1.38765 -4.07163,-3.71201 -4.68965,-6.41712c-0.57313,-2.93631 2.40244,-4.44956 4.32996,-3.2814z" fill="#ffab19" fill-rule="evenodd" stroke="#001026" stroke-width="1.2" stroke-linecap="round" stroke-linejoin="round"/><path d="M222.82645,205.72534c0.1055,-2.21958 1.61016,-5.55311 5.4057,-4.19482c4.45152,1.52613 3.80124,7.78961 3.60606,10.45105c-0.19518,2.66145 0.34759,4.07747 0.75355,9.21675c0.13614,2.049 -0.15509,4.49326 0.13053,5.80581c0.09615,0.28333 0.94226,11.26448 -7.22956,10.78879c-7.21482,-0.41998 -1.32737,-13.08407 -1.32737,-13.08407c0,0 -1.3877,-11.02531 -1.4077,-14.74251c-0.01054,-1.95744 0.0499,-3.44417 0.06881,-4.24101z" data-paper-data="{&quot;index&quot;:null}" fill="#ffab19" fill-rule="evenodd" stroke="#001026" stroke-width="1.2" stroke-linecap="round" stroke-linejoin="round"/><g fill-rule="evenodd"><path d="M231.65043,206.07155c-11.45936,-1.20165 -8.87879,-8.64897 -10.12131,-14.38543c-0.92434,-5.02818 0.37866,-5.09819 5.40878,-8.0829c2.73222,-1.83943 4.34329,-2.91661 5.83312,-4.45528c2.26757,-2.26687 4.99489,2.07943 5.99996,4.73204c0,0 1.43944,3.9709 1.76778,6.39465c0.37885,2.95146 0.51525,4.97995 0.25771,6.5148c0,0 -0.55284,3.29901 -2.14927,4.91919c-1.43503,1.45636 -6.99681,4.36294 -6.99681,4.36294z" fill="#ffab19" stroke="#001026" stroke-width="1.2" stroke-linecap="round" stroke-linejoin="round"/><path d="M240.09448,197.30295c0,0 -1.84845,0.00573 -3.96458,-0.16917c-2.5959,-0.15691 -4.99484,-0.067 -5.61613,-3.94145c-0.30309,-3.16616 -1.20215,-6.92424 3.88359,-7.51733c4.81301,-0.62522 5.11105,2.68938 5.11105,2.68938c1.39907,5.15866 0.58604,8.93857 0.58604,8.93857z" fill="#ffffff" stroke="none" stroke-width="1" stroke-linecap="butt" stroke-linejoin="miter"/></g><g fill-rule="evenodd"><path d="M227.00773,120.40291c0.16218,-0.3394 0.62665,-0.49671 0.88984,-0.17013l6.97735,8.77433c0,0 7.47797,1.20883 10.55155,3.36245c5.15062,3.5726 7.25119,7.76257 7.25119,7.76257c0,0 6.90034,-1.59327 10.46192,3.17399c3.56159,4.76727 4.70845,17.15758 -9.41282,30.10248c-14.12126,12.94489 -29.08065,15.7362 -40.14868,8.56625c-11.06803,-7.16994 -7.76225,-25.61977 -7.90734,-24.56409c0,0 -8.01347,-14.50099 -7.58811,-14.5138l11.9474,-0.81374c0,0 3.01515,-3.86587 6.87036,-6.41895c2.26049,-1.59715 4.3645,-2.61616 6.47422,-3.39641z" fill="#ffab19" stroke="#001026" stroke-width="1.2" stroke-linecap="butt" stroke-linejoin="miter"/><path d="M252.60512,140.65996c0,0 6.59802,-1.77535 10.15962,2.99192c3.56159,4.76727 4.14864,16.88769 -9.84956,29.63772c-18.07106,16.88663 -34.17657,9.10354 -33.30334,-4.25546c0.82841,-13.45324 14.55877,-10.66422 21.34025,-15.45571c5.8191,-4.09352 3.66728,-10.43239 11.65304,-12.91847z" fill="#ffffff" stroke="none" stroke-width="1" stroke-linecap="butt" stroke-linejoin="miter"/><path d="M268.54173,132.43927c-2.24192,5.94529 -8.24027,9.6619 -8.24027,9.6619" fill="none" stroke="#001026" stroke-width="1.2" stroke-linecap="round" stroke-linejoin="round"/><path d="M272.46978,143.64686c-5.06371,3.64074 -9.18855,3.81251 -9.18855,3.81251" fill="none" stroke="#001026" stroke-width="1.2" stroke-linecap="round" stroke-linejoin="round"/><path d="M239.45118,151.32974c1.76258,-1.05652 3.69875,-1.97491 4.09637,-1.36563c0.71133,1.26888 0.70712,4.66194 -0.59099,5.56114c-1.42117,1.09406 -6.06671,0.85141 -6.78372,-0.65625c-0.6217,-1.08042 1.59968,-2.53304 3.27833,-3.53927z" fill="#001026" stroke="#001026" stroke-width="1.2" stroke-linecap="round" stroke-linejoin="round"/><path d="M201.00915,172.55623c0,0 8.47302,-1.68835 12.79991,-0.52815" fill="none" stroke="#001026" stroke-width="1.2" stroke-linecap="round" stroke-linejoin="round"/><path d="M215.62936,175.17512c-2.84728,3.76523 -9.55126,6.45174 -9.55126,6.45174" fill="none" stroke="#001026" stroke-width="1.2" stroke-linecap="round" stroke-linejoin="round"/><g fill="#001026" stroke="none" stroke-width="1" stroke-linecap="butt" stroke-linejoin="miter"><path d="M244.51166,137.8657c0.49296,1.0365 0.22482,2.28705 -0.61452,2.79016c-0.83933,0.5031 -1.91412,0.05754 -2.40707,-0.97897c-0.49296,-1.0365 -0.22482,-2.28705 0.61452,-2.79016c0.83933,-0.5031 1.91412,-0.05754 2.40707,0.97897"/></g><g fill="#001026" stroke="none" stroke-width="1" stroke-linecap="butt" stroke-linejoin="miter"><path d="M226.36968,154.01394c0.49296,1.0365 0.22482,2.28705 -0.61452,2.79016c-0.83933,0.5031 -1.91412,0.05754 -2.40707,-0.97897c-0.49296,-1.0365 -0.22482,-2.28705 0.61452,-2.79016c0.88414,-0.40887 1.91412,-0.05754 2.40707,0.97897"/></g></g><g fill-rule="nonzero" stroke="#001026" stroke-width="1.2" stroke-linejoin="miter"><g><path d="M251.23599,193.69322l0.90761,-23.57317l12.38568,3.1146l-6.38171,21.3852c0,0 -2.17175,1.32751 -3.28784,1.17788c-1.18379,-0.15872 -3.62374,-2.1045 -3.62374,-2.1045z" fill="#505a63" stroke-linecap="butt"/><path d="M251.68913,168.51817c0.73048,-4.22291 4.40918,-6.87012 8.21659,-5.91269c3.80741,0.95743 6.30174,5.15696 5.57126,9.37986c-0.73048,4.22291 -4.40919,6.87013 -8.2166,5.91269c-3.80741,-0.95743 -6.30173,-5.15696 -5.57125,-9.37989z" fill="url(#color-1)" stroke-linecap="butt"/><path d="M254.51613,176.05353c0,0 -0.03374,-4.93527 0.33128,-7.18403c0.34116,-2.10171 1.79207,-5.8973 1.79207,-5.8973" fill="none" stroke-linecap="round"/><path d="M260.95844,177.51883c0,0 -0.15349,-6.13578 0.05003,-8.49442c0.15038,-1.74271 1.06063,-4.37742 1.06063,-4.37742" fill="none" stroke-linecap="round"/><path d="M251.55728,168.96598c0,0 4.52696,-1.59061 6.93936,-1.58489c2.09876,0.00499 6.72559,1.61736 6.72559,1.61736" fill="none" stroke-linecap="round"/><path d="M252.50549,174.7743c0,0 5.08676,-1.38935 7.41328,-1.64793c1.80853,-0.20099 5.38742,0.22531 5.38742,0.22531" fill="none" stroke-linecap="round"/></g><path d="M262.20723,187.98591c-0.47954,2.81823 -2.95339,4.86441 -5.52554,4.57029c-2.57213,-0.29411 -4.60756,-2.06826 -4.12801,-4.8865c0.47954,-2.81823 3.29245,-5.61333 5.86458,-5.3192c2.57213,0.29411 4.26849,2.81718 3.78896,5.63541z" fill="#ffab19" stroke-linecap="butt"/></g><g fill-rule="nonzero" stroke="#001026" stroke-width="1.2" stroke-linecap="butt" stroke-linejoin="miter"><path d="M211.51392,146.6369c0.79518,4.8078 -12.20108,22.46239 -12.20108,22.46239c0,0 -2.46641,1.33111 -3.65994,1.89096c-8.93863,4.19282 -16.17833,4.41124 -16.87985,0.16978c-0.79518,-4.8078 7.11158,-13.52543 17.6602,-19.47135c10.54863,-5.94593 14.28547,-9.85958 15.08064,-5.05177z" fill="#00b0f7"/><path d="M196.64709,150.2447l-11.52279,2.49536c0,0 9.21264,-13.36404 15.02417,-19.11378c7.02867,-6.95396 24.19494,-19.68848 24.19494,-19.68848l-3.65989,23.87608z" fill="#ff2b2b"/><path d="M197.64031,171.26511c0,0 -5.76778,-5.41967 -7.8592,-8.48166c-2.02896,-2.97057 -4.5076,-9.62436 -4.5076,-9.62436l20.00358,-17.2202c0,0 3.95051,6.91821 6.07026,10.02168c1.99495,2.92076 6.29653,8.08434 6.29653,8.08434z" data-paper-data="{&quot;index&quot;:null}" fill="#cc0000"/><path d="M217.29017,154.26186c0,0 -3.87262,-5.59641 -6.17831,-8.213c-2.44992,-2.78028 -8.1148,-8.00744 -8.1148,-8.00744l21.9399,-24.36657c0,0 5.7954,3.37265 8.1404,6.03385c2.41718,2.74311 6.15269,10.18657 6.15269,10.18657z" fill="#f70000"/></g><path d="M221.77489,207.25647c-1.11175,1.25687 -2.71595,1.97441 -3.66361,1.67144c-1.05624,-0.33769 -2.51211,-2.26367 -2.7813,-4.3117c-0.34242,-2.60501 1.21675,-6.0767 2.25415,-9.95153c0.91512,-3.41807 1.32796,-7.00123 2.7026,-9.01614c1.40885,-2.06507 3.32024,-2.17289 4.53487,-1.78457c1.31132,0.41924 2.45794,1.76309 2.5454,4.66689c0.07259,2.41018 -0.95261,5.89762 -1.79304,9.03675c0,0 -2.09556,7.76302 -3.79903,9.68885z" fill="#ffab19" fill-rule="nonzero" stroke="#001026" stroke-width="1.2" stroke-linecap="butt" stroke-linejoin="miter"/><path d="M253.71865,158.13439c0.38849,0.54728 1.32159,3.26834 0.39655,4.20413c-1.0204,1.03228 -3.9998,0.31766 -5.63785,1.73442c-0.67529,0.58407 -0.22969,1.79884 -1.02128,2.36533c-0.65486,0.46863 -1.55081,2.72479 -2.44053,2.88148c-1.57721,0.27777 -3.23883,-1.74092 -4.24501,-1.32791c-2.28535,0.93809 -2.58709,2.51004 -3.17555,1.68107c-0.52911,-0.74536 -2.30669,-1.96352 -1.00688,-3.59308c0.55906,-0.70089 3.34851,-0.36594 4.72933,-1.16173c1.43811,-0.82881 2.52287,-1.31736 3.58486,-2.07736c0.75408,-0.53964 -0.11804,-3.31877 0.61745,-3.75331c2.12893,-1.25779 4.21796,0.51967 5.82045,0.55186c1.11271,0.02235 2.0402,-1.98141 2.37846,-1.50492z" fill="#ffffff" fill-rule="nonzero" stroke="#001026" stroke-width="1.2" stroke-linecap="butt" stroke-linejoin="miter"/></g></g></svg>