<svg version="1.1" xmlns="http://www.w3.org/2000/svg" xmlns:xlink="http://www.w3.org/1999/xlink" width="315.05446" height="259.7266" viewBox="0,0,315.05446,259.7266"><g transform="translate(-116.19459,-44.35092)"><g stroke-miterlimit="10"><g><g fill-rule="evenodd"><path d="M401.56435,236.41734c0.8237,-0.45762 6.77262,3.02021 9.88436,2.47108c2.19652,-0.45761 4.85065,-1.18978 7.04718,-3.20326c5.0337,-4.48457 6.58957,-11.89784 10.0674,-9.97588c3.56935,1.92196 3.47783,13.91131 -7.68783,17.57218c-3.84392,1.2813 -7.32174,1.2813 -10.15892,1.18978c-0.73218,0 -7.04718,-0.64066 -9.2437,-3.7524c-2.19653,-3.11174 -0.64066,-3.93544 0.09152,-4.30152z" fill="#ffab19" stroke="#001026" stroke-width="1.2" stroke-linecap="round" stroke-linejoin="round"></path><path d="M424.26176,229.00407c1.46435,-2.105 1.92196,-3.47783 3.7524,-3.11174c1.83044,0.54914 2.74565,4.39305 1.83044,7.59631c-0.91521,3.20327 -2.37957,4.85066 -3.56935,6.04044c0.18304,-0.64066 0.54913,-2.65413 -1.00674,-3.84392c-1.92196,-1.55587 -5.30827,-0.73218 -5.30827,-0.73218c0,0 2.83717,-3.47783 4.30152,-5.94891z" fill="#ffffff" stroke="none" stroke-width="1" stroke-linecap="butt" stroke-linejoin="miter"></path></g><g><path d="M390.00017,217.47968c4.38587,0.67253 3.64336,5.52622 3.02238,13.23206c-0.45685,5.66915 -1.45029,14.99116 -6.54412,15.25948c-4.14447,0.21831 -1.52366,-11.54213 -1.34193,-16.52658c0.18173,-4.98445 1.55928,-12.47167 4.86368,-11.96497z" fill="#ffab19" fill-rule="evenodd" stroke="#001026" stroke-width="1.2" stroke-linecap="round" stroke-linejoin="round"></path><path d="M386.50762,243.83396c0.78201,-8.62767 0.88655,-14.12891 5.85785,-14.03619c3.74549,0.06986 3.24021,8.60019 3.09188,14.13901c-0.14962,5.5872 1.77441,19.19507 1.77441,19.19507c0,0 -18.91928,7.68472 -20.6036,1.56345c-3.34337,-12.15064 8.75206,-9.39884 8.75206,-9.39884c0,0 0.99118,-9.95955 1.12739,-11.46252z" fill="#ffab19" fill-rule="evenodd" stroke="#001026" stroke-width="1.2" stroke-linecap="round" stroke-linejoin="round"></path><g fill-rule="evenodd"><path d="M398.40094,236.66054c-10.65824,2.15044 -10.05676,-7.84363 -10.78334,-12.64784c-0.95072,-6.28626 1.97853,-10.9574 7.89245,-11.16987c5.91393,-0.21247 9.30482,5.57991 10.30037,10.51627c0.50356,2.49685 3.24875,11.15101 -7.40949,13.30145z" fill="#ffab19" stroke="#001026" stroke-width="1.2" stroke-linecap="round" stroke-linejoin="round"></path><path d="M395.48916,234.10667c-1.69255,0.08596 -5.00802,0.65349 -6.34665,-6.33542c-1.34542,-7.02437 1.38488,-10.1076 4.20004,-10.07119c5.65451,0.01036 6.86199,6.50243 7.08076,9.48269c-0.0056,3.67366 -0.89104,6.71859 -4.93415,6.92393z" fill="#ffffff" stroke="none" stroke-width="1" stroke-linecap="butt" stroke-linejoin="miter"></path></g><path d="M405.86939,230.70112c0,0 1.03461,10.47589 1.28792,15.62668c0.22636,4.60254 0.16022,13.07282 0.16022,13.07282c0,0 17.16279,0.52847 8.68882,15.44679c-3.41613,6.01407 -19.79121,-10.13697 -19.79121,-10.13697c0,0 1.63019,-11.96583 1.9561,-17.83214c0.31749,-5.71483 -0.02525,-11.30634 -0.02525,-11.30634" fill="#ffab19" fill-rule="nonzero" stroke="#001026" stroke-width="1.2" stroke-linecap="round" stroke-linejoin="miter"></path><g fill-rule="evenodd"><path d="M376.68729,169.59396c2.01118,-0.71835 6.20066,-1.79693 8.74716,-2.03156c4.25509,-0.52024 8.53387,0.6886 8.53387,0.6886l12.49319,-9.06308c0.33114,-0.24643 0.82361,-0.04215 0.79081,0.34548l0.6677,16.98924c-0.65379,-0.65499 11.8551,9.42279 7.09828,21.10903c-4.75683,11.68624 -17.77812,23.53545 -35.21261,22.91509c-17.4345,-0.62036 -25.45836,-12.82774 -25.19322,-18.31758c0.26516,-5.48985 5.77828,-8.83567 5.77828,-8.83567c0,0 0.07242,-5.39329 2.16465,-10.99749c1.23736,-3.35953 5.59881,-8.28074 5.59881,-8.28074l-0.50573,-10.84863c0.03281,-0.38764 0.46815,-0.55594 0.7665,-0.41474z" fill="#ffab19" stroke="#001026" stroke-width="1.2" stroke-linecap="butt" stroke-linejoin="miter"></path><path d="M362.43722,193.78179c7.63609,-3.03826 9.32128,2.71215 16.10419,2.10392c7.91587,-0.69409 21.70577,-13.2495 29.54444,-4.27972c7.82376,8.8766 -5.25394,28.58928 -28.5472,27.54089c-17.86684,-0.57941 -23.79714,-11.67915 -23.52942,-17.1689c0.26772,-5.48976 6.428,-8.19619 6.428,-8.19619z" fill="#ffffff" stroke="none" stroke-width="1" stroke-linecap="butt" stroke-linejoin="miter"></path><path d="M397.24466,199.8752c1.01049,4.52061 1.9523,13.16502 -6.37707,15.45426c-9.69343,2.1254 -15.17836,-6.84272 -16.41969,-9.22409c-0.26092,-0.43602 0.03716,-0.96155 0.51793,-0.94297c1.44232,0.05575 4.60826,2.38086 11.45606,0.44592c8.07777,-2.09336 8.32209,-5.23718 9.98791,-6.17282c0.35776,-0.15285 0.7752,0.06699 0.83487,0.43968z" fill="#001026" stroke="#001026" stroke-width="1.2" stroke-linecap="round" stroke-linejoin="round"></path><path d="M357.12704,199.41001c0,0 -6.72322,0.98091 -11.66914,-1.85843" fill="none" stroke="#001026" stroke-width="1.2" stroke-linecap="round" stroke-linejoin="round"></path><path d="M357.63449,204.96676c0,0 -3.35023,2.35206 -9.29458,2.82603" fill="none" stroke="#001026" stroke-width="1.2" stroke-linecap="round" stroke-linejoin="round"></path><path d="M379.86567,194.36659c1.86341,-0.29837 4.39395,-0.60798 4.4798,0.52498c0.23869,1.49073 -3.30156,4.44656 -5.00846,4.52874c-1.50564,0.14551 -3.32093,-2.2395 -3.4366,-3.55881c-0.01126,-0.66712 2.00866,-1.18165 3.96525,-1.49493z" fill="#001026" stroke="#001026" stroke-width="1.2" stroke-linecap="round" stroke-linejoin="round"></path><path d="M411.61122,192.65783c2.79853,-3.41042 10.39352,-7.30216 10.39352,-7.30216" fill="none" stroke="#001026" stroke-width="1.2" stroke-linecap="round" stroke-linejoin="round"></path><path d="M422.84434,194.77719c0,0 -6.73055,2.12882 -10.9905,1.18638" fill="none" stroke="#001026" stroke-width="1.2" stroke-linecap="round" stroke-linejoin="round"></path><g fill="#001026" stroke="#001026" stroke-width="1.2" stroke-linecap="round" stroke-linejoin="round"><path d="M362.88551,185.99395c1.0304,-4.94524 4.4249,-8.47428 7.53428,-7.74899c3.07552,0.63722 4.71435,5.1628 3.68395,10.10804c-1.11846,4.97909 -4.45875,8.3862 -7.53427,7.74898c-3.07552,-0.63722 -4.71435,-5.1628 -3.68395,-10.10803z"></path></g><g fill="#001026" stroke="#001026" stroke-width="1.2" stroke-linecap="round" stroke-linejoin="round"><path d="M387.17126,185.59535c0.30398,-5.01572 2.95237,-9.23258 6.57628,-8.86739c3.57556,0.28417 6.16896,4.99978 5.78392,10.06385c-0.304,5.01572 -3.19269,8.27722 -6.78529,8.33284c-3.10639,-0.23443 -5.87889,-4.51357 -5.57491,-9.5293z"></path></g></g><path d="M399.00353,230.10905c0.51165,-7.71387 0.48633,-12.62396 4.92339,-12.64841c3.34298,-0.01842 3.61172,7.58972 3.06318,12.54723c-0.54853,4.9575 0.32573,16.97466 -3.74236,16.15312c-4.99995,-1.00974 -4.6206,-10.37687 -4.24419,-16.05193z" fill="#ffab19" fill-rule="evenodd" stroke="#001026" stroke-width="1.2" stroke-linecap="round" stroke-linejoin="round"></path></g></g><g fill-rule="nonzero" stroke-linejoin="miter"><g stroke-linecap="butt"><path d="M323.26927,230.20807c12.37724,-0.23188 5.24718,19.50118 -6.16667,21.33333c-11.50354,1.84655 -20.5,-5.86057 -20.5,-7.33333c0,-1.47276 8.64934,5.17004 13.83333,3c5.18399,-2.17004 4.56876,-16.84517 12.83333,-17z" fill="#ffab19" stroke="#001026" stroke-width="1.2"></path><path d="M323.37314,230.77927c6.5425,-0.12257 7.23795,6.74579 3.21858,13.38201c-0.03942,-4.31535 -3.60939,-6.86449 -7.06984,-6.86449c-1.0257,0 -3.15368,0.60233 -4.07039,3.49344c1.36567,-5.56667 4.20451,-9.94132 7.92166,-10.01096z" fill="#ffffff" stroke="none" stroke-width="0"></path></g><path d="M280.77663,238.60224c0.64061,-7.1018 1.01968,-7.68667 2.51224,-9.87095c1.23741,-1.81088 4.07498,-1.12973 4.74684,0.27208c0.67185,1.40181 -0.17229,6.56186 0.20238,10.35817c0.37467,3.7963 1.08504,5.06354 1.28224,9.62417c0.20677,4.78191 -1.19407,5.51345 -4.38945,6.09341c-3.19538,0.57996 -5.07947,-4.1279 -5.18924,-5.80234c-0.10977,-1.67443 0.19437,-3.57274 0.83498,-10.67454z" fill="#ffab19" stroke="#001026" stroke-width="1.2" stroke-linecap="round"></path><path d="M290.44129,244.08123c0,0 -1.16409,2.74368 -2.21885,9.17637c-1.05476,6.4327 3.5306,17.14243 -2.13421,17.37187c-8.89627,0.36033 -17.71508,1.7763 -21.301,0.31863c-3.58592,-1.45767 -3.57554,-6.63388 0.01542,-10.16593c3.59096,-3.53205 12.10902,-1.7596 12.10902,-1.7596c0,0 -1.22347,-2.83091 0.72131,-9.27309c1.94478,-6.44219 6.80497,-15.6581 6.80497,-15.6581" fill="#ffab19" stroke="#001026" stroke-width="1.2" stroke-linecap="round"></path><g stroke-linecap="butt"><path d="M300.54984,232.42432c0,6.51682 -4.63502,11.79975 -10.35261,11.79975c-5.0565,0 -8.10763,-3.9315 -6.14751,-10.2196c0.21349,-0.6849 -0.52086,-1.35538 -0.86554,-2.02542c-2.89427,-5.62627 1.29547,-11.35447 7.01306,-11.35447c5.71759,0 10.35261,5.28293 10.35261,11.79975z" fill="#ffab19" stroke="#001026" stroke-width="1.2"></path><path d="M290.49899,241.19712c-3.90417,0 -6.92788,-1.72052 -5.41446,-6.60887c0.16484,-0.53243 -0.40216,-1.05366 -0.6683,-1.57456c-2.23469,-4.37385 0.20318,-7.43057 4.52429,-7.93639c4.0277,-0.47147 6.55055,3.54971 6.55055,8.61587c0,0 -0.57748,7.50395 -4.99208,7.50395z" fill="#ffffff" stroke="none" stroke-width="0"></path></g><g><path d="M304.78505,208.83064c-2.35113,11.73292 -19.93797,22.41666 -43.58334,19.41666c-12.87547,-1.63358 -21.75,-16.36716 -10.58334,-27.91666c0.65446,-0.6769 1.6564,-1.1116 1.60816,-2.02894c-0.77056,-14.65372 16.73237,-23.90507 28.55851,-21.88773c16.67362,2.84425 27.5,14.9505 24,32.41667z" fill="#ffab19" stroke="#001026" stroke-width="1.2" stroke-linecap="butt"></path><path d="M282.2013,177.43208c0,0 14.18249,-10.21654 15.5,-10c1.70217,0.27976 0.75,17.75 0.75,17.75" fill="#ffab19" stroke="#001026" stroke-width="1.2" stroke-linecap="round"></path><path d="M256.02777,187.00918c0,0 -4.73531,-12.91137 -3.5,-13.75c0.85225,-0.57858 16,4.75 16,4.75" fill="#ffab19" stroke="#001026" stroke-width="1.2" stroke-linecap="round"></path><path d="M299.78505,207.5826c3.71948,10.3464 -16.13012,22.7452 -37.85575,19.98877c-11.83013,-1.50095 -20.47565,-14.10414 -10.97409,-25.40015c4.51005,-5.36182 18.7276,-0.61422 18.7276,-0.61422c0,0 24.35224,-9.96905 30.10224,6.0256z" fill="#ffffff" stroke="none" stroke-width="0" stroke-linecap="butt"></path><path d="M261.50666,213.54839c1.24848,1.74086 7.98552,0.99536 13.25,-0.25c5.26448,-1.24536 9.00107,-0.87553 10,-5.25c1.05757,-4.63124 2.71898,-0.58143 2.5,1.25c-0.21898,1.83143 0.99266,20.21597 -7.5,22.25c-8.49266,2.03403 -13.27766,-8.27361 -18.25319,-16.08199c-5.63514,-8.84355 -0.43304,-2.52629 0.00319,-1.91801z" fill="#001026" stroke="#001026" stroke-width="1.2" stroke-linecap="round"></path><path d="M274.28824,201.65882c0,1.23528 -5.22038,4.15929 -6.25,4c-2.18075,-0.33739 -3.5,-3.26472 -3.75,-4c-0.80003,-2.35299 10,-2.48528 10,0z" fill="#001026" stroke="#001026" stroke-width="1.2" stroke-linecap="butt"></path><path d="M262.7192,197.70088c0,2.83046 -1.87664,3.875 -4.5,3.875c-2.62336,0 -4.25,-1.29454 -4.25,-4.125c0,-2.83046 1.62664,-9.375 4.25,-9.375c2.62336,0 4.5,6.79454 4.5,9.625z" fill="#001026" stroke="#001026" stroke-width="1.2" stroke-linecap="butt"></path><path d="M281.89777,186.54017c3.74765,0 6.82143,6.34935 6.82143,10.39286c0,4.04352 -2.32378,5.89285 -6.07143,5.89285c-3.74765,0 -6.42857,-1.4922 -6.42857,-5.53572c0,-4.04352 1.93092,-10.75 5.67857,-10.75z" fill="#001026" stroke="#001026" stroke-width="1.2" stroke-linecap="butt"></path><g fill="none" stroke="#001026" stroke-width="1.2" stroke-linecap="round"><path d="M246.98989,208.75988c0,0 -4.69379,1.15465 -8.02626,-2.86611"></path><path d="M247.33207,213.43971c0,0 -3.98381,4.75186 -9.2029,2.13379"></path></g><g fill="none" stroke="#001026" stroke-width="1.2" stroke-linecap="round"><path d="M312.7476,206.95695c0,0 -2.8035,1.18799 -4.38907,1.63819c-1.50198,0.42647 -4.88718,0.9957 -4.88718,0.9957"></path><path d="M302.37917,205.31468c0,0 2.23381,-4.50186 9.4529,-5.13379"></path></g></g><path d="M300.53938,235.22018c0,0 3.12749,10.9604 3.62394,13.5812c0.49645,2.6208 1.22237,11.02952 1.22237,11.02952c0,0 5.31515,-2.8037 10.18338,-1.32069c5.35418,1.63105 8.63812,13.91173 -1.39398,13.65168c-8.83049,-0.22891 -14.8677,-0.08434 -17.95203,-1.53836c-3.08432,-1.45402 -1.05641,-5.30693 -1.17394,-11.54401c-0.11752,-6.23707 -2.35208,-15.03837 -2.35208,-15.03837" fill="#ffab19" stroke="#001026" stroke-width="1.2" stroke-linecap="round"></path><path d="M296.26481,235.52107c-0.08166,-8.49287 0.23624,-9.23165 1.5,-12c1.04772,-2.2951 3.93968,-1.83013 4.75,-0.25c0.81032,1.58013 0.49292,7.79657 1.25,12.25c0.75708,4.45343 1.59209,5.86944 2.25,11.25c0.68983,5.64162 -0.62975,6.67741 -3.75,7.75c-3.12025,1.07259 -5.47127,-4.27903 -5.75,-6.25c-0.27873,-1.97097 -0.16834,-4.25713 -0.25,-12.75z" fill="#ffab19" stroke="#001026" stroke-width="1.2" stroke-linecap="round"></path></g><g fill-rule="nonzero" stroke-linejoin="miter"><g fill="#6b542b" stroke="#001026" stroke-width="4" stroke-linecap="round"><path d="M183.58678,165.59373c7.39663,-0.89547 7.68768,18.61154 9.12058,22.74433c1.4329,4.13279 10.00194,18.76315 11.37349,23.29969c1.37156,4.53654 -1.07391,7.46553 -3.84045,11.42983c-2.76654,3.9643 -7.47704,6.19365 -10.61797,5.47707c-3.14093,-0.71659 -5.29857,-8.67291 -5.29857,-8.67291c0,0 -2.20547,-5.95588 -1.67092,-13.65321c0.53455,-7.69733 0.41019,-31.74492 0.41019,-31.74492"></path><path d="M193.74769,225.56297c0,0 -3.33228,7.70717 0.94506,12.27002c2.72454,2.9064 -1.98091,10.9766 -7.79935,7.35149c-3.72974,-2.32377 -4.52808,-8.16953 -3.55555,-21.44309c0.15525,-2.11888 -1.06061,-12.20848 -0.75226,-14.49259"></path><path d="M198.74301,218.62384c0,0 4.67119,14.56445 6.42399,22.25472c0.98278,4.31186 -2.96273,10.28769 -7.92442,8.44894c-4.96169,-1.83875 -3.41172,-6.66216 -5.18994,-11.91552c-1.77822,-5.25336 -1.73028,-15.66143 -1.73028,-15.66143"></path><path d="M203.69502,209.96261c0,0 2.03336,10.25471 10.24817,18.43246c6.98116,6.94966 -0.97893,15.49347 -5.79016,12.60402c-3.25871,-1.95708 -7.05893,-9.33675 -7.7181,-13.63926c-0.93302,-6.08999 -1.41769,-10.40762 -1.41769,-10.40762"></path><path d="M198.2546,201.00088c0,0 8.01438,7.94788 11.87434,10.51069c3.9931,2.65121 5.3649,12.75595 2.52408,17.16326c-2.84082,4.40732 -8.16692,1.23523 -9.27497,-2.68241c-1.34787,-4.76555 -1.67835,-9.46457 -1.67835,-9.46457l-4.52237,-2.8081"></path></g><g stroke-linecap="round"><path d="M184.85754,207.93052c0,0 -8.88158,34.38728 -26.46748,43.98081c-15.94148,8.69647 -31.73459,0.58321 -37.76687,-14.13781c-7.80965,-19.05846 4.83098,-33.71649 15.07381,-25.86949c10.25512,7.85641 11.45741,23.38748 20.40717,22.6641c8.94976,-0.72339 28.75337,-26.6376 28.75337,-26.6376z" fill="#6b542b" stroke="none" stroke-width="0"></path><path d="M142.39681,235.7957c-3.60586,3.71254 -8.67278,15.09323 1.10644,17.13883c10.52207,2.20099 24.0015,-5.99548 14.88681,-1.0232c-15.94148,8.69647 -31.73459,0.58321 -37.76687,-14.13781c-7.80965,-19.05846 4.83098,-33.71649 15.07381,-25.86949c10.25512,7.85641 8.95741,21.88748 17.90717,21.1641c4.21334,-0.34055 2.60451,2.7231 0.35924,1.74709c-2.52402,-1.09718 -6.74791,-3.98077 -11.56661,0.98049z" fill="#dac3a1" stroke="none" stroke-width="0"></path><path d="M184.85754,207.93052c0,0 -8.88157,34.38728 -26.46747,43.98081c-15.94148,8.69647 -31.7346,0.58321 -37.76687,-14.13781c-7.80965,-19.05846 4.83099,-33.71649 15.07381,-25.86949c10.25512,7.85641 11.4574,22.88748 20.40717,22.1641c8.94976,-0.72339 28.75337,-26.1376 28.75337,-26.1376z" fill="none" stroke="#001026" stroke-width="4"></path></g><path d="M197.58462,187.67201c7.2082,25.36462 7.45722,57.10378 7.45722,57.10378c0,0 9.1325,-1.58869 18.12086,1.4672c11.90648,4.048 10.15604,17.44733 -9.07015,17.74606c-16.81597,0.26129 -31.4711,2.24146 -28.63806,-20.50045c2.57948,-20.7064 -1.06556,-41.14076 -1.06556,-41.14076" fill="#6b542b" stroke="#001026" stroke-width="4" stroke-linecap="round"></path><g><path d="M196.98058,184.73433c5.02218,13.63927 -7.84845,23.53678 -20.4819,18.77508c-6.20826,-2.33996 -4.77912,-19.11644 -4.77912,-19.11644c0,0 -10.55074,-14.40606 0.68273,-19.45781c11.02248,-4.95686 20.43203,8.53873 24.57829,19.79917z" fill="#6b542b" stroke="#001026" stroke-width="4" stroke-linecap="round"></path><path d="M196.68052,189.90347c0,6.03298 -3.74445,10.92368 -8.36345,10.92368c-4.619,0 -8.70481,-2.84251 -8.70481,-8.87549c0,-6.03298 -3.40614,-11.81101 3.24298,-17.06825c6.02647,-4.76494 13.82528,8.98708 13.82528,15.02006z" fill="#dac3a1" stroke="none" stroke-width="0" stroke-linecap="butt"></path></g><path d="M189.20386,203.15152l-1.84891,55.90031c0,0 8.64378,9.35122 12.80991,22.79604c4.16613,13.44482 -6.7,25.22624 -22.41923,18.06319c-9.08264,-4.13885 -12.26727,-12.3773 -13.5008,-17.93285c-1.97211,-8.88195 -2.55679,-18.17918 -0.45607,-22.77678c3.4147,-7.47333 8.43117,-61.82589 8.43117,-61.82589" fill="#6b542b" stroke="#001026" stroke-width="4" stroke-linecap="round"></path><path d="M168.40734,170.36219c-0.38914,-1.16093 0.58826,-3.44744 1.20335,-4.37817c0.84529,-0.25219 1.35837,-1.32989 2.31209,-1.54365c2.42837,-0.54427 4.7551,-0.03742 7.24004,0.01789c3.33513,1.30188 5.39712,4.07893 8.51711,5.59791c2.78416,2.82531 0.97144,1.08729 -1.10057,0.55794c-1.00862,-0.25768 -1.34555,0.38273 -1.27794,1.10873c-0.33412,-0.56228 -0.60751,-1.14346 -1.02379,-1.6498l0.06829,-0.0555l-0.31394,-0.38637c-0.04581,-0.05731 -0.11631,-0.09403 -0.19538,-0.09403c-0.13807,0 -0.25,0.11193 -0.25,0.25c0,0.00003 0,0.00006 0,0.00009l0.00015,0.49999h0.00006l-0.00006,0.00028c0.00389,1.5359 -0.00203,3.32982 0.18039,4.91007c-1.08909,-2.39544 -0.59757,-5.9095 -2.16419,-8.14428l0.07803,-0.04629l-0.25275,-0.42602c-0.04302,-0.07551 -0.12425,-0.12643 -0.21738,-0.12643c-0.13807,0 -0.25,0.11193 -0.25,0.25c0,0.02165 0.00276,0.04266 0.00793,0.0627l0.11343,0.4813l0.0084,-0.00198l-0.00095,0.02748c0.07039,0.14867 0.13134,0.2961 0.18496,0.44295c0.04313,0.26947 0.13079,0.54502 0.23696,0.81855c0.11127,0.48585 0.18538,0.97846 0.29875,1.50122c-0.04204,0.38702 -2.33178,-2.78553 -3.11989,-2.26537c-0.39516,0.2608 -0.29968,3.43188 -0.10872,4.841c-0.48986,-1.26812 -2.22242,-4.60016 -2.87974,-4.26838c-0.24349,0.12291 -0.1655,1.2181 -0.14843,1.88487c-0.37173,-0.4634 -0.80891,-1.38767 -1.29648,-1.59631c-0.67826,-0.29024 -1.5039,0.09299 -2.26564,0.74357c0.46796,-1.15295 0.87484,-2.34828 1.40202,-3.40039c0,0 0.11181,-0.2236 -0.1118,-0.33541c-0.2236,-0.11181 -0.33541,0.1118 -0.33541,0.1118c-0.6884,1.37958 -2.49553,1.76476 -3.21206,3.23811c-0.27405,0.32983 -0.84142,2.82007 -1.32684,1.37193zM169.96459,172.00747l-0.01731,-0.0084c0.00829,-0.00241 0.01657,-0.00489 0.02486,-0.00742c-0.00253,0.00528 -0.00505,0.01056 -0.00755,0.01582z" fill="#001026" stroke="none" stroke-width="0.5" stroke-linecap="butt"></path><g><g fill="none" stroke="#001026" stroke-width="3" stroke-linecap="round"><path d="M221.97512,132.53868l24.5,-7"></path><path d="M220.47512,143.03868l17.5,4.5"></path></g><path d="M176.12242,68.47828l32.01764,-20.97343c0,0 24.08079,32.93548 27.03577,64.56416" fill="#6b542b" stroke="#001026" stroke-width="4" stroke-linecap="round"></path><g stroke-linecap="butt"><path d="M130.99822,117.20049c0,-25.93783 21.35129,-49.16034 49.92649,-50.13623c28.2893,-0.96613 48.59511,11.02392 55.25197,46.47665c0.10661,0.56776 5.95556,5.04593 5.73978,14.07086c-0.01337,0.55946 0.08753,1.13455 -0.08205,1.64834c-2.64251,8.00608 -10.38361,13.39353 -16.2086,17.6436c-10.16869,7.41934 -21.15236,10.34886 -36.71286,10.34886c-28.30893,0 -57.91472,-14.11423 -57.91472,-40.05206z" fill="#6b542b" stroke="none" stroke-width="0"></path><path d="M201.78289,125.21089c0,0 17.52974,-10.52693 31.73105,-11.26336c0.10661,0.56776 11.61831,-3.11069 5.90252,15.66423c-2.6593,8.1157 -11.49405,16.2994 -18.09111,21.54661c-12.21503,9.71567 -24.65065,13.00652 -31.66241,12.84419c-8.24864,-0.19097 -13.05878,-4.80908 -19.79062,-8.46013c-16.36532,-8.87581 -29.35789,-23.08361 -23.78521,-34.27573c0.85677,-2.04778 1.11561,-6.26023 4.00093,-7.185c1.07856,-0.34569 2.5332,-0.92854 3.45028,-0.27885c1.53627,1.08835 2.46715,3.82926 4.19861,3.73c17.21126,-0.98678 44.04596,7.67806 44.04596,7.67806z" fill="#dac3a1" stroke="none" stroke-width="0"></path><path d="M130.99822,117.20049c0,-25.93783 21.35129,-49.16034 49.92649,-50.13623c28.2893,-0.96613 48.59511,11.02392 55.25197,46.47665c0.10661,0.56776 7.70556,2.29593 4.23978,14.57086c-5.98355,13.93248 -15.18795,22.06489 -24.84341,27.69528c-7.42235,4.32819 -12.3499,8.6892 -21.66011,8.94552c-15.65319,0.43095 -21.16254,-6.48411 -28.39614,-9.87593c-20.21079,-9.4768 -34.51858,-16.84832 -34.51858,-37.67613z" fill="none" stroke="#001026" stroke-width="4"></path></g><path d="M157.46163,119.95213c3.15824,2.09755 -1.75579,-1.41949 -3.24866,-5.53223c-0.44513,-1.22629 -3.18723,-1.28769 -5.32107,0.06567c-2.53192,1.60584 -1.39399,10.46185 -1.73767,6.88849c-0.34368,-3.57336 -0.64895,-3.2432 0.06148,-6.10536c0.38203,-1.5391 4.56082,-3.44479 7.31102,-2.19178c2.46364,1.12246 1.27555,5.77317 2.93489,6.87522z" fill="#001026" stroke="none" stroke-width="0" stroke-linecap="butt"></path><path d="M130.99262,120.87319c-6.12583,-43.37735 28.40263,-74.00483 28.40263,-74.00483l30.62158,20.331" fill="#6b542b" stroke="#001026" stroke-width="4" stroke-linecap="round"></path><path d="M194.39973,127.81576c-4.93099,-3.88614 15.98083,-5.41034 12.59168,-0.9258c-2.37799,3.14657 -2.74641,3.52761 -5.87421,3.47778c-3.1278,-0.04984 -4.04701,-0.44739 -6.71747,-2.55198z" fill="#001026" stroke="none" stroke-width="0" stroke-linecap="round"></path><g fill="none" stroke="#001026" stroke-width="3" stroke-linecap="round"><path d="M144.22512,122.53868l-24.5,-7"></path><path d="M128.22512,137.53868l17.5,-4.5"></path></g><path d="M233.32392,112.94916c0.98225,10.36002 -4.35458,12.98279 -10.25268,13.88803c-5.8981,0.90524 -16.68211,0.3089 -17.66435,-10.05112c-0.98225,-10.36002 5.62062,-18.9985 11.51872,-19.90374c10.60431,-1.62755 15.41607,5.70681 16.39831,16.06683z" fill="#001026" stroke="#001026" stroke-width="3" stroke-linecap="butt"></path><path d="M226.38905,116.77838c0,3.03757 -0.70853,6.2971 -0.70853,6.2971c0,0 -0.35427,-2.06388 -0.35427,-5.10145c0,-3.03757 0.35427,-5.89855 0.35427,-5.89855c0,0 0.70853,1.66533 0.70853,4.7029z" fill="#006aff" stroke="none" stroke-width="0" stroke-linecap="butt"></path><path d="M195.00327,115.46053c0,10.3035 -7.01017,12.07161 -14.5204,12.07161c-7.51023,0 -20.97393,-2.20709 -20.97393,-12.51058c0,-10.3035 9.315,-17.7782 16.82523,-17.7782c13.50278,0 18.66909,7.91367 18.66909,18.21717z" fill="#001026" stroke="#001026" stroke-width="3" stroke-linecap="butt"></path><path d="M186.62615,111.15735c0,0 0.44841,3.57659 0.44841,7.37396c0,3.79737 -0.44841,6.37749 -0.44841,6.37749c0,0 -0.89683,-4.07483 -0.89683,-7.8722c0,-3.79737 0.89683,-5.87925 0.89683,-5.87925z" fill="#006aff" stroke="none" stroke-width="0" stroke-linecap="butt"></path><path d="M186.18634,147.38114c0.11423,0.10798 0.17579,0.27767 0.19967,0.48873c0.00001,0.00007 0.00001,0.00014 0.00002,0.0002c-0.06212,-0.16292 -0.12937,-0.32577 -0.19969,-0.48894z" fill="#001026" stroke="none" stroke-width="0.5" stroke-linecap="butt"></path><g stroke-linecap="butt"><path d="M236.12363,118.51479c0,0 0.4263,5.06173 -1.07019,7.53203c-6.04286,9.97513 -24.55595,35.02366 -42.60244,34.22781c-22.51562,-0.99293 -41.68435,-44.29045 -41.68435,-44.29045c0,0 12.80414,20.76683 43.4623,22.16705c41.7071,1.90484 41.89468,-19.63644 41.89468,-19.63644z" fill="#001026" stroke="#001026" stroke-width="1"></path><g stroke="none" stroke-width="0"><g fill="#0062ea"><path d="M178.34122,148.9077c-0.72633,0.17198 -1.54877,-0.53924 -1.83703,-1.58857c-0.28824,-1.04933 1.24711,-2.82476 1.24711,-2.82476c0,0 1.03565,1.50391 1.32391,2.55324c0.33175,1.20765 -0.00767,1.68812 -0.73399,1.86009z"></path><path d="M181.34583,150.43451c-0.94121,0.32731 -2.04201,-0.2277 -2.4586,-1.23964c-0.41658,-1.01194 1.51885,-3.14638 1.51885,-3.14638c0,0 1.40951,1.32038 1.8261,2.33232c0.47942,1.16464 0.05489,1.72638 -0.88635,2.0537z"></path><path d="M184.55644,151.06456c-1.04983,0.21803 -2.10554,-0.46231 -2.35809,-1.51956c-0.25256,-1.05725 1.30297,-2.97274 1.30297,-2.97274c0,0 1.64267,1.39054 2.3637,2.54612c0.69034,1.10638 -0.25879,1.72815 -1.30857,1.94618z"></path><path d="M188.90806,152.48261c-1.11134,0.47417 -2.41505,0.0633 -2.91189,-0.91772c-0.49684,-0.98102 1.01653,-5.44049 1.01653,-5.44049c0,0 1.30655,2.8676 2.93437,4.1148c1.0899,0.83505 0.07236,1.76923 -1.03898,2.24341z"></path><path d="M193.31001,153.13255c-0.94348,0.46625 -2.10433,-0.11188 -2.5928,-1.29129c-0.48845,-1.17941 1.36208,-3.88878 1.36208,-3.88878c0,0 0.69009,1.73526 2.01221,2.65007c1.23345,0.85345 0.16199,2.06374 -0.78148,2.52999z"></path><path d="M195.4876,150.75493c0.93481,-1.09182 2.09991,-2.82576 2.09991,-2.82576c0,0 2.12971,2.50954 1.6406,3.72759c-0.48906,1.21806 -1.73713,1.90463 -2.78765,1.53346c-1.05052,-0.37118 -1.97534,-1.24111 -0.95288,-2.43528z"></path><path d="M210.6757,147.95686c0.24731,-1.0648 1.22351,-2.62683 1.22351,-2.62683c0,0 1.60244,1.68477 1.35515,2.74957c-0.24731,1.0648 -1.0413,1.82272 -1.77345,1.69289c-0.73215,-0.12984 -1.08981,-0.59016 -0.80522,-1.81561z"></path><path d="M207.18597,148.45674c0.45839,-1.00855 1.92236,-2.31784 1.92236,-2.31784c0,0 1.84674,2.14906 1.38835,3.15761c-0.45839,1.00855 -1.58194,1.55498 -2.50949,1.22043c-0.92755,-0.33453 -1.32877,-0.89948 -0.80116,-2.0602z"></path><path d="M203.61422,149.60175c0.42037,-1.02159 1.88772,-2.35739 1.88772,-2.35739c0,0 2.09953,2.14578 1.67916,3.16737c-0.42037,1.02159 -1.5765,1.5847 -2.58234,1.25773c-1.00582,-0.32697 -1.46834,-0.89197 -0.98453,-2.06772z"></path><path d="M199.47127,150.89176c1.49989,-1.41099 2.5246,-4.40066 2.5246,-4.40066c0,0 1.93386,4.27899 1.53367,5.30697c-0.40017,1.02797 -1.6579,1.57296 -2.80917,1.21728c-1.15127,-0.35568 -2.25334,-1.17887 -1.24913,-2.1236z"></path></g><g fill="#006aff"><path d="M176.42548,143.19851c-0.03193,1.08488 -0.64405,2.77664 -0.64405,2.77664c0,0 -1.78659,-1.3907 -1.75463,-2.4756c0.03193,-1.08488 0.62411,-1.95813 1.32264,-1.95043c0.6985,0.0077 1.11283,0.40079 1.07607,1.64936z"></path><path d="M178.78101,144.42528c-0.03193,1.08488 -0.68385,2.77622 -0.68385,2.77622c0,0 -1.91581,-1.39212 -1.88383,-2.477c0.03193,-1.08488 0.66415,-1.95769 1.41208,-1.94944c0.74796,0.00825 1.19236,0.40166 1.1556,1.65024z"></path><path d="M182.21137,145.26363c-0.03193,1.08488 -0.88936,2.77396 -0.88936,2.77396c0,0 -2.58372,-1.39948 -2.55177,-2.48436c0.03193,-1.08488 0.87115,-1.95542 1.87448,-1.94434c1.00333,0.01108 1.60337,0.40619 1.56662,1.65476z"></path><path d="M185.98632,145.90564c-0.03193,1.08488 -0.94579,2.77331 -0.94579,2.77331c0,0 -2.76721,-1.40151 -2.73525,-2.48639c0.03193,-1.08488 0.92805,-1.95478 2.00153,-1.94296c1.07348,0.01183 1.7163,0.40743 1.67951,1.65601z"></path><path d="M189.96801,146.49942c-0.94325,1.75804 -0.88679,4.87401 -0.88679,4.87401c0,0 -3.326,-3.49797 -3.29975,-4.58291c0.02624,-1.08495 1.03799,-1.95587 2.25977,-1.94525c1.22178,0.01062 2.55836,0.47708 1.92683,1.65415z"></path><path d="M192.87275,147.45385c-0.8579,1.42677 -0.88914,3.32802 -0.88914,3.32802c0,0 -2.52202,-1.67165 -2.48371,-2.97247c0.03831,-1.30079 0.86604,-2.34653 1.84887,-2.33571c0.98282,0.01083 2.32434,0.6491 1.52398,1.98019z"></path><path d="M198.47786,145.43123c1.01381,-0.05928 1.88388,0.9453 1.9433,2.24378c0.05942,1.29848 -2.51699,3.09398 -2.51699,3.09398c0,0 -0.48801,-1.97993 -0.96834,-3.28305c-0.52537,-1.42531 0.52822,-1.9954 1.54203,-2.05467z"></path><path d="M214.84107,141.75907c0.69851,0.0077 1.23891,0.89341 1.20693,1.97828c-0.03193,1.08488 -1.8992,2.43534 -1.8992,2.43534c0,0 -0.51215,-1.70415 -0.4802,-2.78905c0.03676,-1.24857 0.47393,-1.63227 1.17247,-1.62457z"></path><path d="M212.49437,142.93405c0.74796,0.00825 1.32841,0.89441 1.29642,1.97929c-0.03193,1.08488 -2.02846,2.43391 -2.02846,2.43391c0,0 -0.55192,-1.70461 -0.51999,-2.78949c0.03676,-1.24857 0.50404,-1.63194 1.25197,-1.6237z"></path><path d="M209.42792,143.70081c1.00336,0.01108 1.79077,0.89948 1.75882,1.98439c-0.03193,1.08488 -2.69636,2.42654 -2.69636,2.42654c0,0 -0.75745,-1.70685 -0.72549,-2.79173c0.03676,-1.24857 0.65968,-1.63025 1.66304,-1.61917z"></path><path d="M205.97942,144.26325c1.07348,0.01183 1.91777,0.9009 1.88584,1.98578c-0.03193,1.08488 -2.87984,2.42452 -2.87984,2.42452c0,0 -0.81389,-1.70749 -0.78191,-2.79236c0.03676,-1.24857 0.70248,-1.62976 1.77596,-1.61792z"></path><path d="M202.08789,144.77487c1.22159,0.0163 2.1814,0.90893 2.14379,1.99375c-0.03761,1.08481 -3.5674,4.50727 -3.5674,4.50727c0,0 0.23978,-3.11271 -0.59933,-4.89038c-0.56185,-1.19021 0.80133,-1.62694 2.02294,-1.61064z"></path><path d="M196.94284,147.56543c-0.03734,1.26795 -2.02554,3.26496 -2.02554,3.26496c0,0 -1.86672,-2.12954 -1.82935,-3.3975c0.03734,-1.26795 0.90994,-1.56606 1.97514,-1.55434c1.06523,0.01172 1.91706,0.4189 1.87972,1.68686z"></path></g></g><path d="M236.12363,118.26479c0,0 0.4263,5.06173 -1.07019,7.53203c-6.04286,9.97513 -24.55595,35.02366 -42.60244,34.22781c-22.51562,-0.99293 -41.68435,-44.29045 -41.68435,-44.29045c0,0 12.80414,20.76683 43.4623,22.16705c41.7071,1.90484 41.89468,-19.63644 41.89468,-19.63644z" fill-opacity="0.71373" fill="#001026" stroke="none" stroke-width="0"></path></g><path d="M158.14355,136.85471c2.95243,3.64976 7.19468,11.54402 7.19468,11.54402c0,0 -4.18115,-6.22871 -7.13358,-9.87847c-2.95243,-3.64976 -3.5581,-3.33848 -3.5581,-3.33848c0,0 0.54458,-1.97683 3.49701,1.67293z" fill="#001026" stroke="none" stroke-width="0" stroke-linecap="butt"></path><path d="M200.04363,134.95868c0,0 -0.7,-1.18203 -0.7,-1.9c0,-0.71797 2.3,-1.9 2.3,-1.9c0,0 -1.5,1.18203 -1.5,1.9c0,0.71797 -0.1,1.9 -0.1,1.9z" fill="#001026" stroke="none" stroke-width="0" stroke-linecap="butt"></path></g><g fill="#6b542b" stroke="#001026" stroke-width="4" stroke-linecap="round"><path d="M169.46414,215.99587c0,0 7.03815,12.56136 10.95618,16.08276c4.05317,3.64286 3.92467,15.23639 0,19.72413c-3.92467,4.48774 -9.39113,0.03845 -9.98946,-4.55172c-0.72783,-5.58364 -0.32224,-10.92414 -0.32224,-10.92414l-6.12257,-9.4069"></path><path d="M172.44213,177.82441c0,0 -4.44153,20.59831 -3.51337,25.48423c0.92815,4.88592 3.87498,22.58143 4.66734,27.91139c0.79236,5.32996 -2.44303,8.22017 -6.21085,12.22186c-3.76783,4.00169 -9.43537,5.73018 -12.84999,4.40452c-3.41463,-1.32566 -4.52551,-10.63249 -4.52551,-10.63249c0,0 -0.29104,-24.48381 4.20936,-38.9803c4.5004,-14.49649 7.75894,-27.8102 16.91672,-32.18587"></path><path d="M159.66891,245.17482c0,0 -5.02339,8.11838 -0.96672,13.95862c2.58397,3.72006 -4.04412,12.01964 -9.98946,6.9793c-3.81108,-3.23096 -3.74206,-9.9388 -0.45227,-24.70905c0.52516,-2.3578 1.32657,-12.40851 2.05128,-14.92685"></path><path d="M166.43595,238.1955c0,0 2.84515,17.15599 3.54465,26.09656c0.39221,5.0129 -5.03457,11.08226 -10.31169,8.19309c-5.27712,-2.88916 -2.73566,-8.0585 -3.86689,-14.26206c-1.13122,-6.20356 0.64449,-17.90345 0.64449,-17.90345"></path><path d="M173.43918,229.27188c0,0 0.59086,11.87167 8.4787,22.4296c6.70328,8.9724 -3.66423,17.26632 -8.59828,13.22013c-3.3419,-2.74055 -6.39587,-11.67044 -6.4256,-16.6193c-0.04208,-7.00485 0.12699,-11.94183 0.12699,-11.94183"></path></g></g></g></g></svg>