<svg version="1.1" xmlns="http://www.w3.org/2000/svg" xmlns:xlink="http://www.w3.org/1999/xlink" width="42" height="57.19106" viewBox="0,0,42,57.19106"><g transform="translate(-218.5632,-146.64574)"><g data-paper-data="{&quot;isPaintingLayer&quot;:true}" fill-rule="nonzero" stroke-linecap="butt" stroke-linejoin="miter" stroke-miterlimit="10" stroke-dasharray="" stroke-dashoffset="0" style="mix-blend-mode: normal"><path d="M248.5232,158.0368c0,0 0,16.39915 0,17.40296c0,1.6074 11.04,-4.6281 11.04,-2.464c0,6.28406 -17.1108,29.86104 -20.05136,29.86104c-3.03009,0 -19.94864,-22.23614 -19.94864,-28.51704c0,-2.42004 11.04,2.43529 11.04,0.672c0,-5.86937 0,-16.95496 0,-16.95496c0,0 0.70612,-10.39106 3.24038,-10.39106c1.26934,0 2.43901,7.44496 5.03005,9.37196c1.25545,0.9337 4.66947,-8.66888 6.00816,-8.48804c2.98589,0.40336 3.64142,9.50714 3.64142,9.50714z" fill="#ffc93e" stroke="#603813" stroke-width="2"/><g stroke="none" stroke-width="0.66342"><path d="M227.97895,184.43154v0c-0.36677,-1.98857 0.94767,-3.89873 2.93661,-4.26647c1.98818,-0.3667 3.89773,0.94971 4.26451,2.93829c0.36654,1.98731 -0.94775,3.89605 -2.93632,4.26283c-1.98864,0.36679 -3.89826,-0.94734 -4.26479,-2.93465z" fill="#ffffff"/><path d="M231.17649,182.65728c0.69894,-0.12891 1.38484,0.03813 1.92798,0.41246c0.54345,0.37385 0.94411,0.95499 1.07304,1.65398c0.12892,0.699 -0.03804,1.38491 -0.41238,1.92798c-0.37384,0.54352 -0.95505,0.94421 -1.65398,1.07312c-0.699,0.12892 -1.38491,-0.03805 -1.92798,-0.41246c-0.54351,-0.37377 -0.94419,-0.95499 -1.07312,-1.65398c-0.12892,-0.699 0.03805,-1.38484 0.41245,-1.92799c0.37378,-0.54344 0.95499,-0.94419 1.65399,-1.07312z" fill="#603813"/></g><path d="M243.22788,187.54766c0.05847,1.23255 -1.18557,2.29297 -2.77863,2.36854c-1.59306,0.07557 -2.93187,-0.86235 -2.99033,-2.0949c-0.0297,-0.62616 1.46467,-0.58142 2.93015,-0.64087c1.41919,-0.05757 2.81005,-0.23915 2.83882,0.36724z" fill="#603813" stroke="#603813" stroke-width="1.32684"/><g stroke="none" stroke-width="0.66342"><path d="M246.05157,183.90082v0c-0.36677,-1.98857 0.94767,-3.89873 2.93661,-4.26647c1.98818,-0.3667 3.89773,0.94971 4.26451,2.93829c0.36654,1.98731 -0.94775,3.89605 -2.93632,4.26283c-1.98864,0.36679 -3.89826,-0.94734 -4.26479,-2.93465z" fill="#ffffff"/><path d="M249.24912,182.12655c0.69894,-0.12891 1.38484,0.03813 1.92798,0.41245c0.54345,0.37385 0.94412,0.95499 1.07305,1.65399c0.12892,0.699 -0.03804,1.38491 -0.41238,1.92798c-0.37384,0.54352 -0.95504,0.94421 -1.65398,1.07312c-0.699,0.12892 -1.38491,-0.03804 -1.92799,-0.41245c-0.54351,-0.37377 -0.94419,-0.95499 -1.07312,-1.65398c-0.12892,-0.699 0.03805,-1.38484 0.41245,-1.92799c0.37378,-0.54344 0.95499,-0.94419 1.65399,-1.07312z" fill="#603813"/></g></g></g></svg>