<svg version="1.1" xmlns="http://www.w3.org/2000/svg" xmlns:xlink="http://www.w3.org/1999/xlink" width="297.30913" height="167.9342" viewBox="0,0,297.30913,167.9342"><defs><linearGradient x1="228.34356" y1="138.67928" x2="228.34356" y2="160.3071" gradientUnits="userSpaceOnUse" id="color-1"><stop offset="0" stop-color="#ffffff"></stop><stop offset="1" stop-color="#000000"></stop></linearGradient><linearGradient x1="228.65896" y1="139.34595" x2="228.65896" y2="158.86266" gradientUnits="userSpaceOnUse" id="color-2"><stop offset="0" stop-color="#000000" stop-opacity="0"></stop><stop offset="1" stop-color="#000000"></stop></linearGradient><linearGradient x1="228.88119" y1="139.34595" x2="228.88119" y2="159.52933" gradientUnits="userSpaceOnUse" id="color-3"><stop offset="0" stop-color="#000000" stop-opacity="0"></stop><stop offset="1" stop-color="#000000"></stop></linearGradient><radialGradient cx="240.09285" cy="156.9995" r="3.2236" gradientUnits="userSpaceOnUse" id="color-4"><stop offset="0" stop-color="#ff005d" stop-opacity="0.41569"></stop><stop offset="1" stop-color="#ff005d" stop-opacity="0"></stop></radialGradient><linearGradient x1="255.18215" y1="137.6403" x2="256.17103" y2="158.6367" gradientUnits="userSpaceOnUse" id="color-5"><stop offset="0" stop-color="#ffffff"></stop><stop offset="1" stop-color="#000000"></stop></linearGradient><linearGradient x1="255.18709" y1="138.18035" x2="256.11698" y2="157.92417" gradientUnits="userSpaceOnUse" id="color-6"><stop offset="0" stop-color="#000000" stop-opacity="0"></stop><stop offset="1" stop-color="#000000"></stop></linearGradient><linearGradient x1="255.19232" y1="138.29133" x2="256.1222" y2="158.03516" gradientUnits="userSpaceOnUse" id="color-7"><stop offset="0" stop-color="#000000" stop-opacity="0"></stop><stop offset="1" stop-color="#000000"></stop></linearGradient><radialGradient cx="255.34984" cy="156.35773" r="3.2236" gradientUnits="userSpaceOnUse" id="color-8"><stop offset="0" stop-color="#ff005d" stop-opacity="0.41569"></stop><stop offset="1" stop-color="#ff005d" stop-opacity="0"></stop></radialGradient></defs><g transform="translate(-74.34758,-108.09029)"><g stroke-miterlimit="10"><g><g stroke="#001026"><path d="M129.19652,191.71118c5.31324,2.41777 6.77425,11.62085 12.62987,18.05978c0.86651,0.95282 3.14357,-0.92101 8.08589,-3.66c7.72533,-4.28129 11.79859,5.13325 8.42308,10.09214c-3.37551,4.95889 -16.58444,8.06496 -19.9589,5.24742c-3.44816,-2.87907 -9.38018,-18.41028 -9.38018,-18.41028" fill="#e2811f" stroke-width="3" stroke-linecap="round"></path><g><g><path d="M165.53469,201.03939c-1.43283,4.53656 -6.65241,6.93247 -11.65827,5.35142c-5.00586,-1.58105 -7.90238,-6.54036 -6.46955,-11.07692c1.43283,-4.53656 6.65241,-6.93247 11.65828,-5.35142c5.00586,1.58105 7.90237,6.54036 6.46955,11.07691z" fill="#475362" stroke-width="3" stroke-linecap="butt"></path><path d="M150.75583,203.12085c0,0 -1.94777,-7.53121 2.73374,-13.25802" fill="none" stroke-width="1.75" stroke-linecap="round"></path><path d="M154.50256,206.3809c0,0 0.9878,-8.14338 4.50296,-16.2296" fill="none" stroke-width="1.75" stroke-linecap="round"></path><path d="M163.81567,193.33189c-0.68396,8.05611 -4.63197,12.03548 -4.63197,12.03548" fill="none" stroke-width="1.75" stroke-linecap="round"></path><path d="M148.72322,196.53482c0,0 9.02068,-2.61339 16.01357,5.21013" fill="none" stroke-width="1.75" stroke-linecap="round"></path><path d="M149.29986,193.01199c0,0 9.45351,-3.32821 16.01357,5.21013" fill="none" stroke-width="1.75" stroke-linecap="round"></path><path d="M146.97382,200.75867c0,0 7.30954,-2.80943 14.94022,4.66345" fill="none" stroke-width="1.75" stroke-linecap="round"></path></g><path d="M159.28291,208.90458c0,0 -6.37297,12.17458 -7.48782,14.3432c-0.70806,1.37733 -6.22723,0.42464 -6.19788,-1.64986c0.04127,-2.91711 2.53388,-16.45914 2.53388,-16.45914" fill="#293038" stroke-width="3" stroke-linecap="round"></path><path d="M149.67498,218.58836c-1.5832,-0.58554 -3.73078,-0.4157 -5.19479,-1.76039c-2.39685,-2.20151 -0.89898,-10.64623 4.14681,-13.35839c2.5846,-1.38925 14.35274,0.46341 11.66696,9.4989c-2.58383,8.69251 -9.06498,6.19463 -10.61897,5.61988z" fill="#ffb432" stroke-width="3" stroke-linecap="butt"></path></g></g><g stroke-width="3" stroke-linecap="round"><path d="M123.42189,220.28329c0,0 -5.76555,22.32277 -17.18156,28.55048c-10.34854,5.64538 -20.60076,0.3786 -24.51666,-9.17767c-5.06969,-12.37195 3.13607,-21.88732 9.78527,-16.79337c6.65718,5.10005 7.43767,15.18216 13.24747,14.71257c5.80981,-0.46959 18.66547,-17.292 18.66547,-17.292z" fill="#ffb432" stroke="none"></path><path d="M95.85819,238.37219c-2.34077,2.41003 -5.63,9.79788 0.71826,11.1258c6.83048,1.42879 15.58076,-3.892 9.66389,-0.66422c-10.34854,5.64538 -20.60075,0.3786 -24.51665,-9.17767c-5.06969,-12.37195 3.13607,-21.88732 9.78527,-16.79337c6.65718,5.10005 5.81477,14.20843 11.62458,13.73884c2.73512,-0.22107 1.69074,1.76772 0.23321,1.13413c-1.63849,-0.71225 -4.38047,-2.58415 -7.50855,0.63649z" fill="#fff9f0" stroke="none"></path><path d="M123.42189,220.28329c0,0 -5.76554,22.32277 -17.18156,28.55048c-10.34854,5.64538 -20.60076,0.3786 -24.51666,-9.17767c-5.06969,-12.37195 3.13607,-21.88732 9.78528,-16.79337c6.65718,5.10005 7.43766,14.85759 13.24747,14.388c5.80981,-0.46959 18.66547,-16.96743 18.66547,-16.96743z" fill="none" stroke="#001026"></path></g><path d="M137.23742,207.23837c4.23212,16.5862 3.5145,31.91587 3.5145,31.91587c0,0 5.95417,-0.87055 11.73323,1.27032c7.65527,2.83592 6.28407,11.50027 -6.19743,11.3565c-10.9168,-0.12576 -20.46161,0.90186 -18.2238,-13.80607c2.0375,-13.3915 0.35285,-21.4449 0.35285,-21.4449" fill="#e2811f" stroke="#001026" stroke-width="3" stroke-linecap="round"></path><g><path d="M135.39125,218.35879c-4.02285,3.95119 -12.7049,3.60495 -15.1353,-0.91278c-3.33805,-6.2049 -1.39102,-10.60907 -1.39102,-10.60907c0,0 -3.79109,-9.76383 1.02636,-13.85378c4.81744,-4.08995 11.59559,-2.36873 15.33209,8.18803c2.21349,6.25378 4.19071,13.23641 0.16787,17.1876z" fill="#ffb432" stroke="#001026" stroke-width="3" stroke-linecap="round"></path><path d="M131.79519,215.48199c-6.15265,1.17792 -8.11959,-6.27767 -9.19379,-11.12006c-1.0742,-4.84239 2.07677,-6.62998 4.15431,-7.25354c5.04847,-1.51525 6.05001,2.65273 7.82647,7.33031c1.98934,5.2381 1.27476,10.05054 -2.78699,11.04329z" fill="#fff9f0" stroke="none" stroke-width="0" stroke-linecap="butt"></path></g><path d="M129.10305,220.5335l0.02257,27.77537c0,0 4.53314,2.18077 10.12758,9.40512c7.98715,10.31418 -4.84591,16.474 -14.83121,13.50605c-5.27536,-1.568 -7.35599,-6.66979 -8.39089,-8.64031c-2.58521,-4.92247 -2.63292,-10.75447 -2.21138,-14.00992c2.01534,-15.56365 4.50725,-38.48746 4.50725,-38.48746" fill="#ffb432" stroke="#001026" stroke-width="3" stroke-linecap="round"></path><path d="M118.4602,200.46996c0,0 -2.95876,7.67781 -2.21129,12.62291c0.74747,4.9451 2.41754,6.1348 5.86363,11.54016c4.48621,7.03682 -1.39773,16.67349 -6.55672,16.2309c-11.1218,-0.95415 -12.15454,-11.92863 -11.35349,-23.00716c0.55153,-7.62768 9.36115,-30.40754 16.66719,-24.81919" fill="#ffb432" stroke="#001026" stroke-width="3" stroke-linecap="round"></path><g><g fill="none" stroke="#001026" stroke-width="2.25" stroke-linecap="round"><path d="M170.28542,160.66402l-13.31278,4.02809"></path><path d="M170.3533,177.48667l-12.87578,-3.31092"></path></g><path d="M118.17981,125.97577l21.05726,-13.93138c0,0 17.21766,22.73257 19.89181,46.00367" fill="#e2811f" stroke="#001026" stroke-width="3" stroke-linecap="round"></path><g stroke-width="3" stroke-linecap="butt"><path d="M82.47928,161.82355c0,-19.08399 15.7094,-36.17016 36.73387,-36.88818c20.8141,-0.71084 35.75429,8.11095 40.65214,34.19562c0.07844,0.41773 4.38186,3.71259 4.22309,10.35275c-0.42913,17.94712 -20.56806,21.80848 -38.99782,21.80848c-20.82855,0 -42.61128,-10.38467 -42.61128,-29.46866z" fill="#ffb432" stroke="none"></path><path d="M134.55974,167.71726c0,0 12.89766,-7.74528 23.34641,-8.28712c0.07844,0.41773 9.70766,2.47823 9.5489,9.11839c-0.61615,14.20638 -23.93472,22.74367 -42.36448,22.74367c-20.82855,0 -42.81442,-15.77459 -31.50949,-26.47693c8.13638,-7.70269 40.97867,2.90197 40.97867,2.90197z" fill="#fff9f0" stroke="none"></path><path d="M82.47928,161.82355c0,-19.08399 15.7094,-36.17016 36.73387,-36.88818c20.8141,-0.71084 35.75429,8.11095 40.65214,34.19562c0.07844,0.41773 7.65689,1.50383 7.77679,9.6046c0.17993,12.15709 -17.57547,21.62144 -42.55152,22.55663c-20.81397,0.77934 -42.61128,-10.38467 -42.61128,-29.46866z" fill="none" stroke="#001026"></path></g><path d="M82.72516,164.52579c-4.50714,-24.91527 20.64749,-54.44973 20.64749,-54.44973l22.5301,14.95871" fill="#ffb432" stroke="#001026" stroke-width="3" stroke-linecap="round"></path><path d="M128.56641,167.38942c-0.46804,-2.06192 9.89799,-1.75069 9.82555,0.1605c-0.01543,0.40709 -2.41252,3.39627 -4.26085,3.47235c-1.85507,0.07636 -5.19428,-2.00099 -5.5647,-3.63285z" fill="#001026" stroke="none" stroke-width="3" stroke-linecap="round"></path><path d="M127.73995,160.36604c0,8.24351 -6.91209,11.00479 -12.63405,11.00479c-5.72196,0 -14.4087,-3.11249 -14.4087,-11.356c0,-8.24351 7.09701,-15.346 12.81897,-15.346c10.28762,0 14.22378,7.4537 14.22378,15.69721z" fill="#001026" stroke="#001026" stroke-width="2.25" stroke-linecap="butt"></path><path d="M158.8669,157.92885c0.74836,8.28874 -3.99104,11.73379 -8.48473,12.45805c-4.4937,0.72425 -12.03659,-1.09953 -12.78496,-9.38825c-0.74836,-8.28874 4.09526,-15.76122 8.58896,-16.48547c8.07931,-1.30216 11.93237,5.12695 12.68073,13.41568z" fill="#001026" stroke="#001026" stroke-width="2.25" stroke-linecap="butt"></path><g fill="none" stroke="#001026" stroke-width="2.25" stroke-linecap="round"><path d="M93.49868,165.75121l-18.0261,-5.15031"></path><path d="M94.60231,173.47667l-15.34467,5.10647"></path></g><path d="M156.17992,174.11964c-13.22734,8.65626 -54.99533,2.67103 -58.00712,-6.04999" fill="none" stroke="#001026" stroke-width="2.25" stroke-linecap="round"></path><path d="M101.271,142.56026c0,0 12.81412,-16.78917 24.68883,-0.44889" fill="none" stroke="#001026" stroke-width="2.25" stroke-linecap="round"></path><g fill="#006aff" stroke="none" stroke-width="3" stroke-linecap="butt"><path d="M123.19156,164.12194c0,-0.36795 0.31426,-0.66623 0.70192,-0.66623c0.38766,0 0.70192,0.29828 0.70192,0.66623c0,0.36795 -0.31426,0.66623 -0.70192,0.66623c-0.38766,0 -0.70192,-0.29828 -0.70192,-0.66623z"></path><path d="M123.80499,165.4914c-0.81551,0 -1.47661,-0.62749 -1.47661,-1.40153c0,-0.77404 0.6611,-1.40152 1.47661,-1.40152c0.81551,0 1.47661,0.62748 1.47661,1.40152c0,0.77404 -0.6611,1.40153 -1.47661,1.40153zM123.8219,163.02185c-0.57849,0.00671 -1.04538,0.47775 -1.04538,1.05783c0,0.58427 0.47364,1.05791 1.05791,1.05791c0.58427,0 1.05791,-0.47364 1.05791,-1.05791c0,-0.48085 -0.32081,-0.88677 -0.76007,-1.0154c-0.08148,-0.0285 -0.16906,-0.044 -0.26027,-0.044c-0.01683,0 -0.03353,0.00053 -0.0501,0.00157z"></path></g><g fill="#006aff" stroke="none" stroke-width="3" stroke-linecap="butt"><path d="M153.74449,162.38074c0,-0.38797 0.33136,-0.70248 0.74012,-0.70248c0.40876,0 0.74012,0.31451 0.74012,0.70248c0,0.38797 -0.33136,0.70248 -0.74012,0.70248c-0.40876,0 -0.74012,-0.31451 -0.74012,-0.70248z"></path><path d="M154.3913,163.82475c-0.85989,0 -1.55697,-0.66163 -1.55697,-1.4778c0,-0.81616 0.69708,-1.4778 1.55697,-1.4778c0.85989,0 1.55696,0.66163 1.55696,1.4778c0,0.81616 -0.69708,1.4778 -1.55696,1.4778zM154.40913,161.22079c-0.60998,0.00708 -1.10227,0.50375 -1.10227,1.1154c0,0.61606 0.49942,1.11548 1.11548,1.11548c0.61606,0 1.11548,-0.49942 1.11548,-1.11548c0,-0.50702 -0.33827,-0.93503 -0.80143,-1.07066c-0.08591,-0.03005 -0.17826,-0.04639 -0.27443,-0.04639c-0.01774,0 -0.03536,0.00056 -0.05282,0.00165z"></path></g></g></g><g fill="#ffab19" stroke="#001026" stroke-width="1.2"><path d="M364.18288,243.33632c0,13.11676 -10.90414,23.75 -24.35509,23.75c-13.45095,0 -24.3551,-10.63324 -24.3551,-23.75c0,-13.11676 10.90415,-23.75 24.3551,-23.75c13.45095,0 24.35509,10.63324 24.35509,23.75z" stroke-linecap="butt"></path><path d="M364.33502,244.22323c0,0 8.62861,3.63451 6.33334,8.33333c-1.44483,2.95782 -9.09116,6.0076 -12.38855,9.58937c-10.17218,11.04945 -21.54037,21.48383 -27.94478,3.74396" stroke-linecap="round"></path></g><g><g stroke="#000000" stroke-width="1.2"><g><path d="M258.75606,183.67828c-3.39404,2.19417 -8.2575,0.53975 -10.8276,-3.63798c-2.5701,-4.17774 -1.84158,-8.17306 1.89633,-10.58954c3.73791,-2.41648 7.80576,-1.56443 10.39458,2.64373c2.58882,4.20816 1.93073,9.38962 -1.46331,11.58379z" fill="#434547" stroke-linecap="butt"></path><path d="M251.84142,182.61594l-5.29713,-9.69757" fill="none" stroke-linecap="round"></path><path d="M254.50831,182.66316l-5.91663,-12.37626" fill="none" stroke-linecap="round"></path><path d="M256.82473,179.90307l-5.51896,-12.23583" fill="none" stroke-linecap="round"></path><path d="M259.88929,180.09071l-1.40304,-3.62626l-3.33238,-7.662" fill="none" stroke-linecap="round"></path><path d="M258.97835,171.27111l-11.03101,5.27352" fill="none" stroke-linecap="round"></path><path d="M261.43398,175.71632l-12.10721,5.78801" fill="none" stroke-linecap="round"></path></g><path d="M240.6543,175.06238l9.40038,12.64868c0,0 10.17333,-8.66914 12.59963,-8.98202c6.23237,-0.80367 10.51852,5.5926 7,11.33333c-2.17164,3.54321 -9.64128,5.85665 -15.07148,6.99125c-3.36785,0.70368 -4.72054,1.36414 -7.26186,0.34209c-2.91598,-1.17273 -2.72587,-3.00439 -4.58646,-6.18527c-2.37545,-4.06108 -6.41354,-9.48139 -6.41354,-9.48139" fill="#b84300" stroke-linecap="round"></path></g><path d="M247.76184,185.54732c2.1515,4.62451 -1.3755,15.47261 -5.41398,24.8642c-2.11456,4.91748 -1.58602,8.99294 -1.58602,8.99294c0,0 1.38052,2.57673 2.57143,4c1.1909,1.42327 2.93812,1.06903 4,3c2.50506,4.55533 -2.4947,8.587 -8.28571,6.14286c-2.87064,-1.21158 -4.44319,-4.44099 -5.56695,-6.00322c-1.66194,-2.31039 -2.33879,-3.63015 -2.43305,-6.99678c-0.08339,-2.97837 2.59979,-8.56167 3.93817,-13.97999c1.19742,-4.84766 2.34755,-9.59144 2.34755,-9.59144" fill="#b84300" stroke="#000000" stroke-width="1.2" stroke-linecap="round"></path><g stroke-linecap="butt"><path d="M247.47531,184.98458c3.18469,5.65414 -3.36523,11.25 -8.75,11.25c-5.38477,0 -11.13531,-3.87449 -9.75,-9.25c0.22274,-0.86431 -2.49687,-11.95775 2.25,-14.5c5.13477,-2.75 11.75,4.51065 16.25,12.5z" fill="#b84300" stroke="#000000" stroke-width="1.2"></path><path d="M246.87084,187.06619c0,4.69442 -2.50662,7.5 -6.30358,7.5c-1.54907,0 -3.45978,-2.49901 -4.22665,-7.208c-0.96257,-5.91068 -3.9505,-12.38089 -0.39835,-12.792c4.66329,-0.53972 10.92858,9.49028 10.92858,12.5z" fill="#ffffff" stroke="none" stroke-width="0"></path></g><path d="M229.41718,131.64021c14.56973,-8.47315 27.06688,-11.54744 27.06688,-11.54744c0,0 8.46747,18.88774 6.57303,30.9859" fill="#b84300" stroke="#000000" stroke-width="1.2" stroke-linecap="round"></path><g><g fill="#b84300" stroke="#000000" stroke-width="1.2"><path d="M263.4079,150.4789c0,13.11676 -12.16202,23.75 -27.16464,23.75c-15.00262,0 -27.16465,-10.63324 -27.16465,-23.75c0,-13.11676 12.16203,-23.75 27.16465,-23.75c15.00262,0 27.16464,10.63324 27.16464,23.75z" stroke-linecap="butt"></path><path d="M263.57761,151.3658c0,0 5.63378,2.75278 6.69215,7.33333c1.11772,4.8375 -19.05359,19.40655 -41.81181,14.66667" stroke-linecap="round"></path></g><path d="M255.16487,158.492c4.66287,1.39765 3.54057,-6.90668 7.33626,-6.2514c3.55539,0.61379 7.49988,4.6875 6.93064,7.33641c-1.4522,6.75766 -22.3254,18.115 -43.1669,12.515c-5.17365,-1.39013 -9.9,-6.51898 -9.9,-11.6c0,-5.08102 5.8517,-8.4745 11.1,-7.4c6.83815,1.4 5.11374,7.528 10.1707,5.8749c11.26155,-3.68135 10.91758,-2.4567 17.52929,-0.4749z" fill="#ffffff" stroke="none" stroke-width="0" stroke-linecap="butt"></path></g><path d="M209.09358,148.74671c2.08601,-18.28969 12.0933,-32.32858 12.0933,-32.32858c0,0 7.93323,2.34516 22.10341,11.25199" fill="#b84300" stroke="#000000" stroke-width="1.2" stroke-linecap="round"></path><path d="M244.04346,166.03268c0,0 -15.84045,-0.72059 -19,-3.66666c-0.24568,-0.22908 0.77778,-1.22223 0.77778,-1.22223" fill="none" stroke="#000000" stroke-width="1.2" stroke-linecap="round"></path><g><path d="M243.68239,157.76859c2.45798,-3.34033 0.98754,-8.62492 -3.8,-12.4c-3.13868,-2.47492 -2.41871,-2.16361 -4.2,-3.2c-1.78129,-1.03638 -3.56563,-2.44782 -6.8,-3.2c-3.23436,-0.75218 -5.83668,0.2 -9.6,0.2c-3.76332,0 -5.2,-0.2 -5.2,-0.2c0,0 -2.31215,2.14532 -1.86666,3.8c0.44549,1.65469 3.71111,1.06667 3.71111,1.06667c0,0 6.41343,1.92158 7.88889,2.33333c1.96045,0.5471 2.44472,2.29113 3.06667,2.8c0.62195,0.50887 2.17764,1.26525 3.2,2.6c1.02236,1.33475 -0.44374,6.99557 3.2,7.8c5.56672,1.22897 7.94202,1.74033 10.4,-1.6z" fill="url(#color-1)" stroke="#000000" stroke-width="1.2" stroke-linecap="round"></path><path d="M243.05217,156.57193c2.30645,-3.01428 0.92666,-7.78304 -3.56574,-11.18963c-2.94518,-2.23334 -2.2696,-1.95242 -3.94107,-2.88764c-1.67147,-0.93523 -3.34582,-2.20888 -6.38079,-2.88764c-3.03497,-0.67876 -5.47685,0.18048 -9.00817,0.18048c-3.53132,0 -5.99053,-0.4027 -5.99053,-0.4027c0,0 -1.81573,1.49147 -1.39771,2.98464c0.41803,1.49317 2.93362,0.93001 2.93362,0.93001c0,0 7.0112,1.87766 8.3957,2.24922c1.8396,0.4937 2.60678,2.62304 3.19039,3.08225c0.58361,0.4592 2.04339,1.14174 3.00273,2.34621c0.95934,1.20447 -0.41638,6.31273 3.00272,7.03863c5.22354,1.10901 7.4524,1.57046 9.75885,-1.44382z" fill="url(#color-2)" stroke="none" stroke-width="0" stroke-linecap="round"></path><path d="M243.2744,157.16035c2.30645,-3.11725 0.92666,-8.0489 -3.56573,-11.57185c-2.94518,-2.30963 -2.2696,-2.01911 -3.94107,-2.98629c-1.67147,-0.96717 -3.34582,-2.28433 -6.38079,-2.98628c-3.03497,-0.70194 -5.47685,0.18664 -9.00817,0.18664c-3.53132,0 -5.99053,-0.41645 -5.99053,-0.41645c0,0 -2.03796,1.87574 -1.61993,3.41992c0.41803,1.54417 3.15584,0.40622 3.15584,0.40622c0,0 7.0112,2.16403 8.3957,2.54828c1.8396,0.51056 2.60679,2.71265 3.19039,3.18753c0.58361,0.47488 2.04339,1.18075 3.00272,2.42636c0.95934,1.24561 -0.41638,6.52836 3.00272,7.27907c5.22354,1.14688 7.4524,1.6241 9.75885,-1.49314z" fill="url(#color-3)" stroke="none" stroke-width="0" stroke-linecap="round"></path><g stroke="none" stroke-width="0" stroke-linecap="butt"><path d="M240.68747,157.09205c0,0.46001 -0.30041,0.83293 -0.67097,0.83293c-0.37056,0 -0.67097,-0.37291 -0.67097,-0.83293c0,-0.46001 0.3004,-0.83293 0.67097,-0.83293c0.37056,0 0.67097,0.37291 0.67097,0.83293z" fill="#2e0011"></path><path d="M241.45793,156.9995c0,0.71558 -0.61116,1.29567 -1.36508,1.29567c-0.75392,0 -1.36508,-0.58009 -1.36508,-1.29567c0,-0.71558 0.61116,-1.29567 1.36508,-1.29567c0.75392,0 1.36508,0.58009 1.36508,1.29567zM240.10905,157.37548c0.14375,0 0.26029,-0.11653 0.26029,-0.26029c0,-0.14375 -0.11653,-0.2603 -0.26029,-0.2603c-0.14375,0 -0.2603,0.11654 -0.2603,0.2603c0,0.14375 0.11654,0.26029 0.2603,0.26029z" fill="#ff005d"></path><path d="M241.38707,156.97629c0,0.70462 -0.55295,1.27582 -1.23506,1.27582c-0.19736,0 -0.3839,-0.04782 -0.54937,-0.13286c0.11131,0.03064 0.22849,0.04699 0.34947,0.04699c0.72994,0 1.32168,-0.59559 1.32168,-1.33029c0,-0.26594 -0.07753,-0.51366 -0.21108,-0.7215c0.20144,0.22702 0.32437,0.52959 0.32437,0.86183z" fill="#ffc0d7"></path><path d="M239.62211,156.49544c-0.2036,0.28259 -0.07566,0.40591 -0.33275,0.39219c-0.20433,-0.0109 -0.14801,-0.38591 0.00422,-0.61271c0.15223,-0.2268 0.43853,-0.47535 0.58383,-0.26337c0.17645,0.25743 0.03519,0.08068 -0.2553,0.48388z" fill="#ffe3ed"></path><path d="M243.31645,156.9995c0,1.70616 -1.44326,3.08929 -3.2236,3.08929c-1.78035,0 -3.2236,-1.38312 -3.2236,-3.08929c0,-1.70616 1.44325,-3.08929 3.2236,-3.08929c1.78035,0 3.2236,1.38312 3.2236,3.08929z" fill="url(#color-4)"></path></g></g><g><path d="M258.85893,141.70774c-0.83438,1.36153 -1.38514,4.44809 -1.4907,6.36289c-0.10556,1.91481 1.95878,10.41054 -0.70032,10.47311c-2.41185,0.05676 -3.34972,0.58884 -3.89745,-0.3885c-0.9651,-1.72211 -1.19546,-1.24819 -1.14703,-3.23534c0.07097,-2.91203 1.57718,-6.24849 2.02411,-9.82038c0.49786,-3.97884 2.68671,-6.76359 4.52026,-7.50669c1.83355,-0.7431 1.85032,2.22338 0.69113,4.1149z" fill="url(#color-5)" stroke="#000000" stroke-width="1.2" stroke-linecap="round"></path><path d="M258.14658,142.02859c-0.65623,1.27426 -1.07468,4.172 -1.14598,5.97126c-0.0713,1.79926 1.63212,9.79936 -0.48801,9.84028c-1.923,0.03712 -3.31759,0.89531 -3.76096,-0.0271c-0.78123,-1.62532 -0.85599,-1.29759 -0.83074,-3.16523c0.037,-2.7369 1.7602,-6.11124 2.09258,-9.46591c0.37025,-3.73686 2.65199,-6.366 4.1092,-7.05219c1.29212,-0.60845 1.13414,1.41955 0.42219,3.14741c-0.09096,0.22075 -0.295,0.55094 -0.39828,0.75149z" fill="url(#color-6)" stroke="none" stroke-width="0" stroke-linecap="round"></path><path d="M258.15181,142.13957c-0.65623,1.27426 -1.07468,4.17201 -1.14597,5.97125c-0.0713,1.79925 1.63212,9.79936 -0.48801,9.84029c-1.923,0.03712 -3.3176,0.89531 -3.76096,-0.0271c-0.78123,-1.62532 -0.85599,-1.29759 -0.83073,-3.16523c0.037,-2.7369 1.7602,-6.11124 2.09258,-9.46591c0.37025,-3.73686 2.65199,-6.36601 4.1092,-7.0522c1.29212,-0.60845 1.13414,1.41956 0.42219,3.14742c-0.09096,0.22076 -0.295,0.55093 -0.39828,0.75148z" fill="url(#color-7)" stroke="none" stroke-width="0" stroke-linecap="round"></path><g stroke="none" stroke-width="0" stroke-linecap="butt"><path d="M255.94816,156.42221c0.02164,0.4595 -0.26089,0.84614 -0.63104,0.86358c-0.37016,0.01743 -0.68778,-0.34094 -0.70942,-0.80045c-0.02164,-0.4595 0.2609,-0.84614 0.63105,-0.86357c0.37016,-0.01743 0.68777,0.34094 0.70941,0.80044z" fill="#2e0011"></path><path d="M256.71341,156.29351c0.03366,0.71479 -0.54953,1.32299 -1.30262,1.35845c-0.75308,0.03547 -1.39086,-0.51522 -1.42453,-1.23001c-0.03366,-0.71479 0.54953,-1.32298 1.30262,-1.35845c0.75308,-0.03547 1.39086,0.51522 1.42453,1.23001zM255.38371,156.73253c0.1436,-0.00676 0.25452,-0.12865 0.24775,-0.27225c-0.00676,-0.1436 -0.12865,-0.25452 -0.27224,-0.24775c-0.1436,0.00676 -0.25452,0.12865 -0.24775,0.27224c0.00676,0.1436 0.12865,0.25452 0.27224,0.24776z" fill="#ff005d"></path><path d="M256.64154,156.27366c0.03315,0.70384 -0.49232,1.30043 -1.17367,1.33252c-0.19714,0.00928 -0.38573,-0.02971 -0.55501,-0.10686c0.11264,0.02537 0.23044,0.0362 0.35128,0.03051c0.72913,-0.03434 1.2922,-0.65712 1.25764,-1.39101c-0.01251,-0.26565 -0.10161,-0.50944 -0.2448,-0.71076c0.2119,0.21729 0.34893,0.51375 0.36455,0.84561z" fill="#ffc0d7"></path><path d="M254.85592,155.87638c-0.19008,0.29185 -0.05649,0.40901 -0.31393,0.40741c-0.20461,-0.00128 -0.16601,-0.37852 -0.02461,-0.61223c0.14139,-0.23371 0.41568,-0.49546 0.57079,-0.29054c0.18836,0.24885 0.03896,0.07894 -0.23225,0.49536z" fill="#ffe3ed"></path><path d="M258.56987,156.20608c0.08026,1.70427 -1.29632,3.15377 -3.07469,3.23753c-1.77837,0.08375 -3.28511,-1.22994 -3.36537,-2.93421c-0.08026,-1.70427 1.29632,-3.15377 3.0747,-3.23752c1.77837,-0.08375 3.2851,1.22994 3.36537,2.93421z" fill="url(#color-8)"></path></g></g><path d="M229.01907,187.164c0,0 -5.02409,20.57489 -8.85715,33.57143c-0.84833,2.87641 -1.08265,3.42294 0.67442,9.60282c1.39857,4.91899 0.38232,5.41033 3.55097,8.92796c6.62336,7.3528 19.27881,4.97149 18.57143,-4.57143c-0.43741,-5.90102 -5.8873,-5.92622 -7.81014,-8.75096c-2.7559,-4.04855 -2.18986,-7.67761 -2.18986,-7.67761l6.57143,-22" fill="#b84300" stroke="#000000" stroke-width="1.2" stroke-linecap="round"></path><path d="M229.32015,174.32374c0,0 -8.71761,5.44263 -12.55991,10.5685c-3.8423,5.12587 -6.31089,16.80791 -3.47447,23.27935c2.83642,6.47145 12.77801,5.38579 12.84216,-1.90643c0.04455,-5.06334 -1.66923,-10.13952 -1.9035,-12.54551c-0.22805,-2.34199 1.02928,-2.02875 0.64012,-5.75639c-0.24066,-2.30513 4.86578,-8.13714 4.86578,-8.13714" fill="#b84300" stroke="#000000" stroke-width="1.2" stroke-linecap="round"></path></g></g></g></svg>