<svg version="1.1" xmlns="http://www.w3.org/2000/svg" xmlns:xlink="http://www.w3.org/1999/xlink" width="62.02258" height="95.33317" viewBox="0,0,62.02258,95.33317"><g transform="translate(-212.97106,-149.82957)"><g data-paper-data="{&quot;isPaintingLayer&quot;:true}" fill-rule="nonzero" stroke="none" stroke-linecap="butt" stroke-linejoin="miter" stroke-miterlimit="10" stroke-dasharray="" stroke-dashoffset="0" style="mix-blend-mode: normal"><path d="M247.94493,209.77925l-0.50707,0.88743c0,0 -0.07157,0.12502 -0.20676,0.23411c0.22542,1.39189 0.53507,3.02135 1.55258,3.99449c3.07849,2.30217 6.30164,3.42296 8.62637,0.74597c-0.97199,-0.56298 -1.92255,-1.19585 -2.83843,-1.76649c-0.21054,-0.03483 -0.63399,-0.17493 -0.63399,-0.73848c0,-0.03388 0.00153,-0.06622 0.00445,-0.09711c-1.61038,-1.06757 -2.34704,-2.98565 -2.76237,-4.81225c-0.11383,0.0524 -0.20599,0.06776 -0.20599,0.06776c-0.05105,0.00851 -0.21239,0.03626 -0.43648,0.07418c-0.09115,0.03557 -0.21854,0.06975 -0.35718,0.06003c-0.54781,0.09139 -1.25721,0.20638 -1.74413,0.27173c-0.16366,0.35954 -0.32732,0.71909 -0.49098,1.07863zM253.19897,201.38015c-0.15028,0.12881 -0.2949,0.18397 -0.42638,0.19538c-0.05759,0.05371 -0.11292,0.0918 -0.14915,0.11428c0.18517,-0.03158 0.41922,-0.00624 0.62167,0.21689c0.44974,-0.05622 1.08785,-0.13598 1.53728,-0.19216c0.15221,-0.05316 0.30266,-0.03852 0.42159,-0.00669c0.12124,0.02321 0.26348,0.07579 0.37749,0.19058l0.28141,0.18306c0.41515,0.30325 3.07845,0.35864 2.56822,-0.64406c-0.37183,-0.73071 -2.7334,-2.52391 -3.51958,-2.67517c-0.91934,-0.17688 -0.97293,1.51175 -1.50514,2.36298c-0.04325,0.08518 -0.10979,0.17124 -0.20741,0.25492zM252.57219,199.49672l0.06823,0.07957c0.54098,-0.94463 1.14278,-2.21513 2.05585,-2.29853c1.50173,-0.13716 5.04814,2.75975 5.23443,4.19403c0.07165,0.5516 -1.11986,1.70597 -2.09604,2.33443c0.74897,1.68385 1.36782,4.09578 2.39656,5.55753c0.3181,0.45199 1.10139,0.12031 1.65407,0.11555c1.46177,-0.0126 3.36697,-0.15194 4.37427,1.07226c1.36356,-0.95421 3.50934,-2.39341 5.02281,-1.51676c0.7231,0.41884 0.55171,2.50487 0.55059,3.04334c-0.0001,0.04817 -0.00055,0.09586 -0.00136,0.14307c1.93909,-0.22979 3.75793,0.35083 2.97639,3.02852c-0.57783,1.97975 -3.07348,4.40782 -5.15043,4.88777c-1.79916,0.41575 -2.95345,-0.22352 -3.35198,-1.45525c-0.77518,-0.3353 -1.51166,-0.82292 -2.07112,-1.45322l-0.28715,-0.42091c0,0 -0.05843,-0.08765 -0.09865,-0.21915c-0.83034,0.25659 -1.71925,0.39601 -2.54537,0.4285c1.67984,2.71777 3.38138,5.41302 5.14245,8.08069c0.30635,0.46405 1.71715,2.45977 1.62036,2.98481c-0.09048,0.49081 -1.06448,0.35769 -1.25281,0.81986c-0.37739,0.92611 2.08551,1.44442 1.79746,2.40208c-0.04775,0.15875 -0.13818,0.28488 -0.25763,0.38782c0.64947,0.18159 1.23932,0.34807 1.26895,0.36202c3.31279,1.55972 1.92511,4.1654 -1.07314,4.6873c-3.46598,0.60332 -6.34569,-0.65496 -9.71679,-1.14768c-1.17593,-0.17187 -1.7991,0.19956 -2.86201,-0.88557c-1.49897,-1.53031 -0.48222,-1.93299 0.47149,-3.16643l0.11717,-0.10694c-0.49934,-0.48852 -0.82323,-1.17506 -0.90341,-2.15759c-0.07289,-0.89326 0.19106,-2.7688 1.28164,-2.99424c-0.34636,-0.21749 -0.6522,-0.50285 -0.96721,-0.76519c-0.33304,-0.27737 -0.64056,-0.5838 -0.95486,-0.88249c-0.27078,2.25261 0.93222,5.28336 -0.12633,6.93005c-0.16863,0.26234 -2.71354,1.22462 -3.14503,1.39682c-2.0374,0.81307 -4.0744,1.6124 -6.12541,2.38473c2.79284,0.9621 6.94562,2.06189 7.85503,4.07167c1.02105,2.2565 -0.70589,3.23986 -2.23807,4.43521c-3.06359,2.39012 -7.72389,1.00553 -10.93124,-0.21542c-3.12252,-1.22101 -9.05301,0.11198 -9.61904,-4.7675c-0.14257,-1.22908 0.648,-3.16537 0.91846,-4.39686l0.41203,-0.47272c-0.92946,-3.12492 3.3421,-7.75938 6.11462,-7.58476c0.27963,0.01761 2.70437,1.06894 3.08712,1.23146l0.3947,0.16759c-0.12017,-1.2057 -0.27744,-2.40676 -0.42342,-3.61194l-0.05495,-0.87966c-0.94162,-0.47063 -1.79767,-1.1552 -2.53221,-2.09378c-0.21112,-0.36104 -0.42225,-0.72208 -0.63337,-1.08312c-0.02807,-0.02986 -0.04301,-0.04978 -0.04301,-0.04978l-0.27917,-0.38479c-0.01032,-0.01032 -0.02063,-0.02063 -0.03095,-0.03095c-0.01064,0.1917 -0.04412,0.39344 -0.11617,0.61091c-0.52942,1.59796 -2.347,2.66169 -3.15976,4.2877c-1.57023,3.11351 -6.61704,4.21615 -9.44188,1.81193c-0.98098,-0.83491 -1.76772,-1.8033 -2.31864,-2.84458c-0.33866,0.04115 -0.6103,-0.21109 -0.6103,-0.21109l-0.1873,-0.2007c-1.92335,-1.12322 -3.39656,-2.86298 -3.95531,-5.07819c-0.51682,-2.12746 -0.9399,-4.02723 -0.50095,-6.23235c1.06253,-5.33777 5.7993,-13.89808 11.87423,-12.53019c0.35035,-0.32297 0.8244,-0.08594 0.8244,-0.08594c1.24993,0.62702 2.32535,1.34992 3.46696,2.14955l0.33459,0.22282c0,0 0.14079,0.09386 0.24404,0.25928l0.07878,-0.22421c0.2344,-0.33857 0.46879,-0.67714 0.70319,-1.01571c-0.15463,-0.47985 -0.17283,-0.89898 0.01624,-1.18317c0.50243,-0.7552 4.22538,-1.81915 5.09778,-1.66566c0.44932,0.07905 1.06318,0.69477 1.55934,1.2608c3.76924,-2.28479 7.66155,-3.14658 11.04825,0.48338zM241.73039,201.51953c-0.05395,-0.13853 -0.1079,-0.27706 -0.16185,-0.41559c-0.28253,-0.04733 -0.47361,-0.27026 -0.47361,-0.27026c-1.37006,-1.6051 -2.89747,-2.00389 -4.94024,-0.64646c-0.02255,0.01498 -0.04107,0.0306 -0.05588,0.04679c0.21475,0.16979 0.27937,0.36437 0.27963,0.53673c0.26628,0.21633 0.6268,0.44302 0.80734,0.6328c0.54083,0.56849 0.72992,1.66341 1.49994,1.81415c0.32953,0.06451 1.04066,-0.66387 1.41097,-1.06515c0.00682,-0.0555 0.01982,-0.11456 0.04014,-0.17736c0.23086,-0.71358 0.94445,-0.48272 0.94445,-0.48272c0.21191,0.06856 0.44973,0.14732 0.70884,0.23262zM243.43093,201.99624c0,0 0.03233,0.11094 0.02806,0.25842c1.22348,0.36661 2.62705,0.72712 3.96062,0.88218c0.50542,-0.06652 1.12794,-0.04316 1.76219,0.06473c1.09184,-0.06694 2.0353,-0.37256 2.6499,-1.06073l0.41035,-0.28907l-0.12426,0.05044c-3.05457,0.42377 -6.00911,0.00463 -8.92745,-0.72938zM237.65981,217.60596c0.20427,0.20427 0.40855,0.40855 0.61282,0.61282c0.24586,0.08524 0.39556,0.293 0.39556,0.293l0.44634,0.62536c0.24309,0.41782 0.48618,0.83564 0.72927,1.25347c3.46025,4.48338 10.62999,1.69504 15.43354,-1.54683c-2.74091,0.40962 -5.39913,-1.25312 -7.47646,-2.81531c-1.43304,-1.47415 -1.81752,-3.44375 -2.11446,-5.4349l0.24132,-1.31917c0,0 0.14022,-0.73274 0.87177,-0.59676c0.0513,-0.11303 0.1026,-0.22605 0.1539,-0.33908c-1.39072,-0.87597 -2.23139,-2.7026 -1.3857,-4.03426c-1.54584,-0.30541 -3.0522,-0.7728 -4.30283,-1.17584c-0.02192,0.00831 -0.04346,0.01548 -0.06432,0.02165c-0.74413,0.76106 -1.57354,1.7209 -2.83661,1.53269c-0.64096,-0.09551 -1.88325,-1.29843 -2.73535,-2.56997c-0.08264,0.11936 -0.16527,0.23873 -0.24791,0.35809l-0.09242,0.42054c0,0 -0.01234,0.04017 -0.04068,0.09857c0.14891,0.16701 0.35971,0.51708 0.04096,0.94389c-0.44878,0.60092 -1.0497,0.15214 -1.0497,0.15214l-0.03277,-0.02447c-0.76775,-0.57515 -1.58243,-1.09241 -2.42953,-1.54259c0,0 -0.50933,-0.27165 -0.39601,-0.78514c-0.15311,-0.10065 -0.30674,-0.19965 -0.46162,-0.2969c-0.28981,0.06128 -0.55688,-0.09133 -0.55688,-0.09133c-3.62426,-2.12533 -6.21605,0.35499 -8.05884,3.42717c-2.61114,4.35314 -4.25537,7.84684 -3.02023,12.93126c0.34671,1.50178 1.30022,2.78315 2.51735,3.66749c-0.37697,-1.94354 0.05203,-3.98549 1.50921,-5.80209c1.01045,-1.25967 1.46988,-1.88078 2.73826,-2.51696c0.1149,-0.14714 0.25428,-0.22404 0.25428,-0.22404c0.89308,-0.49273 2.13047,-1.04997 3.48219,-1.48992c-0.74953,-0.98757 -1.33924,-1.7327 -2.39302,-2.47565c0,0 -0.6103,-0.43593 -0.17437,-1.04623c0.43593,-0.6103 1.04623,-0.17437 1.04623,-0.17437c0.19943,0.14405 0.38507,0.28762 0.56001,0.43219c0.11222,-0.15443 0.25407,-0.23717 0.25407,-0.23717c0.69294,-0.4029 1.37745,-0.82973 2.00167,-1.33257l0.17149,-0.17783c0,0 0.53033,-0.53033 1.06066,0c0.18266,0.18266 0.23949,0.36533 0.23551,0.52632c0.63248,-0.06369 1.26282,-0.15081 1.88706,-0.2681l0.25408,-0.01277c0,0 0.75,0 0.75,0.75c0,0.17407 -0.0404,0.30774 -0.10245,0.41038c0.05369,0.00748 0.11064,0.02077 0.17101,0.04089c0.71151,0.23717 0.47434,0.94869 0.47434,0.94869c-0.11856,0.35568 -0.42808,1.28421 -0.64217,1.9265c1.86918,0.31994 3.289,1.46767 3.46982,4.06735c0.06697,0.96287 -0.70735,1.79712 -1.10824,2.67512c-0.02856,0.06255 -0.0532,0.12386 -0.07436,0.18406c0.02222,0.01861 0.03424,0.03062 0.03424,0.03062zM265.37334,216.25284c0.22722,0.27847 0.51114,0.5138 0.82255,0.7061c0.01697,-0.12537 0.03868,-0.25316 0.06517,-0.38316l1.1161,-0.89996c0,0 0.6,-0.45 1.05,0.15c0.45,0.6 -0.15,1.05 -0.15,1.05l-0.74437,0.49539c-0.19525,1.27945 0.63691,1.62385 1.71977,1.322c1.94992,-0.54354 6.37393,-6.00138 2.45267,-4.93985c0,0 -0.02785,0.00597 -0.07386,0.01015c-0.43416,1.50726 -1.57587,1.92775 -3.48638,0.73599l-0.35231,-1.3168c0,0 -0.1627,-0.73214 0.56944,-0.89484c0.73214,-0.1627 0.89484,0.56944 0.89484,0.56944l0.11281,0.77623c1.16333,0.7317 0.96524,-0.72318 0.96319,-1.55539c-0.00149,-0.60638 0.67779,-1.6873 0.08548,-1.81712c-0.98783,-0.21651 -2.54436,0.95926 -3.46096,1.62724c0.68683,1.96182 -0.24834,3.30774 -1.73618,4.12813zM261.01531,215.52673c1.19916,0.00187 2.7293,0.06024 3.7906,-0.65481c0.98411,-0.66304 1.00728,-3.21416 -0.08394,-3.72918c-1.62793,-0.76832 -4.18302,0.72998 -5.57796,-0.74556c-0.82764,-0.87546 -1.4286,-2.56473 -1.96289,-4.08074c-0.24385,0.93924 -0.39937,1.89107 -0.63402,2.83573c0.31546,0.33726 0.10236,0.80609 0.10236,0.80609c-0.33929,0.74643 -0.67858,1.49287 -1.01787,2.23931c0.01006,0.00304 0.02015,0.00605 0.03028,0.00902c0.8176,0.23978 4.0728,-0.34412 4.53472,0.51549c0.37846,0.7043 0.16404,1.60845 -0.33005,2.4958c0.10559,0.04324 0.21126,0.08435 0.31698,0.12313c0,0 0.10159,0.0381 0.21301,0.12395c0.20626,0.02059 0.41252,0.04118 0.61878,0.06176zM255.10707,203.37715l-0.24838,-0.16048c-0.40587,0.05074 -0.81175,0.10147 -1.21762,0.15221l-0.37204,0.0465c0,0 -0.26786,0.03348 -0.50227,-0.10043c-0.36836,0.32054 -0.77756,0.57318 -1.21822,0.76777c0.55644,0.38128 0.93459,0.86858 0.9652,1.45331c0.02258,0.43136 -0.16285,0.83093 -0.36867,1.22739c0.30089,0.16565 0.37192,0.53268 0.37192,0.53268c0.27706,1.4315 0.65523,3.14031 1.80032,4.16804c0.26194,-0.57627 0.52387,-1.15252 0.78581,-1.72879c-0.18893,-0.2802 -0.09255,-0.6336 -0.09255,-0.6336c0.30927,-1.13066 0.45009,-2.28391 0.79545,-3.39976l-0.00793,-0.70523c0,0 0,-0.65239 0.60846,-0.74026c-0.00926,-0.03605 -0.01808,-0.07883 -0.02374,-0.12612c-0.44603,-0.17826 -0.8415,-0.53364 -1.27573,-0.75322zM250.06132,206.92203l0.55473,-0.33195c0.64689,-1.10524 -0.5598,-1.79168 -1.81138,-1.96036c-0.32483,0.00723 -0.65496,-0.00069 -0.98816,-0.02143c-0.18966,0.0196 -0.36713,0.05415 -0.52417,0.10413c-2.00525,0.63822 0.84076,2.56245 1.95518,2.34927c0.27034,-0.05172 0.54196,-0.09632 0.81379,-0.13967zM258.33811,214.27279c0.14938,-0.27699 0.60532,-0.40761 0.60798,-0.7223c0.00189,-0.22334 -0.38192,0.26884 -0.60432,0.28943c-0.07337,0.00679 -0.56825,-0.02501 -1.14972,-0.06752c0.35195,0.22179 0.70792,0.43953 1.06663,0.64467c0.02664,-0.0474 0.05312,-0.09549 0.07942,-0.14427zM231.83408,208.41927c0,0 -0.33514,0.02394 -0.57281,-0.18455c-0.44414,0.30654 -0.90458,0.59064 -1.3696,0.86383c0.40816,0.44997 0.78635,0.93568 1.2077,1.4918l0.17233,0.32856c0.84388,-0.19982 1.69926,-0.33371 2.51623,-0.36224c0.14332,-0.42996 0.28664,-0.85992 0.42996,-1.28988l0.33961,-1.01883c0,0 0.02654,-0.07964 0.08852,-0.17674c-0.92905,0.16997 -1.86996,0.28003 -2.81194,0.34805zM227.78819,213.74565c-0.12768,0.19693 -0.32527,0.295 -0.32527,0.295l-0.28826,0.14126c-1.50752,0.59798 -1.65972,1.07802 -2.70228,2.33505c-2.22672,2.6848 -1.46798,8.23908 2.41315,9.39105c2.37212,0.70407 5.04599,0.1543 6.11162,-1.99804c0.15515,-0.3102 1.11199,-2.29506 1.39271,-2.58308c0.77725,-0.79744 1.35518,-0.25093 1.67515,-1.47531c0.25912,-0.99151 -0.13703,-2.11914 0.26147,-3.0633c0.28618,-0.67802 1.06076,-1.24403 0.98478,-1.97605c-0.48285,-4.65238 -6.5384,-2.53732 -9.52307,-1.06658zM232.17095,238.66771c0.38643,3.65498 6.29772,2.68405 8.6677,3.56984c3.13075,1.1976 5.75438,1.75827 9.0211,0.73088c0.857,-0.26953 2.89983,-1.84854 2.28762,-2.84769c-1.03454,-1.6884 -4.84627,-2.63529 -7.39469,-3.50814c-0.12684,0.14133 -0.3071,0.23487 -0.51161,0.24759c-0.02857,0.00178 -0.05687,0.00192 -0.0848,0.00053l-1.48886,-0.05595l0.00799,-0.21256c-2.3082,0.0713 -4.41381,-0.47068 -6.87387,-0.78322c-0.90324,-0.11475 -1.99672,0.27235 -2.71657,-0.28517c-0.06,-0.04647 -0.11753,-0.09398 -0.17262,-0.14246c-0.31224,1.04484 -0.83452,2.40548 -0.74139,3.28635zM242.6821,224.06722c0.21702,1.78167 0.45395,3.55428 0.56579,5.34606c0,0 0.04655,0.74856 -0.70201,0.79511c-0.74856,0.04655 -0.7951,-0.702 -0.7951,-0.702c-0.00134,-0.02154 -0.00269,-0.04308 -0.00406,-0.06461c-0.16429,-0.00842 -0.28736,-0.06068 -0.28736,-0.06068l-0.82853,-0.3518c-2.80328,-1.1903 -3.96854,-0.77482 -6.39596,1.48272c-0.6094,0.56675 -1.06544,3.25804 -0.28371,3.78717c0.5629,0.38101 1.3647,-0.06362 2.03905,0.02171c1.73047,0.21898 4.53711,0.28535 6.38617,0.98797c0.05856,-0.24997 0.24295,-0.4545 0.48649,-0.53806l0.85477,-0.31547c2.50698,-0.92526 4.98812,-1.89524 7.46999,-2.88569c0.79432,-0.31699 1.9841,-0.0816 2.43507,-0.80828c0.44755,-0.72117 -0.20013,-1.69081 -0.18614,-2.53946c0.0262,-1.58949 -0.15592,-3.23145 0.30427,-4.73457c-0.03398,-0.04739 -0.06556,-0.10224 -0.09391,-0.16557c-0.30642,-0.68455 0.37812,-0.99097 0.37812,-0.99097c0.45637,-0.20428 0.91273,-0.40856 1.3691,-0.61284l1.35127,-0.60486c0,0 0.68455,-0.30642 0.99097,0.37813c0.30642,0.68455 -0.37813,0.99097 -0.37813,0.99097c-0.26881,0.12033 -1.00644,0.45051 -1.66059,0.74332l0.16252,0.14636c0.54977,0.5109 3.44098,2.37761 3.26927,3.25692c-0.03353,0.17171 -1.69242,0.79942 -1.88547,1.39294c-0.66129,2.03309 0.67118,2.81501 2.36544,3.0694c1.91604,0.2936 3.35578,0.25504 5.25741,-0.02419c0.47334,-0.0695 0.94265,-0.17886 1.42023,-0.2071c0.29079,-0.01719 0.88637,0.36251 0.87095,0.07162c-0.0177,-0.33393 -0.68794,-0.19469 -0.89154,-0.45997c-0.42749,-0.55701 -1.00328,-1.19957 -0.91692,-1.89638c0.06162,-0.49712 1.04202,-0.37374 1.25451,-0.82736c0.1178,-0.25147 -0.4228,-0.36579 -0.59269,-0.58545c-0.60838,-0.78659 -1.09596,-1.65959 -1.64386,-2.48944c-1.61692,-2.44897 -3.15472,-4.94108 -4.69362,-7.43941c-3.64969,3.60365 -11.35004,8.08902 -17.00261,6.65857zM257.56606,232.53517c-1.9641,1.76862 1.76365,1.63518 2.98792,1.89629c2.07846,0.44328 4.1802,1.20174 6.29795,0.97844c1.16168,-0.12249 5.22113,-0.63987 2.14662,-1.99087c-0.42185,-0.18537 -0.88996,-0.23929 -1.33431,-0.36128c-0.48217,-0.13236 -0.96346,-0.26782 -1.4452,-0.40174c0,0 -0.12768,-0.03549 -0.26078,-0.13031c-2.10107,0.54863 -4.51272,0.36293 -6.57558,0.0482c-0.52803,-0.082 -1.02398,-0.18926 -1.47142,-0.34533zM251.43593,200.47726c-2.52051,-2.68321 -5.29221,-2.26805 -8.05981,-0.80244c2.63628,0.68099 5.3074,1.11185 8.05981,0.80244z" fill="#000000" stroke-width="0.5"/><path d="M243.14155,201.16189c2.91834,0.73401 5.97157,1.16085 9.02614,0.73708l0.12423,-0.0509l-0.41022,0.2922c-0.6146,0.68817 -1.56694,1.02281 -2.65878,1.08975c-0.63425,-0.10789 -1.31279,-0.11198 -1.81821,-0.04546c-1.33357,-0.15506 -2.77223,-0.5625 -3.99571,-0.92911c0.00427,-0.14748 -0.02802,-0.26144 -0.02802,-0.26144z" data-paper-data="{&quot;noHover&quot;:false,&quot;origItem&quot;:[&quot;Path&quot;,{&quot;applyMatrix&quot;:true,&quot;segments&quot;:[[243.43093,201.99624],[[243.45899,202.25466],[0.00427,-0.14748],[1.22348,0.36661]],[[247.41961,203.13684],[-1.33357,-0.15506],[0.50542,-0.06652]],[[249.1818,203.20157],[-0.63425,-0.10789],[1.09184,-0.06694]],[[251.8317,202.14084],[-0.6146,0.68817],[0,0]],[252.24205,201.85177],[[252.11779,201.90221],[0,0],[-3.05457,0.42377]],[[243.19034,201.17283],[2.91834,0.73401],[0,0]]],&quot;closed&quot;:true,&quot;fillColor&quot;:[0,0,0,1]}]}" fill="#9c9c9c" stroke-width="0.5"/><path d="M241.83955,201.73258c-0.25911,-0.0853 -0.59615,-0.17619 -0.80806,-0.24475c0,0 -0.6204,-0.20141 -0.85126,0.51217c-0.02032,0.0628 -0.03664,0.12693 -0.04346,0.18243c-0.37031,0.40128 -1.12819,1.14933 -1.45772,1.08482c-0.77002,-0.15074 -1.00235,-1.29209 -1.54318,-1.86058c-0.18054,-0.18978 -0.54015,-0.42957 -0.80643,-0.6459c-0.00026,-0.17236 -0.06274,-0.3744 -0.27749,-0.54419c0.01481,-0.01619 0.03371,-0.0328 0.05626,-0.04778c2.04277,-1.35743 3.66555,-0.95066 5.03561,0.65444c0,0 0.19206,0.22978 0.47459,0.27711c0.05395,0.13853 0.10787,0.28471 0.16182,0.42324z" data-paper-data="{&quot;noHover&quot;:false,&quot;origItem&quot;:[&quot;Path&quot;,{&quot;applyMatrix&quot;:true,&quot;segments&quot;:[[[241.73039,201.51953],[0,0],[-0.05395,-0.13853]],[[241.56854,201.10394],[0.05395,0.13853],[-0.28253,-0.04733]],[[241.09493,200.83368],[0,0],[-1.37006,-1.6051]],[[236.15469,200.18722],[2.04277,-1.35743],[-0.02255,0.01498]],[[236.09881,200.23401],[0.01481,-0.01619],[0.21475,0.16979]],[[236.37844,200.77074],[-0.00026,-0.17236],[0.26628,0.21633]],[[237.18578,201.40354],[-0.18054,-0.18978],[0.54083,0.56849]],[[238.68572,203.21769],[-0.77002,-0.15074],[0.32953,0.06451]],[[240.09669,202.15254],[-0.37031,0.40128],[0.00682,-0.0555]],[[240.13683,201.97518],[-0.02032,0.0628],[0.23086,-0.71358]],[[241.08128,201.49246],[0,0],[0.21191,0.06856]],[[241.79012,201.72508],[-0.25911,-0.0853],[0,0]]],&quot;closed&quot;:true,&quot;fillColor&quot;:[0,0,0,1]}]}" fill="#2d2d2d" stroke-width="0.5"/><path d="M253.15204,201.39741c0.09762,-0.08368 0.163,-0.1733 0.20625,-0.25848c0.53221,-0.85123 0.61653,-2.60044 1.53587,-2.42356c0.78618,0.15126 3.2127,2.00668 3.58453,2.73739c0.51023,1.0027 -2.19117,0.98107 -2.60632,0.67782l-0.29011,-0.18216c-0.11401,-0.11479 -0.2713,-0.16944 -0.39254,-0.19265c-0.11893,-0.03183 -0.28227,-0.05241 -0.43448,0.00075c-0.44943,0.05618 -1.10322,0.11975 -1.55296,0.17597c-0.20245,-0.22313 -0.44008,-0.25566 -0.62525,-0.22408c0.03623,-0.02248 0.09125,-0.06136 0.14884,-0.11507c0.13148,-0.01141 0.27589,-0.06714 0.42617,-0.19595z" data-paper-data="{&quot;noHover&quot;:false,&quot;origItem&quot;:[&quot;Path&quot;,{&quot;applyMatrix&quot;:true,&quot;segments&quot;:[[[253.19897,201.38015],[0,0],[-0.15028,0.12881]],[[252.77259,201.57553],[0.13148,-0.01141],[-0.05759,0.05371]],[[252.62344,201.68981],[0.03623,-0.02248],[0.18517,-0.03158]],[[253.24511,201.9067],[-0.20245,-0.22313],[0.44974,-0.05622]],[[254.78239,201.71454],[-0.44943,0.05618],[0.15221,-0.05316]],[[255.20398,201.70785],[-0.11893,-0.03183],[0.12124,0.02321]],[[255.58147,201.89843],[-0.11401,-0.11479],[0,0]],[[255.86288,202.08149],[0,0],[0.41515,0.30325]],[[258.4311,201.43743],[0.51023,1.0027],[-0.37183,-0.73071]],[[254.91152,198.76226],[0.78618,0.15126],[-0.91934,-0.17688]],[[253.40638,201.12524],[0.53221,-0.85123],[-0.04325,0.08518]],[[253.19897,201.38016],[0.09762,-0.08368],[0,0]]],&quot;closed&quot;:true,&quot;fillColor&quot;:[0,0,0,1]}]}" fill="#2d2d2d" stroke-width="0.5"/><path d="M255.12078,203.32907c0.43423,0.21958 0.84598,0.58303 1.29201,0.76129c0.00566,0.04729 -0.04644,0.16936 -0.03718,0.20541c-0.60846,0.08787 -0.54685,0.66149 -0.54685,0.66149l0.01449,0.71135c-0.34536,1.11585 -0.49812,2.3456 -0.80739,3.47626c0,0 -0.10041,0.35552 0.08852,0.63572c-0.26194,0.57627 -0.54103,1.1571 -0.80297,1.73337c-1.14509,-1.02773 -1.57734,-2.78789 -1.8544,-4.21939c0,0 -0.06874,-0.38053 -0.36963,-0.54618c0.20582,-0.39646 0.40744,-0.81984 0.38486,-1.2512c-0.03061,-0.58473 -0.40715,-1.07328 -0.96359,-1.45456c0.44066,-0.19459 0.86535,-0.45503 1.23371,-0.77557c0.23441,0.13391 0.50779,0.09911 0.50779,0.09911l0.3767,-0.04712c0.40587,-0.05074 0.82642,-0.10054 1.23229,-0.15128l0.25164,0.16129z" data-paper-data="{&quot;noHover&quot;:false,&quot;origItem&quot;:[&quot;Path&quot;,{&quot;applyMatrix&quot;:true,&quot;segments&quot;:[[255.10707,203.37715],[[254.85869,203.21667],[0,0],[-0.40587,0.05074]],[[253.64107,203.36888],[0.40587,-0.05074],[0,0]],[253.26903,203.41538],[[252.76676,203.31495],[0.23441,0.13391],[-0.36836,0.32054]],[[251.54854,204.08272],[0.44066,-0.19459],[0.55644,0.38128]],[[252.51374,205.53603],[-0.03061,-0.58473],[0.02258,0.43136]],[[252.14507,206.76342],[0.20582,-0.39646],[0.30089,0.16565]],[[252.51699,207.2961],[0,0],[0.27706,1.4315]],[[254.31731,211.46414],[-1.14509,-1.02773],[0.26194,-0.57627]],[[255.10312,209.73535],[-0.26194,0.57627],[-0.18893,-0.2802]],[[255.01057,209.10175],[0,0],[0.30927,-1.13066]],[[255.80602,205.70199],[-0.34536,1.11585],[0,0]],[255.79809,204.99676],[[256.40655,204.2565],[-0.60846,0.08787],[-0.00926,-0.03605]],[[256.38281,204.13038],[0.00566,0.04729],[-0.44603,-0.17826]],[[255.10708,203.37716],[0.43423,0.21958],[0,0]]],&quot;closed&quot;:true,&quot;fillColor&quot;:[0,0,0,1]}]}" fill="#2d2d2d" stroke-width="0.5"/><path d="M258.37039,214.31097c-0.0263,0.04878 -0.0661,0.10496 -0.09274,0.15236c-0.35871,-0.20514 -0.78261,-0.47932 -1.13456,-0.70111c0.58147,0.04251 1.17138,0.06508 1.24475,0.05829c0.2224,-0.02059 0.60554,-0.51429 0.60365,-0.29095c-0.00266,0.31469 -0.47171,0.50441 -0.62109,0.7814z" data-paper-data="{&quot;noHover&quot;:false,&quot;origItem&quot;:[&quot;Path&quot;,{&quot;applyMatrix&quot;:true,&quot;segments&quot;:[[[258.33811,214.27279],[0,0],[0.14938,-0.27699]],[[258.94609,213.55049],[-0.00266,0.31469],[0.00189,-0.22334]],[[258.34177,213.83992],[0.2224,-0.02059],[-0.07337,0.00679]],[[257.19205,213.7724],[0.58147,0.04251],[0.35195,0.22179]],[[258.25868,214.41707],[-0.35871,-0.20514],[0.02664,-0.0474]],[[258.3381,214.2728],[-0.0263,0.04878],[0,0]]],&quot;closed&quot;:true,&quot;fillColor&quot;:[0,0,0,1]}]}" fill="#2d2d2d" stroke-width="0.5"/><path d="M261.01994,215.5765c-0.20626,-0.02058 -0.41925,-0.041 -0.62551,-0.06159c-0.11142,-0.08585 -0.21546,-0.12411 -0.21546,-0.12411c-0.10572,-0.03878 -0.19857,-0.17899 -0.30416,-0.22223c0.49409,-0.88735 0.68964,-1.69333 0.31118,-2.39763c-0.46192,-0.85961 -3.7549,-0.31196 -4.5725,-0.55174c-0.01013,-0.00297 -0.02026,-0.00613 -0.03032,-0.00917c0.33929,-0.74644 0.67844,-1.51723 1.01773,-2.26366c0,0 0.21587,-0.47701 -0.09959,-0.81427c0.23465,-0.94466 0.40624,-1.91662 0.65009,-2.85586c0.53429,1.51601 1.21196,3.26259 2.0396,4.13805c1.39494,1.47554 3.95298,-0.03721 5.58091,0.73111c1.09122,0.51502 1.05462,3.09765 0.07051,3.76069c-1.0613,0.71505 -2.62331,0.67229 -3.82247,0.67042z" data-paper-data="{&quot;noHover&quot;:false,&quot;origItem&quot;:[&quot;Path&quot;,{&quot;applyMatrix&quot;:true,&quot;segments&quot;:[[[261.01531,215.52673],[0,0],[1.19916,0.00187]],[[264.80591,214.87192],[-1.0613,0.71505],[0.98411,-0.66304]],[[264.72197,211.14274],[1.09122,0.51502],[-1.62793,-0.76832]],[[259.14401,210.39718],[1.39494,1.47554],[-0.82764,-0.87546]],[[257.18112,206.31644],[0.53429,1.51601],[-0.24385,0.93924]],[[256.5471,209.15217],[0.23465,-0.94466],[0.31546,0.33726]],[[256.64946,209.95826],[0,0],[-0.33929,0.74643]],[[255.63159,212.19757],[0.33929,-0.74644],[0.01006,0.00304]],[[255.66187,212.20659],[-0.01013,-0.00297],[0.8176,0.23978]],[[260.19659,212.72208],[-0.46192,-0.85961],[0.37846,0.7043]],[[259.86654,215.21788],[0.49409,-0.88735],[0.10559,0.04324]],[[260.18352,215.34101],[-0.10572,-0.03878],[0,0]],[[260.39653,215.46496],[-0.11142,-0.08585],[0.20626,0.02059]],[[261.01531,215.52672],[-0.20626,-0.02058],[0,0]]],&quot;closed&quot;:true,&quot;fillColor&quot;:[0,0,0,1]}]}" fill="#2d2d2d" stroke-width="0.5"/><path d="M237.66475,217.65573c0,0 -0.02158,-0.11155 -0.0438,-0.13016c0.02116,-0.0602 0.04502,-0.12143 0.07358,-0.18398c0.40089,-0.878 1.15606,-1.70609 1.08909,-2.66896c-0.18082,-2.59968 -1.61947,-3.72868 -3.48865,-4.04862c0.21409,-0.64229 0.54951,-1.59285 0.66807,-1.94853c0,0 0.27344,-0.61834 -0.43807,-0.85551c-0.06037,-0.02012 -0.15638,-0.12545 -0.21007,-0.13293c0.06205,-0.10264 0.14045,-0.14385 0.14045,-0.31792c0,-0.75 -0.74641,-0.75152 -0.74641,-0.75152l-0.25223,0.01185c-0.62424,0.11729 -1.24336,0.19642 -1.87584,0.26011c0.00398,-0.16099 -0.05383,-0.34276 -0.23649,-0.52542c-0.53033,-0.53033 -1.0571,-0.00353 -1.0571,-0.00353l-0.17045,0.17666c-0.62422,0.50284 -1.30154,0.91861 -1.99448,1.32151c0,0 -0.14111,0.0811 -0.25333,0.23553c-0.17494,-0.14457 -0.45201,-0.32863 -0.65144,-0.47268c0,0 -0.51815,-0.39719 -0.95408,0.21311c-0.43593,0.6103 0.17582,1.04193 0.17582,1.04193c1.05378,0.74295 1.64538,1.47636 2.39491,2.46393c-1.35172,0.43995 -2.58937,0.98964 -3.48245,1.48237c0,0 -0.13948,0.07603 -0.25438,0.22317c-1.26838,0.63618 -1.72933,1.24992 -2.73978,2.50959c-1.45718,1.8166 -1.89209,3.84541 -1.51512,5.78895c-1.21713,-0.88434 -2.26013,-2.1227 -2.60684,-3.62448c-1.23514,-5.08442 0.41108,-8.61534 3.02222,-12.96848c1.84279,-3.07218 4.45262,-5.57331 8.07688,-3.44798c0,0 0.26855,0.15168 0.55836,0.0904c0.15488,0.09725 0.35924,0.28242 0.51235,0.38307c-0.11332,0.51349 0.346,0.69854 0.346,0.69854c0.8471,0.45018 1.6692,0.96391 2.43695,1.53906l0.0329,0.02442c0,0 0.60721,0.44688 1.05599,-0.15404c0.31875,-0.42681 0.12953,-0.67924 -0.01938,-0.84625c0.02834,-0.0584 0.02038,-0.19649 0.02038,-0.19649l0.09334,-0.42072c0.08264,-0.11936 0.16685,-0.239 0.24949,-0.35836c0.8521,1.27154 2.11101,2.47474 2.75197,2.57025c1.26307,0.18821 2.10522,-0.76743 2.84935,-1.52849c0.02086,-0.00617 0.04263,-0.01323 0.06455,-0.02154c1.25063,0.40304 2.77274,0.88261 4.31858,1.18802c-0.84569,1.33166 0.00456,3.17512 1.39528,4.05109c-0.0513,0.11303 -0.10219,0.22733 -0.15349,0.34036c-0.73155,-0.13598 -0.8713,0.59842 -0.8713,0.59842l-0.23999,1.32604c0.29694,1.99115 0.67806,3.9857 2.1111,5.45985c2.07733,1.56219 4.73576,3.2244 7.47667,2.81478c-4.80355,3.24187 -12.00468,6.05948 -15.46493,1.5761c-0.24309,-0.41783 -0.48813,-0.83507 -0.73122,-1.25289l-0.44817,-0.6249c0,0 -0.15204,-0.20728 -0.3979,-0.29252c-0.20427,-0.20427 -0.41262,-0.40798 -0.61689,-0.61225z" data-paper-data="{&quot;noHover&quot;:false,&quot;origItem&quot;:[&quot;Path&quot;,{&quot;applyMatrix&quot;:true,&quot;segments&quot;:[[[237.65981,217.60596],[0,0],[0.20427,0.20427]],[[238.27263,218.21878],[-0.20427,-0.20427],[0.24586,0.08524]],[238.66819,218.51178],[[239.11453,219.13714],[0,0],[0.24309,0.41782]],[[239.8438,220.39061],[-0.24309,-0.41783],[3.46025,4.48338]],[[255.27734,218.84378],[-4.80355,3.24187],[-2.74091,0.40962]],[[247.80088,216.02847],[2.07733,1.56219],[-1.43304,-1.47415]],[[245.68642,210.59357],[0.29694,1.99115],[0,0]],[245.92774,209.2744],[[246.79951,208.67764],[-0.73155,-0.13598],[0.0513,-0.11303]],[[246.95341,208.33856],[-0.0513,0.11303],[-1.39072,-0.87597]],[[245.56771,204.3043],[-0.84569,1.33166],[-1.54584,-0.30541]],[[241.26488,203.12846],[1.25063,0.40304],[-0.02192,0.00831]],[[241.20056,203.15011],[0.02086,-0.00617],[-0.74413,0.76106]],[[238.36395,204.6828],[1.26307,0.18821],[-0.64096,-0.09551]],[[235.6286,202.11283],[0.8521,1.27154],[-0.08264,0.11936]],[[235.38069,202.47092],[0.08264,-0.11936],[0,0]],[235.28827,202.89146],[[235.24759,202.99003],[0.02834,-0.0584],[0.14891,0.16701]],[[235.28855,203.93392],[0.31875,-0.42681],[-0.44878,0.60092]],[234.23885,204.08606],[[234.20608,204.06159],[0,0],[-0.76775,-0.57515]],[[231.77655,202.519],[0.8471,0.45018],[0,0]],[[231.38054,201.73386],[-0.11332,0.51349],[-0.15311,-0.10065]],[[230.91892,201.43696],[0.15488,0.09725],[-0.28981,0.06128]],[[230.36204,201.34563],[0,0],[-3.62426,-2.12533]],[[222.3032,204.7728],[1.84279,-3.07218],[-2.61114,4.35314]],[[219.28297,217.70406],[-1.23514,-5.08442],[0.34671,1.50178]],[[221.80032,221.37155],[-1.21713,-0.88434],[-0.37697,-1.94354]],[[223.30953,215.56946],[-1.45718,1.8166],[1.01045,-1.25967]],[[226.04779,213.0525],[-1.26838,0.63618],[0.1149,-0.14714]],[[226.30207,212.82846],[0,0],[0.89308,-0.49273]],[[229.78426,211.33854],[-1.35172,0.43995],[-0.74953,-0.98757]],[[227.39124,208.86289],[1.05378,0.74295],[0,0]],[[227.21687,207.81666],[-0.43593,0.6103],[0.43593,-0.6103]],[[228.2631,207.64229],[0,0],[0.19943,0.14405]],[[228.82311,208.07448],[-0.17494,-0.14457],[0.11222,-0.15443]],[[229.07718,207.83731],[0,0],[0.69294,-0.4029]],[[231.07885,206.50474],[-0.62422,0.50284],[0,0]],[231.25034,206.32691],[[232.311,206.32691],[-0.53033,-0.53033],[0.18266,0.18266]],[[232.54651,206.85323],[0.00398,-0.16099],[0.63248,-0.06369]],[[234.43357,206.58513],[-0.62424,0.11729],[0,0]],[234.68765,206.57236],[[235.43765,207.32236],[0,-0.75],[0,0.17407]],[[235.3352,207.73274],[0.06205,-0.10264],[0.05369,0.00748]],[[235.50621,207.77363],[-0.06037,-0.02012],[0.71151,0.23717]],[[235.98055,208.72232],[0,0],[-0.11856,0.35568]],[[235.33838,210.64882],[0.21409,-0.64229],[1.86918,0.31994]],[[238.8082,214.71617],[-0.18082,-2.59968],[0.06697,0.96287]],[[237.69996,217.39129],[0.40089,-0.878],[-0.02856,0.06255]],[[237.6256,217.57535],[0.02116,-0.0602],[0.02222,0.01861]],[237.65984,217.60597]],&quot;closed&quot;:true,&quot;fillColor&quot;:[0,0,0,1]}]}" fill="#2d2d2d" stroke-width="0.5"/><path d="M242.62352,223.87723c5.65257,1.43045 13.43659,-3.07491 17.08628,-6.67856c1.5389,2.49833 3.09047,5.01957 4.70739,7.46854c0.5479,0.82985 1.03572,1.71135 1.6441,2.49794c0.16989,0.21966 0.71037,0.33566 0.59257,0.58713c-0.21249,0.45362 -1.19326,0.33331 -1.25488,0.83043c-0.08636,0.69681 0.48835,1.34454 0.91584,1.90155c0.2036,0.26528 0.87368,0.12664 0.89138,0.46057c0.01542,0.29089 -0.58029,-0.08834 -0.87108,-0.07115c-0.47758,0.02824 -0.94746,0.13945 -1.4208,0.20895c-1.90163,0.27923 -3.34449,0.32519 -5.26053,0.03159c-1.69426,-0.25439 -3.11955,-1.07169 -2.45826,-3.10478c0.19305,-0.59352 1.85044,-1.21096 1.88397,-1.38267c0.17171,-0.87931 -2.71379,-2.72071 -3.26356,-3.23161l-0.16172,-0.1449c0.65415,-0.29281 1.39125,-0.62395 1.66006,-0.74428c0,0 0.68656,-0.30303 0.38014,-0.98758c-0.30642,-0.68455 -0.98791,-0.37391 -0.98791,-0.37391l-1.34947,0.60697c-0.45637,0.20428 -0.90972,0.41162 -1.36609,0.6159c0,0 -0.61315,0.23654 -0.30673,0.92109c0.02835,0.06333 0.06131,0.11979 0.09529,0.16718c-0.46019,1.50312 -0.27445,3.20349 -0.30065,4.79298c-0.01399,0.84865 0.62088,1.83199 0.17333,2.55316c-0.45097,0.72668 -1.66238,0.50028 -2.4567,0.81727c-2.48187,0.99045 -5.00231,1.9499 -7.50929,2.87516l-0.85634,0.31414c-0.24354,0.08356 -0.42796,0.28806 -0.48652,0.53803c-1.84906,-0.70262 -4.66624,-0.78204 -6.39671,-1.00102c-0.67435,-0.08533 -1.47744,0.35683 -2.04034,-0.02418c-0.78173,-0.52913 -0.32914,-3.22968 0.28026,-3.79643c2.42742,-2.25754 3.68913,-2.6994 6.49241,-1.5091l0.82762,0.34894c0,0 0.12279,0.05148 0.28708,0.0599c0.00137,0.02153 0.0026,0.04275 0.00394,0.06429c0,0 0.04438,0.74363 0.79294,0.69708c0.74856,-0.04655 0.61165,-0.75235 0.61165,-0.75235c-0.11184,-1.79178 -0.3511,-3.59844 -0.56812,-5.38011z" data-paper-data="{&quot;noHover&quot;:false,&quot;origItem&quot;:[&quot;Path&quot;,{&quot;applyMatrix&quot;:true,&quot;segments&quot;:[[[242.6821,224.06722],[0,0],[0.21702,1.78167]],[[243.24789,229.41328],[-0.11184,-1.79178],[0,0]],[[242.54588,230.20839],[0.74856,-0.04655],[-0.74856,0.04655]],[[241.75078,229.50639],[0,0],[-0.00134,-0.02154]],[[241.74672,229.44178],[0.00137,0.02153],[-0.16429,-0.00842]],[241.45936,229.3811],[[240.63083,229.0293],[0,0],[-2.80328,-1.1903]],[[234.23487,230.51202],[2.42742,-2.25754],[-0.6094,0.56675]],[[233.95116,234.29919],[-0.78173,-0.52913],[0.5629,0.38101]],[[235.99021,234.3209],[-0.67435,-0.08533],[1.73047,0.21898]],[[242.37638,235.30887],[-1.84906,-0.70262],[0.05856,-0.24997]],[[242.86287,234.77081],[-0.24354,0.08356],[0,0]],[[243.71764,234.45534],[0,0],[2.50698,-0.92526]],[[251.18763,231.56965],[-2.48187,0.99045],[0.79432,-0.31699]],[[253.6227,230.76137],[-0.45097,0.72668],[0.44755,-0.72117]],[[253.43656,228.22191],[-0.01399,0.84865],[0.0262,-1.58949]],[[253.74083,223.48734],[-0.46019,1.50312],[-0.03398,-0.04739]],[[253.64692,223.32177],[0.02835,0.06333],[-0.30642,-0.68455]],[[254.02504,222.3308],[0,0],[0.45637,-0.20428]],[[255.39414,221.71796],[-0.45637,0.20428],[0,0]],[256.74541,221.1131],[[257.73638,221.49123],[-0.30642,-0.68455],[0.30642,0.68455]],[[257.35825,222.4822],[0,0],[-0.26881,0.12033]],[[255.69766,223.22552],[0.65415,-0.29281],[0,0]],[[255.86018,223.37188],[0,0],[0.54977,0.5109]],[[259.12945,226.6288],[0.17171,-0.87931],[-0.03353,0.17171]],[[257.24398,228.02174],[0.19305,-0.59352],[-0.66129,2.03309]],[[259.60942,231.09114],[-1.69426,-0.25439],[1.91604,0.2936]],[[264.86683,231.06695],[-1.90163,0.27923],[0.47334,-0.0695]],[[266.28706,230.85985],[-0.47758,0.02824],[0.29079,-0.01719]],[[267.15801,230.93147],[0.01542,0.29089],[-0.0177,-0.33393]],[[266.26647,230.4715],[0.2036,0.26528],[-0.42749,-0.55701]],[[265.34955,228.57512],[-0.08636,0.69681],[0.06162,-0.49712]],[[266.60406,227.74776],[-0.21249,0.45362],[0.1178,-0.25147]],[[266.01137,227.16231],[0.16989,0.21966],[-0.60838,-0.78659]],[[264.36751,224.67287],[0.5479,0.82985],[-1.61692,-2.44897]],[[259.67389,217.23346],[1.5389,2.49833],[-3.64969,3.60365]],[[242.67128,223.89203],[5.65257,1.43045],[0,0]]],&quot;closed&quot;:true,&quot;fillColor&quot;:[0,0,0,1]}]}" fill="#1f1f1f" stroke-width="0.5"/><path d="M257.86318,232.21487c0.44744,0.15607 0.94362,0.26255 1.47165,0.34455c2.06286,0.31473 4.5662,0.49084 6.66727,-0.05779c0.1331,0.09482 0.26262,0.13401 0.26262,0.13401c0.48174,0.13392 0.96648,0.28038 1.44865,0.41274c0.44435,0.12199 0.9132,0.18142 1.33505,0.36679c3.07451,1.351 -0.98968,1.8938 -2.15136,2.01629c-2.11775,0.2233 -4.31366,-0.54708 -6.39212,-0.99036c-1.22427,-0.26111 -4.95182,-0.14794 -2.98772,-1.91656z" data-paper-data="{&quot;noHover&quot;:false,&quot;origItem&quot;:[&quot;Path&quot;,{&quot;applyMatrix&quot;:true,&quot;segments&quot;:[[[257.56606,232.53517],[0,0],[-1.9641,1.76862]],[[260.55398,234.43146],[-1.22427,-0.26111],[2.07846,0.44328]],[[266.85193,235.4099],[-2.11775,0.2233],[1.16168,-0.12249]],[[268.99855,233.41903],[3.07451,1.351],[-0.42185,-0.18537]],[[267.66424,233.05775],[0.44435,0.12199],[-0.48217,-0.13236]],[[266.21904,232.65601],[0.48174,0.13392],[0,0]],[[265.95826,232.5257],[0.1331,0.09482],[-2.10107,0.54863]],[[259.38268,232.5739],[2.06286,0.31473],[-0.52803,-0.082]],[[257.91126,232.22857],[0.44744,0.15607],[0,0]]],&quot;closed&quot;:true,&quot;fillColor&quot;:[0,0,0,1],&quot;strokeWidth&quot;:0.5}]}" fill="#151515" stroke-width="0.25"/><path d="M232.86652,235.36134c0.05509,0.04848 0.1125,0.09627 0.1725,0.14274c0.71985,0.55752 1.81578,0.16549 2.71902,0.28024c2.46006,0.31254 4.61722,0.82984 6.92542,0.75854l-0.0075,0.21264l1.51041,0.06529c0.02793,0.00139 0.05704,0.00188 0.08561,0.0001c0.20451,-0.01272 0.38728,-0.10415 0.51412,-0.24548c2.54842,0.87285 6.37662,1.86034 7.41116,3.54874c0.61221,0.99915 -1.43509,2.59569 -2.29209,2.86522c-3.26672,1.02739 -5.95779,0.49068 -9.08854,-0.70692c-2.36998,-0.88579 -8.30909,0.0364 -8.69552,-3.61858c-0.09313,-0.88087 0.43318,-2.25768 0.74542,-3.30252z" data-paper-data="{&quot;noHover&quot;:false,&quot;origItem&quot;:[&quot;Path&quot;,{&quot;applyMatrix&quot;:true,&quot;segments&quot;:[[[232.17095,238.66771],[-0.09313,-0.88087],[0.38643,3.65498]],[[240.83865,242.23755],[-2.36998,-0.88579],[3.13075,1.1976]],[[249.85975,242.96843],[-3.26672,1.02739],[0.857,-0.26953]],[[252.14737,240.12074],[0.61221,0.99915],[-1.03454,-1.6884]],[[244.75268,236.6126],[2.54842,0.87285],[-0.12684,0.14133]],[[244.24107,236.86019],[0.20451,-0.01272],[-0.02857,0.00178]],[[244.15627,236.86072],[0.02793,0.00139],[0,0]],[242.66741,236.80477],[[242.6754,236.59221],[0,0],[-2.3082,0.0713]],[[235.80153,235.80899],[2.46006,0.31254],[-0.90324,-0.11475]],[[233.08496,235.52382],[0.71985,0.55752],[-0.06,-0.04647]],[[232.91234,235.38136],[0.05509,0.04848],[-0.31224,1.04484]]],&quot;closed&quot;:true,&quot;fillColor&quot;:[0,0,0,1],&quot;strokeWidth&quot;:0.5}]}" fill="#151515" stroke-width="0.25"/><path d="M237.35401,214.78629c0.07598,0.73202 -0.69459,1.30625 -0.98077,1.98427c-0.3985,0.94416 0.00046,2.0961 -0.25866,3.08761c-0.31997,1.22438 -0.90357,0.69523 -1.68082,1.49267c-0.28072,0.28802 -1.2569,2.29249 -1.41205,2.60269c-1.06563,2.15234 -3.78629,2.70334 -6.15841,1.99927c-3.88113,-1.15197 -4.66336,-6.77125 -2.43664,-9.45605c1.04256,-1.25703 1.21376,-1.75911 2.72128,-2.35709l0.29064,-0.14267c0,0 0.20083,-0.09972 0.32851,-0.29665c2.98467,-1.47074 9.10409,-3.56642 9.58694,1.08596z" data-paper-data="{&quot;noHover&quot;:false,&quot;origItem&quot;:[&quot;Path&quot;,{&quot;applyMatrix&quot;:true,&quot;segments&quot;:[[[227.78819,213.74565],[2.98467,-1.47074],[-0.12768,0.19693]],[227.46292,214.04065],[[227.17466,214.18191],[0,0],[-1.50752,0.59798]],[[224.47238,216.51696],[1.04256,-1.25703],[-2.22672,2.6848]],[[226.88553,225.90801],[-3.88113,-1.15197],[2.37212,0.70407]],[[232.99715,223.90997],[-1.06563,2.15234],[0.15515,-0.3102]],[[234.38986,221.32689],[-0.28072,0.28802],[0.77725,-0.79744]],[[236.06501,219.85158],[-0.31997,1.22438],[0.25912,-0.99151]],[[236.32648,216.78828],[-0.3985,0.94416],[0.28618,-0.67802]],[[237.31126,214.81223],[0.07598,0.73202],[-0.48285,-4.65238]]],&quot;closed&quot;:true,&quot;fillColor&quot;:[0,0,0,1],&quot;strokeWidth&quot;:0.5}]}" fill="#151515" stroke-width="0.25"/><path d="M265.17445,216.03385c1.48784,-0.82039 2.437,-2.22146 1.75017,-4.18328c0.9166,-0.66798 2.51925,-1.85427 3.50708,-1.63776c0.59231,0.12982 -0.0799,1.21327 -0.07841,1.81965c0.00205,0.83221 0.17298,2.3823 -0.99035,1.6506l-0.10624,-0.77576c0,0 -0.14395,-0.73568 -0.87609,-0.57298c-0.73214,0.1627 -0.55104,0.88214 -0.55104,0.88214l0.36543,1.28375c1.91051,1.19176 2.95454,0.7856 3.3887,-0.72166c0.04601,-0.00418 0.1693,-0.04 0.1693,-0.04c3.92126,-1.06153 -0.55046,4.46112 -2.50038,5.00466c-1.08286,0.30185 -1.94082,-0.04969 -1.74557,-1.32914l0.78914,-0.58449c0,0 0.55444,-0.36139 0.10444,-0.96139c-0.45,-0.6 -1.06595,-0.16602 -1.06595,-0.16602l-1.03245,0.84521c-0.02649,0.13 -0.12839,0.31743 -0.14536,0.4428c-0.31141,-0.1923 -0.60192,-0.43842 -0.82914,-0.71689z" data-paper-data="{&quot;noHover&quot;:false,&quot;origItem&quot;:[&quot;Path&quot;,{&quot;applyMatrix&quot;:true,&quot;segments&quot;:[[[265.37334,216.25284],[0,0],[0.22722,0.27847]],[[266.19589,216.95894],[-0.31141,-0.1923],[0.01697,-0.12537]],[[266.26106,216.57578],[-0.02649,0.13],[0,0]],[267.37716,215.67582],[[268.42716,215.82582],[-0.45,-0.6],[0.45,0.6]],[268.27716,216.87582],[[267.53279,217.37121],[0,0],[-0.19525,1.27945]],[[269.25256,218.69321],[-1.08286,0.30185],[1.94992,-0.54354]],[[271.70523,213.75336],[3.92126,-1.06153],[0,0]],[[271.63137,213.76351],[0.04601,-0.00418],[-0.43416,1.50726]],[[268.14499,214.4995],[1.91051,1.19176],[0,0]],[267.79268,213.1827],[[268.36212,212.28786],[-0.73214,0.1627],[0.73214,-0.1627]],[269.25696,212.8573],[[269.36977,213.63353],[0,0],[1.16333,0.7317]],[[270.33296,212.07814],[0.00205,0.83221],[-0.00149,-0.60638]],[[270.41844,210.26102],[0.59231,0.12982],[-0.98783,-0.21651]],[[266.95748,211.88826],[0.9166,-0.66798],[0.68683,1.96182]],[[265.2213,216.01639],[1.48784,-0.82039],[0,0]]],&quot;closed&quot;:true,&quot;fillColor&quot;:[0,0,0,1],&quot;strokeWidth&quot;:0.5}]}" fill="#151515" stroke-width="0.25"/><path d="M243.32615,199.67639c2.7676,-1.46561 5.638,-1.87111 8.15851,0.8121c-2.75241,0.30941 -5.52223,-0.13111 -8.15851,-0.8121z" data-paper-data="{&quot;noHover&quot;:false,&quot;origItem&quot;:[&quot;Path&quot;,{&quot;applyMatrix&quot;:true,&quot;segments&quot;:[[[251.43593,200.47726],[-2.75241,0.30941],[-2.52051,-2.68321]],[[243.37612,199.67482],[2.7676,-1.46561],[2.63628,0.68099]]],&quot;closed&quot;:true,&quot;fillColor&quot;:[0,0,0,1],&quot;strokeWidth&quot;:0.5}]}" fill="#151515" stroke-width="0.25"/><path d="M248.40113,208.6647c0.48692,-0.06535 1.20875,-0.18915 1.75656,-0.28053c0.13864,0.00971 0.26939,-0.02599 0.36054,-0.06156c0.22409,-0.03792 0.38984,-0.06724 0.44089,-0.07575c0,0 0.09441,-0.01599 0.20825,-0.06839c0.41533,1.8266 1.21334,3.803 2.82372,4.87057c-0.00292,0.03089 -0.0051,0.06603 -0.0051,0.09991c0,0.56355 0.41952,0.71392 0.63006,0.74875c0.91589,0.57064 1.86535,1.2055 2.83734,1.76849c-2.32473,2.67699 -5.63377,1.55752 -8.71226,-0.74465c-1.01751,-0.97314 -1.33171,-2.64562 -1.55713,-4.03751c0.1352,-0.10909 0.20775,-0.23666 0.20775,-0.23666l0.51166,-0.89595c0.16366,-0.35954 0.33407,-0.72717 0.49773,-1.08671z" data-paper-data="{&quot;noHover&quot;:false,&quot;origItem&quot;:[&quot;Path&quot;,{&quot;applyMatrix&quot;:true,&quot;segments&quot;:[[[247.94493,209.77925],[0.16366,-0.35954],[0,0]],[247.43786,210.66668],[[247.2311,210.90079],[0.1352,-0.10909],[0.22542,1.39189]],[[248.78368,214.89528],[-1.01751,-0.97314],[3.07849,2.30217]],[[257.41005,215.64125],[-2.32473,2.67699],[-0.97199,-0.56298]],[[254.57162,213.87477],[0.91589,0.57064],[-0.21054,-0.03483]],[[253.93762,213.13629],[0,0.56355],[0,-0.03388]],[[253.94208,213.03918],[-0.00292,0.03089],[-1.61038,-1.06757]],[[251.1797,208.22693],[0.41533,1.8266],[-0.11383,0.0524]],[[250.97371,208.29469],[0,0],[-0.05105,0.00851]],[[250.53723,208.36886],[0.22409,-0.03792],[-0.09115,0.03557]],[[250.18005,208.4289],[0.13864,0.00971],[-0.54781,0.09139]],[[248.43591,208.70062],[0.48692,-0.06535],[-0.16366,0.35954]]],&quot;closed&quot;:true}]}" fill="#ff0000" stroke-width="0.5"/><path d="M249.26814,207.10724c-1.11442,0.21318 -4.01998,-1.78797 -2.01474,-2.42619c0.15704,-0.04998 0.34444,-0.0939 0.5341,-0.1135c0.3332,0.02074 0.6968,0.01959 1.02163,0.01236c1.25158,0.16868 2.5004,0.92303 1.85351,2.02828l-0.5621,0.34482c-0.27184,0.04335 -0.56206,0.10251 -0.8324,0.15422z" data-paper-data="{&quot;noHover&quot;:false,&quot;origItem&quot;:[&quot;Path&quot;,{&quot;applyMatrix&quot;:true,&quot;segments&quot;:[[[250.06132,206.92203],[-0.27184,0.04335],[0,0]],[[250.61605,206.59008],[0,0],[0.64689,-1.10524]],[[248.80467,204.62972],[1.25158,0.16868],[-0.32483,0.00723]],[[247.81651,204.60829],[0.3332,0.02074],[-0.18966,0.0196]],[[247.29234,204.71243],[0.15704,-0.04998],[-2.00525,0.63822]],[[249.24752,207.0617],[-1.11442,0.21318],[0.27034,-0.05172]]],&quot;closed&quot;:true}]}" fill="#ff0000" stroke-width="0.5"/><path d="M231.92607,158.31345c-3.5586,4.41024 -8.83345,6.35032 -14.0783,7.8492c0.08873,0.10866 0.17887,0.21627 0.27088,0.32274c0.02192,-0.01648 0.60305,-0.44478 1.05095,0.13893c0.13275,0.173 0.1766,0.33431 0.17203,0.47608c5.57821,-0.6875 9.79468,-2.4563 12.71256,-7.72819l0.00507,-0.22917c-0.03084,-0.29191 -0.06018,-0.59382 -0.09181,-0.9018zM215.78498,165.95947c-0.00303,-0.01097 -0.00585,-0.02182 -0.00846,-0.03255c-0.17346,-0.23369 -0.34731,-0.47062 -0.52466,-0.71044c-0.87675,-1.18556 -1.92121,-2.77197 -2.1745,-4.26955c-1.11,-6.56307 6.72907,-9.4824 11.55611,-11.11736c1.26316,0.11166 3.67506,-0.04731 4.82175,0.50471c3.18152,1.53159 3.71512,5.09014 4.0441,8.18392c0.85602,-0.22317 2.65499,-0.6865 2.79807,-0.65463c1.79356,0.39951 2.29412,1.67522 2.18931,3.10716c5.26698,-1.52829 10.84053,-2.20276 16.47604,-2.69741c3.43753,-0.30173 9.28097,-1.83549 12.49517,-0.41469c5.79374,2.56106 6.2078,10.52108 6.35121,15.88848c0.12798,4.81103 0.44645,9.70039 0.06365,14.50277c-0.14503,1.81948 -0.14722,3.82386 -1.48804,5.26798c-2.35515,2.5366 -6.33978,3.46765 -9.45651,4.72065c-7.5108,1.41551 -14.92047,2.1685 -22.57421,2.01672c-2.98644,-0.05923 -6.12146,-0.02058 -8.25428,-2.28105c-1.26487,-1.39948 -2.20447,-2.95193 -3.21125,-4.54261l-0.40676,-1.14027c0,0 -0.11484,-0.32619 0.03293,-0.61357c-1.16023,-1.99819 -2.25511,-4.14492 -3.19582,-6.35339c-0.12166,-0.10451 -0.18588,-0.21662 -0.18588,-0.21662l-0.01713,-0.0299c-1.31647,-2.3085 -1.80724,-4.92973 -3.03455,-7.27623c-0.4592,-0.88142 -1.16537,-1.92462 -1.70218,-3.00594c-3.55705,-0.46948 -6.22354,-3.89682 -3.36963,-7.30657c-0.29448,-0.33943 -0.57243,-0.68883 -0.84574,-1.04685c-0.15597,-0.07093 -0.30397,-0.21224 -0.37872,-0.48276zM236.891,165.25604c-2.67366,4.06442 -8.23549,8.23294 -12.97527,9.44813c-0.3723,0.09348 -0.7446,0.18697 -1.1169,0.28045l-0.66285,0.01301c0,0 -0.00139,-0.00003 -0.00403,-0.00014c0.47031,0.79583 0.98753,1.55044 1.27959,2.11105c0.93796,1.80684 1.43891,3.78106 2.22742,5.63934c0.07679,-0.02586 0.15363,-0.05384 0.23052,-0.08388c1.28624,3.45923 3.02571,6.83677 4.86152,9.79026c0,0 0.33252,0.53497 -0.10218,0.92912c0.79986,1.25011 1.57119,2.47254 2.58204,3.58315c1.02708,1.19515 2.62375,1.61908 4.30929,1.76163c-1.00655,-4.68307 -2.22418,-9.40244 -2.74595,-14.15975c-0.20845,-1.90058 -0.7372,-4.49327 0.03694,-6.33802c0.85076,-2.02731 3.05816,-3.15054 4.82447,-4.17346c8.92731,-5.17007 20.67764,-5.63187 30.75399,-6.66806c0.35326,-0.03633 0.70653,-0.07266 1.05979,-0.10898l0.36603,0.00407c-0.57561,-3.39283 -1.87967,-6.6227 -4.97434,-8.05803c-0.87934,-0.40784 -2.60494,-0.09351 -3.48808,-0.04353c-2.75922,0.15614 -5.50615,0.34354 -8.2591,0.58517c-5.80588,0.50961 -11.55466,1.19745 -16.95139,2.86431c-0.32694,1.01565 -0.82342,1.97341 -1.2515,2.62416z" fill="#000000" stroke-width="0.5"/><path d="M236.86126,165.21585c0.42808,-0.65075 0.93043,-1.61225 1.25737,-2.6279c5.39673,-1.66686 11.18895,-2.35679 16.99483,-2.8664c2.75295,-0.24163 5.5123,-0.42145 8.27152,-0.57759c0.88314,-0.04998 2.61232,-0.36103 3.49166,0.04681c3.09467,1.43533 4.40849,4.67922 4.9841,8.07205l-0.45653,0.03847c-0.35326,0.03632 -0.70623,0.07326 -1.05949,0.10959c-10.07635,1.03619 -21.73999,1.50341 -30.6673,6.67348c-1.76631,1.02292 -3.96558,2.12135 -4.81634,4.14866c-0.77414,1.84475 -0.25001,4.41365 -0.04156,6.31423c0.52177,4.75731 1.71559,9.45268 2.72214,14.13575c-1.68554,-0.14255 -3.33398,-0.48154 -4.36106,-1.67669c-1.01085,-1.11061 -1.7893,-2.33964 -2.58916,-3.58975c0.4347,-0.39415 0.10121,-0.93024 0.10121,-0.93024c-1.83581,-2.95349 -3.58613,-6.35426 -4.87237,-9.81349c-0.07689,0.03004 -0.15371,0.05811 -0.2305,0.08397c-0.78851,-1.85828 -1.29012,-3.84517 -2.22808,-5.65201c-0.29206,-0.56061 -0.80882,-1.31919 -1.27913,-2.11502c0.00264,0.00011 0.00403,0.00014 0.00403,0.00014l0.66289,-0.01324c0.3723,-0.09348 0.74476,-0.18793 1.11706,-0.28141c4.73978,-1.21519 10.32106,-5.415 12.99472,-9.47942z" data-paper-data="{&quot;noHover&quot;:false,&quot;origItem&quot;:[&quot;Path&quot;,{&quot;applyMatrix&quot;:true,&quot;segments&quot;:[[[236.891,165.25604],[0,0],[-2.67366,4.06442]],[[223.91573,174.70417],[4.73978,-1.21519],[-0.3723,0.09348]],[[222.79883,174.98462],[0.3723,-0.09348],[0,0]],[222.13598,174.99763],[[222.13195,174.99749],[0.00264,0.00011],[0.47031,0.79583]],[[223.41154,177.10854],[-0.29206,-0.56061],[0.93796,1.80684]],[[225.63896,182.74788],[-0.78851,-1.85828],[0.07679,-0.02586]],[[225.86948,182.664],[-0.07689,0.03004],[1.28624,3.45923]],[[230.731,192.45426],[-1.83581,-2.95349],[0,0]],[[230.62882,193.38338],[0.4347,-0.39415],[0.79986,1.25011]],[[233.21086,196.96653],[-1.01085,-1.11061],[1.02708,1.19515]],[[237.52015,198.72816],[-1.68554,-0.14255],[-1.00655,-4.68307]],[[234.7742,184.56841],[0.52177,4.75731],[-0.20845,-1.90058]],[[234.81114,178.23039],[-0.77414,1.84475],[0.85076,-2.02731]],[[239.63561,174.05693],[-1.76631,1.02292],[8.92731,-5.17007]],[[270.3896,167.38887],[-10.07635,1.03619],[0.35326,-0.03633]],[[271.44939,167.27989],[-0.35326,0.03632],[0,0]],[[271.81542,167.28396],[0,0],[-0.57561,-3.39283]],[[266.84108,159.22593],[3.09467,1.43533],[-0.87934,-0.40784]],[[263.353,159.1824],[0.88314,-0.04998],[-2.75922,0.15614]],[[255.0939,159.76757],[2.75295,-0.24163],[-5.80588,0.50961]],[[238.14251,162.63188],[5.39673,-1.66686],[-0.32694,1.01565]],[[236.89101,165.25604],[0.42808,-0.65075],[0,0]]],&quot;closed&quot;:true,&quot;fillColor&quot;:[0,0,0,1],&quot;strokeWidth&quot;:0.5}]}" fill="#151515" stroke-width="0.25"/><path d="M232.00973,158.21454c0.03162,0.30798 0.06348,0.61435 0.09432,0.90626l-0.00451,0.23034c-2.91788,5.2719 -7.21894,7.09274 -12.79715,7.78024c0.00458,-0.14178 -0.04131,-0.30584 -0.17406,-0.47885c-0.44789,-0.58371 -1.03141,-0.15926 -1.05333,-0.14278c-0.09201,-0.10647 -0.09362,-0.2605 -0.18235,-0.36916c5.24485,-1.49888 10.43242,-3.39041 13.99102,-7.80065z" data-paper-data="{&quot;noHover&quot;:false,&quot;origItem&quot;:[&quot;Path&quot;,{&quot;applyMatrix&quot;:true,&quot;segments&quot;:[[[231.92607,158.31345],[0,0],[-3.5586,4.41024]],[[217.84777,166.16265],[5.24485,-1.49888],[0.08873,0.10866]],[[218.11865,166.48539],[-0.09201,-0.10647],[0.02192,-0.01648]],[[219.1696,166.62432],[-0.44789,-0.58371],[0.13275,0.173]],[[219.34163,167.1004],[0.00458,-0.14178],[5.57821,-0.6875]],[[232.05419,159.37221],[-2.91788,5.2719],[0,0]],[[232.05926,159.14303],[0,0],[-0.03084,-0.29191]],[[231.96745,158.24124],[0.03162,0.30798],[0,0]]],&quot;closed&quot;:true}]}" fill="#ff0000" stroke-width="0.5"/><path d="M264.27694,195.06542c-0.19521,-0.03291 -0.33021,-0.10866 -0.42318,-0.20234c-2.38908,1.03308 -5.20269,1.55895 -7.55822,2.20133l-1.28047,0.46629c0,0 -0.32749,0.11909 -0.61718,-0.02831c-0.26198,0.05822 -0.52397,0.11644 -0.78595,0.17466l-0.51984,0.01786c0,0 -0.02247,0 -0.05962,-0.00389c-0.14101,0.03543 -0.3123,0.0255 -0.51388,-0.07529c-0.67082,-0.33541 -0.33541,-1.00623 -0.33541,-1.00623c1.95331,-3.90365 4.05704,-8.31957 6.41898,-11.93241c0.48918,-0.74825 2.03262,-3.85879 2.85875,-4.07187c2.65794,-0.68557 4.9569,5.68975 5.93935,7.4454c0.32303,0.57726 1.78196,2.6103 1.4012,3.42354c-0.14798,0.31606 -2.28557,1.83899 -2.68902,2.13206c-0.29518,0.21442 -0.60619,0.41312 -0.93019,0.59812l-0.04106,0.24621c0,0 -0.12469,0.73956 -0.86425,0.61488zM261.35203,194.17267c0.52609,-0.56656 1.05223,-1.13306 1.57925,-1.69875l0.0402,-0.0222l-0.0067,-0.00792l1.14163,-0.96599c0.13116,-0.11245 0.3016,-0.18038 0.48791,-0.18038c0.41421,0 0.75,0.33579 0.75,0.75c0,0.01186 -0.00028,0.02366 -0.00082,0.03539l-0.02198,0.53786c0.79642,-0.45858 1.50136,-0.99499 2.06122,-1.63359c0.56132,-0.64028 -0.87565,-1.46091 -1.29146,-2.20397c-0.97622,-1.74451 -1.98147,-3.47627 -2.93001,-5.23594c-0.30988,-0.57487 -0.66187,-1.80668 -1.24505,-1.51274c-0.51166,0.2579 -1.69391,2.90928 -2.05974,3.46525c-2.08462,3.16811 -3.95942,6.99802 -5.70537,10.52094c0.06895,-0.01532 0.13791,-0.03065 0.20686,-0.04597c0,0 0.22872,-0.05083 0.45889,0.03217l1.02418,-0.37192c1.56781,-0.42977 3.53451,-0.82682 5.45638,-1.39269c0.0313,-0.04446 0.05461,-0.06957 0.05461,-0.06957z" fill="#ff0000" stroke-width="0.5"/><path d="M258.65162,192.183c0,-0.41421 0.33579,-0.75 0.75,-0.75c0.41421,0 0.75,0.33579 0.75,0.75c0,0.41421 -0.33579,0.75 -0.75,0.75c-0.41421,0 -0.75,-0.33579 -0.75,-0.75z" fill="#ff0000" stroke-width="0.5"/><path d="M264.12782,189.44491c0,-0.41421 0.33579,-0.75 0.75,-0.75c0.41421,0 0.75,0.33579 0.75,0.75c0,0.41421 -0.33579,0.75 -0.75,0.75c-0.41421,0 -0.75,-0.33579 -0.75,-0.75z" fill="#ff0000" stroke-width="0.5"/></g></g></svg>