<svg version="1.1" xmlns="http://www.w3.org/2000/svg" xmlns:xlink="http://www.w3.org/1999/xlink" width="74.68265" height="103.28445" viewBox="0,0,74.68265,103.28445"><g transform="translate(-222.19345,-134.6656)"><g data-paper-data="{&quot;isPaintingLayer&quot;:true}" fill-rule="nonzero" stroke="none" stroke-linecap="butt" stroke-linejoin="miter" stroke-miterlimit="10" stroke-dasharray="" stroke-dashoffset="0" style="mix-blend-mode: normal"><path d="M230.48031,165.88157l7.72715,-17.63055l14.17601,-12.36687l20.35227,-0.80036l12.25058,38.87263l-15.52687,23.06571l19.1489,-1.04054l8.26776,9.26582l-15.49577,15.599l-25.34935,4.09302l6.87222,11.21438l-18.58926,1.79623l-6.91105,-16.3384l-14.09021,-4.87063l-1.11923,-33.06244l17.11571,-9.35968z" fill="#ffffff" stroke-width="0"/><path d="M257.23866,142.54971c0,1.09154 -0.68083,1.50224 -1.19317,1.65678c-3.76885,5.63069 -6.57044,12.27978 -8.19864,18.8049c-0.57759,2.8697 -0.71648,6.24604 -0.25896,9.53503c3.06834,0.61453 6.14328,1.18147 9.19999,1.86004c0,0 1.70833,0.37963 1.3287,2.08796c-0.37963,1.70833 -2.08795,1.3287 -2.08795,1.3287c-2.53794,-0.56458 -5.08892,-1.05101 -7.6383,-1.55133c0.619,2.06352 1.52292,3.99001 2.7568,5.60986c1.77071,-1.05641 3.54216,-2.11214 5.39809,-3.04068c0,0 1.56525,-0.78262 2.34787,0.78263c0.78263,1.56525 -0.78262,2.34787 -0.78262,2.34787c-1.5064,0.75271 -2.95717,1.58958 -4.3971,2.443c0.99046,0.71993 2.11058,1.29171 3.37022,1.67817c2.75233,0.84442 5.91394,1.09052 8.77746,0.57447c-0.11389,-0.06146 -0.22614,-0.12526 -0.33657,-0.19134c-0.39029,-0.82683 -0.96172,-1.59043 -1.17086,-2.48051c-0.85858,-3.65399 1.62683,-11.75491 6.07974,-12.37426c2.75309,-0.38293 3.28183,2.3155 5.34992,2.74494c0.49232,0.10223 2.42953,-2.63148 1.95807,-2.96187c-1.77645,-1.24489 -3.96156,-2.10414 -5.99157,-2.84056c0,0 -0.88519,-0.32189 -1.1206,-1.14279c-0.49115,-0.51802 -0.49115,-1.26818 -0.49115,-1.26818v-0.30653c0,-0.31709 -0.00895,-0.62805 -0.02608,-0.93349c-0.35571,0.09491 -0.65354,0.07309 -0.66769,0.07199c-0.51252,0.61907 -1.38785,0.61906 -1.38785,0.61906c-0.81741,0 -1.63483,0 -2.45225,0h-2.14571c-0.9665,0 -1.75,-0.7835 -1.75,-1.75c0,-0.79859 0.53491,-1.47223 1.26598,-1.6822l2.41428,-0.75447l0.13087,0.41877c0.74251,-0.30002 1.51041,-0.49016 2.30302,-0.49691l1.74464,0.144c-0.33922,-1.31911 -0.79759,-2.56749 -1.28527,-3.81741c-0.89863,-0.55507 -0.73185,-1.72252 -0.73185,-1.72252l0.0142,-0.09938c-0.58374,-1.4956 -1.14785,-3.04194 -1.54504,-4.75754c-0.28243,-3.85188 -0.73514,-9.63246 -2.95557,-12.89766c-0.67579,-0.99375 -2.01199,0.9543 -2.04266,0.98115c-1.25256,1.09695 -2.70638,2.06617 -3.78245,3.3636c0.00004,0.00555 0.00005,0.01112 0.00005,0.01671zM252.21237,143.18004c-1.31195,0.43827 -2.12645,1.78092 -3.28979,2.5292c-1.79165,1.15242 -4.09485,2.88104 -6.04288,3.71835c-0.42319,0.18189 -1.01191,-0.14089 -1.37442,0.1433c-0.21093,0.16536 0.55554,0.15856 0.7098,0.37773c0.37289,0.52981 0.56911,1.16588 0.80209,1.77042c0.90752,2.35477 1.69548,4.63835 2.39463,7.01264c1.67313,-5.43671 4.07371,-10.84769 7.14365,-15.60348c-0.11403,-0.00222 -0.22839,0.01354 -0.34308,0.05185zM239.75937,152.99834c-0.39467,-1.02831 -1.92545,-3.70787 -1.55341,-4.59552c0.45589,-1.08772 1.94164,-1.33939 2.91701,-2.00242c1.92237,-1.30677 3.96211,-2.38576 5.9118,-3.63838c0.45535,-0.29255 3.91667,-2.88235 4.37347,-2.98835c1.07935,-0.25047 2.14542,0.06995 3.14545,0.4957c2.40938,-3.08461 7.15285,-7.53043 10.83217,-4.69983c1.27271,0.97913 2.27476,4.71614 2.84336,7.02047l0.5899,-1.03232c0.29709,-0.543 0.87368,-0.91126 1.53628,-0.91126c0.82369,0 1.51446,0.56907 1.70062,1.33549l0.60335,2.26258l-0.03427,0.00914c0.02738,0.07092 0.05359,0.14236 0.07853,0.21438c0.97015,2.80268 -0.9217,7.56542 -1.47596,10.55062c0.42291,0.86755 0.8506,1.74185 1.21643,2.67772c1.03703,2.65291 1.1839,5.05737 1.19342,7.82618c3.07979,1.09894 8.05589,2.89316 7.80667,6.64441c-0.06257,0.94182 -0.85361,1.68771 -1.36593,2.48047c-0.46779,0.72385 -0.86942,1.5501 -1.56642,2.05702c-2.49752,1.81641 -3.04961,1.31454 -5.41368,-0.03036c-0.78709,-0.44777 -1.31342,-1.72553 -2.20767,-1.58307c-0.77755,0.12387 -1.09707,1.14529 -1.51325,1.81366c-1.27107,2.04133 -2.17574,4.93843 -1.24114,7.24095c0.49694,0.30141 1.14614,0.30735 1.72926,0.23974l1.62002,-0.675c0.21678,-0.09621 0.45674,-0.14967 0.7092,-0.14967c0.9665,0 1.75,0.7835 1.75,1.75c0,0.38109 -0.12181,0.73374 -0.32863,1.02113l-1.06056,1.51509l-0.07564,-0.05295c-0.08276,0.14831 -0.17539,0.29137 -0.28007,0.42798c-0.37938,0.49511 -4.18488,1.55913 -4.83127,1.70795c-1.28794,0.29653 -2.82442,0.47069 -4.46268,0.49468c-0.01886,0.31031 -0.0982,0.53247 -0.0982,0.53247c-0.40433,1.12979 -0.83656,2.25102 -1.31452,3.35186c0.78529,0.0596 1.53047,0.20884 2.04683,0.37268c4.55023,1.44373 8.3608,5.09177 12.76288,6.97359c1.66338,0.83318 3.1962,1.81079 4.86966,2.60109c0.07685,-0.11688 0.13626,-0.18372 0.13626,-0.18372c1.52071,-1.71067 2.99922,-4.13112 4.95232,-5.36248c4.00198,-2.52308 8.19641,-0.60046 7.91233,4.31553c-0.11113,1.92301 -0.79693,3.77439 -1.75757,5.53557c0.58775,0.28218 0.99353,0.88295 0.99353,1.5785c0,0.23567 -0.04659,0.46045 -0.13105,0.66565l-0.75193,1.95501l-0.35116,-0.13506c-0.54208,1.42218 -1.52139,2.04482 -4.05598,2.99067l-0.16111,0.21516c0,0 -0.42853,0.32139 -0.98923,0.37147c-0.95195,1.32876 -1.80069,2.66564 -3.76991,2.88628c-1.76755,0.19804 -4.89268,-2.18748 -6.40898,-3.01719c-5.85242,-4.08635 -12.12645,-8.49147 -17.17749,-13.58703c-0.38961,-0.39305 -0.79474,-0.8187 -1.17175,-1.26901c-1.32886,3.78726 -2.52625,7.61383 -3.91863,11.37688c-1.0891,2.94338 -2.74935,6.93094 -2.49828,10.15159c0.31745,4.07227 5.74023,7.30341 5.04663,11.53365c-0.17408,1.06168 -1.11917,1.83775 -1.67875,2.75662c-6.8356,1.3496 -9.91025,-3.0769 -13.45589,-8.28199c-1.33795,-1.96415 -2.86151,-4.0329 -3.05652,-6.4985c-0.0733,-0.92679 -0.03842,-1.91545 0.07858,-2.92872c-1.4121,0.31845 -2.57461,-0.53204 -3.66883,-3.25129c-0.13765,-0.34209 0.48375,-0.7621 0.28083,-1.06999c-0.15868,-0.24077 -0.27308,0.56889 -0.54128,0.6748c-0.74854,0.29557 -1.57584,0.32856 -2.36742,0.47376c-1.8733,0.34361 -5.36285,0.91011 -7.12211,0.0461c-5.19866,-2.55318 -1.60367,-6.09897 1.65906,-7.69367c-2.55659,-1.93966 -4.31389,-4.60818 -1.82367,-7.81258c1.59146,-2.04789 5.80265,-2.87987 8.0741,-3.94157c1.23515,-0.57733 2.47955,-1.14865 3.7318,-1.71133c-1.03748,-0.85988 -2.33467,-1.41755 -3.92376,-1.54903c-1.29601,-0.10723 -4.37695,0.22364 -5.53527,-0.26677c-4.89096,-2.07076 -3.23712,-7.19422 -1.30969,-10.5757c1.79769,-1.484 2.41625,-2.33522 4.81586,-2.88304c4.83137,-1.10298 10.16933,2.19499 13.09447,6.46332c0.2295,-0.53146 0.6936,-0.84087 0.6936,-0.84087l0.6479,-0.41569c0.85004,-0.42471 1.68238,-0.87625 2.50505,-1.34246c-0.20638,-0.51535 -0.40121,-1.03768 -0.63481,-1.5356c-1.06749,-2.27537 -1.93353,-4.4042 -2.55876,-6.50902c-0.0951,-0.01985 -0.19019,-0.03978 -0.28527,-0.05978l-2.00893,-0.46352c0,0 -1.70519,-0.3935 -1.31168,-2.09869c0.39351,-1.70519 2.09869,-1.31168 2.09869,-1.31168l0.65123,0.15032c-0.35485,-2.33209 -0.38976,-4.72391 -0.05234,-7.33855c-2.61103,0.75798 -5.10168,1.28463 -7.88933,1.29424h-1.83918c-0.9665,0 -1.75,-0.7835 -1.75,-1.75c0,-0.62817 0.33097,-1.17904 0.82804,-1.48773l2.12134,-1.36372l0.02358,0.03667c0.08112,-0.06224 0.16416,-0.12228 0.24933,-0.17985c1.33203,-0.90046 4.01523,-1.21316 6.20244,-1.43231c-0.66028,-2.22527 -1.40196,-4.36303 -2.25344,-6.58156zM247.5695,200.114c0.06213,0.49737 0.02449,0.96967 -0.00869,1.39667c0.43663,0.62331 0.70973,1.2666 0.8466,1.91367c0.00393,0.00124 0.00788,0.00247 0.01185,0.0037c0,0 1.50061,0.90037 0.60025,2.40098c-0.27747,0.46245 -0.61194,0.69687 -0.94193,0.7999c-0.58461,1.47911 -1.69449,2.82263 -2.94876,3.80403c-0.00809,0.32727 -0.08788,0.56665 -0.08788,0.56665l-0.37358,1.09035c-1.2854,2.79619 -3.22525,8.16595 -1.95367,11.21165c1.04017,2.49144 3.00257,4.8033 4.64944,6.90852c1.74207,2.22691 3.06901,3.95448 6.07689,3.91891c0.4165,-0.80137 -0.79565,-2.4172 -1.15602,-3.04225c-1.46237,-2.53648 -3.50328,-5.04505 -3.75243,-8.1095c-0.30261,-3.72194 1.45634,-8.22312 2.71274,-11.61207c1.72986,-4.66605 3.15478,-9.43444 4.90479,-14.10122c0,0 0.31033,-0.82755 1.07801,-1.08589c0.1764,-0.31295 0.41423,-0.62522 0.72266,-0.93515c-0.59881,-0.91228 -0.02142,-1.76022 0.20453,-2.03462c0.16085,-0.36082 0.31588,-0.72429 0.46592,-1.08987c-0.48187,0 -0.96375,0 -1.44562,0l-1.41475,-0.37087c-0.24355,0.35511 -0.55096,0.55273 -0.55096,0.55273c-3.33466,2.13923 -5.4088,4.53302 -7.69387,7.38241c0.01832,0.14347 0.03649,0.28722 0.05449,0.43128zM242.77647,190.40847c-1.52892,-5.36228 -9.24907,-9.08121 -13.6927,-5.50022c-0.30143,0.52524 -0.70591,1.00354 -0.9043,1.57571c-1.79772,5.1846 5.41844,3.2013 8.21843,4.05496c1.74557,0.53219 3.15757,1.60797 4.27276,2.96491c0.84883,-0.36515 1.70061,-0.7253 2.55492,-1.07966c-0.12112,-0.70102 -0.26726,-1.37798 -0.4491,-2.01571zM230.65971,211.42987l-1.55886,-0.0226c-0.4558,0.15527 -0.92151,0.28403 -1.3674,0.4658c-2.31189,0.94247 -0.63678,1.10558 0.83879,1.11552c2.03004,0.01368 3.68695,-0.46714 5.68844,-0.72466c0.59308,-0.07631 1.23924,-0.32389 1.85069,-0.42076c-0.06475,-0.02677 -0.12936,-0.05433 -0.19383,-0.08267c-0.00331,0.00134 -0.00662,0.00267 -0.00995,0.004c-0.88442,0.35377 -1.48,0.03357 -1.83915,-0.33171c-0.70807,0.34508 -1.49259,0.00885 -1.49259,0.00885l-0.82928,-0.35575c-0.49526,0.34398 -1.08686,0.34398 -1.08686,0.34398zM238.68613,216.18614c0.04556,0.165 0.01254,-0.36603 0.11993,-0.49932c0.31729,-0.39382 0.74203,-0.68736 1.11304,-1.03104c0,0 0.02449,-0.02176 0.06973,-0.05599c0.23339,-0.75773 0.49082,-1.49664 0.76096,-2.20052c-0.96435,0.15858 -1.92679,0.14616 -2.87155,-0.0294c1.30001,1.14356 0.44044,2.48567 0.80789,3.81627zM253.20648,188.62619c-1.19666,-0.54524 -2.27076,-1.22546 -3.14371,-2.05556c-0.92976,0.53296 -1.87056,1.04933 -2.83412,1.53144l-0.2717,0.19737c0,0 -0.61469,0.4098 -1.31156,0.29749c0.36662,0.84008 0.63119,1.69251 0.77479,2.53506c2.25081,-0.88656 4.51541,-1.72661 6.7863,-2.50581zM282.47042,207.0197c-0.0782,0.12332 -0.1777,0.24792 -0.30229,0.37251c-1.04931,1.04931 -2.09861,0.31905 -2.39342,0.07276c-1.702,-0.80627 -3.25467,-1.79143 -4.94461,-2.63467c-3.82592,-1.64368 -7.13426,-4.0819 -10.7985,-6.01169c-1.00465,-0.5291 -2.40443,-1.34374 -3.64576,-1.08461c-0.3592,0.07498 0.27443,0.69619 0.51597,0.97242c1.38772,1.58703 2.95363,2.92088 4.58305,4.25365c4.28947,3.50854 8.61785,6.95634 13.14945,10.137c0.93158,0.50634 3.39211,2.50959 4.31958,2.50036c0.88215,-0.00878 1.11306,-1.36952 1.64326,-2.0746c0.57998,-0.77128 1.20317,-1.55636 1.82459,-2.35982c0.14738,-0.44353 0.48128,-0.74906 0.69118,-0.90548c1.28666,-1.71406 2.49195,-3.51631 3.20165,-5.4488c1.44018,-3.92155 -0.82119,-4.73526 -3.34867,-1.9096c-1.03021,1.15175 -2.01478,2.34371 -3.04135,3.4987c0,0 -0.61526,0.69217 -1.45415,0.62188zM243.14391,203.23986c-0.25168,-0.13982 -0.43896,-0.29805 -0.5762,-0.46484c-1.09268,0.03874 -2.26241,0.41759 -2.88928,0.72412c-2.58299,1.26304 -3.7164,2.49986 -3.25471,4.62576c1.83021,1.29312 4.01349,1.17089 6.03698,-0.08693c0.79679,-0.49529 2.25514,-1.76628 2.5557,-3.0395c-0.39545,-0.50173 -0.56659,-0.97393 -0.65733,-1.53635c-0.33723,0.07553 -0.74394,0.03953 -1.21515,-0.22226zM239.54909,198.5807c0,0 0.02523,0 0.06964,0.00303c-0.08921,-0.22834 -0.18483,-0.45178 -0.28701,-0.66973c-0.53692,0.23922 -1.07247,0.48006 -1.60654,0.72227c0.60084,-0.03803 1.21156,-0.05453 1.82392,-0.05557zM247.28527,194.55235c-0.14376,0.05712 -0.28747,0.11444 -0.43111,0.17195c0.01168,0.09036 0.02342,0.18067 0.03521,0.27094c0.13131,-0.14877 0.26321,-0.29639 0.3959,-0.44289zM233.01886,205.2006c0.383,-0.94653 1.08357,-1.88652 1.98527,-2.73357c-1.36541,0.42847 -2.32545,1.32563 -2.16092,3.19838c0.0516,-0.14795 0.11002,-0.30258 0.17566,-0.46481zM229.19457,202.48233c-0.14592,0.07389 -1.69909,0.45713 -1.53646,1.18359c0.22353,0.99845 0.88326,1.74314 1.70981,2.33434c-0.0766,-1.67987 0.24148,-2.99215 0.85045,-4.01326c-0.34148,0.15839 -0.68269,0.3226 -1.0238,0.49533zM243.89402,198.61268c-0.07617,-0.84198 -0.14526,-1.71016 -0.2246,-2.5798c-0.384,0.16169 -0.76745,0.3245 -1.15032,0.48836c0.39066,0.85855 0.70443,1.747 0.94683,2.62596c0.14394,-0.17966 0.28655,-0.35782 0.42809,-0.53452z" fill="#9966ff" stroke-width="0.5"/></g></g></svg>