<svg version="1.1" xmlns="http://www.w3.org/2000/svg" xmlns:xlink="http://www.w3.org/1999/xlink" width="162.49952" height="171.88603" viewBox="0,0,162.49952,171.88603"><g transform="translate(-249.7206,-210.85924)"><g data-paper-data="{&quot;isPaintingLayer&quot;:true}" fill="#000000" fill-rule="nonzero" stroke="none" stroke-width="0.5" stroke-linecap="butt" stroke-linejoin="miter" stroke-miterlimit="10" stroke-dasharray="" stroke-dashoffset="0" style="mix-blend-mode: normal"><path d="M366.75,338.39078l-0.0898,0.03484c1.43295,4.45508 1.85451,9.36953 1.85451,14.08281c-0.00298,1.67408 0.11544,3.29619 -0.37372,4.93356c-1.67351,5.60176 -7.05632,10.87548 -2.93191,16.93862c1.4882,2.18775 4.73871,2.55595 7.03469,3.20937c6.17268,1.75672 12.18509,1.40219 18.55928,1.40554c4.29465,-0.39288 8.06992,-0.58084 12.03488,-2.21233c0.74811,-0.30783 5.37679,-1.44799 5.83939,-2.88563c0.38854,-1.20745 -0.13475,-3.89487 -0.13321,-5.21266c0.00562,-4.79791 -1.03917,-9.26875 -2.45041,-13.77368c-0.07391,-0.14137 -0.10684,-0.24018 -0.10684,-0.24018l-0.37923,-1.27242c-0.01437,-0.04374 -0.02878,-0.08748 -0.04321,-0.13123c-3.19504,-3.09583 -5.35539,-6.90964 -8.2144,-10.28092c-4.8212,-5.68504 -9.70023,-11.25824 -14.66824,-16.79981c-5.15945,4.04588 -10.7388,7.8736 -16.54631,10.82004c0.61452,0.51303 0.61452,1.38407 0.61452,1.38407zM408.71902,351.66091c1.86484,5.6011 3.31858,11.08536 3.3251,17.02399c0.00186,1.6974 0.47253,5.08867 -0.13321,6.55205c-0.62894,1.51944 -3.02534,2.93684 -4.41039,3.56515c-5.51226,2.50057 -10.53876,3.14763 -16.53887,3.68982c-4.44209,0.00223 -9.42926,0.57637 -13.82253,-0.01131c-2.63619,-0.35264 -5.31501,-1.40511 -7.8859,-2.10527c-4.71464,-1.28399 -8.31054,-4.19078 -8.92748,-9.38889c-0.82876,-6.98279 4.70229,-11.73379 4.68897,-18.47802c0,-4.28788 -0.27362,-8.96436 -1.6749,-12.97601l-0.0898,-1.14163c0,0 0,-0.00541 0.0003,-0.01564c-3.7473,1.55822 -8.04062,2.00308 -11.90233,3.01766c-5.32496,1.39902 -9.78467,2.42006 -15.35688,2.41264c-6.91257,0.86407 -15.41577,1.0926 -22.34,0.28898c-8.63182,-1.0018 -16.82631,-4.60283 -24.69208,-8.10004c-19.58031,-9.80367 -33.42027,-31.22795 -37.72468,-52.37286c-1.09581,-4.381 -1.51374,-8.53093 -1.51374,-13.03328v-0.29412c0,0 0,-1.75 1.75,-1.75c0.16626,0 0.31673,0.0158 0.4529,0.04439c-0.00387,-1.63622 0.24554,-3.30954 0.30947,-4.83341c0.38773,-9.24302 1.46465,-17.60943 4.38804,-26.4358c0.63487,-3.14245 1.85841,-6.2473 3.40069,-9.06913l-0.26378,-0.1099l1.07136,-2.57127c0.25438,-0.65223 0.88872,-1.11435 1.63098,-1.11435c0.6986,0 1.3016,0.40936 1.5822,1.00128l0.82464,1.64926c0.88613,1.41465 1.78104,2.82563 2.68462,4.23249c2.3218,-3.69796 5.78527,-7.7383 9.3264,-9.38027c10.65786,-4.94189 22.96999,-7.343 34.31511,-9.86175c8.6041,-0.86921 17.15782,-1.19859 25.80678,-1.19859c5.41001,0 11.09036,-0.42579 16.25421,1.57929c7.14968,2.77616 13.30373,8.11414 19.36298,12.6722c4.97599,4.95929 8.7572,9.60659 11.88923,15.83354l0.11153,0.31865c1.36457,-0.78589 2.69474,-1.63037 3.96422,-2.58156c2.02385,-1.51643 7.69681,-6.04307 10.5481,-4.15547c0.83418,0.55224 1.49242,4.8587 1.59075,5.79325c0.48864,4.64399 0.22617,9.40004 0.22773,14.0621c0.27173,5.15839 0.22051,10.31695 0.21801,15.48123c-0.00048,0.98644 0.12867,4.37739 -0.45424,5.22696c-0.91472,1.33316 -2.3783,2.2421 -4.02589,2.91949c-0.66449,6.75682 0.49942,13.65114 -0.24121,20.37952c-1.07339,9.7514 -3.89501,17.7989 -10.51764,25.14511c-0.17022,0.14069 -0.34099,0.28129 -0.51228,0.42177c4.9476,5.52081 9.81517,11.06854 14.61075,16.73773c2.70843,3.20182 4.88465,6.71447 7.69424,9.82023c0.72854,0.29987 0.99852,1.10982 0.99852,1.10982zM381.47637,322.22865c0.41712,-0.37541 0.82087,-0.49667 1.17692,-0.48819c0.2861,-0.23193 0.57071,-0.46431 0.85381,-0.697c6.04315,-6.72724 8.45916,-14.09239 9.45923,-22.99912c0.69762,-6.21311 -0.24422,-12.58446 0.12462,-18.85191c-1.33819,0.34717 -2.63389,0.63603 -3.71728,0.95627c-10.98657,3.24751 -22.3831,4.81094 -33.31341,8.15055c-4.75236,1.42399 -9.32488,3.60615 -13.84841,5.7851c-0.17141,2.04734 0.46452,5.00181 -0.54252,6.74129c-3.02,5.21652 -7.06265,1.1233 -8.76103,-2.41274c-1.24985,0.36255 -2.53949,0.34536 -3.91634,-0.61152c-0.4132,-0.28716 -2.86264,-5.34543 -2.87958,-5.37934c-2.49158,-4.98868 -3.60281,-11.17261 -4.51828,-16.64636c-0.26199,-2.86643 -0.53206,-5.7379 -0.62907,-8.6121c-0.03056,-0.02426 -0.06121,-0.04982 -0.09196,-0.07672c-1.31701,-1.15238 -0.16463,-2.46939 -0.16463,-2.46939c0.07734,-0.0862 0.1644,-0.18105 0.26028,-0.2829c0.0946,-0.47152 0.40699,-1.26798 1.43851,-1.38669c1.79694,-1.57464 4.35492,-3.25066 6.09615,-2.19921c0.86607,0.52298 2.45235,6.64429 2.62003,7.89495c0.03772,0.28134 -0.70438,0.74218 -0.42053,0.74049c1.81273,-0.01085 5.6843,-2.16267 7.32064,-2.67536c8.5113,-2.66672 15.78391,-6.8709 23.12212,-11.85719c4.6756,-2.96277 9.30917,-5.98791 14.16272,-8.65625c2.04307,-1.12322 4.13814,-2.14187 6.20127,-3.20951l-0.13371,-0.43846c-2.89688,-5.82431 -6.41929,-10.10481 -11.05194,-14.7547c-5.72942,-4.28309 -11.54051,-9.40653 -18.28408,-12.03369c-4.74468,-1.84843 -10.07361,-1.36189 -15.0399,-1.36189c-8.46268,0 -16.83218,0.3216 -25.25204,1.15435c-8.40581,1.86974 -16.53367,3.80598 -24.69334,6.6865c-2.79774,0.98765 -5.93847,1.6745 -8.63861,2.86352c-3.36098,1.48001 -6.8713,6.07922 -8.74447,9.50486c7.11786,10.869 14.75254,21.46916 22.85088,31.59209c0.57347,0.71697 1.17731,1.41068 1.72042,2.15092c0.26343,0.35904 0.67903,1.4377 0.85333,1.02792c1.18649,-2.78958 -1.11236,-4.16198 2.84389,-5.90083c0.84931,-0.37329 1.85355,-0.08881 2.78107,-0.1087c2.93477,-0.06293 8.61106,-0.66111 10.70118,1.94486c1.32754,1.6552 1.17927,4.64734 1.26283,6.65292c0.22224,5.33384 0.43816,10.62492 0.43816,15.9783c0,2.59823 0.34913,5.55162 -0.00097,8.10172c-0.22122,1.61135 0.08042,3.66822 -1.13891,4.74462c-0.83565,0.7377 -2.19465,-0.46254 -3.22213,-0.89477c-2.64549,-1.11288 -5.0231,-2.99741 -7.32428,-4.66233c-0.30746,-0.22245 -0.61961,-0.43893 -0.93598,-0.64992c-0.04564,2.39901 -0.25137,4.9937 -1.19957,7.05662c-1.58474,3.44781 -4.78397,4.06124 -7.35101,1.07668c-2.4771,-2.88 -1.45759,-8.02884 -1.45759,-11.51175v-1.52174c0,0 0,-0.05489 0.00972,-0.14524c-1.30863,-0.55474 -2.61287,-1.09907 -3.88922,-1.65749c-7.46385,-3.26554 -14.74397,-6.71211 -22.53936,-9.14803c-3.10222,-1.12887 -8.67798,-2.53398 -10.79053,-5.32552c0.14749,3.18827 0.56512,6.24312 1.36455,9.44247c4.05063,20.05257 17.19812,40.69087 35.80473,49.98008c7.50364,3.33365 15.31497,6.79945 23.54321,7.78231c6.72806,0.80366 15.05547,0.54102 21.77764,-0.29925c5.34778,-0.00656 9.53287,-0.94637 14.64312,-2.29324c3.91714,-1.03241 8.39165,-1.39835 12.1139,-3.15023c6.46618,-3.04332 12.68349,-7.25483 18.36869,-11.72724c0.06831,-0.29637 0.23943,-0.60899 0.57705,-0.91285zM336.72888,298.47476c1.88957,2.98017 2.01634,-0.15113 2.00979,-2.72728c-0.69083,0.32606 -1.3813,0.64746 -2.07188,0.96145c-0.19205,0.08732 -0.38388,0.17943 -0.57568,0.27413c0.1974,0.50521 0.34815,1.03492 0.63777,1.4917zM293.99286,291.20463c0,2.52742 -0.55451,5.75835 0.1423,8.18853c0.8462,2.95123 1.85087,1.51923 2.26659,-0.51399c0.15328,-0.74966 0.30773,-1.50023 0.41144,-2.25834c0.25964,-1.8979 0.20367,-2.27934 0.20144,-4.08771c-0.98935,-0.51833 -2.00043,-1.00475 -3.02177,-1.4712z"/><path d="M319.33001,329.72008c-0.68936,-1.6085 0.91914,-2.29786 0.91914,-2.29786l1.42847,-0.60892c2.36177,-1.18043 4.899,-2.58787 7.43446,-3.36593c5.04614,-1.54852 10.75189,-1.16665 15.95686,-1.16665c4.93439,0.0103 13.36012,-2.08458 17.07991,-5.6284c2.36485,-2.25299 6.11405,-9.87523 0.52459,-11.14494c-1.67797,-0.38117 -3.43559,0.20424 -5.15497,0.27237c-3.84472,0.15235 -7.68299,0.73224 -11.46841,1.49151c-4.60118,0.8394 -9.02049,2.12888 -13.72004,2.42033c-7.36529,0.45678 -14.87703,-0.62901 -22.21487,0.41698c-7.10055,1.01216 -14.13637,3.62337 -20.216,7.36907c0,0 -1.49041,0.91717 -2.40758,-0.57323c-0.91717,-1.4904 0.57324,-2.40757 0.57324,-2.40757c6.47893,-3.98257 13.95894,-6.77464 21.52313,-7.84833c7.46427,-1.05951 15.0787,0.00856 22.56774,-0.45257c4.52935,-0.27889 8.80047,-1.54985 13.23648,-2.36229c3.96691,-0.79118 7.98,-1.38932 12.00985,-1.55196c0.96702,-0.03903 5.0489,-0.45242 6.14938,-0.1624c6.71004,1.76833 6.4266,10.12696 3.14853,14.6822c-4.24995,5.90578 -14.70588,8.9664 -21.63098,8.97924c-8.21704,0 -14.42182,0.45949 -21.82607,4.16307l-1.61501,0.69543c0,0 -1.6085,0.68936 -2.29786,-0.91915z"/></g></g></svg>