<svg version="1.1" xmlns="http://www.w3.org/2000/svg" xmlns:xlink="http://www.w3.org/1999/xlink" width="30.77775" height="43.66601" viewBox="0,0,30.77775,43.66601"><g transform="translate(-225.07062,-157.65716)"><g data-paper-data="{&quot;isPaintingLayer&quot;:true}" fill-rule="nonzero" stroke="none" stroke-linecap="butt" stroke-linejoin="miter" stroke-miterlimit="10" stroke-dasharray="" stroke-dashoffset="0" style="mix-blend-mode: normal"><path d="M228.34836,182.83476l-2.38636,-23.63637l29.88637,0.68182l-5.79545,22.95455l-0.74184,13.98723l-12.91965,4.50118l2.0968,-8.39847l-6.50349,-7.02175z" fill="#ffffff" stroke-width="0"/><path d="M237.29325,200.40591c-0.33541,-0.67082 0.33541,-1.00623 0.33541,-1.00623l0.22615,-0.08592c3.25062,-2.804 2.59838,-8.12833 2.95357,-12.08719c-0.05007,-0.30413 -0.09098,-0.60531 -0.12363,-0.89937c-2.33773,2.08442 -6.21587,2.0182 -7.47065,-1.59646c0,0 -0.22926,-0.68779 0.43925,-0.93632c0.04046,-0.04035 0.08834,-0.07962 0.1447,-0.11719c0.14374,-0.09583 0.27645,-0.13647 0.39558,-0.14227c2.43661,-1.13027 3.56995,1.61031 1.01622,1.82029c1.50286,1.83479 4.63489,0.61759 5.51941,-1.62099l-0.05364,-0.39453c0,0 0,-0.75 0.75,-0.75c0.75,0 0.75,0.75 0.75,0.75l-0.02536,0.44987c0.09571,0.1624 0.11572,0.32249 0.11572,0.32249c0.11415,0.98551 1.70427,2.87243 2.45625,1.3461c0.09444,-0.19168 0.12849,-0.43086 0.12884,-0.69872c-0.32833,0.02319 -0.59513,0.01951 -0.75794,-0.0105c0.086,-0.53238 0.29407,-1.07097 0.59415,-1.55091c-0.13843,-1.1933 -0.08815,-2.32665 1.66232,-2.33523c0.70485,-0.00346 1.49641,0.12646 2.03219,0.58446c1.9525,1.66905 -0.18836,2.68583 -2.12396,3.10473c0.13728,0.48793 0.18776,1.0029 -0.24421,1.66926c-1.01414,1.56441 -2.51905,1.4752 -3.66007,0.64647c-0.01425,0.11716 -0.02757,0.23508 -0.04008,0.35368c0.35823,2.14157 1.1956,4.42139 2.9583,4.40677h0.09615c0,0 0.75,0 0.75,0.75c0,0.75 -0.75,0.75 -0.75,0.75h-0.09615c-1.44588,-0.00944 -2.47675,-0.86133 -3.19676,-2.07623c-0.18013,3.475 -0.54534,7.0117 -3.23244,9.39066l-0.54308,0.2987c0,0 -0.67082,0.33541 -1.00623,-0.33541z" fill="#9966ff" stroke-width="0.5"/><path d="M248.50762,174.24996c0.07553,-0.10575 0.1563,-0.18008 0.23822,-0.23072c0.01141,-0.09334 0.02097,-0.18711 0.02864,-0.28124c-1.21353,0.02657 -2.91328,-0.78011 -3.75499,-0.5493c-0.4545,0.12463 -0.66974,1.23969 -0.7924,1.38337c-0.24923,0.29197 -0.4493,0.47686 -0.63522,0.59024c0.01698,0.06267 0.02605,0.12861 0.02605,0.19666c0,0.18443 -0.06657,0.3533 -0.17699,0.48392l-0.47762,0.57314l-0.22175,-0.18479c-0.72124,0.74351 -1.56736,1.06631 -2.35941,2.08929c-0.45332,0.58549 -0.71152,1.3456 -1.09217,1.99451c0.68353,0.03865 1.33381,-0.00053 1.89239,-0.11458c0,0 0.73544,-0.14709 0.88252,0.58835c0.14709,0.73544 -0.58835,0.88252 -0.58835,0.88252c-1.10593,0.21721 -2.39635,0.20558 -3.66933,-0.03558c-0.30946,0.1015 -0.64562,0.12288 -0.99718,0.02501c-0.40265,-0.11209 -0.75218,-0.33233 -1.05529,-0.63194c-1.51212,-0.62639 -2.81748,-1.62239 -3.50442,-2.98937c-3.61304,0.55155 -7.5757,-2.26857 -7.14785,-6.31335c0.19221,-1.81709 1.58848,-2.14108 2.40523,-3.28204c0.26127,-0.36498 -0.44064,-0.79402 -0.54884,-1.22964c-0.41787,-1.68233 0.36678,-2.5851 1.72859,-3.3922c0.49884,-0.21088 0.97469,-0.48774 1.49653,-0.63265c0.49976,-0.13878 1.21886,0.42939 1.55561,0.03491c0.87594,-1.02607 -0.39785,-2.91895 1.57177,-3.92567c0.95345,-0.48733 2.82622,-0.5177 3.80498,-0.10528c0.47855,0.20164 0.76914,1.02459 1.27285,0.89828c3.29505,-0.82621 5.00182,-3.04548 8.84056,-2.27451c4.87754,2.16199 5.73147,7.49325 4.07757,11.74205c-0.24753,0.6359 1.17485,0.81255 1.46448,1.43042c0.745,1.58931 0.3553,3.25413 -0.74103,4.41841c-0.69296,0.27826 -1.44627,0.44799 -2.19498,0.47093c-0.73723,2.22951 -2.38664,4.11862 -4.74021,5.16522l-0.49691,0.06464c0,0 -0.75,0 -0.75,-0.75c0,-0.75 0.75,-0.75 0.75,-0.75l-0.1123,0.06464c2.02303,-0.89862 3.45455,-2.57375 4.03024,-4.54145c-0.14211,-0.18038 -0.28454,-0.49646 -0.00901,-0.8822zM251.20505,174.15591c1.93432,-1.64358 -1.43044,-3.3028 -1.39194,-4.72809c0.0071,-0.26293 0.77471,-1.03665 0.90098,-1.42141c1.03312,-3.14784 -1.05869,-7.4748 -3.93879,-8.75962c-3.53809,-0.70352 -5.21009,2.01679 -8.27482,2.34088c-1.75093,0.18516 -2.42348,-1.79445 -4.53755,-0.93777c-1.29317,0.52403 -0.38274,2.86795 -1.31284,3.76663c-0.21179,0.20464 -2.895,0.5745 -3.294,0.74841c-2.19632,1.17781 0.25035,2.22328 -0.55102,4.032c-0.46765,1.0555 -2.08965,1.15258 -2.21015,2.6795c-0.23309,2.95359 2.54318,5.02618 5.1969,4.72032c-0.03503,-0.23085 -0.05456,-0.46937 -0.05736,-0.71556l-0.09112,-0.80988c-0.05836,-0.0187 -0.11689,-0.03923 -0.17557,-0.06166c-2.69246,-1.02935 -1.87536,-3.30678 -0.44109,-4.88099c-0.00124,-0.00078 -0.00247,-0.00156 -0.00371,-0.00235c-0.63275,-0.40266 -0.23009,-1.0354 -0.23009,-1.0354c3.91523,-6.10719 15.72718,-6.26388 18.82373,0.68795c0.61295,1.56253 0.7816,3.15991 0.56019,4.66121c0.35263,-0.03928 0.69857,-0.15322 1.02827,-0.28418zM234.39647,172.50112c0.38075,-0.05439 0.59414,0.11436 0.71168,0.2917c0.9199,-0.61738 1.85869,-1.28508 2.81398,-1.05324c1.47777,0.35863 2.7854,1.59979 4.31706,2.01728c1.35441,0.27068 0.93159,-1.49999 2.32331,-1.99686c1.32298,-0.47233 5.58997,1.85986 3.22175,-0.81101l-0.42852,-0.25446c0,0 -0.62404,-0.41603 -0.20801,-1.04006c0.15198,-0.22798 0.33173,-0.31714 0.49867,-0.3385c-3.00864,-4.32751 -10.98896,-4.261 -14.65867,-0.57919c0.20468,-0.0051 0.44843,0.07126 0.62753,0.38469c0.3721,0.65118 -0.27908,1.02329 -0.27908,1.02329c-1.6961,0.96786 -3.32324,4.19758 0.06299,3.5162c0.13002,-0.02616 0.26048,-0.06596 0.39136,-0.11649l-0.03045,-0.19482c0,0 -0.10607,-0.74246 0.6364,-0.84853zM240.56418,176.0489c-1.82179,-0.15487 -3.68537,-0.6318 -5.15404,-1.68793c-0.01586,0.00817 -0.03173,0.01633 -0.04762,0.02447c0.04535,0.7319 0.19627,1.33762 0.36577,2.12868c0.10327,0.48199 0.15759,0.97407 0.27164,1.45362c0.24929,1.0482 0.51254,1.62286 0.78912,1.86769c0.1445,0.04882 0.29067,0.09395 0.43794,0.13543c0.83901,-0.16438 1.78668,-2.46789 2.82749,-3.43495c0.14527,-0.13498 0.31975,-0.31304 0.50971,-0.48702zM237.62139,173.20912c-0.13701,-0.05682 -0.46179,0.10081 -0.79464,0.29956c0.98335,0.56637 2.16867,0.86183 3.33594,0.99895c-0.84024,-0.42927 -1.63074,-0.92092 -2.5413,-1.29851zM233.16505,175.18733l0.0671,0.61092c-0.0157,1.1148 0.45907,2.01387 1.20653,2.70818c-0.33446,-1.16477 -0.49127,-2.44656 -0.5542,-3.48574c-0.23675,0.0738 -0.47657,0.13142 -0.71944,0.16663z" fill="#9966ff" stroke-width="0.5"/></g></g></svg>