<svg version="1.1" xmlns="http://www.w3.org/2000/svg" xmlns:xlink="http://www.w3.org/1999/xlink" width="206.83845" height="158.70284" viewBox="0,0,206.83845,158.70284"><g transform="translate(-191.1494,-211.94589)"><g data-paper-data="{&quot;isPaintingLayer&quot;:true}" fill="#000000" fill-rule="nonzero" stroke="none" stroke-width="0.5" stroke-linecap="butt" stroke-linejoin="miter" stroke-miterlimit="10" stroke-dasharray="" stroke-dashoffset="0" style="mix-blend-mode: normal"><path d="M357.33493,322.75111l-1.35284,-0.81772c-1.38014,-0.69051 -2.5398,-1.34194 -3.7819,-1.87422c-1.99823,2.14412 -4.24116,4.04871 -6.88576,5.63174c-1.85011,1.10745 -3.80739,2.05222 -5.77129,2.99011l0.08071,0.32401c0.85346,3.06308 3.22326,5.20104 4.11333,8.22042c0.60884,2.06539 0.36577,4.53418 0.36577,6.67211c-0.01206,4.45732 -0.40028,8.47427 -3.73555,11.81324c-2.16923,2.17164 -7.45497,4.1904 -6.33611,7.98524c0.74988,2.54336 3.10815,2.33623 5.28197,2.58014c5.16507,0.57953 10.20323,0.87139 15.39262,0.87139c2.84263,0 5.68527,0.00259 8.52789,0c1.60774,-0.00146 5.15404,0.0051 6.73127,-0.05982c6.54567,-0.26939 13.65961,-1.89204 19.49554,-5.02304c1.18723,-0.63695 4.37179,-2.29314 4.80498,-3.54272c0.77731,-2.24221 -0.57954,-5.82476 -1.79538,-7.63259c-3.9543,-3.93686 -8.43033,-7.19027 -12.49426,-11.0127c-1.94441,-1.82887 -3.72702,-4.46644 -5.78198,-6.08881c-4.7761,-3.77065 -10.71845,-6.93025 -15.65292,-10.78202c-0.64316,0.08301 -1.20609,-0.25475 -1.20609,-0.25475zM347.99756,317.04733c0.37963,-1.70833 2.08796,-1.3287 2.08796,-1.3287c0.38951,0.08927 0.76241,0.18697 1.12256,0.29242c1.36078,-1.73061 2.58982,-3.55985 3.79232,-5.41566c1.77449,-2.73857 3.65328,-5.74857 4.15947,-9.06573c0.57717,-3.78226 0.25692,-7.78213 0.27368,-11.59261c-3.22031,-17.48723 -15.56826,-31.79399 -23.66154,-47.38478c-0.15947,2.2484 -0.47383,4.49042 -1.6021,6.32514c-1.95275,3.17544 -5.48721,4.89647 -8.65359,6.57116c-6.9523,3.67705 -14.27041,6.25557 -21.2506,9.74241c-4.60036,1.96076 -9.89185,3.97256 -14.77185,5.12152c-4.59188,1.08113 -9.42753,0.95493 -14.09101,1.21401c-3.63685,0.20205 -7.45932,0.7389 -11.08409,-0.03997c-3.25156,-0.69868 -6.38729,-2.69167 -9.30045,-4.21824c-3.23999,-4.66757 -3.46115,-9.81151 -3.82274,-15.30553c-0.03487,-0.52985 -0.05296,-4.75479 0.25696,-5.16173c0.71103,-0.93362 1.91439,-1.57549 3.0809,-1.70381c1.32211,-0.14543 2.59023,0.60685 3.87835,0.9383c2.26001,0.58154 6.96996,0.71713 8.6555,2.45656c0.77557,0.80037 1.1742,1.75574 1.36909,2.77589c2.92028,-2.27106 5.32821,-5.10441 8.58476,-7.09438c9.65127,-5.89756 20.17224,-10.47831 29.89466,-16.27773c1.84787,-0.62525 3.85132,-1.24765 5.61482,-2.07079c2.5076,-1.17045 5.93319,-3.34602 9.3877,-4.76063c-3.5907,-2.0153 -6.9583,-2.50787 -11.38239,-3.39272c-9.18088,-1.83625 -18.84158,-1.14184 -28.18301,-1.14184c-7.79019,0 -15.55222,-1.00912 -23.38507,-0.5942c-4.00419,0.21211 -8.50626,2.56256 -12.27947,3.75294c-3.74843,1.18256 -7.56249,1.99462 -11.19634,3.53536c-3.77427,0.64899 -8.64318,1.59137 -11.94234,3.64337c-1.32936,0.82683 -2.58213,1.79185 -3.81441,2.79163c0.12735,0.13674 0.25418,0.27387 0.38045,0.4114c5.08723,5.54067 9.03978,12.04004 14.29158,17.51173l0.03789,-0.15158l0.31172,0.07793c0.11109,-2.4964 1.36031,-4.90128 4.87597,-4.10688c0.42738,0.09657 3.76939,3.91048 4.02499,4.49094c1.34241,3.04853 -0.11306,8.02785 -0.44701,11.18871c-0.2756,2.60862 -0.28078,5.13619 -0.28445,7.75748c-0.00159,1.13444 0.13046,3.70396 -0.63644,4.56909c-3.48808,3.9349 -11.83621,1.53838 -15.68397,-0.33941c-3.4949,-1.56144 -6.46891,-4.04413 -9.96742,-5.57327c-3.3704,-1.47315 -7.14469,-1.53613 -10.63505,-2.40266c-0.08908,3.51634 -1.12487,7.02439 -0.73463,10.61412c0.87003,8.00329 7.01253,13.33535 12.86894,17.93089c1.94039,1.52263 2.83147,2.89244 5.30825,3.16987c5.97165,0.60096 10.71307,-1.31106 16.35869,-2.88414c10.87448,-3.03002 21.63101,-6.3011 32.50192,-9.36251c5.62994,-2.82628 11.53788,-2.77202 17.69324,-2.7661c2.11928,0.00204 4.2533,-0.53679 6.36742,-0.28367c4.14378,0.49614 8.23768,1.88248 12.33372,2.63003c5.83464,1.06486 10.48198,1.60247 15.90501,4.30898c2.92461,1.46581 7.11042,3.3196 8.91364,6.19012c3.98367,6.34156 1.62247,16.86805 -5.02253,20.43413c-7.98935,4.28753 -16.40336,3.75455 -25.1652,3.74714c-9.67284,1.07476 -19.66535,0.13786 -29.39689,0.54462c-7.71068,0.32229 -14.25101,0.04147 -21.48112,3.14009c-0.61536,0.26116 -1.8373,0.6559 -2.78746,1.22221c-0.08385,0.29528 -0.27309,0.60145 -0.63221,0.88875c-0.20778,0.16623 -0.40924,0.27558 -0.60151,0.34152c-0.00594,0.01582 -0.01155,0.03172 -0.01683,0.04769c-0.90757,2.74511 4.78295,7.83373 6.57631,9.29478c6.99744,5.70081 17.73168,6.54637 26.28088,7.49628c6.44199,-0.00765 12.85997,0.2896 19.31499,0.29144c3.44322,0.00098 7.36307,0.14882 10.72327,-0.82265c4.91694,-1.42155 10.77188,-3.07882 15.05199,-5.9296c1.98049,-1.31912 3.74624,-3.18056 5.57956,-4.6999c5.31317,-3.05274 12.15174,-5.095 16.53783,-9.51819c0.08024,-0.08092 0.15996,-0.16222 0.23918,-0.24388c-0.44835,-0.27899 -0.94544,-0.82398 -0.72251,-1.82718zM357.70803,317.66011c0.98827,1.01341 2.30564,1.64584 3.50612,2.39586c5.19566,3.24606 10.48171,7.21052 15.18016,11.01008c2.14171,1.73196 3.95291,4.35107 5.98272,6.26414c4.17046,3.93059 8.75123,7.27673 12.79985,11.34024c1.85913,2.80543 3.7205,7.7219 2.32226,11.19094c-0.50269,1.24718 -3.48935,3.32408 -4.42957,3.99419c-6.29309,4.48522 -15.41863,6.41749 -22.96029,6.72921c-1.64345,0.06793 -5.18468,0.06122 -6.87247,0.06279c-2.84364,0.00264 -5.68729,0 -8.53093,0c-5.31844,0 -10.49115,-0.29765 -15.78385,-0.89332c-3.54678,-0.39918 -7.19818,-0.91849 -8.24744,-5.06692c-1.54424,-6.10541 3.71109,-7.94928 7.1933,-11.42652c2.6444,-2.64062 2.74604,-5.83301 2.73504,-9.36323c0,-1.7611 0.277,-3.97736 -0.22246,-5.68083c-0.84115,-2.86882 -3.09368,-5.06412 -4.03952,-7.98236c-0.81142,0.40827 -1.61442,0.83017 -2.40166,1.27711c-1.83537,1.53927 -3.60532,3.38308 -5.59691,4.71187c-4.58804,3.06113 -10.83258,4.92666 -16.12448,6.42334c-9.68119,2.73808 -21.22758,0.65609 -31.13822,0.64526c-9.43948,-1.04883 -20.69375,-2.13597 -28.425,-8.38607c-3.27691,-2.64912 -9.10352,-8.38592 -7.54134,-13.05816c0.10105,-0.30222 0.23315,-0.58433 0.3911,-0.8484c-3.4551,-2.73699 -5.38827,-6.08097 -8.0661,-9.56167c-3.10059,-4.03022 -6.17147,-8.54901 -8.04295,-13.29807c-2.02332,0.28009 -4.11365,0.36671 -6.37097,0.1423c-3.21296,-0.52319 -4.5459,-1.92298 -7.04469,-3.88895c-6.64514,-5.22819 -13.17137,-11.30086 -14.18988,-20.3044c-0.4642,-4.10343 1.12238,-8.282 0.72125,-12.2756c-3.97937,-2.0859 -5.53356,-5.58728 -8.25816,-8.84302c-1.46157,-1.74649 -2.08712,-1.46931 -2.72084,-3.96438c-0.56152,-2.21082 -0.33869,-5.15945 -0.34093,-7.46089c0.01474,-4.7202 0.74399,-9.62484 1.80755,-14.20838c0.8811,-3.7972 0.88288,-8.04009 2.41154,-11.67289c2.36443,-5.61899 5.93044,-4.05463 9.35659,-0.65029l1.17647,1.17647c0,0 0.53206,0.53206 0.54953,1.2473c3.67742,3.13081 7.37776,6.30959 10.80183,9.70686c1.43466,-1.17612 2.88831,-2.3221 4.44972,-3.27478c3.56692,-2.17634 8.69863,-3.35047 12.76354,-4.00369c3.6062,-1.5636 7.42558,-2.34406 11.1566,-3.52346c4.0638,-1.28459 8.70976,-3.61962 13.01465,-3.89412c7.92025,-0.50503 15.79576,0.58227 23.67375,0.58227c14.0334,0 31.70718,-2.03671 43.66423,6.50244c0,0 0.13487,0.09633 0.29194,0.27121c3.29243,-0.43391 6.23738,0.62931 7.96441,4.91873c0.73824,1.83356 1.04422,4.84712 1.28572,6.89322c0.19834,1.68045 0.40718,3.34953 0.51944,5.02679c0.22161,0.18248 0.34536,0.35573 0.34536,0.35573l1.54579,2.17333c8.3848,16.67468 21.59392,31.77763 24.94958,50.45138c0.01515,4.11698 0.32222,8.44135 -0.31455,12.52504c-0.58936,3.77963 -2.63796,7.21063 -4.66406,10.34604c-1.08399,1.67749 -2.20126,3.28971 -3.39589,4.81359c0.23349,0.11006 0.46706,0.22308 0.70224,0.33881c1.23275,-1.21424 2.46088,0.01389 2.46088,0.01389zM331.54118,299.65343l-0.93844,-1.25575c-0.6222,-0.93426 -1.26277,-1.72419 -1.69413,-2.58484c-0.67733,2.72182 -1.67696,5.30011 -2.5309,8.01367c-0.77498,2.46264 -1.1587,4.45925 -1.81873,6.54166l0.38464,0.08548l-0.1072,0.48241c0.65577,-0.27519 1.30923,-0.58109 1.96043,-0.92104c3.26329,-1.70355 5.14198,-5.94272 5.18036,-9.95225c-0.27693,-0.19719 -0.43604,-0.40934 -0.43604,-0.40934zM320.19946,311.739c-1.293,-2.586 -2.17659,-5.66555 -3.73237,-8.07475c-2.12551,-3.29146 -4.36613,-6.47693 -6.35643,-9.8786c-1.14296,-2.66137 -2.63229,-6.90649 -5.04882,-8.74182c-0.41027,-0.31159 -0.33928,0.98214 -0.39447,1.49436c-0.06637,0.61606 -0.17586,1.22776 -0.30697,1.83336c-0.34563,1.59648 -0.9921,3.11326 -1.53893,4.65248c-2.11989,5.96713 -3.3242,11.83632 -6.6415,17.40492c-0.57213,0.96041 -1.18169,2.20857 -1.89938,3.36961c2.98659,-0.02171 5.94609,-0.14833 8.85793,-0.47186c5.98336,-0.00477 11.75804,0.32886 17.35969,-0.99019zM280.6639,306.71898c-1.87009,-2.42526 -3.76152,-4.90573 -5.59554,-7.36265c-1.49989,-2.00931 -2.33486,-4.53699 -4.22749,-6.26099c-1.23958,-1.12913 -2.59911,-2.13002 -3.77006,-3.33018c-0.28419,-0.29128 0.24211,0.78505 0.26743,1.19122c0.03659,0.5871 0,1.17647 0,1.76471c0,2.7549 0,5.5098 0,8.26471c0,3.2323 0.18246,6.37908 0.29232,9.59717c0.03435,1.00633 0.30477,2.0864 0.00021,3.03446c6.03945,-0.41756 12.21815,-0.14336 18.36284,0.04666c-1.67633,-2.4638 -3.46834,-4.53113 -5.32972,-6.94509zM255.86419,312.16278c-7.11459,-4.18859 -13.95415,-8.69396 -21.55355,-11.95084c0,0 -0.07236,-0.03101 -0.17982,-0.09523c1.69159,3.25385 3.90342,6.35477 6.07788,9.18195c2.6111,3.39488 4.47366,6.5598 7.79344,9.24381l0.10605,0.13117c0.98685,-0.55852 2.05261,-0.98933 2.96716,-1.38459c3.06267,-1.31257 6.21508,-2.20307 9.42924,-2.79686c-1.56772,-0.74983 -3.10543,-1.42572 -4.6404,-2.32941zM233.85188,297.23891c-0.10405,0.02646 -0.20807,0.05262 -0.31209,0.07848c0.04333,0.04001 0.08464,0.08218 0.12374,0.12634c0.06006,-0.07729 0.12312,-0.14523 0.18835,-0.20482zM235.68936,296.99493c6.89272,2.95402 12.87254,7.00457 19.34101,10.74973c3.14495,1.82089 6.94371,3.04377 9.36002,5.60803c0.13261,0.14073 -0.16406,-0.35806 -0.18295,-0.5505c-0.06713,-0.68403 -0.02572,-1.37497 -0.07329,-2.06064c-0.07495,-1.08028 -0.24295,-2.15363 -0.29412,-3.23529c-0.1027,-2.17106 -0.0018,-4.34698 -0.0018,-6.52048c0,-2.7549 0,-5.5098 0,-8.26471c0,-0.58636 -0.03223,-3.31199 0.114,-4.09813c-7.714,2.25193 -15.41652,4.50273 -23.16884,6.6607c-1.92562,0.53602 -3.75168,1.09504 -5.55251,1.58963c0.27253,0.04197 0.45847,0.12166 0.45847,0.12166zM274.60182,292.2161c1.2943,1.61454 2.03261,3.40381 3.27101,5.0462c3.9491,5.2374 8.32518,10.06562 11.79014,15.62319c0.10469,0.18698 0.23945,0.60685 0.34123,0.8828c0.0523,0.001 0.1046,0.00197 0.1569,0.00293c0.14524,-2.23308 1.99238,-3.41955 3.07071,-5.2286c1.3302,-2.23159 2.32251,-4.78642 3.41594,-7.14608c1.68577,-3.63794 2.47713,-7.79294 3.75267,-11.58708c0.35404,-1.05312 0.49617,-4.26755 1.06235,-5.73686c-1.81856,-0.4375 -3.64183,-0.84123 -5.47723,-1.08255c-1.93655,-0.25462 -4.0297,0.30278 -5.98552,0.30457c-5.75478,0.00525 -11.15839,-0.09483 -16.42441,2.52801c-1.48084,0.42832 -2.96032,0.858 -4.43888,1.28839c2.06506,1.32513 4.47103,3.86505 5.46511,5.10508zM310.89228,287.08215c0.64137,0.96373 2.05623,4.45608 2.34274,5.12603c1.93259,3.28978 4.16229,6.36082 6.18025,9.56974c1.02086,1.62334 1.77874,3.48235 2.54402,5.31802c0.13074,-0.66153 0.30488,-1.34727 0.44135,-2.06599c0.78254,-4.12127 2.82933,-7.84207 3.52023,-12.00833l0.28939,-1.73633c0.00696,-0.04685 0.01578,-0.0931 0.02637,-0.13866c-1.13989,-0.59686 -2.28469,-1.11185 -3.19572,-1.56618c-4.50578,-2.25737 -8.33692,-2.85376 -12.93967,-3.64106c0.27296,0.37479 0.53488,0.75784 0.79105,1.14277z"/><path d="M213.25,270.95637c0,-0.9665 0.7835,-1.75 1.75,-1.75c0.9665,0 1.75,0.7835 1.75,1.75c0,0.9665 -0.7835,1.75 -1.75,1.75c-0.9665,0 -1.75,-0.7835 -1.75,-1.75z"/><path d="M258.83824,275.07402c0,-0.9665 0.7835,-1.75 1.75,-1.75c0.9665,0 1.75,0.7835 1.75,1.75c0,0.9665 -0.7835,1.75 -1.75,1.75c-0.9665,0 -1.75,-0.7835 -1.75,-1.75z"/></g></g></svg>