<svg version="1.1" xmlns="http://www.w3.org/2000/svg" xmlns:xlink="http://www.w3.org/1999/xlink" width="223.20414" height="189.36086" viewBox="0,0,223.20414,189.36086"><defs><radialGradient cx="219.83017" cy="161.06817" r="32.56883" gradientUnits="userSpaceOnUse" id="color-1"><stop offset="0" stop-color="#0006ff"></stop><stop offset="1" stop-color="#00e4ff"></stop></radialGradient><radialGradient cx="222.28988" cy="91.75917" r="62.64859" gradientUnits="userSpaceOnUse" id="color-2"><stop offset="0" stop-color="#0006ff"></stop><stop offset="1" stop-color="#00e4ff"></stop></radialGradient><radialGradient cx="162.3767" cy="142.49719" r="9.88717" gradientUnits="userSpaceOnUse" id="color-3"><stop offset="0" stop-color="#0006ff"></stop><stop offset="1" stop-color="#00e4ff"></stop></radialGradient><radialGradient cx="348.60981" cy="143.24533" r="12.01308" gradientUnits="userSpaceOnUse" id="color-4"><stop offset="0" stop-color="#0006ff"></stop><stop offset="1" stop-color="#00e4ff"></stop></radialGradient></defs><g transform="translate(-151.05006,-50.00868)"><g data-paper-data="{&quot;isPaintingLayer&quot;:true}" fill-rule="nonzero" stroke="none" stroke-width="0.5" stroke-linecap="butt" stroke-linejoin="miter" stroke-miterlimit="10" stroke-dasharray="" stroke-dashoffset="0" style="mix-blend-mode: normal"><path d="M278.10786,169.02736l-1.09208,3.23386c-7.23396,13.8533 -10.93842,30.24578 -15.74341,45.11108c-1.64909,5.10184 -2.98657,14.95562 -7.46377,18.36935c-0.13421,0.10232 -0.27082,0.20065 -0.40963,0.29538l0.03855,0.04863l-3.21013,2.54408c-0.83154,0.67897 -1.97995,0.93511 -3.07741,0.58038c-1.40007,-0.45255 -2.2854,-1.75975 -2.26545,-3.15798l-0.03247,-3.56136l0.17445,-0.00159l-0.137,-0.52272c0.81205,-2.59655 1.45917,-5.24981 1.94392,-7.92686c0.25216,-1.39262 0.57407,-3.58984 0.99017,-5.50156c-0.30551,0.21769 -0.60681,0.43988 -0.87221,0.69415c-2.38376,2.28403 -6.10551,6.70917 -9.08008,7.9823c-2.44017,1.04441 -5.55742,2.77464 -7.83632,1.41383c-1.87321,-1.11857 -0.64822,-4.32704 -0.69509,-6.5083c-0.10545,-4.90669 0.86906,-9.82631 1.69904,-14.6457c0.0538,-0.31239 0.0933,-0.62802 0.12422,-0.94552c-2.54441,3.79104 -4.83655,7.75366 -7.76474,11.3488c-0.50999,0.62615 -5.16525,6.02396 -6.02665,6.49621c-0.10133,0.05555 -0.20344,0.10936 -0.30626,0.16155l0.02869,0.04346l-3.04783,2.01177c-0.80417,0.54074 -1.83953,0.72033 -2.83314,0.39917c-1.48119,-0.47877 -2.38626,-1.91411 -2.25279,-3.40178l0.31595,-4.66288c0.49658,-6.84466 2.00287,-14.11247 4.15269,-20.64353c0.04011,-0.12183 0.08014,-0.24522 0.12038,-0.3698c-2.23937,1.91466 -4.48107,3.53652 -6.99782,5.52946c-1.58566,1.25563 -2.62371,3.25283 -4.44708,4.12815c-0.13688,0.06571 -0.2751,0.12753 -0.41455,0.18581l0.02502,0.04893l-3.62023,1.85154c-0.74528,0.38118 -1.63598,0.47803 -2.49543,0.20022c-1.71892,-0.55561 -2.66196,-2.39949 -2.10635,-4.1184l1.0612,-3.28306l0.08706,0.02814l0.00652,-0.28143c1.75062,-3.31273 2.12038,-6.58316 3.26688,-10.14307c2.07315,-6.43722 4.3422,-13.41987 5.32876,-20.0877c0.55205,-3.73119 0.33793,-7.58523 1.22034,-11.35522c1.41249,-6.03463 3.42987,-12.43893 5.86881,-18.37772c-8.97825,-10.47615 -13.97953,-25.0226 -15.19916,-38.0304c-0.74543,-19.04333 13.41899,-36.40808 30.70101,-43.02549c11.52897,-4.41453 25.4749,-4.46207 38.21677,-4.10959c5.4728,-3.28165 11.20255,-3.65536 17.14016,-5.90456c24.6187,-5.76038 52.92005,10.54966 58.6453,35.771c1.60352,7.06394 -0.6187,14.5441 -2.7854,21.18363c-7.92244,12.70377 -11.25385,28.68658 -20.57786,40.65081c-8.90381,11.42503 -23.90928,17.90809 -38.22542,19.48125c-0.03886,0.45997 -0.14014,0.77329 -0.14014,0.77329zM217.2371,135.07056c2.93882,1.43608 1.50274,4.37491 1.50274,4.37491c-0.24044,0.48938 -0.47426,0.9802 -0.70179,1.47241c1.55354,1.4837 3.21797,2.82653 4.99413,3.99725c5.21571,3.43784 11.3106,6.30926 16.86003,9.18105c7.65137,3.95952 16.74154,8.45462 25.57584,8.74438c2.80032,0.09185 5.57722,-0.54405 8.36719,-0.80161c13.61111,-0.61814 28.91306,-6.26492 37.49197,-17.30495c8.96936,-11.54249 12.14287,-27.10429 19.7918,-39.36949c1.66929,-5.22823 3.64705,-11.48001 2.32167,-17.05238c-5.08483,-21.37853 -29.23739,-35.72653 -50.34765,-30.88532c-2.76567,1.04767 -5.54037,1.60269 -8.24713,2.30668c0.05773,0.27896 0.08554,0.58996 0.07555,0.93664c-0.09433,3.26957 -3.36389,3.17524 -3.36389,3.17524c-1.6837,-0.04857 -3.35708,-0.08408 -5.02276,-0.10419c-0.62788,0.37674 -1.48195,0.55654 -2.61535,0.19018c-0.19225,-0.06215 -0.3688,-0.13233 -0.53083,-0.20932c-9.03332,0.00127 -17.88662,0.50357 -26.98325,1.88402c-4.8093,0.72983 -9.46467,1.47743 -13.71814,4.10706c-3.58913,2.21892 -6.52774,5.34915 -9.82057,7.98784c-4.22827,3.38829 -6.9476,7.95002 -8.5777,13.0745c-1.3844,4.3521 -2.89707,8.35976 -2.62953,12.9763c0.96694,10.61313 4.858,22.79012 11.79386,31.98731c0.67476,-0.73986 1.93043,-1.57412 3.78377,-0.66848zM204.13949,194.07016c-0.43201,1.3313 -0.76783,2.62211 -1.10284,3.89204c1.09241,-0.67076 2.22999,-1.3154 3.35887,-2.13164c1.6814,-1.21575 4.6927,-4.46487 5.81502,-5.60835l0.08154,-0.04525l-0.01531,-0.01681l3.37984,-3.08c0.84053,-0.79495 2.07769,-1.11841 3.25613,-0.7375c1.30886,0.42307 2.16789,1.59308 2.25794,2.88611l0.39651,4.28576l-0.05976,0.00553c0.02655,0.21698 0.04489,0.43542 0.05384,0.6555c0.04925,1.21046 -2.84616,8.30655 -3.24454,10.21194c-0.78456,3.75243 -1.6678,7.66238 -2.17355,11.52759c0.77353,-0.72168 1.58515,-1.43588 2.20768,-2.19891c4.57289,-5.60496 7.67397,-11.99106 12.41992,-17.43757l0.21204,-0.0939l-0.05014,-0.05743l2.48069,-2.16585c0.83898,-0.75861 2.04883,-1.06072 3.20243,-0.68784c1.50825,0.48752 2.41917,1.9669 2.24443,3.48342l-0.4914,5.21418l-0.00829,-0.00078c0.00062,0.02131 0.00119,0.04261 0.00172,0.06392c0.15383,6.09119 -1.47598,6.34094 -2.06864,11.98407c-0.18623,1.77319 0.15373,3.56808 0.05888,5.34849c-0.01172,0.22006 -0.01745,0.4438 -0.02221,0.6691c0.86991,-0.63796 1.78699,-1.22685 2.58631,-1.94575c1.65482,-1.48833 9.03996,-10.12008 11.51369,-9.42871c2.53302,0.70794 3.88709,3.87987 4.59804,6.41204c0.01822,0.06487 0.0345,0.12984 0.04895,0.19489c4.91862,-15.23493 8.80966,-31.77627 16.12922,-46.01526l0.12492,-0.41318c-2.58306,0.23882 -5.93225,0.54403 -6.12,0.53734c-9.84393,-0.35038 -19.77496,-5.0462 -28.32584,-9.47121c-5.77931,-2.99075 -12.1911,-6.0031 -17.59335,-9.62366c-1.34563,-0.90183 -2.6344,-1.8843 -3.86665,-2.93797c-5.40355,15.17398 -6.29613,31.34772 -11.28612,46.72565z" fill="#000000"></path><path d="M215.39829,147.28506c1.23224,1.05368 2.52446,2.03467 3.87009,2.93651c5.40224,3.62058 11.84504,6.62881 17.62434,9.61955c8.55087,4.42501 18.53146,9.15314 28.37537,9.50353c0.18775,0.00668 3.53886,-0.29494 6.12192,-0.53377l-0.1247,0.41361c-7.31957,14.23899 -11.22972,30.86105 -16.14834,46.09596c-0.01445,-0.06505 -0.11023,-0.23394 -0.12844,-0.29881c-0.71095,-2.53217 -1.98493,-5.60066 -4.51794,-6.30859c-2.47373,-0.69137 -9.8885,7.9534 -11.54334,9.44172c-0.79933,0.71889 -1.72213,1.30848 -2.59204,1.94644c0.00476,-0.22529 0.00044,-0.57949 0.01218,-0.79956c0.09485,-1.78041 -0.24598,-3.57523 -0.05975,-5.34841c0.59267,-5.64312 2.20914,-5.89023 2.0553,-11.98143c-0.00054,-0.02131 -0.00118,-0.0426 -0.00181,-0.0639l0.00826,0.00079l0.47981,-5.20932c0.17475,-1.51651 -0.67713,-2.87918 -2.18539,-3.3667c-1.15358,-0.37288 -2.39604,-0.06462 -3.23501,0.69399l-2.49715,2.16254l0.05057,0.05758l-0.21318,0.0935c-4.74595,5.44648 -7.85862,11.82719 -12.43151,17.43215c-0.62253,0.76303 -1.43545,1.47643 -2.20899,2.19812c0.50574,-3.86521 1.37931,-7.78252 2.16386,-11.53496c0.39837,-1.90537 3.28061,-9.01834 3.23136,-10.22879c-0.00895,-0.22008 -0.0286,-0.44106 -0.05515,-0.65804l0.05981,-0.00545l-0.40259,-4.30566c-0.09005,-1.29304 -0.94951,-2.47692 -2.25837,-2.89999c-1.17844,-0.38091 -2.28498,-0.0511 -3.1255,0.74384l-3.38032,3.07052l0.01531,0.01675l-0.08156,0.04515c-1.12232,1.14348 -4.13593,4.38181 -5.81733,5.59755c-1.12888,0.81624 -2.39098,1.501 -3.48337,2.17176c0.33501,-1.26993 0.66892,-2.56761 1.10091,-3.89893c4.98999,-15.37792 5.91913,-31.62529 11.32267,-46.79927z" data-paper-data="{&quot;noHover&quot;:false,&quot;origItem&quot;:[&quot;Path&quot;,{&quot;applyMatrix&quot;:true,&quot;segments&quot;:[[[220.06408,235.46885],[0.01404,-12.35677],[-0.00122,1.06976]],[[220.17695,238.55861],[-0.05489,-1.00232],[0.63678,-0.74461]],[[222.11861,236.21877],[-0.62911,0.85899],[0.93702,-1.27942]],[[225.02925,230.77307],[-0.54741,1.09544],[0,0]],[225.07791,230.72099],[225.06282,230.71237],[[226.79681,227.67789],[0,0],[0.42441,-0.77572]],[[228.9915,226.3761],[-0.94657,0],[1.05134,0]],[[231.31206,227.94426],[-0.36945,-0.9192],[0,0]],[232.60791,230.96792],[[232.56574,230.98599],[0,0],[0.07032,0.15156]],[[232.75899,231.45005],[-0.05825,-0.15795],[0.32037,0.86874]],[[232.79994,239.63949],[-0.15819,-1.47935],[0.31153,2.91342]],[[233.92907,248.53399],[-0.54081,-2.9299],[0.39291,-0.70669]],[[235.01772,246.41584],[-0.27337,0.70126],[2.00809,-5.15124]],[[239.95107,230.81459],[-2.1712,5.07667],[0,0]],[240.0832,230.69645],[240.03325,230.66648],[[241.32822,228.50819],[0,0],[0.43183,-0.74893]],[[243.49553,227.25514],[-0.92661,0],[1.2115,0]],[[245.94668,229.26088],[-0.22941,-1.14398],[0,0]],[246.81503,233.16846],[[246.80881,233.16984],[0,0],[0.00546,0.01535]],[[246.82509,233.21592],[-0.0054,-0.01537],[1.54377,4.39372]],[[248.13782,242.41774],[-0.89554,-4.24334],[0.2814,1.33335]],[[249.43794,246.29364],[-0.34955,-1.31712],[0.04321,0.1628]],[[249.57908,246.78547],[-0.0495,-0.16496],[0.48268,-0.66846]],[[251.00261,244.76242],[-0.41232,0.71072],[0.85362,-1.47141]],[[257.15959,235.19871],[-1.96157,0.07871],[2.00858,-0.0806]],[[262.01088,238.78104],[-1.1123,-1.67442],[0.0285,0.04289]],[[262.09229,238.91127],[-0.0258,-0.04391],[-0.00425,-12.236]],[[263.00535,201.65462],[-1.97598,12.0761],[0,0]],[[262.99907,201.32477],[0,0],[-1.82241,0.7809]],[[258.67456,203.15422],[0.13811,-0.03928],[-7.24146,2.05925]],[[235.84787,202.92492],[7.25892,1.20803],[-4.90611,-0.81647]],[[220.79064,200.06178],[4.77995,1.36316],[-1.19062,-0.33954]],[[217.28794,198.83406],[1.14385,0.47663],[-0.36274,12.30567]]],&quot;closed&quot;:true}]}" fill="url(#color-1)"></path><path d="M213.39697,135.77226c-6.93584,-9.19719 -10.83597,-21.40879 -11.80291,-32.02192c-0.26755,-4.61653 1.24682,-8.63775 2.63122,-12.98984c1.6301,-5.12448 4.35509,-9.70151 8.58337,-13.08982c3.29283,-2.63869 6.23905,-5.78039 9.82819,-7.99931c4.25345,-2.62964 8.92048,-3.38823 13.72978,-4.11806c9.09663,-1.38045 17.98545,-1.8954 27.01876,-1.89666c0.16204,0.07699 0.3394,0.14713 0.53166,0.20927c1.13339,0.36635 1.99161,0.18654 2.6195,-0.19021c1.66567,0.02013 3.34692,0.05632 5.03064,0.10489c0,0 3.27362,0.09506 3.36794,-3.17451c0.01,-0.3467 -0.01818,-0.65777 -0.07593,-0.93672c2.70675,-0.70397 5.49089,-1.2563 8.25658,-2.30396c21.11026,-4.84119 45.30361,9.55249 50.38845,30.93101c1.32537,5.57236 -0.65048,11.8401 -2.31976,17.06833c-7.64894,12.2652 -10.83837,27.86947 -19.80774,39.41196c-8.5789,11.04004 -23.92082,16.70877 -37.53192,17.32691c-2.78996,0.25758 -5.57637,0.89416 -8.37669,0.80231c-8.83429,-0.28976 -17.95475,-4.79226 -25.6061,-8.75178c-5.54943,-2.87179 -11.66178,-5.75642 -16.87749,-9.19426c-1.77616,-1.17073 -3.44511,-2.51888 -4.99864,-4.00259c0.22753,-0.4922 0.46085,-0.9837 0.70129,-1.47308c0,0 1.43322,-2.94303 -1.5056,-4.37912c-1.85333,-0.90563 -3.10983,-0.0727 -3.78457,0.66715z" data-paper-data="{&quot;noHover&quot;:false,&quot;origItem&quot;:[&quot;Path&quot;,{&quot;applyMatrix&quot;:true,&quot;segments&quot;:[[[215.72005,189.48188],[-1.56075,-0.22296],[2.47487,0.35356]],[[217.84137,192.3103],[0,0],[-0.05982,0.41243]],[[217.67712,193.5461],[0.04977,-0.41144],[1.47861,0.71383]],[[222.24881,195.27914],[-1.56694,-0.43389],[4.60133,1.27411]],[[236.66868,197.99275],[-4.71097,-0.784],[6.49532,1.08095]],[[257.32455,198.33992],[-6.49294,1.866],[2.05815,-0.59149]],[[263.22123,195.79002],[-1.96848,0.84318],[9.7535,-3.64919]],[[286.41965,174.39136],[-3.64384,10.04567],[3.80969,-10.50287]],[[291.55861,141.10694],[-2.67951,10.71807],[-0.01502,-4.19469]],[[289.23847,128.15965],[2.27382,3.74099],[-8.72357,-14.35242]],[[245.36225,117.53352],[14.21459,-8.48332],[-1.76508,1.41207]],[[239.90669,121.14978],[1.80303,-1.14827],[0.10756,0.18931]],[[240.18182,121.8132],[-0.07423,-0.25449],[0.7,2.4]],[[238.48182,124.9132],[0,0],[-1.23591,0.36047]],[[234.80447,126.01815],[1.21611,-0.37692],[-0.36807,0.42159]],[[232.94714,126.77127],[0.91039,0],[-0.15443,0]],[[232.51188,126.74383],[0.13594,0.0179],[-6.56927,2.12444]],[[213.33094,134.45711],[6.2911,-3.14235],[-3.32605,1.66133]],[[204.31977,140.66881],[2.4752,-2.91231],[-2.08862,2.45745]],[[199.0554,148.78662],[1.77445,-2.69308],[-2.27855,3.45814]],[[195.89069,160.31159],[-0.01914,-4.11002],[0.01626,3.49054]],[[197.02877,170.36687],[-1.27981,-3.29452],[3.1981,7.4912]],[[213.12541,190.85751],[-7.2062,-5.0583],[0.3168,-0.69669]]],&quot;closed&quot;:true}]}" fill="url(#color-2)"></path><path d="M163.06366,139.34268c-0.00706,-0.02054 -0.01392,-0.04099 -0.02061,-0.06137c-2.42687,0.96348 -5.24767,2.6264 -5.43661,4.18454c-0.38825,3.20179 4.49337,8.36945 7.29535,9.74998c1.76637,0.87027 3.73665,1.98185 5.6756,1.63844c2.59155,-0.45899 7.39469,-7.50541 6.80628,-9.99713c-0.26454,-1.12023 -2.59464,-2.54182 -3.25578,-3.02487c-1.86776,-0.57968 -3.79667,-0.97012 -5.73207,-1.25083l-1.17604,0.79216c0,0 -3.09352,1.0626 -4.15612,-2.03092zM172.14601,134.63172c1.67792,0.37108 3.33622,0.83877 4.96505,1.37848c2.83943,2.09734 5.75921,3.52322 6.65969,7.43231c1.40556,6.1017 -5.7688,16.63398 -11.85306,17.81486c-1.95483,0.37941 -8.1329,-1.27121 -9.99907,-2.21946c-5.31853,-2.70252 -11.75682,-10.36472 -10.76693,-16.63614c0.89222,-5.6526 9.39626,-10.30374 14.71457,-10.48123c1.51141,-0.05044 2.91333,0.8125 4.36999,1.21875c0,0 1.25019,0.40411 1.90975,1.49243z" fill="#000000"></path><path d="M167.22464,141.30835l1.18721,-0.79035c1.93539,0.2807 3.90223,0.69762 5.77,1.2773c0.66114,0.48307 3.00155,1.92954 3.2661,3.04977c0.58843,2.49171 -4.25121,9.60943 -6.84275,10.06841c-1.93895,0.34341 -3.95584,-0.76472 -5.7222,-1.635c-2.80197,-1.3805 -7.72624,-6.63336 -7.33799,-9.83516c0.18893,-1.55812 3.04197,-3.25709 5.46885,-4.22056c0.0067,0.02037 0.01349,0.04086 0.02055,0.0614c1.0626,3.09351 4.19022,2.02419 4.19022,2.02419z" data-paper-data="{&quot;noHover&quot;:false,&quot;origItem&quot;:[&quot;Path&quot;,{&quot;applyMatrix&quot;:true,&quot;segments&quot;:[[[177.32617,205.32369],[1.5,2],[-0.00996,-0.01328]],[[177.29675,205.28391],[0.00966,0.01324],[-1.53848,1.2712]],[[174.32661,209.60517],[-0.22887,-1.17758],[0.4703,2.4198]],[[181.92421,214.98097],[-2.36229,-0.34531],[1.48919,0.21768]],[[186.437,214.83835],[-1.32939,0.70555],[1.77683,-0.94302]],[[189.03685,205.96785],[1.01368,1.6738],[-0.45573,-0.75251]],[[185.95798,204.53334],[0.59438,0.1959],[-1.49462,0.01749]],[[181.49524,204.97112],[1.47352,-0.25082],[0,0]],[180.82617,205.82369]],&quot;closed&quot;:true}]}" fill="url(#color-3)"></path><path d="M346.93215,138.18477c-0.80455,1.23285 -1.42084,2.88538 -1.95294,4.49136c-0.5903,1.78166 -1.49412,2.82338 -0.62609,4.71412c1.14605,2.49634 5.52069,3.96407 7.81243,5.08537c1.98898,0.97315 6.81267,3.77393 9.2413,3.74928c3.88921,-0.03948 6.55661,-5.60652 6.7236,-8.74927c-5.57261,-5.26911 -11.31562,-8.41448 -18.61429,-10.77367l1.53809,1.01432c0,0 -1.97307,2.00937 -4.12211,0.46848zM356.94227,132.45389c6.76128,2.80144 12.43585,6.60653 17.30275,12.69624c0.2152,7.6005 -3.33038,17.16527 -12.67637,17.61464c-3.46939,0.16681 -9.32818,-2.9731 -12.29201,-4.41974c-3.76333,-1.83687 -9.0639,-4.04555 -10.85785,-8.20168c-2.80374,-6.49551 1.8254,-18.38379 8.95974,-20.38966c5.08946,-1.43094 5.78164,0.10828 9.45968,2.61631c0,0 0.03901,0.02871 0.10406,0.08388z" fill="#000000"></path><path d="M351.02256,137.65908l-1.54207,-1.01193c7.29868,2.35919 13.1427,5.56305 18.71529,10.83217c-0.16698,3.14275 -2.86754,8.7631 -6.75675,8.80258c-2.42863,0.02465 -7.32165,-2.77926 -9.31063,-3.75244c-2.29175,-1.12131 -6.69452,-2.63958 -7.84059,-5.13591c-0.86802,-1.89075 0.03979,-2.95852 0.63009,-4.74017c0.5321,-1.606 1.1621,-3.28057 1.96664,-4.51344c2.14905,1.54089 4.13804,-0.48085 4.13804,-0.48085z" data-paper-data="{&quot;noHover&quot;:false,&quot;origItem&quot;:[&quot;Path&quot;,{&quot;applyMatrix&quot;:true,&quot;segments&quot;:[[[285.03743,207.56997],[1.92514,0.61544],[-0.2953,1.08573]],[[284.67295,211.29546],[0.00944,-1.29306],[-0.01047,1.43449]],[[285.3258,214.87103],[-1.07575,-1.17101],[1.42031,1.54608]],[[292.20292,216.7329],[-1.93029,-0.27675],[1.67527,0.24018]],[[299.80511,217.2872],[-1.76045,0.58884],[2.81919,-0.94297]],[[302.63817,209.34365],[0.61735,2.32485],[-5.29138,-2.52203]],[[286.56811,205.88417],[5.86262,0],[0,0]],[287.92515,206.26027]],&quot;closed&quot;:true}]}" fill="url(#color-4)"></path><path d="M315.33239,102.8438c-2.85464,-1.59688 -1.25775,-4.45152 -1.25775,-4.45152l1.05072,-1.4428c1.2745,-8.39995 1.56804,-17.59045 -3.74854,-24.89209c-1.77958,-2.44405 -4.76549,-3.72174 -7.15136,-5.57859c0,0 -2.58118,-2.0091 -0.5721,-4.59029c2.0091,-2.58118 4.59029,-0.5721 4.59029,-0.5721c2.78386,2.16709 6.12797,3.81831 8.23587,6.64725c6.55588,8.79844 6.61312,19.68616 5.11669,29.94716l-1.8123,3.67522c0,0 -1.59688,2.85464 -4.45152,1.25776z" fill="#d3faff"></path><path d="M247.08046,112.94479c0.36793,-0.31916 0.89543,-0.54796 1.65173,-0.54796c2.5,0 2.5,2.5 2.5,2.5c-0.24085,4.06248 3.35335,3.52649 6.81267,3.44462c1.55517,-0.03681 3.73149,-1.42834 4.66326,-0.18266c1.18636,1.58604 0.24549,4.04615 -0.36365,5.9308c-0.60803,1.88122 -3.36284,3.74703 -4.83843,4.97966c-4.38512,3.66312 -8.06681,7.63876 -13.71411,8.95957c-4.75059,1.11108 -7.76151,2.24954 -9.73986,-3.55365c-0.33439,-0.98089 -0.04458,-2.07216 -0.06687,-3.10825c0.01828,-7.88099 3.65293,-15.29904 11.42256,-17.99718z" fill="#000000"></path><path d="M247.43438,105.32724c-3.02115,-1.20846 -1.81269,-4.22962 -1.81269,-4.22962l1.41307,-3.34476c2.45027,-3.58732 2.70469,-7.38415 6.00506,-10.48736c1.04955,-0.98686 2.41308,-1.57682 3.57626,-2.4268c0.28753,-0.21011 0.54852,-0.46779 0.80525,-0.7317c-3.16538,-1.7186 -4.2305,-4.57536 -8.77849,-4.381c0,0 -3.25388,0.00001 -3.25388,-3.25388c0,-3.25388 3.25388,-3.25388 3.25388,-3.25388c5.97749,0.15886 8.78766,2.50223 13.56903,5.85089c1.66071,1.16308 4.77021,1.41613 5.02475,3.42758c0.27621,2.18267 -2.45391,3.66947 -3.91895,5.31081c-2.20484,2.47018 -3.40924,2.17331 -5.88,4.25485c-2.44882,2.06306 -3.19906,6.5654 -4.98812,9.30035l-0.78556,2.15183c0,0 -1.20846,3.02116 -4.22962,1.8127z" fill="#000000"></path><path d="M266.83281,108.16168c-3.25528,-1.48485 -1.62764,-4.45454 -1.62764,-4.45454l1.0281,-1.711c4.16489,-4.69975 9.12571,-8.91469 13.79408,-13.1735c0.58067,-0.52972 0.95199,-1.26128 1.42748,-1.88067c-2.57328,-0.984 -4.72444,-2.87356 -7.2444,-4.01917c0,0 -3.25528,-1.48485 -1.62764,-4.45454c1.62764,-2.96969 4.88291,-1.48484 4.88291,-1.48484c3.80376,1.74036 5.56997,2.30926 8.80635,4.58491c1.8907,1.32944 5.16003,2.04659 5.48129,4.2045c0.30527,2.05048 -2.73036,3.3053 -4.11974,4.94099c-4.70351,5.53739 -10.95877,9.93472 -15.71637,15.43057l-0.20151,0.53245c0,0 -1.62763,2.96969 -4.88291,1.48484z" fill="#000000"></path></g></g></svg>