<svg version="1.1" xmlns="http://www.w3.org/2000/svg" xmlns:xlink="http://www.w3.org/1999/xlink" width="65.83629" height="104.37148" viewBox="0,0,65.83629,104.37148"><g transform="translate(-201.91597,-141.27744)"><g data-paper-data="{&quot;isPaintingLayer&quot;:true}" fill-rule="nonzero" stroke="none" stroke-linecap="butt" stroke-linejoin="miter" stroke-miterlimit="10" stroke-dasharray="" stroke-dashoffset="0" style="mix-blend-mode: normal"><path d="M215.83324,149.32272c-3.96019,-0.62526 -7.89125,1.14547 -11.11315,3.34222c0,0 -0.04194,0.0286 -0.11144,0.06c0.16657,0.43294 0.32157,0.82879 0.44291,1.16251l0.03494,-0.01545c0,0 0.08122,-0.03249 0.19927,-0.04753c3.22273,-1.4616 6.52202,-2.4041 9.81392,-3.56324c0.1767,-0.16733 0.40466,-0.21292 0.40466,-0.21292c0.28239,-0.05579 0.53076,-0.10633 0.75374,-0.14838c-0.09512,-0.1884 -0.09512,-0.37772 -0.09512,-0.37772l0.00196,-0.03198c-0.14162,-0.02452 -0.24976,-0.08925 -0.3317,-0.16749zM202.3926,146.12859c1.47048,-2.31789 8.21166,-5.33475 10.97184,-4.78565c2.19339,0.43635 3.17893,3.1356 3.73624,4.96816c0.18486,0.89119 0.36805,1.78273 0.54756,2.675l0.01473,0.53609c0,0 0,0.12636 -0.05187,0.27535c0.46595,0.06943 0.89891,0.30138 1.55949,0.79379c2.96454,-1.04343 6.02136,-1.91972 9.17148,-2.70946c4.81521,-1.19674 10.40466,-1.69667 15.37209,-1.56736c1.48797,0.03874 3.15854,-0.18429 4.52639,0.55452c2.82817,1.52756 4.36033,4.48628 5.599,7.27326c2.2043,4.96884 2.90861,10.69225 3.15945,16.08511c0.07915,1.70172 0.38661,4.21222 -0.42138,5.77923c-1.15142,2.23306 -5.71341,4.0976 -7.89167,5.14855c-3.15859,1.52164 -6.47539,3.02248 -9.88589,4.35615c0.53939,0.42949 0.84919,0.8667 0.9755,1.29669c0.05433,0.03427 0.10737,0.06958 0.15914,0.1059c1.03375,-0.75653 2.90071,-2.15981 4.0608,-1.62056c1.96031,0.91121 2.09798,3.0058 1.09902,4.38881c2.66634,-0.29716 4.87118,5.98794 6.33556,8.13015c0.25531,-2.83603 3.8923,-3.03147 6.09289,-2.49073c0.26916,-0.00667 0.48859,0.14877 0.48859,0.14877c1.4273,1.011 2.98242,2.04237 3.90109,3.57166c0.10687,0.09054 0.16522,0.18132 0.16522,0.18132c3.44223,5.45969 -1.26335,10.43687 -6.6944,8.76773c0.08638,0.12455 0.12006,0.23947 0.12006,0.23947c1.22459,4.17802 2.45014,8.30538 4.66033,12.09072c0.40632,0.69591 2.58116,3.61397 2.32216,4.35461c-0.03038,0.08686 -0.07286,0.16443 -0.12519,0.23432c1.02556,0.34527 2.05556,0.68745 3.05892,1.08082c2.85238,1.11827 3.26519,4.04155 0.25122,5.56054c-2.63957,1.33031 -7.1159,-0.86787 -9.53809,-1.77333c-0.45194,-0.16894 -2.13724,-0.5738 -2.41629,-1.16681c-0.28448,-0.60455 -0.12915,-1.33002 -0.19373,-1.99502l0.19136,-0.57329c-0.19043,-0.06628 -0.37553,-0.13896 -0.55429,-0.21796c-0.3134,-0.86532 -0.62621,-1.73138 -0.9042,-2.60872l-0.02003,-0.04493c-0.2651,-0.03956 -0.45403,-0.2285 -0.45403,-0.2285l-0.15415,-0.16044c-0.13688,-0.11053 -0.27132,-0.22419 -0.40342,-0.34064c1.01212,1.54872 1.9051,3.36611 1.50303,5.05054c-0.32777,1.37317 -1.60173,2.66544 -2.01978,4.05503c-0.38149,1.26806 0.77501,2.35833 -0.79256,3.32324c-0.19203,0.1182 -0.39383,0.21767 -0.60388,0.29987c1.65601,1.37437 4.21058,2.65065 5.17456,4.31304c1.66253,2.86704 -3.12216,5.43252 -5.15695,5.92274c-4.00975,0.96604 -6.57172,-1.08712 -9.12284,-3.7974c-2.27043,-2.43089 -6.12422,-4.58606 -4.61557,-8.74345c0.08405,-0.23163 1.57449,-1.9961 1.86122,-2.34042l0.7516,-0.3542c-0.36997,-0.92401 -0.40964,-1.93719 0.09289,-3.10896c0.37484,-0.87404 2.28556,-1.41609 1.7857,-2.22516c-1.01839,-1.64834 -2.38689,-2.90109 -3.28795,-4.70363l-0.23135,-0.61493c-0.65489,-0.25961 -1.23315,-0.81105 -1.74281,-1.82165l-0.23902,-0.1846c0,0 -0.1563,-0.1563 -0.21434,-0.38404c-0.9086,0.99523 -0.89873,2.57148 -2.32249,3.29142c-1.70932,0.86433 -4.14687,0.69331 -6.27893,-0.09496c-0.2206,0.19035 -0.52124,0.19035 -0.52124,0.19035l-0.3084,-0.0224c-3.40689,-0.86852 -4.40857,-4.19329 -4.86736,-7.37916c-0.0108,-5.47743 0.41512,-11.41154 1.53207,-16.77889c0.55197,-2.65241 1.21193,-4.29581 3.59574,-3.93401c-0.06853,-0.26183 -0.09122,-0.5061 -0.05788,-0.72467c0.3598,-2.35889 4.34444,-2.26886 6.05476,-2.2631c-0.10423,-0.35692 -0.11356,-0.78747 -0.00426,-1.29934c-3.84112,1.10505 -7.73779,1.88224 -11.60568,2.14026c-3.8144,-0.14657 -4.77211,-2.11098 -6.98186,-4.99239c-4.51596,-5.88861 -6.60204,-12.16808 -8.70738,-19.21534c-0.34307,-1.97935 -0.60146,-3.92004 -0.7757,-5.92113l-0.12604,-1.26027c0,0 -0.0132,-0.13195 0.027,-0.29043c-1.11602,-0.85322 -0.51254,-2.56476 0.74281,-3.82898c-0.69885,-2.23733 -2.77155,-6.40488 -1.3686,-8.61633zM232.98527,202.72757l0.3096,0.57461c0,0 0.10287,0.20574 0.08073,0.44632c0.10556,0.0418 0.21158,0.08619 0.31804,0.13324c2.34968,1.03826 3.81409,4.3824 1.53274,5.88382c1.33636,1.76238 3.19616,4.73703 1.84649,6.40677c-0.29013,0.35894 -0.7885,0.39587 -1.29225,0.43317l0.38045,0.42027c1.10394,2.22993 3.46593,0.84894 5.57446,0.2469c4.24078,-1.21087 8.55162,-3.38694 11.35557,-6.91787c0.85683,-1.38905 0.65765,-2.41992 0.15228,-3.47384l-0.27019,-0.17813c0,0 -0.51991,-0.34364 -0.29862,-0.87834c-0.28298,-0.50214 -0.57837,-1.03455 -0.81672,-1.63254c-1.72608,-4.3305 -4.99451,-8.43823 -7.83816,-12.20341c-0.08129,0.20701 -0.26609,0.44228 -0.68616,0.44228c-0.75,0 -0.75,-0.75 -0.75,-0.75l0.08595,-1.74015c1.04541,-0.83087 2.60398,-2.00224 0.76107,-3.25778c-0.30621,-0.20862 -1.69288,0.76256 -2.4627,1.32666c0.97886,1.60343 0.58946,3.7922 -1.24188,4.76054c0.46285,-0.098 0.90157,-0.17138 1.21254,-0.17719c1.4174,-0.02649 3.17844,1.58047 2.48533,3.06202c3.05248,4.03695 7.06846,8.39191 7.48728,13.6626c0.11103,1.39717 -3.80172,4.88364 -5.37941,3.90907c-0.48296,-0.29834 -0.44143,-1.04602 -0.66214,-1.56903c-0.30608,-4.60468 -1.51327,-9.42174 -4.45388,-13.13525l-0.5506,-1.2237c0,0 -0.05093,-0.11459 -0.06428,-0.27089c-1.25405,-0.46279 -2.30992,-1.6545 -2.51546,-2.9195c-0.11299,-0.51665 0.24067,-0.74854 0.43475,-0.83483c-2.20317,0.12429 -4.8132,-0.78522 -5.91698,-2.52373c-0.21624,0.16313 -0.48749,0.16312 -0.48749,0.16312c-0.6065,0 -4.6782,-0.16425 -4.70133,1.02624c-0.02053,1.05665 3.9902,5.21065 4.97028,4.52551c0.43745,-0.30581 -0.02203,-1.21151 0.38767,-1.55361c1.60515,-1.34029 1.82218,-0.72402 2.98613,0.11538l0.26987,0.70267c0,0 0,0.75 -0.75,0.75c-0.45515,0 -0.63409,-0.27622 -0.70443,-0.4934c-0.90968,-0.52063 -1.20539,2.7222 -3.59196,1.84267c-1.0187,-0.37543 -2.9858,-2.09808 -4.14426,-3.76501c-0.20273,0.03286 -0.37715,-0.01946 -0.37715,-0.01946c-0.50969,-0.15356 -1.12862,-0.91773 -1.50311,-0.5394c-1.15166,1.16349 -1.19633,4.04782 -1.3274,5.55554c-0.33362,3.83748 -0.95412,7.50906 -1.18058,11.30129c0.00155,-0.00716 0.00311,-0.01433 0.00467,-0.0215l0.60018,-0.78426c0,0 0.3079,-0.38488 0.73651,-0.28101c1.22769,-2.77714 3.46008,-5.27876 6.31248,-5.90895c-0.00123,-0.01375 -0.00187,-0.02482 -0.00221,-0.03268c-0.2595,-0.67128 -0.5417,-1.33371 -0.82527,-1.99519c0,0 -0.29544,-0.68936 0.39392,-0.9848c0.07574,-0.03246 0.14672,-0.05303 0.21308,-0.06394c0.09903,-0.19805 0.19805,-0.3961 0.29708,-0.59415c0,0 0.33541,-0.67082 1.00623,-0.33541c0.67082,0.33541 0.33541,1.00623 0.33541,1.00623c-0.04647,0.09294 -0.09293,0.18587 -0.1394,0.27881c0.07658,0.04523 0.13617,0.10244 0.18253,0.16408c0.85165,0.53607 1.51754,1.07906 2.22077,1.91919zM254.92105,224.82035c0.13609,0.04697 0.23704,0.11105 0.31133,0.18393c1.62445,0.18916 3.37865,-0.25651 4.89674,-0.64035c0.30147,-0.07622 0.81356,0.16021 0.92368,-0.13058c0.10298,-0.27195 -0.47979,-0.34348 -0.65678,-0.57421c-0.11922,-0.15543 -1.4248,-2.40534 -1.52781,-2.58208c-1.92357,-3.30054 -3.13329,-6.84653 -4.22425,-10.46724c-0.09247,0.1933 -0.19919,0.39341 -0.32133,0.6013c-3.4195,4.25157 -8.43667,6.53328 -13.58258,7.88772c-0.91523,0.2409 -1.74581,0.48232 -2.49899,0.57333c0.8288,1.51945 2.89283,3.33659 3.30272,4.83013c0.39365,1.43439 -0.66829,1.5219 -1.35196,2.2767c-1.52367,1.6822 -0.54575,3.41891 0.78983,4.73942c2.05494,1.53933 5.5376,2.99393 8.13911,2.0797c0.45258,-0.15905 0.02507,-2.02674 0.12653,-2.39444c0.38784,-1.40557 1.62906,-2.64077 2.00478,-3.98353c0.53524,-1.91288 -1.57214,-4.39732 -2.55788,-5.76639c0,0 -0.11784,-0.16366 -0.14643,-0.38235c-0.00049,-0.00083 -0.00097,-0.00167 -0.00146,-0.00251c-0.37578,-0.64907 0.27329,-1.02485 0.27329,-1.02485c1.12275,-0.65001 2.17245,-1.27401 3.2414,-2.00935l0.7111,-0.44803c0,0 0.63462,-0.39968 1.03431,0.23495c0.39969,0.63462 -0.23494,1.03431 -0.23494,1.03431l-0.68572,0.43168c-0.54988,0.37783 -1.09639,0.72818 -1.64985,1.06768c0.30502,0.334 0.62604,0.6539 0.96545,0.95172c0.00689,-0.00324 0.0139,-0.00644 0.02101,-0.0096c0.68536,-0.30461 0.98996,0.38075 0.98996,0.38075l0.44561,1.00543c0.22347,0.69964 0.42063,1.40787 0.60039,2.11999c0.03284,0.01006 0.06577,0.01978 0.09879,0.02916c0.14149,-0.06938 0.32673,-0.09428 0.56395,-0.0124zM255.00886,226.82094c-0.03696,2.10393 4.88948,2.75318 6.73689,3.14644c0.61722,0.13139 2.57693,0.58396 3.25015,0.24467c0.35791,-0.18038 0.45494,-0.66232 0.71976,-0.96317c1.50414,-1.70875 -0.65912,-1.79607 -2.22219,-2.34304l-2.83158,-0.99105c0,0 -0.06797,-0.02379 -0.15441,-0.07769c-1.57649,0.69531 -3.56728,0.86994 -5.35005,0.57068zM238.37055,231.71046c-0.44003,0.57192 -1.11856,0.99847 -1.37296,1.67375c-1.26779,3.3652 2.51043,5.30743 4.3004,7.19672c2.16857,2.30434 4.21502,4.22328 7.67537,3.36811c0.89956,-0.22231 5.32461,-2.13753 4.17436,-3.78687c-1.17922,-1.69087 -3.92521,-2.90545 -5.44992,-4.43017c0,0 -0.0949,-0.0949 -0.16426,-0.24455c-2.66167,0.02654 -5.84149,-1.56464 -7.53469,-2.83584c-0.38619,-0.38969 -0.74358,-0.78448 -1.04916,-1.19191zM254.84161,203.28926l-0.80835,-0.46529c-0.72073,-0.62389 -1.21596,-1.50682 -1.56374,-2.39437c0,0 -0.08276,-0.2207 -0.03177,-0.46104c-0.00904,-0.00673 -0.01806,-0.01346 -0.02708,-0.0202c-0.35536,0.3758 -0.76261,0.19683 -0.92346,0.1008c0.6886,1.19877 1.29959,2.4197 1.7916,3.66235c0.30065,0.75933 0.63886,1.41338 0.94394,2.01995l0.78387,0.51949c2.63595,1.27199 5.19853,0.43282 6.26097,-1.38136c-0.90163,0.49596 -2.1352,0.57794 -3.5011,0.16814c-0.05525,-0.00925 -0.10951,-0.0193 -0.1628,-0.03012c-0.01083,0.09753 -0.02167,0.19506 -0.03251,0.29259l0.14035,0.01165c0,0 0.33541,0.67082 -0.33541,1.00623c-0.67082,0.33541 -1.00623,-0.33541 -1.00623,-0.33541l-0.28954,-0.84812c0.02711,-0.24398 0.05422,-0.48797 0.08133,-0.73195c-0.39782,-0.27902 -0.72359,-0.62616 -1.02148,-1.01614c-0.17271,-0.02526 -0.2986,-0.0972 -0.2986,-0.0972zM257.36312,203.39267l0.38602,0.05365c0.15682,0.06439 0.31054,0.12113 0.4607,0.17021c0.07398,0.00004 0.14995,-0.00288 0.22799,-0.00892h0.10747c0,0 0.32675,0 0.5489,0.21567c1.75793,0.22908 2.73419,-0.86589 1.88748,-3.2596c-0.61174,-1.72945 -2.24791,-2.75663 -3.66565,-3.74862c-0.0293,-0.00537 -0.04617,-0.01005 -0.04617,-0.01005c-1.66314,-0.48003 -4.38224,-0.7365 -4.31814,1.79167c0.02374,0.93632 1.15638,0.69783 1.53426,1.1803c0.91746,1.17138 1.41661,3.01406 2.74134,3.63069c0.08053,-0.01501 0.13581,-0.01501 0.13581,-0.01501zM223.03617,216.71867c1.22479,2.12455 6.05755,3.45188 8.34146,2.35663c1.05826,-0.50749 1.44227,-2.63085 2.28062,-3.33321c0.60132,-0.50378 1.7188,-0.01646 2.28625,-0.5581c0.86276,-0.82351 -1.73585,-4.30666 -2.44988,-5.19223c-0.10208,-0.07921 -0.19069,-0.19928 -0.2405,-0.37991c-0.0468,-0.13152 -0.07166,-0.30024 -0.00437,-0.47545c0.0576,-0.17864 0.18288,-0.29436 0.30187,-0.36737c0.16426,-0.11802 0.31941,-0.15273 0.45621,-0.14342l0.30144,-0.05008c1.31002,-0.35954 0.33351,-1.98451 -0.36348,-2.70403c-1.14415,-1.18114 -3.38362,-1.06183 -4.85958,-0.74534c-3.11331,0.66759 -4.04398,2.77928 -5.03471,5.53132c0,0 -0.25404,0.70567 -0.9597,0.45163c-0.03381,-0.01217 -0.0654,-0.02537 -0.09494,-0.03949c-0.36003,2.09216 -0.36332,3.54547 0.03932,5.64906zM241.6972,197.74276c3.06269,3.78528 4.35938,8.95342 4.65443,13.68365c-0.30481,0.88838 2.58254,-0.97717 3.14026,-1.6073c0.33647,-0.38014 -0.17518,-1.00123 -0.30294,-1.49255c-1.1798,-4.53703 -4.05753,-7.91593 -6.7975,-11.547c-0.30313,0.19958 -0.62083,0.32787 -0.94326,0.39473zM242.00218,194.99931c0.01896,-0.01402 0.03776,-0.02699 0.0564,-0.03898c-0.00612,-0.28252 -0.37787,-0.67595 -0.62489,-0.86289c-0.36744,-0.27807 -1.68166,0.10563 -2.54284,0.37611c0.40304,1.03228 1.69933,1.57409 2.83895,0.86014c0.0449,-0.11354 0.12901,-0.2284 0.27238,-0.33437zM238.20614,191.71528c1.80085,-0.29293 2.39683,-2.2982 1.26066,-3.33937c-0.95129,1.3955 -3.52311,2.45202 -5.56472,2.47205c1.18017,0.78589 3.10955,1.06162 4.30406,0.86732zM232.65037,188.40203c-0.60169,0.92205 -0.16314,0.54081 1.10787,0.63187c0.6613,0.04737 2.08091,0.39528 2.77143,-0.03936c0.74875,-0.47129 2.66272,-1.81932 1.17191,-2.45404l-0.81423,-0.30315c-1.42443,0.52392 -2.86284,1.01457 -4.31066,1.46159c0.22163,0.30853 0.07368,0.70308 0.07368,0.70308zM204.5909,159.78472l0.02002,0.20017c0.16827,1.93203 0.41463,3.80578 0.74235,5.71726c2.062,6.84235 4.05075,12.92591 8.43753,18.64608c1.92425,2.50913 2.54755,4.27698 5.77097,4.40535c9.76634,-0.65066 19.75686,-4.75071 28.47318,-8.94977c1.76513,-0.84901 6.32305,-2.64419 7.20197,-4.46987c0.64779,-1.34558 0.33086,-3.59314 0.26371,-5.03685c-0.24194,-5.20167 -0.89787,-10.7536 -3.03178,-15.54559c-1.11908,-2.51792 -2.42093,-5.12187 -4.93411,-6.5589c-1.34167,-0.76716 -3.83224,-0.43384 -5.32353,-0.41798c-4.35609,0.04635 -9.29379,0.4966 -13.50437,1.56223c-3.16527,0.79354 -6.23398,1.67371 -9.2074,2.72772c-0.15989,0.12969 -0.31738,0.1697 -0.45783,0.16395c-5.09626,1.84361 -9.91097,4.21452 -14.45072,7.5562z" fill="#000000" stroke-width="0.5"/><path d="M242.05187,195.00484c-0.14337,0.10597 -0.23078,0.23394 -0.27568,0.34748c-1.13962,0.71395 -2.53109,0.14254 -2.93413,-0.88974c0.86118,-0.27048 2.26392,-0.67356 2.63136,-0.39549c0.24702,0.18694 0.62886,0.61482 0.63498,0.89734c-0.01864,0.01199 -0.03758,0.02637 -0.05654,0.04039z" data-paper-data="{&quot;noHover&quot;:false,&quot;origItem&quot;:[&quot;Path&quot;,{&quot;applyMatrix&quot;:true,&quot;segments&quot;:[[[242.00218,194.99931],[0,0],[0.01896,-0.01402]],[[242.05858,194.96033],[-0.01864,0.01199],[-0.00612,-0.28252]],[[241.43369,194.09744],[0.24702,0.18694],[-0.36744,-0.27807]],[[238.89085,194.47355],[0.86118,-0.27048],[0.40304,1.03228]],[[241.7298,195.33369],[-1.13962,0.71395],[0.0449,-0.11354]],[[242.00218,194.99932],[-0.14337,0.10597],[0,0]]],&quot;closed&quot;:true,&quot;fillColor&quot;:[0,0,0,1]}]}" fill="#ff0000" stroke-width="0.5"/><path d="M241.42314,197.13102c0.32243,-0.06686 0.64576,-0.19795 0.94889,-0.39753c2.73997,3.63107 5.6704,7.09336 6.8502,11.63039c0.12776,0.49132 0.63503,1.1159 0.29856,1.49604c-0.55772,0.63013 -3.46828,2.50455 -3.16347,1.61617c-0.29505,-4.73023 -1.62287,-9.99109 -4.68556,-13.77637z" data-paper-data="{&quot;noHover&quot;:false,&quot;origItem&quot;:[&quot;Path&quot;,{&quot;applyMatrix&quot;:true,&quot;segments&quot;:[[[241.6972,197.74276],[0,0],[3.06269,3.78528]],[[246.35163,211.42641],[-0.29505,-4.73023],[-0.30481,0.88838]],[[249.49189,209.81911],[-0.55772,0.63013],[0.33647,-0.38014]],[[249.18895,208.32656],[0.12776,0.49132],[-1.1798,-4.53703]],[[242.39145,196.77956],[2.73997,3.63107],[-0.30313,0.19958]],[[241.44819,197.17429],[0.32243,-0.06686],[0,0]]],&quot;closed&quot;:true,&quot;fillColor&quot;:[0,0,0,1]}]}" fill="#ff0000" stroke-width="0.5"/><path d="M233.85359,190.86016c2.04161,-0.02003 4.70323,-1.11691 5.65452,-2.51241c1.13617,1.04117 0.52892,3.11458 -1.27193,3.40751c-1.19451,0.1943 -3.20242,-0.10921 -4.38259,-0.8951z" data-paper-data="{&quot;noHover&quot;:false,&quot;origItem&quot;:[&quot;Path&quot;,{&quot;applyMatrix&quot;:true,&quot;segments&quot;:[[[238.20614,191.71528],[-1.19451,0.1943],[1.80085,-0.29293]],[[239.4668,188.37591],[1.13617,1.04117],[-0.95129,1.3955]],[[233.90208,190.84796],[2.04161,-0.02003],[1.18017,0.78589]]],&quot;closed&quot;:true,&quot;fillColor&quot;:[0,0,0,1]}]}" fill="#9c9c9c" stroke-width="0.5"/><path d="M232.60191,188.41434c0,0 0.14641,-0.40732 -0.07522,-0.71585c1.44782,-0.44702 2.97251,-0.97161 4.39694,-1.49553l0.82272,0.31531c1.49081,0.63472 -0.43345,2.0412 -1.1822,2.51249c-0.69052,0.43464 -2.18292,0.08267 -2.84422,0.0353c-1.27101,-0.09106 -1.71972,0.27035 -1.11803,-0.6517z" data-paper-data="{&quot;noHover&quot;:false,&quot;origItem&quot;:[&quot;Path&quot;,{&quot;applyMatrix&quot;:true,&quot;segments&quot;:[[[232.65037,188.40203],[0,0],[-0.60169,0.92205]],[[233.75824,189.0339],[-1.27101,-0.09106],[0.6613,0.04737]],[[236.52967,188.99454],[-0.69052,0.43464],[0.74875,-0.47129]],[[237.70158,186.5405],[1.49081,0.63472],[0,0]],[[236.88735,186.23735],[0,0],[-1.42443,0.52392]],[[232.57669,187.69894],[1.44782,-0.44702],[0.22163,0.30853]],[232.65037,188.40202]],&quot;closed&quot;:true,&quot;fillColor&quot;:[0,0,0,1]}]}" fill="#151515" stroke-width="0.5"/><path d="M204.54341,159.76903c4.53975,-3.34168 9.37347,-5.73801 14.46973,-7.58162c0.14045,0.00575 0.29895,-0.03494 0.45884,-0.16463c2.97342,-1.05401 6.06587,-1.94225 9.23114,-2.73579c4.21058,-1.06563 9.17746,-1.50905 13.53355,-1.5554c1.49129,-0.01586 3.98921,-0.34387 5.33088,0.42329c2.51318,1.43703 3.82504,4.0529 4.94412,6.57082c2.13391,4.79199 2.79685,10.3738 3.03879,15.57547c0.06715,1.44371 0.38236,3.70082 -0.26543,5.0464c-0.87892,1.82568 -5.44296,3.63438 -7.20809,4.48339c-8.71632,4.19906 -18.77169,8.31644 -28.53803,8.9671c-3.22342,-0.12837 -3.85943,-1.90555 -5.78368,-4.41468c-4.38678,-5.72017 -6.3897,-11.84393 -8.4517,-18.68628c-0.32772,-1.91148 -0.57192,-3.79554 -0.74019,-5.72757l-0.01991,-0.2005z" data-paper-data="{&quot;noHover&quot;:false,&quot;origItem&quot;:[&quot;Path&quot;,{&quot;applyMatrix&quot;:true,&quot;segments&quot;:[[204.5909,159.78472],[[204.61092,159.98489],[0,0],[0.16827,1.93203]],[[205.35327,165.70215],[-0.32772,-1.91148],[2.062,6.84235]],[[213.7908,184.34823],[-4.38678,-5.72017],[1.92425,2.50913]],[[219.56177,188.75358],[-3.22342,-0.12837],[9.76634,-0.65066]],[[248.03495,179.80381],[-8.71632,4.19906],[1.76513,-0.84901]],[[255.23692,175.33394],[-0.87892,1.82568],[0.64779,-1.34558]],[[255.50063,170.29709],[0.06715,1.44371],[-0.24194,-5.20167]],[[252.46885,154.7515],[2.13391,4.79199],[-1.11908,-2.51792]],[[247.53474,148.1926],[2.51318,1.43703],[-1.34167,-0.76716]],[[242.21121,147.77462],[1.49129,-0.01586],[-4.35609,0.04635]],[[228.70684,149.33685],[4.21058,-1.06563],[-3.16527,0.79354]],[[219.49944,152.06457],[2.97342,-1.05401],[-0.15989,0.12969]],[[219.04161,152.22852],[0.14045,0.00575],[-5.09626,1.84361]],[[204.59089,159.78472],[4.53975,-3.34168],[0,0]]],&quot;closed&quot;:true,&quot;fillColor&quot;:[0,0,0,1]}]}" fill="#151515" stroke-width="0.5"/><path d="M238.91507,231.42362c0.30558,0.40743 0.66263,0.80255 1.04882,1.19224c1.6932,1.2712 4.94458,2.86407 7.60625,2.83753c0.06936,0.14965 0.16706,0.24783 0.16706,0.24783c1.52471,1.52472 4.27931,2.78402 5.45853,4.47489c1.15025,1.64934 -3.29585,3.59272 -4.19541,3.81503c-3.46035,0.85517 -5.57394,-1.0761 -7.74251,-3.38044c-1.78997,-1.88929 -5.57183,-3.88539 -4.30404,-7.25059c0.2544,-0.67528 0.93984,-1.11147 1.37987,-1.68339z" data-paper-data="{&quot;noHover&quot;:false,&quot;origItem&quot;:[&quot;Path&quot;,{&quot;applyMatrix&quot;:true,&quot;segments&quot;:[[[238.37055,231.71046],[0,0],[-0.44003,0.57192]],[[236.99759,233.38421],[0.2544,-0.67528],[-1.26779,3.3652]],[[241.29799,240.58093],[-1.78997,-1.88929],[2.16857,2.30434]],[[248.97336,243.94904],[-3.46035,0.85517],[0.89956,-0.22231]],[[253.14772,240.16217],[1.15025,1.64934],[-1.17922,-1.69087]],[[247.6978,235.732],[1.52471,1.52472],[0,0]],[[247.53354,235.48745],[0.06936,0.14965],[-2.66167,0.02654]],[[239.99885,232.65161],[1.6932,1.2712],[-0.38619,-0.38969]],[[238.94969,231.4597],[0.30558,0.40743],[0,0]]],&quot;closed&quot;:true,&quot;fillColor&quot;:[0,0,0,1]}]}" fill="#151515" stroke-width="0.5"/><path d="M255.10964,226.39309c1.78277,0.29926 3.81894,0.08938 5.39543,-0.60593c0.08644,0.0539 0.15788,0.07764 0.15788,0.07764l2.87679,1.02206c1.56307,0.54697 3.72882,0.66438 2.22468,2.37313c-0.26482,0.30085 -0.36562,0.79351 -0.72353,0.97389c-0.67322,0.33929 -2.65217,-0.09225 -3.26939,-0.22364c-1.84741,-0.39326 -6.84836,-1.09638 -6.8114,-3.20031z" data-paper-data="{&quot;noHover&quot;:false,&quot;origItem&quot;:[&quot;Path&quot;,{&quot;applyMatrix&quot;:true,&quot;segments&quot;:[[[255.00886,226.82094],[0,0],[-0.03696,2.10393]],[[261.74575,229.96738],[-1.84741,-0.39326],[0.61722,0.13139]],[[264.9959,230.21205],[-0.67322,0.33929],[0.35791,-0.18038]],[[265.71566,229.24888],[-0.26482,0.30085],[1.50414,-1.70875]],[[263.49347,226.90584],[1.56307,0.54697],[0,0]],[260.66189,225.91479],[[260.50748,225.8371],[0.08644,0.0539],[-1.57649,0.69531]],[[255.15743,226.40778],[1.78277,0.29926],[0,0]]],&quot;closed&quot;:true,&quot;fillColor&quot;:[0,0,0,1]}]}" fill="#151515" stroke-width="0.5"/><path d="M257.36688,203.44252c0,0 -0.05739,0.00011 -0.13792,0.01512c-1.32473,-0.61663 -1.87497,-2.51671 -2.79243,-3.68809c-0.37788,-0.48247 -1.50784,-0.25423 -1.53158,-1.19055c-0.0641,-2.52817 2.70398,-2.30397 4.36712,-1.82394c0,0 0.01756,0.00472 0.04686,0.01009c1.41774,0.99199 3.10076,2.07412 3.7125,3.80357c0.84671,2.39371 -0.15552,3.52763 -1.91345,3.29855c-0.22215,-0.21567 -0.55352,-0.21347 -0.55352,-0.21347l-0.10872,0.0005c-0.07804,0.00604 -0.15684,0.00995 -0.23082,0.00991c-0.15016,-0.04908 -0.30953,-0.10439 -0.46635,-0.16878l-0.39169,-0.05289z" data-paper-data="{&quot;noHover&quot;:false,&quot;origItem&quot;:[&quot;Path&quot;,{&quot;applyMatrix&quot;:true,&quot;segments&quot;:[[257.36312,203.39267],[[257.74914,203.44632],[0,0],[0.15682,0.06439]],[[258.20984,203.61653],[-0.15016,-0.04908],[0.07398,0.00004]],[[258.43783,203.60761],[-0.07804,0.00604],[0,0]],[258.5453,203.60761],[[259.0942,203.82328],[-0.22215,-0.21567],[1.75793,0.22908]],[[260.98168,200.56368],[0.84671,2.39371],[-0.61174,-1.72945]],[[257.31603,196.81506],[1.41774,0.99199],[-0.0293,-0.00537]],[[257.26986,196.80501],[0,0],[-1.66314,-0.48003]],[[252.95172,198.59668],[-0.0641,-2.52817],[0.02374,0.93632]],[[254.48598,199.77698],[-0.37788,-0.48247],[0.91746,1.17138]],[[257.22732,203.40767],[-1.32473,-0.61663],[0.08053,-0.01501]],[257.36313,203.39266]],&quot;closed&quot;:true,&quot;fillColor&quot;:[0,0,0,1]}]}" fill="#151515" stroke-width="0.5"/><path d="M222.99539,216.7476c-0.40264,-2.10359 -0.40782,-3.5944 -0.04779,-5.68656c0.02954,0.01412 0.0611,0.02749 0.09491,0.03966c0.70566,0.25404 0.9609,-0.45693 0.9609,-0.45693c0.99073,-2.75204 1.96709,-4.89996 5.0804,-5.56755c1.47596,-0.31649 3.74692,-0.42652 4.89107,0.75462c0.69699,0.71952 1.6846,2.35541 0.37458,2.71495l-0.38111,0.11051c-0.1368,-0.00931 -0.29098,0.02661 -0.45524,0.14463c-0.11899,0.07301 -0.16669,0.12564 -0.22429,0.30428c-0.06729,0.17521 -0.04003,0.3472 0.00677,0.47872c0.04981,0.18063 0.14094,0.30486 0.24302,0.38407c0.71403,0.88557 3.31408,4.41334 2.45132,5.23685c-0.56745,0.54164 -1.69206,0.06559 -2.29338,0.56937c-0.83835,0.70236 -1.24702,2.84168 -2.30528,3.34917c-2.28391,1.09525 -7.1711,-0.25126 -8.39589,-2.37581z" data-paper-data="{&quot;noHover&quot;:false,&quot;origItem&quot;:[&quot;Path&quot;,{&quot;applyMatrix&quot;:true,&quot;segments&quot;:[[[223.03617,216.71867],[0,0],[1.22479,2.12455]],[[231.37763,219.0753],[-2.28391,1.09525],[1.05826,-0.50749]],[[233.65825,215.74209],[-0.83835,0.70236],[0.60132,-0.50378]],[[235.9445,215.18399],[-0.56745,0.54164],[0.86276,-0.82351]],[[233.49462,209.99176],[0.71403,0.88557],[-0.10208,-0.07921]],[[233.25412,209.61185],[0.04981,0.18063],[-0.0468,-0.13152]],[[233.24975,209.1364],[-0.06729,0.17521],[0.0576,-0.17864]],[[233.55162,208.76903],[-0.11899,0.07301],[0.16426,-0.11802]],[[234.00783,208.62561],[-0.1368,-0.00931],[0,0]],[[234.30927,208.57553],[0,0],[1.31002,-0.35954]],[[233.94579,205.8715],[0.69699,0.71952],[-1.14415,-1.18114]],[[229.08621,205.12616],[1.47596,-0.31649],[-3.11331,0.66759]],[[224.0515,210.65748],[0.99073,-2.75204],[0,0]],[[223.0918,211.10911],[0.70566,0.25404],[-0.03381,-0.01217]],[[222.99686,211.06962],[0.02954,0.01412],[-0.36003,2.09216]],[[223.03618,216.71868],[-0.40264,-2.10359],[0,0]]],&quot;closed&quot;:true,&quot;fillColor&quot;:[0,0,0,1]}]}" fill="#151515" stroke-width="0.5"/><path d="M254.96597,224.8423c-0.23722,-0.08188 -0.42357,-0.05484 -0.56506,0.01454c-0.03302,-0.00938 -0.15347,-0.06747 -0.18631,-0.07753c-0.17976,-0.71212 -0.38291,-1.40151 -0.60638,-2.10115l-0.44528,-0.99212c0,0 -0.30213,-0.67592 -0.98749,-0.37131c-0.00711,0.00316 -0.01413,0.00633 -0.02102,0.00957c-0.33941,-0.29782 -0.64561,-0.59667 -0.95063,-0.93067c0.55346,-0.3395 1.16895,-0.76194 1.71883,-1.13977l0.61102,-0.36521c0,0 0.63822,-0.39595 0.23853,-1.03057c-0.39969,-0.63463 -1.0279,-0.22985 -1.0279,-0.22985l-0.7081,0.44989c-1.06895,0.73534 -2.07613,1.3627 -3.19888,2.01271c0,0 -0.63252,0.36544 -0.25674,1.01451c0.00049,0.00084 0.00098,0.00167 0.00147,0.0025c0.02859,0.21869 0.15071,0.37778 0.15071,0.37778c0.98574,1.36907 3.06988,3.86926 2.53464,5.78214c-0.37572,1.34276 -1.6345,2.58031 -2.02234,3.98588c-0.10146,0.3677 0.32597,2.23539 -0.12661,2.39444c-2.60151,0.91423 -6.11598,-0.5538 -8.17092,-2.09313c-1.33558,-1.32051 -2.32444,-3.07213 -0.80077,-4.75433c0.68367,-0.7548 1.74253,-0.85051 1.34888,-2.2849c-0.40989,-1.49354 -2.47452,-3.33508 -3.30332,-4.85453c0.75318,-0.09101 1.58539,-0.33808 2.50062,-0.57898c5.14591,-1.35444 10.22971,-3.66555 13.64921,-7.91712c0.12214,-0.20789 0.22908,-0.4079 0.32155,-0.6012c1.09096,3.62071 2.33057,7.20636 4.25414,10.5069c0.10301,0.17674 1.40856,2.43946 1.52778,2.59489c0.17699,0.23073 0.75944,0.30433 0.65646,0.57628c-0.11012,0.29079 -0.62246,0.05568 -0.92393,0.1319c-1.51809,0.38384 -3.27648,0.84176 -4.90093,0.6526c-0.07429,-0.07288 -0.17514,-0.13717 -0.31123,-0.18414z" data-paper-data="{&quot;noHover&quot;:false,&quot;origItem&quot;:[&quot;Path&quot;,{&quot;applyMatrix&quot;:true,&quot;segments&quot;:[[[254.92105,224.82035],[0,0],[0.13609,0.04697]],[[255.23238,225.00428],[-0.07429,-0.07288],[1.62445,0.18916]],[[260.12912,224.36393],[-1.51809,0.38384],[0.30147,-0.07622]],[[261.0528,224.23335],[-0.11012,0.29079],[0.10298,-0.27195]],[[260.39602,223.65914],[0.17699,0.23073],[-0.11922,-0.15543]],[[258.86821,221.07706],[0.10301,0.17674],[-1.92357,-3.30054]],[[254.64396,210.60982],[1.09096,3.62071],[-0.09247,0.1933]],[[254.32263,211.21112],[0.12214,-0.20789],[-3.4195,4.25157]],[[240.74005,219.09884],[5.14591,-1.35444],[-0.91523,0.2409]],[[238.24106,219.67217],[0.75318,-0.09101],[0.8288,1.51945]],[[241.54378,224.5023],[-0.40989,-1.49354],[0.39365,1.43439]],[[240.19182,226.779],[0.68367,-0.7548],[-1.52367,1.6822]],[[240.98165,231.51842],[-1.33558,-1.32051],[2.05494,1.53933]],[[249.12076,233.59812],[-2.60151,0.91423],[0.45258,-0.15905]],[[249.24729,231.20368],[-0.10146,0.3677],[0.38784,-1.40557]],[[251.25207,227.22015],[-0.37572,1.34276],[0.53524,-1.91288]],[[248.69419,221.45376],[0.98574,1.36907],[0,0]],[[248.54776,221.07141],[0.02859,0.21869],[-0.00049,-0.00083]],[[248.5463,221.0689],[0.00049,0.00084],[-0.37578,-0.64907]],[[248.81959,220.04405],[0,0],[1.12275,-0.65001]],[[252.06099,218.0347],[-1.06895,0.73534],[0,0]],[252.77209,217.58667],[[253.8064,217.82162],[-0.39969,-0.63463],[0.39969,0.63462]],[253.57146,218.85593],[[252.88574,219.28761],[0,0],[-0.54988,0.37783]],[[251.23589,220.35529],[0.55346,-0.3395],[0.30502,0.334]],[[252.20134,221.30701],[-0.33941,-0.29782],[0.00689,-0.00324]],[[252.22235,221.29741],[-0.00711,0.00316],[0.68536,-0.30461]],[253.21231,221.67816],[[253.65792,222.68359],[0,0],[0.22347,0.69964]],[[254.25831,224.80358],[-0.17976,-0.71212],[0.03284,0.01006]],[[254.3571,224.83274],[-0.03302,-0.00938],[0.14149,-0.06938]],[[254.92105,224.82034],[-0.23722,-0.08188],[0,0]]],&quot;closed&quot;:true,&quot;fillColor&quot;:[0,0,0,1]}]}" fill="#1f1f1f" stroke-width="0.5"/><path d="M254.89146,203.29301c0,0 0.12603,0.06893 0.29874,0.09419c0.29789,0.38998 0.58423,0.68751 0.98205,0.96653c-0.02711,0.24398 -0.05632,0.48756 -0.08343,0.73154l0.28122,0.8474c0,0 0.31905,0.67352 0.98987,0.33811c0.67082,-0.33541 0.32296,-0.9999 0.32296,-0.9999l-0.13834,-0.01299c0.01084,-0.09753 0.01794,-0.19246 0.02877,-0.28999c0.05329,0.01082 0.10553,0.0225 0.16078,0.03175c1.3659,0.4098 2.67977,0.38025 3.5814,-0.11571c-1.06244,1.81418 -3.69461,2.68405 -6.33056,1.41206l-0.79615,-0.52785c-0.30508,-0.60657 -0.65907,-1.29238 -0.95972,-2.05171c-0.49201,-1.24265 -1.09447,-2.49679 -1.78307,-3.69556c0.16085,0.09603 0.57163,0.27044 0.92699,-0.10536c0.00902,0.00674 0.09342,0.07918 0.10246,0.08591c-0.05099,0.24034 0.03387,0.45846 0.03387,0.45846c0.34778,0.88755 0.85176,1.75222 1.57249,2.37611l0.80968,0.45702z" data-paper-data="{&quot;noHover&quot;:false,&quot;origItem&quot;:[&quot;Path&quot;,{&quot;applyMatrix&quot;:true,&quot;segments&quot;:[[254.84161,203.28926],[[254.03326,202.82397],[0,0],[-0.72073,-0.62389]],[[252.46952,200.4296],[0.34778,0.88755],[0,0]],[[252.43775,199.96856],[-0.05099,0.24034],[-0.00904,-0.00673]],[[252.41067,199.94836],[0.00902,0.00674],[-0.35536,0.3758]],[[251.48721,200.04916],[0.16085,0.09603],[0.6886,1.19877]],[[253.27881,203.71151],[-0.49201,-1.24265],[0.30065,0.75933]],[[254.22275,205.73146],[-0.30508,-0.60657],[0,0]],[[255.00662,206.25095],[0,0],[2.63595,1.27199]],[[261.26759,204.86959],[-1.06244,1.81418],[-0.90163,0.49596]],[[257.76649,205.03773],[1.3659,0.4098],[-0.05525,-0.00925]],[[257.60369,205.00761],[0.05329,0.01082],[-0.01083,0.09753]],[[257.57118,205.3002],[0.01084,-0.09753],[0,0]],[257.71153,205.31185],[[257.37612,206.31808],[0.67082,-0.33541],[-0.67082,0.33541]],[256.36989,205.98267],[[256.08035,205.13455],[0,0],[0.02711,-0.24398]],[[256.16168,204.4026],[-0.02711,0.24398],[-0.39782,-0.27902]],[[255.1402,203.38646],[0.29789,0.38998],[-0.17271,-0.02526]],[254.8416,203.28926]],&quot;closed&quot;:true,&quot;fillColor&quot;:[0,0,0,1]}]}" fill="#2d2d2d" stroke-width="0.5"/><path d="M232.93543,202.73056c-0.70323,-0.84013 -1.36785,-1.39765 -2.2195,-1.93372c-0.04636,-0.06164 -0.10576,-0.11963 -0.18234,-0.16486c0.04647,-0.09294 0.09349,-0.18789 0.13996,-0.28083c0,0 0.33728,-0.67598 -0.33354,-1.01139c-0.67082,-0.33541 -0.91277,0.37076 -0.91277,0.37076c-0.09903,0.19805 -0.19701,0.39253 -0.29604,0.59058c-0.06636,0.01091 -0.13719,0.03087 -0.21293,0.06333c-0.68936,0.29544 -0.39292,0.97921 -0.39292,0.97921c0.28357,0.66148 0.56586,1.31265 0.82536,1.98393c0.00034,0.00786 0.00096,0.01874 0.00219,0.03249c-2.8524,0.63019 -5.08916,3.11616 -6.31685,5.8933c-0.42861,-0.10387 -0.73644,0.28116 -0.73644,0.28116l-0.60074,0.78309c-0.00156,0.00717 -0.0928,0.05858 -0.09435,0.06574c0.22646,-3.79223 0.84305,-7.4971 1.17667,-11.33458c0.13107,-1.50772 0.1828,-4.40852 1.33446,-5.57201c0.37449,-0.37833 0.99415,0.38477 1.50384,0.53833c0,0 0.25592,0.11026 0.45865,0.0774c1.15846,1.66693 3.04248,3.33404 4.06118,3.70947c2.38657,0.87953 2.69904,-2.37986 3.60872,-1.85923c0.07034,0.21718 0.25153,0.49213 0.70668,0.49213c0.75,0 0.7565,-0.75289 0.7565,-0.75289l-0.23572,-0.60868c-1.16395,-0.8394 -1.36798,-1.46274 -2.97313,-0.12245c-0.4097,0.3421 0.05528,1.24298 -0.38217,1.54879c-0.98008,0.68514 -5.06266,-3.53841 -5.04213,-4.59506c0.02313,-1.19049 4.10695,-1.03558 4.71345,-1.03558c0,0 0.27296,-0.00089 0.4892,-0.16402c1.10378,1.73851 3.73651,2.64273 5.93968,2.51844c-0.19408,0.08629 -0.55031,0.31823 -0.43732,0.83488c0.20554,1.265 1.282,2.46014 2.53605,2.92293c0.01335,0.1563 0.06559,0.27143 0.06559,0.27143l0.55964,1.22872c2.94061,3.71351 4.14994,8.6109 4.45602,13.21558c0.22071,0.52301 0.11887,1.19094 0.60183,1.48928c1.57769,0.97457 5.47553,-2.49453 5.3645,-3.8917c-0.41882,-5.27069 -4.42273,-9.5645 -7.47521,-13.60145c0.69311,-1.48155 -1.05137,-3.0792 -2.46877,-3.05271c-0.31097,0.00581 -0.72351,-0.01716 -1.18636,0.08084c1.83134,-0.96834 2.22147,-3.15695 1.24261,-4.76038c0.76982,-0.5641 2.16251,-1.5335 2.46872,-1.32488c1.84291,1.25554 0.24859,2.52029 -0.79682,3.35116l-0.0466,1.64825c0,0 0.00385,0.75196 0.75385,0.75196c0.42007,0 0.60621,-0.23449 0.6875,-0.4415c2.84365,3.76518 6.13575,7.92173 7.86183,12.25223c0.23835,0.59799 0.5329,1.13528 0.81588,1.63742c-0.22129,0.5347 0.29801,0.88076 0.29801,0.88076l0.27011,0.17843c0.50537,1.05392 0.70096,2.09391 -0.15587,3.48296c-2.80395,3.53093 -7.14605,5.73242 -11.38683,6.94329c-2.10853,0.60204 -4.48889,1.98455 -5.59283,-0.24538l-0.36873,-0.51957c0.50375,-0.0373 0.99768,-0.07462 1.28781,-0.43356c1.34967,-1.66974 -0.52809,-4.547 -1.86445,-6.30938c2.28135,-1.50142 0.78571,-4.87605 -1.56397,-5.91431c-0.10646,-0.04705 -0.2133,-0.09391 -0.31886,-0.13571c0.02214,-0.24058 -0.08195,-0.45124 -0.08195,-0.45124l-0.31043,-0.58122z" data-paper-data="{&quot;noHover&quot;:false,&quot;origItem&quot;:[&quot;Path&quot;,{&quot;applyMatrix&quot;:true,&quot;segments&quot;:[[232.98527,202.72757],[233.29487,203.30218],[[233.3756,203.7485],[0.02214,-0.24058],[0.10556,0.0418]],[[233.69364,203.88174],[-0.10646,-0.04705],[2.34968,1.03826]],[[235.22638,209.76556],[2.28135,-1.50142],[1.33636,1.76238]],[[237.07287,216.17233],[1.34967,-1.66974],[-0.29013,0.35894]],[[235.78062,216.6055],[0.50375,-0.0373],[0,0]],[[236.16107,217.02577],[0,0],[1.10394,2.22993]],[[241.73553,217.27267],[-2.10853,0.60204],[4.24078,-1.21087]],[[253.0911,210.3548],[-2.80395,3.53093],[0.85683,-1.38905]],[[253.24338,206.88096],[0.50537,1.05392],[0,0]],[252.97319,206.70283],[[252.67457,205.82449],[-0.22129,0.5347],[-0.28298,-0.50214]],[[251.85785,204.19195],[0.23835,0.59799],[-1.72608,-4.3305]],[[244.01969,191.98854],[2.84365,3.76518],[-0.08129,0.20701]],[[243.33353,192.43082],[0.42007,0],[-0.75,0]],[242.58353,191.68082],[[242.66948,189.94067],[0,0],[1.04541,-0.83087]],[[243.43055,186.68289],[1.84291,1.25554],[-0.30621,-0.20862]],[[240.96785,188.00955],[0.76982,-0.5641],[0.97886,1.60343]],[[239.72597,192.77009],[1.83134,-0.96834],[0.46285,-0.098]],[[240.93851,192.5929],[-0.31097,0.00581],[1.4174,-0.02649]],[[243.42384,195.65492],[0.69311,-1.48155],[3.05248,4.03695]],[[250.91112,209.31752],[-0.41882,-5.27069],[0.11103,1.39717]],[[245.53171,213.22659],[1.57769,0.97457],[-0.48296,-0.29834]],[[244.86957,211.65756],[0.22071,0.52301],[-0.30608,-4.60468]],[[240.41569,198.52231],[2.94061,3.71351],[0,0]],[239.86509,197.29861],[[239.80081,197.02772],[0.01335,0.1563],[-1.25405,-0.46279]],[[237.28535,194.10822],[0.20554,1.265],[-0.11299,-0.51665]],[[237.7201,193.27339],[-0.19408,0.08629],[-2.20317,0.12429]],[[231.80312,190.74966],[1.10378,1.73851],[-0.21624,0.16313]],[[231.31563,190.91278],[0,0],[-0.6065,0]],[[226.6143,191.93902],[0.02313,-1.19049],[-0.02053,1.05665]],[[231.58458,196.46453],[-0.98008,0.68514],[0.43745,-0.30581]],[[231.97225,194.91092],[-0.4097,0.3421],[1.60515,-1.34029]],[[234.95838,195.0263],[-1.16395,-0.8394],[0,0]],[235.22825,195.72897],[[234.47825,196.47897],[0.75,0],[-0.45515,0]],[[233.77382,195.98557],[0.07034,0.21718],[-0.90968,-0.52063]],[[230.18186,197.82824],[2.38657,0.87953],[-1.0187,-0.37543]],[[226.0376,194.06323],[1.15846,1.66693],[-0.20273,0.03286]],[[225.66045,194.04377],[0,0],[-0.50969,-0.15356]],[[224.15734,193.50437],[0.37449,-0.37833],[-1.15166,1.16349]],[[222.82994,199.05991],[0.13107,-1.50772],[-0.33362,3.83748]],[[221.64936,210.3612],[0.22646,-3.79223],[0.00155,-0.00716]],[[221.65403,210.3397],[-0.00156,0.00717],[0,0]],[222.25421,209.55544],[[222.99072,209.27443],[-0.42861,-0.10387],[1.22769,-2.77714]],[[229.3032,203.36548],[-2.8524,0.63019],[-0.00123,-0.01375]],[[229.30099,203.3328],[0.00034,0.00786],[-0.2595,-0.67128]],[[228.47572,201.33761],[0.28357,0.66148],[0,0]],[[228.86964,200.35281],[-0.68936,0.29544],[0.07574,-0.03246]],[[229.08272,200.28887],[-0.06636,0.01091],[0.09903,-0.19805]],[[229.3798,199.69472],[-0.09903,0.19805],[0,0]],[[230.38603,199.35931],[-0.67082,-0.33541],[0.67082,0.33541]],[[230.72144,200.36554],[0,0],[-0.04647,0.09294]],[[230.58204,200.64435],[0.04647,-0.09294],[0.07658,0.04523]],[[230.76457,200.80843],[-0.04636,-0.06164],[0.85165,0.53607]],[[232.98534,202.72762],[-0.70323,-0.84013],[0,0]]],&quot;closed&quot;:true,&quot;fillColor&quot;:[0,0,0,1]}]}" fill="#2d2d2d" stroke-width="0.5"/><path d="M215.87947,149.30374c0.08194,0.07824 0.19091,0.14512 0.33253,0.16964l-0.00188,0.03221c0,0 0.00097,0.19238 0.09609,0.38078c-0.22298,0.04205 -0.56744,0.12028 -0.84983,0.17607c0,0 -0.13178,0.01824 -0.30848,0.18557c-3.2919,1.15914 -6.68511,2.13514 -9.90784,3.59674c-0.11805,0.01504 -0.1994,0.04724 -0.1994,0.04724l-0.03494,0.01545c-0.12134,-0.33372 -0.2795,-0.73959 -0.44607,-1.17253c0.0695,-0.0314 0.11138,-0.06031 0.11138,-0.06031c3.2219,-2.19675 7.24827,-3.99613 11.20846,-3.37087z" data-paper-data="{&quot;noHover&quot;:false,&quot;origItem&quot;:[&quot;Path&quot;,{&quot;applyMatrix&quot;:true,&quot;segments&quot;:[[[215.83324,149.32272],[0,0],[-3.96019,-0.62526]],[[204.72009,152.66494],[3.2219,-2.19675],[0,0]],[[204.60865,152.72494],[0.0695,-0.0314],[0.16657,0.43294]],[[205.05156,153.88745],[-0.12134,-0.33372],[0,0]],[205.0865,153.872],[[205.28577,153.82447],[-0.11805,0.01504],[3.22273,-1.4616]],[[215.09969,150.26123],[-3.2919,1.15914],[0.1767,-0.16733]],[[215.50435,150.04831],[0,0],[0.28239,-0.05579]],[[216.25809,149.89993],[-0.22298,0.04205],[-0.09512,-0.1884]],[216.16297,149.52221],[[216.16493,149.49023],[0,0],[-0.14162,-0.02452]],[[215.83323,149.32274],[0.08194,0.07824],[0,0]]],&quot;closed&quot;:true,&quot;fillColor&quot;:[0,0,0],&quot;strokeWidth&quot;:0.5}]}" fill="#ff0000" stroke-width="0.25"/><path d="M208.93624,161.76814c-0.04948,-0.04741 -0.09718,-0.10585 -0.14187,-0.17736c-0.3975,-0.636 0.2385,-1.0335 0.2385,-1.0335c6.98008,-4.35588 15.25397,-6.43274 23.2143,-8.1265c3.69608,-0.7864 7.39346,-1.56124 11.0979,-2.30211c0.80766,-0.16153 2.95785,-1.01955 3.68259,-0.63762c1.26423,0.66623 1.49997,2.21703 1.84294,3.30713c0.91583,2.91082 2.05242,5.3581 2.03689,8.54408c0.86828,2.99641 1.32728,6.40765 1.38946,9.52788c0.02845,1.42745 0.2934,3.19091 -0.46811,4.48265c-2.21878,3.76371 -7.17491,4.59762 -10.88394,6.06116c-4.93678,1.93177 -10.1658,3.27465 -15.21697,4.90803c-1.68299,0.54422 -4.64619,1.84215 -6.4027,1.26698c-1.41831,-0.46444 -2.16986,-1.87416 -3.04633,-2.94294c-2.83397,-4.84225 -4.01463,-10.50759 -6.02925,-15.71653c-0.87768,-2.26931 -2.02067,-4.81138 -1.31341,-7.16134z" fill="#000000" stroke-width="0.5"/><path d="M224.19344,180.21444c-0.43697,-0.15575 -0.46045,-0.67238 -0.46045,-0.67238c-0.25195,-5.56439 -0.29108,-10.8369 0.30581,-16.39346c0.11688,-1.08808 -0.26647,-4.37822 0.59201,-5.13152c1.48174,-1.30021 2.93793,0.89708 3.8504,1.72265c3.09482,2.84721 5.36021,6.19065 8.0437,9.38448c0.65223,0.77627 3.19532,2.66268 3.34358,3.72324c0.20126,1.43969 -1.00181,1.7785 -1.9285,2.34741c-2.38232,1.46255 -4.79035,2.69795 -7.31656,3.88214c-1.76989,0.8296 -3.49132,1.59633 -5.34078,2.22894l-0.9817,-0.92168c0,0 -0.05569,-0.06497 -0.1075,-0.16983zM225.22013,179.23212c0.13701,0.07949 0.2197,0.17596 0.2197,0.17596l0.1828,0.4369c1.38706,-0.84194 2.89537,-1.43764 4.36415,-2.12616c2.0267,-0.94999 3.97148,-1.89655 5.89669,-3.04427c0.42947,-0.25603 0.85507,-0.51869 1.28842,-0.7681c0.41506,-0.23888 1.50851,-0.35143 1.23059,-0.74144c-0.75244,-1.05593 -2.15372,-2.03606 -3.02577,-3.07557c-2.63714,-3.14357 -4.86347,-6.44198 -7.90649,-9.24158c-0.30775,-0.27844 -0.62344,-0.54836 -0.92326,-0.83532c-0.30515,-0.29207 -0.95956,-1.34471 -0.85475,-0.93552c0.75651,2.95359 -0.5805,6.97609 -0.75453,9.99055c-0.19719,3.41554 0.11962,6.76621 0.28245,10.16457z" fill="#ff0000" stroke-width="0.5"/><path d="M226.54642,169.60978c0,-0.41421 0.33579,-0.75 0.75,-0.75c0.41421,0 0.75,0.33579 0.75,0.75c0,0.41421 -0.33579,0.75 -0.75,0.75c-0.41421,0 -0.75,-0.33579 -0.75,-0.75z" fill="#ff0000" stroke-width="0.5"/><path d="M229.94287,167.57191c0,-0.41421 0.33579,-0.75 0.75,-0.75c0.41421,0 0.75,0.33579 0.75,0.75c0,0.41421 -0.33579,0.75 -0.75,0.75c-0.41421,0 -0.75,-0.33579 -0.75,-0.75z" fill="#ff0000" stroke-width="0.5"/><path d="M230.00709,174.70908c-0.3085,0.30851 -0.54557,0.54514 -0.57465,0.57423c0,0 -0.53033,0.53033 -1.06066,0c-0.53033,-0.53033 0,-1.06066 0,-1.06066c0.33653,-0.33653 3.06498,-3.64434 3.14403,-3.65799c1.82096,-0.31456 3.50681,2.73434 1.94457,3.98616c-0.90953,0.7288 -1.93685,0.48254 -2.91074,0.36333l0.00217,0.00659c0,0 -0.32267,0 -0.54472,-0.21165zM231.21119,173.50136c0.42526,0.06468 0.83896,0.09484 1.28414,-0.09889c0.46253,-0.20127 -0.17815,-1.63626 -0.61436,-1.38295c-0.31156,0.18092 -0.05774,0.74676 -0.24977,1.0516c-0.0084,0.01333 -0.17814,0.1863 -0.42,0.43024z" fill="#ff0000" stroke-width="0.5"/></g></g></svg>