<svg version="1.1" xmlns="http://www.w3.org/2000/svg" xmlns:xlink="http://www.w3.org/1999/xlink" width="102.0997" height="117.28968" viewBox="0,0,102.0997,117.28968"><defs><radialGradient cx="263.27693" cy="180.38944" r="7.3567" gradientUnits="userSpaceOnUse" id="color-1"><stop offset="0" stop-color="#54606d"/><stop offset="1" stop-color="#2c3136"/></radialGradient></defs><g transform="translate(-186.96766,-122.29128)"><g data-paper-data="{&quot;isPaintingLayer&quot;:true}" stroke-miterlimit="10" stroke-dasharray="" stroke-dashoffset="0" style="mix-blend-mode: normal"><path d="M232.12012,199.74642c0.26364,0.69812 0.78048,1.99199 1.37151,3.72659c1.12239,3.29404 2.5123,8.1774 2.94372,13.5881l0.00745,0.41224c0.00745,0.41224 0.44964,0.71962 0.88438,0.61472c2.72094,-1.11647 8.09531,-3.05712 8.51437,2.68435c0.46404,5.54659 -15.50176,12.02063 -18.16201,7.0959c-0.93666,-2.16627 0.12785,-3.66519 0.72008,-4.45213c0.30735,-0.44218 0.41984,-0.92937 0.43491,-1.43905c-0.11978,-1.25923 -0.40432,-3.58281 -0.89879,-5.44171c-1.17621,-4.68472 -1.82815,-5.86156 -2.83975,-8.14775c-1.01159,-2.28619 -3.58185,-7.60068 0.36852,-10.4859c3.3507,-2.51054 5.86884,-0.08175 6.65562,1.84464z" fill="#ffab19" fill-rule="evenodd" stroke="#001026" stroke-width="1.2" stroke-linecap="round" stroke-linejoin="round"/><g fill-rule="evenodd"><path d="M217.91441,199.46485c0.62499,0.63982 1.93676,2.04669 -1.44391,4.47382c-3.38067,2.42715 -10.12971,0.83008 -10.88564,0.56822c-2.96196,-0.92021 -6.55264,-2.16402 -10.06303,-4.86164c-10.21867,-7.77296 -6.02528,-20.18405 -1.65274,-20.89183c4.27804,-0.74051 3.23311,7.46974 6.82627,13.90007c1.5477,2.86438 4.02608,4.56952 6.13022,5.82756c3.01632,1.67983 10.40208,0.21675 11.08883,0.98379z" fill="#ffab19" stroke="#001026" stroke-width="1.2" stroke-linecap="round" stroke-linejoin="round"/><path d="M197.13183,183.69353c0.62809,3.07498 2.31352,7.68034 2.31352,7.68034c0,0 -3.20159,-2.06151 -5.74235,-1.14252c-2.03187,0.67195 -2.37401,2.88169 -2.41414,3.60858c-0.80287,-1.6539 -1.72557,-3.87847 -1.52486,-7.51297c0.2007,-3.63451 2.52035,-7.27583 4.60658,-7.18815c2.02075,0.27667 2.00224,1.8577 2.76126,4.55472z" fill="#ffffff" stroke="none" stroke-width="1" stroke-linecap="butt" stroke-linejoin="miter"/></g><path d="M239.75221,189.99083c0.47214,0.43253 6.07706,8.0243 8.19295,6.36205c2.53504,-1.93483 6.1018,-5.805 9.47308,-2.27167c3.37129,3.53332 -3.78794,8.66611 -6.78173,9.96886c-7.09183,2.6317 -12.28481,-3.62954 -13.37514,-5.30621c-1.09033,-1.67665 -3.00509,-4.51103 -2.83125,-7.10521c0.28699,-2.78704 3.7262,-3.25814 5.32208,-1.64784z" fill="#ffab19" fill-rule="evenodd" stroke="#001026" stroke-width="1.2" stroke-linecap="round" stroke-linejoin="round"/><path d="M216.70378,208.92989c-0.4054,-2.14855 0.35735,-5.73063 4.53833,-5.43435c4.88811,0.28352 5.6729,6.43958 6.08904,9.03397c0.41612,2.59441 1.29635,3.80411 2.89751,8.60734c0.61219,1.92181 0.88026,4.33403 1.47455,5.51274c0.16343,0.24534 3.56295,10.51406 -4.87289,12.21586c-7.44792,1.5025 -4.37578,-12.15098 -4.37578,-12.15098c0,0 -3.96153,-10.168 -4.84087,-13.71435c-0.46305,-1.86746 -0.74502,-3.30392 -0.90987,-4.07024z" data-paper-data="{&quot;index&quot;:null}" fill="#ffab19" fill-rule="evenodd" stroke="#001026" stroke-width="1.2" stroke-linecap="round" stroke-linejoin="round"/><g fill-rule="evenodd"><path d="M220.28983,205.86244c-10.09726,-6.25982 -4.12017,-11.17248 -2.525,-16.44366c1.55167,-4.54449 2.79895,-4.00199 8.9164,-4.13133c3.42754,-0.249 5.44502,-0.38972 7.57102,-0.96431c3.19983,-0.81307 3.65474,4.00287 3.31813,6.63852c0,0 -0.56455,3.91551 -1.42171,6.05217c-1.06331,2.59217 -1.90957,4.31666 -2.88593,5.45541c0,0 -2.09789,2.44797 -4.3623,3.04024c-2.03546,0.53238 -8.61062,0.35295 -8.61062,0.35295z" fill="#ffab19" stroke="#001026" stroke-width="1.2" stroke-linecap="round" stroke-linejoin="round"/><path d="M232.36244,202.56673c0,0 -1.72448,-0.84626 -3.61164,-1.96371c-2.34267,-1.32361 -4.62029,-2.35432 -3.33994,-5.8142c1.23688,-2.73315 2.20268,-6.22561 7.22438,-4.37016c4.78308,1.70356 3.47027,4.55601 3.47027,4.55601c-1.17209,4.86993 -3.74308,7.59205 -3.74308,7.59205z" fill="#ffffff" stroke="none" stroke-width="1" stroke-linecap="butt" stroke-linejoin="miter"/></g><g data-paper-data="{&quot;index&quot;:null}" fill-rule="evenodd"><path d="M230.13119,138.03911c2.31261,-0.31907 4.71815,-0.43476 7.50942,-0.13666c4.69011,0.36474 9.1277,2.22155 9.1277,2.22155l11.61238,-4.8378c0.40678,-0.18584 -1.18734,15.71017 -1.18734,15.71017c-0.57157,-0.82055 10.14448,13.16395 2.64897,24.30788c-7.49551,11.14394 -22.76511,15.71113 -41.42376,11.35394c-18.65863,-4.35719 -22.67711,-15.30488 -21.2779,-20.95929c1.39919,-5.65438 8.56849,-7.50405 8.56849,-7.50405c0,0 0.25779,-4.49373 3.64875,-9.8781c2.01459,-3.23132 8.57551,-7.70393 8.57551,-7.70393l2.97372,-10.60221c0.11398,-0.39624 0.61718,-0.47865 0.90998,-0.26825z" fill="#ffab19" stroke="#001026" stroke-width="1.2" stroke-linecap="butt" stroke-linejoin="miter"/><path d="M205.99493,158.60517c8.56142,-1.60066 9.13994,4.72352 16.31796,5.47577c8.37378,0.89427 20.1859,-7.79672 26.50645,3.13171c6.32405,10.8285 -5.67399,24.81622 -29.6837,18.97043c-18.46227,-4.25023 -22.89803,-14.71224 -21.49883,-20.36666c1.3992,-5.65439 8.3581,-7.21126 8.3581,-7.21126z" fill="#ffffff" stroke="none" stroke-width="1" stroke-linecap="butt" stroke-linejoin="miter"/><path d="M199.32354,163.37407c0,0 -7.19206,-0.3525 -11.75587,-4.31503" fill="none" stroke="#001026" stroke-width="1.2" stroke-linecap="round" stroke-linejoin="round"/><path d="M198.71682,169.25641c0,0 -3.96422,1.76203 -10.24282,1.04135" fill="none" stroke="#001026" stroke-width="1.2" stroke-linecap="round" stroke-linejoin="round"/><path d="M227.35542,162.95712c-0.05612,1.59902 -4.34122,3.95014 -6.13311,3.68715c-1.59551,-0.15607 -2.99638,-3.00696 -2.84733,-4.4026c0.12449,-0.69607 2.33015,-0.81877 4.42886,-0.74511c1.99877,0.07016 4.6936,0.2648 4.55157,1.46056z" fill="#001026" stroke="#001026" stroke-width="1.2" stroke-linecap="round" stroke-linejoin="round"/><path d="M255.52927,167.04788c3.60658,-2.97533 12.2995,-5.47193 12.2995,-5.47193" fill="none" stroke="#001026" stroke-width="1.2" stroke-linecap="round" stroke-linejoin="round"/><path d="M266.77843,171.54526c0,0 -7.43404,0.83973 -11.67175,-1.01005" fill="none" stroke="#001026" stroke-width="1.2" stroke-linecap="round" stroke-linejoin="round"/><g><path d="M221.9835,144.95758c2.73514,1.89711 2.45631,6.99046 -0.59977,11.38598c-3.156,4.392 -7.82684,6.32936 -10.56197,4.43224c-2.73514,-1.89711 -2.4563,-6.99046 0.59977,-11.38598c3.05606,-4.39551 7.83034,-6.4293 10.56197,-4.43224z" fill="#ffffff" stroke="#001026" stroke-width="1.2" stroke-linecap="round" stroke-linejoin="round"/><path d="M216.10978,155.42887c0.0386,-1.09932 0.86967,-1.9707 1.86906,-1.93563c0.99939,0.03507 1.76732,0.96259 1.72874,2.06191c-0.0386,1.09932 -0.86967,1.9707 -1.86906,1.93563c-0.99939,-0.03507 -1.76732,-0.96259 -1.72874,-2.06191" fill="#001026" stroke="none" stroke-width="1" stroke-linecap="butt" stroke-linejoin="miter"/></g><g><path d="M236.10802,153.05804c3.1525,-4.29207 7.9338,-6.52573 10.9512,-4.11839c3.02093,2.30738 2.6211,7.99686 -0.63133,12.28542c-3.1525,4.29206 -7.5989,5.53685 -10.83022,3.52226c-2.63168,-1.99354 -2.64215,-7.39724 0.51035,-11.68929z" fill="#ffffff" stroke="#001026" stroke-width="1.2" stroke-linecap="round" stroke-linejoin="round"/><path d="M240.99309,159.19591c0.03859,-1.09932 0.86614,-1.87076 1.86905,-1.93563c0.9994,0.03507 1.76733,0.96259 1.72875,2.06191c-0.0386,1.09931 -0.86968,1.9707 -1.86906,1.93563c-0.99939,-0.03507 -1.76732,-0.9626 -1.72874,-2.06192" fill="#001026" stroke="none" stroke-width="1" stroke-linecap="butt" stroke-linejoin="miter"/></g></g><g fill-rule="nonzero" stroke="#001026" stroke-width="1.2" stroke-linejoin="miter"><g><path d="M245.69193,201.70903l7.84716,-20.74929l11.54656,6.43187l-12.71174,17.18316c0,0 -2.57575,0.5427 -3.65475,0.07992c-1.14448,-0.49084 -3.02724,-2.94567 -3.02724,-2.94567z" fill="#505a63" stroke-linecap="butt"/><path d="M253.55298,179.39744c1.97718,-3.54946 6.45741,-4.82404 10.00686,-2.84686c3.54946,1.97718 4.82405,6.45743 2.84687,10.00686c-1.97718,3.54946 -6.45742,4.82405 -10.00687,2.84686c-3.54946,-1.97718 -4.82403,-6.45743 -2.84686,-10.00689z" fill="url(#color-1)" stroke-linecap="butt"/><path d="M254.18107,186.94998c0,0 1.41772,-4.41008 2.44648,-6.30732c0.96149,-1.77315 3.53788,-4.72902 3.53788,-4.72902" fill="none" stroke-linecap="round"/><path d="M260.23245,190.1575c0,0 1.65036,-5.51577 2.54892,-7.55861c0.66392,-1.50936 2.35481,-3.58978 2.35481,-3.58978" fill="none" stroke-linecap="round"/><path d="M253.28858,179.75778c0,0 5.02299,-0.08225 7.4487,0.63477c2.11035,0.62379 6.29169,3.42669 6.29169,3.42669" fill="none" stroke-linecap="round"/><path d="M252.53421,185.21611c0,0 5.52707,0.26238 7.94411,0.7184c1.8789,0.3545 5.35465,1.7907 5.35465,1.7907" fill="none" stroke-linecap="round"/></g><path d="M258.41017,199.85815c-1.31149,2.37112 -4.40261,3.46541 -6.90423,2.44416c-2.50162,-1.02126 -4.02785,-3.20367 -2.71636,-5.57482c1.3115,-2.37112 4.96406,-4.03308 7.46567,-3.01182c2.50161,1.02126 3.46638,3.77133 2.15489,6.14247z" fill="#ffab19" stroke-linecap="butt"/></g><g data-paper-data="{&quot;index&quot;:null}" fill-rule="nonzero" stroke="#001026" stroke-width="1.2" stroke-linecap="butt" stroke-linejoin="miter"><path d="M248.17914,147.09455c-0.80145,-4.50715 4.16398,-2.45954 16.50026,-1.15017c12.33626,1.30938 22.9865,6.02459 23.78796,10.53175c0.70704,3.97623 -6.48725,6.46218 -16.66211,6.09365c-1.35859,-0.0492 -4.22351,-0.30355 -4.22351,-0.30355c0,0 -18.60115,-10.66451 -19.40259,-15.17167z" fill="#00b0f7"/><path d="M236.25182,142.75401l-11.46558,-19.56916c0,0 21.08286,4.81092 30.28828,8.30539c7.61132,2.88933 21.07686,11.19327 21.07686,11.19327l-12.15797,2.07461z" fill="#ff2b2b"/><path d="M244.58883,155.85317c0,0 2.5309,-6.11565 3.53139,-9.41288c1.06307,-3.5035 2.67061,-11.02689 2.67061,-11.02689l25.35182,7.69246c0,0 -0.24664,6.74738 -1.26418,10.10082c-1.04886,3.45666 -4.93784,10.33894 -4.93784,10.33894z" data-paper-data="{&quot;index&quot;:null}" fill="#cc0000"/><path d="M215.39748,142.67369c0,0 1.223,-7.90416 2.69738,-11.20186c1.43036,-3.19924 6.02081,-8.29793 6.02081,-8.29793l29.61082,13.23877c0,0 -3.85115,6.67553 -5.34551,10.01791c-1.40637,3.1456 -3.3727,9.48189 -3.3727,9.48189z" fill="#f70000"/></g><path d="M226.93936,194.6976c2.3736,3.38531 6.31783,5.02023 6.63914,7.53875c0.2097,1.64369 -0.29915,3.36704 -1.1379,3.95513c-0.93483,0.65546 -3.30467,0.6949 -4.99546,-0.29869c-2.15062,-1.26378 -6.00104,-2.67024 -8.19717,-5.80243c-1.93724,-2.76296 -2.0313,-7.12662 -2.63177,-9.43162c-0.61544,-2.36236 0.54402,-3.97375 1.61902,-4.72748c1.16061,-0.81375 2.89894,-0.94716 5.10547,0.69981c1.83144,1.36701 1.81951,5.52902 3.59867,8.06652z" fill="#ffab19" fill-rule="nonzero" stroke="#001026" stroke-width="1.2" stroke-linecap="butt" stroke-linejoin="miter"/><path d="M217.21647,174.20245c0.42989,-1.69525 3.85241,-2.28999 7.6444,-1.32838c3.792,0.9616 6.5175,3.11539 6.08762,4.81064c-0.42989,1.69523 -3.52467,0.99755 -7.31666,0.03595c-3.79199,-0.9616 -6.84525,-1.82298 -6.41535,-3.51822z" data-paper-data="{&quot;index&quot;:null}" fill="#ffffff" fill-rule="nonzero" stroke="#001026" stroke-width="1.2" stroke-linecap="butt" stroke-linejoin="miter"/></g></g></svg>