<svg version="1.1" xmlns="http://www.w3.org/2000/svg" xmlns:xlink="http://www.w3.org/1999/xlink" width="72.59096" height="108.04422" viewBox="0,0,72.59096,108.04422"><g transform="translate(-201.89723,-131.27388)"><g data-paper-data="{&quot;isPaintingLayer&quot;:true}" fill-rule="nonzero" stroke="none" stroke-linecap="butt" stroke-linejoin="miter" stroke-miterlimit="10" stroke-dasharray="" stroke-dashoffset="0" style="mix-blend-mode: normal"><path d="M208.89779,193.21452l-7.00056,-49.98319l59.92016,-11.95744l12.6708,45.17556l-12.8301,7.67195l5.94901,2.71484l-14.26981,11.07506l9.18581,17.64375l-10.70324,2.0713l-2.71824,11.40894l-7.72647,-6.02144l0.38666,12.6871l-6.00392,3.61716l-4.25913,-16.73404l1.07901,-27.78859z" fill="#ffffff" stroke-width="0"/><path d="M235.40012,188.26446c1.51898,-1.12771 6.56499,-4.73242 8.89257,-2.86349c0.5262,-2.30932 2.93212,-4.17237 5.65639,-4.00801c0.84454,0.05095 1.58735,0.60679 2.38103,0.91019l0.59935,0.66005c0.73484,-0.68067 1.42933,-1.38198 2.07627,-2.08844c-2.95509,0.57639 -6.41972,-0.13058 -8.84539,-1.3795c-0.83837,-0.43167 -1.7496,-0.81582 -2.39888,-1.50844c-0.2996,-0.3196 0.11035,-1.03339 -0.23476,-1.30102c-0.23833,-0.18481 -0.39277,0.49256 -0.67199,0.59787c-0.69485,0.26206 -1.4489,0.32272 -2.17509,0.47592c-3.74282,0.78957 -7.24187,0.87925 -11.05019,0.69868c-3.45456,-3.04407 -3.73807,-5.77372 -1.16704,-9.56238l0.36816,-0.64664c0,0 0.88944,-1.52915 2.39661,-0.61166c1.50717,0.91749 0.61772,2.44664 0.61772,2.44664l-0.53694,0.90941c-0.97209,1.29722 -1.86615,2.7425 -0.45848,4.13089c3.09978,-0.2983 6.01083,-0.20546 9.09533,-0.85737c0.88756,-0.18759 4.44676,-1.05644 5.08008,-0.79349c1.16442,0.48346 1.44356,2.28479 2.59822,2.79234c2.09168,0.91944 6.57978,2.15389 8.56007,0.52629c1.67136,-1.3737 1.13576,-4.36654 1.12249,-6.22512c0,0 -0.01273,-1.78328 1.73727,-1.78328c1.75,0 1.76273,1.78328 1.76273,1.78328c0.01633,2.28752 0.30007,4.54953 -0.73994,6.69437c-0.25329,0.52236 -0.56173,0.98337 -0.9158,1.38763c0.00986,0.00926 0.01954,0.01855 0.02906,0.02786c3.58284,-0.56742 7.85559,-3.71184 6.1927,-7.91697c-0.32955,-0.83339 -1.4639,-1.42524 -1.35961,-2.31438c0.16803,-1.43262 2.06765,-2.20932 2.28844,-3.6341c0.2653,-1.71192 -0.87532,-2.85746 -1.66047,-4.25508c-1.28574,-2.28868 -2.38501,-4.42961 -4.35406,-6.18356c-2.80507,-2.06818 -6.60894,-5.1036 -9.9554,-6.05212c-1.98972,-0.56396 -4.16058,0.2662 -6.09392,-0.30662c-3.09559,-0.91719 -4.12631,-4.24188 -7.00723,-5.53575c-5.52641,-2.48201 -10.19066,-0.54572 -14.56112,2.77304c-1.52301,1.89417 -2.43551,4.02144 -4.71817,5.15349c-1.79029,0.88786 -3.97277,0.13008 -4.90719,2.35666c-0.73388,1.74875 -0.25703,5.09948 0.13733,6.92677c0.18833,0.87263 0.84906,1.73902 0.63344,2.60207c-0.22163,0.88708 -1.2089,1.35005 -1.79384,2.04256c-1.57681,1.86675 -2.88844,4.14682 -3.13302,6.65286c-0.3028,3.10258 3.67311,3.78345 4.51723,6.11505c0.31701,0.87564 -0.23256,1.84536 -0.34886,2.76803c-0.313,5.52339 1.72133,8.46026 7.11694,10.16016c2.05203,0.64649 4.81645,1.87723 5.82543,-0.45707l0.53949,-1.56406c0,0 0.03413,-0.09758 0.10908,-0.23708c-6.86935,-7.20051 -8.8231,-17.41009 -1.986,-26.27788c1.86264,-2.41586 5.22578,-4.07982 7.77923,-5.55097c0,0 1.51902,-0.87427 2.38807,0.67999c0.86906,1.55425 -0.64996,2.42854 -0.64996,2.42854c-2.11943,1.21853 -5.27656,2.67221 -6.80683,4.71899c-6.5259,8.72858 -3.22746,18.54472 5.08997,24.41897c0.75202,0.41369 1.5131,0.7383 2.27948,0.9819c0.19988,-0.56316 0.66003,-0.906 0.66003,-0.906zM239.2233,194.60206l-0.36405,-0.17709c0.53428,1.63105 1.02837,3.27357 1.52147,4.91608c0.4013,0.32494 0.84328,0.68203 1.31372,1.09345c0.0466,0.01134 0.08401,0.02211 0.11029,0.03025l-0.00105,-0.0014c0,0 0.00786,0.00266 0.0223,0.00816c0.01468,0.00482 0.02245,0.00768 0.02245,0.00768c3.88715,1.43772 8.79324,2.81271 12.38186,4.81601c1.03282,0.57656 2.71279,0.95332 2.84027,2.14352c0.14488,1.35263 -1.29163,2.41835 -2.25121,3.35594c-0.01636,0.01598 -0.86271,0.64135 -1.65672,0.87285c0.18652,0.08594 0.35745,0.16498 0.48131,0.21544c0.71581,0.29159 1.418,0.61726 2.12699,0.9259l0.95826,0.22027c0,0 1.70084,0.4325 1.28875,2.16254c-0.41209,1.73003 -2.11293,1.29752 -2.11293,1.29752l-1.48941,-0.40215c-2.41923,-1.05338 -6.6647,-2.00628 -5.70303,-6.05952c0.24142,-1.01758 1.73795,-1.11499 2.64795,-1.59797c0.07342,-0.03897 0.15494,-0.08244 0.24223,-0.12802c-0.1263,-0.03544 -0.24109,-0.07162 -0.33754,-0.10578c-3.17436,-1.1246 -6.21777,-2.64046 -9.35311,-3.88959c0.661,2.02999 1.38174,4.042 2.23774,6.01385c1.1585,2.66873 4.33875,6.37385 4.47565,9.24395c0.21505,4.50831 -3.91876,7.04274 -6.58094,2.17455c-0.39435,-0.72112 -0.07964,-1.64452 -0.11947,-2.46678l1.92179,-1.98915c-1.02687,-1.82095 -2.04577,-3.5779 -2.90215,-5.55331c-0.25812,-0.5954 -0.50421,-1.19432 -0.74027,-1.79616c-0.80668,3.64843 -1.2824,7.39062 -2.15172,11.02588c-0.27043,1.13085 -1.05453,2.12597 -1.14968,3.28711c-0.22196,2.7085 2.0974,6.6631 3.02061,9.19873l0.11082,0.76503c0,0 0.01273,1.78328 -1.73727,1.78328c-1.37447,0 -1.67727,-1.10005 -1.74393,-1.57217c-1.17929,-3.138 -3.35701,-7.14224 -3.13988,-10.47606c0.08504,-1.30561 0.94323,-2.60888 1.24243,-3.87074c1.26182,-5.32162 1.77681,-10.79388 3.53288,-15.96436c-0.27255,-0.87039 -0.53779,-1.74297 -0.80138,-2.61609c-1.69184,-1.3701 -3.1954,-2.8758 -3.10565,-5.37665c0.02675,-0.74531 0.31369,-1.51783 0.69167,-2.26044c-0.05129,-0.14614 -0.10301,-0.29215 -0.15519,-0.43803c0,0 -0.09455,-0.26437 -0.10594,-0.62081c-1.36469,-0.3274 -2.72436,-0.84323 -4.06632,-1.57297c-0.40967,-0.29182 -0.8094,-0.59247 -1.19874,-0.90146l-0.26982,0.76279c-0.5325,0.84873 -0.7985,1.95323 -1.5975,2.54616c-1.6297,1.20941 -4.01927,0.79743 -5.78404,0.47264c-4.43975,-0.8171 -9.05062,-2.94756 -11.34688,-7.12828c-1.31034,-2.38568 -1.00949,-5.07246 -0.85532,-7.66099c0.80532,-1.43953 -1.04998,-1.85629 -2.26433,-3.44095c-1.66753,-2.17606 -2.05932,-2.27669 -1.93764,-5.10378c0.10326,-2.39916 1.25029,-4.98159 2.5334,-6.95303c0.4547,-0.69864 0.95497,-1.37843 1.55217,-1.95467c0.25023,-0.24144 0.84996,-0.1067 0.93702,-0.44713c0.08466,-0.331 -0.50552,-0.49565 -0.61261,-0.82126c-0.22958,-0.69796 -0.30604,-1.4415 -0.37242,-2.17339c-0.17727,-1.95474 -0.48131,-5.28103 0.3942,-7.08282c1.74018,-3.58131 3.64547,-2.89811 6.65148,-4.17877c1.49715,-0.63782 2.8151,-3.33049 3.76424,-4.49406c5.43088,-4.21459 11.55214,-6.54399 18.37803,-3.45117c1.48666,0.6736 2.96608,1.85345 4.09457,3.04629c0.71732,0.75822 1.24665,2.03808 2.41372,2.31036c1.97314,0.46034 4.06183,-0.27404 6.12666,0.31579c3.81682,1.0903 8.01301,4.35206 11.20854,6.70754c3.15706,2.86297 8.00773,9.27403 7.29113,13.83581c-0.12999,0.82749 -0.36556,1.67899 -0.84134,2.36019c-0.31553,0.45177 -1.30416,0.30575 -1.40238,0.85235c-0.08097,0.45055 0.92735,0.3754 1.10584,0.79774c0.32849,0.77726 0.28011,1.67241 0.29479,2.51642c0.10946,6.29279 -4.84301,10.28278 -10.49565,10.37675l-0.10216,0.15487c-0.63797,0.7368 -1.31442,1.46155 -2.02487,2.16522c0.45601,0.01936 0.94524,0.07966 1.47208,0.18037c1.07423,0.20536 2.64911,0.72786 3.60056,1.732c0.22297,0.04924 0.36862,0.11647 0.36862,0.11647c0.56176,0.25934 1.12351,0.51869 1.68527,0.77803l0.66968,0.51808c0,0 1.24644,1.26097 0.01801,2.52193c-1.03138,1.0587 -2.07545,0.33965 -2.38388,0.08173c-0.119,-0.05494 -0.23799,-0.10987 -0.357,-0.16482c-1.89674,1.89951 -6.7035,3.17925 -8.96033,1.75386c-4.35587,1.40998 -8.42781,2.43046 -13.17574,2.43046z" fill="#9966ff" stroke-width="0.5"/></g></g></svg>