<svg version="1.1" xmlns="http://www.w3.org/2000/svg" xmlns:xlink="http://www.w3.org/1999/xlink" width="393.90854" height="226.89369" viewBox="0,0,393.90854,226.89369"><g transform="translate(-49.76383,-29.45372)"><g stroke-miterlimit="10"><g><path d="M128.45416,203.36911l-5.33696,25.05603c0,0 -0.75551,19.96373 -10.84729,16.40866c-6.15002,-2.16649 -6.73139,-16.32189 -6.73139,-16.32189l-0.88255,-23.76586" fill="#ffc342" stroke="#683800" stroke-width="3.5" stroke-linecap="round"></path><path d="M148.643,205.26144l1.38106,27.04896c0,0 5.3561,17.87884 -5.32717,17.28701c-16.60199,-0.91972 -18.5181,-36.36042 -18.5181,-36.36042" fill="#ffc342" stroke="#683800" stroke-width="3.5" stroke-linecap="round"></path><path d="M142.98814,187.63862c0,17.81118 -15.11039,32.25 -33.75,32.25c-18.63961,0 -33.75,-14.43882 -33.75,-32.25c0,-17.81118 15.11039,-32.25 33.75,-32.25c18.63961,0 33.75,14.43882 33.75,32.25z" fill="#ffc342" stroke="#683800" stroke-width="3.5" stroke-linecap="butt"></path><path d="M109.48814,219.88862c-27.18907,0.72494 -55,-18 -55,-18l16.5,-13.5l-18,-36l30.5,7l14,-36.5l23,28l35.5,-11l-8.5,44.5l15.5,11c0,0 -26.8551,23.78957 -53.5,24.5z" fill="#ffc342" stroke="#683800" stroke-width="3.5" stroke-linecap="round"></path><path d="M99.36671,218.23699c0,0 -1.91611,35.4407 -18.5181,36.36042c-10.68327,0.59183 -5.32717,-17.28701 -5.32717,-17.28701l1.38106,-27.04896" fill="#ffc342" stroke="#683800" stroke-width="3.5" stroke-linecap="round"></path><path d="M127.44854,203.93025c0,3.6958 -10.79525,9.68554 -20,9.68554c-9.20475,0 -13.33334,-5.98974 -13.33334,-9.68554c0,-1.70005 7.71988,-0.50487 15.3374,-0.6409c8.94245,-0.15967 17.99594,-1.35485 17.99594,0.6409z" fill="#ffffff" stroke="#683800" stroke-width="3" stroke-linecap="butt"></path><g fill="#ff42eb" stroke="#5f0069" stroke-width="3"><path d="M114.17034,217.95644c0,0 8.54701,-8.83484 25.5,-16c12.28518,-5.19232 8.99822,31.01913 -3,27c-9.43151,-3.15934 -22.5,-8.5 -22.5,-8.5" stroke-linecap="round"></path><path d="M112.21369,220.86185c0,0 -5.54701,6.83484 -22.5,14c-12.28519,5.19232 -13.99822,-33.01913 -2,-29c9.4315,3.15934 24.5,12.5 24.5,12.5" stroke-linecap="round"></path><path d="M119,218.36185c0,3.31371 -2.46244,6 -5.5,6c-3.03756,0 -5.5,-2.68629 -5.5,-6c0,-3.31371 2.46244,-6 5.5,-6c3.03756,0 5.5,2.68629 5.5,6z" stroke-linecap="butt"></path></g><path d="M104.87991,189.80355c0,4.78647 -1.41777,8.66666 -3.16667,8.66666c-1.7489,0 -3.16666,-3.88019 -3.16666,-8.66666c0,-4.78647 1.41777,-8.66667 3.16666,-8.66667c1.7489,0 3.16667,3.8802 3.16667,8.66667z" fill="#683800" stroke="#683800" stroke-width="2.5" stroke-linecap="butt"></path><path d="M134.54657,188.88688c0,4.6484 -0.97006,8.41667 -2.16667,8.41667c-1.19662,0 -2.16666,-3.76827 -2.16666,-8.41667c0,-4.6484 0.97005,-8.41666 2.16666,-8.41666c1.19662,0 2.16667,3.76826 2.16667,8.41666z" fill="#683800" stroke="#683800" stroke-width="2.5" stroke-linecap="butt"></path></g><g><path d="M340.66525,131.0602l-2.35862,11.07327c0,0 -0.33389,8.82277 -4.79385,7.25165c-2.71794,-0.95746 -2.97487,-7.2133 -2.97487,-7.2133l-0.39003,-10.50309" fill="#ffc342" stroke="#683800" stroke-width="3.5" stroke-linecap="round"></path><path d="M360.39732,128.13366l-6.31551,10.16787c0,0 -2.56136,7.84055 -6.29064,4.9333c-5.79537,-4.51793 2.44078,-17.86717 2.44078,-17.86717" fill="#ffc342" stroke="#683800" stroke-width="3.5" stroke-linecap="round"></path><path d="M324.37111,126.12279c0,0 4.47883,15.03251 -2.29251,17.88679c-4.35732,1.83671 -4.79025,-6.40024 -4.79025,-6.40024l-3.45217,-11.46096" fill="#ffc342" stroke="#683800" stroke-width="3.5" stroke-linecap="round"></path><path d="M298.37707,101.07122c0,0.5 0.5,0.5 0.5,0.5l0.55694,-0.05279c0.38975,-0.20891 0.76832,-1.21618 1.01773,-0.85101c-0.49445,4.88083 -3.17042,9.81059 -5.35522,14.18019c0,0 -0.11322,0.22644 -0.0174,0.43763c-0.10024,0.08949 -0.2104,0.17022 -0.3353,0.23847c-3.86159,2.11021 -6.01623,6.13464 -9.82774,8.51684c-5.50187,3.45633 -11.4905,4.53067 -18.039,4.53067h-0.33333c0,0 -0.5,0 -0.5,0.5c0,0.5 0.5,0.5 0.5,0.5c0,0 0.5,0 0.5,-0.5c0,-0.5 -0.5,-0.5 -0.5,-0.5c-5.85545,0 -11.67641,0.63164 -17.58658,0.67312c-5.68344,-1.93115 -12.35705,-3.45642 -18.24983,-4.6456l-0.60666,-0.30807c0,0 -0.01183,-0.00592 -0.03261,-0.0139c-0.02033,-0.00905 -0.03288,-0.01323 -0.03288,-0.01323c-2.68926,-0.88028 -5.60683,-1.1788 -8.38409,-2.13146c-2.70053,-0.92634 -5.67855,-2.52336 -8.50928,-2.05633c-1.81055,0.3048 -3.73113,0.04821 -5.54797,-0.50429c0.09437,-0.00017 0.18878,-0.00025 0.28323,-0.00025c0,0 0.5,0 0.5,-0.5c0,-0.5 -0.5,-0.5 -0.5,-0.5c-0.94308,0 -1.88244,0.00839 -2.81915,0.0225c-0.21145,-0.09849 -0.41956,-0.19969 -0.62391,-0.30304l-0.55694,-0.05279c0,0 -0.42119,0 -0.49042,0.38658c-2.20737,0.04723 -4.40361,0.1176 -6.6031,0.17599c-3.69394,-0.6352 -7.35556,-1.40844 -11.01402,-2.12813c-2.54973,-0.73556 -5.65785,-1.18722 -8.00219,-2.38165l-0.55694,-0.05279c0,0 -0.5,0 -0.5,0.5c0,0.073 0.01066,0.13535 0.02887,0.18859c-4.15984,-2.15258 -7.92933,-4.36099 -11.81121,-7.1751c-0.40137,-0.82218 -0.9983,-1.33506 -1.64537,-1.97252l-0.29174,-0.59792c0,0 -0.00514,-0.01029 -0.01543,-0.02697c-0.00938,-0.01721 -0.01576,-0.02678 -0.01576,-0.02678c-1.15071,-1.67301 -1.41274,-4.23913 -1.93427,-6.18982c-0.68613,-2.56636 -1.99513,-5.27775 -1.99513,-7.98104c-1.0655,-2.2165 -0.9858,-5.14747 -0.9939,-7.69759c0.12361,0.26102 0.26907,0.5286 0.33095,0.84712c0.90641,4.66571 7.78606,7.75538 12.11524,7.79494c6.54075,1.64761 13.36358,2.34641 20.10233,2.33538c5.2405,-0.86461 10.63323,-0.7909 15.95394,-0.44147c0.03831,0.01899 0.07649,0.03801 0.11455,0.05706l0.55694,0.05279c0,0 0.10593,0 0.22028,-0.04876c0.90713,0.06458 1.81178,0.13613 2.71286,0.21133c1.0393,0.08674 1.90292,0.14755 2.89846,0.46998l0.81738,0.0338c0,0 0.49968,0.01769 0.51737,-0.482c0.01769,-0.49968 -0.482,-0.51737 -0.482,-0.51737l-0.6786,-0.01915c-1.01342,-0.33164 -1.93039,-0.39341 -2.98945,-0.4818c-1.13713,-0.0949 -2.28115,-0.18474 -3.42943,-0.26258c-1.41351,-0.68632 -3.00943,-1.33884 -4.46263,-2.08206c-0.12305,-0.35635 -1.42565,-1.51463 -3.99826,-3.32026c-2.99767,-2.0894 -5.4095,-4.8959 -8.36869,-7.02237c-1.52964,-1.0992 -4.31205,-2.49963 -5.1029,-4.18464c0,0 -0.0101,-0.02021 -0.03031,-0.04988c-0.01917,-0.03036 -0.03368,-0.04767 -0.03368,-0.04767l-0.0326,-0.0389c-1.65623,-1.96812 -3.57195,-3.99032 -5.03064,-6.10824c-0.78799,-1.1441 -0.99022,-2.40048 -1.97089,-3.44091c-0.90387,-1.83989 -1.06954,-3.66148 -1.72179,-5.54334c-1.20398,-3.47367 -3.42705,-6.70569 -3.61485,-10.46973h0.03707c0.16667,0 0.33333,0 0.5,0c0,0 0.13752,0 0.26832,-0.07212c2.64798,2.3479 4.73317,5.28993 7.27553,7.7606c1.75987,1.60531 4.40234,1.53849 6.26478,2.88315c1.92293,1.38833 2.93585,4.36479 4.40607,6.31857c0.64023,0.85081 1.29986,1.2711 1.78263,2.24371c0.02754,0.05886 0.0662,0.11147 0.11329,0.15512c0.08602,0.086 0.22373,0.17199 0.41313,0.1337c0.09932,0.32727 0.47625,0.32727 0.47625,0.32727l0.02639,-0.05279c1.0736,0.5368 2.25239,0.89537 3.4665,1.17964c-0.01985,0.53216 -0.03164,1.07032 -0.03564,1.61623l0.00017,0.00064h-0.00017l-0.00475,0.99959c-0.00001,0.00093 -0.00001,0.00185 -0.00001,0.00278c0,0.27614 0.22386,0.5 0.5,0.5c0.20497,0 0.38114,-0.12334 0.45833,-0.29985l0.38842,-0.83757c0.43513,-0.50076 0.86982,-0.98393 1.30927,-1.45128c0.94231,0.17722 1.87621,0.35417 2.77023,0.57767c0,0 0.145,0.03625 0.29626,-0.01017c1.16633,0.70364 2.52893,1.37585 3.70431,1.44503c1.11448,0.28115 2.05834,0.60457 3.06418,1.06873c0.01579,0.10715 0.07154,0.19344 0.12415,0.25349c0.46052,-0.10488 0.9313,-0.18777 1.40674,-0.25404c-0.00664,-0.00415 -0.01327,-0.0083 -0.0199,-0.01246c0.0534,-0.33434 -0.28111,-0.50094 -0.28111,-0.50094l-0.08525,-0.04246c3.2969,-0.57842 7.47863,0.35424 10.19732,-1.18351c1.34673,0.51962 3.01922,0.25126 4.46456,0.25126h0.22491c1.18434,1.25833 2.5003,3.13852 3.10462,4.01828c0.43009,0.29898 0.778,0.80367 0.84833,1.32272l0.03048,0.16967c0,0 0.0884,0.49213 0.58052,0.40373c0.49213,-0.0884 0.40373,-0.58052 0.40373,-0.58052l-0.03048,-0.16967c-0.14742,-0.70059 -0.54725,-1.39678 -1.11093,-1.83818c-0.94118,-1.39921 -3.2582,-4.57296 -4.73544,-5.3547c-2.0463,-1.08287 -5.56095,-0.47656 -7.46006,-2.1974c-1.40035,-1.26889 -2.83214,-2.72841 -4.24085,-4.11757c-0.49174,-0.4614 -1.84608,-2.07581 -2.50522,-2.15092c-0.78459,-0.0894 -2.16017,1.23149 -2.85237,1.58251c-2.38588,1.20991 -6.05096,4.14182 -7.74906,5.47979c-0.54308,0.42791 -2.1714,3.0869 -2.1714,3.0869c0.15616,-5.37735 1.41965,-16.47207 6.6125,-16.8224c4.24688,-3.50928 14.46533,-5.49323 19.50427,-2.9743c2.65882,1.83925 5.66994,3.55302 8.14845,5.61118c1.94448,1.61469 4.02651,4.09575 6.41952,4.92039l0.24549,0.10397c3.61561,1.49347 8.24575,-0.00762 11.82406,1.46126c0.8071,0.3313 1.45647,1.15872 2.35341,1.50529c1.43544,3.16902 3.30775,6.41993 3.75168,9.93632c0.36435,2.88602 -1.27053,6.76754 -2.1731,9.48335c-1.46437,4.40788 -2.75173,9.02791 -3.35579,13.63673c-0.21303,1.62538 -0.68418,2.4694 0.03554,4.0234c0.02531,0.10056 0.08517,0.17829 0.1418,0.23259c0.05139,0.05536 0.12446,0.11409 0.21921,0.14242l0.46045,0.23966c4.19864,2.18493 7.48125,5.44617 12.04691,7.11842c7.15961,2.61328 13.8825,0.58402 20.14422,-3.33468c3.54674,-2.22127 7.27102,-4.86694 11.1795,-6.06837c1.22495,-0.37654 1.90941,-1.21273 2.90138,-1.65705c-0.0774,0.07402 -0.13633,0.18674 -0.13633,0.3584zM298.88036,100.57279c0.09494,-0.02994 0.19305,-0.05604 0.29491,-0.07773c-0.05675,0.05326 -0.11873,0.09779 -0.18847,0.12893zM196.54497,70.11217c-0.4218,-0.12461 -0.83527,-0.26397 -1.23687,-0.42312c0.41771,0.11483 0.83177,0.2602 1.23687,0.42312z" fill="#683800" stroke="none" stroke-width="0.5" stroke-linecap="butt"></path><path d="M381.96999,107.05005c-0.57847,0.88118 -0.45379,2.09846 -1,3c-1.64266,2.71129 -4.40992,4.81992 -5.88084,7.78405c-0.99397,2.003 -1.75965,4.13948 -3,6c-0.2919,0.89906 -1.83634,5.73454 -2.11916,6.21595c-0.47757,0.81291 -1.50584,1.19707 -2,2c-1.03565,1.68274 -1.04055,3.8254 -1.81693,5.64238c-1.2727,2.97854 -3.31131,6.1506 -3.84198,9.44375c-0.15909,0.98726 0.16905,2.01439 0,3c-0.35638,2.07784 -1.70692,3.91229 -2,6c-1.03383,7.36424 -0.01164,15.66012 0.03092,23.12926l1.00136,2.47028c-0.02342,4.18881 -1.09752,8.08536 -1.51489,12.27357c-0.58923,5.91288 -40.45046,44.58756 -42.16022,46.43516c-3.21663,3.47594 31.68586,-12.13412 38.77466,-13.17646c0.94922,-0.13957 28.76818,22.66917 38.20894,23.91685c25.56753,3.37899 35.3644,-3.02265 34.87719,-3.32251c-1.7954,-1.10498 -14.18698,-0.92417 -16,-2c-0.90498,-0.53701 -5.44716,-0.53811 -6.27064,-1.19327c-5.75969,-4.58235 -9.83684,-9.57059 -14.72473,-14.97665c0.28264,-1.99494 -8.75051,-8.75816 -7.15208,-9.98481c1.54593,-1.18636 11.95038,4.22025 13.7761,4.90148c0.88332,0.32959 1.19707,1.50584 2,2c1.7954,1.10498 4.18644,0.92509 6,2c0.70231,0.41626 0.88594,1.50982 1.64238,1.81693c0.75633,0.30706 1.63781,-0.2876 2.44375,-0.15802c2.08145,0.33466 3.90706,1.74694 6,2c3.33273,0.40297 7.20906,-0.03228 10.59954,-0.03228c2.69121,0 5.94884,0.47583 8.59954,0.03228c1.75882,-0.29431 3.5106,-0.82357 5.08613,-1.65891c0.49466,-0.26227 0.75997,-0.82643 1.1877,-1.1877c0.26894,-0.22715 1.20907,-0.41772 0.89056,-0.56764c-0.6268,-0.29503 -1.46329,0.32754 -2.07826,0.00859c-1.0071,-0.52231 -1.63563,-1.57257 -2.45344,-2.35886c-0.78469,-0.79093 -25.95293,-1.51475 -41.68552,-18.17297c-12.86705,-13.62409 -16.77381,-43.2043 -17.97207,-47.98846c0,0 -0.02881,-0.11524 -0.04875,-0.30176c-0.02589,-0.18579 -0.02589,-0.30458 -0.02589,-0.30458v-2c0,-10.98706 -0.18597,-22.3848 1.01873,-33.30546c0.62663,-5.68043 1.98127,-10.89469 1.98127,-16.69454c0,0 0,-1.68843 1.38757,-2.29015c-0.01131,-0.14979 -0.02198,-0.29949 -0.0319,-0.44913c-0.67643,0.68045 -1.27921,1.36838 -1.72904,2.05361z" fill="#683800" stroke="none" stroke-width="0.5" stroke-linecap="butt"></path><g><g><path d="M375.48814,100.63862c0,17.81118 -15.11039,32.25 -33.75,32.25c-18.63961,0 -33.75,-14.43882 -33.75,-32.25c0,-17.81118 15.11039,-32.25 33.75,-32.25c18.63961,0 33.75,14.43882 33.75,32.25z" fill="#ffc342" stroke="#683800" stroke-width="3.5" stroke-linecap="butt"></path><path d="M341.98814,129.88862c-27.18907,0.72494 -55,-18 -55,-18l16.5,-13.5l-18,-36l30.5,7l14,-36.5l23,28l35.5,-11l-8.5,44.5l15.5,11c0,0 -26.8551,23.78957 -53.5,24.5z" fill="#ffc342" stroke="#683800" stroke-width="3.5" stroke-linecap="round"></path><path d="M312.98805,125.60355c-1.82613,-0.10502 -3.45201,-0.45636 -5.25348,-0.54703c-2.34835,-1.32803 -4.71917,-2.6923 -6.53146,-4.35755c-0.83948,-0.77137 -2.74008,-1.74557 -3.11388,-2.76632c2.66601,1.40779 6.44384,1.52467 9.37403,2.05543l0.77724,0.04606c0,0 0.49927,0.02711 0.52638,-0.47215c0.00664,-0.12233 -0.01831,-0.21631 -0.05978,-0.28849c0.00261,-0.00492 0.00518,-0.00993 0.00773,-0.01502c0.2236,-0.44721 -0.22361,-0.67082 -0.22361,-0.67082c-0.65304,-0.32565 -1.32015,-0.54137 -1.98779,-0.75337c0.60334,-0.20392 1.10425,-0.59321 1.23891,-1.17605c0.35228,-1.52479 -3.10917,-3.00904 -2.97373,-3.92782c0.03018,-0.20474 0.40343,0.1286 0.60998,0.11568c0.52212,-0.03265 1.48647,-0.36964 1.97623,-0.52428c1.35683,-0.42843 4.47734,-0.43326 4.79191,-2.04513c0.15771,-0.8081 -0.8785,-2.34151 -1.22402,-3.04326c-2.82375,-5.67305 -3.09178,-10.94725 -3.16682,-17.18741c2.64753,2.76381 5.6246,5.31463 8.33682,8.02167l0.70729,0.70677c0.09047,0.0904 0.21542,0.14631 0.35342,0.14631c0.27233,0 0.49381,-0.21772 0.49987,-0.48859l0.02598,-0.99806l-0.07661,-0.00199c0.22356,-1.65919 0.21908,-3.3473 0.30091,-5.0271c0.19868,0.76255 0.4245,1.49101 0.53567,2.04645c0.91626,4.57785 1.81294,9.15979 2.78416,13.72632c0.27737,1.30417 0.76078,3.57706 1.03815,4.88122c0.04423,0.2309 0.24727,0.40538 0.49106,0.40538c0.1958,0 0.36532,-0.11255 0.44738,-0.27649l0.46067,-0.87576l-0.06452,-0.03394c2.191,-3.1192 3.56201,-7.22605 4.62045,-11.24516c0.0164,0.0012 0.03339,0.00182 0.051,0.00182c0.5,0 0.5,-0.5 0.5,-0.5v-0.32767c0,-0.46554 0.00351,-0.93189 0.00995,-1.39881c0.38423,-1.58104 0.73348,-3.11599 1.0803,-4.53586c1.61974,-6.64128 3.96548,-13.55232 6.58219,-19.85196c0.6812,-2.20844 1.38346,-4.37313 2.27031,-6.48547c0.04877,0.64679 0.12247,1.29563 0.05977,1.85459c-0.33595,2.99482 -0.91642,5.91509 -0.98495,8.95904l0.00053,0.00221l-0.00057,-0.00001l-0.01368,0.99877c-0.00004,0.00266 -0.00006,0.00532 -0.00006,0.00799c0,0.27614 0.22386,0.5 0.5,0.5c0.19243,0 0.35947,-0.1087 0.44306,-0.26805l0.47673,-0.86756l-0.07675,-0.04217c0.34434,-0.48081 0.60121,-0.9535 0.784,-1.46538c0.29254,1.82281 0.85595,3.84075 0.86349,5.31278c0.00199,0.38751 -0.04462,2.26847 0.2583,2.43197c0.59641,0.32193 1.81183,-0.89865 2.18867,-1.22901c1.74811,-1.53249 3.2751,-3.31398 5.08736,-4.77006c2.30779,-1.85652 4.54609,-3.8736 6.72573,-5.8799c-0.1972,1.49313 -0.25319,2.96461 -0.25434,4.51273l0.00005,0.00018h-0.00005l-0.00003,1c0,0.00001 0,0.00001 0,0.00002c0,0.27614 0.22386,0.5 0.5,0.5c0.19643,0 0.36641,-0.11327 0.44817,-0.27806l0.30471,-0.58406c1.56753,-1.36527 3.36628,-2.22493 4.8977,-3.63052c1.01446,-0.93111 1.51946,-1.86541 3.00142,-2.03278c-0.12362,1.45305 0.53674,3.4156 0.73154,4.70643c0.69797,4.62504 1.47048,9.22182 2.32266,13.82095c0.05957,0.31907 0.13581,0.68838 0.2195,1.08851c-0.20585,0.79988 -0.35686,1.60642 -0.42401,2.42071c-0.04252,0.51566 -0.23044,3.00493 0.13616,3.34588c0.4156,0.38653 1.17395,0.66791 1.66065,0.37594c0.41998,-0.25194 0.16667,-0.97222 0.14922,-1.46166c-0.04876,-1.36776 -0.25863,-2.98345 -0.50134,-4.47359c0.61196,-2.37057 1.70752,-4.66707 2.48738,-6.99787c0.51038,-0.67588 0.91837,-1.31109 1.28024,-1.98843c-0.75489,5.46696 -0.06646,11.79744 -0.2112,17.14316c-0.40415,3.2486 -0.73294,6.59684 -1.63972,9.75083l-0.2725,0.95014c-0.01466,0.04705 -0.02256,0.09707 -0.02256,0.14895c0,0.27614 0.22386,0.5 0.5,0.5c0.0866,0 0.16805,-0.02201 0.23907,-0.06075l0.85475,-0.44386c3.20707,-0.87579 6.45783,-1.65102 9.77842,-2.08331c-0.45786,0.7534 -0.89642,1.6085 -1.92384,2.2297l-0.02284,0.03272l-0.00751,-0.00881l-0.75843,0.64658c-0.10895,0.09172 -0.17818,0.22912 -0.17818,0.38268c0,0.27614 0.22386,0.5 0.5,0.5c0.05656,0 0.11092,-0.00939 0.16162,-0.0267l0.9425,-0.29749l-0.0138,-0.04372c1.69669,-0.19326 3.05283,-0.62724 4.77897,-1.49342c-1.23853,2.40798 -2.08128,5.31478 -3.74849,7.51029l-0.07875,0.3941c-0.1678,-0.02177 -0.3151,0.05188 -0.3151,0.05188c-2.0192,1.0096 -4.55994,1.41433 -6.41446,2.51128c-1.70467,1.00832 -2.36078,2.75237 -4.70166,2.92111l-0.80984,0.51821c-2.43394,0.08096 -4.29553,1.40936 -6.45978,2.4919c-3.1296,1.56541 -6.51921,3.13201 -9.82877,4.28343c-2.1337,0.30782 -4.60766,1.14389 -6.65694,1.71872c-4.31707,1.21095 -9.35169,-1.06914 -13.50704,-1.45713c-3.47028,-1.45119 -6.99999,-1.65568 -10.55013,-2.50748c-2.31797,-0.55616 -3.89854,-2.21943 -5.87719,-3.24612c-1.02037,-0.52946 -1.7511,-0.47718 -2.75014,-1.21804zM367.79634,95.72054c0.12898,0.84419 0.2034,1.62967 0.15663,2.21573c-0.02434,0.30505 -0.19774,-0.59345 -0.18506,-0.8992c0.01879,-0.45276 0.01873,-0.88591 0.02844,-1.31653zM328.26759,88.78352c0.04519,4.52769 -0.37436,9.30657 -0.47742,13.98143c-0.76019,2.73785 -1.62321,5.42306 -2.70281,8.10447c-0.54589,1.35583 -1.77928,3.36834 -2.15936,5.01597c-0.24215,-1.13854 -0.4843,-2.27709 -0.72645,-3.41563c-0.34991,-1.64522 -0.68976,-3.2925 -1.02438,-4.94085c0.02817,0.00388 0.05827,0.00595 0.09045,0.00595c0.5,0 0.5,-0.5 0.5,-0.5c0,-5.83886 2.00017,-11.84902 3.12886,-17.56975c1.04351,-5.30179 2.28049,-10.40918 3.17549,-15.66658c0.07255,0.36647 0.13299,0.71349 0.15818,1.02534c0.37089,4.59242 0.03716,9.35193 0.03743,13.95966z" fill="#683800" stroke="none" stroke-width="0.5" stroke-linecap="butt"></path></g><g stroke="none" stroke-width="0" stroke-linecap="butt"><path d="M333.14603,113.08585c-0.87676,0.99463 -0.8168,1.00201 -2.44239,1.00201c-1.62559,0 -2.56764,0.24313 -3.9454,-0.87676c-0.96621,-0.78536 2.79722,-1.97242 3.4444,-2.00401c0.8577,-0.04187 3.76675,0.94471 2.9434,1.87876z" fill="#ffffff"></path><path d="M331.38094,112.69305c0,0.7874 -0.46844,1.42571 -1.04629,1.42571c-0.57785,0 -1.04629,-0.63831 -1.04629,-1.42571c0,-0.7874 0.46844,-1.42571 1.04629,-1.42571c0.57785,0 1.04629,0.63831 1.04629,1.42571z" fill="#683800"></path></g><g stroke="none" stroke-width="0" stroke-linecap="butt"><path d="M361.64603,113.08585c-0.87676,0.99463 -0.8168,1.00201 -2.44239,1.00201c-1.62559,0 -2.56764,0.24313 -3.9454,-0.87676c-0.96621,-0.78537 2.79722,-1.97243 3.4444,-2.00402c0.85771,-0.04187 3.76675,0.94471 2.9434,1.87876z" fill="#ffffff"></path><path d="M359.88094,112.69305c0,0.7874 -0.46844,1.42571 -1.04629,1.42571c-0.57785,0 -1.04629,-0.63832 -1.04629,-1.42571c0,-0.7874 0.46844,-1.42571 1.04629,-1.42571c0.57785,0 1.04629,0.63831 1.04629,1.42571z" fill="#683800"></path></g></g></g></g></g></svg>