<svg version="1.1" xmlns="http://www.w3.org/2000/svg" xmlns:xlink="http://www.w3.org/1999/xlink" width="66.20986" height="134.67105" viewBox="0,0,66.20986,134.67105"><g transform="translate(-201.42584,-101.19717)"><g data-paper-data="{&quot;isPaintingLayer&quot;:true}" fill-rule="nonzero" stroke="none" stroke-linecap="butt" stroke-linejoin="miter" stroke-miterlimit="10" stroke-dasharray="" stroke-dashoffset="0" style="mix-blend-mode: normal"><path d="M202.83047,175.55656l0.15779,-67.19116l54.0651,-7.16824l9.03432,59.59925l-25.97174,3.661l17.53429,14.85837l-11.16375,12.2153l13.6891,27.46938l-17.63049,-4.57735l-0.64339,18.79938l-8.59091,2.64572l-2.04976,-31.08482l-8.10916,-26.48141z" fill="#ffffff" stroke-width="0"/><path d="M255.33491,178.74376c0,1.78697 -1.72611,1.75963 -1.72611,1.75963l-0.47008,-0.01271c-0.12196,0.00779 -0.24392,0.01556 -0.36588,0.02335c2.47573,2.6188 4.61412,5.76249 -0.2431,7.27782c-1.22033,0.38072 -3.44894,-0.63248 -4.63182,-1.09344c-3.02086,-1.1772 -6.11477,-2.4062 -9.10338,-3.81455c3.02986,7.85254 6.2847,15.87625 10.94675,22.79898c1.84339,2.73728 4.79092,4.5597 6.8376,7.1607c0.39392,0.46484 0.78784,0.92966 1.18176,1.3945l0.23166,0.23915c0,0 1.22055,1.28291 0,2.52716c-1.22055,1.24425 -2.44109,-0.03866 -2.44109,-0.03866l-0.3708,-0.39411c-0.40938,-0.48346 -0.81875,-0.96691 -1.22813,-1.45037c-2.10338,-2.71986 -5.05745,-4.5617 -7.01922,-7.40411c-3.61313,-5.23509 -6.38588,-11.18568 -8.84649,-17.21074c-0.06695,1.85369 -0.1625,3.69494 -0.22457,5.4932c-0.27914,8.08699 -0.30792,15.83487 0.73684,23.85796c0.39237,2.65251 0.7739,5.2976 1.20071,7.94254l0.30291,2.0429c0,0 0.26247,1.77035 -1.44357,2.01505c-1.70604,0.2447 -1.96851,-1.52564 -1.96851,-1.52564l-0.29956,-2.02077c-0.42616,-2.66616 -0.81207,-5.32748 -1.20917,-8.00027c-1.04639,-8.23756 -1.05588,-16.20222 -0.76933,-24.50355c0.17066,-4.94417 0.67203,-10.30712 -0.07907,-15.23249c-0.07601,-0.04354 -0.15187,-0.08727 -0.22759,-0.13117l-1.03462,-0.72202c0,0 -1.35635,-0.95759 -0.55412,-2.36226c-2.12379,-3.41447 -4.54853,-6.61843 -7.09558,-9.72392l-0.65364,0.2598c-0.61947,0.26502 -1.24685,0.51691 -1.87867,0.76172c0.0482,0.05903 0.09503,0.12 0.14043,0.18293c0.76743,1.06398 1.70545,2.6531 1.10146,3.80397c-1.13036,2.15379 -7.55362,1.79131 -9.68268,1.46957c-0.10166,-0.01536 -0.20688,-0.02623 -0.31478,-0.03376c-1.02283,0.72008 -2.09535,1.37042 -3.20719,1.9325l-1.43971,0.87149c-0.26472,0.16678 -0.57742,0.26062 -0.9124,0.25533c-0.95331,-0.0151 -1.72611,-0.82739 -1.72611,-1.81431c0,-0.18476 0.02709,-0.36254 0.07737,-0.52938l0.59151,-2.13394l0.10909,0.03399c0.04491,-0.21245 0.10398,-0.42146 0.18102,-0.6261c0.05423,-0.14405 1.20373,-0.86954 2.1798,-1.46661c0.29872,-0.9714 1.36808,-1.42569 2.42628,-1.6893c0.25226,-0.26294 0.5101,-0.39233 0.5101,-0.39233c0.84736,-0.41181 2.07018,-0.86623 3.39569,-1.15413c2.27301,-0.92579 4.60682,-1.72989 6.85407,-2.67835c-0.16153,-0.49684 -0.17757,-1.18355 0.52111,-1.81544c0.1595,-0.14425 0.31682,-0.24997 0.47004,-0.32449c-0.24011,-0.10382 -0.47789,-0.21692 -0.71303,-0.33982c-2.73116,-1.42749 -4.53299,-3.71966 -6.0383,-6.28227l-1.07023,0.55131c-1.4001,0.31145 -2.73457,1.00798 -4.16917,1.06576c-7.46928,0.30079 -9.0126,-8.15486 -8.63559,-14.03574c0.12233,-1.90812 1.48701,-4.71188 1.23394,-6.54189c-0.13687,-0.98976 -1.33087,-1.4818 -1.84421,-2.33431c-0.90627,-1.50506 -1.34135,-3.31797 -1.50171,-5.07404c0.39194,-4.83492 2.72496,-7.88093 6.72005,-10.32438c1.04423,-0.63867 2.61812,-0.31794 3.44481,-1.23518c0.78272,-0.86845 0.18374,-2.45932 0.75012,-3.49375c0.38861,-0.70975 2.49876,-3.13642 3.02774,-3.64749c5.98282,-5.78046 14.22177,-4.80338 21.66143,-3.24098c2.8215,0.50543 5.24276,2.02923 8.01439,2.62767c2.44744,0.52846 5.03168,-0.21542 7.46684,0.44952c4.49303,1.22685 10.43102,5.60776 12.32134,10.10967c1.38772,3.30495 -0.41099,5.7376 -0.02587,8.87794c0.23874,1.94671 1.13172,4.17984 1.48953,6.16012c0.77932,3.78001 2.02696,9.70809 0.86867,13.49543c-0.99184,3.24311 -3.03586,2.92504 -5.32413,4.30134c-1.49349,0.89827 -1.36322,3.71552 -2.90926,5.01719c-3.55659,2.99443 -9.80081,2.47179 -13.93021,1.21662c0,0 -0.3226,-0.10053 -0.64271,-0.35955c-3.28883,1.83845 -6.98288,2.95217 -10.92459,3.64664c-2.35891,0.4156 -4.82697,0.57788 -7.16552,0.06414c2.47334,2.92567 4.86735,5.91791 7.04913,9.06271c0.33785,-0.45043 0.80307,-0.86388 1.41377,-1.2192c2.17514,-1.26556 4.56587,0.17601 5.4706,2.21259c2.09652,-2.08539 3.34233,-0.77926 3.66875,1.26279c0.34563,-0.02868 0.70155,-0.05588 1.05975,-0.08778c2.13508,-0.19015 6.35166,0.67005 7.39025,2.50428c0.18442,-0.01176 0.36885,-0.02353 0.55326,-0.0353l0.73486,0.00637c0,0 1.72611,0.02734 1.72611,1.81431zM243.10136,179.99197c0,0 -0.07297,0.37658 -0.32056,0.74229c1.56566,0.66815 3.1392,1.31545 4.6914,1.99521c1.01635,0.4451 2.03568,0.89532 3.09163,1.22203c0.10023,0.03101 0.22741,0.06001 0.3683,0.08871c-0.92421,-0.86013 -2.01837,-2.24877 -2.63986,-3.02102c-0.19931,-0.00815 -0.39592,-0.009 -0.5852,0.00992l-1.62916,-0.02126c0,0 -0.89128,-0.01411 -1.39293,-0.68508c-0.5629,-0.0622 -1.11351,-0.17013 -1.58216,-0.35668zM256.7207,155.87516c1.74961,-1.3771 1.0726,-3.65762 3.11544,-5.17865c0.93666,-0.6974 3.66824,-0.71667 4.01415,-2.41161c0.72481,-3.5515 -0.21494,-8.28766 -0.93874,-11.79352c-0.35968,-1.99266 -1.31875,-4.39146 -1.52282,-6.36183c-0.27319,-2.63778 1.40632,-5.36683 0.27537,-7.95751c-1.52034,-3.48266 -6.47985,-7.05256 -9.97005,-8.01914c-2.32704,-0.64445 -4.91879,0.10063 -7.29367,-0.40795c-2.75979,-0.591 -5.15723,-2.1386 -7.95107,-2.61486c-7.35133,-1.54293 -14.72718,-2.38665 -20.08541,3.91393c-1.25809,1.47934 -1.01531,4.00187 -2.07046,5.22075c-0.74054,0.85546 -3.24793,1.36744 -4.38731,2.07121c-2.82503,1.74493 -4.80339,3.76496 -5.02812,7.26536c0.18458,2.97758 2.78524,3.97864 3.28125,6.73012c0.23279,1.29128 -0.67276,3.94401 -0.90072,5.18007c-0.63199,3.42692 -1.08245,13.00722 4.64477,12.46524c1.25988,-0.11923 2.42851,-0.71712 3.66294,-0.9932l0.19246,-0.12459c-0.00291,-0.00569 -0.00581,-0.01138 -0.00872,-0.01708c-1.69433,-4.22639 -3.95766,-9.05562 -3.15081,-13.76387c2.1705,-12.66555 20.67054,-20.23304 31.59218,-16.5747c1.37503,0.81184 2.62799,1.89134 3.67031,3.12695l0.74213,2.0315c0,0 0.58989,1.68873 -1.0323,2.27373c-1.62219,0.585 -2.21208,-1.10373 -2.21208,-1.10373l-0.46282,-1.41799c-0.57301,-0.6707 -1.29466,-1.21351 -2.05315,-1.64153c-2.97502,-1.02807 -5.44655,-0.58701 -8.48713,-0.02508c-7.23152,1.33642 -16.8321,5.65017 -18.36031,14.02236c-0.70419,3.85781 1.50008,8.14794 2.87389,11.59185c1.71323,3.35044 3.94076,7.66444 7.95414,8.49189c1.47918,0.30497 3.02526,0.39425 4.59186,0.29645c0.18747,-0.67333 0.78219,-1.05571 0.78219,-1.05571c1.77336,-1.11671 5.63671,-6.21451 8.26454,-4.33114c0.72825,0.52194 0.57652,1.61029 0.53046,2.63061c2.65825,-1.37106 5.06399,-3.17003 6.9333,-5.22163c-0.57448,-0.25514 -1.12645,-0.57496 -1.64498,-0.96261c-1.50565,-1.12567 -3.33327,-3.80804 -3.47914,-6.03798c-1.54372,1.47384 -5.08764,2.4195 -6.36563,2.60011c-7.86649,1.11169 -18.60356,-7.94079 -11.34861,-15.79225c1.51142,-1.63569 3.56327,-2.39165 5.51509,-3.27959c0,0 1.5714,-0.71457 2.28567,0.92354c0.71428,1.63811 -0.85713,2.35268 -0.85713,2.35268c-2.00262,0.91024 -4.09702,1.58795 -5.22646,3.67339c-2.02321,3.73572 2.06508,7.63447 5.47916,8.39402c5.17528,1.15136 8.23943,-2.5087 12.58126,-4.18758c0.62407,2.06715 1.15995,5.26158 2.35002,7.21086c1.88986,3.09549 7.12821,2.90135 9.22054,0.33907c0.09334,-0.51403 0.43565,-1.45398 1.69113,-1.43409c1.72611,0.02734 1.72611,1.81431 1.72611,1.81431l-0.31202,1.33168c-1.70678,2.39058 -4.68279,3.78933 -7.68619,3.8349c-1.15609,1.54867 -2.43033,2.88158 -3.80662,4.02992c2.9125,0.56188 6.5324,0.57716 8.67212,-1.10699z" fill="#9966ff" stroke-width="0.5"/></g></g></svg>