<svg version="1.1" xmlns="http://www.w3.org/2000/svg" xmlns:xlink="http://www.w3.org/1999/xlink" width="73.8172" height="104.98754" viewBox="0,0,73.8172,104.98754"><g transform="translate(-192.82025,-129.69802)"><g data-paper-data="{&quot;isPaintingLayer&quot;:true}" fill-rule="nonzero" stroke="none" stroke-linecap="butt" stroke-linejoin="miter" stroke-miterlimit="10" stroke-dasharray="" stroke-dashoffset="0" style="mix-blend-mode: normal"><path d="M194.20233,177.78899l1.94106,-34.7658l50.68104,-13.32517l19.81302,42.06518l-15.3864,12.02198l-2.78711,16.45932l11.02762,14.96962l-4.04291,2.98438l-11.69515,-2.32889l4.1124,17.42723l-5.19906,1.38872l-24.80213,-34.61687l2.62011,-14.45733z" fill="#ffffff" stroke-width="0"/><path d="M250.58269,175.83508c0.30615,-2.55101 0.21119,-5.32077 2.73252,-6.84899c2.65232,-1.60761 6.46099,-0.45637 6.04551,-4.91837c-0.50281,-5.39979 -4.25578,-8.95871 -8.01842,-12.42039c-1.44821,-1.33238 -4.37564,-3.11521 -4.10398,-5.6435c0.25529,-2.37588 6.28157,-2.72164 1.94722,-4.25075c-2.04143,-0.76062 -4.40762,-2.00046 -6.56418,-2.51587c-2.08495,-0.49829 -4.33607,-0.4061 -6.45222,-0.4057c-6.35004,0.0012 -13.45827,-0.17702 -19.00534,3.38373c-2.10748,1.35283 -2.75247,4.26994 -4.55458,5.52899c-1.31584,0.91931 -3.23663,0.18137 -4.81218,0.51808c-1.88052,0.40187 -3.02565,0.97629 -4.79955,1.71192c-2.00527,1.00995 -5.76165,2.36194 -6.62344,4.73168c-0.18359,0.50482 0.4419,2.43876 0.51393,2.68384c0.7646,2.6016 2.39209,5.35329 1.77296,8.1667c-0.28124,1.27799 -1.66835,2.14082 -1.88042,3.43301c-0.80814,4.92414 4.38016,6.16845 8.29272,6.53169c-0.80616,-1.12433 -1.37604,-2.42037 -1.62379,-3.92043c-0.03183,-0.1927 0.10205,-2.54864 0.22432,-4.56302c-0.78158,-1.47478 -0.52323,-2.69447 0.22704,-3.67014c0.21325,-3.59035 0.37579,-5.88406 3.23283,-8.50629l1.20207,-0.87958c0,0 1.4098,-1.01717 2.44689,0.40687c1.03709,1.42403 -0.37271,2.4412 -0.37271,2.4412l-0.91438,0.64744c-1.33424,1.16995 -1.78336,2.22618 -1.95788,3.50165c0.22817,-0.08606 0.45143,-0.16321 0.66564,-0.23151c0,0 1.67594,-0.48076 2.18025,1.2019c0.5043,1.68267 -1.17163,2.16343 -1.17163,2.16343c-0.55054,0.13011 -1.1446,0.14249 -1.65162,0.39033c-0.06857,0.03352 -0.14728,0.0819 -0.22829,0.14004c-0.02835,0.37738 -0.07,0.75489 -0.11767,1.13243c2.54226,1.29667 7.47951,2.15062 9.79144,0.66315c0.66091,-0.42522 0.99329,-1.39968 1.76539,-1.56059c2.98092,-0.62122 4.84898,1.8245 7.55087,2.24023c3.23175,0.49725 6.8995,0.23838 10.14449,-0.0067c1.46043,-0.29692 2.7233,0.13964 1.55084,-0.59798l-0.63046,0.04211c0,0 -1.54167,-0.84988 -0.71319,-2.37965c0.82848,-1.52978 2.37014,-0.6799 2.37014,-0.6799l2.13953,1.56913c0.29405,0.97472 1.2008,1.96581 0.88214,2.92417c-0.65917,1.98245 -3.4477,2.23382 -5.01865,2.57931c1.45043,2.38842 0.56007,6.57103 -0.21985,8.77569c2.44082,-0.49379 4.70805,-1.40008 6.55851,-3.02312c1.766,-1.54895 1.40245,-6.40991 1.07465,-8.4721c-0.36043,-2.26748 -1.29285,-3.68433 -2.83582,-5.30564c0,0 -1.20057,-1.29002 0.07291,-2.47254c1.27347,-1.18252 2.47404,0.1075 2.47404,0.1075c4.58323,5.01242 5.94984,14.55872 0.65211,19.22036c2.57915,0.51917 4.4651,-0.6053 5.75927,-3.56385zM206.87685,179.14297c-6.16348,-0.29317 -14.83099,-2.51573 -13.55332,-10.75087c0.22432,-1.44586 1.57819,-2.49434 1.98727,-3.89667c0.29068,-0.99643 -0.67201,-2.67886 -0.95486,-3.48908c-0.67422,-1.93129 -2.04742,-5.24256 -1.33728,-7.34403c1.21831,-3.60523 5.39784,-5.31987 8.48437,-6.87365c2.08449,-0.86227 3.30837,-1.48141 5.5329,-1.95293c0.88195,-0.18694 1.78282,-0.31628 2.68634,-0.33874c0.35626,-0.00886 0.78213,0.48398 1.04423,0.24601c0.47297,-0.42943 0.31871,-1.26592 0.66839,-1.80095c0.69184,-1.05855 2.67878,-2.94671 3.78531,-3.66458c5.4014,-3.50424 12.33553,-3.94596 18.60945,-3.94596c3.15732,0 6.48421,-0.23391 9.59429,0.51051c2.33917,0.5599 4.86417,1.86035 7.08725,2.69063c0.97407,0.52572 2.26607,0.68463 2.92221,1.57717c2.1575,2.93486 0.47888,4.67716 -1.68049,6.56216c-0.27448,0.2396 -0.95427,-0.22093 -1.09277,0.11683c-0.12159,0.29654 0.59792,0.26382 0.85638,0.45966c1.79436,1.35964 2.63211,2.28677 4.23343,3.86578c3.98443,3.92892 8.58027,9.84542 6.91863,15.95517c-1.02387,3.76465 -4.7417,3.9236 -7.63726,4.99088c-1.00828,0.37165 -0.98583,4.09936 -1.07534,4.75635c-2.41009,5.4489 -6.55621,7.54618 -12.20504,5.24755l-0.816,-0.4527c-4.60125,1.80546 -9.59892,1.78914 -14.55751,1.70037c-0.22141,0.19508 -0.53251,0.34585 -0.96859,0.40045c-0.69407,0.08691 -1.14893,-0.13937 -1.44487,-0.44197c-0.4147,-0.00555 -0.82861,-0.00961 -1.2415,-0.01113c-4.11995,-0.80723 -10.15897,-1.91201 -14.40447,-4.7116c-0.52747,0.63686 -1.44113,0.59536 -1.44113,0.59536zM206.88388,170.9727c0.36231,2.66497 2.42417,4.47434 5.04147,5.7468c0.23948,-1.48106 1.81309,-1.37625 1.81309,-1.37625c5.32541,0.35701 10.67286,-0.58373 15.34062,-3.14963c0.42952,-0.23611 1.17647,-0.74813 2.02377,-1.2893c-1.81779,0.02476 -3.62778,-0.05413 -5.3196,-0.33563c-1.22057,-0.20309 -4.94157,-2.69722 -5.95098,-2.34082c-0.47828,0.16887 -0.51204,0.92525 -0.94479,1.18804c-2.74771,1.66863 -7.15123,1.31493 -10.10056,0.49864c-0.45357,-0.12553 -1.19669,-0.39077 -1.96841,-0.71483c-0.02721,0.59183 -0.01484,1.18296 0.06538,1.77298zM222.23636,178.40023c-1.25578,0.22362 -2.52969,0.37022 -3.79943,0.44921c1.62976,0.37014 3.14876,0.64112 4.32998,0.87618c-0.17075,-0.44414 -0.34771,-0.886 -0.53054,-1.32539z" fill="#9966ff" stroke-width="0.5"/><path d="M247.51622,183.68687c1.93353,0.75243 3.30765,2.6154 1.97978,5.19256c-0.39624,0.76902 -1.03555,1.24786 -1.79289,1.48708c0.21225,0.47549 0.30183,1.16583 -0.37885,1.85617c-0.66025,0.66962 -1.33064,0.61453 -1.80686,0.42298c-0.10295,0.16246 -0.2058,0.32492 -0.29765,0.48791c1.42964,1.76581 2.41878,4.32046 0.93171,6.15412c-1.87602,2.31326 -4.01596,0.86697 -5.74257,-0.07634c-0.88759,-0.48493 -1.79161,-1.00282 -2.69695,-1.5499c0.31829,0.38972 0.65508,0.76216 1.01615,1.11215c2.04906,1.98618 4.78621,3.36809 6.81531,5.51733c2.89708,3.06862 3.7701,6.1887 7.57454,8.58128l0.90069,0.29594c0,0 1.64718,0.61447 1.05563,2.25304c-0.59154,1.63858 -2.23871,1.02411 -2.23871,1.02411l-1.55536,-0.62027c-2.56566,-1.62262 -4.90444,-3.43989 -6.47448,-6.11662c-0.59006,-1.00598 -0.95573,-2.18335 -1.77439,-3.0155c-0.89603,-0.91081 -1.92303,-1.69103 -2.96287,-2.44857c0.89369,3.28266 1.65171,6.57293 1.81494,10.03713c0.13521,2.86932 -0.84868,7.57439 0.07897,10.27968c0.59218,1.72699 2.46341,3.65587 3.41328,5.24479l0.68899,0.93352c0,0 1.03709,1.42403 -0.37271,2.4412c-1.4098,1.01717 -2.44689,-0.40687 -2.44689,-0.40687l-0.86794,-1.20431c-1.10909,-1.85835 -3.1018,-4.02451 -3.7691,-6.05514c-1.02403,-3.11621 -0.07244,-7.83835 -0.22015,-11.09857c-0.21255,-4.69157 -1.62098,-9.03844 -2.87988,-13.51211c0,0 -0.07021,-0.25017 -0.06076,-0.58371c-1.86189,-2.27784 -3.06196,-5.25526 -4.81206,-7.66442c-0.58181,-0.49153 -1.14275,-0.99304 -1.67707,-1.50309c-1.05034,1.68547 -2.18207,3.31953 -3.10899,5.08789c-0.9081,1.73244 -1.2546,3.32438 -2.80664,4.53638c-0.10592,0.08272 0.24362,-0.12839 0.37795,-0.14288c0.61769,-0.06659 1.24079,-0.08332 1.86259,-0.09865c1.77931,-0.04388 5.85229,-0.56188 7.114,1.18349c0.78214,1.08197 1.35875,2.71263 0.8012,3.90811c-1.2471,2.67397 -6.31933,2.76155 -6.70004,-1.05923c-0.01871,-0.18769 0.0156,-0.35302 0.08999,-0.50146c-2.5586,0.1365 -6.11363,0.5395 -6.99033,-2.71566c-0.11765,-0.43684 1.8896,-4.02712 2.23231,-4.73359c1.55798,-3.21168 3.58547,-6.08027 5.24488,-9.21822c0,0 0.81649,-1.53632 2.36454,-0.69833c0.3075,0.16646 0.5217,0.36047 0.66754,0.56452c0.22352,0.10644 0.36212,0.21609 0.36212,0.21609c0.8212,0.66696 1.52236,1.43896 2.15297,2.27157c1.46749,1.19871 3.05579,2.2215 4.63341,3.27537l0.35313,-1.49624c-0.49413,-0.18198 -1.07787,-0.60974 -1.09194,-1.61527c-0.02449,-1.75 1.72551,-1.75 1.72551,-1.75l0.63968,0.02041c0.0678,-0.08285 0.14319,-0.15924 0.22516,-0.22811c0.00343,-0.02152 0.00717,-0.04326 0.01127,-0.06523c0.13312,-0.71567 0.51003,-1.07317 0.90424,-1.24678c0.08226,-0.2587 0.24754,-0.52644 0.5369,-0.7869c0.07705,-0.06936 0.15371,-0.12992 0.22976,-0.18249c0.05349,-0.45576 0.20841,-0.92643 0.48443,-1.40404c1.57154,-2.71931 4.29316,-1.94019 6.24255,-0.58633zM242.14523,196.1969c0.4318,0.2795 1.23339,1.34638 1.29453,0.83987c0.16975,-1.40622 -1.03603,-2.074 -2.36395,-2.69658l-0.98253,0.59451c0.68271,0.42248 1.378,0.82596 2.05195,1.2622z" fill="#9966ff" stroke-width="0.5"/></g></g></svg>