<svg version="1.1" xmlns="http://www.w3.org/2000/svg" xmlns:xlink="http://www.w3.org/1999/xlink" width="88.49068" height="183.05156" viewBox="0,0,88.49068,183.05156"><g transform="translate(-186.43863,-66.94674)"><g data-paper-data="{&quot;isPaintingLayer&quot;:true}" fill-rule="nonzero" stroke-linejoin="miter" stroke-miterlimit="10" stroke-dasharray="" stroke-dashoffset="0" style="mix-blend-mode: normal"><path d="M251.18248,191.17935c1.05367,3.00886 1.15177,8.5892 -0.98701,6.8104c0.26356,5.96696 -2.51762,9.32738 -5.33635,8.24641c-4.74669,0.8779 -4.87825,-10.16085 -4.861,-22.13381c-5.42467,-27.65203 0.86896,-28.87939 1.33497,-28.32074c6.12574,7.34375 5.50629,22.26847 9.84939,35.39773z" fill="#0f002d" stroke="#0f002d" stroke-width="1.5" stroke-linecap="butt"/><path d="M242.53191,196.51096c0,0 0.91934,4.22192 -0.43516,4.9127c-1.52824,0.77939 -2.06233,0.83609 -1.85055,-5.34127" fill="none" stroke="#0f002d" stroke-width="1.5" stroke-linecap="round"/><g stroke="#0f002d" stroke-width="1.5" stroke-linecap="round"><path d="M227.6036,145.78697c0.78521,0.05151 3.52584,5.90916 3.52584,5.90916c0,0 -2.6015,6.29167 -3.07619,12.30276c-1.1937,4.08811 9.75104,-1.76387 2.03838,11.26701c-3.34645,5.65397 -17.46504,-1.53013 -16.31235,-4.6063c0,0 11.07844,-25.05276 13.82432,-24.87263z" fill="#5e1284"/><path d="M228.14408,163.90985l-2.48587,0.16978" fill="none"/></g><g stroke="#0f002d" stroke-width="1.5"><path d="M237.90079,223.51557c-0.98235,-3.73518 0.05063,-7.56407 4.73738,-7.56407c1.39116,0 5.04801,0.68456 6.22362,1.41088c3.78325,2.33738 11.37559,1.06346 11.01431,5.26016c-0.3613,4.19669 -21.36887,3.19886 -21.9753,0.89304z" fill="#e9caf8" stroke-linecap="butt"/><path d="M225.86366,249.21273c-7.11075,0.48505 -10.40029,-4.08117 -11.48009,-8.21437c-1.07133,-4.10078 -2.42467,-17.08161 1.67514,-18.73242c6.55446,-2.63914 14.70674,0.70089 15.12998,8.31497c1.64361,7.32703 4.49985,17.96163 -5.32503,18.63181z" fill="#e9caf8" stroke-linecap="butt"/><g stroke-linecap="round"><path d="M249.287,215.80593c-2.51066,3.08656 -10.53643,4.37556 -11.63693,0.74934c-1.30391,-4.29641 0.16336,-11.84562 0.82617,-20.22935c0.65421,-8.27502 0.83029,-17.20405 0.44743,-17.02725c-0.57638,0.26616 -1.85183,12.38022 -3.18887,20.33449c-1.33704,7.95427 -1.41923,23.43042 -7.33819,27.82203c-4.05943,3.01191 -10.60057,1.59985 -13.64215,-1.32061c-2.42346,-2.32696 -2.3496,-5.7862 0.97385,-7.46213c1.23932,-5.02321 4.18266,-13.88287 5.2643,-21.74032c1.00452,-7.29712 4.5242,-22.71321 5.27658,-22.89957c3.03338,-0.75139 17.23556,-3.92363 18.95801,-4.25468c0.37703,-0.07247 2.84492,11.79501 3.71726,23.45025c0.85183,11.38117 0.67864,22.55555 0.34254,22.5778z" fill="#414ca9"/><path d="M243.45918,177.37744l-4.4479,1.85575" fill="none"/></g></g><g stroke="#0f002d"><path d="M226.70982,174.30151c-2.21672,-1.6309 3.13,-12.39518 4.16962,-15.97284c-0.61177,-7.02399 -7.30138,-18.64473 -3.65502,-17.6375c6.17149,1.70474 8.88398,6.0991 13.17781,12.38985c4.10195,6.00964 5.43939,15.41435 5.17549,15.67843c-1.47357,1.47451 -7.52871,6.28159 -18.86789,5.54208z" fill="#8f21c6" stroke-width="1.5" stroke-linecap="round"/><path d="M232.19978,143.149c0.36538,0.97724 -5.2867,1.03517 -5.54656,0.02141c-0.22898,-0.89333 0.15452,-2.08306 1.22395,-2.24546c1.38073,-0.20967 3.90041,1.0948 4.32262,2.22404z" fill="#0f002d" stroke-width="1" stroke-linecap="butt"/><path d="M243.8167,161.20792c0.44099,0.43777 1.51615,7.58472 1.23531,7.85876c-1.46974,3.15392 -13.48358,6.35638 -13.3099,4.87201c-2.15268,-12.55571 11.84662,-12.95709 12.07459,-12.73078z" fill="#c168ee" stroke-width="1" stroke-linecap="round"/><path d="M229.69248,143.76258c0,0 3.60748,5.41798 3.96654,9.22444c0.36872,3.90888 2.32092,6.51479 2.54822,11.06821" fill="none" stroke-width="1" stroke-linecap="round"/><path d="M231.0307,142.7161c0,0 4.0095,3.93686 5.05675,7.76387c0.96939,3.5425 3.60662,7.82831 4.6702,11.91315" fill="none" stroke-width="1" stroke-linecap="round"/></g><path d="M247.24431,134.47488c-3.67368,4.92733 -16.01255,1.54714 -16.53548,1.75383c-1.28512,2.42855 -9.31632,1.98046 -13.29154,-0.78946c-0.54146,-0.33031 -13.04673,1.94331 -14.48393,-3.95523c-2.66133,-0.69167 -10.79063,-2.29892 -10.11301,-10.74622c-5.37051,-2.64124 -8.04427,-10.78097 -2.78665,-16.93021c-1.55081,-7.10445 -0.32929,-17.73342 6.86742,-19.92183c-1.31101,-6.41082 15.10843,-19.4386 23.85214,-10.64114c18.45608,-13.66689 31.67071,1.85524 31.33355,4.774c14.67015,-2.47945 19.51412,15.87518 18.96242,17.47247c2.91032,0.60227 6.93142,14.77207 -4.49653,20.03028c0.80081,2.53079 -2.98295,14.02544 -10.2461,13.31775c-0.44421,1.79499 -3.54282,6.60976 -9.06231,5.63577z" fill="#3d2747" stroke="#0f002d" stroke-width="1.5" stroke-linecap="round"/><g><g><path d="M237.92123,105.68465c-0.2681,3.11535 -7.28242,11.92788 -14.78096,11.28258c-7.49855,-0.6453 -12.46431,-3.35252 -12.19621,-6.46785c0.14056,-7.08902 0.67601,-7.98079 9.29958,-5.78597c3.26345,-0.175 6.41749,-3.03729 9.47601,-2.77408c5.30931,1.51412 8.44281,2.47782 8.20158,3.74533z" fill="#2f1e38" stroke="none" stroke-width="0" stroke-linecap="butt"/><path d="M238.42001,105.24099c-0.36272,4.30545 -13.96229,20.02456 -27.85317,5.78006" fill="none" stroke="#0f002d" stroke-width="1.5" stroke-linecap="round"/></g><path d="M259.81778,98.45939c0.33762,3.61482 -2.6144,6.41223 -11.08608,4.98632c-5.69069,2.31194 -14.38075,0.80564 -19.23306,-1.69547c-15.02951,5.85473 -26.94892,-0.29048 -19.18355,-6.80751" fill="#3d2747" stroke="#0f002d" stroke-width="1.5" stroke-linecap="round"/></g><g><g><path d="M249.18729,117.34175c0.57357,-0.11446 -3.24774,2.84852 -7.80221,6.33574c-5.78907,7.33717 -12.20099,18.05109 -19.31282,16.82798c-7.36182,-1.26611 -12.97881,-17.04721 -12.80781,-29.5666c0.08377,-0.58088 0.59782,-0.76654 0.80741,-0.52851c9.64265,10.95044 34.22658,7.90708 39.11544,6.93141z" fill="#ffffff" stroke="#0f002d" stroke-width="1.5" stroke-linecap="round"/><path d="M239.22908,126.39881c0,0 0.32936,-2.9789 0.59603,-4.3556c0.21684,-1.11945 1.16593,-3.36099 1.16593,-3.36099l6.91298,-0.59448z" fill="#0f002d" stroke="none" stroke-width="0" stroke-linecap="butt"/><path d="M237.86385,127.37919c0,0 -1.95977,-8.84904 -2.1124,-8.51038c-1.48356,3.2919 -10.04461,21.59568 -10.07789,21.14593c-0.28886,-3.90323 -1.65915,-22.38742 -1.8253,-22.01673c-0.86937,1.93957 -8.03778,17.13122 -8.07771,16.62398c-0.1838,-2.33436 -1.13628,-20.32249 -1.28,-20.04687c-0.51655,0.99065 -3.96193,7.24954 -3.96193,7.24954" fill="none" stroke="#0f002d" stroke-width="1.5" stroke-linecap="round"/></g><path d="M207.81812,110.79549c0,0 1.09285,-2.73293 3.65133,-0.96666" fill="none" stroke="#0f002d" stroke-width="1.5" stroke-linecap="round"/></g></g></g></svg>