<svg version="1.1" xmlns="http://www.w3.org/2000/svg" xmlns:xlink="http://www.w3.org/1999/xlink" width="90.85544" height="139.12268" viewBox="0,0,90.85544,139.12268"><defs><radialGradient cx="244.28014" cy="160.11716" r="7.3567" gradientUnits="userSpaceOnUse" id="color-1"><stop offset="0" stop-color="#54606d"/><stop offset="1" stop-color="#2c3136"/></radialGradient></defs><g transform="translate(-183.90289,-99.28527)"><g data-paper-data="{&quot;isPaintingLayer&quot;:true}" stroke-miterlimit="10" stroke-dasharray="" stroke-dashoffset="0" style="mix-blend-mode: normal"><g fill-rule="evenodd"><path d="M221.05954,198.6838c0.70443,-0.55116 2.24651,-1.70094 4.28876,1.92524c2.04225,3.62618 -0.28443,10.15968 -0.62751,10.88238c-1.23909,2.84335 -2.8687,6.27619 -5.93459,9.46999c-8.84544,9.30582 -20.72257,3.77826 -20.94716,-0.64549c-0.26747,-4.33341 7.77892,-2.39549 14.56413,-5.26272c3.01666,-1.22464 4.98302,-3.50136 6.46394,-5.45504c2.00011,-2.81417 1.35478,-10.31574 2.19243,-10.91436z" fill="#ffab19" stroke="#001026" stroke-width="1.2" stroke-linecap="round" stroke-linejoin="round"/><path d="M203.10678,217.61389c3.12527,-0.28752 7.88753,-1.45837 7.88753,-1.45837c0,0 -2.39977,2.95653 -1.76461,5.58267c0.44535,2.09324 2.60432,2.67535 3.32245,2.79487c-1.73189,0.61689 -4.04413,1.29037 -7.63479,0.69278c-3.59067,-0.59759 -6.956,-3.30212 -6.64034,-5.36618c0.49634,-1.97829 2.06583,-1.78671 4.82975,-2.24577z" fill="#ffffff" stroke="none" stroke-width="1" stroke-linecap="butt" stroke-linejoin="miter"/></g><path d="M239.71153,185.1117c0.61865,-0.16514 10.03368,-0.80324 9.77147,-3.48116c-0.26637,-3.1779 -1.60862,-8.26695 3.18376,-9.20672c4.79237,-0.93978 5.26534,7.85661 4.75206,11.08097c-1.59874,7.39351 -9.67066,8.40049 -11.6706,8.41707c-1.99993,0.01659 -5.41932,0.10494 -7.51218,-1.43775c-2.19452,-1.74186 -0.74061,-4.89403 1.47549,-5.37242z" fill="#ff0000" fill-rule="evenodd" stroke="#001026" stroke-width="1.2" stroke-linecap="round" stroke-linejoin="round"/><g><path d="M240.25685,196.74518c0.08227,0.82976 0.2621,2.3753 0.40448,4.4196c0.27041,3.88217 0.40585,9.56299 -0.51808,15.55605l-0.09502,0.4497c-0.09502,0.4497 0.25713,0.90365 0.70431,0.90786c2.91286,-0.47317 8.6007,-1.12039 7.58278,5.2285c-0.92601,6.14949 -17.99885,8.8421 -19.35469,2.7712c-0.37017,-2.60699 1.03283,-3.94554 1.80174,-4.63921c0.40742,-0.39668 0.63722,-0.89519 0.77821,-1.44459c0.19625,-1.40003 0.49685,-4.00067 0.47883,-6.15372c0.02234,-5.40703 -0.31739,-6.86218 -0.73042,-9.61976c-0.41303,-2.75758 -1.58502,-9.22729 2.95754,-11.28721c3.86869,-1.81596 5.70586,1.50582 5.99031,3.81158z" fill="#513726" fill-rule="evenodd" stroke="#001026" stroke-width="1.2" stroke-linecap="round" stroke-linejoin="round"/><path d="M222.79162,204.1858c0.12221,-2.3261 1.72061,-5.8196 5.70279,-4.39611c4.67076,1.59936 3.95536,8.16341 3.73665,10.95257c-0.21872,2.78916 0.34452,4.27313 0.74495,9.65903c0.13264,2.14732 -0.18593,4.70887 0.10756,6.08442c0.0996,0.29693 0.93284,11.80503 -7.65332,11.30651c-7.58064,-0.44014 -1.3283,-13.71193 -1.3283,-13.71193c0,0 -1.40222,-11.55437 -1.40428,-15.44996c-0.00109,-2.05136 0.07001,-3.60945 0.09396,-4.44451z" data-paper-data="{&quot;index&quot;:null}" fill="#513726" fill-rule="evenodd" stroke="#001026" stroke-width="1.2" stroke-linecap="round" stroke-linejoin="round"/><g fill-rule="evenodd"><path d="M232.24753,202.99162c-12.31764,2.34189 -11.69631,-5.68472 -14.59544,-10.87811c-2.36888,-4.60261 -1.02593,-5.06968 3.40139,-9.51032c2.34394,-2.62405 3.72812,-4.16411 4.85683,-6.11544c1.73887,-2.89708 5.80286,0.49079 7.59363,2.76043c0,0 2.61263,3.41752 3.63195,5.67205c1.2193,2.75181 1.92768,4.68104 2.08645,6.25127c0,0 0.34202,3.37483 -0.87542,5.43802c-1.09435,1.85458 -6.09939,6.3821 -6.09939,6.3821z" fill="#ff0000" stroke="#001026" stroke-width="1.2" stroke-linecap="round" stroke-linejoin="round"/><path d="M238.63152,191.88547c0,0 -1.93123,0.57166 -4.19274,1.04979c-2.75818,0.64254 -5.24155,1.46458 -6.97177,-2.1098c-1.19996,-2.9836 -3.18819,-6.35988 1.9643,-8.49368c4.85836,-2.08151 6.09444,1.04789 6.09444,1.04789c2.90168,4.584 3.10575,8.5058 3.10575,8.5058z" fill="#ffffff" stroke="none" stroke-width="1" stroke-linecap="butt" stroke-linejoin="miter"/></g><path d="M239.22234,191.1715c0,0 0.34202,3.37483 -0.87542,5.43802c-1.09366,1.85341 -6.09309,6.3764 -6.09939,6.3821c-8.54582,1.62477 -10.86358,-1.74124 -12.4499,-5.68934c0.24405,-0.07657 0.46005,-0.14792 0.64332,-0.21118c6.39829,-2.2085 12.17694,-4.88474 18.686,-6.58253c0.04193,0.22843 0.07377,0.44901 0.09539,0.66294z" fill="#513726" fill-rule="nonzero" stroke="#001026" stroke-width="1.2" stroke-linecap="butt" stroke-linejoin="miter"/></g><path d="M227.22623,207.58094v0c-0.00001,0 -0.00001,0 -0.00001,0z" fill="#513726" fill-rule="nonzero" stroke="#001026" stroke-width="1.2" stroke-linecap="butt" stroke-linejoin="miter"/><g><g><path d="M244.5118,123.52025c0.32017,-0.16581 0.80614,-0.01147 0.86158,0.3971l1.40819,10.92094c0,0 5.84464,5.37496 7.37042,8.8638c2.57609,5.81839 2.18088,10.30213 2.18088,10.30213c0,0 6.82617,2.86765 7.3924,8.66501c0.56624,5.79736 -4.99416,16.04831 -24.08693,17.65955c-19.09277,1.61124 -33.54073,-5.11753 -39.34472,-17.22884c-5.80398,-12.1113 6.82296,-24.39789 6.13866,-23.66869c0,0 0.72297,-15.95938 1.09856,-15.71663l10.79008,6.46729c0,0 4.65958,-1.1951 9.3531,-0.8773c2.80502,0.10897 5.16849,0.57154 7.41059,1.22191z" fill="#ffab19" fill-rule="evenodd" stroke="#001026" stroke-width="1.2" stroke-linecap="butt" stroke-linejoin="miter"/><path d="M255.99072,154.36882c0,0 6.66036,2.54748 7.22658,8.34484c0.56624,5.79736 -5.33678,15.50737 -24.21977,17.0412c-24.60293,2.30984 -34.45054,-13.2669 -26.62606,-23.06627c7.83546,-9.89876 18.26559,0.41009 26.68064,0.73699c7.21133,0.2944 8.69893,-5.87951 16.9386,-3.05677z" fill="#ffffff" fill-rule="evenodd" stroke="none" stroke-width="1" stroke-linecap="butt" stroke-linejoin="miter"/><path d="M274.15833,157.48453c-5.08919,3.26039 -12.25656,2.56842 -12.25656,2.56842" fill="none" fill-rule="evenodd" stroke="#001026" stroke-width="1.2" stroke-linecap="round" stroke-linejoin="round"/><path d="M271.6352,168.4738c-6.31679,-0.19548 -9.98432,-2.51262 -9.98432,-2.51262" fill="none" fill-rule="evenodd" stroke="#001026" stroke-width="1.2" stroke-linecap="round" stroke-linejoin="round"/><path d="M238.94031,154.79738c2.08727,0.23081 4.25197,0.67141 4.27442,1.37816c-0.05448,1.40251 -1.85315,4.02067 -3.45445,3.94421c-1.81108,0.00095 -5.71085,-2.94554 -5.53499,-4.53585c0.0325,-1.20372 2.72713,-1.00635 4.71502,-0.78653z" fill="#001026" fill-rule="evenodd" stroke="#001026" stroke-width="1.2" stroke-linecap="round" stroke-linejoin="round"/><path d="M194.37782,148.36043c0,0 8.24014,3.72827 11.3782,7.19419" fill="none" fill-rule="evenodd" stroke="#001026" stroke-width="1.2" stroke-linecap="round" stroke-linejoin="round"/><path d="M205.66953,159.06639c-4.4608,1.21708 -11.69506,-0.68961 -11.69506,-0.68961" fill="none" fill-rule="evenodd" stroke="#001026" stroke-width="1.2" stroke-linecap="round" stroke-linejoin="round"/><g fill="none" fill-rule="nonzero" stroke="none" stroke-width="1" stroke-linecap="butt" stroke-linejoin="miter" font-family="sans-serif" font-weight="normal" font-size="12" text-anchor="start"/><g fill="none" fill-rule="nonzero" stroke="none" stroke-width="1" stroke-linecap="butt" stroke-linejoin="miter" font-family="sans-serif" font-weight="normal" font-size="12" text-anchor="start"/></g><path d="M244.67255,177.07585c0.08734,-0.6604 0.45956,-1.23217 0.99579,-1.63039c0.00321,-0.04997 0.00812,-0.10017 0.01478,-0.15056c0.11136,-0.84205 0.68587,-1.54001 1.47301,-1.91783c-0.01562,-0.16357 -0.01303,-0.33104 0.0094,-0.50062c0.06503,-0.49169 0.28797,-0.93426 0.61896,-1.29264c-0.11989,-0.32813 -0.16377,-0.68404 -0.1154,-1.04975c0.09173,-0.69355 0.49764,-1.28935 1.07779,-1.68904c-0.46109,-0.50045 -0.70114,-1.15876 -0.60941,-1.85231c0.0279,-0.21093 0.08486,-0.41283 0.16694,-0.60291c-0.04452,-0.11312 -0.07993,-0.22973 -0.10557,-0.34905c-0.581,-0.16794 -1.0707,-0.49522 -1.4115,-0.91805c-0.28929,0.06257 -0.59407,0.08574 -0.90557,0.06335c-0.4451,0.1747 -0.94641,0.251 -1.46408,0.20091c-0.11677,-0.0113 -0.23106,-0.02871 -0.34249,-0.05183c-0.56254,0.38018 -1.28499,0.57752 -2.04244,0.50422c-0.33584,-0.0325 -0.65108,-0.11554 -0.9371,-0.23958c-0.31119,0.06626 -0.64015,0.08696 -0.97599,0.05446c-0.69491,-0.06725 -1.30162,-0.35088 -1.74381,-0.76643c-0.39527,0.12575 -0.82787,0.17599 -1.27254,0.13296c-0.79338,-0.07677 -1.47179,-0.43561 -1.92165,-0.95079c-0.39287,0.1237 -0.82234,0.17288 -1.26371,0.13017c-0.09688,-0.00937 -0.19203,-0.02295 -0.28528,-0.04052c-0.09547,-0.0007 -0.19178,-0.00565 -0.28866,-0.01502c-0.37382,-0.03617 -0.72213,-0.13497 -1.03302,-0.28323c-0.0939,-0.00083 -0.1886,-0.00577 -0.28385,-0.01499c-0.37201,-0.036 -0.71874,-0.13402 -1.02849,-0.28108c-0.34033,0.08416 -0.7039,0.11344 -1.07591,0.07744c-0.76523,-0.07405 -1.42348,-0.41049 -1.8729,-0.89653c-0.43752,0.1829 -0.93253,0.26969 -1.44579,0.23281c-0.04889,0.01919 -0.09844,0.03718 -0.14863,0.05397c-0.57612,0.42863 -1.34206,0.65676 -2.14759,0.57881c-0.15357,-0.01486 -0.30284,-0.04029 -0.44697,-0.07537c-0.26105,0.30182 -0.59672,0.54838 -0.9795,0.72036c0.48521,0.50502 0.74062,1.17979 0.64646,1.89169c-0.00427,0.03232 -0.00923,0.06442 -0.01486,0.09631c0.1959,0.39127 0.27948,0.83289 0.21904,1.2898c-0.05858,0.44285 -0.24523,0.84582 -0.52355,1.18335c0.62481,0.5186 0.97245,1.28252 0.86503,2.09478c-0.05858,0.44285 -0.24524,0.84582 -0.52356,1.18335c0.62481,0.5186 0.97245,1.28251 0.86503,2.09477c-0.08229,0.62221 -0.41746,1.16573 -0.90442,1.55957c0.26112,0.43057 0.38087,0.93393 0.31164,1.45736c-0.18114,1.36963 -1.58758,2.35805 -3.14137,2.20769c-1.55379,-0.15036 -2.66653,-1.38255 -2.48538,-2.75218c0.08229,-0.62221 0.41745,-1.16573 0.90442,-1.55956c-0.26112,-0.43057 -0.38087,-0.93394 -0.31164,-1.45737c0.05858,-0.44285 0.24523,-0.84582 0.52355,-1.18335c-0.62481,-0.5186 -0.97245,-1.28251 -0.86503,-2.09477c0.05858,-0.44285 0.24524,-0.84583 0.52356,-1.18336c-0.62481,-0.5186 -0.97245,-1.28251 -0.86503,-2.09477c0.00427,-0.03232 0.00924,-0.06442 0.01486,-0.09631c-0.1959,-0.39127 -0.27948,-0.83289 -0.21905,-1.2898c0.02755,-0.20827 0.08343,-0.40772 0.16385,-0.5957c-0.57474,-0.51614 -0.88864,-1.24914 -0.78584,-2.0264c0.12623,-0.95435 0.84736,-1.72362 1.79873,-2.05151c0.51898,-0.9138 1.64451,-1.49333 2.86025,-1.37568c0.15357,0.01486 0.30284,0.04029 0.44697,0.07537c0.32382,-0.37438 0.76243,-0.66374 1.26335,-0.83118c0.55695,-0.41436 1.29128,-0.64136 2.06729,-0.58559c0.4451,-0.1747 0.94641,-0.251 1.46408,-0.20091c0.76523,0.07405 1.42348,0.41049 1.8729,0.89653c0.4603,-0.19241 0.98423,-0.27847 1.52608,-0.22603c0.37201,0.036 0.71875,0.13402 1.0285,0.28108c0.34033,-0.08416 0.7039,-0.11344 1.07591,-0.07744c0.37382,0.03617 0.72212,0.13497 1.03302,0.28323c0.0939,0.00083 0.1886,0.00577 0.28385,0.01499c0.09688,0.00937 0.19203,0.02295 0.28528,0.04051c0.09547,0.0007 0.19177,0.00566 0.28864,0.01503c0.79338,0.07677 1.47179,0.4356 1.92165,0.95078c0.39287,-0.1237 0.82234,-0.17287 1.26371,-0.13016c0.69491,0.06725 1.30162,0.35088 1.74381,0.76643c0.39527,-0.12575 0.82787,-0.17599 1.27255,-0.13296c0.33584,0.0325 0.65109,0.11554 0.93711,0.23958c0.31119,-0.06626 0.64015,-0.08696 0.97599,-0.05446c0.11677,0.0113 0.23106,0.02871 0.34249,0.05183c0.54263,-0.36673 1.23404,-0.56332 1.96214,-0.511c0.4451,-0.1747 0.94641,-0.251 1.46408,-0.20091c0.8321,0.08052 1.53772,0.47132 1.98586,1.02733c0.3141,-0.06793 0.64648,-0.08942 0.98587,-0.05658c1.26115,0.12204 2.23175,0.9568 2.45575,1.99927c1.2436,0.35947 2.06892,1.44897 1.91101,2.6429c-0.0279,0.21093 -0.08486,0.41283 -0.16694,0.60291c0.13476,0.34244 0.18616,0.71677 0.13521,1.10197c-0.09173,0.69355 -0.49765,1.28935 -1.0778,1.68904c0.46109,0.50045 0.70114,1.15876 0.60941,1.85231c-0.06503,0.49169 -0.28797,0.93426 -0.61896,1.29264c0.11989,0.32813 0.16378,0.68404 0.11541,1.04975c-0.11136,0.84205 -0.68588,1.54001 -1.47302,1.91783c0.01562,0.16357 0.01303,0.33104 -0.0094,0.50062c-0.08734,0.6604 -0.45956,1.23218 -0.9958,1.63039c-0.00321,0.04997 -0.00812,0.10016 -0.01478,0.15056c-0.18114,1.36963 -1.58759,2.35805 -3.14137,2.20769c-1.55378,-0.15036 -2.66653,-1.38255 -2.48538,-2.75218z" fill="#ffffff" fill-rule="nonzero" stroke="#001026" stroke-width="1.2" stroke-linecap="butt" stroke-linejoin="miter"/><g fill-rule="nonzero" stroke-linecap="butt" stroke-linejoin="miter"><g><path d="M184.50373,139.49554c-0.05712,-3.11154 2.80989,-5.9135 6.40365,-6.25837c3.59377,-0.34487 6.5534,1.89795 6.61053,5.00949c0.05712,3.11154 -2.80989,5.9135 -6.40365,6.25837c-3.59377,0.34487 -6.5534,-1.89795 -6.61052,-5.00948z" fill="#ffffff" stroke="#001026" stroke-width="1.2"/><path d="M208.43417,104.74315c0.43117,1.02947 -0.79691,1.50427 -0.79691,1.50427l-0.76995,0.25553c-2.50908,1.68988 -4.48647,4.16699 -6.30326,6.41663c-1.92486,7.76507 -9.09471,14.09477 -8.87209,22.29669c0,0 0.02069,1.12678 -1.28073,1.25167c-1.30142,0.12488 -1.32211,-1.00189 -1.32211,-1.00189c-0.0973,-8.58747 6.87239,-15.19778 9.10695,-23.28945c2.01631,-2.63999 4.31561,-5.43609 7.19302,-7.41018l1.38583,-0.57794c0,0 1.22809,-0.4748 1.65926,0.55467z" fill="#001026" stroke="none" stroke-width="0.5"/></g><g stroke="#001026" stroke-width="1.2"><path d="M208.41063,144.0246c-1.42277,-0.97094 -3.57969,-1.46582 -4.55974,-2.72384c-0.14947,-0.19186 -0.27156,-0.40146 -0.3595,-0.63321c-0.1678,-0.4422 -0.25096,-0.9458 -0.2685,-1.49296c-0.00898,-0.1774 -0.00818,-0.35709 0.00272,-0.53862c0.12774,-3.24801 2.1664,-7.71118 2.65505,-10.14419c0.36225,-1.80366 0.68042,-4.13926 0.49714,-5.89635c-0.5279,-5.06109 -4.48135,-19.41329 3.17184,-22.20929c6.41587,-2.34397 10.91214,4.12821 13.79742,7.2402c4.80091,5.17813 11.33738,12.4807 18.44954,15.4705c3.24203,1.36288 8.19914,4.90546 6.3586,8.77641c-5.41008,11.37827 -20.00468,0.6214 -29.38259,2.56634c-3.82461,0.79321 -0.9654,6.1521 -4.22134,7.34161z" fill="#ff0000"/><path d="M253.66583,133.04148c3.52005,0.34063 5.78472,3.13954 5.0583,6.25153c-0.72643,3.112 -4.16887,5.35865 -7.68892,5.01802c-2.49838,-0.24176 -4.36436,-1.72189 -4.97734,-3.6734c-0.69755,0.13541 -1.42169,0.17551 -2.14915,0.10512c-2.67947,-0.25929 -4.63154,-1.94297 -5.09064,-4.1049c-1.46733,1.80464 -3.9693,2.90834 -6.51174,2.66231c-2.26846,-0.21951 -4.01557,-1.45997 -4.77676,-3.14721c-1.45469,1.11013 -3.38411,1.7178 -5.33742,1.52878c-0.62219,-0.06021 -1.20517,-0.19723 -1.73933,-0.39918c-0.02234,0.17757 -0.05436,0.35661 -0.0964,0.5367c-0.72643,3.112 -4.16887,5.35864 -7.68892,5.01801c-0.0279,-0.0027 -0.0557,-0.00555 -0.08344,-0.00856c-1.12899,2.61424 -4.22337,4.38959 -7.38017,4.08412c-3.52005,-0.34063 -5.78471,-3.13954 -5.05829,-6.25153c0.72643,-3.112 4.16887,-5.35864 7.68892,-5.01801c0.0279,0.0027 0.05571,0.00555 0.08344,0.00856c1.12899,-2.61423 4.22337,-4.38958 7.38015,-4.08411c0.62219,0.06021 1.20517,0.19723 1.73933,0.39919c0.02234,-0.17757 0.05436,-0.35661 0.0964,-0.5367c0.72643,-3.112 4.16887,-5.35864 7.68892,-5.01801c2.26846,0.21951 4.01557,1.45997 4.77676,3.14721c1.45469,-1.11013 3.38411,-1.7178 5.33741,-1.52878c2.67947,0.25929 4.63155,1.94297 5.09064,4.10491c1.46733,-1.80464 3.9693,-2.90835 6.51174,-2.66232c2.49838,0.24176 4.36435,1.72189 4.97733,3.6734c0.69755,-0.13541 1.42168,-0.17551 2.14915,-0.10512z" fill="#ffffff"/></g></g></g><path d="M215.70996,154.64018c0.15213,0.08455 0.30833,0.24965 0.27744,0.56882c-0.05779,0.59721 -0.655,0.53942 -0.655,0.53942l-0.58206,-0.11996c-4.39578,-2.81503 -0.37007,-9.85292 2.14905,-12.68412c3.3616,-3.66868 10.55275,-4.14589 14.0343,-0.00285c2.80944,3.41142 4.04185,6.55249 2.51038,10.86208c-0.57951,1.63075 -1.03564,3.34155 -3.07788,3.23308c-1.39037,-0.49409 -4.77718,-0.46902 -5.59716,-1.9573c-0.88587,-1.60787 2.14033,-7.39086 -1.18181,-7.60657c-2.80927,-0.27185 -9.22914,2.82368 -7.70435,6.48427c0,0 0.16618,0.43207 -0.17291,0.68314z" fill="#001026" fill-rule="nonzero" stroke="none" stroke-width="0.5" stroke-linecap="butt" stroke-linejoin="miter"/><path d="M245.9264,157.25717c-0.03639,0.14306 -0.13535,0.29119 -0.36708,0.38033c-0.56,0.21539 -0.7754,-0.34462 -0.7754,-0.34462l-0.29345,-0.80765c0.05249,-0.68965 0.11711,-1.37686 0.18372,-2.06524c0.36571,-3.77926 4.48906,-12.87911 9.37571,-8.67996c2.91216,1.85465 1.87798,5.40519 1.59096,8.28278c-0.09984,1.00097 -0.44502,3.31636 -2.11,2.25312c-1.00796,-0.64367 -0.23306,-2.83726 -0.38565,-3.80681c-0.34608,-2.41157 -3.75563,0.8568 -4.06178,2.28915c-0.11448,0.5356 0.06446,1.74697 -0.29446,2.15929c-0.66443,0.76328 -1.93815,0.46823 -2.86257,0.33962z" fill="#001026" fill-rule="nonzero" stroke="none" stroke-width="0.5" stroke-linecap="butt" stroke-linejoin="miter"/><g fill-rule="nonzero" stroke="none" stroke-width="0.5" stroke-linecap="butt" stroke-linejoin="miter"><path d="M234.69251,169.11669c-2.64249,-0.36192 -5.32513,-1.10315 -7.2752,-2.90045c-0.65643,-1.48039 0.07352,2.42929 -0.01435,3.36663c-0.24229,2.58452 -1.06784,5.86316 0.95867,7.91665c0.74033,0.10034 1.76484,0.52397 2.47697,0.45626c3.18811,-0.3031 2.52126,-6.35389 3.85391,-8.8391zM235.99144,169.26767l-0.07016,0.23148c-2.21561,2.47772 -0.30205,9.18744 -4.85006,9.66304c-0.90365,0.0945 -2.25667,-0.38863 -3.16347,-0.58272c-3.19997,-2.76475 -1.5282,-6.30923 -1.62312,-9.85196c-0.02215,-0.82665 -0.65114,-3.82147 0.28461,-4.30006c1.0661,-0.54525 1.44926,0.51871 1.76735,1.09849c2.3525,2.12834 5.59564,2.08418 8.5092,2.51862c0.21126,0.0315 1.96435,0.09589 2.89313,0.1856c-0.11828,-0.08166 -0.23226,-0.17022 -0.31726,-0.23155c0,0 -0.50388,-0.36466 -0.18733,-0.85003c0.31655,-0.48537 0.82043,-0.12072 0.82043,-0.12072c2.80865,2.03815 -0.09343,2.52585 -2.0321,2.39943c-0.65554,-0.04275 -1.33746,-0.09171 -2.03123,-0.15963z" fill="#001026"/><path d="M230.84162,178.00571c-0.71213,0.0677 -1.75788,-0.35927 -2.49821,-0.45961c-2.02652,-2.05349 -1.22159,-5.41017 -0.9793,-7.99469c0.08787,-0.93735 -0.6264,-4.85985 0.03003,-3.37946c1.95008,1.7973 4.69677,2.55406 7.33926,2.91598c-1.33265,2.48522 -0.70368,8.61469 -3.89178,8.91778z" data-paper-data="{&quot;noHover&quot;:false,&quot;origItem&quot;:[&quot;Path&quot;,{&quot;applyMatrix&quot;:true,&quot;segments&quot;:[[[234.69251,169.11669],[-1.33265,2.48522],[-2.64249,-0.36192]],[[227.41731,166.21625],[1.95008,1.7973],[-0.65643,-1.48039]],[[227.40295,169.58288],[0.08787,-0.93735],[-0.24229,2.58452]],[[228.36163,177.49953],[-2.02652,-2.05349],[0.74033,0.10034]],[[230.8386,177.9558],[-0.71213,0.0677],[3.18811,-0.3031]]],&quot;closed&quot;:true}]}" fill="#ffffff"/></g><g fill-rule="nonzero" stroke="#001026" stroke-width="1.2" stroke-linejoin="miter"><g><path d="M252.78459,186.41225l-13.26463,-17.7809l11.63521,-6.27009l7.64095,19.9616c0,0 -0.92886,2.46296 -1.8996,3.12331c-1.02964,0.70042 -4.11192,0.96608 -4.11192,0.96608z" fill="#505a63" stroke-linecap="butt"/><path d="M238.21069,167.77883c-1.92746,-3.57671 -0.59046,-8.03871 2.98624,-9.96616c3.57671,-1.92746 8.03872,-0.59046 9.96616,2.98624c1.92746,3.57671 0.59046,8.03873 -2.98624,9.96617c-3.57671,1.92746 -8.03871,0.59045 -9.96617,-2.98626z" fill="url(#color-1)" stroke-linecap="butt"/><path d="M244.91417,171.31418c0,0 -2.95389,-3.56838 -3.99925,-5.45651c-0.97699,-1.76466 -2.08165,-5.52692 -2.08165,-5.52692" fill="none" stroke-linecap="round"/><path d="M250.87435,167.94024c0,0 -3.76058,-4.35952 -4.99873,-6.21629c-0.91481,-1.3719 -1.7582,-3.91669 -1.7582,-3.91669" fill="none" stroke-linecap="round"/><path d="M238.3721,168.19559c0,0 2.63402,-4.27774 4.54384,-5.93629c1.66152,-1.44293 6.27424,-3.45854 6.27424,-3.45854" fill="none" stroke-linecap="round"/><path d="M242.56649,171.76905c0,0 3.19579,-4.51712 4.88097,-6.30883c1.30999,-1.39279 4.39108,-3.54926 4.39108,-3.54926" fill="none" stroke-linecap="round"/></g><path d="M258.06952,174.69692c1.2926,2.38148 0.55126,5.57567 -1.65583,7.13445c-2.20709,1.55878 -4.86789,1.67055 -6.16049,-0.71094c-1.2926,-2.38148 -0.72754,-6.35439 1.47956,-7.91316c2.20709,-1.55878 5.04414,-0.89183 6.33676,1.48965z" fill="#ffab19" stroke-linecap="butt"/></g><path d="M213.88789,184.53329c-0.1839,-0.71559 -0.819,-11.58575 -3.91167,-11.31197c-3.6696,0.2732 -9.55589,1.76725 -10.58873,-3.77241c-1.03285,-5.53965 9.12172,-5.99087 12.83655,-5.364c8.51364,1.92409 9.5888,11.24851 9.58645,13.55626c-0.00234,2.30775 0.06286,6.25407 -1.73962,8.65229c-2.03338,2.51338 -5.65481,0.80196 -6.18298,-1.76018z" fill="#ff0000" fill-rule="evenodd" stroke="#001026" stroke-width="1.2" stroke-linecap="round" stroke-linejoin="round"/></g></g></svg>