<svg version="1.1" xmlns="http://www.w3.org/2000/svg" xmlns:xlink="http://www.w3.org/1999/xlink" width="80.83738" height="108.3373" viewBox="0,0,80.83738,108.3373"><g transform="translate(-192.55037,-130.02355)"><g data-paper-data="{&quot;isPaintingLayer&quot;:true}" fill-rule="nonzero" stroke="none" stroke-linecap="butt" stroke-linejoin="miter" stroke-miterlimit="10" stroke-dasharray="" stroke-dashoffset="0" style="mix-blend-mode: normal"><path d="M196.52668,156.12478l15.92285,-25.24084l27.05497,3.24399l24.25498,12.85914l-6.48245,23.84718l-1.28196,9.01594l17.39268,16.32654l-13.97772,12.19286l8.50593,8.37898l-19.49529,5.0687l9.01872,16.28791l-22.49198,-1.13081l-5.54511,-16.53354l-14.28534,4.30075l-17.31549,-31.30622l7.94434,-15.4089z" fill="#ffffff" stroke-width="0"/><path d="M240.18667,171.80886c0.00637,0.11624 0.00295,0.24103 -0.01194,0.37499c-0.19326,1.7393 -1.93255,1.54604 -1.93255,1.54604c-0.71257,-0.09383 -1.52531,0.09472 -2.1377,-0.2815c-1.09374,-0.67194 -2.86977,-1.43517 -2.73438,-2.71166c0.31437,-2.96397 3.72419,-2.60507 5.45561,-2.64263l1.53105,3.20851c0,0 -0.03816,0.22898 -0.17009,0.50625z" fill="#9966ff" stroke-width="0.5"/><path d="M216.18649,165.06451c-0.04345,0.19761 -0.12855,0.40922 -0.26876,0.63355c-0.9275,1.484 -2.4115,0.5565 -2.4115,0.5565c-0.73626,-0.56576 -1.94945,-0.8057 -2.20878,-1.69727c-1.03583,-3.56113 0.74487,-4.63424 3.62333,-4.26595c1.15584,0.14789 2.81915,0.17124 3.26558,1.24759c0.45734,1.10267 -0.91796,2.20397 -1.37695,3.30595z" fill="#9966ff" stroke-width="0.5"/><path d="M225.11188,172.57596c-0.04802,0.04804 -0.09603,0.09609 -0.14405,0.14413l-0.06838,-0.15193c-0.46823,-0.04476 -0.99843,-0.28615 -1.33243,-1.03764c-0.0339,-0.07627 -0.06254,-0.15052 -0.08636,-0.22277l-0.56471,-0.90354c-0.17733,-0.27367 -0.2803,-0.6 -0.2803,-0.95038c0,-0.9665 0.7835,-1.75 1.75,-1.75c0.20784,0 0.40721,0.03623 0.59215,0.10272l1.46587,0.48862c0.04482,0.00396 0.10196,0.01057 0.16788,0.02159c0.10089,-0.01809 0.20477,-0.02753 0.31087,-0.02753c0.9665,0 1.75,0.7835 1.75,1.75c0,0.63662 -0.33994,1.19384 -0.84819,1.50005l-1.53539,0.95962l-0.12865,-0.20585l-0.28324,0.12588c0,0 -0.33426,0.14856 -0.76506,0.15702z" fill="#9966ff" stroke-width="0.5"/><path d="M194.38525,165.76781c1.34439,-1.12032 2.46471,0.22406 2.46471,0.22406l0.21988,0.64309c2.18922,0.79684 3.71028,1.12241 5.89437,0.93897c-0.09018,-0.46686 -0.16383,-0.94226 -0.22018,-1.42613c-0.05107,-0.43848 -0.12544,-1.36454 -0.18116,-2.38282c-2.60083,-2.62351 -4.41865,-5.32915 -8.00097,-6.50559l-1.00977,-0.48522c0,0 -1.56525,-0.78262 -0.78262,-2.34787c0.78262,-1.56525 2.34787,-0.78262 2.34787,-0.78262l0.55132,0.29532c3.13714,1.05873 5.11549,2.92931 7.18432,5.08306c0.80585,-2.2469 2.3924,-4.66288 3.73003,-6.85415c-1.43136,0.23645 -2.87559,0.1546 -4.34667,-0.61701v-0.00001c-0.9892,-0.51885 -2.40703,-1.04415 -2.57121,-2.14904c-0.70764,-4.76221 4.35841,-4.13631 6.96315,-4.13864l0.5632,0.11563c-0.4805,-1.38577 -0.80659,-2.79911 -0.20545,-4.16228c0.9343,-2.11868 4.14778,-3.08214 5.89294,-4.24633c2.33691,-1.55894 4.07891,-3.28015 5.91712,-5.3667c1.03091,-0.518 1.9526,-1.37733 3.09272,-1.554c1.72891,-0.26791 4.74223,1.60911 6.31095,2.28221c4.89055,2.09843 9.86964,4.26206 14.90526,6.00264c2.14526,0.74151 6.92807,1.58127 8.21645,3.60917c0.53488,0.84189 -0.07797,2.00098 -0.26665,2.98041c-0.25379,1.31744 -0.74076,2.59838 -1.22986,3.87445c1.45463,-0.24379 2.91994,-0.34134 4.2213,-0.21787c1.00788,0.09563 2.29742,-0.22243 2.99366,0.51256c0.55541,0.58632 0.58228,4.73084 0.50747,5.66386c-0.55612,6.93533 -3.26192,12.9075 -8.31754,17.54346c1.3386,0.43112 2.70142,0.87407 3.08097,1.33558c0.65945,0.80184 1.00328,1.57024 1.10602,2.29637c1.16667,0.0551 2.33136,0.18054 3.47923,0.38567l1.83401,1.60423c0,0 1.09322,1.36652 -0.2733,2.45974c-1.36652,1.09322 -2.45974,-0.2733 -2.45974,-0.2733l0.27293,-0.34712c-1.3735,-0.25469 -2.77817,-0.36657 -4.17507,-0.36204c0,0 -0.01367,0 -0.03858,-0.00121c-0.68731,0.71397 -1.55758,1.32801 -2.44306,1.82225c0.86,0.97874 1.74206,1.229 3.41025,1.54269l0.04707,-0.03398c0,0 1.75,0 1.75,1.75c0,0.23875 -0.03257,0.44493 -0.08883,0.62298c1.53261,-0.0671 2.96006,-0.03135 3.99777,-0.03135c0,0 1.43311,0 1.70557,1.29688c7.12259,3.49246 11.22113,14.38357 2.6146,18.98238c-4.23522,2.26304 -8.36941,1.61264 -12.23903,-0.12358c0.36433,0.55396 0.74148,1.09127 1.13563,1.60689c3.36824,2.41453 7.22,4.28428 10.47032,6.81578c0.89012,0.69327 2.36063,1.15068 2.51182,2.26875c0.54082,3.99935 -3.52199,3.81741 -5.6999,4.06637c-3.96397,0.45313 -7.98625,0.48548 -11.51499,-0.79218c0.92133,2.05477 1.92965,4.06329 3.11776,5.89884c2.02928,3.1351 4.70259,5.40726 6.52555,8.71595c-0.60843,1.11935 -0.92301,2.4586 -1.8253,3.35806c-0.81852,0.81595 -3.3786,1.1031 -4.51069,1.16279c-3.80915,0.20086 -7.96826,-0.48557 -11.10254,-2.88698c-3.4304,-2.62829 -4.90152,-7.0617 -6.75652,-10.76309c-1.27708,-2.54822 -2.38785,-5.24574 -3.53858,-7.92251c-2.19519,3.27583 -6.43592,5.37844 -10.4118,5.57157c-4.2434,0.20612 -9.62551,-3.44079 -8.42313,-8.23563c0.76105,-3.03489 3.71934,-4.53575 6.5353,-5.00312c1.91914,-0.31853 4.1781,0.28163 5.37985,-1.67496c-0.0226,-0.42459 -0.04521,-0.84918 -0.06781,-1.27378v-0.39027c0,0 0,-0.50288 0.26957,-0.96949c-1.14822,-1.37269 -2.36628,-2.5903 -3.78347,-3.8904c-0.24659,1.12816 -0.61186,2.28983 -1.10508,3.54133c-0.72542,1.84067 -0.54712,2.65151 -2.41132,3.9416c-0.55656,0.38516 -1.41642,0.64184 -2.29785,0.82881c-0.51626,1.31482 -1.98529,0.98836 -1.98529,0.98836c-2.63983,-0.59886 -5.32787,-1.77462 -7.50396,-3.43339c-3.04232,-2.31907 -5.44734,-6.8825 -4.35692,-10.77542c0.53698,-1.91708 2.036,-3.55356 3.91258,-4.62287c-0.08599,-0.12733 -0.16662,-0.25811 -0.23988,-0.39365c-0.37098,-0.68638 -0.61218,-1.44869 -0.75377,-2.21595c-1.05298,-5.70598 4.00357,-6.68664 8.37988,-6.10316c-0.01243,-0.06903 -0.0208,-0.13947 -0.02488,-0.21106c-0.04976,-0.51759 0.07237,-1.24282 0.97697,-1.67287c0.0408,-0.02003 0.0825,-0.03852 0.12502,-0.05539c0.0942,-0.03875 0.18522,-0.06943 0.27312,-0.09287c-3.59606,-2.37714 -6.52872,-5.60704 -8.14278,-9.62614c-0.04638,0.0085 -0.07306,0.01146 -0.07306,0.01146c-3.00806,0.32279 -5.14817,-0.06425 -8.00187,-1.06693l-1.73148,-1.69854c0,0 -1.12032,-1.34439 0.22406,-2.46471zM230.31785,184.88022c0.98625,0.4392 1.96868,0.88575 2.95499,1.30877c2.35236,1.0089 5.19253,1.71816 7.30004,3.32849c0.9439,-0.52123 1.88281,0.22989 1.88281,0.22989l0.43586,0.48687c0.92825,0.3098 1.84258,0.58206 2.75939,0.81567c-0.04198,-0.38145 -0.03275,-0.78505 0.03596,-1.20771c0.38278,-2.35459 2.32982,-3.55571 4.68821,-4.16491c-1.66996,-0.56974 -2.82353,-1.41156 -4.03595,-3.0151c-4.94739,1.75896 -10.5888,2.15488 -16.02131,2.21804zM250.41581,197.31005c-0.28237,-0.67995 -0.88175,-1.33339 -1.12503,-2.01661c-1.58972,-0.19858 -3.1188,-0.49611 -4.64222,-0.88948c0.9924,1.56058 1.89121,3.22714 2.78199,4.89564c4.23376,2.80505 8.89671,5.54299 14.00373,2.94566c6.36791,-3.2386 1.50189,-11.71928 -3.59785,-13.16276c0,0 -0.45802,-0.13741 -0.82339,-0.50799c-2.1447,0.02033 -4.08889,0.14376 -6.26143,0.86304c-0.35876,0.11878 -2.22026,0.58566 -1.47915,1.50813c1.12775,1.40371 3.19338,-0.64969 4.47442,0.11523c1.05154,0.62788 1.75921,1.86152 2.04511,3.05241c0.20732,0.8636 -1.90628,2.2516 -1.04118,2.45255c0.90407,0.21 1.88143,-0.3677 2.78094,-0.13898c2.06156,0.5242 2.41955,0.97921 3.40966,2.1391c0.18506,-0.03083 1.71856,-0.23574 2.04093,1.37607c0.3432,1.71602 -1.37281,2.05922 -1.37281,2.05922l-2.63589,-0.3685c-0.73241,-0.87898 -0.99173,-1.58303 -2.16845,-1.78213c-1.67306,-0.28309 -3.04234,0.86691 -4.63422,-0.91953c-0.28362,-0.31828 -0.44717,-0.71164 -0.53934,-1.13784zM261.55513,199.26981c0.01732,0.01925 0.03482,0.03866 0.05252,0.05821zM224.56313,210.77299c-2.61725,2.28155 -5.64422,0.9518 -8.41071,2.21946c-0.97241,0.44558 -2.49531,1.64717 -1.99513,2.98197c2.16711,5.78313 12.0919,1.61854 13.23543,-2.5325c0,0 0.11503,-0.38343 0.41845,-0.72851c-0.62763,-1.31709 -1.29207,-2.60692 -2.01978,-3.84768c-0.35634,0.68114 -0.65735,1.40958 -1.22826,1.90726zM220.27963,197.22108l0.0368,0.03271c3.10145,2.75685 5.40945,5.11165 7.68205,8.51577c3.38632,5.34203 5.46385,11.67042 8.29539,17.34605c1.57813,3.16326 2.79901,7.29451 5.73217,9.53103c2.47157,1.88456 9.32545,3.88747 11.83183,1.24361c-5.47327,-4.95481 -8.5454,-11.44168 -11.35638,-18.06865c-0.10119,-0.10567 -0.20136,-0.21363 -0.3005,-0.32392l-0.45242,-0.77028c0,0 -0.26339,-0.52679 -0.17897,-1.12196c-0.02257,-0.05393 -0.04514,-0.10786 -0.06771,-0.16178c-1.62987,-3.89449 -3.98668,-7.38008 -5.69237,-11.23265c-0.32909,0.31818 -0.6441,0.65053 -0.94453,0.99313c0,0 -1.16264,1.30797 -2.4706,0.14533c-1.30797,-1.16264 -0.14533,-2.4706 -0.14533,-2.4706c1.08546,-1.20753 2.30911,-2.31155 3.65455,-3.22049l1.29647,-0.55902c0,0 1.62483,-0.64993 2.27477,0.9749c0.48338,1.20846 -0.29153,1.87765 -0.72043,2.14126c1.69198,4.12334 4.24235,7.78272 5.98105,11.88875c0.2427,0.57314 0.48375,1.15451 0.72536,1.74111c4.03423,3.85284 9.29973,2.42213 14.55897,2.47999c-0.55493,-0.32973 -1.06318,-0.74512 -1.61568,-1.08144c-3.10734,-1.89154 -5.9581,-3.73547 -8.89247,-5.896c-2.87033,-3.64251 -5.03375,-7.72157 -7.48669,-11.6476c-0.95427,-1.52734 -1.7601,-3.64603 -3.03808,-4.9269c-1.79865,-1.80272 -4.85032,-2.40706 -7.097,-3.36925c-2.93297,-1.2561 -5.88634,-2.85701 -8.99756,-3.59078c-0.15818,0.02561 -0.26288,0.02561 -0.26288,0.02561l-0.38839,-0.0107c-2.42151,-0.27242 -4.50712,-0.60469 -6.79916,-0.44831c0.01668,0.333 -0.0804,0.7139 -0.3887,1.12496c-1.05,1.4 -2.45,0.35 -2.45,0.35l-0.2334,-0.30921c-2.3783,-0.74054 -8.69666,-1.63758 -6.14991,2.76672c0.17188,0.29725 0.38907,0.56355 0.61528,0.82369c2.0729,-0.32443 4.18901,0.05124 5.7996,1.39606c1.74994,1.46118 2.41972,4.32451 3.22867,6.3469l0.12875,0.09586c0.08913,-1.56308 -0.10008,-3.15943 -0.53488,-5.11551l-0.34214,-0.99704c0,0 -0.5534,-1.6602 1.1068,-2.21359c1.6602,-0.5534 2.21359,1.1068 2.21359,1.1068l0.4384,1.34458c0.38048,1.7126 0.59972,3.24185 0.63732,4.71168c0.45559,0.13119 0.76834,0.40919 0.76834,0.40919zM214.18338,181.85115c0.01983,0.04461 0.03965,0.08922 0.05948,0.13383c0.05334,-0.00592 0.10657,-0.0116 0.15969,-0.01705c-0.07325,-0.03861 -0.14631,-0.07754 -0.21917,-0.11678zM210.24333,206.16938c0.08923,-0.01465 2.90133,-0.39164 3.40907,-0.70172c0.76192,-0.46531 0.84154,-1.6249 1.10112,-2.30274c0.22538,-0.58854 0.41921,-1.14587 0.58254,-1.68244c-0.6729,-0.05399 -1.16407,-0.54517 -1.16407,-0.54517l-1.55821,-1.75832c-0.56824,-1.42059 -1.06708,-3.87129 -2.23513,-4.97097c-1.9602,-1.84547 -6.94935,0.16179 -7.51095,2.57661c-0.60225,2.58962 0.98579,5.65676 3.05824,7.17707c1.26417,0.92737 2.69406,1.69718 4.18392,2.23888c0.0827,-0.02274 0.13348,-0.0312 0.13348,-0.0312zM206.13962,148.76497c-0.28779,0.00198 -0.5756,0.005 -0.86337,0.00565c0.03894,0.0031 0.07672,0.00632 0.11315,0.00965c0.25463,0.02331 0.50442,0.01541 0.75022,-0.0153zM246.93238,146.43043c0.27601,-0.79073 0.40992,-1.63125 0.73884,-2.40148c0.09683,-0.22675 0.7094,-0.38181 0.51389,-0.53204c-1.17357,-0.90177 -4.82733,-1.37064 -6.22359,-1.85463c-4.17912,-1.44863 -8.31532,-3.17619 -12.4001,-4.92046c0.78495,2.5429 -1.61429,6.30468 -2.34354,8.12032c-0.08619,0.21459 -0.47869,1.96329 -0.93448,2.9197c1.34333,-0.19094 2.85072,0.20182 4.12264,0.46614c3.40144,0.70686 6.68016,1.3582 9.91711,2.65261c2.17195,1.32138 2.65121,0.07107 4.88231,-0.81087c0.16365,-0.06469 0.3311,-0.12824 0.5019,-0.19048c0.37594,-1.16013 0.82302,-2.29714 1.22502,-3.44882zM220.99896,134.32336c-1.81837,2.20648 -3.78655,3.96535 -6.1813,5.5609c-0.87349,0.58198 -4.02265,1.68038 -4.64439,2.77855c-0.19749,0.34883 0.10613,1.36912 0.49116,2.42976c0.79746,-1.10899 1.74518,-2.13661 3.0523,-3.14209c3.32956,-2.95961 6.88959,-6.13642 11.5116,-6.60815c0.26492,-0.02704 0.54292,-0.08779 0.82454,-0.15443c-1.75551,-0.88343 -3.35401,-1.98004 -5.05392,-0.86454zM210.9533,167.59849c1.6602,-0.5534 2.21359,1.1068 2.21359,1.1068c1.60303,4.9313 7.13611,5.69887 11.50754,7.45422l1.61829,0.35962c0.80079,0.16059 1.40402,0.86775 1.40402,1.7158c0,0.9665 -0.7835,1.75 -1.75,1.75c-0.074,0 -0.14694,-0.00459 -0.21853,-0.01351l-1.73095,-0.19233l0.02003,-0.18024l-0.20327,-0.04517c-0.96113,0.20635 -1.92497,0.4124 -3.02335,0.74772c-0.07209,0.02201 -0.403,0.12167 -0.85015,0.25576c1.00732,0.33274 2.03097,0.60457 3.0565,0.81468c6.56864,-0.02579 12.53957,-0.17691 18.9797,-1.53187c1.76436,-0.37121 3.84337,-0.68462 5.48743,-1.44017c0.60743,-0.27915 1.15819,-0.67309 1.69684,-1.06899c0.36711,-0.26982 1.20235,-0.99824 0.76668,-1.13154c-1.8577,-0.56843 -3.43279,-0.85146 -5.19971,-1.94414c0,0 -1.484,-0.9275 -0.5565,-2.4115c0.27519,-0.4403 0.59937,-0.66832 0.91924,-0.77126c0.19247,-0.22134 0.37458,-0.34274 0.37458,-0.34274l0.98916,-0.64146c5.9177,-5.17297 6.32941,-10.50097 7.59808,-17.80629c0.05013,-0.28863 0.52161,-0.42111 0.51256,-0.71392c-0.00751,-0.24298 -0.28051,0.46438 -0.51878,0.51256c-1.23723,0.25016 -2.53005,0.12146 -3.76971,0.35923c-2.70151,0.51816 -6.2257,2.85785 -8.84303,2.75854c-0.92659,-0.03516 -1.69613,-0.7499 -2.5442,-1.12486c-3.36052,-1.34465 -7.34645,-2.44632 -10.96855,-2.78197c-1.36074,-0.1261 -4.18086,0.4139 -5.15381,-0.91876c-0.62021,-0.84951 -0.0041,-2.10761 0.10548,-3.15371c0.24432,-2.33231 1.55283,-4.81039 2.42407,-6.90229c0.21568,-0.51787 0.38962,-1.05692 0.62382,-1.5659c-1.00965,0.58326 -2.70307,0.55463 -3.66989,1.04191c-2.3024,1.1604 -4.40961,3.17067 -6.31919,4.86808c-2.74347,1.99393 -3.51942,4.22324 -5.12573,7.20638c-1.42848,2.65288 -4.00234,5.9534 -4.82197,8.84309c-0.12052,0.4249 0.19761,4.68825 0.23602,5.0247c0.23151,2.0279 0.83766,3.87353 1.73227,5.53205l0.32079,-0.96236c0.2025,-0.65846 0.78307,-1.15132 1.48836,-1.22526c0.02831,-0.51751 0.26506,-1.17183 1.19228,-1.4809zM218.3554,177.53248c-0.00995,-0.00394 -0.01989,-0.00789 -0.02984,-0.01183c0.00059,0.00813 0.00113,0.01628 0.00161,0.02444c0.00941,-0.00419 0.01882,-0.0084 0.02823,-0.01261z" fill="#9966ff" stroke-width="0.5"/></g></g></svg>