<svg version="1.1" xmlns="http://www.w3.org/2000/svg" xmlns:xlink="http://www.w3.org/1999/xlink" width="137.31502" height="241.9571" viewBox="0,0,137.31502,241.9571"><g transform="translate(-173.23275,-88.77303)"><g data-paper-data="{&quot;isPaintingLayer&quot;:true}" fill="#000000" fill-rule="nonzero" stroke="#ff0090" stroke-width="2" stroke-miterlimit="10" stroke-dasharray="" stroke-dashoffset="0" style="mix-blend-mode: normal"><g stroke-linecap="butt" stroke-linejoin="miter"><g><path d="M195.70828,329.11509v-104.17756h101.23822v104.17756z"/><path d="M177.14795,319.87355v-104.17756l18.56034,9.24156v104.17756z"/><path d="M195.59516,224.46868l-17.71669,-8.82148l102.92552,1.26021l16.45121,8.40142z"/></g><path d="M199.28505,229.61673c0,-0.82498 0.67157,-1.49376 1.5,-1.49376c0.82843,0 1.5,0.66878 1.5,1.49376c0,0.82498 -0.67157,1.49376 -1.5,1.49376c-0.82843,0 -1.5,-0.66878 -1.5,-1.49376z"/><path d="M291.28505,230.28063c0,-0.82498 0.67158,-1.49376 1.5,-1.49376c0.82842,0 1.5,0.66878 1.5,1.49376c0,0.82498 -0.67158,1.49376 -1.5,1.49376c-0.82842,0 -1.5,-0.66878 -1.5,-1.49376z"/><path d="M292.61838,325.54924c0,-0.82497 0.67158,-1.49376 1.5,-1.49376c0.82842,0 1.5,0.66879 1.5,1.49376c0,0.82497 -0.67158,1.49376 -1.5,1.49376c-0.82842,0 -1.5,-0.66879 -1.5,-1.49376z"/><path d="M198.61838,326.54508c0,-0.82497 0.67157,-1.49376 1.5,-1.49376c0.82843,0 1.5,0.66879 1.5,1.49376c0,0.82497 -0.67157,1.49376 -1.5,1.49376c-0.82843,0 -1.5,-0.66879 -1.5,-1.49376z"/></g><path d="M230.32995,213.39756c0.94883,-1.58412 3.44796,-3.24265 4.79668,-2.21791c1.26793,0.96304 1.02462,2.30179 1.02462,2.30179c-0.23724,1.54856 -0.54756,4.4128 -1.11806,6.25192c-0.10188,0.32482 -0.20862,0.62404 -0.32001,0.9206l0.01177,-0.01473c0,0 1.15489,1.85631 0.23527,2.35823c-0.55404,0.3035 -1.15109,0.17531 -1.5428,0.03352c-0.73641,0.89324 -1.60161,1.33277 -2.62486,1.165c-2.39482,-0.39167 -2.68155,-4.81126 -2.68155,-4.81126c-0.02181,-1.13064 1.27012,-4.40303 2.21895,-5.98715v0v0v0v0v0z" data-paper-data="{&quot;index&quot;:null}" stroke-linecap="round" stroke-linejoin="round"/><path d="M235.85805,217.38358c1.65573,-0.31364 3.48167,0.43864 3.48167,0.43864c0,0 -0.20498,5.91116 -0.32664,8.04407c-0.12121,2.13608 0.24914,5.54682 0.24914,5.54682c0,0 0.42869,0.39045 0.13543,1.23189c-0.2966,0.83894 -2.00444,0.79402 -4.19004,0.97874c-2.18104,0.17999 -3.82919,-0.41702 -4.00621,-1.30318c-0.18047,-0.88244 0.51199,-1.19599 0.51199,-1.19599c0,0 2.23836,-6.80857 1.78067,-9.30627c0.00359,0.00564 0.253,-4.03507 2.36398,-4.43472v0v0v0v0v0z" stroke-linecap="round" stroke-linejoin="round"/><g><path d="M248.99521,211.53647v0v0v0v0v0c0.415,2.78994 -0.2521,7.92778 -3.4623,9.73154c-3.1752,1.78046 -6.543,1.54196 -10.0341,-0.83013c-2.8925,-1.96609 -2.8232,-7.58889 -2.5207,-10.73475v0c0,0 0.0198,-7.27769 6.1703,-8.17425c6.1486,-0.89645 9.0042,4.68781 9.4795,8.17156c0.1495,0.61324 0.2773,1.23902 0.3673,1.83603z" stroke-linecap="butt" stroke-linejoin="miter"/><path d="M247.29921,219.53147v0v0v0v0v0l-0.0153,0.1425c-0.4718,0.64909 -1.0515,1.19959 -1.7501,1.59225c-2.9411,1.64951 -6.0461,1.56705 -9.2626,-0.33978l-0.0333,-0.1434c0,0 -1.7033,-9.25553 4.2221,-9.6688c6.7284,-0.46615 6.8815,6.869 6.8392,8.41723z" stroke-linecap="round" stroke-linejoin="round"/></g><g><g stroke-linecap="round" stroke-linejoin="round"><path d="M287.45826,189.41124l-0.66283,1.4918c-3.61259,7.5132 -8.19248,11.62722 -8.19248,11.62722c0,0 0.26802,-1.37292 0.37568,-3.60587l-0.12718,-0.05654c-0.47774,1.14027 -1.22734,2.5996 -2.41868,4.38003c-2.61305,3.91021 -9.55835,6.78927 -9.55835,6.78927c0,0 0.53292,-1.37499 0.98729,-3.65979l-0.06341,-0.36069c-0.76804,0.49249 -1.5592,0.93798 -2.3573,1.36939c-0.23491,0.1279 -0.46942,0.25213 -0.70723,0.37158c-0.72413,0.36846 -1.45914,0.71612 -2.20623,1.03578c-0.29504,0.12455 -0.60005,0.23757 -0.89825,0.35554c-0.54405,0.21618 -1.09416,0.41736 -1.65156,0.60993c-0.40929,0.13925 -0.8212,0.27747 -1.23939,0.40337c-0.43313,0.13284 -0.87648,0.24765 -1.31767,0.36902c-0.81044,0.21441 -1.63096,0.40919 -2.46778,0.58191c-0.27301,0.05624 -0.54611,0.11247 -0.82325,0.16297c-0.5956,0.11022 -1.19547,0.21638 -1.8045,0.30388l0.00164,0.00193c-3.05786,0.44424 -6.27808,0.63101 -9.70199,0.55415c-3.70419,-0.0841 -7.04175,-0.40105 -10.1434,-0.87911v0c-2.45416,-0.37954 -4.74003,-0.86828 -6.89426,-1.45031c-0.10424,-0.02763 -0.2094,-0.05625 -0.31453,-0.08396c-0.66559,-0.18458 -1.31974,-0.37619 -1.96033,-0.57745c-0.22342,-0.07192 -0.43662,-0.14737 -0.6589,-0.22089c-0.85014,-0.27821 -1.6743,-0.57413 -2.48559,-0.88336c-0.51279,-0.19593 -1.02178,-0.39525 -1.51819,-0.60331c-0.29514,-0.121 -0.59079,-0.24665 -0.8792,-0.37249c-0.78734,-0.34679 -1.56713,-0.69736 -2.32081,-1.06831l-0.14648,0.11813c0.11668,2.12316 0.74775,3.3133 1.28269,3.89975c1.0903,1.1972 3.34585,1.64922 3.34585,1.64922c0,0 -7.04422,0.38594 -10.38222,-5.28508c-0.35462,-0.6028 -0.71109,-1.22654 -1.04367,-1.88695l-0.13562,-0.37305c-0.80028,-0.34329 -1.60368,-0.77777 -2.38757,-1.31596c-4.77791,-3.30242 -5.20749,-5.73156 -5.20749,-5.73156l0.03123,0.87976c0.29149,2.31062 0.64207,3.78302 0.64207,3.78302c0,0 -5.68978,-4.29207 -7.88636,-10.19289c-1.77052,-4.76307 -1.70704,-7.55297 -1.68192,-8.02057l-0.06083,-1.68384c0.42234,-6.53851 1.44917,-13.82608 2.95941,-20.95346l0.07185,-0.18735c1.27404,-5.50075 1.276,-14.79071 9.49344,-23.60701c15.39817,-16.51605 29.54842,-14.70957 39.14859,-27.06522c7.06162,-9.08978 6.38988,-20.25084 6.38988,-20.25084c0,0 3.37429,5.72354 4.63443,9.02407c1.21852,3.21599 2.46189,7.3338 2.46189,7.3338l0.05399,-0.02965c0.04481,-0.11327 0.08625,-0.22941 0.12321,-0.34593c0.57378,-1.81508 0.64014,-4.56436 0.64014,-4.56436c0,0 2.7507,10.96756 8.05654,18.45188c5.30255,7.48055 13.6521,10.19196 22.38247,35.01879c1.08688,3.08532 2.11932,5.69197 2.55024,8.52167l0.16635,1.62164c0.51535,5.06708 -1.01955,18.81751 -3.49341,24.60631v0zM220.54468,160.19922c0,0 -7.57643,6.62181 -7.96572,16.68807c-0.34445,8.90665 1.73274,11.84113 2.91887,12.63162c1.21992,0.80863 3.23844,0.55968 3.23844,0.55968c0,0 -5.86059,2.48791 -10.09415,-1.91052c-2.83187,-2.94025 -5.86794,-6.68132 -5.97378,-16.52359M277.16525,181.0441c0,0 0.65684,2.54005 -1.8895,7.52019c-2.86526,5.61106 -8.02571,6.98815 -8.02571,6.98815c0,0 4.91892,-8.60202 2.13888,-17.31116c-1.21295,-3.80485 -5.6854,-6.93853 -10.43224,-9.28466c-6.43246,-3.18134 -13.36787,-4.91492 -13.36787,-4.91492M278.89018,198.77306c-0.47536,1.15485 -1.23693,2.65006 -2.46309,4.47794c-2.61215,3.91028 -9.55745,6.78935 -9.55745,6.78935c0,0 1.55018,-4.012 1.61943,-9.70928M203.47867,178.95841c-0.79047,1.20586 -1.43071,2.51597 -1.84599,3.92152c-2.60255,8.76223 -0.18185,18.85732 -0.18185,18.85732c0,0 -5.68812,-4.29023 -7.88635,-10.19299c-1.94805,-5.23857 -1.67603,-8.09023 -1.67603,-8.09023M286.79042,190.90893c-3.61439,7.51305 -8.19337,11.62714 -8.19337,11.62714c0,0 1.53367,-7.79919 -1.25357,-16.50984c-0.12564,-0.3938 -0.27291,-0.77863 -0.43175,-1.15363M245.58972,164.04178c0,0 1.16477,0.41445 4.09719,3.16975c2.93252,2.75531 3.85879,5.57071 3.85879,5.57071c0,0 -9.07501,-3.21312 -14.05767,-5.48458c-4.97713,-2.2728 -21.90105,-8.42356 -21.90105,-8.42356M213.06419,198.6344c2.18311,4.1472 4.61962,6.50821 4.61962,6.50821c0,0 -6.31722,1.38166 -11.69893,-2.3349c-4.77791,-3.30232 -5.20749,-5.73156 -5.20749,-5.73156M267.79158,206.0215c-7.06579,4.52712 -15.326,6.34314 -25.16739,6.12177c-11.73308,-0.26399 -20.12134,-2.67814 -27.17252,-6.13895M215.28841,205.46696c0.00769,2.53594 0.70996,3.90935 1.29791,4.55241c1.0912,1.19728 3.34675,1.64929 3.34675,1.64929c0,0 -7.04602,0.38579 -10.38311,-5.28516c-0.35462,-0.6028 -0.71109,-1.22654 -1.04367,-1.88695M246.23818,164.39671c0,0 25.16325,5.22191 23.99387,19.0408"/><path d="M274.70962,189.83125c-1.78924,9.85873 -14.1392,19.26484 -31.0113,18.83322c-14.89597,-0.37291 -36.23876,-8.84855 -38.3828,-21.33781c-0.21183,-1.2549 -0.27915,-2.45529 -0.22843,-3.59901l0.30225,0.26112c0.98612,1.73451 2.13381,3.02197 3.25263,4.18109c4.23372,4.39664 10.0943,1.90874 10.0943,1.90874c0,0 -2.01867,0.25073 -3.23859,-0.5579c-1.18613,-0.79051 -3.26332,-3.72498 -2.91887,-12.63162c0.38944,-10.06804 7.96572,-16.68807 7.96572,-16.68807l0.04372,-0.22849c5.09201,1.8758 15.23341,5.65081 18.89798,7.32498c4.98259,2.27237 14.05767,5.48458 14.05767,5.48458c0,0 -0.92627,-2.81541 -3.85879,-5.57071c-1.46797,-1.3782 -2.49139,-2.17033 -3.14731,-2.61853l0.63737,0.15512c0,0 19.35845,4.53051 22.21555,13.49346c2.77907,8.70997 -2.13798,17.31124 -2.13798,17.31124c0,0 4.39433,-1.17415 7.31932,-5.76084z"/></g><g stroke-linecap="round" stroke-linejoin="miter"><path d="M283.17294,172.26992c0,0 9.88572,-9.31419 10.42851,-9.74914c0.54268,-0.43485 4.66194,-4.67927 15.55397,-5.33344c0,0 -9.49938,30.01947 -26.18772,35.66795c0.00008,-0.0009 2.27226,-8.62794 0.20524,-20.58536v0zM283.21484,172.52178c-0.1505,-0.98702 -0.7074,-2.75486 -0.7074,-2.75486M281.99772,195.1364c0,0 0.74214,-1.41499 0.97005,-2.28201"/><path d="M289.78954,188.58393c0,0 -1.50758,-1.36903 -1.3499,-5.44302c0.09375,-2.52743 1.59279,-7.02501 1.59279,-7.02501l-0.10208,0.13894c0.77284,-0.75203 1.59581,-1.63746 2.35662,-2.62085c1.28901,-1.66331 2.84611,-4.18936 4.28893,-6.68723l0.21954,-0.34235c0,0 3.6315,-4.43745 10.38298,-4.471l0.07357,0.04845c-1.80552,4.53312 -4.68569,11.16228 -7.63042,15.6087c-3.30305,4.98779 -6.93449,8.50663 -9.95852,10.879l0.12647,-0.08562v0zM287.00748,178.65019c0,0 2.54477,-2.09059 3.02498,-2.53428"/></g><g stroke-linecap="round" stroke-linejoin="miter"><path d="M194.24633,185.40897c-15.50286,-8.34993 -19.8236,-39.52916 -19.8236,-39.52916c10.62852,2.46105 13.9764,7.3321 14.43843,7.85037c0.46202,0.51837 8.64309,11.34961 8.64309,11.34961c-4.04828,11.44513 -3.25792,20.32919 -3.25792,20.32919v0zM198.57992,162.72381c0,0 -0.84613,1.65011 -1.16028,2.59812M194.24633,185.40897c0.0789,0.89276 0.57288,2.41148 0.57288,2.41148"/><path d="M188.34869,180.16735c-2.58263,-2.84377 -5.57062,-6.91811 -7.98996,-12.38521c-2.15688,-4.87454 -3.8814,-11.89012 -4.89977,-16.66022l0.08078,-0.03549c6.65144,1.15921 9.4852,6.13831 9.4852,6.13831l0.15892,0.37411c1.00261,2.70309 2.11335,5.45302 3.10466,7.30769c0.58482,1.09632 1.24739,2.10642 1.88295,2.97663l-0.07729,-0.154c0,0 0.72208,4.68398 0.38968,7.19138c-0.52907,4.04282 -2.24556,5.14129 -2.24556,5.14129l0.11039,0.1055v0zM190.09418,167.72918c0.39887,0.51747 2.55643,3.00267 2.55643,3.00267"/></g><path d="M231.58175,181.53276v0v0v0v0v0c0.69811,0.25916 1.051,1.0319 0.78886,1.72695c-0.26039,0.697 -1.03278,1.04871 -1.73657,0.79268c-0.0402,-0.01596 -4.11867,-1.49631 -8.29965,-0.65423c-0.12858,0.02518 -0.25492,0.03347 -0.37958,0.02301c-0.58303,-0.04893 -1.08897,-0.47644 -1.21083,-1.075c-0.07256,-0.34977 0.00737,-0.69664 0.18667,-0.97851c-0.23351,-0.24095 -0.44803,-0.54497 -0.58002,-0.95021c-0.15531,-0.47005 0.10258,-0.97737 0.57631,-1.13109c0.46889,-0.14863 0.98088,0.0994 1.13688,0.57321c0.12341,0.37742 0.56128,0.5194 0.56651,0.52164c0.12944,0.04054 0.23999,0.11099 0.33289,0.19793c0.13517,-0.01654 0.27122,-0.03391 0.40404,-0.04524c-0.12058,-0.21879 -0.22916,-0.46185 -0.2822,-0.75422c-0.08691,-0.48859 0.23959,-0.95158 0.73029,-1.03902c0.49467,-0.09161 0.9572,0.24053 1.04336,0.72725c0.06914,0.38906 0.47167,0.59643 0.47511,0.59852c0.18911,0.08253 0.32126,0.22854 0.41284,0.39631c3.22583,0.12051 5.69489,1.01777 5.83508,1.07001z" stroke-linecap="butt" stroke-linejoin="miter"/><path d="M263.77631,183.12609v0v0v0v0v0c-0.22537,0.78358 -0.74556,1.21943 -1.16184,1.4733c0.0783,0.25942 0.10616,0.53977 0.01223,0.81611c-0.23917,0.70238 -0.98984,1.08569 -1.71203,0.8442c-2.73634,-0.92059 -6.33313,-1.47337 -7.12309,-0.79654c-0.28521,0.24319 -0.64104,0.34835 -0.99,0.31907c-0.34358,-0.02883 -0.67261,-0.18696 -0.91364,-0.46713c-0.48537,-0.5626 -0.42081,-1.41094 0.146,-1.89605c1.52606,-1.30413 4.48954,-1.01856 6.83693,-0.50857c0.12408,-0.08943 0.32508,-0.27672 0.36676,-0.55575c0.06671,-0.48829 0.48812,-0.86687 1.01265,-0.76699c0.49213,0.06648 0.83621,0.51639 0.77019,1.00834c-0.04424,0.30939 -0.1436,0.56559 -0.25981,0.79688c0.11544,0.03397 0.22573,0.06482 0.32871,0.09784c0.10537,-0.13517 0.23261,-0.25131 0.40751,-0.31038c0.02632,-0.01218 0.44035,-0.17542 0.54983,-0.55129c0.13954,-0.47499 0.63069,-0.75856 1.1143,-0.61274c0.47697,0.13896 0.75231,0.63268 0.6153,1.10966z" stroke-linecap="butt" stroke-linejoin="miter"/></g><path d="M249.298,221.57946c-2.53434,2.64555 -5.44975,3.70722 -6.51174,2.37132c-1.06199,-1.3359 0.13158,-4.5635 2.66592,-7.20905c2.53434,-2.64555 5.44975,-3.70722 6.51174,-2.37132c1.06199,1.3359 -0.13158,4.5635 -2.66592,7.20905z" stroke-linecap="butt" stroke-linejoin="miter"/><path d="M249.72001,214.47165c1.61768,-0.47104 3.50791,0.10254 3.50791,0.10254c0,0 0.36788,5.90334 0.45315,8.03799c0.08602,2.13777 0.78463,5.49711 0.78463,5.49711c0,0 0.46447,0.3475 0.25399,1.21316c-0.21405,0.8635 -1.91829,0.98264 -4.07585,1.37621c-2.15348,0.38842 -3.85172,-0.04768 -4.11365,-0.91274c-0.265,-0.86102 0.39389,-1.23955 0.39389,-1.23955c0,0 1.56921,-6.99166 0.87201,-9.43381c0.00412,0.00527 -0.13857,-4.04058 1.92392,-4.64091z" stroke-linecap="round" stroke-linejoin="round"/><path d="M255.55432,220.08647v0v0v0v0v0c0,0 -1.77845,4.05903 -4.16521,3.61201c-1.02104,-0.18359 -1.68224,-0.89523 -2.07282,-1.98364c-0.41874,0.00261 -1.01998,-0.07882 -1.4394,-0.55201c-0.69314,-0.78195 1.02466,-2.14031 1.02466,-2.14031l0.00578,0.01707c-0.00062,-0.31451 -0.00067,-0.63429 0.01303,-0.97404c0.09382,-1.92068 0.77649,-4.72252 1.08056,-6.25863c0,0 0.61159,-1.60983 1.93062,-1.73164c1.31862,-0.12271 2.69591,1.58885 2.90305,2.52568c0.20645,0.93724 1.32972,5.47201 0.71974,7.48551z" data-paper-data="{&quot;index&quot;:null}" stroke-linecap="round" stroke-linejoin="round"/><g stroke-linecap="butt" stroke-linejoin="miter"><path d="M276.72181,267.1932c-6.94903,2.47643 -51.07106,1.86345 -57.88411,-0.34687c-7.86831,-2.55269 -6.89912,-21.48474 1.11074,-24.03961c6.78323,-2.16361 50.64342,-1.75725 57.67502,0.98905c6.36836,2.48726 6.19476,20.86847 -0.90165,23.39743z" data-paper-data="{&quot;index&quot;:null}"/><path d="M272.63389,263.67619c-5.53329,1.75567 -40.66621,1.3211 -46.09121,-0.24591c-6.26528,-1.80974 -5.49355,-15.23167 0.88444,-17.04295c5.40126,-1.53389 40.32569,-1.2458 45.92472,0.70118c5.07091,1.76334 4.93268,14.79477 -0.71796,16.58768z" data-paper-data="{&quot;index&quot;:null}"/></g><g stroke-linecap="butt" stroke-linejoin="miter"><path d="M277.22181,314.99349c-6.94903,2.47643 -51.07106,1.86345 -57.88411,-0.34687c-7.86831,-2.55269 -6.89912,-21.48474 1.11074,-24.03961c6.78323,-2.16361 50.64342,-1.75725 57.67502,0.98905c6.36836,2.48725 6.19476,20.86848 -0.90165,23.39743z" data-paper-data="{&quot;index&quot;:null}"/><path d="M273.13389,311.47648c-5.53329,1.75567 -40.66621,1.3211 -46.09121,-0.24591c-6.26528,-1.80974 -5.49355,-15.23167 0.88444,-17.04295c5.40126,-1.53389 40.32569,-1.2458 45.92472,0.70119c5.07091,1.76334 4.93268,14.79477 -0.71796,16.58768z" data-paper-data="{&quot;index&quot;:null}"/></g></g></g></svg>