<svg version="1.1" xmlns="http://www.w3.org/2000/svg" xmlns:xlink="http://www.w3.org/1999/xlink" width="138.36475" height="147.94425" viewBox="0,0,138.36475,147.94425"><defs><linearGradient x1="188.82779" y1="143.7218" x2="188.4437" y2="189.85557" gradientUnits="userSpaceOnUse" id="color-1"><stop offset="0" stop-color="#cc2981"/><stop offset="1" stop-color="#a92292"/></linearGradient><linearGradient x1="300.82713" y1="153.92608" x2="288.48761" y2="198.49866" gradientUnits="userSpaceOnUse" id="color-2"><stop offset="0" stop-color="#cc2981"/><stop offset="1" stop-color="#a92292"/></linearGradient><linearGradient x1="280.09358" y1="214.3525" x2="280.09358" y2="237.26124" gradientUnits="userSpaceOnUse" id="color-3"><stop offset="0" stop-color="#9966ff"/><stop offset="1" stop-color="#66ebff"/></linearGradient><linearGradient x1="311.67466" y1="210.31788" x2="311.67466" y2="237.33109" gradientUnits="userSpaceOnUse" id="color-4"><stop offset="0" stop-color="#9966ff"/><stop offset="1" stop-color="#66ebff"/></linearGradient></defs><g transform="translate(-177.3872,-90.43891)"><g data-paper-data="{&quot;isPaintingLayer&quot;:true}" fill-rule="nonzero" stroke-miterlimit="10" stroke-dasharray="" stroke-dashoffset="0" style="mix-blend-mode: normal"><g data-paper-data="{&quot;index&quot;:null}" stroke="#000000" stroke-width="0.90024" stroke-linecap="round" stroke-linejoin="miter"><path d="M278.02962,170.10386c0,0 5.11163,-12.48706 5.42552,-13.10404c0.31383,-0.61687 2.28594,-6.14616 12.09228,-11.28016c0,0 4.24188,30.9106 -8.76441,42.94707c-0.00032,-0.00084 -1.64344,-8.69289 -8.75338,-18.56286zM278.17786,170.31243c-0.56825,-0.82311 -1.85223,-2.17742 -1.85223,-2.17742M286.87545,191.11913c0,0 0.07277,-1.57988 -0.09276,-2.45325" fill="#be1e2d"/><path d="M291.24716,181.98504c0,0 -1.99144,-0.59949 -3.61535,-4.32208c-1.01122,-2.30773 -1.57651,-6.97047 -1.57651,-6.97047l-0.0342,0.16732c0.38925,-0.99763 0.76697,-2.13594 1.04456,-3.33622c0.47151,-2.03106 0.81656,-4.94842 1.068,-7.79277l0.05465,-0.39893c0,0 1.43639,-5.49895 7.6765,-8.34744l0.08921,0.01278c0.29679,4.8226 0.50867,11.97515 -0.28758,17.19548c-0.893,5.85583 -2.72845,10.53022 -4.49925,13.92199l0.07997,-0.12965v0v0v0zM284.35397,174.22999c0,0 1.44924,-2.93879 1.70134,-3.53752" fill="#929497"/></g><g data-paper-data="{&quot;index&quot;:null}" stroke="#000000" stroke-width="0.90024" stroke-linecap="round" stroke-linejoin="miter"><path d="M192.91253,181.0632c-9.59773,-14.71648 2.27537,-43.71619 2.27537,-43.71619c8.22563,7.2731 8.75137,13.09859 8.90157,13.76968c0.15013,0.67117 1.97537,13.98166 1.97537,13.98166c-9.37667,7.91536 -13.15231,15.96484 -13.15231,15.96484zM208.21085,163.58638c0,0 -1.58567,1.01404 -2.34348,1.67995M192.91253,181.0632c-0.37989,0.80864 -0.7057,2.35856 -0.7057,2.35856" fill="#be1e2d"/><path d="M190.30263,173.6826c-0.86637,-3.7053 -1.4733,-8.6689 -0.87148,-14.5589c0.53679,-5.2515 2.53827,-12.14114 4.03647,-16.75093l0.08984,0.0085c5.33978,4.22284 5.35311,9.89252 5.35311,9.89252l-0.04708,0.39983c-0.46998,2.81839 -0.86727,5.72961 -0.91951,7.81038c-0.03191,1.22941 0.0489,2.42209 0.17619,3.48097l0.00881,-0.17033c0,0 -1.71865,4.39192 -3.27903,6.39466c-2.50973,3.23246 -4.59246,3.34878 -4.59246,3.34878zM198.12899,163.79464c0.09434,0.6398 0.76291,3.82973 0.76291,3.82973" fill="#929497"/></g><path d="M197.61146,143.89566c0,0 7.46999,-38.18855 56.08282,-32.91821c33.35802,3.6165 40.503,42.8634 40.503,42.8634" data-paper-data="{&quot;index&quot;:null}" fill="none" stroke="#000000" stroke-width="7" stroke-linecap="round" stroke-linejoin="miter"/><path d="M233.97336,208.81728v0v0v0v0v0c0.92575,1.59408 2.15522,4.86921 2.10148,5.98828c0,0 -0.41597,4.36899 -2.87458,4.69287c-1.05052,0.13879 -1.92261,-0.31959 -2.65045,-1.22382c-0.40431,0.12995 -1.01811,0.24094 -1.57595,-0.07441c-0.92599,-0.52161 0.30603,-2.32903 0.30603,-2.32903l0.01162,0.01491c-0.1056,-0.29665 -0.20636,-0.59581 -0.30147,-0.9202c-0.53196,-1.8365 -0.76949,-4.6812 -0.96891,-6.22106c0,0 -0.21147,-1.33226 1.11126,-2.25205c1.40702,-0.97874 3.91523,0.73044 4.84097,2.32452z" data-paper-data="{&quot;index&quot;:null}" fill="#be1e2d" stroke="#231f20" stroke-width="0.78672" stroke-linecap="round" stroke-linejoin="round"/><path d="M248.7802,217.62991v0v0v0v0c0,0 -3.53803,2.75573 -5.49036,1.27521c-0.83881,-0.62664 -1.10086,-1.55323 -0.93878,-2.68752c-0.38096,-0.18855 -0.88755,-0.53411 -1.04345,-1.14101c-0.25765,-1.00291 1.94438,-1.41349 1.94438,-1.41349l-0.00285,0.01763c0.14862,-0.2766 0.30025,-0.55759 0.47383,-0.84985c0.99611,-1.64475 2.94415,-3.79532 3.9485,-5.00637c0,0 1.31819,-1.13566 2.57208,-0.64154c1.25395,0.49314 1.69107,2.62462 1.43455,3.54212c-0.25734,0.91756 -1.38971,5.41372 -2.8979,6.90479z" data-paper-data="{&quot;index&quot;:null}" fill="#be1e2d" stroke="#231f20" stroke-width="0.78672" stroke-linecap="round" stroke-linejoin="round"/><path d="M243.35315,218.46044c1.6165,-0.36088 3.54384,0.18964 3.54384,0.18964c0,0 0.57345,5.11674 0.73261,6.96558c0.16003,1.85156 0.98015,4.77736 0.98015,4.77736c0,0 0.48066,0.31393 0.29789,1.05665c-0.18646,0.74073 -1.90237,0.79476 -4.06639,1.07308c-2.16008,0.274 -3.88895,-0.15208 -4.18293,-0.90786c-0.29693,-0.75237 0.35508,-1.06083 0.35508,-1.06083c0,0 1.34428,-6.00235 0.557,-8.13479c0.00434,0.00468 -0.27823,-3.49892 1.78276,-3.95883z" data-paper-data="{&quot;index&quot;:null}" fill="#be1e2d" stroke="#231f20" stroke-width="0.90024" stroke-linecap="round" stroke-linejoin="round"/><path d="M236.46342,218.66195v0v0v0v0v0c2.79445,1.42233 2.95341,3.98187 2.95418,3.98457c-0.69362,2.15634 0.83136,7.33377 0.83136,7.33377c0,0 0.66616,0.27762 0.40839,1.04211c-0.26164,0.76606 -1.96548,1.26731 -4.14075,1.08422c-2.1715,-0.18477 -3.88726,-0.16533 -4.10779,-0.90027c-0.22053,-0.73495 0.24671,-1.06752 0.24671,-1.06752c0,0 0.15029,-1.7327 0.22293,-3.58959c0.07039,-1.85168 0.04803,-6.94604 0.04803,-6.94604c0,0 1.70622,-1.87352 3.53696,-0.94126z" data-paper-data="{&quot;index&quot;:null}" fill="#be1e2d" stroke="#231f20" stroke-width="0.90024" stroke-linecap="round" stroke-linejoin="round"/><g data-paper-data="{&quot;index&quot;:null}" stroke-width="0.90024"><path d="M247.92991,212.18012v0v0v0v0v0c0.26504,2.78228 -0.70812,7.82781 -4.08795,9.4366c-3.34278,1.58765 -6.7674,1.16775 -10.19658,-1.36927c-2.84116,-2.10273 -2.45072,-7.66062 -1.96303,-10.75576v0c0,0 0.434,-7.19749 6.764,-7.7483c6.32805,-0.55081 8.92583,5.12875 9.21299,8.60059c0.11776,0.61473 0.21265,1.24071 0.27059,1.83613z" fill="#be1e2d" stroke="#000000" stroke-linecap="butt" stroke-linejoin="miter"/><path d="M245.7439,219.99554v0v0v0v0v0l-0.02372,0.14012c-0.51856,0.61625 -1.14168,1.1291 -1.87721,1.47933c-3.09634,1.4709 -6.26154,1.21972 -9.43684,-0.8421l-0.02584,-0.14366c0,0 -1.21265,-9.24796 4.86007,-9.33304c6.89551,-0.09351 6.63475,7.17026 6.50355,8.69935z" fill="#e6e7e8" stroke="#231f20" stroke-linecap="round" stroke-linejoin="round"/></g><g data-paper-data="{&quot;index&quot;:null}" stroke="#000000" stroke-linecap="butt" stroke-linejoin="miter"><g><g stroke-width="0.4"><path d="M214.44593,234.4507c-0.11374,-0.03028 -0.48446,-0.15136 -0.51336,-0.43842c-0.02795,-0.28612 0.29298,-0.439 0.39801,-0.48946c0.10085,-0.02444 1.7583,-0.17391 3.47868,-1.1947c-0.15414,-0.13666 -0.2997,-0.27018 -0.4386,-0.4024c-0.72763,0.60267 -2.66219,1.18249 -4.15384,1.24501c-0.19906,-0.04714 -0.5621,-0.1875 -0.57552,-0.47388c-0.01142,-0.28723 0.31843,-0.42479 0.42706,-0.47038c0.10156,-0.01881 1.79548,-0.08074 3.58925,-1.03664c-0.16348,-0.18379 -0.31451,-0.36608 -0.45128,-0.54214c-0.65978,0.53942 -2.71695,1.05213 -4.26575,1.03458c-0.19567,-0.05819 -0.55109,-0.21599 -0.54696,-0.50435c0.00409,-0.28841 0.34171,-0.40602 0.45199,-0.445c0.10518,-0.014 1.88842,0.02052 3.79046,-0.91284c-0.09956,-0.16505 -0.19127,-0.33163 -0.27527,-0.49786c-0.69539,0.43417 -2.52151,0.77035 -3.99738,0.70469c-0.09563,-0.00426 -0.19021,-0.0103 -0.28177,-0.01813c-0.19014,-0.07196 -0.53166,-0.25712 -0.50535,-0.54455c0.02622,-0.28549 0.37145,-0.37944 0.48424,-0.41083l0.24965,0.00175c0.4443,0.01976 1.99544,0.02904 3.6771,-0.66664c-0.06184,-0.20541 -0.10433,-0.38942 -0.13259,-0.54757c-0.80737,0.4077 -2.47517,0.69212 -3.84189,0.63132c-0.09563,-0.00426 -0.18923,-0.0103 -0.28177,-0.01813c-0.19014,-0.07196 -0.53264,-0.25717 -0.50634,-0.54459c0.02623,-0.28554 0.37145,-0.37944 0.48521,-0.41084l0.24663,0.00354c0.45594,0.02028 2.07686,0.02702 3.80851,-0.72245l0.04544,-0.01947c0.1126,-0.24996 0.49135,-0.41799 0.65701,-0.48164l0.31151,-0.11778l0.01849,0.32205c0.18043,3.13101 3.71521,5.88734 3.75064,5.91601l0.31929,0.24579l-1.16456,0.46837l-0.10487,-0.09431c-0.68878,0.62029 -2.58246,1.29717 -4.06415,1.43486l-0.04482,0.00549z" fill="#871212"/><path d="M215.5558,226.49833c0,0 -0.70099,0.26765 -0.50152,0.50817c0,0 -0.00141,0.01019 -0.00327,0.02878c-0.08277,-0.03077 -0.17538,-0.03673 -0.18599,-0.0372c-0.00097,-0.00004 -0.00097,-0.00004 -0.00097,-0.00004c-1.76428,0.76387 -3.39922,0.76587 -3.91887,0.74275c-0.11008,-0.00489 -0.16978,-0.01132 -0.16978,-0.01132c-0.68452,0.18623 -0.02374,0.49675 -0.02374,0.49675c0.08961,0.0077 0.18034,0.01362 0.27208,0.0177c1.60046,0.0712 3.59417,-0.34909 3.99803,-0.7794c0.01132,-0.01445 0.01455,-0.02085 0.02486,-0.03347c0.01722,0.26697 0.08009,0.65267 0.24803,1.12896c-0.03363,-0.00526 -0.06155,-0.00834 -0.07313,-0.00885c-0.0039,-0.00017 -0.00579,-0.00026 -0.00579,-0.00026c-1.76228,0.76207 -3.39528,0.76415 -3.91683,0.74096c-0.11202,-0.00498 -0.1727,-0.01144 -0.1727,-0.01144c-0.68461,0.1881 -0.02382,0.49862 -0.02382,0.49862c0.08961,0.0077 0.18034,0.01362 0.27208,0.0177c1.60046,0.0712 3.59417,-0.34909 3.99803,-0.7794c0.03166,-0.0341 0.04748,-0.06233 0.06818,-0.09038c0.13349,0.30667 0.30911,0.64136 0.54365,1.00012c-0.02038,0.00098 -0.03487,0.00033 -0.03487,0.00033c-2.06099,1.07943 -4.02048,1.02683 -4.02048,1.02683c-0.66749,0.23458 0.01498,0.49658 0.01498,0.49658c1.64462,0.01804 3.80952,-0.58235 4.1997,-1.0702c0.03501,-0.04421 0.05417,-0.0798 0.07416,-0.11344c0.22504,0.31352 0.49874,0.64227 0.8164,0.98327c-1.9661,1.13878 -3.86967,1.19227 -3.86967,1.19227c-0.65375,0.27165 0.04299,0.49782 0.04299,0.49782c1.642,-0.0689 3.76982,-0.7839 4.13093,-1.29178c0.01556,-0.02174 0.02012,-0.03645 0.03172,-0.05555c0.25127,0.25025 0.5295,0.50451 0.83933,0.76673c-1.88964,1.21964 -3.7699,1.37322 -3.7699,1.37322c-0.63795,0.30503 0.07128,0.49349 0.07128,0.49349c1.63543,-0.15512 3.72013,-0.98041 4.05304,-1.50539c0.00839,-0.01458 0.00968,-0.02106 0.01706,-0.03381l0.17265,0.15522l0.64349,-0.25991c0,0 -3.65323,-2.80926 -3.8413,-6.08443M216.00115,225.82705l0.03702,0.64327c0.17389,3.02517 3.62548,5.71991 3.66003,5.74666l0.63857,0.49164l-0.75404,0.30358l-0.6434,0.2581l-0.28822,0.11698l-0.05473,-0.05008c-0.85473,0.62975 -2.71165,1.22606 -4.03981,1.35096l-0.08853,0.00914l-0.08599,-0.02343c-0.15108,-0.0394 -0.64655,-0.20339 -0.68956,-0.63957c-0.02039,-0.20174 0.05543,-0.49162 0.53194,-0.72068l0.04854,-0.02306c-0.36682,0.06026 -0.722,0.09957 -1.04501,0.11412l-0.08919,0.00256l-0.08484,-0.0271c-0.14869,-0.04867 -0.63334,-0.23738 -0.6531,-0.67439c-0.00858,-0.20492 0.08256,-0.4913 0.57136,-0.69371l0.08485,-0.03451l0.09121,-0.00431c0.01648,-0.00115 1.49527,-0.0568 3.13153,-0.85628c-0.04215,-0.05041 -0.08331,-0.09989 -0.12355,-0.14927c-0.90036,0.55109 -2.85974,0.96168 -4.21896,0.94698l-0.09002,-0.00025l-0.08346,-0.03547c-0.14444,-0.05596 -0.61811,-0.27221 -0.6118,-0.70807c0.00295,-0.20348 0.11127,-0.48537 0.61041,-0.66018l0.08662,-0.03072l0.09183,0.00221c0.01644,0.00073 1.60444,0.02844 3.35857,-0.76579c-0.01437,-0.02397 -0.02761,-0.0507 -0.04191,-0.07472c-0.90036,0.42876 -2.60981,0.674 -3.90606,0.61633c-0.09849,-0.00438 -0.19599,-0.0106 -0.2914,-0.01856l-0.08967,-0.00775l-0.08046,-0.0381c-0.14103,-0.06605 -0.5967,-0.31421 -0.5565,-0.75043c0.01841,-0.20279 0.14848,-0.47435 0.65958,-0.616l0.08919,-0.02312l0.09147,0.00972c0.00676,0.00031 0.05784,0.00441 0.14574,0.00832c0.4144,0.01844 1.81843,0.02677 3.3763,-0.56982c-0.00574,-0.02174 -0.01143,-0.04439 -0.01629,-0.06421c-0.93998,0.36629 -2.48489,0.57119 -3.6797,0.51804c-0.09849,-0.00438 -0.19594,-0.01061 -0.2914,-0.01856l-0.08967,-0.00775l-0.08046,-0.0381c-0.14103,-0.06605 -0.5967,-0.31421 -0.5565,-0.75043c0.01841,-0.20279 0.14853,-0.47434 0.66046,-0.61407l0.08919,-0.02312l0.09156,0.00783c0.00579,0.00026 0.05587,0.00621 0.14279,0.01007c0.43944,0.01955 1.99744,0.0272 3.66942,-0.68848c0.17152,-0.26789 0.52406,-0.43431 0.74293,-0.51794l0.62311,-0.23848zM214.42614,233.26468c0.20436,-0.02266 1.53068,-0.18969 2.98353,-0.97955c-0.01493,-0.01191 -0.02885,-0.02466 -0.04272,-0.03835c-0.63618,0.43121 -1.82284,0.81549 -2.94081,1.0179z" fill="#000000"/></g><path d="M244.45819,213.27123l-3.30898,0.31601c-3.0164,-0.11364 -8.86201,3.15272 -11.24603,9.31042c-2.3841,6.15951 -10.98512,10.29136 -10.98512,10.29136c-4.73796,-3.82968 -3.83562,-6.66969 -3.83562,-6.66969c10.09165,-4.41578 8.60359,-8.72284 13.27308,-12.75784c4.66941,-4.03312 10.5447,-3.34403 10.5447,-3.34403z" fill="#ba2915" stroke-width="0.4"/><g fill="#871212" stroke-width="0.4"><path d="M219.13367,224.44414c-0.25496,1.97321 3.85423,6.28019 3.85423,6.28019l-1.15355,0.8256c-4.52839,-2.44192 -4.11439,-6.26467 -4.11439,-6.26467z"/><path d="M222.54711,221.53656c0.44155,3.05482 4.68713,5.56165 4.68713,5.56165l-1.39308,1.30062c-4.35026,-2.64508 -4.49129,-5.60807 -4.49129,-5.60807z"/><path d="M224.55818,218.74771c0.74192,1.99512 5.56043,3.69253 5.56043,3.69253l-0.72408,1.6423c-4.61893,-1.25611 -5.50392,-4.28865 -5.50392,-4.28865z"/><path d="M227.30815,214.7758c0.48161,1.08235 5.43014,3.50279 5.43014,3.50279l-1.0822,1.33777c-4.55334,-1.14957 -5.26216,-3.73627 -5.26216,-3.73627z"/><path d="M231.16115,211.9064c0.34146,-0.09689 5.71425,2.68238 5.71425,2.68238l-1.68465,1.30631l-5.69158,-3.01479c0,0 1.32053,-0.87702 1.66199,-0.9739z"/><path d="M234.74116,210.90202l2.31169,-0.55275l4.64009,3.18275l-2.28116,0.23847l-4.67061,-2.86848"/></g><path d="M218.88358,233.46488l-0.12118,-0.09692c-4.805,-3.88591 -3.95064,-6.79529 -3.91092,-6.91774l0.0319,-0.10041l0.09887,-0.04319c6.44465,-2.81948 8.1153,-5.59449 9.73025,-8.27675c0.88421,-1.46892 1.79802,-2.98881 3.48192,-4.44176c3.97687,-3.43543 8.85339,-3.49866 10.25294,-3.43639c0.31005,0.01379 0.48236,0.03454 0.48236,0.03454l6.34665,3.24189l-4.10342,0.39181c-3.10535,-0.11576 -8.78061,3.3132 -11.04423,9.15872c-2.39061,6.17418 -10.74886,10.24862 -11.10357,10.41967l-0.14157,0.06656zM215.2934,226.68184c-0.08932,0.51249 -0.27298,2.99787 3.65738,6.22751c1.11791,-0.56663 8.56829,-4.51996 10.7259,-10.09274c2.43149,-6.27979 8.33199,-9.58105 11.48177,-9.46241l2.48251,-0.23882l-4.83422,-2.48261c-0.00916,0.00896 -0.15657,-0.00509 -0.38159,-0.01603c-1.35319,-0.0602 -6.069,0.00176 -9.90749,3.3173c-1.62649,1.40509 -2.48129,2.82578 -3.38652,4.32832c-1.64435,2.73137 -3.3444,5.55461 -9.83773,8.41951z" fill="#000000" stroke-width="0.4"/><path d="M215.24532,226.69861c6.49332,-2.8649 8.2023,-5.73656 9.84664,-8.46793c0.90523,-1.50254 1.79335,-2.94053 3.41985,-4.34562c3.83849,-3.31555 8.59152,-3.36745 9.94471,-3.30725c0.22502,0.01094 0.37327,0.02564 0.38243,0.01668l4.84524,2.49458l-2.56676,0.2946c-3.14978,-0.11864 -8.99896,3.2015 -11.43044,9.48128c-2.15762,5.57278 -9.65268,9.51431 -10.7706,10.08094c-3.93036,-3.22964 -3.76042,-5.7348 -3.67109,-6.24729z" data-paper-data="{&quot;noHover&quot;:true,&quot;origItem&quot;:[&quot;Path&quot;,{&quot;applyMatrix&quot;:true,&quot;segments&quot;:[[[431.94081,453.0728],[0,0],[-0.17472,1.03898]],[[439.09485,465.69792],[-7.688,-6.5475],[2.1867,-1.14874]],[[460.07531,445.23676],[-4.22042,11.29778],[4.75612,-12.7311]],[[482.53429,426.05348],[-6.16114,-0.24052],[0,0]],[487.39021,425.56932],[[477.93421,420.53628],[0,0],[-0.01792,0.01816]],[[477.18779,420.50378],[0.44016,0.02218],[-2.64692,-0.12204]],[[457.80819,427.229],[7.5083,-6.72166],[-3.1815,2.84856]],[[451.18397,436.00386],[1.77068,-3.04612],[-3.21644,5.53734]],[[431.94083,453.07286],[12.7013,-5.80806],[0,0]]],&quot;closed&quot;:true,&quot;fillColor&quot;:[0,0,0,1],&quot;strokeColor&quot;:[0,0,0],&quot;strokeWidth&quot;:0.4}]}" fill="#000000" stroke-width="0.2"/></g><g stroke-width="0.4"><path d="M252.73761,205.70136c1.88442,1.07661 0.563,3.41047 0.563,3.41047c3.49433,1.55633 2.31317,3.48739 2.31317,3.48739c-1.93966,-1.19669 -3.7539,0.06646 -9.24951,0.93148c-5.49468,0.86501 -10.97301,-1.83115 -10.97301,-1.83115c10.05624,-9.184 17.34539,-5.99824 17.34637,-5.99819z" fill="#ba2915"/><g fill="#871212"><path d="M243.02896,206.57878c0,0 2.74571,2.07308 1.40715,7.15469l-0.86929,-0.03867c0,0 1.00586,-4.3175 -1.35477,-6.71062z"/><path d="M247.43314,205.26088c2.21424,3.04591 1.46701,7.56268 1.46701,7.56268l-1.10338,0.22173c0.72683,-5.50761 -1.64618,-7.52022 -1.64618,-7.52022z"/><path d="M239.66594,208.33061c0,0 1.70525,2.29388 1.08938,5.05328l-0.61847,-0.12187c0,0 -0.31316,-3.81771 -1.16116,-4.42327z"/><path d="M253.85561,212.02044l-1.01512,-0.04516c0.2825,-1.86084 -1.31377,-3.35699 -1.31377,-3.35699c0.4226,-2.11894 -0.91441,-3.40838 -0.91441,-3.40838l1.3681,0.25422c0.59185,0.63893 0.55058,3.16333 0.60867,3.32469c1.43149,1.05547 1.26749,3.23166 1.26652,3.23162z"/></g><path d="M255.82103,212.7177l-0.12704,0.20821l-0.2116,-0.12987c-1.15179,-0.70965 -2.36757,-0.46584 -4.61809,0.0626c-1.16002,0.27245 -2.60386,0.61073 -4.4608,0.90352c-0.96353,0.15138 -1.9901,0.20377 -3.0545,0.15641c-4.32615,-0.19246 -8.03054,-1.99251 -8.06744,-2.01098l-0.30544,-0.14994l0.24893,-0.22705c6.2477,-5.70467 11.45181,-6.72927 14.7194,-6.58389c1.81681,0.08083 2.84876,0.52365 2.89334,0.54246c1.54341,0.88022 1.2342,2.57083 0.78833,3.5148c1.27004,0.60471 2.05022,1.33424 2.32002,2.16993c0.2799,0.867 -0.1083,1.5165 -0.1251,1.5438zM255.48221,211.30175c-0.23179,-0.69953 -0.96654,-1.3467 -2.10512,-1.88673c-2.06831,-0.93531 -4.14148,-0.04696 -4.14148,-0.04696c1.9956,-1.06738 3.38495,-0.79172 3.95973,-0.58497c0.25746,-0.56757 0.78665,-2.10086 -0.58052,-2.8817c-0.00384,-0.00017 -0.9917,-0.41394 -2.69162,-0.48956c-3.12754,-0.13914 -8.09901,0.83696 -14.10689,6.22354c0.96889,0.42506 4.05466,1.6606 7.55597,1.81636c1.02962,0.04581 2.02517,-0.00515 2.95459,-0.15151c1.8393,-0.28892 3.27344,-0.6258 4.42461,-0.89583c2.23094,-0.5237 3.53401,-0.77111 4.7458,-0.14189c0.0642,-0.20917 0.11829,-0.55137 -0.01506,-0.96075z" fill="#000000"/></g><g stroke-width="0.4"><path d="M226.52748,203.48469c0,0 -1.16558,-0.92789 -0.51183,-1.94848c0.65371,-1.02064 1.76186,-1.42243 1.75669,-1.3143c-0.00516,0.10808 10.04173,8.86214 22.2322,0.61084l0.05705,-1.1938c0,0 4.31212,2.16702 2.67407,6.06326c0,0 -2.60371,-0.93299 -5.1766,1.52078c-2.57479,2.45368 -5.00966,7.83207 -23.53566,1.81259c0,0 -1.48644,-0.53312 -0.63532,-1.89608c0.85108,-1.36301 3.27089,-2.59833 3.1394,-3.65481z" fill="#ba2915"/><g fill="#871212"><path d="M229.727,201.73213c-1.34405,0.90306 -0.56573,2.33856 -0.67284,2.91936c-0.10711,0.58079 -0.31353,1.88185 -1.14091,2.74906c-0.82743,0.86727 -0.99512,2.47264 -0.99512,2.47264l-1.91051,-0.53049c0.23377,-0.45654 0.24559,-1.33111 1.51137,-2.50099c1.26584,-1.16992 1.39618,-2.64156 1.39618,-2.64156c-0.72176,-2.619 0.95212,-3.11236 0.95212,-3.11236z"/><path d="M233.18346,203.43337c0,0 -0.33225,0.4111 -0.37822,1.37285c-0.04596,0.96171 0.23033,1.92472 -0.3956,2.87003c-0.62593,0.94526 -1.40812,3.27701 -1.40812,3.27701l-1.39486,-0.32262c0,0 0.07755,-0.4682 0.52288,-1.54387c0.44538,-1.07562 1.51132,-1.87155 1.38911,-3.52718c-0.12221,-1.65563 0.53853,-2.88328 0.50954,-2.64179z"/><path d="M236.78933,204.19619c-0.35192,1.28899 -0.32085,1.83299 -0.20301,3.57995c0.11784,1.74696 -0.79081,3.68643 -0.79081,3.68643l-1.34424,-0.14573c0,0 1.17845,-2.09646 0.85825,-3.82255c-0.32015,-1.7261 0.44536,-3.40389 0.44887,-3.47754z"/><path d="M239.46439,204.32451l1.26146,0.05612c0.9974,3.77812 -0.28251,4.77744 -0.28251,4.77744c0.22327,1.64705 -0.8761,2.47324 -0.8761,2.47324l-0.72347,-0.03218c1.15174,-1.31412 0.55007,-2.6381 0.55007,-2.6381c0.85967,-2.15081 0.0706,-4.63745 0.0706,-4.63745z"/><path d="M244.85741,203.4587c1.56381,3.89673 0.30747,5.35468 0.36215,5.54671c0.05473,0.19202 -0.21591,0.71042 -0.21591,0.71042l-1.07946,0.63283c0.46108,-0.77708 0.26124,-1.23329 0.26124,-1.23329c1.00731,-2.97075 -0.71967,-5.2759 -0.71967,-5.2759z"/><path d="M248.69282,201.72789c1.42181,1.05509 1.2817,3.9869 1.2817,3.9869l-1.09419,0.53504c0.55666,-2.7966 -1.0973,-4.05714 -1.0973,-4.05714z"/><path d="M250.05839,199.72657c4.72254,2.87545 2.57087,5.93356 2.57087,5.93356l0.00367,-0.36034c0.39853,-3.3574 -2.39236,-4.34263 -2.39236,-4.34263z"/></g><path d="M252.95992,205.7897l-0.08744,0.20903l-0.21891,-0.07789c-0.00379,-0.00111 -0.37324,-0.12963 -0.95467,-0.1555c-0.98809,-0.04396 -2.47985,0.20254 -3.96961,1.62306c-0.24739,0.23461 -0.49228,0.49734 -0.75129,0.77347c-1.62396,1.73673 -3.84967,4.11536 -10.17421,3.83399c-3.40184,-0.15134 -7.72701,-1.07315 -12.85674,-2.73957c-0.03814,-0.01289 -0.7601,-0.27848 -0.99271,-0.92015c-0.14439,-0.40056 -0.0681,-0.84355 0.22751,-1.31696c0.37936,-0.60608 1.02755,-1.16651 1.65459,-1.70922c0.69563,-0.60132 1.41054,-1.22139 1.45085,-1.69961c-0.00839,-0.00692 -0.01789,-0.0111 -0.02625,-0.018l0.00871,-0.02016c-0.45255,-0.41421 -1.0198,-1.28464 -0.45916,-2.16c0.61719,-0.96526 1.65696,-1.45509 1.94478,-1.44228l0.24147,0.01073l0.00981,0.13961c0.4318,0.38249 4.43196,3.73014 10.47351,3.99892c3.85577,0.17154 7.65273,-0.9773 11.28952,-3.41361l0.06899,-1.44356l0.33554,0.16901c0.04435,0.02347 4.48715,2.31216 2.78576,6.3587zM250.28463,200.03549l-0.04401,0.92074l-0.09606,0.06581c-3.75703,2.54209 -7.68995,3.7409 -11.6877,3.56305c-5.64164,-0.25099 -9.86588,-3.24533 -10.75319,-4.14211c-0.19517,0.05391 -0.97764,0.42627 -1.48191,1.21539c-0.53349,0.83362 0.41946,1.61378 0.46045,1.64641l0.07462,0.05938l0.00405,0.03659c0.38905,0.30496 1.22895,0.81675 2.91507,1.30364c0,0 -1.63162,-0.02682 -2.96466,-0.81274c-0.1914,0.58175 -0.85303,1.16026 -1.55273,1.76605c-0.60073,0.51872 -1.22169,1.0561 -1.56333,1.60219c-0.21698,0.34803 -0.27918,0.65718 -0.18524,0.91911c0.1554,0.43462 0.69363,0.63603 0.69934,0.63816c5.07922,1.65016 9.3603,2.56347 12.71671,2.7128c4.56858,0.20325 6.86472,-0.97591 8.42058,-2.32065c-1.26952,0.2545 -5.16176,0.82568 -8.147,-0.99377c0,0 4.27139,1.64226 8.74672,0.43489c0.27427,-0.2708 0.52913,-0.54052 0.77394,-0.80143c0.26522,-0.28329 0.51615,-0.55229 0.76964,-0.79316c2.18043,-2.07902 4.47052,-1.81464 5.20158,-1.63829c1.09922,-2.94987 -1.36943,-4.80424 -2.30686,-5.38202z" fill="#000000"/></g></g><g data-paper-data="{&quot;index&quot;:null}" stroke="#000000" stroke-width="0.90024" stroke-linecap="round" stroke-linejoin="round"><path d="M288.52317,190.3956l-0.71164,1.46294c-3.86442,7.36183 -8.63999,11.33586 -8.63999,11.33586c0,0 0.30532,-1.35387 0.46638,-3.56303l-0.12871,-0.0588c-0.51439,1.11884 -1.31397,2.54772 -2.57243,4.28493c-2.76039,3.81534 -9.92573,6.51438 -9.92573,6.51438c0,0 0.57617,-1.35009 1.0928,-3.603l-0.05657,-0.35862c-0.79635,0.47091 -1.61526,0.89476 -2.44093,1.30452c-0.24305,0.12151 -0.4856,0.23941 -0.73143,0.35249c-0.74863,0.34903 -1.50791,0.67723 -2.2789,0.97743c-0.30444,0.11687 -0.61881,0.22212 -0.92633,0.33242c-0.56108,0.20217 -1.12799,0.38934 -1.70218,0.56783c-0.42155,0.12893 -0.84577,0.25678 -1.27613,0.37231c-0.44578,0.12207 -0.90161,0.22603 -1.35536,0.33656c-0.83334,0.19457 -1.67654,0.36947 -2.5359,0.52217c-0.28035,0.04971 -0.56081,0.0994 -0.84525,0.14334c-0.61135,0.09609 -1.22696,0.18807 -1.85151,0.26137l0.00164,0.00195c-3.13593,0.37289 -6.43194,0.4872 -9.93016,0.33594c-3.78456,-0.16457 -7.18901,-0.55172 -10.34863,-1.09325v0c-2.50001,-0.42976 -4.82549,-0.96396 -7.01428,-1.58768c-0.10593,-0.02965 -0.21276,-0.06031 -0.3196,-0.09005c-0.67616,-0.1974 -1.34047,-0.40154 -1.99069,-0.61492c-0.22674,-0.07613 -0.44295,-0.15554 -0.66849,-0.23322c-0.86267,-0.29419 -1.69838,-0.60536 -2.52062,-0.92944c-0.5197,-0.20531 -1.03545,-0.41388 -1.53813,-0.63083c-0.29893,-0.12632 -0.59829,-0.25726 -0.89022,-0.38822c-0.79691,-0.36074 -1.58601,-0.72505 -2.34796,-1.10898l-0.15243,0.11378c0.07079,2.10535 0.68869,3.29791 1.22212,3.89047c1.08718,1.20963 3.3825,1.70681 3.3825,1.70681c0,0 -7.20951,0.22765 -10.49213,-5.46218c-0.34873,-0.60479 -0.69888,-1.23037 -1.02375,-1.89174l-0.13011,-0.37244c-0.81022,-0.35755 -1.62154,-0.8055 -2.41056,-1.35572c-4.80862,-3.37558 -5.19227,-5.79083 -5.19227,-5.79083l0.01182,0.87201c0.2452,2.29484 0.56994,3.76082 0.56994,3.76082c0,0 -5.71814,-4.37574 -7.82876,-10.26814c-1.70107,-4.75621 -1.57246,-7.51795 -1.53611,-7.98051l-0.02372,-1.66902c0.58105,-6.4665 1.79713,-13.6616 3.50368,-20.68745l0.07773,-0.18397c1.42796,-5.42 1.64214,-14.62077 10.24346,-23.17214c16.1174,-16.01966 30.54071,-13.92001 40.63632,-25.94642c7.42607,-8.8476 6.99431,-19.91629 6.99431,-19.91629c0,0 3.31854,5.74265 4.53128,9.03916c1.17213,3.21186 2.34908,7.31744 2.34908,7.31744l0.05587,-0.02818c0.04838,-0.11119 0.09341,-0.22532 0.13384,-0.33992c0.62798,-1.78506 0.75861,-4.50652 0.75861,-4.50652c0,0 2.56132,10.92267 7.81409,18.45159c5.24949,7.52512 13.7226,10.39373 22.07989,35.17388c1.04055,3.07956 2.0364,5.68385 2.41227,8.49585l0.133,1.60974c0.41107,5.02977 -1.47194,18.61455 -4.13298,24.29352zM220.79039,159.99558c0,0 -7.89595,6.392 -8.52378,16.35312c-0.55552,8.81362 1.50081,11.76552 2.69523,12.57446c1.22855,0.82764 3.2976,0.62538 3.2976,0.62538c0,0 -6.04758,2.33543 -10.27474,-2.11368c-2.82763,-2.97417 -5.84569,-6.74597 -5.7291,-16.49611M278.19261,181.88289c0,0 0.61342,2.53009 -2.10321,7.40656c-3.05705,5.49433 -8.36358,6.74498 -8.36358,6.74498c0,0 5.22464,-8.41153 2.58175,-17.09811c-1.153,-3.79495 -5.65323,-6.9967 -10.45192,-9.42448c-6.50269,-3.29196 -13.55256,-5.16109 -13.55256,-5.16109M279.55097,199.47955c-0.5123,1.13334 -1.32493,2.59749 -2.62007,4.38092c-2.75948,3.81544 -9.92481,6.51447 -9.92481,6.51447c0,0 1.67624,-3.93948 1.87715,-9.58057M202.91686,178.20025c-0.83557,1.17695 -1.51995,2.46043 -1.97656,3.84337c-2.86047,8.62103 -0.61656,18.67237 -0.61656,18.67237c0,0 -5.71649,-4.37387 -7.82874,-10.26823c-1.87169,-5.23105 -1.52849,-8.04937 -1.52849,-8.04937M287.80628,191.86425c-3.86626,7.36164 -8.64091,11.33577 -8.64091,11.33577c0,0 1.74585,-7.6907 -0.90436,-16.37891c-0.11943,-0.39278 -0.26119,-0.77714 -0.41499,-1.15203M246.30398,164.35084c0,0 1.18117,0.43603 4.1158,3.22924c2.93473,2.79322 3.81728,5.60193 3.81728,5.60193c0,0 -9.20322,-3.38142 -14.24468,-5.74043c-5.03579,-2.36022 -22.19516,-8.82331 -22.19516,-8.82331M212.26593,197.89777c2.13688,4.15531 4.57361,6.54712 4.57361,6.54712c0,0 -6.48909,1.22977 -11.90547,-2.56921c-4.80863,-3.37548 -5.19227,-5.79083 -5.19227,-5.79083M268.04029,206.4149c-7.32614,4.32862 -15.8113,5.94595 -25.86624,5.51076c-11.98768,-0.51892 -20.50713,-3.09397 -27.6359,-6.67631M214.38352,204.71356c-0.05006,2.51178 0.63644,3.88741 1.22277,4.5372c1.08809,1.20973 3.38342,1.70691 3.38342,1.70691c0,0 -7.21134,0.22747 -10.49305,-5.46228c-0.34873,-0.60479 -0.69888,-1.23037 -1.02375,-1.89174M246.95875,164.71659c0,0 25.60295,5.72397 24.09199,19.38458" fill="#be1e2d"/><path d="M275.48175,190.53182c-2.05413,9.72485 -14.89325,18.7697 -32.13027,17.97199c-15.21833,-0.6962 -36.84164,-9.55885 -38.74808,-21.9753c-0.18787,-1.2475 -0.22928,-2.43786 -0.15131,-3.56948l0.303,0.26525c0.96841,1.7395 2.11219,3.03979 3.22939,4.21234c4.22734,4.44735 10.27493,2.11192 10.27493,2.11192c0,0 -2.06925,0.20402 -3.29779,-0.62361c-1.19442,-0.80894 -3.25074,-3.76084 -2.69523,-12.57446c0.62803,-9.96287 8.52378,-16.35312 8.52378,-16.35312l0.04991,-0.22533c5.16228,1.96954 15.44273,5.93086 19.15048,7.66938c5.04136,2.35989 14.24468,5.74043 14.24468,5.74043c0,0 -0.88255,-2.80871 -3.81728,-5.60193c-1.4691,-1.39719 -2.49717,-2.20418 -3.15743,-2.66247l0.64799,0.16762c0,0 19.68499,4.91183 22.40087,13.85147c2.64188,8.68735 -2.58084,17.0982 -2.58084,17.0982c0,0 4.51876,-1.06646 7.61347,-5.54495z" fill="#e6e7e8"/></g><path d="M231.58541,181.36658v0v0v0v0v0c0.7077,0.27199 1.05078,1.04506 0.76694,1.72768c-0.2821,0.68459 -1.07966,1.01598 -1.79325,0.74696c-0.04072,-0.01669 -4.17599,-1.57233 -8.46907,-0.83007c-0.13201,0.02213 -0.26134,0.02755 -0.38854,0.01446c-0.59486,-0.06125 -1.10228,-0.49577 -1.21318,-1.09126c-0.06618,-0.34801 0.02345,-0.68979 0.21316,-0.96502c-0.23319,-0.24376 -0.44553,-0.54958 -0.5712,-0.95382c-0.14803,-0.46894 0.12718,-0.96574 0.61495,-1.10759c0.4827,-0.13692 1.0004,0.11997 1.14904,0.59265c0.11753,0.37651 0.5619,0.52674 0.56718,0.52906c0.13139,0.043 0.24278,0.11519 0.33576,0.20333c0.13855,-0.01341 0.27802,-0.02763 0.41406,-0.03595c-0.11826,-0.21933 -0.22372,-0.46244 -0.27124,-0.75317c-0.07769,-0.48581 0.26664,-0.93719 0.77024,-1.01302c0.50776,-0.07987 0.97297,0.25923 1.04993,0.74317c0.06179,0.38685 0.46853,0.60106 0.47199,0.6032c0.19143,0.08589 0.32318,0.23338 0.41295,0.40157c3.29473,0.19013 5.79815,1.13297 5.94026,1.18778z" data-paper-data="{&quot;index&quot;:null}" fill="#231f20" stroke="none" stroke-width="0.90024" stroke-linecap="butt" stroke-linejoin="miter"/><path d="M264.4587,183.65109v0v0v0v0v0c-0.24828,0.77112 -0.78998,1.19137 -1.22129,1.43367c0.07412,0.25864 0.09618,0.53692 -0.00615,0.80855c-0.26052,0.69038 -1.03663,1.05355 -1.76934,0.79853c-2.7761,-0.97181 -6.44016,-1.59821 -7.26313,-0.9452c-0.29711,0.2346 -0.66323,0.33094 -1.01929,0.29428c-0.35055,-0.0361 -0.68328,-0.19993 -0.92327,-0.48269c-0.48331,-0.56785 -0.39793,-1.40664 0.19254,-1.87464c1.58974,-1.25813 4.61253,-0.91027 7.00042,-0.35367c0.12888,-0.08585 0.33862,-0.26693 0.3876,-0.54236c0.07934,-0.48215 0.51876,-0.84783 1.05267,-0.7374c0.50155,0.07664 0.84299,0.52978 0.76427,1.01557c-0.0523,0.30546 -0.15971,0.557 -0.28378,0.78353c0.11723,0.03619 0.22927,0.06915 0.33377,0.10411c0.11079,-0.13155 0.24352,-0.24379 0.42365,-0.29846c0.02718,-0.01148 0.45413,-0.16406 0.57464,-0.53393c0.15349,-0.46737 0.66203,-0.73744 1.15305,-0.58241c0.48439,0.1481 0.75457,0.64312 0.60362,1.11252z" data-paper-data="{&quot;index&quot;:null}" fill="#231f20" stroke="none" stroke-width="0.90024" stroke-linecap="butt" stroke-linejoin="miter"/><g data-paper-data="{&quot;index&quot;:null}" stroke-linejoin="miter"><path d="M198.70909,167.62564c-1.56261,12.71474 -4.51613,22.82911 -9.93684,22.20892c-5.42073,-0.62018 -12.27128,-11.85623 -10.70865,-24.57098c1.56261,-12.71474 10.94669,-22.09339 16.36742,-21.47319c5.42073,0.62018 5.8407,11.1205 4.27809,23.83526z" fill="url(#color-1)" stroke="#000000" stroke-width="0.90024" stroke-linecap="butt"/><path d="M186.3021,151.35853l2.4752,-2.54587" fill="none" stroke="#ea42a4" stroke-width="2" stroke-linecap="round"/><path d="M196.07311,156.76168l-3.47627,-0.02695" fill="none" stroke="#ea42a4" stroke-width="2" stroke-linecap="round"/><path d="M186.81374,163.59583l0.62824,-1.77094" fill="none" stroke="#ea42a4" stroke-width="2" stroke-linecap="round"/><path d="M185.70752,173.65014l-1.4117,-2.37867" fill="none" stroke="#ea42a4" stroke-width="2" stroke-linecap="round"/><path d="M193.4353,178.84014l1.63589,0.01269" fill="none" stroke="#ea42a4" stroke-width="2" stroke-linecap="round"/><path d="M184.9922,185.87791l1.83711,0.40887" fill="none" stroke="#ea42a4" stroke-width="2" stroke-linecap="round"/><path d="M180.99283,174.99478l1.00108,2.57282" fill="none" stroke="#ea42a4" stroke-width="2" stroke-linecap="round"/><path d="M181.68678,165.33189l-1.2105,-1.9825" fill="none" stroke="#ea42a4" stroke-width="2" stroke-linecap="round"/><path d="M183.19703,155.87263l0.01315,-1.57839" fill="none" stroke="#ea42a4" stroke-width="2" stroke-linecap="round"/><path d="M196.96499,147.88956l-2.88582,2.74" fill="none" stroke="#ea42a4" stroke-width="2" stroke-linecap="round"/></g><g data-paper-data="{&quot;index&quot;:null}" stroke-linejoin="miter"><path d="M295.40662,152.55513c5.39655,0.79239 11.85922,12.24035 9.86276,24.89845c-1.99648,12.65809 -11.69609,21.73294 -17.09268,20.94056c-5.39655,-0.79239 -5.45733,-11.30036 -3.46083,-23.95844c1.99648,-12.65809 5.2942,-22.67294 10.69075,-21.88055z" fill="url(#color-2)" stroke="#000000" stroke-width="0.90025" stroke-linecap="butt"/><path d="M299.47329,158.84674l1.68476,3.08909" fill="none" stroke="#ea42a4" stroke-width="2" stroke-linecap="round"/><path d="M293.60864,165.5042l-3.35864,-0.86558" fill="none" stroke="#ea42a4" stroke-width="2" stroke-linecap="round"/><path d="M297.17574,171.73331l0.11775,1.86833" fill="none" stroke="#ea42a4" stroke-width="2" stroke-linecap="round"/><path d="M295.58995,183.57799l2.01623,-1.93104" fill="none" stroke="#ea42a4" stroke-width="2" stroke-linecap="round"/><path d="M285.12981,186.19197l1.58053,0.40735" fill="none" stroke="#ea42a4" stroke-width="2" stroke-linecap="round"/><path d="M292.91077,195.54932l-1.88365,-0.07701" fill="none" stroke="#ea42a4" stroke-width="2" stroke-linecap="round"/><path d="M298.09071,188.30693l1.67386,-2.2235" fill="none" stroke="#ea42a4" stroke-width="2" stroke-linecap="round"/><path d="M303.47082,174.98948l-1.71311,1.60072" fill="none" stroke="#ea42a4" stroke-width="2" stroke-linecap="round"/><path d="M302.9078,167.08391l0.42219,-1.52498" fill="none" stroke="#ea42a4" stroke-width="2" stroke-linecap="round"/><path d="M293.86161,159.23849l-2.02712,-3.38156" fill="none" stroke="#ea42a4" stroke-width="2" stroke-linecap="round"/></g><path d="M234.59815,190.40412c0,0 1.33475,-1.10468 6.19073,-0.71505c4.85452,0.3933 8.45594,1.40843 8.45594,1.40843c0,0 -0.90696,8.60957 -7.48749,8.03964c-6.58624,-0.56887 -7.15917,-8.73302 -7.15917,-8.73302z" fill="#58595b" stroke="#231f20" stroke-width="0.9025" stroke-linecap="round" stroke-linejoin="miter"/><g stroke-linejoin="miter"><g stroke-linecap="butt"><g stroke="#000000" stroke-width="1"><path d="M251.00304,214.3525h58.18107v22.90873h-58.18107z" fill="url(#color-3)"/><path d="M256.16424,210.15258h58.18108l-5.16122,4.19993h-58.18108z" fill="#9966ff"/><path d="M309.44596,214.32691l4.92663,-4.00902l-0.70381,23.29053l-4.69202,3.72267z" fill="url(#color-4)"/></g><path d="M306.57087,215.16188c0.46074,0 0.83423,0.15196 0.83423,0.33943c0,0.18746 -0.37349,0.33942 -0.83423,0.33942c-0.46074,0 -0.83425,-0.15196 -0.83425,-0.33942c0,-0.18746 0.37351,-0.33943 0.83425,-0.33943z" fill="#b9b9b9" stroke="none" stroke-width="0.5"/><path d="M306.20011,235.98013c0.46074,0 0.83423,0.15195 0.83423,0.33942c0,0.18746 -0.37349,0.33943 -0.83423,0.33943c-0.46074,0 -0.83425,-0.15196 -0.83425,-0.33943c0,-0.18746 0.37351,-0.33942 0.83425,-0.33942z" fill="#b9b9b9" stroke="none" stroke-width="0.5"/><path d="M252.99449,236.28184c0.46072,0 0.83423,0.15197 0.83423,0.33942c0,0.18746 -0.37351,0.33943 -0.83423,0.33943c-0.46072,0 -0.83424,-0.15196 -0.83424,-0.33943c0,-0.18746 0.37351,-0.33942 0.83424,-0.33942z" fill="#b9b9b9" stroke="none" stroke-width="0.5"/><path d="M252.43833,215.01102c0.46072,0 0.83423,0.15196 0.83423,0.33942c0,0.18746 -0.37351,0.33943 -0.83423,0.33943c-0.46072,0 -0.83423,-0.15196 -0.83423,-0.33943c0,-0.18746 0.37351,-0.33942 0.83423,-0.33942z" fill="#b9b9b9" stroke="none" stroke-width="0.5"/></g><g stroke="#000000" stroke-width="1" stroke-linecap="butt"><path d="M255.81222,225.75097c0,-4.94719 4.41105,-8.95767 9.85235,-8.95767c5.4413,0 9.85235,4.01049 9.85235,8.95767c0,4.94719 -4.41105,8.95768 -9.85235,8.95768c-5.4413,0 -9.85235,-4.0105 -9.85235,-8.95768z" fill="#8499b1"/><path d="M259.19017,226.13487c0,-2.89764 2.58361,-5.24665 5.77067,-5.24665c3.18704,0 5.77067,2.34901 5.77067,5.24665c0,2.89764 -2.58362,5.24664 -5.77067,5.24664c-3.18704,0 -5.77067,-2.349 -5.77067,-5.24664z" fill="#92c5ff"/></g><g stroke="#000000" stroke-width="1" stroke-linecap="butt"><path d="M280.89094,225.78489c0,-4.94719 4.41105,-8.95767 9.85235,-8.95767c5.4413,0 9.85235,4.01049 9.85235,8.95767c0,4.94719 -4.41105,8.95768 -9.85235,8.95768c-5.4413,0 -9.85235,-4.0105 -9.85235,-8.95768z" fill="#8499b1"/><path d="M284.26888,226.16881c0,-2.89764 2.58363,-5.24665 5.77067,-5.24665c3.18704,0 5.77067,2.34901 5.77067,5.24665c0,2.89764 -2.58363,5.24665 -5.77067,5.24665c-3.18704,0 -5.77067,-2.349 -5.77067,-5.24665z" fill="#92c5ff"/></g><path d="M305.52179,194.49862l-4.17978,17.64392" fill="none" stroke="#000000" stroke-width="2" stroke-linecap="round"/></g></g></g></svg>