<svg version="1.1" xmlns="http://www.w3.org/2000/svg" xmlns:xlink="http://www.w3.org/1999/xlink" width="472.89874" height="337.90883" viewBox="0,0,472.89874,337.90883"><defs><linearGradient x1="197.14941" y1="263.5" x2="197.14941" y2="276" gradientUnits="userSpaceOnUse" id="color-1"><stop offset="0" stop-color="#dddee1"></stop><stop offset="1" stop-color="#b6b7ba"></stop></linearGradient><linearGradient x1="268.77422" y1="241.34988" x2="268.77422" y2="264.39962" gradientUnits="userSpaceOnUse" id="color-2"><stop offset="0" stop-color="#dddee1"></stop><stop offset="1" stop-color="#b6b7ba"></stop></linearGradient><linearGradient x1="281.91978" y1="195.5" x2="281.91978" y2="236" gradientUnits="userSpaceOnUse" id="color-3"><stop offset="0" stop-color="#dddee1"></stop><stop offset="1" stop-color="#b6b7ba"></stop></linearGradient></defs><g transform="translate(-7.06738,0.77063)"><g stroke-miterlimit="10"><g><path d="M411.06319,263.13219c1.88506,0 3.41319,6.6856 3.41319,14.93273c0,8.24712 3.59165,14.93273 -2.98654,14.93273c-6.15155,0 -3.83984,-6.6856 -3.83984,-14.93273c0,-8.24712 1.52814,-14.93273 3.41319,-14.93273z" fill="#b6b7ba" fill-rule="nonzero" stroke="#b6b7ba" stroke-width="1.2" stroke-linecap="butt" stroke-linejoin="miter"></path><g fill-rule="evenodd"><path d="M438.44616,275.40313c2.17552,-0.45324 4.80427,-1.1784 6.97978,-3.17263c4.98556,-4.44167 6.52655,-11.78404 9.97112,-9.88046c3.53521,1.90357 3.44456,13.77826 -7.6143,17.40412c-3.80716,1.26905 -7.25172,1.26905 -10.06176,1.1784c-0.72518,0 -6.97978,-0.63453 -9.1553,-3.7165c-2.17552,-3.08198 -0.63453,-3.8978 0.09064,-4.26038c0.81582,-0.45324 6.70784,2.99134 9.78982,2.44746z" fill="#b6b7ba" stroke="#b6b7ba" stroke-width="1.2" stroke-linecap="round" stroke-linejoin="round"></path><path d="M451.13664,265.6133c1.45035,-2.08487 1.90358,-3.44456 3.7165,-3.08198c1.81293,0.54388 2.71939,4.35103 1.81293,7.52366c-0.90646,3.17262 -2.3568,4.80426 -3.53521,5.98266c0.1813,-0.63452 0.54389,-2.62874 -0.99711,-3.80716c-1.90357,-1.54099 -5.25749,-0.72518 -5.25749,-0.72518c0,0 2.81004,-3.44456 4.26038,-5.89202z" fill="#ffffff" stroke="none" stroke-width="1" stroke-linecap="butt" stroke-linejoin="miter"></path></g><path d="M424.12403,282.38289c-1.54099,-1.08776 -3.17263,-3.80716 -0.27194,-6.25461c3.35392,-2.90069 7.52366,0.45324 9.33658,1.81293c1.81293,1.3597 2.7194,2.17552 6.6172,4.16974c1.54099,0.81582 3.53521,1.54099 4.62297,1.90358c0.45324,0.09064 0.90646,0.09064 1.3597,-0.09064c0.81582,-0.36258 2.35681,-0.99711 4.0791,0.27194c3.80716,3.35392 -5.16685,16.13508 -9.97112,14.59408c-4.98556,-1.54099 -2.17552,-5.89202 -0.63453,-8.06754c0.18129,-0.36258 0,-0.81582 -0.36258,-0.90646l-0.36258,-0.09064c-7.16108,-2.26616 -12.78115,-6.2546 -14.41279,-7.34236z" fill="#b6b7ba" fill-rule="evenodd" stroke="#b6b7ba" stroke-width="1.2" stroke-linecap="round" stroke-linejoin="round"></path><g fill-rule="evenodd"><path d="M416.41908,278.03186c-1.08776,-0.81582 -2.17552,-2.17552 -3.62586,-4.26038c-1.1784,-1.72228 -2.44746,-5.0762 -2.44746,-5.0762c-0.81582,-2.26616 -1.3597,-6.61719 1.63164,-6.52654c1.99421,0.09064 3.80716,-0.1813 6.88913,-0.63453c5.43879,-1.08775 6.43591,-1.81293 8.70206,1.90358c2.44745,4.35103 8.70206,7.52366 0.99711,15.04732c0,0 -4.44167,3.44457 -9.78982,8.70206c-3.62586,3.53521 -9.33658,8.61141 -11.33081,10.33369c-0.45324,0.36258 -0.99711,0.54389 -1.54099,0.63453c-8.79271,0.81582 -15.31925,-0.09064 -15.31925,-3.98844c0,-6.52654 12.96245,-4.26038 12.96245,-4.26038c0,0 4.16973,-3.53521 6.07331,-5.25749z" fill="#b6b7ba" stroke="#b6b7ba" stroke-width="1.2" stroke-linecap="round" stroke-linejoin="round"></path><path d="M417.23489,277.94121c0,0 -2.81003,-1.90357 -4.80426,-5.98266c0,0 -1.72228,-2.26616 2.17552,-4.71362c4.07909,-2.62874 5.62008,0.27194 7.25172,2.44746c1.81293,2.81004 0,4.16974 -1.81293,5.80138c-1.45035,1.3597 -2.81004,2.44746 -2.81004,2.44746z" fill="#ffffff" stroke="none" stroke-width="1" stroke-linecap="butt" stroke-linejoin="miter"></path></g><g fill-rule="evenodd"><path d="M400.16233,222.22603c1.99619,-0.7024 4.11176,-1.24101 6.64489,-1.48199c4.23169,-0.52583 8.50947,0.3193 8.50947,0.3193l9.63281,-8.87649c0.32761,-0.23876 0.81958,-0.04553 0.79015,0.32705l0.8062,16.31709c-0.65632,-0.62524 11.39517,9.8538 6.757,21.10962c-4.63819,11.25582 -17.37271,18.0789 -34.73426,17.58967c-17.36155,-0.48924 -22.9142,-9.48458 -22.69596,-14.76019c0.21825,-5.2756 6.25067,-8.21739 6.25067,-8.21739c0,0 -0.58524,-4.03791 1.45094,-9.43455c1.20383,-3.23498 6.22068,-8.39618 6.22068,-8.39618l0.72022,-9.95539c0.02944,-0.37258 0.46143,-0.53695 0.75961,-0.40312z" fill="#b6b7ba" stroke="#b6b7ba" stroke-width="1.2" stroke-linecap="butt" stroke-linejoin="miter"></path><path d="M382.45143,244.86532c7.314,-2.97288 8.97368,2.53927 15.4853,1.90683c7.59939,-0.72295 16.51591,-10.58224 24.10972,-2.02111c7.57883,8.47174 -0.54312,23.06915 -22.92706,22.2273c-17.16776,-0.42983 -23.00304,-8.91821 -22.78481,-14.19381c0.21825,-5.2756 6.11685,-7.91921 6.11685,-7.91921z" fill="#ffffff" stroke="none" stroke-width="1" stroke-linecap="butt" stroke-linejoin="miter"></path><path d="M377.39018,250.30971c0,0 -6.45166,0.99002 -11.22307,-1.70248" fill="none" stroke="#b6b7ba" stroke-width="1.2" stroke-linecap="round" stroke-linejoin="round"></path><path d="M377.9171,255.64418c0,0 -3.20167,2.28324 -8.90871,2.78075" fill="none" stroke="#b6b7ba" stroke-width="1.2" stroke-linecap="round" stroke-linejoin="round"></path><path d="M397.90454,244.38782c1.78796,-0.29983 4.21671,-0.61521 4.30721,0.47255c0.23987,1.43038 -3.14005,4.29498 -4.7792,4.38605c-1.44536,0.15048 -3.20611,-2.12779 -3.3266,-3.39435c-0.01554,-0.64078 1.92123,-1.1494 3.79859,-1.46424z" fill="#001026" stroke="#001026" stroke-width="1.2" stroke-linecap="round" stroke-linejoin="round"></path><path d="M427.97618,243.389c2.66419,-3.29606 9.93265,-7.08852 9.93265,-7.08852" fill="none" stroke="#b6b7ba" stroke-width="1.2" stroke-linecap="round" stroke-linejoin="round"></path><path d="M438.78224,245.34523c0,0 -6.45056,2.09278 -10.54953,1.21768" fill="none" stroke="#b6b7ba" stroke-width="1.2" stroke-linecap="round" stroke-linejoin="round"></path><g><path d="M387.13178,245.91866c-2.0378,-0.87404 -2.9427,-3.57604 -2.51817,-6.71641c0.38204,0.0491 10.22465,-3.97704 10.23157,-8.97741c2.20373,1.59413 2.61805,5.76759 0.86438,9.84357c-2.00731,4.47268 -5.80478,7.03967 -8.57779,5.85028z" fill="#ffffff" stroke="#b6b7ba" stroke-width="1.2" stroke-linecap="round" stroke-linejoin="round"></path><path d="M387.66693,242.86629c-0.16491,-0.98338 0.41535,-1.9079 1.30933,-2.05782c0.89399,-0.14992 1.7441,0.53473 1.90901,1.51811c0.16491,0.98338 -0.41535,1.9079 -1.30933,2.05782c-0.89399,0.14992 -1.7441,-0.53473 -1.90901,-1.51811" fill="#001026" stroke="none" stroke-width="1" stroke-linecap="butt" stroke-linejoin="miter"></path></g><g><path d="M408.19202,234.48244c0.98353,-2.13179 2.39748,-3.90096 3.949,-4.97291c-0.04817,0.37846 -0.07299,0.7642 -0.07299,1.15574c0,4.27694 6.83092,9.07325 6.76955,9.20109c-2.02229,4.38327 -5.74593,6.29449 -8.98091,5.09067c-2.69858,-1.29379 -3.68695,-6.0913 -1.66466,-10.47457z" fill="#ffffff" stroke="#b6b7ba" stroke-width="1.2" stroke-linecap="round" stroke-linejoin="round"></path><path d="M410.87789,242.1375c-0.16491,-0.98338 0.43034,-1.81851 1.30933,-2.05782c0.89399,-0.14992 1.7441,0.53473 1.90901,1.51811c0.16491,0.98338 -0.41535,1.9079 -1.30933,2.05782c-0.89399,0.14992 -1.7441,-0.53473 -1.90901,-1.51811" fill="#001026" stroke="none" stroke-width="1" stroke-linecap="butt" stroke-linejoin="miter"></path></g></g><path d="M420.415,278.22574c0,-8.24712 1.52814,-14.93273 3.41319,-14.93273c1.88506,0 3.41319,6.68562 3.41319,14.93273c0,8.24712 2.3117,14.93273 -3.83985,14.93273c-6.5782,0 -2.98654,-6.68562 -2.98654,-14.93273z" fill="#b6b7ba" fill-rule="nonzero" stroke="#b6b7ba" stroke-width="1.2" stroke-linecap="butt" stroke-linejoin="miter"></path><path d="M415.01405,256.04627l-6.34526,0.45324" fill="none" fill-rule="nonzero" stroke="#b6b7ba" stroke-width="1.2" stroke-linecap="round" stroke-linejoin="miter"></path><path d="M397.11136,258.76568l7.70495,-1.81293" fill="none" fill-rule="nonzero" stroke="#b6b7ba" stroke-width="1.2" stroke-linecap="round" stroke-linejoin="miter"></path><path d="M394.39198,259.67212l-4.75894,2.49278" fill="none" fill-rule="nonzero" stroke="#b6b7ba" stroke-width="1.2" stroke-linecap="round" stroke-linejoin="miter"></path></g><g fill-rule="nonzero" stroke-linejoin="miter"><path d="M73.63656,204.04037c6.95549,2.12351 5.92615,6.59682 7.14978,12.62171c1.26156,6.21162 4.66613,13.94659 4.66613,13.94659l4.88054,5.01791c0,0 4.43761,-0.21064 6.41768,0.8221c1.98007,1.03274 5.26004,1.72431 4.67619,4.10353c-0.54852,2.23526 0.1401,-3.62107 4.23835,1.89591c3.85162,5.18497 -1.21012,8.09886 -1.21012,8.09886c0,0 1.66096,4.07121 0.56541,7.02909c-0.51725,1.39651 -3.29232,3.45009 -3.74759,4.52751c-2.71218,6.41848 -9.21713,4.46844 -12.21718,2.3638c-4.51251,-3.16568 -10.02899,-10.68233 -10.02899,-10.68233c0,0 -6.76757,-6.84353 -7.6452,-12.49118c-0.87763,-5.64765 0.95055,-30.58976 0.95055,-30.58976" fill="#ffab19" stroke="#001026" stroke-width="4" stroke-linecap="round"></path><g stroke-linecap="round"><path d="M75.73032,247.20816c0,0 -8.88158,34.38728 -26.46747,43.98081c-15.94148,8.69647 -31.7346,0.58321 -37.76687,-14.13781c-7.80964,-19.05846 4.83098,-33.71649 15.0738,-25.86949c10.25511,7.85641 11.45741,23.38748 20.40717,22.6641c8.94976,-0.72339 28.75337,-26.6376 28.75337,-26.6376z" fill="#ffab19" stroke="none" stroke-width="0"></path><path d="M33.26959,275.07334c-3.60586,3.71254 -8.67278,15.09323 1.10645,17.13883c10.52207,2.20099 24.00151,-5.99548 14.88682,-1.0232c-15.94148,8.69647 -31.7346,0.58321 -37.76687,-14.13781c-7.80964,-19.05846 4.83098,-33.71649 15.0738,-25.86949c10.25511,7.85641 8.95741,21.88748 17.90717,21.1641c4.21334,-0.34055 2.60451,2.7231 0.35924,1.74709c-2.52402,-1.09719 -6.74791,-3.98077 -11.56661,0.98048z" fill="#fff9f0" stroke="none" stroke-width="0"></path><path d="M75.73032,247.20816c0,0 -8.88157,34.38728 -26.46747,43.98081c-15.94148,8.69647 -31.7346,0.58321 -37.76687,-14.13781c-7.80964,-19.05846 4.83098,-33.71649 15.07381,-25.86949c10.25511,7.85641 11.45741,22.88748 20.40717,22.1641c8.94976,-0.72339 28.75337,-26.1376 28.75337,-26.1376z" fill="none" stroke="#001026" stroke-width="4"></path></g><path d="M88.85004,226.89578c4.95009,25.90017 2.40746,57.5383 2.40746,57.5383c0,0 9.23682,-0.77956 17.92168,3.0548c11.50445,5.07921 8.58264,18.27274 -10.59535,16.87984c-16.7738,-1.21828 -31.54631,-0.53434 -26.72463,-22.93908c4.39011,-20.39941 2.5559,-41.07511 2.5559,-41.07511" fill="#ffab19" stroke="#001026" stroke-width="4" stroke-linecap="round"></path><g><path d="M87.85336,224.01197c5.02218,13.63927 -7.84845,23.53678 -20.4819,18.77508c-6.20826,-2.33996 -4.77912,-19.11644 -4.77912,-19.11644c0,0 -10.55074,-14.40606 0.68273,-19.45781c11.02248,-4.95686 20.43203,8.53873 24.57829,19.79917z" fill="#ffab19" stroke="#001026" stroke-width="4" stroke-linecap="round"></path><path d="M87.55331,229.18111c0,6.03298 -3.74444,10.92368 -8.36345,10.92368c-4.61901,0 -8.70481,-2.84251 -8.70481,-8.87549c0,-6.03298 -3.40614,-11.81101 3.24298,-17.06825c6.02646,-4.76494 13.82529,8.98708 13.82529,15.02006z" fill="#fff9f0" stroke="none" stroke-width="0" stroke-linecap="butt"></path></g><path d="M81.37359,242.73936l1.36546,55.98388c0,0 7.08422,3.14058 16.04416,13.99597c12.79207,15.49821 -6.67203,25.59739 -22.18873,21.506c-8.19767,-2.16153 -11.64566,-9.91713 -13.33352,-12.9016c-4.21632,-7.45534 -4.56919,-16.43265 -4.0761,-21.4653c2.3574,-24.0601 4.77911,-61.44572 4.77911,-61.44572" fill="#ffab19" stroke="#001026" stroke-width="4" stroke-linecap="round"></path><path d="M62.60318,212.36567l-9.95955,18.36939l6.3797,7.39677c0,0 4.27909,1.19421 5.83444,2.79674c1.55534,1.60253 4.45197,3.28957 3.15019,5.36489c-1.22301,1.94974 1.27065,-3.39371 3.4281,3.13148c2.02762,6.13251 -3.69329,7.3086 -3.69329,7.3086c0,0 0.29779,4.38689 -1.67157,6.8508c-0.9298,1.16329 -4.20954,2.24104 -4.98025,3.12087c-4.59137,5.24139 -10.1543,1.3464 -12.34122,-1.59421c-3.28945,-4.4231 -6.16508,-13.29227 -6.16508,-13.29227c0,0 -1.54414,-4.9961 -5.69684,-10.30264c-3.95692,-5.05636 1.8903,-15.17715 9.25993,-24.31745c6.4261,-7.97007 13.92794,-15.5219 18.15025,-14.10634" fill="#ffab19" stroke="#001026" stroke-width="4" stroke-linecap="round"></path><g><g fill="none" stroke="#001026" stroke-width="3" stroke-linecap="round"><path d="M110.93272,175.98299l24.5,-7"></path><path d="M126.93272,190.98299l-17.5,-4.5"></path></g><g><path d="M65.08001,111.92257l32.01763,-20.97342c0,0 24.08079,32.93547 27.03577,64.56416" fill="#ffab19" stroke="#001026" stroke-width="4" stroke-linecap="round"></path><g stroke-linecap="butt"><path d="M19.95579,160.64479c0,-25.93783 21.35128,-49.16034 49.92649,-50.13623c28.28929,-0.96613 48.59511,11.02392 55.25198,46.47666c0.10661,0.56776 5.95556,5.04593 5.73978,14.07085c-0.58324,24.39265 -27.95488,29.6408 -53.00352,29.6408c-28.30893,0 -57.91472,-14.11423 -57.91472,-40.05206z" fill="#ffab19" stroke="none" stroke-width="0"></path><path d="M90.74048,168.65521c0,0 17.52973,-10.52693 31.73105,-11.26336c0.10661,0.56776 8.61831,4.63931 8.40253,13.66423c-0.58324,24.39265 -27.95488,29.6408 -53.00352,29.6408c-28.30893,0 -58.19082,-21.43988 -42.82583,-35.98586c11.05849,-10.46904 55.69578,3.94419 55.69578,3.94419z" fill="#fff9f0" stroke="none" stroke-width="0"></path><path d="M19.95579,160.64479c0,-25.93783 21.35128,-49.16034 49.92649,-50.13623c28.28929,-0.96613 48.59511,11.02392 55.25198,46.47666c0.10661,0.56776 5.95556,5.04593 5.73978,14.07085c-0.58324,24.39265 -27.95488,29.6408 -53.00352,29.6408c-28.30893,0 -57.91472,-14.11423 -57.91472,-40.05206z" fill="none" stroke="#001026" stroke-width="4"></path></g><path d="M19.95021,164.3175c-6.12583,-43.37735 28.40263,-74.00483 28.40263,-74.00483l30.62158,20.331" fill="#ffab19" stroke="#001026" stroke-width="4" stroke-linecap="round"></path><path d="M83.35729,171.26007c-4.93099,-3.88614 15.98083,-5.41034 12.59167,-0.9258c-2.37799,3.14657 -2.7464,3.52761 -5.8742,3.47778c-3.1278,-0.04984 -4.04701,-0.44738 -6.71747,-2.55198z" fill="#001026" stroke="none" stroke-width="0" stroke-linecap="round"></path><path d="M107.34789,181.01161c-0.09094,1.87725 -6.36687,3.93723 -10.64917,4.50375c-6.41958,0.84925 -15.11213,2.09331 -24.52346,0.31761c-9.41133,-1.7757 -21.06484,-5.79062 -27.37236,-10.10919c-3.98387,-2.72763 -4.05299,-5.36955 -1.06199,-5.98134c1.31519,-0.26901 1.37904,2.12897 4.52418,4.58812c4.66004,3.64362 13.79319,8.0464 25.18812,9.17887c6.67419,0.66331 16.82702,1.51986 22.62304,0.66984c5.28856,-0.7756 11.42077,-6.24632 11.27164,-3.16765z" fill="#001026" stroke="none" stroke-width="0" stroke-linecap="butt"></path><g stroke-linecap="butt"><path d="M81.47141,158.66377c0,11.20409 -7.25914,13.12675 -15.03609,13.12675c-7.77695,0 -21.71881,-2.4 -21.71881,-13.60409c0,-11.20409 9.64583,-19.33213 17.42278,-19.33213c13.98233,0 19.33212,8.60538 19.33212,19.80947z" fill="#ffffff" stroke="#001026" stroke-width="3"></path><path d="M80.51676,158.43727c0,7.25641 -6.19761,13.13889 -13.84276,13.13889c-7.64514,0 -13.84276,-5.88248 -13.84276,-13.13889c0,-7.25641 6.19761,-13.13889 13.84276,-13.13889c7.64514,0 13.84276,5.88248 13.84276,13.13889z" fill="#001026" stroke="none" stroke-width="0"></path></g><g stroke-linecap="butt"><path d="M123.77733,155.35133c1.01713,11.26555 -4.50923,14.11757 -10.6168,15.10193c-6.10757,0.98436 -17.27457,0.33589 -18.29171,-10.92965c-1.01713,-11.26555 5.82024,-20.65909 11.92781,-21.64345c10.98091,-1.76981 15.96356,6.20562 16.98069,17.47117z" fill="#ffffff" stroke="#001026" stroke-width="3"></path><path d="M123.00703,155.24439c0.65875,7.2962 -3.67446,13.99542 -9.67852,14.9631c-6.00406,0.96768 -11.40533,-4.16261 -12.06408,-11.45881c-0.65875,-7.2962 3.67446,-13.99542 9.67852,-14.96311c6.00406,-0.96768 11.40533,4.16262 12.06408,11.45882z" fill="#001026" stroke="none" stroke-width="0"></path></g></g><g fill="none" stroke="#001026" stroke-width="3" stroke-linecap="round"><path d="M10.43272,158.98299l24.5,7"></path><path d="M18.9327,180.98299l17.5,-4.5"></path></g></g></g><g fill="#b6b7ba" fill-rule="nonzero" stroke="none" stroke-width="0.5" stroke-linecap="butt" stroke-linejoin="miter"><g><path d="M389.04922,142.48924c0.10329,0.11107 0.16324,0.22057 0.19314,0.32458c4.27426,-0.57505 8.5537,-1.00024 12.75766,-1.00935c10.25117,0 19.80448,4.91629 30.07597,5.00386c5.93134,1.17274 13.30098,1.05168 19.24148,-0.02842c1.31305,-0.23874 4.70886,-0.22872 5.65222,-1.25577c0.59868,-0.65178 1.07874,-1.43021 1.78033,-1.96967c2.0302,-1.50869 3.99457,-3.99507 5.18402,-6.231c0.35702,-0.67112 -0.06929,-1.6997 0.47482,-2.23056c0.93093,-0.90825 4.11026,-1.28894 5.41884,-1.26838l0.17827,-0.09391c-1.74329,-3.6269 -3.07734,-7.591 -3.71986,-11.47447c-0.51548,-3.11561 0.41824,-6.20292 0.46395,-9.21061c0.00854,-3.59213 2.18674,-7.27329 1.50949,-10.87178c-1.1017,-5.8538 -1.93991,-12.18611 -1.08252,-18.15349c0.01292,-0.44353 0.03355,-0.87795 0.06359,-1.30598c-0.49062,-0.14911 -0.49062,-0.71429 -0.49062,-0.71429c0.02842,-8.36181 6.48005,-15.3965 8.3862,-23.13712c2.37926,-9.51705 5.56936,-19.64288 1.02661,-28.85821c-0.98593,-3.36181 -2.91849,-4.47274 -6.23305,-3.13468c-0.17297,0.06983 -1.63149,0.39008 -1.89942,0.66034c-1.0842,1.0936 -1.03363,3.32464 -1.30039,4.64198c-0.62434,3.0832 -1.28913,6.25294 -2.01101,9.38109c-0.78904,3.4132 -0.81345,6.96377 -1.47274,10.36136c-0.31226,1.60921 -1.18022,3.11629 -1.50972,4.72706c-0.57504,2.8111 -1.58494,5.40274 -4.3566,6.59848l-1.25055,-1.07301c-0.12018,-0.07407 -0.20433,-0.1785 -0.25778,-0.26263c-0.04126,-0.06323 -0.08584,-0.14732 -0.11273,-0.24527c-2.02143,-5.39716 -3.86867,-10.84614 -5.90898,-16.24011c-1.0357,-2.73808 -2.58713,-5.25789 -3.50647,-8.03093c-5.16562,-8.66606 -10.52768,-16.35306 -21.40309,-17.4406c-7.20948,-0.72292 -17.0325,-1.02796 -23.4768,2.66933c-1.26722,0.72704 -2.35857,2.83868 -3.43313,3.91324c-5.31461,5.28465 -9.28033,12.40535 -9.28033,19.96967v0.5c0,0 0,0.75 -0.75,0.75c-0.18672,0 -0.32695,-0.04648 -0.43227,-0.11631c-0.50129,3.04163 -1.17876,6.19716 -2.99571,8.35138c-0.15222,0.18047 -2.17037,2.17038 -2.28501,2.20784c-1.89805,0.62014 -2.17068,-0.31803 -2.02733,-1.81305c0.21325,-2.22392 2.53127,-3.18103 0.63188,-4.94133c-1.49502,-2.99003 -3.98035,-5.58943 -6.70108,-7.27012c-1.25538,-0.7755 -1.53567,-2.4314 -2.90208,-2.94887c-1.08023,-0.4091 -3.89782,3.02882 -4.05847,3.95278c-0.31296,1.79993 0.02006,3.99457 0.02006,5.82769c0,6.12094 -0.41166,12.00047 -1.00271,18.06364c-0.39018,4.00257 -1.59899,7.92048 -1.99512,11.91164c-1.14409,3.67718 -0.71028,7.55473 -0.02943,11.30722c0.18925,0.04963 0.41382,0.17604 0.4967,0.49103c0.05042,0.13465 0.07298,0.30326 -0.00039,0.48314c-0.05712,0.18568 -0.18135,0.30189 -0.30564,0.37418c-0.1718,0.12467 -0.33945,0.14925 -0.48464,0.12871c-2.49694,0.2064 -7.50816,-0.38897 -9.4017,1.27402c-0.91275,0.80162 0.34196,2.87176 0.6409,3.60415c1.1882,2.91107 3.2627,5.55704 4.67368,8.3685c1.27023,2.54487 3.17381,4.8514 4.34524,7.19262c0.96291,1.92448 3.46739,3.39887 4.04305,5.62883c0.54032,2.09305 0.02006,5.00686 0.02006,7.17231c0,2.43123 0.44942,4.24707 -1.28033,6.09099c-2.05791,2.05791 -4.10904,4.16804 -6.43238,5.93459c-0.81188,0.61732 -2.78626,1.25437 -3.34046,1.75177c-0.23653,0.21229 3.23505,2.12204 3.4162,2.19429c3.53924,1.4117 6.04107,1.19939 9.81768,0.78258c5.86383,-0.00876 11.65535,-0.838 17.50949,-1.00284l0.04903,-0.30058c0,0 0.5492,-0.51076 1.05996,0.03845zM370.51426,145.25189c-4.55217,0.50937 -7.69213,0.50957 -11.84965,-1.58107c-0.99226,-0.49897 -3.39333,-1.90129 -2.86142,-3.44817c0.1598,-0.46475 3.30162,-1.99221 3.82623,-2.39111c2.26914,-1.72534 4.26976,-3.79136 6.27961,-5.80121c1.54172,-1.40312 0.84099,-4.49283 0.84099,-6.53033c0,-1.60571 0.38937,-3.77364 0.02006,-5.32769c-0.48273,-2.03135 -3.03936,-3.5939 -3.95695,-5.37117c-1.17726,-2.28024 -3.05282,-4.60765 -4.31312,-7.1241c-1.66827,-3.35006 -3.80472,-6.40672 -5.19291,-9.89004c-0.52401,-1.31486 -1.07526,-2.57424 0.16585,-3.82059c1.83715,-1.84492 6.27502,-1.56607 9.2328,-1.64462c-0.68869,-3.86281 -1.08582,-7.85827 0.07594,-11.6426c0.38045,-3.93527 1.58171,-7.79794 1.97102,-11.74284c0.5945,-6.02416 0.99729,-11.8551 0.99729,-17.93636c0,-1.90255 -0.38472,-4.31832 0.02006,-6.17231c0.40966,-1.87634 3.8399,-5.74179 5.94153,-5.04722c1.7965,0.59373 1.7885,2.2544 3.25187,3.10244c2.90805,1.68525 5.59038,4.56938 7.14497,7.67856c2.43408,2.58455 -0.17771,3.66913 -0.5781,6.4082c-0.06615,0.45252 0.62315,-0.66958 0.93934,-1c0.87454,-0.91389 1.94361,-1.88767 2.30607,-3.16448c0.19784,-0.69691 0.37666,-1.40711 0.54238,-2.1258c-0.09658,0.0453 -0.20439,0.07061 -0.31812,0.07061c-0.41421,0 -0.75,-0.33579 -0.75,-0.75c0,-0.41421 0.33579,-0.75 0.75,-0.75c0.23042,0 0.43657,0.10391 0.57415,0.26742c0.43156,-2.04397 0.78444,-4.13462 1.19042,-6.16451c0,0 0.13408,-0.6704 0.78628,-0.60304c1.04688,-6.55063 4.7239,-12.56129 9.41882,-17.2802c1.21554,-1.21554 2.29254,-3.25201 3.72082,-4.13808c6.4846,-4.02287 17.04685,-3.60965 24.39903,-2.87638c11.41218,1.14122 17.23221,9.15656 22.61844,18.31038c0.93888,2.80197 2.49716,5.35325 3.54485,8.12302c2.04469,5.40554 3.89543,10.86592 5.9218,16.27432l0.44553,0.59676c1.60663,-1.33011 2.2301,-3.4816 2.6434,-5.40152c0.35144,-1.6326 1.19242,-3.11994 1.51377,-4.74738c0.67144,-3.40034 0.69155,-6.97217 1.48003,-10.39468c0.72086,-3.12371 1.40502,-6.30909 2.01272,-9.38843c0.31792,-1.61096 0.38123,-4.04606 1.69961,-5.35802c1.93893,-1.92949 6.98792,-2.5438 9.06066,-0.5c0.78014,0.76924 1.2329,2.47814 1.52985,3.48971c4.70092,9.50244 1.48345,19.95843 -0.96877,29.7673c-1.49279,5.87148 -5.76159,11.51984 -7.54425,17.57296c0.0592,0.00684 0.12247,0.0208 0.19001,0.04332c0.71151,0.23717 0.47434,0.94868 0.47434,0.94868l-0.02566,0.07698c-0.70597,2.1109 -0.94636,4.06536 -1.01436,6.28036c-0.8363,5.88616 0.04314,12.0096 1.06895,17.78621c0.66966,3.77103 -1.50035,7.40085 -1.49051,11.12822c-0.08963,2.91766 -1.00309,5.93056 -0.48473,8.94334c0.68675,3.99144 2.05809,8.01729 3.9056,11.71232c0,0 0.14289,0.28578 0.05561,0.57755c-0.04644,0.15525 -0.15805,0.31219 -0.39102,0.42868c-0.01038,0.00519 -0.02067,0.01014 -0.03089,0.01485l-1.13221,0.54427c-0.98298,0.01314 -3.89545,0.14806 -4.58116,0.73162c-0.5077,0.43207 -0.01463,1.37952 -0.31396,1.9752c-1.23189,2.45151 -3.44827,5.11616 -5.62719,6.76324c-1.23204,0.89527 -1.42441,1.94972 -2.9066,2.5094c-4.22479,1.59532 -9.31348,1.5406 -13.7434,1.5406c-3.71597,0 -7.42672,0.23516 -11.07597,-0.50386c-10.22479,-0.02168 -19.73391,-4.99614 -29.92403,-4.99614c-8.53075,-0.02033 -17.42271,1.78229 -25.89393,2.99246c0,0 -0.74246,0.10607 -0.84853,-0.6364c-0.0374,-0.26178 0.03069,-0.44445 0.13453,-0.57125c-1.62223,0.0975 -3.24719,0.16263 -4.87783,0.16261z"></path><path d="M405.50002,131.75l0.83541,0.07918c1.09048,0.58451 3.73684,5.1976 4.49377,2.83541c3.4463,-6.7153 0.95792,-15.21283 0.92123,-22.50318c-0.04036,-0.17136 -0.00052,-0.32805 0.05575,-0.44881c0.06024,-0.16535 0.18508,-0.35478 0.44384,-0.42967c0,-3.42764 0,-6.85529 0,-10.28293c0.19635,-8.10028 -1.86968,-16.48734 -4.46151,-24.26283c0,0 -0.01518,-0.04555 -0.02634,-0.11743c-0.01215,-0.07173 -0.01215,-0.11974 -0.01215,-0.11974v-1.5c0.03173,-2.09964 -0.57561,-4.37317 -0.98234,-6.41267c-0.7618,-3.82001 -0.7521,-8.13208 -1.10717,-12.0379c-0.17069,-1.87757 -0.04038,-4.05161 -0.39043,-5.87711c-0.45893,-2.39329 -3.0147,-4.98574 -4.42349,-6.81181c-1.76934,-2.29342 -2.80569,-4.77356 -4.50493,-6.86102c-2.62875,5.64225 -1.90593,12.90432 -2.59279,19.04199c0.00437,5.55917 0.04186,11.03485 -0.5025,16.53243c-0.23151,2.33803 0.05904,4.51404 -0.4539,6.8318l0.52421,1.0391c0.44078,2.88223 1.94508,5.53701 2.42365,8.43506c1.02626,6.21455 2.97398,12.69606 3.02933,19.07144c0.06213,7.79943 1.81419,17.38771 6.3306,23.90538c0.19538,-0.10669 0.39975,-0.10669 0.39975,-0.10669zM412.17084,135.33541c-2.53444,4.2514 -4.28671,-1.06716 -6.43162,-2.12945c-0.03672,0.13219 -0.12237,0.26891 -0.2892,0.39404c-0.6,0.45 -1.05,-0.15 -1.05,-0.15c-5.07865,-6.77153 -7.06271,-17.08392 -7.1303,-25.48669c-0.04598,-6.3051 -2.02949,-12.68666 -3.01001,-18.84317c-0.44889,-2.81849 -1.94402,-5.41123 -2.3703,-8.21393l-0.47868,-0.91477c-0.1078,-0.12787 -0.14607,-0.27906 -0.15579,-0.40575c-0.01887,-0.12287 -0.01646,-0.27478 0.05478,-0.42084c0.53749,-2.28443 0.21559,-4.43258 0.44395,-6.73876c0.54214,-5.47495 0.49338,-10.93056 0.4975,-16.46757c0.74056,-6.71055 0.12741,-14.07705 3.03799,-20.21011c-0.06836,-0.16785 -0.09704,-0.39366 0.05769,-0.62951c0.06577,-0.12872 0.17622,-0.25649 0.36169,-0.32261c0.1779,-0.08439 0.34634,-0.07215 0.48387,-0.02763c0.21399,0.04444 0.34585,0.16248 0.42712,0.29108c2.28904,2.33529 3.32957,5.19632 5.41353,7.88299c1.56964,2.0236 4.15331,4.75216 4.6969,7.38496c0.38746,1.87659 0.24876,4.154 0.42439,6.08593c0.56309,6.19398 2.02356,12.57617 2.09567,18.58638v1.37851c2.67501,8.05509 4.35716,16.27522 4.5,24.62149c0,3.5 0,7 0,10.5l-0.49938,0.71494c0.04401,7.65248 2.3983,16.01574 -1.0798,23.12047z"></path><path d="M422.53035,132.96967l0.30508,0.35951c0.33333,0.16667 0.66667,0.33333 1,0.5c3.12637,1.59387 6.29623,4.54578 9.8369,5.44088c3.86826,0.97792 7.74008,-2.32673 11.6631,-0.44088c1.24316,0.62158 1.79903,0.80352 2.40176,1.95931c0.2905,0.55707 -0.03435,-1.26353 -0.16894,-1.87721c-0.33192,-1.51345 -0.57012,-2.95013 -0.75666,-4.49347c-0.535,-4.42632 -1.0563,-8.77223 -2.01513,-13.12595c-0.02922,-0.08181 -0.04643,-0.17823 -0.04643,-0.29186c0,-0.21655 0.06252,-0.37057 0.15147,-0.48013c0.08219,-0.10371 0.2076,-0.19322 0.39721,-0.2427c0.3086,-2.95042 1.89596,-6.14805 2.60991,-9.00387c1.96534,-7.73016 -0.15859,-15.43284 -0.15859,-23.27331v-0.5c0,-6.70635 -0.47669,-13.32762 -0.49918,-20.01529l-0.42164,-0.1493c-2.22888,-4.63661 -3.2268,-10.2155 -4.09415,-15.28623c-0.48447,-2.83232 -1.43645,-5.71065 -1.48503,-8.54918c0.01881,-1.24492 -0.28119,-2.24711 -0.51449,-3.44803c-0.1329,-0.68411 -0.44033,-2.48403 -0.84121,-1.91398c-0.50895,0.72372 -0.1443,2.5312 -0.1443,3.36201c0,2.85789 0.63199,6.49129 -0.44909,9.15046l0.36991,0.18495l-0.49273,0.98547c-0.12026,0.25368 -0.37868,0.42912 -0.67809,0.42912c-0.41421,0 -0.75,-0.33579 -0.75,-0.75v-0.86843c-0.36423,-0.75107 -0.47994,-1.62456 -0.47994,-2.45926c-0.78577,-1.49644 -1.16918,-2.9036 -1.5,-4.5c-0.12176,-0.58758 -0.83221,-0.87026 -1.18162,-1.35809c-0.53683,-0.7495 -0.60321,-1.74545 -0.81838,-2.64191c-0.46309,-1.92941 -2.3396,-3.17973 -2.98788,-4.95498c-0.46927,-1.28504 0.71972,-4.5837 -1.4545,-4.9874c-0.6608,-0.1227 -1.34565,-0.04256 -2.01213,-0.12925c-1.7226,-0.43617 -3.19052,-0.45326 -4.73593,-1.47957c-1.81194,-1.20331 -4.11174,-3.76521 -6.68533,-2.48313c-0.76848,0.38283 -0.84908,1.58785 -1.58479,2.03042c-0.91136,0.54824 -2.09755,0.35504 -3.14069,0.56234c-1.58775,0.31553 -2.78002,1.38212 -4.4229,1.50774c-0.00533,0.31127 -0.01065,0.62255 -0.01598,0.93382c-0.912,1.89717 -1.74039,4.69016 -0.86024,6.81493c0.34532,0.83365 1.17062,1.45825 1.36024,2.34044c0.25065,1.16606 0.22296,2.34575 0.5,3.5c0.26658,1.11066 1.09898,1.54463 1.68162,2.35809c1.40669,1.96397 2.34423,5.84491 2.33479,8.24032c0.78977,3.87342 1.27398,7.791 2.04243,11.5913c0.73402,3.63003 3.31213,7.10027 3.45613,10.80133l0.48502,1.00896c0,3.08576 1.0488,6.42226 1.36709,9.60513c0.40382,4.06303 0.1426,7.89443 -0.86709,11.7395c-1.15786,4.40932 0.52006,10.29664 0.52006,14.82769c0,2.26392 -0.47452,5.12358 -0.02006,7.32769c0.85595,4.15132 2.27685,8.04532 3.66245,12.03595c0.08664,0.05473 0.13794,0.10603 0.13794,0.10603zM448.48074,135.72698c0.13336,1.10913 1.50541,4.69705 0.65727,5.66732c-1.62241,1.85604 -2.93421,-0.45388 -4.4734,-1.22348c-3.49827,-1.8429 -7.6561,1.47195 -11.3369,0.55912c-3.67594,-0.91163 -6.88659,-3.95455 -10.14371,-5.54964c0.00919,0.0275 0.01837,0.05502 0.02754,0.08253c0,0 0.23717,0.71151 -0.47434,0.94868c-0.71151,0.23717 -0.94868,-0.47434 -0.94868,-0.47434c-1.627,-4.881 -3.54033,-9.53895 -4.51842,-14.56486c-0.45795,-2.35315 -0.02006,-5.26682 -0.02006,-7.67231c0,-4.74907 -1.59418,-10.51811 -0.47994,-15.17231c0.89088,-3.7212 1.23091,-7.30591 0.8344,-11.24561c-0.31225,-3.12249 -1.3344,-6.38579 -1.3344,-9.40976l-0.37081,-0.70389c-0.06994,-0.09971 -0.10711,-0.20884 -0.12686,-0.29666c-0.02106,-0.08515 -0.03637,-0.19579 -0.02052,-0.31285c0.00856,-3.471 -2.7326,-7.13888 -3.43802,-10.56841c-0.7882,-3.83195 -1.28986,-7.79872 -2.0602,-11.7166c-0.00751,-2.20924 -0.95888,-3.36882 -1.48359,-5.40159c-0.17557,-0.68016 -0.08589,-1.49169 -0.52327,-2.04138c-0.7654,-0.96194 -1.63449,-1.63456 -1.97673,-2.95862c-0.29937,-1.1582 -0.28307,-2.31061 -0.5,-3.5c-0.15068,-0.82615 -0.99937,-1.37307 -1.30386,-2.15571c-0.91103,-2.34166 -0.30059,-5.59242 0.80386,-7.68892c-0.00669,-0.2759 -0.01338,-0.55179 -0.02006,-0.82769l0.54006,-0.77318c0.07924,-0.24309 0.26221,-0.36225 0.42254,-0.42066c0.12006,-0.05595 0.27565,-0.09565 0.44586,-0.05644c1.50478,-0.04153 2.71291,-1.17595 4.17272,-1.48048c0.89174,-0.18602 1.92344,0.08101 2.70536,-0.38634c0.73206,-0.43755 0.80664,-1.63889 1.56916,-2.0209c3.23299,-1.61967 5.97362,0.94927 8.31467,2.51687c1.34629,0.9015 2.64687,0.87071 4.1745,1.24804c2.32643,0.30408 3.97172,0.52598 4.63507,3.20076c0.21354,0.86104 -0.31778,2.14545 -0.01212,2.95498c0.67324,1.78303 2.50021,3.06458 3.01212,5.04502c0.42708,1.65226 1.5506,2.39861 2,4c0.32777,1.16797 0.59438,2.25785 1.01941,3.37754c-0.00375,-2.40157 -0.02152,-4.80398 0.00066,-7.20523c0.00801,-0.86747 -0.14232,-2.08058 0.8557,-2.63799c2.95644,-1.65122 3.62552,5.07273 3.6443,6.63799c-0.06524,2.69151 1.00483,5.60126 1.46366,8.29687c0.64095,3.76561 1.38775,7.09971 2.82014,10.68652c0.48862,1.22354 0.4651,2.56657 0.94614,3.76679c0.00663,-0.00012 0.01332,-0.00018 0.02007,-0.00018c0.26047,0 0.43048,0.09046 0.54145,0.20855c0.11809,0.11097 0.20855,0.28098 0.20855,0.54145c0,6.85216 0.5,13.63171 0.5,20.5v0.5c0,7.9933 2.05864,15.73935 0.1138,23.63712c-0.73463,2.93852 -2.56874,6.40662 -2.61402,9.38075l-0.42373,0.24823c1.03333,4.78699 1.56965,9.59545 2.15467,14.46089z"></path><path d="M421.25002,97c0,-0.41421 0.33579,-0.75 0.75,-0.75c0.41421,0 0.75,0.33579 0.75,0.75c0,0.41421 -0.33579,0.75 -0.75,0.75c-0.41421,0 -0.75,-0.33579 -0.75,-0.75z"></path><path d="M438.25002,95.5c0,-0.41421 0.33579,-0.75 0.75,-0.75c0.41421,0 0.75,0.33579 0.75,0.75c0,0.41421 -0.33579,0.75 -0.75,0.75c-0.41421,0 -0.75,-0.33579 -0.75,-0.75z"></path><path d="M436.96969,99.46967c0.53033,-0.53033 1.06066,0 1.06066,0l0.64112,0.91787c1.2827,-0.70826 2.41177,-1.62095 3.28694,-2.79372c-0.24058,-0.48115 -0.46263,-0.92527 -0.6292,-1.25841c0,0 -0.33541,-0.67082 0.33541,-1.00623c0.67082,-0.33541 1.00623,0.33541 1.00623,0.33541c0.06963,0.13927 0.13927,0.27853 0.2089,0.4178c0.11665,-0.16794 0.43521,-0.51345 0.95569,-0.25321c0.67082,0.33541 0.33541,1.00623 0.33541,1.00623c-0.15129,0.29676 -0.31369,0.58204 -0.48646,0.85626c0.16215,0.32431 0.32431,0.64861 0.48646,0.97292l0.5,1c0,0 0.33541,0.67082 -0.33541,1.00623c-0.67082,0.33541 -1.00623,-0.33541 -1.00623,-0.33541c-0.17105,-0.34211 -0.40063,-0.80126 -0.64868,-1.29736c-0.98959,1.13094 -2.18739,2.02619 -3.51489,2.73185c0.31109,0.43616 0.72714,0.84925 1.00521,1.39469c0,0 0.33541,0.67082 -0.33541,1.00623c-0.67082,0.33541 -1.00623,-0.33541 -1.00623,-0.33541c-0.31039,-0.63614 -0.65182,-1.04653 -0.93798,-1.46052c-0.87652,0.37057 -1.79428,0.6725 -2.73402,0.91708c0.35039,0.61397 0.69392,1.23317 1.01364,1.87261c0,0 0.33541,0.67082 -0.33541,1.00623c-0.67082,0.33541 -1.00623,-0.33541 -1.00623,-0.33541c-0.37632,-0.75264 -0.78551,-1.47686 -1.20016,-2.19762c-1.11301,0.21651 -2.24178,0.36376 -3.3561,0.45948c-0.03439,0.93372 -0.17264,1.84477 -0.6021,2.73814c0,0 -0.33541,0.67082 -1.00623,0.33541c-0.67082,-0.33541 -0.33541,-1.00623 -0.33541,-1.00623c0.31919,-0.6059 0.43972,-1.27628 0.47429,-1.96893c-0.78585,0.03841 -1.55738,0.05434 -2.30347,0.05434c-1.1937,0 -2.00967,0.08526 -2.79925,-0.1446c-0.19492,0.3606 -0.36287,0.73491 -0.48924,1.13178c0,0 -0.23717,0.71151 -0.94868,0.47434c-0.71151,-0.23717 -0.47434,-0.94868 -0.47434,-0.94868c0.16718,-0.48401 0.37907,-0.92993 0.61811,-1.35489c-0.14083,-0.11116 -0.28596,-0.23644 -0.43693,-0.37761l0.03033,0.21967c0,0 -0.75,0 -0.75,-0.75c0,-0.75 0.75,-0.75 0.75,-0.75l1.03033,0.21967c0.0591,0.06541 0.11776,0.12592 0.17609,0.18186c0.55414,-0.80252 1.14534,-1.59124 1.63187,-2.50457l-0.08829,-0.14695c0,0 0,-0.75 0.75,-0.75c0.75,0 0.75,0.75 0.75,0.75l-0.08829,0.85305c-0.46561,0.87139 -1.06754,1.6463 -1.62355,2.43499c0.55842,0.06082 1.17771,-0.03804 1.96184,-0.03804c0.7309,0 1.49855,-0.01416 2.2873,-0.05115c-0.01769,-0.40488 -0.0373,-0.80719 -0.0373,-1.19885v-0.5c0,0 0,-0.75 0.75,-0.75c0.75,0 0.75,0.75 0.75,0.75v0.5c0,0.37122 0.00948,0.73854 0.01821,1.10221c0.85394,-0.07231 1.72064,-0.17604 2.58168,-0.32142c-0.17331,-0.30645 -0.34453,-0.61508 -0.5116,-0.92775l-0.08829,-0.85305c0,0 0,-0.75 0.75,-0.75c0.75,0 0.75,0.75 0.75,0.75l-0.08829,0.14695c0.23837,0.44747 0.4855,0.88676 0.73532,1.32325c1.00429,-0.23616 1.98505,-0.53944 2.91166,-0.92684c-0.02973,-0.16433 -0.04984,-0.344 -0.05868,-0.54337l-0.28033,0.03033c0,0 -0.53033,-0.53033 0,-1.06066z"></path></g><path d="M401.13693,13.14394c0.33541,0.67082 -0.33541,1.00623 -0.33541,1.00623l-1,0.5c-2.35451,1.13185 -6.77094,1.8573 -9.85864,1.41892c-0.00381,0.00187 -0.00764,0.00374 -0.01145,0.0056l-0.93498,0.93499c-0.13572,0.13573 -0.32322,0.21967 -0.53033,0.21967c-0.41422,0 -0.75,-0.33579 -0.75,-0.75c0,-0.2071 0.08395,-0.3946 0.21967,-0.53033v0l1,-1l0.02461,0.02461l0.06718,-0.10272c0.04757,-0.02426 0.09521,-0.04866 0.14292,-0.07324c0.00285,-0.00375 0.00571,-0.0075 0.0086,-0.01123c0.16984,-0.22012 0.40778,-0.31728 0.68097,-0.35277c2.68129,-1.44965 5.494,-3.37155 7.57571,-5.48465c3.11595,-3.06966 -1.3742,-3.01205 -3.72627,-2.26027c-3.99599,1.27722 -7.59364,3.8281 -11.44797,5.47996c0,0 -0.68936,0.29544 -0.9848,-0.39392c-0.29544,-0.68936 0.39392,-0.9848 0.39392,-0.9848c4.55717,-1.95307 9.17759,-5.59417 14.22154,-6.05699c4.10276,-0.37645 5.33608,2.51012 2.60423,5.27668c-1.5405,1.52118 -3.42436,3.00369 -5.37791,4.25863c2.07075,-0.17578 4.11976,0.03715 6.01217,-0.95978l1,-0.5c0,0 0.67082,-0.33541 1.00623,0.33541z"></path><path d="M410.93578,8.00968c-0.53033,-0.53033 0,-1.06066 0,-1.06066l0.69492,-0.64049c3.19813,-1.56046 1.78404,-3.98969 -0.63426,-1.79885c-1.30967,1.18648 0.21472,6.06952 0.21967,7.46967c0,0 0,0.75 -0.75,0.75c-0.75,0 -0.75,-0.75 -0.75,-0.75c0.01336,-3.34788 -2.29424,-8.64371 2.57768,-9.72994c4.75689,-1.06059 2.44,4.16074 0.00772,5.40076l-0.30508,0.35951c0,0 -0.53033,0.53033 -1.06066,0z"></path><path d="M426.96611,8.72935c-0.75,0 -0.75,-0.75 -0.75,-0.75l0.10942,-0.10994c-0.23624,-0.39361 -1.42181,-4.01374 -2.23928,-3.64975c-1.56928,0.69874 -2.50348,2.84365 -2.89253,4.44159c0,0 -0.1819,0.72761 -0.90951,0.5457c-0.03042,-0.0076 -0.05926,-0.01617 -0.08659,-0.02559c-0.04201,0.19342 -0.16901,0.40105 -0.49435,0.5095c-0.71151,0.23717 -0.94868,-0.47434 -0.94868,-0.47434c-0.91089,-2.74303 -1.45193,-5.18837 -1.52895,-8.02767c-0.21936,-0.06665 -0.50953,-0.24299 -0.50953,-0.70949c0,-0.75 0.75,-0.75 0.75,-0.75l1.25,0.75c0,2.65582 0.41016,4.89205 1.16212,7.33238c0.73796,-2.32867 2.88122,-6.22551 5.52641,-4.44081c1.47901,0.99789 1.35068,2.34411 2.20205,3.71836l0.10942,0.89007c0,0 0,0.75 -0.75,0.75z"></path></g><g fill="#b6b7ba" fill-rule="nonzero" stroke="none" stroke-width="0.5" stroke-linecap="butt" stroke-linejoin="miter"><path d="M285.73661,8.50968c-0.53033,-0.53033 0,-1.06066 0,-1.06066l0.35951,-0.30508c0.94779,-1.89558 1.57697,-3.52602 2.80135,-4.91274l-0.22152,-0.22152l1.06066,-1.06066l0.25094,0.25094c0.17801,-0.14079 0.36639,-0.27863 0.56641,-0.41352l0.1895,0.69291h0.27348v1c0,7.00636 0.0614,13.95907 0.49854,20.95322c0,0 0.04678,0.74854 -0.70175,0.79532c-0.74854,0.04678 -0.79532,-0.70175 -0.79532,-0.70175c-0.4137,-6.61909 -0.49299,-13.20153 -0.50077,-19.82659c-0.56054,1.42147 -1.41515,2.78578 -2.07987,4.11521l-0.64049,0.69492c0,0 -0.53033,0.53033 -1.06066,0z"></path><path d="M302.71611,14.47935c0,-0.75 0.75,-0.75 0.75,-0.75l0.71299,0.05709c0.92287,-0.99578 2.54091,-1.60627 2.5389,-3.25393c-0.00359,-2.94007 -4.13995,-1.88357 -4.52195,0.11915c-0.4001,2.09756 0.09578,4.63205 0.50549,6.6806c0,0 0.14709,0.73544 -0.58835,0.88252c-0.73543,0.14709 -0.88252,-0.58835 -0.88252,-0.58835c-0.66748,-3.33736 -1.51582,-8.26847 1.84114,-10.28508c2.00225,-1.2028 5.10728,0.90879 5.14241,3.08482c0.03976,2.4624 -1.97868,3.34996 -3.4611,4.74608l-1.28701,0.05709c0,0 -0.75,0 -0.75,-0.75z"></path><path d="M316.96611,18.22935c-0.75,0 -0.75,-0.75 -0.75,-0.75l0.00021,-0.48214c-0.01154,-0.75805 -0.15618,-1.5291 -0.44312,-2.23085c-0.27539,-0.67351 -0.6525,-1.30079 -0.97791,-1.9516c-0.28888,-0.57775 -0.57596,-2.23447 -0.93488,-1.69742c-0.67429,1.00893 -1.35131,3.79606 -1.66436,5.03433c-0.1336,0.52848 0.2876,1.68554 -0.03703,2.11469c-0.05833,0.07711 -0.12156,0.14917 -0.18881,0.2171l0.02623,0.02623l-1,1c-0.13572,0.13573 -0.32322,0.21967 -0.53033,0.21967c-0.41422,0 -0.75,-0.33579 -0.75,-0.75v-1c0,-3.58972 -0.81297,-8.19271 0.02006,-11.67231c0.19648,-0.82071 0.36782,-1.56352 0.51471,-2.29639c-0.00495,-0.85752 0.00479,-1.64486 0.4039,-2.53221c0.02174,-0.18663 0.04217,-0.37691 0.06133,-0.57171v-0.92737c0,-0.41421 0.33578,-0.75 0.75,-0.75c0.41422,0 0.75,0.33578 0.75,0.75v1.5h-0.06211c-0.00223,0.04163 -0.0046,0.0831 -0.00713,0.12443l0.04917,0.04788c-0.02118,0.04235 -0.0414,0.08431 -0.0607,0.12591c-0.06598,0.92172 -0.20437,1.77421 -0.39296,2.64949c0.0042,0.34795 0.00376,0.71711 -0.02993,1.12619c-0.27409,3.32837 -0.42774,6.60207 -0.47788,9.93825c0.28266,-0.98307 0.62735,-1.9381 0.85845,-3.10702c0.1579,-0.79864 0.07146,-2.0502 0.97878,-2.54312c2.66866,-1.44979 4.59321,5.46924 4.64409,7.12013l0.00021,0.51787c0,0 0,0.75 -0.75,0.75z"></path><g><path d="M295.28803,44.97935c0,0.75 -0.75,0.75 -0.75,0.75l-0.17668,-0.07327c-0.26522,0.12636 -0.53245,0.25157 -0.80184,0.37292c1.17561,1.37179 2.41122,2.69548 3.91705,3.84192c2.80167,2.133 7.43692,1.78833 10.61344,2.84394c1.81204,0.02754 4.74963,1.38791 6.27572,1.03455c0.61752,-0.14298 0.75067,-1.05638 1.27802,-1.40805c0.30745,-0.20503 0.77625,0.10934 1.10729,-0.05492c0.42907,-0.2129 0.77145,-0.5865 1.13238,-0.91809c-0.05724,-0.29426 -0.09029,-0.59223 -0.09536,-0.889l-0.28033,0.03033c0,0 -0.53033,-0.53033 0,-1.06066c0.53033,-0.53033 1.06066,0 1.06066,0l0.71967,1.03033c-0.00129,0.05316 -0.00101,0.10645 0.00078,0.15977c1.01508,-0.25231 1.84931,-0.38258 2.44829,-0.72421c-0.9774,-0.51032 -1.87211,-1.0587 -2.7294,-1.90523c0,0 -0.53033,-0.53033 0,-1.06066c0.53033,-0.53033 1.06066,0 1.06066,0c0.78807,0.79996 1.64685,1.29036 2.58111,1.75794c0.09122,-0.32967 0.13856,-0.73178 0.13856,-1.22761v-0.5c0,0 0,-0.75 0.75,-0.75c0.75,0 0.75,0.75 0.75,0.75v0.5c0,0.783 -0.10162,1.41898 -0.29242,1.94178l0.57275,0.52789c0,0 0.53033,0.53033 0,1.06066c-0.53033,0.53033 -1.06066,0 -1.06066,0l-0.30455,-0.35888c-0.81161,0.77435 -2.03426,1.12006 -3.51518,1.45296c0.00689,0.01345 0.01385,0.02684 0.02087,0.04018c0,0 0.33541,0.67082 -0.33541,1.00623c-0.67082,0.33541 -1.00623,-0.33541 -1.00623,-0.33541c-0.01108,-0.02306 -0.02203,-0.0462 -0.03285,-0.06943c-0.24093,0.29245 -0.44154,0.64098 -1.00932,0.92693c-0.26627,0.1341 -0.64462,-0.22025 -0.89271,-0.05492c-0.6505,0.43348 -0.96522,1.39605 -1.72198,1.59195c-1.75496,0.45429 -4.89132,-0.95572 -6.87823,-1.01676c-3.43061,-1.14706 -8.16602,-0.83201 -11.23261,-3.10474c-1.74912,-1.29632 -3.13496,-2.86538 -4.47829,-4.4704c-0.99531,0.35695 -2.02111,0.60279 -3.08318,0.61197c0,0 -0.75,0 -0.75,-0.75c0,-0.75 0.75,-0.75 0.75,-0.75c0.69586,0.00766 1.3876,-0.12552 2.06514,-0.33496c-0.5082,-0.60878 -1.02195,-1.21411 -1.55867,-1.80316c-0.47622,0.07942 -0.96923,0.13811 -1.50648,0.13811c0,0 -0.75,0 -0.75,-0.75c0,-0.75 0.75,-0.75 0.75,-0.75c0.0971,0 0.19266,-0.00252 0.28689,-0.00717c-0.08087,-0.20272 -0.10244,-0.48794 0.18278,-0.77316c0.53033,-0.53033 1.06066,0 1.06066,0c0.167,0.16912 0.33114,0.33982 0.49287,0.51181c0.55002,-0.10676 1.09604,-0.19922 1.68979,-0.17439l0.75668,-0.83742c0,0 0.53033,-0.53033 1.06066,0c0.53033,0.53033 0,1.06066 0,1.06066l-1.24332,1.16258c-0.37644,0.0125 -0.73336,0.05334 -1.08153,0.10761c0.44558,0.51706 0.88004,1.03938 1.31445,1.56014c0.39422,-0.17322 0.78055,-0.35713 1.15675,-0.5374l0.82332,-0.07327c0,0 0.75,0 0.75,0.75z"></path><path d="M298.78803,44.97935c0,-0.41421 0.33579,-0.75 0.75,-0.75c0.41421,0 0.75,0.33579 0.75,0.75c0,0.41421 -0.33579,0.75 -0.75,0.75c-0.41421,0 -0.75,-0.33579 -0.75,-0.75z"></path><path d="M309.78803,45.97935c0,-0.41421 0.33579,-0.75 0.75,-0.75c0.41421,0 0.75,0.33579 0.75,0.75c0,0.41421 -0.33579,0.75 -0.75,0.75c-0.41421,0 -0.75,-0.33579 -0.75,-0.75z"></path><path d="M321.43572,66.31556h1c2.62895,0 6.70922,3.29593 9.21299,2.05709c0.52025,-0.25741 1.8035,-2.13458 2.0941,-2.5941c0.1786,-0.28242 0.28989,-1.00033 -0.04426,-1.00147c-0.62954,-0.00216 -1.02312,0.74567 -1.59051,1.01842c-1.97718,-0.03965 -1.73234,-0.88634 -3.38965,-1.51212c-2.14943,-0.81159 -4.8464,0.00044 -7.1066,-0.55144c-3.77501,-0.92176 -6.12138,-2.30051 -9.51147,-3.99556c0,0 -0.60049,-0.30025 -0.38112,-0.90074c-1.08629,0.13464 -2.15796,0.24295 -3.21096,0.25987c1.26923,0.49516 2.43492,1.16085 3.7629,1.79923c2.08013,1.04007 4.78194,1.67745 6.6209,3.07561c0.84158,0.63985 1.40537,1.63639 1.98426,2.57135c0.2222,-0.22613 0.55943,-0.22613 0.55943,-0.22613zM317.60803,61.33562c1.48931,0.28324 2.84606,0.55082 4.33602,0.93358c2.2825,0.58636 4.99843,-0.22871 7.209,0.57854c1.0788,0.39395 1.5345,1.54319 2.61035,1.48788c0.47574,-0.25062 2.0358,-1.12702 2.40949,-0.98158c2.8995,1.12857 -0.55506,5.703 -1.95016,6.40442c-3.04496,1.53095 -6.77468,-1.94291 -9.78701,-1.94291h-0.66907c0.06487,0.07589 0.13124,0.14925 0.1994,0.21967c2.40419,2.48401 7.34986,2.65003 8.68749,6.31299c0.33041,0.90478 0.02367,1.9265 0.01212,2.88965c-0.16647,0.3463 -1.0576,2.28878 -1.33564,2.46567c-1.41445,0.89991 -2.99061,-0.50214 -4.11164,-0.92017c-3.79675,-1.4158 -6.6857,-4.27974 -10.17696,-6.57983c-0.90071,-0.5934 -2.2062,-0.57918 -3.25608,-0.89906c-0.23645,-0.03662 -0.37966,-0.15926 -0.4664,-0.29439c-0.09952,-0.12347 -0.17006,-0.29535 -0.13323,-0.52684v-0.91771c0,-0.42261 0.32325,-3.14253 -0.1443,-3.36201c-0.65047,-0.30535 -2.0155,-0.21742 -2.77802,-0.40805c-1.16741,-0.29185 -2.33134,-0.86935 -3.53458,-1.21034c0.81696,2.23565 0.47994,4.93267 0.45799,7.71022l0.08432,0.09936c1.82115,0.92845 3.43201,2.92407 3.89453,4.99851c0.28047,1.25795 -0.45983,1.90679 -0.48031,3.05721c0.0451,0.21532 -0.01683,0.3864 -0.10543,0.51324c-0.07463,0.13746 -0.2019,0.27077 -0.41895,0.32564l-1.05293,0.50616c-3.38376,0.0406 -7.22961,0.52483 -10.45933,-0.53703c-2.48783,-1.24679 -7.59645,-5.54732 -3.60729,-8.3309c0.87019,-0.60721 2.04053,0.1866 2.70139,-1.14902c0.25336,-0.51206 -0.05709,-1.14167 -0.05709,-1.71299c0,-0.99012 0.1263,-2.14093 0.12687,-3.25728c-0.62687,-0.07723 -0.62687,-0.74272 -0.62687,-0.74272l0.02006,-0.82769c-0.24884,-0.49767 0.11119,-1.26756 -0.30039,-1.64198c-0.17967,-0.16346 -0.47315,0.25163 -0.70572,0.18156c-0.32387,-0.09759 -0.89921,-0.35427 -1.51395,-0.67507v0.96318c-0.05223,3.05171 -2.48007,3.73583 -5.1761,3.74635c-5.40156,1.10135 -11.10113,0.09172 -16.40159,1.48359c-1.25113,0.32854 -3.62021,1.13654 -4.95933,0.46297c-2.42197,-1.21824 -1.12723,-2.55429 -0.3082,-4.14922c2.94204,-2.66554 6.83105,-3.53971 10.76753,-2.77363c1.28496,0.25007 2.33669,0.75233 3.77572,0.46545c2.48545,-0.4955 2.44246,-2.49373 4.66936,-3.3912l0.21179,-0.17972c1.02506,-1.91238 3.61037,-4.07211 5.56697,-5.18691c-0.12344,-0.07289 -0.2424,-0.14335 -0.35633,-0.21067c-6.14889,-3.63299 -10.64874,-9.61966 -8.76564,-17.09771c1.73432,-2.88729 4.02773,-4.51574 6.29783,-6.78584c0.62888,-0.62888 0.88265,-1.63502 1.63603,-2.10766c3.08573,-1.93586 7.42953,-2.88812 10.80998,-4.37043l0.40623,-0.81246c0.12026,-0.25368 0.37868,-0.42912 0.67809,-0.42912c0.41421,0 0.75,0.33579 0.75,0.75v1h-0.05037c0.42177,1.58674 0.69984,3.18679 1.01354,4.79408c0.04637,0.23758 0.04413,2.64013 0.03683,2.70592c-0.01907,0.17178 -0.36241,0.37222 -0.21967,0.46967c0.5965,0.40723 1.46027,0.10377 2.13751,0.35477c3.58052,1.32703 7.31511,1.77683 11.06749,2.46344l0.104,0.05118c0.24789,-1.91975 0.91856,-3.83625 0.91067,-5.83905v-1c0,-0.41421 0.33579,-0.75 0.75,-0.75c0.26446,0 0.49695,0.13688 0.63049,0.34365l0.70165,1.05247c3.75514,3.26652 9.30921,8.20337 6.8978,13.02619l0.01268,0.5232c1.27308,1.42329 1.51106,3.00061 2.6491,4.53433c0.48149,0.6489 1.3881,1.33263 1.35828,2.27015c-0.04904,1.542 -1.80617,2.11047 -2.71967,3.03033c-3.10832,3.12994 -4.87137,5.71967 -9.53033,5.71967c-1.62674,0 -3.23902,0.20249 -4.8247,0.41193c1.42981,0.87276 2.83001,2.39677 4.39467,2.69434zM282.60723,63.83526c0.33156,0.07757 0.57848,0.3751 0.57848,0.7303c0,0.41421 -0.33579,0.75 -0.75,0.75c-0.41421,0 -0.75,-0.33579 -0.75,-0.75c0,-0.04492 0.00395,-0.08891 0.01152,-0.13166c-0.30369,0.14511 -0.65044,0.2636 -1.0556,0.34483c-1.60484,0.32179 -2.92385,-0.18336 -4.37823,-0.48324c-3.31018,-0.68251 -6.71416,0.05374 -9.23247,2.22637c-0.23589,0.48863 -1.40854,1.61933 -0.3082,1.85078c1.4196,0.2986 2.76899,-0.23258 4.04067,-0.53703c2.2305,-0.53399 4.76886,-0.46585 7,-1c3.01916,-0.7228 6.47635,0.09746 9.59841,-0.51641c1.80255,0.00748 3.8762,-0.09609 3.8239,-2.25365v-1c0,0 0,-0.42657 0.3217,-0.6363c-0.58576,-0.36908 -1.07182,-0.74131 -1.23713,-1.0177c-0.59068,-0.98765 0.48165,-3.88136 1.16617,-5.45875c-0.36764,0.31637 -0.61633,0.80037 -0.97042,1.14309c-1.31461,1.2724 -3.06015,1.51502 -3.85951,3.30508l-0.52273,0.56715c-0.07435,0.10805 -0.17303,0.18389 -0.25505,0.23339c-0.07578,0.04795 -0.17874,0.09864 -0.29814,0.11983c-1.40897,0.47126 -1.90657,1.63947 -2.92338,2.51392zM303.18572,59.06556c0,-0.61577 0.50557,-0.72598 0.68653,-0.7457c-1.12509,-0.46543 -2.21799,-1.17735 -3.27272,-2.23207l-0.89688,-0.43761c0,0 -0.67082,-0.33541 -0.33541,-1.00623c0.33541,-0.67082 1.00623,-0.33541 1.00623,-0.33541l1.10312,0.56239c4.81687,4.81687 10.61558,1.85843 16.56147,1.85843c4.22627,0 5.59953,-2.42845 8.46967,-5.28033c0.14431,-0.14339 2.31002,-1.63584 2.28033,-1.96967c-0.02335,-0.26253 -1.02933,-1.3304 -1.05737,-1.36893c-1.11261,-1.52889 -1.3167,-3.13763 -2.61401,-4.49032c-0.14626,-0.09261 -0.22742,-0.22971 -0.27246,-0.35335c-0.0574,-0.12318 -0.0977,-0.28375 -0.05322,-0.45916l0.01712,-1.00056c1.6517,-3.3034 -1.91848,-7.6357 -4.27163,-9.77007c-0.69939,-0.63436 -1.37947,-0.9541 -1.81382,-1.50022c-0.22259,1.95846 -0.93674,3.90982 -0.93667,5.77163c0.03015,0.12669 0.0236,0.27745 -0.05192,0.4523c-0.04639,0.13028 -0.13266,0.27669 -0.29308,0.37065c-0.15579,0.10146 -0.32532,0.11315 -0.46259,0.09638c-0.18855,-0.01056 -0.32561,-0.07118 -0.42523,-0.15372l-0.75045,-0.38251c-3.7729,-0.63613 -7.54095,-1.12254 -11.12352,-2.48319c-0.86047,-0.3268 -2.04468,-0.02457 -2.67148,-0.6986c-0.73159,-0.78671 -0.03114,-2.98936 -0.23416,-3.97836c-0.17734,-0.86388 -0.85888,-2.89037 -0.83353,-4.21017c-3.38133,1.59951 -7.34382,2.45105 -10.50768,4.29619c-0.67168,0.39172 -0.81415,1.34253 -1.36397,1.89234c-2.11972,2.11972 -4.33319,3.64965 -5.97456,6.30373c-1.15886,4.68014 0.71987,8.96616 3.89114,12.15905c0.00736,-0.00781 0.01494,-0.01563 0.02276,-0.02344c0.53033,-0.53033 1.06066,0 1.06066,0c2.73223,2.74715 6.23255,4.03276 9.40776,6.09224l0.09224,-0.09224l1,1v0c0.13572,0.13572 0.21967,0.32322 0.21967,0.53033c0,0.41421 -0.33579,0.75 -0.75,0.75c-0.19233,0 -0.36776,-0.0724 -0.50051,-0.19143l-0.72036,-0.63991c-0.26237,-0.17463 -0.52673,-0.34372 -0.79255,-0.50849c-0.93489,-0.18693 -1.93807,-0.59899 -2.8856,-1.06965c-0.0174,0.05085 -0.03252,0.08109 -0.03252,0.08109c-0.29407,0.55822 -1.81399,4.40327 -1.5054,4.8186c0.88553,1.19182 3.53106,0.95632 4.36491,1.81566c0.08884,0.09155 0.15809,0.19395 0.21308,0.30437c0.28494,0.10561 0.42741,0.39055 0.42741,0.39055c0.98662,2.05241 0.57918,4.57565 0.57918,6.83541c0,0.28287 0.01477,2.14408 -0.05709,2.28701c-0.94214,1.87386 -2.12308,1.14028 -3.29861,1.85098c-2.70185,1.63346 2.13289,5.041 3.39271,5.6691c2.90789,0.98592 6.48442,0.41679 9.54067,0.46297l0.43494,-0.22913c0.09417,-2.59139 0.49635,-4.86028 -2.59803,-6.37012l-0.55544,-0.51194c-0.16566,-0.09217 -0.25491,-0.2395 -0.30299,-0.37149c-0.0564,-0.12103 -0.09629,-0.27816 -0.05547,-0.44999c0.02388,-2.86227 0.65331,-5.85427 -0.69126,-8.0877c-0.0198,-0.00003 -0.03961,0.00007 -0.05943,0.00029c0,0 -0.75,0 -0.75,-0.75c0,-0.0881 0.01035,-0.16586 0.02862,-0.23447c-0.38936,-0.38059 -0.86686,-0.7279 -1.45093,-1.03559l-0.82769,0.02006c0,0 -0.75,0 -0.75,-0.75c0,-0.75 0.75,-0.75 0.75,-0.75l1.17231,0.02006c1.19853,0.57615 2.05952,1.26544 2.6753,2.04394c1.68463,0.2346 3.21029,1.05245 4.8247,1.45606c0.70938,0.17734 2.664,0.16955 3.22198,0.59195c1.31225,0.99337 0.8557,3.2442 0.8557,4.63799v0.4393c1.09631,0.27792 2.12601,0.29259 3.1443,0.92271c3.42106,2.11697 6.16663,5.07623 9.82304,6.42017c0.35806,0.13161 2.21804,1.58487 2.88836,1.07983c0.44513,-0.33537 0.4046,-1.04124 0.66436,-1.53433c-0.0772,-5.10847 -5.19652,-4.76479 -8.30039,-7.79736c-1.08381,-1.05891 -1.65638,-2.99905 -2.92598,-3.93511c-1.78207,-1.3139 -4.37886,-1.92428 -6.3791,-2.92439c-2.39996,-1.2643 -4.15533,-2.42082 -7.16459,-2.42082h-0.5c0,0 -0.75,0 -0.75,-0.75z"></path><path d="M336.34112,62.30907c0,-0.75 0.75,-0.75 0.75,-0.75h1c2.55019,0 6.02855,0.74566 7.22994,3.07769c0,3.05333 -3.13983,5.88976 -2.5,9c0.21228,1.03189 1.2379,2.0822 1.74158,2.94349c1.30874,2.23801 2.64379,8.46813 -0.07721,10.36681c-0.62859,0.43862 -1.53641,0.24916 -2.22198,0.59195c-2.92245,0.03283 -5.73974,0.78823 -8.64388,1.01824c-2.40091,0.19015 -4.95178,-0.21291 -7.30481,0.46771c-1.50194,0.43444 -3.0172,1.16597 -4.57813,1.51987c-1.21967,0.27653 -2.25372,0.06102 -3.45045,0.34405l-0.02423,0.25561c-1.27632,2.14097 -3.83896,1.41459 -6.17082,1.41459c-4.1859,0 -9.11066,0.49449 -13.18196,-0.52241c-1.86864,-0.46674 -3.28196,-2.32679 -5.03538,-3.00977c-0.71775,-0.27957 -2.51008,0.04076 -3.24921,-0.02738c-2.4943,-0.22994 -4.93024,-0.92602 -7.42745,-0.9993c-3.48082,-0.59734 -9.12308,-0.79686 -11.80002,-3.4085c-1.49266,-1.45625 -2.18736,-3.68638 -4.02808,-4.80999c-2.92289,-1.78417 -6.02521,-1.81162 -9.02306,-3.24295c-3.52276,-0.03874 -12.0485,-2.99668 -7.28517,-7.76002c0.93816,-0.93816 2.23772,-0.93072 3.35802,-1.19961c1.75108,-0.42028 3.21239,-2.12863 4.8369,-2.94088c0,0 0.67082,-0.33541 1.00623,0.33541c0.33541,0.67082 -0.33541,1.00623 -0.33541,1.00623c-1.77435,0.88717 -3.22104,2.55713 -5.1631,3.05912c-0.83409,0.2156 -1.92336,0.08176 -2.64198,0.80039c-3.62115,3.62115 4.48966,5.19345 6.56049,5.23747c3.1842,1.4476 6.42624,1.537 9.49785,3.44284c1.96709,1.22052 2.72709,3.41185 4.26945,5.00288c2.25797,2.32921 7.90153,2.46321 10.89869,2.98521c2.49418,0.0778 4.92203,0.76642 7.41228,0.99785c0.95131,0.08841 2.64712,-0.23556 3.54824,0.0856c1.72325,0.61415 3.1782,2.57282 4.96462,2.99023c3.98608,0.93138 8.72818,0.47759 12.81804,0.47759c1.23323,0 4.27523,0.61976 4.79426,-0.49597c-0.00195,-0.00556 -0.00388,-0.01118 -0.00577,-0.01686c-0.10385,-0.31154 -0.02581,-0.53215 0.09474,-0.68172c0.08661,-0.13493 0.22953,-0.25741 0.46536,-0.29423c1.41415,-0.43654 2.63707,-0.17685 4.00592,-0.49698c6.53891,-1.52925 13.55711,-3.08531 20.47318,-2.99418c0.54388,-0.27194 1.25764,-0.09345 1.77802,-0.40805c0.90417,-0.54663 0.63889,-3.0991 0.6443,-3.86201c0.02524,-3.55684 -3.40457,-6.10321 -2.99438,-9.59164c0.29087,-2.47365 2.51444,-4.8144 2.51444,-7.23605c-0.70144,-1.49908 -4.1612,-1.92231 -5.77006,-1.92231h-1c0,0 -0.75,0 -0.75,-0.75z"></path></g></g><g fill-rule="nonzero" stroke-linejoin="miter"><path d="M336.23045,300.55922c0.2772,1.61072 1.35809,6.24268 0.59846,7.34793c-0.92837,1.35076 -2.9675,1.08153 -4.45487,1.61076c-1.06502,0.37896 -2.0929,0.93052 -3.20217,1.11376c-6.48046,1.07046 -12.8939,0.72679 -19.41017,2.12148l-1.19972,0.44944c0,0 -0.12873,0.04589 -0.3362,0.08422c-1.05367,1.69318 -1.23391,2.81257 -1.46288,5.086c-0.12214,1.21264 0.27681,2.57006 -0.25541,3.64875c-0.79543,1.61215 -3.92612,3.25389 -5.3411,4.23134c-5.14215,3.55212 -10.63226,2.47677 -16.40405,0.93362c-5.02763,-0.90612 -9.79538,-2.95587 -14.21574,-5.63404c-0.59166,-0.35847 -0.93914,-1.11605 -1.56576,-1.39851c-1.59371,-0.71839 -5.69527,1.81853 -7.1068,2.19724c-4.2303,1.13501 -8.44881,1.48505 -12.72033,2.18628c-1.49984,0.24622 -5.77161,1.1078 -7.33901,0.36265c-3.63997,-1.73047 -3.59101,-5.47953 -5.52758,-8.32986c-1.07209,-1.57795 -3.84614,-2.75613 -5.44418,-3.42171c-2.79309,-1.20957 -5.10348,-1.37577 -8.07126,-2.00162c-2.53132,-0.53381 -4.94959,-1.58751 -7.4785,-2.1343c-8.71764,-1.88489 -19.92233,-2.47638 -23.36923,-12.93376c-1.12521,-3.41373 -1.77215,-4.36462 -0.4348,-7.89282c0.11591,-0.3058 2.93396,-4.29399 3.28227,-4.79065c0,0 0.01884,-0.02686 0.05512,-0.07233l1.44488,-2.06656c3.01685,-2.4134 6.15024,-4.47352 9.61643,-6.02544l0.38357,-0.39121c1.52065,-1.21282 2.64149,-3.01695 4.32036,-3.96141c2.8938,-1.62794 5.97133,-0.64451 8.92599,-0.30335c3.015,0.34814 7.6211,-0.0263 10.54129,-0.97161c0.73551,-0.2381 1.4238,-0.558 2.09111,-0.91544c-0.66482,-0.30974 -1.37874,-0.97499 -1.37874,-2.40372c0,-2.6736 2.5,-2.6736 2.5,-2.6736h1c5.68911,0 11.3952,-0.08113 17.10924,-0.18018c-0.06948,-0.25748 -0.10924,-0.55211 -0.10924,-0.88926c0,-1.59189 0.88627,-2.23595 1.60343,-2.49653c0.27831,-0.11439 0.58059,-0.17708 0.89657,-0.17708c0.05332,0 0.10625,0.00179 0.15874,0.0053l0.93026,0.03108c2.34026,-0.41039 4.72347,-0.56272 7.09499,-0.56385c7.88864,1.23919 15.66362,2.8779 23.53633,3.85025c1.22561,0.07434 2.4535,0.19689 3.65595,0.39896c0.10995,0.0103 0.21993,0.02045 0.32994,0.03043c1.59132,0.14436 3.27995,0.22255 4.98141,0.23968c-0.53592,-0.54451 -1.02544,-1.46463 -0.50881,-2.84591c0.92848,-2.48238 3.24967,-1.48943 3.24967,-1.48943c5.05984,2.16449 10.21105,4.58886 15.56181,5.74262c3.83561,0.82705 7.48773,-0.11038 11.12062,1.8307c5.6177,3.00159 7.87856,10.16276 12.88909,14.159l0.39081,0.3986c0.595,0.37365 0.87554,0.93752 1.00273,1.45469c0.17531,0.4935 0.25374,1.11695 -0.01473,1.78119c-0.95758,5.49713 -2.91101,9.90839 -1.91977,15.66818z" fill="#b6b7ba" stroke="none" stroke-width="0.5" stroke-linecap="butt"></path><g><path d="M262.72241,261.91806c-12.96081,33.41054 -51.45246,24.31725 -60.823,20.58194c-21.08716,-8.40581 -12.54983,-25.9357 -1.5,-20c11.30621,6.07342 23.8411,13.7151 37.5,13.5c13.6589,-0.2151 26,-14.5 26,-14.5" fill="#b6b7ba" stroke="#8d8f95" stroke-width="4" stroke-linecap="round"></path><path d="M213.64941,271.625c1.19855,1.13703 -8.32552,0.16976 -9.32899,4.18363c-1.00347,4.01386 7.96574,7.31637 6.45399,7.31637c-0.23353,0 -11.70842,-3.07699 -14.23432,-5.29804c-2.5259,-2.22105 -5.51568,-5.27819 -5.51568,-8.45196c0,-3.45178 1.85051,-6.25 4.75,-6.25c2.89949,0 14.5,5.29822 17.875,8.5z" fill="url(#color-1)" stroke="none" stroke-width="0" stroke-linecap="butt"></path></g><path d="M276.39941,238c0,0 6.51506,4.52008 9.5,8.5c2.98494,3.97992 2.30354,6.30354 6.5,10.5c4.19646,4.19646 5.32808,6.24478 12,8c9.30708,2.44847 4.85896,7.81814 1.5,9c-3.35896,1.18186 -21.16279,1.01614 -26,-10" fill="#b6b7ba" stroke="#8d8f95" stroke-width="4" stroke-linecap="round"></path><path d="M274.57473,257.89962c0,0 16.70115,5.20115 23,11.5c2.8876,2.8876 -1.5,15 -1.5,15c0,0 15.83665,-0.46813 15,10.5c-0.27726,3.6348 -12.20489,6.81149 -18,3.5" fill="#b6b7ba" stroke="#8d8f95" stroke-width="4" stroke-linecap="round"></path><path d="M253.57473,306.89962l2.5,-16.5l-2,-13.5l-3,-12c0,0 -3.65372,-16.69249 2,-24.5c5.65372,-7.80751 17.71797,-6.1487 24,-1.5c6.28203,4.6487 1,20 1,20" fill="#b6b7ba" stroke="#8d8f95" stroke-width="4" stroke-linecap="round"></path><path d="M269.07473,270.39962l4,12v13" fill="#b6b7ba" stroke="#8d8f95" stroke-width="4" stroke-linecap="round"></path><path d="M277.07473,254.39962c0,5.79899 -3.91851,10 -8.75224,10c-4.83373,0 -8.75224,-4.20101 -8.75224,-10c0,-5.79899 -1.99002,-13.75286 8.75224,-13c14.26861,1 8.75224,7.20101 8.75224,13z" fill="url(#color-2)" stroke="none" stroke-width="0" stroke-linecap="butt"></path><path d="M240.57473,291.76594c-0.93978,6.65401 -22.69668,8.89196 -28.50064,5.57045c-6.91211,-3.95568 -5.86043,-9.51097 -3.49936,-11.73712c4.34362,-4.09541 12.66667,-4.33333 12.66667,-4.33333c0,0 7.15728,-3.26323 12.98046,-14.03754c2.48674,-4.60108 11.92726,-24.42963 13.35288,-26.46246c4.76399,-6.7931 8,-3 8,-3" fill="#b6b7ba" stroke="#8d8f95" stroke-width="4" stroke-linecap="round"></path><path d="M241.07474,291.4326c-0.17414,-5.08802 3.9003,-12.29831 6.89034,-21.40391c2.75737,-8.39704 4.44299,-18.92942 4.44299,-18.92942" fill="none" stroke="#8d8f95" stroke-width="4" stroke-linecap="round"></path><g><path d="M277.74424,163.95359l22.795,-11.93973c0,0 13.64727,18.21517 12.84365,46.5" fill="#b6b7ba" stroke="#8d8f95" stroke-width="4" stroke-linecap="round"></path><g stroke-linecap="butt"><path d="M313.89645,198.3991c0,1.14126 -0.00185,0.87029 1.25009,1.32961c18.08593,6.63542 10.16505,26.96527 -5.62044,34.06949c-19.50136,8.77654 -66.14773,-0.12659 -74.92025,-23.1558c-8.77252,-23.02921 13.78037,-47.64239 33.08978,-47.64239c43.03415,0 46.20081,19.3766 46.20081,35.39909z" fill="#b6b7ba" stroke="#8d8f95" stroke-width="4"></path><path d="M323.25592,212.75c1.53282,11.09464 -13.42511,22.75 -35.35328,22.75c-21.92817,0 -56.60626,-17.77325 -46.77511,-30.25c11.29362,-14.33277 52.75797,2.75 52.75797,2.75c0,0 26.65093,-14.93376 29.37042,4.75z" fill="url(#color-3)" stroke="none" stroke-width="0"></path></g><path d="M296.90022,207.62951c0,1.11402 -2.03022,3.31849 -4.88389,3.31849c-2.85367,0 -5.45014,-2.20447 -5.45014,-3.31849c0,-1.11402 10.33404,-1.11402 10.33404,0z" fill="#8d8f95" stroke="#8d8f95" stroke-width="2" stroke-linecap="butt"></path><path d="M258.74498,212.81338l2.71948,3" fill="none" stroke="#8d8f95" stroke-width="2" stroke-linecap="round"></path><path d="M309.05542,220.81338c0,0 -9.21559,3.95141 -19.03638,3.5c-9.82079,-0.45141 -24.47535,-5.5 -24.47535,-5.5" fill="none" stroke="#8d8f95" stroke-width="2" stroke-linecap="round"></path><path d="M261.19251,219.56338l4.07922,-4.25" fill="none" stroke="#8d8f95" stroke-width="2" stroke-linecap="round"></path><path d="M255.20965,212.31338l3.80728,-2.75" fill="none" stroke="#8d8f95" stroke-width="2" stroke-linecap="round"></path><path d="M255.75355,209.31338l-1.35974,-2" fill="none" stroke="#8d8f95" stroke-width="2" stroke-linecap="round"></path><path d="M310.68711,218.56338l1.35974,3" fill="none" stroke="#8d8f95" stroke-width="2" stroke-linecap="round"></path><path d="M313.13464,218.06338l1.90364,-2" fill="none" stroke="#8d8f95" stroke-width="2" stroke-linecap="round"></path><path d="M315.03828,212.81338l2.71948,2.75" fill="none" stroke="#8d8f95" stroke-width="2" stroke-linecap="round"></path><path d="M318.30166,209.56338l-0.5439,2.5" fill="none" stroke="#8d8f95" stroke-width="2" stroke-linecap="round"></path><path d="M285.66786,201.93838c0,5.45381 -4.89465,5.625 -9.92611,5.625c-5.03146,0 -13.18949,-0.67119 -13.18949,-6.125c0,-5.45381 8.15803,-11.375 13.18949,-11.375c5.03146,0 9.92611,6.42119 9.92611,11.875z" fill="#d9dadd" stroke="#8d8f95" stroke-width="2" stroke-linecap="butt"></path><path d="M277.78136,202.06337c0,0.55228 -0.73053,1 -1.63169,1c-0.90116,0 -1.63169,-0.44772 -1.63169,-1c0,-0.55228 0.73053,-1 1.63169,-1c0.90116,0 1.63169,0.44772 1.63169,1z" fill="#8d8f95" stroke="#8d8f95" stroke-width="2" stroke-linecap="butt"></path><path d="M304.36671,190.81338c3.13726,0 8.22404,5.66742 8.22404,10.8875c0,5.22008 -5.08677,5.8625 -8.22404,5.8625c-3.13726,0 -6.18922,-0.16385 -6.18922,-5.38393c0,-5.22008 3.05196,-11.36607 6.18922,-11.36607z" fill="#d9dadd" stroke="#8d8f95" stroke-width="2" stroke-linecap="butt"></path><path d="M307.69567,202.81338c0,0.55229 -0.73053,1 -1.63169,1c-0.90116,0 -1.63169,-0.44771 -1.63169,-1c0,-0.55229 0.73053,-1 1.63169,-1c0.90116,0 1.63169,0.44771 1.63169,1z" fill="#8d8f95" stroke="#8d8f95" stroke-width="2" stroke-linecap="butt"></path><path d="M232.63794,202.26386c-1.25872,-32.82798 29.91431,-56 29.91431,-56l24.2034,18.5" fill="#b6b7ba" stroke="#8d8f95" stroke-width="4" stroke-linecap="round"></path></g></g></g></g></svg>