<svg version="1.1" xmlns="http://www.w3.org/2000/svg" xmlns:xlink="http://www.w3.org/1999/xlink" width="444.40158" height="314.70711" viewBox="0,0,444.40158,314.70711"><g transform="translate(-33.95454,-38.37475)"><g data-paper-data="{&quot;isPaintingLayer&quot;:true}" fill="#ff0000" fill-rule="nonzero" stroke="none" stroke-width="0.5" stroke-linecap="butt" stroke-linejoin="miter" stroke-miterlimit="10" stroke-dasharray="" stroke-dashoffset="0" style="mix-blend-mode: normal"><path d="M399.25754,145.00108c0.75,0.00011 0.74989,0.75011 0.74989,0.75011l-0.00014,0.87584c-0.0514,2.59413 -1.91173,4.70363 -3.07592,7.02319c-3.01204,6.00124 -7.24658,14.09092 -14.76668,14.18964c-3.31829,-0.00107 -7.50754,0.62259 -10.70699,-0.38342c-5.22314,-1.64233 -9.26191,-5.93854 -14.87968,-5.93854c0,0 -0.60395,0 -0.72792,-0.54197c-0.97799,0.97847 -1.91304,1.92254 -2.76964,3.02114c-6.3295,8.10165 -16.28593,14.24156 -25.41086,18.76974c-4.37013,2.16864 -9.23689,4.76906 -14.09143,5.61079c-5.30694,0.92018 -11.3767,-0.80183 -16.60995,-1.6038c-11.4502,-1.41892 -17.60619,-10.77993 -23.88677,-19.51681c-2.03413,-2.82967 -4.59385,-5.55053 -6.04788,-8.74169c-1.23163,-2.70306 -2.154,-5.64803 -3.26573,-8.41437c-0.92228,-2.29494 -1.81471,-4.61499 -2.95174,-6.81217c-0.36732,-0.7098 -0.03002,-2.01938 -0.79107,-2.2634c-0.2716,-0.08709 -0.16285,0.54671 -0.24428,0.82005c-1.0714,2.17937 -1.81053,4.7633 -3.06748,6.82035c-4.04545,6.6206 -10.31758,13.01764 -16.58494,17.51096c-8.494,6.08592 -18.98181,9.86202 -29.1731,12.06321c-3.97197,0.48416 -7.99886,1.21345 -11.99201,1.45484c-6.59582,0.39873 -13.03052,-0.71524 -19.57997,-0.98056c-4.70957,-1.01925 -10.33974,-1.7974 -14.73828,-3.80058c-1.31507,-0.59891 -2.39268,-1.89396 -3.74429,-2.41349c-0.93926,-0.36103 -2.04403,-0.13454 -2.97375,-0.51947c-2.62708,-1.08768 -5.26247,-3.71617 -7.35618,-5.58615c-7.8373,-6.99982 -15.77086,-15.49633 -15.12899,-26.79352c0.09909,-1.55428 0.25768,-4.68547 0.82882,-6.1133c0.05741,-0.14354 1.88324,-2.28611 2.06,-2.49517c4.27122,-5.05177 9.60322,-6.83956 15.67829,-8.8734c0,0 0.71151,-0.23717 0.94868,0.47434c0.23717,0.71151 -0.47434,0.94868 -0.47434,0.94868c-5.80231,1.92627 -10.93368,3.60092 -15.00719,8.41884c-0.59503,0.70378 -1.46737,1.23266 -1.81388,2.08665c-0.52167,1.28565 -0.65287,4.20817 -0.72281,5.63864c-0.61713,10.80905 7.14764,18.90612 14.63062,25.58948c1.96701,1.75682 4.46801,4.29933 6.93079,5.31899c0.91816,0.38014 2.01052,0.14872 2.9381,0.50525c1.39677,0.53688 2.47976,1.83297 3.82845,2.4488c4.25877,1.94464 9.74387,2.67156 14.30567,3.67744c6.45929,0.23649 12.7943,1.36452 19.29976,0.97125c3.94031,-0.23819 7.91303,-0.96311 11.83317,-1.43671c9.96717,-2.16394 20.24331,-5.84567 28.54848,-11.80316c6.11331,-4.38258 12.23335,-10.61679 16.17896,-17.07399c1.26129,-2.06415 1.99748,-4.67021 3.08812,-6.85318c0.55386,-0.49892 0.91856,-1.55667 1.66159,-1.49677c1.11478,0.08987 2.86846,4.90491 3.25819,5.8383c1.72134,4.12252 3.11289,8.47332 4.95735,12.52135c1.40994,3.0944 3.92818,5.74393 5.90085,8.4881c6.02852,8.38622 11.88485,17.54352 22.87468,18.90654c5.06119,0.77507 11.01463,2.50172 16.14783,1.61166c4.70659,-0.81608 9.44211,-3.37303 13.68091,-5.4765c8.92411,-4.42852 18.70421,-10.42468 24.8956,-18.34955c0.95887,-1.22506 2.00627,-2.27318 3.10491,-3.37229l1.04433,-1.04444c0,0 0.5303,-0.53036 1.06066,-0.00006c0.53036,0.5303 0.00006,1.06066 0.00006,1.06066l-0.30253,0.30256c5.75723,0.10826 9.75886,4.29338 15.10532,6.00658c3.01493,0.96609 7.12136,0.31223 10.25399,0.31323c6.76195,0.11836 10.76215,-8.05582 13.42558,-13.3625c0.99478,-1.982 2.9664,-4.1687 2.91654,-6.35264l0.00013,-0.87375c0,0 0.00011,-0.75 0.75011,-0.74989z"/><path d="M175.3814,245.01405c-0.46804,0.58604 -1.05408,0.11799 -1.05408,0.11799l-0.56666,-0.45256c-2.1344,-1.70465 -3.53624,-3.46922 -5.13483,-5.67343c-2.63675,-3.9821 -5.08966,-8.03815 -7.25969,-12.22537c-4.38124,7.4796 -8.94268,14.95062 -13.60119,22.21374c-4.67783,7.29208 -10.57592,15.24996 -16.69939,21.37342c0,0 -0.53033,0.53033 -1.06066,0c-0.53033,-0.53033 0,-1.06066 0,-1.06066c6.05047,-6.05047 11.8755,-13.91765 16.49749,-21.12268c4.8214,-7.51467 9.53714,-15.25438 14.0564,-22.99444c-1.36398,-2.74552 -2.60301,-5.54959 -3.68985,-8.42794c-1.48711,-0.80815 -2.99452,-1.59703 -4.53906,-2.3693c0,0 -0.67082,-0.33541 -0.33541,-1.00623c0.33541,-0.67082 1.00623,-0.33541 1.00623,-0.33541c1.0491,0.52455 2.08174,1.05698 3.10284,1.59796c-0.46191,-1.33169 -0.89068,-2.67969 -1.28371,-4.04548c-3.04554,-10.16174 -5.58526,-20.24212 -7.71966,-30.63254c-0.05436,-0.96627 0.10268,-1.96434 -0.14563,-2.89975c-1.1399,-4.29416 -4.52333,-1.86858 -7.36769,-0.67735c-5.42084,2.27026 -9.52578,6.80283 -12.21704,11.92054c-5.29054,8.82952 -7.81495,19.53905 -8.79465,29.68659c-2.29008,8.53904 -3.09713,17.68997 -3.09713,26.54486c0,0 0,0.75 -0.75,0.75c-0.23512,0 -0.39653,-0.07371 -0.50734,-0.17491c0.13344,1.86352 0.29407,3.72598 0.45598,5.5991c2.31982,5.88673 4.67238,12.0777 8.04934,17.46614c2.07271,3.30732 4.83129,6.34488 7.19129,9.45709c7.42234,7.36424 14.65506,14.87748 23.38127,20.69428c8.727,5.81732 17.73634,11.00778 27.59366,14.59238c9.57163,3.48071 19.55296,8.5152 29.64702,9.87267c6.41179,0.86454 12.68622,2.74455 19.17577,3.19239c0.37752,0.02605 0.75614,0.04709 1.13566,0.06383c-0.09898,-1.3028 0.10244,-3.27633 0.10334,-3.89408c0.00742,-5.10251 0.04822,-10.00603 0.94542,-15.03539c1.17897,-10.45574 3.58951,-20.64835 4.86246,-31.0627c1.03675,-8.48194 1.34246,-17.07995 1.73037,-25.63779c-1.27232,-0.29763 -2.54611,-0.59478 -3.82274,-0.8856c-5.33196,-1.21462 -10.9379,-1.98894 -16.15776,-3.61881c-1.71529,-0.53559 -3.41541,-1.17053 -5.10647,-1.84755c-0.27898,0.37644 -0.55681,0.74609 -0.83374,1.10783c-3.65473,4.77396 -6.22255,10.15186 -9.50971,15.18162c-2.4591,3.76272 -5.19647,7.34217 -7.59449,11.14529c-3.9118,6.20249 -8.65957,12.70222 -13.88807,17.83455c-1.68571,1.6547 -5.28413,6.04251 -6.69589,1.43673c-0.16652,-0.54325 0.00352,-1.13639 0.00529,-1.70459c0.44083,-10.73429 3.3898,-20.54832 4.9232,-31.05928c1.27679,-8.75197 3.34005,-17.20572 4.49633,-25.93997c-2.96338,-1.28734 -5.91757,-2.59188 -8.86331,-3.9039c-3.68062,-1.64705 -6.71193,-4.46396 -10.14542,-6.54475c-0.24301,-0.14727 -0.48569,-0.29388 -0.72813,-0.43983c-0.14354,0.28881 -0.29329,0.572 -0.45169,0.84725c-0.61469,1.06812 -1.23341,2.13693 -1.85593,3.20584c2.24517,4.43113 4.81687,8.71013 7.59484,12.9076c1.5192,2.09373 2.81463,3.73984 4.83816,5.35595l0.56666,0.45256c0,0 0.58603,0.46804 0.11799,1.05408zM117.09918,217.73389c0.95607,-10.28811 3.60157,-21.21436 8.96298,-30.15417c2.83954,-5.40482 7.22744,-10.1746 12.94528,-12.56925c3.68979,-1.5453 7.9406,-3.80494 9.39686,1.67588c0.02922,0.10996 0.1712,2.86394 0.18335,3.09123c2.14742,10.30829 4.64793,20.31468 7.6714,30.40336c0.54023,1.87719 1.14909,3.72003 1.81958,5.53263c1.96461,1.07638 3.89757,2.18694 5.83535,3.3367c0.67785,-1.56061 1.29089,-3.17512 2.17648,-4.53919c1.31236,-2.02143 3.49096,-3.79794 5.05012,-5.66245c2.81979,-3.37204 5.67109,-7.43771 9.09858,-10.08374c0.79745,-0.61563 1.87069,-0.81678 2.64672,-1.45921c0.67905,-0.22836 1.36514,-0.93338 2.03716,-0.68509c1.78411,0.65918 1.66166,5.06642 1.67907,6.46412c0.09923,7.96774 0.42237,16.12284 -0.24606,24.06168c-0.11309,1.34317 -0.25432,2.67741 -0.41785,4.00471c6.3249,2.73687 12.69213,5.39024 19.10904,7.86534c2.61037,1.00686 5.21688,2.15874 7.84238,3.23552c5.56313,-7.60533 11.49811,-17.1055 19.88548,-21.23728c1.49112,-0.72361 2.70852,-1.11523 4.25717,-1.57019c0.6251,-0.18364 1.20158,-1.00077 1.80393,-0.75245c1.69173,0.69742 1.50957,5.16811 1.51216,6.53998c0.01223,6.49277 0.27613,13.05712 -0.07635,19.54001c-0.08139,1.49191 -0.15478,2.98609 -0.22446,4.48171c8.49222,1.98935 16.93773,3.91891 25.76421,3.98568c3.04071,0.023 6.08476,0.15089 9.12932,0.34209c4.14346,-5.20002 9.05053,-9.73828 15.04945,-12.80453c5.50687,-2.81168 10.57446,-5.75639 16.6184,-7.07844c2.69224,-0.5889 6.75997,-1.83533 9.39833,-0.32491c1.24482,0.71265 2.35692,2.83198 3.01454,4.02849c0.44955,4.52683 1.41892,9.01429 1.76097,13.54975c0.14986,1.98704 0.24941,3.98195 0.3294,5.98006c2.52101,0.11694 5.0411,0.23192 7.55909,0.35299c10.40377,0.50223 21.19547,-0.18857 31.51717,0.90013c2.14279,0.22749 5.62003,-0.12899 7.57768,0.64801c0.71853,0.28519 1.82162,0.54492 1.91192,1.31269c0.10854,0.92283 -3.23852,2.5039 -3.86254,3.16037c-2.06212,2.16933 -3.63162,4.81174 -5.67241,6.97508c-2.14008,2.26858 -4.11761,3.90679 -5.9407,6.51442c-1.83665,2.58484 -4.86032,3.51681 -7.18739,5.5687c-1.10201,0.9717 -1.88913,2.32931 -2.94346,3.35525c-4.30224,4.18642 -9.49021,7.58319 -14.42503,10.95405c-1.4316,0.97789 -2.86048,1.98314 -4.29433,2.99272c0.02066,0.09963 0.04143,0.19929 0.06231,0.29897c0.85781,2.3037 1.33573,4.76074 2.36352,6.97912l0.23793,0.5166c0,0 0.31376,0.68121 -0.36746,0.99497c-0.68122,0.31376 -0.99498,-0.36746 -0.99498,-0.36746l-0.23794,-0.5166c-1.02124,-2.22924 -1.53437,-4.66933 -2.36824,-6.98743c-4.3128,3.03032 -8.69107,6.03667 -13.34157,8.39675c-2.70415,1.37233 -5.38743,2.47427 -8.01905,4.02539c-4.53956,2.04829 -9.00428,4.63763 -13.63018,6.44421c-5.07466,1.98183 -10.76774,2.89886 -16.0421,4.23265c-10.19003,2.57687 -20.83103,3.78076 -31.34995,3.80863c-2.90215,0.00061 -5.86139,0.14551 -8.79045,0.11831c-0.34814,0.0736 -0.69837,0.08414 -1.03149,-0.01724c-0.74672,-0.01842 -1.4908,-0.05052 -2.23077,-0.10159c-6.52284,-0.45014 -12.82784,-2.3379 -19.27243,-3.20222c-10.20868,-1.37289 -20.28112,-6.42998 -29.95973,-9.9496c-9.97035,-3.62571 -19.08639,-8.87022 -27.91301,-14.75395c-8.83257,-5.8877 -16.18208,-13.48166 -23.67792,-20.95439c-2.41451,-3.16838 -5.21932,-6.27478 -7.33367,-9.64855c-3.45773,-5.51734 -5.92141,-11.86742 -8.23855,-17.91955c-0.38975,-4.04883 -0.71401,-8.05585 -0.80352,-12.12265l-0.01543,-0.70105c0,0 -0.0165,-0.74982 0.73332,-0.76632c0.74982,-0.0165 0.76632,0.73331 0.76632,0.73331l0.01543,0.70105c0.01977,0.89856 0.05232,1.79392 0.0948,2.68735c0.16127,-8.00239 1.00983,-16.20782 3.0918,-23.86115zM162.81958,221.28985c0.1627,-0.28271 0.31637,-0.57338 0.46361,-0.86967c-1.45274,-0.86328 -2.9013,-1.70378 -4.36213,-2.52408c0.78163,1.94425 1.63273,3.85475 2.54432,5.73674c0.4535,-0.78123 0.90492,-1.5623 1.3542,-2.34299zM320.10751,269.03281c-0.22247,-3.54534 -0.31155,-7.11033 -0.44106,-10.66841c-7.50912,-0.35157 -15.02431,-0.73105 -22.51569,-1.35446c-7.15013,-0.59501 -14.33647,-1.40625 -21.52102,-1.88178c-2.24727,2.89405 -4.2616,5.98323 -6.10445,9.11962c-2.16593,3.25656 -4.65168,6.56 -6.40198,10.06297c-2.87187,5.74763 -4.79526,12.10616 -7.46361,17.97808c-4.35582,9.58534 -8.15774,19.47211 -13.93008,28.29501c-1.48547,2.26657 -3.29844,4.13645 -5.60028,5.50384c1.85255,-0.03623 3.70445,-0.09517 5.533,-0.09555c10.39701,-0.02756 20.91254,-1.21588 30.98435,-3.76286c5.21229,-1.31809 10.84951,-2.21726 15.86419,-4.17566c4.57749,-1.78767 8.98957,-4.35829 13.48553,-6.37869c2.6313,-1.55633 5.32499,-2.65825 8.03053,-4.03129c4.76653,-2.41897 9.24491,-5.52822 13.6612,-8.63802c-2.02002,-9.97953 -2.94016,-19.76636 -3.58062,-29.9728zM319.28702,251.06464c-0.3342,-4.43139 -1.35798,-8.78711 -1.69842,-13.21991c-0.50392,-0.87922 -1.42365,-2.65244 -2.32659,-3.16936c-2.23813,-1.28129 -6.06352,-0.00783 -8.33255,0.4885c-5.90863,1.29245 -10.86786,4.19754 -16.25684,6.94903c-5.49531,2.80258 -10.0358,6.89287 -13.90404,11.59063c6.84647,0.4832 13.69269,1.24456 20.50656,1.81159c7.43048,0.61834 14.8851,0.99807 22.3337,1.34677c-0.07864,-1.937 -0.17655,-3.87085 -0.32183,-5.79723zM238.77424,244.6903c0.35332,-6.45416 0.08584,-12.99138 0.07412,-19.45552c-0.00288,-1.58919 -0.1711,-2.66259 -0.49949,-4.17808c-0.06774,-0.31261 0.27513,-0.88456 -0.03597,-0.95892c-0.35491,-0.08483 -0.45011,0.61861 -0.7854,0.76259c-1.32023,0.56691 -2.7275,0.83893 -4.0975,1.50379c-7.99886,3.81343 -13.8081,13.12642 -19.11161,20.46424c1.53743,0.60861 3.08274,1.17802 4.64048,1.66441c5.18118,1.6178 10.75115,2.38243 16.04385,3.58811c1.18873,0.27079 2.3749,0.54735 3.55969,0.82478c0.06588,-1.4067 0.13529,-2.81206 0.21185,-4.21539zM184.86133,227.02052c0.62464,-7.41882 0.25517,-14.98051 0.24325,-22.42528c-0.00203,-1.26898 0.2201,-7.35673 -1.4245,-6.01708c-0.74349,0.60444 -1.76579,0.78946 -2.52472,1.37439c-3.7079,2.85778 -6.77421,7.35981 -9.82633,11.00899c-1.21317,1.45048 -2.95884,2.79272 -3.98046,4.36632c-0.87271,1.34423 -1.47773,2.94543 -2.14698,4.49154c0.29145,0.17522 0.58318,0.35134 0.87533,0.52839c3.3724,2.04377 6.35883,4.85349 9.9783,6.45732c2.80812,1.25072 5.62392,2.49466 8.44807,3.72335c0.13839,-1.16332 0.25906,-2.33219 0.35806,-3.50795zM181.29618,258.23576c-1.5256,10.45746 -4.47278,20.2094 -4.90815,30.88719c-0.19675,5.11796 4.83828,-1.53404 6.28141,-2.94858c2.49097,-2.44164 4.09472,-5.54996 6.16539,-8.32731c1.79978,-2.41402 3.75153,-4.57906 5.36378,-7.13542c2.40317,-3.80959 5.14406,-7.39618 7.60762,-11.16572c3.30817,-5.06189 5.89522,-10.46708 9.5743,-15.27283c0.1966,-0.25681 0.39343,-0.51686 0.59059,-0.77983c-2.49731,-1.03104 -4.97857,-2.11879 -7.46367,-3.07733c-6.30215,-2.43083 -12.55654,-5.03304 -18.77005,-7.7175c-1.16951,8.59049 -3.18416,16.92073 -4.4412,25.53733zM238.25083,276.24881c-1.27436,10.42593 -3.68144,20.63023 -4.86699,31.09658c-0.88218,4.95975 -0.92249,9.78881 -0.92981,14.8217c-0.00071,0.48728 -0.38961,3.44347 -0.23124,3.93493c0.30664,0.00601 0.6137,0.00979 0.92109,0.01174c0.36569,-0.21761 0.75996,-0.54821 1.07683,-0.70468c2.67317,-1.32002 4.64209,-3.18749 6.25433,-5.64749c5.74238,-8.74578 9.49687,-18.58205 13.81904,-28.09335c2.67627,-5.88936 4.60668,-12.26263 7.4874,-18.02796c1.77217,-3.54674 4.27811,-6.89205 6.47218,-10.18811c1.69819,-2.89277 3.54236,-5.74 5.57541,-8.43586c-2.67757,-0.15489 -5.35444,-0.25674 -8.02866,-0.27697c-8.84413,-0.0669 -17.31276,-1.97423 -25.82269,-3.96284c-0.38452,8.50352 -0.69678,17.04466 -1.72689,25.4723zM321.60456,268.93887c0.62254,9.92082 1.52151,19.42771 3.42378,29.12252c1.2588,-0.88648 2.51441,-1.76731 3.77209,-2.6264c4.86305,-3.32184 9.9853,-6.66491 14.22501,-10.79048c1.07401,-1.0451 1.87328,-2.41404 2.9975,-3.40531c2.19597,-1.93629 5.26882,-2.85086 6.95009,-5.30309c1.85606,-2.65479 3.9017,-4.37626 6.07894,-6.68424c2.04341,-2.16611 3.59581,-4.8293 5.68125,-6.98438c0.3601,-0.37212 3.41286,-1.90035 3.45064,-1.98958c0.10264,-0.24239 -0.52648,0.01397 -0.78965,0.00829c-0.45043,-0.00971 -0.90046,-0.03363 -1.35052,-0.05443c-2.01313,-0.09305 -4.01028,-0.34245 -6.01363,-0.55514c-5.41618,-0.57894 -10.98661,-0.032 -16.43137,-0.16958c-4.99944,-0.12633 -10.00437,-0.48275 -14.99977,-0.72391c-2.47501,-0.11993 -4.95198,-0.23358 -7.42982,-0.34869c0.12639,3.50362 0.21639,7.01347 0.43545,10.50441z"/><path d="M389.02311,290.38687c-0.00002,-0.75 0.74998,-0.75002 0.74998,-0.75002l0.48095,-0.00001c7.31119,-0.00027 14.97275,-0.2603 21.97992,-2.62531c2.69306,-0.90895 5.36689,-2.77108 7.89934,-4.07421c2.95141,-1.51871 6.562,-2.79104 9.23753,-4.74324c5.37324,-3.92057 9.89231,-10.1878 13.97012,-15.3646c6.59064,-8.36683 11.08931,-17.44027 15.32235,-27.15423c4.18145,-9.59117 9.16042,-18.78144 11.30503,-29.14623c2.1343,-10.28597 4.04073,-20.571 5.79012,-30.92927c1.73242,-10.25776 0.91713,-20.89226 0.86787,-31.28748c-0.04813,-10.15425 -1.17753,-21.13251 -4.75957,-30.68988c-1.82175,-4.8607 -4.01889,-8.7695 -6.60276,-13.23645c-0.67787,-1.1719 -1.03831,-2.95894 -1.82844,-4.00034c-2.19275,-2.89008 -6.35448,-4.93655 -9.60525,-6.21947c-1.69821,-0.6702 -3.65681,-1.82564 -5.44491,-2.16323c-7.91453,-1.49424 -17.17957,1.69607 -24.66604,3.92194c-3.05156,0.90256 -5.77726,2.36538 -9.10956,1.46728c-2.60051,-0.70087 -4.42429,-2.69732 -6.36699,-4.42119c-3.8483,-3.41483 -6.90421,-7.18718 -10.0916,-11.21362c-6.53287,-8.25315 -13.01547,-16.41502 -19.22451,-24.93214c-4.19816,-4.98217 -9.65275,-10.4333 -15.97698,-12.29737c-3.00495,-0.88571 -7.11111,-0.4427 -10.25333,-0.65322c-9.92289,0.99373 -20.1725,6.53373 -28.7143,11.46301c-9.14047,5.27476 -18.03989,10.63327 -27.38232,15.6044c-2.76605,0.91504 -5.8572,2.44501 -8.73579,2.86383c-8.48023,1.23382 -13.08548,-8.01594 -17.39832,-13.56757c-2.34048,-3.01369 -4.14595,-6.94014 -7.18434,-9.34125c-0.77535,-0.61273 -1.782,-0.87541 -2.58556,-1.45066c-2.07371,-1.48452 -3.37733,-3.30328 -5.87816,-4.18948c-2.77235,-0.98242 -5.77256,-0.66533 -8.66154,-0.65976c-10.60066,0.07762 -20.47143,2.27271 -30.32652,6.2509c-7.21399,2.91043 -12.9784,6.45412 -19.21643,11.06366c-2.30003,1.69958 -5.04918,3.25013 -6.83015,5.49358c-3.67503,4.58708 -8.5132,8.6686 -11.77271,13.51429c-0.83014,1.2341 -1.25682,2.74071 -2.07529,3.9844c-1.71872,2.61168 -3.7063,4.51448 -5.05965,7.38687c-0.3552,0.36904 -2.31338,2.507 -2.7609,2.47058c-0.71435,-0.05814 -1.05859,-0.97835 -1.4875,-1.55256c-1.43339,-1.91896 -2.3951,-4.55608 -3.52152,-6.67941c-2.57355,-4.85122 -8.35756,-10.90923 -13.7503,-12.33984c-9.45153,-2.5331 -21.38061,-1.32847 -30.10802,2.98823c-2.19773,1.08629 -4.73042,1.72676 -6.84596,2.94145c-6.15344,3.53315 -12.91836,10.65941 -16.57778,16.64485c-3.51284,5.74568 -8.16425,11.6519 -10.50754,17.9947c-1.19591,3.23709 -1.74689,6.78363 -2.80709,10.08118c-1.2986,4.03526 -2.85671,8.71698 -3.39316,12.92144c-0.54098,4.23992 0.3359,8.67247 0.04351,12.93461c-0.01875,0.6848 -0.03914,1.34961 -0.03795,1.96966l-0.00062,0.00062h0.00062v0.0002h0.00041l-0.00002,1.5v0c-0.00001,0.41421 -0.33579,0.74999 -0.75,0.74999c-0.41415,0 -0.74989,-0.33568 -0.75,-0.74981l-0.00039,-1.49953c-0.00043,-0.22314 0.0025,-0.45313 0.00747,-0.6885c-0.36491,-1.50916 -0.05847,-3.5075 -0.01255,-4.9801c-0.05912,-0.56518 -0.15406,-1.10745 -0.30121,-1.60856c-0.79482,-2.70675 -3.10009,-5.16222 -4.54006,-7.52653c-1.48067,-2.43113 -1.91027,-3.85169 -4.26323,-5.55747c-2.33942,-1.69646 -3.64165,-1.58093 -6.51558,-1.53223c-1.65514,0.02805 -4.22156,-0.38773 -5.78609,0.10431c-1.14112,0.35887 -2.5626,1.73379 -3.57413,2.38996c-3.91578,2.54013 -6.27047,5.58369 -8.4875,9.69681c-3.48347,6.46268 -7.32688,13.04194 -8.50581,20.41364c-0.4462,2.79009 0.00974,6.04926 0.01107,8.88121c0.005,10.63126 1.6384,20.55071 4.44957,30.7931c2.21552,5.65149 4.32906,12.66363 8.13466,17.92867c3.26194,-1.952 7.76374,-2.38106 11.13605,-2.39758c2.75817,-0.01352 6.79722,-0.79094 9.2619,0.61137c3.35296,1.90771 3.47219,8.3865 -0.08263,10.14643c-3.45042,1.70824 -8.99195,1.12916 -12.32059,-0.21952c-3.44591,-1.22389 -6.12978,-3.4036 -8.31039,-6.1112c-0.90855,0.76855 -1.62217,1.73514 -2.03428,2.94951c-1.55307,4.57645 2.36852,9.62386 4.96123,12.83773c4.03032,4.99589 7.88897,10.3543 12.49252,14.84815c2.83282,2.76532 6.0547,5.22806 9.0257,7.85033c7.78937,6.87508 15.12864,14.55273 24.11048,19.96596c8.93194,5.39247 17.06781,12.35737 26.45412,16.83024c8.06366,3.84825 16.16926,7.51222 25.09746,8.78768c0,0 0.74246,0.10607 0.63639,0.84853c-0.10607,0.74246 -0.84853,0.63639 -0.84853,0.63639c-9.08394,-1.29771 -17.32317,-5.01291 -25.5306,-8.91849c-9.43512,-4.49612 -17.60772,-11.48093 -26.58411,-16.90023c-9.05513,-5.47578 -16.46667,-13.18703 -24.32783,-20.12547c-2.98996,-2.63901 -6.22982,-5.11844 -9.08088,-7.90157c-4.64681,-4.53609 -8.54397,-9.93681 -12.61219,-14.97969c-2.94482,-3.65034 -6.94985,-9.13232 -5.21445,-14.26085c0.51476,-1.52125 1.41574,-2.71509 2.55772,-3.64956c-3.86923,-5.39437 -6.06517,-12.46438 -8.34524,-18.3039c-2.86738,-10.39174 -4.521,-20.47547 -4.52607,-31.2653c-0.00137,-2.91493 -0.45191,-6.24461 0.00775,-9.11879c1.20555,-7.53818 5.10384,-14.27873 8.66659,-20.88847c2.33568,-4.33326 4.86031,-7.5624 8.99145,-10.24343c1.13148,-0.73431 2.66585,-2.16164 3.94057,-2.56253c1.71758,-0.54018 4.40179,-0.14256 6.2107,-0.17319c3.14707,-0.05329 4.81647,-0.07034 7.4214,1.81758c2.50759,1.81789 3.1045,3.43125 4.66391,5.99166c1.00364,1.64789 2.37683,3.32794 3.43117,5.10396c-0.04745,-1.56554 -0.0491,-3.12887 0.1406,-4.6156c0.54833,-4.29752 2.12848,-9.06701 3.4531,-13.19072c1.0671,-3.31902 1.62404,-6.88289 2.82805,-10.14189c2.37915,-6.43986 7.06834,-12.42389 10.63482,-18.25731c3.78816,-6.19599 10.74266,-13.50689 17.11065,-17.16324c2.14638,-1.2324 4.70041,-1.88266 6.92784,-2.98515c9.0357,-4.46918 21.37562,-5.71524 31.16136,-3.09257c5.79795,1.56825 11.89938,7.85119 14.6865,13.08467c0.94098,1.76691 1.89717,3.52728 2.81933,5.30408c0.35962,0.69291 0.18185,2.13586 0.96252,2.13508c0.77245,-0.00077 0.88471,-1.27603 1.42836,-1.82478c1.30934,-2.88639 3.33313,-4.76396 5.04184,-7.36042c0.82101,-1.24756 1.24944,-2.75682 2.08368,-3.99702c3.28519,-4.88386 8.14407,-8.99343 11.8467,-13.61496c1.89615,-2.34775 4.68684,-3.97199 7.10934,-5.76207c6.33389,-4.68037 12.22131,-8.29299 19.54666,-11.24834c10.03214,-4.04519 20.08882,-6.28083 30.88079,-6.35982c3.07531,-0.00594 6.21727,-0.30027 9.16949,0.74588c2.65421,0.94055 4.05955,2.81536 6.25028,4.38366c0.6067,0.43432 2.08323,1.05154 2.64245,1.49347c3.15286,2.49157 5.01215,6.47317 7.43901,9.59807c3.87853,4.99567 8.29458,14.14408 15.99594,13.0035c2.75347,-0.40779 5.70974,-1.89194 8.3635,-2.75881c9.26975,-4.97715 18.13294,-10.27907 27.22257,-15.52449c8.77213,-5.0622 19.24778,-10.67729 29.43935,-11.66361c3.29406,0.20967 7.54441,-0.21651 10.7021,0.71422c6.62545,1.95286 12.34172,7.5925 16.7332,12.81051c6.21296,8.51165 12.688,16.67556 19.2203,24.92679c3.13369,3.95858 6.12865,7.66629 9.91109,11.02267c1.76299,1.5644 3.41622,3.44572 5.76614,4.09604c3.01459,0.83426 5.53543,-0.63616 8.28744,-1.45798c7.73764,-2.29948 17.19839,-5.50118 25.37171,-3.95808c1.8863,0.35613 3.92785,1.53573 5.71728,2.24192c3.48025,1.37348 7.89672,3.60697 10.24959,6.7081c0.8356,1.10133 1.21777,2.92435 1.93149,4.15527c2.62493,4.52707 4.86208,8.53309 6.70931,13.46175c3.64333,9.72092 4.80602,20.88121 4.85496,31.2092c0.04969,10.48376 0.85852,21.19842 -0.8888,31.54439c-1.75248,10.3766 -3.66237,20.68007 -5.80045,30.98423c-2.17826,10.46967 -7.1767,19.74767 -11.39863,29.44071c-4.28402,9.83094 -8.84929,19.01583 -15.51913,27.4832c-4.1637,5.28582 -8.77618,11.64372 -14.26432,15.64813c-2.74293,2.00137 -6.41175,3.30943 -9.43535,4.86529c-2.60162,1.33872 -5.33749,3.22726 -8.10598,4.16167c-7.15902,2.41626 -14.98935,2.70381 -22.45954,2.70408l-0.48095,0.00001c0,0 -0.75001,0.00002 -0.75003,-0.74998zM49.14036,218.15622c2.01948,2.46816 4.48828,4.44885 7.62479,5.56369c2.96883,1.20208 8.04205,1.81563 11.12031,0.27841c2.42849,-1.21275 2.41322,-6.23406 0.0258,-7.48961c-2.25386,-1.1853 -6.03053,-0.43714 -8.53021,-0.4249c-2.98318,0.01461 -7.23042,0.31616 -10.24069,2.07241z"/><path d="M316.35166,318.59344c0.24634,-0.70839 0.95473,-0.46204 0.95473,-0.46204l1.02605,0.35681c1.88748,0.67167 3.29004,2.26954 5.1935,2.86375c3.02938,0.94571 6.62524,2.37337 9.7319,3.05506c0.9733,-0.02657 2.13703,-0.14186 3.33251,-0.23266c-0.30612,-0.22728 -0.5952,-0.46881 -0.84776,-0.73852c-2.44193,-2.60783 -2.78954,-6.74993 -2.82813,-10.28215l-0.00683,-0.62864c0,0 -0.00815,-0.74996 0.74181,-0.7581c0.74996,-0.00815 0.7581,0.74181 0.7581,0.74181l0.00683,0.62864c0.03428,3.17385 0.27779,6.95695 2.42568,9.27591c0.624,0.6737 1.31469,1.17158 1.96968,1.64745c1.2344,-0.01794 2.39528,0.0687 3.29816,0.39156c1.02561,0.36675 1.47031,1.60872 2.24604,2.37331c0.38394,0.37843 1.0769,0.39449 1.38314,0.83815c0.53066,0.76878 0.93881,4.56177 0.37826,5.34998c-0.36641,0.51523 -1.16553,0.49211 -1.76117,0.7041c-0.64867,0.23087 -1.3644,0.9526 -1.96923,0.62357c-0.6312,-0.34337 -0.72472,-2.89873 -0.78046,-3.57958l-0.00295,-0.85659c0,0 -0.00045,-0.75 0.74955,-0.75045c0.75,-0.00045 0.75045,0.74955 0.75045,0.74955l-0.002,0.73582c0.15104,1.86762 -0.64218,2.32651 0.70197,1.6832c0.33625,-0.16093 0.87476,0.10283 1.10156,-0.19302c1.05963,-1.38228 -0.93047,-3.58217 -1.59903,-4.23341c-0.69469,-0.67671 -0.62277,-1.69684 -1.67748,-2.02396c-0.30718,-0.09527 -0.64109,-0.16497 -0.99505,-0.21415c0.5123,0.65476 0.85348,1.47597 0.88931,2.66525c0,0 0,0.75 -0.75,0.75c-0.75,0 -0.75,-0.75 -0.75,-0.75c0.05636,-1.28521 -0.58569,-2.089 -1.43662,-2.7613c-0.10597,0.00208 -0.2125,0.00494 -0.31947,0.00851c0.1101,0.16683 0.1711,0.40588 0.01547,0.71712c-0.33541,0.67082 -1.00623,0.33541 -1.00623,0.33541c-1.57452,-0.8126 -2.48588,-0.35392 -4.16073,-0.71351c-0.08343,0.00153 -0.16547,0.00233 -0.24602,0.00233c0,0 -0.28304,0 -0.50136,-0.17387c-3.01695,-0.73436 -6.40898,-2.03581 -9.29194,-2.95655c-1.93899,-0.61926 -3.3279,-2.23266 -5.23418,-2.87725l-1.02605,-0.35681c0,0 -0.70839,-0.24634 -0.46204,-0.95473z"/><path d="M240.62627,335.72799c0.4997,-0.55928 1.05899,-0.05958 1.05899,-0.05958l0.65062,0.58131c0.54315,0.52581 1.36346,0.8389 2.11882,0.80868c2.26675,-0.00024 4.41068,0.10367 6.48206,-0.29457c-0.09823,-0.10249 -0.14735,-0.20072 -0.14735,-0.20072c-0.72889,-1.49111 -1.60246,-3.67441 -0.03831,-5.12193c1.01103,-0.93564 2.15284,-0.42224 3.27964,-0.66581c1.37967,-0.29823 2.17526,-1.51345 3.57022,0.28022c1.06443,1.36867 -0.05489,4.26319 -1.17032,5.14233c-3.41426,2.69099 -7.88766,2.36003 -11.97585,2.36048c-1.11213,-0.03101 -2.26831,-0.47226 -3.11831,-1.19011l-0.65062,-0.58131c0,0 -0.55928,-0.4997 -0.05958,-1.05899zM252.19126,336.45366c0.69561,-0.21353 1.384,-0.49949 2.06716,-0.88179c0.57119,-0.31964 1.7549,-0.5598 2.03443,-1.35934c0.85048,-2.43265 -0.25289,-2.35512 -1.93793,-1.97262c-0.17334,0.03935 -2.25556,0.02188 -2.60005,0.31591c-0.9672,0.8255 -0.00772,2.58926 0.37617,3.33646c0,0 0.13766,0.27531 0.06022,0.56137z"/><path d="M279.95352,345.71184c0.00017,-0.75 0.75017,-0.74983 0.75017,-0.74983l0.27517,0.00006c1.2962,0.0003 5.84801,-0.641 6.59197,0.79294c0.83673,1.61275 -2.77413,5.03727 -4.09554,5.42374c-0.11254,0.03292 -2.9719,0.02541 -3.19358,0.02541c-2.27173,0 -5.54616,0.59515 -7.71893,-0.04471c-0.93147,-0.27431 -1.77549,-0.8884 -2.74177,-0.98419c-1.70066,-0.88877 -7.22016,-4.03482 -4.14874,-6.6411c1.64299,-1.39417 5.76531,0.82345 7.56725,-0.1058c0.62997,-0.32487 0.39445,-1.79403 0.39113,-2.15246c-0.02778,-2.99941 0,-6.00045 0,-9c0,0 0,-0.75 0.75,-0.75c0.75,0 0.75,0.75 0.75,0.75c0,2.99965 0.02438,6.00046 0,9c-0.01034,1.27258 0.24278,2.56302 -1.12008,3.43912c-1.63688,1.05225 -11.1407,-1.39944 -5.97608,2.45856c0.72632,0.54256 1.42481,1.1372 2.22323,1.56666c0.96565,0.10602 1.8173,0.69 2.74302,0.98457c0.88343,0.28112 1.85408,-0.02095 2.78116,-0.02072c2.21904,0.00054 5.15673,0.51943 7.30624,0.02549c0.48428,-0.11128 3.22532,-3.17494 3.1845,-3.22311c-0.47127,-0.55611 -4.54356,-0.04423 -5.29412,-0.0444l-0.27517,-0.00006c0,0 -0.75,-0.00017 -0.74983,-0.75017z"/><path d="M312.44616,343.26165c-0.34366,-1.08568 -0.21554,-2.44624 -0.44441,-3.42128c-0.41505,-1.76822 0.11945,-4.2355 -0.48648,-5.85448c-0.61078,-1.63197 -1.43119,-3.75349 -2.23928,-5.32637c0,0 -0.33541,-0.67082 0.33541,-1.00623c0.67082,-0.33541 1.00623,0.33541 1.00623,0.33541c0.79659,1.62961 1.71241,3.80403 2.30771,5.48563c0.62443,1.76389 0.10018,4.15161 0.53696,6.02432c0.17864,0.76591 -0.02357,3.21927 0.71385,3.803c0.36761,0.01155 0.73357,0.02406 1.0969,0.03567c0.47647,-0.17656 0.94018,-0.48461 1.20995,-0.55215c2.81236,-0.70412 6.06717,-0.62081 7.36995,2.12462c1.11708,2.32506 1.69051,4.81355 -1.35673,5.97606c-0.94841,0.36181 -2.05814,-0.01325 -3.0334,0.26829c-3.76844,1.08786 -7.925,2.59026 -12.06742,1.61016c-4.93904,-1.16858 -6.5105,-5.48753 -2.15137,-8.4846c2.20144,-0.89627 4.70386,-1.04513 7.20214,-1.01804zM319.37718,343.96554c0.00881,0.05072 0.01359,0.10583 0.01359,0.16574c0.00001,0.75 -0.74999,0.75001 -0.74999,0.75001l-1.163,0.00002c-0.55674,0.00003 -1.13369,-0.01595 -1.72381,-0.03798c-0.74431,0.13363 -1.44072,0.15579 -2.02468,-0.08292c-2.68946,-0.10174 -5.48124,-0.10466 -7.77468,0.84029c-3.28456,2.21637 -1.76425,4.86324 1.78626,5.70391c3.91452,0.92686 7.75719,-0.58282 11.30911,-1.59256c2.98511,-0.84861 5.38814,-0.18328 3.43919,-4.17771c-0.58481,-1.56811 -1.75695,-1.77905 -3.11199,-1.5688z"/><path d="M288.64747,345.71201c0,-0.75 0.75,-0.75 0.75,-0.75c3.5,0 8.35539,0 11.85539,0c0,0 0.75,0 0.75,0.75c0,0.75 -0.75,0.75 -0.75,0.75c-3.5,0 -7,0 -10.5,0h-1.35539c0,0 -0.75,0 -0.75,-0.75z"/><path d="M275.91937,328.27467c0.04943,0.74837 -0.69894,0.7978 -0.69894,0.7978l-0.19887,0.01314c-1.79839,0.05148 -2.05988,1.19748 -3.90736,1.57757c-3.41993,0.70359 -7.28868,2.98665 -10.62462,4.65462c0,0 -0.67082,0.33541 -1.00623,-0.33541c-0.33541,-0.67082 0.33541,-1.00623 0.33541,-1.00623c3.09456,-1.54728 6.33382,-3.24123 9.34472,-4.59624c0.8831,-0.39743 2.02903,-0.03471 2.85436,-0.54131c0.89836,-0.55142 1.85525,-1.1526 2.90486,-1.24974l0.19887,-0.01314c0,0 0.74837,-0.04943 0.7978,0.69894z"/></g></g></svg>