<svg version="1.1" xmlns="http://www.w3.org/2000/svg" xmlns:xlink="http://www.w3.org/1999/xlink" width="90.62525" height="105.83544" viewBox="0,0,90.62525,105.83544"><defs><radialGradient cx="265.94045" cy="175.99021" r="7.3567" gradientUnits="userSpaceOnUse" id="color-1"><stop offset="0" stop-color="#54606d"/><stop offset="1" stop-color="#2c3136"/></radialGradient></defs><g transform="translate(-180.39897,-134.39939)"><g data-paper-data="{&quot;isPaintingLayer&quot;:true}" fill-rule="nonzero" stroke-linejoin="miter" stroke-miterlimit="10" stroke-dasharray="" stroke-dashoffset="0" style="mix-blend-mode: normal"><g stroke="none" stroke-width="0.5" stroke-linecap="butt"><path d="M187.14588,198.08492c0.1838,7.17844 5.94239,13.01158 12.782,8.42098c2.20129,-2.08908 0.18192,-4.87287 -1.83214,-6.56581c-0.6656,-0.55947 -1.14995,0.38349 -1.92014,0.57215c-2.26612,0.55505 -3.80101,-1.16582 -4.22259,-3.14317c-1.47325,-0.34937 -2.97388,-1.05206 -4.19283,-1.97293c0.03794,1.04606 -0.14805,1.74526 -0.61429,2.68879zM198.94326,198.70247c3.22609,1.8679 4.65483,6.38423 1.92353,8.97322c-7.97871,5.41309 -15.25022,-1.35786 -15.18624,-9.91142c0.38694,-0.86756 0.64615,-1.38359 0.58018,-2.32868l0.4182,-0.98048c0,0 0.00168,-0.00299 0.00501,-0.00842c-0.6023,-0.62663 -1.06817,-1.31588 -1.33134,-2.03879c-0.93901,-2.57937 2.82929,-6.01913 5.37622,-7.15193c1.62682,-1.27792 4.48638,-1.1729 5.43388,1.11987c0.64681,1.56514 -0.70043,3.1601 -0.98815,4.67971c-0.44683,2.36 0.26323,3.75101 1.28456,5.91017c-0.8022,0.51506 -1.8504,0.70333 -2.98555,0.63436c0.6645,2.69789 3.69451,0.07458 5.46968,1.10238zM189.58567,187.95979c-0.14885,0.16214 -0.30252,0.33269 -0.46857,0.51031c-0.62119,0.66451 -1.96583,1.33444 -2.44511,2.09554c-0.5263,0.83573 0.56071,1.94097 1.03398,2.4392c1.45921,1.53613 3.08327,2.24574 4.88321,2.83044c0.22362,-0.00538 0.38136,0.06146 0.49258,0.15607c0.62236,0.19293 1.26513,0.37876 1.92877,0.58502c-2.01498,-1.45148 -1.74881,-4.72223 -0.99791,-6.81554c0.21945,-0.61177 1.07834,-2.18189 0.77056,-2.79601c-0.42158,-0.84116 -1.48706,-1.1209 -2.37826,-0.94428c-0.10008,0.14927 -0.2252,0.23372 -0.2252,0.23372l-0.33983,0.18297c-0.19804,0.05269 -0.37832,0.11439 -0.54472,0.18444c-0.25715,0.30878 -0.36391,0.72099 -0.2141,1.22299c0,0 0.15874,0.73301 -0.57428,0.89174c-0.73301,0.15874 -0.89174,-0.57428 -0.89174,-0.57428c-0.01191,-0.06819 -0.02168,-0.13563 -0.02937,-0.20232z" fill="#000000"/><path d="M189.64528,188.20192c0,0 0.10211,0.65072 0.83511,0.49199c0.73301,-0.15874 0.58413,-0.89645 0.58413,-0.89645c-0.14982,-0.502 -0.03778,-0.91573 0.21938,-1.22452c0.16639,-0.07004 0.35169,-0.13263 0.54974,-0.18533l0.34294,-0.18326c0,0 0.12712,-0.08454 0.2272,-0.2338c0.8912,-0.17662 1.97812,0.10742 2.3997,0.94858c0.30779,0.61412 -0.54405,2.18807 -0.7635,2.79984c-0.75089,2.09331 -1.02063,5.4499 0.99436,6.90137c-0.66363,-0.20625 -1.32346,-0.38653 -1.94582,-0.57945c-0.11121,-0.09461 -0.27507,-0.16099 -0.49869,-0.15561c-1.79994,-0.58471 -3.47362,-1.33426 -4.93282,-2.87038c-0.47327,-0.49822 -1.55985,-1.62548 -1.03355,-2.46121c0.4793,-0.76109 1.83772,-1.45503 2.45891,-2.11953c0.16604,-0.17762 0.325,-0.35261 0.47385,-0.51475c0.00769,0.06669 0.07716,0.21434 0.08908,0.28253z" data-paper-data="{&quot;noHover&quot;:false,&quot;origItem&quot;:[&quot;Path&quot;,{&quot;applyMatrix&quot;:true,&quot;selected&quot;:true,&quot;segments&quot;:[[[235.10618,192.13453],[0.05114,0.04349],[0.0019,0.2201],7],[[235.11209,192.82729],[0.0001,-0.24314],[-0.00037,0.90964],7],[[234.75562,196.02773],[-0.16925,-0.88337],[0.18585,0.96999],7],[[237.17624,197.10449],[-0.68595,-0.04105],[2.11494,0.12655],7],[[242.67691,195.83971],[-1.71451,0.80133],[0.15975,-0.15657],7],[[243.14342,195.61752],[-0.14585,0.00678],[0.58651,-0.28383],7],[[244.95229,194.72849],[-0.62576,0.30226],[-2.46331,0.31469],7],[[239.57075,190.42889],[0.88014,2.04233],[-0.25722,-0.59687],7],[[238.22533,187.85961],[0.64412,0.2387],[-0.88226,-0.32695],7],[[235.84273,188.79292],[0.53073,-0.7374],[0.02875,0.1774],7],[[235.8377,189.11744],[0,0],[0,0],7],[[235.71424,189.48313],[0,0],[-0.10876,0.17369],7],[[235.44206,189.98973],[0.07379,-0.16477],[0.02285,0.40118],7],[[236.1204,191.02963],[-0.45215,-0.2646],[0,0],7],[[236.30942,192.07331],[0.42733,-0.61635],[-0.42733,0.61635],7],[[235.26574,192.26234],[0,0],[-0.05525,-0.0417],7]],&quot;closed&quot;:true}]}" fill="#0032ff"/><path d="M187.72633,195.35931c1.21895,0.92088 2.73806,1.61279 4.21132,1.96215c0.42158,1.97735 2.01989,3.73196 4.286,3.17691c0.77018,-0.18864 1.25449,-1.13179 1.92009,-0.57231c2.01407,1.69293 4.02506,4.52126 1.82377,6.61033c-6.8396,4.5906 -12.68186,-1.2967 -12.86567,-8.47514c0.46625,-0.94354 0.66245,-1.65587 0.6245,-2.70195z" data-paper-data="{&quot;noHover&quot;:false,&quot;origItem&quot;:[&quot;Path&quot;,{&quot;applyMatrix&quot;:true,&quot;selected&quot;:true,&quot;segments&quot;:[[[240.23457,201.19932],[-0.30333,-1.00779],[5.0343,5.12051],7],[[255.32372,198.62839],[-1.86482,8.02348],[0.1827,-3.02928],7],[[249.503,195.08075],[2.62746,-0.13761],[-0.86831,0.04548],7],[[248.49032,196.80954],[0.43408,-0.66358],[-1.27719,1.95247],7],[[243.25895,197.39485],[1.65782,1.15727],[-1.31512,0.75032],7],[[238.84813,198.81506],[1.51939,-0.15908],[0.74177,0.73856],7]],&quot;closed&quot;:true}]}" fill="#fff1e2"/></g><g stroke="#001026" stroke-width="1.2"><path d="M251.72652,199.69088l4.6696,-21.68653l12.37566,4.64059l-10.01101,18.88463c0,0 -2.4662,0.92023 -3.60209,0.62331c-1.20481,-0.31493 -3.43217,-2.462 -3.43217,-2.462z" fill="#505a63" stroke-linecap="butt"/><path d="M256.17719,176.4574c1.42653,-3.80433 5.66699,-5.73191 9.47131,-4.30538c3.80433,1.42653 5.73191,5.667 4.30538,9.47131c-1.42653,3.80433 -5.667,5.73192 -9.47132,4.30538c-3.80433,-1.42653 -5.7319,-5.667 -4.30537,-9.47133z" fill="url(#color-1)" stroke-linecap="butt"/><path d="M257.92304,183.83218c0,0 0.74516,-4.57204 1.4799,-6.60132c0.6867,-1.89657 2.79416,-5.20315 2.79416,-5.20315" fill="none" stroke-linecap="round"/><path d="M264.3846,186.10275c0,0 0.81054,-5.70004 1.39485,-7.85391c0.43174,-1.59141 1.79395,-3.90044 1.79395,-3.90044" fill="none" stroke-linecap="round"/><path d="M255.96942,176.8531c0,0 4.95472,-0.82937 7.46017,-0.4816c2.17971,0.30255 6.73184,2.4515 6.73184,2.4515" fill="none" stroke-linecap="round"/><path d="M256.03632,182.36291c0,0 5.50452,-0.56365 7.96252,-0.47267c1.91074,0.07073 5.56161,0.9733 5.56161,0.9733" fill="none" stroke-linecap="round"/></g><g stroke="none" stroke-width="0.5" stroke-linecap="butt"><path d="M205.79278,204.43804c0.40979,-0.33323 0.76567,-0.1432 0.94033,-0.00164c0.38735,-0.30536 0.69856,-0.78565 0.87201,-1.4488c0.33222,-1.27013 -1.14011,-2.10811 -2.04123,-2.56803c0.38623,1.5505 -0.1105,3.28586 -1.23385,4.05504c0.3864,0.23494 0.79475,0.35866 1.18964,0.36662c0.03181,-0.13296 0.11205,-0.27223 0.27308,-0.40317zM205.02171,210.20333l-0.01185,0.02278c0,0 -0.21734,0.17674 -0.49438,0.18136c-2.15623,1.57552 -4.96313,-0.27811 -5.0434,-3.17422c-3.42089,-0.50412 -6.5969,-6.53571 -2.54254,-8.42509c0.78389,-0.3653 1.54206,-0.30504 2.21458,0.01984c0.75338,-1.6079 3.11951,-2.01035 5.07635,-0.50671c0.05416,0.04161 0.10672,0.08445 0.15771,0.12844c0.55805,0.06818 1.11797,0.27607 1.61854,0.50827c1.58629,0.73585 3.53183,2.23158 3.0748,4.34522c-0.24022,1.11094 -0.8001,1.90715 -1.51943,2.3959c0.80593,1.91507 -0.50899,3.34614 -2.5304,4.5042zM202.91162,199.43802c-0.03166,-0.10157 -0.04443,-0.19323 -0.04303,-0.27573c-1.00868,-0.61846 -2.32843,-0.39853 -2.4521,0.68956c0.74838,0.88549 1.23397,2.08177 1.28014,3.11492c0.40294,-0.06897 0.69093,0.2852 0.69093,0.2852l-0.12469,-0.06831c2.02138,1.38486 2.05171,-2.09463 1.4206,-3.1859c-0.00698,-0.01206 -0.01404,-0.02404 -0.0212,-0.03592c-0.22826,0.01433 -0.60069,-0.04275 -0.75067,-0.52381zM204.88056,206.21888c0.03096,0.15569 0.05506,0.31753 0.07168,0.48536l-0.87034,1.04868c0,0 -0.50912,0.55072 -1.05985,0.04159c-0.55072,-0.50912 -0.04159,-1.05985 -0.04159,-1.05985l0.53963,-0.47648c-0.09293,-0.30975 -0.20452,-0.56267 -0.32842,-0.76293c-0.14434,-0.10234 -0.28467,-0.21457 -0.42003,-0.3366l-0.03782,-0.14632c-0.67314,-0.40561 -1.45995,0.24194 -1.71007,1.51479c0.00034,0.0875 -0.01376,0.16458 -0.03785,0.2324c-0.28825,2.29276 2.08024,4.05199 3.415,1.52969c0,0 0.36454,-0.65544 1.01998,-0.29092c0.05016,0.02789 0.09434,0.05749 0.13318,0.08837c0.63407,-0.50637 0.96128,-1.07143 0.61915,-1.84636c-0.42102,0.06691 -0.85838,0.05947 -1.29264,-0.02145zM199.17942,201.39051c-0.12359,-0.3318 -0.20351,-0.64727 -0.24459,-0.94475c-0.43629,-0.36724 -0.93229,-0.52543 -1.40393,-0.26341c-2.32578,1.29213 0.05703,5.54665 2.11113,5.63217c0.09023,-0.34563 0.20885,-0.65078 0.3499,-0.91673c-0.09352,-0.04481 -0.18789,-0.11747 -0.2783,-0.22864c-0.47319,-0.58189 0.1087,-1.05508 0.1087,-1.05508l0.3378,-0.13693c0.15042,-0.37568 0.04584,-0.99106 -0.21461,-1.59732c-0.5523,0.07708 -0.76613,-0.48932 -0.76613,-0.48932z" fill="#000000"/><path d="M205.51693,204.89114c-0.3949,-0.00796 -0.83172,-0.14255 -1.21812,-0.37749c1.12335,-0.76918 1.64994,-2.59358 1.26372,-4.14406c0.90112,0.45992 2.42469,1.35137 2.09246,2.6215c-0.17346,0.66314 -0.50602,1.18101 -0.89335,1.48637c-0.17466,-0.14156 -0.55399,-0.32291 -0.96379,0.01033c-0.16103,0.13094 -0.24913,0.27041 -0.28094,0.40337z" data-paper-data="{&quot;noHover&quot;:false,&quot;origItem&quot;:[&quot;Path&quot;,{&quot;applyMatrix&quot;:true,&quot;selected&quot;:true,&quot;segments&quot;:[[[254.46427,197.47825],[0,-0.20755],[0,0.52818],7],[[253.87228,198.20884],[0.22002,-0.0462],[-0.00746,0.49318],7],[[254.44617,199.79946],[-0.40507,-0.55296],[0.77583,1.05909],7],[[257.72642,199.83596],[-0.92535,0.40897],[-1.44663,-0.67857],7],[[255.35874,196.32031],[-0.11196,1.35684],[-0.42606,0.15157],7],[[254.32375,197.012],[0.25532,-0.30137],[0.08309,0.10857],7]],&quot;closed&quot;:true}]}" fill="#fff1e2"/><path d="M199.98445,201.8484c0.26045,0.60626 0.37327,1.26975 0.22285,1.64542l-0.34149,0.14501c0,0 -0.59891,0.49087 -0.12572,1.07276c0.0904,0.11117 0.18679,0.18251 0.28032,0.2273c-0.14104,0.26596 -0.27161,0.57719 -0.36184,0.92281c-2.0541,-0.08552 -4.47205,-4.43364 -2.14625,-5.72578c0.47163,-0.26202 0.9922,-0.10708 1.42849,0.26017c0.04107,0.29747 0.13161,0.61542 0.2552,0.94723c0,0 0.23614,0.58215 0.78844,0.50506z" data-paper-data="{&quot;noHover&quot;:false,&quot;origItem&quot;:[&quot;Path&quot;,{&quot;applyMatrix&quot;:true,&quot;selected&quot;:true,&quot;segments&quot;:[[[261.00115,194.26996],[0,0],[0.3354,0.11345],7],[[261.88845,194.67626],[-0.25671,-0.15581],[0.56019,-0.1068],7],[[262.97857,193.75319],[-0.09427,0.53123],[0.46485,-2.61969],7],[[257.27688,191.83774],[1.36231,-1.53973],[0.21123,0.28807],7],[[257.76737,192.68758],[-0.11736,-0.27722],[0.09377,-0.04429],7],[[258.12034,192.61592],[-0.14329,0],[0.75,0],7],[[258.87034,193.36592],[0,0],[0,0],7],[[258.76346,193.71439],[0,0],[0.19657,0.35372],7],[[260.13815,194.55566],[-0.63469,-0.18042],[0.28865,-0.47714],7]],&quot;closed&quot;:true}]}" fill="#fff1e2"/><path d="M203.70027,199.92933c0.00714,0.01188 0.01499,0.02478 0.02196,0.03684c0.6311,1.09127 0.55968,4.65229 -1.46172,3.26743l0.12763,0.06837c0,0 -0.30517,-0.35699 -0.7081,-0.28803c-0.04617,-1.03314 -0.5575,-2.30321 -1.30588,-3.18868c0.12366,-1.08809 1.49854,-1.32977 2.50723,-0.71129c-0.00141,0.08251 0.01447,0.17509 0.04613,0.27666c0.14998,0.48107 0.54449,0.55304 0.77275,0.5387z" data-paper-data="{&quot;noHover&quot;:false,&quot;origItem&quot;:[&quot;Path&quot;,{&quot;applyMatrix&quot;:true,&quot;selected&quot;:true,&quot;segments&quot;:[[[260.16131,198.39745],[-0.46786,-0.18715],[0.09878,0.03951],7],[[260.40238,198.53803],[-0.06313,-0.05315],[1.11623,-0.3924],7],[[261.41444,196.20051],[0.76618,0.78243],[-1.15917,0.02198],7],[[258.19006,195.22848],[0.8307,0.616],[-0.20071,0.35613],7],[[257.53286,195.58461],[0,0],[0,0],7],[[257.66454,195.53096],[0,0],[-2.34977,0.69458],7],[[259.24006,198.64316],[-1.24484,-0.19885],[0.01376,0.0022],7],[[259.2813,198.64938],[-0.01373,-0.00195],[0.13289,-0.18614],7]],&quot;closed&quot;:true}]}" fill="#fff1e2"/><path d="M206.222,206.22945c0.34213,0.77493 0.01013,1.37458 -0.62393,1.88095c-0.03884,-0.03088 -0.08288,-0.06075 -0.13304,-0.08864c-0.65544,-0.36454 -1.03358,0.30704 -1.03358,0.30704c-1.33476,2.52231 -3.78375,0.72096 -3.4955,-1.57181c0.02407,-0.06781 0.0387,-0.14993 0.03835,-0.23742c0.25012,-1.27285 1.07159,-1.96058 1.74472,-1.55497l0.03763,0.14637c0.13536,0.12203 0.28637,0.23214 0.43071,0.3345c0.12389,0.20025 0.25575,0.45562 0.3487,0.76537l-0.50978,0.54381c0,0 -0.53993,0.48306 0.01078,0.99219c0.55072,0.50912 1.01174,-0.03141 1.01174,-0.03141l0.85369,-1.00589c-0.01662,-0.16784 0.0551,-0.35431 0.02414,-0.51001c0.43426,0.08091 0.87434,0.09684 1.29535,0.02993z" data-paper-data="{&quot;noHover&quot;:false,&quot;origItem&quot;:[&quot;Path&quot;,{&quot;applyMatrix&quot;:true,&quot;selected&quot;:true,&quot;segments&quot;:[[[253.65812,195.64694],[-0.33675,0.28588],[-0.14033,-0.07421],7],[[253.23633,195.39634],[0.1407,0.093],[0,0],7],[[252.97181,194.05946],[0,0],[0,0],7],[[253.60821,193.21093],[-0.74246,0.10607],[0.74246,-0.10607],7],[[254.45673,193.84733],[0,0],[0,0],7],[[254.48595,194.56662],[0,0],[0.29896,0.12332],7],[[255.28508,194.79314],[-0.23353,-0.03021],[0.17047,-0.04741],7],[[255.81124,194.67962],[-0.18008,0.02803],[0,0],7],[[255.94862,194.74259],[0,0],[0.73938,-0.26635],7],[[255.85226,192.46012],[0.82974,0.99711],[-0.0681,-0.05494],7],[[255.69583,192.28414],[0.03742,0.06146],[-1.59699,-1.67017],7],[[252.35447,193.96859],[-1.11484,-2.62693],[0,0],7],[[251.93665,194.94349],[0.69636,-0.27854],[-0.05329,0.02132],7],[[251.78406,194.99106],[0.04846,-0.01065],[-0.00717,0.81142],7],[[252.82594,196.63632],[-0.81709,-0.22347],[0.21371,-0.36886],7]],&quot;closed&quot;:true}]}" fill="#fff1e2"/></g><g stroke="none" stroke-width="0.5" stroke-linecap="butt"><path d="M225.91135,232.06939c-1.18188,1.31737 -3.16638,1.59422 -4.36664,2.69707c-1.76486,1.62163 -0.70296,3.97813 1.30643,3.96629c0.89884,-0.0053 1.79786,0 2.69672,0c3.76552,0 5.03951,-1.04182 6.36942,-4.80824c0.28503,-0.80722 0.90967,-1.9133 0.89735,-2.81329c-0.01455,-1.06246 -0.28371,-2.10571 -0.37473,-3.17369c-0.37083,0.13713 -0.7239,0.24991 -0.99913,0.35584c-1.20789,0.46487 -2.92699,1.2941 -4.47711,1.27777c-0.29069,0.82963 -0.46874,1.84779 -1.0523,2.49826zM233.78722,227.29263c-0.00313,1.28756 0.41648,2.54844 0.40451,3.81859c-0.05299,5.62175 -3.91795,9.12153 -8.64387,9.12153c-0.89887,0 -1.79787,0.00467 -2.69672,0c-3.30113,-0.01716 -4.80255,-4.0816 -2.1993,-6.60827c1.97958,-1.92135 3.79185,-1.65912 4.92889,-4.35327c-0.33367,-0.16051 -0.64497,-0.39275 -0.92425,-0.7139c-1.05976,-1.21862 -0.30071,-5.5106 -0.06449,-7.05442c0.00533,-3.55598 -0.69745,-7.18026 -1.33806,-10.66339c-0.18228,-0.99107 -1.0225,-3.53618 -0.44915,-4.50281c0.91143,-1.53661 4.87933,-1.82327 6.4053,-2.10792c3.70729,-0.67302 7.26721,-1.61629 10.81717,-2.90909l0.40451,-0.14687c0,0 0.65322,-0.23717 0.87096,0.47434c0.12877,0.42079 -0.04708,0.67568 -0.21229,0.81372c0.24762,0.21912 0.24762,0.5984 0.24762,0.5984c-0.00493,4.0294 0.51166,8.13657 0.91886,12.13043c0.11864,1.16366 0.70973,4.07172 0.2519,5.16657c-0.02322,0.05554 -0.04718,0.1095 -0.07186,0.16194c1.37064,-0.13239 2.78419,-0.57715 4.00173,-0.86192c0.68707,-0.1607 2.22126,-0.86391 2.91562,-0.56819c2.48629,1.05889 0.67655,6.94613 -0.54506,8.26971c-3.29245,0.95594 -6.70702,1.68375 -10.06907,2.29018c-1.02356,0.18462 -2.90124,0.46682 -3.7154,-0.51901c-0.44966,-0.54447 -0.6185,-1.42022 -0.69073,-2.35712c-0.14608,0.19332 -0.33419,0.36155 -0.54705,0.50971c0.00026,0.00719 0.00026,0.01106 0.00026,0.01106zM236.02669,228.09992c0.49097,0.66328 2.6765,0.06567 3.26906,-0.07289c2.93941,-0.68734 5.90008,-1.24634 8.83497,-1.97453c0.84482,-0.93377 0.86422,-2.51543 0.86422,-3.75342c0,-0.59459 0.48486,-1.79364 -0.06092,-1.78255c-2.72939,0.05548 -5.21571,1.69807 -7.9381,1.48928c-0.54218,0.27325 -1.15702,0.42246 -1.79513,0.57963c-0.80614,0.25102 -2.23599,0.85042 -3.63183,1.14411c0.08127,1.27356 -0.11308,3.59923 0.45773,4.37037zM239.05241,220.7401c0.21774,-0.71151 0.87096,-0.47434 0.87096,-0.47434c0.25774,0.09733 0.52423,0.16716 0.79723,0.21396c0.20414,-0.16016 0.37651,-0.36777 0.49663,-0.64387c0.35166,-0.8083 -0.23579,-3.56718 -0.32839,-4.47452c-0.41369,-4.05329 -0.92325,-8.21294 -0.9279,-12.30206c0,0 0,-0.05833 0.01493,-0.14245c-3.45961,1.22266 -6.92982,2.13625 -10.5394,2.79154c-1.04663,0.18375 -4.82361,0.48241 -5.46026,1.41693c-0.21079,0.30941 0.57518,3.13159 0.62954,3.42811c0.66473,3.62614 1.35419,7.36966 1.35865,11.07321c-0.11732,0.76676 -0.86335,5.38164 -0.33416,5.87004c0.27713,0.25577 0.58323,0.41606 0.9073,0.50384c0.10651,-0.01659 0.22789,-0.0019 0.36139,0.06823c1.37974,0.15578 2.99514,-0.77188 4.08226,-1.18934c0.38616,-0.14829 2.01385,-0.53662 2.30592,-1.08658c0.13114,-0.24695 -0.14536,-1.29958 -0.36355,-2.11568c-0.30413,-0.13289 -0.56528,-0.33226 -0.76648,-0.61499c-0.81704,-1.14814 -0.42112,-3.51776 -0.42112,-4.87536c0,-1.30313 0.02523,-2.5804 0.08256,-3.84601c-0.04227,-0.73616 -0.1045,-1.47235 -0.2093,-2.20779c-0.11922,-0.83662 -1.03383,-4.2517 -0.78108,-4.90706c0.3127,-0.81081 1.33723,-1.1949 2.19479,-1.13363c0.23308,-0.12576 0.46616,-0.25152 0.69924,-0.37728l0.07764,0.0171l-0.0053,-0.03463l0.79622,-0.14455c0.04085,-0.00823 0.08296,-0.01253 0.12599,-0.01253c0.38028,0 0.68855,0.33579 0.68855,0.75c0,0.3154 -0.17874,0.58533 -0.4319,0.69617l-0.92927,0.4338l-0.00721,-0.01833c-0.02322,0.0166 -0.04669,0.03285 -0.07042,0.04871c-0.05452,0.03645 -0.11778,0.06085 -0.18734,0.07604c-0.01131,2.65563 -0.38063,5.30213 -0.56435,7.97776c0.06569,2.32655 0.12348,4.62549 0.82183,6.9075c0.00186,0.01198 0.0038,0.02411 0.00583,0.03638c1.43877,0.02642 4.19745,-1.12336 4.81969,-1.3169c0.04919,-0.01168 0.09932,-0.02305 0.1502,-0.03433c-0.01128,-0.10286 -0.00144,-0.22134 0.0401,-0.35708zM232.28893,208.88354c0.06342,-0.48651 0.13308,-0.97433 0.20939,-1.46429c-0.22343,-0.00514 -0.37432,0.0557 -0.36515,0.28552c0.01439,0.36041 0.07329,0.75834 0.15576,1.17877z" fill="#000000"/><path d="M235.52328,223.72465c1.39584,-0.2937 2.83101,-0.91199 3.63715,-1.16301c0.6381,-0.15717 1.26929,-0.32517 1.81146,-0.59842c2.72239,0.20879 5.27291,-1.41538 8.0023,-1.47086c0.54578,-0.01109 0.06471,1.19777 0.06471,1.79236c0,1.23798 -0.01887,2.84633 -0.86369,3.7801c-2.93489,0.72819 -5.97153,1.31126 -8.91094,1.9986c-0.59256,0.13856 -2.78724,0.72306 -3.27821,0.05977c-0.57081,-0.77114 -0.38151,-3.12499 -0.46278,-4.39854z" data-paper-data="{&quot;noHover&quot;:false,&quot;origItem&quot;:[&quot;Path&quot;,{&quot;applyMatrix&quot;:true,&quot;segments&quot;:[[[236.02669,228.09992],[-0.57081,-0.77114],[0.49097,0.66328]],[[239.29575,228.02703],[-0.59256,0.13856],[2.93941,-0.68734]],[[248.13072,226.0525],[-2.93489,0.72819],[0.84482,-0.93377]],[[248.99494,222.29909],[0,1.23798],[0,-0.59459]],[[248.93402,220.51654],[0.54578,-0.01109],[-2.72939,0.05548]],[[240.99592,222.00581],[2.72239,0.20879],[-0.54218,0.27325]],[[239.20079,222.58544],[0.6381,-0.15717],[-0.80614,0.25102]],[[235.56896,223.72955],[1.39584,-0.2937],[0.08127,1.27356]]],&quot;closed&quot;:true}]}" fill="#424347"/><path d="M226.96672,229.52124c1.55012,0.01633 3.29888,-0.79806 4.50678,-1.26293c0.27523,-0.10593 0.63023,-0.21644 1.00106,-0.35357c0.09102,1.06798 0.36904,2.1281 0.38359,3.19056c0.01233,0.89998 -0.61018,2.02717 -0.89521,2.83439c-1.32991,3.76642 -2.66023,4.85168 -6.42575,4.85168c-0.89885,0 -1.81551,-0.01457 -2.71435,-0.00927c-2.00939,0.01185 -3.08748,-2.37174 -1.32262,-3.99337c1.20026,-1.10285 3.20277,-1.43282 4.38465,-2.75018c0.58357,-0.65047 0.79117,-1.67768 1.08186,-2.50731z" data-paper-data="{&quot;noHover&quot;:false,&quot;origItem&quot;:[&quot;Path&quot;,{&quot;applyMatrix&quot;:true,&quot;segments&quot;:[[[225.91135,232.06939],[0.58357,-0.65047],[-1.18188,1.31737]],[[221.54471,234.76646],[1.20026,-1.10285],[-1.76486,1.62163]],[[222.85114,238.73274],[-2.00939,0.01185],[0.89884,-0.0053]],[[225.54786,238.73274],[-0.89885,0],[3.76552,0]],[[231.91728,233.92451],[-1.32991,3.76642],[0.28503,-0.80722]],[[232.81463,231.11122],[0.01233,0.89998],[-0.01455,-1.06246]],[[232.43989,227.93753],[0.09102,1.06798],[-0.37083,0.13713]],[[231.44076,228.29337],[0.27523,-0.10593],[-1.20789,0.46487]],[[226.96365,229.57113],[1.55012,0.01633],[-0.29069,0.82963]]],&quot;closed&quot;:true}]}" fill="#424347"/><path d="M239.04806,221.12854c-0.05087,0.01128 -0.10143,0.02323 -0.15062,0.0349c-0.62224,0.19355 -3.40635,1.36022 -4.84512,1.33379c-0.00202,-0.01228 -0.02377,-0.12205 -0.02563,-0.13403c-0.69835,-2.28201 -0.79213,-4.53238 -0.85782,-6.85892c0.18372,-2.67564 0.59185,-5.27249 0.60316,-7.92812c0.06956,-0.01519 0.14805,-0.13819 0.20257,-0.17465c0.02373,-0.01586 0.04756,-0.03204 0.07078,-0.04864l0.00727,0.01834l0.93386,-0.43258c0.25317,-0.11084 0.40445,-0.28535 0.40445,-0.60075c0,-0.41421 -0.30417,-0.74876 -0.68445,-0.74876c-0.04303,0 -0.08457,0.00444 -0.12542,0.01267l-0.79247,0.14524l0.00525,0.03462l-0.07724,-0.01704c-0.23308,0.12576 -0.46271,0.25183 -0.69579,0.37759c-0.85756,-0.06127 -1.86941,0.32151 -2.18211,1.13232c-0.25275,0.65536 0.66569,4.06926 0.78491,4.90588c0.1048,0.73544 0.1805,1.46387 0.22276,2.20003c-0.05733,1.26561 -0.09475,2.4562 -0.09475,3.75933c0,1.3576 -0.40848,3.72432 0.40856,4.87246c0.2012,0.28273 0.45743,0.48202 0.76156,0.61491c0.21819,0.81609 0.49963,1.96858 0.36848,2.21552c-0.29207,0.54996 -1.9301,0.9378 -2.31626,1.08608c-1.08712,0.41746 -2.71578,1.34051 -4.09552,1.18473c-0.13349,-0.07013 -0.25598,-0.08544 -0.36249,-0.06885c-0.32407,-0.08777 -0.63327,-0.25003 -0.91039,-0.5058c-0.52918,-0.4884 0.20638,-5.11324 0.3237,-5.88c-0.00446,-3.70355 -0.69878,-7.50392 -1.36351,-11.13006c-0.05436,-0.29652 -0.83469,-3.12728 -0.62391,-3.43669c0.63665,-0.93452 4.43257,-1.24709 5.4792,-1.43083c3.60958,-0.65528 7.1198,-1.56397 10.5794,-2.78663c-0.01493,0.08412 -0.01477,0.14256 -0.01477,0.14256c0.00465,4.08912 0.53533,8.29008 0.94902,12.34337c0.0926,0.90733 0.6758,3.68803 0.32414,4.49633c-0.12012,0.27609 -0.29417,0.48728 -0.49831,0.64744c-0.27299,-0.0468 -0.54009,-0.1155 -0.79783,-0.21283c0,0 -0.65584,-0.23291 -0.87358,0.4786c-0.04154,0.13574 -0.05237,0.2556 -0.04109,0.35847z" data-paper-data="{&quot;noHover&quot;:false,&quot;origItem&quot;:[&quot;Path&quot;,{&quot;applyMatrix&quot;:true,&quot;segments&quot;:[[[239.05241,220.7401],[-0.04154,0.13574],[0.21774,-0.71151]],[[239.92337,220.26575],[0,0],[0.25774,0.09733]],[[240.7206,220.47971],[-0.27299,-0.0468],[0.20414,-0.16016]],[[241.21722,219.83584],[-0.12012,0.27609],[0.35166,-0.8083]],[[240.88883,215.36133],[0.0926,0.90733],[-0.41369,-4.05329]],[[239.96093,203.05926],[0.00465,4.08912],[0,0]],[[239.97586,202.91682],[-0.01493,0.08412],[-3.45961,1.22266]],[[229.43646,205.70835],[3.60958,-0.65528],[-1.04663,0.18375]],[[223.9762,207.12528],[0.63665,-0.93452],[-0.21079,0.30941]],[[224.60574,210.5534],[-0.05436,-0.29652],[0.66473,3.62614]],[[225.96439,221.6266],[-0.00446,-3.70355],[-0.11732,0.76676]],[[225.63023,227.49664],[-0.52918,-0.4884],[0.27713,0.25577]],[[226.53753,228.00048],[-0.32407,-0.08777],[0.10651,-0.01659]],[[226.89891,228.06871],[-0.13349,-0.07013],[1.37974,0.15578]],[[230.98118,226.87936],[-1.08712,0.41746],[0.38616,-0.14829]],[[233.28709,225.79278],[-0.29207,0.54996],[0.13114,-0.24695]],[[232.92354,223.67711],[0.21819,0.81609],[-0.30413,-0.13289]],[[232.15706,223.06212],[0.2012,0.28273],[-0.81704,-1.14814]],[[231.73594,218.18676],[0,1.3576],[0,-1.30313]],[[231.8185,214.34075],[-0.05733,1.26561],[-0.04227,-0.73616]],[[231.6092,212.13296],[0.1048,0.73544],[-0.11922,-0.83662]],[[230.82812,207.22589],[-0.25275,0.65536],[0.3127,-0.81081]],[[233.02291,206.09227],[-0.85756,-0.06127],[0.23308,-0.12576]],[[233.72215,205.71499],[-0.23308,0.12576],[0,0]],[233.79979,205.73208],[233.79449,205.69745],[[234.59071,205.55291],[0,0],[0.04085,-0.00823]],[[234.7167,205.54038],[-0.04303,0],[0.38028,0]],[[235.40525,206.29038],[0,-0.41421],[0,0.3154]],[[234.97335,206.98655],[0.25317,-0.11084],[0,0]],[234.04408,207.42034],[[234.03687,207.40201],[0,0],[-0.02322,0.0166]],[[233.96646,207.45073],[0.02373,-0.01586],[-0.05452,0.03645]],[[233.77912,207.52677],[0.06956,-0.01519],[-0.01131,2.65563]],[[233.21477,215.50453],[0.18372,-2.67564],[0.06569,2.32655]],[[234.03659,222.41203],[-0.69835,-2.28201],[0.00186,0.01198]],[[234.04242,222.44842],[-0.00202,-0.01228],[1.43877,0.02642]],[[238.86211,221.13151],[-0.62224,0.19355],[0.04919,-0.01168]],[[239.01231,221.09718],[-0.05087,0.01128],[-0.01128,-0.10286]]],&quot;closed&quot;:true}]}" fill="#3b3d48"/></g><g stroke="none" stroke-width="0.5" stroke-linecap="butt"><path d="M207.89614,186.14522c2.99536,-1.61379 6.98428,-2.12378 10.31342,-2.50839l0.18694,0.03207c0.11313,-0.57885 0.07733,-1.09012 0.0505,-1.92046c0,0 -0.00483,-0.15159 0.05802,-0.3206c-0.03573,-0.07573 -0.06193,-0.16605 -0.07438,-0.27372c-0.08607,-0.74505 0.65897,-0.83112 0.65897,-0.83112c0.65616,-0.07553 2.35925,-0.60519 2.91876,-0.2623c1.15135,0.70559 1.24785,2.01707 0.82182,3.15807c0.07473,0.08273 0.11304,0.15359 0.11304,0.15359c0.93114,1.72271 1.86228,3.44543 2.7934,5.16813l0.06831,0.1264c0.11939,0.06062 0.19359,0.13024 0.19359,0.13024c1.06528,1.00088 2.33791,1.38221 3.41426,2.31188c1.40809,1.21619 2.09005,3.79362 2.67271,5.49262l-0.0501,0.65672c0,0 -0.01823,0.0611 -0.06187,0.14237c0.43996,1.00988 0.66632,2.00434 0.44616,3.28857c-1.42307,4.72534 -5.62249,6.99584 -9.68956,9.19411c-2.34952,1.26992 -4.38871,2.63885 -5.62265,-0.46964c-0.22225,-0.11824 -0.33833,-0.333 -0.33833,-0.333l-0.43443,-0.91657c-0.30691,-2.76198 -1.98324,-6.93442 -3.91351,-9.03441c-1.87294,-2.03763 -4.61952,-2.80298 -6.56031,-4.75124c-1.73472,0.38546 -3.31007,0.44117 -3.7668,-0.74326c-0.26479,-0.68668 0.55839,-2.32797 0.85281,-3.25276c-1.92435,-3.15375 1.43829,-3.76614 4.54611,-3.68537c0.04982,-0.36096 0.40309,-0.5519 0.40309,-0.5519zM230.00332,195.23183c0.01851,-0.01 0.03677,-0.0192 0.05481,-0.02765c-0.3928,-1.15332 -0.89696,-2.34465 -1.64913,-2.98052c-0.96458,-0.81545 -2.1066,-1.23885 -3.10551,-2.04489c-0.39667,-0.01885 -0.6071,-0.4082 -0.6071,-0.4082c-0.83305,-1.54125 -1.8897,-3.49618 -2.76986,-5.12458c-0.32879,0.32944 -0.70287,0.56831 -1.08562,0.66322l-0.37817,0.04384c0.0175,0.32714 0.04205,0.65393 0.07674,0.97955c0.6781,0.22649 1.05785,0.77098 0.7618,1.72103c1.24426,1.67014 4.28872,2.5984 5.21742,4.40483c0.82788,1.61033 -1.02627,4.5086 -0.96534,6.38588c0.01666,0.51337 0.38042,1.97202 -0.14461,2.24085c-0.86052,0.44062 -2.66548,-1.10706 -3.37536,-1.53546c-0.71685,-0.77552 -2.47204,-1.96029 -3.01226,-2.70397c-0.982,-1.35187 -0.21551,-4.08782 -0.45143,-5.74805c-0.07886,0.04174 -0.1606,0.08521 -0.24589,0.13163l-0.31688,-0.00019c0.02146,0.03885 0.04305,0.07839 0.06481,0.11864l0.20951,0.38761c0,0 0.35662,0.65979 -0.30317,1.01641c-0.65979,0.35662 -1.01641,-0.30317 -1.01641,-0.30317l-0.20951,-0.38761c-0.23403,-0.43298 -0.30367,-0.97671 -0.65132,-1.32509c-0.2711,-0.27167 -1.52838,0.0748 -1.80836,0.10715c-1.31257,0.01404 -0.05357,1.24584 -1.20453,2.20537c-0.75352,0.62819 -1.41708,0.08066 -2.16257,0.07274c-0.70787,-0.00753 -1.9789,0.40883 -3.34544,0.80531c1.85682,1.54556 4.25567,2.33146 5.93191,4.17342c2.16013,2.37368 3.94146,6.77624 4.31298,9.89209l0.24201,0.34428c0.28803,0.13054 0.40442,0.44586 0.40442,0.44586c0.80963,2.25945 2.65826,0.26127 4.32086,-0.63737c3.38525,-1.82975 7.00756,-3.86117 8.16865,-7.80412c0.29213,-1.49559 -0.42645,-2.54912 -1.12095,-3.83404l-0.13967,-0.25841c0,0 -0.35662,-0.65979 0.30317,-1.01641zM219.94625,181.70064c0.02812,0.89305 0.03812,1.53237 -0.08583,2.2122c0.00055,-0.00007 0.00081,-0.0001 0.00081,-0.0001l0.76384,-0.08792c0.86496,-0.0083 1.05886,-2.31586 0.69046,-2.43371c-0.1726,-0.05521 -0.82946,0.1225 -1.37316,0.26499c0.00334,0.02802 0.00388,0.04452 0.00388,0.04452zM220.02936,190.72628c0.17681,1.00921 -0.45351,4.49204 0.14507,5.1604c0.69417,0.77507 1.9928,1.59766 2.80517,2.49917c0.16292,0.09438 0.70367,0.33023 1.12095,0.61893c-0.05309,-0.58358 -0.05353,-1.28572 -0.02712,-1.67331c0.05493,-0.806 1.51872,-3.53112 1.1257,-4.15972c-0.9175,-1.46748 -3.24815,-2.3987 -4.64084,-3.72504c-0.1768,0.24368 -0.37146,0.47502 -0.58272,0.68857c-0.02565,0.02594 -0.05109,0.05106 -0.07635,0.07541zM218.2132,189.43831c0.59538,-0.51038 1.42391,-1.28988 1.68033,-1.65993c-0.24039,0.01098 -0.40537,-0.07826 -0.51744,-0.19243c-1.22514,0.19154 -3.101,1.23695 -1.21061,1.82983c0,0 0.01828,0.00731 0.04772,0.02253zM210.94447,188.78387c0,0 -0.45627,0.01454 -0.66822,-0.33503c-1.91885,-0.32278 -7.43341,-1.05996 -6.04287,1.18355c0.13503,0.09714 0.20608,0.22595 0.24207,0.34936c0.08732,0.1544 0.25689,0.55621 -0.09584,0.89853c-0.21896,0.81648 -0.53283,1.51477 -0.84943,2.32164c-0.12859,0.32772 0.69115,-0.13501 1.03853,-0.19211c0.83008,-0.13645 1.52403,-0.36307 2.32666,-0.63576c1.16942,-0.3973 2.7818,-0.75037 4.03411,-0.75281c0.42658,-0.00083 0.92857,0.49562 1.25953,0.22649c0.32732,-0.26618 -0.15393,-0.87554 0.00669,-1.26567c0.50648,-1.2302 0.88178,-1.05521 1.92468,-1.22902c0.67692,-0.0782 1.21068,-0.10603 1.65642,-0.04937c-0.06208,-0.22237 -0.07611,-0.43768 -0.04952,-0.64423c-1.57324,0.14769 -3.21845,0.07458 -4.78278,0.12446z" fill="#000000"/><path d="M218.14189,189.45987c-1.89039,-0.59289 0.04045,-1.7213 1.2656,-1.91283c0.11207,0.11417 0.28951,0.21833 0.5299,0.20734c-0.25642,0.37003 -1.15028,1.21871 -1.74564,1.72909c-0.02945,-0.01522 -0.04985,-0.02359 -0.04985,-0.02359z" data-paper-data="{&quot;noHover&quot;:false,&quot;origItem&quot;:[&quot;Path&quot;,{&quot;applyMatrix&quot;:true,&quot;segments&quot;:[[[467.52014,378.80687],[-0.03734,-0.05477],[1.53289,-0.33178]],[[472.05514,377.4843],[-0.80306,0.4072],[-0.43338,-0.20928]],[[471.32774,376.65365],[0.08859,0.30745],[-2.33771,-0.82811]],[[467.4576,378.72186],[-2.7622,-2.84089],[0,0]]],&quot;closed&quot;:true}]}" fill="#ff0000"/><path d="M219.87187,190.16882c0.02525,-0.02436 0.05163,-0.05008 0.07728,-0.07601c0.21126,-0.21354 0.41348,-0.44873 0.59028,-0.69241c1.3927,1.32635 3.78927,2.287 4.70678,3.75448c0.39302,0.62861 -1.09538,3.41526 -1.15031,4.22126c-0.02642,0.38759 -0.03255,1.09247 0.02054,1.67605c-0.41728,-0.28869 -0.96798,-0.52232 -1.13091,-0.61668c-0.81237,-0.90151 -2.15681,-1.74358 -2.85098,-2.51865c-0.59858,-0.66835 0.04256,-4.22201 -0.13426,-5.23123z" data-paper-data="{&quot;noHover&quot;:false,&quot;origItem&quot;:[&quot;Path&quot;,{&quot;applyMatrix&quot;:true,&quot;segments&quot;:[[[469.49072,382.80012],[0,0],[-0.64867,1.94381]],[[464.83851,392.01747],[-0.41758,-1.74517],[0.48426,2.02384]],[[467.39735,399.08228],[-0.57199,-2.35872],[0.1969,0.32098]],[[468.78101,401.23726],[-0.45963,-0.90478],[0.46157,-1.07727]],[[470.3246,398.26738],[-0.41507,0.65682],[0.86314,-1.36588]],[[476.26104,392.01912],[0.0937,1.47976],[-0.21875,-3.45448]],[[471.63821,381.05177],[1.18903,3.65805],[-0.54281,0.26063]],[[469.95814,381.7091],[0.57477,-0.17481],[-0.0698,0.02123]],[[469.7521,381.76918],[0.0676,-0.01885],[0,0]]],&quot;closed&quot;:true}]}" fill="#ff0000"/><path d="M219.91441,181.61468c0.5437,-0.14249 1.25426,-0.32165 1.42684,-0.26643c0.3684,0.11784 0.15041,2.51825 -0.71455,2.52656l-0.78974,0.08166c0,0 -0.0003,0.00002 -0.00084,0.00008c0.12396,-0.67983 0.10945,-1.40374 0.08135,-2.29679c0,0 0.00028,-0.01705 -0.00306,-0.04509z" data-paper-data="{&quot;noHover&quot;:false,&quot;origItem&quot;:[&quot;Path&quot;,{&quot;applyMatrix&quot;:true,&quot;segments&quot;:[[[477.92773,366.84102],[0,0],[-0.79982,1.598]],[[475.67294,370.65163],[0.86461,-1.07823],[0.00102,0.0004]],[475.67448,370.65224],[[477.10202,371.22395],[0,0],[1.52973,0.80796]],[[480.63126,367.59862],[0.53609,0.55769],[-0.25116,-0.26128]],[[477.96326,366.759],[1.09212,0.26636],[-0.02077,0.05249]]],&quot;closed&quot;:true}]}" fill="#0032ff"/><path d="M215.7766,188.65134c-0.02658,0.20655 -0.01202,0.42657 0.05006,0.64893c-0.44574,-0.05666 -0.97956,-0.02943 -1.65647,0.04878c-1.04288,0.17381 -1.41957,0.0151 -1.92605,1.24529c-0.16062,0.39013 0.31414,1.01436 -0.01318,1.28056c-0.33095,0.26915 -0.83864,-0.22008 -1.26522,-0.21925c-1.2523,0.00243 -2.93209,0.36023 -4.10152,0.75753c-0.80264,0.27269 -1.50569,0.48985 -2.33578,0.6263c-0.34738,0.0571 -1.16915,0.51687 -1.04056,0.18915c0.3166,-0.80687 0.62415,-1.52005 0.84311,-2.33653c0.35273,-0.34233 0.18181,-0.75353 0.0945,-0.90792c-0.03599,-0.12341 -0.10709,-0.25602 -0.24211,-0.35317c-1.39053,-2.24351 4.20921,-1.54044 6.12806,-1.21766c0.21195,0.34957 0.67779,0.34827 0.67779,0.34827c1.56432,-0.04989 3.2141,0.03742 4.78735,-0.11027z" data-paper-data="{&quot;noHover&quot;:false,&quot;origItem&quot;:[&quot;Path&quot;,{&quot;applyMatrix&quot;:true,&quot;segments&quot;:[[[455.35362,370.74296],[2.79975,1.39988],[0,0]],[[454.49653,369.51802],[0.04047,0.81662],[-3.06915,-2.3927]],[[442.73893,365.85372],[-0.31301,-5.2697],[0.14519,0.29933]],[[442.83261,366.6986],[0.05403,-0.25136],[0.0068,0.35469]],[[441.80948,368.18836],[0.94617,-0.26686],[-1.16169,1.22832]],[[438.10712,371.46534],[1.32437,-1.11857],[-0.53791,0.45432]],[[440.11705,372.11496],[-0.66551,-0.22989],[1.59024,0.54932]],[[444.81527,373.209],[-1.67151,-0.28352],[2.43537,0.41308]],[[452.62894,375.72086],[-2.20566,-1.18664],[0.75132,0.40421]],[[454.62961,377.31713],[-0.83824,0.15881],[0.82904,-0.15707]],[[455.845,375.09662],[-0.6536,0.53365],[2.06102,-1.6828]],[[460.40012,374.76457],[-2.00018,-0.68598],[1.26536,0.50614]],[[463.36146,376.25293],[-0.73039,-0.52358],[0.10223,-0.45029]],[[463.88698,375.07234],[-0.24319,0.33812],[-2.90847,-1.23628]]],&quot;closed&quot;:true}]}" fill="#0032ff"/><path d="M229.74973,196.24175l0.13985,0.25986c0.6945,1.28492 1.41155,2.35678 1.11941,3.85236c-1.16109,3.94296 -4.82108,6.00997 -8.20634,7.83972c-1.66261,0.89865 -3.53052,2.89716 -4.34016,0.63771c0,0 -0.11849,-0.31573 -0.40652,-0.44627l-0.24339,-0.34461c-0.37152,-3.11584 -2.19036,-7.56226 -4.35049,-9.93594c-1.67624,-1.84196 -4.07354,-2.64564 -5.93036,-4.1912c1.36655,-0.39648 2.64026,-0.82029 3.34813,-0.81276c0.74549,0.00793 1.41163,0.55052 2.16515,-0.07768c1.15096,-0.95952 -0.09928,-2.20223 1.2133,-2.21628c0.27997,-0.03235 1.54412,-0.3842 1.81521,-0.11252c0.34765,0.34839 0.47314,0.97506 0.70717,1.40805l0.15219,0.30566c0,0 0.36187,0.65656 1.02165,0.29993c0.65979,-0.35662 0.30872,-1.01896 0.30872,-1.01896l-0.17306,-0.29449c-0.02176,-0.04024 -0.08031,-0.17272 -0.10176,-0.21156l0.31898,-0.0006c0.08528,-0.0464 0.19794,0.0052 0.27679,-0.03654c0.23592,1.66022 -0.49884,4.36742 0.48316,5.71929c0.54021,0.74368 2.21957,1.86907 2.93642,2.64459c0.70987,0.42839 2.50424,1.98665 3.36476,1.54603c0.52502,-0.26883 0.15326,-1.71103 0.13661,-2.2244c-0.06092,-1.87727 1.80294,-4.73041 0.97506,-6.34073c-0.9287,-1.80645 -3.93897,-2.71679 -5.18322,-4.38693c0.29605,-0.95005 -0.07962,-1.49435 -0.75772,-1.72084c-0.0347,-0.32562 -0.05915,-0.7524 -0.07665,-1.07955l0.37973,-0.04382c0.38274,-0.09491 0.76095,-0.3335 1.08975,-0.66293c0.88016,1.6284 1.95524,3.58915 2.7883,5.1304c0,0 0.21403,0.3915 0.61068,0.41036c0.99891,0.80604 2.15507,1.24359 3.11965,2.05904c0.75216,0.63588 1.26328,1.84333 1.65608,2.99664c-0.01804,0.00844 -0.03628,0.01771 -0.05479,0.02772c-0.65979,0.35662 -0.30228,1.02129 -0.30228,1.02129z" data-paper-data="{&quot;noHover&quot;:false,&quot;origItem&quot;:[&quot;Path&quot;,{&quot;applyMatrix&quot;:true,&quot;segments&quot;:[[[482.75458,400.21246],[-1.5,0],[0.04208,0]],[[482.8773,400.21594],[-0.03975,-0.00229],[0.40568,-2.40273]],[[482.81021,393.4036],[0.71867,1.83408],[-0.92163,-2.35203]],[[479.29091,386.85244],[0.991,2.36813],[-0.67997,-0.41039]],[[478.61094,385.55689],[0,0],[0,-3.50396]],[[478.61094,373.90641],[0,3.70209],[-0.89177,0.26695]],[[476.07015,374.04091],[0.76367,0.19701],[0,0]],[[475.36308,373.75841],[0,0],[-0.28033,0.59223]],[[474.56657,375.55486],[0.24863,-0.60591],[0.97768,1.04337]],[[474.27023,379.30737],[1.42437,-1.39002],[0.60092,4.12177]],[[479.26104,392.01912],[0.0839,-4.06152],[-0.07479,3.62058]],[[471.48969,402.33665],[1.67808,-3.36089],[-0.4589,0.91908]],[[469.10425,406.14178],[1.1794,0.0263],[-1.93306,-0.0431]],[[464.62571,400.23033],[0.84158,1.4288],[-0.52374,-2.04619]],[[461.89726,392.60825],[0.24324,1.82219],[-0.44216,-3.31241]],[[466.56932,382.06561],[-1.16377,3.14543],[-0.17844,-0.00156]],[[466.01153,382.06335],[0.19419,-0.00053],[0,0]],[[465.45416,381.76167],[0,0],[0.00081,0.08875]],[[465.45536,382.03204],[0,-0.0915],[0,0]],[465.45536,382.91325],[[463.95536,384.41325],[1.5,0],[-1.5,0]],[462.45536,382.91325],[[462.45536,382.03204],[0,0],[0,-0.98435]],[[462.56954,379.08121],[0.28036,0.94358],[-0.21862,-0.73579]],[[459.28595,377.55],[0.52336,0.20934],[-2.32275,-1.22352]],[[455.06937,380.28472],[2.93755,-0.59369],[-1.92318,0.38868]],[[451.19529,378.35613],[1.3041,0.7229],[-1.2383,-0.68643]],[[444.54335,376.59154],[2.78141,0.602],[1.79716,4.48514]],[[451.01133,389.57559],[-1.19756,-4.8349],[1.54327,6.23062]],[[449.1925,411.08168],[2.30947,-5.83544],[0,0]],[[449.29088,411.91757],[0,0],[0.38264,0.5036]],[[449.57845,413.08663],[0,0],[-0.7242,4.74532]],[[457.78687,416.0743],[-3.77985,0],[7.6962,0]],[[479.58072,410.11169],[-5.79255,5.83321],[1.93629,-2.35358]],[[481.25458,402.29994],[0,2.92119],[0,0]],[481.25458,401.71246]],&quot;closed&quot;:true}]}" fill="#0032ff"/></g><g stroke="none" stroke-width="0.5" stroke-linecap="butt"><path d="M218.02073,197.30593c1.4007,4.15701 1.06107,10.63044 0.14443,14.89467c-0.35663,1.65905 -2.09196,3.65228 -1.39127,5.3326c0.72738,1.05549 1.47774,0.75406 2.23753,1.60772c1.03815,1.16643 0.12079,2.12813 2.11803,2.26156c1.12634,0.07525 2.18582,-1.57484 3.40209,-0.70375c0.46045,0.32978 0.14562,1.59564 0.29124,2.10448c0.08362,0.2922 0.34735,-0.49955 0.50153,-0.76148c0.3687,-0.62639 0.681,-1.28584 0.97236,-1.95174c0.7772,-1.77627 0.94576,-3.17685 0.67371,-5.08119c0.00812,-4.63643 -2.5532,-9.04371 -3.08132,-13.6271c-0.23299,-2.02207 -0.04341,-4.20592 -0.00971,-6.27201c-1.99197,0.38214 -3.88231,0.62179 -6.00108,0.62179c-0.0319,-0.00079 -0.06355,-0.00183 -0.09497,-0.00314c0.08508,0.52494 0.16382,1.05094 0.23743,1.5776zM225.37942,201.21197c0.531,4.61856 3.07931,9.00999 3.08718,13.69051c0.40298,2.82085 -0.27272,5.55065 -1.87879,7.94769c-0.40089,0.59833 -1.41114,1.92123 -2.43585,1.29469c-1.44439,-0.88315 -1.06701,-1.56146 -0.58998,-2.30159c0.28895,-0.44831 -0.83355,0.70637 -1.33945,0.87532c-0.91952,0.30709 -1.86645,0.21685 -2.75896,-0.1837c-1.45218,-0.65171 -0.79738,-1.47969 -1.5435,-2.36492c-0.62858,-0.74576 -1.7025,-0.87761 -2.46227,-1.91713c-0.95323,-2.43929 0.75431,-4.08401 1.25237,-6.41691c0.87136,-4.08138 1.16413,-10.20645 -0.14931,-14.18536c-0.09519,-0.65367 -0.19496,-1.30674 -0.3036,-1.95831l-0.0102,-0.27017c0,0 0,-0.01128 0.00138,-0.03108c-3.62703,-1.63688 -1.65973,-8.66703 1.51935,-10.58775c1.95753,-1.18268 4.1305,0.29998 6.07553,0.94832c0,0 0.71151,0.23717 0.47434,0.94868c-0.10013,0.30038 -0.2848,0.43168 -0.46478,0.48312c0.99362,1.62466 4.58481,4.94633 3.60613,7.04259c-0.14767,0.31631 -1.4913,0.48005 -2.07597,0.57955c-0.0184,2.09766 -0.2409,4.34267 -0.00363,6.40646zM222.12484,186.63532c-1.01317,-0.47668 -2.19204,-1.02816 -2.96009,-0.89926c-3.07465,0.51601 -5.17575,8.63015 -1.28647,8.49542c2.49615,0 4.62261,-0.34746 7.04385,-0.8655c0.42165,-0.09021 1.27988,0.45209 1.2934,0.02111c0.04811,-1.53352 -2.92338,-4.22964 -3.72186,-5.56265l-0.31821,-0.78907c0,0 -0.07346,-0.18365 -0.05062,-0.40005z" fill="#000000"/><path d="M222.19415,186.98899l0.32816,0.79447c0.79848,1.333 3.78318,4.09744 3.73507,5.63096c-0.01352,0.43098 -0.87575,-0.106 -1.2974,-0.01579c-2.42125,0.51803 -4.61508,0.87321 -7.11123,0.87321c-3.88928,0.13473 -1.77845,-8.06569 1.29621,-8.58171c0.76805,-0.1289 1.98279,0.42116 2.99595,0.89784c-0.02284,0.2164 0.05323,0.40102 0.05323,0.40102z" data-paper-data="{&quot;noHover&quot;:false,&quot;origItem&quot;:[&quot;Path&quot;,{&quot;applyMatrix&quot;:true,&quot;segments&quot;:[[[222.12484,186.63532],[-0.02284,0.2164],[-1.01317,-0.47668]],[[219.16474,185.73606],[0.76805,-0.1289],[-3.07465,0.51601]],[[217.87827,194.23148],[-3.88928,0.13473],[2.49615,0]],[[224.92212,193.36598],[-2.42125,0.51803],[0.42165,-0.09021]],[[226.21552,193.38708],[-0.01352,0.43098],[0.04811,-1.53352]],[[222.49366,187.82444],[0.79848,1.333],[0,0]],[222.17545,187.03536]],&quot;closed&quot;:true}]}" fill="#0032ff"/><path d="M217.76864,195.68053c0.03141,0.00131 0.06338,0.00226 0.09528,0.00305c2.11877,0 4.03069,-0.24122 6.02266,-0.62336c-0.0337,2.06609 -0.21757,4.25112 0.01542,6.27319c0.52811,4.58339 3.10888,9.07706 3.10076,13.71349c0.27205,1.90434 0.08968,3.31325 -0.68751,5.08952c-0.29136,0.66589 -0.60939,1.32725 -0.97809,1.95364c-0.15417,0.26193 -0.42025,1.05424 -0.50387,0.76204c-0.14561,-0.50884 0.16986,-1.77484 -0.29059,-2.10462c-1.21627,-0.87109 -2.28981,0.78017 -3.41615,0.70492c-1.99724,-0.13343 -1.09044,-1.0969 -2.12859,-2.26333c-0.75979,-0.85366 -1.52222,-0.55739 -2.2496,-1.61289c-0.7007,-1.68032 1.02248,-3.68367 1.37911,-5.34273c0.91664,-4.26423 1.27839,-10.81803 -0.12231,-14.97504c-0.0736,-0.52666 -0.15143,-1.05295 -0.23651,-1.57789z" data-paper-data="{&quot;noHover&quot;:false,&quot;origItem&quot;:[&quot;Path&quot;,{&quot;applyMatrix&quot;:true,&quot;segments&quot;:[[[218.02073,197.30593],[-0.0736,-0.52666],[1.4007,4.15701]],[[218.16516,212.20061],[0.91664,-4.26423],[-0.35663,1.65905]],[[216.77389,217.5332],[-0.7007,-1.68032],[0.72738,1.05549]],[[219.01142,219.14092],[-0.75979,-0.85366],[1.03815,1.16643]],[[221.12945,221.40249],[-1.99724,-0.13343],[1.12634,0.07525]],[[224.53154,220.69874],[-1.21627,-0.87109],[0.46045,0.32978]],[[224.82278,222.80322],[-0.14561,-0.50884],[0.08362,0.2922]],[[225.3243,222.04174],[-0.15417,0.26193],[0.3687,-0.62639]],[[226.29666,220.09],[-0.29136,0.66589],[0.7772,-1.77627]],[[226.97037,215.00881],[0.27205,1.90434],[0.00812,-4.63643]],[[223.88905,201.3817],[0.52811,4.58339],[-0.23299,-2.02207]],[[223.87934,195.10969],[-0.0337,2.06609],[-1.99197,0.38214]],[[217.87827,195.73148],[2.11877,0],[-0.0319,-0.00079]],[[217.7833,195.72833],[0.03141,0.00131],[0.08508,0.52494]]],&quot;closed&quot;:true}]}" fill="#fff1e2"/></g><g stroke="none" stroke-width="0.5" stroke-linecap="butt"><path d="M240.43987,166.19511c1.24344,1.40994 1.32778,2.51447 1.58775,4.02858l-0.03845,0.7597c0,0 -0.01655,0.2049 -0.15565,0.34136c1.31606,4.14162 2.80341,8.39697 2.87134,12.26632c0.02852,1.6238 -0.09817,3.42942 -1.54102,4.1418c-1.00091,0.49419 -2.4141,0.60922 -3.61607,0.75309c-2.89757,0.62842 -5.8317,0.18668 -8.95481,0.21109c-5.72942,0.04476 -11.44333,-0.12806 -17.3242,-0.47266c-1.63797,-0.12709 -3.32333,-1.13155 -4.71325,-2.57502c-0.38963,-0.40464 -1.11906,-1.78655 -1.6439,-2.05579c-0.82723,-0.42437 -2.5096,-0.18101 -3.23141,-0.26025c-5.06518,-0.55602 -8.60866,-1.89919 -11.3627,-7.40645c-2.17877,-4.38402 -3.25897,-8.81045 -4.62166,-13.22405l-0.11341,-0.36734c0,0 -0.00335,-0.01085 -0.00802,-0.02992c-2.14786,-1.77334 -4.03516,-4.7876 -4.74217,-6.86777c-1.75709,-4.24821 -3.68517,-10.72064 -1.3663,-13.67429c2.27493,-2.89771 6.58402,-4.17356 10.00015,-5.69057c7.58326,-3.01866 18.4964,-1.13803 27.61435,-0.60373c4.52773,0.26531 9.45751,-0.1476 14.19368,1.13187c4.54421,1.22761 9.076,4.13717 13.60727,5.18616l0.8405,0.04925c0.41364,0.02424 0.85575,0.38979 0.9875,0.8165c0.06587,0.21336 0.04167,0.40159 -0.05069,0.53347l-0.60668,0.86618l-0.22978,-0.19c-2.0602,3.04958 -6.88144,4.54053 -11.00271,4.73562c0.21273,0.26562 0.24631,0.55466 0.24631,0.55466c0.30218,2.60305 0.699,5.25595 1.19528,7.93356c0.57415,0.48195 1.13103,1.1396 1.69539,2.04201l0.4082,0.91341c0,0 0.34207,0.77105 -0.36562,0.83687c-0.70769,0.06582 -1.04976,-0.70524 -1.04976,-0.70524l-0.14196,-0.32277c0.43307,2.06271 0.92553,4.13485 1.47953,6.20509c0.09484,0.07608 0.15301,0.13931 0.15301,0.13931zM195.1987,171.08623c0.77516,0.15272 0.90538,0.91135 0.90538,0.91135l0.11452,1.16549c-0.73787,0.48682 -0.81192,0.75687 -1.86216,0.6759c-0.67726,-0.05221 -1.27405,-0.28012 -1.78981,-0.62697c0.34119,0.83429 0.71321,1.66711 1.12609,2.49788c2.37147,4.80652 5.18136,5.60293 9.58555,6.08449c1.14072,0.12473 2.77545,-0.14843 4.00374,0.5244c2.14486,1.17489 2.81569,4.27933 5.50963,4.36038c5.85019,0.34281 11.53287,0.51396 17.23205,0.4702c3.05617,-0.02346 5.92073,0.41803 8.75194,-0.1941c1.09086,-0.13057 2.36995,-0.21914 3.29468,-0.64539c1.13996,-0.52548 1.08544,-2.07014 1.0625,-3.28011c-0.07697,-4.06005 -1.8212,-8.61298 -3.15565,-12.9351c-0.24597,-0.79669 -0.48271,-1.59487 -0.71031,-2.39389c-0.04216,0.25077 -0.11564,0.49028 -0.22785,0.71535c-0.59236,1.18826 -2.04474,1.59882 -3.51492,-0.06948c-0.96483,-1.09486 -1.18025,-2.6817 -1.73512,-3.87031c-1.17436,-2.51565 -2.13949,-4.76768 -2.65971,-7.23891c-2.92118,0.17589 -5.56457,1.06226 -5.95035,3.98077c0,0 -0.09276,0.68521 -0.87328,0.32555c-0.78053,-0.35966 -0.68778,-1.04487 -0.68778,-1.04487c0.60228,-4.35633 5.19829,-5.00118 9.59784,-4.81284c0.84687,0.03625 1.6084,0.07493 2.31213,0.19291c0.02446,-0.19913 0.14379,-0.40585 0.54131,-0.38255c0.16958,0.00994 0.31298,0.05723 0.43338,0.12446c-0.40497,-2.31239 -0.73701,-4.60355 -0.9991,-6.85705c0,0 -0.00743,-0.06396 0.00154,-0.14964c-2.38218,-0.06464 -4.99798,-0.61859 -7.20465,-0.27044c-2.59445,-0.14476 -4.80563,0.41869 -7.37377,0.41801c-6.34727,-0.00169 -13.00419,-0.70671 -19.47793,-1.08606c-5.31804,-0.32374 -6.38019,3.50266 -5.76683,8.43013l0.02447,0.033c0,0 0.22252,0.72071 -0.43705,0.73043c-0.30575,2.21165 -0.89905,4.71802 -2.32257,6.03321c-1.08108,0.99882 -2.31808,1.05509 -3.553,0.54239c0.33639,1.11147 0.65826,2.22428 0.98913,3.33706c0.51425,-1.06787 1.79323,-1.05793 3.85281,1.60474c0,0 0.54831,0.71067 -0.0149,1.01694c-0.56321,0.30627 -1.11151,-0.40441 -1.11151,-0.40441c-2.9224,-3.79877 -1.55365,3.79219 1.61535,3.18923l-0.17072,-0.4962c0,0 -0.13022,-0.75864 0.64494,-0.60592zM235.69545,165.56368c0.31301,0.79243 0.34696,2.12701 1.15039,2.35824c1.82946,0.52651 0.42296,-3.57769 0.19153,-4.32531c-0.64377,-2.12645 -0.65319,-4.11965 -1.1624,-6.24432c-0.644,-0.10344 -1.3496,-0.0847 -2.16113,-0.11996c-0.36435,-0.01583 -0.73342,-0.0266 -1.10331,-0.02973c0.55971,2.89367 1.93228,5.44308 3.08492,8.36108zM194.03748,154.8192c-0.37289,-5.172 1.15447,-9.01575 6.93404,-8.68878c6.44562,0.3777 13.07416,1.08062 19.39425,1.08356c2.54635,0.00119 4.73014,-0.57608 7.31216,-0.41666c3.68852,-0.58193 8.42948,1.07272 11.85309,-0.17369c1.55818,-0.56728 3.30207,-1.16526 4.6613,-2.00731c0.72949,-0.45193 1.27352,-1.18771 2.06173,-1.54617c-4.28746,-1.20889 -8.54943,-3.81086 -12.84326,-4.98082c-4.6061,-1.25506 -9.44877,-0.81682 -13.85326,-1.07491c-8.8285,-0.51733 -19.78781,-2.5071 -27.07743,0.5197c-3.18083,1.41292 -8.90664,2.80188 -10.12242,6.33498c-1.0544,3.06414 0.42387,7.89773 1.93519,11.5475c0.86933,2.59607 3.13622,6.87645 6.47532,6.71606c2.36559,-0.11362 2.85624,-5.07454 3.05862,-6.94386c0,0 0.02657,-0.24297 0.21071,-0.36957z" fill="#000000"/><path d="M232.58062,157.15252c0.3699,0.00312 0.7485,0.01241 1.11285,0.02824c0.81152,0.03526 1.53783,0.02002 2.18184,0.12345c0.50921,2.12468 0.56487,4.20438 1.20864,6.33083c0.23142,0.74763 1.60097,4.86414 -0.22849,4.33762c-0.80343,-0.23123 -0.84927,-1.56921 -1.16229,-2.36164c-1.15264,-2.91799 -2.55283,-5.56483 -3.11255,-8.4585z" data-paper-data="{&quot;noHover&quot;:false,&quot;origItem&quot;:[&quot;Path&quot;,{&quot;applyMatrix&quot;:true,&quot;segments&quot;:[[[513.43113,327.1896],[-0.51342,-5.636],[0.13943,1.53055]],[[514.29246,331.71909],[-1.49313,-0.3641],[3.39994,0.82908]],[[517.40701,323.14475],[0.0012,1.45142],[0.02605,-4.1299]],[[518.96845,310.93296],[-0.2994,4.14197],[-1.24843,-0.1299]],[[514.63597,310.94616],[1.63306,-0.02431],[-0.7332,0.01091]],[[512.40427,311.01523],[0.75251,-0.03669],[-0.68066,5.6566]]],&quot;closed&quot;:true}]}" fill="#00ffe2"/><path d="M194.59839,171.68259l0.08203,0.51636c-3.169,0.60297 -4.54106,-6.99466 -1.61866,-3.1959c0,0 0.54876,0.71171 1.11197,0.40544c0.56321,-0.30627 0.01397,-1.01909 0.01397,-1.01909c-2.05957,-2.66266 -3.33988,-2.67607 -3.85413,-1.60819c-0.33086,-1.11279 -0.65462,-2.23203 -0.991,-3.3435c1.23494,0.5127 2.47142,0.45402 3.5525,-0.5448c1.42352,-1.3152 2.01664,-3.83783 2.32239,-6.04949c0.65958,-0.00971 0.43754,-0.73261 0.43754,-0.73261l-0.02445,-0.03304c-0.61336,-4.92746 0.46453,-8.77381 5.78258,-8.45007c6.47373,0.37935 13.17799,1.08949 19.52526,1.09118c2.56813,0.00068 4.79071,-0.55502 7.38516,-0.41026c2.20668,-0.34813 4.82961,0.21224 7.21179,0.27689c-0.00897,0.08568 -0.00143,0.14975 -0.00143,0.14975c0.26208,2.2535 0.60093,4.5524 1.00589,6.86476c-0.12039,-0.06722 -0.33802,-0.07254 -0.50758,-0.08247c-0.39752,-0.0233 -0.51691,0.18334 -0.54138,0.38247c-0.70374,-0.11798 -1.46354,-0.15457 -2.31041,-0.19081c-4.39954,-0.18834 -8.92845,0.40617 -9.53075,4.7625c0,0 -0.08929,0.68908 0.69124,1.04873c0.78053,0.35966 0.80225,-0.27966 0.80225,-0.27966c0.38579,-2.9185 3.10045,-3.85048 6.02162,-4.02637c0.52022,2.47123 1.4959,4.73944 2.67026,7.25509c0.55488,1.18861 0.77421,2.78535 1.73905,3.88021c1.47017,1.66831 2.82267,1.25182 3.41504,0.06356c0.11221,-0.22508 0.28496,-0.46055 0.32712,-0.71132c0.22761,0.79903 0.46582,1.60224 0.71179,2.39893c1.33445,4.32212 3.07863,8.89844 3.1556,12.95846c0.02294,1.20997 0.07508,2.76042 -1.0649,3.2859c-0.92471,0.42626 -2.20648,0.51897 -3.29735,0.64954c-2.83121,0.61213 -5.70722,0.17954 -8.7634,0.203c-5.69918,0.04376 -11.42325,-0.13062 -17.27344,-0.47343c-2.69393,-0.08106 -3.3785,-3.19383 -5.52335,-4.36874c-1.2283,-0.67282 -2.86935,-0.4049 -4.01007,-0.52963c-4.40419,-0.48156 -7.22778,-1.2938 -9.59926,-6.10033c-0.41288,-0.83076 -0.78764,-1.66802 -1.12883,-2.50231c0.51577,0.34686 1.19863,0.55008 1.87589,0.60229c1.05023,0.08097 1.03922,-0.16268 1.77709,-0.64951l-0.11585,-1.16774c0,0 -0.13144,-0.76084 -0.90659,-0.91354c-0.77516,-0.15272 -0.5552,0.58769 -0.5552,0.58769z" data-paper-data="{&quot;noHover&quot;:false,&quot;origItem&quot;:[&quot;Path&quot;,{&quot;applyMatrix&quot;:true,&quot;segments&quot;:[[[427.35252,342.801],[-1.48492,-0.21213],[1.48492,0.21213]],[428.62531,344.49805],[[428.12493,346.78923],[0,0],[-1.81159,1.04805]],[[423.90106,348.34139],[2.09117,0.0384],[-1.34852,-0.02476]],[[420.64524,347.30908],[0.83355,0.62607],[0.17053,1.61006]],[[421.36905,352.1175],[-0.31896,-1.59478],[1.81014,9.22887]],[[437.08887,363.03736],[-8.67992,-0.44188],[2.24815,0.11445]],[[444.925,363.61034],[-2.08161,-1.18802],[3.63495,2.07455]],[[453.41696,371.59348],[-5.44374,0.15187],[11.71667,0]],[[488.26888,370.52663],[-11.65213,0.74685],[6.24841,-0.40049]],[[506.24236,369.12883],[-6.16028,1.53837],[2.30724,-0.38454]],[[513.36891,367.47101],[-2.15457,0.94995],[2.6561,-1.17108]],[[517.60173,360.86238],[-0.71519,2.38973],[2.39984,-8.01873]],[[519.31112,335.65228],[0,8.39121],[0,-1.54673]],[[519.36987,331.00131],[-0.03895,1.55348],[-0.24391,0.50073]],[[518.45463,332.44212],[0.37062,-0.45804],[-1.95655,2.4181]],[[511.32905,332.71198],[1.94807,3.12831],[-1.27845,-2.05301]],[[510.22729,325.26052],[0.38324,2.28586],[-0.81111,-4.83796]],[[509.36105,311.25566],[-0.49519,4.82593],[-6.06906,0.68623]],[[494.71729,319.816],[2.62481,-5.81527],[0,0]],[[492.73104,320.56085],[1.36555,0.6207],[-1.36555,-0.6207]],[[491.9862,318.57459],[0,0],[3.97189,-8.68326]],[[514.59369,307.94646],[-8.8551,0.13735],[1.70452,-0.02644]],[[519.18823,308.05999],[-1.3611,-0.15174],[0.1753,-0.39656]],[[520.53325,307.24087],[-0.79614,0],[0.33962,0]],[[521.33883,307.43673],[-0.20324,-0.11897],[0.63022,-4.5252]],[[523.61924,293.9945],[-0.88458,4.42533],[0,0]],[[523.71662,293.69845],[-0.07226,0.17045],[-4.8182,0.14819]],[[509.19169,293.99846],[4.72017,-0.94403],[-5.2007,0.01436]],[[493.88825,295.67931],[5.23776,-0.2962],[-12.94539,0.73206]],[[454.84329,295.78867],[12.96551,0],[-10.64329,-0.02396]],[[437.77186,313.12516],[1.85202,-9.67168],[0,0]],[437.80099,313.18757],[[436.44954,314.68243],[1.35144,-0.09562],[-2.01643,4.40839]],[[427.91277,326.88058],[3.73179,-2.76537],[-2.83408,2.10014]],[[420.32417,328.36468],[2.19601,0.87063],[-0.01383,2.15867]],[[420.24016,334.84822],[0.02592,-2.1619],[1.7214,-2.17101]],[[427.0881,337.57476],[-2.52407,-5.02607],[0,0]],[[426.41728,339.58723],[1.34164,-0.67082],[-1.34164,0.67082]],[[424.40482,338.91641],[0,0],[-3.5685,-7.17245]],[[425.6912,345.0351],[-6.84351,1.55937],[0,0]],[425.65546,344.07379]],&quot;closed&quot;:true}]}" fill="#fff1e2"/><path d="M193.87089,155.17827c-0.20238,1.86932 -0.77582,6.85968 -3.14141,6.9733c-3.3391,0.16038 -5.61285,-4.13108 -6.48218,-6.72715c-1.51132,-3.64977 -2.99565,-8.50086 -1.94124,-11.56499c1.21578,-3.5331 6.94191,-4.94037 10.12274,-6.35329c7.28962,-3.02681 18.31349,-1.051 27.14199,-0.53366c4.40449,0.2581 9.26902,-0.16157 13.87512,1.09347c4.29383,1.16996 8.56501,3.78526 12.85249,4.99417c-0.78819,0.35846 -1.33142,1.09575 -2.06091,1.54768c-1.35922,0.84205 -3.10213,1.442 -4.6603,2.00928c-3.42359,1.24643 -8.25423,-0.3901 -11.94275,0.19184c-2.58203,-0.15943 -4.75921,0.4275 -7.30556,0.42631c-6.3201,-0.00295 -12.85953,-0.71293 -19.30514,-1.09063c-5.77958,-0.32697 -7.31468,3.49271 -6.94179,8.66471c-0.18413,0.1266 -0.21104,0.36898 -0.21104,0.36898z" data-paper-data="{&quot;noHover&quot;:false,&quot;origItem&quot;:[&quot;Path&quot;,{&quot;applyMatrix&quot;:true,&quot;segments&quot;:[[[435.22821,310.77181],[-0.45531,0.27165],[2.49651,-10.18306]],[[454.84329,292.78867],[-11.58263,0.02314],[12.90919,0]],[[493.71915,292.68408],[-12.88919,0.72643],[5.19302,-0.29268]],[[508.89608,291.01306],[-5.16613,-0.01606],[7.8899,-1.57798]],[[533.18205,289.29631],[-7.768,2.86114],[3.53543,-1.30218]],[[543.95374,284.78733],[-3.30268,1.82242],[1.77254,-0.97809]],[[549.13272,281.49131],[-1.83341,0.80008],[-7.98378,-1.89352]],[[526.07315,273.1311],[8.02131,1.8158],[-8.60463,-1.94785]],[[498.49374,272.61079],[8.82125,0],[-17.68159,0]],[[442.93692,276.7756],[16.77469,-6.82929],[-7.3777,3.16222]],[[418.30087,290.47412],[4.7048,-7.12662],[-4.08031,6.18067]],[[414.97597,313.082],[-0.78417,-7.04133],[0.13829,5.03232]],[[423.95413,325.61097],[-6.91171,0.704],[4.89662,-0.49875]],[[434.56569,311.52694],[-1.58999,3.71954],[0,0]]],&quot;closed&quot;:true}]}" fill="#442300"/><path d="M207.67609,154.65508c0.74896,0.04388 0.9875,0.8165 0.9875,0.8165l0.00244,0.01037c3.73186,0.22881 7.57871,1.39591 10.57053,3.68502c0.47192,0.44624 0.95825,0.87831 1.45764,1.29055l0.5909,0.58587c0,0 0.64021,0.64442 0.18417,1.07288c-0.45604,0.42846 -1.09624,-0.21597 -1.09624,-0.21597l-0.40065,-0.41221c-0.50937,-0.42179 -1.00821,-0.86034 -1.48916,-1.31704c-0.39567,-0.3045 -0.81154,-0.58574 -1.24429,-0.84439c0.74957,2.74239 1.12833,5.47702 1.49777,8.14915c0.11844,0.85661 0.43364,2.82035 -0.19332,3.29373c-2.67619,2.02061 -5.92196,-3.83868 -6.98134,-5.96854c-0.99621,-2.47175 -2.29886,-5.34237 -3.67895,-7.83197c-4.45024,0.00694 -8.58409,1.41314 -10.21454,3.79959c0,0 -0.36091,0.51529 -1.05918,-0.06206c-0.69827,-0.57735 -0.33735,-1.09264 -0.33735,-1.09264c1.88157,-2.63166 6.19734,-4.15141 10.91297,-4.17391l-0.01931,-0.05621c0,0 -0.23854,-0.77261 0.51041,-0.72873zM212.97284,164.65915c0.41559,0.83705 2.86056,5.86194 4.31591,4.79827c0.39599,-0.28942 -0.19944,-2.77316 -0.31863,-3.36057c-0.52625,-2.59365 -0.67771,-5.01844 -1.45616,-7.64823c-1.90444,-0.81907 -4.01585,-1.28078 -6.11223,-1.42766c1.33226,2.46503 2.5951,5.22077 3.57112,7.63819z" fill="#000000"/><path d="M209.36573,156.97328c2.09638,0.14688 4.25525,0.61328 6.15969,1.43235c0.77844,2.62979 0.96167,5.14001 1.48792,7.73366c0.11919,0.58741 0.69731,3.0797 0.30132,3.36912c-1.45535,1.06366 -3.95503,-3.9821 -4.37062,-4.81914c-0.97602,-2.41742 -2.24604,-5.25096 -3.5783,-7.71599z" data-paper-data="{&quot;noHover&quot;:false,&quot;origItem&quot;:[&quot;Path&quot;,{&quot;applyMatrix&quot;:true,&quot;segments&quot;:[[[467.65372,328.03382],[-0.4684,-4.66672],[0.32053,1.60687]],[[473.4351,337.02108],[-3.6383,2.27174],[0.98996,-0.61813]],[[474.90152,330.41336],[-0.12682,1.14764],[0.55997,-5.06727]],[[476.74791,315.45975],[-0.06834,5.10952],[-3.36864,-1.39885]],[[465.17993,313.3451],[4.18347,0.04753],[1.16504,4.71959]]],&quot;closed&quot;:true}]}" fill="#00ffe2"/><path d="M230.4442,172.49258c-0.2305,-0.74654 0.46099,-0.73075 0.50793,-0.72884c0.20695,-0.19424 0.36875,-0.43686 0.49383,-0.70193l-0.18049,-0.15039c-0.5774,-0.54202 -1.13962,-1.10112 -1.68843,-1.67113c0,0 -0.62943,-0.6542 -0.15863,-1.06757c0.4708,-0.41336 1.10024,0.24085 1.10024,0.24085c0.51714,0.53789 1.04723,1.06534 1.59214,1.57604l0.3971,0.32499c0,0 0.45546,0.37659 0.44055,0.79294c0.22347,0.36305 0.09441,0.68578 0.09441,0.68578c-0.23017,0.55205 -0.55774,1.05421 -1.00375,1.42394l-0.60739,0.09182c0,0 -0.74896,-0.04388 -0.9875,-0.8165zM230.92837,171.78565l-0.11714,0.09722c0.04053,-0.03074 0.07956,-0.06319 0.11714,-0.09722z" fill="#000000"/></g><g stroke="none" stroke-width="0.5" stroke-linecap="butt"><path d="M201.69041,174.20389c1.63817,0.52937 7.59764,2.67886 8.35771,1.51141c-0.42638,-0.07397 -0.85187,-0.15234 -1.2759,-0.23479c-2.18189,-0.76017 -7.30919,-1.51467 -9.05403,-3.7743c-0.24854,-0.32185 0.49763,0.64928 0.68694,0.98442c0.2925,0.51783 0.52929,1.01592 0.75112,1.51027c0.2148,-0.10009 0.53417,0.003 0.53417,0.003zM214.48061,189.38777l-0.0002,-0.02368c-0.74798,-1.27286 -1.50359,-3.13525 -2.93521,-4.12121c-1.39045,-0.95763 -3.38412,-0.04608 -3.49663,0.92169c0.39171,0.65784 0.78232,1.3098 1.24276,1.91492c1.22781,1.61364 4.4102,2.50327 5.39214,1.63178c-0.13782,-0.17236 -0.20287,-0.32348 -0.20287,-0.32348zM215.54006,176.39976l0.02805,0.10468c0.11925,1.09182 0.35972,2.22797 0.40127,3.28146c0.65104,2.19257 0.41719,3.87749 0.4811,5.85935c0.05356,1.66064 0.74945,3.69396 -0.03878,4.97756c-1.02849,1.67484 -4.69639,0.93742 -7.0352,-0.86051c-1.70013,-1.30695 -2.69181,-3.65269 -3.90263,-5.28971c-2.03462,-3.46383 -4.05279,-6.86959 -5.77602,-10.35901c-0.56741,-1.14898 -2.39871,-3.42096 -0.99089,-3.92775c0.13203,-0.04753 2.26411,0.93739 2.6001,1.11012c2.59676,1.33493 4.62987,1.81782 7.16437,2.70084c1.7352,0.32995 3.51214,0.59596 5.276,0.76849c0.07288,-0.12676 0.23172,-0.21402 0.56132,-0.14374c0.21461,0.04576 0.38628,0.13372 0.52261,0.23791c4.4468,0.33655 8.73769,0.03492 11.98291,-1.38428c0,0 0.57682,-0.24619 1.16578,0.48747c0.58895,0.73366 0.01212,0.97985 0.01212,0.97985c-3.43698,1.43783 -7.84451,1.78861 -12.45208,1.4573z" fill="#000000"/><path d="M201.10928,174.20473c-0.22182,-0.49434 -0.4656,-1.01052 -0.75811,-1.52835c-0.18931,-0.33514 -0.82657,-1.2691 -0.57805,-0.94725c1.74485,2.25963 6.76223,2.96832 8.94413,3.7285c0.42403,0.08246 0.95926,0.2033 1.38563,0.27727c-0.76008,1.16744 -6.82091,-0.99716 -8.45908,-1.52654c0,0 -0.31973,-0.10373 -0.53453,-0.00364z" data-paper-data="{&quot;noHover&quot;:false,&quot;origItem&quot;:[&quot;Path&quot;,{&quot;applyMatrix&quot;:true,&quot;segments&quot;:[[[455.3035,347.26607],[0,0],[2.87653,0.86436]],[[471.02354,349.30746],[-2.57539,2.41285],[-0.80472,-0.0979]],[[468.62726,348.98773],[0.79249,0.11507],[-3.78291,-1.26097]],[[453.47385,342.52084],[1.57489,4.29753],[-0.22433,-0.61213]],[[454.01063,344.40157],[-0.09187,-0.64544],[0.14194,0.99728]],[[454.21658,347.322],[-0.0184,-0.95871],[0.52602,-0.2242]]],&quot;closed&quot;:true}]}" fill="#ffffff"/><path d="M214.73658,189.74578c-0.98195,0.87149 -4.25731,-0.03808 -5.48511,-1.65173c-0.46043,-0.60512 -0.8661,-1.29373 -1.25781,-1.95157c0.11253,-0.96776 2.1691,-1.89932 3.55955,-0.94169c1.43161,0.98599 2.23326,2.92207 2.98123,4.19493l0.0001,0.02401c0,0 0.06424,0.15368 0.20206,0.32604z" data-paper-data="{&quot;noHover&quot;:false,&quot;origItem&quot;:[&quot;Path&quot;,{&quot;applyMatrix&quot;:true,&quot;segments&quot;:[[468.05936,376.02042],[[468.07977,375.97328],[0,0],[-0.408,-2.44803]],[[465.71149,368.10661],[2.05431,1.79755],[-1.99524,-1.74586]],[[457.77015,370.34712],[1.07927,-1.94019],[0.22136,1.2646]],[[458.62359,374.01638],[-0.40781,-1.15164],[1.0875,3.07103]],[[468.18911,376.64107],[-2.76809,1.84919],[-0.12975,-0.32727]]],&quot;closed&quot;:true}]}" fill="#ff0000"/></g></g></g></svg>