<svg version="1.1" xmlns="http://www.w3.org/2000/svg" xmlns:xlink="http://www.w3.org/1999/xlink" width="89.28812" height="172.7533" viewBox="0,0,89.28812,172.7533"><g transform="translate(-195.60848,-94.15528)"><g data-paper-data="{&quot;isPaintingLayer&quot;:true}" fill-rule="nonzero" stroke-width="2" stroke-linejoin="miter" stroke-miterlimit="10" stroke-dasharray="" stroke-dashoffset="0" style="mix-blend-mode: normal"><g><g fill="none" stroke="#001026" stroke-linecap="round"><path d="M283.8966,149.94412l-16.57781,4.20483"/><path d="M266.10175,161.16344l11.65068,3.37022"/></g><path d="M237.84089,110.25004l21.90184,-13.42896c0,0 15.49531,22.57999 16.84328,43.85935" fill="#6b542b" stroke="#001026" stroke-linecap="round"/><g stroke-linecap="butt"><path d="M206.58895,142.03305c0.5204,-17.40202 15.31118,-32.55392 34.50223,-32.63534c18.99904,-0.08061 32.38191,8.37108 36.13678,32.29032c0.06014,0.38306 3.89442,3.50486 3.56858,9.55548c-0.02019,0.37508 0.03596,0.76294 -0.08811,1.10425c-1.93352,5.31836 -7.23522,8.77756 -11.22855,11.51212c-6.97117,4.77372 -14.39903,6.5188 -24.83876,6.2066c-18.99283,-0.56797 -38.57255,-10.63139 -38.05215,-28.03342z" fill="#6b542b" stroke="none"/><path d="M253.91858,148.82752c0,0 11.97213,-6.71095 21.51475,-6.92009c0.06014,0.38306 7.85729,-1.8539 3.6458,10.62775c-1.94699,5.39157 -8.03852,10.70487 -12.56986,14.09292c-8.39016,6.27329 -16.79939,8.23167 -21.50042,7.98208c-5.53028,-0.29362 -8.66481,-3.48848 -13.10805,-6.07308c-10.80162,-6.28324 -19.23345,-16.07611 -15.27011,-23.47324c0.61591,-1.35669 0.87408,-4.17769 2.82843,-4.74024c0.73056,-0.21028 1.71819,-0.57215 2.32043,-0.11786c1.00887,0.76101 1.57842,2.6186 2.74207,2.58674c11.56705,-0.31672 29.39695,6.03502 29.39695,6.03502z" fill="#dac3a1" stroke="none"/><path d="M206.58895,142.03305c0.5204,-17.40202 15.31118,-32.55392 34.50223,-32.63534c18.99904,-0.08061 32.38191,8.37108 36.13678,32.29032c0.06014,0.38306 5.12369,1.69498 2.55218,9.86084c-4.29398,9.22743 -10.63249,14.4989 -17.22344,18.08268c-5.0666,2.75492 -8.46004,5.58191 -14.71152,5.56709c-10.51057,-0.02492 -14.06813,-4.77487 -18.85319,-7.19562c-13.36954,-6.76361 -22.82092,-11.99631 -22.40305,-25.96996z" fill="none" stroke="#001026"/></g><path d="M224.28838,144.4101c2.07682,1.47064 -1.1495,-0.98758 -2.06857,-3.77682c-0.27405,-0.83166 -2.11251,-0.92787 -3.57129,-0.0627c-1.73092,1.02658 -1.14514,6.99103 -1.30404,4.58672c-0.15889,-2.40431 -0.37032,-2.18893 0.16375,-4.09493c0.28719,-1.02494 3.12903,-2.21965 4.94903,-1.32381c1.63037,0.80251 0.73996,3.89889 1.83112,4.67156z" fill="#001026" stroke="none" stroke-linecap="butt"/><path d="M206.5115,144.497c-3.2396,-29.22533 20.54048,-49.08094 20.54048,-49.08094l20.13651,14.25471" fill="#6b542b" stroke="#001026" stroke-linecap="round"/><path d="M248.91286,150.42702c-3.23029,-2.7062 10.8303,-3.30923 8.4665,-0.3685c-1.65856,2.06337 -1.91338,2.31162 -4.01087,2.21543c-2.09749,-0.09619 -2.70622,-0.38135 -4.45563,-1.84693z" fill="#001026" stroke="none" stroke-linecap="round"/><g fill="none" stroke="#001026" stroke-linecap="round"><path d="M199.05903,140.69195l16.29692,5.18795"/><path d="M216.15164,152.95457l-11.83126,2.668"/></g><path d="M275.32587,141.23379c0.45115,6.97038 -3.18203,8.62295 -7.1573,9.11195c-3.97528,0.489 -11.19845,-0.12745 -11.64958,-7.09783c-0.45115,-6.97038 4.15212,-12.63357 8.12739,-13.12257c7.14722,-0.87918 10.22834,4.13806 10.67949,11.10845z" fill="#001026" stroke="#001026" stroke-linecap="butt"/><path d="M270.59635,143.66372c-0.06094,2.03795 -0.6017,4.21058 -0.6017,4.21058c0,0 -0.19627,-1.39179 -0.13533,-3.42974c0.06094,-2.03795 0.35603,-3.9503 0.35603,-3.9503c0,0 0.44194,1.1315 0.381,3.16946z" fill="#006aff" stroke="none" stroke-linecap="butt"/><path d="M249.56568,142.14984c-0.20672,6.91275 -4.94541,7.95836 -9.98413,7.80767c-5.03871,-0.15068 -14.0274,-1.90158 -13.82068,-8.81431c0.20672,-6.91275 6.60625,-11.74073 11.64495,-11.59005c9.05919,0.27091 12.36655,5.68395 12.15983,12.5967z" fill="#001026" stroke="#001026" stroke-linecap="butt"/><path d="M244.03168,139.09472c0,0 0.22909,2.40857 0.1529,4.95628c-0.07619,2.5477 -0.4288,4.26974 -0.4288,4.26974c0,0 -0.51994,-2.75186 -0.44375,-5.29956c0.07619,-2.5477 0.71965,-3.92647 0.71965,-3.92647z" fill="#006aff" stroke="none" stroke-linecap="butt"/><path d="M243.00985,163.38891c0.07447,0.07473 0.11237,0.18982 0.12416,0.3319c0.00001,0.00005 0.00001,0.00009 0.00001,0.00013c-0.03842,-0.11054 -0.08025,-0.22116 -0.12416,-0.33204z" fill="#001026" stroke="none" stroke-linecap="butt"/><g stroke-linecap="butt"><path d="M277.09257,145.024c0,0 0.18446,3.40453 -0.86912,5.03187c-4.25437,6.5712 -17.1776,23.00515 -29.26926,22.10913c-15.08609,-1.11792 -27.07795,-30.55137 -27.07795,-30.55137c0,0 8.17381,14.18963 28.71467,15.74416c27.94362,2.11477 28.50166,-12.33379 28.50166,-12.33379z" fill="#001026" stroke="#001026"/><g stroke="none"><g fill="#0062ea"><path d="M237.71582,164.25569c-0.49075,0.10081 -1.02827,-0.39285 -1.20061,-1.10265c-0.17233,-0.70979 0.89338,-1.87015 0.89338,-1.87015c0,0 0.66466,1.02976 0.83701,1.73956c0.19834,0.81688 -0.03902,1.13243 -0.52976,1.23323z"/><path d="M239.70103,165.34033c-0.63804,0.20071 -1.36544,-0.19374 -1.62463,-0.88102c-0.25918,-0.68728 1.08214,-2.08047 1.08214,-2.08047c0,0 0.91917,0.91414 1.17836,1.60141c0.29828,0.79099 0.00218,1.15935 -0.63587,1.36007z"/><path d="M241.84242,165.82746c-0.70872,0.12522 -1.40336,-0.35242 -1.55158,-1.06681c-0.14823,-0.71439 0.93382,-1.9683 0.93382,-1.9683c0,0 1.07419,0.96589 1.53476,1.75565c0.44097,0.75613 -0.2083,1.15425 -0.91699,1.27946z"/><path d="M244.73352,166.86616c-0.75513,0.29583 -1.62155,-0.00598 -1.93522,-0.67414c-0.31365,-0.66815 0.79117,-3.6297 0.79117,-3.6297c0,0 0.81905,1.95013 1.88616,2.81955c0.71447,0.58211 0.01305,1.18846 -0.74208,1.4843z"/><path d="M247.67382,167.39053c-0.64236,0.29388 -1.40958,-0.11729 -1.71363,-0.91837c-0.30404,-0.80109 0.99187,-2.58171 0.99187,-2.58171c0,0 0.42818,1.17806 1.29685,1.81833c0.81042,0.59734 0.06727,1.38784 -0.57506,1.68172z"/><path d="M249.18249,165.83904c0.64908,-0.71376 1.46556,-1.85371 1.46556,-1.85371c0,0 1.3785,1.72642 1.02591,2.5338c-0.35256,0.8074 -1.20367,1.24298 -1.90104,0.97289c-0.69736,-0.27011 -1.30038,-0.87231 -0.59045,-1.65298z"/><path d="M259.42851,164.2665c0.18729,-0.70942 0.87358,-1.73782 0.87358,-1.73782c0,0 1.0413,1.16249 0.85402,1.87191c-0.18729,0.70942 -0.73519,1.202 -1.22379,1.1002c-0.48861,-0.1018 -0.71933,-0.41781 -0.5038,-1.23427z"/><path d="M257.07718,164.53185c0.32778,-0.66746 1.33624,-1.51649 1.33624,-1.51649c0,0 1.19589,1.47889 0.86811,2.14634c-0.32778,0.66746 -1.09255,1.01151 -1.70813,0.76846c-0.61559,-0.24305 -0.87344,-0.63013 -0.49617,-1.39829z"/><path d="M254.65788,165.22841c0.30253,-0.67696 1.31379,-1.54372 1.31379,-1.54372c0,0 1.36555,1.48176 1.06302,2.15872c-0.30253,0.67696 -1.08949,1.03156 -1.75776,0.79201c-0.66826,-0.23955 -0.96723,-0.6279 -0.61905,-1.40701z"/><path d="M251.85243,166.01077c1.03461,-0.91655 1.78207,-2.9018 1.78207,-2.9018c0,0 1.21159,2.90963 0.92248,3.59129c-0.2891,0.68166 -1.14387,1.02205 -1.90913,0.76032c-0.76526,-0.26173 -1.48814,-0.83613 -0.79545,-1.44982z"/></g><g fill="#006aff"><path d="M236.54507,160.38689c-0.04319,0.72723 -0.48781,1.84997 -0.48781,1.84997c0,0 -1.17074,-0.96889 -1.12753,-1.69611c0.04319,-0.72723 0.45801,-1.30121 0.92651,-1.28203c0.46848,0.01919 0.73858,0.29123 0.68885,1.12816z"/><path d="M238.10082,161.2572c-0.04319,0.72723 -0.5145,1.84888 -0.5145,1.84888c0,0 -1.25742,-0.97243 -1.21419,-1.69965c0.04319,-0.72723 0.48486,-1.30012 0.9865,-1.27957c0.50165,0.02055 0.79191,0.2934 0.74219,1.13035z"/><path d="M240.38547,161.88849c-0.04319,0.72723 -0.65234,1.84324 -0.65234,1.84324c0,0 -1.70538,-0.99077 -1.66217,-1.71798c0.04319,-0.72723 0.6237,-1.29443 1.29663,-1.26688c0.67293,0.02757 1.06757,0.30468 1.01787,1.14164z"/><path d="M242.90525,162.39496c-0.04319,0.72723 -0.69019,1.84167 -0.69019,1.84167c0,0 -1.82845,-0.99581 -1.78523,-1.72303c0.04319,-0.72723 0.66186,-1.29286 1.38184,-1.26339c0.71997,0.02948 1.14331,0.30778 1.09358,1.14474z"/><path d="M245.5647,162.87321c-0.66811,1.16057 -0.69274,3.25225 -0.69274,3.25225c0,0 -2.16128,-2.41356 -2.12189,-3.14094c0.03937,-0.72738 0.73564,-1.29139 1.55514,-1.25976c0.8195,0.03164 1.70686,0.37141 1.25955,1.14845z"/><path d="M247.49438,163.57184c-0.6042,0.94003 -0.66331,2.21497 -0.66331,2.21497c0,0 -1.65852,-1.17213 -1.60672,-2.0441c0.05179,-0.87195 0.62812,-1.55694 1.2873,-1.52997c0.65916,0.02699 1.54641,0.48212 0.98273,1.35912z"/><path d="M251.2955,162.32729c0.68136,-0.01943 1.24495,0.67202 1.25877,1.54437c0.01381,0.87236 -1.75076,2.02529 -1.75076,2.02529c0,0 -0.28769,-1.33814 -0.5838,-2.22208c-0.32389,-0.96681 0.39442,-1.32814 1.07579,-1.34756z"/><path d="M262.34746,160.1919c0.46849,0.01919 0.81327,0.62426 0.77005,1.35147c-0.04319,0.72723 -1.32306,1.5958 -1.32306,1.5958c0,0 -0.30942,-1.15362 -0.26622,-1.88084c0.04971,-0.83694 0.35072,-1.0856 0.81922,-1.06642z"/><path d="M260.74946,160.93313c0.50165,0.02055 0.87331,0.62672 0.83007,1.35394c-0.04319,0.72723 -1.40976,1.59224 -1.40976,1.59224c0,0 -0.33609,-1.15473 -0.29289,-1.88193c0.04971,-0.83694 0.37091,-1.08478 0.87254,-1.06424z"/><path d="M258.67676,161.38603c0.67295,0.02757 1.18341,0.63939 1.1402,1.36664c-0.04319,0.72723 -1.85771,1.5739 -1.85771,1.5739c0,0 -0.47394,-1.16035 -0.43073,-1.88757c0.04971,-0.83694 0.4753,-1.08051 1.14824,-1.05296z"/><path d="M256.35184,161.6942c0.71997,0.02948 1.26858,0.64291 1.22539,1.37012c-0.04319,0.72723 -1.98077,1.56886 -1.98077,1.56886c0,0 -0.51179,-1.16191 -0.46857,-1.88912c0.04971,-0.83694 0.50399,-1.07934 1.22398,-1.04985z"/><path d="M253.73069,161.95936c0.81925,0.03544 1.44529,0.65359 1.39829,1.38064c-0.047,0.72706 -2.48385,2.95242 -2.48385,2.95242c0,0 0.22332,-2.08355 -0.30398,-3.29305c-0.35307,-0.8098 0.57026,-1.07545 1.38952,-1.04001z"/><path d="M250.22282,163.72836c-0.05049,0.84993 -1.42446,2.14986 -1.42446,2.14986c0,0 -1.20968,-1.46619 -1.15916,-2.31614c0.05049,-0.84993 0.6419,-1.03244 1.35634,-1.00319c0.71444,0.02924 1.27778,0.31951 1.22728,1.16945z"/></g></g><path d="M277.09759,144.85628c0,0 0.18446,3.40453 -0.86912,5.03187c-4.25437,6.5712 -17.1776,23.00515 -29.26926,22.10913c-15.08609,-1.11792 -27.07795,-30.55137 -27.07795,-30.55137c0,0 8.17381,14.18963 28.71467,15.74416c27.94362,2.11477 28.50166,-12.33379 28.50166,-12.33379z" fill-opacity="0.71373" fill="#001026" stroke="none"/></g><path d="M224.40677,155.76394c1.9076,2.50791 4.59539,7.88938 4.59539,7.88938c0,0 -2.68021,-4.26281 -4.58781,-6.77072c-1.9076,-2.50791 -2.32019,-2.31122 -2.32019,-2.31122c0,0 0.40503,-1.31535 2.31263,1.19255z" fill="#001026" stroke="none" stroke-linecap="butt"/><path d="M252.55611,155.33254c0,0 -0.44593,-0.80708 -0.43152,-1.28877c0.01441,-0.48169 1.58122,-1.22858 1.58122,-1.22858c0,0 -1.03009,0.76294 -1.04449,1.24463c-0.01441,0.48169 -0.10521,1.27272 -0.10521,1.27272z" fill="#001026" stroke="none" stroke-linecap="butt"/></g><g fill="#6b542b" stroke="#001026" stroke-linecap="round"><path d="M241.05031,174.9713c4.9387,-0.78381 5.6242,12.22166 6.68917,14.94248c1.06497,2.7208 7.18028,12.26447 8.21424,15.25615c1.03397,2.99167 -0.53268,5.00721 -2.28867,7.72148c-1.756,2.71426 -4.85947,4.32016 -6.98422,3.92134c-2.12475,-0.39884 -3.77194,-5.652 -3.77194,-5.652c0,0 -1.62899,-3.91747 -1.4639,-9.06572c0.16509,-5.14825 -0.52274,-21.18687 -0.52274,-21.18687"/><path d="M249.37287,214.71969c0,0 -2.04138,5.22534 0.94229,8.16132c1.9005,1.87012 -1.05279,7.37225 -5.04655,5.10066c-2.56009,-1.45613 -3.24249,-5.33561 -2.92378,-14.21472c0.05088,-1.41738 -1.01824,-8.11736 -0.86882,-9.64882"/><path d="M252.54902,209.96478c0,0 3.49919,9.59797 4.86815,14.68383c0.76756,2.85161 -1.72864,6.93744 -5.10285,5.83592c-3.37421,-1.10153 -2.45582,-4.35822 -3.78057,-7.81783c-1.32475,-3.4596 -1.55419,-10.40388 -1.55419,-10.40388"/><path d="M255.65283,204.06218c0,0 1.62159,6.78949 7.33712,12.03766c4.8572,4.46003 -0.2672,10.36013 -3.56691,8.5539c-2.23494,-1.22341 -4.96936,-6.05046 -5.51963,-8.90399c-0.77888,-4.03902 -1.21248,-6.90703 -1.21248,-6.90703"/><path d="M251.7785,198.22109c0,0 5.57531,5.09988 8.22875,6.71218c2.74496,1.66792 3.91905,8.37406 2.12437,11.38571c-1.79467,3.01168 -5.44682,1.02988 -6.2885,-1.55559c-1.02385,-3.14504 -1.36361,-6.27136 -1.36361,-6.27136l-3.1039,-1.75924"/></g><g stroke-linecap="round"><path d="M241.85305,203.27858c0,0 -6.9464,22.67727 -19.01565,28.567c-10.94069,5.33901 -21.29767,-0.5287 -24.91883,-10.52111c-4.6881,-12.9366 4.21079,-22.34703 10.85348,-16.81739c6.65068,5.53627 7.00956,15.92926 13.032,15.70561c6.02244,-0.22366 20.04899,-16.9341 20.04899,-16.9341z" fill="#6b542b" stroke="none"/><path d="M212.57668,220.63503c-2.52499,2.37176 -6.25062,9.81542 0.2483,11.46248c6.99259,1.77218 16.26786,-3.30454 10.01241,-0.25193c-10.94069,5.33901 -21.29767,-0.5287 -24.91883,-10.52111c-4.6881,-12.9366 4.21079,-22.34703 10.85348,-16.81739c6.65068,5.53627 5.37629,14.85656 11.39874,14.63291c2.83524,-0.10528 1.66812,1.89145 0.19058,1.17559c-1.66098,-0.80474 -4.41041,-2.85005 -7.78469,0.31945z" fill="#dac3a1" stroke="none"/><path d="M241.85305,203.27858c0,0 -6.94639,22.67727 -19.01565,28.567c-10.94069,5.33901 -21.29768,-0.5287 -24.91883,-10.52111c-4.6881,-12.9366 4.21079,-22.34703 10.85348,-16.81739c6.65068,5.53627 7.02394,15.59579 13.04641,15.37214c6.02244,-0.22366 20.03458,-16.60064 20.03458,-16.60064z" fill="none" stroke="#001026"/></g><path d="M250.48583,189.53636c4.83824,16.93233 5.00538,38.12003 5.00538,38.12003c0,0 6.12985,-1.06055 12.16295,0.97944c7.99178,2.70227 6.81686,11.64709 -6.088,11.8465c-11.2871,0.17442 -21.12381,1.49631 -19.22223,-13.68522c1.73138,-13.8227 -0.71522,-27.46381 -0.71522,-27.46381" fill="#6b542b" stroke="#001026" stroke-linecap="round"/><g><g><path d="M250.08039,187.57529c3.37095,9.10499 -5.26798,15.71214 -13.74771,12.53343c-4.16706,-1.56206 -3.20781,-12.76132 -3.20781,-12.76132c0,0 -7.08179,-9.61686 0.45826,-12.98919c7.39843,-3.30899 13.71424,5.70009 16.49726,13.21708z" fill="#6b542b" stroke="#001026" stroke-linecap="round"/><path d="M249.87899,191.02599c0,4.02735 -2.51332,7.29217 -5.61366,7.29217c-3.10033,0 -5.84278,-1.89754 -5.84278,-5.92489c0,-4.02735 -2.28624,-7.88452 2.17673,-11.39403c4.04504,-3.18087 9.27971,5.99939 9.27971,10.02674z" fill="#dac3a1" stroke="none" stroke-linecap="butt"/></g><path d="M230.90167,177.98106c-0.2612,-0.77499 0.39485,-2.30136 0.8077,-2.92267c0.56737,-0.16835 0.91176,-0.88778 1.5519,-1.03048c1.62995,-0.36334 3.19168,-0.02498 4.85961,0.01195c2.23858,0.86908 3.62262,2.72291 5.71679,3.73692c1.86876,1.88605 0.65204,0.72582 -0.73872,0.37246c-0.677,-0.17202 -0.90315,0.25549 -0.85777,0.74014c-0.22427,-0.37535 -0.40777,-0.76333 -0.68718,-1.10133l0.04584,-0.03705l-0.21072,-0.25792c-0.03075,-0.03826 -0.07807,-0.06277 -0.13114,-0.06277c-0.09267,0 -0.1678,0.07473 -0.1678,0.16689c0,0.00002 0,0.00004 0,0.00006l0.0001,0.33378h0.00004l-0.00004,0.00019c0.00261,1.0253 -0.00136,2.22284 0.12108,3.27774c-0.73101,-1.59909 -0.4011,-3.94493 -1.45263,-5.43677l0.05237,-0.03091l-0.16965,-0.28439c-0.02888,-0.0504 -0.0834,-0.0844 -0.14591,-0.0844c-0.09267,0 -0.1678,0.07473 -0.1678,0.16689c0,0.01445 0.00185,0.02847 0.00532,0.04187l0.07614,0.32129l0.00564,-0.00133l-0.00064,0.01834c0.04725,0.09925 0.08816,0.19768 0.12415,0.29569c0.02895,0.17988 0.08779,0.36382 0.15905,0.54642c0.07469,0.32433 0.12443,0.65317 0.20052,1.00216c-0.02822,0.25835 -1.56512,-1.8595 -2.09411,-1.51226c-0.26524,0.1741 -0.20115,2.29098 -0.07297,3.23164c-0.3288,-0.84654 -1.49172,-3.07087 -1.93292,-2.84939c-0.16343,0.08206 -0.11109,0.81315 -0.09963,1.25826c-0.24951,-0.30934 -0.54295,-0.92634 -0.87021,-1.06562c-0.45526,-0.19375 -1.00944,0.06208 -1.52073,0.49637c0.3141,-0.76965 0.5872,-1.56762 0.94105,-2.26995c0,0 0.07505,-0.14926 -0.07504,-0.2239c-0.15008,-0.07465 -0.22513,0.07464 -0.22513,0.07464c-0.46206,0.92095 -1.67503,1.17808 -2.15598,2.16162c-0.18395,0.22019 -0.56477,1.88257 -0.89059,0.91584zM231.94691,179.07939l-0.01162,-0.0056c0.00556,-0.00161 0.01112,-0.00326 0.01669,-0.00495c-0.0017,0.00352 -0.00339,0.00705 -0.00507,0.01056z" fill="#001026" stroke="none" stroke-linecap="butt"/></g><path d="M244.86056,199.86981l-1.24101,37.31665c0,0 5.80182,6.24247 8.59818,15.21766c2.79636,8.97518 -4.49713,16.83996 -15.04808,12.05822c-6.09638,-2.76292 -8.23395,-8.26256 -9.06191,-11.9712c-1.32371,-5.92921 -1.71615,-12.13564 -0.30612,-15.20481c2.29199,-4.98888 5.65911,-41.27231 5.65911,-41.27231" fill="#6b542b" stroke="#001026" stroke-linecap="round"/><g fill="#6b542b" stroke="#001026" stroke-linecap="round"><path d="M230.69062,208.0642c0,0 4.40411,8.55723 6.9433,11.00526c2.62679,2.53246 2.24836,10.26306 -0.49719,13.15763c-2.74554,2.89455 -6.29995,-0.21157 -6.58555,-3.28868c-0.34744,-3.74313 0.05922,-7.29543 0.05922,-7.29543l-3.86951,-6.42983"/><path d="M233.65028,182.67593c0,0 -3.49832,13.62856 -2.99893,16.91131c0.49939,3.28275 2.02988,15.16155 2.42699,18.73706c0.39711,3.57554 -1.84584,5.42181 -4.47392,7.99611c-2.62809,2.57429 -6.47308,3.58418 -8.72998,2.61361c-2.2569,-0.97057 -2.7674,-7.20705 -2.7674,-7.20705c0,0 0.42195,-16.34007 3.80596,-25.89673c3.38399,-9.55666 5.90522,-18.35569 12.15797,-21.04331"/><path d="M223.38509,227.28155c0,0 -3.57401,5.28874 -1.00027,9.28712c1.63939,2.54684 -3.01553,7.91593 -6.87622,4.40345c-2.4748,-2.25158 -2.2594,-6.72453 0.31949,-16.49439c0.41167,-1.55959 1.20256,-8.24397 1.75213,-9.90561"/><path d="M228.09991,222.79669c0,0 1.47589,11.51632 1.7197,17.49808c0.13671,3.35391 -3.65622,7.26561 -7.12295,5.205c-3.46672,-2.0606 -1.63177,-5.44479 -2.23416,-9.61164c-0.60238,-4.16685 0.88358,-11.92679 0.88358,-11.92679"/><path d="M233.02218,217.02079c0,0 0.09706,7.93431 5.12158,15.17656c4.26997,6.15463 -2.89297,11.4255 -6.10043,8.60172c-2.17245,-1.91258 -3.99576,-7.94669 -3.89096,-11.24873c0.14835,-4.67388 0.38619,-7.96297 0.38619,-7.96297"/></g></g></g></svg>