<svg version="1.1" xmlns="http://www.w3.org/2000/svg" xmlns:xlink="http://www.w3.org/1999/xlink" width="135.06287" height="154.34635" viewBox="0,0,135.06287,154.34635"><defs><linearGradient x1="187.63346" y1="142.93755" x2="191.02334" y2="189.57987" gradientUnits="userSpaceOnUse" id="color-1"><stop offset="0" stop-color="#cc2981"/><stop offset="1" stop-color="#a92292"/></linearGradient><linearGradient x1="297.64907" y1="144.4302" x2="289.25676" y2="190.43637" gradientUnits="userSpaceOnUse" id="color-2"><stop offset="0" stop-color="#cc2981"/><stop offset="1" stop-color="#a92292"/></linearGradient><linearGradient x1="279.40136" y1="213.14455" x2="279.40136" y2="237.25756" gradientUnits="userSpaceOnUse" id="color-3"><stop offset="0" stop-color="#9966ff"/><stop offset="1" stop-color="#66ebff"/></linearGradient><linearGradient x1="309.62405" y1="208.89783" x2="309.62405" y2="237.33109" gradientUnits="userSpaceOnUse" id="color-4"><stop offset="0" stop-color="#9966ff"/><stop offset="1" stop-color="#66ebff"/></linearGradient><radialGradient cx="226.63748" cy="191.84812" r="5.02555" gradientUnits="userSpaceOnUse" id="color-5"><stop offset="0" stop-color="#54606d"/><stop offset="1" stop-color="#2c3136"/></radialGradient></defs><g transform="translate(-178.42534,-84.10284)"><g data-paper-data="{&quot;isPaintingLayer&quot;:true}" fill-rule="nonzero" stroke-miterlimit="10" stroke-dasharray="" stroke-dashoffset="0" style="mix-blend-mode: normal"><g data-paper-data="{&quot;index&quot;:null}" stroke="#000000" stroke-width="0.90024" stroke-linecap="round" stroke-linejoin="miter"><path d="M276.74485,162.5705c0,0 3.96421,-13.01895 4.21986,-13.66705c0.2556,-0.64797 1.72695,-6.38985 10.8678,-12.34911c0,0 6.65739,30.89711 -5.03974,44.08234c-0.00038,-0.00082 -2.31142,-8.65363 -10.04791,-18.06618zM276.90639,162.76956c-0.62111,-0.7869 -1.98332,-2.05418 -1.98332,-2.05418M287.083,183.10724c0,0 -0.05797,-1.60199 -0.29061,-2.47137" fill="#be1e2d"/><path d="M290.59948,173.53428c0,0 -1.99028,-0.44893 -3.8771,-4.08226c-1.17409,-2.25204 -2.10562,-6.91863 -2.10562,-6.91863l-0.01968,0.17175c0.29806,-1.03862 0.5734,-2.21846 0.74607,-3.45303c0.29392,-2.08924 0.39226,-5.064 0.4053,-7.95765l0.02073,-0.40737c0,0 0.95157,-5.66905 6.80236,-9.03834l0.08802,0.00589c0.68284,4.84923 1.47301,12.05927 1.12271,17.39639c-0.39273,5.98684 -1.80062,10.8542 -3.25014,14.42055l0.06737,-0.1373v0v0v0v0v0zM283.24685,166.24151c0,0 1.173,-3.08337 1.36992,-3.70813" fill="#929497"/></g><g data-paper-data="{&quot;index&quot;:null}" stroke="#000000" stroke-width="0.90024" stroke-linecap="round" stroke-linejoin="miter"><path d="M194.66237,180.34452c-10.55717,-14.11347 -1.3489,-44.34855 -1.3489,-44.34855c8.61223,6.70093 9.60009,12.54542 9.80127,13.21166c0.20112,0.66632 3.06655,13.97109 3.06655,13.97109c-8.49501,8.73563 -11.51892,17.1658 -11.51892,17.1658zM208.14999,161.4821c0,0 -1.46305,1.14939 -2.14748,1.88186M194.66237,180.34452c-0.30435,0.84693 -0.49551,2.43856 -0.49551,2.43856" fill="#be1e2d"/><path d="M191.51588,173.09287c-1.14692,-3.6755 -2.1436,-8.64279 -2.03751,-14.64123c0.0948,-5.34819 1.48379,-12.46685 2.56817,-17.24237l0.08828,0.00151c5.55006,3.84623 6.02568,9.57364 6.02568,9.57364l-0.01328,0.40767c-0.22819,2.88462 -0.37794,5.85728 -0.25909,7.96375c0.0692,1.24467 0.24531,2.44335 0.4558,3.50318l-0.0053,-0.1728c0,0 -1.31707,4.57276 -2.6748,6.71911c-2.18288,3.46355 -4.20372,3.74507 -4.20372,3.74507zM198.33862,162.48624c0.14417,0.63901 1.05623,3.80937 1.05623,3.80937" fill="#929497"/></g><path d="M196.21043,142.42169c0,0 4.16614,-39.17257 51.98659,-37.67475c32.81429,1.0278 42.98195,40.11912 42.98195,40.11912" data-paper-data="{&quot;index&quot;:null}" fill="none" stroke="#000000" stroke-width="7" stroke-linecap="round" stroke-linejoin="miter"/><path d="M232.94111,212.89115v0v0v0v0v0c-1.84705,-0.1383 -5.27846,-0.97067 -6.19485,-1.64132c0,0 -3.46625,-2.78634 -2.41109,-4.97186c0.4505,-0.93406 1.30908,-1.38818 2.46635,-1.47496c0.10874,-0.40236 0.34669,-0.96485 0.91459,-1.24294c0.94113,-0.46262 1.80223,1.55406 1.80223,1.55406l-0.01888,0.00112c0.30769,0.08009 0.61488,0.16553 0.94034,0.2697c1.83903,0.59509 4.3707,1.99492 5.77939,2.6949c0,0 1.23982,0.57388 1.30202,2.1673c0.06644,1.69515 -2.73312,2.78229 -4.58015,2.64397z" data-paper-data="{&quot;index&quot;:null}" fill="#be1e2d" stroke="#231f20" stroke-width="0.78672" stroke-linecap="round" stroke-linejoin="round"/><path d="M256.24782,216.49255v0v0v0v0c0,0 -3.30405,2.97654 -5.2919,1.58133c-0.85355,-0.58987 -1.16029,-1.51387 -1.06423,-2.67054c-0.38239,-0.17069 -0.89608,-0.49363 -1.08161,-1.09967c-0.30663,-1.00148 1.82134,-1.5336 1.82134,-1.5336l-0.00182,0.01799c0.12996,-0.28784 0.26263,-0.58027 0.41612,-0.88528c0.88257,-1.71749 2.66705,-3.99734 3.58146,-5.27629c0,0 1.22504,-1.21925 2.4767,-0.78549c1.25166,0.43277 1.79546,2.56707 1.59527,3.50931c-0.20098,0.94234 -1.06021,5.55318 -2.4513,7.14222z" data-paper-data="{&quot;index&quot;:null}" fill="#be1e2d" stroke="#231f20" stroke-width="0.78672" stroke-linecap="round" stroke-linejoin="round"/><path d="M247.36653,218.30769c0.77902,-1.42353 2.44994,-2.4592 2.44994,-2.4592c0,0 4.24469,3.03284 5.74717,4.16378c1.5051,1.13214 4.2526,2.50702 4.2526,2.50702c0,0 0.55037,-0.13914 0.99336,0.49529c0.43911,0.63578 -0.63679,1.92489 -1.83463,3.69245c-1.19855,1.76176 -2.64613,2.73648 -3.40932,2.44128c-0.76253,-0.29074 -0.57155,-0.9748 -0.57155,-0.9748c0,0 -3.66665,-5.03024 -5.79251,-5.89393c0.00636,-0.00001 -2.82847,-2.15707 -1.83508,-3.97189z" data-paper-data="{&quot;index&quot;:null}" fill="#be1e2d" stroke="#231f20" stroke-width="0.90024" stroke-linecap="round" stroke-linejoin="round"/><path d="M244.87257,218.15594v0v0v0v0v0c2.82006,1.26313 3.14196,3.84226 3.14288,3.84495c-0.5365,2.22487 1.28918,7.36631 1.28918,7.36631c0,0 0.66826,0.23896 0.46648,1.02849c-0.20545,0.79136 -1.83575,1.40551 -3.97076,1.35704c-2.13143,-0.05041 -3.80476,0.0771 -4.06787,-0.65248c-0.26311,-0.72959 0.17125,-1.09537 0.17125,-1.09537c0,0 0.0338,-1.76218 -0.01627,-3.6451c-0.05193,-1.87751 -0.40564,-7.02936 -0.40564,-7.02936c0,0 1.54323,-2.00243 3.39077,-1.17446z" data-paper-data="{&quot;index&quot;:null}" fill="#be1e2d" stroke="#231f20" stroke-width="0.90024" stroke-linecap="round" stroke-linejoin="round"/><g data-paper-data="{&quot;index&quot;:null}" stroke-width="0.90024"><path d="M253.84716,211.44488v0v0v0v0v0c0.31526,2.81457 -0.53462,7.94692 -3.80711,9.64309c-3.23667,1.67404 -6.59385,1.3151 -9.99816,-1.18938c-2.82056,-2.07577 -2.55083,-7.71604 -2.13633,-10.86232v0c0,0 0.27929,-7.30279 6.45788,-7.98412c6.17668,-0.68129 8.83138,5.02416 9.18215,8.53714c0.12753,0.62071 0.23296,1.25327 0.30161,1.85557z" fill="#be1e2d" stroke="#000000" stroke-linecap="butt" stroke-linejoin="miter"/><path d="M251.86717,219.40799v0v0v0v0v0l-0.02037,0.14246c-0.49466,0.63462 -1.0936,1.1665 -1.80578,1.53574c-2.99806,1.55092 -6.09816,1.35792 -9.24464,-0.66989l-0.02817,-0.14509c0,0 -1.37219,-9.34883 4.5642,-9.55316c6.74079,-0.2289 6.63222,7.1377 6.53475,8.68994z" fill="#e6e7e8" stroke="#231f20" stroke-linecap="round" stroke-linejoin="round"/></g><g data-paper-data="{&quot;index&quot;:null}" stroke="#000000" stroke-linecap="butt" stroke-linejoin="miter"><g><g stroke-width="0.4"><path d="M272.98743,233.65193l-0.04394,-0.00469c-1.45162,-0.11073 -3.31696,-0.75989 -4.00299,-1.37513l-0.10064,0.09762l-1.14818,-0.45203l0.30725,-0.25531c0.03407,-0.02975 3.43493,-2.89192 3.54826,-6.06857l0.01158,-0.32674l0.30698,0.11331c0.16327,0.06128 0.53699,0.22422 0.65215,0.47535l0.04482,0.01885c1.70838,0.72587 3.29324,0.68752 3.73866,0.6581l0.24108,-0.00839c0.11186,0.02961 0.45134,0.11805 0.48275,0.40693c0.03152,0.29078 -0.29966,0.48515 -0.48415,0.56178c-0.09033,0.00975 -0.18173,0.01768 -0.27516,0.02386c-1.33521,0.08819 -2.97177,-0.1676 -3.76945,-0.56509c-0.02444,0.16083 -0.0623,0.34814 -0.11861,0.55751c1.6584,0.67233 3.17499,0.63276 3.60905,0.60409l0.24407,-0.00663c0.11092,0.02962 0.4504,0.11812 0.4818,0.40694c0.03152,0.29079 -0.2987,0.48509 -0.48318,0.56171c-0.08937,0.00972 -0.18173,0.01768 -0.27516,0.02386c-1.44183,0.09526 -3.23425,-0.20993 -3.92298,-0.63643c-0.07878,0.1701 -0.16511,0.34072 -0.25914,0.50991c1.87869,0.90892 3.62171,0.83927 3.72484,0.8514c0.10862,0.03736 0.44113,0.14998 0.45095,0.44221c0.00986,0.29217 -0.3345,0.45901 -0.52467,0.52178c-1.51411,0.04791 -3.53602,-0.43169 -4.19205,-0.96554c-0.13018,0.18109 -0.2742,0.36876 -0.43034,0.5582c1.77329,0.93388 3.4309,0.9637 3.53059,0.98079c0.10715,0.04409 0.43246,0.17709 0.42708,0.4684c-0.00734,0.29049 -0.3595,0.43981 -0.5532,0.49145c-1.45983,-0.03435 -3.36321,-0.58434 -4.08687,-1.18096c-0.13316,0.13671 -0.2728,0.27485 -0.42076,0.41635c1.70283,1.00107 3.32657,1.12031 3.42566,1.14313c0.10372,0.04908 0.42063,0.19778 0.39905,0.4883c-0.02247,0.29148 -0.38253,0.42141 -0.49314,0.45431z" fill="#871212"/><path d="M271.78383,225.60472c-0.11788,3.3229 -3.6335,6.24103 -3.6335,6.24103l0.63446,0.2509l0.1657,-0.16066c0.00747,0.01277 0.00886,0.01932 0.01737,0.03393c0.33611,0.52556 2.39124,1.32142 3.99355,1.44682c0,0 0.68971,-0.20478 0.05975,-0.50151c0,0 -1.84168,-0.11907 -3.71402,-1.31837c0.29768,-0.27177 0.56461,-0.53486 0.80528,-0.79337c0.01172,0.01914 0.01648,0.03395 0.03213,0.05568c0.36333,0.50768 2.45841,1.19093 4.06539,1.22882c0,0 0.67674,-0.24277 0.03201,-0.50536c0,0 -1.86245,-0.01718 -3.80792,-1.13306c0.30374,-0.35178 0.56474,-0.69026 0.77849,-1.01237c0.02022,0.03371 0.03968,0.06941 0.0748,0.11354c0.39135,0.48683 2.52038,1.0532 4.12819,1.00292c0,0 0.66205,-0.2788 0.00463,-0.50355c0,0 -1.91498,0.09142 -3.95207,-0.96245c0,0 -0.01415,0.00094 -0.0341,0.00034c0.2221,-0.36815 0.38708,-0.71076 0.51143,-1.02416c0.0208,0.02803 0.03685,0.05632 0.06849,0.09026c0.40358,0.42824 2.36158,0.81541 3.92512,0.71213c0.08963,-0.00591 0.17822,-0.01367 0.26569,-0.02323c0,0 0.63988,-0.32755 -0.03335,-0.50487c0,0 -0.05922,0.00773 -0.16865,0.01496c-0.50952,0.03365 -2.10637,0.0633 -3.84495,-0.67475c0,0 -0.00185,0.00013 -0.00565,0.00037c-0.01131,0.00074 -0.03855,0.00441 -0.07133,0.0104c0.15462,-0.48597 0.20831,-0.87808 0.21978,-1.14898c0.01034,0.0126 0.01362,0.01901 0.02497,0.03344c0.40358,0.42824 2.36158,0.81541 3.92512,0.71213c0.08963,-0.00591 0.17822,-0.01367 0.26569,-0.02323c0,0 0.63987,-0.32755 -0.03323,-0.50297c0,0 -0.05826,0.00768 -0.16579,0.01477c-0.50766,0.03354 -2.10641,0.06331 -3.84698,-0.67652c0,0 0,0 -0.00095,0.00007c-0.01036,0.00067 -0.10079,0.00852 -0.18111,0.04132c-0.0022,-0.0188 -0.00378,-0.0291 -0.00378,-0.0291c0.19021,-0.24764 -0.50065,-0.50526 -0.50065,-0.50526M271.33487,224.93311l0.6141,0.22957c0.2157,0.0805 0.56378,0.2423 0.73691,0.51045c1.64935,0.69279 3.17266,0.65474 3.60195,0.62637c0.08491,-0.00562 0.13376,-0.01262 0.13942,-0.01298l0.08937,-0.00972l0.08768,0.0217c0.5034,0.13165 0.6361,0.40433 0.6582,0.60949c0.0481,0.44131 -0.39246,0.70168 -0.52903,0.77135l-0.07791,0.04018l-0.08753,0.0096c-0.09319,0.00991 -0.18834,0.01812 -0.28457,0.02448c-1.16725,0.0771 -2.68206,-0.10051 -3.60858,-0.45346c-0.00435,0.02018 -0.00946,0.04324 -0.01463,0.0654c1.53536,0.57433 2.9081,0.53856 3.31295,0.51182c0.08588,-0.00567 0.13574,-0.01083 0.14234,-0.01126l0.08924,-0.01163l0.08768,0.0217c0.50262,0.13361 0.63529,0.4063 0.65738,0.61146c0.0481,0.44131 -0.39246,0.70168 -0.52903,0.77135l-0.07791,0.04018l-0.08753,0.0096c-0.09314,0.00992 -0.18834,0.01812 -0.28457,0.02448c-1.26635,0.08364 -2.94284,-0.13164 -3.83189,-0.54866c-0.0135,0.02462 -0.02592,0.05197 -0.03947,0.07654c1.73125,0.77081 3.2835,0.71183 3.29956,0.71077l0.08974,-0.00403l0.08532,0.02945c0.49159,0.16745 0.6032,0.45104 0.61019,0.65719c0.01497,0.4416 -0.44386,0.66998 -0.58396,0.72949l-0.08089,0.03757l-0.08802,0.00199c-1.3288,0.04133 -3.25302,-0.33667 -4.14453,-0.87766c-0.03835,0.05083 -0.07762,0.10177 -0.11781,0.15368c1.6161,0.7784 3.06324,0.80603 3.07938,0.80689l0.08928,0.0026l0.08366,0.03331c0.48205,0.19562 0.57694,0.48407 0.57269,0.69193c-0.01052,0.44328 -0.48062,0.64395 -0.62503,0.69616l-0.08242,0.02911l-0.08726,-0.00087c-0.31614,-0.00846 -0.66424,-0.0414 -1.02415,-0.09533l0.04792,0.02241c0.47055,0.22287 0.55055,0.51517 0.53468,0.72003c-0.03328,0.44288 -0.51445,0.61871 -0.66138,0.66158l-0.08361,0.02541l-0.08674,-0.00753c-1.30123,-0.10075 -3.12903,-0.66897 -3.97751,-1.29057l-0.05252,0.05181l-0.28419,-0.11295l-0.63433,-0.24906l-0.74345,-0.29301l0.61451,-0.51067c0.03325,-0.02779 3.35401,-2.82591 3.46306,-5.89518l0.02324,-0.65265zM270.12874,231.46578c-0.01328,0.01414 -0.02664,0.02733 -0.041,0.0397c1.43657,0.77223 2.73686,0.91571 2.93714,0.93469c-1.09726,-0.18339 -2.26538,-0.54977 -2.89614,-0.9744z" fill="#000000"/></g><path d="M248.63271,209.76151c0,0 5.73117,-0.81263 10.37839,3.18394c4.64731,3.99849 3.27907,8.39244 13.23605,12.67137c0,0 0.9396,2.86068 -3.61615,6.83405c0,0 -8.49366,-4.02017 -10.94907,-10.21619c-2.4553,-6.19418 -8.23718,-9.39081 -11.18443,-9.21697l-3.242,-0.25591z" fill="#ba2915" stroke-width="0.4"/><g fill="#871212" stroke-width="0.4"><path d="M269.64321,224.41744c0,0 0.48187,3.86613 -3.89691,6.42899l-1.14462,-0.81428c0,0 3.93128,-4.44486 3.6422,-6.43967z"/><path d="M266.04348,221.95997c0,0 -0.07819,3.0056 -4.27869,5.77089l-1.38842,-1.29102c0,0 4.10094,-2.62314 4.47112,-5.72765z"/><path d="M263.49865,218.97219c0,0 -0.80425,3.09056 -5.29548,4.45341l-0.74113,-1.65032c0,0 4.67747,-1.81396 5.36274,-3.85036z"/><path d="M260.97191,215.05441c0,0 -0.64097,2.6353 -5.07021,3.8889l-1.08518,-1.33472c0,0 4.79005,-2.54926 5.23918,-3.65554z"/><path d="M256.23025,211.11997c0.33585,0.09154 1.64478,0.95468 1.64478,0.95468l-5.50465,3.16605l-1.67363,-1.29112c0,0 5.19767,-2.92116 5.5335,-2.82961z"/><path d="M252.70933,210.1717l-4.50926,2.99793l-2.23541,-0.19732l4.47308,-3.31582l2.2716,0.51523"/></g><path d="M268.67028,232.7298l-0.13978,-0.0647c-0.3503,-0.16645 -8.60543,-4.13315 -11.06749,-10.34392c-2.33128,-5.88015 -7.94986,-9.24488 -10.98405,-9.06716l-4.02036,-0.31727l6.14062,-3.40897c0,0 0.16807,-0.02438 0.47097,-0.04438c1.36727,-0.09033 6.13698,-0.1211 10.09495,3.28321c1.67586,1.43975 2.60005,2.96231 3.49427,4.43381c1.63322,2.68695 3.32277,5.4668 9.68141,8.19888l0.09755,0.04185l0.03322,0.10115c0.04132,0.12332 0.93537,3.05524 -3.68478,7.08691l-0.11655,0.10057zM272.04412,225.78565c-6.40715,-2.77716 -8.12643,-5.60533 -9.78939,-8.34148c-0.91545,-1.50515 -1.77995,-2.92832 -3.39871,-4.32069c-3.82024,-3.2855 -8.43278,-3.25657 -9.75475,-3.16924c-0.21982,0.01547 -0.36367,0.03257 -0.37282,0.02367l-4.67702,2.61005l2.43229,0.19375c3.07757,-0.18151 8.91384,3.04943 11.41801,9.36643c2.22213,5.60581 9.58705,9.46744 10.69162,10.01994c3.77813,-3.34955 3.54845,-5.86479 3.45077,-6.38245z" fill="#000000" stroke-width="0.4"/><path d="M272.0915,225.80167c0.09768,0.51765 0.31435,3.05321 -3.46379,6.40276c-1.10455,-0.55252 -8.51294,-4.40131 -10.73507,-10.00711c-2.50418,-6.317 -8.29064,-9.56805 -11.36821,-9.38655l-2.51581,-0.24864l4.68756,-2.62239c0.00914,0.0089 0.15381,-0.00887 0.37363,-0.02435c1.32198,-0.08733 5.97069,-0.12717 9.79094,3.15834c1.61877,1.39236 2.51619,2.83243 3.43165,4.33759c1.66295,2.73614 3.39193,5.6132 9.79909,8.39036z" data-paper-data="{&quot;noHover&quot;:true,&quot;origItem&quot;:[&quot;Path&quot;,{&quot;applyMatrix&quot;:true,&quot;segments&quot;:[[[431.94081,453.0728],[0,0],[-0.17472,1.03898]],[[439.09485,465.69792],[-7.688,-6.5475],[2.1867,-1.14874]],[[460.07531,445.23676],[-4.22042,11.29778],[4.75612,-12.7311]],[[482.53429,426.05348],[-6.16114,-0.24052],[0,0]],[487.39021,425.56932],[[477.93421,420.53628],[0,0],[-0.01792,0.01816]],[[477.18779,420.50378],[0.44016,0.02218],[-2.64692,-0.12204]],[[457.80819,427.229],[7.5083,-6.72166],[-3.1815,2.84856]],[[451.18397,436.00386],[1.77068,-3.04612],[-3.21644,5.53734]],[[431.94083,453.07286],[12.7013,-5.80806],[0,0]]],&quot;closed&quot;:true,&quot;fillColor&quot;:[0,0,0,1],&quot;strokeColor&quot;:[0,0,0],&quot;strokeWidth&quot;:0.4}]}" fill="#000000" stroke-width="0.2"/></g><g stroke-width="0.4"><path d="M235.00697,205.25108c0.00096,-0.00008 7.06432,-3.37048 17.0828,5.74152c0,0 -5.30255,2.839 -10.69286,2.06921c-5.39123,-0.76976 -7.19073,-2.01462 -9.06328,-0.76411c0,0 -1.1939,-1.93407 2.19159,-3.57931c0,0 -1.33917,-2.33957 0.48177,-3.46731z" fill="#ba2915"/><g fill="#871212"><path d="M245.32508,206.34645c-2.26006,2.47124 -1.18948,6.82728 -1.18948,6.82728l-0.84925,0.0561c-1.41133,-5.12395 1.23173,-7.27834 1.23173,-7.27834z"/><path d="M241.44444,204.9443c0,0 -2.27985,2.08585 -1.4581,7.65345l-1.0834,-0.20325c0,0 -0.82172,-4.56302 1.28204,-7.69299z"/><path d="M248.5271,208.16303c-0.81701,0.63021 -1.04626,4.50538 -1.04626,4.50538l-0.60231,0.13554c-0.65784,-2.78455 0.96335,-5.14247 0.96335,-5.14247z"/><path d="M234.04115,211.67695c-0.00095,0.00007 -0.20518,-2.20223 1.1733,-3.29975c0.05355,-0.16467 -0.03769,-2.72222 0.52816,-3.38128l1.33265,-0.28424c0,0 -1.28138,1.3328 -0.82544,3.47202c0,0 -1.53071,1.54734 -1.21698,3.42772l-0.99172,0.06551z"/></g><path d="M231.97989,210.85967c0.24697,-0.85219 0.99516,-1.60671 2.22485,-2.24426c-0.455,-0.94799 -0.79146,-2.65535 0.70002,-3.57743c0.04321,-0.01994 1.04337,-0.48878 2.81827,-0.60604c3.19223,-0.21088 8.30165,0.72628 14.52585,6.38621l0.24799,0.22525l-0.29565,0.15791c-0.03571,0.01943 -3.62171,1.91575 -7.84808,2.19495c-1.03985,0.06869 -2.04473,0.03557 -2.98995,-0.09911c-1.82169,-0.26062 -3.24035,-0.57536 -4.38014,-0.82892c-2.21129,-0.49177 -3.40504,-0.71522 -4.517,0.02638l-0.2043,0.13573l-0.12842,-0.20853c-0.01698,-0.02734 -0.40966,-0.67803 -0.15344,-1.56214zM232.43609,210.98022c-0.12215,0.41749 -0.06236,0.76323 0.00465,0.97397c1.17224,-0.66126 2.45141,-0.43587 4.64347,0.0515c1.1311,0.25127 2.54024,0.56479 4.34459,0.82182c0.91177,0.13025 1.88629,0.16254 2.89215,0.09609c3.42057,-0.22596 6.41303,-1.53813 7.35187,-1.98776c-5.98329,-5.34221 -10.86425,-6.23476 -13.91966,-6.03293c-1.66072,0.10971 -2.61833,0.54826 -2.62209,0.5485c-1.32112,0.81794 -0.77275,2.36158 -0.50956,2.93177c0.55788,-0.22071 1.91088,-0.5271 3.88375,0.51583c0,0 -2.04512,-0.85998 -4.04873,0.12814c-1.10246,0.56945 -1.80787,1.23963 -2.02043,1.95307z" fill="#000000"/></g><g stroke-width="0.4"><path d="M263.73494,206.13774c0.85974,1.36476 -0.58301,1.93395 -0.58301,1.93395c-17.99402,6.46081 -20.48333,1.0574 -23.05052,-1.37921c-2.56533,-2.43675 -5.09251,-1.44056 -5.09251,-1.44056c-1.68029,-3.91681 2.49256,-6.19687 2.49256,-6.19687l0.07985,1.20875c12.0866,8.12523 21.73432,-0.94203 21.72709,-1.05147c-0.00724,-0.10949 1.08444,0.27616 1.74425,1.29783c0.65984,1.02161 -0.4612,1.98466 -0.4612,1.98466c-0.10728,1.07325 2.2838,2.27813 3.14349,3.64293z" fill="#ba2915"/><g fill="#871212"><path d="M258.25519,200.11114c0,0 1.64672,0.46744 0.99376,3.13573c0,0 0.15712,1.48891 1.41848,2.64995c1.2613,1.161 1.29049,2.04711 1.52828,2.50526l-1.85746,0.57479c0,0 -0.19633,-1.62371 -1.0229,-2.48655c-0.82652,-0.86279 -1.05458,-2.17734 -1.17104,-2.76386c-0.11645,-0.58653 0.61568,-2.05649 -0.71678,-2.94555z"/><path d="M255.20125,202.02728c-0.03322,-0.24418 0.63761,0.98714 0.55151,2.66744c-0.08613,1.68029 0.97223,2.46618 1.42943,3.54763c0.45714,1.08149 0.54242,1.55449 0.54242,1.55449l-1.35744,0.3541c0,0 -0.81185,-2.34792 -1.44296,-3.29373c-0.63112,-0.94585 -0.38037,-1.92721 -0.44469,-2.90096c-0.06434,-0.9738 -0.39751,-1.38396 -0.39751,-1.38396z"/><path d="M251.57587,203.21357c0.00492,0.07456 0.78729,1.76005 0.50902,3.5156c-0.27831,1.75556 0.91628,3.8573 0.91628,3.8573l-1.3115,0.17385c0,0 -0.9276,-1.94789 -0.84759,-3.72066c0.08001,-1.77276 0.09943,-2.32469 -0.27067,-3.62418z"/><path d="M247.95816,203.59663c0,0 -0.72145,2.53544 0.16252,4.69848c0,0 -0.56164,1.3535 0.59105,2.6629l-0.70677,0.04669c0,0 -1.09166,-0.81593 -0.90654,-2.48948c0,0 -1.27168,-0.98788 -0.37255,-4.83623l1.23236,-0.08141z"/><path d="M244.03578,203.1838c0,0 -1.64223,2.36976 -0.59736,5.36089c0,0 -0.18621,0.46624 0.28031,1.24481l-1.06828,-0.62035c0,0 -0.2751,-0.52011 -0.22545,-0.71578c0.0496,-0.19567 -1.20829,-1.64881 0.24231,-5.62839z"/><path d="M239.78101,201.59883c0,0 -1.59189,1.30968 -0.9912,4.13308l-1.08072,-0.52096c0,0 -0.1961,-2.96854 1.17292,-4.06548z"/><path d="M237.35302,200.39448c0,0 -2.70916,1.05277 -2.2518,4.4476l0.01085,0.36512c0,0 -2.16562,-3.05742 2.39427,-6.06342z"/></g><path d="M234.79136,205.34494c-1.74526,-4.06789 2.55294,-6.47381 2.59583,-6.49846l0.32469,-0.17781l0.09656,1.46165c3.60529,2.39836 7.34123,3.4888 11.1081,3.23997c5.90222,-0.38991 9.74623,-3.8604 10.16074,-4.25644l0.00677,-0.14169l0.23589,-0.01558c0.28119,-0.01858 1.30778,0.45762 1.93074,1.42386c0.56586,0.87623 0.02874,1.76941 -0.40543,2.198l0.00892,0.02027c-0.00802,0.00716 -0.01722,0.01159 -0.0253,0.01875c0.04905,0.48387 0.76062,1.09838 1.45295,1.69427c0.62408,0.53782 1.2692,1.09318 1.65236,1.70003c0.2986,0.47404 0.38213,0.92151 0.24902,1.33026c-0.21452,0.65484 -0.91513,0.93803 -0.95216,0.95184c-4.98244,1.78862 -9.19315,2.80695 -12.51654,3.0265c-6.17868,0.40817 -8.40301,-1.95917 -10.02598,-3.68769c-0.25884,-0.27481 -0.5036,-0.53631 -0.75023,-0.76925c-1.48537,-1.41067 -2.94904,-1.63146 -3.91434,-1.56769c-0.56802,0.03753 -0.92669,0.17495 -0.93037,0.17615l-0.21249,0.08319l-0.08971,-0.21014zM237.29137,199.46131c-0.90499,0.60379 -3.28155,2.53112 -2.14723,5.4993c0.71131,-0.19295 2.9453,-0.50542 5.11931,1.55917c0.25272,0.23918 0.50352,0.50691 0.76856,0.78885c0.24465,0.25966 0.49929,0.52805 0.77293,0.79717c4.40046,1.13658 8.54408,-0.61087 8.54408,-0.61087c-2.8824,1.902 -6.69986,1.39883 -7.94639,1.16559c1.54847,1.33257 3.81749,2.48294 8.28072,2.18809c3.279,-0.21663 7.44678,-1.22548 12.38015,-2.99663c0.00553,-0.00227 0.52777,-0.21686 0.67097,-0.66035c0.08659,-0.26728 0.01953,-0.57939 -0.19966,-0.92787c-0.34508,-0.54679 -0.96311,-1.07933 -1.56098,-1.59335c-0.69639,-0.60033 -1.35503,-1.17374 -1.55391,-1.75962c-1.28765,0.82242 -2.88256,0.88134 -2.88256,0.88134c1.63894,-0.52623 2.4499,-1.06125 2.82418,-1.37787l0.00323,-0.03716l0.07177,-0.06164c0.03943,-0.03387 0.95553,-0.84306 0.41705,-1.67753c-0.50901,-0.78992 -1.28164,-1.15208 -1.47356,-1.20292c-0.84957,0.92611 -4.9198,4.04289 -10.43135,4.40699c-3.90555,0.258 -7.77546,-0.88044 -11.50045,-3.38368l-0.09525,-0.06483l-0.06159,-0.93227z" fill="#000000"/></g></g><g data-paper-data="{&quot;index&quot;:null}" stroke="#000000" stroke-width="0.90024" stroke-linecap="round" stroke-linejoin="round"><path d="M288.63025,182.24649l-0.57437,1.53413c-3.16656,7.74239 -7.49778,12.1336 -7.49778,12.1336c0,0 0.18718,-1.39194 0.16393,-3.63669l-0.13028,-0.04928c-0.41017,1.17093 -1.07304,2.67758 -2.15812,4.53187c-2.37967,4.07222 -9.14459,7.36335 -9.14459,7.36335c0,0 0.45151,-1.40944 0.77134,-3.72638l-0.08442,-0.35789c-0.7379,0.53849 -1.50162,1.0312 -2.27311,1.51022c-0.22702,0.1419 -0.45385,0.2801 -0.68427,0.41373c-0.70132,0.41159 -1.41472,0.80297 -2.14184,1.16698c-0.28726,0.14206 -0.58513,0.27314 -0.87592,0.40879c-0.53047,0.24843 -1.06786,0.48219 -1.61305,0.70773c-0.40044,0.16345 -0.80356,0.32603 -1.21367,0.47663c-0.42462,0.15843 -0.86049,0.29936 -1.29383,0.44676c-0.79651,0.26219 -1.60424,0.50529 -2.42952,0.72723c-0.26926,0.07229 -0.53861,0.14459 -0.81232,0.21137c-0.58813,0.14522 -1.18076,0.28662 -1.78364,0.40985l0.00175,0.00183c-3.02665,0.62363 -6.23046,0.99862 -9.65305,1.1212c-3.70281,0.13168 -7.05326,0.00852 -10.1776,-0.28988v0c-2.4722,-0.23739 -4.7828,-0.59405 -6.96743,-1.05192c-0.10568,-0.02163 -0.21233,-0.04417 -0.31891,-0.06583c-0.67526,-0.14622 -1.33952,-0.30016 -1.9908,-0.46458c-0.22726,-0.05906 -0.4445,-0.12227 -0.67071,-0.18303c-0.86498,-0.22933 -1.70506,-0.47793 -2.53307,-0.74063c-0.5234,-0.16652 -1.04318,-0.33666 -1.55092,-0.51628c-0.30172,-0.10409 -0.60422,-0.21282 -0.89951,-0.32215c-0.80631,-0.30175 -1.6053,-0.6077 -2.37942,-0.93563l-0.13932,0.12696c0.2408,2.1216 0.94046,3.27789 1.50883,3.83459c1.15853,1.13659 3.43671,1.4582 3.43671,1.4582c0,0 -7.00964,0.79762 -10.67399,-4.69279c-0.38932,-0.58361 -0.78168,-1.18811 -1.15237,-1.83076l-0.15724,-0.36607c-0.81901,-0.29747 -1.64649,-0.68619 -2.46055,-1.18001c-4.96313,-3.03201 -5.53421,-5.44211 -5.53421,-5.44211l0.08268,0.88011c0.42628,2.29933 0.86247,3.75493 0.86247,3.75493c0,0 -5.93139,-3.97092 -8.46973,-9.75826c-2.04638,-4.6716 -2.14634,-7.4721 -2.14865,-7.94232l-0.15931,-1.68445c0.0388,-6.57928 0.63721,-13.94472 1.72757,-21.17777l0.06076,-0.192c0.94981,-5.58862 0.40785,-14.90163 8.09514,-24.21883c14.40498,-17.45465 28.63693,-16.46873 37.49735,-29.41463c6.5174,-9.52396 5.19335,-20.67342 5.19335,-20.67342c0,0 3.70366,5.54093 5.1549,8.77615c1.40474,3.15289 2.88708,7.20837 2.88708,7.20837l0.05216,-0.03287c0.0381,-0.11616 0.07266,-0.23501 0.10274,-0.35398c0.46654,-1.85302 0.37182,-4.61296 0.37182,-4.61296c0,0 3.38816,10.83426 9.12316,18.02771c5.7315,7.18986 14.2256,9.42114 24.3947,33.80026c1.26567,3.02957 2.44898,5.58246 3.04483,8.39402l0.26101,1.61595c0.81114,5.04953 0.08392,18.92342 -2.0468,24.87078zM220.12017,156.86372c0,0 -7.17584,7.07991 -6.9751,17.19372c0.17761,8.94873 2.42308,11.76934 3.65348,12.49264c1.26519,0.7395 3.2657,0.37225 3.2657,0.37225c0,0 -5.70495,2.83574 -10.18883,-1.3267c-2.99921,-2.7824 -6.24913,-6.3557 -6.93105,-16.21611M277.86487,174.45882c0,0 0.80443,2.50803 -1.44598,7.64893c-2.53186,5.79197 -7.6029,7.47334 -7.6029,7.47334c0,0 4.40692,-8.91006 1.12171,-17.47863c-1.43366,-3.74353 -6.08198,-6.62417 -10.9581,-8.69934c-6.60778,-2.81415 -13.6329,-4.14766 -13.6329,-4.14766M280.62489,192.13098c-0.40694,1.18542 -1.07967,2.72873 -2.19673,4.63262c-2.37877,4.07224 -9.14369,7.36337 -9.14369,7.36337c0,0 1.31264,-4.11229 1.04821,-9.82767M204.18152,176.66428c-0.71853,1.25493 -1.28097,2.6056 -1.61326,4.03883c-2.08511,8.93561 0.92253,18.9145 0.92253,18.9145c0,0 -5.92964,-3.96919 -8.46972,-9.75836c-2.25145,-5.13793 -2.14684,-8.01249 -2.14684,-8.01249M288.05123,183.7868c-3.16836,7.74234 -7.49868,12.13357 -7.49868,12.13357c0,0 1.07443,-7.90786 -2.21807,-16.47753c-0.14849,-0.38746 -0.31803,-0.76464 -0.49855,-1.1313M245.34759,159.25553c0,0 1.18704,0.34756 4.27579,2.93869c3.08886,2.59113 4.17839,5.35948 4.17839,5.35948c0,0 -9.2477,-2.69194 -14.35488,-4.6785c-5.10173,-1.98822 -22.35699,-7.16742 -22.35699,-7.16742M214.90273,195.82998c2.42221,4.03016 4.99282,6.25494 4.99282,6.25494c0,0 -6.22557,1.75339 -11.81574,-1.65857c-4.96313,-3.03191 -5.53421,-5.44211 -5.53421,-5.44211M269.96952,200.04444c-6.78871,4.95026 -14.92854,7.25239 -24.76615,7.60429c-11.72858,0.41945 -20.2439,-1.51158 -27.48571,-4.56983M217.52321,202.54973c0.15614,2.54176 0.93764,3.8776 1.56224,4.48798c1.15944,1.13661 3.43762,1.45824 3.43762,1.45824c0,0 -7.01144,0.79756 -10.67488,-4.69282c-0.38932,-0.58361 -0.78168,-1.18811 -1.15237,-1.83076M246.01573,159.57351c0,0 25.42617,3.76766 25.06786,17.68885" fill="#be1e2d"/><path d="M275.92789,183.41084c-1.20898,9.98741 -12.98722,20.1368 -29.85588,20.68786c-14.89245,0.49467 -36.69518,-6.75751 -39.5668,-19.15259c-0.28494,-1.24565 -0.42242,-2.44507 -0.43875,-3.59458l0.31702,0.24414c1.086,1.68131 2.30711,2.90502 3.49189,4.00177c4.48394,4.16064 10.18888,1.3249 10.18888,1.3249c0,0 -2.00056,0.36905 -3.26575,-0.37045c-1.23039,-0.7233 -3.47587,-3.54391 -3.65348,-12.49264c-0.2007,-10.11562 6.9751,-17.19372 6.9751,-17.19372l0.03027,-0.2316c5.19317,1.58354 15.53835,4.77659 19.2947,6.24122c5.10715,1.98746 14.35488,4.6785 14.35488,4.6785c0,0 -1.08953,-2.76834 -4.17839,-5.35948c-1.54617,-1.29601 -2.61423,-2.03044 -3.29527,-2.4415l0.64537,0.11835c0,0 19.59078,3.413 22.9678,12.23152c3.28429,8.56944 -1.1208,17.47865 -1.1208,17.47865c0,0 4.3181,-1.43327 6.96958,-6.20182z" fill="#e6e7e8"/></g><g data-paper-data="{&quot;index&quot;:null}" stroke-linejoin="miter"><path d="M199.21672,166.31129c-0.48586,12.9696 -2.53981,23.42134 -7.87482,23.22147c-5.33501,-0.19985 -12.93012,-11.01307 -12.44424,-23.98266c0.48586,-12.9696 8.86871,-23.18426 14.20372,-22.98439c5.33501,0.19985 6.60122,10.77598 6.11536,23.74556z" fill="url(#color-1)" stroke="#000000" stroke-width="0.90024" stroke-linecap="butt"/><path d="M187.99962,148.08517l-2.20522,2.76712" fill="none" stroke="#ea42a4" stroke-width="2" stroke-linecap="round"/><path d="M195.76058,155.5422l-3.39106,0.24645" fill="none" stroke="#ea42a4" stroke-width="2" stroke-linecap="round"/><path d="M187.75963,161.3374l-0.46794,1.83877" fill="none" stroke="#ea42a4" stroke-width="2" stroke-linecap="round"/><path d="M187.03368,173.42183l-1.57028,-2.2922" fill="none" stroke="#ea42a4" stroke-width="2" stroke-linecap="round"/><path d="M194.9906,178.05725l1.5958,-0.11598" fill="none" stroke="#ea42a4" stroke-width="2" stroke-linecap="round"/><path d="M189.15832,186.10118l-1.82427,-0.26847" fill="none" stroke="#ea42a4" stroke-width="2" stroke-linecap="round"/><path d="M182.54726,175.15158l1.18584,2.52068" fill="none" stroke="#ea42a4" stroke-width="2" stroke-linecap="round"/><path d="M182.4353,165.33387l-1.34181,-1.90775" fill="none" stroke="#ea42a4" stroke-width="2" stroke-linecap="round"/><path d="M183.01976,154.06185l0.11598,1.5958" fill="none" stroke="#ea42a4" stroke-width="2" stroke-linecap="round"/><path d="M195.9061,146.50788l-2.58967,2.99561" fill="none" stroke="#ea42a4" stroke-width="2" stroke-linecap="round"/></g><g data-paper-data="{&quot;index&quot;:null}" stroke-linejoin="miter"><path d="M292.25299,143.47179c5.32552,0.37575 12.55977,11.43361 11.64633,24.38013c-0.91343,12.94652 -9.62868,22.87907 -14.9542,22.50333c-5.32552,-0.37575 -6.24216,-10.98788 -5.32871,-23.93439c0.91343,-12.94652 3.31106,-23.32481 8.63657,-22.94906z" fill="url(#color-2)" stroke="#000000" stroke-width="0.90025" stroke-linecap="butt"/><path d="M298.62524,152.49695l-1.89445,-2.98848" fill="none" stroke="#ea42a4" stroke-width="2" stroke-linecap="round"/><path d="M291.55682,156.69667l-3.3448,-0.61014" fill="none" stroke="#ea42a4" stroke-width="2" stroke-linecap="round"/><path d="M295.54249,162.70951l0.26724,1.87843" fill="none" stroke="#ea42a4" stroke-width="2" stroke-linecap="round"/><path d="M296.77102,172.69205l-1.80797,2.1098" fill="none" stroke="#ea42a4" stroke-width="2" stroke-linecap="round"/><path d="M286.55326,178.55358l-1.57402,-0.28714" fill="none" stroke="#ea42a4" stroke-width="2" stroke-linecap="round"/><path d="M293.32803,187.10824l-1.84256,0.07047" fill="none" stroke="#ea42a4" stroke-width="2" stroke-linecap="round"/><path d="M297.78678,179.38294l1.45035,-2.37834" fill="none" stroke="#ea42a4" stroke-width="2" stroke-linecap="round"/><path d="M301.94495,165.50386l-1.53941,1.75219" fill="none" stroke="#ea42a4" stroke-width="2" stroke-linecap="round"/><path d="M301.03817,155.98661l-0.28714,1.57403" fill="none" stroke="#ea42a4" stroke-width="2" stroke-linecap="round"/><path d="M291.29218,150.34608l-2.25208,-3.25703" fill="none" stroke="#ea42a4" stroke-width="2" stroke-linecap="round"/></g><g stroke-linecap="butt" stroke-linejoin="miter"><g stroke="#000000" stroke-width="1"><path d="M251.56209,213.14455h55.67854v24.113h-55.67854z" fill="url(#color-3)"/><path d="M256.5013,208.72384h55.67854l-4.93922,4.42072h-55.67855z" fill="#9966ff"/><path d="M307.4912,213.11761l4.71472,-4.21977l-0.67354,24.51489l-4.49021,3.91836z" fill="url(#color-4)"/></g><path d="M304.73979,213.99647c0.44092,0 0.79835,0.15996 0.79835,0.35728c0,0.19732 -0.35743,0.35727 -0.79835,0.35727c-0.44092,0 -0.79836,-0.15995 -0.79836,-0.35727c0,-0.19732 0.35744,-0.35728 0.79836,-0.35728z" fill="#b9b9b9" stroke="none" stroke-width="0.5"/><path d="M304.38497,235.90911c0.44092,0 0.79835,0.15995 0.79835,0.35727c0,0.19732 -0.35743,0.35727 -0.79835,0.35727c-0.44092,0 -0.79836,-0.15995 -0.79836,-0.35727c0,-0.19732 0.35744,-0.35727 0.79836,-0.35727z" fill="#b9b9b9" stroke="none" stroke-width="0.5"/><path d="M253.46788,236.22668c0.44091,0 0.79835,0.15996 0.79835,0.35727c0,0.19732 -0.35744,0.35727 -0.79835,0.35727c-0.44091,0 -0.79835,-0.15995 -0.79835,-0.35727c0,-0.19732 0.35744,-0.35727 0.79835,-0.35727z" fill="#b9b9b9" stroke="none" stroke-width="0.5"/><path d="M252.93564,213.83768c0.44091,0 0.79835,0.15995 0.79835,0.35727c0,0.19732 -0.35744,0.35727 -0.79835,0.35727c-0.44091,0 -0.79835,-0.15995 -0.79835,-0.35727c0,-0.19732 0.35744,-0.35727 0.79835,-0.35727z" fill="#b9b9b9" stroke="none" stroke-width="0.5"/></g><g stroke="#000000" stroke-width="1" stroke-linecap="butt" stroke-linejoin="miter"><path d="M255.83108,225.14222c0,-5.20726 4.22132,-9.42857 9.42857,-9.42857c5.20725,0 9.42857,4.22132 9.42857,9.42857c0,5.20726 -4.22132,9.42857 -9.42857,9.42857c-5.20725,0 -9.42857,-4.22132 -9.42857,-9.42857z" fill="#8499b1"/><path d="M259.06373,225.5463c0,-3.04996 2.47248,-5.52245 5.52245,-5.52245c3.04996,0 5.52245,2.47249 5.52245,5.52245c0,3.04996 -2.47249,5.52244 -5.52245,5.52244c-3.04996,0 -5.52245,-2.47248 -5.52245,-5.52244z" fill="#92c5ff"/></g><g stroke="#000000" stroke-width="1" stroke-linecap="butt" stroke-linejoin="miter"><path d="M279.83108,225.17793c0,-5.20726 4.22132,-9.42857 9.42857,-9.42857c5.20725,0 9.42857,4.22132 9.42857,9.42857c0,5.20726 -4.22132,9.42857 -9.42857,9.42857c-5.20725,0 -9.42857,-4.22132 -9.42857,-9.42857z" fill="#8499b1"/><path d="M283.06373,225.58202c0,-3.04996 2.47249,-5.52245 5.52245,-5.52245c3.04996,0 5.52245,2.47249 5.52245,5.52245c0,3.04996 -2.47249,5.52245 -5.52245,5.52245c-3.04996,0 -5.52245,-2.47248 -5.52245,-5.52245z" fill="#92c5ff"/></g><path d="M303.73584,192.24698l-4,18.57143" fill="none" stroke="#000000" stroke-width="2" stroke-linecap="round" stroke-linejoin="miter"/><g data-paper-data="{&quot;index&quot;:null}" stroke="#001026" stroke-width="0.9" stroke-linejoin="miter"><g><path d="M227.1705,210.71956c0,0 -2.04501,0.53323 -2.86791,0.31757c-0.77582,-0.20332 -1.93656,-1.57671 -1.93656,-1.57671l0.35819,-14.59676l8.92315,1.37811l-4.47689,14.47778z" fill="#505a63" stroke-linecap="butt"/><path d="M232.29547,195.39377c-0.42365,2.74301 -2.99073,4.62326 -5.73372,4.19961c-2.74301,-0.42364 -4.62325,-2.99074 -4.1996,-5.73373c0.42365,-2.743 2.99073,-4.62324 5.73373,-4.1996c2.74301,0.42365 4.62324,2.99073 4.1996,5.73373z" fill="url(#color-5)" stroke-linecap="butt"/><path d="M230.1929,190.7411c0,0 0.14846,2.67448 -0.07731,4.03374c-0.24159,1.4544 -1.32791,4.42658 -1.32791,4.42658" fill="none" stroke-linecap="round"/><path d="M226.21448,190.32387c0,0 0.03849,1.831 -0.237,2.92321c-0.37285,1.47824 -1.79776,5.14407 -1.79776,5.14407" fill="none" stroke-linecap="round"/><path d="M223.17572,192.12251c0,0 3.43013,0.24369 4.82947,0.79299c1.60846,0.63138 4.2816,2.78348 4.2816,2.78348" fill="none" stroke-linecap="round"/><path d="M222.18138,194.72991c0,0 2.47627,0.68432 3.63786,1.28166c1.49426,0.76843 4.58376,2.9463 4.58376,2.9463" fill="none" stroke-linecap="round"/></g><path d="M221.09138,204.38498c0.28803,-1.82851 1.96208,-2.90609 3.73913,-2.40685c1.77704,0.49923 3.04858,2.92781 2.76054,4.75628c-0.28802,1.82851 -2.02653,2.36449 -3.80357,1.86526c-1.77705,-0.49923 -2.98412,-2.38623 -2.69611,-4.21471z" fill="#be1e2d" stroke-linecap="butt"/></g><path d="M238.0015,195.76227c-4.72349,0.35152 -5.07709,-7.81711 -5.07709,-7.81711c0,0 0.96587,-1.30392 4.44868,-1.59318c3.48173,-0.28535 6.05963,0.23382 6.05963,0.23382c0,0 -0.71183,8.82683 -5.43123,9.17648z" data-paper-data="{&quot;index&quot;:null}" fill="#58595b" stroke="#231f20" stroke-width="0.9025" stroke-linecap="round" stroke-linejoin="miter"/><path d="M219.58212,178.57438c-0.01416,-0.23915 -2.26187,-4.45636 -2.22304,-4.77621c0.09941,-0.8196 2.20262,0.52781 2.20262,0.52781l5.75125,2.75135c0,0 0.11598,0.40423 0.15802,1.11407c0.19931,3.36537 -0.95737,6.17926 -2.58352,6.28501c-1.62616,0.10575 -3.10601,-2.5367 -3.30533,-5.90207z" data-paper-data="{&quot;index&quot;:null}" fill="#231f20" stroke="#000000" stroke-width="1" stroke-linecap="butt" stroke-linejoin="miter"/><path d="M252.98737,180.84339c-0.19596,3.36558 -1.67317,6.00948 -3.29944,5.90537c-1.62625,-0.10411 -2.78574,-2.91686 -2.58978,-6.28243c0.04133,-0.70988 0.15691,-1.11423 0.15691,-1.11423l5.7485,-2.75708c0,0 2.10186,-1.34951 2.20209,-0.53001c0.03914,0.31981 -2.20436,4.53926 -2.21828,4.77843z" data-paper-data="{&quot;index&quot;:null}" fill="#231f20" stroke="#000000" stroke-width="1" stroke-linecap="butt" stroke-linejoin="miter"/></g></g></svg>