<svg version="1.1" xmlns="http://www.w3.org/2000/svg" xmlns:xlink="http://www.w3.org/1999/xlink" width="57.45298" height="122.43685" viewBox="0,0,57.45298,122.43685"><g transform="translate(-215.40345,-113.1421)"><g data-paper-data="{&quot;isPaintingLayer&quot;:true}" fill="#9966ff" fill-rule="nonzero" stroke="none" stroke-width="0.5" stroke-linecap="butt" stroke-linejoin="miter" stroke-miterlimit="10" stroke-dasharray="" stroke-dashoffset="0" style="mix-blend-mode: normal"><path d="M257.78947,163.28947c0,-1.51065 0.91282,-2.10847 1.6353,-2.34506c4.67073,-4.89103 8.47705,-12.38204 8.43049,-19.12863c0,-2.11585 0.34016,-4.25502 0.0265,-6.34749c-0.6663,-4.44494 -4.27079,-8.9424 -7.3469,-12.01632c-1.74589,-1.74465 -4.22928,-4.79372 -6.85925,-5.37412c-1.99744,-0.44081 -4.09064,0.06775 -6.13614,0.06688c-4.29143,-0.00184 -8.37929,0.27934 -12.35581,2.11038c-4.08839,1.88255 -7.51384,6.37827 -9.95248,10.02526c-2.00549,4.43533 -4.26342,8.48395 -4.72813,13.43757c-0.89347,9.52417 4.34573,20.5735 12.53848,25.80737c1.91357,1.22247 4.66115,0.65891 6.78083,0.65891c0,0 2.5,0 2.5,2.5c0,2.5 -2.5,2.5 -2.5,2.5c-3.32351,0 -6.27679,0.40055 -9.32443,-1.35425c-9.92659,-5.71561 -16.0391,-19.52589 -14.97467,-30.56105c0.54846,-5.68602 3.01416,-10.33073 5.33766,-15.4177c3.04847,-4.58416 7.09704,-9.68286 12.19225,-12.11948c4.59142,-2.1957 9.50104,-2.58493 14.4863,-2.58699c0.3125,-0.00013 6.91818,-0.02276 7.28491,0.06688c2.04056,0.49877 4.89326,2.56333 6.43204,3.89975c5.03285,4.37098 10.46199,10.85105 11.57234,17.63087c0.03614,0.22065 0.0265,7.04729 0.0265,7.07356c-0.04755,8.4413 -4.58193,17.30024 -10.4625,23.24145l-2.10329,0.73223c0,0 -2.5,0 -2.5,-2.5z"></path><path d="M249.62336,144.05486c0.70811,0.12152 2.09375,0.59709 2.09375,2.45829c0,2.5 -2.5,2.5 -2.5,2.5l-1.57587,-0.32939c-0.44428,-0.25481 -3.18404,-1.91591 -3.95969,-2.07035c-0.91638,-0.18246 -4.56823,-0.22542 -5.22168,0.7383c-0.78523,1.15806 -0.16485,2.79516 -0.16381,4.19434c0.00268,3.61294 1.07886,6.14236 2.48207,9.41652c0,0 0.9848,2.29786 -1.31306,3.28266c-2.29786,0.9848 -3.28266,-1.31306 -3.28266,-1.31306c-2.55759,-5.96771 -6.49759,-17.57082 1.84282,-20.80387c1.04149,-0.40372 2.20457,-0.38991 3.31944,-0.45899c1.11205,-0.0689 2.24979,-0.17284 3.34222,0.04622c1.46831,0.29444 3.48751,1.49655 4.93648,2.33933z"></path><path d="M230.94737,133.09211c0,-1.38071 1.11929,-2.5 2.5,-2.5c1.38071,0 2.5,1.11929 2.5,2.5c0,1.38071 -1.11929,2.5 -2.5,2.5c-1.38071,0 -2.5,-1.11929 -2.5,-2.5z"></path><path d="M254.09868,135.10526c0,-1.38071 1.11929,-2.5 2.5,-2.5c1.38071,0 2.5,1.11929 2.5,2.5c0,1.38071 -1.11929,2.5 -2.5,2.5c-1.38071,0 -2.5,-1.11929 -2.5,-2.5z"></path><path d="M264.74145,209.68224c-1.76777,1.76777 -3.53553,0 -3.53553,0l-1.27315,-1.32125c-4.97181,-6.96967 -11.09435,-12.82413 -16.64012,-19.28664c0,0 -1.62698,-1.89814 0.27116,-3.52512c1.89814,-1.62698 3.52512,0.27116 3.52512,0.27116c5.63453,6.58179 11.84532,12.54907 16.91251,19.63441l0.74001,0.69191c0,0 1.76777,1.76777 0,3.53553z"></path><path d="M221.88816,233.07895c0,-2.5 2.5,-2.5 2.5,-2.5h3.35526c1.56365,0.00138 3.12775,-0.06595 4.68825,-0.1779l0.35251,-1.21964c1.88229,-4.97324 2.52972,-10.2628 2.52503,-15.56298c0,0 0,-2.5 2.5,-2.5c0.35082,0 0.65241,0.04923 0.91168,0.13387c-0.60728,-6.06221 -0.85454,-12.3254 -2.33045,-18.16569c0,0 -0.12244,-0.48975 -0.0372,-1.08411c-2.1375,2.44447 -4.75847,4.47897 -6.5271,7.22906c-1.2524,1.94739 -2.06296,4.16343 -3.37612,6.07038c-1.60623,2.33254 -3.55146,4.22312 -5.37407,6.34067c-0.20004,0.73918 -0.76967,1.79161 -2.39173,1.79161c-2.5,0 -2.5,-2.5 -2.5,-2.5l0.57945,-1.93599c1.85097,-2.21693 3.92189,-4.13274 5.56265,-6.52384c1.29601,-1.88869 2.08542,-4.08846 3.33441,-6.00857c2.16614,-3.33008 5.51265,-5.58632 7.76548,-8.79391c0,0 1.4531,-2.03433 3.48743,-0.58124c1.51854,1.08467 1.0939,2.4932 0.78095,3.13773c0.15426,-0.06759 0.32531,-0.1261 0.51488,-0.17349c2.42536,-0.60634 3.0317,1.81902 3.0317,1.81902c1.71502,6.92589 1.85324,14.34395 2.73955,21.43441l0.18984,0.70863c2.26637,4.11464 4.24989,8.44823 7.27662,12.06208c2.9804,-0.33796 5.9112,-0.85502 8.90176,-1.18875l0.94713,-0.01529c0,0 2.5,0 2.5,2.5c0,2.5 -2.5,2.5 -2.5,2.5l-0.39497,-0.01529c-3.50737,0.38791 -6.93276,1.02497 -10.45106,1.34713c0,0 -1.61585,0.1469 -2.3624,-1.09774c-0.29035,-0.31914 -0.43553,-0.60949 -0.43553,-0.60949l-0.02001,-0.18863c-3.04834,-3.68333 -5.14685,-7.9419 -7.42366,-12.12109c-0.26771,4.6922 -1.09153,9.30854 -2.74259,13.74712l-0.50876,1.80531c0.06087,2.27831 -2.27677,2.49082 -2.27677,2.49082c-2.30579,0.20805 -4.62171,0.3439 -6.93687,0.34579h-3.35526c0,0 -2.5,0 -2.5,-2.5z"></path></g></g></svg>