<svg version="1.1" xmlns="http://www.w3.org/2000/svg" xmlns:xlink="http://www.w3.org/1999/xlink" width="150.91683" height="122.69496" viewBox="0,0,150.91683,122.69496"><g transform="translate(-174.76047,-131.51149)"><g data-paper-data="{&quot;isPaintingLayer&quot;:true}" fill-rule="nonzero" stroke="none" stroke-linecap="butt" stroke-linejoin="miter" stroke-miterlimit="10" stroke-dasharray="" stroke-dashoffset="0" style="mix-blend-mode: normal"><path d="M304.13694,186.20614l-5.40235,-21.35213l13.63449,-10.54744l11.66499,14.39296l1.64323,12.30214l-12.27921,0.05938z" fill="#e9caf8" stroke-width="0"/><path d="M246.649,245.06605l-37.22033,-37.88079l23.20469,-2.77177l43.01642,12.98514l1.65168,6.15411l-55.89015,-15.42924l34.76078,26.60524z" fill="#414ca9" stroke-width="0"/><path d="M249.11173,254.20645l-3.74666,-9.71294l8.08002,-10.74744l22.18115,-0.83449z" fill="#e9caf8" stroke-width="0"/><path d="M180.84987,189.07942l-6.0894,-11.25491l9.39645,-4.89537l-3.54165,-4.47132l5.9545,-0.77958l8.91237,8.80321l4.34686,-8.92222l3.90948,5.31942l-9.11764,14.7702z" fill="#e9caf8" stroke-width="0"/><path d="M274.76977,227.99785l-1.37411,-6.22667l3.19687,-7.11686l16.14822,-6.29253z" fill="#e9caf8" stroke-width="0"/><path d="M221.00836,194.91555l7.96278,-1.13952l5.09046,5.06336l-0.22433,6.17333l-24.98605,2.5478l10.4006,-7.00858l-7.36268,-4.05039z" fill="#8f21c6" stroke-width="0"/><path d="M213.53371,191.65345l-6.99922,-60.14196l89.77568,29.26898l-13.86038,36.9318z" fill="#3d2747" stroke-width="0"/><path d="M260.43609,193.18399l-0.40722,0.79278c-0.95177,0.95177 -2.02064,1.60214 -3.27453,1.9872c-6.0518,2.32347 -14.55087,-0.3681 -20.0831,-3.13422c-0.44275,-0.22186 -0.8982,-0.45868 -1.36207,-0.71008c-0.12129,0.06441 -0.2244,0.08504 -0.2244,0.08504l-0.93525,0.18333c-5.85384,0.01928 -18.31157,0.91184 -19.44314,-7.07906c-0.00251,-1.87188 -0.00335,-3.71472 -1.22191,-5.2747c-1.56365,-2.00175 -4.26788,-4.06355 -4.80423,-6.72008c-0.67578,-3.34714 2.52564,-5.74967 4.62188,-7.66897c1.0134,-1.05608 2.32334,-1.82097 3.28166,-2.90803c1.22268,-1.38694 1.34597,-3.39173 2.83822,-4.74354c4.25262,-3.85238 10.58898,-4.54271 15.85622,-6.04637c2.77795,-0.54663 5.04027,-2.68227 7.61373,-3.81352c6.18643,-2.71945 13.28107,-3.51431 19.65456,-0.93901c2.37528,1.76045 4.26197,4.45991 6.86847,5.84706c5.53478,2.94556 12.44007,3.69981 18.21826,6.27888c2.26779,2.91085 -1.07328,3.38697 -0.57593,5.99395c0.64642,3.38832 4.60737,5.6707 4.142,9.34971c-0.32861,2.5978 -3.1426,4.42231 -3.09783,6.80491c-0.01981,2.71401 -1.88296,8.26662 -4.5818,9.47778c-3.47435,1.55919 -9.75948,0.01889 -13.01536,-1.37463c0,0 -0.07167,-0.03072 -0.15889,-0.09545c-2.95588,1.74543 -6.30667,2.78063 -9.86972,3.60437c-0.02017,0.06375 -0.03961,0.10265 -0.03961,0.10265zM255.65267,194.69936c0.1809,-0.03458 0.36074,-0.07628 0.53864,-0.12515c0.00652,-0.00272 0.01304,-0.00545 0.01956,-0.00819c0,0 0.05638,-0.02255 0.14348,-0.03878c0.69479,-0.20957 1.35552,-0.53049 1.92903,-0.96667c-1.4684,0.30585 -2.96529,0.59376 -4.47869,0.89644c-0.94419,0.00368 -1.88833,0.00365 -2.83252,0.00365h-0.51724c0,0 -0.75,0 -0.75,-0.75c0,-0.75 0.75,-0.75 0.75,-0.75h0.51724c0.89493,0 1.7898,-0.00049 2.68472,0.00365c3.1585,-0.6317 6.26179,-1.18076 9.17316,-1.99298c-0.33391,-0.04905 -0.67134,-0.09658 -1.01365,-0.13157c-0.76778,-0.07848 -2.25264,0.71794 -2.94789,0.84953c-2.44915,0.46356 -4.99928,1.34808 -7.5396,0.68503c-0.81022,-0.21147 -2.16964,-1.05112 -2.67055,-1.64849c-0.40619,-0.48441 -0.29584,-1.49531 -0.90423,-1.66708c-0.8131,-0.22957 -2.6143,0.05709 -3.42104,0.05709c-3.23618,-0.00001 -7.63228,0.6032 -11.28477,-0.06816c1.486,0.9606 2.96921,1.77951 4.29376,2.44045c4.71793,2.35896 12.45441,5.05168 17.91003,3.42033c0.17611,-0.16419 0.40057,-0.20908 0.40057,-0.20908zM282.90742,189.5777c2.08069,-0.90843 3.71267,-6.01997 3.69406,-8.10842c0.04078,-3.02542 3.61371,-4.72169 3.11313,-7.98331c-0.44758,-2.91631 -3.68195,-4.9186 -4.13793,-7.93103c-0.28495,-1.88254 2.36997,-3.60202 1.14821,-5.04053c-5.72151,-2.31768 -12.58635,-3.24092 -17.98864,-6.13492c-2.6462,-1.41756 -4.54474,-4.06311 -6.92463,-5.87707c-5.94282,-2.34839 -12.5672,-1.51581 -18.3073,1.00066c-2.68123,1.17546 -4.97364,3.31361 -7.87269,3.90198c-4.96645,1.42019 -11.17281,2.02059 -15.17826,5.67776c-1.41567,1.29257 -1.50583,3.20305 -2.67902,4.56681c-0.99514,1.15678 -2.36424,1.95854 -3.42325,3.06781c-1.64188,1.50492 -4.76275,3.6429 -4.19045,6.35518c0.49333,2.33803 3.13296,4.2669 4.50612,6.03854c1.40541,1.81326 1.53992,3.9137 1.53671,6.10461c0.21497,2.12397 1.89379,3.0954 3.72015,4.00124c4.12764,2.04722 8.77799,1.70994 13.26467,1.67982c-5.31716,-3.26093 -10.8873,-8.24381 -10.89717,-14.42756c0,-10.27082 8.70554,-14.91255 17.88259,-16.7137c9.581,-1.87397 20.05359,-0.69335 29.39307,1.74938c6.25977,2.18757 11.71999,6.99103 10.5964,14.20627c-0.27395,1.75922 -1.26243,3.58682 -1.95892,5.21154c-1.69646,3.38514 -3.85648,5.79424 -6.35247,7.57578c3.06635,1.16364 8.20314,2.32454 11.05561,1.07915zM270.10068,186.48811c0.67082,0.33541 0.33541,1.00623 0.33541,1.00623l-0.14449,0.28481c2.59984,-1.69599 4.83886,-4.05254 6.5519,-7.48751c0.63404,-1.47984 1.59126,-3.18492 1.83418,-4.78846c0.97726,-6.45085 -3.95295,-10.61846 -9.54765,-12.56321c-9.1054,-2.37478 -19.32758,-3.54047 -28.6683,-1.71231c-8.45531,1.6489 -16.67061,5.73923 -16.67061,15.24161c-0.0054,3.03615 1.55461,5.77629 3.76708,8.12509c0.29004,-2.16257 3.37877,-4.04751 5.82775,-4.04751c0,0 0.75,0 0.75,0.75c0,0.75 -0.75,0.75 -0.75,0.75c-3.07299,0 -6.46987,3.27057 -2.14337,4.92976c3.83375,1.47022 9.06444,0.6392 13.09049,0.63921c0.91036,0 3.14186,-0.2883 3.99507,0.05709c1.6212,0.6563 1.33886,2.76274 3.32177,3.23615c3.65331,0.87221 6.76655,-1.76712 10.20216,-1.56889c1.44659,0.08347 3.21199,0.85771 4.60571,0.10111c0.99093,-0.66203 1.57073,-1.08601 2.33497,-2.00321l0.30169,-0.61455c0,0 0.33541,-0.67082 1.00623,-0.33541z" fill="#000000" stroke-width="0.5"/><path d="M228.3032,199.33307c0,0 -0.45,-0.6 0.15,-1.05c0.6,-0.45 1.05,0.15 1.05,0.15c0.51516,0.69437 1.0928,1.338 1.72216,1.93684c0.69328,-0.58997 1.54444,-1.06323 2.14751,-1.67234l0.34483,-0.34483c0,0 0.08065,-0.08065 0.2105,-0.1476c-1.69614,-0.84412 -3.43347,-1.62183 -5.26217,-2.23125c0,0 -0.71151,-0.23717 -0.47434,-0.94868c0.23717,-0.71151 0.94868,-0.47434 0.94868,-0.47434c7.94903,2.6503 14.21667,8.68169 22.9271,9.07968c-0.06596,-0.05482 -0.12919,-0.12782 -0.1867,-0.22367c-0.38587,-0.64312 0.25725,-1.02899 0.25725,-1.02899c3.48023,-2.08561 7.44646,-4.01853 11.42823,-4.91619c0.95625,-0.21558 3.88961,-1.10928 4.75412,-0.38427c3.1729,2.66091 -4.057,5.74744 -5.60224,6.32317c-2.17207,0.36798 -4.34916,0.8019 -6.51551,1.2356c-0.04764,0.70661 -0.76886,0.68624 -0.76886,0.68624l-0.99822,-0.02863c-0.49414,-0.04812 -0.98827,-0.09624 -1.48241,-0.14436c-6.92815,-0.01667 -12.2641,-3.46361 -17.94935,-6.39847c0.06823,0.36879 -0.22542,0.66244 -0.22542,0.66244l-0.34483,0.34483c-0.61335,0.60811 -1.4357,1.03296 -2.09312,1.58544c5.05425,4.06231 12.59751,5.86425 18.29771,7.79407l0.71814,0.03084c0,0 0.51947,0.02723 0.67049,0.46896c1.71286,0.53352 3.42116,1.06979 5.12,1.61298c4.34686,1.32699 8.76931,2.44054 13.04891,3.99727c1.0871,0.39544 2.89647,1.32909 4.39609,1.49404c0.13595,-0.41519 0.27296,-0.76229 0.39761,-1.01168l0.55523,-0.74536c0,0 0.45,-0.6 1.05,-0.15c0.6,0.45 0.15,1.05 0.15,1.05l-0.41843,0.55349c1.76826,-0.84847 3.54905,-2.72555 4.97612,-3.94827c2.51433,-1.81332 5.20875,-3.27839 8.13664,-4.28962c0.50945,-0.17595 2.26687,-1.10505 2.68848,-0.05645c0.38141,0.94861 -1.32411,3.35546 -1.93694,4.12335c-2.7479,3.44318 -6.26969,6.77333 -9.61615,9.6177c-0.69779,0.46744 -4.52541,3.79016 -5.53894,3.22343c-0.71552,-0.40009 -1.07893,-1.26774 -1.2141,-2.32942c-3.69401,0.00738 -7.18512,-1.67713 -10.67231,-2.83953c-4.49745,-1.49915 -9.0566,-2.96098 -13.64512,-4.1576c-8.86803,-2.3134 -18.02054,-7.03205 -27.22865,-7.17974c1.05374,2.00255 3.06658,3.34037 4.80927,4.81524c4.24577,3.59326 9.01545,6.73144 13.7467,9.64448c3.8772,2.11532 7.15748,5.12557 11.01915,7.23273c1.20221,0.656 2.61804,1.86704 4.07916,1.96964c0.11863,-0.07891 0.23726,-0.15782 0.3559,-0.23673l0.73069,-0.36697c0,0 0.67082,-0.33541 1.00623,0.33541c0.02356,0.04711 0.04215,0.09257 0.05636,0.13637c2.0355,-0.25188 4.12959,-0.78276 6.09382,-1.06439c1.9027,-0.11275 6.11588,-1.15684 7.82158,-0.27104c2.35004,1.22041 -0.88346,4.02398 -1.7917,5.05566c-3.99468,4.53757 -7.60205,7.40162 -13.46801,9.25665c-2.7433,1.02673 -5.88498,1.88354 -8.81902,2.10864c-0.45239,0.03471 -2.31813,-0.01282 -2.47348,-0.21822c-0.95494,-1.2626 0.00605,-2.69132 0.73846,-3.80515c-5.96551,-4.10906 -10.95754,-10.37021 -16.05622,-15.47944c-2.60686,-2.13012 -5.55452,-3.89443 -8.03999,-6.15276c-3.52361,-3.2016 -6.44343,-7.0247 -10.19193,-10.01733c-1.16257,-0.87395 -5.86097,-3.20014 -5.80604,-4.784c0.0383,-1.10414 2.77642,-2.04781 3.57052,-2.36633c2.72139,-1.09157 5.97424,-1.65324 8.8504,-2.76223c-3.00024,-1.19942 -5.66627,-3.05546 -8.75091,-4.08973l-0.81398,-0.1628c-0.35054,-0.06296 -0.61654,-0.3695 -0.61654,-0.73816c0,-0.38611 0.29176,-0.70407 0.66685,-0.74544l1.36944,-0.17118l0.0249,0.19922c3.79539,-0.93408 8.10209,-0.37742 11.96468,-0.37742h0.86207c0,0 0.75,0 0.75,0.75c0,0.75 -0.75,0.75 -0.75,0.75h-0.86207c-3.00575,0 -6.0115,0.00184 -9.01724,0c-0.26057,-0.00016 -0.51151,0.01625 -0.75465,0.03681c2.48037,1.16342 4.80211,2.63339 7.42286,3.50167c0,0 0.19009,0.06336 0.34101,0.22284c0.5669,-0.2982 1.10772,-0.63188 1.61373,-1.01139c1.21877,-0.59534 2.47938,-1.71954 3.56499,-2.54822l0.68966,-0.51724c0,0 0.6,-0.45 1.05,0.15c0.45,0.6 -0.15,1.05 -0.15,1.05l-0.68966,0.51724c-1.15143,0.8515 -2.41109,1.97872 -3.67639,2.6242c-2.60389,1.95291 -6.73015,3.04135 -9.85547,3.87959c-1.28425,0.34445 -2.52531,0.69095 -3.72339,1.28865c-0.50821,0.25354 -2.14759,0.5517 -1.58457,0.62625c1.66275,0.22016 3.87225,2.47682 5.22844,3.49187c3.77678,3.02708 6.73509,6.8667 10.28892,10.09926c2.47939,2.25526 5.4307,4.01439 8.03088,6.14444c5.0423,5.03269 9.95799,11.25067 15.84139,15.31584c1.91779,-3.07203 4.5217,-6.25177 7.36259,-8.51429c-5.22119,-1.64353 -9.53512,-6.47057 -14.25588,-9.04493c-4.80787,-2.95721 -9.64923,-6.14745 -13.96314,-9.79701c-2.22774,-1.88466 -4.6056,-3.51994 -5.62565,-6.31558c-0.058,-0.10099 -0.09532,-0.23098 -0.09532,-0.39829c0,-0.01196 0.00019,-0.02373 0.00057,-0.03531c0.00096,-0.12689 0.02883,-0.27912 0.12698,-0.41333c0.09629,-0.13555 0.2319,-0.21014 0.35197,-0.25117c0.01087,-0.00402 0.02197,-0.00792 0.03332,-0.0117c0.15152,-0.05051 0.28152,-0.05799 0.39231,-0.03849h0.53452c9.51,0 18.89647,4.84444 28.04824,7.23186c4.6207,1.20579 9.21157,2.67624 13.74083,4.186c3.28158,1.09386 6.6534,2.77433 10.14173,2.76673c0.03738,-1.04509 0.21097,-2.14772 0.43466,-3.11771c-1.57605,-0.24841 -3.23481,-1.04202 -4.51997,-1.50919c-4.25743,-1.54765 -8.65682,-2.65405 -12.98085,-3.97418c-7.52682,-2.41705 -15.19809,-4.71016 -22.68605,-7.17c-0.43031,0.01024 -0.9094,-0.05272 -1.382,-0.1858c-1.02516,0.32349 -2.0274,0.46405 -3.08375,0.67532c-2.48225,0.35148 -5.15564,0.61952 -7.64648,0.17564c-0.92302,-0.16449 -2.9718,-0.16537 -2.06671,-2.19742c0.21536,-0.4835 1.78157,-0.28052 2.28333,-0.32697c2.64009,-0.24442 5.2556,-0.92728 7.90918,-1.02528c-0.0008,-0.12795 0.0089,-0.25989 0.03001,-0.39579c0.04082,-0.26279 0.11885,-0.50105 0.22575,-0.71996c-0.72166,-0.6709 -1.38556,-1.3947 -1.97893,-2.17876zM232.81515,203.83472c0.077,0.01297 0.1816,0.03995 0.2835,0.09611c0.0092,0.00264 0.01839,0.00523 0.02759,0.00778c0.06271,-0.04277 0.1289,-0.07089 0.19428,-0.08865c-0.60236,-0.38824 -1.18389,-0.79837 -1.74004,-1.23299c0.06279,0.53348 0.61565,0.97483 1.23467,1.21775zM224.4628,204.85551c1.62324,-0.01288 3.22133,-0.10011 4.83102,-0.33236c0.4862,-0.09724 0.96094,-0.17588 1.43183,-0.26741c-0.04406,-0.04546 -0.0865,-0.0921 -0.12717,-0.13992c-2.07611,0.00106 -4.08917,0.48107 -6.13567,0.7397zM256.35933,233.7786c-0.10199,0.06816 -0.20397,0.13632 -0.30596,0.20448c-3.04051,2.16378 -5.64561,5.51486 -7.73244,8.59099c-0.3129,0.46124 -2.11784,2.94675 -1.81844,3.36488c0.51723,0.7223 1.7578,-0.25917 2.63735,-0.38424c2.37093,-0.33715 4.86207,-1.02062 7.10463,-1.86327c3.03574,-0.96198 6.08025,-2.07988 8.54884,-4.16996c2.53267,-2.14434 4.28791,-5.08765 6.63584,-7.37426c0.2977,-0.28992 -0.82859,0.06632 -1.24366,0.08606c-0.49024,0.02331 -0.98191,0.00682 -1.47201,0.0328c-1.4628,0.07753 -2.92666,0.20881 -4.3899,0.29421c-2.33654,0.33827 -5.40573,1.32726 -7.96426,1.21831zM275.68628,218.20607c-0.24176,1.20244 -0.16463,2.39885 -0.17089,3.7582c0.00215,0.04455 0.0013,0.08655 -0.00218,0.12613c-0.00687,0.36225 -0.0261,1.55043 0.01646,1.60179c0.26323,0.31766 0.57975,-0.60257 0.93752,-0.808c1.12473,-0.64581 2.1253,-1.47657 3.20273,-2.1959c2.94067,-2.5038 5.77348,-5.39097 8.36203,-8.26098c0.57419,-0.63663 1.26074,-2.01129 2.00601,-2.85451c-0.03492,0.01676 -0.06723,0.03058 -0.096,0.04071c-0.46538,0.16399 -0.94993,0.27212 -1.41043,0.44935c-2.21385,0.85204 -4.38867,2.2234 -6.30135,3.6057c-1.65575,1.41978 -3.76787,3.63666 -5.83443,4.36946c-0.22885,0.08115 -0.46602,0.13586 -0.70947,0.16804z" fill="#000000" stroke-width="0.5"/><path d="M224.41316,204.86138c2.0465,-0.25863 4.15884,-0.75061 6.23495,-0.75167c0.04067,0.04782 0.08335,0.09691 0.12741,0.14237c-0.47089,0.09153 -0.94551,0.17493 -1.43171,0.27217c-1.60969,0.23225 -3.30742,0.32424 -4.93066,0.33712z" data-paper-data="{&quot;noHover&quot;:false,&quot;origItem&quot;:[&quot;Path&quot;,{&quot;applyMatrix&quot;:true,&quot;segments&quot;:[[[224.4628,204.85551],[0,0],[1.62324,-0.01288]],[[229.29382,204.52315],[-1.60969,0.23225],[0.4862,-0.09724]],[[230.72565,204.25574],[-0.47089,0.09153],[-0.04406,-0.04546]],[[230.59848,204.11582],[0.04067,0.04782],[-2.07611,0.00106]],[[224.46281,204.85552],[2.0465,-0.25863],[0,0]]],&quot;closed&quot;:true,&quot;fillColor&quot;:[0,0,0],&quot;strokeWidth&quot;:0.5}]}" fill="#c168ee" stroke-width="0.25"/><path d="M190.73941,179.40031c0,-0.75 0.75,-0.75 0.75,-0.75h0.17241c1.04469,0.01364 1.85433,-0.29315 2.55101,-0.78224c-0.00188,-0.00648 -0.00276,-0.01 -0.00276,-0.01c-0.66464,-2.83956 -4.27197,-5.28461 -6.29129,-7.33763c-0.51332,-0.52189 -1.26611,-1.63196 -2.08846,-1.76298c-1.75367,-0.2794 -4.38069,1.86015 -2.25588,3.08884c0.6139,0.30638 2.51489,1.00208 2.45806,1.86435c-0.03769,0.57184 -0.70345,0.94699 -1.20248,1.22875c-1.8927,1.06867 -4.61151,0.42789 -6.4396,2.24109c-0.31715,0.31457 -2.73767,4.24297 -1.40372,4.64728c0.88492,0.26821 2.65302,-0.06043 3.59104,-0.21541l0.78973,-0.31589c0.09037,-0.0386 0.18986,-0.05996 0.29434,-0.05996c0.41421,0 0.75,0.33579 0.75,0.75c0,0.12597 -0.03106,0.24468 -0.08593,0.34891l-0.51049,1.02099l-0.1211,-0.06055c-0.39672,1.40287 -0.81366,3.13782 -0.4539,3.60345c0.4285,0.55459 1.72313,0.37236 2.31797,0.37169c3.12468,-0.00353 5.68559,-1.58977 8.7192,-1.8929c1.11172,-0.11109 2.36685,0.37597 3.24459,-0.37089c2.19421,-1.6453 4.32481,-3.8673 5.45377,-6.42755c0.57213,-1.29748 0.45491,-3.28396 0.45313,-4.69658c-0.00031,-0.24775 -0.11385,-2.38683 -0.13368,-2.36876c-1.21172,1.1034 -2.35933,2.95521 -3.15843,4.35253c-1.89134,2.2161 -3.3391,4.25256 -6.47513,4.28348h-0.17241c0,0 -0.75,0 -0.75,-0.75zM195.42394,176.76298c0.49739,-0.54765 0.97017,-1.16024 1.48689,-1.76023c0.83882,-1.46911 3.58058,-6.38051 5.67242,-4.35793c1.03874,1.00435 0.32935,5.70938 0.16778,6.95057c-0.43861,3.36953 -3.7615,6.68587 -6.32886,8.61181c-1.48254,1.03287 -3.08203,0.48304 -4.78567,0.82509c-3.21546,0.64558 -6.98768,2.82777 -10.39802,1.52306c-1.70548,-0.65247 -1.97184,-3.89489 -0.92243,-5.3989c-2.73318,0.35739 -6.11384,0.13671 -4.88087,-3.65472c0.85531,-2.63012 2.55028,-4.25893 5.12741,-5.12328c0.18493,-0.06203 1.99711,-0.56493 3.11201,-0.74268c-0.36767,-0.18129 -0.72975,-0.42839 -0.82195,-0.47456c-2.96568,-1.82572 -1.15296,-5.58399 2.01114,-5.88656c1.98343,-0.18967 2.84988,0.89762 4.12431,2.19384c2.12874,2.16515 5.29472,4.42223 6.43585,7.29449z" fill="#000000" stroke-width="0.5"/><path d="M303.04672,177.53967c-1.57132,-3.39022 -3.69267,-6.08525 -3.68662,-10.20832c0.00099,-0.67205 -0.02371,-4.145 0.52824,-4.62933c1.24141,-1.08933 3.14058,-0.17137 4.28099,0.40021c1.70189,1.76124 1.19048,4.11694 1.3445,6.4239c0.04303,0.6445 -0.17152,1.73965 0.45835,1.88281c0.23267,0.05288 0.4419,-4.17329 0.45792,-4.46153c0.16962,-3.05317 1.60088,-5.92327 2.65972,-8.73511c1.3178,-2.21074 5.69988,-6.69039 6.75694,-1.53908c0.11043,0.53816 0.16281,1.09071 0.16258,1.64008c-0.00118,2.83297 -1.81895,5.48265 -2.71593,8.08296c-0.51133,1.48234 -0.93231,2.94667 0.95474,2.96378c2.1405,-1.09467 6.06035,-6.51824 8.96378,-4.59211c0.82795,0.54926 2.39179,3.06765 1.91165,4.20375c-0.44459,1.052 -2.16926,1.70233 -3.14618,2.14351c-0.42919,0.19382 -0.85205,0.4078 -1.3,0.55311c-0.27449,0.08904 -1.01169,-0.08571 -0.85182,0.15454c0.73421,1.10336 1.81015,1.44905 2.88682,2.09245c3.19069,1.60757 3.74991,5.69221 0.09852,7.21243c-2.44412,1.01758 -4.2439,-0.1038 -6.41108,-1.17744c-0.37677,-0.18665 -2.61912,-0.91417 -2.77403,-1.60581c-0.03774,0.32267 -0.1304,0.92136 -0.23658,1.17046c-0.53484,1.25468 -1.32502,1.92313 -2.27047,2.86578c-1.25139,0.9239 -4.41938,2.23098 -5.97721,1.32169c-1.7439,-1.0179 -3.26733,-3.63479 -2.42639,-5.49955zM304.1656,180.36765c0.37771,0.81415 1.1064,1.63039 1.60272,1.97197c0.90247,0.62109 3.59937,-0.50221 4.36762,-1.0921c0.7709,-0.7734 2.28947,-4.21623 3.01385,-4.4556c0.60991,-0.20154 2.19203,0.9984 2.57311,1.20323c1.59443,0.85699 3.72788,2.34144 5.64637,2.04416c3.12035,-0.48351 3.14159,-3.55962 0.6213,-4.80913c-1.25729,-0.75761 -3.55911,-1.57454 -3.6649,-3.42479c-0.13374,-2.33896 8.5801,-2.28674 4.19987,-5.70372c-0.29293,-0.22851 -1.88802,0.25008 -2.12592,0.38459c-2.1561,1.21914 -3.5662,3.23049 -5.80686,4.33364c-6.56863,0.03181 -0.85507,-8.24547 -0.21803,-11.39458c0.0749,-0.37027 0.13485,-0.74752 0.13466,-1.12529c-0.00232,-4.4891 -2.8445,-1.46091 -4.06865,0.56416c-1.44765,3.87722 -2.14591,7.0683 -2.69121,11.15646c-0.1526,1.1441 -0.12217,2.85384 -1.77736,2.88828c-3.43441,0.07146 -1.03584,-7.05779 -2.67991,-8.58984c-3.16655,-1.57752 -2.43216,1.44254 -2.43216,4.04674c0,4.16975 3.41735,7.32082 4.62354,11.33621c0,0 0.21551,0.71837 -0.50286,0.93388c-0.43449,0.13035 -0.68502,-0.08093 -0.81518,-0.26827z" fill="#000000" stroke-width="0.5"/></g></g></svg>