<svg version="1.1" xmlns="http://www.w3.org/2000/svg" xmlns:xlink="http://www.w3.org/1999/xlink" width="84.68317" height="157.9571" viewBox="0,0,84.68317,157.9571"><g transform="translate(-202.26829,-83.89196)"><g data-paper-data="{&quot;isPaintingLayer&quot;:true}" fill-rule="nonzero" stroke-linejoin="miter" stroke-miterlimit="10" stroke-dasharray="" stroke-dashoffset="0" style="mix-blend-mode: normal"><g stroke="#0f002d" stroke-width="1.5" stroke-linecap="round"><g><path d="M243.05486,194.49133c4.45205,4.21125 0.34367,17.9153 -2.41563,11.33974c-0.682,0.65017 -3.94974,1.16728 -3.79073,-1.34503c-2.92166,-0.11307 -1.90013,-1.99671 -0.24519,-4.73521c1.08371,-1.79325 0.98594,-4.52406 0.98594,-4.52406c0,0 3.90204,-2.21444 5.46561,-0.73545z" fill="#e9caf8"/><path d="M244.0319,198.59425c0,0 0.91934,4.22192 -0.43516,4.9127c-1.52824,0.77939 -2.06233,0.83609 -1.85055,-5.34127" fill="none"/></g><path d="M238.11889,195.69917c-0.34519,0.01972 -3.17681,-0.83022 -3.55471,-7.62277c-0.24537,-4.41054 -2.24761,-10.73787 -2.71568,-14.88665c-1.03367,-9.16201 -1.05737,-11.64792 1.48148,-13.14815c2.53885,-1.50023 2.00663,7.28823 3.51852,12.40741c0.74576,2.52513 2.08192,9.58978 5.71769,14.01773c3.50428,4.26781 1.17086,6.08588 1.73556,7.94929c0.42987,1.41851 -5.01058,1.21615 -6.18286,1.28313z" fill="#5e1284"/></g><g stroke="#0f002d" stroke-width="1.5"><path d="M257.32999,223.56012c0,2.4546 -5.27599,3.7037 -8.70371,2.77777c-4.73933,-1.28023 -13.51852,-5.87873 -13.51852,-8.33333c0,-2.4546 0.27598,-5.55555 5.18518,-5.55555c1.45719,0 4.32443,1.04381 6.43843,2.47117c1.18726,0.80164 1.50307,1.85102 2.7441,2.59522c3.99375,2.39492 7.85451,4.7279 7.85451,6.04472z" fill="#e9caf8" stroke-linecap="butt"/><path d="M232.68042,229.26345c0.30577,5.11188 -2.98995,11.14893 -13.27229,11.83562c-7.44184,0.49699 -9.2906,-3.72465 -9.2906,-8.12248c0,-4.39783 5.88342,-11.72524 10.42823,-12.52693c10.50935,-1.8538 11.70814,1.68308 12.13467,8.81379z" fill="#e9caf8" stroke-linecap="butt"/><g stroke-linecap="round"><path d="M245.20491,178.29505c3.37603,5.01224 6.87631,13.73461 10.05955,19.53042c-2.60212,8.41535 -5.85541,18.60603 -6.5674,18.65218c-1.90271,0.12333 -6.94963,0.19488 -9.65979,-0.94284c-2.11449,-0.88766 -3.403,-3.41609 -3.26377,-4.58839c0.10894,-0.91724 6.57276,-7.85633 6.12654,-15.88411c-1.32089,-6.31725 -5.69968,-16.94363 -6.50228,-16.57895c-0.60021,0.27272 -1.58261,16.05435 -1.11025,22.69787c0.65163,9.16498 -1.23974,21.64424 -1.23974,21.64424l-15.4447,-1.84211c0,0 5.17779,-17.95015 6.20675,-26.00104c0.95559,-7.47677 -1.05194,-20.0371 -0.26634,-20.22805c3.16741,-0.76989 12.60954,-3.53003 14.40937,-3.86922c0.77867,-0.14675 3.65681,2.0723 7.25206,7.40999z" fill="#414ca9"/><path d="M235.39062,178.22021l2.86976,-0.92105" fill="none"/></g></g><g stroke="#0f002d"><path d="M241.46048,171.87996c0,0 -3.77133,2.98723 -6.74558,3.52949c-5.06564,0.92356 -10.56789,-0.45913 -11.25442,-0.95807c-2.326,-1.69042 -3.2005,-8.92338 -2.49819,-12.17741c0.72551,-3.36153 4.19483,-7.0712 8.06962,-5.96545c6.55811,1.87149 3.7009,5.7218 5.95508,8.55152c2.22153,2.78874 6.47349,7.01991 6.47349,7.01991z" fill="#8f21c6" stroke-width="1.5" stroke-linecap="round"/><path d="M234.09958,161.82525c0.54289,2.04985 -1.09333,2.98589 -3.65462,2.0907c-2.56129,-0.89519 -5.07772,-3.28262 -5.62061,-5.33247c-0.54289,-2.04985 1.09333,-2.98589 3.65462,-2.0907c2.56129,0.89519 5.07772,3.28262 5.62061,5.33247z" fill="#0f002d" stroke-width="1" stroke-linecap="butt"/><path d="M235.9802,166.0913c0.45943,0.44957 5.09054,5.63776 4.78189,5.90408c-2.51429,2.1695 -13.27957,3.59099 -14.18257,0.97982c-1.13126,-3.27124 9.16317,-7.11631 9.40068,-6.8839z" fill="#c168ee" stroke-width="1" stroke-linecap="round"/><path d="M231.59738,172.89186c0,0 0.40745,-3.58992 -1.46217,-4.25959c-3.75525,-1.34508 -5.49216,-2.43603 -5.71292,-4.07261c-0.33978,-2.51893 2.42509,-5.33447 2.42509,-5.33447" fill="none" stroke-width="1" stroke-linecap="round"/><path d="M231.43072,160.64186c0,0 1.97934,1.03758 2.94694,2.6832c0.54877,0.9333 0.90613,2.23177 0.67847,3.22582c-0.57453,2.50861 2.20792,3.00765 2.20792,3.00765" fill="none" stroke-width="1" stroke-linecap="round"/></g><g><g><path d="M216.90366,94.81652c9.9726,-7.24245 15.60111,-3.49682 15.60111,-3.49682c0,0 7.22406,-11.8819 24.85203,-3.94679c25.26375,-2.86738 23.58547,7.28012 23.58547,7.28012c0,0 6.38664,9.80377 5.08393,16.58606c-1.42799,7.43453 -10.06731,7.07634 -11.54226,9.1431c-0.97072,1.36023 1.03452,5.96964 0.47162,9.18253c-0.48089,2.7448 -3.47072,4.13596 -3.47072,4.13596c0,0 -0.44066,4.27697 -0.88538,5.29488c-0.70327,1.6097 -5.06913,0.69776 -5.06913,0.69776l-1.56722,3.50136c0,0 -7.33367,5.31795 -21.56622,4.90266c-13.01826,-0.37986 -20.9713,-5.35837 -20.9713,-5.35837c0,0 -13.12788,-1.12511 -11.82947,-14.08569c-13.44849,-11.02478 -2.10992,-16.06583 -2.10992,-16.06583c0,0 1.52378,-12.03826 9.41746,-17.77093z" fill="#3d2747" stroke="#0f002d" stroke-width="1.5" stroke-linecap="round"/><g><g><path d="M246.87859,131.28913c-0.28584,3.43992 -7.28982,11.35416 -16.40625,9.375c-7.68042,-2.01283 -7.03125,-6.65239 -7.03125,-10.10417c0,-3.45178 2.18565,-10.52083 7.55208,-8.22916c3.30672,1.41209 16.30208,3.94405 15.88542,8.95833z" fill="#2f1e38" stroke="none" stroke-width="0" stroke-linecap="butt"/><path d="M246.56608,129.10163c0,0 3.49304,4.29488 -5.74292,9.99607c-7.00343,4.32309 -14.36124,0.31643 -14.36124,0.31643" fill="none" stroke="#0f002d" stroke-width="1" stroke-linecap="round"/></g><path d="M275.25316,119.29835c0,0 -1.10282,6.73366 -7.80442,9.56573c-10.34388,4.37128 -14.52364,-2.28978 -14.52364,-2.28978c0,0 -18.06102,7.13805 -21.893,-3.92559c-5.70917,-0.73527 -2.47465,-4.8707 -2.47465,-4.8707" fill="#3d2747" stroke="#0f002d" stroke-width="1.5" stroke-linecap="round"/></g><path d="M222.09828,135.02335c0.07253,-0.94411 4.70321,7.14067 11.1539,8.46274c6.05469,1.24091 13.65871,-2.57065 16.75142,-3.03026c1.85576,-0.25596 4.37705,1.74122 6.60443,2.47727c3.31406,1.09516 6.77372,0.54038 6.41154,0.81795c-1.02988,0.78929 -4.49398,10.29 -10.024,14.51964c-3.19586,2.44435 -14.53644,5.4833 -21.51942,3.55207c-7.59018,-2.09916 -8.07053,-9.39837 -9.37786,-26.79941z" fill="#e9caf8" stroke="#0f002d" stroke-width="1.5" stroke-linecap="round"/></g><g stroke="#0f002d" stroke-linecap="round"><path d="M223.23276,141.18498c0,0 5.21218,5.86759 10.71791,6.73424c3.42078,0.53846 6.72545,-0.83476 11.05382,-0.97321c2.21211,-0.07076 5.36485,0.6019 8.32642,0.66542c2.83325,0.06077 5.52685,-0.48895 5.52685,-0.48895c0,0 -2.59506,2.95806 -3.71434,4.60753c-1.43861,2.12006 -4.51483,7.4758 -4.51483,7.4758c0,0 -6.31656,2.69167 -12.40674,3.03641c-4.69602,0.26583 -9.23491,-1.4353 -11.32021,-2.76018c-4.41604,-2.80568 -3.66888,-18.29707 -3.66888,-18.29707z" fill="#ffffff" stroke-width="1.5"/><path d="M251.14942,148.16413l-3.95833,11.25l-2.70833,-11.66667l-6.66667,13.64583l-2.8125,-12.5l-7.8125,9.6875l0.3125,-13.02083l-3.54167,3.95833" fill="none" stroke-width="1"/><path d="M256.87858,148.47663l-4.58333,6.97917l-0.83333,-7.70833z" fill="#0f002d" stroke-width="1"/></g></g><g stroke="#0f002d" stroke-width="1.5" stroke-linecap="round"><path d="M223.32999,200.57864c0,0 3.49998,4.12381 3.02353,9.07288c-0.62639,6.50656 -2.80631,12.25316 -6.35687,7.77898c-2.74364,-0.61404 -3.65637,1.69173 -5.348,0.80541c-2.20832,-1.15704 -1.65025,-1.27563 -2.19005,-2.46319c-3.79269,-0.81762 -3.56635,-4.52541 -1.75523,-7.48307c1.73464,-2.83277 1.88587,-6.78506 1.88587,-6.78506z" fill="#e9caf8"/><path d="M222.96553,180.20654c0.06071,6.64812 3.76214,11.66638 2.4015,17.22397c-1.36064,5.55759 -5.20707,5.84685 -7.78318,6.0384c-2.45124,0.18227 -5.03541,-0.58161 -5.78611,-3.53447c-2.34421,-9.2209 1.92815,-10.63003 2.82855,-18.98541c1.87461,-17.39568 3.59279,-24.36701 6.11111,-24.81481c0.72014,-0.12805 1.5866,0.31114 1.92646,1.98427c1.02997,5.07061 0.25454,16.92738 0.30167,22.08806z" fill="#5e1284"/></g></g></g></svg>