<svg version="1.1" xmlns="http://www.w3.org/2000/svg" xmlns:xlink="http://www.w3.org/1999/xlink" width="63.36157" height="124.90382" viewBox="0,0,63.36157,124.90382"><g transform="translate(-215.30727,-114.69965)"><g data-paper-data="{&quot;isPaintingLayer&quot;:true}" fill="#9966ff" fill-rule="nonzero" stroke="none" stroke-width="0.5" stroke-linecap="butt" stroke-linejoin="miter" stroke-miterlimit="10" stroke-dasharray="" stroke-dashoffset="0" style="mix-blend-mode: normal"><path d="M265.84211,134.76974c0,-1.24265 0.90663,-2.27354 2.09451,-2.46728c-0.58604,-1.11623 -1.34383,-2.21488 -2.24438,-3.38646c-5.83647,-7.59302 -14.00651,-9.80082 -23.2753,-8.82665c-12.89514,4.94649 -25.27468,17.67061 -21.6368,32.88845c1.03838,4.34371 3.61754,7.54572 6.38237,10.89259c3.35103,2.79086 6.75604,3.67046 10.91752,4.71083l1.19081,0.38917c0,0 2.37171,0.79057 1.58114,3.16228c-0.79057,2.37171 -3.16228,1.58114 -3.16228,1.58114l-0.82235,-0.28188c-5.11762,-1.27941 -9.12784,-2.59745 -13.24038,-6.02601c-3.37718,-4.02303 -6.4875,-8.00604 -7.70974,-13.2653c-2.0506,-8.82364 1.24,-20.73859 7.30961,-27.4466c4.96514,-5.48738 11.19542,-8.95267 18.02727,-11.46758c2.97566,-0.34393 6.23695,-0.74239 9.24236,-0.38915c12.05898,1.41737 25.43451,12.04707 23.68216,25.27079c-0.43013,3.24588 -2.08146,5.87695 -3.66592,8.65199c0,0 -0.88406,1.54711 -2.46559,1.28267c-0.78997,1.13936 -2.32978,0.96827 -2.32978,0.96827c-4.98448,-0.56049 -10.15837,-0.90408 -14.06142,2.97385c-1.81849,1.80679 -2.43543,4.48326 -3.02543,6.85925c-0.03477,0.14002 -1.04345,2.8975 -0.44037,3.61996c0.81344,0.97445 2.41211,0.80147 3.64648,1.09741l1.56158,0.30943c0,0 2.45145,0.49029 1.96116,2.94174c-0.49029,2.45145 -2.94174,1.96116 -2.94174,1.96116l-1.79368,-0.36162c-2.11007,-0.54446 -4.98878,-0.96023 -6.41931,-2.9289c-3.19309,-4.3943 0.57962,-13.68404 3.91578,-17.03396c5.00286,-5.02349 11.63485,-5.1236 18.14911,-4.40773c0,0 0.01274,0.00142 0.03631,0.00496c1.18938,-2.04562 2.63448,-4.14239 2.91029,-6.54939c0.09872,-0.86149 0.12373,-1.66126 0.08041,-2.41607c-0.29408,0.12156 -0.61641,0.18864 -0.9544,0.18864c-1.38071,0 -2.5,-1.11929 -2.5,-2.5z"></path><path d="M247.38816,136.44737c0,-1.38071 1.11929,-2.5 2.5,-2.5c1.38071,0 2.5,1.11929 2.5,2.5c0,1.38071 -1.11929,2.5 -2.5,2.5c-1.38071,0 -2.5,-1.11929 -2.5,-2.5z"></path><path d="M274.72298,188.84977c-2.37171,-0.79057 -1.58114,-3.16228 -1.58114,-3.16228l0.44874,-0.94053c0.04793,-0.94372 -0.02173,-1.64099 -0.2191,-2.16229c-1.22099,0.38018 -2.44199,0.76037 -3.66298,1.14055l-0.63842,-0.99648c-0.0914,0.61454 -0.21542,1.22295 -0.37979,1.82c-0.95725,3.47721 -3.09302,8.45727 -6.00073,10.77311c-5.22698,4.16301 -10.17457,-0.27801 -14.70104,-2.93966c-2.11558,-1.24401 -3.91169,-2.29098 -5.66619,-3.71476c0,3.25604 0,6.51207 0,9.76811c0.24025,-0.02117 0.44305,-0.00834 0.5962,0.04726c0.60985,0.22139 3.85459,4.86393 4.64208,5.96543l0.80777,0.45967c0,0 2,1.5 0.5,3.5l0.00003,-0.00001c-1.5,2 -3.5,0.5 -3.5,0.5l-1.87644,-1.55348c-0.30067,-0.42129 -0.63674,-0.8212 -0.95256,-1.23334c2.06129,4.91624 3.05868,10.18258 4.33846,15.34476c1.45311,-0.12531 2.89634,-0.45355 4.29897,-0.84541l2.95363,-0.98556c0,0 2.37171,-0.79057 3.16228,1.58114c0.79057,2.37171 -1.58114,3.16228 -1.58114,3.16228l-3.08585,1.0276c-2.31416,0.6187 -4.70409,1.09628 -7.09946,1.11385c0,0 -1.45294,0 -2.14353,-1.10765c-0.31471,-0.25104 -0.53602,-0.55901 -0.68033,-0.80914c-0.14693,1.44306 -0.36573,2.85546 -0.67266,4.21853c0.10956,0.2227 0.19652,0.48405 0.25225,0.79052c0.44721,2.45967 -2.01246,2.90689 -2.01246,2.90689c-6.69003,1.19898 -12.69192,4.47806 -19.11717,6.62256l-1.00658,0.33553c0,0 -2.37171,0.79057 -3.16228,-1.58114c-0.79057,-2.37171 1.58114,-3.16228 1.58114,-3.16228l1.00658,-0.33553c5.92735,-1.97314 11.46063,-4.79261 17.49249,-6.2961c1.66497,-6.46145 0.77696,-14.64406 -0.05762,-21.21947c0,0 -0.06325,-0.50598 0.0959,-1.08948c-3.00797,1.25296 -8.36922,3.81322 -10.81799,0.40994c-1.21309,-1.68594 1.44644,-6.10353 2.21822,-7.74356c2.5127,-5.33946 4.77097,-10.89402 8.57379,-15.44863c0.09365,-0.15179 0.19436,-0.28375 0.30016,-0.39819c0.13971,-0.72474 0.64179,-2.027 2.44614,-2.027c1.94511,0 2.37683,1.51337 2.47266,2.18519c1.03434,0.013 1.80685,0.78551 1.80685,0.78551c2.03431,2.05985 3.93873,3.05516 6.42661,4.51915c1.54831,0.9111 3.01508,1.95694 4.56919,2.85809c0.83271,0.48285 2.13757,1.32689 3.24295,1.16191c1.22501,-0.18284 1.86145,-1.57667 2.41633,-2.41481c1.71666,-2.59297 3.27407,-5.51585 3.61602,-8.6686c0.10419,-0.9606 -0.26234,-1.98455 0.05195,-2.89824c0.48572,-1.41206 0.98025,-3.11273 2.27286,-3.86038c2.50297,-1.44774 7.29931,-0.16477 8.26415,2.9113c1.56035,0.78853 2.78765,2.07318 3.53178,4.29646c0.34779,1.03911 0.06459,2.19057 0.09688,3.28586l-0.70533,2.52167c0,0 -0.79057,2.37171 -3.16228,1.58114zM233.02404,200.59328c-0.18871,0.40101 -0.41433,0.96505 -0.67198,1.50384c0.18064,-0.07183 0.36242,-0.14054 0.54238,-0.21024c0.98424,-0.38119 2.02035,-0.61836 3.00418,-1.0006c0.31381,-0.12192 0.81997,-0.35499 1.42375,-0.63092c0,-2.88586 0,-5.79106 0,-8.68367c-1.595,2.92272 -2.89593,6.04148 -4.29833,9.0216z"></path></g></g></svg>