<svg version="1.1" xmlns="http://www.w3.org/2000/svg" xmlns:xlink="http://www.w3.org/1999/xlink" width="47.43652" height="48.01254" viewBox="0,0,47.43652,48.01254"><g transform="translate(-216.28175,-155.99372)"><g data-paper-data="{&quot;isPaintingLayer&quot;:true}" fill-rule="nonzero" stroke="none" stroke-width="0.5" stroke-linecap="butt" stroke-linejoin="miter" stroke-miterlimit="10" stroke-dasharray="" stroke-dashoffset="0" style="mix-blend-mode: normal"><path d="M259.45734,171.97428c1.93166,1.94258 3.21784,4.35392 3.80331,6.91815c0.41469,1.15595 0.57872,2.31091 0.36158,3.41798c-0.01516,1.09308 -0.1548,2.18875 -0.42285,3.26452c-3.3803,6.81188 -10.44609,12.65458 -17.85152,15.3588c-2.29279,1.82799 -5.12281,3.8088 -7.76636,2.79939c-0.44256,-0.16899 -0.88598,-0.48191 -1.32438,-0.89028c-1.0734,-0.58904 -1.78636,-1.88793 -2.43133,-3.06952c-0.09719,-0.14582 -0.19341,-0.29178 -0.28856,-0.43715c-0.3125,-0.31032 -0.6334,-0.61095 -0.9629,-0.89972c-0.20671,-0.18115 -2.18104,-1.73573 -2.28697,-1.98008c-0.08249,-0.19028 -0.10797,-0.38766 -0.08615,-0.59011c-0.72689,-0.64337 -1.32987,-1.3137 -1.39643,-1.92409c-0.05786,-0.5306 0.64364,-0.85163 0.96772,-1.27572c0.64759,-0.84741 2.94129,-2.63904 4.64557,-3.46448c-3.1309,0 -6.2618,0 -9.3927,0c-1.72815,0 -6.19129,0.77933 -7.39084,-0.80772c-0.36953,-0.4889 -0.22455,-1.33714 -0.03821,-2.13212c-0.21161,-0.1857 -0.40889,-0.4122 -0.58924,-0.69141c-1.09625,-1.69721 -0.71045,-4.62189 -0.38256,-7.13103c-0.03807,-0.57726 -0.0571,-1.13568 -0.05503,-1.66419c0.0028,-0.71493 -0.1943,-2.49201 0.62519,-3.04961c0.29808,-0.20282 0.69347,-0.27479 1.12508,-0.27115c0.04142,-0.32382 0.08857,-0.64692 0.14228,-0.96921c0,0 0.1233,-0.7398 0.86309,-0.6165c0.7398,0.1233 0.6165,0.86309 0.6165,0.86309c-0.01509,0.09051 -0.02961,0.18109 -0.04359,0.27175c0.96495,-0.08405 2.08499,0.04412 3.32906,-0.04512c3.78784,-0.27173 7.40717,0.22049 11.09153,0.48022c-0.60387,-0.32393 -1.19891,-0.71429 -1.55386,-1.10969c-0.35083,-0.3908 -0.87938,-1.03806 -1.44668,-1.79273c-1.49933,-1.11354 -2.8443,-2.66947 -2.60398,-4.18497c-0.11442,-0.2831 -0.19178,-0.53824 -0.22155,-0.75414c-0.16193,-1.17431 0.59343,-1.1689 1.06354,-1.87207c1.25118,-1.87145 2.39021,-3.14608 4.4505,-4.29297c1.73259,-1.33056 3.57474,-3.12321 5.85452,-3.41526c0.46541,-0.05962 0.94465,-0.00245 1.4222,0.13784c0.30869,-0.04602 0.63506,-0.04194 0.9928,0.03764c2.2577,0.50224 4.446,2.40686 6.03359,3.99445c2.63586,3.29483 6.01802,5.89202 8.70679,9.16363c0.31156,0.3791 0.58308,0.77908 0.83695,1.18783c0.55964,0.45203 1.09786,0.92684 1.60389,1.43573zM219.48083,183.45733c-0.00389,0.10149 -0.10978,0.81931 -0.23114,1.62752c0.04558,0.16433 0.09161,0.32497 0.13791,0.48133c0.64118,0.21136 1.376,0.20934 2.09523,0.36364c2.51004,0.5385 5.65201,1.18013 8.43904,1.39001c0.74261,-0.04997 1.41882,-0.08843 1.98584,-0.08843c0.68948,0 4.22158,-0.3984 4.60876,0.06281c0.11604,0.13822 0.19843,0.27972 0.25115,0.42361c0.11332,0.02365 0.21725,0.07288 0.30548,0.14137c0.5535,0.13913 0.95562,0.31834 1.06455,0.54881c0.31375,0.66379 -0.48364,1.39393 -0.83784,2.03704c-0.89914,1.63253 -3.1847,3.82347 -4.98989,4.92041c0.42942,0.48926 0.88155,0.96983 1.33316,1.45148c0.10306,0.0915 0.18876,0.17617 0.25209,0.25238c0.02244,0.02701 0.04581,0.05776 0.07006,0.09194c0.64817,0.69523 1.2838,1.39753 1.83756,2.13613c0.17416,0.2323 0.3615,0.56318 0.5652,0.92302c0.33426,0.40352 0.65729,0.81469 0.96906,1.23038c0.07018,0.07018 0.14209,0.13343 0.21561,0.19013c0.92382,-0.15632 2.42998,-0.82366 3.42422,-1.02251c0.69444,-0.13888 1.3921,-0.31076 2.08979,-0.51361c0.09898,-0.05929 0.19618,-0.11635 0.29134,-0.17048c0.83694,-0.47606 1.72439,-0.95181 2.63343,-1.43971c0.12932,-0.10421 0.2538,-0.20241 0.37296,-0.29318c3.13026,-2.23297 6.67673,-4.23726 9.54235,-6.7219c0.39956,-0.48534 0.76306,-0.99466 1.08335,-1.53105c1.08539,-1.7863 2.47666,-3.14688 3.59851,-4.74249c0.53892,-1.41164 0.84363,-2.98112 0.84363,-4.75399c0.00241,-1.2245 -0.33499,-2.23054 -0.85061,-3.15971c-0.08123,-0.14246 -0.16474,-0.28393 -0.25037,-0.42442c-0.5339,-0.85624 -1.2039,-1.6636 -1.8749,-2.54047c-0.10015,-0.13088 -0.19617,-0.26394 -0.28897,-0.3987c-0.81486,-0.95632 -1.68707,-1.86794 -2.55296,-2.74523c-2.49181,-1.99064 -5.24984,-3.84856 -7.43197,-6.02432c-2.32073,-1.98793 -4.27978,-4.31108 -6.56674,-6.25536l-0.26191,-0.72631c0,0 0,-0.19082 0.09625,-0.37995c-0.10513,-0.04908 -0.21031,-0.09329 -0.31517,-0.13188c-0.99467,0.22454 -2.23848,1.0586 -2.76618,1.54127c-2.33515,2.13588 -5.0157,4.0764 -7.24039,6.29567c-0.41501,0.26413 -0.65775,0.55465 -0.76287,0.86336c0.53783,1.04503 1.42787,2.31542 2.24469,3.38345c1.46649,1.16409 3.19619,2.22091 3.78548,2.83833c0.30229,0.31672 1.0699,0.5801 1.54357,0.99664c0.02872,0.00003 0.05745,0.00002 0.08619,-0.00002c0,0 0.75,0 0.75,0.75c0,0.65292 -0.56841,0.73743 -0.71555,0.74837c-0.68572,0.92059 -2.38163,0.98391 -3.26031,1.04545c-0.59036,0.04135 -1.20752,0.06238 -1.83924,0.06448c-0.59239,0.04591 -1.09562,0.06721 -1.40129,0.08786c-2.50664,0.16592 -5.50251,0.42422 -7.96901,-0.11558c-0.55509,-0.12148 -1.40187,-0.45859 -2.29478,-0.76299c-0.27434,-0.00783 -0.54878,-0.01391 -0.82341,-0.01739l-0.80775,-0.31032c-0.21323,2.77975 -0.07653,5.60264 -0.18318,8.38312zM218.88679,187.56852c0.13596,0.15779 0.44694,0.25485 0.86169,0.30981c-0.29264,-0.14772 -0.57296,-0.31673 -0.83867,-0.50983c-0.01706,0.12411 -0.02573,0.19687 -0.02302,0.20002zM231.28039,194.09577c1.26373,-1.28948 3.25718,-2.55675 3.88658,-3.36222c0.00467,-0.00598 0.00933,-0.01196 0.01399,-0.01795c-0.61102,0.46445 -1.2899,0.86167 -2.02602,1.30319c-0.24224,0.17054 -0.44386,0.31719 -0.58077,0.43447c-0.20939,0.20889 -0.59733,0.38925 -0.93422,0.57277c-0.20909,0.17019 -0.41266,0.34799 -0.61729,0.52342c-0.02339,0.08192 -0.00937,0.16843 0.05482,0.26131c0.06609,0.09563 0.13377,0.19062 0.20291,0.28502z" fill="#440000"/><g fill="#ffbdbd"><path d="M218.86742,187.34199c0.26571,0.1931 0.63146,0.41407 0.9241,0.56179c-0.41475,-0.05495 -0.81836,-0.18379 -0.95432,-0.34158c-0.00271,-0.00315 0.01317,-0.0961 0.03022,-0.22021z" data-paper-data="{&quot;noHover&quot;:false,&quot;origItem&quot;:[&quot;Path&quot;,{&quot;applyMatrix&quot;:true,&quot;selected&quot;:true,&quot;segments&quot;:[[[218.88679,187.56852],[-0.00271,-0.00315],[0.13596,0.15779],7],[[219.74848,187.87833],[-0.41475,-0.05495],[-0.29264,-0.14772],7],[[218.90981,187.36851],[0.26571,0.1931],[-0.01706,0.12411],7]],&quot;closed&quot;:true}]}"/><path d="M231.03645,193.8393c-0.06419,-0.09287 -0.08095,-0.1838 -0.05756,-0.26572c0.20463,-0.17543 0.40597,-0.35778 0.61507,-0.52797c0.33688,-0.18352 0.72104,-0.37893 0.93042,-0.58783c0.13691,-0.11727 0.39579,-0.3179 0.63803,-0.48844c0.73613,-0.44152 1.44637,-0.82079 2.05739,-1.28524c-0.00465,0.00599 -0.00926,0.01205 -0.01393,0.01803c-0.6294,0.80547 -2.69836,2.13821 -3.96209,3.42769c-0.06913,-0.09441 -0.14125,-0.1949 -0.20734,-0.29053z" data-paper-data="{&quot;noHover&quot;:false,&quot;origItem&quot;:[&quot;Path&quot;,{&quot;applyMatrix&quot;:true,&quot;selected&quot;:true,&quot;segments&quot;:[[[231.28039,194.09577],[-0.06913,-0.09441],[1.26373,-1.28948],7],[[235.16698,190.73355],[-0.6294,0.80547],[0.00467,-0.00598],7],[[235.18096,190.7156],[-0.00465,0.00599],[-0.61102,0.46445],7],[[233.15494,192.01879],[0.73613,-0.44152],[-0.24224,0.17054],7],[[232.57417,192.45325],[0.13691,-0.11727],[-0.20939,0.20889],7],[[231.63995,193.02602],[0.33688,-0.18352],[-0.20909,0.17019],7],[[231.02267,193.54944],[0.20463,-0.17543],[-0.02339,0.08192],7],[[231.07749,193.81074],[-0.06419,-0.09287],[0.06609,0.09563],7]],&quot;closed&quot;:true}]}"/><path d="M219.6152,175.0634l0.80769,0.31063c0.27463,0.00349 0.64676,0.03096 0.9211,0.03879c0.89291,0.3044 1.64194,0.62042 2.19703,0.74191c2.4665,0.53979 5.46464,0.27377 7.97128,0.10785c0.30568,-0.02065 0.81031,-0.04525 1.4027,-0.09116c0.63172,-0.00209 1.25196,-0.02874 1.84232,-0.07009c0.87869,-0.06154 2.59446,-0.14276 3.28017,-1.06335c0.14715,-0.01094 0.72376,-0.09868 0.72376,-0.7516c0,-0.75 -0.71806,-0.65532 -0.71806,-0.65532c-0.02874,0.00004 -0.05689,-0.00018 -0.08561,-0.0002c-0.47368,-0.41654 -1.2353,-0.68275 -1.53759,-0.99947c-0.58928,-0.61741 -2.3126,-1.67847 -3.77909,-2.84257c-0.81682,-1.06804 -1.76765,-2.41782 -2.30548,-3.46285c0.10513,-0.30871 0.35061,-0.60114 0.76561,-0.86528c2.22468,-2.21927 4.92771,-4.16766 7.26286,-6.30354c0.5277,-0.48267 1.77812,-1.31693 2.77278,-1.54146c0.10486,0.03859 0.21077,0.08283 0.3159,0.13191c-0.09625,0.18914 -0.09643,0.37994 -0.09643,0.37994l0.26262,0.72634c2.28697,1.94428 4.26673,4.27336 6.58747,6.26129c2.18214,2.17576 4.9601,4.05341 7.45191,6.04405c0.86589,0.87729 1.74198,1.79787 2.55684,2.75419c0.09279,0.13476 0.18918,0.269 0.28933,0.39988c0.671,0.87687 1.34256,1.69144 1.87645,2.54767c0.08563,0.14049 0.16928,0.28306 0.25051,0.42552c0.51563,0.92917 0.85332,1.9429 0.85091,3.1674c0,1.77287 -0.30645,3.35368 -0.84537,4.76532c-1.12185,1.59561 -2.51882,2.96927 -3.60421,4.75556c-0.32028,0.53639 -0.6865,1.04966 -1.08606,1.535c-2.86562,2.48464 -6.43646,4.50624 -9.56672,6.73921c-0.11916,0.09077 -0.24471,0.18931 -0.37404,0.29352c-0.90904,0.4879 -1.8035,0.96521 -2.64043,1.44127c-0.09517,0.05413 -0.19311,0.11129 -0.29209,0.17059c-0.69769,0.20285 -1.40044,0.37515 -2.09488,0.51402c-0.99424,0.19885 -2.50821,0.86581 -3.43203,1.02214c-0.07352,-0.0567 -0.14597,-0.12002 -0.21614,-0.1902c-0.31177,-0.41569 -0.63746,-0.8273 -0.97172,-1.23082c-0.2037,-0.35984 -0.39281,-0.6911 -0.56697,-0.92339c-0.55376,-0.73859 -1.19525,-1.44264 -1.84342,-2.13786c-0.02425,-0.03418 -0.04786,-0.06502 -0.0703,-0.09203c-0.06333,-0.07621 -0.14985,-0.1612 -0.25291,-0.2527c-0.45161,-0.48166 -0.8628,-1.05333 -1.29223,-1.54258c1.80519,-1.09694 4.08156,-3.29148 4.9807,-4.92402c0.3542,-0.64312 1.12583,-1.27664 0.81208,-1.94043c-0.10893,-0.23046 -0.51735,-0.41172 -1.07085,-0.55084c-0.08823,-0.06849 -0.19392,-0.11846 -0.30723,-0.14211c-0.05271,-0.14389 -0.13724,-0.2864 -0.25327,-0.42461c-0.38719,-0.46121 -3.93409,-0.0741 -4.62357,-0.0741c-0.56702,0 -1.24632,0.03468 -1.98892,0.08464c-2.78703,-0.20988 -5.93617,-0.86535 -8.44621,-1.40385c-0.71923,-0.1543 -1.45473,-0.15449 -2.09591,-0.36585c-0.0463,-0.15635 -0.09263,-0.3181 -0.13821,-0.48244c0.12136,-0.80821 0.22648,-1.52953 0.23037,-1.63102c0.10665,-2.78049 -0.02967,-5.62316 0.18356,-8.4029z" data-paper-data="{&quot;noHover&quot;:false,&quot;origItem&quot;:[&quot;Path&quot;,{&quot;applyMatrix&quot;:true,&quot;selected&quot;:true,&quot;segments&quot;:[[[219.48083,183.45733],[0.10665,-2.78049],[-0.00389,0.10149],7],[[219.2497,185.08485],[0.12136,-0.80821],[0.04558,0.16433],7],[[219.3876,185.56618],[-0.0463,-0.15635],[0.64118,0.21136],7],[[221.48283,185.92982],[-0.71923,-0.1543],[2.51004,0.5385],7],[[229.92188,187.31982],[-2.78703,-0.20988],[0.74261,-0.04997],7],[[231.90772,187.23139],[-0.56702,0],[0.68948,0],7],[[236.51648,187.2942],[-0.38719,-0.46121],[0.11604,0.13822],7],[[236.76763,187.71781],[-0.05271,-0.14389],[0.11332,0.02365],7],[[237.07311,187.85918],[-0.08823,-0.06849],[0.5535,0.13913],7],[[238.13766,188.40799],[-0.10893,-0.23046],[0.31375,0.66379],7],[[237.29982,190.44503],[0.3542,-0.64312],[-0.89914,1.63253],7],[[232.30992,195.36544],[1.80519,-1.09694],[0.42942,0.48926],7],[[233.64308,196.81693],[-0.45161,-0.48166],[0.10306,0.0915],7],[[233.89517,197.06931],[-0.06333,-0.07621],[0.02244,0.02701],7],[[233.96523,197.16125],[-0.02425,-0.03418],[0.64817,0.69523],7],[[235.80279,199.29738],[-0.55376,-0.73859],[0.17416,0.2323],7],[[236.368,200.2204],[-0.2037,-0.35984],[0.33426,0.40352],7],[[237.33706,201.45078],[-0.31177,-0.41569],[0.07018,0.07018],7],[[237.55266,201.6409],[-0.07352,-0.0567],[0.92382,-0.15632],7],[[240.97688,200.61839],[-0.99424,0.19885],[0.69444,-0.13888],7],[[243.06667,200.10479],[-0.69769,0.20285],[0.09898,-0.05929],7],[[243.35801,199.93431],[-0.09517,0.05413],[0.83694,-0.47606],7],[[245.99144,198.4946],[-0.90904,0.4879],[0.12932,-0.10421],7],[[246.3644,198.20141],[-0.11916,0.09077],[3.13026,-2.23297],7],[[255.90674,191.47951],[-2.86562,2.48464],[0.39956,-0.48534],7],[[256.99009,189.94846],[-0.32028,0.53639],[1.08539,-1.7863],7],[[260.5886,185.20597],[-1.12185,1.59561],[0.53892,-1.41164],7],[[261.43223,180.45198],[0,1.77287],[0.00241,-1.2245],7],[[260.58162,177.29227],[0.51563,0.92917],[-0.08123,-0.14246],7],[[260.33125,176.86785],[0.08563,0.14049],[-0.5339,-0.85624],7],[[258.45635,174.32738],[0.671,0.87687],[-0.10015,-0.13088],7],[[258.16738,173.92868],[0.09279,0.13476],[-0.81486,-0.95632],7],[[255.61442,171.18345],[0.86589,0.87729],[-2.49181,-1.99064],7],[[248.18245,165.15914],[2.18214,2.17576],[-2.32073,-1.98793],7],[[241.6157,158.90378],[2.28697,1.94428],[0,0],7],[[241.3538,158.17747],[0,0],[0,0],7],[[241.45005,157.79752],[-0.09625,0.18914],[-0.10513,-0.04908],7],[[241.13487,157.66564],[0.10486,0.03859],[-0.99467,0.22454],7],[[238.3687,159.20691],[0.5277,-0.48267],[-2.33515,2.13588],7],[[231.12831,165.50258],[2.22468,-2.21927],[-0.41501,0.26413],7],[[230.36544,166.36594],[0.10513,-0.30871],[0.53783,1.04503],7],[[232.61013,169.74939],[-0.81682,-1.06804],[1.46649,1.16409],7],[[236.39561,172.58772],[-0.58928,-0.61741],[0.30229,0.31672],7],[[237.93918,173.58435],[-0.47368,-0.41654],[0.02872,0.00003],7],[[238.02537,173.58433],[-0.02874,0.00004],[0,0],7],[[238.77537,174.33433],[0,-0.75],[0,0.65292],7],[[238.05981,175.08271],[0.14715,-0.01094],[-0.68572,0.92059],7],[[234.7995,176.12816],[0.87869,-0.06154],[-0.59036,0.04135],7],[[232.96026,176.19263],[0.63172,-0.00209],[-0.59239,0.04591],7],[[231.55897,176.28049],[0.30568,-0.02065],[-2.50664,0.16592],7],[[223.58996,176.16491],[2.4665,0.53979],[-0.55509,-0.12148],7],[[221.29519,175.40192],[0.89291,0.3044],[-0.27434,-0.00783],7],[[220.47177,175.38453],[0.27463,0.00349],[0,0],7],[[219.66402,175.07421],[0,0],[-0.21323,2.77975],7]],&quot;closed&quot;:true}]}"/></g></g></g></svg>