<svg version="1.1" xmlns="http://www.w3.org/2000/svg" xmlns:xlink="http://www.w3.org/1999/xlink" width="480.05041" height="337.73103" viewBox="0,0,480.05041,337.73103"><defs><radialGradient cx="179.63917" cy="92.91837" r="32.17023" gradientUnits="userSpaceOnUse" id="color-1"><stop offset="0" stop-color="#001026" stop-opacity="0.70588"></stop><stop offset="1" stop-color="#001026" stop-opacity="0.87843"></stop></radialGradient><linearGradient x1="253.14941" y1="116.5" x2="253.14941" y2="129" gradientUnits="userSpaceOnUse" id="color-2"><stop offset="0" stop-color="#dddee1"></stop><stop offset="1" stop-color="#b6b7ba"></stop></linearGradient><linearGradient x1="324.77422" y1="94.34988" x2="324.77422" y2="117.39962" gradientUnits="userSpaceOnUse" id="color-3"><stop offset="0" stop-color="#dddee1"></stop><stop offset="1" stop-color="#b6b7ba"></stop></linearGradient><linearGradient x1="337.91978" y1="48.5" x2="337.91978" y2="89" gradientUnits="userSpaceOnUse" id="color-4"><stop offset="0" stop-color="#dddee1"></stop><stop offset="1" stop-color="#b6b7ba"></stop></linearGradient><linearGradient x1="198.75982" y1="249.06497" x2="198.75982" y2="268.73163" gradientUnits="userSpaceOnUse" id="color-5"><stop offset="0" stop-color="#dddee1"></stop><stop offset="1" stop-color="#b6b7ba"></stop></linearGradient><linearGradient x1="197.06264" y1="223.66225" x2="197.06264" y2="242.16225" gradientUnits="userSpaceOnUse" id="color-6"><stop offset="0" stop-color="#dddee1"></stop><stop offset="1" stop-color="#b6b7ba"></stop></linearGradient></defs><g transform="translate(0.98754,3.24064)"><g stroke-miterlimit="10"><path d="M207.23335,243.37267c3.40749,1.53174 3.893,4.55118 5.51657,7.40054c2.72515,4.78265 6.55877,9.41347 10.07517,13.62559c0,0 0.04629,0.05555 0.11368,0.15563c0.0723,0.09659 0.1095,0.1586 0.1095,0.1586l0.77682,1.35245c2.83366,3.42408 3.75948,6.39391 4.3617,10.48853c3.65209,0.80259 7.43296,1.30846 10.62476,3.27466c1.08261,0.6669 2.4787,1.05202 3.17311,2.11719c0.85831,1.31659 0.84263,5.84768 0.75321,7.38675c-0.07956,1.36929 0.34094,2.96669 -0.44519,4.09065c-0.97955,1.4005 -6.43284,3.29988 -8.35259,4.34176l-0.46615,1.35229c-0.34331,0.68662 -0.68662,1.37323 -1.02992,2.05985c-0.10539,0.92356 -0.77171,1.58989 -0.77171,1.58989l-0.83397,0.81945c-1.13511,0.94592 -2.69529,1.49175 -3.48301,2.74184c-0.81209,1.28877 -0.33044,3.03563 -0.67129,4.5203c-0.6021,2.62266 -1.80661,6.41932 -3.98439,8.17874c-1.04555,0.8447 -2.58821,0.72696 -3.88739,1.07168c-2.80791,0.74505 -5.62203,1.38684 -8.46796,1.96147l-0.62993,0.28949c-3.1624,2.31422 -6.89236,4.32065 -9.54942,7.24186c-1.78535,1.96285 -1.00756,4.25916 -4.68666,4.84066c-1.90189,0.3006 -3.79792,-0.6474 -5.67681,-1.06848c-4.94342,-1.10786 -9.43931,-3.5317 -14.38272,-4.57912c-2.97865,-0.63112 -6.00797,0.38101 -8.95309,0.92821c-0.61961,0.26639 -1.20104,0.18793 -1.6615,0.01299c-0.48491,-0.12753 -1.01371,-0.40926 -1.36308,-1.0076l-1.3232,-1.39428c-0.83163,-1.33107 -2.35599,-3.69157 -3.08419,-5.14535c-0.41144,-0.8214 -0.56682,-2.61348 -1.44581,-2.34637c-3.67325,1.11623 -6.50953,5.39422 -11.0092,1.70343c-0.78054,-0.64022 -1.64283,-5.21424 -2.12426,-8.03364c-1.87907,0.00776 -5.93035,0.00995 -6.36049,-0.28015c-4.345,-2.93035 -3.64423,-5.92697 -0.26303,-8.95608c1.38308,-1.23905 5.41123,-1.75912 7.24804,-2.73718c0.26645,-0.14188 -0.59158,0.33014 -0.87609,0.22926c-1.0741,-0.38086 -2.42579,-0.63479 -3.01633,-1.60946c-0.12621,-0.20831 -0.23633,-0.42337 -0.33329,-0.64395l-0.11928,0.06816l-1.31155,-2.29521c-0.22304,-0.37408 -0.35117,-0.81131 -0.35117,-1.27847c0,-1.38071 1.11929,-2.5 2.5,-2.5c0.36939,0 0.72006,0.08011 1.0356,0.22391l2.24272,0.96117c0.75232,0.28192 1.50465,0.56383 2.25697,0.84575l0.30775,0.01772c3.11761,-0.62135 6.46681,-0.60173 9.53293,-1.30275c2.35973,-0.53951 4.67402,-2.33294 6.77772,-3.44999c0.74069,-0.3933 3.16729,-1.33297 3.84178,-2.28975c2.16696,-3.07386 2.08914,-4.93044 5.64431,-7.2703c3.65543,-2.40584 7.08249,-2.81374 10.20651,-5.95042c1.25555,-3.40933 2.29785,-6.8561 3.42226,-10.28534h-0.10189v-3.33333c0,-1.09318 0.70165,-2.02248 1.67917,-2.36213c-0.99448,-5.06834 -2.89412,-10.10608 -4.28202,-15.07662l0.02111,-0.12215l-0.0446,0.00811l-0.65784,-3.61814c-0.03223,-0.16023 -0.04915,-0.32601 -0.04915,-0.49574c0,-1.38071 1.11929,-2.5 2.5,-2.5c1.1246,0 2.07576,0.74256 2.38994,1.76412l0.41447,1.24342c0.06454,-0.00499 0.12977,-0.00754 0.19559,-0.00754c0.20502,0 0.40428,0.02468 0.59496,0.07123l2.82965,0.62881c1.15613,0.10341 2.31226,0.20682 3.46839,0.31023c0,0 1.36838,0.1244 1.984,1.20321c3.20728,-0.19694 6.95263,-0.4635 9.45181,0.65994z" fill="#b6b7ba" fill-rule="nonzero" stroke="none" stroke-width="0.5" stroke-linecap="butt" stroke-linejoin="miter"></path><path d="M195.99242,288.75l4.16667,-16.66667l-5.58788,-6.31538" fill="#b6b7ba" fill-rule="nonzero" stroke="#8d8f95" stroke-width="3" stroke-linecap="round" stroke-linejoin="miter"></path><path d="M171.11256,294.4375c11.56191,-6.48546 13.66667,-21.66667 13.66667,-21.66667c0,0 -5.23891,7.51507 -14,9c-8.76109,1.48493 -21.53234,-7.72548 -28,-5.33333c-6.46766,2.39215 -6.46948,9.62271 -4,13.66667c0.84241,1.37951 -2.6162,3.99483 1.33333,6" fill="#b6b7ba" fill-rule="nonzero" stroke="#8d8f95" stroke-width="3" stroke-linecap="round" stroke-linejoin="miter"></path><g fill-rule="nonzero" stroke-linejoin="miter"><g stroke-width="3" stroke-linecap="round"><path d="M149.26348,121.13099c0,0 -12.22314,23.50712 -26.61547,27.53152c-13.04656,3.6481 -23.16615,-4.89816 -25.08229,-16.61074c-2.48071,-15.16361 9.16619,-23.69883 15.29585,-16.27693c6.13701,7.43079 4.40633,18.92219 11.03334,19.89728c6.62704,0.9751 25.36855,-14.54112 25.36855,-14.54112z" fill="#6b542b" stroke="none"></path><path d="M113.72499,134.26566c-3.24377,2.09398 -8.8356,9.517 -2.07,12.64402c7.27952,3.36456 18.45252,-0.33297 10.99304,1.75284c-13.04656,3.6481 -23.16614,-4.89816 -25.08228,-16.61074c-2.48071,-15.16361 9.16619,-23.69883 15.29585,-16.27693c6.13701,7.43079 2.84059,17.41255 9.46763,18.38765c3.11985,0.45905 1.43658,2.41626 -0.03185,1.33022c-1.65074,-1.22086 -4.23756,-4.02536 -8.57237,-1.22706z" fill="#dac3a1" stroke="none"></path><path d="M149.26348,121.13099c0,0 -12.22312,23.50712 -26.61547,27.53152c-13.04656,3.6481 -23.16615,-4.89816 -25.08229,-16.61074c-2.48071,-15.16361 9.16619,-23.69883 15.29586,-16.27693c6.13701,7.43079 4.49017,18.55874 11.1172,19.53383c6.62704,0.9751 25.2847,-14.17768 25.2847,-14.17768z" fill="none" stroke="#001026"></path></g><g stroke="#001026"><g><path d="M200.7217,117.45057c-3.47807,3.24598 -9.2012,2.76616 -12.78298,-1.07171c-3.58177,-3.83787 -3.66583,-9.58048 -0.18777,-12.82646c3.47807,-3.24598 9.2012,-2.76615 12.78298,1.07172c3.58177,3.83787 3.66583,9.58047 0.18777,12.82645z" fill="#475362" stroke-width="3" stroke-linecap="butt"></path><path d="M186.82898,111.99717c0,0 2.00655,-7.51576 8.89876,-10.20101" fill="none" stroke-width="1.75" stroke-linecap="round"></path><path d="M188.48883,116.67806c0,0 4.86381,-6.60559 11.90033,-11.91883" fill="none" stroke-width="1.75" stroke-linecap="round"></path><path d="M203.01412,109.89376c-4.55633,6.67897 -9.95067,8.20318 -9.95067,8.20318" fill="none" stroke-width="1.75" stroke-linecap="round"></path><path d="M188.29697,105.26276c0,0 9.14004,2.15922 11.38303,12.40992" fill="none" stroke-width="1.75" stroke-linecap="round"></path><path d="M190.53108,102.47858c0,0 9.86838,1.74956 11.38304,12.40993" fill="none" stroke-width="1.75" stroke-linecap="round"></path><path d="M184.69696,108.08078c0,0 7.74636,1.14725 10.71713,11.40618" fill="none" stroke-width="1.75" stroke-linecap="round"></path></g><path d="M155.85387,95.78524c3.20457,-0.58966 4.54043,4.9737 6.74021,9.02257c2.19978,4.04887 3.75979,9.97743 3.75979,9.97743c0,0 5.69141,-1.52534 8.16666,-4.16667c2.7536,-2.93836 6.037,-0.36476 9,-1c5.46979,-1.17267 3.83334,5.83334 3.83334,5.83334c0,0 -0.71845,2.31876 -1.11633,2.78898c-0.67299,0.79536 -2.55034,1.54435 -2.55034,1.54435c0,0 2.66502,-0.9827 3.53672,-1.60132c0.37217,-0.26413 1.62995,-2.06535 1.62995,-2.06535c0,0 2.98102,-1.10076 4.16666,1.5c1.18565,2.60076 3.11816,4.90736 0.83334,7c-0.99096,0.90761 -4.53259,3.34329 -6.72252,5.4652c-2.85931,2.7705 -4.82381,5.12355 -10.11082,4.0348c-4.96205,-1.02183 -8.02562,-3.36528 -8.02562,-3.36528c0,0 -9.73511,-5.974 -10.30771,-9.13471c-1.29723,-7.16062 -0.98784,-7.97367 -4.16667,-18.33333" fill="#422b16" stroke-width="3" stroke-linecap="round"></path></g><path d="M158.23742,108.40504c16.73212,5.5862 13.5145,26.41587 13.5145,26.41587c0,0 6.45417,-0.87055 12.23323,1.27032c7.65527,2.83592 3.78407,11.50027 -8.69743,11.3565c-10.9168,-0.12576 -20.46161,0.90186 -18.2238,-13.80607c2.0375,-13.3915 -6.14715,-12.9449 -6.14715,-12.9449" fill="#422b16" stroke="#001026" stroke-width="3" stroke-linecap="round"></path><g><g><path d="M158.54289,106.59687c0,0 2.26052,2.51304 3.02307,7.80961c-0.0175,7.90369 -13.8895,12.8248 -20.74163,3.35897c-6.85213,-9.46584 -1.07911,-21.32675 4.45063,-24.85637c5.52974,-3.52962 13.58378,0.67475 13.93972,4.61858c0.37861,4.19506 -0.6718,9.06921 -0.6718,9.06921z" fill="#6b542b" stroke="none" stroke-width="0" stroke-linecap="round"></path><path d="M157.68925,106.98223c-0.04918,0.6517 -0.08078,0.80331 -0.08078,0.80331c0,0 0.68532,1.31123 1.52454,2.26018c3.45406,3.90566 -4.0323,10.03648 -9.50527,7.85315c-4.13535,-1.64971 -6.59207,-6.57036 -5.8782,-11.42049c1.01487,-6.89514 14.94741,-12.84968 13.93972,0.50385z" fill="#dac3a1" stroke="none" stroke-width="0" stroke-linecap="butt"></path><path d="M158.03905,107.60457c0,0 2.92122,1.61965 3.02307,6.96986c0.15045,7.90369 -12.9795,12.64772 -20.06984,3.35897c-5.84732,-7.66032 -1.73936,-22.67419 4.12627,-24.52432c6.25635,-1.97338 13.4043,2.19013 13.76023,6.13396c0.37861,4.19506 -0.83974,8.06152 -0.83974,8.06152z" fill="none" stroke="#001026" stroke-width="3" stroke-linecap="round"></path></g><path d="M153.5754,85.95201c0,0.98275 1.87143,3.80739 2.51301,4.3464c0.03818,0.03208 0.07599,0.06473 0.11342,0.09794c0.30863,0.39995 0.62898,0.75564 0.94387,1.03753c0.83959,1.11167 1.46437,2.46716 2.04054,3.61949c0.12448,0.24896 0.22733,0.84263 0.34508,1.02418c1.6887,2.60375 -0.87582,-0.17926 -2.16085,-1.14175l0.08204,-0.16409l-0.33212,-0.16606c-0.02918,-0.01536 -0.06241,-0.02405 -0.09767,-0.02405c-0.11594,0 -0.20993,0.09399 -0.20993,0.20994c0,0.03523 0.00869,0.06845 0.02403,0.09761l0.17273,0.34571c0.21362,0.43496 0.38908,1.23117 0.6662,1.90361c-0.18632,-0.16867 -0.37359,-0.33573 -0.56872,-0.49386l0.02514,-0.02514l-0.2969,-0.2969c-0.03798,-0.038 -0.09047,-0.06149 -0.14844,-0.06149c-0.11595,0 -0.20994,0.09399 -0.20994,0.20994v0v0.3359h0.00013l-0.00013,0.00053c0.00148,0.27135 -0.00033,0.96184 0.04603,1.61205c-0.48043,-1.15238 -0.93193,-2.35616 -1.69036,-3.37262l0.02665,-0.01333l-0.16591,-0.33182c-0.03366,-0.07101 -0.10599,-0.12012 -0.1898,-0.12012c-0.11595,0 -0.20994,0.09399 -0.20994,0.20994v0v0.3359h0.01841l-0.01279,0.04823c0.22844,0.45688 0.13842,0.92677 0.16226,1.41031c-0.01432,-0.03114 -0.02794,-0.06205 -0.04093,-0.09271c-0.12405,-0.53086 -0.26263,-0.98279 -0.395,-1.27872l-0.00596,-0.00149l0.00421,-0.0021l-0.00464,-0.00929l0.00034,-0.00017l-0.16591,-0.33183c-0.03366,-0.07101 -0.106,-0.12012 -0.18981,-0.12012c-0.11594,0 -0.20993,0.09399 -0.20993,0.20994c0,0.03518 0.00866,0.06835 0.02396,0.09748l0.16897,0.3388c0.01927,0.04218 0.03746,0.08505 0.05464,0.12858c0.01721,0.25313 0.10706,0.55559 0.20923,0.82709c0.12664,0.86971 0.05019,1.8666 0.09197,2.77777c-0.81259,-1.84119 -2.01861,-3.86694 -3.44294,-4.99286l0.02729,-0.02925l-0.30658,-0.2861c-0.03755,-0.03523 -0.08806,-0.05681 -0.14362,-0.05681c-0.11564,0 -0.20943,0.09349 -0.20993,0.20901l-0.0021,0.41849c-0.03723,1.78892 -0.19226,1.17015 -0.92345,0.31794l0.03164,-0.02109l-0.23109,-0.34665c-0.03739,-0.05788 -0.10246,-0.09619 -0.17649,-0.09619c-0.11595,0 -0.20994,0.09399 -0.20994,0.20994c0,0 0,0.21165 0,0.29894c-0.20471,0.42188 -0.49153,2.18667 -0.85518,2.34569c-0.09476,0.04144 -0.41474,-1.15898 -0.44561,-1.24732c-0.14199,-0.4064 -0.36725,-0.79506 -0.63644,-1.14072l0.03553,-0.02368l-0.2311,-0.34665c-0.03738,-0.05788 -0.10245,-0.09619 -0.17648,-0.09619c-0.02389,0 -0.04685,0.00399 -0.06824,0.01134c0.17521,-0.75043 0.36772,-1.59003 0.24683,-1.75921c-0.28517,-0.39906 -1.02057,0.12883 -1.28009,0.25846c-0.69977,0.34952 -1.55974,0.50062 -2.27547,0.82895c0.41543,-0.55204 0.86672,-1.18763 0.89682,-1.60258c0.00628,-0.01104 0.01263,-0.02203 0.01907,-0.03301c0.05405,0.02874 0.10981,0.02874 0.10981,0.02874h0.3359c0.64813,0 -0.64582,-0.29998 -0.02794,-0.34206c2.05242,-0.92717 1.29025,-5.03171 2.29361,-5.71059c1.42235,-0.33915 5.53608,-2.95603 5.46903,-2.47373z" fill="#001026" stroke="none" stroke-width="0.5" stroke-linecap="butt"></path></g><path d="M152.35305,122.20017c3.17105,13.65859 -9.22743,22.77537 -9.22743,22.77537c0,0 2.03314,2.18077 7.62758,9.40512c7.98715,10.31418 -4.84591,16.474 -14.83121,13.50605c-5.27536,-1.568 -7.35599,-6.66979 -8.39089,-8.64031c-2.58521,-4.92247 -2.63292,-10.75447 -2.21138,-14.00992c2.01534,-15.56365 12.93363,-6.6616 13.00725,-32.98746" fill="#6b542b" stroke="#001026" stroke-width="3" stroke-linecap="round"></path><path d="M140.20048,102.63999c0,0 -7.38115,2.58016 -8.93216,7.81907c-1.55101,5.23891 3.93779,13.46898 3.93779,13.46898c0,0 6.32518,2.82982 6.41934,5.80136c0.09416,2.97155 0.37983,7.70011 -2.19073,8.90299c-2.57056,1.20287 -7.74915,-0.27011 -7.83671,-2.17339c-0.07714,-1.67681 1.03397,-4.22627 1.03397,-4.22627l-1.06557,-0.4743l-4.11817,2.30015l-1.08122,6.70492c0,0 2.98006,0.65173 4.58432,3.47979c1.5634,2.75604 1.75078,6.79087 -2.84141,6.8685c-6.13506,0.10371 -10.4803,-0.19146 -11.36306,-3.06283c-1.49089,-4.84941 0.63967,-12.98425 0.63967,-12.98425l-4.14277,2.79955c0,0 0.65827,0.8476 0.72816,5.54254c0.08574,5.76045 -8.3717,8.29432 -9.68532,3.5277c-1.50345,-5.45543 -3.08505,-12.50154 0.71348,-14.48243c2.40265,-1.25295 8.82184,-6.32358 8.82184,-6.32358c0,0 1.09198,-9.90768 5.70561,-16.32217c4.61363,-6.4145 16.2038,-14.45995 20.60444,-15.01724c3.79744,-0.4809 4.94016,0.80965 4.94016,0.80965" fill="#6b542b" stroke="#001026" stroke-width="3" stroke-linecap="round"></path><g><g fill="none" stroke="#001026" stroke-width="2.25" stroke-linecap="round"><path d="M221.25188,72.72145l-12.39433,2.67696"></path><path d="M221.438,62.31517l-10.15538,9.40742"></path></g><path d="M170.19468,28.89245l21.05726,-13.93138c0,0 17.21766,22.73257 19.89181,46.00367" fill="#422b16" stroke="#001026" stroke-width="3" stroke-linecap="round"></path><g stroke-width="3" stroke-linecap="butt"><path d="M134.49416,64.74025c0,-19.08399 15.7094,-36.17016 36.73387,-36.88818c20.8141,-0.71084 35.75429,8.11095 40.65214,34.19562c0.07844,0.41773 5.13186,-0.78741 4.97309,5.85275c-0.11719,4.90118 -3.92691,8.92081 -6.62903,12.41715c-7.19249,9.30654 -19.72202,13.89133 -33.11879,13.89133c-20.82855,0 -42.61128,-10.38467 -42.61128,-29.46866z" fill="#6b542b" stroke="none"></path><path d="M186.57462,70.63399c0,0 12.89766,-7.74528 23.34641,-8.28712c0.07844,0.41773 8.95766,-1.02177 8.7989,5.61839c-0.15544,3.58404 -7.54143,9.53001 -10.07233,12.67948c-7.50108,9.33438 -16.09525,25.73085 -29.87549,25.73085c-8.53029,0 -16.7009,-8.5199 -23.58319,-14.78947c-9.92231,-9.03895 -16.26799,-17.53491 -9.59296,-23.85413c0.43438,-0.41123 0.50059,0.55966 0.25287,-0.41483c-0.99732,-3.9233 3.80535,-7.67723 7.61545,-2.2841c0.38241,0.54129 1.34279,-0.08536 2.04246,-0.09872c12.66719,-0.2419 31.06788,5.69962 31.06788,5.69962z" fill="#dac3a1" stroke="none"></path><path d="M134.49416,64.74025c0,-19.08399 15.7094,-36.17016 36.73387,-36.88818c20.8141,-0.71084 35.75429,8.11095 40.65214,34.19562c0.07844,0.41773 6.15689,-2.74617 6.27679,5.3546c0.07619,5.1482 -11.16273,16.09084 -16.88406,22.89128c-7.5794,9.00899 -13.2681,16.04286 -23.66746,15.91535c-9.49482,0.35551 -18.70776,-10.30617 -26.82653,-17.29319c-9.67872,-8.32951 -16.28475,-13.79712 -16.28475,-24.17547z" fill="none" stroke="#001026"></path></g><path d="M192.23305,64.08239c1.45159,3.7591 -3.90426,6.2 -6.5,6.2c-0.77907,0 -6.36608,-0.84215 -7.36604,-2.09262c-2.33178,-2.91591 -0.13396,-7.65206 -0.13396,-9.50738c0,-2.65096 1.8038,3.22873 5.7,0.4c2.22927,-1.6185 4.06059,-5.97857 8.3,5z" fill="#4c3015" stroke="none" stroke-width="0" stroke-linecap="butt"></path><path d="M134.74004,67.44248c-4.50714,-24.91527 20.64749,-54.44973 20.64749,-54.44973l22.5301,14.95871" fill="#6b542b" stroke="#001026" stroke-width="3" stroke-linecap="round"></path><path d="M181.8924,70.68388c-0.46804,-2.06192 9.29799,-2.15069 9.22555,-0.2395c-0.01543,0.40709 -1.81252,3.79627 -3.66085,3.87235c-1.85507,0.07636 -5.19428,-2.00099 -5.5647,-3.63285z" fill="#001026" stroke="none" stroke-width="3" stroke-linecap="round"></path><g fill="none" stroke="#001026" stroke-width="2.25" stroke-linecap="round"><path d="M128.07079,60.35091l17.44277,8.31698"></path><path d="M128.93918,71.74982l15.34467,0.97686"></path></g><path d="M200.33777,86.29698c-6.83173,6.31635 -11.22136,15.94818 -21.43813,15.55912c-9.8808,-0.37626 -12.57919,-4.90685 -20.98487,-15.8815c-8.42651,-11.00183 -9.14375,-20.20493 -9.14375,-20.20493c10.72846,20.40557 55.69645,21.49714 64.34045,1.87324c0,0 -1.30229,8.04806 -12.7737,18.65407z" fill="#001026" stroke="none" stroke-width="0" stroke-linecap="round"></path><path d="M145.7004,65.80497c0,-2.11709 2.28786,-3.85086 4.2179,-3.51191c2.00719,0.35251 3.62914,2.80522 3.62914,2.80522c0,0 -1.65363,-1.80865 -2.86286,-2.39372c-1.02817,-0.49747 -2.16177,-0.195 -3.16893,0.50102c-2.78316,1.9234 -1.13775,5.95462 -1.13775,5.95462c0,0 -0.6775,-2.29941 -0.6775,-3.35523z" fill="#001026" stroke="none" stroke-width="0" stroke-linecap="butt"></path><path d="M181.25483,63.11605c0,8.24351 -6.74543,8.00479 -12.46739,8.00479c-5.72196,0 -13.74203,-0.61249 -13.74203,-8.856c0,-8.24351 6.26368,-15.446 11.98564,-15.446c10.28762,0 14.22378,8.0537 14.22378,16.29721z" fill="#001026" stroke="#001026" stroke-width="2.25" stroke-linecap="butt"></path><path d="M202.39704,69.47025c-4.4937,0.72425 -11.36992,1.2338 -12.11829,-7.05492c-0.74836,-8.28874 3.4286,-14.16122 7.9223,-14.88547c8.07931,-1.30216 11.00645,3.66339 12.68073,11.81568c0.91503,4.4554 -3.99104,9.40045 -8.48473,10.12471z" fill="#001026" stroke="#001026" stroke-width="2.25" stroke-linecap="butt"></path><path d="M156.09445,85.17645c3.04442,3.66293 6.18135,8.53666 5.67795,7.92841c-3.13556,-3.78867 -9.48435,-12.40121 -9.58662,-12.5301c0.02588,-0.0866 2.15938,2.49703 3.90867,4.6017z" fill="#001026" stroke="none" stroke-width="0" stroke-linecap="butt"></path><path d="M186.20469,74.80171c0.05612,-0.23506 0.55078,0.22774 1.33932,0.06029c1.01331,-0.21517 2.40053,-1.11853 2.40053,-1.11853c0,0 -0.85077,0.78328 -2.16153,1.30858c-1.31077,0.52529 -1.04801,-0.00106 -1.16679,0.3817c-0.11327,0.36499 -0.41515,1.14056 -0.39404,1.73293c0.04793,1.34485 0.60672,2.66866 0.60672,2.66866c0,0 -0.72913,-1.63316 -0.72913,-2.44128c0,-1.34751 -0.14993,-1.52492 0.10492,-2.59237z" fill="#001026" stroke="none" stroke-width="0" stroke-linecap="butt"></path><path d="M205.90389,81.70506c-0.11205,0.12049 -7.11609,8.20915 -10.53884,11.74051c-0.54951,0.56694 2.95962,-4.04604 6.28166,-7.45919c1.9088,-1.96115 4.23816,-4.36968 4.25718,-4.28132z" fill="#001026" stroke="none" stroke-width="0" stroke-linecap="butt"></path><path d="M148.17266,64.09073c1.19351,-1.04742 3.65529,2.05193 3.65529,2.05193c0,0 -2.18169,-2.79739 -3.25446,-1.85592c-1.07278,0.94146 -0.88925,3.84345 -0.88925,3.84345c0,0 -0.70508,-2.99204 0.48842,-4.03946z" fill="#001026" stroke="none" stroke-width="0" stroke-linecap="butt"></path><path d="M174.88223,55.81835c0,0 0.44841,3.57659 0.44841,7.37396c0,3.79737 -0.44841,6.37749 -0.44841,6.37749c0,0 -0.69683,-2.67483 -0.69683,-6.4722c0,-3.79737 0.69683,-7.27925 0.69683,-7.27925z" fill="#006aff" stroke="none" stroke-width="0" stroke-linecap="butt"></path><path d="M203.73065,62.09761c0,3.79737 -0.69683,6.4722 -0.69683,6.4722c0,0 -0.44841,-2.58012 -0.44841,-6.37749c0,-3.79737 0.44841,-7.37396 0.44841,-7.37396c0,0 0.69683,3.48188 0.69683,7.27925z" fill="#006aff" stroke="none" stroke-width="0" stroke-linecap="butt"></path><g fill="#0062ea" stroke="none" stroke-width="0" stroke-linecap="butt"><path d="M170.94354,91.56502c-0.34355,0.12508 -0.73256,-0.39217 -0.86892,-1.1553c-0.13634,-0.76314 0.58987,-2.05433 0.58987,-2.05433c0,0 0.48987,1.09373 0.62622,1.85687c0.15691,0.87828 -0.00363,1.2277 -0.34718,1.35277z"></path><path d="M172.36471,92.67541c-0.44519,0.23804 -0.96587,-0.1656 -1.16292,-0.90154c-0.19704,-0.73594 0.71842,-2.28824 0.71842,-2.28824c0,0 0.66669,0.96026 0.86374,1.6962c0.22677,0.84699 0.02597,1.25553 -0.41923,1.49358z"></path><path d="M173.88333,93.13362c-0.49657,0.15857 -0.99592,-0.33622 -1.11537,-1.10511c-0.11946,-0.76889 0.61631,-2.16196 0.61631,-2.16196c0,0 0.77698,1.01129 1.11803,1.8517c0.32654,0.80462 -0.12241,1.25681 -0.61895,1.41538z"></path><path d="M175.94166,94.16491c-0.52566,0.34484 -1.14233,0.04604 -1.37733,-0.66742c-0.235,-0.71346 0.48083,-3.95666 0.48083,-3.95666c0,0 0.61799,2.08549 1.38795,2.99253c0.51552,0.6073 0.03423,1.2867 -0.49144,1.63155z"></path><path d="M178.02377,94.63759c-0.44626,0.33909 -0.99535,-0.08137 -1.2264,-0.93911c-0.23104,-0.85774 0.64426,-2.82816 0.64426,-2.82816c0,0 0.32641,1.26199 0.95177,1.92729c0.58342,0.62068 0.07663,1.50088 -0.36964,1.83997z"></path><path d="M179.05377,92.90843c0.44217,-0.79404 0.99326,-2.05506 0.99326,-2.05506c0,0 1.00735,1.82508 0.776,2.71092c-0.23133,0.88584 -0.82167,1.38517 -1.31855,1.11523c-0.49689,-0.26995 -0.93434,-0.90261 -0.45072,-1.77108z"></path><path d="M186.23774,90.87351c0.11698,-0.77438 0.57872,-1.91039 0.57872,-1.91039c0,0 0.75796,1.22527 0.64099,1.99966c-0.11698,0.77438 -0.49253,1.32559 -0.83884,1.23117c-0.34631,-0.09443 -0.51548,-0.4292 -0.38087,-1.32042z"></path><path d="M184.5871,91.23705c0.21681,-0.73348 0.90927,-1.68568 0.90927,-1.68568c0,0 0.87351,1.56293 0.65669,2.2964c-0.21681,0.73348 -0.74826,1.13088 -1.18699,0.88757c-0.43873,-0.24329 -0.62851,-0.65416 -0.37895,-1.4983z"></path><path d="M182.89767,92.06978c0.19884,-0.74296 0.89289,-1.71444 0.89289,-1.71444c0,0 0.99308,1.56054 0.79424,2.3035c-0.19883,0.74296 -0.74568,1.15249 -1.22145,0.9147c-0.47576,-0.23779 -0.69451,-0.6487 -0.46568,-1.50377z"></path><path d="M180.93805,93.00795c0.70945,-1.02615 1.19413,-3.20043 1.19413,-3.20043c0,0 0.91472,3.11194 0.72542,3.85955c-0.18928,0.7476 -0.78419,1.14395 -1.32873,0.88528c-0.54455,-0.25867 -1.06583,-0.85735 -0.59085,-1.54441z"></path></g><g fill="#006aff" stroke="none" stroke-width="0" stroke-linecap="butt"><path d="M167.44805,85.2035c-0.02084,0.87998 -0.42029,2.25222 -0.42029,2.25222c0,0 -1.16588,-1.12805 -1.14502,-2.00804c0.02084,-0.87998 0.40727,-1.58831 0.86312,-1.58206c0.45582,0.00625 0.72621,0.3251 0.70222,1.33785z"></path><path d="M168.9852,86.19857c-0.02083,0.87998 -0.44626,2.25188 -0.44626,2.25188c0,0 -1.2502,-1.12919 -1.22933,-2.00917c0.02083,-0.87998 0.43341,-1.58795 0.92148,-1.58126c0.48809,0.00669 0.7781,0.3258 0.75411,1.33856z"></path><path d="M171.22375,86.87858c-0.02083,0.87998 -0.58037,2.25005 -0.58037,2.25005c0,0 -1.68606,-1.13517 -1.66521,-2.01515c0.02083,-0.87998 0.56849,-1.5861 1.22323,-1.57711c0.65474,0.00899 1.04632,0.32946 1.02233,1.34222z"></path><path d="M173.68718,87.39934c-0.02083,0.87998 -0.61719,2.24952 -0.61719,2.24952c0,0 -1.80581,-1.1368 -1.78495,-2.01679c0.02084,-0.87998 0.60563,-1.58558 1.30614,-1.576c0.70052,0.00959 1.12001,0.33048 1.096,1.34324z"></path><path d="M176.28551,87.88098c-0.61553,1.426 -0.57869,3.95347 -0.57869,3.95347c0,0 -2.17046,-2.83732 -2.15332,-3.71735c0.01713,-0.88004 0.67737,-1.58647 1.47467,-1.57786c0.7973,0.00861 1.66952,0.38697 1.25739,1.34173z"></path><path d="M178.18106,88.65515c-0.55984,1.15729 -0.58022,2.69947 -0.58022,2.69947c0,0 -1.6458,-1.35593 -1.6208,-2.41107c0.025,-1.05511 0.56515,-1.90335 1.20652,-1.89457c0.64136,0.00879 1.5168,0.52651 0.9945,1.6062z"></path><path d="M181.83879,87.01453c0.66158,-0.04808 1.22936,0.76676 1.26814,1.82c0.03878,1.05324 -1.64251,2.50963 -1.64251,2.50963c0,0 -0.31846,-1.60599 -0.63191,-2.66299c-0.34284,-1.15612 0.3447,-1.61853 1.00629,-1.66661z"></path><path d="M192.51695,84.03592c0.45583,0.00625 0.80847,0.72468 0.78761,1.60465c-0.02083,0.87998 -1.23937,1.97538 -1.23937,1.97538c0,0 -0.33421,-1.38229 -0.31336,-2.26229c0.02399,-1.01276 0.30928,-1.32399 0.76512,-1.31775z"></path><path d="M190.98556,84.98899c0.48809,0.00669 0.86689,0.72548 0.846,1.60547c-0.02083,0.87998 -1.32371,1.97422 -1.32371,1.97422c0,0 -0.36016,-1.38266 -0.33933,-2.26264c0.02399,-1.01276 0.32893,-1.32372 0.817,-1.31704z"></path><path d="M188.98448,85.61093c0.65477,0.00899 1.16861,0.7296 1.14776,1.6096c-0.02083,0.87998 -1.75956,1.96825 -1.75956,1.96825c0,0 -0.49429,-1.38448 -0.47343,-2.26447c0.02399,-1.01276 0.43049,-1.32235 1.08526,-1.31336z"></path><path d="M186.7341,86.06714c0.70052,0.00959 1.25148,0.73074 1.23064,1.61073c-0.02084,0.87998 -1.8793,1.9666 -1.8793,1.9666c0,0 -0.53112,-1.385 -0.51025,-2.26498c0.02399,-1.01276 0.45842,-1.32195 1.15894,-1.31235z"></path><path d="M184.1946,86.48213c0.79718,0.01322 1.42352,0.73726 1.39898,1.61719c-0.02454,0.87992 -2.32798,3.656 -2.32798,3.656c0,0 0.15647,-2.52482 -0.3911,-3.96674c-0.36664,-0.96542 0.52293,-1.31967 1.32011,-1.30645z"></path><path d="M180.83709,88.74564c-0.02437,1.02848 -1.32181,2.64832 -1.32181,2.64832c0,0 -1.21817,-1.72734 -1.19378,-2.75582c0.02437,-1.02848 0.5938,-1.27028 1.28892,-1.26077c0.69513,0.00951 1.25102,0.33979 1.22665,1.36827z"></path></g><path d="M200.33777,86.29698c-6.83173,6.31635 -11.22136,15.94818 -21.43813,15.55912c-9.8808,-0.37626 -12.57919,-4.90685 -20.98487,-15.8815c-8.42651,-11.00183 -9.14375,-20.20493 -9.14375,-20.20493c10.72846,20.40557 55.69645,21.49714 64.34045,1.87324c0,0 -1.30229,8.04806 -12.7737,18.65407z" fill="url(#color-1)" stroke="none" stroke-width="0" stroke-linecap="round"></path><path d="M182.15275,64.07396c0,5.38415 -5.95469,9.74886 -12.375,9.74886c-2.72233,0 -4.4761,0.15491 -6.45721,-1.15955c0.97086,0.29527 5.73478,0.68972 6.58221,0.68972c5.52284,0 10,-4.20695 10,-9.39649c0,-3.18994 2.25,-3.73346 2.25,0.11746z" fill="#001026" stroke="none" stroke-width="0" stroke-linecap="butt"></path><path d="M190.78821,61.68098c0,5.43952 3.71639,9.84912 8.30079,9.84912c0.70344,0 4.65787,-0.41345 5.46375,-0.72294c-1.64447,1.37777 -3.10024,1.2154 -5.35999,1.2154c-5.32936,0 -10.27222,-4.57496 -10.27222,-10.21847c0,-4.03642 1.86767,-3.46671 1.86767,-0.12311z" fill="#001026" stroke="none" stroke-width="0" stroke-linecap="butt"></path><path d="M177.75832,103.91069c-6.92506,-0.09086 -12.79962,-7.34798 -12.79962,-7.34798c0,0 4.66198,6.23441 12.20439,6.78091c8.11092,0.5877 14.4568,-5.96745 14.4568,-5.96745c0,0 -5.39322,6.64563 -13.86157,6.53452z" fill="#001026" stroke="none" stroke-width="0" stroke-linecap="butt"></path><path d="M214.68779,69.46353c0,0 0.18353,-2.50198 -0.88924,-3.44345c-1.07278,-0.94146 -3.25446,1.45592 -3.25446,1.45592c0,0 2.46178,-3.09935 3.65529,-2.05193c1.19351,1.04742 0.48842,4.03946 0.48842,4.03946z" fill="#001026" stroke="none" stroke-width="0" stroke-linecap="butt"></path><path d="M183.6969,59.35818c0,0 1.47446,-1.48867 1.36651,-2.64579c-0.10795,-1.15712 -1.76883,-1.66673 -1.76883,-1.66673c0,0 0.32327,-0.97396 -0.21034,-2.96563c-0.70813,-2.64309 -3.16451,-6.40567 -5.56922,-8.00338c-11.01294,-7.3171 -21.73678,2.97232 -21.73678,2.97232c0,0 4.19317,-5.45764 13.59541,-6.12431c8.31803,-0.58979 14.97394,5.193 14.97394,13.14084c0,0.36856 1.3447,0.62058 2.31736,1.95777c1.29707,1.78319 -2.96804,3.33492 -2.96804,3.33492z" fill="#001026" stroke="none" stroke-width="0" stroke-linecap="butt"></path></g></g><g fill-rule="nonzero" stroke-linejoin="miter"><g stroke="#001026"><path d="M54.09441,91.79908c0.91079,4.01243 1.25261,9.43043 0.1528,11.89788c-3.50239,7.85766 -20.41875,7.76702 -22.6236,3.83551c-3.61931,-6.45365 -4.55583,-11.25176 -4.56906,-11.58984c-0.24207,-6.18762 6.25093,-4.45889 14.13411,-5.61183c8.3139,-1.21594 11.43698,-5.0023 12.90575,1.46828z" fill="#2fe64b" stroke-width="3" stroke-linecap="butt"></path><path d="M34.38291,81.35378c0,0 -2.61963,-0.91007 -2.08292,-3.68716c0.51619,-2.67091 8.21499,-4.61587 10.3902,-1.66745c1.43285,1.94216 -1.61144,4.22748 -1.61144,4.22748l-1.84718,0.27016c0,0 1.32086,-2.44278 0.51077,-2.95767c-0.81009,-0.51489 -3.72313,-0.24416 -4.45002,0.65083c-0.72689,0.895 2.11324,2.72174 2.11324,2.72174z" fill="#18932a" stroke-width="2" stroke-linecap="round"></path><path d="M54.11361,90.54895c0.50807,4.80016 -3.39,7.06163 -10.98453,7.82731c-1.59907,0.16122 -4.6002,0.17345 -6.58724,0.28572c-1.98314,0.11205 -4.95115,0.0068 -6.52519,-0.30456c-3.12806,-0.61876 -3.35757,-1.9222 -3.8598,-3.71968c-2.25929,-8.08599 4.38868,-13.69896 12.10872,-14.82804c7.72005,-1.12909 14.82371,1.0615 15.84804,10.73926z" fill="#18932a" stroke-width="3" stroke-linecap="butt"></path></g><g><g fill="none" stroke="#001026" stroke-width="2.25" stroke-linecap="round"><path d="M81.63752,54.02546l13.31278,-4.02809"></path><path d="M82.1424,63.50909l12.87578,3.31092"></path></g><path d="M42.84469,15.30911l21.05726,-13.93138c0,0 17.21766,22.73257 19.89181,46.00367" fill="#ca6d12" stroke="#001026" stroke-width="3" stroke-linecap="round"></path><g stroke-width="3" stroke-linecap="butt"><path d="M7.14416,51.1569c0,-19.08399 15.7094,-36.17016 36.73387,-36.88818c20.8141,-0.71084 35.75429,8.11095 40.65214,34.19562c0.07844,0.41773 4.38186,3.71259 4.22309,10.35275c-0.42913,17.94712 -20.56806,21.80848 -38.99782,21.80848c-20.82855,0 -42.61128,-10.38467 -42.61128,-29.46866z" fill="#ffab19" stroke="none"></path><path d="M59.22462,57.05061c0,0 12.89766,-7.74528 23.34641,-8.28712c0.07844,0.41773 9.70766,2.47823 9.5489,9.11839c-0.61615,14.20638 -23.93472,22.74367 -42.36448,22.74367c-20.82855,0 -42.81442,-15.77459 -31.50949,-26.47693c8.13638,-7.70269 40.97867,2.90197 40.97867,2.90197z" fill="#fff9f0" stroke="none"></path><path d="M7.14416,51.1569c0,-19.08399 15.7094,-36.17016 36.73387,-36.88818c20.8141,-0.71084 35.75429,8.11095 40.65214,34.19562c0.07844,0.41773 7.65689,1.50383 7.77679,9.6046c0.17993,12.15709 -17.57547,21.62144 -42.55152,22.55663c-20.81397,0.77934 -42.61128,-10.38467 -42.61128,-29.46866z" fill="none" stroke="#001026"></path></g><path d="M7.39004,53.85914c-4.50714,-24.91527 20.64749,-54.44973 20.64749,-54.44973l22.5301,14.95871" fill="#ffab19" stroke="#001026" stroke-width="3" stroke-linecap="round"></path><path d="M53.23129,56.72276c-0.46804,-2.06192 9.89799,-1.75069 9.82555,0.1605c-0.01543,0.40709 -2.41252,3.39627 -4.26085,3.47235c-1.85507,0.07636 -5.19428,-2.00099 -5.5647,-3.63285z" fill="#001026" stroke="none" stroke-width="3" stroke-linecap="round"></path><g stroke-linecap="butt"><path d="M52.40483,49.69938c0,8.24351 -6.91209,11.00479 -12.63405,11.00479c-5.72196,0 -14.4087,-3.11249 -14.4087,-11.356c0,-8.24351 7.09701,-15.346 12.81897,-15.346c10.28762,0 14.22378,7.4537 14.22378,15.69721z" fill="#ffffff" stroke="#001026" stroke-width="2.25"></path><path d="M51.70243,49.5327c0,5.33897 -4.55995,9.66706 -10.18494,9.66706c-5.62498,0 -10.18494,-4.32809 -10.18494,-9.66706c0,-5.33897 4.55995,-9.66706 10.18494,-9.66706c5.62498,0 10.18494,4.32809 10.18494,9.66706z" fill="#001026" stroke="none" stroke-width="3"></path></g><g stroke-linecap="butt"><path d="M83.53178,47.2622c0.74836,8.28874 -3.99104,11.73379 -8.48473,12.45805c-4.4937,0.72425 -12.03659,-1.09953 -12.78496,-9.38825c-0.74836,-8.28874 4.09526,-15.76122 8.58896,-16.48547c8.07931,-1.30216 11.93237,5.12695 12.68073,13.41568z" fill="#ffffff" stroke="#001026" stroke-width="2.25"></path><path d="M82.96503,47.18349c0.48468,5.36825 -2.70352,10.29725 -7.12105,11.00923c-4.41754,0.71198 -8.39158,-3.06267 -8.87626,-8.43092c-0.48468,-5.36825 2.70352,-10.29726 7.12105,-11.00924c4.41754,-0.71198 8.39158,3.06268 8.87626,8.43093z" fill="#001026" stroke="none" stroke-width="3"></path></g><g fill="none" stroke="#001026" stroke-width="2.25" stroke-linecap="round"><path d="M0.13746,49.93424l18.0261,5.15031"></path><path d="M19.26719,62.81001l-15.34467,5.10647"></path></g><path d="M66.51147,66.45297c-13.22734,8.65626 -36.99533,3.67103 -40.00712,-5.04999" fill="none" stroke="#001026" stroke-width="2.25" stroke-linecap="round"></path><path d="M25.93588,31.8936c0,0 12.81412,-16.78917 24.68883,-0.44889" fill="none" stroke="#001026" stroke-width="2.25" stroke-linecap="round"></path></g><g stroke="#001026"><path d="M52.19652,82.71118c5.31324,2.41777 6.77425,11.62085 12.62987,18.05978c0.86651,0.95282 3.14357,-0.92101 8.08589,-3.66c7.72533,-4.28129 11.79859,5.13325 8.42308,10.09214c-3.37551,4.95889 -16.58444,8.06496 -19.9589,5.24742c-3.44816,-2.87907 -9.38018,-18.41028 -9.38018,-18.41028" fill="#ca6d12" stroke-width="3" stroke-linecap="round"></path><g><g><path d="M88.53469,92.03939c-1.43283,4.53656 -6.65241,6.93247 -11.65827,5.35142c-5.00586,-1.58105 -7.90238,-6.54036 -6.46955,-11.07692c1.43283,-4.53656 6.65241,-6.93247 11.65828,-5.35142c5.00586,1.58105 7.90237,6.54036 6.46955,11.07691z" fill="#475362" stroke-width="3" stroke-linecap="butt"></path><path d="M73.75583,94.12085c0,0 -1.94777,-7.53121 2.73374,-13.25802" fill="none" stroke-width="1.75" stroke-linecap="round"></path><path d="M77.50256,97.3809c0,0 0.9878,-8.14338 4.50296,-16.2296" fill="none" stroke-width="1.75" stroke-linecap="round"></path><path d="M86.81567,84.33189c-0.68396,8.05611 -4.63197,12.03548 -4.63197,12.03548" fill="none" stroke-width="1.75" stroke-linecap="round"></path><path d="M71.72322,87.53482c0,0 9.02068,-2.61339 16.01357,5.21013" fill="none" stroke-width="1.75" stroke-linecap="round"></path><path d="M72.29986,84.01199c0,0 9.45351,-3.32821 16.01357,5.21013" fill="none" stroke-width="1.75" stroke-linecap="round"></path><path d="M69.97382,91.75867c0,0 7.30954,-2.80943 14.94022,4.66345" fill="none" stroke-width="1.75" stroke-linecap="round"></path></g><path d="M82.28291,99.90458c0,0 -6.37297,12.17458 -7.48782,14.3432c-0.70806,1.37733 -6.22723,0.42464 -6.19788,-1.64986c0.04127,-2.91711 2.53388,-16.45914 2.53388,-16.45914" fill="#293038" stroke-width="3" stroke-linecap="round"></path><path d="M72.67498,109.58836c-1.5832,-0.58554 -3.73078,-0.4157 -5.19479,-1.76039c-2.39685,-2.20151 -0.89898,-10.64623 4.14681,-13.35839c2.5846,-1.38925 14.35274,0.46341 11.66696,9.4989c-2.58383,8.69251 -9.06498,6.19463 -10.61897,5.61988z" fill="#ffab19" stroke-width="3" stroke-linecap="butt"></path></g></g><g stroke-width="3" stroke-linecap="round"><path d="M46.42189,111.28329c0,0 -5.76555,22.32277 -17.18156,28.55048c-10.34854,5.64538 -20.60076,0.3786 -24.51666,-9.17767c-5.06969,-12.37195 3.13607,-21.88732 9.78527,-16.79337c6.65718,5.10005 7.43767,15.18216 13.24747,14.71257c5.80981,-0.46959 18.66547,-17.292 18.66547,-17.292z" fill="#ffab19" stroke="none"></path><path d="M18.85819,129.37219c-2.34077,2.41003 -5.63,9.79788 0.71826,11.1258c6.83048,1.42879 15.58076,-3.892 9.66389,-0.66422c-10.34854,5.64538 -20.60075,0.3786 -24.51665,-9.17767c-5.06969,-12.37195 3.13607,-21.88732 9.78527,-16.79337c6.65718,5.10005 5.81477,14.20843 11.62458,13.73884c2.73512,-0.22107 1.69074,1.76772 0.23321,1.13413c-1.63849,-0.71225 -4.38047,-2.58415 -7.50855,0.63649z" fill="#fff9f0" stroke="none"></path><path d="M46.42189,111.28329c0,0 -5.76554,22.32277 -17.18156,28.55048c-10.34854,5.64538 -20.60076,0.3786 -24.51666,-9.17767c-5.06969,-12.37195 3.13607,-21.88732 9.78528,-16.79337c6.65718,5.10005 7.43766,14.85759 13.24747,14.388c5.80981,-0.46959 18.66547,-16.96743 18.66547,-16.96743z" fill="none" stroke="#001026"></path></g><path d="M60.23742,98.23837c4.23212,16.5862 3.5145,31.91587 3.5145,31.91587c0,0 5.95417,-0.87055 11.73323,1.27032c7.65527,2.83592 6.28407,11.50027 -6.19743,11.3565c-10.9168,-0.12576 -20.46161,0.90186 -18.2238,-13.80607c2.0375,-13.3915 0.35285,-21.4449 0.35285,-21.4449" fill="#ca6d12" stroke="#001026" stroke-width="3" stroke-linecap="round"></path><g><path d="M58.39125,109.35879c-4.02285,3.95119 -12.7049,3.60495 -15.1353,-0.91278c-3.33805,-6.2049 -1.39102,-10.60907 -1.39102,-10.60907c0,0 -3.79109,-9.76383 1.02636,-13.85378c4.81744,-4.08995 11.59559,-2.36873 15.33209,8.18803c2.21349,6.25378 4.19071,13.23641 0.16787,17.1876z" fill="#ffab19" stroke="#001026" stroke-width="3" stroke-linecap="round"></path><path d="M54.79519,106.48199c-6.15265,1.17792 -8.11959,-6.27767 -9.19379,-11.12006c-1.0742,-4.84239 2.07677,-6.62998 4.15431,-7.25354c5.04847,-1.51525 6.05001,2.65273 7.82647,7.33031c1.98934,5.2381 1.27476,10.05054 -2.78699,11.04329z" fill="#fff9f0" stroke="none" stroke-width="0" stroke-linecap="butt"></path></g><path d="M52.10305,111.5335l0.02257,27.77537c0,0 4.53314,2.18077 10.12758,9.40512c7.98715,10.31418 -4.84591,16.474 -14.83121,13.50605c-5.27536,-1.568 -7.35599,-6.66979 -8.39089,-8.64031c-2.58521,-4.92247 -2.63292,-10.75447 -2.21138,-14.00992c2.01534,-15.56365 4.50725,-38.48746 4.50725,-38.48746" fill="#ffab19" stroke="#001026" stroke-width="3" stroke-linecap="round"></path><path d="M41.4602,91.46996c0,0 -2.95876,7.67781 -2.21129,12.62291c0.74747,4.9451 2.41754,6.1348 5.86363,11.54016c4.48621,7.03682 -1.39773,16.67349 -6.55672,16.2309c-11.1218,-0.95415 -12.15454,-11.92863 -11.35349,-23.00716c0.55153,-7.62768 9.36115,-30.40754 16.66719,-24.81919" fill="#ffab19" stroke="#001026" stroke-width="3" stroke-linecap="round"></path><g stroke="#001026" stroke-width="3" stroke-linecap="butt"><path d="M47.8395,90.5299c2,9.4632 -3.91946,19.28236 -8,13c-3.06943,-4.72566 1.75,-8.7868 1.25,-10.5c-1.74071,-5.96438 5.46525,-8.57892 6.75,-2.5z" fill="#2fe64b"></path><path d="M47.8395,90.5299c2,9.4632 -6.25,4.2132 -6.75,2.5c-1.74071,-5.96438 -4.50047,-11.70187 0.25,-12.25c4.75047,-0.54813 5.21525,3.67108 6.5,9.75z" fill="#18932a"></path></g></g><g><path d="M432.06319,49.13219c1.88506,0 3.41319,6.6856 3.41319,14.93273c0,8.24712 3.59165,14.93273 -2.98654,14.93273c-6.15155,0 -3.83984,-6.6856 -3.83984,-14.93273c0,-8.24712 1.52814,-14.93273 3.41319,-14.93273z" fill="#b6b7ba" fill-rule="nonzero" stroke="#b6b7ba" stroke-width="1.2" stroke-linecap="butt" stroke-linejoin="miter"></path><g fill-rule="evenodd"><path d="M459.44616,61.40313c2.17552,-0.45324 4.80427,-1.1784 6.97978,-3.17263c4.98556,-4.44167 6.52655,-11.78404 9.97112,-9.88046c3.53521,1.90357 3.44456,13.77826 -7.6143,17.40412c-3.80716,1.26905 -7.25172,1.26905 -10.06176,1.1784c-0.72518,0 -6.97978,-0.63453 -9.1553,-3.7165c-2.17552,-3.08198 -0.63453,-3.8978 0.09064,-4.26038c0.81582,-0.45324 6.70784,2.99134 9.78982,2.44746z" fill="#b6b7ba" stroke="#b6b7ba" stroke-width="1.2" stroke-linecap="round" stroke-linejoin="round"></path><path d="M472.13664,51.6133c1.45035,-2.08487 1.90358,-3.44456 3.7165,-3.08198c1.81293,0.54388 2.71939,4.35103 1.81293,7.52366c-0.90646,3.17262 -2.3568,4.80426 -3.53521,5.98266c0.1813,-0.63452 0.54389,-2.62874 -0.99711,-3.80716c-1.90357,-1.54099 -5.25749,-0.72518 -5.25749,-0.72518c0,0 2.81004,-3.44456 4.26038,-5.89202z" fill="#ffffff" stroke="none" stroke-width="1" stroke-linecap="butt" stroke-linejoin="miter"></path></g><path d="M445.12403,68.38289c-1.54099,-1.08776 -3.17263,-3.80716 -0.27194,-6.25461c3.35392,-2.90069 7.52366,0.45324 9.33658,1.81293c1.81293,1.3597 2.7194,2.17552 6.6172,4.16974c1.54099,0.81582 3.53521,1.54099 4.62297,1.90358c0.45324,0.09064 0.90646,0.09064 1.3597,-0.09064c0.81582,-0.36258 2.35681,-0.99711 4.0791,0.27194c3.80716,3.35392 -5.16685,16.13508 -9.97112,14.59408c-4.98556,-1.54099 -2.17552,-5.89202 -0.63453,-8.06754c0.18129,-0.36258 0,-0.81582 -0.36258,-0.90646l-0.36258,-0.09064c-7.16108,-2.26616 -12.78115,-6.2546 -14.41279,-7.34236z" fill="#b6b7ba" fill-rule="evenodd" stroke="#b6b7ba" stroke-width="1.2" stroke-linecap="round" stroke-linejoin="round"></path><g fill-rule="evenodd"><path d="M437.41908,64.03186c-1.08776,-0.81582 -2.17552,-2.17552 -3.62586,-4.26038c-1.1784,-1.72228 -2.44746,-5.0762 -2.44746,-5.0762c-0.81582,-2.26616 -1.3597,-6.61719 1.63164,-6.52654c1.99421,0.09064 3.80716,-0.1813 6.88913,-0.63453c5.43879,-1.08775 6.43591,-1.81293 8.70206,1.90358c2.44745,4.35103 8.70206,7.52366 0.99711,15.04732c0,0 -4.44167,3.44457 -9.78982,8.70206c-3.62586,3.53521 -9.33658,8.61141 -11.33081,10.33369c-0.45324,0.36258 -0.99711,0.54389 -1.54099,0.63453c-8.79271,0.81582 -15.31925,-0.09064 -15.31925,-3.98844c0,-6.52654 12.96245,-4.26038 12.96245,-4.26038c0,0 4.16973,-3.53521 6.07331,-5.25749z" fill="#b6b7ba" stroke="#b6b7ba" stroke-width="1.2" stroke-linecap="round" stroke-linejoin="round"></path><path d="M438.23489,63.94121c0,0 -2.81003,-1.90357 -4.80426,-5.98266c0,0 -1.72228,-2.26616 2.17552,-4.71362c4.07909,-2.62874 5.62008,0.27194 7.25172,2.44746c1.81293,2.81004 0,4.16974 -1.81293,5.80138c-1.45035,1.3597 -2.81004,2.44746 -2.81004,2.44746z" fill="#ffffff" stroke="none" stroke-width="1" stroke-linecap="butt" stroke-linejoin="miter"></path></g><g fill-rule="evenodd"><path d="M421.16233,8.22603c1.99619,-0.7024 4.11176,-1.24101 6.64489,-1.48199c4.23169,-0.52583 8.50947,0.3193 8.50947,0.3193l9.63281,-8.87649c0.32761,-0.23876 0.81958,-0.04553 0.79015,0.32705l0.8062,16.31709c-0.65632,-0.62524 11.39517,9.8538 6.757,21.10962c-4.63819,11.25582 -17.37271,18.0789 -34.73426,17.58967c-17.36155,-0.48924 -22.9142,-9.48458 -22.69596,-14.76019c0.21825,-5.2756 6.25067,-8.21739 6.25067,-8.21739c0,0 -0.58524,-4.03791 1.45094,-9.43455c1.20383,-3.23498 6.22068,-8.39618 6.22068,-8.39618l0.72022,-9.95539c0.02944,-0.37258 0.46143,-0.53695 0.75961,-0.40312z" fill="#b6b7ba" stroke="#b6b7ba" stroke-width="1.2" stroke-linecap="butt" stroke-linejoin="miter"></path><path d="M403.45143,30.86532c7.314,-2.97288 8.97368,2.53927 15.4853,1.90683c7.59939,-0.72295 16.51591,-10.58224 24.10972,-2.02111c7.57883,8.47174 -0.54312,23.06915 -22.92706,22.2273c-17.16776,-0.42983 -23.00304,-8.91821 -22.78481,-14.19381c0.21825,-5.2756 6.11685,-7.91921 6.11685,-7.91921z" fill="#ffffff" stroke="none" stroke-width="1" stroke-linecap="butt" stroke-linejoin="miter"></path><path d="M398.39018,36.30971c0,0 -6.45166,0.99002 -11.22307,-1.70248" fill="none" stroke="#b6b7ba" stroke-width="1.2" stroke-linecap="round" stroke-linejoin="round"></path><path d="M398.9171,41.64418c0,0 -3.20167,2.28324 -8.90871,2.78075" fill="none" stroke="#b6b7ba" stroke-width="1.2" stroke-linecap="round" stroke-linejoin="round"></path><path d="M418.90454,30.38782c1.78796,-0.29983 4.21671,-0.61521 4.30721,0.47255c0.23987,1.43038 -3.14005,4.29498 -4.7792,4.38605c-1.44536,0.15048 -3.20611,-2.12779 -3.3266,-3.39435c-0.01554,-0.64078 1.92123,-1.1494 3.79859,-1.46424z" fill="#001026" stroke="#001026" stroke-width="1.2" stroke-linecap="round" stroke-linejoin="round"></path><path d="M448.97618,29.389c2.66419,-3.29606 9.93265,-7.08852 9.93265,-7.08852" fill="none" stroke="#b6b7ba" stroke-width="1.2" stroke-linecap="round" stroke-linejoin="round"></path><path d="M459.78224,31.34523c0,0 -6.45056,2.09278 -10.54953,1.21768" fill="none" stroke="#b6b7ba" stroke-width="1.2" stroke-linecap="round" stroke-linejoin="round"></path><g><path d="M408.13178,31.91866c-2.0378,-0.87404 -2.9427,-3.57604 -2.51817,-6.71641c0.38204,0.0491 10.22465,-3.97704 10.23157,-8.97741c2.20373,1.59413 2.61805,5.76759 0.86438,9.84357c-2.00731,4.47268 -5.80478,7.03967 -8.57779,5.85028z" fill="#ffffff" stroke="#b6b7ba" stroke-width="1.2" stroke-linecap="round" stroke-linejoin="round"></path><path d="M408.66693,28.86629c-0.16491,-0.98338 0.41535,-1.9079 1.30933,-2.05782c0.89399,-0.14992 1.7441,0.53473 1.90901,1.51811c0.16491,0.98338 -0.41535,1.9079 -1.30933,2.05782c-0.89399,0.14992 -1.7441,-0.53473 -1.90901,-1.51811" fill="#001026" stroke="none" stroke-width="1" stroke-linecap="butt" stroke-linejoin="miter"></path></g><g><path d="M429.19202,20.48244c0.98353,-2.13179 2.39748,-3.90096 3.949,-4.97291c-0.04817,0.37846 -0.07299,0.7642 -0.07299,1.15574c0,4.27694 6.83092,9.07325 6.76955,9.20109c-2.02229,4.38327 -5.74593,6.29449 -8.98091,5.09067c-2.69858,-1.29379 -3.68695,-6.0913 -1.66466,-10.47457z" fill="#ffffff" stroke="#b6b7ba" stroke-width="1.2" stroke-linecap="round" stroke-linejoin="round"></path><path d="M431.87789,28.1375c-0.16491,-0.98338 0.43034,-1.81851 1.30933,-2.05782c0.89399,-0.14992 1.7441,0.53473 1.90901,1.51811c0.16491,0.98338 -0.41535,1.9079 -1.30933,2.05782c-0.89399,0.14992 -1.7441,-0.53473 -1.90901,-1.51811" fill="#001026" stroke="none" stroke-width="1" stroke-linecap="butt" stroke-linejoin="miter"></path></g></g><path d="M441.415,64.22574c0,-8.24712 1.52814,-14.93273 3.41319,-14.93273c1.88506,0 3.41319,6.68562 3.41319,14.93273c0,8.24712 2.3117,14.93273 -3.83985,14.93273c-6.5782,0 -2.98654,-6.68562 -2.98654,-14.93273z" fill="#b6b7ba" fill-rule="nonzero" stroke="#b6b7ba" stroke-width="1.2" stroke-linecap="butt" stroke-linejoin="miter"></path><path d="M436.01405,42.04627l-6.34526,0.45324" fill="none" fill-rule="nonzero" stroke="#b6b7ba" stroke-width="1.2" stroke-linecap="round" stroke-linejoin="miter"></path><path d="M418.11136,44.76568l7.70495,-1.81293" fill="none" fill-rule="nonzero" stroke="#b6b7ba" stroke-width="1.2" stroke-linecap="round" stroke-linejoin="miter"></path><path d="M415.39198,45.67212l-4.75894,2.49278" fill="none" fill-rule="nonzero" stroke="#b6b7ba" stroke-width="1.2" stroke-linecap="round" stroke-linejoin="miter"></path></g><path d="M392.23045,153.55922c0.2772,1.61072 1.35809,6.24268 0.59846,7.34793c-0.92837,1.35076 -2.9675,1.08153 -4.45487,1.61076c-1.06502,0.37896 -2.0929,0.93052 -3.20217,1.11376c-6.48046,1.07046 -12.8939,0.72679 -19.41017,2.12148l-1.19972,0.44944c0,0 -0.12873,0.04589 -0.3362,0.08422c-1.05367,1.69318 -1.23391,2.81257 -1.46288,5.086c-0.12214,1.21264 0.27681,2.57006 -0.25541,3.64875c-0.79543,1.61215 -3.92612,3.25389 -5.3411,4.23134c-5.14215,3.55212 -10.63226,2.47677 -16.40405,0.93362c-5.02763,-0.90612 -9.79538,-2.95587 -14.21574,-5.63404c-0.59166,-0.35847 -0.93914,-1.11605 -1.56576,-1.39851c-1.59371,-0.71839 -5.69527,1.81853 -7.1068,2.19724c-4.2303,1.13501 -8.44881,1.48505 -12.72033,2.18628c-1.49984,0.24622 -5.77161,1.1078 -7.33901,0.36265c-3.63997,-1.73047 -3.59101,-5.47953 -5.52758,-8.32986c-1.07209,-1.57795 -3.84614,-2.75613 -5.44418,-3.42171c-2.79309,-1.20957 -5.10348,-1.37577 -8.07126,-2.00162c-2.53132,-0.53381 -4.94959,-1.58751 -7.4785,-2.1343c-8.71764,-1.88489 -19.92233,-2.47638 -23.36923,-12.93376c-1.12521,-3.41373 -1.77215,-4.36462 -0.4348,-7.89282c0.11591,-0.3058 2.93396,-4.29399 3.28227,-4.79065c0,0 0.01884,-0.02686 0.05512,-0.07233l1.44488,-2.06656c3.01685,-2.4134 6.15024,-4.47352 9.61643,-6.02544l0.38357,-0.39121c1.52065,-1.21282 2.64149,-3.01695 4.32036,-3.96141c2.8938,-1.62794 5.97133,-0.64451 8.92599,-0.30335c3.015,0.34814 7.6211,-0.0263 10.54129,-0.97161c0.73551,-0.2381 1.4238,-0.558 2.09111,-0.91544c-0.66482,-0.30974 -1.37874,-0.97499 -1.37874,-2.40372c0,-2.6736 2.5,-2.6736 2.5,-2.6736h1c5.68911,0 11.3952,-0.08113 17.10924,-0.18018c-0.06948,-0.25748 -0.10924,-0.55211 -0.10924,-0.88926c0,-1.59189 0.88627,-2.23595 1.60343,-2.49653c0.27831,-0.11439 0.58059,-0.17708 0.89657,-0.17708c0.05332,0 0.10625,0.00179 0.15874,0.0053l0.93026,0.03108c2.34026,-0.41039 4.72347,-0.56272 7.09499,-0.56385c7.88864,1.23919 15.66362,2.8779 23.53633,3.85025c1.22561,0.07434 2.4535,0.19689 3.65595,0.39896c0.10995,0.0103 0.21993,0.02045 0.32994,0.03043c1.59132,0.14436 3.27995,0.22255 4.98141,0.23968c-0.53592,-0.54451 -1.02544,-1.46463 -0.50881,-2.84591c0.92848,-2.48238 3.24967,-1.48943 3.24967,-1.48943c5.05984,2.16449 10.21105,4.58886 15.56181,5.74262c3.83561,0.82705 7.48773,-0.11038 11.12062,1.8307c5.6177,3.00159 7.87856,10.16276 12.88909,14.159l0.39081,0.3986c0.595,0.37365 0.87554,0.93752 1.00273,1.45469c0.17531,0.4935 0.25374,1.11695 -0.01473,1.78119c-0.95758,5.49713 -2.91101,9.90839 -1.91977,15.66818z" fill="#b6b7ba" fill-rule="nonzero" stroke="none" stroke-width="0.5" stroke-linecap="butt" stroke-linejoin="miter"></path><g fill-rule="nonzero" stroke-linejoin="miter"><path d="M318.72241,114.91806c-12.96081,33.41054 -51.45246,24.31725 -60.823,20.58194c-21.08716,-8.40581 -12.54983,-25.9357 -1.5,-20c11.30621,6.07342 23.8411,13.7151 37.5,13.5c13.6589,-0.2151 26,-14.5 26,-14.5" fill="#b6b7ba" stroke="#8d8f95" stroke-width="4" stroke-linecap="round"></path><path d="M269.64941,124.625c1.19855,1.13703 -8.32552,0.16976 -9.32899,4.18363c-1.00347,4.01386 7.96574,7.31637 6.45399,7.31637c-0.23353,0 -11.70842,-3.07699 -14.23432,-5.29804c-2.5259,-2.22105 -5.51568,-5.27819 -5.51568,-8.45196c0,-3.45178 1.85051,-6.25 4.75,-6.25c2.89949,0 14.5,5.29822 17.875,8.5z" fill="url(#color-2)" stroke="none" stroke-width="0" stroke-linecap="butt"></path></g><path d="M332.39941,91c0,0 6.51506,4.52008 9.5,8.5c2.98494,3.97992 2.30354,6.30354 6.5,10.5c4.19646,4.19646 5.32808,6.24478 12,8c9.30708,2.44847 4.85896,7.81814 1.5,9c-3.35896,1.18186 -21.16279,1.01614 -26,-10" fill="#b6b7ba" fill-rule="nonzero" stroke="#8d8f95" stroke-width="4" stroke-linecap="round" stroke-linejoin="miter"></path><path d="M330.57473,110.89962c0,0 16.70115,5.20115 23,11.5c2.8876,2.8876 -1.5,15 -1.5,15c0,0 15.83665,-0.46813 15,10.5c-0.27726,3.6348 -12.20489,6.81149 -18,3.5" fill="#b6b7ba" fill-rule="nonzero" stroke="#8d8f95" stroke-width="4" stroke-linecap="round" stroke-linejoin="miter"></path><path d="M309.57473,159.89962l2.5,-16.5l-2,-13.5l-3,-12c0,0 -3.65372,-16.69249 2,-24.5c5.65372,-7.80751 17.71797,-6.1487 24,-1.5c6.28203,4.6487 1,20 1,20" fill="#b6b7ba" fill-rule="nonzero" stroke="#8d8f95" stroke-width="4" stroke-linecap="round" stroke-linejoin="miter"></path><path d="M325.07473,123.39962l4,12v13" fill="#b6b7ba" fill-rule="nonzero" stroke="#8d8f95" stroke-width="4" stroke-linecap="round" stroke-linejoin="miter"></path><path d="M333.07473,107.39962c0,5.79899 -3.91851,10 -8.75224,10c-4.83373,0 -8.75224,-4.20101 -8.75224,-10c0,-5.79899 -1.99002,-13.75286 8.75224,-13c14.26861,1 8.75224,7.20101 8.75224,13z" fill="url(#color-3)" fill-rule="nonzero" stroke="none" stroke-width="0" stroke-linecap="butt" stroke-linejoin="miter"></path><path d="M296.57473,144.76594c-0.93978,6.65401 -22.69668,8.89196 -28.50064,5.57045c-6.91211,-3.95568 -5.86043,-9.51097 -3.49936,-11.73712c4.34362,-4.09541 12.66667,-4.33333 12.66667,-4.33333c0,0 7.15728,-3.26323 12.98046,-14.03754c2.48674,-4.60108 11.92726,-24.42963 13.35288,-26.46246c4.76399,-6.7931 8,-3 8,-3" fill="#b6b7ba" fill-rule="nonzero" stroke="#8d8f95" stroke-width="4" stroke-linecap="round" stroke-linejoin="miter"></path><path d="M308.40807,104.09927c0,0 -1.68562,10.53238 -4.44299,18.92942c-2.99004,9.1056 -7.06448,16.31589 -6.89034,21.40391" fill="none" fill-rule="nonzero" stroke="#8d8f95" stroke-width="4" stroke-linecap="round" stroke-linejoin="miter"></path><g fill-rule="nonzero" stroke-linejoin="miter"><path d="M333.74424,16.95359l22.795,-11.93973c0,0 13.64727,18.21517 12.84365,46.5" fill="#b6b7ba" stroke="#8d8f95" stroke-width="4" stroke-linecap="round"></path><g stroke-linecap="butt"><path d="M369.89645,51.3991c0,1.14126 -0.00185,0.87029 1.25009,1.32961c18.08593,6.63542 10.16505,26.96527 -5.62044,34.06949c-19.50136,8.77654 -66.14773,-0.12659 -74.92025,-23.1558c-8.77252,-23.02921 13.78037,-47.64239 33.08978,-47.64239c43.03415,0 46.20081,19.3766 46.20081,35.39909z" fill="#b6b7ba" stroke="#8d8f95" stroke-width="4"></path><path d="M379.25592,65.75c1.53282,11.09464 -13.42511,22.75 -35.35328,22.75c-21.92817,0 -56.60626,-17.77325 -46.77511,-30.25c11.29362,-14.33277 52.75797,2.75 52.75797,2.75c0,0 26.65093,-14.93376 29.37042,4.75z" fill="url(#color-4)" stroke="none" stroke-width="0"></path></g><path d="M352.90022,60.62951c0,1.11402 -2.03022,3.31849 -4.88389,3.31849c-2.85367,0 -5.45014,-2.20447 -5.45014,-3.31849c0,-1.11402 10.33404,-1.11402 10.33404,0z" fill="#8d8f95" stroke="#8d8f95" stroke-width="2" stroke-linecap="butt"></path><path d="M314.74498,65.81338l2.71948,3" fill="none" stroke="#8d8f95" stroke-width="2" stroke-linecap="round"></path><path d="M365.05542,73.81338c0,0 -9.21559,3.95141 -19.03638,3.5c-9.82079,-0.45141 -24.47535,-5.5 -24.47535,-5.5" fill="none" stroke="#8d8f95" stroke-width="2" stroke-linecap="round"></path><path d="M317.19251,72.56338l4.07922,-4.25" fill="none" stroke="#8d8f95" stroke-width="2" stroke-linecap="round"></path><path d="M311.20965,65.31338l3.80728,-2.75" fill="none" stroke="#8d8f95" stroke-width="2" stroke-linecap="round"></path><path d="M311.75355,62.31338l-1.35974,-2" fill="none" stroke="#8d8f95" stroke-width="2" stroke-linecap="round"></path><path d="M368.04685,74.56338l-1.35974,-3" fill="none" stroke="#8d8f95" stroke-width="2" stroke-linecap="round"></path><path d="M369.13464,71.06338l1.90364,-2" fill="none" stroke="#8d8f95" stroke-width="2" stroke-linecap="round"></path><path d="M371.03828,65.81338l2.71948,2.75" fill="none" stroke="#8d8f95" stroke-width="2" stroke-linecap="round"></path><path d="M374.30166,62.56338l-0.5439,2.5" fill="none" stroke="#8d8f95" stroke-width="2" stroke-linecap="round"></path><path d="M341.66786,54.93838c0,5.45381 -4.89465,5.625 -9.92611,5.625c-5.03146,0 -13.18949,-0.67119 -13.18949,-6.125c0,-5.45381 8.15803,-11.375 13.18949,-11.375c5.03146,0 9.92611,6.42119 9.92611,11.875z" fill="#d9dadd" stroke="#8d8f95" stroke-width="2" stroke-linecap="butt"></path><path d="M333.78136,55.06337c0,0.55228 -0.73053,1 -1.63169,1c-0.90116,0 -1.63169,-0.44772 -1.63169,-1c0,-0.55228 0.73053,-1 1.63169,-1c0.90116,0 1.63169,0.44772 1.63169,1z" fill="#8d8f95" stroke="#8d8f95" stroke-width="2" stroke-linecap="butt"></path><path d="M360.36671,43.81338c3.13726,0 8.22404,5.66742 8.22404,10.8875c0,5.22008 -5.08677,5.8625 -8.22404,5.8625c-3.13726,0 -6.18922,-0.16385 -6.18922,-5.38393c0,-5.22008 3.05196,-11.36607 6.18922,-11.36607z" fill="#d9dadd" stroke="#8d8f95" stroke-width="2" stroke-linecap="butt"></path><path d="M363.69567,55.81338c0,0.55229 -0.73053,1 -1.63169,1c-0.90116,0 -1.63169,-0.44771 -1.63169,-1c0,-0.55229 0.73053,-1 1.63169,-1c0.90116,0 1.63169,0.44771 1.63169,1z" fill="#8d8f95" stroke="#8d8f95" stroke-width="2" stroke-linecap="butt"></path><path d="M288.63794,55.26386c-1.25872,-32.82798 29.91431,-56 29.91431,-56l24.2034,18.5" fill="#b6b7ba" stroke="#8d8f95" stroke-width="4" stroke-linecap="round"></path></g><path d="M195.62211,243.31597c0,0 8.15715,5.2189 11.5,10.25c3.4853,5.24549 3.96379,10.59154 0.5,15c-3.46379,4.40846 -11.89125,7.40265 -15.25,1" fill="#b6b7ba" fill-rule="nonzero" stroke="#8d8f95" stroke-width="3" stroke-linecap="round" stroke-linejoin="miter"></path><path d="M187.63313,285.51662c3.73774,-23.19209 -0.76968,-46.02831 -4.25,-41.58333c-1.82636,2.33259 -0.54546,15.68976 -3.25,25.25c-2.70454,9.56024 -3.59661,8.37348 -7.5,12.75c-3.90339,4.37652 -6.58597,2.29207 -9,5.75c-2.41403,3.45793 -1.49532,10.61953 3.41667,12.5" fill="#b6b7ba" fill-rule="nonzero" stroke="#8d8f95" stroke-width="3" stroke-linecap="round" stroke-linejoin="miter"></path><path d="M179.82575,299.08333c0,0 -3.26052,8.67523 -2.08333,13.33333c2.08029,8.23167 18.32569,7.96219 20.66667,-2c1.49687,-6.37005 -3.08333,-13.91667 -3.08333,-13.91667" fill="#b6b7ba" fill-rule="nonzero" stroke="#8d8f95" stroke-width="3" stroke-linecap="round" stroke-linejoin="miter"></path><path d="M207.25982,259.8983c0,5.4308 -3.57682,11.16667 -7.16667,11.16667c-3.58985,0 -6.83333,-10.40253 -6.83333,-15.83333c0,-5.4308 2.25605,-7.70413 5.5,-6.16667c4.92318,2.33333 8.5,5.40253 8.5,10.83333z" fill="url(#color-5)" fill-rule="nonzero" stroke="none" stroke-width="0" stroke-linecap="butt" stroke-linejoin="miter"></path><path d="M203.79315,242.88788c4.69128,0.09199 8.33333,8.66667 8.33333,8.66667l5.33333,8.33333c0,0 5.36051,4.34195 7.66667,8c2.30616,3.65805 2,7.33333 2,7.33333" fill="none" fill-rule="nonzero" stroke="#8d8f95" stroke-width="3" stroke-linecap="round" stroke-linejoin="miter"></path><g fill-rule="nonzero" stroke-linejoin="miter"><path d="M226.1383,212c2.10787,-10.92489 -9.25,-36 -9.25,-36l-15.5,4" fill="#b6b7ba" stroke="#8d8f95" stroke-width="3" stroke-linecap="round"></path><path d="M226.43016,211.94133c0,1.87295 8.66858,-0.64636 9.50226,7.99947c1.6774,17.39567 -30.25862,26.05921 -49.75226,23.55921c-20.40548,-2.61694 -35.75,-13.02473 -35.75,-31.55867c0,-18.53394 18.1774,-33.55867 38.75,-33.55867c20.5726,0 37.25,15.02473 37.25,33.55867z" fill="#b6b7ba" stroke="#8d8f95" stroke-width="3" stroke-linecap="butt"></path><path d="M150.8883,216.5c-3.72681,-26.90447 24.5,-52.5 24.5,-52.5l22.5,15" fill="#b6b7ba" stroke="#8d8f95" stroke-width="3" stroke-linecap="round"></path><path d="M234.18764,216.91225c3.5,19.60863 -25.31992,25.25 -37.125,25.25c-11.80508,0 -39.625,-3.98228 -39.625,-20.5c0,-16.51772 30.56992,1 42.375,1c8.34806,0 17.13042,-7.89035 24.51122,-9.26894c3.05648,-0.57089 9.6009,2.0462 9.86378,3.51894z" fill="url(#color-6)" stroke="none" stroke-width="0" stroke-linecap="butt"></path><path d="M196.61723,210.53075c0,7.67181 -6.49187,13.89104 -14.5,13.89104c-8.00813,0 -14.5,-6.21923 -14.5,-13.89104c0,-7.67182 7.01908,-11.03343 14.5,-13.89105c8.50813,-3.25 14.5,6.21923 14.5,13.89105z" fill="#d9dadd" stroke="#8d8f95" stroke-width="2.25" stroke-linecap="butt"></path><path d="M189.5808,214.99737c0,0.69036 -0.44771,1.25 -1,1.25c-0.55229,0 -1,-0.55964 -1,-1.25c0,-0.69036 0.44771,-1.25 1,-1.25c0.55229,0 1,0.55964 1,1.25z" fill="#8d8f95" stroke="#8d8f95" stroke-width="2" stroke-linecap="butt"></path><path d="M213.22363,196.60877c5.1161,1.31308 10.09913,3.104 12.16017,9.40578c2.06105,6.30179 -0.04164,12.30788 -4.69648,13.415c-4.65484,1.10712 -10.09913,-3.10399 -12.16017,-9.40578c-2.06105,-6.30178 -1.12211,-14.90838 4.69648,-13.415z" fill="#d9dadd" stroke="#8d8f95" stroke-width="2.25" stroke-linecap="butt"></path><path d="M219.8308,211.49737c0,0.69036 -0.44771,1.25 -1,1.25c-0.55229,0 -1,-0.55964 -1,-1.25c0,-0.69036 0.44771,-1.25 1,-1.25c0.55229,0 1,0.55964 1,1.25z" fill="#8d8f95" stroke="#8d8f95" stroke-width="2" stroke-linecap="butt"></path><path d="M166.59603,226.42743c0,0 24.13383,11.87425 48,5" fill="none" stroke="#8d8f95" stroke-width="2.25" stroke-linecap="round"></path><path d="M170.72818,229.99353l0.75,-4.5" fill="none" stroke="#8d8f95" stroke-width="1.25" stroke-linecap="round"></path><path d="M174.72818,231.74353l1.5,-5.25" fill="none" stroke="#8d8f95" stroke-width="1.25" stroke-linecap="round"></path><path d="M179.22818,233.24353l2.25,-5" fill="none" stroke="#8d8f95" stroke-width="1.25" stroke-linecap="round"></path><path d="M166.97818,228.24353l0.5,-3.25" fill="none" stroke="#8d8f95" stroke-width="1.25" stroke-linecap="round"></path><path d="M183.72818,234.24353l1,-4.5" fill="none" stroke="#8d8f95" stroke-width="1.25" stroke-linecap="round"></path><path d="M214.72818,233.49353l-1,-4" fill="none" stroke="#8d8f95" stroke-width="1.25" stroke-linecap="round"></path><path d="M212.47818,233.99353l-0.75,-4.75" fill="none" stroke="#8d8f95" stroke-width="1.25" stroke-linecap="round"></path><path d="M209.22818,234.74353l-1.5,-4.75" fill="none" stroke="#8d8f95" stroke-width="1.25" stroke-linecap="round"></path><path d="M197.22818,236.24353l-1,-5.25" fill="none" stroke="#8d8f95" stroke-width="1.25" stroke-linecap="round"></path><path d="M189.47818,236.24353l0.75,-6.5" fill="none" stroke="#8d8f95" stroke-width="1.25" stroke-linecap="round"></path><path d="M202.72818,235.99353l-0.25,-4.5" fill="none" stroke="#8d8f95" stroke-width="1.25" stroke-linecap="round"></path><path d="M198.88395,220.84439c1.82799,-0.37453 3.01011,-0.52311 5.25,-0.52258c3.75342,0.00089 -0.41547,3.13548 -1,3.26612c-1.15511,0.25815 -5.94151,-2.39697 -4.25,-2.74354z" fill="#8d8f95" stroke="#8d8f95" stroke-width="2.25" stroke-linecap="round"></path></g><path d="M205.79315,271.88788l8.66667,9.66667l1,6.33333c0,0 9.37441,1.49072 15.33333,2.66667c13.97847,2.75855 14.4494,-7.77272 7.33333,-11.66667c-4.00719,-2.19276 -15.33333,-2 -15.33333,-2c0,0 -3.85064,-5.61929 -7,-7.66667" fill="none" fill-rule="nonzero" stroke="#8d8f95" stroke-width="3" stroke-linecap="round" stroke-linejoin="miter"></path></g></g></svg>