<svg version="1.1" xmlns="http://www.w3.org/2000/svg" xmlns:xlink="http://www.w3.org/1999/xlink" width="80.9988" height="91.34424" viewBox="0,0,80.9988,91.34424"><g transform="translate(-240.42161,-139.14485)"><g data-paper-data="{&quot;isPaintingLayer&quot;:true}" fill-rule="nonzero" stroke="none" stroke-linecap="butt" stroke-linejoin="miter" stroke-miterlimit="10" stroke-dasharray="" stroke-dashoffset="0" style="mix-blend-mode: normal"><path d="M253.23075,184.33457l-9.87865,-18.9484l28.94661,-26.24133l33.94152,10.70742l8.69304,25.34726l6.48715,16.78149l-43.91077,5.2497l-9.77845,19.35535l-15.42295,2.20517l-1.60943,10.87231l-8.86712,0.82554l-1.41008,-12.37927l4.00776,-33.06474z" fill="#ffffff" stroke-width="0"/><path d="M273.80165,188.29297c0.01718,-1.92272 1.79418,-2.24317 1.79418,-2.24317c4.08277,-0.73608 7.839,-1.76655 11.85514,-3.29179l1.66677,-0.76507c0.245,-0.11879 0.50823,-0.1852 0.77485,-0.1852c0.9665,0 1.61162,0.8727 1.44092,1.94924c-0.04162,0.2625 -0.1279,0.51287 -0.24861,0.74143l-0.28003,0.55576c0.9775,-0.58743 1.9405,-1.2084 2.87939,-1.87693c0.29434,-0.49291 0.81086,-0.9916 1.69603,-0.9916c1.75,0 1.44092,1.94924 1.44092,1.94924l-0.97909,1.76013c-1.26433,0.92962 -2.56759,1.77633 -3.89312,2.56864c3.07597,-0.62715 6.82081,-1.76538 8.91112,-4.27634c0.85038,-1.0215 0.96049,-2.48651 1.58055,-3.66948c0.1033,-0.55783 0.35444,-1.19441 0.78776,-1.92088c0.40788,-0.68383 1.13658,-0.92583 1.90595,-1.06392c0.44469,-0.51958 0.78714,-1.13623 0.91325,-2.05266c0.44988,-3.26895 -1.64775,-3.55643 -1.83048,-6.3817c-0.15583,-2.40935 2.08794,-3.18355 0.94975,-5.30327c-1.62456,-3.02555 -4.8248,-4.16977 -6.45949,-7.30583c-1.57214,-4.67966 -6.34741,-9.00682 -11.62619,-5.83873c-1.42256,0.85375 -2.00105,3.34743 -3.51307,3.81703c-1.51386,0.47017 -5.23493,-2.53121 -6.61929,-2.96491c-2.92777,-0.91723 -11.39397,-2.52573 -14.24045,1.26478c-1.38694,1.84692 -2.17784,4.08717 -3.36612,6.07474c-0.95636,0.11153 -1.9116,0.20233 -2.86908,0.33458c-4.30188,0.59419 -5.21688,5.30043 -2.47494,7.9965c0.72529,0.71315 1.77177,1.02281 2.42489,1.81536c0.65518,0.79507 1.40284,1.69673 1.42258,2.85352c0.02188,1.28223 -1.46506,2.56854 -1.35769,3.82943c0.34422,4.04206 4.15876,6.41067 7.79836,7.10295c-0.1193,-1.19531 -0.08509,-2.48304 0.12575,-3.85918l0.09549,-0.60223c0,0 0.30908,-1.94924 2.05908,-1.94924c0.10026,0 0.19377,0.00639 0.28096,0.01846c-0.56114,-1.72988 -0.3229,-3.87292 1.16038,-6.39634c0.77566,-1.31958 2.78432,-3.08317 3.84738,-4.09192c0,0 1.45599,-1.37832 2.47487,0c1.01889,1.37832 -0.43711,2.75663 -0.43711,2.75663c-1.47122,1.38908 -3.33315,2.78204 -3.87227,4.91449c-0.80505,3.18431 5.36744,4.33773 7.4245,4.02827c1.40993,-0.21211 2.63077,-2.25567 4.0137,-2.21746c1.38938,0.03838 2.32568,1.31942 3.57208,1.81089c2.19243,0.86449 6.04032,0.25992 7.65359,-2.42894c0.58379,-0.97299 0.82301,-2.09862 1.2345,-3.14792l0.93873,-2.5678c0,0 0.69467,-1.89931 2.33035,-1.46101c1.63569,0.4383 0.94102,2.33762 0.94102,2.33762l-0.97019,2.65144c-0.5712,1.35958 -0.89523,2.84405 -1.71361,4.07873c-2.69185,4.06115 -8.38642,5.93842 -12.01824,4.26981c-0.82192,-0.37763 -1.22473,-1.52596 -2.13601,-1.67602c-0.42188,-0.06947 -0.55918,0.92618 -0.9789,1.16309c-2.02327,1.14204 -3.90815,1.29031 -5.92001,1.04838c-2.49999,-0.30063 -4.9272,-1.34074 -6.39839,-3.05526l-0.08187,0.51631c-0.87786,5.31324 1.99829,8.76593 5.98726,10.08918c-0.06391,-0.19407 -0.10032,-0.42861 -0.09778,-0.71183zM253.18608,173.74507c0.18209,-0.56345 0.94313,-0.84012 1.10947,-1.40658c0.078,-0.26564 -0.4039,-0.22367 -0.59124,-0.35833c-0.81316,-0.58446 -1.71443,-1.06101 -2.40882,-1.79795c-1.31253,-1.39299 -2.22346,-3.49006 -2.39081,-5.62444c-0.40816,-5.20585 4.42181,-10.31624 8.96569,-8.92886c3.15635,-10.12361 13.56141,-10.10938 20.49651,-7.91674c1.5456,0.48867 3.13237,1.04711 4.32441,2.14001c0.22792,0.20897 0.05826,1.11761 0.3565,0.91729c0.37363,-0.25097 -0.01038,-0.97611 0.2786,-1.34389c0.66519,-0.84659 1.52539,-1.52355 2.40044,-2.06572c7.09262,-4.39458 14.00689,0.48065 16.25351,7.00863c1.53286,3.03321 4.98204,3.97877 6.38736,7.14746c0.97221,2.19216 1.00251,3.02988 0.14046,5.53332c-0.15214,0.44183 -0.78663,0.77524 -0.74009,1.20783c0.05861,0.54475 0.76364,0.64525 0.98904,1.10603c0.95433,1.95091 1.19977,3.71757 0.7831,6.1626c-0.11392,0.66851 -0.26176,1.21507 -0.43706,1.67671c1.98956,0.28871 3.78693,1.38891 5.345,2.45282l1.3158,0.69774c0,0 0.53386,0.28681 0.74237,0.90354c0.32755,0.15058 0.64359,0.3336 0.9454,0.55592c3.27129,2.40985 3.16426,7.93795 -1.49706,10.07842c-3.21326,1.47553 -7.35444,0.91161 -10.5294,0.91161c-5.54417,0 -11.08835,0 -16.63252,0l-0.88449,0.09713c0,0 -0.36395,0.03983 -0.74955,-0.09713c-0.55233,0 -1.10467,0 -1.657,0l-0.53775,0.17109c-1.12505,0.18728 -2.26452,0.38124 -3.41242,0.58476c-4.0615,1.85027 -8.51572,3.17023 -12.89779,3.99431c-0.38555,1.06869 -1.49786,1.38423 -1.49786,1.38423c-3.38427,0.94955 -6.17513,2.60675 -9.23611,4.49374c-0.82209,1.13422 -1.60569,2.27514 -2.37548,3.42584c0.15487,0.10942 0.30959,0.21908 0.46473,0.32806c2.3696,1.66469 4.96282,2.7607 7.49411,4.15341l1.55535,0.74564c0.62081,0.27642 0.98094,0.98999 0.84827,1.82668c-0.13267,0.83669 -0.7191,1.55027 -1.42756,1.82668l-1.82189,0.75816l-0.08237,-0.41072c-1.33761,0.60387 -2.40745,0.55014 -4.76453,0.55014h-2.08742c0,0 -1.75,0 -1.44092,-1.94924c0.30908,-1.94924 2.05908,-1.94924 2.05908,-1.94924h0.39792c-1.3249,-0.60655 -2.61394,-1.28546 -3.65514,-2.13818c-0.71606,1.0951 -1.44309,2.20158 -2.20103,3.32198c-2.6111,3.85974 -4.15915,6.38221 -2.39301,10.34079l0.40952,1.66969c0,0 0.40527,1.79163 -1.32499,2.55947c-1.73026,0.76784 -2.13552,-1.02379 -2.13552,-1.02379l-0.20407,-1.0429c-0.64314,-1.47911 -1.47032,-3.00156 -1.41769,-4.83622c0.0973,-3.39191 2.45462,-6.83915 4.34885,-9.62381c0.93971,-1.38144 1.83586,-2.74725 2.72265,-4.09938c-0.49165,-0.82711 -0.8767,-1.73815 -0.64154,-2.73844c0.31106,-1.3231 1.87542,-2.0312 2.92419,-2.88446c0.97754,-0.7953 2.03291,-1.55051 3.13543,-2.25626c0.34778,-0.4616 0.70286,-0.92198 1.06673,-1.38122c-3.78766,0.04286 -8.82267,0.48146 -10.14805,-3.96791c-0.3536,-1.18705 -0.18362,-2.58019 -0.27543,-3.87028c1.7874,-0.96502 5.671,-4.06366 6.92771,-0.32245c0.37692,1.12211 -1.20862,2.3896 -1.81293,3.5844l-0.34356,0.0469c0.19019,0.15507 0.41563,0.28308 0.70207,0.36347c3.38762,0.95067 7.30586,0.58917 11.12766,-0.10732c1.32642,-0.54523 2.65326,-1.09019 4.01042,-1.48332c1.02423,-0.2967 2.06045,-0.57626 3.10445,-0.84082c-2.24753,-1.11249 -4.0982,-2.84321 -5.23151,-5.13682c-5.77855,-0.32446 -14.88611,-4.96124 -12.24823,-13.12411zM303.31811,186.49132c-0.87976,1.05796 -1.93049,1.93733 -3.07967,2.6721c3.52158,0.04053 7.04799,0.00143 10.56629,-0.25566c0.89525,-0.06542 1.79862,-0.24068 2.69835,-0.37089c2.10833,-0.30511 4.13599,-1.65759 1.63564,-3.36831c-1.39434,-0.954 -3.41083,-0.69914 -5.08729,-0.6976c-1.18367,-0.00415 -3.58359,-0.04938 -5.38472,-0.72337c-0.36042,0.975 -0.69621,1.95919 -1.34861,2.74373z" fill="#9966ff" stroke-width="0.5"/></g></g></svg>