<svg version="1.1" xmlns="http://www.w3.org/2000/svg" xmlns:xlink="http://www.w3.org/1999/xlink" width="101.06339" height="119.39074" viewBox="0,0,101.06339,119.39074"><g transform="translate(-189.39989,-118.12961)"><g data-paper-data="{&quot;isPaintingLayer&quot;:true}" fill="#000000" stroke="#ff7b00" stroke-width="2" stroke-miterlimit="10" stroke-dasharray="" stroke-dashoffset="0" style="mix-blend-mode: normal"><path d="M239.03808,200.30315c0.14558,0.7319 0.44324,2.09302 0.7418,3.90106c0.56697,3.43351 1.13723,8.4787 0.67546,13.8869l-0.06026,0.40788c-0.06026,0.40788 0.32553,0.78361 0.77159,0.75144c2.86719,-0.65514 8.48706,-1.68813 7.95887,4.04433c-0.45186,5.5476 -17.26322,9.31565 -19.07981,4.02131c-0.56871,-2.29055 0.7272,-3.59459 1.44047,-4.27376c0.37571,-0.38579 0.56658,-0.84793 0.66502,-1.34825c0.08835,-1.26183 0.18872,-3.60061 0.0058,-5.51543c-0.392,-4.81419 -0.84212,-6.08201 -1.4651,-8.50315c-0.62298,-2.42114 -2.28687,-8.08518 2.08319,-10.28349c3.71706,-1.92704 5.80279,0.88183 6.26299,2.91117z" fill-rule="evenodd" stroke-linecap="round" stroke-linejoin="round"/><path d="M233.62764,209.64634c-0.22554,0.71134 -0.62136,2.04722 -1.23201,3.77501c-1.15961,3.28112 -3.09378,7.97559 -6.10708,12.49022l-0.24954,0.32821c-0.24954,0.32821 -0.09284,0.84344 0.31341,1.03043c2.82758,0.8092 8.24867,2.61525 5.02076,7.38187c-3.07186,4.64151 -19.6156,-0.16727 -18.65298,-5.68119c0.60673,-2.28077 2.37096,-2.79794 3.32337,-3.0488c0.51521,-0.15671 0.90533,-0.46946 1.23289,-0.86022c0.68607,-1.06268 1.90218,-3.06296 2.66562,-4.82851c1.97888,-4.40614 2.19617,-5.73385 2.81838,-8.15517c0.62221,-2.42132 1.89692,-8.18544 6.78534,-8.00307c4.18557,0.10502 4.65765,3.57158 4.08185,5.57121z" fill-rule="evenodd" stroke-linecap="round" stroke-linejoin="round"/><g fill-rule="evenodd"><path d="M224.12936,200.3298c0.90777,0.00842 2.85827,0.07147 2.10897,4.20197c-0.7493,4.1305 -6.79797,7.80712 -7.53409,8.16007c-2.80956,1.45803 -6.30614,3.13457 -10.77159,3.72279c-12.94244,1.76885 -18.65616,-10.02187 -15.96874,-13.63972c2.5954,-3.57372 7.63567,2.99399 14.7993,4.9942c3.15247,0.92866 6.16423,0.37195 8.58717,-0.2352c3.38601,-0.958 7.73629,-7.25876 8.779,-7.20413z" stroke-linecap="round" stroke-linejoin="round"/><path d="M197.83352,203.95364c2.63093,1.73334 7.11413,3.79865 7.11413,3.79865c0,0 -3.79079,0.81933 -4.99358,3.28166c-1.00638,1.92447 0.30578,3.73553 0.79021,4.27968c-1.75408,-0.6009 -3.99878,-1.52115 -6.42091,-4.24195c-2.42214,-2.72078 -3.30436,-6.95636 -1.72154,-8.3808c1.66865,-1.24375 2.77244,-0.10921 5.2317,1.26276z" stroke-linecap="butt" stroke-linejoin="miter"/></g><path d="M248.11832,193.07201c0.478,0.42604 6.18612,7.94053 8.2791,6.24953c2.50837,-1.96928 6.02192,-5.88782 9.44118,-2.40088c3.41925,3.48694 -3.66918,8.71706 -6.64492,10.06057c-7.05522,2.72834 -12.33325,-3.46137 -13.44638,-5.12297c-1.11313,-1.66161 -3.06645,-4.46955 -2.92806,-7.06587c0.2489,-2.7907 3.68134,-3.30874 5.29908,-1.72039z" fill-rule="evenodd" stroke-linecap="round" stroke-linejoin="round"/><g fill-rule="evenodd"><path d="M228.8746,209.20804c-10.18184,-6.12128 -4.27241,-11.11515 -2.74942,-16.40764c1.48944,-4.56526 2.74401,-4.03985 8.85913,-4.25274c3.4238,-0.2958 5.43919,-0.46409 7.55713,-1.06766c3.18843,-0.8567 3.70907,3.95256 3.40851,6.59257c0,0 -0.511,3.92286 -1.3389,6.07102c-1.0278,2.60646 -1.85042,4.34236 -2.81112,5.49433c0,0 -2.06424,2.4764 -4.32034,3.09955c-2.02799,0.56015 -8.60499,0.47056 -8.60499,0.47056z" stroke-linecap="round" stroke-linejoin="round"/><path d="M240.90107,205.74771c0,0 -1.73588,-0.82263 -3.63812,-1.91418c-2.36054,-1.29147 -4.65203,-2.29098 -3.41905,-5.76801c1.19943,-2.7498 2.11743,-6.25511 7.164,-4.46846c4.80591,1.63805 3.53218,4.50816 3.53218,4.50816c-1.10545,4.88548 -3.63901,7.64248 -3.63901,7.64248z" stroke-linecap="butt" stroke-linejoin="miter"/></g><path d="M255.93149,132.88808c0.29779,-0.20327 0.79886,-0.10875 0.90323,0.29013l2.71694,10.67091c0,0 6.45105,4.62968 8.38706,7.90869c3.26,5.46465 3.40924,9.96328 3.40924,9.96328c0,0 7.12256,2.02216 8.38486,7.7087c1.26231,5.68653 -3.01923,16.53404 -21.77761,20.43956c-18.75838,3.90552 -33.91329,-1.02891 -41.13763,-12.35053c-7.22433,-11.32161 3.82615,-25.04338 3.23494,-24.23685c0,0 -1.20995,-15.92986 -0.80779,-15.73425l11.49223,5.11668c0,0 4.48113,-1.74914 9.17866,-2.00057c2.79765,-0.23063 5.19969,-0.05691 7.50393,0.3179z" fill-rule="evenodd" stroke-linecap="butt" stroke-linejoin="miter"/><path d="M289.46329,163.02292c-4.65814,3.85121 -11.85661,4.03 -11.85661,4.03" fill-rule="evenodd" stroke-linecap="round" stroke-linejoin="round"/><path d="M288.28594,174.23646c-6.29415,0.56891 -10.21471,-1.28829 -10.21471,-1.28829" fill-rule="evenodd" stroke-linecap="round" stroke-linejoin="round"/><path d="M254.17854,164.60916c2.09988,-0.02298 4.30193,0.15294 4.40958,0.85179c0.11532,1.39882 -1.35395,4.21508 -2.95276,4.33258c-1.7977,0.21969 -6.02482,-2.2342 -6.04233,-3.8341c-0.11312,-1.19883 2.58562,-1.32838 4.5855,-1.35026z" fill-rule="evenodd" stroke-linecap="round" stroke-linejoin="round"/><path d="M209.16482,163.60172c0,0 8.63013,2.70571 12.16385,5.76723" fill-rule="evenodd" stroke-linecap="round" stroke-linejoin="round"/><path d="M221.66695,172.86546c-4.28114,1.74695 -11.69273,0.72801 -11.69273,0.72801" fill-rule="evenodd" stroke-linecap="round" stroke-linejoin="round"/><path d="M266.26216,158.47656c0.01205,1.09993 -0.77806,2.00863 -1.778,2.01958c-0.99993,0.01095 -1.80974,-0.88024 -1.82178,-1.98018c-0.01205,-1.09993 0.77806,-2.00863 1.778,-2.01958c0.99993,-0.01095 1.80974,0.88024 1.82178,1.98018" fill-rule="evenodd" stroke-linecap="butt" stroke-linejoin="miter"/><path d="M241.04539,161.65272c0.01205,1.09993 -0.77806,2.00863 -1.778,2.01958c-0.99993,0.01095 -1.80974,-0.88024 -1.82178,-1.98018c-0.01205,-1.09993 0.77806,-2.00863 1.778,-2.01958c1.00103,0.08905 1.80974,0.88024 1.82178,1.98018" fill-rule="evenodd" stroke-linecap="butt" stroke-linejoin="miter"/><g fill-rule="nonzero" stroke-linecap="butt" stroke-linejoin="miter"><path d="M227.76341,148.36326c0.17745,4.57442 -15.72374,18.95797 -15.72374,18.95797c0,0 -2.74489,0.85902 -4.06181,1.19663c-9.86263,2.52838 -17.42141,1.63268 -17.57796,-2.40289c-0.17745,-4.57442 9.22331,-11.45095 20.99716,-15.35917c11.77387,-3.90821 16.18889,-6.96695 16.36635,-2.39255z"/><path d="M211.81451,149.45059l-12.32081,0.56397c0,0 11.38662,-10.98278 18.20738,-15.42773c8.24928,-5.37592 27.82261,-14.5692 27.82261,-14.5692l-7.0319,21.56301z"/><path d="M210.00761,169.07392c0,0 -5.2663,-5.89543 -7.0277,-9.04918c-1.70881,-3.05959 -3.38767,-9.59938 -3.38767,-9.59938l23.13015,-12.91835c0,0 3.1739,7.00799 4.95915,10.20447c1.68013,3.00828 5.45622,8.44409 5.45622,8.44409z" data-paper-data="{&quot;index&quot;:null}"/><path d="M232.74058,156.3029c0,0 -3.27147,-5.77172 -5.31587,-8.54536c-2.17231,-2.94714 -7.3576,-8.64863 -7.3576,-8.64863l26.10938,-19.24488c0,0 5.57157,4.00332 7.65085,6.82425c2.14327,2.90775 5.02259,10.36973 5.02259,10.36973z"/></g><path d="M226.95818,199.98672c-1.09906,3.98577 0.15167,8.06813 -1.58575,9.9195c-1.13391,1.20828 -2.78678,1.9132 -3.77429,1.6409c-1.10065,-0.3035 -2.63999,-2.10574 -2.95042,-4.04213c-0.39486,-2.46301 -1.76203,-6.32754 -0.74514,-10.0153c0.89701,-3.25304 4.2019,-6.10403 5.59691,-8.03469c1.42973,-1.97872 3.41051,-2.11069 4.6762,-1.76169c1.36646,0.37679 2.57617,1.63226 2.71116,4.38236c0.11204,2.28262 -3.10484,4.92348 -3.92866,7.91106z" fill-rule="nonzero" stroke-linecap="butt" stroke-linejoin="miter"/><g fill-rule="nonzero" stroke-linejoin="miter"><g><path d="M251.62632,197.46615l17.36803,-13.80081l6.62207,11.43855l-19.71925,8.24625c0,0 -2.49015,-0.85331 -3.1798,-1.80346c-0.7315,-1.0078 -1.09105,-4.08055 -1.09105,-4.08055z" stroke-linecap="butt"/><path d="M269.80655,182.33068c3.51625,-2.03565 8.01696,-0.83539 10.05261,2.68087c2.03565,3.51625 0.83538,8.01697 -2.68087,10.05261c-3.51625,2.03565 -8.01697,0.83539 -10.05262,-2.68087c-2.03565,-3.51625 -0.83537,-8.01696 2.68088,-10.05261z" stroke-linecap="butt"/><path d="M266.47731,189.13888c0,0 3.47662,-3.06136 5.33199,-4.16382c1.73404,-1.03036 5.46085,-2.24925 5.46085,-2.24925" stroke-linecap="round"/><path d="M270.03147,194.99338c0,0 4.2428,-3.89181 6.06092,-5.18601c1.34336,-0.95622 3.86123,-1.87684 3.86123,-1.87684" stroke-linecap="round"/><path d="M269.39489,182.50475c0,0 4.35609,2.50232 6.07213,4.36066c1.49293,1.61673 3.64831,6.16583 3.64831,6.16583" stroke-linecap="round"/><path d="M265.95104,186.80617c0,0 4.61249,3.05652 6.45477,4.68626c1.4321,1.26689 3.68154,4.28078 3.68154,4.28078" stroke-linecap="round"/></g><path d="M264.93706,203.38619c-2.34095,1.36465 -5.55627,0.72108 -7.18163,-1.43745c-1.62537,-2.15852 -1.81825,-4.81467 0.5227,-6.17931c2.34095,-1.36465 6.32924,-0.92102 7.9546,1.2375c1.62537,2.15852 1.04528,5.01459 -1.29568,6.37925z" stroke-linecap="butt"/></g></g></g></svg>