<svg version="1.1" xmlns="http://www.w3.org/2000/svg" xmlns:xlink="http://www.w3.org/1999/xlink" width="101.38218" height="110.66871" viewBox="0,0,101.38218,110.66871"><g transform="translate(-186.68116,-128.13924)"><g data-paper-data="{&quot;isPaintingLayer&quot;:true}" stroke-miterlimit="10" stroke-dasharray="" stroke-dashoffset="0" style="mix-blend-mode: normal"><path d="M240.05693,201.12644c0.08631,0.74123 0.27366,2.12186 0.426,3.94804c0.28931,3.46796 0.45241,8.54265 -0.44234,13.89627l-0.09283,0.40172c-0.09283,0.40172 0.26153,0.80723 0.70873,0.81099c2.91056,-0.42268 8.59525,-1.00085 7.60824,4.67064c-0.89607,5.49336 -17.9558,7.89868 -19.3412,2.47552c-0.38286,-2.32883 1.01362,-3.52456 1.77915,-4.14422c0.40549,-0.35436 0.63286,-0.79968 0.77118,-1.29046c0.18943,-1.25065 0.47737,-3.57381 0.44887,-5.49714c-0.00399,-4.83012 -0.3508,-6.13001 -0.77726,-8.59336c-0.42646,-2.46336 -1.62994,-8.24277 2.90259,-10.0829c3.85985,-1.6222 5.71319,1.34515 6.00887,3.4049z" fill="#000000" fill-rule="evenodd" stroke="#ff7b00" stroke-width="2" stroke-linecap="round" stroke-linejoin="round"/><g fill="#000000" fill-rule="evenodd" stroke="#ff7b00" stroke-width="2"><path d="M224.63939,201.46131c0.83032,0.34784 2.59772,1.13623 0.37783,4.6223c-2.21988,3.48607 -9.13689,4.57242 -9.94365,4.61846c-3.12028,0.27687 -6.95236,0.49553 -11.27035,-0.64134c-12.53874,-3.23672 -13.41163,-16.13044 -9.60245,-18.42273c3.70833,-2.28653 5.90005,5.59166 11.73526,10.10016c2.54992,2.02822 5.52155,2.64908 7.97129,3.00332c3.46406,0.39516 9.79502,-3.72072 10.73207,-3.28017z" stroke-linecap="round" stroke-linejoin="round"/><path d="M199.15262,194.91243c1.77262,2.5666 5.12275,6.13004 5.12275,6.13004c0,0 -3.78428,-0.67331 -5.80183,1.12152c-1.63774,1.37792 -1.10471,3.52123 -0.86177,4.19901c-1.38759,-1.20529 -3.10719,-2.88566 -4.3219,-6.27455c-1.21471,-3.38888 -0.45378,-7.58213 1.52774,-8.28804c1.99332,-0.50897 2.58594,0.93929 4.335,3.11202z" stroke-linecap="butt" stroke-linejoin="miter"/></g><path d="M245.3598,191.969c0.48753,0.41508 6.33607,7.76533 8.43157,6.07498c2.51203,-1.9693 6.01794,-5.872 9.51012,-2.46954c3.49221,3.40246 -3.61026,8.63722 -6.60127,9.99435c-7.09647,2.76687 -12.49598,-3.28137 -13.63866,-4.90826c-1.14268,-1.62689 -3.14665,-4.37541 -3.03546,-6.93769c0.22067,-2.7552 3.68209,-3.30305 5.33368,-1.75382z" fill="#000000" fill-rule="evenodd" stroke="#ff7b00" stroke-width="2" stroke-linecap="round" stroke-linejoin="round"/><path d="M222.47807,208.18244c0.11201,-2.0496 1.70948,-5.12783 5.73914,-3.87355c4.7261,1.40924 4.03572,7.19303 3.82849,9.65065c-0.20723,2.45762 0.36904,3.76518 0.80003,8.51086c0.14454,1.89207 -0.16465,4.14913 0.13857,5.36117c0.10208,0.26164 1.00038,10.40177 -7.6755,9.96251c-7.65985,-0.38782 -1.40924,-12.082 -1.40924,-12.082c0,0 -1.47329,-10.18091 -1.49454,-13.61343c-0.01119,-1.80752 0.05298,-3.18039 0.07306,-3.9162z" data-paper-data="{&quot;index&quot;:null}" fill="#000000" fill-rule="evenodd" stroke="#ff7b00" stroke-width="2" stroke-linecap="round" stroke-linejoin="round"/><g fill="#000000" fill-rule="evenodd" stroke="#ff7b00" stroke-width="2"><path d="M226.83827,208.59049c-10.59988,-5.49475 -4.90736,-10.72384 -3.65564,-16.01677c1.25699,-4.57487 2.55075,-4.12322 8.70783,-4.65397c3.4378,-0.47111 5.46172,-0.74268 7.56571,-1.44838c3.17021,-1.01122 3.95399,3.69845 3.79275,6.31457c0,0 -0.30454,3.89075 -1.02417,6.0501c-0.89663,2.62126 -1.63309,4.37426 -2.54025,5.55937c0,0 -1.94912,2.54757 -4.19141,3.27981c-2.01558,0.65821 -8.65483,0.91527 -8.65483,0.91527z" stroke-linecap="round" stroke-linejoin="round"/><path d="M238.78371,204.55074c0,0 -1.79527,-0.71913 -3.77281,-1.69442c-2.45059,-1.14813 -4.81584,-2.01232 -3.75905,-5.50184c1.06204,-2.77145 1.7996,-6.2723 6.9863,-4.77744c4.93595,1.36113 3.80542,4.25499 3.80542,4.25499c-0.85242,4.87012 -3.25987,7.71871 -3.25987,7.71871z" stroke-linecap="butt" stroke-linejoin="miter"/></g><g fill-rule="evenodd"><path d="M255.23635,133.36884c0.3135,-0.18103 0.81239,-0.05594 0.89148,0.34337l2.03968,10.67715c0,0 6.19958,4.96967 7.93631,8.32104c2.92819,5.58739 2.78389,10.02493 2.78389,10.02493c0,0 7.04732,2.44607 7.94721,8.12406c0.89989,5.67798 -4.12675,16.08124 -23.29177,18.72541c-19.16503,2.64416 -34.11847,-3.1823 -40.65912,-14.78828c-6.54067,-11.60599 5.49765,-24.40533 4.84885,-23.64931c0,0 -0.17601,-15.75712 0.21658,-15.53884l11.24936,5.77153c0,0 4.63174,-1.43501 9.3835,-1.38197c2.83524,-0.04804 5.24521,0.27662 7.54342,0.79296z" fill="#000000" stroke="#ff7b00" stroke-width="2" stroke-linecap="butt" stroke-linejoin="miter"/><path d="M287.06334,165.17558c-4.94788,3.49274 -12.21594,3.20821 -12.21594,3.20821" fill="#000000" stroke="#ff7b00" stroke-width="2" stroke-linecap="round" stroke-linejoin="round"/><path d="M285.14186,176.13774c-6.38201,0.15733 -10.21241,-1.92152 -10.21241,-1.92152" fill="#000000" stroke="#ff7b00" stroke-width="2" stroke-linecap="round" stroke-linejoin="round"/><path d="M251.39106,164.47965c2.11825,0.11171 4.32649,0.42574 4.38923,1.12051c0.02459,1.38423 -1.64099,4.06226 -3.26035,4.07565c-1.82654,0.10123 -5.92686,-2.58454 -5.8397,-4.16044c-0.0355,-1.18725 2.69342,-1.14211 4.7108,-1.03571z" fill="#000000" stroke="#ff7b00" stroke-width="2" stroke-linecap="round" stroke-linejoin="round"/><path d="M206.08154,160.60838c0,0 8.52222,3.21532 11.88376,6.45483" fill="#000000" stroke="#ff7b00" stroke-width="2" stroke-linecap="round" stroke-linejoin="round"/><path d="M218.07723,170.52644c-4.43,1.44565 -11.83441,-0.03145 -11.83441,-0.03145" fill="#000000" stroke="#ff7b00" stroke-width="2" stroke-linecap="round" stroke-linejoin="round"/><g fill="#ff7b00" stroke="none" stroke-width="0" stroke-linecap="butt" stroke-linejoin="miter"><path d="M264.30693,159.21638c-0.05994,1.08343 -0.91591,1.92731 -1.92462,1.87412c-1.00869,-0.0532 -1.76661,-0.9822 -1.70668,-2.06562c0.05994,-1.08343 0.91591,-1.92731 1.92462,-1.87412c1.00869,0.0532 1.76661,0.9822 1.70668,2.06562"/></g><g fill="#ff7b00" stroke="none" stroke-width="0" stroke-linecap="butt" stroke-linejoin="miter"><path d="M238.67939,160.72946c-0.05994,1.08343 -0.91591,1.92731 -1.92462,1.87412c-1.00869,-0.0532 -1.76661,-0.9822 -1.70668,-2.06562c0.05994,-1.08343 0.91591,-1.92731 1.92462,-1.87412c1.00324,0.15169 1.76661,0.9822 1.70668,2.06562"/></g></g><g fill="#000000" fill-rule="nonzero" stroke="#ff7b00" stroke-width="2" stroke-linejoin="miter"><g><path d="M251.64882,203.38013l7.40971,-20.65049l11.81999,6.06257l-12.41073,17.25188c0,0 -2.58767,0.59754 -3.6888,0.16736c-1.16793,-0.45628 -3.13017,-2.83132 -3.13017,-2.83132z" stroke-linecap="butt"/><path d="M259.03379,181.18876c1.9086,-3.54794 6.40138,-4.91332 10.03489,-3.04967c3.6335,1.86365 5.03183,6.25063 3.12322,9.79855c-1.9086,3.54794 -6.40139,4.91333 -10.0349,3.04967c-3.6335,-1.86365 -5.03182,-6.25063 -3.12321,-9.79856z" stroke-linecap="butt"/><path d="M259.85547,188.62092c0,0 1.32229,-4.38303 2.31412,-6.27876c0.92697,-1.77176 3.45542,-4.74888 3.45542,-4.74888" stroke-linecap="round"/><path d="M266.04609,191.63718c0,0 1.5298,-5.47896 2.38652,-7.51511c0.63302,-1.50444 2.28896,-3.59685 2.28896,-3.59685" stroke-linecap="round"/><path d="M258.77573,181.55049c0,0 5.07046,-0.2028 7.5379,0.44547c2.14663,0.56397 6.43875,3.22655 6.43875,3.22655" stroke-linecap="round"/><path d="M258.14933,186.95111c0,0 5.58808,0.12483 8.04026,0.51594c1.90622,0.30404 5.45187,1.63604 5.45187,1.63604" stroke-linecap="round"/></g><path d="M264.44654,201.24689c-1.26558,2.36989 -4.36003,3.52383 -6.91164,2.57739c-2.55161,-0.94643 -4.14705,-3.06149 -2.88146,-5.43138c1.26558,-2.36989 4.91293,-4.09719 7.46454,-3.15075c2.55161,0.94643 3.59414,3.63484 2.32855,6.00474z" stroke-linecap="butt"/></g><g fill="#000000" fill-rule="nonzero" stroke="#ff7b00" stroke-width="2" stroke-linecap="butt" stroke-linejoin="miter"><path d="M229.6222,148.1713c-1.63246,4.22476 -22.08232,11.19329 -22.08232,11.19329c0,0 -2.89195,-0.27267 -4.25013,-0.47122c-10.17169,-1.48694 -16.85388,-5.20125 -15.41372,-8.92837c1.63246,-4.22476 13.08303,-6.86613 25.57553,-5.89966c12.4925,0.96647 17.80311,-0.11883 16.17064,4.10594z"/><path d="M214.35295,143.03952l-11.68732,-4.2152c0,0 14.91222,-5.61061 23.00632,-7.03243c9.78931,-1.71961 31.61684,-2.5628 31.61684,-2.5628l-15.01745,16.89561z"/><path d="M204.96011,160.17748c0,0 -2.58408,-7.3778 -2.9839,-10.91941c-0.38787,-3.43587 0.61971,-10.02266 0.61971,-10.02266l26.60131,-2.86328c0,0 0.19968,7.58589 0.60492,11.17547c0.38137,3.37826 1.75927,9.76659 1.75927,9.76659z" data-paper-data="{&quot;index&quot;:null}"/><path d="M231.13392,157.29568c0,0 -0.7763,-6.49993 -1.58888,-9.80475c-0.8634,-3.51156 -3.44832,-10.68203 -3.44832,-10.68203l31.8599,-7.46888c0,0 3.6117,5.77561 4.43813,9.13679c0.85187,3.46461 0.59904,11.34998 0.59904,11.34998z"/></g><path d="M224.40931,199.60834c-0.89436,3.98359 0.5868,7.93894 -1.06625,9.85371c-1.07885,1.24966 -2.70824,2.03077 -3.71902,1.8144c-1.12658,-0.24115 -2.77627,-1.93549 -3.19353,-3.8265c-0.53074,-2.40527 -2.11763,-6.13996 -1.29015,-9.8257c0.72993,-3.25125 3.9104,-6.23292 5.21378,-8.20782c1.33582,-2.02406 3.3268,-2.25804 4.62231,-1.98073c1.39866,0.29939 2.68643,1.47248 2.97046,4.17417c0.23575,2.24244 -2.86723,5.01251 -3.5376,7.99846z" fill="#000000" fill-rule="nonzero" stroke="#ff7b00" stroke-width="2" stroke-linecap="butt" stroke-linejoin="miter"/></g></g></svg>