<svg version="1.1" xmlns="http://www.w3.org/2000/svg" xmlns:xlink="http://www.w3.org/1999/xlink" width="100.08426" height="112.79164" viewBox="0,0,100.08426,112.79164"><defs><radialGradient cx="265.94045" cy="175.99021" r="7.3567" gradientUnits="userSpaceOnUse" id="color-1"><stop offset="0" stop-color="#54606d"/><stop offset="1" stop-color="#2c3136"/></radialGradient></defs><g transform="translate(-183.37759,-125.61631)"><g data-paper-data="{&quot;isPaintingLayer&quot;:true}" stroke-miterlimit="10" stroke-dasharray="" stroke-dashoffset="0" style="mix-blend-mode: normal"><path d="M240.05693,201.12644c0.08631,0.74123 0.27366,2.12186 0.426,3.94804c0.28931,3.46796 0.45241,8.54265 -0.44234,13.89627l-0.09283,0.40172c-0.09283,0.40172 0.26153,0.80723 0.70873,0.81099c2.91056,-0.42268 8.59525,-1.00085 7.60824,4.67064c-0.89607,5.49336 -17.9558,7.89868 -19.3412,2.47552c-0.38286,-2.32883 1.01362,-3.52456 1.77915,-4.14422c0.40549,-0.35436 0.63286,-0.79968 0.77118,-1.29046c0.18943,-1.25065 0.47737,-3.57381 0.44887,-5.49714c-0.00399,-4.83012 -0.3508,-6.13001 -0.77726,-8.59336c-0.42646,-2.46336 -1.62994,-8.24277 2.90259,-10.0829c3.85985,-1.6222 5.71319,1.34515 6.00887,3.4049z" fill="#ffab19" fill-rule="evenodd" stroke="#001026" stroke-width="1.2" stroke-linecap="round" stroke-linejoin="round"/><g fill-rule="evenodd"><path d="M224.7,200.85c0.8,0.4 2.5,1.3 0.1,4.7c-2.4,3.4 -9.3,4.1 -10.1,4.1c-3.1,0.1 -6.9,0.1 -11.1,-1.3c-12.2,-4 -12.3,-17.1 -8.4,-19.2c3.8,-2.1 5.5,6 11,10.9c2.4,2.2 5.3,3 7.7,3.5c3.4,0.6 9.9,-3.2 10.8,-2.7z" fill="#ffab19" stroke="#001026" stroke-width="1.2" stroke-linecap="round" stroke-linejoin="round"/><path d="M199.9,192.75c1.6,2.7 4.7,6.5 4.7,6.5c0,0 -3.7,-0.9 -5.8,0.8c-1.7,1.3 -1.3,3.5 -1.1,4.2c-1.3,-1.3 -2.9,-3.1 -3.9,-6.6c-1,-3.5 0,-7.7 2,-8.3c2,-0.4 2.5,1.1 4.1,3.4z" fill="#ffffff" stroke="none" stroke-width="1" stroke-linecap="butt" stroke-linejoin="miter"/></g><path d="M244.10793,188.98792c0.53129,0.3574 7.2043,7.0298 9.04904,5.07099c2.21863,-2.29078 5.16926,-6.64897 9.02915,-3.6571c3.85989,2.99186 -2.45511,9.13359 -5.22152,10.86765c-6.62083,3.65849 -12.68834,-1.75957 -14.0162,-3.25516c-1.32787,-1.49558 -3.64338,-4.0132 -3.85781,-6.60434c-0.13126,-2.79871 3.19943,-3.77673 5.01734,-2.42204z" fill="#ffab19" fill-rule="evenodd" stroke="#001026" stroke-width="1.2" stroke-linecap="round" stroke-linejoin="round"/><path d="M222.62793,207.77317c0.11088,-2.07791 1.69228,-5.19867 5.68139,-3.92706c4.67855,1.42871 3.99511,7.2924 3.78997,9.78397c-0.20514,2.49157 0.36532,3.8172 0.79198,8.62844c0.14309,1.91821 -0.163,4.20645 0.13718,5.43523c0.10105,0.26525 0.99032,10.54547 -7.59827,10.10014c-7.58278,-0.39318 -1.39506,-12.24891 -1.39506,-12.24891c0,0 -1.45847,-10.32156 -1.4795,-13.8015c-0.01108,-1.83249 0.05244,-3.22433 0.07232,-3.9703z" data-paper-data="{&quot;index&quot;:null}" fill="#ffab19" fill-rule="evenodd" stroke="#001026" stroke-width="1.2" stroke-linecap="round" stroke-linejoin="round"/><g fill-rule="evenodd"><path d="M227.22623,207.58094c-10.91689,-4.68629 -5.73806,-10.43431 -4.94569,-15.88427c0.85759,-4.72489 2.17174,-4.37419 8.20172,-5.41311c3.35223,-0.75666 5.32626,-1.19628 7.34298,-2.08106c3.04307,-1.28052 4.2101,3.41396 4.26975,6.07035c0,0 0.02485,3.95593 -0.50455,6.1964c-0.66542,2.72162 -1.24543,4.55291 -2.0413,5.82436c0,0 -1.70993,2.73309 -3.86088,3.65599c-1.93347,0.82958 -8.46204,1.63134 -8.46204,1.63134z" fill="#ffab19" stroke="#001026" stroke-width="1.2" stroke-linecap="round" stroke-linejoin="round"/><path d="M238.67342,202.52409c0,0 -1.83128,-0.58001 -3.8638,-1.40396c-2.51366,-0.95996 -4.91939,-1.64 -4.16856,-5.25196c0.81606,-2.88688 1.25099,-6.48421 6.493,-5.39731c4.98345,0.97225 4.11006,3.9884 4.11006,3.9884c-0.43377,4.99017 -2.57071,8.06482 -2.57071,8.06482z" fill="#ffffff" stroke="none" stroke-width="1" stroke-linecap="butt" stroke-linejoin="miter"/></g><g fill-rule="evenodd"><path d="M250.0818,130.6004c0.30271,-0.19588 0.80129,-0.08906 0.89582,0.31227l2.45352,10.73453c0,0 6.33517,4.78703 8.18989,8.11269c3.12453,5.54322 3.16302,10.04417 3.16302,10.04417c0,0 7.07064,2.19684 8.19262,7.91271c1.12199,5.71587 -3.42521,16.45472 -22.27402,19.89744c-18.84881,3.44272 -33.8777,-1.86318 -40.82123,-13.35915c-6.94353,-11.49597 4.44129,-24.94163 3.83041,-24.14991c0,0 -0.81756,-15.95481 -0.42033,-15.74937l11.36283,5.39795c0,0 4.52281,-1.63834 9.22511,-1.77409c2.80247,-0.16171 5.19951,0.07107 7.49383,0.50246z" fill="#ffab19" stroke="#001026" stroke-width="1.2" stroke-linecap="butt" stroke-linejoin="miter"/><path d="M264.47861,160.19992c0,0 6.87476,1.89413 7.99674,7.61c1.12199,5.71587 -3.81834,15.9493 -22.4658,19.29476c-24.26607,4.66879 -35.5682,-9.88703 -28.72395,-20.39447c6.84561,-10.60743 18.22017,-1.35111 26.62758,-1.83625c7.20616,-0.40155 8.09219,-6.69003 16.56543,-4.67404z" fill="#ffffff" stroke="none" stroke-width="1" stroke-linecap="butt" stroke-linejoin="miter"/><path d="M282.86185,161.55129c-4.7515,3.73541 -11.95219,3.737 -11.95219,3.737" fill="none" stroke="#001026" stroke-width="1.2" stroke-linecap="round" stroke-linejoin="round"/><path d="M281.40891,172.73248c-6.30625,0.41385 -10.17991,-1.53927 -10.17991,-1.53927" fill="none" stroke="#001026" stroke-width="1.2" stroke-linecap="round" stroke-linejoin="round"/><path d="M247.54875,162.26874c2.0998,0.0287 4.29687,0.25875 4.38729,0.96005c0.08086,1.40124 -1.45727,4.18047 -3.05849,4.2586c-1.80257,0.17538 -5.96801,-2.38179 -5.94614,-3.98164c-0.08359,-1.20125 2.61752,-1.26434 4.61734,-1.23701z" fill="#001026" stroke="#001026" stroke-width="1.2" stroke-linecap="round" stroke-linejoin="round"/><path d="M202.57345,160.15386c0,0 8.56093,2.91727 12.01823,6.06482" fill="none" stroke="#001026" stroke-width="1.2" stroke-linecap="round" stroke-linejoin="round"/><path d="M214.84383,169.72246c-4.32283,1.64107 -11.70711,0.44004 -11.70711,0.44004" fill="none" stroke="#001026" stroke-width="1.2" stroke-linecap="round" stroke-linejoin="round"/><g><path d="M259.50755,150.7311c2.83823,4.53921 2.86852,9.6401 0.04418,11.40167c-2.82434,1.76156 -7.39521,-0.40111 -10.33343,-4.94169c-2.83823,-4.53921 -2.86852,-9.6401 -0.04418,-11.40167c2.82571,-1.86156 7.4952,0.40247 10.33343,4.94169z" fill="#ffffff" stroke="#001026" stroke-width="1.2" stroke-linecap="round" stroke-linejoin="round"/><path d="M259.77962,156.43535c-0.01503,1.0999 -0.82726,1.98888 -1.82717,1.97521c-0.99991,-0.01367 -1.78753,-0.92452 -1.7725,-2.02441c0.01503,-1.0999 0.82726,-1.98888 1.82717,-1.97521c0.99991,0.01367 1.78753,0.92452 1.7725,2.02441" fill="#001026" stroke="none" stroke-width="1" stroke-linecap="butt" stroke-linejoin="miter"/></g><g><path d="M234.6716,153.1919c2.93959,4.44059 2.6658,9.83735 -0.05991,11.70027c-3.32566,1.85472 -7.70611,0.39472 -10.6457,-4.04587c-3.03958,-4.44196 -3.16166,-10.14416 -0.03188,-12.30158c3.13114,-2.25742 7.7979,0.20659 10.73749,4.64718z" fill="#ffffff" stroke="#001026" stroke-width="1.2" stroke-linecap="round" stroke-linejoin="round"/><path d="M234.49234,158.98999c-0.01503,1.0999 -0.82726,1.98888 -1.82717,1.97521c-0.99991,-0.01367 -1.78753,-0.92452 -1.7725,-2.02441c0.01503,-1.0999 0.82726,-1.98888 1.82717,-1.97521c0.99854,0.11366 1.78753,0.92452 1.7725,2.02441" fill="#001026" stroke="none" stroke-width="1" stroke-linecap="butt" stroke-linejoin="miter"/></g></g><g fill-rule="nonzero" stroke="#001026" stroke-width="1.2" stroke-linejoin="miter"><g><path d="M251.72652,199.69088l4.6696,-21.68653l12.37566,4.64059l-10.01101,18.88463c0,0 -2.4662,0.92023 -3.60209,0.62331c-1.20481,-0.31493 -3.43217,-2.462 -3.43217,-2.462z" fill="#505a63" stroke-linecap="butt"/><path d="M256.17719,176.4574c1.42653,-3.80433 5.66699,-5.73191 9.47131,-4.30538c3.80433,1.42653 5.73191,5.667 4.30538,9.47131c-1.42653,3.80433 -5.667,5.73192 -9.47132,4.30538c-3.80433,-1.42653 -5.7319,-5.667 -4.30537,-9.47133z" fill="url(#color-1)" stroke-linecap="butt"/><path d="M257.92304,183.83218c0,0 0.74516,-4.57204 1.4799,-6.60132c0.6867,-1.89657 2.79416,-5.20315 2.79416,-5.20315" fill="none" stroke-linecap="round"/><path d="M264.3846,186.10275c0,0 0.81054,-5.70004 1.39485,-7.85391c0.43174,-1.59141 1.79395,-3.90044 1.79395,-3.90044" fill="none" stroke-linecap="round"/><path d="M255.96942,176.8531c0,0 4.95472,-0.82937 7.46017,-0.4816c2.17971,0.30255 6.73184,2.4515 6.73184,2.4515" fill="none" stroke-linecap="round"/><path d="M256.03632,182.36291c0,0 5.50452,-0.56365 7.96252,-0.47267c1.91074,0.07073 5.56161,0.9733 5.56161,0.9733" fill="none" stroke-linecap="round"/></g><path d="M264.0273,195.9666c-0.94375,2.54 -3.83743,4.08242 -6.46324,3.4451c-2.62581,-0.63732 -4.46003,-2.56811 -3.51628,-5.10812c0.94375,-2.54 4.30808,-4.72737 6.93388,-4.09004c2.62581,0.63732 3.98937,3.21305 3.04563,5.75306z" fill="#ffab19" stroke-linecap="butt"/></g><g fill-rule="nonzero" stroke="#001026" stroke-width="1.2" stroke-linecap="butt" stroke-linejoin="miter"><path d="M225.35045,146.61653c-1.4422,4.34475 -21.3853,12.21923 -21.3853,12.21923c0,0 -2.87167,-0.1609 -4.22319,-0.30787c-10.12188,-1.10066 -16.88315,-4.59678 -15.61084,-8.42974c1.4422,-4.34475 12.66048,-7.47701 25.05671,-6.99611c12.39624,0.48089 17.60481,-0.83026 16.16261,3.51448z" fill="#00b0f7"/><path d="M210.03754,142.02692l-11.73246,-3.80393c0,0 14.52107,-6.27812 22.46916,-8.04117c9.61272,-2.1323 31.16864,-3.8568 31.16864,-3.8568l-14.16432,17.71393z" fill="#ff2b2b"/><path d="M201.44661,159.76209c0,0 -2.85728,-7.37061 -3.39739,-10.94229c-0.52397,-3.46504 0.20369,-10.17759 0.20369,-10.17759l26.19535,-3.9612c0,0 0.50729,7.67648 1.05472,11.29655c0.51519,3.40694 2.13898,9.82332 2.13898,9.82332z" data-paper-data="{&quot;index&quot;:null}" fill="#cc0000"/><path d="M227.21834,155.79917c0,0 -1.0333,-6.55342 -1.972,-9.86877c-0.99742,-3.52275 -3.84705,-10.68332 -3.84705,-10.68332l31.20872,-8.83632c0,0 3.80831,5.70664 4.76302,9.07852c0.98409,3.47565 1.05602,11.47355 1.05602,11.47355z" fill="#f70000"/></g><path d="M224.0789,198.70403c-0.54926,4.09788 1.2427,7.97329 -0.22805,10.04286c-0.95987,1.35068 -2.50206,2.27291 -3.51736,2.13683c-1.13161,-0.15167 -2.9008,-1.72889 -3.47056,-3.60542c-0.72472,-2.38686 -2.60254,-6.03069 -2.09435,-9.82218c0.44829,-3.34453 3.33672,-6.61675 4.45748,-8.71852c1.14864,-2.15409 3.09332,-2.55304 4.3946,-2.37862c1.4049,0.18831 2.77346,1.26841 3.27956,3.97491c0.42008,2.24643 -2.40961,5.29853 -2.82132,8.37015z" fill="#ffab19" fill-rule="nonzero" stroke="#001026" stroke-width="1.2" stroke-linecap="butt" stroke-linejoin="miter"/><path d="M251.98854,177.67968c0,0 -6.11578,0.97624 -8.64165,0.28745c-2.61874,-0.71412 -6.80224,-4.49892 -6.80224,-4.49892" fill="none" fill-rule="nonzero" stroke="#001026" stroke-width="1.2" stroke-linecap="round" stroke-linejoin="miter"/></g></g></svg>