<svg version="1.1" xmlns="http://www.w3.org/2000/svg" xmlns:xlink="http://www.w3.org/1999/xlink" width="122.2286" height="145.26989" viewBox="0,0,122.2286,145.26989"><defs><radialGradient cx="280.93906" cy="195.09423" r="31.53741" gradientUnits="userSpaceOnUse" id="color-1"><stop offset="0" stop-color="#001026" stop-opacity="0.70588"/><stop offset="1" stop-color="#001026" stop-opacity="0.87843"/></radialGradient></defs><g transform="translate(-199.81205,-118.92891)"><g data-paper-data="{&quot;isPaintingLayer&quot;:true}" fill-rule="nonzero" stroke-width="2" stroke-linejoin="miter" stroke-miterlimit="10" stroke-dasharray="" stroke-dashoffset="0" style="mix-blend-mode: normal"><g stroke-linecap="round"><path d="M251.51888,217.88148c0,0 -11.9102,22.4258 -25.93406,26.26508c-12.71254,3.48029 -22.57305,-4.67284 -24.44014,-15.84665c-2.41719,-14.46609 8.93152,-22.6087 14.90425,-15.5282c5.97989,7.08898 4.29352,18.05178 10.75086,18.98201c6.45737,0.93024 24.71906,-13.87223 24.71906,-13.87223z" fill="#6b542b" stroke="none"/><path d="M216.89024,230.41195c-3.16073,1.99766 -8.6094,9.07922 -2.01701,12.0624c7.09314,3.20979 17.9801,-0.31766 10.71159,1.67221c-12.71254,3.48029 -22.57304,-4.67284 -24.44013,-15.84665c-2.41719,-14.46609 8.93152,-22.6087 14.90425,-15.5282c5.97989,7.08898 2.76787,16.61158 9.22524,17.54183c3.03998,0.43793 1.39979,2.30511 -0.03103,1.26903c-1.60847,-1.1647 -4.12907,-3.84019 -8.3529,-1.17061z" fill="#dac3a1" stroke="none"/><path d="M251.51888,217.88148c0,0 -11.91018,22.4258 -25.93406,26.26508c-12.71254,3.48029 -22.57305,-4.67284 -24.44014,-15.84665c-2.41719,-14.46609 8.93152,-22.6087 14.90426,-15.5282c5.97989,7.08898 4.37521,17.70505 10.83258,18.63528c6.45737,0.93024 24.63736,-13.52551 24.63736,-13.52551z" fill="none" stroke="#001026"/></g><g stroke="#001026"><g><path d="M303.57248,209.58527c-3.10485,3.35061 -8.69991,3.327 -12.49695,-0.05273c-3.79703,-3.37974 -4.35815,-8.83578 -1.25332,-12.18639c3.10485,-3.35061 8.69992,-3.32699 12.49696,0.05273c3.79703,3.37974 4.35814,8.83577 1.25331,12.18638z" fill="#475362" stroke-linecap="butt"/><path d="M289.63251,205.44858c0,0 1.32,-7.30077 7.78551,-10.3762" fill="none" stroke-linecap="round"/><path d="M291.63446,209.77554c0,0 4.16934,-6.65109 10.55546,-12.23718" fill="none" stroke-linecap="round"/><path d="M305.16653,202.22385c-3.86476,6.69763 -8.97335,8.55539 -8.97335,8.55539" fill="none" stroke-linecap="round"/><path d="M290.495,198.93176c0,0 9.05185,1.36266 12.08493,10.94356" fill="none" stroke-linecap="round"/><path d="M292.43101,196.11449c0,0 9.72457,0.91792 12.08493,10.94356" fill="none" stroke-linecap="round"/><path d="M287.23607,201.88453c0,0 7.61459,0.50546 11.35475,10.03914" fill="none" stroke-linecap="round"/></g><path d="M258.21357,192.37015c3.06119,-0.80322 4.82237,4.38766 7.29563,8.0726c2.47325,3.68494 4.48249,9.20625 4.48249,9.20625c0,0 5.39684,-1.88131 7.57882,-4.58094c2.42735,-3.00322 5.82919,-0.80349 8.65211,-1.63181c5.21119,-1.5291 4.20784,5.25882 4.20784,5.25882c0,0 -0.50372,2.25994 -0.85065,2.73731c-0.5868,0.80744 -2.34645,1.66186 -2.34645,1.66186c0,0 2.50468,-1.13628 3.29911,-1.79064c0.33918,-0.27939 1.4096,-2.08783 1.4096,-2.08783c0,0 2.80153,-1.27248 4.16953,1.11171c1.36799,2.38419 3.43634,4.43209 1.39339,6.59541c-0.88606,0.93827 -4.12026,3.52292 -6.06867,5.7069c-2.54396,2.85154 -4.25427,5.23833 -9.47687,4.60253c-4.90161,-0.59673 -8.07086,-2.59414 -8.07086,-2.59414c0,0 -9.94798,-4.9463 -10.76769,-7.90948c-1.85706,-6.71311 -1.62466,-7.50989 -5.57517,-17.12365" fill="#422b16" stroke-linecap="round"/></g><path d="M260.26308,205.74091c16.30375,5.32924 13.1685,25.20075 13.1685,25.20075c0,0 6.28894,-0.8305 11.92004,1.21188c7.45928,2.70547 3.68719,10.97126 -8.47476,10.83411c-10.63731,-0.11997 -19.93775,0.86038 -17.75724,-13.171c1.98534,-12.77549 -5.98977,-12.34944 -5.98977,-12.34944" fill="#422b16" stroke="#001026" stroke-linecap="round"/><g><g><path d="M260.56072,204.01592c0,0 2.20264,2.39744 2.94567,7.45037c-0.01705,7.54012 -13.5339,12.23486 -20.21061,3.20446c-6.67671,-9.03041 -1.05148,-20.34572 4.33669,-23.71298c5.38817,-3.36726 13.236,0.64371 13.58283,4.40613c0.36892,4.00209 -0.65459,8.65203 -0.65459,8.65203z" fill="#6b542b" stroke="none" stroke-linecap="round"/><path d="M259.72893,204.38355c-0.04792,0.62172 -0.07871,0.76636 -0.07871,0.76636c0,0 0.66778,1.25091 1.4855,2.15621c3.36563,3.72601 -3.92907,9.5748 -9.26192,7.49191c-4.02948,-1.57382 -6.42331,-6.26813 -5.72771,-10.89515c0.98888,-6.57796 14.56472,-12.2586 13.58283,0.48068z" fill="#dac3a1" stroke="none" stroke-linecap="butt"/><path d="M260.06977,204.97726c0,0 2.84643,1.54515 2.94567,6.64925c0.14659,7.54012 -12.6472,12.06593 -19.55601,3.20446c-5.69762,-7.30795 -1.69483,-21.63118 4.02063,-23.39621c6.09617,-1.88261 13.06113,2.08938 13.40794,5.8518c0.36892,4.00209 -0.81825,7.69069 -0.81825,7.69069z" fill="none" stroke="#001026" stroke-linecap="round"/></g><path d="M255.7204,184.32071c0,0.93754 1.82352,3.63225 2.44867,4.14646c0.03721,0.03061 0.07405,0.06175 0.11052,0.09343c0.30073,0.38156 0.61288,0.72088 0.91971,0.9898c0.8181,1.06054 1.42688,2.35367 1.9883,3.453c0.12129,0.23751 0.22151,0.80387 0.33625,0.97707c1.64546,2.48398 -0.8534,-0.17102 -2.10553,-1.08923l0.07994,-0.15655l-0.32361,-0.15843c-0.02844,-0.01466 -0.06081,-0.02294 -0.09517,-0.02294c-0.11298,0 -0.20455,0.08966 -0.20455,0.20028c0,0.03361 0.00846,0.0653 0.02342,0.09312l0.16831,0.32981c0.20815,0.41495 0.37912,1.17453 0.64915,1.81604c-0.18155,-0.16091 -0.36402,-0.32028 -0.55416,-0.47114l0.02449,-0.02398l-0.28929,-0.28324c-0.03701,-0.03626 -0.08815,-0.05866 -0.14465,-0.05866c-0.11298,0 -0.20456,0.08966 -0.20456,0.20028v0v0.32045h0.00012l-0.00012,0.00051c0.00144,0.25887 -0.00032,0.91759 0.04484,1.53789c-0.46813,-1.09937 -0.90807,-2.24778 -1.64708,-3.21748l0.02597,-0.01272l-0.16167,-0.31655c-0.0328,-0.06775 -0.10328,-0.11459 -0.18494,-0.11459c-0.11298,0 -0.20456,0.08966 -0.20456,0.20028v0v0.32045h0.01794l-0.01246,0.04601c0.22259,0.43586 0.13488,0.88414 0.1581,1.34544c-0.01395,-0.02971 -0.02723,-0.0592 -0.03988,-0.08844c-0.12087,-0.50644 -0.2559,-0.93758 -0.38488,-1.2199l-0.0058,-0.00142l0.00411,-0.002l-0.00452,-0.00886l0.00033,-0.00016l-0.16167,-0.31656c-0.0328,-0.06775 -0.10328,-0.11459 -0.18495,-0.11459c-0.11298,0 -0.20455,0.08966 -0.20455,0.20028c0,0.03356 0.00843,0.0652 0.02334,0.093l0.16464,0.32322c0.01878,0.04024 0.0365,0.08114 0.05325,0.12267c0.01677,0.24149 0.10431,0.53003 0.20387,0.78905c0.12339,0.82971 0.0489,1.78074 0.08962,2.65c-0.79179,-1.7565 -1.96693,-3.68906 -3.35479,-4.76319l0.02659,-0.0279l-0.29873,-0.27294c-0.03658,-0.03361 -0.0858,-0.05419 -0.13994,-0.05419c-0.11269,0 -0.20407,0.08919 -0.20455,0.19939l-0.00204,0.39924c-0.03628,1.70663 -0.18733,1.11632 -0.89981,0.30332l0.03083,-0.02012l-0.22517,-0.3307c-0.03643,-0.05522 -0.09983,-0.09176 -0.17197,-0.09176c-0.11298,0 -0.20456,0.08966 -0.20456,0.20028c0,0 0,0.20191 0,0.28519c-0.19947,0.40247 -0.47895,2.08609 -0.83329,2.23779c-0.09234,0.03954 -0.40412,-1.10567 -0.4342,-1.18995c-0.13835,-0.3877 -0.35785,-0.75849 -0.62015,-1.08825l0.03462,-0.02259l-0.22518,-0.3307c-0.03642,-0.05522 -0.09982,-0.09176 -0.17196,-0.09176c-0.02328,0 -0.04565,0.00381 -0.06649,0.01082c0.17072,-0.71591 0.35831,-1.51689 0.24051,-1.67829c-0.27787,-0.3807 -0.99444,0.12291 -1.24732,0.24657c-0.68185,0.33344 -1.5198,0.4776 -2.21722,0.79082c0.4048,-0.52665 0.84453,-1.133 0.87385,-1.52886c0.00611,-0.01053 0.01231,-0.02102 0.01857,-0.03149c0.05266,0.02742 0.107,0.02742 0.107,0.02742h0.32731c0.63154,0 -0.62928,-0.28619 -0.02723,-0.32633c1.99987,-0.88452 1.25721,-4.80025 2.23489,-5.44791c1.38593,-0.32355 5.39435,-2.82006 5.32901,-2.35994z" fill="#001026" stroke="none" stroke-linecap="butt"/></g><path d="M254.52935,218.90147c3.08987,13.0303 -8.99119,21.72771 -8.99119,21.72771c0,0 1.98109,2.08045 7.43229,8.97249c7.78266,9.83973 -4.72184,15.7162 -14.4515,12.88477c-5.1403,-1.49587 -7.16766,-6.36299 -8.17606,-8.24286c-2.51903,-4.69604 -2.56551,-10.25977 -2.15476,-13.36547c1.96374,-14.84773 12.6025,-6.35517 12.67424,-31.47005" fill="#6b542b" stroke="#001026" stroke-linecap="round"/><path d="M243.56659,197.31688c0,0 -7.26314,0.20429 -8.98677,4.68969c-1.72364,4.48539 3.25085,13.93277 3.25085,13.93277c0,0 6.01216,4.59289 5.97855,7.43208c-0.03363,2.8392 0.04453,7.39831 -2.49773,7.75729c-2.54226,0.35898 -7.50006,-2.60315 -7.50493,-4.42992c-0.0043,-1.6094 1.17989,-3.68422 1.17989,-3.68422l-1.01295,-0.77145l-4.0885,0.92799l-1.32987,6.01437c0,0 2.86123,1.51927 4.2974,4.68025c1.39959,3.08048 1.41163,6.95364 -3.04293,5.63583c-5.95119,-1.76056 -10.15072,-3.35618 -10.88569,-6.33953c-1.24132,-5.03855 1.1658,-12.08752 1.1658,-12.08752l-4.13334,1.39291c0,0 0.60245,1.00114 0.47284,5.46308c-0.15901,5.47456 -8.46348,5.30901 -9.53644,0.40247c-1.22802,-5.61557 -2.46493,-12.75937 1.30031,-13.48222c2.3816,-0.45721 8.81697,-3.30859 8.81697,-3.30859c0,0 1.47492,-9.04047 6.21662,-13.70996c4.74169,-4.6695 16.31445,-8.76805 20.60349,-7.96197c3.70114,0.6956 4.75456,2.26248 4.75456,2.26248" fill="#6b542b" stroke="#001026" stroke-linecap="round"/><g><g fill="none" stroke="#001026" stroke-linecap="round"><path d="M308.98552,177.78564l12.05513,-2.85081"/><path d="M320.87738,165.1004l-9.63786,9.15008"/></g><path d="M269.55877,134.86193l20.16932,-13.70675c0,0 17.62499,21.02524 21.01806,42.93722" fill="#422b16" stroke="#001026" stroke-linecap="round"/><g stroke-linecap="butt"><path d="M235.76982,169.65121c-0.63384,-18.02643 14.19084,-34.5741 34.76689,-35.79887c20.37018,-1.21251 35.30167,6.73202 40.96697,31.24386c0.09074,0.39255 5.00208,-0.87717 5.06706,5.39913c0.04796,4.63263 -3.55134,8.52853 -6.08275,11.90135c-6.73814,8.97778 -18.86236,13.63421 -31.98861,13.98245c-20.40794,0.54143 -42.0957,-8.7015 -42.72955,-26.72792z" fill="#6b542b" stroke="none"/><path d="M286.99431,173.86449c0,0 12.37996,-7.65134 22.59971,-8.43477c0.09074,0.39255 8.74283,-1.198 8.80782,5.07832c-0.03325,3.38946 -7.07261,9.19792 -9.4478,12.23865c-7.03957,9.01209 -14.91561,24.72334 -28.41757,25.08156c-8.35802,0.22175 -16.64662,-7.61362 -23.59817,-13.35684c-10.02216,-8.28011 -16.52188,-16.1403 -10.19152,-22.28285c0.41195,-0.39973 0.50906,0.51564 0.23399,-0.39841c-1.10749,-3.67997 3.47351,-7.35071 7.3858,-2.3555c0.39266,0.50135 1.31284,-0.11553 1.99794,-0.14634c12.40336,-0.55777 30.6298,4.57614 30.6298,4.57614z" fill="#dac3a1" stroke="none"/><path d="M235.76982,169.65121c-0.63384,-18.02643 14.19084,-34.5741 34.76689,-35.79887c20.37018,-1.21251 35.30167,6.73202 40.96697,31.24386c0.09074,0.39255 5.94135,-2.75404 6.32788,4.8947c0.24565,4.86092 -10.40287,15.48932 -15.7828,22.06163c-7.12713,8.70677 -12.46732,15.49872 -22.66093,15.64861c-9.29127,0.58263 -18.67228,-9.24873 -26.85916,-15.6375c-9.75992,-7.61632 -16.41415,-12.6092 -16.75885,-22.41241z" fill="none" stroke="#001026"/></g><path d="M292.32088,167.52886c1.54713,3.51305 -3.61949,5.95792 -6.16282,6.0254c-0.76334,0.02026 -6.2655,-0.63 -7.28679,-1.78518c-2.38153,-2.69371 -0.38541,-7.22453 -0.44703,-8.97702c-0.08805,-2.50405 1.8746,3.0029 5.59818,0.22965c2.1305,-1.58676 3.78002,-5.75281 8.29847,4.50716z" fill="#4c3015" stroke="none" stroke-linecap="butt"/><path d="M236.10048,172.1973c-5.24365,-23.4174 18.42207,-51.96904 18.42207,-51.96904l22.57195,13.54407" fill="#6b542b" stroke="#001026" stroke-linecap="round"/><path d="M282.40831,174.03334c-0.52706,-1.9355 9.0388,-2.27321 9.0313,-0.46605c-0.00159,0.38493 -1.64983,3.633 -3.45832,3.75292c-1.81508,0.12035 -5.15585,-1.75507 -5.57299,-3.28687z" fill="#001026" stroke="none" stroke-linecap="round"/><g fill="none" stroke="#001026" stroke-linecap="round"><path d="M246.69714,173.07473l-17.36676,-7.40265"/><path d="M230.55982,176.41672l15.06725,0.52385"/></g><path d="M300.99976,188.30171c-6.48398,6.14391 -10.46506,15.35609 -20.48845,15.25418c-9.69376,-0.09856 -12.48813,-4.30792 -21.08859,-14.45589c-8.62175,-10.17309 -9.63018,-18.84756 -9.63018,-18.84756c11.18954,18.99588 55.28571,18.858 63.10339,0.09689c0,0 -1.00871,7.63592 -11.89619,17.95238z" fill="#001026" stroke="none" stroke-linecap="round"/><path d="M246.78513,170.36562c-0.07032,-1.99977 2.11377,-3.69693 4.01609,-3.42694c1.97836,0.2808 3.64903,2.55542 3.64903,2.55542c0,0 -1.68031,-1.66543 -2.88455,-2.18664c-1.02393,-0.44317 -2.1246,-0.12801 -3.0883,0.55562c-2.66307,1.88915 -0.917,5.65421 -0.917,5.65421c0,0 -0.74018,-2.15437 -0.77526,-3.15169z" fill="#001026" stroke="none" stroke-linecap="butt"/><path d="M281.53226,166.90146c0.2738,7.78668 -6.34335,7.73655 -11.94975,7.88528c-5.60641,0.14874 -13.48488,-0.22132 -13.75866,-8.008c-0.2738,-7.78668 5.62417,-14.75287 11.23059,-14.9016c10.07987,-0.26742 14.20404,7.23763 14.47783,15.02431z" fill="#001026" stroke="#001026" stroke-linecap="butt"/><path d="M302.45857,172.35395c-4.3789,0.80093 -11.09934,1.46099 -12.10789,-6.34895c-1.00854,-7.80995 2.88903,-13.46558 7.26794,-14.2665c7.87291,-1.44002 10.90587,3.17426 12.81709,10.83126c1.04453,4.18472 -3.59822,8.98326 -7.97712,9.78419z" fill="#001026" stroke="#001026" stroke-linecap="butt"/><path d="M257.61267,188.3934c3.1046,3.3808 6.34006,7.9029 5.82661,7.34144c-3.19807,-3.49722 -9.70471,-11.46743 -9.8092,-11.58652c0.02247,-0.08248 2.19871,2.30251 3.98257,4.24509z" fill="#001026" stroke="none" stroke-linecap="butt"/><path d="M286.77029,177.81087c0.04718,-0.22349 0.54722,0.2008 1.31428,0.02213c0.98569,-0.22959 2.31491,-1.11894 2.31491,-1.11894c0,0 -0.80759,0.762 -2.07442,1.29225c-1.26684,0.53025 -1.02689,0.02624 -1.13056,0.39088c-0.09887,0.34772 -0.36889,1.08815 -0.32853,1.64713c0.09162,1.26908 0.68311,2.505 0.68311,2.505c0,0 -0.76866,-1.5237 -0.7955,-2.28704c-0.04475,-1.27283 -0.19754,-1.43652 0.01671,-2.45144z" fill="#001026" stroke="none" stroke-linecap="butt"/><path d="M306.30095,183.81958c-0.10579,0.11672 -6.69974,7.93921 -9.93607,11.36386c-0.51958,0.54981 2.76546,-3.89875 5.90706,-7.20911c1.80512,-1.90209 4.00743,-4.2377 4.02902,-4.15473z" fill="#001026" stroke="none" stroke-linecap="butt"/><path d="M249.15053,168.68212c1.13462,-1.0204 3.64963,1.84321 3.64963,1.84321c0,0 -2.23054,-2.58566 -3.25038,-1.66847c-1.01985,0.91717 -0.74364,3.65358 -0.74364,3.65358c0,0 -0.79022,-2.8079 0.34438,-3.8283z" fill="#001026" stroke="none" stroke-linecap="butt"/><path d="M275.04596,160.17382c0,0 0.55815,3.36674 0.68427,6.95368c0.12612,3.58693 -0.22753,6.03572 -0.22753,6.03572c0,0 -0.77161,-2.50848 -0.89773,-6.09542c-0.12612,-3.58693 0.44098,-6.89398 0.44098,-6.89398z" fill="#006aff" stroke="none" stroke-linecap="butt"/><path d="M303.52038,165.3552c0.12612,3.58693 -0.4678,6.13165 -0.4678,6.13165c0,0 -0.52505,-2.42549 -0.65117,-6.01241c-0.12612,-3.58693 0.19443,-6.97699 0.19443,-6.97699c0,0 0.79841,3.27082 0.92454,6.85775z" fill="#006aff" stroke="none" stroke-linecap="butt"/><g fill="#0062ea" stroke="none" stroke-linecap="butt"><path d="M272.37407,194.04193c-0.33245,0.12708 -0.73079,-0.35138 -0.88974,-1.06869c-0.15893,-0.71731 0.50974,-1.95581 0.50974,-1.95581c0,0 0.51629,1.02038 0.67525,1.73769c0.18291,0.82552 0.03722,1.15975 -0.29525,1.28682z"/><path d="M273.80344,195.05384c-0.4283,0.23642 -0.95186,-0.13131 -1.16938,-0.82134c-0.2175,-0.69003 0.6279,-2.18011 0.6279,-2.18011c0,0 0.68511,0.88971 0.90264,1.57974c0.25032,0.79417 0.06716,1.18529 -0.36115,1.42171z"/><path d="M275.3066,195.44719c-0.48128,0.16269 -0.98698,-0.2917 -1.12955,-1.01488c-0.14258,-0.72317 0.53205,-2.05817 0.53205,-2.05817c0,0 0.79488,0.93505 1.15695,1.72002c0.34667,0.75154 -0.0782,1.19033 -0.55943,1.35303z"/><path d="M277.35762,196.36782c-0.50358,0.3394 -1.11774,0.07318 -1.37168,-0.59462c-0.25396,-0.66782 0.33971,-3.74991 0.33971,-3.74991c0,0 0.67477,1.95385 1.4593,2.79061c0.52528,0.56024 0.07629,1.21451 -0.42733,1.55391z"/><path d="M279.41338,196.76017c-0.42598,0.33189 -0.97795,-0.05099 -1.23282,-0.85519c-0.25486,-0.8042 0.53732,-2.68818 0.53732,-2.68818c0,0 0.36174,1.18357 0.99657,1.79575c0.59225,0.57112 0.12492,1.41572 -0.30107,1.74762z"/><path d="M280.36516,195.10006c0.40687,-0.76154 0.90495,-1.967 0.90495,-1.967c0,0 1.04763,1.69776 0.85037,2.54053c-0.19724,0.84277 -0.75907,1.32977 -1.25489,1.0877c-0.49582,-0.24208 -0.94545,-0.8283 -0.50044,-1.6612z"/><path d="M287.33647,192.99117c0.0889,-0.7345 0.50358,-1.81957 0.50358,-1.81957c0,0 0.78335,1.13766 0.69446,1.87218c-0.0889,0.7345 -0.43855,1.26494 -0.78101,1.18475c-0.34245,-0.0802 -0.51932,-0.39202 -0.41704,-1.23735z"/><path d="M285.73123,193.37747c0.18807,-0.69847 0.83493,-1.6159 0.83493,-1.6159c0,0 0.90778,1.45361 0.7197,2.15208c-0.18807,0.69847 -0.6956,1.08766 -1.13354,0.86924c-0.43796,-0.2184 -0.63753,-0.60157 -0.42106,-1.40541z"/><path d="M284.10358,194.20797c0.17015,-0.70696 0.81792,-1.64264 0.81792,-1.64264c0,0 1.02486,1.44824 0.85471,2.1552c-0.17013,0.70696 -0.69235,1.10801 -1.16641,0.89576c-0.47405,-0.21224 -0.70203,-0.5947 -0.50622,-1.40833z"/><path d="M282.2147,195.1451c0.66103,-0.98773 1.06373,-3.05411 1.06373,-3.05411c0,0 0.9996,2.9157 0.83896,3.62681c-0.16062,0.7111 -0.73035,1.10095 -1.27249,0.87077c-0.54215,-0.23018 -1.07279,-0.78214 -0.63021,-1.44346z"/></g><g fill="#006aff" stroke="none" stroke-linecap="butt"><path d="M268.73789,188.12381c0.0088,0.83175 -0.337,2.13834 -0.337,2.13834c0,0 -1.1798,-1.03524 -1.18859,-1.86699c-0.0088,-0.83175 0.34629,-1.51088 0.79316,-1.51683c0.44681,-0.00595 0.72234,0.28821 0.73247,1.24545z"/><path d="M270.27705,189.02377c0.00882,0.83175 -0.36247,2.1387 -0.36247,2.1387c0,0 -1.26245,-1.03413 -1.27123,-1.86588c-0.00882,-0.83175 0.37192,-1.51122 0.85036,-1.51759c0.47846,-0.00637 0.77321,0.28752 0.78334,1.24478z"/><path d="M272.49297,189.60791c0.00882,0.83175 -0.49391,2.14043 -0.49391,2.14043c0,0 -1.68971,-1.02843 -1.69851,-1.86018c-0.00882,-0.83175 0.50432,-1.51298 1.14614,-1.52151c0.64181,-0.00852 1.03613,0.284 1.04627,1.24126z"/><path d="M274.92395,190.03578c0.00882,0.83175 -0.53002,2.1409 -0.53002,2.1409c0,0 -1.8071,-1.02686 -1.81588,-1.85863c-0.0088,-0.83175 0.54073,-1.51345 1.22742,-1.52261c0.68669,-0.00915 1.10837,0.28305 1.11849,1.24031z"/><path d="M277.48582,190.42318c-0.55574,1.36298 -0.43569,3.74942 -0.43569,3.74942c0,0 -2.22087,-2.62367 -2.2333,-3.45538c-0.01244,-0.83171 0.61099,-1.51615 1.39247,-1.52875c0.78149,-0.01259 1.64866,0.32214 1.27656,1.23469z"/><path d="M279.36879,191.10518c-0.5101,1.10772 -0.47884,2.56496 -0.47884,2.56496c0,0 -1.65761,-1.23801 -1.66816,-2.23532c-0.01055,-0.9973 0.49052,-1.81257 1.11923,-1.82094c0.62871,-0.00836 1.50366,0.4579 1.02776,1.49134z"/><path d="M282.89818,189.46038c0.64662,-0.06261 1.23001,0.69231 1.30299,1.68617c0.07299,0.99387 -1.52599,2.41326 -1.52599,2.41326c0,0 -0.36536,-1.50872 -0.70759,-2.499c-0.37432,-1.08315 0.28397,-1.5378 0.93061,-1.60041z"/><path d="M293.26177,186.36926c0.44683,-0.00595 0.81621,0.66351 0.825,1.49526c0.00882,0.83175 -1.14875,1.89814 -1.14875,1.89814c0,0 -0.37336,-1.29701 -0.38217,-2.12877c-0.01013,-0.95726 0.25906,-1.25866 0.70591,-1.26462z"/><path d="M291.79296,187.30933c0.47846,-0.00637 0.87349,0.66274 0.88223,1.4945c0.00882,0.83175 -1.23141,1.89923 -1.23141,1.89923c0,0 -0.3988,-1.29668 -0.40763,-2.12843c-0.01013,-0.95726 0.27832,-1.25891 0.75675,-1.26529z"/><path d="M289.85295,187.94882c0.64184,-0.00852 1.16924,0.65879 1.17804,1.49056c0.00882,0.83175 -1.65865,1.90492 -1.65865,1.90492c0,0 -0.5303,-1.29491 -0.53908,-2.12668c-0.01013,-0.95726 0.37787,-1.26026 1.01973,-1.26879z"/><path d="M287.66316,188.43825c0.68669,-0.00915 1.25048,0.65772 1.25928,1.48948c0.0088,0.83175 -1.77603,1.90647 -1.77603,1.90647c0,0 -0.5664,-1.29445 -0.57518,-2.1262c-0.01013,-0.95726 0.40526,-1.2606 1.09195,-1.26974z"/><path d="M285.18874,188.89625c0.78152,-0.00824 1.41925,0.65941 1.42443,1.49121c0.00518,0.8318 -2.15953,3.51391 -2.15953,3.51391c0,0 0.06944,-2.38897 -0.51495,-3.73675c-0.3913,-0.90239 0.46855,-1.26013 1.25005,-1.26837z"/><path d="M281.97421,191.12161c0.01028,0.97212 -1.20716,2.53592 -1.20716,2.53592c0,0 -1.25095,-1.59994 -1.2612,-2.57207c-0.01028,-0.97212 0.53961,-1.21532 1.22101,-1.2244c0.6814,-0.00909 1.23704,0.28843 1.24732,1.26055z"/></g><path d="M300.99976,188.30171c-6.48398,6.14391 -10.46506,15.35609 -20.48845,15.25418c-9.69376,-0.09856 -12.48813,-4.30792 -21.08859,-14.45589c-8.62175,-10.17309 -9.63018,-18.84756 -9.63018,-18.84756c11.18954,18.99588 55.28571,18.858 63.10339,0.09689c0,0 -1.00871,7.63592 -11.89619,17.95238z" fill="url(#color-1)" stroke="none" stroke-linecap="round"/><path d="M282.44386,167.78294c0.17882,5.08578 -5.51065,9.3634 -11.8013,9.5303c-2.66735,0.07077 -4.38057,0.26269 -6.36534,-0.92742c0.96107,0.25367 5.64189,0.50241 6.4722,0.48038c5.41132,-0.14357 9.65833,-4.23376 9.48598,-9.13572c-0.10595,-3.01317 2.08056,-3.58505 2.20846,0.05247z" fill="#001026" stroke="none" stroke-linecap="butt"/><path d="M290.82546,165.29808c0.18067,5.13808 3.96846,9.20672 8.46029,9.08755c0.68923,-0.01829 4.55007,-0.51162 5.32941,-0.8249c-1.5655,1.34416 -2.99727,1.22864 -5.21138,1.28737c-5.22174,0.13853 -10.21674,-4.0544 -10.40419,-9.38517c-0.13406,-3.81272 1.71482,-3.32316 1.82588,-0.16484z" fill="#001026" stroke="none" stroke-linecap="butt"/><path d="M279.46129,205.52629c-6.78823,0.09419 -12.7852,-6.60805 -12.7852,-6.60805c0,0 4.77489,5.76772 12.18316,6.08787c7.96665,0.34429 13.96667,-6.01256 13.96667,-6.01256c0,0 -5.06359,6.41755 -13.36462,6.53274z" fill="#001026" stroke="none" stroke-linecap="butt"/><path d="M314.5009,172.02809c0,0 0.09672,-2.3681 -0.98566,-3.22951c-1.08238,-0.86141 -3.14039,1.45984 -3.14039,1.45984c0,0 2.30913,-2.99158 3.51332,-2.03324c1.20419,0.95836 0.61272,3.80291 0.61272,3.80291z" fill="#001026" stroke="none" stroke-linecap="butt"/><path d="M283.8002,163.28836c0,0 1.39524,-1.44451 1.25104,-2.53471c-0.1442,-1.0902 -1.78848,-1.52839 -1.78848,-1.52839c0,0 0.2844,-0.92838 -0.30459,-2.79582c-0.78161,-2.47821 -3.31335,-5.96843 -5.72258,-7.41508c-11.03356,-6.62533 -21.1991,3.37266 -21.1991,3.37266c0,0 3.92723,-5.2642 13.11745,-6.13834c8.13045,-0.77334 14.84403,4.51597 15.108,12.02338c0.01224,0.34813 1.33815,0.55122 2.33558,1.78903c1.33011,1.65065 -2.79734,3.22727 -2.79734,3.22727z" fill="#001026" stroke="none" stroke-linecap="butt"/></g></g></g></svg>