<svg version="1.1" xmlns="http://www.w3.org/2000/svg" xmlns:xlink="http://www.w3.org/1999/xlink" width="106.92584" height="158.62243" viewBox="0,0,106.92584,158.62243"><g transform="translate(-167.32687,-87.57269)"><g data-paper-data="{&quot;isPaintingLayer&quot;:true}" fill-rule="nonzero" stroke="none" stroke-linecap="butt" stroke-linejoin="miter" stroke-miterlimit="10" stroke-dasharray="" stroke-dashoffset="0" style="mix-blend-mode: normal"><path d="M185.61269,198.62903l-0.34501,-26.425l-17.9408,-29.87319l16.39107,-54.57291l39.10325,29.39688l38.20492,11.75686l7.75104,28.19541l3.42032,52.82845l-13.45831,10.97222l-11.47304,15.49402l-17.9409,9.79335l-16.7024,-16.84312l-2.42171,-26.33762z" fill="#ffffff" stroke-width="0"/><path d="M234.15225,186.28779c0.52412,0.53245 0,1.06491 0,1.06491l-0.06907,-0.12819c-0.33398,2.03337 -0.3709,4.76713 -1.82467,6.39615c-2.77191,3.10607 -7.95775,1.98496 -9.4212,-1.68928c-0.78286,-4.71933 -0.22372,-10.57347 0.67616,-15.21024c0.37766,-1.94594 2.16508,-4.33062 3.79682,-2.14407c4.19947,4.19811 7.66909,7.98428 13.91008,7.98428c0,0 0.74122,0 0.74122,0.75301c0,0.75301 -0.74122,0.75301 -0.74122,0.75301c-6.69392,0 -10.62758,-3.98374 -15.07855,-8.56347c-0.38563,-1.31874 -1.47694,4.28782 -1.58212,4.98068c-0.51643,3.40192 -0.8483,7.61367 -0.29478,11.041c1.00764,2.60962 4.96256,3.29063 6.86765,1.11542c1.23116,-1.40572 1.20377,-3.9277 1.48832,-5.66408l0.4831,-0.68913c0,0 0.52412,-0.53245 1.04825,0z" fill="#9966ff" stroke-width="0.5"/><path d="M220.87637,158.96786c0.64195,0 0.72793,0.56481 0.73944,0.7161c0.50557,0.93172 0.96657,2.0128 1.71011,2.7645c0.74476,0.75292 1.50907,1.14035 2.27883,1.24984c0.05391,-0.17561 0.18461,-0.35319 0.4728,-0.45077c0.53117,-0.17987 0.79485,0.18374 0.89207,0.3724c3.47558,-0.84681 6.89274,-6.28868 8.96043,-8.31203c0.54065,-0.02714 1.1752,-0.39194 1.62195,-0.08142c0.29666,0.20619 0.30215,2.04088 0.26877,2.43747c-0.17965,2.13413 -1.08613,4.11022 -1.8085,6.06724c-0.0555,0.15036 -1.16793,2.9307 -0.97332,3.11835c0.61257,0.59071 1.67988,-0.22172 2.52447,-0.22055c2.31444,0.00321 4.62924,-1.03414 6.85267,-1.6c1.25311,-0.40968 2.61762,-1.20224 3.50579,-2.22426c0.39994,-0.46022 1.1973,-1.74409 1.88847,-1.71594c0.74343,0.03028 1.97585,2.54846 2.21253,3.01753c1.59554,3.16211 1.38433,6.9812 1.65379,10.44859c0.08339,1.07313 0.29005,2.03323 0.11838,3.0119l0.10468,-0.00839c2.60207,-1.97309 5.38582,-4.8614 5.38582,-8.22039c0,0 0,-0.75301 0.74122,-0.75301c0.74122,0 0.74122,0.75301 0.74122,0.75301c0,4.03081 -3.24697,7.44145 -6.34679,9.69362l-0.60932,0.619l-0.17049,-0.1732l-0.6101,0.34725c-0.06234,-0.22356 -0.11958,-0.44762 -0.17224,-0.67211l-0.31022,0.02488l-0.11667,-1.50134l0.14065,-0.01129c-0.53155,-3.44711 -0.25343,-6.97185 -0.94443,-10.40548c-0.27136,-1.34839 -1.00218,-2.56265 -1.67128,-3.72735c-0.07258,-0.12634 -0.16258,-0.38697 -0.22534,-0.60958c-0.0972,0.31244 -0.48006,0.63089 -0.70527,0.8867c-1.09299,1.24145 -2.67091,2.13599 -4.19593,2.66582c-2.9196,0.73993 -5.48778,1.44095 -8.48963,1.65749c-0.76006,0.05483 -1.64683,0.5016 -2.35024,-0.21798c-1.45193,-1.48534 1.18194,-5.58285 1.5731,-7.08434c0.22113,-0.84882 1.00722,-4.05386 1.06269,-4.19112c-2.32007,2.49189 -5.73684,7.49604 -9.41662,8.47328c0.03751,0.78498 0.11851,1.56222 0.11939,2.35549c0,0 0,0.5989 -0.52575,0.72848c1.37463,0.23011 2.73469,0.74987 4.10987,1.39806c0.77277,0.36424 2.82789,1.46867 2.26395,2.71631c-0.23554,0.52111 -1.08813,0.40206 -1.65206,0.37755c-0.64701,-0.02813 -1.07203,-0.66192 -1.63181,-0.87859c-1.73961,-0.67332 -3.69962,-1.23246 -5.51741,-1.63933c-1.08713,-0.18666 -2.12639,-0.49766 -3.21794,-0.68735h-0.78192c-0.40936,0 -0.74122,-0.33714 -0.74122,-0.75301c0,-0.41587 0.33186,-0.75301 0.74122,-0.75301h0.87024c-0.11408,-0.98323 -0.45186,-1.56256 -1.09171,-2.64593l-0.20564,-0.57c0,0 -0.23439,-0.71436 0.46879,-0.95248c0.70318,-0.23812 0.93758,0.47624 0.93758,0.47624l0.07045,0.27141c0.75597,1.27998 1.17887,2.11313 1.30635,3.39702c0.23733,-0.00852 0.47591,0.00023 0.71551,0.02375h0.51749v0.07255c0.1235,0.02226 0.24722,0.04792 0.37113,0.07666c0.61742,-0.07491 1.2286,-0.07513 1.83609,-0.01444c-0.32565,-0.2087 -0.32565,-0.64388 -0.32565,-0.64388c0.00089,-0.73869 -0.06878,-1.46363 -0.10947,-2.19423c-1.14687,-0.0623 -2.30813,-0.58591 -3.45966,-1.76017c-0.89267,-0.9103 -1.42591,-2.15551 -2.04487,-3.25591l-0.09766,-0.5366c0,0 0,-0.75301 0.74122,-0.75301z" fill="#9966ff" stroke-width="0.5"/><path d="M242.18667,176.6349c0,0 -0.74122,0 -0.74122,-0.75301c0,-0.75301 0.74122,-0.75301 0.74122,-0.75301c2.89898,0.02266 5.49155,1.78063 7.67247,3.55757l0.01948,0.03911l0.01031,-0.01047l0.55216,0.56094c0.13413,0.13626 0.2171,0.32452 0.2171,0.53245c0,0.41587 -0.33186,0.75301 -0.74122,0.75301c-0.03513,0 -0.0697,-0.00248 -0.10353,-0.00729l-1.09273,-0.13876l0.04063,-0.33023c-1.76712,-0.3107 -3.37104,-1.30627 -5.07549,-2.19009l-0.06245,-0.10713l-0.02827,0.02871l-0.55216,-0.56094v0c-0.13413,-0.13626 -0.2171,-0.32452 -0.2171,-0.53245c0,-0.01947 0.00073,-0.03876 0.00215,-0.05786c-0.21241,-0.02212 -0.42625,-0.0327 -0.64135,-0.03054z" fill="#9966ff" stroke-width="0.5"/><path d="M232.27333,205.39119c0.52412,-0.53245 1.04825,0 1.04825,0l0.19984,0.22369c0.8003,0.5839 4.68155,0.50951 3.13122,-1.06546c-0.11483,-0.11666 -0.76777,-0.34922 -1.44128,-0.58033l-0.14583,0.44445l-0.92221,-0.31229c-0.30288,-0.09463 -0.52305,-0.38112 -0.52305,-0.71985c0,-0.33873 0.22016,-0.62523 0.52305,-0.71985l0.86034,-0.29134c0.28461,-0.17992 0.99545,-1.02694 0.71056,-1.31636c-0.32292,-0.32805 -0.89604,0.22055 -1.35272,0.22055c-1.25122,0 -2.50246,0 -3.75368,0c0,0 -0.74122,0 -0.74122,-0.75301c0,-0.15485 0.03135,-0.27786 0.08115,-0.37557c-0.56049,0.44796 -0.62241,1.12596 -1.21186,1.72478c-1.14621,3.67173 0.3018,10.89586 5.65478,8.7596c0.4745,-0.18937 1.26306,-1.3642 1.63637,-1.74345c0,0 0.52412,-0.53245 1.04825,0c0.52412,0.53245 0,1.06491 0,1.06491c-0.53653,0.54506 -1.42854,1.78752 -2.11731,2.06991c-0.18747,0.07686 -2.29855,0.05732 -2.47331,0.05732c-5.48827,0 -6.49031,-6.60586 -5.00982,-11.00004c0.36636,-0.37219 0.57078,-0.7109 0.75471,-1.02821c-1.75188,-0.04162 -3.4477,-0.13698 -5.12651,-0.34296c-0.97208,5.50617 0.11422,10.3873 1.10175,15.70682c0.13993,-0.15547 0.36918,-0.28532 0.72608,-0.18173c0.7127,0.20687 0.50907,0.93089 0.50907,0.93089c-0.23488,0.83486 -0.48805,1.67309 -0.75214,2.51435c0.0254,0.3576 0.06988,0.71411 0.12878,1.06706l0.09229,0.11304c0,0 0.33149,0.67351 -0.33149,1.01026c-0.24977,0.12687 -0.45249,0.11035 -0.60816,0.04047c-1.51201,4.60921 -3.15556,9.29957 -3.74095,14.01696c0.33922,0.07296 0.50884,0.41758 0.50884,0.41758l0.25091,0.53696c1.49815,2.07509 4.15353,3.95674 6.22149,5.3576c0.79652,0.49107 1.62067,0.79447 2.52157,1.04954c0.41667,0.11797 3.39655,0.42516 3.479,0.06502c0.22488,-0.98234 -0.35003,-2.49965 -0.54408,-3.42198c-0.425,-2.01997 -0.63707,-4.14764 -0.65595,-6.20805c-0.10526,0.13436 -0.21851,0.26548 -0.34057,0.39308c0,0 -0.52412,0.53245 -1.04825,0c-0.52412,-0.53245 0,-1.06491 0,-1.06491c1.3899,-1.35675 1.36534,-3.66879 1.72331,-5.48622c0.62759,-3.18639 1.4206,-6.45191 2.42985,-9.5417l0.35127,-0.73017c-0.83799,0.27097 -1.65815,0.54227 -2.4214,0.85243c0,0 -0.68821,0.27966 -0.96349,-0.41948c-0.27528,-0.69915 0.41292,-0.97881 0.41292,-0.97881c2.93687,-1.19342 7.34302,-1.75602 9.30945,-4.47974l0.2293,-0.24365c0,0 0.03298,-0.0335 0.09066,-0.07529c-0.04324,-0.81082 -0.09135,-1.62037 -0.14484,-2.42804c-0.22716,-3.42927 -1.25951,-6.9209 -1.28607,-10.33044c0,0 0,-0.75301 0.74122,-0.75301c0.74122,0 0.74122,0.75301 0.74122,0.75301c-0.00477,0.4733 0.0129,0.94959 0.04741,1.42809c0.17883,0.09438 0.28571,0.23914 0.28571,0.23914c1.97845,2.69381 5.14594,5.14776 7.60308,7.38885c1.04533,0.95341 2.23504,2.02527 1.83158,3.66814c-0.28197,1.14818 -1.2782,2.27699 -1.91315,3.23844c-1.83088,1.86561 -3.54656,4.88486 -6.11955,5.69563c0.0083,0.47076 0.01564,0.94116 0.02214,1.41106c0.00565,2.30155 -0.01836,4.58302 0.16636,6.86978c0.01731,0.21419 -0.19093,1.9904 -0.12557,2.07627c0.76878,1.01005 3.24612,1.06639 3.92187,2.74203c0.67284,1.66844 -0.98003,3.36674 -2.47006,3.63563c-1.97692,0.35675 -3.05549,-0.59729 -4.45983,-1.78618c-1.64663,-1.35276 -2.76046,-2.64932 -4.78051,-3.47018l-0.40929,-0.3297c0,0 -0.52412,-0.53245 0,-1.06491c0.52412,-0.53245 1.04825,0 1.04825,0l-0.08838,-0.00369c2.17442,0.8836 3.39054,2.2761 5.16754,3.70194c1.08357,0.91733 1.72772,1.70354 3.24188,1.47387c0.49302,-0.07478 1.75272,-0.88495 1.3808,-1.58047c-0.74036,-1.38452 -3.02231,-1.37488 -3.77984,-2.47405c-0.39216,-0.56901 -0.06755,-2.11766 -0.12557,-2.81382c-0.19319,-2.31783 -0.16435,-4.63152 -0.17004,-6.96407c-0.00675,-0.48703 -0.01446,-0.97457 -0.02325,-1.46246c-0.0178,-0.0284 -0.03491,-0.05911 -0.05122,-0.09224c-0.16285,-0.33088 -0.08569,-0.58049 0.03498,-0.74881c-0.0408,-1.97717 -0.10039,-3.95897 -0.18624,-5.93647c-1.52225,1.45791 -3.62459,2.23841 -5.71637,2.92388c0.61291,0.34265 0.29413,0.99035 0.29413,0.99035l-0.28069,0.55338c-0.99818,3.02721 -1.76879,6.24168 -2.38372,9.36662c-0.32331,1.64302 -0.44269,3.34371 -1.14011,4.8057c0.02961,-0.00275 0.06057,-0.00419 0.09295,-0.00419c0.74122,0 0.74122,0.75301 0.74122,0.75301c0,2.54739 0.42741,5.01252 0.94718,7.50779c0.13891,0.66684 0.45955,2.46235 0.09773,3.09813c-1.33799,2.35112 -6.47125,0.47978 -8.11924,-0.51547c-2.23478,-1.51322 -4.95577,-3.51755 -6.61471,-5.72658l-0.26459,-0.51921c-0.03328,0.00353 -0.06829,0.0054 -0.10515,0.0054c-0.74122,0 -0.74122,-0.75301 -0.74122,-0.75301l0.00454,-0.24616c0.62993,-5.67071 2.77022,-11.27639 4.49792,-16.77773c-0.00475,-0.1184 -0.00726,-0.23687 -0.00726,-0.3553c-1.06741,-6.50627 -2.64101,-12.10751 -1.54761,-18.63995c-0.665,-0.10947 -1.3291,-0.23905 -1.99478,-0.39234c-0.05059,0.12554 -0.11414,0.20624 -0.11414,0.20624c-2.01321,2.49032 -3.26822,5.93339 -4.91723,8.71917c-0.2214,0.37402 -1.45091,2.37062 -1.35358,2.72123c0.20951,0.75469 1.61795,2.27671 2.01154,3.2158c1.72685,2.6166 3.51768,3.69606 5.90849,5.63876l0.25272,0.03664c0,0 0.70318,0.23812 0.46879,0.95248c-0.23439,0.71436 -0.93758,0.47624 -0.93758,0.47624l-0.71,-0.28936c-2.532,-2.05817 -4.45238,-3.28889 -6.28589,-6.09743c-0.38227,-0.90069 -1.99398,-2.8012 -2.16022,-3.63032c-0.1889,-0.94212 1.07543,-3.01979 1.53456,-3.79888c1.62119,-2.75091 2.89492,-5.97434 4.77493,-8.54442c-1.19326,-0.34135 -2.39744,-0.76663 -3.62646,-1.2961l-0.5322,-0.12573c0,0 -0.7191,-0.18263 -0.53932,-0.91315c0.17977,-0.73053 0.89887,-0.5479 0.89887,-0.5479l0.75142,0.20028c2.25427,0.97116 4.40984,1.56962 6.56869,1.93984c-2.2487,-1.19352 -4.00789,-3.09943 -6.38969,-5.24958c-0.08335,-0.07525 -0.16716,-0.15014 -0.25134,-0.22473c0.1572,0.47283 0.21978,0.84705 0.10707,1.01266c-0.92598,1.36067 -3.0621,-0.23736 -3.81022,-0.74118c-0.27593,-0.22395 -0.55187,-0.4479 -0.82779,-0.67185l-0.54245,-0.54455c0,0 -0.52412,-0.53245 0,-1.06491c0.52412,-0.53245 1.04825,0 1.04825,0l0.42027,0.43347c0.25891,0.21072 0.51782,0.42144 0.77673,0.63217c0.21131,0.14409 0.57076,0.29103 0.90923,0.44097c-0.30311,-0.55541 -0.62644,-1.29873 -0.86914,-1.89073c-0.66527,-0.58839 -1.30987,-1.19699 -1.90164,-1.85376c-0.03945,1.26832 -0.91467,2.57074 -1.33781,3.66181c-0.15533,0.40053 0.77666,0.36575 1.10623,0.63636c0.67746,0.55628 1.33852,1.56248 1.81685,2.28644c1.86839,3.27315 0.28771,7.27451 -3.54451,7.87725c-4.01728,0.63184 -7.93709,-0.89335 -10.7613,-3.76243c-0.50403,-0.71427 -0.9847,-1.44602 -1.4434,-2.19116l-0.22857,-0.7774c0,0 -0.17977,-0.73053 0.53932,-0.91315c0.7191,-0.18263 0.89887,0.5479 0.89887,0.5479l0.04751,0.34447c0.42061,0.68409 0.85722,1.35864 1.31742,2.01589c2.45602,2.49506 5.91023,3.78912 9.39271,3.24933c2.69365,-0.41753 3.98162,-3.24756 2.52929,-5.58534c-0.6854,-1.05299 -3.14711,-2.62499 -3.15073,-3.80848c-0.00363,-1.18198 2.5788,-3.17774 0.82635,-4.56295c-2.46172,-1.94584 -7.13878,1.3165 -9.32952,-0.71813c-0.02034,-0.40116 0.07877,-1.90832 -0.25345,-2.27994c-0.28267,-0.3162 -1.69416,-0.05802 -2.09866,-0.05992c-3.14412,-0.01473 -6.82529,3.81254 -3.17791,6.19316c0,0 0.61674,0.4177 0.20558,1.04423c-0.41116,0.62654 -1.02789,0.20884 -1.02789,0.20884c-0.64301,-0.4475 -1.28031,-0.99304 -1.63511,-1.69806c-2.4467,-4.86181 3.5998,-8.0285 7.09743,-7.17695c-1.64261,-2.6642 -3.5599,-5.05087 -5.00872,-7.8314c-0.70884,-0.45314 -1.40206,-0.92388 -2.05713,-1.42296c-0.73547,2.51543 -2.16331,5.26507 -4.15691,6.84883c1.33324,0.24151 2.99486,0.93472 3.83889,0.92594h0.80226c0.40936,0 0.74122,0.33714 0.74122,0.75301c0,0.24039 -0.11089,0.45447 -0.28353,0.59234l-0.77134,0.62687c-2.02418,2.98025 -4.43801,7.06843 -2.7202,10.49351c1.23476,2.46196 4.00707,0.36141 5.20576,2.81512c-0.02208,2.6831 2.1925,4.36664 4.17597,5.70997l0.23065,-0.12646c0,0 0.74122,0 0.74122,0.75301c0,0.75301 -0.74122,0.75301 -0.74122,0.75301l-1.05296,-0.12646c-2.29347,-1.55329 -4.78589,-3.60365 -4.80937,-6.67824c-0.01263,-0.48996 -1.86855,-0.20814 -2.511,-0.39264c-1.55261,-0.44588 -2.63631,-1.56766 -2.94819,-3.2152c-0.53808,-2.84252 0.40831,-5.69493 1.49629,-8.24574c0.27724,-0.64999 0.65028,-1.68863 1.23417,-2.28768c-1.43823,-0.17432 -2.98162,-0.61327 -4.34802,-1.1853l-0.01898,0.11565l-0.95069,-0.16097c-0.35728,-0.05392 -0.63138,-0.36683 -0.63138,-0.74479c0,-0.37014 0.26289,-0.67791 0.60933,-0.74112l0.73902,-0.15015c2.45124,-0.99521 4.20554,-4.62153 4.87793,-7.37019c-0.57373,-0.52283 -1.09793,-1.07871 -1.55234,-1.67734c-2.65719,-2.70957 -4.03357,-6.60413 -6.28889,-9.65633c-1.98698,-2.68906 -4.53814,-4.94632 -6.56456,-7.5861l-0.04628,0.05877l-0.79691,-0.64766c-0.17265,-0.13787 -0.28353,-0.35194 -0.28353,-0.59234c0,-0.41587 0.33186,-0.75301 0.74122,-0.75301c0.05507,0 0.10873,0.0061 0.16037,0.01767l0.7721,0.15688c1.1337,0.16421 2.2833,0.30357 3.42685,0.47274c0.03041,0.00282 0.05972,0.00736 0.08758,0.01301c0.54906,0.08199 1.09659,0.17117 1.64016,0.27361c-0.15514,-0.14324 -0.31187,-0.28475 -0.47122,-0.42329c-3.43614,-2.98747 -13.29624,-9.39472 -7.04156,-13.97427c0.67399,-0.15008 2.63314,-0.14911 3.14792,-0.66004c0.72498,-0.71958 0.42471,-3.35508 0.42471,-4.35763c0,-4.34156 -0.12993,-8.75111 -1.73425,-12.82565c-0.10906,-0.54403 -0.77074,-2.78622 -0.60373,-3.13944c1.50834,-3.19005 7.39431,2.68249 8.89862,0.19887c1.68938,-2.78916 1.87192,-6.92322 1.93802,-10.06995c0.01935,-5.79733 -1.2155,-12.55374 -3.46821,-17.88641l-0.00093,-0.00951l-0.00248,0.001l-0.31466,-0.79916c-0.03815,-0.09073 -0.05926,-0.19062 -0.05926,-0.29552c0,-0.41587 0.33186,-0.75301 0.74122,-0.75301c0.10326,0 0.20158,0.02145 0.2909,0.0602l0.78666,0.31967l-0.09429,0.23949c1.88543,0.7936 3.2244,2.54386 4.529,4.29075c3.50343,4.69118 6.96848,10.33738 8.8222,15.95924c0.31363,0.80366 0.51005,2.22355 0.91911,2.84555c0.21966,0.33399 0.49494,-0.63516 0.80311,-0.88684c0.57228,-0.46737 1.20043,-0.86023 1.78096,-1.31697c1.42463,-1.1208 3.72895,-2.37886 5.61822,-1.76253c2.8999,0.94604 2.97328,4.66772 4.5745,6.79608c2.04932,2.79029 6.29727,1.98084 9.35507,1.98084c1.18435,0 3.05801,-0.33081 4.03845,0.53115c1.07321,0.94351 0.87869,3.19629 0.87454,4.45993c-0.00325,0.9902 -0.17394,1.98551 -0.44965,2.93528c-0.10752,0.4982 -0.23912,0.97924 -0.38825,1.45245c0.84027,-0.23141 1.68833,-0.42186 2.54206,-0.56642l0.94894,-0.16067c0.04397,-0.00826 0.0893,-0.01258 0.13563,-0.01258c0.40936,0 0.74122,0.33714 0.74122,0.75301c0,0.15823 -0.04804,0.30506 -0.13011,0.42626l-0.80168,1.22163c-0.37422,0.8406 -0.83319,1.70284 -1.28951,2.10296c0.13851,-0.03303 0.2695,-0.06299 0.35474,-0.08444c0.4224,-0.10627 0.84429,-0.21465 1.26646,-0.32186c1.40164,-0.35598 2.82995,-0.71054 4.25962,-0.93069c4.73723,-0.72949 9.74404,-0.69022 14.52755,-0.72173c4.4473,0.09374 9.21387,-0.25462 13.44192,1.22706c0.96705,0.33889 4.14709,1.18905 3.28082,3.10274c-0.27657,0.61096 -1.88845,0.83517 -2.49596,0.91804c-2.57343,0.35101 -5.13393,0.28009 -7.72039,0.6544c-1.90507,0.15828 -3.56742,0.61781 -5.32015,1.3716c-0.43096,0.18535 -1.48354,0.45993 -1.16001,0.80346c0.77374,0.82158 2.34322,1.32739 3.29013,2.00055c3.86061,2.74451 7.49423,5.53145 10.7012,9.06168c3.12025,3.17569 5.79233,7.28077 7.82074,11.25058c0.65168,1.27541 2.97389,4.93447 0.11794,5.01973c-0.35514,0.0106 -2.5014,-1.25421 -2.88924,-1.4538c-2.00533,-1.03206 -3.95115,-2.26303 -6.09761,-2.94607c-0.08459,-0.06932 -0.17429,-0.13333 -0.2637,-0.19765c0.22591,0.55795 0.71346,1.84712 0.81173,2.06967c0.71908,1.62851 1.37368,3.21279 1.96454,4.89654c1.73058,4.93152 2.97009,10.76519 1.29596,15.94596c-0.00417,0.01634 -0.00889,0.03293 -0.01418,0.04978l-0.14705,0.75423c0,0 -0.14537,0.73839 -0.87219,0.59071c-0.72683,-0.14768 -0.58147,-0.88606 -0.58147,-0.88606l0.06718,-0.33833c-0.49449,-0.41364 -1.00376,-0.93276 -1.2008,-0.50111c-1.33197,2.91781 1.25212,6.70572 0.3173,9.70138c-0.44014,1.41044 -2.51053,2.55422 -3.57835,3.42002c-0.76347,0.64084 -3.23853,0.60948 -3.23906,-0.51622c-0.20936,0.46011 -0.49679,1.01832 -0.70662,1.26352c-0.76989,0.89963 -1.57305,1.9199 -2.56104,2.58186c-2.52758,1.69352 -5.58024,0.71532 -6.79089,-1.75045c-2.47935,1.56108 -5.17155,2.76571 -8.06962,3.72257c1.87056,1.68728 2.89231,4.75596 2.9116,7.5604v0.95333c0,0 0,0.75301 -0.74122,0.75301c-0.74122,0 -0.74122,-0.75301 -0.74122,-0.75301v-0.35852c-1.25898,0.79521 -3.52046,0.45626 -4.67485,-0.28606l-0.42578,-0.41186c0,0 -0.52412,-0.53245 0,-1.06491zM236.49429,202.88486c0.11992,0.03362 0.239,0.08194 0.35533,0.14258c-0.04695,-0.1415 -0.09707,-0.28063 -0.15035,-0.41705c-0.06543,0.09467 -0.13424,0.18638 -0.20498,0.27448zM222.17508,128.99972c-0.72683,-0.14768 -0.58147,-0.88606 -0.58147,-0.88606l0.05538,-0.27628c-3.81475,1.48545 -7.39916,3.77591 -10.5252,6.31001c-5.3048,4.04138 -10.86114,9.80881 -14.54343,15.61959c-0.05842,0.22572 -0.21046,0.38018 -0.21046,0.38018c-0.02368,0.02378 -0.0475,0.04737 -0.07146,0.07075c-0.1567,0.25412 -0.30972,0.50825 -0.45888,0.76222c0,0 -0.33859,0.57329 -0.90942,0.31538c-1.33563,0.87899 -2.8363,1.53544 -4.05409,2.63711c-0.29372,0.26571 -0.60844,0.62802 -0.94829,0.97047c0.86963,-0.52559 1.87567,-1.09836 2.27324,-1.26046l0.91709,-0.05385c0,0 0.74122,0 0.74122,0.75301c0,0.75301 -0.74122,0.75301 -0.74122,0.75301l-0.36653,-0.05385c-0.62424,0.25288 -1.29516,0.37804 -1.91294,0.6468c-0.1342,0.05838 -0.3304,0.14098 -0.56519,0.23364c3.40619,2.60299 6.4248,6.28243 9.69659,8.36595c0.22,-0.66157 0.43631,-1.32407 0.61603,-1.99354c0,0 0.19503,-0.72647 0.91013,-0.52834c0.7151,0.19813 0.52007,0.9246 0.52007,0.9246c-0.47868,1.78299 -1.24478,3.52783 -1.5928,5.32864l0.01439,0.01533c0,0 0,0.75301 -0.74122,0.75301c-0.74122,0 -0.74122,-0.75301 -0.74122,-0.75301l0.01439,-0.31068c0.13273,-0.66371 0.31648,-1.31835 0.52013,-1.96961c-0.00927,-0.00505 -0.01421,-0.00806 -0.01421,-0.00806c-3.61787,-2.21371 -6.99099,-6.64451 -10.9111,-9.25444c-1.19436,0.30499 -2.24399,0.30527 -1.59792,-0.93671c-0.78262,-0.39382 -1.58924,-0.70084 -2.42547,-0.89256c-0.44175,0.55499 -1.01368,0.11924 -1.01368,0.11924c-0.13861,-0.10609 -0.27454,-0.21536 -0.40837,-0.32713c-0.1296,-0.00816 -0.25991,-0.01341 -0.39097,-0.01567c2.46533,1.82244 4.94503,4.05622 6.68999,6.39428c0.09538,-0.17282 0.38143,-0.56543 0.92656,-0.34391c0.68821,0.27966 0.41292,0.97881 0.41292,0.97881c-0.88618,1.84192 3.58111,4.34229 5.02743,4.88338l0.39213,0.19456c0,0 0.61223,0.31098 0.36586,0.93293c1.54037,0.76287 2.68163,2.30628 3.7151,3.73716c2.72591,3.77415 3.13384,8.1086 5.43098,11.99183l0.10563,0.52766c0,0 0,0.75301 -0.74122,0.75301c-0.59632,0 -0.7129,-0.48736 -0.73569,-0.67792c-2.18619,-3.81153 -2.59959,-8.02315 -5.24801,-11.69416c-1.07906,-1.4957 -2.45859,-3.6552 -4.50743,-3.61475c-0.57588,0 -1.58723,-0.17822 -2.15802,-0.02617c-0.27328,0.07279 1.13585,3.90938 1.19135,4.04593c0.20093,0.49429 0.41969,0.97363 0.65275,1.44114c1.73904,1.07695 3.56126,2.04972 5.05698,3.06249l0.30459,0.07518c0,0 0.70318,0.23812 0.46879,0.95248c-0.23439,0.71436 -0.93758,0.47624 -0.93758,0.47624l-0.65812,-0.25083c-0.8587,-0.5817 -1.79359,-1.14539 -2.75029,-1.71696c1.29805,2.0463 2.7622,3.96467 4.0205,6.08574c0,0 0.32793,0.55523 -0.13121,0.94488c0.53601,0.54079 0.82752,1.32409 0.73258,2.37979c0.11138,0.75719 1.46046,-0.46072 2.21406,-0.46485c1.79136,-0.00981 5.19484,-0.63235 6.67784,0.58813c0.23453,0.19301 0.42365,0.39111 0.57357,0.59312c0.09891,-0.17353 0.28322,-0.33522 0.62669,-0.33522c0.34333,0 0.52763,0.16155 0.62657,0.33501c-0.92859,-3.68774 -1.07159,-7.73154 -0.55808,-11.42469c0,0 0.00249,-0.01768 0.00938,-0.04722c-0.81281,-3.52302 -1.097,-7.3685 -1.44428,-10.88706l-0.01295,-0.13149c0,0 -0.07376,-0.74927 0.66379,-0.8242c0.73755,-0.07493 0.8113,0.67434 0.8113,0.67434l0.01295,0.13149c0.21503,2.19053 0.54179,4.37076 0.86818,6.54884c1.23362,-2.43339 3.28737,-4.04194 4.82614,-6.37357c1.45912,-2.21095 2.32839,-5.22515 3.2964,-7.68362c0,0 0.27528,-0.69915 0.96349,-0.41948c0.68821,0.27966 0.41292,0.97881 0.41292,0.97881c-1.0101,2.56539 -1.93093,5.65006 -3.44261,7.96464c-1.65915,2.54038 -4.16492,4.21543 -5.17838,7.19858c0.01754,1.27264 0.0761,2.5237 -0.16527,3.77612l-0.15776,0.80134c-0.02673,0.15119 -0.09788,0.28671 -0.19924,0.39213c-0.28097,3.78133 0.16456,7.81899 1.45246,11.28589c0.04753,0.12794 0.15525,0.35241 0.29678,0.63738c0.90123,0.77751 1.83458,1.52329 2.7075,2.31178c3.7308,3.36992 5.69432,6.16518 11.05824,6.16518c5.34037,0.02684 11.09741,-2.22925 16.274,-4.06752l-0.00726,-0.55857c0,0 0,-0.75301 0.74122,-0.75301c0.40307,0 0.58695,0.22267 0.67084,0.42583c2.43207,-1.79044 4.62933,-4.00742 6.58817,-6.79361c0,0 0.43083,-0.61275 1.03399,-0.17507c0.60316,0.43768 0.17233,1.05042 0.17233,1.05042c-1.92371,2.7358 -4.07503,4.95811 -6.44672,6.77966c0.12287,0.62103 -0.50059,0.83215 -0.50059,0.83215c-0.18042,0.06103 -0.36158,0.12285 -0.54342,0.18534c1.19428,3.33836 5.31191,0.6803 6.96942,-1.23007c0.44292,-0.51049 1.21572,-2.42931 1.99246,-2.37858c1.22409,0.07996 1.33872,2.69172 2.08448,1.49585c0.72038,-0.58674 2.89926,-1.78402 3.16066,-2.77409c0.69995,-2.65118 -2.38274,-8.48102 0.3173,-10.51097c0.48068,-0.36138 1.53683,0.06141 2.32683,0.42134c1.39029,-5.25697 -0.29644,-10.73653 -1.99876,-15.66698c-0.64781,-1.87625 -2.15701,-3.96383 -2.42611,-5.93359c-0.07572,-0.55427 -0.3255,-1.38722 0.1487,-1.67195c0.61136,-0.36711 1.405,0.21144 2.10752,0.31717c2.22695,0.71969 4.23822,1.96662 6.32117,3.03874c0.44357,0.22831 0.87545,0.47939 1.30971,0.72549c0.20553,0.11646 0.60908,0.40961 0.86968,0.60538c-1.17489,-1.04683 -1.98992,-3.7348 -2.74356,-5.09842c-1.7034,-3.08209 -3.74195,-6.14521 -6.22425,-8.6621c-3.14239,-3.45762 -6.69708,-6.17864 -10.47852,-8.86861c-0.9415,-0.66975 -3.3157,-1.46658 -3.76977,-2.56353c-1.34252,-3.24323 5.87139,-4.19272 7.63965,-4.34505c2.63758,-0.38393 6.42049,-1.22329 9.03795,-0.7096c0.41541,0.08153 -0.69405,-0.50101 -1.07949,-0.67826c-1.22646,-0.56401 -2.68987,-0.9208 -4.0184,-1.05441c-3.42959,-0.3449 -6.84545,-0.38455 -10.2906,-0.45751c-4.70574,0.03144 -9.63451,-0.01288 -14.2948,0.70476c-1.67899,0.25855 -4.80221,1.80871 -6.43396,1.41277c-2.53216,-0.61442 -1.16832,-3.00579 0.30838,-4.28794c-0.9261,0.18437 -1.84438,0.42456 -2.75189,0.71341c-0.05568,0.14273 -0.11222,0.28581 -0.16944,0.42951l-0.14411,0.74813c0,0 -0.14537,0.73839 -0.87219,0.59071zM222.94189,123.64697c0.33337,-1.10788 1.09903,-4.91026 -0.00678,-5.92195c-0.60773,-0.55602 -3.06758,-0.12086 -3.82372,-0.12086c-3.44681,0 -7.43093,0.52861 -9.73877,-2.58324c-1.1668,-1.60411 -1.67506,-5.63574 -3.76903,-6.24414c-2.10805,-0.61248 -4.56965,1.56771 -6.07882,2.7886c-0.69895,0.56545 -1.13908,1.58199 -2.40593,1.0692c-0.76225,-0.30854 -1.355,-2.93736 -1.64814,-3.67456c-1.79015,-5.48451 -5.20502,-10.99308 -8.61182,-15.56779c-0.40621,-0.54546 -1.59948,-1.55211 -2.54459,-2.52389c1.82402,5.13306 2.81603,11.19328 2.80059,16.46555c-0.06706,3.12855 -0.16849,8.30451 -2.22298,10.93925c-1.44801,1.85696 -4.00637,0.79315 -5.77635,0.28007c-0.67175,-0.19473 -1.31499,-0.49875 -2.00099,-0.63277c-0.32041,-0.06259 -1.05579,-0.42128 -0.97382,-0.10045c0.16479,0.64505 0.53642,1.33194 0.67988,2.07665c1.65414,4.20108 1.79571,8.77922 1.79571,13.25479c0,1.49564 0.2659,4.26987 -0.85891,5.42254c-0.77082,0.78991 -2.5793,0.79464 -3.59108,0.96998c-2.44751,1.97904 -0.77264,3.7824 1.02651,5.62896c2.57302,2.64082 5.50237,5.47628 8.4555,7.80848c1.49167,0.13721 2.88128,0.62836 4.19984,1.34419c1.95753,-2.16787 5.25508,-3.10141 7.30151,-5.07216c3.80076,-6.05523 9.52004,-12.07038 15.0669,-16.29713c3.54118,-2.8713 7.64913,-5.42304 12.01459,-6.93306c0.28286,-0.77347 0.53296,-1.54871 0.71068,-2.37626zM246.80862,208.62169c0,0.59754 -0.46676,0.72091 -0.65949,0.74638c-0.88701,0.60124 -1.89438,0.91914 -2.8944,1.30801c0.13823,2.52622 0.2266,5.0655 0.28347,7.59843c1.99132,-0.84819 3.57577,-3.63016 5.00457,-5.07713c0.49744,-0.76351 1.8383,-2.11965 1.61034,-3.12927c-0.2603,-1.15284 -1.50786,-1.76016 -2.23124,-2.57425c-1.71672,-1.93198 -3.92951,-3.4434 -5.72878,-5.31398c0.32879,2.07804 0.78449,4.17125 0.92266,6.21754c0.01607,0.23798 0.03165,0.47613 0.04674,0.71443c0.80914,-0.28945 1.63541,-0.5715 2.29972,-1.09257l0.60518,-0.1506c0,0 0.74122,0 0.74122,0.75301zM190.83317,170.87731c0.73114,0.12379 0.60929,0.86655 0.60929,0.86655c-0.01249,0.07429 -0.02573,0.14916 -0.0397,0.22458c0.17037,0.14074 0.34483,0.27909 0.52278,0.41526c-0.63746,-1.51476 -1.61665,-4.05585 -0.45058,-5.0818c0.4133,-0.36363 1.29941,-0.38011 2.072,-0.34977c-1.48315,-0.81699 -3.07093,-2.00491 -3.84751,-3.38234c-0.57925,-0.02724 -0.67366,-0.53561 -0.68906,-0.70062c-2.11246,-3.50072 -6.49587,-7.00015 -9.93668,-9.10311c-0.50017,-0.07423 -1.00133,-0.1433 -1.50199,-0.21136c1.01499,0.99385 2.00836,2.53783 2.62069,3.21893c3.54737,3.94581 5.49436,9.34638 9.15344,13.04905c0.28493,0.39975 0.60878,0.78035 0.96352,1.14465c0.12455,-0.08227 0.29411,-0.1289 0.52381,-0.09001z" fill="#9966ff" stroke-width="0.5"/><path d="M220.56605,210.92523c-0.66297,0.33675 -0.99446,-0.33675 -0.99446,-0.33675l0.05779,-0.06035c-1.07603,-0.82004 -1.69494,-1.26431 -3.04663,-1.48967c0,0 -0.73114,-0.12379 -0.60929,-0.86655c0.12186,-0.74276 0.85299,-0.61897 0.85299,-0.61897c1.57457,0.27021 2.43936,0.81591 3.69238,1.77039l0.37869,0.59165c0,0 0.33149,0.67351 -0.33149,1.01026z" fill="#9966ff" stroke-width="0.5"/><path d="M252.22563,236.33216c0,-0.75301 0.74122,-0.75301 0.74122,-0.75301c0.49415,0 1.59173,0 2.08588,0c1.72627,0.00711 3.68635,-0.53507 4.6746,-2.1042c0.41945,-0.66601 1.1913,-2.22463 0.41711,-2.96745c-0.91838,-0.88117 -2.1858,-1.12985 -3.31098,-1.44043c-0.16017,0.15932 -0.43638,0.31368 -0.8286,0.11446c-0.29252,-0.14858 -0.39144,-0.36273 -0.41065,-0.55566c-0.22758,-0.11397 -0.43522,-0.24788 -0.61585,-0.41172c-1.92146,-0.41321 -3.22591,-2.8049 -1.98644,-4.8509c0.44129,-0.67059 0.84765,-1.37637 1.26087,-2.07826c0.16189,-0.49145 0.37378,-0.97826 0.63512,-1.45901c0.17446,-0.32095 1.26771,-1.71086 1.52289,-1.68303c0.0047,0.00051 0.0094,0.00104 0.01408,0.00159c0.17709,-0.19459 0.36205,-0.38208 0.55636,-0.56112c-2.38319,-1.38492 -3.18585,-5.78861 -2.13645,-8.42362c0.34991,-0.87861 1.45382,-2.5368 2.27555,-3.00068c0.97405,-0.54986 3.62493,0.01545 3.14976,-0.45296c-0.3896,-1.17804 -1.20483,-2.85451 -0.79722,-4.13158c0.64921,-2.03404 2.26672,-2.27281 3.99978,-1.67649c-0.77249,-1.78732 -1.39006,-4.01114 -0.97529,-5.56903c-0.19773,-0.07629 -0.5787,-0.29789 -0.46975,-0.85129c0.14537,-0.73839 0.87219,-0.59071 0.87219,-0.59071c0.10586,0.02205 0.21176,0.04398 0.31772,0.06579c0.33729,-0.40404 0.75969,-0.7443 1.238,-1.02015c-0.08576,0.00046 -0.17144,0.0007 -0.25702,0.0007c0,0 -0.74122,0 -0.74122,-0.75301c0,-0.75301 0.74122,-0.75301 0.74122,-0.75301c1.13269,0 2.27737,-0.03759 3.4187,-0.02942c0.0688,-0.27261 0.13114,-0.54978 0.18668,-0.83228c0,0 0.14537,-0.73839 0.87219,-0.59071c0.72683,0.14768 0.58147,0.88606 0.58147,0.88606c-0.03869,0.19626 -0.08038,0.39023 -0.12498,0.58208c0.53238,0.03055 1.06252,0.07931 1.58886,0.15483l0.30499,-0.00613c0.12784,-0.43798 0.23087,-0.88104 0.30312,-1.32826c0,0 0.12186,-0.74276 0.85299,-0.61897c0.73114,0.12379 0.60929,0.86655 0.60929,0.86655c-0.16691,1.00381 -0.46578,1.98386 -0.84785,2.93573c0.10531,0.10713 0.20289,0.22048 0.29191,0.34008c0.24827,0.74149 0.41679,1.40499 0.50904,2.00286c0.0878,0.01768 0.17559,0.03544 0.26338,0.05327l0.67621,0.17086c0,0 0.7191,0.18263 0.53932,0.91315c-0.17977,0.73053 -0.89887,0.5479 -0.89887,0.5479l-0.52214,-0.13336c-0.22874,2.16862 -1.92533,3.25569 -4.77375,4.38033l-1.10288,0.01358c0,0 -0.74122,0 -0.74122,-0.75301c0,-0.75301 0.74122,-0.75301 0.74122,-0.75301l0.82254,0.01358c2.24597,-0.94271 3.53227,-1.52225 3.62802,-3.19174c-0.37804,-0.07465 -0.75586,-0.14846 -1.13346,-0.22165c-0.10043,0.17139 -0.20175,0.34149 -0.3036,0.51028l-0.66975,0.85287c0,0 -0.46304,0.588 -1.04183,0.1176c-0.5788,-0.4704 -0.11576,-1.05839 -0.11576,-1.05839l0.57036,-0.72206c-0.46521,-0.08868 -0.93012,-0.17688 -1.39475,-0.26498c-0.23519,0.44867 -0.48462,0.89539 -0.74655,1.34383c-0.01527,0.16751 -0.11297,0.70361 -0.7384,0.70361c-0.74122,0 -0.74122,-0.75301 -0.74122,-0.75301l0.10563,-0.55042c0.20436,-0.34601 0.40114,-0.69024 0.58934,-1.03475c-0.6014,-0.11456 -1.20237,-0.22972 -1.80297,-0.34636c-0.42187,1.82997 0.76797,4.73208 1.68256,6.2712c0,0 0.03531,0.0598 0.06654,0.15391c1.58871,1.07814 2.95177,2.53644 3.36153,3.55552c0.78216,1.94526 -0.04507,4.25617 -0.65117,6.0943c-1.47385,2.99731 -4.74686,5.36835 -7.79033,6.60509l-0.75664,0.05385c0,0 -0.19307,0 -0.38215,-0.10011c0.06407,0.3266 -0.14805,0.61392 -0.14805,0.61392c-0.09335,0.12409 -0.18065,0.25077 -0.26228,0.37985l-0.09934,0.35324l-0.09257,-0.02687c-0.09015,0.16519 -0.17207,0.33378 -0.24653,0.50534c-0.09998,0.34793 -0.21799,0.68579 -0.35123,1.01641c-0.01225,0.04573 -0.02413,0.0916 -0.03565,0.13759c0.30602,1.49508 0.08337,3.53102 -0.25811,5.24544c0.16845,0.78658 0.38216,1.43101 -0.51681,2.11167c-0.03794,0.1279 -0.07509,0.24786 -0.11096,0.35889c1.26215,0.43148 2.94075,0.55772 3.83007,1.48541c3.55703,3.71056 -3.04882,7.63163 -6.13996,7.64257c-0.49415,0 -0.9883,0 -1.48245,0h-0.60344c0,0 -0.74122,0 -0.74122,-0.75301zM255.78387,225.53476c-0.05322,0.30236 -0.0631,0.56724 -0.03595,0.80047c0.13037,-0.02055 0.25419,-0.03812 0.36685,-0.04468c0.05192,-0.00302 0.12176,0.00815 0.19579,0.02323c0.06903,-0.28749 0.12655,-0.57372 0.17443,-0.8601c-0.12234,-0.5571 -0.18776,-1.15703 -0.2012,-1.77668c-0.24576,0.37333 -0.49801,0.75135 -0.75211,1.1387c0.32819,0.25578 0.25219,0.71905 0.25219,0.71905zM254.01253,226.06377c0.06911,0.08311 0.1457,0.14891 0.22801,0.20043c-0.00027,-0.09062 0.00207,-0.18443 0.00709,-0.28155c-0.21298,-0.04864 -0.39127,-0.19042 -0.49125,-0.38102c0.04311,0.15045 0.12497,0.30437 0.25616,0.46214zM271.13448,194.21224c-0.04047,0.07916 -0.08134,0.15808 -0.12256,0.23676c0.06338,0.01221 0.12676,0.02444 0.19014,0.0367c-0.02071,-0.08901 -0.04324,-0.18013 -0.06758,-0.27346zM270.13698,192.88713c-0.45411,-0.20522 -1.02194,-0.32027 -1.62863,-0.35052c-0.16517,0.45311 -0.34671,0.89762 -0.54308,1.33681c0.50632,0.0949 1.01307,0.1897 1.52005,0.2852c0.22794,-0.41599 0.44736,-0.84015 0.65165,-1.27149zM266.87417,192.64881c-0.68276,0.12634 -1.33276,0.35065 -1.84871,0.66562c0.47793,0.09317 0.9566,0.18488 1.43584,0.2758c0.14572,-0.3109 0.28358,-0.62422 0.41286,-0.94142zM259.13215,216.73136c-0.00462,-0.03845 -0.00707,-0.07925 -0.00707,-0.12253c0,-0.75301 0.74122,-0.75301 0.74122,-0.75301l0.20607,0.05385c2.67562,-1.08726 5.66799,-3.138 6.9713,-5.78312c0.64955,-1.99002 1.33201,-4.07554 0.07177,-5.97167c-0.62205,-0.93594 -5.60553,-4.68663 -6.2139,-2.1783c-0.24447,1.0079 0.50921,2.4516 0.8073,3.36655c0.00221,0.54875 0.32315,1.20156 0.00665,1.64625c-0.2784,0.39117 -1.79991,0.22395 -2.26941,0.26371c-1.66361,0.1409 -2.53669,0.85417 -3.22271,2.46052c-0.92599,2.16827 -0.00185,6.79421 2.35931,6.79421c0.09368,0 0.18331,0.01766 0.26582,0.04987c0.09374,0.03236 0.19722,0.0857 0.28364,0.17365z" fill="#9966ff" stroke-width="0.5"/><path d="M263.29687,206.50102c-0.02408,-0.12312 -0.01456,-0.26944 0.053,-0.44102c0.27528,-0.69915 0.96349,-0.41948 0.96349,-0.41948l0.78623,0.3195c0.28151,0.10679 0.48197,0.38244 0.48197,0.70567c0,0.41587 -0.33186,0.75301 -0.74122,0.75301h-0.80226l-0.32811,-0.40547c-0.10926,-0.05837 -0.35471,-0.21923 -0.41267,-0.50999l-0.00044,-0.00055c0,0 0,-0.00056 0.00002,-0.00165z" fill="#9966ff" stroke-width="0.5"/></g></g></svg>