<svg version="1.1" xmlns="http://www.w3.org/2000/svg" xmlns:xlink="http://www.w3.org/1999/xlink" width="167.51575" height="177.69231" viewBox="0,0,167.51575,177.69231"><g transform="translate(-311.69506,-187.33477)"><g data-paper-data="{&quot;isPaintingLayer&quot;:true}" fill-rule="nonzero" stroke="none" stroke-linecap="butt" stroke-linejoin="miter" stroke-miterlimit="10" stroke-dasharray="" stroke-dashoffset="0" style="mix-blend-mode: normal"><path d="M369.59543,365.02708l7.11303,-29.10079l-65.0134,-23.89188l21.74652,-124.69964l145.76923,30.38462l-6.49216,110.14496l-42.68958,19.02454l3.0279,14.29204z" fill="#ffffff" stroke-width="0"/><path d="M423.85641,323.53323c-0.97073,-1.45609 0.48536,-2.42681 0.48536,-2.42681l0.81501,-0.53543c5.89092,-4.67249 11.36511,-15.20872 11.84762,-22.82004c0.31013,-4.89211 -0.0044,-9.91242 -0.0044,-14.81344c0.02895,-16.29337 -11.94356,-31.71219 -26.55456,-38.0706c-19.12633,-3.04549 -38.56375,5.41886 -49.24435,21.38647c-1.76297,3.54098 -3.84463,6.94074 -4.87059,10.80124c-0.99806,3.75556 -0.51801,7.92229 -0.51801,11.75789c0,6.19672 0.58247,11.76879 2.5534,17.68871c0.67421,2.02508 1.41811,4.80173 2.74128,6.60055c1.28854,1.75175 2.73813,3.32111 3.9585,5.18184c3.66625,3.1788 7.34523,6.60756 11.79793,8.70269c8.18522,3.8514 18.6158,2.8926 27.2639,1.6563c0,0 1.73241,-0.24749 1.9799,1.48492c0.24749,1.73241 -1.48492,1.9799 -1.48492,1.9799c-9.40727,1.34298 -20.44376,2.18907 -29.31465,-1.9859c-4.86807,-2.2911 -8.89446,-6.01968 -12.87351,-9.5301c-2.15189,-3.18538 -4.81373,-5.93356 -6.23861,-9.54671c-3.3102,-8.39388 -3.88321,-16.46776 -3.88321,-25.3572c0,-3.24638 -0.19494,-6.33655 0.63279,-9.52187c1.08379,-4.17072 3.31526,-7.85691 5.22862,-11.669c11.49273,-17.29046 32.59799,-26.54875 53.25565,-22.98853c16.12103,6.82388 29.04123,23.57432 29.07044,41.4294c0,4.97727 0.34063,10.09469 -0.0044,15.06156c-0.59962,8.63164 -6.49552,19.94064 -13.15238,25.30496l-1.05999,0.71457c0,0 -1.45609,0.97073 -2.42681,-0.48536z" fill="#9966ff" stroke-width="0.5"/><path d="M428.1498,283.02381c1.72619,-0.2877 2.01389,1.43849 2.01389,1.43849l0.33035,2.01836c0.00265,3.6465 -0.41038,6.69821 -2.14352,9.92756c-0.92646,1.11335 -1.50837,2.6455 -2.77939,3.34004c-2.21356,1.20958 -6.35631,0.59576 -8.6604,-0.22545c-1.21028,-0.43136 -5.64581,-3.22803 -6.86603,-2.53102c-1.26367,0.72183 -1.87013,2.25404 -2.99772,3.17406c-4.01499,3.27591 -9.7683,5.34609 -14.99615,4.08803c-2.68535,-0.64622 -4.29476,-2.98929 -5.69442,-5.09565c-0.01276,-0.0192 -2.12118,-3.27756 -2.23568,-3.28419c-0.56346,-0.03267 -0.54917,0.98621 -0.82376,1.47932c-1.16927,0.7846 -3.20336,2.22487 -4.48196,2.75487c-6.59923,2.7355 -19.22555,5.78826 -21.16742,-4.1404c-0.18583,-0.95014 -0.07518,-1.93791 -0.01819,-2.90437c0.25595,-4.34118 1.67059,-8.42624 4.0273,-12.0781c1.75358,-2.71727 3.48665,-4.29975 4.49561,-7.41375c0,0 0.5534,-1.6602 2.21359,-1.1068c1.6602,0.5534 1.1068,2.21359 1.1068,2.21359c-0.70717,2.07328 -1.76343,4.05286 -3.0727,5.8091c-3.48274,4.67172 -10.2556,17.83262 0.00716,18.76957c0.81806,0.07469 1.64825,0.09682 2.46439,0.00338c1.45495,-0.16658 4.33843,-1.11527 5.6256,-1.49915c2.62935,-0.78415 4.32602,-1.62344 6.58088,-3.11465c0.97541,-0.75689 1.69509,-2.36337 2.92624,-2.27068c4.97314,0.3744 4.61815,7.65049 8.94491,8.49516c4.2288,0.82554 8.63867,-0.75209 11.87885,-3.41197c0.98045,-0.80486 2.94935,-3.31672 3.87728,-3.70094c4.9145,-2.03491 10.17851,5.58913 15.19938,2.91222c0.78267,-0.41728 1.01362,-1.45579 1.52043,-2.18369c1.35505,-2.40635 1.57816,-4.96168 1.58084,-7.7174l-0.29465,-1.73164c0,0 -0.2877,-1.72619 1.43849,-2.01389z" fill="#9966ff" stroke-width="0.5"/><path d="M448.27381,319.4127c-0.2877,-1.72619 1.43849,-2.01389 1.43849,-2.01389l1.77785,-0.29347c1.70979,-0.48897 3.37695,-1.12308 5.02765,-1.78463c7.43057,-3.04902 6.36177,-11.20174 4.99077,-17.72277c-0.24491,-1.16491 -1.38562,-5.83183 -1.00193,-7.085c1.31764,-4.30353 3.79533,-1.93057 6.5766,-2.97876c1.32978,-0.50116 1.86501,-2.19366 2.45082,-3.48839c2.69509,-5.9565 -0.19945,-12.28173 -3.4324,-17.30609c-2.75464,-3.13816 -6.42305,-6.36532 -8.6183,-9.91587c-0.90252,-1.45972 -2.55403,-2.96731 -2.21216,-4.6491c0.2439,-1.19984 2.24783,-0.99167 3.42632,-1.32376c0.37083,-0.1045 0.91171,0.33112 1.15536,0.03268c0.2273,-0.2784 -0.28361,-0.66673 -0.3492,-1.0201c-0.60204,-3.24322 -0.74719,-5.87396 -2.07479,-8.93875c-4.47401,-10.32837 -13.14277,-16.92263 -22.16236,-23.16479c-0.03391,-0.02262 -5.52192,-3.68196 -5.53013,-3.69415c-0.48787,-0.72403 -0.12794,-1.74201 -0.23044,-2.60903c-0.28816,-2.43744 -1.06572,-5.01364 -3.0682,-6.5661c-2.48566,-1.92707 -6.78127,-1.24935 -9.71654,-1.1826c-9.63325,0.21906 -21.85283,1.70535 -29.48147,8.24199c-0.89823,0.75971 -4.74562,4.15455 -5.84582,4.4893c-1.03807,0.31585 -2.16089,-0.21374 -3.24517,-0.25486c-2.2847,-0.08663 -4.57325,-0.04854 -6.85903,0.00248c-12.6004,0.28126 -29.70633,1.77358 -34.28744,16.2055c-0.7764,2.4459 -0.02326,6.34926 0.20793,8.83623c0.43066,2.91284 3.37158,8.76424 1.93755,11.52738c-0.27702,0.53378 -4.32648,0.68883 -5.18638,0.74051c-3.20365,0.19253 -6.49292,0.06888 -9.52138,1.29906c-0.18118,0.0736 -2.65123,1.3637 -2.8586,1.95368c-1.08095,3.07535 0.29135,7.19301 1.1743,10.11094c2.3434,7.7444 5.39764,14.04932 10.34971,20.5014c0.30954,1.49346 1.52295,3.07573 0.92863,4.48037c-0.48202,1.13924 -2.29381,0.92787 -3.4269,1.42418c-1.23374,0.54039 -3.17431,1.73871 -3.68249,3.10195c-1.23575,3.31502 0.60162,6.68257 2.29423,9.33238c5.12825,8.02838 15.24392,11.52113 24.05406,13.92353c0,0 1.68834,0.46046 1.22788,2.14879c-0.46046,1.68834 -2.14879,1.22788 -2.14879,1.22788c-11.14875,-3.04102 -26.85939,-8.91135 -29.0835,-22.05921c-0.49852,-2.94702 0.03198,-5.75951 1.98998,-7.98374c1.15341,-1.31024 2.36379,-2.5229 4.13432,-2.97419c0.51122,-0.13031 1.28688,0.61737 1.5731,0.17418c0.26858,-0.41588 -0.63091,-0.76309 -0.94637,-1.14463c-5.15543,-6.52894 -8.22218,-13.23263 -10.61389,-21.13938c-1.13027,-3.73657 -2.63016,-8.77897 -0.9871,-12.62327c1.75775,-4.11264 8.1726,-4.76963 11.81927,-5.03678c1.17031,-0.08574 2.34266,-0.14076 3.51401,-0.21087c0.71107,-0.04256 1.43217,-0.25343 2.13323,-0.12716c0.28079,0.05058 0.66666,0.89346 0.59212,0.61806c-0.84009,-3.10409 -2.23202,-5.51915 -2.74148,-8.8433c-0.27002,-2.94784 -1.00812,-7.25873 -0.11304,-10.1681c4.16121,-13.52551 18.20846,-17.45236 30.60392,-18.47615c3.49017,-0.28827 7.02429,-0.32002 10.52338,-0.3188c1.9144,0.00066 3.89556,0.91697 5.73107,0.37307c1.87821,-0.55655 3.00274,-2.51661 4.49789,-3.7823c8.38347,-7.02146 21.11057,-8.82928 31.66269,-9.06924c3.98181,-0.09055 8.55867,-0.67303 11.92059,1.90022c2.31486,1.77183 3.39236,4.15223 4.07366,6.9064c0.17466,0.70608 0.32996,1.42568 0.35814,2.1525c0.01503,0.38771 -0.46633,0.8329 -0.23044,1.14097c0.34806,0.45456 1.09694,0.35555 1.59394,0.63973c1,0.57179 1.91729,1.27741 2.87593,1.91612c10.09402,6.99051 21.24843,15.38208 24.7608,27.83858c0.52328,1.85579 2.03483,8.49195 0.65285,10.28778c-0.66389,0.8627 -1.91954,1.09617 -3.01947,1.25434c3.58822,2.40771 6.57671,7.30172 9.27069,10.38961c4.66392,7.26075 7.85497,16.63243 1.77163,24.23962c-1.72163,2.1529 -2.5486,2.12348 -5.24873,2.30922c-0.1798,0.01237 -1.56453,-0.6049 -1.55288,0.30294c0.04925,3.84056 1.8614,7.71305 2.19999,11.55835c0.59406,6.74669 -1.89732,12.71652 -8.21115,15.50888c-1.83648,0.73327 -3.69586,1.42252 -5.59735,1.96537l-1.97215,0.33153c0,0 -1.72619,0.2877 -2.01389,-1.43849z" fill="#9966ff" stroke-width="0.5"/><path d="M402.16024,356.45022c-1.57498,-0.08392 -1.55987,-2.26321 -1.55987,-2.26321l0.02066,-0.69651c0.49597,-4.47387 0.83658,-8.98033 1.21168,-13.48093c0,0 0.1799,-2.15853 1.74464,-1.84693c1.56474,0.3116 1.38484,2.47013 1.38484,2.47013c-0.37955,4.55402 -0.72593,9.11316 -1.22714,13.64029l0.01527,0.0818c0,0 -0.01511,2.17929 -1.59009,2.09536z" fill="#9966ff" stroke-width="0.5"/><path d="M381.26531,356.03507c-1.20574,-1.06223 0.0626,-2.48478 0.0626,-2.48478l1.61226,-1.8031c4.11337,-3.70084 8.4214,-7.52531 12.75561,-10.8853c0,0 1.50061,-1.15689 2.40098,0.18981c0.90037,1.3467 -0.60025,2.50359 -0.60025,2.50359c-4.18594,3.20616 -8.35041,6.94013 -12.31623,10.49818l-1.4409,1.62128c0,0 -1.26834,1.42256 -2.47408,0.36033z" fill="#9966ff" stroke-width="0.5"/><path d="M419.26483,360.04728c-1.4,0.42859 -2.45,-1.43747 -2.45,-1.43747l-1.0325,-1.84863c-2.31814,-4.83927 -4.46341,-9.32953 -6.07586,-14.2283c0,0 -0.62821,-1.9122 1.00514,-1.81542c1.63335,0.09677 2.26157,2.00897 2.26157,2.00897c1.53056,4.6682 3.58913,8.93007 5.79914,13.54258l0.8425,1.48362c0,0 1.05,1.86606 -0.35,2.29465z" fill="#9966ff" stroke-width="0.5"/></g></g></svg>