<svg version="1.1" xmlns="http://www.w3.org/2000/svg" xmlns:xlink="http://www.w3.org/1999/xlink" width="63.31591" height="108.70051" viewBox="0,0,63.31591,108.70051"><g transform="translate(-209.79591,-129.24954)"><g data-paper-data="{&quot;isPaintingLayer&quot;:true}" fill-rule="nonzero" stroke="none" stroke-linecap="butt" stroke-linejoin="miter" stroke-miterlimit="10" stroke-dasharray="" stroke-dashoffset="0" style="mix-blend-mode: normal"><path d="M209.79591,179.1508l9.67851,-45.92523l24.90848,-3.97604l22.30362,4.27317l3.46947,41.79967l-17.67336,9.99161l16.417,6.17948l-4.80634,17.26639l4.40808,9.74493l-12.66553,6.43465l-2.10402,11.21438l-16.0525,1.79623l-3.00834,-13.99677l-18.9686,-2.33387l-1.5095,-15.30509l10.87137,-20.09215z" fill="#ffffff" stroke-width="0"/><path d="M214.14183,152.07784l-0.09251,-0.04379l-0.00397,0.03577l-1.73524,-0.1928c-0.88564,-0.08654 -1.57773,-0.83326 -1.57773,-1.74163c0,-0.67047 0.37705,-1.25288 0.93068,-1.54675l1.72567,-0.9587l0.20535,0.36963c1.29224,-0.78957 2.46612,-0.78318 5.13265,-0.78499h0.97568c0,0 0.06476,0 0.16936,0.01246l0.02631,-0.1184l0.01058,-0.02115v-0.02365l0.19356,-0.77423l0.09649,-0.77189l0.03874,-0.10007v-0.1073l0.19729,-0.78917l0.09682,-0.67779l0.00789,-0.01936l-0.00167,-0.02085l0.21919,-1.31512l0.05535,-0.1273l0.01065,-0.1384l0.16929,-0.50786l0.08728,-0.61095l0.01876,-0.04604l-0.00236,-0.04967l0.10959,-0.54797l0.10007,-0.21124l0.0507,-0.22818l0.29623,-0.59246l0.61142,-1.52857l0.09333,-0.28l0.10347,-0.16259l0.05612,-0.18438l0.25663,-0.42773l0.16711,-0.41777l0.08297,-0.11488l0.04126,-0.13556l0.32878,-0.54797l0.06497,-0.06496l0.03565,-0.08467l0.2341,-0.31213l0.25821,-0.51643l0.22469,-0.26212l0.02624,-0.13122l0.18971,-0.12072l0.14633,-0.17073l0.13361,-0.00742l0.29127,-0.18536l0.32878,-0.10959l0.56285,-0.0433l0.1119,-0.05595l0.10906,0.03895l0.11547,-0.00888l0.09323,0.08342l0.40817,0.14577c0.03445,-0.12187 0.07787,-0.23548 0.13119,-0.3398c1.70538,-3.33644 4.37628,-2.6214 7.27096,-2.66023c6.18093,-0.08291 12.36869,0 18.55034,0c1.72608,0 5.73611,-0.58646 6.97732,0.98946c0.78781,1.00025 0.66841,3.51449 0.52898,5.28071l0.27403,-0.34255l0.04206,-0.03205l0.01014,-0.05071l0.3424,-0.21789l0.32282,-0.24597l0.0511,0.00802l0.0446,-0.02838l0.2108,-0.07027l0.10794,-0.05398l0.88045,-0.19565l0.40021,0.26681l0.48024,0.02668l0.58697,0.6848l0.32878,0.65756l0.02733,0.12296l0.06762,0.10627l0.43838,1.31512l0.00848,0.11026l0.04734,0.09993l0.21918,1.09593l-0.00511,0.10719l0.03393,0.1018l0.1096,1.42471l-0.00082,0.00486l0.00153,0.00468l0.10959,1.53431l-0.01102,0.06281l0.01547,0.06187v1.53431l-0.01355,0.05421l0.01014,0.05495l-0.10959,1.7535l-0.03991,0.1257l0.00447,0.13181l-0.32306,1.50758l-0.212,1.16597l-0.21707,1.30243l-0.00528,0.01214l0.00086,0.01321l-0.21918,1.20553l-0.01436,0.03175l0.00092,0.03483l-0.41785,1.88033l-0.09915,0.89231l-0.03599,0.0969l0.00188,0.10335l-0.31207,1.35229l-0.09908,0.69356l-0.04571,0.1122l-0.00403,0.12108l-0.4013,1.40453l-0.09285,0.74282l-0.01322,0.03415l0.00292,0.03649l-0.21918,1.31512l-0.02844,0.06541v0.07133l-0.09949,0.39798l-0.10143,0.50713l-0.01827,0.03856v0.04268l-0.16693,0.66774v4.39099c0.00117,0 0.00233,-0.00001 0.00349,-0.00001c0.1601,0 0.31518,0.0215 0.46251,0.06177l0.4003,0.10007l0.26425,0.14093l0.28204,0.10073l0.07212,0.04808c0.29065,-0.21492 0.65019,-0.34199 1.03942,-0.34199c0.03222,0 0.06425,0.00087 0.09604,0.00259c3.00195,-1.69875 8.44876,-2.5017 8.44876,0.10351c0,1.26812 -4.39729,2.4627 -7.01398,3.02406v0.37333l-0.06823,0.27292l-0.02157,0.28048l-0.10959,0.32878l-0.06762,0.10627l-0.02733,0.12296l-0.13328,0.26656l-0.063,0.252l-0.1132,0.21224l-0.06513,0.23157l-0.37809,0.66165l-0.15496,0.38741l-0.20292,0.60877l-0.10347,0.1626l-0.05612,0.18437l-0.14146,0.23578c2.57412,0.19159 5.21296,1.38527 5.21296,2.37085c0,2.53286 -5.38763,1.72131 -7.8025,0.91052l-0.32814,0.27345l-0.49184,0.49183l-0.0845,0.0507l-0.05972,0.07838l-0.52482,0.41985l-0.74464,0.63826l-0.19902,0.09951h0.26108l0.01635,-0.01091l0.04906,0.01091h0.04877l0.3901,0.09752l0.39252,0.08723l0.04361,0.02181l0.04877,0.01219l0.00975,0.01707l0.77462,0.38731l0.21359,0.18308l0.24122,0.14473l0.24084,0.24084l0.33888,0.25416l0.15689,0.1931l0.19311,0.1569l0.65756,0.87674l0.03565,0.08467l0.06496,0.06497l0.65756,1.09593l0.01998,0.06565l0.04465,0.0521l0.21919,0.43838l0.02732,0.12296l0.06762,0.10627l0.21919,0.65756l0.02158,0.28049l0.06823,0.27291v1.09593l-0.06823,0.27291l-0.02158,0.28048l-0.07349,0.22046l0.00517,0.01896l-0.02586,0.0431l-0.01542,0.04626l-0.21588,0.33924l-0.20688,0.3448l-0.03448,0.03448l-0.02699,0.04241l-0.01927,0.00386l-0.2394,0.23939c-0.02511,0.05047 -0.05134,0.10049 -0.07869,0.15002c1.83683,0.82862 1.666,1.922 0.52193,2.78921c0.61339,0.45571 1.13029,1.08112 1.46982,1.86724c1.25444,2.90449 -0.58886,3.28269 -2.07766,5.02478c-0.26448,0.30948 0.16118,1.97146 -0.00462,2.52191c-0.45288,1.50353 -3.57715,4.17959 -5.33924,4.17959c-0.21532,0 -0.51432,-0.05232 -0.86785,-0.14902c-0.31976,0.9242 -1.75019,1.49776 -3.01663,1.5008c0.01803,0.05666 0.03578,0.11322 0.05324,0.16969c0.24186,0.78229 0.98128,2.01603 1.19649,3.12533c3.6239,0.00609 8.6112,2.06081 8.20875,4.88043c-0.52791,3.69852 -11.61732,3.37812 -14.30844,2.73634c-0.30926,-0.07375 -0.73233,-0.11596 -1.18927,-0.17088c1.60025,3.18293 4.33076,6.89007 4.42878,10.58575c0.14728,5.5527 -5.92713,6.31152 -10.18106,4.47426c-6.08853,-2.62961 -4.33499,-9.00322 -4.38787,-14.76127c-0.00744,-0.81085 -0.08346,-1.6423 -0.18154,-2.4823c-2.86228,4.75723 -8.79847,6.31088 -14.72619,4.35601l-0.00002,-0.00001c-0.99271,-0.32738 -3.94159,-1.57493 -4.60679,-2.42699c-2.50417,-3.20765 -2.63417,-8.32188 1.11083,-10.69085c2.43694,-1.54153 5.57283,-0.69011 8.05279,-0.02319c0.71734,0.7502 1.68315,1.32458 2.15204,2.25062c0.42062,0.83073 -0.45867,2.26692 0.32174,2.77483c1.1596,0.75469 2.81804,-0.49722 3.81683,-1.04998l0.25452,-1.20864c0,0 0.21876,-0.72919 0.84865,-1.08139c-1.14682,-0.25489 -2.35831,-0.82135 -3.06449,-1.10738c-2.91727,-1.18162 -6.49917,-2.30302 -8.76891,-4.18749c-2.88557,-2.39577 0.91135,-10.63509 2.14535,-13.0973c0.46862,-0.93503 0.79811,-3.21209 1.53005,-3.92433c0.47674,-0.46391 1.87029,-1.63109 3.13614,-2.20057c0.13585,-0.98021 0.41045,-1.96569 0.76771,-2.72924l-0.29878,-0.11951l-0.27999,-0.09333l-0.10627,-0.06762l-0.12296,-0.02733l-0.32713,-0.16357l-0.21079,-0.07026l-0.1972,-0.12549l-0.22012,-0.07862l-0.23813,-0.15875l-0.34092,-0.17047l-0.08396,-0.07197l-0.10414,-0.03719l-1.60925,-1.07283l-0.49262,-0.29557c-2.62709,1.82774 -6.60355,3.25234 -8.21553,3.30621c-2.46121,0.08225 -4.23074,-3.11854 -1.09593,-3.5c1.62147,-0.19731 2.84679,-0.64686 4.36006,-1.2867c0.8505,-0.3596 1.55247,-0.87053 2.2006,-1.3928l-0.09908,-0.14862l-1.15802,-1.54402l-0.00127,-0.00036l-0.00248,-0.00464l-0.12422,-0.16562l-0.13456,-0.31959l-0.16318,-0.30597l-0.01696,-0.06784l-0.19977,-0.24972l-0.07757,-0.16924l-0.12116,-0.14136l-0.21919,-0.43837l-0.01611,-0.07249l-0.04348,-0.0602l-0.19215,-0.48038l-0.18663,-0.37327l-0.01611,-0.07249l-0.04348,-0.0602l-0.21919,-0.54796l-0.02188,-0.16042l-0.0693,-0.14632l-0.04596,-0.22983c-0.49444,-0.13393 -0.99277,-0.21856 -1.49561,-0.22646c-0.61745,-0.0097 -6.49273,1.18323 -6.49273,-1.75c0,-2.17712 3.53185,-2.29655 7.23389,-1.68614l-0.07634,-0.38171l0.00829,-0.1741l-0.04227,-0.1691v-0.29354l-0.19538,-1.17225l0.00292,-0.0365l-0.01322,-0.03414l-0.10959,-0.87674l0.01331,-0.10978l-0.02682,-0.10728v-11.70353c-1.75622,0.11323 -3.51644,0.18409 -5.2762,0.18288zM255.80874,144.47645l0.02823,-1.48386c0.29808,-1.63734 0.54076,-3.2848 0.76098,-4.93442c0.08985,-1.31912 0.90304,-2.71198 0.42295,-3.94392c-0.07981,-0.20479 -0.40984,0.17933 -0.62879,0.19847c-0.16365,0.01431 -3.6645,0.01045 -3.71176,0.01045c-4.68326,0 -9.36652,0 -14.04977,0c-2.38405,0 -5.11393,-0.35516 -7.45939,-0.08578c-0.39606,0.04549 -0.9327,0.17102 -1.06321,0.54772c-0.13479,0.38906 0.36753,0.74222 0.47899,1.13859c0.50022,1.77875 0.8166,3.61335 1.00381,5.45158c0,0 0.02678,0.26778 -0.04568,0.60382l0.00582,0.01396l0.00975,0.06457l0.03506,0.0551l0.39905,1.19714l0.49235,0.9847l0.03306,0.14877l0.07789,0.131l0.32878,1.09593l0.00194,0.04164l0.01962,0.03678l0.21212,0.84846l0.06728,0.23549l0.80539,-0.17258l1.28635,-0.32159h0.1646l0.15707,-0.04923l1.86309,-0.10959l0.05171,0.00974l0.05105,-0.01276h12.93202l0.07204,0.01801l0.07329,-0.01197l1.31512,0.10959l0.08623,0.02936l0.09094,-0.00543l1.75349,0.32878l0.00986,0.00452l0.01083,-0.00051l0.54797,0.10959l0.03856,0.01827h0.04267l1.24732,0.31183l0.3942,0.0657l0.00002,-0.00034l0.28536,-0.85608l0.05577,-0.33459c-0.75402,-0.48859 -0.75402,-1.48691 -0.75402,-1.48691zM234.88592,214.9066c-2.02316,1.16667 -4.30125,1.85195 -6.51561,0.25773c-2.69951,-1.9435 -0.29255,-3.25364 -2.068,-4.75682c-3.58048,-0.76667 -8.05978,1.07223 -4.81107,5.35683c0.68258,0.90024 2.00902,1.05429 3.07929,1.41605c4.02293,1.35979 8.16329,0.67732 10.31539,-2.27379zM234.43218,187.00728c0.06649,0.18494 0.10272,0.38432 0.10272,0.59215c0,0.21907 -0.04026,0.42873 -0.11377,0.62201c-0.19999,0.65592 -0.61333,0.97549 -1.09291,1.04201c-0.17103,0.05581 -0.35366,0.08598 -0.54333,0.08598c-0.68185,0 -1.27262,-0.38996 -1.56146,-0.95901c-0.06546,-0.03662 -0.12705,-0.07977 -0.18487,-0.12899c-0.27516,0.10743 -0.53451,0.25569 -0.76079,0.48422c-1.47964,1.4944 -2.0566,5.26408 -2.88202,7.17525c-0.21082,0.48814 -1.78914,4.86626 -1.18995,5.21074c2.49448,1.43408 5.12843,2.62418 7.78673,3.72528c0.53786,0.22278 1.50123,0.42146 2.38238,0.74079c-0.01774,-0.0349 -0.03436,-0.07047 -0.04978,-0.10667c-0.07377,-0.13653 -0.1328,-0.28691 -0.17377,-0.45079c-0.12371,-0.49482 -0.50266,-2.16455 -0.69863,-3.91725c-0.29757,-0.93463 -0.6195,-1.88041 -0.93851,-2.89149c-1.50545,0.29085 -3.59859,0.20072 -4.04221,-0.57561c-0.51579,-0.30442 -0.86182,-0.86589 -0.86182,-1.50818c0,-0.9665 0.7835,-1.75 1.75,-1.75c0.35812,0 0.69111,0.10757 0.96843,0.29216c0.22262,-0.02457 0.44779,-0.03589 0.67168,-0.03406c-0.21072,-0.53444 -0.33049,-1.02276 -0.22281,-1.34576c0.52175,-1.56525 1.17394,-1.89135 2.73918,-1.3696c0.53861,0.17953 1.41181,2.23818 2.25414,4.63665c1.19825,0.68395 1.4283,2.88565 1.53904,4.80696c0.3213,1.09077 0.57271,2.00649 0.70747,2.55023c1.03233,1.03647 0.89337,3.63074 0.98359,4.80188c0.49101,6.37438 0.83428,12.36659 0.87674,18.85007c0.01639,2.50322 4.44888,3.88378 6.25795,3.10245c0.14786,-0.06386 1.29351,-0.38646 1.31099,-0.59714c0.29338,-3.5373 -2.68166,-7.41637 -4.16498,-10.38301c-1.4587,-2.91738 -1.76807,-8.52001 -2.36845,-11.36425c-0.25107,-1.18942 -2.07734,-7.52514 -0.7867,-8.26266l0.23352,-0.13343c0.02625,-0.04291 0.05431,-0.08462 0.08406,-0.12499c0.56196,-1.24893 1.67481,-2.68044 2.72287,-2.93948c-0.41135,-0.71797 -0.71844,-1.3576 -0.66127,-1.59201c-2.15641,-1.79071 -3.6634,-4.81039 -4.67296,-7.3343c-0.07932,-0.1857 -0.12744,-0.3879 -0.1378,-0.60003c-1.44134,0.45275 -3.6477,0.20418 -5.26671,-0.3623c0.00131,0.00404 0.00265,0.0081 0.004,0.01217zM237.40661,208.99241c-0.09175,0.04372 -0.18883,0.0789 -0.29047,0.10632c0.12881,0.06472 0.23952,0.13813 0.33452,0.21771c-0.01479,-0.10652 -0.02954,-0.21464 -0.04405,-0.32403zM255.58097,215.54924c0.2306,-0.00583 0.45968,-0.0449 0.68669,-0.08584c0.30437,-0.05488 0.60349,-0.13566 0.90572,-0.20127c0.17468,-0.03792 0.25191,-0.01182 0.51988,-0.10438c0.58352,-0.20157 -1.17786,-0.37061 -1.77022,-0.5445c-0.9028,-0.26503 -2.1888,-0.13979 -2.65561,-0.95673c-0.51579,-0.30442 -0.86182,-0.86589 -0.86182,-1.50818c0,-0.12379 0.01286,-0.24458 0.0373,-0.36111c-0.19133,-0.44269 -0.34359,-0.90839 -0.51011,-1.26732c-1.63308,-3.52012 -3.02258,-7.63827 -5.06244,-10.93884c-0.00475,-0.00769 -0.01024,-0.01645 -0.01646,-0.02623c-0.26918,0.57143 -0.75414,1.2135 -1.31432,1.77689c-0.03444,0.12339 -0.08206,0.24127 -0.14125,0.35205c0.56711,1.82651 0.54528,4.15255 0.93502,5.93856c0.36073,1.65302 0.61796,4.65491 1.12652,7.23968c2.69225,-0.32081 7.29932,0.70801 8.1211,0.68722zM253.15713,198.88836c-1.06298,-1.90574 -1.57573,-4.81942 0.88889,-4.81942c1.27237,0 1.94031,3.29611 2.4851,2.94927c1.4291,-0.90982 1.01036,-4.0293 -0.12586,-5.02303c-0.20444,-0.1788 -3.96624,0.30102 -4.00664,0.76306c-0.15668,1.79178 0.13703,3.10831 -1.84412,3.7492c-0.44359,0.1435 -0.87269,0.23906 -1.2877,0.29117c0.44808,0.77909 0.91466,1.59069 1.381,2.4225c0.79976,-0.61305 1.73464,-0.88484 2.50933,-0.33275zM252.64602,188.75902l-0.06172,-0.1466l-0.10352,-0.12077l-0.27772,-0.55544l-0.01707,-0.00975l-0.01219,-0.04877l-0.02181,-0.04361l-0.08723,-0.39253l-0.09753,-0.3901v-0.04877l-0.0109,-0.04906l0.0109,-0.01636v-1.20093l0.05921,-0.23681l0.00813,-0.24396l0.21919,-0.76715l0.08188,-0.14192l0.03554,-0.15995l0.21919,-0.43837l0.07197,-0.08396l0.03719,-0.10414l0.21919,-0.32878l0.03679,-0.03345l0.01929,-0.04583l0.02086,-0.02781l-0.46174,0.05772l-0.63738,0.18211l-0.12108,0.00404l-0.11219,0.04571l-0.67779,0.09682l-0.78917,0.19729h-0.08238l-0.07596,0.0319l-1.42471,0.21919l-0.13478,-0.01248l-0.13132,0.03283h-5.53361c1.82124,2.84078 3.71688,7.0242 4.72683,8.72395c0.09078,0.15277 0.23402,0.35882 0.40147,0.59775c1.68991,-0.05614 0.4163,-2.27785 2.03448,-3.24876c0.85982,-0.5159 1.79418,-0.92432 2.74353,-1.19481zM257.62084,202.57845c3.8865,-0.00662 1.62073,-3.53265 2.77777,-4.88253c0.61554,-0.71813 2.52649,-0.72912 2.30877,-1.64956c-0.25129,-1.06235 -1.09268,-0.84664 -1.9218,-0.62303c-0.57644,2.92566 -2.74068,6.26209 -5.52509,5.35451c0.72323,0.8442 1.44327,1.80217 2.36034,1.80061zM235.29008,174.85565c0.04561,-0.02281 0.09034,-0.04429 0.13422,-0.06448c0.22659,-0.1296 0.48494,-0.21 0.76049,-0.22664c0.08549,-0.00739 0.16745,-0.00666 0.24648,0.00225c0.90133,0.07102 1.61061,0.82494 1.61061,1.74453c0,0.17155 -0.02468,0.33733 -0.07069,0.49399c-0.13393,0.45603 -0.44857,0.83475 -0.86109,1.05334c-0.51152,0.55767 -0.94975,1.07708 -0.50135,1.29753c1.48416,0.72965 7.12875,0.33551 9.40067,1.32318h2.20391l1.21254,-0.18655l0.79832,-0.19958h0.09187l0.08508,-0.03466l0.64881,-0.09269l0.65222,-0.18635l0.13641,-0.00455l0.12729,-0.04927l0.74282,-0.09285l0.63738,-0.18211l0.10068,-0.00335l0.09238,-0.04017l0.44965,-0.07494l0.57341,-0.24574l0.07331,-0.01183l0.06265,-0.03987l0.53957,-0.17986l0.54632,-0.27316l0.12296,-0.02732l0.10626,-0.06762l0.53958,-0.17986l0.54632,-0.27316l0.07249,-0.01611l0.0602,-0.04348l0.27898,-0.11159l0.54719,-0.46902l0.02722,-0.01361l0.01844,-0.02421l0.47228,-0.37783l0.47944,-0.47943l0.06937,-0.04163l0.04773,-0.06532l0.52178,-0.43482l0.28051,-0.35065l0.39625,-0.59437l0.12898,-0.11724l0.08967,-0.14946l0.39563,-0.39563l0.44788,-0.74648l0.15844,-0.47532l0.02825,-0.0444l0.00711,-0.05214l0.21919,-0.54796l0.07208,-0.0998l0.03333,-0.11851l0.3186,-0.55755l0.05104,-0.20417l0.08312,-0.15585l-0.24084,-0.09634l-0.1484,-0.10718l-0.17239,-0.06157l-0.07657,-0.05104l-0.10878,-0.0272c-0.29742,-0.0675 -0.56606,-0.21073 -0.78457,-0.40837l-0.04676,-0.02494l-0.00734,-0.02612c-0.00378,-0.00372 -0.00754,-0.00746 -0.01129,-0.01121l-1.2522,-0.25044l-0.48422,-0.76092l-0.03548,-0.10645l-0.08919,-0.13379l-0.07862,-0.22012l-0.12549,-0.1972l-0.10959,-0.32878l-0.02158,-0.28048l-0.06823,-0.27291v-5.0413l0.05225,-0.209v-0.21543l0.20909,-0.83635l0.10143,-0.50714l0.01827,-0.03856v-0.04267l0.09265,-0.37057l0.20182,-1.21097l0.10517,-0.84133l0.04927,-0.12729l0.00455,-0.13641l0.40554,-1.41937l0.09269,-0.64882l0.02861,-0.07021l-0.00138,-0.07581l0.3059,-1.32558l0.09836,-0.88522l0.0335,-0.09019l-0.00253,-0.09618l0.431,-1.93953l0.21081,-1.15945l0.21707,-1.30243l0.00528,-0.01214l-0.00086,-0.01321l0.21919,-1.20553l0.01157,-0.02557l-0.00095,-0.02805l0.30147,-1.40687l0.09806,-1.56889v-1.41725l-0.1048,-1.46728l-0.04735,-0.61551l-0.49261,1.47782l-0.03987,0.06265l-0.01182,0.07331l-0.62888,1.4674l-0.37194,1.1158l-0.19662,1.17969l-0.05534,0.1273l-0.01065,0.1384l-0.27398,0.82195l-0.0881,0.7048l-0.02358,0.0609l0.00311,0.06524l-0.10959,0.54797l-0.24166,0.51017l-0.00694,0.12491l-0.08793,0.07537l-0.04958,0.10466l-0.11868,0.03956l-0.42861,0.36738l-0.21918,0.10959l-0.33703,0.07489l-0.09972,0.08923l-0.2242,-0.01725l-0.2195,0.04878l-0.11135,-0.07423l-0.34422,-0.02648l-0.22542,-0.07514l-0.44114,-0.08822l-0.03856,-0.01827h-0.04268l-0.37057,-0.09264l-0.58862,-0.09811l-0.06542,-0.02844h-0.07133l-1.27472,-0.31868l-0.49679,-0.09936l-1.65516,-0.31034l-1.15338,-0.09611h-12.80781l-1.64862,0.09697l-1.15658,0.28914h-0.03044l-0.02732,0.01341l-1.53431,0.32878l-0.04119,-0.0014l-0.03779,0.01643l-0.46412,0.07735l-0.00364,0.0038h-0.01916l-0.17064,0.02844l-0.3555,-0.02844h-0.35663l-0.16783,-0.04196l-0.01909,-0.00153l-0.00333,-0.00408l-0.24812,-0.06203l-0.79582,-0.42444l-0.07393,-0.26284l-0.23707,-0.13547l-0.21875,-0.875v-0.1555l-0.06172,-0.30859l-0.19973,-0.69905l-0.001,-0.02991l-0.01408,-0.02641l-0.20933,-0.83729l-0.27369,-0.9123l-0.48042,-0.96084l-0.02732,-0.12296l-0.06762,-0.10627l-0.41816,-1.25446l-1.04816,-2.51559l-0.61664,-1.23326l-0.6426,-1.1781l-0.00123,-0.00472l-0.00328,-0.0036l-0.027,-0.05014l-0.06852,0.09486l-0.04125,0.13556l-0.22995,0.38324l-0.04885,0.14654l-0.02825,0.0444l-0.00711,0.05214l-0.65756,1.6439l-0.04348,0.0602l-0.01611,0.07249l-0.22397,0.44795l-0.05411,0.27053l-0.10272,0.71907l-0.06002,0.14731l-0.0122,0.1586l-0.17577,0.5273l-0.19327,1.15961l-0.10671,0.74701l-0.03466,0.08508v0.09187l-0.19356,0.77423l-0.09649,0.77189l-0.03874,0.10007v0.1073l-0.21361,0.85441l-0.39171,1.76268v13.83649l0.09165,0.73322l0.21332,1.27991l-0.01166,0.14579l0.03547,0.1419v0.26509l0.16384,0.81918l0.18473,0.5542l0.02158,0.28048l0.0225,0.09004c1.96998,0.55248 3.6074,1.19424 4.26634,1.67014l0.07249,0.01611c0.03316,0.01658 0.06642,0.0349 0.09967,0.05485c0.55066,0.22564 0.96075,0.72386 1.06244,1.32685c0.36281,0.93185 0.14454,1.97107 -1.62772,2.05405c-0.71413,0.03343 -1.4302,-0.12077 -2.1504,-0.36753l0.02415,0.04528l0.02389,0.09553l1.09695,1.4626c0.26463,-0.16083 0.57529,-0.25345 0.90759,-0.25345c0.9665,0 1.75,0.7835 1.75,1.75c0,0.28843 -0.06978,0.56058 -0.19338,0.80045c-0.0124,0.05084 -0.02684,0.10172 -0.04325,0.15262l0.00532,0.0019l1.55325,1.03549l0.34092,0.17047l0.08397,0.07197l0.10414,0.03719l0.13378,0.08919l0.10645,0.03548l0.10627,0.06762l0.12296,0.02732l0.32713,0.16357l0.21079,0.07027l0.04439,0.02826l0.05214,0.00711l0.54797,0.21918l0.01778,0.01284l0.02165,0.00349l0.28184,0.12079c-0.00396,-1.62367 0.74855,-3.31683 2.21717,-3.84134z" fill="#9966ff" stroke-width="0.5"/><path d="M247.03204,174.22554c-2.83488,-0.70872 -4.39869,-3.7037 -0.87675,-4.48634c4.22886,-0.93974 8.10173,3.11847 2.63025,4.48635z" fill="#9966ff" stroke-width="0.5"/><path d="M237.36938,167.37255c-2.23933,1.11966 -8.55943,-0.48625 -4.81914,-3.03786c2.60645,-1.77811 9.03928,-0.08348 5.13457,2.84505z" fill="#9966ff" stroke-width="0.5"/><path d="M254.92277,167.43075c-6.46558,-0.10307 1.74884,-7.12212 3.9568,-3.25817c0.5158,0.30442 0.86181,0.86588 0.86181,1.50817c0,0.63936 -0.34287,1.19863 -0.85476,1.504c-0.12862,0.09963 -0.29452,0.16778 -0.5315,0.20816c-0.11734,0.0248 -0.23901,0.03785 -0.36373,0.03785c-1.02144,0.0541 -2.04587,0.0163 -3.06861,0z" fill="#9966ff" stroke-width="0.5"/></g></g></svg>