<svg version="1.1" xmlns="http://www.w3.org/2000/svg" xmlns:xlink="http://www.w3.org/1999/xlink" width="168.64869" height="118.66757" viewBox="0,0,168.64869,118.66757"><defs><radialGradient cx="332.31947" cy="130.51596" r="9.86662" gradientUnits="userSpaceOnUse" id="color-1"><stop offset="0" stop-color="#ff000d" stop-opacity="0.32941"></stop><stop offset="1" stop-color="#ff000d" stop-opacity="0"></stop></radialGradient><radialGradient cx="355.30316" cy="129.68263" r="8.36662" gradientUnits="userSpaceOnUse" id="color-2"><stop offset="0" stop-color="#ff000d" stop-opacity="0.32941"></stop><stop offset="1" stop-color="#ff000d" stop-opacity="0"></stop></radialGradient></defs><g transform="translate(-204.87681,-102.76538)"><g stroke-miterlimit="10"><path d="M253.82089,174.7478c-0.07221,6.06691 1.57628,17.72343 1.22902,21.63868c-0.02414,5.74886 -8.14447,8.60511 -10.77442,-0.10307c-0.63809,-5.54359 3.25646,-23.90363 3.25646,-23.90363c1.36085,-3.83146 5.35321,-3.53422 6.28894,2.36802z" fill="#ffab19" fill-rule="evenodd" stroke="#231f20" stroke-width="1.2" stroke-linecap="round" stroke-linejoin="round"></path><path d="M249.17271,183.05823c0,0 -0.19614,25.78013 0.5,25.5c4.73663,-1.90602 7.79455,4.22424 5.29392,6.83424c-2.50063,2.61 -9.15826,2.5055 -9.15826,2.5055c0,0 -6.96938,0.51644 -8.42844,-2.08219c-1.19287,-2.12455 -0.38923,-5.77465 2.29278,-6.00755c1.94705,-0.16908 0.75,-26.75 0.75,-26.75z" fill="#ffab19" fill-rule="nonzero" stroke="#001026" stroke-width="1.2" stroke-linecap="round" stroke-linejoin="miter"></path><g fill-rule="evenodd"><path d="M231.6975,184.44197c0.77926,-0.43905 2.47661,-1.34402 3.95073,2.54789c1.47413,3.89191 -1.80798,10.00156 -2.25577,10.6645c-1.65231,2.62485 -3.7793,5.7738 -7.29033,8.4706c-10.14345,7.87086 -21.05504,0.62119 -20.61228,-3.78607c0.38678,-4.3244 8.05058,-1.19928 15.18961,-3.01428c3.16645,-0.7574 5.45261,-2.71277 7.21031,-4.42171c2.40031,-2.48165 2.88962,-9.995 3.80772,-10.46093z" fill="#ffab19" stroke="#001026" stroke-width="1.2" stroke-linecap="round" stroke-linejoin="round"></path><path d="M211.10384,200.45918c3.13299,0.18542 8.01712,-0.25648 8.01712,-0.25648c0,0 -2.81682,2.56233 -2.58352,5.25408c0.12572,2.13639 2.17269,3.03633 2.86471,3.26242c-1.80493,0.34962 -4.19212,0.66797 -7.65221,-0.46243c-3.46008,-1.1304 -6.38076,-4.30997 -5.7585,-6.30315c0.788,-1.88125 2.31088,-1.45598 5.1124,-1.49446z" fill="#ffffff" stroke="none" stroke-width="1" stroke-linecap="butt" stroke-linejoin="miter"></path></g><g fill-rule="evenodd"><path d="M239.26355,189.98671c-11.64506,-2.35211 -7.75266,-9.0386 -8.0928,-14.53535c-0.12787,-4.80038 1.23026,-4.72615 6.91984,-6.97753c3.12633,-1.42692 4.96854,-2.26134 6.76141,-3.54025c2.71647,-1.87638 4.81984,2.47974 5.42207,5.06766c0,0 0.83419,3.86706 0.77467,6.16846c-0.09415,2.80021 -0.28698,4.71144 -0.80569,6.1189c0,0 -0.59925,2.77392 -1.51507,4.33442c-1.52722,2.71805 -9.46441,3.36369 -9.46441,3.36369z" fill="#ffab19" stroke="#001026" stroke-width="1.2" stroke-linecap="round" stroke-linejoin="round"></path><path d="M249.43306,182.69347c0,0 -1.91124,-0.19282 -4.06938,-0.58322c-2.65695,-0.42503 -5.15094,-0.59816 -5.15546,-4.28733c0.20776,-2.9928 -0.10297,-6.60298 5.25053,-6.61226c5.07694,-0.06857 4.83953,3.06251 4.83953,3.06251c0.59701,4.97329 -0.86522,8.4203 -0.86522,8.4203z" fill="#ffffff" stroke="none" stroke-width="1" stroke-linecap="butt" stroke-linejoin="miter"></path></g><path d="M239.92268,189.80823c0,0 -0.44613,19.03013 0.25,18.75c4.73663,-1.90602 7.79455,4.22424 5.29392,6.83424c-2.50063,2.61 -9.15826,2.5055 -9.15826,2.5055c0,0 -6.96939,0.51644 -8.42844,-2.08219c-1.19286,-2.12455 -0.38922,-5.77464 2.29279,-6.00755c1.94705,-0.16908 0.75,-26.75 0.75,-26.75" fill="#ffab19" fill-rule="nonzero" stroke="#001026" stroke-width="1.2" stroke-linecap="round" stroke-linejoin="miter"></path><path d="M235.57089,175.4978c-0.07221,6.06691 1.57628,17.72343 1.22902,21.63868c-0.02414,5.74886 -8.14447,8.60511 -10.77442,-0.10307c-0.63809,-5.54359 3.25646,-23.90363 3.25646,-23.90363c1.36085,-3.83146 5.35321,-3.53422 6.28894,2.36802z" fill="#ffab19" fill-rule="evenodd" stroke="#231f20" stroke-width="1.2" stroke-linecap="round" stroke-linejoin="round"></path><g><path d="M287.39339,145.93351c-4.86824,3.58195 -12.0653,3.35386 -12.0653,3.35386" fill="none" fill-rule="evenodd" stroke="#001026" stroke-width="1.2" stroke-linecap="round" stroke-linejoin="round"></path><path d="M285.5845,157.06267c-6.31624,0.21247 -10.12563,-1.86321 -10.12563,-1.86321" fill="none" fill-rule="evenodd" stroke="#001026" stroke-width="1.2" stroke-linecap="round" stroke-linejoin="round"></path><path d="M255.6173,113.95275c0.30881,-0.18614 0.80372,-0.06346 0.88539,0.34069l2.10986,10.80734c0,0 6.17925,4.98665 7.92694,8.3698c2.94613,5.64009 2.84102,10.13996 2.84102,10.13996c0,0 6.99697,2.42126 7.93606,8.17c0.9391,5.74877 -3.94836,16.3371 -22.89739,19.17681c-18.94904,2.83971 -33.80102,-2.94286 -40.37433,-14.65445c-6.57329,-11.7116 5.23464,-24.78727 4.5988,-24.01545l-1.28238,-17.97707c-0.08167,-0.40414 0.43147,-0.68105 0.82197,-0.46306l11.72755,8.44303c0,0 4.57278,-1.49324 9.277,-1.47893c2.8062,-0.07223 5.19459,0.23686 7.47398,0.74123z" fill="#ffab19" fill-rule="evenodd" stroke="none" stroke-width="0" stroke-linecap="butt" stroke-linejoin="miter"></path><path d="M255.6173,113.95275c0.30881,-0.18614 0.80372,-0.06346 0.88539,0.34069l2.10986,10.80734c0,0 6.17925,4.98665 7.92694,8.3698c2.94613,5.64009 2.84102,10.13996 2.84102,10.13996c0,0 6.99697,2.42126 7.93606,8.17c0.9391,5.74877 -3.94836,16.3371 -22.89739,19.17681c-18.94904,2.83971 -33.80102,-2.94286 -40.37433,-14.65445c-6.57329,-11.7116 5.23464,-24.78727 4.5988,-24.01545l-1.28238,-17.97707c-0.08167,-0.40414 0.43147,-0.68105 0.82197,-0.46306l11.72755,8.44303c0,0 4.57278,-1.49324 9.277,-1.47893c2.8062,-0.07223 5.19459,0.23686 7.47398,0.74123z" fill="none" fill-rule="evenodd" stroke="#001026" stroke-width="1.2" stroke-linecap="butt" stroke-linejoin="miter"></path><path d="M269.06252,143.99642c0,0 6.81086,2.11246 7.74992,7.86121c0.9391,5.74877 -4.32514,15.8194 -23.06982,18.5683c-24.40265,3.89237 -35.23471,-11.01656 -28.05879,-21.30034c7.18047,-10.38368 18.25399,-0.76925 26.67259,-0.98595c7.2153,-0.1715 8.30147,-6.42851 16.70609,-4.14325z" fill="#ffffff" fill-rule="evenodd" stroke="none" stroke-width="1" stroke-linecap="butt" stroke-linejoin="miter"></path><path d="M252.07544,145.52418c2.0978,0.09568 4.28641,0.39569 4.35444,1.09951c0.03614,1.40311 -1.58987,4.13187 -3.19276,4.15887c-1.80723,0.11781 -5.889,-2.57094 -5.81612,-4.16929c-0.04524,-1.20332 2.65653,-1.1802 4.65446,-1.0891z" fill="#001026" fill-rule="evenodd" stroke="#001026" stroke-width="1.2" stroke-linecap="round" stroke-linejoin="round"></path><path d="M207.19048,141.97573c0,0 8.46352,3.18888 11.81865,6.4451" fill="none" fill-rule="evenodd" stroke="#001026" stroke-width="1.2" stroke-linecap="round" stroke-linejoin="round"></path><path d="M219.14939,151.93086c-4.373,1.50234 -11.71518,0.06639 -11.71518,0.06639" fill="none" fill-rule="evenodd" stroke="#001026" stroke-width="1.2" stroke-linecap="round" stroke-linejoin="round"></path><path d="M264.3961,134.37386c2.692,4.62744 2.55956,9.7267 -0.31956,11.39728c-2.8791,1.67058 -7.37864,-0.63678 -10.17053,-5.26878c-2.692,-4.62744 -2.55956,-9.7267 0.31955,-11.39728c2.88365,-1.7705 7.47854,0.64134 10.17054,5.26878z" fill="#000000" fill-rule="evenodd" stroke="#000000" stroke-width="1.2" stroke-linecap="round" stroke-linejoin="round"></path><path d="M239.49432,136.04119c2.79645,4.53209 2.35065,9.91738 -0.43311,11.69239c-3.38313,1.74771 -7.71479,0.14872 -10.51122,-4.38338c-2.89636,-4.53663 -2.83649,-10.23983 0.36055,-12.29635c3.20156,-2.15639 7.78736,0.4552 10.58381,4.98731z" fill="#000000" fill-rule="evenodd" stroke="#000000" stroke-width="1.2" stroke-linecap="round" stroke-linejoin="round"></path><path d="M263.21915,139.63054c-0.11948,-4.08414 0.41301,-7.41339 0.41301,-7.41339c0,0 0.72623,3.29243 0.84571,7.37657c0.11948,4.08414 -0.41301,7.4134 -0.41301,7.4134c0,0 -0.72623,-3.29243 -0.84571,-7.37656z" fill="#ff0000" fill-rule="nonzero" stroke="none" stroke-width="0" stroke-linecap="butt" stroke-linejoin="miter"></path><path d="M238.21772,140.93835c-0.11948,-4.08414 0.41301,-7.41339 0.41301,-7.41339c0,0 0.72623,3.29243 0.84571,7.37657c0.11948,4.08414 -0.41301,7.4134 -0.41301,7.4134c0,0 -0.72623,-3.29243 -0.84571,-7.37656z" fill="#ff0000" fill-rule="nonzero" stroke="none" stroke-width="0" stroke-linecap="butt" stroke-linejoin="miter"></path><path d="M236.00059,151.9807c0,0 5.67615,2.89894 15.80872,3.23887c11.44953,-0.04345 16.23139,-2.78158 16.23139,-2.78158c0,0 -9.89161,15.99412 -21.38429,16.03845c-11.49266,0.0443 -10.65585,-16.4957 -10.65585,-16.4957z" fill="#000000" fill-rule="nonzero" stroke="#000000" stroke-width="1.2" stroke-linecap="round" stroke-linejoin="miter"></path></g><g fill-rule="nonzero" stroke-linejoin="miter"><g><path d="M330.17651,181.28606c0,0 -10.52672,15.63196 -17.15118,6.47007c-6.01832,-8.32359 -20.98179,8.17175 -0.2171,11.56769c13.54106,2.21455 17.36829,-18.03776 17.36829,-18.03776z" fill="#ffab19" stroke="none" stroke-width="0" stroke-linecap="round"></path><path d="M313.24243,187.75613c0.41884,0.57927 0.85327,1.05943 1.29966,1.45068c-0.14918,0.04522 -0.29946,0.08885 -0.45024,0.13184c-3.38566,0.21015 -6.05991,2.75696 -6.05991,5.86785c0,1.17691 0.38275,2.27309 1.04198,3.19255c-14.70178,-4.72106 -1.41584,-18.36631 4.16851,-10.64293z" fill="#ffffff" stroke="none" stroke-width="0" stroke-linecap="butt"></path><path d="M330.1765,181.28606c0,0 -10.52672,15.63196 -17.15118,6.47007c-6.01832,-8.32359 -20.98179,8.17175 -0.2171,11.56769c13.54106,2.21455 17.36828,-18.03776 17.36828,-18.03776z" fill="none" stroke="#000000" stroke-width="1.2" stroke-linecap="round"></path></g><path d="M330.69686,177.77178c0.13533,-6.64844 1.66523,-13.32593 3.36228,-13.52771c2.96621,-0.35268 2.87225,7.25408 3.68505,13.17446c0.8128,5.92038 4.48216,14.42861 1.2223,18.84296c-3.22882,4.37232 -7.8947,-0.3507 -8.66922,-5.9923c-0.3314,-2.41388 0.29839,-7.52531 0.3996,-12.49741z" fill="#ffab19" stroke="#000000" stroke-width="1.2" stroke-linecap="butt"></path><path d="M336.63734,173.99003l0.24988,25.48768c0,0 7.53279,-0.51947 9.87023,1.2494c2.33744,1.76888 3.08384,5.41512 -0.6247,5.74722c-8.04622,0.72054 -15.58508,-1.30815 -16.49203,-1.62421c-0.90695,-0.31606 0,-4.12301 0,-4.12301l0.24988,-20.73998" fill="#ffab19" stroke="#000000" stroke-width="1.2" stroke-linecap="round"></path><g><path d="M335.38417,166.33087c1.52496,3.98015 1.85299,8.18462 1.18692,11.30704c-0.71524,3.35294 -12.27101,4.78511 -12.74384,-1.2494c-0.3757,-4.79498 0.37833,-6.56861 0.93705,-9.37047c1.38432,-6.94201 8.59222,-5.97934 10.61987,-0.68716z" fill="#ffab19" stroke="#000000" stroke-width="1.2" stroke-linecap="round"></path><path d="M336.26252,173.24959c0,2.69108 -2.34937,4.87264 -5.24746,4.87264c-2.89809,0 -4.7477,-2.18156 -4.7477,-4.87264c0,-2.69108 0.85586,-9.1206 4.99759,-9.1206c4.14172,0 4.99759,6.42951 4.99759,9.1206z" fill="#ffffff" stroke="none" stroke-width="0" stroke-linecap="butt"></path></g><path d="M331.45235,180.74597l-0.02051,22.03134c0,0 7.72242,6.22871 9.3285,12.32705c1.63266,6.1993 -8.35062,7.62847 -12.24408,2.99855c-4.68649,-5.57296 -5.26413,-13.72339 -5.49734,-14.49299c-0.23321,-0.7696 0.49976,-1.99904 0.49976,-1.99904l0.24988,-26.29979" fill="#ffab19" stroke="#000000" stroke-width="1.2" stroke-linecap="round"></path><path d="M320.18382,177.96524c0.97485,-7.16781 3.25054,-14.18784 4.85478,-14.18784c2.80399,0 1.74525,8.20882 1.74525,14.71164c0,6.50281 2.32652,16.16948 -1.26926,20.52133c-3.56155,4.31042 -7.29831,-1.39348 -7.29831,-7.59008c0,-2.65135 1.23848,-8.09453 1.96754,-13.45505z" fill="#ffab19" stroke="#000000" stroke-width="1.2" stroke-linecap="butt"></path><g><g fill="none" stroke="#001026" stroke-width="1.2" stroke-linecap="round"><path d="M372.2633,143.21855c-5.78359,1.17748 -8.28954,0.52831 -8.28954,0.52831"></path><path d="M372.9255,149.18123c-5.17536,2.59613 -9.29105,-0.79376 -9.29105,-0.79376"></path></g><path d="M306.66292,143.81703c-3.47067,-17.31981 7.26499,-29.32461 23.79889,-32.14502c11.72704,-2.00043 29.0833,7.17339 28.31919,21.70431c-0.04784,0.90965 0.28463,1.01017 0.9336,1.6814c16.03118,8.47786 6.59264,26.25301 -6.19763,27.68272c-26.31971,2.94205 -44.52263,-7.28881 -46.85406,-18.92341z" fill="#ffab19" stroke="#001026" stroke-width="1.2" stroke-linecap="butt"></path><path d="M312.94359,120.36664c0,0 -0.94419,-17.32384 0.74372,-17.60126c1.30647,-0.21473 15.37011,9.9162 15.37011,9.9162" fill="#ffab19" stroke="#001026" stroke-width="1.2" stroke-linecap="round"></path><path d="M342.61636,113.25385c0,0 15.02082,-5.28392 15.86593,-4.71019c1.22496,0.8316 -3.47067,13.63478 -3.47067,13.63478" fill="#ffab19" stroke="#001026" stroke-width="1.2" stroke-linecap="round"></path><path d="M340.14884,136.60434c0,0 18.39543,-3.71619 22.86768,1.6007c9.42194,11.20135 0.18779,22.70731 -11.54321,24.19568c-21.54357,2.73333 -44.86277,-9.56156 -41.17446,-19.82126c5.70182,-15.86061 29.84999,-5.97511 29.84999,-5.97511z" fill="#ffffff" stroke="none" stroke-width="0" stroke-linecap="butt"></path><path d="M356.04687,145.05268c0,0 -14.77177,17.11183 -26.58206,14.71445c-11.8103,-2.39737 -8.42039,-21.81961 -8.42039,-21.81961c0,0 -0.26483,2.3251 5.17117,4.87563c1.76123,0.82635 2.20929,0.37803 4.72168,1.27295c0.6424,0.22882 2.96963,1.44264 3.64812,1.63866c8.02759,2.31928 21.46149,-0.68209 21.46149,-0.68209z" fill="#000000" stroke="#000000" stroke-width="1.2" stroke-linecap="round"></path><path d="M346.82037,136.70531c-0.24791,0.72912 -1.5561,3.63191 -3.71857,3.96648c-1.02099,0.15795 -6.19763,-2.74155 -6.19763,-3.96648c0,-2.46445 10.70952,-2.33327 9.9162,0z" fill="#001026" stroke="#001026" stroke-width="1.2" stroke-linecap="butt"></path><path d="M352.83855,123.23619c4.01475,-0.1147 4.21438,6.4897 4.21438,9.29644c0,2.80674 -1.61301,4.09043 -4.21438,4.09043c-2.60138,0 -4.46229,-1.03579 -4.46229,-3.84253c0,-2.80674 0.44754,-9.42964 4.46229,-9.54434z" fill="#000000" stroke="#000000" stroke-width="1.2" stroke-linecap="butt"></path><path d="M329.52507,122.21334c4.77121,0.13632 5.63099,6.65028 5.63099,10.65991c0,4.00964 -2.65846,5.48934 -6.3747,5.48934c-3.71625,0 -6.02056,-1.83384 -6.02056,-5.84347c0,-4.00962 1.99306,-10.4421 6.76427,-10.30578z" fill="#000000" stroke="#000000" stroke-width="1.2" stroke-linecap="butt"></path><g fill="none" stroke="#001026" stroke-width="1.2" stroke-linecap="round"><path d="M307.96561,144.57086c0,0 -3.35683,-0.56446 -4.84623,-0.98736c-1.57229,-0.44643 -4.35229,-1.62447 -4.35229,-1.62447"></path><path d="M299.67494,135.23977c7.15859,0.62663 9.37369,5.09077 9.37369,5.09077"></path></g><g stroke="none" stroke-width="0" stroke-linecap="butt"><path d="M331.29819,120.64933c0,0 1.63539,8.36566 1.63539,10.7951c0,2.42946 -1.22273,8.93815 -1.22273,8.93815c0,0 -0.39192,-5.88972 -0.39192,-8.31916c0,-2.42944 -0.02074,-11.41409 -0.02074,-11.41409z" fill="url(#color-1)"></path><path d="M331.63916,124.44943c0,0 1.01441,5.96125 1.01441,7.69244c0,1.7312 -0.72035,6.3692 -0.72035,6.3692c0,0 -0.27927,-4.19693 -0.27927,-5.92812c0,-1.73119 -0.01478,-8.13352 -0.01478,-8.13352z" fill="#ff000c"></path></g><g stroke="none" stroke-width="0" stroke-linecap="butt"><path d="M354.43715,121.316c0,0 1.38677,7.09384 1.38677,9.15395c0,2.06011 -1.03685,7.5793 -1.03685,7.5793c0,0 -0.33234,-4.99432 -0.33234,-7.05442c0,-2.0601 -0.01759,-9.67883 -0.01759,-9.67883z" fill="url(#color-2)"></path><path d="M354.72628,124.53837c0,0 0.86019,5.05497 0.86019,6.52297c0,1.46801 -0.61084,5.40091 -0.61084,5.40091c0,0 -0.23682,-3.55888 -0.23682,-5.02688c0,-1.468 -0.01253,-6.897 -0.01253,-6.897z" fill="#ff000c"></path></g></g></g></g></g></svg>