<svg version="1.1" xmlns="http://www.w3.org/2000/svg" xmlns:xlink="http://www.w3.org/1999/xlink" width="927.92793" height="631.8894" viewBox="0,0,927.92793,631.8894"><defs><linearGradient x1="240.00002" y1="331.59986" x2="240.00002" y2="467.41617" gradientUnits="userSpaceOnUse" id="color-1"><stop offset="0" stop-color="#040000" stop-opacity="0"/><stop offset="1" stop-color="#040000" stop-opacity="0.61702"/></linearGradient><linearGradient x1="240.00002" y1="-68.51773" x2="240.00002" y2="-164.47323" gradientUnits="userSpaceOnUse" id="color-2"><stop offset="0" stop-color="#040000" stop-opacity="0"/><stop offset="1" stop-color="#040000" stop-opacity="0.61702"/></linearGradient><linearGradient x1="240.00002" y1="33.56988" x2="240.00002" y2="467.41617" gradientUnits="userSpaceOnUse" id="color-3"><stop offset="0" stop-color="#800000" stop-opacity="0"/><stop offset="1" stop-color="#800000" stop-opacity="0.73387"/></linearGradient><linearGradient x1="230.2403" y1="-83.17714" x2="230.2403" y2="237.83903" gradientUnits="userSpaceOnUse" id="color-4"><stop offset="0" stop-color="#9a4a8b"/><stop offset="1" stop-color="#a14f93"/></linearGradient><linearGradient x1="240.00007" y1="202.40795" x2="240.00007" y2="356.67666" gradientUnits="userSpaceOnUse" id="color-5"><stop offset="0" stop-color="#9e2a89"/><stop offset="1" stop-color="#8d317c"/></linearGradient></defs><g transform="translate(233.72367,164.47323)"><g data-paper-data="{&quot;isPaintingLayer&quot;:true}" fill-rule="nonzero" stroke-linejoin="miter" stroke-miterlimit="10" stroke-dasharray="" stroke-dashoffset="0" style="mix-blend-mode: normal"><g stroke="none" stroke-width="0" stroke-linecap="butt"><path d="M-181.25958,467.41617v-135.81631h842.5192v135.81631z" fill="url(#color-1)"/><path d="M661.25961,-164.47323v95.9555h-842.5192v-95.9555z" data-paper-data="{&quot;index&quot;:null}" fill="url(#color-2)"/></g><path d="M-181.25958,467.41617v-433.84629h842.5192v433.84629z" fill="url(#color-3)" stroke="none" stroke-width="0" stroke-linecap="butt"/><path d="M-165.83362,237.83903l45.66337,-90.06981l60.48858,10.67193l6.77096,-11.82111l44.12096,23.97848l53.70591,-19.6378l20.93112,-14.96267l20.31753,9.87193l73.15533,-36.96557l-9.87472,-9.56749l29.40484,-2.70277l73.63429,-36.52609l-16.98058,-9.2126l45.94627,-10.06731l89.06875,-64.24145l-11.06148,27.78231l13.3126,0.80693l6.35826,-43.84196l-13.81223,-10.30433l16.46277,-37.56299l244.53527,3.35623v321.01617z" fill="#53334d" stroke="none" stroke-width="0" stroke-linecap="butt"/><path d="M-165.83362,237.83903l46.42227,-85.88279l63.21887,10.32301l4.32853,-10.42544l43.0742,23.62956l54.75267,-21.73131l20.93112,-13.21808l17.17726,9.17409l84.66964,-43.59502l-15.45741,-5.72939l26.61349,0.4375l76.77456,-42.80662l-15.58491,-5.72342l40.36358,-7.9738l87.32416,-63.54361l-15.2485,26.73555l23.08231,1.15585l5.3115,-50.82033l-9.97413,-7.16406l12.97359,-36.16732l241.395,2.30947v321.01617z" fill="url(#color-4)" stroke="none" stroke-width="0" stroke-linecap="butt"/><path d="M-233.72366,356.67666l75.07508,-154.26872h798.7988l54.05405,154.26872z" fill="url(#color-5)" stroke="none" stroke-width="0" stroke-linecap="butt"/><path d="M-233.72366,370.19017l75.07508,-13.51351h798.7988l54.05405,13.51351z" fill="#500842" stroke="none" stroke-width="0" stroke-linecap="butt"/><path d="M-186.67431,371.95079h853.34873" fill="none" stroke="#787890" stroke-width="3.5" stroke-linecap="round"/><g fill="none" stroke="#787890" stroke-width="3.5" stroke-linecap="round"><g><g><g><path d="M73.90846,409.53948v-36.3338"/><path d="M75.42633,372.96932l35.63057,32.11439"/><path d="M74.25428,398.05136l28.83263,-24.61322"/></g><path d="M32.11428,373.0875v36.3338"/><path d="M36.87142,405.08371l35.63056,-32.11439"/><path d="M73.67406,398.05136l-28.83263,-24.61322"/></g><g data-paper-data="{&quot;index&quot;:null}"><g><path d="M157.57842,409.53949v-36.3338"/><path d="M159.09628,372.96932l35.63056,32.11439"/><path d="M157.92422,398.05136l28.83263,-24.61322"/></g><path d="M115.78422,373.0875v36.3338"/><path d="M120.54136,405.08372l35.63056,-32.1144"/><path d="M157.344,398.05136l-28.83263,-24.61322"/></g><g><g><path d="M-93.56492,373.20569v36.3338"/><path d="M-56.41647,405.08372l-35.63056,-32.1144"/><path d="M-93.2191,398.05136l28.83263,-24.61322"/></g><path d="M-135.35908,409.4213v-36.3338"/><path d="M-130.60194,405.08371l35.63057,-32.11439"/><path d="M-93.79933,398.05136l-28.83263,-24.61322"/></g><g data-paper-data="{&quot;index&quot;:null}"><g><path d="M-9.89498,409.53949v-36.3338"/><path d="M-8.37711,372.96932l35.63057,32.11439"/><path d="M-9.54917,398.05136l28.83263,-24.61322"/></g><path d="M-51.68916,373.0875v36.3338"/><path d="M-46.93202,405.08372l35.63057,-32.1144"/><path d="M-38.96202,373.43814l28.83263,24.61322"/></g></g><g><g><path d="M408.76625,373.20569v36.3338"/><path d="M410.2841,372.96932l35.63056,32.1144"/><path d="M437.94466,373.43814l-28.83263,24.61322"/></g><path d="M366.97203,373.0875v36.3338"/><path d="M371.72917,405.08371l35.63057,-32.11439"/><path d="M408.53183,398.05136l-28.83263,-24.61322"/></g><g data-paper-data="{&quot;index&quot;:null}"><g><path d="M492.43615,373.20569v36.3338"/><path d="M529.5846,405.08371l-35.63057,-32.11439"/><path d="M492.78197,398.05136l28.83263,-24.61322"/></g><path d="M450.64197,409.4213v-36.3338"/><path d="M455.39913,405.08372l35.63057,-32.1144"/><path d="M492.20173,398.05136l-28.83263,-24.61322"/></g><g><g><path d="M241.29285,409.53949v-36.3338"/><path d="M278.44124,405.08372l-35.63056,-32.1144"/><path d="M270.47128,373.43814l-28.83263,24.61322"/></g><path d="M199.49865,409.4213v-36.3338"/><path d="M239.88635,372.96932l-35.63056,32.11439"/><path d="M212.2258,373.43814l28.83263,24.61322"/></g><g data-paper-data="{&quot;index&quot;:null}"><g><path d="M324.96276,373.20569v36.3338"/><path d="M326.48066,372.96932l35.63056,32.11439"/><path d="M325.30862,398.05136l28.83263,-24.61322"/></g><path d="M283.16862,409.4213v-36.3338"/><path d="M323.5563,372.96932l-35.63056,32.1144"/><path d="M295.89574,373.43814l28.83263,24.61322"/></g><g data-paper-data="{&quot;index&quot;:null}"><g><path d="M578.2107,409.53949v-36.3338"/><path d="M579.72861,372.96932l35.63056,32.11439"/><path d="M607.38918,373.43814l-28.83263,24.61322"/></g><path d="M536.41654,409.4213v-36.3338"/><path d="M576.80425,372.96932l-35.63056,32.1144"/><path d="M549.14368,373.43814l28.83263,24.61322"/></g></g><g stroke="#000000" stroke-width="1.5"><g><path d="M527.61803,226.68519c0,0 -104.49755,1.34931 -105.88193,0.39924c-1.65212,-1.13381 -4.04227,-3.95649 -5.04847,-4.76174c-1.16037,-0.92863 -2.83266,-3.52669 -2.83266,-5.75613c0,-15.67433 0,-79.28023 0,-90.02094c0,-2.99208 2.36157,-5.94679 5.18655,-5.96495c11.21523,-0.07209 84.23125,-0.54137 100.2756,-0.64449c1.99946,-0.01285 4.7608,1.39234 5.7439,2.23555c1.25505,1.07646 4.28592,4.02497 4.28592,4.02497z" fill="#37515d" stroke-linecap="round"/><path d="M419.7866,223.54492c0,-17.99555 0,-83.88391 0,-94.20796c0,-2.66404 2.73754,-4.88485 5.93161,-4.88485c11.47352,0 79.86315,0 99.44173,0c3.3177,0 5.23378,2.04493 5.23378,4.53593c0,9.91691 0,74.83053 0,93.85904c0,3.31189 -2.20445,5.23378 -4.88486,5.23378c-10.44524,0 -77.57147,0 -99.09281,0c-4.17136,0 -6.62945,-1.65367 -6.62945,-4.53594z" fill="#8283a3" stroke-linecap="butt"/><path d="M426.41603,218.31114c0,-14.15064 0,-77.59776 0,-85.485c0,-1.57995 1.03853,-2.79135 2.44242,-2.79135c7.90451,0 79.01095,0 93.1612,0c1.57324,0 2.44244,1.2114 2.44244,2.79135c0,7.82416 0,70.32306 0,85.13608c0,2.00846 -1.5379,3.14027 -3.48919,3.14027c-8.91709,0 -75.04468,0 -91.06769,0c-2.22972,0 -3.48918,-1.00121 -3.48918,-2.79135z" fill="#37515d" stroke-linecap="butt"/><path d="M474.21494,162.03817c2.52735,-2.05692 5.06657,-1.2912 8.03949,-1.27072c0.91177,0.00628 2.43465,-0.17592 3.01049,0.90427c1.20922,2.26835 -1.98234,4.60859 -3.17219,5.79844c-0.21311,0.21311 -3.18902,1.59249 -3.32075,1.59249c-0.55228,0 -1,-0.44771 -1,-1c0,-0.31149 1.11119,-1.39437 1.11119,-1.39437c1.04904,-1.25483 2.96734,-2.22637 2.35663,-3.1497c-0.33456,-0.50581 -3.74532,0.35325 -5.01902,0.6874c-1.63113,0.42792 -4.05868,2.51109 -5.83275,1.29637c-0.513,-0.35126 -0.08581,-1.58341 -0.68923,-1.73318c-0.5193,-0.12889 -2.13171,0.85938 -2.60829,0.97835c-0.50522,0.12613 -1.99872,0.26748 -2.06471,0.27991c-3.078,0.57993 -6.5482,0.07077 -4.40037,-3.75612c0,0 0.49614,-0.86824 1.36438,-0.3721c0.86825,0.49614 0.3721,1.36438 0.3721,1.36438c-0.2222,0.38003 -0.588,0.67056 -0.77604,1.0686c-0.16001,0.33872 0.73867,-0.15013 1.11326,-0.15382c0.53961,-0.0053 2.12026,-0.52828 2.12026,-0.52828c1.90884,-2.28741 3.79412,-4.52693 6.61213,-5.39832c0,0 1.26315,-0.46635 1.4109,-0.46635c0.55228,0 0.95639,0.44338 1.06809,1.03707c0.1117,0.59369 -0.6655,1.10268 -0.6655,1.10268c-0.85333,1.02399 -1.1443,1.77111 -2.13315,2.71227c0.65429,0.3361 0.11347,1.64575 0.507,2.28849c0.04024,0.06572 2.59609,-1.88777 2.59609,-1.88777z" fill="#fed03f" stroke-linecap="butt"/></g><g><path d="M527.61802,121.11177c0,0 -104.49755,1.34931 -105.88193,0.39924c-1.65212,-1.13381 -4.04227,-3.95649 -5.04847,-4.76174c-1.16037,-0.92863 -2.83266,-3.52669 -2.83266,-5.75613c0,-15.67433 0,-79.28023 0,-90.02094c0,-2.99208 2.36157,-5.94679 5.18655,-5.96495c11.21523,-0.07209 84.23125,-0.54137 100.2756,-0.64449c1.99946,-0.01285 4.7608,1.39234 5.7439,2.23555c1.25505,1.07646 4.28592,4.02497 4.28592,4.02497z" fill="#37515d" stroke-linecap="round"/><path d="M419.78657,117.9715c0,-17.99555 0,-83.88391 0,-94.20796c0,-2.66404 2.73754,-4.88485 5.93161,-4.88485c11.47352,0 79.86315,0 99.44173,0c3.3177,0 5.23378,2.04493 5.23378,4.53593c0,9.91691 0,74.83053 0,93.85904c0,3.31189 -2.20445,5.23378 -4.88486,5.23378c-10.44524,0 -77.57147,0 -99.09281,0c-4.17136,0 -6.62945,-1.65367 -6.62945,-4.53594z" fill="#8283a3" stroke-linecap="butt"/><path d="M426.41602,112.73772c0,-14.15064 0,-77.59776 0,-85.485c0,-1.57995 1.03853,-2.79135 2.44242,-2.79135c7.90451,0 79.01095,0 93.1612,0c1.57324,0 2.44244,1.2114 2.44244,2.79135c0,7.82416 0,70.32306 0,85.13608c0,2.00846 -1.5379,3.14027 -3.48919,3.14027c-8.91709,0 -75.04468,0 -91.06769,0c-2.22972,0 -3.48918,-1.00121 -3.48918,-2.79135z" fill="#37515d" stroke-linecap="butt"/><path d="M474.21494,56.46475c2.52735,-2.05692 5.06657,-1.2912 8.0395,-1.27072c0.91177,0.00628 2.43465,-0.17593 3.01048,0.90427c1.20922,2.26836 -1.98234,4.6086 -3.17218,5.79844c-0.21311,0.21311 -3.18902,1.59249 -3.32075,1.59249c-0.55228,0 -1,-0.44772 -1,-1c0,-0.31149 1.11119,-1.39437 1.11119,-1.39437c1.04904,-1.25483 2.96734,-2.22637 2.35662,-3.14971c-0.33455,-0.50581 -3.74532,0.35326 -5.01902,0.68741c-1.63113,0.42792 -4.05869,2.51108 -5.83276,1.29636c-0.513,-0.35126 -0.08581,-1.58341 -0.68924,-1.73318c-0.5193,-0.12889 -2.13171,0.85938 -2.60829,0.97835c-0.50523,0.12613 -1.99872,0.26748 -2.06471,0.27991c-3.078,0.57993 -6.5482,0.07077 -4.40038,-3.75613c0,0 0.49614,-0.86824 1.36438,-0.3721c0.86824,0.49614 0.3721,1.36438 0.3721,1.36438c-0.2222,0.38003 -0.588,0.67056 -0.77604,1.06861c-0.16001,0.33872 0.73867,-0.15013 1.11326,-0.15382c0.53961,-0.00531 2.12026,-0.52827 2.12026,-0.52827c1.90884,-2.28741 3.79413,-4.52693 6.61213,-5.39833c0,0 1.26314,-0.46635 1.4109,-0.46635c0.55228,0 0.95639,0.44339 1.06809,1.03708c0.1117,0.59369 -0.6655,1.10268 -0.6655,1.10268c-0.85333,1.024 -1.1443,1.7711 -2.13315,2.71226c0.65429,0.3361 0.11347,1.64575 0.507,2.28849c0.04024,0.06573 2.5961,-1.88777 2.5961,-1.88777z" fill="#fed03f" stroke-linecap="butt"/></g><g><g><path d="M527.61803,15.30654c0,0 -104.49755,0.63503 -105.88193,0.18789c-1.65212,-0.53361 -4.04227,-1.86205 -5.04847,-2.24103c-1.16037,-0.43705 -2.83266,-1.65978 -2.83266,-2.70902c0,-7.37686 0,-37.31189 0,-42.36682c0,-1.40818 2.36157,-2.79875 5.18655,-2.8073c11.21523,-0.03393 84.23125,-0.25478 100.2756,-0.30332c1.99946,-0.00605 4.7608,0.65529 5.7439,1.05212c1.25505,0.50661 4.28592,1.89428 4.28592,1.89428z" fill="#37515d" stroke-linecap="round"/><path d="M419.7866,13.82863c0,-8.4693 0,-39.47853 0,-44.33737c0,-1.25378 2.73754,-2.29898 5.93161,-2.29898c11.47352,0 79.86315,0 99.44173,0c3.3177,0 5.23378,0.96242 5.23378,2.13476c0,4.66722 0,35.21771 0,44.17315c0,1.55868 -2.20445,2.46318 -4.88486,2.46318c-10.44524,0 -77.57147,0 -99.09281,0c-4.17136,0 -6.62945,-0.77827 -6.62945,-2.13476z" fill="#8283a3" stroke-linecap="butt"/><path d="M426.41603,11.36543c0,-6.65975 0,-36.52006 0,-40.23205c0,-0.74357 1.03853,-1.3137 2.44242,-1.3137c7.90451,0 79.01095,0 93.1612,0c1.57324,0 2.44244,0.57012 2.44244,1.3137c0,3.68231 0,33.09635 0,40.06785c0,0.94525 -1.5379,1.47791 -3.48919,1.47791c-8.91709,0 -75.04468,0 -91.06769,0c-2.22972,0 -3.48918,-0.47121 -3.48918,-1.3137z" fill="#37515d" stroke-linecap="butt"/></g><path d="M474.21494,-13.43701c2.52735,-2.10799 5.06657,-1.32326 8.03949,-1.30227c0.91177,0.00644 2.43465,-0.18029 3.01049,0.92672c1.20922,2.32467 -1.98234,4.72301 -3.17219,5.9424c-0.21311,0.2184 -3.18902,1.63204 -3.32075,1.63204c-0.55228,0 -1,-0.45884 -1,-1.02483c0,-0.31921 1.11119,-1.42899 1.11119,-1.42899c1.04904,-1.28598 2.96734,-2.28165 2.35663,-3.2279c-0.33456,-0.51837 -3.74532,0.36202 -5.01902,0.70447c-1.63113,0.43854 -4.05868,2.57343 -5.83275,1.32855c-0.513,-0.35998 -0.08581,-1.62272 -0.68923,-1.77621c-0.5193,-0.13209 -2.13171,0.88072 -2.60829,1.00265c-0.50522,0.12926 -1.99872,0.27411 -2.06471,0.28686c-3.078,0.59433 -6.5482,0.07253 -4.40037,-3.84938c0,0 0.49614,-0.8898 1.36438,-0.38134c0.86825,0.50846 0.3721,1.39825 0.3721,1.39825c-0.2222,0.38947 -0.588,0.68721 -0.77604,1.09513c-0.16001,0.34713 0.73867,-0.15386 1.11326,-0.15764c0.53961,-0.00543 2.12026,-0.5414 2.12026,-0.5414c1.90884,-2.3442 3.79412,-4.63932 6.61213,-5.53236c0,0 1.26315,-0.47793 1.4109,-0.47793c0.55228,0 0.95639,0.45439 1.06809,1.06283c0.1117,0.60843 -0.6655,1.13006 -0.6655,1.13006c-0.85333,1.04942 -1.1443,1.81508 -2.13315,2.77961c0.65429,0.34444 0.11347,1.68661 0.507,2.34531c0.04024,0.06736 2.59609,-1.93463 2.59609,-1.93463z" fill="#fed03f" stroke-linecap="butt"/><g stroke-linecap="butt"><path d="M426.72718,11.57141c0,-2.60368 0,-16.14266 0,-16.14266h97.65977c0,0 0,12.44727 0,15.22022c0,1.04277 -0.53866,1.85185 -1.80001,1.86393c-12.35156,0.11822 -80.51671,1.18656 -93.76332,0.52102c-1.44966,-0.07283 -2.09644,-1.38022 -2.09644,-1.46251z" fill="#fed03f"/><path d="M457.48025,5.2681c0,-1.69816 1.34328,-3.07479 3.0003,-3.07479c1.65702,0 3.0003,1.37663 3.0003,3.07479c0,1.69816 -1.34328,3.07479 -3.0003,3.07479c-1.65702,0 -3.0003,-1.37663 -3.0003,-3.07479z" fill="#fed03f"/><path d="M468.73139,5.2681c0,-1.69816 1.34328,-3.07479 3.0003,-3.07479c1.65702,0 3.0003,1.37663 3.0003,3.07479c0,1.69816 -1.34328,3.07479 -3.0003,3.07479c-1.65702,0 -3.0003,-1.37663 -3.0003,-3.07479z" fill="#fed03f"/><path d="M478.78239,5.2681c0,-1.69816 1.34328,-3.07479 3.0003,-3.07479c1.65702,0 3.0003,1.37663 3.0003,3.07479c0,1.69816 -1.34328,3.07479 -3.0003,3.07479c-1.65702,0 -3.0003,-1.37663 -3.0003,-3.07479z" fill="#fed03f"/><path d="M488.08334,5.2681c0,-1.69816 1.34328,-3.07479 3.0003,-3.07479c1.65702,0 3.0003,1.37663 3.0003,3.07479c0,1.69816 -1.34328,3.07479 -3.0003,3.07479c-1.65702,0 -3.0003,-1.37663 -3.0003,-3.07479z" fill="#fed03f"/><path d="M498.73438,5.2681c0,-1.69816 1.34328,-3.07479 3.0003,-3.07479c1.65702,0 3.0003,1.37663 3.0003,3.07479c0,1.69816 -1.34328,3.07479 -3.0003,3.07479c-1.65702,0 -3.0003,-1.37663 -3.0003,-3.07479z" fill="#fed03f"/><path d="M513.7359,5.2681c0,-1.69816 1.34328,-3.07479 3.0003,-3.07479c1.65702,0 3.0003,1.37663 3.0003,3.07479c0,1.69816 -1.34328,3.07479 -3.0003,3.07479c-1.65702,0 -3.0003,-1.37663 -3.0003,-3.07479z" fill="#000000"/><path d="M441.87869,5.2681c0,-1.69816 1.34328,-3.07479 3.0003,-3.07479c1.65702,0 3.0003,1.37663 3.0003,3.07479c0,1.69816 -1.34328,3.07479 -3.0003,3.07479c-1.65702,0 -3.0003,-1.37663 -3.0003,-3.07479z" fill="#3ea750"/><path d="M428.37734,5.2681c0,-1.69816 1.34328,-3.07479 3.0003,-3.07479c1.65702,0 3.0003,1.37663 3.0003,3.07479c0,1.69816 -1.34328,3.07479 -3.0003,3.07479c-1.65702,0 -3.0003,-1.37663 -3.0003,-3.07479z" fill="#d14f4f"/></g></g><path d="M442.0649,135.80217c0.30094,-20.24531 -0.43645,-53.29204 -0.33071,-81.13226c0.1044,-27.4903 1.4589,-48.29032 1.66618,-49.59796c0.42148,-2.65884 3.10251,-1.24716 3.55024,0.06575c0.46443,1.36187 -1.13575,22.01002 -0.9331,49.54625c0.20766,28.21777 1.87426,61.84813 1.57232,82.35228c-0.51364,34.88073 -2.88305,96.1855 -1.93785,97.47788c0.72208,0.98732 2.58535,4.29442 5.84956,4.31973c13.85825,0.10742 50.77536,-3.39218 63.65488,-3.39669c3.44,-0.0012 14.79006,1.81916 24.39816,1.76266c10.29309,-0.06053 75.03017,-3.60587 75.03017,-3.60587l-0.01605,2.99883c0,0 -66.72018,3.61137 -72.21003,4.10107c-9.58553,0.85503 -24.77214,-1.8574 -24.81881,-1.88073c-0.52745,-0.26373 -53.82019,6.59094 -67.89983,3.57646c-4.97434,-1.06501 -8.3338,-6.25716 -9.68853,-9.1283c-0.53949,-1.14336 1.60269,-63.10219 2.1134,-97.4591z" fill="#fed03f" stroke-linecap="butt"/></g><g stroke="#000000" stroke-width="1.5"><g><path d="M411.36788,226.68519c0,0 -104.49755,1.34931 -105.88193,0.39924c-1.65212,-1.13381 -4.04227,-3.95649 -5.04847,-4.76174c-1.16037,-0.92863 -2.83266,-3.52669 -2.83266,-5.75613c0,-15.67433 0,-79.28023 0,-90.02094c0,-2.99208 2.36157,-5.94679 5.18655,-5.96495c11.21523,-0.07209 84.23125,-0.54137 100.2756,-0.64449c1.99946,-0.01285 4.7608,1.39234 5.7439,2.23555c1.25505,1.07646 4.28592,4.02497 4.28592,4.02497z" fill="#37515d" stroke-linecap="round"/><path d="M303.53642,223.54492c0,-17.99555 0,-83.88391 0,-94.20796c0,-2.66404 2.73754,-4.88485 5.93161,-4.88485c11.47352,0 79.86315,0 99.44173,0c3.3177,0 5.23378,2.04493 5.23378,4.53593c0,9.91691 0,74.83053 0,93.85904c0,3.31189 -2.20445,5.23378 -4.88486,5.23378c-10.44524,0 -77.57147,0 -99.09281,0c-4.17136,0 -6.62945,-1.65367 -6.62945,-4.53594z" fill="#8283a3" stroke-linecap="butt"/><path d="M310.16588,218.31114c0,-14.15064 0,-77.59776 0,-85.485c0,-1.57995 1.03853,-2.79135 2.44242,-2.79135c7.90451,0 79.01095,0 93.1612,0c1.57324,0 2.44244,1.2114 2.44244,2.79135c0,7.82416 0,70.32306 0,85.13608c0,2.00846 -1.5379,3.14027 -3.48919,3.14027c-8.91709,0 -75.04468,0 -91.06769,0c-2.22972,0 -3.48918,-1.00121 -3.48918,-2.79135z" fill="#37515d" stroke-linecap="butt"/><path d="M357.96482,162.03817c2.52735,-2.05692 5.06657,-1.2912 8.03949,-1.27072c0.91177,0.00628 2.43465,-0.17592 3.01049,0.90427c1.20922,2.26835 -1.98234,4.60859 -3.17219,5.79844c-0.21311,0.21311 -3.18902,1.59249 -3.32075,1.59249c-0.55228,0 -1,-0.44771 -1,-1c0,-0.31149 1.11119,-1.39437 1.11119,-1.39437c1.04904,-1.25483 2.96734,-2.22637 2.35663,-3.1497c-0.33456,-0.50581 -3.74532,0.35325 -5.01902,0.6874c-1.63113,0.42792 -4.05868,2.51109 -5.83275,1.29637c-0.513,-0.35126 -0.08581,-1.58341 -0.68923,-1.73318c-0.5193,-0.12889 -2.13171,0.85938 -2.60829,0.97835c-0.50522,0.12613 -1.99872,0.26748 -2.06471,0.27991c-3.078,0.57993 -6.5482,0.07077 -4.40037,-3.75612c0,0 0.49614,-0.86824 1.36438,-0.3721c0.86825,0.49614 0.3721,1.36438 0.3721,1.36438c-0.2222,0.38003 -0.588,0.67056 -0.77604,1.0686c-0.16001,0.33872 0.73867,-0.15013 1.11326,-0.15382c0.53961,-0.0053 2.12026,-0.52828 2.12026,-0.52828c1.90884,-2.28741 3.79412,-4.52693 6.61213,-5.39832c0,0 1.26315,-0.46635 1.4109,-0.46635c0.55228,0 0.95639,0.44338 1.06809,1.03707c0.1117,0.59369 -0.6655,1.10268 -0.6655,1.10268c-0.85333,1.02399 -1.1443,1.77111 -2.13315,2.71227c0.65429,0.3361 0.11347,1.64575 0.507,2.28849c0.04024,0.06572 2.59609,-1.88777 2.59609,-1.88777z" fill="#fed03f" stroke-linecap="butt"/></g><g><path d="M411.36788,121.11177c0,0 -104.49755,1.34931 -105.88193,0.39924c-1.65212,-1.13381 -4.04227,-3.95649 -5.04847,-4.76174c-1.16037,-0.92863 -2.83266,-3.52669 -2.83266,-5.75613c0,-15.67433 0,-79.28023 0,-90.02094c0,-2.99208 2.36157,-5.94679 5.18655,-5.96495c11.21523,-0.07209 84.23125,-0.54137 100.2756,-0.64449c1.99946,-0.01285 4.7608,1.39234 5.7439,2.23555c1.25505,1.07646 4.28592,4.02497 4.28592,4.02497z" fill="#37515d" stroke-linecap="round"/><path d="M303.53642,117.9715c0,-17.99555 0,-83.88391 0,-94.20796c0,-2.66404 2.73754,-4.88485 5.93161,-4.88485c11.47352,0 79.86315,0 99.44173,0c3.3177,0 5.23378,2.04493 5.23378,4.53593c0,9.91691 0,74.83053 0,93.85904c0,3.31189 -2.20445,5.23378 -4.88486,5.23378c-10.44524,0 -77.57147,0 -99.09281,0c-4.17136,0 -6.62945,-1.65367 -6.62945,-4.53594z" fill="#8283a3" stroke-linecap="butt"/><path d="M310.16586,112.73772c0,-14.15064 0,-77.59776 0,-85.485c0,-1.57995 1.03853,-2.79135 2.44242,-2.79135c7.90451,0 79.01095,0 93.1612,0c1.57324,0 2.44244,1.2114 2.44244,2.79135c0,7.82416 0,70.32306 0,85.13608c0,2.00846 -1.5379,3.14027 -3.48919,3.14027c-8.91709,0 -75.04468,0 -91.06769,0c-2.22972,0 -3.48918,-1.00121 -3.48918,-2.79135z" fill="#37515d" stroke-linecap="butt"/><path d="M357.96479,56.46475c2.52735,-2.05692 5.06657,-1.2912 8.0395,-1.27072c0.91177,0.00628 2.43465,-0.17593 3.01048,0.90427c1.20922,2.26836 -1.98234,4.6086 -3.17218,5.79844c-0.21311,0.21311 -3.18902,1.59249 -3.32075,1.59249c-0.55228,0 -1,-0.44772 -1,-1c0,-0.31149 1.11119,-1.39437 1.11119,-1.39437c1.04904,-1.25483 2.96734,-2.22637 2.35662,-3.14971c-0.33455,-0.50581 -3.74532,0.35326 -5.01902,0.68741c-1.63113,0.42792 -4.05869,2.51108 -5.83276,1.29636c-0.513,-0.35126 -0.08581,-1.58341 -0.68924,-1.73318c-0.5193,-0.12889 -2.13171,0.85938 -2.60829,0.97835c-0.50523,0.12613 -1.99872,0.26748 -2.06471,0.27991c-3.078,0.57993 -6.5482,0.07077 -4.40038,-3.75613c0,0 0.49614,-0.86824 1.36438,-0.3721c0.86824,0.49614 0.3721,1.36438 0.3721,1.36438c-0.2222,0.38003 -0.588,0.67056 -0.77604,1.06861c-0.16001,0.33872 0.73867,-0.15013 1.11326,-0.15382c0.53961,-0.00531 2.12026,-0.52827 2.12026,-0.52827c1.90884,-2.28741 3.79413,-4.52693 6.61213,-5.39833c0,0 1.26314,-0.46635 1.4109,-0.46635c0.55228,0 0.95639,0.44339 1.06809,1.03708c0.1117,0.59369 -0.6655,1.10268 -0.6655,1.10268c-0.85333,1.024 -1.1443,1.7711 -2.13315,2.71226c0.65429,0.3361 0.11347,1.64575 0.507,2.28849c0.04024,0.06573 2.5961,-1.88777 2.5961,-1.88777z" fill="#fed03f" stroke-linecap="butt"/></g><g><g><path d="M411.36788,15.30655c0,0 -104.49755,0.63504 -105.88193,0.18789c-1.65212,-0.5336 -4.04227,-1.86205 -5.04847,-2.24103c-1.16037,-0.43705 -2.83266,-1.65979 -2.83266,-2.70903c0,-7.37685 0,-37.31189 0,-42.36682c0,-1.40817 2.36157,-2.79875 5.18655,-2.8073c11.21523,-0.03393 84.23125,-0.25478 100.2756,-0.30332c1.99946,-0.00605 4.7608,0.65528 5.7439,1.05212c1.25505,0.50662 4.28592,1.89428 4.28592,1.89428z" fill="#37515d" stroke-linecap="round"/><path d="M303.53642,13.82863c0,-8.4693 0,-39.47853 0,-44.33737c0,-1.25379 2.73754,-2.29898 5.93161,-2.29898c11.47352,0 79.86315,0 99.44173,0c3.3177,0 5.23378,0.96242 5.23378,2.13476c0,4.66722 0,35.21771 0,44.17315c0,1.55868 -2.20445,2.46318 -4.88486,2.46318c-10.44524,0 -77.57147,0 -99.09281,0c-4.17136,0 -6.62945,-0.77827 -6.62945,-2.13475z" fill="#8283a3" stroke-linecap="butt"/><path d="M310.16588,11.36544c0,-6.65975 0,-36.52007 0,-40.23206c0,-0.74357 1.03853,-1.31369 2.44242,-1.31369c7.90451,0 79.01095,0 93.1612,0c1.57324,0 2.44244,0.57012 2.44244,1.31369c0,3.68231 0,33.09635 0,40.06785c0,0.94525 -1.5379,1.47791 -3.48919,1.47791c-8.91709,0 -75.04468,0 -91.06769,0c-2.22972,0 -3.48918,-0.47121 -3.48918,-1.3137z" fill="#37515d" stroke-linecap="butt"/></g><path d="M357.96482,-13.43701c2.52735,-2.10799 5.06657,-1.32326 8.03949,-1.30227c0.91177,0.00643 2.43465,-0.18028 3.01049,0.92673c1.20922,2.32467 -1.98234,4.72301 -3.17219,5.9424c-0.21311,0.2184 -3.18902,1.63204 -3.32075,1.63204c-0.55228,0 -1,-0.45884 -1,-1.02483c0,-0.31921 1.11119,-1.42899 1.11119,-1.42899c1.04904,-1.28599 2.96734,-2.28165 2.35663,-3.2279c-0.33456,-0.51837 -3.74532,0.36203 -5.01902,0.70447c-1.63113,0.43854 -4.05868,2.57343 -5.83275,1.32855c-0.513,-0.35998 -0.08581,-1.62272 -0.68923,-1.77621c-0.5193,-0.13209 -2.13171,0.88072 -2.60829,1.00265c-0.50522,0.12926 -1.99872,0.27411 -2.06471,0.28686c-3.078,0.59433 -6.5482,0.07253 -4.40037,-3.84938c0,0 0.49614,-0.88979 1.36438,-0.38133c0.86825,0.50846 0.3721,1.39826 0.3721,1.39826c-0.2222,0.38946 -0.588,0.6872 -0.77604,1.09513c-0.16001,0.34713 0.73867,-0.15386 1.11326,-0.15764c0.53961,-0.00543 2.12026,-0.54139 2.12026,-0.54139c1.90884,-2.3442 3.79412,-4.63932 6.61213,-5.53236c0,0 1.26315,-0.47793 1.4109,-0.47793c0.55228,0 0.95639,0.45439 1.06809,1.06283c0.1117,0.60843 -0.6655,1.13005 -0.6655,1.13005c-0.85333,1.04942 -1.1443,1.81508 -2.13315,2.77961c0.65429,0.34445 0.11347,1.68661 0.507,2.34531c0.04024,0.06736 2.59609,-1.93463 2.59609,-1.93463z" fill="#fed03f" stroke-linecap="butt"/><g stroke-linecap="butt"><path d="M310.47703,11.57142c0,-2.60368 0,-16.14266 0,-16.14266h97.65977c0,0 0,12.44727 0,15.22022c0,1.04278 -0.53866,1.85186 -1.80001,1.86393c-12.35156,0.11823 -80.51671,1.18656 -93.76332,0.52102c-1.44966,-0.07283 -2.09644,-1.38021 -2.09644,-1.46251z" fill="#fed03f"/><path d="M341.2301,5.2681c0,-1.69816 1.34328,-3.07479 3.0003,-3.07479c1.65702,0 3.0003,1.37663 3.0003,3.07479c0,1.69816 -1.34328,3.0748 -3.0003,3.0748c-1.65702,0 -3.0003,-1.37664 -3.0003,-3.0748z" fill="#fed03f"/><path d="M352.48123,5.2681c0,-1.69816 1.34328,-3.07479 3.0003,-3.07479c1.65702,0 3.0003,1.37663 3.0003,3.07479c0,1.69816 -1.34328,3.0748 -3.0003,3.0748c-1.65702,0 -3.0003,-1.37664 -3.0003,-3.0748z" fill="#fed03f"/><path d="M362.53224,5.2681c0,-1.69816 1.34328,-3.07479 3.0003,-3.07479c1.65702,0 3.0003,1.37663 3.0003,3.07479c0,1.69816 -1.34328,3.0748 -3.0003,3.0748c-1.65702,0 -3.0003,-1.37664 -3.0003,-3.0748z" fill="#fed03f"/><path d="M371.83317,5.2681c0,-1.69816 1.34328,-3.07479 3.0003,-3.07479c1.65702,0 3.0003,1.37663 3.0003,3.07479c0,1.69816 -1.34328,3.0748 -3.0003,3.0748c-1.65702,0 -3.0003,-1.37664 -3.0003,-3.0748z" fill="#fed03f"/><path d="M382.48424,5.2681c0,-1.69816 1.34328,-3.07479 3.0003,-3.07479c1.65702,0 3.0003,1.37663 3.0003,3.07479c0,1.69816 -1.34328,3.0748 -3.0003,3.0748c-1.65702,0 -3.0003,-1.37664 -3.0003,-3.0748z" fill="#fed03f"/><path d="M397.48573,5.2681c0,-1.69816 1.34328,-3.07479 3.0003,-3.07479c1.65702,0 3.0003,1.37663 3.0003,3.07479c0,1.69816 -1.34328,3.0748 -3.0003,3.0748c-1.65702,0 -3.0003,-1.37664 -3.0003,-3.0748z" fill="#000000"/><path d="M325.62854,5.2681c0,-1.69816 1.34328,-3.07479 3.0003,-3.07479c1.65702,0 3.0003,1.37663 3.0003,3.07479c0,1.69816 -1.34328,3.0748 -3.0003,3.0748c-1.65702,0 -3.0003,-1.37664 -3.0003,-3.0748z" fill="#3ea750"/><path d="M312.12719,5.2681c0,-1.69816 1.34328,-3.07479 3.0003,-3.07479c1.65702,0 3.0003,1.37663 3.0003,3.07479c0,1.69816 -1.34328,3.0748 -3.0003,3.0748c-1.65702,0 -3.0003,-1.37664 -3.0003,-3.0748z" fill="#d14f4f"/></g></g><path d="M319.6068,135.5435c0.30094,-20.24531 5.51285,-53.03337 5.61859,-80.87359c0.1044,-27.4903 1.71757,-48.29032 1.92485,-49.59796c0.42148,-2.65884 3.10251,-1.24716 3.55024,0.06575c0.46443,1.36187 -1.13575,22.01002 -0.9331,49.54625c0.20766,28.21777 -5.8857,61.07213 -6.18764,81.57628c-0.21784,14.79356 5.37144,43.27438 4.5053,61.14069c-1.17608,24.25945 -8.79813,36.36893 -8.25381,37.11318c0.30062,0.41104 12.0829,2.45126 26.36201,2.57887c7.42132,0.06632 17.91722,-1.42722 27.92012,-2.03115c16.98003,-1.02518 33.51286,-1.43368 38.24352,-1.43534c3.44,-0.0012 184.44514,-1.06721 184.44514,-1.06721l1.01861,2.4815c0,0 -168.8089,0.50739 -174.29875,0.99709c-6.35814,0.56715 -27.19337,1.40822 -47.27131,2.3573c-10.19154,0.48175 -20.18796,1.56738 -27.99682,1.48022c-15.64244,-0.1746 -26.00595,-1.70357 -31.67709,-2.91778c-2.62049,-0.56105 4.94447,-19.14067 6.40055,-41.62165c1.30793,-20.1935 -3.61208,-43.53481 -3.37041,-59.79245z" fill="#079e1b" stroke-linecap="butt"/></g><g stroke="#000000" stroke-width="1.5"><g><path d="M292.56727,226.68519c0,0 -104.49755,1.34931 -105.88193,0.39924c-1.65212,-1.13381 -4.04227,-3.95649 -5.04847,-4.76174c-1.16037,-0.92863 -2.83266,-3.52669 -2.83266,-5.75613c0,-15.67433 0,-79.28023 0,-90.02094c0,-2.99208 2.36157,-5.94679 5.18655,-5.96495c11.21523,-0.07209 84.23125,-0.54137 100.2756,-0.64449c1.99946,-0.01285 4.7608,1.39234 5.7439,2.23555c1.25505,1.07646 4.28592,4.02497 4.28592,4.02497z" fill="#37515d" stroke-linecap="round"/><path d="M184.73582,223.54492c0,-17.99555 0,-83.88391 0,-94.20796c0,-2.66404 2.73754,-4.88485 5.93161,-4.88485c11.47352,0 79.86315,0 99.44173,0c3.3177,0 5.23378,2.04493 5.23378,4.53593c0,9.91691 0,74.83053 0,93.85904c0,3.31189 -2.20445,5.23378 -4.88486,5.23378c-10.44524,0 -77.57147,0 -99.09281,0c-4.17136,0 -6.62945,-1.65367 -6.62945,-4.53594z" fill="#8283a3" stroke-linecap="butt"/><path d="M191.36527,218.31114c0,-14.15064 0,-77.59776 0,-85.485c0,-1.57995 1.03853,-2.79135 2.44242,-2.79135c7.90451,0 79.01095,0 93.1612,0c1.57324,0 2.44244,1.2114 2.44244,2.79135c0,7.82416 0,70.32306 0,85.13608c0,2.00846 -1.5379,3.14027 -3.48919,3.14027c-8.91709,0 -75.04468,0 -91.06769,0c-2.22972,0 -3.48918,-1.00121 -3.48918,-2.79135z" fill="#37515d" stroke-linecap="butt"/><path d="M239.16418,162.03817c2.52735,-2.05692 5.06657,-1.2912 8.03949,-1.27072c0.91177,0.00628 2.43465,-0.17592 3.01049,0.90427c1.20922,2.26835 -1.98234,4.60859 -3.17219,5.79844c-0.21311,0.21311 -3.18902,1.59249 -3.32075,1.59249c-0.55228,0 -1,-0.44771 -1,-1c0,-0.31149 1.11119,-1.39437 1.11119,-1.39437c1.04904,-1.25483 2.96734,-2.22637 2.35663,-3.1497c-0.33456,-0.50581 -3.74532,0.35325 -5.01902,0.6874c-1.63113,0.42792 -4.05868,2.51109 -5.83275,1.29637c-0.513,-0.35126 -0.08581,-1.58341 -0.68923,-1.73318c-0.5193,-0.12889 -2.13171,0.85938 -2.60829,0.97835c-0.50522,0.12613 -1.99872,0.26748 -2.06471,0.27991c-3.078,0.57993 -6.5482,0.07077 -4.40037,-3.75612c0,0 0.49614,-0.86824 1.36438,-0.3721c0.86825,0.49614 0.3721,1.36438 0.3721,1.36438c-0.2222,0.38003 -0.588,0.67056 -0.77604,1.0686c-0.16001,0.33872 0.73867,-0.15013 1.11326,-0.15382c0.53961,-0.0053 2.12026,-0.52828 2.12026,-0.52828c1.90884,-2.28741 3.79412,-4.52693 6.61213,-5.39832c0,0 1.26315,-0.46635 1.4109,-0.46635c0.55228,0 0.95639,0.44338 1.06809,1.03707c0.1117,0.59369 -0.6655,1.10268 -0.6655,1.10268c-0.85333,1.02399 -1.1443,1.77111 -2.13315,2.71227c0.65429,0.3361 0.11347,1.64575 0.507,2.28849c0.04024,0.06572 2.59609,-1.88777 2.59609,-1.88777z" fill="#fed03f" stroke-linecap="butt"/></g><g><path d="M292.56725,121.11177c0,0 -104.49755,1.34931 -105.88193,0.39924c-1.65212,-1.13381 -4.04227,-3.95649 -5.04847,-4.76174c-1.16037,-0.92863 -2.83266,-3.52669 -2.83266,-5.75613c0,-15.67433 0,-79.28023 0,-90.02094c0,-2.99208 2.36157,-5.94679 5.18655,-5.96495c11.21523,-0.07209 84.23125,-0.54137 100.2756,-0.64449c1.99946,-0.01285 4.7608,1.39234 5.7439,2.23555c1.25505,1.07646 4.28592,4.02497 4.28592,4.02497z" fill="#37515d" stroke-linecap="round"/><path d="M184.73581,117.9715c0,-17.99555 0,-83.88391 0,-94.20796c0,-2.66404 2.73754,-4.88485 5.93161,-4.88485c11.47352,0 79.86315,0 99.44173,0c3.3177,0 5.23378,2.04493 5.23378,4.53593c0,9.91691 0,74.83053 0,93.85904c0,3.31189 -2.20445,5.23378 -4.88486,5.23378c-10.44524,0 -77.57147,0 -99.09281,0c-4.17136,0 -6.62945,-1.65367 -6.62945,-4.53594z" fill="#8283a3" stroke-linecap="butt"/><path d="M191.36526,112.73772c0,-14.15064 0,-77.59776 0,-85.485c0,-1.57995 1.03853,-2.79135 2.44242,-2.79135c7.90451,0 79.01095,0 93.1612,0c1.57324,0 2.44244,1.2114 2.44244,2.79135c0,7.82416 0,70.32306 0,85.13608c0,2.00846 -1.5379,3.14027 -3.48919,3.14027c-8.91709,0 -75.04468,0 -91.06769,0c-2.22972,0 -3.48918,-1.00121 -3.48918,-2.79135z" fill="#37515d" stroke-linecap="butt"/><path d="M239.16418,56.46475c2.52735,-2.05692 5.06657,-1.2912 8.0395,-1.27072c0.91177,0.00628 2.43465,-0.17593 3.01048,0.90427c1.20922,2.26836 -1.98234,4.6086 -3.17218,5.79844c-0.21311,0.21311 -3.18902,1.59249 -3.32075,1.59249c-0.55228,0 -1,-0.44772 -1,-1c0,-0.31149 1.11119,-1.39437 1.11119,-1.39437c1.04904,-1.25483 2.96734,-2.22637 2.35662,-3.14971c-0.33455,-0.50581 -3.74532,0.35326 -5.01902,0.68741c-1.63113,0.42792 -4.05869,2.51108 -5.83276,1.29636c-0.513,-0.35126 -0.08581,-1.58341 -0.68924,-1.73318c-0.5193,-0.12889 -2.13171,0.85938 -2.60829,0.97835c-0.50523,0.12613 -1.99872,0.26748 -2.06471,0.27991c-3.078,0.57993 -6.5482,0.07077 -4.40038,-3.75613c0,0 0.49614,-0.86824 1.36438,-0.3721c0.86824,0.49614 0.3721,1.36438 0.3721,1.36438c-0.2222,0.38003 -0.588,0.67056 -0.77604,1.06861c-0.16001,0.33872 0.73867,-0.15013 1.11326,-0.15382c0.53961,-0.00531 2.12026,-0.52827 2.12026,-0.52827c1.90884,-2.28741 3.79413,-4.52693 6.61213,-5.39833c0,0 1.26314,-0.46635 1.4109,-0.46635c0.55228,0 0.95639,0.44339 1.06809,1.03708c0.1117,0.59369 -0.6655,1.10268 -0.6655,1.10268c-0.85333,1.024 -1.1443,1.7711 -2.13315,2.71226c0.65429,0.3361 0.11347,1.64575 0.507,2.28849c0.04024,0.06573 2.5961,-1.88777 2.5961,-1.88777z" fill="#fed03f" stroke-linecap="butt"/></g><g><g><path d="M292.56727,15.30655c0,0 -104.49755,0.63504 -105.88193,0.18789c-1.65212,-0.5336 -4.04227,-1.86205 -5.04847,-2.24103c-1.16037,-0.43705 -2.83266,-1.65979 -2.83266,-2.70903c0,-7.37685 0,-37.31189 0,-42.36682c0,-1.40817 2.36157,-2.79875 5.18655,-2.8073c11.21523,-0.03393 84.23125,-0.25478 100.2756,-0.30332c1.99946,-0.00605 4.7608,0.65528 5.7439,1.05212c1.25505,0.50662 4.28592,1.89428 4.28592,1.89428z" fill="#37515d" stroke-linecap="round"/><path d="M184.73582,13.82863c0,-8.4693 0,-39.47853 0,-44.33737c0,-1.25379 2.73754,-2.29898 5.93161,-2.29898c11.47352,0 79.86315,0 99.44173,0c3.3177,0 5.23378,0.96242 5.23378,2.13476c0,4.66722 0,35.21771 0,44.17315c0,1.55868 -2.20445,2.46318 -4.88486,2.46318c-10.44524,0 -77.57147,0 -99.09281,0c-4.17136,0 -6.62945,-0.77827 -6.62945,-2.13475z" fill="#8283a3" stroke-linecap="butt"/><path d="M191.36527,11.36544c0,-6.65975 0,-36.52007 0,-40.23206c0,-0.74357 1.03853,-1.31369 2.44242,-1.31369c7.90451,0 79.01095,0 93.1612,0c1.57324,0 2.44244,0.57012 2.44244,1.31369c0,3.68231 0,33.09635 0,40.06785c0,0.94525 -1.5379,1.47791 -3.48919,1.47791c-8.91709,0 -75.04468,0 -91.06769,0c-2.22972,0 -3.48918,-0.47121 -3.48918,-1.3137z" fill="#37515d" stroke-linecap="butt"/></g><path d="M239.16418,-13.43701c2.52735,-2.10799 5.06657,-1.32326 8.03949,-1.30227c0.91177,0.00643 2.43465,-0.18028 3.01049,0.92673c1.20922,2.32467 -1.98234,4.72301 -3.17219,5.9424c-0.21311,0.2184 -3.18902,1.63204 -3.32075,1.63204c-0.55228,0 -1,-0.45884 -1,-1.02483c0,-0.31921 1.11119,-1.42899 1.11119,-1.42899c1.04904,-1.28599 2.96734,-2.28165 2.35663,-3.2279c-0.33456,-0.51837 -3.74532,0.36203 -5.01902,0.70447c-1.63113,0.43854 -4.05868,2.57343 -5.83275,1.32855c-0.513,-0.35998 -0.08581,-1.62272 -0.68923,-1.77621c-0.5193,-0.13209 -2.13171,0.88072 -2.60829,1.00265c-0.50522,0.12926 -1.99872,0.27411 -2.06471,0.28686c-3.078,0.59433 -6.5482,0.07253 -4.40037,-3.84938c0,0 0.49614,-0.88979 1.36438,-0.38133c0.86825,0.50846 0.3721,1.39826 0.3721,1.39826c-0.2222,0.38946 -0.588,0.6872 -0.77604,1.09513c-0.16001,0.34713 0.73867,-0.15386 1.11326,-0.15764c0.53961,-0.00543 2.12026,-0.54139 2.12026,-0.54139c1.90884,-2.3442 3.79412,-4.63932 6.61213,-5.53236c0,0 1.26315,-0.47793 1.4109,-0.47793c0.55228,0 0.95639,0.45439 1.06809,1.06283c0.1117,0.60843 -0.6655,1.13005 -0.6655,1.13005c-0.85333,1.04942 -1.1443,1.81508 -2.13315,2.77961c0.65429,0.34445 0.11347,1.68661 0.507,2.34531c0.04024,0.06736 2.59609,-1.93463 2.59609,-1.93463z" fill="#fed03f" stroke-linecap="butt"/><g stroke-linecap="butt"><path d="M191.67642,11.57142c0,-2.60368 0,-16.14266 0,-16.14266h97.65977c0,0 0,12.44727 0,15.22022c0,1.04278 -0.53866,1.85186 -1.80001,1.86393c-12.35156,0.11823 -80.51671,1.18656 -93.76332,0.52102c-1.44966,-0.07283 -2.09644,-1.38021 -2.09644,-1.46251z" fill="#fed03f"/><path d="M222.42949,5.2681c0,-1.69816 1.34328,-3.07479 3.0003,-3.07479c1.65702,0 3.0003,1.37663 3.0003,3.07479c0,1.69816 -1.34328,3.0748 -3.0003,3.0748c-1.65702,0 -3.0003,-1.37664 -3.0003,-3.0748z" fill="#fed03f"/><path d="M233.68062,5.2681c0,-1.69816 1.34328,-3.07479 3.0003,-3.07479c1.65702,0 3.0003,1.37663 3.0003,3.07479c0,1.69816 -1.34328,3.0748 -3.0003,3.0748c-1.65702,0 -3.0003,-1.37664 -3.0003,-3.0748z" fill="#fed03f"/><path d="M243.73163,5.2681c0,-1.69816 1.34328,-3.07479 3.0003,-3.07479c1.65702,0 3.0003,1.37663 3.0003,3.07479c0,1.69816 -1.34328,3.0748 -3.0003,3.0748c-1.65702,0 -3.0003,-1.37664 -3.0003,-3.0748z" fill="#fed03f"/><path d="M253.03256,5.2681c0,-1.69816 1.34328,-3.07479 3.0003,-3.07479c1.65702,0 3.0003,1.37663 3.0003,3.07479c0,1.69816 -1.34328,3.0748 -3.0003,3.0748c-1.65702,0 -3.0003,-1.37664 -3.0003,-3.0748z" fill="#fed03f"/><path d="M263.68362,5.2681c0,-1.69816 1.34328,-3.07479 3.0003,-3.07479c1.65702,0 3.0003,1.37663 3.0003,3.07479c0,1.69816 -1.34328,3.0748 -3.0003,3.0748c-1.65702,0 -3.0003,-1.37664 -3.0003,-3.0748z" fill="#fed03f"/><path d="M278.68512,5.2681c0,-1.69816 1.34328,-3.07479 3.0003,-3.07479c1.65702,0 3.0003,1.37663 3.0003,3.07479c0,1.69816 -1.34328,3.0748 -3.0003,3.0748c-1.65702,0 -3.0003,-1.37664 -3.0003,-3.0748z" fill="#000000"/><path d="M206.82793,5.2681c0,-1.69816 1.34328,-3.07479 3.0003,-3.07479c1.65702,0 3.0003,1.37663 3.0003,3.07479c0,1.69816 -1.34328,3.0748 -3.0003,3.0748c-1.65702,0 -3.0003,-1.37664 -3.0003,-3.0748z" fill="#3ea750"/><path d="M193.32658,5.2681c0,-1.69816 1.34328,-3.07479 3.0003,-3.07479c1.65702,0 3.0003,1.37663 3.0003,3.07479c0,1.69816 -1.34328,3.0748 -3.0003,3.0748c-1.65702,0 -3.0003,-1.37664 -3.0003,-3.0748z" fill="#d14f4f"/></g></g><path d="M200.80619,135.54351c0.30094,-20.24531 5.51285,-53.03338 5.61859,-80.8736c0.1044,-27.4903 1.71756,-48.29032 1.92485,-49.59796c0.42148,-2.65884 3.10251,-1.24716 3.55024,0.06575c0.46443,1.36187 -1.13575,22.01002 -0.9331,49.54625c0.20766,28.21777 -5.8857,61.07214 -6.18764,81.57628c-0.21785,14.79356 5.37144,43.27438 4.5053,61.14069c-0.14437,2.97801 3.73193,28.041 -5.14644,31.12324c-5.59523,1.94245 -16.085,6.72145 -24.48378,8.35072c-0.9733,0.18881 8.05982,1.6919 12.93115,4.61337c5.20302,3.1204 5.35833,6.538 4.82586,7.52979c-3.18698,5.93619 -17.17793,12.09923 -31.94023,13.23493c-23.82445,1.83288 -52.44096,-7.05597 -81.40389,-7.4628c-26.43284,-0.37129 -51.32796,12.8901 -77.01213,12.49598c-26.23636,-0.40259 -48.19084,-12.05694 -69.12171,-14.79763c-12.91209,-1.69072 -24.70677,-2.25376 -34.43302,-2.29354c-16.46214,-0.06734 -26.99882,1.36431 -26.99882,1.36431l0.01861,-12.5185c0,0 13.09808,3.44311 33.30309,6.28352c9.74188,1.36951 21.90345,0.808 33.58899,3.05174c20.01928,3.8439 36.98033,13.2093 62.02073,14.36903c27.16377,1.25807 56.55617,-14.51745 83.96284,-13.54224c28.88294,1.02774 53.86583,7.86627 77.04639,6.5885c9.21723,-0.50807 17.39727,-6.86559 25.00388,-7.76813c1.9083,-0.22643 -8.79968,-2.87093 -13.89483,-6.52603c-5.10409,-3.66152 -4.59554,-8.33367 -2.87552,-8.591c10.06013,-1.50512 19.70206,-4.26494 25.71087,-6.31846c6.97995,-2.38541 3.63207,-28.81119 3.79015,-31.25178c1.30793,-20.1935 -3.61208,-43.5348 -3.37041,-59.79244z" fill="#c41665" stroke-linecap="butt"/></g><g stroke="#000000" stroke-width="1.5"><path d="M-33.08504,227.9114c0,0 -104.57227,2.21355 -105.92621,1.27496c-1.61579,-1.12012 -3.91499,-3.92295 -4.89534,-4.71985c-1.13056,-0.91901 -2.71898,-3.50317 -2.64658,-5.73255c0.50897,-15.6739 2.57433,-79.27808 2.9231,-90.01849c0.09716,-2.992 2.55537,-5.96616 5.38177,-6.00769c11.22089,-0.16485 84.27374,-1.23801 100.32618,-1.47383c2.00047,-0.02939 4.717,1.35292 5.67301,2.18798c1.22047,1.06605 4.1565,3.98941 4.1565,3.98941z" fill="#37515d" stroke-linecap="round"/><path d="M-140.84642,225.66307c0.58434,-17.99506 2.72382,-83.88163 3.05906,-94.2054c0.08651,-2.66397 2.89697,-4.90736 6.09198,-4.93378c11.47691,-0.09489 79.88677,-0.66053 99.47114,-0.82246c3.31868,-0.02744 5.16893,2.00159 5.08804,4.49252c-0.32202,9.91664 -2.42985,74.8285 -3.04773,93.85649c-0.10754,3.3118 -2.37505,5.25187 -5.05625,5.27404c-10.44833,0.08639 -77.59441,0.64158 -99.12212,0.81958c-4.17259,0.0345 -6.57771,-1.59879 -6.48412,-4.48098z" fill="#8283a3" stroke-linecap="butt"/><path d="M-134.04505,220.3746c0.45949,-14.15026 2.51971,-77.59565 2.77581,-85.48268c0.0513,-1.57991 1.12947,-2.79986 2.53378,-2.81147c7.90685,-0.06538 79.03432,-0.65348 93.18875,-0.77052c1.57371,-0.01301 2.40383,1.19117 2.35253,2.77107c-0.25406,7.82395 -2.28349,70.32115 -2.76448,85.13376c-0.06522,2.00841 -1.64032,3.15291 -3.59219,3.16904c-8.91972,0.07375 -75.06687,0.62068 -91.09462,0.75321c-2.23038,0.01844 -3.4577,-0.97232 -3.39957,-2.76242z" fill="#37515d" stroke-linecap="butt"/><path d="M-84.40473,163.70782c2.59489,-2.07777 5.10999,-1.33307 8.08313,-1.33718c0.91183,-0.00126 2.44108,-0.19605 2.98202,0.87935c1.13592,2.25829 -2.13257,4.62486 -3.36141,5.82452c-0.22009,0.21486 -3.24168,1.61882 -3.37345,1.61991c-0.55244,0.00457 -0.98575,-0.43943 -0.96782,-0.99171c0.01011,-0.31148 1.1568,-1.40352 1.1568,-1.40352c1.0901,-1.26347 3.04051,-2.25085 2.4596,-3.1691c-0.31823,-0.50303 -3.7579,0.38422 -5.04283,0.72889c-1.64551,0.4414 -4.14142,2.54459 -5.87657,1.34458c-0.50175,-0.34701 -0.03442,-1.58266 -0.63316,-1.72743c-0.51527,-0.12459 -2.16025,0.87699 -2.64083,0.9999c-0.50946,0.13031 -2.008,0.284 -2.07441,0.29698c-3.09774,0.60537 -6.55243,0.12493 -4.2797,-3.71962c0,0 0.52448,-0.87232 1.37687,-0.38338c0.8524,0.48895 0.3279,1.36127 0.3279,1.36127c-0.2346,0.38186 -0.60995,0.6754 -0.81097,1.07499c-0.17106,0.34003 0.74377,-0.15623 1.11858,-0.16302c0.53994,-0.00976 2.13804,-0.5458 2.13804,-0.5458c1.98368,-2.30313 3.94224,-4.55819 6.78938,-5.45286c0,0 1.27867,-0.47679 1.42646,-0.47801c0.55244,-0.00457 0.94227,0.43546 1.03473,1.02821c0.09245,0.59275 -0.7015,1.10816 -0.7015,1.10816c-0.88683,1.03102 -1.20215,1.78053 -2.22185,2.72984c0.64357,0.33068 0.06007,1.64476 0.43284,2.28423c0.03812,0.06538 2.65816,-1.90919 2.65816,-1.90919z" fill="#fed03f" stroke-linecap="butt"/></g><g stroke="#000000" stroke-width="1.5"><path d="M174.00828,229.6521c0,0 -104.41868,-4.65069 -105.75135,-5.67872c-1.5904,-1.22685 -3.82936,-4.18227 -4.79197,-5.044c-1.1101,-0.99377 -2.64399,-3.68372 -2.52727,-5.90964c0.82055,-15.64962 4.15032,-79.15526 4.7126,-89.87904c0.15664,-2.98736 2.66951,-5.80187 5.49139,-5.65785c11.20296,0.57175 84.13908,4.29412 100.16588,5.11207c1.99727,0.10193 4.6811,1.6634 5.61865,2.56171c1.1969,1.1468 4.06908,4.26463 4.06908,4.26463z" fill="#37515d" stroke-linecap="round"/><path d="M66.4955,220.32756c0.94207,-17.96718 4.39132,-83.75168 4.93179,-94.05946c0.13946,-2.65984 2.98935,-4.72002 6.17885,-4.53669c11.4571,0.65855 79.74889,4.58392 99.29946,5.70768c3.31295,0.19043 5.11924,2.34211 4.98884,4.82918c-0.51915,9.90128 -3.91738,74.71257 -4.91352,93.71109c-0.17338,3.30667 -2.47528,5.099 -5.15186,4.94515c-10.4303,-0.59953 -77.46049,-4.45239 -98.95104,-5.68765c-4.16539,-0.23942 -6.5334,-2.03158 -6.38251,-4.9093z" fill="#8283a3" stroke-linecap="butt"/><path d="M73.38945,215.48254c0.74079,-14.12833 4.06224,-77.47544 4.47514,-85.35025c0.08271,-1.57746 1.18317,-2.72734 2.58505,-2.64676c7.8932,0.4537 78.89791,4.53501 93.02792,5.34719c1.57099,0.0903 2.37553,1.34968 2.29282,2.92714c-0.40959,7.81183 -3.68141,70.21221 -4.45687,85.00188c-0.10514,2.00529 -1.70009,3.04705 -3.64859,2.93505c-8.90433,-0.51182 -74.93731,-4.30736 -90.9374,-5.22703c-2.22653,-0.12798 -3.43177,-1.1999 -3.33806,-2.98722z" fill="#37515d" stroke-linecap="butt"/><path d="M124.06588,162.0418c2.63141,-1.90861 5.12692,-0.99836 8.09451,-0.80727c0.91014,0.0586 2.44038,-0.0359 2.95884,1.07564c1.08874,2.33418 -2.22076,4.48754 -3.4712,5.60722c-0.22396,0.20054 -3.26782,1.40694 -3.39937,1.39938c-0.55149,-0.0317 -0.97513,-0.5044 -0.94622,-1.05582c0.01631,-0.311 1.1826,-1.32839 1.1826,-1.32839c1.11323,-1.19264 3.07965,-2.05254 2.51815,-3.00947c-0.3076,-0.52422 -3.75845,0.13772 -5.04782,0.39824c-1.6512,0.33362 -4.18433,2.27417 -5.89227,0.95954c-0.49388,-0.38015 -0.0028,-1.58584 -0.59751,-1.77001c-0.51181,-0.15849 -2.17365,0.73567 -2.65577,0.8271c-0.5111,0.09693 -2.00986,0.15234 -2.07641,0.16096c-3.10396,0.40235 -6.54254,-0.30519 -4.19744,-4.00277c0,0 0.54088,-0.83839 1.38191,-0.2932c0.84103,0.54519 0.30014,1.38359 0.30014,1.38359c-0.24178,0.36668 -0.62226,0.63575 -0.83087,1.02237c-0.17751,0.329 0.74547,-0.1075 1.11972,-0.08968c0.53912,0.02568 2.14488,-0.40575 2.14488,-0.40575c2.02585,-2.17424 4.02568,-4.30202 6.88527,-5.01029c0,0 1.28576,-0.39311 1.43329,-0.38463c0.55149,0.0317 0.93181,0.49758 1.01227,1.09674c0.08046,0.59917 -0.72227,1.06274 -0.72227,1.06274c-0.90572,0.9734 -1.23538,1.70264 -2.27209,2.58556c0.63576,0.37312 0.02715,1.64967 0.38647,2.31398c0.03674,0.06793 2.6912,-1.73579 2.6912,-1.73579z" fill="#fed03f" stroke-linecap="butt"/></g><g stroke="#000000" stroke-width="1.5"><path d="M88.54991,230.0588l-52.92844,10.39538c0,0 -56.75309,1.5701 -57.51989,1.31819c-1.81917,-0.59763 -4.55034,-2.2716 -5.66792,-2.71411c-1.28881,-0.51031 -3.25207,-2.10808 -3.43941,-3.63421c-1.3171,-10.72964 -6.66186,-54.27014 -7.5644,-61.62254c-0.25142,-2.04819 1.96446,-4.32595 4.91064,-4.64361c5.77293,-0.62245 58.06376,10.74878 58.06376,10.74878c0,0 38.04002,-21.11081 46.51407,-22.02449c2.08525,-0.22483 5.08463,0.43871 6.18129,0.9097c1.40003,0.60127 4.81033,2.29215 4.81033,2.29215z" fill="#37515d" stroke-linecap="round"/><path d="M-24.23006,239.56009c-1.51215,-12.31859 -7.04871,-57.42152 -7.91623,-64.4887c-0.22386,-1.82363 2.446,-3.63964 5.77883,-3.98475c4.99511,-0.51724 51.24743,8.7077 51.24743,8.7077c0,0 40.60904,-18.21934 52.51446,-19.45213c3.46183,-0.35847 5.63299,0.83433 5.84231,2.53951c0.83331,6.78848 6.28796,51.22416 7.88691,64.24985c0.2783,2.26711 -1.86043,3.82089 -4.65729,4.11051c-5.6022,0.5801 -49.69688,9.49893 -49.69688,9.49893c0,0 -42.78737,0.07772 -53.70093,1.20781c-4.35258,0.45071 -7.05642,-0.4157 -7.29861,-2.38872z" fill="#8283a3" stroke-linecap="butt"/><path d="M-17.75239,235.26109c-1.18907,-9.68662 -6.52049,-53.11843 -7.18325,-58.51753c-0.13276,-1.08153 0.84909,-2.02299 2.31397,-2.17468c3.56882,-0.36955 46.87465,5.68433 46.87465,5.68433c0,0 41.95758,-14.88281 50.33386,-15.75017c1.64159,-0.16998 2.65034,0.56535 2.7831,1.64688c0.65746,5.35592 5.9092,48.13864 7.15393,58.27868c0.16877,1.37486 -1.34084,2.31579 -3.3769,2.52662c-4.82973,0.50011 -46.03545,8.32287 -46.03545,8.32287c0,0 -40.94797,0.68417 -48.9886,1.51676c-2.32659,0.24092 -3.7249,-0.30837 -3.87532,-1.53378z" fill="#37515d" stroke-linecap="butt"/><path d="M27.17431,193.49104c2.46431,-1.68111 5.17818,-1.4313 8.28199,-1.7385c0.95191,-0.09422 2.52564,-0.38349 3.21725,0.29373c1.45236,1.42212 -1.6812,3.36894 -2.82275,4.31198c-0.20446,0.16891 -3.19375,1.43468 -3.3312,1.44891c-0.57627,0.05967 -1.08107,-0.19843 -1.12747,-0.57649c-0.02617,-0.21323 1.0423,-1.07456 1.0423,-1.07456c0.98917,-0.97232 2.90917,-1.84464 2.19433,-2.41072c-0.39159,-0.3101 -3.87835,0.64649 -5.1793,1.01285c-1.66604,0.46917 -4.02401,2.15746 -5.97723,1.51762c-0.5648,-0.18502 -0.22259,-1.07463 -0.86482,-1.11195c-0.55269,-0.03212 -2.15211,0.8186 -2.63939,0.95153c-0.51658,0.14093 -2.06308,0.39906 -2.13089,0.4147c-3.16299,0.72955 -6.82673,0.75596 -4.90718,-2.09575c0,0 0.44474,-0.64795 1.39239,-0.40213c0.94765,0.24581 0.50291,0.89376 0.50291,0.89376c-0.19992,0.28415 -0.5572,0.52255 -0.71996,0.81535c-0.1385,0.24915 0.75815,-0.18258 1.1487,-0.22558c0.56261,-0.06194 2.16798,-0.59071 2.16798,-0.59071c1.79956,-1.77206 3.57857,-3.50879 6.44577,-4.40977c0,0 1.27883,-0.45571 1.43301,-0.47168c0.57627,-0.05967 1.0352,0.20018 1.20164,0.59451c0.16644,0.39433 -0.60175,0.82673 -0.60175,0.82673c-0.80436,0.79316 -1.04519,1.33602 -1.99791,2.08712c0.71096,0.15938 0.25669,1.11431 0.72133,1.51177c0.04751,0.04065 2.55026,-1.57275 2.55026,-1.57275z" fill="#fed03f" stroke-linecap="butt"/></g></g></g></svg>