<svg version="1.1" xmlns="http://www.w3.org/2000/svg" xmlns:xlink="http://www.w3.org/1999/xlink" width="97.20627" height="117.03288" viewBox="0,0,97.20627,117.03288"><defs><radialGradient cx="264.43188" cy="176.32107" r="7.44768" gradientUnits="userSpaceOnUse" id="color-1"><stop offset="0" stop-color="#54606d"/><stop offset="1" stop-color="#2c3136"/></radialGradient></defs><g transform="translate(-178.86351,-121.37506)"><g data-paper-data="{&quot;isPaintingLayer&quot;:true}" stroke-miterlimit="10" stroke-dasharray="" stroke-dashoffset="0" style="mix-blend-mode: normal"><path d="M240.24427,202.22127c0.21356,0.7061 0.63787,2.01681 1.10386,3.76653c0.88493,3.32273 2.14377,13.53199 2.14377,13.53199c0,0 9.13874,9.73315 1.82237,12.0305c-8.28683,2.6021 -10.09177,-7.42345 -10.06194,-7.70192c-0.02606,-1.24749 -0.92093,-3.35125 -1.28006,-5.21615c-0.83449,-4.69471 -0.62132,-6.10304 -1.47035,-8.42623c-0.84902,-2.3232 -3.04344,-7.73972 1.16209,-10.2879c3.57188,-2.22362 5.9311,0.35043 6.58026,2.30318z" data-paper-data="{&quot;index&quot;:null}" fill="#ffab19" fill-rule="evenodd" stroke="#001026" stroke-width="1.2" stroke-linecap="round" stroke-linejoin="round"/><g fill-rule="evenodd"><path d="M222.29758,199.99172c0.83076,-0.36013 2.64285,-1.09759 4.44987,2.54271c1.80702,3.6403 -1.47955,9.0559 -1.93646,9.63863c-1.67704,2.31374 -3.84735,5.08171 -7.55458,7.36195c-10.70633,6.66063 -23.00708,-0.55668 -22.7424,-4.56613c0.20759,-3.93662 8.749,-0.66727 16.46991,-1.94668c3.42691,-0.52389 5.83089,-2.19109 7.66892,-3.66103c2.50263,-2.1427 2.66339,-8.9921 3.64473,-9.36943z" fill="#ffab19" stroke="#001026" stroke-width="1.2" stroke-linecap="round" stroke-linejoin="round"/><path d="M200.56301,213.54871c3.43731,0.33709 8.7594,0.19372 8.7594,0.19372c0,0 -2.95435,2.19427 -2.56486,4.67c0.24409,1.96176 2.52873,2.89469 3.2972,3.13856c-1.95748,0.22348 -4.55364,0.38725 -8.39597,-0.8321c-3.84233,-1.21935 -7.19664,-4.28507 -6.61516,-6.0758c0.76842,-1.67943 2.45593,-1.20889 5.51938,-1.09439z" fill="#ffffff" stroke="none" stroke-width="1" stroke-linecap="butt" stroke-linejoin="miter"/></g><path d="M243.05477,189.40056c0.55461,0.34778 7.63181,6.87462 9.39414,4.91865c2.12284,-2.28811 4.87913,-6.62787 8.92852,-3.71037c4.04941,2.9175 -2.01228,9.0559 -4.71653,10.79932c-6.49718,3.6865 -12.89908,-1.60656 -14.31595,-3.07128c-1.41687,-1.46472 -3.88296,-3.92954 -4.23172,-6.48907c-0.27537,-2.76564 3.03713,-3.76751 4.94153,-2.44723z" fill="#ffab19" fill-rule="evenodd" stroke="#001026" stroke-width="1.2" stroke-linecap="round" stroke-linejoin="round"/><path d="M222.64934,208.18065c0.11225,-2.04971 1.71321,-5.12813 5.75166,-3.87379c4.73641,1.40933 4.04451,7.19346 3.83684,9.65123c-0.20767,2.45777 0.36984,3.76542 0.80178,8.51138c0.14485,1.89219 -0.16502,4.14939 0.13888,5.36149c0.1023,0.26165 1.00256,10.4024 -7.69224,9.96311c-7.67656,-0.38784 -1.41232,-12.08273 -1.41232,-12.08273c0,0 -1.47651,-10.18154 -1.49779,-13.61426c-0.01121,-1.80763 0.05309,-3.18058 0.07321,-3.91644z" data-paper-data="{&quot;index&quot;:null}" fill="#ffab19" fill-rule="evenodd" stroke="#001026" stroke-width="1.2" stroke-linecap="round" stroke-linejoin="round"/><g fill-rule="evenodd"><path d="M232.03804,208.50036c-12.19274,-1.10968 -9.44702,-7.98706 -10.76906,-13.2845c-0.9835,-4.64337 0.40289,-4.70802 5.75494,-7.46431c2.90708,-1.69866 4.62126,-2.6934 6.20643,-4.11432c2.41269,-2.09338 5.31456,1.92029 6.38395,4.3699c0,0 1.53156,3.667 1.88092,5.90526c0.4031,2.72559 0.54823,4.59884 0.2742,6.01622c0,0 -0.58822,3.04653 -2.28682,4.54272c-1.52687,1.34491 -7.4446,4.02904 -7.4446,4.02904z" fill="#ffab19" stroke="#001026" stroke-width="1.2" stroke-linecap="round" stroke-linejoin="round"/><path d="M241.0225,200.40283c0,0 -1.96675,0.00529 -4.21831,-0.15622c-2.76203,-0.1449 -5.3145,-0.06187 -5.97556,-3.63981c-0.32249,-2.92385 -1.27909,-6.39433 4.13213,-6.94202c5.12104,-0.57737 5.43815,2.48356 5.43815,2.48356c1.48861,4.76386 0.62355,8.2545 0.62355,8.2545z" fill="#ffffff" stroke="none" stroke-width="1" stroke-linecap="butt" stroke-linejoin="miter"/></g><g fill-rule="evenodd"><path d="M227.09822,129.388c0.17256,-0.31343 0.66675,-0.4587 0.94679,-0.15711l7.42389,8.10282c0,0 7.95655,1.11632 11.22684,3.10512c5.48025,3.29918 7.71526,7.16849 7.71526,7.16849c0,0 7.34195,-1.47134 11.13147,2.93109c3.78953,4.40243 5.00978,15.84449 -10.01523,27.79871c-15.025,11.95421 -30.94178,14.5319 -42.71815,7.91067c-11.77637,-6.62122 -8.25902,-23.65907 -8.4134,-22.68419c0,0 -8.52632,-13.39122 -8.07374,-13.40305l12.71202,-0.75147c0,0 3.20812,-3.57001 7.31005,-5.9277c2.40516,-1.47492 4.64382,-2.41594 6.88856,-3.13648z" fill="#ffab19" stroke="#001026" stroke-width="1.2" stroke-linecap="butt" stroke-linejoin="miter"/><path d="M254.33381,148.09477c0,0 7.02029,-1.63948 10.80982,2.76295c3.78953,4.40243 4.41415,15.59527 -10.47992,27.36952c-19.22759,15.59429 -36.36383,8.40684 -35.43471,-3.92979c0.88143,-12.42365 15.49051,-9.84808 22.706,-14.27287c6.19152,-3.78024 3.90198,-9.63399 12.39882,-11.92981z" fill="#ffffff" stroke="none" stroke-width="1" stroke-linecap="butt" stroke-linejoin="miter"/><path d="M271.29034,140.50322c-2.3854,5.49029 -8.76764,8.92246 -8.76764,8.92246" fill="none" stroke="#001026" stroke-width="1.2" stroke-linecap="round" stroke-linejoin="round"/><path d="M275.46978,150.85308c-5.38778,3.36211 -9.77661,3.52073 -9.77661,3.52073" fill="none" stroke="#001026" stroke-width="1.2" stroke-linecap="round" stroke-linejoin="round"/><path d="M240.33803,157.94798c1.87538,-0.97567 3.93547,-1.82377 4.35853,-1.26112c0.75685,1.17177 0.75237,4.30516 -0.62881,5.13554c-1.51212,1.01033 -6.45497,0.78625 -7.21787,-0.60603c-0.66149,-0.99774 1.70206,-2.33918 3.48814,-3.2684z" fill="#001026" stroke="#001026" stroke-width="1.2" stroke-linecap="round" stroke-linejoin="round"/><path d="M199.43576,177.54999c0,0 9.01528,-1.55914 13.61909,-0.48773" fill="none" stroke="#001026" stroke-width="1.2" stroke-linecap="round" stroke-linejoin="round"/><path d="M214.99164,179.96846c-3.0295,3.47708 -10.16253,5.95798 -10.16253,5.95798" fill="none" stroke="#001026" stroke-width="1.2" stroke-linecap="round" stroke-linejoin="round"/><g fill="#001026" stroke="none" stroke-width="1" stroke-linecap="butt" stroke-linejoin="miter"><path d="M245.72238,145.51436c0.52451,0.95718 0.23921,2.11202 -0.65385,2.57663c-0.89305,0.4646 -2.03662,0.05314 -2.56112,-0.90405c-0.52451,-0.95718 -0.23921,-2.11202 0.65385,-2.57663c0.89305,-0.4646 2.03662,-0.05314 2.56112,0.90405"/></g><g fill="#001026" stroke="none" stroke-width="1" stroke-linecap="butt" stroke-linejoin="miter"><path d="M226.41933,160.42676c0.52451,0.95718 0.23921,2.11202 -0.65385,2.57663c-0.89305,0.4646 -2.03662,0.05314 -2.56112,-0.90405c-0.52451,-0.95718 -0.23921,-2.11202 0.65385,-2.57663c0.94072,-0.37758 2.03662,-0.05314 2.56112,0.90405"/></g></g><g fill-rule="nonzero" stroke="#001026" stroke-width="1.2" stroke-linejoin="miter"><g><path d="M251.29232,199.90238l3.60709,-21.48989l12.73051,4.45823l-9.14242,18.77573c0,0 -2.44273,0.93566 -3.60461,0.65403c-1.23236,-0.29873 -3.59055,-2.39811 -3.59055,-2.39811z" fill="#505a63" stroke-linecap="butt"/><path d="M254.59943,176.88538c1.24592,-3.77619 5.4284,-5.72643 9.34181,-4.35596c3.91341,1.37047 6.07582,5.5427 4.8299,9.31888c-1.24592,3.77619 -5.42841,5.72644 -9.34182,4.35596c-3.91341,-1.37047 -6.07581,-5.5427 -4.82988,-9.3189z" fill="url(#color-1)" stroke-linecap="butt"/><path d="M256.73837,184.15831c0,0 0.51887,-4.52808 1.15702,-6.54206c0.59643,-1.88229 2.55519,-5.17353 2.55519,-5.17353" fill="none" stroke-linecap="round"/><path d="M263.37742,186.33539c0,0 0.52729,-5.64398 1.00723,-7.77959c0.35461,-1.57792 1.61195,-3.87508 1.61195,-3.87508" fill="none" stroke-linecap="round"/><path d="M254.40987,177.27877c0,0 4.95961,-0.87194 7.50669,-0.5544c2.21593,0.27627 6.92114,2.35313 6.92114,2.35313" fill="none" stroke-linecap="round"/><path d="M254.75867,182.72548c0,0 5.5282,-0.61499 8.01428,-0.55084c1.93256,0.0499 5.66431,0.90394 5.66431,0.90394" fill="none" stroke-linecap="round"/></g><path d="M263.52023,196.09128c-0.82308,2.52114 -3.6656,4.07643 -6.34899,3.47387c-2.68336,-0.60256 -4.63364,-2.49224 -3.81055,-5.01339c0.82308,-2.52114 4.10782,-4.71901 6.79119,-4.11644c2.68336,0.60256 4.19141,3.13482 3.36833,5.65596z" fill="#ffab19" stroke-linecap="butt"/></g><g fill-rule="nonzero" stroke="#001026" stroke-width="1.2" stroke-linecap="butt" stroke-linejoin="miter"><path d="M208.13093,155.38751c1.89439,4.10359 -7.5817,23.26659 -7.5817,23.26659c0,0 -2.24921,1.82724 -3.35646,2.63593c-8.29242,6.05647 -15.71817,8.11455 -17.38942,4.49435c-1.89439,-4.10359 4.32245,-13.94918 13.88568,-21.99072c9.56323,-8.04155 12.54748,-12.50974 14.44187,-8.40615z" fill="#00b0f7"/><path d="M193.58741,162.44474l-11.33939,5.20018c0,0 6.52769,-14.34504 11.24398,-20.99221c5.70405,-8.03933 20.58389,-23.86629 20.58389,-23.86629l1.55215,22.3362z" fill="#ff2b2b"/><path d="M199.30601,181.02507c0,0 -7.16488,-3.3727 -10.00778,-5.57847c-2.758,-2.13991 -6.8026,-7.46459 -6.8026,-7.46459l16.80767,-20.57634c0,0 5.62325,5.18299 8.50465,7.41863c2.71176,2.10403 8.30572,5.62442 8.30572,5.62442z" data-paper-data="{&quot;index&quot;:null}" fill="#cc0000"/><path d="M215.79692,160.73412c0,0 -5.24772,-4.01859 -8.21239,-5.77012c-3.15012,-1.86111 -10.16579,-5.08778 -10.16579,-5.08778l17.21124,-27.47812c0,0 6.73637,1.53132 9.75158,3.31272c3.10802,1.83623 8.62657,7.54518 8.62657,7.54518z" fill="#f70000"/></g><path d="M221.53048,209.5946c-1.1829,1.16068 -2.88977,1.82331 -3.89808,1.54352c-1.12384,-0.31184 -2.67288,-2.09043 -2.9593,-3.98172c-0.36433,-2.40565 1.29462,-5.61164 2.39841,-9.18993c0.97369,-3.15648 1.41295,-6.46542 2.87556,-8.32613c1.49901,-1.90703 3.53273,-2.0066 4.8251,-1.64799c1.39524,0.38715 2.61525,1.62816 2.7083,4.30973c0.07724,2.22572 -1.01358,5.44627 -1.90779,8.34516c0,0 -2.22967,7.16891 -4.04216,8.94736z" fill="#ffab19" fill-rule="nonzero" stroke="#001026" stroke-width="1.2" stroke-linecap="butt" stroke-linejoin="miter"/><path d="M255.5186,164.23187c0.41335,0.50539 1.40617,3.01821 0.42193,3.88239c-1.0857,0.95328 -4.25578,0.29335 -5.99867,1.60169c-0.71851,0.53937 -0.24439,1.66117 -1.08664,2.18431c-0.69677,0.43277 -1.65006,2.51626 -2.59672,2.66096c-1.67815,0.25651 -3.44611,-1.60768 -4.51669,-1.22628c-2.43161,0.8663 -2.75266,2.31794 -3.37878,1.55242c-0.56297,-0.68832 -2.45432,-1.81325 -1.07132,-3.3181c0.59484,-0.64725 3.56281,-0.33794 5.032,-1.07282c1.53015,-0.76538 2.68433,-1.21654 3.81429,-1.91837c0.80234,-0.49834 -0.12559,-3.06478 0.65697,-3.46606c2.26518,-1.16153 4.4879,0.4799 6.19295,0.50963c1.18392,0.02064 2.17077,-1.82977 2.53068,-1.38974z" fill="#ffffff" fill-rule="nonzero" stroke="#001026" stroke-width="1.2" stroke-linecap="butt" stroke-linejoin="miter"/></g></g></svg>