<svg version="1.1" xmlns="http://www.w3.org/2000/svg" xmlns:xlink="http://www.w3.org/1999/xlink" width="110.4616" height="144.31955" viewBox="0,0,110.4616,144.31955"><g transform="translate(-179.17357,-97.52955)"><g data-paper-data="{&quot;isPaintingLayer&quot;:true}" fill-rule="nonzero" stroke-linejoin="miter" stroke-miterlimit="10" stroke-dasharray="" stroke-dashoffset="0" style="mix-blend-mode: normal"><g stroke="#0f002d" stroke-width="1.5"><path d="M257.78227,194.02752c-3.60392,2.14764 -11.06811,2.08121 -13.72088,-1.14281c-5.85828,-7.1198 -6.81581,-15.99704 -5.50415,-18.63825c1.31166,-2.64121 8.56999,2.24066 9.15453,10.57086c0.4001,0.34215 2.38259,-0.34635 2.55749,1.19635c0.08582,0.75692 0.73716,-1.88062 1.1341,-3.1224c0.90922,-2.84438 7.24773,0.21418 10.54549,1.26027c5.26368,1.6697 -0.56267,7.72833 -4.16659,9.87598z" fill="#5e1284" stroke-linecap="round"/><g fill="#e9caf8" stroke-linecap="butt"><path d="M261.37585,172.3479c2.28992,1.19209 1.62987,2.5802 0.10888,3.00171c-1.52099,0.42151 -3.60449,-0.48192 -4.18503,-2.14773c-0.58054,-1.6658 -0.43175,-3.32567 1.08924,-3.74718c1.52099,-0.42151 3.26842,0.71287 2.98691,2.8932z" data-paper-data="{&quot;index&quot;:null}"/><path d="M266.20107,183.64841c-1.45228,3.22202 -3.94042,5.27778 -7.43056,5.27778c-3.49013,0 -6.73611,-0.85378 -6.73611,-4.30556c0,-3.45178 -2.17069,-6.11111 2.70833,-6.66667c0.48287,-1.94444 -3.01541,-5.47418 6.6742,-3.66642c0.36727,-2.25581 -1.33155,-4.83006 -0.43131,-6.12852c1.54615,-2.23009 3.95626,-2.9377 7.839,2.93843c1.67416,2.53366 -1.80018,10.7242 -2.62356,12.55095z"/></g></g><g stroke="#0f002d" stroke-width="1.5"><path d="M278.20963,226.75458c-4.73933,-1.28023 -17.82408,-1.15651 -17.82408,-3.61111c0,-2.4546 2.08154,-7.77777 6.99074,-7.77777c1.45719,0 8.35817,0.01663 9.5992,0.76083c10.52153,6.28381 12.85207,8.37505 11.60451,10.35028c-1.1696,1.85179 -6.94265,1.2037 -10.37037,0.27777z" fill="#e9caf8" stroke-linecap="butt"/><path d="M232.68043,229.26348c0.30577,5.11188 -2.98995,11.14893 -13.27229,11.83562c-7.44184,0.49699 -9.2906,-3.72465 -9.2906,-8.12248c0,-4.39783 5.88342,-11.72524 10.42823,-12.52693c10.50935,-1.8538 11.70814,1.68308 12.13467,8.81379z" fill="#e9caf8" stroke-linecap="butt"/><g stroke-linecap="round"><path d="M278.69707,215.08879c-1.90271,0.12333 -19.45168,5.50218 -19.31245,4.32988c0.10894,-0.91724 -21.3787,-30.04996 -22.1813,-29.68528c-0.60021,0.27272 8.83406,12.99879 9.30642,19.64231c0.79766,2.33207 -2.68912,4.11993 -4.80379,4.37423c-6.3954,0.7691 -7.54706,9.35334 -7.54706,9.35334c0,0 -7.57506,0.38676 -10.52802,0.00864c-2.48421,-0.31809 -6.02779,-2.12853 -6.02779,-2.12853c0,0 3.09446,-13.50571 10.23453,-17.52882c-5.84997,-9.14344 -5.77416,-17.39821 -4.98856,-17.58916c3.16741,-0.76989 17.64951,-7.21359 21.24476,-1.8759c0,0 35.31525,31.05313 34.60326,31.09928z" fill="#414ca9"/><path d="M235.39063,178.22024l2.86976,-0.92105" fill="none"/></g></g><g stroke="#0f002d"><path d="M234.29825,187.07614c-5.06564,0.92356 -9.87345,-0.59802 -10.55998,-1.09696c-2.326,-1.69042 -4.31161,-7.53449 -3.6093,-10.78852c0.72551,-3.36153 5.01793,-9.91046 10.43073,-10.96545c5.4128,-1.05499 12.28233,1.94848 12.87775,4.75582c0.95681,4.51129 -1.36712,6.2957 -1.36712,6.2957c0,0 2.71209,-2.22876 4.11238,5.9088c0.83855,4.87314 -8.91022,5.34835 -11.88447,5.89061z" fill="#8f21c6" stroke-width="1.5" stroke-linecap="round"/><path d="M242.98848,175.57528c1.82139,2.0955 -10.39889,0.90256 -12.96018,0.00737c-2.56129,-0.89519 -5.07772,-3.28262 -5.62061,-5.33247c-0.54289,-2.04985 5.99685,-5.96976 8.65462,-5.42403c14.50573,2.97852 10.27754,7.99938 9.92617,10.74914z" fill="#0f002d" stroke-width="1" stroke-linecap="butt"/><path d="M245.00799,179.98021c0.45943,0.44957 0.36832,4.66554 0.05967,4.93186c-0.26225,0.22629 -15.45709,3.17974 -15.84924,-1.10351c-0.43682,-5.77124 15.55206,-4.06075 15.78957,-3.82834z" fill="#c168ee" stroke-width="1" stroke-linecap="round"/><path d="M243.54184,184.003c-13.64097,1.39564 -11.13889,-10.61111 -11.13889,-10.61111" fill="none" stroke-width="1" stroke-linecap="round"/><path d="M242.95851,171.61411c0,0 6.39578,6.17295 10.69444,4.61111" fill="none" stroke-width="1" stroke-linecap="round"/></g><g stroke="#0f002d" stroke-width="1.5"><g fill="#e9caf8"><path d="M213.2844,196.35675c-0.38353,2.87648 -2.87084,5.20833 -5.55556,5.20833c-2.68472,0 -4.5502,-2.33185 -4.16667,-5.20833c0.38353,-2.87648 2.87084,-5.20833 5.55556,-5.20833c2.68472,0 4.5502,2.33185 4.16667,5.20833z" stroke-linecap="butt"/><path d="M207.35778,177.38422c0,0 6.69442,1.62381 11.07909,6.98955c2.63294,2.06007 5.27156,6.9987 4.86821,10.07426c-0.14214,1.0838 -1.99966,0.86124 -3.29871,1.3664c-1.86201,0.72409 -3.45538,1.91809 -4.65865,1.9016c-7.68449,-0.10531 -2.35326,-6.20525 -4.37882,-8.75773c0.86747,5.91374 -5.74825,9.39089 -15.31583,6.95333c-6.98713,1.12682 -6.89968,-7.1643 -5.08856,-10.12196c1.73464,-2.83277 -1.86413,-6.36839 -1.86413,-6.36839z" stroke-linecap="round"/></g><path d="M208.56149,177.29165c-5.69254,3.06626 -19.08131,4.4483 -23.01373,1.11504c-1.98138,-1.67948 -6.40518,-6.46336 -5.50478,-14.81874c3.46362,-12.75358 24.77362,-3.71982 38.66099,0.01423c-1.08956,-3.38125 1.71513,-3.9977 2.17235,-4.1346c3.34697,-1.00212 5.35647,5.4745 5.67646,8.65094c0.31999,3.17643 -3.6413,15.94117 -30.67055,-3.18972c15.60964,7.95245 13.86432,11.72453 12.67928,12.36285z" fill="#5e1284" stroke-linecap="round"/></g><g><path d="M217.25763,108.48776c9.90172,-7.19538 15.61548,-3.545 15.61548,-3.545c0,0 7.06661,-11.74461 24.90088,-4.04879c25.33172,-2.98888 23.80814,7.01185 23.80814,7.01185c0,0 6.57219,9.60932 5.37206,16.2947c-1.31554,7.3283 -9.99951,7.03247 -11.44806,9.07679c-0.95335,1.34546 1.13464,5.87 0.62058,9.03663c-0.43917,2.70528 -3.42022,4.09446 -3.42022,4.09446c0,0 -0.37426,4.21335 -0.8047,5.21836c-0.6807,1.58929 -5.08081,0.72024 -5.08081,0.72024l-1.51829,3.45721c0,0 -7.28168,5.28346 -21.58498,4.9682c-13.08299,-0.28837 -21.15146,-5.13717 -21.15146,-5.13717c0,0 -13.20502,-1.02131 -12.108,-13.78887c-13.68538,-10.76491 -2.37633,-15.80211 -2.37633,-15.80211c0,0 1.33814,-11.86106 9.17572,-17.55648z" fill="#3d2747" stroke="#0f002d" stroke-width="1.5" stroke-linecap="round"/><g><g><path d="M247.95083,144.19608c-0.23212,3.3883 -7.1411,11.22551 -16.33025,9.33706c-7.74721,-1.93104 -7.16931,-6.50271 -7.2245,-9.90081c-0.05519,-3.3981 2.02726,-10.37159 7.45451,-8.15083c3.3442,1.36839 16.43859,3.77554 16.10024,8.71458z" fill="#2f1e38" stroke="none" stroke-width="0" stroke-linecap="butt"/><path d="M247.60193,142.04465c0,0 3.57746,4.20513 -5.60895,9.87837c-6.96585,4.30191 -14.42088,0.40593 -14.42088,0.40593" fill="none" stroke="#0f002d" stroke-width="1" stroke-linecap="round"/></g><path d="M276.2615,132.20525c0,0 -1.00011,6.63619 -7.68661,9.46827c-10.32058,4.3713 -14.62569,-2.15869 -14.62569,-2.15869c0,0 -18.02825,7.14578 -22.05441,-3.72061c-5.74665,-0.6863 -2.56368,-4.77868 -2.56368,-4.77868" fill="#3d2747" stroke="#0f002d" stroke-width="1.5" stroke-linecap="round"/></g></g><g stroke="#0f002d" stroke-linecap="round"><path d="M223.61544,148.2685c0.21927,-0.76685 3.48644,5.97752 9.59821,7.27288c5.73659,1.21584 13.78412,-1.6329 16.886,-1.90285c1.85815,-0.14583 4.01457,1.5668 6.08103,2.24187c3.07464,1.00443 6.55094,0.66933 6.15257,0.88326c-1.13282,0.60833 -6.01787,8.23278 -12.09928,11.49231c-3.51451,1.88371 -15.10123,3.97657 -21.63883,2.16684c-7.10607,-1.96709 -6.43074,-7.93102 -4.9797,-22.15431z" fill="#e9caf8" stroke-width="1.5"/><g><path d="M223.75952,153.32761c0,0 4.18489,4.95737 9.44246,5.84968c3.26658,0.55441 6.71954,-0.45282 10.9815,-0.41931c2.17817,0.01713 5.1611,0.67183 8.05239,0.82371c2.76601,0.1453 5.49107,-0.21156 5.49107,-0.21156c0,0 -3.0066,2.32262 -4.36203,3.62883c-1.74214,1.67888 -5.5965,5.93895 -5.5965,5.93895c0,0 -6.61048,1.97973 -12.63077,2.05475c-4.64212,0.05785 -8.82152,-1.48175 -10.65637,-2.63182c-3.88566,-2.43548 -0.72175,-15.03324 -0.72175,-15.03324z" fill="#ffffff" stroke-width="1.5"/><path d="M250.01204,159.9583l-5.64384,9.03314l-0.82165,-9.59804l-8.67314,10.8938l-0.79288,-10.2806l-9.17423,7.62964l2.35025,-10.59935l-4.09095,3.10567" fill="none" stroke-width="1"/><path d="M255.57547,160.40663l-5.58565,5.53196l0.39375,-6.30923z" fill="#0f002d" stroke-width="1"/></g></g></g></g></svg>