<svg version="1.1" xmlns="http://www.w3.org/2000/svg" xmlns:xlink="http://www.w3.org/1999/xlink" width="136.86443" height="237.89963" viewBox="0,0,136.86443,237.89963"><g transform="translate(-172.71903,-92.02448)"><g data-paper-data="{&quot;isPaintingLayer&quot;:true}" fill-rule="nonzero" stroke-miterlimit="10" stroke-dasharray="" stroke-dashoffset="0" style="mix-blend-mode: normal"><g stroke-linecap="butt" stroke-linejoin="miter"><g fill="#686868" stroke="#000000" stroke-width="1"><path d="M195.70828,329.11509v-104.61283h101.23822v104.61283z"/><path d="M177.14795,319.83493v-104.61283l18.56034,9.28017v104.61283z"/><path d="M195.59516,224.03145l-17.71669,-8.85834l102.92552,1.26548l16.45121,8.43652z"/></g><path d="M199.28505,229.20101c0,-0.82843 0.67157,-1.5 1.5,-1.5c0.82843,0 1.5,0.67157 1.5,1.5c0,0.82843 -0.67157,1.5 -1.5,1.5c-0.82843,0 -1.5,-0.67157 -1.5,-1.5z" fill="#b9b9b9" stroke="none" stroke-width="0.5"/><path d="M291.28505,229.86768c0,-0.82843 0.67158,-1.5 1.5,-1.5c0.82842,0 1.5,0.67157 1.5,1.5c0,0.82843 -0.67158,1.5 -1.5,1.5c-0.82842,0 -1.5,-0.67157 -1.5,-1.5z" fill="#b9b9b9" stroke="none" stroke-width="0.5"/><path d="M292.61838,325.53434c0,-0.82842 0.67158,-1.5 1.5,-1.5c0.82842,0 1.5,0.67158 1.5,1.5c0,0.82842 -0.67158,1.5 -1.5,1.5c-0.82842,0 -1.5,-0.67158 -1.5,-1.5z" fill="#b9b9b9" stroke="none" stroke-width="0.5"/><path d="M198.61838,326.53434c0,-0.82842 0.67157,-1.5 1.5,-1.5c0.82843,0 1.5,0.67158 1.5,1.5c0,0.82842 -0.67157,1.5 -1.5,1.5c-0.82843,0 -1.5,-0.67158 -1.5,-1.5z" fill="#b9b9b9" stroke="none" stroke-width="0.5"/></g><g stroke="#000000" stroke-width="1" stroke-linecap="butt" stroke-linejoin="miter"><path d="M276.72181,266.93448c-6.94903,2.48678 -51.07106,1.87124 -57.88411,-0.34832c-7.86831,-2.56336 -6.89912,-21.57451 1.11074,-24.14005c6.78323,-2.17265 50.64342,-1.76459 57.67502,0.99318c6.36836,2.49765 6.19476,20.95566 -0.90165,23.49519z" data-paper-data="{&quot;index&quot;:null}" fill="#363636"/><path d="M272.63389,263.40278c-5.53329,1.76301 -40.66621,1.32662 -46.09121,-0.24694c-6.26528,-1.8173 -5.49355,-15.29531 0.88444,-17.11416c5.40126,-1.5403 40.32569,-1.25101 45.92472,0.70411c5.07091,1.77071 4.93268,14.85658 -0.71796,16.65699z" data-paper-data="{&quot;index&quot;:null}" fill="#4a4a4a"/></g><g stroke="#000000" stroke-width="1" stroke-linecap="butt" stroke-linejoin="miter"><path d="M277.22181,314.93448c-6.94903,2.48678 -51.07106,1.87124 -57.88411,-0.34832c-7.86831,-2.56336 -6.89912,-21.57451 1.11074,-24.14005c6.78323,-2.17265 50.64342,-1.76459 57.67502,0.99318c6.36836,2.49764 6.19476,20.95567 -0.90165,23.49519z" data-paper-data="{&quot;index&quot;:null}" fill="#363636"/><path d="M273.13389,311.40278c-5.53329,1.76301 -40.66621,1.32662 -46.09121,-0.24694c-6.26528,-1.8173 -5.49355,-15.29531 0.88444,-17.11416c5.40126,-1.5403 40.32569,-1.25101 45.92472,0.70412c5.07091,1.77071 4.93268,14.85658 -0.71796,16.65699z" data-paper-data="{&quot;index&quot;:null}" fill="#4a4a4a"/></g><path d="M230.82343,212.66266c1.37629,-1.23376 4.27007,-2.09842 5.27336,-0.7437c0.94328,1.27325 0.31912,2.47433 0.31912,2.47433c-0.67934,1.40185 -1.8119,4.03118 -2.89732,5.61417c-0.19279,0.27927 -0.38281,0.53287 -0.57655,0.78263l0.01564,-0.01063c0,0 0.57438,2.08866 -0.45893,2.30401c-0.62286,0.1308 -1.16166,-0.16015 -1.49837,-0.40576c-0.97037,0.63857 -4.22621,-0.599 -5.16473,-1.04839c-2.19679,-1.0508 1.10525,-3.91588 1.10525,-3.91588c0.30782,-1.07884 2.50624,-3.81698 3.88252,-5.05074v0v0v0v0v0z" data-paper-data="{&quot;index&quot;:null}" fill="#be1e2d" stroke="#231f20" stroke-width="0.78673" stroke-linecap="round" stroke-linejoin="round"/><path d="M253.54176,213.91132v0v0v0v0v0c1.26759,1.34078 3.22771,4.24725 3.44355,5.34728c0,0 3.04927,3.12216 0.7714,3.99184c-0.97319,0.37201 -4.32223,1.34224 -5.23548,0.62743c-0.35627,0.21756 -0.91774,0.46397 -1.52747,0.28329c-1.01164,-0.29812 -0.26316,-2.33324 -0.26316,-2.33324l0.01469,0.01186c-0.17203,-0.26456 -0.34003,-0.53266 -0.50861,-0.82655c-0.94827,-1.6653 -1.85533,-4.37719 -2.4142,-5.82916c0,0 -0.5208,-1.24743 0.5266,-2.44011c1.11406,-1.269 3.92509,-0.17344 5.19268,1.16733z" data-paper-data="{&quot;index&quot;:null}" fill="#be1e2d" stroke="#231f20" stroke-width="0.78673" stroke-linecap="round" stroke-linejoin="round"/><path d="M235.89562,219.18471c1.69938,-0.1708 3.42487,0.89691 3.42487,0.89691c0,0 -1.00504,6.73785 -1.41541,9.16364c-0.41035,2.42946 -0.50127,6.37267 -0.50127,6.37267c0,0 0.37616,0.49525 -0.03117,1.42439c-0.41034,0.92591 -2.11335,0.68067 -4.32555,0.64387c-2.20698,-0.0417 -3.77556,-0.91163 -3.8328,-1.9453c-0.06119,-1.02981 0.67421,-1.30985 0.67421,-1.30985c0,0 3.16134,-7.53349 3.0413,-10.44227c0.00283,0.00686 0.79921,-4.58654 2.96583,-4.80405v0v0v0v0z" fill="#be1e2d" stroke="#231f20" stroke-width="0.90025" stroke-linecap="round" stroke-linejoin="round"/><g stroke-width="0.90025"><path d="M249.37706,212.87039v0v0v0v0v0c0.30115,2.7781 -0.585,7.83581 -3.89165,9.4902c-3.27044,1.63275 -6.65038,1.25949 -10.06528,-1.23039c-2.82934,-2.06367 -2.52464,-7.62571 -2.08871,-10.72683v0c0,0 0.32402,-7.2019 6.55236,-7.83862c6.22641,-0.63671 8.86744,5.00635 9.20029,8.47357c0.12486,0.61301 0.22735,1.23755 0.293,1.83208z" fill="#be1e2d" stroke="#000000" stroke-linecap="butt" stroke-linejoin="miter"/><path d="M247.33587,220.7139v0v0v0v0v0l-0.02136,0.14042c-0.50202,0.62318 -1.10853,1.14438 -1.82812,1.50454c-3.02932,1.51268 -6.15127,1.30458 -9.3092,-0.71365l-0.02752,-0.14328c0,0 -1.32775,-9.22955 4.65382,-9.39715c6.79204,-0.18722 6.63966,7.07858 6.53239,8.60914z" fill="#e6e7e8" stroke="#231f20" stroke-linecap="round" stroke-linejoin="round"/></g><g stroke="#000000" stroke-width="0.90025" stroke-linecap="round" stroke-linejoin="round"><path d="M286.9957,191.28142l-0.67229,1.47571c-3.66228,7.43137 -8.28867,11.49285 -8.28867,11.49285c0,0 0.27418,-1.35914 0.38945,-3.57063l-0.12795,-0.05638c-0.48475,1.12805 -1.24436,2.57135 -2.44996,4.33141c-2.64435,3.86544 -9.64994,6.69664 -9.64994,6.69664c0,0 0.54107,-1.36038 1.00576,-3.62222l-0.06278,-0.35747c-0.77524,0.48556 -1.57363,0.92447 -2.37896,1.34943c-0.23705,0.12599 -0.47367,0.24834 -0.71362,0.36596c-0.73062,0.36282 -1.47215,0.705 -2.22576,1.01942c-0.29761,0.12248 -0.60523,0.23353 -0.906,0.34952c-0.54874,0.21252 -1.10354,0.41016 -1.66567,0.59925c-0.41275,0.13671 -0.82813,0.2724 -1.24981,0.39587c-0.43675,0.1303 -0.88373,0.24269 -1.32857,0.36161c-0.81711,0.20998 -1.64431,0.40047 -2.48786,0.56908c-0.2752,0.05489 -0.55051,0.10979 -0.82986,0.15898c-0.60035,0.1074 -1.205,0.21078 -1.81881,0.29564l0.00164,0.00192c-3.0819,0.43097 -6.32658,0.6064 -9.77566,0.5201c-3.73142,-0.0943 -7.09278,-0.41817 -10.21597,-0.90091v0c-2.47121,-0.38323 -4.77255,-0.87415 -6.94099,-1.45705c-0.10493,-0.02768 -0.21078,-0.05633 -0.31661,-0.0841c-0.66996,-0.18481 -1.32839,-0.37655 -1.97312,-0.5778c-0.22487,-0.0719 -0.43941,-0.14727 -0.66312,-0.22076c-0.85561,-0.2781 -1.68497,-0.57367 -2.50134,-0.88238c-0.51599,-0.19561 -1.02816,-0.39455 -1.52762,-0.6021c-0.29696,-0.12074 -0.59441,-0.24608 -0.88459,-0.37158c-0.79212,-0.34585 -1.57664,-0.69541 -2.33479,-1.06509l-0.14792,0.11658c0.11108,2.10341 0.74321,3.28416 1.28033,3.86666c1.09475,1.18911 3.36565,1.64354 3.36565,1.64354c0,0 -7.09766,0.36136 -10.44315,-5.26589c-0.35542,-0.59815 -0.71262,-1.21703 -1.04567,-1.87218l-0.13549,-0.36993c-0.80517,-0.34242 -1.61321,-0.77517 -2.40128,-1.3106c-4.8033,-3.28536 -5.22867,-5.69279 -5.22867,-5.69279l0.02878,0.87153c0.28661,2.28962 0.63531,3.74913 0.63531,3.74913c0,0 -5.71892,-4.26835 -7.91383,-10.11985c-1.76915,-4.72325 -1.6967,-7.48657 -1.66998,-7.94966l-0.05615,-1.66808c0.44538,-6.47538 1.50203,-13.69093 3.04517,-20.74637l0.07295,-0.18536c1.30024,-5.4449 1.33051,-14.64695 9.63577,-23.35541c15.56271,-16.31402 29.81245,-14.48262 39.52148,-26.69282c7.14169,-8.98279 6.49895,-20.04021 6.49895,-20.04021c0,0 3.38189,5.67938 4.64134,8.95243c1.21776,3.18917 2.45782,7.27171 2.45782,7.27171l0.05448,-0.02921c0.04549,-0.11206 0.08759,-0.22698 0.12517,-0.3423c0.58357,-1.79619 0.65879,-4.51927 0.65879,-4.51927c0,0 2.7377,10.87193 8.06013,18.30118c5.31911,7.42549 13.72235,10.13604 22.44188,34.75384c1.08554,3.05935 2.11771,5.64439 2.5432,8.44859l0.16265,1.60679c0.50374,5.02066 -1.08441,18.63639 -3.59427,24.36307zM219.67462,162.14715c0,0 -7.65281,6.53665 -8.07564,16.50647c-0.37414,8.82133 1.70954,11.73421 2.90207,12.52075c1.22652,0.80459 3.26077,0.564 3.26077,0.564c0,0 -5.91164,2.44696 -10.16323,-1.92241c-2.84393,-2.92082 -5.89112,-6.63551 -5.96779,-16.38496M276.65181,182.96291c0,0 0.65397,2.51796 -1.92642,7.44341c-2.9036,5.54945 -8.10654,6.89819 -8.10654,6.89819c0,0 4.98161,-8.506 2.20747,-17.14099c-1.21036,-3.77244 -5.70645,-6.88974 -10.48136,-9.22777c-6.47049,-3.17033 -13.45208,-4.90811 -13.45208,-4.90811M278.33554,200.52919c-0.4824,1.14251 -1.25417,2.62131 -2.49501,4.42824c-2.64344,3.86552 -9.64905,6.69672 -9.64905,6.69672c0,0 1.5739,-3.96943 1.66101,-9.61259M202.42487,180.67813c-0.80001,1.1921 -1.44899,2.48792 -1.87163,3.87892c-2.64855,8.67158 -0.24062,18.67832 -0.24062,18.67832c0,0 -5.71726,-4.26652 -7.91383,-10.11995c-1.94655,-5.19478 -1.66382,-8.01864 -1.66382,-8.01864M286.31834,192.76294c-3.66408,7.43121 -8.28958,11.49277 -8.28958,11.49277c0,0 1.5688,-7.72082 -1.2126,-16.35732c-0.12537,-0.39045 -0.27256,-0.77207 -0.43144,-1.14399M244.89378,166.02771c0,0 1.17215,0.41398 4.11794,3.15193c2.94588,2.73794 3.87045,5.52945 3.87045,5.52945c0,0 -9.13256,-3.20966 -14.14528,-5.47443c-5.00713,-2.26608 -22.03789,-8.40888 -22.03789,-8.40888M212.02158,200.19637c2.18667,4.11443 4.63408,6.46034 4.63408,6.46034c0,0 -6.36829,1.34983 -11.77862,-2.34755c-4.80331,-3.28526 -5.22867,-5.69279 -5.22867,-5.69279M267.13252,207.67608c-7.13201,4.46329 -15.45903,6.23759 -25.37277,5.9891c-11.81933,-0.29632 -20.26247,-2.71254 -27.35543,-6.16155M214.24149,206.97087c0.00002,2.51197 0.70332,3.87446 1.29367,4.51318c1.09564,1.18919 3.36656,1.64362 3.36656,1.64362c0,0 -7.09947,0.36122 -10.44406,-5.26597c-0.35542,-0.59815 -0.71262,-1.21703 -1.04567,-1.87218M245.54597,166.38122c0,0 25.33403,5.24722 24.1139,18.93184" fill="#be1e2d"/><path d="M274.1512,191.6596c-1.83253,9.76012 -14.30278,19.04053 -31.29874,18.5629c-15.00535,-0.41362 -36.48068,-8.87243 -38.60259,-21.24985c-0.20958,-1.24365 -0.27375,-2.43288 -0.21917,-3.56563l0.3037,0.25955c0.98815,1.72103 2.14044,2.99971 3.26402,4.15118c4.25174,4.3676 10.16338,1.92064 10.16338,1.92064c0,0 -2.03442,0.24236 -3.26092,-0.56224c-1.19253,-0.78654 -3.27619,-3.69942 -2.90207,-12.52075c0.423,-9.9716 8.07564,-16.50647 8.07564,-16.50647l0.04474,-0.2262c5.12408,1.87317 15.32923,5.64257 19.01588,7.31177c5.01264,2.26566 14.14528,5.47443 14.14528,5.47443c0,0 -0.92456,-2.79151 -3.87045,-5.52945c-1.47466,-1.36952 -2.50327,-2.15719 -3.16269,-2.60309l0.64163,0.15555c0,0 19.48828,4.54512 22.3393,13.43174c2.77316,8.6358 -2.20657,17.14106 -2.20657,17.14106c0,0 4.43051,-1.15 7.39118,-5.68459z" fill="#e6e7e8"/></g><g stroke="#000000" stroke-width="0.90025" stroke-linecap="round" stroke-linejoin="miter"><path d="M282.73079,174.2896c0,0 9.98743,-9.19669 10.53558,-9.62591c0.54803,-0.42913 4.71078,-4.62115 15.68561,-5.23677c0,0 -9.66129,29.70715 -26.49064,35.25262c0.00008,-0.00089 2.31539,-8.53954 0.26946,-20.38995zM282.77224,174.53919c-0.14862,-0.97812 -0.70426,-2.73089 -0.70426,-2.73089M281.47721,196.93618c0,0 0.75195,-1.39939 0.9842,-2.25753" fill="#be1e2d"/><path d="M289.3468,190.46886c0,0 -1.5146,-1.36055 -1.34334,-5.39551c0.10214,-2.50324 1.626,-6.9538 1.626,-6.9538l-0.10326,0.13733c0.78086,-0.74262 1.61263,-1.61722 2.38209,-2.58905c1.30364,-1.64374 2.87998,-4.14126 4.34112,-6.6112l0.22222,-0.33846c0,0 3.67196,-4.38467 10.47363,-4.39785l0.07398,0.04821c-1.83273,4.48486 -4.75445,11.04274 -7.73457,15.43832c-3.34275,4.93077 -7.01185,8.40553 -10.06554,10.74647zM286.57436,180.62087c0,0 2.57002,-2.06325 3.05514,-2.50132" fill="#929497"/></g><path d="M224.09931,204.59091v-15.21904h4.17362v15.21904z" fill="#00b5ff" stroke="none" stroke-width="0" stroke-linecap="butt" stroke-linejoin="miter"/><g stroke="#000000" stroke-width="0.90025" stroke-linecap="round" stroke-linejoin="miter"><path d="M193.10439,187.04024c-15.59246,-8.31696 -19.8503,-39.21394 -19.8503,-39.21394c10.69988,2.46931 14.05777,7.30422 14.52165,7.81895c0.46387,0.51483 8.67265,11.26787 8.67265,11.26787c-4.11318,11.32479 -3.344,20.12712 -3.344,20.12712zM197.53921,164.58262c0,0 -0.85743,1.63197 -1.1768,2.5701M193.10439,187.04024c0.07677,0.88455 0.56979,2.39036 0.56979,2.39036" fill="#be1e2d"/><path d="M187.17895,181.8307c-2.59313,-2.82452 -5.59088,-6.86918 -8.01153,-12.29173c-2.15804,-4.83482 -3.87399,-11.78912 -4.88538,-16.51711l0.08148,-0.03492c6.69726,1.16799 9.53688,6.10839 9.53688,6.10839l0.15896,0.37104c1.00181,2.68048 2.11242,5.40769 3.10543,7.24775c0.58582,1.08768 1.25023,2.09019 1.88785,2.95406l-0.0774,-0.15277c0,0 0.71318,4.64179 0.37067,7.12448c-0.54531,4.00299 -2.27788,5.08596 -2.27788,5.08596zM188.97527,169.51543c0.40026,0.51376 2.56626,2.98185 2.56626,2.98185" fill="#929497"/></g><path d="M231.27734,189.68856c-0.04044,-0.01593 -4.20764,0.29351 -8.4222,1.11521c-0.12961,0.02457 -0.25691,0.0324 -0.38247,0.02166c-0.58721,-0.0502 -1.0956,-0.47517 -1.21654,-1.06842c-0.07204,-0.34668 0.00954,-0.69003 0.19104,-0.96869c-0.23451,-0.23936 -0.44969,-0.54115 -0.58143,-0.94294c-0.15504,-0.46606 0.10631,-0.96782 0.58403,-1.11867c0.47282,-0.14583 0.98785,0.10137 1.14358,0.57116c0.12318,0.37422 0.56388,0.51616 0.56913,0.51839c0.13028,0.04054 0.24143,0.11065 0.33476,0.19704c0.13622,-0.01598 0.27332,-0.03278 0.40718,-0.04361c-0.12081,-0.21708 -0.22946,-0.45816 -0.28199,-0.74792c-0.08606,-0.48422 0.24426,-0.94186 0.73887,-1.02702c0.49862,-0.08927 0.96357,0.2411 1.04889,0.72347c0.06846,0.38558 0.47336,0.59219 0.4768,0.59426c0.19026,0.08231 0.32295,0.22733 0.4147,0.39379c3.24941,0.12893 3.1056,-1.21415 5.18251,-1.01893c2.07692,0.19522 0.50136,3.05693 -0.20687,2.80123z" fill="#231f20" stroke="none" stroke-width="0.90025" stroke-linecap="butt" stroke-linejoin="miter"/><path d="M238.33476,200.08627c0,0 1.1782,-2.51987 4.20186,-2.22474c3.0245,0.29309 4.06166,2.36194 4.06166,2.36194" data-paper-data="{&quot;index&quot;:null}" fill="none" stroke="#231f20" stroke-width="0.90025" stroke-linecap="round" stroke-linejoin="miter"/><path d="M248.13739,224.62105c-3.4156,1.38991 -6.53637,1.19257 -6.97043,-0.44077c-0.43406,-1.63333 1.98295,-4.08416 5.39854,-5.47407c3.4156,-1.38991 6.53637,-1.19257 6.97043,0.44077c0.43406,1.63333 -1.98295,4.08416 -5.39854,5.47407z" fill="#be1e2d" stroke="#231f20" stroke-width="0.90025" stroke-linecap="butt" stroke-linejoin="miter"/><path d="M249.51669,218.41905c1.64798,-0.40028 3.52665,0.24441 3.52665,0.24441c0,0 0.12363,5.8575 0.12027,7.97362c-0.00274,2.11924 0.56009,5.47244 0.56009,5.47244c0,0 0.453,0.36284 0.20497,1.21101c-0.25153,0.84588 -1.97194,0.89437 -4.16011,1.19597c-2.18384,0.29668 -3.87502,-0.20412 -4.10251,-1.07093c-0.23076,-0.86295 0.44826,-1.21073 0.44826,-1.21073c0,0 1.87164,-6.85568 1.27191,-9.30108c0.00393,0.00539 0.02935,-4.00459 2.13046,-4.5147z" fill="#be1e2d" stroke="#231f20" stroke-width="0.90025" stroke-linecap="round" stroke-linejoin="round"/><path d="M254.46595,204.59092v-15.21904h4.17361v15.21904z" data-paper-data="{&quot;index&quot;:null}" fill="#00b5ff" stroke="none" stroke-width="0" stroke-linecap="butt" stroke-linejoin="miter"/><path d="M251.57434,187.50384c2.07692,-0.19522 1.93311,1.14787 5.18251,1.01893c0.09175,-0.16646 0.22443,-0.31148 0.4147,-0.39379c0.00345,-0.00207 0.40834,-0.20868 0.4768,-0.59426c0.08532,-0.48237 0.55027,-0.81274 1.04889,-0.72347c0.49461,0.08516 0.82494,0.5428 0.73887,1.02702c-0.05253,0.28976 -0.16118,0.53084 -0.28199,0.74792c0.13386,0.01083 0.27096,0.02763 0.40718,0.04361c0.09333,-0.08639 0.20448,-0.1565 0.33476,-0.19704c0.00526,-0.00223 0.44596,-0.14418 0.56913,-0.51839c0.15573,-0.46978 0.67075,-0.71699 1.14358,-0.57116c0.47772,0.15085 0.73908,0.65261 0.58403,1.11867c-0.13174,0.40179 -0.34693,0.70357 -0.58143,0.94294c0.1815,0.27866 0.26308,0.62202 0.19104,0.96869c-0.12093,0.59325 -0.62933,1.01822 -1.21654,1.06842c-0.12556,0.01074 -0.25286,0.00291 -0.38247,-0.02166c-4.21456,-0.8217 -8.38176,-1.13114 -8.4222,-1.11521c-0.70824,0.2557 -2.28379,-2.60601 -0.20687,-2.80123z" data-paper-data="{&quot;index&quot;:null}" fill="#231f20" stroke="none" stroke-width="0.90025" stroke-linecap="butt" stroke-linejoin="miter"/></g></g></svg>