<svg version="1.1" xmlns="http://www.w3.org/2000/svg" xmlns:xlink="http://www.w3.org/1999/xlink" width="138.55605" height="240.01328" viewBox="0,0,138.55605,240.01328"><g transform="translate(-172.82598,-89.90485)"><g data-paper-data="{&quot;isPaintingLayer&quot;:true}" fill-rule="nonzero" stroke-miterlimit="10" stroke-dasharray="" stroke-dashoffset="0" style="mix-blend-mode: normal"><g stroke-linecap="butt" stroke-linejoin="miter"><g fill="#686868" stroke="#000000" stroke-width="1"><path d="M195.9273,329.11509v-103.88764h102.23048v103.88764z"/><path d="M177.18506,319.89926v-103.88764l18.74225,9.21584v103.88764z"/><path d="M195.81307,224.7599l-17.89034,-8.79693l103.93432,1.25671l16.61245,8.37804z"/></g><path d="M199.53913,229.89363c0,-0.82269 0.67815,-1.4896 1.5147,-1.4896c0.83655,0 1.5147,0.66691 1.5147,1.4896c0,0.82269 -0.67815,1.4896 -1.5147,1.4896c-0.83655,0 -1.5147,-0.66691 -1.5147,-1.4896z" fill="#b9b9b9" stroke="none" stroke-width="0.5"/><path d="M292.44084,230.55568c0,-0.82269 0.67816,-1.4896 1.5147,-1.4896c0.83654,0 1.5147,0.66691 1.5147,1.4896c0,0.82269 -0.67816,1.4896 -1.5147,1.4896c-0.83654,0 -1.5147,-0.66691 -1.5147,-1.4896z" fill="#b9b9b9" stroke="none" stroke-width="0.5"/><path d="M293.78724,325.55916c0,-0.82268 0.67816,-1.4896 1.5147,-1.4896c0.83654,0 1.5147,0.66692 1.5147,1.4896c0,0.82268 -0.67816,1.4896 -1.5147,1.4896c-0.83654,0 -1.5147,-0.66692 -1.5147,-1.4896z" fill="#b9b9b9" stroke="none" stroke-width="0.5"/><path d="M198.86593,326.55223c0,-0.82268 0.67815,-1.4896 1.5147,-1.4896c0.83655,0 1.5147,0.66692 1.5147,1.4896c0,0.82268 -0.67815,1.4896 -1.5147,1.4896c-0.83655,0 -1.5147,-0.66692 -1.5147,-1.4896z" fill="#b9b9b9" stroke="none" stroke-width="0.5"/></g><path d="M238.12757,219.32154c1.65666,0.37039 2.85373,1.72061 2.85373,1.72061c0,0 -3.57345,4.99009 -4.90538,6.77223c-1.33336,1.78503 -2.95943,4.853 -2.95943,4.853c0,0 0.15838,0.50038 -0.58582,1.10873c-0.74576,0.60493 -2.24321,-0.09309 -4.29852,-0.77864c-2.04852,-0.68787 -3.17609,-1.83626 -2.82567,-2.66456c0.34521,-0.82645 1.14267,-0.82795 1.14267,-0.82795c0,0 5.90179,-4.9745 6.92625,-7.29317c-0.00004,0.00622 2.54014,-3.36267 4.65218,-2.89024v0v0v0v0v0z" data-paper-data="{&quot;index&quot;:null}" fill="#be1e2d" stroke="#231f20" stroke-width="0.90025" stroke-linecap="round" stroke-linejoin="round"/><path d="M232.41596,212.59387c1.54153,-1.0417 4.53695,-1.50771 5.34032,-0.01976c0.75538,1.39853 -0.03492,2.51056 -0.03492,2.51056c-0.87359,1.30465 -2.37152,3.77107 -3.67395,5.20075c-0.23106,0.25204 -0.45574,0.47888 -0.68355,0.70136l0.01705,-0.00846c0,0 0.2733,2.16099 -0.78303,2.23426c-0.63688,0.04515 -1.13036,-0.31867 -1.42969,-0.60961c-1.054,0.50383 -2.03398,0.54317 -2.90172,-0.03331c-2.03131,-1.3483 -0.42235,-5.4716 -0.42235,-5.4716c0.45889,-1.03346 3.03033,-3.46248 4.57185,-4.50418v0v0v0v0v0z" data-paper-data="{&quot;index&quot;:null}" fill="#be1e2d" stroke="#231f20" stroke-width="0.78673" stroke-linecap="round" stroke-linejoin="round"/><path d="M247.91175,220.006v0v0v0v0v0c1.89329,0.89141 0.67958,4.71195 0.68507,4.7076c-1.34069,2.21102 -1.63127,9.09613 -1.63127,9.09613c0,0 0.55538,0.46213 0.0636,1.23867c-0.48978,0.78085 -2.29515,0.93058 -4.33511,0.2263c-2.04264,-0.70981 -3.7069,-1.08838 -3.69116,-1.94186c0.01986,-0.855 0.57409,-1.11272 0.57409,-1.11272c0,0 1.58503,-3.08195 2.23691,-5.09903c0.65031,-2.01424 2.58012,-7.56399 2.58012,-7.56399c0,0 2.03282,-0.25041 3.51773,0.44891z" data-paper-data="{&quot;index&quot;:null}" fill="#be1e2d" stroke="#231f20" stroke-width="0.90025" stroke-linecap="round" stroke-linejoin="round"/><path d="M251.68487,216.63625c-1.79404,-0.52016 -4.05015,-2.51317 -3.38205,-4.06444c0.62776,-1.45828 2.00377,-1.55597 2.00377,-1.55597c0.62822,-0.06182 2.72312,-0.62836 4.924,-0.58405c2.52831,0.05091 5.15378,0.72573 5.14168,0.84749c0.58758,0.26943 4.98334,-0.41412 4.96477,1.1022c-0.01539,1.25564 -3.20296,0.67567 -3.16186,1.13402c0.21619,2.40067 -4.05286,3.77162 -4.05286,3.77162c-1.10506,0.30114 -4.64343,-0.13072 -6.43744,-0.6509v0v0v0v0v0z" data-paper-data="{&quot;index&quot;:null}" fill="#be1e2d" stroke="#231f20" stroke-width="0.78673" stroke-linecap="round" stroke-linejoin="round"/><g stroke-width="0.90025"><path d="M250.36922,212.30675v0v0v0v0v0c0.33937,2.79267 -0.48047,7.89556 -3.77227,9.60396c-3.25581,1.68616 -6.64847,1.35439 -10.10478,-1.10763c-2.86364,-2.0406 -2.63341,-7.6436 -2.23839,-10.77102v0c0,0 0.22745,-7.25401 6.46134,-7.97601c6.23196,-0.72195 8.95522,4.9243 9.33567,8.41024c0.13343,0.61546 0.24459,1.24282 0.31841,1.84045z" fill="#be1e2d" stroke="#000000" stroke-linecap="butt" stroke-linejoin="miter"/><path d="M248.42936,220.229v0v0v0v0v0l-0.01951,0.14163c-0.49474,0.63386 -1.09558,1.16642 -1.81195,1.53833c-3.01577,1.56217 -6.14761,1.39328 -9.34001,-0.59729l-0.02953,-0.14388c0,0 -1.45547,-9.27368 4.53743,-9.52021c6.80495,-0.27683 6.75039,7.03929 6.66355,8.58143z" fill="#e6e7e8" stroke="#231f20" stroke-linecap="round" stroke-linejoin="round"/></g><g stroke="#000000" stroke-width="0.90025" stroke-linecap="round" stroke-linejoin="round"><path d="M287.42132,188.65574l-0.62762,1.50512c-3.43782,7.5878 -7.9465,11.81351 -7.9465,11.81351c0,0 0.23238,-1.37589 0.27901,-3.60472l-0.12994,-0.0529c-0.45054,1.14966 -1.16665,2.6248 -2.31973,4.43204c-2.529,3.96898 -9.45972,7.028 -9.45972,7.028c0,0 0.49973,-1.38514 0.89487,-3.67511l-0.07404,-0.35783c-0.76159,0.51185 -1.54781,0.97746 -2.34145,1.42923c-0.23357,0.13389 -0.46684,0.26411 -0.70357,0.38966c-0.72071,0.38701 -1.45298,0.75358 -2.19823,1.09256c-0.29437,0.13219 -0.59912,0.25314 -0.89683,0.37888c-0.54317,0.23029 -1.09286,0.44583 -1.65017,0.65296c-0.40927,0.14994 -0.82122,0.29893 -1.23984,0.43584c-0.43352,0.14421 -0.87785,0.27072 -1.31982,0.40373c-0.81211,0.23579 -1.63496,0.45228 -2.47486,0.64724c-0.27402,0.0635 -0.54813,0.12698 -0.82648,0.18486c-0.59814,0.12608 -1.20072,0.24824 -1.81306,0.35204l0.00172,0.00189c-3.07433,0.52607 -6.3197,0.79992 -9.77801,0.81649c-3.74143,0.017 -7.11925,-0.20812 -10.2634,-0.60024v0c-2.48784,-0.31155 -4.80881,-0.73651 -6.99952,-1.25808c-0.10599,-0.02472 -0.21294,-0.05038 -0.31983,-0.07514c-0.67699,-0.16587 -1.34263,-0.33907 -1.99485,-0.52227c-0.22754,-0.06561 -0.44483,-0.13503 -0.67125,-0.20226c-0.86587,-0.25419 -1.70604,-0.52674 -2.53356,-0.81292c-0.52307,-0.18136 -1.0424,-0.36619 -1.54927,-0.56008c-0.30128,-0.11258 -0.6032,-0.22979 -0.89782,-0.34739c-0.8044,-0.32428 -1.60128,-0.6525 -2.37237,-1.00177l-0.14458,0.12173c0.1768,2.11328 0.84688,3.28248 1.40317,3.85252c1.13386,1.16374 3.42321,1.55294 3.42321,1.55294c0,0 -7.09986,0.57646 -10.62693,-4.98579c-0.37472,-0.59124 -0.75187,-1.20331 -1.10595,-1.85258l-0.14727,-0.36818c-0.81735,-0.32041 -1.64041,-0.73167 -2.44665,-1.24682c-4.91471,-3.16195 -5.41586,-5.57173 -5.41586,-5.57173l0.05596,0.87614c0.35845,2.29539 0.75327,3.75361 0.75327,3.75361c0,0 -5.86267,-4.12364 -8.24397,-9.94605c-1.91958,-4.69983 -1.93305,-7.48267 -1.92069,-7.94946l-0.10821,-1.67687c0.24458,-6.52935 1.07855,-13.82187 2.40491,-20.96784l0.06732,-0.1887c1.13316,-5.51805 0.87694,-14.77875 8.92676,-23.79087c15.08421,-16.88303 29.41797,-15.46741 38.7652,-28.04536c6.87551,-9.2533 5.88723,-20.36082 5.88723,-20.36082c0,0 3.56515,5.61361 4.92891,8.86943c1.3194,3.17267 2.68892,7.24364 2.68892,7.24364l0.05367,-0.03102c0.04209,-0.11413 0.08068,-0.23103 0.11474,-0.3482c0.52874,-1.82496 0.51931,-4.56738 0.51931,-4.56738c0,0 3.08145,10.85806 8.64529,18.17431c5.56042,7.31258 14.06401,9.78816 23.56666,34.29898c1.18286,3.046 2.29749,5.61631 2.81113,8.42535l0.21299,1.612c0.66105,5.03705 -0.50614,18.78584 -2.84242,24.6237zM219.06538,161.35732c0,0 -7.46377,6.80712 -7.57695,16.85218c-0.10014,8.88791 2.07817,11.75657 3.29746,12.51229c1.2539,0.77287 3.28452,0.46977 3.28452,0.46977c0,0 -5.84666,2.63956 -10.24235,-1.62972c-2.94028,-2.85387 -6.10892,-6.50051 -6.48932,-16.30882M276.79879,180.59521c0,0 0.73363,2.51415 -1.69828,7.54787c-2.7363,5.67133 -7.9071,7.18455 -7.9071,7.18455c0,0 4.72618,-8.70875 1.6779,-17.31471c-1.33012,-3.75982 -5.93181,-6.76187 -10.78857,-8.97138c-6.58149,-2.9962 -13.63043,-4.53555 -13.63043,-4.53555M279.03272,198.22122c-0.44774,1.16414 -1.17493,2.67535 -2.36183,4.53084c-2.52809,3.96903 -9.45881,7.02807 -9.45881,7.02807c0,0 1.45328,-4.04153 1.36483,-9.72271M202.35996,180.5218c-0.76441,1.22357 -1.37426,2.54697 -1.7544,3.95937c-2.38353,8.8054 0.34057,18.80273 0.34057,18.80273c0,0 -5.86096,-4.12186 -8.24395,-9.94615c-2.112,-5.16901 -1.91667,-8.01907 -1.91667,-8.01907M286.78882,190.16687c-3.43963,7.58771 -7.94741,11.81345 -7.94741,11.81345c0,0 1.33134,-7.81631 -1.72426,-16.42359c-0.13777,-0.38913 -0.29712,-0.76873 -0.46788,-1.13822M244.45319,164.50603c0,0 1.18726,0.38144 4.22389,3.04822c3.03672,2.66678 4.04998,5.44809 4.04998,5.44809c0,0 -9.24983,-2.95596 -14.34257,-5.08463c-5.0872,-2.13015 -22.34152,-7.80083 -22.34152,-7.80083M212.58266,199.87473c2.31894,4.07469 4.84404,6.36191 4.84404,6.36191c0,0 -6.33834,1.54925 -11.87405,-2.0091c-4.91471,-3.16185 -5.41586,-5.57173 -5.41586,-5.57173M268.03101,205.74888c-7.00655,4.70515 -15.2941,6.74027 -25.23437,6.78748c-11.85098,0.05622 -20.38535,-2.12198 -27.59915,-5.37996M215.01775,206.62519c0.07824,2.52773 0.82531,3.87768 1.43667,4.50271c1.13475,1.1638 3.42411,1.55298 3.42411,1.55298c0,0 -7.10168,0.57637 -10.62783,-4.98584c-0.37472,-0.59124 -0.75187,-1.20331 -1.10595,-1.85258M245.11763,164.84219c0,0 25.54547,4.5205 24.74916,18.32755" fill="#be1e2d"/><path d="M274.56424,189.42144c-1.53208,9.8763 -13.73697,19.58887 -30.78003,19.61787c-15.04667,0.03372 -36.82613,-7.8342 -39.33749,-20.22567c-0.24871,-1.24517 -0.35002,-2.43994 -0.33061,-3.58143l0.31235,0.25206c1.04363,1.70219 2.23791,2.95436 3.39948,4.07934c4.39581,4.26751 10.24246,1.62795 10.24246,1.62795c0,0 -2.03073,0.30489 -3.28461,-0.46798c-1.21927,-0.75572 -3.39761,-3.62439 -3.29746,-12.51229c0.11328,-10.04685 7.57695,-16.85218 7.57695,-16.85218l0.03778,-0.22895c5.19213,1.73127 15.53399,5.21832 19.27963,6.78745c5.09269,2.12957 14.34257,5.08463 14.34257,5.08463c0,0 -1.01324,-2.78131 -4.04998,-5.44809c-1.5201,-1.33389 -2.5752,-2.09567 -3.24974,-2.5246l0.6477,0.13728c0,0 19.66675,3.98927 22.79991,12.84617c3.04734,8.60681 -1.67699,17.31476 -1.67699,17.31476c0,0 4.4031,-1.29006 7.22817,-5.94188z" fill="#e6e7e8"/></g><g stroke="#000000" stroke-width="0.90025" stroke-linecap="round" stroke-linejoin="miter"><path d="M283.90138,171.52152c0,0 10.35493,-8.88533 10.92034,-9.297c0.56533,-0.41159 4.89493,-4.476 15.9115,-4.69216c0,0 -10.81075,29.53167 -27.87968,34.49236c0.00011,-0.00088 2.64505,-8.50606 1.04783,-20.50321zM283.93337,171.77417c-0.11155,-0.98949 -0.60125,-2.77326 -0.60125,-2.77326M281.78168,194.25886c0,0 0.80659,-1.38023 1.07196,-2.235" fill="#be1e2d"/><path d="M289.91111,188.04159c0,0 -1.46521,-1.42442 -1.13971,-5.47745c0.19782,-2.51461 1.894,-6.93607 1.894,-6.93607l-0.10867,0.13436c0.8105,-0.71842 1.67702,-1.56776 2.48483,-2.51718c1.36851,-1.60577 3.04278,-4.06047 4.60058,-6.49165l0.2355,-0.33234c0,0 3.84536,-4.27625 10.65885,-4.03963l0.07225,0.05122c-2.00688,4.44463 -5.18366,10.93478 -8.33644,15.24743c-3.53642,4.83775 -7.3442,8.1987 -10.49229,10.44159zM287.50976,178.03225c0,0 2.65301,-1.9813 3.15567,-2.4042" fill="#929497"/></g><g stroke="#000000" stroke-width="0.90025" stroke-linecap="round" stroke-linejoin="miter"><path d="M193.38251,187.09905c-15.65524,-8.32591 -20.01996,-39.41815 -20.01996,-39.41815c10.73281,2.45364 14.11376,7.31098 14.58036,7.82779c0.46658,0.5169 8.7284,11.31758 8.7284,11.31758c-4.08736,11.41349 -3.28879,20.27278 -3.28879,20.27278zM197.75739,164.47679c0,0 -0.85434,1.64554 -1.17152,2.59096M193.38251,187.09905c0.07971,0.89029 0.57863,2.40474 0.57863,2.40474" fill="#be1e2d"/><path d="M187.4268,181.87232c-2.60809,-2.83574 -5.62558,-6.89856 -8.06892,-12.35033c-2.17828,-4.86087 -3.92006,-11.85683 -4.94866,-16.61361l0.08157,-0.0354c6.71669,1.15564 9.57848,6.12075 9.57848,6.12075l0.1605,0.37306c1.01258,2.69551 2.13436,5.43773 3.13548,7.28719c0.5906,1.09324 1.25973,2.1005 1.90156,2.96826l-0.07806,-0.15357c0,0 0.7294,4.67089 0.39387,7.17134c-0.53403,4.03159 -2.2673,5.12711 -2.2673,5.12711zM189.18875,169.46866c0.40281,0.51601 2.58165,2.99418 2.58165,2.99418" fill="#929497"/></g><path d="M260.13798,190.6542c-1.47358,-0.03908 -2.58281,-2.74018 -2.47753,-6.03307c0.02458,-0.7687 0.25331,-2.17327 0.25331,-2.17327c0,0 4.33066,0.34798 4.90115,0.06825c0.61847,-0.30327 1.61502,-0.68453 2.42997,-0.11417c0.36903,0.25827 -1.85746,1.43005 -1.92909,1.77181c-0.20473,0.97656 2.15495,-0.75976 2.26318,0.03637c0.10824,0.79614 -2.45376,1.4104 -2.46125,1.6444c0,0 -1.50614,4.83876 -2.97973,4.79969z" fill="#231f20" stroke="#000000" stroke-width="1" stroke-linecap="butt" stroke-linejoin="miter"/><path d="M250.90854,194.55365c-0.46748,2.69995 -3.64279,4.61553 -7.09226,4.27855c-3.44946,-0.33696 -5.86684,-2.79886 -5.39936,-5.4988c0.2249,-1.29895 3.13133,-1.10389 6.14041,-0.85988c3.24548,0.26319 6.59378,0.67912 6.35121,2.08011z" fill="#292929" stroke="#231f20" stroke-width="0.9" stroke-linecap="butt" stroke-linejoin="miter"/><path d="M229.66936,189.23887c-1.46863,-0.12505 -2.40876,-5.10025 -2.40876,-5.10025c0.01947,-0.23333 -2.45546,-1.12856 -2.25638,-1.90755c0.19907,-0.77898 2.34396,1.2086 2.25284,0.21554c-0.03188,-0.34752 -2.10936,-1.75938 -1.71302,-1.97496c0.8753,-0.47608 1.82162,0.01357 2.40125,0.38366c0.53468,0.34137 4.87756,0.47719 4.87756,0.47719c0,0 0.06576,1.42099 0.0018,2.18749c-0.27401,3.28348 -1.68669,5.84392 -3.15533,5.71887z" data-paper-data="{&quot;index&quot;:null}" fill="#231f20" stroke="#000000" stroke-width="1" stroke-linecap="butt" stroke-linejoin="miter"/><g stroke="#000000" stroke-width="1" stroke-linecap="butt" stroke-linejoin="miter"><path d="M278.50138,267.05334c-7.20305,2.53497 -52.93799,1.9075 -60.0001,-0.35507c-8.15594,-2.61304 -7.15132,-21.9926 1.15135,-24.60785c7.0312,-2.21475 52.49472,-1.79878 59.78336,1.01242c6.60116,2.54605 6.42121,21.36175 -0.93461,23.9505z" data-paper-data="{&quot;index&quot;:null}" fill="#363636"/><path d="M274.26403,263.4532c-5.73556,1.79717 -42.15279,1.35233 -47.7761,-0.25172c-6.49431,-1.85252 -5.69437,-15.59171 0.91677,-17.44581c5.5987,-1.57015 41.79981,-1.27526 47.60352,0.71776c5.25628,1.80502 5.113,15.14448 -0.7442,16.97978z" data-paper-data="{&quot;index&quot;:null}" fill="#4a4a4a"/></g><g stroke="#000000" stroke-width="1" stroke-linecap="butt" stroke-linejoin="miter"><path d="M279.01966,315.98353c-7.20305,2.53497 -52.93799,1.9075 -60.0001,-0.35507c-8.15594,-2.61304 -7.15132,-21.9926 1.15135,-24.60785c7.0312,-2.21475 52.49472,-1.79878 59.78336,1.01242c6.60116,2.54604 6.42121,21.36176 -0.93461,23.9505z" data-paper-data="{&quot;index&quot;:null}" fill="#363636"/><path d="M274.7823,312.38339c-5.73556,1.79717 -42.15279,1.35233 -47.7761,-0.25172c-6.49431,-1.85252 -5.69437,-15.59171 0.91677,-17.44581c5.5987,-1.57015 41.79981,-1.27526 47.60352,0.71777c5.25628,1.80502 5.113,15.14448 -0.7442,16.97978z" data-paper-data="{&quot;index&quot;:null}" fill="#4a4a4a"/></g></g></g></svg>