<svg version="1.1" xmlns="http://www.w3.org/2000/svg" xmlns:xlink="http://www.w3.org/1999/xlink" width="103.48716" height="113.61238" viewBox="0,0,103.48716,113.61238"><g transform="translate(-173.34723,-125.89459)"><g data-paper-data="{&quot;isPaintingLayer&quot;:true}" stroke-miterlimit="10" stroke-dasharray="" stroke-dashoffset="0" style="mix-blend-mode: normal"><path d="M237.34689,203.66583c0.32494,0.66617 0.95621,1.89876 1.69775,3.5587c1.40821,3.15227 3.21418,7.84567 4.07537,13.12764l0.03947,0.4043c0.03947,0.4043 0.51783,0.67357 0.9567,0.53851c2.71131,-1.2971 8.08711,-3.59922 8.96112,2.00849c0.90523,5.41301 -15.01007,12.94822 -18.12529,8.30785c-1.13021,-2.0584 -0.15145,-3.60895 0.3967,-4.42547c0.28187,-0.45692 0.35993,-0.94368 0.33607,-1.44533c-0.22035,-1.22784 -0.69224,-3.48882 -1.34411,-5.27795c-1.57091,-4.51408 -2.33202,-5.62176 -3.54855,-7.79241c-1.21652,-2.17065 -4.26929,-7.20043 -0.43049,-10.32522c3.25119,-2.7126 6.02765,-0.513 6.98526,1.32088z" fill="#000000" fill-rule="evenodd" stroke="#ff7b00" stroke-width="2" stroke-linecap="round" stroke-linejoin="round"/><path d="M221.05559,208.98409c0.07898,-2.04795 1.65617,-5.14669 5.79011,-3.9593c4.84735,1.3309 4.24249,7.11606 4.07337,9.57288c-0.16912,2.45681 0.4415,3.75293 0.96314,8.4837c0.18012,1.88657 -0.09652,4.14481 0.23382,5.34993c0.10868,0.25956 1.20019,10.36821 -7.66126,10.06916c-7.82368,-0.26403 -1.64639,-12.03903 -1.64639,-12.03903c0,0 -1.679,-10.14011 -1.75983,-13.56652c-0.04257,-1.8043 -0.00075,-3.1759 0.00705,-3.91079z" data-paper-data="{&quot;index&quot;:null}" fill="#000000" fill-rule="evenodd" stroke="#ff7b00" stroke-width="2" stroke-linecap="round" stroke-linejoin="round"/><g fill="#000000" fill-rule="evenodd" stroke="#ff7b00" stroke-width="2"><path d="M220.56265,203.34118c0.86982,0.29261 2.72461,0.96325 0.70664,4.58037c-2.01797,3.61712 -8.98651,5.14862 -9.80491,5.24688c-3.15838,0.47847 -7.0457,0.9452 -11.52223,0.09304c-12.99469,-2.41018 -14.78143,-15.1987 -11.06184,-17.72976c3.6173,-2.51877 6.3979,5.18744 12.65433,9.29998c2.73803,1.85497 5.80754,2.28052 8.32699,2.47432c3.55528,0.16869 9.71603,-4.34288 10.70101,-3.96484z" stroke-linecap="round" stroke-linejoin="round"/><path d="M194.15125,198.47221c1.98394,2.44182 5.64379,5.77427 5.64379,5.77427c0,0 -3.90075,-0.42499 -5.83041,1.4941c-1.57191,1.47911 -0.87983,3.57974 -0.58522,4.23917c-1.49703,-1.11063 -3.36525,-2.67301 -4.83828,-5.97024c-1.47302,-3.29724 -0.9901,-7.52413 0.97871,-8.35608c1.99453,-0.63652 2.69889,0.76781 4.63139,2.81877z" stroke-linecap="butt" stroke-linejoin="miter"/></g><path d="M240.37773,191.23404c0.56292,0.32945 7.7289,6.61578 9.5434,4.61124c2.18513,-2.34682 5.03377,-6.7585 9.14082,-3.97603c4.10705,2.78246 -2.12914,9.08976 -4.9029,10.91169c-6.65995,3.87669 -13.14728,-1.20075 -14.58059,-2.61681c-1.43332,-1.41607 -3.92874,-3.79647 -4.26306,-6.33709c-0.25774,-2.74833 3.13038,-3.84995 5.06232,-2.59301z" fill="#000000" fill-rule="evenodd" stroke="#ff7b00" stroke-width="2" stroke-linecap="round" stroke-linejoin="round"/><g fill="#000000" fill-rule="evenodd" stroke="#ff7b00" stroke-width="2"><path d="M223.80189,210.23481c-11.45064,-4.15461 -6.36757,-10.02699 -5.78995,-15.42268c0.67655,-4.68498 2.04561,-4.39485 8.21161,-5.66926c3.42001,-0.88471 5.4342,-1.39983 7.47289,-2.35475c3.0786,-1.38724 4.48627,3.18314 4.66402,5.79443c0,0 0.19879,3.89144 -0.24847,6.11812c-0.5663,2.70579 -1.08359,4.53197 -1.84776,5.8163c0,0 -1.64175,2.76076 -3.81703,3.75879c-1.95535,0.89714 -8.64532,1.95904 -8.64532,1.95904z" stroke-linecap="round" stroke-linejoin="round"/><path d="M235.37225,204.78037c0,0 -1.9118,-0.49412 -4.04156,-1.21986c-2.63134,-0.83944 -5.13926,-1.40797 -4.52395,-4.9934c0.71423,-2.8747 1.00477,-6.43252 6.45214,-5.58227c5.17601,0.74826 4.40838,3.75255 4.40838,3.75255c-0.22836,4.92827 -2.29502,8.04297 -2.29502,8.04297z" stroke-linecap="butt" stroke-linejoin="miter"/></g><g fill-rule="evenodd"><path d="M241.58115,133.36605c0.30915,-0.19719 0.82475,-0.09906 0.92815,0.2948l2.68878,10.536c0,0 6.60214,4.62416 8.56359,7.87279c3.30346,5.41436 3.40996,9.8461 3.40996,9.8461c0,0 7.32189,2.06305 8.56344,7.67583c1.24155,5.61277 -3.2868,16.25232 -22.66733,19.90986c-19.38054,3.65753 -34.95293,-1.35428 -42.28187,-12.57642c-7.32893,-11.22215 4.2083,-24.62418 3.59028,-23.83587c0,0 -1.07973,-15.69986 -0.66718,-15.50318l11.79434,5.15446c0,0 4.63835,-1.67749 9.48402,-1.87787c2.88673,-0.19899 5.36134,-0.00375 7.73302,0.38851z" fill="#000000" stroke="#ff7b00" stroke-width="2" stroke-linecap="butt" stroke-linejoin="miter"/><path d="M275.83439,163.37994c-4.84296,3.74582 -12.26629,3.84952 -12.26629,3.84952" fill="#000000" stroke="#ff7b00" stroke-width="2" stroke-linecap="round" stroke-linejoin="round"/><path d="M274.50253,174.41118c-6.49511,0.49697 -10.51756,-1.37141 -10.51756,-1.37141" fill="#000000" stroke="#ff7b00" stroke-width="2" stroke-linecap="round" stroke-linejoin="round"/><path d="M239.43999,164.58728c2.16516,-0.00152 4.43358,0.19386 4.53721,0.88318c0.10416,1.37871 -1.44026,4.13738 -3.08983,4.23702c-1.85571,0.19828 -6.18792,-2.26082 -6.18912,-3.83658c-0.10401,-1.18175 2.6797,-1.28218 4.74174,-1.28363z" fill="#000000" stroke="#ff7b00" stroke-width="2" stroke-linecap="round" stroke-linejoin="round"/><path d="M193.04256,163.14254c0,0 8.86897,2.75136 12.47991,5.80185" fill="#000000" stroke="#ff7b00" stroke-width="2" stroke-linecap="round" stroke-linejoin="round"/><path d="M205.83444,172.39115c-4.43214,1.67735 -12.06258,0.59937 -12.06258,0.59937" fill="#000000" stroke="#ff7b00" stroke-width="2" stroke-linecap="round" stroke-linejoin="round"/><g fill="#ff7b00" stroke="none" stroke-width="0" stroke-linecap="butt" stroke-linejoin="miter"><path d="M251.96244,158.6694c0.00084,1.08333 -0.82331,1.97028 -1.85434,1.971c-1.03103,0.00072 -1.85653,-0.88506 -1.85737,-1.9684c-0.00084,-1.08333 0.82331,-1.97028 1.85434,-1.971c1.03103,-0.00072 1.85653,0.88506 1.85737,1.9684"/></g><g fill="#ff7b00" stroke="none" stroke-width="0" stroke-linecap="butt" stroke-linejoin="miter"><path d="M225.93117,161.54372c0.00084,1.08333 -0.82331,1.97028 -1.85434,1.971c-1.03103,0.00072 -1.85653,-0.88506 -1.85737,-1.9684c-0.00084,-1.08333 0.82331,-1.97028 1.85434,-1.971c1.0311,0.09776 1.85653,0.88506 1.85737,1.9684"/></g></g><g fill="#000000" fill-rule="nonzero" stroke="#ff7b00" stroke-width="2" stroke-linejoin="miter"><g><path d="M248.69419,201.44673l3.86074,-21.53398l12.95132,4.04864l-9.48558,19.00039c0,0 -2.50014,1.00859 -3.68322,0.76395c-1.25485,-0.2595 -3.64325,-2.27899 -3.64325,-2.27899z" stroke-linecap="butt"/><path d="M252.26168,178.39978c1.30292,-3.80297 5.58662,-5.87696 9.56791,-4.6324c3.98129,1.24456 6.15253,5.3364 4.84961,9.13936c-1.30292,3.80297 -5.58663,5.87697 -9.56792,4.6324c-3.98129,-1.24456 -6.15252,-5.3364 -4.8496,-9.13937z" stroke-linecap="butt"/><path d="M254.38294,185.58326c0,0 0.56743,-4.52987 1.23544,-6.55732c0.62434,-1.89487 2.65047,-5.23654 2.65047,-5.23654" stroke-linecap="round"/><path d="M261.13838,187.54721c0,0 0.5854,-5.64252 1.09299,-7.78628c0.37506,-1.58394 1.67718,-3.91289 1.67718,-3.91289" stroke-linecap="round"/><path d="M252.06498,178.79783c0,0 5.06755,-1.02327 7.66362,-0.78584c2.25856,0.20654 7.04178,2.13067 7.04178,2.13067" stroke-linecap="round"/><path d="M252.37511,184.21646c0,0 5.64551,-0.78481 8.18149,-0.79807c1.97135,-0.01031 5.77162,0.72512 5.77162,0.72512" stroke-linecap="round"/></g><path d="M261.20217,197.2678c-0.86096,2.53873 -3.77422,4.17742 -6.50696,3.66012c-2.73274,-0.51729 -4.70671,-2.34042 -3.84575,-4.87915c0.86096,-2.53873 4.2308,-4.8317 6.96352,-4.3144c2.73274,0.51729 4.25012,2.99468 3.38916,5.53342z" stroke-linecap="butt"/></g><g fill="#000000" fill-rule="nonzero" stroke="#ff7b00" stroke-width="2" stroke-linecap="butt" stroke-linejoin="miter"><path d="M216.75737,148.51962c-1.30215,4.35008 -21.50247,13.12156 -21.50247,13.12156c0,0 -2.96312,-0.01131 -4.36066,-0.08678c-10.46663,-0.56502 -17.5742,-3.65982 -16.42542,-7.49748c1.30215,-4.35008 12.71963,-8.00737 25.50162,-8.16879c12.78201,-0.16141 18.08908,-1.71861 16.78692,2.63148z"/><path d="M200.80003,144.78646l-12.23828,-3.14321c0,0 14.68548,-6.92266 22.79385,-9.06487c9.8066,-2.59089 31.92573,-5.39194 31.92573,-5.39194l-13.83765,18.15989z"/><path d="M192.70102,162.68185c0,0 -3.25126,-7.10808 -3.95739,-10.59581c-0.68502,-3.38358 -0.21798,-10.02753 -0.21798,-10.02753l26.80139,-5.24004c0,0 0.84483,7.52946 1.56052,11.06442c0.67354,3.32684 2.61486,9.5589 2.61486,9.5589z" data-paper-data="{&quot;index&quot;:null}"/><path d="M219.06621,157.46181c0,0 -1.33915,-6.39718 -2.44485,-9.61218c-1.17486,-3.41613 -4.40941,-10.31787 -4.40941,-10.31787l31.75773,-10.29499c0,0 4.16041,5.42166 5.28497,8.69148c1.15917,3.37046 1.5693,11.23856 1.5693,11.23856z"/></g><path d="M220.1712,201.63188c-0.3864,4.05513 1.62917,7.79345 0.20476,9.89131c-0.92963,1.36917 -2.47787,2.34108 -3.52968,2.24964c-1.17231,-0.10192 -3.0638,-1.57986 -3.73286,-3.40246c-0.85103,-2.31828 -2.9449,-5.82514 -2.5874,-9.57706c0.31536,-3.30963 3.14748,-6.65016 4.20995,-8.76509c1.08891,-2.16756 3.07465,-2.64144 4.42274,-2.52425c1.45542,0.12653 2.91246,1.13208 3.55229,3.77401c0.53106,2.19284 -2.25017,5.31431 -2.53981,8.35388z" fill="#000000" fill-rule="nonzero" stroke="#ff7b00" stroke-width="2" stroke-linecap="butt" stroke-linejoin="miter"/></g></g></svg>