<svg version="1.1" xmlns="http://www.w3.org/2000/svg" xmlns:xlink="http://www.w3.org/1999/xlink" width="100.65123" height="114.15493" viewBox="0,0,100.65123,114.15493"><defs><radialGradient cx="249.21093" cy="170.38457" r="7.3567" gradientUnits="userSpaceOnUse" id="color-1"><stop offset="0" stop-color="#54606d"/><stop offset="1" stop-color="#2c3136"/></radialGradient></defs><g transform="translate(-164.33643,-96.1155)"><g data-paper-data="{&quot;isPaintingLayer&quot;:true}" stroke-miterlimit="10" stroke-dasharray="" stroke-dashoffset="0" style="mix-blend-mode: normal"><g fill-rule="nonzero" stroke="#001026" stroke-width="1.2" stroke-linejoin="miter"><path d="M230.54885,168.86038c1.05538,3.99756 4.19011,6.89642 3.61999,9.37052c-0.37209,1.6147 -1.4459,3.05546 -2.43634,3.31695c-1.1039,0.29144 -3.34095,-0.49168 -4.58343,-2.009c-1.58038,-1.92995 -4.70614,-4.58199 -5.68262,-8.28066c-0.86136,-3.26265 0.56051,-7.38924 0.79482,-9.75961c0.24012,-2.42937 1.88559,-3.53994 3.15502,-3.87507c1.37051,-0.36182 3.04759,0.11458 4.54781,2.4234c1.24521,1.91634 -0.20633,5.81705 0.58474,8.81347z" fill="#ffab19" stroke-linecap="butt"/><g><g><path d="M221.78601,173.79505l19.95719,-9.68614l3.9714,12.60635l-21.04201,3.75281c0,0 -2.24448,-1.37523 -2.7106,-2.4528c-0.49441,-1.14294 -0.17599,-4.22022 -0.17599,-4.22022z" fill="#505a63" stroke-linecap="butt"/><path d="M242.82662,162.98322c3.87524,-1.22083 8.00642,0.931 9.22725,4.80624c1.22083,3.87524 -0.93101,8.00643 -4.80624,9.22725c-3.87524,1.22083 -8.00644,-0.93101 -9.22725,-4.80625c-1.22083,-3.87524 0.93102,-8.00642 4.80626,-9.22725z" fill="url(#color-1)" stroke-linecap="butt"/><path d="M238.0943,168.90272c0,0 4.05999,-2.23054 6.11095,-2.90237c1.91684,-0.62789 5.81968,-1.00572 5.81968,-1.00572" fill="none" stroke-linecap="round"/><path d="M240.28784,175.39084c0,0 4.98865,-2.87415 7.04504,-3.74123c1.5194,-0.64064 4.17735,-0.99069 4.17735,-0.99069" fill="none" stroke-linecap="round"/><path d="M242.38694,163.06343c0,0 3.70641,3.39111 4.97644,5.57863c1.10491,1.90312 2.2176,6.81247 2.2176,6.81247" fill="none" stroke-linecap="round"/><path d="M238.08881,166.51139c0,0 3.83594,3.98786 5.27896,5.97977c1.12174,1.54843 2.66066,4.97993 2.66066,4.97993" fill="none" stroke-linecap="round"/></g><path d="M232.29919,181.18779c-2.58199,0.82194 -5.57991,-0.50656 -6.69607,-2.9673c-1.11616,-2.46074 -0.72581,-5.09512 1.85619,-5.91707c2.58199,-0.82194 6.37788,0.47979 7.49402,2.94053c1.11616,2.46074 -0.07215,5.12187 -2.65415,5.94383z" fill="#ffab19" stroke-linecap="butt"/></g></g><path d="M225.07592,172.07645c0.33395,0.66735 0.98096,1.90129 1.74703,3.56601c1.45479,3.16133 3.33895,7.8761 4.32383,13.21388l0.04975,0.40929c0.04975,0.40929 0.52117,0.66963 0.94284,0.52063c2.59187,-1.39005 7.73849,-3.87244 8.74505,1.79561c1.0313,5.46959 -14.18509,13.54929 -17.33711,8.92384c-1.1542,-2.0586 -0.24929,-3.65893 0.25899,-4.50254c0.26031,-0.47141 0.32216,-0.96758 0.2848,-1.47611c-0.24849,-1.24027 -0.77018,-3.52233 -1.45297,-5.32061c-1.65117,-4.53913 -2.42055,-5.64279 -3.66162,-7.81297c-1.24107,-2.1702 -4.34359,-7.19258 -0.71046,-10.46829c3.07511,-2.84142 5.8294,-0.68412 6.80988,1.15127z" fill="#ffab19" fill-rule="evenodd" stroke="#001026" stroke-width="1.2" stroke-linecap="round" stroke-linejoin="round"/><g fill-rule="evenodd"><path d="M211.44333,174.26895c0.84275,0.29962 2.63968,0.98594 0.6715,4.65286c-1.96818,3.66692 -8.73161,5.20182 -9.52566,5.29922c-3.06476,0.4767 -6.83649,0.93937 -11.1757,0.06115c-12.59625,-2.48483 -14.2905,-15.47519 -10.6752,-18.03441c3.51604,-2.54705 6.18961,5.28571 12.24529,9.4796c2.65001,1.89142 5.62583,2.33238 8.06886,2.53645c3.44776,0.18157 9.43673,-4.38157 10.39091,-3.99487z" fill="#ffab19" stroke="#001026" stroke-width="1.2" stroke-linecap="round" stroke-linejoin="round"/><path d="M185.84162,169.24874c1.91683,2.4851 5.45644,5.87939 5.45644,5.87939c0,0 -3.78205,-0.44281 -5.65945,1.50023c-1.52907,1.49731 -0.86419,3.63224 -0.58045,4.30268c-1.44861,-1.13205 -3.25587,-2.72385 -4.67457,-6.07605c-1.4187,-3.35221 -0.93751,-7.64271 0.97455,-8.48176c1.93642,-0.64053 2.61533,0.78743 4.48346,2.87551z" fill="#ffffff" stroke="none" stroke-width="1" stroke-linecap="butt" stroke-linejoin="miter"/></g><path d="M209.71911,179.47974c0.22842,-2.06829 1.98409,-5.09445 5.89475,-3.59888c4.59009,1.69148 3.57555,7.50703 3.22958,9.98297c-0.34597,2.47595 0.14847,3.83177 0.30187,8.65945c0.03419,1.92324 -0.40105,4.19046 -0.17097,5.43427c0.08586,0.27055 0.39128,10.58464 -8.15828,9.65344c-7.54833,-0.82215 -0.69887,-12.30827 -0.69887,-12.30827c0,0 -0.87137,-10.38761 -0.69521,-13.86315c0.09276,-1.83017 0.23503,-3.21618 0.29714,-3.95983z" data-paper-data="{&quot;index&quot;:null}" fill="#ffab19" fill-rule="evenodd" stroke="#001026" stroke-width="1.2" stroke-linecap="round" stroke-linejoin="round"/><g fill-rule="evenodd"><path d="M214.77029,180.64223c-11.40625,-3.32224 -6.9658,-9.65804 -6.84288,-15.16393c0.27593,-4.79415 1.623,-4.60607 7.48163,-6.37144c3.23516,-1.15918 5.14098,-1.83588 7.03497,-2.95962c2.86452,-1.6415 4.59444,2.87596 4.97708,5.50532c0,0 0.50632,3.92347 0.25365,6.21173c-0.3291,2.78239 -0.68182,4.67067 -1.31697,6.02957c0,0 -1.36444,2.92095 -3.38702,4.09887c-1.81808,1.05882 -8.20046,2.6495 -8.20046,2.6495z" fill="#ffab19" stroke="#001026" stroke-width="1.2" stroke-linecap="round" stroke-linejoin="round"/><path d="M225.51662,174.22925c0,0 -1.88827,-0.35273 -4.00599,-0.92308c-2.61184,-0.64677 -5.08247,-1.02884 -4.777,-4.70534c0.4585,-2.96476 0.4522,-6.58828 5.78754,-6.14771c5.06475,0.35826 4.56509,3.45831 4.56509,3.45831c0.17704,5.00586 -1.56965,8.31782 -1.56965,8.31782z" fill="#ffffff" stroke="none" stroke-width="1" stroke-linecap="butt" stroke-linejoin="miter"/></g><g><path d="M228.08306,101.45164c0.27661,-0.23128 0.78449,-0.18596 0.92718,0.20088l3.74225,10.35594c0,0 6.87088,3.98008 9.11672,7.05517c3.7762,5.12155 4.36242,9.58433 4.36242,9.58433c0,0 7.28551,1.31961 9.09508,6.85635c1.80958,5.53674 -1.39628,16.74934 -19.68569,22.46138c-18.28941,5.71204 -33.85251,2.27546 -42.14407,-8.28957c-8.29156,-10.56503 1.37148,-25.29682 0.86154,-24.43661c0,0 -2.75406,-15.73657 -2.33477,-15.58102l11.93552,3.97431c0,0 4.28969,-2.17683 8.94047,-2.88409c2.76193,-0.50172 5.16948,-0.56253 7.49925,-0.41369z" fill="#ffab19" fill-rule="evenodd" stroke="#001026" stroke-width="1.2" stroke-linecap="butt" stroke-linejoin="miter"/><path d="M245.97665,129.07806c0,0 7.05423,1.043 8.8638,6.57974c1.80958,5.53674 -1.84803,16.29554 -19.94943,21.88653c-23.51709,7.58857 -36.50737,-5.48287 -30.99338,-16.74545c5.50317,-11.362 17.92011,-3.55945 26.2059,-5.06463c7.10366,-1.27595 7.21744,-7.62552 15.8731,-6.65619z" fill="#ffffff" fill-rule="evenodd" stroke="none" stroke-width="1" stroke-linecap="butt" stroke-linejoin="miter"/><path d="M264.38766,128.18112c-4.26134,4.28614 -11.40827,5.16444 -11.40827,5.16444" fill="none" fill-rule="evenodd" stroke="#001026" stroke-width="1.2" stroke-linecap="round" stroke-linejoin="round"/><path d="M264.30689,139.45603c-6.20894,1.17859 -10.29159,-0.28836 -10.29159,-0.28836" fill="none" fill-rule="evenodd" stroke="#001026" stroke-width="1.2" stroke-linecap="round" stroke-linejoin="round"/><path d="M229.42463,133.19278c2.08767,-0.22717 4.29641,-0.26634 4.47154,0.41873c0.25087,1.38097 -0.93744,4.3268 -2.51723,4.5993c-1.76781,0.39355 -6.2136,-1.63743 -6.38669,-3.22805c-0.22923,-1.18214 2.44411,-1.57363 4.43238,-1.78999z" fill="#001026" fill-rule="evenodd" stroke="#001026" stroke-width="1.2" stroke-linecap="round" stroke-linejoin="round"/><path d="M184.52644,136.5696c0,0 8.85243,1.85323 12.66724,4.55642" fill="none" fill-rule="evenodd" stroke="#001026" stroke-width="1.2" stroke-linecap="round" stroke-linejoin="round"/><path d="M197.87056,144.57303c-4.09086,2.15519 -11.56643,1.86217 -11.56643,1.86217" fill="none" fill-rule="evenodd" stroke="#001026" stroke-width="1.2" stroke-linecap="round" stroke-linejoin="round"/><g fill="none" fill-rule="nonzero" stroke="none" stroke-width="1" stroke-linecap="butt" stroke-linejoin="miter" font-family="sans-serif" font-weight="normal" font-size="12" text-anchor="start"/><g fill="none" fill-rule="nonzero" stroke="none" stroke-width="1" stroke-linecap="butt" stroke-linejoin="miter" font-family="sans-serif" font-weight="normal" font-size="12" text-anchor="start"/></g><g fill-rule="nonzero" stroke="#001026" stroke-width="1.2" stroke-linecap="butt" stroke-linejoin="miter"><path d="M205.48575,120.35977c-0.90248,4.48802 -19.73845,14.73209 -19.73845,14.73209c0,0 -2.8699,0.18994 -4.22925,0.20861c-10.18059,0.13992 -17.31722,-2.50697 -16.52106,-6.46633c0.90248,-4.48802 11.65593,-8.96286 24.01848,-9.99484c12.36257,-1.03199 17.37275,-2.96756 16.47027,1.52045z" fill="#00b0f7"/><path d="M189.72796,117.66873l-12.10832,-2.34714c0,0 13.64864,-7.99942 21.32294,-10.71708c9.28158,-3.28683 30.46717,-7.62304 30.46717,-7.62304l-11.90218,19.30672z" fill="#ff2b2b"/><path d="M183.36029,136.31794c0,0 -3.73343,-6.96789 -4.70439,-10.44723c-0.94196,-3.37546 -1.037,-10.12667 -1.037,-10.12667l25.51817,-7.12114c0,0 1.43817,7.5576 2.42228,11.08409c0.92617,3.31887 3.3191,9.4898 3.3191,9.4898z" data-paper-data="{&quot;index&quot;:null}" fill="#cc0000"/><path d="M208.45777,129.24667c0,0 -1.82352,-6.37885 -3.1589,-9.55525c-1.41891,-3.3751 -5.11918,-10.13544 -5.11918,-10.13544l29.90067,-12.5704c0,0 4.47479,5.2005 5.83294,8.43106c1.39995,3.32997 2.44513,11.25961 2.44513,11.25961z" fill="#f70000"/></g><path d="M208.70708,172.63072c-0.61801,4.08808 1.10861,7.99304 -0.39669,10.03761c-0.98242,1.33437 -2.53988,2.23057 -3.55275,2.07745c-1.1289,-0.17065 -2.87135,-1.77737 -3.40952,-3.6632c-0.68453,-2.3987 -2.50089,-6.07355 -1.92909,-9.85597c0.5044,-3.33653 3.44738,-6.55978 4.60328,-8.64243c1.18466,-2.13449 3.13576,-2.50073 4.43393,-2.30448c1.40154,0.21188 2.75177,1.31481 3.21234,4.02943c0.38229,2.25317 -2.49826,5.25731 -2.9615,8.32158z" fill="#ffab19" fill-rule="nonzero" stroke="#001026" stroke-width="1.2" stroke-linecap="butt" stroke-linejoin="miter"/><path d="M228.96489,127.13542c-0.59562,-4.85556 2.85774,-9.27461 7.7133,-9.87023c4.85556,-0.59562 9.27461,2.85774 9.87023,7.7133c0.59562,4.85556 -2.85774,9.27461 -7.7133,9.87023c-4.85556,0.59562 -9.27461,-2.85774 -9.87023,-7.7133z" fill="#ffffff" fill-rule="nonzero" stroke="#001026" stroke-width="1.2" stroke-linecap="butt" stroke-linejoin="miter"/><path d="M204.09825,133.09211c-0.59562,-4.85555 2.85775,-9.27461 7.7133,-9.87023c4.85555,-0.59562 9.27461,2.85774 9.87022,7.7133c0.59562,4.85555 -2.85774,9.27461 -7.7133,9.87022c-4.85555,0.59562 -9.27461,-2.85774 -9.87023,-7.7133z" fill="#ffffff" fill-rule="nonzero" stroke="#001026" stroke-width="1.2" stroke-linecap="butt" stroke-linejoin="miter"/><path d="M239.07933,146.2771c0.49689,2.26603 -12.1584,5.04108 -12.6553,2.77505c-0.49689,-2.26603 1.93328,-4.72423 5.42794,-5.49054c3.49466,-0.76631 6.73046,0.44946 7.22736,2.71549z" fill="none" fill-rule="nonzero" stroke="#001026" stroke-width="1.2" stroke-linecap="butt" stroke-linejoin="miter"/></g></g></svg>