<svg version="1.1" xmlns="http://www.w3.org/2000/svg" xmlns:xlink="http://www.w3.org/1999/xlink" width="34.02257" height="34.66846" viewBox="0,0,34.02257,34.66846"><g transform="translate(-216.11062,-159.18118)"><g data-paper-data="{&quot;isPaintingLayer&quot;:true}" fill-rule="nonzero" stroke="none" stroke-width="0.5" stroke-linecap="butt" stroke-linejoin="miter" stroke-miterlimit="10" stroke-dasharray="" stroke-dashoffset="0" style="mix-blend-mode: normal"><path d="M225.06774,190.17912c0.01753,-0.02191 0.03522,-0.04235 0.05304,-0.06139c-4.09412,-1.93918 -7.34783,-5.59454 -8.32494,-10.0003c-0.32583,-2.27906 -0.88538,-4.68845 -0.61248,-7.01274c0.82737,-7.04694 5.86254,-12.41631 12.76183,-13.47886c3.9627,-0.78346 6.80478,-0.48735 10.70342,0.54146c1.79876,0.47467 4.00038,0.65333 5.41318,1.92903c2.69705,2.43535 3.7035,5.91466 4.46877,9.35222c1.42868,5.75294 0.36253,12.42072 -3.68559,16.91192c-1.17763,1.30653 -2.69638,1.98581 -4.04845,3.04992c-4.96261,2.23121 -11.31928,3.99742 -16.00569,0.30766l-0.60595,-0.48476c0,0 -0.58565,-0.46852 -0.11713,-1.05417zM227.26845,190.9513c4.04665,2.76609 9.61502,0.98838 13.75113,-0.82403c1.22478,-0.98012 2.63554,-1.57378 3.70768,-2.76718c3.71261,-4.13253 4.67341,-10.28501 3.34341,-15.56691c-0.60336,-2.72018 -1.65114,-7.79362 -4.60276,-9.0842c-4.47614,-1.95716 -9.53683,-2.54066 -14.26314,-1.60578c-6.26158,0.9623 -10.77643,5.77205 -11.53267,12.18477c-0.25536,2.16541 0.29645,4.43812 0.59941,6.5605c1.41931,6.37327 8.28587,11.0164 14.92379,10.17615c0,0 0.74421,-0.09303 0.83723,0.65118c0.09303,0.74421 -0.65118,0.83723 -0.65118,0.83723c-2.07118,0.25592 -4.15298,0.03898 -6.11291,-0.56174z" fill="#000000"/><path d="M233.3805,191.46305c0,0 0.74828,0.00686 0.65525,-0.73734c-0.09303,-0.74421 -0.84017,-0.65108 -0.84017,-0.65108c-6.63792,0.84024 -13.55354,-3.84196 -14.97285,-10.21524c-0.30296,-2.12238 -0.85492,-4.41626 -0.59956,-6.58168c0.75624,-6.41272 5.30771,-11.26068 11.56929,-12.22297c4.7263,-0.93488 9.82928,-0.34295 14.30541,1.61422c2.95162,1.29058 4.0171,6.38895 4.62046,9.10913c1.33,5.2819 0.35808,11.4836 -3.35453,15.61612c-1.07214,1.19341 -2.49435,1.79619 -3.71913,2.7763c-4.13611,1.81241 -9.74839,3.5932 -13.79504,0.82712c1.95993,0.60072 4.05966,0.72134 6.13085,0.46542z" data-paper-data="{&quot;noHover&quot;:false,&quot;origItem&quot;:[&quot;Path&quot;,{&quot;applyMatrix&quot;:true,&quot;selected&quot;:true,&quot;segments&quot;:[[[227.26845,190.95129],[1.95993,0.60072],[4.04665,2.76609],7],[[241.01958,190.12727],[-4.13611,1.81241],[1.22478,-0.98012],7],[[244.72727,187.36008],[-1.07214,1.19341],[3.71261,-4.13253],7],[[248.07068,171.79317],[1.33,5.2819],[-0.60336,-2.72018],7],[[243.46792,162.70897],[2.95162,1.29058],[-4.47614,-1.95716],7],[[229.20478,161.10319],[4.7263,-0.93488],[-6.26158,0.9623],7],[[217.67211,173.28796],[0.75624,-6.41272],[-0.25536,2.16541],7],[[218.27152,179.84846],[-0.30296,-2.12238],[1.41931,6.37327],7],[[233.19531,190.02462],[-6.63792,0.84024],[0,0],7],[[234.03254,190.6758],[-0.09303,-0.74421],[0.09303,0.74421],7],[[233.38136,191.51303],[0,0],[-2.07118,0.25592],7]],&quot;closed&quot;:true}]}" fill="#00e4ff"/><path d="M229.41027,186.79243c-0.75,0 -0.75,-0.75 -0.75,-0.75l0.01532,-0.69753c-1.10737,-2.4476 -3.17737,-3.28243 -5.50066,-1.5966c0,0 -0.61442,0.4301 -1.04452,-0.18433c-0.43009,-0.61443 0.18433,-1.04452 0.18433,-1.04452c3.29379,-2.24101 6.3769,-0.99957 7.83021,2.52385l0.01532,0.99913c0,0 0,0.75 -0.75,0.75z" fill="#000000"/><path d="M228.38004,173.92393c-0.72761,-0.1819 -0.54571,-0.90951 -0.54571,-0.90951l0.10338,-0.38568c0.1694,-1.47682 0.59108,-2.85427 0.72563,-4.34791c0,0 0.0679,-0.74692 0.81482,-0.67902c0.74692,0.0679 0.67902,0.81482 0.67902,0.81482c-0.13762,1.50097 -0.57023,2.89676 -0.72865,4.37775l-0.139,0.58384c0,0 -0.1819,0.72761 -0.90951,0.54571z" fill="#000000"/><path d="M240.4841,172.63594c-0.53033,0.53033 -1.06066,0 -1.06066,0l-0.26168,-0.31611c-0.60065,-1.2013 -1.13369,-2.34894 -1.5046,-3.64387c0,0 -0.20604,-0.72114 0.5151,-0.92718c0.72114,-0.20604 0.92718,0.5151 0.92718,0.5151c0.34366,1.20607 0.84468,2.26658 1.40395,3.38513l-0.0193,-0.07373c0,0 0.53033,0.53033 0,1.06066z" fill="#000000"/></g></g></svg>