<svg version="1.1" xmlns="http://www.w3.org/2000/svg" xmlns:xlink="http://www.w3.org/1999/xlink" width="68.27175" height="119.27355" viewBox="0,0,68.27175,119.27355"><g transform="translate(-231.3426,-126.3531)"><g data-paper-data="{&quot;isPaintingLayer&quot;:true}" fill-rule="nonzero" stroke="none" stroke-linecap="butt" stroke-linejoin="miter" stroke-miterlimit="10" stroke-dasharray="" stroke-dashoffset="0" style="mix-blend-mode: normal"><path d="M267.80705,185.06544c-3.87079,-0.96355 -7.70106,-2.04253 -11.29153,-3.84886c-1.80969,-0.61459 -5.30408,-2.04585 -6.42841,-3.69643c-1.86906,-2.74388 0.67691,-7.8904 0.63385,-10.85359c0.02255,-6.19655 2.16712,-13.96284 6.02253,-18.90229c1.86629,-2.30702 4.07164,-1.06345 6.55409,-0.65318c3.99553,0.66033 8.19724,1.54738 12.06567,2.82565c1.57066,0.52749 3.00459,1.39185 4.61321,1.84016c4.91603,1.37004 10.62104,1.43127 14.99149,4.34286c0.22463,2.74996 -1.52533,4.89273 -2.63767,7.2933c-1.3402,2.89234 -1.32481,6.8265 -1.84955,9.92609c-0.00283,5.23083 -2.31683,9.8426 -5.33558,13.85705c0.75845,0.00912 1.49928,-0.05005 2.09012,-0.35415c1.40251,-0.72187 2.17993,-2.39528 2.83895,-3.72982c3.17056,-6.29711 3.59598,-12.93541 6.05692,-19.42832c0.24753,-1.69885 3.14569,-6.71287 1.78774,-8.25802c-0.59862,-0.68114 -1.99745,-0.88532 -2.80325,-1.13717c-2.3461,-0.73328 -4.48574,-1.92116 -6.80176,-2.6933c-1.90099,-0.95824 -4.19716,-1.26806 -6.21932,-1.73804c-4.28469,-0.99583 -8.8059,-3.57151 -13.25773,-3.54686c-3.04813,-0.49858 -6.90906,-0.87687 -9.95202,-0.36788c-1.86646,0.3122 -3.78225,1.34796 -5.62359,1.38747c0,0 -0.01642,0 -0.0444,-0.00243l-0.38724,0.48373c-0.15424,0.19045 -0.30848,0.38089 -0.46273,0.57134c-3.11596,6.27715 -4.31545,12.82221 -5.25112,19.72401c-0.80898,2.45426 -1.96655,7.44824 0.07114,9.62174c1.6888,1.80135 4.50827,2.46316 6.80185,3.22782c5.4477,1.82957 10.55403,3.81193 16.11752,4.865c-0.77427,-0.28776 -1.54165,-0.56731 -2.29921,-0.75589zM282.39698,148.38803c2.11433,0.484 4.5015,0.83352 6.4917,1.82159c2.75867,0.91972 5.70335,2.05373 8.38882,3.17824c1.13135,0.47374 1.96853,0.94411 2.23191,2.22546c0.59738,2.90624 -1.53317,5.66196 -1.9252,8.44221c-2.46084,6.60971 -2.97829,13.32036 -6.16869,19.72754c-0.82925,1.63834 -1.77304,3.5484 -3.52193,4.40647c-1.49246,0.73225 -3.37188,0.32982 -4.97169,0.4551c-3.57995,0.28033 -6.66335,-0.50358 -10.19253,-0.89252c-0.81599,-0.10212 -1.62004,-0.22642 -2.41442,-0.3698c0.0962,0.08251 0.18645,0.17481 0.26986,0.27743c0.42535,0.52329 0.20579,2.41861 -0.19206,3.72896c0.11084,0.05147 0.18033,0.1094 0.18033,0.1094c4.16917,3.50128 -0.69613,9.60085 -1.84876,13.88258c0.56842,0.00694 1.17066,0.22143 1.65023,-0.14274c1.18769,-0.90191 2.46304,-2.00358 4.16605,-1.64318c1.86276,0.3942 2.47953,2.10392 1.86229,3.42368c2.6822,1.26423 6.18429,3.90742 3.79195,7.21392c-1.19359,1.64969 -3.32027,-0.49676 -4.11559,0.0499c-0.37747,0.25946 0.00344,0.92378 -0.09838,1.3703c-0.15621,0.68503 -0.48659,1.32841 -0.85477,1.92694c-2.04922,0.82947 -2.81507,0.48285 -4.0779,-0.71795c-0.42751,-0.40651 -1.12012,0.56555 -1.70401,0.48065c-0.68463,-0.09956 -1.60382,-0.96811 -1.87608,-1.55076c-0.10282,-0.22002 -0.15177,-0.53043 -0.16324,-0.85733c-0.14006,0.08462 -0.2813,0.16721 -0.42359,0.2478c0.00827,0.00926 0.01652,0.01882 0.02474,0.02869c0.47983,0.57617 -0.0966,1.0563 -0.0966,1.0563c-2.36738,1.90051 -2.56891,6.9826 -4.62229,9.46638c1.88132,0.98036 4.64656,0.33057 6.03788,1.95425c1.32458,1.54579 1.13423,3.86239 -0.65089,4.88829c-1.75839,1.01054 -4.81085,0.257 -6.62305,-0.14771c-1.63227,-0.54263 -2.28928,-1.71576 -3.68562,-2.3853c-1.5583,-0.7472 -3.33809,-1.10045 -3.40584,-2.45836c-0.00573,0.01403 -0.01144,0.02806 -0.01712,0.0421c-0.75819,1.87256 -0.60031,4.42045 -2.06853,6.00065c-0.05621,0.0605 -0.11377,0.11761 -0.17262,0.17157c1.7017,1.73906 4.51461,2.89467 5.80924,4.78388c2.48504,3.62636 -2.40372,6.36366 -5.1957,7.04362c-3.13964,0.01955 -8.16113,-0.75264 -9.59556,-4.09463c-0.37415,-0.87171 0.09068,-2.30535 -0.59007,-3.05488c-1.23678,-1.36175 -2.91032,-1.84856 -3.7006,-3.64085c-0.17083,-1.70679 0.27485,-2.52316 1.56469,-3.60539l0.67251,-0.45331c0,0 0.3047,-0.20306 0.6301,-0.11265c-0.58855,-3.21275 1.86519,-7.45565 3.44047,-10.20192c-1.92393,-1.18658 -3.66296,-3.03724 -4.66229,-4.43734c0,0 -0.25165,-0.35258 -0.10432,-0.71319c-0.33465,-0.38306 -0.61589,-0.81286 -0.82853,-1.28876l-0.01611,-0.96794c0,0 0.00005,-0.09414 0.03347,-0.21571c-3.02378,-3.71463 -8.85674,-7.16419 -7.52017,-12.13308c2.195,-2.0106 3.97157,-1.97881 5.42071,-0.89465c-0.10194,-1.08243 -0.32347,-2.86891 -0.11479,-3.31733c1.18151,-2.53877 3.20594,-0.01386 4.10362,1.46834c0.26407,-0.24169 0.53771,-0.42385 0.81769,-0.55305c-0.00595,-0.01094 -0.01181,-0.02217 -0.01757,-0.0337c-0.33505,-0.67082 0.33595,-1.00623 0.33595,-1.00623c1.22228,-0.56689 1.39971,-1.64275 2.01399,-2.7368c1.4331,-2.55239 4.78072,-8.71359 8.21094,-7.71315c1.63488,-2.82244 4.87945,-2.01445 6.77432,0.29725c0.11325,-0.17953 0.26141,-0.36383 0.44795,-0.55213c0.29239,-0.29515 0.79414,-0.59012 1.22468,-0.83359c-2.39145,-0.78808 -4.78121,-1.63856 -7.24237,-2.45222c-2.49663,-0.83236 -5.65011,-1.59653 -7.43293,-3.63717c-2.35154,-2.69161 -1.45976,-7.92414 -0.42623,-10.97322c0.93367,-7.06811 2.21711,-13.78648 5.44934,-20.19463c0.13229,-0.16684 0.26458,-0.33368 0.39687,-0.50052c-0.80608,-0.18181 -1.48319,-0.61809 -1.87659,-1.66323c-0.52888,-1.40504 0.45184,-2.07162 1.34684,-2.53341c0.00202,-0.08194 0.02028,-0.15735 0.04712,-0.22483c-0.11109,-0.19749 -0.44095,-0.46452 -0.50578,-0.6858c-0.28155,-0.96087 -0.5506,-1.9915 -0.77329,-2.969c-0.42842,-1.8806 -0.18025,-3.96695 0.14049,-5.84976c0.8164,-1.92699 1.34679,-4.37618 3.28173,-5.5295c4.67666,-2.78751 10.72751,-0.79776 12.40507,4.28829c0.2682,1.61442 0.79068,3.14534 0.6526,4.81931c-0.02723,0.33009 -0.10017,0.74273 -0.16505,1.18627c0.07436,0.16623 0.09207,0.38482 -0.05934,0.64953c-0.0086,0.01504 -0.01735,0.02953 -0.02624,0.0435c-0.05632,0.60717 -0.05143,1.22244 0.13701,1.7283c0.17534,0.08975 0.34873,0.26251 0.36661,0.59503c0.0118,0.0122 0.02384,0.02423 0.03611,0.03611c0.93896,0.90804 3.32519,1.08533 3.13784,3.0248c-0.03241,0.33556 -0.19274,0.6053 -0.41396,0.83051c4.46895,0.1187 8.86424,2.58357 13.16514,3.5681zM258.2886,139.85759c2.14979,-0.15874 4.23052,0.22724 6.3312,0.34562c-0.14341,-0.5375 -0.22761,-1.12227 -0.27681,-1.73246l-0.14116,-0.08316c-4.42973,-0.65462 -8.27589,0.6644 -12.25365,2.38074c0.06273,0.32329 0.12308,0.65375 0.17825,0.99406c2.04766,-0.67837 3.90301,-1.73798 6.16216,-1.9048zM250.24008,199.2336c0,0 0.00041,-0.75 0.75041,-0.75c0.75,0 0.74959,0.75 0.74959,0.75c-0.01422,1.59686 -0.53518,3.36721 -1.04179,4.88458l-0.01397,0.08524c1.78316,0.39663 2.63127,3.60225 2.17286,5.02655c-0.16163,0.50217 -0.52184,0.92977 -0.9356,1.31611l0.01994,0.04228c0.58584,1.76099 0.84938,3.08512 0.84522,4.94625c-0.0075,0.05915 -0.01528,0.12001 -0.02339,0.18239c2.92423,0.97163 5.12104,1.59656 8.58161,1.05766c1.40398,-0.21864 2.77452,-0.49093 3.30053,-1.53459c-2.29352,1.37754 -6.28326,1.55015 -7.30579,-0.75159c-0.80031,-1.80153 1.47862,-3.72613 2.12725,-5.1885c0.66277,-1.49425 0.64396,-2.8989 0.64666,-4.50117c0.25515,-1.9564 -0.19986,-3.96641 -0.20096,-5.93353l0.00011,-0.20272c0,0 0.00012,-0.22086 0.12008,-0.42287c-2.20188,-1.22043 -0.90792,-5.16753 1.21425,-6.37582c-1.40111,-0.29829 -2.60883,-1.19165 -2.84813,-2.68238l-0.00093,-0.95883c0,0 0.00014,-0.26743 0.15996,-0.48291l-0.42527,-0.29746c-1.10458,-1.5496 -3.4621,-2.92497 -4.55004,-0.80152c0.28519,0.24478 0.56938,0.54854 0.8515,0.9175c0.18835,0.49354 0.32463,0.95425 0.41768,1.39249c1.85307,0.31001 2.44848,1.183 1.63863,3.11488c0,0 -0.29581,0.68936 -0.98501,0.39392c-0.6892,-0.29544 -0.39339,-0.9848 -0.39339,-0.9848c0.13413,-0.30329 0.57845,-0.61277 0.41797,-0.90282c-0.09737,-0.176 -0.29315,-0.21644 -0.51582,-0.21544c0.02781,1.5709 -0.45599,2.9758 -0.91979,4.83907l0.02227,0.22353c0,0 -0.00041,0.75 -0.75041,0.75c-0.75,0 -0.74959,-0.75 -0.74959,-0.75l0.02271,-0.58733c0.51771,-2.0543 1.14958,-3.41492 0.82506,-5.28297l-0.02819,-0.02803c0,0 -0.15995,-0.26683 -0.10187,-0.55987c-0.05859,-0.21911 -0.13016,-0.4459 -0.21619,-0.68199c-1.23382,-1.7059 -2.86636,-0.46491 -4.14792,0.53204c-2.64653,2.05879 -2.91492,6.38074 -5.46268,8.40868c2.76286,0.54117 5.51059,4.62371 5.51652,6.68316c-0.49562,1.02146 -1.17105,1.92592 -1.89162,2.80084c0.30722,-0.10405 0.64517,-0.19404 1.0227,-0.275c-0.00421,-0.03907 -0.0042,-0.06284 -0.0042,-0.06284l0.09908,-0.47347c0.96534,-1.68632 1.32611,-3.47859 1.74639,-5.36529c0,0 0.04322,-0.19404 0.18505,-0.36014c0.04018,-0.31838 0.06168,-0.63118 0.05852,-0.93328zM256.11025,226.25552l-0.40133,0.37396c-1.1572,1.69975 1.08663,1.48461 2.2364,2.07588c1.37983,0.70958 1.85406,1.75782 3.40694,2.27718c1.48846,0.32907 8.57289,1.31461 5.70374,-2.35449c-0.96614,-1.23551 -4.47009,-0.89517 -6.08505,-1.88754c-0.8069,0.41698 -1.82502,0.53558 -3.15132,0.21634c-0.12681,-0.03053 -1.21499,-0.66687 -1.57895,-0.8799c-0.06284,0.11101 -0.13043,0.17856 -0.13043,0.17856zM261.85262,185.93445c-0.22576,0.1286 -0.4572,0.2477 -0.67729,0.3858c-3.46847,2.17634 4.12628,1.8036 4.02015,0.69444l-0.00573,-0.10969c0,0 0.00022,-0.41472 0.30874,-0.62738c-1.09176,-0.29849 -2.17344,-0.62284 -3.2517,-0.96401c-0.00703,0.39969 -0.39417,0.62084 -0.39417,0.62084zM266.68975,186.905l-0.00595,0.29574c-0.00247,0.01167 -0.005,0.02329 -0.00761,0.03485c0.38335,-0.16453 0.78731,-0.28868 1.18976,-0.35891c-0.41864,-0.09685 -0.83516,-0.19831 -1.24992,-0.30389c0.07381,0.1722 0.07372,0.3322 0.07372,0.3322zM255.05017,225.19486c0,0 0.09872,-0.09866 0.25353,-0.16832c-0.05019,-0.07575 -0.09581,-0.15011 -0.13699,-0.22326c-0.08563,0.18128 -0.173,0.36199 -0.26101,0.54239zM241.39725,232.02529l-0.54423,0.35756c-0.77976,0.64391 -1.21013,1.0254 -1.0737,2.07066c0.56359,1.40605 2.473,1.91678 3.39086,3.0488c0.90769,1.11948 0.33455,2.27962 0.82544,3.43204c1.13273,2.65923 5.60047,3.18412 8.03682,3.20316c0.67408,-0.17391 1.44367,-0.26466 2.0554,-0.61874c5.73965,-3.32223 -1.41316,-6.31522 -3.84721,-8.9832c-0.41933,0.12334 -0.86123,0.1919 -1.30835,0.24955c-1.32697,0.00181 -2.63438,0.06998 -3.9183,-0.33654c-1.81068,-0.57332 -2.88102,-1.48729 -3.43118,-2.60004c-0.091,0.11375 -0.18554,0.17675 -0.18554,0.17675zM245.88442,219.68238c0.01904,0.00952 0.03727,0.01932 0.05472,0.02936c2.38363,0.75606 4.349,-0.44637 5.09865,-3.02481l-0.04514,-0.02131c0,0 -0.67064,-0.33541 -0.33487,-1.00623c0.16825,-0.33613 0.42057,-0.41962 0.63047,-0.41926c-0.01798,-1.38681 -0.20503,-2.38012 -0.59901,-3.64738c-0.0195,0.01734 -0.03877,0.03465 -0.05778,0.05194c1.35746,5.28734 -4.15146,6.97322 -8.16407,5.42679c0.40594,0.58031 0.84621,1.12346 1.33773,1.49367c0.6143,0.4627 1.21766,0.80282 1.79904,1.02842c0.08582,0.01059 0.17923,0.03829 0.28025,0.08881zM246.18116,233.19703c0.87394,0.15382 1.77649,0.08967 2.65872,0.09099c3.10548,-0.3711 2.69625,-3.91579 3.61109,-6.22072c0.77099,-1.94251 2.23504,-3.91252 2.37186,-6.04796c-0.19403,-0.09021 -0.39535,-0.27747 -0.39514,-0.66614c0.00041,-0.75 0.75041,-0.75 0.75041,-0.75c1.28936,0 2.58124,0.06261 3.86224,-0.09584l0.45053,-0.0923c0,0 0.73551,-0.14709 0.8822,0.58835c0.14669,0.73543 -0.58882,0.88252 -0.58882,0.88252l-0.56316,0.11041c-0.46033,0.0554 -0.9213,0.08537 -1.38278,0.10085c-0.0108,0.06252 -0.02376,0.10134 -0.02376,0.10134l-0.33422,0.84591c-1.12077,1.36267 -1.82187,1.40203 -0.4308,2.78065c4.65438,2.60364 5.55782,-3.52658 7.28492,-7.40275c-2.62778,1.5217 -7.14371,1.4483 -9.52552,0.92535c-0.78838,-0.17309 -1.54403,-0.61306 -2.30916,-1.00703c-0.16201,0.77587 -0.39293,1.54924 -0.73793,2.0892c-1.56676,2.45215 -3.71302,2.59527 -5.794,1.72479c-1.95236,3.37976 -6.56825,10.84876 0.21332,12.04239zM267.55779,212.97054c-0.69195,-0.31086 -1.06855,-0.76216 -1.21876,-1.28674c0.00657,0.51445 -0.01596,1.03433 -0.07413,1.5609c-0.02229,0.1299 -0.05771,0.25702 -0.1052,0.38107c0.052,0.05461 0.09119,0.1153 0.12073,0.17578c0.44049,-0.25296 0.86747,-0.53098 1.27736,-0.831zM270.2017,207.18723l-0.536,0.75655c-0.52726,0.45112 -2.76563,3.06785 -1.82103,3.74113c0.54486,0.38836 1.29287,0.80651 1.36483,1.47186c0.05304,0.49042 -1.14335,2.64547 0.38874,2.70695c0.72437,0.02907 1.37876,-0.67624 2.14804,-0.33022c0.32282,0.14521 0.25379,0.67674 0.48521,0.94456c0.35289,0.4084 1.46409,0.09651 1.92294,-0.04077c0.39365,-0.84009 0.32503,-2.86483 1.07763,-3.3924c0.43313,-0.30363 3.63011,0.633 3.79025,0.25262c1.24901,-2.96678 -1.48519,-4.23062 -3.69834,-5.12242c-0.05833,0.0337 -0.1186,0.06585 -0.18081,0.09635l-0.66654,0.22487c0,0 -0.71164,0.23717 -0.94843,-0.47434c-0.23679,-0.71151 0.47485,-0.94868 0.47485,-0.94868l0.54998,-0.18056c0.87333,-0.26685 0.84353,-1.73151 -0.20481,-1.81024c-1.54693,-0.11617 -2.0108,0.66419 -3.13339,1.39756c-0.33488,0.21877 -0.62894,0.34952 -0.90018,0.43652c-0.03885,0.15964 -0.11294,0.27068 -0.11294,0.27068zM266.77131,207.75813c-0.47983,-0.57617 0.0966,-1.0563 0.0966,-1.0563c0.13592,-0.11223 0.25687,-0.24495 0.37406,-0.38227c-0.19087,-0.2644 -0.12203,-0.60767 -0.12203,-0.60767l0.10948,-0.54161c0.53052,-2.1175 1.071,-4.51607 2.09634,-6.45495c1.16698,-2.20672 2.67569,-4.02412 0.36253,-6.00095c-1.14005,0.96238 -1.63984,-0.06246 -2.67946,-0.19542c-0.17314,-0.02214 -0.90777,0.30158 -1.47821,0.54387c0.68984,1.68778 -0.05575,3.85132 -1.69194,4.90541c0.00703,0.05273 0.00701,0.08615 0.00701,0.08615c-0.01325,1.98319 0.41348,3.87899 0.91755,5.75724c0.88033,-3.32306 3.077,-6.38888 3.05799,-9.81157c0,0 0.00041,-0.75 0.75041,-0.75c0.75,0 0.74959,0.75 0.74959,0.75c-0.0228,4.05371 -2.85733,7.44609 -3.35681,11.44514l-0.1035,0.72254c0,0 -0.04878,0.34022 -0.31059,0.52715c0.34171,1.31524 0.63024,2.63944 0.74114,3.99658c0.13267,-0.90466 0.6773,-1.88897 1.30949,-2.70797c-0.21193,0.08493 -0.53856,0.12414 -0.82965,-0.22539zM264.37734,189.74303l0.0226,-0.38462c0.00949,-0.03508 0.02028,-0.07014 0.03231,-0.10516c-1.49277,0.38362 -3.36751,0.11255 -4.53522,-0.57635l-0.00091,0.41138c0.07832,1.57469 3.32401,1.87377 4.48241,0.68309c-0.00119,-0.01809 -0.00118,-0.02834 -0.00118,-0.02834zM267.09528,191.02142c0.51376,0.02443 0.90509,0.563 1.41732,0.60932c0.47895,0.04331 0.4077,-1.05076 0.43825,-1.21456c0.02391,-0.12822 0.50294,-1.7584 0.45116,-1.83332c-0.43157,-0.62449 -2.31442,-0.1489 -3.15396,0.5737c-0.17188,1.16717 -0.94072,1.97256 -1.9359,2.41505c0.11805,0.08088 0.22852,0.16651 0.33159,0.25636c0.67277,-0.1803 1.86573,-0.83441 2.45154,-0.80656zM261.41276,198.66255l-0.00011,0.20272c-0.0035,2.00546 0.44013,4.02803 0.198,6.02674c0.00177,2.52937 -0.34925,4.47675 -1.74233,6.64214c-0.2294,0.35658 -1.44013,1.80452 -1.16991,2.31809c0.78116,1.48469 6.01796,0.89429 6.07691,-0.7834c0.56759,-5.0245 -2.22051,-9.55521 -2.41872,-14.52518c-0.25156,0.04287 -0.51413,0.06315 -0.78674,0.05801c-0.05486,-0.00104 -0.10877,-0.00296 -0.16173,-0.00575c0.00463,0.04133 0.00461,0.06663 0.00461,0.06663zM263.23162,192.6422l-0.47794,0.23567c-0.25819,0.09644 -0.51638,0.19287 -0.77458,0.2893c-1.84244,0.90377 -2.46487,4.52256 0.33457,3.85371c1.92329,-0.45952 2.9171,-3.56708 0.91795,-4.37868zM249.16121,214.60291c0.60812,-1.07667 0.11312,-2.23667 0.03108,-3.38023c0.9432,-1.25568 2.6373,-2.02442 2.16877,-3.80679c-0.17497,-0.66564 -0.4219,-2.09338 -1.03744,-1.78495c-0.20072,0.10057 -0.49921,1.82349 -1.37074,2.14955c-2.07384,0.77588 -2.53977,0.60383 -3.87077,2.82277c0,0 -0.38622,0.64312 -1.02913,0.25725c-0.64291,-0.38587 -0.25669,-1.02899 -0.25669,-1.02899c0.07766,-0.12919 0.15375,-0.25344 0.22865,-0.37302c-0.38655,-0.32131 -0.17987,-0.83731 -0.17987,-0.83731l0.31202,-0.69454c1.12361,-1.41412 2.55951,-2.76558 3.40739,-4.3685c0.01012,-1.38814 -3.97078,-6.54293 -5.7469,-4.34992c-1.48098,1.8286 -0.166,4.8929 -1.63109,6.98532c0,0 -0.43626,0.6103 -1.04632,0.17437c-0.61006,-0.43593 -0.17381,-1.04623 -0.17381,-1.04623c0.00522,-0.00711 0.01042,-0.01424 0.01557,-0.02138c-0.01926,-0.02385 -0.02927,-0.03889 -0.02927,-0.03889l-0.46198,-0.70988c-1.19478,-2.59205 -2.61891,-5.63447 -5.66957,-3.06786c-0.38658,1.88568 0.89161,3.53534 2.19291,4.73371c2.40583,2.21552 4.68223,4.40176 6.32434,7.27678c0,0 0.36835,0.64522 -0.27073,1.01815c1.87682,1.94243 6.71137,2.53781 8.09359,0.0906zM239.96716,199.4526l-0.04443,-0.25192c-0.15933,-0.32071 -0.29907,-0.65193 -0.47798,-0.96214c-1.75257,-3.03876 -0.93921,0.92045 -0.93993,2.24846c0,0 -0.00021,0.3945 -0.28645,0.61127c0.52695,0.69008 1.0011,1.51157 1.42921,2.39106c0.17835,-1.308 -0.02908,-2.74253 0.33817,-3.97875c-0.01305,-0.03573 -0.01859,-0.05797 -0.01859,-0.05797z" fill="#000000" stroke-width="0.5"/><path d="M267.10722,191.06997c-0.58581,-0.02785 -1.82979,0.60889 -2.50256,0.78919c-0.10307,-0.08985 -0.21746,-0.18115 -0.33551,-0.26203c0.99518,-0.44249 1.77902,-1.31482 1.9509,-2.48199c0.83954,-0.7226 2.79362,-1.18189 3.22519,-0.5574c0.05178,0.07492 -0.42119,1.7386 -0.4451,1.86682c-0.03055,0.1638 0.02767,1.28392 -0.45128,1.24061c-0.51223,-0.04632 -0.92788,-0.57076 -1.44164,-0.59519z" data-paper-data="{&quot;noHover&quot;:false,&quot;origItem&quot;:[&quot;Path&quot;,{&quot;applyMatrix&quot;:true,&quot;segments&quot;:[[[267.09528,191.02142],[0,0],[0.51376,0.02443]],[[268.5126,191.63074],[-0.51223,-0.04632],[0.47895,0.04331]],[[268.95085,190.41618],[-0.03055,0.1638],[0.02391,-0.12822]],[[269.40201,188.58286],[0.05178,0.07492],[-0.43157,-0.62449]],[[266.24805,189.15656],[0.83954,-0.7226],[-0.17188,1.16717]],[[264.31215,191.57161],[0.99518,-0.44249],[0.11805,0.08088]],[[264.64374,191.82797],[-0.10307,-0.08985],[0.67277,-0.1803]],[[267.09528,191.02141],[-0.58581,-0.02785],[0,0]]],&quot;closed&quot;:true,&quot;fillColor&quot;:[0,0,0,1]}]}" fill="#2d2d2d" stroke-width="0.5"/><path d="M246.14719,233.23373c-6.78157,-1.19363 -2.17543,-8.72358 -0.22307,-12.10334c2.08098,0.87048 4.257,0.70361 5.82376,-1.74854c0.345,-0.53996 0.58382,-1.31495 0.74583,-2.09082c0.76513,0.39397 1.53624,0.83446 2.32462,1.00755c2.38181,0.52295 6.92877,0.61605 9.55655,-0.90565c-1.7271,3.87617 -2.7205,10.04266 -7.37488,7.43902c-1.39107,-1.37862 -0.67915,-1.39319 0.44162,-2.75586l0.33667,-0.84313c0,0 0.08515,-0.10802 0.09595,-0.17054c0.46148,-0.01548 0.92647,-0.04074 1.3868,-0.09614l0.56411,-0.1091c0,0 0.655,-0.08782 0.50831,-0.82325c-0.14669,-0.73544 -0.87828,-0.58385 -0.87828,-0.58385l-0.44943,0.09339c-1.281,0.15845 -2.55258,0.10764 -3.84194,0.10764c0,0 -0.74515,0.00119 -0.74556,0.75119c-0.00021,0.38867 0.2255,0.47912 0.41953,0.56933c-0.13682,2.13544 -1.59057,4.11001 -2.36156,6.05252c-0.91484,2.30493 -0.55601,5.93599 -3.66149,6.30709c-0.88223,-0.00132 -1.79361,0.0563 -2.66755,-0.09752z" data-paper-data="{&quot;noHover&quot;:false,&quot;origItem&quot;:[&quot;Path&quot;,{&quot;applyMatrix&quot;:true,&quot;segments&quot;:[[[246.18116,233.19703],[0,0],[0.87394,0.15382]],[[248.83988,233.28802],[-0.88223,-0.00132],[3.10548,-0.3711]],[[252.45097,227.0673],[-0.91484,2.30493],[0.77099,-1.94251]],[[254.82283,221.01934],[-0.13682,2.13544],[-0.19403,-0.09021]],[[254.42769,220.3532],[-0.00021,0.38867],[0.00041,-0.75]],[[255.1781,219.6032],[0,0],[1.28936,0]],[[259.04034,219.50736],[-1.281,0.15845],[0,0]],[259.49087,219.41506],[[260.37307,220.00341],[-0.14669,-0.73544],[0.14669,0.73543]],[259.78425,220.88593],[[259.22109,220.99634],[0,0],[-0.46033,0.0554]],[[257.83831,221.09719],[0.46148,-0.01548],[-0.0108,0.06252]],[257.81455,221.19853],[[257.48033,222.04444],[0,0],[-1.12077,1.36267]],[[257.04953,224.82509],[-1.39107,-1.37862],[4.65438,2.60364]],[[264.33445,217.42234],[-1.7271,3.87617],[-2.62778,1.5217]],[[254.80893,218.34769],[2.38181,0.52295],[-0.78838,-0.17309]],[[252.49977,217.34066],[0.76513,0.39397],[-0.16201,0.77587]],[[251.76184,219.42986],[0.345,-0.53996],[-1.56676,2.45215]],[[245.96784,221.15465],[2.08098,0.87048],[-1.95236,3.37976]],[[246.18116,233.19704],[-6.78157,-1.19363],[0,0]]],&quot;closed&quot;:true,&quot;fillColor&quot;:[0,0,0,1]}]}" fill="#1f1f1f" stroke-width="0.5"/><path d="M264.42722,189.74652c0,0 -0.00006,0.01088 0.00113,0.02897c-1.1584,1.19068 -4.50275,0.87672 -4.58107,-0.69797l0.00335,-0.41927c1.16771,0.6889 3.13831,0.97131 4.63108,0.58769c-0.01203,0.03502 -0.02255,0.07227 -0.03204,0.10735l-0.02246,0.39322z" data-paper-data="{&quot;noHover&quot;:false,&quot;origItem&quot;:[&quot;Path&quot;,{&quot;applyMatrix&quot;:true,&quot;segments&quot;:[[264.37734,189.74303],[[264.39994,189.35841],[0,0],[0.00949,-0.03508]],[[264.43225,189.25325],[-0.01203,0.03502],[-1.49277,0.38362]],[[259.89703,188.6769],[1.16771,0.6889],[0,0]],[[259.89612,189.08828],[0,0],[0.07832,1.57469]],[[264.37853,189.77137],[-1.1584,1.19068],[-0.00119,-0.01809]],[264.37735,189.74303]],&quot;closed&quot;:true,&quot;fillColor&quot;:[0,0,0,1]}]}" fill="#9c9c9c" stroke-width="0.5"/><path d="M245.87212,219.73085c-0.10102,-0.05052 -0.19792,-0.07924 -0.28374,-0.08983c-0.58138,-0.2256 -1.20591,-0.57948 -1.82021,-1.04218c-0.49152,-0.37021 -0.8469,-0.96126 -1.25284,-1.54157c4.01261,1.54643 9.43992,-0.08828 8.08246,-5.37562c0.01901,-0.01729 0.10569,-0.10847 0.12519,-0.12581c0.39398,1.26726 0.59695,2.29158 0.61493,3.67839c-0.2099,-0.00036 -0.46189,0.08764 -0.63014,0.42377c-0.33577,0.67082 0.33373,1.01831 0.33373,1.01831l0.04511,0.02144c-0.74965,2.57844 -2.7754,3.81868 -5.15903,3.06262c-0.01745,-0.01004 -0.0364,-0.02002 -0.05544,-0.02954z" data-paper-data="{&quot;noHover&quot;:false,&quot;origItem&quot;:[&quot;Path&quot;,{&quot;applyMatrix&quot;:true,&quot;segments&quot;:[[[245.88442,219.68238],[0,0],[0.01904,0.00952]],[[245.93914,219.71174],[-0.01745,-0.01004],[2.38363,0.75606]],[[251.03779,216.68693],[-0.74965,2.57844],[0,0]],[250.99265,216.66562],[[250.65778,215.65939],[-0.33577,0.67082],[0.16825,-0.33613]],[[251.28825,215.24013],[-0.2099,-0.00036],[-0.01798,-1.38681]],[[250.68924,211.59275],[0.39398,1.26726],[-0.0195,0.01734]],[[250.63146,211.64469],[0.01901,-0.01729],[1.35746,5.28734]],[[242.46739,217.07148],[4.01261,1.54643],[0.40594,0.58031]],[[243.80512,218.56515],[-0.49152,-0.37021],[0.6143,0.4627]],[[245.60416,219.59357],[-0.58138,-0.2256],[0.08582,0.01059]],[[245.88441,219.68238],[-0.10102,-0.05052],[0,0]]],&quot;closed&quot;:true,&quot;fillColor&quot;:[0,0,0,1]}]}" fill="#2d2d2d" stroke-width="0.5"/><path d="M267.60533,212.98605c-0.40989,0.30002 -0.90837,0.60643 -1.34886,0.85939c-0.02954,-0.06048 -0.0758,-0.12585 -0.1278,-0.18046c0.04749,-0.12405 0.07576,-0.25809 0.09805,-0.38799c0.05817,-0.52657 0.09685,-1.12361 0.09028,-1.63806c0.15021,0.52458 0.59638,1.03626 1.28833,1.34712z" data-paper-data="{&quot;noHover&quot;:false,&quot;origItem&quot;:[&quot;Path&quot;,{&quot;applyMatrix&quot;:true,&quot;segments&quot;:[[[267.55779,212.97054],[0,0],[-0.69195,-0.31086]],[[266.33903,211.6838],[0.15021,0.52458],[0.00657,0.51445]],[[266.2649,213.2447],[0.05817,-0.52657],[-0.02229,0.1299]],[[266.1597,213.62577],[0.04749,-0.12405],[0.052,0.05461]],[[266.28043,213.80155],[-0.02954,-0.06048],[0.44049,-0.25296]],[[267.55779,212.97055],[-0.40989,0.30002],[0,0]]],&quot;closed&quot;:true,&quot;fillColor&quot;:[0,0,0,1]}]}" fill="#2d2d2d" stroke-width="0.5"/><path d="M266.77614,207.70835c0.29109,0.34953 0.61471,0.41005 0.82664,0.32512c-0.63219,0.819 -1.18453,1.803 -1.3172,2.70766c-0.1109,-1.35714 -0.41036,-2.68391 -0.75207,-3.99915c0.26181,-0.18693 0.31172,-0.52676 0.31172,-0.52676l0.10202,-0.72306c0.49948,-3.99905 3.33874,-7.38996 3.36154,-11.44367c0,0 0.00572,-0.74894 -0.74428,-0.74894c-0.75,0 -0.74625,0.75042 -0.74625,0.75042c0.01901,3.42269 -2.21284,6.47092 -3.09317,9.79398c-0.50407,-1.87825 -0.92787,-3.84186 -0.91462,-5.82505c0,0 0.00041,-0.0338 -0.00662,-0.08653c1.63619,-1.05409 2.40609,-3.23063 1.71625,-4.91841c0.57044,-0.24229 1.31361,-0.56709 1.48675,-0.54495c1.03962,0.13296 1.55401,1.15938 2.69406,0.197c2.31316,1.97683 0.81987,3.80121 -0.34711,6.00793c-1.02534,1.93888 -1.59581,4.42881 -2.12633,6.54631l-0.11055,0.54156c0,0 -0.06716,0.34334 0.12371,0.60774c-0.11719,0.13732 -0.24169,0.26982 -0.37761,0.38205c0,0 -0.56671,0.3806 -0.08688,0.95677z" data-paper-data="{&quot;noHover&quot;:false,&quot;origItem&quot;:[&quot;Path&quot;,{&quot;applyMatrix&quot;:true,&quot;segments&quot;:[[[266.77131,207.75813],[0,0],[-0.47983,-0.57617]],[[266.86791,206.70183],[0,0],[0.13592,-0.11223]],[[267.24197,206.31956],[-0.11719,0.13732],[-0.19087,-0.2644]],[267.11994,205.71189],[[267.22942,205.17028],[0,0],[0.53052,-2.1175]],[[269.32576,198.71533],[-1.02534,1.93888],[1.16698,-2.20672]],[[269.68829,192.71438],[2.31316,1.97683],[-1.14005,0.96238]],[[267.00883,192.51896],[1.03962,0.13296],[-0.17314,-0.02214]],[[265.53062,193.06283],[0.57044,-0.24229],[0.68984,1.68778]],[[263.83868,197.96824],[1.63619,-1.05409],[0.00703,0.05273]],[[263.84569,198.05439],[0,0],[-0.01325,1.98319]],[[264.76324,203.81163],[-0.50407,-1.87825],[0.88033,-3.32306]],[[267.82123,194.00006],[0.01901,3.42269],[0,0]],[[268.57164,193.25006],[-0.75,0],[0.75,0]],[[269.32123,194.00006],[0,0],[-0.0228,4.05371]],[[265.96442,205.4452],[0.49948,-3.99905],[0,0]],[265.86092,206.16774],[[265.55033,206.69489],[0.26181,-0.18693],[0.34171,1.31524]],[[266.29147,210.69147],[-0.1109,-1.35714],[0.13267,-0.90466]],[[267.60096,207.9835],[-0.63219,0.819],[-0.21193,0.08493]],[[266.77131,207.75811],[0.29109,0.34953],[0,0]]],&quot;closed&quot;:true,&quot;fillColor&quot;:[0,0,0,1]}]}" fill="#2d2d2d" stroke-width="0.5"/><path d="M250.28428,199.25699c0.00316,0.3021 -0.01441,0.60507 -0.05459,0.92345c-0.14183,0.1661 -0.18397,0.35547 -0.18397,0.35547c-0.42028,1.8867 -0.79111,3.63899 -1.75645,5.32531l-0.10034,0.47195c0,0 -0.07557,0.08927 -0.07136,0.12834c-0.37753,0.08096 -0.71716,0.16892 -1.02438,0.27297c0.72057,-0.87492 1.39104,-1.78706 1.88666,-2.80852c-0.00593,-2.05945 -2.75604,-6.18301 -5.5189,-6.72418c2.54776,-2.02794 2.84388,-6.37829 5.49041,-8.43708c1.28156,-0.99695 2.92939,-2.24154 4.16321,-0.53564c0.08603,0.23609 0.15827,0.46284 0.21686,0.68195c-0.05808,0.29304 0.10216,0.55985 0.10216,0.55985l0.03352,0.12789c0.32452,1.86805 -0.29905,3.22753 -0.81676,5.28183l-0.0215,0.58704c0,0 -0.01943,0.65197 0.73057,0.65197c0.75,0 0.75766,-0.75048 0.75766,-0.75048l-0.02247,-0.22353c0.4638,-1.86327 0.95174,-3.26799 0.92393,-4.83889c0.22267,-0.001 0.4209,0.03971 0.51827,0.21571c0.16048,0.29005 -0.29584,0.6988 -0.42997,1.00209c0,0 -0.28254,0.59028 0.40666,0.88572c0.6892,0.29544 0.96431,-0.2962 0.96431,-0.2962c0.80985,-1.93188 0.22399,-2.80333 -1.62908,-3.11334c-0.09305,-0.43824 -0.22749,-0.89887 -0.41584,-1.39241c-0.28212,-0.36896 -0.56669,-0.77267 -0.85188,-1.01745c1.08794,-2.12345 3.46123,-0.74608 4.56581,0.80352l0.42692,0.29797c-0.15982,0.21548 -0.15996,0.48291 -0.15996,0.48291l0.00204,0.95921c0.2393,1.49073 1.4605,2.39142 2.86161,2.68971c-2.12217,1.20829 -3.40187,5.17251 -1.19999,6.39294c-0.11996,0.20201 -0.11899,0.42515 -0.11899,0.42515l0.00047,0.20407c0.0011,1.96712 0.453,4.0214 0.19785,5.9778c-0.0027,1.60227 0.00082,3.02318 -0.66195,4.51743c-0.64863,1.46237 -2.96739,3.2969 -2.16708,5.09843c1.02253,2.30174 4.99409,2.13779 7.28761,0.76025c-0.52601,1.04366 -1.84518,1.40111 -3.24916,1.61975c-3.46057,0.5389 -5.68312,-0.08151 -8.60735,-1.05314c0.00811,-0.06238 0.01591,-0.12324 0.02341,-0.18239c0.00416,-1.86113 -0.26604,-3.18632 -0.85188,-4.94731l0.00252,-0.13972c0.41376,-0.38634 0.7551,-0.71581 0.91673,-1.21798c0.45841,-1.4243 -0.41992,-4.64659 -2.20308,-5.04322l0.01356,-0.08571c0.50661,-1.51737 1.02801,-3.35278 1.04223,-4.94964c0,0 0.07531,-0.68375 -0.67469,-0.68375c-0.75,0 -0.74337,0.73992 -0.74337,0.73992z" data-paper-data="{&quot;noHover&quot;:false,&quot;origItem&quot;:[&quot;Path&quot;,{&quot;applyMatrix&quot;:true,&quot;segments&quot;:[[250.24008,199.2336],[[250.99049,198.4836],[-0.75,0],[0.75,0]],[[251.74008,199.2336],[0,0],[-0.01422,1.59686]],[[250.69829,204.11818],[0.50661,-1.51737],[0,0]],[[250.68432,204.20342],[0,0],[1.78316,0.39663]],[[252.85718,209.22997],[0.45841,-1.4243],[-0.16163,0.50217]],[[251.92158,210.54608],[0.41376,-0.38634],[0,0]],[[251.94152,210.58836],[0,0],[0.58584,1.76099]],[[252.78674,215.53461],[0.00416,-1.86113],[-0.0075,0.05915]],[[252.76335,215.717],[0.00811,-0.06238],[2.92423,0.97163]],[[261.34496,216.77466],[-3.46057,0.5389],[1.40398,-0.21864]],[[264.64549,215.24007],[-0.52601,1.04366],[-2.29352,1.37754]],[[257.3397,214.48848],[1.02253,2.30174],[-0.80031,-1.80153]],[[259.46695,209.29998],[-0.64863,1.46237],[0.66277,-1.49425]],[[260.11361,204.79881],[-0.0027,1.60227],[0.25515,-1.9564]],[[259.91265,198.86528],[0.0011,1.96712],[0,0]],[259.91276,198.66256],[[260.03284,198.23969],[-0.11996,0.20201],[-2.20188,-1.22043]],[[261.24709,191.86387],[-2.12217,1.20829],[-1.40111,-0.29829]],[[258.39896,189.18149],[0.2393,1.49073],[0,0]],[258.39803,188.22266],[[258.55799,187.73975],[-0.15982,0.21548],[0,0]],[[258.13272,187.44229],[0,0],[-1.10458,-1.5496]],[[253.58268,186.64077],[1.08794,-2.12345],[0.28519,0.24478]],[[254.43418,187.55827],[-0.28212,-0.36896],[0.18835,0.49354]],[[254.85186,188.95076],[-0.09305,-0.43824],[1.85307,0.31001]],[[256.49049,192.06564],[0.80985,-1.93188],[0,0]],[[255.50548,192.45956],[0.6892,0.29544],[-0.6892,-0.29544]],[[255.11209,191.47476],[0,0],[0.13413,-0.30329]],[[255.53006,190.57194],[0.16048,0.29005],[-0.09737,-0.176]],[[255.01424,190.3565],[0.22267,-0.001],[0.02781,1.5709]],[[254.09445,195.19557],[0.4638,-1.86327],[0,0]],[254.11672,195.4191],[[253.36631,196.1691],[0.75,0],[-0.75,0]],[252.61672,195.4191],[[252.63943,194.83177],[0,0],[0.51771,-2.0543]],[[253.46449,189.5488],[0.32452,1.86805],[0,0]],[253.4363,189.52077],[[253.33443,188.9609],[-0.05808,0.29304],[-0.05859,-0.21911]],[[253.11824,188.27891],[0.08603,0.23609],[-1.23382,-1.7059]],[[248.97032,188.81095],[1.28156,-0.99695],[-2.64653,2.05879]],[[243.50764,197.21963],[2.54776,-2.02794],[2.76286,0.54117]],[[249.02416,203.90279],[-0.00593,-2.05945],[-0.49562,1.02146]],[[247.13254,206.70363],[0.72057,-0.87492],[0.30722,-0.10405]],[[248.15524,206.42863],[-0.37753,0.08096],[-0.00421,-0.03907]],[248.15104,206.36579],[[248.25012,205.89232],[0,0],[0.96534,-1.68632]],[[249.99651,200.52703],[-0.42028,1.8867],[0,0]],[[250.18156,200.16689],[-0.14183,0.1661],[0.04018,-0.31838]],[[250.24008,199.23361],[0.00316,0.3021],[0,0]]],&quot;closed&quot;:true,&quot;fillColor&quot;:[0,0,0,1]}]}" fill="#2d2d2d" stroke-width="0.5"/><path d="M256.06467,226.23494c0,0 0.06837,-0.0692 0.13121,-0.18021c0.36396,0.21303 1.45168,0.85032 1.57849,0.88085c1.3263,0.31924 2.37538,0.17399 3.18228,-0.24299c1.61496,0.99237 5.1832,0.69915 6.14934,1.93466c2.86915,3.6691 -4.26983,2.73414 -5.75829,2.40507c-1.55288,-0.51936 -2.07255,-1.61752 -3.45238,-2.3271c-1.14977,-0.59127 -3.3907,-0.39279 -2.2335,-2.09254z" data-paper-data="{&quot;noHover&quot;:false,&quot;origItem&quot;:[&quot;Path&quot;,{&quot;applyMatrix&quot;:true,&quot;segments&quot;:[[256.11025,226.25552],[[255.70892,226.62948],[0,0],[-1.1572,1.69975]],[[257.94532,228.70536],[-1.14977,-0.59127],[1.37983,0.70958]],[[261.35226,230.98254],[-1.55288,-0.51936],[1.48846,0.32907]],[[267.056,228.62805],[2.86915,3.6691],[-0.96614,-1.23551]],[[260.97095,226.74051],[1.61496,0.99237],[-0.8069,0.41698]],[[257.81963,226.95685],[1.3263,0.31924],[-0.12681,-0.03053]],[[256.24068,226.07695],[0.36396,0.21303],[-0.06284,0.11101]],[256.11025,226.25551]],&quot;closed&quot;:true,&quot;fillColor&quot;:[0,0,0,1]}]}" fill="#151515" stroke-width="0.5"/><path d="M241.36014,231.99179c0,0 0.09552,-0.06405 0.18652,-0.1778c0.55016,1.11275 1.62437,2.02308 3.43505,2.5964c1.28392,0.40652 2.63743,0.32849 3.9644,0.32668c0.44712,-0.05765 0.90231,-0.12017 1.32164,-0.24351c2.43405,2.66798 9.59675,5.73661 3.8571,9.05884c-0.61173,0.35408 -1.39093,0.45303 -2.06501,0.62694c-2.43635,-0.01904 -6.97181,-0.55621 -8.10454,-3.21544c-0.49089,-1.15242 0.07284,-2.34716 -0.83485,-3.46664c-0.91786,-1.13202 -2.82346,-1.65746 -3.38705,-3.06351c-0.13643,-1.04526 0.30052,-1.43784 1.08028,-2.08175z" data-paper-data="{&quot;noHover&quot;:false,&quot;origItem&quot;:[&quot;Path&quot;,{&quot;applyMatrix&quot;:true,&quot;segments&quot;:[[241.39725,232.02529],[[240.85302,232.38285],[0,0],[-0.77976,0.64391]],[[239.77932,234.45351],[-0.13643,-1.04526],[0.56359,1.40605]],[[243.17018,237.50231],[-0.91786,-1.13202],[0.90769,1.11948]],[[243.99562,240.93435],[-0.49089,-1.15242],[1.13273,2.65923]],[[252.03244,244.13751],[-2.43635,-0.01904],[0.67408,-0.17391]],[[254.08784,243.51877],[-0.61173,0.35408],[5.73965,-3.32223]],[[250.24063,234.53557],[2.43405,2.66798],[-0.41933,0.12334]],[[248.93228,234.78512],[0.44712,-0.05765],[-1.32697,0.00181]],[[245.01398,234.44858],[1.28392,0.40652],[-1.81068,-0.57332]],[[241.5828,231.84854],[0.55016,1.11275],[-0.091,0.11375]],[241.39726,232.02529]],&quot;closed&quot;:true,&quot;fillColor&quot;:[0,0,0,1]}]}" fill="#151515" stroke-width="0.5"/><path d="M240.0028,199.41755c0,0 0.00711,0.02391 0.02016,0.05964c-0.36725,1.23622 -0.18859,2.75343 -0.36694,4.06143c-0.42811,-0.87949 -0.94788,-1.71683 -1.47483,-2.40691c0.28624,-0.21677 0.27583,-0.63002 0.27583,-0.63002c0.00072,-1.32801 -0.75666,-5.35122 0.99591,-2.31246c0.17891,0.31021 0.34031,0.65064 0.49964,0.97135z" data-paper-data="{&quot;noHover&quot;:false,&quot;origItem&quot;:[&quot;Path&quot;,{&quot;applyMatrix&quot;:true,&quot;segments&quot;:[[239.96716,199.4526],[[239.92273,199.20068],[0,0],[-0.15933,-0.32071]],[[239.44475,198.23854],[0.17891,0.31021],[-1.75257,-3.03876]],[[238.50482,200.487],[0.00072,-1.32801],[0,0]],[[238.21837,201.09827],[0.28624,-0.21677],[0.52695,0.69008]],[[239.64758,203.48933],[-0.42811,-0.87949],[0.17835,-1.308]],[[239.98575,199.51058],[-0.36725,1.23622],[-0.01305,-0.03573]],[239.96716,199.45261]],&quot;closed&quot;:true,&quot;fillColor&quot;:[0,0,0,1]}]}" fill="#151515" stroke-width="0.5"/><path d="M249.19633,214.63851c-1.38222,2.44721 -6.25909,1.86572 -8.13591,-0.07671c0.63908,-0.37293 0.27172,-1.01802 0.27172,-1.01802c-1.64211,-2.87502 -3.96156,-5.1194 -6.36739,-7.33492c-1.3013,-1.19837 -2.57229,-2.86653 -2.18571,-4.75221c3.05066,-2.56661 4.55586,0.53412 5.75064,3.12617l0.46405,0.70711c0,0 0.01012,0.01487 0.02938,0.03872c-0.00515,0.00714 -0.01015,0.01398 -0.01537,0.02109c0,0 -0.43065,0.59934 0.17941,1.03527c0.61006,0.43593 0.95749,-0.21883 0.95749,-0.21883c1.46509,-2.09242 0.19026,-5.17932 1.67124,-7.00792c1.77612,-2.19301 5.79947,2.98279 5.78935,4.37093c-0.84788,1.60292 -2.27586,2.99476 -3.39947,4.40888l-0.31923,0.71105c0,0 -0.21358,0.52419 0.17297,0.8455c-0.0749,0.11958 -0.15657,0.24844 -0.23423,0.37763c0,0 -0.44006,0.55899 0.20285,0.94486c0.64291,0.38587 1.01964,-0.2502 1.01964,-0.2502c1.331,-2.21894 1.78133,-2.013 3.85517,-2.78888c0.87153,-0.32606 1.17113,-2.03577 1.37185,-2.13634c0.61554,-0.30843 0.9613,1.10841 1.13627,1.77405c0.46853,1.78237 -1.23144,2.57476 -2.17464,3.83044c0.08204,1.14356 0.56803,2.31564 -0.04009,3.39231z" data-paper-data="{&quot;noHover&quot;:false,&quot;origItem&quot;:[&quot;Path&quot;,{&quot;applyMatrix&quot;:true,&quot;segments&quot;:[[[249.16121,214.60291],[0,0],[0.60812,-1.07667]],[[249.19229,211.22268],[0.08204,1.14356],[0.9432,-1.25568]],[[251.36106,207.41589],[0.46853,1.78237],[-0.17497,-0.66564]],[[250.32362,205.63094],[0.61554,-0.30843],[-0.20072,0.10057]],[[248.95288,207.78049],[0.87153,-0.32606],[-2.07384,0.77588]],[[245.08211,210.60326],[1.331,-2.21894],[0,0]],[[244.05298,210.86051],[0.64291,0.38587],[-0.64291,-0.38587]],[[243.79629,209.83152],[0,0],[0.07766,-0.12919]],[[244.02494,209.4585],[-0.0749,0.11958],[-0.38655,-0.32131]],[243.84507,208.62119],[[244.15709,207.92665],[0,0],[1.12361,-1.41412]],[[247.56448,203.55815],[-0.84788,1.60292],[0.01012,-1.38814]],[[241.81758,199.20823],[1.77612,-2.19301],[-1.48098,1.8286]],[[240.18649,206.19355],[1.46509,-2.09242],[0,0]],[[239.14017,206.36792],[0.61006,0.43593],[-0.61006,-0.43593]],[[238.96636,205.32169],[0,0],[0.00522,-0.00711]],[[238.98193,205.30031],[-0.00515,0.00714],[-0.01926,-0.02385]],[238.95266,205.26142],[[238.49068,204.55154],[0,0],[-1.19478,-2.59205]],[[232.82111,201.48368],[3.05066,-2.56661],[-0.38658,1.88568]],[[235.01402,206.21739],[-1.3013,-1.19837],[2.40583,2.21552]],[[241.33836,213.49417],[-1.64211,-2.87502],[0,0]],[[241.06763,214.51232],[0.63908,-0.37293],[1.87682,1.94243]],[[249.16122,214.60292],[-1.38222,2.44721],[0,0]]],&quot;closed&quot;:true,&quot;fillColor&quot;:[0,0,0,1]}]}" fill="#151515" stroke-width="0.5"/><path d="M270.16851,207.14986c0,0 0.07608,-0.11272 0.11493,-0.27236c0.27124,-0.087 0.57363,-0.22314 0.90851,-0.44191c1.12259,-0.73337 1.61677,-1.51871 3.1637,-1.40254c1.04834,0.07873 1.05764,1.6411 0.18431,1.90795l-0.54379,0.18182c0,0 -0.70385,0.13765 -0.46706,0.84916c0.23679,0.71151 0.9669,0.47824 0.9669,0.47824l0.67411,-0.22089c0.06221,-0.0305 0.12376,-0.0618 0.18209,-0.0955c2.21315,0.8918 4.96493,2.21691 3.71592,5.18369c-0.16014,0.38038 -3.37148,-0.5374 -3.80461,-0.23377c-0.7526,0.52757 -0.70939,2.56309 -1.10304,3.40318c-0.45885,0.13728 -1.58695,0.44835 -1.93984,0.03995c-0.23142,-0.26782 -0.16895,-0.80129 -0.49177,-0.9465c-0.76928,-0.34602 -1.43695,0.35189 -2.16132,0.32282c-1.53209,-0.06148 -0.34911,-2.23243 -0.40215,-2.72285c-0.07196,-0.66535 -0.82537,-1.09996 -1.37023,-1.48832c-0.9446,-0.67328 1.30364,-3.32762 1.8309,-3.77874l0.54243,-0.76345z" data-paper-data="{&quot;noHover&quot;:false,&quot;origItem&quot;:[&quot;Path&quot;,{&quot;applyMatrix&quot;:true,&quot;segments&quot;:[[270.2017,207.18723],[[269.6657,207.94378],[0,0],[-0.52726,0.45112]],[[267.84467,211.68491],[-0.9446,-0.67328],[0.54486,0.38836]],[[269.2095,213.15677],[-0.07196,-0.66535],[0.05304,0.49042]],[[269.59824,215.86372],[-1.53209,-0.06148],[0.72437,0.02907]],[[271.74628,215.5335],[-0.76928,-0.34602],[0.32282,0.14521]],[[272.23149,216.47806],[-0.23142,-0.26782],[0.35289,0.4084]],[[274.15443,216.43729],[-0.45885,0.13728],[0.39365,-0.84009]],[[275.23206,213.04489],[-0.7526,0.52757],[0.43313,-0.30363]],[[279.02231,213.29751],[-0.16014,0.38038],[1.24901,-2.96678]],[[275.32397,208.17509],[2.21315,0.8918],[-0.05833,0.0337]],[[275.14316,208.27144],[0.06221,-0.0305],[0,0]],[274.47662,208.49631],[[273.52819,208.02197],[0.23679,0.71151],[-0.23679,-0.71151]],[274.00304,207.07329],[[274.55302,206.89273],[0,0],[0.87333,-0.26685]],[[274.34821,205.08249],[1.04834,0.07873],[-1.54693,-0.11617]],[[271.21482,206.48005],[1.12259,-0.73337],[-0.33488,0.21877]],[[270.31464,206.91657],[0.27124,-0.087],[-0.03885,0.15964]],[270.2017,207.18725]],&quot;closed&quot;:true,&quot;fillColor&quot;:[0,0,0,1]}]}" fill="#151515" stroke-width="0.5"/><path d="M267.81841,185.01675c0.75756,0.18858 1.50827,0.56654 2.28254,0.8543c-5.56349,-1.05307 -10.70362,-3.05396 -16.15132,-4.88353c-2.29358,-0.76466 -5.11954,-1.43708 -6.80834,-3.23843c-2.03769,-2.1735 -0.88444,-7.18476 -0.07546,-9.63902c0.93567,-6.9018 2.14812,-13.48387 5.26408,-19.76102c0.15425,-0.19045 0.30942,-0.38189 0.46366,-0.57234l0.38804,-0.48455c0.02798,0.00243 0.04444,0.00239 0.04444,0.00239c1.84134,-0.03951 3.76511,-1.08168 5.63157,-1.39388c3.04296,-0.50899 6.92292,-0.13806 9.97105,0.36052c4.45183,-0.02465 9.00687,2.55746 13.29156,3.55329c2.02216,0.46998 4.32945,0.78885 6.23044,1.74709c2.31602,0.77214 4.46304,1.97046 6.80914,2.70374c0.8058,0.25185 2.20641,0.45976 2.80503,1.1409c1.35795,1.54515 -1.53651,6.57311 -1.78404,8.27196c-2.46094,6.49291 -2.89942,13.171 -6.06998,19.46811c-0.65902,1.33454 -1.44333,3.0141 -2.84584,3.73597c-0.59084,0.3041 -1.38791,0.28067 -2.14636,0.27155c3.01875,-4.01445 5.31247,-8.60144 5.3153,-13.83227c0.52474,-3.09959 0.50671,-7.0087 1.84691,-9.90104c1.11234,-2.40057 2.8662,-4.53015 2.64157,-7.28011c-4.37045,-2.91159 -10.05342,-2.94932 -14.96945,-4.31936c-1.60862,-0.44831 -3.02856,-1.30772 -4.59922,-1.83521c-3.86843,-1.27827 -8.03979,-2.16896 -12.03532,-2.82929c-2.48245,-0.41027 -4.67681,-1.66073 -6.5431,0.64629c-3.85541,4.93945 -5.98181,12.66667 -6.00436,18.86322c0.04306,2.96319 -2.50821,8.0878 -0.63915,10.83168c1.12433,1.65058 4.61039,3.06994 6.42008,3.68453c3.59047,1.80633 7.39577,2.87094 11.26656,3.83449z" data-paper-data="{&quot;noHover&quot;:false,&quot;origItem&quot;:[&quot;Path&quot;,{&quot;applyMatrix&quot;:true,&quot;segments&quot;:[[[267.80705,185.06544],[0,0],[-3.87079,-0.96355]],[[256.51552,181.21658],[3.59047,1.80633],[-1.80969,-0.61459]],[[250.08711,177.52015],[1.12433,1.65058],[-1.86906,-2.74388]],[[250.72096,166.66656],[0.04306,2.96319],[0.02255,-6.19655]],[[256.74349,147.76427],[-3.85541,4.93945],[1.86629,-2.30702]],[[263.29758,147.11109],[-2.48245,-0.41027],[3.99553,0.66033]],[[275.36325,149.93674],[-3.86843,-1.27827],[1.57066,0.52749]],[[279.97646,151.7769],[-1.60862,-0.44831],[4.91603,1.37004]],[[294.96795,156.11976],[-4.37045,-2.91159],[0.22463,2.74996]],[[292.33028,163.41306],[1.11234,-2.40057],[-1.3402,2.89234]],[[290.48073,173.33915],[0.52474,-3.09959],[-0.00283,5.23083]],[[285.14515,187.1962],[3.01875,-4.01445],[0.75845,0.00912]],[[287.23527,186.84205],[-0.59084,0.3041],[1.40251,-0.72187]],[[290.07422,183.11223],[-0.65902,1.33454],[3.17056,-6.29711]],[[296.13114,163.68391],[-2.46094,6.49291],[0.24753,-1.69885]],[[297.91888,155.42589],[1.35795,1.54515],[-0.59862,-0.68114]],[[295.11563,154.28872],[0.8058,0.25185],[-2.3461,-0.73328]],[[288.31387,151.59542],[2.31602,0.77214],[-1.90099,-0.95824]],[[282.09455,149.85738],[2.02216,0.46998],[-4.28469,-0.99583]],[[268.83682,146.31052],[4.45183,-0.02465],[-3.04813,-0.49858]],[[258.8848,145.94264],[3.04296,-0.50899],[-1.86646,0.3122]],[[253.26121,147.33011],[1.84134,-0.03951],[0,0]],[[253.21681,147.32768],[0.02798,0.00243],[0,0]],[[252.82957,147.81141],[0,0],[-0.15424,0.19045]],[[252.36684,148.38275],[0.15425,-0.19045],[-3.11596,6.27715]],[[247.11572,168.10676],[0.93567,-6.9018],[-0.80898,2.45426]],[[247.18686,177.7285],[-2.03769,-2.1735],[1.6888,1.80135]],[[253.98871,180.95632],[-2.29358,-0.76466],[5.4477,1.82957]],[[270.10623,185.82132],[-5.56349,-1.05307],[-0.77427,-0.28776]],[[267.80702,185.06543],[0.75756,0.18858],[0,0]]],&quot;closed&quot;:true,&quot;fillColor&quot;:[0,0,0,1]}]}" fill="#151515" stroke-width="0.5"/><path d="M262.22473,185.26874c1.07826,0.34117 2.2316,0.70413 3.32336,1.00262c-0.30852,0.21266 -0.30875,0.64003 -0.30875,0.64003l0.00538,0.11197c0.10613,1.10916 -7.58717,1.46493 -4.1187,-0.71141c0.22009,-0.1381 0.45898,-0.27625 0.68474,-0.40485c0,0 0.40694,-0.23866 0.41397,-0.63835z" data-paper-data="{&quot;noHover&quot;:false,&quot;origItem&quot;:[&quot;Path&quot;,{&quot;applyMatrix&quot;:true,&quot;segments&quot;:[[[261.85262,185.93445],[0,0],[-0.22576,0.1286]],[[261.17533,186.32025],[0.22009,-0.1381],[-3.46847,2.17634]],[[265.19548,187.01469],[0.10613,1.10916],[0,0]],[265.18975,186.905],[[265.49849,186.27762],[-0.30852,0.21266],[-1.09176,-0.29849]],[[262.24679,185.31361],[1.07826,0.34117],[-0.00703,0.39969]]],&quot;closed&quot;:true,&quot;fillColor&quot;:[0,0,0,1]}]}" fill="#151515" stroke-width="0.5"/><path d="M262.31246,197.07086c-2.79944,0.66885 -2.18685,-3.04869 -0.34441,-3.95246c0.2582,-0.09643 0.53699,-0.19318 0.79518,-0.28962l0.48649,-0.2332c1.99915,0.8116 0.98603,4.01576 -0.93726,4.47528z" data-paper-data="{&quot;noHover&quot;:false,&quot;origItem&quot;:[&quot;Path&quot;,{&quot;applyMatrix&quot;:true,&quot;segments&quot;:[[[263.23162,192.6422],[1.99915,0.8116],[0,0]],[[262.75368,192.87787],[0,0],[-0.25819,0.09644]],[[261.9791,193.16717],[0.2582,-0.09643],[-1.84244,0.90377]],[[262.31367,197.02088],[-2.79944,0.66885],[1.92329,-0.45952]]],&quot;closed&quot;:true,&quot;fillColor&quot;:[0,0,0],&quot;strokeWidth&quot;:0.5}]}" fill="#ff0000" stroke-width="0.25"/><path d="M261.41489,198.7125c0,0 -0.00429,-0.12521 -0.00892,-0.16654c0.05296,0.00279 0.10787,0.00468 0.16273,0.00572c0.27261,0.00514 0.54005,-0.01502 0.79161,-0.05789c0.19821,4.96997 3.00381,9.59582 2.43622,14.62032c-0.05895,1.67769 -5.33643,2.26886 -6.11759,0.78417c-0.27022,-0.51357 0.97791,-2.05424 1.20731,-2.41082c1.39308,-2.16539 1.722,-4.11592 1.72023,-6.64529c0.24213,-1.99871 -0.19513,-3.9215 -0.19163,-5.92696l-0.00425,-0.30263z" data-paper-data="{&quot;noHover&quot;:false,&quot;origItem&quot;:[&quot;Path&quot;,{&quot;applyMatrix&quot;:true,&quot;segments&quot;:[[261.41276,198.66255],[[261.41265,198.86527],[0,0],[-0.0035,2.00546]],[[261.61065,204.89201],[0.24213,-1.99871],[0.00177,2.52937]],[[259.86832,211.53415],[1.39308,-2.16539],[-0.2294,0.35658]],[[258.69841,213.85224],[-0.27022,-0.51357],[0.78116,1.48469]],[[264.77532,213.06884],[-0.05895,1.67769],[0.56759,-5.0245]],[[262.3566,198.54366],[0.19821,4.96997],[-0.25156,0.04287]],[[261.56986,198.60167],[0.27261,0.00514],[-0.05486,-0.00104]],[[261.40813,198.59592],[0.05296,0.00279],[0.00463,0.04133]],[261.41274,198.66255]],&quot;closed&quot;:true,&quot;fillColor&quot;:[0,0,0],&quot;strokeWidth&quot;:0.5}]}" fill="#ff0000" stroke-width="0.25"/><path d="M258.28685,139.90756c-2.25915,0.16682 -4.16081,1.19029 -6.20847,1.86866c-0.05517,-0.34031 -0.1171,-0.6785 -0.17983,-1.00179c3.97776,-1.71634 7.92181,-3.05452 12.35154,-2.3999l0.1414,0.08407c0.0492,0.61019 0.13487,1.2088 0.27828,1.7463c-2.10068,-0.11838 -4.23313,-0.45608 -6.38292,-0.29734z" data-paper-data="{&quot;noHover&quot;:false,&quot;origItem&quot;:[&quot;Path&quot;,{&quot;applyMatrix&quot;:true,&quot;segments&quot;:[[[258.2886,139.85759],[0,0],[2.14979,-0.15874]],[[264.6198,140.20321],[-2.10068,-0.11838],[-0.14341,-0.5375]],[[264.34299,138.47075],[0.0492,0.61019],[0,0]],[[264.20183,138.38759],[0,0],[-4.42973,-0.65462]],[[251.94818,140.76833],[3.97776,-1.71634],[0.06273,0.32329]],[[252.12643,141.76239],[-0.05517,-0.34031],[2.04766,-0.67837]],[[258.28859,139.85759],[-2.25915,0.16682],[0,0]]],&quot;closed&quot;:true,&quot;fillColor&quot;:[0,0,0],&quot;strokeWidth&quot;:0.5}]}" fill="#ff0000" stroke-width="0.25"/><path d="M259.96926,177.19583c-0.05754,0.05699 -0.11495,0.11413 -0.17223,0.17142c0,0 -0.53033,0.53033 -1.06066,0c-0.53033,-0.53033 0,-1.06066 0,-1.06066c4.6797,-4.67926 10.27743,-8.32964 14.87414,-12.9672c2.46623,-2.41979 4.21118,-0.37013 4.45601,2.50254c0.3874,4.54554 0.56574,9.16821 -0.01602,13.70348c-0.84589,2.34229 -2.92059,1.99271 -5.10042,1.85394c-2.32983,-0.14832 -4.42414,-1.30081 -6.63123,-1.93108c-1.98938,-0.5681 -4.18413,-0.60518 -5.86799,-1.91857l-0.32889,-0.21587c0,0 -0.07317,-0.04878 -0.1527,-0.138zM261.05276,176.15235l0.33514,0.22605c1.4172,1.17399 3.60316,1.15047 5.3194,1.64105c2.09409,0.59859 4.12531,1.75124 6.33597,1.8828c1.12643,0.06704 3.18586,0.60914 3.54438,-0.68865c0.51047,-4.20727 0.21684,-8.30857 -0.01793,-12.51587c-0.08245,-1.4776 -0.10574,-4.13565 -1.89855,-2.29769c-4.23947,4.20778 -9.21823,7.62604 -13.61841,11.7523z" fill="#ff0000" stroke-width="0.5"/><path d="M269.04405,172.0985c0.83635,1.28514 3.27404,0.49415 3.54958,2.08077c0.43846,2.5248 -5.20574,4.17116 -6.17485,1.43154c-0.30795,-0.87056 0.28422,-1.96917 0.55377,-2.76677l0.05425,-0.05412l-0.02075,-0.01186l0.50129,-0.87727c0.12732,-0.23272 0.37443,-0.39054 0.65841,-0.39054c0.27012,0 0.50689,0.1428 0.63893,0.35703c0.15302,0.10169 0.23937,0.23121 0.23937,0.23121zM271.11139,174.4094c0.07341,-0.02347 0.0443,-0.01564 -0.03447,0.00466c0.00002,0.00215 0.00003,0.00431 0.00004,0.00647c0.01147,-0.00375 0.02295,-0.00745 0.03443,-0.01113z" fill="#ff0000" stroke-width="0.5"/><path d="M269.57696,169.71768c0,-0.41421 0.33579,-0.75 0.75,-0.75c0.41421,0 0.75,0.33579 0.75,0.75c0,0.41421 -0.33579,0.75 -0.75,0.75c-0.41421,0 -0.75,-0.33579 -0.75,-0.75z" fill="#ff0000" stroke-width="0.5"/><path d="M274.15362,168.9549c0,-0.41421 0.33579,-0.75 0.75,-0.75c0.41421,0 0.75,0.33579 0.75,0.75c0,0.41421 -0.33579,0.75 -0.75,0.75c-0.41421,0 -0.75,-0.33579 -0.75,-0.75z" fill="#ff0000" stroke-width="0.5"/></g></g></svg>