<svg version="1.1" xmlns="http://www.w3.org/2000/svg" xmlns:xlink="http://www.w3.org/1999/xlink" width="62.9141" height="111.23728" viewBox="0,0,62.9141,111.23728"><g transform="translate(-211.96816,-124.95655)"><g data-paper-data="{&quot;isPaintingLayer&quot;:true}" fill-rule="nonzero" stroke="none" stroke-linecap="butt" stroke-linejoin="miter" stroke-miterlimit="10" stroke-dasharray="" stroke-dashoffset="0" style="mix-blend-mode: normal"><path d="M212.91812,165.10103l3.82443,-26.41165l29.98201,-13.73282l28.1577,13.63969l-2.97001,38.48236l-6.35549,8.43052l3.92831,10.27733l-6.95283,7.31447l9.48161,9.54979l-18.5196,7.8006l0.82302,12.9706l-18.19899,2.77191l-5.34997,-16.92381l-13.5048,-3.11441l0.44186,-16.28077l7.55406,-13.65267z" fill="#ffffff" stroke-width="0"/><path d="M236.42904,156.87568c-0.70745,0.75744 -1.81386,0.3936 -1.81386,0.3936l-1.65197,-0.54325c-0.71509,-0.21696 -1.23489,-0.87384 -1.23489,-1.65048c0,-0.71253 0.43751,-1.32422 1.06195,-1.58792l2.02976,-0.91022l0.02327,0.05049c0.10772,-0.05923 0.21776,-0.11478 0.33042,-0.16612c0.76529,-0.3487 1.6859,-0.01123 2.52885,-0.01684l0.23798,0.1702l0.0351,-0.10389l1.65197,0.54326c0.71509,0.21696 1.23488,0.87384 1.23488,1.65048c0,0.77664 -0.51979,1.43352 -1.23488,1.65048l-1.65197,0.54326l-0.15005,-0.4441c-0.45625,0.18345 -0.92276,0.3288 -1.39657,0.42107z" fill="#9966ff" stroke-width="0.5"/><path d="M259.1937,157.42448c-0.50286,1.65368 -2.17906,1.15756 -2.17906,1.15756l-1.8404,-0.5447c-0.74069,-0.20099 -1.2848,-0.87022 -1.2848,-1.66482c0,-0.71776 0.44397,-1.33323 1.07576,-1.59369l1.65375,-0.72512l0.86062,1.06094l0.54078,0.16006c0,0 1.6762,0.4961 1.17334,2.14978z" fill="#9966ff" stroke-width="0.5"/><path d="M227.06283,213.96529c-1.9459,0.52654 -4.42379,-0.28002 -5.81658,-1.8504c-2.90392,-3.27421 -1.8654,-11.28471 2.42749,-13.14462c1.10906,-0.48051 3.10199,0.02639 4.66369,0.96761c0.03975,-0.24837 0.0636,-0.49999 0.06779,-0.75562c0.06214,-3.78548 -0.20556,-7.65911 -0.21919,-11.42604c-0.0093,-2.57167 -1.54404,-11.84392 3.0865,-13.39674c-1.94215,-0.88489 -3.52643,-2.06985 -4.80647,-3.4761c-1.16224,1.67366 -1.56016,3.57915 -1.97094,5.8085l-0.17717,1.2323c0,0 -0.24749,1.70913 -1.9799,1.46497c-1.73241,-0.24416 -1.48492,-1.9533 -1.48492,-1.9533l0.19845,-1.36166c0.59182,-3.21067 1.34508,-5.79817 3.3274,-8.12251c-0.72373,-1.31018 -1.27835,-2.72751 -1.69041,-4.21297c-2.57027,0.60518 -4.84572,1.69237 -7.2512,3.1767l-0.62872,0.47298c0,0 -1.4,1.03589 -2.45,-0.3453c-1.05,-1.38119 0.35,-2.41708 0.35,-2.41708l0.87373,-0.63872c2.7681,-1.7056 5.42961,-2.94451 8.41621,-3.6325c-0.39622,-2.86838 -0.37928,-5.86892 -0.11281,-8.76121c-0.49328,0.28482 -0.99638,0.56347 -1.51356,0.84092l-0.28142,-0.03044l0.02086,0.10292l-1.84263,0.36358c-0.12193,0.02653 -0.24863,0.04052 -0.37864,0.04052c-0.26127,0 -0.50917,-0.05649 -0.73183,-0.15776c-2.89054,0.37041 -5.2388,-0.34357 -3.31094,-4.43946c0.76647,-1.62841 5.00254,-2.60747 7.00558,-3.34227c-0.44951,-0.22924 -0.89749,-0.45989 -1.14636,-0.87303c-2.66627,-4.42608 1.32949,-6.13436 4.53727,-8.24669c0,0 0.40782,-0.26823 0.93568,-0.30785c0.52606,-1.26477 1.10109,-2.5248 1.6076,-3.72561c0.50411,-1.24259 1.72556,-4.69204 2.99817,-4.93709c1.21302,-0.23357 2.25133,1.1313 3.08094,2.03508c0.18904,0.20594 0.36473,0.42569 0.52873,0.65742c0.27256,-0.09982 0.48806,-0.11916 0.48806,-0.11916c1.72521,-0.15093 3.40773,-0.6134 5.11387,-0.9074c6.94914,-1.19752 20.99378,-1.61404 22.50546,7.74928c0.26821,1.6613 -0.11572,2.95318 -0.41181,4.57012l-0.27253,0.81285c1.00868,-0.13031 3.25293,-1.15595 3.76354,-1.3676c3.06582,-1.09158 6.7967,-2.76752 7.45547,2.29024c0.10282,0.78946 -1.61497,3.95883 -1.98862,4.92758c-2.2368,5.79919 -3.82279,11.32639 -7.35219,16.40978c2.90472,1.29178 4.92494,2.52279 6.05934,5.59794l0.0898,0.73124c0,0 0,1.72649 -1.75,1.72649c-1.50059,0 -1.71445,-1.26943 -1.74493,-1.63127c-0.49785,-1.40892 -1.54999,-2.11368 -2.81904,-2.71397c-0.40214,0.54148 -0.9612,1.02314 -1.3328,1.5791c-0.42551,0.63663 -0.82174,1.25343 -1.22477,1.8404c0.18248,0.34641 0.22048,0.66506 0.22048,0.66506c0.13631,1.14311 0.27263,2.28621 0.40894,3.42932l0.34228,2.87029c0,0 0.06065,0.50861 -0.16489,1.00442l0.66842,0.32972l0.29109,0.11488l0.00339,-0.00092l0.01142,0.00676l0.17448,0.06885l0.28551,0.20343l0.302,0.17877l0.12797,0.12625l1.06112,0.52343l0.21359,0.18062l0.24122,0.14279l0.20625,0.20348l0.09395,0.06179l0.32025,0.15798l0.02676,-0.00183l0.33498,0.30044l0.34373,0.29066l0.00149,0.02642l0.20637,0.30539l0.03719,0.10274l0.07197,0.08283l0.16812,0.33172l0.01707,0.00962l0.01219,0.0481l0.02181,0.04302l0.08723,0.38726l0.09752,0.38486v0.0481l0.0109,0.04841l-0.0109,0.01614v0.42795l-0.05225,0.20619v0.21254l-0.0877,0.34608l-0.06667,0.46039l0.00065,0.00113l-0.00153,0.00496l-0.02928,0.20219l-0.13083,0.31682l-0.10097,0.32728l-0.10651,0.17513l-0.00198,0.0048l-0.00123,0.00048l-0.18448,0.30333l-0.28261,0.55762l0.97119,0.95814l0.11084,0.18225l0.15234,0.15029l0.28233,0.46424l0.60339,0.79372l0.05545,0.12991l0.0758,0.04274l0.08413,0.33202l0.13462,0.31541l-0.03465,0.07906l0.03465,0.13675v0.43248l-0.05225,0.20619v0.21254l-0.10959,0.43248l-0.03229,0.05974l-0.00526,0.0675l-0.10959,0.32436l-0.12549,0.19455l-0.07862,0.21717l-0.21919,0.32436l-0.21924,0.19663l-0.18684,0.22687l-0.43837,0.32436l-0.1466,0.0609l-0.12077,0.10213l-0.37826,0.18659l-0.49034,0.29025l-0.31281,0.09392l-0.29986,0.12862l-0.76048,0.12505c0.36865,1.25446 -0.00502,2.60572 -1.60406,2.94535c-1.84052,0.39093 -3.28665,-0.58919 -4.1177,-1.81037c-1.36628,1.0826 -3.86988,1.58586 -6.1244,1.15496c0.45151,1.1077 0.88618,2.02263 1.31326,2.58495c3.36064,4.42477 9.20885,7.62526 13.98833,10.30528c1.87537,1.05159 3.65634,3.1857 2.49397,5.47919c-1.80656,3.56457 -8.78185,3.45972 -11.79544,2.75787c-6.12854,-1.42731 -9.30189,-5.23366 -11.71947,-9.94676c0.45135,3.00515 0.58963,6.09062 1.43588,8.99094c2.03031,6.95841 11.07396,13.72264 -1.18515,17.4642c-1.25874,0.38418 -3.05987,0.80104 -4.3503,0.51813c-8.26023,-1.81094 -7.3878,-13.70209 -7.08033,-20.22271c-0.70472,0.24345 -1.5225,0.3178 -2.46871,0.18684c-1.46902,-0.20333 -2.76587,-1.09935 -3.79092,-2.31367c-0.42699,0.37131 -0.93194,0.62465 -1.47892,0.77267zM224.10982,203.22078c-0.38413,0.66496 -0.71454,1.43091 -0.75286,2.20669c-0.04754,0.96236 -0.32743,4.12764 1.07201,4.8019c0.56178,0.27067 1.56554,0.17881 2.4343,0.17256c-0.52808,-1.27385 -0.80268,-2.59596 -0.75949,-3.72457c0.04212,-1.10072 0.44656,-2.1306 0.905,-3.15123c-0.94098,-1.09233 -1.76676,-2.26529 -2.89896,-0.30535zM235.05582,178.15569c-0.09142,-0.0399 -0.32574,-0.14306 -0.58939,-0.26525c-0.93477,0.56172 -2.30749,-0.22761 -2.41545,0.14682c-2.23444,7.74932 2.02467,16.83837 -0.83664,24.4693c-1.00924,2.69158 -2.41371,4.98186 -0.50669,7.60621c0.46898,0.64539 1.87153,2.61622 2.94602,1.91956c3.31265,-2.14779 1.36606,-13.24099 0.62333,-16.67716c-0.13272,-0.61401 -1.53727,-5.34549 -0.58863,-5.88029l1.50818,-0.85024c0.93846,0.52905 1.43665,1.20167 1.73159,1.97782c0.44049,1.15915 0.42765,2.54924 0.75107,4.03695c0.65361,3.00659 1.97014,11.19087 0.4881,16.38945c0.4104,0.60023 0.20847,1.56399 0.20396,2.3067c-0.02773,4.55894 -0.65757,9.77662 0.39847,14.45956c1.07928,4.78599 8.98347,5.83164 10.34867,1.58875c0.71821,-2.23211 -3.52415,-6.67153 -4.18434,-8.42921c-2.07079,-5.51323 -2.07631,-11.52878 -3.44053,-17.23234c-0.30373,-1.26982 -1.5332,-5.71902 -1.11805,-7.5667c-0.18619,-0.60027 -0.26257,-1.12022 -0.14505,-1.46805c0.00424,-0.01254 0.00852,-0.02501 0.01286,-0.0374c-0.0013,-0.02728 -0.00195,-0.05472 -0.00195,-0.08232c0,-0.44278 0.16895,-0.84662 0.44672,-1.15222c1.42626,-2.364 5.41813,-3.55731 4.30501,0.17118c-0.08534,0.28586 -0.43159,0.71778 -0.90106,1.15486c3.9227,5.69085 3.49726,13.14713 9.47961,18.64822c2.25616,2.07466 6.81341,1.98201 9.4623,1.9406c0.53404,-0.00835 3.15835,-0.5784 3.18106,-1.01642c0.01735,-0.33455 -8.17557,-5.55005 -9.41291,-6.41642c-6.34583,-4.44327 -8.72661,-9.30058 -11.39029,-16.23543c-0.3979,-1.03593 -2.42942,-3.72137 -2.47828,-4.58898c-0.17782,-0.27024 -0.2811,-0.59263 -0.2811,-0.93881c0,-0.15568 0.02089,-0.30654 0.06004,-0.45002c-1.46734,-2.28514 -2.74834,-5.20361 -3.03775,-5.77466c-0.12803,-0.23992 -0.2005,-0.5132 -0.2005,-0.80317c0,-0.18129 0.02832,-0.35605 0.08084,-0.52021c-1.32002,0.94019 -3.21762,0.12865 -4.4992,-0.43066zM243.31753,179.02401c0.28154,0.16384 0.51252,0.40322 0.6643,0.68988c0.63408,0.63792 1.20456,1.74153 2.13089,2.69545l0.08063,-0.39775l0.04734,-0.0986l0.00848,-0.10878l0.10959,-0.32436l0.06762,-0.10484l0.02732,-0.12131l0.05397,-0.1065l0.03416,-0.10109l-0.00517,-0.01871l0.02586,-0.04252l0.00059,-0.00176c-0.39496,-0.14084 -0.75212,-0.33905 -1.02986,-0.6428c-0.06279,-0.06866 -0.12302,-0.13714 -0.18076,-0.20541c-0.08046,-0.06621 -0.15817,-0.1357 -0.23295,-0.20855l-0.08684,-0.0257c-0.74069,-0.20099 -1.2848,-0.87022 -1.2848,-1.66482c0,-0.30531 0.08033,-0.59213 0.22128,-0.84097c-0.02354,-0.2239 -0.03458,-0.45898 -0.03226,-0.70558c0.00075,-0.07949 0.00175,-0.1596 0.00322,-0.24015c-0.4441,-0.00084 -0.88552,-0.00371 -1.32463,-0.01016c0.43401,0.84102 0.74584,1.76722 0.49566,2.28397c0.06707,0.09568 0.13594,0.19619 0.20633,0.30103zM253.52387,194.57128c0.54257,-0.17473 1.59344,-1.22804 2.53484,-1.92064l-0.00575,-0.00567l-0.28233,-0.46424l-0.27461,-0.36123l-0.0193,-0.04521l-0.03679,-0.033l-0.21919,-0.32436l-0.03719,-0.10274l-0.07197,-0.08283l-0.38731,-0.76421l-0.01707,-0.00962l-0.01219,-0.0481l-0.02181,-0.04302l-0.08723,-0.38726l-0.09752,-0.38486v-0.0481l-0.0109,-0.04841l0.0109,-0.01614v-0.53608l0.06823,-0.26924l0.01036,-0.13287l-0.30127,0.07431h-0.04876l-0.04907,0.01075l-0.01636,-0.01075h-1.63472l-0.01636,0.01075l-0.04907,-0.01075h-0.04876l-0.3901,-0.09621l-0.04634,-0.01016l-0.0137,0.00901l-0.04907,-0.01075h-0.04876l-0.3901,-0.09621l-0.39253,-0.08606l-0.04361,-0.02152l-0.04876,-0.01203l-0.00975,-0.01684l-0.99381,-0.49022l-0.21359,-0.18062l-0.10875,-0.06437c-0.07515,0.11999 -0.1704,0.2382 -0.28784,0.35407c-0.33254,0.32807 -0.8598,0.32623 -1.49401,0.09942c0.7873,1.43052 1.50426,3.22302 2.17255,5.00294c1.1845,-0.06278 2.43702,1.90878 3.47935,1.57309zM256.79499,183.26278l0.09752,0.38486v0.0481l0.0109,0.04841l-0.0109,0.01614v0.21542l0.16694,0.65877v0.011l0.08765,0.05188l0.35763,0.35282l0.01927,0.0038l0.02698,0.04183l0.03448,0.03402l0.20688,0.34017l0.21588,0.33468l0.01542,0.04564l0.02586,0.04252l-0.00517,0.01871l0.07349,0.2175l0.02158,0.27671l0.06823,0.26924v1.62181l-0.06823,0.26924l-0.02158,0.27671l-0.12147,0.35952l0.19699,0.38869l0.13181,0.19505l0.29964,0.39414l0.03565,0.08353l0.06496,0.06409l0.15241,0.25061l0.16413,0.12145l0.07943,0.09645l0.10801,0.06394l0.28604,0.2822l0.24299,0.14384l0.41777,0.16486l0.01778,0.01267l0.02165,0.00344l0.57341,0.24245l0.30678,0.05044h1.46383l0.84451,-0.13886l0.26305,-0.15571l0.06565,-0.01971l0.0521,-0.04406l0.21674,-0.10691l-0.17655,-0.23225l-0.03565,-0.08353l-0.06496,-0.06409l-0.21794,-0.35835l-1.05319,-1.03904l-0.08968,-0.14745l-0.12897,-0.11567l-0.43837,-0.64872l-0.03719,-0.10274l-0.07197,-0.08283l-0.05853,-0.11549l-0.01707,-0.00962l-0.01219,-0.0481l-0.02181,-0.04302l-0.08723,-0.38726l-0.09752,-0.38486v-0.0481l-0.0109,-0.04841l0.0109,-0.01614v-0.09906l-0.0109,-0.01614l0.0109,-0.04841v-0.0481l0.09752,-0.38486l0.0631,-0.28012l-0.00251,-0.00907l0.00722,-0.01187l0.01941,-0.08619l0.02181,-0.04302l0.01219,-0.0481l0.01707,-0.00962l0.05853,-0.11549l0.18308,-0.21072l0.14473,-0.23798l0.12797,-0.12625l0.20178,-0.39814l0.04466,-0.0514l0.01998,-0.06477l0.14696,-0.24164l0.05962,-0.4117l0.03466,-0.08394v-0.09064l0.01786,-0.07048l-0.05799,-0.02043l-0.32878,-0.21624l-0.11725,-0.12724l-0.14946,-0.08847l-0.12797,-0.12625l-1.06112,-0.52343l-0.21359,-0.18062l-0.24122,-0.14279l-0.07479,-0.07379l-0.21446,-0.08463l-0.0602,-0.0429l-0.07249,-0.01589l-0.87675,-0.43248l-0.0521,-0.04406l-0.06565,-0.01971l-0.32467,-0.19218l-0.14534,-0.03585l-0.4595,-0.09067l-0.59595,-0.084h-0.09832c0,0.00114 0,0.0023 0,0.00344c0,0.34618 -0.10328,0.66857 -0.2811,0.93881l-0.00148,0.02632l-0.03984,0.03369c-0.08423,0.11697 -0.18287,0.22314 -0.29335,0.31599zM252.57361,185.15286l0.05431,0.01191h0.08053l-0.06952,-0.27434l-0.13258,-0.36624l0.02652,-0.05232l-0.01708,-0.06739v-1.18933l0.06823,-0.26924l0.00074,-0.00945l-0.0644,-0.00353l-0.22576,-0.25984l-0.18767,-0.1587l-0.2875,-0.17728l-0.39932,-0.09849h-1.46616l-0.01834,0.01357l-0.21547,0.21257l-0.02634,0.11693l-0.05397,0.1065l-0.03581,0.10599l-0.05424,0.26757v1.32816l0.04864,0.33588l1.40524,-0.3781l0.7734,0.4578l0.01838,0.01813l0.55676,0.27464zM257.2994,177.00906c-0.26835,0.40206 -0.59465,0.78237 -0.93793,1.12786h1.07243c-0.03555,-0.29815 -0.08205,-0.68803 -0.1345,-1.12786zM247.24448,171.76612c1.52211,-0.03824 3.39457,-0.31466 5.06915,-0.0457c0.25169,-0.02368 0.49001,-0.03335 0.71101,-0.02832c0.47405,0.01078 0.96734,0.03355 1.45159,0.09689c1.97353,-1.07617 2.45112,-2.84897 3.8673,-4.55684c0.25999,-0.31353 0.69107,-0.4909 0.97768,-0.77277c-0.44596,0.00507 -0.9597,-0.16694 -1.38171,-0.79145c-0.39745,-0.58816 -0.38808,-1.09604 -0.23838,-1.4908c-0.11494,-0.13571 -1.07634,-1.34393 0.15623,-2.42481c0.91862,-0.80558 1.76555,-0.40887 2.18837,-0.10132c2.38725,-3.5051 3.75999,-7.10797 5.20685,-11.21197c0.7329,-2.07886 1.51775,-4.26094 2.49229,-6.24334c0.29683,-0.6038 1.49366,-1.94768 0.82184,-1.84268c-0.97573,0.15249 -1.78594,0.84032 -2.71338,1.17602c-1.73,0.70575 -3.79589,1.73643 -5.73909,1.58646c-1.46125,-0.11277 -2.62938,-1.31353 -4.03438,-1.72537c-4.13288,-1.21146 -9.98902,-1.85875 -14.22221,-1.06631c-2.50261,0.46848 -4.31974,2.93924 -6.93495,0.49661c-1.71677,-1.60347 -2.44487,-5.71629 -3.27103,-7.89111c-0.27812,-0.73215 -0.61597,-1.44089 -0.91554,-2.16476c-0.06495,-0.15694 -0.14721,-0.36966 -0.23094,-0.60556c-0.20167,0.4791 -0.44215,0.87761 -0.47746,0.96473c-0.86167,2.03754 -1.92397,4.23455 -2.57549,6.33569c-0.60105,1.9384 -0.65481,4.18322 -1.09134,6.16571c-0.1052,0.47777 -0.20796,0.97296 -0.30633,1.48272c0.48526,0.90032 -0.02809,1.61885 -0.3393,1.94021c-0.53114,3.39383 -0.79728,7.2234 -0.32433,10.78962c0.42317,0.00714 1.6243,0.15293 1.75456,1.56648c0.10033,1.08885 -0.5618,1.55085 -1.06094,1.74326c0.31437,1.0536 0.71802,2.05842 1.22601,2.99228c0.29744,0.07044 0.61014,0.24362 0.91157,0.58348c0.46129,0.52011 0.5269,1.0142 0.43969,1.41974c1.08501,1.30449 2.46846,2.38246 4.21262,3.14209c0.49416,0.2184 0.98748,0.40936 1.48057,0.57631c0.00539,-0.63888 0.10157,-1.31625 0.27539,-2.01209c0.05169,-0.92186 0.401,-1.77405 0.94267,-2.5588c1.58885,-3.30651 4.51417,-6.49082 7.45689,-7.5407c1.29645,-0.46254 2.87011,-0.53882 4.27799,-0.15636c0.22226,-0.05875 0.39754,-0.07003 0.50483,-0.01627c0.2011,0.10075 0.37362,0.2349 0.52208,0.39454c0.86906,0.41477 1.61331,1.04404 2.09921,1.90966c2.1872,3.89643 -2.05386,7.14494 -3.80258,10.00264c-0.06715,0.10973 -0.12477,0.22594 -0.17698,0.34575c0.27327,-0.14495 0.5429,-0.2934 0.79,-0.46356zM222.0268,141.42388c-0.28451,0.54541 0.5556,0.87158 1.301,1.1832c0.11508,-0.82265 0.22271,-1.65243 0.37285,-2.4626c-0.7957,0.47347 -1.50323,0.95232 -1.67385,1.27939zM257.70032,140.00973c1.7967,-9.66842 -11.57438,-9.20947 -18.09688,-8.06168c-1.56663,0.27569 -3.11839,0.66092 -4.69471,0.86633c0.82399,2.53588 1.2797,5.40345 2.3838,7.46504c0.25338,0.4731 1.04035,-0.30956 1.54078,-0.51586c0.7882,-0.32493 1.57796,-0.68225 2.41703,-0.84035c2.56073,-0.48252 5.84707,-0.11508 8.44168,-0.02509c2.45024,0.08498 5.03024,0.47966 7.38511,1.18217c0.18111,0.05403 0.3568,0.1247 0.52882,0.2063z" fill="#9966ff" stroke-width="0.5"/></g></g></svg>