<svg version="1.1" xmlns="http://www.w3.org/2000/svg" xmlns:xlink="http://www.w3.org/1999/xlink" width="104.54899" height="172.38406" viewBox="0,0,104.54899,172.38406"><g transform="translate(-191.13185,-68.46774)"><g data-paper-data="{&quot;isPaintingLayer&quot;:true}" fill-rule="nonzero" stroke-linejoin="miter" stroke-miterlimit="10" stroke-dasharray="" stroke-dashoffset="0" style="mix-blend-mode: normal"><g stroke="#0f002d" stroke-width="1.5" stroke-linecap="round"><g><path d="M286.47695,166.44529c0.32206,0.88551 -2.81429,5.42321 -5.05191,4.26995c-2.74513,1.20753 -4.1038,-2.06529 -4.1038,-2.06529c0,0 -0.77417,0.81089 -1.70109,0.90417c-1.05791,0.10647 -2.41285,-0.83793 -2.94486,-1.59184c-1.20807,-1.71194 -1.69001,-4.48232 -1.69001,-4.48232c0,0 2.1835,-6.91358 4.16542,-7.75271c0,0 14.50455,1.58444 15.55557,6.89937c5.39977,3.6378 6.12648,8.72921 -0.78236,6.68152c-1.225,-0.36307 -1.64552,-2.09007 -3.44697,-2.86284z" fill="#e9caf8"/><path d="M284.14953,163.33161c0,0 5.5944,7.74164 -1.94876,7.46699c-4.78562,1.10349 -5.14533,-1.62366 -3.62887,-4.00834c0.16037,-0.25218 0.72914,-1.19155 -1.53906,-2.91827c-0.19885,-0.15138 2.10593,2.00789 2.28071,1.83493c0.35618,-0.35247 1.04551,-0.86957 1.46785,-1.13965" fill="none"/></g><path d="M269.14885,161.90379c-3.19414,-5.10417 -30.54178,-9.50258 -34.52999,-10.73774c-8.80742,-2.72768 -10.9961,-4.9775 -11.35214,-7.9049c-0.35604,-2.9274 22.08901,1.57509 28.46323,2.83149c7.75301,1.47342 10.38097,3.98101 17.05643,6.22966c3.7131,1.25077 6.73717,2.04335 7.42823,2.12558c0.70996,0.08448 -0.24222,3.30485 -1.53242,5.7274c-1.38453,2.59967 -3.90679,4.32772 -5.53335,1.72851z" fill="#5e1284"/></g><g stroke="#0f002d" stroke-width="1.5"><path d="M253.15008,226.57598c-4.73933,-1.28023 -14.709,-5.28349 -14.709,-7.73809c0,-2.4546 -1.03354,-5.79365 3.87566,-5.79365c0.74894,0 4.2937,-2.38518 6.65435,-0.85422c2.23238,1.44778 3.27998,6.77525 4.17152,8.1279c2.04686,3.1055 1.81519,6.74637 0.00747,6.25805z" fill="#e9caf8" stroke-linecap="butt"/><path d="M218.93193,239.90859c-7.44184,0.49699 -9.64774,0.32297 -9.64774,-4.07486c0,-4.16177 8.9938,-19.9839 9.23775,-20.02693c4.10524,-0.72415 11.55989,-0.94583 12.16984,3.55174c0.51729,3.81436 -1.75116,6.88375 -3.34275,10.23649c-2.4405,5.141 -4.62462,10.06029 -8.41709,10.31356z" fill="#e9caf8" stroke-linecap="butt"/><g stroke-linecap="round"><path d="M251.3161,214.69193c-1.90271,0.12333 -5.75915,2.21869 -8.46931,1.08097c-2.11449,-0.88766 -4.71252,-2.22561 -4.57329,-3.39791c0.10894,-0.91724 0.62038,-12.023 0.17416,-20.05078c-1.32089,-6.31725 -5.46158,-23.01506 -6.26418,-22.65038c-0.30333,0.13782 -1.57899,12.73559 -1.82459,25.04662c-0.24038,12.04949 0.54603,23.8193 0.54603,23.8193c0,0 -5.06825,0.25773 -7.29023,-0.18155c-2.46457,-0.48724 -6.84495,-2.61294 -6.84495,-2.61294c0,0 1.72541,-18.0692 2.75437,-26.12009c0.95559,-7.47677 2.75758,-26.94186 3.54318,-27.13281c3.16741,-0.76989 7.60954,-2.10146 9.40937,-2.44065c0.39382,-0.07422 10.50955,15.56112 15.26031,29.51052c4.64246,13.6314 3.93103,25.10689 3.57914,25.1297z" fill="#414ca9"/><path d="M231.81919,169.41069c0,0 0.10327,-1.05306 1.32214,-2.94486" fill="none"/></g></g><g stroke="#0f002d" stroke-linecap="round"><path d="M223.46048,162.18947c-1.50875,-1.58592 -1.05764,-5.35195 -2.49819,-10.27265c-6.2983,-7.40915 -1.99565,-13.02358 1.87914,-11.91783c6.55811,1.87149 6.67709,3.93609 8.93127,6.76581c2.22153,2.78874 3.95607,13.17892 0.52111,15.71039c-4.85432,3.5775 -7.03068,1.60914 -8.83333,-0.28571z" fill="#8f21c6" stroke-width="1.5"/><path d="M232.40877,151.56749c0.45943,0.44957 0.68578,9.68538 0.37713,9.9517c-2.51429,2.1695 -6.38652,0.2735 -7.03971,-3.0678c-1.20035,-6.1402 6.42507,-7.11631 6.66258,-6.8839z" fill="#c168ee" stroke-width="1"/><path d="M220.895,141.0109c0,0 18.26618,4.11362 20.10714,16.76191" fill="none" stroke-width="1"/><path d="M221.43072,140.76091c0,0 16.96586,0.63667 24.16666,10.58334" fill="none" stroke-width="1"/></g><g><path d="M208.83154,79.5398c9.93582,-7.29282 15.58322,-3.57573 15.58322,-3.57573c0,0 7.16384,-11.91831 24.83174,-4.07251c25.24891,-2.9952 23.62201,7.16067 23.62201,7.16067c0,0 6.43617,9.77133 5.16781,16.56012c-1.39034,7.44167 -10.03137,7.1272 -11.49584,9.20139c-0.96383,1.36513 1.06471,5.96433 0.51809,9.18002c-0.467,2.7472 -3.44975,4.15347 -3.44975,4.15347c0,0 -0.41902,4.27915 -0.85857,5.29929c-0.69512,1.61324 -5.06553,0.7234 -5.06553,0.7234l-1.54948,3.50924c0,0 -7.30666,5.355 -21.54114,5.01174c-13.02002,-0.31397 -20.99815,-5.25218 -20.99815,-5.25218c0,0 -13.13341,-1.05866 -11.9006,-14.02564c-13.50411,-10.95658 -2.19119,-16.05495 -2.19119,-16.05495c0,0 1.46284,-12.04581 9.32741,-17.81836z" fill="#3d2747" stroke="#0f002d" stroke-width="1.5" stroke-linecap="round"/><g><g><path d="M238.99067,115.86026c-0.26842,3.44132 -7.23226,11.39091 -16.3586,9.4579c-7.69051,-1.97394 -7.06483,-6.61672 -7.0823,-10.06846c-0.01747,-3.45174 2.13238,-10.53176 7.51033,-8.26728c3.31382,1.39533 16.32183,3.86151 15.93055,8.87783z" fill="#2f1e38" stroke="none" stroke-width="0" stroke-linecap="butt"/><path d="M238.6671,113.67436c0,0 3.51474,4.27714 -5.69226,10.025c-6.98147,4.35847 -14.35946,0.38911 -14.35946,0.38911" fill="none" stroke="#0f002d" stroke-width="1" stroke-linecap="round"/></g><path d="M267.30419,103.72604c0,0 -1.06873,6.73916 -7.75592,9.6051c-10.32163,4.42357 -14.53504,-2.21625 -14.53504,-2.21625c0,0 -18.02467,7.22936 -21.91259,-3.81475c-5.71282,-0.70637 -2.49927,-4.85811 -2.49927,-4.85811" fill="#3d2747" stroke="#0f002d" stroke-width="1.5" stroke-linecap="round"/></g></g><g stroke="#0f002d" stroke-linecap="round"><path d="M216.07525,119.61892c-0.02177,-1.01864 4.97191,7.72709 11.00007,9.18187c5.65809,1.36546 12.2626,-2.71539 15.05063,-3.19806c1.67479,-0.26823 4.16917,1.89818 6.27675,2.70222c3.13582,1.1963 6.25085,0.61251 5.94525,0.91052c-0.86901,0.84741 -13.79166,25.91936 -25.33816,23.10128c-10.50494,-2.56388 -10.11301,-13.91163 -12.93455,-32.69783z" fill="#e9caf8" stroke-width="1.5"/><g><path d="M217.65236,125.88847c0,0 5.02387,7.17594 9.76821,8.25474c2.94771,0.67026 5.59562,-0.99108 9.23892,-1.14263c1.86199,-0.07746 4.59734,0.75539 7.10687,0.84467c2.40079,0.08541 4.61916,-0.57418 4.61916,-0.57418c0,0 -10.73381,17.95905 -15.84426,18.35512c-3.94056,0.30541 -7.26868,-1.39858 -9.17075,-3.02249c-4.02801,-3.43897 -5.71815,-22.71523 -5.71815,-22.71523z" fill="#0f002d" stroke-width="1.5"/><path d="M218.23258,127.29272c0,0 2.47125,4.13765 7.05671,6.31896c3.66573,1.74379 7.96134,-0.32467 11.28131,-0.24855c4.3919,0.10073 7.14075,0.67644 7.14075,0.67644l-3.4857,5.96063l-2.78195,-6.07283l-3.70004,6.09064l-2.6596,-4.99988l-4.4815,4.20281l-2.23629,-5.66154l-4.81639,3.39376z" fill="#ffffff" stroke-width="1"/><path d="M222.77994,148.37718c-0.3935,-0.95795 1.0474,-2.08084 3.28027,0.14393c3.65623,-0.20872 4.37448,3.09818 2.70863,3.60891c-0.77298,0.23699 -1.9805,-0.57399 -2.97886,-1.13818c-2.07187,-1.17087 -2.83145,-2.17989 -3.01003,-2.61465z" fill="#ff4848" stroke-width="1"/></g></g><g stroke="#0f002d" stroke-width="1.5"><path d="M209.25051,191.4451c-3.36486,-0.06884 -9.29169,-6.33681 -6.5004,-11.98685c5.10277,-10.32886 15.35837,-2.14047 15.35837,-2.14047c0,0 -1.3388,-1.10237 -1.22029,-2.20208c0.01232,-0.11436 -5.8432,-26.27975 0.39682,-28.38624c4.38122,-1.479 7.23399,19.3523 6.82044,32.27062c-0.22127,6.91198 -6.96611,12.60643 -14.85494,12.44503z" fill="#5e1284" stroke-linecap="round"/><g fill="#e9caf8"><path d="M204.42183,172.10816c-0.71633,1.90817 -2.48158,3.69048 -4.15816,3.69048c-1.36244,0 -1.64889,-0.95055 -1.32602,-2.62996c0.07445,-0.38723 1.14745,-1.3929 1.14745,-1.7748c-1.02041,-2.5484 0.64485,-3.9966 2.32143,-3.9966c1.67658,0 2.93367,2.26453 2.01531,4.71088z" stroke-linecap="butt"/><path d="M207.95924,186.27483c-8.16087,0.24295 -14.31258,-5.02992 -15.44466,-8.40605c-2.37125,-7.07163 2.51882,-11.66195 4.84942,-10.28443c1.85941,1.09902 1.94089,3.28847 1.62793,6.08244c-0.2407,2.14889 5.42711,-5.55566 7.1816,1.65565c0.77734,-0.29201 2.07071,-0.60816 3.50936,-0.20163c1.02381,0.28931 1.98111,1.33668 1.89308,3.00671c-0.02037,0.38637 0.05439,-1.19837 0.17496,-1.40837c0.31958,-0.55658 2.21038,0.9471 2.36145,1.13354c1.83885,2.26946 2.23153,4.10334 0.98972,5.80308c-1.24181,1.69974 -1.65264,2.4556 -7.14286,2.61905z" stroke-linecap="round"/></g></g></g></g></svg>