<svg version="1.1" xmlns="http://www.w3.org/2000/svg" xmlns:xlink="http://www.w3.org/1999/xlink" width="133.42424" height="242.71444" viewBox="0,0,133.42424,242.71444"><g transform="translate(-167.87888,-87.60967)"><g data-paper-data="{&quot;isPaintingLayer&quot;:true}" fill-rule="nonzero" stroke-miterlimit="10" stroke-dasharray="" stroke-dashoffset="0" style="mix-blend-mode: normal"><g stroke-linecap="butt" stroke-linejoin="miter"><g fill="#686868" stroke="#000000" stroke-width="1"><path d="M195.90828,329.51509v-104.61283h101.23822v104.61283z"/><path d="M177.34795,320.23493v-104.61283l18.56034,9.28017v104.61283z"/><path d="M195.79516,224.43145l-17.71669,-8.85834l102.92552,1.26548l16.45121,8.43652z"/></g><path d="M199.48505,229.60101c0,-0.82843 0.67157,-1.5 1.5,-1.5c0.82843,0 1.5,0.67157 1.5,1.5c0,0.82843 -0.67157,1.5 -1.5,1.5c-0.82843,0 -1.5,-0.67157 -1.5,-1.5z" fill="#b9b9b9" stroke="none" stroke-width="0.5"/><path d="M291.48505,230.26768c0,-0.82843 0.67158,-1.5 1.5,-1.5c0.82842,0 1.5,0.67157 1.5,1.5c0,0.82843 -0.67158,1.5 -1.5,1.5c-0.82842,0 -1.5,-0.67157 -1.5,-1.5z" fill="#b9b9b9" stroke="none" stroke-width="0.5"/><path d="M292.81838,325.93434c0,-0.82842 0.67158,-1.5 1.5,-1.5c0.82842,0 1.5,0.67158 1.5,1.5c0,0.82842 -0.67158,1.5 -1.5,1.5c-0.82842,0 -1.5,-0.67158 -1.5,-1.5z" fill="#b9b9b9" stroke="none" stroke-width="0.5"/><path d="M198.81838,326.93434c0,-0.82842 0.67157,-1.5 1.5,-1.5c0.82843,0 1.5,0.67158 1.5,1.5c0,0.82842 -0.67157,1.5 -1.5,1.5c-0.82843,0 -1.5,-0.67158 -1.5,-1.5z" fill="#b9b9b9" stroke="none" stroke-width="0.5"/></g><path d="M230.42548,211.83085c1.25565,-1.36165 4.04383,-2.47764 5.15214,-1.19328c1.04199,1.20711 0.52745,2.4727 0.52745,2.4727c-0.55192,1.47302 -1.44702,4.22396 -2.38508,5.91399c-0.16677,0.29826 -0.33302,0.57036 -0.50326,0.83889l0.01456,-0.01205c0,0 0.74692,2.06171 -0.25669,2.36585c-0.60487,0.18433 -1.16269,-0.06441 -1.51675,-0.28429c-0.90511,0.72638 -1.84258,0.98041 -2.80932,0.60514c-2.26277,-0.87734 -1.63081,-5.27951 -1.63081,-5.27951c0.21211,-1.11558 2.15213,-4.06578 3.40778,-5.42743v0v0v0v0v0z" data-paper-data="{&quot;index&quot;:null}" fill="#be1e2d" stroke="#231f20" stroke-width="0.78673" stroke-linecap="round" stroke-linejoin="round"/><path d="M245.47055,217.96281v0v0v0v0v0c2.16137,0.09314 3.21496,3.73517 3.21737,3.72959c0.04795,2.32959 3.61596,8.23366 3.61596,8.23366c0,0 0.74546,0.19644 0.7439,1.0219c0.00258,0.82839 -1.50321,1.5822 -3.68975,1.69776c-2.19199,0.11184 -3.86698,0.37131 -4.32713,-0.35351c-0.45735,-0.72753 -0.11269,-1.13742 -0.11269,-1.13742c0,0 -0.31658,-3.14859 -0.86306,-5.07527c-0.54629,-1.92374 -1.92995,-7.27215 -1.92995,-7.27215c0,0 1.65006,-0.91775 3.34535,-0.84454z" data-paper-data="{&quot;index&quot;:null}" fill="#be1e2d" stroke="#231f20" stroke-width="0.90025" stroke-linecap="round" stroke-linejoin="round"/><path d="M235.87347,218.12478c1.66367,-0.30156 3.46914,0.53597 3.46914,0.53597c0,0 -0.36227,6.2943 -0.54067,8.56452c-0.17804,2.2736 0.10144,5.91505 0.10144,5.91505c0,0 0.41819,0.42447 0.10261,1.31525c-0.31886,0.88805 -2.02508,0.80654 -4.21506,0.96029c-2.18529,0.14881 -3.81715,-0.51977 -3.97054,-1.46747c-0.15694,-0.9438 0.5437,-1.26425 0.5437,-1.26425c0,0 2.41903,-7.21043 2.02794,-9.88073c0.00344,0.00608 0.36034,-4.29438 2.48144,-4.67862v0v0v0v0v0z" fill="#be1e2d" stroke="#231f20" stroke-width="0.90025" stroke-linecap="round" stroke-linejoin="round"/><g stroke-width="0.90025"><path d="M248.99521,211.04521v0v0v0v0v0c0.415,2.8016 -0.2521,7.9609 -3.4623,9.7722c-3.1752,1.7879 -6.543,1.5484 -10.0341,-0.8336c-2.8925,-1.9743 -2.8232,-7.6206 -2.5207,-10.7796v0c0,0 0.0198,-7.3081 6.1703,-8.2084c6.1486,-0.9002 9.0042,4.7074 9.4795,8.2057c0.1495,0.6158 0.2773,1.2442 0.3673,1.8437z" fill="#be1e2d" stroke="#000000" stroke-linecap="butt" stroke-linejoin="miter"/><path d="M247.29921,219.07361v0v0v0v0v0l-0.0153,0.1431c-0.4718,0.6518 -1.0515,1.2046 -1.7501,1.5989c-2.9411,1.6564 -6.0461,1.5736 -9.2626,-0.3412l-0.0333,-0.144c0,0 -1.7033,-9.2942 4.2221,-9.7092c6.7284,-0.4681 6.8815,6.8977 6.8392,8.4524z" fill="#e6e7e8" stroke="#231f20" stroke-linecap="round" stroke-linejoin="round"/></g><g stroke="#000000" stroke-width="0.90025" stroke-linecap="round" stroke-linejoin="round"><path d="M284.68744,183.37337l-0.49402,1.56186c-2.7607,7.89621 -6.85832,12.50617 -6.85832,12.50617c0,0 0.11473,-1.39978 -0.02493,-3.64029l-0.13266,-0.04244c-0.34888,1.19063 -0.93272,2.72963 -1.92015,4.63771c-2.16524,4.19017 -8.75034,7.82776 -8.75034,7.82776c0,0 0.3778,-1.43097 0.57701,-3.76138l-0.10287,-0.35303c-0.70898,0.57604 -1.44612,1.10771 -2.19172,1.62608c-0.21936,0.15349 -0.43872,0.30328 -0.66189,0.44867c-0.67903,0.44741 -1.37117,0.87527 -2.07842,1.2765c-0.2795,0.15676 -0.57017,0.30312 -0.85353,0.45368c-0.51687,0.27561 -1.04141,0.53692 -1.57416,0.79045c-0.39142,0.184 -0.78556,0.36727 -1.18731,0.53894c-0.41583,0.18024 -0.8438,0.34359 -1.26891,0.51327c-0.78184,0.30315 -1.57586,0.58782 -2.38852,0.85227c-0.26514,0.08616 -0.53037,0.17233 -0.80025,0.25322c-0.57981,0.17553 -1.16431,0.34747 -1.75998,0.50181l0.00185,0.00175c-2.99023,0.77978 -6.17027,1.32045 -9.58189,1.62039c-3.691,0.32356 -7.04332,0.37436 -10.17895,0.23843v0c-2.4812,-0.10884 -4.80717,-0.34518 -7.01262,-0.68911c-0.10666,-0.01612 -0.21434,-0.0331 -0.3219,-0.0492c-0.68194,-0.111 -1.35329,-0.23028 -2.01222,-0.36069c-0.23001,-0.0472 -0.45025,-0.09906 -0.6793,-0.14798c-0.87572,-0.18416 -1.72756,-0.38885 -2.56809,-0.60823c-0.53132,-0.13915 -1.05924,-0.28209 -1.57562,-0.43514c-0.30671,-0.08831 -0.61445,-0.18119 -0.91501,-0.27506c-0.82087,-0.25952 -1.63466,-0.52362 -2.42474,-0.81095l-0.13254,0.13401c0.35051,2.10625 1.10923,3.22469 1.7057,3.75117c1.21593,1.07496 3.50773,1.27799 3.50773,1.27799c0,0 -6.95884,1.16012 -10.90303,-4.13282c-0.41906,-0.56263 -0.84226,-1.14596 -1.24579,-1.76852l-0.17601,-0.35742c-0.83334,-0.25459 -1.67987,-0.59987 -2.51845,-1.05078c-5.11372,-2.77049 -5.80904,-5.14771 -5.80904,-5.14771l0.12822,0.87465c0.54497,2.27412 1.05608,3.70514 1.05608,3.70514c0,0 -6.12938,-3.65793 -8.96448,-9.3058c-2.28594,-4.55917 -2.53104,-7.35071 -2.55773,-7.82017l-0.24647,-1.67393c-0.30252,-6.57244 -0.08695,-13.959 0.62677,-21.23886l0.05072,-0.19489c0.65865,-5.63035 -0.36563,-14.90274 6.82802,-24.60612c13.48022,-18.17832 27.74415,-17.93194 35.92116,-31.32c6.01463,-9.84919 4.11404,-20.91497 4.11404,-20.91497c0,0 3.98608,5.34136 5.60317,8.49695c1.56639,3.07578 3.25709,7.04892 3.25709,7.04892l0.05039,-0.03553c0.03203,-0.11798 0.06038,-0.23846 0.08424,-0.35883c0.36979,-1.87471 0.13204,-4.62604 0.13204,-4.62604c0,0 3.94556,10.64394 10.04597,17.53023c6.09672,6.88288 14.69512,8.67059 26.11506,32.48943c1.42111,2.95984 2.73524,5.44792 3.47612,8.22479l0.34448,1.60024c1.07197,5.00067 1.06536,18.8936 -0.75401,24.94346zM214.953,161.57835c0,0 -6.79895,7.44259 -6.07389,17.53237c0.64153,8.92747 3.03028,11.62782 4.29654,12.28632c1.30185,0.67288 3.28062,0.20236 3.28062,0.20236c0,0 -5.55018,3.12785 -10.24394,-0.79642c-3.13949,-2.62308 -6.57039,-6.023 -7.76284,-15.83477M273.53261,176.15457c0,0 0.93344,2.46293 -1.04729,7.71363c-2.22803,5.9155 -7.20503,7.85765 -7.20503,7.85765c0,0 3.93882,-9.12665 0.21358,-17.51328c-1.6259,-3.66413 -6.41738,-6.2998 -11.39457,-8.11923c-6.74485,-2.46762 -13.82968,-3.43493 -13.82968,-3.43493M277.20554,193.65979c-0.3449,1.20493 -0.93668,2.78105 -1.95348,4.74032c-2.16434,4.19015 -8.74944,7.82774 -8.74944,7.82774c0,0 1.09757,-4.17484 0.53705,-9.86882M200.06285,182.17897c-0.65247,1.29051 -1.14409,2.66854 -1.40159,4.11707c-1.61881,9.03173 1.90238,18.84119 1.90238,18.84119c0,0 -6.12753,-3.65627 -8.96448,-9.3059c-2.51492,-5.01423 -2.55956,-7.89035 -2.55956,-7.89035M284.1891,184.94164c-2.7625,7.89626 -6.85922,12.5062 -6.85922,12.5062c0,0 0.6628,-7.95296 -3.06976,-16.3403c-0.16838,-0.37923 -0.35726,-0.74711 -0.55657,-1.10392M240.27051,162.65839c0,0 1.20348,0.28552 4.42248,2.71295c3.2191,2.42743 4.45075,5.13554 4.45075,5.13554c0,0 -9.37488,-2.20864 -14.57822,-3.92762c-5.19799,-1.72093 -22.69866,-5.99813 -22.69866,-5.99813M211.76375,200.76277c2.62799,3.89909 5.31053,5.98754 5.31053,5.98754c0,0 -6.12625,2.07395 -11.88586,-1.04346c-5.11371,-2.77039 -5.80904,-5.14771 -5.80904,-5.14771M266.97502,202.11528c-6.52281,5.29573 -14.53227,8.01696 -24.33839,8.87865c-11.69103,1.02725 -20.29506,-0.4595 -27.68575,-3.138M214.72924,207.33756c0.28778,2.53024 1.13751,3.82375 1.79293,4.40091c1.21683,1.07494 3.50863,1.27796 3.50863,1.27796c0,0 -6.96064,1.16017 -10.90393,-4.1328c-0.41906,-0.56263 -0.84226,-1.14596 -1.24579,-1.76852M240.95424,162.9413c0,0 25.58738,2.44375 25.95163,16.36478" fill="#be1e2d"/><path d="M272.06258,185.19502c-0.68931,10.03666 -11.92525,20.78334 -28.74263,22.20862c-14.84675,1.26648 -36.99629,-4.84505 -40.50698,-17.07451c-0.34917,-1.22919 -0.54868,-2.41988 -0.62461,-3.56698l0.32926,0.22737c1.17175,1.62271 2.45469,2.78144 3.69476,3.81526c4.69371,3.92247 10.24389,0.79462 10.24389,0.79462c0,0 -1.97872,0.47232 -3.28057,-0.20056c-1.26626,-0.6585 -3.65501,-3.35885 -4.29654,-12.28632c-0.72511,-10.09159 6.07389,-17.53237 6.07389,-17.53237l0.01822,-0.23286c5.26832,1.31205 15.76518,3.96419 19.59246,5.23201c5.20337,1.71988 14.57822,3.92762 14.57822,3.92762c0,0 -1.23166,-2.70811 -4.45075,-5.13554c-1.61131,-1.21407 -2.71602,-1.8921 -3.41747,-2.26729l0.65064,0.08471c0,0 19.74143,2.39224 23.57131,11.02372c3.72437,8.38755 -0.21268,17.51326 -0.21268,17.51326c0,0 4.23795,-1.65532 6.63851,-6.55499z" fill="#e6e7e8"/></g><g stroke="#000000" stroke-width="0.90025" stroke-linecap="round" stroke-linejoin="miter"><path d="M278.3538,167.13359c0,0 7.81826,-11.13925 8.26287,-11.67563c0.44452,-0.53627 3.62942,-5.53533 14.17074,-8.35462c0,0 -3.28664,31.43485 -18.5057,40.32606c-0.0001,-0.00089 0.49587,-8.94327 -3.92791,-20.29579zM278.44537,167.37304c-0.34544,-0.94111 -1.24572,-2.56932 -1.24572,-2.56932M281.78881,189.86762c0,0 0.44336,-1.54051 0.49278,-2.43912" fill="#be1e2d"/><path d="M288.10932,181.86399c0,0 -1.75181,-1.04591 -2.41445,-5.08598c-0.41509,-2.50557 0.15162,-7.23036 0.15162,-7.23036l-0.07215,0.1571c0.60643,-0.89433 1.23521,-1.92993 1.78344,-3.04949c0.9294,-1.89407 1.94845,-4.69059 2.86118,-7.43654l0.14645,-0.3807c0,0 2.66826,-5.09157 9.27694,-6.47316l0.08181,0.03297c-0.85988,4.82098 -2.35233,11.91898 -4.34586,16.88219c-2.23604,5.56746 -5.08849,9.75516 -7.57572,12.69347zM283.39082,172.64547c0,0 2.07416,-2.56533 2.4557,-3.09782" fill="#929497"/></g><g stroke="#000000" stroke-width="0.90025" stroke-linecap="round" stroke-linejoin="miter"><path d="M190.78677,187.79156c-16.01012,-7.37022 -22.33592,-38.33694 -22.33592,-38.33694c10.76547,1.78252 14.42107,6.44843 14.91562,6.93807c0.49455,0.48974 9.35832,10.81745 9.35832,10.81745c-3.3006,11.72956 -1.93802,20.58141 -1.93802,20.58141zM193.64603,164.78002c0,0 -0.73779,1.708 -0.99005,2.67822M190.78677,187.79156c0.1364,0.88956 0.72746,2.37969 0.72746,2.37969" fill="#be1e2d"/><path d="M184.56276,182.91831c-2.76097,-2.68361 -6.00596,-6.57429 -8.77343,-11.89724c-2.46729,-4.74602 -4.6414,-11.6654 -5.96578,-16.38l0.07832,-0.04076c6.71255,0.73377 9.86206,5.54105 9.86206,5.54105l0.18275,0.36467c1.17514,2.64426 2.46121,5.32851 3.57027,7.12332c0.65443,1.061 1.38087,2.0306 2.07133,2.86176l-0.08707,-0.14935c0,0 1.02315,4.64736 0.8534,7.1814c-0.26683,4.08533 -1.90881,5.29652 -1.90881,5.29652zM185.5012,170.34175c0.43148,0.4929 2.7451,2.84453 2.7451,2.84453" fill="#929497"/></g><path d="M228.27975,181.65683v0v0v0v0v0c0.7225,0.18186 1.15861,0.91431 0.97485,1.63686c-0.18182,0.7243 -0.91066,1.16032 -1.63847,0.98219c-0.02829,-0.00781 -2.03953,-1.17101 -4.55806,-1.07077c-1.19513,0.04757 -2.45607,0.91233 -3.76349,1.33083c-0.12502,0.03928 -0.24968,0.06145 -0.37474,0.06472c-0.5849,0.0153 -1.13499,-0.35573 -1.32223,-0.93974c-0.11076,-0.34112 -0.06963,-0.69612 0.07744,-0.99717c-0.25871,-0.21481 -0.50551,-0.49465 -0.68147,-0.88458c-0.2063,-0.45206 -0.00601,-0.98678 0.44787,-1.19232c0.44962,-0.19993 0.98591,-0.00869 1.1933,0.44704c0.16435,0.36313 0.61526,0.45666 0.6207,0.45832c0.13313,0.02623 0.25079,0.08437 0.35273,0.16093c0.13252,-0.03138 0.26583,-0.06367 0.39659,-0.0896c-0.14401,-0.2051 -0.27879,-0.43576 -0.3638,-0.72173c-0.14035,-0.47809 0.13301,-0.97611 0.61108,-1.11737c0.48155,-0.14585 0.97796,0.13477 1.11737,0.61108c0.1117,0.38071 0.5347,0.5434 0.53834,0.54511c0.19708,0.06157 0.34456,0.19275 0.45411,0.35014c3.21957,-0.23459 5.77276,0.38934 5.91787,0.42605z" fill="#231f20" stroke="none" stroke-width="0.90025" stroke-linecap="butt" stroke-linejoin="miter"/><g stroke="#000000" stroke-width="1" stroke-linecap="butt" stroke-linejoin="miter"><path d="M276.72181,266.93448c-6.94903,2.48678 -51.07106,1.87124 -57.88411,-0.34832c-7.86831,-2.56336 -6.89912,-21.57451 1.11074,-24.14005c6.78323,-2.17265 50.64342,-1.76459 57.67502,0.99318c6.36836,2.49765 6.19476,20.95566 -0.90165,23.49519z" data-paper-data="{&quot;index&quot;:null}" fill="#363636"/><path d="M272.63389,263.40278c-5.53329,1.76301 -40.66621,1.32662 -46.09121,-0.24694c-6.26528,-1.8173 -5.49355,-15.29531 0.88444,-17.11416c5.40126,-1.5403 40.32569,-1.25101 45.92472,0.70411c5.07091,1.77071 4.93268,14.85658 -0.71796,16.65699z" data-paper-data="{&quot;index&quot;:null}" fill="#4a4a4a"/></g><g stroke="#000000" stroke-width="1" stroke-linecap="butt" stroke-linejoin="miter"><path d="M277.22181,314.93448c-6.94903,2.48678 -51.07106,1.87124 -57.88411,-0.34832c-7.86831,-2.56336 -6.89912,-21.57451 1.11074,-24.14005c6.78323,-2.17265 50.64342,-1.76459 57.67502,0.99318c6.36836,2.49764 6.19476,20.95567 -0.90165,23.49519z" data-paper-data="{&quot;index&quot;:null}" fill="#363636"/><path d="M273.13389,311.40278c-5.53329,1.76301 -40.66621,1.32662 -46.09121,-0.24694c-6.26528,-1.8173 -5.49355,-15.29531 0.88444,-17.11416c5.40126,-1.5403 40.32569,-1.25101 45.92472,0.70412c5.07091,1.77071 4.93268,14.85658 -0.71796,16.65699z" data-paper-data="{&quot;index&quot;:null}" fill="#4a4a4a"/></g><path d="M253.01801,212.77051c-1.32529,1.31634 -4.16264,2.3221 -5.19492,0.98524c-0.97054,-1.25647 -0.38833,-2.50706 -0.38833,-2.50706c0.25075,-0.57931 0.7718,-2.68599 1.8784,-4.58896c1.27124,-2.18607 3.13517,-4.15438 3.23576,-4.08472c0.52068,-0.38306 2.05578,-4.55839 3.37265,-3.80645c1.09047,0.62269 -0.96325,3.12852 -0.54252,3.31497c2.20406,0.97575 1.33151,5.37381 1.33151,5.37381c-0.27285,1.11238 -2.36727,3.99682 -3.69256,5.31313v0v0v0v0v0z" data-paper-data="{&quot;index&quot;:null}" fill="#be1e2d" stroke="#231f20" stroke-width="0.78673" stroke-linecap="round" stroke-linejoin="round"/><path d="M255.72816,180.11334c0.1082,-0.15832 0.25455,-0.29077 0.4511,-0.35402c0.00363,-0.00174 0.42523,-0.16804 0.53366,-0.5497c0.13532,-0.47749 0.62931,-0.76234 1.11209,-0.62063c0.47926,0.13715 0.75688,0.63281 0.62063,1.11209c-0.08256,0.28669 -0.21535,0.51849 -0.3576,0.72482c0.13098,0.02481 0.26455,0.05597 0.39734,0.0862c0.10128,-0.07743 0.21844,-0.13658 0.35134,-0.16395c0.00543,-0.00171 0.45551,-0.0991 0.61675,-0.46362c0.20348,-0.45749 0.73811,-0.65332 1.18943,-0.45725c0.45562,0.20164 0.66048,0.73463 0.45806,1.18844c-0.17261,0.39142 -0.41701,0.67337 -0.67387,0.89038c0.14965,0.29978 0.19381,0.65441 0.08598,0.99647c-0.18223,0.58558 -0.72912,0.96132 -1.31413,0.95103c-0.12508,-0.0022 -0.24993,-0.0233 -0.37528,-0.06151c-1.31096,-0.40729 -2.57926,-1.26121 -3.77475,-1.29854c-2.5193,-0.07866 -4.52049,1.10173 -4.54872,1.10978c-0.72626,0.18435 -1.45881,-0.2454 -1.64682,-0.96812c-0.18995,-0.72095 0.23987,-1.4571 0.96079,-1.64515v0v0v0v0v0c0.14479,-0.03796 2.69255,-0.68374 5.914,-0.47673z" data-paper-data="{&quot;index&quot;:null}" fill="#231f20" stroke="none" stroke-width="0.90025" stroke-linecap="butt" stroke-linejoin="miter"/><path d="M244.271,189.47904c0.08825,2.74512 -1.76287,5.0435 -4.13459,5.13356c-2.37171,0.09007 -4.36591,-2.06227 -4.45416,-4.80739c-0.04246,-1.32068 1.94263,-1.48502 4.00411,-1.61329c2.22343,-0.13834 4.53885,-0.13733 4.58464,1.2871z" fill="#292929" stroke="#231f20" stroke-width="0.9" stroke-linecap="butt" stroke-linejoin="miter"/></g></g></svg>