<svg version="1.1" xmlns="http://www.w3.org/2000/svg" xmlns:xlink="http://www.w3.org/1999/xlink" width="178.04328" height="160.24102" viewBox="0,0,178.04328,160.24102"><g transform="translate(-209.28105,-213.61821)"><g data-paper-data="{&quot;isPaintingLayer&quot;:true}" fill="#000000" fill-rule="nonzero" stroke="none" stroke-width="0.5" stroke-linecap="butt" stroke-linejoin="miter" stroke-miterlimit="10" stroke-dasharray="" stroke-dashoffset="0" style="mix-blend-mode: normal"><path d="M369.12219,314.15125c4.83062,-10.51693 6.30951,-21.83538 4.03965,-33.91628c-0.51838,-2.759 -2.00039,-5.76247 -3.182,-8.48205c-2.15599,1.8225 -4.42232,3.50046 -6.98726,4.75083c-7.32383,3.57026 -16.45777,3.89928 -24.48892,5.29087c-1.10297,0.12725 -2.20071,0.25256 -3.29712,0.36786c0.29102,0.31479 0.48523,0.72501 0.52236,1.17366c0.0821,0.99199 -0.63485,1.79616 -1.60135,1.79616c-0.9665,0 -1.81655,-0.80416 -1.89865,-1.79616c-0.0273,-0.32987 0.03376,-0.63896 0.16296,-0.90463c-2.21427,0.18626 -4.43672,0.30363 -6.69947,0.28578c-2.71158,-0.0214 -4.91395,0.52122 -7.25993,-1.73044c-4.63128,-4.44508 -3.21448,-11.40819 -4.24639,-16.77471c-0.29092,-1.51294 -0.84285,-2.98416 -1.20411,-4.48693c-0.19216,0.49221 -0.64681,1.09195 -1.71525,0.93716c-1.75343,-0.25402 -1.6531,-2.03212 -1.6531,-2.03212c0.09487,-1.61709 -0.656,-3.51094 0.10959,-4.87377c1.90702,-3.39472 10.02202,-3.67596 13.4885,-3.60965c1.10564,0.02115 2.52226,-0.41442 3.32093,0.4374c2.96497,3.16227 1.05149,8.21692 2.1309,11.56009c0.09995,0.30955 0.26533,-0.55391 0.43272,-0.80742c0.42098,-0.63753 0.84999,-1.27149 1.3298,-1.86179c0.63788,-0.78478 1.28259,-1.57046 2.0191,-2.25826c2.47694,-2.31316 5.30084,-4.28187 7.81591,-6.56874c2.90031,-2.63614 5.74346,-5.31107 8.56144,-8.00663c-0.38132,-0.58163 -0.78964,-1.14627 -1.21786,-1.69191c-2.72024,-3.18143 -4.75983,-6.90254 -7.95468,-9.73047c-11.42044,-10.10883 -28.01481,-14.00865 -42.02593,-14.00865c-12.61771,-0.02498 -22.1529,10.07454 -30.58825,17.92986c-3.96314,3.69063 -8.29934,7.06737 -11.10643,11.79337c0,0 -0.09884,0.16495 -0.28735,0.34573c4.44048,2.52438 8.86002,5.10198 13.33056,7.63449c2.69878,1.52883 5.50365,2.76031 8.23912,4.19799c1.28553,0.67564 2.41797,2.01776 3.81749,2.11312c0.29496,0.0201 -0.34305,-0.58595 -0.29018,-0.87712c0.16623,-0.91563 0.72372,-1.68985 0.92083,-2.59653c0.26264,-1.2081 -0.0669,-2.61267 0.45055,-3.71179c1.35642,-2.88109 4.6382,-2.08333 7.21276,-2.08333c1.67809,0.01477 4.3903,-0.33971 5.73882,1.47343c0.2978,0.4004 0.15409,5.58731 0.14458,5.95723c-0.16059,6.24943 0.55609,13.84581 -2.12303,19.36299c-0.50396,1.03781 -0.64637,2.39966 -1.5432,3.09537c-1.40428,1.08937 -5.1258,-0.09462 -6.80539,-0.35662c-5.96852,-0.93103 -11.64496,-2.46464 -17.54428,-3.9975c-4.81618,-0.74844 -9.67129,-1.59105 -14.51594,-2.59016l0.08304,1.0364c-0.37025,4.83576 -0.0942,9.45135 0.31054,14.34185c0.19213,2.3216 0.04143,4.84896 0.83126,7.1139c2.2449,6.43758 5.06072,12.07516 5.96379,18.68516c0.23973,0.32447 0.34014,0.63215 0.34014,0.63215l0.48236,1.64313c0.16805,2.08055 0.21266,3.25065 1.54514,4.97731c3.35344,3.91596 7.03947,5.27894 11.4077,7.28457c3.92765,1.80335 8.17726,3.80638 12.34406,4.69438c4.17764,0.89032 8.75572,0.56756 12.93278,0.56756c4.487,0 8.98867,0.15881 13.41744,-0.29965c3.49685,0.01763 6.43927,-1.34306 9.95336,-1.514c4.04592,-0.19681 8.35618,0.15762 12.30931,-0.575c8.66467,-1.6058 16.58714,-5.13787 24.19948,-9.12813c0.27713,-0.48058 0.75111,-0.70528 0.75111,-0.70528c2.74251,-1.28521 5.27835,-2.94364 7.05998,-5.4206l0.93064,-1.97981c0,0 0.3253,-0.68631 1.00941,-0.88818c0.18412,-0.38389 0.37323,-0.78744 0.57598,-1.21554zM372.72815,269.48565c1.32292,3.24748 3.21157,6.90373 3.87116,10.3104c2.47923,12.80495 0.82241,24.96824 -4.28191,36.11867c-1.38736,2.92482 -2.41544,5.02093 -4.83868,7.16207l-0.50252,0.88263c0,0 -0.67214,1.03731 -1.78766,0.68824c-0.65997,0.46879 -1.3497,0.90365 -2.06896,1.31177c-0.26049,0.42798 -0.65976,0.64196 -0.65976,0.64196c-0.29107,0.156 -0.58257,0.31151 -0.87454,0.46647c0.14478,0.35 0.1691,0.64388 0.1691,0.64388l-0.08318,-0.19156c2.71541,7.55721 10.32577,14.00753 16.53923,18.70645c2.83389,2.14313 7.55593,4.31237 8.91771,7.92645c0.32203,0.85464 -0.04217,1.77534 -0.02807,2.66597c0.01568,0.99032 0.40791,2.05642 0.1174,2.97503c-1.05457,3.33463 -5.98811,4.9596 -8.72566,6.12433c-2.90048,1.09783 -5.76476,2.31083 -8.79271,3.08879c-6.10673,1.56899 -12.6819,1.37546 -18.95865,2.21451c-4.15229,0.55505 -8.18939,1.54278 -12.34897,2.04566c-6.93784,0.83875 -13.01311,1.75863 -18.3664,-4.67395c-2.21479,-8.57873 6.55821,-11.20916 11.54161,-15.70572c1.53139,-1.3818 2.84792,-3.24993 4.07308,-4.90225c2.71536,-3.66206 5.67891,-6.2999 2.41701,-11.23192c0,0 -0.05419,-0.08475 -0.11901,-0.22602c-0.81126,0.18319 -1.62847,0.35056 -2.4519,0.50093c-5.18899,0.94756 -10.75336,-0.00738 -15.95105,0.88835c-2.38408,0.41085 -4.1953,1.23742 -6.73063,1.2489c-4.48582,0.46436 -9.04677,0.3041 -13.59142,0.3041c-4.41381,0 -9.22081,0.2946 -13.63774,-0.63993c-4.43898,-0.93919 -8.98192,-3.03313 -13.16128,-4.96561c-4.94115,-2.28472 -9.03233,-4.02844 -12.8326,-8.41291c-1.58792,-2.24245 -2.06153,-3.85009 -2.31988,-6.2958c-0.64108,-0.52835 -0.71368,-1.40563 -0.71368,-1.40563c-0.57524,-7.0312 -3.71545,-12.80056 -5.97321,-19.49077c-0.87235,-2.58495 -0.78758,-5.33901 -1.00613,-7.97983c-0.41201,-4.97834 -0.73235,-9.7162 -0.32313,-14.63814l-0.129,-1.50362c-7.44748,-1.66229 -14.8415,-3.73179 -22.00178,-6.43599c-5.73253,-2.16498 -11.5544,-4.02873 -16.8555,-7.30187c0,0 -1.55622,-0.96431 -0.7421,-2.47966c0.81412,-1.51535 2.37034,-0.55104 2.37034,-0.55104c1.67389,1.04126 3.41053,1.92951 5.18369,2.72704c-0.37784,-4.66047 -0.64233,-9.26304 -0.00688,-13.84775c0.44112,-3.18268 1.51327,-6.16789 1.98096,-9.33933c0.20319,-1.37785 0.54821,-7.81823 1.16644,-8.34659c0.8637,-0.73817 2.26939,0.85027 3.34876,1.41877c4.93498,2.59921 9.47604,5.52561 14.52791,7.95252c4.95782,2.38504 9.78382,4.97869 14.5671,7.65913c0.05808,-0.42136 0.2365,-0.71908 0.2365,-0.71908c3.01261,-4.98798 7.45939,-8.56715 11.66195,-12.48073c9.11355,-8.4869 19.19135,-18.75015 32.77324,-18.77476c14.85603,0 32.42103,4.21484 44.49009,14.97132c3.36527,2.99928 5.5044,6.86701 8.40008,10.19327c0.37333,0.48255 0.73506,0.97597 1.08187,1.47973c3.09558,-2.98543 6.17198,-5.98949 9.27223,-8.98784c1.20934,-1.16958 5.49479,-5.83036 7.73987,-4.89774c1.27655,0.53029 4.23834,5.48935 5.1093,6.8767c3.87786,6.177 6.39377,12.9882 9.9616,19.31214c0.30143,1.07771 1.60673,4.73165 1.05461,6.10028c-1.51084,3.74508 -6.94884,6.38027 -9.78837,8.92997c-0.65772,0.59059 -1.31263,1.18752 -1.97055,1.78202c0.03408,0.06686 0.05071,0.10766 0.05071,0.10766zM330.50805,358.21961c-2.81747,1.87707 -8.28868,4.80344 -7.40829,8.90915c4.26058,4.61011 9.48148,3.19895 14.58614,2.57104c4.14457,-0.50982 8.17265,-1.48722 12.31238,-2.04097c9.48437,-1.26867 18.06597,-1.73041 26.97633,-5.10007c3.11018,-1.32023 8.35478,-2.92544 6.82358,-7.55466c-0.24228,-0.73246 -2.38543,-2.30613 -2.82195,-2.62631c-2.89737,-2.12517 -6.16781,-4.0425 -8.87291,-6.42997c-5.26835,-4.64973 -11.16841,-10.6119 -13.64702,-17.25386c-5.47771,2.78007 -11.1376,5.27006 -17.10802,6.96386c4.87079,8.9756 -4.13296,18.09321 -10.84023,22.56178z"/><path d="M351.37433,306.16919c0.41895,-1.40795 2.34582,-3.58023 3.15978,-4.85577c-0.62212,-0.64906 -1.26299,-1.28146 -1.91848,-1.90089c-1.41716,-1.28786 -2.94445,-2.61431 -4.55264,-3.82988c0.40619,1.74668 0.72619,3.4024 1.07486,4.5707c0.49837,1.6699 1.14908,3.30271 1.81928,4.92208c0.14911,0.36029 0.30974,0.72188 0.41719,1.09376zM346.4167,290.34767c3.03482,1.81189 5.87769,4.18349 8.43267,6.49578c0.62648,0.59325 1.28197,1.21906 1.94054,1.87379c0.21835,0.01886 0.46227,0.0858 0.73329,0.21921c0.92398,0.45486 1.11643,1.16729 1.10955,1.69973c1.75549,1.93174 3.35166,4.05464 4.25717,6.29448c0.41585,1.02864 1.05653,4.25194 0.54246,5.12224c-1.72435,2.91925 -7.37985,1.75748 -10.16672,1.75748c-9.74838,0 -19.47064,0.60499 -29.25501,0.60308c-13.4205,0.76305 -27.13693,-0.1789 -40.4964,0.90178c-1.93043,0.15615 -4.14253,0.02224 -6.03388,0.28904c-3.84235,0.542 -7.09694,1.83064 -10.94602,1.91612c-0.0019,0.15118 -0.00561,0.30194 -0.01127,0.45224c0,0 -0.06956,1.78229 -1.82449,1.5595c-1.75493,-0.22278 -1.68537,-2.00507 -1.68537,-2.00507c0.21015,-5.18793 -1.92734,-10.92213 -0.97804,-15.94448c0.87751,-4.64254 4.93087,-7.20892 9.51721,-8.92371c0.28488,-0.81705 0.65318,-1.43592 1.13683,-1.58575c1.17509,-0.36404 2.1662,-0.19893 3.03335,0.24778c2.47086,-0.69645 4.87054,-1.25657 6.80744,-1.86181c2.18948,-0.68417 4.28737,-1.5984 6.44419,-2.36601c8.42429,-1.81146 17.56277,-1.62873 26.29849,-1.62873c8.6876,0 17.45202,-0.56356 25.98219,2.47049c0.93343,-0.43917 2.00037,-1.0566 2.8796,-0.50951c0.95133,0.59194 1.68918,1.64508 2.28221,2.92234zM337.40029,290.42027c-7.1994,-1.84705 -14.55417,-1.36361 -21.8303,-1.36361c-1.40906,0 -2.83106,-0.00657 -4.26027,-0.00933c4.24538,2.95543 7.54948,7.58662 10.5668,11.70684c1.16738,1.59407 2.41504,3.12934 3.56401,4.73658c0.35573,0.49762 0.83102,2.18575 0.88686,1.60228c0.46022,-4.80825 4.38644,-9.22629 7.07004,-12.84192c1.16792,-1.10183 2.54054,-2.56463 4.00285,-3.83084zM303.87661,289.12034c-4.66055,0.13383 -9.29286,0.49599 -13.70135,1.44038c-3.65226,1.30805 -7.62048,2.30301 -11.45814,3.51478c0.06795,0.08002 0.13543,0.15943 0.20251,0.23793c2.61244,3.05778 4.88335,6.37942 7.73042,9.24403c1.68571,1.69609 3.34388,2.86904 4.61832,4.94177c0.14783,0.24043 -0.18195,1.00011 0.00352,0.8192c1.82234,-1.77743 3.03658,-5.38236 4.5003,-7.52859c2.35524,-3.85143 4.48633,-7.57332 7.17837,-11.15895c0.26331,-0.35071 0.56837,-0.91577 0.92607,-1.51056zM270.65397,297.30389c-0.00977,0.0052 -0.01953,0.01042 -0.02929,0.01563c-2.08794,1.11616 -4.70797,2.52926 -5.13356,5.20262c-0.38503,2.41858 -0.08599,5.00504 0.28921,7.61285c0.28993,-0.46812 0.59889,-0.92887 0.83412,-1.42028c1.67456,-3.49826 3.24628,-6.80008 3.94016,-10.72981c0.02996,-0.16967 0.06236,-0.40273 0.09935,-0.68102zM357.14126,304.29331c-0.49679,0.91211 -1.04626,1.79051 -1.68582,2.59278c-0.3377,0.42361 -2.29552,2.57442 -3.10915,3.32991c1.97148,-0.00537 3.94357,-0.01738 5.91619,0.00209c0.68101,0.00672 1.76935,0.56367 2.03632,-0.05376c0.25647,-0.59315 -1.19714,-3.13417 -1.49836,-3.58792c-0.52293,-0.78774 -1.07756,-1.54739 -1.65919,-2.2831zM350.47358,310.21982c-1.59156,-0.66764 -2.07041,-2.48994 -2.71656,-3.94552c-1.54216,-3.47397 -2.71992,-7.20351 -3.62203,-10.86517c-0.15878,-0.64446 -0.30525,-1.6923 -0.51223,-2.69008c-0.50891,-0.26564 -1.0226,-0.5102 -1.54032,-0.72988c-0.16939,0.14447 -0.34573,0.28046 -0.52821,0.40678c-2.04424,1.41511 -3.59542,2.63735 -5.46787,4.39099c-1.97908,2.68626 -3.79976,5.22978 -5.26445,8.27686c-0.16706,0.34753 -2.22747,5.04859 -2.64137,5.23037c-2.99203,1.31408 -4.00065,-0.91096 -5.46121,-2.77558c-3.62737,-4.6309 -6.66722,-9.31694 -10.9621,-13.36854c-0.25869,-0.24403 -3.63753,-3.56983 -4.45055,-3.88931c-0.22547,-0.0886 -0.14206,0.44822 -0.25376,0.64975c-0.38565,0.69576 -0.76113,1.40375 -1.23482,2.03585c-2.65008,3.53625 -4.74275,7.19509 -7.06555,10.99578c-1.24639,1.82439 -2.74714,5.42684 -4.80047,7.47224c9.88185,-0.21829 19.8292,-0.03647 29.66534,-0.59187c8.97628,-0.00171 17.91913,-0.56679 26.85615,-0.6027zM289.39163,311.54786c-0.23728,-0.30467 -0.47001,-0.60837 -0.70804,-0.84862c-2.85871,-2.88517 -5.76719,-6.03666 -8.40251,-9.16541c-1.59361,-1.892 -2.46554,-3.18054 -3.9501,-5.02503c-0.2724,-0.33845 -0.51397,-0.89077 -0.77214,-1.36197c-0.26247,0.0966 -0.52367,0.19501 -0.78346,0.2954c-0.18572,1.16171 -0.55072,2.27513 -0.7562,3.43258c-1.04776,5.90194 -3.93099,10.7638 -6.42391,16.00188c0.80487,-1.57919 3.47295,-1.63156 5.0105,-1.91597c2.84491,-0.52625 5.43874,-0.69295 8.32999,-0.92689c2.80821,-0.22723 5.62823,-0.38028 8.45587,-0.48599z"/><path d="M279.87598,283.33613c-0.0821,-0.99199 0.63485,-1.79616 1.60135,-1.79616c0.9665,0 1.81655,0.80416 1.89865,1.79616c0.0821,0.99199 -0.63485,1.79616 -1.60135,1.79616c-0.9665,0 -1.81655,-0.80416 -1.89865,-1.79616z"/></g></g></svg>