<svg version="1.1" xmlns="http://www.w3.org/2000/svg" xmlns:xlink="http://www.w3.org/1999/xlink" width="102.42011" height="109.83818" viewBox="0,0,102.42011,109.83818"><defs><radialGradient cx="276.87534" cy="191.49492" r="7.53149" gradientUnits="userSpaceOnUse" id="color-1"><stop offset="0" stop-color="#54606d"/><stop offset="1" stop-color="#2c3136"/></radialGradient></defs><g transform="translate(-182.25887,-128.47134)"><g data-paper-data="{&quot;isPaintingLayer&quot;:true}" stroke-miterlimit="10" stroke-dasharray="" stroke-dashoffset="0" style="mix-blend-mode: normal"><path d="M238.25438,201.66559c0.19842,0.70858 0.59494,2.02456 1.02272,3.77897c0.81238,3.33166 1.73759,8.24434 1.63325,13.58051l-0.03384,0.40411c-0.03384,0.40411 0.38577,0.74758 0.83923,0.6869c2.88435,-0.8298 8.5549,-2.20991 8.40471,3.44871c-0.08476,5.47228 -17.00168,10.2659 -19.21695,5.19007c-0.73652,-2.21018 0.49867,-3.57414 1.18116,-4.287c0.35758,-0.40302 0.52115,-0.86888 0.58774,-1.36615c0.00453,-1.24376 -0.05179,-3.54491 -0.3687,-5.41162c-0.72744,-4.69768 -1.27335,-5.91219 -2.07418,-8.24694c-0.80083,-2.33476 -2.88522,-7.78327 1.42948,-10.22514c3.6661,-2.13313 5.98746,0.4866 6.59539,2.44759z" fill="#ffab19" fill-rule="evenodd" stroke="#001026" stroke-width="1.2" stroke-linecap="round" stroke-linejoin="round"/><g fill-rule="evenodd"><path d="M224.53259,200.62807c0.87056,0.28193 2.72799,0.92969 0.80354,4.56168c-1.92444,3.63199 -8.81305,5.24009 -9.62385,5.34754c-3.12692,0.51369 -6.97825,1.02405 -11.44412,0.22533c-12.96236,-2.25519 -15.02086,-14.99365 -11.38194,-17.56165c3.53757,-2.55456 6.47067,5.10189 12.77702,9.133c2.76109,1.81921 5.81978,2.20847 8.32689,2.37284c3.53556,0.12742 9.55561,-4.4446 10.54246,-4.07874z" fill="#ffab19" stroke="#001026" stroke-width="1.2" stroke-linecap="round" stroke-linejoin="round"/><path d="M198.18753,196.07407c2.02499,2.41337 5.73457,5.69605 5.73457,5.69605c0,0 -3.88443,-0.37915 -5.7588,1.55771c-1.52874,1.49378 -0.79464,3.58159 -0.48738,4.23613c-1.51178,-1.09086 -3.40232,-2.62814 -4.93871,-5.90083c-1.53641,-3.27268 -1.15039,-7.49539 0.78698,-8.34806c1.96726,-0.65798 2.6981,0.73501 4.66333,2.759z" fill="#ffffff" stroke="none" stroke-width="1" stroke-linecap="butt" stroke-linejoin="miter"/></g><path d="M244.17877,193.05451c0.43649,0.46974 5.36573,8.44987 7.69172,7.03244c2.78093,-1.64275 6.81158,-5.07708 9.88258,-1.28775c3.071,3.78933 -4.74861,8.10445 -7.93189,9.08355c-7.49402,1.87491 -12.14036,-4.7629 -13.07871,-6.51079c-0.93836,-1.74788 -2.59756,-4.7097 -2.15399,-7.23047c0.57864,-2.69828 4.13017,-2.81984 5.59032,-1.08699z" fill="#ffab19" fill-rule="evenodd" stroke="#001026" stroke-width="1.2" stroke-linecap="round" stroke-linejoin="round"/><path d="M221.76226,208.0171c0.24057,-2.03298 2.04777,-5.00303 6.04646,-3.52028c4.69363,1.6775 3.63609,7.39261 3.27386,9.82605c-0.36222,2.43345 0.13955,3.76813 0.28091,8.51553c0.02875,1.89117 -0.42419,4.11911 -0.19268,5.34283c0.08702,0.2663 0.36619,10.4088 -8.38344,9.46649c-7.72496,-0.83195 -0.67548,-12.10455 -0.67548,-12.10455c0,0 -0.85832,-10.21656 -0.66668,-13.63342c0.1009,-1.79927 0.25105,-3.16165 0.31706,-3.89265z" data-paper-data="{&quot;index&quot;:null}" fill="#ffab19" fill-rule="evenodd" stroke="#001026" stroke-width="1.2" stroke-linecap="round" stroke-linejoin="round"/><g fill-rule="evenodd"><path d="M227.03568,208.0848c-11.17627,-4.60792 -5.87439,-10.25981 -5.0632,-15.61864c0.87797,-4.64587 2.22334,-4.30104 8.39659,-5.32258c3.43188,-0.744 5.4528,-1.17627 7.51744,-2.04625c3.11537,-1.25911 4.31013,3.35686 4.3712,5.96883c0,0 0.02544,3.88978 -0.51654,6.09278c-0.68123,2.6761 -1.27502,4.47677 -2.0898,5.72696c0,0 -1.75055,2.68738 -3.95261,3.59485c-1.97941,0.81571 -8.66309,1.60406 -8.66309,1.60406z" fill="#ffab19" stroke="#001026" stroke-width="1.2" stroke-linecap="round" stroke-linejoin="round"/><path d="M238.75485,203.11252c0,0 -1.87479,-0.57031 -3.9556,-1.38048c-2.57338,-0.94391 -5.03627,-1.61257 -4.2676,-5.16413c0.83545,-2.8386 1.28071,-6.37577 6.64727,-5.30705c5.10185,0.95599 4.20771,3.9217 4.20771,3.9217c-0.44408,4.90672 -2.63178,7.92995 -2.63178,7.92995z" fill="#ffffff" stroke="none" stroke-width="1" stroke-linecap="butt" stroke-linejoin="miter"/></g><g fill-rule="evenodd"><path d="M250.65738,133.3882c0.31097,-0.1932 0.82106,-0.08928 0.91593,0.30499l2.46083,10.54589c0,0 6.46492,4.6915 8.34832,7.95632c3.17314,5.44178 3.19079,9.86578 3.19079,9.86578c0,0 7.23069,2.14393 8.3521,7.75975c1.12143,5.61583 -3.58745,16.18121 -22.90785,19.60618c-19.3204,3.42497 -34.68637,-1.7576 -41.74192,-13.04216c-7.05553,-11.28455 4.66909,-24.52541 4.03964,-23.74587c0,0 -0.76015,-15.68059 -0.35431,-15.47953l11.61099,5.28103c0,0 4.6399,-1.62021 9.45635,-1.76388c2.87089,-0.16505 5.32466,0.05853 7.67228,0.47756z" fill="#ffab19" stroke="#001026" stroke-width="1.2" stroke-linecap="butt" stroke-linejoin="miter"/><path d="M265.25855,162.45095c0,0 7.03154,1.84682 8.15296,7.46264c1.12143,5.61583 -3.98762,15.68526 -23.10133,19.01421c-24.87433,4.6419 -36.37889,-9.64076 -29.31863,-19.98368c7.06213,-10.44121 18.66648,-1.36771 27.27916,-1.86287c7.38202,-0.41039 8.31985,-6.59341 16.98785,-4.63029z" fill="#ffffff" stroke="none" stroke-width="1" stroke-linecap="butt" stroke-linejoin="miter"/><path d="M284.07898,163.73922c-4.88424,3.68196 -12.25874,3.69921 -12.25874,3.69921" fill="none" stroke="#001026" stroke-width="1.2" stroke-linecap="round" stroke-linejoin="round"/><path d="M282.53689,174.73265c-6.46046,0.42051 -10.41818,-1.49083 -10.41818,-1.49083" fill="none" stroke="#001026" stroke-width="1.2" stroke-linecap="round" stroke-linejoin="round"/><path d="M247.91007,164.52131c2.15034,0.02364 4.39934,0.24498 4.48854,0.93411c0.07604,1.37714 -1.51266,4.11226 -3.15289,4.19254c-1.84692,0.17632 -6.10054,-2.32812 -6.07041,-3.9007c-0.0798,-1.18056 2.68681,-1.24845 4.73476,-1.22593z" fill="#001026" stroke="#001026" stroke-width="1.2" stroke-linecap="round" stroke-linejoin="round"/><path d="M201.85945,162.54047c0,0 8.75345,2.84882 12.27898,5.93509" fill="none" stroke="#001026" stroke-width="1.2" stroke-linecap="round" stroke-linejoin="round"/><path d="M214.37973,171.91895c-4.4351,1.62246 -11.9918,0.45801 -11.9918,0.45801" fill="none" stroke="#001026" stroke-width="1.2" stroke-linecap="round" stroke-linejoin="round"/><g><path d="M260.2133,153.15464c2.88479,4.45551 2.89114,9.46924 -0.00988,11.20688c-2.90102,1.73763 -7.57176,-0.37816 -10.55894,-4.83482c-2.88479,-4.45551 -2.89114,-9.46924 0.00988,-11.20688c2.90292,-1.83593 7.67416,0.37927 10.55894,4.83482z" fill="#ffffff" stroke="#001026" stroke-width="1.2" stroke-linecap="round" stroke-linejoin="round"/><path d="M257.59774,158.5704c-0.0207,1.08115 -0.85685,1.95672 -1.88082,1.94547c-1.02398,-0.01126 -1.8262,-0.90485 -1.8055,-1.98598c0.0207,-1.08115 0.85685,-1.95672 1.88082,-1.94547c1.02398,0.01126 1.8262,0.90485 1.8055,1.98598" fill="#001026" stroke="none" stroke-width="1" stroke-linecap="butt" stroke-linejoin="miter"/></g><g><path d="M234.766,155.6275c2.98907,4.35836 2.68257,9.66356 -0.11794,11.50062c-3.4149,1.83029 -7.89401,0.40476 -10.88309,-3.95361c-3.09147,-4.3595 -3.18892,-9.96405 0.02684,-12.09146c3.21763,-2.22569 7.98511,0.18608 10.97419,4.54445z" fill="#ffffff" stroke="#001026" stroke-width="1.2" stroke-linecap="round" stroke-linejoin="round"/><path d="M232.29934,161.72493c-0.0207,1.08115 -0.85685,1.95672 -1.88082,1.94547c-1.02398,-0.01126 -1.8262,-0.90485 -1.8055,-1.98598c0.0207,-1.08115 0.85685,-1.95672 1.88082,-1.94547c1.0221,0.10955 1.8262,0.90485 1.8055,1.98598" fill="#001026" stroke="none" stroke-width="1" stroke-linecap="butt" stroke-linejoin="miter"/></g></g><path d="M236.34455,172.53057c-0.03197,-0.38698 0.35782,-0.71193 0.77953,-0.64991c2.02118,0.51225 22.86777,0.71076 24.3953,0.29029c0.50919,-0.14015 0.96287,0.30883 0.79595,0.80989c-0.71516,2.69017 -4.04636,10.27573 -14.95485,10.60687c-9.49239,-0.17739 -10.93468,-6.29075 -11.01594,-11.05717z" fill="#ffffff" fill-rule="evenodd" stroke="#001026" stroke-width="1.2" stroke-linecap="round" stroke-linejoin="round"/><g fill-rule="nonzero" stroke="#001026" stroke-width="1.2" stroke-linejoin="miter"><g><path d="M250.39998,201.07719l17.53699,-13.85945l6.97824,11.13451l-20.04076,8.43803c0,0 -2.56385,-0.79712 -3.28638,-1.71969c-0.76638,-0.97853 -1.18809,-3.99341 -1.18809,-3.99341z" fill="#505a63" stroke-linecap="butt"/><path d="M268.74502,185.89197c3.56371,-2.06032 8.19165,-0.9558 10.33678,2.46697c2.14514,3.42278 0.99516,7.86773 -2.56854,9.92803c-3.56371,2.06032 -8.19167,0.95581 -10.33679,-2.46698c-2.14514,-3.42278 -0.99515,-7.86772 2.56856,-9.92804z" fill="url(#color-1)" stroke-linecap="butt"/><path d="M265.45612,192.64119c0,0 3.50522,-3.06806 5.38513,-4.18305c1.75699,-1.04208 5.55049,-2.30295 5.55049,-2.30295" fill="none" stroke-linecap="round"/><path d="M269.19647,198.33732c0,0 4.27497,-3.89735 6.11343,-5.20024c1.35837,-0.96264 3.91962,-1.90997 3.91962,-1.90997" fill="none" stroke-linecap="round"/><path d="M268.32671,186.06999c0,0 4.50266,2.38702 6.29166,4.18523c1.55642,1.56441 3.84216,6.00061 3.84216,6.00061" fill="none" stroke-linecap="round"/><path d="M264.87668,190.35666c0,0 4.77479,2.92758 6.68904,4.49892c1.48805,1.2215 3.84326,4.14681 3.84326,4.14681" fill="none" stroke-linecap="round"/></g><path d="M262.63737,205.72008c-2.37238,1.3809 -5.67485,0.80214 -7.37631,-1.2927c-1.70146,-2.09484 -1.94529,-4.70295 0.42709,-6.08385c2.37238,-1.3809 6.46258,-1.01169 8.16403,1.08317c1.70146,2.09484 1.15755,4.91248 -1.21482,6.2934z" fill="#ffab19" stroke-linecap="butt"/></g><g fill-rule="nonzero" stroke="#001026" stroke-width="1.2" stroke-linecap="butt" stroke-linejoin="miter"><path d="M225.25166,149.1847c-1.49802,4.27369 -21.96055,12.05715 -21.96055,12.05715c0,0 -2.9402,-0.15189 -4.32363,-0.29342c-10.36087,-1.05984 -17.26841,-4.48154 -15.94687,-8.25181c1.49802,-4.27369 13.0022,-7.3769 25.69532,-6.93121c12.69312,0.44569 18.03375,-0.85442 16.53572,3.41928z" fill="#00b0f7"/><path d="M209.59135,144.70681l-11.99725,-3.71344c0,0 14.90191,-6.20254 23.05037,-7.95278c9.85504,-2.11683 31.93959,-3.8588 31.93959,-3.8588l-14.59185,17.4423z" fill="#ff2b2b"/><path d="M200.70731,162.15782c0,0 -2.89061,-7.23854 -3.42649,-10.74805c-0.51987,-3.40473 0.25782,-10.00425 0.25782,-10.00425l26.84677,-3.9506c0,0 0.48242,7.5443 1.02556,11.10136c0.51115,3.34764 2.14311,9.65093 2.14311,9.65093z" data-paper-data="{&quot;index&quot;:null}" fill="#cc0000"/><path d="M227.12024,158.20647c0,0 -1.02656,-6.43927 -1.97188,-9.69597c-1.00446,-3.46043 -3.88825,-10.49252 -3.88825,-10.49252l32.00472,-8.75339c0,0 3.87263,5.60091 4.83409,8.91312c0.99104,3.41416 1.02603,11.27534 1.02603,11.27534z" fill="#f70000"/></g><g fill-rule="nonzero" stroke="#001026" stroke-width="1.2" stroke-linecap="butt" stroke-linejoin="miter"><path d="M232.27253,185.17055c-0.31701,2.7467 -1.70431,4.62461 -3.09862,4.19443c-1.39434,-0.43018 -2.26768,-3.00555 -1.95067,-5.75224c0.31701,-2.7467 1.70431,-4.62462 3.09862,-4.19444c1.39434,0.43018 2.26768,3.00556 1.95067,5.75225z" data-paper-data="{&quot;index&quot;:null}" fill="#ffab19"/><path d="M226.74994,181.91038c0.07571,2.83663 -1.00093,4.96547 -2.40478,4.75493c-1.40383,-0.21056 -2.60321,-2.68079 -2.67891,-5.51741c-0.07571,-2.83663 1.00093,-4.96547 2.40478,-4.75492c1.40383,0.21056 2.60321,2.68079 2.67891,5.51741z" data-paper-data="{&quot;index&quot;:null}" fill="#ffab19"/><path d="M225.83255,183.50049c4.74073,2.26725 6.85423,7.44144 4.72062,11.55691c-2.13361,4.11546 -7.70637,5.61373 -12.4471,3.34649c-4.74073,-2.26725 -6.85423,-7.44144 -4.72062,-11.55691c2.13361,-4.11546 7.70637,-5.61373 12.4471,-3.34649z" data-paper-data="{&quot;index&quot;:null}" fill="#ffab19"/><path d="M224.71216,186.85761c3.36018,1.60699 4.7909,5.40431 3.19555,8.48152c-1.59535,3.07721 -5.61261,4.26905 -8.9728,2.66205c-3.36018,-1.60699 -4.79089,-5.4043 -3.19555,-8.48151c1.59535,-3.07721 5.61261,-4.26905 8.9728,-2.66206z" data-paper-data="{&quot;index&quot;:null}" fill="#ffffff"/><path d="M222.32418,186.06281c0.07571,2.10504 -1.00093,3.68485 -2.40478,3.5286c-1.40383,-0.15626 -2.60321,-1.9894 -2.67891,-4.09444c-0.07571,-2.10504 1.00093,-3.68484 2.40478,-3.52859c1.40383,0.15626 2.60321,1.9894 2.67891,4.09444z" data-paper-data="{&quot;index&quot;:null}" fill="#ffab19"/><path d="M217.89842,187.92252c0.07571,2.10504 -1.00093,3.68485 -2.40478,3.5286c-1.40383,-0.15626 -2.60321,-1.98941 -2.67891,-4.09445c-0.07571,-2.10504 1.00093,-3.68484 2.40478,-3.52859c1.40383,0.15626 2.60321,1.9894 2.67891,4.09444z" data-paper-data="{&quot;index&quot;:null}" fill="#ffab19"/></g></g></g></svg>