<svg version="1.1" xmlns="http://www.w3.org/2000/svg" xmlns:xlink="http://www.w3.org/1999/xlink" width="103.64317" height="113.26642" viewBox="0,0,103.64317,113.26642"><defs><radialGradient cx="265.30722" cy="175.69617" r="7.3567" gradientUnits="userSpaceOnUse" id="color-1"><stop offset="0" stop-color="#54606d"/><stop offset="1" stop-color="#2c3136"/></radialGradient></defs><g transform="translate(-183.23184,-125.14153)"><g data-paper-data="{&quot;isPaintingLayer&quot;:true}" stroke-miterlimit="10" stroke-dasharray="" stroke-dashoffset="0" style="mix-blend-mode: normal"><g fill="#ffa000" fill-rule="nonzero" stroke="#ffa000" stroke-width="1.2" stroke-linecap="butt" stroke-linejoin="miter"><path d="M225.11287,146.67468c-1.35842,4.37167 -21.14648,12.62803 -21.14648,12.62803c0,0 -2.87423,-0.10567 -4.22833,-0.22664c-10.14116,-0.90591 -16.96839,-4.27142 -15.76999,-8.12813c1.35842,-4.37167 12.51442,-7.71897 24.91761,-7.47644c12.4032,0.24253 17.5856,-1.16849 16.22718,3.20317z"/><path d="M209.71456,142.38024l-11.80341,-3.57772c0,0 14.39771,-6.55607 22.31045,-8.47157c9.56996,-2.31668 31.08875,-4.45518 31.08875,-4.45518l-13.82122,17.98291z"/><path d="M201.46612,160.27726c0,0 -2.99842,-7.31433 -3.60709,-10.87497c-0.59048,-3.45433 0.00803,-10.17962 0.00803,-10.17962l26.11437,-4.46398c0,0 0.65475,7.66532 1.27166,11.27419c0.58058,3.3964 2.3274,9.78039 2.3274,9.78039z" data-paper-data="{&quot;index&quot;:null}"/><path d="M227.15691,155.8197c0,0 -1.15907,-6.53234 -2.16132,-9.82904c-1.06494,-3.50293 -4.05169,-10.6074 -4.05169,-10.6074l31.03311,-9.43455c0,0 3.91729,5.63239 4.93664,8.98529c1.05071,3.4561 1.27636,11.45113 1.27636,11.45113z"/></g><path d="M240.22988,201.12644c0.08631,0.74123 0.27366,2.12186 0.426,3.94804c0.28931,3.46796 0.45241,8.54265 -0.44234,13.89627l-0.09283,0.40172c-0.09283,0.40172 0.26153,0.80723 0.70873,0.81099c2.91056,-0.42268 8.59525,-1.00085 7.60824,4.67064c-0.89607,5.49336 -17.9558,7.89868 -19.3412,2.47552c-0.38286,-2.32883 1.01362,-3.52456 1.77915,-4.14422c0.40549,-0.35436 0.63286,-0.79968 0.77118,-1.29046c0.18943,-1.25065 0.47737,-3.57381 0.44887,-5.49714c-0.00399,-4.83012 -0.3508,-6.13001 -0.77726,-8.59336c-0.42646,-2.46336 -1.62994,-8.24277 2.90259,-10.0829c3.85985,-1.6222 5.71319,1.34515 6.00887,3.4049z" fill="#ffa000" fill-rule="evenodd" stroke="#ffa000" stroke-width="1.2" stroke-linecap="round" stroke-linejoin="round"/><g fill="#ffa000" fill-rule="evenodd" stroke="#ffa000"><path d="M224.7,200.85c0.8,0.4 2.5,1.3 0.1,4.7c-2.4,3.4 -9.3,4.1 -10.1,4.1c-3.1,0.1 -6.9,0.1 -11.1,-1.3c-12.2,-4 -12.3,-17.1 -8.4,-19.2c3.8,-2.1 5.5,6 11,10.9c2.4,2.2 5.3,3 7.7,3.5c3.4,0.6 9.9,-3.2 10.8,-2.7z" stroke-width="1.2" stroke-linecap="round" stroke-linejoin="round"/><path d="M199.9,192.75c1.6,2.7 4.7,6.5 4.7,6.5c0,0 -3.7,-0.9 -5.8,0.8c-1.7,1.3 -1.3,3.5 -1.1,4.2c-1.3,-1.3 -2.9,-3.1 -3.9,-6.6c-1,-3.5 0,-7.7 2,-8.3c2,-0.4 2.5,1.1 4.1,3.4z" stroke-width="1" stroke-linecap="butt" stroke-linejoin="miter"/></g><path d="M244.10793,188.98792c0.53129,0.3574 7.2043,7.0298 9.04904,5.07099c2.21863,-2.29078 5.16926,-6.64897 9.02915,-3.6571c3.85989,2.99186 -2.45511,9.13359 -5.22152,10.86765c-6.62083,3.65849 -12.68834,-1.75957 -14.0162,-3.25516c-1.32787,-1.49558 -3.64338,-4.0132 -3.85781,-6.60434c-0.13126,-2.79871 3.19943,-3.77673 5.01734,-2.42204z" fill="#ffa000" fill-rule="evenodd" stroke="#ffa000" stroke-width="1.2" stroke-linecap="round" stroke-linejoin="round"/><path d="M222.80088,207.77317c0.11088,-2.07791 1.69228,-5.19867 5.68139,-3.92706c4.67855,1.42871 3.99511,7.2924 3.78997,9.78397c-0.20514,2.49157 0.36532,3.8172 0.79198,8.62844c0.14309,1.91821 -0.163,4.20645 0.13718,5.43523c0.10105,0.26525 0.99032,10.54547 -7.59827,10.10014c-7.58278,-0.39318 -1.39506,-12.24891 -1.39506,-12.24891c0,0 -1.45847,-10.32156 -1.4795,-13.8015c-0.01108,-1.83249 0.05244,-3.22433 0.07232,-3.9703z" data-paper-data="{&quot;index&quot;:null}" fill="#ffa000" fill-rule="evenodd" stroke="#ffa000" stroke-width="1.2" stroke-linecap="round" stroke-linejoin="round"/><g fill="#ffa000" fill-rule="evenodd" stroke="#ffa000"><path d="M227.22623,207.58094c-10.91689,-4.68629 -5.73806,-10.43431 -4.94569,-15.88427c0.85759,-4.72489 2.17174,-4.37419 8.20172,-5.41311c3.35223,-0.75666 5.32626,-1.19628 7.34298,-2.08106c3.04307,-1.28052 4.2101,3.41396 4.26975,6.07035c0,0 0.02485,3.95593 -0.50455,6.1964c-0.66542,2.72162 -1.24543,4.55291 -2.0413,5.82436c0,0 -1.70993,2.73309 -3.86088,3.65599c-1.93347,0.82958 -8.46204,1.63134 -8.46204,1.63134z" stroke-width="1.2" stroke-linecap="round" stroke-linejoin="round"/><path d="M238.67342,202.52409c0,0 -1.83128,-0.58001 -3.8638,-1.40396c-2.51366,-0.95996 -4.91939,-1.64 -4.16856,-5.25196c0.81606,-2.88688 1.25099,-6.48421 6.493,-5.39731c4.98345,0.97225 4.11006,3.9884 4.11006,3.9884c-0.43377,4.99017 -2.57071,8.06482 -2.57071,8.06482z" stroke-width="1" stroke-linecap="butt" stroke-linejoin="miter"/></g><path d="M249.5318,130.18614c0.29889,-0.20166 0.79943,-0.10445 0.90165,0.29499l2.6594,10.68538c0,0 6.42602,4.66438 8.34431,7.95377c3.2305,5.48213 3.35549,9.98152 3.35549,9.98152c0,0 7.11156,2.06053 8.3432,7.75378c1.23164,5.69324 -3.1083,16.51752 -21.88745,20.32189c-18.77915,3.80438 -33.90725,-1.21167 -41.07046,-12.57205c-7.16321,-11.36038 3.96106,-25.02239 3.36552,-24.21907c0,0 -1.12408,-15.93615 -0.72297,-15.73838l11.46449,5.17854c0,0 4.49048,-1.72497 9.18931,-1.95107c2.79884,-0.21554 5.19992,-0.02889 7.50211,0.35832z" fill="#ffa000" fill-rule="evenodd" stroke="#ffa000" stroke-width="1.2" stroke-linecap="butt" stroke-linejoin="miter"/><path d="M264.57162,158.30296c0,0 6.96503,1.52918 8.3867,7.17797c1.42167,5.64879 -2.97246,16.12837 -21.41769,20.45196c-23.98629,5.94119 -36.03984,-7.99874 -29.75888,-18.85229c6.27705,-10.95347 18.12364,-2.30949 26.4938,-3.23705c7.17498,-0.78078 7.72836,-7.10721 16.29607,-5.54059z" fill="#ffa000" fill-rule="evenodd" stroke="#ffa000" stroke-width="1" stroke-linecap="butt" stroke-linejoin="miter"/><path d="M282.86185,161.55129c-4.7515,3.73541 -11.95219,3.737 -11.95219,3.737" fill="#ffa000" fill-rule="evenodd" stroke="#ffa000" stroke-width="1.2" stroke-linecap="round" stroke-linejoin="round"/><path d="M281.40891,172.73248c-6.30625,0.41385 -10.17991,-1.53927 -10.17991,-1.53927" fill="#ffa000" fill-rule="evenodd" stroke="#ffa000" stroke-width="1.2" stroke-linecap="round" stroke-linejoin="round"/><path d="M247.54875,162.26874c2.0998,0.0287 4.29687,0.25875 4.38729,0.96005c0.08086,1.40124 -1.45727,4.18047 -3.05849,4.2586c-1.80257,0.17538 -5.96801,-2.38179 -5.94614,-3.98164c-0.08359,-1.20125 2.61752,-1.26434 4.61734,-1.23701z" fill="#ffa000" fill-rule="evenodd" stroke="#ffa000" stroke-width="1.2" stroke-linecap="round" stroke-linejoin="round"/><path d="M202.57345,160.15386c0,0 8.56093,2.91727 12.01823,6.06482" fill="#ffa000" fill-rule="evenodd" stroke="#ffa000" stroke-width="1.2" stroke-linecap="round" stroke-linejoin="round"/><path d="M214.84383,169.72246c-4.32283,1.64107 -11.70711,0.44004 -11.70711,0.44004" fill="#ffa000" fill-rule="evenodd" stroke="#ffa000" stroke-width="1.2" stroke-linecap="round" stroke-linejoin="round"/><g fill="#ffa000" fill-rule="evenodd" stroke="#ffa000"><path d="M259.10844,149.10929c3.07352,4.38332 3.3726,9.47552 0.64502,11.3835c-2.72758,1.90796 -7.40607,-0.0108 -10.57951,-4.39022c-3.07352,-4.38332 -3.3726,-9.47552 -0.64502,-11.3835c2.72367,-2.0079 7.50599,0.00689 10.57951,4.39022z" stroke-width="1.2" stroke-linecap="round" stroke-linejoin="round"/><path d="M259.68076,154.79127c0.04296,1.09916 -0.72129,2.02971 -1.72053,2.06876c-0.99924,0.03905 -1.83377,-0.82903 -1.87673,-1.92818c-0.04296,-1.09916 0.72129,-2.02971 1.72053,-2.06876c0.99924,-0.03905 1.83377,0.82903 1.87673,1.92818" stroke-width="1" stroke-linecap="butt" stroke-linejoin="miter"/></g><g fill="#ffa000" fill-rule="evenodd" stroke="#ffa000"><path d="M234.55867,153.06966c3.0244,4.38326 2.85439,9.78429 0.16499,11.69926c-3.2894,1.9183 -7.6971,0.54277 -10.7215,-3.8405c-3.1244,-4.38271 -3.35606,-10.08151 -0.26833,-12.29869c3.08718,-2.31718 7.80043,0.05667 10.82483,4.43993z" stroke-width="1.2" stroke-linecap="round" stroke-linejoin="round"/><path d="M234.4909,158.87013c0.00612,1.09998 -0.78888,2.00441 -1.78887,2.00996c-0.99999,0.00555 -1.80497,-0.88999 -1.81108,-1.98997c-0.00612,-1.09998 0.78888,-2.00441 1.78887,-2.00996c1.00054,0.09445 1.80497,0.88999 1.81108,1.98997" stroke-width="1" stroke-linecap="butt" stroke-linejoin="miter"/></g><path d="M224.0789,198.70403c-0.54926,4.09788 1.2427,7.97329 -0.22805,10.04286c-0.95987,1.35068 -2.50206,2.27291 -3.51736,2.13683c-1.13161,-0.15167 -2.9008,-1.72889 -3.47056,-3.60542c-0.72472,-2.38686 -2.60254,-6.03069 -2.09435,-9.82218c0.44829,-3.34453 3.33672,-6.61675 4.45748,-8.71852c1.14864,-2.15409 3.09332,-2.55304 4.3946,-2.37862c1.4049,0.18831 2.77346,1.26841 3.27956,3.97491c0.42008,2.24643 -2.40961,5.29853 -2.82132,8.37015z" fill="#ffa000" fill-rule="nonzero" stroke="#ffa000" stroke-width="1.2" stroke-linecap="butt" stroke-linejoin="miter"/><path d="M248.65594,193.02732c2.94923,1.64705 6.43194,1.44822 7.56331,3.18689c0.73837,1.13472 0.97643,2.5834 0.56835,3.31411c-0.45482,0.81442 -2.18426,1.68558 -3.78124,1.55545c-2.03128,-0.1655 -5.36378,0.16807 -8.0925,-1.35584c-2.40705,-1.34427 -4.02692,-4.52114 -5.28778,-6.00351c-1.29225,-1.51926 -1.01188,-3.11676 -0.48885,-4.05329c0.56468,-1.0111 1.79612,-1.72698 4.00471,-1.29943c1.83316,0.35487 3.30338,3.42105 5.51402,4.65563z" fill="#ffffff" fill-rule="nonzero" stroke="none" stroke-width="0" stroke-linecap="butt" stroke-linejoin="miter"/><g fill-rule="evenodd" stroke="none" stroke-width="0"><path d="M249.53302,137.21425c0.26175,-0.16691 0.6997,-0.08705 0.78878,0.24289l2.31724,8.82636c0,0 5.61912,3.84792 7.29476,6.56401c2.82191,4.5266 2.92706,8.24413 2.92706,8.24413c0,0 6.22149,1.69583 7.29397,6.39876c1.07248,4.70292 -2.73563,13.6506 -19.17313,16.81165c-16.4375,3.16103 -29.67161,-0.96929 -35.92957,-10.34914c-6.25796,-9.37985 3.4899,-20.6786 2.96797,-20.01431c0,0 -0.96872,-13.16627 -0.61789,-13.00325l10.02787,4.26803c0,0 3.93131,-1.42949 8.04354,-1.62072c2.44951,-0.18073 4.55055,-0.02875 6.56487,0.28902z" fill="#ffffff" stroke-linecap="butt" stroke-linejoin="miter"/><path d="M247.8196,163.4176c1.83772,-0.01162 3.76374,0.14147 3.854,0.71929c0.093,1.15618 -1.20868,3.47793 -2.60846,3.5694c-1.57441,0.17521 -5.25966,-1.86717 -5.26593,-3.18915c-0.09222,-0.99094 2.27018,-1.08847 4.0204,-1.09954z" fill="#080808" stroke-linecap="round" stroke-linejoin="round"/><path d="M258.09998,153.68538c2.55546,3.70202 2.66297,7.91529 0.21972,9.418c-2.44324,1.50271 -6.47696,-0.20696 -9.11994,-3.90844c-2.55546,-3.70202 -2.66297,-7.91529 -0.21972,-9.418c2.44285,-1.58534 6.56448,0.2064 9.11994,3.90844z" fill="#080808" stroke-linecap="round" stroke-linejoin="round"/><path d="M236.40831,156.13597c2.64258,3.61885 2.48873,8.08165 0.13339,9.66642c-2.88041,1.5881 -6.73636,0.4557 -9.37894,-3.16316c-2.73009,-3.61831 -2.92746,-8.32675 -0.22326,-10.1616c2.7038,-1.91748 6.82622,0.03949 9.46879,3.65835z" fill="#080808" stroke-linecap="round" stroke-linejoin="round"/></g><path d="M221.22291,191.43226c0.23851,-1.31404 1.99789,-11.00891 6.35086,-11.7589c1.02427,-0.2312 10.61044,-0.55136 13.82425,5.03201c1.25117,2.17366 -2.16827,11.70199 -2.16827,11.70199c0,0 -2.79564,9.22221 -3.54149,9.54223c-1.0668,0.45773 -8.77423,3.99572 -12.49196,0.47115c-3.02027,-2.86336 -2.32857,-12.54557 -1.97339,-14.98849z" fill="#ffffff" fill-rule="evenodd" stroke="none" stroke-width="0" stroke-linecap="round" stroke-linejoin="round"/><path d="M218.54275,204.26193c0.56935,0.45087 1.7709,1.44871 -0.70165,3.7521c-2.47255,2.30338 -8.41878,0.84822 -9.05461,0.71526c-2.48044,-0.43574 -5.67357,-1.41319 -8.77897,-3.22391c-9.03155,-5.20674 -7.10678,-14.59731 -3.65812,-15.61818c3.36919,-1.03749 4.06591,5.68278 7.62284,10.4913c1.54184,2.1474 4.5785,2.05455 6.40288,2.85082c2.60254,1.04194 7.53543,0.48565 8.16763,1.03262z" fill="#ffffff" fill-rule="evenodd" stroke="none" stroke-width="0" stroke-linecap="round" stroke-linejoin="round"/><path d="M223.48122,198.68679c-0.44876,3.34804 1.01531,6.51432 -0.18632,8.20519c-0.78423,1.10353 -2.04423,1.85701 -2.87375,1.74583c-0.92455,-0.12392 -2.37,-1.41253 -2.83551,-2.94569c-0.59211,-1.95011 -2.12632,-4.92718 -1.71112,-8.02489c0.36626,-2.73254 2.72616,-5.406 3.64184,-7.12318c0.93846,-1.75993 2.5273,-2.08588 3.59047,-1.94337c1.14783,0.15385 2.26597,1.03631 2.67946,3.24757c0.34321,1.83537 -1.96869,4.32899 -2.30507,6.83856z" fill="#ffffff" fill-rule="nonzero" stroke="none" stroke-width="0" stroke-linecap="butt" stroke-linejoin="miter"/><path d="M239.18915,203.17113c0.07737,0.66447 0.24532,1.90213 0.38189,3.53921c0.25935,3.10884 0.40556,7.65803 -0.39653,12.45726l-0.08322,0.36012c-0.08322,0.36012 0.23445,0.72364 0.63534,0.72701c2.60916,-0.37891 7.70518,-0.89721 6.82038,4.18698c-0.80328,4.9245 -16.09642,7.08074 -17.33835,2.21917c-0.34321,-2.08767 0.90866,-3.15958 1.59491,-3.71507c0.3635,-0.31766 0.56733,-0.71687 0.69132,-1.15683c0.16981,-1.12114 0.42794,-3.20373 0.40239,-4.92789c-0.00358,-4.32994 -0.31447,-5.49523 -0.69677,-7.70349c-0.3823,-2.20827 -1.46115,-7.3892 2.60202,-9.03878c3.46015,-1.45422 5.12157,1.20586 5.38663,3.05231z" fill="#ffffff" fill-rule="evenodd" stroke="none" stroke-width="0" stroke-linecap="round" stroke-linejoin="round"/><path d="M223.56499,209.12957c0.0994,-1.86274 1.51704,-4.66033 5.09306,-3.5204c4.19407,1.28076 3.5814,6.53725 3.39751,8.77081c-0.1839,2.23356 0.32749,3.42192 0.70997,7.73494c0.12827,1.71957 -0.14612,3.77086 0.12297,4.87239c0.09059,0.23778 0.88777,9.45345 -6.81144,9.05424c-6.79756,-0.35246 -1.2506,-10.98049 -1.2506,-10.98049c0,0 -1.30744,-9.25273 -1.32629,-12.37231c-0.00993,-1.64273 0.04701,-2.89044 0.06483,-3.55916z" data-paper-data="{&quot;index&quot;:null}" fill="#ffffff" fill-rule="evenodd" stroke="none" stroke-width="0" stroke-linecap="round" stroke-linejoin="round"/><g fill-rule="nonzero" stroke="#001026" stroke-width="1.2" stroke-linejoin="miter"><path d="M252.50803,200.1898l3.38945,-21.9231l12.62657,3.90666l-8.88602,19.43935c0,0 -2.40797,1.06331 -3.55932,0.83354c-1.22121,-0.24371 -3.57068,-2.25643 -3.57068,-2.25643z" fill="#505a63" stroke-linecap="butt"/><path d="M255.58818,176.73527c1.20092,-3.88146 5.32101,-6.05446 9.20245,-4.85355c3.88146,1.20092 6.05446,5.32102 4.85355,9.20245c-1.20092,3.88146 -5.32102,6.05447 -9.20246,4.85354c-3.88146,-1.20092 -6.05445,-5.32102 -4.85353,-9.20247z" fill="url(#color-1)" stroke-linecap="butt"/><path d="M257.76363,183.99493c0,0 0.47568,-4.60787 1.09013,-6.67676c0.57426,-1.93358 2.48414,-5.35809 2.48414,-5.35809" fill="none" stroke-linecap="round"/><path d="M264.34724,185.88256c0,0 0.47478,-5.73778 0.93174,-7.9222c0.33765,-1.61399 1.56207,-3.99895 1.56207,-3.99895" fill="none" stroke-linecap="round"/><path d="M255.40398,177.14246c0,0 4.89754,-1.11859 7.41907,-0.91837c2.19371,0.17417 6.86406,2.0524 6.86406,2.0524" fill="none" stroke-linecap="round"/><path d="M255.79395,182.63886c0,0 5.46198,-0.88557 7.92108,-0.93893c1.91159,-0.04146 5.60912,0.64539 5.60912,0.64539" fill="none" stroke-linecap="round"/></g><path d="M265.40025,193.36745c0.76805,1.98316 -0.82168,4.24197 -3.55078,5.0452c-2.72909,0.80324 -5.56408,-0.15328 -6.33212,-2.13645c-0.76805,-1.98316 0.82168,-4.24197 3.55078,-5.0452c2.72909,-0.80324 5.56408,0.15328 6.33212,2.13645z" fill="#ffffff" fill-rule="nonzero" stroke="none" stroke-width="0" stroke-linecap="butt" stroke-linejoin="miter"/><path d="M203.375,181.38095c0,-0.41421 0.33579,-0.75 0.75,-0.75c0.41421,0 0.75,0.33579 0.75,0.75c0,0.41421 -0.33579,0.75 -0.75,0.75c-0.41421,0 -0.75,-0.33579 -0.75,-0.75z" fill="#ffffff" fill-rule="nonzero" stroke="none" stroke-width="0.5" stroke-linecap="butt" stroke-linejoin="miter"/><path d="M201.625,185.63095c0,-0.41421 0.33579,-0.75 0.75,-0.75c0.41421,0 0.75,0.33579 0.75,0.75c0,0.41421 -0.33579,0.75 -0.75,0.75c-0.41421,0 -0.75,-0.33579 -0.75,-0.75z" fill="#ffffff" fill-rule="nonzero" stroke="none" stroke-width="0.5" stroke-linecap="butt" stroke-linejoin="miter"/><path d="M284.125,173.38095c0,-0.41421 0.33579,-0.75 0.75,-0.75c0.41421,0 0.75,0.33579 0.75,0.75c0,0.41421 -0.33579,0.75 -0.75,0.75c-0.41421,0 -0.75,-0.33579 -0.75,-0.75z" fill="#ffffff" fill-rule="nonzero" stroke="none" stroke-width="0.5" stroke-linecap="butt" stroke-linejoin="miter"/><path d="M285.375,178.13095c0,-0.41421 0.33579,-0.75 0.75,-0.75c0.41421,0 0.75,0.33579 0.75,0.75c0,0.41421 -0.33579,0.75 -0.75,0.75c-0.41421,0 -0.75,-0.33579 -0.75,-0.75z" fill="#ffffff" fill-rule="nonzero" stroke="none" stroke-width="0.5" stroke-linecap="butt" stroke-linejoin="miter"/></g></g></svg>