<svg version="1.1" xmlns="http://www.w3.org/2000/svg" xmlns:xlink="http://www.w3.org/1999/xlink" width="144.37203" height="151.35619" viewBox="0,0,144.37203,151.35619"><defs><linearGradient x1="178.13925" y1="148.5208" x2="184.04176" y2="194.91215" gradientUnits="userSpaceOnUse" id="color-1"><stop offset="0" stop-color="#cc2981"/><stop offset="1" stop-color="#a92292"/></linearGradient><linearGradient x1="287.02902" y1="143.51689" x2="281.91199" y2="190.00143" gradientUnits="userSpaceOnUse" id="color-2"><stop offset="0" stop-color="#cc2981"/><stop offset="1" stop-color="#a92292"/></linearGradient><linearGradient x1="279.31947" y1="214.03867" x2="279.31947" y2="237.26027" gradientUnits="userSpaceOnUse" id="color-3"><stop offset="0" stop-color="#9966ff"/><stop offset="1" stop-color="#66ebff"/></linearGradient><linearGradient x1="310.53889" y1="209.94894" x2="310.53889" y2="237.33108" gradientUnits="userSpaceOnUse" id="color-4"><stop offset="0" stop-color="#9966ff"/><stop offset="1" stop-color="#66ebff"/></linearGradient></defs><g transform="translate(-170.18659,-87.04361)"><g data-paper-data="{&quot;isPaintingLayer&quot;:true}" fill-rule="nonzero" stroke-miterlimit="10" stroke-dasharray="" stroke-dashoffset="0" style="mix-blend-mode: normal"><g data-paper-data="{&quot;index&quot;:null}" stroke="#000000" stroke-width="0.90024" stroke-linecap="round" stroke-linejoin="miter"><path d="M267.46032,163.09041c0,0 3.03339,-13.26676 3.24255,-13.93131c0.20912,-0.66442 1.27065,-6.496 9.96706,-13.08692c0,0 8.82624,30.34881 -1.90892,44.32841c-0.00043,-0.00079 -2.91775,-8.46846 -11.30067,-17.31019zM267.63553,163.27755c-0.67523,-0.741 -2.12366,-1.90875 -2.12366,-1.90875M279.22526,182.84444c0,0 -0.17113,-1.59388 -0.4647,-2.44463" fill="#be1e2d"/><path d="M282.05577,173.04673c0,0 -2.01705,-0.30702 -4.15615,-3.79778c-1.33044,-2.16335 -2.58974,-6.75235 -2.58974,-6.75235l-0.00749,0.17271c0.22385,-1.0571 0.41503,-2.25345 0.49996,-3.49717c0.14542,-2.10479 0.03309,-5.07906 -0.15861,-7.96638l-0.00814,-0.40781c0,0 0.54819,-5.72216 6.14598,-9.49687l0.0882,-0.00035c1.02413,4.78878 2.32233,11.92486 2.35045,17.2734c0.03172,5.99962 -1.02833,10.95436 -2.22195,14.61432l0.05749,-0.14171v0v0v0v0zM274.2057,166.29232c0,0 0.95196,-3.15861 1.10419,-3.79574" fill="#929497"/></g><g data-paper-data="{&quot;index&quot;:null}" stroke="#000000" stroke-width="0.90024" stroke-linecap="round" stroke-linejoin="miter"><path d="M186.84069,186.62606c-11.52906,-13.33134 -4.48254,-44.14206 -4.48254,-44.14206c9.06464,6.07494 10.46345,11.83493 10.71125,12.48526c0.24776,0.65042 4.04711,13.71918 4.04711,13.71918c-7.85582,9.31465 -10.27583,17.93762 -10.27583,17.93762zM198.96028,166.85684c0,0 -1.37808,1.25 -2.00899,2.02905M186.84069,186.62606c-0.24368,0.86633 -0.32177,2.46751 -0.32177,2.46751" fill="#be1e2d"/><path d="M183.18914,179.61514c-1.40403,-3.58517 -2.74957,-8.46951 -3.06806,-14.46044c-0.28374,-5.34151 0.59822,-12.54058 1.34208,-17.38085l0.08816,-0.00472c5.80823,3.44402 6.68778,9.12343 6.68778,9.12343l0.01559,0.4076c-0.02357,2.89353 0.03732,5.86935 0.30487,7.96212c0.15707,1.23666 0.41752,2.41988 0.70245,3.46217l-0.01752,-0.17198c0,0 -0.99032,4.65447 -2.19281,6.89148c-1.9324,3.6093 -3.92829,4.03303 -3.92829,4.03303zM189.24452,168.55246c0.18902,0.6272 1.32303,3.72512 1.32303,3.72512" fill="#929497"/></g><path d="M185.70238,148.68872c0,0 1.38482,-39.36914 49.19142,-41.25768c32.80479,-1.29591 45.71214,36.97826 45.71214,36.97826" data-paper-data="{&quot;index&quot;:null}" fill="none" stroke="#000000" stroke-width="7" stroke-linecap="round" stroke-linejoin="miter"/><path d="M233.19824,209.81081v0v0v0v0v0c0.9866,1.5676 2.35672,4.82184 2.36207,5.9574c0,0 -0.18055,4.44364 -2.56528,4.89409c-1.01893,0.19288 -1.89443,-0.22768 -2.65207,-1.10678c-0.3882,0.1517 -0.982,0.29468 -1.54316,0.00324c-0.93141,-0.48188 0.17858,-2.37303 0.17858,-2.37303l0.01211,0.01451c-0.11847,-0.29504 -0.23235,-0.59288 -0.34201,-0.91653c-0.61449,-1.83264 -0.99348,-4.70059 -1.26784,-6.24952c0,0 -0.27539,-1.33815 0.96905,-2.33525c1.32374,-1.06097 3.86196,0.54427 4.84856,2.11186z" data-paper-data="{&quot;index&quot;:null}" fill="#be1e2d" stroke="#231f20" stroke-width="0.78672" stroke-linecap="round" stroke-linejoin="round"/><path d="M248.11628,217.99398v0v0v0v0c0,0 -3.3134,2.96613 -5.29685,1.56467c-0.85169,-0.59256 -1.15553,-1.51751 -1.05582,-2.67388c-0.38185,-0.17189 -0.89452,-0.49645 -1.07815,-1.10306c-0.30348,-1.00245 1.82615,-1.52787 1.82615,-1.52787l-0.00188,0.01798c0.13087,-0.28742 0.26446,-0.57944 0.4189,-0.88396c0.88797,-1.7147 2.6796,-3.98893 3.59803,-5.265c0,0 1.22887,-1.2154 2.47915,-0.77769c1.25029,0.43672 1.78738,2.5727 1.58423,3.51431c-0.20395,0.94172 -1.07767,5.54981 -2.47377,7.13446z" data-paper-data="{&quot;index&quot;:null}" fill="#be1e2d" stroke="#231f20" stroke-width="0.78672" stroke-linecap="round" stroke-linejoin="round"/><path d="M243.41362,218.20271c1.58098,-0.36581 3.46597,0.19223 3.46597,0.19223c0,0 0.56085,5.18662 0.71651,7.06071c0.15651,1.87685 0.95861,4.84261 0.95861,4.84261c0,0 0.4701,0.31822 0.29134,1.07108c-0.18236,0.75085 -1.86057,0.80561 -3.97704,1.08774c-2.11262,0.27774 -3.8035,-0.15416 -4.09102,-0.92026c-0.29041,-0.76265 0.34728,-1.07532 0.34728,-1.07532c0,0 1.31474,-6.08433 0.54476,-8.24589c0.00424,0.00474 -0.27212,-3.54671 1.74359,-4.0129z" data-paper-data="{&quot;index&quot;:null}" fill="#be1e2d" stroke="#231f20" stroke-width="0.90024" stroke-linecap="round" stroke-linejoin="round"/><path d="M236.67527,218.40698v0v0v0v0v0c2.73305,1.44176 2.88852,4.03625 2.88927,4.03899c-0.67838,2.18579 0.81309,7.43393 0.81309,7.43393c0,0 0.65152,0.28141 0.39942,1.05634c-0.25589,0.77652 -1.92229,1.28462 -4.04977,1.09903c-2.12379,-0.18729 -3.80185,-0.16759 -4.01753,-0.91257c-0.21568,-0.74499 0.24129,-1.0821 0.24129,-1.0821c0,0 0.14699,-1.75636 0.21803,-3.63861c0.06884,-1.87697 0.04697,-7.0409 0.04697,-7.0409c0,0 1.66873,-1.89911 3.45924,-0.95411z" data-paper-data="{&quot;index&quot;:null}" fill="#be1e2d" stroke="#231f20" stroke-width="0.90024" stroke-linecap="round" stroke-linejoin="round"/><g data-paper-data="{&quot;index&quot;:null}" stroke-width="0.90024"><path d="M247.00415,212.51933v0v0v0v0v0c0.40265,2.8034 -0.28719,7.95971 -3.50533,9.75685c-3.18305,1.77389 -6.54975,1.51955 -10.03033,-0.87781c-2.88377,-1.98703 -2.78959,-7.63297 -2.47317,-10.7906v0c0,0 0.052,-7.30794 6.20641,-8.18113c6.1525,-0.87309 8.98337,4.74703 9.44325,8.2474c0.14679,0.61645 0.27182,1.24541 0.35918,1.8453z" fill="#be1e2d" stroke="#000000" stroke-linecap="butt" stroke-linejoin="miter"/><path d="M245.27279,220.54018v0v0v0v0v0l-0.01593,0.14303c-0.47467,0.64971 -1.05679,1.19995 -1.75713,1.59117c-2.94837,1.64342 -6.05298,1.54695 -9.261,-0.38201l-0.03266,-0.14415c0,0 -1.66232,-9.30161 4.26484,-9.6905c6.7304,-0.43845 6.85103,6.92797 6.80189,8.48246z" fill="#e6e7e8" stroke="#231f20" stroke-linecap="round" stroke-linejoin="round"/></g><g data-paper-data="{&quot;index&quot;:null}" stroke="#000000" stroke-linecap="butt" stroke-linejoin="miter"><g><g stroke-width="0.4"><path d="M215.44923,236.73408c-0.11266,-0.02498 -0.48103,-0.12908 -0.52408,-0.41824c-0.04209,-0.28826 0.26349,-0.45903 0.36346,-0.51534c0.09724,-0.02976 1.70845,-0.26372 3.3361,-1.38288c-0.15761,-0.13067 -0.30669,-0.25857 -0.4492,-0.3855c-0.67957,0.64638 -2.53922,1.32981 -3.99296,1.46746c-0.19687,-0.03779 -0.55872,-0.16179 -0.58663,-0.45103c-0.026,-0.2902 0.28908,-0.44591 0.39283,-0.49748c0.09823,-0.02411 1.74958,-0.17124 3.45226,-1.22838c-0.16918,-0.17791 -0.32612,-0.35491 -0.4688,-0.52633c-0.61657,0.57897 -2.59943,1.20057 -4.11314,1.26002c-0.19412,-0.04915 -0.54944,-0.19118 -0.56031,-0.48331c-0.01091,-0.29218 0.31278,-0.42807 0.41849,-0.47303c0.10202,-0.01942 1.84559,-0.07338 3.65518,-1.11308c-0.10578,-0.16212 -0.20396,-0.32619 -0.2946,-0.49028c-0.65679,0.4742 -2.4231,0.90557 -3.86805,0.91268c-0.09363,0.00045 -0.18632,-0.00094 -0.27616,-0.00431c-0.18944,-0.06337 -0.53259,-0.23378 -0.52175,-0.52607c0.01086,-0.29032 0.34321,-0.40264 0.45176,-0.44004l0.24394,-0.01068c0.435,-0.00215 1.95056,-0.07008 3.55719,-0.85818c-0.07102,-0.20487 -0.12203,-0.38902 -0.1578,-0.54771c-0.76754,0.45298 -2.38187,0.82406 -3.71996,0.83064c-0.09363,0.00045 -0.18536,-0.00099 -0.27616,-0.00431c-0.18944,-0.06337 -0.53355,-0.23379 -0.52271,-0.52607c0.01087,-0.29037 0.34321,-0.40264 0.4527,-0.4401l0.24108,-0.00871c0.44639,-0.0022 2.02998,-0.07619 3.68266,-0.92124l0.04337,-0.02198c0.09707,-0.25865 0.45833,-0.44765 0.61685,-0.52034l0.29819,-0.13477l0.0347,0.3251c0.33803,3.16065 3.93307,5.77477 3.96915,5.80202l0.32456,0.23291l-1.11329,0.53221l-0.10731,-0.09024c-0.64073,0.66228 -2.4554,1.44193 -3.89554,1.65519l-0.0435,0.00779z" fill="#871212"/><path d="M216.12239,228.62824c0,0 -0.67087,0.3059 -0.4636,0.53944c0,0 -0.00086,0.01039 -0.00171,0.0293c-0.08243,-0.02703 -0.1732,-0.02843 -0.18359,-0.02839c-0.00095,0.00001 -0.00095,0.00001 -0.00095,0.00001c-1.6838,0.86125 -3.28064,0.94479 -3.7894,0.94729c-0.10777,0.00054 -0.16642,-0.00299 -0.16642,-0.00299c-0.65899,0.22265 0.00248,0.50406 0.00248,0.50406c0.08793,0.00334 0.17686,0.0048 0.26666,0.00435c1.56693,-0.00771 3.49259,-0.53259 3.86482,-0.98834c0.01031,-0.01519 0.01313,-0.02183 0.02255,-0.03512c0.03061,0.26941 0.11195,0.65673 0.3006,1.13053c-0.03311,-0.00365 -0.06055,-0.00537 -0.07188,-0.00531c-0.00381,0.00002 -0.00566,0.00003 -0.00566,0.00003c-1.68195,0.85933 -3.27688,0.94286 -3.7875,0.94538c-0.10968,0.00054 -0.16928,-0.00297 -0.16928,-0.00297c-0.65898,0.22456 0.00249,0.50596 0.00249,0.50596c0.08793,0.00334 0.17686,0.0048 0.26666,0.00435c1.56693,-0.00771 3.49259,-0.53259 3.86482,-0.98834c0.02916,-0.0361 0.04316,-0.06546 0.06192,-0.09489c0.14623,0.3038 0.33506,0.63386 0.58269,0.98536c-0.01985,0.002 -0.03404,0.00207 -0.03404,0.00207c-1.95731,1.1955 -3.87397,1.23994 -3.87397,1.23994c-0.63986,0.27075 0.04029,0.50196 0.04029,0.50196c1.60732,-0.06373 3.69088,-0.77946 4.04679,-1.29279c0.03191,-0.0465 0.04878,-0.08349 0.06658,-0.11854c0.23602,0.30617 0.52033,0.62533 0.84823,0.9547c-1.86156,1.25085 -3.71811,1.3999 -3.71811,1.3999c-0.62453,0.3076 0.06772,0.50182 0.06772,0.50182c1.60027,-0.15162 3.64169,-0.98152 3.96816,-1.51367c0.01408,-0.02278 0.01777,-0.03791 0.02811,-0.05782c0.25836,0.24082 0.54326,0.48433 0.85944,0.73435c-1.7827,1.3289 -3.61132,1.57811 -3.61132,1.57811c-0.60736,0.3406 0.09512,0.49603 0.09512,0.49603c1.5894,-0.23857 3.583,-1.17797 3.88105,-1.72604c0.00745,-0.01518 0.00837,-0.02181 0.01492,-0.03508l0.17666,0.14853l0.6151,-0.2952c0,0 -3.71347,-2.66179 -4.06641,-5.96801M216.52269,227.92647l0.0694,0.64937c0.32617,3.05383 3.83677,5.60974 3.8719,5.63509l0.64913,0.46586l-0.72083,0.34492l-0.61511,0.29336l-0.27548,0.1328l-0.05604,-0.04796c-0.80232,0.68014 -2.58527,1.37638 -3.87611,1.56903l-0.08599,0.01366l-0.0852,-0.01943c-0.1496,-0.03235 -0.64202,-0.17367 -0.70658,-0.61307c-0.03034,-0.20322 0.02873,-0.50045 0.48234,-0.75609l0.04622,-0.02576c-0.35518,0.07929 -0.70008,0.13679 -1.01482,0.16763l-0.08698,0.00704l-0.08427,-0.0232c-0.14775,-0.04185 -0.63088,-0.20874 -0.67277,-0.65015c-0.01897,-0.20702 0.05526,-0.50148 0.52224,-0.73075l0.0811,-0.03917l0.08887,-0.00891c0.01604,-0.00199 1.45759,-0.13205 3.01449,-1.02297c-0.04377,-0.04893 -0.08654,-0.09697 -0.12839,-0.14495c-0.85096,0.60278 -2.74358,1.11612 -4.07196,1.169l-0.08794,0.00424l-0.08335,-0.03174c-0.14398,-0.04945 -0.61781,-0.24475 -0.63417,-0.6863c-0.00762,-0.20614 0.08361,-0.49691 0.56211,-0.69876l0.08303,-0.03542l0.0898,-0.00234c0.0161,-0.00008 1.56862,-0.05119 3.24093,-0.94269c-0.01527,-0.02355 -0.02959,-0.04995 -0.0448,-0.07355c-0.85728,0.47894 -2.51433,0.81242 -3.78342,0.81868c-0.09643,0.00048 -0.19197,-0.00096 -0.28559,-0.00426l-0.08799,-0.00338l-0.08056,-0.03456c-0.14116,-0.05983 -0.59907,-0.28834 -0.58234,-0.73194c0.00751,-0.20621 0.12053,-0.48761 0.61242,-0.65648l0.08592,-0.02785l0.08984,0.00528c0.00661,-0.00003 0.05673,0.00158 0.14278,0.00116c0.40572,-0.002 1.77754,-0.06356 3.26838,-0.74518c-0.00673,-0.02172 -0.01346,-0.04438 -0.01923,-0.06419c-0.89921,0.41767 -2.39762,0.70213 -3.56741,0.70789c-0.09643,0.00048 -0.19193,-0.00097 -0.28559,-0.00426l-0.08799,-0.00338l-0.08056,-0.03456c-0.14116,-0.05983 -0.59907,-0.28834 -0.58234,-0.73194c0.00751,-0.20621 0.12058,-0.4876 0.61338,-0.65458l0.08592,-0.02785l0.08984,0.00337c0.00566,-0.00003 0.05489,0.00349 0.13999,0.00307c0.43023,-0.00211 1.95242,-0.07205 3.54855,-0.87991c0.15369,-0.27975 0.48945,-0.46579 0.6989,-0.56137l0.5963,-0.27249zM215.36861,235.53441c0.19844,-0.03313 1.4853,-0.26834 2.86357,-1.14039c-0.0152,-0.01131 -0.02946,-0.02353 -0.04371,-0.03669c-0.59911,0.46825 -1.73834,0.91643 -2.81986,1.17707z" fill="#000000"/></g><path d="M243.66951,213.79699l-3.21573,0.48489c-2.95216,0.03534 -8.49312,3.63345 -10.50355,9.98598c-2.01042,6.35437 -10.19801,10.96601 -10.19801,10.96601c-4.82572,-3.64072 -4.09109,-6.56077 -4.09109,-6.56077c9.62891,-4.97339 7.95288,-9.25941 12.30535,-13.577c4.35248,-4.31568 10.12681,-3.911 10.12681,-3.911z" fill="#ba2915" stroke-width="0.4"/><g fill="#871212" stroke-width="0.4"><path d="M219.51095,226.37033c-0.14708,2.01028 4.08914,6.16553 4.08914,6.16553l-1.08407,0.89331c-4.54931,-2.24628 -4.34246,-6.13685 -4.34246,-6.13685z"/><path d="M222.6948,223.25671c0.58913,3.0705 4.86556,5.3966 4.86556,5.3966l-1.29349,1.38612c-4.38581,-2.46083 -4.67667,-5.45335 -4.67667,-5.45335z"/><path d="M224.51503,220.33318c0.82777,1.98275 5.62198,3.46088 5.62198,3.46088l-0.62239,1.69867c-4.57647,-1.04133 -5.5976,-4.06717 -5.5976,-4.06717z"/><path d="M226.99584,216.17514c0.52635,1.0717 5.48492,3.27529 5.48492,3.27529l-0.98792,1.40823c-4.5069,-0.93675 -5.33291,-3.52003 -5.33291,-3.52003z"/><path d="M230.61102,213.07825c0.32852,-0.1151 5.72003,2.43059 5.72003,2.43059l-1.57799,1.40642l-5.71506,-2.76823c0,0 1.24451,-0.95368 1.57303,-1.06877z"/><path d="M234.05591,211.883l2.2294,-0.67482l4.69669,2.99069l-2.21582,0.35515l-4.71027,-2.67103"/></g><path d="M219.73278,235.51485l-0.12337,-0.09207c-4.8941,-3.6943 -4.20994,-6.68219 -4.17747,-6.80812l0.02597,-0.10324l0.09434,-0.04865c6.14917,-3.17557 7.6376,-6.06811 9.0764,-8.86398c0.78776,-1.53113 1.60179,-3.11533 3.17147,-4.67016c3.70692,-3.67609 8.46682,-3.98322 9.83706,-3.98996c0.30356,-0.00149 0.47293,0.01091 0.47293,0.01091l6.36664,2.96549l-3.9878,0.60122c-3.03915,0.03763 -8.40532,3.79185 -10.31427,9.82235c-2.01601,6.36955 -9.96945,10.91097 -10.30708,11.10181l-0.13484,0.07444zM215.87557,228.82711c-0.06076,0.52326 -0.11173,3.04846 3.89415,6.12202c1.06265,-0.62936 8.13558,-5.00291 9.95508,-10.75202c2.05048,-6.47849 7.64325,-10.11466 10.72595,-10.1516l2.41246,-0.36553l-4.85013,-2.27223c-0.00849,0.00953 -0.1532,0.00265 -0.37355,0.0028c-1.32485,0.00652 -5.92784,0.30435 -9.50579,3.85218c-1.51608,1.50352 -2.2776,2.98436 -3.08415,4.55057c-1.46499,2.84705 -2.97965,5.78989 -9.17402,9.01387z" fill="#000000" stroke-width="0.4"/><path d="M215.82947,228.84647c6.19436,-3.22398 7.71524,-6.21628 9.18022,-9.06333c0.80655,-1.56621 1.59973,-3.06622 3.11581,-4.56974c3.57795,-3.54783 8.21782,-3.83733 9.54267,-3.84385c0.22036,-0.00015 0.36592,0.00735 0.3744,-0.00218l4.86152,2.2838l-2.49187,0.4262c-3.0827,0.03693 -8.62436,3.68965 -10.67484,10.16814c-1.81951,5.74912 -8.9367,10.11295 -9.99935,10.74231c-4.00588,-3.07354 -3.96933,-5.61808 -3.90857,-6.14136z" data-paper-data="{&quot;noHover&quot;:true,&quot;origItem&quot;:[&quot;Path&quot;,{&quot;applyMatrix&quot;:true,&quot;segments&quot;:[[[431.94081,453.0728],[0,0],[-0.17472,1.03898]],[[439.09485,465.69792],[-7.688,-6.5475],[2.1867,-1.14874]],[[460.07531,445.23676],[-4.22042,11.29778],[4.75612,-12.7311]],[[482.53429,426.05348],[-6.16114,-0.24052],[0,0]],[487.39021,425.56932],[[477.93421,420.53628],[0,0],[-0.01792,0.01816]],[[477.18779,420.50378],[0.44016,0.02218],[-2.64692,-0.12204]],[[457.80819,427.229],[7.5083,-6.72166],[-3.1815,2.84856]],[[451.18397,436.00386],[1.77068,-3.04612],[-3.21644,5.53734]],[[431.94083,453.07286],[12.7013,-5.80806],[0,0]]],&quot;closed&quot;:true,&quot;fillColor&quot;:[0,0,0,1],&quot;strokeColor&quot;:[0,0,0],&quot;strokeWidth&quot;:0.4}]}" fill="#000000" stroke-width="0.2"/></g><g stroke-width="0.4"><path d="M251.36534,205.72094c1.89624,0.99594 0.72614,3.42449 0.72614,3.42449c3.49353,1.40133 2.4396,3.4151 2.4396,3.4151c-1.95641,-1.11475 -3.66321,0.25444 -8.98639,1.40411c-5.32227,1.14962 -10.81257,-1.30668 -10.81257,-1.30668c9.34794,-9.79869 16.63227,-6.93702 16.63323,-6.93701z" fill="#ba2915"/><g fill="#871212"><path d="M241.92769,207.09322c0,0 2.78901,1.96177 1.74413,7.17282l-0.85108,0.00419c0,0 0.75939,-4.42093 -1.67002,-6.72588z"/><path d="M246.1614,205.53948c2.32016,2.9731 1.82369,7.58287 1.82369,7.58287l-1.06628,0.27948c0.42535,-5.61181 -1.99649,-7.53095 -1.99649,-7.53095z"/><path d="M238.73335,209.03433c0,0 1.78414,2.23717 1.32516,5.06132l-0.61039,-0.09254c0,0 -0.50315,-3.8492 -1.36273,-4.41996z"/><path d="M252.78386,212.06226l-0.99386,0.00489c0.17978,-1.89788 -1.45669,-3.33291 -1.45669,-3.33291c0.30329,-2.16616 -1.06928,-3.40485 -1.06928,-3.40485l1.34944,0.18915c0.61111,0.61731 0.70124,3.17492 0.76632,3.33537c1.45276,0.99712 1.40501,3.20835 1.40406,3.20836z"/></g><path d="M254.73963,212.67013l-0.11333,0.21711l-0.21339,-0.12092c-1.16168,-0.66098 -2.33661,-0.35355 -4.50752,0.2936c-1.11897,0.33364 -2.51179,0.74808 -4.31044,1.13707c-0.93331,0.20129 -1.93331,0.3055 -2.97543,0.31063c-4.23553,0.02084 -7.94684,-1.61673 -7.98384,-1.63358l-0.30609,-0.13656l0.23141,-0.24227c5.80771,-6.08654 10.83791,-7.38324 14.03707,-7.39897c1.77876,-0.00876 2.80961,0.38808 2.85412,0.40491c1.55302,0.81414 1.33835,2.54102 0.95163,3.51886c1.27176,0.54886 2.07151,1.24849 2.37821,2.08105c0.31819,0.86374 -0.02742,1.54061 -0.04242,1.56908zM254.33551,211.25361c-0.26255,-0.6966 -1.01366,-1.31512 -2.15368,-1.80506c-2.06855,-0.84373 -4.04764,0.15894 -4.04764,0.15894c1.89406,-1.18004 3.26536,-0.97025 3.83747,-0.78961c0.22214,-0.58741 0.65981,-2.166 -0.71592,-2.88832c-0.00376,0.00002 -0.99004,-0.3696 -2.65435,-0.36142c-3.06204,0.01507 -7.86752,1.25107 -13.45741,7.00364c0.96833,0.38201 4.04622,1.47894 7.47419,1.46207c1.00806,-0.00496 1.97783,-0.10618 2.87808,-0.30068c1.78162,-0.38418 3.16501,-0.79672 4.27547,-1.12747c2.15202,-0.64138 3.41202,-0.95682 4.62815,-0.38025c0.0519,-0.21495 0.08705,-0.56407 -0.06435,-0.97186z" fill="#000000"/></g><g stroke-width="0.4"><path d="M225.64989,204.78364c0,0 -1.18643,-0.88123 -0.60061,-1.94701c0.58578,-1.06583 1.64741,-1.52782 1.64795,-1.4181c0.00054,0.10968 10.26625,8.47086 21.747,-0.49002l-0.00596,-1.21137c0,0 4.32386,1.97878 2.9252,6.00476c0,0 -2.5914,-0.81469 -4.9777,1.79763c-2.38816,2.61232 -4.48852,8.17846 -22.89494,3.00833c0,0 -1.47944,-0.46559 -0.71853,-1.88781c0.76087,-1.42226 3.0606,-2.79347 2.87758,-3.85641z" fill="#ba2915"/><g fill="#871212"><path d="M228.68449,202.84993c-1.26614,0.9812 -0.43175,2.39563 -0.50636,2.98893c-0.07461,0.5933 -0.20901,1.9207 -0.97234,2.83985c-0.76338,0.91921 -0.84422,2.55276 -0.84422,2.55276l-1.89352,-0.44179c0.20475,-0.47383 0.1711,-1.35978 1.34701,-2.6072c1.17597,-1.24747 1.22724,-2.74376 1.22724,-2.74376c-0.84031,-2.61533 0.76917,-3.19824 0.76917,-3.19824z"/><path d="M232.14851,204.39985c0,0 -0.30329,0.43274 -0.29849,1.40865c0.00481,0.97587 0.32443,1.93699 -0.23811,2.92517c-0.56254,0.98813 -1.20606,3.38766 -1.20606,3.38766l-1.37911,-0.25707c0,0 0.05156,-0.47784 0.43095,-1.589c0.37944,-1.1111 1.37949,-1.96999 1.17457,-3.63996c-0.20491,-1.66997 0.37703,-2.94571 0.36118,-2.69979z"/><path d="M235.70998,204.9923c-0.27714,1.32244 -0.21868,1.8716 -0.01331,3.63424c0.20537,1.76265 -0.58194,3.77135 -0.58194,3.77135l-1.32053,-0.08051c0,0 1.04273,-2.18108 0.64078,-3.91251c-0.40191,-1.73144 0.25912,-3.4681 0.25875,-3.54282z"/><path d="M238.32948,204.98885l1.23503,-0.00607c1.16943,3.77502 -0.02908,4.85048 -0.02908,4.85048c0.30318,1.65624 -0.72794,2.54743 -0.72794,2.54743l-0.70831,0.0035c1.05706,-1.38776 0.40096,-2.69808 0.40096,-2.69808c0.72855,-2.2202 -0.17066,-4.69819 -0.17066,-4.69819z"/><path d="M243.55242,203.84348c1.72881,3.86685 0.577,5.40543 0.64034,5.5971c0.06338,0.19165 -0.17419,0.72994 -0.17419,0.72994l-1.02167,0.69446c0.41021,-0.80965 0.19144,-1.26152 0.19144,-1.26152c0.8304,-3.05763 -0.97556,-5.30512 -0.97556,-5.30512z"/><path d="M247.20924,201.9001c1.44328,0.99723 1.45792,3.9722 1.45792,3.9722l-1.04111,0.59619c0.39922,-2.85885 -1.28143,-4.0525 -1.28143,-4.0525z"/><path d="M248.43966,199.806c4.76134,2.67548 2.81771,5.87861 2.81771,5.87861l-0.01503,-0.36497c0.21578,-3.4187 -2.56114,-4.27694 -2.56114,-4.27694z"/></g><path d="M251.58704,205.79929l-0.07461,0.21597l-0.21785,-0.06793c-0.00376,-0.00094 -0.37126,-0.11262 -0.94052,-0.10982c-0.96739,0.00476 -2.41174,0.32868 -3.79348,1.841c-0.22951,0.24984 -0.45514,0.52801 -0.69386,0.82047c-1.49648,1.83912 -3.54754,4.35806 -9.73962,4.38854c-3.33059,0.01639 -7.60286,-0.70116 -12.69946,-2.13241c-0.03791,-0.01115 -0.75683,-0.24402 -1.01718,-0.88202c-0.16174,-0.3983 -0.1101,-0.85056 0.15417,-1.34456c0.33922,-0.63247 0.94338,-1.23213 1.52781,-1.8128c0.6484,-0.64342 1.31465,-1.30678 1.3293,-1.79291c-0.00856,-0.00658 -0.01805,-0.01034 -0.02656,-0.01692l0.00747,-0.02085c-0.46344,-0.39676 -1.06247,-1.24965 -0.56009,-2.16376c0.55297,-1.00794 1.54325,-1.55565 1.82505,-1.55703l0.23641,-0.00118l0.01679,0.14085c0.44152,0.36567 4.52169,3.5552 10.43669,3.5261c3.77501,-0.01858 7.42435,-1.37089 10.85072,-4.01857l-0.00721,-1.46482l0.33648,0.15437c0.04453,0.02155 4.50233,2.11699 3.04958,6.29827zM248.67661,200.10746l0.00459,0.93429l-0.09043,0.07141c-3.53835,2.76077 -7.31791,4.17044 -11.23192,4.18971c-5.52347,0.02718 -9.80425,-2.7935 -10.71728,-3.65711c-0.18785,0.06431 -0.93289,0.48026 -1.38467,1.30427c-0.47802,0.87051 0.49309,1.61278 0.53482,1.64377l0.07595,0.0564l0.00584,0.03684c0.39577,0.28932 1.24259,0.76555 2.91468,1.17439c0,0 -1.59508,0.05419 -2.93774,-0.67497c-0.15688,0.59848 -0.77325,1.21711 -1.42538,1.86526c-0.55997,0.55506 -1.13873,1.13003 -1.4442,1.69989c-0.19395,0.36314 -0.23874,0.67921 -0.13344,0.93968c0.17425,0.43224 0.71037,0.6093 0.71606,0.61117c5.04643,1.4173 9.27518,2.12844 12.56129,2.11228c4.47289,-0.02201 6.65473,-1.3302 8.10494,-2.7691c-1.22686,0.32093 -4.99911,1.09321 -8.00898,-0.59986c0,0 4.25696,1.44958 8.56588,0.00418c0.2539,-0.28782 0.4889,-0.57357 0.71453,-0.84991c0.24441,-0.30001 0.47562,-0.58484 0.71076,-0.84132c2.02232,-2.21337 4.27284,-2.05991 4.99603,-1.91783c0.92125,-3.04107 -1.58584,-4.79524 -2.53134,-5.33342z" fill="#000000"/></g></g><g data-paper-data="{&quot;index&quot;:null}" stroke="#000000" stroke-width="0.90024" stroke-linecap="round" stroke-linejoin="round"><path d="M280.70774,181.8764l-0.4644,1.57091c-2.61096,7.94698 -6.62072,12.63357 -6.62072,12.63357c0,0 0.08826,-1.4017 -0.09372,-3.63917l-0.13344,-0.03993c-0.32631,1.19702 -0.88096,2.74677 -1.83215,4.67317c-2.08566,4.23035 -8.60084,7.99176 -8.60084,7.99176c0,0 0.35068,-1.43785 0.50582,-3.77161l-0.10953,-0.35103c-0.69796,0.58934 -1.42493,1.13484 -2.16059,1.66722c-0.21642,0.1576 -0.4329,0.31152 -0.65329,0.46109c-0.67044,0.46017 -1.35439,0.90102 -2.05392,1.31556c-0.27648,0.16202 -0.56434,0.31384 -0.8448,0.46973c-0.51157,0.28533 -1.03107,0.55651 -1.55895,0.82005c-0.38787,0.19137 -0.77848,0.38206 -1.17691,0.56129c-0.41235,0.18806 -0.83716,0.35948 -1.25898,0.53715c-0.77598,0.31788 -1.56447,0.6175 -2.37199,0.89726c-0.26346,0.09116 -0.52702,0.18233 -0.79532,0.2683c-0.57639,0.18645 -1.15753,0.36942 -1.75017,0.53499l0.00188,0.00171c-2.97495,0.83616 -6.14421,1.43683 -9.54956,1.8012c-3.68422,0.39326 -7.03498,0.50741 -10.17262,0.43078v0c-2.4828,-0.06192 -4.81284,-0.25426 -7.02439,-0.55645c-0.10695,-0.01409 -0.21493,-0.02905 -0.32277,-0.0431c-0.68392,-0.09809 -1.3574,-0.20467 -2.01869,-0.32259c-0.23086,-0.04284 -0.45205,-0.09052 -0.68198,-0.13512c-0.87904,-0.16757 -1.7346,-0.35612 -2.57913,-0.55958c-0.53385,-0.12908 -1.06438,-0.26202 -1.58357,-0.40528c-0.30833,-0.0825 -0.61777,-0.16954 -0.92004,-0.25772c-0.82563,-0.24396 -1.64426,-0.49264 -2.43964,-0.76497l-0.12998,0.13649c0.39025,2.09925 1.16998,3.20315 1.77629,3.71826c1.23603,1.05179 3.53125,1.21146 3.53125,1.21146c0,0 -6.93567,1.29144 -10.9792,-3.92602c-0.42962,-0.55461 -0.86378,-1.12984 -1.27899,-1.74466l-0.18273,-0.35403c-0.83801,-0.2388 -1.69091,-0.56801 -2.53785,-1.003c-5.16516,-2.67334 -5.90529,-5.037 -5.90529,-5.037l0.14474,0.87207c0.58785,2.26341 1.12592,3.68453 1.12592,3.68453c0,0 -6.19743,-3.54142 -9.13876,-9.13471c-2.3717,-4.51515 -2.66952,-7.30155 -2.70507,-7.77043l-0.27806,-1.66897c-0.42669,-6.56554 -0.35077,-13.95486 0.22523,-21.24691l0.04703,-0.19582c0.55211,-5.6418 -0.64724,-14.89316 6.36172,-24.73078c13.13424,-18.42987 27.40027,-18.45312 35.32277,-31.99335c5.8274,-9.96111 3.71799,-20.98899 3.71799,-20.98899c0,0 4.08633,5.26507 5.76277,8.38951c1.62425,3.04563 3.38974,6.98609 3.38974,6.98609l0.04971,-0.03647c0.0298,-0.11857 0.05587,-0.23956 0.07745,-0.36036c0.3343,-1.88137 0.04458,-4.62771 0.04458,-4.62771c0,0 4.14604,10.56746 10.37552,17.33722c6.22573,6.76642 14.85638,8.39128 26.72447,31.99002c1.4768,2.93244 2.83772,5.39524 3.63096,8.15761l0.37466,1.59345c1.16629,4.97951 1.42227,18.87009 -0.28243,24.95326zM210.5738,161.4033c0,0 -6.65707,7.56976 -5.74143,17.64404c0.81015,8.91375 3.24951,11.56846 4.52799,12.20291c1.31433,0.64815 3.28385,0.14031 3.28385,0.14031c0,0 -5.49007,3.23219 -10.25715,-0.60266c-3.18851,-2.56327 -6.68306,-5.89774 -8.06075,-15.68521M269.41845,174.86973c0,0 0.97983,2.44484 -0.90132,7.73205c-2.11582,5.95655 -7.05523,7.99243 -7.05523,7.99243c0,0 3.76562,-9.19947 -0.11747,-17.51418c-1.69486,-3.63274 -6.53531,-6.17737 -11.546,-7.90242c-6.79029,-2.33969 -13.89213,-3.17293 -13.89213,-3.17293M273.4216,192.3024c-0.32207,1.21123 -0.88395,2.79825 -1.86353,4.77639c-2.08476,4.23031 -8.59994,7.99171 -8.59994,7.99171c0,0 1.01848,-4.19484 0.35042,-9.87721M196.07568,182.28169c-0.62796,1.3026 -1.09344,2.68968 -1.32353,4.14283c-1.44782,9.06072 2.25815,18.80186 2.25815,18.80186c0,0 -6.19555,-3.5398 -9.13877,-9.13481c-2.60924,-4.9658 -2.70824,-7.84056 -2.70824,-7.84056M280.23912,183.45382c-2.61276,7.94706 -6.62162,12.63361 -6.62162,12.63361c0,0 0.51237,-7.96406 -3.37806,-16.27936c-0.17552,-0.37598 -0.37131,-0.74022 -0.57733,-1.09321M235.9072,162.00464c0,0 1.20866,0.26273 4.47296,2.62887c3.2644,2.36615 4.54702,5.05049 4.54702,5.05049c0,0 -9.41495,-2.03105 -14.64986,-3.65139c-5.22959,-1.62238 -22.80797,-5.56803 -22.80797,-5.56803M208.12573,200.64101c2.70121,3.84872 5.42275,5.88609 5.42275,5.88609c0,0 -6.08596,2.18938 -11.90346,-0.81862c-5.16516,-2.67324 -5.90529,-5.037 -5.90529,-5.037M263.3527,200.94974c-6.42156,5.41807 -14.37814,8.2902 -24.16623,9.33708c-11.66953,1.24804 -20.30012,-0.07582 -27.74011,-2.61416M211.21497,207.15857c0.33556,2.52434 1.20957,3.80157 1.87579,4.36624c1.23693,1.05174 3.53215,1.21142 3.53215,1.21142c0,0 -6.93747,1.29152 -10.9801,-3.92597c-0.42962,-0.55461 -0.86378,-1.12984 -1.27899,-1.74466M236.59616,162.27458c0,0 25.62899,1.95969 26.25629,15.87136" fill="#be1e2d"/><path d="M268.11955,183.93634c-0.49949,10.0479 -11.5303,21.00502 -28.31773,22.74791c-14.82017,1.54687 -37.08126,-4.14493 -40.82246,-16.30584c-0.37234,-1.22237 -0.59433,-2.40908 -0.69192,-3.55454l0.3335,0.2211c1.2022,1.60027 2.50683,2.73455 3.76621,3.74475c4.76701,3.83306 10.25708,0.60086 10.25708,0.60086c0,0 -1.96944,0.50964 -3.28377,-0.13851c-1.27848,-0.63445 -3.71784,-3.28916 -4.52799,-12.20291c-0.91571,-10.07608 5.74143,-17.64404 5.74143,-17.64404l0.01381,-0.23316c5.29218,1.21224 15.8373,3.6655 19.68784,4.86076c5.23495,1.62123 14.64986,3.65139 14.64986,3.65139c0,0 -1.28262,-2.68434 -4.54702,-5.05049c-1.63396,-1.1834 -2.7513,-1.84043 -3.45972,-2.20229l0.65213,0.07239c0,0 19.78312,2.01869 23.77545,10.57624c3.88224,8.31566 0.11837,17.51415 0.11837,17.51415c0,0 4.20591,-1.73512 6.51344,-6.67928z" fill="#e6e7e8"/></g><path d="M227.05013,180.09698v0v0v0v0v0c0.74503,0.0051 1.34258,0.61303 1.33565,1.35856c-0.00462,0.74676 -0.60909,1.34338 -1.35838,1.34317c-0.04326,-0.00128 -4.38419,0.00074 -8.02177,2.22865c-0.11212,0.06785 -0.22795,0.11898 -0.34864,0.15185c-0.56453,0.15376 -1.18701,-0.07604 -1.50756,-0.59888c-0.18859,-0.30506 -0.23294,-0.65966 -0.16156,-0.98704c-0.30231,-0.14723 -0.60851,-0.36047 -0.87203,-0.69746c-0.30774,-0.39014 -0.24016,-0.95713 0.15193,-1.26457c0.38929,-0.30097 0.95565,-0.24256 1.26532,0.1509c0.24589,0.31371 0.7061,0.2975 0.71178,0.29782c0.13555,-0.00614 0.26365,0.0224 0.38086,0.07256c0.12128,-0.06195 0.2431,-0.12497 0.36398,-0.18122c-0.1886,-0.16503 -0.37429,-0.35709 -0.52478,-0.61469c-0.24987,-0.43108 -0.10258,-0.97978 0.32828,-1.23051c0.43314,-0.25602 0.98199,-0.10131 1.23051,0.32828c0.1989,0.3433 0.64844,0.40089 0.65238,0.40168c0.20606,0.01301 0.38048,0.10542 0.52427,0.23229c3.07177,-0.9924 5.70009,-0.9926 5.84977,-0.9914z" data-paper-data="{&quot;index&quot;:null}" fill="#231f20" stroke="none" stroke-width="0.90024" stroke-linecap="butt" stroke-linejoin="miter"/><path d="M259.57315,180.39887v0v0v0v0v0c-0.34547,0.74201 -0.92762,1.09307 -1.37861,1.27989c0.03666,0.26952 0.02021,0.55196 -0.1159,0.81137c-0.34637,0.65931 -1.14794,0.92229 -1.82341,0.57c-2.55842,-1.34039 -6.0244,-2.45033 -6.9108,-1.90236c-0.31985,0.19668 -0.6878,0.24542 -1.02788,0.16187c-0.33484,-0.08225 -0.63504,-0.29047 -0.82919,-0.60599c-0.39121,-0.63382 -0.1944,-1.46517 0.44152,-1.85781c1.71183,-1.05521 4.59419,-0.3092 6.83281,0.56319c0.13658,-0.06932 0.36448,-0.22371 0.44941,-0.49396c0.14245,-0.4739 0.61807,-0.78358 1.12049,-0.60261c0.47567,0.14279 0.74498,0.64276 0.60263,1.1204c-0.09222,0.29997 -0.23052,0.53856 -0.38157,0.74983c0.1087,0.05172 0.2128,0.09954 0.30934,0.14838c0.12527,-0.11762 0.26917,-0.21294 0.45119,-0.24422c0.0279,-0.00797 0.46245,-0.10522 0.62953,-0.46094c0.21231,-0.44932 0.74189,-0.65391 1.19672,-0.43375c0.44932,0.21231 0.64386,0.74499 0.43375,1.19672z" data-paper-data="{&quot;index&quot;:null}" fill="#231f20" stroke="none" stroke-width="0.90024" stroke-linecap="butt" stroke-linejoin="miter"/><g data-paper-data="{&quot;index&quot;:null}" stroke-linejoin="miter"><path d="M190.96725,171.23524c0.2149,12.97691 -1.27192,23.52429 -6.60993,23.61268c-5.33803,0.0884 -13.50571,-10.29909 -13.72061,-23.276c-0.2149,-12.97691 7.60438,-23.62915 12.94241,-23.71754c5.33803,-0.0884 7.17324,10.40396 7.38814,23.38087z" fill="url(#color-1)" stroke="#000000" stroke-width="0.90024" stroke-linecap="butt"/><path d="M176.73007,156.52327l2.05265,-2.88212" fill="none" stroke="#ea42a4" stroke-width="2" stroke-linecap="round"/><path d="M183.56206,161.09754l3.37281,-0.42912" fill="none" stroke="#ea42a4" stroke-width="2" stroke-linecap="round"/><path d="M179.25838,166.88704l-0.36802,1.86133" fill="none" stroke="#ea42a4" stroke-width="2" stroke-linecap="round"/><path d="M179.18575,178.99301l-1.69172,-2.2041" fill="none" stroke="#ea42a4" stroke-width="2" stroke-linecap="round"/><path d="M188.96849,182.99025l-1.58721,0.20194" fill="none" stroke="#ea42a4" stroke-width="2" stroke-linecap="round"/><path d="M181.9917,191.5392l-1.8361,-0.16962" fill="none" stroke="#ea42a4" stroke-width="2" stroke-linecap="round"/><path d="M174.79923,180.96241l1.32017,2.453" fill="none" stroke="#ea42a4" stroke-width="2" stroke-linecap="round"/><path d="M174.15752,171.16505l-1.44283,-1.83255" fill="none" stroke="#ea42a4" stroke-width="2" stroke-linecap="round"/><path d="M174.13272,159.87791l0.20194,1.58721" fill="none" stroke="#ea42a4" stroke-width="2" stroke-linecap="round"/><path d="M186.59254,151.63941l-2.4242,3.13102" fill="none" stroke="#ea42a4" stroke-width="2" stroke-linecap="round"/></g><g data-paper-data="{&quot;index&quot;:null}" stroke-linejoin="miter"><path d="M281.57866,142.94256c5.33875,-0.0019 13.33708,10.51654 13.34171,23.49525c0.00462,12.9787 -7.98619,23.50285 -13.32497,23.50475c-5.33875,0.0019 -7.00375,-10.51881 -7.00837,-23.49751c-0.00462,-12.9787 1.65287,-23.5006 6.99162,-23.50249z" fill="url(#color-2)" stroke="#000000" stroke-width="0.90025" stroke-linecap="butt"/><path d="M286.47224,148.64738l2.1011,2.847" fill="none" stroke="#ea42a4" stroke-width="2" stroke-linecap="round"/><path d="M281.8197,156.18356l-3.37959,-0.37201" fill="none" stroke="#ea42a4" stroke-width="2" stroke-linecap="round"/><path d="M286.22069,161.89943l0.39943,1.85482" fill="none" stroke="#ea42a4" stroke-width="2" stroke-linecap="round"/><path d="M288.15228,171.77004l-1.65421,2.2324" fill="none" stroke="#ea42a4" stroke-width="2" stroke-linecap="round"/><path d="M276.78433,178.16458l1.59039,0.17507" fill="none" stroke="#ea42a4" stroke-width="2" stroke-linecap="round"/><path d="M285.73766,186.39366l-1.83296,0.20065" fill="none" stroke="#ea42a4" stroke-width="2" stroke-linecap="round"/><path d="M289.63876,178.37233l1.27848,-2.47497" fill="none" stroke="#ea42a4" stroke-width="2" stroke-linecap="round"/><path d="M291.39316,166.09056l1.41162,-1.85669" fill="none" stroke="#ea42a4" stroke-width="2" stroke-linecap="round"/><path d="M291.052,156.39503l0.17507,-1.5904" fill="none" stroke="#ea42a4" stroke-width="2" stroke-linecap="round"/><path d="M278.62967,146.77803l2.47682,3.08956" fill="none" stroke="#ea42a4" stroke-width="2" stroke-linecap="round"/></g><path d="M228.56853,189.77853c0,0 1.16223,-0.6072 5.91835,-0.90557c4.75515,-0.29664 8.36944,-0.20319 8.36944,-0.20319c0,0 0.15116,3.81869 -6.29906,4.20484c-6.45564,0.38714 -7.98874,-3.09609 -7.98874,-3.09609z" fill="#58595b" stroke="#231f20" stroke-width="0.9025" stroke-linecap="round" stroke-linejoin="miter"/><g stroke-linejoin="miter"><g stroke-linecap="butt"><g stroke="#000000" stroke-width="1"><path d="M250.56208,214.03867h57.51479v23.22159h-57.51479z" fill="url(#color-3)"/><path d="M255.66418,209.78138h57.51479l-5.10211,4.2573h-57.5148z" fill="#9966ff"/><path d="M308.33571,214.01273l4.87021,-4.06377l-0.69575,23.60863l-4.63829,3.77351z" fill="url(#color-4)"/></g><path d="M305.49355,214.8591c0.45546,0 0.82468,0.15405 0.82468,0.34407c0,0.19003 -0.36922,0.34406 -0.82468,0.34406c-0.45546,0 -0.82469,-0.15404 -0.82469,-0.34406c0,-0.19003 0.36923,-0.34407 0.82469,-0.34407z" fill="#b9b9b9" stroke="none" stroke-width="0.5"/><path d="M305.12703,235.96167c0.45546,0 0.82468,0.15404 0.82468,0.34406c0,0.19003 -0.36922,0.34406 -0.82468,0.34406c-0.45546,0 -0.82469,-0.15404 -0.82469,-0.34406c0,-0.19003 0.36923,-0.34406 0.82469,-0.34406z" fill="#b9b9b9" stroke="none" stroke-width="0.5"/><path d="M252.53072,236.2675c0.45545,0 0.82468,0.15405 0.82468,0.34406c0,0.19003 -0.36923,0.34406 -0.82468,0.34406c-0.45545,0 -0.82468,-0.15404 -0.82468,-0.34406c0,-0.19003 0.36923,-0.34406 0.82468,-0.34406z" fill="#b9b9b9" stroke="none" stroke-width="0.5"/><path d="M251.98093,214.70618c0.45545,0 0.82468,0.15404 0.82468,0.34406c0,0.19003 -0.36923,0.34406 -0.82468,0.34406c-0.45545,0 -0.82468,-0.15404 -0.82468,-0.34406c0,-0.19003 0.36923,-0.34406 0.82468,-0.34406z" fill="#b9b9b9" stroke="none" stroke-width="0.5"/></g><g stroke="#000000" stroke-width="1" stroke-linecap="butt"><path d="M255.31619,225.59281c0,-5.01476 4.36054,-9.08002 9.73952,-9.08002c5.37898,0 9.73952,4.06527 9.73952,9.08002c0,5.01476 -4.36054,9.08002 -9.73952,9.08002c-5.37898,0 -9.73952,-4.06527 -9.73952,-9.08002z" fill="#8499b1"/><path d="M258.65545,225.98195c0,-2.93721 2.55402,-5.3183 5.70458,-5.3183c3.15055,0 5.70458,2.38109 5.70458,5.3183c0,2.93721 -2.55403,5.31829 -5.70458,5.31829c-3.15055,0 -5.70458,-2.38108 -5.70458,-5.31829z" fill="#92c5ff"/></g><g stroke="#000000" stroke-width="1" stroke-linecap="butt"><path d="M280.1077,225.6272c0,-5.01476 4.36054,-9.08002 9.73952,-9.08002c5.37898,0 9.73952,4.06527 9.73952,9.08002c0,5.01476 -4.36054,9.08002 -9.73952,9.08002c-5.37898,0 -9.73952,-4.06527 -9.73952,-9.08002z" fill="#8499b1"/><path d="M283.44696,226.01635c0,-2.93721 2.55403,-5.3183 5.70458,-5.3183c3.15055,0 5.70458,2.38109 5.70458,5.3183c0,2.93721 -2.55403,5.3183 -5.70458,5.3183c-3.15055,0 -5.70458,-2.38108 -5.70458,-5.3183z" fill="#92c5ff"/></g><path d="M300.32457,211.79852l4.13192,-17.88488" fill="none" stroke="#000000" stroke-width="2" stroke-linecap="round"/></g><path d="M213.23428,176.56101c0,0 -1.52294,1.49243 -2.44158,1.57575c-0.77169,0.06999 -2.70665,-1.10881 -2.70665,-1.10881" fill="none" stroke="#00a5ff" stroke-width="2" stroke-linecap="round" stroke-linejoin="miter"/></g></g></svg>