<svg version="1.1" xmlns="http://www.w3.org/2000/svg" xmlns:xlink="http://www.w3.org/1999/xlink" width="72.0184" height="82.74746" viewBox="0,0,72.0184,82.74746"><g transform="translate(-208.60562,-154.03178)"><g data-paper-data="{&quot;isPaintingLayer&quot;:true}" fill-rule="nonzero" stroke="none" stroke-linecap="butt" stroke-linejoin="miter" stroke-miterlimit="10" stroke-dasharray="" stroke-dashoffset="0" style="mix-blend-mode: normal"><path d="M208.82024,179.73621l5.19038,-16.65487l43.83665,-9.04957l16.44955,7.39535l1.90838,20.92015l-12.9901,8.04025l9.00184,6.17948l-4.22093,11.60745l4.60322,12.08656l-15.59257,3.31248l-2.29916,12.9706l-19.17467,0.23514l0.11383,-17.70435l-25.60322,2.15425l0.63699,-17.25645l4.04162,-9.16455z" fill="#ffffff" stroke-width="0"/><path d="M237.38365,183.39084c0.27327,-0.0391 1.70743,-0.1687 1.98786,1.36342c0.31028,1.69516 -1.41232,2.0342 -1.41232,2.0342c-1.88476,0.37095 -3.76771,0.73857 -5.64483,1.14899l-1.72671,0.37744c-0.13411,0.03219 -0.27392,0.04925 -0.41743,0.04925c-0.9665,0 -1.73497,-0.77398 -1.71642,-1.72874c0.01058,-0.54453 0.27487,-1.03025 0.67933,-1.34712l2.16869,-1.72573l0.2927,0.36188c1.23626,-0.99262 2.48464,-1.16532 5.40659,-1.68859z" fill="#9966ff" stroke-width="0.5"/><path d="M267.05748,176.7527c0.21424,1.71136 -1.52291,1.95584 -1.52291,1.95584l-0.33506,0.0357c-0.3578,0.45925 -0.88875,0.64865 -0.88875,0.64865c-0.72208,0.25758 -1.44415,0.51517 -2.16623,0.77275l-0.00532,0.00007l0.00055,0.00161l-2.71208,0.95032c-0.19605,0.07378 -0.40818,0.11422 -0.62908,0.11422c-0.9665,0 -1.73497,-0.77398 -1.71642,-1.72874c0.0126,-0.64877 0.38536,-1.21407 0.92623,-1.50977l2.33884,-1.33283l0.23247,0.40707l0.05658,-0.01983c0.85627,-0.62048 1.77297,-1.13826 2.75738,-1.48585l1.71242,-0.2761c0,0 1.73716,-0.24448 1.9514,1.46688z" fill="#9966ff" stroke-width="0.5"/><path d="M216.29669,208.1817c-1.02929,0.40695 0.69381,2.12392 1.44018,2.90977c1.29204,1.36038 2.7679,2.3703 4.69971,2.54557c4.27816,0.38815 8.07648,-0.52891 11.87579,-2.10357c-0.27978,0.04751 -0.54657,0.09081 -0.79547,0.13183c-5.08145,0.83746 -10.94238,2.14715 -14.19403,-2.89503c-0.01903,-0.02952 -0.03779,-0.05918 -0.05626,-0.089c-0.91569,-0.45846 -2.05547,-0.86113 -2.96992,-0.49958zM238.86045,213.24106c-6.24754,3.05158 -15.39584,6.39089 -21.7319,1.98817c-1.93282,-1.34306 -4.55889,-4.01756 -4.3215,-6.64482c0.30131,-3.33462 2.65823,-4.08326 5.12696,-3.76005c-0.0487,-0.20552 -0.09762,-0.40944 -0.14839,-0.61066l0.02267,-1.96434c0,0 0.0287,-1.47731 1.4155,-1.70061c0.30056,-0.53433 0.65739,-1.0437 1.06122,-1.52291c-0.61254,-0.4187 -1.3694,-0.72499 -1.68209,-1.37721c-2.03063,-4.23556 1.18686,-5.46816 4.86388,-5.60018c-0.05855,-0.03541 -0.11672,-0.07164 -0.1745,-0.10871c-0.37122,-0.23818 -0.70326,-0.51121 -1.00183,-0.81184c-1.55208,0.9096 -3.10758,1.63724 -4.83826,2.31725l-0.98317,0.38553c0,0 -1.6373,0.64204 -2.25606,-0.96305c-0.61876,-1.60509 1.01855,-2.24713 1.01855,-2.24713l0.98316,-0.38553c1.53722,-0.6015 2.89963,-1.23036 4.26692,-2.02953c-0.14791,-0.37059 -0.28022,-0.74808 -0.40155,-1.12663c-3.229,-0.27672 -6.31176,-0.95875 -9.53807,-1.6445l-0.21948,0.03837c0,0 -1.75,0 -1.71642,-1.72874c0.03358,-1.72874 1.78358,-1.72874 1.78358,-1.72874l0.95134,0.03837c2.62811,0.55863 5.14975,1.13031 7.74793,1.44675c-0.77508,-2.91648 -1.53284,-5.838 -2.30119,-8.75627c-0.00537,-0.02039 -0.01114,-0.04216 -0.01729,-0.06525c-1.35237,0.01078 -4.62198,0.09104 -5.01968,-0.89166c-1.39548,-3.44809 1.90123,-3.93837 3.70081,-4.38353c-0.25853,-1.26587 -0.39906,-2.33361 -0.22242,-2.64764c0.71742,-1.2755 2.76724,-1.00637 4.15086,-1.50956c0.57595,0.19014 1.14907,0.38567 1.71993,0.58563c0.17011,-0.87066 0.03845,-1.90429 0.65689,-2.53284c0.69941,-0.71085 1.89902,-0.61831 2.85669,-0.89976c2.4266,-0.71316 4.88333,-0.90508 7.3245,-1.55776c6.85133,-0.76075 13.76509,-2.51893 20.54551,-3.85169c2.38727,-0.46924 6.2393,-2.12572 8.50967,-0.78784c0.83489,0.49198 0.52703,1.85603 0.74704,2.79545c0.14963,0.6389 0.29725,1.28262 0.4382,1.92969c0.02391,-0.05981 0.04749,-0.11737 0.07079,-0.17246l1.00576,-2.46046c0.25511,-0.66795 0.91084,-1.14582 1.67028,-1.14582c0.71856,0 1.32766,0.42781 1.58526,1.03966l1.1063,2.47057l-0.02172,0.00982c0.03059,0.05551 0.06045,0.11148 0.08953,0.16795c0.94353,1.83192 0.87413,4.94674 1.29592,7.01007l0.17261,1.82735c0,0 0.08102,0.87072 -0.5011,1.44133c0.48711,-0.08065 1.11708,-0.18414 1.77166,-0.28783c1.59085,-1.99439 2.94208,-3.19775 5.25996,-4.71417l1.37225,-0.68613c0,0 1.58026,-0.77312 2.33285,0.77311c0.75259,1.54623 -0.82768,2.31935 -0.82768,2.31935l-0.99185,0.47046c-1.12197,0.72454 -1.92384,1.31123 -2.63921,1.9718c1.0548,0.83301 1.31186,2.05225 1.0965,3.41092c0.09176,-0.05284 0.18329,-0.10603 0.27458,-0.15958l1.50903,-1.10499c0,0 1.42015,-1.03724 2.44328,0.34575c1.02314,1.38299 -0.39701,2.42023 -0.39701,2.42023l-1.65807,1.20819c-1.29941,0.76075 -2.63416,1.4697 -4.01358,2.07279c0,0 -0.11055,0.04813 -0.28597,0.09083c-1.13201,1.75543 -2.42855,3.26668 -3.17808,3.99394c-3.65361,3.54504 -8.06259,5.59224 -12.72285,7.03801c0.96595,0.17635 1.93594,0.32221 2.93738,0.42021c0,0 0.08501,0.00841 0.21519,0.04013c2.97859,-1.7968 7.13049,-0.19482 8.86425,2.84276c0.14907,0 0.29814,0 0.44721,0h1.75623c0.9665,0 1.73497,0.77398 1.71642,1.72874c-0.01015,0.52228 -0.25369,0.99046 -0.63046,1.30744l-1.57973,1.34292l-1.07218,0.18151c-1.15315,3.96116 -6.94045,5.71203 -10.80158,3.27863c-0.24794,-0.15626 -0.46831,-0.34531 -0.67363,-0.55226c-0.37555,0.28224 -0.77773,0.37016 -0.77773,0.37016c-0.2382,0.05203 -0.4766,0.10305 -0.71518,0.15317c2.09703,1.9454 4.79771,2.93637 7.16834,4.56563c0.85878,0.59021 2.27878,0.86493 2.49331,1.8817c0.27125,1.28559 -0.47942,2.71072 -1.302,3.76454c-0.43697,0.5598 -1.21762,0.74836 -1.95216,0.87473c1.62907,0.52574 7.41006,2.22153 6.87676,4.57674c-0.32585,1.43904 -2.25677,2.026 -3.61427,2.65144c-3.09396,1.42549 -9.23359,0.62265 -12.37678,-0.00483c-0.95881,-0.4462 -2.00076,-0.93812 -2.85417,-1.56885c-0.12325,0.64135 -0.34945,1.26503 -0.72216,1.7892c-0.40442,0.56877 -1.81473,0.71115 -1.59959,1.3622c1.14963,3.47887 7.41202,8.62177 2.90814,12.50946c-0.87607,0.75621 -2.13382,0.93803 -3.2609,1.19755c-0.18542,0.04269 -3.74904,0.01325 -3.98395,0.012c-1.09348,-0.23661 -3.2117,-0.60997 -4.16851,-1.18226c-4.42605,-2.6473 -5.97764,-10.37671 -3.5142,-14.83201c0.58658,-1.06086 1.88009,-1.60476 2.54785,-2.61875c0.39142,-0.59437 -0.40595,-2.07982 -1.17849,-3.31452c-0.1644,0.1238 -0.29093,0.1857 -0.29093,0.1857zM222.46712,206.61714c0,0 0.19806,0.19948 0.35102,0.51786c1.78609,2.17385 4.55485,1.94855 8.43132,1.31236c1.67916,-0.27558 3.37616,-0.41636 5.0251,-0.90029c0.4248,-0.12467 0.85955,-0.25561 1.2352,-0.49069c0.34922,-0.21854 1.2897,-1.02382 0.97387,-0.75983c-0.66687,0.55743 -1.60002,0.5749 -2.54715,0.38025h-1.63388c-0.9665,0 -1.73497,-0.77398 -1.71642,-1.72874c0.01028,-0.52914 0.26013,-1.00276 0.64539,-1.31987l0.89288,-0.74379c-0.05991,-0.44558 -0.13766,-0.94339 -0.25983,-1.43879c-0.12857,-0.10744 -0.19997,-0.19162 -0.19997,-0.19162c-0.53566,-0.67875 -0.95459,-1.46454 -1.24827,-2.29461c-0.09575,-0.06509 -0.19702,-0.1239 -0.30416,-0.17568c-3.82136,-1.84675 -10.50496,1.12527 -10.4511,5.3933c0,0 -0.00479,0.24648 -0.10496,0.55329c0.24733,0.72332 0.53174,1.33125 0.85419,1.83916zM233.76523,194.15939c1.75,0 1.71642,1.72874 1.71642,1.72874l-0.02407,0.79181c0.00251,0.10107 0.00924,0.20294 0.02017,0.305c0.51538,0.5541 0.89958,1.18506 1.18145,1.86527c0.6635,1.1022 1.26747,2.24093 1.83148,3.39711c0,0 0.1336,0.27449 0.17002,0.64999c0.81599,0.01368 1.61543,0.24476 2.06538,0.70229c0.83872,0.85285 1.14877,2.27696 0.93535,3.46263c-0.13882,0.77124 -0.48863,1.4056 -0.97834,1.93071l0.3035,0.41197c1.29692,2.37886 3.7943,5.436 2.495,8.40971c-0.50735,1.16118 -2.01054,1.67042 -2.63052,2.77866c-2.56348,4.58232 0.55055,9.95284 5.06231,10.9728c1.2772,-0.00842 3.31366,0.36158 4.49325,-0.33257c0.54972,-0.32349 -0.04651,-1.80375 -0.07414,-1.89001c-0.86562,-2.70325 -3.82211,-4.61497 -4.00602,-7.57571c-0.0665,-1.07062 0.01493,-2.24963 0.5717,-3.18265c0.34377,-0.57608 1.30332,-0.43915 1.83627,-0.85257c0.62166,-0.48222 -1.13998,-3.21952 -1.26489,-3.43825c-1.63054,-2.85538 -2.8075,-5.45158 -4.03294,-8.48859c0,0 -0.42673,-1.06055 0.29781,-1.8127c0.14954,-1.54475 1.77307,-1.54475 1.77307,-1.54475l0.57397,0.04116c3.22233,0.7125 10.59392,2.33577 11.52203,6.21612c1.06629,4.45808 -6.90245,5.36184 -1.48781,7.70524c2.50797,0.49265 5.34559,0.49591 7.91876,0.30641c0.30168,-0.02222 0.64821,-0.10069 1.00435,-0.18608c-2.22097,-0.83009 -6.02284,-1.80027 -5.59114,-5.26782c0.14822,-1.19059 1.99816,-1.40709 3.08217,-1.9628c0.45362,-0.23254 1.98963,-0.19933 1.4957,-0.30357c-3.0878,-0.65168 -6.45227,-2.88456 -8.81852,-5.11876l-1.34526,-0.19693c-2.05347,-0.74388 -3.90244,-1.54638 -6.03056,-2.06795c0,0 -0.23871,-0.05924 -0.51241,-0.22224c-0.31353,0.22499 -0.752,0.36049 -1.35806,0.24029c-1.70943,-0.33903 -1.3333,-2.0342 -1.3333,-2.0342l0.20752,-0.93404c0.14382,-0.70681 0.28764,-1.41361 0.43146,-2.12041c0,0 0.34609,-1.70085 2.06185,-1.3916c0.20727,0.03736 0.38444,0.09502 0.53578,0.16754c1.21289,-1.33022 3.34345,-2.31664 5.42901,-2.5206c-0.33683,-0.1626 -0.76314,-0.4734 -0.89799,-1.03448c-1.20515,0.28003 -2.41364,0.54431 -3.61737,0.80722c-5.70111,1.0211 -11.19641,0.99803 -16.95233,0.99803c-0.03141,0 -0.06285,0 -0.09434,-0.00001c0.27073,0.21159 0.63895,0.59925 0.6794,1.16297c0.2609,-0.31561 0.68039,-0.57237 1.35482,-0.57237zM248.14896,208.66242c0.65241,1.41155 1.81954,2.82159 2.74134,4.31313c0.44106,-0.73898 1.18905,-1.3088 1.80357,-1.92959c0.48193,-0.48685 1.89636,-0.81136 1.53042,-1.37374c-1.17192,-1.80103 -4.35884,-2.75736 -6.90957,-3.35374c0.24346,0.79557 0.48624,1.59102 0.83424,2.34394zM221.65853,195.75273c0.3506,0.20652 0.67407,0.4566 1.01413,0.68006c0,0 0.13065,0.09821 0.28017,0.27448c0.44687,-0.28611 0.91372,-0.54557 1.3955,-0.77554c-0.97314,0.02597 -1.90431,0.00911 -2.68979,-0.179zM251.93297,181.5321c0.11249,0.75348 -0.16284,1.2295 -0.50522,1.52616c1.69301,0.59188 3.14842,1.985 3.74178,3.54341c0.09797,0.25732 0.22151,0.52815 0.34613,0.80532c4.01791,-1.15054 7.8348,-2.70815 11.34729,-5.39949c1.73222,-1.32726 3.4766,-3.06297 4.49539,-4.99878c0.32964,-0.62636 0.47204,-1.32985 0.70002,-1.99736c0.13912,-0.40734 0.73345,-1.26402 0.58875,-1.41957c-0.09685,0.12102 -0.97072,1.15357 -2.14333,0.55535c-0.69957,0.20198 -1.40196,0.38949 -2.11835,0.50721c0,0 -1.73171,0.2842 -1.98629,-1.42102c-0.12967,-0.86859 0.25602,-1.36848 0.66569,-1.64992c-1.27001,-0.15631 -1.39762,-1.52761 -1.39762,-1.52761l-0.15026,-1.64241c-0.27334,-1.32241 -0.71976,-2.79306 -0.91779,-4.23672c-0.41134,0.98594 -0.86452,1.97535 -1.43885,2.86684c0.00693,0.28095 -0.03732,1.67242 -1.57982,1.84011c-0.36072,0.3037 -0.75777,0.57234 -1.19817,0.79688c-2.40278,1.22506 -6.14252,1.08126 -8.81345,1.67825c-5.34108,1.19382 -12.67405,3.76218 -18.1209,3.09907c-1.72742,-0.2103 -3.16685,-1.39 -4.77848,-2.01984c-3.17391,-1.24039 -6.33837,-2.4913 -9.51382,-3.73757c-0.3091,-0.07281 -0.95269,-0.53217 -0.92729,-0.21844c0.06132,0.75727 0.81178,1.29074 1.07171,2.00205c0.78732,2.15453 1.16902,4.44006 1.75353,6.66009c0.41121,1.56181 0.69936,4.1768 1.29897,6.59864c0.22796,0.00513 0.457,0.00763 0.68725,0.00735c0,0 1.75,0 1.71642,1.72874c-0.02059,1.06016 -0.6867,1.47017 -1.19885,1.62874c0.45143,0.8396 1.00573,1.51971 1.69996,1.93412c1.95587,1.1675 4.42761,1.06965 6.63515,1.06965c5.12269,0 10.03001,0.04127 15.07689,-0.73345c-0.40073,-0.27772 -0.70744,-0.53313 -0.82835,-0.7293c-0.88834,-1.44123 -1.14005,-2.61194 -0.6949,-3.57301c-0.8686,-0.09968 -1.53018,-0.83046 -1.51296,-1.71715c0.01113,-0.57277 0.30297,-1.08049 0.74339,-1.39506l1.56702,-1.14452l0.06157,0.08323c0.11039,-0.10792 0.22618,-0.21076 0.34842,-0.30752c0.58517,-0.46323 1.47549,-0.20243 2.21323,-0.30365l1.07986,-0.17981c0,0 1.73171,-0.2842 1.98628,1.42101zM258.63949,161.54752c-0.12975,-0.67174 -0.38235,-1.33309 -0.36806,-2.01948c0.00547,-0.26238 0.68826,-0.65083 0.42417,-0.67432c-1.4195,-0.12621 -4.07291,1.22735 -5.58504,1.52533c-6.78504,1.33705 -13.72473,3.1186 -20.58277,3.8589c-2.31687,0.62247 -4.81313,1.19966 -7.17546,1.52648c-0.35463,0.04906 -0.77605,-0.34683 -1.061,-0.12871c-0.21486,0.16447 0.15969,0.50502 0.23952,0.75754l0.16879,0.68148c0,0 0.00436,0.02919 0.00806,0.08056c1.77159,0.67391 3.53319,1.37176 5.30285,2.06414c1.40235,0.54867 2.61803,1.66316 4.12288,1.83546c1.44352,0.16528 3.83145,-0.47985 5.20424,-0.76241c3.84226,-0.79084 7.70203,-1.45148 11.52884,-2.30699c2.4319,-0.54367 5.81656,-0.40983 8.02813,-1.40598c0.22844,-0.1029 0.44206,-0.24718 0.64226,-0.4239c-0.21943,-1.55353 -0.59577,-3.04634 -0.89743,-4.6081zM266.92218,195.30983c0.00025,-0.01297 0.0006,-0.02584 0.00105,-0.03862c-0.99246,-1.6107 -3.87428,-3.22801 -4.87769,-0.52373c-0.19508,0.52577 -0.02783,1.11316 -0.04175,1.66973c0,0 -0.07587,0.73108 -0.6101,1.20105c0.02285,0.15808 0.02856,0.33387 -0.00045,0.51589c0.47492,0.34386 1.03414,0.59622 1.61112,0.66991c0.44778,0.05718 0.90653,0.02894 1.358,-0.01243c0.6009,-0.05507 2.44139,-0.20559 3.03377,-0.83008c0.14396,-0.15177 0.20527,-0.33678 0.21455,-0.53947c-0.08454,-0.20414 -0.13393,-0.45144 -0.12951,-0.75101c-0.00418,-0.01326 -0.00841,-0.02651 -0.0127,-0.03976c-0.31118,-0.25215 -0.55914,-0.66043 -0.5463,-1.32148z" fill="#9966ff" stroke-width="0.5"/></g></g></svg>