<svg version="1.1" xmlns="http://www.w3.org/2000/svg" xmlns:xlink="http://www.w3.org/1999/xlink" width="94.23876" height="143.59355" viewBox="0,0,94.23876,143.59355"><g transform="translate(-175.50688,-84.70006)"><g data-paper-data="{&quot;isPaintingLayer&quot;:true}" fill-rule="nonzero" stroke-linejoin="miter" stroke-miterlimit="10" stroke-dasharray="" stroke-dashoffset="0" style="mix-blend-mode: normal"><g stroke="#0f002d" stroke-width="1.5"><path d="M265.56405,178.6486c-2.774,3.00803 -9.21143,0.916 -15.9781,0.25738c-9.76085,-0.95005 -20.06142,-4.26379 -22.64005,-6.44105c-4.42292,-3.73447 -6.91008,-8.04113 -6.06019,-10.96423c0.8499,-2.92311 15.08318,12.66324 26.29014,11.29004c1.86529,-0.22856 2.07488,0.15639 3.1744,-0.7019c0.36976,-0.28863 5.98335,4.01134 6.28185,3.66057c0.93865,-1.10305 -5.99087,-2.16043 -6.01992,-3.99558c-0.09927,-6.27213 2.81917,-15.65094 3.8356,-15.19853c0.52912,0.23551 4.5855,0.83291 8.05267,3.50493c4.96109,3.82335 10.07311,10.98745 3.06356,18.58838z" fill="#5e1284" stroke-linecap="round"/><g fill="#e9caf8"><path d="M244.11281,160.84544c-0.47235,1.37285 -1.71948,2.17184 -2.78551,1.78459c-1.06605,-0.38725 -1.54732,-1.81409 -1.07497,-3.18694c0.47235,-1.37285 1.71948,-2.17184 2.78551,-1.78459c1.06605,0.38725 1.54732,1.81409 1.07497,3.18694z" stroke-linecap="butt"/><path d="M257.79587,169.0023c0,0 -2.67839,1.6627 -4.88359,1.64918c-2.36751,-0.01452 -1.58658,-1.69188 -2.61854,-2.57997c-0.24861,-0.21395 -2.30223,0.23827 -3.00025,-0.69773c-1.1785,-1.58028 -1.09969,-2.42469 -1.60512,-3.03888c-3.58134,-0.88756 -3.59526,-3.89185 -2.65437,-5.34754c0.64074,-0.9913 2.92163,-0.75733 2.9858,-1.14013c-12.9893,3.49637 -8.26508,-8.21161 2.08885,-5.84323c2.5668,0.58713 4.7896,2.42065 5.87117,4.45205c0,0 3.49614,3.73852 4.23537,5.73654c0.70798,1.91354 -0.41933,6.80971 -0.41933,6.80971z" data-paper-data="{&quot;index&quot;:null}" stroke-linecap="round"/></g></g><g stroke="#0f002d" stroke-width="1.5"><path d="M257.69227,224.47575c0.03022,2.44217 -5.265,3.68494 -8.72661,2.7637c-4.78618,-1.27375 -12.78228,-6.54541 -12.8125,-8.98757c-0.03022,-2.44217 -0.68789,-4.83095 4.25351,-4.83095c1.46675,0 4.36565,1.03852 6.51109,2.45865c1.20492,0.79758 1.53572,1.84164 2.79405,2.58207c4.04943,2.38279 7.96424,4.70395 7.98045,6.0141z" fill="#e9caf8" stroke-linecap="butt"/><path d="M217.35495,223.56228c-5.31847,2.24355 -11.56416,2.73725 -13.0313,0.2334c-2.99281,-5.10759 8.21774,-17.83444 12.78249,-18.63207c5.33244,-0.94897 9.07072,0.28165 9.58783,7.37624c0,0 -4.89219,9.14659 -9.33901,11.02243z" fill="#e9caf8" stroke-linecap="butt"/><g stroke-linecap="round"><path d="M248.71298,217.32966c-1.91367,0.12271 -7.48748,0.89035 -10.22942,-0.24161c-2.13929,-0.88316 -2.87821,-4.59271 -2.7525,-5.75907c0.09836,-0.91259 -8.45883,-26.89083 -9.2622,-26.528c-0.60079,0.27134 -5.63304,7.01862 -6.89007,13.4295c3.40273,2.353 2.34211,5.41666 2.34211,5.41666c0,0 -0.77396,4.49104 -5.0538,6.7678c-6.1836,3.28951 -10.0812,2.04523 -10.0812,2.04523c0,0 -1.0243,-2.43692 -1.35981,-7.14924c-2.0012,-2.40878 -7.72328,-3.2605 -6.60946,-5.97412c1.43453,-3.49498 6.15272,-5.19527 8.59779,-9.25418c5.9053,-9.80302 8.09274,-12.48959 8.44135,-12.5736c3.17871,-0.76599 12.46349,-2.21873 14.27095,-2.55621c0.78197,-0.14601 19.28197,42.33224 18.58627,42.37685z" fill="#414ca9"/><path d="M227.72887,183.92126l-3.78069,1.11537" fill="none"/></g></g><g stroke="#0f002d"><path d="M224.19863,178.37831c-3.95635,0.4811 -7.39654,-0.87363 -8.15212,-1.27681c-1.07008,-0.57098 -4.21253,-5.02929 -5.20121,-10.06537c-4.64942,-6.66846 -5.79054,-14.64034 -0.58521,-15.02109c5.38216,-0.39368 11.17928,6.43435 15.06554,12.95032c3.45684,5.79597 5.31771,11.34504 5.31771,11.34504c0,0 -3.81463,1.74808 -6.4447,2.06791z" fill="#8f21c6" stroke-width="1.5" stroke-linecap="round"/><path d="M221.70555,159.88428c0.39612,0.92607 -3.59979,1.82939 -7.08317,1.83919c-3.19891,0.00899 -5.87533,-0.79549 -6.27497,-1.72979c-0.83481,-1.95168 5.1181,-2.70451 7.79844,-2.15354c2.68034,0.55098 4.72488,0.09247 5.55969,2.04415z" fill="#0f002d" stroke-width="1" stroke-linecap="butt"/><path d="M228.45895,172.2508c0.95863,4.08408 -12.71831,5.12192 -13.9924,2.66321c-0.87145,-1.68171 2.99797,-4.86983 7.06636,-5.17477c3.38335,-0.2536 6.56386,0.96856 6.92604,2.51156z" fill="#c168ee" stroke-width="1" stroke-linecap="round"/><path d="M234.2474,170.4289c-3.04332,-1.6335 -5.9149,-2.2499 -13.93552,-4.47631c-5.64464,-1.56687 -8.34235,-7.09592 -8.34235,-7.09592" fill="none" stroke-width="1" stroke-linecap="round"/><path d="M231.0316,164.0182c-0.99363,-2.54249 -5.33266,-2.12553 -8.32806,-3.08974c-3.80586,-1.22509 -6.29324,-3.45741 -6.29324,-3.45741" fill="none" stroke-width="1" stroke-linecap="round"/></g><g stroke="#0f002d" stroke-width="1.5" stroke-linecap="round"><g><path d="M198.36555,161.53468c0,0 9.03988,8.72476 -4.68159,14.27128c-3.13016,1.26527 -5.09302,-2.49423 -5.34175,-3.43396c-7.54172,-2.59743 -8.8459,-2.35817 -9.61047,-5.31041c-1.31494,-1.92603 -2.74093,-3.25216 -2.43227,-6.46548c12.87461,-4.81748 12.15607,-5.30251 21.35548,-7.1736c-0.27017,-4.30553 1.96405,-3.59814 2.91986,-3.74909c0.71862,-0.11348 9.20493,2.19826 8.52295,8.14511z" fill="#5e1284"/><path d="M193.30479,160.46363c2.41597,-0.15227 5.13645,1.32364 5.13645,1.32364" fill="none"/></g><path d="M196.02921,167.98894c2.21739,-3.68434 8.28924,-6.95606 13.12878,-5.65921c7.46156,1.8492 14.7367,8.90006 4.63886,6.30578c0.85417,3.00675 3.34499,4.01416 0.46685,7.61288c-2.48209,3.10352 -3.21623,-0.44965 -4.46597,-0.11561c-4.25421,3.17922 -10.58053,2.28208 -11.44287,-0.44941c-1.45598,-0.57634 -6.77531,-0.30101 -2.32564,-7.69445z" fill="#e9caf8"/></g><g><path d="M195.01627,94.47582c10.25235,-6.84071 15.72766,-2.87452 15.72766,-2.87452c0,0 7.69021,-11.58565 24.98916,-2.95677c25.35769,-1.86186 23.27776,8.21099 23.27776,8.21099c0,0 5.99228,10.04966 4.42126,16.77486c-1.72209,7.37196 -10.34038,6.67097 -11.89624,8.67753c-1.02397,1.32061 0.79664,6.00601 0.1066,9.19401c-0.58951,2.72354 -3.63222,3.99487 -3.63222,3.99487c0,0 -0.61016,4.25609 -1.09495,5.25555c-0.76664,1.58051 -5.09284,0.49591 -5.09284,0.49591l-1.70503,3.43636c0,0 -7.53907,5.02252 -21.7439,4.04237c-12.99291,-0.89654 -20.74197,-6.18694 -20.74197,-6.18694c0,0 -13.07285,-1.64555 -11.26078,-14.54435c-13.00007,-11.55014 -1.47026,-16.13695 -1.47026,-16.13695c0,0 2.00063,-11.96826 10.11574,-17.38293z" fill="#3d2747" stroke="#0f002d" stroke-width="1.5" stroke-linecap="round"/><g><g><path d="M223.51918,132.10999c-0.42222,3.42586 -7.73496,11.05571 -16.7656,8.71609c-7.59443,-2.31624 -6.76153,-6.92637 -6.62445,-10.37542c0.13708,-3.44906 2.60173,-10.42574 7.87291,-7.92277c3.24803,1.54229 16.1326,4.58832 15.51714,9.58209z" fill="#2f1e38" stroke="none" stroke-width="0" stroke-linecap="butt"/><path d="M223.29378,129.91181c0,0 3.31973,4.4302 -6.13535,9.76012c-7.16959,4.04157 -14.36248,-0.25412 -14.36248,-0.25412" fill="none" stroke="#0f002d" stroke-width="1" stroke-linecap="round"/></g><path d="M252.34754,121.25548c0,0 -1.36935,6.68456 -8.17813,9.24826c-10.50931,3.95706 -14.42126,-2.86473 -14.42126,-2.86473c0,0 -18.33024,6.4152 -21.71984,-4.79189c-5.67547,-0.96141 -2.27927,-4.96513 -2.27927,-4.96513" fill="#3d2747" stroke="#0f002d" stroke-width="1.5" stroke-linecap="round"/></g></g><g stroke="#0f002d" stroke-linecap="round"><path d="M196.11568,134.63825c0.11482,-0.80854 4.67525,6.53238 11.4308,8.18491c6.34084,1.55109 14.52179,-1.1326 17.80498,-1.28343c1.96925,-0.07341 4.54972,1.8494 6.87104,2.66112c3.45383,1.20775 7.12821,1.00398 6.73466,1.21461c-1.11908,0.599 -5.16058,8.51837 -11.16924,11.72736c-3.47247,1.8545 -15.5663,3.57508 -22.85906,1.35488c-7.92687,-2.41326 -8.13819,-8.74706 -8.81317,-23.85944z" fill="#e9caf8" stroke-width="1.5"/><g><path d="M197.06357,140.04281c0,0 5.26407,5.47475 11.04062,6.65944c3.58904,0.73606 7.13297,-0.18593 11.70745,0.03836c2.33789,0.11464 5.63855,0.94516 8.7621,1.23512c2.98821,0.27739 5.85377,0.01716 5.85377,0.01716c0,0 -2.85911,2.34529 -4.10739,3.6791c-1.60444,1.71435 -5.06858,6.08944 -5.06858,6.08944c0,0 -6.77658,1.82001 -13.21914,1.63374c-4.96772,-0.14362 -9.6899,-1.97128 -11.83738,-3.27959c-4.54775,-2.7706 -3.13144,-16.07275 -3.13144,-16.07275z" fill="#ffffff" stroke-width="1.5"/><path d="M226.24865,148.2792l-4.63406,9.38891l-2.38615,-10.27768l-7.58995,11.24028l-2.46235,-11.00471l-8.63909,7.73518l0.8574,-11.20579l-3.89883,3.13286" fill="none" stroke-width="1"/><path d="M232.2835,149.00368l-5.12076,5.65565l-0.56733,-6.71469z" fill="#0f002d" stroke-width="1"/></g></g></g></g></svg>