<svg version="1.1" xmlns="http://www.w3.org/2000/svg" xmlns:xlink="http://www.w3.org/1999/xlink" width="149.53677" height="122.9581" viewBox="0,0,149.53677,122.9581"><g transform="translate(-175.8131,-125.72203)"><g data-paper-data="{&quot;isPaintingLayer&quot;:true}" fill-rule="nonzero" stroke="none" stroke-linecap="butt" stroke-linejoin="miter" stroke-miterlimit="10" stroke-dasharray="" stroke-dashoffset="0" style="mix-blend-mode: normal"><path d="M300.45274,178.83772l-2.50761,-11.35213l10.73975,-14.75797l16.66499,13.07717l-0.98835,14.14425l-13.85816,2.4278z" fill="#e9caf8" stroke-width="0"/><path d="M244.54375,241.11868l-36.43086,-34.19658l22.94154,-4.08756l44.85853,11.40619l-2.55885,7.4699l-53.52173,-11.74503l32.1292,22.39471z" fill="#414ca9" stroke-width="0"/><path d="M246.74331,248.68014l-1.6414,-7.34452l7.29055,-9.6948l18.49694,2.3234z" fill="#e9caf8" stroke-width="0"/><path d="M184.27092,189.07942l-8.45782,-12.57069l10.18592,-3.57959l-3.01533,-7.89237l5.42818,-2.88485l7.85974,13.2769l5.66264,-6.81696l3.12001,3.74047l-8.06501,12.40178z" fill="#e9caf8" stroke-width="0"/><path d="M276.87503,226.15575l-4.53199,-4.64772l5.03898,-8.69581l15.35875,-4.97674z" fill="#e9caf8" stroke-width="0"/><path d="M222.58731,192.81029l7.17331,-0.08689l5.87993,4.2739l-4.43486,7.75227l-23.4071,3.07413l7.50586,-8.06122l-6.83636,-5.89249z" fill="#8f21c6" stroke-width="0"/><path d="M207.48108,188.49556l13.26394,-62.77353l75.82831,29.7953l-20.96564,44.30022z" fill="#3d2747" stroke-width="0"/><path d="M273.37655,188.38466c1.34274,0.68713 4.13125,1.23284 5.38008,0.10423c0.77612,-0.7014 1.11747,-1.93636 2.00842,-2.49408c2.00527,-1.25526 3.02743,-1.21438 4.13887,-3.78527c0.98133,-3.51837 -0.14353,-5.86931 -0.87036,-9.22965c-0.51114,-2.36313 0.97713,-2.43865 1.19257,-4.62199c0.4536,-4.59699 -2.07734,-8.3373 -5.5616,-11.11232c-1.46492,-1.17384 -3.90576,-2.11004 -4.57943,-3.99708c-0.59469,-1.66583 -0.01635,-3.6977 -0.80992,-5.39321c-2.41973,-5.16993 -9.4983,-4.78326 -13.87565,-3.11569c-0.33065,0.12592 -2.41577,0.97536 -2.82948,0.91725c-0.87768,-0.12329 -1.43248,-1.06799 -2.24122,-1.43058c-1.76765,-0.7925 -4.41732,-1.13595 -6.31979,-1.3203c-5.76171,-0.55831 -11.12877,0.67781 -16.36445,2.82577c-2.30647,0.93837 -4.54711,2.47806 -6.11583,4.43953c-0.60032,0.75062 -0.7706,1.85391 -1.52854,2.44496c-0.68502,0.53419 -2.78608,0.62325 -3.6789,1.06852c-3.3666,1.67902 -7.90377,5.38189 -4.98229,9.21117c0.61029,0.81949 3.05438,2.87534 2.73983,4.03276c-0.23007,0.84659 -2.05558,0.55777 -2.5938,0.68028c-1.92374,0.43789 -4.20996,1.84696 -4.78803,3.88038c-1.28449,4.51832 4.73882,8.0583 7.12796,10.92493c0.21672,0.46267 0.6769,0.87779 0.65016,1.388c-0.02731,0.52117 -1.02648,0.79994 -0.87394,1.29904c0.27909,0.91316 2.19833,2.24035 2.96825,2.82444c3.57281,2.71046 6.86165,3.24358 10.82909,2.92826c-8.09185,-4.10044 -11.71448,-15.41972 -8.12337,-23.65434c3.45399,-10.70433 15.56316,-14.58212 25.72341,-11.88788c6.28286,1.66606 12.56571,3.33212 18.84856,4.99817c4.26661,1.1314 7.6223,1.40921 10.18738,5.26545c0.94506,1.91191 1.20331,4.27329 1.30766,6.37991c0.1207,2.43677 0.46023,5.11513 -0.18344,7.51597c-1.00727,3.75702 -3.7643,6.65941 -6.86939,8.9032zM235.21617,192.03933c-6.91664,0.98809 -12.73672,-0.00964 -17.4524,-5.65201c-1.13852,-1.36226 0.41361,-2.60127 -0.16168,-3.10443c-2.81034,-3.37288 -8.87052,-6.89231 -7.35479,-12.17852c0.60489,-2.1096 2.48454,-3.59746 4.39525,-4.38568c0.50449,-0.20811 1.00053,-0.45354 1.53206,-0.57722c0.204,-0.04746 0.58156,-0.02372 0.92102,0.02228c-0.80508,-0.50779 -1.59352,-1.88291 -1.95844,-2.37028c-3.47864,-4.73845 1.1792,-9.28711 5.48582,-11.43624c0.60259,-0.3007 3.25379,-0.72564 3.56249,-1.00044c0.60291,-0.53671 0.66816,-1.48794 1.17004,-2.12015c1.72196,-2.16912 4.18438,-3.8447 6.71972,-4.89264c5.45075,-2.23621 11.07699,-3.50768 17.06695,-2.93211c2.05162,0.19714 4.87845,0.5858 6.78366,1.43832c0.7045,0.31524 1.13384,1.21089 1.89671,1.32805c0.72782,0.11177 1.35487,-0.57818 2.04296,-0.84039c5.08673,-1.9378 12.96218,-2.06162 15.73467,3.81436c0.85992,1.82249 0.36372,3.83725 0.91422,5.64127c0.41661,1.36525 3.04077,2.44484 4.0872,3.28082c3.85113,3.09392 6.66279,7.32432 6.1166,12.43736c-0.15353,1.43722 -1.16491,2.13349 -1.43701,3.08298c-0.24829,0.86638 0.93242,3.01108 1.11406,3.8869c0.53,2.55547 0.62924,4.67778 -0.07774,7.22967c-1.22931,2.80215 -2.43145,3.25668 -4.79341,4.57733c-0.68106,0.38081 -1.13918,1.78068 -1.78469,2.33351c-1.79517,1.53743 -5.08207,1.06161 -7.03371,0.10423l-0.00942,0.07918c0,0 -0.59402,0 -0.72476,-0.52866c-0.64085,0.41653 -1.28791,0.80734 -1.92964,1.17405c-4.52853,2.58503 -9.77077,4.39267 -14.85408,5.52421l-0.74329,0.0369c0,0 -0.40153,0.01291 -0.62629,-0.27405c-6.17302,0.71086 -12.81817,-1.76566 -18.47206,-3.7319c-0.07638,0.02562 -0.13002,0.03328 -0.13002,0.03328zM259.44722,193.30804c3.42951,-1.04522 6.8113,-2.42095 9.85048,-4.15954c3.89823,-2.22753 8.18884,-5.4231 9.41148,-10.06279c0.59364,-2.25277 0.24611,-4.78477 0.13432,-7.06803c-0.0897,-1.8322 -0.26351,-4.03114 -1.10613,-5.68905c-2.28546,-3.41235 -5.44134,-3.55225 -9.27467,-4.56876c-6.28285,-1.66605 -12.56571,-3.33211 -18.84856,-4.99817c-9.41845,-2.49754 -20.75763,0.978 -23.93541,10.96725c-3.57572,8.2055 0.57277,19.89473 9.4612,22.61853c7.00728,2.42005 15.97017,6.16257 23.25545,2.51993c0,0 0.67082,-0.33541 1.00623,0.33541c0.01802,0.03603 0.03314,0.07111 0.04561,0.10521z" fill="#000000" stroke-width="0.5"/><path d="M274.18327,181.10259c0.71151,-0.23717 0.94868,0.47434 0.94868,0.47434l0.2109,0.75441c-0.02325,3.09823 -2.19207,4.03365 -4.84445,4.89943c-1.69765,0.16869 -4.69196,-0.48246 -6.25979,0.08174c-0.6354,0.22866 -0.95247,1.01489 -1.57705,1.27165c-1.99399,0.81967 -4.088,1.00698 -6.21875,0.87505c-1.72271,-0.10666 -3.71487,-0.53156 -4.97853,-1.78226c-0.47395,-0.4691 -0.55291,-1.26247 -1.05798,-1.69788c-0.48128,-0.4149 -1.10692,0.64395 -1.71156,0.83934c-0.7894,0.25509 -1.62166,0.39508 -2.45023,0.43629c-4.23825,0.19265 -9.63259,0.91053 -13.76062,-0.23854c-4.27342,-1.18954 -3.0268,-4.56749 -0.64948,-6.89646c0.75337,-0.73804 1.6418,-1.33521 2.54499,-1.87974c0,0 0.64312,-0.38587 1.02899,0.25725c0.38587,0.64312 -0.25724,1.02899 -0.25724,1.02899c-0.80413,0.47993 -1.59878,1.00408 -2.26458,1.66261c-2.38009,2.35407 -2.35433,4.14833 1.37944,4.52787c3.92533,0.39902 7.97409,0.2185 11.9104,0.03957c1.10769,-0.04462 3.80748,-1.61838 4.67198,-1.21055c1.01621,0.47941 1.04641,1.41483 1.70065,2.09523c0.93278,0.97009 2.70882,1.24754 3.98699,1.32119c1.94394,0.11201 3.72092,-0.07494 5.55293,-0.76435c0.59947,-0.22559 0.87733,-1.00682 1.47885,-1.22689c1.78848,-0.65432 4.72588,-0.02906 6.62272,-0.20816c1.94128,-0.6392 3.67405,-1.16164 3.65234,-3.43136l-0.13393,-0.28007c0,0 -0.23717,-0.71152 0.47434,-0.94869z" fill="#000000" stroke-width="0.5"/><path d="M254.67562,199.12273c0.01708,0.02277 0.03265,0.04532 0.04679,0.06765c2.47178,-1.29759 4.92988,-2.48793 7.82035,-3.11038c0.71837,-0.1547 3.31769,-0.77518 3.91419,-0.18298c2.36563,2.34852 -3.73355,5.61441 -5.24847,6.42267c-2.2917,1.2221 -4.62923,1.76695 -7.19709,2.13313c-0.65956,0.09405 -2.70992,0.53629 -3.28728,0.05131c-0.97016,-0.81492 -0.774,-1.81856 -0.17164,-2.73334c0.01078,-0.41833 0.42911,-0.6275 0.42911,-0.6275c0.03208,-0.01596 0.06413,-0.03194 0.09615,-0.04793c0.62099,-0.69622 1.38439,-1.28596 1.87505,-1.61764l0.67284,-0.50499c0,0 0.6,-0.45 1.05,0.15z" fill="#000000" stroke-width="0.5"/><path d="M304.31438,175.5544c0.74246,-0.10607 0.84852,0.6364 0.84852,0.6364l0.14584,1.08934c2.41332,4.65231 6.10861,1.94497 8.42654,-0.96195c0.5091,-0.00254 1.05796,-0.20492 1.52729,-0.00764c0.77215,0.32457 1.09277,1.27642 1.71823,1.83353c1.23116,1.0966 2.26224,1.00537 3.81894,1.02348c0.3084,0.00359 1.59069,-0.07852 1.76114,-0.48159c1.05801,-2.50179 -2.28244,-5.43768 -1.7644,-7.84852c0.27056,-1.25913 2.85655,-0.98144 3.04696,-2.61409c-0.14353,-0.55187 -0.63138,-2.52948 -1.31015,-2.80739c-2.07085,-0.84785 -5.67665,2.11647 -7.16752,3.17808c-0.0146,0.01039 -2.24038,1.69055 -2.30804,1.70448c-2.0183,0.41551 -2.47055,-1.18825 -2.49076,-2.67406c-0.00194,-0.14316 -0.00528,-2.41049 0.01646,-2.70637c0.09382,-1.27672 0.25821,-2.58286 0.4743,-3.84509c0.12228,-0.70973 1.25727,-6.81251 -1.05004,-5.3582c-0.61054,0.38482 -1.19706,3.09998 -1.3726,3.66676c-1.06732,3.44605 -1.39571,6.95859 -1.39571,10.53601c0,0 0,0.51637 -0.42847,0.69219c0.15352,0.47051 0.32518,0.93611 0.53249,1.39232c0.19933,0.08696 0.41321,0.2736 0.41321,0.67412c0,0.75 -0.75,0.75 -0.75,0.75l-0.84323,-0.41459c-1.01612,-2.03635 -1.19727,-4.29228 -2.20854,-6.32042c-0.93844,-1.28191 -3.01897,-1.47432 -3.65429,0.3712c-0.27742,0.80589 -0.05532,2.5035 0.05649,3.37159c0.31233,2.42483 1.61225,4.42416 3.33007,6.02997l-0.00916,-0.06098c0,0 -0.10606,-0.74246 0.6364,-0.84853zM307.7006,157.49723c0.2819,-0.81445 0.67924,-2.56285 1.4774,-3.03208c4.53108,-2.66375 3.71365,4.78603 3.35811,6.86177c-0.20878,1.21106 -0.36485,2.46614 -0.456,3.69128c-0.04611,0.61982 -0.4349,3.4094 0.14372,3.74124c0.68255,0.39145 2.94582,-1.86008 3.54328,-2.24595c1.85078,-1.19532 5.04739,-3.53825 7.43702,-2.43918c1.29506,0.59564 1.86106,2.94807 2.13813,4.08917c-0.18331,0.97173 -0.72789,1.96213 -1.52853,2.54252c-0.47969,0.34774 -1.72711,0.12077 -1.63141,0.70545c0.38958,2.38018 3.04393,5.36844 1.68388,8.01354c-1.29874,2.52586 -6.35279,1.19697 -7.86819,-0.14776c-0.10748,-0.09537 -1.3309,-1.61264 -1.58206,-1.62239c-2.44277,3.90936 -7.11822,4.98367 -9.80685,1.30027c-0.2607,-0.00756 -0.46624,-0.16172 -0.46624,-0.16172c-3.34877,-2.52238 -6.8789,-7.72104 -5.25772,-12.22756c1.1116,-3.09002 4.65852,-2.87886 6.34571,-0.66329c0.22893,0.45683 0.41699,0.92399 0.58213,1.39686c0.19218,-3.33689 0.77327,-6.58271 1.88762,-9.80219z" fill="#000000" stroke-width="0.5"/><path d="M197.53698,180.59412c0.4803,0.4803 0.09061,0.96062 0.01282,1.04695c-0.40618,2.7166 -3.93878,5.40448 -6.54004,4.13308c-3.1071,-1.30473 -7.26722,4.52338 -9.92375,1.17569c-1.19642,-1.50769 -0.84801,-3.71677 0.12584,-5.2094c0.46971,-0.71992 0.69478,-0.83757 1.21351,-1.5614c0.08607,-0.1201 0.21759,-0.3371 0.34517,-0.52871c-0.61849,0.13026 -1.79096,-0.01727 -1.97078,-0.01727c-3.41226,-0.03925 -6.84742,-4.1586 -2.9401,-6.75608c0.16684,-0.11092 1.82357,-0.08874 2.12975,-0.08874c2.52954,0 5.54757,0.43886 7.98896,-0.07032c0.50825,-0.10601 -0.78681,-0.68159 -1.2178,-0.97108c-0.54256,-0.36443 -0.99446,-0.86248 -1.39065,-1.3823c-1.10788,-1.53018 -2.97321,-9.07422 0.88926,-7.86403c4.18983,1.31276 7.66243,7.33952 8.76841,11.21871c0.17768,0.62321 0.80197,2.07441 0.91976,3.19511c1.36245,-1.63367 4.31495,-6.30939 6.30562,-6.19139c1.65024,0.09781 2.22034,3.18285 2.22782,4.36704c0.02202,3.48492 -2.20865,4.92991 -5.06977,6.36047c0,0 -0.67082,0.33541 -1.00623,-0.33541c-0.33541,-0.67082 0.33541,-1.00623 0.33541,-1.00623c1.29634,-0.64817 3.56925,-1.58552 4.12724,-3.06921c0.1784,-0.47436 0.16141,-4.95028 -0.76229,-4.82397c-0.76799,0.10503 -1.05828,1.13376 -1.55796,1.72634c-1.186,1.40651 -2.41617,2.77923 -3.63847,4.15421c-0.23335,0.24818 -0.46669,0.49635 -0.70003,0.74452l-0.49336,0.65781c-0.13647,0.18614 -0.35674,0.30698 -0.60524,0.30698c-0.41422,0 -0.75,-0.33578 -0.75,-0.75v-0.86207h0.0369c-1.04155,-3.68376 -1.57915,-7.03008 -4.16662,-10.3681c-1.05331,-1.35885 -2.18402,-2.4177 -3.61802,-3.30426c-0.39565,-0.24461 -1.00395,-1.33384 -1.08623,-0.87602c-0.35529,1.9769 -0.15129,4.22021 1.04829,5.82553c0.6041,0.82249 1.24863,0.92834 1.96902,1.61418c3.95248,3.76289 -5.53879,3.2035 -7.05403,3.2035c-0.05489,0 -2.72419,-0.22157 -2.92197,-0.08874c-2.64255,1.77471 0.39436,3.96143 2.23231,3.93357c0.68965,0 1.38351,-0.07598 2.06896,0c4.10558,0.45507 -2.55716,5.27466 -0.63108,7.85565c0.74965,1.00456 2.32706,0.02754 3.05804,-0.31176c2.16282,-1.00389 3.95409,-2.1889 6.32856,-1.27117c1.61491,0.83005 4.63004,-1.39616 4.46,-3.10892l0.39208,-0.70275c0,0 0.53033,-0.53033 1.06066,0z" fill="#000000" stroke-width="0.5"/><path d="M238.87531,208.37394c-0.35294,0.66177 -1.01471,0.30882 -1.01471,0.30882l-1.26268,-0.67343c-1.50821,-0.80652 -2.95724,-1.75398 -4.37482,-2.76116c-1.39283,-0.20039 -2.80945,-0.33887 -4.26107,-0.4027c-0.18007,0.18251 -0.35489,0.35927 -0.52413,0.52897c0.12636,0 0.25273,0 0.37909,0h0.22414c0,0 0.75,0 0.75,0.75c0,0.75 -0.75,0.75 -0.75,0.75c-0.5,0 -1.22414,0 -1.72414,0c-2.12643,0 -4.25288,0 -6.37931,0c-0.28387,0 -2.42897,0.02783 -2.6109,-0.09735c-0.47666,-0.32796 -0.83606,-0.91058 -0.89717,-1.48594c-0.13633,-1.28367 1.11539,-1.55963 1.94906,-1.79142c2.89726,-0.80554 6.59034,-1.35467 9.62215,-1.39835c-0.70733,-0.53472 -1.41374,-1.06362 -2.12295,-1.57583c0,0 -0.60801,-0.43912 -0.16889,-1.04713c0.43912,-0.60801 1.04713,-0.16889 1.04713,-0.16889c0.89144,0.64381 1.77866,1.31631 2.66922,1.99402c0.97354,-0.91818 2.01259,-1.83483 3.09934,-2.65799c-0.76386,-0.75603 -1.48183,-1.55584 -2.14452,-2.40549c0,0 -0.46045,-0.59202 0.13156,-1.05247c0.59202,-0.46045 1.05247,0.13156 1.05247,0.13156c0.67335,0.86833 1.40901,1.68235 2.19554,2.4491c1.96488,-1.29944 4.05623,-2.20549 6.17796,-2.22141c0,0 0.75,0 0.75,0.75c0,0.75 -0.75,0.75 -0.75,0.75c-1.69451,-0.01621 -3.41858,0.68967 -5.07252,1.74047c4.93986,4.31324 11.49524,7.06808 17.25887,9.74882c1.37251,0.51412 2.73842,1.02566 4.12902,1.48906l0.30402,0.00747c0,0 0.74694,0.06767 0.67927,0.81461c-0.01429,0.15772 -0.05887,0.27912 -0.1203,0.37251c3.65498,1.26163 7.35122,2.43873 11.06052,3.1325c2.06706,0.38661 4.24817,0.25173 6.34343,0.51155c1.26585,0.18257 2.69495,0.75445 3.96981,0.68616c0.51018,-0.02732 1.4688,-1.05115 1.59452,-1.15456c1.52299,-1.25271 3.13549,-2.32522 4.79408,-3.38557c0.6848,-0.4378 3.83905,-2.84436 4.7302,-1.7924c0.7973,0.94117 -0.67796,2.92229 -1.11933,3.63425c-1.54046,2.48484 -3.73176,4.84238 -5.98445,6.69739c-1.61866,1.32863 -3.34629,2.72916 -5.33731,3.45412c-0.50275,0.18305 -1.06261,0.80396 -1.51767,0.52256c-0.74668,-0.46172 -0.95301,-1.20708 -0.87633,-2.03878c-2.3986,-0.21514 -4.88633,-1.18702 -7.2259,-1.69614c-5.48591,-1.19381 -11.00595,-2.52379 -16.55163,-3.38645c-9.94753,-1.54739 -19.40108,-3.48864 -29.15387,-5.92755c-0.24574,-0.05086 -0.47495,-0.11045 -0.69628,-0.17332c5.68818,5.12525 12.44036,9.19093 18.773,13.41269c4.05779,2.70553 8.23792,5.3414 12.43277,7.82407c1.29509,0.76648 3.51422,2.82388 5.01424,2.79979c2.32978,-0.03742 5.28418,-1.41176 7.585,-1.94505c0.79967,-0.18448 4.01908,-1.111 4.57851,-0.13174c1.06056,1.85646 -3.10012,4.39846 -4.17108,5.07915c-5.01477,3.18731 -11.19909,4.56591 -16.69616,6.72069c-3.65491,1.45891 -2.588,-1.41352 -1.77301,-3.63625c-0.26603,0.31671 -0.71917,0.22609 -0.71917,0.22609c-2.50187,-0.57719 -4.89286,-3.89344 -6.60989,-5.74286c-3.57217,-3.84761 -7.37766,-7.51058 -11.47607,-10.791c-6.01099,-5.01454 -11.98514,-10.90353 -18.67959,-14.92343c-3.88521,-1.95749 -0.1714,-4.40352 1.99682,-5.92497c1.67301,-1.17397 3.34475,-2.33193 5.03179,-3.45888c-1.01038,-0.56147 -2.02098,-1.12227 -3.02225,-1.70328c-1.08599,-0.66766 -5.13182,-2.62015 -3.88063,-4.52857c0.27373,-0.41753 3.48826,-0.43274 3.88142,-0.44647c4.79748,-0.16754 9.6596,-0.17287 14.45721,-0.17287c0,0 0.75,0 0.75,0.75c0,0.34601 -0.15963,0.53239 -0.3316,0.63278c-0.08751,0.10548 -0.17479,0.16367 -0.17479,0.16367l-0.58712,0.38613c-2.83994,1.4775 -5.5363,3.10909 -8.18662,4.82811c0.01902,0.01084 0.03804,0.02168 0.05705,0.03253l0.05174,0.02954c0,0 0.65138,0.37176 0.27961,1.02314c-0.37177,0.65138 -1.02314,0.27961 -1.02314,0.27961l-0.05174,-0.02953c-0.24091,-0.13753 -0.48224,-0.27414 -0.72385,-0.41012c-1.48098,0.9817 -2.95291,1.98723 -4.43306,3.0048c-1.36913,0.94124 -5.95653,2.94664 -3.36901,4.22948c6.77945,4.06468 12.81772,10.00829 18.90661,15.07657c4.39079,3.5141 8.43646,7.46212 12.24314,11.60221c1.18428,1.288 3.43877,4.36029 5.18815,4.62255c0,0 0.64238,0.12847 0.60634,0.74565c0.03083,-0.08641 0.06057,-0.17107 0.08889,-0.25361c1.01893,-2.97019 2.85347,-4.078 5.54641,-5.42742l0.61548,-0.21311c0,0 0.01248,-0.00416 0.03471,-0.00973c-0.626,-0.43695 -1.22322,-0.87009 -1.76833,-1.19275c-4.21777,-2.49656 -8.42048,-5.14696 -12.50081,-7.86684c-7.18222,-4.78814 -14.87191,-9.38376 -21.01043,-15.50271c-0.12796,-0.09608 -0.25257,-0.2468 -0.27211,-0.47476c-0.02696,-0.14122 -0.01323,-0.30614 0.09564,-0.47661c0.09017,-0.18106 0.22451,-0.27768 0.35949,-0.32722c0.20668,-0.10109 0.40104,-0.07089 0.54958,-0.00992l0.54516,0.13994c1.05513,0.15852 1.80343,0.50614 2.81709,0.70039c9.72315,2.43008 19.13834,4.36618 29.05536,5.90883c5.57533,0.86728 11.12474,2.20273 16.64001,3.40293c2.3129,0.50332 4.89349,1.574 7.26559,1.69379c0.41888,-1.14989 1.07834,-2.25401 1.37609,-2.85062l0.14695,-0.29388c-0.80433,-0.17615 -1.61273,-0.4219 -2.33429,-0.52389c-2.12352,-0.26773 -4.31604,-0.13608 -6.41519,-0.52294c-6.26868,-1.15527 -12.49985,-3.69966 -18.55748,-5.71834c-4.57193,-1.63122 -8.89196,-3.17062 -13.35837,-4.16644c0.43328,0.25901 0.87103,0.5074 1.31395,0.74295l1.26268,0.67343c0,0 0.66176,0.35294 0.30882,1.0147zM229.36761,203.42713c0.14325,0.01078 0.28618,0.02226 0.42882,0.0344c-0.08781,-0.06624 -0.17554,-0.13253 -0.26323,-0.19886c-0.05551,0.05498 -0.11071,0.10981 -0.16559,0.16446zM245.95354,207.32148c-4.38585,-2.09969 -8.77717,-4.47624 -12.34855,-7.66161c-1.04484,0.78024 -2.04941,1.66475 -2.98651,2.55067c0.71696,0.54286 1.43823,1.08235 2.16769,1.60641c4.5008,0.68375 8.76908,1.98715 13.16737,3.50453zM219.75574,204.79175c-0.62128,0.08172 -1.9214,-0.17767 -1.82723,0.44185c0.06121,0.4027 1.87962,0.14085 2.00917,0.14085c1.87276,0 3.74554,0 5.6183,0c0.03413,-0.27344 0.23068,-0.46999 0.23068,-0.46999l0.13449,-0.13449c-0.22105,-0.06264 -0.52657,-0.2358 -0.52657,-0.71449c0,-0.08224 0.00902,-0.15546 0.02508,-0.22065c-1.88759,0.27008 -3.76376,0.70699 -5.66392,0.95692zM214.93769,194.63307c-0.39388,-0.00007 -2.54702,0.29413 -3.63025,0.16745c0.17959,0.14785 0.35813,0.30238 0.47478,0.39084c0.76992,0.5838 1.57383,1.12408 2.39745,1.6293c1.21307,0.70378 2.43981,1.37784 3.66323,2.05947c2.3706,-1.54874 4.78007,-3.02881 7.27365,-4.39927c-3.39114,0.04566 -6.78248,0.15282 -10.17887,0.15221zM254.30885,234.66582c0.09161,0.58919 -0.5133,0.79083 -0.5133,0.79083l-0.419,0.13172c-0.96929,0.48367 -3.13238,1.06983 -3.63967,2.09687c-0.63879,1.29325 -1.01711,2.85789 -1.72794,4.14495c-0.12984,0.23511 -0.22396,0.65806 -0.33037,1.01234c0.15946,-0.06909 0.31929,-0.12914 0.43126,-0.17401c5.2228,-2.04733 10.83057,-3.46475 15.76902,-6.16242c0.46191,-0.25232 4.59404,-3.07995 4.39822,-3.41705c-0.10564,-0.18184 -0.33125,0.28043 -0.53416,0.33568c-0.8013,0.21819 -1.64482,0.24367 -2.45374,0.43167c-2.39181,0.55316 -5.53008,2.02467 -7.95204,1.98343c-0.99349,-0.01692 -2.03116,-0.53729 -3.02829,-1.17401zM278.10477,217.07077c0.014,0.23065 -0.08247,0.42357 -0.08247,0.42357l-0.17242,0.34483c-0.34602,0.69084 -1.10449,1.46218 -1.33862,2.14314c-0.18839,0.54793 0.07528,1.11518 -0.0188,1.68444c0.00284,-0.00259 0.00567,-0.00502 0.00851,-0.00728c0.58186,-0.46533 1.36817,-0.60273 2.00086,-0.99616c1.07765,-0.67012 2.07298,-1.46936 3.05088,-2.27327c1.83596,-1.50414 3.59743,-3.39031 5.02267,-5.29682c0.37935,-0.50745 0.70213,-1.37548 1.14355,-2.03475c-0.2598,0.14282 -0.53131,0.26786 -0.78496,0.42098c-0.26289,0.1587 -2.09918,1.34177 -2.39792,1.53373c-1.6932,1.08799 -3.90823,3.77686 -5.90911,4.03056c-0.17009,0.02157 -0.34453,0.0297 -0.52218,0.02705z" fill="#000000" stroke-width="0.5"/><path d="M225.46836,203.82353c-0.01606,0.06519 -0.02449,0.14132 -0.02449,0.22356c0,0.47869 0.30621,0.66178 0.52726,0.72442l-0.13458,0.13628c0,0 -0.19741,0.20304 -0.23154,0.47648c-1.87276,0 -3.84151,0.0074 -5.71427,0.0074c-0.12955,0 -1.95049,0.2519 -2.0117,-0.1508c-0.09417,-0.61952 1.20553,-0.36406 1.82681,-0.44578c1.90016,-0.24993 3.87492,-0.70149 5.76251,-0.97157z" data-paper-data="{&quot;noHover&quot;:false,&quot;origItem&quot;:[&quot;Path&quot;,{&quot;applyMatrix&quot;:true,&quot;segments&quot;:[[[219.75574,204.79175],[1.90016,-0.24993],[-0.62128,0.08172]],[[217.92851,205.2336],[-0.09417,-0.61952],[0.06121,0.4027]],[[219.93768,205.37445],[-0.12955,0],[1.87276,0]],[[225.55598,205.37445],[-1.87276,0],[0.03413,-0.27344]],[225.78666,204.90446],[[225.92115,204.76997],[0,0],[-0.22105,-0.06264]],[[225.39458,204.05548],[0,0.47869],[0,-0.08224]],[[225.41966,203.83483],[-0.01606,0.06519],[-1.88759,0.27008]]],&quot;closed&quot;:true,&quot;fillColor&quot;:[0,0,0],&quot;strokeWidth&quot;:0.5}]}" fill="#c168ee" stroke-width="0.25"/></g></g></svg>