<svg version="1.1" xmlns="http://www.w3.org/2000/svg" xmlns:xlink="http://www.w3.org/1999/xlink" width="71.41037" height="100.96581" viewBox="0,0,71.41037,100.96581"><defs><radialGradient cx="265.94045" cy="175.99021" r="7.3567" gradientUnits="userSpaceOnUse" id="color-1"><stop offset="0" stop-color="#54606d"/><stop offset="1" stop-color="#2c3136"/></radialGradient></defs><g transform="translate(-209.16943,-139.26902)"><g data-paper-data="{&quot;isPaintingLayer&quot;:true}" fill-rule="nonzero" stroke-linejoin="miter" stroke-miterlimit="10" stroke-dasharray="" stroke-dashoffset="0" style="mix-blend-mode: normal"><g stroke="none" stroke-width="0.5" stroke-linecap="butt"><path d="M240.67489,202.44364c5.58052,4.51903 13.75563,3.92375 14.70215,-4.25903c-0.16067,-3.03053 -3.58913,-3.30094 -6.18422,-2.8674c-0.85761,0.14328 -0.45457,1.12375 -0.8109,1.83213c-1.04845,2.08425 -3.35382,2.13511 -5.13176,1.17253c-1.22194,0.89408 -2.73046,1.57968 -4.22215,1.90938c0.82045,0.65004 1.23167,1.24531 1.64691,2.21239zM248.80131,193.86921c3.51482,-1.24206 7.87803,0.60211 8.07505,4.36031c-1.06006,9.58319 -10.93054,10.72083 -17.39642,5.12083c-0.4089,-0.85743 -0.63325,-1.38954 -1.39508,-1.95272l-0.47452,-0.9545c0,0 -0.00118,-0.00322 -0.00316,-0.00928c-0.86762,0.05153 -1.69435,-0.04137 -2.41513,-0.31033c-2.57176,-0.95964 -2.74301,-6.05894 -1.95186,-8.73179c0.0836,-2.06704 2.01938,-4.17438 4.37861,-3.40719c1.61051,0.52371 1.94956,2.58381 2.91892,3.78894c1.50545,1.8716 3.02453,2.23417 5.33004,2.85848c-0.12878,0.94457 -0.66584,1.86422 -1.45503,2.68305c2.48377,1.24542 2.4545,-2.76232 4.38854,-3.44577zM234.55532,194.0162c0.02675,0.21848 0.05676,0.44606 0.08413,0.68767c0.10239,0.90386 -0.26062,2.36163 0.00735,3.22022c0.29424,0.94279 1.84057,0.83312 2.52676,0.79642c2.1157,-0.11318 3.70958,-0.88819 5.32259,-1.87807c0.14104,-0.17361 0.29426,-0.25024 0.43843,-0.27346c0.55069,-0.34827 1.10924,-0.71667 1.69686,-1.08769c-2.41199,0.59094 -4.72758,-1.73431 -5.8328,-3.66415c-0.323,-0.56399 -0.96009,-2.23645 -1.62705,-2.40086c-0.91355,-0.22519 -1.81787,0.40385 -2.26191,1.1965c0.04861,0.17302 0.03165,0.32301 0.03165,0.32301l-0.08136,0.37729c-0.08844,0.18486 -0.1585,0.36206 -0.21321,0.53411c0.06802,0.39603 0.31233,0.74478 0.79147,0.95661c0,0 0.66068,0.35497 0.30571,1.01565c-0.35497,0.66068 -1.01565,0.30571 -1.01565,0.30571c-0.05961,-0.03519 -0.11725,-0.07153 -0.17298,-0.10897z" fill="#000000"/><path d="M234.77822,194.12799c0,0 0.56133,0.34465 0.91629,-0.31603c0.35497,-0.66068 -0.3029,-1.0262 -0.3029,-1.0262c-0.47915,-0.21183 -0.72119,-0.56558 -0.78921,-0.96162c0.0547,-0.17205 0.12735,-0.35364 0.21579,-0.53851l0.08315,-0.37984c0,0 0.01818,-0.15157 -0.03042,-0.32459c0.44403,-0.79263 1.36554,-1.43521 2.27909,-1.21001c0.66696,0.16441 1.31155,1.83398 1.63455,2.39797c1.10522,1.92983 3.48379,4.3135 5.89578,3.72256c-0.58761,0.37101 -1.153,0.75601 -1.70369,1.10428c-0.14415,0.02321 -0.301,0.10478 -0.44204,0.2784c-1.61301,0.98988 -3.26948,1.77672 -5.38517,1.8899c-0.6862,0.0367 -2.24899,0.13175 -2.54323,-0.81103c-0.26796,-0.8586 0.08574,-2.34243 -0.01664,-3.24628c-0.02737,-0.24159 -0.05733,-0.4761 -0.08408,-0.69458c0.05573,0.03743 0.21315,0.08041 0.27275,0.11559z" data-paper-data="{&quot;noHover&quot;:false,&quot;origItem&quot;:[&quot;Path&quot;,{&quot;applyMatrix&quot;:true,&quot;selected&quot;:true,&quot;segments&quot;:[[[235.10618,192.13453],[0.05114,0.04349],[0.0019,0.2201],7],[[235.11209,192.82729],[0.0001,-0.24314],[-0.00037,0.90964],7],[[234.75562,196.02773],[-0.16925,-0.88337],[0.18585,0.96999],7],[[237.17624,197.10449],[-0.68595,-0.04105],[2.11494,0.12655],7],[[242.67691,195.83971],[-1.71451,0.80133],[0.15975,-0.15657],7],[[243.14342,195.61752],[-0.14585,0.00678],[0.58651,-0.28383],7],[[244.95229,194.72849],[-0.62576,0.30226],[-2.46331,0.31469],7],[[239.57075,190.42889],[0.88014,2.04233],[-0.25722,-0.59687],7],[[238.22533,187.85961],[0.64412,0.2387],[-0.88226,-0.32695],7],[[235.84273,188.79292],[0.53073,-0.7374],[0.02875,0.1774],7],[[235.8377,189.11744],[0,0],[0,0],7],[[235.71424,189.48313],[0,0],[-0.10876,0.17369],7],[[235.44206,189.98973],[0.07379,-0.16477],[0.02285,0.40118],7],[[236.1204,191.02963],[-0.45215,-0.2646],[0,0],7],[[236.30942,192.07331],[0.42733,-0.61635],[-0.42733,0.61635],7],[[235.26574,192.26234],[0,0],[-0.05525,-0.0417],7]],&quot;closed&quot;:true}]}" fill="#0032ff"/><path d="M238.97802,200.23311c1.49169,-0.3297 3.004,-1.03635 4.22595,-1.93043c1.77794,0.96259 4.15013,0.88538 5.19858,-1.19887c0.35634,-0.70837 -0.04687,-1.68893 0.81074,-1.8322c2.5951,-0.43354 6.05199,-0.12786 6.21266,2.90266c-0.94651,8.18278 -9.21713,8.80656 -14.79765,4.28753c-0.41523,-0.96707 -0.82983,-1.57865 -1.65028,-2.22869z" data-paper-data="{&quot;noHover&quot;:false,&quot;origItem&quot;:[&quot;Path&quot;,{&quot;applyMatrix&quot;:true,&quot;selected&quot;:true,&quot;segments&quot;:[[[240.23457,201.19932],[-0.30333,-1.00779],[5.0343,5.12051],7],[[255.32372,198.62839],[-1.86482,8.02348],[0.1827,-3.02928],7],[[249.503,195.08075],[2.62746,-0.13761],[-0.86831,0.04548],7],[[248.49032,196.80954],[0.43408,-0.66358],[-1.27719,1.95247],7],[[243.25895,197.39485],[1.65782,1.15727],[-1.31512,0.75032],7],[[238.84813,198.81506],[1.51939,-0.15908],[0.74177,0.73856],7]],&quot;closed&quot;:true}]}" fill="#fff1e2"/></g><g stroke="#001026" stroke-width="1.2"><path d="M251.72652,199.69088l4.6696,-21.68653l12.37566,4.64059l-10.01101,18.88463c0,0 -2.4662,0.92023 -3.60209,0.62331c-1.20481,-0.31493 -3.43217,-2.462 -3.43217,-2.462z" fill="#505a63" stroke-linecap="butt"/><path d="M256.17719,176.4574c1.42653,-3.80433 5.66699,-5.73191 9.47131,-4.30538c3.80433,1.42653 5.73191,5.667 4.30538,9.47131c-1.42653,3.80433 -5.667,5.73192 -9.47132,4.30538c-3.80433,-1.42653 -5.7319,-5.667 -4.30537,-9.47133z" fill="url(#color-1)" stroke-linecap="butt"/><path d="M257.92304,183.83218c0,0 0.74516,-4.57204 1.4799,-6.60132c0.6867,-1.89657 2.79416,-5.20315 2.79416,-5.20315" fill="none" stroke-linecap="round"/><path d="M264.3846,186.10275c0,0 0.81054,-5.70004 1.39485,-7.85391c0.43174,-1.59141 1.79395,-3.90044 1.79395,-3.90044" fill="none" stroke-linecap="round"/><path d="M255.96942,176.8531c0,0 4.95472,-0.82937 7.46017,-0.4816c2.17971,0.30255 6.73184,2.4515 6.73184,2.4515" fill="none" stroke-linecap="round"/><path d="M256.03632,182.36291c0,0 5.50452,-0.56365 7.96252,-0.47267c1.91074,0.07073 5.56161,0.9733 5.56161,0.9733" fill="none" stroke-linecap="round"/></g><g stroke="none" stroke-width="0.5" stroke-linecap="butt"><path d="M257.58634,201.09325c-0.17528,0.49825 -0.57801,0.52217 -0.8009,0.49274c-0.1707,0.46276 -0.18509,1.03488 0.01351,1.69093c0.3804,1.25654 2.07362,1.20171 3.08224,1.123c-1.13946,-1.12019 -1.6227,-2.85936 -1.06681,-4.10216c-0.45221,0.00159 -0.86503,0.10946 -1.20589,0.30902c0.04235,0.12999 0.04671,0.29066 -0.02217,0.48645zM255.23132,195.77469l-0.0018,-0.02562c0,0 0.09296,-0.26425 0.32676,-0.41295c1.01523,-2.47 4.37703,-2.35619 5.95873,0.07118c3.18016,-1.35764 9.03972,2.12556 6.57009,5.85496c-0.47749,0.72106 -1.15542,1.06584 -1.89859,1.14024c0.1978,1.76459 -1.60935,3.34408 -4.06349,3.08452c-0.06791,-0.00718 -0.13512,-0.01624 -0.20158,-0.0271c-0.51144,0.23346 -1.09747,0.34877 -1.6456,0.41235c-1.73701,0.20146 -4.17738,-0.05728 -4.89212,-2.09823c-0.37567,-1.07273 -0.31433,-2.04415 0.04361,-2.83675c-1.68781,-1.21173 -1.31444,-3.11898 -0.19603,-5.16259zM262.65548,203.85096c0.08007,0.07005 0.13885,0.14154 0.18076,0.21261c1.18319,0.00027 2.19352,-0.87685 1.73042,-1.8692c-1.10077,-0.36394 -2.13988,-1.13021 -2.71908,-1.98698c-0.30752,0.26934 -0.73813,0.11786 -0.73813,0.11786l0.14201,-0.0069c-2.44711,-0.12457 -0.65487,2.85799 0.45343,3.45868c0.01225,0.00664 0.02453,0.01316 0.03684,0.01955c0.18713,-0.13149 0.5345,-0.27742 0.91374,0.05438zM257.43361,199.0982c-0.10775,-0.11657 -0.21286,-0.24196 -0.31472,-0.37638l0.19412,-1.3489c0,0 0.14633,-0.73558 0.88193,-0.58925c0.73558,0.14633 0.58925,0.88193 0.58925,0.88193l-0.21114,0.68822c0.24109,0.21554 0.46839,0.37289 0.67867,0.47889c0.17654,0.01185 0.35484,0.0342 0.53401,0.06752l0.1087,0.10499c0.78587,-0.00589 1.11837,-0.96913 0.66655,-2.1851c-0.04601,-0.07443 -0.07426,-0.14752 -0.08916,-0.21792c-0.95223,-2.10549 -3.8909,-2.36789 -3.71101,0.48014c0,0 0.03166,0.74933 -0.71766,0.781c-0.05735,0.00243 -0.11048,0.00027 -0.15973,-0.00576c-0.27604,0.76306 -0.25978,1.41581 0.43685,1.89778c0.32401,-0.27704 0.70081,-0.49922 1.11335,-0.65714zM264.81746,200.23608c0.27874,0.21833 0.51173,0.44555 0.70219,0.67772c0.56389,0.08516 1.06945,-0.03915 1.33467,-0.50899c1.30787,-2.31697 -2.94684,-4.69944 -4.74292,-3.69905c0.10366,0.34184 0.16197,0.664 0.18067,0.96446c0.10315,-0.01066 0.22158,0.00198 0.35675,0.04953c0.7075,0.24889 0.4586,0.95639 0.4586,0.95639l-0.21647,0.29325c0.06805,0.39891 0.47876,0.86896 1.01761,1.24979c0.43063,-0.35431 0.9089,0.01689 0.9089,0.01689z" fill="#000000"/><path d="M257.58478,200.56278c0.34086,-0.19956 0.78363,-0.31304 1.23585,-0.31463c-0.55589,1.24279 -0.05161,3.07348 1.08785,4.19367c-1.00863,0.07871 -2.77347,0.11472 -3.15387,-1.14182c-0.19861,-0.65605 -0.18565,-1.27136 -0.01495,-1.73411c0.22288,0.02943 0.64107,-0.01415 0.81635,-0.51239c0.06888,-0.19579 0.07112,-0.36073 0.02877,-0.49072z" data-paper-data="{&quot;noHover&quot;:false,&quot;origItem&quot;:[&quot;Path&quot;,{&quot;applyMatrix&quot;:true,&quot;selected&quot;:true,&quot;segments&quot;:[[[254.46427,197.47825],[0,-0.20755],[0,0.52818],7],[[253.87228,198.20884],[0.22002,-0.0462],[-0.00746,0.49318],7],[[254.44617,199.79946],[-0.40507,-0.55296],[0.77583,1.05909],7],[[257.72642,199.83596],[-0.92535,0.40897],[-1.44663,-0.67857],7],[[255.35874,196.32031],[-0.11196,1.35684],[-0.42606,0.15157],7],[[254.32375,197.012],[0.25532,-0.30137],[0.08309,0.10857],7]],&quot;closed&quot;:true}]}" fill="#fff1e2"/><path d="M263.89182,200.2663c-0.53885,-0.38082 -0.98172,-0.88758 -1.04977,-1.28649l0.21539,-0.30208c0,0 0.25416,-0.73147 -0.45334,-0.98036c-0.13517,-0.04755 -0.25463,-0.05801 -0.35778,-0.04733c-0.01871,-0.30046 -0.07001,-0.63404 -0.17367,-0.97589c1.79608,-1.00038 6.12965,1.44354 4.82177,3.76051c-0.26522,0.46984 -0.79003,0.60974 -1.35392,0.52458c-0.19046,-0.23217 -0.43378,-0.45595 -0.71253,-0.67429c0,0 -0.50553,-0.37297 -0.93616,-0.01866z" data-paper-data="{&quot;noHover&quot;:false,&quot;origItem&quot;:[&quot;Path&quot;,{&quot;applyMatrix&quot;:true,&quot;selected&quot;:true,&quot;segments&quot;:[[[261.00115,194.26996],[0,0],[0.3354,0.11345],7],[[261.88845,194.67626],[-0.25671,-0.15581],[0.56019,-0.1068],7],[[262.97857,193.75319],[-0.09427,0.53123],[0.46485,-2.61969],7],[[257.27688,191.83774],[1.36231,-1.53973],[0.21123,0.28807],7],[[257.76737,192.68758],[-0.11736,-0.27722],[0.09377,-0.04429],7],[[258.12034,192.61592],[-0.14329,0],[0.75,0],7],[[258.87034,193.36592],[0,0],[0,0],7],[[258.76346,193.71439],[0,0],[0.19657,0.35372],7],[[260.13815,194.55566],[-0.63469,-0.18042],[0.28865,-0.47714],7]],&quot;closed&quot;:true}]}" fill="#fff1e2"/><path d="M261.72634,203.84414c-0.0123,-0.0064 -0.02573,-0.01329 -0.03798,-0.01993c-1.10831,-0.60069 -2.90809,-3.67424 -0.46098,-3.54968l-0.14455,0.0084c0,0 0.44673,0.14492 0.75425,-0.12441c0.5792,0.85676 1.67879,1.67248 2.77957,2.03642c0.46311,0.99235 -0.58288,1.9168 -1.76607,1.91654c-0.04191,-0.07109 -0.10383,-0.14173 -0.1839,-0.21179c-0.37924,-0.33181 -0.75322,-0.18703 -0.94035,-0.05554z" data-paper-data="{&quot;noHover&quot;:false,&quot;origItem&quot;:[&quot;Path&quot;,{&quot;applyMatrix&quot;:true,&quot;selected&quot;:true,&quot;segments&quot;:[[[260.16131,198.39745],[-0.46786,-0.18715],[0.09878,0.03951],7],[[260.40238,198.53803],[-0.06313,-0.05315],[1.11623,-0.3924],7],[[261.41444,196.20051],[0.76618,0.78243],[-1.15917,0.02198],7],[[258.19006,195.22848],[0.8307,0.616],[-0.20071,0.35613],7],[[257.53286,195.58461],[0,0],[0,0],7],[[257.66454,195.53096],[0,0],[-2.34977,0.69458],7],[[259.24006,198.64316],[-1.24484,-0.19885],[0.01376,0.0022],7],[[259.2813,198.64938],[-0.01373,-0.00195],[0.13289,-0.18614],7]],&quot;closed&quot;:true}]}" fill="#fff1e2"/><path d="M256.28433,199.79011c-0.69663,-0.48196 -0.72688,-1.16671 -0.45084,-1.92977c0.04925,0.00604 0.1024,0.00849 0.15975,0.00607c0.74933,-0.03166 0.72083,-0.80185 0.72083,-0.80185c-0.1799,-2.84803 2.84943,-2.59179 3.80166,-0.48628c0.0149,0.0704 0.04535,0.14806 0.09136,0.22248c0.45182,1.21596 0.11077,2.23157 -0.6751,2.23746l-0.10857,-0.10514c-0.17918,-0.03332 -0.36546,-0.0483 -0.54201,-0.06015c-0.21027,-0.106 -0.45613,-0.25483 -0.69722,-0.47037l0.1505,-0.73004c0,0 0.20795,-0.694 -0.52763,-0.84034c-0.73558,-0.14633 -0.84623,0.55543 -0.84623,0.55543l-0.20228,1.30372c0.10186,0.13442 0.13815,0.33089 0.2459,0.44746c-0.41254,0.15793 -0.79608,0.37429 -1.12009,0.65132z" data-paper-data="{&quot;noHover&quot;:false,&quot;origItem&quot;:[&quot;Path&quot;,{&quot;applyMatrix&quot;:true,&quot;selected&quot;:true,&quot;segments&quot;:[[[253.65812,195.64694],[-0.33675,0.28588],[-0.14033,-0.07421],7],[[253.23633,195.39634],[0.1407,0.093],[0,0],7],[[252.97181,194.05946],[0,0],[0,0],7],[[253.60821,193.21093],[-0.74246,0.10607],[0.74246,-0.10607],7],[[254.45673,193.84733],[0,0],[0,0],7],[[254.48595,194.56662],[0,0],[0.29896,0.12332],7],[[255.28508,194.79314],[-0.23353,-0.03021],[0.17047,-0.04741],7],[[255.81124,194.67962],[-0.18008,0.02803],[0,0],7],[[255.94862,194.74259],[0,0],[0.73938,-0.26635],7],[[255.85226,192.46012],[0.82974,0.99711],[-0.0681,-0.05494],7],[[255.69583,192.28414],[0.03742,0.06146],[-1.59699,-1.67017],7],[[252.35447,193.96859],[-1.11484,-2.62693],[0,0],7],[[251.93665,194.94349],[0.69636,-0.27854],[-0.05329,0.02132],7],[[251.78406,194.99106],[0.04846,-0.01065],[-0.00717,0.81142],7],[[252.82594,196.63632],[-0.81709,-0.22347],[0.21371,-0.36886],7]],&quot;closed&quot;:true}]}" fill="#fff1e2"/></g><g stroke="none" stroke-width="0.5" stroke-linecap="butt"><path d="M225.91135,232.06939c-1.18188,1.31737 -3.16638,1.59422 -4.36664,2.69707c-1.76486,1.62163 -0.70296,3.97813 1.30643,3.96629c0.89884,-0.0053 1.79786,0 2.69672,0c3.76552,0 5.03951,-1.04182 6.36942,-4.80824c0.28503,-0.80722 0.90967,-1.9133 0.89735,-2.81329c-0.01455,-1.06246 -0.28371,-2.10571 -0.37473,-3.17369c-0.37083,0.13713 -0.7239,0.24991 -0.99913,0.35584c-1.20789,0.46487 -2.92699,1.2941 -4.47711,1.27777c-0.29069,0.82963 -0.46874,1.84779 -1.0523,2.49826zM233.78722,227.29263c-0.00313,1.28756 0.41648,2.54844 0.40451,3.81859c-0.05299,5.62175 -3.91795,9.12153 -8.64387,9.12153c-0.89887,0 -1.79787,0.00467 -2.69672,0c-3.30113,-0.01716 -4.80255,-4.0816 -2.1993,-6.60827c1.97958,-1.92135 3.79185,-1.65912 4.92889,-4.35327c-0.33367,-0.16051 -0.64497,-0.39275 -0.92425,-0.7139c-1.05976,-1.21862 -0.30071,-5.5106 -0.06449,-7.05442c0.00533,-3.55598 -0.69745,-7.18026 -1.33806,-10.66339c-0.18228,-0.99107 -1.0225,-3.53618 -0.44915,-4.50281c0.91143,-1.53661 4.87933,-1.82327 6.4053,-2.10792c3.70729,-0.67302 7.26721,-1.61629 10.81717,-2.90909l0.40451,-0.14687c0,0 0.65322,-0.23717 0.87096,0.47434c0.12877,0.42079 -0.04708,0.67568 -0.21229,0.81372c0.24762,0.21912 0.24762,0.5984 0.24762,0.5984c-0.00493,4.0294 0.51166,8.13657 0.91886,12.13043c0.11864,1.16366 0.70973,4.07172 0.2519,5.16657c-0.02322,0.05554 -0.04718,0.1095 -0.07186,0.16194c1.37064,-0.13239 2.78419,-0.57715 4.00173,-0.86192c0.68707,-0.1607 2.22126,-0.86391 2.91562,-0.56819c2.48629,1.05889 0.67655,6.94613 -0.54506,8.26971c-3.29245,0.95594 -6.70702,1.68375 -10.06907,2.29018c-1.02356,0.18462 -2.90124,0.46682 -3.7154,-0.51901c-0.44966,-0.54447 -0.6185,-1.42022 -0.69073,-2.35712c-0.14608,0.19332 -0.33419,0.36155 -0.54705,0.50971c0.00026,0.00719 0.00026,0.01106 0.00026,0.01106zM236.02669,228.09992c0.49097,0.66328 2.6765,0.06567 3.26906,-0.07289c2.93941,-0.68734 5.90008,-1.24634 8.83497,-1.97453c0.84482,-0.93377 0.86422,-2.51543 0.86422,-3.75342c0,-0.59459 0.48486,-1.79364 -0.06092,-1.78255c-2.72939,0.05548 -5.21571,1.69807 -7.9381,1.48928c-0.54218,0.27325 -1.15702,0.42246 -1.79513,0.57963c-0.80614,0.25102 -2.23599,0.85042 -3.63183,1.14411c0.08127,1.27356 -0.11308,3.59923 0.45773,4.37037zM239.05241,220.7401c0.21774,-0.71151 0.87096,-0.47434 0.87096,-0.47434c0.25774,0.09733 0.52423,0.16716 0.79723,0.21396c0.20414,-0.16016 0.37651,-0.36777 0.49663,-0.64387c0.35166,-0.8083 -0.23579,-3.56718 -0.32839,-4.47452c-0.41369,-4.05329 -0.92325,-8.21294 -0.9279,-12.30206c0,0 0,-0.05833 0.01493,-0.14245c-3.45961,1.22266 -6.92982,2.13625 -10.5394,2.79154c-1.04663,0.18375 -4.82361,0.48241 -5.46026,1.41693c-0.21079,0.30941 0.57518,3.13159 0.62954,3.42811c0.66473,3.62614 1.35419,7.36966 1.35865,11.07321c-0.11732,0.76676 -0.86335,5.38164 -0.33416,5.87004c0.27713,0.25577 0.58323,0.41606 0.9073,0.50384c0.10651,-0.01659 0.22789,-0.0019 0.36139,0.06823c1.37974,0.15578 2.99514,-0.77188 4.08226,-1.18934c0.38616,-0.14829 2.01385,-0.53662 2.30592,-1.08658c0.13114,-0.24695 -0.14536,-1.29958 -0.36355,-2.11568c-0.30413,-0.13289 -0.56528,-0.33226 -0.76648,-0.61499c-0.81704,-1.14814 -0.42112,-3.51776 -0.42112,-4.87536c0,-1.30313 0.02523,-2.5804 0.08256,-3.84601c-0.04227,-0.73616 -0.1045,-1.47235 -0.2093,-2.20779c-0.11922,-0.83662 -1.03383,-4.2517 -0.78108,-4.90706c0.3127,-0.81081 1.33723,-1.1949 2.19479,-1.13363c0.23308,-0.12576 0.46616,-0.25152 0.69924,-0.37728l0.07764,0.0171l-0.0053,-0.03463l0.79622,-0.14455c0.04085,-0.00823 0.08296,-0.01253 0.12599,-0.01253c0.38028,0 0.68855,0.33579 0.68855,0.75c0,0.3154 -0.17874,0.58533 -0.4319,0.69617l-0.92927,0.4338l-0.00721,-0.01833c-0.02322,0.0166 -0.04669,0.03285 -0.07042,0.04871c-0.05452,0.03645 -0.11778,0.06085 -0.18734,0.07604c-0.01131,2.65563 -0.38063,5.30213 -0.56435,7.97776c0.06569,2.32655 0.12348,4.62549 0.82183,6.9075c0.00186,0.01198 0.0038,0.02411 0.00583,0.03638c1.43877,0.02642 4.19745,-1.12336 4.81969,-1.3169c0.04919,-0.01168 0.09932,-0.02305 0.1502,-0.03433c-0.01128,-0.10286 -0.00144,-0.22134 0.0401,-0.35708zM232.28893,208.88354c0.06342,-0.48651 0.13308,-0.97433 0.20939,-1.46429c-0.22343,-0.00514 -0.37432,0.0557 -0.36515,0.28552c0.01439,0.36041 0.07329,0.75834 0.15576,1.17877z" fill="#000000"/><path d="M235.52328,223.72465c1.39584,-0.2937 2.83101,-0.91199 3.63715,-1.16301c0.6381,-0.15717 1.26929,-0.32517 1.81146,-0.59842c2.72239,0.20879 5.27291,-1.41538 8.0023,-1.47086c0.54578,-0.01109 0.06471,1.19777 0.06471,1.79236c0,1.23798 -0.01887,2.84633 -0.86369,3.7801c-2.93489,0.72819 -5.97153,1.31126 -8.91094,1.9986c-0.59256,0.13856 -2.78724,0.72306 -3.27821,0.05977c-0.57081,-0.77114 -0.38151,-3.12499 -0.46278,-4.39854z" data-paper-data="{&quot;noHover&quot;:false,&quot;origItem&quot;:[&quot;Path&quot;,{&quot;applyMatrix&quot;:true,&quot;segments&quot;:[[[236.02669,228.09992],[-0.57081,-0.77114],[0.49097,0.66328]],[[239.29575,228.02703],[-0.59256,0.13856],[2.93941,-0.68734]],[[248.13072,226.0525],[-2.93489,0.72819],[0.84482,-0.93377]],[[248.99494,222.29909],[0,1.23798],[0,-0.59459]],[[248.93402,220.51654],[0.54578,-0.01109],[-2.72939,0.05548]],[[240.99592,222.00581],[2.72239,0.20879],[-0.54218,0.27325]],[[239.20079,222.58544],[0.6381,-0.15717],[-0.80614,0.25102]],[[235.56896,223.72955],[1.39584,-0.2937],[0.08127,1.27356]]],&quot;closed&quot;:true}]}" fill="#424347"/><path d="M226.96672,229.52124c1.55012,0.01633 3.29888,-0.79806 4.50678,-1.26293c0.27523,-0.10593 0.63023,-0.21644 1.00106,-0.35357c0.09102,1.06798 0.36904,2.1281 0.38359,3.19056c0.01233,0.89998 -0.61018,2.02717 -0.89521,2.83439c-1.32991,3.76642 -2.66023,4.85168 -6.42575,4.85168c-0.89885,0 -1.81551,-0.01457 -2.71435,-0.00927c-2.00939,0.01185 -3.08748,-2.37174 -1.32262,-3.99337c1.20026,-1.10285 3.20277,-1.43282 4.38465,-2.75018c0.58357,-0.65047 0.79117,-1.67768 1.08186,-2.50731z" data-paper-data="{&quot;noHover&quot;:false,&quot;origItem&quot;:[&quot;Path&quot;,{&quot;applyMatrix&quot;:true,&quot;segments&quot;:[[[225.91135,232.06939],[0.58357,-0.65047],[-1.18188,1.31737]],[[221.54471,234.76646],[1.20026,-1.10285],[-1.76486,1.62163]],[[222.85114,238.73274],[-2.00939,0.01185],[0.89884,-0.0053]],[[225.54786,238.73274],[-0.89885,0],[3.76552,0]],[[231.91728,233.92451],[-1.32991,3.76642],[0.28503,-0.80722]],[[232.81463,231.11122],[0.01233,0.89998],[-0.01455,-1.06246]],[[232.43989,227.93753],[0.09102,1.06798],[-0.37083,0.13713]],[[231.44076,228.29337],[0.27523,-0.10593],[-1.20789,0.46487]],[[226.96365,229.57113],[1.55012,0.01633],[-0.29069,0.82963]]],&quot;closed&quot;:true}]}" fill="#424347"/><path d="M239.04806,221.12854c-0.05087,0.01128 -0.10143,0.02323 -0.15062,0.0349c-0.62224,0.19355 -3.40635,1.36022 -4.84512,1.33379c-0.00202,-0.01228 -0.02377,-0.12205 -0.02563,-0.13403c-0.69835,-2.28201 -0.79213,-4.53238 -0.85782,-6.85892c0.18372,-2.67564 0.59185,-5.27249 0.60316,-7.92812c0.06956,-0.01519 0.14805,-0.13819 0.20257,-0.17465c0.02373,-0.01586 0.04756,-0.03204 0.07078,-0.04864l0.00727,0.01834l0.93386,-0.43258c0.25317,-0.11084 0.40445,-0.28535 0.40445,-0.60075c0,-0.41421 -0.30417,-0.74876 -0.68445,-0.74876c-0.04303,0 -0.08457,0.00444 -0.12542,0.01267l-0.79247,0.14524l0.00525,0.03462l-0.07724,-0.01704c-0.23308,0.12576 -0.46271,0.25183 -0.69579,0.37759c-0.85756,-0.06127 -1.86941,0.32151 -2.18211,1.13232c-0.25275,0.65536 0.66569,4.06926 0.78491,4.90588c0.1048,0.73544 0.1805,1.46387 0.22276,2.20003c-0.05733,1.26561 -0.09475,2.4562 -0.09475,3.75933c0,1.3576 -0.40848,3.72432 0.40856,4.87246c0.2012,0.28273 0.45743,0.48202 0.76156,0.61491c0.21819,0.81609 0.49963,1.96858 0.36848,2.21552c-0.29207,0.54996 -1.9301,0.9378 -2.31626,1.08608c-1.08712,0.41746 -2.71578,1.34051 -4.09552,1.18473c-0.13349,-0.07013 -0.25598,-0.08544 -0.36249,-0.06885c-0.32407,-0.08777 -0.63327,-0.25003 -0.91039,-0.5058c-0.52918,-0.4884 0.20638,-5.11324 0.3237,-5.88c-0.00446,-3.70355 -0.69878,-7.50392 -1.36351,-11.13006c-0.05436,-0.29652 -0.83469,-3.12728 -0.62391,-3.43669c0.63665,-0.93452 4.43257,-1.24709 5.4792,-1.43083c3.60958,-0.65528 7.1198,-1.56397 10.5794,-2.78663c-0.01493,0.08412 -0.01477,0.14256 -0.01477,0.14256c0.00465,4.08912 0.53533,8.29008 0.94902,12.34337c0.0926,0.90733 0.6758,3.68803 0.32414,4.49633c-0.12012,0.27609 -0.29417,0.48728 -0.49831,0.64744c-0.27299,-0.0468 -0.54009,-0.1155 -0.79783,-0.21283c0,0 -0.65584,-0.23291 -0.87358,0.4786c-0.04154,0.13574 -0.05237,0.2556 -0.04109,0.35847z" data-paper-data="{&quot;noHover&quot;:false,&quot;origItem&quot;:[&quot;Path&quot;,{&quot;applyMatrix&quot;:true,&quot;segments&quot;:[[[239.05241,220.7401],[-0.04154,0.13574],[0.21774,-0.71151]],[[239.92337,220.26575],[0,0],[0.25774,0.09733]],[[240.7206,220.47971],[-0.27299,-0.0468],[0.20414,-0.16016]],[[241.21722,219.83584],[-0.12012,0.27609],[0.35166,-0.8083]],[[240.88883,215.36133],[0.0926,0.90733],[-0.41369,-4.05329]],[[239.96093,203.05926],[0.00465,4.08912],[0,0]],[[239.97586,202.91682],[-0.01493,0.08412],[-3.45961,1.22266]],[[229.43646,205.70835],[3.60958,-0.65528],[-1.04663,0.18375]],[[223.9762,207.12528],[0.63665,-0.93452],[-0.21079,0.30941]],[[224.60574,210.5534],[-0.05436,-0.29652],[0.66473,3.62614]],[[225.96439,221.6266],[-0.00446,-3.70355],[-0.11732,0.76676]],[[225.63023,227.49664],[-0.52918,-0.4884],[0.27713,0.25577]],[[226.53753,228.00048],[-0.32407,-0.08777],[0.10651,-0.01659]],[[226.89891,228.06871],[-0.13349,-0.07013],[1.37974,0.15578]],[[230.98118,226.87936],[-1.08712,0.41746],[0.38616,-0.14829]],[[233.28709,225.79278],[-0.29207,0.54996],[0.13114,-0.24695]],[[232.92354,223.67711],[0.21819,0.81609],[-0.30413,-0.13289]],[[232.15706,223.06212],[0.2012,0.28273],[-0.81704,-1.14814]],[[231.73594,218.18676],[0,1.3576],[0,-1.30313]],[[231.8185,214.34075],[-0.05733,1.26561],[-0.04227,-0.73616]],[[231.6092,212.13296],[0.1048,0.73544],[-0.11922,-0.83662]],[[230.82812,207.22589],[-0.25275,0.65536],[0.3127,-0.81081]],[[233.02291,206.09227],[-0.85756,-0.06127],[0.23308,-0.12576]],[[233.72215,205.71499],[-0.23308,0.12576],[0,0]],[233.79979,205.73208],[233.79449,205.69745],[[234.59071,205.55291],[0,0],[0.04085,-0.00823]],[[234.7167,205.54038],[-0.04303,0],[0.38028,0]],[[235.40525,206.29038],[0,-0.41421],[0,0.3154]],[[234.97335,206.98655],[0.25317,-0.11084],[0,0]],[234.04408,207.42034],[[234.03687,207.40201],[0,0],[-0.02322,0.0166]],[[233.96646,207.45073],[0.02373,-0.01586],[-0.05452,0.03645]],[[233.77912,207.52677],[0.06956,-0.01519],[-0.01131,2.65563]],[[233.21477,215.50453],[0.18372,-2.67564],[0.06569,2.32655]],[[234.03659,222.41203],[-0.69835,-2.28201],[0.00186,0.01198]],[[234.04242,222.44842],[-0.00202,-0.01228],[1.43877,0.02642]],[[238.86211,221.13151],[-0.62224,0.19355],[0.04919,-0.01168]],[[239.01231,221.09718],[-0.05087,0.01128],[-0.01128,-0.10286]]],&quot;closed&quot;:true}]}" fill="#3b3d48"/></g><g stroke="none" stroke-width="0.5" stroke-linecap="butt"><path d="M219.8654,186.00462c3.31013,-0.78712 7.29571,-0.25161 10.61147,0.23495l0.17236,0.07918c0.25853,-0.53012 0.35572,-1.03334 0.54384,-1.84254c0,0 0.03441,-0.14771 0.1387,-0.29481c-0.01501,-0.08238 -0.01704,-0.1764 -0.00131,-0.28364c0.1089,-0.74206 0.85094,-0.63316 0.85094,-0.63316c0.65345,0.09616 2.43552,0.02342 2.88773,0.49896c0.93055,0.97854 0.68572,2.27057 -0.02003,3.26318c0.05089,0.0992 0.06963,0.17754 0.06963,0.17754c0.45559,1.90452 0.91118,3.80904 1.36677,5.71355l0.03343,0.13974c0.09972,0.08935 0.15348,0.17575 0.15348,0.17575c0.77127,1.24166 1.90259,1.93816 2.70292,3.11386c1.04699,1.53807 1.04151,4.20417 1.16651,5.99596l-0.2177,0.6216c0,0 -0.03336,0.05433 -0.09648,0.1216c0.16477,1.08916 0.12713,2.10837 -0.41663,3.29243c-2.59306,4.19881 -7.23584,5.31006 -11.73213,6.38564c-2.59747,0.62136 -4.92063,1.41836 -5.31156,-1.90316c-0.18425,-0.17154 -0.24105,-0.40896 -0.24105,-0.40896l-0.18348,-0.99758c0.41543,-2.74775 -0.12868,-7.2113 -1.45238,-9.7379c-1.2844,-2.45157 -3.74086,-3.89906 -5.11384,-6.28177c-1.77546,-0.07474 -3.31192,-0.427 -3.4479,-1.68914c-0.07883,-0.73173 1.13962,-2.10535 1.66248,-2.923c-1.04636,-3.54322 2.36051,-3.2681 5.34248,-2.38894c0.14118,-0.33591 0.53174,-0.42934 0.53174,-0.42934zM238.88313,200.48286c0.02046,-0.00489 0.04048,-0.00908 0.06008,-0.01258c-0.08223,-1.2156 -0.26225,-2.49662 -0.82508,-3.3049c-0.72177,-1.03654 -1.71606,-1.74001 -2.47343,-2.77631c-0.3784,-0.12047 -0.48136,-0.5509 -0.48136,-0.5509c-0.4076,-1.70391 -0.9246,-3.86515 -1.35525,-5.6654c-0.4026,0.23355 -0.82562,0.36793 -1.21989,0.36097l-0.37669,-0.05512c-0.06742,0.32059 -0.12793,0.64267 -0.17836,0.96623c0.5968,0.39364 0.82336,1.01761 0.29241,1.85924c0.77169,1.93444 3.47397,3.61612 3.90563,5.60091c0.38479,1.76932 -2.15379,4.09168 -2.57885,5.92122c-0.11624,0.50031 -0.14078,2.00344 -0.71736,2.12784c-0.94502,0.20391 -2.29003,-1.75675 -2.86548,-2.35365c-0.49271,-0.9341 -1.88318,-2.53128 -2.21344,-3.38907c-0.60033,-1.55932 0.84552,-4.00522 1.04555,-5.67016c-0.08695,0.02 -0.17714,0.04093 -0.27151,0.06379l-0.30613,-0.08187c0.01072,0.04307 0.02139,0.08685 0.03204,0.13134l0.10251,0.42852c0,0 0.17449,0.72942 -0.55493,0.90391c-0.72942,0.17449 -0.90391,-0.55493 -0.90391,-0.55493l-0.10251,-0.42852c-0.11451,-0.47867 -0.04164,-1.02198 -0.28773,-1.44821c-0.1919,-0.33237 -1.49601,-0.32171 -1.77487,-0.36262c-1.27183,-0.32478 -0.37291,1.18993 -1.73232,1.82034c-0.88999,0.41272 -1.38998,-0.28735 -2.10823,-0.48717c-0.68201,-0.18975 -2.01741,-0.11511 -3.43997,-0.08429c1.39566,1.97198 3.51086,3.34968 4.65563,5.56149c1.47525,2.8503 2.06149,7.56326 1.61726,10.66956l0.14508,0.39504c0.24465,0.20038 0.27583,0.53504 0.27583,0.53504c0.19984,2.3918 2.50107,0.93768 4.33913,0.49799c3.74251,-0.89527 7.76606,-1.92429 9.9043,-5.43468c0.66779,-1.36974 0.24507,-2.5729 -0.09475,-3.99342l-0.06834,-0.28568c0,0 -0.17449,-0.72942 0.55493,-0.90391zM232.65397,184.81648c-0.20305,0.87012 -0.35817,1.49042 -0.65319,2.11531c0.00054,0.00008 0.00082,0.00011 0.00082,0.00011l0.76069,0.11195c0.83786,0.21495 1.62005,-1.96464 1.29448,-2.17347c-0.15253,-0.09784 -0.833,-0.09545 -1.39506,-0.09793c-0.004,0.02794 -0.00773,0.04402 -0.00773,0.04402zM230.40767,193.55852c-0.08932,1.02069 -1.59613,4.22332 -1.19006,5.02339c0.47091,0.92782 1.51361,2.05736 2.06613,3.13782c0.13309,0.13318 0.59476,0.50046 0.92353,0.88697c0.09913,-0.57754 0.27971,-1.25607 0.40514,-1.62375c0.26084,-0.76461 2.37764,-3.02029 2.15994,-3.72897c-0.50821,-1.6544 -2.52005,-3.15493 -3.52377,-4.79545c-0.23364,0.18988 -0.48136,0.36321 -0.74052,0.51509c-0.03147,0.01845 -0.06252,0.03616 -0.0932,0.05318zM228.9849,191.84591c0.70682,-0.33965 1.70829,-0.87924 2.05143,-1.17067c-0.23509,-0.05136 -0.3715,-0.18011 -0.45035,-0.31931c-1.23312,-0.13075 -3.31506,0.39577 -1.64139,1.45592c0,0 0.01577,0.01177 0.0403,0.03407zM222.13052,189.33987c0,0 -0.4446,-0.10356 -0.55927,-0.49596c-1.77079,-0.8065 -6.90896,-2.9403 -6.14374,-0.41416c0.10543,0.12866 0.14088,0.27143 0.14384,0.39995c0.04457,0.17169 0.10483,0.60362 -0.32423,0.84346c-0.42203,0.73244 -0.90529,1.32622 -1.41919,2.02421c-0.20873,0.2835 0.70259,0.04771 1.05295,0.08209c0.8372,0.08214 1.56611,0.04206 2.41192,-0.01451c1.23232,-0.08242 2.88122,-0.00793 4.09183,0.31253c0.41237,0.10916 0.76943,0.71824 1.15858,0.54351c0.38488,-0.17281 0.07697,-0.88564 0.33272,-1.22118c0.80648,-1.05806 1.12399,-0.79225 2.17644,-0.69134c0.6742,0.09893 1.1971,0.20963 1.61318,0.37928c-0.00266,-0.23086 0.03929,-0.44251 0.11822,-0.63522c-1.55815,-0.26285 -3.12891,-0.75759 -4.65322,-1.11264z" fill="#000000"/><path d="M228.91045,191.84836c-1.67367,-1.06016 0.48279,-1.6527 1.71591,-1.52194c0.07885,0.13921 0.22345,0.28558 0.45854,0.33694c-0.34314,0.29143 -1.42556,0.88101 -2.13237,1.22067c-0.02453,-0.02229 -0.04208,-0.03565 -0.04208,-0.03565z" data-paper-data="{&quot;noHover&quot;:false,&quot;origItem&quot;:[&quot;Path&quot;,{&quot;applyMatrix&quot;:true,&quot;segments&quot;:[[[467.52014,378.80687],[-0.03734,-0.05477],[1.53289,-0.33178]],[[472.05514,377.4843],[-0.80306,0.4072],[-0.43338,-0.20928]],[[471.32774,376.65365],[0.08859,0.30745],[-2.33771,-0.82811]],[[467.4576,378.72186],[-2.7622,-2.84089],[0,0]]],&quot;closed&quot;:true}]}" fill="#ff0000"/><path d="M230.39921,192.9793c0.03068,-0.01703 0.06279,-0.03508 0.09427,-0.05352c0.25917,-0.15186 0.51517,-0.32698 0.74882,-0.51686c1.00373,1.64053 3.07167,3.1865 3.57989,4.84089c0.2177,0.70868 -1.93874,3.01747 -2.19958,3.78208c-0.12544,0.36768 -0.31306,1.04716 -0.4122,1.6247c-0.32876,-0.38651 -0.80063,-0.75419 -0.93372,-0.88737c-0.55253,-1.08046 -1.63447,-2.24063 -2.10538,-3.16845c-0.40607,-0.80006 1.12946,-4.06836 1.21878,-5.08905z" data-paper-data="{&quot;noHover&quot;:false,&quot;origItem&quot;:[&quot;Path&quot;,{&quot;applyMatrix&quot;:true,&quot;segments&quot;:[[[469.49072,382.80012],[0,0],[-0.64867,1.94381]],[[464.83851,392.01747],[-0.41758,-1.74517],[0.48426,2.02384]],[[467.39735,399.08228],[-0.57199,-2.35872],[0.1969,0.32098]],[[468.78101,401.23726],[-0.45963,-0.90478],[0.46157,-1.07727]],[[470.3246,398.26738],[-0.41507,0.65682],[0.86314,-1.36588]],[[476.26104,392.01912],[0.0937,1.47976],[-0.21875,-3.45448]],[[471.63821,381.05177],[1.18903,3.65805],[-0.54281,0.26063]],[[469.95814,381.7091],[0.57477,-0.17481],[-0.0698,0.02123]],[[469.7521,381.76918],[0.0676,-0.01885],[0,0]]],&quot;closed&quot;:true}]}" fill="#ff0000"/><path d="M232.64536,184.72522c0.56206,0.00248 1.29478,0.01254 1.4473,0.11038c0.32557,0.20883 -0.50382,2.47192 -1.34169,2.25698l-0.7841,-0.12468c0,0 -0.00029,-0.00005 -0.00083,-0.00013c0.29502,-0.6249 0.46761,-1.32808 0.67066,-2.1982c0,0 0.00466,-0.0164 0.00866,-0.04435z" data-paper-data="{&quot;noHover&quot;:false,&quot;origItem&quot;:[&quot;Path&quot;,{&quot;applyMatrix&quot;:true,&quot;segments&quot;:[[[477.92773,366.84102],[0,0],[-0.79982,1.598]],[[475.67294,370.65163],[0.86461,-1.07823],[0.00102,0.0004]],[475.67448,370.65224],[[477.10202,371.22395],[0,0],[1.52973,0.80796]],[[480.63126,367.59862],[0.53609,0.55769],[-0.25116,-0.26128]],[[477.96326,366.759],[1.09212,0.26636],[-0.02077,0.05249]]],&quot;closed&quot;:true}]}" fill="#0032ff"/><path d="M226.83351,190.45744c-0.07893,0.19271 -0.12157,0.40905 -0.11891,0.6399c-0.41608,-0.16964 -0.93886,-0.28094 -1.61306,-0.37987c-1.05244,-0.10091 -1.37548,-0.35134 -2.18196,0.70672c-0.25575,0.33554 0.04204,1.06106 -0.34283,1.23388c-0.38914,0.17474 -0.75356,-0.42882 -1.16594,-0.53799c-1.21061,-0.32046 -2.92585,-0.40777 -4.15818,-0.32535c-0.84581,0.05657 -1.58108,0.08516 -2.41828,0.00302c-0.35036,-0.03438 -1.26287,0.19802 -1.05415,-0.08548c0.51389,-0.69799 0.9949,-1.30779 1.41693,-2.04023c0.42906,-0.23983 0.36991,-0.68119 0.32534,-0.85288c-0.00296,-0.12852 -0.03747,-0.27497 -0.14289,-0.40364c-0.76522,-2.52614 4.46405,-0.40334 6.23484,0.40317c0.11468,0.3924 0.5651,0.51123 0.5651,0.51123c1.52431,0.35505 3.09584,0.86467 4.65398,1.12752z" data-paper-data="{&quot;noHover&quot;:false,&quot;origItem&quot;:[&quot;Path&quot;,{&quot;applyMatrix&quot;:true,&quot;segments&quot;:[[[455.35362,370.74296],[2.79975,1.39988],[0,0]],[[454.49653,369.51802],[0.04047,0.81662],[-3.06915,-2.3927]],[[442.73893,365.85372],[-0.31301,-5.2697],[0.14519,0.29933]],[[442.83261,366.6986],[0.05403,-0.25136],[0.0068,0.35469]],[[441.80948,368.18836],[0.94617,-0.26686],[-1.16169,1.22832]],[[438.10712,371.46534],[1.32437,-1.11857],[-0.53791,0.45432]],[[440.11705,372.11496],[-0.66551,-0.22989],[1.59024,0.54932]],[[444.81527,373.209],[-1.67151,-0.28352],[2.43537,0.41308]],[[452.62894,375.72086],[-2.20566,-1.18664],[0.75132,0.40421]],[[454.62961,377.31713],[-0.83824,0.15881],[0.82904,-0.15707]],[[455.845,375.09662],[-0.6536,0.53365],[2.06102,-1.6828]],[[460.40012,374.76457],[-2.00018,-0.68598],[1.26536,0.50614]],[[463.36146,376.25293],[-0.73039,-0.52358],[0.10223,-0.45029]],[[463.88698,375.07234],[-0.24319,0.33812],[-2.90847,-1.23628]]],&quot;closed&quot;:true}]}" fill="#0032ff"/><path d="M238.37778,201.39328l0.06813,0.28713c0.33981,1.42052 0.75632,2.64099 0.08853,4.01073c-2.13825,3.5104 -6.20738,4.5641 -9.94989,5.45936c-1.83807,0.4397 -4.15803,1.88916 -4.35787,-0.50264c0,0 -0.0331,-0.33561 -0.27775,-0.53599l-0.14634,-0.39571c0.44423,-3.10631 -0.16695,-7.87131 -1.6422,-10.72161c-1.14477,-2.21181 -3.25389,-3.60629 -4.64955,-5.57827c1.42257,-0.03081 2.76248,-0.11197 3.44449,0.07779c0.71825,0.19983 1.22201,0.8958 2.112,0.48307c1.35941,-0.63041 0.47176,-2.1534 1.7436,-1.82862c0.27885,0.04092 1.59097,0.02682 1.78287,0.3592c0.2461,0.42623 0.20581,1.06408 0.32031,1.54275l0.06826,0.33456c0,0 0.18039,0.72765 0.90981,0.55316c0.72942,-0.17449 0.56095,-0.90494 0.56095,-0.90494l-0.0913,-0.32915c-0.01064,-0.04449 -0.03307,-0.18758 -0.04378,-0.23064l0.30836,0.08165c0.09436,-0.02285 0.18991,0.05604 0.27686,0.03605c-0.20002,1.66493 -1.60781,4.09123 -1.00747,5.65055c0.33025,0.85779 1.66276,2.37806 2.15546,3.31215c0.57545,0.5969 1.9075,2.56504 2.85253,2.36113c0.57658,-0.12441 0.58915,-1.6137 0.70539,-2.11401c0.42506,-1.82953 2.9614,-4.10578 2.5766,-5.87509c-0.43166,-1.9848 -3.10552,-3.64036 -3.8772,-5.57478c0.53095,-0.84163 0.30828,-1.46437 -0.28852,-1.85801c0.05042,-0.32356 0.1368,-0.74222 0.20423,-1.06283l0.37819,0.05555c0.39427,0.00696 0.8212,-0.12607 1.22381,-0.35962c0.43065,1.80025 0.96396,3.97187 1.37157,5.67578c0,0 0.10587,0.43344 0.48427,0.55391c0.75738,1.0363 1.76167,1.75709 2.48345,2.79362c0.56282,0.80828 0.74542,2.10667 0.82764,3.32226c-0.0196,0.00351 -0.03962,0.00776 -0.06008,0.01266c-0.72942,0.17449 -0.55533,0.90886 -0.55533,0.90886z" data-paper-data="{&quot;noHover&quot;:false,&quot;origItem&quot;:[&quot;Path&quot;,{&quot;applyMatrix&quot;:true,&quot;segments&quot;:[[[482.75458,400.21246],[-1.5,0],[0.04208,0]],[[482.8773,400.21594],[-0.03975,-0.00229],[0.40568,-2.40273]],[[482.81021,393.4036],[0.71867,1.83408],[-0.92163,-2.35203]],[[479.29091,386.85244],[0.991,2.36813],[-0.67997,-0.41039]],[[478.61094,385.55689],[0,0],[0,-3.50396]],[[478.61094,373.90641],[0,3.70209],[-0.89177,0.26695]],[[476.07015,374.04091],[0.76367,0.19701],[0,0]],[[475.36308,373.75841],[0,0],[-0.28033,0.59223]],[[474.56657,375.55486],[0.24863,-0.60591],[0.97768,1.04337]],[[474.27023,379.30737],[1.42437,-1.39002],[0.60092,4.12177]],[[479.26104,392.01912],[0.0839,-4.06152],[-0.07479,3.62058]],[[471.48969,402.33665],[1.67808,-3.36089],[-0.4589,0.91908]],[[469.10425,406.14178],[1.1794,0.0263],[-1.93306,-0.0431]],[[464.62571,400.23033],[0.84158,1.4288],[-0.52374,-2.04619]],[[461.89726,392.60825],[0.24324,1.82219],[-0.44216,-3.31241]],[[466.56932,382.06561],[-1.16377,3.14543],[-0.17844,-0.00156]],[[466.01153,382.06335],[0.19419,-0.00053],[0,0]],[[465.45416,381.76167],[0,0],[0.00081,0.08875]],[[465.45536,382.03204],[0,-0.0915],[0,0]],[465.45536,382.91325],[[463.95536,384.41325],[1.5,0],[-1.5,0]],[462.45536,382.91325],[[462.45536,382.03204],[0,0],[0,-0.98435]],[[462.56954,379.08121],[0.28036,0.94358],[-0.21862,-0.73579]],[[459.28595,377.55],[0.52336,0.20934],[-2.32275,-1.22352]],[[455.06937,380.28472],[2.93755,-0.59369],[-1.92318,0.38868]],[[451.19529,378.35613],[1.3041,0.7229],[-1.2383,-0.68643]],[[444.54335,376.59154],[2.78141,0.602],[1.79716,4.48514]],[[451.01133,389.57559],[-1.19756,-4.8349],[1.54327,6.23062]],[[449.1925,411.08168],[2.30947,-5.83544],[0,0]],[[449.29088,411.91757],[0,0],[0.38264,0.5036]],[[449.57845,413.08663],[0,0],[-0.7242,4.74532]],[[457.78687,416.0743],[-3.77985,0],[7.6962,0]],[[479.58072,410.11169],[-5.79255,5.83321],[1.93629,-2.35358]],[[481.25458,402.29994],[0,2.92119],[0,0]],[481.25458,401.71246]],&quot;closed&quot;:true}]}" fill="#0032ff"/></g><g stroke="none" stroke-width="0.5" stroke-linecap="butt"><path d="M264.7333,168.64401c0.82416,1.32186 0.56238,2.40892 0.35075,3.89074l-0.27843,0.75328c0,0 -0.0814,0.20352 -0.26622,0.3465c0.03807,4.01824 0.21503,8.13898 -0.93406,11.96035c-0.48222,1.60367 -1.17996,3.39606 -2.87575,4.18392c-1.17638,0.54654 -2.65384,0.74214 -3.92496,0.954c-3.15294,0.78912 -6.0062,0.52239 -9.19898,0.72744c-5.85721,0.37616 -11.63009,0.53632 -17.51916,0.53632c-1.63046,-0.03075 -3.03298,-0.92614 -3.99597,-2.27267c-0.26995,-0.37746 -0.57873,-1.70139 -1.0292,-1.93716c-0.71002,-0.37162 -2.50241,-0.03357 -3.21359,-0.07009c-4.99062,-0.25626 -8.18149,-1.37886 -9.25607,-6.66389c-0.84158,-4.20789 -0.54943,-8.52137 -0.54943,-12.80578v-0.35658c0,0 0,-0.01054 0.00125,-0.02912c-1.6321,-1.62872 -2.60773,-4.49934 -2.67377,-6.51487c-0.4543,-4.09806 -0.38262,-10.38511 2.9123,-13.43948c3.23249,-2.99651 8.02883,-4.50747 11.99043,-6.20511c8.68425,-3.4236 19.22179,-2.19658 28.35244,-2.19658c4.53403,0 9.69167,-0.6938 14.11895,0.29673c4.24784,0.95039 7.95341,3.56429 12.2443,4.33884h0.84167c0.41422,0 0.75,0.33578 0.75,0.75c0,0.20711 -0.08395,0.39461 -0.21967,0.53033l-0.89146,0.89146l-0.17452,-0.17452c-3.06133,3.13422 -8.4477,4.88749 -12.71219,5.31911c0.13331,0.25027 0.07654,0.53408 0.07654,0.53408c-0.51147,2.55591 -0.94211,5.15563 -1.2791,7.774c0.43379,0.4432 0.79464,1.0611 1.08605,1.92055l0.12869,0.87937c0,0 0.10607,0.74246 -0.63639,0.84853c-0.74246,0.10607 -0.84853,-0.6364 -0.84853,-0.6364l-0.04314,-0.31087c-0.20783,2.01414 -0.35807,4.03416 -0.44495,6.04875c0.07277,0.06972 0.11219,0.12885 0.11219,0.12885zM217.05425,176.10031c0.74246,0.10607 0.63639,0.84852 0.63639,0.84852l-0.25019,1.14559c-0.9058,0.52402 -1.06635,0.79528 -2.11194,0.77608c-0.67426,-0.01238 -1.21113,-0.20312 -1.62791,-0.51615c0.08526,0.80503 0.20243,1.60682 0.36191,2.40421c0.90507,4.61443 3.51995,5.23899 7.85991,5.45993c1.12408,0.05722 2.87726,-0.30752 3.91807,0.28649c1.81748,1.03727 1.52411,4.0675 4.24598,3.99157c5.85834,0 11.5999,-0.16 17.42596,-0.53342c3.1242,-0.20024 5.9066,0.07028 8.98674,-0.6989c1.15362,-0.19227 2.48599,-0.35394 3.56328,-0.82891c1.32805,-0.58554 1.75881,-2.10945 2.11641,-3.30432c1.19992,-4.00937 0.85469,-8.40944 0.85469,-12.60505c0,-0.77337 0.0099,-1.54875 0.02938,-2.32549c-0.12196,0.25036 -0.27231,0.49139 -0.45762,0.7204c-0.97827,1.20905 -2.58875,1.69908 -3.56279,0.13493c-0.63923,-1.0265 -0.35926,-2.5828 -0.55088,-3.72573c-0.40555,-2.41898 -0.68071,-4.58946 -0.43312,-7.00243c-3.03453,0.34312 -6.00947,1.37253 -7.32188,4.28017c0,0 -0.31035,0.68278 -0.99312,0.37243c-0.68277,-0.31035 -0.37242,-0.99313 -0.37242,-0.99313c1.98594,-4.34163 6.8762,-5.24539 11.30375,-5.31406c0.85226,-0.01322 1.61672,-0.0191 2.29727,0.05677c0.08765,-0.19828 0.27444,-0.40956 0.67251,-0.40956c0.16981,0 0.30117,0.03845 0.40279,0.09793c0.31511,-2.2626 0.69791,-4.50845 1.1402,-6.72111c0,0 0.01256,-0.0628 0.04869,-0.14803c-2.4091,0.07409 -4.90238,-0.32201 -7.26247,0.15001c-2.60035,0.00718 -5.03284,0.69232 -7.65172,0.84042c-6.47269,0.36603 -13.03973,0.05468 -19.52248,0.05468c-5.32164,-0.01198 -7.60971,3.8324 -8.53572,8.66824l0.01457,0.0312c0,0 0,0.69962 -0.67572,0.74743c-1.00822,2.20419 -2.40249,4.71639 -4.26838,6.09907c-1.41704,1.05007 -2.6963,1.17737 -3.7943,0.74205c-0.00691,1.07933 -0.02904,2.16082 -0.042,3.24177c0.8607,-1.08551 2.16193,-1.14977 3.42397,1.36327c0,0 0.33541,0.67082 -0.33541,1.00623c-0.67082,0.33541 -1.00623,-0.33541 -1.00623,-0.33541c-1.78425,-3.58623 -2.77856,3.83903 0.64319,3.05935l-0.01787,-0.48066c0,0 0.10607,-0.74246 0.84853,-0.63639zM260.09356,168.29461c0.06971,0.76528 -0.3159,2.0827 0.43066,2.26475c1.69997,0.41454 1.55788,-3.56146 1.55728,-4.28717c0.01303,-2.06495 0.63102,-4.03491 0.78072,-6.1059c-0.62421,-0.06495 -1.34971,-0.00555 -2.16624,0.0066c-0.3666,0.00546 -0.7396,0.01619 -1.11585,0.03453c-0.34033,2.8283 0.25672,5.26918 0.51343,8.08719zM220.9921,160.08572c1.24826,-5.09153 4.01623,-8.98 9.80754,-8.99157c6.4546,0 12.99334,0.31092 19.43793,-0.0523c2.59651,-0.14634 5.0054,-0.84354 7.58846,-0.83551c3.94495,-0.78899 8.25898,0.57219 12.14299,-0.85837c1.76772,-0.65109 3.73451,-1.34328 5.38585,-2.25449c0.88627,-0.48905 1.67278,-1.24797 2.58949,-1.64801c-3.99189,-0.94676 -7.51913,-3.2722 -11.52978,-4.1801c-4.30232,-0.97393 -9.37908,-0.26015 -13.78971,-0.26015c-8.8408,0 -19.39106,-1.33224 -27.77841,2.0824c-3.68885,1.58111 -9.96563,3.28595 -12.31803,6.84926c-2.04015,3.09034 -2.05453,7.78327 -1.66245,11.30394c0.06914,2.51616 1.03322,6.61649 4.48908,6.26449c2.44831,-0.24937 4.51078,-5.18224 5.30578,-7.04201c0,0 0.1036,-0.24174 0.33126,-0.37757z" fill="#000000"/><path d="M259.56539,160.15965c0.37626,-0.01835 0.75944,-0.03109 1.12604,-0.03655c0.81653,-0.01216 1.56205,-0.0693 2.18626,-0.00435c-0.1497,2.07099 -0.74778,4.1238 -0.76081,6.18875c0.0006,0.72571 0.10113,4.71602 -1.59884,4.30148c-0.74656,-0.18205 -0.37202,-1.50215 -0.44173,-2.26743c-0.25671,-2.818 -0.85126,-5.3536 -0.51093,-8.1819z" data-paper-data="{&quot;noHover&quot;:false,&quot;origItem&quot;:[&quot;Path&quot;,{&quot;applyMatrix&quot;:true,&quot;segments&quot;:[[[513.43113,327.1896],[-0.51342,-5.636],[0.13943,1.53055]],[[514.29246,331.71909],[-1.49313,-0.3641],[3.39994,0.82908]],[[517.40701,323.14475],[0.0012,1.45142],[0.02605,-4.1299]],[[518.96845,310.93296],[-0.2994,4.14197],[-1.24843,-0.1299]],[[514.63597,310.94616],[1.63306,-0.02431],[-0.7332,0.01091]],[[512.40427,311.01523],[0.75251,-0.03669],[-0.68066,5.6566]]],&quot;closed&quot;:true}]}" fill="#00ffe2"/><path d="M216.25425,176.72465l-0.07893,0.50573c-3.42175,0.77969 -2.42872,-6.65197 -0.64447,-3.06574c0,0 0.33555,0.67182 1.00637,0.33641c0.67082,-0.33541 0.33514,-1.0083 0.33514,-1.0083c-1.26203,-2.51304 -2.56353,-2.45212 -3.42423,-1.36661c0.01296,-1.08095 0.0352,-2.1687 0.04212,-3.24803c1.09801,0.43532 2.37751,0.30568 3.79454,-0.74439c1.86589,-1.38269 3.2651,-3.91097 4.27331,-6.11516c0.67572,-0.04781 0.6769,-0.74961 0.6769,-0.74961l-0.01454,-0.03125c0.92601,-4.83584 3.23642,-8.70085 8.55806,-8.68887c6.48275,0 13.09644,0.31368 19.56914,-0.05235c2.61888,-0.1481 5.06055,-0.82623 7.6609,-0.83342c2.36009,-0.47201 4.85862,-0.06996 7.26772,-0.14405c-0.03613,0.08523 -0.04861,0.14813 -0.04861,0.14813c-0.44229,2.21266 -0.82059,4.46576 -1.1357,6.72835c-0.10162,-0.05948 -0.32188,-0.05213 -0.49169,-0.05213c-0.39807,0 -0.5849,0.2112 -0.67255,0.40948c-0.68055,-0.07587 -1.44392,-0.06802 -2.29618,-0.0548c-4.42755,0.06868 -9.23353,0.91878 -11.21948,5.26041c0,0 -0.30804,0.6864 0.37473,0.99675c0.68277,0.31035 0.90623,-0.32295 0.90623,-0.32295c1.31241,-2.90763 4.3744,-3.98626 7.40893,-4.32937c-0.24759,2.41296 0.03324,4.59883 0.43879,7.01781c0.19162,1.14293 -0.08746,2.70879 0.55177,3.7353c0.97403,1.56415 2.48452,1.07405 3.46279,-0.135c0.18531,-0.22902 0.43563,-0.47181 0.55759,-0.72217c-0.01947,0.77674 -0.02945,1.55702 -0.02945,2.33039c0,4.19561 0.33782,8.61879 -0.8621,12.62815c-0.3576,1.19486 -0.79263,2.72465 -2.12068,3.31019c-1.07728,0.47498 -2.41368,0.64089 -3.5673,0.83316c-3.08014,0.76918 -5.87701,0.50812 -9.00122,0.70836c-5.82606,0.37342 -11.60881,0.53263 -17.46715,0.53263c-2.72187,0.07593 -2.43988,-2.96176 -4.25735,-3.99903c-1.04081,-0.59401 -2.7988,-0.23407 -3.92288,-0.29129c-4.33996,-0.22094 -6.96382,-0.86036 -7.86889,-5.4748c-0.15948,-0.79739 -0.27806,-1.6034 -0.36332,-2.40843c0.41678,0.31304 1.04921,0.47438 1.72347,0.48676c1.04558,0.0192 1.11107,-0.22103 2.01687,-0.74506l0.24955,-1.14774c0,0 0.10553,-0.74456 -0.63693,-0.85062c-0.74246,-0.10607 -0.75127,0.61316 -0.75127,0.61316z" data-paper-data="{&quot;noHover&quot;:false,&quot;origItem&quot;:[&quot;Path&quot;,{&quot;applyMatrix&quot;:true,&quot;segments&quot;:[[[427.35252,342.801],[-1.48492,-0.21213],[1.48492,0.21213]],[428.62531,344.49805],[[428.12493,346.78923],[0,0],[-1.81159,1.04805]],[[423.90106,348.34139],[2.09117,0.0384],[-1.34852,-0.02476]],[[420.64524,347.30908],[0.83355,0.62607],[0.17053,1.61006]],[[421.36905,352.1175],[-0.31896,-1.59478],[1.81014,9.22887]],[[437.08887,363.03736],[-8.67992,-0.44188],[2.24815,0.11445]],[[444.925,363.61034],[-2.08161,-1.18802],[3.63495,2.07455]],[[453.41696,371.59348],[-5.44374,0.15187],[11.71667,0]],[[488.26888,370.52663],[-11.65213,0.74685],[6.24841,-0.40049]],[[506.24236,369.12883],[-6.16028,1.53837],[2.30724,-0.38454]],[[513.36891,367.47101],[-2.15457,0.94995],[2.6561,-1.17108]],[[517.60173,360.86238],[-0.71519,2.38973],[2.39984,-8.01873]],[[519.31112,335.65228],[0,8.39121],[0,-1.54673]],[[519.36987,331.00131],[-0.03895,1.55348],[-0.24391,0.50073]],[[518.45463,332.44212],[0.37062,-0.45804],[-1.95655,2.4181]],[[511.32905,332.71198],[1.94807,3.12831],[-1.27845,-2.05301]],[[510.22729,325.26052],[0.38324,2.28586],[-0.81111,-4.83796]],[[509.36105,311.25566],[-0.49519,4.82593],[-6.06906,0.68623]],[[494.71729,319.816],[2.62481,-5.81527],[0,0]],[[492.73104,320.56085],[1.36555,0.6207],[-1.36555,-0.6207]],[[491.9862,318.57459],[0,0],[3.97189,-8.68326]],[[514.59369,307.94646],[-8.8551,0.13735],[1.70452,-0.02644]],[[519.18823,308.05999],[-1.3611,-0.15174],[0.1753,-0.39656]],[[520.53325,307.24087],[-0.79614,0],[0.33962,0]],[[521.33883,307.43673],[-0.20324,-0.11897],[0.63022,-4.5252]],[[523.61924,293.9945],[-0.88458,4.42533],[0,0]],[[523.71662,293.69845],[-0.07226,0.17045],[-4.8182,0.14819]],[[509.19169,293.99846],[4.72017,-0.94403],[-5.2007,0.01436]],[[493.88825,295.67931],[5.23776,-0.2962],[-12.94539,0.73206]],[[454.84329,295.78867],[12.96551,0],[-10.64329,-0.02396]],[[437.77186,313.12516],[1.85202,-9.67168],[0,0]],[437.80099,313.18757],[[436.44954,314.68243],[1.35144,-0.09562],[-2.01643,4.40839]],[[427.91277,326.88058],[3.73179,-2.76537],[-2.83408,2.10014]],[[420.32417,328.36468],[2.19601,0.87063],[-0.01383,2.15867]],[[420.24016,334.84822],[0.02592,-2.1619],[1.7214,-2.17101]],[[427.0881,337.57476],[-2.52407,-5.02607],[0,0]],[[426.41728,339.58723],[1.34164,-0.67082],[-1.34164,0.67082]],[[424.40482,338.91641],[0,0],[-3.5685,-7.17245]],[[425.6912,345.0351],[-6.84351,1.55937],[0,0]],[425.65546,344.07379]],&quot;closed&quot;:true}]}" fill="#fff1e2"/><path d="M220.70914,160.45035c-0.795,1.85977 -2.95117,6.82653 -5.39947,7.0759c-3.45586,0.352 -4.42345,-3.7589 -4.49259,-6.27506c-0.39209,-3.52067 -0.37837,-8.23055 1.66179,-11.32088c2.3524,-3.56331 8.63527,-5.28628 12.32412,-6.86739c8.38735,-3.41465 19.00785,-2.09995 27.84865,-2.09995c4.41063,0 9.50384,-0.69669 13.80616,0.27723c4.01065,0.9079 7.54309,3.24599 11.53499,4.19276c-0.9167,0.40004 -1.70287,1.16041 -2.58914,1.64945c-1.65134,0.91121 -3.61774,1.60529 -5.38545,2.25638c-3.884,1.43057 -8.2952,0.09252 -12.24015,0.88151c-2.58307,-0.00803 -4.98827,0.69834 -7.58478,0.84468c-6.44459,0.36321 -12.89023,0.04015 -19.34483,0.04015c-5.79131,0.01157 -8.55961,3.87669 -9.80786,8.96822c-0.22765,0.13583 -0.33141,0.377 -0.33141,0.377z" data-paper-data="{&quot;noHover&quot;:false,&quot;origItem&quot;:[&quot;Path&quot;,{&quot;applyMatrix&quot;:true,&quot;segments&quot;:[[[435.22821,310.77181],[-0.45531,0.27165],[2.49651,-10.18306]],[[454.84329,292.78867],[-11.58263,0.02314],[12.90919,0]],[[493.71915,292.68408],[-12.88919,0.72643],[5.19302,-0.29268]],[[508.89608,291.01306],[-5.16613,-0.01606],[7.8899,-1.57798]],[[533.18205,289.29631],[-7.768,2.86114],[3.53543,-1.30218]],[[543.95374,284.78733],[-3.30268,1.82242],[1.77254,-0.97809]],[[549.13272,281.49131],[-1.83341,0.80008],[-7.98378,-1.89352]],[[526.07315,273.1311],[8.02131,1.8158],[-8.60463,-1.94785]],[[498.49374,272.61079],[8.82125,0],[-17.68159,0]],[[442.93692,276.7756],[16.77469,-6.82929],[-7.3777,3.16222]],[[418.30087,290.47412],[4.7048,-7.12662],[-4.08031,6.18067]],[[414.97597,313.082],[-0.78417,-7.04133],[0.13829,5.03232]],[[423.95413,325.61097],[-6.91171,0.704],[4.89662,-0.49875]],[[434.56569,311.52694],[-1.58999,3.71954],[0,0]]],&quot;closed&quot;:true}]}" fill="#442300"/><path d="M234.95303,159.13337c0.75,0 0.75,0.75 0.75,0.75l-0.00078,0.01011c3.73387,0.01002 7.28957,0.94098 9.61997,3.03071c0.34077,0.41382 0.70071,0.8128 1.0802,1.19142l0.41815,0.54497c0,0 0.45,0.6 -0.15,1.05c-0.6,0.45 -1.05,-0.15 -1.05,-0.15l-0.27881,-0.38431c-0.38667,-0.38748 -0.75732,-0.79214 -1.10401,-1.21578c-0.30764,-0.27811 -0.64321,-0.53206 -1.0031,-0.7627c-0.09907,2.66775 -0.57386,5.3493 -1.03849,7.96962c-0.14894,0.84 -0.44581,2.76312 -1.23427,3.26744c-3.36554,2.15264 -4.83076,-3.45192 -5.24053,-5.49616c-0.23769,-2.3859 -0.66229,-5.14838 -1.28584,-7.5297c-4.54074,0.26467 -9.1994,1.89434 -11.61364,4.34807c0,0 -0.53033,0.53033 -1.06066,0c-0.53033,-0.53033 0,-1.06066 0,-1.06066c2.74755,-2.7107 7.6275,-4.46316 12.4438,-4.75859l-0.002,-0.05445c0,0 0,-0.75 0.75,-0.75zM237.20485,168.71672c0.16027,0.80344 1.07154,5.6295 2.89069,4.49363c0.49498,-0.30907 0.6698,-2.73004 0.73321,-3.30386c0.27999,-2.53364 0.88903,-4.92205 0.92319,-7.47681c-1.68432,-0.69942 -3.69225,-1.03356 -5.78399,-1.05732c0.58252,2.35979 1.0027,5.011 1.2369,7.34436z" fill="#000000"/><path d="M235.94626,161.32731c2.09174,0.02376 4.14659,0.35979 5.83091,1.05921c-0.03417,2.55476 -0.63772,5.02579 -0.91771,7.55943c-0.06341,0.57382 -0.25858,3.00425 -0.75356,3.31331c-1.81915,1.13587 -2.77965,-3.70765 -2.93992,-4.51109c-0.2342,-2.33336 -0.6372,-5.06107 -1.21972,-7.42086z" data-paper-data="{&quot;noHover&quot;:false,&quot;origItem&quot;:[&quot;Path&quot;,{&quot;applyMatrix&quot;:true,&quot;segments&quot;:[[[467.65372,328.03382],[-0.4684,-4.66672],[0.32053,1.60687]],[[473.4351,337.02108],[-3.6383,2.27174],[0.98996,-0.61813]],[[474.90152,330.41336],[-0.12682,1.14764],[0.55997,-5.06727]],[[476.74791,315.45975],[-0.06834,5.10952],[-3.36864,-1.39885]],[[465.17993,313.3451],[4.18347,0.04753],[1.16504,4.71959]]],&quot;closed&quot;:true}]}" fill="#00ffe2"/><path d="M252.55635,175.44885c0,-0.72469 0.70024,-0.74914 0.7475,-0.74997c0.27222,-0.20402 0.51362,-0.45325 0.72465,-0.72255l-0.13672,-0.13822c-0.41819,-0.5024 -0.81552,-1.02257 -1.19573,-1.5543c0,0 -0.43593,-0.61029 0.17437,-1.04622c0.6103,-0.43593 1.04623,0.17437 1.04623,0.17437c0.35803,0.50181 0.73256,0.99254 1.12747,1.46587l0.30264,0.29829c0,0 0.34592,0.34592 0.19962,0.75839c0.11358,0.34598 -0.11965,0.67251 -0.11965,0.67251c-0.40857,0.5591 -0.90076,1.07452 -1.47204,1.46588l-0.64835,0.12596c0,0 -0.75,0 -0.75,-0.75zM253.27273,174.72191l-0.15008,0.1029c0.05101,-0.03274 0.10104,-0.06708 0.15008,-0.1029z" fill="#000000"/></g><g stroke="none" stroke-width="0.5" stroke-linecap="butt"><path d="M251.75888,180.38142c0.64312,-0.38587 1.02899,0.25725 1.02899,0.25725l0.04077,0.29585c0.87422,0.43746 1.46173,0.74365 2.4293,0.8559c0,0 0.64052,0.08006 0.65883,0.68587c0.21653,-0.00525 0.64843,0.05522 0.7574,0.60007c0.14709,0.73543 -0.58835,0.88252 -0.58835,0.88252c-2.63032,0.51592 -5.53564,0.19286 -8.21292,0.19286c-1.73093,0 -3.54015,0.06668 -5.36604,0.08501c-1.46572,2.41734 -3.26701,2.75128 -6.03836,3.82386c-3.26269,0.03644 -7.05945,0.46465 -9.14391,-2.63576c-1.03234,-1.5355 -1.76583,-4.36716 -1.27797,-6.30407c-0.12509,0.18715 -0.40809,0.47259 -0.89727,0.27692c-0.69636,-0.27855 -0.41782,-0.9749 -0.41782,-0.9749c0.38386,-0.87656 1.11845,-1.65178 1.97015,-2.08802l1.03932,0.11401c0,0 0.74246,0.10607 0.6364,0.84853c-0.04232,0.29624 -0.18596,0.4574 -0.34332,0.5441c0.22928,0.26771 0.44031,0.58238 0.67213,0.80696c1.23992,1.20123 1.58195,1.91468 3.28033,2.63766c2.95331,1.2863 6.3974,1.50244 9.80065,1.48103l0.60139,-0.29364c0,0 0.38648,0 0.60457,0.27743c1.67331,-0.0326 3.32128,-0.09914 4.87975,-0.09914c1.70688,0 3.53735,0.15543 5.31226,0.10741c-0.32899,-0.13891 -0.66188,-0.30039 -1.02734,-0.48298l-0.65619,-0.86575c0,0 -0.38587,-0.64312 0.25725,-1.02899zM240.68795,184.23485c-3.22118,-0.04639 -6.43065,-0.36069 -9.29229,-1.57009c-0.95861,-0.41333 -3.02909,-1.41425 -3.77984,-2.70654c0.00696,0.09016 0.01105,0.17049 0.01141,0.23427c0.00978,1.70192 -0.02571,2.92767 0.94214,4.39538c1.67033,2.53298 5.01621,1.96191 7.61548,1.99982c2.04656,-0.85107 3.38485,-1.01364 4.50311,-2.35283z" fill="#000000"/><path d="M236.21107,186.63024c-2.59927,-0.03791 -6.02007,0.50194 -7.6904,-2.03105c-0.96785,-1.4677 -0.92883,-2.72622 -0.93861,-4.42815c-0.00036,-0.06377 0.08527,-0.09998 0.07831,-0.19014c0.75075,1.29229 2.82546,2.28154 3.78407,2.69487c2.86164,1.2094 6.07182,1.51984 9.293,1.56623c-1.11826,1.33919 -2.4798,1.53716 -4.52636,2.38823z" data-paper-data="{&quot;noHover&quot;:false,&quot;origItem&quot;:[&quot;Path&quot;,{&quot;applyMatrix&quot;:true,&quot;segments&quot;:[[[474.61991,359.07007],[-2.23651,2.67839],[-6.44236,-0.09279]],[[456.03533,355.92989],[5.72328,2.41879],[-1.91721,-0.82666]],[[448.47564,350.51681],[1.50151,2.58458],[0.01392,0.18031]],[[448.49847,350.98535],[-0.00073,-0.12755],[0.01957,3.40385]],[[450.38274,359.7761],[-1.9357,-2.93541],[3.34066,5.06596]],[[465.6137,363.77573],[-5.19854,-0.07582],[4.09313,-1.70213]]],&quot;closed&quot;:true}]}" fill="#ffffff"/></g><g stroke="none" stroke-width="0.5" stroke-linecap="butt"><path d="M218.02073,197.30593c1.4007,4.15701 1.06107,10.63044 0.14443,14.89467c-0.35663,1.65905 -2.09196,3.65228 -1.39127,5.3326c0.72738,1.05549 1.47774,0.75406 2.23753,1.60772c1.03815,1.16643 0.12079,2.12813 2.11803,2.26156c1.12634,0.07525 2.18582,-1.57484 3.40209,-0.70375c0.46045,0.32978 0.14562,1.59564 0.29124,2.10448c0.08362,0.2922 0.34735,-0.49955 0.50153,-0.76148c0.3687,-0.62639 0.681,-1.28584 0.97236,-1.95174c0.7772,-1.77627 0.94576,-3.17685 0.67371,-5.08119c0.00812,-4.63643 -2.5532,-9.04371 -3.08132,-13.6271c-0.23299,-2.02207 -0.04341,-4.20592 -0.00971,-6.27201c-1.99197,0.38214 -3.88231,0.62179 -6.00108,0.62179c-0.0319,-0.00079 -0.06355,-0.00183 -0.09497,-0.00314c0.08508,0.52494 0.16382,1.05094 0.23743,1.5776zM225.37942,201.21197c0.531,4.61856 3.07931,9.00999 3.08718,13.69051c0.40298,2.82085 -0.27272,5.55065 -1.87879,7.94769c-0.40089,0.59833 -1.41114,1.92123 -2.43585,1.29469c-1.44439,-0.88315 -1.06701,-1.56146 -0.58998,-2.30159c0.28895,-0.44831 -0.83355,0.70637 -1.33945,0.87532c-0.91952,0.30709 -1.86645,0.21685 -2.75896,-0.1837c-1.45218,-0.65171 -0.79738,-1.47969 -1.5435,-2.36492c-0.62858,-0.74576 -1.7025,-0.87761 -2.46227,-1.91713c-0.95323,-2.43929 0.75431,-4.08401 1.25237,-6.41691c0.87136,-4.08138 1.16413,-10.20645 -0.14931,-14.18536c-0.09519,-0.65367 -0.19496,-1.30674 -0.3036,-1.95831l-0.0102,-0.27017c0,0 0,-0.01128 0.00138,-0.03108c-3.62703,-1.63688 -1.65973,-8.66703 1.51935,-10.58775c1.95753,-1.18268 4.1305,0.29998 6.07553,0.94832c0,0 0.71151,0.23717 0.47434,0.94868c-0.10013,0.30038 -0.2848,0.43168 -0.46478,0.48312c0.99362,1.62466 4.58481,4.94633 3.60613,7.04259c-0.14767,0.31631 -1.4913,0.48005 -2.07597,0.57955c-0.0184,2.09766 -0.2409,4.34267 -0.00363,6.40646zM222.12484,186.63532c-1.01317,-0.47668 -2.19204,-1.02816 -2.96009,-0.89926c-3.07465,0.51601 -5.17575,8.63015 -1.28647,8.49542c2.49615,0 4.62261,-0.34746 7.04385,-0.8655c0.42165,-0.09021 1.27988,0.45209 1.2934,0.02111c0.04811,-1.53352 -2.92338,-4.22964 -3.72186,-5.56265l-0.31821,-0.78907c0,0 -0.07346,-0.18365 -0.05062,-0.40005z" fill="#000000"/><path d="M222.19415,186.98899l0.32816,0.79447c0.79848,1.333 3.78318,4.09744 3.73507,5.63096c-0.01352,0.43098 -0.87575,-0.106 -1.2974,-0.01579c-2.42125,0.51803 -4.61508,0.87321 -7.11123,0.87321c-3.88928,0.13473 -1.77845,-8.06569 1.29621,-8.58171c0.76805,-0.1289 1.98279,0.42116 2.99595,0.89784c-0.02284,0.2164 0.05323,0.40102 0.05323,0.40102z" data-paper-data="{&quot;noHover&quot;:false,&quot;origItem&quot;:[&quot;Path&quot;,{&quot;applyMatrix&quot;:true,&quot;segments&quot;:[[[222.12484,186.63532],[-0.02284,0.2164],[-1.01317,-0.47668]],[[219.16474,185.73606],[0.76805,-0.1289],[-3.07465,0.51601]],[[217.87827,194.23148],[-3.88928,0.13473],[2.49615,0]],[[224.92212,193.36598],[-2.42125,0.51803],[0.42165,-0.09021]],[[226.21552,193.38708],[-0.01352,0.43098],[0.04811,-1.53352]],[[222.49366,187.82444],[0.79848,1.333],[0,0]],[222.17545,187.03536]],&quot;closed&quot;:true}]}" fill="#0032ff"/><path d="M217.76864,195.68053c0.03141,0.00131 0.06338,0.00226 0.09528,0.00305c2.11877,0 4.03069,-0.24122 6.02266,-0.62336c-0.0337,2.06609 -0.21757,4.25112 0.01542,6.27319c0.52811,4.58339 3.10888,9.07706 3.10076,13.71349c0.27205,1.90434 0.08968,3.31325 -0.68751,5.08952c-0.29136,0.66589 -0.60939,1.32725 -0.97809,1.95364c-0.15417,0.26193 -0.42025,1.05424 -0.50387,0.76204c-0.14561,-0.50884 0.16986,-1.77484 -0.29059,-2.10462c-1.21627,-0.87109 -2.28981,0.78017 -3.41615,0.70492c-1.99724,-0.13343 -1.09044,-1.0969 -2.12859,-2.26333c-0.75979,-0.85366 -1.52222,-0.55739 -2.2496,-1.61289c-0.7007,-1.68032 1.02248,-3.68367 1.37911,-5.34273c0.91664,-4.26423 1.27839,-10.81803 -0.12231,-14.97504c-0.0736,-0.52666 -0.15143,-1.05295 -0.23651,-1.57789z" data-paper-data="{&quot;noHover&quot;:false,&quot;origItem&quot;:[&quot;Path&quot;,{&quot;applyMatrix&quot;:true,&quot;segments&quot;:[[[218.02073,197.30593],[-0.0736,-0.52666],[1.4007,4.15701]],[[218.16516,212.20061],[0.91664,-4.26423],[-0.35663,1.65905]],[[216.77389,217.5332],[-0.7007,-1.68032],[0.72738,1.05549]],[[219.01142,219.14092],[-0.75979,-0.85366],[1.03815,1.16643]],[[221.12945,221.40249],[-1.99724,-0.13343],[1.12634,0.07525]],[[224.53154,220.69874],[-1.21627,-0.87109],[0.46045,0.32978]],[[224.82278,222.80322],[-0.14561,-0.50884],[0.08362,0.2922]],[[225.3243,222.04174],[-0.15417,0.26193],[0.3687,-0.62639]],[[226.29666,220.09],[-0.29136,0.66589],[0.7772,-1.77627]],[[226.97037,215.00881],[0.27205,1.90434],[0.00812,-4.63643]],[[223.88905,201.3817],[0.52811,4.58339],[-0.23299,-2.02207]],[[223.87934,195.10969],[-0.0337,2.06609],[-1.99197,0.38214]],[[217.87827,195.73148],[2.11877,0],[-0.0319,-0.00079]],[[217.7833,195.72833],[0.03141,0.00131],[0.08508,0.52494]]],&quot;closed&quot;:true}]}" fill="#fff1e2"/></g></g></g></svg>