<svg version="1.1" xmlns="http://www.w3.org/2000/svg" xmlns:xlink="http://www.w3.org/1999/xlink" width="135.49122" height="249.11071" viewBox="0,0,135.49122,249.11071"><g transform="translate(-164.69404,-80.61343)"><g data-paper-data="{&quot;isPaintingLayer&quot;:true}" fill-rule="nonzero" stroke-miterlimit="10" stroke-dasharray="" stroke-dashoffset="0" style="mix-blend-mode: normal"><g stroke-linecap="butt" stroke-linejoin="miter"><g fill="#686868" stroke="#000000" stroke-width="1"><path d="M195.90828,328.91508v-104.61283h101.23822v104.61283z"/><path d="M177.34795,319.63495v-104.61283l18.56034,9.28017v104.61283z"/><path d="M195.79516,223.83146l-17.71669,-8.85834l102.92552,1.26548l16.45121,8.43652z"/></g><path d="M199.48505,229.00103c0,-0.82843 0.67157,-1.5 1.5,-1.5c0.82843,0 1.5,0.67157 1.5,1.5c0,0.82843 -0.67157,1.5 -1.5,1.5c-0.82843,0 -1.5,-0.67157 -1.5,-1.5z" fill="#b9b9b9" stroke="none" stroke-width="0.5"/><path d="M291.48505,229.66769c0,-0.82843 0.67158,-1.5 1.5,-1.5c0.82842,0 1.5,0.67157 1.5,1.5c0,0.82843 -0.67158,1.5 -1.5,1.5c-0.82842,0 -1.5,-0.67157 -1.5,-1.5z" fill="#b9b9b9" stroke="none" stroke-width="0.5"/><path d="M292.81838,325.33436c0,-0.82842 0.67158,-1.5 1.5,-1.5c0.82842,0 1.5,0.67158 1.5,1.5c0,0.82842 -0.67158,1.5 -1.5,1.5c-0.82842,0 -1.5,-0.67158 -1.5,-1.5z" fill="#b9b9b9" stroke="none" stroke-width="0.5"/><path d="M198.81838,326.33436c0,-0.82842 0.67157,-1.5 1.5,-1.5c0.82843,0 1.5,0.67158 1.5,1.5c0,0.82842 -0.67157,1.5 -1.5,1.5c-0.82843,0 -1.5,-0.67158 -1.5,-1.5z" fill="#b9b9b9" stroke="none" stroke-width="0.5"/></g><path d="M230.09846,211.18828c1.29775,-1.32159 4.11957,-2.34956 5.18704,-1.03107c1.00361,1.2392 0.44961,2.48804 0.44961,2.48804c-0.59786,1.45498 -1.57882,4.17648 -2.56943,5.83626c-0.17605,0.29288 -0.35075,0.55964 -0.52933,0.82269l0.01493,-0.01159c0,0 0.68187,2.08413 -0.33078,2.35663c-0.61035,0.16526 -1.1601,-0.10086 -1.50709,-0.33173c-0.92746,0.69763 -1.87243,0.92213 -2.82692,0.51671c-2.23413,-0.94789 -1.46438,-5.32807 -1.46438,-5.32807c0.24701,-1.10838 2.27861,-3.99627 3.57636,-5.31786v0v0v0v0v0z" data-paper-data="{&quot;index&quot;:null}" fill="#be1e2d" stroke="#231f20" stroke-width="0.78673" stroke-linecap="round" stroke-linejoin="round"/><g stroke="#000000" stroke-width="1" stroke-linecap="butt" stroke-linejoin="miter"><path d="M276.72181,266.9345c-6.94903,2.48678 -51.07106,1.87124 -57.88411,-0.34832c-7.86831,-2.56336 -6.89912,-21.57451 1.11074,-24.14005c6.78323,-2.17265 50.64342,-1.76459 57.67502,0.99318c6.36836,2.49765 6.19476,20.95566 -0.90165,23.49519z" data-paper-data="{&quot;index&quot;:null}" fill="#363636"/><path d="M272.63389,263.4028c-5.53329,1.76301 -40.66621,1.32662 -46.09121,-0.24694c-6.26528,-1.8173 -5.49355,-15.29531 0.88444,-17.11416c5.40126,-1.5403 40.32569,-1.25101 45.92472,0.70411c5.07091,1.77071 4.93268,14.85658 -0.71796,16.65699z" data-paper-data="{&quot;index&quot;:null}" fill="#4a4a4a"/></g><g stroke="#000000" stroke-width="1" stroke-linecap="butt" stroke-linejoin="miter"><path d="M277.22181,314.9345c-6.94903,2.48678 -51.07106,1.87124 -57.88411,-0.34832c-7.86831,-2.56336 -6.89912,-21.57451 1.11074,-24.14005c6.78323,-2.17265 50.64342,-1.76459 57.67502,0.99318c6.36836,2.49764 6.19476,20.95567 -0.90165,23.49519z" data-paper-data="{&quot;index&quot;:null}" fill="#363636"/><path d="M273.13389,311.4028c-5.53329,1.76301 -40.66621,1.32662 -46.09121,-0.24694c-6.26528,-1.8173 -5.49355,-15.29531 0.88444,-17.11416c5.40126,-1.5403 40.32569,-1.25101 45.92472,0.70412c5.07091,1.77071 4.93268,14.85658 -0.71796,16.65699z" data-paper-data="{&quot;index&quot;:null}" fill="#4a4a4a"/></g><g stroke-width="0.90025"><path d="M248.4063,206.47446v0v0v0v0v0c0.38792,2.85315 -0.32901,8.09427 -3.55658,9.90702c-3.19235,1.7893 -6.5577,1.51487 -10.02565,-0.9397c-2.87331,-2.03443 -2.74945,-7.77631 -2.41644,-10.98639v0c0,0 0.09041,-7.43246 6.24936,-8.29178c6.15705,-0.85923 8.95836,4.87007 9.39984,8.43235c0.14354,0.62766 0.26527,1.26794 0.34948,1.87848z" fill="#be1e2d" stroke="#000000" stroke-linecap="butt" stroke-linejoin="miter"/><path d="M246.63281,214.62415v0v0v0v0v0l-0.01669,0.1454c-0.47808,0.65858 -1.0631,1.21549 -1.76547,1.61013c-2.95698,1.65769 -6.06106,1.54505 -9.25893,-0.43183l-0.03191,-0.14677c0,0 -1.61344,-9.46819 4.31573,-9.83601c6.73265,-0.41446 6.81458,7.07827 6.75726,8.65908z" fill="#e6e7e8" stroke="#231f20" stroke-linecap="round" stroke-linejoin="round"/></g><g stroke="#000000" stroke-width="0.90025" stroke-linecap="round" stroke-linejoin="round"><path d="M284.75304,173.29505l-0.35553,1.62663c-2.05956,8.24728 -5.73836,13.28496 -5.73836,13.28496c0,0 -0.00814,-1.42844 -0.3432,-3.68585l-0.13586,-0.03112c-0.24342,1.23753 -0.69043,2.84905 -1.50721,4.87067c-1.7905,4.43922 -8.03228,8.71469 -8.03228,8.71469c0,0 0.25121,-1.48362 0.24584,-3.86247l-0.13335,-0.34844c-0.65588,0.64715 -1.34372,1.25185 -2.04112,1.84384c-0.20511,0.17516 -0.41051,0.34659 -0.62012,0.51388c-0.63731,0.51415 -1.28938,1.00963 -1.95884,1.47951c-0.26471,0.18388 -0.54147,0.35819 -0.81058,0.53613c-0.49079,0.32555 -0.99048,0.6373 -1.49901,0.94189c-0.37383,0.2215 -0.75044,0.4425 -1.13564,0.65242c-0.39847,0.21986 -0.81053,0.42372 -1.21917,0.63372c-0.75234,0.37719 -1.51844,0.73675 -2.30486,1.07751c-0.25659,0.11106 -0.51328,0.22213 -0.77505,0.32826c-0.56225,0.22979 -1.12947,0.45637 -1.70935,0.66611l0.002,0.00161c-2.91059,1.05799 -6.03119,1.89073 -9.40352,2.50035c-3.64858,0.65857 -6.98363,1.01046 -10.11916,1.15375v0c-2.48123,0.11209 -4.81898,0.08108 -7.04606,-0.0697c-0.10767,-0.00678 -0.21641,-0.01432 -0.32496,-0.02101c-0.68903,-0.05134 -1.36825,-0.11203 -2.03607,-0.1851c-0.23327,-0.0272 -0.45718,-0.06 -0.68964,-0.08905c-0.88847,-0.1081 -1.75496,-0.23913 -2.61146,-0.38607c-0.54146,-0.09337 -1.07987,-0.19087 -1.60765,-0.29964c-0.31327,-0.06198 -0.62794,-0.1285 -0.93556,-0.19668c-0.84042,-0.18937 -1.6742,-0.384 -2.48639,-0.60429l-0.12031,0.14765c0.53337,2.10249 1.387,3.16761 2.02724,3.64756c1.30529,0.9801 3.60608,0.98041 3.60608,0.98041c0,0 -6.83076,1.79897 -11.22277,-3.21c-0.46666,-0.53247 -0.93926,-1.08553 -1.39568,-1.6801l-0.2066,-0.34635c-0.85241,-0.18325 -1.7259,-0.45721 -2.60071,-0.83888c-5.33645,-2.34858 -6.23702,-4.69471 -6.23702,-4.69471l0.20422,0.87464c0.74177,2.25513 1.37608,3.65914 1.37608,3.65914c0,0 -6.42583,-3.15665 -9.74403,-8.6246c-2.67592,-4.41416 -3.16422,-7.22039 -3.23187,-7.69362l-0.39193,-1.67381c-0.87616,-6.63161 -1.30742,-14.13446 -1.23309,-21.57384l0.03348,-0.20199c0.16371,-5.76329 -1.66757,-15.06559 4.64994,-25.54103c11.83885,-19.625 26.06977,-20.65366 33.04462,-34.95026c5.13025,-10.5175 2.26915,-21.55821 2.26915,-21.55821c0,0 4.43797,5.05426 6.32485,8.10636c1.82939,2.97578 3.86111,6.84956 3.86111,6.84956l0.0471,-0.04051c0.02158,-0.12238 0.0393,-0.247 0.05254,-0.37108c0.20442,-1.93246 -0.27304,-4.69859 -0.27304,-4.69859c0,0 4.86134,10.43008 11.54068,16.86007c6.67535,6.42688 15.39721,7.46751 28.85656,30.5756c1.67452,2.87134 3.20122,5.27432 4.18213,8.02124l0.4831,1.59038c1.5052,4.97025 2.71365,19.04615 1.43032,25.33848zM213.37924,157.46321c0,0 -6.12204,8.14958 -4.51734,18.30685c1.41983,8.98719 4.03562,11.50891 5.35462,12.06257c1.35572,0.56504 3.28577,-0.08898 3.28577,-0.08898c0,0 -5.25541,3.6663 -10.2744,0.11114c-3.35688,-2.37616 -7.07201,-5.51325 -9.118,-15.34697M273.00954,166.98114c0,0 1.14527,2.4116 -0.36868,7.90874c-1.70216,6.19282 -6.49028,8.60648 -6.49028,8.60648c0,0 3.12558,-9.59943 -1.31888,-17.76233c-1.94013,-3.56652 -6.94379,-5.80741 -12.06106,-7.20469c-6.93486,-1.89557 -14.07718,-2.24066 -14.07718,-2.24066M278.19936,184.387c-0.2382,1.25166 -0.68988,2.9015 -1.53143,4.9776c-1.78961,4.43911 -8.0314,8.71459 -8.0314,8.71459c0,0 0.72826,-4.32799 -0.32809,-10.04651M200.3477,179.66868c-0.53711,1.36591 -0.90634,2.80611 -1.03616,4.29672c-0.82273,9.29536 3.54288,18.91804 3.54288,18.91804c0,0 -6.42385,-3.15515 -9.74405,-8.6247c-2.94382,-4.85468 -3.23983,-7.76455 -3.23983,-7.76455M284.39375,174.92856c-2.06136,8.24747 -5.73924,13.28507 -5.73924,13.28507c0,0 -0.03527,-8.11675 -4.48708,-16.27971c-0.2009,-0.36912 -0.42124,-0.7249 -0.65098,-1.06853M238.69436,156.28859c0,0 1.22385,0.18141 4.64282,2.35223c3.41908,2.17081 4.88286,4.80409 4.88286,4.80409c0,0 -9.53218,-1.39749 -14.86596,-2.67274c-5.32861,-1.2777 -23.1364,-4.0427 -23.1364,-4.0427M213.6291,197.44786c2.95894,3.71477 5.81387,5.59025 5.81387,5.59025c0,0 -5.92143,2.65019 -11.93165,0.008c-5.33645,-2.34848 -6.23702,-4.69471 -6.23702,-4.69471M268.74746,193.8703c-6.03472,5.94979 -13.77555,9.42453 -23.4688,11.17632c-11.55647,2.08843 -20.25761,1.35322 -27.8543,-0.69811M217.15826,203.8432c0.50797,2.53767 1.46756,3.77202 2.17096,4.29801c1.30619,0.98001 3.60697,0.98031 3.60697,0.98031c0,0 -6.83254,1.79917 -11.22366,-3.20988c-0.46666,-0.53247 -0.93926,-1.08553 -1.39568,-1.6801M239.40023,156.51395c0,0 25.70322,0.18279 27.28356,14.25394" fill="#be1e2d"/><path d="M272.34839,176.38427c0.1911,10.2302 -10.06201,22.12486 -26.69039,25.07596c-14.6792,2.61362 -37.2785,-1.5932 -41.8453,-13.66858c-0.45533,-1.21404 -0.75822,-2.40248 -0.93418,-3.55783l0.34789,0.20084c1.30919,1.539 2.68856,2.59798 4.0143,3.53424c5.0188,3.55333 10.2742,-0.11296 10.2742,-0.11296c0,0 -1.92985,0.65585 -3.28556,0.09081c-1.31901,-0.55368 -3.93478,-3.07539 -5.35462,-12.06257c-1.60491,-10.15907 4.51734,-18.30685 4.51734,-18.30685l-0.00222,-0.23755c5.36291,0.85714 16.05157,2.60341 19.97508,3.54489c5.33388,1.27616 14.86596,2.67274 14.86596,2.67274c0,0 -1.46379,-2.63328 -4.88286,-4.80409c-1.71132,-1.08561 -2.8711,-1.67354 -3.60268,-1.99079l0.65556,0.02753c0,0 19.87514,0.65449 24.44525,9.05607c4.44367,8.16391 1.31978,17.76221 1.31978,17.76221c0,0 4.07698,-2.05684 6.03984,-7.23596l0.14266,0.01189z" fill="#e6e7e8"/></g><g stroke="#000000" stroke-width="0.90025" stroke-linecap="round" stroke-linejoin="miter"><path d="M277.16869,156.99099c0,0 7.85501,-11.3085 8.3014,-11.85285c0.44629,-0.54424 3.64769,-5.62012 14.19832,-8.45924c0,0 -3.39036,31.96293 -18.63878,40.9651c-0.00009,-0.00091 0.52538,-9.0947 -3.86093,-20.653zM277.25948,157.23476c-0.34234,-0.9581 -1.23724,-2.61655 -1.23724,-2.61655M280.52871,180.12254c0,0 0.44845,-1.56563 0.50084,-2.47946" fill="#be1e2d"/><path d="M286.87563,171.99919c0,0 -1.74835,-1.06849 -2.39767,-5.17934c-0.40682,-2.54949 0.17547,-7.35344 0.17547,-7.35344l-0.07267,0.15959c0.60939,-0.90796 1.24158,-1.95956 1.79351,-3.09679c0.93566,-1.92392 1.96395,-4.76546 2.88572,-7.55586l0.14771,-0.38682c0,0 2.68506,-5.17136 9.29832,-6.55879l0.08171,0.03376c-0.8758,4.901 -2.39166,12.11623 -4.40157,17.15885c-2.25442,5.65655 -5.12069,9.9081 -7.61761,12.88991zM282.18752,162.61055c0,0 2.08262,-2.60357 2.46592,-3.14412" fill="#929497"/></g><g stroke="#000000" stroke-width="0.90025" stroke-linecap="round" stroke-linejoin="miter"><path d="M192.56823,187.97886c-16.8484,-5.25199 -27.23763,-35.60491 -27.23763,-35.60491c10.90699,0.33294 15.15084,4.53893 15.70614,4.96521c0.55531,0.42639 10.71428,9.63106 10.71428,9.63106c-1.71088,12.27162 0.81721,21.00863 0.81721,21.00863zM192.34079,164.3955c0,0 -0.50402,1.8219 -0.62497,2.83413M192.56823,187.97886c0.25353,0.8781 1.03758,2.29971 1.03758,2.29971" fill="#be1e2d"/><path d="M185.75119,183.91309c-3.09346,-2.32956 -6.82722,-5.80997 -10.27823,-10.79896c-3.07675,-4.44829 -6.15206,-11.12709 -8.09188,-15.69914l0.07221,-0.05174c6.75055,-0.17308 10.51161,4.2442 10.51161,4.2442l0.22964,0.34272c1.51647,2.50552 3.14821,5.03625 4.4862,6.69454c0.78976,0.98044 1.63874,1.85899 2.43364,2.60289l-0.10618,-0.13871c0,0 1.63231,4.5452 1.80119,7.12249c0.27902,4.15412 -1.18724,5.59819 -1.18724,5.59819zM185.00819,171.10894c0.49321,0.43816 3.09913,2.49391 3.09913,2.49391" fill="#929497"/></g><path d="M228.41099,176.61101v0v0v0v0v0c0.73564,0.11951 1.23414,0.82248 1.11428,1.57099c-0.11778,0.75011 -0.8057,1.25717 -1.54631,1.14192c-0.04256,-0.00792 -4.33366,-0.67234 -8.26697,1.00921c-0.1211,0.05101 -0.24335,0.08463 -0.36763,0.09916c-0.58133,0.06792 -1.16177,-0.2587 -1.39935,-0.83358c-0.14017,-0.33567 -0.13025,-0.69901 -0.01007,-1.01721c-0.27651,-0.19445 -0.54684,-0.45584 -0.75622,-0.83512c-0.24505,-0.4395 -0.09229,-0.99921 0.34187,-1.24811c0.43041,-0.24285 0.98138,-0.09716 1.22784,0.34598c0.19547,0.35316 0.65283,0.40752 0.65841,0.40871c0.13492,0.01464 0.25721,0.063 0.36545,0.13143c0.12927,-0.04367 0.25924,-0.08833 0.38724,-0.12633c-0.1614,-0.19489 -0.31584,-0.4165 -0.42553,-0.69861c-0.18163,-0.47179 0.04713,-1.00085 0.51102,-1.18679c0.46695,-0.19091 0.98601,0.04889 1.16654,0.51897c0.14457,0.37569 0.58017,0.50262 0.58395,0.50402c0.20171,0.04471 0.36011,0.1644 0.483,0.31403c3.18673,-0.5262 5.78473,-0.12288 5.93248,-0.09868z" fill="#231f20" stroke="none" stroke-width="0.90025" stroke-linecap="butt" stroke-linejoin="miter"/><path d="M248.28579,216.99786c-2.52762,2.71019 -5.44034,3.80397 -6.50573,2.44302c-1.06539,-1.36094 0.11998,-4.66126 2.64758,-7.37145c2.52762,-2.71019 5.44034,-3.80397 6.50573,-2.44302c1.06539,1.36094 -0.11998,4.66126 -2.64758,7.37145z" fill="#be1e2d" stroke="#231f20" stroke-width="0.90025" stroke-linecap="butt" stroke-linejoin="miter"/><path d="M248.68973,209.73707c1.61648,-0.48635 3.50818,0.09334 3.50818,0.09334c0,0 0.3829,6.02805 0.4736,8.20794c0.09146,2.18308 0.79861,5.6118 0.79861,5.6118c0,0 0.46536,0.35341 0.25707,1.23821c-0.21186,0.88261 -1.91579,1.00983 -4.07236,1.41878c-2.1525,0.40369 -3.85185,-0.0362 -4.11599,-0.91884c-0.26719,-0.87852 0.39075,-1.26726 0.39075,-1.26726c0,0 1.55144,-7.14586 0.84802,-9.63785c0.00414,0.00537 -0.14885,-4.12631 1.91212,-4.74614z" fill="#be1e2d" stroke="#231f20" stroke-width="0.90025" stroke-linecap="round" stroke-linejoin="round"/><path d="M255.94373,199.55939c-0.43,2.36869 -3.59223,6.34849 -4.22321,7.18498c-0.63139,0.8357 -2.66248,1.82051 -3.7621,0.98083c-1.10041,-0.83899 -0.86548,-2.80003 -0.86548,-2.80003c0.46975,-1.71957 1.21405,-4.92552 2.05299,-6.92021c0.15095,-0.35127 0.30439,-0.67487 0.45582,-0.99282l-0.01327,0.01414c0,0 -0.85758,-2.30677 0.12651,-2.72204c0.59548,-0.25131 1.16276,-0.00747 1.5294,0.22238c0.86527,-0.88957 1.78756,-1.251 2.77267,-0.88276c2.31136,0.84267 1.92667,5.91551 1.92667,5.91551v0v0v0v0v0z" data-paper-data="{&quot;index&quot;:null}" fill="#be1e2d" stroke="#231f20" stroke-width="0.78673" stroke-linecap="round" stroke-linejoin="round"/><path d="M256.448,172.90067c0.39405,3.50859 -0.53743,6.49901 -2.08054,6.67932c-1.5431,0.1803 -3.11347,-2.51782 -3.50753,-6.0264c-0.39405,-3.50859 0.53743,-6.49901 2.08054,-6.67932c0.36533,-0.04268 1.06017,0.67558 1.61246,0.29302c0.59874,-0.41475 0.33119,-1.92893 1.26856,-1.4466c0.56702,0.29176 0.00743,1.90044 -0.08179,3.38514c-0.06411,1.06665 1.73364,-2.35808 1.96836,-1.52992c0.09159,0.32317 -1.28806,5.07546 -1.26006,5.32478z" fill="#231f20" stroke="#000000" stroke-width="1" stroke-linecap="butt" stroke-linejoin="miter"/><path d="M226.92667,216.13353c-0.04248,-1.7382 2.39949,-2.8577 5.45429,-2.50045c3.05481,0.35724 5.56566,2.05593 5.60814,3.79414c0.04248,1.7382 -2.39948,2.85769 -5.45429,2.50045c-3.05481,-0.35724 -5.56567,-2.05594 -5.60814,-3.79415z" data-paper-data="{&quot;index&quot;:null}" fill="#be1e2d" stroke="#231f20" stroke-width="0.90025" stroke-linecap="butt" stroke-linejoin="miter"/><path d="M230.16513,213.26864c2.09427,0.48788 2.18965,4.62139 2.19346,4.61576c-0.55244,2.53185 1.42511,9.56565 1.42511,9.56565c0,0 0.68002,0.34626 0.46609,1.24006c-0.21062,0.89773 -1.88034,1.44461 -4.05296,1.17827c-2.17701,-0.27135 -3.88534,-0.29021 -4.14978,-1.1577c-0.261,-0.86991 0.18224,-1.25216 0.18224,-1.25216c0,0 0.49993,-3.46705 0.46012,-5.65178c-0.04037,-2.18149 -0.02016,-8.22234 -0.02016,-8.22234c0,0 1.85329,-0.6986 3.4959,-0.31576z" data-paper-data="{&quot;index&quot;:null}" fill="#be1e2d" stroke="#231f20" stroke-width="0.90025" stroke-linecap="round" stroke-linejoin="round"/><path d="M244.9346,183.95003c0.03104,0.41116 0.0131,0.81427 -0.04862,1.20313c-0.34594,2.17926 -2.06801,3.9094 -4.26228,4.08217c-2.29493,0.18069 -4.3351,-1.40287 -4.90828,-3.65972c-0.07265,-0.28602 -0.12174,-0.58284 -0.14478,-0.88828c-0.20494,-2.71539 9.159,-3.4527 9.36395,-0.73731z" fill="#231f20" stroke="#000000" stroke-width="1" stroke-linecap="butt" stroke-linejoin="miter"/></g></g></svg>