<svg version="1.1" xmlns="http://www.w3.org/2000/svg" xmlns:xlink="http://www.w3.org/1999/xlink" width="487.08585" height="302.91124" viewBox="0,0,487.08585,302.91124"><defs><radialGradient cx="119.04996" cy="30.87153" r="11.39944" gradientUnits="userSpaceOnUse" id="color-1"><stop offset="0" stop-color="#ffffff"></stop><stop offset="1" stop-color="#ffc0c0"></stop></radialGradient><radialGradient cx="92.1282" cy="32.27123" r="7.85681" gradientUnits="userSpaceOnUse" id="color-2"><stop offset="0" stop-color="#ffffff"></stop><stop offset="1" stop-color="#ffc0c0"></stop></radialGradient><radialGradient cx="245.52582" cy="112.79489" r="9.6068" gradientUnits="userSpaceOnUse" id="color-3"><stop offset="0" stop-color="#ffffff"></stop><stop offset="1" stop-color="#fecaca"></stop></radialGradient><radialGradient cx="281.48778" cy="112.79489" r="8.27252" gradientUnits="userSpaceOnUse" id="color-4"><stop offset="0" stop-color="#ffffff"></stop><stop offset="1" stop-color="#fecaca"></stop></radialGradient></defs><g transform="translate(1.19558,1.55009)"><g stroke-miterlimit="10"><g><g fill-rule="evenodd"><path d="M55.51087,81.14745c0.8237,-0.45762 6.77262,3.02021 9.88436,2.47108c2.19652,-0.45761 4.85065,-1.18978 7.04718,-3.20326c5.0337,-4.48457 6.58957,-11.89784 10.0674,-9.97588c3.56935,1.92196 3.47783,13.91131 -7.68783,17.57218c-3.84392,1.2813 -7.32174,1.2813 -10.15892,1.18978c-0.73218,0 -7.04718,-0.64066 -9.2437,-3.7524c-2.19653,-3.11174 -0.64066,-3.93544 0.09152,-4.30152z" fill="#ffab19" stroke="#001026" stroke-width="1.2" stroke-linecap="round" stroke-linejoin="round"></path><path d="M78.20828,73.73418c1.46435,-2.105 1.92196,-3.47783 3.7524,-3.11174c1.83044,0.54914 2.74565,4.39305 1.83044,7.59631c-0.91521,3.20327 -2.37957,4.85066 -3.56935,6.04044c0.18304,-0.64066 0.54913,-2.65413 -1.00674,-3.84392c-1.92196,-1.55587 -5.30827,-0.73218 -5.30827,-0.73218c0,0 2.83717,-3.47783 4.30152,-5.94891z" fill="#ffffff" stroke="none" stroke-width="1" stroke-linecap="butt" stroke-linejoin="miter"></path></g><g><path d="M43.94669,62.20979c4.38587,0.67253 3.64336,5.52622 3.02238,13.23206c-0.45685,5.66915 -1.45029,14.99116 -6.54412,15.25948c-4.14447,0.21831 -1.52366,-11.54213 -1.34193,-16.52658c0.18173,-4.98445 1.55928,-12.47167 4.86368,-11.96497z" fill="#ffab19" fill-rule="evenodd" stroke="#001026" stroke-width="1.2" stroke-linecap="round" stroke-linejoin="round"></path><path d="M40.45414,88.56407c0.78201,-8.62767 0.88655,-14.12891 5.85785,-14.03619c3.74549,0.06986 3.24021,8.60019 3.09188,14.13901c-0.14962,5.5872 1.77441,19.19507 1.77441,19.19507c0,0 -18.91928,7.68472 -20.6036,1.56345c-3.34337,-12.15064 8.75206,-9.39884 8.75206,-9.39884c0,0 0.99118,-9.95955 1.12739,-11.46252z" fill="#ffab19" fill-rule="evenodd" stroke="#001026" stroke-width="1.2" stroke-linecap="round" stroke-linejoin="round"></path><g fill-rule="evenodd"><path d="M52.34746,81.39065c-10.65824,2.15044 -10.05676,-7.84363 -10.78334,-12.64784c-0.95072,-6.28626 1.97853,-10.9574 7.89245,-11.16987c5.91393,-0.21247 9.30482,5.57991 10.30037,10.51627c0.50356,2.49685 3.24875,11.15101 -7.40949,13.30145z" fill="#ffab19" stroke="#001026" stroke-width="1.2" stroke-linecap="round" stroke-linejoin="round"></path><path d="M49.43568,78.83678c-1.69255,0.08596 -5.00802,0.65349 -6.34665,-6.33542c-1.34542,-7.02437 1.38488,-10.1076 4.20004,-10.07119c5.65451,0.01036 6.86199,6.50243 7.08076,9.48269c-0.0056,3.67366 -0.89104,6.71859 -4.93415,6.92393z" fill="#ffffff" stroke="none" stroke-width="1" stroke-linecap="butt" stroke-linejoin="miter"></path></g><path d="M59.81591,75.43123c0,0 1.03461,10.47589 1.28792,15.62668c0.22636,4.60254 0.16022,13.07282 0.16022,13.07282c0,0 17.16279,0.52847 8.68882,15.44679c-3.41613,6.01407 -19.79121,-10.13697 -19.79121,-10.13697c0,0 1.63019,-11.96583 1.9561,-17.83214c0.31749,-5.71483 -0.02525,-11.30634 -0.02525,-11.30634" fill="#ffab19" fill-rule="nonzero" stroke="#001026" stroke-width="1.2" stroke-linecap="round" stroke-linejoin="miter"></path><g fill-rule="evenodd"><path d="M30.63381,14.32407c2.01118,-0.71835 6.20066,-1.79693 8.74716,-2.03156c4.25509,-0.52024 8.53387,0.6886 8.53387,0.6886l12.49319,-9.06308c0.33114,-0.24643 0.82361,-0.04215 0.79081,0.34548l0.6677,16.98924c-0.65379,-0.65499 11.8551,9.42279 7.09828,21.10903c-4.75683,11.68624 -17.77812,23.53545 -35.21261,22.91509c-17.4345,-0.62036 -25.45836,-12.82774 -25.19322,-18.31758c0.26516,-5.48985 5.77828,-8.83567 5.77828,-8.83567c0,0 0.07242,-5.39329 2.16465,-10.99749c1.23736,-3.35953 5.59881,-8.28074 5.59881,-8.28074l-0.50573,-10.84863c0.03281,-0.38764 0.46815,-0.55594 0.7665,-0.41474z" fill="#ffab19" stroke="#001026" stroke-width="1.2" stroke-linecap="butt" stroke-linejoin="miter"></path><path d="M16.38374,38.5119c7.63609,-3.03826 9.32128,2.71215 16.10419,2.10392c7.91587,-0.69409 21.70577,-13.2495 29.54444,-4.27972c7.82376,8.8766 -5.25394,28.58928 -28.5472,27.54089c-17.86684,-0.57941 -23.79714,-11.67915 -23.52942,-17.1689c0.26772,-5.48976 6.428,-8.19619 6.428,-8.19619z" fill="#ffffff" stroke="none" stroke-width="1" stroke-linecap="butt" stroke-linejoin="miter"></path><path d="M51.19118,44.60531c1.01049,4.52061 1.9523,13.16502 -6.37707,15.45426c-9.69343,2.1254 -15.17836,-6.84272 -16.41969,-9.22409c-0.26092,-0.43602 0.03716,-0.96155 0.51793,-0.94297c1.44232,0.05575 4.60826,2.38086 11.45606,0.44592c8.07777,-2.09336 8.32209,-5.23718 9.98791,-6.17282c0.35776,-0.15285 0.7752,0.06699 0.83487,0.43968z" fill="#001026" stroke="#001026" stroke-width="1.2" stroke-linecap="round" stroke-linejoin="round"></path><path d="M11.07356,44.14012c0,0 -6.72322,0.98091 -11.66914,-1.85843" fill="none" stroke="#001026" stroke-width="1.2" stroke-linecap="round" stroke-linejoin="round"></path><path d="M11.58101,49.69687c0,0 -3.35023,2.35206 -9.29458,2.82603" fill="none" stroke="#001026" stroke-width="1.2" stroke-linecap="round" stroke-linejoin="round"></path><path d="M33.81219,39.0967c1.86341,-0.29837 4.39395,-0.60798 4.4798,0.52498c0.23869,1.49073 -3.30156,4.44656 -5.00846,4.52874c-1.50564,0.14551 -3.32093,-2.2395 -3.4366,-3.55881c-0.01126,-0.66712 2.00866,-1.18165 3.96525,-1.49493z" fill="#001026" stroke="#001026" stroke-width="1.2" stroke-linecap="round" stroke-linejoin="round"></path><path d="M65.55774,37.38794c2.79853,-3.41042 10.39352,-7.30216 10.39352,-7.30216" fill="none" stroke="#001026" stroke-width="1.2" stroke-linecap="round" stroke-linejoin="round"></path><path d="M76.79086,39.5073c0,0 -6.73055,2.12882 -10.9905,1.18638" fill="none" stroke="#001026" stroke-width="1.2" stroke-linecap="round" stroke-linejoin="round"></path><g fill="#001026" stroke="#001026" stroke-width="1.2" stroke-linecap="round" stroke-linejoin="round"><path d="M16.83203,30.72406c1.0304,-4.94524 4.4249,-8.47428 7.53428,-7.74899c3.07552,0.63722 4.71435,5.1628 3.68395,10.10804c-1.11846,4.97909 -4.45875,8.3862 -7.53427,7.74898c-3.07552,-0.63722 -4.71435,-5.1628 -3.68395,-10.10803z"></path></g><g fill="#001026" stroke="#001026" stroke-width="1.2" stroke-linecap="round" stroke-linejoin="round"><path d="M41.11778,30.32546c0.30398,-5.01572 2.95237,-9.23258 6.57628,-8.86739c3.57556,0.28417 6.16896,4.99978 5.78392,10.06385c-0.304,5.01572 -3.19269,8.27722 -6.78529,8.33284c-3.10639,-0.23443 -5.87889,-4.51357 -5.57491,-9.5293z"></path></g></g><path d="M52.95005,74.83916c0.51165,-7.71387 0.48633,-12.62396 4.92339,-12.64841c3.34298,-0.01842 3.61172,7.58972 3.06318,12.54723c-0.54853,4.9575 0.32573,16.97466 -3.74236,16.15312c-4.99995,-1.00974 -4.6206,-10.37687 -4.24419,-16.05193z" fill="#ffab19" fill-rule="evenodd" stroke="#001026" stroke-width="1.2" stroke-linecap="round" stroke-linejoin="round"></path></g></g><g><path d="M114.0651,161.84447c-7.55424,0.11731 -7.41483,-29.89473 -7.53262,-41.74048c-0.11779,-11.84575 1.86069,-21.48083 6.4846,-21.55262c4.62391,-0.07179 4.69507,9.00824 4.81285,20.85398c0.11779,11.84574 2.95215,42.33481 -3.76484,42.43912z" fill="#b27812" fill-rule="nonzero" stroke="#001026" stroke-width="1.2" stroke-linecap="butt" stroke-linejoin="miter"></path><path d="M111.24289,117.74951c0,0 -4.9486,-1.70402 -5.75061,-4.34026c-0.75586,-2.48456 1.43914,-15.79683 3.63401,-27.72688c1.99561,-10.847 3.70373,-20.59416 8.71527,-19.19847c3.25822,0.90739 2.1881,8.99966 0.99046,17.55877c-1.38797,9.91927 -1.68495,24.57232 -1.68495,24.57232" fill="#b27812" fill-rule="nonzero" stroke="#001026" stroke-width="1.2" stroke-linecap="round" stroke-linejoin="miter"></path><path d="M114.86411,96.97134c0.29521,-2.30877 2.5939,-5.50804 7.73313,-3.3261c2.76727,1.14176 0.5867,13.08908 0.45165,24.5638c-0.15932,13.53742 1.34316,44.24602 0.00707,46.68398c-2.85651,5.2123 -29.45282,9.86099 -31.1031,0.85307c-1.53439,-8.3753 7.14006,-6.071 12.48531,-9.80156c4.01388,-2.80136 6.9354,-26.23222 7.38369,-28.87739c2.18632,-12.90059 2.88564,-28.46278 3.04226,-30.09581z" fill="#b27812" fill-rule="evenodd" stroke="#001026" stroke-width="1.2" stroke-linecap="round" stroke-linejoin="round"></path><g fill-rule="evenodd"><path d="M164.02905,85.43389c5.93939,-11.06947 5.55512,-24.72712 12.78082,-23.11087c7.38938,1.56833 13.50278,23.05702 -4.54831,35.44966c-20.96475,11.42465 -40.21475,1.84397 -40.21475,1.84397c0,0 20.65782,6.92302 31.98225,-14.18276z" fill="#b27812" stroke="#001026" stroke-width="1.2" stroke-linecap="round" stroke-linejoin="round"></path><path d="M175.92368,62.93786c3.5609,0.02369 7.21009,6.41868 7.25047,12.62629c0.04039,6.20762 -1.71585,9.92035 -3.22064,12.67098c-0.00808,-1.24152 -0.40755,-5.03394 -3.81286,-6.34707c-4.25165,-1.77615 -9.87619,1.46979 -9.87619,1.46979c0,0 3.25296,-7.70487 4.57793,-12.89063c1.51664,-4.53109 1.61624,-7.2257 5.0813,-7.52936z" fill="#cbcbcb" stroke="none" stroke-width="1" stroke-linecap="butt" stroke-linejoin="miter"></path></g><path d="M128.02447,99.59738c5.13924,-2.18195 7.43793,1.01732 7.73313,3.3261c0.15662,1.63304 1.37911,17.19522 3.56544,30.09581c0.44829,2.64515 2.84664,27.64556 6.8605,30.44692c5.34526,3.73055 14.01969,2.99578 12.4853,11.37109c-1.65029,9.00792 -28.2466,1.22017 -31.1031,-3.99213c-1.33607,-2.43795 0.1664,-33.14655 0.00707,-46.68397c-0.13505,-11.47472 -2.31562,-23.42203 0.45165,-24.5638z" fill="#b27812" fill-rule="evenodd" stroke="#001026" stroke-width="1.2" stroke-linecap="round" stroke-linejoin="round"></path><path d="M139.7748,162.56485c-8.39411,-0.10431 -4.85205,-30.59337 -4.70485,-42.43912c0.14719,-11.84574 0.2361,-20.92578 6.01452,-20.85398c5.77841,0.07181 8.25087,9.70688 8.10368,21.55264c-0.14719,11.84574 0.02702,41.85777 -9.41336,41.74046z" fill="#b27812" fill-rule="nonzero" stroke="#001026" stroke-width="1.2" stroke-linecap="butt" stroke-linejoin="miter"></path><g><path d="M126.41504,104.49316c-19.60116,0.8518 -10.49513,-11.51035 -10.4242,-17.52653c0.04653,-6.89244 -2.27354,-6.02998 -2.51566,-14.76252c-0.16032,-5.78216 7.11723,-7.27036 12.39435,-7.25854c6.20654,0.0139 9.85773,2.98285 10.01824,9.55452c0.15725,6.43812 -1.18795,7.7269 -0.91627,13.21203c0.27366,5.52543 9.3109,16.00458 -8.55644,16.78104z" fill="#b27812" fill-rule="evenodd" stroke="#001026" stroke-width="1.2" stroke-linecap="round" stroke-linejoin="round"></path><path d="M115.68068,77.91028c-0.57329,-1.22905 -0.47701,-2.00667 -0.74308,-2.96977c-0.35965,-1.30184 1.88285,-2.26148 5.12944,-2.34862c7.41587,-0.19903 11.16243,8.05979 11.16243,14.53236c0,6.47258 -4.28203,13.59478 -10.89293,13.59478c-5.89508,0 -6.73507,-2.76852 -5.29196,-6.56233c0.76897,-2.02155 1.76157,-4.13915 1.76157,-6.71635c0,-4.09003 -0.06349,-7.25335 -1.12546,-9.53008z" fill="#cbcbcb" fill-rule="nonzero" stroke="none" stroke-width="0" stroke-linecap="butt" stroke-linejoin="miter"></path></g><path d="M135.92331,109.33538c0,0 -0.37114,-14.65306 -2.10566,-24.57232c-1.49667,-8.55911 -2.83398,-16.65138 1.23776,-17.55877c6.26284,-1.39568 8.39741,8.35147 10.89129,19.19846c2.7429,11.93005 5.48595,25.24232 4.54135,27.72688c-1.00227,2.63624 -7.18642,4.34026 -7.18642,4.34026" fill="#b27812" fill-rule="nonzero" stroke="#001026" stroke-width="1.2" stroke-linecap="round" stroke-linejoin="miter"></path><path d="M74.07172,65.2055c0,0 1.65184,-16.78008 6.48796,-17.49055" fill="none" fill-rule="evenodd" stroke="#001026" stroke-width="1.2" stroke-linecap="round" stroke-linejoin="round"></path><path d="M80.63464,73.92248c0,0 -2.91702,-16.4803 0.63407,-20.95436" fill="none" fill-rule="evenodd" stroke="#001026" stroke-width="1.2" stroke-linecap="round" stroke-linejoin="round"></path><path d="M77.45783,70.13498c0,0 -1.16279,-16.74369 2.88762,-19.97326" fill="none" fill-rule="evenodd" stroke="#001026" stroke-width="1.2" stroke-linecap="round" stroke-linejoin="round"></path><path d="M102.78132,10.06562c2.63228,-0.75773 5.34238,-2.39899 11.3139,-2.46234c8.06395,-0.08554 14.11124,2.09811 14.11124,2.09811l13.11447,-10.7469c0.44129,-0.28394 1.06249,0.00271 0.99648,0.48197l-0.18376,21.14593c-0.3472,-0.3715 1.03282,8.09423 4.03084,15.09851c2.9782,6.95797 7.57335,12.45356 7.57335,12.45356c0,0 -5.7,0.76186 -6.63083,2.69413c-0.906,1.88071 2.41915,8.02833 2.41915,8.02833c0,0 -27.02103,11.31207 -46.4521,9.63236c-15.76165,-1.36251 -27.38616,-9.36215 -27.38616,-9.36215c0,0 1.71067,-5.07419 1.91163,-7.08929c0.35707,-3.58042 -3.66398,-2.75015 -3.66398,-2.75015c0,0 6.85925,-9.65055 10.18361,-15.09783c3.60776,-5.91165 5.97379,-15.95404 5.97379,-15.95404l0.63205,-15.94958c0.06601,-0.47926 0.6366,-0.65919 1.01186,-0.46388z" fill="#b27812" fill-rule="evenodd" stroke="#001026" stroke-width="1.2" stroke-linecap="butt" stroke-linejoin="miter"></path><path d="M84.75786,39.33793c9.37206,-4.07454 10.59682,2.60785 19.0588,2.27969c4.86307,-0.17898 18.2971,-3.97983 27.67139,-3.41507c9.6601,0.582 17.07909,6.34144 17.07909,6.34144l-5.64171,4.24703l1.2135,9.62785c0,0 -26.74965,10.2507 -38.11552,9.16022c-13.99438,-1.16548 -27.22626,-9.52773 -27.22626,-9.52773c0,0 2.03057,-7.89539 1.28471,-9.23735c-0.65963,-1.1868 -2.98443,-1.78829 -2.98443,-1.78829c0,0 2.56717,-5.47348 7.66043,-7.6878z" fill="#cbcbcb" fill-rule="evenodd" stroke="none" stroke-width="1" stroke-linecap="butt" stroke-linejoin="miter"></path><path d="M109.63799,40.88233c0.20254,1.86638 -3.03278,5.31425 -5.15778,5.3088c-1.87903,0.08589 -5.33065,-2.9904 -5.39123,-4.63614c0.02803,-0.82921 2.56899,-1.34099 5.01861,-1.60681c2.33298,-0.25316 5.49514,-0.47829 5.53039,0.93414z" fill="#001026" fill-rule="evenodd" stroke="#001026" stroke-width="1.2" stroke-linecap="round" stroke-linejoin="round"></path><path d="M145.60574,47.07321c8.29879,-0.71491 15.93101,15.05768 15.93101,15.05768" fill="none" fill-rule="evenodd" stroke="#001026" stroke-width="1.2" stroke-linecap="round" stroke-linejoin="round"></path><path d="M142.53672,50.55885c7.24031,3.30301 4.94395,20.34906 4.94395,20.34906" fill="none" fill-rule="evenodd" stroke="#001026" stroke-width="1.2" stroke-linecap="round" stroke-linejoin="round"></path><path d="M144.98159,49.39c7.71482,1.95284 8.43041,18.74505 8.43041,18.74505" fill="none" fill-rule="evenodd" stroke="#001026" stroke-width="1.2" stroke-linecap="round" stroke-linejoin="round"></path><path d="M129.14671,45.82738c0,0 -3.30733,1.5788 -6.68099,5.17354c-2.93128,3.12336 -4.52871,10.87474 -17.60509,10.80229c-10.74096,-0.05951 -12.83562,-6.16602 -16.06654,-8.53527c-3.92559,-2.87866 -4.27465,-3.57343 -4.27465,-3.57343" fill="none" fill-rule="nonzero" stroke="#001026" stroke-width="1.2" stroke-linecap="round" stroke-linejoin="miter"></path><g stroke="#001026" stroke-width="1.2"><path d="M111.46981,32.13859c-0.70506,-4.58829 0.27847,-8.98085 2.67614,-11.14466c0.82968,-0.74875 -0.47409,-4.83521 2.5012,-5.2841c3.07077,-0.7145 3.33996,4.00355 4.56132,4.71397c2.86999,1.66936 4.99284,5.53129 5.59837,9.91978c0.46345,3.01592 0.0678,5.68543 -0.96519,7.74551c-1.08235,2.15856 -0.19099,6.89944 -3.94998,7.88713c-3.56643,0.82533 -4.44759,-4.14492 -5.96887,-5.41818c-2.13543,-1.78729 -3.89877,-4.81282 -4.45298,-8.41946z" fill="url(#color-1)" fill-rule="evenodd" stroke-linecap="round" stroke-linejoin="round"></path><path d="M115.92284,40.55801c-1.2551,-1.05048 -1.31459,-1.24194 -2.14265,-3.01451c2.21881,2.47217 3.23199,5.24024 7.27367,4.48513c4.04168,-0.7551 4.03301,-4.06293 5.10984,-5.88819c-0.18278,1.19153 0.15712,0.99306 -0.322,1.9486c-0.48257,0.96237 -0.57278,2.43802 -0.85773,3.86551c-0.35418,1.77435 -1.00917,3.47432 -3.09228,4.02165c-3.56643,0.82533 -4.44759,-4.14494 -5.96887,-5.41818z" fill="#ff6f6f" fill-rule="nonzero" stroke-linecap="butt" stroke-linejoin="miter"></path><path d="M121.20848,20.4238c1.00299,0.58341 1.50821,1.42475 2.29584,2.47263c-2.08386,-1.29321 -4.28784,-1.70358 -6.81678,-0.92808c-2.29707,0.70439 -3.59524,1.70611 -4.65585,3.66402c0.42216,-2.17462 0.80736,-3.459 2.11429,-4.63847c0.82968,-0.74875 -0.4741,-4.8352 2.50119,-5.2841c3.07077,-0.71449 3.33996,4.00355 4.56132,4.71397z" fill="#ff6f6f" fill-rule="nonzero" stroke-linecap="butt" stroke-linejoin="miter"></path></g><g fill-rule="nonzero" stroke="none" stroke-width="0" stroke-linecap="butt" stroke-linejoin="miter"><path d="M120.29081,33.58532c0.66787,2.17797 -0.14357,4.35843 -1.8124,4.8702c-1.66885,0.51177 -3.56315,-0.83899 -4.23102,-3.01696c-0.66787,-2.17797 0.14357,-4.35843 1.8124,-4.87019c1.66885,-0.51176 3.56315,0.83899 4.23102,3.01696z" fill="#76aaf2"></path><path d="M119.11286,33.94655c0.40752,1.32895 -0.08758,2.65939 -1.10587,2.97165c-1.01827,0.31227 -2.17411,-0.51193 -2.58163,-1.84086c-0.40752,-1.32893 0.08758,-2.65939 1.10587,-2.97165c1.01827,-0.31226 2.17411,0.51194 2.58163,1.84087z" fill="#001026"></path></g><g stroke="#001026" stroke-width="1.2"><path d="M86.86144,30.92489c0.33956,-4.54465 1.76811,-8.3405 3.74477,-9.57027c0.68399,-0.42554 0.53675,-4.69924 2.59547,-4.12531c2.16906,0.35647 1.51663,4.87711 2.20406,5.95289c1.61534,2.5279 2.34712,6.8648 1.97659,11.18851c-0.22319,2.98724 -0.95692,5.36172 -2.00731,6.95068c-1.10058,1.66491 -1.34306,6.41519 -4.01818,6.08503c-2.51838,-0.41822 -2.2287,-5.38048 -3.01647,-7.08514c-1.10581,-2.39287 -1.74582,-5.82404 -1.47892,-9.39637z" fill="url(#color-2)" fill-rule="evenodd" stroke-linecap="round" stroke-linejoin="round"></path><path d="M88.34033,40.32127c-0.64994,-1.40641 -0.65577,-1.60611 -0.89432,-3.54774c1.04058,3.06394 1.22685,6.00235 4.04906,6.64551c2.82221,0.64317 3.39944,-2.46604 4.43761,-3.8198c-0.3316,1.05777 -0.07047,0.98514 -0.55768,1.72215c-0.49067,0.74227 -0.8108,2.09781 -1.25196,3.343c-0.54836,1.54776 -1.28376,2.925 -2.76622,2.74203c-2.51838,-0.41822 -2.2287,-5.38048 -3.01647,-7.08514z" fill="#ff6f6f" fill-rule="nonzero" stroke-linecap="butt" stroke-linejoin="miter"></path><path d="M95.40576,23.18219c0.56451,0.88345 0.75239,1.84259 1.09176,3.09014c-1.15858,-1.91163 -2.55267,-3.03441 -4.37198,-3.15229c-1.65251,-0.10707 -2.69278,0.39928 -3.74355,1.88305c0.66415,-1.9009 1.14679,-2.97813 2.22424,-3.64847c0.68398,-0.42554 0.53673,-4.69924 2.59546,-4.12531c2.16906,0.35647 1.51663,4.87711 2.20406,5.95289z" fill="#ff6f6f" fill-rule="nonzero" stroke-linecap="butt" stroke-linejoin="miter"></path></g><g fill-rule="nonzero" stroke="none" stroke-width="0" stroke-linecap="butt" stroke-linejoin="miter"><path d="M91.37284,39.96039c-1.38525,0.07914 -2.64815,-1.69758 -2.82078,-3.96842c-0.17263,-2.27084 0.81039,-4.17589 2.19566,-4.25503c1.38525,-0.07914 2.64815,1.69758 2.82078,3.96842c0.17263,2.27084 -0.81039,4.17589 -2.19566,4.25503z" fill="#76aaf2"></path><path d="M91.25098,38.35751c-0.84523,0.0483 -1.61583,-1.0358 -1.72116,-2.4214c-0.10533,-1.38561 0.49447,-2.54801 1.33971,-2.5963c0.84524,-0.04829 1.61583,1.03581 1.72116,2.42141c0.10533,1.38561 -0.49447,2.548 -1.33971,2.59629z" fill="#001026"></path></g></g><g fill-rule="nonzero" stroke-linejoin="miter"><path d="M418.17893,168.26332c6.95549,2.12351 5.92614,6.59682 7.14978,12.62171c1.26156,6.21162 4.66613,13.94659 4.66613,13.94659l4.88054,5.01791c0,0 4.43761,-0.21064 6.41768,0.8221c1.98007,1.03274 5.26004,1.72431 4.67619,4.10353c-0.54853,2.23526 0.1401,-3.62107 4.23835,1.89591c3.85162,5.18497 -1.21012,8.09886 -1.21012,8.09886c0,0 1.66096,4.07121 0.56541,7.02909c-0.51725,1.39651 -3.29232,3.45009 -3.74759,4.52751c-2.71219,6.41848 -9.21713,4.46843 -12.21718,2.36379c-4.51251,-3.16568 -10.02899,-10.68232 -10.02899,-10.68232c0,0 -6.76757,-6.84353 -7.6452,-12.49118c-0.87763,-5.64765 0.95055,-30.58976 0.95055,-30.58976" fill="#6b542b" stroke="#001026" stroke-width="4" stroke-linecap="round"></path><g stroke-linecap="round"><path d="M420.27269,211.43111c0,0 -8.88158,34.38728 -26.46748,43.98081c-15.94148,8.69647 -31.73459,0.58321 -37.76687,-14.13781c-7.80965,-19.05846 4.83098,-33.71649 15.07381,-25.86949c10.25512,7.85641 11.45741,23.38748 20.40717,22.6641c8.94976,-0.72339 28.75337,-26.6376 28.75337,-26.6376z" fill="#6b542b" stroke="none" stroke-width="0"></path><path d="M377.81196,239.29629c-3.60586,3.71254 -8.67278,15.09323 1.10644,17.13883c10.52207,2.20099 24.0015,-5.99548 14.88681,-1.0232c-15.94148,8.69647 -31.73459,0.58321 -37.76687,-14.13781c-7.80965,-19.05846 4.83098,-33.71649 15.07381,-25.86949c10.25512,7.85641 8.95741,21.88748 17.90717,21.1641c4.21334,-0.34055 2.60451,2.7231 0.35924,1.74709c-2.52402,-1.09718 -6.74791,-3.98077 -11.56661,0.98049z" fill="#dac3a1" stroke="none" stroke-width="0"></path><path d="M420.27269,211.43111c0,0 -8.88157,34.38728 -26.46747,43.98081c-15.94148,8.69647 -31.7346,0.58321 -37.76687,-14.13781c-7.80965,-19.05846 4.83099,-33.71649 15.07381,-25.86949c10.25512,7.85641 11.4574,22.88748 20.40717,22.1641c8.94976,-0.72339 28.75337,-26.1376 28.75337,-26.1376z" fill="none" stroke="#001026" stroke-width="4"></path></g><path d="M433.39242,191.11873c4.95008,25.90017 2.40745,57.5383 2.40745,57.5383c0,0 9.23682,-0.77956 17.92168,3.0548c11.50445,5.07921 8.58264,18.27274 -10.59535,16.87984c-16.77381,-1.21828 -31.5463,-0.53434 -26.72463,-22.93908c4.39011,-20.39941 2.5559,-41.07511 2.5559,-41.07511" fill="#6b542b" stroke="#001026" stroke-width="4" stroke-linecap="round"></path><g><path d="M432.39573,188.23492c5.02218,13.63927 -7.84845,23.53678 -20.4819,18.77508c-6.20826,-2.33996 -4.77912,-19.11644 -4.77912,-19.11644c0,0 -10.55074,-14.40606 0.68273,-19.45781c11.02248,-4.95686 20.43203,8.53873 24.57829,19.79917z" fill="#6b542b" stroke="#001026" stroke-width="4" stroke-linecap="round"></path><path d="M432.09567,193.40406c0,6.03298 -3.74445,10.92368 -8.36345,10.92368c-4.619,0 -8.70481,-2.84251 -8.70481,-8.87549c0,-6.03298 -3.40614,-11.81101 3.24298,-17.06825c6.02647,-4.76494 13.82528,8.98708 13.82528,15.02006z" fill="#dac3a1" stroke="none" stroke-width="0" stroke-linecap="butt"></path></g><path d="M425.91599,206.96231l1.36546,55.98388c0,0 7.08422,3.14058 16.04416,13.99597c12.79207,15.49821 -6.67204,25.59739 -22.18873,21.506c-8.19767,-2.16153 -11.64567,-9.91713 -13.33352,-12.9016c-4.21632,-7.45534 -4.56919,-16.43265 -4.0761,-21.4653c2.3574,-24.0601 4.77911,-61.44572 4.77911,-61.44572" fill="#6b542b" stroke="#001026" stroke-width="4" stroke-linecap="round"></path><path d="M403.82249,173.86278c-0.38914,-1.16093 0.58826,-3.44744 1.20335,-4.37817c0.84529,-0.25219 1.35837,-1.32989 2.31209,-1.54365c2.42837,-0.54427 4.7551,-0.03742 7.24004,0.01789c3.33513,1.30188 5.39712,4.07893 8.51711,5.59791c2.78416,2.82531 0.97144,1.08729 -1.10057,0.55794c-1.00862,-0.25768 -1.34555,0.38273 -1.27794,1.10873c-0.33412,-0.56228 -0.60751,-1.14346 -1.02379,-1.6498l0.06829,-0.0555l-0.31394,-0.38637c-0.04581,-0.05731 -0.11631,-0.09403 -0.19538,-0.09403c-0.13807,0 -0.25,0.11193 -0.25,0.25c0,0.00003 0,0.00006 0,0.00009l0.00015,0.49999h0.00006l-0.00006,0.00028c0.00389,1.5359 -0.00203,3.32982 0.18039,4.91007c-1.08909,-2.39544 -0.59757,-5.9095 -2.16419,-8.14428l0.07803,-0.04629l-0.25275,-0.42602c-0.04302,-0.07551 -0.12425,-0.12643 -0.21738,-0.12643c-0.13807,0 -0.25,0.11193 -0.25,0.25c0,0.02165 0.00276,0.04266 0.00793,0.0627l0.11343,0.4813l0.0084,-0.00198l-0.00095,0.02748c0.07039,0.14867 0.13134,0.2961 0.18496,0.44295c0.04313,0.26947 0.13079,0.54502 0.23696,0.81855c0.11127,0.48585 0.18538,0.97846 0.29875,1.50122c-0.04204,0.38702 -2.33178,-2.78553 -3.11989,-2.26537c-0.39516,0.2608 -0.29968,3.43188 -0.10872,4.841c-0.48986,-1.26812 -2.22242,-4.60016 -2.87974,-4.26838c-0.24349,0.12291 -0.1655,1.2181 -0.14843,1.88487c-0.37173,-0.4634 -0.80891,-1.38767 -1.29648,-1.59631c-0.67826,-0.29024 -1.5039,0.09299 -2.26564,0.74357c0.46796,-1.15295 0.87484,-2.34828 1.40202,-3.40039c0,0 0.11181,-0.2236 -0.1118,-0.33541c-0.2236,-0.11181 -0.33541,0.1118 -0.33541,0.1118c-0.6884,1.37958 -2.49553,1.76476 -3.21206,3.23811c-0.27405,0.32983 -0.84142,2.82007 -1.32684,1.37193zM405.37974,175.50806l-0.01731,-0.0084c0.00829,-0.00241 0.01657,-0.00489 0.02486,-0.00742c-0.00253,0.00528 -0.00505,0.01056 -0.00755,0.01582z" fill="#001026" stroke="none" stroke-width="0.5" stroke-linecap="butt"></path><path d="M405.14556,178.92194l-9.95956,18.36939l6.3797,7.39677c0,0 4.27909,1.19421 5.83444,2.79674c1.55535,1.60253 4.45197,3.28957 3.15019,5.36489c-1.22301,1.94974 1.27065,-3.39371 3.4281,3.13148c2.02762,6.13251 -3.69329,7.3086 -3.69329,7.3086c0,0 0.29779,4.38689 -1.67157,6.85081c-0.9298,1.1633 -4.20954,2.24104 -4.98025,3.12087c-4.59137,5.24139 -10.15429,1.34641 -12.34122,-1.5942c-3.28945,-4.42311 -6.16507,-13.29228 -6.16507,-13.29228c0,0 -1.54414,-4.9961 -5.69684,-10.30264c-3.95692,-5.05636 1.89029,-15.17715 9.25993,-24.31745c6.42609,-7.97007 13.92793,-15.5219 18.15024,-14.10634" fill="#6b542b" stroke="#001026" stroke-width="4" stroke-linecap="round"></path><g><g fill="none" stroke="#001026" stroke-width="3" stroke-linecap="round"><path d="M484.39027,130.03927l-24.5,7"></path><path d="M458.39027,147.53927l17.5,4.5"></path></g><path d="M414.03757,72.97887l32.01764,-20.97343c0,0 24.08079,32.93548 27.03577,64.56416" fill="#6b542b" stroke="#001026" stroke-width="4" stroke-linecap="round"></path><g stroke-linecap="butt"><path d="M368.91337,121.70108c0,-25.93783 21.35129,-49.16034 49.92649,-50.13623c28.2893,-0.96613 48.59511,11.02392 55.25197,46.47665c0.10661,0.56776 5.95556,5.04593 5.73978,14.07086c-0.01337,0.55946 0.08753,1.13455 -0.08205,1.64834c-2.64251,8.00608 -10.38361,13.39353 -16.2086,17.6436c-10.16869,7.41934 -21.15236,10.34886 -36.71286,10.34886c-28.30893,0 -57.91472,-14.11423 -57.91472,-40.05206z" fill="#6b542b" stroke="none" stroke-width="0"></path><path d="M439.69804,129.71148c0,0 17.52974,-10.52693 31.73105,-11.26336c0.10661,0.56776 11.61831,-3.11069 5.90252,15.66423c-2.6593,8.1157 -11.49405,16.2994 -18.09111,21.54661c-12.21503,9.71567 -24.65065,13.00652 -31.66241,12.84419c-8.24864,-0.19097 -13.05878,-4.80908 -19.79062,-8.46013c-16.36532,-8.87581 -29.35789,-23.08361 -23.78521,-34.27573c0.85677,-2.04778 1.11561,-6.26023 4.00093,-7.185c1.07856,-0.34569 2.5332,-0.92854 3.45028,-0.27885c1.53627,1.08835 2.46715,3.82926 4.19861,3.73c17.21126,-0.98678 44.04596,7.67806 44.04596,7.67806z" fill="#dac3a1" stroke="none" stroke-width="0"></path><path d="M368.91337,121.70108c0,-25.93783 21.35129,-49.16034 49.92649,-50.13623c28.2893,-0.96613 48.59511,11.02392 55.25197,46.47665c0.10661,0.56776 7.70556,2.29593 4.23978,14.57086c-5.98355,13.93248 -15.18795,22.06489 -24.84341,27.69528c-7.42235,4.32819 -12.3499,8.6892 -21.66011,8.94552c-15.65319,0.43095 -21.16254,-6.48411 -28.39614,-9.87593c-20.21079,-9.4768 -34.51858,-16.84832 -34.51858,-37.67613z" fill="none" stroke="#001026" stroke-width="4"></path></g><path d="M395.37678,124.45272c3.15824,2.09755 -1.75579,-1.41949 -3.24866,-5.53223c-0.44513,-1.22629 -3.18723,-1.28769 -5.32107,0.06567c-2.53192,1.60584 -1.39399,10.46185 -1.73767,6.88849c-0.34368,-3.57336 -0.64895,-3.2432 0.06148,-6.10536c0.38203,-1.5391 4.56082,-3.44479 7.31102,-2.19178c2.46364,1.12246 1.27555,5.77317 2.93489,6.87522z" fill="#001026" stroke="none" stroke-width="0" stroke-linecap="butt"></path><path d="M368.90777,125.37378c-6.12583,-43.37735 28.40263,-74.00483 28.40263,-74.00483l30.62158,20.331" fill="#6b542b" stroke="#001026" stroke-width="4" stroke-linecap="round"></path><path d="M432.31488,132.31635c-4.93099,-3.88614 15.98083,-5.41034 12.59168,-0.9258c-2.37799,3.14657 -2.74641,3.52761 -5.87421,3.47778c-3.1278,-0.04984 -4.04701,-0.44739 -6.71747,-2.55198z" fill="#001026" stroke="none" stroke-width="0" stroke-linecap="round"></path><g fill="none" stroke="#001026" stroke-width="3" stroke-linecap="round"><path d="M357.64028,120.03927l24.5,7"></path><path d="M366.14028,142.03927l17.5,-4.5"></path></g><path d="M471.23907,117.44975c0.98225,10.36002 -4.35458,12.98279 -10.25268,13.88803c-5.8981,0.90524 -16.68211,0.3089 -17.66435,-10.05112c-0.98225,-10.36002 5.62062,-18.9985 11.51872,-19.90374c10.60431,-1.62755 15.41607,5.70681 16.39831,16.06683z" fill="#001026" stroke="#001026" stroke-width="3" stroke-linecap="butt"></path><path d="M464.3042,121.27897c0,3.03757 -0.70853,6.2971 -0.70853,6.2971c0,0 -0.35427,-2.06388 -0.35427,-5.10145c0,-3.03757 0.35427,-5.89855 0.35427,-5.89855c0,0 0.70853,1.66533 0.70853,4.7029z" fill="#006aff" stroke="none" stroke-width="0" stroke-linecap="butt"></path><path d="M432.91842,119.96112c0,10.3035 -7.01017,12.07161 -14.5204,12.07161c-7.51023,0 -20.97393,-2.20709 -20.97393,-12.51058c0,-10.3035 9.315,-17.7782 16.82523,-17.7782c13.50278,0 18.66909,7.91367 18.66909,18.21717z" fill="#001026" stroke="#001026" stroke-width="3" stroke-linecap="butt"></path><path d="M424.5413,115.65794c0,0 0.44841,3.57659 0.44841,7.37396c0,3.79737 -0.44841,6.37749 -0.44841,6.37749c0,0 -0.89683,-4.07483 -0.89683,-7.8722c0,-3.79737 0.89683,-5.87925 0.89683,-5.87925z" fill="#006aff" stroke="none" stroke-width="0" stroke-linecap="butt"></path><path d="M424.10149,151.88173c0.11423,0.10798 0.17579,0.27767 0.19967,0.48873c0.00001,0.00007 0.00001,0.00014 0.00002,0.0002c-0.06212,-0.16292 -0.12937,-0.32577 -0.19969,-0.48894z" fill="#001026" stroke="none" stroke-width="0.5" stroke-linecap="butt"></path><g stroke-linecap="butt"><path d="M474.03878,123.01538c0,0 0.4263,5.06173 -1.07019,7.53203c-6.04286,9.97513 -24.55595,35.02366 -42.60244,34.22781c-22.51562,-0.99293 -41.68435,-44.29045 -41.68435,-44.29045c0,0 12.80414,20.76683 43.4623,22.16705c41.7071,1.90484 41.89468,-19.63644 41.89468,-19.63644z" fill="#001026" stroke="#001026" stroke-width="1"></path><g stroke="none" stroke-width="0"><g fill="#0062ea"><path d="M416.25637,153.40829c-0.72633,0.17198 -1.54877,-0.53924 -1.83703,-1.58857c-0.28824,-1.04933 1.24711,-2.82476 1.24711,-2.82476c0,0 1.03565,1.50391 1.32391,2.55324c0.33175,1.20765 -0.00767,1.68812 -0.73399,1.86009z"></path><path d="M419.26098,154.9351c-0.94121,0.32731 -2.04201,-0.2277 -2.4586,-1.23964c-0.41658,-1.01194 1.51885,-3.14638 1.51885,-3.14638c0,0 1.40951,1.32038 1.8261,2.33232c0.47942,1.16464 0.05489,1.72638 -0.88635,2.0537z"></path><path d="M422.47159,155.56515c-1.04983,0.21803 -2.10554,-0.46231 -2.35809,-1.51956c-0.25256,-1.05725 1.30297,-2.97274 1.30297,-2.97274c0,0 1.64267,1.39054 2.3637,2.54612c0.69034,1.10638 -0.25879,1.72815 -1.30857,1.94618z"></path><path d="M426.82321,156.9832c-1.11134,0.47417 -2.41505,0.0633 -2.91189,-0.91772c-0.49684,-0.98102 1.01653,-5.44049 1.01653,-5.44049c0,0 1.30655,2.8676 2.93437,4.1148c1.0899,0.83505 0.07236,1.76923 -1.03898,2.24341z"></path><path d="M431.22516,157.63314c-0.94348,0.46625 -2.10433,-0.11188 -2.5928,-1.29129c-0.48845,-1.17941 1.36208,-3.88878 1.36208,-3.88878c0,0 0.69009,1.73526 2.01221,2.65007c1.23345,0.85345 0.16199,2.06374 -0.78148,2.52999z"></path><path d="M433.40275,155.25552c0.93481,-1.09182 2.09991,-2.82576 2.09991,-2.82576c0,0 2.12971,2.50954 1.6406,3.72759c-0.48906,1.21806 -1.73713,1.90463 -2.78765,1.53346c-1.05052,-0.37118 -1.97534,-1.24111 -0.95288,-2.43528z"></path><path d="M448.59085,152.45745c0.24731,-1.0648 1.22351,-2.62683 1.22351,-2.62683c0,0 1.60244,1.68477 1.35515,2.74957c-0.24731,1.0648 -1.0413,1.82272 -1.77345,1.69289c-0.73215,-0.12984 -1.08981,-0.59016 -0.80522,-1.81561z"></path><path d="M445.10112,152.95733c0.45839,-1.00855 1.92236,-2.31784 1.92236,-2.31784c0,0 1.84674,2.14906 1.38835,3.15761c-0.45839,1.00855 -1.58194,1.55498 -2.50949,1.22043c-0.92755,-0.33453 -1.32877,-0.89948 -0.80116,-2.0602z"></path><path d="M441.52937,154.10234c0.42037,-1.02159 1.88772,-2.35739 1.88772,-2.35739c0,0 2.09953,2.14578 1.67916,3.16737c-0.42037,1.02159 -1.5765,1.5847 -2.58234,1.25773c-1.00582,-0.32697 -1.46834,-0.89197 -0.98453,-2.06772z"></path><path d="M437.38642,155.39235c1.49989,-1.41099 2.5246,-4.40066 2.5246,-4.40066c0,0 1.93386,4.27899 1.53367,5.30697c-0.40017,1.02797 -1.6579,1.57296 -2.80917,1.21728c-1.15127,-0.35568 -2.25334,-1.17887 -1.24913,-2.1236z"></path></g><g fill="#006aff"><path d="M414.34063,147.6991c-0.03193,1.08488 -0.64405,2.77664 -0.64405,2.77664c0,0 -1.78659,-1.3907 -1.75463,-2.4756c0.03193,-1.08488 0.62411,-1.95813 1.32264,-1.95043c0.6985,0.0077 1.11283,0.40079 1.07607,1.64936z"></path><path d="M416.69616,148.92587c-0.03193,1.08488 -0.68385,2.77622 -0.68385,2.77622c0,0 -1.91581,-1.39212 -1.88383,-2.477c0.03193,-1.08488 0.66415,-1.95769 1.41208,-1.94944c0.74796,0.00825 1.19236,0.40166 1.1556,1.65024z"></path><path d="M420.12652,149.76422c-0.03193,1.08488 -0.88936,2.77396 -0.88936,2.77396c0,0 -2.58372,-1.39948 -2.55177,-2.48436c0.03193,-1.08488 0.87115,-1.95542 1.87448,-1.94434c1.00333,0.01108 1.60337,0.40619 1.56662,1.65476z"></path><path d="M423.90147,150.40623c-0.03193,1.08488 -0.94579,2.77331 -0.94579,2.77331c0,0 -2.76721,-1.40151 -2.73525,-2.48639c0.03193,-1.08488 0.92805,-1.95478 2.00153,-1.94296c1.07348,0.01183 1.7163,0.40743 1.67951,1.65601z"></path><path d="M427.88316,151.00001c-0.94325,1.75804 -0.88679,4.87401 -0.88679,4.87401c0,0 -3.326,-3.49797 -3.29975,-4.58291c0.02624,-1.08495 1.03799,-1.95587 2.25977,-1.94525c1.22178,0.01062 2.55836,0.47708 1.92683,1.65415z"></path><path d="M430.7879,151.95444c-0.8579,1.42677 -0.88914,3.32802 -0.88914,3.32802c0,0 -2.52202,-1.67165 -2.48371,-2.97247c0.03831,-1.30079 0.86604,-2.34653 1.84887,-2.33571c0.98282,0.01083 2.32434,0.6491 1.52398,1.98019z"></path><path d="M436.39301,149.93182c1.01381,-0.05928 1.88388,0.9453 1.9433,2.24378c0.05942,1.29848 -2.51699,3.09398 -2.51699,3.09398c0,0 -0.48801,-1.97993 -0.96834,-3.28305c-0.52537,-1.42531 0.52822,-1.9954 1.54203,-2.05467z"></path><path d="M452.75622,146.25966c0.69851,0.0077 1.23891,0.89341 1.20693,1.97828c-0.03193,1.08488 -1.8992,2.43534 -1.8992,2.43534c0,0 -0.51215,-1.70415 -0.4802,-2.78905c0.03676,-1.24857 0.47393,-1.63227 1.17247,-1.62457z"></path><path d="M450.40952,147.43464c0.74796,0.00825 1.32841,0.89441 1.29642,1.97929c-0.03193,1.08488 -2.02846,2.43391 -2.02846,2.43391c0,0 -0.55192,-1.70461 -0.51999,-2.78949c0.03676,-1.24857 0.50404,-1.63194 1.25197,-1.6237z"></path><path d="M447.34307,148.2014c1.00336,0.01108 1.79077,0.89948 1.75882,1.98439c-0.03193,1.08488 -2.69636,2.42654 -2.69636,2.42654c0,0 -0.75745,-1.70685 -0.72549,-2.79173c0.03676,-1.24857 0.65968,-1.63025 1.66304,-1.61917z"></path><path d="M443.89457,148.76384c1.07348,0.01183 1.91777,0.9009 1.88584,1.98578c-0.03193,1.08488 -2.87984,2.42452 -2.87984,2.42452c0,0 -0.81389,-1.70749 -0.78191,-2.79236c0.03676,-1.24857 0.70248,-1.62976 1.77596,-1.61792z"></path><path d="M440.00304,149.27546c1.22159,0.0163 2.1814,0.90893 2.14379,1.99375c-0.03761,1.08481 -3.5674,4.50727 -3.5674,4.50727c0,0 0.23978,-3.11271 -0.59933,-4.89038c-0.56185,-1.19021 0.80133,-1.62694 2.02294,-1.61064z"></path><path d="M434.85799,152.06602c-0.03734,1.26795 -2.02554,3.26496 -2.02554,3.26496c0,0 -1.86672,-2.12954 -1.82935,-3.3975c0.03734,-1.26795 0.90994,-1.56606 1.97514,-1.55434c1.06523,0.01172 1.91706,0.4189 1.87972,1.68686z"></path></g></g><path d="M474.03878,122.76538c0,0 0.4263,5.06173 -1.07019,7.53203c-6.04286,9.97513 -24.55595,35.02366 -42.60244,34.22781c-22.51562,-0.99293 -41.68435,-44.29045 -41.68435,-44.29045c0,0 12.80414,20.76683 43.4623,22.16705c41.7071,1.90484 41.89468,-19.63644 41.89468,-19.63644z" fill-opacity="0.71373" fill="#001026" stroke="none" stroke-width="0"></path></g><path d="M396.0587,141.3553c2.95243,3.64976 7.19468,11.54402 7.19468,11.54402c0,0 -4.18115,-6.22871 -7.13358,-9.87847c-2.95243,-3.64976 -3.5581,-3.33848 -3.5581,-3.33848c0,0 0.54458,-1.97683 3.49701,1.67293z" fill="#001026" stroke="none" stroke-width="0" stroke-linecap="butt"></path><path d="M437.95878,139.45927c0,0 -0.7,-1.18203 -0.7,-1.9c0,-0.71797 2.3,-1.9 2.3,-1.9c0,0 -1.5,1.18203 -1.5,1.9c0,0.71797 -0.1,1.9 -0.1,1.9z" fill="#001026" stroke="none" stroke-width="0" stroke-linecap="butt"></path></g></g><g fill-rule="nonzero" stroke-linejoin="miter"><g stroke-linecap="round"><path d="M244.53079,193.95476c0,0 15.26614,41.37945 0.49797,59.55254c-14.76818,18.17309 -48.16009,13.96697 -58.58827,11.93089c-10.42818,-2.03608 -20.89319,-15.97445 -7.72972,-24.91486c13.16347,-8.9404 38.89706,8.81823 53.86809,-3.41967c14.97103,-12.2379 11.95193,-43.14891 11.95193,-43.14891z" fill="#836023" stroke="none" stroke-width="0"></path><path d="M204.18766,239.8252c10.33852,1.8897 -9.71388,-6.6764 -5.93346,16.43353c2.07961,12.71273 24.17535,10.73111 11.30166,11.06402c-9.57907,0.24772 -18.20781,-1.01592 -22.6568,-1.88457c-10.42818,-2.03608 -20.89319,-15.97445 -7.72972,-24.91486c6.30849,-4.28462 15.50401,-2.43718 25.01834,-0.69812z" fill="#b7a88f" stroke="none" stroke-width="0"></path><path d="M244.98936,193.95476c0,0 15.26614,41.37945 0.49797,59.55254c-14.76818,18.17309 -48.16009,13.96697 -58.58827,11.93089c-10.42818,-2.03608 -20.89319,-15.97445 -7.72972,-24.91486c13.16347,-8.9404 38.89706,8.81823 53.86809,-3.41967c14.97103,-12.2379 11.95193,-43.14891 11.95193,-43.14891z" fill="none" stroke="#001026" stroke-width="2.5"></path></g><g stroke="#001026"><g><path d="M290.9948,181.53824c-5.57179,0 -10.08863,-4.31152 -10.08863,-9.63005c0,-5.31853 4.51683,-9.63005 10.08863,-9.63005c5.57179,0 10.08863,4.31152 10.08863,9.63005c0,5.31853 -4.51683,9.63005 -10.08863,9.63005z" fill="#34383f" stroke-width="2.5" stroke-linecap="butt"></path><path d="M287.78669,180.01284c-5.7418,-7.0223 -1.8343,-16.20295 -1.8343,-16.20295" fill="none" stroke-width="2" stroke-linecap="round"></path><path d="M290.23241,181.2357c-1.95209,-11.42929 0,-19.26011 0,-19.26011" fill="none" stroke-width="2" stroke-linecap="round"></path><path d="M296.11823,164.26846c0,0 3.90751,9.18065 -1.8343,16.20295" fill="none" stroke-width="2" stroke-linecap="round"></path><path d="M292.88055,161.97559c0,0 1.95209,7.83082 0,19.26011" fill="none" stroke-width="2" stroke-linecap="round"></path><path d="M282.14918,168.26149c8.07337,-5.18215 17.67196,-0.5771 17.67196,-0.5771" fill="none" stroke-width="2" stroke-linecap="round"></path><path d="M281.07917,172.08294c9.12086,-5.18215 19.96483,-0.5771 19.96483,-0.5771" fill="none" stroke-width="2" stroke-linecap="round"></path><path d="M282.30204,175.59867c8.14321,-5.18215 17.82482,-0.5771 17.82482,-0.5771" fill="none" stroke-width="2" stroke-linecap="round"></path><path d="M284.28919,179.26726c6.25772,-4.21729 13.69764,-0.46964 13.69764,-0.46964" fill="none" stroke-width="2" stroke-linecap="round"></path></g><path d="M252.93316,160.75273c12.84464,6.39136 7.42974,21.91892 12.3815,31.18303c1.96411,3.67458 7.79576,-6.42004 7.79576,-6.42004l8.25433,-8.56005l7.90934,2.96139c0,0 -4.13194,1.83394 -4.49888,4.21053c-0.36694,2.37658 3.16244,4.4453 3.16244,4.4453c0,0 -1.47969,1.24123 -1.98567,4.81317c-0.31977,2.25744 -3.72626,0.87943 -4.52374,1.07503c-1.34808,0.33066 -0.98063,-8.18108 -0.98063,-8.18108c0,0 -0.06458,7.978 0.85247,8.37941c1.25458,0.54915 4.58015,-0.1242 4.91494,0.26919c2.4139,2.83642 4.84582,3.64028 4.84582,3.64028c0,0 -1.8942,0.81754 -2.78833,2.23596c-0.64135,1.01743 -0.32288,3.01192 -0.48771,2.13667c-0.48528,-2.57683 3.5395,-4.40803 3.5395,-4.40803c0,0 -4.42974,-1.55014 -5.29589,-4.45949c-0.86614,-2.90935 2.31967,-5.53759 2.31967,-5.53759c0,0 -3.611,-1.95104 -3.31473,-3.93785c0.29627,-1.98681 4.58574,-4.58574 4.58574,-4.58574l9.63005,-0.45857c0,0 3.20718,1.3644 3.66859,3.21002c0.46141,1.84561 -1.37572,5.96146 -1.37572,5.96146c0,0 4.58574,2.38381 4.58574,5.04431c0,2.6605 -4.58574,6.87861 -4.58574,6.87861c0,0 2.84617,1.23584 2.75144,2.75144c-0.09472,1.51561 -3.21002,4.58574 -3.21002,4.58574l-10.08863,0.45857l-12.3815,-2.29287c0,0 -17.51867,5.12804 -20.63583,0.91715c-3.11715,-4.21089 -7.79576,-38.06164 -7.79576,-38.06164" fill="#836023" stroke-width="2.5" stroke-linecap="round"></path></g><g><path d="M297.84466,256.83576c0,5.44516 -5.31747,10.31791 -12.72543,10.31791c-2.28087,0 -9.9535,-0.40984 -12.95267,-0.42429c-6.74168,-0.0325 -13.05216,0.30348 -16.28142,-1.63929c-3.4393,-2.06914 -4.39232,-5.78334 1.07688,-9.77131c2.23123,-1.62694 5.37451,-4.10994 8.3735,-6.22754c3.05386,-2.15633 8.43484,-6.6824 13.59298,-6.47129c19.08699,0.78117 18.91618,8.77063 18.91618,14.21579z" fill="#2f3134" stroke="#000000" stroke-width="2.5" stroke-linecap="butt"></path><path d="M279.30863,242.16139l20.86512,-1.60501l-1.37572,3.89788l8.94219,1.14643l7.79576,5.96146l-8.94219,0.91715l7.1079,5.2736l2.75144,5.04431l-6.42004,-0.68786l1.14643,3.66859l4.35645,1.37572l-7.33718,2.52216l-12.84007,-0.22929l-11.92292,-2.52216l-2.75144,-1.14643l6.19075,-1.60501l-4.35645,-3.21002l4.58574,-3.66859l-8.71291,-4.35645l6.42004,-2.98073l-6.19075,-3.89788l2.06358,-0.91715l-10.77649,1.37572l2.29287,-2.52216z" fill="#101112" stroke="#000000" stroke-width="2.5" stroke-linecap="round"></path><path d="M271.40754,262.85966c-1.02426,2.64071 -13.54465,2.17709 -14.95333,-0.79381c-1.38635,-2.92383 2.52402,-5.48901 4.95955,-7.21777c9.36957,-6.6506 11.25165,4.76855 9.99378,8.01158z" fill="#000000" stroke="none" stroke-width="0" stroke-linecap="butt"></path><path d="M279.55139,258.52466c0,0.94581 -1.06501,1.88758 -1.39906,2.96306c-0.39646,1.2764 -0.13804,2.61626 -1.12309,2.61626c-1.81505,0 -2.06358,-1.21813 -2.06358,-3.28644c0,-2.06832 0.55424,-2.82787 2.06358,-4.20359c1.34144,-1.22269 2.52216,-0.15759 2.52216,1.91072z" fill="#000000" stroke="none" stroke-width="0" stroke-linecap="butt"></path><path d="M276.11208,253.53702c-1.50934,-1.27068 -2.06358,-1.97224 -2.06358,-3.88264c0,-1.91039 0.24853,-3.03551 2.06358,-3.03551c0.98505,0 0.72664,1.23754 1.12309,2.41649c0.33405,0.99336 1.39906,1.86323 1.39906,2.73682c0,1.91039 -1.18072,2.89416 -2.52216,1.76483z" fill="#000000" stroke="none" stroke-width="0" stroke-linecap="butt"></path><path d="M259.54988,255.22466c2.27275,-1.90208 4.48586,-3.12753 5.40391,-3.05327c-0.22059,0.19189 -0.43606,0.37239 -0.64794,0.52433c-0.78694,0.56432 -1.66387,0.33672 -2.55936,0.88708c-2.2305,1.37085 -4.57613,3.59073 -5.93299,5.76891c0.52197,-1.03256 1.91095,-2.59933 3.73637,-4.12705z" fill="#000000" stroke="none" stroke-width="0" stroke-linecap="butt"></path><path d="M258.91556,264.57064c0,-0.05394 0.01907,-0.10707 0.05602,-0.15914c0.31535,0.11429 0.64287,0.20318 0.9801,0.26421c0.23515,0.07599 0.48382,0.1226 0.74826,0.13498c0.19951,0.00934 0.39998,-0.00879 0.60092,-0.04334c0.76502,-0.03248 5.53823,0.299 6.20436,0.00878c0.03564,-0.00184 0.07123,-0.00294 0.10679,-0.00322c2.49425,-0.01968 0.95026,-0.32619 3.43812,-0.50561c0.2319,-0.01673 0.4621,-0.04078 0.68961,-0.07262c0.20876,0.11838 0.32161,0.24475 0.32161,0.37598c0,0.21285 -0.29686,0.41292 -0.81833,0.58683c-1.92655,-0.1119 -6.14419,-0.25424 -9.41007,-0.07247c-0.32408,-0.05352 -0.65683,-0.08137 -0.99608,-0.08137c-0.41182,0 -0.81406,0.04103 -1.20285,0.11923c-0.45934,-0.16565 -0.71847,-0.35334 -0.71847,-0.55221z" fill="#000000" stroke="none" stroke-width="0" stroke-linecap="butt"></path><path d="M274.0485,261.5926c0,-1.64709 0.80404,-3.06881 1.9668,-3.73084c-0.85957,1.39645 -1.35536,3.04075 -1.35536,4.80085c0,0.5006 0.0401,0.99181 0.11728,1.47064c-0.45658,-0.70046 -0.72871,-1.58242 -0.72871,-2.54065z" fill="#000000" stroke="none" stroke-width="0" stroke-linecap="butt"></path><path d="M273.79804,246.96474c0.02513,0.48343 0.08624,0.97223 0.18546,1.4629c0.34885,1.72518 1.12293,3.24624 2.17673,4.45786c-1.18233,-0.43635 -2.19095,-1.68291 -2.51739,-3.29732c-0.18991,-0.93922 -0.11872,-1.85342 0.1552,-2.62344z" fill="#000000" stroke="none" stroke-width="0" stroke-linecap="butt"></path><path d="M272.9785,258.46736c0,-0.93972 1.05128,-1.70152 2.34809,-1.70152c0.85945,0 2.17314,-0.54188 2.17314,-0.54188c0,0 -3.1213,-0.25664 -4.06182,1.77548c-0.60987,1.31771 0.31543,0.66435 0.02178,1.50006c-0.30188,-0.28628 -0.48119,-0.64404 -0.48119,-1.03214z" fill="#000000" stroke="none" stroke-width="0" stroke-linecap="butt"></path><path d="M273.40877,251.67754c0.34556,0.79894 -0.54939,0.24976 0.12736,1.49358c1.04365,1.91817 3.82155,1.32463 3.82155,1.32463c0,0 -1.2328,-0.39625 -2.00463,-0.30307c-1.16459,0.1406 -2.18328,-0.50273 -2.27532,-1.4369c-0.03801,-0.38582 0.08798,-0.76091 0.33104,-1.07823z" fill="#000000" stroke="none" stroke-width="0" stroke-linecap="butt"></path></g><path d="M261.97803,185.22178l28.12587,20.02439c0,0 3.49679,1.15973 3.97431,2.75144c0.47751,1.59171 -1.22287,6.42004 -1.22287,6.42004l-4.58574,20.48297c0,0 8.76519,0.8501 13.91008,0.61144c5.14489,-0.23866 7.31463,10.17888 -6.5729,9.93577c-4.5444,-0.07955 -15.00306,-1.96073 -26.44444,-0.45857c-3.7569,0.49325 -3.73782,-4.71164 -1.52857,-8.56004c2.14124,-3.72996 8.71291,-22.31726 8.71291,-22.31726l-18.03724,-11.46435" fill="#836023" stroke="#001026" stroke-width="2.5" stroke-linecap="round"></path><g stroke-linecap="round"><path d="M234.71761,165.105c0.57959,-4.1148 7.92427,-8.98207 13.7845,-7.73566c5.86024,1.24642 9.18121,1.68752 10.60346,8.25433c1.31804,6.08572 2.96897,16.96724 2.96897,16.96724c0,0 8.94516,10.1889 2.96896,16.05009c-10.27547,10.07774 -26.58959,3.08279 -29.0535,-3.72869c-4.47194,-12.36271 -2.49197,-21.14913 -1.27241,-29.80731z" fill="#836023" stroke="#001026" stroke-width="2.5"></path><path d="M258.18362,202.76815c0,0 -1.71167,2.1688 -3.47617,6.68146c-2.78884,7.13239 -6.16766,18.288 -6.61246,22.05584c-0.72625,6.15175 1.37483,4.02674 3.36287,13.45151c1.98804,9.42477 5.02316,19.27888 2.44572,23.54013c-3.23168,5.34292 -6.16472,17.8065 -14.21579,20.17726c-8.05107,2.37076 -18.5607,-0.15331 -22.49389,-2.59858c-3.9332,-2.44527 3.68611,-13.40346 7.18432,-16.20295c3.49974,-2.80071 6.72575,-7.39698 6.72575,-7.39698c0,0 0.73214,-3.62797 0.48127,-6.88928c-0.25843,-3.35962 -2.00985,-12.98227 -2.00985,-12.98227c0,0 -2.0136,-2.63728 -2.14002,-5.50289c-0.12642,-2.86561 2.44573,-6.72575 2.44573,-6.72575c0,0 4.63353,-22.20183 5.68741,-28.41967c0.47665,-2.81222 0.42691,-7.65481 0.42691,-7.65481" fill="#836023" stroke="#001026" stroke-width="2.5"></path><path d="M251.09938,162.83895c4.2548,1.03755 6.66598,1.40473 7.6986,6.87113c0.95697,5.06591 2.15561,14.12398 2.15561,14.12398c0,0 6.49459,7.33507 2.15561,12.21409c-7.46047,8.38899 -19.30526,3.71264 -21.09416,-1.95742c-3.24683,-10.29105 -1.80929,-17.6051 -0.92383,-24.8124c0.42082,-3.42527 5.75339,-7.47692 10.00818,-6.43937z" fill="#b7a88f" stroke="none" stroke-width="0"></path></g><path d="M234.46082,176.509c-2.95648,20.67008 -2.11924,33.36868 -2.11924,33.36868l-2.75049,-4.40096c0,0 2.68227,4.64659 4.75062,9.96357c2.06834,5.31697 -0.37677,16.01912 -0.37677,16.01912l0.56412,-15.36152c0,0 2.17411,10.17839 3.59478,14.27089c1.42067,4.0925 4.96184,12.80088 4.04458,21.28002c-0.91726,8.47914 1.4447,19.54679 -7.35734,19.71988c-8.54129,0.16796 -10.50111,-8.65703 -12.51605,-17.7939c-1.80075,-8.16561 0.6465,-27.50238 0.6465,-27.50238c0,0 2.00953,0.3396 2.1086,1.05006c0.09907,0.71046 -1.05006,6.54076 -1.05006,6.54076c0,0 2.44271,-6.6125 0.00761,-8.40981c-2.43508,-1.79732 -3.46264,-1.03059 -4.51096,-6.24871c-1.04832,-5.21812 0.48696,-7.53794 0.78482,-13.68451c0.29318,-6.04992 1.31763,-11.49919 3.4885,-23.90958c2.1615,-12.35684 15.26415,-21.50365 15.26415,-21.50365" fill="#836023" stroke="#001026" stroke-width="2.5" stroke-linecap="round"></path><g><g stroke-linecap="round"><path d="M305.05498,139.33922c-20.09053,23.93044 -72.63545,23.48483 -96.60506,3.81222c0,0 6.97788,-4.74797 4.99496,-7.75789c-1.9829,-3.00992 -9.44898,0.38123 -9.44898,0.38123c0,0 1.92588,-6.38765 3.46439,-9.29458c1.53852,-2.90693 3.86606,-7.86042 3.86606,-7.86042c0,0 2.60573,-15.89555 6.35559,-26.30433c3.74988,-10.40878 13.5586,-27.82923 13.5586,-27.82923l19.91421,22.11089c0,0 8.20618,-1.60934 20.96289,0.7537l7.54329,-19.57858c0,0 10.15896,19.15271 14.82972,32.02266c4.67076,12.86995 4.52685,22.90695 5.50818,24.017c3.67467,4.15659 4.74574,8.7681 4.74574,8.7681c0,0 -6.70463,-1.15403 -6.86426,1.9061c-0.15964,3.06013 7.17467,4.85311 7.17467,4.85311z" fill="#836023" stroke="none" stroke-width="0"></path><path d="M302.49546,138.65172c-18.70473,22.27979 -67.62525,21.8649 -89.94151,3.54925c0,0 6.49655,-4.42045 4.65043,-7.22277c-1.84613,-2.80231 -8.79723,0.35493 -8.79723,0.35493c0,0 1.79303,-5.94704 3.22544,-8.65347c1.4324,-2.70642 5.50551,-5.79333 5.50551,-5.79333c0,0 7.21192,-2.03053 16.00019,-1.32233c12.14203,0.97849 31.59325,7.24276 31.59325,7.24276c0,0 9.17104,-4.17602 20.04674,-5.20038c6.57429,-0.61923 12.66561,2.19968 13.00982,2.58904c3.4212,3.86988 4.4184,8.16331 4.4184,8.16331c0,0 -6.24217,-1.07442 -6.3908,1.77463c-0.14862,2.84904 6.67978,4.51835 6.67978,4.51835z" fill="#b7a88f" stroke="none" stroke-width="0"></path><path d="M305.05498,139.33922c-20.09053,23.93044 -72.63545,23.48483 -96.60506,3.81222c0,0 6.97788,-4.74797 4.99496,-7.75789c-1.9829,-3.00992 -9.44898,0.38123 -9.44898,0.38123c0,0 1.92588,-6.38765 3.46439,-9.29458c1.53852,-2.90693 3.86606,-7.86042 3.86606,-7.86042c0,0 2.60573,-15.89555 6.35559,-26.30433c3.74988,-10.40878 13.5586,-27.82923 13.5586,-27.82923l19.91421,22.11089c0,0 8.20618,-1.60934 20.96289,0.7537l7.54329,-19.57858c0,0 10.15896,19.15271 14.82972,32.02266c4.67076,12.86995 4.52685,22.90695 5.50818,24.017c3.67467,4.15659 4.74574,8.7681 4.74574,8.7681c0,0 -6.70463,-1.15403 -6.86426,1.9061c-0.15964,3.06013 7.17467,4.85311 7.17467,4.85311z" fill="none" stroke="#001026" stroke-width="2.5"></path></g><g fill="none" stroke="#001026" stroke-width="2" stroke-linecap="round"><path d="M203.31523,150.26114c1.15301,-13.09719 7.6334,-18.60226 7.6334,-18.60226"></path><path d="M207.45002,155.78216c-0.58024,-11.59241 6.19205,-21.54767 6.19205,-21.54767"></path><path d="M215.51031,156.96109c-1.15817,-9.06228 2.63143,-19.42185 2.63143,-19.42185"></path></g><path d="M271.40823,126.10207c0,0.64976 -1.44164,1.69054 -2.31761,2.41652c-1.27433,1.05614 -2.40427,1.70921 -4.90243,1.70921c-2.05103,0 -3.06776,-0.83488 -4.5395,-1.63384c-1.55304,-0.8431 -3.50568,-1.67296 -3.50568,-2.4919c0,-1.595 15.26521,-1.595 15.26521,0z" fill="#001026" stroke="none" stroke-width="0" stroke-linecap="butt"></path><path d="M288.28645,136.41813c0,0 -1.20257,3.03606 -2.84717,5.69784c-0.98268,1.59046 -0.16226,2.80218 -4.77728,3.83271c-5.94581,1.32771 -9.18797,0.26293 -14.5129,0.09945c-5.7253,-0.17578 -13.44199,0.45243 -17.12854,-0.8619c-2.32107,-0.82751 -4.98559,-0.57218 -6.49502,-2.93477c-3.11776,-4.87999 -5.32285,-8.12067 -5.32285,-8.12067" fill="none" stroke="#001026" stroke-width="2" stroke-linecap="round"></path><path d="M251.29522,112.44472c0,5.2855 -2.32901,18.50247 -5.68566,18.50247c-3.35665,0 -6.46988,-13.21696 -6.46988,-18.50247c0,-5.2855 2.91717,-19.14048 6.27382,-19.14048c3.35665,0 5.88172,13.85498 5.88172,19.14049z" fill="#d06587" stroke="#001026" stroke-width="2" stroke-linecap="butt"></path><path d="M240.58063,96.72219h9.41074" fill="none" stroke="#001026" stroke-width="1.5" stroke-linecap="round"></path><path d="M241.95303,94.50627l6.66595,-0.18363" fill="none" stroke="#001026" stroke-width="1.5" stroke-linecap="round"></path><g stroke-linecap="butt"><path d="M251.93035,112.79489c0,5.3057 -1.35148,9.6068 -6.40453,9.6068c-5.05304,0 -7.31947,-4.30111 -7.31947,-9.6068c0,-5.3057 2.26643,-9.6068 7.31947,-9.6068c5.05304,0 6.40453,4.30111 6.40453,9.6068z" fill="url(#color-3)" stroke="none" stroke-width="0"></path><path d="M251.93035,112.59884c0,5.3057 -1.35148,8.84435 -6.40453,8.84435c-5.05304,0 -6.862,-3.38617 -6.862,-8.69187c0,-5.3057 1.80896,-9.75928 6.862,-9.75928c5.05304,0 6.40453,4.30111 6.40453,9.6068z" fill="none" stroke="#001026" stroke-width="2"></path></g><g stroke="none" stroke-width="0" stroke-linecap="butt"><path d="M249.74105,114.242c0,1.64224 -1.28009,2.97354 -2.85917,2.97354c-1.57907,0 -2.85917,-1.33131 -2.85917,-2.97354c0,-1.64224 1.28009,-2.97353 2.85917,-2.97353c1.57907,0 2.85917,1.3313 2.85917,2.97353z" fill="#76aaf2"></path><path d="M248.59739,114.9282c0,1.01061 -0.59738,1.82987 -1.33428,1.82987c-0.7369,0 -1.33427,-0.81925 -1.33427,-1.82987c0,-1.01061 0.59737,-1.82987 1.33427,-1.82987c0.7369,0 1.33428,0.81925 1.33428,1.82987z" fill="#001026"></path></g><path d="M250.18743,127.08002l-9.41073,0.19606" fill="none" stroke="#001026" stroke-width="1.5" stroke-linecap="round"></path><path d="M241.95303,130.02088h7.84229" fill="none" stroke="#001026" stroke-width="1.5" stroke-linecap="round"></path><path d="M286.45587,112.44472c0,5.2855 -2.00555,18.50247 -4.89599,18.50247c-2.89046,0 -5.57129,-13.21696 -5.57129,-18.50247c0,-5.2855 2.51202,-19.14048 5.40246,-19.14048c2.89045,0 5.06482,13.85498 5.06482,19.14049z" fill="#d06587" stroke="#001026" stroke-width="2" stroke-linecap="butt"></path><path d="M277.22942,96.72219h8.1037" fill="none" stroke="#001026" stroke-width="1.5" stroke-linecap="round"></path><path d="M278.41121,94.50626l5.74012,-0.18363" fill="none" stroke="#001026" stroke-width="1.5" stroke-linecap="round"></path><g stroke-linecap="butt"><path d="M287.00278,112.79489c0,5.3057 -1.16378,9.6068 -5.51501,9.6068c-4.35123,0 -6.30288,-4.30111 -6.30288,-9.6068c0,-5.3057 1.95166,-9.6068 6.30288,-9.6068c4.35123,0 5.51501,4.30111 5.51501,9.6068z" fill="url(#color-4)" stroke="none" stroke-width="0"></path><path d="M287.00278,112.59884c0,5.3057 -1.16378,8.84435 -5.51501,8.84435c-4.35123,0 -5.90895,-3.38617 -5.90895,-8.69187c0,-5.3057 1.55772,-9.75928 5.90895,-9.75928c4.35123,0 5.51501,4.30111 5.51501,9.6068z" fill="none" stroke="#001026" stroke-width="2"></path></g><path d="M277.39825,127.27608l8.10369,-0.19606" fill="none" stroke="#001026" stroke-width="1.5" stroke-linecap="round"></path><path d="M285.16428,130.02088h-6.75308" fill="none" stroke="#001026" stroke-width="1.5" stroke-linecap="round"></path><g fill="none" stroke="#001026" stroke-width="2" stroke-linecap="round"><path d="M302.6584,131.65888c0,0 3.98101,5.50507 4.68933,18.60226"></path><path d="M301.00378,134.23449c0,0 4.16033,9.95526 3.80388,21.54767"></path><path d="M298.23955,137.53924c0,0 2.32801,10.35957 1.61653,19.42185"></path></g><g stroke="none" stroke-width="0" stroke-linecap="butt"><path d="M285.57593,115.00444c0,1.64224 -1.28009,2.97354 -2.85917,2.97354c-1.57907,0 -2.85917,-1.33131 -2.85917,-2.97354c0,-1.64224 1.28009,-2.97353 2.85917,-2.97353c1.57907,0 2.85917,1.3313 2.85917,2.97353z" fill="#76aaf2"></path><path d="M284.43227,115.69064c0,1.01061 -0.59738,1.82987 -1.33428,1.82987c-0.7369,0 -1.33427,-0.81927 -1.33427,-1.82987c0,-1.01061 0.59737,-1.82985 1.33427,-1.82985c0.7369,0 1.33428,0.81925 1.33428,1.82985z" fill="#001026"></path></g></g></g></g></g></svg>