<svg version="1.1" xmlns="http://www.w3.org/2000/svg" xmlns:xlink="http://www.w3.org/1999/xlink" width="135.85889" height="239.89963" viewBox="0,0,135.85889,239.89963"><g transform="translate(-173.22051,-90.02448)"><g data-paper-data="{&quot;isPaintingLayer&quot;:true}" fill-rule="nonzero" stroke-miterlimit="10" stroke-dasharray="" stroke-dashoffset="0" style="mix-blend-mode: normal"><g stroke-linecap="butt" stroke-linejoin="miter"><g fill="#686868" stroke="#000000" stroke-width="1"><path d="M195.70828,329.11509v-104.61283h101.23822v104.61283z"/><path d="M177.14795,319.83493v-104.61283l18.56034,9.28017v104.61283z"/><path d="M195.59516,224.03145l-17.71669,-8.85834l102.92552,1.26548l16.45121,8.43652z"/></g><path d="M199.28505,229.20101c0,-0.82843 0.67157,-1.5 1.5,-1.5c0.82843,0 1.5,0.67157 1.5,1.5c0,0.82843 -0.67157,1.5 -1.5,1.5c-0.82843,0 -1.5,-0.67157 -1.5,-1.5z" fill="#b9b9b9" stroke="none" stroke-width="0.5"/><path d="M291.28505,229.86768c0,-0.82843 0.67158,-1.5 1.5,-1.5c0.82842,0 1.5,0.67157 1.5,1.5c0,0.82843 -0.67158,1.5 -1.5,1.5c-0.82842,0 -1.5,-0.67157 -1.5,-1.5z" fill="#b9b9b9" stroke="none" stroke-width="0.5"/><path d="M292.61838,325.53434c0,-0.82842 0.67158,-1.5 1.5,-1.5c0.82842,0 1.5,0.67158 1.5,1.5c0,0.82842 -0.67158,1.5 -1.5,1.5c-0.82842,0 -1.5,-0.67158 -1.5,-1.5z" fill="#b9b9b9" stroke="none" stroke-width="0.5"/><path d="M198.61838,326.53434c0,-0.82842 0.67157,-1.5 1.5,-1.5c0.82843,0 1.5,0.67158 1.5,1.5c0,0.82842 -0.67157,1.5 -1.5,1.5c-0.82843,0 -1.5,-0.67158 -1.5,-1.5z" fill="#b9b9b9" stroke="none" stroke-width="0.5"/></g><path d="M230.89918,212.31737c1.36615,-1.25075 4.2386,-2.12731 5.2345,-0.75394c0.93633,1.29078 0.31677,2.5084 0.31677,2.5084c-0.67433,1.42115 -1.79855,4.08668 -2.87597,5.69146c-0.19137,0.28311 -0.37999,0.54021 -0.5723,0.79341l0.01552,-0.01078c0,0 0.57015,2.11742 -0.45555,2.33573c-0.61827,0.1326 -1.1531,-0.16235 -1.48733,-0.41135c-0.96322,0.64736 -4.19507,-0.60725 -5.12667,-1.06282c-2.1806,-1.06527 1.09711,-3.96979 1.09711,-3.96979c0.30555,-1.09369 2.48777,-3.86953 3.85391,-5.12028v0v0v0v0v0z" data-paper-data="{&quot;index&quot;:null}" fill="#be1e2d" stroke="#231f20" stroke-width="0.78673" stroke-linecap="round" stroke-linejoin="round"/><path d="M253.45009,213.58322v0v0v0v0v0c1.25825,1.35924 3.20392,4.30572 3.41817,5.4209c0,0 3.0268,3.16514 0.76572,4.0468c-0.96602,0.37713 -4.29038,1.36072 -5.1969,0.63607c-0.35364,0.22056 -0.91098,0.47036 -1.51621,0.28719c-1.00418,-0.30222 -0.26122,-2.36536 -0.26122,-2.36536l0.01458,0.01202c-0.17076,-0.2682 -0.33752,-0.53999 -0.50486,-0.83793c-0.94128,-1.68823 -1.84166,-4.43745 -2.39641,-5.90941c0,0 -0.51696,-1.2646 0.52272,-2.4737c1.10585,-1.28647 3.89616,-0.17583 5.15441,1.1834z" data-paper-data="{&quot;index&quot;:null}" fill="#be1e2d" stroke="#231f20" stroke-width="0.78673" stroke-linecap="round" stroke-linejoin="round"/><path d="M235.93399,218.92921c1.68686,-0.17315 3.39963,0.90926 3.39963,0.90926c0,0 -0.99763,6.83061 -1.40498,9.2898c-0.40733,2.46291 -0.49758,6.46041 -0.49758,6.46041c0,0 0.37339,0.50207 -0.03094,1.444c-0.40732,0.93866 -2.09778,0.69004 -4.29367,0.65273c-2.19072,-0.04227 -3.74774,-0.92418 -3.80455,-1.97208c-0.06074,-1.04399 0.66924,-1.32788 0.66924,-1.32788c0,0 3.13804,-7.63721 3.01889,-10.58604c0.00281,0.00695 0.79332,-4.64969 2.94397,-4.87019v0v0v0v0z" fill="#be1e2d" stroke="#231f20" stroke-width="0.90025" stroke-linecap="round" stroke-linejoin="round"/><g stroke-width="0.90025"><path d="M249.31608,212.52796v0v0v0v0v0c0.29893,2.81635 -0.58069,7.94369 -3.86297,9.62086c-3.24634,1.65523 -6.60137,1.27683 -9.99111,-1.24733c-2.80849,-2.09208 -2.50604,-7.7307 -2.07332,-10.87451v0c0,0 0.32163,-7.30105 6.50407,-7.94654c6.18053,-0.64548 8.80209,5.07528 9.13249,8.59023c0.12394,0.62145 0.22567,1.25459 0.29084,1.8573z" fill="#be1e2d" stroke="#000000" stroke-linecap="butt" stroke-linejoin="miter"/><path d="M247.28993,220.47946v0v0v0v0v0l-0.0212,0.14235c-0.49832,0.63176 -1.10036,1.16014 -1.81465,1.52525c-3.007,1.53351 -6.10594,1.32254 -9.2406,-0.72348l-0.02732,-0.14525c0,0 -1.31797,-9.35662 4.61952,-9.52653c6.74199,-0.1898 6.59073,7.17604 6.48425,8.72767z" fill="#e6e7e8" stroke="#231f20" stroke-linecap="round" stroke-linejoin="round"/></g><g stroke="#000000" stroke-width="0.90025" stroke-linecap="round" stroke-linejoin="round"><path d="M286.6575,190.64176l-0.66734,1.49603c-3.63529,7.53368 -8.22759,11.65108 -8.22759,11.65108c0,0 0.27216,-1.37785 0.38658,-3.61979l-0.12701,-0.05716c-0.48118,1.14358 -1.23519,2.60675 -2.43191,4.39104c-2.62486,3.91866 -9.57883,6.78884 -9.57883,6.78884c0,0 0.53708,-1.37911 0.99835,-3.67209l-0.06232,-0.36239c-0.76953,0.49224 -1.56203,0.9372 -2.36143,1.36801c-0.2353,0.12772 -0.47018,0.25176 -0.70836,0.371c-0.72524,0.36782 -1.4613,0.71471 -2.20936,1.03346c-0.29542,0.12417 -0.60077,0.23675 -0.89932,0.35433c-0.5447,0.21545 -1.09541,0.41581 -1.6534,0.6075c-0.40971,0.13859 -0.82203,0.27615 -1.2406,0.40132c-0.43353,0.13209 -0.87722,0.24603 -1.31878,0.36659c-0.81109,0.21287 -1.63219,0.40598 -2.46953,0.57691c-0.27317,0.05565 -0.54645,0.1113 -0.82374,0.16117c-0.59593,0.10888 -1.19612,0.21368 -1.80541,0.29971l0.00163,0.00195c-3.05919,0.4369 -6.27996,0.61475 -9.70362,0.52726c-3.70392,-0.0956 -7.04051,-0.42393 -10.14069,-0.91331v0c-2.453,-0.38851 -4.73738,-0.88618 -6.88984,-1.47711c-0.10416,-0.02806 -0.20923,-0.05711 -0.31428,-0.08526c-0.66502,-0.18735 -1.3186,-0.38173 -1.95858,-0.58576c-0.22321,-0.07289 -0.43617,-0.1493 -0.65823,-0.2238c-0.8493,-0.28193 -1.67255,-0.58157 -2.48291,-0.89453c-0.51219,-0.1983 -1.02058,-0.39998 -1.51636,-0.61039c-0.29477,-0.1224 -0.59003,-0.24947 -0.87807,-0.3767c-0.78628,-0.35061 -1.56502,-0.70498 -2.31758,-1.07975l-0.14683,0.11818c0.11026,2.13237 0.73773,3.32938 1.27089,3.91989c1.08668,1.20548 3.34085,1.66617 3.34085,1.66617c0,0 -7.04536,0.36634 -10.36619,-5.33839c-0.3528,-0.60639 -0.70737,-1.23379 -1.03796,-1.89796l-0.13449,-0.37502c-0.79924,-0.34713 -1.60132,-0.78584 -2.38358,-1.32864c-4.7679,-3.33059 -5.19014,-5.77117 -5.19014,-5.77117l0.02857,0.88353c0.2845,2.32114 0.63063,3.80075 0.63063,3.80075c0,0 -5.67678,-4.32712 -7.85551,-10.25918c-1.75611,-4.78828 -1.6842,-7.58964 -1.65767,-8.05911l-0.05574,-1.69105c0.4421,-6.56453 1.49096,-13.87942 3.02273,-21.032l0.07241,-0.18791c1.29066,-5.51986 1.32071,-14.8486 9.56476,-23.67696c15.44802,-16.53863 29.59275,-14.68201 39.23023,-27.06032c7.08906,-9.10646 6.45106,-20.31612 6.45106,-20.31612c0,0 3.35697,5.75757 4.60714,9.07568c1.20879,3.23308 2.43971,7.37182 2.43971,7.37182l0.05408,-0.02961c0.04515,-0.1136 0.08694,-0.23011 0.12425,-0.34701c0.57927,-1.82092 0.65394,-4.58149 0.65394,-4.58149c0,0 2.71753,11.02161 8.00073,18.55314c5.27991,7.52772 13.62123,10.27559 22.2765,35.23232c1.07754,3.10147 2.1021,5.7221 2.52446,8.56491l0.16145,1.62891c0.50003,5.08978 -1.07642,18.89297 -3.56778,24.69849zM219.83253,161.10638c0,0 -7.59641,6.62664 -8.01613,16.73373c-0.37138,8.94278 1.69694,11.89576 2.88068,12.69313c1.21748,0.81567 3.23674,0.57177 3.23674,0.57177c0,0 -5.86808,2.48065 -10.08833,-1.94888c-2.82297,-2.96103 -5.84771,-6.72687 -5.92381,-16.61054M276.38984,182.20872c0,0 0.64915,2.55263 -1.91222,7.54589c-2.8822,5.62585 -8.0468,6.99316 -8.0468,6.99316c0,0 4.9449,-8.62311 2.1912,-17.37698c-1.20144,-3.82438 -5.6644,-6.9846 -10.40412,-9.35481c-6.42281,-3.21398 -13.35295,-4.97568 -13.35295,-4.97568M278.06116,200.01685c-0.47885,1.15824 -1.24493,2.6574 -2.47662,4.48921c-2.62396,3.91874 -9.57794,6.78892 -9.57794,6.78892c0,0 1.5623,-4.02408 1.64877,-9.74493M202.7099,179.89249c-0.79411,1.20851 -1.43831,2.52217 -1.85784,3.93232c-2.62903,8.79097 -0.23885,18.93548 -0.23885,18.93548c0,0 -5.67513,-4.32526 -7.85551,-10.25928c-1.93221,-5.2663 -1.65156,-8.12904 -1.65156,-8.12904M285.98513,192.14368c-3.63708,7.53352 -8.22849,11.651 -8.22849,11.651c0,0 1.55724,-7.82712 -1.20366,-16.58252c-0.12445,-0.39583 -0.27055,-0.7827 -0.42826,-1.15974M244.86584,165.04037c0,0 1.16351,0.41968 4.08759,3.19532c2.92417,2.77564 3.84193,5.60558 3.84193,5.60558c0,0 -9.06526,-3.25385 -14.04104,-5.5498c-4.97023,-2.29728 -21.87549,-8.52465 -21.87549,-8.52465M212.23589,199.67945c2.17056,4.17108 4.59993,6.54928 4.59993,6.54928c0,0 -6.32136,1.36841 -11.69182,-2.37987c-4.76791,-3.33049 -5.19014,-5.77117 -5.19014,-5.77117M266.9407,207.26214c-7.07945,4.52474 -15.34511,6.32347 -25.18579,6.07156c-11.73223,-0.3004 -20.11315,-2.74989 -27.15384,-6.24638M214.43944,206.54722c0.00002,2.54655 0.69814,3.9278 1.28414,4.57532c1.08757,1.20556 3.34175,1.66625 3.34175,1.66625c0,0 -7.04715,0.36619 -10.36709,-5.33847c-0.3528,-0.60639 -0.70737,-1.23379 -1.03796,-1.89796M245.51323,165.39874c0,0 25.14734,5.31946 23.9362,19.19249" fill="#be1e2d"/><path d="M273.90765,191.02515c-1.81903,9.89449 -14.19738,19.30267 -31.06809,18.81847c-14.89477,-0.41931 -36.21184,-8.99458 -38.31812,-21.54241c-0.20804,-1.26077 -0.27173,-2.46637 -0.21755,-3.61472l0.30146,0.26312c0.98087,1.74472 2.12467,3.04101 3.23997,4.20833c4.22041,4.42773 10.08848,1.94708 10.08848,1.94708c0,0 -2.01943,0.2457 -3.23689,-0.56998c-1.18374,-0.79737 -3.25205,-3.75035 -2.88068,-12.69313c0.41988,-10.10889 8.01613,-16.73373 8.01613,-16.73373l0.04441,-0.22931c5.08632,1.89896 15.21626,5.72025 18.87575,7.41244c4.9757,2.29685 14.04104,5.5498 14.04104,5.5498c0,0 -0.91775,-2.82994 -3.84193,-5.60558c-1.46379,-1.38837 -2.48482,-2.18689 -3.13938,-2.63893l0.6369,0.15769c0,0 19.34466,4.6077 22.17467,13.61666c2.75272,8.75469 -2.19031,17.37705 -2.19031,17.37705c0,0 4.39786,-1.16583 7.33671,-5.76285z" fill="#e6e7e8"/></g><path d="M224.09931,204.59091v-15.21904h4.17362v15.21904z" fill="#00b5ff" stroke="none" stroke-width="0" stroke-linecap="butt" stroke-linejoin="miter"/><path d="M254.46595,204.59092v-15.21904h4.17361v15.21904z" data-paper-data="{&quot;index&quot;:null}" fill="#00b5ff" stroke="none" stroke-width="0" stroke-linecap="butt" stroke-linejoin="miter"/><g stroke="#000000" stroke-width="0.90025" stroke-linecap="round" stroke-linejoin="miter"><path d="M282.42402,173.416c0,0 9.91383,-9.32331 10.45794,-9.75844c0.54399,-0.43504 4.67606,-4.68477 15.57002,-5.30887c0,0 -9.59009,30.11615 -26.29542,35.73797c0.00008,-0.0009 2.29833,-8.65711 0.26747,-20.67067zM282.46516,173.66903c-0.14752,-0.99159 -0.69907,-2.76849 -0.69907,-2.76849M281.17968,196.37437c0,0 0.74641,-1.41866 0.97695,-2.28861" fill="#be1e2d"/><path d="M288.99127,189.81801c0,0 -1.50344,-1.37928 -1.33344,-5.46979c0.10139,-2.5377 1.61402,-7.04954 1.61402,-7.04954l-0.1025,0.13922c0.77511,-0.75284 1.60075,-1.63949 2.36454,-2.6247c1.29403,-1.66637 2.85876,-4.19828 4.30913,-6.70222l0.22058,-0.34312c0,0 3.6449,-4.44504 10.39645,-4.4584l0.07343,0.04887c-1.81922,4.54661 -4.71941,11.19477 -7.67757,15.65087c-3.31812,4.99866 -6.96018,8.52125 -9.99136,10.89442zM286.23926,179.83444c0,0 2.55108,-2.09166 3.03263,-2.53576" fill="#929497"/></g><g stroke="#000000" stroke-width="0.90025" stroke-linecap="round" stroke-linejoin="miter"><path d="M193.4581,186.34219c-15.47755,-8.43146 -19.70402,-39.75382 -19.70402,-39.75382c10.62103,2.50331 13.95417,7.40478 14.41464,7.9266c0.46045,0.52192 8.60874,11.423 8.60874,11.423c-4.08287,11.48071 -3.31936,20.40422 -3.31936,20.40422zM197.86024,163.57538c0,0 -0.85111,1.65444 -1.16813,2.60548M193.4581,186.34219c0.0762,0.89673 0.56559,2.42327 0.56559,2.42327" fill="#be1e2d"/><path d="M187.57633,181.06093c-2.57402,-2.86341 -5.54968,-6.96375 -7.95249,-12.46096c-2.14214,-4.90138 -3.84544,-11.95143 -4.84938,-16.74451l0.08088,-0.0354c6.64791,1.18407 9.4666,6.19249 9.4666,6.19249l0.15779,0.37615c0.99443,2.71738 2.09685,5.48214 3.08255,7.34753c0.5815,1.10265 1.24102,2.11897 1.87394,2.99473l-0.07683,-0.15487c0,0 0.70792,4.7057 0.36794,7.22257c-0.54129,4.0581 -2.26109,5.15598 -2.26109,5.15598zM189.35941,168.5761c0.39731,0.52083 2.54735,3.0229 2.54735,3.0229" fill="#929497"/></g><path d="M231.34975,189.02697c-0.04014,-0.01615 -4.17663,0.29755 -8.36013,1.13056c-0.12865,0.02491 -0.25502,0.03285 -0.37965,0.02196c-0.58288,-0.05089 -1.08753,-0.48171 -1.20757,-1.08313c-0.07151,-0.35145 0.00947,-0.69953 0.18963,-0.98203c-0.23278,-0.24266 -0.44638,-0.5486 -0.57715,-0.95592c-0.1539,-0.47248 0.10553,-0.98114 0.57973,-1.13407c0.46934,-0.14784 0.98057,0.10277 1.13515,0.57902c0.12227,0.37937 0.55972,0.52327 0.56494,0.52553c0.12932,0.0411 0.23965,0.11217 0.33229,0.19975c0.13522,-0.0162 0.27131,-0.03323 0.40418,-0.04421c-0.11992,-0.22007 -0.22777,-0.46447 -0.27991,-0.75822c-0.08543,-0.49089 0.24246,-0.95483 0.73343,-1.04116c0.49495,-0.0905 0.95647,0.24442 1.04116,0.73343c0.06796,0.39089 0.46987,0.60034 0.47329,0.60244c0.18886,0.08344 0.32057,0.23046 0.41164,0.39921c3.22546,0.13071 3.08271,-1.23087 5.14432,-1.03296c2.06161,0.19791 0.49767,3.09902 -0.20535,2.8398z" fill="#231f20" stroke="none" stroke-width="0.90025" stroke-linecap="butt" stroke-linejoin="miter"/><path d="M238.35516,199.56783c0,0 1.16952,-2.55456 4.1709,-2.25537c3.00221,0.29713 4.03173,2.39446 4.03173,2.39446" data-paper-data="{&quot;index&quot;:null}" fill="none" stroke="#231f20" stroke-width="0.90025" stroke-linecap="round" stroke-linejoin="miter"/><path d="M248.08555,224.9404c-3.39043,1.40905 -6.4882,1.20899 -6.91906,-0.44684c-0.43086,-1.65582 1.96834,-4.14039 5.35876,-5.54944c3.39043,-1.40905 6.4882,-1.20899 6.91906,0.44684c0.43086,1.65582 -1.96834,4.14039 -5.35876,5.54944z" fill="#be1e2d" stroke="#231f20" stroke-width="0.90025" stroke-linecap="butt" stroke-linejoin="miter"/><path d="M249.45468,218.65301c1.63584,-0.40579 3.50066,0.24777 3.50066,0.24777c0,0 0.12272,5.93814 0.11938,8.0834c-0.00272,2.14842 0.55596,5.54778 0.55596,5.54778c0,0 0.44966,0.36784 0.20346,1.22768c-0.24968,0.85753 -1.95741,0.90668 -4.12945,1.21244c-2.16775,0.30076 -3.84646,-0.20693 -4.07228,-1.08567c-0.22906,-0.87483 0.44496,-1.2274 0.44496,-1.2274c0,0 1.85785,-6.95007 1.26254,-9.42913c0.0039,0.00546 0.02913,-4.05972 2.11476,-4.57686z" fill="#be1e2d" stroke="#231f20" stroke-width="0.90025" stroke-linecap="round" stroke-linejoin="round"/><g stroke="#000000" stroke-width="1" stroke-linecap="butt" stroke-linejoin="miter"><path d="M276.72181,266.93448c-6.94903,2.48678 -51.07106,1.87124 -57.88411,-0.34832c-7.86831,-2.56336 -6.89912,-21.57451 1.11074,-24.14005c6.78323,-2.17265 50.64342,-1.76459 57.67502,0.99318c6.36836,2.49765 6.19476,20.95566 -0.90165,23.49519z" data-paper-data="{&quot;index&quot;:null}" fill="#363636"/><path d="M272.63389,263.40278c-5.53329,1.76301 -40.66621,1.32662 -46.09121,-0.24694c-6.26528,-1.8173 -5.49355,-15.29531 0.88444,-17.11416c5.40126,-1.5403 40.32569,-1.25101 45.92472,0.70411c5.07091,1.77071 4.93268,14.85658 -0.71796,16.65699z" data-paper-data="{&quot;index&quot;:null}" fill="#4a4a4a"/></g><g stroke="#000000" stroke-width="1" stroke-linecap="butt" stroke-linejoin="miter"><path d="M277.22181,314.93448c-6.94903,2.48678 -51.07106,1.87124 -57.88411,-0.34832c-7.86831,-2.56336 -6.89912,-21.57451 1.11074,-24.14005c6.78323,-2.17265 50.64342,-1.76459 57.67502,0.99318c6.36836,2.49764 6.19476,20.95567 -0.90165,23.49519z" data-paper-data="{&quot;index&quot;:null}" fill="#363636"/><path d="M273.13389,311.40278c-5.53329,1.76301 -40.66621,1.32662 -46.09121,-0.24694c-6.26528,-1.8173 -5.49355,-15.29531 0.88444,-17.11416c5.40126,-1.5403 40.32569,-1.25101 45.92472,0.70412c5.07091,1.77071 4.93268,14.85658 -0.71796,16.65699z" data-paper-data="{&quot;index&quot;:null}" fill="#4a4a4a"/></g><path d="M251.49717,186.81217c2.06161,-0.19791 1.91886,1.16367 5.14432,1.03296c0.09107,-0.16875 0.22278,-0.31577 0.41164,-0.39921c0.00342,-0.0021 0.40533,-0.21155 0.47329,-0.60244c0.08469,-0.48901 0.54621,-0.82393 1.04116,-0.73343c0.49097,0.08633 0.81886,0.55027 0.73343,1.04116c-0.05214,0.29375 -0.15999,0.53815 -0.27991,0.75822c0.13287,0.01098 0.26896,0.02801 0.40418,0.04421c0.09264,-0.08758 0.20297,-0.15865 0.33229,-0.19975c0.00522,-0.00226 0.44267,-0.14616 0.56494,-0.52553c0.15458,-0.47625 0.66581,-0.72686 1.13515,-0.57902c0.4742,0.15293 0.73363,0.66159 0.57973,1.13407c-0.13077,0.40732 -0.34437,0.71326 -0.57715,0.95592c0.18016,0.2825 0.26114,0.63058 0.18963,0.98203c-0.12004,0.60142 -0.62469,1.03224 -1.20757,1.08313c-0.12463,0.01089 -0.251,0.00295 -0.37965,-0.02196c-4.1835,-0.83301 -8.31999,-1.14671 -8.36013,-1.13056c-0.70302,0.25922 -2.26696,-2.64189 -0.20535,-2.8398z" data-paper-data="{&quot;index&quot;:null}" fill="#231f20" stroke="none" stroke-width="0.90025" stroke-linecap="butt" stroke-linejoin="miter"/></g></g></svg>