<svg version="1.1" xmlns="http://www.w3.org/2000/svg" xmlns:xlink="http://www.w3.org/1999/xlink" width="44.21436" height="40.97618" viewBox="0,0,44.21436,40.97618"><g transform="translate(-216.30316,-158.53223)"><g data-paper-data="{&quot;isPaintingLayer&quot;:true}" fill-rule="nonzero" stroke="none" stroke-linecap="butt" stroke-linejoin="miter" stroke-miterlimit="10" stroke-dasharray="" stroke-dashoffset="0" style="mix-blend-mode: normal"><path d="M248.39629,192.261c-0.22957,0.41165 -0.43352,0.94181 -0.53275,1.40272c-0.32539,-0.42863 -0.70408,-0.9363 -1.03039,-1.36423c0.50955,0.00159 1.10592,-0.00982 1.56314,-0.03849z" data-paper-data="{&quot;noHover&quot;:false,&quot;origItem&quot;:[&quot;Path&quot;,{&quot;applyMatrix&quot;:true,&quot;selected&quot;:true,&quot;segments&quot;:[[[246.87225,192.33067],[0.50955,0.00159],[0.32631,0.42793],7],[[247.84946,193.61575],[-0.32539,-0.42863],[0.09923,-0.46091],7],[[248.35981,192.29519],[-0.22957,0.41165],[-0.45722,0.02867],7]],&quot;closed&quot;:true,&quot;fillColor&quot;:[0,0,0],&quot;strokeWidth&quot;:0.5}]}" fill="#3d2747" stroke-width="0.25"/><path d="M246.89395,194.79268c-0.1358,0.15107 -0.2829,0.31868 -0.42129,0.46659c-0.77366,0.26845 -1.63214,0.50184 -2.41127,0.70035c0.66518,-1.58608 1.12552,-3.51202 1.22125,-3.29491c0.51755,0.68911 1.08998,1.44174 1.61131,2.12798z" data-paper-data="{&quot;noHover&quot;:false,&quot;origItem&quot;:[&quot;Path&quot;,{&quot;applyMatrix&quot;:true,&quot;selected&quot;:true,&quot;segments&quot;:[[[245.28639,192.71456],[0.51755,0.68911],[-0.09573,-0.21711],7],[[244.09241,195.9204],[0.66518,-1.58608],[0.77913,-0.19851],7],[[246.43604,195.22521],[-0.77366,0.26845],[0.1384,-0.14791],7],[[246.84682,194.77597],[-0.1358,0.15107],[-0.52133,-0.68624],7]],&quot;closed&quot;:true,&quot;fillColor&quot;:[0,0,0],&quot;strokeWidth&quot;:0.5}]}" fill="#3d2747" stroke-width="0.25"/><path d="M242.52281,195.76756c-0.38667,-1.30183 -1.77339,-3.22792 -2.87561,-3.93917c1.23434,0.22959 2.57793,0.38034 3.91359,0.41704c-0.32897,0.57864 -0.5606,1.37334 -0.74245,2.10347c-0.11454,0.45989 -0.22039,0.95037 -0.29552,1.41867z" data-paper-data="{&quot;noHover&quot;:false,&quot;origItem&quot;:[&quot;Path&quot;,{&quot;applyMatrix&quot;:true,&quot;selected&quot;:true,&quot;segments&quot;:[[[242.50402,195.72123],[0,0],[0.07513,-0.4683],7],[[242.77424,194.32532],[-0.11454,0.45989],[0.18185,-0.73013],7],[[243.522,192.27698],[-0.32897,0.57864],[-1.33566,-0.0367],7],[[239.68371,191.86254],[1.23434,0.22959],[1.10222,0.71125],7],[[242.50402,195.72122],[-0.38667,-1.30183],[0,0],7]],&quot;closed&quot;:true,&quot;fillColor&quot;:[0,0,0],&quot;strokeWidth&quot;:0.5}]}" fill="#3d2747" stroke-width="0.25"/><path d="M239.7185,193.95894c0.22625,0.40452 0.71851,1.58025 1.23952,2.5479c-0.11525,0.01445 -0.58272,0.11361 -0.67134,0.57611c-1.01322,0.28884 -2.33111,0.59129 -3.58207,0.75164c-0.31616,-0.05167 -0.63901,-0.11974 -0.94617,-0.18593c0.36833,-0.03978 0.80936,-0.38821 1.33189,-1.20003c0.37831,-0.51521 1.72496,-3.35668 2.05148,-3.45922c0.35251,-0.11069 0.39634,0.64707 0.5767,0.96954z" data-paper-data="{&quot;noHover&quot;:false,&quot;origItem&quot;:[&quot;Path&quot;,{&quot;applyMatrix&quot;:true,&quot;selected&quot;:true,&quot;segments&quot;:[[[239.68273,193.99388],[0,0],[-0.18036,-0.32247],7],[[239.12444,193.0363],[0.35251,-0.11069],[-0.32652,0.10253],7],[[237.1273,196.41496],[0.37831,-0.51521],[-0.52253,0.81183],7],[[235.79551,197.6151],[0.36833,-0.03978],[0.30717,0.06619],7],[[236.73136,197.79235],[-0.31616,-0.05167],[1.25096,-0.16035],7],[[240.24825,197.05099],[-1.01322,0.28884],[0.08861,-0.46251],7],[[240.9118,196.48779],[-0.11525,0.01445],[-0.52101,-0.96765],7],[[239.68272,193.99387],[0.22625,0.40452],[0,0],7]],&quot;closed&quot;:true,&quot;fillColor&quot;:[0,0,0],&quot;strokeWidth&quot;:0.5}]}" fill="#3d2747" stroke-width="0.25"/><path d="M230.41188,189.0017c0.60467,0.21287 1.25968,0.43742 1.8452,0.64461c-0.70115,0.68604 -1.49287,1.70429 -2.07644,2.48312c-0.03397,-1.00153 0.0859,-2.13174 0.23123,-3.12773z" data-paper-data="{&quot;noHover&quot;:false,&quot;origItem&quot;:[&quot;Path&quot;,{&quot;applyMatrix&quot;:true,&quot;segments&quot;:[[[458.8198,379.65013],[0,0],[-0.4123,1.9704]],[[457.9923,385.69247],[0.05508,-2.00346],[1.2605,-1.48312]],[[462.30262,381.12993],[-1.48384,1.28346],[-1.14342,-0.48544]],[[458.81982,379.65013],[1.18094,0.49912],[0,0]]],&quot;closed&quot;:true,&quot;fillColor&quot;:[0,0,0],&quot;strokeWidth&quot;:0.5}]}" fill="#3d2747" stroke-width="0.25"/><path d="M234.3166,194.71096c0.14199,1.10365 0.47231,2.47961 1.09469,2.85091c-0.97302,-0.23249 -1.91368,-0.52185 -2.69973,-0.85543c-1.1519,-0.61851 -1.86049,-1.55503 -2.21264,-2.58194c1.01957,-1.22387 2.1301,-3.02751 3.32778,-3.92268c0.0049,-0.00367 0.00985,-0.0071 0.01457,-0.01039c0.06724,0.02298 0.13706,0.04663 0.20417,0.06941c0.06832,0.34005 -0.17961,1.35955 -0.12229,1.82015c0.10646,0.85557 0.2835,1.77532 0.39346,2.62998z" data-paper-data="{&quot;noHover&quot;:false,&quot;origItem&quot;:[&quot;Path&quot;,{&quot;applyMatrix&quot;:true,&quot;segments&quot;:[[[465.78706,391.38501],[0,0],[-0.11464,-1.7196]],[[465.3569,386.22041],[0.10754,1.72098],[-0.0579,-0.92648]],[[465.84228,382.61113],[0.09466,0.6872],[-0.13118,-0.0537]],[[465.4484,382.44939],[0.1314,0.05412],[-0.00982,0.00598]],[[465.41832,382.46843],[0.01024,-0.00672],[-2.50068,1.64002]],[[458.4248,389.79593],[2.18546,-2.31804],[0.57698,2.09316]],[[462.43626,395.12185],[-2.22358,-1.37602],[1.52822,0.76236]],[[467.65618,397.17537],[-1.91384,-0.58348],[-1.19686,-0.81758]],[[465.78704,391.38501],[0.14804,2.22056],[0,0]]],&quot;closed&quot;:true,&quot;fillColor&quot;:[0,0,0],&quot;strokeWidth&quot;:0.5}]}" fill="#3d2747" stroke-width="0.25"/><path d="M235.72507,194.52797c-0.10647,-0.82758 -0.07474,-2.50769 -0.36538,-3.81224c1.06268,0.33646 2.1879,0.64289 3.26495,0.88667c-0.9231,0.43858 -2.08229,2.96805 -2.66828,3.88196c-0.06178,-0.38769 -0.21126,-0.80079 -0.23128,-0.9564z" data-paper-data="{&quot;noHover&quot;:false,&quot;origItem&quot;:[&quot;Path&quot;,{&quot;applyMatrix&quot;:true,&quot;segments&quot;:[[[468.7795,391.17235],[0,0],[0.02088,0.3131]],[[469.09974,393.09175],[-0.07576,-0.7815],[1.2819,-1.75248]],[[474.7776,385.82107],[-1.89654,0.76224],[-2.12014,-0.61878]],[[468.5017,383.67049],[2.08008,0.80204],[0.42014,2.63984]],[[468.77948,391.17237],[-0.111,-1.6651],[0,0]]],&quot;closed&quot;:true,&quot;fillColor&quot;:[0,0,0],&quot;strokeWidth&quot;:0.5}]}" fill="#3d2747" stroke-width="0.25"/><path d="M233.85205,188.79784c-0.05455,-0.00782 -0.1115,-0.00931 -0.16946,-0.00446c-1.03172,-0.43167 -2.05421,-0.86254 -3.01934,-1.20595l0.07448,-0.33962c0,0 0.15828,-0.73501 -0.57414,-0.89642c-0.73242,-0.16141 -0.82627,0.4973 -0.82627,0.4973l-0.17373,0.78393c-0.38685,2.43508 -0.70481,5.05442 0.12455,7.20339c-0.66757,-0.21046 -2.02453,0.14843 -2.73289,0.11507c-3.33931,-0.78314 -4.23969,-2.71336 -6.34301,-4.96148c-0.94492,-1.00996 -2.00682,-1.38255 -2.38325,-2.85581c-0.46128,-1.80537 0.64003,-3.01221 0.13534,-4.74908c-0.2031,-0.99224 0.30656,-2.04916 0.78594,-2.94134c1.35223,-2.51667 0.09752,-4.82835 2.70945,-7.08222c0.60603,-0.52295 1.87705,-0.38706 2.31951,-0.79259c0.70743,-0.64839 1.06442,-2.92314 1.5746,-3.85817c1.43694,-2.47939 4.14029,-5.95325 7.40755,-5.62329c0.64275,0.06492 1.14073,0.78723 1.78623,0.76121c1.12395,-0.0453 1.94181,-1.76754 2.81429,-2.30508c1.43661,-0.88511 3.00379,-0.57863 4.51996,-0.20188c1.9931,0.4428 3.82975,1.64097 5.61591,2.62403c0.06655,0.10383 0.15872,0.19036 0.2659,0.2506l0.65195,0.37926c0.12559,0.07548 0.2755,0.11575 0.4328,0.10608c0.36042,-0.02215 0.64603,-0.29508 0.69644,-0.63869c0.46551,0.04135 1.06855,-0.08192 1.51066,0.0388c1.63308,0.44592 3.48458,0.97238 4.79319,2.1208c1.29452,1.13606 5.69937,7.03817 1.77928,7.21962c-0.29569,0.06095 -1.90277,0.38345 -1.95603,0.44584c-0.46915,0.54958 -0.05677,2.48453 0.09024,3.12801c0.55485,2.42883 1.81869,6.19754 1.21467,8.69831c-0.26368,1.09171 -2.6146,0.83443 -3.22853,1.50014c-0.32455,0.35192 -0.34123,0.89871 -0.51078,1.34641c0.14024,2.77013 -1.23727,4.67683 -3.23132,6.0133c0.63401,-0.77609 1.45361,-1.89376 1.0845,-2.4334c-0.5305,-0.77563 -4.15578,-0.34653 -5.0848,-0.33377c-1.86666,0.02562 -4.04312,0.36435 -5.88668,0.09848c-1.76869,-0.25507 -3.6625,-0.96508 -5.49657,-1.72079c-0.20805,-0.20472 -0.46362,-0.34249 -0.77061,-0.38651z" data-paper-data="{&quot;noHover&quot;:false,&quot;origItem&quot;:[&quot;Path&quot;,{&quot;applyMatrix&quot;:true,&quot;segments&quot;:[[[465.71394,379.48303],[0,0],[0.60742,0.12554]],[[467.19854,380.34649],[-0.3902,-0.4342],[3.56852,1.73362]],[[477.91766,384.44963],[-3.49942,-0.72618],[3.64756,0.75692]],[[489.64398,384.98503],[-3.72944,-0.17788],[1.85612,0.08852]],[[499.73422,386.28737],[-0.96384,-1.61342],[0.6706,1.12254]],[[497.28066,391.00489],[1.36086,-1.47146],[4.14458,-2.42324]],[[504.44336,379.42023],[-0.05994,5.54704],[0.3934,-0.87292]],[[505.62358,376.80149],[-0.69106,0.6627],[1.30722,-1.25358]],[[512.24528,374.21569],[-0.66032,2.14696],[1.5126,-4.91802]],[[510.878,356.74653],[0.8096,4.91658],[-0.2145,-1.30256]],[[511.08332,350.50877],[-1.00396,1.03952],[0.11398,-0.11802]],[[515.04268,349.85855],[-0.59774,0.0854],[7.84768,0.11876]],[[512.38922,335.26159],[2.44478,2.42668],[-2.4714,-2.45308]],[[503.09558,330.45861],[3.2053,1.09054],[-0.86774,-0.29524]],[[500.08934,330.20021],[0.9242,0.13966],[-0.14278,0.67974]],[[498.62138,331.39031],[0.7222,0],[-0.3152,0]],[[497.77226,331.12701],[0.24144,0.16608],[0,0]],[[496.52082,330.29271],[0,0],[-0.20656,-0.1334]],[[496.02248,329.76111],[0.1201,0.21544],[-3.44498,-2.18158]],[[485.16646,323.84963],[3.92436,1.12848],[-2.98042,-0.9381]],[[476.14506,323.70159],[2.9764,-1.59062],[-1.80762,0.966]],[[470.26412,327.95579],[2.24922,0.04748],[-1.29176,-0.02726]],[[466.801,326.21475],[1.27512,0.20846],[-6.48174,-1.05956]],[[451.3719,336.49931],[3.17268,-4.77314],[-1.13316,1.80396]],[[447.76912,343.98583],[1.49174,-1.20754],[-0.933,0.75524]],[[443.04496,345.27513],[1.27394,-0.96958],[-5.49056,4.17878]],[[436.7729,359.04187],[3.00814,-4.85794],[-1.06642,1.72218]],[[434.84148,364.80365],[-0.2837,-2.00566],[0.79438,3.52912]],[[433.9829,374.24801],[-0.69932,-3.66054],[0.57068,2.98716]],[[438.38264,380.22677],[-1.76236,-2.13206],[3.92288,4.74584]],[[450.4113,390.88207],[-6.56996,-1.97304],[1.40996,0.1535]],[[455.76932,391.15327],[-1.3068,-0.50204],[-1.39192,-4.3916]],[[456.38502,376.74319],[-1.07102,4.81352],[0,0]],[456.82596,375.19749],[[458.68032,374.16729],[-1.44228,-0.41208],[1.44228,0.41208]],[459.71052,376.02165],[[459.51932,376.68973],[0,0],[1.88448,0.80394]],[[465.37738,379.45381],[-2.00658,-0.9883],[0.1163,-0.00256]],[[465.71396,379.48297],[-0.10794,-0.0223],[0,0]]],&quot;closed&quot;:true,&quot;fillColor&quot;:[0,0,0],&quot;strokeWidth&quot;:0.5}]}" fill="#3d2747" stroke-width="0.25"/><path d="M245.28639,192.71456c-0.09573,-0.21711 -0.5288,1.61976 -1.19398,3.20585c0.77913,-0.19851 1.56998,-0.42675 2.34364,-0.6952c0.1384,-0.14791 0.27498,-0.29817 0.41077,-0.44924c-0.52133,-0.68624 -1.04288,-1.37231 -1.56043,-2.06141zM239.68273,193.99388c-0.18036,-0.32247 -0.20578,-1.06828 -0.5583,-0.95758c-0.32652,0.10253 -1.61883,2.86345 -1.99714,3.37866c-0.52253,0.81183 -0.96346,1.16036 -1.33179,1.20014c0.30717,0.06619 0.6197,0.12558 0.93586,0.17725c1.25096,-0.16035 2.50366,-0.45252 3.51688,-0.74136c0.08861,-0.46251 0.54831,-0.54876 0.66356,-0.56321c-0.52101,-0.96765 -1.00283,-2.08939 -1.22908,-2.49392zM234.27178,194.68883c-0.10996,-0.85466 -0.26664,-1.70867 -0.37309,-2.56424c-0.05731,-0.46059 0.19984,-1.47608 0.13152,-1.81613c-0.06711,-0.02278 -0.13429,-0.04566 -0.20153,-0.06864c-0.00472,0.00329 -0.00952,0.00676 -0.01443,0.01042c-1.19768,0.89517 -2.24584,2.64749 -3.26541,3.87137c0.35215,1.02691 1.01341,1.91639 2.16532,2.5349c0.78606,0.33359 1.69502,0.63223 2.66803,0.86471c-0.62238,-0.37131 -0.96843,-1.72875 -1.11042,-2.83239zM233.87021,188.75129c0.30699,0.04402 0.55934,0.18066 0.76739,0.38538c1.83408,0.75572 3.70663,1.46384 5.47532,1.71891c1.84356,0.26586 4.00188,-0.06687 5.86854,-0.0925c0.92903,-0.01276 4.54506,-0.43519 5.07557,0.34044c0.3691,0.53964 -0.44575,1.65349 -1.07976,2.42958c1.99406,-1.33647 3.35949,-3.23099 3.21926,-6.00113c0.16955,-0.4477 0.18412,-0.99118 0.50867,-1.34311c0.61393,-0.66571 2.96161,-0.40186 3.2253,-1.49358c0.60402,-2.50078 -0.66335,-6.24736 -1.2182,-8.67619c-0.147,-0.64347 -0.55802,-2.56973 -0.08887,-3.1193c0.05326,-0.0624 1.66032,-0.38499 1.95601,-0.44595c3.92009,-0.18145 -0.47745,-6.06728 -1.77198,-7.20334c-1.30862,-1.14842 -3.15231,-1.66597 -4.78539,-2.1119c-0.44211,-0.12073 -1.0427,0.00461 -1.50821,-0.03674c-0.05041,0.34361 -0.33567,0.6168 -0.69609,0.63896c-0.1573,0.00967 -0.30625,-0.02988 -0.43184,-0.10536l-0.65013,-0.37798c-0.10718,-0.06024 -0.19846,-0.14618 -0.26501,-0.25001c-1.78616,-0.98306 -3.60601,-2.17438 -5.59911,-2.61718c-1.51618,-0.37675 -3.07014,-0.68227 -4.50674,0.20284c-0.87248,0.53754 -1.68049,2.25819 -2.80444,2.30348c-0.6455,0.02602 -1.13895,-0.69773 -1.7817,-0.76265c-3.26727,-0.32996 -5.94761,3.12647 -7.38455,5.60586c-0.51018,0.93504 -0.86093,3.19833 -1.56836,3.84672c-0.44246,0.40553 -1.71205,0.26539 -2.31808,0.78834c-2.61193,2.25387 -1.35562,4.54613 -2.70784,7.06279c-0.47938,0.89218 -0.99026,1.94247 -0.78716,2.93471c0.50469,1.73687 -0.60007,2.93425 -0.13879,4.73962c0.37643,1.47326 1.4342,1.83883 2.37912,2.84879c2.10332,2.24812 2.99053,4.16551 6.32984,4.94865c0.70836,0.03336 2.01471,-0.23947 2.68228,-0.02901c-0.82936,-2.14897 -0.52159,-4.77528 -0.13474,-7.21035l0.17264,-0.78492c0,0 0.16141,-0.73242 0.89383,-0.57101c0.73242,0.16141 0.57101,0.89383 0.57101,0.89383l-0.07493,0.33928c0.96513,0.34341 1.97658,0.76808 3.0083,1.19975c0.05796,-0.00484 0.11432,-0.00359 0.16887,0.00423zM235.75865,194.49091c0.02002,0.15561 0.15691,0.56038 0.21869,0.94807c0.58599,-0.91391 1.68746,-3.36408 2.61056,-3.80265c-1.07705,-0.24377 -2.13532,-0.5443 -3.19801,-0.88076c0.29065,1.30455 0.26227,2.90778 0.36874,3.73535zM242.50402,195.72123c0.07513,-0.4683 0.15568,-0.93602 0.27022,-1.39592c0.18185,-0.73013 0.41879,-1.46969 0.74776,-2.04833c-1.33566,-0.0367 -2.60394,-0.18485 -3.83828,-0.41444c1.10222,0.71125 2.43363,2.55685 2.8203,3.85868zM245.81953,197.79221c-2.46139,1.71836 -5.95164,1.98822 -9.16136,1.49855c-1.72038,0.18864 -3.43828,0.1401 -4.73196,-0.40146c-1.20537,-0.5046 -2.06892,-2.23515 -3.11418,-2.5788c-0.48668,-0.16001 -1.90255,0.11173 -2.43792,0.08438c-3.71812,-0.86996 -4.82195,-2.89957 -7.20931,-5.40176c-1.14624,-1.20138 -2.26671,-1.75068 -2.74237,-3.50296c-0.47517,-1.75044 0.65814,-3.27128 0.13879,-4.73962c-0.40506,-1.95272 -0.10685,-2.48555 0.93387,-4.05265c0.34122,-0.51381 0.16808,-2.11325 0.2602,-2.76111c0.19925,-1.40128 0.85755,-2.65615 1.79728,-3.71456c0.9226,-1.03912 2.70784,-1.2083 3.32323,-1.7964c0.38086,-0.36397 0.85442,-2.7611 1.21071,-3.42073c1.77022,-3.0365 4.92843,-6.77866 8.86885,-6.36065c0.56751,0.0602 0.97965,0.63213 1.53725,0.75375c0.03149,0.00687 1.92219,-1.9818 2.08714,-2.0831c1.79628,-1.10319 3.71761,-0.85342 5.6377,-0.38435c2.16767,0.50323 4.12223,1.74239 6.06453,2.81376l0.30749,-0.10867l0.08719,0.24673c4.03377,-1.30257 9.7135,2.23565 11.1173,6.02466c0.93773,2.53103 1.54888,5.77072 -2.0166,6.03356c-0.33669,0.06941 -0.68887,-0.08819 -1.0302,-0.04735c-0.34941,0.0418 0.2382,0.66831 0.28117,1.01757c0.10912,0.88669 0.42757,1.73019 0.58638,2.60823c0.38875,2.14923 0.88067,4.45754 0.84248,6.65103c-0.02245,1.28944 -0.47236,1.94387 -1.63594,2.47568c-0.66837,0.30547 -2.08908,0.40394 -2.13516,1.06265c0.34768,4.66253 -3.2997,7.24073 -7.35746,8.75101c-0.46965,0.48962 -0.96162,0.95044 -1.50909,1.33265zM230.43475,189.04615c-0.14532,0.99599 -0.26159,2.03933 -0.22763,3.04086c0.58357,-0.77883 1.31,-1.72315 2.01115,-2.40919c-0.58552,-0.20719 -1.17884,-0.41881 -1.78351,-0.63168zM246.87225,192.33067c0.32631,0.42793 0.65182,0.85646 0.97721,1.28508c0.09923,-0.46091 0.28078,-0.90891 0.51035,-1.32056c-0.45722,0.02867 -0.97801,0.03707 -1.48756,0.03547z" fill="#000000" stroke-width="0.5"/><path d="M253.76535,177.54368c0.59734,-0.45353 1.05086,0.14381 1.05086,0.14381l0.50695,0.6729c0.27973,0.56052 0.49823,1.15849 0.62779,1.77139c0.04258,0.68775 0.11705,1.24065 -0.00326,1.92896c-0.45415,2.59842 -2.92727,3.25671 -5.23597,2.59511c-0.535,-0.15332 -1.67324,-1.13324 -2.13579,-1.11706c-0.25538,0.00893 -1.37509,1.25366 -1.68063,1.36281c-1.95543,0.69855 -5.09726,-0.03787 -6.77772,-1.01179c-0.27528,-0.24281 -1.25322,-1.62493 -1.58244,-1.66816c-0.83677,-0.10988 -1.38764,1.09486 -2.22359,1.21075c-4.277,0.59297 -8.10147,-1.95731 -7.74303,-6.4017c0,0 0.06032,-0.74757 0.80789,-0.68726c0.74757,0.06032 0.68726,0.80789 0.68726,0.80789c-0.25985,3.21892 3.3499,6.23232 6.7118,4.68704c0.41925,-0.1927 1.25773,-1.14706 1.70924,-1.11588c1.15186,0.07956 1.76161,1.28627 2.51091,1.95115c1.246,0.72785 3.92227,1.32615 5.37776,0.82168c0.71286,-0.24707 1.18856,-1.38746 2.01769,-1.4451c1.55385,-0.10802 5.59341,3.34304 6.07271,-0.20849c0.08494,-0.62938 0.03864,-0.88218 0.0003,-1.51205c-0.08077,-0.40737 -0.22491,-0.80529 -0.41352,-1.1753l-0.42903,-0.55987c0,0 -0.45353,-0.59734 0.14381,-1.05086z" fill="#000000" stroke-width="0.5"/></g></g></svg>