<svg version="1.1" xmlns="http://www.w3.org/2000/svg" xmlns:xlink="http://www.w3.org/1999/xlink" width="1426.07729" height="728.07672" viewBox="0,0,1426.07729,728.07672"><defs><linearGradient x1="240.00006" y1="-228.52021" x2="240.00006" y2="211.32608" gradientUnits="userSpaceOnUse" id="color-1"><stop offset="0" stop-color="#993400" stop-opacity="0"/><stop offset="1" stop-color="#993400" stop-opacity="0.64869"/></linearGradient><linearGradient x1="240.00005" y1="348.17086" x2="240.00005" y2="483.98717" gradientUnits="userSpaceOnUse" id="color-2"><stop offset="0" stop-color="#040000" stop-opacity="0"/><stop offset="1" stop-color="#040000" stop-opacity="0.61702"/></linearGradient><linearGradient x1="240.00005" y1="-51.94673" x2="240.00005" y2="-147.90223" gradientUnits="userSpaceOnUse" id="color-3"><stop offset="0" stop-color="#040000" stop-opacity="0"/><stop offset="1" stop-color="#040000" stop-opacity="0.61702"/></linearGradient><linearGradient x1="236.79006" y1="-244.08955" x2="236.79006" y2="-148.13405" gradientUnits="userSpaceOnUse" id="color-4"><stop offset="0" stop-color="#040000" stop-opacity="0"/><stop offset="1" stop-color="#040000" stop-opacity="0.61702"/></linearGradient><linearGradient x1="246.56677" y1="202.40795" x2="246.56677" y2="356.67666" gradientUnits="userSpaceOnUse" id="color-5"><stop offset="0" stop-color="#591515"/><stop offset="1" stop-color="#3b1511"/></linearGradient><linearGradient x1="243.11666" y1="202.40794" x2="243.11666" y2="356.67666" gradientUnits="userSpaceOnUse" id="color-6"><stop offset="0" stop-color="#700707"/><stop offset="1" stop-color="#4a100a"/></linearGradient><linearGradient x1="454.66041" y1="-17.66635" x2="454.66041" y2="205.03435" gradientUnits="userSpaceOnUse" id="color-7"><stop offset="0" stop-color="#470d0f"/><stop offset="1" stop-color="#380d12"/></linearGradient><linearGradient x1="29.18244" y1="-17.66635" x2="29.18244" y2="205.03435" gradientUnits="userSpaceOnUse" id="color-8"><stop offset="0" stop-color="#470d0f"/><stop offset="1" stop-color="#380d12"/></linearGradient><linearGradient x1="240.47204" y1="-75.42617" x2="240.47204" y2="198.23652" gradientUnits="userSpaceOnUse" id="color-9"><stop offset="0" stop-color="#470d0f"/><stop offset="1" stop-color="#380d12"/></linearGradient><linearGradient x1="149.81489" y1="-77.72459" x2="149.81489" y2="210.79979" gradientUnits="userSpaceOnUse" id="color-10"><stop offset="0" stop-color="#460d10"/><stop offset="1" stop-color="#3c0d11"/></linearGradient><linearGradient x1="336.24767" y1="-77.72459" x2="336.24767" y2="210.79979" gradientUnits="userSpaceOnUse" id="color-11"><stop offset="0" stop-color="#460d10"/><stop offset="1" stop-color="#3c0d11"/></linearGradient><linearGradient x1="-109.69517" y1="-77.72459" x2="-109.69517" y2="210.79979" gradientUnits="userSpaceOnUse" id="color-12"><stop offset="0" stop-color="#460d10"/><stop offset="1" stop-color="#3c0d11"/></linearGradient><linearGradient x1="716.64657" y1="-5.66635" x2="716.64657" y2="205.03435" gradientUnits="userSpaceOnUse" id="color-13"><stop offset="0" stop-color="#470d0f"/><stop offset="1" stop-color="#380d12"/></linearGradient><linearGradient x1="-238.10292" y1="-5.66635" x2="-238.10292" y2="205.03435" gradientUnits="userSpaceOnUse" id="color-14"><stop offset="0" stop-color="#470d0f"/><stop offset="1" stop-color="#380d12"/></linearGradient><linearGradient x1="589.69526" y1="-77.72459" x2="589.69526" y2="210.79979" gradientUnits="userSpaceOnUse" id="color-15"><stop offset="0" stop-color="#460d10"/><stop offset="1" stop-color="#3c0d11"/></linearGradient><radialGradient cx="243.33903" cy="-46.62887" r="16.62277" gradientUnits="userSpaceOnUse" id="color-16"><stop offset="0" stop-color="#ffaf54" stop-opacity="0.328"/><stop offset="1" stop-color="#ffaf54" stop-opacity="0"/></radialGradient><linearGradient x1="240.00005" y1="33.56988" x2="240.00005" y2="467.41617" gradientUnits="userSpaceOnUse" id="color-17"><stop offset="0" stop-color="#800000" stop-opacity="0"/><stop offset="1" stop-color="#800000" stop-opacity="0.73387"/></linearGradient></defs><g transform="translate(474.38176,244.08955)"><g data-paper-data="{&quot;isPaintingLayer&quot;:true}" fill-rule="nonzero" stroke-linejoin="miter" stroke-miterlimit="10" stroke-dasharray="" stroke-dashoffset="0" style="mix-blend-mode: normal"><g stroke="none" stroke-width="0" stroke-linecap="butt"><path d="M-181.25954,211.32608v-439.84629h842.5192v439.84629z" fill="url(#color-1)"/><g><path d="M-181.25954,483.98717v-135.81631h842.5192v135.81631z" fill="url(#color-2)"/><path d="M661.25965,-147.90223v95.9555h-842.5192v-95.9555z" data-paper-data="{&quot;index&quot;:null}" fill="url(#color-3)"/></g><path d="M-184.46954,-148.13405v-95.9555h842.5192v95.9555z" data-paper-data="{&quot;index&quot;:null}" fill="url(#color-4)"/></g><g stroke="none" stroke-width="0" stroke-linecap="butt"><path d="M234.86103,-46.99421c0,-6.50802 3.55038,-11.78382 7.92999,-11.78382c4.37961,0 7.92999,5.2758 7.92999,11.78382c0,6.50802 -3.55038,11.78382 -7.92999,11.78382c-4.37961,0 -7.92999,-5.2758 -7.92999,-11.78382z" fill="#ff8800"/><path d="M238.71392,-46.99421c0,-3.34601 1.82538,-6.05849 4.0771,-6.05849c2.25172,0 4.0771,2.71248 4.0771,6.05849c0,3.34601 -1.82538,6.05849 -4.0771,6.05849c-2.25172,0 -4.0771,-2.71248 -4.0771,-6.05849z" fill="#ffd200"/><path d="M241.05382,-46.99421c0,-2.44553 0.77777,-4.42802 1.73721,-4.42802c0.95943,0 1.7372,1.98249 1.7372,4.42802c0,2.44553 -0.77777,4.42802 -1.7372,4.42802c-0.95943,0 -1.73721,-1.98249 -1.73721,-4.42802z" fill="#ffffff"/></g><path d="M-215.61475,356.67666l-0.50948,-154.26872h903.95732l1.87126,154.26872z" fill="url(#color-5)" stroke="none" stroke-width="0" stroke-linecap="butt"/><path d="M79.02184,356.67666l104.74138,-154.26872h118.7069l100.55172,154.26872z" fill="url(#color-6)" stroke="none" stroke-width="0" stroke-linecap="butt"/><path d="M-248.72359,370.19017l81.70938,-13.51351h869.3878l58.83075,13.51351z" fill="#310a0a" stroke="none" stroke-width="0" stroke-linecap="butt"/><g fill="none" stroke="#787890" stroke-width="3.5" stroke-linecap="round"><g><g><g><path d="M-263.36422,373.20568v36.3338"/><path d="M-261.84634,372.96932l35.63057,32.11439"/><path d="M-263.0184,398.05136l28.83263,-24.61322"/></g><path d="M-305.15838,409.4213v-36.3338"/><path d="M-264.77067,372.96932l-35.63056,32.11439"/><path d="M-292.43124,373.43814l28.83263,24.61322"/></g><g data-paper-data="{&quot;index&quot;:null}"><g><path d="M-179.69428,409.53949v-36.3338"/><path d="M-178.17639,372.96932l35.63056,32.11439"/><path d="M-150.51582,373.43814l-28.83263,24.61322"/></g><path d="M-221.48844,409.4213v-36.3338"/><path d="M-181.10073,372.96932l-35.63056,32.1144"/><path d="M-208.76132,373.43814l28.83263,24.61322"/></g><g><g><path d="M-430.83757,373.20569v36.3338"/><path d="M-393.68914,405.08372l-35.63056,-32.1144"/><path d="M-401.65914,373.43814l-28.83263,24.61322"/></g><path d="M-472.63176,409.4213v-36.3338"/><path d="M-467.87461,405.08371l35.63057,-32.11439"/><path d="M-459.90462,373.43814l28.83263,24.61322"/></g><g data-paper-data="{&quot;index&quot;:null}"><g><path d="M-347.16765,409.53949v-36.3338"/><path d="M-310.01921,405.08371l-35.63057,-32.11439"/><path d="M-317.98923,373.43814l-28.83263,24.61322"/></g><path d="M-388.96183,373.0875v36.3338"/><path d="M-348.5741,372.96932l-35.63057,32.1144"/><path d="M-347.40206,398.05136l-28.83263,-24.61322"/></g></g><g><g><path d="M71.4936,409.53949v-36.3338"/><path d="M108.64201,405.08372l-35.63056,-32.1144"/><path d="M100.67201,373.43814l-28.83263,24.61322"/></g><path d="M29.69938,409.4213v-36.3338"/><path d="M70.08711,372.96932l-35.63057,32.11439"/><path d="M71.25921,398.05136l-28.83263,-24.61322"/></g><g data-paper-data="{&quot;index&quot;:null}"><g><path d="M155.16353,373.20569v36.3338"/><path d="M156.68136,372.96932l35.63057,32.11439"/><path d="M155.5093,398.05136l28.83263,-24.61322"/></g><path d="M113.36932,373.0875v36.3338"/><path d="M153.75706,372.96932l-35.63057,32.1144"/><path d="M154.92911,398.05136l-28.83263,-24.61322"/></g><g><g><path d="M-95.9798,373.20569v36.3338"/><path d="M-94.46201,372.96932l35.63056,32.1144"/><path d="M-66.8014,373.43814l-28.83263,24.61322"/></g><path d="M-137.77401,409.4213v-36.3338"/><path d="M-97.3863,372.96932l-35.63056,32.11439"/><path d="M-125.04685,373.43814l28.83263,24.61322"/></g><g data-paper-data="{&quot;index&quot;:null}"><g><path d="M-12.30991,409.53949v-36.3338"/><path d="M24.83859,405.08371l-35.63056,-32.11439"/><path d="M16.86859,373.43814l-28.83263,24.61322"/></g><path d="M-54.10403,373.0875v36.3338"/><path d="M-49.34699,405.08372l35.63056,-32.1144"/><path d="M-12.54433,398.05136l-28.83263,-24.61322"/></g><g data-paper-data="{&quot;index&quot;:null}"><g><path d="M240.93798,373.20569v36.3338"/><path d="M278.08649,405.08371l-35.63056,-32.11439"/><path d="M270.11648,373.43814l-28.83263,24.61322"/></g><path d="M199.14381,373.0875v36.3338"/><path d="M203.90102,405.08372l35.63056,-32.1144"/><path d="M211.87098,373.43814l28.83263,24.61322"/></g></g><g fill="none" stroke="#211513" stroke-width="2.5" stroke-linecap="round"><g><path d="M181.09475,57.61829v-65.69895"/><path d="M189.05895,57.61829v-65.69895"/><path d="M197.0232,57.61829v-65.69895"/><path d="M204.9874,57.61829v-65.69895"/><path d="M212.95161,-8.08066v65.69895"/><path d="M220.91583,57.61829v-65.69895"/><path d="M228.88005,-8.08066v65.69895"/><path d="M236.84425,57.61829v-65.69895"/><path d="M244.80848,-8.08066v65.69895"/><path d="M252.7727,57.61829v-65.69895"/><path d="M260.7369,57.61829v-65.69895"/><path d="M268.70115,57.61829v-65.69895"/><path d="M276.66535,-8.08066v65.69895"/><path d="M284.62956,57.61829v-65.69895"/><path d="M292.5938,57.61829v-65.69895"/><path d="M300.558,57.61829v-65.69895"/></g><path d="M178.09547,57.61829h124.75311"/></g><path d="M329.72848,-17.66635l249.86379,8.36434l-1.89292,213.2908l-223.36308,1.04555z" data-paper-data="{&quot;index&quot;:null}" fill="url(#color-7)" stroke="#221010" stroke-width="1.5" stroke-linecap="round"/><path d="M129.50659,205.03434l-223.36308,-1.04554l-1.89292,-213.2908l249.86379,-8.36434z" fill="url(#color-8)" stroke="#221010" stroke-width="1.5" stroke-linecap="round"/><path d="M245.00293,13.51024c-43.50175,0.26714 -61.65985,26.94854 -61.65713,28.75596c0.01936,12.835 0.23525,155.97032 0.23525,155.97032l-23.99144,-6.23777l2.39915,-217.10344c0,0 27.17443,9.78152 30.46911,-1.4395c0.69732,-2.37489 -5.5606,-12.58485 -0.29637,-13.90091c5.26424,-1.31605 4.04842,10.84388 8.69337,11.9816c18.02155,4.41412 21.74613,-8.48351 23.66659,-15.55231c0.62474,-2.29957 3.20382,-4.12065 3.20382,-4.12065c0,0 -1.69636,-11.91611 -1.67699,-16.51531c0.00896,-2.12613 3.71835,-9.16625 3.71835,-9.16625c0,0 0.28396,9.89522 4.8231,13.54887c2.25131,1.81213 4.64358,-2.3256 8.06203,-2.18456c3.41844,0.14105 6.07357,3.84608 7.95588,2.84547c5.02549,-2.67148 4.24581,-15.81792 4.24581,-15.81792c0,0 3.24613,5.68885 4.242,10.69749c0.76518,3.84846 0.42158,16.64074 0.42158,16.64074c0,0 2.18534,2.9381 2.94867,4.47727c1.69,3.4077 -4.05077,13.44372 13.93669,17.07168c1.61133,0.325 7.97386,-0.93172 10.09075,-2.95839c-0.59747,-5.68917 2.73782,-10.14039 5.68064,-10.13897c3.34436,0.00162 5.74312,6.72681 1.59641,11.16761c0,0 3.19887,4.97979 10.88929,7.12044c5.75842,2.15097 15.00219,1.47148 15.00219,1.47148l1.6928,217.25635l-17.51721,-0.57844c0,0 -2.67437,-141.11199 -2.90778,-153.42741c-0.03195,-1.68578 -11.06523,-30.13894 -55.9266,-29.86344zM242.82077,-35.51162c0.53875,0 6.92558,-11.37203 6.92558,-11.91078c0,-0.53874 -6.54765,-9.65939 -7.0864,-9.65939c-0.53875,0 -7.2472,8.95983 -7.2472,9.4986c0,0.53874 6.86926,12.07158 7.40801,12.07158zM292.13374,-34.21074c0.53874,0 1.27109,-1.17576 1.27109,-1.7145c0,-0.53874 -1.47135,-1.7145 -2.0101,-1.7145c-0.53874,0 -1.41889,1.47135 -1.41889,2.0101c0,0.53874 1.61916,1.4189 2.15791,1.4189zM193.49718,-35.09285c0.53875,0 1.50278,-0.70039 1.50278,-1.23914c0,-0.53874 -1.09586,-1.76643 -1.6346,-1.76643c-0.53875,0 -1.37097,1.09586 -1.37097,1.63461c0,0.53874 0.96403,1.37097 1.50278,1.37097z" fill="url(#color-9)" stroke="#221010" stroke-width="1.5" stroke-linecap="round"/><path d="M114.41675,206.71538l9.22558,-43.3176l-3.0576,-3.67724l3.66998,-3.77304l14.3281,-153.11192l-5.19976,-72.37056c0,0 -9.55747,-8.6334 -3.78946,-8.17171c2.94349,0.23561 32.50048,0.16634 41.38721,2.80785c9.22055,2.74072 -2.27417,8.19127 -2.27417,8.19127l-3.23485,71.245l6.07057,152.00964l2.62617,3.52802l-2.43809,3.95772l13.48263,42.00187l-37.10001,4.76514z" fill="url(#color-10)" stroke="#221010" stroke-width="1.5" stroke-linecap="butt"/><path d="M337.94949,210.79979l-37.10001,-4.76514l13.48264,-42.00187l-2.43809,-3.95771l2.62617,-3.52802l6.07057,-152.00963l-3.23485,-71.245c0,0 -11.49472,-5.45056 -2.27417,-8.19127c8.88673,-2.6415 38.44372,-2.57224 41.38721,-2.80785c5.76803,-0.46169 -3.78945,8.17172 -3.78945,8.17172l-5.19976,72.37057l14.3281,153.11192l3.66998,3.77304l-3.05761,3.67724l9.22559,43.3176z" data-paper-data="{&quot;index&quot;:null}" fill="url(#color-11)" stroke="#221010" stroke-width="1.5" stroke-linecap="butt"/><path d="M-145.09332,206.71538l9.22558,-43.3176l-3.05761,-3.67724l3.66998,-3.77304l14.3281,-153.11192l-5.19976,-72.37056c0,0 -9.55747,-8.6334 -3.78945,-8.17171c2.94348,0.23561 32.50048,0.16634 41.38721,2.80785c9.22056,2.74072 -2.27417,8.19127 -2.27417,8.19127l-3.23485,71.245l6.07058,152.00964l2.62617,3.52802l-2.43809,3.95772l13.48264,42.00187l-37.10001,4.76514z" fill="url(#color-12)" stroke="#221010" stroke-width="1.5" stroke-linecap="butt"/><g stroke="#221010" stroke-width="1.5" stroke-linecap="round"><path d="M584.50001,-5.66635l264.29306,7.91364l-2.00223,201.79784l-236.26197,0.98921z" data-paper-data="{&quot;index&quot;:null}" fill="url(#color-13)"/><path d="M-131.9852,205.03434l-236.26197,-0.9892l-2.00223,-201.79784l264.29306,-7.91364z" fill="url(#color-14)"/></g><path d="M591.39708,210.79979l-37.10001,-4.76514l13.48263,-42.00187l-2.43809,-3.95771l2.62617,-3.52802l6.07058,-152.00963l-3.23485,-71.245c0,0 -11.49473,-5.45056 -2.27417,-8.19127c8.88674,-2.6415 38.44372,-2.57224 41.38722,-2.80785c5.76803,-0.46169 -3.78946,8.17172 -3.78946,8.17172l-5.19975,72.37057l14.32809,153.11192l3.66999,3.77304l-3.05761,3.67724l9.22559,43.3176z" data-paper-data="{&quot;index&quot;:null}" fill="url(#color-15)" stroke="#221010" stroke-width="1.5" stroke-linecap="butt"/><path d="M223.24555,-47.54221c0,-9.1805 10.91296,-19.91079 20.09346,-19.91079c9.1805,0 18.99745,11.46096 18.99745,20.64146c0,9.1805 -9.63428,20.27613 -18.81478,20.27613c-9.1805,0 -20.27613,-11.82629 -20.27613,-21.0068z" fill="url(#color-16)" stroke="none" stroke-width="0" stroke-linecap="butt"/><g fill="none" stroke="#787890" stroke-width="3.5" stroke-linecap="round"><g><g><g><path d="M408.49482,409.53948v-36.3338"/><path d="M410.0127,372.96932l35.63057,32.11439"/><path d="M408.84064,398.05136l28.83263,-24.61322"/></g><path d="M366.70066,373.0875v36.3338"/><path d="M407.08837,372.96932l-35.63056,32.11439"/><path d="M379.4278,373.43814l28.83263,24.61322"/></g><g data-paper-data="{&quot;index&quot;:null}"><g><path d="M492.16476,409.53949v-36.3338"/><path d="M493.68265,372.96932l35.63056,32.11439"/><path d="M521.34322,373.43814l-28.83263,24.61322"/></g><path d="M450.3706,409.4213v-36.3338"/><path d="M490.75831,372.96932l-35.63056,32.1144"/><path d="M463.09772,373.43814l28.83263,24.61322"/></g><g><g><path d="M241.02147,373.20569v36.3338"/><path d="M278.1699,405.08372l-35.63056,-32.1144"/><path d="M270.19989,373.43814l-28.83263,24.61322"/></g><path d="M199.22728,409.4213v-36.3338"/><path d="M203.98443,405.08371l35.63057,-32.11439"/><path d="M240.78705,398.05136l-28.83263,-24.61322"/></g><g data-paper-data="{&quot;index&quot;:null}"><g><path d="M324.69139,409.53949v-36.3338"/><path d="M361.83983,405.08371l-35.63057,-32.11439"/><path d="M353.86981,373.43814l-28.83263,24.61322"/></g><path d="M282.89721,409.4213v-36.3338"/><path d="M323.28494,372.96932l-35.63057,32.1144"/><path d="M324.45698,398.05136l-28.83263,-24.61322"/></g></g><g><g><path d="M743.35264,373.20569v36.3338"/><path d="M780.50105,405.08372l-35.63056,-32.1144"/><path d="M772.53105,373.43814l-28.83263,24.61322"/></g><path d="M701.55842,409.4213v-36.3338"/><path d="M706.31558,405.08371l35.63057,-32.11439"/><path d="M714.28562,373.43814l28.83263,24.61322"/></g><g data-paper-data="{&quot;index&quot;:null}"><g><path d="M827.02257,373.20569v36.3338"/><path d="M864.17097,405.08371l-35.63057,-32.11439"/><path d="M827.36834,398.05136l28.83263,-24.61322"/></g><path d="M785.22836,373.0875v36.3338"/><path d="M789.98553,405.08372l35.63057,-32.1144"/><path d="M826.78815,398.05136l-28.83263,-24.61322"/></g><g><g><path d="M575.87924,373.20569v36.3338"/><path d="M577.39703,372.96932l35.63056,32.1144"/><path d="M605.05764,373.43814l-28.83263,24.61322"/></g><path d="M534.08503,409.4213v-36.3338"/><path d="M574.47274,372.96932l-35.63056,32.11439"/><path d="M546.81219,373.43814l28.83263,24.61322"/></g><g data-paper-data="{&quot;index&quot;:null}"><g><path d="M659.54913,409.53949v-36.3338"/><path d="M661.06707,372.96932l35.63056,32.11439"/><path d="M688.72763,373.43814l-28.83263,24.61322"/></g><path d="M617.75501,373.0875v36.3338"/><path d="M622.51205,405.08372l35.63056,-32.1144"/><path d="M659.31471,398.05136l-28.83263,-24.61322"/></g><g data-paper-data="{&quot;index&quot;:null}"><g><path d="M912.79702,373.20569v36.3338"/><path d="M949.94553,405.08371l-35.63056,-32.11439"/><path d="M913.14289,398.05136l28.83263,-24.61322"/></g><path d="M871.00285,373.0875v36.3338"/><path d="M875.76006,405.08372l35.63056,-32.1144"/><path d="M883.73002,373.43814l28.83263,24.61322"/></g></g><path d="M-181.25955,467.41617v-433.84629h842.5192v433.84629z" fill="url(#color-17)" stroke="none" stroke-width="0" stroke-linecap="butt"/></g></g></svg>