<svg version="1.1" xmlns="http://www.w3.org/2000/svg" xmlns:xlink="http://www.w3.org/1999/xlink" width="47.6736" height="42" viewBox="0,0,47.6736,42"><g transform="translate(-215.7264,-159)"><g data-paper-data="{&quot;isPaintingLayer&quot;:true}" fill-rule="nonzero" stroke-linecap="butt" stroke-linejoin="miter" stroke-miterlimit="10" stroke-dasharray="" stroke-dashoffset="0" style="mix-blend-mode: normal"><path d="M261.5264,188.96c0,0 -11.08559,0 -16.95496,0c-1.76329,0 3.09204,11.04 0.672,11.04c-6.2809,0 -28.51704,-16.91855 -28.51704,-19.94864c0,-2.94056 23.57698,-20.05136 29.86104,-20.05136c2.1641,0 -4.0714,11.04 -2.464,11.04c1.00381,0 7.80145,-9.46309 9.03652,-9.46309c2.49855,0 -3.62872,7.83244 -1.98806,9.4713c1.05319,1.05203 8.86836,-10.51507 10.95602,-10.71469c1.5623,-0.14938 -4.1219,7.99302 -3.92543,10.31986c0.12887,1.52628 3.32391,0.38662 3.32391,0.38662z" data-paper-data="{&quot;index&quot;:null}" fill="#ffc93e" stroke="#603813" stroke-width="2"/><g data-paper-data="{&quot;index&quot;:null}" stroke="none" stroke-width="0.66342"><path d="M247.37406,179.49156c-0.1454,2.01559 -1.89865,3.53207 -3.91559,3.38656c-2.01687,-0.14551 -3.53341,-1.89787 -3.388,-3.91346c0.1455,-2.01687 1.89843,-3.53561 3.9149,-3.39014c2.01735,0.14642 3.5342,1.90017 3.3887,3.91704v0z" fill="#ffffff"/><path d="M244.18082,177.78469c0.43195,0.4986 0.67345,1.16187 0.62231,1.87082c-0.05115,0.70894 -0.38537,1.33075 -0.8844,1.76212c-0.49853,0.43195 -1.16187,0.67345 -1.87082,0.62231c-0.70888,-0.05114 -1.33068,-0.38536 -1.76212,-0.8844c-0.43188,-0.49853 -0.67338,-1.16187 -0.62224,-1.87082c0.05115,-0.70894 0.38536,-1.33068 0.88433,-1.76212c0.4986,-0.43188 1.16194,-0.67345 1.87082,-0.62231c0.70894,0.05115 1.33075,0.38544 1.76212,0.8844z" fill="#603813"/></g><g data-paper-data="{&quot;index&quot;:null}" stroke="none" stroke-width="0.66342"><path d="M225.86633,181.60899c-2.01559,-0.14541 -3.53348,-1.89787 -3.38807,-3.91346c0.1455,-2.01688 1.8985,-3.53561 3.91497,-3.39014c2.01775,0.14645 3.5346,1.9002 3.3891,3.91707v0c-0.14541,2.01559 -1.89818,3.5321 -3.916,3.38653z" fill="#ffffff"/><path d="M227.21179,178.63749c-0.10239,1.41918 -1.33503,2.48593 -2.75468,2.38352c-1.4187,-0.10235 -2.48688,-1.33415 -2.38443,-2.75427c0.10232,-1.41831 1.33644,-2.48679 2.75515,-2.38444c1.41965,0.10242 2.48632,1.3364 2.38396,2.75518v0z" fill="#603813"/></g><path d="M230.87089,185.99205c0.06348,-0.60374 1.44164,-0.34272 2.8552,-0.20389c1.45966,0.14336 2.95414,0.18437 2.88859,0.8078c-0.12902,1.22717 -1.5194,2.08679 -3.10551,1.92002c-1.5861,-0.16677 -2.7673,-1.29677 -2.63827,-2.52394z" data-paper-data="{&quot;index&quot;:null}" fill="#603813" stroke="#603813" stroke-width="1.32684"/></g></g></svg>