<svg version="1.1" xmlns="http://www.w3.org/2000/svg" xmlns:xlink="http://www.w3.org/1999/xlink" width="139.22526" height="154.2528" viewBox="0,0,139.22526,154.2528"><defs><linearGradient x1="182.86632" y1="144.49502" x2="187.45519" y2="191.03468" gradientUnits="userSpaceOnUse" id="color-1"><stop offset="0" stop-color="#cc2981"/><stop offset="1" stop-color="#a92292"/></linearGradient><linearGradient x1="292.88392" y1="143.15648" x2="285.67813" y2="189.36334" gradientUnits="userSpaceOnUse" id="color-2"><stop offset="0" stop-color="#cc2981"/><stop offset="1" stop-color="#a92292"/></linearGradient><linearGradient x1="279.40135" y1="213.14454" x2="279.40135" y2="237.25755" gradientUnits="userSpaceOnUse" id="color-3"><stop offset="0" stop-color="#9966ff"/><stop offset="1" stop-color="#66ebff"/></linearGradient><linearGradient x1="309.62404" y1="208.89782" x2="309.62404" y2="237.33108" gradientUnits="userSpaceOnUse" id="color-4"><stop offset="0" stop-color="#9966ff"/><stop offset="1" stop-color="#66ebff"/></linearGradient></defs><g transform="translate(-174.26294,-84.19638)"><g data-paper-data="{&quot;isPaintingLayer&quot;:true}" fill-rule="nonzero" stroke-miterlimit="10" stroke-dasharray="" stroke-dashoffset="0" style="mix-blend-mode: normal"><g data-paper-data="{&quot;index&quot;:null}" stroke="#000000" stroke-width="0.90024" stroke-linecap="round" stroke-linejoin="miter"><path d="M272.45337,161.82863c0,0 3.62792,-13.11664 3.86681,-13.7711c0.23884,-0.65433 1.56197,-6.43217 10.54646,-12.62465c0,0 7.45017,30.71559 -3.90383,44.19742c-0.0004,-0.00081 -2.53331,-8.59129 -10.50944,-17.80167zM272.61998,162.02347c-0.64116,-0.77066 -2.03552,-2.00247 -2.03552,-2.00247M283.31651,182.09258c0,0 -0.09917,-1.59997 -0.3541,-2.46308" fill="#be1e2d"/><path d="M286.58551,172.43231c0,0 -2.00117,-0.39757 -3.98085,-3.98115c-1.23165,-2.22109 -2.28294,-6.86216 -2.28294,-6.86216l-0.01526,0.1722c0.27124,-1.04594 0.51613,-2.23248 0.65698,-3.47109c0.24008,-2.09611 0.26184,-5.07242 0.20041,-7.96544l0.01024,-0.40777c0,0 0.8054,-5.69166 6.56754,-9.21037l0.08813,0.00362c0.80738,4.83005 1.7828,12.01737 1.56996,17.36175c-0.23857,5.99496 -1.52074,10.89693 -2.87802,14.4994l0.06382,-0.13898v0v0v0v0v0zM279.04767,165.33114c0,0 1.09328,-3.11252 1.27406,-3.74215" fill="#929497"/></g><g data-paper-data="{&quot;index&quot;:null}" stroke="#000000" stroke-width="0.90024" stroke-linecap="round" stroke-linejoin="miter"><path d="M190.85539,181.70876c-10.91683,-13.83715 -2.48954,-44.29917 -2.48954,-44.29917c8.78179,6.47711 9.91971,12.29426 10.13796,12.95509c0.2182,0.66092 3.42501,13.88757 3.42501,13.88757c-8.26744,8.95131 -11.07343,17.45651 -11.07343,17.45651zM203.8532,162.50555c0,0 -1.43299,1.18665 -2.09835,1.93649M190.85539,181.70876c-0.28246,0.85448 -0.43259,2.45051 -0.43259,2.45051" fill="#be1e2d"/><path d="M187.52335,174.54047c-1.24111,-3.64477 -2.36527,-8.58477 -2.41355,-14.58397c-0.04284,-5.34887 1.16252,-12.5009 2.12367,-17.30275l0.08829,-0.00075c5.64719,3.70216 6.27002,9.41543 6.27002,9.41543l-0.00279,0.40789c-0.15389,2.88953 -0.22711,5.86507 -0.0541,7.96778c0.10121,1.24248 0.30809,2.43623 0.54578,3.4903l-0.00975,-0.1726c0,0 -1.19898,4.60513 -2.50103,6.7857c-2.09303,3.51858 -4.10597,3.85198 -4.10597,3.85198l0.05943,0.14099zM194.07092,163.7618c0.16057,0.63508 1.15389,3.78093 1.15389,3.78093" fill="#929497"/></g><path d="M191.42718,143.75865c0,0 3.15685,-39.2668 51,-38.9999c32.82987,0.18315 44,38.9999 44,38.9999" data-paper-data="{&quot;index&quot;:null}" fill="none" stroke="#000000" stroke-width="7" stroke-linecap="round" stroke-linejoin="miter"/><path d="M234.23992,208.42785v0v0v0v0v0c0.90541,1.61585 2.10786,4.93571 2.05531,6.07006c0,0 -0.40683,4.42866 -2.81142,4.75696c-1.02744,0.14069 -1.88037,-0.32395 -2.59221,-1.24053c-0.39543,0.13172 -0.99574,0.24423 -1.54132,-0.07543c-0.90564,-0.52873 0.29931,-2.36084 0.29931,-2.36084l0.01136,0.01511c-0.10328,-0.3007 -0.20183,-0.60395 -0.29485,-0.93277c-0.52027,-1.86158 -0.75258,-4.74513 -0.94762,-6.30602c0,0 -0.20682,-1.35045 1.08684,-2.28281c1.3761,-0.99211 3.8292,0.74042 4.7346,2.35627z" data-paper-data="{&quot;index&quot;:null}" fill="#be1e2d" stroke="#231f20" stroke-width="0.78672" stroke-linecap="round" stroke-linejoin="round"/><path d="M248.72142,217.36084v0v0v0v0c0,0 -3.46029,2.79337 -5.36972,1.29263c-0.82038,-0.6352 -1.07667,-1.57444 -0.91815,-2.72422c-0.37259,-0.19113 -0.86805,-0.5414 -1.02052,-1.15659c-0.25199,-1.01661 1.90166,-1.43279 1.90166,-1.43279l-0.00279,0.01787c0.14535,-0.28038 0.29365,-0.56521 0.46342,-0.86146c0.97422,-1.66721 2.87946,-3.84715 3.86174,-5.07474c0,0 1.28923,-1.15117 2.51557,-0.6503c1.2264,0.49988 1.65391,2.66047 1.40303,3.5905c-0.25169,0.93009 -1.35917,5.48766 -2.83423,6.99909z" data-paper-data="{&quot;index&quot;:null}" fill="#be1e2d" stroke="#231f20" stroke-width="0.78672" stroke-linecap="round" stroke-linejoin="round"/><path d="M243.41362,218.20271c1.58098,-0.36581 3.46597,0.19223 3.46597,0.19223c0,0 0.56085,5.18662 0.71651,7.06071c0.15651,1.87685 0.95861,4.84261 0.95861,4.84261c0,0 0.4701,0.31822 0.29134,1.07108c-0.18236,0.75085 -1.86057,0.80561 -3.97704,1.08774c-2.11262,0.27774 -3.8035,-0.15416 -4.09102,-0.92026c-0.29041,-0.76265 0.34728,-1.07532 0.34728,-1.07532c0,0 1.31474,-6.08433 0.54476,-8.24589c0.00424,0.00474 -0.27212,-3.54671 1.74359,-4.0129z" data-paper-data="{&quot;index&quot;:null}" fill="#be1e2d" stroke="#231f20" stroke-width="0.90024" stroke-linecap="round" stroke-linejoin="round"/><path d="M236.67527,218.40698v0v0v0v0v0c2.73305,1.44176 2.88852,4.03625 2.88927,4.03899c-0.67838,2.18579 0.81309,7.43393 0.81309,7.43393c0,0 0.65152,0.28141 0.39942,1.05634c-0.25589,0.77652 -1.92229,1.28462 -4.04977,1.09903c-2.12379,-0.18729 -3.80185,-0.16759 -4.01753,-0.91257c-0.21568,-0.74499 0.24129,-1.0821 0.24129,-1.0821c0,0 0.14699,-1.75636 0.21803,-3.63861c0.06884,-1.87697 0.04697,-7.0409 0.04697,-7.0409c0,0 1.66873,-1.89911 3.45924,-0.95411z" data-paper-data="{&quot;index&quot;:null}" fill="#be1e2d" stroke="#231f20" stroke-width="0.90024" stroke-linecap="round" stroke-linejoin="round"/><g data-paper-data="{&quot;index&quot;:null}" stroke-width="0.90024"><path d="M247.88982,211.83662v0v0v0v0v0c0.25922,2.82028 -0.69256,7.93472 -3.99813,9.56548c-3.26933,1.60933 -6.6187,1.1837 -9.97254,-1.38797c-2.77873,-2.13145 -2.39687,-7.76524 -1.9199,-10.90265v0c0,0 0.42446,-7.29579 6.61538,-7.85412c6.18901,-0.55833 8.72971,5.19879 9.01056,8.71805c0.11517,0.62313 0.20798,1.25765 0.26464,1.86121z" fill="#be1e2d" stroke="#000000" stroke-linecap="butt" stroke-linejoin="miter"/><path d="M245.75184,219.75878v0v0v0v0v0l-0.0232,0.14203c-0.50717,0.62467 -1.11659,1.14452 -1.83596,1.49953c-3.02831,1.49099 -6.12396,1.23638 -9.22949,-0.8536l-0.02527,-0.14562c0,0 -1.18601,-9.37426 4.75328,-9.4605c6.744,-0.09479 6.48897,7.26819 6.36065,8.81816z" fill="#e6e7e8" stroke="#231f20" stroke-linecap="round" stroke-linejoin="round"/></g><g data-paper-data="{&quot;index&quot;:null}" stroke="#000000" stroke-linecap="butt" stroke-linejoin="miter"><g><g stroke-width="0.4"><path d="M215.14156,234.41136c-0.11124,-0.03069 -0.47382,-0.15343 -0.50208,-0.44441c-0.02734,-0.29003 0.28654,-0.445 0.38926,-0.49614c0.09863,-0.02477 1.71967,-0.17629 3.40225,-1.21102c-0.15075,-0.13853 -0.29311,-0.27387 -0.42896,-0.4079c-0.71164,0.6109 -2.6037,1.19864 -4.06257,1.26201c-0.19469,-0.04778 -0.54975,-0.19006 -0.56287,-0.48035c-0.01117,-0.29115 0.31143,-0.43059 0.41768,-0.4768c0.09933,-0.01907 1.75603,-0.08184 3.51039,-1.0508c-0.15989,-0.1863 -0.3076,-0.37108 -0.44136,-0.54954c-0.64528,0.54679 -2.65725,1.0665 -4.17202,1.04871c-0.19137,-0.05898 -0.53898,-0.21894 -0.53494,-0.51124c0.004,-0.29235 0.3342,-0.41157 0.44206,-0.45108c0.10287,-0.01419 1.84693,0.0208 3.70717,-0.92531c-0.09737,-0.1673 -0.18707,-0.33616 -0.26922,-0.50466c-0.68011,0.4401 -2.46611,0.78087 -3.90955,0.71431c-0.09353,-0.00432 -0.18603,-0.01044 -0.27558,-0.01838c-0.18596,-0.07294 -0.51998,-0.26063 -0.49425,-0.55199c0.02564,-0.28939 0.36329,-0.38462 0.4736,-0.41644l0.24416,0.00177c0.43454,0.02003 1.9516,0.02944 3.59631,-0.67574c-0.06048,-0.20822 -0.10204,-0.39474 -0.12968,-0.55505c-0.78963,0.41327 -2.42078,0.70157 -3.75747,0.63994c-0.09353,-0.00432 -0.18507,-0.01044 -0.27558,-0.01838c-0.18596,-0.07294 -0.52094,-0.26068 -0.49521,-0.55203c0.02565,-0.28944 0.36329,-0.38462 0.47455,-0.41645l0.24121,0.00359c0.44592,0.02056 2.03123,0.02739 3.72483,-0.73232l0.04444,-0.01974c0.11013,-0.25337 0.48055,-0.4237 0.64257,-0.48822l0.30467,-0.11939l0.01808,0.32645c0.17647,3.17377 3.63358,5.96775 3.66823,5.99681l0.31227,0.24915l-1.13897,0.47477l-0.10257,-0.0956c-0.67365,0.62876 -2.52572,1.31489 -3.97485,1.45446l-0.04384,0.00556z" fill="#871212"/><path d="M216.22704,226.35038c0,0 -0.68559,0.27131 -0.4905,0.51511c0,0 -0.00138,0.01033 -0.0032,0.02917c-0.08095,-0.03119 -0.17153,-0.03723 -0.1819,-0.03771c-0.00095,-0.00004 -0.00095,-0.00004 -0.00095,-0.00004c-1.72551,0.7743 -3.32453,0.77633 -3.83276,0.75289c-0.10766,-0.00496 -0.16605,-0.01147 -0.16605,-0.01147c-0.66948,0.18877 -0.02322,0.50353 -0.02322,0.50353c0.08764,0.00781 0.17638,0.01381 0.2661,0.01794c1.56529,0.07217 3.5152,-0.35386 3.91018,-0.79004c0.01107,-0.01465 0.01423,-0.02113 0.02431,-0.03393c0.01684,0.27062 0.07833,0.66158 0.24258,1.14438c-0.03289,-0.00533 -0.0602,-0.00845 -0.07152,-0.00897c-0.00381,-0.00017 -0.00566,-0.00026 -0.00566,-0.00026c-1.72356,0.77248 -3.32068,0.77459 -3.83077,0.75108c-0.10956,-0.00505 -0.16891,-0.0116 -0.16891,-0.0116c-0.66957,0.19067 -0.0233,0.50543 -0.0233,0.50543c0.08764,0.00781 0.17638,0.01381 0.2661,0.01794c1.56529,0.07217 3.5152,-0.35386 3.91018,-0.79004c0.03096,-0.03457 0.04644,-0.06318 0.06668,-0.09161c0.13056,0.31086 0.30232,0.65012 0.5317,1.01378c-0.01993,0.00099 -0.0341,0.00033 -0.0341,0.00033c-2.01571,1.09417 -3.93214,1.04085 -3.93214,1.04085c-0.65282,0.23778 0.01465,0.50336 0.01465,0.50336c1.60848,0.01829 3.72582,-0.5903 4.10742,-1.08482c0.03424,-0.04481 0.05298,-0.08089 0.07253,-0.11499c0.2201,0.3178 0.48778,0.65104 0.79846,0.9967c-1.9229,1.15433 -3.78464,1.20855 -3.78464,1.20855c-0.63939,0.27536 0.04205,0.50462 0.04205,0.50462c1.60592,-0.06984 3.68699,-0.79461 4.04016,-1.30942c0.01522,-0.02204 0.01968,-0.03695 0.03102,-0.05631c0.24575,0.25367 0.51787,0.5114 0.82089,0.7772c-1.84812,1.2363 -3.68707,1.39197 -3.68707,1.39197c-0.62393,0.3092 0.06971,0.50023 0.06971,0.50023c1.5995,-0.15724 3.63839,-0.9938 3.96399,-1.52595c0.00821,-0.01478 0.00947,-0.02135 0.01669,-0.03427l0.16886,0.15734l0.62935,-0.26346c0,0 -3.57296,-2.84763 -3.7569,-6.16753M216.6626,225.66993l0.03621,0.65206c0.17007,3.06649 3.54582,5.79803 3.57961,5.82514l0.62454,0.49835l-0.73747,0.30773l-0.62926,0.26162l-0.28189,0.11858l-0.05353,-0.05076c-0.83595,0.63835 -2.65207,1.2428 -3.95105,1.36941l-0.08658,0.00926l-0.0841,-0.02375c-0.14776,-0.03994 -0.63234,-0.20617 -0.67441,-0.6483c-0.01994,-0.2045 0.05421,-0.49833 0.52025,-0.73052l0.04747,-0.02337c-0.35876,0.06108 -0.70614,0.10093 -1.02205,0.11568l-0.08723,0.0026l-0.08298,-0.02747c-0.14542,-0.04933 -0.61942,-0.24062 -0.63875,-0.6836c-0.00839,-0.20772 0.08075,-0.49801 0.55881,-0.70318l0.08299,-0.03498l0.08921,-0.00437c0.01612,-0.00117 1.46242,-0.05758 3.06272,-0.86797c-0.04122,-0.0511 -0.08148,-0.10125 -0.12084,-0.15131c-0.88058,0.55862 -2.7969,0.97481 -4.12626,0.95991l-0.08804,-0.00025l-0.08163,-0.03595c-0.14127,-0.05672 -0.60453,-0.27593 -0.59836,-0.71774c0.00289,-0.20626 0.10883,-0.492 0.597,-0.6692l0.08472,-0.03114l0.08981,0.00224c0.01608,0.00074 1.56919,0.02883 3.28477,-0.77625c-0.01405,-0.0243 -0.027,-0.05139 -0.04099,-0.07574c-0.88058,0.43462 -2.55247,0.6832 -3.82023,0.62475c-0.09633,-0.00444 -0.19168,-0.01074 -0.285,-0.01881l-0.0877,-0.00786l-0.07869,-0.03862c-0.13793,-0.06695 -0.58359,-0.3185 -0.54427,-0.76068c0.01801,-0.20556 0.14522,-0.48083 0.64509,-0.62441l0.08723,-0.02344l0.08946,0.00985c0.00661,0.00031 0.05657,0.00447 0.14254,0.00843c0.40529,0.01869 1.77847,0.02714 3.30211,-0.5776c-0.00561,-0.02204 -0.01118,-0.045 -0.01593,-0.06509c-0.91933,0.37129 -2.43029,0.57899 -3.59885,0.52512c-0.09633,-0.00444 -0.19163,-0.01075 -0.285,-0.01881l-0.0877,-0.00786l-0.07869,-0.03862c-0.13793,-0.06695 -0.58359,-0.3185 -0.54427,-0.76068c0.01801,-0.20556 0.14527,-0.48082 0.64595,-0.62246l0.08723,-0.02344l0.08955,0.00794c0.00566,0.00026 0.05464,0.00629 0.13965,0.01021c0.42978,0.01982 1.95355,0.02757 3.58879,-0.69788c0.16775,-0.27155 0.51255,-0.44024 0.72661,-0.52501l0.60942,-0.24174zM215.1222,233.20914c0.19987,-0.02297 1.49705,-0.19228 2.91797,-0.99293c-0.0146,-0.01207 -0.02822,-0.025 -0.04178,-0.03887c-0.6222,0.4371 -1.78279,0.82663 -2.87619,1.0318z" fill="#000000"/></g><path d="M244.49438,212.94263l-3.23627,0.32033c-2.95012,-0.11519 -8.66729,3.19578 -10.99893,9.43757c-2.33172,6.24363 -10.74375,10.43191 -10.74375,10.43191c-4.63386,-3.88198 -3.75134,-6.76078 -3.75134,-6.76078c9.86991,-4.47609 8.41455,-8.84197 12.98144,-12.93208c4.56681,-4.0882 10.31301,-3.3897 10.31301,-3.3897z" fill="#ba2915" stroke-width="0.4"/><g fill="#871212" stroke-width="0.4"><path d="M219.7263,224.26813c-0.24936,2.00016 3.76954,6.36596 3.76954,6.36596l-1.1282,0.83688c-4.42889,-2.47527 -4.02399,-6.35023 -4.02399,-6.35023z"/><path d="M223.06473,221.32085c0.43185,3.09654 4.58414,5.63761 4.58414,5.63761l-1.36247,1.31838c-4.25467,-2.6812 -4.39261,-5.68466 -4.39261,-5.68466z"/><path d="M225.03162,218.49391c0.72562,2.02237 5.43825,3.74296 5.43825,3.74296l-0.70817,1.66473c-4.51744,-1.27326 -5.38299,-4.34722 -5.38299,-4.34722z"/><path d="M227.72116,214.46775c0.47103,1.09713 5.31083,3.55063 5.31083,3.55063l-1.05842,1.35604c-4.45329,-1.16527 -5.14654,-3.7873 -5.14654,-3.7873z"/><path d="M231.4895,211.55916c0.33396,-0.09821 5.58869,2.71901 5.58869,2.71901l-1.64763,1.32415l-5.56652,-3.05596c0,0 1.29151,-0.889 1.62547,-0.9872z"/><path d="M234.99085,210.54107l2.2609,-0.5603l4.53814,3.22622l-2.23104,0.24173l-4.56799,-2.90766"/></g><path d="M219.4817,233.41207l-0.11852,-0.09824c-4.69942,-3.93898 -3.86384,-6.8881 -3.82499,-7.01222l0.0312,-0.10178l0.0967,-0.04378c6.30305,-2.85799 7.93699,-5.6709 9.51645,-8.38979c0.86478,-1.48898 1.75851,-3.02963 3.40541,-4.50242c3.88949,-3.48235 8.65886,-3.54644 10.02766,-3.48332c0.30324,0.01398 0.47176,0.03501 0.47176,0.03501l6.2072,3.28617l-4.01326,0.39716c-3.03712,-0.11734 -8.58768,3.35845 -10.80156,9.2838c-2.33808,6.2585 -10.51268,10.38859 -10.8596,10.56197l-0.13846,0.06747zM215.97041,226.5364c-0.08736,0.51949 -0.26698,3.03881 3.57702,6.31256c1.09335,-0.57437 8.38002,-4.58169 10.49023,-10.23058c2.37806,-6.36555 8.14892,-9.7119 11.22949,-9.59164l2.42796,-0.24208l-4.728,-2.51652c-0.00896,0.00908 -0.15313,-0.00516 -0.37321,-0.01625c-1.32346,-0.06102 -5.93565,0.00178 -9.6898,3.36261c-1.59075,1.42428 -2.42677,2.86437 -3.31211,4.38743c-1.60822,2.76867 -3.27092,5.63047 -9.62157,8.5345z" fill="#000000" stroke-width="0.4"/><path d="M215.92338,226.55339c6.35065,-2.90403 8.02208,-5.81491 9.63029,-8.58358c0.88534,-1.52306 1.75395,-2.98069 3.34471,-4.40497c3.75415,-3.36083 8.40274,-3.41344 9.7262,-3.35242c0.22008,0.01109 0.36507,0.02599 0.37403,0.01691l4.73878,2.52865l-2.51036,0.29862c-3.08057,-0.12026 -8.80123,3.24522 -11.17929,9.61077c-2.11021,5.64889 -9.44059,9.64425 -10.53394,10.21862c-3.844,-3.27375 -3.67779,-5.81312 -3.59043,-6.33261z" data-paper-data="{&quot;noHover&quot;:true,&quot;origItem&quot;:[&quot;Path&quot;,{&quot;applyMatrix&quot;:true,&quot;segments&quot;:[[[431.94081,453.0728],[0,0],[-0.17472,1.03898]],[[439.09485,465.69792],[-7.688,-6.5475],[2.1867,-1.14874]],[[460.07531,445.23676],[-4.22042,11.29778],[4.75612,-12.7311]],[[482.53429,426.05348],[-6.16114,-0.24052],[0,0]],[487.39021,425.56932],[[477.93421,420.53628],[0,0],[-0.01792,0.01816]],[[477.18779,420.50378],[0.44016,0.02218],[-2.64692,-0.12204]],[[457.80819,427.229],[7.5083,-6.72166],[-3.1815,2.84856]],[[451.18397,436.00386],[1.77068,-3.04612],[-3.21644,5.53734]],[[431.94083,453.07286],[12.7013,-5.80806],[0,0]]],&quot;closed&quot;:true,&quot;fillColor&quot;:[0,0,0,1],&quot;strokeColor&quot;:[0,0,0],&quot;strokeWidth&quot;:0.4}]}" fill="#000000" stroke-width="0.2"/></g><g stroke-width="0.4"><path d="M252.59188,205.26938c1.84301,1.09131 0.55063,3.45705 0.55063,3.45705c3.41755,1.57759 2.26234,3.53502 2.26234,3.53502c-1.89704,-1.21303 -3.67142,0.06737 -9.04628,0.9442c-5.37395,0.87682 -10.73191,-1.85616 -10.73191,-1.85616c9.83528,-9.30943 16.96427,-6.08016 16.96523,-6.08011z" fill="#ba2915"/><g fill="#871212"><path d="M243.09655,206.15878c0,0 2.68538,2.10139 1.37623,7.2524l-0.85019,-0.0392c0,0 0.98376,-4.37647 -1.325,-6.80227z"/><path d="M247.40396,204.82288c2.16559,3.08751 1.43478,7.66597 1.43478,7.66597l-1.07914,0.22476c0.71086,-5.58283 -1.61001,-7.62293 -1.61001,-7.62293z"/><path d="M239.80742,207.93454c0,0 1.66778,2.32521 1.06544,5.12229l-0.60488,-0.12353c0,0 -0.30628,-3.86985 -1.13565,-4.48368z"/><path d="M253.68531,211.67476l-0.99282,-0.04578c0.27629,-1.88625 -1.2849,-3.40284 -1.2849,-3.40284c0.41331,-2.14788 -0.89432,-3.45493 -0.89432,-3.45493l1.33804,0.25769c0.57885,0.64766 0.53848,3.20653 0.5953,3.3701c1.40004,1.06988 1.23964,3.2758 1.23869,3.27576z"/></g><path d="M255.60755,212.38154l-0.12425,0.21105l-0.20695,-0.13164c-1.12648,-0.71934 -2.31555,-0.4722 -4.51662,0.06345c-1.13453,0.27617 -2.54665,0.61907 -4.36279,0.91586c-0.94236,0.15345 -1.94637,0.20655 -2.98739,0.15855c-4.23109,-0.19509 -7.85409,-2.01972 -7.89018,-2.03844l-0.29873,-0.15199l0.24346,-0.23015c6.11042,-5.78258 11.20019,-6.82117 14.39598,-6.67381c1.77689,0.08193 2.78617,0.5308 2.82977,0.54987c1.5095,0.89224 1.20708,2.60594 0.77101,3.5628c1.24213,0.61297 2.00517,1.35246 2.26904,2.19957c0.27375,0.87884 -0.10592,1.53721 -0.12235,1.56488zM255.27617,210.94626c-0.2267,-0.70908 -0.9453,-1.36509 -2.05887,-1.9125c-2.02286,-0.94808 -4.05048,-0.0476 -4.05048,-0.0476c1.95175,-1.08196 3.31057,-0.80253 3.87273,-0.59296c0.2518,-0.57532 0.76937,-2.12955 -0.56776,-2.92106c-0.00376,-0.00017 -0.96991,-0.41959 -2.63248,-0.49625c-3.05882,-0.14104 -7.92106,0.84839 -13.79693,6.30854c0.9476,0.43087 3.96557,1.68328 7.38995,1.84117c1.007,0.04644 1.98067,-0.00522 2.88967,-0.15358c1.79889,-0.29287 3.20151,-0.63435 4.32739,-0.90806c2.18192,-0.53085 3.45636,-0.78164 4.64152,-0.14383c0.06279,-0.21203 0.11569,-0.5589 -0.01473,-0.97387z" fill="#000000"/></g><g stroke-width="0.4"><path d="M226.95765,203.02244c0,0 -1.13997,-0.94056 -0.50058,-1.97509c0.63935,-1.03458 1.72315,-1.44186 1.71809,-1.33225c-0.00505,0.10956 9.82109,8.98317 21.74371,0.61918l0.0558,-1.2101c0,0 4.21737,2.19662 2.61531,6.14607c0,0 -2.5465,-0.94573 -5.06286,1.54155c-2.51822,2.48719 -4.89959,7.93903 -23.01853,1.83734c0,0 -1.45378,-0.5404 -0.62136,-1.92198c0.83238,-1.38163 3.19902,-2.63382 3.07042,-3.70472z" fill="#ba2915"/><g fill="#871212"><path d="M230.08687,201.24594c-1.31452,0.91539 -0.5533,2.3705 -0.65806,2.95923c-0.10476,0.58872 -0.30664,1.90755 -1.11584,2.7866c-0.80925,0.87911 -0.97325,2.50641 -0.97325,2.50641l-1.86853,-0.53774c0.22863,-0.46278 0.24019,-1.34929 1.47816,-2.53515c1.23803,-1.1859 1.3655,-2.67764 1.3655,-2.67764c-0.7059,-2.65477 0.9312,-3.15487 0.9312,-3.15487z"/><path d="M233.46738,202.97042c0,0 -0.32495,0.41671 -0.36991,1.3916c-0.04495,0.97484 0.22527,1.95101 -0.38691,2.90923c-0.61218,0.95817 -1.37718,3.32177 -1.37718,3.32177l-1.36421,-0.32703c0,0 0.07585,-0.47459 0.51139,-1.56496c0.43559,-1.09031 1.47811,-1.89711 1.35859,-3.57535c-0.11952,-1.67824 0.5267,-2.92266 0.49834,-2.67787z"/><path d="M236.99402,203.74365c-0.34419,1.30659 -0.3138,1.85802 -0.19855,3.62884c0.11525,1.77082 -0.77343,3.73678 -0.77343,3.73678l-1.3147,-0.14772c0,0 1.15256,-2.12509 0.83939,-3.87476c-0.31312,-1.74967 0.43557,-3.45038 0.43901,-3.52503z"/><path d="M239.6103,203.87373l1.23374,0.05689c0.97548,3.82972 -0.2763,4.84269 -0.2763,4.84269c0.21836,1.66954 -0.85685,2.50702 -0.85685,2.50702l-0.70757,-0.03262c1.12643,-1.33207 0.53798,-2.67413 0.53798,-2.67413c0.84078,-2.18018 0.06905,-4.70078 0.06905,-4.70078z"/><path d="M244.88483,202.99609c1.52945,3.94995 0.30071,5.42781 0.35419,5.62246c0.05353,0.19464 -0.21117,0.72012 -0.21117,0.72012l-1.05574,0.64147c0.45095,-0.78769 0.2555,-1.25013 0.2555,-1.25013c0.98518,-3.01132 -0.70386,-5.34795 -0.70386,-5.34795z"/><path d="M248.63596,201.24164c1.39057,1.0695 1.25354,4.04135 1.25354,4.04135l-1.07015,0.54235c0.54443,-2.83479 -1.07319,-4.11255 -1.07319,-4.11255z"/><path d="M249.97153,199.21299c4.61877,2.91472 2.51438,6.0146 2.51438,6.0146l0.00359,-0.36526c0.38977,-3.40325 -2.33979,-4.40194 -2.33979,-4.40194z"/></g><path d="M252.8093,205.35893l-0.08552,0.21188l-0.2141,-0.07895c-0.00371,-0.00113 -0.36504,-0.1314 -0.93369,-0.15762c-0.96638,-0.04456 -2.42536,0.20531 -3.88239,1.64523c-0.24195,0.23781 -0.48146,0.50413 -0.73478,0.78403c-1.58828,1.76045 -3.76508,4.17156 -9.95066,3.88635c-3.32709,-0.15341 -7.55723,-1.08781 -12.57425,-2.77699c-0.0373,-0.01307 -0.7434,-0.28228 -0.9709,-0.93272c-0.14122,-0.40603 -0.0666,-0.85507 0.22251,-1.33495c0.37102,-0.61436 1.00497,-1.18244 1.61823,-1.73256c0.68035,-0.60953 1.37955,-1.23807 1.41897,-1.72282c-0.00821,-0.00701 -0.0175,-0.01125 -0.02567,-0.01825l0.00852,-0.02044c-0.44261,-0.41987 -0.99739,-1.30218 -0.44907,-2.1895c0.60363,-0.97844 1.62055,-1.47496 1.90205,-1.46198l0.23616,0.01088l0.00959,0.14152c0.42231,0.38771 4.33458,3.78108 10.24338,4.05353c3.77105,0.17388 7.48458,-0.99065 11.04146,-3.46023l0.06747,-1.46328l0.32817,0.17132c0.04338,0.02379 4.38856,2.34374 2.72455,6.44554zM250.1928,199.52613l-0.04304,0.93331l-0.09395,0.06671c-3.67448,2.57681 -7.52098,3.79199 -11.43089,3.61171c-5.51768,-0.25442 -9.6491,-3.28965 -10.51692,-4.19868c-0.19088,0.05465 -0.95616,0.43209 -1.44935,1.23199c-0.52177,0.84501 0.41024,1.63582 0.45033,1.6689l0.07298,0.06019l0.00396,0.03709c0.3805,0.30912 1.20195,0.8279 2.85102,1.32144c0,0 -1.59577,-0.02719 -2.89952,-0.82384c-0.18719,0.5897 -0.83429,1.17611 -1.51861,1.79017c-0.58753,0.5258 -1.19485,1.07052 -1.52898,1.62407c-0.21221,0.35278 -0.27305,0.66616 -0.18117,0.93166c0.15199,0.44056 0.67839,0.64472 0.68397,0.64688c4.96762,1.6727 9.15463,2.59848 12.43729,2.74985c4.4682,0.20603 6.71389,-0.98924 8.23556,-2.35234c-1.24163,0.25798 -5.04834,0.83696 -7.96799,-1.00734c0,0 4.17754,1.66469 8.55453,0.44083c0.26824,-0.2745 0.5175,-0.5479 0.75693,-0.81238c0.25939,-0.28716 0.50481,-0.55983 0.75273,-0.80399c2.13252,-2.10741 4.37229,-1.83942 5.08729,-1.66066c1.07507,-2.99016 -1.33934,-4.86985 -2.25617,-5.45552z" fill="#000000"/></g></g><g data-paper-data="{&quot;index&quot;:null}" stroke="#000000" stroke-width="0.90024" stroke-linecap="round" stroke-linejoin="round"><path d="M284.8411,181.1923l-0.5347,1.5484c-2.9663,7.8213 -7.1831,12.3225 -7.1831,12.3225c0,0 0.1513,-1.3963 0.0703,-3.6397l-0.1315,-0.0459c-0.3799,1.1811 -1.0038,2.7043 -2.0408,4.5859c-2.2741,4.1321 -8.9521,7.5962 -8.9521,7.5962c0,0 0.4151,-1.4206 0.6752,-3.745l-0.0936,-0.3556c-0.7238,0.5573 -1.4746,1.0695 -2.2335,1.5682c-0.2233,0.1477 -0.4465,0.2917 -0.6734,0.4312c-0.6905,0.4295 -1.3936,0.8391 -2.1111,1.2217c-0.2835,0.1494 -0.5779,0.2881 -0.8651,0.4312c-0.5239,0.262 -1.0551,0.5095 -1.5943,0.749c-0.3961,0.1737 -0.7949,0.3466 -1.201,0.5077c-0.4204,0.1693 -0.8525,0.3214 -1.2819,0.4799c-0.7895,0.2826 -1.5907,0.5464 -2.41,0.7895c-0.2673,0.0792 -0.5347,0.1584 -0.8066,0.2322c-0.5842,0.1603 -1.173,0.3169 -1.7725,0.4556l0.0018,0.0018c-3.0096,0.7013 -6.2027,1.1586 -9.621,1.3692c-3.6982,0.2269 -7.0507,0.19 -10.1817,-0.0279v0c-2.4775,-0.1737 -4.7965,-0.4708 -6.9922,-0.8723c-0.1062,-0.0189 -0.2134,-0.0387 -0.3205,-0.0576c-0.6788,-0.1288 -1.3468,-0.2656 -2.0021,-0.4132c-0.2287,-0.0532 -0.4475,-0.1108 -0.6752,-0.1657c-0.8706,-0.207 -1.7168,-0.4339 -2.5513,-0.6752c-0.5275,-0.153 -1.0515,-0.3097 -1.5637,-0.4762c-0.3043,-0.0963 -0.6095,-0.1972 -0.9075,-0.2989c-0.8138,-0.2809 -1.6204,-0.5662 -2.4027,-0.8741l-0.136,0.1305c0.2953,2.1147 1.0245,3.2526 1.607,3.7945c1.1874,1.1064 3.4731,1.3693 3.4731,1.3693c0,0 -6.9868,0.9777 -10.7912,-4.4166c-0.4042,-0.5734 -0.812,-1.1676 -1.1991,-1.8005l-0.1666,-0.3619c-0.8264,-0.2763 -1.6636,-0.6436 -2.4901,-1.1163c-5.0395,-2.9033 -5.6724,-5.2979 -5.6724,-5.2979l0.1053,0.8777c0.4853,2.2876 0.9588,3.7315 0.9588,3.7315c0,0 -6.0316,-3.817 -8.718,-9.5371c-2.1659,-4.6174 -2.3379,-7.4144 -2.3523,-7.8844l-0.2026,-1.6798c-0.1305,-6.5781 0.2782,-13.9565 1.1821,-21.2152l0.0558,-0.1935c0.8057,-5.6112 0.0243,-14.9072 7.4693,-24.4191c13.9511,-17.8195 28.2037,-17.2001 36.7281,-30.3697c6.2702,-9.6885 4.6597,-20.8002 4.6597,-20.8002c0,0 3.845,5.4438 5.379,8.6406c1.4854,3.1157 3.0716,7.1317 3.0716,7.1317l0.0513,-0.0342c0.0351,-0.1171 0.0666,-0.2368 0.0936,-0.3565c0.4187,-1.8644 0.253,-4.621 0.253,-4.621c0,0 3.6658,10.7435 9.584,17.787c5.9146,7.04 14.4633,9.052 25.2563,33.1614c1.3432,2.996 2.5918,5.5176 3.2598,8.3129l0.3025,1.6087c0.9408,5.027 0.5708,18.915 -1.4062,24.9152zM215.7006,157.5807c0,0 -6.9913,7.2622 -6.5304,17.3675c0.4078,8.9412 2.7251,11.7031 3.9737,12.3945c1.2838,0.7067 3.2742,0.2881 3.2742,0.2881c0,0 -5.6301,2.9816 -10.2196,-1.0641c-3.0698,-2.7043 -6.4106,-6.1928 -7.346,-16.0324M273.8789,173.6842c0,0 0.8687,2.4865 -1.2487,7.6836c-2.382,5.8552 -7.4081,7.6665 -7.4081,7.6665c0,0 4.1762,-9.0205 0.6716,-17.5017c-1.5295,-3.7054 -6.2504,-6.4655 -11.1783,-8.4145c-6.678,-2.6432 -13.7351,-3.7955 -13.7351,-3.7955M277.0927,191.2795c-0.3763,1.1955 -1.0091,2.7556 -2.0768,4.6876c-2.2732,4.1321 -8.9512,7.5962 -8.9512,7.5962c0,0 1.2064,-4.1447 0.795,-9.8514M200.2767,177.7848c-0.686,1.273 -1.2135,2.6377 -1.5088,4.079c-1.8545,8.9863 1.4089,18.8845 1.4089,18.8845c0,0 -6.0298,-3.8153 -8.718,-9.5372c-2.3829,-5.0783 -2.3523,-7.9546 -2.3523,-7.9546M284.3019,182.747c-2.9681,7.8213 -7.184,12.3225 -7.184,12.3225c0,0 0.8706,-7.9329 -2.6413,-16.415c-0.1584,-0.3835 -0.3376,-0.7562 -0.5275,-1.1181M240.9812,159.3226c0,0 1.1956,0.3169 4.35,2.8277c3.1545,2.5108 4.3149,5.2502 4.3149,5.2502c0,0 -9.3139,-2.4531 -14.4705,-4.3076c-5.1512,-1.8563 -22.534,-6.5898 -22.534,-6.5898M211.48749,196.6683c2.5251,3.9665 5.1521,6.1244 5.1521,6.1244c0,0 -6.1784,1.913 -11.8545,-1.354c-5.0395,-2.9032 -5.6724,-5.2979 -5.6724,-5.2979M266.6445,199.4645c-6.6591,5.1233 -14.737,7.6341 -24.5623,8.239c-11.7139,0.7211 -20.2761,-0.9902 -27.5942,-3.8611M214.28,203.3184c0.2215,2.5369 1.0371,3.8522 1.6772,4.4463c1.1883,1.1064 3.474,1.3693 3.474,1.3693c0,0 -6.9886,0.9777 -10.7921,-4.4166c-0.4042,-0.5734 -0.812,-1.1676 -1.1991,-1.8005M241.6573,159.6233c0,0 25.5147,3.1122 25.5147,17.038" fill="#be1e2d"/><path d="M272.1729,182.6831c-0.9516,10.0152 -12.4648,20.4643 -29.3137,21.4492c-14.8748,0.8777 -36.8569,-5.8111 -40.0465,-18.1282c-0.3169,-1.2379 -0.4852,-2.4334 -0.5311,-3.5821l0.3232,0.2359c1.1289,1.6528 2.3811,2.8447 3.5937,3.9106c4.5895,4.0439 10.2196,1.0623 10.2196,1.0623c0,0 -1.9904,0.4204 -3.2742,-0.2863c-1.2486,-0.6914 -3.5659,-3.4533 -3.9737,-12.3945c-0.4609,-10.1071 6.5304,-17.3675 6.5304,-17.3675l0.0243,-0.2323c5.2322,1.4494 15.6561,4.3752 19.4489,5.7427c5.1566,1.8554 14.4705,4.3076 14.4705,4.3076c0,0 -1.1604,-2.7394 -4.3149,-5.2502c-1.579,-1.2558 -2.6656,-1.9625 -3.357,-2.3559l0.6482,0.1017c0,0 19.6721,2.9078 23.2749,11.6365c3.5037,8.4821 -0.6707,17.5017 -0.6707,17.5017c0,0 4.2798,-1.5439 6.8077,-6.3791l0.1404,0.0279z" fill="#e6e7e8"/></g><path d="M228.4976,178.0009v0v0v0v0v0c0.7175,0.2007 1.1343,0.9443 0.9317,1.6618c-0.2007,0.7193 -0.9407,1.1361 -1.6636,0.939c-0.0414,-0.0126 -4.2303,-1.1514 -8.3255,0.0423c-0.126,0.036 -0.2512,0.0549 -0.3763,0.0549c-0.5851,0 -1.1253,-0.3853 -1.2972,-0.974c-0.1018,-0.3439 -0.0514,-0.6977 0.1035,-0.9948c-0.253,-0.2215 -0.4924,-0.5077 -0.6581,-0.9021c-0.1944,-0.4573 0.0198,-0.9866 0.4789,-1.1802c0.4547,-0.1881 0.9858,0.0171 1.1812,0.4781c0.1548,0.3673 0.6031,0.4726 0.6085,0.4744c0.1324,0.0297 0.2485,0.0909 0.3484,0.1701c0.1333,-0.0279 0.2674,-0.0567 0.3988,-0.0792c-0.1386,-0.2088 -0.2673,-0.4429 -0.3448,-0.731c-0.1278,-0.4816 0.1585,-0.9723 0.6401,-1.101c0.4852,-0.1332 0.9741,0.1603 1.101,0.6401c0.1017,0.3835 0.5203,0.5572 0.5239,0.559c0.1954,0.0667 0.3394,0.2017 0.4448,0.3619c3.2246,-0.1503 5.7606,0.5402 5.9047,0.5807z" data-paper-data="{&quot;index&quot;:null}" fill="#231f20" stroke="none" stroke-width="0.90024" stroke-linecap="butt" stroke-linejoin="miter"/><path d="M260.7128,176.8918v0v0v0v0v0c-0.1585,0.803 -0.6401,1.2828 -1.0335,1.5718c0.0999,0.253 0.1513,0.5312 0.081,0.8156c-0.1791,0.7229 -0.8948,1.1695 -1.6348,0.9885c-2.8043,-0.6914 -6.435,-0.9425 -7.1651,-0.1989c-0.2637,0.2673 -0.6094,0.4024 -0.9596,0.4024c-0.3448,0 -0.686,-0.1306 -0.9498,-0.3907c-0.5311,-0.5222 -0.5383,-1.3765 -0.0144,-1.9095c1.4107,-1.4331 4.3878,-1.3962 6.7699,-1.083c0.1161,-0.0999 0.3006,-0.3042 0.3186,-0.5869c0.0253,-0.4942 0.4133,-0.9084 0.9444,-0.8525c0.496,0.0252 0.8768,0.4465 0.8525,0.9443c-0.018,0.3133 -0.0954,0.578 -0.1917,0.8192c0.1179,0.0243 0.2304,0.0459 0.3358,0.0703c0.0936,-0.1441 0.2106,-0.271 0.3799,-0.3448c0.0252,-0.0144 0.424,-0.2125 0.5014,-0.5978c0.099,-0.487 0.5645,-0.812 1.0587,-0.7067c0.487,0.099 0.803,0.5699 0.7067,1.0587z" data-paper-data="{&quot;index&quot;:null}" fill="#231f20" stroke="none" stroke-width="0.90024" stroke-linecap="butt" stroke-linejoin="miter"/><g data-paper-data="{&quot;index&quot;:null}" stroke-linejoin="miter"><path d="M195.04716,167.56299c-0.15199,12.9778 -1.93634,23.47893 -7.27472,23.41641c-5.33839,-0.06252 -13.2092,-10.67673 -13.05721,-23.65453c0.15199,-12.9778 8.26924,-23.40477 13.60763,-23.34224c5.33839,0.06252 6.8763,10.60256 6.72431,23.58036z" fill="url(#color-1)" stroke="#000000" stroke-width="0.90024" stroke-linecap="butt"/><path d="M181.23152,152.45447l2.1333,-2.82295" fill="none" stroke="#ea42a4" stroke-width="2" stroke-linecap="round"/><path d="M187.93148,157.22003l3.38359,-0.33362" fill="none" stroke="#ea42a4" stroke-width="2" stroke-linecap="round"/><path d="M183.46587,162.88556l-0.42048,1.85019" fill="none" stroke="#ea42a4" stroke-width="2" stroke-linecap="round"/><path d="M181.42235,172.73361l1.62874,2.25104" fill="none" stroke="#ea42a4" stroke-width="2" stroke-linecap="round"/><path d="M191.12466,179.4138l1.59228,-0.157" fill="none" stroke="#ea42a4" stroke-width="2" stroke-linecap="round"/><path d="M185.50129,187.60513l-1.83057,-0.22145" fill="none" stroke="#ea42a4" stroke-width="2" stroke-linecap="round"/><path d="M179.86096,179.3186l-1.2503,-2.48933" fill="none" stroke="#ea42a4" stroke-width="2" stroke-linecap="round"/><path d="M178.24614,167.01769l-1.39046,-1.8726" fill="none" stroke="#ea42a4" stroke-width="2" stroke-linecap="round"/><path d="M178.54038,155.73436l0.157,1.59228" fill="none" stroke="#ea42a4" stroke-width="2" stroke-linecap="round"/><path d="M188.71635,150.91257l2.51174,-3.06124" fill="none" stroke="#ea42a4" stroke-width="2" stroke-linecap="round"/></g><g data-paper-data="{&quot;index&quot;:null}" stroke-linejoin="miter"><path d="M287.46497,142.33722c5.33342,0.2386 12.8498,11.10666 12.26979,24.07239c-0.58002,12.96573 -9.03681,23.11924 -14.37024,22.88065c-5.33342,-0.2386 -6.52281,-10.82363 -5.94278,-23.78935c0.58002,-12.96573 2.70981,-23.40228 8.04323,-23.16368z" fill="url(#color-2)" stroke="#000000" stroke-width="0.90025" stroke-linecap="butt"/><path d="M294.06731,151.19544l-1.97072,-2.93875" fill="none" stroke="#ea42a4" stroke-width="2" stroke-linecap="round"/><path d="M287.10931,155.57564l-3.3594,-0.52388" fill="none" stroke="#ea42a4" stroke-width="2" stroke-linecap="round"/><path d="M291.24835,161.48395l0.31548,1.87094" fill="none" stroke="#ea42a4" stroke-width="2" stroke-linecap="round"/><path d="M290.98024,173.58718l1.75309,-2.15562" fill="none" stroke="#ea42a4" stroke-width="2" stroke-linecap="round"/><path d="M282.66977,177.55404l-1.58089,-0.24654" fill="none" stroke="#ea42a4" stroke-width="2" stroke-linecap="round"/><path d="M289.66243,185.93155l-1.84014,0.11787" fill="none" stroke="#ea42a4" stroke-width="2" stroke-linecap="round"/><path d="M293.92091,178.09411l1.38867,-2.41487" fill="none" stroke="#ea42a4" stroke-width="2" stroke-linecap="round"/><path d="M297.72061,164.11261l-1.49383,1.79122" fill="none" stroke="#ea42a4" stroke-width="2" stroke-linecap="round"/><path d="M296.3227,156.20276l0.24654,-1.5809" fill="none" stroke="#ea42a4" stroke-width="2" stroke-linecap="round"/><path d="M284.34621,146.03595l2.33513,3.198" fill="none" stroke="#ea42a4" stroke-width="2" stroke-linecap="round"/></g><path d="M232.39964,186.79747c0,0 1.17923,-1.25197 5.94361,-1.36323c4.76335,-0.10741 8.37494,0.54201 8.37494,0.54201c0,0 0.04406,8.772 -6.41684,8.88051c-6.46634,0.11016 -7.90171,-8.05929 -7.90171,-8.05929z" fill="#58595b" stroke="#231f20" stroke-width="0.9025" stroke-linecap="round" stroke-linejoin="miter"/><g stroke-linejoin="miter"><g stroke-linecap="butt"><g stroke="#000000" stroke-width="1"><path d="M251.56208,213.14454h55.67854v24.113h-55.67854z" fill="url(#color-3)"/><path d="M256.50129,208.72383h55.67854l-4.93922,4.42072h-55.67855z" fill="#9966ff"/><path d="M307.4912,213.1176l4.71472,-4.21977l-0.67354,24.51489l-4.49021,3.91836z" fill="url(#color-4)"/></g><path d="M304.73978,213.99646c0.44092,0 0.79835,0.15996 0.79835,0.35728c0,0.19732 -0.35743,0.35727 -0.79835,0.35727c-0.44092,0 -0.79836,-0.15995 -0.79836,-0.35727c0,-0.19732 0.35744,-0.35728 0.79836,-0.35728z" fill="#b9b9b9" stroke="none" stroke-width="0.5"/><path d="M304.38496,235.9091c0.44092,0 0.79835,0.15995 0.79835,0.35727c0,0.19732 -0.35743,0.35727 -0.79835,0.35727c-0.44092,0 -0.79836,-0.15995 -0.79836,-0.35727c0,-0.19732 0.35744,-0.35727 0.79836,-0.35727z" fill="#b9b9b9" stroke="none" stroke-width="0.5"/><path d="M253.46787,236.22667c0.44091,0 0.79835,0.15996 0.79835,0.35727c0,0.19732 -0.35744,0.35727 -0.79835,0.35727c-0.44091,0 -0.79835,-0.15995 -0.79835,-0.35727c0,-0.19732 0.35744,-0.35727 0.79835,-0.35727z" fill="#b9b9b9" stroke="none" stroke-width="0.5"/><path d="M252.93563,213.83767c0.44091,0 0.79835,0.15995 0.79835,0.35727c0,0.19732 -0.35744,0.35727 -0.79835,0.35727c-0.44091,0 -0.79835,-0.15995 -0.79835,-0.35727c0,-0.19732 0.35744,-0.35727 0.79835,-0.35727z" fill="#b9b9b9" stroke="none" stroke-width="0.5"/></g><g stroke="#000000" stroke-width="1" stroke-linecap="butt"><path d="M256.16441,225.14221c0,-5.20726 4.22132,-9.42857 9.42857,-9.42857c5.20725,0 9.42857,4.22132 9.42857,9.42857c0,5.20726 -4.22132,9.42857 -9.42857,9.42857c-5.20725,0 -9.42857,-4.22132 -9.42857,-9.42857z" fill="#8499b1"/><path d="M259.39706,225.54629c0,-3.04996 2.47248,-5.52245 5.52245,-5.52245c3.04996,0 5.52245,2.47249 5.52245,5.52245c0,3.04996 -2.47249,5.52244 -5.52245,5.52244c-3.04996,0 -5.52245,-2.47248 -5.52245,-5.52244z" fill="#92c5ff"/></g><g stroke="#000000" stroke-width="1" stroke-linecap="butt"><path d="M280.16441,225.17792c0,-5.20726 4.22132,-9.42857 9.42857,-9.42857c5.20725,0 9.42857,4.22132 9.42857,9.42857c0,5.20726 -4.22132,9.42857 -9.42857,9.42857c-5.20725,0 -9.42857,-4.22132 -9.42857,-9.42857z" fill="#8499b1"/><path d="M283.39706,225.58201c0,-3.04996 2.47249,-5.52245 5.52245,-5.52245c3.04996,0 5.52245,2.47249 5.52245,5.52245c0,3.04996 -2.47249,5.52245 -5.52245,5.52245c-3.04996,0 -5.52245,-2.47248 -5.52245,-5.52245z" fill="#92c5ff"/></g><path d="M299.73583,210.8184l4,-18.57143" fill="none" stroke="#000000" stroke-width="2" stroke-linecap="round"/></g></g></g></svg>