<svg version="1.1" xmlns="http://www.w3.org/2000/svg" xmlns:xlink="http://www.w3.org/1999/xlink" width="89.46529" height="171.96894" viewBox="0,0,89.46529,171.96894"><g transform="translate(-195.69872,-94.93963)"><g data-paper-data="{&quot;isPaintingLayer&quot;:true}" fill-rule="nonzero" stroke-width="2" stroke-linejoin="miter" stroke-miterlimit="10" stroke-dasharray="" stroke-dashoffset="0" style="mix-blend-mode: normal"><g><g fill="none" stroke="#001026" stroke-linecap="round"><path d="M267.66809,154.16554l16.49592,-4.51543"/><path d="M266.583,161.20165l11.71192,3.15082"/></g><path d="M237.37094,110.82799l21.64577,-13.83792c0,0 15.91665,22.28499 17.66402,43.53529" fill="#6b542b" stroke="#001026" stroke-linecap="round"/><g stroke-linecap="butt"><path d="M206.72142,143.19233c0.19349,-17.40872 14.69709,-32.83573 33.88323,-33.27756c18.99418,-0.43741 32.53341,7.76145 36.73684,31.60595c0.06732,0.38186 3.95956,3.4311 3.74741,9.48677c-0.01314,0.37539 0.05028,0.76213 -0.06736,1.10571c-1.8333,5.35373 -7.0691,8.91189 -11.01036,11.72097c-6.88029,4.9038 -14.27406,6.78807 -24.71781,6.67199c-19.00015,-0.21117 -38.76541,-9.9051 -38.57193,-27.31383z" fill="#6b542b" stroke="none"/><path d="M254.1703,149.09672c0,0 11.84398,-6.93461 21.38099,-7.32293c0.06732,0.38186 7.82109,-2.00114 3.84475,10.5574c-1.84539,5.42718 -7.83606,10.85395 -12.30297,14.32651c-8.27086,6.42976 -16.64183,8.54572 -21.34672,8.38447c-5.53482,-0.18971 -8.7288,-3.32513 -13.21979,-5.82583c-10.91772,-6.07927 -19.53198,-15.71206 -15.70826,-23.18232c0.59032,-1.36802 0.79547,-4.19337 2.73891,-4.79252c0.72648,-0.22396 1.70714,-0.60432 2.31781,-0.16142c1.02298,0.74193 1.62732,2.58849 2.79017,2.53479c11.55906,-0.5339 29.50511,5.48186 29.50511,5.48186z" fill="#dac3a1" stroke="none"/><path d="M206.72142,143.19233c0.19349,-17.40872 14.69709,-32.83573 33.88323,-33.27756c18.99418,-0.43741 32.53341,7.76145 36.73684,31.60595c0.06732,0.38186 5.15462,1.59845 2.73692,9.81117c-4.11993,9.30645 -10.35832,14.69603 -16.8808,18.40296c-5.01397,2.84959 -8.35372,5.73981 -14.60437,5.8424c-10.50918,0.17248 -14.15532,-4.50982 -18.985,-6.84027c-13.49421,-6.51133 -23.04219,-11.5656 -22.88683,-25.54463z" fill="none" stroke="#001026"/></g><path d="M224.46237,145.23655c2.10407,1.43138 -1.16784,-0.96582 -2.13914,-3.7373c-0.28962,-0.82637 -2.12956,-0.88803 -3.57184,0.00438c-1.71133,1.05891 -1.01364,7.0113 -1.21767,4.6104c-0.20402,-2.4009 -0.41136,-2.18159 0.08682,-4.09728c0.26789,-1.03015 3.08679,-2.27802 4.9233,-1.41652c1.64515,0.77175 0.81305,3.88431 1.91853,4.63635z" fill="#001026" stroke="none" stroke-linecap="butt"/><path d="M206.69025,145.6573c-3.7879,-29.15933 19.61508,-49.45805 19.61508,-49.45805l20.40067,13.87402" fill="#6b542b" stroke="#001026" stroke-linecap="round"/><path d="M249.19551,150.78995c-3.28054,-2.64506 10.76624,-3.51205 8.45809,-0.52744c-1.61952,2.09415 -1.86963,2.34715 -3.96856,2.29037c-2.09893,-0.05678 -2.7129,-0.33046 -4.48953,-1.76292z" fill="#001026" stroke="none" stroke-linecap="round"/><g fill="none" stroke="#001026" stroke-linecap="round"><path d="M215.55912,146.87385l-16.39148,-4.88097"/><path d="M216.48753,153.93233l-11.77907,2.88973"/></g><path d="M275.4312,141.10228c0.58198,6.96068 -3.01952,8.68119 -6.98491,9.24476c-3.9654,0.56357 -11.19887,0.08289 -11.78083,-6.87779c-0.58198,-6.96068 3.91412,-12.70932 7.87951,-13.27289c7.12945,-1.01325 10.30425,3.94523 10.88623,10.90592z" fill="#001026" stroke="#001026" stroke-linecap="butt"/><path d="M270.74815,143.62061c-0.02266,2.03874 -0.52252,4.22114 -0.52252,4.22114c0,0 -0.22237,-1.38786 -0.19972,-3.42659c0.02266,-2.03874 0.28178,-3.95629 0.28178,-3.95629c0,0 0.46311,1.123 0.44046,3.16175z" fill="#006aff" stroke="none" stroke-linecap="butt"/><path d="M249.69276,142.50197c-0.07686,6.91541 -4.79507,8.04983 -9.83574,7.9938c-5.04065,-0.05602 -14.06064,-1.6378 -13.98378,-8.55319c0.07686,-6.91541 6.38459,-11.86273 11.42523,-11.80671c9.06268,0.10072 12.47112,5.4507 12.39426,12.36611z" fill="#001026" stroke="#001026" stroke-linecap="butt"/><path d="M244.10236,139.55132c0,0 0.27428,2.40384 0.24596,4.95253c-0.02833,2.54868 -0.34854,4.27704 -0.34854,4.27704c0,0 -0.57153,-2.74161 -0.5432,-5.29029c0.02833,-2.54868 0.64578,-3.93929 0.64578,-3.93929z" fill="#006aff" stroke="none" stroke-linecap="butt"/><path d="M243.53697,163.86041c0.07586,0.07332 0.11592,0.18768 0.13037,0.32951c0.00001,0.00005 0.00001,0.00009 0.00001,0.00013c-0.04049,-0.1098 -0.08439,-0.21961 -0.13037,-0.32965z" fill="#001026" stroke="none" stroke-linecap="butt"/><g stroke-linecap="butt"><path d="M277.26877,144.85864c0,0 0.24837,3.40047 -0.77446,5.04731c-4.13021,6.64994 -16.74252,23.3237 -28.84887,22.65493c-15.10442,-0.8344 -27.64695,-30.03744 -27.64695,-30.03744c0,0 8.43886,14.03362 29.00529,15.2021c27.97841,1.5896 28.265,-12.8669 28.265,-12.8669z" fill="#001026" stroke="#001026"/><g stroke="none"><g fill="#0062ea"><path d="M238.26015,164.82647c-0.48877,0.11001 -1.03547,-0.37347 -1.22111,-1.07991c-0.18563,-0.70643 0.8581,-1.8866 0.8581,-1.8866c0,0 0.68388,1.0171 0.86953,1.72353c0.21365,0.81301 -0.01775,1.13296 -0.50651,1.24296z"/><path d="M240.26538,165.87363c-0.63416,0.21266 -1.36884,-0.16806 -1.64089,-0.85035c-0.27204,-0.68229 1.04288,-2.10043 1.04288,-2.10043c0,0 0.93618,0.89672 1.20823,1.579c0.31308,0.78525 0.02395,1.1591 -0.61021,1.37177z"/><path d="M242.41554,166.32046c-0.70624,0.13851 -1.40973,-0.326 -1.57134,-1.03748c-0.16162,-0.71148 0.89669,-1.98549 0.89669,-1.98549c0,0 1.09214,0.94555 1.56746,1.72652c0.45509,0.74771 -0.18659,1.15796 -0.8928,1.29646z"/><path d="M245.32564,167.30468c-0.74944,0.30996 -1.62138,0.02447 -1.94754,-0.63768c-0.32614,-0.66214 0.72286,-3.64392 0.72286,-3.64392c0,0 0.85553,1.9344 1.93878,2.78363c0.72528,0.56859 0.03537,1.18801 -0.71407,1.49797z"/><path d="M248.27527,167.77373c-0.63673,0.30589 -1.41153,-0.0908 -1.73058,-0.88602c-0.31903,-0.79524 0.94321,-2.59988 0.94321,-2.59988c0,0 0.45023,1.16981 1.33077,1.79365c0.8215,0.58201 0.09332,1.38633 -0.54337,1.69222z"/><path d="M249.75454,166.19418c0.63556,-0.72582 1.43049,-1.88091 1.43049,-1.88091c0,0 1.41068,1.70023 1.07332,2.51409c-0.33733,0.81388 -1.18011,1.26537 -1.88243,1.00842c-0.70231,-0.25697 -1.31653,-0.84773 -0.62139,-1.6416z"/><path d="M259.96922,164.42949c0.17393,-0.71281 0.84079,-1.75392 0.84079,-1.75392c0,0 1.06295,1.14273 0.88903,1.85554c-0.17393,0.71281 -0.71249,1.2156 -1.20291,1.12299c-0.49044,-0.09261 -0.72705,-0.40423 -0.52689,-1.22459z"/><path d="M257.62328,164.73896c0.31519,-0.6735 1.30752,-1.54132 1.30752,-1.54132c0,0 1.22345,1.45617 0.90827,2.12966c-0.31519,0.6735 -1.07336,1.03185 -1.6934,0.8004c-0.62005,-0.23145 -0.88512,-0.61362 -0.52234,-1.38872z"/><path d="M255.21749,165.48083c0.28976,-0.68252 1.28457,-1.56812 1.28457,-1.56812c0,0 1.39314,1.45585 1.10337,2.13837c-0.28976,0.68252 -1.06992,1.05184 -1.74258,0.82488c-0.67264,-0.22696 -0.97885,-0.60962 -0.64537,-1.39514z"/><path d="M252.42723,166.31574c1.01721,-0.93582 1.72726,-2.93476 1.72726,-2.93476c0,0 1.26602,2.88636 0.98976,3.57333c-0.27625,0.68697 -1.12447,1.04335 -1.89451,0.79604c-0.77004,-0.24731 -1.50358,-0.80803 -0.82254,-1.43463z"/></g><g fill="#006aff"><path d="M237.01695,160.98034c-0.02952,0.72791 -0.45298,1.85881 -0.45298,1.85881c0,0 -1.18873,-0.94673 -1.15919,-1.67464c0.02952,-0.72791 0.43349,-1.30958 0.90227,-1.2992c0.46876,0.01039 0.74392,0.27731 0.70992,1.11502z"/><path d="M238.58877,161.82127c-0.02952,0.72791 -0.47969,1.85822 -0.47969,1.85822c0,0 -1.27546,-0.94864 -1.2459,-1.67655c0.02952,-0.72791 0.46036,-1.309 0.96229,-1.29787c0.50195,0.01113 0.79728,0.27848 0.76329,1.11621z"/><path d="M240.88487,162.40955c-0.02952,0.72791 -0.61761,1.85517 -0.61761,1.85517c0,0 -1.72369,-0.95857 -1.69414,-1.68646c0.02952,-0.72791 0.59928,-1.30592 1.27261,-1.29101c0.67333,0.01493 1.0731,0.28458 1.03913,1.12232z"/><path d="M243.41372,162.8686c-0.02952,0.72791 -0.65548,1.85431 -0.65548,1.85431c0,0 -1.84683,-0.96129 -1.81727,-1.6892c0.02952,-0.72791 0.63746,-1.30506 1.35787,-1.28912c0.7204,0.01595 1.14889,0.28625 1.11489,1.124z"/><path d="M246.08168,163.29682c-0.6462,1.17291 -0.63154,3.26469 -0.63154,3.26469c0,0 -2.20623,-2.37254 -2.1805,-3.10054c0.0257,-0.72799 0.71126,-1.30498 1.53121,-1.28874c0.81995,0.01624 1.71353,0.33929 1.2809,1.12459z"/><path d="M248.02415,163.95909c-0.58644,0.95121 -0.62159,2.22704 -0.62159,2.22704c0,0 -1.68024,-1.14078 -1.64483,-2.01356c0.03541,-0.87277 0.59877,-1.56846 1.25834,-1.55388c0.65955,0.01461 1.55519,0.45299 1.00808,1.34042z"/><path d="M251.80122,162.64337c0.68087,-0.03222 1.25735,0.64852 1.28755,1.52046c0.03019,0.87195 -1.71241,2.05781 -1.71241,2.05781c0,0 -0.31277,-1.3325 -0.62543,-2.21072c-0.34199,-0.96056 0.36941,-1.33531 1.05029,-1.36753z"/><path d="M262.81113,160.30079c0.46877,0.01039 0.82485,0.60888 0.7953,1.33677c-0.02952,0.72791 -1.29286,1.62037 -1.29286,1.62037c0,0 -0.33103,-1.14761 -0.3015,-1.87551c0.03398,-0.83773 0.33027,-1.092 0.79905,-1.08162z"/><path d="M261.22733,161.0719c0.50195,0.01113 0.88493,0.61021 0.85535,1.33811c-0.02952,0.72791 -1.37961,1.61844 -1.37961,1.61844c0,0 -0.35772,-1.14821 -0.32818,-1.8761c0.03398,-0.83773 0.35047,-1.09155 0.8524,-1.08044z"/><path d="M259.1635,161.56365c0.67335,0.01493 1.19521,0.61705 1.16567,1.34499c-0.02952,0.72791 -1.82782,1.60851 -1.82782,1.60851c0,0 -0.49565,-1.15124 -0.4661,-1.87915c0.03398,-0.83773 0.45492,-1.08925 1.12826,-1.07434z"/><path d="M256.84478,161.91543c0.7204,0.01595 1.28043,0.61897 1.25091,1.34686c-0.02952,0.72791 -1.95096,1.60578 -1.95096,1.60578c0,0 -0.53352,-1.15209 -0.50397,-1.87999c0.03398,-0.83773 0.48363,-1.08861 1.20405,-1.07265z"/><path d="M254.22907,162.22977c0.81977,0.02005 1.45731,0.62633 1.42397,1.35414c-0.03334,0.72781 -2.42796,2.99855 -2.42796,2.99855c0,0 0.18415,-2.08738 -0.36577,-3.28676c-0.36822,-0.80303 0.54996,-1.08597 1.36974,-1.06592z"/><path d="M250.75504,164.06434c-0.03452,0.85073 -1.38383,2.17623 -1.38383,2.17623c0,0 -1.237,-1.44321 -1.20245,-2.29396c0.03452,-0.85073 0.6224,-1.04431 1.33726,-1.02849c0.71486,0.01582 1.28356,0.29546 1.24903,1.14619z"/></g></g><path d="M277.27064,144.69086c0,0 0.24837,3.40047 -0.77446,5.04731c-4.13021,6.64994 -16.74252,23.3237 -28.84887,22.65493c-15.10442,-0.8344 -27.64695,-30.03744 -27.64695,-30.03744c0,0 8.43886,14.03362 29.00529,15.2021c27.97841,1.5896 28.265,-12.8669 28.265,-12.8669z" fill-opacity="0.71373" fill="#001026" stroke="none"/></g><path d="M224.79397,156.58617c1.95436,2.47164 4.74275,7.80168 4.74275,7.80168c0,0 -2.7598,-4.21172 -4.71416,-6.68336c-1.95436,-2.47164 -2.36319,-2.26724 -2.36319,-2.26724c0,0 0.38026,-1.32272 2.33462,1.14891z" fill="#001026" stroke="none" stroke-linecap="butt"/><path d="M252.93024,155.62618c0,0 -0.46101,-0.79856 -0.45565,-1.28044c0.00536,-0.48188 1.55787,-1.25806 1.55787,-1.25806c0,0 -1.01558,0.78215 -1.02093,1.26403c-0.00536,0.48188 -0.08129,1.27447 -0.08129,1.27447z" fill="#001026" stroke="none" stroke-linecap="butt"/></g><g fill="#6b542b" stroke="#001026" stroke-linecap="round"><path d="M242.91798,174.67135c4.97077,-0.53837 5.02633,12.41391 5.95842,15.16842c0.93209,2.7545 6.5785,12.53212 7.46651,15.55419c0.88803,3.02206 -0.77427,4.94798 -2.65948,7.55878c-1.88522,2.61079 -5.0627,4.05505 -7.16564,3.55553c-2.10294,-0.49954 -3.49406,-5.79786 -3.49406,-5.79786c0,0 -1.43756,-3.97064 -1.02362,-9.07661c0.41394,-5.10597 0.50278,-21.07133 0.50278,-21.07133"/><path d="M249.30789,214.56008c0,0 -2.29174,5.09128 0.54638,8.15285c1.80778,1.95012 -1.40817,7.27199 -5.28732,4.82126c-2.48662,-1.57097 -2.98055,-5.45783 -2.23269,-14.26236c0.11938,-1.40547 -0.62436,-8.11288 -0.40104,-9.62688"/><path d="M252.7103,209.9913c0,0 3.03075,9.70431 4.15207,14.82292c0.62871,2.86997 -2.06219,6.8072 -5.37912,5.54888c-3.31693,-1.25832 -2.24209,-4.44867 -3.39791,-7.9497c-1.15583,-3.50102 -1.04907,-10.41025 -1.04907,-10.41025"/><path d="M256.09597,204.27894c0,0 1.29123,6.82319 6.74612,12.31445c4.6357,4.66661 -0.76805,10.2782 -3.97648,8.32349c-2.17311,-1.32398 -4.67079,-6.25192 -5.08237,-9.11322c-0.58257,-4.05003 -0.87692,-6.92005 -0.87692,-6.92005"/><path d="M252.50878,198.28827c0,0 5.32201,5.33713 7.89431,7.06777c2.66103,1.79034 3.50932,8.50897 1.57108,11.41328c-1.93823,2.90435 -5.49019,0.75809 -6.20581,-1.85112c-0.8705,-3.17391 -1.05862,-6.29596 -1.05862,-6.29596l-3.01512,-1.89851"/></g><g stroke-linecap="round"><path d="M241.47563,201.9552c0,0 -6.02248,22.81718 -17.84327,29.16115c-10.71545,5.75077 -21.30142,0.34168 -25.32415,-9.44035c-5.20799,-12.66423 3.30251,-22.37765 10.16358,-17.15328c6.86932,5.23063 7.64869,15.54353 13.65708,15.07611c6.00839,-0.46743 19.34674,-17.64361 19.34674,-17.64361z" fill="#6b542b" stroke="none"/><path d="M212.92626,220.39416c-2.42687,2.45961 -5.84803,10.00804 0.71219,11.38015c7.05854,1.47634 16.12058,-3.946 9.99391,-0.65796c-10.71545,5.75077 -21.30142,0.34168 -25.32415,-9.44035c-5.20799,-12.66423 3.30251,-22.37765 10.16358,-17.15328c6.86932,5.23063 5.97334,14.54408 11.98175,14.07666c2.82863,-0.22004 1.74332,1.81162 0.23802,1.16042c-1.69219,-0.73205 -4.52215,-2.65254 -7.7653,0.63436z" fill="#dac3a1" stroke="none"/><path d="M241.47563,201.9552c0,0 -6.02247,22.81718 -17.84327,29.16115c-10.71545,5.75077 -21.30143,0.34168 -25.32415,-9.44035c-5.20799,-12.66423 3.30251,-22.37765 10.16358,-17.15328c6.86932,5.23063 7.64956,15.21157 13.65798,14.74415c6.00839,-0.46743 19.34584,-17.31167 19.34584,-17.31167z" fill="none" stroke="#001026"/></g><path d="M250.48583,189.95461c4.83824,16.8396 5.00538,37.91127 5.00538,37.91127c0,0 6.12985,-1.05474 12.16295,0.97408c7.99178,2.68747 6.81686,11.58331 -6.088,11.78162c-11.2871,0.17346 -21.12381,1.48812 -19.22223,-13.61027c1.73138,-13.747 -0.71522,-27.31341 -0.71522,-27.31341" fill="#6b542b" stroke="#001026" stroke-linecap="round"/><g><g><path d="M250.08039,188.00428c3.37095,9.05513 -5.26798,15.62609 -13.74771,12.46479c-4.16706,-1.55351 -3.20781,-12.69143 -3.20781,-12.69143c0,0 -7.08179,-9.56419 0.45826,-12.91806c7.39843,-3.29087 13.71424,5.66887 16.49726,13.1447z" fill="#6b542b" stroke="#001026" stroke-linecap="round"/><path d="M249.87899,191.43608c0,4.00529 -2.51332,7.25223 -5.61366,7.25223c-3.10033,0 -5.84278,-1.88715 -5.84278,-5.89244c0,-4.00529 -2.28624,-7.84134 2.17673,-11.33163c4.04504,-3.16345 9.27971,5.96653 9.27971,9.97183z" fill="#dac3a1" stroke="none" stroke-linecap="butt"/></g><path d="M230.90167,178.46259c-0.2612,-0.77075 0.39485,-2.28876 0.8077,-2.90666c0.56737,-0.16743 0.91176,-0.88292 1.5519,-1.02484c1.62995,-0.36135 3.19168,-0.02484 4.85961,0.01188c2.23858,0.86432 3.62262,2.708 5.71679,3.71646c1.86876,1.87572 0.65204,0.72185 -0.73872,0.37042c-0.677,-0.17108 -0.90315,0.25409 -0.85777,0.73609c-0.22427,-0.37329 -0.40777,-0.75915 -0.68718,-1.0953l0.04584,-0.03685l-0.21072,-0.25651c-0.03075,-0.03805 -0.07807,-0.06243 -0.13114,-0.06243c-0.09267,0 -0.1678,0.07432 -0.1678,0.16598c0,0.00002 0,0.00004 0,0.00006l0.0001,0.33195h0.00004l-0.00004,0.00019c0.00261,1.01969 -0.00136,2.21067 0.12108,3.25979c-0.73101,-1.59033 -0.4011,-3.92333 -1.45263,-5.407l0.05237,-0.03074l-0.16965,-0.28283c-0.02888,-0.05012 -0.0834,-0.08394 -0.14591,-0.08394c-0.09267,0 -0.1678,0.07432 -0.1678,0.16598c0,0.01437 0.00185,0.02831 0.00532,0.04164l0.07614,0.31953l0.00564,-0.00132l-0.00064,0.01824c0.04725,0.09871 0.08816,0.1966 0.12415,0.29407c0.02895,0.17889 0.08779,0.36183 0.15905,0.54343c0.07469,0.32255 0.12443,0.64959 0.20052,0.99667c-0.02822,0.25694 -1.56512,-1.84932 -2.09411,-1.50398c-0.26524,0.17315 -0.20115,2.27843 -0.07297,3.21394c-0.3288,-0.8419 -1.49172,-3.05405 -1.93292,-2.83379c-0.16343,0.08161 -0.11109,0.8087 -0.09963,1.25137c-0.24951,-0.30765 -0.54295,-0.92127 -0.87021,-1.05978c-0.45526,-0.19269 -1.00944,0.06174 -1.52073,0.49365c0.3141,-0.76544 0.5872,-1.55904 0.94105,-2.25752c0,0 0.07505,-0.14844 -0.07504,-0.22267c-0.15008,-0.07424 -0.22513,0.07423 -0.22513,0.07423c-0.46206,0.91591 -1.67503,1.17163 -2.15598,2.14978c-0.18395,0.21898 -0.56477,1.87226 -0.89059,0.91082zM231.94691,179.5549l-0.01162,-0.00557c0.00556,-0.0016 0.01112,-0.00324 0.01669,-0.00492c-0.0017,0.0035 -0.00339,0.00701 -0.00507,0.0105z" fill="#001026" stroke="none" stroke-linecap="butt"/></g><path d="M244.86056,200.23147l-1.24101,37.11229c0,0 5.80182,6.20828 8.59818,15.13432c2.79636,8.92603 -4.49713,16.74774 -15.04808,11.99218c-6.09638,-2.74779 -8.23395,-8.21731 -9.06191,-11.90564c-1.32371,-5.89674 -1.71615,-12.06918 -0.30612,-15.12154c2.29199,-4.96156 5.65911,-41.04628 5.65911,-41.04628" fill="#6b542b" stroke="#001026" stroke-linecap="round"/><g fill="#6b542b" stroke="#001026" stroke-linecap="round"><path d="M230.37538,208.00996c0,0 4.61679,8.39689 7.21642,10.76687c2.68931,2.45172 2.5044,10.14707 -0.16787,13.09394c-2.67226,2.94685 -6.30325,-0.05187 -6.66574,-3.10398c-0.44097,-3.71271 -0.12331,-7.25467 -0.12331,-7.25467l-4.02914,-6.29526"/><path d="M232.69896,182.69427c0,0 -3.15627,13.63764 -2.57491,16.88881c0.58136,3.25118 2.40854,15.02269 2.89497,18.5675c0.48643,3.54484 -1.70962,5.43684 -4.27246,8.06234c-2.56286,2.62549 -6.38137,3.72625 -8.66183,2.81808c-2.28047,-0.90818 -2.94682,-7.0957 -2.94682,-7.0957c0,0 0.01303,-16.25606 3.15689,-25.8425c3.14384,-9.58644 5.44414,-18.39794 11.62768,-21.22728"/><path d="M223.55293,227.29979c0,0 -3.44057,5.34802 -0.76762,9.2585c1.70259,2.49085 -2.81654,7.94594 -6.76388,4.55092c-2.53035,-2.17629 -2.42691,-6.62875 -0.09325,-16.40691c0.37252,-1.56091 0.99594,-8.22648 1.50377,-9.89232"/><path d="M228.15406,222.7223c0,0 1.76353,11.4125 2.15691,17.35349c0.22057,3.33105 -3.4733,7.31551 -6.99048,5.35403c-3.51717,-1.96146 -1.76747,-5.37221 -2.47391,-9.49978c-0.70643,-4.12757 0.58493,-11.87995 0.58493,-11.87995"/><path d="M232.93027,216.85603c0,0 0.29552,7.88592 5.49963,14.95984c4.42259,6.01158 -2.60622,11.43211 -5.88331,8.70536c-2.21961,-1.84686 -4.1933,-7.80016 -4.17114,-11.08571c0.03138,-4.65054 0.18686,-7.92657 0.18686,-7.92657"/></g></g></g></svg>