<svg version="1.1" xmlns="http://www.w3.org/2000/svg" xmlns:xlink="http://www.w3.org/1999/xlink" width="88.23941" height="183.838" viewBox="0,0,88.23941,183.838"><g transform="translate(-186.00709,-66.16028)"><g data-paper-data="{&quot;isPaintingLayer&quot;:true}" fill-rule="nonzero" stroke-linejoin="miter" stroke-miterlimit="10" stroke-dasharray="" stroke-dashoffset="0" style="mix-blend-mode: normal"><path d="M250.53031,190.09238c1.05367,3.00886 1.15177,8.5892 -0.98701,6.8104c0.26356,5.96696 -2.51762,9.32738 -5.33635,8.24641c-4.74669,0.8779 -4.87825,-10.16085 -4.861,-22.13381c-5.42467,-27.65203 0.86896,-28.87939 1.33497,-28.32074c6.12574,7.34375 5.50629,22.26847 9.84939,35.39773z" fill="#0f002d" stroke="#0f002d" stroke-width="1.5" stroke-linecap="butt"/><path d="M242.53191,196.51094c0,0 0.91934,4.22192 -0.43516,4.9127c-1.52824,0.77939 -2.06233,0.83609 -1.85055,-5.34127" fill="none" stroke="#0f002d" stroke-width="1.5" stroke-linecap="round"/><g stroke="#0f002d" stroke-width="1.5" stroke-linecap="round"><path d="M226.95143,144.7c0.78521,0.05151 3.52584,5.90916 3.52584,5.90916c0,0 -2.6015,6.29167 -3.07619,12.30276c-1.1937,4.08811 9.75104,-1.76387 2.03838,11.26701c-3.34645,5.65397 -17.46504,-1.53013 -16.31235,-4.6063c0,0 11.07844,-25.05276 13.82432,-24.87263z" fill="#5e1284"/><path d="M227.49191,162.82288l-2.48587,0.16978" fill="none"/></g><g stroke="#0f002d" stroke-width="1.5"><path d="M237.57556,222.88203c-1.02956,-3.82715 -0.04497,-7.7503 4.64178,-7.7503c1.39116,0 5.05666,0.70142 6.24145,1.44562c3.81278,2.39492 11.38904,1.08963 11.08079,5.38965c-0.30825,4.30001 -21.32844,3.27762 -21.96401,0.91503z" fill="#e9caf8" stroke-linecap="butt"/><path d="M225.86322,249.21184c-7.10462,0.49699 -10.45187,-4.18164 -11.58391,-8.4166c-1.12316,-4.20175 -2.64057,-17.50216 1.43839,-19.1936c6.5211,-2.70412 14.71561,0.71814 15.23507,8.51967c1.73622,7.50742 4.72686,18.40383 -5.08955,19.09052z" fill="#e9caf8" stroke-linecap="butt"/><g stroke-linecap="round"><path d="M248.86433,214.98258c-2.47166,3.16255 -10.48112,4.48329 -11.62746,0.76779c-1.35821,-4.40219 0.01365,-12.13725 0.5705,-20.72738c0.54962,-8.47875 0.61285,-17.62761 0.23224,-17.44646c-0.57301,0.27272 -1.69536,12.68502 -2.93187,20.83512c-1.23651,8.1501 -1.12309,24.00726 -6.98655,28.50699c-4.02136,3.08606 -10.58036,1.63924 -13.65885,-1.35312c-2.45287,-2.38424 -2.42273,-5.92865 0.87954,-7.64585c1.17583,-5.14688 4.0072,-14.22466 4.98953,-22.27555c0.91229,-7.47677 4.23714,-23.2724 4.98715,-23.46335c3.02388,-0.76989 17.18597,-4.02023 18.90424,-4.35942c0.37612,-0.07425 2.99399,12.08539 4.01364,24.02758c0.99567,11.66137 0.96372,23.11085 0.6279,23.13365z" fill="#414ca9"/><path d="M242.55083,175.60801l-4.42445,1.90144" fill="none"/></g></g><g stroke="#0f002d"><path d="M225.21242,172.90363c-2.11683,-1.75861 3.85453,-12.18934 5.10303,-15.69957c-0.19706,-7.04783 -6.19071,-19.04236 -2.60999,-17.82214c6.06038,2.06522 8.50938,6.61169 12.4253,13.1444c3.74092,6.24077 4.52219,15.70794 4.24319,15.95601c-1.55784,1.38517 -7.88557,5.82732 -19.16153,4.42132z" fill="#8f21c6" stroke-width="1.5" stroke-linecap="round"/><path d="M232.52743,142.12849c0.3072,0.99706 -5.3385,0.72204 -5.5382,-0.30527c-0.17598,-0.90526 0.27693,-2.07034 1.35406,-2.16949c1.39069,-0.128 3.82917,1.32259 4.18414,2.47474z" fill="#0f002d" stroke-width="1" stroke-linecap="butt"/><path d="M243.06068,160.8402c0.41444,0.46298 1.06685,7.66085 0.77035,7.91787c-1.65293,3.0619 -13.83451,5.55128 -13.57372,4.07972c-1.40954,-12.6607 12.58911,-12.23694 12.80335,-11.99761z" fill="#c168ee" stroke-width="1" stroke-linecap="round"/><path d="M229.98835,142.59336c0,0 3.28216,5.62103 3.41642,9.44204c0.13787,3.92382 1.93323,6.64016 1.89198,11.19906" fill="none" stroke-width="1" stroke-linecap="round"/><path d="M231.38587,141.62751c0,0 3.7707,4.16614 4.59076,8.04819c0.75908,3.59344 3.13935,8.02713 3.96053,12.16751" fill="none" stroke-width="1" stroke-linecap="round"/></g><path d="M247.47148,133.32762c-3.52792,5.03272 -15.96042,2.01503 -16.47708,2.23693c-1.2135,2.46511 -9.25439,2.25223 -13.30895,-0.40019c-0.55089,-0.31432 -12.98428,2.32425 -14.59347,-3.52971c-2.68043,-0.61349 -10.85328,-1.98218 -10.42313,-10.4457c-5.4455,-2.48297 -8.3563,-10.54096 -3.28086,-16.84141c-1.75804,-7.05603 -0.84806,-17.71619 6.28154,-20.11426c-1.49804,-6.36971 14.53315,-19.87238 23.53054,-11.33453c18.04826,-14.20109 31.71143,0.92771 31.45983,3.85508c14.59131,-2.90766 19.9703,15.29737 19.46558,16.91012c2.92669,0.51685 7.36071,14.56292 -3.90848,20.15327c0.87452,2.50627 -2.57126,14.10672 -9.85201,13.61186c-0.3915,1.80721 -3.3479,6.7106 -8.89352,5.89853z" fill="#3d2747" stroke="#0f002d" stroke-width="1.5" stroke-linecap="round"/><g><g><path d="M237.30994,104.82253c-0.17682,3.12186 -6.93027,12.13587 -14.44449,11.71027c-7.51423,-0.4256 -12.55707,-2.98636 -12.38025,-6.1082c-0.06694,-7.09009 0.44219,-7.99715 9.12629,-6.05561c3.25693,-0.27042 6.32587,-3.22378 9.39078,-3.05018c5.35135,1.35812 8.5117,2.2297 8.30767,3.50373z" fill="#2f1e38" stroke="none" stroke-width="0" stroke-linecap="butt"/><path d="M237.79552,104.36446c-0.23658,4.31422 -13.37036,20.42453 -27.67211,6.59261" fill="none" stroke="#0f002d" stroke-width="1.5" stroke-linecap="round"/></g><path d="M258.98569,96.95963c0.44325,3.6034 -2.42565,6.48599 -10.93542,5.30858c-5.6206,2.47747 -14.35102,1.22609 -19.27444,-1.13196c-14.85176,6.29202 -26.94588,0.49821 -19.37454,-6.24325" fill="#3d2747" stroke="#0f002d" stroke-width="1.5" stroke-linecap="round"/></g><g><g><path d="M248.91228,116.14497c0.56997,-0.1312 -3.16299,2.94234 -7.61348,6.56134c-5.57189,7.50342 -11.66755,18.40038 -18.81213,17.3859c-7.39572,-1.05015 -13.47208,-16.66013 -13.6675,-29.17916c0.06673,-0.58308 0.57513,-0.78371 0.7916,-0.55192c9.95895,10.66359 34.4433,6.90216 39.30151,5.78385z" fill="#ffffff" stroke="#0f002d" stroke-width="1.5" stroke-linecap="round"/><path d="M239.22336,125.48955c0,0 0.24205,-2.98727 0.46832,-4.37118c0.18399,-1.12532 1.06708,-3.39367 1.06708,-3.39367l6.89262,-0.79651z" fill="#0f002d" stroke="none" stroke-width="0" stroke-linecap="butt"/><path d="M237.88741,126.50946c0,0 -2.21787,-8.78791 -2.36053,-8.44493c-1.3866,3.3339 -9.40838,21.88035 -9.45481,21.43177c-0.40295,-3.8931 -2.31353,-22.32928 -2.46877,-21.9539c-0.81224,1.96419 -7.53305,17.35909 -7.58781,16.85323c-0.25204,-2.32798 -1.73046,-20.28054 -1.86605,-20.00083c-0.48734,1.00534 -3.7481,7.36237 -3.7481,7.36237" fill="none" stroke="#0f002d" stroke-width="1.5" stroke-linecap="round"/></g><path d="M207.36927,110.81205c0,0 1.01241,-2.76374 3.62148,-1.07309" fill="none" stroke="#0f002d" stroke-width="1.5" stroke-linecap="round"/></g></g></g></svg>