<svg version="1.1" xmlns="http://www.w3.org/2000/svg" xmlns:xlink="http://www.w3.org/1999/xlink" width="136.27494" height="242.07198" viewBox="0,0,136.27494,242.07198"><g transform="translate(-165.0503,-87.85214)"><g data-paper-data="{&quot;isPaintingLayer&quot;:true}" fill-rule="nonzero" stroke-miterlimit="10" stroke-dasharray="" stroke-dashoffset="0" style="mix-blend-mode: normal"><g stroke-linecap="butt" stroke-linejoin="miter"><g fill="#686868" stroke="#000000" stroke-width="1"><path d="M195.70828,329.11509v-104.61283h101.23822v104.61283z"/><path d="M177.14795,319.83493v-104.61283l18.56034,9.28017v104.61283z"/><path d="M195.59516,224.03145l-17.71669,-8.85834l102.92552,1.26548l16.45121,8.43652z"/></g><path d="M199.28505,229.20101c0,-0.82843 0.67157,-1.5 1.5,-1.5c0.82843,0 1.5,0.67157 1.5,1.5c0,0.82843 -0.67157,1.5 -1.5,1.5c-0.82843,0 -1.5,-0.67157 -1.5,-1.5z" fill="#b9b9b9" stroke="none" stroke-width="0.5"/><path d="M291.28505,229.86768c0,-0.82843 0.67158,-1.5 1.5,-1.5c0.82842,0 1.5,0.67157 1.5,1.5c0,0.82843 -0.67158,1.5 -1.5,1.5c-0.82842,0 -1.5,-0.67157 -1.5,-1.5z" fill="#b9b9b9" stroke="none" stroke-width="0.5"/><path d="M292.61838,325.53434c0,-0.82842 0.67158,-1.5 1.5,-1.5c0.82842,0 1.5,0.67158 1.5,1.5c0,0.82842 -0.67158,1.5 -1.5,1.5c-0.82842,0 -1.5,-0.67158 -1.5,-1.5z" fill="#b9b9b9" stroke="none" stroke-width="0.5"/><path d="M198.61838,326.53434c0,-0.82842 0.67157,-1.5 1.5,-1.5c0.82843,0 1.5,0.67158 1.5,1.5c0,0.82842 -0.67157,1.5 -1.5,1.5c-0.82843,0 -1.5,-0.67158 -1.5,-1.5z" fill="#b9b9b9" stroke="none" stroke-width="0.5"/></g><g stroke="#000000" stroke-width="1" stroke-linecap="butt" stroke-linejoin="miter"><path d="M276.72181,266.93448c-6.94903,2.48678 -51.07106,1.87124 -57.88411,-0.34832c-7.86831,-2.56336 -6.89912,-21.57451 1.11074,-24.14005c6.78323,-2.17265 50.64342,-1.76459 57.67502,0.99318c6.36836,2.49765 6.19476,20.95566 -0.90165,23.49519z" data-paper-data="{&quot;index&quot;:null}" fill="#363636"/><path d="M272.63389,263.40278c-5.53329,1.76301 -40.66621,1.32662 -46.09121,-0.24694c-6.26528,-1.8173 -5.49355,-15.29531 0.88444,-17.11416c5.40126,-1.5403 40.32569,-1.25101 45.92472,0.70411c5.07091,1.77071 4.93268,14.85658 -0.71796,16.65699z" data-paper-data="{&quot;index&quot;:null}" fill="#4a4a4a"/></g><g stroke="#000000" stroke-width="1" stroke-linecap="butt" stroke-linejoin="miter"><path d="M277.22181,314.93448c-6.94903,2.48678 -51.07106,1.87124 -57.88411,-0.34832c-7.86831,-2.56336 -6.89912,-21.57451 1.11074,-24.14005c6.78323,-2.17265 50.64342,-1.76459 57.67502,0.99318c6.36836,2.49764 6.19476,20.95567 -0.90165,23.49519z" data-paper-data="{&quot;index&quot;:null}" fill="#363636"/><path d="M273.13389,311.40278c-5.53329,1.76301 -40.66621,1.32662 -46.09121,-0.24694c-6.26528,-1.8173 -5.49355,-15.29531 0.88444,-17.11416c5.40126,-1.5403 40.32569,-1.25101 45.92472,0.70412c5.07091,1.77071 4.93268,14.85658 -0.71796,16.65699z" data-paper-data="{&quot;index&quot;:null}" fill="#4a4a4a"/></g><path d="M245.99382,217.30412v0v0v0v0v0c2.10409,-0.41674 4.52325,3.04504 4.52339,3.03878c0.94847,2.36247 6.64984,7.53401 6.64984,7.53401c0,0 0.78936,0.02371 1.10769,0.86521c0.32343,0.84351 -0.82526,1.96808 -2.87257,2.60344c-2.05396,0.63285 -3.55606,1.29377 -4.27716,0.6641c-0.71947,-0.63308 -0.54852,-1.13234 -0.54852,-1.13234c0,0 -1.52281,-3.13344 -2.79217,-4.96734c-1.26804,-1.83096 -4.66414,-6.95337 -4.66414,-6.95337c0,0 1.2232,-1.32578 2.87362,-1.65249z" data-paper-data="{&quot;index&quot;:null}" fill="#be1e2d" stroke="#231f20" stroke-width="0.90025" stroke-linecap="round" stroke-linejoin="round"/><path d="M236.28906,217.7207c1.48971,-0.66258 3.49492,-0.35392 3.49492,-0.35392c0,0 1.75322,5.64001 2.33994,7.68561c0.58819,2.0485 2.06998,5.19486 2.06998,5.19486c0,0 0.54133,0.27485 0.53679,1.13603c-0.00858,0.85955 -1.66675,1.19428 -3.70886,1.85189c-2.03929,0.65213 -3.82219,0.45114 -4.28492,-0.34848c-0.46483,-0.79534 0.09802,-1.24506 0.09802,-1.24506c0,0 -0.09274,-6.93853 -1.3573,-9.20142c0.00531,0.00454 -1.08798,-3.87495 0.81142,-4.71951v0v0v0v0v0z" fill="#be1e2d" stroke="#231f20" stroke-width="0.90025" stroke-linecap="round" stroke-linejoin="round"/><path d="M231.43048,216.03565v0v0v0v0v0c-1.75599,0.58924 -5.24151,1.15359 -6.34632,0.89109c0,0 -4.27584,-1.223 -4.15142,-3.6467c0.02358,-0.46274 -3.10925,0.23779 -3.17131,-1.02519c-0.07493,-1.52517 4.30066,-0.99855 4.8721,-1.29122c-0.01653,-0.12208 2.55652,-0.89744 5.05667,-1.0414c2.17638,-0.12531 4.27066,0.36797 4.89465,0.40713c0,0 1.36536,0.04784 2.04099,1.49227c0.71901,1.53654 -1.43934,3.62482 -3.19535,4.21405z" data-paper-data="{&quot;index&quot;:null}" fill="#be1e2d" stroke="#231f20" stroke-width="0.78673" stroke-linecap="round" stroke-linejoin="round"/><g stroke-width="0.90025"><path d="M248.98334,210.29843v0v0v0v0v0c0.57001,2.77422 0.19059,7.96261 -2.91402,9.94947c-3.07096,1.96155 -6.44687,1.90953 -10.06492,-0.27483c-2.99772,-1.81055 -3.24223,-7.45198 -3.11571,-10.6229v0c0,0 -0.38626,-7.29791 5.70472,-8.53854c6.08909,-1.24042 9.25183,4.19987 9.92076,7.66636c0.18348,0.60654 0.346,1.22687 0.46917,1.82045z" fill="#be1e2d" stroke="#000000" stroke-linecap="butt" stroke-linejoin="miter"/><path d="M247.736,218.40866v0v0v0v0v0l-0.00733,0.14373c-0.43486,0.67701 -0.98295,1.26116 -1.65856,1.69366c-2.84453,1.81725 -5.94933,1.90708 -9.26725,0.17395l-0.04125,-0.14193c0,0 -2.21704,-9.18521 3.67615,-9.92878c6.692,-0.8412 7.2541,6.50472 7.29824,8.05937z" fill="#e6e7e8" stroke="#231f20" stroke-linecap="round" stroke-linejoin="round"/></g><g stroke="#000000" stroke-width="0.90025" stroke-linecap="round" stroke-linejoin="round"><path d="M283.6854,182.15183l-0.44785,1.57572c-2.52718,7.97402 -6.48738,12.70255 -6.48738,12.70255c0,0 0.07349,-1.40255 -0.13203,-3.63798l-0.13385,-0.03852c-0.31369,1.20038 -0.852,2.75589 -1.78286,4.6922c-2.04101,4.25206 -8.51624,8.08184 -8.51624,8.08184c0,0 0.33553,-1.44147 0.46609,-3.77673l-0.11321,-0.34985c-0.69172,0.59665 -1.4129,1.14978 -2.14292,1.68987c-0.21475,0.15988 -0.4296,0.31606 -0.6484,0.46795c-0.66557,0.4672 -1.34483,0.91523 -2.03996,1.3371c-0.27476,0.16492 -0.561,0.31976 -0.83981,0.4786c-0.50853,0.2907 -1.02516,0.56733 -1.55022,0.83642c-0.38584,0.19544 -0.77442,0.39023 -1.17094,0.57364c-0.41034,0.1924 -0.83333,0.36827 -1.25326,0.55038c-0.77258,0.32603 -1.55789,0.63393 -2.36241,0.92218c-0.26249,0.09393 -0.52507,0.18786 -0.79245,0.27666c-0.57439,0.19251 -1.15358,0.38158 -1.74445,0.55337l0.0019,0.0017c-2.96599,0.86743 -6.12875,1.50143 -9.53007,1.90162c-3.67988,0.43202 -7.02925,0.58144 -10.16752,0.53783v0c-2.48332,-0.03578 -4.81525,-0.20358 -7.02986,-0.48247c-0.10709,-0.01297 -0.21522,-0.02678 -0.32321,-0.0397c-0.68491,-0.09089 -1.35948,-0.19036 -2.02196,-0.30133c-0.2313,-0.04041 -0.45296,-0.08577 -0.68336,-0.12793c-0.88076,-0.15831 -1.73826,-0.33785 -2.58487,-0.53241c-0.53519,-0.12346 -1.06708,-0.2508 -1.58774,-0.38859c-0.30918,-0.07924 -0.61951,-0.16303 -0.9227,-0.24802c-0.82815,-0.23525 -1.64935,-0.4753 -2.44755,-0.73926l-0.12854,0.13785c0.41233,2.09503 1.20363,3.19066 1.81534,3.69936c1.24704,1.03872 3.54381,1.17422 3.54381,1.17422c0,0 -6.92169,1.36437 -11.01991,-3.81023c-0.43543,-0.55006 -0.87562,-1.12068 -1.29728,-1.7311l-0.18645,-0.35208c-0.84047,-0.22996 -1.69679,-0.55018 -2.54827,-0.97623c-5.19302,-2.61883 -5.95798,-4.97457 -5.95798,-4.97457l0.1539,0.87049c0.61165,2.2571 1.16464,3.67247 1.16464,3.67247c0,0 -6.23435,-3.476 -9.2344,-9.03801c-2.41909,-4.48993 -2.74622,-7.27306 -2.78671,-7.74153l-0.29561,-1.66595c-0.49577,-6.56069 -0.49764,-13.9504 0.00158,-21.24811l0.04496,-0.1963c0.4927,-5.6473 -0.80396,-14.88552 6.10107,-24.79637c12.93952,-18.56708 27.20452,-18.7405 34.98407,-32.36336c5.72223,-10.0219 3.49687,-21.02696 3.49687,-21.02696c0,0 4.14151,5.22177 5.85075,8.3284c1.65621,3.02836 3.46308,6.95003 3.46308,6.95003l0.04932,-0.037c0.02854,-0.11887 0.05334,-0.24013 0.07365,-0.36115c0.31447,-1.88478 -0.00413,-4.62792 -0.00413,-4.62792c0,0 4.25703,10.52324 10.55742,17.22705c6.2966,6.70052 14.94388,8.23445 27.0597,31.70697c1.50758,2.91675 2.89435,5.36508 3.71662,8.11895l0.39141,1.58941c1.21864,4.96697 1.62081,18.85407 -0.01977,24.95484zM213.33987,162.41807c0,0 -6.57702,7.63941 -5.5554,17.7035c0.90393,8.90473 3.3711,11.53362 4.65619,12.15458c1.32108,0.63428 3.28515,0.10574 3.28515,0.10574c0,0 -5.45575,3.2898 -10.26294,-0.49467c-3.21531,-2.52957 -6.74476,-5.82707 -8.22539,-15.5995M272.323,175.26438c0,0 1.00551,2.4344 -0.81988,7.74111c-2.05301,5.9785 -6.97072,8.06624 -6.97072,8.06624c0,0 3.66858,-9.23859 -0.30181,-17.51198c-1.73301,-3.6147 -6.59996,-6.10825 -11.62853,-7.78045c-6.81454,-2.2681 -13.92476,-3.02653 -13.92476,-3.02653M276.5094,192.65395c-0.3093,1.21456 -0.85444,2.80741 -1.81315,4.79574c-2.04011,4.25201 -8.51534,8.08179 -8.51534,8.08179c0,0 0.97426,-4.20532 0.24644,-9.88035M199.06231,183.44789c-0.61421,1.30915 -1.06508,2.70105 -1.27985,4.15653c-1.35237,9.07545 2.45592,18.77705 2.45592,18.77705c0,0 -6.23246,-3.4744 -9.23441,-9.03811c-2.66136,-4.93807 -2.79061,-7.81162 -2.79061,-7.81162M283.23342,183.73409c-2.52897,7.97412 -6.48828,12.7026 -6.48828,12.7026c0,0 0.42851,-7.96902 -3.54922,-16.2429c-0.17946,-0.37411 -0.37909,-0.73628 -0.58881,-1.08707M238.6782,162.75272c0,0 1.21136,0.24998 4.50038,2.58165c3.28912,2.33166 4.59993,5.00236 4.59993,5.00236c0,0 -9.43581,-1.93184 -14.68747,-3.49698c-5.24638,-1.56724 -22.86532,-5.32766 -22.86532,-5.32766M211.30493,201.67937c2.74157,3.82008 5.48441,5.8287 5.48441,5.8287c0,0 -6.06257,2.25331 -11.91142,-0.69329c-5.19301,-2.61873 -5.95798,-4.97457 -5.95798,-4.97457M266.53209,201.40679c-6.36417,5.48536 -14.2901,8.44108 -24.06661,9.59093c-11.65574,1.3708 -20.2998,0.13785 -27.7661,-2.32204M214.46259,208.16405c0.36211,2.52068 1.24952,3.78863 1.92164,4.34625c1.24793,1.03867 3.54471,1.17417 3.54471,1.17417c0,0 -6.92349,1.36447 -11.02081,-3.81018c-0.43543,-0.55006 -0.87562,-1.12068 -1.29728,-1.7311M239.36996,163.01539c0,0 25.6482,1.68983 26.4219,15.59412" fill="#be1e2d"/><path d="M271.1196,184.34416c-0.3937,10.0526 -11.30858,21.12522 -28.07673,23.0447c-14.80306,1.70277 -37.12283,-3.7544 -40.99183,-15.87526c-0.38519,-1.21838 -0.61965,-2.40268 -0.7293,-3.54706l0.33581,0.21758c1.21898,1.58753 2.53547,2.70802 3.80542,3.7049c4.80709,3.78267 10.26284,0.49287 10.26284,0.49287c0,0 -1.96397,0.53033 -3.28505,-0.10395c-1.28508,-0.62096 -3.75225,-3.24985 -4.65619,-12.15458c-1.02173,-10.06588 5.5554,-17.7035 5.5554,-17.7035l0.01136,-0.23329c5.30465,1.15647 15.875,3.49861 19.73792,4.65327c5.25172,1.56604 14.68747,3.49698 14.68747,3.49698c0,0 -1.31081,-2.6707 -4.59993,-5.00236c-1.64633,-1.16613 -2.77052,-1.81137 -3.48271,-2.16575l0.65285,0.06553c0,0 19.80327,1.81035 23.88546,10.3254c3.96954,8.27434 0.30271,17.51193 0.30271,17.51193c0,0 4.18741,-1.7793 6.44277,-6.74747z" fill="#e6e7e8"/></g><g stroke="#000000" stroke-width="0.90025" stroke-linecap="round" stroke-linejoin="miter"><path d="M276.78272,166.51248c0,0 8.6933,-10.47065 9.17983,-10.96933c0.48643,-0.49857 4.06508,-5.22376 14.79984,-7.18152c0,0 -5.81748,31.06621 -21.70559,38.69779c-0.00003,-0.0009 1.21734,-8.8739 -2.27407,-20.54693zM276.85464,166.75855c-0.26822,-0.96595 -1.0339,-2.66163 -1.0339,-2.66163M278.36839,189.44981c0,0 0.56647,-1.49961 0.68838,-2.39129" fill="#be1e2d"/><path d="M285.31532,181.98342c0,0 -1.6615,-1.18413 -1.99533,-5.26454c-0.21115,-2.53093 0.73572,-7.19443 0.73572,-7.19443l-0.08462,0.15075c0.67675,-0.84236 1.38721,-1.82373 2.02416,-2.89531c1.0795,-1.81273 2.32132,-4.51769 3.45308,-7.18085l0.17675,-0.36762c0,0 3.07119,-4.85917 9.76995,-5.70189l0.07888,0.03948c-1.24686,4.73567 -3.30831,11.68977 -5.6966,16.47555c-2.67886,5.36844 -5.86056,9.3118 -8.57723,12.03939zM281.3576,172.41357c0,0 2.27478,-2.38922 2.69812,-2.88912" fill="#929497"/></g><g stroke="#000000" stroke-width="0.90025" stroke-linecap="round" stroke-linejoin="miter"><path d="M190.09085,190.60386c-16.39616,-6.46607 -24.43875,-37.03191 -24.43875,-37.03191c10.84812,1.17949 14.75818,5.63432 15.27926,6.09562c0.52109,0.4614 9.94691,10.27883 9.94691,10.27883c-2.64146,11.89534 -0.78743,20.65746 -0.78743,20.65746zM191.66261,167.46869c0,0 -0.64141,1.74648 -0.83918,2.72925M190.09085,190.60386c0.18579,0.88057 0.85902,2.33543 0.85902,2.33543" fill="#be1e2d"/><path d="M183.60481,186.08522c-2.90631,-2.52549 -6.36318,-6.22918 -9.42315,-11.38955c-2.72807,-4.60107 -5.28461,-11.38846 -6.86981,-16.02188l0.07592,-0.04507c6.74302,0.35836 10.15567,4.98255 10.15567,4.98255l0.2028,0.35391c1.32075,2.57463 2.75449,5.183 3.96189,6.91316c0.71257,1.02286 1.49194,1.95044 2.22767,2.74182l-0.09527,-0.14426c0,0 1.28068,4.58308 1.25249,7.12265c-0.03863,4.09386 -1.61052,5.39472 -1.61052,5.39472zM183.84054,173.47591c0.45829,0.46807 2.89943,2.68704 2.89943,2.68704" fill="#929497"/></g><path d="M224.45162,182.69574v0v0v0v0v0c0.72754,0.16053 1.18501,0.87982 1.02259,1.60747c-0.16043,0.72934 -0.87613,1.18661 -1.60886,1.02998c-0.04204,-0.01028 -4.28774,-0.91459 -8.31029,0.50479c-0.12381,0.04294 -0.24776,0.06877 -0.37267,0.07572c-0.5842,0.03251 -1.14497,-0.32218 -1.34931,-0.90042c-0.12075,-0.33771 -0.09008,-0.69377 0.04807,-0.99901c-0.26492,-0.2071 -0.51985,-0.47956 -0.7072,-0.86414c-0.21951,-0.44579 -0.03504,-0.98618 0.41259,-1.20498c0.44355,-0.21307 0.98523,-0.0377 1.20594,0.41174c0.17497,0.35813 0.62843,0.43836 0.63392,0.43986c0.13385,0.0223 0.25317,0.07695 0.35731,0.15048c0.13154,-0.03526 0.26384,-0.07147 0.39378,-0.10123c-0.14999,-0.20078 -0.29149,-0.42737 -0.38488,-0.71071c-0.15436,-0.47376 0.10424,-0.9796 0.57794,-1.13486c0.47705,-0.15995 0.9815,0.10593 1.13486,0.57794c0.12285,0.37726 0.55045,0.52743 0.55415,0.52903c0.1988,0.05574 0.35008,0.18253 0.46422,0.33663c3.21127,-0.32922 5.78172,0.21931 5.92784,0.25174z" fill="#231f20" stroke="none" stroke-width="0.90025" stroke-linecap="butt" stroke-linejoin="miter"/><path d="M256.55544,179.79852v0v0v0v0v0c-0.11364,0.81057 -0.56784,1.31638 -0.94458,1.62679c0.1138,0.24706 0.18058,0.52197 0.12619,0.80984c-0.13866,0.73173 -0.82844,1.21741 -1.57736,1.0778c-2.83838,-0.53453 -6.47742,-0.58352 -7.16508,0.19949c-0.24844,0.28154 -0.5861,0.43564 -0.93576,0.45509c-0.34427,0.01916 -0.6922,-0.09228 -0.97004,-0.33733c-0.55929,-0.49189 -0.61395,-1.34447 -0.12047,-1.90575c1.3289,-1.50926 4.30345,-1.63782 6.69927,-1.45745c0.11037,-0.1062 0.28323,-0.32043 0.2855,-0.60369c-0.0022,-0.49484 0.36219,-0.92996 0.89558,-0.90365c0.49663,-0.0024 0.90025,0.3971 0.90365,0.89548c-0.00057,0.31382 -0.06314,0.58241 -0.14589,0.82859c0.11907,0.01771 0.23259,0.03303 0.33919,0.05153c0.08545,-0.14908 0.19522,-0.28228 0.36016,-0.36537c0.02436,-0.01578 0.41154,-0.23573 0.46741,-0.62473c0.07179,-0.49175 0.51851,-0.84211 1.0178,-0.76443c0.49175,0.07179 0.83342,0.52441 0.76443,1.0178z" fill="#231f20" stroke="none" stroke-width="0.90025" stroke-linecap="butt" stroke-linejoin="miter"/><path d="M257.1904,215.25699v0v0v0v0v0c0,0 1.46555,4.19866 -0.59036,5.49148c-0.87429,0.55869 -1.84499,0.48385 -2.8743,-0.05246c-0.30539,0.28651 -0.80201,0.63514 -1.43262,0.57163c-1.04211,-0.10493 -0.70904,-2.27299 -0.70904,-2.27299l0.01589,0.00864c-0.21509,-0.23125 -0.43337,-0.46678 -0.65519,-0.72636c-1.24197,-1.47858 -2.65335,-4.00644 -3.47864,-5.34463c0,0 -0.65002,-1.60149 0.23444,-2.58766c0.88354,-0.98656 3.06195,-0.66182 3.85325,-0.11251c0.79108,0.55009 4.70988,3.1271 5.63657,5.02486z" data-paper-data="{&quot;index&quot;:null}" fill="#be1e2d" stroke="#231f20" stroke-width="0.78673" stroke-linecap="round" stroke-linejoin="round"/><path d="M242.2569,191.32646c0.10002,2.75611 -2.58614,5.2846 -5.99969,5.64753c-3.41355,0.36293 -6.26186,-1.57712 -6.36188,-4.33323c-0.04812,-1.32597 2.80984,-1.71938 5.77737,-2.0852c3.20065,-0.39456 6.53231,-0.65925 6.58421,0.77089z" fill="#292929" stroke="#231f20" stroke-width="0.9" stroke-linecap="butt" stroke-linejoin="miter"/></g></g></svg>