<svg version="1.1" xmlns="http://www.w3.org/2000/svg" xmlns:xlink="http://www.w3.org/1999/xlink" width="42" height="38.24706" viewBox="0,0,42,38.24706"><g transform="translate(-219,-160.87647)"><g data-paper-data="{&quot;isPaintingLayer&quot;:true}" fill-rule="nonzero" stroke="#000000" stroke-width="2" stroke-linecap="butt" stroke-linejoin="miter" stroke-miterlimit="10" stroke-dasharray="" stroke-dashoffset="0" style="mix-blend-mode: normal"><path d="M220,195.19093c0,-7.01081 17.1108,-33.31446 20.05136,-33.31446c3.03009,0 19.94864,24.80774 19.94864,31.81503c0,2.69992 -16.11718,4.64547 -20.74339,4.41323c-4.32354,-0.21704 -19.25661,-0.49942 -19.25661,-2.9138z" fill="#ffda2e"/><path d="M238.69935,186.43097v-14.88516h2.74581v14.88516z" fill="#000000"/><path d="M238.55484,192.21161c0,-0.79814 0.64702,-1.44516 1.44516,-1.44516c0.79814,0 1.44516,0.64702 1.44516,1.44516c0,0.79814 -0.64702,1.44516 -1.44516,1.44516c-0.79814,0 -1.44516,-0.64702 -1.44516,-1.44516z" fill="#000000"/></g></g></svg>