<svg version="1.1" xmlns="http://www.w3.org/2000/svg" xmlns:xlink="http://www.w3.org/1999/xlink" width="230.97004" height="115.86315" viewBox="0,0,230.97004,115.86315"><defs><radialGradient cx="286.31344" cy="245.85656" r="32.56883" gradientUnits="userSpaceOnUse" id="color-1"><stop offset="0" stop-color="#0006ff"></stop><stop offset="1" stop-color="#00e4ff"></stop></radialGradient><radialGradient cx="228.17199" cy="278.79102" r="62.64859" gradientUnits="userSpaceOnUse" id="color-2"><stop offset="0" stop-color="#0006ff"></stop><stop offset="1" stop-color="#00e4ff"></stop></radialGradient><radialGradient cx="125.18702" cy="272.07531" r="9.88717" gradientUnits="userSpaceOnUse" id="color-3"><stop offset="0" stop-color="#0006ff"></stop><stop offset="1" stop-color="#00e4ff"></stop></radialGradient><radialGradient cx="308.50615" cy="277.72495" r="12.01308" gradientUnits="userSpaceOnUse" id="color-4"><stop offset="0" stop-color="#0006ff"></stop><stop offset="1" stop-color="#00e4ff"></stop></radialGradient></defs><g transform="translate(-114.39619,-183.04977)"><g data-paper-data="{&quot;isPaintingLayer&quot;:true}" fill-rule="nonzero" stroke="none" stroke-width="0.5" stroke-linecap="butt" stroke-linejoin="miter" stroke-miterlimit="10" stroke-dasharray="" stroke-dashoffset="0" style="mix-blend-mode: normal"><path d="M259.34561,200.32109l3.27429,-0.83986c15.49483,-1.77558 31.04012,-7.33851 45.96773,-11.35244c5.12322,-1.37759 13.9568,-5.35566 19.32317,-3.87193c0.16085,0.04448 0.31982,0.09267 0.47711,0.14423l0.01766,-0.05182l3.9266,1.01555c1.03347,0.25307 1.90291,0.94369 2.24309,1.90372c0.43398,1.22475 -0.1273,2.51023 -1.28319,3.19579l-2.89626,1.80556l-0.10153,-0.1236l-0.34912,0.35929c-2.59179,0.72054 -5.13521,1.58707 -7.60484,2.58127c-1.28471,0.51719 -3.26805,1.38736 -5.07182,2.04747c0.3537,0.10887 0.70866,0.2125 1.06926,0.27446c3.23898,0.5565 8.99914,0.99538 11.75016,2.47907c2.25678,1.21713 5.46391,2.57377 5.6594,4.87969c0.16069,1.89543 -3.16918,2.62781 -4.92758,3.75292c-3.95546,2.53092 -8.54197,4.29831 -12.96341,6.11856c-0.28659,0.11798 -0.56762,0.24779 -0.84526,0.38464c4.56475,-0.0832 9.12498,-0.43214 13.74988,-0.14367c0.80549,0.05024 7.89811,0.66791 8.77953,1.04574c0.10368,0.04444 0.20639,0.09032 0.30818,0.13751l0.01909,-0.04221l3.39766,1.16623c0.90461,0.30273 1.64645,0.95108 1.95444,1.82026c0.45912,1.2957 -0.19569,2.65938 -1.49001,3.30878l-3.99801,2.10843c-5.88754,3.0716 -12.70153,5.63506 -19.28224,7.37094c-0.12276,0.03238 -0.24675,0.06559 -0.37184,0.09925c2.85371,0.63841 5.46909,1.42502 8.54623,2.22202c1.93872,0.50214 4.16979,0.24271 5.93381,1.10469c0.13242,0.06471 0.26243,0.13231 0.39025,0.20257l0.02567,-0.04233l3.59538,1.65455c0.74017,0.34062 1.33118,0.92721 1.59758,1.67904c0.53281,1.50366 -0.43457,3.09889 -2.16069,3.56303l-3.29682,0.88649l-0.02698,-0.07615l-0.23409,0.1362c-3.71719,0.40979 -6.60642,1.78295 -10.17885,2.74718c-6.45984,1.74359 -13.47867,3.62048 -19.50298,6.25422c-3.37109,1.4738 -6.40253,3.55536 -9.99517,4.81303c-5.75076,2.01315 -12.15162,3.78002 -18.41367,5.01334c-3.41628,11.64466 -12.44893,22.49088 -22.39488,29.87071c-15.15839,10.06243 -37.50904,8.65402 -52.85431,-0.35614c-10.23696,-6.01073 -18.28822,-15.93039 -25.32031,-25.19177c-5.83027,-2.25969 -9.42805,-6.15796 -14.68032,-9.26578c-18.85896,-14.67015 -21.76944,-43.01197 -4.41552,-59.717c4.86045,-4.67872 12.25957,-6.838 18.93875,-8.61613c14.9495,-0.70936 29.94517,-6.33326 45.09462,-5.67317c14.4667,0.63034 28.39407,8.08457 37.90673,17.50463c0.3988,-0.20249 0.71344,-0.2871 0.71344,-0.2871zM266.52463,260.71688c-0.51303,-2.81411 2.71741,-3.26104 2.71741,-3.26104c0.53869,-0.0735 1.07476,-0.15243 1.60835,-0.23654c0.32183,-1.85025 0.46464,-3.70905 0.4024,-5.56138c-0.18277,-5.43939 -1.33426,-11.22216 -2.17206,-16.6162c-1.15514,-7.43711 -2.69855,-16.16815 -7.53696,-22.61202c-1.53369,-2.0426 -3.64957,-3.70428 -5.4633,-5.56461c-8.32593,-9.39535 -21.73916,-17.4795 -35.70409,-18.07088c-14.6005,-0.61829 -29.16085,4.90747 -43.59426,5.59235c-5.23828,1.42645 -11.49154,3.14524 -15.29096,6.87913c-14.57658,14.32516 -12.44381,38.72692 3.64712,51.35558c2.44646,1.44758 4.49489,3.14815 6.6262,4.72574c0.19516,-0.18078 0.43372,-0.35626 0.72322,-0.52265c2.73028,-1.56912 4.53154,0.80928 4.53154,0.80928c0.92758,1.22479 1.85993,2.43569 2.80045,3.63338c0.6691,0.25912 1.30694,0.77809 1.65826,1.76956c0.05959,0.16818 0.10358,0.32918 0.13366,0.48325c5.19095,6.44012 10.68856,12.50114 17.04472,18.29613c3.36045,3.06377 6.647,6.00888 11.24304,7.72551c3.87822,1.44851 8.12857,1.9771 12.18013,3.00426c5.20254,1.31897 10.49857,0.97476 15.62941,-0.42771c4.3575,-1.19109 8.50678,-2.11835 12.13163,-4.61962c8.13114,-6.00115 15.86228,-14.8699 19.40516,-24.41824c-0.99323,-0.11081 -2.39748,-0.58857 -2.72103,-2.36326zM322.33979,240.52696c1.33785,-0.35828 2.58729,-0.76486 3.81918,-1.16159c-1.17662,-0.44318 -2.35782,-0.93164 -3.67447,-1.32802c-1.96108,-0.59037 -6.35052,-1.11128 -7.93124,-1.3392l-0.08389,-0.03549l-0.00496,0.01933l-4.46275,-0.86833c-1.13356,-0.20144 -2.1091,-0.92164 -2.47438,-1.95251c-0.4057,-1.14496 0.0584,-2.34302 1.06498,-3.05437l3.28002,-2.42768l0.03886,0.03985c0.16234,-0.12752 0.3306,-0.24993 0.50558,-0.36646c0.96245,-0.64094 8.43397,-2.128 10.22239,-2.79758c3.52205,-1.31865 7.22973,-2.64578 10.68391,-4.21967c-1.0351,-0.19034 -2.08596,-0.41158 -3.06815,-0.47356c-7.21483,-0.45527 -14.22341,0.52983 -21.40797,-0.12813l-0.19867,-0.10419l-0.0182,0.06449l-3.19795,-0.68476c-1.10293,-0.21852 -2.0453,-0.92994 -2.40288,-1.93908c-0.46751,-1.31939 0.21999,-2.70928 1.56162,-3.34369l4.55004,-2.25926l0.00412,0.00629c0.01708,-0.0111 0.03419,-0.02218 0.05133,-0.03322c4.89716,-3.15825 6.03795,-2.12119 10.99726,-4.52293c1.55832,-0.75468 2.83209,-1.89538 4.34382,-2.71883c0.18685,-0.10178 0.37326,-0.20968 0.56041,-0.31904c-1.02195,-0.30096 -2.03084,-0.6601 -3.07848,-0.87021c-2.16892,-0.435 -13.47684,-1.38053 -14.3322,-3.49032c-0.87586,-2.16035 0.94236,-4.71332 2.60643,-6.48754c0.04263,-0.04546 0.08645,-0.08958 0.1314,-0.13244c-15.29543,4.1179 -31.06976,9.62231 -46.92945,11.52989l-0.40995,0.11772c1.67952,1.72219 3.85353,3.95742 3.95592,4.09463c5.36885,7.19409 7.23108,16.6251 8.52202,24.93654c0.87251,5.61747 2.09072,11.69673 2.2311,17.36058c0.03497,1.41078 -0.02873,2.82139 -0.18318,4.22734c15.52415,-3.74165 29.27491,-11.19997 44.72839,-15.33856z" fill="#000000"></path><path d="M277.57844,255.91476c0.15446,-1.40593 0.21497,-2.81827 0.18001,-4.22905c-0.14037,-5.66385 -1.37977,-11.76315 -2.25228,-17.38061c-1.29094,-8.31143 -3.15519,-17.79395 -8.52402,-24.98803c-0.1024,-0.1372 -2.27459,-2.3756 -3.9541,-4.09779l0.41018,-0.1181c15.85969,-1.90757 31.71107,-7.43875 47.00649,-11.55665c-0.04494,0.04286 -0.12814,0.19568 -0.17078,0.24113c-1.66407,1.77423 -3.44365,4.21831 -2.56778,6.37866c0.85536,2.10979 12.19096,3.06994 14.35988,3.50495c1.04764,0.21012 2.06038,0.573 3.08233,0.87395c-0.18713,0.10936 -0.47456,0.28971 -0.66143,0.39148c-1.51173,0.82344 -2.78494,1.96474 -4.34326,2.71941c-4.95931,2.40174 -6.09026,1.37286 -10.98743,4.53112c-0.01713,0.01105 -0.03419,0.02216 -0.05127,0.03327l-0.0041,-0.00628l-4.53941,2.26509c-1.34164,0.6344 -1.96753,1.92379 -1.50001,3.24318c0.35757,1.00913 1.3237,1.74072 2.42663,1.95924l3.2047,0.69814l0.01807,-0.06486l0.19901,0.1052c7.18455,0.65797 14.19537,-0.31616 21.4102,0.13911c0.98219,0.06198 2.03314,0.28454 3.06825,0.47488c-3.45418,1.57389 -7.16231,2.9116 -10.68438,4.23026c-1.78839,0.66958 -9.26617,2.17449 -10.22862,2.81541c-0.17499,0.11653 -0.34456,0.24114 -0.50691,0.36867l-0.03882,-0.03992l-3.2928,2.44198c-1.00659,0.71135 -1.4818,1.91666 -1.07609,3.06162c0.36528,1.03087 1.27096,1.65476 2.40452,1.85619l4.45526,0.87342l0.00491,-0.0193l0.08382,0.03555c1.58073,0.22792 5.96265,0.75588 7.92373,1.34626c1.31665,0.39637 2.60224,0.95353 3.77885,1.39671c-1.23189,0.39673 -2.48586,0.80812 -3.82372,1.16642c-15.45347,4.13858 -29.2855,11.60769 -44.80964,15.34934z" data-paper-data="{&quot;noHover&quot;:false,&quot;origItem&quot;:[&quot;Path&quot;,{&quot;applyMatrix&quot;:true,&quot;segments&quot;:[[[220.06408,235.46885],[0.01404,-12.35677],[-0.00122,1.06976]],[[220.17695,238.55861],[-0.05489,-1.00232],[0.63678,-0.74461]],[[222.11861,236.21877],[-0.62911,0.85899],[0.93702,-1.27942]],[[225.02925,230.77307],[-0.54741,1.09544],[0,0]],[225.07791,230.72099],[225.06282,230.71237],[[226.79681,227.67789],[0,0],[0.42441,-0.77572]],[[228.9915,226.3761],[-0.94657,0],[1.05134,0]],[[231.31206,227.94426],[-0.36945,-0.9192],[0,0]],[232.60791,230.96792],[[232.56574,230.98599],[0,0],[0.07032,0.15156]],[[232.75899,231.45005],[-0.05825,-0.15795],[0.32037,0.86874]],[[232.79994,239.63949],[-0.15819,-1.47935],[0.31153,2.91342]],[[233.92907,248.53399],[-0.54081,-2.9299],[0.39291,-0.70669]],[[235.01772,246.41584],[-0.27337,0.70126],[2.00809,-5.15124]],[[239.95107,230.81459],[-2.1712,5.07667],[0,0]],[240.0832,230.69645],[240.03325,230.66648],[[241.32822,228.50819],[0,0],[0.43183,-0.74893]],[[243.49553,227.25514],[-0.92661,0],[1.2115,0]],[[245.94668,229.26088],[-0.22941,-1.14398],[0,0]],[246.81503,233.16846],[[246.80881,233.16984],[0,0],[0.00546,0.01535]],[[246.82509,233.21592],[-0.0054,-0.01537],[1.54377,4.39372]],[[248.13782,242.41774],[-0.89554,-4.24334],[0.2814,1.33335]],[[249.43794,246.29364],[-0.34955,-1.31712],[0.04321,0.1628]],[[249.57908,246.78547],[-0.0495,-0.16496],[0.48268,-0.66846]],[[251.00261,244.76242],[-0.41232,0.71072],[0.85362,-1.47141]],[[257.15959,235.19871],[-1.96157,0.07871],[2.00858,-0.0806]],[[262.01088,238.78104],[-1.1123,-1.67442],[0.0285,0.04289]],[[262.09229,238.91127],[-0.0258,-0.04391],[-0.00425,-12.236]],[[263.00535,201.65462],[-1.97598,12.0761],[0,0]],[[262.99907,201.32477],[0,0],[-1.82241,0.7809]],[[258.67456,203.15422],[0.13811,-0.03928],[-7.24146,2.05925]],[[235.84787,202.92492],[7.25892,1.20803],[-4.90611,-0.81647]],[[220.79064,200.06178],[4.77995,1.36316],[-1.19062,-0.33954]],[[217.28794,198.83406],[1.14385,0.47663],[-0.36274,12.30567]]],&quot;closed&quot;:true}]}" fill="url(#color-1)"></path><path d="M269.30522,263.1037c-3.5429,9.54833 -11.29714,18.44087 -19.42828,24.44202c-3.62484,2.50127 -7.78619,3.43409 -12.14369,4.62519c-5.13084,1.40247 -10.44266,1.7503 -15.64521,0.43134c-4.05155,-1.02716 -8.31568,-1.55544 -12.19389,-3.00396c-4.59605,-1.71661 -7.89829,-4.66454 -11.25874,-7.7283c-6.35617,-5.795 -11.88454,-11.87501 -17.07548,-18.31513c-0.03008,-0.15407 -0.07457,-0.31563 -0.13416,-0.48381c-0.35131,-0.99146 -0.99156,-1.51338 -1.66066,-1.77251c-0.9405,-1.1977 -1.87681,-2.41455 -2.8044,-3.63934c0,0 -1.803,-2.38167 -4.53327,-0.81254c-0.28951,0.16639 -0.52792,0.34217 -0.72307,0.52295c-2.13131,-1.57759 -4.18294,-3.28624 -6.62941,-4.73384c-16.09092,-12.62867 -18.20973,-37.08238 -3.63316,-51.40753c3.79942,-3.73388 10.06464,-5.46201 15.30292,-6.88848c14.43342,-0.68488 29.03768,-6.22054 43.63818,-5.60225c13.96493,0.59136 27.41908,8.69304 35.745,18.08838c1.81374,1.86033 3.93565,3.52842 5.46935,5.57104c4.8384,6.44387 6.39316,15.2002 7.54829,22.6373c0.83781,5.39404 1.98851,11.19586 2.17127,16.63526c0.06224,1.85234 -0.08234,3.71702 -0.40418,5.56727c-0.53358,0.08411 -1.06991,0.16375 -1.6086,0.23724c0,0 -3.23225,0.45106 -2.71922,3.26518c0.32355,1.77469 1.72718,2.25369 2.7204,2.3645z" data-paper-data="{&quot;noHover&quot;:false,&quot;origItem&quot;:[&quot;Path&quot;,{&quot;applyMatrix&quot;:true,&quot;segments&quot;:[[[215.72005,189.48188],[-1.56075,-0.22296],[2.47487,0.35356]],[[217.84137,192.3103],[0,0],[-0.05982,0.41243]],[[217.67712,193.5461],[0.04977,-0.41144],[1.47861,0.71383]],[[222.24881,195.27914],[-1.56694,-0.43389],[4.60133,1.27411]],[[236.66868,197.99275],[-4.71097,-0.784],[6.49532,1.08095]],[[257.32455,198.33992],[-6.49294,1.866],[2.05815,-0.59149]],[[263.22123,195.79002],[-1.96848,0.84318],[9.7535,-3.64919]],[[286.41965,174.39136],[-3.64384,10.04567],[3.80969,-10.50287]],[[291.55861,141.10694],[-2.67951,10.71807],[-0.01502,-4.19469]],[[289.23847,128.15965],[2.27382,3.74099],[-8.72357,-14.35242]],[[245.36225,117.53352],[14.21459,-8.48332],[-1.76508,1.41207]],[[239.90669,121.14978],[1.80303,-1.14827],[0.10756,0.18931]],[[240.18182,121.8132],[-0.07423,-0.25449],[0.7,2.4]],[[238.48182,124.9132],[0,0],[-1.23591,0.36047]],[[234.80447,126.01815],[1.21611,-0.37692],[-0.36807,0.42159]],[[232.94714,126.77127],[0.91039,0],[-0.15443,0]],[[232.51188,126.74383],[0.13594,0.0179],[-6.56927,2.12444]],[[213.33094,134.45711],[6.2911,-3.14235],[-3.32605,1.66133]],[[204.31977,140.66881],[2.4752,-2.91231],[-2.08862,2.45745]],[[199.0554,148.78662],[1.77445,-2.69308],[-2.27855,3.45814]],[[195.89069,160.31159],[-0.01914,-4.11002],[0.01626,3.49054]],[[197.02877,170.36687],[-1.27981,-3.29452],[3.1981,7.4912]],[[213.12541,190.85751],[-7.2062,-5.0583],[0.3168,-0.69669]]],&quot;closed&quot;:true}]}" fill="url(#color-2)"></path><path d="M124.87047,269.27649c-0.01303,-0.01514 -0.02585,-0.03025 -0.03849,-0.04534c-2.0129,1.44885 -4.18551,3.58302 -3.88606,4.92518c0.61533,2.75798 6.84973,5.73351 9.94049,6.12709c1.94841,0.2481 4.16507,0.6416 5.90441,-0.16255c2.32476,-1.07481 4.72783,-8.20246 3.40157,-10.11019c-0.59626,-0.85767 -3.25065,-1.41173 -4.02831,-1.63499c-1.95552,0.01993 -3.91101,0.2131 -5.83893,0.49897l-0.87539,0.97171c0,0 -2.61674,1.70963 -4.5793,-0.56988zM132.06362,262.93817c1.71071,-0.14198 3.43248,-0.19862 5.14835,-0.18766c3.34686,0.97771 6.56367,1.37733 8.6228,4.3763c3.21411,4.68109 -0.37311,15.33348 -5.79924,17.94246c-1.74338,0.83825 -8.12965,1.12534 -10.19701,0.83934c-5.89193,-0.81512 -14.37477,-5.4413 -15.36174,-10.90488c-0.88958,-4.92448 5.7717,-11.05827 10.77762,-12.63031c1.42263,-0.44676 3.02201,-0.10708 4.53301,-0.16063c0,0 1.31388,0 2.2762,0.72539z" fill="#000000"></path><path d="M129.43432,269.79098l0.88658,-0.9732c1.92791,-0.28588 3.92764,-0.46726 5.88316,-0.4872c0.77767,0.22328 3.44952,0.79519 4.04579,1.65286c1.32627,1.90772 -1.0896,9.10425 -3.41435,10.17905c-1.73934,0.80415 -3.99929,0.42601 -5.9477,0.17789c-3.09075,-0.39356 -9.39193,-3.42829 -10.00726,-6.18627c-0.29945,-1.34215 1.89274,-3.51482 3.90565,-4.96367c0.01264,0.01509 0.02541,0.03025 0.03844,0.04539c1.96256,2.2795 4.60968,0.55517 4.60968,0.55517z" data-paper-data="{&quot;noHover&quot;:false,&quot;origItem&quot;:[&quot;Path&quot;,{&quot;applyMatrix&quot;:true,&quot;segments&quot;:[[[177.32617,205.32369],[1.5,2],[-0.00996,-0.01328]],[[177.29675,205.28391],[0.00966,0.01324],[-1.53848,1.2712]],[[174.32661,209.60517],[-0.22887,-1.17758],[0.4703,2.4198]],[[181.92421,214.98097],[-2.36229,-0.34531],[1.48919,0.21768]],[[186.437,214.83835],[-1.32939,0.70555],[1.77683,-0.94302]],[[189.03685,205.96785],[1.01368,1.6738],[-0.45573,-0.75251]],[[185.95798,204.53334],[0.59438,0.1959],[-1.49462,0.01749]],[[181.49524,204.97112],[1.47352,-0.25082],[0,0]],[180.82617,205.82369]],&quot;closed&quot;:true}]}" fill="url(#color-3)"></path><path d="M305.35335,273.97975c-0.38636,1.23747 -0.46452,2.77237 -0.47688,4.24613c-0.0137,1.63497 -0.55331,2.74061 0.85417,4.07527c1.85829,1.76215 6.4723,1.80665 8.99783,2.12207c2.19188,0.27374 7.64317,1.3029 9.94649,0.63176c3.68855,-1.07476 4.51441,-6.40393 3.7067,-9.05369c-6.92309,-2.87449 -13.35513,-3.94296 -21.02562,-3.94296l1.77551,0.42866c0,0 -1.25941,2.19419 -3.77821,1.49275zM313.11561,266.54745c7.29517,0.51057 13.86499,2.14421 20.36897,5.88798c2.54243,6.24238 2.11052,15.12054 -6.64422,17.99708c-3.24991,1.06781 -9.79043,0.0349 -13.05553,-0.37012c-4.14587,-0.51428 -9.86882,-0.92486 -12.8541,-3.88922c-4.66563,-4.6329 -3.91733,-15.72735 2.25425,-19.3015c4.40265,-2.54971 5.53469,-1.45931 9.80583,-0.36587c0,0 0.04595,0.01335 0.12481,0.04165z" fill="#000000"></path><path d="M309.0838,272.44807l-1.77856,-0.42562c7.67049,0 14.21663,1.08989 21.13971,3.96439c0.80772,2.64976 -0.0333,8.032 -3.72185,9.10676c-2.30332,0.67113 -7.82155,-0.34204 -10.01344,-0.6158c-2.52554,-0.31543 -7.18186,-0.39428 -9.04016,-2.15642c-1.40748,-1.33467 -0.87208,-2.46297 -0.85837,-4.09794c0.01235,-1.47377 0.09677,-3.03061 0.48312,-4.2681c2.5188,0.70145 3.78956,-1.50728 3.78956,-1.50728z" data-paper-data="{&quot;noHover&quot;:false,&quot;origItem&quot;:[&quot;Path&quot;,{&quot;applyMatrix&quot;:true,&quot;segments&quot;:[[[285.03743,207.56997],[1.92514,0.61544],[-0.2953,1.08573]],[[284.67295,211.29546],[0.00944,-1.29306],[-0.01047,1.43449]],[[285.3258,214.87103],[-1.07575,-1.17101],[1.42031,1.54608]],[[292.20292,216.7329],[-1.93029,-0.27675],[1.67527,0.24018]],[[299.80511,217.2872],[-1.76045,0.58884],[2.81919,-0.94297]],[[302.63817,209.34365],[0.61735,2.32485],[-5.29138,-2.52203]],[[286.56811,205.88417],[5.86262,0],[0,0]],[287.92515,206.26027]],&quot;closed&quot;:true}]}" fill="url(#color-4)"></path><path d="M183.78885,206.90398c0.33306,2.83457 -2.92087,3.12471 -2.92087,3.12471l-1.78458,-0.02706c-7.60745,3.29535 -15.29838,7.68577 -18.22012,15.13087c-0.97798,2.49206 -0.30827,5.26047 -0.45731,7.89093c0,0 -0.16144,2.84591 -3.42838,2.70528c-3.26694,-0.14063 -3.10551,-2.98654 -3.10551,-2.98654c0.17432,-3.06949 -0.39548,-6.28025 0.70891,-9.19904c3.43483,-9.07785 12.31335,-14.56782 21.57156,-18.63635l4.04933,-0.54723c0,0 3.25393,-0.29014 3.58699,2.54444z" fill="#d3faff"></path><path d="M214.97775,241.56922c-2.45145,0.4271 -2.94174,-1.70841 -2.94174,-1.70841l-0.38263,-1.71568c-2.42495,-7.06256 -3.18205,-13.58415 -3.18205,-20.91804c0,0 0,-2.17781 2.5,-2.17781c2.5,0 2.5,2.17781 2.5,2.17781c0,6.91376 0.67016,13.00607 2.97118,19.66648l0.4964,2.11305c0,0 0.49029,2.13552 -1.96116,2.56262z" fill="#000000"></path><path d="M226.84336,242.22149c-2.32119,0.80882 -3.24967,-1.21323 -3.24967,-1.21323l-0.96165,-2.12489c-0.52708,-1.64949 -0.43201,-3.41412 -0.90834,-5.07528c-0.21386,-0.74579 -0.93242,-1.31838 -1.23014,-2.04201c-1.97348,-4.7968 -3.25792,-10.36803 -4.08581,-15.37963c0,0 -0.35355,-2.15592 2.12132,-2.46391c2.47487,-0.30799 2.82843,1.84793 2.82843,1.84793c0.76624,4.7099 1.98212,9.97278 3.82548,14.48445c0.3633,0.88918 1.14402,1.63685 1.40696,2.55246c0.45831,1.5959 0.31556,3.30151 0.84972,4.87942l0.79641,1.70384c0,0 0.92848,2.02204 -1.39272,2.83086z" fill="#000000"></path><path d="M202.45467,243.03297c-0.00004,-0.08893 -0.00042,-0.17848 -0.00126,-0.26871c0,0 0,-2.22834 2.55801,-2.22834c2.55801,0 2.55801,2.22834 2.55801,2.22834c-0.01455,1.20142 -0.24455,2.90408 0.57943,4.01366c2.26479,3.04975 8.95924,7.51153 13.5547,6.41983c2.8346,-0.67339 0.56142,-4.50218 5.79633,-3.22454c6.46682,1.5783 1.88165,8.63845 0.80616,11.43517c-0.94831,2.46601 -1.398,4.6122 -3.28983,6.62438c-4.25002,4.52041 -10.52195,6.16881 -16.91083,6.68972c-1.73601,-0.81711 -3.70358,-1.33909 -5.20803,-2.45132c-4.38166,-3.23932 -4.92186,-7.04557 -5.75162,-11.62124c-0.38199,-2.10643 -0.92245,-4.7121 -0.51151,-6.8483c0.67521,-3.51001 2.54627,-5.8563 4.29037,-8.89986l1.05899,-1.41478c0,0 0.16653,-0.2176 0.47107,-0.45402z" fill="#000000"></path></g></g></svg>