<svg version="1.1" xmlns="http://www.w3.org/2000/svg" xmlns:xlink="http://www.w3.org/1999/xlink" width="121.01713" height="149.05665" viewBox="0,0,121.01713,149.05665"><defs><radialGradient cx="279.9792" cy="193.956" r="31.25676" gradientUnits="userSpaceOnUse" id="color-1"><stop offset="0" stop-color="#001026" stop-opacity="0.70588"/><stop offset="1" stop-color="#001026" stop-opacity="0.87843"/></radialGradient></defs><g transform="translate(-199.90398,-115.57696)"><g data-paper-data="{&quot;isPaintingLayer&quot;:true}" fill-rule="nonzero" stroke-width="2" stroke-linejoin="miter" stroke-miterlimit="10" stroke-dasharray="" stroke-dashoffset="0" style="mix-blend-mode: normal"><g stroke-linecap="round"><path d="M251.46547,217.48c0,0 -11.87606,22.83963 -25.85972,26.74976c-12.6761,3.54451 -22.50835,-4.75908 -24.37008,-16.13908c-2.41027,-14.73304 8.90592,-23.0259 14.86152,-15.81475c5.96275,7.21979 4.28121,18.38489 10.72005,19.3323c6.43886,0.94741 24.64821,-14.12822 24.64821,-14.12822z" fill="#6b542b" stroke="none"/><path d="M216.9361,230.24171c-3.15166,2.03452 -8.58471,9.24676 -2.01122,12.28499c7.07282,3.26902 17.92856,-0.32352 10.68089,1.70307c-12.6761,3.54451 -22.50834,-4.75908 -24.37007,-16.13908c-2.41027,-14.73304 8.90592,-23.0259 14.86152,-15.81475c5.96275,7.21979 2.75993,16.91812 9.1988,17.86553c3.03126,0.44602 1.39579,2.34765 -0.03095,1.29245c-1.60387,-1.18619 -4.11723,-3.91106 -8.32896,-1.19222z" fill="#dac3a1" stroke="none"/><path d="M251.46547,217.48c0,0 -11.87604,22.83963 -25.85972,26.74976c-12.6761,3.54451 -22.50835,-4.75908 -24.37008,-16.13908c-2.41027,-14.73304 8.90592,-23.0259 14.86153,-15.81475c5.96275,7.21979 4.36267,18.03176 10.80153,18.97917c6.43886,0.94741 24.56674,-13.7751 24.56674,-13.7751z" fill="none" stroke="#001026"/></g><g stroke="#001026"><g><path d="M302.19672,211.63548c-3.27229,3.26472 -8.84536,2.98417 -12.44781,-0.62664c-3.60245,-3.6108 -3.8701,-9.18452 -0.59782,-12.44924c3.27229,-3.26472 8.84537,-2.98416 12.44782,0.62664c3.60245,3.6108 3.87009,9.18451 0.59781,12.44923z" fill="#475362" stroke-linecap="butt"/><path d="M288.52934,206.78989c0,0 1.70503,-7.36329 8.31084,-10.1941" fill="none" stroke-linecap="round"/><path d="M290.29279,211.28157c0,0 4.5091,-6.57201 11.16991,-11.95944" fill="none" stroke-linecap="round"/><path d="M304.17803,204.22307c-4.20815,6.6333 -9.39702,8.28814 -9.39702,8.28814" fill="none" stroke-linecap="round"/><path d="M289.73672,200.20279c0,0 8.94552,1.80068 11.45565,11.68212" fill="none" stroke-linecap="round"/><path d="M291.81599,197.42681c0,0 9.63951,1.37928 11.45565,11.68212" fill="none" stroke-linecap="round"/><path d="M286.33215,203.05589c0,0 7.55938,0.86313 10.7765,10.72899" fill="none" stroke-linecap="round"/></g><path d="M257.92536,192.05041c3.09274,-0.6764 4.57016,4.68272 6.83744,8.54318c2.26728,3.86046 3.97418,9.56694 3.97418,9.56694c0,0 5.47733,-1.66556 7.79539,-4.31064c2.57875,-2.94253 5.8505,-0.54975 8.70719,-1.26259c5.27354,-1.31592 3.91138,5.54038 3.91138,5.54038c0,0 -0.62256,2.27494 -0.99369,2.74444c-0.62775,0.79414 -2.42652,1.58228 -2.42652,1.58228c0,0 2.55608,-1.04059 3.38252,-1.66955c0.35285,-0.26854 1.51588,-2.05838 1.51588,-2.05838c0,0 2.85911,-1.16547 4.09469,1.32163c1.23559,2.4871 3.18689,4.66435 1.03596,6.77045c-0.93289,0.91345 -4.29314,3.39338 -6.35097,5.52482c-2.68683,2.78295 -4.51826,5.13155 -9.68756,4.24556c-4.85157,-0.83154 -7.9024,-3.00793 -7.9024,-3.00793c0,0 -9.64693,-5.4858 -10.30535,-8.53651c-1.49164,-6.91141 -1.21755,-7.71095 -4.63997,-17.66789" fill="#422b16" stroke-linecap="round"/></g><path d="M260.18458,205.11541c16.25701,5.42758 13.13076,25.66579 13.13076,25.66579c0,0 6.2709,-0.84583 11.88587,1.23425c7.4379,2.75539 3.67662,11.17372 -8.45047,11.03403c-10.60682,-0.12219 -19.8806,0.87625 -17.70633,-13.41405c1.97965,-13.01125 -5.9726,-12.57733 -5.9726,-12.57733" fill="#422b16" stroke="#001026" stroke-linecap="round"/><g><g><path d="M260.48138,203.35858c0,0 2.19633,2.44168 2.93723,7.58786c-0.017,7.67926 -13.49511,12.46064 -20.15267,3.26359c-6.65756,-9.19706 -1.04847,-20.72118 4.32425,-24.15057c5.37272,-3.4294 13.19807,0.65559 13.5439,4.48744c0.36786,4.07594 -0.65272,8.81169 -0.65272,8.81169z" fill="#6b542b" stroke="none" stroke-linecap="round"/><path d="M259.65199,203.733c-0.04778,0.63319 -0.07849,0.7805 -0.07849,0.7805c0,0 0.66586,1.274 1.48125,2.196c3.35598,3.79476 -3.9178,9.75149 -9.23537,7.63016c-4.01793,-1.60287 -6.40489,-6.38379 -5.71129,-11.0962c0.98605,-6.69935 14.52298,-12.48481 13.5439,0.48954z" fill="#dac3a1" stroke="none" stroke-linecap="butt"/><path d="M259.99184,204.33767c0,0 2.83827,1.57366 2.93723,6.77195c0.14618,7.67926 -12.61095,12.28859 -19.49996,3.26359c-5.68129,-7.4428 -1.68997,-22.03036 4.0091,-23.82795c6.0787,-1.91735 13.02368,2.12794 13.36951,5.95979c0.36786,4.07594 -0.8159,7.83261 -0.8159,7.83261z" fill="none" stroke="#001026" stroke-linecap="round"/></g><path d="M255.65494,183.29993c0,0.95484 1.81829,3.69928 2.44165,4.22298c0.0371,0.03117 0.07383,0.06289 0.1102,0.09516c0.29987,0.38859 0.61112,0.73418 0.91707,1.00807c0.81575,1.0801 1.42279,2.3971 1.9826,3.51671c0.12095,0.24189 0.22087,0.8187 0.33528,0.9951c1.64075,2.52982 -0.85095,-0.17417 -2.09949,-1.10933l0.07971,-0.15943l-0.32269,-0.16134c-0.02835,-0.01492 -0.06064,-0.02337 -0.0949,-0.02337c-0.11265,0 -0.20397,0.09132 -0.20397,0.20398c0,0.03423 0.00844,0.06651 0.02335,0.09484l0.16783,0.33589c0.20755,0.42261 0.37803,1.19621 0.64728,1.84956c-0.18103,-0.16388 -0.36298,-0.3262 -0.55257,-0.47984l0.02443,-0.02443l-0.28847,-0.28847c-0.0369,-0.03692 -0.0879,-0.05974 -0.14423,-0.05974c-0.11266,0 -0.20398,0.09132 -0.20398,0.20398v0v0.32636h0.00013l-0.00013,0.00051c0.00144,0.26365 -0.00032,0.93453 0.04472,1.56628c-0.46679,-1.11966 -0.90547,-2.28926 -1.64236,-3.27685l0.02589,-0.01295l-0.1612,-0.3224c-0.0327,-0.06899 -0.10298,-0.11671 -0.18441,-0.11671c-0.11266,0 -0.20398,0.09132 -0.20398,0.20398v0v0.32636h0.01789l-0.01243,0.04686c0.22195,0.44391 0.13449,0.90045 0.15765,1.37026c-0.01391,-0.03026 -0.02715,-0.06029 -0.03977,-0.09008c-0.12053,-0.51579 -0.25517,-0.95488 -0.38378,-1.24241l-0.00579,-0.00145l0.00409,-0.00204l-0.00451,-0.00903l0.00033,-0.00017l-0.1612,-0.32241c-0.0327,-0.06899 -0.10299,-0.11671 -0.18442,-0.11671c-0.11265,0 -0.20397,0.09132 -0.20397,0.20398c0,0.03418 0.00841,0.06641 0.02328,0.09471l0.16417,0.32918c0.01872,0.04098 0.0364,0.08264 0.05309,0.12493c0.01672,0.24594 0.10402,0.53981 0.20329,0.8036c0.12304,0.84501 0.04876,1.8136 0.08936,2.6989c-0.78952,-1.78891 -1.96129,-3.75714 -3.34518,-4.85109l0.02652,-0.02842l-0.29787,-0.27798c-0.03648,-0.03423 -0.08556,-0.0552 -0.13954,-0.0552c-0.11236,0 -0.20348,0.09084 -0.20397,0.20308l-0.00204,0.40661c-0.03617,1.73812 -0.1868,1.13692 -0.89723,0.30891l0.03074,-0.02049l-0.22453,-0.33681c-0.03633,-0.05624 -0.09955,-0.09346 -0.17148,-0.09346c-0.11266,0 -0.20398,0.09132 -0.20398,0.20398c0,0 0,0.20564 0,0.29045c-0.1989,0.4099 -0.47757,2.12458 -0.8309,2.27908c-0.09207,0.04026 -0.40296,-1.12607 -0.43296,-1.2119c-0.13796,-0.39486 -0.35682,-0.77248 -0.61837,-1.10833l0.03452,-0.02301l-0.22454,-0.33681c-0.03632,-0.05624 -0.09954,-0.09346 -0.17147,-0.09346c-0.02321,0 -0.04552,0.00388 -0.0663,0.01102c0.17023,-0.72912 0.35728,-1.54488 0.23982,-1.70926c-0.27707,-0.38773 -0.99159,0.12517 -1.24374,0.25112c-0.6799,0.3396 -1.51545,0.4864 -2.21086,0.80541c0.40363,-0.53636 0.84211,-1.15391 0.87135,-1.55707c0.0061,-0.01073 0.01227,-0.0214 0.01853,-0.03207c0.05252,0.02792 0.10669,0.02792 0.10669,0.02792h0.32636c0.62973,0 -0.62748,-0.29146 -0.02715,-0.33235c1.99414,-0.90084 1.25361,-4.88883 2.22848,-5.54844c1.38196,-0.32952 5.37888,-2.87209 5.31374,-2.40349z" fill="#001026" stroke="none" stroke-linecap="butt"/></g><path d="M254.46731,218.51882c3.08101,13.27075 -8.96542,22.12866 -8.96542,22.12866c0,0 1.97541,2.11885 7.41099,9.13806c7.76035,10.02131 -4.70831,16.00622 -14.41008,13.12255c-5.12557,-1.52348 -7.14712,-6.4804 -8.15263,-8.39497c-2.5118,-4.7827 -2.55816,-10.4491 -2.14859,-13.61211c1.95811,-15.12172 12.56638,-6.47244 12.63791,-32.05078" fill="#6b542b" stroke="#001026" stroke-linecap="round"/><path d="M243.65259,196.67118c0,0 -7.23917,0.40693 -8.88855,5.0204c-1.6494,4.61347 3.45679,14.09492 3.45679,14.09492c0,0 6.06589,4.51101 6.07623,7.40231c0.01033,2.89131 0.1587,7.53047 -2.37072,7.96557c-2.52942,0.43508 -7.51877,-2.44465 -7.55186,-4.30421c-0.02915,-1.6383 1.11959,-3.78296 1.11959,-3.78296l-1.02195,-0.75761l-4.06245,1.05671l-1.23314,6.15923c0,0 2.8765,1.46829 4.3574,4.64691c1.44317,3.09768 1.51501,7.04034 -2.94714,5.82079c-5.96133,-1.62929 -10.17347,-3.13864 -10.95244,-6.15565c-1.3156,-5.09539 0.97571,-12.33737 0.97571,-12.33737l-4.09997,1.53124c0,0 0.61618,1.00269 0.55589,5.54862c-0.07398,5.57761 -8.3572,5.63655 -9.50289,0.67094c-1.31126,-5.68317 -2.65499,-12.92189 1.08829,-13.76091c2.3677,-0.53069 8.74059,-3.60975 8.74059,-3.60975c0,0 1.33102,-9.24386 5.98699,-14.12742c4.65596,-4.88357 16.13222,-9.37301 20.42143,-8.66987c3.70128,0.60676 4.77589,2.17303 4.77589,2.17303" fill="#6b542b" stroke="#001026" stroke-linecap="round"/><g><g fill="none" stroke="#001026" stroke-linecap="round"><path d="M319.92111,173.3551l-11.97558,2.89305"/><path d="M319.85601,163.2429l-9.64181,9.37755"/></g><path d="M269.29272,131.98967l20.1241,-14.02936c0,0 17.26097,21.67371 20.4083,44.21415" fill="#422b16" stroke="#001026" stroke-linecap="round"/><g stroke-linecap="butt"><path d="M235.46323,167.65285c-0.45094,-18.53662 14.40414,-35.50391 34.80861,-36.69813c20.20031,-1.18227 34.92043,7.03346 40.29416,32.25422c0.08606,0.4039 4.96606,-0.88608 4.96875,5.56736c0.00198,4.76337 -3.60349,8.75773 -6.14549,12.21763c-6.76629,9.20956 -18.8281,13.95891 -31.84062,14.27547c-20.23114,0.49216 -41.63447,-9.07994 -42.08541,-27.61655z" fill="#6b542b" stroke="none"/><path d="M286.18916,172.14691c0,0 12.34471,-7.82789 22.48096,-8.60108c0.08606,0.4039 8.67659,-1.20412 8.67929,5.24934c-0.06629,3.48491 -7.09994,9.43486 -9.48383,12.5538c-7.06537,9.2439 -15.0256,25.37314 -28.41058,25.69877c-8.28561,0.20157 -16.42319,-7.8809 -23.25623,-13.80802c-9.8513,-8.54523 -16.21573,-16.64757 -9.88147,-22.94327c0.4122,-0.4097 0.49945,0.53178 0.23582,-0.4089c-1.06142,-3.78721 3.51479,-7.54695 7.34305,-2.39854c0.38423,0.51673 1.30226,-0.11464 1.98155,-0.14415c12.29815,-0.53428 30.31146,4.80202 30.31146,4.80202z" fill="#dac3a1" stroke="none"/><path d="M235.46323,167.65285c-0.45094,-18.53662 14.40414,-35.50391 34.80861,-36.69813c20.20031,-1.18227 34.92043,7.03346 40.29416,32.25422c0.08606,0.4039 5.9154,-2.81288 6.22328,5.05271c0.19565,4.99873 -10.46234,15.89309 -15.85888,22.63366c-7.14913,8.92968 -12.50846,15.89622 -22.61256,16.0181c-9.21408,0.56967 -18.4147,-9.56851 -26.4657,-16.16329c-9.59793,-7.8619 -16.14368,-13.01658 -16.38892,-23.09726z" fill="none" stroke="#001026"/></g><path d="M291.53048,165.64952c1.49878,3.61698 -3.64577,6.11443 -6.16706,6.17576c-0.75672,0.01841 -6.20339,-0.66757 -7.20422,-1.85854c-2.3338,-2.77718 -0.31093,-7.42942 -0.35477,-9.23152c-0.06264,-2.57492 1.82835,3.09349 5.54596,0.25383c2.12709,-1.62476 3.80285,-5.90303 8.18009,4.66047z" fill="#4c3015" stroke="none" stroke-linecap="butt"/><path d="M235.76591,170.27176c-4.96659,-24.09414 18.76866,-53.37587 18.76866,-53.37587l22.23735,13.99729" fill="#6b542b" stroke="#001026" stroke-linecap="round"/><path d="M281.64242,172.30601c-0.50333,-1.99172 8.98049,-2.30871 8.95528,-0.45063c-0.00536,0.39577 -1.67083,3.73021 -3.46435,3.84779c-1.80006,0.118 -5.09258,-1.82086 -5.49093,-3.39716z" fill="#001026" stroke="none" stroke-linecap="round"/><g fill="none" stroke="#001026" stroke-linecap="round"><path d="M246.25938,171.20744l-17.13899,-7.66626"/><path d="M230.23321,174.59261l14.92763,0.58627"/></g><path d="M299.92766,187.03543c-6.48652,6.29661 -10.52267,15.75591 -20.45559,15.61941c-9.60629,-0.13199 -12.33433,-4.46887 -20.75824,-14.93012c-8.44478,-10.48715 -9.35892,-19.40934 -9.35892,-19.40934c10.9029,19.56678 54.6069,19.56448 62.53928,0.29919c0,0 -1.07477,7.84799 -11.96654,18.42085z" fill="#001026" stroke="none" stroke-linecap="round"/><path d="M246.3732,168.42223c-0.05003,-2.05637 2.13124,-3.79447 4.01394,-3.51085c1.95795,0.29497 3.59133,2.63901 3.59133,2.63901c0,0 -1.64894,-1.7177 -2.83731,-2.25742c-1.01043,-0.45891 -2.10437,-0.13834 -3.0662,0.56152c-2.65788,1.93399 -0.96442,5.81071 -0.96442,5.81071c0,0 -0.7124,-2.21745 -0.73735,-3.24298z" fill="#001026" stroke="none" stroke-linecap="butt"/><path d="M280.84431,164.9703c0.19479,8.00706 -6.3628,7.93459 -11.92064,8.06979c-5.55784,0.1352 -13.36236,-0.2702 -13.55714,-8.27727c-0.19479,-8.00706 5.71904,-15.15098 11.27688,-15.28618c9.99255,-0.24309 14.00611,7.4866 14.2009,15.49366z" fill="#001026" stroke="#001026" stroke-linecap="butt"/><path d="M301.53026,170.64269c-4.3477,0.80966 -11.01465,1.46707 -11.93741,-6.56622c-0.92275,-8.03332 2.99564,-13.83606 7.34334,-14.64571c7.8168,-1.45572 10.77732,3.29824 12.59621,11.17714c0.99407,4.30599 -3.65444,9.22513 -8.00213,10.03479z" fill="#001026" stroke="#001026" stroke-linecap="butt"/><path d="M256.92687,186.99249c3.04365,3.48593 6.20577,8.14574 5.70243,7.56683c-3.13515,-3.60592 -9.50535,-11.8214 -9.60774,-11.94418c0.02309,-0.08473 2.15645,2.37438 3.9053,4.37735z" fill="#001026" stroke="none" stroke-linecap="butt"/><path d="M285.92833,176.20383c0.04896,-0.22965 0.54036,0.2082 1.30233,0.02691c0.97915,-0.23294 2.30525,-1.14317 2.30525,-1.14317c0,0 -0.80787,0.78093 -2.06861,1.32213c-1.26075,0.54119 -1.01798,0.02373 -1.1243,0.39832c-0.1014,0.3572 -0.37629,1.11766 -0.34179,1.69254c0.07833,1.30515 0.65238,2.57777 0.65238,2.57777c0,0 -0.74681,-1.56908 -0.76591,-2.35402c-0.03184,-1.30886 -0.18166,-1.47765 0.04066,-2.5205z" fill="#001026" stroke="none" stroke-linecap="butt"/><path d="M305.22561,182.4437c-0.10598,0.11968 -6.71801,8.14184 -9.95914,11.65279c-0.52035,0.56367 2.77912,-3.99992 5.92523,-7.39367c1.80771,-1.95 4.01334,-4.34449 4.03391,-4.25912z" fill="#001026" stroke="none" stroke-linecap="butt"/><path d="M248.73406,166.69875c1.13453,-1.04557 3.59893,1.90671 3.59893,1.90671c0,0 -2.18522,-2.6656 -3.20497,-1.72578c-1.01977,0.9398 -0.77292,3.75422 -0.77292,3.75422c0,0 -0.75556,-2.88956 0.37896,-3.93514z" fill="#001026" stroke="none" stroke-linecap="butt"/><path d="M274.48204,158.03249c0,0 0.52006,3.46341 0.60979,7.15187c0.08973,3.68845 -0.28485,6.20516 -0.28485,6.20516c0,0 -0.74005,-2.58164 -0.82978,-6.2701c-0.08973,-3.68845 0.50484,-7.08694 0.50484,-7.08694z" fill="#006aff" stroke="none" stroke-linecap="butt"/><path d="M302.65141,163.44999c0.08973,3.68845 -0.52391,6.30302 -0.52391,6.30302c0,0 -0.49652,-2.49553 -0.58625,-6.18397c-0.08973,-3.68845 0.2613,-7.17306 0.2613,-7.17306c0,0 0.75912,3.36555 0.84885,7.054z" fill="#006aff" stroke="none" stroke-linecap="butt"/><g fill="#0062ea" stroke="none" stroke-linecap="butt"><path d="M271.50099,192.84694c-0.33073,0.12961 -0.72081,-0.3636 -0.8713,-1.10163c-0.15046,-0.73803 0.52441,-2.00934 0.52441,-2.00934c0,0 0.50166,1.05078 0.65214,1.78881c0.17316,0.84938 0.02548,1.19257 -0.30526,1.32217z"/><path d="M272.90764,193.8919c-0.4268,0.24174 -0.94208,-0.13803 -1.15087,-0.8482c-0.20878,-0.71018 0.64374,-2.23959 0.64374,-2.23959c0,0 0.67025,0.91696 0.87905,1.62714c0.24028,0.81734 0.0549,1.21891 -0.37191,1.46064z"/><path d="M274.39354,194.30108c-0.47858,0.16576 -0.9753,-0.30304 -1.10949,-1.04706c-0.13421,-0.74402 0.54754,-2.11451 0.54754,-2.11451c0,0 0.7786,0.96393 1.12971,1.77217c0.33619,0.77383 -0.0892,1.22365 -0.56775,1.3894z"/><path d="M276.4172,195.25416c-0.50244,0.34737 -1.10848,0.07171 -1.3536,-0.61573c-0.24512,-0.68745 0.37355,-3.85454 0.37355,-3.85454c0,0 0.64954,2.01107 1.41884,2.8739c0.51508,0.5777 0.06366,1.24899 -0.4388,1.59637z"/><path d="M278.45076,195.66408c-0.42545,0.33991 -0.96872,-0.05552 -1.21341,-0.8832c-0.24468,-0.82768 0.55895,-2.76226 0.55895,-2.76226c0,0 0.34687,1.21808 0.97001,1.84952c0.58135,0.58909 0.10989,1.45602 -0.31557,1.79593z"/><path d="M279.41035,193.96018c0.41073,-0.78171 0.91621,-2.01959 0.91621,-2.01959c0,0 1.02158,1.74893 0.8178,2.61483c-0.20376,0.8659 -0.76537,1.36485 -1.25438,1.11439c-0.48902,-0.25047 -0.92886,-0.85464 -0.47963,-1.70963z"/><path d="M286.34019,191.81387c0.09533,-0.75493 0.51698,-1.86927 0.51698,-1.86927c0,0 0.76517,1.17222 0.66985,1.92716c-0.09533,0.75493 -0.44708,1.29921 -0.78569,1.21567c-0.3386,-0.08354 -0.51083,-0.40471 -0.40115,-1.27355z"/><path d="M284.74548,192.20599c0.19326,-0.71757 0.84336,-1.65882 0.84336,-1.65882c0,0 0.88538,1.49746 0.69211,2.21502c-0.19326,0.71757 -0.70008,1.11613 -1.13197,0.89017c-0.4319,-0.22595 -0.62594,-0.62054 -0.40349,-1.44637z"/><path d="M283.12418,193.05476c0.17559,-0.72635 0.82677,-1.68637 0.82677,-1.68637c0,0 1.00147,1.49232 0.82589,2.21867c-0.17557,0.72635 -0.69706,1.13705 -1.1648,0.91732c-0.46773,-0.21973 -0.68992,-0.61369 -0.48786,-1.44963z"/><path d="M281.24294,194.01232c0.66485,-1.01348 1.08426,-3.13685 1.08426,-3.13685c0,0 0.96202,3.00106 0.79581,3.7317c-0.16618,0.73063 -0.73467,1.12968 -1.2697,0.89129c-0.53504,-0.23838 -1.05551,-0.80758 -0.61039,-1.48615z"/></g><g fill="#006aff" stroke="none" stroke-linecap="butt"><path d="M267.95545,186.75048c0.00054,0.85523 -0.35501,2.19756 -0.35501,2.19756c0,0 -1.1591,-1.06815 -1.15962,-1.92339c-0.00054,-0.85523 0.35806,-1.55238 0.80098,-1.55708c0.44289,-0.0047 0.71306,0.29861 0.71368,1.28289z"/><path d="M269.47203,187.68068c0.00056,0.85523 -0.38026,2.19784 -0.38026,2.19784c0,0 -1.24102,-1.06727 -1.24155,-1.9225c-0.00056,-0.85523 0.38345,-1.55265 0.85768,-1.55769c0.47425,-0.00503 0.76349,0.29807 0.76411,1.28235z"/><path d="M271.66243,188.2883c0.00056,0.85523 -0.51056,2.19922 -0.51056,2.19922c0,0 -1.66452,-1.06277 -1.66507,-1.918c-0.00056,-0.85523 0.51471,-1.55404 1.15088,-1.56078c0.63617,-0.00673 1.02409,0.29528 1.02472,1.27956z"/><path d="M274.06751,188.73592c0.00056,0.85523 -0.54633,2.19959 -0.54633,2.19959c0,0 -1.78087,-1.06153 -1.78141,-1.91677c-0.00054,-0.85523 0.55079,-1.55441 1.23144,-1.56166c0.68065,-0.00724 1.0957,0.29453 1.0963,1.27882z"/><path d="M276.60271,189.14234c-0.56418,1.39965 -0.46867,3.85374 -0.46867,3.85374c0,0 -2.17526,-2.70465 -2.1794,-3.55984c-0.00416,-0.8552 0.62045,-1.55697 1.39509,-1.56745c0.77464,-0.01047 1.63078,0.33643 1.25303,1.27354z"/><path d="M278.46217,189.84951c-0.51644,1.13733 -0.49979,2.63575 -0.49979,2.63575c0,0 -1.63063,-1.27816 -1.63129,-2.30362c-0.00065,-1.02544 0.50396,-1.86211 1.12715,-1.86874c0.62318,-0.00662 1.48574,0.47556 1.00393,1.53663z"/><path d="M281.97622,188.16952c0.64146,-0.06233 1.21221,0.71572 1.27477,1.73783c0.06256,1.02212 -1.5361,2.47646 -1.5361,2.47646c0,0 -0.34727,-1.5524 -0.6767,-2.57168c-0.36033,-1.11486 0.29656,-1.58026 0.93805,-1.64259z"/><path d="M292.27774,185.02402c0.44291,-0.0047 0.8024,0.6848 0.80293,1.54002c0.00056,0.85523 -1.15715,1.94801 -1.15715,1.94801c0,0 -0.35728,-1.33475 -0.35782,-2.19c-0.00063,-0.98428 0.26912,-1.29332 0.71204,-1.29804z"/><path d="M290.81278,185.98595c0.47425,-0.00503 0.85917,0.68418 0.85967,1.53943c0.00056,0.85523 -1.2391,1.94887 -1.2391,1.94887c0,0 -0.3825,-1.33449 -0.38306,-2.18972c-0.00063,-0.98428 0.28822,-1.29353 0.76245,-1.29857z"/><path d="M288.88378,186.63734c0.6362,-0.00673 1.15233,0.68106 1.15288,1.53631c0.00056,0.85523 -1.66258,1.95337 -1.66258,1.95337c0,0 -0.51282,-1.33309 -0.51336,-2.18834c-0.00063,-0.98428 0.38689,-1.2946 1.0231,-1.30133z"/><path d="M286.70874,187.13363c0.68065,-0.00724 1.23286,0.68021 1.2334,1.53545c0.00054,0.85523 -1.77893,1.9546 -1.77893,1.9546c0,0 -0.54862,-1.33273 -0.54914,-2.18796c-0.00063,-0.98428 0.41404,-1.29486 1.09469,-1.30209z"/><path d="M284.25188,187.59673c0.77462,-0.00599 1.40011,0.68248 1.39706,1.53775c-0.00304,0.85526 -2.17481,3.60614 -2.17481,3.60614c0,0 0.09232,-2.4561 -0.47362,-3.84372c-0.37894,-0.92907 0.47675,-1.29418 1.25137,-1.30017z"/><path d="M281.04417,189.87465c0.00063,0.99956 -1.22132,2.6036 -1.22132,2.6036c0,0 -1.22405,-1.64901 -1.22466,-2.64858c-0.00063,-0.99956 0.54675,-1.24787 1.22216,-1.25506c0.67541,-0.00719 1.22316,0.30048 1.22379,1.30004z"/></g><path d="M299.92766,187.03543c-6.48652,6.29661 -10.52267,15.75591 -20.45559,15.61941c-9.60629,-0.13199 -12.33433,-4.46887 -20.75824,-14.93012c-8.44478,-10.48715 -9.35892,-19.40934 -9.35892,-19.40934c10.9029,19.56678 54.6069,19.56448 62.53928,0.29919c0,0 -1.07477,7.84799 -11.96654,18.42085z" fill="url(#color-1)" stroke="none" stroke-linecap="round"/><path d="M281.73912,165.87952c0.12722,5.22972 -5.55354,9.60994 -11.7897,9.76165c-2.64424,0.06432 -4.34406,0.25624 -6.2994,-0.9737c0.95,0.26386 5.58659,0.53442 6.40972,0.5144c5.36444,-0.1305 9.61377,-4.32257 9.49114,-9.36327c-0.07538,-3.09845 2.09724,-3.67954 2.18824,0.06093z" fill="#001026" stroke="none" stroke-linecap="butt"/><path d="M290.07034,163.35112c0.12853,5.2835 3.84252,9.47881 8.29544,9.37049c0.68326,-0.01662 4.51449,-0.51166 5.28995,-0.83131c-1.56475,1.3771 -2.9826,1.2538 -5.17754,1.30719c-5.17651,0.12593 -10.0857,-4.20102 -10.21905,-9.68266c-0.09537,-3.92064 1.73219,-3.41141 1.8112,-0.16372z" fill="#001026" stroke="none" stroke-linecap="butt"/><path d="M278.41204,204.67748c-6.72858,0.07538 -12.60613,-6.83477 -12.60613,-6.83477c0,0 4.67558,5.94543 12.01457,6.29803c7.89217,0.37919 13.90114,-6.13789 13.90114,-6.13789c0,0 -5.0815,6.58246 -13.30958,6.67463z" fill="#001026" stroke="none" stroke-linecap="butt"/><path d="M313.4683,170.34573c0,0 0.11915,-2.43456 -0.9451,-3.32368c-1.06426,-0.88911 -3.12671,1.49106 -3.12671,1.49106c0,0 2.31794,-3.06862 3.50197,-2.07945c1.18403,0.98918 0.56986,3.91206 0.56986,3.91206z" fill="#001026" stroke="none" stroke-linecap="butt"/><path d="M283.12755,161.26252c0,0 1.39699,-1.48082 1.2648,-2.6022c-0.1322,-1.12138 -1.75749,-1.57713 -1.75749,-1.57713c0,0 0.29099,-0.95366 -0.27438,-2.8756c-0.75027,-2.55055 -3.22511,-6.14717 -5.5986,-7.64223c-10.86996,-6.847 -21.04308,3.4007 -21.04308,3.4007c0,0 3.94395,-5.40018 13.06075,-6.2699c8.06551,-0.76942 14.66715,4.69023 14.85496,12.41011c0.00871,0.35799 1.32079,0.571 2.29715,1.84686c1.30201,1.7014 -2.8041,3.3094 -2.8041,3.3094z" fill="#001026" stroke="none" stroke-linecap="butt"/></g></g></g></svg>