<svg version="1.1" xmlns="http://www.w3.org/2000/svg" xmlns:xlink="http://www.w3.org/1999/xlink" width="137.70435" height="149.84642" viewBox="0,0,137.70435,149.84642"><defs><linearGradient x1="188.01956" y1="143.4046" x2="188.7591" y2="189.64464" gradientUnits="userSpaceOnUse" id="color-1"><stop offset="0" stop-color="#cc2981"/><stop offset="1" stop-color="#a92292"/></linearGradient><linearGradient x1="298.85976" y1="151.06431" x2="287.75616" y2="196.01378" gradientUnits="userSpaceOnUse" id="color-2"><stop offset="0" stop-color="#cc2981"/><stop offset="1" stop-color="#a92292"/></linearGradient><linearGradient x1="279.6689" y1="213.94381" x2="279.6689" y2="237.25998" gradientUnits="userSpaceOnUse" id="color-3"><stop offset="0" stop-color="#9966ff"/><stop offset="1" stop-color="#66ebff"/></linearGradient><linearGradient x1="310.99633" y1="209.83742" x2="310.99633" y2="237.33108" gradientUnits="userSpaceOnUse" id="color-4"><stop offset="0" stop-color="#9966ff"/><stop offset="1" stop-color="#66ebff"/></linearGradient></defs><g transform="translate(-177.32019,-88.55381)"><g data-paper-data="{&quot;isPaintingLayer&quot;:true}" fill-rule="nonzero" stroke-miterlimit="10" stroke-dasharray="" stroke-dashoffset="0" style="mix-blend-mode: normal"><g data-paper-data="{&quot;index&quot;:null}" stroke="#000000" stroke-width="0.90024" stroke-linecap="round" stroke-linejoin="miter"><path d="M276.74089,167.7986c0,0 4.74461,-12.63056 5.03959,-13.25604c0.29492,-0.62536 2.10817,-6.21152 11.66685,-11.58105c0,0 4.93824,30.8787 -7.61282,43.23861c-0.00033,-0.00083 -1.83362,-8.6736 -9.09363,-18.40152zM276.89233,168.00422c-0.58107,-0.81183 -1.88177,-2.13959 -1.88177,-2.13959M285.98527,188.6556c0,0 0.03354,-1.58489 -0.15109,-2.4563" fill="#be1e2d"/><path d="M290.08056,179.40205c0,0 -1.98097,-0.55513 -3.67476,-4.24837c-1.05449,-2.28943 -1.72575,-6.94908 -1.72575,-6.94908l-0.02971,0.16846c0.36017,-1.00866 0.70554,-2.15802 0.95054,-3.36719c0.41633,-2.04616 0.6863,-4.97758 0.8656,-7.83371l0.04429,-0.40102c0,0 1.285,-5.54348 7.37765,-8.54096l0.0884,0.01076c0.41002,4.82598 0.7927,11.9888 0.13305,17.23839c-0.73978,5.88865 -2.43881,10.61498 -4.10512,14.05449l0.07581,-0.13176v0v0zM283.08588,171.78856c0,0 1.35977,-2.97821 1.59419,-3.58397" fill="#929497"/></g><g data-paper-data="{&quot;index&quot;:null}" stroke="#000000" stroke-width="0.90024" stroke-linecap="round" stroke-linejoin="miter"><path d="M192.95857,180.7313c-9.83409,-14.52767 1.18661,-43.86067 1.18661,-43.86067c8.2987,7.1 8.95912,12.92575 9.1237,13.59482c0.16452,0.66915 2.28964,13.96593 2.28964,13.96593c-9.06695,8.14692 -12.59996,16.29992 -12.59996,16.29992zM207.64093,162.86704c0,0 -1.54116,1.05251 -2.27331,1.73719M192.95857,180.7313c-0.35551,0.81905 -0.63964,2.37971 -0.63964,2.37971" fill="#be1e2d"/><path d="M190.20246,173.39491c-0.94534,-3.69327 -1.66504,-8.65346 -1.21361,-14.5697c0.4027,-5.27489 2.21195,-12.22495 3.57954,-16.8788l0.08892,0.00647c5.37513,4.10941 5.52578,9.79077 5.52578,9.79077l-0.0368,0.40176c-0.39572,2.83511 -0.71742,5.76158 -0.71855,7.84795c-0.0017,1.23274 0.10703,2.42609 0.2584,3.48429l0.00457,-0.1709c0,0 -1.59055,4.44057 -3.08276,6.48329c-2.39982,3.2968 -4.45356,3.46108 -4.45356,3.46108zM197.69073,163.30674c0.10868,0.63899 0.84621,3.82033 0.84621,3.82033" fill="#929497"/></g><path d="M196.69712,143.37757c0,0 6.45005,-38.44038 54.58016,-34.27272c33.02678,2.85985 41.03381,42.02596 41.03381,42.02596" data-paper-data="{&quot;index&quot;:null}" fill="none" stroke="#000000" stroke-width="7" stroke-linecap="round" stroke-linejoin="miter"/><path d="M234.12616,208.74901v0v0v0v0v0c0.91438,1.5979 2.12875,4.88087 2.07567,6.00261c0,0 -0.41086,4.37945 -2.83928,4.7041c-1.03762,0.13913 -1.899,-0.32035 -2.61789,-1.22675c-0.39935,0.13026 -1.00561,0.24152 -1.55659,-0.07459c-0.91461,-0.52285 0.30228,-2.33461 0.30228,-2.33461l0.01147,0.01494c-0.1043,-0.29736 -0.20383,-0.59724 -0.29777,-0.92241c-0.52542,-1.84089 -0.76004,-4.6924 -0.95701,-6.23595c0,0 -0.20887,-1.33544 1.09761,-2.25744c1.38973,-0.98109 3.86714,0.73219 4.78151,2.33009z" data-paper-data="{&quot;index&quot;:null}" fill="#be1e2d" stroke="#231f20" stroke-width="0.78672" stroke-linecap="round" stroke-linejoin="round"/><path d="M248.75114,217.58274v0v0v0v0c0,0 -3.49458,2.76233 -5.42292,1.27827c-0.82851,-0.62814 -1.08734,-1.55695 -0.92725,-2.69395c-0.37628,-0.18901 -0.87665,-0.53538 -1.03063,-1.14374c-0.25449,-1.00531 1.9205,-1.41687 1.9205,-1.41687l-0.00282,0.01767c0.14679,-0.27726 0.29656,-0.55893 0.46801,-0.85189c0.98387,-1.64868 2.90799,-3.8044 3.9,-5.01835c0,0 1.302,-1.13838 2.54049,-0.64307c1.23855,0.49433 1.6703,2.63091 1.41693,3.5506c-0.25418,0.91976 -1.37264,5.42668 -2.86231,6.92132z" data-paper-data="{&quot;index&quot;:null}" fill="#be1e2d" stroke="#231f20" stroke-width="0.78672" stroke-linecap="round" stroke-linejoin="round"/><path d="M243.39075,218.41526c1.59664,-0.36175 3.50031,0.19009 3.50031,0.19009c0,0 0.56641,5.12899 0.72361,6.98225c0.15806,1.856 0.96811,4.7888 0.96811,4.7888c0,0 0.47476,0.31468 0.29423,1.05918c-0.18417,0.74251 -1.879,0.79666 -4.01645,1.07565c-2.13355,0.27465 -3.84119,-0.15245 -4.13155,-0.91003c-0.29329,-0.75418 0.35072,-1.06337 0.35072,-1.06337c0,0 1.32777,-6.01672 0.55016,-8.15427c0.00428,0.00469 -0.27482,-3.5073 1.76087,-3.96831z" data-paper-data="{&quot;index&quot;:null}" fill="#be1e2d" stroke="#231f20" stroke-width="0.90024" stroke-linecap="round" stroke-linejoin="round"/><path d="M236.58564,218.61726v0v0v0v0v0c2.76013,1.42574 2.91714,3.9914 2.9179,3.99411c-0.6851,2.1615 0.82115,7.35133 0.82115,7.35133c0,0 0.65798,0.27828 0.40338,1.0446c-0.25843,0.76789 -1.94134,1.27035 -4.0899,1.08682c-2.14483,-0.18521 -3.83952,-0.16573 -4.05734,-0.90243c-0.21782,-0.73671 0.24368,-1.07008 0.24368,-1.07008c0,0 0.14845,-1.73684 0.22019,-3.59818c0.06952,-1.85611 0.04744,-6.96266 0.04744,-6.96266c0,0 1.68526,-1.87801 3.49351,-0.94351z" data-paper-data="{&quot;index&quot;:null}" fill="#be1e2d" stroke="#231f20" stroke-width="0.90024" stroke-linecap="round" stroke-linejoin="round"/><g data-paper-data="{&quot;index&quot;:null}" stroke-width="0.90024"><path d="M247.9113,212.11991v0v0v0v0v0c0.26179,2.78894 -0.69942,7.84655 -4.03774,9.45919c-3.30172,1.59145 -6.68428,1.17055 -10.07135,-1.37255c-2.80626,-2.10777 -2.42062,-7.67896 -1.93892,-10.7815v0c0,0 0.42867,-7.21472 6.68093,-7.76685c6.25033,-0.55213 8.81621,5.14102 9.09984,8.62118c0.11631,0.61621 0.21004,1.24368 0.26726,1.84053z" fill="#be1e2d" stroke="#000000" stroke-linecap="butt" stroke-linejoin="miter"/><path d="M245.75214,219.95404v0v0v0v0v0l-0.02343,0.14045c-0.5122,0.61773 -1.12765,1.1318 -1.85415,1.48287c-3.05832,1.47442 -6.18464,1.22264 -9.32094,-0.84412l-0.02552,-0.144c0,0 -1.19776,-9.2701 4.80038,-9.35538c6.81082,-0.09374 6.55326,7.18743 6.42367,8.72018z" fill="#e6e7e8" stroke="#231f20" stroke-linecap="round" stroke-linejoin="round"/></g><g data-paper-data="{&quot;index&quot;:null}" stroke="#000000" stroke-linecap="butt" stroke-linejoin="miter"><g><g stroke-width="0.4"><path d="M214.83857,234.44381c-0.11234,-0.03035 -0.47851,-0.15173 -0.50705,-0.43947c-0.02761,-0.28681 0.28938,-0.44006 0.39312,-0.49063c0.09961,-0.02449 1.73671,-0.17433 3.43596,-1.19756c-0.15224,-0.13699 -0.29601,-0.27083 -0.43321,-0.40337c-0.71869,0.60411 -2.6295,1.18532 -4.10282,1.24799c-0.19662,-0.04725 -0.5552,-0.18795 -0.56845,-0.47501c-0.01128,-0.28791 0.31452,-0.42581 0.42182,-0.4715c0.10031,-0.01886 1.77343,-0.08093 3.54517,-1.03912c-0.16147,-0.18423 -0.31065,-0.36696 -0.44573,-0.54343c-0.65167,0.54071 -2.68358,1.05465 -4.21336,1.03706c-0.19327,-0.05832 -0.54432,-0.21651 -0.54024,-0.50556c0.00404,-0.2891 0.33751,-0.407 0.44644,-0.44607c0.10389,-0.01403 1.86523,0.02057 3.7439,-0.91503c-0.09833,-0.16544 -0.18892,-0.33242 -0.27189,-0.49905c-0.68685,0.43521 -2.49054,0.77219 -3.94829,0.70637c-0.09446,-0.00427 -0.18787,-0.01032 -0.27831,-0.01818c-0.1878,-0.07213 -0.52513,-0.25773 -0.49915,-0.54586c0.02589,-0.28617 0.36689,-0.38035 0.47829,-0.41181l0.24658,0.00175c0.43885,0.01981 1.97094,0.02911 3.63194,-0.66823c-0.06108,-0.20591 -0.10305,-0.39035 -0.13096,-0.54888c-0.79745,0.40868 -2.44477,0.69377 -3.7947,0.63283c-0.09446,-0.00427 -0.1869,-0.01032 -0.27831,-0.01818c-0.1878,-0.07213 -0.5261,-0.25778 -0.50012,-0.5459c0.0259,-0.28622 0.36689,-0.38035 0.47925,-0.41182l0.2436,0.00355c0.45034,0.02033 2.05136,0.02709 3.76174,-0.72418l0.04488,-0.01952c0.11122,-0.25055 0.48531,-0.41899 0.64894,-0.4828l0.30769,-0.11806l0.01826,0.32282c0.17822,3.1385 3.66958,5.90144 3.70458,5.93018l0.31536,0.24638l-1.15026,0.46949l-0.10359,-0.09454c-0.68032,0.62177 -2.55075,1.30028 -4.01423,1.4383l-0.04427,0.0055z" fill="#871212"/><path d="M215.9348,226.4724c0,0 -0.69238,0.2683 -0.49536,0.50939c0,0 -0.00139,0.01022 -0.00323,0.02885c-0.08175,-0.03084 -0.17323,-0.03682 -0.1837,-0.03729c-0.00096,-0.00004 -0.00096,-0.00004 -0.00096,-0.00004c-1.74261,0.7657 -3.35747,0.7677 -3.87074,0.74452c-0.10873,-0.0049 -0.1677,-0.01134 -0.1677,-0.01134c-0.67611,0.18667 -0.02345,0.49793 -0.02345,0.49793c0.08851,0.00772 0.17813,0.01366 0.26874,0.01774c1.5808,0.07137 3.55003,-0.34993 3.94892,-0.78126c0.01118,-0.01449 0.01437,-0.0209 0.02455,-0.03355c0.01701,0.26761 0.07911,0.65423 0.24498,1.13166c-0.03322,-0.00527 -0.0608,-0.00836 -0.07223,-0.00887c-0.00385,-0.00017 -0.00572,-0.00026 -0.00572,-0.00026c-1.74064,0.7639 -3.35358,0.76598 -3.86873,0.74273c-0.11065,-0.00499 -0.17058,-0.01147 -0.17058,-0.01147c-0.6762,0.18855 -0.02353,0.49981 -0.02353,0.49981c0.08851,0.00772 0.17813,0.01366 0.26874,0.01774c1.5808,0.07137 3.55003,-0.34993 3.94892,-0.78126c0.03127,-0.03419 0.0469,-0.06248 0.06734,-0.09059c0.13185,0.30741 0.30532,0.6429 0.53697,1.00252c-0.02013,0.00098 -0.03444,0.00033 -0.03444,0.00033c-2.03568,1.08201 -3.9711,1.02928 -3.9711,1.02928c-0.65929,0.23514 0.0148,0.49777 0.0148,0.49777c1.62442,0.01809 3.76274,-0.58374 4.14812,-1.07277c0.03458,-0.04431 0.0535,-0.07999 0.07325,-0.11371c0.22228,0.31427 0.49261,0.64381 0.80637,0.98563c-1.94195,1.1415 -3.82214,1.19512 -3.82214,1.19512c-0.64573,0.2723 0.04247,0.49901 0.04247,0.49901c1.62183,-0.06906 3.72352,-0.78578 4.08019,-1.29487c0.01537,-0.0218 0.01987,-0.03654 0.03133,-0.05568c0.24818,0.25085 0.523,0.50572 0.82902,0.76856c-1.86643,1.22256 -3.7236,1.3765 -3.7236,1.3765c-0.63011,0.30576 0.0704,0.49467 0.0704,0.49467c1.61535,-0.15549 3.67444,-0.98276 4.00327,-1.50899c0.00829,-0.01462 0.00956,-0.02111 0.01686,-0.03389l0.17053,0.15559l0.63559,-0.26053c0,0 -3.60836,-2.81599 -3.79412,-6.099M216.37468,225.79951l0.03657,0.64481c0.17176,3.03242 3.58095,5.7336 3.61508,5.76041l0.63073,0.49281l-0.74478,0.30431l-0.63549,0.25871l-0.28468,0.11726l-0.05406,-0.0502c-0.84423,0.63126 -2.67835,1.22899 -3.9902,1.35419l-0.08744,0.00916l-0.08493,-0.02349c-0.14922,-0.0395 -0.63861,-0.20388 -0.68109,-0.6411c-0.02014,-0.20223 0.05475,-0.49279 0.5254,-0.7224l0.04794,-0.02311c-0.36231,0.0604 -0.71314,0.09981 -1.03218,0.11439l-0.08809,0.00257l-0.0838,-0.02716c-0.14686,-0.04878 -0.62556,-0.23795 -0.64508,-0.676c-0.00847,-0.20541 0.08155,-0.49248 0.56435,-0.69537l0.08381,-0.03459l0.09009,-0.00432c0.01628,-0.00116 1.47691,-0.05694 3.09307,-0.85833c-0.04163,-0.05053 -0.08229,-0.10012 -0.12204,-0.14963c-0.8893,0.55241 -2.82461,0.96398 -4.16714,0.94924l-0.08891,-0.00025l-0.08244,-0.03555c-0.14267,-0.05609 -0.61052,-0.27286 -0.60429,-0.70976c0.00292,-0.20397 0.10991,-0.48653 0.60292,-0.66176l0.08556,-0.03079l0.0907,0.00222c0.01624,0.00073 1.58474,0.02851 3.31732,-0.76762c-0.01419,-0.02403 -0.02727,-0.05082 -0.0414,-0.0749c-0.8893,0.42979 -2.57776,0.67561 -3.85808,0.61781c-0.09728,-0.00439 -0.19358,-0.01062 -0.28782,-0.0186l-0.08857,-0.00777l-0.07947,-0.03819c-0.1393,-0.06621 -0.58937,-0.31496 -0.54966,-0.75223c0.01819,-0.20328 0.14666,-0.47549 0.65148,-0.61747l0.08809,-0.02318l0.09035,0.00974c0.00668,0.00031 0.05713,0.00442 0.14395,0.00834c0.40931,0.01848 1.79609,0.02684 3.33483,-0.57118c-0.00567,-0.0218 -0.01129,-0.0445 -0.01609,-0.06437c-0.92844,0.36716 -2.45437,0.57256 -3.63451,0.51929c-0.09728,-0.00439 -0.19353,-0.01063 -0.28782,-0.0186l-0.08857,-0.00777l-0.07947,-0.03819c-0.1393,-0.06621 -0.58937,-0.31496 -0.54966,-0.75223c0.01819,-0.20328 0.14671,-0.47548 0.65235,-0.61554l0.08809,-0.02318l0.09044,0.00785c0.00572,0.00026 0.05518,0.00622 0.14103,0.0101c0.43404,0.0196 1.97291,0.02726 3.62435,-0.69013c0.16941,-0.26853 0.51763,-0.43535 0.73381,-0.51918l0.61546,-0.23905zM214.81901,233.25494c0.20185,-0.02271 1.51188,-0.19014 2.94688,-0.9819c-0.01474,-0.01194 -0.0285,-0.02472 -0.04219,-0.03844c-0.62836,0.43224 -1.80045,0.81744 -2.90469,1.02034z" fill="#000000"/></g><path d="M244.48222,213.21363l-3.26834,0.31677c-2.97935,-0.11391 -8.75317,3.16027 -11.10791,9.3327c-2.35482,6.17425 -10.8502,10.316 -10.8502,10.316c-4.67977,-3.83885 -3.78851,-6.68566 -3.78851,-6.68566c9.9677,-4.42635 8.49792,-8.74372 13.11006,-12.78838c4.61206,-4.04277 10.41519,-3.35204 10.41519,-3.35204z" fill="#ba2915" stroke-width="0.4"/><g fill="#871212" stroke-width="0.4"><path d="M219.46873,224.41328c-0.25183,1.97794 3.80689,6.29522 3.80689,6.29522l-1.13938,0.82758c-4.47277,-2.44777 -4.06386,-6.27967 -4.06386,-6.27967z"/><path d="M222.84024,221.49875c0.43613,3.06213 4.62956,5.57497 4.62956,5.57497l-1.37597,1.30373c-4.29683,-2.65141 -4.43613,-5.62149 -4.43613,-5.62149z"/><path d="M224.82662,218.70322c0.73281,1.9999 5.49213,3.70137 5.49213,3.70137l-0.71519,1.64623c-4.5622,-1.25911 -5.43633,-4.29892 -5.43633,-4.29892z"/><path d="M227.54281,214.7218c0.4757,1.08494 5.36345,3.51118 5.36345,3.51118l-1.06891,1.34097c-4.49741,-1.15232 -5.19753,-3.74522 -5.19753,-3.74522z"/><path d="M231.34848,211.84553c0.33727,-0.09712 5.64406,2.6888 5.64406,2.6888l-1.66396,1.30944l-5.62167,-3.022c0,0 1.30431,-0.87912 1.64158,-0.97623z"/><path d="M234.88453,210.83875l2.2833,-0.55407l4.5831,3.19037l-2.25315,0.23904l-4.61325,-2.87535"/></g><path d="M219.22171,233.45562l-0.11969,-0.09715c-4.74598,-3.89521 -3.90212,-6.81156 -3.86289,-6.9343l0.03151,-0.10065l0.09766,-0.04329c6.3655,-2.82623 8.01563,-5.60789 9.61074,-8.29657c0.87335,-1.47244 1.77593,-2.99597 3.43915,-4.45239c3.92803,-3.44366 8.74465,-3.50703 10.12702,-3.44461c0.30624,0.01382 0.47643,0.03462 0.47643,0.03462l6.2687,3.24966l-4.05302,0.39275c-3.06721,-0.11604 -8.67277,3.32113 -10.90858,9.18064c-2.36125,6.18896 -10.61684,10.27316 -10.9672,10.44461l-0.13983,0.06672zM215.67563,226.65635c-0.08823,0.51372 -0.26963,3.00504 3.61246,6.24242c1.10418,-0.56799 8.46305,-4.53078 10.59417,-10.1169c2.40162,-6.29482 8.22966,-9.60399 11.34075,-9.48506l2.45202,-0.23939l-4.77485,-2.48856c-0.00905,0.00898 -0.15465,-0.0051 -0.37691,-0.01607c-1.33657,-0.06034 -5.99446,0.00176 -9.78581,3.32525c-1.60651,1.40845 -2.45081,2.83254 -3.34493,4.33868c-1.62415,2.73791 -3.30333,5.56791 -9.7169,8.43967z" fill="#000000" stroke-width="0.4"/><path d="M215.62813,226.67315c6.41357,-2.87176 8.10156,-5.7503 9.72571,-8.4882c0.89411,-1.50614 1.77133,-2.94757 3.37785,-4.35602c3.79135,-3.32349 8.486,-3.37551 9.82257,-3.31517c0.22226,0.01097 0.36869,0.0257 0.37774,0.01672l4.78573,2.50055l-2.53523,0.2953c-3.11109,-0.11892 -8.88843,3.20916 -11.29006,9.50398c-2.13112,5.58612 -9.53413,9.53709 -10.63831,10.10508c-3.88209,-3.23737 -3.71423,-5.74853 -3.626,-6.26224z" data-paper-data="{&quot;noHover&quot;:true,&quot;origItem&quot;:[&quot;Path&quot;,{&quot;applyMatrix&quot;:true,&quot;segments&quot;:[[[431.94081,453.0728],[0,0],[-0.17472,1.03898]],[[439.09485,465.69792],[-7.688,-6.5475],[2.1867,-1.14874]],[[460.07531,445.23676],[-4.22042,11.29778],[4.75612,-12.7311]],[[482.53429,426.05348],[-6.16114,-0.24052],[0,0]],[487.39021,425.56932],[[477.93421,420.53628],[0,0],[-0.01792,0.01816]],[[477.18779,420.50378],[0.44016,0.02218],[-2.64692,-0.12204]],[[457.80819,427.229],[7.5083,-6.72166],[-3.1815,2.84856]],[[451.18397,436.00386],[1.77068,-3.04612],[-3.21644,5.53734]],[[431.94083,453.07286],[12.7013,-5.80806],[0,0]]],&quot;closed&quot;:true,&quot;fillColor&quot;:[0,0,0,1],&quot;strokeColor&quot;:[0,0,0],&quot;strokeWidth&quot;:0.4}]}" fill="#000000" stroke-width="0.2"/></g><g stroke-width="0.4"><path d="M252.65995,205.62564c1.86127,1.07918 0.55609,3.41864 0.55609,3.41864c3.45141,1.56006 2.28476,3.49574 2.28476,3.49574c-1.91584,-1.19955 -3.7078,0.06662 -9.13591,0.93371c-5.4272,0.86708 -10.83824,-1.83554 -10.83824,-1.83554c9.93273,-9.20599 17.13236,-6.0126 17.13332,-6.01255z" fill="#ba2915"/><g fill="#871212"><path d="M243.07054,206.50516c0,0 2.71199,2.07804 1.38987,7.17181l-0.85861,-0.03876c0,0 0.99351,-4.32784 -1.33813,-6.72669z"/><path d="M247.42063,205.1841c2.18705,3.0532 1.449,7.58079 1.449,7.58079l-1.08983,0.22226c0.7179,-5.5208 -1.62596,-7.53823 -1.62596,-7.53823z"/><path d="M239.74882,208.26119c0,0 1.6843,2.29937 1.076,5.06537l-0.61087,-0.12216c0,0 -0.30931,-3.82685 -1.1469,-4.43386z"/><path d="M253.76421,211.95985l-1.00266,-0.04527c0.27903,-1.86529 -1.29763,-3.36503 -1.29763,-3.36503c0.41741,-2.12401 -0.90318,-3.41654 -0.90318,-3.41654l1.3513,0.25483c0.58459,0.64046 0.54382,3.1709 0.6012,3.33265c1.41391,1.05799 1.25192,3.2394 1.25096,3.23936z"/></g><path d="M255.7055,212.65877l-0.12548,0.2087l-0.209,-0.13018c-1.13764,-0.71135 -2.33849,-0.46695 -4.56137,0.06274c-1.14577,0.2731 -2.57188,0.61219 -4.40602,0.90568c-0.9517,0.15174 -1.96565,0.20425 -3.01699,0.15679c-4.27301,-0.19292 -7.93191,-1.99728 -7.96836,-2.01579l-0.30169,-0.1503l0.24587,-0.22759c6.17096,-5.71833 11.31116,-6.74538 14.53862,-6.59965c1.7945,0.08102 2.81378,0.5249 2.85781,0.54376c1.52446,0.88233 1.21904,2.57698 0.77865,3.52321c1.25444,0.60616 2.02504,1.33743 2.29152,2.17513c0.27646,0.86907 -0.10697,1.52013 -0.12356,1.54749zM255.37084,211.23944c-0.22895,-0.7012 -0.95467,-1.34992 -2.07927,-1.89125c-2.0429,-0.93755 -4.09061,-0.04707 -4.09061,-0.04707c1.97109,-1.06994 3.34337,-0.79361 3.9111,-0.58637c0.25429,-0.56893 0.77699,-2.10589 -0.57339,-2.8886c-0.0038,-0.00017 -0.97952,-0.41493 -2.65856,-0.49074c-3.08913,-0.13947 -7.99954,0.83896 -13.93363,6.23844c0.95699,0.42608 4.00486,1.66458 7.46317,1.82071c1.01698,0.04592 2.00029,-0.00516 2.9183,-0.15187c1.81671,-0.28962 3.23323,-0.6273 4.37027,-0.89797c2.20354,-0.52495 3.49061,-0.77295 4.68751,-0.14223c0.06341,-0.20967 0.11684,-0.55269 -0.01488,-0.96305z" fill="#000000"/></g><g stroke-width="0.4"><path d="M226.77173,203.40367c0,0 -1.15127,-0.93011 -0.50554,-1.95314c0.64568,-1.02308 1.74022,-1.42584 1.73511,-1.31745c-0.0051,0.10834 9.9184,8.88335 21.95915,0.6123l0.05635,-1.19665c0,0 4.25916,2.17221 2.64122,6.07778c0,0 -2.57173,-0.93522 -5.11302,1.52442c-2.54317,2.45955 -4.94814,7.85081 -23.2466,1.81692c0,0 -1.46818,-0.5344 -0.62752,-1.90062c0.84063,-1.36628 3.23072,-2.60455 3.10084,-3.66355z" fill="#ba2915"/><g fill="#871212"><path d="M229.93196,201.64691c-1.32754,0.90522 -0.55878,2.34416 -0.66458,2.92635c-0.1058,0.58218 -0.30968,1.88635 -1.1269,2.75564c-0.81727,0.86934 -0.98289,2.47856 -0.98289,2.47856l-1.88704,-0.53176c0.2309,-0.45764 0.24257,-1.3343 1.49281,-2.50698c1.2503,-1.17272 1.37903,-2.64789 1.37903,-2.64789c-0.71289,-2.62527 0.94043,-3.11981 0.94043,-3.11981z"/><path d="M233.34596,203.35222c0,0 -0.32817,0.41208 -0.37358,1.37614c-0.0454,0.96401 0.2275,1.92933 -0.39074,2.8769c-0.61825,0.94752 -1.39083,3.28486 -1.39083,3.28486l-1.37773,-0.3234c0,0 0.0766,-0.46932 0.51646,-1.54757c0.43991,-1.07819 1.49276,-1.87603 1.37205,-3.53562c-0.1207,-1.65959 0.53192,-2.89018 0.50328,-2.64811z"/><path d="M236.90754,204.11686c-0.3476,1.29207 -0.31691,1.83737 -0.20052,3.58852c0.11639,1.75114 -0.78109,3.69526 -0.78109,3.69526l-1.32773,-0.14608c0,0 1.16398,-2.10148 0.84771,-3.83171c-0.31622,-1.73023 0.43989,-3.41204 0.44336,-3.48586z"/><path d="M239.54975,204.2455l1.24596,0.05626c0.98515,3.78717 -0.27904,4.78888 -0.27904,4.78888c0.22052,1.65099 -0.86534,2.47916 -0.86534,2.47916l-0.71458,-0.03226c1.13759,-1.31727 0.54331,-2.64442 0.54331,-2.64442c0.84911,-2.15595 0.06973,-4.64855 0.06973,-4.64855z"/><path d="M244.87654,203.37761c1.5446,3.90606 0.30369,5.3675 0.3577,5.55999c0.05406,0.19248 -0.21326,0.71212 -0.21326,0.71212l-1.0662,0.63434c0.45542,-0.77894 0.25803,-1.23624 0.25803,-1.23624c0.99494,-2.97786 -0.71083,-5.28853 -0.71083,-5.28853z"/><path d="M248.66483,201.64265c1.40435,1.05762 1.26596,3.99644 1.26596,3.99644l-1.08075,0.53632c0.54982,-2.80329 -1.08382,-4.06685 -1.08382,-4.06685z"/><path d="M250.01364,199.63655c4.66453,2.88233 2.53929,5.94777 2.53929,5.94777l0.00363,-0.3612c0.39363,-3.36543 -2.36297,-4.35303 -2.36297,-4.35303z"/></g><path d="M252.87952,205.71419l-0.08637,0.20953l-0.21622,-0.07807c-0.00375,-0.00112 -0.36866,-0.12994 -0.94294,-0.15587c-0.97596,-0.04406 -2.44939,0.20303 -3.92086,1.62695c-0.24435,0.23517 -0.48623,0.49853 -0.74206,0.77532c-1.60402,1.74089 -3.80239,4.12521 -10.04925,3.84317c-3.36006,-0.15171 -7.63211,-1.07572 -12.69884,-2.74613c-0.03767,-0.01292 -0.75077,-0.27914 -0.98052,-0.92236c-0.14262,-0.40152 -0.06726,-0.84557 0.22471,-1.32012c0.3747,-0.60753 1.01493,-1.1693 1.63426,-1.71331c0.68709,-0.60276 1.39322,-1.22431 1.43303,-1.70368c-0.00829,-0.00693 -0.01767,-0.01112 -0.02592,-0.01805l0.0086,-0.02021c-0.447,-0.4152 -1.00727,-1.28771 -0.45352,-2.16517c0.60961,-0.96757 1.63661,-1.45857 1.9209,-1.44574l0.2385,0.01076l0.00969,0.13995c0.42649,0.3834 4.37753,3.73907 10.34487,4.00849c3.80841,0.17195 7.55874,-0.97964 11.15086,-3.42178l0.06814,-1.44702l0.33142,0.16942c0.04381,0.02353 4.43204,2.3177 2.75155,6.37392zM250.2371,199.94621l-0.04347,0.92294l-0.09488,0.06597c-3.71089,2.54818 -7.5955,3.74986 -11.54415,3.57158c-5.57235,-0.25159 -9.74471,-3.2531 -10.62112,-4.15203c-0.19277,0.05404 -0.96563,0.42729 -1.46371,1.2183c-0.52694,0.83562 0.4143,1.61764 0.45479,1.65036l0.0737,0.05952l0.004,0.03668c0.38427,0.30569 1.21386,0.8187 2.87927,1.30676c0,0 -1.61158,-0.02689 -2.92825,-0.81469c-0.18904,0.58315 -0.84256,1.16304 -1.53366,1.77028c-0.59335,0.51996 -1.20669,1.05862 -1.54413,1.60602c-0.21431,0.34886 -0.27576,0.65876 -0.18297,0.92131c0.1535,0.43566 0.68511,0.63756 0.69075,0.63969c5.01684,1.65411 9.24534,2.56961 12.56052,2.71929c4.51247,0.20374 6.78041,-0.97825 8.31716,-2.3262c-1.25393,0.25511 -5.09836,0.82766 -8.04694,-0.99615c0,0 4.21893,1.64619 8.63929,0.43593c0.2709,-0.27145 0.52263,-0.54181 0.76443,-0.80335c0.26196,-0.28397 0.50981,-0.55361 0.76019,-0.79506c2.15365,-2.08399 4.41561,-1.81898 5.1377,-1.64221c1.08572,-2.95693 -1.35261,-4.81574 -2.27852,-5.3949z" fill="#000000"/></g></g><g data-paper-data="{&quot;index&quot;:null}" stroke="#000000" stroke-width="0.90024" stroke-linecap="round" stroke-linejoin="round"><path d="M287.59475,187.89278l-0.66722,1.48233c-3.63736,7.46592 -8.25658,11.55777 -8.25658,11.55777c0,0 0.26866,-1.36373 0.37411,-3.58124l-0.12852,-0.05597c-0.4808,1.13299 -1.23568,2.5832 -2.43621,4.35292c-2.63319,3.88665 -9.64309,6.75556 -9.64309,6.75556c0,0 0.53619,-1.36615 0.9917,-3.63565l-0.06456,-0.35809c-0.77492,0.49015 -1.57328,0.93366 -2.37864,1.3632c-0.23706,0.12734 -0.4737,0.25104 -0.71369,0.36999c-0.73076,0.36693 -1.47255,0.71321 -2.22657,1.03171c-0.29778,0.1241 -0.60565,0.23676 -0.90663,0.35435c-0.54913,0.21545 -1.10439,0.41601 -1.66704,0.60804c-0.41313,0.13886 -0.82892,0.2767 -1.25107,0.40233c-0.43723,0.13254 -0.8848,0.24717 -1.33018,0.36833c-0.81816,0.21407 -1.64652,0.40867 -2.49138,0.58138c-0.27562,0.05624 -0.55136,0.11247 -0.83116,0.16301c-0.60134,0.1103 -1.20699,0.21658 -1.82192,0.30434l0.00167,0.00192c-3.0875,0.44552 -6.33936,0.6356 -9.7973,0.56417c-3.74101,-0.07821 -7.11211,-0.38818 -10.24518,-0.85845v0c-2.47903,-0.37338 -4.78826,-0.85544 -6.96469,-1.43032c-0.10531,-0.02729 -0.21156,-0.05556 -0.31777,-0.08292c-0.67245,-0.18233 -1.33337,-0.37167 -1.9806,-0.57061c-0.22574,-0.07109 -0.44116,-0.14571 -0.66575,-0.21841c-0.85898,-0.27505 -1.69173,-0.56773 -2.51151,-0.87364c-0.51815,-0.19383 -1.03248,-0.39103 -1.53411,-0.59692c-0.29824,-0.11974 -0.59701,-0.24409 -0.88846,-0.36864c-0.79565,-0.34324 -1.58368,-0.69024 -2.34537,-1.05753l-0.14776,0.11751c0.12096,2.10817 0.76003,3.2891 1.30113,3.87069c1.10286,1.18728 3.38141,1.63291 3.38141,1.63291c0,0 -7.11344,0.39332 -10.49282,-5.23333c-0.35902,-0.59808 -0.71993,-1.21696 -1.05678,-1.87228l-0.13751,-0.37025c-0.80871,-0.33974 -1.62071,-0.77005 -2.41316,-1.30335c-4.83009,-3.27254 -5.26749,-5.6841 -5.26749,-5.6841l0.03282,0.87358c0.29777,2.29407 0.65399,3.7557 0.65399,3.7557c0,0 -5.75245,-4.25397 -7.97945,-10.11045c-1.79505,-4.72728 -1.73503,-7.4978 -1.71036,-7.96217l-0.0639,-1.672c0.41693,-6.49347 1.44324,-13.73164 2.95798,-20.81142l0.07229,-0.18614c1.27858,-5.46416 1.26694,-14.68928 9.55285,-23.45579c15.52648,-16.42279 29.81957,-14.64917 39.49672,-26.9323c7.11824,-9.03643 6.42347,-20.11862 6.42347,-20.11862c0,0 3.41613,5.67875 4.69359,8.95443c1.23531,3.1918 2.49704,7.27908 2.49704,7.27908l0.05448,-0.02952c0.04508,-0.11254 0.08677,-0.22794 0.12392,-0.3437c0.5768,-1.80322 0.63979,-4.53342 0.63979,-4.53342c0,0 2.79404,10.88706 8.16343,18.31153c5.36606,7.42074 13.80231,10.10128 22.6556,34.7423c1.10217,3.06222 2.14867,5.6492 2.58801,8.45853l0.17037,1.61009c0.52789,5.03097 -1.00203,18.6876 -3.49192,24.43954zM219.97538,158.98043c0,0 -7.64177,6.58642 -8.02015,16.58297c-0.33479,8.84496 1.76729,11.75598 2.96633,12.53927c1.2332,0.80124 3.27135,0.55115 3.27135,0.55115c0,0 -5.91499,2.47893 -10.19696,-1.88273c-2.86424,-2.91567 -5.93588,-6.62628 -6.05721,-16.3997M277.18749,179.59879c0,0 0.66707,2.52138 -1.89718,7.47039c-2.88541,5.57599 -8.09496,6.95086 -8.09496,6.95086c0,0 4.95503,-8.54901 2.13467,-17.19338c-1.23055,-3.77656 -5.75191,-6.88196 -10.54922,-9.20491c-6.50086,-3.14993 -13.50752,-4.86148 -13.50752,-4.86148M278.95554,197.20151c-0.47837,1.14748 -1.2453,2.63333 -2.48092,4.45021c-2.6323,3.88673 -9.64218,6.75563 -9.64218,6.75563c0,0 1.55965,-3.98621 1.62123,-9.64382M202.76783,177.63309c-0.79653,1.19857 -1.44119,2.50045 -1.85852,3.89677c-2.61547,8.70478 -0.15598,18.72594 -0.15598,18.72594c0,0 -5.75077,-4.25214 -7.97944,-10.11055c-1.97504,-5.19922 -1.7045,-8.03136 -1.7045,-8.03136M286.92249,189.38096c-3.63917,7.46577 -8.25748,11.5577 -8.25748,11.5577c0,0 1.53741,-7.74694 -1.29022,-16.39279c-0.12746,-0.39087 -0.27676,-0.7728 -0.43771,-1.14495M245.27418,162.76033c0,0 1.17692,0.40988 4.14243,3.14176c2.96562,2.73188 3.90519,5.5263 3.90519,5.5263c0,0 -9.16963,-3.1777 -14.20499,-5.42619c-5.02978,-2.24982 -22.13039,-8.33341 -22.13039,-8.33341M212.47718,197.15801c2.21082,4.11513 4.67495,6.45617 4.67495,6.45617c0,0 -6.37777,1.38105 -11.81826,-2.30187c-4.8301,-3.27244 -5.26749,-5.6841 -5.26749,-5.6841M267.7576,204.41523c-7.12915,4.50562 -15.46853,6.32079 -25.40774,6.11505c-11.84971,-0.24535 -20.32461,-2.63065 -27.45073,-6.05722M214.73346,203.93968c0.01148,2.51823 0.72273,3.88104 1.31745,4.51878c1.10376,1.18736 3.38232,1.63299 3.38232,1.63299c0,0 -7.11526,0.39318 -10.49373,-5.23341c-0.35902,-0.59808 -0.71993,-1.21696 -1.05678,-1.87228M245.92959,163.11185c0,0 25.42021,5.14945 24.25952,18.87354" fill="#be1e2d"/><path d="M274.72042,188.3281c-1.7925,9.79247 -14.25102,19.15059 -31.29089,18.74613c-15.04409,-0.34899 -36.61076,-8.73493 -38.79437,-21.13393c-0.21577,-1.24583 -0.28552,-2.43775 -0.23598,-3.57356l0.30563,0.25886c0.99844,1.72099 2.15939,2.99783 3.29099,4.14725c4.28211,4.35989 10.1971,1.88096 10.1971,1.88096c0,0 -2.03831,0.25187 -3.2715,-0.54937c-1.19904,-0.78329 -3.30112,-3.6943 -2.96633,-12.53927c0.37852,-9.99831 8.02015,-16.58297 8.02015,-16.58297l0.04382,-0.22695c5.14521,1.85542 15.39262,5.58956 19.09596,7.2468c5.03528,2.24937 14.20499,5.42619 14.20499,5.42619c0,0 -0.93958,-2.79442 -3.90519,-5.5263c-1.48453,-1.36648 -2.51926,-2.15162 -3.18234,-2.59575l0.64392,0.15313c0,0 19.55688,4.47118 22.45545,13.36748c2.81938,8.64518 -2.13376,17.19345 -2.13376,17.19345c0,0 4.43614,-1.17225 7.38338,-5.7311z" fill="#e6e7e8"/></g><path d="M231.15311,180.14925v0v0v0v0v0c0.70541,0.25635 1.06293,1.02319 0.79921,1.71376c-0.26195,0.6925 -1.04147,1.04287 -1.75261,0.78963c-0.04062,-0.01579 -4.16167,-1.47997 -8.38283,-0.63778c-0.12981,0.0252 -0.2574,0.0336 -0.38331,0.0234c-0.58888,-0.04775 -1.10046,-0.47156 -1.2244,-1.06576c-0.07379,-0.34723 0.00642,-0.69179 0.18709,-0.97194c-0.23618,-0.23894 -0.45327,-0.54054 -0.58716,-0.94275c-0.15755,-0.46654 0.10216,-0.97069 0.58036,-1.12402c0.47331,-0.14826 0.99075,0.09731 1.14898,0.56757c0.12519,0.37461 0.56761,0.51497 0.57289,0.51719c0.13078,0.04008 0.24253,0.10987 0.33647,0.19607c0.13649,-0.01661 0.27386,-0.03406 0.40798,-0.04551c-0.12209,-0.21709 -0.23212,-0.4583 -0.2861,-0.74855c-0.08849,-0.48505 0.24056,-0.94528 0.736,-1.03281c0.49944,-0.09167 0.96704,0.23748 1.05477,0.72068c0.07039,0.38625 0.47722,0.59159 0.4807,0.59366c0.1911,0.08168 0.32479,0.22648 0.41751,0.39295c3.25796,0.11505 5.75281,1.00252 5.89446,1.05418z" data-paper-data="{&quot;index&quot;:null}" fill="#231f20" stroke="none" stroke-width="0.90024" stroke-linecap="butt" stroke-linejoin="miter"/><path d="M263.66895,181.68539v0v0v0v0v0c-0.22645,0.77843 -0.75116,1.21198 -1.17119,1.46468c0.07946,0.25749 0.108,0.53585 0.01354,0.81039c-0.24051,0.69781 -0.99806,1.07953 -1.72775,0.84076c-2.7648,-0.91025 -6.39803,-1.45403 -7.19483,-0.78079c-0.28768,0.2419 -0.64688,0.34683 -0.99934,0.31825c-0.34702,-0.02814 -0.67955,-0.18469 -0.92338,-0.46255c-0.49101,-0.55798 -0.42705,-1.40049 0.14466,-1.88301c1.53926,-1.29721 4.53253,-1.01787 6.90392,-0.51481c0.12518,-0.08898 0.3279,-0.27526 0.36958,-0.55239c0.06665,-0.48498 0.49168,-0.86151 1.02156,-0.76308c0.49711,0.06532 0.84525,0.51159 0.77931,1.0002c-0.04423,0.3073 -0.14419,0.56184 -0.26121,0.79168c0.11663,0.03357 0.22807,0.06404 0.33211,0.09668c0.10621,-0.13437 0.23455,-0.24988 0.41109,-0.3088c0.02656,-0.01213 0.44445,-0.17482 0.55447,-0.54822c0.14023,-0.47187 0.63583,-0.75417 1.12444,-0.61006c0.4819,0.13731 0.76069,0.62718 0.62302,1.10104z" data-paper-data="{&quot;index&quot;:null}" fill="#231f20" stroke="none" stroke-width="0.90024" stroke-linecap="butt" stroke-linejoin="miter"/><g data-paper-data="{&quot;index&quot;:null}" stroke-linejoin="miter"><path d="M198.35645,167.13254c-1.23464,12.77741 -3.90577,22.98081 -9.27344,22.48351c-5.36768,-0.49729 -12.40469,-11.60012 -11.17005,-24.37753c1.23464,-12.77741 10.27342,-22.39088 15.6411,-21.89356c5.36768,0.49729 6.03704,11.01018 4.8024,23.78759z" fill="url(#color-1)" stroke="#000000" stroke-width="0.90024" stroke-linecap="butt"/><path d="M185.71078,151.11533l2.38237,-2.60796" fill="none" stroke="#ea42a4" stroke-width="2" stroke-linecap="round"/><path d="M195.49011,156.30603l-3.43326,0.05264" fill="none" stroke="#ea42a4" stroke-width="2" stroke-linecap="round"/><path d="M186.51276,163.36676l0.5774,-1.78908" fill="none" stroke="#ea42a4" stroke-width="2" stroke-linecap="round"/><path d="M185.66428,173.46766l-1.45165,-2.35136" fill="none" stroke="#ea42a4" stroke-width="2" stroke-linecap="round"/><path d="M193.42087,178.49157l1.61566,-0.02477" fill="none" stroke="#ea42a4" stroke-width="2" stroke-linecap="round"/><path d="M187.07842,186.1053l-1.82394,-0.36764" fill="none" stroke="#ea42a4" stroke-width="2" stroke-linecap="round"/><path d="M181.0414,174.92317l1.0509,2.55532" fill="none" stroke="#ea42a4" stroke-width="2" stroke-linecap="round"/><path d="M180.24893,163.265l1.24337,1.95896" fill="none" stroke="#ea42a4" stroke-width="2" stroke-linecap="round"/><path d="M182.75419,155.71011l-0.0253,-1.58203" fill="none" stroke="#ea42a4" stroke-width="2" stroke-linecap="round"/><path d="M196.15563,147.39473l-2.78313,2.8119" fill="none" stroke="#ea42a4" stroke-width="2" stroke-linecap="round"/></g><g data-paper-data="{&quot;index&quot;:null}" stroke-linejoin="miter"><path d="M293.47407,149.81466c5.348,0.67042 12.00713,11.99449 10.34271,24.72508c-1.66443,12.73058 -11.02215,22.04683 -16.37017,21.37643c-5.348,-0.67042 -5.66284,-11.19919 -3.9984,-23.92977c1.66443,-12.73058 4.67785,-22.84214 10.02585,-22.17172z" fill="url(#color-2)" stroke="#000000" stroke-width="0.90025" stroke-linecap="butt"/><path d="M297.64225,156.02639l1.73852,3.05702" fill="none" stroke="#ea42a4" stroke-width="2" stroke-linecap="round"/><path d="M288.67527,162.04184l3.33744,0.79046" fill="none" stroke="#ea42a4" stroke-width="2" stroke-linecap="round"/><path d="M295.68607,168.99283l0.16158,1.86958" fill="none" stroke="#ea42a4" stroke-width="2" stroke-linecap="round"/><path d="M294.40744,180.89886l1.94408,-1.98132" fill="none" stroke="#ea42a4" stroke-width="2" stroke-linecap="round"/><path d="M284.14207,183.75802l1.57056,0.37199" fill="none" stroke="#ea42a4" stroke-width="2" stroke-linecap="round"/><path d="M290.19038,192.92285l1.86186,0.03402" fill="none" stroke="#ea42a4" stroke-width="2" stroke-linecap="round"/><path d="M296.99148,185.58049l1.59892,-2.26655" fill="none" stroke="#ea42a4" stroke-width="2" stroke-linecap="round"/><path d="M300.32828,173.75499l1.65278,-1.64335" fill="none" stroke="#ea42a4" stroke-width="2" stroke-linecap="round"/><path d="M301.23338,164.20227l0.3799,-1.53788" fill="none" stroke="#ea42a4" stroke-width="2" stroke-linecap="round"/><path d="M290.02688,153.20529l2.08367,3.34226" fill="none" stroke="#ea42a4" stroke-width="2" stroke-linecap="round"/></g><path d="M234.34719,189.13685c0,0 1.2912,-1.1376 6.09564,-0.8584c4.80308,0.2829 8.38389,1.21767 8.38389,1.21767c0,0 -0.68678,8.64853 -7.19848,8.22817c-6.51731,-0.41917 -7.28105,-8.58744 -7.28105,-8.58744z" fill="#58595b" stroke="#231f20" stroke-width="0.9025" stroke-linecap="round" stroke-linejoin="miter"/><g stroke-linejoin="miter"><g stroke-linecap="butt"><g stroke="#000000" stroke-width="1"><path d="M250.81202,213.94381h57.71377v23.31617h-57.71377z" fill="url(#color-3)"/><path d="M255.93177,209.66918h57.71377l-5.11976,4.27464h-57.71378z" fill="#9966ff"/><path d="M308.78553,213.91777l4.88706,-4.08032l-0.69816,23.70477l-4.65434,3.78888z" fill="url(#color-4)"/></g><path d="M305.93354,214.76758c0.45703,0 0.82753,0.15467 0.82753,0.34548c0,0.1908 -0.37049,0.34547 -0.82753,0.34547c-0.45703,0 -0.82754,-0.15466 -0.82754,-0.34547c0,-0.1908 0.37051,-0.34548 0.82754,-0.34548z" fill="#b9b9b9" stroke="none" stroke-width="0.5"/><path d="M305.56574,235.95609c0.45703,0 0.82753,0.15466 0.82753,0.34547c0,0.1908 -0.37049,0.34547 -0.82753,0.34547c-0.45703,0 -0.82754,-0.15466 -0.82754,-0.34547c0,-0.1908 0.37051,-0.34547 0.82754,-0.34547z" fill="#b9b9b9" stroke="none" stroke-width="0.5"/><path d="M252.78747,236.26317c0.45702,0 0.82753,0.15467 0.82753,0.34547c0,0.1908 -0.37051,0.34547 -0.82753,0.34547c-0.45702,0 -0.82753,-0.15466 -0.82753,-0.34547c0,-0.1908 0.37051,-0.34547 0.82753,-0.34547z" fill="#b9b9b9" stroke="none" stroke-width="0.5"/><path d="M252.23578,214.61404c0.45702,0 0.82753,0.15466 0.82753,0.34547c0,0.1908 -0.37051,0.34547 -0.82753,0.34547c-0.45702,0 -0.82753,-0.15466 -0.82753,-0.34547c0,-0.1908 0.37051,-0.34547 0.82753,-0.34547z" fill="#b9b9b9" stroke="none" stroke-width="0.5"/></g><g stroke="#000000" stroke-width="1" stroke-linecap="butt"><path d="M255.58258,225.54501c0,-5.03518 4.37562,-9.117 9.77321,-9.117c5.3976,0 9.77321,4.08182 9.77321,9.117c0,5.03518 -4.37562,9.117 -9.77321,9.117c-5.3976,0 -9.77321,-4.08182 -9.77321,-9.117z" fill="#8499b1"/><path d="M258.93339,225.93574c0,-2.94917 2.56285,-5.33996 5.72431,-5.33996c3.16145,0 5.72431,2.39079 5.72431,5.33996c0,2.94917 -2.56286,5.33995 -5.72431,5.33995c-3.16145,0 -5.72431,-2.39078 -5.72431,-5.33995z" fill="#92c5ff"/></g><g stroke="#000000" stroke-width="1" stroke-linecap="butt"><path d="M280.45985,225.57954c0,-5.03518 4.37562,-9.117 9.77321,-9.117c5.3976,0 9.77321,4.08182 9.77321,9.117c0,5.03518 -4.37562,9.117 -9.77321,9.117c-5.3976,0 -9.77321,-4.08182 -9.77321,-9.117z" fill="#8499b1"/><path d="M283.81067,225.97028c0,-2.94917 2.56286,-5.33996 5.72431,-5.33996c3.16145,0 5.72431,2.39079 5.72431,5.33996c0,2.94917 -2.56286,5.33996 -5.72431,5.33996c-3.16145,0 -5.72431,-2.39078 -5.72431,-5.33996z" fill="#92c5ff"/></g><path d="M304.89287,193.73682l-4.14621,17.95772" fill="none" stroke="#000000" stroke-width="2" stroke-linecap="round"/></g></g></g></svg>