<svg version="1.1" xmlns="http://www.w3.org/2000/svg" xmlns:xlink="http://www.w3.org/1999/xlink" width="92.64673" height="123.819" viewBox="0,0,92.64673,123.819"><defs><radialGradient cx="260.79699" cy="166.90298" r="6.99971" gradientUnits="userSpaceOnUse" id="color-1"><stop offset="0" stop-color="#54606d"/><stop offset="1" stop-color="#2c3136"/></radialGradient></defs><g transform="translate(-180.42305,-114.58894)"><g data-paper-data="{&quot;isPaintingLayer&quot;:true}" stroke-miterlimit="10" stroke-dasharray="" stroke-dashoffset="0" style="mix-blend-mode: normal"><path d="M239.36306,199.42731c0.20071,0.76153 0.5995,2.17516 1.03746,4.06224c0.8317,3.5836 2.01482,14.5944 2.01482,14.5944c0,0 8.58905,10.49731 1.71276,12.97503c-7.78838,2.80639 -9.48476,-8.00627 -9.45672,-8.30661c-0.02449,-1.34543 -0.86554,-3.61436 -1.20307,-5.62568c-0.7843,-5.06329 -0.58395,-6.5822 -1.38191,-9.08778c-0.79795,-2.50559 -2.86038,-8.34738 1.09219,-11.09562c3.35703,-2.3982 5.57435,0.37794 6.18446,2.484z" data-paper-data="{&quot;index&quot;:null}" fill="#ffab19" fill-rule="evenodd" stroke="#001026" stroke-width="1.2" stroke-linecap="round" stroke-linejoin="round"/><g fill-rule="evenodd"><path d="M224.79796,198.48915c0.76118,0.42555 2.37869,1.38304 0.09515,5.00023c-2.28354,3.61719 -8.84871,4.3619 -9.60989,4.3619c-2.94957,0.10639 -6.56517,0.10639 -10.56137,-1.38304c-11.60798,-4.25552 -11.70313,-18.19233 -7.99239,-20.42648c3.6156,-2.23414 5.23311,6.38327 10.46621,11.59629c2.28354,2.34054 5.04282,3.19164 7.32635,3.72358c3.23501,0.63833 9.41959,-3.40441 10.27592,-2.87248z" fill="#ffab19" stroke="#001026" stroke-width="1.2" stroke-linecap="round" stroke-linejoin="round"/><path d="M201.20142,189.87173c1.52236,2.87248 4.47192,6.91521 4.47192,6.91521c0,0 -3.52045,-0.95749 -5.51855,0.8511c-1.61751,1.38304 -1.23691,3.72358 -1.04662,4.4683c-1.23691,-1.38304 -2.75928,-3.29803 -3.71075,-7.02161c-0.95147,-3.72358 0,-8.19187 1.90295,-8.8302c1.90295,-0.42555 2.37869,1.17027 3.90104,3.61719z" fill="#ffffff" stroke="none" stroke-width="1" stroke-linecap="butt" stroke-linejoin="miter"/></g><path d="M242.35057,183.70963c0.55714,0.29952 7.90557,6.35784 9.32594,4.03272c1.71869,-2.72797 3.7937,-7.73537 7.90486,-5.14354c4.11118,2.59182 -0.84166,9.95838 -3.16502,12.17957c-5.63947,4.79894 -12.21686,-0.02722 -13.7061,-1.40929c-1.48924,-1.38206 -4.07163,-3.69705 -4.68965,-6.39127c-0.57313,-2.92448 2.40244,-4.43164 4.32996,-3.26818z" fill="#ffab19" fill-rule="evenodd" stroke="#001026" stroke-width="1.2" stroke-linecap="round" stroke-linejoin="round"/><path d="M222.82645,205.85457c0.1055,-2.21064 1.61016,-5.53075 5.4057,-4.17792c4.45152,1.51998 3.80124,7.75823 3.60606,10.40896c-0.19518,2.65073 0.34759,4.06104 0.75355,9.17962c0.13614,2.04075 -0.15509,4.47516 0.13053,5.78243c0.09615,0.28219 0.94226,11.21911 -7.22956,10.74533c-7.21482,-0.41829 -1.32737,-13.03136 -1.32737,-13.03136c0,0 -1.3877,-10.9809 -1.4077,-14.68313c-0.01054,-1.94955 0.0499,-3.4303 0.06881,-4.22392z" data-paper-data="{&quot;index&quot;:null}" fill="#ffab19" fill-rule="evenodd" stroke="#001026" stroke-width="1.2" stroke-linecap="round" stroke-linejoin="round"/><g fill-rule="evenodd"><path d="M227.20161,205.65006c-10.38713,-4.98565 -5.45962,-11.10085 -4.7057,-16.89894c0.81597,-5.02671 2.06635,-4.65361 7.80372,-5.75889c3.18956,-0.805 5.0678,-1.27269 6.98666,-2.214c2.8954,-1.36232 4.0058,3.63204 4.06255,6.45812c0,0 0.02364,4.20864 -0.48007,6.59222c-0.63313,2.89548 -1.185,4.84375 -1.94225,6.19641c0,0 -1.62696,2.90768 -3.67353,3.88953c-1.83965,0.88257 -8.05142,1.73555 -8.05142,1.73555z" fill="#ffab19" stroke="#001026" stroke-width="1.2" stroke-linecap="round" stroke-linejoin="round"/><path d="M238.09331,200.27018c0,0 -1.74242,-0.61706 -3.67631,-1.49365c-2.39168,-1.02128 -4.68067,-1.74476 -3.96628,-5.58745c0.77646,-3.0713 1.19028,-6.89841 6.17792,-5.74208c4.74162,1.03436 3.91061,4.24318 3.91061,4.24318c-0.41272,5.30894 -2.44597,8.58 -2.44597,8.58z" fill="#ffffff" stroke="none" stroke-width="1" stroke-linecap="butt" stroke-linejoin="miter"/></g><path d="M227.00773,120.8758c0.16218,-0.33803 0.62665,-0.49471 0.88984,-0.16944l6.97735,8.73898c0,0 7.47797,1.20396 10.55155,3.3489c5.15062,3.55821 7.25119,7.7313 7.25119,7.7313c0,0 6.90034,-1.58686 10.46192,3.16121c3.56159,4.74807 4.70845,17.08847 -9.41282,29.98123c-14.12126,12.89275 -29.08065,15.67281 -40.14868,8.53175c-11.06803,-7.14106 -7.76225,-25.51658 -7.90734,-24.46515c0,0 -8.01347,-14.44258 -7.58811,-14.45534l11.9474,-0.81046c0,0 3.01515,-3.8503 6.87036,-6.39309c2.26049,-1.59072 4.3645,-2.60562 6.47422,-3.38273z" fill="#ffab19" fill-rule="evenodd" stroke="#001026" stroke-width="1.2" stroke-linecap="butt" stroke-linejoin="miter"/><path d="M252.60512,141.05126c0,0 6.59802,-1.7682 10.15962,2.97987c3.56159,4.74807 4.14864,16.81967 -9.84956,29.51834c-18.07106,16.81862 -34.17657,9.06687 -33.30334,-4.23832c0.82841,-13.39905 14.55877,-10.62127 21.34025,-15.39345c5.8191,-4.07703 3.66728,-10.39037 11.65304,-12.86644z" fill="#ffffff" fill-rule="evenodd" stroke="none" stroke-width="1" stroke-linecap="butt" stroke-linejoin="miter"/><path d="M268.54173,132.86369c-2.24192,5.92134 -8.24027,9.62298 -8.24027,9.62298" fill="none" fill-rule="evenodd" stroke="#001026" stroke-width="1.2" stroke-linecap="round" stroke-linejoin="round"/><path d="M272.46978,144.02613c-5.06371,3.62607 -9.18855,3.79715 -9.18855,3.79715" fill="none" fill-rule="evenodd" stroke="#001026" stroke-width="1.2" stroke-linecap="round" stroke-linejoin="round"/><path d="M239.45118,151.67807c1.76258,-1.05227 3.69875,-1.96696 4.09637,-1.36013c0.71133,1.26377 0.70712,4.64316 -0.59099,5.53874c-1.42117,1.08965 -6.06671,0.84798 -6.78372,-0.65361c-0.6217,-1.07607 1.59968,-2.52284 3.27833,-3.52501z" fill="#001026" fill-rule="evenodd" stroke="#001026" stroke-width="1.2" stroke-linecap="round" stroke-linejoin="round"/><path d="M201.00915,172.81905c0,0 8.47302,-1.68155 12.79991,-0.52602" fill="none" fill-rule="evenodd" stroke="#001026" stroke-width="1.2" stroke-linecap="round" stroke-linejoin="round"/><path d="M215.62936,175.4274c-2.84728,3.75007 -9.55126,6.42575 -9.55126,6.42575" fill="none" fill-rule="evenodd" stroke="#001026" stroke-width="1.2" stroke-linecap="round" stroke-linejoin="round"/><g fill-rule="evenodd"><path d="M244.11203,134.78502c4.45068,2.77004 6.82013,7.50621 5.27667,10.59852c-1.54347,3.09231 -6.34547,3.42646 -10.8801,0.70652c-4.45068,-2.77004 -6.82013,-7.50621 -5.27667,-10.59852c1.49865,-3.18616 6.42941,-3.47658 10.8801,-0.70652z" fill="#ffffff" stroke="#001026" stroke-width="1.2" stroke-linecap="round" stroke-linejoin="round"/><path d="M247.91166,140.66826c0.49296,1.03233 0.22482,2.27784 -0.61452,2.77892c-0.83933,0.50107 -1.91412,0.05731 -2.40707,-0.97503c-0.49296,-1.03233 -0.22482,-2.27784 0.61452,-2.77892c0.83933,-0.50107 1.91412,-0.05731 2.40707,0.97503" fill="#001026" stroke="none" stroke-width="1" stroke-linecap="butt" stroke-linejoin="miter"/></g><g fill-rule="evenodd"><path d="M224.55145,149.83963c4.4898,2.62609 6.74189,7.79413 5.32717,10.93017c-1.91832,3.43669 -6.23876,4.32758 -10.72856,1.70149c-4.57375,-2.57598 -7.29601,-7.82514 -5.67999,-11.44315c1.5712,-3.71187 6.59157,-3.8146 11.08138,-1.18851z" fill="#ffffff" stroke="#001026" stroke-width="1.2" stroke-linecap="round" stroke-linejoin="round"/><path d="M228.96968,156.75146c0.49296,1.03233 0.22482,2.27784 -0.61452,2.77892c-0.83933,0.50107 -1.91412,0.05731 -2.40707,-0.97503c-0.49296,-1.03233 -0.22482,-2.27784 0.61452,-2.77892c0.88414,-0.40723 1.91412,-0.05731 2.40707,0.97503" fill="#001026" stroke="none" stroke-width="1" stroke-linecap="butt" stroke-linejoin="miter"/></g><g fill-rule="nonzero" stroke="#001026" stroke-width="1.2" stroke-linejoin="miter"><g><path d="M251.23599,193.87091l0.90761,-23.47822l12.38568,3.10206l-6.38171,21.29906c0,0 -2.17175,1.32216 -3.28784,1.17313c-1.18379,-0.15808 -3.62374,-2.09603 -3.62374,-2.09603z" fill="#505a63" stroke-linecap="butt"/><path d="M251.68913,168.79726c0.73048,-4.2059 4.40918,-6.84244 8.21659,-5.88887c3.80741,0.95357 6.30174,5.13619 5.57126,9.34208c-0.73048,4.2059 -4.40919,6.84245 -8.2166,5.88887c-3.80741,-0.95357 -6.30173,-5.13619 -5.57125,-9.34211z" fill="url(#color-1)" stroke-linecap="butt"/><path d="M254.51613,176.30227c0,0 -0.03374,-4.91539 0.33128,-7.1551c0.34116,-2.09325 1.79207,-5.87355 1.79207,-5.87355" fill="none" stroke-linecap="round"/><path d="M260.95844,177.76167c0,0 -0.15349,-6.11106 0.05003,-8.46021c0.15038,-1.73569 1.06063,-4.35979 1.06063,-4.35979" fill="none" stroke-linecap="round"/><path d="M251.55728,169.24327c0,0 4.52696,-1.58421 6.93936,-1.5785c2.09876,0.00497 6.72559,1.61084 6.72559,1.61084" fill="none" stroke-linecap="round"/><path d="M252.50549,175.02819c0,0 5.08676,-1.38376 7.41328,-1.64129c1.80853,-0.20018 5.38742,0.22441 5.38742,0.22441" fill="none" stroke-linecap="round"/></g><path d="M262.20723,188.18659c-0.47954,2.80688 -2.95339,4.84482 -5.52554,4.55188c-2.57213,-0.29293 -4.60756,-2.05993 -4.12801,-4.86681c0.47954,-2.80688 3.29245,-5.59072 5.86458,-5.29778c2.57213,0.29293 4.26849,2.80583 3.78896,5.61271z" fill="#ffab19" stroke-linecap="butt"/></g><g fill-rule="nonzero" stroke="#001026" stroke-width="1.2" stroke-linecap="butt" stroke-linejoin="miter"><path d="M213.76392,148.50413c0.79518,4.78844 -12.20108,22.37191 -12.20108,22.37191c0,0 -2.46641,1.32575 -3.65994,1.88334c-8.93863,4.17593 -16.17833,4.39347 -16.87985,0.16909c-0.79518,-4.78844 7.11158,-13.47095 17.6602,-19.39292c10.54863,-5.92198 14.28547,-9.81986 15.08064,-5.03143z" fill="#00b0f7"/><path d="M198.89709,152.09739l-11.52279,2.48531c0,0 9.21264,-13.31021 15.02417,-19.03679c7.02867,-6.92595 24.19494,-19.60917 24.19494,-19.60917l-3.65989,23.77991z" fill="#ff2b2b"/><path d="M199.89031,173.03314c0,0 -5.76778,-5.39784 -7.8592,-8.4475c-2.02896,-2.9586 -4.5076,-9.5856 -4.5076,-9.5856l20.00358,-17.15084c0,0 3.95051,6.89035 6.07026,9.98131c1.99495,2.909 6.29653,8.05177 6.29653,8.05177z" data-paper-data="{&quot;index&quot;:null}" fill="#cc0000"/><path d="M219.54017,156.09837c0,0 -3.87262,-5.57387 -6.17831,-8.17992c-2.44992,-2.76908 -8.1148,-7.97519 -8.1148,-7.97519l21.9399,-24.26843c0,0 5.7954,3.35907 8.1404,6.00955c2.41718,2.73206 6.15269,10.14554 6.15269,10.14554z" fill="#f70000"/></g><path d="M221.77489,207.37953c-1.11175,1.25181 -2.71595,1.96646 -3.66361,1.6647c-1.05624,-0.33633 -2.51211,-2.25455 -2.7813,-4.29433c-0.34242,-2.59452 1.21675,-6.05222 2.25415,-9.91145c0.91512,-3.4043 1.32796,-6.97303 2.7026,-8.97982c1.40885,-2.05675 3.32024,-2.16414 4.53487,-1.77738c1.31132,0.41755 2.45794,1.75599 2.5454,4.64809c0.07259,2.40047 -0.95261,5.87386 -1.79304,9.00035c0,0 -2.09556,7.73176 -3.79903,9.64983z" fill="#ffab19" fill-rule="nonzero" stroke="#001026" stroke-width="1.2" stroke-linecap="butt" stroke-linejoin="miter"/><path d="M237.69133,168.81111c-0.24644,-0.25207 -0.20038,-0.72406 0.09212,-0.944c1.03054,-0.60898 3.5166,-1.69416 5.80978,-4.23091c1.10693,-1.22449 1.75144,-3.57641 2.95916,-4.87612c1.16247,-1.27832 2.83084,-1.6175 3.70737,-2.37779c1.61314,-1.39918 2.06797,-2.74579 2.5092,-3.55579c0.22699,-0.41671 0.76594,-0.38459 0.95854,0.07196c1.14399,2.33806 3.57133,9.75229 -2.85911,16.80182c-5.86878,5.80711 -10.33134,2.41081 -13.17709,-0.88916z" fill="#ffffff" fill-rule="evenodd" stroke="#001026" stroke-width="1.2" stroke-linecap="round" stroke-linejoin="round"/></g></g></svg>