<svg version="1.1" xmlns="http://www.w3.org/2000/svg" xmlns:xlink="http://www.w3.org/1999/xlink" width="76.39844" height="179.80547" viewBox="0,0,76.39844,179.80547"><g transform="translate(-193.67176,-58.19394)"><g data-paper-data="{&quot;isPaintingLayer&quot;:true}" fill-rule="nonzero" stroke="none" stroke-linecap="butt" stroke-linejoin="miter" stroke-miterlimit="10" stroke-dasharray="" stroke-dashoffset="0" style="mix-blend-mode: normal"><path d="M228.89844,222.17039l3.68315,-40.45334l12.91451,-10.74666l8.78942,21.14989l7.98704,22.44855l-15.32712,2.2953l-4.69649,-21.34609l2.60396,28.14877z" fill="#414ca9" stroke-width="0"/><path d="M220.29922,237.99941l1.39844,-10.99922l20.68549,-5.34509l7.77489,9.9702z" fill="#e9caf8" stroke-width="0"/><path d="M198.85769,163.09671l-0.17254,-23.86038l8.88194,4.8803l-5.34243,-9.35916l6.21176,-7.4682l13.30989,33.49842l-7.05961,14.51295z" fill="#e9caf8" stroke-width="0"/><path d="M248.78706,228.76961l-1.88861,-9.82824l13.2298,-5.57333l6.37255,10.68627z" fill="#e9caf8" stroke-width="0"/><path d="M231.66785,166.76961l4.68705,-25.57177l5.08101,-10.56799l4.52614,-0.2852l13.13872,14.16927l-10.32103,5.78608l-0.31189,15.86806l-5.11216,12.86194l-10.83705,3.83408l-17.8974,-10.35289l4.98554,-14.08331z" fill="#8f21c6" stroke-width="0"/><path d="M206.58784,125.53903l-12.91608,-67.34509l76.39844,3.80078l-4.85647,68.83136z" fill="#3d2747" stroke-width="0"/><path d="M216.84515,109.46066c-0.00364,0 -0.00727,0 -0.01091,0c0,0 -0.75,0 -0.75,-0.75c0,-0.75 0.75,-0.75 0.75,-0.75c0.06164,0 0.12328,0.00005 0.18491,0.00014c0.11073,-0.09999 0.27146,-0.17255 0.50475,-0.17255c0.2357,0 0.39732,0.07407 0.50816,0.17566c3.28239,0.00978 6.51215,-0.03972 9.44236,-1.78779c1.87409,-1.11803 3.17339,-3.10361 5.12215,-4.14693c0.46328,-0.24802 1.01824,-0.77886 1.48324,-0.53409c0.51783,0.27258 0.40098,2.48448 0.40098,2.90522c0,6.65006 -1.98798,12.70331 -3.82302,19.00279c-0.90265,3.09867 -3.90717,4.474 -6.42283,2.04478c-4.42897,-4.42897 -4.69544,-10.54682 -7.38187,-15.88457z" fill="#000000" stroke-width="0.5"/><path d="M207.17906,99.16755c0.75,0 0.75,0.75 0.75,0.75c0,0.25799 0,0.5567 0,0.87328c0.40024,0.18627 0.78506,0.38959 1.13112,0.63829c0.4454,0.32009 0.52811,1.00501 0.97121,1.32828c2.27851,1.66233 7.27565,3.03637 10.24607,1.9269c-0.00583,-0.01513 -0.01144,-0.03073 -0.0168,-0.04682c-0.23717,-0.71151 0.47434,-0.94868 0.47434,-0.94868c0.01918,-0.00639 0.03835,-0.01279 0.05753,-0.01921c-0.3633,-0.04318 -0.70892,-0.071 -1.02726,-0.071c0,0 -0.75,0 -0.75,-0.75c0,-0.75 0.75,-0.75 0.75,-0.75c0.96061,0 2.28417,0.31597 3.53255,0.48552c0.17713,-0.12448 0.57021,-0.31411 0.9633,0.07897c0.00564,0.00564 0.01116,0.01129 0.01656,0.01693c0.59473,0.02918 1.14022,-0.01074 1.57989,-0.1795c1.96527,-0.75432 2.03842,-3.24492 4.66574,-3.67054c2.25369,-0.36509 5.31685,1.86467 7.19883,0.34857c1.09381,-1.09564 1.76389,-2.39471 2.72804,-3.59265l0.76164,-0.57869c0,0 0.6,-0.45 1.05,0.15c0.45,0.6 -0.15,1.05 -0.15,1.05l-0.61768,0.45579c-0.97679,1.23077 -1.66233,2.52343 -2.7892,3.64873c-2.67378,1.92467 -5.12819,-0.40323 -7.97358,0.00375c-2.27569,0.3255 -2.41141,2.7998 -4.29977,3.57084c-0.73225,0.29899 -1.65138,0.30746 -2.61415,0.21216l-0.16814,0.14201c-0.47107,0.1766 -0.94327,0.35042 -1.41738,0.51878c0.13658,0.50548 -0.35664,0.80141 -0.35664,0.80141c-3.41223,1.94398 -9.66289,0.74774 -12.72096,-1.58641c-0.47775,-0.36465 -0.59933,-1.0945 -1.09776,-1.43035c-0.0424,-0.02857 -0.0849,-0.05663 -0.12751,-0.08421c0,0.2647 0,0.51397 0,0.73371c0,0 0,0.0707 -0.02171,0.16868c0.00502,0.01844 0.00714,0.02906 0.00714,0.02906c0.35778,2.06752 2.50038,4.46001 3.54271,6.3379c1.75235,3.15711 2.63945,6.81063 4.6464,9.81205c1.37354,2.73883 3.52162,6.75674 6.90694,7.3986c3.08319,0.58458 6.54247,0.33129 9.68576,0.33129c4.9805,0 9.97758,-1.85414 14.86479,-2.74633c1.37879,-0.25171 4.02023,-0.61487 4.75723,-1.90798c-0.66689,0.29633 -1.46856,0.46166 -2.55305,0.46466h-0.51724c0,0 -0.75,0 -0.75,-0.75c0,-0.75 0.75,-0.75 0.75,-0.75h0.51724c2.7696,0.00884 3.11798,-1.1781 4.82726,-2.89624c3.39299,-3.41059 5.12376,-5.53532 6.0317,-10.52521c0.12386,-1.52742 -0.43024,-4.12986 0.71153,-5.33699c2.43352,-2.57281 5.44974,-4.02029 6.50081,-7.76577c1.16414,-4.14842 -0.60584,-8.43562 -2.03518,-12.25482c-1.03489,-2.08327 -2.28163,-4.28522 -2.47557,-6.66003c-0.14056,-1.72114 0.3581,-3.13783 -0.21715,-4.90827c-1.51048,-4.64877 -6.74418,-7.64896 -11.18212,-8.9091c-2.22061,-0.63446 -4.32404,-1.09638 -6.65317,-1.14019c-2.26457,-0.0426 -4.64521,0.85609 -6.88733,0.49723c-1.5984,-0.25583 -3.10979,-1.42903 -4.77145,-1.71313c-3.16349,-0.54086 -6.70107,-0.11617 -9.86836,0.2009c-3.66857,0.36677 -7.72985,0.71206 -10.60369,3.30176c-1.39763,1.25945 -1.58589,3.25139 -2.84135,4.55691c-1.42808,1.48502 -3.97105,0.35665 -5.65888,1.49264c-1.28019,0.86163 -2.46648,2.59157 -3.41096,3.77211c-1.18465,1.75616 -2.58671,3.66282 -1.98534,5.91141c0.35049,1.31052 1.36046,2.18563 1.76049,3.44827c0.94673,2.98822 -0.65977,5.80031 1.60577,8.22888c0.01569,-0.37554 0.02491,-0.75406 0.02367,-1.13659v-0.68966c0,0 0,-0.75 0.75,-0.75c0.75,0 0.75,0.75 0.75,0.75v0.68966c-0.0081,2.84211 -0.67279,5.51832 -0.04323,8.36975c0.4949,1.02544 1.37825,1.5702 2.33633,2.01495v-0.21229c0,0 0,-0.75 0.75,-0.75zM206.42906,103.19341c0,-0.51712 0,-1.03423 0,-1.55135c-1.4617,-0.70805 -2.87122,-1.30059 -3.74988,-3.0253c-0.45484,-2.03626 -0.31776,-3.9525 -0.17896,-5.90391c-0.16951,-0.05471 -0.28406,-0.15017 -0.28406,-0.15017c-3.47775,-2.91901 -1.46719,-5.96273 -2.65766,-9.51836c-0.42578,-1.27168 -1.40354,-2.10715 -1.76747,-3.47509c-0.7247,-2.72395 0.77845,-5.01708 2.23228,-7.16522c1.05861,-1.32332 2.38974,-3.20533 3.83042,-4.15893c1.31879,-0.87292 4.55902,-0.25132 5.3756,-1.26598c1.16946,-1.45316 1.45613,-3.29087 2.90413,-4.61741c3.10191,-2.84173 7.47452,-3.2855 11.46353,-3.68449c3.29377,-0.32903 6.96136,-0.75817 10.24998,-0.19024c1.68467,0.29094 3.27508,1.48756 4.88372,1.73515c2.08912,0.32153 4.43615,-0.57612 6.56094,-0.53725c2.45844,0.04497 4.70129,0.52759 7.04701,1.19779c4.92941,1.41621 10.53072,4.73756 12.19696,9.88887c0.62431,1.9301 0.13349,3.46856 0.28981,5.33509c0.18057,2.15614 1.41689,4.2071 2.35202,6.0986c1.56363,4.16176 3.36931,8.74599 2.10336,13.25721c-0.62832,2.23901 -2.24014,4.49418 -3.92183,6.01606c-0.68166,0.61688 -3.01544,1.9039 -3.14335,2.76449c-0.1941,1.30593 0.00442,2.78024 -0.10411,4.11204c-0.96181,5.29851 -2.83038,7.78698 -6.48382,11.41569c-0.51529,0.5118 -0.94902,0.98243 -1.36491,1.39838c0.11025,0.28308 -0.00802,0.57875 -0.00802,0.57875l-0.32228,0.79724c-0.50145,2.18449 -3.19404,2.86925 -5.22699,3.28035c-5.20789,1.05312 -10.6912,2.9456 -16.00916,2.9456c-3.21322,0 -6.8222,0.29601 -9.96942,-0.35836c-3.86879,-0.8044 -6.31848,-4.90382 -7.92065,-8.11864c-2.00882,-3.02198 -2.90172,-6.6741 -4.66394,-9.84312c-1.16962,-2.10334 -3.1918,-4.44635 -3.69867,-6.76554c0,0 -0.03034,-0.1517 0.00544,-0.33108c-0.02,-0.09389 -0.02,-0.16083 -0.02,-0.16083z" fill="#000000" stroke-width="0.5"/><path d="M247.87673,116.75393c0.08056,0.00261 0.742,0.04551 0.742,0.74983c0,0.75 -0.75,0.75 -0.75,0.75l-0.50782,-0.07918c-0.53987,-0.27238 -1.05113,-0.60404 -1.5353,-0.9663c-1.52712,-1.58361 -0.73682,-2.80508 -1.4084,-4.58993c-1.99814,-5.31037 -0.80364,-11.37494 1.74622,-16.48449c0,0 0.33542,-0.67082 1.00624,-0.33541c0.67082,0.33541 0.33541,1.00623 0.33541,1.00623c-2.38727,4.76484 -3.45696,10.29056 -1.70205,15.23964c0.52432,1.47865 -0.22259,2.87455 1.00538,4.03077c0.33698,0.25355 0.69465,0.48264 1.06833,0.67882z" fill="#000000" stroke-width="0.5"/><path d="M247.59376,135.43799c-0.00216,0.08752 -0.0042,0.17303 -0.00586,0.25611c0.02169,-0.03558 0.04715,-0.07048 0.07706,-0.10337c-0.02354,-0.05198 -0.04723,-0.10285 -0.0712,-0.15273zM248.7213,148.15546l0.87156,-0.19481c1.39672,0 2.7936,-0.00855 4.19021,0.00968c0.50804,-0.175 3.97569,-0.94121 4.04537,-1.50096c0.06455,-0.51851 -1.4167,-2.4434 -1.75731,-2.80605c-2.10717,-2.24354 -4.5126,-4.17914 -6.75756,-6.28055c-0.58604,3.67877 -0.99594,7.30425 -1.03639,11.06283c0.16965,-0.22153 0.44412,-0.29014 0.44412,-0.29014zM247.53698,132.8355c0.72914,0.73687 1.16675,1.3999 1.56051,2.29208c0.1021,0.06018 0.16363,0.12171 0.16363,0.12171c2.5454,2.55584 5.47687,4.74223 7.91774,7.40263c0.67488,0.73558 2.34682,3.08795 2.10945,4.16208c-0.36844,1.66727 -3.95533,2.21203 -5.26497,2.63697c-1.4768,0.01456 -2.95362,0.00968 -4.43048,0.00968l-0.28037,0.08284c0.0163,0.11276 0.02812,0.22543 0.03581,0.33801c0.29261,-0.0888 0.57997,0.05488 0.57997,0.05488c2.0718,1.0642 3.44385,3.5006 4.61805,5.45736c2.38159,3.96884 4.63776,8.36682 6.26312,12.70112c2.25236,5.68244 1.60779,14.52642 -2.11533,19.29505c-1.89005,0.99141 -3.2463,1.6271 -5.45523,1.1941l-0.01715,-0.02582c0.06575,0.20704 0.13064,0.41629 0.19354,0.62857c1.58729,5.35721 3.15541,10.93765 5.65488,15.94078c0.74362,1.8722 2.33914,4.606 2.47428,6.59729c0.04196,0.61831 -0.02051,1.16447 -0.16939,1.64762c0.00029,0.06085 -0.00523,0.09944 -0.00523,0.09944c-0.52106,3.49913 2.98107,7.44319 2.04929,10.61138c-0.71324,2.42512 -6.16911,2.67176 -8.29291,3.73312c-2.39821,1.40233 -5.0644,0.99544 -6.75347,-0.53346c0.68664,1.75895 0.62186,3.51343 -1.55553,5.43485c-0.65812,0.58076 -1.46059,0.99453 -2.26937,1.33553c-1.12636,0.4749 -2.24569,0.67356 -3.44903,0.91382c-3.56446,0.51006 -7.36017,0.59474 -10.83767,1.37471c-1.57787,0.3539 -4.30859,1.40365 -5.95528,0.64793c-1.99354,-0.9149 -2.87226,-3.75388 -2.87678,-5.69291c0.10424,-4.06906 6.31229,-5.79223 9.6937,-7.74172c-3.85715,-2.18671 -1.44994,-6.46878 -0.89335,-10.46575c0.20409,-1.46555 0.26203,-2.96044 0.51255,-4.44059c-0.00192,-2.44956 0.48285,-4.97013 0.68966,-7.41379c0.48569,-5.73909 0.16986,-11.7595 0.16986,-17.52435c0,-0.28736 0,-0.57471 0,-0.86207v-0.17241c0,0 0,-0.44677 0.34483,-0.65067c0,-0.07963 0,-0.15926 0,-0.2389c-1.19025,-0.07788 -2.34479,-0.24015 -3.40802,-0.45452c-4.47473,-1.48593 -8.4411,-3.6943 -12.22603,-6.56564l-0.16956,-0.2098c-0.4987,0.28736 -0.90737,-0.17969 -0.90737,-0.17969c-0.64174,-0.7369 -1.19934,-1.53131 -1.74203,-2.33826c-1.21087,0.54474 -2.6432,0.34645 -4.35975,-1.011c-2.2373,-1.68493 -2.9594,-4.1115 -3.93396,-6.50239c-0.21769,0.28018 -0.60672,0.28018 -0.60672,0.28018l-0.50782,-0.07918c-1.0809,-0.55521 -1.64256,-1.25572 -2.39237,-2.20896c-0.59391,-1.77307 0.04493,-3.13101 -0.25006,-4.87176c-0.19511,-1.15134 -1.24534,-2.25911 -1.21907,-3.4629c0.00438,-0.20053 1.19409,-2.5103 1.27515,-2.68415c0.36982,-0.79314 0.67869,-1.7535 1.20335,-2.47404c-1.01191,-0.92475 -2.54122,-1.26782 -2.96989,-2.87227c-0.5059,-1.89352 -0.04411,-5.54246 2.61924,-5.06807c1.1513,0.20507 1.47391,1.23331 2.22654,1.89713c0.57278,0.5052 1.21887,0.89034 1.87635,1.25857c-0.62313,-0.89619 -1.19268,-1.83651 -1.39099,-2.80117c-0.53274,-2.59153 -0.0188,-6.79605 0.69619,-9.27966c0.63903,-2.21975 2.96376,-3.7826 4.76146,-1.6785c0.96054,1.12426 1.10026,2.81504 1.37,4.19071c-0.02405,3.25101 1.08997,7.37253 2.25261,10.43772c1.1671,3.07695 3.92943,5.72021 3.95793,9.11895c0,0 0,0.27575 -0.16721,0.49285c0.00982,0.65911 0.03231,1.33493 0.05691,2.02116c0.27647,-0.00575 0.49995,0.16186 0.49995,0.16186c3.96016,2.97224 8.20543,5.59834 12.01663,8.78765c0.7771,-1.49436 2.12228,-2.7023 2.68603,-4.29312c0.16931,-0.47776 0.34777,-0.95308 0.53404,-1.42626c0.05018,-1.10609 0.11502,-2.21387 0.11502,-3.33034c0.00699,-3.3911 0.38829,-7.03913 1.27578,-10.32442c1.05319,-3.89863 3.23045,-8.1721 3.20697,-12.26179c0,0 0,-0.75 0.75,-0.75c0.03978,0 0.07745,0.00211 0.11313,0.00611c0.79375,-0.97367 2.07936,-1.25256 3.53289,-1.54327l0.22355,-0.0049c1.22471,-1.60709 2.76346,-2.21917 4.22084,0.24436c0.1291,0.21823 0.22192,0.47659 0.28812,0.75914c0.05285,0.03858 0.08284,0.06857 0.08284,0.06857zM244.13596,132.50376c0,0.49244 -0.32332,0.66155 -0.5454,0.71962c-0.76642,1.47526 -1.54066,3.18379 -1.52357,4.79762c0,0 0,0.75 -0.75,0.75c-0.75,0 -0.75,-0.75 -0.75,-0.75c0.00832,-0.99154 0.53685,-2.91023 1.36206,-4.57981c-0.93661,0.19711 -1.7818,0.53089 -1.94559,1.62345c0,0 -0.05059,0.25295 -0.24078,0.43249c-0.40591,3.79124 -2.2005,7.6055 -3.17602,11.21159c-0.81861,3.02604 -1.20104,6.40706 -1.22292,9.55102c1.02997,-2.1896 2.15489,-4.34802 3.23347,-6.50517c1.06649,-2.11904 1.82844,-4.68809 1.81737,-7.07838v-0.34483c0,0 0,-0.75 0.75,-0.75c0.75,0 0.75,0.75 0.75,0.75v0.34483c-0.0103,2.64033 -0.80782,5.39996 -1.97573,7.7492c-1.64088,3.28176 -3.33981,6.55773 -4.71251,9.93469c-0.02223,0.54288 -0.03763,1.085 -0.0359,1.62645v0.51724c0,0 0,0.75 -0.75,0.75c-0.19036,0 -0.33241,-0.04832 -0.4384,-0.12043c-0.75389,1.20392 -1.77067,2.25735 -2.29772,3.57454c0.28218,0.25206 0.56143,0.50792 0.83741,0.76798l0.41818,0.26593c0,0 0.62404,0.41603 0.20801,1.04006c-0.41603,0.62404 -1.04006,0.20801 -1.04006,0.20801l-0.61631,-0.42372c-4.09175,-3.87766 -8.94051,-6.79557 -13.44152,-10.12094c0.10267,3.42487 0.04812,6.97547 -1.40651,9.91011c-0.5622,1.13422 -1.19838,2.12263 -1.92911,2.8289c0.34613,0.51582 0.69979,1.02513 1.07996,1.51415c0.52918,-0.3094 0.93586,0.19894 0.93586,0.19894l0.62599,0.79204c3.6278,2.67953 7.32621,4.77371 11.56707,6.19298c4.26602,0.84548 10.59497,0.89672 13.50941,-2.98952c1.24995,-1.66673 1.74931,-3.98482 2.49828,-5.87449c0.79853,-1.95439 0.82136,-4.27176 0.9268,-6.41155c-0.09123,-2.75767 -0.00942,-5.53545 0.35402,-8.06585l-0.34643,-0.51769c0,0 -0.41603,-0.62404 0.20801,-1.04006c0.08823,-0.05882 0.1723,-0.09685 0.25163,-0.11879c0.09074,-3.59101 0.10404,-7.18502 0.10405,-10.80689c-0.01187,-2.64223 -0.32474,-5.27501 -0.34481,-7.927c-0.00755,-0.99788 0.1602,-2.53689 -0.27147,-3.47557c-0.38262,-0.83202 -1.17017,-0.84777 -1.68928,-0.31011c0.00807,0.04884 0.01244,0.10172 0.01244,0.15896zM247.3057,175.97736c0.03455,-0.16256 0.07705,-0.32174 0.12619,-0.4781c-0.35585,-1.23727 -0.68159,-2.48105 -0.99011,-3.72007c-0.01613,-0.12871 -0.03206,-0.25811 -0.04778,-0.38816c-0.02281,0.06169 -0.04623,0.12316 -0.0703,0.18438c-0.80932,2.00206 -1.34392,4.42096 -2.67413,6.19447c-2.30567,3.07404 -6.31925,4.07451 -10.20326,4.0678c0,0.78062 0,1.69693 0,2.39022c0,0 0,0.44358 -0.34114,0.64847c0.03291,5.45056 0.26482,11.08184 -0.17866,16.48236c-0.20103,2.44812 -0.68777,4.96009 -0.68966,7.41379c-0.51684,3.14513 -1.45052,6.21798 -1.89962,9.34012c-0.14159,0.98436 -0.193,2.77567 0.50222,3.54399c0.31885,0.35237 0.70834,0.62067 1.14107,0.82496c0.11092,-0.11909 0.28139,-0.21059 0.54336,-0.21059c0.55743,0 0.70055,0.4143 0.7373,0.62705c1.15308,0.24428 2.40647,0.23502 3.40063,0.23502c1.16974,0 2.18802,0.00192 3.34221,-0.16488c1.82747,-0.26062 2.97725,-0.83746 3.66872,-1.64249c-0.01371,-0.22384 0.04367,-0.56897 0.47841,-0.7291c0.9064,-1.85834 0.21502,-4.53612 -0.3015,-7.32201c-0.57691,-3.11165 -0.44844,-6.40097 -0.71644,-9.55403c-0.77355,-7.76115 -1.23882,-16.51452 -0.14491,-24.25391c0,0 0.08397,-0.58779 0.62548,-0.64267c0.16034,-0.32479 0.34327,-0.62867 0.55147,-0.90816l0.60942,-0.39323c0,0 0.67082,-0.33541 1.00623,0.33541c0.33541,0.67082 -0.33541,1.00623 -0.33541,1.00623l-0.08024,-0.04841c-1.22456,1.61984 -0.88448,3.46608 -0.88448,5.41207c0,3.04598 0,6.09195 0,9.13793c0,4.1896 0.4962,8.61356 1.6188,12.66538c0.95673,3.45311 2.90215,6.52689 4.08777,9.86326c0.15486,0.01143 0.27408,0.05719 0.36585,0.12088c2.96027,-0.42173 5.06677,-0.26541 7.82369,-1.75905c0.87107,-0.47193 1.80406,-1.19704 1.67819,-2.35293c-0.20541,-1.88639 -1.63843,-4.38962 -2.3533,-6.16133c-2.53159,-5.05855 -4.11885,-10.71065 -5.72443,-16.12818c-0.57957,-1.95557 -1.27983,-3.67151 -1.39422,-5.69452c-1.1183,-2.25904 -2.00213,-4.64571 -2.75052,-7.07361c-0.66564,-0.17473 -0.52691,-0.86836 -0.52691,-0.86836zM249.72499,170.6073c0.90985,-3.95325 -0.36212,-8.01805 -2.04481,-11.60265c-0.06943,1.58442 -0.15783,3.1701 -0.27025,4.75917c-0.01821,0.25746 -0.03409,0.51735 -0.04887,0.77904c0.07641,2.39564 0.28567,4.77687 0.55529,6.96133c0.16194,0.645 0.32836,1.29141 0.50128,1.93749c0.52305,-0.90203 1.06891,-1.79836 1.30735,-2.83438zM212.35148,168.13307c0.59357,0 0.71737,0.46977 0.74319,0.66573c0.27655,0.37779 0.5408,0.76393 0.8008,1.15259c0.51117,-0.57297 0.95795,-1.3783 1.40533,-2.2647c1.99199,-3.94677 1.12826,-9.36114 1.12826,-13.6312c0,0 0,-0.24496 0.13999,-0.45489c-0.31621,-2.81301 -2.84074,-5.36646 -3.82767,-7.95877c-1.22333,-3.21326 -2.32052,-7.41499 -2.34316,-10.82278c-0.12004,-0.58692 -0.16518,-1.18984 -0.32074,-1.76836c-1.36366,-5.07139 -3.10121,0.87529 -3.36095,2.82058c-0.56198,4.20891 0.2294,6.08596 2.38919,9.54338c1.30837,1.67321 2.11737,3.4595 2.90762,5.43127l0.10235,0.20065c0.09589,0.12641 0.16847,0.30111 0.12607,0.52412c-0.01135,0.14403 -0.06678,0.30146 -0.21578,0.43517c-0.13371,0.149 -0.29114,0.20443 -0.43517,0.21578c-0.22154,0.04211 -0.39541,-0.02923 -0.52162,-0.12418c-1.94198,-0.98174 -4.21878,-2.48696 -6.43585,-2.6379c-0.00048,-0.00003 -0.00096,-0.00006 -0.00144,-0.0001c-0.03509,0.09716 -0.09757,0.19796 -0.19837,0.29876c-0.21735,0.21735 -0.43469,0.25654 -0.61553,0.2271c-0.46248,0.65445 -0.76748,1.73438 -0.95855,2.14433c-0.34178,0.7333 -1.14031,1.33441 -1.13864,2.14344c0.00198,0.95781 1.0353,2.12029 1.19473,3.08882c0.25514,1.55001 -0.40777,2.91912 0.09476,4.43859c0.51942,0.63447 0.89772,1.13094 1.59066,1.50514c0.01203,0.00039 0.03685,0.00168 0.0704,0.00589c-0.07468,-0.1583 -0.15187,-0.31583 -0.23208,-0.47238l-0.07918,-0.50782c0,0 0,-0.75 0.75,-0.75c0.75,0 0.75,0.75 0.75,0.75l-0.03375,-0.06947c1.26359,2.62631 1.74737,5.72963 4.22582,7.58002c1.05753,0.85758 1.89441,1.10211 2.59659,0.9337c-0.2897,-0.42868 -0.58535,-0.85429 -0.89728,-1.27011l-0.15,-0.62241c0,0 0,-0.75 0.75,-0.75zM224.87044,228.79341c-0.97084,0.72881 -1.99521,1.19427 -1.94138,2.50345c-0.00348,1.32506 0.53894,3.67699 1.95081,4.30709c1.29499,0.57794 3.85118,-0.46088 5.0792,-0.73138c3.50521,-0.77211 7.30075,-0.87254 10.88647,-1.38391c1.08458,-0.2173 2.08944,-0.394 3.1027,-0.81031c0.66516,-0.27329 1.33309,-0.59826 1.86856,-1.07826c3.12678,-2.80286 0.2577,-5.59237 -1.3954,-8.52644c-0.20029,0.15006 -0.41982,0.29175 -0.66006,0.42423c-1.16222,0.6409 -2.26339,0.77182 -3.54518,0.95524c-1.47954,0.20912 -2.92263,0.18401 -4.41641,0.17995c-1.00005,-0.00272 -2.01807,-0.09118 -2.97637,-0.37713c-0.00211,-0.00063 -0.00421,-0.00126 -0.00632,-0.00189c-2.4746,1.79919 -5.47824,2.68635 -7.94662,4.53937zM248.25383,222.33124c-0.7196,3.82199 2.97685,6.13584 6.15054,4.17023c1.90262,-0.95176 3.5036,-1.36549 5.54932,-1.80019c0.56435,-0.11992 1.85022,-0.26659 2.01984,-1.01842c0.20274,-0.89867 -0.5398,-2.32903 -0.84352,-3.16252c-0.60979,-1.67341 -1.15602,-3.35706 -1.29779,-5.09525c-2.35119,1.67067 -6.54771,1.74963 -8.98562,2.06553c-0.1853,2.3061 -2.21811,2.85073 -2.59276,4.84062zM246.79396,221.98661c0.42327,-2.04763 2.4767,-2.479 2.56334,-4.67105c-0.03971,-0.04461 -0.07497,-0.09722 -0.10292,-0.15928c-0.27099,-0.14373 -0.37303,-0.44983 -0.37303,-0.44983c-1.09444,-3.33257 -3.03311,-6.37617 -4.07776,-9.76465c0.07406,2.03596 0.14606,4.084 0.51892,6.04863c0.52359,2.75879 1.83613,6.47447 0.16037,8.97568c0.3511,0.79016 0.79864,1.55157 1.24933,2.29598c-0.11699,-0.70097 -0.10585,-1.46468 0.06175,-2.27548zM247.89822,150.61271c0.00046,-0.00937 0.0009,-0.01872 0.00129,-0.02807c-0.00033,0.00017 -0.00065,0.00034 -0.00098,0.00051c-0.0001,0.00919 -0.00021,0.01837 -0.00031,0.02756zM208.20046,147.17202c-1.32615,-1.34973 -3.21084,-1.8451 -4.62715,-3.07683c-0.57411,-0.49929 -0.78509,-1.27627 -1.56656,-1.55115c-1.23264,-0.43358 -0.86848,3.28676 -0.44343,3.8085c0.65627,0.80554 1.54749,1.11345 2.28779,1.75254c0.21006,-0.07798 0.44245,-0.12775 0.70125,-0.14333c1.71359,-0.1032 3.66515,0.87929 5.38509,1.81916c-0.37283,-0.82563 -0.77834,-1.61361 -1.26518,-2.37798c-0.27439,-0.03348 -0.47182,-0.23091 -0.47182,-0.23091z" fill="#000000" stroke-width="0.5"/></g></g></svg>