<svg version="1.1" xmlns="http://www.w3.org/2000/svg" xmlns:xlink="http://www.w3.org/1999/xlink" width="416.21044" height="96.58559" viewBox="0,0,416.21044,96.58559"><g transform="translate(-32.48925,-244.81983)"><g data-paper-data="{&quot;isPaintingLayer&quot;:true}" fill="#ffffff" fill-rule="nonzero" stroke="#000000" stroke-width="2" stroke-linecap="butt" stroke-linejoin="miter" stroke-miterlimit="10" stroke-dasharray="" stroke-dashoffset="0" style="mix-blend-mode: normal"><path d="M40.8327,335.40541c0,0 -8.03706,-6.71081 -7.29506,-15.95835c1.26705,-15.79109 11.60772,-38.97903 11.60772,-48.78039c0,-8.53926 -4.31267,-20.84684 -4.31267,-20.84684c0,0 78.01122,-4 129.57909,-4c45.01651,0 134.89893,8.50675 198.45025,9.67072c39.99492,0.73252 70.21231,-5.67072 70.21231,-5.67072c0,0 8.62533,11.30758 8.62533,19.84684c0,9.51673 -10.78147,32.02878 -13.28899,48.05213c-1.58737,10.14346 4.66366,17.68662 4.66366,17.68662c0,0 -35.88121,5 -66.50635,5c-34.26045,0 -129.2911,-5.2545 -203.778,-6.50675c-74.21941,-1.24775 -127.95732,1.50675 -127.95732,1.50675z"/></g></g></svg>