<svg version="1.1" xmlns="http://www.w3.org/2000/svg" xmlns:xlink="http://www.w3.org/1999/xlink" width="105.31507" height="191.46255" viewBox="0,0,105.31507,191.46255"><g transform="translate(-193.60879,-73.75269)"><g data-paper-data="{&quot;isPaintingLayer&quot;:true}" fill-rule="nonzero" stroke-width="2" stroke-linejoin="miter" stroke-miterlimit="10" stroke-dasharray="" stroke-dashoffset="0" style="mix-blend-mode: normal"><g><path d="M247.02677,163.88523l10.40597,16.90498l9.20821,-4.58491c0,0 3.07262,-5.57764 0.15338,-10.50186c-2.73166,-4.60781 2.11324,-8.15743 4.6923,-6.29344c2.57906,1.86399 4.60562,11.45811 4.60562,11.45811c0,0 8.75019,-6.79952 16.4257,-8.15147c7.67551,-1.35195 6.2147,8.20627 1.57584,8.23585c-4.57573,0.02918 -8.22435,2.82579 -8.22435,2.82579c0,0 9.66051,-1.98034 12.02019,2.1395c0.60342,1.05354 1.8625,4.5007 -0.13869,7.99491c-0.30127,0.52603 1.40086,10.67319 -7.22299,7.07345c-5.45691,-2.27781 -14.51319,-1.36653 -14.51319,-1.36653c0,0 -20.68642,11.13203 -23.20071,5.46369c-3.21883,-7.25667 -7.19521,-21.1847 -7.19521,-21.1847" fill="#6b542b" stroke="#001026" stroke-linecap="round"/><path d="M287.21018,181.99145c-1.77901,0.01637 -3.5645,-0.02871 -5.35546,-0.06051c1.18762,-0.29548 2.36293,-0.70833 3.22295,-1.17803c0.92931,-0.63247 3.41838,0.46451 5.16594,1.32376c-1.00548,-0.03949 -2.01798,-0.09457 -3.03342,-0.08522z" fill="#001026" stroke="none" stroke-linecap="butt"/></g><g stroke-linecap="round"><path d="M239.02641,195.81762c0,0 6.34735,22.756 -3.03853,36.77575c-8.50825,12.70881 -23.21587,16.42282 -33.19549,11.67456c-12.92005,-6.1473 -9.0868,-20.34336 1.42221,-21.38046c10.52162,-1.03835 17.23852,6.59216 23.57607,1.66406c6.33755,-4.92811 11.23575,-28.73388 11.23575,-28.73388z" fill="#422b16" stroke="none"/><path d="M218.12905,232.16283c-1.26941,3.80081 -0.7398,12.4123 7.24953,8.53228c8.59619,-4.17475 15.47398,-15.36812 10.6093,-8.10176c-8.50825,12.70881 -23.21586,16.42281 -33.19548,11.67455c-12.92005,-6.1473 -9.0868,-20.34336 1.42221,-21.38046c10.52162,-1.03835 14.8294,7.06563 21.16695,2.13752c2.98357,-2.32003 2.94535,0.12246 0.921,0.74461c-2.27568,0.6994 -6.47713,1.31403 -8.17349,6.39325z" fill="#b69d78" stroke="none"/><path d="M239.02641,195.81762c0,0 6.34737,22.75599 -3.03853,36.77575c-8.50825,12.70881 -23.21587,16.42282 -33.19549,11.67456c-12.92005,-6.1473 -9.0868,-20.34336 1.42222,-21.38046c10.52162,-1.03835 17.05086,6.32687 23.38841,1.39876c6.33755,-4.92811 11.4234,-28.46859 11.4234,-28.46859z" fill="none" stroke="#001026"/></g><path d="M252.05451,183.50342c0.01489,4.12455 -0.52319,8.05434 -0.97611,13.19535c-1.48786,16.88809 -3.49518,35.75899 -3.49518,35.75899c0,0 8.38352,0.47999 13.66229,1.75734c5.3805,1.30195 6.93631,8.37332 1.24203,10.54401c-5.69428,2.17069 -28.30474,1.676 -29.31182,-4.26781c-0.81835,-4.82985 4.7197,-43.43128 4.7197,-43.43128" fill="#422b16" stroke="#001026" stroke-linecap="round"/><g><g><path d="M231.79098,181.41272c0,0 -1.96561,-5.38942 -2.58891,-8.86531c-0.7783,-4.34032 2.41848,-11.00103 8.03499,-12.05917c12.89768,-2.42991 14.00753,16.67247 14.00753,16.67247c0,0 1.93085,6.16466 -0.01834,12.58351c-2.6168,8.61734 -15.01314,7.5301 -17.49365,3.72355c-4.03639,-6.19417 -1.94161,-12.05506 -1.94161,-12.05506z" fill="#6b542b" stroke="#001026" stroke-linecap="round"/><path d="M246.49711,167.24676c3.01561,4.11244 4.09027,13.69242 3.94694,17.98992c-0.19938,5.97788 -4.17732,6.58764 -6.33143,6.6735c-5.23452,0.20863 -7.28966,-2.11524 -5.9851,-8.45243c0.25624,-3.04154 -3.04676,-8.1502 -1.89902,-13.25747c1.14773,-5.10728 9.08946,-4.56154 10.26861,-2.95352z" fill="#dac3a1" stroke="none" stroke-linecap="butt"/></g><path d="M230.58852,156.69671c-0.99811,-1.68895 9.68274,-2.99984 9.48253,-2.14795c-0.38072,1.61998 -1.0054,3.41605 -0.04031,4.02237c-0.0002,0.00293 -0.00036,0.00588 -0.0005,0.00888c-0.01104,0.25081 0.23712,0.26195 0.23712,0.26195l0.12359,-0.00405c0.08841,0.02919 0.1786,0.0533 0.26997,0.0739c0.57287,0.26109 1.19797,0.41749 1.8774,0.43163c2.89054,1.41098 4.13478,2.14538 5.39286,5.22668c-0.82458,-1.64279 -3.07972,-3.97965 -5.14058,-4.64388l0.02491,-0.07555l-0.46581,-0.15691c-0.02625,-0.00954 -0.05455,-0.01474 -0.08405,-0.01474c-0.13719,0 -0.24841,0.1124 -0.24841,0.25105c0,0.04217 0.01028,0.0819 0.02846,0.11679l0.16337,0.33021l0.00278,-0.00142l0.00255,0.01161c0.78009,1.25826 1.48108,3.29802 2.74472,4.45693c-1.72959,-0.68355 -4.15795,-1.38085 -3.90927,-0.45036c0.3611,0.72978 0.85455,1.24457 1.39345,1.68861c-1.744,-1.3682 -4.11373,-2.45406 -5.65261,-2.31312c-0.28189,2.6331 0.34915,3.82433 1.61683,5.99394c0.08145,0.1394 0.15646,0.3419 0.23039,0.56764c-1.36758,-2.0985 -3.89061,-5.03305 -5.63333,-5.24301c-0.08827,0.64679 -0.21611,1.41939 -0.3275,2.24616c-0.11695,-0.37583 -0.2645,-0.72536 -0.45632,-1.03689l0.09412,-0.06341l-0.27344,-0.41453c-0.04424,-0.06921 -0.12123,-0.11503 -0.20882,-0.11503c-0.13719,0 -0.24841,0.1124 -0.24841,0.25105v0v0.5021c0,1.16792 -0.45854,2.5566 -1.11874,3.54467c-0.12529,0.18751 -0.35386,0.41117 -0.53035,0.64528c0.0706,-2.56415 0.65546,-4.9622 0.65546,-7.53725c0,0 0,-0.25105 -0.24841,-0.25105c-0.00315,0 -0.00626,0.00004 -0.00932,0.00012c0.0081,-0.29957 0.033,-0.59015 0.08548,-0.86295c0.14928,-0.77603 1.1109,-0.76439 1.42547,-1.5584c0.15159,-0.38263 -0.40052,-2.29462 -1.2553,-3.74102zM245.10546,168.36867c0.34362,0.46284 0.31881,0.85241 0.34176,1.22603c-0.31008,-0.44378 -0.61148,-0.89378 -0.99282,-1.27578c-0.33599,-0.67913 -0.99523,-1.4073 -1.81351,-2.07802c0.84441,0.6603 1.77156,1.19431 2.46457,2.12777z" fill="#001026" stroke="none" stroke-linecap="butt"/></g><path d="M243.15639,196.64159l-1.65604,41.17185c0,0 6.6297,5.82312 11.67505,12.46871c5.95318,7.84138 -6.14228,16.33244 -16.06355,13.30554c-7.60416,-2.31997 -9.30025,-10.74848 -11.42664,-19.91646c-0.83765,-3.61157 0.38594,-12.71746 1.94289,-26.66945c1.26154,-11.30479 2.74194,-27.42949 3.52203,-33.41468" fill="#6b542b" stroke="#001026" stroke-linecap="round"/><path d="M230.82094,174.17332l-6.5684,15.92114c0,0 10.96352,-3.59656 11.04069,3.04977c0.07716,6.64633 0.80907,13.57198 -6.31556,16.15515c-7.12463,2.58317 -15.26373,-4.66596 -20.8404,-6.92855c-12.32057,-4.99876 23.07039,-37.97458 23.07039,-37.97458" fill="#6b542b" stroke="#001026" stroke-linecap="round"/><g><g fill="#001026" stroke="none" stroke-linecap="butt"><path d="M290.96809,137.83893l-0.47669,-0.54339c-0.71097,-0.89786 -1.15081,-2.34062 -2.168,-2.93707c-2.35251,-1.37943 -4.97495,-2.17176 -7.487,-3.10689c-1.44538,-0.53805 -2.70714,-1.50735 -4.3195,-1.31897c0,0 -0.74656,0.07175 -0.8183,-0.67481c-0.07174,-0.74657 0.67481,-0.8183 0.67481,-0.8183c1.90928,-0.15537 3.2497,0.75896 4.95804,1.39613c2.59667,0.9685 5.40484,1.76527 7.8001,3.25917c1.23064,0.76753 1.66555,2.18981 2.53212,3.26491l0.43086,0.48868c0,0 0.49526,0.56323 -0.06796,1.05849c-0.56322,0.49526 -1.05848,-0.06796 -1.05848,-0.06796z"/><path d="M284.71111,146.36277l-0.05882,-0.75352c-1.66988,-3.11335 -3.94881,-6.94631 -6.84944,-9.05705c0,0 -0.60565,-0.44237 -0.16329,-1.04802c0.44237,-0.60565 1.04802,-0.16328 1.04802,-0.16328c3.13662,2.29873 5.67333,6.41213 7.40375,9.84509l0.1129,1.0333c0,0 0.07175,0.74656 -0.67481,0.8183c-0.74657,0.07174 -0.8183,-0.67481 -0.8183,-0.67481z"/></g><path d="M238.58093,91.07894l21.15257,-13.78624c0,0 17.06092,22.85044 19.57497,46.13938" fill="#422b16" stroke="#001026" stroke-linecap="round"/><g stroke-linecap="butt"><path d="M202.63473,126.68036c0.13124,-19.08354 15.95777,-36.06127 36.98668,-36.63469c20.8185,-0.56769 35.69767,8.35664 40.41602,34.47438c0.07557,0.41826 4.35622,3.74264 4.15179,10.38155c-0.55254,17.94374 -20.71755,21.66652 -39.14687,21.53978c-20.82806,-0.14324 -42.53886,-10.67746 -42.40762,-29.761z" fill="#6b542b" stroke="none"/><path d="M254.67343,132.93208c0,0 12.95062,-7.6564 23.40285,-8.12637c0.07557,0.41826 9.69039,2.54493 9.48597,9.18384c-0.60089,11.95487 -17.26077,19.78208 -33.51034,21.88399c-3.05413,0.39506 -9.104,2.06719 -12.01979,2.04714c-4.00299,-0.02753 -5.03446,-2.11734 -8.87139,-3.16111c-16.12716,-4.38711 -28.63648,-16.42877 -19.44502,-25.0112c8.18916,-7.64655 40.95774,3.18371 40.95774,3.18371z" fill="#dac3a1" stroke="none"/><path d="M202.63473,126.68036c0.13124,-19.08354 15.95777,-36.06127 36.98668,-36.63469c20.8185,-0.56769 35.69767,8.35664 40.41602,34.47438c0.07557,0.41826 7.64637,1.55645 7.71056,9.65785c0.08517,10.75151 -13.84042,19.30087 -34.33958,21.663c-2.68174,0.30902 -6.97301,2.38702 -11.4602,2.16256c-4.48719,-0.22446 -11.16981,-2.94996 -12.77352,-3.37481c-14.68502,-3.89027 -26.6374,-13.77692 -26.53994,-27.94828z" fill="none" stroke="#001026"/></g><path d="M251.73039,133.43174c-0.47364,-0.10924 -0.88655,-0.3942 -1.27719,-0.70455c0.02455,-0.02539 0.04751,-0.05935 0.06739,-0.10429c0.12284,-0.27766 -0.11804,-0.41857 -0.11804,-0.41857c-1.5784,-0.91614 -5.63889,-0.9451 -6.10821,-3.32268c-0.13012,-0.6592 0.23369,-1.56038 0.2375,-2.25924c0.46242,-2.27785 0.16841,-4.7322 0.26384,-7.05214c1.24084,-2.77948 3.25519,-2.92461 4.79185,-6.15255c0.33155,-1.66062 4.6267,-5.21699 6.62723,-0.55922c0.14896,0.34681 0.35677,0.59658 1.6544,0.16281c0.72017,-0.24073 1.88372,0.62287 3.08479,1.73877c1.20106,1.1159 1.66582,2.55574 1.72548,2.73042l0.19723,0.08307c0.03392,2.80504 1.14028,6.00644 0.19,8.60849l0.90265,1.23084c-0.97446,3.24107 -4.81159,4.50902 -7.68165,5.15212c-1.45761,0.3312 -3.01854,1.22159 -4.55727,0.86672z" fill="#4c3015" stroke="none" stroke-linecap="butt"/><path d="M267.79351,107.48244l-0.417,0.20318c0.10599,0.36624 -5.68714,8.21621 -5.68714,8.21621c0,0 -0.68449,-9.27218 -0.21836,-11.27558c0.04163,-0.17892 1.22905,-2.11337 1.31803,-2.25733c0.74159,-1.19973 2.77626,-1.14371 5.12704,1.04444c1.45258,1.35209 2.87704,2.07814 3.00578,2.51214c-0.11308,0.1973 -3.12835,1.55693 -3.12835,1.55693z" fill="#4c3015" stroke="none" stroke-linecap="butt"/><path d="M267.62937,103.76059c0.11335,-0.22283 0.33617,-0.10949 0.33617,-0.10949l0.33219,0.16896c1.89218,0.96242 3.23024,2.60609 4.17244,4.4954c0.71555,0.73621 1.38018,1.55287 1.5786,2.37714c0.09917,0.41199 0.01551,0.8222 0.00714,1.22724c0.161,0.66212 0.3306,1.33783 0.51792,2.00451c0.07555,0.23083 0.14362,0.46772 0.20735,0.70803c0.29178,0.95379 0.62772,1.87171 1.03571,2.68484c0,0 0.05092,0.10359 0.01314,0.2046c0.01079,0.03858 0.0113,0.06809 0.0113,0.06809l0.00269,0.322c0.68985,2.08413 1.12669,4.27719 1.24385,6.47163c0.19346,0.50502 0.19927,1.10089 0.195,1.72245c-0.03324,1.38508 -1.36106,2.46893 -2.88043,3.42682c-0.86542,0.78322 -1.90852,1.4816 -2.8492,1.94388l-0.32866,0.00169c-0.27664,0.19665 -0.52214,0.39334 -0.72366,0.59211c-2.20164,2.09813 -4.43437,1.1932 -5.74097,-0.64844c-1.2253,-1.10805 -1.98959,-2.75185 -1.98362,-4.41541c0.00076,-0.11124 0.00153,-0.22248 0.0023,-0.33373l0.00115,-0.16667c0,0 0.00107,-0.15598 0.12472,-0.22068c-0.33221,-0.7205 -0.41469,-1.56675 -0.39702,-2.46068c-0.37295,-1.59982 -0.84554,-3.2066 -0.84278,-4.82632c0,-0.00011 0,-0.00017 0,-0.00017c0,0 0.00001,-0.0012 0.00011,-0.00344l0.00847,-0.2724c-1.02043,-2.07646 0.31262,-5.20971 -0.44242,-7.4816c0,0 -0.07742,-0.23771 0.16029,-0.31514c0.20047,-0.06529 0.28694,0.09354 0.30911,0.14491c-0.00069,-0.01162 -0.00137,-0.02322 -0.00201,-0.03483c-0.0687,-0.53211 -0.07599,-1.09339 -0.02361,-1.65848c-0.00094,-0.21901 0.01259,-0.43365 0.05727,-0.62552c0.00253,-0.10606 0.00444,-0.21365 0.00547,-0.32306l0.00296,-0.43017c0.00095,-0.13807 0.11365,-0.24922 0.25171,-0.24827c0.00014,0 0.00029,0 0.00043,0c0.65177,-2.15191 2.1958,-3.985 4.52822,-3.96895c0.39283,0.00661 0.7521,0.06122 1.08377,0.15565c-0.01311,-0.04809 -0.01047,-0.10696 0.02488,-0.17649z" fill="#001026" stroke="none" stroke-linecap="butt"/><path d="M202.86202,129.38424c-4.33569,-24.94568 21.02145,-54.30645 21.02145,-54.30645l22.4267,15.1133" fill="#6b542b" stroke="#001026" stroke-linecap="round"/><path d="M249.43296,133.0398c-0.2453,-2.46816 10.25209,-3.07764 10.59164,-1.19546c0.2511,1.39187 -1.4629,0.81262 -2.58267,1.88231c-0.58779,0.5615 -1.4443,2.20538 -2.07365,2.30239c-0.88871,0.137 -1.44461,-1.1103 -2.60231,-1.66269c-1.23265,-0.58815 -3.1945,0.06706 -3.33301,-1.32656z" fill="#001026" stroke="none" stroke-linecap="round"/><path d="M220.71666,132.38956c-1.68149,-0.0051 -3.21455,-0.66321 -4.7631,-0.69795c0.16161,-0.57752 0.27836,-1.19172 -0.07012,-1.64408c-0.41489,-1.70016 -1.32625,-5.12636 0.85145,-5.85463c1.79988,0.02166 2.6425,1.00741 3.39869,2.40363c-0.15249,0.13576 0.27346,1.13167 0.27346,1.13167c0.99239,1.49134 0.41571,3.26726 1.78864,4.45106c-0.48021,-0.00583 -1.01078,0.21173 -1.47904,0.21031z" fill="#fff9f0" stroke="none" stroke-linecap="butt"/><path d="M215.92163,131.73009c0.16161,-0.57752 0.26755,-1.20425 -0.08092,-1.65661c-0.41489,-1.70016 -1.30579,-5.19708 0.87191,-5.92536c1.79989,0.02167 2.69607,1.01317 3.45225,2.40939c-0.15249,0.13576 0.28945,1.15436 0.28945,1.15436c0.99239,1.49135 0.40147,3.3211 1.7744,4.5049c-0.48021,-0.00582 -1.02239,0.21939 -1.49066,0.21797c-1.68149,-0.00511 -3.26788,-0.66992 -4.81644,-0.70466z" fill="#dac3a1" stroke="none" stroke-linecap="butt"/><path d="M223.57798,132.62579c-0.24999,-0.00172 -1.72716,-1.26539 -1.90217,-1.53169c-1.67453,-2.97487 -0.75482,-5.4077 -4.61441,-6.74989c-0.45046,-0.00867 -1.56477,0.98795 -1.65635,1.87248c-0.26336,2.54379 1.36856,7.02365 0.2632,6.38316c0,0 0.68712,-0.83996 0.23005,-1.78867c-1.67138,-3.46913 -0.61221,-6.95762 1.24659,-6.95996c4.07406,1.36735 2.62713,3.69509 4.35944,6.77881c0.18065,0.27524 1.12816,1.33922 1.12816,1.33922c0,0 1.1955,0.65824 0.94551,0.65652z" fill="#001026" stroke="none" stroke-linecap="butt"/><path d="M239.8787,154.64364c-19.91557,-4.95553 -22.09999,-25.73666 -22.05172,-25.78426c0.10784,-0.10637 0.13668,-0.49125 0.86574,1.49868c0.47418,1.29424 1.36362,3.0684 1.58318,3.52616c1.11581,3.41576 4.89796,3.71073 7.92945,4.93016c2.49068,1.00609 5.58351,1.64837 8.26733,1.66696c0.00502,-0.0001 0.00995,-0.00005 0.01477,0.0001c0.00116,0.00001 0.00232,0.00002 0.00349,0.00002c0,0 0.01745,0.00012 0.04311,0.00491c0.02568,0.00461 0.04204,0.01067 0.04204,0.01067l0.00339,0.00125c0.00441,0.00152 0.00889,0.00317 0.01341,0.00497l0.02053,0.00761c1.99634,0.74909 5.07859,0.54091 7.19627,0.43787c3.42027,-0.16643 6.90513,0.29723 10.34293,0.32088c3.37572,0.02322 6.6821,-0.32119 10.02736,-0.80703c3.30719,-0.63982 6.31722,-1.79607 9.44236,-3.02226c0.54069,-0.21198 2.99008,-1.48057 4.95493,-2.72977c2.53214,-1.60986 3.28013,-2.85427 3.28013,-2.85427c0,0 -0.32554,0.9396 -2.32997,2.41297c0.0244,0.08333 -24.20851,24.21632 -39.64868,20.37439z" fill="#001026" stroke="none" stroke-linecap="butt"/><path d="M242.9481,138.23199c1.48384,-0.40175 3.05697,-2.11845 3.05697,-2.11845c0,0 -1.46399,2.20476 -2.94544,2.60586c-1.48145,0.40109 -5.54489,-0.5988 -5.54489,-0.5988c0,0 3.94952,0.51313 5.43336,0.1114z" fill="#001026" stroke="none" stroke-linecap="butt"/><path d="M255.57065,136.49654c0.13807,0.00095 0.24219,1.4814 0.23671,1.95009c0.99082,0.39441 2.10665,0.46316 3.12187,0.44806l0.125,0.00086c0,0 -2.44311,0.42249 -3.5285,-0.02542c-0.06624,-0.00593 -0.1125,-0.03074 -0.14482,-0.0626c-0.0629,-0.02845 0.05166,-2.31195 0.18973,-2.311z" fill="#001026" stroke="none" stroke-linecap="butt"/><g fill="#006aff" stroke="none" stroke-linecap="butt"><path d="M246.6148,151.30646c-0.11688,-0.35666 -0.17467,-0.7636 -0.24939,-1.06787l0.01286,-0.16502c0.07615,-0.97728 -0.221,-2.22306 -1.13343,-3.11666c0.5334,-0.51108 0.80898,-1.63639 2.28025,-0.65897c0.18318,0.1178 0.37854,0.27911 0.64744,0.33911c-0.01513,0.20052 -0.02837,0.40108 -0.03883,0.60172c0.07107,0.09674 0.12409,0.19633 0.16137,0.29822c0.0056,0.19459 0.02663,0.40233 0.05589,0.61507c-0.12636,0.90243 -1.03241,1.88746 -1.40929,2.63122c-0.06607,0.13036 -0.21128,0.33186 -0.32688,0.52318zM249.3318,149.40239c0.05696,-0.9095 0.02957,-1.85863 -0.4758,-2.69195l0.07807,-0.01072l-0.11579,-0.29563c0.06228,-0.30311 -0.01999,-0.80442 0.21004,-0.85615c0.80097,-0.18014 1.26718,0.53371 1.93229,0.56778c-0.13063,1.00652 -1.0354,2.37127 -1.61247,3.26293c-0.00506,0.00783 -0.01052,0.01574 -0.01635,0.02373zM251.57957,145.97978c0.002,-0.01543 0.00386,-0.03083 0.00562,-0.04619l0.00004,-0.00055c0.31728,-0.22603 0.43918,-0.5845 0.99896,-0.73509c0.79736,-0.48163 1.63314,0.52097 1.28768,0.94024c-0.71838,0.87188 -1.14636,1.76145 -1.70053,2.65209c-0.03698,0.0194 -0.21503,0.1019 -0.36885,0.19391c0.04516,-0.25083 0.04874,-0.58855 0.05415,-0.65786c0.0571,-0.7326 0.08581,-1.61485 -0.27706,-2.34653z"/><path d="M249.87436,148.9416l0.22201,-0.22322c0.21562,-0.42774 0.96618,-1.66732 1.50529,-2.41648c0.1134,1.15161 0.75046,2.05169 -0.70933,3.03937c-0.16916,-0.00116 -1.01798,-0.39968 -1.01798,-0.39968zM247.27299,150.71541c0.00045,-0.0655 -0.05018,-0.12566 -0.13394,-0.17172c0.08931,-0.05239 0.11978,-0.10972 0.11978,-0.10972c0.39711,-0.74926 1.30783,-1.70689 1.17538,-3.47094c2.46114,2.99626 0.51643,3.15344 -1.16432,3.77933c0.00199,-0.00886 0.00303,-0.01784 0.0031,-0.02695zM247.504,150.05346c-0.001,-0.00613 -0.00202,-0.01227 -0.00303,-0.01841c0.00532,0.00189 0.01073,0.00372 0.01619,0.00552c-0.0046,0.00416 -0.009,0.00845 -0.01317,0.01289zM244.12721,150.97229c0.14073,-0.06088 0.04625,-0.31063 0.04625,-0.31063c0.63393,-0.54631 0.56029,-2.73756 0.85411,-3.27844c0.96712,1.06456 1.53202,3.20817 0.6706,3.61519c-0.77616,0.36674 -1.5792,0.29706 -1.57095,-0.02612z"/><path d="M240.16451,151.11643c-0.11296,-0.19289 -0.25539,-0.39638 -0.31964,-0.52763c-0.36662,-0.74886 -1.25904,-1.74627 -1.37297,-2.65033c0.03218,-0.21231 0.05607,-0.41974 0.06435,-0.61426c0.03868,-0.10137 0.09308,-0.20021 0.16546,-0.29597c-0.00771,-0.20077 -0.01818,-0.40149 -0.03055,-0.60219c0.2697,-0.0563 0.46726,-0.21489 0.65205,-0.33017c1.48457,-0.95707 1.74465,0.1719 2.27097,0.69027c-0.92464,0.88095 -1.2389,2.12254 -1.17618,3.10077l0.01058,0.16518c-0.07891,0.30321 -0.14228,0.70932 -0.26406,1.06434zM237.47397,149.17517c-0.00572,-0.00808 -0.01107,-0.01606 -0.01603,-0.02395c-0.56475,-0.89951 -1.45065,-2.27659 -1.56744,-3.2848c0.66552,-0.02492 1.14149,-0.73229 1.93992,-0.54115c0.2293,0.05489 0.14015,0.55502 0.19826,0.85895l-0.11984,0.29401l0.07791,0.0118c-0.51679,0.82628 -0.55722,1.77494 -0.51278,2.68514zM235.27347,145.72195c-0.3729,0.72662 -0.35632,1.60918 -0.30931,2.3425c0.00445,0.06938 0.00339,0.40712 0.04508,0.65855c-0.15255,-0.0941 -0.32944,-0.17906 -0.36615,-0.19896c-0.54188,-0.89818 -0.95757,-1.79354 -1.66389,-2.67523c-0.33965,-0.42397 0.50983,-1.41498 1.30049,-0.92243c0.55765,0.15827 0.67461,0.51837 0.98875,0.74876l0.00004,0.00054c0.00153,0.01539 0.0032,0.03081 0.00498,0.04628z"/><path d="M235.91442,149.0926c-1.44606,-1.00767 -0.79669,-1.8989 -0.66746,-3.04884c0.52876,0.7565 1.2622,2.00629 1.47192,2.43695l0.21892,0.22624c0,0 -0.85422,0.3868 -1.02338,0.38564zM239.51452,150.51639c-0.00006,0.00911 0.00086,0.01811 0.00272,0.02699c-1.67198,-0.64896 -3.61434,-0.83287 -1.11222,-3.79499c-0.1567,1.76206 0.74075,2.73213 1.12753,3.48678c0,0 0.02967,0.05775 0.11826,0.11136c-0.0844,0.04491 -0.13584,0.10436 -0.13629,0.16986zM239.29263,149.85131c-0.00411,-0.00449 -0.00845,-0.00884 -0.01299,-0.01306c0.00548,-0.00172 0.01092,-0.00348 0.01627,-0.00529c-0.0011,0.00612 -0.0022,0.01224 -0.00328,0.01836zM243.05616,150.8593c0.00381,0.32325 -1.26925,0.73921 -2.0403,0.36183c-0.85574,-0.41883 0.00801,-2.95321 0.45581,-3.92792c-0.04918,0.86304 0.91644,2.65983 1.14281,3.21205c0,0 0.3018,0.29123 0.44169,0.35404z"/><path d="M243.075,146.06443c0.79545,-0.02499 1.66806,0.62692 1.76521,0.84593l0.00519,0.11732c-0.1334,0.13161 -0.9908,3.49567 -1.30106,3.95459c-0.37791,-0.28247 -1.81826,-3.35747 -1.799,-4.0004c0.00688,-0.22953 0.6397,-0.89575 1.32965,-0.91743z"/></g><path d="M268.61978,123.72003c-0.02611,3.79728 -0.74132,6.46725 -0.74132,6.46725c0,0 -0.43066,-2.58314 -0.40454,-6.38042c0.02611,-3.79728 0.49911,-7.3707 0.49911,-7.3707c0,0 0.67287,3.48659 0.64675,7.28387z" fill="#006aff" stroke="none" stroke-linecap="butt"/><g fill="#001026" stroke="none" stroke-linecap="butt"><path d="M202.48357,148.23601c-0.72633,-0.1869 -0.53944,-0.91324 -0.53944,-0.91324l0.16318,-0.63074c0.28647,-1.35082 0.03093,-2.81599 0.78123,-4.05721c1.46035,-2.41587 3.60428,-4.39681 5.48193,-6.43523c1.23529,-1.34107 2.01709,-2.76285 3.79012,-3.48802c0,0 0.69825,-0.27375 0.972,0.4245c0.27375,0.69826 -0.42451,0.972 -0.42451,0.972c-1.52317,0.5614 -2.20995,1.99664 -3.25557,3.13035c-1.81727,1.97037 -3.79758,3.86334 -5.27158,6.15778c-0.63733,0.99208 -0.37692,2.47774 -0.6048,3.60011l-0.17931,0.70026c0,0 -0.1869,0.72633 -0.91324,0.53943z"/><path d="M212.40846,153.43979c-0.69826,0.27375 -0.972,-0.4245 -0.972,-0.4245l-0.36676,-0.9726c-0.00978,-3.84441 0.39171,-8.6604 2.14911,-12.12941c0,0 0.34002,-0.6685 1.00851,-0.32848c0.6685,0.34002 0.32848,1.00851 0.32848,1.00851c-1.63199,3.19459 -1.93043,7.64387 -2.01125,11.17585l0.28842,0.69862c0,0 0.27375,0.69825 -0.42451,0.972z"/></g><path d="M255.80724,111.83063c0,0 1.50578,3.15291 3.02045,-0.7374c1.47526,-3.77358 0.17875,-8.65432 2.97965,-11.08113c2.80089,-2.42682 7.67762,4.44283 7.67762,4.44283c0,0 -4.5684,-6.12477 -7.26282,-3.83806c-2.69442,2.28671 -1.95956,7.28372 -3.36428,10.87817c-1.94178,4.95021 -3.05061,0.33559 -3.05061,0.33559z" fill="#001026" stroke="none" stroke-linecap="butt"/><path d="M227.52332,117.10698c-0.6919,-0.32121 -3.81956,-0.67775 -3.96469,-1.50645c0.06692,0.0322 1.53932,-6.36959 3.58402,-10.06336c3.54145,-6.39768 12.81174,-7.80243 16.29244,-3.44702c3.48069,4.35541 3.64416,12.4353 3.78369,13.7726c0.13953,1.33729 -2.06548,1.63588 -2.06897,2.66194c-2.5525,0.78812 -5.84884,0.76661 -8.45137,0.44307c-3.07359,-0.38149 -6.19003,-1.10076 -9.17514,-1.86077z" fill="#4c3015" stroke="none" stroke-linecap="butt"/><path d="M249.4537,113.78762c0,0 0.11076,-8.0971 -3.48339,-12.61219c-3.59414,-4.51508 -7.57809,-4.27878 -11.06085,-3.99303c-2.01661,0.38859 -5.34933,2.15362 -7.61778,4.12875c-2.26846,1.97513 -4.65263,7.66914 -4.65263,7.66914c0,0 2.81761,-7.97463 7.22028,-10.56365c6.2919,-3.69999 13.46664,-3.24328 16.69253,2.19127c3.52147,5.93251 2.90186,13.17972 2.90186,13.17972z" fill="#001026" stroke="none" stroke-linecap="butt"/><path d="M247.48424,119.92232l-0.00115,0.16666c-0.01746,2.53951 -0.36753,4.97215 -0.3849,7.49753c-0.00822,1.19581 -0.13982,2.1869 -0.35332,3.11791c0.01032,0.0543 -0.00295,0.10368 -0.02117,0.14206c-0.00596,0.01604 -0.01378,0.03274 -0.02398,0.04896c-0.25726,1.05795 -0.61826,2.0501 -1.02066,3.19396c0.46408,0.48449 -1.13192,2.13657 -1.4123,2.34733c-1.52015,1.14271 -2.99699,1.61646 -4.82197,1.31154l-0.00025,0.03585l-0.49999,-0.00344c-0.11793,-0.00081 -0.21622,-0.08314 -0.2418,-0.19318c-0.76948,0.025 -1.53352,0.0143 -2.257,0.00933c-1.26101,-0.0238 -2.5663,-0.39422 -3.84537,-0.78725c-1.47513,-0.31648 -3.38984,-0.42932 -4.97979,-0.9466c-0.23004,-0.03274 -0.46384,-0.0839 -0.70428,-0.16614c-0.64544,-0.31299 -1.2841,-0.57427 -1.79375,-1.0845l-0.33103,-0.33561c-0.02004,-0.02032 -0.03662,-0.04404 -0.0488,-0.07022c-0.15518,-0.3162 -0.29728,-0.64818 -0.43314,-0.98817c-0.73745,-1.09509 -1.12797,-2.47689 -1.61489,-3.73548c-0.01247,-0.01971 -0.02502,-0.03931 -0.03767,-0.05883l-0.00829,-0.05882c-0.11593,-0.29384 -0.23796,-0.58017 -0.37182,-0.85368c-0.14811,-0.45447 -0.33909,-0.78719 -0.34368,-1.26473l-0.09351,0.00947c0,0 -0.17556,-0.17799 0.00243,-0.35355c0.03079,-0.03038 0.06152,-0.05016 0.09127,-0.06212c-0.16348,-0.58579 -0.19419,-1.33302 -0.16258,-2.11163c-0.09104,-0.82604 -0.12775,-1.67979 -0.13236,-2.61582c-0.00313,-0.02128 -0.00304,-0.03519 -0.00304,-0.03519c0.00038,-0.05532 0.00123,-0.11028 0.00253,-0.1649c-0.00005,-0.22592 0.00165,-0.45674 0.00477,-0.69319c0.02169,-0.08552 0.04337,-0.17107 0.06505,-0.25663c0.13749,-1.1147 0.45396,-2.09801 0.80687,-3.07267c0.21828,-0.77589 0.45227,-1.54825 0.71365,-2.31297c-0.09383,-0.11387 -0.02237,-0.26248 -0.02237,-0.26248l0.1872,-0.38832c0.35675,-1.02864 0.72542,-1.99655 1.14589,-2.93235l-0.0001,-0.01637c-0.00502,-0.03908 0.00033,-0.07594 0.00755,-0.10428c0.00632,-0.02725 0.01774,-0.06063 0.03832,-0.09183c0.6175,-1.21453 1.13574,-2.25541 1.77172,-3.08389c0.17918,-0.26726 0.36718,-0.53474 0.56502,-0.80318c-0.02836,-0.05339 -0.0281,-0.10788 -0.01864,-0.15254c0.008,-0.06646 0.03555,-0.1119 0.06958,-0.14296c1.93078,-2.83379 3.85841,-3.6971 7.36573,-3.98655c1.70819,-0.51206 5.08093,-0.6764 6.62337,0.37717c0.63715,0.4352 1.05615,1.1535 1.6678,1.6396c0.06901,0.00692 0.13676,0.01067 0.20292,0.01039c0,0 0.24999,0.00172 0.24827,0.25171c-0.00025,0.03596 -0.00564,0.06671 -0.01467,0.09301c0.10726,0.16759 0.26311,0.31081 0.43807,0.3998l0.16623,0.3153c1.13809,1.30229 1.9188,3.28353 2.35182,4.60752l0.01561,0.21023c1.12642,2.69836 1.34928,5.33893 1.29253,8.16813c0.15528,0.05434 0.15403,0.23661 0.15403,0.23661zM245.18471,132.04001c0.00212,-0.00629 0.00425,-0.01257 0.00636,-0.01887c-0.00483,0.0057 -0.00965,0.01139 -0.01448,0.0171c0.0027,0.00056 0.0054,0.00116 0.00812,0.00177z" fill="#001026" stroke="none" stroke-linecap="butt"/><path d="M235.53979,118.50482c0,0 0.4238,3.57959 0.39769,7.37687c-0.02611,3.79728 -0.49226,6.37426 -0.49226,6.37426c0,0 -0.67842,-2.67956 -0.6523,-6.47684c0.02611,-3.79728 0.74687,-7.27429 0.74687,-7.27429z" fill="#006aff" stroke="none" stroke-linecap="butt"/><path d="M277.52034,133.61701c0,0 1.11412,-0.73434 2.19211,-1.78497c1.07799,-1.05063 0.89228,-2.40508 2.29406,-3.07105c4.17521,0.03003 -1.1904,6.95195 -1.1904,6.95195c0,0 4.51739,-6.14366 1.30193,-6.46455c-0.69764,-0.06962 -1.82309,2.20424 -2.4479,2.78977c-1.39836,1.31043 -2.1498,1.57884 -2.1498,1.57884z" fill="#001026" stroke="none" stroke-linecap="butt"/></g></g></g></svg>