<svg version="1.1" xmlns="http://www.w3.org/2000/svg" xmlns:xlink="http://www.w3.org/1999/xlink" width="128.86433" height="154.27342" viewBox="0,0,128.86433,154.27342"><defs><linearGradient x1="192.31274" y1="146.65457" x2="198.74476" y2="192.97548" gradientUnits="userSpaceOnUse" id="color-1"><stop offset="0" stop-color="#cc2981"/><stop offset="1" stop-color="#a92292"/></linearGradient><linearGradient x1="302.19056" y1="140.95141" x2="296.82401" y2="187.40781" gradientUnits="userSpaceOnUse" id="color-2"><stop offset="0" stop-color="#cc2981"/><stop offset="1" stop-color="#a92292"/></linearGradient><linearGradient x1="279.40136" y1="213.14455" x2="279.40136" y2="237.25756" gradientUnits="userSpaceOnUse" id="color-3"><stop offset="0" stop-color="#9966ff"/><stop offset="1" stop-color="#66ebff"/></linearGradient><linearGradient x1="309.62405" y1="208.89783" x2="309.62405" y2="237.33109" gradientUnits="userSpaceOnUse" id="color-4"><stop offset="0" stop-color="#9966ff"/><stop offset="1" stop-color="#66ebff"/></linearGradient><radialGradient cx="230.24877" cy="205.85559" r="5.02555" gradientUnits="userSpaceOnUse" id="color-5"><stop offset="0" stop-color="#54606d"/><stop offset="1" stop-color="#2c3136"/></radialGradient></defs><g transform="translate(-184.62388,-84.17577)"><g data-paper-data="{&quot;isPaintingLayer&quot;:true}" fill-rule="nonzero" stroke-miterlimit="10" stroke-dasharray="" stroke-dashoffset="0" style="mix-blend-mode: normal"><g data-paper-data="{&quot;index&quot;:null}" stroke="#000000" stroke-width="0.90024" stroke-linecap="round" stroke-linejoin="miter"><path d="M282.51705,160.41956c0,0 3.10457,-13.25027 3.3173,-13.91369c0.21269,-0.66329 1.3055,-6.48909 10.03719,-13.03321c0,0 8.66314,30.39577 -2.14693,44.31752c-0.00043,-0.0008 -2.87223,-8.484 -11.20756,-17.37062zM282.69126,160.60764c-0.67124,-0.74461 -2.11338,-1.92012 -2.11338,-1.92012M294.17573,180.23649c0,0 -0.16258,-1.59477 -0.45156,-2.44709" fill="#be1e2d"/><path d="M297.05883,170.45411c0,0 -2.01537,-0.31785 -4.13569,-3.82004c-1.31881,-2.17047 -2.55345,-6.76617 -2.55345,-6.76617l-0.00842,0.17267c0.22952,-1.05588 0.42714,-2.2512 0.51873,-3.49443c0.15672,-2.10398 0.06035,-5.07881 -0.11583,-7.96712l-0.00595,-0.40786c0,0 0.57891,-5.71914 6.19689,-9.46373l0.08821,0.00012c0.99841,4.79421 2.25826,11.93716 2.25766,17.28578c-0.00049,5.99971 -1.08713,10.94869 -2.30039,14.60218l0.05825,-0.1414v0v0v0v0v0zM289.24514,163.65765c0,0 0.96891,-3.15345 1.12456,-3.78976" fill="#929497"/></g><g data-paper-data="{&quot;index&quot;:null}" stroke="#000000" stroke-width="0.90024" stroke-linecap="round" stroke-linejoin="miter"><path d="M201.77222,183.52198c-11.45731,-13.39306 -4.24544,-44.16549 -4.24544,-44.16549c9.03189,6.12353 10.39975,11.89095 10.64406,12.5426c0.24426,0.65174 3.97339,13.74072 3.97339,13.74072c-7.90572,9.27232 -10.37201,17.88217 -10.37201,17.88217zM213.99777,163.81811c0,0 -1.38478,1.24258 -2.01986,2.01823M201.77222,183.52198c-0.24833,0.86501 -0.33501,2.46574 -0.33501,2.46574" fill="#be1e2d"/><path d="M198.15835,176.49156c-1.38476,-3.59265 -2.70407,-8.48415 -2.99037,-14.47671c-0.25506,-5.34295 0.66555,-12.53718 1.43539,-17.37339l0.08819,-0.00425c5.78965,3.47516 6.6387,9.15921 6.6387,9.15921l0.0134,0.40768c-0.03911,2.89336 0.0058,5.86946 0.26211,7.96365c0.15043,1.23748 0.40452,2.42208 0.68385,3.46589l-0.01659,-0.17208c0,0 -1.0153,4.64908 -2.22979,6.8796c-1.95176,3.59886 -3.94988,4.01188 -3.94988,4.01188zM204.27305,165.46155c0.18564,0.62821 1.30302,3.73217 1.30302,3.73217" fill="#929497"/></g><path d="M200.83763,145.57907c0,0 1.59619,-39.36114 49.41225,-40.99294c32.81128,-1.11974 45.51293,37.22319 45.51293,37.22319" data-paper-data="{&quot;index&quot;:null}" fill="none" stroke="#000000" stroke-width="7" stroke-linecap="round" stroke-linejoin="miter"/><path d="M243.37296,214.83397v0v0v0v0v0c-0.65353,1.7331 -2.41972,4.79054 -3.32155,5.48062c0,0 -3.65069,2.53988 -5.44999,0.91126c-0.76912,-0.69561 -0.9627,-1.6474 -0.71963,-2.78219c-0.35537,-0.21778 -0.82794,-0.6047 -0.93459,-1.22797c-0.17847,-1.03339 1.99919,-1.29088 1.99919,-1.29088l-0.00425,0.01842c0.1636,-0.27262 0.3322,-0.54326 0.52392,-0.82614c1.08952,-1.5966 3.14642,-3.63079 4.21524,-4.78494c0,0 0.9002,-1.02768 2.4465,-0.63804c1.64509,0.41426 1.89868,3.40676 1.24515,5.13985z" data-paper-data="{&quot;index&quot;:null}" fill="#a61b29" stroke="#231f20" stroke-width="0.78672" stroke-linecap="round" stroke-linejoin="round"/><path d="M258.22143,217.36085v0v0v0v0c0,0 -3.46029,2.79337 -5.36972,1.29263c-0.82038,-0.6352 -1.07667,-1.57444 -0.91815,-2.72422c-0.37259,-0.19113 -0.86805,-0.5414 -1.02052,-1.15659c-0.25199,-1.01661 1.90166,-1.43279 1.90166,-1.43279l-0.00279,0.01787c0.14535,-0.28038 0.29365,-0.56521 0.46342,-0.86146c0.97422,-1.66721 2.87946,-3.84715 3.86174,-5.07474c0,0 1.28923,-1.15117 2.51557,-0.6503c1.2264,0.49988 1.65391,2.66047 1.40303,3.5905c-0.25169,0.93009 -1.35917,5.48766 -2.83423,6.99909z" data-paper-data="{&quot;index&quot;:null}" fill="#be1e2d" stroke="#231f20" stroke-width="0.78672" stroke-linecap="round" stroke-linejoin="round"/><path d="M252.91363,218.20272c1.58098,-0.36581 3.46597,0.19223 3.46597,0.19223c0,0 0.56085,5.18662 0.71651,7.06071c0.15651,1.87685 0.95861,4.84261 0.95861,4.84261c0,0 0.4701,0.31822 0.29134,1.07108c-0.18236,0.75085 -1.86057,0.80561 -3.97704,1.08774c-2.11262,0.27774 -3.8035,-0.15416 -4.09102,-0.92026c-0.29041,-0.76265 0.34728,-1.07532 0.34728,-1.07532c0,0 1.31474,-6.08433 0.54476,-8.24589c0.00424,0.00474 -0.27212,-3.54671 1.74359,-4.0129z" data-paper-data="{&quot;index&quot;:null}" fill="#be1e2d" stroke="#231f20" stroke-width="0.90024" stroke-linecap="round" stroke-linejoin="round"/><path d="M246.17528,218.40699v0v0v0v0v0c2.73305,1.44176 2.88852,4.03625 2.88927,4.03899c-0.67838,2.18579 0.81309,7.43393 0.81309,7.43393c0,0 0.65152,0.28141 0.39942,1.05634c-0.25589,0.77652 -1.92229,1.28462 -4.04977,1.09903c-2.12379,-0.18729 -3.80185,-0.16759 -4.01753,-0.91257c-0.21568,-0.74499 0.24129,-1.0821 0.24129,-1.0821c0,0 0.14699,-1.75636 0.21803,-3.63861c0.06884,-1.87697 0.04697,-7.0409 0.04697,-7.0409c0,0 1.66873,-1.89911 3.45924,-0.95411z" data-paper-data="{&quot;index&quot;:null}" fill="#a61b29" stroke="#231f20" stroke-width="0.90024" stroke-linecap="round" stroke-linejoin="round"/><g data-paper-data="{&quot;index&quot;:null}" stroke-width="0.90024"><path d="M257.38982,211.83663v0v0v0v0v0c0.25922,2.82028 -0.69256,7.93472 -3.99813,9.56548c-3.26933,1.60933 -6.6187,1.1837 -9.97254,-1.38797c-2.77873,-2.13145 -2.39687,-7.76524 -1.9199,-10.90265v0c0,0 0.42446,-7.29579 6.61538,-7.85412c6.18901,-0.55833 8.72971,5.19879 9.01056,8.71805c0.11517,0.62313 0.20798,1.25765 0.26464,1.86121z" fill="#a61b29" stroke="#000000" stroke-linecap="butt" stroke-linejoin="miter"/><path d="M255.25185,219.75879v0v0v0v0v0l-0.0232,0.14203c-0.50717,0.62467 -1.11659,1.14452 -1.83596,1.49953c-3.02831,1.49099 -6.12396,1.23638 -9.22949,-0.8536l-0.02527,-0.14562c0,0 -1.18601,-9.37426 4.75328,-9.4605c6.744,-0.09479 6.48897,7.26819 6.36065,8.81816z" fill="#bfc9d4" stroke="#231f20" stroke-linecap="round" stroke-linejoin="round"/></g><g data-paper-data="{&quot;index&quot;:null}" stroke="#000000" stroke-linecap="butt" stroke-linejoin="miter"><g><g stroke-width="0.4"><path d="M276.08468,234.41991l-0.04384,-0.00556c-1.44913,-0.13957 -3.3012,-0.8257 -3.97485,-1.45446l-0.10257,0.0956l-1.13897,-0.47477l0.31227,-0.24915c0.03465,-0.02906 3.49176,-2.82304 3.66823,-5.99681l0.01808,-0.32645l0.30467,0.11939c0.16202,0.06452 0.53244,0.23485 0.64257,0.48822l0.04444,0.01974c1.6936,0.75971 3.27891,0.75288 3.72483,0.73232l0.24121,-0.00359c0.11126,0.03183 0.4489,0.12701 0.47455,0.41645c0.02573,0.29135 -0.30925,0.47909 -0.49521,0.55203c-0.09051,0.00794 -0.18205,0.01406 -0.27558,0.01838c-1.33669,0.06163 -2.96784,-0.22667 -3.75747,-0.63994c-0.02764,0.16031 -0.0692,0.34683 -0.12968,0.55505c1.64471,0.70518 3.16177,0.69577 3.59631,0.67574l0.24416,-0.00177c0.11031,0.03182 0.44796,0.12705 0.4736,0.41644c0.02573,0.29136 -0.30829,0.47905 -0.49425,0.55199c-0.08955,0.00794 -0.18205,0.01406 -0.27558,0.01838c-1.44344,0.06656 -3.22944,-0.27421 -3.90955,-0.71431c-0.08215,0.1685 -0.17185,0.33736 -0.26922,0.50466c1.86024,0.94611 3.6043,0.91112 3.70717,0.92531c0.10786,0.03951 0.43806,0.15873 0.44206,0.45108c0.00404,0.2923 -0.34357,0.45226 -0.53494,0.51124c-1.51477,0.01779 -3.52674,-0.50192 -4.17202,-1.04871c-0.13376,0.17846 -0.28147,0.36324 -0.44136,0.54954c1.75436,0.96896 3.41106,1.03173 3.51039,1.0508c0.10625,0.04621 0.42885,0.18565 0.41768,0.4768c-0.01312,0.29029 -0.36818,0.43257 -0.56287,0.48035c-1.45887,-0.06337 -3.35093,-0.65111 -4.06257,-1.26201c-0.13585,0.13403 -0.27821,0.26937 -0.42896,0.4079c1.68258,1.03473 3.30362,1.18625 3.40225,1.21102c0.10272,0.05114 0.4166,0.20611 0.38926,0.49614c-0.02826,0.29098 -0.39084,0.41372 -0.50208,0.44441z" fill="#871212"/><path d="M275.04134,226.35037c-0.18394,3.3199 -3.7569,6.16753 -3.7569,6.16753l0.62935,0.26346l0.16886,-0.15734c0.00722,0.01292 0.00848,0.01949 0.01669,0.03427c0.3256,0.53215 2.36449,1.36871 3.96399,1.52595c0,0 0.69364,-0.19103 0.06971,-0.50023c0,0 -1.83895,-0.15567 -3.68707,-1.39197c0.30302,-0.2658 0.57514,-0.52353 0.82089,-0.7772c0.01134,0.01936 0.0158,0.03427 0.03102,0.05631c0.35317,0.51481 2.43424,1.23958 4.04016,1.30942c0,0 0.68144,-0.22926 0.04205,-0.50462c0,0 -1.86174,-0.05422 -3.78464,-1.20855c0.31068,-0.34566 0.57836,-0.6789 0.79846,-0.9967c0.01955,0.0341 0.03829,0.07018 0.07253,0.11499c0.3816,0.49452 2.49894,1.10311 4.10742,1.08482c0,0 0.66747,-0.26558 0.01465,-0.50336c0,0 -1.91643,0.05332 -3.93214,-1.04085c0,0 -0.01417,0.00066 -0.0341,-0.00033c0.22938,-0.36366 0.40114,-0.70292 0.5317,-1.01378c0.02024,0.02843 0.03572,0.05704 0.06668,0.09161c0.39498,0.43618 2.34489,0.86221 3.91018,0.79004c0.08972,-0.00413 0.17846,-0.01013 0.2661,-0.01794c0,0 0.64627,-0.31476 -0.0233,-0.50543c0,0 -0.05935,0.00655 -0.16891,0.0116c-0.51009,0.02351 -2.10721,0.0214 -3.83077,-0.75108c0,0 -0.00185,0.00009 -0.00566,0.00026c-0.01132,0.00052 -0.03863,0.00364 -0.07152,0.00897c0.16425,-0.4828 0.22574,-0.87376 0.24258,-1.14438c0.01008,0.0128 0.01324,0.01928 0.02431,0.03393c0.39498,0.43618 2.34489,0.86221 3.91018,0.79004c0.08972,-0.00413 0.17846,-0.01013 0.2661,-0.01794c0,0 0.64626,-0.31476 -0.02322,-0.50353c0,0 -0.05839,0.00651 -0.16605,0.01147c-0.50823,0.02344 -2.10725,0.02141 -3.83276,-0.75289c0,0 0,0 -0.00095,0.00004c-0.01037,0.00048 -0.10095,0.00652 -0.1819,0.03771c-0.00182,-0.01884 -0.0032,-0.02917 -0.0032,-0.02917c0.19509,-0.2438 -0.4905,-0.51511 -0.4905,-0.51511M274.60582,225.66996l0.60942,0.24174c0.21406,0.08477 0.55886,0.25346 0.72661,0.52501c1.63524,0.72545 3.15901,0.7177 3.58879,0.69788c0.08501,-0.00392 0.13399,-0.00995 0.13965,-0.01021l0.08955,-0.00794l0.08723,0.02344c0.50068,0.14164 0.62794,0.4169 0.64595,0.62246c0.03932,0.44218 -0.40634,0.69373 -0.54427,0.76068l-0.07869,0.03862l-0.0877,0.00786c-0.09337,0.00806 -0.18867,0.01437 -0.285,0.01881c-1.16856,0.05387 -2.67952,-0.15383 -3.59885,-0.52512c-0.00475,0.02009 -0.01032,0.04305 -0.01593,0.06509c1.52364,0.60474 2.89682,0.59629 3.30211,0.5776c0.08597,-0.00396 0.13593,-0.00812 0.14254,-0.00843l0.08946,-0.00985l0.08723,0.02344c0.49987,0.14358 0.62708,0.41885 0.64509,0.62441c0.03932,0.44218 -0.40634,0.69373 -0.54427,0.76068l-0.07869,0.03862l-0.0877,0.00786c-0.09332,0.00807 -0.18867,0.01437 -0.285,0.01881c-1.26776,0.05845 -2.93965,-0.19013 -3.82023,-0.62475c-0.01399,0.02435 -0.02694,0.05144 -0.04099,0.07574c1.71558,0.80508 3.26869,0.77699 3.28477,0.77625l0.08981,-0.00224l0.08472,0.03114c0.48817,0.1772 0.59411,0.46294 0.597,0.6692c0.00617,0.44181 -0.45709,0.66102 -0.59836,0.71774l-0.08163,0.03595l-0.08804,0.00025c-1.32936,0.0149 -3.24568,-0.40129 -4.12626,-0.95991c-0.03936,0.05006 -0.07962,0.10021 -0.12084,0.15131c1.6003,0.81039 3.0466,0.8668 3.06272,0.86797l0.08921,0.00437l0.08299,0.03498c0.47806,0.20517 0.5672,0.49546 0.55881,0.70318c-0.01933,0.44298 -0.49333,0.63427 -0.63875,0.6836l-0.08298,0.02747l-0.08723,-0.0026c-0.31591,-0.01475 -0.66329,-0.0546 -1.02205,-0.11568l0.04747,0.02337c0.46604,0.23219 0.54019,0.52602 0.52025,0.73052c-0.04207,0.44213 -0.52665,0.60836 -0.67441,0.6483l-0.0841,0.02375l-0.08658,-0.00926c-1.29898,-0.12661 -3.1151,-0.73106 -3.95105,-1.36941l-0.05353,0.05076l-0.28189,-0.11858l-0.62926,-0.26162l-0.73747,-0.30773l0.62454,-0.49835c0.03379,-0.02711 3.40954,-2.75865 3.57961,-5.82514l0.03621,-0.65206zM273.27002,232.17734c-0.01356,0.01387 -0.02718,0.0268 -0.04178,0.03887c1.42092,0.80065 2.7181,0.96996 2.91797,0.99293c-1.0934,-0.20517 -2.25399,-0.5947 -2.87619,-1.0318z" fill="#000000"/></g><path d="M252.20987,210.04989c0,0 5.7462,-0.6985 10.31301,3.3897c4.56689,4.09011 3.11153,8.45599 12.98144,12.93208c0,0 0.88252,2.8788 -3.75134,6.76078c0,0 -8.41203,-4.18828 -10.74375,-10.43191c-2.33164,-6.24179 -8.04881,-9.55276 -10.99893,-9.43757l-3.23627,-0.32033z" fill="#ba2915" stroke-width="0.4"/><g fill="#871212" stroke-width="0.4"><path d="M272.92476,225.12075c0,0 0.4049,3.87496 -4.02399,6.35023l-1.1282,-0.83688c0,0 4.0189,-4.3658 3.76954,-6.36596z"/><path d="M269.37462,222.59219c0,0 -0.13794,3.00346 -4.39261,5.68466l-1.36247,-1.31838c0,0 4.15229,-2.54107 4.58414,-5.63761z"/><path d="M266.8897,219.55439c0,0 -0.86555,3.07396 -5.38299,4.34722l-0.70817,-1.66473c0,0 4.71263,-1.72059 5.43825,-3.74296z"/><path d="M264.44138,215.58713c0,0 -0.69325,2.62203 -5.14654,3.7873l-1.05842,-1.35604c0,0 4.8398,-2.4535 5.31083,-3.55063z"/><path d="M259.77889,211.55917c0.33396,0.0982 1.62547,0.9872 1.62547,0.9872l-5.56652,3.05596l-1.64763,-1.32415c0,0 5.25473,-2.81722 5.58869,-2.71901z"/><path d="M256.27754,210.54107l-4.56799,2.90766l-2.23104,-0.24173l4.53814,-3.22622l2.2609,0.5603"/></g><path d="M271.78672,233.41211l-0.13846,-0.06747c-0.34692,-0.17338 -8.52152,-4.30347 -10.8596,-10.56197c-2.21388,-5.92535 -7.76444,-9.40114 -10.80156,-9.2838l-4.01326,-0.39716l6.2072,-3.28617c0,0 0.16852,-0.02103 0.47176,-0.03501c1.3688,-0.06312 6.13817,0.00097 10.02766,3.48332c1.6469,1.47279 2.54063,3.01344 3.40541,4.50242c1.57946,2.71889 3.2134,5.5318 9.51645,8.38979l0.0967,0.04378l0.0312,0.10178c0.03885,0.12412 0.87443,3.07324 -3.82499,7.01222l-0.11852,0.09824zM275.29799,226.53644c-6.35065,-2.90403 -8.01335,-5.76583 -9.62157,-8.5345c-0.88534,-1.52306 -1.72136,-2.96315 -3.31211,-4.38743c-3.75415,-3.36083 -8.36634,-3.42363 -9.6898,-3.36261c-0.22008,0.01109 -0.36425,0.02533 -0.37321,0.01625l-4.728,2.51652l2.42796,0.24208c3.08057,-0.12026 8.85143,3.22609 11.22949,9.59164c2.11021,5.64889 9.39688,9.65621 10.49023,10.23058c3.844,-3.27375 3.66438,-5.79307 3.57702,-6.31256z" fill="#000000" stroke-width="0.4"/><path d="M275.34504,226.55339c0.08736,0.51949 0.25357,3.05886 -3.59043,6.33261c-1.09335,-0.57437 -8.42373,-4.56973 -10.53394,-10.21862c-2.37806,-6.36555 -8.09872,-9.73103 -11.17929,-9.61077l-2.51036,-0.29862l4.73878,-2.52865c0.00896,0.00908 0.15395,-0.00582 0.37403,-0.01691c1.32346,-0.06102 5.97205,-0.00841 9.7262,3.35242c1.59076,1.42428 2.45937,2.88191 3.34471,4.40497c1.60821,2.76867 3.27964,5.67955 9.63029,8.58358z" data-paper-data="{&quot;noHover&quot;:true,&quot;origItem&quot;:[&quot;Path&quot;,{&quot;applyMatrix&quot;:true,&quot;segments&quot;:[[[431.94081,453.0728],[0,0],[-0.17472,1.03898]],[[439.09485,465.69792],[-7.688,-6.5475],[2.1867,-1.14874]],[[460.07531,445.23676],[-4.22042,11.29778],[4.75612,-12.7311]],[[482.53429,426.05348],[-6.16114,-0.24052],[0,0]],[487.39021,425.56932],[[477.93421,420.53628],[0,0],[-0.01792,0.01816]],[[477.18779,420.50378],[0.44016,0.02218],[-2.64692,-0.12204]],[[457.80819,427.229],[7.5083,-6.72166],[-3.1815,2.84856]],[[451.18397,436.00386],[1.77068,-3.04612],[-3.21644,5.53734]],[[431.94083,453.07286],[12.7013,-5.80806],[0,0]]],&quot;closed&quot;:true,&quot;fillColor&quot;:[0,0,0,1],&quot;strokeColor&quot;:[0,0,0],&quot;strokeWidth&quot;:0.4}]}" fill="#000000" stroke-width="0.2"/></g><g stroke-width="0.4"><path d="M238.67652,205.26939c0.00096,-0.00005 7.12995,-3.22932 16.96523,6.08011c0,0 -5.35796,2.73298 -10.73191,1.85616c-5.37486,-0.87683 -7.14924,-2.15723 -9.04628,-0.9442c0,0 -1.15521,-1.95743 2.26234,-3.53502c0,0 -1.29238,-2.36574 0.55063,-3.45705z" fill="#ba2915"/><g fill="#871212"><path d="M248.97082,206.56971c-2.30876,2.4258 -1.325,6.80227 -1.325,6.80227l-0.85019,0.0392c-1.30915,-5.15101 1.37623,-7.2524 1.37623,-7.2524z"/><path d="M245.11882,205.09069c0,0 -2.32087,2.0401 -1.61001,7.62293l-1.07914,-0.22476c0,0 -0.73081,-4.57846 1.43478,-7.66597z"/><path d="M252.13608,208.44963c-0.82937,0.61383 -1.13565,4.48368 -1.13565,4.48368l-0.60488,0.12353c-0.60234,-2.79708 1.06544,-5.12229 1.06544,-5.12229z"/><path d="M237.58311,211.67476c-0.00095,0.00004 -0.16135,-2.20588 1.23869,-3.27576c0.05682,-0.16357 0.01645,-2.72244 0.5953,-3.3701l1.33804,-0.25769c0,0 -1.30763,1.30705 -0.89432,3.45493c0,0 -1.56119,1.51659 -1.2849,3.40284l-0.99282,0.04578z"/></g><path d="M235.53851,210.81667c0.26387,-0.84711 1.02691,-1.5866 2.26904,-2.19957c-0.43607,-0.95686 -0.73849,-2.67056 0.77101,-3.5628c0.0436,-0.01907 1.05288,-0.46794 2.82977,-0.54987c3.19579,-0.14736 8.28556,0.89123 14.39598,6.67381l0.24346,0.23015l-0.29873,0.15199c-0.03609,0.01872 -3.65909,1.84335 -7.89018,2.03844c-1.04102,0.048 -2.04503,-0.0051 -2.98739,-0.15855c-1.81614,-0.29679 -3.22826,-0.63969 -4.36279,-0.91586c-2.20107,-0.53565 -3.39014,-0.78279 -4.51662,-0.06345l-0.20695,0.13164l-0.12425,-0.21105c-0.01643,-0.02767 -0.3961,-0.68604 -0.12235,-1.56488zM235.99223,210.94627c-0.13042,0.41497 -0.07752,0.76184 -0.01473,0.97387c1.18516,-0.63781 2.4596,-0.38702 4.64152,0.14383c1.12588,0.27371 2.5285,0.61519 4.32739,0.90806c0.909,0.14836 1.88267,0.20002 2.88967,0.15358c3.42438,-0.15789 6.44235,-1.4103 7.38995,-1.84117c-5.87587,-5.46015 -10.73811,-6.44958 -13.79693,-6.30854c-1.66257,0.07666 -2.62872,0.49608 -2.63248,0.49625c-1.33713,0.79151 -0.81956,2.34574 -0.56776,2.92106c0.56216,-0.20957 1.92098,-0.489 3.87273,0.59296c0,0 -2.02762,-0.90048 -4.05048,0.0476c-1.11357,0.54741 -1.83217,1.20342 -2.05887,1.9125z" fill="#000000"/></g><g stroke-width="0.4"><path d="M267.38118,206.72717c0.83242,1.38158 -0.62136,1.92198 -0.62136,1.92198c-18.11894,6.10169 -20.50031,0.64985 -23.01853,-1.83734c-2.51636,-2.48728 -5.06286,-1.54155 -5.06286,-1.54155c-1.60206,-3.94945 2.61531,-6.14607 2.61531,-6.14607l0.0558,1.2101c11.92262,8.36399 21.74876,-0.50962 21.74371,-0.61918c-0.00506,-0.10961 1.07874,0.29767 1.71809,1.33225c0.63939,1.03453 -0.50058,1.97509 -0.50058,1.97509c-0.1286,1.0709 2.23804,2.32309 3.07042,3.70472z" fill="#ba2915"/><g fill="#871212"><path d="M262.02236,200.59279c0,0 1.6371,0.5001 0.9312,3.15487c0,0 0.12747,1.49174 1.3655,2.67764c1.23797,1.18586 1.24953,2.07237 1.47816,2.53515l-1.86853,0.53774c0,0 -0.164,-1.6273 -0.97325,-2.50641c-0.8092,-0.87905 -1.01108,-2.19788 -1.11584,-2.7866c-0.10476,-0.58873 0.65646,-2.04384 -0.65806,-2.95923z"/><path d="M258.93092,202.44782c-0.02836,-0.24479 0.61786,0.99963 0.49834,2.67787c-0.11952,1.67824 0.923,2.48504 1.35859,3.57535c0.43554,1.09037 0.51139,1.56496 0.51139,1.56496l-1.36421,0.32703c0,0 -0.765,-2.3636 -1.37718,-3.32177c-0.61218,-0.95822 -0.34196,-1.93439 -0.38691,-2.90923c-0.04496,-0.97489 -0.36991,-1.3916 -0.36991,-1.3916z"/><path d="M255.28267,203.56176c0.00344,0.07465 0.75213,1.77536 0.43901,3.52503c-0.31317,1.74967 0.83939,3.87476 0.83939,3.87476l-1.3147,0.14772c0,0 -0.88868,-1.96596 -0.77343,-3.73678c0.11525,-1.77082 0.14564,-2.32225 -0.19855,-3.62884z"/><path d="M251.65806,203.87281c0,0 -0.77173,2.5206 0.06905,4.70078c0,0 -0.58845,1.34206 0.53798,2.67413l-0.70757,0.03262c0,0 -1.07521,-0.83748 -0.85685,-2.50702c0,0 -1.25178,-1.01297 -0.2763,-4.84269l1.23374,-0.05689z"/><path d="M247.74466,203.38207c0,0 -1.68904,2.33663 -0.70386,5.34795c0,0 -0.19545,0.46244 0.2555,1.25013l-1.05574,-0.64147c0,0 -0.2647,-0.52548 -0.21117,-0.72012c0.05348,-0.19465 -1.17526,-1.67251 0.35419,-5.62246z"/><path d="M243.52225,201.7128c0,0 -1.61762,1.27776 -1.07319,4.11255l-1.07015,-0.54235c0,0 -0.13703,-2.97185 1.25354,-4.04135z"/><path d="M241.1187,200.4604c0,0 -2.72956,0.99869 -2.33979,4.40194l0.00359,0.36526c0,0 -2.10439,-3.09988 2.51438,-6.0146z"/></g><path d="M238.45908,205.35893c-1.66401,-4.1018 2.68117,-6.42175 2.72455,-6.44554l0.32817,-0.17132l0.06747,1.46328c3.55688,2.46958 7.27041,3.63411 11.04146,3.46023c5.9088,-0.27245 9.82107,-3.66582 10.24338,-4.05353l0.00959,-0.14152l0.23616,-0.01088c0.2815,-0.01298 1.29842,0.48354 1.90205,1.46198c0.54832,0.88732 -0.00646,1.76963 -0.44907,2.1895l0.00852,0.02044c-0.00817,0.007 -0.01746,0.01124 -0.02567,0.01825c0.03942,0.48475 0.73862,1.11329 1.41897,1.72282c0.61326,0.55012 1.24721,1.1182 1.61823,1.73256c0.28911,0.47988 0.36373,0.92892 0.22251,1.33495c-0.2275,0.65044 -0.9336,0.91965 -0.9709,0.93272c-5.01702,1.68918 -9.24716,2.62358 -12.57425,2.77699c-6.18558,0.28521 -8.36238,-2.1259 -9.95066,-3.88635c-0.25332,-0.2799 -0.49283,-0.54622 -0.73478,-0.78403c-1.45703,-1.43992 -2.91601,-1.68979 -3.88239,-1.64523c-0.56865,0.02622 -0.92998,0.15649 -0.93369,0.15762l-0.2141,0.07895l-0.08552,-0.21188zM241.07561,199.52619c-0.91683,0.58567 -3.33124,2.46536 -2.25617,5.45552c0.715,-0.17876 2.95477,-0.44675 5.08729,1.66066c0.24792,0.24416 0.49334,0.51683 0.75273,0.80399c0.23943,0.26448 0.48869,0.53788 0.75693,0.81238c4.37699,1.22386 8.55453,-0.44083 8.55453,-0.44083c-2.91965,1.8443 -6.72636,1.26532 -7.96799,1.00734c1.52167,1.3631 3.76736,2.55837 8.23556,2.35234c3.28266,-0.15137 7.46967,-1.07715 12.43729,-2.74985c0.00558,-0.00216 0.53198,-0.20632 0.68397,-0.64688c0.09188,-0.2655 0.03104,-0.57888 -0.18117,-0.93166c-0.33413,-0.55355 -0.94145,-1.09827 -1.52898,-1.62407c-0.68432,-0.61406 -1.33142,-1.20047 -1.51861,-1.79017c-1.30375,0.79665 -2.89952,0.82384 -2.89952,0.82384c1.64907,-0.49354 2.47052,-1.01232 2.85102,-1.32144l0.00396,-0.03709l0.07298,-0.06019c0.04009,-0.03308 0.9721,-0.82389 0.45033,-1.6689c-0.49319,-0.7999 -1.25847,-1.17734 -1.44935,-1.23199c-0.86782,0.90903 -4.99924,3.94426 -10.51692,4.19868c-3.90991,0.18028 -7.75641,-1.0349 -11.43089,-3.61171l-0.09395,-0.06671l-0.04304,-0.93331z" fill="#000000"/></g></g><g data-paper-data="{&quot;index&quot;:null}" stroke="#000000" stroke-width="0.90024" stroke-linecap="round" stroke-linejoin="round"><path d="M295.66341,179.27642l-0.47284,1.5684c-2.6536,7.93284 -6.68847,12.59784 -6.68847,12.59784c0,0 0.09578,-1.40121 -0.07418,-3.63963l-0.13322,-0.04064c-0.33274,1.19524 -0.89569,2.742 -1.85721,4.66327c-2.10834,4.21909 -8.64362,7.94545 -8.64362,7.94545c0,0 0.3584,-1.43595 0.52606,-3.76884l-0.10764,-0.35161c-0.70112,0.58559 -1.431,1.12717 -2.16951,1.6556c-0.21726,0.15644 -0.43457,0.30919 -0.65576,0.45758c-0.67291,0.45656 -1.3592,0.89374 -2.06096,1.30451c-0.27735,0.16053 -0.56601,0.3108 -0.84731,0.46518c-0.51309,0.28259 -1.03405,0.55097 -1.56332,0.81168c-0.38889,0.18928 -0.78053,0.37787 -1.17991,0.55496c-0.41335,0.18585 -0.83907,0.35498 -1.26184,0.53039c-0.77767,0.3137 -1.56777,0.60909 -2.37678,0.88451c-0.26394,0.08974 -0.528,0.1795 -0.79675,0.26403c-0.57738,0.18336 -1.1595,0.36319 -1.75302,0.52557l0.00187,0.00173c-2.9794,0.82018 -6.15184,1.40382 -9.55909,1.7499c-3.68628,0.37347 -7.03761,0.46963 -10.17479,0.37615v0c-2.48244,-0.07525 -4.8114,-0.2801 -7.0213,-0.59415c-0.10686,-0.01467 -0.21477,-0.0302 -0.32254,-0.04483c-0.68338,-0.10177 -1.35628,-0.21195 -2.01692,-0.33343c-0.23063,-0.04408 -0.45154,-0.09295 -0.68124,-0.13877c-0.87813,-0.17229 -1.73266,-0.36543 -2.57608,-0.57343c-0.53315,-0.13195 -1.06296,-0.26773 -1.58137,-0.41378c-0.30788,-0.08415 -0.61685,-0.17285 -0.91864,-0.26265c-0.82431,-0.24839 -1.64159,-0.50146 -2.4355,-0.77807l-0.13072,0.1358c0.37898,2.10131 1.15277,3.20938 1.75631,3.72774c1.23037,1.05841 3.5247,1.2304 3.5247,1.2304c0,0 -6.9425,1.25417 -10.95796,-3.98491c-0.42664,-0.55691 -0.85769,-1.13446 -1.2696,-1.7515l-0.18082,-0.35501c-0.83671,-0.24329 -1.68784,-0.57708 -2.53244,-1.0166c-5.15074,-2.70104 -5.87816,-5.06864 -5.87816,-5.06864l0.14005,0.87283c0.57569,2.26654 1.10612,3.69052 1.10612,3.69052c0,0 -6.17832,-3.57465 -9.08958,-9.18365c-2.34742,-4.52782 -2.63027,-7.31578 -2.66331,-7.78484l-0.2691,-1.67044c-0.39142,-6.56774 -0.27584,-13.95655 0.33931,-21.24539l0.04808,-0.19556c0.5824,-5.63875 -0.56726,-14.89643 6.49443,-24.69627c13.233,-18.35907 27.49895,-18.30572 35.49405,-31.80321c5.88081,-9.92968 3.83065,-20.96872 3.83065,-20.96872c0,0 4.05799,5.28694 5.71764,8.42034c1.60787,3.0543 3.35218,7.00419 3.35218,7.00419l0.0499,-0.03621c0.03043,-0.1184 0.05715,-0.23925 0.07938,-0.35993c0.34439,-1.87954 0.06943,-4.6274 0.06943,-4.6274c0,0 4.08924,10.58957 10.28227,17.39268c6.1893,6.79976 14.8111,8.47095 26.5523,32.13307c1.46103,2.94034 2.80871,5.41041 3.5871,8.177l0.3661,1.59543c1.13954,4.98571 1.32093,18.87745 -0.41641,24.95138zM225.64042,158.42703c0,0 -6.69761,7.53391 -5.83608,17.61296c0.76228,8.91798 3.18735,11.58575 4.4624,12.22706c1.31083,0.6552 3.28306,0.15794 3.28306,0.15794c0,0 -5.50735,3.20267 -10.25378,-0.65773c-3.1747,-2.58035 -6.65129,-5.93354 -7.9764,-15.72827M284.4119,172.20923c0,0 0.96668,2.45007 -0.94282,7.7271c-2.14778,5.94511 -7.09804,7.95443 -7.09804,7.95443c0,0 3.81496,-9.17911 -0.02343,-17.51457c-1.67533,-3.64179 -6.50204,-6.21237 -11.5034,-7.96429c-6.77762,-2.37613 -13.87489,-3.24748 -13.87489,-3.24748M288.32139,189.66315c-0.32857,1.20949 -0.89896,2.79347 -1.88916,4.76631c-2.10744,4.21905 -8.64272,7.94541 -8.64272,7.94541c0,0 1.04098,-4.1893 0.40346,-9.87518M211.0304,179.22726c-0.63494,1.29922 -1.10788,2.68377 -1.34575,4.13566c-1.49645,9.05281 2.15716,18.81372 2.15716,18.81372c0,0 -6.17645,-3.57303 -9.08958,-9.18374c-2.58254,-4.97975 -2.6661,-7.85499 -2.6661,-7.85499M295.18631,180.85129c-2.6554,7.93292 -6.68937,12.59787 -6.68937,12.59787c0,0 0.55513,-7.9612 -3.29059,-16.29726c-0.1735,-0.37691 -0.36734,-0.74221 -0.57145,-1.09629M250.97023,159.16438c0,0 1.20723,0.26921 4.45878,2.65286c3.25165,2.38365 4.51984,5.07484 4.51984,5.07484c0,0 -9.40391,-2.08158 -14.63004,-3.73c-5.22081,-1.65043 -22.77775,-5.69042 -22.77775,-5.69042M222.98168,197.65102c2.68051,3.86318 5.39107,5.91513 5.39107,5.91513c0,0 -6.09762,2.15666 -11.89889,-0.88253c-5.15073,-2.70094 -5.87816,-5.06864 -5.87816,-5.06864M278.20619,198.2563c-6.45056,5.38351 -14.42245,8.21287 -24.21601,9.20718c-11.67606,1.18536 -20.29942,-0.18483 -27.72568,-2.76308M226.03588,204.18508c0.32199,2.52611 1.18914,3.80801 1.85232,4.37624c1.23127,1.05838 3.5256,1.23037 3.5256,1.23037c0,0 -6.9443,1.25425 -10.95886,-3.98487c-0.42664,-0.55691 -0.85769,-1.13446 -1.2696,-1.7515M251.65773,159.438c0,0 25.6181,2.09729 26.1707,16.01212" fill="#a61b29"/><path d="M283.06434,181.26874c-0.55343,10.04507 -11.64293,20.9428 -28.43948,22.59552c-14.82826,1.46726 -37.05847,-4.34398 -40.73432,-16.52481c-0.36577,-1.22435 -0.58138,-2.41223 -0.67282,-3.5582l0.33231,0.22288c1.19359,1.6067 2.4921,2.74798 3.74604,3.76492c4.74635,3.8586 10.25371,0.65593 10.25371,0.65593c0,0 -1.97215,0.49905 -3.28298,-0.15615c-1.27505,-0.64131 -3.70013,-3.30908 -4.46241,-12.22705c-0.8616,-10.08085 5.83609,-17.61296 5.83609,-17.61296l0.01506,-0.23308c5.2856,1.24063 15.81739,3.75049 19.66147,4.96641c5.22617,1.64932 14.63003,3.73 14.63003,3.73c0,0 -1.26819,-2.6912 -4.51984,-5.07485c-1.62759,-1.19216 -2.74137,-1.85518 -3.44784,-2.22083l0.65172,0.0759c0,0 19.772,2.12489 23.71833,10.70375c3.83753,8.33639 0.02432,17.51453 0.02432,17.51453c0,0 4.21516,-1.71251 6.5492,-6.64422z" fill="#bfc9d4"/></g><path d="M243.03113,180.06376v0v0v0v0v0c0.73042,0.14688 1.20126,0.85751 1.05248,1.58807c-0.14676,0.73221 -0.85378,1.20278 -1.58931,1.05989c-0.04223,-0.00949 -4.30409,-0.83423 -8.2994,0.66014c-0.12298,0.04525 -0.24644,0.0734 -0.37119,0.08267c-0.58349,0.04343 -1.15079,-0.30071 -1.36592,-0.87503c-0.12705,-0.3354 -0.10305,-0.69196 0.02938,-0.99974c-0.26874,-0.20211 -0.52873,-0.46975 -0.72324,-0.85076c-0.22781,-0.44161 -0.05348,-0.98534 0.38998,-1.21249c0.43948,-0.22134 0.98435,-0.05612 1.21343,0.38911c0.18164,0.3548 0.63652,0.42653 0.64203,0.42793c0.13424,0.01979 0.25456,0.0722 0.36006,0.14377c0.13087,-0.03772 0.26245,-0.0764 0.39182,-0.10858c-0.15372,-0.19794 -0.29943,-0.42184 -0.39811,-0.70339c-0.16319,-0.47078 0.08589,-0.98138 0.55661,-1.14547c0.47398,-0.16885 0.98331,0.08755 1.14548,0.55661c0.12989,0.3749 0.56023,0.51704 0.56395,0.51857c0.1998,0.05201 0.35344,0.17595 0.47043,0.32789c3.20454,-0.38923 5.78481,0.11113 5.93152,0.14083z" data-paper-data="{&quot;index&quot;:null}" fill="#231f20" stroke="none" stroke-width="0.90024" stroke-linecap="butt" stroke-linejoin="miter"/><path d="M275.37957,179.26635v0v0v0v0v0c-0.24491,0.78099 -0.77585,1.20556 -1.19834,1.45006c0.07179,0.26236 0.09262,0.54451 -0.0082,0.81957c-0.25667,0.69913 -1.01671,1.06523 -1.73262,0.80481c-2.71245,-0.99233 -6.2943,-1.63688 -7.10095,-0.9771c-0.29121,0.23703 -0.64955,0.33373 -0.99767,0.29564c-0.34275,-0.03751 -0.66773,-0.20445 -0.90167,-0.4917c-0.47114,-0.57687 -0.38538,-1.42688 0.19338,-1.89974c1.55821,-1.27115 4.51363,-0.91064 6.84753,-0.34018c0.12628,-0.08668 0.33191,-0.2697 0.38055,-0.54877c0.07891,-0.48851 0.50966,-0.85806 1.03152,-0.74471c0.49032,0.079 0.82303,0.53922 0.74473,1.03143c-0.05197,0.30948 -0.15771,0.56419 -0.27967,0.79349c0.11455,0.03698 0.22404,0.07068 0.32615,0.1064c0.10872,-0.13307 0.23883,-0.24649 0.41515,-0.30143c0.02662,-0.01157 0.44459,-0.16512 0.56345,-0.53971c0.15138,-0.47334 0.64948,-0.74578 1.12929,-0.58734c0.47334,0.15138 0.73625,0.65386 0.58735,1.12929z" data-paper-data="{&quot;index&quot;:null}" fill="#231f20" stroke="none" stroke-width="0.90024" stroke-linecap="butt" stroke-linejoin="miter"/><g data-paper-data="{&quot;index&quot;:null}" stroke-linejoin="miter"><path d="M205.39936,169.22102c0.36311,12.97361 -1.00314,23.53728 -6.33979,23.68664c-5.33667,0.14936 -13.62246,-10.14415 -13.98557,-23.11776c-0.36311,-12.97361 7.33398,-23.71447 12.67065,-23.86383c5.33667,-0.14936 7.29161,10.32134 7.65472,23.29495z" fill="url(#color-1)" stroke="#000000" stroke-width="0.90024" stroke-linecap="butt"/><path d="M190.99507,154.67262l2.0196,-2.90538" fill="none" stroke="#ea42a4" stroke-width="2" stroke-linecap="round"/><path d="M201.24655,158.70094l-3.36769,0.46762" fill="none" stroke="#ea42a4" stroke-width="2" stroke-linecap="round"/><path d="M193.29485,166.87226l0.34673,-1.86542" fill="none" stroke="#ea42a4" stroke-width="2" stroke-linecap="round"/><path d="M191.99046,174.92822l1.71678,2.18463" fill="none" stroke="#ea42a4" stroke-width="2" stroke-linecap="round"/><path d="M203.535,180.99809l-1.58479,0.22006" fill="none" stroke="#ea42a4" stroke-width="2" stroke-linecap="round"/><path d="M196.65631,189.62617l-1.83792,-0.14864" fill="none" stroke="#ea42a4" stroke-width="2" stroke-linecap="round"/><path d="M189.3435,179.13222l1.3481,2.43776" fill="none" stroke="#ea42a4" stroke-width="2" stroke-linecap="round"/><path d="M188.58993,169.34284l-1.46368,-1.81595" fill="none" stroke="#ea42a4" stroke-width="2" stroke-linecap="round"/><path d="M188.4362,158.05672l0.22006,1.58479" fill="none" stroke="#ea42a4" stroke-width="2" stroke-linecap="round"/><path d="M198.41282,152.83493l2.38828,-3.1585" fill="none" stroke="#ea42a4" stroke-width="2" stroke-linecap="round"/></g><g data-paper-data="{&quot;index&quot;:null}" stroke-linejoin="miter"><path d="M296.74337,140.34783c5.33868,0.02677 13.28041,10.58801 13.21536,23.56654c-0.06506,12.97853 -8.11229,23.45963 -13.45098,23.43286c-5.33868,-0.02677 -6.94717,-10.55627 -6.8821,-23.5348c0.06506,-12.97853 1.77904,-23.49137 7.11773,-23.4646z" fill="url(#color-2)" stroke="#000000" stroke-width="0.90025" stroke-linecap="butt"/><path d="M303.69202,148.93707l-2.08578,-2.85823" fill="none" stroke="#ea42a4" stroke-width="2" stroke-linecap="round"/><path d="M293.53578,153.19977l3.37754,0.39016" fill="none" stroke="#ea42a4" stroke-width="2" stroke-linecap="round"/><path d="M301.28354,159.32934l0.38948,1.85695" fill="none" stroke="#ea42a4" stroke-width="2" stroke-linecap="round"/><path d="M301.49593,171.43367l1.66617,-2.22348" fill="none" stroke="#ea42a4" stroke-width="2" stroke-linecap="round"/><path d="M291.75998,175.54357l1.58943,0.18361" fill="none" stroke="#ea42a4" stroke-width="2" stroke-linecap="round"/><path d="M300.669,183.82061l-1.83401,0.1908" fill="none" stroke="#ea42a4" stroke-width="2" stroke-linecap="round"/><path d="M304.61312,175.82037l1.29175,-2.46807" fill="none" stroke="#ea42a4" stroke-width="2" stroke-linecap="round"/><path d="M307.85503,161.6991l-1.42158,1.84908" fill="none" stroke="#ea42a4" stroke-width="2" stroke-linecap="round"/><path d="M306.32795,152.26151l-0.18361,1.58944" fill="none" stroke="#ea42a4" stroke-width="2" stroke-linecap="round"/><path d="M296.23402,147.27022l-2.46019,-3.10282" fill="none" stroke="#ea42a4" stroke-width="2" stroke-linecap="round"/></g><g stroke-linejoin="miter"><g stroke-linecap="butt"><g stroke="#000000" stroke-width="1"><path d="M251.56209,213.14455h55.67854v24.113h-55.67854z" fill="url(#color-3)"/><path d="M256.5013,208.72384h55.67854l-4.93922,4.42072h-55.67855z" fill="#9966ff"/><path d="M307.4912,213.11761l4.71472,-4.21977l-0.67354,24.51489l-4.49021,3.91836z" fill="url(#color-4)"/></g><path d="M304.73979,213.99647c0.44092,0 0.79835,0.15996 0.79835,0.35728c0,0.19732 -0.35743,0.35727 -0.79835,0.35727c-0.44092,0 -0.79836,-0.15995 -0.79836,-0.35727c0,-0.19732 0.35744,-0.35728 0.79836,-0.35728z" fill="#b9b9b9" stroke="none" stroke-width="0.5"/><path d="M304.38497,235.90911c0.44092,0 0.79835,0.15995 0.79835,0.35727c0,0.19732 -0.35743,0.35727 -0.79835,0.35727c-0.44092,0 -0.79836,-0.15995 -0.79836,-0.35727c0,-0.19732 0.35744,-0.35727 0.79836,-0.35727z" fill="#b9b9b9" stroke="none" stroke-width="0.5"/><path d="M253.46788,236.22668c0.44091,0 0.79835,0.15996 0.79835,0.35727c0,0.19732 -0.35744,0.35727 -0.79835,0.35727c-0.44091,0 -0.79835,-0.15995 -0.79835,-0.35727c0,-0.19732 0.35744,-0.35727 0.79835,-0.35727z" fill="#b9b9b9" stroke="none" stroke-width="0.5"/><path d="M252.93564,213.83768c0.44091,0 0.79835,0.15995 0.79835,0.35727c0,0.19732 -0.35744,0.35727 -0.79835,0.35727c-0.44091,0 -0.79835,-0.15995 -0.79835,-0.35727c0,-0.19732 0.35744,-0.35727 0.79835,-0.35727z" fill="#b9b9b9" stroke="none" stroke-width="0.5"/></g><g stroke="#000000" stroke-width="1" stroke-linecap="butt"><path d="M256.16442,225.14222c0,-5.20726 4.22132,-9.42857 9.42857,-9.42857c5.20725,0 9.42857,4.22132 9.42857,9.42857c0,5.20726 -4.22132,9.42857 -9.42857,9.42857c-5.20725,0 -9.42857,-4.22132 -9.42857,-9.42857z" fill="#8499b1"/><path d="M259.39707,225.5463c0,-3.04996 2.47248,-5.52245 5.52245,-5.52245c3.04996,0 5.52245,2.47249 5.52245,5.52245c0,3.04996 -2.47249,5.52244 -5.52245,5.52244c-3.04996,0 -5.52245,-2.47248 -5.52245,-5.52244z" fill="#92c5ff"/></g><g stroke="#000000" stroke-width="1" stroke-linecap="butt"><path d="M280.16442,225.17793c0,-5.20726 4.22132,-9.42857 9.42857,-9.42857c5.20725,0 9.42857,4.22132 9.42857,9.42857c0,5.20726 -4.22132,9.42857 -9.42857,9.42857c-5.20725,0 -9.42857,-4.22132 -9.42857,-9.42857z" fill="#8499b1"/><path d="M283.39707,225.58202c0,-3.04996 2.47249,-5.52245 5.52245,-5.52245c3.04996,0 5.52245,2.47249 5.52245,5.52245c0,3.04996 -2.47249,5.52245 -5.52245,5.52245c-3.04996,0 -5.52245,-2.47248 -5.52245,-5.52245z" fill="#92c5ff"/></g><path d="M299.73584,210.81841l4,-18.57143" fill="none" stroke="#000000" stroke-width="2" stroke-linecap="round"/></g><g data-paper-data="{&quot;index&quot;:null}" stroke="#001026" stroke-width="0.9" stroke-linejoin="miter"><g><path d="M240.90739,221.43794c0,0 -1.43134,1.55489 -2.24008,1.81875c-0.76247,0.24877 -2.4817,-0.27822 -2.4817,-0.27822l-7.59631,-12.46956l8.24993,-3.66887l4.06815,14.59791z" fill="#505a63" stroke-linecap="butt"/><path d="M236.92546,205.77621c1.12782,2.53606 -0.01377,5.50624 -2.54983,6.63406c-2.53606,1.12783 -5.50624,-0.01378 -6.63406,-2.54984c-1.12782,-2.53605 0.01378,-5.50623 2.54984,-6.63405c2.53606,-1.12782 5.50623,0.01378 6.63405,2.54984z" fill="url(#color-5)" stroke-linecap="butt"/><path d="M232.63989,203.00095c0,0 1.57187,2.16889 2.11744,3.43419c0.58374,1.35384 1.27822,4.44118 1.27822,4.44118" fill="none" stroke-linecap="round"/><path d="M229.06833,204.80258c0,0 1.02302,1.51903 1.38229,2.58663c0.48623,1.44493 1.27128,5.2988 1.27128,5.2988" fill="none" stroke-linecap="round"/><path d="M227.48591,207.95932c0,0 3.01655,-1.65093 4.49058,-1.94608c1.69431,-0.33927 5.10679,0.02434 5.10679,0.02434" fill="none" stroke-linecap="round"/><path d="M228.06041,210.69012c0,0 2.45277,-0.76427 3.75284,-0.89039c1.67242,-0.16222 5.44898,-0.00222 5.44898,-0.00222" fill="none" stroke-linecap="round"/></g><path d="M232.36758,219.39969c-0.74707,-1.69359 0.07777,-3.50558 1.84236,-4.0472c1.76458,-0.54162 4.1479,0.81284 4.89498,2.50642c0.74708,1.69359 -0.425,3.08497 -2.18958,3.62659c-1.76459,0.54162 -3.80068,-0.39223 -4.54776,-2.08581z" fill="#a61b29" stroke-linecap="butt"/></g><path d="M248.83127,189.33535h-2.83333" fill="none" stroke="#231f20" stroke-width="1.5" stroke-linecap="round" stroke-linejoin="miter"/><g fill="none" stroke="#0016c6" stroke-width="3.5" stroke-linecap="round" stroke-linejoin="miter"><path d="M221.28127,162.79091l-1.4,10"/><path d="M226.28127,173.19089l2,-10.6"/><path d="M235.20202,161.75317l-1.13585,8.1132"/></g></g></g></svg>