<svg version="1.1" xmlns="http://www.w3.org/2000/svg" xmlns:xlink="http://www.w3.org/1999/xlink" width="101.56918" height="121.20963" viewBox="0,0,101.56918,121.20963"><defs><radialGradient cx="269.82541" cy="186.15016" r="7.3567" gradientUnits="userSpaceOnUse" id="color-1"><stop offset="0" stop-color="#54606d"/><stop offset="1" stop-color="#2c3136"/></radialGradient><radialGradient cx="230.89157" cy="181.87943" r="56.98503" gradientUnits="userSpaceOnUse" id="color-2"><stop offset="0" stop-color="#8fe1ff" stop-opacity="0"/><stop offset="1" stop-color="#8fe1ff"/></radialGradient></defs><g transform="translate(-180.10698,-121.27461)"><g data-paper-data="{&quot;isPaintingLayer&quot;:true}" stroke-miterlimit="10" stroke-dasharray="" stroke-dashoffset="0" style="mix-blend-mode: normal"><path d="M237.84521,201.12644c0.08631,0.74123 0.27366,2.12186 0.426,3.94804c0.28931,3.46796 0.45241,8.54265 -0.44234,13.89627l-0.09283,0.40172c-0.09283,0.40172 0.26153,0.80723 0.70873,0.81099c2.91056,-0.42268 8.59525,-1.00085 7.60824,4.67064c-0.89607,5.49336 -17.9558,7.89868 -19.3412,2.47552c-0.38286,-2.32883 1.01362,-3.52456 1.77915,-4.14422c0.40549,-0.35436 0.63286,-0.79968 0.77118,-1.29046c0.18943,-1.25065 0.47737,-3.57381 0.44887,-5.49714c-0.00399,-4.83012 -0.3508,-6.13001 -0.77726,-8.59336c-0.42646,-2.46336 -1.62994,-8.24277 2.90259,-10.0829c3.85985,-1.6222 5.71319,1.34515 6.00887,3.4049z" fill="#ffab19" fill-rule="evenodd" stroke="#001026" stroke-width="1.2" stroke-linecap="round" stroke-linejoin="round"/><g fill-rule="evenodd"><path d="M222.48828,200.85c0.8,0.4 2.5,1.3 0.1,4.7c-2.4,3.4 -9.3,4.1 -10.1,4.1c-3.1,0.1 -6.9,0.1 -11.1,-1.3c-12.2,-4 -12.3,-17.1 -8.4,-19.2c3.8,-2.1 5.5,6 11,10.9c2.4,2.2 5.3,3 7.7,3.5c3.4,0.6 9.9,-3.2 10.8,-2.7z" fill="#ffab19" stroke="#001026" stroke-width="1.2" stroke-linecap="round" stroke-linejoin="round"/><path d="M197.68828,192.75c1.6,2.7 4.7,6.5 4.7,6.5c0,0 -3.7,-0.9 -5.8,0.8c-1.7,1.3 -1.3,3.5 -1.1,4.2c-1.3,-1.3 -2.9,-3.1 -3.9,-6.6c-1,-3.5 0,-7.7 2,-8.3c2,-0.4 2.5,1.1 4.1,3.4z" fill="#ffffff" stroke="none" stroke-width="1" stroke-linecap="butt" stroke-linejoin="miter"/></g><path d="M242.4114,191.36874c0.37968,0.5156 4.41232,9.04718 6.80947,7.82503c2.86108,-1.40862 7.10834,-4.5168 9.7335,-0.39872c2.62516,4.11807 -5.39082,7.77104 -8.57991,8.47085c-7.46666,1.21201 -11.35216,-5.93452 -12.09802,-7.79024c-0.74587,-1.85571 -2.07697,-5.00661 -1.40522,-7.51834c0.82003,-2.6791 4.28545,-2.47688 5.54018,-0.58859z" fill="#ffab19" fill-rule="evenodd" stroke="#001026" stroke-width="1.2" stroke-linecap="round" stroke-linejoin="round"/><path d="M220.41621,207.77317c0.11088,-2.07791 1.69228,-5.19867 5.68139,-3.92706c4.67855,1.42871 3.99511,7.2924 3.78997,9.78397c-0.20514,2.49157 0.36532,3.8172 0.79198,8.62844c0.14309,1.91821 -0.163,4.20645 0.13718,5.43523c0.10105,0.26525 0.99032,10.54547 -7.59827,10.10014c-7.58278,-0.39318 -1.39506,-12.24891 -1.39506,-12.24891c0,0 -1.45847,-10.32156 -1.4795,-13.8015c-0.01108,-1.83249 0.05244,-3.22433 0.07232,-3.9703z" data-paper-data="{&quot;index&quot;:null}" fill="#ffab19" fill-rule="evenodd" stroke="#001026" stroke-width="1.2" stroke-linecap="round" stroke-linejoin="round"/><g fill-rule="evenodd"><path d="M225.01451,207.58094c-10.91689,-4.68629 -5.73806,-10.43431 -4.94569,-15.88427c0.85759,-4.72489 2.17174,-4.37419 8.20172,-5.41311c3.35223,-0.75666 5.32626,-1.19628 7.34298,-2.08106c3.04307,-1.28052 4.2101,3.41396 4.26975,6.07035c0,0 0.02485,3.95593 -0.50455,6.1964c-0.66542,2.72162 -1.24543,4.55291 -2.0413,5.82436c0,0 -1.70993,2.73309 -3.86088,3.65599c-1.93347,0.82958 -8.46204,1.63134 -8.46204,1.63134z" fill="#ffab19" stroke="#001026" stroke-width="1.2" stroke-linecap="round" stroke-linejoin="round"/><path d="M236.4617,202.52409c0,0 -1.83128,-0.58001 -3.8638,-1.40396c-2.51366,-0.95996 -4.91939,-1.64 -4.16856,-5.25196c0.81606,-2.88688 1.25099,-6.48421 6.493,-5.39731c4.98345,0.97225 4.11006,3.9884 4.11006,3.9884c-0.43377,4.99017 -2.57071,8.06482 -2.57071,8.06482z" fill="#ffffff" stroke="none" stroke-width="1" stroke-linecap="butt" stroke-linejoin="miter"/></g><path d="M245.67159,129.35664c0.28612,-0.21941 0.79163,-0.15271 0.91788,0.2398l3.30221,10.50454c0,0 6.69693,4.26628 8.8111,7.43335c3.55687,5.27624 3.95437,9.75977 3.95437,9.75977c0,0 7.22338,1.62566 8.79786,7.23379c1.57449,5.60812 -2.10136,16.67556 -20.61537,21.61126c-18.51402,4.9357 -33.91835,0.84589 -41.75701,-10.0594c-7.83866,-10.90529 2.43702,-25.21648 1.89126,-24.37854c0,0 -2.088,-15.83871 -1.67564,-15.66562l11.75731,4.47409c0,0 4.37767,-1.99399 9.05414,-2.50451c2.78063,-0.38481 5.1886,-0.34403 7.51003,-0.09708z" fill="#ffab19" fill-rule="evenodd" stroke="#001026" stroke-width="1.2" stroke-linecap="butt" stroke-linejoin="miter"/><path d="M262.38426,157.71306c0,0 7.00397,1.33955 8.57845,6.94767c1.57449,5.60812 -2.53356,16.20312 -20.85463,21.0258c-23.81617,6.59011 -36.24369,-7.01749 -30.25966,-18.03754c5.97741,-11.11983 18.05427,-2.8006 26.39617,-3.95503c7.15114,-0.97525 7.53259,-7.31438 16.13967,-5.98091z" fill="#ffffff" fill-rule="evenodd" stroke="none" stroke-width="1" stroke-linecap="butt" stroke-linejoin="miter"/><path d="M280.81672,157.59331c-4.4383,4.10263 -11.6159,4.67876 -11.6159,4.67876" fill="none" fill-rule="evenodd" stroke="#001026" stroke-width="1.2" stroke-linecap="round" stroke-linejoin="round"/><path d="M280.26056,168.85478c-6.25312,0.91571 -10.27027,-0.7221 -10.27027,-0.7221" fill="none" fill-rule="evenodd" stroke="#001026" stroke-width="1.2" stroke-linecap="round" stroke-linejoin="round"/><path d="M245.57005,162.00191c2.0954,-0.13894 4.30382,-0.08493 4.4499,0.60692c0.19241,1.39032 -1.11906,4.28342 -2.70894,4.48906c-1.78283,0.31865 -6.13903,-1.898 -6.24488,-3.4945c-0.17917,-1.19075 2.50829,-1.46916 4.50392,-1.60149z" fill="#001026" fill-rule="evenodd" stroke="#001026" stroke-width="1.2" stroke-linecap="round" stroke-linejoin="round"/><path d="M200.6728,162.6066c0,0 8.76641,2.22489 12.46383,5.08654" fill="none" fill-rule="evenodd" stroke="#001026" stroke-width="1.2" stroke-linecap="round" stroke-linejoin="round"/><path d="M213.66755,171.16563c-4.17811,1.98076 -11.63467,1.37276 -11.63467,1.37276" fill="none" fill-rule="evenodd" stroke="#001026" stroke-width="1.2" stroke-linecap="round" stroke-linejoin="round"/><g fill-rule="nonzero" stroke="#001026" stroke-width="1.2" stroke-linejoin="miter"><g><path d="M246.78776,201.4153l13.55671,-17.55923l9.16917,9.51936l-17.16997,12.72957c0,0 -2.62205,-0.23199 -3.51921,-0.98929c-0.9516,-0.80324 -2.03671,-3.70041 -2.03671,-3.70041z" fill="#505a63" stroke-linecap="butt"/><path d="M260.81333,182.36572c2.92629,-2.81865 7.58348,-2.73137 10.40212,0.19491c2.81865,2.92629 2.73137,7.58349 -0.19491,10.40212c-2.92629,2.81865 -7.58349,2.73138 -10.40213,-0.19491c-2.81865,-2.92629 -2.73136,-7.58348 0.19493,-10.40213z" fill="url(#color-1)" stroke-linecap="butt"/><path d="M259.21178,189.77318c0,0 2.64212,-3.805 4.1794,-5.31978c1.43676,-1.41572 4.76312,-3.49182 4.76312,-3.49182" fill="none" stroke-linecap="round"/><path d="M264.06481,194.60591c0,0 3.18707,-4.79479 4.64227,-6.48682c1.07521,-1.25017 3.29927,-2.74709 3.29927,-2.74709" fill="none" stroke-linecap="round"/><path d="M260.45536,182.63331c0,0 4.82866,1.38605 6.93987,2.77925c1.83673,1.21206 5.019,5.11245 5.019,5.11245" fill="none" stroke-linecap="round"/><path d="M258.14208,187.63443c0,0 5.21035,1.86271 7.38937,3.00373c1.69387,0.88698 4.59975,3.27431 4.59975,3.27431" fill="none" stroke-linecap="round"/></g><path d="M259.49298,203.35357c-1.94593,1.88564 -5.22179,2.03098 -7.31688,0.32462c-2.09509,-1.70636 -2.91858,-4.23898 -0.97265,-6.12463c1.94593,-1.88564 5.92438,-2.41026 8.01945,-0.70389c2.09509,1.70636 2.21599,4.61824 0.27007,6.50389z" fill="#ffab19" stroke-linecap="butt"/></g><g fill-rule="nonzero" stroke="#001026" stroke-width="1.2" stroke-linecap="butt" stroke-linejoin="miter"><path d="M222.29703,147.29504c-1.09093,4.44597 -20.34213,13.88662 -20.34213,13.88662c0,0 -2.87535,0.06875 -4.23429,0.03008c-10.17743,-0.28952 -17.1961,-3.23501 -16.23368,-7.15726c1.09093,-4.44597 12.02352,-8.46336 24.4186,-8.9731c12.39509,-0.50975 17.48243,-2.23231 16.3915,2.21365z" fill="#00b0f7"/><path d="M206.66673,143.94189l-11.99857,-2.85566c0,0 13.97384,-7.41675 21.75591,-9.80836c9.41193,-2.89251 30.76153,-6.33147 30.76153,-6.33147l-12.70575,18.78763z" fill="#ff2b2b"/><path d="M199.5183,162.30599c0,0 -3.43628,-7.11913 -4.25965,-10.63632c-0.79878,-3.41218 -0.60904,-10.16139 -0.60904,-10.16139l25.79576,-6.03872c0,0 1.11818,7.61153 1.95272,11.17638c0.78539,3.35497 2.91597,9.62133 2.91597,9.62133z" data-paper-data="{&quot;index&quot;:null}" fill="#cc0000"/><path d="M224.89165,156.29936c0,0 -1.55291,-6.45008 -2.75315,-9.67996c-1.27532,-3.43193 -4.68721,-10.3423 -4.68721,-10.3423l30.40416,-11.29831c0,0 4.2515,5.38458 5.47222,8.66953c1.25828,3.38605 1.96814,11.35271 1.96814,11.35271z" fill="#f70000"/></g><path d="M218.26076,197.19269c-2.88084,2.96565 -3.74807,7.1463 -6.16185,7.93364c-1.57532,0.51385 -3.36348,0.33678 -4.09826,-0.37698c-0.81895,-0.79552 -1.30156,-3.11603 -0.64224,-4.963c0.83861,-2.34927 1.499,-6.39496 4.16443,-9.13887c2.35123,-2.42045 6.62006,-3.33015 8.77179,-4.35172c2.20528,-1.04701 4.00532,-0.20988 4.94706,0.70493c1.01673,0.98766 1.47337,2.67023 0.26881,5.14618c-0.99979,2.05508 -5.09038,2.82289 -7.24975,5.04583z" fill="#ffab19" fill-rule="nonzero" stroke="#001026" stroke-width="1.2" stroke-linecap="butt" stroke-linejoin="miter"/><path d="M224.97543,161.24261l6.28913,0.5376l-6.29593,1.54498" fill="none" fill-rule="nonzero" stroke="#001026" stroke-width="1.2" stroke-linecap="round" stroke-linejoin="miter"/><path d="M261.09058,158.54647l-6.48205,0.09351l5.95002,-2.10699" data-paper-data="{&quot;index&quot;:null}" fill="none" fill-rule="nonzero" stroke="#001026" stroke-width="1.2" stroke-linecap="round" stroke-linejoin="miter"/><path d="M236.12588,177.0108c0.26026,-2.23863 7.88127,-5.37938 10.94063,-4.94651c2.73207,0.27597 4.85318,4.3211 4.45367,6.2714c-0.28563,0.9709 -4.09713,1.06367 -7.7043,0.88511c-3.43542,-0.17006 -8.05695,-0.53954 -7.68999,-2.21001z" data-paper-data="{&quot;index&quot;:null}" fill="#ffffff" fill-rule="evenodd" stroke="#001026" stroke-width="1.2" stroke-linecap="round" stroke-linejoin="round"/><path d="M180.10698,242.48424v-121.20963h101.56918v121.20963z" fill="url(#color-2)" fill-rule="nonzero" stroke="none" stroke-width="0" stroke-linecap="butt" stroke-linejoin="miter"/></g></g></svg>