<svg version="1.1" xmlns="http://www.w3.org/2000/svg" xmlns:xlink="http://www.w3.org/1999/xlink" width="791.34569" height="297.33114" viewBox="0,0,791.34569,297.33114"><defs><linearGradient x1="462.10371" y1="93.68051" x2="462.10371" y2="321.97633" gradientUnits="userSpaceOnUse" id="color-1"><stop offset="0" stop-color="#270a0a"/><stop offset="1" stop-color="#1b0f0f"/></linearGradient><linearGradient x1="11.58435" y1="93.68051" x2="11.58435" y2="321.97633" gradientUnits="userSpaceOnUse" id="color-2"><stop offset="0" stop-color="#270a0a"/><stop offset="1" stop-color="#1b0f0f"/></linearGradient><linearGradient x1="240.48385" y1="34.46953" x2="240.48385" y2="315.00772" gradientUnits="userSpaceOnUse" id="color-3"><stop offset="0" stop-color="#270a0a"/><stop offset="1" stop-color="#1b0f0f"/></linearGradient><linearGradient x1="147.54905" y1="32.11336" x2="147.54905" y2="327.88663" gradientUnits="userSpaceOnUse" id="color-4"><stop offset="0" stop-color="#270a0a"/><stop offset="1" stop-color="#1b0f0f"/></linearGradient><linearGradient x1="338.66572" y1="32.11336" x2="338.66572" y2="327.88663" gradientUnits="userSpaceOnUse" id="color-5"><stop offset="0" stop-color="#270a0a"/><stop offset="1" stop-color="#1b0f0f"/></linearGradient><linearGradient x1="-118.48096" y1="32.11336" x2="-118.48096" y2="327.88663" gradientUnits="userSpaceOnUse" id="color-6"><stop offset="0" stop-color="#270a0a"/><stop offset="1" stop-color="#1b0f0f"/></linearGradient><linearGradient x1="598.48096" y1="32.11336" x2="598.48096" y2="327.88663" gradientUnits="userSpaceOnUse" id="color-7"><stop offset="0" stop-color="#270a0a"/><stop offset="1" stop-color="#1b0f0f"/></linearGradient></defs><g transform="translate(155.67284,-31.31131)"><g data-paper-data="{&quot;isPaintingLayer&quot;:true}" fill-rule="nonzero" stroke="#100505" stroke-linejoin="miter" stroke-miterlimit="10" stroke-dasharray="" stroke-dashoffset="0" style="mix-blend-mode: normal"><g fill="none" stroke-width="2.5" stroke-linecap="round"><g><path d="M179.61474,103.50702v67.34957"/><path d="M187.77905,103.50702v67.34957"/><path d="M195.94337,103.50702v67.34957"/><path d="M204.10767,103.50702v67.34957"/><path d="M212.27199,103.50702v67.34957"/><path d="M220.4363,103.50702v67.34957"/><path d="M228.60061,103.50702v67.34957"/><path d="M236.76492,103.50702v67.34957"/><path d="M244.92924,103.50702v67.34957"/><path d="M253.09355,103.50702v67.34957"/><path d="M261.25786,103.50702v67.34957"/><path d="M269.42217,103.50702v67.34957"/><path d="M277.58649,103.50702v67.34957"/><path d="M285.7508,103.50702v67.34957"/><path d="M293.91511,103.50702v67.34957"/><path d="M302.07942,103.50702v67.34957"/></g><path d="M176.54015,170.85659h127.8874"/></g><path d="M334.03303,93.68051l256.14137,8.57449l-1.94047,218.64952l-228.97486,1.07182z" data-paper-data="{&quot;index&quot;:null}" fill="url(#color-1)" stroke-width="1.5" stroke-linecap="round"/><path d="M114.42901,321.97632l-228.97486,-1.07181l-1.94047,-218.64951l256.14136,-8.57449z" fill="url(#color-2)" stroke-width="1.5" stroke-linecap="round"/><path d="M245.12856,125.64037c-44.59468,0.27386 -63.209,27.6256 -63.20621,29.47843c0.01985,13.15746 0.24116,159.88892 0.24116,159.88892l-24.5942,-6.39449l2.45942,-222.55794c0,0 27.85716,10.02728 31.23462,-1.47566c0.71483,-2.43456 -5.7003,-12.90104 -0.30381,-14.25016c5.39649,-1.34912 4.15013,11.11633 8.91178,12.28263c18.47432,4.52502 22.29249,-8.69665 24.26119,-15.94306c0.64044,-2.35735 3.28431,-4.22418 3.28431,-4.22418c0,0 -1.73898,-12.21549 -1.71911,-16.93024c0.00919,-2.17954 3.81177,-9.39655 3.81177,-9.39655c0,0 0.29109,10.14384 4.94427,13.88928c2.30787,1.85766 4.76025,-2.38403 8.26458,-2.23944c3.50433,0.14459 6.22616,3.9427 8.15577,2.91695c5.15174,-2.73859 4.35249,-16.21533 4.35249,-16.21533c0,0 3.32769,5.83177 4.34858,10.96624c0.78441,3.94514 0.43217,17.05882 0.43217,17.05882c0,0 2.24024,3.01191 3.02275,4.58976c1.73246,3.49332 -4.15255,13.78148 14.28684,17.50058c1.65181,0.33316 8.17419,-0.95513 10.34427,-3.03272c-0.61248,-5.8321 2.80661,-10.39516 5.82337,-10.3937c3.42838,0.00165 5.88741,6.89581 1.63652,11.44818c0,0 3.27924,5.1049 11.16288,7.29933c5.90309,2.20501 15.3791,1.50845 15.3791,1.50845l1.73532,222.71469l-17.9573,-0.59296c0,0 -2.74157,-144.65729 -2.98084,-157.28212c-0.03275,-1.72814 -11.34324,-30.89615 -57.3317,-30.61373zM242.89156,75.38689c0.55229,0 7.09958,-11.65774 7.09958,-12.21002c0,-0.55228 -6.71214,-9.90208 -7.26443,-9.90208c-0.55229,0 -7.42928,9.18494 -7.42928,9.73723c0,0.55228 7.04184,12.37487 7.59413,12.37487zM293.4435,76.72045c0.55228,0 1.30303,-1.2053 1.30303,-1.75758c0,-0.55228 -1.50832,-1.75758 -2.06061,-1.75758c-0.55228,0 -1.45454,1.50832 -1.45454,2.06061c0,0.55228 1.65983,1.45455 2.21212,1.45455zM192.32878,75.81618c0.55229,0 1.54054,-0.71799 1.54054,-1.27027c0,-0.55228 -1.12339,-1.81081 -1.67567,-1.81081c-0.55229,0 -1.40541,1.1234 -1.40541,1.67568c0,0.55228 0.98825,1.40541 1.54054,1.40541z" fill="url(#color-3)" stroke-width="1.5" stroke-linecap="round"/><path d="M111.26154,323.6996l9.45737,-44.40591l-3.13443,-3.76963l3.76219,-3.86784l14.68808,-156.95871l-5.33039,-74.1888c0,0 -9.7976,-8.85031 -3.88466,-8.37702c3.01744,0.24153 33.31702,0.17052 42.42703,2.87839c9.45221,2.80958 -2.33131,8.39707 -2.33131,8.39707l-3.31612,73.03496l6.22309,155.82873l2.69215,3.61666l-2.49934,4.05715l13.82137,43.05712l-38.03211,4.88486z" fill="url(#color-4)" stroke-width="1.5" stroke-linecap="butt"/><path d="M340.41031,327.88663l-38.03211,-4.88486l13.82137,-43.05712l-2.49934,-4.05715l2.69215,-3.61666l6.22309,-155.82873l-3.31612,-73.03496c0,0 -11.78352,-5.58749 -2.33131,-8.39707c9.11001,-2.70786 39.40958,-2.63686 42.42703,-2.87839c5.91294,-0.47329 -3.88466,8.37702 -3.88466,8.37702l-5.33039,74.18881l14.68808,156.95871l3.76219,3.86784l-3.13443,3.76963l9.45737,44.40591z" data-paper-data="{&quot;index&quot;:null}" fill="url(#color-5)" stroke-width="1.5" stroke-linecap="butt"/><path d="M-154.76847,323.6996l9.45737,-44.40591l-3.13443,-3.76963l3.76219,-3.86784l14.68808,-156.95871l-5.33039,-74.1888c0,0 -9.7976,-8.85031 -3.88466,-8.37702c3.01744,0.24153 33.31702,0.17052 42.42703,2.87839c9.45221,2.80958 -2.33131,8.39707 -2.33131,8.39707l-3.31612,73.03496l6.22309,155.82873l2.69215,3.61666l-2.49934,4.05715l13.82137,43.05712l-38.03211,4.88486z" fill="url(#color-6)" stroke-width="1.5" stroke-linecap="butt"/><path d="M600.22555,327.88663l-38.03211,-4.88486l13.82137,-43.05712l-2.49934,-4.05715l2.69215,-3.61666l6.22309,-155.82873l-3.31612,-73.03496c0,0 -11.78352,-5.58749 -2.33131,-8.39707c9.11001,-2.70786 39.40958,-2.63686 42.42703,-2.87839c5.91294,-0.47329 -3.88466,8.37702 -3.88466,8.37702l-5.33039,74.18881l14.68808,156.95871l3.76219,3.86784l-3.13443,3.76963l9.45737,44.40591z" data-paper-data="{&quot;index&quot;:null}" fill="url(#color-7)" stroke-width="1.5" stroke-linecap="butt"/></g></g></svg>