<svg version="1.1" xmlns="http://www.w3.org/2000/svg" xmlns:xlink="http://www.w3.org/1999/xlink" width="260.43848" height="175.97104" viewBox="0,0,260.43848,175.97104"><defs><radialGradient cx="217.29631" cy="143.10291" r="32.56883" gradientUnits="userSpaceOnUse" id="color-1"><stop offset="0" stop-color="#0006ff"></stop><stop offset="1" stop-color="#00e4ff"></stop></radialGradient><radialGradient cx="242.15425" cy="78.35825" r="62.64859" gradientUnits="userSpaceOnUse" id="color-2"><stop offset="0" stop-color="#0006ff"></stop><stop offset="1" stop-color="#00e4ff"></stop></radialGradient><radialGradient cx="169.00087" cy="106.86296" r="9.88717" gradientUnits="userSpaceOnUse" id="color-3"><stop offset="0" stop-color="#0006ff"></stop><stop offset="1" stop-color="#00e4ff"></stop></radialGradient><radialGradient cx="394.13804" cy="138.73586" r="12.01308" gradientUnits="userSpaceOnUse" id="color-4"><stop offset="0" stop-color="#0006ff"></stop><stop offset="1" stop-color="#00e4ff"></stop></radialGradient></defs><g transform="translate(-157.3231,-50.56565)"><g data-paper-data="{&quot;isPaintingLayer&quot;:true}" fill-rule="nonzero" stroke="none" stroke-width="0.5" stroke-linecap="butt" stroke-linejoin="miter" stroke-miterlimit="10" stroke-dasharray="" stroke-dashoffset="0" style="mix-blend-mode: normal"><path d="M269.82102,169.57542l-2.08406,2.70318c-11.34463,10.74911 -20.17695,25.0469 -29.55354,37.54268c-3.21808,4.28861 -7.68631,13.17235 -13.03009,14.94515c-0.16018,0.05313 -0.32134,0.10171 -0.48341,0.14617l0.02065,0.05853l-3.86283,1.3623c-1.0071,0.37176 -2.1764,0.24065 -3.09893,-0.45159c-1.1769,-0.88312 -1.58918,-2.40713 -1.11576,-3.72293l1.12707,-3.37847l0.16549,0.05521l0.04037,-0.53886c1.61206,-2.19152 3.08659,-4.49028 4.41529,-6.86433c0.6912,-1.235 1.70992,-3.20822 2.72491,-4.88083c-0.35969,0.10655 -0.71685,0.21872 -1.0505,0.37289c-2.99681,1.38503 -7.95497,4.35989 -11.18186,4.59685c-2.64716,0.1944 -6.15757,0.81725 -7.8703,-1.2105c-1.40782,-1.66678 0.79367,-4.30273 1.45847,-6.38075c1.49541,-4.67445 4.01631,-9.01004 6.36796,-13.29783c0.15243,-0.27793 0.2924,-0.56357 0.42485,-0.85378c-3.63864,2.75795 -7.09449,5.76017 -11.03239,8.2081c-0.68585,0.42634 -6.84303,4.01756 -7.81116,4.18414c-0.11389,0.01959 -0.22795,0.03728 -0.34215,0.05321l0.013,0.05042l-3.53629,0.91167c-0.93628,0.24994 -1.97378,0.08319 -2.80901,-0.54354c-1.24509,-0.93429 -1.63438,-2.58589 -1.02453,-3.94936l1.81466,-4.30689c2.69476,-6.31144 6.48194,-12.6948 10.63818,-18.17221c0.07753,-0.10217 0.1555,-0.20585 0.23406,-0.31057c-2.74018,1.08265 -5.38736,1.88766 -8.4153,2.95417c-1.90773,0.67194 -3.53867,2.22319 -5.54755,2.45821c-0.1508,0.01764 -0.30162,0.03117 -0.45244,0.04095l0.00775,0.05441l-4.02551,0.57406c-0.82872,0.11819 -1.70252,-0.07978 -2.42497,-0.6219c-1.44492,-1.08423 -1.73731,-3.13454 -0.65308,-4.57946l2.07085,-2.75974l0.07318,0.05492l0.09766,-0.26403c2.73247,-2.56367 4.14535,-5.53626 6.38686,-8.53008c4.05323,-5.4136 8.46905,-11.27932 11.56967,-17.26424c1.73505,-3.34905 2.78547,-7.06336 4.84555,-10.3417c3.29758,-5.24765 7.28737,-10.64825 11.52448,-15.47157c-5.08485,-12.82587 -5.08553,-28.20807 -2.01018,-40.9058c5.4859,-18.25128 24.5261,-30.06806 43.02067,-30.70777c12.33787,-0.42676 25.54175,4.062 37.47692,8.53762c6.24237,-1.32423 11.78239,0.18505 18.12867,-0.0117c25.15412,2.55587 46.61594,27.18054 43.83093,52.89315c-0.78001,7.20154 -5.31327,13.55296 -9.52074,19.12747c-11.62202,9.4382 -19.96836,23.46985 -32.6754,31.75304c-12.13437,7.90988 -28.43237,9.16263 -42.48231,5.99628c-0.18628,0.42235 -0.38392,0.68573 -0.38392,0.68573zM223.29573,117.67444c2.31233,2.31347 -0.00114,4.6258 -0.00114,4.6258c-0.38648,0.38463 -0.76716,0.77277 -1.14234,1.16428c0.98682,1.90815 2.12429,3.71913 3.42338,5.40368c3.81479,4.94669 8.64514,9.64354 12.95954,14.16343c5.94855,6.23185 13.08365,13.43793 21.34388,16.58391c2.61835,0.99723 5.45115,1.29861 8.1733,1.96204c13.07274,3.84031 29.37925,3.47479 41.0812,-4.17662c12.23454,-7.99966 20.2947,-21.68448 31.51548,-30.79686c3.27828,-4.40157 7.18102,-9.67082 7.73916,-15.37138c2.14137,-21.87034 -16.03485,-43.2908 -37.57229,-45.57535c-2.95603,0.09166 -5.76045,-0.2855 -8.54905,-0.49969c-0.03609,0.28257 -0.1109,0.58573 -0.23305,0.91033c-1.15211,3.0613 -4.21342,1.90919 -4.21342,1.90919c-1.57646,-0.59329 -3.1474,-1.17087 -4.71606,-1.73139c-0.71625,0.15215 -1.58238,0.04454 -2.53512,-0.67038c-0.1616,-0.12127 -0.30575,-0.24504 -0.43395,-0.37052c-8.54306,-2.93546 -17.07876,-5.33858 -26.13006,-6.99036c-4.78533,-0.87328 -9.43087,-1.67972 -14.30817,-0.57569c-4.11553,0.93159 -7.91213,2.93648 -11.88392,4.36137c-5.1001,1.82967 -9.15471,5.25958 -12.3622,9.57578c-2.72403,3.66564 -5.4574,6.96386 -6.7052,11.41662c-2.53583,10.35099 -2.81478,23.13151 0.75441,34.08393c0.87863,-0.48031 2.33731,-0.86105 3.79556,0.59791zM191.72921,169.21138c-0.84134,1.11854 -1.57855,2.23007 -2.30821,3.3221c1.25113,-0.27919 2.53649,-0.51899 3.86941,-0.92391c1.9853,-0.60311 5.8893,-2.69678 7.32239,-3.4133l0.09182,-0.01628l-0.00901,-0.02087l4.19754,-1.81394c1.05331,-0.47852 2.32842,-0.38222 3.31902,0.36111c1.10022,0.82559 1.53224,2.21132 1.19704,3.46338l-1.0183,4.18187l-0.05831,-0.0142c-0.04543,0.21383 -0.0991,0.42636 -0.16218,0.6374c-0.34694,1.16073 -5.39196,6.93009 -6.38813,8.60248c-1.96183,3.29355 -4.06819,6.70399 -5.80302,10.19483c0.96613,-0.43101 1.96584,-0.84257 2.80262,-1.36177c6.14663,-3.8139 11.15534,-8.84498 17.41412,-12.45278l0.23104,-0.01987l-0.02875,-0.07062l3.05005,-1.24176c1.04003,-0.44466 2.28237,-0.33704 3.25209,0.39061c1.26783,0.95136 1.64834,2.64652 0.99009,4.02386l-2.1598,4.77121l-0.00758,-0.00344c-0.00634,0.02036 -0.01272,0.04069 -0.01916,0.06101c-1.83472,5.81034 -3.4572,5.51669 -5.8522,10.66063c-0.75257,1.61633 -1.01458,3.42425 -1.68307,5.07712c-0.08262,0.2043 -0.16077,0.41402 -0.23852,0.62554c1.03005,-0.32051 2.08876,-0.57928 3.07838,-0.99927c2.04878,-0.86952 11.83889,-6.63156 13.9535,-5.17354c2.16529,1.49295 2.41464,4.93278 2.26378,7.55854c-0.00386,0.06727 -0.00958,0.134 -0.01707,0.20022c9.60422,-12.80839 18.66137,-27.1863 30.21233,-38.27232l0.25245,-0.35013c-2.5204,-0.61388 -5.78688,-1.41405 -5.96226,-1.48141c-9.19533,-3.53153 -17.06035,-11.20079 -23.70823,-18.16527c-4.49312,-4.70711 -9.57735,-9.64026 -13.50913,-14.82039c-0.97936,-1.2903 -1.87873,-2.63838 -2.70151,-4.0354c-10.04299,12.59311 -16.14505,27.59816 -25.86324,40.51858z" fill="#000000"></path><path d="M217.58595,128.6277c0.82276,1.39704 1.72588,2.74484 2.70524,4.03514c3.93177,5.18015 9.04667,10.11949 13.53978,14.82658c6.64787,6.96448 14.54925,14.6804 23.74456,18.21194c0.17538,0.06735 3.44252,0.87154 5.96292,1.48541l-0.25239,0.3506c-11.55098,11.08602 -20.65245,25.53405 -30.25665,38.34242c0.00749,-0.06622 -0.02819,-0.25706 -0.02432,-0.32434c0.15085,-2.62575 -0.05638,-5.94173 -2.22166,-7.43467c-2.11461,-1.45801 -11.93696,4.30671 -13.98576,5.17621c-0.98961,0.41999 -2.05396,0.67756 -3.08402,0.99806c0.07774,-0.21151 0.1888,-0.54787 0.27145,-0.75217c0.66849,-1.65287 0.92967,-3.461 1.68222,-5.07732c2.39501,-5.14393 4.00401,-4.85211 5.83873,-10.66247c0.00642,-0.02033 0.01273,-0.04067 0.01907,-0.06102l0.00755,0.00343l2.14726,-4.77038c0.65827,-1.37732 0.29565,-2.94292 -0.97219,-3.89428c-0.9697,-0.72765 -2.24489,-0.84004 -3.28491,-0.39538l-3.06454,1.23328l0.0291,0.07089l-0.232,0.01912c-6.25877,3.60777 -11.27669,8.62998 -17.42332,12.44388c-0.83677,0.5192 -1.83745,0.92958 -2.80359,1.36059c1.73482,-3.49085 3.83443,-6.91139 5.79626,-10.20496c0.99615,-1.67237 6.03421,-7.46198 6.38115,-8.6227c0.06309,-0.21103 0.11633,-0.4264 0.16177,-0.64023l0.05834,0.01429l1.01901,-4.20267c0.3352,-1.25208 -0.09271,-2.65105 -1.19294,-3.47664c-0.9906,-0.74332 -2.14425,-0.79115 -3.19755,-0.31264l-4.19491,1.80482l0.00903,0.02082l-0.09181,0.01618c-1.43309,0.71651 -5.33577,2.79924 -7.32107,3.40233c-1.33292,0.40491 -2.74907,0.64218 -4.00019,0.92138c0.72966,-1.09204 1.4673,-2.21069 2.30862,-3.32925c9.71819,-12.92042 15.87877,-27.98321 25.92174,-40.57632z" data-paper-data="{&quot;noHover&quot;:false,&quot;origItem&quot;:[&quot;Path&quot;,{&quot;applyMatrix&quot;:true,&quot;segments&quot;:[[[220.06408,235.46885],[0.01404,-12.35677],[-0.00122,1.06976]],[[220.17695,238.55861],[-0.05489,-1.00232],[0.63678,-0.74461]],[[222.11861,236.21877],[-0.62911,0.85899],[0.93702,-1.27942]],[[225.02925,230.77307],[-0.54741,1.09544],[0,0]],[225.07791,230.72099],[225.06282,230.71237],[[226.79681,227.67789],[0,0],[0.42441,-0.77572]],[[228.9915,226.3761],[-0.94657,0],[1.05134,0]],[[231.31206,227.94426],[-0.36945,-0.9192],[0,0]],[232.60791,230.96792],[[232.56574,230.98599],[0,0],[0.07032,0.15156]],[[232.75899,231.45005],[-0.05825,-0.15795],[0.32037,0.86874]],[[232.79994,239.63949],[-0.15819,-1.47935],[0.31153,2.91342]],[[233.92907,248.53399],[-0.54081,-2.9299],[0.39291,-0.70669]],[[235.01772,246.41584],[-0.27337,0.70126],[2.00809,-5.15124]],[[239.95107,230.81459],[-2.1712,5.07667],[0,0]],[240.0832,230.69645],[240.03325,230.66648],[[241.32822,228.50819],[0,0],[0.43183,-0.74893]],[[243.49553,227.25514],[-0.92661,0],[1.2115,0]],[[245.94668,229.26088],[-0.22941,-1.14398],[0,0]],[246.81503,233.16846],[[246.80881,233.16984],[0,0],[0.00546,0.01535]],[[246.82509,233.21592],[-0.0054,-0.01537],[1.54377,4.39372]],[[248.13782,242.41774],[-0.89554,-4.24334],[0.2814,1.33335]],[[249.43794,246.29364],[-0.34955,-1.31712],[0.04321,0.1628]],[[249.57908,246.78547],[-0.0495,-0.16496],[0.48268,-0.66846]],[[251.00261,244.76242],[-0.41232,0.71072],[0.85362,-1.47141]],[[257.15959,235.19871],[-1.96157,0.07871],[2.00858,-0.0806]],[[262.01088,238.78104],[-1.1123,-1.67442],[0.0285,0.04289]],[[262.09229,238.91127],[-0.0258,-0.04391],[-0.00425,-12.236]],[[263.00535,201.65462],[-1.97598,12.0761],[0,0]],[[262.99907,201.32477],[0,0],[-1.82241,0.7809]],[[258.67456,203.15422],[0.13811,-0.03928],[-7.24146,2.05925]],[[235.84787,202.92492],[7.25892,1.20803],[-4.90611,-0.81647]],[[220.79064,200.06178],[4.77995,1.36316],[-1.19062,-0.33954]],[[217.28794,198.83406],[1.14385,0.47663],[-0.36274,12.30567]]],&quot;closed&quot;:true}]}" fill="url(#color-1)"></path><path d="M219.43606,117.08963c-3.56917,-10.95241 -3.28754,-23.76861 -0.75171,-34.1196c1.24778,-4.45275 3.98716,-7.76324 6.7112,-11.42887c3.20749,-4.3162 7.27242,-7.75874 12.37254,-9.58842c3.97179,-1.42488 7.77932,-3.43814 11.89486,-4.36973c4.87729,-1.10404 9.53743,-0.30421 14.32276,0.56907c9.05129,1.65178 17.6247,4.05449 26.16775,6.98996c0.12821,0.12549 0.27313,0.24948 0.43475,0.37074c0.95273,0.7149 1.82279,0.82386 2.53905,0.6717c1.56865,0.56054 3.14681,1.14132 4.72329,1.73461c0,0 3.0649,1.15412 4.21701,-1.90718c0.12216,-0.32462 0.19665,-0.62795 0.23272,-0.91053c2.78858,0.21422 5.60105,0.59699 8.5571,0.50533c21.53743,2.28456 39.73737,23.76149 37.59602,45.63181c-0.55815,5.70055 -4.46428,10.9855 -7.74254,15.38708c-11.22079,9.11237 -19.30981,22.83219 -31.54437,30.83184c-11.70195,7.65143 -28.05339,8.02471 -41.12612,4.18441c-2.72215,-0.66341 -5.56416,-0.96724 -8.18251,-1.96447c-8.26023,-3.14598 -15.42156,-10.36891 -21.37009,-16.60076c-4.3144,-4.51988 -9.15697,-9.23491 -12.97175,-14.1816c-1.29909,-1.68455 -2.43911,-3.50204 -3.42591,-5.4102c0.37518,-0.3915 0.75561,-0.78045 1.14208,-1.16508c0,0 2.31212,-2.31725 -0.0002,-4.63071c-1.45824,-1.45894 -2.91728,-1.07973 -3.79589,-0.59942z" data-paper-data="{&quot;noHover&quot;:false,&quot;origItem&quot;:[&quot;Path&quot;,{&quot;applyMatrix&quot;:true,&quot;segments&quot;:[[[215.72005,189.48188],[-1.56075,-0.22296],[2.47487,0.35356]],[[217.84137,192.3103],[0,0],[-0.05982,0.41243]],[[217.67712,193.5461],[0.04977,-0.41144],[1.47861,0.71383]],[[222.24881,195.27914],[-1.56694,-0.43389],[4.60133,1.27411]],[[236.66868,197.99275],[-4.71097,-0.784],[6.49532,1.08095]],[[257.32455,198.33992],[-6.49294,1.866],[2.05815,-0.59149]],[[263.22123,195.79002],[-1.96848,0.84318],[9.7535,-3.64919]],[[286.41965,174.39136],[-3.64384,10.04567],[3.80969,-10.50287]],[[291.55861,141.10694],[-2.67951,10.71807],[-0.01502,-4.19469]],[[289.23847,128.15965],[2.27382,3.74099],[-8.72357,-14.35242]],[[245.36225,117.53352],[14.21459,-8.48332],[-1.76508,1.41207]],[[239.90669,121.14978],[1.80303,-1.14827],[0.10756,0.18931]],[[240.18182,121.8132],[-0.07423,-0.25449],[0.7,2.4]],[[238.48182,124.9132],[0,0],[-1.23591,0.36047]],[[234.80447,126.01815],[1.21611,-0.37692],[-0.36807,0.42159]],[[232.94714,126.77127],[0.91039,0],[-0.15443,0]],[[232.51188,126.74383],[0.13594,0.0179],[-6.56927,2.12444]],[[213.33094,134.45711],[6.2911,-3.14235],[-3.32605,1.66133]],[[204.31977,140.66881],[2.4752,-2.91231],[-2.08862,2.45745]],[[199.0554,148.78662],[1.77445,-2.69308],[-2.27855,3.45814]],[[195.89069,160.31159],[-0.01914,-4.11002],[0.01626,3.49054]],[[197.02877,170.36687],[-1.27981,-3.29452],[3.1981,7.4912]],[[213.12541,190.85751],[-7.2062,-5.0583],[0.3168,-0.69669]]],&quot;closed&quot;:true}]}" fill="url(#color-2)"></path><path d="M170.67603,104.10313c0,-0.02172 0.00016,-0.04329 0.00046,-0.06474c-2.60827,0.12219 -5.81645,0.77777 -6.50166,2.18985c-1.40804,2.90166 1.52846,9.37561 3.72943,11.59205c1.38751,1.39723 2.8894,3.08896 4.83467,3.39454c2.59999,0.40843 9.43298,-4.69377 9.68657,-7.24144c0.11401,-1.14538 -1.62738,-3.24725 -2.09557,-3.919c-1.57786,-1.15539 -3.27506,-2.15169 -5.01408,-3.04634l-1.36968,0.36681c0,0 -3.27093,-0.00079 -3.27014,-3.27173zM180.79654,102.60066c1.46615,0.8964 2.88232,1.87779 4.24723,2.91771c2.00337,2.90649 4.30101,5.20412 3.88176,9.19362c-0.6544,6.2272 -10.86304,13.85506 -17.00071,12.99385c-1.97199,-0.2767 -7.27787,-3.84611 -8.73441,-5.34953c-4.15107,-4.28474 -7.74873,-13.62379 -4.77381,-19.23275c2.68137,-5.05551 12.23554,-6.68941 17.32268,-5.12831c1.44571,0.44365 2.49094,1.71546 3.73641,2.5732c0,0 1.05091,0.78858 1.32084,2.03221z" fill="#000000"></path><path d="M173.97197,107.31474l1.37966,-0.36147c1.73901,0.89463 3.46348,1.92831 5.04134,3.0837c0.46819,0.67176 2.21123,2.80051 2.09724,3.9459c-0.25356,2.54766 -7.14425,7.70543 -9.74423,7.29699c-1.94527,-0.30558 -3.49236,-2.00919 -4.87986,-3.40644c-2.20098,-2.21642 -5.15011,-8.78479 -3.74207,-11.68646c0.6852,-1.41207 3.93559,-2.09125 6.54387,-2.21342c-0.00028,0.02145 -0.00052,0.04303 -0.00053,0.06474c-0.00079,3.27092 3.30456,3.27645 3.30456,3.27645z" data-paper-data="{&quot;noHover&quot;:false,&quot;origItem&quot;:[&quot;Path&quot;,{&quot;applyMatrix&quot;:true,&quot;segments&quot;:[[[177.32617,205.32369],[1.5,2],[-0.00996,-0.01328]],[[177.29675,205.28391],[0.00966,0.01324],[-1.53848,1.2712]],[[174.32661,209.60517],[-0.22887,-1.17758],[0.4703,2.4198]],[[181.92421,214.98097],[-2.36229,-0.34531],[1.48919,0.21768]],[[186.437,214.83835],[-1.32939,0.70555],[1.77683,-0.94302]],[[189.03685,205.96785],[1.01368,1.6738],[-0.45573,-0.75251]],[[185.95798,204.53334],[0.59438,0.1959],[-1.49462,0.01749]],[[181.49524,204.97112],[1.47352,-0.25082],[0,0]],[180.82617,205.82369]],&quot;closed&quot;:true}]}" fill="url(#color-3)"></path><path d="M394.19666,133.40478c-1.16164,0.90433 -2.28168,2.26675 -3.30697,3.61251c-1.13744,1.49298 -2.33082,2.1843 -2.1246,4.25452c0.27225,2.73331 3.93213,5.54349 5.73486,7.34891c1.56457,1.56689 5.21574,5.78369 7.52047,6.54991c3.69079,1.22702 8.0231,-3.17048 9.20271,-6.08824c-3.55697,-6.79452 -7.96549,-11.63605 -14.10076,-16.23983l1.1248,1.45925c0,0 -2.51913,1.25879 -4.05051,-0.89703zM405.52612,131.2394c5.4833,4.84732 9.61262,10.29048 12.23545,17.63161c-2.26736,7.25762 -8.72978,15.15021 -17.71421,12.53686c-3.33517,-0.97012 -7.85496,-5.84413 -10.18751,-8.17571c-2.96176,-2.96053 -7.25639,-6.77241 -7.60177,-11.28599c-0.5398,-7.05417 7.70268,-16.7918 15.10159,-16.36939c5.2782,0.30134 5.43239,1.98197 8.09531,5.54947c0,0 0.02756,0.03983 0.07114,0.11315z" fill="#000000"></path><path d="M398.23579,134.2374l-1.12934,-1.45828c6.13527,4.60379 10.62031,9.53347 14.17726,16.32799c-1.17959,2.91776 -5.5606,7.35489 -9.25139,6.12788c-2.30472,-0.76622 -6.02043,-5.00851 -7.585,-6.57543c-1.80274,-1.80543 -5.47279,-4.67254 -5.74506,-7.40586c-0.2062,-2.07024 0.99942,-2.78488 2.13686,-4.27786c1.0253,-1.34579 2.16546,-2.72459 3.32711,-3.62894c1.53138,2.15583 4.06959,0.89051 4.06959,0.89051z" data-paper-data="{&quot;noHover&quot;:false,&quot;origItem&quot;:[&quot;Path&quot;,{&quot;applyMatrix&quot;:true,&quot;segments&quot;:[[[285.03743,207.56997],[1.92514,0.61544],[-0.2953,1.08573]],[[284.67295,211.29546],[0.00944,-1.29306],[-0.01047,1.43449]],[[285.3258,214.87103],[-1.07575,-1.17101],[1.42031,1.54608]],[[292.20292,216.7329],[-1.93029,-0.27675],[1.67527,0.24018]],[[299.80511,217.2872],[-1.76045,0.58884],[2.81919,-0.94297]],[[302.63817,209.34365],[0.61735,2.32485],[-5.29138,-2.52203]],[[286.56811,205.88417],[5.86262,0],[0,0]],[287.92515,206.26027]],&quot;closed&quot;:true}]}" fill="url(#color-4)"></path><path d="M326.53937,119.08821c-2.18045,-2.43816 0.25772,-4.61861 0.25772,-4.61861l1.4627,-1.02285c3.93604,-7.52935 7.20139,-16.12522 4.5473,-24.75863c-0.88837,-2.88982 -3.29673,-5.06881 -4.94936,-7.60042c0,0 -1.78783,-2.7391 0.95125,-4.52694c2.7391,-1.78783 4.52694,0.95125 4.52694,0.95125c1.92815,2.95439 4.5538,5.60307 5.62755,8.9636c3.33947,10.4518 -0.14591,20.76672 -4.89684,29.9839l-2.90864,2.88642c0,0 -2.43816,2.18045 -4.61861,-0.25772z" fill="#d3faff"></path><path d="M263.98733,106.34838c0.91781,-0.37023 2.08255,-0.46145 3.53579,0.03814c4.80382,1.65138 3.15243,6.4552 3.15243,6.4552c-3.14628,7.64707 4.11411,8.99131 10.81537,11.11906c3.01262,0.95654 8.11365,-0.27974 9.08124,2.72935c1.23196,3.83127 -2.20098,7.93694 -4.61638,11.15598c-2.41099,3.21317 -8.9369,4.97868 -12.5865,6.3725c-10.84581,4.14217 -20.5464,9.34951 -32.2703,8.15715c-9.86232,-1.00306 -16.39988,-0.80434 -16.36802,-13.26214c0.0054,-2.10569 1.28311,-4.01116 1.92467,-6.01676c5.24095,-15.13146 17.12504,-26.98455 33.83685,-27.03684z" fill="#000000"></path><path d="M261.52209,99.36363c-2.46419,-2.12497 -0.33921,-4.58917 -0.33921,-4.58917l2.42367,-2.7037c3.48339,-2.5959 4.95831,-6.10378 9.08824,-7.96551c1.31336,-0.59205 2.79462,-0.7067 4.17094,-1.13237c0.34022,-0.10522 0.6708,-0.26406 0.99938,-0.43018c-2.43474,-2.65429 -2.5133,-5.70214 -6.87743,-6.99686c0,0 -3.07714,-1.0578 -2.01932,-4.13495c1.05781,-3.07714 4.13495,-2.01932 4.13495,-2.01932c5.60116,2.09346 7.49687,5.22312 10.92991,9.94428c1.19239,1.63979 4.05073,2.88997 3.63753,4.87491c-0.44836,2.1539 -3.51353,2.6724 -5.43259,3.74832c-2.88811,1.61923 -3.93059,0.94694 -6.94383,2.11219c-2.98649,1.15491 -5.15966,5.16879 -7.74065,7.17358l-1.44243,1.77957c0,0 -2.12498,2.4642 -4.58917,0.33922z" fill="#000000"></path><path d="M278.94537,108.35039c-2.59575,-2.46247 -0.09109,-4.74171 -0.09109,-4.74171l1.52849,-1.28384c5.46652,-3.0905 11.52812,-5.46376 17.32743,-7.97359c0.72133,-0.31218 1.31031,-0.88329 1.96134,-1.31445c-2.11361,-1.7671 -3.53364,-4.25335 -5.54429,-6.15596c0,0 -2.59575,-2.46247 -0.09109,-4.74171c2.50465,-2.27925 5.10039,0.18321 5.10039,0.18321c3.03137,2.8824 4.51669,3.99458 6.83749,7.19874c1.35582,1.87188 4.21442,3.61291 3.81671,5.75805c-0.37791,2.03835 -3.65658,2.23814 -5.50224,3.3333c-6.24819,3.70754 -13.59322,5.83247 -19.87905,9.48314l-0.36366,0.43802c0,0 -2.50464,2.27926 -5.10039,-0.18321z" fill="#000000"></path></g></g></svg>