<svg version="1.1" xmlns="http://www.w3.org/2000/svg" xmlns:xlink="http://www.w3.org/1999/xlink" width="84.82901" height="103.74426" viewBox="0,0,84.82901,103.74426"><defs><radialGradient cx="265.94045" cy="175.99022" r="7.3567" gradientUnits="userSpaceOnUse" id="color-1"><stop offset="0" stop-color="#54606d"/><stop offset="1" stop-color="#2c3136"/></radialGradient></defs><g transform="translate(-214.2966,-136.49057)"><g data-paper-data="{&quot;isPaintingLayer&quot;:true}" fill-rule="nonzero" stroke-linejoin="miter" stroke-miterlimit="10" stroke-dasharray="" stroke-dashoffset="0" style="mix-blend-mode: normal"><g stroke="none" stroke-width="0.5" stroke-linecap="butt"><path d="M272.38396,197.01599c18.3451,1.03832 31.10702,-1.46946 16.71474,-6.29033c-6.2011,-1.64939 -12.57034,-0.88808 -16.14309,0.04455c-1.1807,0.30821 1.42359,0.74843 2.20209,1.23879c2.29055,1.44277 -1.53715,2.08463 -6.44856,2.02026c-0.33283,0.82439 -1.56162,1.60861 -3.45785,2.18964c2.66904,0.14464 4.53385,0.3676 7.13269,0.79709zM269.45653,190.06586c3.55811,-1.62882 14.5978,-1.76013 22.28407,0.2859c16.93791,5.63304 2.34875,8.89478 -19.61882,7.48847c-2.37359,-0.36996 -3.79653,-0.60736 -6.19583,-0.71911l-2.67523,-0.40669c0,0 -0.0083,-0.00149 -0.02354,-0.00435c-1.37719,0.25965 -2.96722,0.42776 -4.72111,0.46938c-6.25792,0.14851 -16.52333,-2.65322 -20.40342,-4.35618c-3.90049,-1.17641 -4.72467,-2.8682 0.79481,-3.06761c3.76781,-0.13613 8.37471,0.92394 12.38311,1.3389c6.22517,0.64444 9.52207,0.44267 14.67054,0.17776c1.62811,0.56169 2.51197,1.2181 2.76914,1.88531c6.66699,0.03447 -1.22157,-2.19553 0.73627,-3.09179zM245.47617,193.93878c0.47289,0.11487 0.96915,0.23396 1.48833,0.36158c1.94227,0.47744 4.17514,1.38801 6.31094,1.79612c2.34522,0.44813 4.76488,-0.02458 5.86203,-0.22767c3.38271,-0.62618 4.58202,-1.48305 5.39367,-2.46499c-0.09931,-0.13447 0.01182,-0.21803 0.212,-0.26936c0.25692,-0.341 0.48785,-0.69533 0.76318,-1.05886c-2.95298,0.97179 -11.4455,0.28962 -17.1028,-0.49384c-1.65333,-0.22896 -6.00976,-0.99328 -7.46749,-0.9076c-1.99667,0.11736 -2.30684,0.70923 -1.51291,1.26997c0.4212,0.08367 0.6857,0.17194 0.6857,0.17194l0.59933,0.23231c0.21091,0.12676 0.43815,0.24434 0.68148,0.35496c0.89047,0.20303 1.98878,0.33275 3.2193,0.32353c0,0 1.81974,0.0224 2.50727,0.48576c0.68753,0.46336 -1.13221,0.44096 -1.13221,0.44096c-0.17037,-0.00379 -0.33965,-0.00874 -0.50779,-0.01481z" fill="#000000"/><path d="M246.07451,193.94189c0,0 1.63031,0.04307 0.94278,-0.42029c-0.68753,-0.46336 -2.52313,-0.4924 -2.52313,-0.4924c-1.23054,0.00922 -2.33475,-0.1239 -3.22525,-0.32693c-0.24332,-0.11062 -0.47475,-0.23135 -0.68569,-0.35811l-0.60128,-0.23422c0,0 -0.26549,-0.08947 -0.68669,-0.17315c-0.7939,-0.56074 -0.48093,-1.16474 1.51574,-1.28209c1.45773,-0.08568 5.82128,0.67504 7.47462,0.904c5.65727,0.78346 14.37135,1.48149 17.32433,0.5097c-0.27532,0.36353 -0.48545,0.72894 -0.74237,1.06994c-0.20015,0.05132 -0.30781,0.13861 -0.2085,0.27308c-0.81164,0.98194 -2.09444,1.86207 -5.47713,2.48825c-1.09715,0.20309 -3.57344,0.67202 -5.91866,0.22389c-2.13578,-0.40811 -4.43548,-1.33075 -6.37774,-1.80819c-0.51916,-0.12761 -1.02886,-0.25059 -1.50175,-0.36546c0.16815,0.00608 0.52036,-0.01182 0.69071,-0.00804z" data-paper-data="{&quot;noHover&quot;:false,&quot;origItem&quot;:[&quot;Path&quot;,{&quot;applyMatrix&quot;:true,&quot;segments&quot;:[[[235.10618,192.13453],[0.05114,0.04349],[0.0019,0.2201]],[[235.11209,192.82729],[0.0001,-0.24314],[-0.00037,0.90964]],[[234.75562,196.02773],[-0.16925,-0.88337],[0.18585,0.96999]],[[237.17624,197.10449],[-0.68595,-0.04105],[2.11494,0.12655]],[[242.67691,195.83971],[-1.71451,0.80133],[0.15975,-0.15657]],[[243.14342,195.61752],[-0.14585,0.00678],[0.58651,-0.28383]],[[244.95229,194.72849],[-0.62576,0.30226],[-2.46331,0.31469]],[[239.57075,190.42889],[0.88014,2.04233],[-0.25722,-0.59687]],[[238.22533,187.85961],[0.64412,0.2387],[-0.88226,-0.32695]],[[235.84273,188.79292],[0.53073,-0.7374],[0.02875,0.1774]],[235.8377,189.11744],[[235.71424,189.48313],[0,0],[-0.10876,0.17369]],[[235.44206,189.98973],[0.07379,-0.16477],[0.02285,0.40118]],[[236.1204,191.02963],[-0.45215,-0.2646],[0,0]],[[236.30942,192.07331],[0.42733,-0.61635],[-0.42733,0.61635]],[[235.26574,192.26234],[0,0],[-0.05525,-0.0417]]],&quot;closed&quot;:true}]}" fill="#0032ff"/><path d="M265.16979,196.23323c1.89623,-0.58103 3.09028,-1.37803 3.42314,-2.20242c4.91141,0.06437 8.80141,-0.60998 6.51085,-2.05275c-0.77848,-0.49035 -3.38321,-0.93057 -2.20251,-1.23878c3.57275,-0.93263 10.0594,-1.68182 16.2605,-0.03242c14.39229,4.82088 1.52342,7.36998 -16.82168,6.33166c-2.59884,-0.42949 -4.50128,-0.66065 -7.17032,-0.8053z" data-paper-data="{&quot;noHover&quot;:false,&quot;origItem&quot;:[&quot;Path&quot;,{&quot;applyMatrix&quot;:true,&quot;segments&quot;:[[[240.23457,201.19932],[-0.30333,-1.00779],[5.0343,5.12051]],[[255.32372,198.62839],[-1.86482,8.02348],[0.1827,-3.02928]],[[249.503,195.08075],[2.62746,-0.13761],[-0.86831,0.04548]],[[248.49032,196.80954],[0.43408,-0.66358],[-1.27719,1.95247]],[[243.25895,197.39485],[1.65782,1.15727],[-1.31512,0.75032]],[[238.84813,198.81506],[1.51939,-0.15908],[0.74177,0.73856]]],&quot;closed&quot;:true}]}" fill="#fff1e2"/></g><g stroke="#001026" stroke-width="1.2"><path d="M251.72652,199.69089l4.6696,-21.68653l12.37566,4.64059l-10.01101,18.88463c0,0 -2.4662,0.92023 -3.60209,0.62331c-1.20481,-0.31493 -3.43217,-2.462 -3.43217,-2.462z" fill="#505a63" stroke-linecap="butt"/><path d="M256.17719,176.45741c1.42653,-3.80433 5.66699,-5.73191 9.47131,-4.30538c3.80433,1.42653 5.73191,5.667 4.30538,9.47131c-1.42653,3.80433 -5.667,5.73192 -9.47132,4.30538c-3.80433,-1.42653 -5.7319,-5.667 -4.30537,-9.47133z" fill="url(#color-1)" stroke-linecap="butt"/><path d="M257.92304,183.83219c0,0 0.74516,-4.57204 1.4799,-6.60132c0.6867,-1.89657 2.79416,-5.20315 2.79416,-5.20315" fill="none" stroke-linecap="round"/><path d="M264.3846,186.10276c0,0 0.81054,-5.70004 1.39485,-7.85391c0.43174,-1.59141 1.79395,-3.90044 1.79395,-3.90044" fill="none" stroke-linecap="round"/><path d="M255.96942,176.85311c0,0 4.95472,-0.82937 7.46017,-0.4816c2.17971,0.30255 6.73184,2.4515 6.73184,2.4515" fill="none" stroke-linecap="round"/><path d="M256.03632,182.36292c0,0 5.50452,-0.56365 7.96252,-0.47267c1.91074,0.07073 5.56161,0.9733 5.56161,0.9733" fill="none" stroke-linecap="round"/></g><g stroke="none" stroke-width="0.5" stroke-linecap="butt"><path d="M283.79483,191.11677c0.52295,-0.07415 0.72984,0.27221 0.80647,0.48356c0.48935,-0.06185 1.00369,-0.31284 1.4943,-0.79151c0.93968,-0.91683 0.11046,-2.39411 -0.42437,-3.25288c-0.46876,1.52757 -1.78933,2.75815 -3.14846,2.83778c0.20988,0.40056 0.49591,0.71716 0.83014,0.92765c0.09583,-0.09751 0.2364,-0.17545 0.44189,-0.20458zM280.16081,195.65848l-0.0219,0.01341c0,0 -0.27736,0.03933 -0.51709,-0.09959c-2.6599,0.23776 -4.1087,-2.79797 -2.68382,-5.32059c-2.67083,-2.1962 -2.2811,-9.00173 2.16687,-8.52944c0.85998,0.09132 1.47848,0.53397 1.8871,1.15915c1.47471,-0.989 3.70944,-0.11349 4.61047,2.18397c0.02494,0.06358 0.04788,0.12739 0.06888,0.19137c0.44294,0.34623 0.81544,0.8131 1.12454,1.27021c0.97954,1.44855 1.87495,3.73342 0.39331,5.30855c-0.77875,0.8279 -1.66908,1.22129 -2.53744,1.26904c-0.29721,2.05637 -2.16182,2.60428 -4.49091,2.55392zM283.90515,185.34711c0.02525,-0.10335 0.06159,-0.18847 0.10534,-0.25842c-0.54522,-1.05009 -1.78933,-1.5423 -2.45645,-0.67387c0.1845,1.14461 -0.01646,2.41996 -0.50975,3.32891c0.38078,0.14873 0.44487,0.60068 0.44487,0.60068l-0.0716,-0.12284c1.01758,2.22899 2.83808,-0.7364 2.86019,-1.99683c0.00025,-0.01394 0.00036,-0.02784 0.00037,-0.04171c-0.20295,-0.10544 -0.49259,-0.34643 -0.37297,-0.83593zM282.09484,192.17203c-0.05377,0.14936 -0.11659,0.30043 -0.18892,0.45279l-1.2865,0.44958c0,0 -0.72021,0.20925 -0.92947,-0.51098c-0.20925,-0.72021 0.51097,-0.92947 0.51097,-0.92947l0.70806,-0.12991c0.08013,-0.31331 0.11498,-0.58755 0.1121,-0.82301c-0.07087,-0.16213 -0.13323,-0.33066 -0.18627,-0.50502l0.04307,-0.14486c-0.36751,-0.69466 -1.37558,-0.54567 -2.24634,0.41583c-0.04483,0.07514 -0.09668,0.1339 -0.15228,0.17959c-1.42944,1.81564 -0.30755,4.54438 2.13685,3.07181c0,0 0.65036,-0.37354 1.0239,0.27681c0.02859,0.04977 0.05117,0.09792 0.06852,0.1444c0.80439,-0.10682 1.37615,-0.42217 1.4827,-1.26254c-0.39521,-0.15981 -0.76609,-0.39175 -1.0964,-0.68505zM279.70063,185.09503c0.06524,-0.34801 0.15947,-0.65952 0.2777,-0.93556c-0.18439,-0.53965 -0.52775,-0.93097 -1.06696,-0.94973c-2.659,-0.09248 -2.81178,4.78147 -1.09605,5.91413c0.25556,-0.24958 0.51457,-0.44984 0.77258,-0.60494c-0.05701,-0.08662 -0.1004,-0.19754 -0.12051,-0.33942c-0.10529,-0.74257 0.63728,-0.84786 0.63728,-0.84786l0.36003,0.0569c0.32262,-0.24428 0.55041,-0.82544 0.63994,-1.47918c-0.51294,-0.21881 -0.40401,-0.81435 -0.40401,-0.81435z" fill="#000000"/><path d="M283.32482,191.3627c-0.33423,-0.21049 -0.63905,-0.55108 -0.84893,-0.95164c1.35912,-0.07963 2.7512,-1.37108 3.21996,-2.89865c0.53483,0.85877 1.38037,2.40829 0.44069,3.32512c-0.49061,0.47869 -1.04261,0.75085 -1.53196,0.8127c-0.07663,-0.21135 -0.30809,-0.56236 -0.83104,-0.48821c-0.20549,0.02913 -0.3529,0.10318 -0.44873,0.20069z" data-paper-data="{&quot;noHover&quot;:false,&quot;origItem&quot;:[&quot;Path&quot;,{&quot;applyMatrix&quot;:true,&quot;segments&quot;:[[[254.46427,197.47825],[0,-0.20755],[0,0.52818]],[[253.87228,198.20884],[0.22002,-0.0462],[-0.00746,0.49318]],[[254.44617,199.79946],[-0.40507,-0.55296],[0.77583,1.05909]],[[257.72642,199.83596],[-0.92535,0.40897],[-1.44663,-0.67857]],[[255.35874,196.32031],[-0.11196,1.35684],[-0.42606,0.15157]],[[254.32375,197.012],[0.25532,-0.30137],[0.08309,0.10857]]],&quot;closed&quot;:true}]}" fill="#fff1e2"/><path d="M280.15417,185.90252c-0.08953,0.65374 -0.33507,1.28036 -0.65769,1.52464l-0.36737,-0.05188c0,0 -0.76627,0.11167 -0.66098,0.85424c0.02011,0.14187 0.06591,0.2527 0.12293,0.33931c-0.258,0.15511 -0.53037,0.35442 -0.78594,0.604c-1.71573,-1.13266 -1.54478,-6.10493 1.11424,-6.01244c0.5392,0.01876 0.90529,0.41998 1.08967,0.95964c-0.11823,0.27604 -0.20464,0.59513 -0.26989,0.94315c0,0 -0.09792,0.62054 0.41502,0.83935z" data-paper-data="{&quot;noHover&quot;:false,&quot;origItem&quot;:[&quot;Path&quot;,{&quot;applyMatrix&quot;:true,&quot;segments&quot;:[[[261.00115,194.26996],[0,0],[0.3354,0.11345]],[[261.88845,194.67626],[-0.25671,-0.15581],[0.56019,-0.1068]],[[262.97857,193.75319],[-0.09427,0.53123],[0.46485,-2.61969]],[[257.27688,191.83774],[1.36231,-1.53973],[0.21123,0.28807]],[[257.76737,192.68758],[-0.11736,-0.27722],[0.09377,-0.04429]],[[258.12034,192.61592],[-0.14329,0],[0.75,0]],[258.87034,193.36592],[[258.76346,193.71439],[0,0],[0.19657,0.35372]],[[260.13815,194.55566],[-0.63469,-0.18042],[0.28865,-0.47714]]],&quot;closed&quot;:true}]}" fill="#fff1e2"/><path d="M284.32743,186.17477c0,0.01387 0.00006,0.02895 -0.00018,0.04289c-0.02212,1.26043 -1.91988,4.27447 -2.93747,2.04548l0.07409,0.1244c0,0 -0.07734,-0.46324 -0.45811,-0.61197c0.49328,-0.90895 0.71023,-2.26077 0.52573,-3.40538c0.66712,-0.86844 1.96967,-0.36641 2.51489,0.68368c-0.04376,0.06996 -0.0779,0.15747 -0.10316,0.26082c-0.11962,0.4895 0.18127,0.75463 0.38422,0.86007z" data-paper-data="{&quot;noHover&quot;:false,&quot;origItem&quot;:[&quot;Path&quot;,{&quot;applyMatrix&quot;:true,&quot;segments&quot;:[[[260.16131,198.39745],[-0.46786,-0.18715],[0.09878,0.03951]],[[260.40238,198.53803],[-0.06313,-0.05315],[1.11623,-0.3924]],[[261.41444,196.20051],[0.76618,0.78243],[-1.15917,0.02198]],[[258.19006,195.22848],[0.8307,0.616],[-0.20071,0.35613]],[257.53286,195.58461],[[257.66454,195.53096],[0,0],[-2.34977,0.69458]],[[259.24006,198.64316],[-1.24484,-0.19885],[0.01376,0.0022]],[[259.2813,198.64938],[-0.01373,-0.00195],[0.13289,-0.18614]]],&quot;closed&quot;:true}]}" fill="#fff1e2"/><path d="M283.23866,192.87292c-0.10655,0.84037 -0.70024,1.18289 -1.50464,1.2897c-0.01735,-0.04648 -0.03967,-0.09479 -0.06826,-0.14456c-0.37354,-0.65036 -1.04387,-0.27001 -1.04387,-0.27001c-2.44441,1.47259 -3.61354,-1.33376 -2.18409,-3.14941c0.0556,-0.04568 0.11048,-0.1085 0.15531,-0.18363c0.87075,-0.9615 1.92924,-1.12705 2.29674,-0.43239l-0.04325,0.14481c0.05304,0.17436 0.12561,0.34658 0.19649,0.50871c0.00288,0.23546 -0.01585,0.52226 -0.09598,0.83557l-0.71722,0.20299c0,0 -0.71172,0.13539 -0.50248,0.85562c0.20925,0.72021 0.883,0.49489 0.883,0.49489l1.25018,-0.42151c0.07232,-0.15237 0.22995,-0.27513 0.28372,-0.42449c0.33033,0.29328 0.69913,0.5339 1.09434,0.6937z" data-paper-data="{&quot;noHover&quot;:false,&quot;origItem&quot;:[&quot;Path&quot;,{&quot;applyMatrix&quot;:true,&quot;segments&quot;:[[[253.65812,195.64694],[-0.33675,0.28588],[-0.14033,-0.07421]],[[253.23633,195.39634],[0.1407,0.093],[0,0]],[252.97181,194.05946],[[253.60821,193.21093],[-0.74246,0.10607],[0.74246,-0.10607]],[254.45673,193.84733],[[254.48595,194.56662],[0,0],[0.29896,0.12332]],[[255.28508,194.79314],[-0.23353,-0.03021],[0.17047,-0.04741]],[[255.81124,194.67962],[-0.18008,0.02803],[0,0]],[[255.94862,194.74259],[0,0],[0.73938,-0.26635]],[[255.85226,192.46012],[0.82974,0.99711],[-0.0681,-0.05494]],[[255.69583,192.28414],[0.03742,0.06146],[-1.59699,-1.67017]],[[252.35447,193.96859],[-1.11484,-2.62693],[0,0]],[[251.93665,194.94349],[0.69636,-0.27854],[-0.05329,0.02132]],[[251.78406,194.99106],[0.04846,-0.01065],[-0.00717,0.81142]],[[252.82594,196.63632],[-0.81709,-0.22347],[0.21371,-0.36886]]],&quot;closed&quot;:true}]}" fill="#fff1e2"/></g><g stroke="none" stroke-width="0.5" stroke-linecap="butt"><path d="M225.91135,232.0694c-1.18188,1.31737 -3.16638,1.59422 -4.36664,2.69707c-1.76486,1.62163 -0.70296,3.97813 1.30643,3.96629c0.89884,-0.0053 1.79786,0 2.69672,0c3.76552,0 5.03951,-1.04182 6.36942,-4.80824c0.28503,-0.80722 0.90967,-1.9133 0.89735,-2.81329c-0.01455,-1.06246 -0.28371,-2.10571 -0.37473,-3.17369c-0.37083,0.13713 -0.7239,0.24991 -0.99913,0.35584c-1.20789,0.46487 -2.92699,1.2941 -4.47711,1.27777c-0.29069,0.82963 -0.46874,1.84779 -1.0523,2.49826zM233.78722,227.29264c-0.00313,1.28756 0.41648,2.54844 0.40451,3.81859c-0.05299,5.62175 -3.91795,9.12153 -8.64387,9.12153c-0.89887,0 -1.79787,0.00467 -2.69672,0c-3.30113,-0.01716 -4.80255,-4.0816 -2.1993,-6.60827c1.97958,-1.92135 3.79185,-1.65912 4.92889,-4.35327c-0.33367,-0.16051 -0.64497,-0.39275 -0.92425,-0.7139c-1.05976,-1.21862 -0.30071,-5.5106 -0.06449,-7.05442c0.00533,-3.55598 -0.69745,-7.18026 -1.33806,-10.66339c-0.18228,-0.99107 -1.0225,-3.53618 -0.44915,-4.50281c0.91143,-1.53661 4.87933,-1.82327 6.4053,-2.10792c3.70729,-0.67302 7.26721,-1.61629 10.81717,-2.90909l0.40451,-0.14687c0,0 0.65322,-0.23717 0.87096,0.47434c0.12877,0.42079 -0.04708,0.67568 -0.21229,0.81372c0.24762,0.21912 0.24762,0.5984 0.24762,0.5984c-0.00493,4.0294 0.51166,8.13657 0.91886,12.13043c0.11864,1.16366 0.70973,4.07172 0.2519,5.16657c-0.02322,0.05554 -0.04718,0.1095 -0.07186,0.16194c1.37064,-0.13239 2.78419,-0.57715 4.00173,-0.86192c0.68707,-0.1607 2.22126,-0.86391 2.91562,-0.56819c2.48629,1.05889 0.67655,6.94613 -0.54506,8.26971c-3.29245,0.95594 -6.70702,1.68375 -10.06907,2.29018c-1.02356,0.18462 -2.90124,0.46682 -3.7154,-0.51901c-0.44966,-0.54447 -0.6185,-1.42022 -0.69073,-2.35712c-0.14608,0.19332 -0.33419,0.36155 -0.54705,0.50971c0.00026,0.00719 0.00026,0.01106 0.00026,0.01106zM236.02669,228.09993c0.49097,0.66328 2.6765,0.06567 3.26906,-0.07289c2.93941,-0.68734 5.90008,-1.24634 8.83497,-1.97453c0.84482,-0.93377 0.86422,-2.51543 0.86422,-3.75342c0,-0.59459 0.48486,-1.79364 -0.06092,-1.78255c-2.72939,0.05548 -5.21571,1.69807 -7.9381,1.48928c-0.54218,0.27325 -1.15702,0.42246 -1.79513,0.57963c-0.80614,0.25102 -2.23599,0.85042 -3.63183,1.14411c0.08127,1.27356 -0.11308,3.59923 0.45773,4.37037zM239.05241,220.74011c0.21774,-0.71151 0.87096,-0.47434 0.87096,-0.47434c0.25774,0.09733 0.52423,0.16716 0.79723,0.21396c0.20414,-0.16016 0.37651,-0.36777 0.49663,-0.64387c0.35166,-0.8083 -0.23579,-3.56718 -0.32839,-4.47452c-0.41369,-4.05329 -0.92325,-8.21294 -0.9279,-12.30206c0,0 0,-0.05833 0.01493,-0.14245c-3.45961,1.22266 -6.92982,2.13625 -10.5394,2.79154c-1.04663,0.18375 -4.82361,0.48241 -5.46026,1.41693c-0.21079,0.30941 0.57518,3.13159 0.62954,3.42811c0.66473,3.62614 1.35419,7.36966 1.35865,11.07321c-0.11732,0.76676 -0.86335,5.38164 -0.33416,5.87004c0.27713,0.25577 0.58323,0.41606 0.9073,0.50384c0.10651,-0.01659 0.22789,-0.0019 0.36139,0.06823c1.37974,0.15578 2.99514,-0.77188 4.08226,-1.18934c0.38616,-0.14829 2.01385,-0.53662 2.30592,-1.08658c0.13114,-0.24695 -0.14536,-1.29958 -0.36355,-2.11568c-0.30413,-0.13289 -0.56528,-0.33226 -0.76648,-0.61499c-0.81704,-1.14814 -0.42112,-3.51776 -0.42112,-4.87536c0,-1.30313 0.02523,-2.5804 0.08256,-3.84601c-0.04227,-0.73616 -0.1045,-1.47235 -0.2093,-2.20779c-0.11922,-0.83662 -1.03383,-4.2517 -0.78108,-4.90706c0.3127,-0.81081 1.33723,-1.1949 2.19479,-1.13363c0.23308,-0.12576 0.46616,-0.25152 0.69924,-0.37728l0.07764,0.0171l-0.0053,-0.03463l0.79622,-0.14455c0.04085,-0.00823 0.08296,-0.01253 0.12599,-0.01253c0.38028,0 0.68855,0.33579 0.68855,0.75c0,0.3154 -0.17874,0.58533 -0.4319,0.69617l-0.92927,0.4338l-0.00721,-0.01833c-0.02322,0.0166 -0.04669,0.03285 -0.07042,0.04871c-0.05452,0.03645 -0.11778,0.06085 -0.18734,0.07604c-0.01131,2.65563 -0.38063,5.30213 -0.56435,7.97776c0.06569,2.32655 0.12348,4.62549 0.82183,6.9075c0.00186,0.01198 0.0038,0.02411 0.00583,0.03638c1.43877,0.02642 4.19745,-1.12336 4.81969,-1.3169c0.04919,-0.01168 0.09932,-0.02305 0.1502,-0.03433c-0.01128,-0.10286 -0.00144,-0.22134 0.0401,-0.35708zM232.28893,208.88355c0.06342,-0.48651 0.13308,-0.97433 0.20939,-1.46429c-0.22343,-0.00514 -0.37432,0.0557 -0.36515,0.28552c0.01439,0.36041 0.07329,0.75834 0.15576,1.17877z" fill="#000000"/><path d="M235.52328,223.72466c1.39584,-0.2937 2.83101,-0.91199 3.63715,-1.16301c0.6381,-0.15717 1.26929,-0.32517 1.81146,-0.59842c2.72239,0.20879 5.27291,-1.41538 8.0023,-1.47086c0.54578,-0.01109 0.06471,1.19777 0.06471,1.79236c0,1.23798 -0.01887,2.84633 -0.86369,3.7801c-2.93489,0.72819 -5.97153,1.31126 -8.91094,1.9986c-0.59256,0.13856 -2.78724,0.72306 -3.27821,0.05977c-0.57081,-0.77114 -0.38151,-3.12499 -0.46278,-4.39854z" data-paper-data="{&quot;noHover&quot;:false,&quot;origItem&quot;:[&quot;Path&quot;,{&quot;applyMatrix&quot;:true,&quot;segments&quot;:[[[236.02669,228.09992],[-0.57081,-0.77114],[0.49097,0.66328]],[[239.29575,228.02703],[-0.59256,0.13856],[2.93941,-0.68734]],[[248.13072,226.0525],[-2.93489,0.72819],[0.84482,-0.93377]],[[248.99494,222.29909],[0,1.23798],[0,-0.59459]],[[248.93402,220.51654],[0.54578,-0.01109],[-2.72939,0.05548]],[[240.99592,222.00581],[2.72239,0.20879],[-0.54218,0.27325]],[[239.20079,222.58544],[0.6381,-0.15717],[-0.80614,0.25102]],[[235.56896,223.72955],[1.39584,-0.2937],[0.08127,1.27356]]],&quot;closed&quot;:true}]}" fill="#424347"/><path d="M226.96672,229.52125c1.55012,0.01633 3.29888,-0.79806 4.50678,-1.26293c0.27523,-0.10593 0.63023,-0.21644 1.00106,-0.35357c0.09102,1.06798 0.36904,2.1281 0.38359,3.19056c0.01233,0.89998 -0.61018,2.02717 -0.89521,2.83439c-1.32991,3.76642 -2.66023,4.85168 -6.42575,4.85168c-0.89885,0 -1.81551,-0.01457 -2.71435,-0.00927c-2.00939,0.01185 -3.08748,-2.37174 -1.32262,-3.99337c1.20026,-1.10285 3.20277,-1.43282 4.38465,-2.75018c0.58357,-0.65047 0.79117,-1.67768 1.08186,-2.50731z" data-paper-data="{&quot;noHover&quot;:false,&quot;origItem&quot;:[&quot;Path&quot;,{&quot;applyMatrix&quot;:true,&quot;segments&quot;:[[[225.91135,232.06939],[0.58357,-0.65047],[-1.18188,1.31737]],[[221.54471,234.76646],[1.20026,-1.10285],[-1.76486,1.62163]],[[222.85114,238.73274],[-2.00939,0.01185],[0.89884,-0.0053]],[[225.54786,238.73274],[-0.89885,0],[3.76552,0]],[[231.91728,233.92451],[-1.32991,3.76642],[0.28503,-0.80722]],[[232.81463,231.11122],[0.01233,0.89998],[-0.01455,-1.06246]],[[232.43989,227.93753],[0.09102,1.06798],[-0.37083,0.13713]],[[231.44076,228.29337],[0.27523,-0.10593],[-1.20789,0.46487]],[[226.96365,229.57113],[1.55012,0.01633],[-0.29069,0.82963]]],&quot;closed&quot;:true}]}" fill="#424347"/><path d="M239.04806,221.12855c-0.05087,0.01128 -0.10143,0.02323 -0.15062,0.0349c-0.62224,0.19355 -3.40635,1.36022 -4.84512,1.33379c-0.00202,-0.01228 -0.02377,-0.12205 -0.02563,-0.13403c-0.69835,-2.28201 -0.79213,-4.53238 -0.85782,-6.85892c0.18372,-2.67564 0.59185,-5.27249 0.60316,-7.92812c0.06956,-0.01519 0.14805,-0.13819 0.20257,-0.17465c0.02373,-0.01586 0.04756,-0.03204 0.07078,-0.04864l0.00727,0.01834l0.93386,-0.43258c0.25317,-0.11084 0.40445,-0.28535 0.40445,-0.60075c0,-0.41421 -0.30417,-0.74876 -0.68445,-0.74876c-0.04303,0 -0.08457,0.00444 -0.12542,0.01267l-0.79247,0.14524l0.00525,0.03462l-0.07724,-0.01704c-0.23308,0.12576 -0.46271,0.25183 -0.69579,0.37759c-0.85756,-0.06127 -1.86941,0.32151 -2.18211,1.13232c-0.25275,0.65536 0.66569,4.06926 0.78491,4.90588c0.1048,0.73544 0.1805,1.46387 0.22276,2.20003c-0.05733,1.26561 -0.09475,2.4562 -0.09475,3.75933c0,1.3576 -0.40848,3.72432 0.40856,4.87246c0.2012,0.28273 0.45743,0.48202 0.76156,0.61491c0.21819,0.81609 0.49963,1.96858 0.36848,2.21552c-0.29207,0.54996 -1.9301,0.9378 -2.31626,1.08608c-1.08712,0.41746 -2.71578,1.34051 -4.09552,1.18473c-0.13349,-0.07013 -0.25598,-0.08544 -0.36249,-0.06885c-0.32407,-0.08777 -0.63327,-0.25003 -0.91039,-0.5058c-0.52918,-0.4884 0.20638,-5.11324 0.3237,-5.88c-0.00446,-3.70355 -0.69878,-7.50392 -1.36351,-11.13006c-0.05436,-0.29652 -0.83469,-3.12728 -0.62391,-3.43669c0.63665,-0.93452 4.43257,-1.24709 5.4792,-1.43083c3.60958,-0.65528 7.1198,-1.56397 10.5794,-2.78663c-0.01493,0.08412 -0.01477,0.14256 -0.01477,0.14256c0.00465,4.08912 0.53533,8.29008 0.94902,12.34337c0.0926,0.90733 0.6758,3.68803 0.32414,4.49633c-0.12012,0.27609 -0.29417,0.48728 -0.49831,0.64744c-0.27299,-0.0468 -0.54009,-0.1155 -0.79783,-0.21283c0,0 -0.65584,-0.23291 -0.87358,0.4786c-0.04154,0.13574 -0.05237,0.2556 -0.04109,0.35847z" data-paper-data="{&quot;noHover&quot;:false,&quot;origItem&quot;:[&quot;Path&quot;,{&quot;applyMatrix&quot;:true,&quot;segments&quot;:[[[239.05241,220.7401],[-0.04154,0.13574],[0.21774,-0.71151]],[[239.92337,220.26575],[0,0],[0.25774,0.09733]],[[240.7206,220.47971],[-0.27299,-0.0468],[0.20414,-0.16016]],[[241.21722,219.83584],[-0.12012,0.27609],[0.35166,-0.8083]],[[240.88883,215.36133],[0.0926,0.90733],[-0.41369,-4.05329]],[[239.96093,203.05926],[0.00465,4.08912],[0,0]],[[239.97586,202.91682],[-0.01493,0.08412],[-3.45961,1.22266]],[[229.43646,205.70835],[3.60958,-0.65528],[-1.04663,0.18375]],[[223.9762,207.12528],[0.63665,-0.93452],[-0.21079,0.30941]],[[224.60574,210.5534],[-0.05436,-0.29652],[0.66473,3.62614]],[[225.96439,221.6266],[-0.00446,-3.70355],[-0.11732,0.76676]],[[225.63023,227.49664],[-0.52918,-0.4884],[0.27713,0.25577]],[[226.53753,228.00048],[-0.32407,-0.08777],[0.10651,-0.01659]],[[226.89891,228.06871],[-0.13349,-0.07013],[1.37974,0.15578]],[[230.98118,226.87936],[-1.08712,0.41746],[0.38616,-0.14829]],[[233.28709,225.79278],[-0.29207,0.54996],[0.13114,-0.24695]],[[232.92354,223.67711],[0.21819,0.81609],[-0.30413,-0.13289]],[[232.15706,223.06212],[0.2012,0.28273],[-0.81704,-1.14814]],[[231.73594,218.18676],[0,1.3576],[0,-1.30313]],[[231.8185,214.34075],[-0.05733,1.26561],[-0.04227,-0.73616]],[[231.6092,212.13296],[0.1048,0.73544],[-0.11922,-0.83662]],[[230.82812,207.22589],[-0.25275,0.65536],[0.3127,-0.81081]],[[233.02291,206.09227],[-0.85756,-0.06127],[0.23308,-0.12576]],[[233.72215,205.71499],[-0.23308,0.12576],[0,0]],[233.79979,205.73208],[233.79449,205.69745],[[234.59071,205.55291],[0,0],[0.04085,-0.00823]],[[234.7167,205.54038],[-0.04303,0],[0.38028,0]],[[235.40525,206.29038],[0,-0.41421],[0,0.3154]],[[234.97335,206.98655],[0.25317,-0.11084],[0,0]],[234.04408,207.42034],[[234.03687,207.40201],[0,0],[-0.02322,0.0166]],[[233.96646,207.45073],[0.02373,-0.01586],[-0.05452,0.03645]],[[233.77912,207.52677],[0.06956,-0.01519],[-0.01131,2.65563]],[[233.21477,215.50453],[0.18372,-2.67564],[0.06569,2.32655]],[[234.03659,222.41203],[-0.69835,-2.28201],[0.00186,0.01198]],[[234.04242,222.44842],[-0.00202,-0.01228],[1.43877,0.02642]],[[238.86211,221.13151],[-0.62224,0.19355],[0.04919,-0.01168]],[[239.01231,221.09718],[-0.05087,0.01128],[-0.01128,-0.10286]]],&quot;closed&quot;:true}]}" fill="#3b3d48"/></g><g stroke="none" stroke-width="0.5" stroke-linecap="butt"><path d="M241.45829,180.86642c3.39968,0.00459 6.28698,1.45265 8.65565,2.69728l0.0793,0.11711c0.64661,-0.45543 1.13684,-0.92223 1.9517,-1.66546c0,0 0.1488,-0.13565 0.35536,-0.25445c0.05447,-0.08361 0.12924,-0.17552 0.22956,-0.27616c0.6942,-0.69636 1.22429,-0.41781 1.22429,-0.41781c0.46659,0.24555 2.01143,0.58941 2.00174,1.1571c-0.01992,1.16818 -1.27468,2.3678 -2.67022,3.16898c-0.03824,0.10832 -0.08632,0.18887 -0.08632,0.18887c-1.16887,1.95825 -2.33774,3.91651 -3.5066,5.87475l-0.08576,0.14368c0.01048,0.1101 -0.01496,0.20663 -0.01496,0.20663c-0.36668,1.38703 0.01013,2.32762 -0.27868,3.65726c-0.37784,1.73945 -2.5504,4.33112 -3.9032,6.10282l-0.68696,0.5539c0,0 -0.072,0.04508 -0.17932,0.09582c-0.7483,1.09761 -1.60846,2.08009 -3.02463,3.10516c-5.57614,3.48031 -10.35041,3.48092 -14.97357,3.48092c-2.67076,0 -5.25566,0.23465 -2.88063,-3.08668c-0.01412,-0.2097 0.13159,-0.45382 0.13159,-0.45382l0.65823,-1.01289c2.58071,-2.5757 5.7567,-7.04336 6.70768,-9.80859c0.92274,-2.68312 0.05186,-4.66239 0.84475,-7.29914c-1.41941,-0.48575 -2.41389,-1.18581 -1.50093,-2.44495c0.52929,-0.72999 2.66209,-1.78245 3.76288,-2.45601c2.00888,-3.68943 4.62545,-2.62925 6.39658,-1.08045c0.39085,-0.29385 0.79244,-0.29385 0.79244,-0.29385zM245.54001,199.37189c0.02104,0 0.04112,0.00059 0.06032,0.00174c0.91993,-1.20137 1.81153,-2.48913 1.99957,-3.40617c0.24115,-1.17602 -0.01575,-2.09151 0.19552,-3.27558c-0.21751,-0.2052 0.04667,-0.64777 0.04667,-0.64777c1.04575,-1.75198 2.37217,-3.9742 3.47704,-5.82524c-0.52557,0.13348 -0.98749,0.16575 -1.31054,0.06725l-0.26922,-0.14125c-0.3169,0.29611 -0.62925,0.59527 -0.9344,0.89822c0.17746,0.52168 -0.14105,1.18124 -1.26809,1.87625c-0.92967,2.06089 -0.04429,4.32512 -1.29838,6.35587c-1.11795,1.81029 -5.12281,3.47832 -6.9649,5.15877c-0.50375,0.45954 -1.74649,1.91571 -2.32834,1.90256c-0.95367,-0.02155 -0.48065,-2.24132 -0.47502,-2.95573c0.34881,-1.0231 0.48836,-2.89995 0.91055,-3.81104c0.76749,-1.6562 3.96182,-3.69861 5.48245,-5.27132c-0.08875,-0.00078 -0.18096,-0.0014 -0.27822,-0.00113l-0.18865,-0.15084c-0.02608,0.04438 -0.05279,0.08944 -0.0801,0.13519l-0.26299,0.44061c0,0 -0.44767,0.75 -1.19767,0.75c-0.75,0 -0.30233,-0.75 -0.30233,-0.75l0.26299,-0.44061c0.29378,-0.49218 0.79632,-1.00362 0.93775,-1.47541c0.11029,-0.3679 -0.9856,-0.66093 -1.18481,-0.7656c-0.79621,-0.61176 -1.27851,1.07052 -2.92446,1.36736c-1.07759,0.19434 -0.92515,-0.60285 -1.36146,-0.96429c-0.41429,-0.34321 -1.5883,-0.5813 -2.79934,-0.88229c-0.44,2.24257 0.20313,4.07457 -0.64105,6.49202c-1.08786,3.11531 -4.43153,7.83533 -7.32783,10.75305l-0.20028,0.41795c0.04102,0.2518 -0.20512,0.58453 -0.20512,0.58453c-1.77832,2.37266 1.32263,1.49383 3.21255,1.49383c3.8481,0 8.03927,-0.0647 12.67644,-2.9813c1.67056,-1.17679 2.2965,-2.44528 3.16832,-3.90588l0.17533,-0.29374c0,0 0.44767,-0.75 1.19767,-0.75zM253.08617,182.68617c-0.87682,0.799 -1.51056,1.36619 -2.26466,1.9053c0.00039,0.0002 0.00059,0.0003 0.00059,0.0003l0.54315,0.28585c0.52373,0.40398 2.94819,-1.53382 2.84659,-1.81267c-0.0476,-0.13064 -0.61685,-0.28663 -1.08342,-0.41981c-0.02605,0.02624 -0.04224,0.04101 -0.04224,0.04101zM244.10473,190.66572c-0.90445,0.9719 -4.76495,3.73609 -5.077,4.60868c-0.36188,1.01192 -0.41109,2.35305 -0.82905,3.53241c0.00266,0.16049 0.08889,0.6251 0.04868,1.07749c0.55229,-0.53863 1.25458,-1.15653 1.65814,-1.48494c0.83921,-0.68294 4.43821,-2.38425 4.83299,-3.12413c0.9216,-1.72724 0.46454,-3.65465 0.96176,-5.48368c-0.34918,0.13031 -0.69666,0.24126 -1.03622,0.32867c-0.04124,0.01062 -0.08152,0.02062 -0.12095,0.03004zM244.3112,188.6691c0.86547,-0.16589 2.13916,-0.45768 2.66221,-0.66128c-0.15423,-0.10464 -0.16325,-0.2616 -0.1158,-0.41532c-0.92172,-0.41405 -3.08557,-0.38634 -2.55232,1.0341c0,0 0.00358,0.01512 0.0059,0.04251zM240.63459,184.63714c0,0 -0.28645,-0.20416 -0.06296,-0.61247c-0.82047,-1.19635 -3.36899,-4.467 -4.7852,-1.83215c-0.01673,0.14966 -0.10327,0.29676 -0.20531,0.42244c-0.10246,0.17735 -0.40345,0.61145 -0.95618,0.74488c-0.94744,0.61416 -1.83317,1.07921 -2.82918,1.63849c-0.40455,0.22716 0.54694,0.20986 0.81108,0.32481c0.63118,0.27466 1.27145,0.40526 2.0226,0.54702c1.0944,0.20654 2.40849,0.66261 3.15718,1.25593c0.25503,0.2021 0.05742,0.87754 0.52394,0.79814c0.4614,-0.07853 0.78433,-0.84343 1.2704,-1.11026c1.53274,-0.8414 1.5813,-0.50901 2.37665,-0.16602c0.48163,0.25307 0.82754,0.48239 1.03647,0.74418c0.18551,-0.22514 0.39259,-0.42123 0.6151,-0.59029c-1.08527,-0.61814 -1.9925,-1.46475 -2.97459,-2.16469z" fill="#000000"/><path d="M244.24714,188.65416c-0.53324,-1.42045 1.74643,-1.49503 2.66814,-1.08097c-0.04746,0.15373 -0.04594,0.32973 0.10829,0.43437c-0.52305,0.2036 -1.90489,0.52518 -2.77035,0.69107c-0.00232,-0.02739 -0.00609,-0.04446 -0.00609,-0.04446z" data-paper-data="{&quot;noHover&quot;:false,&quot;origItem&quot;:[&quot;Path&quot;,{&quot;applyMatrix&quot;:true,&quot;segments&quot;:[[[467.52014,378.80687],[-0.03734,-0.05477],[1.53289,-0.33178]],[[472.05514,377.4843],[-0.80306,0.4072],[-0.43338,-0.20928]],[[471.32774,376.65365],[0.08859,0.30745],[-2.33771,-0.82811]],[[467.4576,378.72186],[-2.7622,-2.84089],[0,0]]],&quot;closed&quot;:true}]}" fill="#ff0000"/><path d="M244.56866,190.10043c0.03942,-0.00942 0.08087,-0.01951 0.12211,-0.03012c0.33956,-0.0874 0.69539,-0.19815 1.04458,-0.32846c-0.49722,1.82903 -0.03033,3.81369 -0.95192,5.54093c-0.39478,0.73988 -4.07002,2.48362 -4.90923,3.16656c-0.40356,0.32841 -1.1125,0.94559 -1.6648,1.48422c0.04021,-0.45239 -0.0542,-0.91976 -0.05686,-1.08025c0.41795,-1.17936 0.45936,-2.55941 0.82124,-3.57133c0.31205,-0.87258 4.24987,-3.69395 5.15433,-4.66586z" data-paper-data="{&quot;noHover&quot;:false,&quot;origItem&quot;:[&quot;Path&quot;,{&quot;applyMatrix&quot;:true,&quot;segments&quot;:[[[469.49072,382.80012],[0,0],[-0.64867,1.94381]],[[464.83851,392.01747],[-0.41758,-1.74517],[0.48426,2.02384]],[[467.39735,399.08228],[-0.57199,-2.35872],[0.1969,0.32098]],[[468.78101,401.23726],[-0.45963,-0.90478],[0.46157,-1.07727]],[[470.3246,398.26738],[-0.41507,0.65682],[0.86314,-1.36588]],[[476.26104,392.01912],[0.0937,1.47976],[-0.21875,-3.45448]],[[471.63821,381.05177],[1.18903,3.65805],[-0.54281,0.26063]],[[469.95814,381.7091],[0.57477,-0.17481],[-0.0698,0.02123]],[[469.7521,381.76918],[0.0676,-0.01885],[0,0]]],&quot;closed&quot;:true}]}" fill="#ff0000"/><path d="M253.15321,182.59541c0.46657,0.13318 1.06924,0.31343 1.11684,0.44407c0.10161,0.27884 -2.43011,2.28688 -2.95385,1.8829l-0.55232,-0.30368c0,0 -0.00019,-0.00012 -0.00059,-0.00032c0.75411,-0.53912 1.4698,-1.18285 2.34662,-1.98185c0,0 0.01723,-0.01487 0.04329,-0.04112z" data-paper-data="{&quot;noHover&quot;:false,&quot;origItem&quot;:[&quot;Path&quot;,{&quot;applyMatrix&quot;:true,&quot;segments&quot;:[[[477.92773,366.84102],[0,0],[-0.79982,1.598]],[[475.67294,370.65163],[0.86461,-1.07823],[0.00102,0.0004]],[475.67448,370.65224],[[477.10202,371.22395],[0,0],[1.52973,0.80796]],[[480.63126,367.59862],[0.53609,0.55769],[-0.25116,-0.26128]],[[477.96326,366.759],[1.09212,0.26636],[-0.02077,0.05249]]],&quot;closed&quot;:true}]}" fill="#0032ff"/><path d="M243.64666,186.8182c-0.22251,0.16906 -0.43398,0.36954 -0.61948,0.59468c-0.20893,-0.26179 -0.55427,-0.49166 -1.03589,-0.74473c-0.79536,-0.34299 -0.86103,-0.66171 -2.39377,0.17969c-0.48607,0.26683 -0.82777,1.04173 -1.28916,1.12026c-0.46652,0.07941 -0.27954,-0.59237 -0.53456,-0.79448c-0.74868,-0.59332 -2.10768,-1.07729 -3.20209,-1.28383c-0.75115,-0.14176 -1.38738,-0.28502 -2.01856,-0.55968c-0.26414,-0.11495 -1.21387,-0.10122 -0.80933,-0.32838c0.99601,-0.55928 1.89289,-1.04044 2.84033,-1.6546c0.55273,-0.13343 0.86231,-0.57644 0.96477,-0.75379c0.10204,-0.12568 0.19236,-0.27614 0.2091,-0.42581c1.41621,-2.63485 4.04962,0.6463 4.87009,1.84265c-0.22348,0.40831 0.05541,0.62867 0.05541,0.62867c0.98209,0.69994 1.87785,1.5612 2.96313,2.17934z" data-paper-data="{&quot;noHover&quot;:false,&quot;origItem&quot;:[&quot;Path&quot;,{&quot;applyMatrix&quot;:true,&quot;segments&quot;:[[[455.35362,370.74296],[2.79975,1.39988],[0,0]],[[454.49653,369.51802],[0.04047,0.81662],[-3.06915,-2.3927]],[[442.73893,365.85372],[-0.31301,-5.2697],[0.14519,0.29933]],[[442.83261,366.6986],[0.05403,-0.25136],[0.0068,0.35469]],[[441.80948,368.18836],[0.94617,-0.26686],[-1.16169,1.22832]],[[438.10712,371.46534],[1.32437,-1.11857],[-0.53791,0.45432]],[[440.11705,372.11496],[-0.66551,-0.22989],[1.59024,0.54932]],[[444.81527,373.209],[-1.67151,-0.28352],[2.43537,0.41308]],[[452.62894,375.72086],[-2.20566,-1.18664],[0.75132,0.40421]],[[454.62961,377.31713],[-0.83824,0.15881],[0.82904,-0.15707]],[[455.845,375.09662],[-0.6536,0.53365],[2.06102,-1.6828]],[[460.40012,374.76457],[-2.00018,-0.68598],[1.26536,0.50614]],[[463.36146,376.25293],[-0.73039,-0.52358],[0.10223,-0.45029]],[[463.88698,375.07234],[-0.24319,0.33812],[-2.90847,-1.23628]]],&quot;closed&quot;:true}]}" fill="#0032ff"/><path d="M244.37837,200.13976l-0.17668,0.2951c-0.87182,1.4606 -1.51702,2.74448 -3.18758,3.92127c-4.63718,2.91661 -8.88641,2.9947 -12.73451,2.9947c-1.88993,0 -5.00271,0.86995 -3.22439,-1.50271c0,0 0.24531,-0.3341 0.20428,-0.5859l0.19978,-0.4189c2.8963,-2.91772 6.26149,-7.69416 7.34936,-10.80947c0.84418,-2.41745 0.21977,-4.26436 0.65977,-6.50693c1.21104,0.301 2.39411,0.5338 2.80839,0.87702c0.43631,0.36145 0.29035,1.15552 1.36794,0.96118c1.64595,-0.29684 2.14437,-1.98455 2.9406,-1.37279c0.19921,0.10467 1.30456,0.39623 1.19428,0.76413c-0.14143,0.47179 -0.69369,1.08276 -0.98747,1.57494l-0.21515,0.34126c0,0 -0.44131,0.74965 0.30869,0.74965c0.75,0 1.20352,-0.7496 1.20352,-0.7496l0.19153,-0.34136c0.02731,-0.04575 0.12497,-0.19013 0.15106,-0.2345l0.19068,0.15115c0.09725,-0.00027 0.11275,0.09869 0.2015,0.09947c-1.52062,1.57271 -4.66726,3.60491 -5.43476,5.26111c-0.4222,0.91109 -0.54753,2.69965 -0.89633,3.72274c-0.00563,0.7144 -0.49554,2.93844 0.45813,2.95999c0.58185,0.01315 1.80337,-1.43235 2.30712,-1.89189c1.84208,-1.68044 5.80758,-3.30414 6.92552,-5.11443c1.2541,-2.03076 0.37116,-4.26297 1.30083,-6.32385c1.12704,-0.69501 1.44779,-1.35247 1.27033,-1.87415c0.30514,-0.30295 0.71761,-0.69003 1.03452,-0.98615l0.27013,0.14201c0.32304,0.0985 0.78715,0.06844 1.3127,-0.06503c-1.10487,1.85104 -2.42614,4.08715 -3.47189,5.83913c0,0 -0.26421,0.44618 -0.04669,0.65138c-0.21126,1.18407 0.03988,2.11873 -0.20125,3.29474c-0.18804,0.91704 -1.09163,2.22229 -2.01155,3.42365c-0.01919,-0.00115 -0.03934,-0.00167 -0.06038,-0.00167c-0.75,0 -1.20203,0.75472 -1.20203,0.75472z" data-paper-data="{&quot;noHover&quot;:false,&quot;origItem&quot;:[&quot;Path&quot;,{&quot;applyMatrix&quot;:true,&quot;segments&quot;:[[[482.75458,400.21246],[-1.5,0],[0.04208,0]],[[482.8773,400.21594],[-0.03975,-0.00229],[0.40568,-2.40273]],[[482.81021,393.4036],[0.71867,1.83408],[-0.92163,-2.35203]],[[479.29091,386.85244],[0.991,2.36813],[-0.67997,-0.41039]],[[478.61094,385.55689],[0,0],[0,-3.50396]],[[478.61094,373.90641],[0,3.70209],[-0.89177,0.26695]],[[476.07015,374.04091],[0.76367,0.19701],[0,0]],[[475.36308,373.75841],[0,0],[-0.28033,0.59223]],[[474.56657,375.55486],[0.24863,-0.60591],[0.97768,1.04337]],[[474.27023,379.30737],[1.42437,-1.39002],[0.60092,4.12177]],[[479.26104,392.01912],[0.0839,-4.06152],[-0.07479,3.62058]],[[471.48969,402.33665],[1.67808,-3.36089],[-0.4589,0.91908]],[[469.10425,406.14178],[1.1794,0.0263],[-1.93306,-0.0431]],[[464.62571,400.23033],[0.84158,1.4288],[-0.52374,-2.04619]],[[461.89726,392.60825],[0.24324,1.82219],[-0.44216,-3.31241]],[[466.56932,382.06561],[-1.16377,3.14543],[-0.17844,-0.00156]],[[466.01153,382.06335],[0.19419,-0.00053],[0,0]],[[465.45416,381.76167],[0,0],[0.00081,0.08875]],[[465.45536,382.03204],[0,-0.0915],[0,0]],[465.45536,382.91325],[[463.95536,384.41325],[1.5,0],[-1.5,0]],[462.45536,382.91325],[[462.45536,382.03204],[0,0],[0,-0.98435]],[[462.56954,379.08121],[0.28036,0.94358],[-0.21862,-0.73579]],[[459.28595,377.55],[0.52336,0.20934],[-2.32275,-1.22352]],[[455.06937,380.28472],[2.93755,-0.59369],[-1.92318,0.38868]],[[451.19529,378.35613],[1.3041,0.7229],[-1.2383,-0.68643]],[[444.54335,376.59154],[2.78141,0.602],[1.79716,4.48514]],[[451.01133,389.57559],[-1.19756,-4.8349],[1.54327,6.23062]],[[449.1925,411.08168],[2.30947,-5.83544],[0,0]],[[449.29088,411.91757],[0,0],[0.38264,0.5036]],[[449.57845,413.08663],[0,0],[-0.7242,4.74532]],[[457.78687,416.0743],[-3.77985,0],[7.6962,0]],[[479.58072,410.11169],[-5.79255,5.83321],[1.93629,-2.35358]],[[481.25458,402.29994],[0,2.92119],[0,0]],[481.25458,401.71246]],&quot;closed&quot;:true}]}" fill="#0032ff"/></g><g stroke="none" stroke-width="0.5" stroke-linecap="butt"><path d="M278.319,168.2154c0.70231,1.39043 0.34411,2.44965 0.00046,3.90652l-0.34485,0.72528c0,0 -0.09932,0.1954 -0.29622,0.32123c-0.32239,4.00546 -0.51565,8.12547 -2.00277,11.82841c-0.62408,1.55397 -1.47973,3.27658 -3.23934,3.9092c-1.22065,0.43885 -2.7097,0.50119 -3.99469,0.59821c-3.211,0.50322 -6.02884,-0.01829 -9.22715,-0.10036c-5.86734,-0.15057 -11.63134,-0.5087 -17.49668,-1.03677c-1.62114,-0.17683 -2.93771,-1.19437 -3.77608,-2.62183c-0.23502,-0.40015 -0.42383,-1.74643 -0.85135,-2.02165c-0.67383,-0.43379 -2.48932,-0.25782 -3.19436,-0.35796c-4.94753,-0.70273 -8.02489,-2.10694 -8.62123,-7.46703c-0.46087,-4.2664 0.21689,-8.53631 0.60107,-12.80346l0.03197,-0.35514c0,0 0.00095,-0.01049 0.00386,-0.02889c-1.47948,-1.76851 -2.19377,-4.71505 -2.07882,-6.72838c-0.085,-4.12229 0.55015,-10.37758 4.10568,-13.12419c3.48817,-2.69458 8.40066,-3.76938 12.49853,-5.10495c8.95626,-2.6311 19.34132,-0.46412 28.4352,0.35461c4.51576,0.40656 9.71484,0.17803 14.03546,1.56157c4.14551,1.32746 7.60177,4.26311 11.80592,5.4193l0.83828,0.07547c0.41255,0.03715 0.71687,0.40168 0.67973,0.81423c-0.01857,0.20628 -0.119,0.38549 -0.26634,0.5085l-0.9678,0.80793l-0.15817,-0.18946c-3.33004,2.84708 -8.85192,4.1103 -13.13794,4.15779c0.11033,0.26121 0.02834,0.53879 0.02834,0.53879c-0.73859,2.49975 -1.40061,5.05039 -1.97103,7.62799c0.3923,0.48031 0.69629,1.12808 0.90946,2.0102l0.04932,0.88736c0,0 0.03907,0.74898 -0.70992,0.78805c-0.74898,0.03906 -0.78804,-0.70992 -0.78804,-0.70992l-0.01509,-0.31348c-0.3876,1.98739 -0.71837,3.9858 -0.98555,5.98449c0.06623,0.07596 0.10019,0.13839 0.10019,0.13839zM230.16342,171.36632c0.72996,0.17222 0.55774,0.90217 0.55774,0.90217l-0.3519,1.11854c-0.94914,0.44069 -1.13336,0.69645 -2.17302,0.58357c-0.67043,-0.07279 -1.18804,-0.3109 -1.57507,-0.66004c0.01273,0.80943 0.05754,1.61849 0.14487,2.42697c0.48765,4.677 3.03599,5.53352 7.33866,6.14273c1.11442,0.15778 2.89324,-0.04828 3.8766,0.63666c1.71714,1.19607 1.15324,4.18778 3.87096,4.35622c5.83474,0.52531 11.56752,0.8808 17.40359,1.0313c3.12957,0.08071 5.8765,0.59964 9.0132,0.10975c1.16622,-0.08805 2.50772,-0.1296 3.62326,-0.50606c1.3752,-0.46409 1.94088,-1.94324 2.40418,-3.10124c1.5546,-3.88563 1.60532,-8.29892 1.98153,-12.47763c0.06934,-0.77025 0.14873,-1.54163 0.23778,-2.31349c-0.14392,0.23842 -0.31527,0.465 -0.52037,0.67647c-1.08275,1.11646 -2.73068,1.46011 -3.56054,-0.18508c-0.54461,-1.07969 -0.12621,-2.60461 -0.21458,-3.76012c-0.18701,-2.4456 -0.26643,-4.63201 0.19653,-7.01306c-3.05308,0.06964 -6.10834,0.82814 -7.67619,3.60639c0,0 -0.37032,0.6522 -1.02251,0.28187c-0.65219,-0.37033 -0.28187,-1.02253 -0.28187,-1.02253c2.36725,-4.14606 7.31885,-4.60768 11.73472,-4.27905c0.85001,0.06325 1.61192,0.12595 2.28292,0.26254c0.10508,-0.18962 0.31006,-0.3833 0.70653,-0.34761c0.16913,0.01522 0.29651,0.0653 0.39238,0.13366c0.51672,-2.22523 1.09937,-4.42771 1.73828,-6.59179c0,0 0.01814,-0.06142 0.06177,-0.14307c-2.40604,-0.14223 -4.85375,-0.7603 -7.24667,-0.50181c-2.59052,-0.22602 -5.07465,0.23824 -7.69625,0.15091c-6.47944,-0.21585 -12.99211,-1.11481 -19.44874,-1.69611c-5.29913,-0.48912 -7.9227,3.1346 -9.2786,7.86793l0.01171,0.03238c0,0 -0.06273,0.69681 -0.74001,0.68383c-1.20181,2.10491 -2.81573,4.48196 -4.79809,5.69176c-1.50549,0.91878 -2.79101,0.93086 -3.84555,0.39883c-0.10367,1.07436 -0.22268,2.14951 -0.33252,3.22494c0.95457,-1.00396 2.25632,-0.95128 3.28793,1.6648c0,0 0.27391,0.69819 -0.42429,0.9721c-0.69819,0.27391 -0.9721,-0.42428 -0.9721,-0.42428c-1.45549,-3.73177 -3.11161,3.57442 0.36627,3.1047l0.0253,-0.48032c0,0 0.17222,-0.72996 0.90218,-0.55774zM273.72929,167.45137c0.00081,0.76845 -0.50138,2.04598 0.22585,2.29424c1.65595,0.5653 1.87096,-3.40742 1.93543,-4.13026c0.19814,-2.05546 0.99029,-3.96207 1.32509,-6.01129c-0.61587,-0.12066 -1.34378,-0.12655 -2.15811,-0.18767c-0.36561,-0.02743 -0.73807,-0.0502 -1.11445,-0.06566c-0.59257,2.78639 -0.2168,5.27097 -0.21381,8.10065zM235.52143,155.76935c1.69978,-4.95909 4.80527,-8.5837 10.5743,-8.07592c6.4286,0.57878 12.91312,1.47476 19.36432,1.69089c2.59917,0.08707 5.06088,-0.39131 7.63281,-0.15169c3.99981,-0.43207 8.1744,1.31046 12.17105,0.23394c1.81898,-0.48996 3.83992,-1.00299 5.56631,-1.76246c0.92655,-0.40761 1.77794,-1.09294 2.72683,-1.40917c-3.89091,-1.30089 -7.19542,-3.93325 -11.10851,-5.19712c-4.19765,-1.35579 -9.31797,-1.10012 -13.71083,-1.49562c-8.80518,-0.79274 -19.19349,-3.06565 -27.85324,-0.41685c-3.81576,1.24397 -10.22013,2.3791 -12.88257,5.71712c-2.30904,2.89495 -2.74417,7.56769 -2.66936,11.10934c-0.15676,2.51223 0.43576,6.68248 3.90926,6.64178c2.46081,-0.02883 4.9573,-4.75689 5.91586,-6.53788c0,0 0.12485,-0.23147 0.36378,-0.34634z" fill="#000000"/><path d="M273.9327,159.30182c0.37639,0.01547 0.75916,0.03713 1.12478,0.06456c0.81433,0.0611 1.56198,0.07105 2.17785,0.19171c-0.3348,2.04923 -1.11455,4.04013 -1.31269,6.0956c-0.06448,0.72284 -0.32216,4.7061 -1.97811,4.14079c-0.72723,-0.24826 -0.23583,-1.52946 -0.23663,-2.29791c-0.00299,-2.82967 -0.36778,-5.40836 0.22479,-8.19475z" data-paper-data="{&quot;noHover&quot;:false,&quot;origItem&quot;:[&quot;Path&quot;,{&quot;applyMatrix&quot;:true,&quot;segments&quot;:[[[513.43113,327.1896],[-0.51342,-5.636],[0.13943,1.53055]],[[514.29246,331.71909],[-1.49313,-0.3641],[3.39994,0.82908]],[[517.40701,323.14475],[0.0012,1.45142],[0.02605,-4.1299]],[[518.96845,310.93296],[-0.2994,4.14197],[-1.24843,-0.1299]],[[514.63597,310.94616],[1.63306,-0.02431],[-0.7332,0.01091]],[[512.40427,311.01523],[0.75251,-0.03669],[-0.68066,5.6566]]],&quot;closed&quot;:true}]}" fill="#00ffe2"/><path d="M229.31066,171.91641l-0.12396,0.49661c-3.47788,0.46973 -1.82246,-6.84295 -0.36697,-3.11118c0,0 0.27396,0.6992 0.97215,0.4253c0.69819,-0.27391 0.4242,-0.97419 0.4242,-0.97419c-1.03161,-2.61608 -2.33332,-2.67211 -3.28789,-1.66815c0.10984,-1.07543 0.22952,-2.15681 0.33319,-3.23117c1.05455,0.53203 2.34053,0.51764 3.84601,-0.40114c1.98236,-1.2098 3.60264,-3.60243 4.80443,-5.70734c0.67729,0.01298 0.74139,-0.6859 0.74139,-0.6859l-0.01167,-0.03242c1.35591,-4.73333 4.00358,-8.3756 9.30271,-7.88648c6.45664,0.5813 13.01556,1.48677 19.495,1.70261c2.62161,0.08733 5.11425,-0.36913 7.70477,-0.14312c2.3929,-0.25848 4.84532,0.36599 7.25136,0.50822c-0.04363,0.08165 -0.0617,0.14318 -0.0617,0.14318c-0.63891,2.16409 -1.21772,4.37419 -1.73445,6.59941c-0.09587,-0.06835 -0.31591,-0.08079 -0.48503,-0.09601c-0.39647,-0.0357 -0.60148,0.1579 -0.70656,0.34752c-0.671,-0.13659 -1.43201,-0.19722 -2.28202,-0.26047c-4.41587,-0.32861 -9.27872,0.08711 -11.64598,4.23317c0,0 -0.36834,0.65601 0.28385,1.02634c0.65219,0.37033 0.93154,-0.24039 0.93154,-0.24039c1.56785,-2.77823 4.71422,-3.57796 7.76729,-3.64758c-0.46296,2.38104 -0.37927,4.58328 -0.19226,7.02889c0.08837,1.15551 -0.33001,2.69003 0.21461,3.76973c0.82985,1.64519 2.3782,1.29251 3.46095,0.17605c0.2051,-0.21148 0.47618,-0.43085 0.6201,-0.66926c-0.08904,0.77186 -0.16895,1.54811 -0.23829,2.31836c-0.37622,4.17871 -0.43638,8.61436 -1.99098,12.49998c-0.4633,1.15798 -1.03376,2.6426 -2.40896,3.1067c-1.11553,0.37647 -2.46142,0.42188 -3.62764,0.50993c-3.13671,0.48989 -5.89889,-0.02092 -9.02848,-0.10163c-5.83607,-0.1505 -11.6098,-0.51047 -17.44454,-1.03578c-2.71771,-0.16844 -2.16447,-3.16862 -3.88161,-4.36468c-0.98335,-0.68494 -2.76654,-0.48409 -3.88096,-0.64187c-4.30266,-0.60921 -6.85862,-1.48134 -7.34627,-6.15834c-0.08733,-0.80848 -0.13316,-1.62188 -0.14589,-2.43131c0.38703,0.34915 1.00244,0.56655 1.67288,0.63934c1.03965,0.11288 1.12642,-0.12051 2.07556,-0.56121l0.35146,-1.12074c0,0 0.17187,-0.7321 -0.55809,-0.90431c-0.72996,-0.17222 -0.80322,0.54333 -0.80322,0.54333z" data-paper-data="{&quot;noHover&quot;:false,&quot;origItem&quot;:[&quot;Path&quot;,{&quot;applyMatrix&quot;:true,&quot;segments&quot;:[[[427.35252,342.801],[-1.48492,-0.21213],[1.48492,0.21213]],[428.62531,344.49805],[[428.12493,346.78923],[0,0],[-1.81159,1.04805]],[[423.90106,348.34139],[2.09117,0.0384],[-1.34852,-0.02476]],[[420.64524,347.30908],[0.83355,0.62607],[0.17053,1.61006]],[[421.36905,352.1175],[-0.31896,-1.59478],[1.81014,9.22887]],[[437.08887,363.03736],[-8.67992,-0.44188],[2.24815,0.11445]],[[444.925,363.61034],[-2.08161,-1.18802],[3.63495,2.07455]],[[453.41696,371.59348],[-5.44374,0.15187],[11.71667,0]],[[488.26888,370.52663],[-11.65213,0.74685],[6.24841,-0.40049]],[[506.24236,369.12883],[-6.16028,1.53837],[2.30724,-0.38454]],[[513.36891,367.47101],[-2.15457,0.94995],[2.6561,-1.17108]],[[517.60173,360.86238],[-0.71519,2.38973],[2.39984,-8.01873]],[[519.31112,335.65228],[0,8.39121],[0,-1.54673]],[[519.36987,331.00131],[-0.03895,1.55348],[-0.24391,0.50073]],[[518.45463,332.44212],[0.37062,-0.45804],[-1.95655,2.4181]],[[511.32905,332.71198],[1.94807,3.12831],[-1.27845,-2.05301]],[[510.22729,325.26052],[0.38324,2.28586],[-0.81111,-4.83796]],[[509.36105,311.25566],[-0.49519,4.82593],[-6.06906,0.68623]],[[494.71729,319.816],[2.62481,-5.81527],[0,0]],[[492.73104,320.56085],[1.36555,0.6207],[-1.36555,-0.6207]],[[491.9862,318.57459],[0,0],[3.97189,-8.68326]],[[514.59369,307.94646],[-8.8551,0.13735],[1.70452,-0.02644]],[[519.18823,308.05999],[-1.3611,-0.15174],[0.1753,-0.39656]],[[520.53325,307.24087],[-0.79614,0],[0.33962,0]],[[521.33883,307.43673],[-0.20324,-0.11897],[0.63022,-4.5252]],[[523.61924,293.9945],[-0.88458,4.42533],[0,0]],[[523.71662,293.69845],[-0.07226,0.17045],[-4.8182,0.14819]],[[509.19169,293.99846],[4.72017,-0.94403],[-5.2007,0.01436]],[[493.88825,295.67931],[5.23776,-0.2962],[-12.94539,0.73206]],[[454.84329,295.78867],[12.96551,0],[-10.64329,-0.02396]],[[437.77186,313.12516],[1.85202,-9.67168],[0,0]],[437.80099,313.18757],[[436.44954,314.68243],[1.35144,-0.09562],[-2.01643,4.40839]],[[427.91277,326.88058],[3.73179,-2.76537],[-2.83408,2.10014]],[[420.32417,328.36468],[2.19601,0.87063],[-0.01383,2.15867]],[[420.24016,334.84822],[0.02592,-2.1619],[1.7214,-2.17101]],[[427.0881,337.57476],[-2.52407,-5.02607],[0,0]],[[426.41728,339.58723],[1.34164,-0.67082],[-1.34164,0.67082]],[[424.40482,338.91641],[0,0],[-3.5685,-7.17245]],[[425.6912,345.0351],[-6.84351,1.55937],[0,0]],[425.65546,344.07379]],&quot;closed&quot;:true}]}" fill="#fff1e2"/><path d="M235.20691,156.10714c-0.95856,1.78099 -3.5514,6.5344 -6.0122,6.56323c-3.4735,0.0407 -4.06858,-4.1404 -3.91182,-6.65262c-0.07482,-3.54164 0.36118,-8.23132 2.67023,-11.12626c2.66244,-3.33802 9.0745,-4.49067 12.89027,-5.73464c8.65975,-2.64881 19.11958,-0.38707 27.92476,0.40568c4.39286,0.3955 9.52803,0.15832 13.72569,1.5141c3.91309,1.26388 7.22163,3.90929 11.11256,5.2102c-0.94888,0.31623 -1.80006,1.00304 -2.72661,1.41064c-1.7264,0.75947 -3.74711,1.27443 -5.56608,1.76439c-3.99663,1.07653 -8.27008,-0.65168 -12.26989,-0.21961c-2.57195,-0.23962 -5.0308,0.24823 -7.62997,0.16116c-6.4512,-0.21614 -12.8419,-1.11587 -19.2705,-1.69465c-5.76902,-0.50778 -8.87275,3.09354 -10.57252,8.05263c-0.23891,0.11487 -0.36388,0.34577 -0.36388,0.34577z" data-paper-data="{&quot;noHover&quot;:false,&quot;origItem&quot;:[&quot;Path&quot;,{&quot;applyMatrix&quot;:true,&quot;segments&quot;:[[[435.22821,310.77181],[-0.45531,0.27165],[2.49651,-10.18306]],[[454.84329,292.78867],[-11.58263,0.02314],[12.90919,0]],[[493.71915,292.68408],[-12.88919,0.72643],[5.19302,-0.29268]],[[508.89608,291.01306],[-5.16613,-0.01606],[7.8899,-1.57798]],[[533.18205,289.29631],[-7.768,2.86114],[3.53543,-1.30218]],[[543.95374,284.78733],[-3.30268,1.82242],[1.77254,-0.97809]],[[549.13272,281.49131],[-1.83341,0.80008],[-7.98378,-1.89352]],[[526.07315,273.1311],[8.02131,1.8158],[-8.60463,-1.94785]],[[498.49374,272.61079],[8.82125,0],[-17.68159,0]],[[442.93692,276.7756],[16.77469,-6.82929],[-7.3777,3.16222]],[[418.30087,290.47412],[4.7048,-7.12662],[-4.08031,6.18067]],[[414.97597,313.082],[-0.78417,-7.04133],[0.13829,5.03232]],[[423.95413,325.61097],[-6.91171,0.704],[4.89662,-0.49875]],[[434.56569,311.52694],[-1.58999,3.71954],[0,0]]],&quot;closed&quot;:true}]}" fill="#442300"/><path d="M249.51151,156.0727c0.74698,0.06725 0.67972,0.81423 0.67972,0.81423l-0.00168,0.01c3.71793,0.34479 7.17582,1.59084 9.30946,3.88111c0.30229,0.44271 0.625,0.87235 0.96901,1.28348l0.3676,0.58027c0,0 0.39439,0.63793 -0.24355,1.03232c-0.63794,0.39438 -1.03232,-0.24355 -1.03232,-0.24355l-0.24323,-0.40776c-0.35037,-0.42059 -0.68324,-0.85686 -0.99054,-1.30988c-0.28146,-0.30457 -0.59291,-0.5876 -0.93067,-0.84958c-0.33789,2.64812 -1.05122,5.2763 -1.74894,7.84439c-0.22366,0.82326 -0.69178,2.71202 -1.52228,3.14361c-3.54501,1.84219 -4.50177,-3.87118 -4.72658,-5.94394c-0.02279,-2.3976 -0.19798,-5.18703 -0.60548,-7.61467c-4.54618,-0.14356 -9.3322,1.06181 -11.95674,3.28917c0,0 -0.57575,0.48064 -1.05639,-0.09511c-0.48064,-0.57575 0.09511,-1.05639 0.09511,-1.05639c2.97955,-2.45341 7.99698,-3.76123 12.82037,-3.62359l0.00289,-0.05441c0,0 0.06725,-0.74698 0.81423,-0.67973zM250.89493,165.81936c0.08758,0.81457 0.56243,5.70291 2.47611,4.73474c0.5207,-0.26344 0.9119,-2.65898 1.02651,-3.22481c0.50605,-2.49832 1.32681,-4.8225 1.58991,-7.3639c-1.61482,-0.84763 -3.5847,-1.36048 -5.66589,-1.57171c0.36857,2.40252 0.54933,5.08073 0.57335,7.42568z" fill="#000000"/><path d="M250.30401,158.34687c2.08119,0.21123 4.09762,0.73016 5.71244,1.57779c-0.26311,2.5414 -1.08581,4.94836 -1.59186,7.44669c-0.11461,0.56582 -0.52692,2.96896 -1.04762,3.23239c-1.91368,0.96818 -2.43599,-3.94197 -2.52357,-4.75654c-0.02402,-2.34496 -0.18081,-5.09781 -0.54939,-7.50033z" data-paper-data="{&quot;noHover&quot;:false,&quot;origItem&quot;:[&quot;Path&quot;,{&quot;applyMatrix&quot;:true,&quot;segments&quot;:[[[467.65372,328.03382],[-0.4684,-4.66672],[0.32053,1.60687]],[[473.4351,337.02108],[-3.6383,2.27174],[0.98996,-0.61813]],[[474.90152,330.41336],[-0.12682,1.14764],[0.55997,-5.06727]],[[476.74791,315.45975],[-0.06834,5.10952],[-3.36864,-1.39885]],[[465.17993,313.3451],[4.18347,0.04753],[1.16504,4.71959]]],&quot;closed&quot;:true}]}" fill="#00ffe2"/><path d="M265.58092,173.90093c0.06498,-0.72177 0.76459,-0.68333 0.81174,-0.67992c0.28942,-0.17879 0.55219,-0.40537 0.78652,-0.65466l-0.12378,-0.14992c-0.37146,-0.53788 -0.72054,-1.09158 -1.05154,-1.65526c0,0 -0.37945,-0.64692 0.26748,-1.02637c0.64693,-0.37945 1.02638,0.26748 1.02638,0.26748c0.31159,0.53189 0.64061,1.05423 0.99149,1.56107l0.27468,0.32422c0,0 0.31351,0.37554 0.13081,0.77323c0.0821,0.35477 -0.17947,0.65908 -0.17947,0.65908c-0.45706,0.52021 -0.99349,0.98942 -1.59756,1.32798l-0.65703,0.06732c0,0 -0.74698,-0.06725 -0.67973,-0.81423zM266.3596,173.24116l-0.15871,0.08903c0.05374,-0.02803 0.10665,-0.05775 0.15871,-0.08903z" fill="#000000"/></g><g stroke="none" stroke-width="0.5" stroke-linecap="butt"><path d="M218.02073,197.30594c1.4007,4.15701 1.06107,10.63044 0.14443,14.89467c-0.35663,1.65905 -2.09196,3.65228 -1.39127,5.3326c0.72738,1.05549 1.47774,0.75406 2.23753,1.60772c1.03815,1.16643 0.12079,2.12813 2.11803,2.26156c1.12634,0.07525 2.18582,-1.57484 3.40209,-0.70375c0.46045,0.32978 0.14562,1.59564 0.29124,2.10448c0.08362,0.2922 0.34735,-0.49955 0.50153,-0.76148c0.3687,-0.62639 0.681,-1.28584 0.97236,-1.95174c0.7772,-1.77627 0.94576,-3.17685 0.67371,-5.08119c0.00812,-4.63643 -2.5532,-9.04371 -3.08132,-13.6271c-0.23299,-2.02207 -0.04341,-4.20592 -0.00971,-6.27201c-1.99197,0.38214 -3.88231,0.62179 -6.00108,0.62179c-0.0319,-0.00079 -0.06355,-0.00183 -0.09497,-0.00314c0.08508,0.52494 0.16382,1.05094 0.23743,1.5776zM225.37942,201.21198c0.531,4.61856 3.07931,9.00999 3.08718,13.69051c0.40298,2.82085 -0.27272,5.55065 -1.87879,7.94769c-0.40089,0.59833 -1.41114,1.92123 -2.43585,1.29469c-1.44439,-0.88315 -1.06701,-1.56146 -0.58998,-2.30159c0.28895,-0.44831 -0.83355,0.70637 -1.33945,0.87532c-0.91952,0.30709 -1.86645,0.21685 -2.75896,-0.1837c-1.45218,-0.65171 -0.79738,-1.47969 -1.5435,-2.36492c-0.62858,-0.74576 -1.7025,-0.87761 -2.46227,-1.91713c-0.95323,-2.43929 0.75431,-4.08401 1.25237,-6.41691c0.87136,-4.08138 1.16413,-10.20645 -0.14931,-14.18536c-0.09519,-0.65367 -0.19496,-1.30674 -0.3036,-1.95831l-0.0102,-0.27017c0,0 0,-0.01128 0.00138,-0.03108c-3.62703,-1.63688 -1.65973,-8.66703 1.51935,-10.58775c1.95753,-1.18268 4.1305,0.29998 6.07553,0.94832c0,0 0.71151,0.23717 0.47434,0.94868c-0.10013,0.30038 -0.2848,0.43168 -0.46478,0.48312c0.99362,1.62466 4.58481,4.94633 3.60613,7.04259c-0.14767,0.31631 -1.4913,0.48005 -2.07597,0.57955c-0.0184,2.09766 -0.2409,4.34267 -0.00363,6.40646zM222.12484,186.63533c-1.01317,-0.47668 -2.19204,-1.02816 -2.96009,-0.89926c-3.07465,0.51601 -5.17575,8.63015 -1.28647,8.49542c2.49615,0 4.62261,-0.34746 7.04385,-0.8655c0.42165,-0.09021 1.27988,0.45209 1.2934,0.02111c0.04811,-1.53352 -2.92338,-4.22964 -3.72186,-5.56265l-0.31821,-0.78907c0,0 -0.07346,-0.18365 -0.05062,-0.40005z" fill="#000000"/><path d="M222.19415,186.989l0.32816,0.79447c0.79848,1.333 3.78318,4.09744 3.73507,5.63096c-0.01352,0.43098 -0.87575,-0.106 -1.2974,-0.01579c-2.42125,0.51803 -4.61508,0.87321 -7.11123,0.87321c-3.88928,0.13473 -1.77845,-8.06569 1.29621,-8.58171c0.76805,-0.1289 1.98279,0.42116 2.99595,0.89784c-0.02284,0.2164 0.05323,0.40102 0.05323,0.40102z" data-paper-data="{&quot;noHover&quot;:false,&quot;origItem&quot;:[&quot;Path&quot;,{&quot;applyMatrix&quot;:true,&quot;segments&quot;:[[[222.12484,186.63532],[-0.02284,0.2164],[-1.01317,-0.47668]],[[219.16474,185.73606],[0.76805,-0.1289],[-3.07465,0.51601]],[[217.87827,194.23148],[-3.88928,0.13473],[2.49615,0]],[[224.92212,193.36598],[-2.42125,0.51803],[0.42165,-0.09021]],[[226.21552,193.38708],[-0.01352,0.43098],[0.04811,-1.53352]],[[222.49366,187.82444],[0.79848,1.333],[0,0]],[222.17545,187.03536]],&quot;closed&quot;:true}]}" fill="#0032ff"/><path d="M217.76864,195.68054c0.03141,0.00131 0.06338,0.00226 0.09528,0.00305c2.11877,0 4.03069,-0.24122 6.02266,-0.62336c-0.0337,2.06609 -0.21757,4.25112 0.01542,6.27319c0.52811,4.58339 3.10888,9.07706 3.10076,13.71349c0.27205,1.90434 0.08968,3.31325 -0.68751,5.08952c-0.29136,0.66589 -0.60939,1.32725 -0.97809,1.95364c-0.15417,0.26193 -0.42025,1.05424 -0.50387,0.76204c-0.14561,-0.50884 0.16986,-1.77484 -0.29059,-2.10462c-1.21627,-0.87109 -2.28981,0.78017 -3.41615,0.70492c-1.99724,-0.13343 -1.09044,-1.0969 -2.12859,-2.26333c-0.75979,-0.85366 -1.52222,-0.55739 -2.2496,-1.61289c-0.7007,-1.68032 1.02248,-3.68367 1.37911,-5.34273c0.91664,-4.26423 1.27839,-10.81803 -0.12231,-14.97504c-0.0736,-0.52666 -0.15143,-1.05295 -0.23651,-1.57789z" data-paper-data="{&quot;noHover&quot;:false,&quot;origItem&quot;:[&quot;Path&quot;,{&quot;applyMatrix&quot;:true,&quot;segments&quot;:[[[218.02073,197.30593],[-0.0736,-0.52666],[1.4007,4.15701]],[[218.16516,212.20061],[0.91664,-4.26423],[-0.35663,1.65905]],[[216.77389,217.5332],[-0.7007,-1.68032],[0.72738,1.05549]],[[219.01142,219.14092],[-0.75979,-0.85366],[1.03815,1.16643]],[[221.12945,221.40249],[-1.99724,-0.13343],[1.12634,0.07525]],[[224.53154,220.69874],[-1.21627,-0.87109],[0.46045,0.32978]],[[224.82278,222.80322],[-0.14561,-0.50884],[0.08362,0.2922]],[[225.3243,222.04174],[-0.15417,0.26193],[0.3687,-0.62639]],[[226.29666,220.09],[-0.29136,0.66589],[0.7772,-1.77627]],[[226.97037,215.00881],[0.27205,1.90434],[0.00812,-4.63643]],[[223.88905,201.3817],[0.52811,4.58339],[-0.23299,-2.02207]],[[223.87934,195.10969],[-0.0337,2.06609],[-1.99197,0.38214]],[[217.87827,195.73148],[2.11877,0],[-0.0319,-0.00079]],[[217.7833,195.72833],[0.03141,0.00131],[0.08508,0.52494]]],&quot;closed&quot;:true}]}" fill="#fff1e2"/></g><g stroke="none" stroke-width="0.5" stroke-linecap="butt"><path d="M252.51284,175.62005c0.9337,0.51799 4.24401,2.61823 5.22283,1.49504c-0.26765,-0.07324 -0.53301,-0.15073 -0.79576,-0.23215c-1.22233,-0.74308 -4.49313,-1.49359 -4.83286,-3.68163c-0.04839,-0.31166 0.09502,0.62869 0.09714,0.95291c0.00327,0.50095 -0.02454,0.98261 -0.06131,1.4606c0.18788,-0.09564 0.36996,0.00523 0.36996,0.00523zM255.53593,190.32755l0.00901,-0.02285c-0.02818,-1.2315 0.16597,-3.03189 -0.44793,-3.98956c-0.59624,-0.93014 -2.33328,-0.0593 -2.78513,0.87404c0.01814,0.63649 0.03777,1.2673 0.12401,1.85322c0.22995,1.56243 2.09737,2.43482 3.11607,1.5982c-0.02919,-0.16692 -0.01604,-0.31303 -0.01604,-0.31303zM261.28685,177.79963l-0.02093,0.10113c-0.33873,1.05407 -0.61034,2.15142 -0.98825,3.16815c-0.39428,2.11854 -1.20733,3.74335 -1.92815,5.65599c-0.60399,1.60264 -0.90564,3.56771 -1.94885,4.80283c-1.36121,1.6116 -3.62471,0.88396 -4.55536,-0.86118c-0.6765,-1.26857 -0.45974,-3.5364 -0.66886,-5.12132c-0.07609,-3.35128 -0.16317,-6.64647 -0.01304,-10.02107c0.04944,-1.11118 -0.34557,-3.31152 0.82816,-3.79435c0.11008,-0.04528 1.21102,0.91445 1.37775,1.08258c1.28863,1.2995 2.51466,1.77436 3.93452,2.63754c1.07811,0.32599 2.2099,0.59046 3.3687,0.76467c0.09958,-0.12199 0.24363,-0.20551 0.44547,-0.13625c0.13143,0.0451 0.21673,0.13073 0.27121,0.23185c2.95942,0.34423 6.05692,0.07199 8.85946,-1.28321c0,0 0.49581,-0.23503 0.62169,0.47548c0.1259,0.71051 -0.36991,0.94554 -0.36991,0.94554c-2.94297,1.37234 -6.14049,1.6915 -9.21362,1.35161z" fill="#000000"/><path d="M252.10878,175.61832c0.03677,-0.47798 0.0667,-0.97713 0.06343,-1.47808c-0.00212,-0.32422 -0.08423,-1.22822 -0.03584,-0.91656c0.33973,2.18804 3.55186,2.89387 4.77419,3.63696c0.26275,0.08143 0.58794,0.20038 0.85559,0.27363c-0.97882,1.12318 -4.35372,-0.99209 -5.28742,-1.51008c0,0 -0.18207,-0.1015 -0.36995,-0.00586z" data-paper-data="{&quot;noHover&quot;:false,&quot;origItem&quot;:[&quot;Path&quot;,{&quot;applyMatrix&quot;:true,&quot;segments&quot;:[[[455.3035,347.26607],[0,0],[2.87653,0.86436]],[[471.02354,349.30746],[-2.57539,2.41285],[-0.80472,-0.0979]],[[468.62726,348.98773],[0.79249,0.11507],[-3.78291,-1.26097]],[[453.47385,342.52084],[1.57489,4.29753],[-0.22433,-0.61213]],[[454.01063,344.40157],[-0.09187,-0.64544],[0.14194,0.99728]],[[454.21658,347.322],[-0.0184,-0.95871],[0.52602,-0.2242]]],&quot;closed&quot;:true}]}" fill="#ffffff"/><path d="M255.57553,190.67412c-1.0187,0.83662 -2.943,-0.05541 -3.17296,-1.61784c-0.08623,-0.58591 -0.10219,-1.25216 -0.12032,-1.88865c0.45185,-0.93333 2.24032,-1.82321 2.83656,-0.89307c0.61389,0.95768 0.42327,2.8294 0.45145,4.06089l-0.00921,0.02317c0,0 -0.0147,0.14857 0.01449,0.31549z" data-paper-data="{&quot;noHover&quot;:false,&quot;origItem&quot;:[&quot;Path&quot;,{&quot;applyMatrix&quot;:true,&quot;segments&quot;:[[468.05936,376.02042],[[468.07977,375.97328],[0,0],[-0.408,-2.44803]],[[465.71149,368.10661],[2.05431,1.79755],[-1.99524,-1.74586]],[[457.77015,370.34712],[1.07927,-1.94019],[0.22136,1.2646]],[[458.62359,374.01638],[-0.40781,-1.15164],[1.0875,3.07103]],[[468.18911,376.64107],[-2.76809,1.84919],[-0.12975,-0.32727]]],&quot;closed&quot;:true}]}" fill="#ff0000"/></g></g></g></svg>