<svg version="1.1" xmlns="http://www.w3.org/2000/svg" xmlns:xlink="http://www.w3.org/1999/xlink" width="29.88637" height="42.75246" viewBox="0,0,29.88637,42.75246"><g transform="translate(-225.96199,-158.5707)"><g data-paper-data="{&quot;isPaintingLayer&quot;:true}" fill-rule="nonzero" stroke="none" stroke-linecap="butt" stroke-linejoin="miter" stroke-miterlimit="10" stroke-dasharray="" stroke-dashoffset="0" style="mix-blend-mode: normal"><path d="M228.34836,182.83476l-2.38636,-23.63637l29.88637,0.68182l-5.79545,22.95455l-0.74184,13.98723l-12.91965,4.50118l2.0968,-8.39847l-6.50349,-7.02175z" fill="#ffffff" stroke-width="0"/><path d="M251.54228,170.55292c0.28927,-0.58599 1.37187,-0.58598 1.53576,-1.21859c0.64884,-2.50443 -2.96544,-9.04254 -5.57928,-9.13081c-1.33907,-0.1438 -2.85503,-0.23927 -4.18973,0.04946c-1.09681,0.23727 -2.37896,1.6035 -3.50247,1.55065c-1.7685,-0.08319 -2.87209,-1.21239 -4.84393,-0.66074c-2.11317,0.59118 -1.96217,2.5972 -3.19754,3.86105c-0.25428,0.26014 -0.7352,0.06999 -1.07087,0.21019c-1.76655,0.73781 -2.05413,2.24316 -1.58589,3.67121l0.33853,0.33853c0.13572,0.13572 0.21967,0.32322 0.21967,0.53033c0,0.38198 -0.28556,0.69727 -0.65485,0.74402l-0.57075,0.08154c-1.82862,2.47483 0.7934,5.6294 3.44108,6.09369c-0.11383,-0.33813 -0.21531,-0.68293 -0.30399,-1.03137c-0.18754,-0.03357 -0.37521,-0.09645 -0.56213,-0.19497c-2.25415,-1.18802 -1.32751,-2.99929 0.16669,-4.30628c0.09137,-0.95734 0.31204,-1.83044 0.67343,-2.53995c3.00559,-2.45498 7.33179,-4.52334 11.37197,-3.79356c3.9743,0.71787 6.44241,3.54621 7.05439,6.93842c0.17961,0.21924 0.17961,0.50847 0.17961,0.50847l-0.05086,0.54241c0.02873,0.43453 0.02815,0.87536 -0.00242,1.31951c2.41188,-0.17175 0.435,-2.14803 1.13357,-3.56318zM227.70868,169.26842c-1.55232,-1.09916 0.49558,-3.88022 1.55579,-4.771c0.43758,-0.36766 1.1886,-0.25481 1.57623,-0.6748c0.65572,-0.71046 0.63104,-1.9018 1.3148,-2.58532c2.59288,-2.59195 4.79341,-1.26704 7.66378,-0.93363c0.76368,0.08871 2.25716,-1.3111 3.11384,-1.50283c1.5023,-0.33622 3.19159,-0.24715 4.70288,-0.09103c3.33423,0.35638 8.08905,7.56742 6.89175,11.00968c-0.24451,0.70297 -1.23897,0.8856 -1.64606,1.50868c-0.35138,0.53782 0.38038,1.26554 0.30309,1.9033c-0.2216,1.82844 -1.03239,2.26081 -2.71635,2.48262l-0.27599,0.0016c-0.14663,0.66645 -0.36135,1.33286 -0.64636,1.98939c-0.61172,0.55721 -1.22291,1.11905 -1.88593,1.61411l-0.7378,0.32226c0,0 -0.69636,0.27854 -0.9749,-0.41781c-0.27854,-0.69636 0.41781,-0.9749 0.41781,-0.9749l0.39856,-0.13229c0.54165,-0.4028 1.05442,-0.84363 1.56393,-1.28639c0.24015,-0.5762 0.4137,-1.15953 0.52355,-1.74078c-0.56168,0.26124 -1.25839,0.28377 -2.33763,0.27626c-0.55507,-0.19761 -1.20325,-1.288 -1.56452,-0.82257c-0.99479,1.28161 -1.57625,1.45015 -3.44547,1.36449c-0.77519,-0.03552 -1.46928,-0.23096 -2.12367,-0.48242c0.0588,0.21238 0.11908,0.40856 0.20085,0.55833c0.66083,1.21041 1.46214,1.67861 2.64619,1.99565c0.32566,-0.13221 0.62104,-0.16775 0.82268,-0.01955c0.08926,0.0656 0.15738,0.20366 0.20927,0.38732c0.10811,0.12353 0.18223,0.3042 0.15293,0.56758c-0.00694,0.06237 -0.01852,0.11895 -0.03391,0.17026c0.06208,0.70791 0.0385,1.54254 0.0385,1.90592v0.22727c0,0 0,0.75 -0.75,0.75c-0.75,0 -0.75,-0.75 -0.75,-0.75v-0.22727c0,-0.58162 0.13223,-0.96633 0.24732,-1.18259c-0.23764,0.27556 -0.54153,0.60236 -0.88586,0.91102c0.21152,0.04716 0.45505,0.18896 0.53306,0.57903c0.14709,0.73544 -0.58835,0.88252 -0.58835,0.88252c-1.80024,0.35451 -4.31288,0.3045 -5.97116,-0.65097c-1.12069,-0.64572 -2.0443,-1.80474 -2.73078,-3.19835c-4.51363,-0.04743 -8.0309,-5.285 -4.8121,-8.96278zM235.98062,174.02668c-0.68242,-0.12166 -1.66713,0.78484 -2.75451,1.30207c0.2836,1.16003 0.74392,2.2052 1.37604,3.06256c0.01687,-1.40408 0.49687,-3.41347 1.58197,-4.32387c-0.06747,-0.01497 -0.13529,-0.02859 -0.20349,-0.04075zM233.84827,169.59476c0,0 0.72761,-0.1819 0.90951,0.54571c0.1819,0.72761 -0.54571,0.90951 -0.54571,0.90951c-0.22548,0.05099 -0.85857,0.41047 -1.48984,0.86682c0.05837,0.6292 0.17372,1.25862 0.23611,1.8544c0.00576,0.05498 0.01186,0.10981 0.01832,0.16446c1.07856,-0.43694 1.996,-1.47596 2.9667,-1.40851c1.22354,0.08502 2.80792,1.47078 4.20778,1.66491c0.8453,0.11723 2.84477,0.53759 3.60677,-0.11094c0.32508,-0.27668 0.31541,-0.91619 0.71692,-1.06118c0.16078,-0.05806 2.11801,0.70068 2.29912,0.76834c0.80265,-0.00742 1.71645,-0.40905 2.18623,-1.06735c-0.29571,-3.11333 -2.44399,-5.78558 -5.94599,-6.42896c-3.50103,-0.6432 -7.34144,1.18882 -9.99166,3.25189c-0.07216,0.15035 -0.13052,0.30375 -0.17707,0.45959c0.36355,-0.18894 0.7086,-0.32983 1.00283,-0.40871zM238.05325,178.41331c0.04041,-0.19671 0.38325,-0.64025 0.19513,-0.56998c-0.60512,0.22602 -1.53836,1.36546 -2.18091,1.97284c0.52107,0.35291 1.10467,0.61838 1.7497,0.77995c-0.0365,-0.76874 0.17783,-1.89925 0.23608,-2.18282zM239.13865,180.28143c0.05673,0.48046 0.71988,-0.64653 1.08079,-0.96871c0.07818,-0.06979 0.24817,-0.22528 0.47033,-0.41208c-0.39931,-0.18385 -0.76092,-0.40235 -1.09389,-0.6733c-0.13622,0.79858 -0.50666,1.63551 -0.45723,2.05408zM237.88768,175.19178c-0.38168,-0.31577 -0.83807,0.53275 -1.22167,0.84618c-0.84347,0.68917 -0.87025,1.17552 -0.73179,1.90923c0.70633,-0.60108 1.57885,-1.27331 2.27067,-1.46983c-0.15502,-0.41606 0.02241,-1.00461 -0.31721,-1.28558zM231.19705,173.47328c-0.05461,0.15634 -0.04673,0.29409 0.04514,0.40215c-0.01702,-0.13432 -0.03207,-0.26842 -0.04514,-0.40215z" fill="#9966ff" stroke-width="0.5"/><path d="M237.12226,185.73557c1.64979,0.12932 2.05668,-0.3875 2.98335,-1.38788l0.23788,-1.11984c0,0 0.1627,-0.73214 0.89484,-0.56944c0.11877,0.02639 0.214,0.06778 0.29019,0.11859c0.1711,-0.0632 0.39078,-0.0663 0.64496,0.10315c0.62404,0.41603 0.20801,1.04006 0.20801,1.04006c-0.21237,0.30992 -0.34351,0.56672 -0.40794,0.77613c0.04059,-0.0068 0.08229,-0.01034 0.12481,-0.01034c0.35383,0 0.65044,0.24503 0.72939,0.57466l0.04909,0.18656c0.38342,-0.05514 0.83801,-0.20809 1.27608,-0.42417l0.9803,-0.46681c-0.02214,-0.07391 -0.03487,-0.15889 -0.03487,-0.2566c0,-0.38685 0.19954,-0.57416 0.39277,-0.66486c-0.13474,-0.20154 -0.25963,-0.44821 -0.37037,-0.74415c0,0 -0.12272,-0.49086 0.23661,-0.76703c0.41079,-0.89473 0.97013,-1.19571 2.12728,-1.50611c0,0 0.11053,-0.02763 0.2562,-0.01828c0.47516,-0.12293 0.77702,0.32986 0.77702,0.32986c1.33422,2.27212 -0.19574,3.3432 -2.18591,4.07542l-0.09678,0.00904c0.18692,0.59036 -0.40526,0.87235 -0.40526,0.87235l-1.03207,0.49146c-0.65542,0.30325 -1.31929,0.45823 -1.92475,0.47674c0.42905,1.82573 0.55331,3.7772 1.55387,5.21135l0.16592,-0.02752c0,0 0.67082,0.33541 0.33541,1.00623c-0.33541,0.67082 -1.00623,0.33541 -1.00623,0.33541l-0.74317,-0.48207c-0.4579,-0.70933 -0.86314,-1.77046 -1.108,-2.88575c0.04685,3.77048 0.01101,8.20183 -2.77408,10.64779l-0.30446,0.30681c0,0 -0.53033,0.53033 -1.06066,0c-0.53033,-0.53033 0,-1.06066 0,-1.06066l0.37736,-0.37501c2.67657,-2.33249 2.29433,-7.33568 2.24792,-10.83028c-0.34495,-0.20386 -0.34495,-0.65074 -0.34495,-0.65074c0,-0.58679 0.0065,-1.16604 -0.00176,-1.74398c-0.80637,0.67962 -1.59571,0.9965 -3.17606,0.92733l-0.43441,-0.02555c0,0 -0.01406,-0.00083 -0.0382,-0.00418c-1.65689,-0.07224 -2.36323,-0.78983 -3.35867,-2.11271c0,0 -0.45,-0.6 0.15,-1.05c0.05435,-0.04076 0.10747,-0.07291 0.15913,-0.09767c0.04877,-0.21021 0.17597,-0.35861 0.17597,-0.35861c0.60123,-0.58387 1.61429,-0.88607 2.42369,-0.6687l0.63475,0.82138c0,0 0.10021,0.20043 0.08153,0.43695c0.0992,0.45942 -0.33633,0.74977 -0.33633,0.74977c-0.36284,0.19987 -0.80069,0.30947 -1.23342,0.31391c0.35664,0.32154 0.7726,0.48436 1.49921,0.47114h0.11364c0,0 0.07155,0 0.17045,0.0221z" fill="#9966ff" stroke-width="0.5"/></g></g></svg>