<svg version="1.1" xmlns="http://www.w3.org/2000/svg" xmlns:xlink="http://www.w3.org/1999/xlink" width="142.24344" height="149.88029" viewBox="0,0,142.24344,149.88029"><defs><linearGradient x1="179.1869" y1="151.70654" x2="186.74429" y2="197.45188" gradientUnits="userSpaceOnUse" id="color-1"><stop offset="0" stop-color="#cc2981"/><stop offset="1" stop-color="#a92292"/></linearGradient><linearGradient x1="289.42287" y1="143.49015" x2="285.13194" y2="189.64522" gradientUnits="userSpaceOnUse" id="color-2"><stop offset="0" stop-color="#cc2981"/><stop offset="1" stop-color="#a92292"/></linearGradient><linearGradient x1="279.5435" y1="213.57268" x2="279.5435" y2="237.25885" gradientUnits="userSpaceOnUse" id="color-3"><stop offset="0" stop-color="#9966ff"/><stop offset="1" stop-color="#66ebff"/></linearGradient><linearGradient x1="310.31085" y1="209.40114" x2="310.31085" y2="237.33108" gradientUnits="userSpaceOnUse" id="color-4"><stop offset="0" stop-color="#9966ff"/><stop offset="1" stop-color="#66ebff"/></linearGradient></defs><g transform="translate(-172.0132,-88.54321)"><g data-paper-data="{&quot;isPaintingLayer&quot;:true}" fill-rule="nonzero" stroke-miterlimit="10" stroke-dasharray="" stroke-dashoffset="0" style="mix-blend-mode: normal"><g data-paper-data="{&quot;index&quot;:null}" stroke="#000000" stroke-width="0.90024" stroke-linecap="round" stroke-linejoin="miter"><path d="M270.1219,163.23889c0,0 2.80485,-13.20108 3.00283,-13.86338c0.19794,-0.66217 1.15775,-6.45997 9.77371,-13.14788c0,0 9.42155,29.91435 -1.10748,43.96066c-0.00045,-0.00077 -3.08595,-8.33901 -11.66906,-16.9494zM270.30135,163.42117c-0.69187,-0.7221 -2.16832,-1.85314 -2.16832,-1.85314M282.30202,182.60159c0,0 -0.20106,-1.57633 -0.51152,-2.41407" fill="#be1e2d"/><path d="M284.96648,172.84173c0,0 -2.03194,-0.26787 -4.24468,-3.6884c-1.37612,-2.11974 -2.72507,-6.64441 -2.72507,-6.64441l-0.00436,0.17128c0.20556,-1.05154 0.37576,-2.2405 0.43833,-3.47445c0.10761,-2.08832 -0.0596,-5.03359 -0.30495,-7.89125l-0.01563,-0.40397c0,0 0.44613,-5.68013 6.00067,-9.52152l0.0886,-0.00194c1.11638,4.72686 2.55097,11.7748 2.67698,17.07432c0.14153,5.94462 -0.83284,10.87353 -1.96505,14.5218l0.05517,-0.14147v0v0v0v0v0zM276.95684,166.29013c0,0 0.89861,-3.14711 1.03989,-3.78121" fill="#929497"/></g><g data-paper-data="{&quot;index&quot;:null}" stroke="#000000" stroke-width="0.90024" stroke-linecap="round" stroke-linejoin="miter"><path d="M189.56155,188.01451c-11.82578,-13.00254 -5.30997,-43.66077 -5.30997,-43.66077c9.21739,5.85641 10.72791,11.53891 10.98873,12.17887c0.26078,0.64006 4.3165,13.52176 4.3165,13.52176c-7.72171,9.37177 -9.99525,17.96014 -9.99525,17.96014zM201.37555,168.20614c0,0 -1.36157,1.2635 -1.98114,2.04686M189.56155,188.01451c-0.22897,0.86287 -0.27814,2.45092 -0.27814,2.45092" fill="#be1e2d"/><path d="M185.76505,181.13303c-1.47602,-3.52732 -2.91704,-8.3431 -3.34648,-14.27394c-0.38269,-5.28794 0.37175,-12.43758 1.03058,-17.24736l0.08849,-0.00627c5.8979,3.30806 6.88532,8.92008 6.88532,8.92008l0.02311,0.40362c0.02921,2.8677 0.14477,5.81543 0.4518,7.8844c0.18041,1.22261 0.46367,2.39039 0.76897,3.4181l-0.02074,-0.17011c0,0 -0.9098,4.63009 -2.07694,6.86848c-1.87533,3.61139 -3.87264,4.06726 -3.87264,4.06726zM191.64609,170.06155c0.20135,0.6181 1.39721,3.66747 1.39721,3.66747" fill="#929497"/></g><path d="M187.7246,150.44187c0,0 0.67161,-39.03694 48.66364,-41.77025c32.93203,-1.87559 46.59833,35.81863 46.59833,35.81863" data-paper-data="{&quot;index&quot;:null}" fill="none" stroke="#000000" stroke-width="7" stroke-linecap="round" stroke-linejoin="miter"/><path d="M234.19969,208.68533v0v0v0v0v0c0.90973,1.60146 2.11791,4.89174 2.06511,6.01599c0,0 -0.40877,4.38921 -2.82482,4.71458c-1.03234,0.13944 -1.88933,-0.32106 -2.60457,-1.22948c-0.39731,0.13055 -1.00049,0.24205 -1.54867,-0.07476c-0.90996,-0.52402 0.30074,-2.33981 0.30074,-2.33981l0.01141,0.01498c-0.10377,-0.29802 -0.20279,-0.59857 -0.29626,-0.92446c-0.52275,-1.845 -0.75617,-4.70286 -0.95214,-6.24984c0,0 -0.20781,-1.33842 1.09202,-2.26247c1.38266,-0.98327 3.84745,0.73382 4.75717,2.33528z" data-paper-data="{&quot;index&quot;:null}" fill="#be1e2d" stroke="#231f20" stroke-width="0.78672" stroke-linecap="round" stroke-linejoin="round"/><path d="M248.75022,217.53874v0v0v0v0c0,0 -3.47679,2.76849 -5.39532,1.28111c-0.82429,-0.62954 -1.0818,-1.56041 -0.92253,-2.69995c-0.37437,-0.18943 -0.87219,-0.53658 -1.02538,-1.14629c-0.25319,-1.00755 1.91073,-1.42003 1.91073,-1.42003l-0.0028,0.01771c0.14604,-0.27788 0.29505,-0.56017 0.46563,-0.85379c0.97886,-1.65236 2.89319,-3.81288 3.88015,-5.02953c0,0 1.29538,-1.14091 2.52756,-0.64451c1.23225,0.49543 1.66179,2.63677 1.40972,3.55851c-0.25289,0.9218 -1.36565,5.43877 -2.84774,6.93674z" data-paper-data="{&quot;index&quot;:null}" fill="#be1e2d" stroke="#231f20" stroke-width="0.78672" stroke-linecap="round" stroke-linejoin="round"/><path d="M243.41712,218.37311c1.58852,-0.36255 3.48249,0.19052 3.48249,0.19052c0,0 0.56352,5.14042 0.71993,6.99781c0.15726,1.86013 0.96318,4.79947 0.96318,4.79947c0,0 0.47234,0.31539 0.29273,1.06154c-0.18323,0.74416 -1.86944,0.79843 -3.996,1.07805c-2.12269,0.27527 -3.82163,-0.15279 -4.11052,-0.91206c-0.29179,-0.75586 0.34894,-1.06574 0.34894,-1.06574c0,0 1.32101,-6.03013 0.54736,-8.17243c0.00426,0.0047 -0.27342,-3.51511 1.7519,-3.97715z" data-paper-data="{&quot;index&quot;:null}" fill="#be1e2d" stroke="#231f20" stroke-width="0.90024" stroke-linecap="round" stroke-linejoin="round"/><path d="M236.64665,218.57556v0v0v0v0v0c2.74608,1.42892 2.90229,4.00029 2.90304,4.00301c-0.68161,2.16632 0.81697,7.36771 0.81697,7.36771c0,0 0.65463,0.2789 0.40132,1.04693c-0.25711,0.7696 -1.93145,1.27318 -4.06908,1.08924c-2.13391,-0.18562 -3.81997,-0.1661 -4.03668,-0.90444c-0.21671,-0.73835 0.24244,-1.07246 0.24244,-1.07246c0,0 0.14769,-1.74071 0.21907,-3.6062c0.06917,-1.86025 0.04719,-6.97818 0.04719,-6.97818c0,0 1.67668,-1.88219 3.47573,-0.94561z" data-paper-data="{&quot;index&quot;:null}" fill="#be1e2d" stroke="#231f20" stroke-width="0.90024" stroke-linecap="round" stroke-linejoin="round"/><g data-paper-data="{&quot;index&quot;:null}" stroke-width="0.90024"><path d="M247.91466,212.06373v0v0v0v0v0c0.26046,2.79516 -0.69586,7.86403 -4.01719,9.48027c-3.28491,1.59499 -6.65025,1.17316 -10.02008,-1.37561c-2.79198,-2.11246 -2.4083,-7.69606 -1.92905,-10.80552v0c0,0 0.42648,-7.2308 6.64692,-7.78415c6.21851,-0.55336 8.77132,5.15248 9.05351,8.64039c0.11572,0.61758 0.20897,1.24645 0.2659,1.84463z" fill="#be1e2d" stroke="#000000" stroke-linecap="butt" stroke-linejoin="miter"/><path d="M245.76649,219.91532v0v0v0v0v0l-0.02331,0.14076c-0.50959,0.61911 -1.12191,1.13432 -1.84471,1.48617c-3.04275,1.47771 -6.15315,1.22537 -9.27349,-0.846l-0.02539,-0.14432c0,0 -1.19166,-9.29075 4.77594,-9.37622c6.77615,-0.09395 6.5199,7.20344 6.39097,8.7396z" fill="#e6e7e8" stroke="#231f20" stroke-linecap="round" stroke-linejoin="round"/></g><g data-paper-data="{&quot;index&quot;:null}" stroke="#000000" stroke-linecap="butt" stroke-linejoin="miter"><g><g stroke-width="0.4"><path d="M215.01029,234.43737c-0.11177,-0.03042 -0.47608,-0.15206 -0.50447,-0.44045c-0.02747,-0.28745 0.28791,-0.44104 0.39112,-0.49172c0.0991,-0.02455 1.72787,-0.17472 3.41847,-1.20023c-0.15147,-0.1373 -0.29451,-0.27143 -0.431,-0.40427c-0.71503,0.60546 -2.61611,1.18796 -4.08194,1.25077c-0.19562,-0.04735 -0.55237,-0.18837 -0.56555,-0.47607c-0.01122,-0.28856 0.31291,-0.42675 0.41967,-0.47255c0.0998,-0.0189 1.7644,-0.08111 3.52712,-1.04144c-0.16065,-0.18464 -0.30907,-0.36777 -0.44346,-0.54464c-0.64836,0.54192 -2.66992,1.057 -4.19191,1.03937c-0.19228,-0.05845 -0.54155,-0.21699 -0.53749,-0.50669c0.00402,-0.28975 0.33579,-0.4079 0.44417,-0.44706c0.10336,-0.01406 1.85573,0.02061 3.72484,-0.91707c-0.09783,-0.16581 -0.18796,-0.33317 -0.2705,-0.50016c-0.68335,0.43618 -2.47787,0.77391 -3.92819,0.70795c-0.09398,-0.00428 -0.18692,-0.01035 -0.27689,-0.01822c-0.18685,-0.07229 -0.52246,-0.25831 -0.49661,-0.54707c0.02576,-0.28681 0.36502,-0.38119 0.47586,-0.41273l0.24532,0.00175c0.43661,0.01985 1.9609,0.02918 3.61345,-0.66972c-0.06077,-0.20637 -0.10253,-0.39122 -0.1303,-0.55011c-0.79339,0.40959 -2.43232,0.69532 -3.77538,0.63424c-0.09398,-0.00428 -0.18595,-0.01035 -0.27689,-0.01822c-0.18685,-0.07229 -0.52342,-0.25836 -0.49757,-0.54711c0.02577,-0.28686 0.36502,-0.38119 0.47681,-0.41274l0.24236,0.00356c0.44805,0.02038 2.04091,0.02715 3.74259,-0.7258l0.04465,-0.01956c0.11065,-0.25111 0.48284,-0.41993 0.64563,-0.48387l0.30612,-0.11833l0.01817,0.32354c0.17731,3.1455 3.6509,5.91459 3.68572,5.94339l0.31376,0.24693l-1.1444,0.47054l-0.10306,-0.09475c-0.67686,0.62316 -2.53776,1.30318 -3.9938,1.4415l-0.04405,0.00551z" fill="#871212"/><path d="M216.10094,226.4482c0,0 -0.68886,0.26889 -0.49284,0.51052c0,0 -0.00139,0.01024 -0.00322,0.02891c-0.08134,-0.03091 -0.17235,-0.0369 -0.18277,-0.03737c-0.00095,-0.00004 -0.00095,-0.00004 -0.00095,-0.00004c-1.73374,0.7674 -3.34038,0.76941 -3.85103,0.74618c-0.10817,-0.00492 -0.16684,-0.01137 -0.16684,-0.01137c-0.67267,0.18709 -0.02333,0.49904 -0.02333,0.49904c0.08806,0.00774 0.17722,0.01369 0.26737,0.01778c1.57275,0.07153 3.53196,-0.35071 3.92882,-0.783c0.01112,-0.01452 0.0143,-0.02094 0.02443,-0.03363c0.01692,0.26821 0.0787,0.65569 0.24374,1.13419c-0.03305,-0.00528 -0.06049,-0.00837 -0.07186,-0.00889c-0.00383,-0.00017 -0.00569,-0.00026 -0.00569,-0.00026c-1.73178,0.7656 -3.33651,0.76769 -3.84903,0.74439c-0.11008,-0.00501 -0.16972,-0.0115 -0.16972,-0.0115c-0.67276,0.18897 -0.02341,0.50093 -0.02341,0.50093c0.08806,0.00774 0.17722,0.01369 0.26737,0.01778c1.57275,0.07153 3.53196,-0.35071 3.92882,-0.783c0.03111,-0.03426 0.04666,-0.06262 0.067,-0.09079c0.13118,0.30809 0.30376,0.64433 0.53423,1.00475c-0.02003,0.00098 -0.03426,0.00033 -0.03426,0.00033c-2.02532,1.08442 -3.95088,1.03158 -3.95088,1.03158c-0.65593,0.23566 0.01472,0.49888 0.01472,0.49888c1.61615,0.01813 3.74358,-0.58504 4.127,-1.07516c0.0344,-0.04441 0.05323,-0.08017 0.07288,-0.11397c0.22115,0.31497 0.49011,0.64524 0.80227,0.98782c-1.93207,1.14405 -3.80268,1.19778 -3.80268,1.19778c-0.64244,0.27291 0.04225,0.50012 0.04225,0.50012c1.61358,-0.06922 3.70457,-0.78753 4.05942,-1.29776c0.01529,-0.02184 0.01977,-0.03662 0.03117,-0.05581c0.24692,0.25141 0.52034,0.50684 0.8248,0.77028c-1.85693,1.22529 -3.70465,1.37957 -3.70465,1.37957c-0.6269,0.30645 0.07004,0.49577 0.07004,0.49577c1.60712,-0.15584 3.65573,-0.98495 3.98289,-1.51236c0.00825,-0.01465 0.00952,-0.02116 0.01677,-0.03396l0.16966,0.15594l0.63235,-0.26111c0,0 -3.58999,-2.82226 -3.77481,-6.11259M216.53858,225.77381l0.03638,0.64625c0.17088,3.03917 3.56272,5.74638 3.59667,5.77325l0.62752,0.49391l-0.74099,0.30499l-0.63226,0.25929l-0.28323,0.11752l-0.05379,-0.05031c-0.83993,0.63266 -2.66471,1.23173 -3.96988,1.35721l-0.08699,0.00918l-0.0845,-0.02354c-0.14846,-0.03958 -0.63535,-0.20433 -0.67762,-0.64252c-0.02004,-0.20268 0.05447,-0.49389 0.52273,-0.72401l0.0477,-0.02316c-0.36047,0.06054 -0.70951,0.10003 -1.02692,0.11465l-0.08765,0.00258l-0.08338,-0.02723c-0.14611,-0.04889 -0.62237,-0.23848 -0.64179,-0.67751c-0.00843,-0.20587 0.08113,-0.49357 0.56147,-0.69692l0.08339,-0.03467l0.08964,-0.00433c0.0162,-0.00116 1.46939,-0.05707 3.07732,-0.86024c-0.04142,-0.05064 -0.08187,-0.10035 -0.12142,-0.14996c-0.88478,0.55364 -2.81023,0.96613 -4.14593,0.95136l-0.08846,-0.00025l-0.08202,-0.03563c-0.14194,-0.05621 -0.60741,-0.27347 -0.60121,-0.71135c0.0029,-0.20442 0.10935,-0.48762 0.59985,-0.66324l0.08512,-0.03086l0.09024,0.00222c0.01616,0.00073 1.57667,0.02857 3.30043,-0.76933c-0.01412,-0.02408 -0.02713,-0.05093 -0.04119,-0.07507c-0.88478,0.43075 -2.56464,0.67711 -3.83844,0.61918c-0.09679,-0.0044 -0.19259,-0.01064 -0.28636,-0.01864l-0.08812,-0.00779l-0.07907,-0.03828c-0.13859,-0.06635 -0.58637,-0.31566 -0.54686,-0.7539c0.0181,-0.20373 0.14591,-0.47655 0.64817,-0.61885l0.08765,-0.02323l0.08989,0.00976c0.00664,0.00031 0.05684,0.00443 0.14322,0.00835c0.40722,0.01852 1.78695,0.0269 3.31785,-0.57245c-0.00564,-0.02184 -0.01123,-0.0446 -0.01601,-0.06451c-0.92371,0.36798 -2.44188,0.57383 -3.61601,0.52044c-0.09679,-0.0044 -0.19254,-0.01065 -0.28636,-0.01864l-0.08812,-0.00779l-0.07907,-0.03828c-0.13859,-0.06635 -0.58637,-0.31566 -0.54686,-0.7539c0.0181,-0.20373 0.14596,-0.47654 0.64903,-0.61691l0.08765,-0.02323l0.08998,0.00787c0.00569,0.00026 0.0549,0.00623 0.14032,0.01012c0.43183,0.01964 1.96286,0.02732 3.6059,-0.69166c0.16855,-0.26913 0.51499,-0.43632 0.73007,-0.52033l0.61233,-0.23959zM214.99084,233.24586c0.20082,-0.02277 1.50419,-0.19057 2.93188,-0.98408c-0.01467,-0.01196 -0.02835,-0.02478 -0.04198,-0.03852c-0.62517,0.43321 -1.79129,0.81927 -2.8899,1.02261z" fill="#000000"/></g><path d="M244.50303,213.15989l-3.2517,0.31748c-2.96418,-0.11416 -8.70861,3.16731 -11.05136,9.3535c-2.34284,6.18801 -10.79497,10.33898 -10.79497,10.33898c-4.65595,-3.8474 -3.76922,-6.70055 -3.76922,-6.70055c9.91696,-4.43622 8.45466,-8.7632 13.04332,-12.81688c4.58858,-4.05178 10.36217,-3.3595 10.36217,-3.3595z" fill="#ba2915" stroke-width="0.4"/><g fill="#871212" stroke-width="0.4"><path d="M219.61688,224.3845c-0.25055,1.98234 3.78751,6.30925 3.78751,6.30925l-1.13358,0.82942c-4.45,-2.45322 -4.04317,-6.29366 -4.04317,-6.29366z"/><path d="M222.97123,221.46347c0.43391,3.06895 4.60599,5.58739 4.60599,5.58739l-1.36896,1.30664c-4.27495,-2.65731 -4.41355,-5.63402 -4.41355,-5.63402z"/><path d="M224.94749,218.66172c0.72908,2.00435 5.46417,3.70962 5.46417,3.70962l-0.71155,1.6499c-4.53897,-1.26192 -5.40865,-4.30849 -5.40865,-4.30849z"/><path d="M227.64985,214.67143c0.47328,1.08736 5.33615,3.519 5.33615,3.519l-1.06347,1.34396c-4.47452,-1.15489 -5.17107,-3.75356 -5.17107,-3.75356z"/><path d="M231.43616,211.78875c0.33555,-0.09734 5.61533,2.69479 5.61533,2.69479l-1.65548,1.31235l-5.59306,-3.02874c0,0 1.29767,-0.88108 1.63322,-0.97841z"/><path d="M234.9542,210.77973l2.27168,-0.55531l4.55977,3.19748l-2.24168,0.23958l-4.58977,-2.88176"/></g><path d="M219.37112,233.44698l-0.11908,-0.09736c-4.72182,-3.90389 -3.88226,-6.82674 -3.84322,-6.94975l0.03135,-0.10087l0.09716,-0.04339c6.3331,-2.83253 7.97483,-5.62038 9.56181,-8.31505c0.8689,-1.47572 1.76689,-3.00264 3.42164,-4.46231c3.90803,-3.45133 8.70014,-3.51485 10.07546,-3.45229c0.30469,0.01386 0.47401,0.0347 0.47401,0.0347l6.23679,3.2569l-4.03239,0.39362c-3.0516,-0.11629 -8.62862,3.32853 -10.85305,9.2011c-2.34923,6.20275 -10.56279,10.29604 -10.91137,10.46788l-0.13912,0.06687zM215.84309,226.63256c-0.08778,0.51486 -0.26825,3.01174 3.59407,6.25633c1.09856,-0.56925 8.41997,-4.54087 10.54024,-10.13944c2.3894,-6.30884 8.18777,-9.62538 11.28302,-9.50619l2.43953,-0.23992l-4.75054,-2.4941c-0.009,0.009 -0.15386,-0.00511 -0.37499,-0.01611c-1.32977,-0.06048 -5.96394,0.00176 -9.73599,3.33265c-1.59833,1.41159 -2.43834,2.83885 -3.3279,4.34834c-1.61589,2.74401 -3.28651,5.58031 -9.66744,8.45847z" fill="#000000" stroke-width="0.4"/><path d="M215.79583,226.6494c6.38092,-2.87816 8.06032,-5.76311 9.6762,-8.50711c0.88956,-1.50949 1.76231,-2.95414 3.36065,-4.36573c3.77205,-3.33089 8.4428,-3.38303 9.77256,-3.32256c0.22113,0.01099 0.36681,0.02576 0.37581,0.01676l4.76137,2.50612l-2.52233,0.29596c-3.09525,-0.11919 -8.84319,3.21631 -11.23258,9.52515c-2.12027,5.59857 -9.48559,9.55833 -10.58415,10.12759c-3.86232,-3.24459 -3.69532,-5.76133 -3.60755,-6.2762z" data-paper-data="{&quot;noHover&quot;:true,&quot;origItem&quot;:[&quot;Path&quot;,{&quot;applyMatrix&quot;:true,&quot;segments&quot;:[[[431.94081,453.0728],[0,0],[-0.17472,1.03898]],[[439.09485,465.69792],[-7.688,-6.5475],[2.1867,-1.14874]],[[460.07531,445.23676],[-4.22042,11.29778],[4.75612,-12.7311]],[[482.53429,426.05348],[-6.16114,-0.24052],[0,0]],[487.39021,425.56932],[[477.93421,420.53628],[0,0],[-0.01792,0.01816]],[[477.18779,420.50378],[0.44016,0.02218],[-2.64692,-0.12204]],[[457.80819,427.229],[7.5083,-6.72166],[-3.1815,2.84856]],[[451.18397,436.00386],[1.77068,-3.04612],[-3.21644,5.53734]],[[431.94083,453.07286],[12.7013,-5.80806],[0,0]]],&quot;closed&quot;:true,&quot;fillColor&quot;:[0,0,0,1],&quot;strokeColor&quot;:[0,0,0],&quot;strokeWidth&quot;:0.4}]}" fill="#000000" stroke-width="0.2"/></g><g stroke-width="0.4"><path d="M252.63913,205.555c1.8518,1.08159 0.55325,3.42625 0.55325,3.42625c3.43384,1.56354 2.27312,3.50353 2.27312,3.50353c-1.90608,-1.20222 -3.68892,0.06677 -9.0894,0.93579c-5.39957,0.86901 -10.78307,-1.83962 -10.78307,-1.83962c9.88216,-9.2265 17.04514,-6.026 17.0461,-6.02595z" fill="#ba2915"/><g fill="#871212"><path d="M243.09854,206.43647c0,0 2.69818,2.08267 1.38279,7.18779l-0.85424,-0.03885c0,0 0.98845,-4.33748 -1.33132,-6.74167z"/><path d="M247.42648,205.11248c2.17591,3.06001 1.44162,7.59768 1.44162,7.59768l-1.08428,0.22276c0.71425,-5.5331 -1.61768,-7.55502 -1.61768,-7.55502z"/><path d="M239.79373,208.19642c0,0 1.67573,2.3045 1.07052,5.07666l-0.60776,-0.12243c0,0 -0.30774,-3.83538 -1.14106,-4.44374z"/><path d="M253.73777,211.90332l-0.99755,-0.04537c0.27761,-1.86945 -1.29103,-3.37253 -1.29103,-3.37253c0.41528,-2.12875 -0.89858,-3.42415 -0.89858,-3.42415l1.34442,0.25539c0.58161,0.64189 0.54105,3.17796 0.59814,3.34008c1.40671,1.06035 1.24555,3.24662 1.24459,3.24658z"/></g><path d="M255.66918,212.6038l-0.12484,0.20917l-0.20794,-0.13047c-1.13185,-0.71293 -2.32659,-0.46799 -4.53815,0.06288c-1.13994,0.27371 -2.55879,0.61356 -4.38359,0.9077c-0.94685,0.15208 -1.95565,0.20471 -3.00163,0.15714c-4.25126,-0.19335 -7.89153,-2.00173 -7.92779,-2.02028l-0.30015,-0.15064l0.24462,-0.2281c6.13955,-5.73107 11.25358,-6.7604 14.46461,-6.61436c1.78536,0.0812 2.79945,0.52607 2.84326,0.54497c1.5167,0.88429 1.21283,2.58273 0.77469,3.53106c1.24805,0.60751 2.01473,1.34041 2.27986,2.17998c0.27505,0.87101 -0.10642,1.52352 -0.12293,1.55094zM255.33622,211.18131c-0.22778,-0.70276 -0.94981,-1.35293 -2.06868,-1.89546c-2.0325,-0.93963 -4.06979,-0.04718 -4.06979,-0.04718c1.96105,-1.07232 3.32635,-0.79538 3.89119,-0.58768c0.253,-0.57019 0.77304,-2.11058 -0.57047,-2.89504c-0.00378,-0.00017 -0.97453,-0.41585 -2.64503,-0.49183c-3.0734,-0.13978 -7.95882,0.84083 -13.8627,6.25234c0.95212,0.42703 3.98447,1.66828 7.42518,1.82477c1.0118,0.04603 1.99011,-0.00517 2.90344,-0.15221c1.80747,-0.29026 3.21677,-0.6287 4.34802,-0.89997c2.19232,-0.52612 3.47284,-0.77468 4.66365,-0.14255c0.06309,-0.21014 0.11624,-0.55392 -0.0148,-0.96519z" fill="#000000"/></g><g stroke-width="0.4"><path d="M226.8827,203.32807c0,0 -1.1454,-0.93218 -0.50297,-1.9575c0.6424,-1.02536 1.73136,-1.42902 1.72628,-1.32038c-0.00507,0.10858 9.86791,8.90314 21.84736,0.61366l0.05607,-1.19932c0,0 4.23747,2.17705 2.62778,6.09132c0,0 -2.55864,-0.93731 -5.08699,1.52782c-2.53022,2.46503 -4.92295,7.86831 -23.12826,1.82097c0,0 -1.46071,-0.53559 -0.62432,-1.90486c0.83635,-1.36932 3.21427,-2.61036 3.08506,-3.67172z" fill="#ba2915"/><g fill="#871212"><path d="M230.02684,201.5674c-1.32079,0.90724 -0.55594,2.34938 -0.6612,2.93287c-0.10526,0.58348 -0.3081,1.89056 -1.12116,2.76178c-0.81311,0.87128 -0.97789,2.48408 -0.97789,2.48408l-1.87744,-0.53295c0.22972,-0.45866 0.24133,-1.33727 1.48521,-2.51257c1.24393,-1.17534 1.37201,-2.65379 1.37201,-2.65379c-0.70926,-2.63112 0.93564,-3.12677 0.93564,-3.12677z"/><path d="M233.42347,203.27652c0,0 -0.3265,0.413 -0.37167,1.3792c-0.04516,0.96616 0.22634,1.93363 -0.38875,2.88331c-0.6151,0.94963 -1.38374,3.29218 -1.38374,3.29218l-1.37071,-0.32412c0,0 0.07621,-0.47036 0.51383,-1.55102c0.43767,-1.0806 1.48516,-1.88021 1.36507,-3.5435c-0.12009,-1.66329 0.52921,-2.89662 0.50072,-2.65401z"/><path d="M236.96692,204.04286c-0.34583,1.29495 -0.3153,1.84147 -0.1995,3.59651c0.1158,1.75504 -0.77712,3.70349 -0.77712,3.70349l-1.32097,-0.1464c0,0 1.15805,-2.10616 0.84339,-3.84024c-0.31461,-1.73408 0.43765,-3.41964 0.4411,-3.49363z"/><path d="M239.59567,204.17178l1.23962,0.05638c0.98013,3.7956 -0.27762,4.79955 -0.27762,4.79955c0.2194,1.65467 -0.86093,2.48469 -0.86093,2.48469l-0.71094,-0.03233c1.1318,-1.3202 0.54054,-2.65031 0.54054,-2.65031c0.84479,-2.16076 0.06938,-4.6589 0.06938,-4.6589z"/><path d="M244.89534,203.30196c1.53674,3.91476 0.30214,5.37946 0.35588,5.57237c0.05379,0.19291 -0.21218,0.7137 -0.21218,0.7137l-1.06077,0.63576c0.4531,-0.78067 0.25672,-1.23899 0.25672,-1.23899c0.98988,-2.98449 -0.70722,-5.30031 -0.70722,-5.30031z"/><path d="M248.66435,201.56314c1.3972,1.05997 1.25952,4.00535 1.25952,4.00535l-1.07525,0.53752c0.54703,-2.80954 -1.07831,-4.07591 -1.07831,-4.07591z"/><path d="M250.00629,199.55256c4.64079,2.88875 2.52637,5.96102 2.52637,5.96102l0.00361,-0.36201c0.39163,-3.37293 -2.35094,-4.36273 -2.35094,-4.36273z"/></g><path d="M252.85759,205.64375l-0.08593,0.20999l-0.21512,-0.07825c-0.00373,-0.00112 -0.36678,-0.13023 -0.93814,-0.15622c-0.97099,-0.04416 -2.43692,0.20348 -3.9009,1.63057c-0.2431,0.23569 -0.48376,0.49964 -0.73828,0.77705c-1.59585,1.74477 -3.78303,4.1344 -9.99809,3.85173c-3.34295,-0.15204 -7.59326,-1.07812 -12.63419,-2.75225c-0.03748,-0.01295 -0.74694,-0.27977 -0.97553,-0.92441c-0.14189,-0.40241 -0.06692,-0.84745 0.22357,-1.32306c0.37279,-0.60889 1.00976,-1.17191 1.62594,-1.71713c0.68359,-0.6041 1.38613,-1.22704 1.42573,-1.70747c-0.00825,-0.00695 -0.01758,-0.01115 -0.02579,-0.01809l0.00856,-0.02026c-0.44472,-0.41613 -1.00214,-1.29058 -0.45121,-2.17c0.60651,-0.96972 1.62828,-1.46182 1.91112,-1.44896l0.23729,0.01078l0.00964,0.14026c0.42432,0.38426 4.35524,3.7474 10.29221,4.01742c3.78903,0.17233 7.52026,-0.98182 11.09409,-3.4294l0.06779,-1.45024l0.32973,0.16979c0.04359,0.02358 4.40948,2.32286 2.73754,6.38812zM250.22862,199.86291l-0.04325,0.925l-0.0944,0.06612c-3.692,2.55385 -7.55683,3.75821 -11.48538,3.57954c-5.54398,-0.25215 -9.6951,-3.26034 -10.56705,-4.16128c-0.19179,0.05416 -0.96072,0.42824 -1.45626,1.22101c-0.52426,0.83748 0.4122,1.62125 0.45248,1.65403l0.07333,0.05965l0.00398,0.03676c0.38231,0.30637 1.20768,0.82052 2.86461,1.30967c0,0 -1.60338,-0.02695 -2.91334,-0.8165c-0.18808,0.58445 -0.83827,1.16563 -1.52585,1.77422c-0.59033,0.52112 -1.20055,1.06098 -1.53627,1.6096c-0.21322,0.34964 -0.27435,0.66023 -0.18203,0.92336c0.15271,0.43664 0.68162,0.63898 0.68723,0.64112c4.9913,1.6578 9.19827,2.57533 12.49658,2.72535c4.4895,0.20419 6.74589,-0.98043 8.27482,-2.33138c-1.24755,0.25568 -5.07241,0.8295 -8.00597,-0.99837c0,0 4.19745,1.64986 8.59531,0.4369c0.26952,-0.27205 0.51997,-0.54302 0.76054,-0.80514c0.26063,-0.2846 0.50722,-0.55484 0.75632,-0.79683c2.14269,-2.08864 4.39313,-1.82303 5.11154,-1.64587c1.08019,-2.96352 -1.34572,-4.82647 -2.26693,-5.40692z" fill="#000000"/></g></g><g data-paper-data="{&quot;index&quot;:null}" stroke="#000000" stroke-width="0.90024" stroke-linecap="round" stroke-linejoin="round"><path d="M283.77363,181.61561l-0.43783,1.56503c-2.47773,7.92195 -6.42027,12.63831 -6.42027,12.63831c0,0 0.06304,-1.39057 -0.16067,-3.60446l-0.13478,-0.03717c-0.30593,1.19204 -0.83481,2.73773 -1.75517,4.66381c-2.01793,4.22957 -8.49433,8.07431 -8.49433,8.07431c0,0 0.32602,-1.43114 0.4392,-3.74651l-0.11644,-0.34586c-0.6904,0.59658 -1.41074,1.15023 -2.14005,1.69105c-0.21454,0.16008 -0.42921,0.3165 -0.64787,0.46869c-0.66513,0.46808 -1.34415,0.91727 -2.03933,1.34065c-0.27479,0.16553 -0.56119,0.32116 -0.8401,0.4807c-0.5087,0.29197 -1.02565,0.57006 -1.55113,0.84072c-0.38616,0.19662 -0.77508,0.39262 -1.17207,0.57741c-0.41081,0.1938 -0.83444,0.37131 -1.25495,0.55498c-0.77373,0.32898 -1.56038,0.64011 -2.3665,0.93188c-0.26301,0.09509 -0.52612,0.19017 -0.79408,0.2802c-0.57563,0.19516 -1.1561,0.38693 -1.74846,0.56168l0.00192,0.00167c-2.97336,0.88221 -6.14622,1.53458 -9.56057,1.95703c-3.69399,0.45612 -7.05808,0.62965 -10.21155,0.61027v0c-2.49537,-0.0166 -4.83963,-0.16518 -7.06689,-0.42475c-0.10769,-0.01204 -0.21645,-0.02491 -0.32504,-0.0369c-0.68885,-0.08487 -1.36739,-0.17834 -2.03387,-0.28327c-0.23271,-0.0383 -0.45577,-0.08156 -0.68758,-0.1216c-0.88614,-0.1502 -1.74909,-0.32162 -2.60122,-0.50801c-0.53868,-0.11829 -1.07407,-0.24045 -1.59825,-0.37305c-0.31126,-0.07619 -0.62371,-0.15687 -0.92899,-0.23879c-0.83389,-0.22686 -1.66083,-0.45852 -2.46484,-0.71405l-0.12809,0.1376c0.43042,2.07317 1.2339,3.15299 1.85243,3.6525c1.26094,1.01996 3.56965,1.1368 3.56965,1.1368c0,0 -6.94397,1.40476 -11.10147,-3.69245c-0.44174,-0.54183 -0.88839,-1.10402 -1.31676,-1.70577l-0.19004,-0.34753c-0.84622,-0.22152 -1.70907,-0.53236 -2.56786,-0.94814c-5.23779,-2.55597 -6.02452,-4.88483 -6.02452,-4.88483l0.16134,0.86155c0.63193,2.23229 1.19845,3.63079 1.19845,3.63079c0,0 -6.29067,-3.39756 -9.34777,-8.88707c-2.46514,-4.43143 -2.81526,-7.18719 -2.85955,-7.65117l-0.30985,-1.64881c-0.54865,-6.49829 -0.60745,-13.82193 -0.16208,-21.05822l0.04367,-0.19489c0.45154,-5.60057 -0.92244,-14.74637 5.93897,-24.6211c12.8578,-18.49946 27.18904,-18.7797 34.90051,-32.33992c5.67214,-9.9758 3.35147,-20.8656 3.35147,-20.8656c0,0 4.20135,5.14363 5.94262,8.20951c1.68739,2.98871 3.53302,6.8616 3.53302,6.8616l0.04927,-0.03704c0.02776,-0.11802 0.05175,-0.2384 0.07122,-0.35848c0.30144,-1.87033 -0.0398,-4.58652 -0.0398,-4.58652c0,0 4.35826,10.39684 10.74013,16.99287c6.37804,6.59279 15.07811,8.04732 27.43213,31.21799c1.53719,2.87922 2.94938,5.29513 3.79676,8.01815l0.4055,1.57223c1.26267,4.91332 1.77373,18.67325 0.17236,24.73196zM212.94283,162.59269c0,0 -6.54933,7.62111 -5.44534,17.58748c0.9768,8.81828 3.47591,11.40493 4.77187,12.01057c1.33222,0.61858 3.30152,0.07984 3.30152,0.07984c0,0 -5.45626,3.30185 -10.31537,-0.41226c-3.25002,-2.48253 -6.8216,-5.72374 -8.38452,-15.39758M272.30434,174.87604c0,0 1.02902,2.405 -0.76414,7.67815c-2.01669,5.94066 -6.9416,8.04712 -6.9416,8.04712c0,0 3.6148,-9.18389 -0.43813,-17.35317c-1.76906,-3.56923 -6.67827,-6.00351 -11.74356,-7.62255c-6.8643,-2.19605 -14.01404,-2.89368 -14.01404,-2.89368M276.64453,192.07838c-0.30141,1.20606 -0.83687,2.78881 -1.78481,4.76665c-2.01703,4.22951 -8.49343,8.07425 -8.49343,8.07425c0,0 0.94648,-4.17514 0.1715,-9.79392M198.75962,183.54305c-0.60704,1.30212 -1.04932,2.685 -1.25389,4.12911c-1.28886,9.00461 2.61219,18.59057 2.61219,18.59057c0,0 -6.28875,-3.396 -9.34778,-8.88717c-2.71201,-4.87371 -2.86401,-7.7206 -2.86401,-7.7206M283.33169,183.18716c-2.47953,7.92207 -6.42117,12.63837 -6.42117,12.63837c0,0 0.36916,-7.90105 -3.69115,-16.07076c-0.18319,-0.3694 -0.38656,-0.72682 -0.59997,-1.07288M238.40377,162.73183c0,0 1.21902,0.23855 4.54159,2.52438c3.32266,2.28583 4.66025,4.9227 4.66025,4.9227c0,0 -9.49539,-1.84289 -14.78399,-3.35413c-5.28331,-1.51337 -23.01468,-5.10631 -23.01468,-5.10631M211.20067,201.51856c2.78399,3.76511 5.55529,5.73493 5.55529,5.73493c0,0 -6.07394,2.27923 -11.97318,-0.59659c-5.23779,-2.55587 -6.02452,-4.88483 -6.02452,-4.88483M266.68738,200.82881c-6.35207,5.48469 -14.29277,8.47421 -24.10675,9.68807c-11.7004,1.4471 -20.3949,0.29086 -27.91552,-2.09031M214.42325,207.92129c0.38324,2.4954 1.28462,3.74528 1.96422,4.2928c1.26185,1.0199 3.57055,1.13674 3.57055,1.13674c0,0 -6.94577,1.40488 -11.10237,-3.69239c-0.44174,-0.54183 -0.88839,-1.10402 -1.31676,-1.70577M239.10084,162.9869c0,0 25.78272,1.47985 26.66719,15.25399" fill="#be1e2d"/><path d="M271.16519,183.88382c-0.31813,9.96574 -11.19942,21.02233 -28.03223,23.05207c-14.86007,1.80003 -37.32761,-3.43878 -41.30831,-15.42192c-0.3964,-1.20456 -0.64109,-2.3765 -0.76008,-3.50981l0.33908,0.21308c1.23699,1.56408 2.56835,2.66455 3.85199,3.64288c4.85899,3.71233 10.31525,0.41049 10.31525,0.41049c0,0 -1.96919,0.54052 -3.30141,-0.07806c-1.29596,-0.60565 -3.79507,-3.1923 -4.77187,-12.01057c-1.1041,-9.96815 5.44534,-17.58748 5.44534,-17.58748l0.00962,-0.23129c5.33869,1.10583 15.97715,3.34672 19.86727,4.46172c5.28866,1.51214 14.78399,3.35413 14.78399,3.35413c0,0 -1.33759,-2.63687 -4.66025,-4.9227c-1.66311,-1.1432 -2.79759,-1.77413 -3.51589,-2.11993l0.65644,0.05998c0,0 19.91103,1.64371 24.07816,10.05163c4.05208,8.17022 0.43903,17.35312 0.43903,17.35312c0,0 4.19355,-1.79521 6.42131,-6.73612z" fill="#e6e7e8"/></g><path d="M227.07207,181.9888v0v0v0v0v0c0.73222,0.15356 1.1974,0.86295 1.03981,1.58533c-0.15557,0.72404 -0.87113,1.18266 -1.60855,1.03299c-0.04231,-0.00987 -4.31509,-0.87384 -8.34578,0.56342c-0.12406,0.0435 -0.24841,0.07004 -0.37385,0.07788c-0.58671,0.03666 -1.15288,-0.31061 -1.36263,-0.88212c-0.12392,-0.33378 -0.09585,-0.68689 0.0406,-0.99045c-0.26777,-0.20323 -0.52601,-0.47132 -0.71721,-0.85105c-0.22398,-0.44014 -0.0428,-0.9771 0.40526,-1.19735c0.44401,-0.21454 0.98961,-0.04485 1.21482,0.39889c0.17856,0.3536 0.63478,0.42967 0.64031,0.43111c0.13465,0.02108 0.25496,0.07434 0.36017,0.14642c0.1319,-0.03595 0.26454,-0.07284 0.39487,-0.10332c-0.15224,-0.19784 -0.29617,-0.42133 -0.39218,-0.70144c-0.15874,-0.46835 0.09718,-0.97164 0.57193,-1.12911c0.47808,-0.16214 0.98696,0.09752 1.14469,0.56415c0.12634,0.37295 0.55712,0.51854 0.56085,0.5201c0.20018,0.05374 0.35315,0.17824 0.46902,0.33009c3.22395,-0.35068 5.8108,0.17342 5.95787,0.20445z" data-paper-data="{&quot;index&quot;:null}" fill="#231f20" stroke="none" stroke-width="0.90024" stroke-linecap="butt" stroke-linejoin="miter"/><path d="M259.30566,178.87354v0v0v0v0v0c-0.10793,0.80418 -0.56039,1.30893 -0.93652,1.61943c0.11624,0.24399 0.18546,0.51593 0.13302,0.80164c-0.13368,0.72625 -0.82298,1.21282 -1.57653,1.08015c-2.85595,-0.50818 -6.51261,-0.52909 -7.19749,0.25215c-0.24745,0.28091 -0.58552,0.4362 -0.93668,0.45813c-0.34575,0.02161 -0.69618,-0.08621 -0.97724,-0.32694c-0.56573,-0.48324 -0.62721,-1.32779 -0.13571,-1.8878c1.32357,-1.50587 4.31122,-1.65589 6.71978,-1.49533c0.11007,-0.10609 0.28211,-0.31972 0.2822,-0.60047c-0.00602,-0.4904 0.35674,-0.9244 0.89286,-0.90238c0.49897,-0.00614 0.90758,0.3867 0.91483,0.8806c0.00185,0.31101 -0.05895,0.57768 -0.1402,0.82229c0.11977,0.01665 0.23395,0.03096 0.34119,0.04849c0.0847,-0.1484 0.19397,-0.28124 0.35904,-0.36484c0.02436,-0.01582 0.41167,-0.23675 0.46482,-0.6227c0.06834,-0.48789 0.51448,-0.83852 1.01673,-0.76533c0.49463,0.06741 0.84141,0.51339 0.77589,1.0029z" data-paper-data="{&quot;index&quot;:null}" fill="#231f20" stroke="none" stroke-width="0.90024" stroke-linecap="butt" stroke-linejoin="miter"/><g data-paper-data="{&quot;index&quot;:null}" stroke-linejoin="miter"><path d="M192.86644,173.76019c0.67185,12.84598 -0.45047,23.34454 -5.80753,23.61715c-5.35709,0.2726 -13.92374,-9.73292 -14.59559,-22.57891c-0.67185,-12.84598 6.80554,-23.66794 12.16262,-23.94053c5.35709,-0.2726 7.56866,10.0563 8.24052,22.90229z" fill="url(#color-1)" stroke="#000000" stroke-width="0.90024" stroke-linecap="butt"/><path d="M180.01301,156.75588l-1.95989,2.92585" fill="none" stroke="#ea42a4" stroke-width="2" stroke-linecap="round"/><path d="M185.07423,163.97565l3.37173,-0.54197" fill="none" stroke="#ea42a4" stroke-width="2" stroke-linecap="round"/><path d="M180.65201,171.71562l0.30413,-1.85638" fill="none" stroke="#ea42a4" stroke-width="2" stroke-linecap="round"/><path d="M179.53247,179.72807l1.7762,2.12448" fill="none" stroke="#ea42a4" stroke-width="2" stroke-linecap="round"/><path d="M189.68581,185.72768l1.5867,-0.25505" fill="none" stroke="#ea42a4" stroke-width="2" stroke-linecap="round"/><path d="M184.56719,194.18208l-1.84969,-0.10435" fill="none" stroke="#ea42a4" stroke-width="2" stroke-linecap="round"/><path d="M178.385,186.33916l-1.41185,-2.38389" fill="none" stroke="#ea42a4" stroke-width="2" stroke-linecap="round"/><path d="M174.47123,172.50829l1.51323,1.76509" fill="none" stroke="#ea42a4" stroke-width="2" stroke-linecap="round"/><path d="M175.56287,163.0945l0.25857,1.5651" fill="none" stroke="#ea42a4" stroke-width="2" stroke-linecap="round"/><path d="M185.46066,157.68771l2.32424,-3.18526" fill="none" stroke="#ea42a4" stroke-width="2" stroke-linecap="round"/></g><g data-paper-data="{&quot;index&quot;:null}" stroke-linejoin="miter"><path d="M283.93694,143.0193c5.36329,-0.09813 13.59065,10.18068 13.83254,23.04155c0.24187,12.86086 -7.59336,23.43361 -12.95665,23.53175c-5.36329,0.09813 -7.22823,-10.29711 -7.4701,-23.15796c-0.24187,-12.86086 1.23093,-23.31718 6.59422,-23.41531z" fill="url(#color-2)" stroke="#000000" stroke-width="0.90025" stroke-linecap="butt"/><path d="M291.1201,151.36742l-2.1628,-2.78328" fill="none" stroke="#ea42a4" stroke-width="2" stroke-linecap="round"/><path d="M281.01918,155.82811l3.40194,0.30771" fill="none" stroke="#ea42a4" stroke-width="2" stroke-linecap="round"/><path d="M288.94682,161.72048l0.43517,1.8308" fill="none" stroke="#ea42a4" stroke-width="2" stroke-linecap="round"/><path d="M289.44668,173.7087l1.62101,-2.24197" fill="none" stroke="#ea42a4" stroke-width="2" stroke-linecap="round"/><path d="M281.36524,178.153l-1.60091,-0.14482" fill="none" stroke="#ea42a4" stroke-width="2" stroke-linecap="round"/><path d="M288.90926,186.0012l-1.83773,0.23187" fill="none" stroke="#ea42a4" stroke-width="2" stroke-linecap="round"/><path d="M292.68171,177.98232l1.23913,-2.47557" fill="none" stroke="#ea42a4" stroke-width="2" stroke-linecap="round"/><path d="M294.21969,165.78034l1.38419,-1.8653" fill="none" stroke="#ea42a4" stroke-width="2" stroke-linecap="round"/><path d="M293.84655,154.59979l-0.14682,1.57913" fill="none" stroke="#ea42a4" stroke-width="2" stroke-linecap="round"/><path d="M281.0445,146.87313l2.54468,3.01688" fill="none" stroke="#ea42a4" stroke-width="2" stroke-linecap="round"/></g><path d="M231.54357,190.44511c0,0 1.10296,-1.31222 5.87342,-1.72074c4.76966,-0.40465 8.43246,0.01143 8.43246,0.01143c0,0 0.60131,8.67371 -5.87051,9.1858c-6.47717,0.51407 -8.43537,-7.47649 -8.43537,-7.47649z" fill="#58595b" stroke="#231f20" stroke-width="0.9025" stroke-linecap="round" stroke-linejoin="miter"/><g stroke-linejoin="miter"><g stroke-linecap="butt"><g stroke="#000000" stroke-width="1"><path d="M251.20252,213.57268h56.68196v23.68616h-56.68196z" fill="url(#color-3)"/><path d="M256.23074,209.23022h56.68196l-5.02824,4.34247h-56.68197z" fill="#9966ff"/><path d="M308.13958,213.54622l4.79969,-4.14507l-0.68568,24.08094l-4.57113,3.849z" fill="url(#color-4)"/></g><path d="M305.33857,214.40952c0.44887,0 0.81274,0.15713 0.81274,0.35096c0,0.19383 -0.36388,0.35095 -0.81274,0.35095c-0.44887,0 -0.81275,-0.15712 -0.81275,-0.35095c0,-0.19383 0.36389,-0.35096 0.81275,-0.35096z" fill="#b9b9b9" stroke="none" stroke-width="0.5"/><path d="M304.97735,235.93426c0.44887,0 0.81274,0.15712 0.81274,0.35095c0,0.19383 -0.36388,0.35095 -0.81274,0.35095c-0.44887,0 -0.81275,-0.15712 -0.81275,-0.35095c0,-0.19383 0.36389,-0.35095 0.81275,-0.35095z" fill="#b9b9b9" stroke="none" stroke-width="0.5"/><path d="M253.14265,236.24622c0.44886,0 0.81274,0.15713 0.81274,0.35095c0,0.19383 -0.36389,0.35095 -0.81274,0.35095c-0.44886,0 -0.81274,-0.15712 -0.81274,-0.35095c0,-0.19383 0.36389,-0.35095 0.81274,-0.35095z" fill="#b9b9b9" stroke="none" stroke-width="0.5"/><path d="M252.60082,214.25354c0.44886,0 0.81274,0.15712 0.81274,0.35095c0,0.19383 -0.36389,0.35095 -0.81274,0.35095c-0.44886,0 -0.81274,-0.15712 -0.81274,-0.35095c0,-0.19383 0.36389,-0.35095 0.81274,-0.35095z" fill="#b9b9b9" stroke="none" stroke-width="0.5"/></g><g stroke="#000000" stroke-width="1" stroke-linecap="butt"><path d="M255.88779,225.35797c0,-5.11508 4.2974,-9.26167 9.59849,-9.26167c5.30109,0 9.59849,4.1466 9.59849,9.26167c0,5.11508 -4.2974,9.26167 -9.59849,9.26167c-5.30109,0 -9.59849,-4.1466 -9.59849,-9.26167z" fill="#8499b1"/><path d="M259.1787,225.7549c0,-2.99597 2.51704,-5.42469 5.62197,-5.42469c3.10492,0 5.62197,2.42872 5.62197,5.42469c0,2.99597 -2.51705,5.42468 -5.62197,5.42468c-3.10492,0 -5.62197,-2.42871 -5.62197,-5.42468z" fill="#92c5ff"/></g><g stroke="#000000" stroke-width="1" stroke-linecap="butt"><path d="M280.32031,225.39305c0,-5.11508 4.2974,-9.26167 9.59849,-9.26167c5.30109,0 9.59849,4.1466 9.59849,9.26167c0,5.11508 -4.2974,9.26167 -9.59849,9.26167c-5.30109,0 -9.59849,-4.1466 -9.59849,-9.26167z" fill="#8499b1"/><path d="M283.61121,225.78999c0,-2.99597 2.51705,-5.42469 5.62197,-5.42469c3.10492,0 5.62197,2.42872 5.62197,5.42469c0,2.99597 -2.51705,5.42469 -5.62197,5.42469c-3.10492,0 -5.62197,-2.42871 -5.62197,-5.42469z" fill="#92c5ff"/></g><path d="M300.24444,211.28772l4.07209,-18.24269" fill="none" stroke="#000000" stroke-width="2" stroke-linecap="round"/></g></g></g></svg>