<svg version="1.1" xmlns="http://www.w3.org/2000/svg" xmlns:xlink="http://www.w3.org/1999/xlink" width="132.5429" height="154.33844" viewBox="0,0,132.5429,154.33844"><defs><linearGradient x1="190.16529" y1="142.91663" x2="193.53192" y2="189.56065" gradientUnits="userSpaceOnUse" id="color-1"><stop offset="0" stop-color="#cc2981"/><stop offset="1" stop-color="#a92292"/></linearGradient><linearGradient x1="300.18014" y1="144.46414" x2="291.7649" y2="190.46612" gradientUnits="userSpaceOnUse" id="color-2"><stop offset="0" stop-color="#cc2981"/><stop offset="1" stop-color="#a92292"/></linearGradient><linearGradient x1="279.40136" y1="213.14455" x2="279.40136" y2="237.25756" gradientUnits="userSpaceOnUse" id="color-3"><stop offset="0" stop-color="#9966ff"/><stop offset="1" stop-color="#66ebff"/></linearGradient><linearGradient x1="309.62405" y1="208.89783" x2="309.62405" y2="237.33109" gradientUnits="userSpaceOnUse" id="color-4"><stop offset="0" stop-color="#9966ff"/><stop offset="1" stop-color="#66ebff"/></linearGradient><radialGradient cx="227.45978" cy="191.92615" r="5.02555" gradientUnits="userSpaceOnUse" id="color-5"><stop offset="0" stop-color="#54606d"/><stop offset="1" stop-color="#2c3136"/></radialGradient></defs><g transform="translate(-180.94531,-84.11075)"><g data-paper-data="{&quot;isPaintingLayer&quot;:true}" fill-rule="nonzero" stroke-miterlimit="10" stroke-dasharray="" stroke-dashoffset="0" style="mix-blend-mode: normal"><g data-paper-data="{&quot;index&quot;:null}" stroke="#000000" stroke-width="0.90024" stroke-linecap="round" stroke-linejoin="miter"><path d="M279.26689,162.59402c0,0 3.9707,-13.01697 4.22668,-13.66494c0.25592,-0.64784 1.73014,-6.38899 10.87396,-12.34369c0,0 6.64198,30.90043 -5.06172,44.07982c-0.00038,-0.00082 -2.3071,-8.65478 -10.03891,-18.07119zM279.42833,162.79316c-0.62072,-0.78721 -1.9823,-2.05517 -1.9823,-2.05517M289.59479,183.13592c0,0 -0.05717,-1.60202 -0.28938,-2.47152" fill="#be1e2d"/><path d="M293.11605,173.56471c0,0 -1.99005,-0.44992 -3.87506,-4.08419c-1.17297,-2.25263 -2.10217,-6.91968 -2.10217,-6.91968l-0.01977,0.17174c0.29858,-1.03847 0.57451,-2.21818 0.74779,-3.45266c0.29497,-2.0891 0.39479,-5.06381 0.40926,-7.95744l0.02093,-0.40736c0,0 0.9544,-5.66858 6.80686,-9.03495l0.08801,0.00593c0.68042,4.84957 1.46699,12.06 1.11404,17.39695c-0.39572,5.98664 -1.80603,10.8533 -3.25733,14.41893l0.06744,-0.13726v0v0v0v0v0zM285.76706,166.26828c0,0 1.17454,-3.08278 1.37177,-3.70745" fill="#929497"/></g><g data-paper-data="{&quot;index&quot;:null}" stroke="#000000" stroke-width="0.90024" stroke-linecap="round" stroke-linejoin="miter"><path d="M197.17555,180.32712c-10.55014,-14.11873 -1.32679,-44.34922 -1.32679,-44.34922c8.60889,6.70522 9.59384,12.55021 9.79469,13.21654c0.20079,0.66642 3.05958,13.97262 3.05958,13.97262c-8.49937,8.73139 -11.52748,17.16006 -11.52748,17.16006zM210.67257,161.47141c0,0 -1.46362,1.14866 -2.14842,1.88079M197.17555,180.32712c-0.30477,0.84677 -0.49672,2.43832 -0.49672,2.43832" fill="#be1e2d"/><path d="M194.03268,173.0739c-1.14509,-3.67607 -2.13929,-8.64385 -2.03021,-14.64225c0.09747,-5.34815 1.49,-12.46611 2.57676,-17.24109l0.08828,0.00156c5.54814,3.849 6.02091,9.57664 6.02091,9.57664l-0.01348,0.40767c-0.22963,2.8845 -0.38086,5.85709 -0.26306,7.96362c0.06858,1.2447 0.24409,2.44347 0.45405,3.50341l-0.00522,-0.1728c0,0 -1.31935,4.5721 -2.67815,6.71777c-2.1846,3.46247 -4.20559,3.74297 -4.20559,3.74297zM200.8607,162.47067c0.14385,0.63908 1.05433,3.80989 1.05433,3.80989" fill="#929497"/></g><path d="M198.74252,142.40506c0,0 4.18567,-39.17049 52.00537,-37.64883c32.81377,1.04416 42.96195,40.14054 42.96195,40.14054" data-paper-data="{&quot;index&quot;:null}" fill="none" stroke="#000000" stroke-width="7" stroke-linecap="round" stroke-linejoin="miter"/><path d="M234.41769,212.75103v0v0v0v0v0c-1.84457,-0.16824 -5.26202,-1.05615 -6.16741,-1.74157c0,0 -3.4206,-2.84219 -2.33014,-5.01031c0.46559,-0.92663 1.33142,-1.36676 2.48995,-1.43477c0.11525,-0.40054 0.36229,-0.9591 0.93463,-1.22794c0.94851,-0.4473 1.77679,1.58308 1.77679,1.58308l-0.01889,0.00081c0.30635,0.08507 0.61212,0.17548 0.93585,0.28492c1.82914,0.62484 4.33777,2.06554 5.73493,2.78828c0,0 1.23035,0.59391 1.2667,2.18813c0.03894,1.696 -2.77788,2.73759 -4.62243,2.56934z" data-paper-data="{&quot;index&quot;:null}" fill="#be1e2d" stroke="#231f20" stroke-width="0.78672" stroke-linecap="round" stroke-linejoin="round"/><path d="M257.66292,216.72996v0v0v0v0c0,0 -3.35189,2.92256 -5.31685,1.49529c-0.84387,-0.60364 -1.13559,-1.53249 -1.02078,-2.68745c-0.37957,-0.17687 -0.88795,-0.5081 -1.06364,-1.11707c-0.29035,-1.00632 1.84597,-1.50386 1.84597,-1.50386l-0.00211,0.01796c0.13461,-0.28569 0.27201,-0.57594 0.43042,-0.87841c0.91031,-1.70295 2.73153,-3.95356 3.66656,-5.21751c0,0 1.24466,-1.19922 2.48911,-0.74521c1.24447,0.45302 1.75359,2.59585 1.53815,3.53472c-0.21624,0.93896 -1.15013,5.53525 -2.56682,7.10152z" data-paper-data="{&quot;index&quot;:null}" fill="#be1e2d" stroke="#231f20" stroke-width="0.78672" stroke-linecap="round" stroke-linejoin="round"/><path d="M248.15419,218.44958c0.81631,-1.40248 2.51398,-2.3937 2.51398,-2.3937c0,0 4.16319,3.14379 5.6353,4.31398c1.4747,1.17146 4.18497,2.61836 4.18497,2.61836c0,0 0.55385,-0.12457 0.97995,0.52133c0.42218,0.64715 -0.68736,1.90742 -1.93142,3.64275c-1.24462,1.72952 -2.71742,2.6657 -3.47255,2.35047c-0.75459,-0.31076 -0.54563,-0.98954 -0.54563,-0.98954c0,0 -3.53264,-5.12524 -5.63497,-6.04472c0.00636,0.00016 -2.77057,-2.23095 -1.72964,-4.01893z" data-paper-data="{&quot;index&quot;:null}" fill="#be1e2d" stroke="#231f20" stroke-width="0.90024" stroke-linecap="round" stroke-linejoin="round"/><path d="M245.6651,218.23207v0v0v0v0v0c2.78575,1.3371 3.03948,3.92383 3.04033,3.92654c-0.59502,2.20994 1.09436,7.39776 1.09436,7.39776c0,0 0.66172,0.25651 0.43918,1.04044c-0.22626,0.78566 -1.8722,1.35658 -4.00519,1.25179c-2.12936,-0.10663 -3.80547,-0.02332 -4.04924,-0.75959c-0.24377,-0.73628 0.20009,-1.09047 0.20009,-1.09047c0,0 0.08029,-1.76067 0.07992,-3.64426c-0.00237,-1.87823 -0.22002,-7.03762 -0.22002,-7.03762c0,0 1.59553,-1.96101 3.42058,-1.08458z" data-paper-data="{&quot;index&quot;:null}" fill="#be1e2d" stroke="#231f20" stroke-width="0.90024" stroke-linecap="round" stroke-linejoin="round"/><g data-paper-data="{&quot;index&quot;:null}" stroke-width="0.90024"><path d="M255.34444,211.64402v0v0v0v0v0c0.26957,2.81931 -0.66344,7.93721 -3.963,9.58008c-3.2634,1.62132 -6.61432,1.20798 -9.97756,-1.35137c-2.78653,-2.12124 -2.42535,-7.75639 -1.95989,-10.89554v0c0,0 0.39769,-7.2973 6.58652,-7.87834c6.18692,-0.58103 8.74873,5.16673 9.04249,8.68493c0.11745,0.6227 0.2126,1.25688 0.27147,1.86022z" fill="#be1e2d" stroke="#000000" stroke-linecap="butt" stroke-linejoin="miter"/><path d="M253.23556,219.57397v0v0v0v0v0l-0.02268,0.14211c-0.50488,0.62652 -1.11238,1.14861 -1.83045,1.50625c-3.02282,1.50209 -6.11938,1.25884 -9.23256,-0.81973l-0.02581,-0.14553c0,0 -1.22039,-9.36985 4.71854,-9.47788c6.74361,-0.11954 6.51559,7.24433 6.39296,8.79477z" fill="#e6e7e8" stroke="#231f20" stroke-linecap="round" stroke-linejoin="round"/></g><g data-paper-data="{&quot;index&quot;:null}" stroke="#000000" stroke-linecap="butt" stroke-linejoin="miter"><g><g stroke-width="0.4"><path d="M274.12204,234.15856l-0.04386,-0.0054c-1.44963,-0.13425 -3.3042,-0.81359 -3.98016,-1.43987l-0.10221,0.09597l-1.1407,-0.47059l0.31135,-0.25029c0.03454,-0.02919 3.48138,-2.83583 3.64621,-6.01023l0.01688,-0.32651l0.3051,0.11827c0.16226,0.06392 0.53329,0.2329 0.64435,0.48586l0.04451,0.01958c1.69638,0.75349 3.28165,0.74084 3.72749,0.71865l0.24119,-0.00448c0.11137,0.03142 0.44937,0.12536 0.47608,0.41471c0.0268,0.29125 -0.30749,0.48022 -0.49319,0.55385c-0.09048,0.00828 -0.18199,0.01473 -0.27551,0.01939c-1.33646,0.06653 -2.96866,-0.21578 -3.75979,-0.62615c-0.02705,0.16041 -0.06793,0.34709 -0.12764,0.55552c1.64728,0.69914 3.16431,0.68417 3.59877,0.66254l0.24415,-0.00267c0.11043,0.03142 0.44843,0.12541 0.47513,0.4147c0.0268,0.29126 -0.30653,0.48018 -0.49222,0.5538c-0.08952,0.00827 -0.18199,0.01473 -0.27551,0.01939c-1.44318,0.07186 -3.23042,-0.26236 -3.91214,-0.69997c-0.08153,0.1688 -0.17061,0.33799 -0.26737,0.50564c1.8637,0.93927 3.60762,0.89789 3.71054,0.9117c0.108,0.03911 0.43864,0.15712 0.44371,0.44946c0.00512,0.29229 -0.34191,0.45352 -0.53307,0.5132c-1.51469,0.02335 -3.52856,-0.48898 -4.17584,-1.0334c-0.1331,0.17895 -0.28014,0.36427 -0.43934,0.55115c1.75791,0.96252 3.41482,1.01921 3.51422,1.03792c0.10642,0.04582 0.42953,0.18408 0.41943,0.47527c-0.01205,0.29034 -0.36659,0.43392 -0.5611,0.48241c-1.45909,-0.05802 -3.35329,-0.63881 -4.06718,-1.24709c-0.13536,0.13453 -0.27722,0.27039 -0.42746,0.40947c1.68637,1.02855 3.30796,1.17412 3.40667,1.19853c0.10291,0.05076 0.41736,0.20458 0.39108,0.49471c-0.02719,0.29108 -0.38932,0.41515 -0.50045,0.44625z" fill="#871212"/><path d="M273.0491,226.0929c-0.17176,3.32055 -3.73424,6.18128 -3.73424,6.18128l0.63031,0.26115l0.16828,-0.15795c0.00726,0.01289 0.00855,0.01946 0.01682,0.03421c0.32755,0.53095 2.3695,1.36003 3.96956,1.51139c0,0 0.69294,-0.19357 0.06787,-0.50048c0,0 -1.83951,-0.14892 -3.69215,-1.37843c0.30205,-0.26691 0.57321,-0.52564 0.81804,-0.78021c0.01141,0.01932 0.01593,0.03421 0.03122,0.0562c0.35505,0.51351 2.43877,1.23064 4.04493,1.29459c0,0 0.68059,-0.23176 0.0402,-0.50477c0,0 -1.86193,-0.04739 -3.78905,-1.19466c0.30941,-0.3468 0.57586,-0.68101 0.7948,-0.99962c0.01967,0.03403 0.03854,0.07004 0.07295,0.11473c0.38341,0.49312 2.50297,1.09394 4.11138,1.06974c0,0 0.66649,-0.26802 0.0128,-0.50341c0,0 -1.91622,0.06035 -3.93594,-1.02642c0,0 -0.01416,0.00071 -0.0341,-0.00021c0.22804,-0.3645 0.39856,-0.70439 0.52798,-1.01573c0.02034,0.02836 0.03593,0.05691 0.06701,0.09136c0.39658,0.43473 2.34804,0.8536 3.91305,0.77569c0.08971,-0.00445 0.17842,-0.01078 0.26603,-0.01892c0,0 0.64511,-0.31713 -0.02516,-0.50534c0,0 -0.05933,0.00676 -0.16887,0.01222c-0.51,0.02538 -2.10712,0.02913 -3.8335,-0.73702c0,0 -0.00185,0.0001 -0.00566,0.00028c-0.01132,0.00056 -0.03861,0.00378 -0.07149,0.00924c0.16248,-0.4834 0.22253,-0.87459 0.23838,-1.14526c0.01013,0.01277 0.01331,0.01923 0.02443,0.03384c0.39658,0.43473 2.34804,0.8536 3.91305,0.77569c0.08971,-0.00445 0.17842,-0.01078 0.26603,-0.01892c0,0 0.6451,-0.31713 -0.02507,-0.50344c0,0 -0.05837,0.00673 -0.16601,0.01208c-0.50814,0.0253 -2.10716,0.02914 -3.8355,-0.73882c0,0 0,0 -0.00095,0.00005c-0.01037,0.00051 -0.10092,0.00689 -0.18176,0.03838c-0.00189,-0.01883 -0.00331,-0.02916 -0.00331,-0.02916c0.1942,-0.24452 -0.49239,-0.51331 -0.49239,-0.51331M272.61109,225.41409l0.6103,0.2395c0.21437,0.08398 0.55978,0.25141 0.72853,0.52234c1.6379,0.71945 3.16163,0.70611 3.59132,0.68471c0.08499,-0.00424 0.13395,-0.01045 0.13961,-0.01072l0.08952,-0.00827l0.08732,0.02312c0.5012,0.1398 0.62946,0.41459 0.64823,0.62009c0.04094,0.44204 -0.40379,0.69522 -0.54147,0.76267l-0.07855,0.03891l-0.08767,0.00818c-0.09334,0.0084 -0.18861,0.01506 -0.28493,0.01986c-1.16835,0.05816 -2.68007,-0.144 -3.60075,-0.51192c-0.00468,0.02011 -0.01016,0.04309 -0.01569,0.06515c1.52584,0.59915 2.89899,0.58566 3.30421,0.56548c0.08596,-0.00427 0.1359,-0.00862 0.14251,-0.00895l0.08942,-0.01018l0.08732,0.02312c0.50039,0.14175 0.62862,0.41655 0.64738,0.62204c0.04094,0.44204 -0.40379,0.69522 -0.54147,0.76267l-0.07855,0.03891l-0.08767,0.00818c-0.09329,0.00841 -0.18861,0.01506 -0.28493,0.01986c-1.26754,0.0631 -2.94032,-0.17935 -3.82249,-0.61073c-0.0139,0.0244 -0.02676,0.05154 -0.04071,0.07589c1.71852,0.79878 3.27152,0.76499 3.2876,0.76419l0.0898,-0.00257l0.08483,0.03083c0.48881,0.1754 0.59581,0.46076 0.59945,0.667c0.0078,0.44178 -0.45466,0.66269 -0.59572,0.71993l-0.08149,0.03625l-0.08804,0.00057c-1.3293,0.01977 -3.24713,-0.38938 -4.12975,-0.94476c-0.03917,0.0502 -0.07926,0.1005 -0.12028,0.15175c1.60327,0.80451 3.04976,0.85561 3.06589,0.85672l0.08923,0.00404l0.08311,0.03467c0.47881,0.20341 0.56902,0.49337 0.56139,0.70113c-0.0177,0.44305 -0.491,0.63607 -0.63624,0.68594l-0.08288,0.02777l-0.08724,-0.00228c-0.31596,-0.01359 -0.66348,-0.05216 -1.02247,-0.11193l0.04755,0.02319c0.46688,0.23047 0.54212,0.52403 0.52293,0.72861c-0.04045,0.44228 -0.52442,0.61029 -0.67203,0.65077l-0.08401,0.02406l-0.08661,-0.00894c-1.29943,-0.12184 -3.11777,-0.71963 -3.95605,-1.3549l-0.05335,0.05096l-0.28232,-0.11754l-0.63021,-0.25931l-0.7386,-0.30503l0.62271,-0.50064c0.03369,-0.02724 3.3994,-2.77114 3.55821,-5.83824l0.03382,-0.65219zM271.29918,231.92634c-0.01351,0.01392 -0.02708,0.0269 -0.04164,0.03903c1.42385,0.79543 2.72164,0.95998 2.92159,0.98221c-1.09414,-0.20116 -2.25616,-0.58643 -2.87996,-1.02124z" fill="#000000"/></g><path d="M250.15797,209.8763c0,0 5.7436,-0.71957 10.32538,3.35184c4.58186,4.07333 3.14253,8.44451 13.02881,12.88436c0,0 0.89308,2.87555 -3.72651,6.7745c0,0 -8.42734,-4.15739 -10.78195,-10.39242c-2.35452,-6.23319 -8.0838,-9.52316 -11.03348,-9.39715l-3.23742,-0.30846z" fill="#ba2915" stroke-width="0.4"/><g fill="#871212" stroke-width="0.4"><path d="M270.92802,224.87106c0,0 0.41911,3.87344 -4.00066,6.36495l-1.13127,-0.83274c0,0 4.00285,-4.38052 3.74616,-6.37975z"/><path d="M267.36862,222.35553c0,0 -0.12692,3.00394 -4.37172,5.70074l-1.3673,-1.31337c0,0 4.14294,-2.55629 4.56343,-5.65439z"/><path d="M264.87258,219.32687c0,0 -0.85427,3.07711 -5.36701,4.36694l-0.71427,-1.66212c0,0 4.70628,-1.73787 5.42448,-3.76288z"/><path d="M262.40972,215.36862c0,0 -0.68362,2.62456 -5.13261,3.80616l-1.06339,-1.35214c0,0 4.83077,-2.47124 5.29777,-3.57009z"/><path d="M257.73248,211.3578c0.33432,0.09697 1.62908,0.98123 1.62908,0.98123l-5.55527,3.07636l-1.65247,-1.31809c0,0 5.24436,-2.83648 5.57867,-2.73949z"/><path d="M254.22741,210.35255l-4.55729,2.9244l-2.23191,-0.23355l4.52627,-3.24284l2.26294,0.552"/></g><path d="M269.82041,233.16654l-0.13871,-0.06696c-0.34756,-0.17211 -8.53726,-4.27217 -10.89828,-10.52205c-2.23561,-5.91719 -7.79888,-9.37259 -10.83555,-9.24411l-4.01469,-0.38243l6.1951,-3.30893c0,0 0.16844,-0.02165 0.47163,-0.03674c1.36856,-0.06814 6.13814,-0.02155 10.04037,3.4465c1.65229,1.46674 2.55167,3.00409 3.4219,4.4899c1.58943,2.71308 3.23367,5.51997 9.54717,8.35482l0.09686,0.04343l0.03158,0.10167c0.03931,0.12398 0.8857,3.07001 -3.79923,7.02621l-0.11816,0.09867zM273.30643,226.27802c-6.36127,-2.88071 -8.03445,-5.73639 -9.65282,-8.49914c-0.89092,-1.5198 -1.73222,-2.95681 -3.32819,-4.37525c-3.76646,-3.34703 -8.37885,-3.39291 -9.70207,-3.32703c-0.22004,0.0119 -0.36415,0.02667 -0.37315,0.01762l-4.71873,2.53385l2.42883,0.23317c3.08011,-0.13157 8.86321,3.19359 11.26461,9.55037c2.13092,5.64111 9.43225,9.62167 10.5277,10.19202c3.83196,-3.28783 3.6431,-5.80647 3.55383,-6.32564z" fill="#000000" stroke-width="0.4"/><path d="M273.35354,226.29481c0.08927,0.51917 0.26479,3.05791 -3.56717,6.34574c-1.09545,-0.57036 -8.44044,-4.5388 -10.57136,-10.1799c-2.4014,-6.35678 -8.13437,-9.70125 -11.21448,-9.56969l-2.51144,-0.28941l4.72947,-2.54602c0.00899,0.00905 0.15393,-0.00638 0.37397,-0.01828c1.32322,-0.06588 5.97197,-0.03032 9.73843,3.31671c1.59598,1.41843 2.46993,2.87287 3.36085,4.39267c1.61835,2.76275 3.30045,5.66748 9.66172,8.54818z" data-paper-data="{&quot;noHover&quot;:true,&quot;origItem&quot;:[&quot;Path&quot;,{&quot;applyMatrix&quot;:true,&quot;segments&quot;:[[[431.94081,453.0728],[0,0],[-0.17472,1.03898]],[[439.09485,465.69792],[-7.688,-6.5475],[2.1867,-1.14874]],[[460.07531,445.23676],[-4.22042,11.29778],[4.75612,-12.7311]],[[482.53429,426.05348],[-6.16114,-0.24052],[0,0]],[487.39021,425.56932],[[477.93421,420.53628],[0,0],[-0.01792,0.01816]],[[477.18779,420.50378],[0.44016,0.02218],[-2.64692,-0.12204]],[[457.80819,427.229],[7.5083,-6.72166],[-3.1815,2.84856]],[[451.18397,436.00386],[1.77068,-3.04612],[-3.21644,5.53734]],[[431.94083,453.07286],[12.7013,-5.80806],[0,0]]],&quot;closed&quot;:true,&quot;fillColor&quot;:[0,0,0,1],&quot;strokeColor&quot;:[0,0,0],&quot;strokeWidth&quot;:0.4}]}" fill="#000000" stroke-width="0.2"/></g><g stroke-width="0.4"><path d="M236.60718,205.14549c0.00096,-0.00006 7.11806,-3.25546 16.98743,6.01782c0,0 -5.3479,2.75262 -10.72502,1.89552c-5.37804,-0.8571 -7.15711,-2.13098 -9.04969,-0.911c0,0 -1.16238,-1.95318 2.24935,-3.5433c0,0 -1.30105,-2.36098 0.53794,-3.45904z" fill="#ba2915"/><g fill="#871212"><path d="M246.90617,206.40804c-2.29984,2.43426 -1.30004,6.80709 -1.30004,6.80709l-0.85004,0.04232c-1.32804,-5.14617 1.34961,-7.2574 1.34961,-7.2574z"/><path d="M243.04878,204.94315c0,0 -2.31337,2.0486 -1.58203,7.62879l-1.07996,-0.2208c0,0 -0.74761,-4.57574 1.40664,-7.67118z"/><path d="M250.07831,208.27632c-0.82712,0.61687 -1.11919,4.48782 -1.11919,4.48782l-0.60443,0.12575c-0.6126,-2.79485 1.04663,-5.12617 1.04663,-5.12617z"/><path d="M235.53727,211.55484c-0.00095,0.00005 -0.16944,-2.20527 1.22666,-3.28029c0.05622,-0.16378 0.00646,-2.72248 0.58293,-3.37227l1.33709,-0.26259c0,0 -1.30283,1.31184 -0.88164,3.45818c0,0 -1.55561,1.52231 -1.27241,3.40753l-0.99265,0.04942z"/></g><path d="M233.48954,210.70424c0.26076,-0.84808 1.02109,-1.59036 2.26095,-2.20788c-0.43957,-0.95525 -0.74829,-2.66784 0.75794,-3.5656c0.04353,-0.01923 1.05116,-0.4718 2.82773,-0.56025c3.19523,-0.15908 8.28878,0.86082 14.42037,6.62095l0.2443,0.22925l-0.29817,0.15309c-0.03602,0.01885 -3.6523,1.85676 -7.88264,2.06738c-1.04083,0.05182 -2.04504,0.0024 -2.98795,-0.14759c-1.81722,-0.29013 -3.23059,-0.62784 -4.36612,-0.89985c-2.20302,-0.52757 -3.39299,-0.77035 -4.51683,-0.04688l-0.20647,0.1324l-0.12502,-0.21059c-0.01653,-0.02761 -0.39861,-0.68458 -0.12809,-1.56442zM233.94373,210.83216c-0.1289,0.41545 -0.07473,0.76212 -0.01115,0.97391c1.18281,-0.64216 2.45816,-0.39605 4.64202,0.1268c1.12688,0.26958 2.53074,0.60591 4.33069,0.89217c0.90954,0.14502 1.8834,0.19311 2.89021,0.14298c3.42378,-0.17045 6.43713,-1.43392 7.38314,-1.86827c-5.89586,-5.43855 -10.7617,-6.41014 -13.81998,-6.25788c-1.66228,0.08276 -2.62688,0.50572 -2.63064,0.5059c-1.33421,0.79641 -0.81095,2.34874 -0.55704,2.92312c0.56139,-0.21163 1.91917,-0.49604 3.87488,0.57875c0,0 -2.03091,-0.89303 -4.05027,0.06246c-1.11155,0.55149 -1.82774,1.21014 -2.05184,1.92005z" fill="#000000"/></g><g stroke-width="0.4"><path d="M265.31699,206.49794c0.83749,1.37852 -0.6143,1.92424 -0.6143,1.92424c-18.09643,6.16813 -20.49779,0.72506 -23.02512,-1.75287c-2.52547,-2.47803 -5.06848,-1.52296 -5.06848,-1.52296c-1.61654,-3.94354 2.59274,-6.15563 2.59274,-6.15563l0.06024,1.20989c11.95323,8.32019 21.74674,-0.58942 21.74129,-0.69896c-0.00546,-0.10959 1.07982,0.29371 1.72297,1.32594c0.64318,1.03218 -0.49333,1.97692 -0.49333,1.97692c-0.12467,1.07137 2.24655,2.31487 3.08399,3.69343z" fill="#ba2915"/><g fill="#871212"><path d="M259.9357,200.38326c0,0 1.63892,0.49409 0.94277,3.15143c0,0 0.13295,1.49126 1.37531,2.67261c1.24231,1.18131 1.25712,2.06777 1.48745,2.52971l-1.86654,0.54459c0,0 -0.16997,-1.62669 -0.98244,-2.50282c-0.81242,-0.87608 -1.01913,-2.19416 -1.12606,-2.78249c-0.10692,-0.58834 0.64895,-2.04624 -0.66892,-2.95679z"/><path d="M256.85109,202.24962c-0.02926,-0.24469 0.62152,0.99735 0.50817,2.67603c-0.11337,1.67867 0.93211,2.48163 1.3717,3.57034c0.43954,1.08877 0.51713,1.56308 0.51713,1.56308l-1.363,0.33204c0,0 -0.77366,-2.36077 -1.38936,-3.3167c-0.61569,-0.95596 -0.34906,-1.93313 -0.39758,-2.90779c-0.04854,-0.97472 -0.37501,-1.39023 -0.37501,-1.39023z"/><path d="M253.20695,203.37694c0.00371,0.07463 0.75864,1.77259 0.45194,3.5234c-0.30675,1.75081 0.8536,3.87165 0.8536,3.87165l-1.31415,0.15255c0,0 -0.89589,-1.96268 -0.78714,-3.73392c0.10875,-1.77123 0.13712,-2.32277 -0.21186,-3.62809z"/><path d="M249.5835,203.70129c0,0 -0.76247,2.52341 0.0863,4.7005c0,0 -0.58352,1.34421 0.54779,2.67214l-0.70744,0.03522c0,0 -1.07828,-0.83353 -0.86605,-2.50385c0,0 -1.25549,-1.00837 -0.29407,-4.84164l1.23352,-0.06141z"/><path d="M245.66833,203.2249c0,0 -1.68045,2.34281 -0.68423,5.3505c0,0 -0.19375,0.46315 0.26009,1.24919l-1.05808,-0.63759c0,0 -0.26663,-0.52451 -0.21381,-0.71934c0.05277,-0.19484 -1.18139,-1.66819 0.33356,-5.62372z"/><path d="M241.43982,201.57114c0,0 -1.61292,1.28369 -1.0581,4.11646l-1.07213,-0.53842c0,0 -0.14793,-2.97133 1.2387,-4.04592z"/><path d="M239.03169,200.32757c0,0 -2.72588,1.0087 -2.32363,4.41049l0.00493,0.36525c0,0 -2.11575,-3.09214 2.49229,-6.02379z"/></g><path d="M236.39007,205.23582c-1.67905,-4.09566 2.65759,-6.43155 2.70088,-6.4555l0.32753,-0.17252l0.07284,1.46302c3.56592,2.45652 7.28369,3.60741 11.05409,3.4197c5.90776,-0.29413 9.80756,-3.70183 10.22844,-4.09109l0.00907,-0.14156l0.23611,-0.01175c0.28145,-0.01401 1.30019,0.47877 1.9074,1.45499c0.55157,0.8853 0.00004,1.76964 -0.44103,2.19114l0.00859,0.02041c-0.00814,0.00703 -0.01741,0.01131 -0.0256,0.01834c0.0412,0.48461 0.7427,1.11057 1.42528,1.71761c0.61527,0.54787 1.2513,1.11362 1.62457,1.72661c0.29087,0.47882 0.36713,0.92758 0.22741,1.33413c-0.22511,0.65127 -0.93022,0.92307 -0.96747,0.93627c-5.01079,1.70758 -9.23747,2.65749 -12.56398,2.82311c-6.18449,0.30791 -8.37013,-2.0952 -9.96485,-3.84981c-0.25435,-0.27897 -0.49483,-0.54441 -0.73765,-0.78132c-1.4623,-1.43457 -2.92219,-1.67908 -3.8884,-1.63097c-0.56855,0.02831 -0.9294,0.1599 -0.9331,0.16104l-0.21381,0.07973l-0.08629,-0.21156zM238.98518,199.39351c-0.91467,0.58903 -3.32217,2.47757 -2.23614,5.46376c0.71434,-0.18138 2.95311,-0.45759 5.09335,1.64199c0.24881,0.24325 0.49523,0.51501 0.75567,0.80122c0.2404,0.26359 0.49066,0.53608 0.7599,0.8096c4.38145,1.2078 8.55286,-0.47222 8.55286,-0.47222c-2.91286,1.855 -6.72167,1.28999 -7.96425,1.03657c1.52666,1.3575 3.77672,2.54453 8.24414,2.3221c3.28208,-0.16342 7.46567,-1.10455 12.42712,-2.79546c0.00557,-0.00218 0.53122,-0.20827 0.68159,-0.64939c0.09091,-0.26584 0.02892,-0.57899 -0.18459,-0.93099c-0.33616,-0.55232 -0.94547,-1.09481 -1.53493,-1.61845c-0.68657,-0.61155 -1.33582,-1.19557 -1.52517,-1.78459c-1.30082,0.80143 -2.89647,0.83447 -2.89647,0.83447c1.64725,-0.49958 2.46679,-1.02138 2.84615,-1.33189l0.00383,-0.0371l0.07276,-0.06046c0.03997,-0.03323 0.96907,-0.82745 0.4442,-1.67054c-0.49613,-0.79808 -1.26278,-1.17272 -1.45386,-1.22666c-0.86448,0.91221 -4.98473,3.96257 -10.50145,4.23724c-3.90922,0.19463 -7.76016,-1.00643 -11.44406,-3.56975l-0.09419,-0.06637l-0.04646,-0.93315z" fill="#000000"/></g></g><g data-paper-data="{&quot;index&quot;:null}" stroke="#000000" stroke-width="0.90024" stroke-linecap="round" stroke-linejoin="round"><path d="M291.14248,182.27593l-0.57513,1.53384c-3.17042,7.74081 -7.50382,12.12986 -7.50382,12.12986c0,0 0.18787,-1.39185 0.16574,-3.63661l-0.13025,-0.04934c-0.41075,1.17073 -1.07438,2.67704 -2.16038,4.5308c-2.3817,4.07103 -9.14826,7.35879 -9.14826,7.35879c0,0 0.45221,-1.40922 0.7732,-3.726l-0.08424,-0.35793c-0.73817,0.53812 -1.50214,1.03045 -2.27386,1.50908c-0.2271,0.14179 -0.45399,0.27988 -0.68448,0.41339c-0.70153,0.41124 -1.41513,0.80226 -2.14242,1.16591c-0.28733,0.14192 -0.58526,0.27285 -0.87612,0.40836c-0.53059,0.24817 -1.0681,0.48165 -1.6134,0.70693c-0.40052,0.16325 -0.80372,0.32563 -1.2139,0.47603c-0.4247,0.15822 -0.86064,0.29893 -1.29405,0.44611c-0.79664,0.26179 -1.60449,0.50449 -2.42988,0.72602c-0.26929,0.07216 -0.53868,0.14432 -0.81242,0.21096c-0.58821,0.14493 -1.1809,0.28603 -1.78384,0.40896l0.00175,0.00184c-3.02696,0.62212 -6.23096,0.99551 -9.6536,1.11639c-3.70288,0.12983 -7.05326,0.00501 -10.17746,-0.29495v0c-2.47209,-0.23862 -4.7825,-0.59644 -6.96691,-1.05539c-0.10567,-0.02168 -0.21231,-0.04428 -0.31888,-0.06599c-0.67519,-0.14656 -1.33937,-0.30083 -1.99057,-0.46557c-0.22723,-0.05918 -0.44444,-0.1225 -0.67062,-0.18336c-0.86487,-0.22976 -1.70483,-0.47878 -2.53271,-0.74189c-0.52331,-0.16678 -1.04301,-0.33718 -1.55067,-0.51705c-0.30167,-0.10425 -0.60411,-0.21312 -0.89935,-0.3226c-0.80616,-0.30215 -1.605,-0.6085 -2.37895,-0.93682l-0.13938,0.12689c0.23974,2.12172 0.93883,3.27835 1.50692,3.83534c1.15797,1.13716 3.43599,1.45992 3.43599,1.45992c0,0 -7.01004,0.79412 -10.67165,-4.69811c-0.38902,-0.5838 -0.78109,-1.1885 -1.15146,-1.83133l-0.15706,-0.36615c-0.81887,-0.29788 -1.64615,-0.68701 -2.45996,-1.18123c-4.96162,-3.03448 -5.53149,-5.44486 -5.53149,-5.44486l0.08224,0.88016c0.42513,2.29954 0.8606,3.75536 0.8606,3.75536c0,0 -5.92941,-3.97388 -8.46486,-9.76248c-2.04405,-4.67262 -2.14262,-7.47317 -2.14469,-7.94339l-0.15847,-1.68453c0.04208,-6.57926 0.64416,-13.9444 1.73813,-21.1769l0.06086,-0.19197c0.95259,-5.58814 0.41528,-14.90143 8.10721,-24.21479c14.41368,-17.44746 28.64513,-16.45445 37.51201,-29.39593c6.52215,-9.52071 5.20365,-20.67083 5.20365,-20.67083c0,0 3.70089,5.54278 5.15052,8.77871c1.40317,3.15359 2.88349,7.20981 2.88349,7.20981l0.05218,-0.03284c0.03816,-0.11614 0.07278,-0.23497 0.10291,-0.35393c0.46746,-1.85278 0.37412,-4.61277 0.37412,-4.61277c0,0 3.38276,10.83595 9.11417,18.03225c5.72792,7.19271 14.2209,9.42824 24.37784,33.81242c1.26416,3.0302 2.44619,5.58368 3.04064,8.39554l0.2602,1.61608c0.80863,5.04994 0.07449,18.92346 -2.0592,24.86975zM222.64506,156.85901c0,0 -7.17937,7.07633 -6.98368,17.19024c0.17315,8.94882 2.41721,11.77055 3.64725,12.49446c1.26482,0.74013 3.26551,0.37388 3.26551,0.37388c0,0 -5.70636,2.8329 -10.18817,-1.33178c-2.99782,-2.78389 -6.24596,-6.35881 -6.92297,-16.21956M280.38097,174.4829c0,0 0.80318,2.50843 -1.4498,7.64821c-2.53475,5.79071 -7.60663,7.46955 -7.60663,7.46955c0,0 4.41136,-8.90786 1.13042,-17.47807c-1.43179,-3.74425 -6.07867,-6.62721 -10.95376,-8.7048c-6.60637,-2.81745 -13.63083,-4.15445 -13.63083,-4.15445M283.13218,192.15644c-0.40753,1.18522 -1.08103,2.72819 -2.19904,4.63152c-2.3808,4.07105 -9.14736,7.35881 -9.14736,7.35881c0,0 1.31469,-4.11163 1.05311,-9.82715M206.69654,176.65162c-0.71915,1.25457 -1.28227,2.60496 -1.61527,4.03803c-2.08956,8.93457 0.9131,18.91496 0.9131,18.91496c0,0 -5.92766,-3.97214 -8.46485,-9.76258c-2.24888,-5.13905 -2.14285,-8.01356 -2.14285,-8.01356M290.56268,183.81595c-3.17222,7.74076 -7.50473,12.12983 -7.50473,12.12983c0,0 1.07837,-7.90733 -2.20985,-16.47863c-0.14829,-0.38753 -0.31765,-0.7648 -0.49799,-1.13155M247.87128,159.26339c0,0 1.18687,0.34815 4.27433,2.94082c3.08756,2.59267 4.17572,5.36156 4.17572,5.36156c0,0 -9.24636,-2.69655 -14.35254,-4.68566c-5.10074,-1.99077 -22.35341,-7.17857 -22.35341,-7.17857M217.40819,195.82266c2.4202,4.03137 4.9897,6.25743 4.9897,6.25743c0,0 -6.22644,1.75029 -11.81491,-1.66446c-4.96162,-3.03438 -5.53149,-5.44486 -5.53149,-5.44486M272.47288,200.06458c-6.79118,4.94688 -14.93216,7.24495 -24.76994,7.59194c-11.72878,0.41361 -20.24315,-1.52167 -27.48343,-4.58353M220.02532,202.54372c0.15488,2.54184 0.93571,3.87807 1.56,4.48876c1.15887,1.13719 3.43689,1.45995 3.43689,1.45995c0,0 -7.01183,0.79406 -10.67254,-4.69814c-0.38902,-0.5838 -0.78109,-1.1885 -1.15146,-1.83133M248.53926,159.58171c0,0 25.42429,3.78034 25.05904,17.70135" fill="#be1e2d"/><path d="M278.43954,183.43396c-1.21396,9.9868 -12.99726,20.13032 -29.86619,20.67297c-14.8927,0.48725 -36.69181,-6.7758 -39.55725,-19.17232c-0.28432,-1.24579 -0.42121,-2.44529 -0.43696,-3.5948l0.3169,0.2443c1.08516,1.68185 2.30566,2.90617 3.48989,4.00351c4.48186,4.16288 10.18822,1.32998 10.18822,1.32998c0,0 -2.00074,0.36805 -3.26557,-0.37207c-1.23003,-0.72391 -3.4741,-3.54564 -3.64725,-12.49446c-0.19565,-10.11572 6.98368,-17.19024 6.98368,-17.19024l0.03038,-0.23158c5.19238,1.58613 15.53596,4.78433 19.29159,6.25084c5.10616,1.99001 14.35254,4.68566 14.35254,4.68566c0,0 -1.08815,-2.76889 -4.17572,-5.36156c-1.54552,-1.29678 -2.61321,-2.03174 -3.29405,-2.44314l0.64531,0.11867c0,0 19.58907,3.42277 22.96169,12.24297c3.28002,8.57108 -1.12951,17.47809 -1.12951,17.47809c0,0 4.31882,-1.43112 6.97267,-6.19835z" fill="#e6e7e8"/></g><g data-paper-data="{&quot;index&quot;:null}" stroke-linejoin="miter"><path d="M201.7369,166.29616c-0.49232,12.96935 -2.55149,23.42007 -7.88639,23.21754c-5.33491,-0.20251 -12.92463,-11.01952 -12.43229,-23.98886c0.49232,-12.96935 8.88027,-23.17983 14.21518,-22.97731c5.33491,0.20251 6.59585,10.77927 6.10352,23.74861z" fill="url(#color-1)" stroke="#000000" stroke-width="0.90024" stroke-linecap="butt"/><path d="M188.32229,150.83047l2.2066,-2.76602" fill="none" stroke="#ea42a4" stroke-width="2" stroke-linecap="round"/><path d="M194.89495,155.77011l3.39118,-0.24476" fill="none" stroke="#ea42a4" stroke-width="2" stroke-linecap="round"/><path d="M189.81343,163.1551l0.46886,-1.83853" fill="none" stroke="#ea42a4" stroke-width="2" stroke-linecap="round"/><path d="M187.98117,171.10764l1.56914,2.29299" fill="none" stroke="#ea42a4" stroke-width="2" stroke-linecap="round"/><path d="M199.10078,177.92483l-1.59585,0.11518" fill="none" stroke="#ea42a4" stroke-width="2" stroke-linecap="round"/><path d="M189.8445,185.81165l1.82414,0.26938" fill="none" stroke="#ea42a4" stroke-width="2" stroke-linecap="round"/><path d="M185.06303,175.12814l1.18458,2.52127" fill="none" stroke="#ea42a4" stroke-width="2" stroke-linecap="round"/><path d="M184.95597,165.31036l-1.34086,-1.90842" fill="none" stroke="#ea42a4" stroke-width="2" stroke-linecap="round"/><path d="M185.66123,155.6345l-0.11518,-1.59585" fill="none" stroke="#ea42a4" stroke-width="2" stroke-linecap="round"/><path d="M198.43615,146.49109l-2.59116,2.99431" fill="none" stroke="#ea42a4" stroke-width="2" stroke-linecap="round"/></g><g data-paper-data="{&quot;index&quot;:null}" stroke-linejoin="miter"><path d="M294.78455,143.50304c5.32533,0.3784 12.55407,11.43987 11.63418,24.38593c-0.91989,12.94606 -9.64009,22.87427 -14.96542,22.49587c-5.32533,-0.3784 -6.23668,-10.99099 -5.31678,-23.93704c0.91989,-12.94606 3.32269,-23.32316 8.64801,-22.94475z" fill="url(#color-2)" stroke="#000000" stroke-width="0.90025" stroke-linecap="butt"/><path d="M301.15229,152.53139l-1.89296,-2.98943" fill="none" stroke="#ea42a4" stroke-width="2" stroke-linecap="round"/><path d="M290.73729,156.11577l3.3445,0.61181" fill="none" stroke="#ea42a4" stroke-width="2" stroke-linecap="round"/><path d="M298.06445,162.74241l0.2663,1.87857" fill="none" stroke="#ea42a4" stroke-width="2" stroke-linecap="round"/><path d="M297.47898,174.83446l1.80902,-2.1089" fill="none" stroke="#ea42a4" stroke-width="2" stroke-linecap="round"/><path d="M287.49344,178.29406l1.57388,0.28792" fill="none" stroke="#ea42a4" stroke-width="2" stroke-linecap="round"/><path d="M293.99524,187.20957l1.8426,-0.06956" fill="none" stroke="#ea42a4" stroke-width="2" stroke-linecap="round"/><path d="M300.30043,179.41695l1.45153,-2.37761" fill="none" stroke="#ea42a4" stroke-width="2" stroke-linecap="round"/><path d="M302.92523,167.29136l1.54029,-1.75142" fill="none" stroke="#ea42a4" stroke-width="2" stroke-linecap="round"/><path d="M303.27556,157.59614l0.28792,-1.57389" fill="none" stroke="#ea42a4" stroke-width="2" stroke-linecap="round"/><path d="M291.56985,147.1187l2.25045,3.25815" fill="none" stroke="#ea42a4" stroke-width="2" stroke-linecap="round"/></g><g stroke-linejoin="miter"><g stroke-linecap="butt"><g stroke="#000000" stroke-width="1"><path d="M251.56209,213.14455h55.67854v24.113h-55.67854z" fill="url(#color-3)"/><path d="M256.5013,208.72384h55.67854l-4.93922,4.42072h-55.67855z" fill="#9966ff"/><path d="M307.4912,213.11761l4.71472,-4.21977l-0.67354,24.51489l-4.49021,3.91836z" fill="url(#color-4)"/></g><path d="M304.73979,213.99647c0.44092,0 0.79835,0.15996 0.79835,0.35728c0,0.19732 -0.35743,0.35727 -0.79835,0.35727c-0.44092,0 -0.79836,-0.15995 -0.79836,-0.35727c0,-0.19732 0.35744,-0.35728 0.79836,-0.35728z" fill="#b9b9b9" stroke="none" stroke-width="0.5"/><path d="M304.38497,235.90911c0.44092,0 0.79835,0.15995 0.79835,0.35727c0,0.19732 -0.35743,0.35727 -0.79835,0.35727c-0.44092,0 -0.79836,-0.15995 -0.79836,-0.35727c0,-0.19732 0.35744,-0.35727 0.79836,-0.35727z" fill="#b9b9b9" stroke="none" stroke-width="0.5"/><path d="M253.46788,236.22668c0.44091,0 0.79835,0.15996 0.79835,0.35727c0,0.19732 -0.35744,0.35727 -0.79835,0.35727c-0.44091,0 -0.79835,-0.15995 -0.79835,-0.35727c0,-0.19732 0.35744,-0.35727 0.79835,-0.35727z" fill="#b9b9b9" stroke="none" stroke-width="0.5"/><path d="M252.93564,213.83768c0.44091,0 0.79835,0.15995 0.79835,0.35727c0,0.19732 -0.35744,0.35727 -0.79835,0.35727c-0.44091,0 -0.79835,-0.15995 -0.79835,-0.35727c0,-0.19732 0.35744,-0.35727 0.79835,-0.35727z" fill="#b9b9b9" stroke="none" stroke-width="0.5"/></g><g stroke="#000000" stroke-width="1" stroke-linecap="butt"><path d="M256.16442,225.14222c0,-5.20726 4.22132,-9.42857 9.42857,-9.42857c5.20725,0 9.42857,4.22132 9.42857,9.42857c0,5.20726 -4.22132,9.42857 -9.42857,9.42857c-5.20725,0 -9.42857,-4.22132 -9.42857,-9.42857z" fill="#8499b1"/><path d="M259.39707,225.5463c0,-3.04996 2.47248,-5.52245 5.52245,-5.52245c3.04996,0 5.52245,2.47249 5.52245,5.52245c0,3.04996 -2.47249,5.52244 -5.52245,5.52244c-3.04996,0 -5.52245,-2.47248 -5.52245,-5.52244z" fill="#92c5ff"/></g><g stroke="#000000" stroke-width="1" stroke-linecap="butt"><path d="M280.16442,225.17793c0,-5.20726 4.22132,-9.42857 9.42857,-9.42857c5.20725,0 9.42857,4.22132 9.42857,9.42857c0,5.20726 -4.22132,9.42857 -9.42857,9.42857c-5.20725,0 -9.42857,-4.22132 -9.42857,-9.42857z" fill="#8499b1"/><path d="M283.39707,225.58202c0,-3.04996 2.47249,-5.52245 5.52245,-5.52245c3.04996,0 5.52245,2.47249 5.52245,5.52245c0,3.04996 -2.47249,5.52245 -5.52245,5.52245c-3.04996,0 -5.52245,-2.47248 -5.52245,-5.52245z" fill="#92c5ff"/></g><path d="M303.73584,192.24698l-4,18.57143" fill="none" stroke="#000000" stroke-width="2" stroke-linecap="round"/></g><g data-paper-data="{&quot;index&quot;:null}" stroke="#001026" stroke-width="0.9" stroke-linejoin="miter"><g><path d="M230.22913,210.60089c0,0 -1.96726,0.77221 -2.80994,0.65574c-0.79447,-0.10979 -2.11003,-1.33568 -2.11003,-1.33568l-1.37703,-14.53608l9.02365,0.30917l-2.72668,14.90684z" fill="#505a63" stroke-linecap="butt"/><path d="M233.49864,194.77512c-0.09505,2.77391 -2.42079,4.94558 -5.19468,4.85053c-2.77391,-0.09504 -4.94557,-2.4208 -4.85052,-5.19469c0.09505,-2.7739 2.42079,-4.94556 5.19469,-4.85052c2.77391,0.09505 4.94556,2.42079 4.85052,5.19469z" fill="url(#color-5)" stroke-linecap="butt"/><path d="M230.85866,190.40492c0,0 0.46488,2.63795 0.40205,4.01441c-0.06723,1.47279 -0.79308,4.55291 -0.79308,4.55291" fill="none" stroke-linecap="round"/><path d="M226.85883,190.4629c0,0 0.25556,1.81349 0.11167,2.93068c-0.19475,1.51205 -1.17444,5.3211 -1.17444,5.3211" fill="none" stroke-linecap="round"/><path d="M224.05506,192.60952c0,0 3.4348,-0.16521 4.88945,0.21411c1.67204,0.43599 4.58173,2.25556 4.58173,2.25556" fill="none" stroke-linecap="round"/><path d="M223.37726,195.31651c0,0 2.53999,0.38554 3.76427,0.84077c1.57491,0.58562 4.90108,2.38136 4.90108,2.38136" fill="none" stroke-linecap="round"/></g><path d="M223.44105,205.03271c0.06895,-1.84976 1.60325,-3.11845 3.427,-2.83368c1.82373,0.28476 3.37456,2.54523 3.30561,4.39498c-0.06894,1.84976 -1.73153,2.58832 -3.55527,2.30357c-1.82374,-0.28476 -3.24628,-2.01513 -3.17735,-3.86487z" fill="#be1e2d" stroke-linecap="butt"/></g><path d="M240.51165,194.43821c-4.7216,0.28751 -5.10872,-6.74385 -5.10872,-6.74385c0,0 0.96042,-1.11913 4.44171,-1.35701c3.48023,-0.23451 6.06001,0.22051 6.06001,0.22051c0,0 -0.67551,7.59444 -5.39302,7.88036z" data-paper-data="{&quot;index&quot;:null}" fill="#58595b" stroke="#231f20" stroke-width="0.9025" stroke-linecap="round" stroke-linejoin="miter"/><path d="M222.09618,178.5694c-0.01404,-0.23916 -2.25964,-4.45749 -2.22066,-4.77732c0.09982,-0.81955 2.20236,0.52891 2.20236,0.52891l5.74988,2.75422c0,0 0.11578,0.40429 0.15747,1.11415c0.19763,3.36547 -0.96045,6.17879 -2.58665,6.28372c-1.62621,0.10493 -3.10474,-2.53824 -3.30238,-5.90372z" data-paper-data="{&quot;index&quot;:null}" fill="#231f20" stroke="#000000" stroke-width="1" stroke-linecap="butt" stroke-linejoin="miter"/><path d="M255.5003,180.85507c-0.19764,3.36548 -1.67617,6.00865 -3.30238,5.90372c-1.6262,-0.10493 -2.78428,-2.91825 -2.58665,-6.28372c0.04169,-0.70986 0.15747,-1.11415 0.15747,-1.11415l5.74988,-2.75422c0,0 2.10254,-1.34846 2.20236,-0.52891c0.03898,0.31983 -2.20662,4.53816 -2.22066,4.77732z" data-paper-data="{&quot;index&quot;:null}" fill="#231f20" stroke="#000000" stroke-width="1" stroke-linecap="butt" stroke-linejoin="miter"/></g></g></svg>