<svg version="1.1" xmlns="http://www.w3.org/2000/svg" xmlns:xlink="http://www.w3.org/1999/xlink" width="255.07129" height="207.47509" viewBox="0,0,255.07129,207.47509"><defs><radialGradient cx="243.15194" cy="221.7963" r="32.56883" gradientUnits="userSpaceOnUse" id="color-1"><stop offset="0" stop-color="#0006ff"></stop><stop offset="1" stop-color="#00e4ff"></stop></radialGradient><radialGradient cx="194.76702" cy="168.60261" r="62.64859" gradientUnits="userSpaceOnUse" id="color-2"><stop offset="0" stop-color="#0006ff"></stop><stop offset="1" stop-color="#00e4ff"></stop></radialGradient><radialGradient cx="99.04691" cy="197.50671" r="9.88717" gradientUnits="userSpaceOnUse" id="color-3"><stop offset="0" stop-color="#0006ff"></stop><stop offset="1" stop-color="#00e4ff"></stop></radialGradient><radialGradient cx="318.56876" cy="185.0979" r="12.01308" gradientUnits="userSpaceOnUse" id="color-4"><stop offset="0" stop-color="#0006ff"></stop><stop offset="1" stop-color="#00e4ff"></stop></radialGradient></defs><g transform="translate(-89.54862,-70.0079)"><g data-paper-data="{&quot;isPaintingLayer&quot;:true}" fill-rule="nonzero" stroke="none" stroke-width="0.5" stroke-linecap="butt" stroke-linejoin="miter" stroke-miterlimit="10" stroke-dasharray="" stroke-dashoffset="0" style="mix-blend-mode: normal"><path d="M289.28282,184.01483l1.58042,3.21442c4.9995,15.68549 14.27953,30.60691 21.69337,45.2217c2.54446,5.01586 8.73903,13.31882 8.10399,19.20362c-0.01904,0.1764 -0.04263,0.35164 -0.07035,0.52585l0.06186,0.00714l-0.38561,4.29083c-0.08546,1.12626 -0.69605,2.17676 -1.71281,2.73647c-1.29713,0.71405 -2.85525,0.4091 -3.85192,-0.64178l-2.59627,-2.61423l0.11972,-0.13192l-0.47269,-0.28459c-1.31387,-2.53238 -2.78299,-4.98314 -4.38181,-7.32985c-0.83172,-1.22077 -2.1966,-3.08993 -3.2899,-4.81816c-0.05435,0.39025 -0.10254,0.7807 -0.10266,1.168c-0.00098,3.4788 0.61835,9.54673 -0.52255,12.71938c-0.93593,2.60266 -1.84535,6.22091 -4.40778,6.9207c-2.10628,0.57521 -3.57626,-2.72001 -5.18512,-4.30095c-3.61909,-3.55627 -6.49927,-7.93154 -9.40714,-12.12423c-0.18849,-0.27176 -0.38922,-0.53522 -0.59725,-0.79362c0.97681,4.71575 2.25242,9.36952 2.82176,14.22775c0.09916,0.84613 0.77464,8.33436 0.51909,9.32985c-0.03006,0.1171 -0.06192,0.2335 -0.09543,0.34922l0.05128,0.0107l-0.65785,3.7748c-0.16638,1.00335 -0.75398,1.9124 -1.67452,2.41914c-1.37227,0.75541 -3.03668,0.37033 -4.01933,-0.8319l-3.15092,-3.69147c-4.60253,-5.44331 -8.81128,-11.95687 -12.04168,-18.40692c-0.06026,-0.12032 -0.12169,-0.24174 -0.18384,-0.36421c-0.16788,3.09693 -0.54898,5.97866 -0.85247,9.34148c-0.19121,2.11871 0.53291,4.37641 -0.09787,6.39152c-0.04735,0.15126 -0.09844,0.30067 -0.15294,0.44835l0.0527,0.0175l-1.17025,4.08509c-0.24091,0.84099 -0.78805,1.58031 -1.58431,2.01863c-1.59252,0.87666 -3.57849,0.21735 -4.43577,-1.47259l-1.63738,-3.22774l0.08066,-0.0444l-0.19886,-0.21339c-1.18114,-3.76642 -3.28845,-6.46657 -5.06681,-9.96335c-3.21572,-6.32304 -6.68988,-13.19703 -10.82512,-18.87656c-2.31401,-3.17815 -5.24765,-5.87307 -7.36081,-9.32756c-3.38251,-5.52962 -6.61309,-11.78648 -9.21515,-18.01442c-13.7918,-1.03258 -27.76966,-8.06147 -38.01537,-16.78469c-14.27898,-13.55028 -17.01429,-37.03165 -9.82247,-54.88704c4.79771,-11.91147 14.42606,-22.39897 23.50924,-31.68768c1.42031,-6.53312 5.1202,-11.10436 7.6087,-17.22093c12.89455,-22.71917 44.29084,-31.84674 66.48499,-17.45156c6.21609,4.03177 10.08226,11.23924 13.37936,17.7823c3.69171,15.34982 12.93417,29.68814 15.12032,45.5405c2.08762,15.13793 -3.62394,31.18756 -12.40625,43.08284c0.30549,0.36991 0.46175,0.67795 0.46175,0.67795zM222.56698,204.47848c3.07407,-1.13863 4.20292,2.11502 4.20292,2.11502c0.18708,0.54278 0.37978,1.08168 0.57785,1.61687c2.14866,-0.0651 4.27234,-0.31769 6.34907,-0.78152c6.0983,-1.36205 12.39643,-3.80269 18.3169,-5.83423c8.16292,-2.80104 17.70979,-6.28364 24.04022,-12.69014c2.00663,-2.03075 3.47111,-4.58313 5.21805,-6.86499c8.98399,-10.65931 15.50535,-26.31154 13.47085,-40.92074c-2.1271,-15.27409 -11.17468,-29.18214 -14.73896,-44.00204c-2.62181,-5.12464 -5.7696,-11.23882 -10.71503,-14.37396c-18.97325,-12.02807 -46.07703,-4.55632 -57.20497,14.85233c-1.1591,2.84903 -2.68049,5.33984 -4.04715,7.8901c0.24161,0.16341 0.48563,0.37298 0.72925,0.63732c2.29755,2.49308 -0.036,4.87369 -0.036,4.87369c-1.20169,1.22592 -2.38679,2.45379 -3.55542,3.6873c-0.16276,0.74972 -0.62459,1.52303 -1.67465,2.10108c-0.17812,0.09805 -0.35116,0.17837 -0.51906,0.24278c-6.25799,6.77129 -12.02916,13.77886 -17.3343,21.61942c-2.80478,4.14523 -5.49005,8.18826 -6.53673,13.32443c-0.8832,4.33398 -0.65707,8.85556 -1.03162,13.27847c-0.48094,5.67938 0.93166,11.0972 3.50564,16.1156c2.18602,4.262 4.03426,8.36496 7.55597,11.58477c8.34,7.13843 19.83623,13.24392 31.28863,14.85967c-0.06717,-1.05387 0.19994,-2.61308 2.13854,-3.33115zM256.13069,258.00701c0.6628,1.31013 1.36297,2.51816 2.04862,3.71012c0.27214,-1.3157 0.59446,-2.6459 0.78674,-4.09672c0.28637,-2.16092 0.02469,-6.82508 -0.02408,-8.51343l0.02379,-0.09465l-0.02276,-0.00098l0.11589,-4.81507c0.00788,-1.21893 0.63129,-2.38582 1.72308,-2.98683c1.21262,-0.66753 2.65338,-0.4445 3.65023,0.44599l3.37203,2.87808l-0.03741,0.04889c0.17521,0.14086 0.34578,0.28896 0.51102,0.4453c0.90892,0.8599 4.03107,8.28737 5.13205,9.99763c2.16826,3.36814 4.38199,6.92695 6.82493,10.16969c0.0144,-1.11444 0.0606,-2.25188 -0.0595,-3.28378c-0.88225,-7.57997 -3.34881,-14.63556 -3.99665,-22.22783l0.07906,-0.22848l-0.07625,-0.00498l0.15355,-3.4639c0.03306,-1.19085 0.653,-2.32146 1.72176,-2.90979c1.39736,-0.76922 3.09764,-0.35589 4.07254,0.89865l3.42778,4.23142l-0.0063,0.00563c0.01583,0.01532 0.03162,0.03068 0.04739,0.04607c4.50866,4.3976 3.5599,5.80415 7.22752,10.42927c1.15245,1.45331 2.68514,2.52832 3.90612,3.9185c0.15091,0.17182 0.30865,0.34188 0.46817,0.51238c0.14169,-1.12464 0.35152,-2.24828 0.38579,-3.37999c0.07097,-2.34295 -1.05021,-14.27316 1.16341,-15.61496c2.26667,-1.37396 5.49721,-0.03877 7.81979,1.30443c0.05951,0.0344 0.11773,0.07034 0.17476,0.10771c-7.60222,-14.97381 -16.86057,-30.14536 -22.07949,-46.18076l-0.21205,-0.39974c-1.61712,2.11291 -3.71711,4.8492 -3.85202,4.98496c-7.07378,7.1183 -17.34832,11.0824 -26.47088,14.21272c-6.1657,2.1157 -12.78525,4.68945 -19.14486,6.05592c-1.58409,0.34038 -3.18707,0.57839 -4.80234,0.72129c7.2222,15.2921 18.2924,27.944 25.94853,43.07723z" fill="#000000"></path><path d="M230.12027,214.90621c1.61526,-0.14288 3.21957,-0.38458 4.80366,-0.72495c6.35961,-1.36648 12.99766,-3.9665 19.16335,-6.0822c9.12257,-3.13033 19.45478,-7.10763 26.52856,-14.2259c0.13491,-0.13576 2.23882,-2.87084 3.85594,-4.98375l0.21252,0.39991c5.21892,16.0354 14.52236,31.28108 22.12458,46.25488c-0.05703,-0.03736 -0.24544,-0.0907 -0.30494,-0.12511c-2.32258,-1.3432 -5.42286,-2.66178 -7.68952,-1.28782c-2.21362,1.34179 -1.10356,13.30387 -1.17455,15.64682c-0.03429,1.1317 -0.24757,2.26015 -0.38926,3.38479c-0.15952,-0.17048 -0.41849,-0.42968 -0.5694,-0.60151c-1.22097,-1.39017 -2.75423,-2.46448 -3.90667,-3.91779c-3.66761,-4.62512 -2.72619,-6.01971 -7.23486,-10.41731c-0.01578,-0.01539 -0.0316,-0.03068 -0.04744,-0.04599l0.00629,-0.00561l-3.4323,-4.21913c-0.97489,-1.25454 -2.54993,-1.62565 -3.94729,-0.85642c-1.06876,0.58833 -1.70685,1.74792 -1.7399,2.93876l-0.16734,3.47378l0.07664,0.00476l-0.08012,0.22905c0.64782,7.59225 3.10244,14.65254 3.9847,22.23251c0.12011,1.03189 0.07243,2.16973 0.05803,3.28416c-2.44295,-3.24274 -4.66869,-6.79974 -6.83697,-10.16789c-1.10099,-1.71024 -4.24447,-9.14035 -5.15337,-10.00025c-0.16526,-0.15634 -0.33857,-0.30534 -0.51377,-0.44619l0.03751,-0.04886l-3.39062,-2.88826c-0.99686,-0.8905 -2.44794,-1.12348 -3.66056,-0.45595c-1.09179,0.60101 -1.62012,1.6747 -1.62799,2.89363l-0.12308,4.80841l0.02271,0.00094l-0.02388,0.09459c0.04877,1.68835 0.30105,6.34625 0.01466,8.50715c-0.19227,1.45082 -0.57187,2.90408 -0.84401,4.21977c-0.68565,-1.19196 -1.39213,-2.40366 -2.05495,-3.71379c-7.65611,-15.13324 -18.75422,-27.86709 -25.97641,-43.15917z" data-paper-data="{&quot;noHover&quot;:false,&quot;origItem&quot;:[&quot;Path&quot;,{&quot;applyMatrix&quot;:true,&quot;segments&quot;:[[[220.06408,235.46885],[0.01404,-12.35677],[-0.00122,1.06976]],[[220.17695,238.55861],[-0.05489,-1.00232],[0.63678,-0.74461]],[[222.11861,236.21877],[-0.62911,0.85899],[0.93702,-1.27942]],[[225.02925,230.77307],[-0.54741,1.09544],[0,0]],[225.07791,230.72099],[225.06282,230.71237],[[226.79681,227.67789],[0,0],[0.42441,-0.77572]],[[228.9915,226.3761],[-0.94657,0],[1.05134,0]],[[231.31206,227.94426],[-0.36945,-0.9192],[0,0]],[232.60791,230.96792],[[232.56574,230.98599],[0,0],[0.07032,0.15156]],[[232.75899,231.45005],[-0.05825,-0.15795],[0.32037,0.86874]],[[232.79994,239.63949],[-0.15819,-1.47935],[0.31153,2.91342]],[[233.92907,248.53399],[-0.54081,-2.9299],[0.39291,-0.70669]],[[235.01772,246.41584],[-0.27337,0.70126],[2.00809,-5.15124]],[[239.95107,230.81459],[-2.1712,5.07667],[0,0]],[240.0832,230.69645],[240.03325,230.66648],[[241.32822,228.50819],[0,0],[0.43183,-0.74893]],[[243.49553,227.25514],[-0.92661,0],[1.2115,0]],[[245.94668,229.26088],[-0.22941,-1.14398],[0,0]],[246.81503,233.16846],[[246.80881,233.16984],[0,0],[0.00546,0.01535]],[[246.82509,233.21592],[-0.0054,-0.01537],[1.54377,4.39372]],[[248.13782,242.41774],[-0.89554,-4.24334],[0.2814,1.33335]],[[249.43794,246.29364],[-0.34955,-1.31712],[0.04321,0.1628]],[[249.57908,246.78547],[-0.0495,-0.16496],[0.48268,-0.66846]],[[251.00261,244.76242],[-0.41232,0.71072],[0.85362,-1.47141]],[[257.15959,235.19871],[-1.96157,0.07871],[2.00858,-0.0806]],[[262.01088,238.78104],[-1.1123,-1.67442],[0.0285,0.04289]],[[262.09229,238.91127],[-0.0258,-0.04391],[-0.00425,-12.236]],[[263.00535,201.65462],[-1.97598,12.0761],[0,0]],[[262.99907,201.32477],[0,0],[-1.82241,0.7809]],[[258.67456,203.15422],[0.13811,-0.03928],[-7.24146,2.05925]],[[235.84787,202.92492],[7.25892,1.20803],[-4.90611,-0.81647]],[[220.79064,200.06178],[4.77995,1.36316],[-1.19062,-0.33954]],[[217.28794,198.83406],[1.14385,0.47663],[-0.36274,12.30567]]],&quot;closed&quot;:true}]}" fill="url(#color-1)"></path><path d="M220.41339,207.87648c-11.45239,-1.61577 -22.97991,-7.74009 -31.31991,-14.87852c-3.52172,-3.21981 -5.37856,-7.33408 -7.56459,-11.59608c-2.57398,-5.01839 -3.99372,-10.45181 -3.51278,-16.13121c0.37453,-4.42291 0.1454,-8.95871 1.02859,-13.29268c1.04666,-5.13617 3.73207,-9.19606 6.53684,-13.3413c5.30512,-7.84056 11.09178,-14.88412 17.34976,-21.65541c0.16791,-0.06441 0.34149,-0.14537 0.51961,-0.24342c1.05005,-0.57803 1.51473,-1.35448 1.67751,-2.1042c1.16864,-1.23349 2.35968,-2.46675 3.56137,-3.69268c0,0 2.33689,-2.38311 0.03934,-4.87618c-0.24363,-0.26436 -0.48796,-0.4737 -0.72956,-0.6371c1.36667,-2.55024 2.89655,-5.04613 4.05567,-7.89517c11.12795,-19.40863 38.29301,-26.87712 57.26625,-14.84906c4.94542,3.13514 8.10607,9.25971 10.72787,14.38435c3.56427,14.81992 12.63152,28.77136 14.75861,44.04545c2.03452,14.6092 -4.49868,30.30764 -13.48267,40.96695c-1.74693,2.28187 -3.21748,4.84188 -5.22412,6.87265c-6.33042,6.4065 -15.90363,9.90631 -24.06653,12.70734c-5.92046,2.03155 -12.24022,4.47549 -18.33853,5.83754c-2.07673,0.46383 -4.20738,0.71586 -6.35605,0.78095c-0.19806,-0.53519 -0.39162,-1.07421 -0.57869,-1.617c0,0 -1.13387,-3.25463 -4.20794,-2.116c-1.93862,0.71808 -2.20725,2.2769 -2.14007,3.33077z" data-paper-data="{&quot;noHover&quot;:false,&quot;origItem&quot;:[&quot;Path&quot;,{&quot;applyMatrix&quot;:true,&quot;segments&quot;:[[[215.72005,189.48188],[-1.56075,-0.22296],[2.47487,0.35356]],[[217.84137,192.3103],[0,0],[-0.05982,0.41243]],[[217.67712,193.5461],[0.04977,-0.41144],[1.47861,0.71383]],[[222.24881,195.27914],[-1.56694,-0.43389],[4.60133,1.27411]],[[236.66868,197.99275],[-4.71097,-0.784],[6.49532,1.08095]],[[257.32455,198.33992],[-6.49294,1.866],[2.05815,-0.59149]],[[263.22123,195.79002],[-1.96848,0.84318],[9.7535,-3.64919]],[[286.41965,174.39136],[-3.64384,10.04567],[3.80969,-10.50287]],[[291.55861,141.10694],[-2.67951,10.71807],[-0.01502,-4.19469]],[[289.23847,128.15965],[2.27382,3.74099],[-8.72357,-14.35242]],[[245.36225,117.53352],[14.21459,-8.48332],[-1.76508,1.41207]],[[239.90669,121.14978],[1.80303,-1.14827],[0.10756,0.18931]],[[240.18182,121.8132],[-0.07423,-0.25449],[0.7,2.4]],[[238.48182,124.9132],[0,0],[-1.23591,0.36047]],[[234.80447,126.01815],[1.21611,-0.37692],[-0.36807,0.42159]],[[232.94714,126.77127],[0.91039,0],[-0.15443,0]],[[232.51188,126.74383],[0.13594,0.0179],[-6.56927,2.12444]],[[213.33094,134.45711],[6.2911,-3.14235],[-3.32605,1.66133]],[[204.31977,140.66881],[2.4752,-2.91231],[-2.08862,2.45745]],[[199.0554,148.78662],[1.77445,-2.69308],[-2.27855,3.45814]],[[195.89069,160.31159],[-0.01914,-4.11002],[0.01626,3.49054]],[[197.02877,170.36687],[-1.27981,-3.29452],[3.1981,7.4912]],[[213.12541,190.85751],[-7.2062,-5.0583],[0.3168,-0.69669]]],&quot;closed&quot;:true}]}" fill="url(#color-2)"></path><path d="M97.24315,194.6547c-0.01973,-0.00994 -0.03927,-0.01993 -0.05864,-0.03001c-0.9852,2.53273 -1.73787,5.87893 -0.74272,7.17494c2.0449,2.66315 9.16187,2.8331 12.10097,1.75587c1.8528,-0.67909 4.02128,-1.33223 5.11654,-3.03988c1.4639,-2.28239 -0.30056,-11.10288 -2.50901,-12.50796c-0.99287,-0.63169 -3.6347,0.06145 -4.44188,0.19907c-1.71305,0.97038 -3.3317,2.1268 -4.87554,3.36938l-0.24236,1.46832c0,0 -1.37547,3.10581 -4.34738,1.61028zM100.13144,184.35732c1.43075,-0.98264 2.91773,-1.87902 4.43635,-2.69994c3.48308,-0.57422 6.53659,-1.70613 9.98558,0.51516c5.38353,3.46722 8.02424,16.64754 4.66207,22.08252c-1.08024,1.74622 -6.55373,5.15369 -8.53203,5.84979c-5.63814,1.98391 -15.63645,1.13248 -19.4829,-4.25585c-3.46691,-4.85665 -0.93607,-14.67628 2.62055,-18.79378c1.01075,-1.17016 2.60575,-1.58153 3.90861,-2.37229c0,0 1.15826,-0.6376 2.40177,-0.32561z" fill="#000000"></path><path d="M101.54674,192.99245l0.25141,-1.47536c1.54383,-1.24258 3.2079,-2.4078 4.92095,-3.3782c0.8072,-0.13761 3.47415,-0.82005 4.46703,-0.18836c2.20844,1.40506 3.99914,10.30573 2.53525,12.58812c-1.09526,1.70765 -3.29354,2.39827 -5.14635,3.07736c-2.93908,1.07724 -10.14716,0.87614 -12.19207,-1.78702c-0.99514,-1.29601 -0.24619,-4.69305 0.73903,-7.22578c0.01937,0.01007 0.03888,0.02015 0.05862,0.03009c2.97191,1.49554 4.36614,-1.64082 4.36614,-1.64082z" data-paper-data="{&quot;noHover&quot;:false,&quot;origItem&quot;:[&quot;Path&quot;,{&quot;applyMatrix&quot;:true,&quot;segments&quot;:[[[177.32617,205.32369],[1.5,2],[-0.00996,-0.01328]],[[177.29675,205.28391],[0.00966,0.01324],[-1.53848,1.2712]],[[174.32661,209.60517],[-0.22887,-1.17758],[0.4703,2.4198]],[[181.92421,214.98097],[-2.36229,-0.34531],[1.48919,0.21768]],[[186.437,214.83835],[-1.32939,0.70555],[1.77683,-0.94302]],[[189.03685,205.96785],[1.01368,1.6738],[-0.45573,-0.75251]],[[185.95798,204.53334],[0.59438,0.1959],[-1.49462,0.01749]],[[181.49524,204.97112],[1.47352,-0.25082],[0,0]],[180.82617,205.82369]],&quot;closed&quot;:true}]}" fill="url(#color-3)"></path><path d="M313.74912,182.60597c0.33353,1.5164 1.10079,3.20264 1.89275,4.79129c0.8786,1.76243 1.00521,3.21162 2.97307,3.96188c2.59816,0.99056 6.68992,-1.20075 9.08817,-2.08763c2.0814,-0.76972 7.44769,-2.30994 9.1126,-4.14843c2.66618,-2.94416 0.49108,-9.0679 -1.66447,-11.52147c-7.66904,0.27277 -13.92134,2.24673 -20.68334,5.96909l1.79874,-0.40129c0,0 0.08507,2.96749 -2.51752,3.43655zM316.54315,170.8576c6.70927,-2.99194 13.39091,-4.4258 21.16405,-3.56168c5.64194,5.46983 10.09772,15.2136 3.94692,22.55122c-2.28328,2.72385 -8.61184,4.78861 -11.71086,5.93817c-3.935,1.45965 -9.20379,3.79597 -13.45037,2.06129c-6.63688,-2.71108 -12.02109,-14.98843 -8.52754,-21.82165c2.49221,-4.87464 4.08417,-4.25304 8.44512,-5.15152c0,0 0.04778,-0.00797 0.13271,-0.01584z" fill="#000000"></path><path d="M316.20333,179.15079l-1.79977,0.40603c6.762,-3.72236 13.12655,-5.72867 20.79559,-6.00144c2.15555,2.45357 4.34621,8.64165 1.68002,11.58581c-1.66491,1.83848 -7.0815,3.42836 -9.16291,4.19806c-2.39825,0.88688 -6.54603,3.06183 -9.14419,2.07128c-1.96786,-0.75025 -2.11054,-2.22176 -2.98913,-3.98419c-0.79197,-1.58866 -1.56567,-3.30151 -1.89922,-4.81792c2.6026,-0.46906 2.51961,-3.45767 2.51961,-3.45767z" data-paper-data="{&quot;noHover&quot;:false,&quot;origItem&quot;:[&quot;Path&quot;,{&quot;applyMatrix&quot;:true,&quot;segments&quot;:[[[285.03743,207.56997],[1.92514,0.61544],[-0.2953,1.08573]],[[284.67295,211.29546],[0.00944,-1.29306],[-0.01047,1.43449]],[[285.3258,214.87103],[-1.07575,-1.17101],[1.42031,1.54608]],[[292.20292,216.7329],[-1.93029,-0.27675],[1.67527,0.24018]],[[299.80511,217.2872],[-1.76045,0.58884],[2.81919,-0.94297]],[[302.63817,209.34365],[0.61735,2.32485],[-5.29138,-2.52203]],[[286.56811,205.88417],[5.86262,0],[0,0]],[287.92515,206.26027]],&quot;closed&quot;:true}]}" fill="url(#color-4)"></path><path d="M267.24411,107.081c-3.13194,0.95641 -4.08855,-2.3554 -4.08855,-2.3554l-0.3147,-1.85645c-5.18752,-7.17862 -11.62605,-14.20778 -20.58661,-15.63277c-2.99931,-0.47698 -5.99154,0.81428 -8.98657,1.22674c0,0 -3.24038,0.44605 -3.71376,-2.9721c-0.47336,-3.41815 2.76701,-3.86422 2.76701,-3.86422c3.495,-0.48089 7.00535,-1.7639 10.5103,-1.24781c10.90095,1.60511 18.80909,9.62878 25.18782,18.35258l1.40038,4.08123c0,0 0.9566,3.3118 -2.17535,4.26821z" fill="#d3faff"></path><path d="M216.93111,147.32435c-2.04241,1.4899 -3.48922,-0.68304 -3.48922,-0.68304l-0.90393,-1.55914c-0.61508,-1.97826 -0.8022,-4.12558 -1.7156,-5.97586c-3.5629,-7.21741 -4.41875,-0.41571 -4.434,3.29375c-0.02402,5.84649 0.60922,11.37769 2.13653,17.02499c0,0 0.68458,2.54494 -1.72293,3.2267c-2.4075,0.68177 -3.09208,-1.86318 -3.09208,-1.86318c-1.83337,-6.84943 -3.59422,-15.31777 -2.27262,-22.37163c0.8416,-4.49189 4.15711,-10.62047 9.64374,-6.88572c4.3053,2.93063 4.8082,7.46822 6.21212,11.98098l0.2336,0.14931c0,0 1.44681,2.17295 -0.59559,3.66285z" fill="#000000"></path><path d="M234.06444,144.63805c-2.47382,0.36084 -2.8545,-2.24901 -2.8545,-2.24901l0.1804,0.34796c-0.98199,-2.03152 -1.81312,-4.13826 -2.6989,-6.21702c-0.53296,-1.25077 -0.79008,-3.70789 -2.06609,-3.49598c-0.30813,0.05117 0.13593,0.65425 0.11257,0.98209c-0.05839,0.81908 -0.22561,1.62391 -0.356,2.43259c-0.57629,3.57415 -0.04842,6.1695 1.41302,9.46496c0,0 1.04564,2.41031 -1.22842,3.47424c-2.27406,1.06393 -3.3197,-1.34637 -3.3197,-1.34637c-0.48712,-1.14318 -1.16041,-2.21989 -1.46136,-3.42952c-1.41102,-5.67146 -0.95527,-22.16159 8.95161,-14.64925c2.40831,1.82621 3.75195,7.65629 5.10625,10.449l0.31425,1.26562c0,0 0.38068,2.60985 -2.09314,2.97069z" fill="#000000"></path><path d="M213.16091,162.29241c-0.33827,-0.52732 -0.68567,-1.06308 -1.05318,-1.60146c0,0 -2.0943,-3.14541 0.86213,-5.30207c2.95645,-2.15667 5.05074,0.98872 5.05074,0.98872c0.74674,1.15876 3.01582,5.82457 5.29936,6.14256c1.44529,0.20127 2.85412,-0.55352 4.27698,-0.85145c6.07308,-1.27164 8.34232,-1.34072 10.76037,-7.1905l1.36673,-3.50017c0.45346,-1.22195 1.50093,-2.15274 2.8282,-2.34634c1.57717,-0.23005 3.07309,0.65032 3.76866,2.07452l3.44264,6.66514l-0.3693,0.20713c2.63956,4.26065 4.65264,8.94247 4.64223,14.01541c-0.02398,11.68329 -7.32332,18.53291 -17.03684,22.11423c-1.79908,0.66332 -8.92488,2.76113 -10.99266,1.99537c-2.1025,-0.77861 -3.564,-2.85086 -5.20679,-4.44637c-8.19145,-7.95578 -8.37215,-16.74034 -7.95154,-27.71365z" fill="#000000"></path></g></g></svg>