<svg version="1.1" xmlns="http://www.w3.org/2000/svg" xmlns:xlink="http://www.w3.org/1999/xlink" width="104.26362" height="100.39901" viewBox="0,0,104.26362,100.39901"><g transform="translate(-191.91789,-136.66463)"><g data-paper-data="{&quot;isPaintingLayer&quot;:true}" stroke-miterlimit="10" stroke-dasharray="" stroke-dashoffset="0" style="mix-blend-mode: normal"><path d="M237.94304,202.5282c0.20089,0.69077 0.60264,1.97376 1.03504,3.6839c0.82115,3.2476 1.75287,8.03559 1.62953,13.23328l-0.0359,0.39355c-0.0359,0.39355 0.39251,0.72926 0.85681,0.6714c2.95469,-0.80048 8.76274,-2.12942 8.59149,3.38227c-0.10371,5.33034 -17.43292,9.95381 -19.68451,5.00341c-0.74698,-2.15495 0.52146,-3.48023 1.22219,-4.17277c0.36724,-0.3916 0.5361,-0.84496 0.60578,-1.32918c0.0085,-1.21153 -0.04202,-3.45325 -0.3606,-5.2725c-0.72997,-4.57801 -1.28495,-5.76256 -2.09735,-8.03903c-0.81241,-2.27648 -2.92888,-7.58957 1.49476,-9.95648c3.75883,-2.06792 6.12663,0.4903 6.74277,2.40215z" fill="#000000" fill-rule="evenodd" stroke="#ff7b00" stroke-width="2" stroke-linecap="round" stroke-linejoin="round"/><path d="M231.98401,210.15273c-0.21791,0.68644 -0.59814,1.9749 -1.19325,3.6437c-1.13014,3.16909 -3.03522,7.70974 -6.07532,12.1036l-0.25293,0.32016c-0.25293,0.32016 -0.07552,0.80981 0.35484,0.97928c2.98273,0.70823 8.70785,2.3099 5.44946,6.95011c-3.09817,4.51674 -20.55164,0.30187 -19.68538,-5.00055c0.57679,-2.1982 2.41147,-2.73497 3.40267,-2.99759c0.53564,-0.16218 0.93622,-0.47084 1.26929,-0.85273c0.69128,-1.03373 1.9136,-2.97768 2.66781,-4.68623c1.95934,-4.26563 2.15274,-5.54205 2.7421,-7.8752c0.58936,-2.33316 1.77611,-7.8825 6.90142,-7.82299c4.38708,0.00196 4.97091,3.3102 4.41929,5.23845z" fill="#000000" fill-rule="evenodd" stroke="#ff7b00" stroke-width="2" stroke-linecap="round" stroke-linejoin="round"/><g fill="#000000" fill-rule="evenodd" stroke="#ff7b00" stroke-width="2"><path d="M225.94613,205.02414c0.82105,0.4131 2.56369,1.33877 -0.08983,4.50202c-2.65352,3.16325 -9.90677,3.57214 -10.74438,3.54188c-3.24983,-0.02158 -7.22842,-0.16535 -11.56787,-1.66414c-12.60782,-4.28985 -12.17033,-16.83128 -8.00014,-18.69358c4.0655,-1.86608 5.51016,5.95052 11.06585,10.84824c2.42174,2.19637 5.42492,3.07174 7.91702,3.64106c3.53495,0.70288 10.49772,-2.68807 11.41933,-2.17549z" stroke-linecap="round" stroke-linejoin="round"/><path d="M200.31582,196.33359c1.56345,2.64462 4.65187,6.39879 4.65187,6.39879c0,0 -3.83664,-1.00134 -6.1057,0.54622c-1.8337,1.17987 -1.50595,3.30057 -1.32553,3.97808c-1.30729,-1.29337 -2.90798,-3.07664 -3.81013,-6.46423c-0.90214,-3.38759 0.31869,-7.36945 2.43751,-7.86803c2.11055,-0.30716 2.57197,1.14736 4.15197,3.40917z" stroke-linecap="butt" stroke-linejoin="miter"/></g><path d="M248.11271,196.90472c0.44732,0.45138 5.50347,8.15624 7.88048,6.74066c2.84202,-1.64186 6.95941,-5.04811 10.10746,-1.40022c3.14805,3.64788 -4.84385,7.96821 -8.09861,8.9692c-7.66302,1.93737 -12.42746,-4.46345 -13.39036,-6.15312c-0.96292,-1.68966 -2.66531,-4.55182 -2.21586,-7.01504c0.58732,-2.63821 4.22025,-2.80885 5.71691,-1.1415z" fill="#000000" fill-rule="evenodd" stroke="#ff7b00" stroke-width="2" stroke-linecap="round" stroke-linejoin="round"/><g fill="#000000" fill-rule="evenodd" stroke="#ff7b00" stroke-width="2"><path d="M228.10333,210.4543c-10.00481,-6.77082 -3.33979,-10.98952 -1.21978,-15.8956c2.01197,-4.21583 3.2677,-3.59972 9.66711,-3.2413c3.60071,0.03231 5.71963,0.05688 7.98925,-0.32413c3.41154,-0.52407 3.47158,4.10892 2.89295,6.59834c0,0 -0.92696,3.69319 -2.00618,5.66525c-1.33375,2.39066 -2.36607,3.97016 -3.48378,4.98028c0,0 -2.40169,2.17151 -4.81737,2.55852c-2.17143,0.34787 -9.0222,-0.34135 -9.0222,-0.34135z" stroke-linecap="round" stroke-linejoin="round"/><path d="M240.99437,208.25928c0,0 -1.72789,-0.94365 -3.60229,-2.159c-2.33231,-1.44801 -4.62195,-2.61132 -2.98677,-5.81317c1.52715,-2.51157 2.83667,-5.76929 7.92076,-3.60258c4.84801,2.00294 3.23128,4.62241 3.23128,4.62241c-1.64362,4.55637 -4.56301,6.95233 -4.56301,6.95233z" stroke-linecap="butt" stroke-linejoin="miter"/></g><g><path d="M271.99724,146.52448c0.36378,-0.0932 0.8295,0.14614 0.79938,0.5401l-0.88056,10.51613c0,0 4.85189,6.17839 5.67441,9.74731c1.40409,5.95809 0.04395,10.08617 0.04395,10.08617c0,0 6.39277,4.01799 5.7393,9.56517c-0.65345,5.54718 -8.54081,14.07864 -28.47219,11.87363c-19.93137,-2.20501 -33.32164,-11.32755 -36.6975,-23.81562c-3.37586,-12.48807 12.19487,-21.55323 11.33755,-21.00254c0,0 4.13983,-14.82656 4.47348,-14.5258l9.69311,8.16537c0,0 5.03498,-0.21389 9.78265,0.99766c2.85462,0.64815 5.18094,1.54197 7.34277,2.58831z" fill="#000000" fill-rule="evenodd" stroke="#ff7b00" stroke-width="2" stroke-linecap="butt" stroke-linejoin="miter"/><path d="M295.18151,184.14759c-5.91549,2.06717 -13.12153,0.02322 -13.12153,0.02322" fill="#000000" fill-rule="evenodd" stroke="#ff7b00" stroke-width="2" stroke-linecap="round" stroke-linejoin="round"/><path d="M290.25302,193.96263c-6.43912,-1.41278 -9.70846,-4.2997 -9.70846,-4.2997" fill="#000000" fill-rule="evenodd" stroke="#ff7b00" stroke-width="2" stroke-linecap="round" stroke-linejoin="round"/><path d="M259.62156,174.77288c2.0923,0.62272 4.21937,1.45725 4.09192,2.12443c-0.35452,1.30472 -2.75733,3.41005 -4.38391,3.02667c-1.85829,-0.35162 -5.2319,-3.87395 -4.71287,-5.33117c0.28965,-1.12256 3.01218,-0.41299 5.00486,0.18007z" fill="#000000" fill-rule="evenodd" stroke="#ff7b00" stroke-width="2" stroke-linecap="round" stroke-linejoin="round"/><path d="M215.27307,160.06272c0,0 7.66018,5.10032 10.14171,8.96154" fill="#000000" fill-rule="evenodd" stroke="#ff7b00" stroke-width="2" stroke-linecap="round" stroke-linejoin="round"/><path d="M224.57831,172.3009c-4.83571,0.2732 -11.85177,-2.92299 -11.85177,-2.92299" fill="#000000" fill-rule="evenodd" stroke="#ff7b00" stroke-width="2" stroke-linecap="round" stroke-linejoin="round"/><g fill="none" fill-rule="nonzero" stroke="none" stroke-width="1" stroke-linecap="butt" stroke-linejoin="miter" font-family="sans-serif" font-weight="normal" font-size="12" text-anchor="start"/><g fill="none" fill-rule="nonzero" stroke="none" stroke-width="1" stroke-linecap="butt" stroke-linejoin="miter" font-family="sans-serif" font-weight="normal" font-size="12" text-anchor="start"/></g><g fill="#000000" fill-rule="nonzero" stroke="#ff7b00" stroke-width="2" stroke-linejoin="miter"><g><path d="M256.18003,212.44108l7.78336,-20.13049l12.2244,5.78426l-12.9514,16.8733c0,0 -2.68566,0.6038 -3.82513,0.19573c-1.2086,-0.43283 -3.23125,-2.72281 -3.23125,-2.72281z" stroke-linecap="butt"/><path d="M263.94531,190.81369c1.99614,-3.46431 6.66068,-4.83124 10.4185,-3.05314c3.75784,1.7781 5.18596,6.02792 3.18981,9.49221c-1.99614,3.46431 -6.6607,4.83125 -10.41851,3.05314c-3.75784,-1.7781 -5.18595,-6.02792 -3.18981,-9.49223z" stroke-linecap="butt"/><path d="M264.76068,198.02738c0,0 1.3924,-4.2704 2.42997,-6.12121c0.96973,-1.72977 3.60568,-4.64502 3.60568,-4.64502" stroke-linecap="round"/><path d="M271.16388,200.90238c0,0 1.6129,-5.33706 2.51111,-7.32309c0.66366,-1.46739 2.39072,-3.51524 2.39072,-3.51524" stroke-linecap="round"/><path d="M263.676,191.16746c0,0 5.25773,-0.24255 7.81261,0.36514c2.22271,0.52868 6.65942,3.0771 6.65942,3.0771" stroke-linecap="round"/><path d="M263.00007,196.42031c0,0 5.79274,0.07111 8.33308,0.42911c1.97475,0.27829 5.6441,1.54062 5.6441,1.54062" stroke-linecap="round"/></g><path d="M269.45835,210.25353c-1.32373,2.31393 -4.5375,3.46289 -7.17821,2.56624c-2.64071,-0.89664 -4.28435,-2.93729 -2.96061,-5.25125c1.32373,-2.31393 5.11353,-4.02493 7.75423,-3.12827c2.64071,0.89664 3.70831,3.49933 2.38458,5.81328z" stroke-linecap="butt"/></g><g fill="#000000" fill-rule="nonzero" stroke="#ff7b00" stroke-width="2" stroke-linecap="butt" stroke-linejoin="miter"><path d="M242.27218,154.14972c-2.7933,3.5646 -25.19687,5.1026 -25.19687,5.1026c0,0 -2.82361,-0.96291 -4.13037,-1.48125c-9.7867,-3.88201 -15.46613,-9.00061 -13.00187,-12.14531c2.7933,-3.5646 14.99251,-3.24312 27.24768,0.71803c12.25519,3.96114 17.87472,4.24133 15.08142,7.80592z"/><path d="M228.37512,145.60172l-10.55833,-6.81227c0,0 16.48181,-1.61794 24.98314,-0.97293c10.28184,0.7801 32.38821,5.32579 32.38821,5.32579l-19.67848,12.17994z"/><path d="M214.26721,159.38426c0,0 -0.56881,-7.55375 0.00062,-10.97428c0.55243,-3.31841 3.3665,-9.25187 3.3665,-9.25187l27.444,3.81759c0,0 -1.87782,7.166 -2.45495,10.63288c-0.54316,3.26277 -0.91215,9.59327 -0.91215,9.59327z" data-paper-data="{&quot;index&quot;:null}"/><path d="M241.28784,163.07994c0,0 1.00247,-6.28812 1.09337,-9.58742c0.09659,-3.50569 -0.52983,-10.86513 -0.52983,-10.86513l33.9757,0.78228c0,0 2.03755,6.30181 1.9451,9.65736c-0.0953,3.45882 -2.50866,10.79516 -2.50866,10.79516z"/></g><path d="M227.03064,201.48668c-1.5466,3.69917 -0.65209,7.70615 -2.65015,9.31176c-1.30401,1.04788 -3.09872,1.56822 -4.10135,1.21795c-1.11748,-0.3904 -2.54201,-2.24999 -2.67131,-4.12467c-0.16448,-2.38451 -1.20228,-6.19449 0.22866,-9.61709c1.26228,-3.01912 4.99558,-5.43388 6.64447,-7.14653c1.68992,-1.75529 3.76912,-1.69925 5.05416,-1.25031c1.38737,0.48469 2.523,1.79271 2.38759,4.42708c-0.11239,2.18657 -3.73279,4.40905 -4.89206,7.18181z" fill="#000000" fill-rule="nonzero" stroke="#ff7b00" stroke-width="2" stroke-linecap="butt" stroke-linejoin="miter"/><path d="M248.62645,170.75043c0,0 -2.95408,0.68966 -4.40148,0.35772c-1.66467,-0.38176 -5.02619,-2.51982 -5.02619,-2.51982" fill="#000000" fill-rule="nonzero" stroke="#ff7b00" stroke-width="2" stroke-linecap="round" stroke-linejoin="miter"/><path d="M274.3203,173.5052c0,0 -2.88538,0.93637 -4.35562,0.7277c-1.69094,-0.23999 -5.22082,-2.08688 -5.22082,-2.08688" fill="#000000" fill-rule="nonzero" stroke="#ff7b00" stroke-width="2" stroke-linecap="round" stroke-linejoin="miter"/></g></g></svg>