<svg version="1.1" xmlns="http://www.w3.org/2000/svg" xmlns:xlink="http://www.w3.org/1999/xlink" width="69.80481" height="118.1686" viewBox="0,0,69.80481,118.1686"><g transform="translate(-211.10635,-119.81248)"><g data-paper-data="{&quot;isPaintingLayer&quot;:true}" fill="#9966ff" fill-rule="nonzero" stroke="none" stroke-width="0.5" stroke-linecap="butt" stroke-linejoin="miter" stroke-miterlimit="10" stroke-dasharray="" stroke-dashoffset="0" style="mix-blend-mode: normal"><path d="M241.52438,182.66684l0.48453,-0.26467c5.85681,-5.8495 11.51961,-12.81477 18.2613,-17.67933c-0.31096,0.04608 -0.5974,0.07224 -0.81894,0.00903c-0.81763,-0.2333 -1.719,-0.45498 -2.49021,-0.84365c-0.67878,0.33972 -1.73999,0.55263 -2.80121,-0.50858v-0.00002c-1.76777,-1.76777 0,-3.53553 0,-3.53553l0.1277,-0.12688c-0.3154,-2.75833 1.84007,-5.02662 4.33037,-6.65658c1.1569,-3.62063 0.53917,-7.06843 -0.97368,-11.63022c-0.07021,-0.13971 -0.14163,-0.28067 -0.21424,-0.42278c-0.1905,0.10072 -0.39557,0.17754 -0.61124,0.22648l-2.56345,0.64086c-0.44635,0.14912 -0.89237,0.30072 -1.33826,0.45376c-0.93396,0.46925 -2.10333,0.88442 -3.8722,1.50822c-0.39373,0.13885 -0.96853,0.35969 -1.53591,0.52956c0.43652,0.27596 0.85722,0.57909 1.14809,0.78339l1.78627,1.42427c0,0 1.95217,1.56174 0.39043,3.51391c-1.56174,1.95217 -3.51391,0.39043 -3.51391,0.39043l-1.56899,-1.25994c-1.14941,-0.83212 -3.21444,-2.07849 -4.31813,-3.64844c-0.6671,-0.16392 -1.39216,-0.6264 -1.68702,-1.80587c-0.60634,-2.42536 1.81902,-3.0317 1.81902,-3.0317c3.23023,-0.79689 6.40028,-1.97222 9.56672,-3.07015c0.56463,-0.41208 1.12312,-0.85893 1.64939,-0.56446c0.00072,0.0004 0.00144,0.00081 0.00216,0.00121c0.03233,-0.01079 0.06466,-0.02157 0.09699,-0.03233l0.09968,0.00313l-0.00705,-0.02819l1.95278,-0.48819c-2.83115,-4.55391 -6.64988,-9.13955 -11.27301,-10.847c-4.39069,-1.6216 -10.2116,-0.90801 -15.21927,1.15685c2.24193,3.09612 4.85741,6.61877 5.93515,10.19911c0.49288,1.63739 1.87368,3.66757 0.87401,5.05488c-1.62451,2.25442 -3.93451,2.1624 -6.16457,1.33784c0.16974,0.56931 0.36059,1.13073 0.59988,1.6743c1.45862,3.31339 6.16459,5.562 9.40903,6.33986c0,0 2.42536,0.60634 1.81902,3.03169c-0.60634,2.42535 -3.03169,1.81902 -3.03169,1.81902c-6.56601,-1.69424 -11.48,-5.60338 -13.52404,-12.08339c-0.12236,-0.38791 -0.31502,-0.77445 -0.50194,-1.15929c-0.34062,1.50559 -0.76315,2.99476 -1.01993,4.51659c-0.74238,4.39975 -1.3287,10.62714 1.37934,14.33028c2.20175,2.03107 5.99814,1.55292 8.90447,1.5494l0.21601,-0.20723c0,0 2.37171,-0.79057 3.16228,1.58114c0.79057,2.37171 -1.58114,3.16227 -1.58114,3.16227l-1.79715,0.46382c-1.33314,-0.00147 -2.58234,-0.00531 -3.77305,-0.07253c2.99997,1.61635 5.77358,2.53221 9.16326,0.97861c0,0 2.29786,-0.9848 3.28266,1.31306c0.9848,2.29786 -1.31306,3.28266 -1.31306,3.28266c-5.39278,2.20537 -9.74032,0.99102 -14.63962,-1.80489c-1.72733,-0.98574 -3.642,-1.66233 -5.25432,-2.82671c-2.64013,-1.90664 -4.16903,-4.51068 -5.50354,-7.35124c-3.76663,-8.01741 -4.66273,-15.80681 -3.48005,-24.59212c1.45582,-2.98091 2.98829,-6.21231 5.25773,-8.69336c6.34497,-6.9366 19.59119,-11.07969 28.53526,-7.69005c7.72191,2.92646 13.38483,11.48553 16.87654,18.49985c0.91217,2.72481 1.97248,5.76271 2.28216,8.7819c2.39526,-1.26882 5.02492,-2.10866 7.65422,-1.55045c6.77209,1.43774 8.70281,10.09688 8.70786,15.87c0.00074,0.84149 0.03679,5.77424 -0.14932,6.21948c-1.6776,4.01343 -5.22427,4.03802 -8.79039,4.92956l-1.61292,0.07464c0,0 -2.44214,0 -2.49899,-2.41371c-2.19154,-0.54805 -2.89444,-0.59717 -4.31735,-2.89952c-3.5972,2.53934 -6.25555,5.75404 -9.27242,8.97267c-2.77662,2.96231 -5.86005,5.57032 -8.72204,8.43613l-1.24657,0.8894c0,0 -1.52904,1.01936 -2.83919,-0.00079c0.65131,3.19055 1.81067,6.4453 2.48176,9.47349c0.01768,0.07976 0.03504,0.15972 0.0521,0.23989c0.34296,0.64404 0.34296,1.30902 0.34296,1.30902c0,0.18576 0,0.37152 0.00001,0.55728c0.78669,4.95963 0.80806,10.45216 2.52891,15.01615c0.99848,2.64814 2.83955,4.56069 4.40615,6.82305c0.77139,1.11399 0.77152,3.01317 2.02664,3.52376c1.43561,0.58401 3.09371,-0.23603 4.64356,-0.23603c0.89474,0 1.78947,0 2.68421,0h1.00658c0,0 2.5,0 2.5,2.5c0,2.5 -2.5,2.5 -2.5,2.5c-0.89474,0 -2.79605,0 -3.69079,0c-0.94878,0 -6.14229,0.06332 -6.76434,-0.23603c-2.19637,-1.05696 -2.77993,-3.41865 -4.01284,-5.19992c-0.90633,-1.30945 -1.86817,-2.52901 -2.74649,-3.80503c0.0616,2.46695 0.05172,5.27074 -0.54542,6.86049c-1.92352,5.12098 -8.85429,7.67638 -12.99756,10.6385l-0.35638,0.40449c0,0 -1.76777,1.76777 -3.53553,0c-1.76777,-1.76777 0,-3.53553 0,-3.53553l0.98572,-0.93762c2.53338,-1.80802 5.18054,-3.37183 7.78049,-5.07671c0.89613,-0.58762 3.00058,-1.85796 3.37984,-3.07426c0.23523,-0.75441 -0.1554,-1.57779 -0.12447,-2.36742c0.0815,-2.08026 0.33305,-4.15489 0.3317,-6.23675c-0.0038,-5.86744 -0.00022,-11.7349 -0.00001,-17.60235c-0.01084,-0.04958 -0.02176,-0.09916 -0.03277,-0.14874c-0.52575,4.2534 -1.16788,8.49065 -1.69648,12.68813c-0.39335,3.12353 0.45392,6.55666 -2.05561,9.17941c-0.80388,0.84015 -2.08777,1.02445 -3.13165,1.53667l-1.87992,0.94478c0,0 -2.23607,1.11803 -3.3541,-1.11803l0.00002,-0.00001c-1.11803,-2.23607 1.11803,-3.3541 1.11803,-3.3541l2.14639,-1.06837c3.12961,-0.95241 1.85091,-3.96454 2.19432,-6.73128c1.05684,-8.51478 2.68199,-17.22034 2.66548,-25.86559c0,0 0,-1.04409 0.67474,-1.78279c-0.00165,-0.07678 -0.00289,-0.15357 -0.00369,-0.23037c0,0 0,-2.5 2.5,-2.5c2.5,0 2.5,2.5 2.5,2.5c-0.00349,0.2465 -0.00067,0.4943 0.00793,0.74324c0.27536,-0.31699 0.5362,-0.49089 0.5362,-0.49089zM220.51658,132.10861c-1.7446,1.89791 -2.9651,4.47374 -4.137,6.74085c-0.58413,5.30053 -0.34765,10.03975 0.92537,14.76143c0.01427,-3.36213 0.57448,-6.78605 1.28748,-9.98874c0.37336,-1.6771 0.77753,-4.00321 1.67229,-5.78014c-0.17576,-0.52515 -0.17014,-1.18458 0.27521,-1.96394c1.24035,-2.17061 3.41096,-0.93026 3.41096,-0.93026l0.60828,0.34759c0.69643,0.11118 1.48202,0.38471 2.37044,0.85622c0.35001,0.18576 0.56524,0.48091 0.70358,0.83907c0.41325,0.20657 0.82766,0.41132 1.23327,0.62911c-0.6412,-1.30754 -1.23272,-2.93007 -1.6356,-3.65783c-0.48933,-0.88394 -2.35515,-3.47655 -3.26521,-4.74441c-1.318,0.87412 -2.48981,1.84751 -3.44905,2.89105zM276.05722,167.13578c0.84755,-4.31544 -0.19764,-9.54866 -2.43869,-13.2347c-0.84504,-1.38991 -0.85301,-1.98693 -2.42382,-2.25476c-1.86352,-0.31774 -3.92599,0.69064 -5.68665,1.82368c0.1453,1.6607 -1.54958,2.38708 -1.54958,2.38708c-0.08492,0.03576 -0.44938,0.18394 -0.9412,0.40749c-0.66837,1.30307 -1.48146,2.54675 -2.30457,3.72871c0.91053,-0.03637 1.96414,-0.42109 2.77651,-0.06106c4.56247,2.02206 2.36131,6.14936 6.80133,6.97138l0.99582,-0.37615c0,0 2.27476,-0.37913 2.81885,1.77566c0.99638,-0.26229 1.8469,-0.63218 1.952,-1.16732z"></path></g></g></svg>