<svg version="1.1" xmlns="http://www.w3.org/2000/svg" xmlns:xlink="http://www.w3.org/1999/xlink" width="142.96921" height="239.25751" viewBox="0,0,142.96921,239.25751"><g transform="translate(-163.80663,-90.46661)"><g data-paper-data="{&quot;isPaintingLayer&quot;:true}" fill-rule="nonzero" stroke-miterlimit="10" stroke-dasharray="" stroke-dashoffset="0" style="mix-blend-mode: normal"><g stroke-linecap="butt" stroke-linejoin="miter"><g fill="#686868" stroke="#000000" stroke-width="1"><path d="M195.90828,328.91508v-104.61283h101.23822v104.61283z"/><path d="M177.34795,319.63494v-104.61283l18.56034,9.28017v104.61283z"/><path d="M195.79516,223.83145l-17.71669,-8.85834l102.92552,1.26548l16.45121,8.43652z"/></g><path d="M199.48505,229.00102c0,-0.82843 0.67157,-1.5 1.5,-1.5c0.82843,0 1.5,0.67157 1.5,1.5c0,0.82843 -0.67157,1.5 -1.5,1.5c-0.82843,0 -1.5,-0.67157 -1.5,-1.5z" fill="#b9b9b9" stroke="none" stroke-width="0.5"/><path d="M291.48505,229.66768c0,-0.82843 0.67158,-1.5 1.5,-1.5c0.82842,0 1.5,0.67157 1.5,1.5c0,0.82843 -0.67158,1.5 -1.5,1.5c-0.82842,0 -1.5,-0.67157 -1.5,-1.5z" fill="#b9b9b9" stroke="none" stroke-width="0.5"/><path d="M292.81838,325.33435c0,-0.82842 0.67158,-1.5 1.5,-1.5c0.82842,0 1.5,0.67158 1.5,1.5c0,0.82842 -0.67158,1.5 -1.5,1.5c-0.82842,0 -1.5,-0.67158 -1.5,-1.5z" fill="#b9b9b9" stroke="none" stroke-width="0.5"/><path d="M198.81838,326.33435c0,-0.82842 0.67157,-1.5 1.5,-1.5c0.82843,0 1.5,0.67158 1.5,1.5c0,0.82842 -0.67157,1.5 -1.5,1.5c-0.82843,0 -1.5,-0.67158 -1.5,-1.5z" fill="#b9b9b9" stroke="none" stroke-width="0.5"/></g><path d="M230.08407,213.23201c0.99565,-1.54425 3.61808,-3.16104 5.03335,-2.16209c1.33049,0.9388 1.07517,2.24386 1.07517,2.24386c-0.24895,1.50959 -0.57458,4.30174 -1.17322,6.09457c-0.10691,0.31665 -0.21891,0.60834 -0.3358,0.89743l0.01235,-0.01436c0,0 1.21187,1.8096 0.24688,2.29888c-0.58138,0.29586 -1.20788,0.1709 -1.61892,0.03268c-0.77274,0.87076 -1.68063,1.29923 -2.75437,1.13568c-2.51298,-0.38182 -2.81386,-4.69017 -2.81386,-4.69017c-0.02289,-1.10218 1.33279,-4.29222 2.32843,-5.83647v0v0v0v0v0z" data-paper-data="{&quot;index&quot;:null}" fill="#be1e2d" stroke="#231f20" stroke-width="0.78673" stroke-linecap="round" stroke-linejoin="round"/><g stroke-width="0.90025"><path d="M249.66242,211.15407v0v0v0v0v0c0.09339,2.74805 -1.22657,7.64841 -4.79196,9.03548c-3.52607,1.36844 -7.00744,0.76028 -10.35795,-1.92768c-2.77592,-2.22777 -2.02012,-7.6647 -1.32236,-10.67703v0c0,0 0.9054,-7.04493 7.42527,-7.22422c6.51787,-0.1794 8.81546,5.5478 8.88735,8.97443c0.08127,0.61056 0.13841,1.23083 0.15964,1.819z" fill="#be1e2d" stroke="#000000" stroke-linecap="butt" stroke-linejoin="miter"/><path d="M246.92265,218.70585v0v0v0v0v0l-0.03327,0.13628c-0.57068,0.57568 -1.24185,1.04382 -2.01775,1.3458c-3.26614,1.26784 -6.49256,0.84024 -9.6134,-1.36645l-0.01727,-0.14259c0,0 -0.65019,-9.15311 5.57629,-8.88963c7.06991,0.30221 6.33773,7.42215 6.10542,8.9166z" fill="#e6e7e8" stroke="#231f20" stroke-linecap="round" stroke-linejoin="round"/></g><g stroke="#000000" stroke-width="0.90025" stroke-linecap="round" stroke-linejoin="round"><path d="M287.70954,182.925l-0.5004,1.52138c-2.80595,7.69436 -7.05248,12.21293 -7.05248,12.21293c0,0 0.10428,-1.36001 -0.06802,-3.53343l-0.13968,-0.03979c-0.35238,1.15948 -0.94729,2.65963 -1.96144,4.52233c-2.22375,4.09051 -9.09152,7.69164 -9.09152,7.69164c0,0 0.37997,-1.39309 0.56219,-3.65738l-0.112,-0.3416c-0.73729,0.56672 -1.50465,1.09066 -2.28102,1.60178c-0.22841,0.15132 -0.45685,0.29907 -0.68934,0.44257c-0.70735,0.44154 -1.42868,0.86422 -2.16616,1.26123c-0.29146,0.15515 -0.59478,0.30031 -0.89036,0.44948c-0.53917,0.27304 -1.08656,0.53228 -1.64265,0.78405c-0.40859,0.18278 -0.82005,0.36488 -1.23962,0.53579c-0.43425,0.17938 -0.88144,0.3425 -1.32554,0.51174c-0.81688,0.30259 -1.64676,0.58737 -2.49642,0.85272c-0.27721,0.08646 -0.55452,0.17292 -0.83678,0.25431c-0.60636,0.17656 -1.21769,0.34968 -1.84093,0.50583l0.00196,0.00168c-3.12861,0.78876 -6.45914,1.34742 -10.03542,1.67487c-3.86916,0.35334 -7.38608,0.43833 -10.67779,0.33973v0c-2.60471,-0.07925 -5.04803,-0.28393 -7.3661,-0.59433c-0.1121,-0.01451 -0.22528,-0.02985 -0.33833,-0.04434c-0.71681,-0.10049 -1.42262,-0.20914 -2.11552,-0.32872c-0.24189,-0.04337 -0.47357,-0.09137 -0.71447,-0.13642c-0.92098,-0.16945 -1.81716,-0.35908 -2.70163,-0.56311c-0.5591,-0.12942 -1.11468,-0.26257 -1.65826,-0.40563c-0.32284,-0.08246 -0.64681,-0.16935 -0.96326,-0.25728c-0.8643,-0.24319 -1.72123,-0.4909 -2.55355,-0.76141l-0.13753,0.1315c0.392,2.04084 1.20097,3.11846 1.83289,3.62318c1.28821,1.03055 3.69527,1.20325 3.69527,1.20325c0,0 -7.28841,1.20017 -11.48783,-3.89582c-0.44618,-0.5417 -0.89694,-1.10344 -1.32751,-1.70348l-0.1888,-0.34508c-0.87733,-0.23827 -1.76954,-0.56443 -2.65463,-0.99322c-5.39756,-2.63497 -6.15448,-4.93519 -6.15448,-4.93519l0.1446,0.84767c0.59798,2.20173 1.15072,3.58542 1.15072,3.58542c0,0 -6.47347,-3.48561 -9.51322,-8.93795c-2.45101,-4.40135 -2.74029,-7.10854 -2.77369,-7.56398l-0.27787,-1.62228c-0.393,-6.37677 -0.25175,-13.54933 0.41344,-20.62361l0.05098,-0.18973c0.62636,-5.47249 -0.55502,-14.46246 6.88154,-23.95824c13.93545,-17.78943 28.9051,-17.70199 37.3311,-30.78502c6.19776,-9.62477 4.07627,-20.3463 4.07627,-20.3463c0,0 4.24392,5.14255 5.97699,8.18854c1.67894,2.96905 3.49865,6.80786 3.49865,6.80786l0.05247,-0.03503c0.03225,-0.11486 0.06062,-0.23212 0.08427,-0.34922c0.36645,-1.82375 0.08535,-4.49199 0.08535,-4.49199c0,0 4.26238,10.29029 10.74259,16.91004c6.47629,6.61648 15.51895,8.26038 27.77551,31.26027c1.52517,2.85805 2.93266,5.2593 3.74199,7.94697l0.37985,1.54972c1.18229,4.84284 1.33512,18.32903 -0.50435,24.22109zM214.28819,162.50999c0,0 -7.04841,7.29698 -6.17159,17.08361c0.7758,8.65924 3.31331,11.2551 4.64954,11.88085c1.37373,0.63932 3.44461,0.16154 3.44461,0.16154c0,0 -5.78772,3.0953 -10.75788,-0.66413c-3.32435,-2.51287 -6.96342,-5.77674 -8.32746,-15.28852M275.92203,176.03625c0,0 1.00775,2.38088 -1.0102,7.49891c-2.2698,5.76599 -7.46973,7.70421 -7.46973,7.70421c0,0 4.02798,-8.9013 0.02272,-17.00273c-1.74815,-3.53954 -6.80605,-6.04706 -12.04942,-7.76027c-7.10559,-2.32361 -14.55066,-3.18723 -14.55066,-3.18723M279.97724,192.9898c-0.34805,1.17332 -0.95086,2.70958 -1.99523,4.62229c-2.22281,4.09047 -9.09058,7.6916 -9.09058,7.6916c0,0 1.10365,-4.06426 0.45003,-9.58556M198.90119,182.6658c-0.66978,1.25966 -1.16978,2.60257 -1.42331,4.01142c-1.59472,8.78449 2.21277,18.26925 2.21277,18.26925c0,0 -6.47152,-3.48403 -9.51323,-8.93805c-2.6965,-4.84065 -2.77642,-7.63208 -2.77642,-7.63208M287.20468,184.45265c-2.80783,7.69443 -7.05342,12.21296 -7.05342,12.21296c0,0 0.60401,-7.72713 -3.40893,-15.82917c-0.18103,-0.36633 -0.38346,-0.72143 -0.59669,-1.06567M240.86569,163.28909c0,0 1.26607,0.26435 4.6716,2.58646c3.40563,2.32211 4.72912,4.93782 4.72912,4.93782c0,0 -9.86224,-2.04423 -15.34176,-3.65754c-5.47392,-1.61524 -23.88614,-5.58102 -23.88614,-5.58102M211.39236,200.58097c2.80233,3.75696 5.64107,5.75572 5.64107,5.75572c0,0 -6.40428,2.07839 -12.48356,-0.88646c-5.39756,-2.63487 -6.15448,-4.93519 -6.15448,-4.93519M269.33982,201.30653c-6.78334,5.21005 -15.15619,7.93681 -25.43561,8.87759c-12.25531,1.12154 -21.30042,-0.23015 -29.08611,-2.7516M214.57959,206.93169c0.33106,2.45308 1.23753,3.69969 1.93189,4.25297c1.28916,1.03052 3.69622,1.20322 3.69622,1.20322c0,0 -7.29029,1.20024 -11.48877,-3.89579c-0.44618,-0.5417 -0.89694,-1.10344 -1.32751,-1.70348M241.58637,163.55645c0,0 26.87634,2.09999 27.41862,15.60952" fill="#be1e2d"/><path d="M274.48784,184.9354c-0.60786,9.75011 -12.27391,20.30163 -29.90359,21.86407c-15.56379,1.38734 -38.87506,-4.30962 -42.69937,-16.14363c-0.38051,-1.18948 -0.60355,-2.34318 -0.6964,-3.45589l0.3481,0.2172c1.24815,1.56273 2.60764,2.67389 3.9207,3.66424c4.9701,3.75768 10.75781,0.66238 10.75781,0.66238c0,0 -2.0708,0.47953 -3.44453,-0.15979c-1.33623,-0.62575 -3.87373,-3.22161 -4.64954,-11.88085c-0.87688,-9.78837 6.17159,-17.08361 6.17159,-17.08361l0.01643,-0.22623c5.54301,1.21759 16.58763,3.6804 20.61807,4.87039c5.47955,1.61417 15.34176,3.65754 15.34176,3.65754c0,0 -1.32349,-2.61571 -4.72912,-4.93782c-1.70466,-1.16138 -2.87161,-1.80781 -3.61194,-2.16454l0.68368,0.07531c0,0 20.74173,2.11219 24.8596,10.45018c4.00434,8.10233 -0.02177,17.00269 -0.02177,17.00269c0,0 4.42775,-1.65193 6.89026,-6.43367l0.14831,0.02201z" fill="#e6e7e8"/></g><g stroke="#000000" stroke-width="0.90025" stroke-linecap="round" stroke-linejoin="miter"><path d="M281.06217,166.84056c0,0 9.11087,-10.17337 9.62086,-10.65796c0.50988,-0.4845 4.25999,-5.07517 15.52228,-6.98648c0,0 -6.07085,30.16416 -22.73461,37.58864c-0.00003,-0.00087 1.26779,-8.61579 -2.40853,-19.94419zM281.1379,167.07936c-0.2825,-0.93745 -1.0878,-2.58281 -1.0878,-2.58281M282.75093,189.10598c0,0 0.59279,-1.45636 0.71975,-2.3221" fill="#be1e2d"/><path d="M290.03252,181.85081c0,0 -1.74476,-1.14786 -2.09949,-5.10869c-0.22431,-2.45675 0.76422,-6.98491 0.76422,-6.98491l-0.08863,0.14643c0.70923,-0.81842 1.45367,-1.77183 2.12089,-2.81273c1.1308,-1.76083 2.43096,-4.38799 3.61567,-6.97447l0.18507,-0.35705c0,0 3.21745,-4.72024 10.24582,-5.54506l0.08281,0.03825c-1.30325,4.59852 -3.45888,11.35146 -5.95982,15.99978c-2.80522,5.21424 -6.13964,9.04555 -8.98738,11.69615zM285.86917,172.56462c0,0 2.38443,-2.32168 2.82812,-2.8074" fill="#929497"/></g><g stroke="#000000" stroke-width="0.90025" stroke-linecap="round" stroke-linejoin="miter"><path d="M190.1061,189.99142c-17.21213,-6.26067 -25.68466,-35.9252 -25.68466,-35.9252c11.38463,1.13415 15.49244,5.45487 16.03974,5.90218c0.54729,0.44739 10.44882,9.96847 10.44882,9.96847c-2.7589,11.55036 -0.80391,20.05455 -0.80391,20.05455zM191.73035,167.53077c0,0 -0.67116,1.69608 -0.87763,2.65034M190.1061,189.99142c0.19591,0.85465 0.90393,2.26632 0.90393,2.26632" fill="#be1e2d"/><path d="M183.29514,185.61133c-3.05244,-2.44877 -6.68389,-6.04076 -9.90042,-11.04725c-2.86766,-4.46387 -5.55769,-11.05034 -7.22612,-15.54677l0.07962,-0.04383c7.07611,0.34113 10.66214,4.82676 10.66214,4.82676l0.21319,0.34336c1.3887,2.49806 2.896,5.02877 4.16486,6.70716c0.74883,0.99225 1.56766,1.89195 2.34055,2.65945l-0.10013,-0.13995c0,0 1.34883,4.44786 1.322,6.91324c-0.0361,3.97426 -1.68414,5.23868 -1.68414,5.23868l0.12843,0.08914zM183.52885,173.37028c0.48141,0.45394 3.04539,2.60561 3.04539,2.60561" fill="#929497"/></g><path d="M228.50252,181.85879v0v0v0v0v0c0.76019,0.16886 1.22622,0.87521 1.04171,1.57856c-0.18245,0.70503 -0.94219,1.13603 -1.70792,0.97086c-0.0439,-0.01073 -4.4808,-0.96458 -8.72862,0.34097c-0.13073,0.03946 -0.26128,0.0623 -0.39245,0.06682c-0.61355,0.02108 -1.19501,-0.33325 -1.39819,-0.89815c-0.12014,-0.32996 -0.08107,-0.67499 0.06979,-0.9688c-0.27393,-0.20577 -0.53611,-0.47479 -0.72522,-0.85143c-0.22166,-0.43663 -0.01766,-0.95783 0.45622,-1.16217c0.46949,-0.19885 1.0344,-0.01892 1.25725,0.42126c0.17662,0.35074 0.65082,0.43674 0.65656,0.4383c0.13999,0.02405 0.26412,0.07923 0.37196,0.15246c0.13869,-0.03187 0.27819,-0.06463 0.41511,-0.09119c-0.15347,-0.19756 -0.29754,-0.42004 -0.39003,-0.69673c-0.15276,-0.4626 0.12834,-0.94894 0.62834,-1.09115c0.5036,-0.14669 1.0277,0.12042 1.17946,0.5813c0.12158,0.36837 0.56729,0.5218 0.57113,0.52341c0.2075,0.05766 0.36375,0.18345 0.48051,0.33505c3.37552,-0.26197 6.0617,0.31652 6.21438,0.35063z" fill="#231f20" stroke="none" stroke-width="0.90025" stroke-linecap="butt" stroke-linejoin="miter"/><path d="M256.81545,205.34658c-0.42419,2.0123 -3.69686,5.41295 -4.3494,6.12744c-0.65297,0.71382 -2.77291,1.56538 -3.93628,0.86213c-1.1642,-0.70266 -0.94004,-2.36767 -0.94004,-2.36767c0.47329,-1.46212 1.21773,-4.18701 2.07527,-5.88541c0.15438,-0.29912 0.3117,-0.5748 0.46696,-0.84566l-0.01376,0.0121c0,0 -0.92613,-1.94942 0.10171,-2.30952c0.62195,-0.21792 1.21997,-0.01571 1.60729,0.17627c0.89776,-0.76139 1.86137,-1.07534 2.89922,-0.77099c2.43485,0.69604 2.08903,5.00129 2.08903,5.00129v0v0v0v0v0z" data-paper-data="{&quot;index&quot;:null}" fill="#be1e2d" stroke="#231f20" stroke-width="0.78673" stroke-linecap="round" stroke-linejoin="round"/><path d="M258.12788,180.42867c0.13522,3.36856 -1.07544,6.14466 -2.70408,6.20061c-1.62863,0.05596 -3.05851,-2.62944 -3.19373,-5.99799c-0.13522,-3.36856 1.07544,-6.14466 2.70408,-6.20061c0.38557,-0.01324 1.05581,0.72237 1.66381,0.39969c0.65915,-0.34984 0.4988,-1.81089 1.44139,-1.28163c0.57018,0.32014 -0.14228,1.80916 -0.35286,3.21542c-0.15128,1.0103 1.99993,-2.11421 2.1801,-1.3085c0.07032,0.31442 -1.74834,4.73365 -1.73872,4.97302z" fill="#231f20" stroke="#000000" stroke-width="1" stroke-linecap="butt" stroke-linejoin="miter"/><path d="M245.21006,190.0813c0,0.39361 -0.05059,0.7759 -0.14587,1.14133c-0.53401,2.04802 -2.47224,3.5655 -4.78154,3.5655c-2.41523,0 -4.42462,-1.65992 -4.84608,-3.85064c-0.05342,-0.27764 -0.08133,-0.5638 -0.08133,-0.85619c0,-2.59952 9.8548,-2.59952 9.8548,0z" fill="#231f20" stroke="#000000" stroke-width="1" stroke-linecap="butt" stroke-linejoin="miter"/><path d="M248.07439,219.5082c-2.44968,2.73486 -5.33018,3.89198 -6.43377,2.5845c-1.10358,-1.30748 -0.01236,-4.58444 2.43732,-7.3193c2.44968,-2.73486 5.33018,-3.89198 6.43377,-2.5845c1.10358,1.30748 0.01236,4.58444 -2.43732,7.3193z" fill="#be1e2d" stroke="#231f20" stroke-width="0.90025" stroke-linecap="butt" stroke-linejoin="miter"/><path d="M248.2721,212.36096c1.60203,-0.52357 3.50941,-0.00722 3.50941,-0.00722c0,0 0.55382,5.91353 0.70635,8.05336c0.15338,2.14294 0.95755,5.49272 0.95755,5.49272c0,0 0.4752,0.3342 0.29211,1.20966c-0.18672,0.8734 -1.88636,1.04649 -4.03045,1.50925c-2.14017,0.45746 -3.85132,0.07307 -4.1404,-0.78694c-0.29202,-0.85587 0.35462,-1.25648 0.35462,-1.25648c0,0 1.34801,-7.06668 0.57415,-9.49594c0.00428,0.00516 -0.26589,-4.05111 1.77665,-4.71841z" fill="#be1e2d" stroke="#231f20" stroke-width="0.90025" stroke-linecap="round" stroke-linejoin="round"/><g stroke="#000000" stroke-width="1" stroke-linecap="butt" stroke-linejoin="miter"><path d="M276.72181,266.93449c-6.94903,2.48678 -51.07106,1.87124 -57.88411,-0.34832c-7.86831,-2.56336 -6.89912,-21.57451 1.11074,-24.14005c6.78323,-2.17265 50.64342,-1.76459 57.67502,0.99318c6.36836,2.49765 6.19476,20.95566 -0.90165,23.49519z" data-paper-data="{&quot;index&quot;:null}" fill="#363636"/><path d="M272.63389,263.40279c-5.53329,1.76301 -40.66621,1.32662 -46.09121,-0.24694c-6.26528,-1.8173 -5.49355,-15.29531 0.88444,-17.11416c5.40126,-1.5403 40.32569,-1.25101 45.92472,0.70411c5.07091,1.77071 4.93268,14.85658 -0.71796,16.65699z" data-paper-data="{&quot;index&quot;:null}" fill="#4a4a4a"/></g><g stroke="#000000" stroke-width="1" stroke-linecap="butt" stroke-linejoin="miter"><path d="M277.22181,314.93449c-6.94903,2.48678 -51.07106,1.87124 -57.88411,-0.34832c-7.86831,-2.56336 -6.89912,-21.57451 1.11074,-24.14005c6.78323,-2.17265 50.64342,-1.76459 57.67502,0.99318c6.36836,2.49764 6.19476,20.95567 -0.90165,23.49519z" data-paper-data="{&quot;index&quot;:null}" fill="#363636"/><path d="M273.13389,311.40279c-5.53329,1.76301 -40.66621,1.32662 -46.09121,-0.24694c-6.26528,-1.8173 -5.49355,-15.29531 0.88444,-17.11416c5.40126,-1.5403 40.32569,-1.25101 45.92472,0.70412c5.07091,1.77071 4.93268,14.85658 -0.71796,16.65699z" data-paper-data="{&quot;index&quot;:null}" fill="#4a4a4a"/></g><path d="M227.66987,219.14462c-0.10577,-1.70629 2.29379,-2.89509 5.35957,-2.65525c3.06578,0.23983 5.63683,1.81748 5.7426,3.52377c0.10577,1.70629 -2.29378,2.89508 -5.35957,2.65525c-3.06578,-0.23983 -5.63684,-1.81749 -5.7426,-3.52378z" data-paper-data="{&quot;index&quot;:null}" fill="#be1e2d" stroke="#231f20" stroke-width="0.90025" stroke-linecap="butt" stroke-linejoin="miter"/><path d="M231.32073,217.4358c2.09832,0.46298 2.22878,4.52614 2.23254,4.52058c-0.53094,2.49364 1.50621,9.39328 1.50621,9.39328c0,0 0.68293,0.33501 0.47659,1.21547c-0.203,0.8843 -1.86801,1.43528 -4.04281,1.19073c-2.17923,-0.24943 -3.88765,-0.25435 -4.15945,-1.10513c-0.26838,-0.85318 0.1716,-1.23254 0.1716,-1.23254c0,0 0.4705,-3.41268 0.41216,-5.56031c-0.05887,-2.14446 -0.08992,-8.08378 -0.08992,-8.08378c0,0 1.84729,-0.70162 3.49308,-0.33831z" data-paper-data="{&quot;index&quot;:null}" fill="#be1e2d" stroke="#231f20" stroke-width="0.90025" stroke-linecap="round" stroke-linejoin="round"/></g></g></svg>