<svg version="1.1" xmlns="http://www.w3.org/2000/svg" xmlns:xlink="http://www.w3.org/1999/xlink" width="104.69496" height="107.98716" viewBox="0,0,104.69496,107.98716"><defs><radialGradient cx="268.77325" cy="182.42173" r="7.69972" gradientUnits="userSpaceOnUse" id="color-1"><stop offset="0" stop-color="#54606d"/><stop offset="1" stop-color="#2c3136"/></radialGradient></defs><g transform="translate(-181.07224,-130.42078)"><g data-paper-data="{&quot;isPaintingLayer&quot;:true}" stroke-miterlimit="10" stroke-dasharray="" stroke-dashoffset="0" style="mix-blend-mode: normal"><path d="M240.36641,202.70605c0.09033,0.70931 0.28642,2.03049 0.44586,3.77802c0.3028,3.31862 0.47351,8.17478 -0.46296,13.29786l-0.09716,0.38442c-0.09716,0.38442 0.27372,0.77246 0.74178,0.77607c3.04627,-0.40448 8.99603,-0.95775 7.963,4.4695c-0.93785,5.2568 -18.79303,7.55854 -20.24302,2.36892c-0.40071,-2.22855 1.06088,-3.37279 1.86211,-3.96576c0.4244,-0.3391 0.66237,-0.76524 0.80713,-1.23489c0.19826,-1.1968 0.49963,-3.41991 0.4698,-5.26042c-0.00418,-4.62212 -0.36716,-5.86603 -0.8135,-8.22331c-0.44634,-2.35729 -1.70594,-7.88781 3.03793,-9.6487c4.03982,-1.55235 5.97958,1.28723 6.28905,3.25827z" fill="#ffab19" fill-rule="evenodd" stroke="#001026" stroke-width="1.2" stroke-linecap="round" stroke-linejoin="round"/><g fill-rule="evenodd"><path d="M224.29342,202.44152c0.8373,0.38277 2.61657,1.24402 0.10466,4.49761c-2.51191,3.25359 -9.73363,3.92344 -10.57094,3.92344c-3.24454,0.0957 -7.22173,0.0957 -11.61757,-1.24402c-12.76885,-3.82775 -12.87351,-16.36362 -8.79167,-18.3732c3.97718,-2.00956 5.75645,5.74163 11.5129,10.43061c2.51191,2.10526 5.54712,2.87081 8.05903,3.34928c3.55854,0.57416 10.36161,-3.06219 11.30357,-2.58373z" fill="#ffab19" stroke="#001026" stroke-width="1.2" stroke-linecap="round" stroke-linejoin="round"/><path d="M198.33708,194.69033c1.6746,2.58373 4.91915,6.22009 4.91915,6.22009c0,0 -3.87252,-0.86124 -6.07043,0.76555c-1.77927,1.24402 -1.36061,3.34928 -1.15129,4.01914c-1.36061,-1.24402 -3.03522,-2.96651 -4.08185,-6.31579c-1.04663,-3.34928 0,-7.36842 2.09325,-7.94258c2.09325,-0.38277 2.61657,1.05263 4.29117,3.25359z" fill="#ffffff" stroke="none" stroke-width="1" stroke-linecap="butt" stroke-linejoin="miter"/></g><path d="M244.44916,192.2498c0.5069,0.40082 6.59803,7.50927 8.7619,5.86135c2.59423,-1.92014 6.20992,-5.71977 9.84273,-2.43225c3.63281,3.28751 -3.7035,8.39322 -6.79662,9.72129c-7.34069,2.71146 -12.96101,-3.13557 -14.15189,-4.70953c-1.1909,-1.57395 -3.27896,-4.23275 -3.17476,-6.71896c0.21682,-2.6738 3.8008,-3.21855 5.51864,-1.7219z" fill="#ffab19" fill-rule="evenodd" stroke="#001026" stroke-width="1.2" stroke-linecap="round" stroke-linejoin="round"/><path d="M222.12475,209.06656c0.11605,-1.98843 1.77119,-4.9748 5.9463,-3.75795c4.8967,1.36718 4.18139,6.97836 3.96669,9.36264c-0.2147,2.38428 0.38235,3.65282 0.82891,8.25688c0.14976,1.83561 -0.1706,4.0253 0.14357,5.20117c0.10576,0.25383 1.0365,10.09135 -7.95256,9.6652c-7.93635,-0.37624 -1.4601,-11.72144 -1.4601,-11.72144c0,0 -1.52648,-9.87708 -1.54848,-13.20717c-0.0116,-1.75358 0.05488,-3.08548 0.07569,-3.79933z" data-paper-data="{&quot;index&quot;:null}" fill="#ffab19" fill-rule="evenodd" stroke="#001026" stroke-width="1.2" stroke-linecap="round" stroke-linejoin="round"/><g fill-rule="evenodd"><path d="M226.93745,208.8826c-11.42591,-4.48448 -6.00561,-9.98498 -5.17629,-15.20025c0.89758,-4.52142 2.273,-4.18583 8.58414,-5.18001c3.50853,-0.72407 5.5746,-1.14477 7.68536,-1.99144c3.18496,-1.22538 4.40641,3.26695 4.46883,5.80895c0,0 0.02601,3.78558 -0.52808,5.92957c-0.69645,2.60442 -1.3035,4.35685 -2.13648,5.57354c0,0 -1.78966,2.6154 -4.0409,3.49855c-2.02362,0.79385 -8.8566,1.56109 -8.8566,1.56109z" fill="#ffab19" stroke="#001026" stroke-width="1.2" stroke-linecap="round" stroke-linejoin="round"/><path d="M238.91839,204.04351c0,0 -1.91667,-0.55503 -4.04396,-1.3435c-2.63087,-0.91862 -5.14877,-1.56937 -4.36293,-5.0258c0.85412,-2.76256 1.30932,-6.20498 6.79575,-5.16489c5.21581,0.93038 4.3017,3.81665 4.3017,3.81665c-0.454,4.77528 -2.69058,7.71752 -2.69058,7.71752z" fill="#ffffff" stroke="none" stroke-width="1" stroke-linecap="butt" stroke-linejoin="miter"/></g><path d="M250.85871,135.21706c0.31682,-0.18744 0.83865,-0.08523 0.93759,0.29882l2.56792,10.27228c0,0 6.63056,4.58088 8.57176,7.76334c3.27022,5.30451 3.3105,9.61164 3.3105,9.61164c0,0 7.40033,2.10224 8.57462,7.57196c1.1743,5.46972 -3.58491,15.74614 -23.3126,19.0406c-19.72768,3.29447 -35.45732,-1.78295 -42.72461,-12.78387c-7.26729,-11.00092 4.64838,-23.86757 4.00901,-23.10995c0,0 -0.85568,-15.26775 -0.43993,-15.07116l11.89265,5.1655c0,0 4.73369,-1.56779 9.65525,-1.69769c2.93314,-0.15474 5.44195,0.06801 7.84324,0.48082z" fill="#ffab19" fill-rule="evenodd" stroke="#001026" stroke-width="1.2" stroke-linecap="butt" stroke-linejoin="miter"/><path d="M265.9268,163.54194c0,0 7.19531,1.81257 8.3696,7.28229c1.1743,5.46972 -3.99638,15.26248 -23.51332,18.46387c-25.39752,4.46774 -37.22664,-9.46127 -30.06326,-19.51623c7.1648,-10.15064 19.06972,-1.29293 27.86915,-1.75718c7.54216,-0.38426 8.4695,-6.40194 17.33782,-4.47276z" fill="#ffffff" fill-rule="evenodd" stroke="none" stroke-width="1" stroke-linecap="butt" stroke-linejoin="miter"/><path d="M285.1672,164.83512c-4.97305,3.57456 -12.50949,3.57608 -12.50949,3.57608" fill="none" fill-rule="evenodd" stroke="#001026" stroke-width="1.2" stroke-linecap="round" stroke-linejoin="round"/><path d="M283.64651,175.53482c-6.60029,0.39602 -10.65457,-1.47298 -10.65457,-1.47298" fill="none" fill-rule="evenodd" stroke="#001026" stroke-width="1.2" stroke-linecap="round" stroke-linejoin="round"/><path d="M248.20755,165.52167c2.19771,0.02746 4.49722,0.2476 4.59185,0.91871c0.08463,1.3409 -1.52522,4.00045 -3.2011,4.07522c-1.88662,0.16783 -6.24629,-2.27922 -6.22339,-3.81018c-0.08749,-1.14952 2.73957,-1.20989 4.83264,-1.18374z" fill="#001026" fill-rule="evenodd" stroke="#001026" stroke-width="1.2" stroke-linecap="round" stroke-linejoin="round"/><path d="M201.13518,163.49787c0,0 8.9601,2.79164 12.57861,5.80365" fill="none" fill-rule="evenodd" stroke="#001026" stroke-width="1.2" stroke-linecap="round" stroke-linejoin="round"/><path d="M213.97769,172.65442c-4.52439,1.5704 -12.25298,0.42109 -12.25298,0.42109" fill="none" fill-rule="evenodd" stroke="#001026" stroke-width="1.2" stroke-linecap="round" stroke-linejoin="round"/><g fill-rule="nonzero" stroke="#001026" stroke-width="1.2" stroke-linejoin="miter"><g><path d="M251.01407,203.29621l7.58852,-20.06243l12.27256,5.83633l-12.7846,16.78442c0,0 -2.6785,0.58962 -3.82121,0.17649c-1.21205,-0.43819 -3.25528,-2.73481 -3.25528,-2.73481z" fill="#505a63" stroke-linecap="butt"/><path d="M258.57035,181.73899c1.96226,-3.44934 6.61133,-4.79116 10.38395,-2.99706c3.77263,1.7941 5.24022,6.04478 3.27796,9.4941c-1.96226,3.44934 -6.61134,4.79117 -10.38396,2.99706c-3.77263,-1.7941 -5.24021,-6.04478 -3.27795,-9.49412z" fill="url(#color-1)" stroke-linecap="butt"/><path d="M259.45357,188.94615c0,0 1.3512,-4.25726 2.37069,-6.1002c0.95282,-1.72242 3.55974,-4.62035 3.55974,-4.62035" fill="none" stroke-linecap="round"/><path d="M265.88053,191.84866c0,0 1.56149,-5.32126 2.4404,-7.29991c0.64941,-1.46196 2.35613,-3.49825 2.35613,-3.49825" fill="none" stroke-linecap="round"/><path d="M258.30455,182.09092c0,0 5.25257,-0.21616 7.81183,0.4033c2.22652,0.53892 6.68494,3.10558 6.68494,3.10558" fill="none" stroke-linecap="round"/><path d="M257.67872,187.33271c0,0 5.79028,0.0997 8.33264,0.46975c1.97632,0.28766 5.65563,1.56633 5.65563,1.56633" fill="none" stroke-linecap="round"/></g><path d="M264.26447,201.17765c-1.3011,2.30399 -4.50226,3.43533 -7.15002,2.52693c-2.64775,-0.90842 -4.30983,-2.95422 -3.00874,-5.25822c1.3011,-2.30399 5.07265,-3.9937 7.72041,-3.08528c2.64775,0.90842 3.73943,3.51257 2.43833,5.81657z" fill="#ffab19" stroke-linecap="butt"/></g><g fill-rule="nonzero" stroke="#001026" stroke-width="1.2" stroke-linecap="butt" stroke-linejoin="miter"><path d="M224.9742,150.54349c-1.50945,4.15765 -22.38244,11.69303 -22.38244,11.69303c0,0 -3.00556,-0.15397 -4.42011,-0.29461c-10.59383,-1.05327 -17.67036,-4.39883 -16.33872,-8.06673c1.50945,-4.15765 13.25081,-7.15503 26.22503,-6.69484c12.97424,0.46018 18.42567,-0.79451 16.91623,3.36314z" fill="#00b0f7"/><path d="M208.9473,146.15152l-12.27951,-3.64012c0,0 15.19815,-6.00777 23.51684,-7.69489c10.06093,-2.04048 32.62195,-3.69072 32.62195,-3.69072l-14.82476,16.95112z" fill="#ff2b2b"/><path d="M199.9558,163.12296c0,0 -2.99051,-7.05321 -3.5558,-10.47109c-0.5484,-3.31583 0.21319,-9.73931 0.21319,-9.73931l27.41677,-3.79062c0,0 0.53095,7.3459 1.1039,10.81009c0.53921,3.26023 2.23871,9.4003 2.23871,9.4003z" data-paper-data="{&quot;index&quot;:null}" fill="#cc0000"/><path d="M226.92919,159.3307c0,0 -1.08148,-6.27121 -2.06395,-9.44379c-1.04392,-3.37105 -4.02643,-10.22327 -4.02643,-10.22327l32.66389,-8.45581c0,0 3.98588,5.46089 4.98511,8.68757c1.02998,3.32598 1.10525,10.97947 1.10525,10.97947z" fill="#f70000"/></g><path d="M223.64336,200.38795c-0.57487,3.92141 1.30064,7.62993 -0.23869,9.61039c-1.00463,1.29252 -2.61872,2.17503 -3.68136,2.04481c-1.18437,-0.14514 -3.03606,-1.65444 -3.63238,-3.45016c-0.75851,-2.28407 -2.72389,-5.77099 -2.192,-9.3992c0.46919,-3.20051 3.49231,-6.33182 4.66532,-8.34308c1.2022,-2.06133 3.23756,-2.4431 4.59951,-2.27619c1.47041,0.1802 2.90278,1.21379 3.43248,3.80374c0.43967,2.14969 -2.52197,5.07036 -2.95287,8.00971z" fill="#ffab19" fill-rule="nonzero" stroke="#001026" stroke-width="1.2" stroke-linecap="butt" stroke-linejoin="miter"/><path d="M249.57136,179.86875l-7.40933,0.17221" fill="none" fill-rule="nonzero" stroke="#001026" stroke-width="1.2" stroke-linecap="round" stroke-linejoin="miter"/><path d="M237.25574,166.2129l-7.85046,-1.18137" fill="none" fill-rule="nonzero" stroke="#000000" stroke-width="1.2" stroke-linecap="round" stroke-linejoin="miter"/><path d="M256.52502,164.52523l6.60152,-1.85643" fill="none" fill-rule="nonzero" stroke="#001026" stroke-width="1.2" stroke-linecap="round" stroke-linejoin="miter"/></g></g></svg>