<svg version="1.1" xmlns="http://www.w3.org/2000/svg" xmlns:xlink="http://www.w3.org/1999/xlink" width="115.50952" height="170.9511" viewBox="0,0,115.50952,170.9511"><g transform="translate(-216.09164,-67.29235)"><g data-paper-data="{&quot;isPaintingLayer&quot;:true}" fill-rule="nonzero" stroke="none" stroke-linecap="butt" stroke-linejoin="miter" stroke-miterlimit="10" stroke-dasharray="" stroke-dashoffset="0" style="mix-blend-mode: normal"><path d="M219.14286,236.66904l13.52857,-16.5l15.22857,0.11429l0.57143,12.74286z" fill="#e9caf8" stroke-width="0"/><path d="M266.98571,227.89762l-1.34286,-5.9l17.08571,-6.61429l10.25714,9.37143z" fill="#e9caf8" stroke-width="0"/><path d="M232.1,217.35476l19.50322,-30.72263l14.23963,-19.77737l19.84286,5.18571l-10.86265,23.05801l6.87694,18.68484l-13.39348,6.53547l-12.44861,-12.45025l-6.36068,15.43667z" fill="#414ca9" stroke-width="0"/><path d="M254.94286,166.12619l21.01429,-12.32857l15.84286,-21.87143l16.33854,6.39976l19.49907,23.9959l3.96354,17.93301l-26.99211,-7.40706l-13.39476,-18.7359l-3.5342,16.90933l-21.27138,-0.71094l-8.47423,4.13412z" fill="#8f21c6" stroke-width="0"/><path d="M236.99243,186.00713l-0.20462,-19.64315l23.10292,3.32969l-11.4398,15.90422z" fill="#e9caf8" stroke-width="0"/><path d="M300.92477,164.58122l-8.21429,-21.78571l26.42857,4.28571l2.85714,21.78571z" fill="#e9caf8" stroke-width="0"/><path d="M248.79626,139.09391l-32.70462,-52.05078l93.50554,-19.75078l-1.43606,63.13717z" fill="#3d2747" stroke-width="0"/><path d="M321.12731,158.8196c-1.17482,-2.96322 -4.42081,-6.69149 -6.71546,-8.82839c-0.95575,-0.89005 -1.84426,-2.05761 -3.2686,-2.01312c0,0 -0.54299,0 -0.69051,-0.46202c-2.24375,-1.27476 -4.66223,-3.11921 -7.2631,-3.26036c-2.58137,-0.1401 -4.54403,1.61626 -7.28326,0.92606c-0.67205,0.00523 -2.06458,-0.27352 -2.5634,0.38566c-1.06876,1.41236 1.17315,4.32612 2.2745,4.96053c2.44698,1.40951 6.17223,0.57308 8.89439,0.95766c1.05059,0.15292 3.28096,0.60794 3.57408,1.91697c0.4349,1.94222 -3.35881,3.16922 -3.28383,5.63935c0.03552,1.16978 0.78215,1.9038 1.68402,2.55272c-0.71163,-2.5322 -0.03495,-4.68549 3.7076,-5.22532l1.03268,0.26351c0,0 0.7041,0.23717 0.44472,0.94868c-0.2594,0.71151 -0.96349,0.47434 -0.96349,0.47434l-0.34814,-0.20161c-3.84839,0.53853 -2.8925,2.91247 -1.48752,5.51334c0,0 0.00218,0.00404 0.00588,0.01168c0.1554,0.16399 0.29558,0.33816 0.4153,0.52579c0.44557,0.70121 1.93678,3.39168 2.62243,3.53542c2.80769,0.58858 6.08463,-1.59117 2.77613,-3.51472l-0.38465,-0.2597c0,0 -0.61105,-0.41603 -0.17553,-1.04006c0.43551,-0.62404 1.04656,-0.20801 1.04656,-0.20801l0.29851,0.20541c0.54385,0.31666 1.21598,0.4721 1.64066,0.93481c0.83441,0.90913 1.00216,1.79172 0.74756,2.57461c2.77932,-1.46199 3.53397,-4.16107 3.26246,-7.31324zM315.45794,148.88358c2.54175,2.38858 5.82572,6.26711 7.12941,9.5437c0.40783,4.10734 -0.78359,7.66391 -4.79095,9.37389l-0.58348,0.15453c0,0 -0.4059,0.10069 -0.67927,-0.14741c-1.45074,1.06278 -3.67269,1.57528 -5.09754,1.06785c-1.29993,-0.46294 -2.67396,-2.96969 -3.41697,-4.139c-0.09295,-0.14681 -0.19336,-0.28427 -0.29991,-0.41391c-0.07064,-0.06368 -0.11997,-0.12939 -0.14735,-0.1703c-1.54682,-1.70056 -4.15262,-2.03359 -4.26976,-5.01777c-0.00464,-0.11814 -0.00599,-0.2348 -0.004,-0.35002c-2.58559,-0.11246 -5.85384,-1.5805 -7.66158,-3.32881c-0.62201,-0.60155 -1.49728,-1.36725 -1.03697,-2.47609c0.14561,-0.35074 0.45597,-0.60895 0.85679,-0.8018c-0.58334,-0.24634 -1.11273,-0.58277 -1.56376,-1.04179c-1.65539,-1.68469 -3.77855,-5.81579 -0.574,-7.27917c0.77655,-0.35462 2.00001,-0.16953 2.81758,-0.16446c2.65384,0.66868 4.58715,-1.11524 7.19345,-0.9344c3.13445,0.21748 5.82739,2.42218 8.50165,3.77813c1.51578,0.25309 2.48549,1.27441 3.62669,2.34684z" fill="#000000" stroke-width="0.5"/><path d="M296.15554,156.60406c0.63703,-0.41603 1.03356,0.20801 1.03356,0.20801l0.31221,0.55882c0.55886,2.31652 2.57955,5.09209 3.86026,7.10559c3.43862,5.03415 7.30773,10.94821 13.55881,12.75031c3.32053,1.68659 7.24185,1.76211 10.74165,0.45743c0.65987,-0.24599 2.43338,-0.65835 2.76284,-1.37293c0.50571,-1.09691 0.46937,-2.67134 0.5062,-3.85064c0.07679,-2.37235 -0.56207,-3.55909 -1.28226,-5.65375c-1.29505,-3.76666 -1.11068,-5.98186 -4.28428,-8.77681c0,0 -0.5542,-0.48809 -0.04833,-1.05754c0.50587,-0.56944 1.06007,-0.08135 1.06007,-0.08135c3.35071,2.95113 3.32422,5.40616 4.68415,9.36273c0.76921,2.23791 1.4466,3.68874 1.37064,6.20672c-0.04171,1.33568 0.00069,3.30992 -0.68549,4.52146c-0.6766,1.19461 -2.45139,1.68146 -3.62517,2.11544c-3.81752,1.41144 -8.16658,1.36635 -11.78745,-0.4728c-6.53249,-1.88323 -10.63516,-8.02972 -14.23246,-13.2962c-1.38986,-2.18922 -3.3924,-5.04402 -4.0543,-7.54557l-0.13111,-0.13885c0,0 -0.39655,-0.62404 0.24049,-1.04006z" fill="#000000" stroke-width="0.5"/><path d="M317.83353,174.39049c0.18797,0.0226 0.67242,0.13955 0.65353,0.74458c-0.02342,0.75 -0.77342,0.75 -0.77342,0.75l-0.44922,-0.07918c-1.17841,-0.60122 -2.25654,-1.36128 -3.30283,-2.16384c0,0 -0.58595,-0.45 -0.11721,-1.05c0.46874,-0.6 1.05468,-0.15 1.05468,-0.15c0.93078,0.71574 1.89058,1.40362 2.93447,1.94844z" fill="#000000" stroke-width="0.5"/><path d="M287.74593,146.69776c0.54689,-0.53033 1.06066,0 1.06066,0l0.67589,0.69767c1.06795,1.10442 1.99797,2.36383 3.34853,3.13496c0,0 0.63957,0.3721 0.24713,1.02329c-0.39243,0.65118 -1.032,0.27908 -1.032,0.27908c-1.4677,-0.86688 -2.48509,-2.16897 -3.65743,-3.37667l-0.67589,-0.69767c0,0 -0.51377,-0.53033 0.03312,-1.06066z" fill="#000000" stroke-width="0.5"/><path d="M300.27104,142.3967c-0.75,0 -0.72658,-0.75 -0.72658,-0.75l0.01453,-0.46512c0.04619,-1.36617 0.97212,-4.18417 0.22624,-5.45536c-0.19108,-0.32566 -0.72674,0.2687 -1.10006,0.36588c-1.40465,0.36564 -2.77385,1.47004 -3.81089,2.48027c0,0 -0.54689,0.53033 -1.06066,0c-0.51377,-0.53033 0.03312,-1.06066 0.03312,-1.06066c1.14999,-1.11061 5.1283,-4.42037 6.89851,-2.9678c1.5155,1.24355 0.35772,5.08196 0.31372,6.63767l-0.01453,0.46512c0,0 -0.02342,0.75 -0.77342,0.75z" fill="#000000" stroke-width="0.5"/><path d="M303.25813,141.87926c0.02342,-0.75 0.77342,-0.75 0.77342,-0.75l0.37191,0.00579c0.41252,-0.05136 2.00683,-0.48901 2.84732,-0.5466c-0.42098,-0.26747 -0.97352,-0.67716 -1.26135,-0.87309c-1.15021,-0.78297 -2.33572,-1.41674 -3.58051,-2.04901c0,0 -0.66034,-0.33541 -0.30399,-1.00623c0.35636,-0.67082 1.01671,-0.33541 1.01671,-0.33541c1.65919,0.84275 3.16724,1.74812 4.65996,2.84926c0.56204,0.41461 1.76266,0.99279 1.36528,2.04549c-0.39641,1.05013 -3.70205,1.29169 -4.60384,1.40399l-0.55832,0.00579c0,0 -0.75,0 -0.72658,-0.75z" fill="#000000" stroke-width="0.5"/><path d="M256.98119,148.78236c-0.61105,-0.41603 -0.17553,-1.04006 -0.17553,-1.04006l0.4869,-0.69767c2.4921,-3.54149 7.85592,-3.43389 11.71105,-3.8182c6.00643,-0.66514 10.73261,-1.95485 14.32794,-7.11203c0,0 0.43551,-0.62404 1.04656,-0.20801c0.61105,0.41603 0.17553,1.04006 0.17553,1.04006c-3.87457,5.54551 -8.98452,7.05706 -15.43916,7.77169c-3.27178,0.32616 -8.49345,0.11033 -10.59983,3.15854l-0.4869,0.69767c0,0 -0.43551,0.62404 -1.04656,0.20801z" fill="#000000" stroke-width="0.5"/><path d="M283.53542,135.41995l0.09066,-0.02886c-6.05039,1.66446 -13.00022,-0.01129 -18.73908,-1.74696c-5.56789,-1.6866 -11.39327,-3.10271 -13.90582,-8.48545l-0.3281,0.39043c-2.04045,1.97866 -5.52272,4.93208 -8.53497,3.27556c-0.71214,-0.39163 -1.30845,-1.07787 -1.48951,-1.88938c-0.086,-0.38545 0.33704,-1.02786 -0.02022,-1.19179c-0.40906,-0.18771 -0.90967,-0.04511 -1.35823,-0.11105c-3.54428,-1.18776 -8.05186,-2.57457 -8.95241,-6.72041c-0.3251,-1.49665 0.66676,-4.19129 -0.21015,-5.48964c-1.11607,-1.65245 -3.02474,-1.98449 -4.02618,-3.90878c0.06086,-6.87724 2.57445,-12.79129 7.60773,-17.69958c0,0 0.16763,-0.16255 0.40446,-0.21767c0.1193,-0.85723 0.14738,-1.72511 0.05715,-2.63302c-0.65457,-1.36395 -0.90055,-2.80116 0.4671,-3.93279c2.34928,-1.94386 6.17549,-2.03736 8.3341,-4.13813c2.05738,-2.00225 2.41433,-4.28068 5.15304,-5.96107c4.89244,-1.94505 8.67777,0.07476 13.52042,-0.54067c2.78655,-0.35413 5.43295,-1.16506 8.26766,-1.16841c3.71162,0 7.36136,0.38303 10.74166,1.94052c1.97454,0.90978 3.53259,3.16559 5.46734,3.90922c0.60525,0.23263 1.82505,-0.27113 2.45392,-0.26834c1.05667,0.0047 2.05184,0.41534 3.02546,0.74344c6.24845,2.53284 11.76504,5.68868 14.24822,12.17175c1.66072,1.61632 2.29588,3.76729 3.26897,5.85775c0.59565,1.27963 2.09109,2.41801 2.05579,3.95381c-0.01582,0.68834 -0.57247,1.56602 -0.87646,2.13848c-0.98699,1.26903 -3.20378,2.79752 -3.77356,4.24164c-0.30486,0.77268 0.59888,2.35151 0.50933,3.30839c-0.25958,2.77394 -2.19895,4.9978 -4.60043,6.28438c-0.01457,0.23439 -0.02665,0.42143 -0.03032,0.53872c-0.06376,2.04182 0.0425,4.54053 -0.84744,6.46621c-1.78642,3.86549 -6.30168,6.84085 -9.92209,8.62322c-2.23089,1.09218 -4.86925,1.77294 -7.33649,1.82068c-0.17402,0.4678 -0.72154,0.4678 -0.72154,0.4678zM265.36287,132.2074c4.83368,1.46566 10.84154,3.04808 16.12884,2.14722c-0.29043,-0.70554 -0.17389,-1.77984 -0.42245,-2.41674c-0.52869,-1.35472 -2.11006,-2.43207 -3.38654,-3.10751c-0.07385,-0.02386 -0.14874,-0.04718 -0.22463,-0.06996c0,0 -0.01055,-0.0032 -0.02866,-0.01011c-0.10363,-0.03231 -0.22198,-0.08964 -0.3157,-0.19135c-0.95495,0.2599 -1.90685,0.45693 -2.84717,0.57613c0,0 -0.74711,0.09303 -0.8169,-0.65118c-0.06978,-0.74421 0.67733,-0.83723 0.67733,-0.83723c3.04017,-0.37081 6.23174,-1.63987 9.2303,-3.20168c0.05278,-0.13585 0.12112,-0.23711 0.20991,-0.28489c0.20333,-0.10943 0.40138,-0.15054 0.59221,-0.14209c1.77448,-0.96448 3.46854,-2.01458 5.00807,-3.02c0.88696,-0.43809 1.74988,-0.91223 2.59737,-1.4103c0.12302,-0.16742 0.31122,-0.28447 0.5247,-0.31247c2.07018,-1.24847 4.05775,-2.62659 6.09089,-3.9539c0.6462,-0.42186 2.67443,-2.5509 3.42535,-2.28166c0.54196,0.19433 0.6621,1.46748 0.65721,2.69782c1.77269,-1.18868 3.262,-3.10944 3.06015,-5.28804c-0.09812,-1.0592 -0.81432,-1.85101 -0.46083,-2.97359c0.51306,-1.62938 2.87338,-3.23186 3.94427,-4.59556c1.11859,-2.10465 -0.39577,-2.7365 -1.27732,-4.60538c-0.79576,-1.68703 -1.31201,-3.51699 -2.48825,-4.93679c-0.4683,-0.00904 -0.63634,-0.49787 -0.63634,-0.49787c-0.02762,-0.08036 -0.05573,-0.16018 -0.08433,-0.23947c-0.01128,-0.00973 -0.02263,-0.01943 -0.03401,-0.0291l-0.1614,-0.16211c0,0 -0.33205,-0.34275 -0.17812,-0.7527c-2.44076,-5.64598 -7.49897,-8.416 -13.14533,-10.7013c-1.81239,-0.6102 -3.79495,0.11261 -5.42182,-0.45513c-2.05168,-0.716 -3.64286,-3.07044 -5.68109,-3.99776c-3.17743,-1.44562 -6.59229,-1.78042 -10.07237,-1.78041c-2.76892,-0.00351 -5.35904,0.82391 -8.08404,1.15717c-4.63435,0.56677 -8.39184,-1.42595 -13.02025,0.38956c-2.5573,1.56595 -2.78657,3.77211 -4.74497,5.66684c-2.21397,2.14199 -10.21252,2.63317 -8.4005,6.58024c0.26575,2.22143 -0.06999,4.22958 -0.77781,6.36937l0.02383,0.24961c0,0 -0.02342,0.75 -0.77342,0.75c-0.75,0 -0.72658,-0.75 -0.72658,-0.75l0.05288,-0.68063c0.0364,-0.10975 0.07183,-0.21914 0.10624,-0.32825c-3.89209,4.29525 -5.5801,9.20721 -5.95844,15.00242c0.94754,1.637 2.85681,1.94414 3.88097,3.53309c1.37011,2.12571 -0.62167,5.25171 0.9063,7.40173c1.66287,2.33985 4.72501,3.22656 7.32992,4.10914c0.35005,0.04879 1.71306,0.2191 1.88306,0.35406c1.14614,0.90992 -0.00003,2.26491 1.32469,2.96534c2.36481,1.25036 5.24208,-1.51468 6.77739,-3.00351l0.42602,-0.51959c0,0 0.0605,-0.07278 0.16387,-0.14651c-0.69455,-0.58096 -1.20232,-1.42788 -1.41312,-2.60709c-0.44628,-2.49649 0.7741,-4.52961 1.89955,-6.64818c0,0 0.35636,-0.67082 1.01671,-0.33541c0.66034,0.33541 0.30399,1.00623 0.30399,1.00623c-0.86132,1.62137 -1.75397,2.98998 -1.81764,4.88451c-0.15108,4.49475 5.53334,3.42358 8.01899,2.0258c2.54622,-1.23865 4.66877,-4.82613 7.26933,-5.63165c2.01722,-0.62483 4.16197,0.52252 6.0565,0.90689c2.06379,0.41871 4.51069,0.31809 6.62335,0.10583c4.37332,-0.51234 8.27137,-3.7179 11.97861,-5.83134c1.44591,-0.82429 3.41078,-0.0012 4.45838,-1.63009c1.26297,-1.80285 1.25753,-2.86991 0.75182,-4.84305l-0.31966,-0.31891c0,0 -0.45024,-0.58565 0.15004,-1.05417c0.60028,-0.46852 1.05051,0.11713 1.05051,0.11713l0.57426,0.84388c0.60386,2.39197 0.51167,3.93553 -0.98487,6.08718c-1.45823,1.98758 -3.31668,1.00734 -4.96014,2.09084c-3.68627,2.43029 -8.12682,5.44872 -12.57782,6.02913c-2.27464,0.22511 -4.86522,0.31802 -7.09032,-0.12673c-1.6022,-0.32025 -3.57858,-1.42668 -5.28075,-0.95357c-0.71181,0.19784 -1.58662,1.46288 -2.11743,1.93533c-1.43431,1.27659 -3.20965,2.74727 -4.91531,3.59581c-1.74138,0.97608 -4.28421,1.66604 -6.39473,1.32739c2.39947,4.69373 7.86617,5.89514 12.86725,7.40926zM300.62638,117.75842l-0.51901,-0.53946c-0.26221,-0.19243 -0.93085,-0.8975 -0.74228,-0.63251c0.00013,2.52843 0.48621,4.9542 0.36719,7.5021c-0.00877,0.18767 -0.00566,0.41691 -0.01436,0.65977c0.16453,-0.27678 0.31345,-0.55913 0.44478,-0.84691c0.78616,-1.72263 0.64338,-4.03795 0.70025,-5.85938c0.00078,-0.02484 0.00121,-0.06567 0.0015,-0.11999c-0.1467,-0.06931 -0.23809,-0.16364 -0.23809,-0.16364zM296.76635,125.05496c-0.65544,-0.75352 -2.81203,-2.01336 -3.71953,-3.19845c-0.096,2.08941 -0.237,4.19034 -0.30209,6.30182c-0.01731,0.5612 0.03047,2.02322 -0.2528,2.83373c2.03751,-1.12861 4.223,-2.61278 5.84364,-4.39888c-0.90545,0.00251 -1.13435,-1.03827 -1.56924,-1.53821zM290.64301,131.9076c-1.80178,-1.55687 -3.53353,-3.25615 -5.18721,-4.96313c-0.04188,-0.04323 -0.41715,-0.36894 -0.73443,-0.71131c-0.04367,0.59339 -0.20829,1.29546 -0.21719,1.39037c-0.18294,1.95173 -0.47202,3.64606 -1.27672,5.4453c0.01629,0.10913 0.03087,0.21988 0.0437,0.33226l0.00059,0.22235c0,0 -0.00243,0.07794 -0.03085,0.18356c0.47241,0.00004 1.07624,-0.31808 1.56506,-0.35072c1.98674,-0.13267 4.18165,-0.71553 6.00327,-1.59068c-0.05635,0.01223 -0.11186,0.026 -0.1662,0.042zM283.15533,126.60009c0.00852,-0.09387 0.01148,-0.23781 0.0145,-0.41002c-1.25966,0.62291 -2.54693,1.18889 -3.84065,1.66066c1.43794,0.6659 2.49736,1.60485 3.16538,2.8804c0.37235,-1.3379 0.53074,-2.69784 0.66075,-4.13103zM285.98635,125.30241c1.59974,1.62783 3.91306,3.17464 5.07828,5.15315c0.03567,0.0003 0.17166,-2.02982 0.18012,-2.29723c0.0713,-2.25455 0.25581,-4.5199 0.32882,-6.75053c-0.55608,0.30919 -1.1199,0.60619 -1.6937,0.88758c-1.33412,0.87127 -2.77158,1.76329 -4.27241,2.60568c0.14176,0.14785 0.26884,0.28934 0.37891,0.40135zM297.15847,123.39611c0.12655,0.10919 0.73678,0.5538 1.06763,0.99786c0.00206,-0.11884 0.00529,-0.22792 0.00618,-0.30541c0.00677,-0.58128 0.03566,-1.16279 0.05446,-1.74419c0.05382,-1.66372 -0.29099,-3.29159 -0.36834,-4.94685c-1.44115,0.95791 -2.87342,1.92457 -4.34234,2.83177c1.28262,0.92125 2.33038,2.08661 3.5824,3.16683zM300.94902,115.21499c-0.13348,0.13411 -0.29211,0.27337 -0.4591,0.4095c0.12789,0.08934 0.2638,0.18804 0.40965,0.29447c0.01183,-0.24974 0.0278,-0.49094 0.04944,-0.70396z" fill="#000000" stroke-width="0.5"/><path d="M300.63538,117.70922c0,0 0.09595,0.09539 0.24265,0.1647c-0.00029,0.05432 -0.00017,0.09531 -0.00095,0.12015c-0.05687,1.82143 0.07277,4.2347 -0.71339,5.95733c-0.13133,0.28778 -0.28584,0.56993 -0.45037,0.84671c0.0087,-0.24286 0.00492,-0.47217 0.01369,-0.65984c0.11902,-2.5479 -0.37069,-5.07259 -0.37082,-7.60102c-0.18857,-0.26499 0.48911,0.43928 0.75132,0.63171l0.5279,0.54028z" data-paper-data="{&quot;noHover&quot;:false,&quot;origItem&quot;:[&quot;Path&quot;,{&quot;applyMatrix&quot;:true,&quot;segments&quot;:[[300.62638,117.75842],[[300.10737,117.21896],[0,0],[-0.26221,-0.19243]],[[299.36509,116.58645],[-0.18857,-0.26499],[0.00013,2.52843]],[[299.73228,124.08855],[0.11902,-2.5479],[-0.00877,0.18767]],[[299.71792,124.74832],[0.0087,-0.24286],[0.16453,-0.27678]],[[300.1627,123.90141],[-0.13133,0.28778],[0.78616,-1.72263]],[[300.86295,118.04203],[-0.05687,1.82143],[0.00078,-0.02484]],[[300.86445,117.92204],[-0.00029,0.05432],[-0.1467,-0.06931]],[300.62636,117.7584]],&quot;closed&quot;:true,&quot;fillColor&quot;:[0,0,0,1]}]}" fill="#f7f7f7" stroke-width="0.5"/><path d="M297.18045,123.44103c-1.25202,-1.08022 -2.36988,-2.30408 -3.6525,-3.22533c1.46892,-0.9072 2.97397,-1.90375 4.41512,-2.86166c0.07735,1.65526 0.44007,3.35284 0.38625,5.01656c-0.0188,0.5814 -0.06106,1.17727 -0.06783,1.75855c-0.00089,0.07749 -0.00593,0.18781 -0.00799,0.30665c-0.33085,-0.44406 -0.94649,-0.88559 -1.07304,-0.99478z" data-paper-data="{&quot;noHover&quot;:false,&quot;origItem&quot;:[&quot;Path&quot;,{&quot;applyMatrix&quot;:true,&quot;segments&quot;:[[[297.15847,123.39611],[0,0],[0.12655,0.10919]],[[298.2261,124.39397],[-0.33085,-0.44406],[0.00206,-0.11884]],[[298.23228,124.08856],[-0.00089,0.07749],[0.00677,-0.58128]],[[298.28674,122.34437],[-0.0188,0.5814],[0.05382,-1.66372]],[[297.9184,117.39752],[0.07735,1.65526],[-1.44115,0.95791]],[[293.57606,120.22929],[1.46892,-0.9072],[1.28262,0.92125]],[[297.15846,123.39612],[-1.25202,-1.08022],[0,0]]],&quot;closed&quot;:true,&quot;fillColor&quot;:[0,0,0,1]}]}" fill="#f7f7f7" stroke-width="0.5"/><path d="M296.80147,125.0194c0.43489,0.49994 0.67857,1.57918 1.58402,1.57667c-1.62064,1.7861 -3.88299,3.3095 -5.9205,4.43811c0.28327,-0.81051 0.2205,-2.28741 0.23781,-2.84861c0.06509,-2.11148 0.22501,-4.28404 0.32101,-6.37345c0.9075,1.18509 3.12223,2.45375 3.77767,3.20727z" data-paper-data="{&quot;noHover&quot;:false,&quot;origItem&quot;:[&quot;Path&quot;,{&quot;applyMatrix&quot;:true,&quot;segments&quot;:[[[296.76635,125.05496],[0,0],[-0.65544,-0.75352]],[[293.04682,121.85651],[0.9075,1.18509],[-0.096,2.08941]],[[292.74473,128.15833],[0.06509,-2.11148],[-0.01731,0.5612]],[[292.49193,130.99206],[0.28327,-0.81051],[2.03751,-1.12861]],[[298.33557,126.59318],[-1.62064,1.7861],[-0.90545,0.00251]],[[296.76633,125.05497],[0.43489,0.49994],[0,0]]],&quot;closed&quot;:true,&quot;fillColor&quot;:[0,0,0,1]}]}" fill="#f7f7f7" stroke-width="0.5"/><path d="M285.93777,125.29067c-0.11007,-0.11201 -0.23581,-0.25808 -0.37757,-0.40593c1.50083,-0.84239 3.00226,-1.76521 4.33638,-2.63648c0.5738,-0.28139 1.14844,-0.57301 1.70452,-0.8822c-0.07301,2.23063 -0.24674,4.56986 -0.31804,6.82441c-0.00846,0.26741 -0.15876,2.30926 -0.19443,2.30896c-1.16522,-1.97851 -3.55113,-3.58093 -5.15087,-5.20876z" data-paper-data="{&quot;noHover&quot;:false,&quot;origItem&quot;:[&quot;Path&quot;,{&quot;applyMatrix&quot;:true,&quot;segments&quot;:[[[285.98635,125.30241],[0,0],[1.59974,1.62783]],[[291.06463,130.45556],[-1.16522,-1.97851],[0.03567,0.0003]],[[291.24475,128.15833],[-0.00846,0.26741],[0.0713,-2.25455]],[[291.57357,121.4078],[-0.07301,2.23063],[-0.55608,0.30919]],[[289.87987,122.29538],[0.5738,-0.28139],[-1.33412,0.87127]],[[285.60746,124.90106],[1.50083,-0.84239],[0.14176,0.14785]],[[285.98637,125.30241],[-0.11007,-0.11201],[0,0]]],&quot;closed&quot;:true,&quot;fillColor&quot;:[0,0,0,1]}]}" fill="#f7f7f7" stroke-width="0.5"/><path d="M290.59869,131.88451c0.05434,-0.016 0.19915,0.01521 0.2555,0.00298c-1.82162,0.87515 -4.08855,1.47816 -6.07529,1.61083c-0.48882,0.03264 -1.10089,0.34412 -1.5733,0.34408c0.02842,-0.10562 0.03012,-0.1843 0.03012,-0.1843l-0.00168,-0.22351c-0.01283,-0.11238 -0.02925,-0.22529 -0.04554,-0.33442c0.8047,-1.79924 1.09655,-3.5594 1.27949,-5.51113c0.0089,-0.09491 0.18378,-0.80523 0.22745,-1.39862c0.31728,0.34237 0.69583,0.66625 0.73771,0.70948c1.65368,1.70698 3.45242,3.47393 5.2542,5.0308z" data-paper-data="{&quot;noHover&quot;:false,&quot;origItem&quot;:[&quot;Path&quot;,{&quot;applyMatrix&quot;:true,&quot;segments&quot;:[[[290.64301,131.9076],[0,0],[-1.80178,-1.55687]],[[285.4558,126.94447],[1.65368,1.70698],[-0.04188,-0.04323]],[[284.72137,126.23316],[0.31728,0.34237],[-0.04367,0.59339]],[[284.50418,127.62353],[0.0089,-0.09491],[-0.18294,1.95173]],[[283.22746,133.06883],[0.8047,-1.79924],[0.01629,0.10913]],[[283.27116,133.40109],[-0.01283,-0.11238],[0,0]],[283.27175,133.62344],[[283.2409,133.807],[0.02842,-0.10562],[0.47241,0.00004]],[[284.80596,133.45628],[-0.48882,0.03264],[1.98674,-0.13267]],[[290.80923,131.8656],[-1.82162,0.87515],[-0.05635,0.01223]],[[290.64303,131.9076],[0.05434,-0.016],[0,0]]],&quot;closed&quot;:true,&quot;fillColor&quot;:[0,0,0,1]}]}" fill="#f7f7f7" stroke-width="0.5"/><path d="M283.19109,126.56518c-0.13001,1.43319 -0.30014,2.8719 -0.67249,4.2098c-0.66802,-1.27555 -1.79914,-2.27348 -3.23708,-2.93938c1.29372,-0.47177 2.66093,-1.06079 3.92059,-1.6837c-0.00302,0.17221 -0.00249,0.3194 -0.01101,0.41327z" data-paper-data="{&quot;noHover&quot;:false,&quot;origItem&quot;:[&quot;Path&quot;,{&quot;applyMatrix&quot;:true,&quot;segments&quot;:[[[283.15533,126.60009],[0,0],[0.00852,-0.09387]],[[283.16983,126.19007],[-0.00302,0.17221],[-1.25966,0.62291]],[[279.32918,127.85073],[1.29372,-0.47177],[1.43794,0.6659]],[[282.49456,130.73113],[-0.66802,-1.27555],[0.37235,-1.3379]],[[283.15531,126.6001],[-0.13001,1.43319],[0,0]]],&quot;closed&quot;:true,&quot;fillColor&quot;:[0,0,0,1]}]}" fill="#f7f7f7" stroke-width="0.5"/><path d="M266.06857,220.15179c-1.13156,3.08067 0.27639,4.53303 2.985,5.62897c6.38036,2.60096 14.20653,0.78175 20.1149,-2.53347c0.1556,-1.45752 -1.25551,-1.83433 -2.28186,-2.76608c-2.45998,-2.23322 -4.8058,-4.86121 -7.46878,-6.85785c-2.18868,4.97895 -7.89157,8.00682 -13.31903,6.22984zM278.42514,211.99859c0.02063,-0.02956 0.04165,-0.05679 0.06298,-0.08184c0.20794,-0.71916 0.33092,-1.47351 0.35526,-2.25278c-0.19256,-1.77663 -2.22705,-3.37684 -3.28364,-4.74959c-2.66121,-3.45749 -5.0336,-7.57042 -3.98824,-12.17811c1.6702,-7.10702 7.32347,-11.60522 11.06959,-17.51006c0.22709,-0.62291 0.52254,-1.22668 0.87545,-1.79123l0.13673,-0.26204c0,0 0.35636,-0.67082 1.01671,-0.33541c0.66034,0.33541 0.30399,1.00623 0.30399,1.00623l-0.19528,0.36296c-0.3286,0.51458 -0.58617,1.07511 -0.7944,1.64627c-3.62538,5.77108 -9.3822,10.25818 -10.95111,17.17744c-1.02761,4.34536 1.63114,8.58582 4.30191,11.69647c1.24984,1.4557 2.71036,2.85782 3.00704,4.81333c-0.02795,0.89516 -0.16306,1.76074 -0.39126,2.58615c2.85337,2.05487 5.3676,4.83852 7.95394,7.22162c0.79232,0.73007 2.31868,1.37952 2.76014,2.41868c0.29643,0.69776 -0.09235,1.65787 -0.2762,2.31524c-5.98386,4.24579 -15.20205,5.80364 -21.93575,3.09153c-3.43161,-1.39162 -5.18622,-3.6477 -3.79264,-7.49603l-0.03614,-0.07533c0,0 0.00786,-0.25141 0.16002,-0.46311c-5.89009,-3.59681 -8.8118,-10.11774 -10.81541,-16.74987c-0.46001,-0.98455 -1.1767,-1.81537 -1.49566,-2.87589c-2.03374,-6.76175 4.37468,-10.24546 8.40375,-14.15253c3.15063,-3.99311 7.62632,-8.50261 9.65821,-13.22464c0,0 0.3003,-0.69636 0.98794,-0.41781c0.68767,0.27854 0.38736,0.9749 0.38736,0.9749c-2.12171,4.91036 -6.69863,9.46676 -9.93104,13.65036c-3.54313,3.43584 -9.89193,6.69593 -8.06051,12.72247c0.29119,0.95819 1.02945,1.8465 1.45367,2.74911c2.01334,6.66431 4.93845,13.40175 11.26243,16.62535c4.78354,1.61383 9.95327,-1.31321 11.64351,-5.88658c-0.02846,-0.15572 -0.00119,-0.34353 0.14659,-0.55528z" fill="#000000" stroke-width="0.5"/><path d="M233.27879,219.94027l-0.16685,0.59019c-0.30369,1.29228 -0.7235,2.36203 -1.67856,3.31306c-2.34564,3.01812 -13.10721,7.7742 -7.40307,12.16746c2.6423,1.6114 5.00721,0.263 7.88562,-0.27033c3.10542,-0.57539 6.29509,-1.19926 9.44731,-1.72208c3.19644,-0.49771 7.95258,-4.04133 7.44016,-7.71212c-0.18307,-1.31151 -1.11612,-2.1479 -1.53905,-3.30379c-4.00812,1.29382 -8.25196,0.32768 -11.84735,-1.81436c-0.73896,-0.44026 -1.49107,-0.86485 -2.11853,-1.3559c-0.00793,0.06607 -0.0197,0.10787 -0.0197,0.10787zM247.82934,221.03962c0.15909,0 0.28338,0.03375 0.38048,0.08693c0.00081,-0.00034 0.00161,-0.00067 0.00242,-0.00101c1.82827,-5.44621 1.44595,-10.91547 5.45785,-15.74194c0,0 0.4868,-0.58565 1.05783,-0.11713c0.57102,0.46852 0.08422,1.05417 0.08422,1.05417c-4.04312,4.86403 -3.02206,10.63712 -5.52778,15.82056c-0.222,0.11911 -0.44524,0.23031 -0.66958,0.33381c0.28439,1.26482 1.45477,2.18358 1.67042,3.54778c0.72005,4.55496 -4.73478,8.78248 -8.72157,9.47538c-3.1417,0.52074 -6.31031,1.17109 -9.41005,1.71542c-3.38123,0.59376 -5.86498,1.96321 -8.99914,0.04217c-7.26564,-5.56547 4.13915,-10.52474 7.17642,-14.39504c0.78241,-0.73398 1.08509,-1.59125 1.31936,-2.62444l0.18469,-0.65981c0,0 0.14276,-0.50763 0.61049,-0.56887c-0.53108,-0.66838 -0.80355,-1.48054 -0.60826,-2.56116c4.83944,-4.99632 8.40814,-11.36407 12.09827,-17.18575c1.46947,-3.16238 3.3137,-6.35717 5.51041,-9.17106l0.24904,-0.08104c0.58133,-1.28654 1.72491,-2.33551 2.44534,-3.59766c2.44994,-4.29213 5.8029,-7.40665 8.82806,-11.26559c0.97185,-1.83611 1.96869,-4.06231 3.18414,-5.6807l0.05273,-0.25592c0,0 0.2594,-0.71151 0.96349,-0.47434c0.7041,0.23717 0.44472,0.94868 0.44472,0.94868l-0.28904,0.68158c-1.20163,1.44863 -2.18974,3.85295 -3.10467,5.5693c-2.98385,3.82914 -6.35164,6.91595 -8.76632,11.16193c-0.58491,1.0285 -1.85449,2.21076 -2.36083,3.34094c0.00228,0.03261 0.00292,0.06686 0.0018,0.10284c-0.00764,0.24465 -0.09259,0.40949 -0.2036,0.52056c-0.05519,0.15926 -0.24718,0.57355 -0.74439,0.54546c-1.9354,2.58326 -3.59637,5.47712 -4.89667,8.33791c-3.5066,5.57635 -7.08495,12.77396 -12.10019,17.18925c-0.26289,1.019 2.26225,2.28498 3.06094,2.75813c3.37088,1.99693 7.12923,2.81127 10.90171,1.63483c0.07872,-0.21602 0.26714,-0.48615 0.71724,-0.48615z" fill="#000000" stroke-width="0.5"/><path d="M276.9362,152.88433c0.30152,0.20529 0.34822,0.46123 0.31815,0.66784c0.19898,-0.34343 0.40163,-0.68447 0.60897,-1.02231c0.6659,-2.39244 1.64191,-4.73611 2.8099,-7.01027c-3.14022,1.38543 -6.5197,2.2763 -9.15418,2.79144c-2.94477,0.64773 -6.56694,0.66282 -9.30019,2.02975l-0.23619,0.11628c0,0 -0.6813,0.33541 -0.99575,-0.33541c-0.31446,-0.67082 0.36683,-1.00623 0.36683,-1.00623l0.23619,-0.11628c2.90229,-1.4106 6.5604,-1.46816 9.66773,-2.1563c3.78686,-0.7377 7.58026,-2.01943 10.90779,-4.02788c1.65042,-2.80543 3.53262,-5.48599 5.40647,-7.99953c0,0 0.45499,-0.6103 1.05167,-0.17437c0.59668,0.43593 0.14169,1.04623 0.14169,1.04623c-1.18991,1.59607 -2.37583,3.2553 -3.49997,4.96933c1.07948,-0.81387 2.07672,-1.67662 2.59085,-2.99418c0,0 0.28527,-0.70225 0.9793,-0.4389c0.69403,0.26334 0.40875,0.96559 0.40875,0.96559c-1.08773,2.59888 -3.45003,4.62608 -6.25036,6.18257c-1.57711,2.79677 -2.90294,5.71325 -3.75614,8.71744c-1.05073,1.76982 -2.02064,3.58848 -2.98458,5.40462l-0.2106,0.59944c0,0 -0.02121,0.0582 -0.06799,0.13576c2.55888,-0.24594 7.84723,0.1214 9.9071,1.95774c-0.11762,-3.22988 0.03443,-6.41853 1.5376,-9.67494c0.0807,-0.25625 0.1614,-0.5125 0.2421,-0.76875l0.30145,-0.59449c0,0 0.35636,-0.67082 1.01671,-0.33541c0.66034,0.33541 0.30399,1.00623 0.30399,1.00623l-0.19272,0.33575c-0.09129,0.28639 -0.18258,0.57277 -0.27387,0.85916c-2.53879,5.54179 -1.01728,10.89553 -1.1733,16.61111c0.03809,0.21499 -0.02913,0.38583 -0.12159,0.51252c-0.08028,0.13984 -0.21491,0.27538 -0.44056,0.32842c-3.81753,3.46621 -11.91286,2.06094 -16.25913,0.80854c0,0 -0.7147,-0.20604 -0.48615,-0.92718c0.22856,-0.72114 0.94326,-0.5151 0.94326,-0.5151c3.66859,1.05811 11.71255,2.66612 14.86085,-0.50686l0.01025,-0.00604c0.0184,-1.02714 -0.01166,-2.04295 -0.05892,-3.05058c-0.88539,1.36315 -2.38499,2.56077 -3.37057,3.1999c-1.85131,0.78644 -3.64539,1.01784 -5.62167,1.02077h-0.69767c0,0 -0.75,0 -0.72658,-0.75c0.02342,-0.75 0.77342,-0.75 0.77342,-0.75h0.69767c1.712,0.00281 3.29547,-0.1644 4.90155,-0.83969c0.84324,-0.55541 4.26654,-3.13563 3.06201,-4.55924c-1.56131,-1.84527 -7.23413,-2.13947 -9.37595,-1.82954c0,0 -0.48207,0.06856 -0.71412,-0.29042c-1.4532,1.94035 -3.30362,3.57272 -4.91182,5.38489l-0.28025,0.27479c0,0 -0.54689,0.53033 -1.06066,0c-0.51377,-0.53033 0.03312,-1.06066 0.03312,-1.06066l0.19939,-0.19032c1.87021,-2.10315 4.12502,-3.96755 5.58311,-6.39564c0,0 0.06288,-0.10431 0.17927,-0.20558l0.17058,-0.4554c0.60008,-1.12866 1.19525,-2.26642 1.81967,-3.38634c-1.67698,2.14239 -3.93802,3.7701 -6.07547,5.4387c-4.47288,3.49047 -9.16383,5.59484 -14.21063,7.64171c1.48729,1.53237 1.59608,5.10506 0.59945,6.96148c0.01942,-0.00134 0.03044,-0.00134 0.03044,-0.00134c0.78125,0 1.5625,0 2.34375,0h0.15625c0,0 0.75,0 0.72658,0.75c-0.02342,0.75 -0.77342,0.75 -0.77342,0.75c-0.78125,0 -1.71875,0 -2.5,0c0,0 -0.69112,0 -0.72577,-0.66343c-0.71641,0.47072 -1.59749,0.50344 -2.10434,1.2638c-0.5144,0.77166 -0.5813,2.08096 -0.79028,2.95553c-0.79573,1.46271 -1.78675,2.39545 -3.57168,2.05556c-0.52466,-0.09991 -1.35298,-0.81513 -1.94445,-0.64995c-0.538,0.15024 -0.53094,1.17461 -0.65989,1.53345c-0.41016,1.14123 -1.14468,1.8294 -2.36095,2.08526c-0.69936,0.14712 -2.60024,-0.38528 -3.73856,-1.14221c0.05888,0.56032 0.11297,1.12756 0.07094,1.73667c-1.7836,2.46419 -5.86523,3.31237 -7.04395,-0.33233c-0.9346,-2.88986 1.52328,-7.96803 3.963,-9.54386c-4.24551,-4.04533 3.38772,-7.36148 7.04272,-8.86639c1.27725,-0.52589 2.3931,-1.26907 3.76533,-1.30709c0,0 0.75,0 0.72658,0.75c-0.02342,0.75 -0.77342,0.75 -0.77342,0.75c-1.04445,-0.04899 -2.19855,0.78648 -3.18774,1.19291c-2.71682,1.11627 -10.06664,3.70043 -5.98787,6.83209c0.88029,0.72068 3.23043,0.96067 3.90356,-0.23619c0.38549,-0.68545 0.277,-1.81809 0.74097,-2.40834c0.39211,-0.49883 1.35211,-0.81566 1.92967,-1.04557l0.72749,-0.1875c0,0 0.73329,-0.1819 0.89247,0.54571c0.15918,0.72761 -0.57411,0.90951 -0.57411,0.90951l-0.53227,0.125c-1.96066,0.7678 -0.95045,2.28917 -2.54524,3.61059c-1.26579,1.04881 -3.52299,0.93151 -4.96184,0.20267c-0.11533,0.2269 -0.32817,0.35225 -0.32817,0.35225c-2.02117,1.15049 -3.9623,5.57264 -3.35193,7.88954c0.59652,2.26433 3.15253,1.44417 4.18653,0.29267c-0.0425,-1.0757 -0.27691,-2.04209 -0.24997,-3.11798l0.03714,-0.06837l-0.02394,-0.00482l0.17749,-0.76763c0.07391,-0.35054 0.38876,-0.61654 0.75742,-0.61654c0.24849,0 0.46499,0.12085 0.59566,0.30698l0.44421,0.61802l-0.1963,0.14385c0.86396,1.08219 1.58091,2.22223 3.29647,1.91343c1.88409,-0.33913 0.93047,-2.91265 2.82861,-3.5688c1.8122,-0.62644 3.34719,1.87516 4.54243,-0.46939c0.22892,-1.03423 0.33117,-2.40462 0.9674,-3.29447c0.71828,-1.0046 2.17518,-0.87943 2.68569,-1.82958c1.46497,-2.72654 0.41775,-4.54071 -1.45681,-5.60222c-0.15293,-0.01152 -0.32407,-0.06937 -0.45584,-0.23611c-0.68117,-0.3226 -1.44348,-0.55882 -2.21971,-0.71505l-0.32212,0.01456c0,0 -0.75,0 -0.72658,-0.75c0.02342,-0.75 0.77342,-0.75 0.77342,-0.75l0.61538,0.01456c0.93185,0.18754 2.01402,0.3327 2.97408,0.67286c5.3363,-2.10189 10.24904,-4.22342 14.91621,-7.86683c2.03626,-1.58901 4.21753,-3.1361 5.81144,-5.17685l0.30204,-0.43478c0,0 0.43551,-0.62404 1.04656,-0.20801z" fill="#000000" stroke-width="0.5"/></g></g></svg>