<svg version="1.1" xmlns="http://www.w3.org/2000/svg" xmlns:xlink="http://www.w3.org/1999/xlink" width="163.34908" height="191.76283" viewBox="0,0,163.34908,191.76283"><g transform="translate(-314.61173,-176.9181)"><g data-paper-data="{&quot;isPaintingLayer&quot;:true}" fill-rule="nonzero" stroke="none" stroke-linecap="butt" stroke-linejoin="miter" stroke-miterlimit="10" stroke-dasharray="" stroke-dashoffset="0" style="mix-blend-mode: normal"><path d="M374.59543,366.69375l7.11303,-32.43412l-67.09673,-15.55855l16.74652,-141.78297l146.60256,36.21795l-1.49216,106.39496l-51.43958,19.44121l8.0279,29.70871z" fill="#ffffff" stroke-width="0"/><path d="M440.87749,274.69375c-1.75,0 -1.75,-1.75 -1.75,-1.75v-0.83333c0.01365,-1.08736 -0.15882,-2.00735 -0.42488,-2.88003c0.3794,3.97115 0.1852,6.96025 -1.88087,11.06354c-0.99753,0.7524 -1.814,1.84234 -2.99259,2.25719c-1.7618,0.62014 -5.05812,-0.19072 -7.00475,-1.36527c0.15998,1.43823 -0.01334,6.0009 -0.78922,6.96424c-1.94491,2.41482 -4.16565,1.93536 -6.69101,1.89215c-3.52391,-0.0603 -7.23788,-0.16537 -10.71977,-0.75897c-5.64574,-0.9625 -10.63414,-3.08219 -15.1305,-6.67299c-1.43587,-1.14669 -2.46696,-2.72434 -3.67661,-4.10759c-0.28711,-0.32832 -0.5,-1.25457 -0.8502,-0.99459c-0.47984,0.35622 -0.1391,1.1871 -0.20865,1.78066c-1.11406,1.76077 -2.88664,4.87308 -4.54746,6.1971c-7.25668,5.78511 -20.4729,3.2114 -23.76999,-5.82498c-0.67996,-1.86359 -0.1169,-3.96795 -0.06221,-5.95096c0.18597,-6.74271 1.79042,-15.75848 8.59878,-18.64101c0,0 1.62483,-0.64993 2.27477,0.9749c0.64993,1.62483 -0.9749,2.27477 -0.9749,2.27477c-3.8339,1.4041 -4.36786,5.25976 -5.50956,8.82394c-0.82733,2.58277 -1.91665,8.96933 -0.95388,11.5841c2.45903,6.67836 13.02197,8.20053 18.21,4.02665c1.12725,-0.9069 2.93149,-3.98466 3.64984,-5.11836c0.70469,-1.14073 0.83191,-3.02984 2.11407,-3.42219c2.77942,-0.85052 5.38332,2.83822 6.73173,4.32853c3.02323,3.34137 7.12052,5.39715 11.42779,6.47028c4.46727,1.11299 8.88972,1.37777 13.4831,1.53177c0.61535,0.02063 3.11927,0.47028 3.78929,-0.47258c0.98979,-1.39285 -1.16758,-7.32337 0.18952,-8.13341c3.38224,-2.01882 7.70907,2.88903 10.69058,0.15623c1.85643,-3.75213 1.3743,-6.54561 0.90352,-10.59937l-0.78613,-2.33038c0,0 -0.5534,-1.6602 1.1068,-2.21359c0.45854,-0.15285 0.83264,-0.13683 1.13398,-0.03357c-0.82278,-2.57804 -1.70645,-5.09495 -3.00493,-7.54737c-2.4997,-4.72116 -8.48092,-8.21393 -13.0427,-10.49976c-4.98805,-0.98646 -10.12246,-0.59243 -15.19962,-0.59243c-15.29418,0 -32.59651,-0.05511 -44.16366,11.35658c-2.60899,5.40966 -5.54852,10.419 -6.7895,16.41558c-1.44537,6.98426 -0.91804,17.24187 1.57861,23.99614c1.85823,5.02713 5.03692,9.12516 7.9978,13.63241c4.55681,3.61667 8.25706,8.47816 13.06665,11.84628c7.21765,5.05446 19.27988,6.35381 27.66266,3.90367c0,0 1.68267,-0.48076 2.16343,1.2019c0.48076,1.68267 -1.2019,2.16343 -1.2019,2.16343c-9.48684,2.65762 -22.52031,1.27354 -30.67067,-4.42966c-5.00856,-3.50473 -8.88488,-8.51997 -13.60001,-12.32038c-3.23841,-4.7954 -6.7116,-9.2857 -8.66887,-14.70092c-2.70096,-7.4728 -3.3334,-18.27259 -1.75472,-26.00386c1.31653,-6.44746 4.4214,-11.99212 7.37717,-17.75108c1.51745,-1.53437 3.75779,-3.95334 5.57064,-5.18133c10.58113,-7.16745 25.67515,-7.62876 37.93237,-7.62876c6.60796,0 13.34473,-0.52842 19.83111,0.78038c5.42456,2.67497 11.99391,6.62852 14.99524,12.1569c1.74147,3.20775 2.78079,6.60946 3.85331,10.04092c0.95779,3.06438 2.20579,5.09351 2.23701,8.35514v0.83333c0,0 0,1.75 -1.75,1.75z" fill="#9966ff" stroke-width="0.5"/><path d="M428.4282,321.59233c-0.87019,-0.43509 -1.01471,-1.11207 -0.97148,-1.62752c-1.01836,3.53556 -2.364,7.00993 -4.62324,9.60616c-4.19039,4.81542 -14.4208,-1.35741 -17.13394,-5.61557c-0.18915,-0.29687 -1.88903,-4.42822 -2.31661,-5.46136l-0.22116,-0.8795c-1.28072,-0.08796 -1.51047,-1.46644 -1.51047,-1.46644c-0.61065,-3.86762 -2.9052,-7.51123 -4.75292,-11.02641c-2.33352,0.73129 -4.73206,1.22155 -7.27089,1.23871c0,0 -1.75,0 -1.75,-1.75c0,-1.75 1.75,-1.75 1.75,-1.75c2.48437,0.01993 4.86853,-0.51343 7.20223,-1.30438c0.23603,-0.19547 0.56207,-0.3382 1.01245,-0.35953c3.63865,-1.34788 7.17093,-3.22383 10.78874,-4.48722c3.36094,-1.17369 6.84311,-1.76142 10.24724,-2.71985c1.6156,-0.45487 7.3323,-3.3895 8.98566,-2.63326c2.39089,1.09358 1.83969,5.46743 1.84702,7.17089c0.02044,4.74645 -0.1277,9.44074 -0.38926,14.17952c-0.53426,2.02794 -1.03494,4.25945 -1.64872,6.49014l0.69754,-1.22045c2.18169,-2.20993 3.11593,-4.81197 4.43338,-7.61083c4.00375,-8.50575 7.57372,-17.56426 7.57372,-27.00505c0,0 0,-1.75 1.75,-1.75c1.75,0 1.75,1.75 1.75,1.75c0,9.97184 -3.68154,19.51424 -7.90686,28.49534c-1.49527,3.17826 -2.64965,6.00062 -5.08604,8.55544l-0.10853,0.39851c0,0 -0.78262,1.56525 -2.34787,0.78262zM405.90857,314.18598l0.79681,3.20747c0.6325,1.50634 0.99436,3.14692 1.85006,4.53864c1.70118,2.76683 7.70069,6.30021 10.99614,5.99908c1.31971,-0.12059 1.67232,-2.08285 2.26076,-3.27025c1.94375,-3.92226 2.92188,-8.30207 4.05192,-12.49938c0.16858,-3.38595 0.34686,-6.74365 0.34656,-10.13446c-0.0001,-1.16667 -0.00552,-2.33335 0,-3.5c0.005,-1.05639 -0.01606,-2.11373 0.03158,-3.16906c0.01263,-0.27971 0.4281,-0.84618 0.14878,-0.82671c-0.49623,0.0346 -0.74756,0.67368 -1.19086,0.89936c-1.69532,0.8631 -3.54122,1.40987 -5.37188,1.9273c-3.33299,0.94206 -6.74631,1.50453 -10.0377,2.65356c-3.26936,1.14134 -6.39271,2.65457 -9.57186,3.91745c1.52183,2.90971 3.19115,5.82104 4.19874,8.9191c1.17537,0.07559 1.49095,1.3379 1.49095,1.3379z" fill="#9966ff" stroke-width="0.5"/><path d="M433.80672,321.70631c1.23744,-1.23744 2.47487,0 2.47487,0l0.83333,0.83333c2.02686,2.28361 6.03108,1.29802 8.39661,0.08886c5.3885,-2.7544 9.65241,-7.79892 9.99926,-14.16302c0.12495,-2.2926 0.00242,-6.93042 2.29876,-8.42701c0.94553,-0.61623 2.05687,0.92988 3.09197,1.37969c0.91111,0.39593 1.91387,0.64453 2.90723,0.65574c2.35024,-1.03603 2.41049,-4.82392 2.40207,-7.04681c-0.03355,-8.85266 -2.67911,-17.61561 -7.68206,-24.88707c-1.26993,-1.84576 -4.2223,-5.1067 -2.79838,-7.83344c0.54766,-1.04874 2.30682,-0.54647 3.48044,-0.69616c4.37426,-0.55792 7.01,-1.63158 10.69391,-4.37108c3.1357,-3.40043 1.92981,-8.30162 -0.4805,-12.07062c-4.51469,-7.05962 -12.35756,-12.99286 -20.08568,-15.99207c-2.57408,-0.99897 -6.2821,-1.38815 -8.69937,-2.52676c-1.16337,-0.54798 -2.60641,-1.12125 -3.08679,-2.31413c-0.41752,-1.03678 0.53263,-2.17182 0.84853,-3.24394c0.41997,-1.42531 0.74168,-2.91226 0.72656,-4.39807c0,-2.11663 0.44718,-4.68864 -0.6122,-6.64848c-1.8992,-3.51351 -6.91509,-3.83952 -10.35662,-4.10677c-9.86683,-0.7662 -21.28343,-1.02005 -30.11546,3.91321c-3.65164,2.03968 -6.60173,5.22905 -10.33121,7.32426c-0.06795,-0.06602 -4.2792,-4.21973 -4.80548,-4.52637c-3.36121,-1.95837 -8.74388,-0.71004 -12.31541,-0.13568c-9.55863,1.53717 -18.17126,4.04522 -22.33006,13.67337c-1.61464,3.7381 -1.3769,7.4957 -1.40139,11.50651c-0.00968,1.58618 0.75608,3.42302 -0.1013,4.75754c-0.60789,0.94618 -2.21638,0.38322 -3.32456,0.57483c-5.6708,0.34967 -10.83246,1.98485 -15.12939,5.79603c-5.14312,4.56173 -5.45366,12.52994 -5.06532,18.85253c0.16143,2.62832 0.38208,5.83776 1.46176,8.31046c1.74116,3.98763 6.37558,5.76499 8.806,9.21491c0.7175,1.01848 1.07169,2.24942 1.60753,3.37413c-1.70185,2.21309 -3.78203,3.61116 -4.16889,6.53544c-0.79131,5.98156 1.09625,9.41463 4.69515,13.89367c6.07266,7.55777 15.88731,14.32222 26.14365,12.22438c0,0 1.71602,-0.3432 2.05922,1.37281c0.3432,1.71602 -1.37281,2.05922 -1.37281,2.05922c-11.59592,2.2745 -22.61914,-4.82949 -29.55833,-13.46403c-0.79502,-0.98925 -3.56488,-4.38024 -4.00947,-5.22312c-2.22176,-4.21212 -3.31644,-15.97385 2.73771,-17.82602c-3.39779,-3.01734 -8.2193,-6.51132 -10.13604,-10.73531c-1.28064,-2.82221 -1.56653,-6.49322 -1.75865,-9.51822c-0.47481,-7.47595 0.26429,-16.2748 6.20466,-21.66111c4.87526,-4.42053 10.90825,-6.27181 17.37061,-6.70397c0.2807,0.19161 0.83289,0.91457 0.8421,0.57483c0.02121,-0.7822 -0.68495,-1.43342 -0.79782,-2.20772c-0.28011,-1.92145 0.05738,-5.29888 0.20222,-7.21821c0.3895,-5.16115 3.24592,-10.28624 6.88505,-13.94957c6.528,-6.57143 17.90995,-8.11057 26.76187,-8.35185c4.57116,-0.1246 9.04324,0.64126 10.99504,5.33606c4.65915,-4.98104 10.90346,-9.38381 17.70372,-10.80918c6.00148,-1.25794 12.78037,-0.46309 18.8808,-0.4586c5.67444,0.00418 13.61826,0.10657 16.77886,5.89848c1.43265,2.62538 1.05447,5.52342 1.05447,8.35152c-0.02207,2.715 0.25486,3.024 -0.94011,5.60193c-0.17287,0.37294 -0.91259,0.52266 -0.81813,0.92272c0.08393,0.35548 0.72247,0.11061 1.07988,0.18587c1.05251,0.22164 2.1001,0.46606 3.1489,0.70463c2.98628,0.67931 6.20661,1.75027 8.93469,3.14777c7.66928,3.9287 16.8892,11.08552 20.17199,19.35332c0.85437,2.15175 1.75805,7.57408 0.81408,9.85757c-0.54775,1.32501 -1.81606,2.21915 -2.72408,3.32872c-2.626,1.96565 -5.22036,3.87588 -8.41856,4.82491c-1.07059,0.31769 -3.49684,0.76233 -4.66532,0.48922c-0.08646,-0.02021 -0.19184,-0.10003 -0.29529,-0.2003c6.23163,7.98775 9.92369,16.7961 10.78751,27.03544c0.44841,5.31521 -0.03309,10.90708 -5.09015,13.53472c-2.09172,0.01132 -3.59488,0.36771 -5.4261,-1.01093c-0.16943,-0.12756 -0.22473,-0.57654 -0.24062,-0.88536c0.02337,2.4802 0.52178,5.20475 -0.11034,7.65602c-1.68569,6.53684 -5.8496,11.61957 -11.75905,14.519c-3.99977,1.96246 -8.97509,2.49594 -12.43673,-0.74448l-0.83333,-0.83333c0,0 -1.23744,-1.23744 0,-2.47487z" fill="#9966ff" stroke-width="0.5"/><path d="M417.07678,359.92566c-1.56525,0.78262 -2.34787,-0.78262 -2.34787,-0.78262l-0.57761,-1.32826c-0.97219,-5.93956 -3.32789,-12.82494 -5.71565,-18.34834c0,0 -0.68936,-1.6085 0.91915,-2.29786c1.6085,-0.68936 2.29786,0.91915 2.29786,0.91915c2.47426,5.81829 4.89566,12.91838 5.95102,19.15166l0.25572,0.33841c0,0 0.78262,1.56525 -0.78262,2.34787z" fill="#9966ff" stroke-width="0.5"/><path d="M403.35027,362.6102c-1.74979,-0.02723 -1.72256,-1.77701 -1.72256,-1.77701l0.03343,-2.02121c0.81823,-7.35064 0.80121,-15.13158 0.79969,-22.53489c0,0 0,-1.75 1.75,-1.75c1.75,0 1.75,1.75 1.75,1.75c-0.00149,7.47469 0.01646,15.33408 -0.80666,22.75563l-0.02688,1.85493c0,0 -0.02723,1.74979 -1.77701,1.72256z" fill="#9966ff" stroke-width="0.5"/><path d="M385.7401,361.48317c-1.45609,-0.97073 -0.48536,-2.42681 -0.48536,-2.42681l0.72417,-1.0619c1.15586,-2.30223 1.71587,-4.8665 2.93313,-7.11542c1.9523,-3.60694 4.07655,-6.97321 5.78898,-10.74278c0,0 0.72416,-1.59314 2.3173,-0.86899c1.59314,0.72416 0.86899,2.3173 0.86899,2.3173c-1.74154,3.82918 -3.86782,7.27105 -5.87769,10.92389c-1.20998,2.19908 -1.76911,4.7805 -2.90021,7.05125l-0.94249,1.4381c0,0 -0.97073,1.45609 -2.42681,0.48536z" fill="#9966ff" stroke-width="0.5"/></g></g></svg>