<svg version="1.1" xmlns="http://www.w3.org/2000/svg" xmlns:xlink="http://www.w3.org/1999/xlink" width="130.21607" height="153.93167" viewBox="0,0,130.21607,153.93167"><defs><linearGradient x1="191.68098" y1="145.28669" x2="196.66162" y2="191.78605" gradientUnits="userSpaceOnUse" id="color-1"><stop offset="0" stop-color="#cc2981"/><stop offset="1" stop-color="#a92292"/></linearGradient><linearGradient x1="301.68339" y1="143.02167" x2="294.867" y2="189.28758" gradientUnits="userSpaceOnUse" id="color-2"><stop offset="0" stop-color="#cc2981"/><stop offset="1" stop-color="#a92292"/></linearGradient><linearGradient x1="279.40136" y1="213.14454" x2="279.40136" y2="237.25755" gradientUnits="userSpaceOnUse" id="color-3"><stop offset="0" stop-color="#9966ff"/><stop offset="1" stop-color="#66ebff"/></linearGradient><linearGradient x1="309.62405" y1="208.89782" x2="309.62405" y2="237.33108" gradientUnits="userSpaceOnUse" id="color-4"><stop offset="0" stop-color="#9966ff"/><stop offset="1" stop-color="#66ebff"/></linearGradient><radialGradient cx="230.24877" cy="205.85558" r="5.02555" gradientUnits="userSpaceOnUse" id="color-5"><stop offset="0" stop-color="#54606d"/><stop offset="1" stop-color="#2c3136"/></radialGradient></defs><g transform="translate(-183.27214,-84.51751)"><g data-paper-data="{&quot;isPaintingLayer&quot;:true}" fill-rule="nonzero" stroke-miterlimit="10" stroke-dasharray="" stroke-dashoffset="0" style="mix-blend-mode: normal"><g data-paper-data="{&quot;index&quot;:null}" stroke="#000000" stroke-width="0.90024" stroke-linecap="round" stroke-linejoin="miter"><path d="M281.41082,161.86522c0,0 3.51733,-13.14673 3.7507,-13.80318c0.23332,-0.65632 1.50775,-6.4451 10.43977,-12.71302c0,0 7.70858,30.65176 -3.53148,44.22873c-0.00041,-0.00081 -2.60557,-8.56965 -10.65899,-17.71253zM281.57907,162.05865c-0.64763,-0.76523 -2.05231,-1.98526 -2.05231,-1.98526M292.44422,182.03696c0,0 -0.11264,-1.59908 -0.37483,-2.46001" fill="#be1e2d"/><path d="M295.63176,172.34951c0,0 -2.00445,-0.3807 -4.01424,-3.94748c-1.25031,-2.21064 -2.34065,-6.84269 -2.34065,-6.84269l-0.01381,0.17232c0.26242,-1.04819 0.49731,-2.23675 0.62772,-3.4765c0.22242,-2.09806 0.21911,-5.07445 0.13332,-7.96685l0.00681,-0.40784c0,0 0.75744,-5.69824 6.48974,-9.26535l0.08816,0.00288c0.84803,4.82308 1.88394,12.00193 1.71612,17.34791c-0.18807,5.99676 -1.42892,10.90935 -2.75581,14.52312l0.06265,-0.13951v0v0v0v0v0zM288.03439,165.31207c0,0 1.06703,-3.12162 1.2425,-3.75275" fill="#929497"/></g><g data-paper-data="{&quot;index&quot;:null}" stroke="#000000" stroke-width="0.90024" stroke-linecap="round" stroke-linejoin="miter"><path d="M199.98316,182.43183c-11.03297,-13.74472 -2.86252,-44.27663 -2.86252,-44.27663c8.83603,6.40292 10.0229,12.21028 10.2467,12.86925c0.22376,0.65906 3.54184,13.85823 3.54184,13.85823c-8.19176,9.02062 -10.92603,17.54915 -10.92603,17.54915zM212.81879,163.11983c0,0 -1.42295,1.19868 -2.08197,1.95409M199.98316,182.43183c-0.27525,0.85683 -0.41194,2.45407 -0.41194,2.45407" fill="#be1e2d"/><path d="M196.59087,175.29185c-1.27176,-3.63419 -2.43748,-8.56455 -2.53628,-14.56313c-0.08788,-5.34832 1.0572,-12.51025 1.97788,-17.32002l0.08828,-0.00149c5.67817,3.65447 6.34909,9.36229 6.34909,9.36229l0.00065,0.4079c-0.12955,2.89072 -0.17771,5.86677 0.013,7.96795c0.11167,1.24158 0.3286,2.43355 0.57515,3.48558l-0.0112,-0.17251c0,0 -1.16016,4.61506 -2.4438,6.80652c-2.06332,3.53608 -4.07338,3.88642 -4.07338,3.88642zM203.04743,164.45842c0.16591,0.63371 1.18569,3.77108 1.18569,3.77108" fill="#929497"/></g><path d="M200.23533,144.47825c0,0 2.82605,-39.29199 50.66975,-39.42802c32.83025,-0.09334 44.32688,38.62797 44.32688,38.62797" data-paper-data="{&quot;index&quot;:null}" fill="none" stroke="#000000" stroke-width="7" stroke-linecap="round" stroke-linejoin="miter"/><path d="M243.37296,214.83396v0v0v0v0v0c-0.65353,1.7331 -2.41972,4.79054 -3.32155,5.48062c0,0 -3.65069,2.53988 -5.44999,0.91126c-0.76912,-0.69561 -0.9627,-1.6474 -0.71963,-2.78219c-0.35537,-0.21778 -0.82794,-0.6047 -0.93459,-1.22797c-0.17847,-1.03339 1.99919,-1.29088 1.99919,-1.29088l-0.00425,0.01842c0.1636,-0.27262 0.3322,-0.54326 0.52392,-0.82614c1.08952,-1.5966 3.14642,-3.63079 4.21524,-4.78494c0,0 0.9002,-1.02768 2.4465,-0.63804c1.64509,0.41426 1.89868,3.40676 1.24515,5.13985z" data-paper-data="{&quot;index&quot;:null}" fill="#be1e2d" stroke="#231f20" stroke-width="0.78672" stroke-linecap="round" stroke-linejoin="round"/><path d="M258.22143,217.36084v0v0v0v0c0,0 -3.46029,2.79337 -5.36972,1.29263c-0.82038,-0.6352 -1.07667,-1.57444 -0.91815,-2.72422c-0.37259,-0.19113 -0.86805,-0.5414 -1.02052,-1.15659c-0.25199,-1.01661 1.90166,-1.43279 1.90166,-1.43279l-0.00279,0.01787c0.14535,-0.28038 0.29365,-0.56521 0.46342,-0.86146c0.97422,-1.66721 2.87946,-3.84715 3.86174,-5.07474c0,0 1.28923,-1.15117 2.51557,-0.6503c1.2264,0.49988 1.65391,2.66047 1.40303,3.5905c-0.25169,0.93009 -1.35917,5.48766 -2.83423,6.99909z" data-paper-data="{&quot;index&quot;:null}" fill="#be1e2d" stroke="#231f20" stroke-width="0.78672" stroke-linecap="round" stroke-linejoin="round"/><path d="M252.91363,218.20271c1.58098,-0.36581 3.46597,0.19223 3.46597,0.19223c0,0 0.56085,5.18662 0.71651,7.06071c0.15651,1.87685 0.95861,4.84261 0.95861,4.84261c0,0 0.4701,0.31822 0.29134,1.07108c-0.18236,0.75085 -1.86057,0.80561 -3.97704,1.08774c-2.11262,0.27774 -3.8035,-0.15416 -4.09102,-0.92026c-0.29041,-0.76265 0.34728,-1.07532 0.34728,-1.07532c0,0 1.31474,-6.08433 0.54476,-8.24589c0.00424,0.00474 -0.27212,-3.54671 1.74359,-4.0129z" data-paper-data="{&quot;index&quot;:null}" fill="#be1e2d" stroke="#231f20" stroke-width="0.90024" stroke-linecap="round" stroke-linejoin="round"/><path d="M246.17528,218.40698v0v0v0v0v0c2.73305,1.44176 2.88852,4.03625 2.88927,4.03899c-0.67838,2.18579 0.81309,7.43393 0.81309,7.43393c0,0 0.65152,0.28141 0.39942,1.05634c-0.25589,0.77652 -1.92229,1.28462 -4.04977,1.09903c-2.12379,-0.18729 -3.80185,-0.16759 -4.01753,-0.91257c-0.21568,-0.74499 0.24129,-1.0821 0.24129,-1.0821c0,0 0.14699,-1.75636 0.21803,-3.63861c0.06884,-1.87697 0.04697,-7.0409 0.04697,-7.0409c0,0 1.66873,-1.89911 3.45924,-0.95411z" data-paper-data="{&quot;index&quot;:null}" fill="#be1e2d" stroke="#231f20" stroke-width="0.90024" stroke-linecap="round" stroke-linejoin="round"/><g data-paper-data="{&quot;index&quot;:null}" stroke-width="0.90024"><path d="M257.38982,211.83662v0v0v0v0v0c0.25922,2.82028 -0.69256,7.93472 -3.99813,9.56548c-3.26933,1.60933 -6.6187,1.1837 -9.97254,-1.38797c-2.77873,-2.13145 -2.39687,-7.76524 -1.9199,-10.90265v0c0,0 0.42446,-7.29579 6.61538,-7.85412c6.18901,-0.55833 8.72971,5.19879 9.01056,8.71805c0.11517,0.62313 0.20798,1.25765 0.26464,1.86121z" fill="#be1e2d" stroke="#000000" stroke-linecap="butt" stroke-linejoin="miter"/><path d="M255.25185,219.75878v0v0v0v0v0l-0.0232,0.14203c-0.50717,0.62467 -1.11659,1.14452 -1.83596,1.49953c-3.02831,1.49099 -6.12396,1.23638 -9.22949,-0.8536l-0.02527,-0.14562c0,0 -1.18601,-9.37426 4.75328,-9.4605c6.744,-0.09479 6.48897,7.26819 6.36065,8.81816z" fill="#e6e7e8" stroke="#231f20" stroke-linecap="round" stroke-linejoin="round"/></g><g data-paper-data="{&quot;index&quot;:null}" stroke="#000000" stroke-linecap="butt" stroke-linejoin="miter"><g><g stroke-width="0.4"><path d="M276.08468,234.41991l-0.04384,-0.00556c-1.44913,-0.13957 -3.3012,-0.8257 -3.97485,-1.45446l-0.10257,0.0956l-1.13897,-0.47477l0.31227,-0.24915c0.03465,-0.02906 3.49176,-2.82304 3.66823,-5.99681l0.01808,-0.32645l0.30467,0.11939c0.16202,0.06452 0.53244,0.23485 0.64257,0.48822l0.04444,0.01974c1.6936,0.75971 3.27891,0.75288 3.72483,0.73232l0.24121,-0.00359c0.11126,0.03183 0.4489,0.12701 0.47455,0.41645c0.02573,0.29135 -0.30925,0.47909 -0.49521,0.55203c-0.09051,0.00794 -0.18205,0.01406 -0.27558,0.01838c-1.33669,0.06163 -2.96784,-0.22667 -3.75747,-0.63994c-0.02764,0.16031 -0.0692,0.34683 -0.12968,0.55505c1.64471,0.70518 3.16177,0.69577 3.59631,0.67574l0.24416,-0.00177c0.11031,0.03182 0.44796,0.12705 0.4736,0.41644c0.02573,0.29136 -0.30829,0.47905 -0.49425,0.55199c-0.08955,0.00794 -0.18205,0.01406 -0.27558,0.01838c-1.44344,0.06656 -3.22944,-0.27421 -3.90955,-0.71431c-0.08215,0.1685 -0.17185,0.33736 -0.26922,0.50466c1.86024,0.94611 3.6043,0.91112 3.70717,0.92531c0.10786,0.03951 0.43806,0.15873 0.44206,0.45108c0.00404,0.2923 -0.34357,0.45226 -0.53494,0.51124c-1.51477,0.01779 -3.52674,-0.50192 -4.17202,-1.04871c-0.13376,0.17846 -0.28147,0.36324 -0.44136,0.54954c1.75436,0.96896 3.41106,1.03173 3.51039,1.0508c0.10625,0.04621 0.42885,0.18565 0.41768,0.4768c-0.01312,0.29029 -0.36818,0.43257 -0.56287,0.48035c-1.45887,-0.06337 -3.35093,-0.65111 -4.06257,-1.26201c-0.13585,0.13403 -0.27821,0.26937 -0.42896,0.4079c1.68258,1.03473 3.30362,1.18625 3.40225,1.21102c0.10272,0.05114 0.4166,0.20611 0.38926,0.49614c-0.02826,0.29098 -0.39084,0.41372 -0.50208,0.44441z" fill="#871212"/><path d="M275.04134,226.35036c-0.18394,3.3199 -3.7569,6.16753 -3.7569,6.16753l0.62935,0.26346l0.16886,-0.15734c0.00722,0.01292 0.00848,0.01949 0.01669,0.03427c0.3256,0.53215 2.36449,1.36871 3.96399,1.52595c0,0 0.69364,-0.19103 0.06971,-0.50023c0,0 -1.83895,-0.15567 -3.68707,-1.39197c0.30302,-0.2658 0.57514,-0.52353 0.82089,-0.7772c0.01134,0.01936 0.0158,0.03427 0.03102,0.05631c0.35317,0.51481 2.43424,1.23958 4.04016,1.30942c0,0 0.68144,-0.22926 0.04205,-0.50462c0,0 -1.86174,-0.05422 -3.78464,-1.20855c0.31068,-0.34566 0.57836,-0.6789 0.79846,-0.9967c0.01955,0.0341 0.03829,0.07018 0.07253,0.11499c0.3816,0.49452 2.49894,1.10311 4.10742,1.08482c0,0 0.66747,-0.26558 0.01465,-0.50336c0,0 -1.91643,0.05332 -3.93214,-1.04085c0,0 -0.01417,0.00066 -0.0341,-0.00033c0.22938,-0.36366 0.40114,-0.70292 0.5317,-1.01378c0.02024,0.02843 0.03572,0.05704 0.06668,0.09161c0.39498,0.43618 2.34489,0.86221 3.91018,0.79004c0.08972,-0.00413 0.17846,-0.01013 0.2661,-0.01794c0,0 0.64627,-0.31476 -0.0233,-0.50543c0,0 -0.05935,0.00655 -0.16891,0.0116c-0.51009,0.02351 -2.10721,0.0214 -3.83077,-0.75108c0,0 -0.00185,0.00009 -0.00566,0.00026c-0.01132,0.00052 -0.03863,0.00364 -0.07152,0.00897c0.16425,-0.4828 0.22574,-0.87376 0.24258,-1.14438c0.01008,0.0128 0.01324,0.01928 0.02431,0.03393c0.39498,0.43618 2.34489,0.86221 3.91018,0.79004c0.08972,-0.00413 0.17846,-0.01013 0.2661,-0.01794c0,0 0.64626,-0.31476 -0.02322,-0.50353c0,0 -0.05839,0.00651 -0.16605,0.01147c-0.50823,0.02344 -2.10725,0.02141 -3.83276,-0.75289c0,0 0,0 -0.00095,0.00004c-0.01037,0.00048 -0.10095,0.00652 -0.1819,0.03771c-0.00182,-0.01884 -0.0032,-0.02917 -0.0032,-0.02917c0.19509,-0.2438 -0.4905,-0.51511 -0.4905,-0.51511M274.60582,225.66995l0.60942,0.24174c0.21406,0.08477 0.55886,0.25346 0.72661,0.52501c1.63524,0.72545 3.15901,0.7177 3.58879,0.69788c0.08501,-0.00392 0.13399,-0.00995 0.13965,-0.01021l0.08955,-0.00794l0.08723,0.02344c0.50068,0.14164 0.62794,0.4169 0.64595,0.62246c0.03932,0.44218 -0.40634,0.69373 -0.54427,0.76068l-0.07869,0.03862l-0.0877,0.00786c-0.09337,0.00806 -0.18867,0.01437 -0.285,0.01881c-1.16856,0.05387 -2.67952,-0.15383 -3.59885,-0.52512c-0.00475,0.02009 -0.01032,0.04305 -0.01593,0.06509c1.52364,0.60474 2.89682,0.59629 3.30211,0.5776c0.08597,-0.00396 0.13593,-0.00812 0.14254,-0.00843l0.08946,-0.00985l0.08723,0.02344c0.49987,0.14358 0.62708,0.41885 0.64509,0.62441c0.03932,0.44218 -0.40634,0.69373 -0.54427,0.76068l-0.07869,0.03862l-0.0877,0.00786c-0.09332,0.00807 -0.18867,0.01437 -0.285,0.01881c-1.26776,0.05845 -2.93965,-0.19013 -3.82023,-0.62475c-0.01399,0.02435 -0.02694,0.05144 -0.04099,0.07574c1.71558,0.80508 3.26869,0.77699 3.28477,0.77625l0.08981,-0.00224l0.08472,0.03114c0.48817,0.1772 0.59411,0.46294 0.597,0.6692c0.00617,0.44181 -0.45709,0.66102 -0.59836,0.71774l-0.08163,0.03595l-0.08804,0.00025c-1.32936,0.0149 -3.24568,-0.40129 -4.12626,-0.95991c-0.03936,0.05006 -0.07962,0.10021 -0.12084,0.15131c1.6003,0.81039 3.0466,0.8668 3.06272,0.86797l0.08921,0.00437l0.08299,0.03498c0.47806,0.20517 0.5672,0.49546 0.55881,0.70318c-0.01933,0.44298 -0.49333,0.63427 -0.63875,0.6836l-0.08298,0.02747l-0.08723,-0.0026c-0.31591,-0.01475 -0.66329,-0.0546 -1.02205,-0.11568l0.04747,0.02337c0.46604,0.23219 0.54019,0.52602 0.52025,0.73052c-0.04207,0.44213 -0.52665,0.60836 -0.67441,0.6483l-0.0841,0.02375l-0.08658,-0.00926c-1.29898,-0.12661 -3.1151,-0.73106 -3.95105,-1.36941l-0.05353,0.05076l-0.28189,-0.11858l-0.62926,-0.26162l-0.73747,-0.30773l0.62454,-0.49835c0.03379,-0.02711 3.40954,-2.75865 3.57961,-5.82514l0.03621,-0.65206zM273.27002,232.17734c-0.01356,0.01387 -0.02718,0.0268 -0.04178,0.03887c1.42092,0.80065 2.7181,0.96996 2.91797,0.99293c-1.0934,-0.20517 -2.25399,-0.5947 -2.87619,-1.0318z" fill="#000000"/></g><path d="M252.20987,210.04988c0,0 5.7462,-0.6985 10.31301,3.3897c4.56689,4.09011 3.11153,8.45599 12.98144,12.93208c0,0 0.88252,2.8788 -3.75134,6.76078c0,0 -8.41203,-4.18828 -10.74375,-10.43191c-2.33164,-6.24179 -8.04881,-9.55276 -10.99893,-9.43757l-3.23627,-0.32033z" fill="#ba2915" stroke-width="0.4"/><g fill="#871212" stroke-width="0.4"><path d="M272.92476,225.12074c0,0 0.4049,3.87496 -4.02399,6.35023l-1.1282,-0.83688c0,0 4.0189,-4.3658 3.76954,-6.36596z"/><path d="M269.37462,222.59218c0,0 -0.13794,3.00346 -4.39261,5.68466l-1.36247,-1.31838c0,0 4.15229,-2.54107 4.58414,-5.63761z"/><path d="M266.8897,219.55438c0,0 -0.86555,3.07396 -5.38299,4.34722l-0.70817,-1.66473c0,0 4.71263,-1.72059 5.43825,-3.74296z"/><path d="M264.44138,215.58712c0,0 -0.69325,2.62203 -5.14654,3.7873l-1.05842,-1.35604c0,0 4.8398,-2.4535 5.31083,-3.55063z"/><path d="M259.77889,211.55916c0.33396,0.0982 1.62547,0.9872 1.62547,0.9872l-5.56652,3.05596l-1.64763,-1.32415c0,0 5.25473,-2.81722 5.58869,-2.71901z"/><path d="M256.27754,210.54106l-4.56799,2.90766l-2.23104,-0.24173l4.53814,-3.22622l2.2609,0.5603"/></g><path d="M271.78672,233.4121l-0.13846,-0.06747c-0.34692,-0.17338 -8.52152,-4.30347 -10.8596,-10.56197c-2.21388,-5.92535 -7.76444,-9.40114 -10.80156,-9.2838l-4.01326,-0.39716l6.2072,-3.28617c0,0 0.16852,-0.02103 0.47176,-0.03501c1.3688,-0.06312 6.13817,0.00097 10.02766,3.48332c1.6469,1.47279 2.54063,3.01344 3.40541,4.50242c1.57946,2.71889 3.2134,5.5318 9.51645,8.38979l0.0967,0.04378l0.0312,0.10178c0.03885,0.12412 0.87443,3.07324 -3.82499,7.01222l-0.11852,0.09824zM275.29799,226.53643c-6.35065,-2.90403 -8.01335,-5.76583 -9.62157,-8.5345c-0.88534,-1.52306 -1.72136,-2.96315 -3.31211,-4.38743c-3.75415,-3.36083 -8.36634,-3.42363 -9.6898,-3.36261c-0.22008,0.01109 -0.36425,0.02533 -0.37321,0.01625l-4.728,2.51652l2.42796,0.24208c3.08057,-0.12026 8.85143,3.22609 11.22949,9.59164c2.11021,5.64889 9.39688,9.65621 10.49023,10.23058c3.844,-3.27375 3.66438,-5.79307 3.57702,-6.31256z" fill="#000000" stroke-width="0.4"/><path d="M275.34504,226.55338c0.08736,0.51949 0.25357,3.05886 -3.59043,6.33261c-1.09335,-0.57437 -8.42373,-4.56973 -10.53394,-10.21862c-2.37806,-6.36555 -8.09872,-9.73103 -11.17929,-9.61077l-2.51036,-0.29862l4.73878,-2.52865c0.00896,0.00908 0.15395,-0.00582 0.37403,-0.01691c1.32346,-0.06102 5.97205,-0.00841 9.7262,3.35242c1.59076,1.42428 2.45937,2.88191 3.34471,4.40497c1.60821,2.76867 3.27964,5.67955 9.63029,8.58358z" data-paper-data="{&quot;noHover&quot;:true,&quot;origItem&quot;:[&quot;Path&quot;,{&quot;applyMatrix&quot;:true,&quot;segments&quot;:[[[431.94081,453.0728],[0,0],[-0.17472,1.03898]],[[439.09485,465.69792],[-7.688,-6.5475],[2.1867,-1.14874]],[[460.07531,445.23676],[-4.22042,11.29778],[4.75612,-12.7311]],[[482.53429,426.05348],[-6.16114,-0.24052],[0,0]],[487.39021,425.56932],[[477.93421,420.53628],[0,0],[-0.01792,0.01816]],[[477.18779,420.50378],[0.44016,0.02218],[-2.64692,-0.12204]],[[457.80819,427.229],[7.5083,-6.72166],[-3.1815,2.84856]],[[451.18397,436.00386],[1.77068,-3.04612],[-3.21644,5.53734]],[[431.94083,453.07286],[12.7013,-5.80806],[0,0]]],&quot;closed&quot;:true,&quot;fillColor&quot;:[0,0,0,1],&quot;strokeColor&quot;:[0,0,0],&quot;strokeWidth&quot;:0.4}]}" fill="#000000" stroke-width="0.2"/></g><g stroke-width="0.4"><path d="M238.67652,205.26938c0.00096,-0.00005 7.12995,-3.22932 16.96523,6.08011c0,0 -5.35796,2.73298 -10.73191,1.85616c-5.37486,-0.87683 -7.14924,-2.15723 -9.04628,-0.9442c0,0 -1.15521,-1.95743 2.26234,-3.53502c0,0 -1.29238,-2.36574 0.55063,-3.45705z" fill="#ba2915"/><g fill="#871212"><path d="M248.97082,206.56971c-2.30876,2.4258 -1.325,6.80227 -1.325,6.80227l-0.85019,0.0392c-1.30915,-5.15101 1.37623,-7.2524 1.37623,-7.2524z"/><path d="M245.11882,205.09068c0,0 -2.32087,2.0401 -1.61001,7.62293l-1.07914,-0.22476c0,0 -0.73081,-4.57846 1.43478,-7.66597z"/><path d="M252.13608,208.44962c-0.82937,0.61383 -1.13565,4.48368 -1.13565,4.48368l-0.60488,0.12353c-0.60234,-2.79708 1.06544,-5.12229 1.06544,-5.12229z"/><path d="M237.58311,211.67476c-0.00095,0.00004 -0.16135,-2.20588 1.23869,-3.27576c0.05682,-0.16357 0.01645,-2.72244 0.5953,-3.3701l1.33804,-0.25769c0,0 -1.30763,1.30705 -0.89432,3.45493c0,0 -1.56119,1.51659 -1.2849,3.40284l-0.99282,0.04578z"/></g><path d="M235.53851,210.81666c0.26387,-0.84711 1.02691,-1.5866 2.26904,-2.19957c-0.43607,-0.95686 -0.73849,-2.67056 0.77101,-3.5628c0.0436,-0.01907 1.05288,-0.46794 2.82977,-0.54987c3.19579,-0.14736 8.28556,0.89123 14.39598,6.67381l0.24346,0.23015l-0.29873,0.15199c-0.03609,0.01872 -3.65909,1.84335 -7.89018,2.03844c-1.04102,0.048 -2.04503,-0.0051 -2.98739,-0.15855c-1.81614,-0.29679 -3.22826,-0.63969 -4.36279,-0.91586c-2.20107,-0.53565 -3.39014,-0.78279 -4.51662,-0.06345l-0.20695,0.13164l-0.12425,-0.21105c-0.01643,-0.02767 -0.3961,-0.68604 -0.12235,-1.56488zM235.99223,210.94626c-0.13042,0.41497 -0.07752,0.76184 -0.01473,0.97387c1.18516,-0.63781 2.4596,-0.38702 4.64152,0.14383c1.12588,0.27371 2.5285,0.61519 4.32739,0.90806c0.909,0.14836 1.88267,0.20002 2.88967,0.15358c3.42438,-0.15789 6.44235,-1.4103 7.38995,-1.84117c-5.87587,-5.46015 -10.73811,-6.44958 -13.79693,-6.30854c-1.66257,0.07666 -2.62872,0.49608 -2.63248,0.49625c-1.33713,0.79151 -0.81956,2.34574 -0.56776,2.92106c0.56216,-0.20957 1.92098,-0.489 3.87273,0.59296c0,0 -2.02762,-0.90048 -4.05048,0.0476c-1.11357,0.54741 -1.83217,1.20342 -2.05887,1.9125z" fill="#000000"/></g><g stroke-width="0.4"><path d="M267.38118,206.72716c0.83242,1.38158 -0.62136,1.92198 -0.62136,1.92198c-18.11894,6.10169 -20.50031,0.64985 -23.01853,-1.83734c-2.51636,-2.48728 -5.06286,-1.54155 -5.06286,-1.54155c-1.60206,-3.94945 2.61531,-6.14607 2.61531,-6.14607l0.0558,1.2101c11.92262,8.36399 21.74876,-0.50962 21.74371,-0.61918c-0.00506,-0.10961 1.07874,0.29767 1.71809,1.33225c0.63939,1.03453 -0.50058,1.97509 -0.50058,1.97509c-0.1286,1.0709 2.23804,2.32309 3.07042,3.70472z" fill="#ba2915"/><g fill="#871212"><path d="M262.02236,200.59278c0,0 1.6371,0.5001 0.9312,3.15487c0,0 0.12747,1.49174 1.3655,2.67764c1.23797,1.18586 1.24953,2.07237 1.47816,2.53515l-1.86853,0.53774c0,0 -0.164,-1.6273 -0.97325,-2.50641c-0.8092,-0.87905 -1.01108,-2.19788 -1.11584,-2.7866c-0.10476,-0.58873 0.65646,-2.04384 -0.65806,-2.95923z"/><path d="M258.93092,202.44781c-0.02836,-0.24479 0.61786,0.99963 0.49834,2.67787c-0.11952,1.67824 0.923,2.48504 1.35859,3.57535c0.43554,1.09037 0.51139,1.56496 0.51139,1.56496l-1.36421,0.32703c0,0 -0.765,-2.3636 -1.37718,-3.32177c-0.61218,-0.95822 -0.34196,-1.93439 -0.38691,-2.90923c-0.04496,-0.97489 -0.36991,-1.3916 -0.36991,-1.3916z"/><path d="M255.28267,203.56176c0.00344,0.07465 0.75213,1.77536 0.43901,3.52503c-0.31317,1.74967 0.83939,3.87476 0.83939,3.87476l-1.3147,0.14772c0,0 -0.88868,-1.96596 -0.77343,-3.73678c0.11525,-1.77082 0.14564,-2.32225 -0.19855,-3.62884z"/><path d="M251.65806,203.8728c0,0 -0.77173,2.5206 0.06905,4.70078c0,0 -0.58845,1.34206 0.53798,2.67413l-0.70757,0.03262c0,0 -1.07521,-0.83748 -0.85685,-2.50702c0,0 -1.25178,-1.01297 -0.2763,-4.84269l1.23374,-0.05689z"/><path d="M247.74466,203.38206c0,0 -1.68904,2.33663 -0.70386,5.34795c0,0 -0.19545,0.46244 0.2555,1.25013l-1.05574,-0.64147c0,0 -0.2647,-0.52548 -0.21117,-0.72012c0.05348,-0.19465 -1.17526,-1.67251 0.35419,-5.62246z"/><path d="M243.52225,201.71279c0,0 -1.61762,1.27776 -1.07319,4.11255l-1.07015,-0.54235c0,0 -0.13703,-2.97185 1.25354,-4.04135z"/><path d="M241.1187,200.46039c0,0 -2.72956,0.99869 -2.33979,4.40194l0.00359,0.36526c0,0 -2.10439,-3.09988 2.51438,-6.0146z"/></g><path d="M238.45908,205.35892c-1.66401,-4.1018 2.68117,-6.42175 2.72455,-6.44554l0.32817,-0.17132l0.06747,1.46328c3.55688,2.46958 7.27041,3.63411 11.04146,3.46023c5.9088,-0.27245 9.82107,-3.66582 10.24338,-4.05353l0.00959,-0.14152l0.23616,-0.01088c0.2815,-0.01298 1.29842,0.48354 1.90205,1.46198c0.54832,0.88732 -0.00646,1.76963 -0.44907,2.1895l0.00852,0.02044c-0.00817,0.007 -0.01746,0.01124 -0.02567,0.01825c0.03942,0.48475 0.73862,1.11329 1.41897,1.72282c0.61326,0.55012 1.24721,1.1182 1.61823,1.73256c0.28911,0.47988 0.36373,0.92892 0.22251,1.33495c-0.2275,0.65044 -0.9336,0.91965 -0.9709,0.93272c-5.01702,1.68918 -9.24716,2.62358 -12.57425,2.77699c-6.18558,0.28521 -8.36238,-2.1259 -9.95066,-3.88635c-0.25332,-0.2799 -0.49283,-0.54622 -0.73478,-0.78403c-1.45703,-1.43992 -2.91601,-1.68979 -3.88239,-1.64523c-0.56865,0.02622 -0.92998,0.15649 -0.93369,0.15762l-0.2141,0.07895l-0.08552,-0.21188zM241.07561,199.52618c-0.91683,0.58567 -3.33124,2.46536 -2.25617,5.45552c0.715,-0.17876 2.95477,-0.44675 5.08729,1.66066c0.24792,0.24416 0.49334,0.51683 0.75273,0.80399c0.23943,0.26448 0.48869,0.53788 0.75693,0.81238c4.37699,1.22386 8.55453,-0.44083 8.55453,-0.44083c-2.91965,1.8443 -6.72636,1.26532 -7.96799,1.00734c1.52167,1.3631 3.76736,2.55837 8.23556,2.35234c3.28266,-0.15137 7.46967,-1.07715 12.43729,-2.74985c0.00558,-0.00216 0.53198,-0.20632 0.68397,-0.64688c0.09188,-0.2655 0.03104,-0.57888 -0.18117,-0.93166c-0.33413,-0.55355 -0.94145,-1.09827 -1.52898,-1.62407c-0.68432,-0.61406 -1.33142,-1.20047 -1.51861,-1.79017c-1.30375,0.79665 -2.89952,0.82384 -2.89952,0.82384c1.64907,-0.49354 2.47052,-1.01232 2.85102,-1.32144l0.00396,-0.03709l0.07298,-0.06019c0.04009,-0.03308 0.9721,-0.82389 0.45033,-1.6689c-0.49319,-0.7999 -1.25847,-1.17734 -1.44935,-1.23199c-0.86782,0.90903 -4.99924,3.94426 -10.51692,4.19868c-3.90991,0.18028 -7.75641,-1.0349 -11.43089,-3.61171l-0.09395,-0.06671l-0.04304,-0.93331z" fill="#000000"/></g></g><g data-paper-data="{&quot;index&quot;:null}" stroke="#000000" stroke-width="0.90024" stroke-linecap="round" stroke-linejoin="round"><path d="M293.96119,181.12388l-0.52164,1.55285c-2.90033,7.846 -7.07907,12.38256 -7.07907,12.38256c0,0 0.13954,-1.39752 0.03965,-3.64016l-0.13188,-0.04479c-0.36994,1.18426 -0.98099,2.71266 -2.00211,4.60292c-2.23922,4.1511 -8.88781,7.67132 -8.88781,7.67132c0,0 0.40312,-1.42405 0.64364,-3.75055l-0.09659,-0.3548c-0.71908,0.56338 -1.46554,1.08188 -2.22021,1.58695c-0.22205,0.14958 -0.44403,0.29545 -0.66974,0.43686c-0.68686,0.4353 -1.38648,0.85081 -2.10074,1.23944c-0.28223,0.15178 -0.57545,0.29296 -0.86144,0.43847c-0.52167,0.2664 -1.05077,0.51837 -1.58794,0.7624c-0.39462,0.17703 -0.79195,0.35328 -1.19668,0.5178c-0.41896,0.17283 -0.84976,0.32857 -1.27781,0.49068c-0.78709,0.28924 -1.58604,0.55978 -2.40327,0.80977c-0.26662,0.08145 -0.53335,0.1629 -0.80462,0.23898c-0.58283,0.16521 -1.17029,0.32677 -1.7686,0.47051l0.00182,0.00178c-3.00359,0.72662 -6.19272,1.2108 -9.60913,1.45018c-3.69616,0.25804 -7.04885,0.24937 -10.18157,0.05785v0c-2.47887,-0.15283 -4.80029,-0.43039 -6.9993,-0.81338c-0.10636,-0.018 -0.21372,-0.0369 -0.32097,-0.0549c-0.67986,-0.12308 -1.34899,-0.25425 -2.00551,-0.39632c-0.22914,-0.05127 -0.44842,-0.10703 -0.67657,-0.16001c-0.87231,-0.19966 -1.72039,-0.41943 -2.5569,-0.65369c-0.52877,-0.14855 -1.05407,-0.30083 -1.56765,-0.46301c-0.3051,-0.09373 -0.61114,-0.19206 -0.90999,-0.29125c-0.81614,-0.27404 -1.62511,-0.55253 -2.40998,-0.85383l-0.1349,0.13164c0.3131,2.11214 1.05186,3.24386 1.6389,3.78083c1.19668,1.09636 3.48451,1.34 3.48451,1.34c0,0 -6.97832,1.03651 -10.82801,-4.32556c-0.40901,-0.56998 -0.8218,-1.16072 -1.21422,-1.79034l-0.16964,-0.36048c-0.8287,-0.26933 -1.66896,-0.62957 -2.49941,-1.09529c-5.06377,-2.86076 -5.71682,-5.24994 -5.71682,-5.24994l0.11269,0.87678c0.50455,2.28343 0.99019,3.72329 0.99019,3.72329c0,0 -6.06353,-3.76607 -8.79801,-9.46334c-2.20471,-4.599 -2.40026,-7.39445 -2.41862,-7.86431l-0.21674,-1.67803c-0.18589,-6.57677 0.16065,-13.95835 1.00339,-21.2244l0.05417,-0.19396c0.75842,-5.61779 -0.10124,-14.90688 7.26339,-24.48114c13.80054,-17.93636 28.05785,-17.43701 36.47104,-30.67793c6.18839,-9.74096 4.48436,-20.8387 4.48436,-20.8387c0,0 3.89071,5.41123 5.45158,8.59499c1.51159,3.10308 3.13155,7.10558 3.13155,7.10558l0.05101,-0.03463c0.03411,-0.11739 0.0646,-0.23735 0.09059,-0.35728c0.40298,-1.86786 0.21407,-4.62297 0.21407,-4.62297c0,0 3.75615,10.71225 9.73345,17.70566c5.97368,6.98994 14.53902,8.92988 25.53468,32.94753c1.36838,2.98458 2.63817,5.49558 3.32969,8.28515l0.31604,1.6061c0.9831,5.0189 0.73007,18.90952 -1.19632,24.92616zM224.62429,158.09539c0,0 -6.92989,7.32082 -6.38391,17.42188c0.48308,8.93745 2.82356,11.67974 4.07794,12.3606c1.28971,0.69586 3.27651,0.26052 3.27651,0.26052c0,0 -5.60479,3.02891 -10.2282,-0.978c-3.09247,-2.67835 -6.46253,-6.13859 -7.48076,-15.96997M282.93614,173.70836c0,0 0.88961,2.4791 -1.18395,7.69384c-2.33261,5.87505 -7.34327,7.72862 -7.34327,7.72862c0,0 4.10009,-9.05535 0.52418,-17.50674c-1.56065,-3.69239 -6.30463,-6.41263 -11.24877,-8.32006c-6.70002,-2.58687 -13.76658,-3.67969 -13.76658,-3.67969M286.29801,191.27597c-0.36622,1.19863 -0.98586,2.764 -2.03725,4.70492c-2.23832,4.1511 -8.88691,7.67131 -8.88691,7.67131c0,0 1.17145,-4.15471 0.71201,-9.85775M209.37109,178.42866c-0.67526,1.27873 -1.19124,2.64783 -1.47439,4.09156c-1.77876,9.0016 1.56789,18.87197 1.56789,18.87197c0,0 -6.06172,-3.76438 -8.79801,-9.46344c-2.42558,-5.05805 -2.41921,-7.93451 -2.41921,-7.93451M293.43509,182.68306c-2.90213,7.84602 -7.07997,12.38256 -7.07997,12.38256c0,0 0.80376,-7.93995 -2.77945,-16.39217c-0.16162,-0.38215 -0.34396,-0.75333 -0.5369,-1.11362M249.91867,159.62432c0,0 1.19823,0.30682 4.37366,2.79097c3.17553,2.48415 4.35896,5.21368 4.35896,5.21368c0,0 -9.33423,-2.37458 -14.50626,-4.18558c-5.16665,-1.81285 -22.5887,-6.39979 -22.5887,-6.39979M220.74051,197.21708c2.55841,3.94509 5.20349,6.08079 5.20349,6.08079c0,0 -6.16207,1.96496 -11.86548,-1.25412c-5.06377,-2.86066 -5.71682,-5.24994 -5.71682,-5.24994M275.9191,199.54867c-6.61572,5.1792 -14.67219,7.75794 -24.49204,8.44556c-11.70741,0.81972 -20.28372,-0.81941 -27.62574,-3.62858M223.58893,203.84343c0.24286,2.53494 1.0695,3.84333 1.71459,4.43202c1.19758,1.09635 3.48541,1.33999 3.48541,1.33999c0,0 -6.98012,1.03652 -10.82891,-4.32556c-0.40901,-0.56998 -0.8218,-1.16072 -1.21422,-1.79034M250.59727,159.91932c0,0 25.54,2.89722 25.65728,16.82252" fill="#be1e2d"/><path d="M281.30599,182.72131c-0.86722,10.02286 -12.29202,20.56855 -29.13202,21.69531c-14.86688,1.00294 -36.90453,-5.5005 -40.19775,-17.7903c-0.32731,-1.23519 -0.50568,-2.42923 -0.56125,-3.5775l0.32518,0.23317c1.14278,1.64323 2.40497,2.82455 3.62651,3.8802c4.62339,4.00511 10.22818,0.9762 10.22818,0.9762c0,0 -1.98679,0.43715 -3.27649,-0.25872c-1.25438,-0.68086 -3.59486,-3.42315 -4.07794,-12.3606c-0.546,-10.10286 6.38391,-17.42188 6.38391,-17.42188l0.02234,-0.2325c5.24422,1.40529 15.69239,4.2432 19.49657,5.57871c5.17204,1.81191 14.50626,4.18558 14.50626,4.18558c0,0 -1.18343,-2.72953 -4.35896,-5.21368c-1.58952,-1.24246 -2.68203,-1.93998 -3.37672,-2.32755l0.64903,0.09624c0,0 19.69589,2.74203 23.37207,11.44008c3.57501,8.45229 -0.52328,17.50673 -0.52328,17.50673c0,0 4.26665,-1.57989 6.75374,-6.43621z" fill="#e6e7e8"/></g><path d="M235.3996,179.51679v0v0v0v0v0c0.67322,0.31916 0.95824,1.12255 0.6372,1.79545c-0.31947,0.67499 -1.1193,0.96062 -1.79845,0.6441c-0.03867,-0.01942 -3.9746,-1.85031 -8.21271,-1.36646c-0.13028,0.01417 -0.25687,0.01162 -0.38016,-0.00954c-0.57667,-0.09897 -1.04392,-0.57008 -1.11377,-1.17937c-0.04217,-0.35617 0.06735,-0.69634 0.27027,-0.96296c-0.21189,-0.2611 -0.39944,-0.58367 -0.49604,-1.00041c-0.11426,-0.48359 0.18639,-0.96903 0.67162,-1.08219c0.47996,-0.10849 0.9687,0.18359 1.08332,0.671c0.09044,0.38819 0.51448,0.5678 0.51949,0.57049c0.12547,0.05167 0.22955,0.13162 0.31461,0.22658c0.1361,-0.00496 0.27314,-0.01066 0.40645,-0.0106c-0.10128,-0.22924 -0.18853,-0.48173 -0.2162,-0.77879c-0.0445,-0.49627 0.32067,-0.93148 0.8171,-0.97688c0.50074,-0.04922 0.93295,0.32274 0.97688,0.8171c0.03537,0.39518 0.41856,0.63718 0.4218,0.63956c0.1813,0.09879 0.3004,0.2562 0.37718,0.43192c3.20356,0.39727 5.58624,1.50675 5.72141,1.57104z" data-paper-data="{&quot;index&quot;:null}" fill="#231f20" stroke="none" stroke-width="0.90024" stroke-linecap="butt" stroke-linejoin="miter"/><path d="M267.40283,176.38167v0v0v0v0v0c-0.03764,0.81763 -0.44273,1.36356 -0.78891,1.70771c0.13633,0.23538 0.22842,0.50288 0.20109,0.79456c-0.06989,0.74146 -0.71142,1.2893 -1.47008,1.22006c-2.87584,-0.26776 -6.50362,0.02248 -7.11534,0.86616c-0.22113,0.30346 -0.54297,0.48835 -0.88929,0.5403c-0.34098,0.05114 -0.69779,-0.02739 -0.99725,-0.24549c-0.60269,-0.43764 -0.73653,-1.28142 -0.2975,-1.88624c1.1825,-1.62651 4.13215,-2.03163 6.53435,-2.07525c0.1,-0.11602 0.25215,-0.34543 0.22801,-0.62767c-0.04829,-0.49248 0.27398,-0.95966 0.80749,-0.98316c0.49425,-0.04865 0.93334,0.3115 0.98314,0.8074c0.02867,0.3125 -0.00861,0.58575 -0.06806,0.83857c0.1202,0.00654 0.23466,0.01121 0.34251,0.01971c0.07119,-0.1564 0.16807,-0.29925 0.32455,-0.39734c0.02279,-0.01798 0.38778,-0.27305 0.40718,-0.66556c0.02566,-0.49629 0.43781,-0.88676 0.94216,-0.85592c0.49629,0.02566 0.87865,0.44448 0.85592,0.94216z" data-paper-data="{&quot;index&quot;:null}" fill="#231f20" stroke="none" stroke-width="0.90024" stroke-linecap="butt" stroke-linejoin="miter"/><g data-paper-data="{&quot;index&quot;:null}" stroke-linejoin="miter"><path d="M204.05565,168.25126c-0.04269,12.97862 -1.73854,23.4944 -7.07726,23.47684c-5.33873,-0.01756 -13.29865,-10.56511 -13.25596,-23.54373c0.04269,-12.97862 8.07184,-23.47358 13.41057,-23.45601c5.33873,0.01756 6.96535,10.54427 6.92266,23.52289z" fill="url(#color-1)" stroke="#000000" stroke-width="0.90024" stroke-linecap="butt"/><path d="M192.22271,150.4188l-2.10945,2.84082" fill="none" stroke="#ea42a4" stroke-width="2" stroke-linecap="round"/><path d="M196.85312,157.96859l3.38066,-0.3621" fill="none" stroke="#ea42a4" stroke-width="2" stroke-linecap="round"/><path d="M192.43538,163.67152l-0.40488,1.85367" fill="none" stroke="#ea42a4" stroke-width="2" stroke-linecap="round"/><path d="M190.47487,173.53643l1.64764,2.23724" fill="none" stroke="#ea42a4" stroke-width="2" stroke-linecap="round"/><path d="M200.23309,180.13468l1.5909,-0.1704" fill="none" stroke="#ea42a4" stroke-width="2" stroke-linecap="round"/><path d="M194.67891,188.37308l-1.83237,-0.20603" fill="none" stroke="#ea42a4" stroke-width="2" stroke-linecap="round"/><path d="M188.96899,180.13434l-1.27122,-2.47871" fill="none" stroke="#ea42a4" stroke-width="2" stroke-linecap="round"/><path d="M187.25064,167.84747l-1.40618,-1.86082" fill="none" stroke="#ea42a4" stroke-width="2" stroke-linecap="round"/><path d="M187.44984,156.56206l0.1704,1.5909" fill="none" stroke="#ea42a4" stroke-width="2" stroke-linecap="round"/><path d="M200.07071,148.57246l-2.48587,3.08228" fill="none" stroke="#ea42a4" stroke-width="2" stroke-linecap="round"/></g><g data-paper-data="{&quot;index&quot;:null}" stroke-linejoin="miter"><path d="M296.25773,142.24808c5.33524,0.19368 12.94288,10.99805 12.47208,23.96821c-0.47081,12.97015 -8.84179,23.19452 -14.17704,23.00086c-5.33524,-0.19368 -6.61373,-10.76831 -6.14291,-23.73846c0.47081,-12.97015 2.51263,-23.42427 7.84787,-23.2306z" fill="url(#color-2)" stroke="#000000" stroke-width="0.90025" stroke-linecap="butt"/><path d="M302.93445,151.05038l-1.9954,-2.92205" fill="none" stroke="#ea42a4" stroke-width="2" stroke-linecap="round"/><path d="M296.01358,155.48902l-3.36369,-0.49557" fill="none" stroke="#ea42a4" stroke-width="2" stroke-linecap="round"/><path d="M300.20223,161.36226l0.33123,1.86822" fill="none" stroke="#ea42a4" stroke-width="2" stroke-linecap="round"/><path d="M300.03607,173.46733l1.73487,-2.17031" fill="none" stroke="#ea42a4" stroke-width="2" stroke-linecap="round"/><path d="M291.75929,177.50403l-1.58291,-0.23322" fill="none" stroke="#ea42a4" stroke-width="2" stroke-linecap="round"/><path d="M298.82226,185.82236l-1.83908,0.13336" fill="none" stroke="#ea42a4" stroke-width="2" stroke-linecap="round"/><path d="M303.01459,177.94933l1.36828,-2.42648" fill="none" stroke="#ea42a4" stroke-width="2" stroke-linecap="round"/><path d="M305.21771,165.74006l1.47869,-1.80374" fill="none" stroke="#ea42a4" stroke-width="2" stroke-linecap="round"/><path d="M305.46515,154.45561l-0.23322,1.58292" fill="none" stroke="#ea42a4" stroke-width="2" stroke-linecap="round"/><path d="M293.17023,145.97294l2.36198,3.17822" fill="none" stroke="#ea42a4" stroke-width="2" stroke-linecap="round"/></g><path d="M249.12752,189.67395c-4.28378,0.00599 -5.20833,-3.12081 -5.20833,-3.12081c0,0 0.78516,-0.47137 3.94154,-0.48726c3.15567,-0.01443 5.54598,0.25364 5.54598,0.25364c0,0 0.00099,3.34906 -4.27919,3.35444z" data-paper-data="{&quot;index&quot;:null}" fill="#58595b" stroke="#231f20" stroke-width="0.9025" stroke-linecap="round" stroke-linejoin="miter"/><g stroke-linejoin="miter"><g stroke-linecap="butt"><g stroke="#000000" stroke-width="1"><path d="M251.56209,213.14454h55.67854v24.113h-55.67854z" fill="url(#color-3)"/><path d="M256.5013,208.72383h55.67854l-4.93922,4.42072h-55.67855z" fill="#9966ff"/><path d="M307.4912,213.1176l4.71472,-4.21977l-0.67354,24.51489l-4.49021,3.91836z" fill="url(#color-4)"/></g><path d="M304.73979,213.99646c0.44092,0 0.79835,0.15996 0.79835,0.35728c0,0.19732 -0.35743,0.35727 -0.79835,0.35727c-0.44092,0 -0.79836,-0.15995 -0.79836,-0.35727c0,-0.19732 0.35744,-0.35728 0.79836,-0.35728z" fill="#b9b9b9" stroke="none" stroke-width="0.5"/><path d="M304.38497,235.9091c0.44092,0 0.79835,0.15995 0.79835,0.35727c0,0.19732 -0.35743,0.35727 -0.79835,0.35727c-0.44092,0 -0.79836,-0.15995 -0.79836,-0.35727c0,-0.19732 0.35744,-0.35727 0.79836,-0.35727z" fill="#b9b9b9" stroke="none" stroke-width="0.5"/><path d="M253.46788,236.22667c0.44091,0 0.79835,0.15996 0.79835,0.35727c0,0.19732 -0.35744,0.35727 -0.79835,0.35727c-0.44091,0 -0.79835,-0.15995 -0.79835,-0.35727c0,-0.19732 0.35744,-0.35727 0.79835,-0.35727z" fill="#b9b9b9" stroke="none" stroke-width="0.5"/><path d="M252.93564,213.83767c0.44091,0 0.79835,0.15995 0.79835,0.35727c0,0.19732 -0.35744,0.35727 -0.79835,0.35727c-0.44091,0 -0.79835,-0.15995 -0.79835,-0.35727c0,-0.19732 0.35744,-0.35727 0.79835,-0.35727z" fill="#b9b9b9" stroke="none" stroke-width="0.5"/></g><g stroke="#000000" stroke-width="1" stroke-linecap="butt"><path d="M256.16442,225.14221c0,-5.20726 4.22132,-9.42857 9.42857,-9.42857c5.20725,0 9.42857,4.22132 9.42857,9.42857c0,5.20726 -4.22132,9.42857 -9.42857,9.42857c-5.20725,0 -9.42857,-4.22132 -9.42857,-9.42857z" fill="#8499b1"/><path d="M259.39707,225.54629c0,-3.04996 2.47248,-5.52245 5.52245,-5.52245c3.04996,0 5.52245,2.47249 5.52245,5.52245c0,3.04996 -2.47249,5.52244 -5.52245,5.52244c-3.04996,0 -5.52245,-2.47248 -5.52245,-5.52244z" fill="#92c5ff"/></g><g stroke="#000000" stroke-width="1" stroke-linecap="butt"><path d="M280.16442,225.17792c0,-5.20726 4.22132,-9.42857 9.42857,-9.42857c5.20725,0 9.42857,4.22132 9.42857,9.42857c0,5.20726 -4.22132,9.42857 -9.42857,9.42857c-5.20725,0 -9.42857,-4.22132 -9.42857,-9.42857z" fill="#8499b1"/><path d="M283.39707,225.58201c0,-3.04996 2.47249,-5.52245 5.52245,-5.52245c3.04996,0 5.52245,2.47249 5.52245,5.52245c0,3.04996 -2.47249,5.52245 -5.52245,5.52245c-3.04996,0 -5.52245,-2.47248 -5.52245,-5.52245z" fill="#92c5ff"/></g><path d="M299.73584,210.8184l4,-18.57143" fill="none" stroke="#000000" stroke-width="2" stroke-linecap="round"/></g><g data-paper-data="{&quot;index&quot;:null}" stroke="#001026" stroke-width="0.9" stroke-linejoin="miter"><g><path d="M240.90739,221.43793c0,0 -1.43134,1.55489 -2.24008,1.81875c-0.76247,0.24877 -2.4817,-0.27822 -2.4817,-0.27822l-7.59631,-12.46956l8.24993,-3.66887l4.06815,14.59791z" fill="#505a63" stroke-linecap="butt"/><path d="M236.92546,205.77621c1.12782,2.53606 -0.01377,5.50624 -2.54983,6.63406c-2.53606,1.12783 -5.50624,-0.01378 -6.63406,-2.54984c-1.12782,-2.53605 0.01378,-5.50623 2.54984,-6.63405c2.53606,-1.12782 5.50623,0.01378 6.63405,2.54984z" fill="url(#color-5)" stroke-linecap="butt"/><path d="M232.63989,203.00094c0,0 1.57187,2.16889 2.11744,3.43419c0.58374,1.35384 1.27822,4.44118 1.27822,4.44118" fill="none" stroke-linecap="round"/><path d="M229.06833,204.80257c0,0 1.02302,1.51903 1.38229,2.58663c0.48623,1.44493 1.27128,5.2988 1.27128,5.2988" fill="none" stroke-linecap="round"/><path d="M227.48591,207.95932c0,0 3.01655,-1.65093 4.49058,-1.94608c1.69431,-0.33927 5.10679,0.02434 5.10679,0.02434" fill="none" stroke-linecap="round"/><path d="M228.06041,210.69011c0,0 2.45277,-0.76427 3.75284,-0.89039c1.67242,-0.16222 5.44898,-0.00222 5.44898,-0.00222" fill="none" stroke-linecap="round"/></g><path d="M232.36758,219.39968c-0.74707,-1.69359 0.07777,-3.50558 1.84236,-4.0472c1.76458,-0.54162 4.1479,0.81284 4.89498,2.50642c0.74708,1.69359 -0.425,3.08497 -2.18958,3.62659c-1.76459,0.54162 -3.80068,-0.39223 -4.54776,-2.08581z" fill="#be1e2d" stroke-linecap="butt"/></g></g></g></svg>