<svg version="1.1" xmlns="http://www.w3.org/2000/svg" xmlns:xlink="http://www.w3.org/1999/xlink" width="80.42104" height="140.97603" viewBox="0,0,80.42104,140.97603"><defs><radialGradient cx="265.94045" cy="175.99021" r="7.3567" gradientUnits="userSpaceOnUse" id="color-1"><stop offset="0" stop-color="#54606d"/><stop offset="1" stop-color="#2c3136"/></radialGradient></defs><g transform="translate(-190.60319,-99.2588)"><g data-paper-data="{&quot;isPaintingLayer&quot;:true}" fill-rule="nonzero" stroke-linejoin="miter" stroke-miterlimit="10" stroke-dasharray="" stroke-dashoffset="0" style="mix-blend-mode: normal"><g stroke="none" stroke-width="0.5" stroke-linecap="butt"><path d="M259.27782,167.46854c4.70552,-5.4242 4.38759,-13.61478 -3.75843,-14.83802c-3.03423,0.0579 -3.42066,3.47522 -3.0753,6.08352c0.11414,0.86197 1.10771,0.49239 1.8036,0.87252c2.04753,1.11847 2.02025,3.42424 0.99798,5.16855c0.85216,1.25153 1.48625,2.78242 1.76522,4.28442c0.67747,-0.79796 1.28633,-1.18877 2.26692,-1.57099zM250.98366,159.05626c-1.12226,-3.55488 0.86869,-7.8531 4.63141,-7.92267c9.54177,1.38417 10.34431,11.28753 4.52844,17.55994c-0.87079,0.37961 -1.4102,0.58581 -1.99887,1.32812l-0.97002,0.44191c0,0 -0.00325,0.00108 -0.00938,0.00284c0.02211,0.86887 -0.09876,1.69198 -0.39199,2.40322c-1.04624,2.53777 -6.1484,2.53614 -8.79291,1.65488c-2.06302,-0.15359 -4.10356,-2.15966 -3.25687,-4.49154c0.57798,-1.59184 2.64838,-1.86089 3.88566,-2.78887c1.92153,-1.44118 2.33537,-2.9471 3.03743,-5.23013c0.93967,0.16071 1.84059,0.72863 2.63222,1.5451c1.32886,-2.44014 -2.67757,-2.54669 -3.2951,-4.50277zM250.64788,173.29904c0.21925,-0.01934 0.44773,-0.04161 0.69013,-0.06078c0.90681,-0.07171 2.35144,0.34048 3.21863,0.10176c0.95222,-0.26212 0.89501,-1.81128 0.88158,-2.49832c-0.04143,-2.11831 -0.76199,-3.73754 -1.69665,-5.38317c-0.16874,-0.14684 -0.24013,-0.30258 -0.25844,-0.44744c-0.32941,-0.56218 -0.67868,-1.13289 -1.02957,-1.73275c0.50888,2.43063 -1.8935,4.6661 -3.85968,5.70529c-0.57461,0.3037 -2.26769,0.88375 -2.45461,1.54477c-0.25602,0.90539 0.34203,1.83052 1.11917,2.30115c0.17456,-0.04271 0.3239,-0.02069 0.3239,-0.02069l0.37431,0.0941c0.18176,0.09466 0.35649,0.17068 0.52658,0.23119c0.39811,-0.05456 0.75494,-0.28692 0.98289,-0.7586c0,0 0.37715,-0.64827 1.02542,-0.27112c0.64827,0.37715 0.27112,1.02542 0.27112,1.02542c-0.03719,0.05838 -0.07546,0.11476 -0.11476,0.16919z" fill="#000000"/><path d="M250.76715,173.08006c0,0 0.36347,-0.54933 -0.2848,-0.92648c-0.64827,-0.37715 -1.03587,0.26796 -1.03587,0.26796c-0.22794,0.4717 -0.5897,0.70161 -0.98781,0.75618c-0.17009,-0.0605 -0.34912,-0.13926 -0.53089,-0.23391l-0.37681,-0.09598c0,0 -0.15087,-0.02331 -0.32543,0.0194c-0.77713,-0.47063 -1.38811,-1.41339 -1.1321,-2.31878c0.18691,-0.66101 1.87737,-1.24866 2.45198,-1.55236c1.96617,-1.0392 4.42907,-3.33563 3.92019,-5.76627c0.35089,0.59985 0.71651,1.17795 1.04592,1.74013c0.01832,0.14485 0.09452,0.30438 0.26326,0.45122c0.93466,1.64563 1.66492,3.3278 1.70634,5.44611c0.01343,0.68705 0.05547,2.25216 -0.89675,2.51428c-0.86718,0.23871 -2.33818,-0.16507 -3.24498,-0.09336c-0.24238,0.01917 -0.47777,0.04116 -0.69703,0.0605c0.0393,-0.05442 0.08758,-0.2103 0.12477,-0.26868z" data-paper-data="{&quot;noHover&quot;:false,&quot;origItem&quot;:[&quot;Path&quot;,{&quot;applyMatrix&quot;:true,&quot;selected&quot;:true,&quot;segments&quot;:[[[235.10618,192.13453],[0.05114,0.04349],[0.0019,0.2201],7],[[235.11209,192.82729],[0.0001,-0.24314],[-0.00037,0.90964],7],[[234.75562,196.02773],[-0.16925,-0.88337],[0.18585,0.96999],7],[[237.17624,197.10449],[-0.68595,-0.04105],[2.11494,0.12655],7],[[242.67691,195.83971],[-1.71451,0.80133],[0.15975,-0.15657],7],[[243.14342,195.61752],[-0.14585,0.00678],[0.58651,-0.28383],7],[[244.95229,194.72849],[-0.62576,0.30226],[-2.46331,0.31469],7],[[239.57075,190.42889],[0.88014,2.04233],[-0.25722,-0.59687],7],[[238.22533,187.85961],[0.64412,0.2387],[-0.88226,-0.32695],7],[[235.84273,188.79292],[0.53073,-0.7374],[0.02875,0.1774],7],[[235.8377,189.11744],[0,0],[0,0],7],[[235.71424,189.48313],[0,0],[-0.10876,0.17369],7],[[235.44206,189.98973],[0.07379,-0.16477],[0.02285,0.40118],7],[[236.1204,191.02963],[-0.45215,-0.2646],[0,0],7],[[236.30942,192.07331],[0.42733,-0.61635],[-0.42733,0.61635],7],[[235.26574,192.26234],[0,0],[-0.05525,-0.0417],7]],&quot;closed&quot;:true}]}" fill="#0032ff"/><path d="M257.01106,169.08953c-0.27897,-1.50201 -0.93397,-3.03739 -1.78613,-4.28893c1.02228,-1.74431 1.02549,-4.11775 -1.02204,-5.23621c-0.69589,-0.38014 -1.68955,-0.01039 -1.80368,-0.87236c-0.34536,-2.60829 0.07727,-6.05284 3.1115,-6.11074c8.14601,1.22322 8.4892,9.51023 3.78367,14.93443c-0.98059,0.38223 -1.60587,0.77586 -2.28332,1.57381z" data-paper-data="{&quot;noHover&quot;:false,&quot;origItem&quot;:[&quot;Path&quot;,{&quot;applyMatrix&quot;:true,&quot;selected&quot;:true,&quot;segments&quot;:[[[240.23457,201.19932],[-0.30333,-1.00779],[5.0343,5.12051],7],[[255.32372,198.62839],[-1.86482,8.02348],[0.1827,-3.02928],7],[[249.503,195.08075],[2.62746,-0.13761],[-0.86831,0.04548],7],[[248.49032,196.80954],[0.43408,-0.66358],[-1.27719,1.95247],7],[[243.25895,197.39485],[1.65782,1.15727],[-1.31512,0.75032],7],[[238.84813,198.81506],[1.51939,-0.15908],[0.74177,0.73856],7]],&quot;closed&quot;:true}]}" fill="#fff1e2"/></g><g stroke="#001026" stroke-width="1.2"><path d="M251.72652,199.69088l4.6696,-21.68653l12.37566,4.64059l-10.01101,18.88463c0,0 -2.4662,0.92023 -3.60209,0.62331c-1.20481,-0.31493 -3.43217,-2.462 -3.43217,-2.462z" fill="#505a63" stroke-linecap="butt"/><path d="M256.17719,176.4574c1.42653,-3.80433 5.66699,-5.73191 9.47131,-4.30538c3.80433,1.42653 5.73191,5.667 4.30538,9.47131c-1.42653,3.80433 -5.667,5.73192 -9.47132,4.30538c-3.80433,-1.42653 -5.7319,-5.667 -4.30537,-9.47133z" fill="url(#color-1)" stroke-linecap="butt"/><path d="M257.92304,183.83218c0,0 0.74516,-4.57204 1.4799,-6.60132c0.6867,-1.89657 2.79416,-5.20315 2.79416,-5.20315" fill="none" stroke-linecap="round"/><path d="M264.3846,186.10275c0,0 0.81054,-5.70004 1.39485,-7.85391c0.43174,-1.59141 1.79395,-3.90044 1.79395,-3.90044" fill="none" stroke-linecap="round"/><path d="M255.96942,176.8531c0,0 4.95472,-0.82937 7.46017,-0.4816c2.17971,0.30255 6.73184,2.4515 6.73184,2.4515" fill="none" stroke-linecap="round"/><path d="M256.03632,182.36291c0,0 5.50452,-0.56365 7.96252,-0.47267c1.91074,0.07073 5.56161,0.9733 5.56161,0.9733" fill="none" stroke-linecap="round"/></g><g stroke="none" stroke-width="0.5" stroke-linecap="butt"><path d="M259.32268,151.75861c0.46185,-0.25626 0.77892,-0.0068 0.92607,0.16317c0.43486,-0.23276 0.82543,-0.65108 1.11241,-1.27356c0.54966,-1.19225 -0.75303,-2.27529 -1.5596,-2.88601c0.10852,1.59418 -0.68463,3.21565 -1.92539,3.77606c0.33925,0.29901 0.71959,0.49239 1.10698,0.56942c0.05462,-0.12533 0.15802,-0.24838 0.33951,-0.34908zM257.55319,157.29955l-0.01566,0.02036c0,0 -0.24495,0.13592 -0.51851,0.09192c-2.39897,1.17328 -4.83759,-1.14358 -4.40908,-4.00893c-3.2796,-1.09581 -5.34945,-7.59065 -1.02673,-8.74028c0.83577,-0.22228 1.57165,-0.03007 2.17684,0.40763c1.0235,-1.45099 3.42354,-1.43256 5.08659,0.39074c0.04602,0.05046 0.09026,0.10185 0.13276,0.15409c0.53746,0.16492 1.0523,0.46771 1.50443,0.78405c1.43279,1.00246 3.08611,2.81599 2.26574,4.81682c-0.43118,1.05164 -1.12193,1.73742 -1.91579,2.09256c0.45785,2.02666 -1.08751,3.20517 -3.28058,3.99106zM257.36234,146.33106c-0.01337,-0.10554 -0.00988,-0.19802 0.00596,-0.279c-0.8847,-0.78566 -2.22255,-0.8004 -2.53498,0.24917c0.58163,1.00293 0.85005,2.26581 0.71445,3.29105c0.40879,0.00272 0.63026,0.40187 0.63026,0.40187l-0.11079,-0.08911c1.74742,1.71767 2.38703,-1.70265 1.95694,-2.88764c-0.00475,-0.0131 -0.00961,-0.02612 -0.01457,-0.03908c-0.22723,-0.02588 -0.5839,-0.14735 -0.64725,-0.64726zM258.11248,153.35204c0.0032,0.15872 -0.00144,0.32226 -0.01449,0.49041l-1.04065,0.87993c0,0 -0.59775,0.45298 -1.05073,-0.14479c-0.45298,-0.59775 0.14479,-1.05073 0.14479,-1.05073l0.61478,-0.37454c-0.03722,-0.32124 -0.10275,-0.58981 -0.18965,-0.80868c-0.12417,-0.12606 -0.24267,-0.26114 -0.35454,-0.405l-0.0116,-0.15068c-0.59163,-0.5173 -1.47975,-0.01764 -1.94907,1.19167c-0.015,0.08621 -0.0424,0.15962 -0.07798,0.22216c-0.68559,2.20677 1.33795,4.35384 3.09408,2.10447c0,0 0.47377,-0.58142 1.05518,-0.10766c0.0445,0.03626 0.08281,0.07314 0.11563,0.11034c0.71299,-0.38741 1.13417,-0.88638 0.93314,-1.70928c-0.42622,-0.00791 -0.85552,-0.09187 -1.26888,-0.24765zM253.34573,147.59927c-0.06353,-0.34833 -0.08693,-0.67293 -0.07524,-0.973c-0.36518,-0.43802 -0.82579,-0.68068 -1.33604,-0.50536c-2.51622,0.86455 -0.91587,5.47081 1.09145,5.91498c0.14941,-0.32447 0.31966,-0.60411 0.50515,-0.84122c-0.08422,-0.0605 -0.1644,-0.14857 -0.23393,-0.27386c-0.36389,-0.65581 0.29193,-1.01969 0.29193,-1.01969l0.35657,-0.07561c0.21393,-0.3435 0.21881,-0.9677 0.06863,-1.61021c-0.55727,-0.0209 -0.66852,-0.61601 -0.66852,-0.61601z" fill="#000000"/><path d="M258.97169,152.15636c-0.3874,-0.07704 -0.79386,-0.2861 -1.13312,-0.58512c1.24076,-0.56042 2.07892,-2.26429 1.9704,-3.85847c0.80657,0.61072 2.15034,1.75538 1.60067,2.94763c-0.28698,0.62249 -0.70514,1.07406 -1.14001,1.30681c-0.14714,-0.16997 -0.48883,-0.41499 -0.95067,-0.15873c-0.18148,0.1007 -0.29266,0.22256 -0.34728,0.34789z" data-paper-data="{&quot;noHover&quot;:false,&quot;origItem&quot;:[&quot;Path&quot;,{&quot;applyMatrix&quot;:true,&quot;selected&quot;:true,&quot;segments&quot;:[[[254.46427,197.47825],[0,-0.20755],[0,0.52818],7],[[253.87228,198.20884],[0.22002,-0.0462],[-0.00746,0.49318],7],[[254.44617,199.79946],[-0.40507,-0.55296],[0.77583,1.05909],7],[[257.72642,199.83596],[-0.92535,0.40897],[-1.44663,-0.67857],7],[[255.35874,196.32031],[-0.11196,1.35684],[-0.42606,0.15157],7],[[254.32375,197.012],[0.25532,-0.30137],[0.08309,0.10857],7]],&quot;closed&quot;:true}]}" fill="#fff1e2"/><path d="M254.05805,148.19116c0.15018,0.64252 0.14498,1.31551 -0.06895,1.65901l-0.36162,0.08293c0,0 -0.67566,0.37832 -0.31177,1.03413c0.06952,0.1253 0.15192,0.21242 0.23615,0.27291c-0.18546,0.23713 -0.36856,0.52065 -0.51796,0.84512c-2.00733,-0.44417 -3.62587,-5.14874 -1.10962,-6.01329c0.51025,-0.17531 0.99561,0.06846 1.36079,0.50648c-0.01169,0.30007 0.02173,0.62895 0.08526,0.97729c0,0 0.13047,0.61452 0.68773,0.63543z" data-paper-data="{&quot;noHover&quot;:false,&quot;origItem&quot;:[&quot;Path&quot;,{&quot;applyMatrix&quot;:true,&quot;selected&quot;:true,&quot;segments&quot;:[[[261.00115,194.26996],[0,0],[0.3354,0.11345],7],[[261.88845,194.67626],[-0.25671,-0.15581],[0.56019,-0.1068],7],[[262.97857,193.75319],[-0.09427,0.53123],[0.46485,-2.61969],7],[[257.27688,191.83774],[1.36231,-1.53973],[0.21123,0.28807],7],[[257.76737,192.68758],[-0.11736,-0.27722],[0.09377,-0.04429],7],[[258.12034,192.61592],[-0.14329,0],[0.75,0],7],[[258.87034,193.36592],[0,0],[0,0],7],[[258.76346,193.71439],[0,0],[0.19657,0.35372],7],[[260.13815,194.55566],[-0.63469,-0.18042],[0.28865,-0.47714],7]],&quot;closed&quot;:true}]}" fill="#fff1e2"/><path d="M258.05268,146.95297c0.00496,0.01295 0.01042,0.02702 0.01517,0.04012c0.4301,1.18499 -0.26428,4.67837 -2.0117,2.9607l0.11367,0.08968c0,0 -0.23789,-0.40494 -0.64666,-0.40767c0.13559,-1.02525 -0.14523,-2.36526 -0.72687,-3.36818c0.31243,-1.04958 1.70838,-1.04657 2.59308,-0.26091c-0.01585,0.08099 -0.01644,0.17492 -0.00306,0.28047c0.06335,0.49991 0.43915,0.63989 0.66639,0.66579z" data-paper-data="{&quot;noHover&quot;:false,&quot;origItem&quot;:[&quot;Path&quot;,{&quot;applyMatrix&quot;:true,&quot;selected&quot;:true,&quot;segments&quot;:[[[260.16131,198.39745],[-0.46786,-0.18715],[0.09878,0.03951],7],[[260.40238,198.53803],[-0.06313,-0.05315],[1.11623,-0.3924],7],[[261.41444,196.20051],[0.76618,0.78243],[-1.15917,0.02198],7],[[258.19006,195.22848],[0.8307,0.616],[-0.20071,0.35613],7],[[257.53286,195.58461],[0,0],[0,0],7],[[257.66454,195.53096],[0,0],[-2.34977,0.69458],7],[[259.24006,198.64316],[-1.24484,-0.19885],[0.01376,0.0022],7],[[259.2813,198.64938],[-0.01373,-0.00195],[0.13289,-0.18614],7]],&quot;closed&quot;:true}]}" fill="#fff1e2"/><path d="M259.43132,153.59752c0.20103,0.8229 -0.2309,1.35508 -0.94391,1.74249c-0.03282,-0.03721 -0.07095,-0.07434 -0.11544,-0.11058c-0.58142,-0.47377 -1.07139,0.12116 -1.07139,0.12116c-1.75612,2.24937 -3.85155,0.04671 -3.16595,-2.16005c0.03559,-0.06254 0.06438,-0.14083 0.07936,-0.22703c0.46932,-1.20932 1.39859,-1.74245 1.99023,-1.22515l0.0114,0.15071c0.11189,0.14387 0.24125,0.27873 0.36543,0.4048c0.08689,0.21886 0.17196,0.49338 0.20918,0.81463l-0.59718,0.44606c0,0 -0.61623,0.38097 -0.16326,0.97872c0.45298,0.59775 1.00159,0.14638 1.00159,0.14638l1.01675,-0.84072c0.01305,-0.16815 0.11635,-0.33917 0.11315,-0.49789c0.41336,0.15576 0.84383,0.24857 1.27005,0.25647z" data-paper-data="{&quot;noHover&quot;:false,&quot;origItem&quot;:[&quot;Path&quot;,{&quot;applyMatrix&quot;:true,&quot;selected&quot;:true,&quot;segments&quot;:[[[253.65812,195.64694],[-0.33675,0.28588],[-0.14033,-0.07421],7],[[253.23633,195.39634],[0.1407,0.093],[0,0],7],[[252.97181,194.05946],[0,0],[0,0],7],[[253.60821,193.21093],[-0.74246,0.10607],[0.74246,-0.10607],7],[[254.45673,193.84733],[0,0],[0,0],7],[[254.48595,194.56662],[0,0],[0.29896,0.12332],7],[[255.28508,194.79314],[-0.23353,-0.03021],[0.17047,-0.04741],7],[[255.81124,194.67962],[-0.18008,0.02803],[0,0],7],[[255.94862,194.74259],[0,0],[0.73938,-0.26635],7],[[255.85226,192.46012],[0.82974,0.99711],[-0.0681,-0.05494],7],[[255.69583,192.28414],[0.03742,0.06146],[-1.59699,-1.67017],7],[[252.35447,193.96859],[-1.11484,-2.62693],[0,0],7],[[251.93665,194.94349],[0.69636,-0.27854],[-0.05329,0.02132],7],[[251.78406,194.99106],[0.04846,-0.01065],[-0.00717,0.81142],7],[[252.82594,196.63632],[-0.81709,-0.22347],[0.21371,-0.36886],7]],&quot;closed&quot;:true}]}" fill="#fff1e2"/></g><g stroke="none" stroke-width="0.5" stroke-linecap="butt"><path d="M225.91135,232.06939c-1.18188,1.31737 -3.16638,1.59422 -4.36664,2.69707c-1.76486,1.62163 -0.70296,3.97813 1.30643,3.96629c0.89884,-0.0053 1.79786,0 2.69672,0c3.76552,0 5.03951,-1.04182 6.36942,-4.80824c0.28503,-0.80722 0.90967,-1.9133 0.89735,-2.81329c-0.01455,-1.06246 -0.28371,-2.10571 -0.37473,-3.17369c-0.37083,0.13713 -0.7239,0.24991 -0.99913,0.35584c-1.20789,0.46487 -2.92699,1.2941 -4.47711,1.27777c-0.29069,0.82963 -0.46874,1.84779 -1.0523,2.49826zM233.78722,227.29263c-0.00313,1.28756 0.41648,2.54844 0.40451,3.81859c-0.05299,5.62175 -3.91795,9.12153 -8.64387,9.12153c-0.89887,0 -1.79787,0.00467 -2.69672,0c-3.30113,-0.01716 -4.80255,-4.0816 -2.1993,-6.60827c1.97958,-1.92135 3.79185,-1.65912 4.92889,-4.35327c-0.33367,-0.16051 -0.64497,-0.39275 -0.92425,-0.7139c-1.05976,-1.21862 -0.30071,-5.5106 -0.06449,-7.05442c0.00533,-3.55598 -0.69745,-7.18026 -1.33806,-10.66339c-0.18228,-0.99107 -1.0225,-3.53618 -0.44915,-4.50281c0.91143,-1.53661 4.87933,-1.82327 6.4053,-2.10792c3.70729,-0.67302 7.26721,-1.61629 10.81717,-2.90909l0.40451,-0.14687c0,0 0.65322,-0.23717 0.87096,0.47434c0.12877,0.42079 -0.04708,0.67568 -0.21229,0.81372c0.24762,0.21912 0.24762,0.5984 0.24762,0.5984c-0.00493,4.0294 0.51166,8.13657 0.91886,12.13043c0.11864,1.16366 0.70973,4.07172 0.2519,5.16657c-0.02322,0.05554 -0.04718,0.1095 -0.07186,0.16194c1.37064,-0.13239 2.78419,-0.57715 4.00173,-0.86192c0.68707,-0.1607 2.22126,-0.86391 2.91562,-0.56819c2.48629,1.05889 0.67655,6.94613 -0.54506,8.26971c-3.29245,0.95594 -6.70702,1.68375 -10.06907,2.29018c-1.02356,0.18462 -2.90124,0.46682 -3.7154,-0.51901c-0.44966,-0.54447 -0.6185,-1.42022 -0.69073,-2.35712c-0.14608,0.19332 -0.33419,0.36155 -0.54705,0.50971c0.00026,0.00719 0.00026,0.01106 0.00026,0.01106zM236.02669,228.09992c0.49097,0.66328 2.6765,0.06567 3.26906,-0.07289c2.93941,-0.68734 5.90008,-1.24634 8.83497,-1.97453c0.84482,-0.93377 0.86422,-2.51543 0.86422,-3.75342c0,-0.59459 0.48486,-1.79364 -0.06092,-1.78255c-2.72939,0.05548 -5.21571,1.69807 -7.9381,1.48928c-0.54218,0.27325 -1.15702,0.42246 -1.79513,0.57963c-0.80614,0.25102 -2.23599,0.85042 -3.63183,1.14411c0.08127,1.27356 -0.11308,3.59923 0.45773,4.37037zM239.05241,220.7401c0.21774,-0.71151 0.87096,-0.47434 0.87096,-0.47434c0.25774,0.09733 0.52423,0.16716 0.79723,0.21396c0.20414,-0.16016 0.37651,-0.36777 0.49663,-0.64387c0.35166,-0.8083 -0.23579,-3.56718 -0.32839,-4.47452c-0.41369,-4.05329 -0.92325,-8.21294 -0.9279,-12.30206c0,0 0,-0.05833 0.01493,-0.14245c-3.45961,1.22266 -6.92982,2.13625 -10.5394,2.79154c-1.04663,0.18375 -4.82361,0.48241 -5.46026,1.41693c-0.21079,0.30941 0.57518,3.13159 0.62954,3.42811c0.66473,3.62614 1.35419,7.36966 1.35865,11.07321c-0.11732,0.76676 -0.86335,5.38164 -0.33416,5.87004c0.27713,0.25577 0.58323,0.41606 0.9073,0.50384c0.10651,-0.01659 0.22789,-0.0019 0.36139,0.06823c1.37974,0.15578 2.99514,-0.77188 4.08226,-1.18934c0.38616,-0.14829 2.01385,-0.53662 2.30592,-1.08658c0.13114,-0.24695 -0.14536,-1.29958 -0.36355,-2.11568c-0.30413,-0.13289 -0.56528,-0.33226 -0.76648,-0.61499c-0.81704,-1.14814 -0.42112,-3.51776 -0.42112,-4.87536c0,-1.30313 0.02523,-2.5804 0.08256,-3.84601c-0.04227,-0.73616 -0.1045,-1.47235 -0.2093,-2.20779c-0.11922,-0.83662 -1.03383,-4.2517 -0.78108,-4.90706c0.3127,-0.81081 1.33723,-1.1949 2.19479,-1.13363c0.23308,-0.12576 0.46616,-0.25152 0.69924,-0.37728l0.07764,0.0171l-0.0053,-0.03463l0.79622,-0.14455c0.04085,-0.00823 0.08296,-0.01253 0.12599,-0.01253c0.38028,0 0.68855,0.33579 0.68855,0.75c0,0.3154 -0.17874,0.58533 -0.4319,0.69617l-0.92927,0.4338l-0.00721,-0.01833c-0.02322,0.0166 -0.04669,0.03285 -0.07042,0.04871c-0.05452,0.03645 -0.11778,0.06085 -0.18734,0.07604c-0.01131,2.65563 -0.38063,5.30213 -0.56435,7.97776c0.06569,2.32655 0.12348,4.62549 0.82183,6.9075c0.00186,0.01198 0.0038,0.02411 0.00583,0.03638c1.43877,0.02642 4.19745,-1.12336 4.81969,-1.3169c0.04919,-0.01168 0.09932,-0.02305 0.1502,-0.03433c-0.01128,-0.10286 -0.00144,-0.22134 0.0401,-0.35708zM232.28893,208.88354c0.06342,-0.48651 0.13308,-0.97433 0.20939,-1.46429c-0.22343,-0.00514 -0.37432,0.0557 -0.36515,0.28552c0.01439,0.36041 0.07329,0.75834 0.15576,1.17877z" fill="#000000"/><path d="M235.52328,223.72465c1.39584,-0.2937 2.83101,-0.91199 3.63715,-1.16301c0.6381,-0.15717 1.26929,-0.32517 1.81146,-0.59842c2.72239,0.20879 5.27291,-1.41538 8.0023,-1.47086c0.54578,-0.01109 0.06471,1.19777 0.06471,1.79236c0,1.23798 -0.01887,2.84633 -0.86369,3.7801c-2.93489,0.72819 -5.97153,1.31126 -8.91094,1.9986c-0.59256,0.13856 -2.78724,0.72306 -3.27821,0.05977c-0.57081,-0.77114 -0.38151,-3.12499 -0.46278,-4.39854z" data-paper-data="{&quot;noHover&quot;:false,&quot;origItem&quot;:[&quot;Path&quot;,{&quot;applyMatrix&quot;:true,&quot;segments&quot;:[[[236.02669,228.09992],[-0.57081,-0.77114],[0.49097,0.66328]],[[239.29575,228.02703],[-0.59256,0.13856],[2.93941,-0.68734]],[[248.13072,226.0525],[-2.93489,0.72819],[0.84482,-0.93377]],[[248.99494,222.29909],[0,1.23798],[0,-0.59459]],[[248.93402,220.51654],[0.54578,-0.01109],[-2.72939,0.05548]],[[240.99592,222.00581],[2.72239,0.20879],[-0.54218,0.27325]],[[239.20079,222.58544],[0.6381,-0.15717],[-0.80614,0.25102]],[[235.56896,223.72955],[1.39584,-0.2937],[0.08127,1.27356]]],&quot;closed&quot;:true}]}" fill="#424347"/><path d="M226.96672,229.52124c1.55012,0.01633 3.29888,-0.79806 4.50678,-1.26293c0.27523,-0.10593 0.63023,-0.21644 1.00106,-0.35357c0.09102,1.06798 0.36904,2.1281 0.38359,3.19056c0.01233,0.89998 -0.61018,2.02717 -0.89521,2.83439c-1.32991,3.76642 -2.66023,4.85168 -6.42575,4.85168c-0.89885,0 -1.81551,-0.01457 -2.71435,-0.00927c-2.00939,0.01185 -3.08748,-2.37174 -1.32262,-3.99337c1.20026,-1.10285 3.20277,-1.43282 4.38465,-2.75018c0.58357,-0.65047 0.79117,-1.67768 1.08186,-2.50731z" data-paper-data="{&quot;noHover&quot;:false,&quot;origItem&quot;:[&quot;Path&quot;,{&quot;applyMatrix&quot;:true,&quot;segments&quot;:[[[225.91135,232.06939],[0.58357,-0.65047],[-1.18188,1.31737]],[[221.54471,234.76646],[1.20026,-1.10285],[-1.76486,1.62163]],[[222.85114,238.73274],[-2.00939,0.01185],[0.89884,-0.0053]],[[225.54786,238.73274],[-0.89885,0],[3.76552,0]],[[231.91728,233.92451],[-1.32991,3.76642],[0.28503,-0.80722]],[[232.81463,231.11122],[0.01233,0.89998],[-0.01455,-1.06246]],[[232.43989,227.93753],[0.09102,1.06798],[-0.37083,0.13713]],[[231.44076,228.29337],[0.27523,-0.10593],[-1.20789,0.46487]],[[226.96365,229.57113],[1.55012,0.01633],[-0.29069,0.82963]]],&quot;closed&quot;:true}]}" fill="#424347"/><path d="M239.04806,221.12854c-0.05087,0.01128 -0.10143,0.02323 -0.15062,0.0349c-0.62224,0.19355 -3.40635,1.36022 -4.84512,1.33379c-0.00202,-0.01228 -0.02377,-0.12205 -0.02563,-0.13403c-0.69835,-2.28201 -0.79213,-4.53238 -0.85782,-6.85892c0.18372,-2.67564 0.59185,-5.27249 0.60316,-7.92812c0.06956,-0.01519 0.14805,-0.13819 0.20257,-0.17465c0.02373,-0.01586 0.04756,-0.03204 0.07078,-0.04864l0.00727,0.01834l0.93386,-0.43258c0.25317,-0.11084 0.40445,-0.28535 0.40445,-0.60075c0,-0.41421 -0.30417,-0.74876 -0.68445,-0.74876c-0.04303,0 -0.08457,0.00444 -0.12542,0.01267l-0.79247,0.14524l0.00525,0.03462l-0.07724,-0.01704c-0.23308,0.12576 -0.46271,0.25183 -0.69579,0.37759c-0.85756,-0.06127 -1.86941,0.32151 -2.18211,1.13232c-0.25275,0.65536 0.66569,4.06926 0.78491,4.90588c0.1048,0.73544 0.1805,1.46387 0.22276,2.20003c-0.05733,1.26561 -0.09475,2.4562 -0.09475,3.75933c0,1.3576 -0.40848,3.72432 0.40856,4.87246c0.2012,0.28273 0.45743,0.48202 0.76156,0.61491c0.21819,0.81609 0.49963,1.96858 0.36848,2.21552c-0.29207,0.54996 -1.9301,0.9378 -2.31626,1.08608c-1.08712,0.41746 -2.71578,1.34051 -4.09552,1.18473c-0.13349,-0.07013 -0.25598,-0.08544 -0.36249,-0.06885c-0.32407,-0.08777 -0.63327,-0.25003 -0.91039,-0.5058c-0.52918,-0.4884 0.20638,-5.11324 0.3237,-5.88c-0.00446,-3.70355 -0.69878,-7.50392 -1.36351,-11.13006c-0.05436,-0.29652 -0.83469,-3.12728 -0.62391,-3.43669c0.63665,-0.93452 4.43257,-1.24709 5.4792,-1.43083c3.60958,-0.65528 7.1198,-1.56397 10.5794,-2.78663c-0.01493,0.08412 -0.01477,0.14256 -0.01477,0.14256c0.00465,4.08912 0.53533,8.29008 0.94902,12.34337c0.0926,0.90733 0.6758,3.68803 0.32414,4.49633c-0.12012,0.27609 -0.29417,0.48728 -0.49831,0.64744c-0.27299,-0.0468 -0.54009,-0.1155 -0.79783,-0.21283c0,0 -0.65584,-0.23291 -0.87358,0.4786c-0.04154,0.13574 -0.05237,0.2556 -0.04109,0.35847z" data-paper-data="{&quot;noHover&quot;:false,&quot;origItem&quot;:[&quot;Path&quot;,{&quot;applyMatrix&quot;:true,&quot;segments&quot;:[[[239.05241,220.7401],[-0.04154,0.13574],[0.21774,-0.71151]],[[239.92337,220.26575],[0,0],[0.25774,0.09733]],[[240.7206,220.47971],[-0.27299,-0.0468],[0.20414,-0.16016]],[[241.21722,219.83584],[-0.12012,0.27609],[0.35166,-0.8083]],[[240.88883,215.36133],[0.0926,0.90733],[-0.41369,-4.05329]],[[239.96093,203.05926],[0.00465,4.08912],[0,0]],[[239.97586,202.91682],[-0.01493,0.08412],[-3.45961,1.22266]],[[229.43646,205.70835],[3.60958,-0.65528],[-1.04663,0.18375]],[[223.9762,207.12528],[0.63665,-0.93452],[-0.21079,0.30941]],[[224.60574,210.5534],[-0.05436,-0.29652],[0.66473,3.62614]],[[225.96439,221.6266],[-0.00446,-3.70355],[-0.11732,0.76676]],[[225.63023,227.49664],[-0.52918,-0.4884],[0.27713,0.25577]],[[226.53753,228.00048],[-0.32407,-0.08777],[0.10651,-0.01659]],[[226.89891,228.06871],[-0.13349,-0.07013],[1.37974,0.15578]],[[230.98118,226.87936],[-1.08712,0.41746],[0.38616,-0.14829]],[[233.28709,225.79278],[-0.29207,0.54996],[0.13114,-0.24695]],[[232.92354,223.67711],[0.21819,0.81609],[-0.30413,-0.13289]],[[232.15706,223.06212],[0.2012,0.28273],[-0.81704,-1.14814]],[[231.73594,218.18676],[0,1.3576],[0,-1.30313]],[[231.8185,214.34075],[-0.05733,1.26561],[-0.04227,-0.73616]],[[231.6092,212.13296],[0.1048,0.73544],[-0.11922,-0.83662]],[[230.82812,207.22589],[-0.25275,0.65536],[0.3127,-0.81081]],[[233.02291,206.09227],[-0.85756,-0.06127],[0.23308,-0.12576]],[[233.72215,205.71499],[-0.23308,0.12576],[0,0]],[233.79979,205.73208],[233.79449,205.69745],[[234.59071,205.55291],[0,0],[0.04085,-0.00823]],[[234.7167,205.54038],[-0.04303,0],[0.38028,0]],[[235.40525,206.29038],[0,-0.41421],[0,0.3154]],[[234.97335,206.98655],[0.25317,-0.11084],[0,0]],[234.04408,207.42034],[[234.03687,207.40201],[0,0],[-0.02322,0.0166]],[[233.96646,207.45073],[0.02373,-0.01586],[-0.05452,0.03645]],[[233.77912,207.52677],[0.06956,-0.01519],[-0.01131,2.65563]],[[233.21477,215.50453],[0.18372,-2.67564],[0.06569,2.32655]],[[234.03659,222.41203],[-0.69835,-2.28201],[0.00186,0.01198]],[[234.04242,222.44842],[-0.00202,-0.01228],[1.43877,0.02642]],[[238.86211,221.13151],[-0.62224,0.19355],[0.04919,-0.01168]],[[239.01231,221.09718],[-0.05087,0.01128],[-0.01128,-0.10286]]],&quot;closed&quot;:true}]}" fill="#3b3d48"/></g><g stroke="none" stroke-width="0.5" stroke-linecap="butt"><path d="M227.85997,168.52526c2.60099,-0.04184 5.5019,1.83592 7.90889,3.45147l0.11673,0.15404c0.27609,-0.61249 0.42717,-1.23783 0.69397,-2.23398c0,0 0.04876,-0.18181 0.14973,-0.34211c0.00159,-0.11153 0.01469,-0.23436 0.04317,-0.3691c0.19703,-0.93235 0.7357,-0.57079 0.7357,-0.57079c0.47431,0.31874 1.81997,0.75252 2.08457,1.50476c0.54447,1.54793 0.16006,3.15493 -0.52286,4.23603c0.02266,0.14404 0.0245,0.25144 0.0245,0.25144c0.04472,2.61085 0.08944,5.22171 0.13416,7.83255l0.00328,0.19156c0.06077,0.14572 0.08757,0.27396 0.08757,0.27396c0.38425,1.84276 1.12295,3.08359 1.53922,4.84922c0.54457,2.30983 0.12552,5.774 -0.05975,8.14029l-0.25975,0.74351c0,0 -0.03344,0.06074 -0.09116,0.12947c-0.04614,1.46471 -0.23295,2.77846 -0.82437,4.15648c-2.59506,4.68946 -6.24435,4.75755 -9.77839,4.82271c-2.04159,0.03764 -3.90512,0.38495 -3.6809,-4.04876c-0.11126,-0.27762 -0.11684,-0.6031 -0.11684,-0.6031l0.01788,-1.3512c0.7387,-3.44877 1.02598,-9.41248 0.42806,-13.08938c-0.58016,-3.56771 -2.19418,-6.17766 -2.85139,-9.68212c-1.31776,-0.62353 -2.41339,-1.53699 -2.31877,-3.21802c0.05486,-0.97459 1.18097,-2.39899 1.69972,-3.30686c-0.23203,-4.91622 2.27609,-3.54853 4.37204,-1.52158c0.15799,-0.39481 0.46497,-0.40047 0.46497,-0.40047zM239.8464,192.98457c0.01608,-0.0003 0.03172,0.0002 0.04694,0.00145c0.12762,-1.60459 0.1922,-3.32324 -0.10343,-4.54083c-0.37911,-1.56144 -1.01411,-2.7707 -1.41992,-4.34238c-0.26459,-0.26879 -0.27468,-0.85885 -0.27468,-0.85885c-0.04001,-2.33584 -0.09076,-5.29862 -0.13303,-7.76653c-0.3378,0.18425 -0.67545,0.23351 -0.96959,0.10756l-0.27347,-0.18334c-0.10038,0.39676 -0.19581,0.79751 -0.28393,1.20317c0.38559,0.68864 0.45813,1.56694 -0.07042,2.50361c0.27675,2.74346 2.03839,5.73073 2.05269,8.43882c0.01275,2.41411 -2.24949,4.68043 -2.85249,6.93272c-0.16491,0.61592 -0.41722,2.56263 -0.8683,2.55341c-0.73933,-0.01511 -1.44128,-2.96262 -1.77925,-3.90918c-0.22355,-1.36036 -1.0161,-3.84886 -1.12989,-5.06187c-0.20682,-2.20502 1.25644,-4.95591 1.66534,-7.06094c-0.06822,0.00022 -0.13901,0.0007 -0.21322,0.00242l-0.21647,-0.19718c0.00132,0.05916 0.0025,0.11924 0.00354,0.18023l0.01006,0.58745c0,0 0.01713,0.99995 -0.55619,1.01052c-0.57332,0.01057 -0.59044,-0.98937 -0.59044,-0.98937l-0.01006,-0.58745c-0.01124,-0.6562 0.12787,-1.34086 0.00995,-1.9679c-0.09196,-0.48897 -1.07009,-0.86174 -1.27251,-0.9976c-0.90175,-0.79927 -0.46442,1.43629 -1.5804,1.85275c-0.73062,0.27266 -0.99605,-0.78565 -1.50274,-1.25834c-0.48114,-0.44886 -1.49264,-0.74775 -2.5626,-1.12944c0.73811,2.97726 2.10746,5.39531 2.62039,8.60994c0.661,4.14263 0.36646,10.44304 -0.44961,14.34938l0.04714,0.55654c0.152,0.33302 0.12326,0.7773 0.12326,0.7773c-0.22261,3.16847 1.72677,1.96045 3.17148,1.93381c2.94158,-0.05424 6.11441,-0.19903 8.26178,-4.12843c0.7132,-1.5826 0.58393,-3.27198 0.55058,-5.21933l-0.00671,-0.39163c0,0 -0.01713,-0.99995 0.55619,-1.01052zM237.62048,170.77225c-0.28746,1.07091 -0.50015,1.83128 -0.8183,2.55614c0.00039,0.00025 0.0006,0.00039 0.0006,0.00039l0.55215,0.37105c0.5939,0.52782 1.51879,-2.07363 1.30752,-2.44162c-0.09898,-0.17241 -0.60887,-0.37105 -1.02933,-0.54091c-0.00734,0.03513 -0.01264,0.05493 -0.01264,0.05493zM234.57798,181.47049c-0.22573,1.30037 -1.85242,5.01689 -1.67288,6.17734c0.2082,1.34574 0.81314,3.12322 1.05869,4.69157c0.07892,0.21258 0.36744,0.82691 0.55346,1.42682c0.16411,-0.72138 0.40493,-1.5499 0.55607,-1.99068c0.31431,-0.91661 2.25035,-3.22132 2.19763,-4.2071c-0.12305,-2.30131 -1.3959,-4.84838 -1.89212,-7.27857c-0.20449,0.17756 -0.41695,0.32945 -0.63464,0.45004c-0.02643,0.01465 -0.05244,0.02847 -0.07807,0.0415zM233.7792,178.82238c0.5821,-0.23198 1.41594,-0.63651 1.71824,-0.91362c-0.16803,-0.13645 -0.25013,-0.34428 -0.2875,-0.5486c-0.90296,-0.53556 -2.54379,-0.46835 -1.4556,1.406c0,0 0.00998,0.01998 0.02488,0.05624zM229.03693,173.53248c0,0 -0.31679,-0.26644 -0.34157,-0.81054c-1.20038,-1.57341 -4.71555,-5.87059 -4.53573,-2.35987c0.05891,0.19851 0.06323,0.39461 0.04545,0.56256c0.00665,0.2364 -0.01545,0.81576 -0.37404,1.00033c-0.43,0.82702 -0.88425,1.45562 -1.37767,2.21062c-0.20041,0.30665 0.51865,0.27033 0.77563,0.41889c0.61408,0.35499 1.1661,0.51899 1.80821,0.6962c0.93554,0.2582 2.15858,0.84391 3.01516,1.61941c0.29178,0.26416 0.46434,1.16179 0.78292,1.05002c0.31508,-0.11054 0.19547,-1.12847 0.43918,-1.48882c0.76854,-1.13633 0.96491,-0.69664 1.73723,-0.25345c0.48942,0.32849 0.86372,0.62743 1.14886,0.97131c0.03393,-0.30089 0.09828,-0.5636 0.18738,-0.79072c-1.12577,-0.80364 -2.2249,-1.91248 -3.31098,-2.82594z" fill="#000000"/><path d="M233.72307,178.80348c-1.08819,-1.87436 0.61871,-2.00529 1.52168,-1.46972c0.03737,0.20434 0.12287,0.43749 0.2909,0.57395c-0.30229,0.27711 -1.20452,0.72263 -1.78662,0.9546c-0.0149,-0.03626 -0.02596,-0.05882 -0.02596,-0.05882z" data-paper-data="{&quot;noHover&quot;:false,&quot;origItem&quot;:[&quot;Path&quot;,{&quot;applyMatrix&quot;:true,&quot;segments&quot;:[[[467.52014,378.80687],[-0.03734,-0.05477],[1.53289,-0.33178]],[[472.05514,377.4843],[-0.80306,0.4072],[-0.43338,-0.20928]],[[471.32774,376.65365],[0.08859,0.30745],[-2.33771,-0.82811]],[[467.4576,378.72186],[-2.7622,-2.84089],[0,0]]],&quot;closed&quot;:true}]}" fill="#ff0000"/><path d="M234.66178,180.71503c0.02562,-0.01304 0.05248,-0.02699 0.07891,-0.04163c0.21769,-0.12058 0.43663,-0.27232 0.64113,-0.44988c0.49624,2.43018 1.80402,5.05296 1.92708,7.35428c0.05271,0.98579 -1.92127,3.34777 -2.23558,4.26439c-0.15115,0.44078 -0.39738,1.26844 -0.5615,1.98982c-0.18601,-0.59992 -0.48211,-1.21778 -0.56103,-1.43036c-0.24555,-1.56836 -0.87511,-3.39729 -1.08331,-4.74303c-0.17953,-1.16043 1.47887,-4.95381 1.7046,-6.25417z" data-paper-data="{&quot;noHover&quot;:false,&quot;origItem&quot;:[&quot;Path&quot;,{&quot;applyMatrix&quot;:true,&quot;segments&quot;:[[[469.49072,382.80012],[0,0],[-0.64867,1.94381]],[[464.83851,392.01747],[-0.41758,-1.74517],[0.48426,2.02384]],[[467.39735,399.08228],[-0.57199,-2.35872],[0.1969,0.32098]],[[468.78101,401.23726],[-0.45963,-0.90478],[0.46157,-1.07727]],[[470.3246,398.26738],[-0.41507,0.65682],[0.86314,-1.36588]],[[476.26104,392.01912],[0.0937,1.47976],[-0.21875,-3.45448]],[[471.63821,381.05177],[1.18903,3.65805],[-0.54281,0.26063]],[[469.95814,381.7091],[0.57477,-0.17481],[-0.0698,0.02123]],[[469.7521,381.76918],[0.0676,-0.01885],[0,0]]],&quot;closed&quot;:true}]}" fill="#ff0000"/><path d="M237.62824,170.65106c0.42046,0.16986 0.96752,0.40017 1.0665,0.57259c0.21127,0.36799 -0.76196,3.06401 -1.35587,2.53618l-0.5677,-0.39454c0,0 -0.00021,-0.00016 -0.0006,-0.00041c0.31815,-0.72488 0.55683,-1.5878 0.84428,-2.65871c0,0 0.00604,-0.01995 0.01338,-0.05509z" data-paper-data="{&quot;noHover&quot;:false,&quot;origItem&quot;:[&quot;Path&quot;,{&quot;applyMatrix&quot;:true,&quot;segments&quot;:[[[477.92773,366.84102],[0,0],[-0.79982,1.598]],[[475.67294,370.65163],[0.86461,-1.07823],[0.00102,0.0004]],[475.67448,370.65224],[[477.10202,371.22395],[0,0],[1.52973,0.80796]],[[480.63126,367.59862],[0.53609,0.55769],[-0.25116,-0.26128]],[[477.96326,366.759],[1.09212,0.26636],[-0.02077,0.05249]]],&quot;closed&quot;:true}]}" fill="#0032ff"/><path d="M232.38441,176.37958c-0.0891,0.22711 -0.15469,0.4957 -0.18862,0.79658c-0.28513,-0.34389 -0.65926,-0.64356 -1.14867,-0.97205c-0.77233,-0.44319 -0.97523,-0.86453 -1.74376,0.2718c-0.24372,0.36036 -0.13366,1.39179 -0.44873,1.50234c-0.31857,0.11178 -0.4975,-0.78086 -0.78928,-1.04503c-0.85658,-0.7755 -2.1273,-1.39753 -3.06286,-1.65575c-0.64211,-0.17723 -1.19711,-0.35805 -1.81119,-0.71304c-0.25699,-0.14857 -0.97641,-0.11699 -0.776,-0.42365c0.49341,-0.755 0.94848,-1.4051 1.37848,-2.23212c0.35859,-0.18456 0.38299,-0.77585 0.37634,-1.01225c0.01778,-0.16795 0.01474,-0.36856 -0.04417,-0.56708c-0.17981,-3.51073 3.40528,0.79917 4.60567,2.37257c0.02479,0.54409 0.34356,0.8321 0.34356,0.8321c1.08609,0.91347 2.18347,2.04188 3.30924,2.84552z" data-paper-data="{&quot;noHover&quot;:false,&quot;origItem&quot;:[&quot;Path&quot;,{&quot;applyMatrix&quot;:true,&quot;segments&quot;:[[[455.35362,370.74296],[2.79975,1.39988],[0,0]],[[454.49653,369.51802],[0.04047,0.81662],[-3.06915,-2.3927]],[[442.73893,365.85372],[-0.31301,-5.2697],[0.14519,0.29933]],[[442.83261,366.6986],[0.05403,-0.25136],[0.0068,0.35469]],[[441.80948,368.18836],[0.94617,-0.26686],[-1.16169,1.22832]],[[438.10712,371.46534],[1.32437,-1.11857],[-0.53791,0.45432]],[[440.11705,372.11496],[-0.66551,-0.22989],[1.59024,0.54932]],[[444.81527,373.209],[-1.67151,-0.28352],[2.43537,0.41308]],[[452.62894,375.72086],[-2.20566,-1.18664],[0.75132,0.40421]],[[454.62961,377.31713],[-0.83824,0.15881],[0.82904,-0.15707]],[[455.845,375.09662],[-0.6536,0.53365],[2.06102,-1.6828]],[[460.40012,374.76457],[-2.00018,-0.68598],[1.26536,0.50614]],[[463.36146,376.25293],[-0.73039,-0.52358],[0.10223,-0.45029]],[[463.88698,375.07234],[-0.24319,0.33812],[-2.90847,-1.23628]]],&quot;closed&quot;:true}]}" fill="#0032ff"/><path d="M239.32632,194.01824l0.00632,0.39345c0.03336,1.94735 0.15527,3.65738 -0.55792,5.24c-2.14738,3.92941 -5.35819,4.09276 -8.29977,4.147c-1.44471,0.02664 -3.40739,1.22306 -3.18478,-1.94541c0,0 0.02745,-0.44609 -0.12456,-0.77911l-0.04799,-0.55779c0.81607,-3.90634 1.10004,-10.28181 0.43904,-14.42444c-0.51293,-3.21464 -1.87512,-5.6527 -2.61323,-8.62996c1.06996,0.38171 2.08587,0.67346 2.56699,1.12233c0.5067,0.47271 0.77558,1.52679 1.5062,1.25413c1.11598,-0.41646 0.68838,-2.65944 1.59014,-1.86018c0.20243,0.13586 1.18708,0.50656 1.27904,0.99551c0.11793,0.62704 -0.0115,1.44426 -0.00026,2.10046l-0.00096,0.45514c0,0 0.02182,0.99939 0.59513,0.98881c0.57332,-0.01057 0.56086,-1.01007 0.56086,-1.01007l-0.01714,-0.45495c-0.00104,-0.06099 0.00444,-0.25366 0.00311,-0.3128l0.21818,0.19756c0.07421,-0.00173 0.13347,0.12916 0.2017,0.12894c-0.40889,2.10502 -1.8406,4.84173 -1.63378,7.04674c0.11377,1.213 0.8749,3.58433 1.09845,4.94468c0.33797,0.94654 1.02905,3.89996 1.76838,3.91507c0.45108,0.00922 0.69227,-1.92306 0.85718,-2.53898c0.60301,-2.25229 2.85639,-4.45932 2.84363,-6.87343c-0.01431,-2.70812 -1.75872,-5.65299 -2.03547,-8.39644c0.52855,-0.93667 0.45874,-1.81222 0.07314,-2.50086c0.08811,-0.40567 0.21795,-0.9243 0.31833,-1.32107l0.27453,0.18434c0.29413,0.12594 0.63451,0.07958 0.97231,-0.10466c0.04227,2.46791 0.10362,5.44902 0.14363,7.78486c0,0 0.01181,0.59484 0.27639,0.86364c0.40582,1.57169 1.04561,2.80642 1.42472,4.36785c0.29562,1.21759 0.23027,2.95957 0.10264,4.56415c-0.01522,-0.00125 -0.03088,-0.00166 -0.04696,-0.00136c-0.57332,0.01057 -0.55726,1.01683 -0.55726,1.01683z" data-paper-data="{&quot;noHover&quot;:false,&quot;origItem&quot;:[&quot;Path&quot;,{&quot;applyMatrix&quot;:true,&quot;segments&quot;:[[[482.75458,400.21246],[-1.5,0],[0.04208,0]],[[482.8773,400.21594],[-0.03975,-0.00229],[0.40568,-2.40273]],[[482.81021,393.4036],[0.71867,1.83408],[-0.92163,-2.35203]],[[479.29091,386.85244],[0.991,2.36813],[-0.67997,-0.41039]],[[478.61094,385.55689],[0,0],[0,-3.50396]],[[478.61094,373.90641],[0,3.70209],[-0.89177,0.26695]],[[476.07015,374.04091],[0.76367,0.19701],[0,0]],[[475.36308,373.75841],[0,0],[-0.28033,0.59223]],[[474.56657,375.55486],[0.24863,-0.60591],[0.97768,1.04337]],[[474.27023,379.30737],[1.42437,-1.39002],[0.60092,4.12177]],[[479.26104,392.01912],[0.0839,-4.06152],[-0.07479,3.62058]],[[471.48969,402.33665],[1.67808,-3.36089],[-0.4589,0.91908]],[[469.10425,406.14178],[1.1794,0.0263],[-1.93306,-0.0431]],[[464.62571,400.23033],[0.84158,1.4288],[-0.52374,-2.04619]],[[461.89726,392.60825],[0.24324,1.82219],[-0.44216,-3.31241]],[[466.56932,382.06561],[-1.16377,3.14543],[-0.17844,-0.00156]],[[466.01153,382.06335],[0.19419,-0.00053],[0,0]],[[465.45416,381.76167],[0,0],[0.00081,0.08875]],[[465.45536,382.03204],[0,-0.0915],[0,0]],[465.45536,382.91325],[[463.95536,384.41325],[1.5,0],[-1.5,0]],[462.45536,382.91325],[[462.45536,382.03204],[0,0],[0,-0.98435]],[[462.56954,379.08121],[0.28036,0.94358],[-0.21862,-0.73579]],[[459.28595,377.55],[0.52336,0.20934],[-2.32275,-1.22352]],[[455.06937,380.28472],[2.93755,-0.59369],[-1.92318,0.38868]],[[451.19529,378.35613],[1.3041,0.7229],[-1.2383,-0.68643]],[[444.54335,376.59154],[2.78141,0.602],[1.79716,4.48514]],[[451.01133,389.57559],[-1.19756,-4.8349],[1.54327,6.23062]],[[449.1925,411.08168],[2.30947,-5.83544],[0,0]],[[449.29088,411.91757],[0,0],[0.38264,0.5036]],[[449.57845,413.08663],[0,0],[-0.7242,4.74532]],[[457.78687,416.0743],[-3.77985,0],[7.6962,0]],[[479.58072,410.11169],[-5.79255,5.83321],[1.93629,-2.35358]],[[481.25458,402.29994],[0,2.92119],[0,0]],[481.25458,401.71246]],&quot;closed&quot;:true}]}" fill="#0032ff"/></g><g stroke="none" stroke-width="0.5" stroke-linecap="butt"><path d="M236.29299,125.41313c1.55773,0.0034 2.33995,0.80238 3.4833,1.76846l0.49052,0.63588c0,0 0.12925,0.17704 0.15229,0.40956c3.42535,2.10112 7.01129,4.13897 9.63951,7.14158c1.10296,1.26007 2.25142,2.80297 2.01873,4.65831c-0.16142,1.28706 -0.78008,2.64293 -1.27542,3.83259c-1.00526,3.09083 -2.74615,5.36711 -4.26751,8.1816c-2.79097,5.16322 -5.72021,10.14031 -8.84686,15.13081c-0.89171,1.36535 -2.39511,2.0785 -4.04746,2.17964c-0.46319,0.02836 -1.74905,-0.41289 -2.18801,-0.15632c-0.69189,0.40439 -1.35704,2.10277 -1.76557,2.68605c-2.8668,4.09309 -5.51223,6.20108 -10.56138,4.30575c-4.01266,-1.5209 -7.51288,-4.0586 -11.14357,-6.3333l-0.30218,-0.18932c0,0 -0.00893,-0.0056 -0.02401,-0.01652c-2.24673,0.51834 -5.19734,-0.17897 -6.94039,-1.19309c-3.71398,-1.79077 -9.00368,-5.18947 -9.84266,-9.60329c-0.82309,-4.3302 0.44299,-9.19692 1.10768,-13.45536c1.70945,-9.17687 8.34389,-17.45513 13.19158,-25.19262c2.40722,-3.84222 4.5576,-8.58127 7.74755,-11.80713c3.06066,-3.09512 7.24311,-4.84751 10.17761,-8.07246l0.44686,-0.71325c0.21992,-0.35102 0.68274,-0.45729 1.03376,-0.23737c0.17551,0.10996 0.28982,0.28065 0.33278,0.46771l0.28214,1.22874l-0.24055,0.05524c1.03066,4.25826 -0.34334,9.75363 -2.2417,13.5966c0.28286,0.0199 0.49323,0.2187 0.49323,0.2187c1.89437,1.79042 3.86879,3.53561 5.90873,5.21134c0.60589,-0.13229 1.32109,-0.11003 2.20412,0.09932l0.81352,0.35783c0,0 0.68549,0.3043 0.38119,0.9898c-0.3043,0.68549 -0.9898,0.38118 -0.9898,0.38118l-0.28634,-0.12849c1.59648,1.24547 3.22852,2.44527 4.8896,3.58849c0.09772,-0.02465 0.16875,-0.02666 0.16875,-0.02666zM217.29763,169.776c0.48407,-0.57286 1.05693,-0.08879 1.05693,-0.08879l0.83796,0.82024c-0.03684,1.04581 0.10778,1.32588 -0.46362,2.20174c-0.36847,0.56481 -0.81514,0.91849 -1.30169,1.10548c0.72747,0.35516 1.46913,0.68155 2.22952,0.96976c4.39088,1.68293 6.30845,-0.20137 8.79987,-3.76183c0.64529,-0.92218 1.26701,-2.60151 2.32297,-3.16814c1.84394,-0.98946 4.25606,0.86797 5.63683,-1.47891c3.11034,-4.96447 6.02308,-9.91492 8.79983,-15.0503c1.48902,-2.75382 3.19551,-4.96805 4.17901,-7.9866c0.44956,-1.07968 1.01994,-2.29459 1.1894,-3.45968c0.20889,-1.4363 -0.8538,-2.61041 -1.67649,-3.54784c-2.76055,-3.14551 -6.67255,-5.18905 -10.22798,-7.41661c-0.65537,-0.4106 -1.30718,-0.83066 -1.95507,-1.25955c0.14741,0.23627 0.27184,0.49165 0.36752,0.77028c0.50519,1.47092 0.0654,3.09584 -1.77723,3.09081c-1.20926,-0.00329 -2.37945,-1.06682 -3.44973,-1.51126c-2.2652,-0.94062 -4.2506,-1.85981 -6.16395,-3.35073c-1.32034,2.75369 -2.02747,5.82125 -0.26027,8.47715c0,0 0.41382,0.6255 -0.21167,1.03932c-0.62549,0.41382 -1.03933,-0.21168 -1.03933,-0.21168c-2.62479,-3.988 -0.7943,-8.61193 1.4982,-12.40038c0.44128,-0.72924 0.84217,-1.38018 1.26779,-1.91661c-0.12149,-0.17955 -0.20137,-0.45001 0.00998,-0.78735c0.09015,-0.1439 0.19248,-0.23481 0.29684,-0.28934c-1.75007,-1.4683 -3.45001,-2.98507 -5.09024,-4.53463c0,0 -0.04655,-0.04399 -0.09959,-0.11985c-1.21626,2.08085 -2.87567,3.9834 -3.72871,6.234c-1.3745,2.2074 -2.08537,4.63249 -3.3503,6.93041c-3.12633,5.67942 -6.87677,11.07915 -10.31862,16.57275c-2.83554,4.5033 -0.79253,8.48333 2.81381,11.83551l0.03417,0.00422c0,0 0.59287,0.37145 0.27463,0.96944c1.33258,2.02464 2.72122,4.53996 2.90229,6.85525c0.13751,1.75834 -0.43381,2.91 -1.38566,3.60934c0.91098,0.5789 1.8157,1.17184 2.72484,1.75673c-0.46291,-1.3057 0.17348,-2.4425 2.97313,-2.17775c0,0 0.74654,0.07192 0.67462,0.81847c-0.07192,0.74654 -0.81847,0.67462 -0.81847,0.67462c-3.98634,-0.39201 1.77806,4.39284 2.93403,1.07924l-0.41681,-0.24005c0,0 -0.57286,-0.48407 -0.08878,-1.05694zM233.53354,129.15943c0.68552,0.34723 1.5972,1.37346 2.14784,0.83746c1.25385,-1.2205 -2.19093,-3.21104 -2.80623,-3.59584c-1.74296,-1.10738 -3.08423,-2.67697 -4.75976,-3.90337c-0.38644,0.49449 -0.7213,1.14082 -1.14451,1.83922c-0.19001,0.31357 -0.37895,0.63535 -0.56318,0.96393c2.21607,1.79002 4.6015,2.57998 7.12584,3.8586zM205.81726,157.93646c-3.65193,-3.76101 -5.47751,-8.17113 -2.41257,-13.08494c3.4269,-5.46975 7.16196,-10.84574 10.27575,-16.49985c1.25454,-2.27802 1.94266,-4.68953 3.32087,-6.8742c1.42586,-3.76192 4.86978,-6.69503 5.71961,-10.74594c0.38678,-1.84368 0.84442,-3.87788 0.94898,-5.76104c0.05611,-1.01069 -0.16943,-2.08012 -0.02173,-3.06935c-2.92169,2.88014 -6.76502,4.63456 -9.66374,7.55124c-3.10954,3.12879 -5.20004,7.80989 -7.54175,11.54754c-4.6938,7.49186 -11.42415,15.72504 -12.98357,24.64555c-0.61864,3.96545 -2.50642,10.18966 -0.73575,14.07498c1.53565,3.36959 5.5049,5.87338 8.69654,7.41033c2.16895,1.2773 6.1555,2.63729 7.69201,-0.47816c1.08855,-2.20715 -1.99665,-6.5739 -3.15056,-8.23499c0,0 -0.14985,-0.21613 -0.14408,-0.48118z" fill="#000000"/><path d="M226.35941,125.28796c0.18422,-0.3286 0.37686,-0.66007 0.56686,-0.97363c0.42321,-0.6984 0.7706,-1.3605 1.15705,-1.85499c1.67551,1.2264 3.09757,2.82311 4.84054,3.93048c0.6153,0.38479 4.05014,2.41815 2.79629,3.63865c-0.55064,0.536 -1.47046,-0.48227 -2.15599,-0.8295c-2.52433,-1.27861 -4.9887,-2.12098 -7.20476,-3.911z" data-paper-data="{&quot;noHover&quot;:false,&quot;origItem&quot;:[&quot;Path&quot;,{&quot;applyMatrix&quot;:true,&quot;segments&quot;:[[[513.43113,327.1896],[-0.51342,-5.636],[0.13943,1.53055]],[[514.29246,331.71909],[-1.49313,-0.3641],[3.39994,0.82908]],[[517.40701,323.14475],[0.0012,1.45142],[0.02605,-4.1299]],[[518.96845,310.93296],[-0.2994,4.14197],[-1.24843,-0.1299]],[[514.63597,310.94616],[1.63306,-0.02431],[-0.7332,0.01091]],[[512.40427,311.01523],[0.75251,-0.03669],[-0.68066,5.6566]]],&quot;closed&quot;:true}]}" fill="#00ffe2"/><path d="M217.40197,170.78541l0.38666,0.3354c-1.15596,3.31361 -6.92647,-1.47355 -2.94014,-1.08154c0,0 0.74746,0.07234 0.81939,-0.67421c0.07192,-0.74654 -0.67652,-0.81933 -0.67652,-0.81933c-2.79964,-0.26477 -3.43902,0.8705 -2.9761,2.17619c-0.90914,-0.58489 -1.81911,-1.18125 -2.73008,-1.76015c0.95186,-0.69935 1.52132,-1.85245 1.38381,-3.61078c-0.18107,-2.3153 -1.58071,-4.84334 -2.9133,-6.86797c0.31824,-0.59801 -0.27585,-0.9716 -0.27585,-0.9716l-0.0342,-0.00427c-3.60634,-3.35219 -5.65498,-7.3621 -2.81943,-11.8654c3.44185,-5.49361 7.21904,-10.93163 10.34537,-16.61106c1.26492,-2.29792 1.9866,-4.72708 3.36111,-6.93448c0.85304,-2.25059 2.52027,-4.15444 3.73654,-6.23528c0.05305,0.07586 0.09972,0.11984 0.09972,0.11984c1.64023,1.54956 3.3487,3.06636 5.09877,4.53466c-0.10436,0.05453 -0.21507,0.24509 -0.30523,0.38899c-0.21135,0.33733 -0.13157,0.60778 -0.01007,0.78734c-0.42562,0.53643 -0.82426,1.18749 -1.26553,1.91673c-2.29249,3.78845 -4.12371,8.31247 -1.49892,12.30048c0,0 0.41813,0.62547 1.04362,0.21164c0.62549,-0.41382 0.20747,-0.93941 0.20747,-0.93941c-1.76719,-2.6559 -1.05556,-5.82335 0.26479,-8.57703c1.91333,1.49091 3.91479,2.41347 6.17999,3.35409c1.07028,0.44442 2.24904,1.51228 3.45831,1.51558c1.84263,0.00503 2.22926,-1.53519 1.72408,-3.00611c-0.09569,-0.27863 -0.16854,-0.61966 -0.31595,-0.85593c0.64788,0.42889 1.30381,0.85162 1.95918,1.26222c3.55544,2.22755 7.48308,4.28965 10.24363,7.43515c0.82269,0.93741 1.88809,2.11827 1.6792,3.55457c-0.16945,1.16508 -0.73838,2.38566 -1.18793,3.46535c-0.98351,3.01855 -2.68966,5.25007 -4.17869,8.00389c-2.77676,5.13537 -5.71204,10.12032 -8.82237,15.08479c-1.38077,2.34688 -3.80525,0.49513 -5.64918,1.48457c-1.05596,0.56663 -1.68431,2.24749 -2.32959,3.16967c-2.49142,3.56047 -4.42635,5.44449 -8.81724,3.76155c-0.76039,-0.28821 -1.50638,-0.61565 -2.23385,-0.97081c0.48656,-0.18699 0.95905,-0.63726 1.32752,-1.20207c0.57139,-0.87585 0.40259,-1.05889 0.43943,-2.1047l-0.84012,-0.82084c0,0 -0.57493,-0.48473 -1.05899,0.08813c-0.48407,0.57286 0.12074,0.96218 0.12074,0.96218z" data-paper-data="{&quot;noHover&quot;:false,&quot;origItem&quot;:[&quot;Path&quot;,{&quot;applyMatrix&quot;:true,&quot;segments&quot;:[[[427.35252,342.801],[-1.48492,-0.21213],[1.48492,0.21213]],[428.62531,344.49805],[[428.12493,346.78923],[0,0],[-1.81159,1.04805]],[[423.90106,348.34139],[2.09117,0.0384],[-1.34852,-0.02476]],[[420.64524,347.30908],[0.83355,0.62607],[0.17053,1.61006]],[[421.36905,352.1175],[-0.31896,-1.59478],[1.81014,9.22887]],[[437.08887,363.03736],[-8.67992,-0.44188],[2.24815,0.11445]],[[444.925,363.61034],[-2.08161,-1.18802],[3.63495,2.07455]],[[453.41696,371.59348],[-5.44374,0.15187],[11.71667,0]],[[488.26888,370.52663],[-11.65213,0.74685],[6.24841,-0.40049]],[[506.24236,369.12883],[-6.16028,1.53837],[2.30724,-0.38454]],[[513.36891,367.47101],[-2.15457,0.94995],[2.6561,-1.17108]],[[517.60173,360.86238],[-0.71519,2.38973],[2.39984,-8.01873]],[[519.31112,335.65228],[0,8.39121],[0,-1.54673]],[[519.36987,331.00131],[-0.03895,1.55348],[-0.24391,0.50073]],[[518.45463,332.44212],[0.37062,-0.45804],[-1.95655,2.4181]],[[511.32905,332.71198],[1.94807,3.12831],[-1.27845,-2.05301]],[[510.22729,325.26052],[0.38324,2.28586],[-0.81111,-4.83796]],[[509.36105,311.25566],[-0.49519,4.82593],[-6.06906,0.68623]],[[494.71729,319.816],[2.62481,-5.81527],[0,0]],[[492.73104,320.56085],[1.36555,0.6207],[-1.36555,-0.6207]],[[491.9862,318.57459],[0,0],[3.97189,-8.68326]],[[514.59369,307.94646],[-8.8551,0.13735],[1.70452,-0.02644]],[[519.18823,308.05999],[-1.3611,-0.15174],[0.1753,-0.39656]],[[520.53325,307.24087],[-0.79614,0],[0.33962,0]],[[521.33883,307.43673],[-0.20324,-0.11897],[0.63022,-4.5252]],[[523.61924,293.9945],[-0.88458,4.42533],[0,0]],[[523.71662,293.69845],[-0.07226,0.17045],[-4.8182,0.14819]],[[509.19169,293.99846],[4.72017,-0.94403],[-5.2007,0.01436]],[[493.88825,295.67931],[5.23776,-0.2962],[-12.94539,0.73206]],[[454.84329,295.78867],[12.96551,0],[-10.64329,-0.02396]],[[437.77186,313.12516],[1.85202,-9.67168],[0,0]],[437.80099,313.18757],[[436.44954,314.68243],[1.35144,-0.09562],[-2.01643,4.40839]],[[427.91277,326.88058],[3.73179,-2.76537],[-2.83408,2.10014]],[[420.32417,328.36468],[2.19601,0.87063],[-0.01383,2.15867]],[[420.24016,334.84822],[0.02592,-2.1619],[1.7214,-2.17101]],[[427.0881,337.57476],[-2.52407,-5.02607],[0,0]],[[426.41728,339.58723],[1.34164,-0.67082],[-1.34164,0.67082]],[[424.40482,338.91641],[0,0],[-3.5685,-7.17245]],[[425.6912,345.0351],[-6.84351,1.55937],[0,0]],[425.65546,344.07379]],&quot;closed&quot;:true}]}" fill="#fff1e2"/><path d="M205.97602,158.36983c1.15392,1.66109 4.21808,6.12525 3.12954,8.33238c-1.53651,3.11545 -5.53389,1.75282 -7.70284,0.47553c-3.19166,-1.53694 -7.17562,-4.04916 -8.71124,-7.41877c-1.77067,-3.88532 0.10498,-10.12431 0.72362,-14.08976c1.55941,-8.92052 8.3122,-17.22253 13.00598,-24.71439c2.34172,-3.73765 4.45543,-8.42363 7.56495,-11.55241c2.89872,-2.91668 6.75553,-4.66878 9.67724,-7.54893c-0.14769,0.98922 0.07926,2.05913 0.02314,3.06982c-0.10456,1.88316 -0.56039,3.91803 -0.94717,5.7617c-0.84981,4.0509 -4.32573,7.07863 -5.75159,10.84055c-1.37822,2.18468 -2.05661,4.59792 -3.31114,6.87595c-3.1138,5.6541 -6.80972,10.94474 -10.23662,16.41449c-3.06494,4.91381 -1.25932,9.3118 2.39261,13.07282c-0.00576,0.26503 0.14352,0.481 0.14352,0.481z" data-paper-data="{&quot;noHover&quot;:false,&quot;origItem&quot;:[&quot;Path&quot;,{&quot;applyMatrix&quot;:true,&quot;segments&quot;:[[[435.22821,310.77181],[-0.45531,0.27165],[2.49651,-10.18306]],[[454.84329,292.78867],[-11.58263,0.02314],[12.90919,0]],[[493.71915,292.68408],[-12.88919,0.72643],[5.19302,-0.29268]],[[508.89608,291.01306],[-5.16613,-0.01606],[7.8899,-1.57798]],[[533.18205,289.29631],[-7.768,2.86114],[3.53543,-1.30218]],[[543.95374,284.78733],[-3.30268,1.82242],[1.77254,-0.97809]],[[549.13272,281.49131],[-1.83341,0.80008],[-7.98378,-1.89352]],[[526.07315,273.1311],[8.02131,1.8158],[-8.60463,-1.94785]],[[498.49374,272.61079],[8.82125,0],[-17.68159,0]],[[442.93692,276.7756],[16.77469,-6.82929],[-7.3777,3.16222]],[[418.30087,290.47412],[4.7048,-7.12662],[-4.08031,6.18067]],[[414.97597,313.082],[-0.78417,-7.04133],[0.13829,5.03232]],[[423.95413,325.61097],[-6.91171,0.704],[4.89662,-0.49875]],[[434.56569,311.52694],[-1.58999,3.71954],[0,0]]],&quot;closed&quot;:true}]}" fill="#442300"/><path d="M212.42242,145.60007c0.39819,-0.63556 1.03376,-0.23737 1.03376,-0.23737l0.00815,0.00602c1.9909,-3.15883 4.66761,-5.67773 7.67576,-6.54307c0.5316,-0.06907 1.06081,-0.16226 1.58313,-0.28283l0.68382,-0.06501c0,0 0.74737,-0.06278 0.81016,0.68458c0.06278,0.74737 -0.68458,0.81016 -0.68458,0.81016l-0.4737,0.03223c-0.53365,0.12195 -1.07335,0.2212 -1.61643,0.29007c-0.399,0.11304 -0.79237,0.26258 -1.1789,0.44511c2.2081,1.50033 4.22842,3.32637 6.20225,5.1113c0.63275,0.57219 2.10483,1.8448 2.11358,2.78071c0.03734,3.99491 -5.48999,2.26097 -7.43988,1.52288c-2.14805,-1.06531 -4.71446,-2.17217 -7.0635,-2.90806c-2.18651,3.98843 -3.27888,8.8015 -2.48133,12.15012c0,0 0.16785,0.73098 -0.56313,0.89882c-0.73098,0.16785 -0.89882,-0.56313 -0.89882,-0.56313c-0.83835,-3.7675 0.26746,-8.83329 2.5742,-13.07156l-0.0472,-0.02722c0,0 -0.63556,-0.39819 -0.23737,-1.03376zM221.73907,148.77987c0.76594,0.29075 5.33945,2.0808 5.34273,-0.06385c0.00088,-0.58354 -1.95788,-2.01704 -2.41048,-2.37544c-1.9984,-1.58244 -3.69903,-3.36661 -5.84585,-4.75195c-1.48695,1.05598 -2.83617,2.58014 -3.96685,4.34011c2.309,0.75923 4.77878,1.81076 6.88045,2.85113z" fill="#000000"/><path d="M214.80894,145.92321c1.13069,-1.75997 2.50642,-3.32288 3.99337,-4.37886c2.14681,1.38534 3.92037,3.20873 5.91877,4.79117c0.4526,0.35839 2.40857,1.81415 2.40768,2.3977c-0.00328,2.14465 -4.61772,0.38705 -5.38366,0.0963c-2.10168,-1.04037 -4.62715,-2.14707 -6.93616,-2.9063z" data-paper-data="{&quot;noHover&quot;:false,&quot;origItem&quot;:[&quot;Path&quot;,{&quot;applyMatrix&quot;:true,&quot;segments&quot;:[[[467.65372,328.03382],[-0.4684,-4.66672],[0.32053,1.60687]],[[473.4351,337.02108],[-3.6383,2.27174],[0.98996,-0.61813]],[[474.90152,330.41336],[-0.12682,1.14764],[0.55997,-5.06727]],[[476.74791,315.45975],[-0.06834,5.10952],[-3.36864,-1.39885]],[[465.17993,313.3451],[4.18347,0.04753],[1.16504,4.71959]]],&quot;closed&quot;:true}]}" fill="#00ffe2"/><path d="M235.5945,139.34497c-0.61412,-0.38476 -0.26307,-0.99113 -0.23867,-1.03163c-0.02836,-0.33901 -0.1114,-0.67589 -0.22757,-0.99771l-0.18971,0.04248c-0.64777,0.08765 -1.29953,0.14818 -1.95198,0.18807c0,0 -0.74861,0.04539 -0.79401,-0.70323c-0.04539,-0.74862 0.70323,-0.79402 0.70323,-0.79402c0.61533,-0.03698 1.23003,-0.09383 1.8408,-0.17717l0.41346,-0.09809c0,0 0.47679,-0.10948 0.74866,0.23349c0.35349,0.08744 0.50637,0.45845 0.50637,0.45845c0.25687,0.64307 0.43234,1.33381 0.46067,2.02571l-0.23749,0.61629c0,0 -0.39819,0.63556 -1.03376,0.23737zM235.35882,138.35194l0.00752,0.18181c-0.00066,-0.06061 -0.0032,-0.12124 -0.00752,-0.18181z" fill="#000000"/></g><g stroke="none" stroke-width="0.5" stroke-linecap="butt"><path d="M218.02073,197.30593c1.4007,4.15701 1.06107,10.63044 0.14443,14.89467c-0.35663,1.65905 -2.09196,3.65228 -1.39127,5.3326c0.72738,1.05549 1.47774,0.75406 2.23753,1.60772c1.03815,1.16643 0.12079,2.12813 2.11803,2.26156c1.12634,0.07525 2.18582,-1.57484 3.40209,-0.70375c0.46045,0.32978 0.14562,1.59564 0.29124,2.10448c0.08362,0.2922 0.34735,-0.49955 0.50153,-0.76148c0.3687,-0.62639 0.681,-1.28584 0.97236,-1.95174c0.7772,-1.77627 0.94576,-3.17685 0.67371,-5.08119c0.00812,-4.63643 -2.5532,-9.04371 -3.08132,-13.6271c-0.23299,-2.02207 -0.04341,-4.20592 -0.00971,-6.27201c-1.99197,0.38214 -3.88231,0.62179 -6.00108,0.62179c-0.0319,-0.00079 -0.06355,-0.00183 -0.09497,-0.00314c0.08508,0.52494 0.16382,1.05094 0.23743,1.5776zM225.37942,201.21197c0.531,4.61856 3.07931,9.00999 3.08718,13.69051c0.40298,2.82085 -0.27272,5.55065 -1.87879,7.94769c-0.40089,0.59833 -1.41114,1.92123 -2.43585,1.29469c-1.44439,-0.88315 -1.06701,-1.56146 -0.58998,-2.30159c0.28895,-0.44831 -0.83355,0.70637 -1.33945,0.87532c-0.91952,0.30709 -1.86645,0.21685 -2.75896,-0.1837c-1.45218,-0.65171 -0.79738,-1.47969 -1.5435,-2.36492c-0.62858,-0.74576 -1.7025,-0.87761 -2.46227,-1.91713c-0.95323,-2.43929 0.75431,-4.08401 1.25237,-6.41691c0.87136,-4.08138 1.16413,-10.20645 -0.14931,-14.18536c-0.09519,-0.65367 -0.19496,-1.30674 -0.3036,-1.95831l-0.0102,-0.27017c0,0 0,-0.01128 0.00138,-0.03108c-3.62703,-1.63688 -1.65973,-8.66703 1.51935,-10.58775c1.95753,-1.18268 4.1305,0.29998 6.07553,0.94832c0,0 0.71151,0.23717 0.47434,0.94868c-0.10013,0.30038 -0.2848,0.43168 -0.46478,0.48312c0.99362,1.62466 4.58481,4.94633 3.60613,7.04259c-0.14767,0.31631 -1.4913,0.48005 -2.07597,0.57955c-0.0184,2.09766 -0.2409,4.34267 -0.00363,6.40646zM222.12484,186.63532c-1.01317,-0.47668 -2.19204,-1.02816 -2.96009,-0.89926c-3.07465,0.51601 -5.17575,8.63015 -1.28647,8.49542c2.49615,0 4.62261,-0.34746 7.04385,-0.8655c0.42165,-0.09021 1.27988,0.45209 1.2934,0.02111c0.04811,-1.53352 -2.92338,-4.22964 -3.72186,-5.56265l-0.31821,-0.78907c0,0 -0.07346,-0.18365 -0.05062,-0.40005z" fill="#000000"/><path d="M222.19415,186.98899l0.32816,0.79447c0.79848,1.333 3.78318,4.09744 3.73507,5.63096c-0.01352,0.43098 -0.87575,-0.106 -1.2974,-0.01579c-2.42125,0.51803 -4.61508,0.87321 -7.11123,0.87321c-3.88928,0.13473 -1.77845,-8.06569 1.29621,-8.58171c0.76805,-0.1289 1.98279,0.42116 2.99595,0.89784c-0.02284,0.2164 0.05323,0.40102 0.05323,0.40102z" data-paper-data="{&quot;noHover&quot;:false,&quot;origItem&quot;:[&quot;Path&quot;,{&quot;applyMatrix&quot;:true,&quot;segments&quot;:[[[222.12484,186.63532],[-0.02284,0.2164],[-1.01317,-0.47668]],[[219.16474,185.73606],[0.76805,-0.1289],[-3.07465,0.51601]],[[217.87827,194.23148],[-3.88928,0.13473],[2.49615,0]],[[224.92212,193.36598],[-2.42125,0.51803],[0.42165,-0.09021]],[[226.21552,193.38708],[-0.01352,0.43098],[0.04811,-1.53352]],[[222.49366,187.82444],[0.79848,1.333],[0,0]],[222.17545,187.03536]],&quot;closed&quot;:true}]}" fill="#0032ff"/><path d="M217.76864,195.68053c0.03141,0.00131 0.06338,0.00226 0.09528,0.00305c2.11877,0 4.03069,-0.24122 6.02266,-0.62336c-0.0337,2.06609 -0.21757,4.25112 0.01542,6.27319c0.52811,4.58339 3.10888,9.07706 3.10076,13.71349c0.27205,1.90434 0.08968,3.31325 -0.68751,5.08952c-0.29136,0.66589 -0.60939,1.32725 -0.97809,1.95364c-0.15417,0.26193 -0.42025,1.05424 -0.50387,0.76204c-0.14561,-0.50884 0.16986,-1.77484 -0.29059,-2.10462c-1.21627,-0.87109 -2.28981,0.78017 -3.41615,0.70492c-1.99724,-0.13343 -1.09044,-1.0969 -2.12859,-2.26333c-0.75979,-0.85366 -1.52222,-0.55739 -2.2496,-1.61289c-0.7007,-1.68032 1.02248,-3.68367 1.37911,-5.34273c0.91664,-4.26423 1.27839,-10.81803 -0.12231,-14.97504c-0.0736,-0.52666 -0.15143,-1.05295 -0.23651,-1.57789z" data-paper-data="{&quot;noHover&quot;:false,&quot;origItem&quot;:[&quot;Path&quot;,{&quot;applyMatrix&quot;:true,&quot;segments&quot;:[[[218.02073,197.30593],[-0.0736,-0.52666],[1.4007,4.15701]],[[218.16516,212.20061],[0.91664,-4.26423],[-0.35663,1.65905]],[[216.77389,217.5332],[-0.7007,-1.68032],[0.72738,1.05549]],[[219.01142,219.14092],[-0.75979,-0.85366],[1.03815,1.16643]],[[221.12945,221.40249],[-1.99724,-0.13343],[1.12634,0.07525]],[[224.53154,220.69874],[-1.21627,-0.87109],[0.46045,0.32978]],[[224.82278,222.80322],[-0.14561,-0.50884],[0.08362,0.2922]],[[225.3243,222.04174],[-0.15417,0.26193],[0.3687,-0.62639]],[[226.29666,220.09],[-0.29136,0.66589],[0.7772,-1.77627]],[[226.97037,215.00881],[0.27205,1.90434],[0.00812,-4.63643]],[[223.88905,201.3817],[0.52811,4.58339],[-0.23299,-2.02207]],[[223.87934,195.10969],[-0.0337,2.06609],[-1.99197,0.38214]],[[217.87827,195.73148],[2.11877,0],[-0.0319,-0.00079]],[[217.7833,195.72833],[0.03141,0.00131],[0.08508,0.52494]]],&quot;closed&quot;:true}]}" fill="#fff1e2"/></g><g stroke="none" stroke-width="0.5" stroke-linecap="butt"><path d="M234.60898,150.86983c0.7327,-0.37664 3.54689,-1.57306 2.94727,-2.84547c-0.14827,0.1476 -0.29927,0.29136 -0.45263,0.43124c-1.01252,0.45885 -2.70576,2.33867 -4.61373,1.42258c-0.27177,-0.13048 0.54737,0.26503 0.8142,0.43432c0.41229,0.26157 0.79851,0.53461 1.17877,0.81192c-0.01663,-0.18106 0.12614,-0.25458 0.12614,-0.25458zM247.67745,156.51326l-0.01579,-0.01831c-1.02018,-0.62902 -2.43411,-1.71229 -3.42242,-1.78968c-0.95989,-0.07516 -0.8171,1.59174 -0.19976,2.39762c0.52845,0.32261 1.05272,0.6412 1.56208,0.8898c1.35828,0.66296 2.68939,-0.17651 2.33812,-1.32573c-0.14664,-0.06761 -0.26224,-0.15371 -0.26224,-0.15371zM239.28766,145.91477l0.07612,0.06782c0.75369,0.79077 1.56502,1.55766 2.27516,2.35602c1.60919,1.39006 2.67517,2.81136 4.00781,4.32011c1.11664,1.26422 2.63036,2.509 3.30066,3.88516c0.87462,1.79564 -0.46811,2.98684 -2.20713,2.71505c-1.26412,-0.19757 -3.05432,-1.54278 -4.4242,-2.23209c-2.77601,-1.71214 -5.50958,-3.3871 -8.23024,-5.26888c-0.89584,-0.61963 -2.83212,-1.50374 -2.84192,-2.57448c-0.00091,-0.10042 1.14946,-0.36073 1.3424,-0.38816c1.49109,-0.21191 2.28466,-0.8146 3.46082,-1.34761c0.62264,-0.57822 1.21248,-1.22617 1.73711,-1.94046c-0.06734,-0.13352 -0.08846,-0.27769 0.03487,-0.38162c0.0803,-0.06767 0.17869,-0.0819 0.27964,-0.06654c1.2572,-1.8772 2.05382,-4.17515 1.86435,-6.83829c0,0 -0.02964,-0.46866 0.59505,-0.182c0.62469,0.28665 0.65434,0.75531 0.65434,0.75531c0.1573,2.76985 -0.63375,5.16208 -1.92483,7.12067z" fill="#000000"/><path d="M234.47449,151.14997c-0.38025,-0.27732 -0.78012,-0.56104 -1.19241,-0.82261c-0.26683,-0.16929 -1.03595,-0.5883 -0.76418,-0.45782c1.90797,0.9161 3.54522,-0.94644 4.55774,-1.40529c0.15337,-0.13988 0.35811,-0.30342 0.50638,-0.45101c0.59961,1.27241 -2.24818,2.50583 -2.98088,2.88247c0,0 -0.14327,0.07319 -0.12664,0.25424z" data-paper-data="{&quot;noHover&quot;:false,&quot;origItem&quot;:[&quot;Path&quot;,{&quot;applyMatrix&quot;:true,&quot;segments&quot;:[[[455.3035,347.26607],[0,0],[2.87653,0.86436]],[[471.02354,349.30746],[-2.57539,2.41285],[-0.80472,-0.0979]],[[468.62726,348.98773],[0.79249,0.11507],[-3.78291,-1.26097]],[[453.47385,342.52084],[1.57489,4.29753],[-0.22433,-0.61213]],[[454.01063,344.40157],[-0.09187,-0.64544],[0.14194,0.99728]],[[454.21658,347.322],[-0.0184,-0.95871],[0.52602,-0.2242]]],&quot;closed&quot;:true}]}" fill="#ffffff"/><path d="M247.97498,156.66825c0.35127,1.14922 -1.0147,2.0179 -2.37298,1.35495c-0.50935,-0.24862 -1.0615,-0.58841 -1.58995,-0.91104c-0.61733,-0.80587 -0.7588,-2.51857 0.20108,-2.44341c0.9883,0.07739 2.46195,1.19578 3.48212,1.8248l0.01599,0.0186c0,0 0.11711,0.08848 0.26375,0.15609z" data-paper-data="{&quot;noHover&quot;:false,&quot;origItem&quot;:[&quot;Path&quot;,{&quot;applyMatrix&quot;:true,&quot;segments&quot;:[[468.05936,376.02042],[[468.07977,375.97328],[0,0],[-0.408,-2.44803]],[[465.71149,368.10661],[2.05431,1.79755],[-1.99524,-1.74586]],[[457.77015,370.34712],[1.07927,-1.94019],[0.22136,1.2646]],[[458.62359,374.01638],[-0.40781,-1.15164],[1.0875,3.07103]],[[468.18911,376.64107],[-2.76809,1.84919],[-0.12975,-0.32727]]],&quot;closed&quot;:true}]}" fill="#ff0000"/></g></g></g></svg>