<svg viewBox="0,0,90.58618,90.96453" height="90.96453" width="90.58618" xmlns:xlink="http://www.w3.org/1999/xlink" xmlns="http://www.w3.org/2000/svg" version="1.1"><g transform="translate(-195.99688,-137.53379)"><g style="mix-blend-mode: normal" stroke-dashoffset="0" stroke-dasharray="" stroke-miterlimit="10" stroke-linejoin="miter" stroke-linecap="butt" stroke-width="2" stroke="#000000" fill-rule="nonzero" fill="#ff2e2e" data-paper-data="{&quot;isPaintingLayer&quot;:true}"><path d="M196.99688,208.86852c0,-1.56502 1.2687,-2.83372 2.83372,-2.83372c1.56502,0 2.83372,1.2687 2.83372,2.83372c0,1.56502 -1.2687,2.83372 -2.83372,2.83372c-1.56502,0 -2.83372,-1.2687 -2.83372,-2.83372z"></path><path d="M225.43571,224.6646c0,-1.56502 1.2687,-2.83372 2.83372,-2.83372c1.56502,0 2.83372,1.2687 2.83372,2.83372c0,1.56502 -1.2687,2.83372 -2.83372,2.83372c-1.56502,0 -2.83372,-1.2687 -2.83372,-2.83372z"></path><path d="M262.15772,223.89433c0,-1.56502 1.2687,-2.83372 2.83372,-2.83372c1.56502,0 2.83372,1.2687 2.83372,2.83372c0,1.56502 -1.2687,2.83372 -2.83372,2.83372c-1.56502,0 -2.83372,-1.2687 -2.83372,-2.83372z"></path><path d="M279.91562,198.05656c0,-1.56502 1.2687,-2.83372 2.83372,-2.83372c1.56502,0 2.83372,1.2687 2.83372,2.83372c0,1.56502 -1.2687,2.83372 -2.83372,2.83372c-1.56502,0 -2.83372,-1.2687 -2.83372,-2.83372z"></path><path d="M265.84867,152.38274c0,-1.56502 1.2687,-2.83372 2.83372,-2.83372c1.56502,0 2.83372,1.2687 2.83372,2.83372c0,1.56502 -1.2687,2.83372 -2.83372,2.83372c-1.56502,0 -2.83372,-1.2687 -2.83372,-2.83372z"></path><path d="M239.35695,141.3675c0,-1.56502 1.2687,-2.83372 2.83372,-2.83372c1.56502,0 2.83372,1.2687 2.83372,2.83372c0,1.56502 -1.2687,2.83372 -2.83372,2.83372c-1.56502,0 -2.83372,-1.2687 -2.83372,-2.83372z"></path><path d="M206.54389,167.29959c0,-1.26404 1.02471,-2.28877 2.28877,-2.28877c1.26404,0 2.28877,1.02471 2.28877,2.28877c0,1.26404 -1.02471,2.28877 -2.28877,2.28877c-1.26404,0 -2.28877,-1.02471 -2.28877,-2.28877z"></path></g></g></svg>