<svg version="1.1" xmlns="http://www.w3.org/2000/svg" xmlns:xlink="http://www.w3.org/1999/xlink" width="73.43329" height="107.20188" viewBox="0,0,73.43329,107.20188"><g transform="translate(-201.89723,-129.79978)"><g data-paper-data="{&quot;isPaintingLayer&quot;:true}" fill-rule="nonzero" stroke="none" stroke-linecap="butt" stroke-linejoin="miter" stroke-miterlimit="10" stroke-dasharray="" stroke-dashoffset="0" style="mix-blend-mode: normal"><path d="M207.84487,194.68857l-5.94764,-47.45618l51.91799,-17.43261l21.5153,43.49089l-11.77718,11.25187l4.89609,3.13601l-16.79681,10.44331l12.55514,15.32733l-11.54557,5.23005l-2.71824,10.77719l-8.5688,-5.17911l1.43958,12.6871l-10.84734,0.03724l0.16312,-13.36471l1.07901,-25.68276z" fill="#ffffff" stroke-width="0"/><path d="M245.74788,192.29892c0.18907,-0.06039 0.40176,-0.12563 0.6331,-0.19576c-0.4536,-0.13611 -0.86481,-0.36237 -1.20175,-0.69057c-0.30304,-0.12647 -0.56187,-0.30399 -0.73127,-0.58474c-0.12059,-0.19987 -0.22665,-0.3952 -0.31894,-0.5859c-0.51527,0.15194 -1.03239,0.29091 -1.54939,0.41679c0.05841,0.15759 0.09985,0.33882 0.1186,0.54721c0.0696,0.77325 -0.23472,1.23432 -0.59489,1.50803c1.22304,-0.01545 2.48057,-0.04327 3.64454,-0.41506zM241.54065,196.57468c-0.29531,0.01228 -0.62157,0.06327 -0.95938,0.12506c0.57747,1.70995 1.15354,3.42254 1.83553,5.09333c0.14494,0.02566 0.28784,0.041 0.42744,0.04401c1.04274,0.02249 2.60214,-0.66375 3.11961,0.24183c0.46826,0.27636 0.7966,0.76458 0.85314,1.33279c0.38403,-0.00067 0.67743,0.10602 0.67743,0.10602c3.09865,1.12679 7.18934,1.42575 9.97827,3.07415c1.08093,0.63889 3.06426,0.92435 3.072,2.17996c0.01299,2.10601 -2.26876,3.16599 -4.7489,3.74234c0.14907,0.03206 0.30003,0.06366 0.45318,0.09428l1.79698,0.48578c0,0 1.68833,0.46046 1.22788,2.1488c-0.46046,1.68833 -2.14879,1.22788 -2.14879,1.22788l-1.56247,-0.43042c-2.33783,-0.46768 -3.69988,-0.75855 -5.09083,-1.40017l-0.16316,0.36711l-2.71212,-1.20539c-0.01216,-0.00508 -0.02426,-0.0103 -0.03628,-0.01565c2.02448,4.92749 3.6191,10.5542 0.46729,11.88128c-1.60374,0.67526 -3.29882,-0.12112 -3.88441,-1.76264c-0.70796,-1.98455 0.40784,-3.87227 0.98565,-5.6803c0.22163,-0.69351 -1.33934,-3.51967 -1.5823,-4.18574c-0.19772,-0.54204 -0.39985,-1.08272 -0.60557,-1.62229c-2.12296,3.56457 -4.15306,7.13482 -5.78212,11.06772c-0.65435,1.57972 7.09061,14.66727 0.92691,12.6127c-1.11812,-0.37271 -1.79496,-3.90222 -2.18314,-4.87117c-3.97048,-9.91088 -0.80436,-11.96522 3.72056,-20.56724c0.17559,-0.3338 0.80672,-1.40268 1.57789,-2.62035c-0.46027,-1.1242 -0.92653,-2.2464 -1.39116,-3.36881c-3.10392,-1.7407 -5.76089,-5.40324 -5.05185,-8.55874c0.15002,-0.66765 0.66996,-1.75424 1.3785,-2.70672c0.00733,-0.03144 0.01481,-0.06223 0.02244,-0.09238c-2.53267,-0.09125 -4.98185,-0.60319 -7.33754,-2.05071c-0.20513,-0.12605 -0.40634,-0.25558 -0.60363,-0.3885c-4.28713,4.73025 -14.22902,2.2292 -17.25507,-2.97777c-0.34347,-1.74621 -0.4859,-3.55128 -0.36261,-5.32667c0.06592,-0.94926 1.02479,-2.07206 0.43769,-2.82091c-0.89221,-1.13802 -2.7075,-1.2951 -3.5828,-2.44617c-1.50377,-1.97754 -1.73338,-4.9753 -1.41737,-7.36566c0.136,-1.02868 0.95084,-3.72171 1.50277,-4.67052c0.66862,-1.14942 2.43346,-1.83928 2.42313,-3.16899c-0.00423,-0.54429 -0.77444,-0.83207 -0.90189,-1.36124c-0.22088,-0.91703 -0.15804,-1.88587 -0.10708,-2.82776c0.30338,-5.60745 2.87813,-10.58599 7.33105,-13.9567c2.63264,-1.01087 5.62162,-1.92826 8.06139,-3.33237c3.68639,-2.12155 6.38777,-4.59197 10.9531,-4.94302c4.14431,-0.31868 8.02579,1.99209 10.38606,5.29297c0.33769,0.47227 0.23007,1.21547 0.65072,1.61563c1.00321,0.95432 4.44949,1.44585 5.82855,2.00295c4.25316,1.71814 7.88635,4.66872 11.16868,7.80272c3.57961,4.03267 8.41823,8.05091 7.14105,14.00421c-0.1733,0.80781 -0.47897,1.62147 -0.98533,2.2743c-0.31064,0.4005 -1.19297,0.23608 -1.33839,0.72161c-0.10685,0.35674 0.7755,0.26685 0.94266,0.59964c0.80154,1.5957 0.87872,3.71852 0.33446,5.39618c-1.86513,5.74919 -8.9352,8.04686 -14.57821,9.05461c-0.19658,0.184 -0.398,0.36458 -0.60394,0.54173c2.59555,-0.97067 6.18673,-0.73978 7.60859,0.63302l0.80877,-0.01877c0,0 1.74953,-0.0406 1.79013,1.70893c0.0406,1.74953 -1.70893,1.79012 -1.70893,1.79012l-0.23696,0.0055c0.0019,0.02728 0.00318,0.05473 0.00382,0.08236c0.02242,0.96624 -0.74269,1.76771 -1.70893,1.79013c-0.276,0.00641 -0.53856,-0.05145 -0.77335,-0.1599c-0.24834,0.04851 -0.51931,0.10087 -0.80705,0.15344c-0.29976,0.49222 -0.83617,0.82625 -1.4551,0.84061c-0.47778,0.01109 -0.91527,-0.17039 -1.23821,-0.47351c-0.15521,0.01152 -0.3105,0.02091 -0.46532,0.02779c-0.05454,0.0557 -0.11007,0.11094 -0.16655,0.16571c-0.11437,0.14355 -0.25091,0.26882 -0.40458,0.37055c-3.47321,3.00998 -9.8659,4.50746 -13.95197,4.67742zM247.71099,210.52806l1.64137,-0.59687l0.0239,0.06571l0.16402,-0.12233c1.31806,-0.16961 2.86935,-0.62831 4.35141,-0.90767c-2.55291,-0.68696 -5.06578,-1.24079 -7.59336,-2.1599c0,0 -0.00331,-0.00121 -0.00957,-0.00365c-0.35121,0.60101 -0.70425,1.19715 -1.05774,1.79c0.40931,0.87041 0.89289,1.8968 1.38977,3.00854c0.17878,-0.50442 0.58232,-0.9025 1.09021,-1.07383zM266.09245,174.32617c0.82942,-2.41796 -1.7158,-3.21572 -1.42759,-5.2444c0.14531,-1.02283 1.36627,-1.55668 1.9493,-2.40954c0.58276,-0.85245 0.73478,-2.49166 0.66853,-3.35386c-0.21514,-2.79988 -4.69187,-6.4947 -6.46861,-8.50037c-2.9106,-2.77803 -6.16468,-5.47405 -9.94742,-6.98157c-1.83865,-0.73275 -5.32825,-1.30193 -6.80299,-2.5917c-0.66206,-0.57902 -0.76368,-1.59421 -1.2733,-2.31104c-1.60244,-2.25395 -4.37999,-4.03573 -7.23689,-3.76815c-3.9203,0.36718 -6.1329,2.56279 -9.29797,4.386c-2.49907,1.43956 -5.55841,2.48066 -8.27718,3.46196c-3.25548,2.51709 -6.64435,8.43004 -5.53001,12.83813c0.2024,0.80068 1.08332,1.43707 1.01505,2.26011c-0.258,3.11072 -3.53653,4.98969 -3.94936,8.2285c-0.17301,1.35736 -0.23986,3.68121 0.69795,4.80469c0.75072,0.89936 3.39344,2.05648 3.87244,2.87958c1.22109,2.09827 -0.2724,6.25672 0.15942,8.65219c1.55933,2.75678 9.00484,4.61868 11.35697,2.01595c-6.27621,-6.42896 -6.43859,-17.121 -0.45322,-24.1101c2.99817,-2.0269 5.94681,-2.99296 9.48738,-3.67133l2.15022,-0.35837c0,0 1.7262,-0.28761 2.01381,1.43859c0.28761,1.7262 -1.43859,2.01381 -1.43859,2.01381l-2.11012,0.35146c-2.82024,0.53444 -5.3867,1.22425 -7.77424,2.83894c-4.96617,5.75524 -4.10816,14.69567 1.30951,19.65374c0.09354,0.06606 0.17481,0.14024 0.24542,0.21913c0.52185,0.4546 1.08379,0.87309 1.68478,1.24952c1.00249,0.62791 2.0466,1.01881 3.11751,1.24976c0.14182,-1.47362 1.69932,-1.50976 1.69932,-1.50976l0.61064,-0.01417c2.42991,-0.03899 5.26724,-0.53588 8.01641,-1.44836c0.82686,-1.18341 2.50056,-1.79232 4.12709,-1.74387c0.99435,-0.52413 1.93528,-1.1093 2.79255,-1.75292c-0.05826,-0.68775 0.20842,-1.1237 0.53272,-1.39744c-1.34778,-0.06383 -2.62528,-0.2816 -3.68559,-0.60996c-1.0452,-0.32368 -2.02388,-0.90448 -2.86122,-1.6088c-0.30251,-0.25446 -0.00259,-1.02136 -0.38495,-1.12167c-0.31865,-0.0836 -0.03272,0.7426 -0.2937,0.94363c-1.53208,1.18013 -4.37942,1.90229 -6.14796,2.24394c-3.14934,0.6084 -10.27531,1.03718 -11.89767,-2.83704c-1.4502,-3.46309 2.8479,-6.50512 5.04069,-8.11669c0,0 1.41534,-1.02923 2.44457,0.38611c1.02923,1.41534 -0.38611,2.44457 -0.38611,2.44457c-0.59552,0.42759 -1.25034,0.78284 -1.78656,1.28278c-0.83141,0.77516 -2.61438,1.73046 -2.05607,2.72061c0.31467,0.55807 2.65564,0.77162 2.85915,0.78468c2.80669,0.18018 5.38374,0.07503 8.05593,-0.86556c1.55652,-0.54788 2.63452,-2.58919 4.28136,-2.4852c1.70246,0.10751 2.57495,2.43543 4.21615,2.9006c2.40863,0.68267 9.58808,1.01093 9.25139,-2.91914l-0.99078,-1.90703c0,0 -0.77664,-1.56823 0.79158,-2.34486c1.56822,-0.77664 2.34487,0.79158 2.34487,0.79158l1.25275,2.6232c0.0019,0.98685 0.34121,2.03249 0.0057,2.96055c-0.39238,1.08539 -1.0648,1.95583 -1.92042,2.6399c2.87429,-1.05005 5.45656,-2.68439 6.34737,-5.28131z" fill="#9966ff" stroke-width="0.5"/></g></g></svg>