<svg version="1.1" xmlns="http://www.w3.org/2000/svg" xmlns:xlink="http://www.w3.org/1999/xlink" width="140.97801" height="153.09945" viewBox="0,0,140.97801,153.09945"><g transform="translate(-285.51099,-122.45028)"><g data-paper-data="{&quot;isPaintingLayer&quot;:true}" fill-rule="nonzero" stroke-miterlimit="10" stroke-dasharray="" stroke-dashoffset="0" style="mix-blend-mode: normal"><path d="M355.53707,252.20379c1.42702,-1.28437 4.412,-2.16778 5.43222,-0.73551c0.95917,1.34613 0.30619,2.60278 0.30619,2.60278c-0.7114,1.46711 -1.89934,4.21944 -3.03015,5.87334c-0.20085,0.29175 -0.39862,0.55663 -0.60023,0.81737l0.01546,-0.01055c0,0 0.57309,2.19924 -0.49272,2.41702c-0.642,0.13189 -1.1938,-0.1784 -1.53795,-0.43951c-1.00403,0.66255 -1.99613,0.83442 -2.95763,0.35406c-2.25091,-1.12339 -1.17474,-5.60578 -1.17474,-5.60578c0.32628,-1.13099 2.61255,-3.98886 4.03957,-5.27322v0v0z" data-paper-data="{&quot;index&quot;:null}" fill="#be1e2d" stroke="#231f20" stroke-width="0.7887" stroke-linecap="round" stroke-linejoin="round"/><path d="M380.1818,255.07661v0v0c0,0 1.05243,4.48713 -1.20803,5.59449c-0.96245,0.48144 -1.95453,0.2977 -2.95758,-0.36643c-0.34684,0.26166 -0.89586,0.56729 -1.53988,0.43265c-1.06186,-0.22117 -0.48228,-2.41965 -0.48228,-2.41965l0.0154,0.01062c-0.1961,-0.26273 -0.39506,-0.52798 -0.59617,-0.82016c-1.11784,-1.65979 -2.29766,-4.41849 -3.00262,-5.88787c0,0 -0.4955,-1.72154 0.5236,-2.64181c1.01779,-0.91981 3.2283,-0.34859 3.98426,0.30393c0.75494,0.6541 4.51413,3.73663 5.2633,5.79422z" data-paper-data="{&quot;index&quot;:null}" fill="#be1e2d" stroke="#231f20" stroke-width="0.7887" stroke-linecap="round" stroke-linejoin="round"/><path d="M370.14767,260.0082c1.57777,-0.58115 3.58852,-0.24967 3.58852,-0.24967c0,0 1.24634,5.26186 1.64835,7.16831c0.4032,1.9101 1.61003,4.8568 1.61003,4.8568c0,0 0.52454,0.26656 0.43885,1.06385c-0.09056,0.79577 -1.81052,1.06882 -3.95077,1.63209c-2.13592,0.55831 -3.93179,0.33159 -4.32637,-0.41923c-0.3971,-0.74681 0.21834,-1.15072 0.21834,-1.15072c0,0 0.5668,-6.42725 -0.50412,-8.55093c0.0069,0.00522 -0.73574,-3.61077 1.27718,-4.35051v0v0z" fill="#be1e2d" stroke="#231f20" stroke-width="0.9025" stroke-linecap="round" stroke-linejoin="round"/><path d="M363.24381,261.0882v0v0c2.99604,1.12909 3.49091,3.77739 3.49402,3.78184c-0.41657,2.33569 1.79582,7.5406 1.79582,7.5406c0,0 0.70543,0.20443 0.54704,1.03393c-0.1629,0.83167 -1.81207,1.56932 -4.02304,1.65391c-2.20843,0.08068 -3.93276,0.31766 -4.25071,-0.42076c-0.31794,-0.73832 0.10842,-1.14401 0.10842,-1.14401c0,0 -0.07558,-1.82531 -0.24552,-3.77029c-0.17135,-1.93846 -0.86055,-7.24748 -0.86055,-7.24748c0,0 1.47106,-2.1686 3.43453,-1.42775z" fill="#be1e2d" stroke="#231f20" stroke-width="0.9025" stroke-linecap="round" stroke-linejoin="round"/><g stroke-width="0.9025"><path d="M373.92848,252.88223v0v0c0.63074,2.86708 0.31306,8.25081 -2.87617,10.35467c-3.15552,2.07726 -6.65431,2.07183 -10.43565,-0.14012c-3.133,-1.83429 -3.46744,-7.67678 -3.38202,-10.96597v0c0,0 -0.50516,-7.55743 5.78989,-8.93078c6.29311,-1.37321 9.6493,4.21893 10.39246,7.80214c0.19887,0.62689 0.37531,1.26654 0.51149,1.88007z" fill="#be1e2d" stroke="#000000" stroke-linecap="butt" stroke-linejoin="miter"/><path d="M371.92079,261.30576v0v0l-0.00641,0.14918c-0.43995,0.70782 -1.0007,1.32112 -1.69374,1.77905c-2.92299,1.92448 -6.13955,2.06223 -9.60332,0.31367l-0.04481,-0.14654c0,0 -2.42982,-9.48791 3.66734,-10.34338c6.92476,-0.96725 7.61283,6.63737 7.68094,8.24803z" fill="#e6e7e8" stroke="#231f20" stroke-linecap="round" stroke-linejoin="round"/></g><g stroke="#000000" stroke-width="0.9025" stroke-linecap="round" stroke-linejoin="round"><path d="M408.84786,219.43525l-0.44157,1.63959c-2.50466,8.30091 -6.5411,13.25869 -6.5411,13.25869c0,0 0.05592,-1.45471 -0.18922,-3.76862l-0.13915,-0.038c-0.30791,1.24867 -0.8434,2.86858 -1.78137,4.88878c-2.05314,4.43725 -8.70935,8.49877 -8.70935,8.49877c0,0 0.327,-1.49875 0.42877,-3.92106l-0.12244,-0.36097c-0.70932,0.62748 -1.44878,1.21207 -2.19676,1.7814c-0.22022,0.16872 -0.4407,0.33372 -0.66521,0.49434c-0.68308,0.49371 -1.38068,0.96781 -2.09514,1.41417c-0.28249,0.17491 -0.57783,0.33953 -0.86355,0.50813c-0.52298,0.30856 -1.05431,0.60277 -1.59468,0.88921c-0.39617,0.20801 -0.79704,0.41551 -1.2054,0.61048c-0.42248,0.20518 -0.85836,0.39366 -1.291,0.58835c-0.79605,0.34911 -1.60647,0.67953 -2.43612,0.98984c-0.27083,0.10114 -0.54157,0.20226 -0.81743,0.29816c-0.59252,0.20871 -1.19002,0.413 -1.80006,0.59951l0.00199,0.00173c-3.06151,0.94068 -6.33042,1.64425 -9.84984,2.10801c-3.80779,0.50061 -7.27798,0.70368 -10.53128,0.70367v0c-2.57415,-0.00053 -4.99354,-0.14085 -7.29292,-0.39898c-0.1112,-0.01185 -0.22341,-0.02467 -0.33548,-0.03563c-0.71122,-0.08516 -1.41167,-0.17768 -2.09995,-0.2832c-0.2404,-0.03944 -0.47067,-0.0823 -0.71018,-0.12368c-0.91497,-0.15047 -1.80638,-0.32425 -2.68672,-0.51454c-0.55655,-0.12037 -1.10954,-0.24462 -1.65117,-0.38003c-0.32156,-0.07671 -0.6444,-0.15997 -0.95985,-0.24281c-0.86167,-0.23191 -1.7164,-0.46991 -2.5474,-0.73194l-0.13114,0.14562c0.45744,2.16543 1.29324,3.28873 1.93466,3.80814c1.30743,1.05867 3.68982,1.16602 3.68982,1.16602c0,0 -7.15427,1.51356 -11.47622,-3.7897c-0.45927,-0.56483 -0.92366,-1.14983 -1.36944,-1.77551l-0.19829,-0.36222c-0.87444,-0.22626 -1.76657,-0.54591 -2.65512,-0.97517c-5.41996,-2.63949 -6.24659,-5.07018 -6.24659,-5.07018l0.17206,0.9c0.66626,2.33052 1.25984,3.79051 1.25984,3.79051c0,0 -6.51147,-3.51303 -9.70079,-9.23464c-2.57193,-4.61959 -2.95091,-7.49858 -2.99964,-7.9844l-0.33027,-1.72147c-0.60821,-6.79356 -0.71637,-14.45157 -0.30396,-22.02226l0.04383,-0.20422c0.42943,-5.86018 -1.04743,-15.4172 5.96678,-25.78759c13.14394,-19.4296 27.92629,-19.81452 35.79344,-34.04561c5.78841,-10.47031 3.32364,-21.84441 3.32364,-21.84441c0,0 4.36746,5.35243 6.18463,8.5476c1.75915,3.11494 3.68921,7.15349 3.68921,7.15349l0.05066,-0.03907c0.02789,-0.12352 0.05176,-0.24966 0.0711,-0.37537c0.29877,-1.958 -0.07086,-4.7964 -0.07086,-4.7964c0,0 4.56348,10.84543 11.1898,17.70296c6.62146,6.8531 15.60591,8.31958 28.50169,32.47313c1.60438,3.00134 3.07696,5.51892 3.96864,8.36027l0.42857,1.64176c1.33348,5.13049 1.94999,19.51874 0.33751,25.86534v0v0zM335.65534,199.99304c0,0 -6.70689,8.01244 -5.50327,18.42851c1.06499,9.21618 3.65975,11.90546 5.00073,12.53146c1.37815,0.63741 3.4062,0.06142 3.4062,0.06142c0,0 -5.60722,3.48815 -10.64388,-0.36516c-3.36894,-2.57552 -7.07434,-5.94238 -8.74947,-16.05057M396.97222,212.45943c0,0 1.07724,2.50953 -0.73841,8.0349c-2.04188,6.22588 -7.10858,8.4613 -7.10858,8.4613c0,0 3.66938,-9.62889 -0.56471,-18.14564c-1.84809,-3.7215 -6.92822,-6.23601 -12.1641,-7.89685c-7.09547,-2.25354 -14.47551,-2.93647 -14.47551,-2.93647M401.56034,230.42237c-0.30306,1.26326 -0.84428,2.92295 -1.81026,4.99651c-2.05222,4.43718 -8.70935,8.49877 -8.70935,8.49877c0,0 0.9502,-4.37264 0.11418,-10.24387M321.15999,221.99543c-0.61775,1.36569 -1.06499,2.81486 -1.26679,4.32553c-1.2711,9.42545 2.81544,19.42671 2.81544,19.42671c0,0 -6.50949,-3.51131 -9.70079,-9.23464c-2.82943,-5.08062 -3.00462,-8.05608 -3.00462,-8.05608M408.40205,221.08074c-2.50652,8.30104 -6.5411,13.25869 -6.5411,13.25869c0,0 0.32945,-8.26555 -3.91302,-16.78359c-0.19242,-0.38512 -0.40355,-0.75765 -0.62597,-1.1182M361.92183,199.9766c0,0 1.25899,0.24168 4.70138,2.61092c3.44249,2.36933 4.83945,5.11852 4.83945,5.11852c0,0 -9.80834,-1.86747 -15.27296,-3.4133c-5.46006,-1.54885 -23.77497,-5.19298 -23.77497,-5.19298M334.1108,240.7143c2.89647,3.9198 5.76804,5.96216 5.76804,5.96216c0,0 -6.25109,2.42259 -12.35538,-0.54728c-5.41996,-2.63949 -6.24659,-5.07018 -6.24659,-5.07018M391.34633,239.63846c-6.51632,5.77581 -14.68943,8.95317 -24.80467,10.28551c-12.06163,1.58934 -21.03755,0.43476 -28.81215,-2.00733M337.47675,247.38977c0.41149,2.60736 1.34953,3.90865 2.05416,4.47703c1.30836,1.05859 3.69074,1.16595 3.69074,1.16595c0,0 -7.15606,1.51462 -11.47715,-3.78964c-0.45927,-0.56483 -0.9236,-1.1489 -1.36944,-1.77551M362.64248,200.23884c0,0 26.60708,1.38258 27.60891,15.78237" fill="#be1e2d"/><path d="M395.85468,221.88725c-0.2635,10.42465 -11.4168,22.05767 -28.7684,24.28815c-15.3178,1.9786 -38.52946,-3.35731 -42.71363,-15.86423c-0.41675,-1.25724 -0.67686,-2.48131 -0.80695,-3.66583l0.35123,0.22162c1.2862,1.6279 2.66677,2.76937 3.99745,3.78516c5.03653,3.85144 10.64375,0.3633 10.64375,0.3633c0,0 -2.02791,0.57794 -3.40606,-0.05956c-1.34097,-0.626 -3.93577,-3.31435 -5.00073,-12.53146c-1.20374,-10.41791 5.50327,-18.42851 5.50327,-18.42851l0.00835,-0.24187c5.51454,1.1223 16.5038,3.39774 20.52396,4.5389c5.46564,1.54856 15.27296,3.4133 15.27296,3.4133c0,0 -1.39696,-2.7492 -4.83945,-5.11852c-1.7232,-1.18592 -2.89753,-1.83752 -3.64073,-2.19458l0.67848,0.05851c0,0 20.55079,1.59053 24.90421,10.35819c4.23421,8.51861 0.56656,18.14551 0.56656,18.14551c0,0 4.31431,-1.9053 6.58043,-7.08599l0.14531,0.01788v0v0z" fill="#e6e7e8"/></g><g stroke="#000000" stroke-width="0.9025" stroke-linecap="round" stroke-linejoin="miter"><path d="M401.72961,202.48268c0,0 8.64289,-11.14785 9.13047,-11.68217c0.4877,-0.53256 4.03155,-5.55236 15.08371,-7.95172c0,0 -4.95229,32.38446 -21.14771,40.84095c-0.00105,-0.00179 0.95325,-9.23595 -3.06647,-21.20706zM401.81175,202.73513c-0.31036,-0.99143 -1.16308,-2.72152 -1.16308,-2.72152M404.16565,226.18996c0,0 0.53495,-1.57406 0.62938,-2.50202" fill="#be1e2d"/><path d="M411.10504,218.21379c0,0 -1.76318,-1.16915 -2.25007,-5.3847c-0.30629,-2.61468 0.51334,-7.47863 0.51334,-7.47863l-0.08345,0.1592c0.67197,-0.89612 1.37396,-1.93746 1.99676,-3.06957c1.05566,-1.91521 2.24861,-4.76043 3.32889,-7.55843l0.17052,-0.38695c0,0 3.01353,-5.14012 9.92396,-6.24484l0.08319,0.03816c-1.12805,4.94904 -3.02302,12.22446 -5.33164,17.26508c-2.58863,5.6549 -5.74925,9.85019 -8.46927,12.7689l0.11778,-0.10821v0v0zM406.67306,208.43763c0,0 2.27387,-2.55466 2.69525,-3.08717" fill="#929497"/></g><g stroke="#000000" stroke-width="0.9025" stroke-linecap="round" stroke-linejoin="miter"><path d="M312.72961,230.09316c-17.20941,-6.1315 -26.59832,-37.5182 -26.59832,-37.5182c11.27893,0.84666 15.48376,5.32736 16.0395,5.78629c0.55582,0.45996 10.6601,10.30539 10.6601,10.30539c-2.32508,12.41347 -0.10129,21.42651 -0.10129,21.42651v0v0zM313.55784,206.07275c0,0 -0.6041,1.83145 -0.77501,2.85637M312.72961,230.09316c0.22295,0.90589 0.97071,2.39071 0.97071,2.39071" fill="#be1e2d"/><path d="M305.85404,225.63731c-3.09811,-2.51579 -6.80737,-6.23312 -10.15585,-11.4731c-2.98531,-4.67229 -5.86855,-11.61529 -7.67095,-16.36046l0.077,-0.0493c6.99792,0.13801 10.69321,4.81045 10.69321,4.81045l0.22236,0.35962c1.45731,2.62145 3.03277,5.27407 4.34347,7.02464c0.77358,1.03507 1.613,1.96907 2.40259,2.7635l-0.10365,-0.14618c0,0 1.48516,4.7036 1.5439,7.3355c0.10154,4.24236 -1.48182,5.64434 -1.48182,5.64434l0.12977,0.09099v0v0zM305.66213,212.56556c0.49095,0.46904 3.09666,2.68421 3.09666,2.68421" fill="#929497"/></g><path d="M348.32648,219.42356v0v0c0.77224,0.02133 1.3792,0.66348 1.35729,1.43683c-0.01998,0.77382 -0.65842,1.37984 -1.43492,1.36449c-0.04514,-0.00314 -4.54353,-0.08782 -8.35835,2.14758c-0.11754,0.06805 -0.23861,0.11866 -0.36435,0.15028c-0.58819,0.14795 -1.22856,-0.10273 -1.55031,-0.65115c-0.18898,-0.319 -0.22781,-0.68741 -0.14719,-1.02519c-0.31028,-0.15864 -0.62342,-0.38586 -0.88956,-0.74037c-0.31117,-0.41057 -0.22964,-0.99688 0.18276,-1.3084c0.40937,-0.30404 0.99519,-0.23209 1.30817,0.18186c0.24848,0.33006 0.72574,0.3226 0.7317,0.32301c0.14047,-0.00357 0.27245,0.02775 0.39295,0.08208c0.12713,-0.06087 0.25447,-0.12467 0.38086,-0.18045c-0.19219,-0.17491 -0.38094,-0.37852 -0.53136,-0.64762c-0.25057,-0.45277 -0.08659,-1.0174 0.36472,-1.26952c0.45436,-0.25577 1.01998,-0.08437 1.26863,0.36505c0.19946,0.36062 0.66391,0.42856 0.66806,0.42943c0.21318,0.0176 0.39211,0.11695 0.53851,0.25135c3.20346,-0.96644 5.92734,-0.91357 6.08237,-0.90928z" fill="#231f20" stroke="none" stroke-width="0.9025" stroke-linecap="butt" stroke-linejoin="miter"/><path d="M369.03512,217.41363c0.14524,-0.05439 2.7044,-0.98874 6.0481,-1.1147c0.09483,-0.17465 0.23182,-0.32671 0.42773,-0.41257c0.00364,-0.00217 0.42088,-0.21722 0.49245,-0.62306c0.08927,-0.5058 0.5686,-0.85155 1.08139,-0.75715c0.50872,0.09194 0.84713,0.57274 0.75713,1.08234c-0.0549,0.30336 -0.16733,0.55722 -0.29232,0.78505c0.13765,0.01172 0.27881,0.03073 0.41881,0.04702c0.09633,-0.09051 0.211,-0.16298 0.34502,-0.20521c0.0055,-0.00232 0.45933,-0.15022 0.58719,-0.54307c0.16163,-0.49314 0.69236,-0.75139 1.17826,-0.59672c0.4912,0.16075 0.75867,0.68883 0.59765,1.17819c-0.13663,0.42171 -0.35903,0.73829 -0.601,0.98907c0.18592,0.29331 0.2688,0.65437 0.19362,1.01744c-0.12627,0.62317 -0.65056,1.06818 -1.25493,1.11921c-0.12919,0.01092 -0.26014,0.00235 -0.3934,-0.02385c-4.33392,-0.87578 -8.56114,0.66478 -8.60282,0.6824c-0.72945,0.26662 -1.53006,-0.09929 -1.80019,-0.82471c-0.2718,-0.72434 0.0938,-1.52877 0.81728,-1.79966v0v0z" data-paper-data="{&quot;index&quot;:null}" fill="#231f20" stroke="none" stroke-width="0.9025" stroke-linecap="butt" stroke-linejoin="miter"/><path d="M365.13375,225.77792c0.58165,2.46312 -0.87245,4.74292 -3.24783,5.09209c-2.37537,0.34917 -4.77251,-1.36453 -5.35415,-3.82764c-0.32065,-1.35786 8.34098,-2.3697 8.60198,-1.26445z" fill="#6d6e70" stroke="#231f20" stroke-width="0.9025" stroke-linecap="butt" stroke-linejoin="miter"/></g></g></svg>