<svg version="1.1" xmlns="http://www.w3.org/2000/svg" xmlns:xlink="http://www.w3.org/1999/xlink" width="105.53315" height="94.97465" viewBox="0,0,105.53315,94.97465"><g transform="translate(-190.98482,-142.089)"><g data-paper-data="{&quot;isPaintingLayer&quot;:true}" stroke-miterlimit="10" stroke-dasharray="" stroke-dashoffset="0" style="mix-blend-mode: normal"><path d="M237.86342,203.77784c0.20351,0.66503 0.6105,1.90021 1.04854,3.54663c0.83185,3.12659 1.77573,7.73616 1.65078,12.74016l-0.03637,0.37888c-0.03637,0.37888 0.39763,0.70209 0.86798,0.64639c2.99321,-0.77065 8.87699,-2.05007 8.70351,3.25624c-0.10506,5.13172 -17.66021,9.5829 -19.94116,4.81697c-0.75672,-2.07465 0.52826,-3.35055 1.23812,-4.01728c0.37203,-0.37701 0.54308,-0.81348 0.61368,-1.27965c0.00861,-1.16638 -0.04257,-3.32457 -0.3653,-5.07603c-0.73949,-4.40742 -1.3017,-5.54783 -2.12469,-7.73947c-0.823,-2.19165 -2.96707,-7.30676 1.51425,-9.58547c3.80784,-1.99087 6.2065,0.47203 6.83068,2.31264z" fill="#000000" fill-rule="evenodd" stroke="#ff7b00" stroke-width="2" stroke-linecap="round" stroke-linejoin="round"/><path d="M231.8267,211.11825c-0.22075,0.66086 -0.60593,1.90131 -1.2088,3.50793c-1.14488,3.051 -3.0748,7.42245 -6.15453,11.65258l-0.25623,0.30823c-0.25623,0.30823 -0.0765,0.77964 0.35947,0.94279c3.02162,0.68184 8.82139,2.22383 5.52051,6.69113c-3.13856,4.34843 -20.8196,0.29062 -19.94204,-4.81422c0.58431,-2.11629 2.44291,-2.63305 3.44703,-2.88589c0.54262,-0.15614 0.94842,-0.45329 1.28584,-0.82095c0.7003,-0.99521 1.93855,-2.86672 2.7026,-4.51161c1.98488,-4.10668 2.1808,-5.33554 2.77785,-7.58175c0.59705,-2.24622 1.79927,-7.58877 6.99141,-7.53148c4.44428,0.00188 5.03571,3.18686 4.4769,5.04325z" fill="#000000" fill-rule="evenodd" stroke="#ff7b00" stroke-width="2" stroke-linecap="round" stroke-linejoin="round"/><g fill="#000000" fill-rule="evenodd" stroke="#ff7b00" stroke-width="2"><path d="M225.35329,205.92626c0.82617,0.40917 2.57905,1.32467 -0.15093,4.33259c-2.72998,3.00791 -10.08254,3.2999 -10.93059,3.25904c-3.2916,-0.0663 -7.31977,-0.26043 -11.69541,-1.76403c-12.71386,-4.30624 -12.10372,-16.37306 -7.85477,-18.10736c4.14295,-1.73942 5.50224,5.80543 11.06462,10.59803c2.42384,2.14825 5.45423,3.033 7.97099,3.61597c3.57134,0.72615 10.66936,-2.44059 11.59608,-1.93425z" stroke-linecap="round" stroke-linejoin="round"/><path d="M199.50699,197.20126c1.54847,2.56774 4.62687,6.22493 4.62687,6.22493c0,0 -3.87296,-1.01768 -6.19199,0.44028c-1.87314,1.11011 -1.56938,3.15617 -1.39565,3.8109c-1.30698,-1.26337 -2.90466,-3.00245 -3.77337,-6.27613c-0.86871,-3.27369 0.42094,-7.0897 2.57381,-7.53997c2.14196,-0.26612 2.58997,1.14053 4.16031,3.33998z" stroke-linecap="butt" stroke-linejoin="miter"/></g><path d="M247.98033,198.75959c0.40931,0.47277 4.79411,8.31154 7.32342,7.16766c3.01942,-1.31912 7.48927,-4.21522 10.32607,-0.43634c2.8368,3.77887 -5.62641,7.20394 -9.00265,7.87174c-7.91011,1.1703 -12.12177,-5.39232 -12.93615,-7.09827c-0.81442,-1.70595 -2.26587,-4.6021 -1.58369,-6.92297c0.83752,-2.47626 4.51812,-2.31424 5.87303,-0.58182z" fill="#000000" fill-rule="evenodd" stroke="#ff7b00" stroke-width="2" stroke-linecap="round" stroke-linejoin="round"/><g fill="#000000" fill-rule="evenodd" stroke="#ff7b00" stroke-width="2"><path d="M227.4661,211.18379c-10.04414,-6.65806 -3.23669,-10.6258 -1.02392,-15.31891c2.09414,-4.03016 3.35792,-3.41948 9.83537,-2.98479c3.64687,0.08154 5.7929,0.13489 8.09695,-0.20009c3.46267,-0.4567 3.4618,4.00407 2.84254,6.39238c0,0 -0.98812,3.54224 -2.10756,5.42552c-1.38284,2.28267 -2.44955,3.78871 -3.59517,4.74542c0,0 -2.46169,2.05675 -4.91378,2.39546c-2.20416,0.30445 -9.13442,-0.455 -9.13442,-0.455z" stroke-linecap="round" stroke-linejoin="round"/><path d="M240.5532,209.25137c0,0 -1.73768,-0.93261 -3.62016,-2.12882c-2.34321,-1.42659 -4.647,-2.57853 -2.94803,-5.63786c1.58035,-2.39635 2.9502,-5.51403 8.07124,-3.35703c4.88408,1.99604 3.21155,4.495 3.21155,4.495c-1.72556,4.36313 -4.71462,6.62869 -4.71462,6.62869z" stroke-linecap="butt" stroke-linejoin="miter"/></g><g><path d="M273.03592,150.95144c0.37085,-0.07956 0.83613,0.16374 0.7952,0.54205l-1.16999,10.09592c0,0 4.7498,6.08102 5.48828,9.53856c1.26418,5.773 -0.2224,9.70787 -0.2224,9.70787c0,0 6.36734,4.04481 5.55882,9.36507c-0.8085,5.32026 -9.02145,13.31108 -29.14672,10.63405c-20.12526,-2.67704 -33.44358,-11.82918 -36.5317,-23.94136c-3.08811,-12.1122 12.91956,-20.40268 12.03682,-19.89658c0,0 4.58459,-14.15341 4.91449,-13.85467l9.5997,8.12804c0,0 5.10435,-0.06563 9.88004,1.23253c2.8736,0.70326 5.2057,1.62822 7.36721,2.69538z" fill="#000000" fill-rule="evenodd" stroke="#ff7b00" stroke-width="2" stroke-linecap="butt" stroke-linejoin="miter"/><path d="M295.51797,187.80448c-6.04505,1.82466 -13.2882,-0.34303 -13.2882,-0.34303" fill="#000000" fill-rule="evenodd" stroke="#ff7b00" stroke-width="2" stroke-linecap="round" stroke-linejoin="round"/><path d="M290.26739,197.11298c-6.48324,-1.53893 -9.71753,-4.40825 -9.71753,-4.40825" fill="#000000" fill-rule="evenodd" stroke="#ff7b00" stroke-width="2" stroke-linecap="round" stroke-linejoin="round"/><path d="M259.75609,177.79235c2.1023,0.65755 4.23422,1.51989 4.0875,2.15844c-0.39354,1.24575 -2.88246,3.20496 -4.51949,2.7907c-1.8725,-0.39014 -5.19559,-3.87386 -4.63144,-5.26179c0.32302,-1.07226 3.06123,-0.31357 5.06343,0.31266z" fill="#000000" fill-rule="evenodd" stroke="#ff7b00" stroke-width="2" stroke-linecap="round" stroke-linejoin="round"/><path d="M215.23562,162.40078c0,0 7.62216,5.12172 10.03291,8.90675" fill="#000000" fill-rule="evenodd" stroke="#ff7b00" stroke-width="2" stroke-linecap="round" stroke-linejoin="round"/><path d="M224.33477,174.43757c-4.90414,0.12827 -11.9244,-3.14302 -11.9244,-3.14302" fill="#000000" fill-rule="evenodd" stroke="#ff7b00" stroke-width="2" stroke-linecap="round" stroke-linejoin="round"/><g fill="none" fill-rule="nonzero" stroke="none" stroke-width="1" stroke-linecap="butt" stroke-linejoin="miter" font-family="sans-serif" font-weight="normal" font-size="12" text-anchor="start"/><g fill="none" fill-rule="nonzero" stroke="none" stroke-width="1" stroke-linecap="butt" stroke-linejoin="miter" font-family="sans-serif" font-weight="normal" font-size="12" text-anchor="start"/></g><g fill="#000000" fill-rule="nonzero" stroke="#ff7b00" stroke-width="2" stroke-linejoin="miter"><g><path d="M254.67525,214.37523l9.72134,-18.59883l11.79425,6.6402l-14.63213,15.01341c0,0 -2.76528,0.33809 -3.87682,-0.1552c-1.17898,-0.52321 -3.00666,-2.89959 -3.00666,-2.89959z" stroke-linecap="butt"/><path d="M264.51739,194.33992c2.33541,-3.14187 7.16779,-4.03411 10.79337,-1.99288c3.62561,2.04122 4.67149,6.24294 2.33609,9.38479c-2.33541,3.14187 -7.16781,4.03412 -10.79338,1.99288c-3.62561,-2.04122 -4.67149,-6.24294 -2.33607,-9.38481z" stroke-linecap="butt"/><path d="M264.66987,201.32779c0,0 1.80126,-3.96867 3.01982,-5.64981c1.13889,-1.57118 4.06873,-4.12941 4.06873,-4.12941" stroke-linecap="round"/><path d="M270.86213,204.65756c0,0 2.12276,-4.97137 3.2133,-6.7946c0.80577,-1.34712 2.73818,-3.15532 2.73818,-3.15532" stroke-linecap="round"/><path d="M264.21289,194.6549c0,0 5.32632,0.23871 7.84715,1.05021c2.19308,0.70599 6.43196,3.54645 6.43196,3.54645" stroke-linecap="round"/><path d="M263.04312,199.62953c0,0 5.83689,0.58733 8.36623,1.15817c1.9662,0.44374 5.55045,1.98264 5.55045,1.98264" stroke-linecap="round"/></g><path d="M268.2731,213.4684c-1.55025,2.09942 -4.8989,2.91274 -7.47947,1.81657c-2.58057,-1.09616 -4.04906,-3.19956 -2.4988,-5.299c1.55025,-2.09942 5.53219,-3.39986 8.11274,-2.30368c2.58057,1.09616 3.41577,3.6867 1.86552,5.78612z" stroke-linecap="butt"/></g><g fill="#000000" fill-rule="nonzero" stroke="#ff7b00" stroke-width="2" stroke-linecap="butt" stroke-linejoin="miter"><path d="M243.74679,159.12032c-2.92299,3.35269 -25.65077,4.20898 -25.65077,4.20898c0,0 -2.83386,-1.00531 -4.14344,-1.54054c-9.80782,-4.00846 -15.42368,-9.09259 -12.84502,-12.05035c2.92299,-3.35269 15.26807,-2.70362 27.57351,1.44974c12.30546,4.15335 17.9887,4.57947 15.0657,7.93215z"/><path d="M229.90005,150.50696l-10.51168,-6.84995c0,0 16.73322,-1.09812 25.32506,-0.24067c10.39132,1.03705 32.65716,6.02726 32.65716,6.02726l-20.24983,11.17369z"/><path d="M215.24887,163.37809c0,0 -0.37611,-7.28537 0.29105,-10.56134c0.64723,-3.17816 3.65393,-8.81002 3.65393,-8.81002l27.6903,4.43813c0,0 -2.09122,6.84407 -2.7674,10.16445c-0.63638,3.12488 -1.17756,9.2069 -1.17756,9.2069z" data-paper-data="{&quot;index&quot;:null}"/><path d="M242.51367,167.6871c0,0 1.18156,-6.02362 1.36092,-9.19623c0.19058,-3.3711 -0.24901,-10.47107 -0.24901,-10.47107l34.38497,1.69891c0,0 1.89657,6.12142 1.71415,9.34813c-0.18804,3.32603 -2.82609,10.31912 -2.82609,10.31912z"/></g><path d="M226.49893,202.53613c-1.61587,3.53932 -0.76314,7.40914 -2.80843,8.92679c-1.33484,0.99047 -3.15971,1.46623 -4.17065,1.115c-1.12674,-0.39147 -2.54495,-2.20156 -2.65095,-4.00802c-0.13487,-2.29774 -1.13536,-5.97993 0.35966,-9.25464c1.31882,-2.88866 5.13257,-5.1609 6.82561,-6.78647c1.73516,-1.66604 3.84052,-1.58297 5.13622,-1.1328c1.39887,0.48602 2.53179,1.76109 2.35955,4.29515c-0.14296,2.10331 -3.8398,4.19205 -5.051,6.84499z" fill="#000000" fill-rule="nonzero" stroke="#ff7b00" stroke-width="2" stroke-linecap="butt" stroke-linejoin="miter"/><path d="M248.72828,173.61508c0,0 -3.00972,0.58145 -4.46665,0.2217c-1.67563,-0.41375 -5.02312,-2.56497 -5.02312,-2.56497" fill="#000000" fill-rule="nonzero" stroke="#ff7b00" stroke-width="2" stroke-linecap="round" stroke-linejoin="miter"/><path d="M274.6744,176.98165c0,0 -2.94667,0.8208 -4.43,0.57903c-1.70599,-0.27804 -5.23167,-2.15373 -5.23167,-2.15373" fill="#000000" fill-rule="nonzero" stroke="#ff7b00" stroke-width="2" stroke-linecap="round" stroke-linejoin="miter"/></g></g></svg>