<svg version="1.1" xmlns="http://www.w3.org/2000/svg" xmlns:xlink="http://www.w3.org/1999/xlink" width="188.39292" height="95.37617" viewBox="0,0,188.39292,95.37617"><g transform="translate(-259.41248,-308.8986)"><g data-paper-data="{&quot;isPaintingLayer&quot;:true}" fill="#000000" fill-rule="nonzero" stroke="none" stroke-width="0.5" stroke-linecap="butt" stroke-linejoin="miter" stroke-miterlimit="10" stroke-dasharray="" stroke-dashoffset="0" style="mix-blend-mode: normal"><path d="M369.20609,393.72073c-0.48267,0.65325 -0.78577,1.48948 -1.448,1.95975c-1.11172,0.78947 -4.5416,1.09818 -3.83317,3.5624c0.64629,2.2481 5.72847,1.25712 7.32509,1.25712c6.57457,0 12.86045,0.07601 19.35566,-0.99404c6.44381,-0.01453 11.52343,-1.09237 17.60316,-2.92018c3.28871,-0.98872 6.63599,-1.50869 9.82428,-2.9322c2.15328,-0.9614 3.91198,-2.45587 5.9648,-3.48372c2.42762,-1.21551 5.09859,-1.6516 7.60587,-2.54617c2.48015,-0.88489 5.12394,-3.63133 7.10039,-5.28047c0.8554,-0.71344 1.77598,-1.35531 2.5662,-2.14033c1.82389,-1.81187 3.96679,-4.75242 2.48427,-7.54383c-0.21767,-0.40985 -3.11095,-1.75601 -3.28726,-1.84381c-3.42368,-1.70489 -6.81528,-3.34167 -10.30193,-4.90275c-5.80821,-2.60051 -13.29993,-8.22271 -19.84372,-6.99233c-1.48135,6.43632 -3.49007,13.40989 -7.69351,18.40826c-2.84393,3.38177 -6.35321,5.4424 -10.16905,7.0637l-0.54898,1.91127c0,0 -0.5534,1.6602 -2.21359,1.1068c-0.93411,-0.31137 -1.16745,-0.97312 -1.19288,-1.4924c-1.14962,0.41146 -2.31469,0.8111 -3.48659,1.22016c-5.37083,1.87472 -10.69876,3.8193 -16.18051,5.19048zM422.37641,358.44817c5.24809,2.32935 10.57281,4.58076 15.66953,7.21047c2.41584,1.24648 7.30033,2.72242 8.69942,5.1823c3.30594,5.81254 -1.8201,10.8441 -5.7971,14.18817c-2.3101,1.92323 -5.18342,4.76048 -8.05204,5.8472c-2.41105,0.91338 -5.04399,1.28063 -7.39413,2.45383c-2.05543,1.02608 -3.8641,2.55531 -6.0352,3.51628c-3.3142,1.46692 -6.7628,2.04623 -10.17572,3.0678c-6.31858,1.8913 -11.69212,3.09679 -18.39684,3.07982c-5.78027,0.97561 -11.29413,1.00596 -17.14434,1.00596c-2.58707,0 -6.4086,0.64835 -8.90207,-0.04681c-3.09606,-0.86316 -5.12649,-3.40531 -4.27284,-6.71031c0.63026,-2.44013 2.7377,-3.0318 4.29918,-4.03779c-1.45498,0.27709 -2.92368,0.50449 -4.40961,0.67072c-9.66095,1.07344 -19.51107,1.62419 -29.21466,1.62419l-2.0534,-0.5898c0,0 -1.6602,-0.5534 -1.1068,-2.21359c0.11902,-0.35705 0.28923,-0.61172 0.48311,-0.79152c-3.14201,-0.66754 -6.2548,-0.85619 -9.0308,-2.53488l0.20788,0.1298c0,0 -1.75,0 -1.75,-1.75c0,-0.19123 0.0209,-0.36157 0.05812,-0.51329c-6.39264,-1.88625 -12.52725,-4.66509 -18.10153,-7.91623c-2.59965,-1.51622 -4.58366,-2.55026 -6.71131,-4.60479c-2.90417,-0.75056 -5.54267,-1.78358 -8.58887,-2.81944c-2.75274,-0.93607 -6.01629,-1.4433 -8.42965,-3.22658c-3.23624,-2.39132 -6.24064,-5.2873 -8.83011,-8.31019c-3.18956,-3.72343 -8.81962,-9.37454 -7.87974,-14.85221c0.55296,-3.22263 1.31002,-4.25879 2.71626,-7.13004c0.50271,-0.75731 2.41699,-3.83002 3.14844,-3.83801c3.05168,-0.03335 6.53877,3.97925 8.57428,5.94258c1.26513,1.22027 2.49801,2.47636 3.71712,3.74601c0.04178,-2.04826 0.32399,-4.05704 0.8976,-5.96987c1.41136,-4.70642 4.48543,-8.95955 7.80518,-12.4623c3.18865,-3.36442 6.60365,-5.61119 10.72209,-7.67614c5.80417,-2.90209 11.86666,-5.89766 18.18015,-7.55466c4.62442,-1.21369 9.52791,-0.95097 14.26893,-1.27836c10.97129,-0.75763 22.04788,-0.34878 32.97867,0.73536c11.16297,2.47293 22.43021,6.53112 32.01754,12.83138c5.78959,3.8046 11.84609,8.55897 14.34699,15.28652c1.9844,5.33814 1.94451,11.5385 2.08654,17.18152c4.19672,-0.33469 7.37107,1.3388 11.39973,3.12691zM389.51256,380.98744c-0.09685,-0.29056 -0.46201,0.45367 -0.76256,0.51256c-1.2487,0.2447 -2.52306,0.33308 -3.78618,0.48689c-1.67744,0.20426 -3.38543,-0.13248 -5.06948,0.00715c-9.04103,0.74963 -18.75111,4.60268 -26.85104,9.0884c2.35277,-0.19718 4.69932,-0.42572 7.03485,-0.68523c8.26072,-0.91123 15.98345,-3.84249 23.78593,-6.56387c1.92499,-0.6714 3.84851,-1.30362 5.71141,-2.01932c0.03636,-0.2794 0.02745,-0.55546 -0.06292,-0.82659zM348.34963,389.74939c9.06546,-5.43927 20.57897,-10.34964 31.25603,-11.24342c2.72356,-0.22799 6.44268,-0.75349 9.14434,-0.50596c1.08803,0.09969 2.51456,-0.3067 3.23744,0.51256c0.25442,0.28834 0.3854,1.12506 0.45181,2.09292c2.77296,-1.30071 5.32459,-2.9583 7.43253,-5.43391c4.44819,-5.22406 6.16479,-13.08808 7.63583,-19.58453c-0.19424,-5.27352 -0.03308,-11.19849 -1.89775,-16.22678c-2.22116,-5.98961 -7.85408,-10.21001 -12.98839,-13.58179c-9.17497,-6.02535 -19.96881,-9.91926 -30.64709,-12.30031c-10.67084,-1.03115 -21.47751,-1.44164 -32.18595,-0.70001c-4.47592,0.30999 -9.20603,-0.00292 -13.56645,1.15701c-6.10056,1.62282 -11.94472,4.50778 -17.55886,7.31485c-3.75747,1.87316 -6.84412,3.88601 -9.74618,6.95241c-2.94533,3.11213 -5.71281,6.86049 -6.98754,11.03965c-0.84774,2.77928 -0.95598,5.82319 -0.55592,8.88256c4.772,5.02407 9.62274,9.9065 15.68594,13.28244c-0.38037,-1.48225 -0.57925,-3.03176 -0.55345,-4.51271c0.02051,-1.17755 -0.39055,-2.86305 0.61288,-3.47963c3.45464,-2.12275 7.87378,2.15804 10.50953,3.82169c0.86206,0.54412 2.11517,0.70244 2.61027,1.59356c0.57851,1.04126 0.30375,2.37418 0.2554,3.56437c-0.11539,2.84025 -1.29726,10.29272 -3.64901,12.22073c-0.38259,0.31365 -0.83859,0.54639 -1.34502,0.71662c0,0.63944 0,1.27887 0,1.91831v1.12901c10.5681,5.48138 22.97757,9.11803 34.94441,7.70919c-0.23774,-0.11242 -0.45978,-0.23863 -0.66242,-0.3803c-2.86504,-2.00306 -5.20681,-6.72026 -5.69146,-10.32536c-2.37538,0.1561 -4.82001,0.08429 -5.71989,-1.05557c-0.43935,-0.55651 -0.37064,-4.4269 -0.37064,-5.57697v-0.5c0,0 0,-1.08138 0.85006,-1.54402c-0.02466,-1.94736 0.18169,-3.98335 1.32297,-4.83534c0.96057,-0.71708 2.3799,-0.30795 3.57697,-0.37064c0.7365,-0.03857 6.41057,-0.08061 7.07697,0.37064c2.17694,1.47411 0.1148,4.52825 3.39016,5.19286c2.58201,0.52392 5.7745,-0.33245 8.38098,-0.5569c6.64686,-0.57236 12.75421,-2.11891 19.1727,-3.93972c5.67255,-1.61702 10.84836,-4.40818 16.37202,-6.45818c1.11639,-0.41433 5.51801,-1.337 6.1401,-0.77133c1.18034,1.07329 1.18441,6.71106 1.21608,8.36096c0.02405,1.25295 0.53373,6.57346 -0.28805,7.51503c-0.82093,0.9406 -5.04459,2.58081 -6.72917,2.77122c-6.55329,0.74071 -13.6376,0.01542 -20.2318,0.01542c-5.76484,0 -11.48386,0.334 -17.19697,0.61598l0.15306,0.1633c1.92286,2.88429 5.75281,7.7367 2.28135,11.20816c-1.2635,1.2635 -4.19406,1.01125 -5.73744,1.01256c-0.52128,0.00044 -1.12454,0.00478 -1.7681,-0.00595c0.26885,1.64046 -1.3887,1.97197 -1.3887,1.97197c-1.4054,0.27651 -2.81772,0.48559 -4.23396,0.63142c0.47534,0.14646 0.99583,0.51367 1.12317,1.40507c0.04432,0.31021 0.02515,0.57281 -0.03619,0.7949c2.01365,-0.07959 4.02847,-0.18248 6.04151,-0.30844c-0.20441,-1.0998 0.8619,-1.73958 0.8619,-1.73958zM300.68456,375.70197c0.33076,0.1883 0.67451,0.38463 1.0345,0.59466c0.09347,0.05453 0.18711,0.10894 0.28094,0.16321c0,-0.23536 0,-0.47358 0,-0.71025c-0.43924,-0.00524 -0.88049,-0.02333 -1.31544,-0.04762zM341.71801,382.7921c1.27494,0.94578 4.56685,0.70644 6.03199,0.7079c1.08753,0.00108 2.49356,0.78156 3.26256,0.01256c1.64097,-1.64097 -1.93623,-5.61821 -2.71865,-6.79184l-0.28135,-0.23329c0,0 -0.77261,-0.77261 -0.48636,-1.70734c-2.92302,0.12497 -5.84664,0.21551 -8.77621,0.21991c-0.32614,0.00049 -0.737,0.02821 -1.20651,0.06958c0.3197,2.58822 2.27685,6.31479 4.17452,7.72252z"/></g></g></svg>