<svg version="1.1" xmlns="http://www.w3.org/2000/svg" xmlns:xlink="http://www.w3.org/1999/xlink" width="106.19189" height="126.23314" viewBox="0,0,106.19189,126.23314"><defs><radialGradient cx="270.78614" cy="184.99454" r="6.30877" gradientUnits="userSpaceOnUse" id="color-1"><stop offset="0" stop-color="#54606d"/><stop offset="1" stop-color="#2c3136"/></radialGradient></defs><g transform="translate(-203.54615,-112.17481)"><g data-paper-data="{&quot;isPaintingLayer&quot;:true}" stroke-miterlimit="10" stroke-dasharray="" stroke-dashoffset="0" style="mix-blend-mode: normal"><path d="M258.92544,189.86561c0.64406,0.29897 7.52069,5.71939 11.53417,4.31693c4.7908,-1.6371 11.89072,-4.81473 16.3503,-2.34117c4.45959,2.47356 -8.9664,6.84453 -14.3167,8.02982c-12.53178,2.46177 -19.14484,-1.97188 -20.42,-3.17852c-1.27517,-1.20663 -3.54896,-3.24181 -2.44987,-5.22877c1.34627,-2.14116 7.17154,-2.72179 9.3021,-1.59829z" fill="#ff0000" fill-rule="evenodd" stroke="#001026" stroke-width="1.2" stroke-linecap="round" stroke-linejoin="round"/><g fill-rule="evenodd"><path d="M234.82265,198.51532c0.75754,0.57958 2.36442,1.86178 -0.17406,4.77746c-2.53849,2.91568 -9.31212,2.11588 -10.09278,1.94103c-3.03083,-0.57636 -6.73895,-1.40689 -10.7565,-3.74142c-11.67386,-6.71378 -11.01432,-19.99062 -7.08724,-21.26308c3.8295,-1.29431 5.02025,7.27308 10.10408,13.43314c2.21483,2.75058 4.99847,4.19387 7.31155,5.22433c3.28312,1.35021 9.8456,-1.0741 10.69494,-0.37147z" fill="#ffab19" stroke="#001026" stroke-width="1.2" stroke-linecap="round" stroke-linejoin="round"/><path d="M211.09037,184.89915c1.40526,3.08164 4.21069,7.60414 4.21069,7.60414c0,0 -3.55853,-1.71933 -5.70601,-0.45819c-1.73404,0.94382 -1.47086,3.25728 -1.31615,4.00927c-1.19343,-1.59951 -2.65072,-3.77051 -3.42426,-7.53048c-0.77354,-3.75997 0.44503,-7.7911 2.43136,-7.96107c1.97477,0.03239 2.37598,1.65942 3.80436,4.33633z" fill="#ffffff" stroke="none" stroke-width="1" stroke-linecap="butt" stroke-linejoin="miter"/></g><g><path d="M250.52006,201.12644c-0.12512,0.74123 -0.33159,2.12186 -0.70015,3.94804c-0.6999,3.46796 -1.98432,8.54265 -4.40615,13.89627l-0.20742,0.40172c-0.20742,0.40172 0.03127,0.80723 0.4774,0.81099c3.03113,-0.42268 8.88074,-1.00085 6.27597,4.67064c-2.46301,5.49336 -20.20884,7.89868 -20.04732,2.47552c0.28142,-2.32883 2.01898,-3.52456 2.96126,-4.14422c0.50657,-0.35436 0.86096,-0.79968 1.13927,-1.29046c0.54617,-1.25065 1.49677,-3.57381 2.01689,-5.49714c1.37377,-4.83012 1.39774,-6.13001 1.67393,-8.59336c0.2762,-2.46336 0.72125,-8.24277 5.77867,-10.0829c4.32257,-1.6222 5.3295,1.34515 5.03765,3.4049z" fill="#513726" fill-rule="evenodd" stroke="#001026" stroke-width="1.2" stroke-linecap="round" stroke-linejoin="round"/><path d="M231.19513,207.77317c0.70359,-2.07791 3.17516,-5.19867 6.80156,-3.92706c4.27102,1.42871 1.91501,7.2924 0.99916,9.78397c-0.91584,2.49157 -0.72351,3.8172 -1.66922,8.62844c-0.40407,1.91821 -1.36286,4.20645 -1.41318,5.43523c0.02539,0.26525 -2.0177,10.54547 -10.47926,10.10014c-7.47063,-0.39318 2.09885,-12.24891 2.09885,-12.24891c0,0 1.48568,-10.32156 2.45728,-13.8015c0.51162,-1.83249 0.97216,-3.22433 1.20482,-3.9703z" data-paper-data="{&quot;index&quot;:null}" fill="#513726" fill-rule="evenodd" stroke="#001026" stroke-width="1.2" stroke-linecap="round" stroke-linejoin="round"/><g fill-rule="evenodd"><path d="M235.84826,207.58094c-9.58016,-4.68629 -2.76175,-10.43431 -0.41482,-15.88427c2.20533,-4.72489 3.41945,-4.37419 9.74577,-5.41311c3.56806,-0.75666 5.66749,-1.19628 7.93659,-2.08106c3.40833,-1.28052 3.23629,3.41396 2.53823,6.07035c0,0 -1.10355,3.95593 -2.27203,6.1964c-1.44174,2.72162 -2.54412,4.55291 -3.70266,5.82436c0,0 -2.48952,2.73309 -4.90372,3.65599c-2.1701,0.82958 -8.92737,1.63134 -8.92737,1.63134z" fill="#ff0000" stroke="#001026" stroke-width="1.2" stroke-linecap="round" stroke-linejoin="round"/><path d="M248.73788,202.52409c0,0 -1.66584,-0.58001 -3.46333,-1.40396c-2.23984,-0.95996 -4.45159,-1.64 -2.67048,-5.25196c1.63952,-2.88688 3.10056,-6.48421 8.03254,-5.39731c4.70612,0.97225 2.9724,3.9884 2.9724,3.9884c-1.85718,4.99017 -4.87114,8.06482 -4.87114,8.06482z" fill="#ffffff" stroke="none" stroke-width="1" stroke-linecap="butt" stroke-linejoin="miter"/></g><path d="M249.67935,202.29361c0,0 -2.48952,2.73309 -4.90372,3.65599c-2.16873,0.82906 -8.91885,1.63033 -8.92736,1.63134c-6.64659,-3.25129 -5.39988,-7.01363 -3.22938,-10.83293c0.21398,0.07002 0.40623,0.12928 0.57154,0.17751c5.771,1.68358 11.52915,2.68832 16.96032,4.81643c-0.15676,0.19484 -0.31355,0.37845 -0.47139,0.55167z" fill="#513726" fill-rule="nonzero" stroke="#001026" stroke-width="1.2" stroke-linecap="butt" stroke-linejoin="miter"/></g><path d="M235.84826,207.58094v0c-0.00001,0 -0.00001,0 -0.00001,0z" fill="#513726" fill-rule="nonzero" stroke="#001026" stroke-width="1.2" stroke-linecap="butt" stroke-linejoin="miter"/><g fill-rule="nonzero" stroke="none" stroke-width="0.5" stroke-linecap="butt" stroke-linejoin="miter"><path d="M237.8788,194.21684c-0.00208,-0.00098 -0.00415,-0.00196 -0.00619,-0.00296c-2.03692,3.16773 -2.80528,6.37779 -3.77973,9.77951c-1.47004,2.56352 -3.95721,3.93093 -6.24646,3.58395c-0.60473,-0.09166 -1.31215,-0.55751 -2.06942,-0.28665c-1.80689,0.64631 -3.27434,2.51285 -4.9044,3.5331c-2.41981,0.99711 -2.38149,-0.61403 -4.08219,-0.85825c-1.12636,-0.16175 -1.99498,0.79659 -2.56662,-0.39512c-0.38114,-0.79458 0.09139,-1.96983 -0.38208,-2.79434c-0.35564,-0.61933 -1.8952,-0.30141 -2.63362,-0.34992c-2.86882,-0.99126 1.47141,-4.01172 3.40234,-4.86102c0.53606,-0.23578 4.02051,-0.8688 4.1556,-1.07493c1.11588,-1.70276 0.57781,-3.23618 3.14803,-3.63486c1.32007,0.08223 4.24606,2.32632 5.7597,1.39639c1.60791,-0.98784 2.9815,-4.65349 3.64236,-6.13811c0.98,-1.16374 1.99148,-2.6067 3.31866,-3.38766c4.52646,-2.66358 5.39194,1.12872 4.42903,4.61269l-0.30347,0.51076c0,0 -0.42141,0.58401 -0.88152,0.36739z" fill="#ff0000"/><path d="M236.95488,194.60122c0.566,0.02991 0.30343,0.65208 0.30343,0.65208l-0.13496,0.31506c-0.57072,1.13455 -0.90543,2.17673 -1.30738,3.3078c-0.22926,1.96105 -1.02929,6.70816 -3.42295,8.09067c-2.02697,1.17072 -3.54786,0.52794 -5.08181,0.18864c0,0 -0.00563,-0.00127 -0.01534,-0.00422l-0.67675,0.25259c-0.723,0.1825 -1.05012,0.46968 -1.74242,0.96454c-1.42931,0.93595 -3.06269,2.74444 -4.67466,3.03237c-1.08245,0.19335 -1.299,-0.85351 -2.19994,-0.9059c-1.37371,-0.07987 -2.19015,0.73998 -3.21241,-0.31615c-0.64826,-0.66972 -0.15842,-2.25728 -0.9845,-2.55693c-1.10976,-0.16252 -4.18622,-0.50513 -3.54564,-2.45242c0.74706,-2.271 5.25278,-5.08257 7.49696,-5.35433c0.03694,-0.30276 0.15917,-0.63812 0.38978,-1.00941c1.67244,-2.69276 4.99904,-2.29712 6.75656,-1.30822c1.15748,-0.53775 2.10153,-0.48772 3.01401,-0.20024c0.7252,-1.15881 1.56865,-2.2539 2.20648,-3.42671c0,0 0.25179,-0.45302 0.65544,-0.50438c0.51757,-1.09685 1.19215,-2.24861 1.79548,-3.33416c3.27191,-6.36623 9.75495,-3.41568 7.02709,2.21954c0,0 -0.30867,0.61755 -0.8509,0.53607c-0.54223,-0.08148 -0.23357,-0.69902 -0.23357,-0.69902c2.17704,-4.15903 -2.6006,-6.59398 -4.87676,-1.85742c-0.71383,1.28434 -1.75973,2.92726 -2.13337,4.13077l-0.28807,0.42575c0,0 -0.33168,0.36916 -0.66602,0.32786c-0.55379,0.85324 -1.15538,1.68261 -1.68314,2.55509c0.02768,0.01246 0.05539,0.02502 0.08313,0.03767l0.36512,0.27381c0,0 0.38882,0.305 -0.09915,0.84811c-0.39444,0.43902 -0.72411,0.32387 -0.83598,0.26361c-0.05708,0.18744 -0.20187,0.44526 -0.56847,0.5931c-0.62367,0.25149 -0.64194,-0.31837 -0.64194,-0.31837l0.06315,-0.85932c-0.4326,-0.15021 -0.87337,-0.23423 -1.36311,-0.16699c0.05093,0.15019 0.06942,0.43442 -0.29854,0.76212c-0.54525,0.48558 -0.84856,0.09544 -0.84856,0.09544c-0.07961,-0.1034 -0.16211,-0.20239 -0.24815,-0.29612c-0.01345,0.00867 -0.02694,0.01747 -0.04047,0.02637c0,0 -0.59747,0.391 -0.77725,-0.09389c-0.07452,-0.20099 -0.0155,-0.38584 0.07916,-0.53341c-0.4592,-0.26035 -1.01128,-0.38705 -1.70495,-0.31533c-2.64999,0.27396 -3.86295,2.04134 -1.52395,2.92824c0.37001,0.1403 0.80285,0.17712 1.20345,0.26717l0.40199,0.01485c0,0 0.566,0.02991 0.30343,0.65208c-0.26257,0.62218 -0.82856,0.59227 -0.82856,0.59227l-0.55679,-0.03582c-0.80251,-0.18039 -2.23994,-0.58048 -2.91689,-1.40245c-0.21003,0.08141 -0.38106,0.04296 -0.38106,0.04296c-1.43473,-0.3756 -5.30982,2.4081 -6.28451,4.0189c-0.55111,0.91078 2.72276,1.29049 3.08487,1.34586c1.21716,0.61284 0.4534,1.9215 1.29095,2.73513c0.90333,0.87754 1.39512,0.03887 2.6876,0.1034c0.59338,0.02963 1.3324,1.09358 1.92682,0.92838c1.40792,-0.39127 2.7735,-1.92714 4.04134,-2.75629c0.81392,-0.58179 1.33833,-0.94819 2.20836,-1.1971l0.72215,-0.27122c0,0 0.22298,-0.08348 0.40208,-0.02725c0.10595,-0.01017 0.17637,0.00567 0.17637,0.00567c1.21112,0.27606 2.47508,0.94403 4.1018,0.02749c1.67971,-0.94639 2.35452,-5.57021 2.50949,-6.89577c0.43402,-1.25241 0.81402,-2.40628 1.43645,-3.65844l0.08744,-0.21193c0,0 0.26256,-0.62217 0.82856,-0.59227z" fill="#001026"/></g><g><g fill-rule="evenodd"><path d="M276.35799,133.22897c0.30271,-0.19588 0.80129,-0.08906 0.89582,0.31227l2.45352,10.73453c0,0 6.33517,4.78703 8.18989,8.11269c3.12453,5.54322 3.16302,10.04417 3.16302,10.04417c0,0 7.07064,2.19684 8.19262,7.91271c1.12199,5.71587 -3.42521,16.45472 -22.27402,19.89744c-18.84881,3.44272 -33.8777,-1.86318 -40.82123,-13.35915c-6.94353,-11.49597 4.44129,-24.94163 3.83041,-24.14991c0,0 -0.81756,-15.95481 -0.42033,-15.74937l11.36283,5.39795c0,0 4.52281,-1.63834 9.22511,-1.77409c2.80247,-0.16171 5.19951,0.07107 7.49383,0.50246z" fill="#ffab19" stroke="#001026" stroke-width="1.2" stroke-linecap="butt" stroke-linejoin="miter"/><path d="M290.7548,162.82849c0,0 6.87476,1.89413 7.99674,7.61c1.12199,5.71587 -3.81834,15.9493 -22.4658,19.29476c-24.26607,4.66879 -35.5682,-9.88703 -28.72395,-20.39447c6.84561,-10.60743 18.22017,-1.35111 26.62758,-1.83625c7.20616,-0.40155 8.09219,-6.69003 16.56543,-4.67404z" fill="#ffffff" stroke="none" stroke-width="1" stroke-linecap="butt" stroke-linejoin="miter"/><path d="M309.13804,164.17986c-4.7515,3.73541 -11.95219,3.737 -11.95219,3.737" fill="none" stroke="#001026" stroke-width="1.2" stroke-linecap="round" stroke-linejoin="round"/><path d="M307.6851,175.36105c-6.30625,0.41385 -10.17991,-1.53927 -10.17991,-1.53927" fill="none" stroke="#001026" stroke-width="1.2" stroke-linecap="round" stroke-linejoin="round"/><path d="M273.82494,164.89731c2.0998,0.0287 4.29687,0.25875 4.38729,0.96005c0.08086,1.40124 -1.45727,4.18047 -3.05849,4.2586c-1.80257,0.17538 -5.96801,-2.38179 -5.94614,-3.98164c-0.08359,-1.20125 2.61752,-1.26434 4.61734,-1.23701z" fill="#001026" stroke="#001026" stroke-width="1.2" stroke-linecap="round" stroke-linejoin="round"/><path d="M228.84964,162.78243c0,0 8.56093,2.91727 12.01823,6.06482" fill="none" stroke="#001026" stroke-width="1.2" stroke-linecap="round" stroke-linejoin="round"/><path d="M241.12002,172.35103c-4.32283,1.64107 -11.70711,0.44004 -11.70711,0.44004" fill="none" stroke="#001026" stroke-width="1.2" stroke-linecap="round" stroke-linejoin="round"/><g><path d="M285.78374,153.35967c2.83823,4.53921 2.86852,9.6401 0.04418,11.40167c-2.82434,1.76156 -7.39521,-0.40111 -10.33343,-4.94169c-2.83823,-4.53921 -2.86852,-9.6401 -0.04418,-11.40167c2.82571,-1.86156 7.4952,0.40247 10.33343,4.94169z" fill="#ffffff" stroke="#001026" stroke-width="1.2" stroke-linecap="round" stroke-linejoin="round"/><path d="M287.05581,158.86392c-0.01503,1.0999 -0.82726,1.98888 -1.82717,1.97521c-0.99991,-0.01367 -1.78753,-0.92452 -1.7725,-2.02441c0.01503,-1.0999 0.82726,-1.98888 1.82717,-1.97521c0.99991,0.01367 1.78753,0.92452 1.7725,2.02441" fill="#001026" stroke="none" stroke-width="1" stroke-linecap="butt" stroke-linejoin="miter"/></g><g><path d="M260.94779,155.82046c2.93959,4.44059 2.6658,9.83735 -0.05991,11.70027c-3.32566,1.85472 -7.70611,0.39472 -10.6457,-4.04587c-3.03958,-4.44196 -3.16166,-10.14416 -0.03188,-12.30158c3.13114,-2.25742 7.7979,0.20659 10.73749,4.64718z" fill="#ffffff" stroke="#001026" stroke-width="1.2" stroke-linecap="round" stroke-linejoin="round"/><path d="M262.16853,161.61855c-0.01503,1.0999 -0.82726,1.98888 -1.82717,1.97521c-0.99991,-0.01367 -1.78753,-0.92452 -1.7725,-2.02441c0.01503,-1.0999 0.82726,-1.98888 1.82717,-1.97521c0.99854,0.11366 1.78753,0.92452 1.7725,2.02441" fill="#001026" stroke="none" stroke-width="1" stroke-linecap="butt" stroke-linejoin="miter"/></g></g><path d="M281.67633,186.52009c0.02333,-0.66574 0.33874,-1.2707 0.83413,-1.71872c-0.00162,-0.05005 -0.00157,-0.10049 0.00021,-0.15128c0.02974,-0.84886 0.53435,-1.59891 1.28144,-2.05079c-0.0313,-0.16131 -0.04485,-0.32825 -0.03886,-0.4992c0.01737,-0.49567 0.19665,-0.95765 0.49158,-1.34625c-0.15094,-0.31506 -0.22889,-0.66509 -0.21597,-1.03375c0.0245,-0.69916 0.37114,-1.33129 0.91009,-1.785c-0.50715,-0.45371 -0.80949,-1.08584 -0.78499,-1.785c0.00745,-0.21264 0.0447,-0.41908 0.10809,-0.61619c-0.05521,-0.10831 -0.10169,-0.22096 -0.1387,-0.33726c-0.59447,-0.1112 -1.11342,-0.38979 -1.49336,-0.77783c-0.28192,0.09014 -0.58305,0.14256 -0.89526,0.15028c-0.4262,0.21676 -0.91783,0.34099 -1.43792,0.34099c-0.11732,0 -0.23275,-0.00632 -0.34589,-0.0186c-0.52331,0.4326 -1.22339,0.6986 -1.98438,0.6986c-0.33741,0 -0.65918,-0.05229 -0.95582,-0.14821c-0.30336,0.09592 -0.6288,0.14821 -0.96621,0.14821c-0.69816,0 -1.32936,-0.22388 -1.80952,-0.59491c-0.38132,0.16324 -0.80707,0.25491 -1.25382,0.25491c-0.79709,0 -1.5069,-0.29183 -2.00429,-0.76128c-0.37913,0.16097 -0.80187,0.25128 -1.2453,0.25128c-0.09733,0 -0.19335,-0.00435 -0.28786,-0.01285c-0.09509,0.0085 -0.19143,0.01285 -0.28876,0.01285c-0.37557,0 -0.73177,-0.06479 -1.0555,-0.18242c-0.09354,0.00822 -0.18828,0.01242 -0.28397,0.01242c-0.37375,0 -0.72831,-0.06417 -1.05078,-0.18071c-0.33064,0.11655 -0.6897,0.18071 -1.06345,0.18071c-0.7688,0 -1.4564,-0.27148 -1.95054,-0.71197c-0.41787,0.22419 -0.90222,0.35826 -1.41664,0.37098c-0.04681,0.02381 -0.0944,0.04649 -0.14274,0.06803c-0.53216,0.48213 -1.27256,0.78297 -2.08186,0.78297c-0.15429,0 -0.30531,-0.01093 -0.45215,-0.03197c-0.23077,0.32556 -0.54113,0.60331 -0.90556,0.81135c0.5316,0.45594 0.85081,1.10297 0.82566,1.82063c-0.00114,0.03258 -0.00298,0.06501 -0.00551,0.09729c0.23268,0.37058 0.3584,0.8021 0.34225,1.26271c-0.01565,0.44643 -0.16262,0.86551 -0.40714,1.22828c0.67186,0.45601 1.09146,1.18289 1.06277,2.00172c-0.01565,0.44643 -0.16263,0.86551 -0.40715,1.22828c0.67186,0.45601 1.09146,1.18288 1.06277,2.00171c-0.02198,0.62724 -0.30324,1.20052 -0.75,1.63943c0.30138,0.40342 0.46905,0.8929 0.45056,1.42057c-0.04838,1.38071 -1.35308,2.5 -2.91413,2.5c-1.56105,0 -2.7873,-1.11929 -2.73891,-2.5c0.02198,-0.62724 0.30323,-1.20052 0.75,-1.63942c-0.30138,-0.40342 -0.46905,-0.89291 -0.45056,-1.42058c0.01565,-0.44643 0.16262,-0.86551 0.40714,-1.22828c-0.67186,-0.45601 -1.09146,-1.18288 -1.06277,-2.00171c0.01565,-0.44643 0.16263,-0.86552 0.40715,-1.22829c-0.67186,-0.45601 -1.09146,-1.18288 -1.06277,-2.00171c0.00114,-0.03258 0.00299,-0.06501 0.00551,-0.09729c-0.23268,-0.37058 -0.3584,-0.8021 -0.34226,-1.26271c0.00736,-0.20996 0.04377,-0.41386 0.10571,-0.60871c-0.62178,-0.45838 -1.00482,-1.15774 -0.97736,-1.94129c0.03372,-0.96207 0.67741,-1.79722 1.59277,-2.21522c0.42855,-0.95954 1.49303,-1.64478 2.71445,-1.64478c0.15429,0 0.30531,0.01093 0.45215,0.03197c0.28626,-0.40383 0.69496,-0.73409 1.17742,-0.949c0.51445,-0.46608 1.2235,-0.76275 2.00128,-0.78198c0.4262,-0.21676 0.91783,-0.34099 1.43792,-0.34099c0.7688,0 1.4564,0.27148 1.95054,0.71197c0.43963,-0.23585 0.95283,-0.37197 1.49721,-0.37197c0.37375,0 0.72832,0.06417 1.05079,0.18071c0.33064,-0.11655 0.6897,-0.18071 1.06345,-0.18071c0.37557,0 0.73176,0.06479 1.0555,0.18242c0.09354,-0.00822 0.18828,-0.01242 0.28397,-0.01242c0.09733,0 0.19335,0.00435 0.28786,0.01284c0.09509,-0.0085 0.19142,-0.01284 0.28875,-0.01284c0.79709,0 1.5069,0.29182 2.00429,0.76127c0.37913,-0.16097 0.80187,-0.25127 1.2453,-0.25127c0.69816,0 1.32936,0.22388 1.80952,0.59491c0.38132,-0.16324 0.80707,-0.25491 1.25383,-0.25491c0.33741,0 0.65919,0.05229 0.95583,0.14821c0.30336,-0.09592 0.6288,-0.14821 0.96621,-0.14821c0.11732,0 0.23275,0.00632 0.34589,0.0186c0.50478,-0.41729 1.17405,-0.67956 1.9038,-0.69761c0.4262,-0.21676 0.91783,-0.34099 1.43792,-0.34099c0.83599,0 1.57597,0.32102 2.07558,0.83128c0.3061,-0.09787 0.63486,-0.15127 0.97584,-0.15127c1.26704,0 2.31353,0.73739 2.6369,1.75344c1.27244,0.23802 2.19886,1.24296 2.15668,2.44655c-0.00745,0.21264 -0.0447,0.41908 -0.10809,0.61619c0.16712,0.32787 0.25433,0.69551 0.24072,1.08382c-0.0245,0.69916 -0.37115,1.33129 -0.9101,1.785c0.50715,0.45371 0.80949,1.08584 0.78499,1.785c-0.01737,0.49567 -0.19665,0.95765 -0.49158,1.34625c0.15094,0.31506 0.2289,0.66509 0.21598,1.03375c-0.02974,0.84886 -0.53436,1.59891 -1.28145,2.05079c0.0313,0.16131 0.04485,0.32825 0.03886,0.4992c-0.02333,0.66574 -0.33874,1.27071 -0.83414,1.71872c0.00162,0.05005 0.00157,0.10048 -0.00021,0.15128c-0.04838,1.38071 -1.35309,2.5 -2.91413,2.5c-1.56104,0 -2.7873,-1.11929 -2.73891,-2.5z" fill="#ffffff" fill-rule="nonzero" stroke="#001026" stroke-width="1.2" stroke-linecap="butt" stroke-linejoin="miter"/><g fill-rule="nonzero" stroke-linecap="butt" stroke-linejoin="miter"><g><path d="M218.16762,154.90981c-0.35655,-3.09157 2.22725,-6.15665 5.77109,-6.84606c3.54384,-0.68941 6.70574,1.25792 7.0623,4.34949c0.35655,3.09157 -2.22725,6.15665 -5.77109,6.84606c-3.54384,0.68941 -6.70574,-1.25792 -7.06229,-4.34948z" fill="#ffffff" stroke="#001026" stroke-width="1.2"/><path d="M238.63953,118.01407c0.52832,0.98315 -0.64832,1.57403 -0.64832,1.57403l-0.74176,0.3285c-2.33465,1.92369 -4.06426,4.57974 -5.65592,6.99391c-1.168,7.91437 -7.69485,14.90522 -6.68328,23.04756c0,0 0.12912,1.11955 -1.15422,1.36921c-1.28334,0.24965 -1.41246,-0.86989 -1.41246,-0.86989c-0.92397,-8.53817 5.37663,-15.78905 6.82143,-24.05833c1.75266,-2.82192 3.77196,-5.82648 6.44585,-8.06854l1.32372,-0.70873c0,0 1.17665,-0.59088 1.70497,0.39228z" fill="#001026" stroke="none" stroke-width="0.5"/></g><g stroke="#001026" stroke-width="1.2"><path d="M242.39959,157.11516c-1.50967,-0.82939 -3.70423,-1.11422 -4.80089,-2.27199c-0.16725,-0.17657 -0.30897,-0.37344 -0.41882,-0.59564c-0.20961,-0.42398 -0.34089,-0.91723 -0.41105,-1.46016c-0.02602,-0.17571 -0.04254,-0.35464 -0.04917,-0.53638c-0.18569,-3.24521 1.41361,-7.88399 1.66564,-10.35275c0.18684,-1.83017 0.27857,-4.18555 -0.07309,-5.91682c-1.01292,-4.98671 -6.33035,-18.8914 1.01795,-22.41154c6.16028,-2.95103 11.25902,3.05799 14.43063,5.8776c5.27733,4.69164 12.48678,11.33068 19.85384,13.62156c3.35823,1.04428 8.6335,4.09293 7.17436,8.12316c-4.289,11.84645 -19.85182,2.54531 -28.9988,5.38447c-3.73043,1.1579 -0.36836,6.21648 -3.49459,7.71407z" fill="#ff0000"/><path d="M286.38652,141.82424c3.53649,0 6.06022,2.56777 5.63691,5.73526c-0.42331,3.1675 -3.63336,5.73527 -7.16985,5.73527c-2.51005,0 -4.50992,-1.29352 -5.30801,-3.17692c-0.68126,0.20197 -1.39818,0.31163 -2.12903,0.31163c-2.69199,0 -4.79715,-1.48784 -5.46235,-3.5955c-1.28669,1.93758 -3.67072,3.27713 -6.22504,3.27713c-2.27906,0 -4.13752,-1.06641 -5.05768,-2.67249c-1.341,1.24508 -3.20292,2.03576 -5.16536,2.03576c-0.6251,0 -1.21856,-0.08023 -1.76969,-0.2298c-0.00513,0.1789 -0.01976,0.36019 -0.04426,0.54349c-0.42331,3.1675 -3.63336,5.73526 -7.16985,5.73526c-0.02803,0 -0.05598,-0.00016 -0.08388,-0.00048c-0.87194,2.71083 -3.78094,4.77597 -6.95248,4.77597c-3.53649,0 -6.06021,-2.56777 -5.6369,-5.73526c0.42331,-3.1675 3.63336,-5.73526 7.16985,-5.73526c0.02803,0 0.05599,0.00016 0.08388,0.00048c0.87194,-2.71082 3.78094,-4.77596 6.95247,-4.77596c0.6251,0 1.21856,0.08023 1.76969,0.22981c0.00513,-0.1789 0.01976,-0.36019 0.04426,-0.54349c0.42331,-3.1675 3.63336,-5.73526 7.16985,-5.73526c2.27906,0 4.13752,1.06641 5.05768,2.67249c1.341,-1.24508 3.20292,-2.03576 5.16535,-2.03576c2.69199,0 4.79716,1.48784 5.46235,3.59551c1.28669,-1.93758 3.67072,-3.27714 6.22504,-3.27714c2.51005,0 4.50991,1.29352 5.308,3.17692c0.68126,-0.20197 1.39817,-0.31163 2.12903,-0.31163z" fill="#ffffff"/></g></g></g><g fill-rule="nonzero" stroke="none" stroke-width="0.5" stroke-linecap="butt" stroke-linejoin="miter"><path d="M274.39499,179.16061c1.01882,0.00808 1.94623,-0.0144 2.66748,-0.0144c0,0 0.6,0 0.6,0.6c0,0.6 -0.6,0.6 -0.6,0.6c-1.0723,0 -2.09406,-0.01657 -3.09214,-0.07429l-0.31601,0.158c-3.08099,1.48773 -4.53042,6.42419 -7.6228,7.25131c-5.74592,1.39616 -4.81721,-5.70936 -2.8618,-8.8387c0.9082,-1.45343 0.20681,-2.83249 2.35641,-2.50553c1.2179,2.2444 4.87752,2.72378 8.01279,2.80898l0.16697,-0.08349c0,0 0.40675,-0.20338 0.68908,0.09811zM271.9379,180.08671c-1.38112,-0.17772 -2.75185,-0.47113 -4.1878,-0.94943c-1.07136,-0.35686 -2.43547,-0.73508 -2.95524,-1.822c-0.06923,0.39572 -1.03748,2.88446 -1.11463,3.28392c-0.45006,2.33021 -2.34412,7.05854 2.06025,5.91789c1.31542,-0.29503 1.95331,-2.07417 2.78048,-3.04633c1.02223,-1.20141 2.12777,-2.44943 3.41694,-3.38404z" fill="#001026"/><path d="M268.55108,183.51065c-0.82717,0.97216 -1.51256,2.75828 -2.82798,3.05331c-4.40437,1.14065 -2.53972,-3.65217 -2.08967,-5.98238c0.07715,-0.39945 1.06782,-2.91424 1.13705,-3.30996c0.51977,1.08692 1.91409,1.45913 2.98545,1.816c1.43595,0.47831 2.84688,0.80187 4.228,0.97959c-1.28917,0.93461 -2.41062,2.24203 -3.43286,3.44345z" data-paper-data="{&quot;noHover&quot;:false,&quot;origItem&quot;:[&quot;Path&quot;,{&quot;applyMatrix&quot;:true,&quot;segments&quot;:[[[512.92341,357.31627],[-2.57834,1.86921],[-2.76224,-0.35543]],[[504.54781,355.4174],[2.8719,0.95662],[-2.14272,-0.71373]],[[498.63733,351.77339],[1.03954,2.17384],[-0.13847,0.79144]],[[496.40807,358.34122],[0.1543,-0.79891],[-0.90011,4.66041]],[[500.52857,370.177],[-8.80874,2.28129],[2.63084,-0.59006]],[[506.08953,364.08434],[-1.65434,1.94432],[2.04447,-2.40283]]],&quot;closed&quot;:true}]}" fill="#ffffff"/></g><g fill-rule="nonzero" stroke="#001026" stroke-width="1.2" stroke-linejoin="miter"><g><path d="M291.98202,198.66431l-20.10784,-5.39483l5.44708,-10.25806l17.00129,9.77031c0,0 0.65919,2.1642 0.28124,3.11411c-0.40088,1.00755 -2.62178,2.76848 -2.62178,2.76848z" fill="#505a63" stroke-linecap="butt"/><path d="M270.39262,193.35568c-3.47542,-1.46464 -4.93539,-5.20828 -3.26095,-8.36164c1.67445,-3.15337 5.84927,-4.52235 9.32467,-3.05772c3.47542,1.46464 4.9354,5.20829 3.26094,8.36165c-1.67445,3.15337 -5.84926,4.52234 -9.32469,3.05771z" fill="url(#color-1)" stroke-linecap="butt"/><path d="M277.51577,192.3456c0,0 -4.25969,-0.93317 -6.11577,-1.69208c-1.7347,-0.70929 -4.68117,-2.72257 -4.68117,-2.72257" fill="none" stroke-linecap="round"/><path d="M280.21571,186.97977c0,0 -5.32076,-1.06231 -7.30753,-1.70096c-1.46794,-0.47189 -3.53487,-1.7844 -3.53487,-1.7844" fill="none" stroke-linecap="round"/><path d="M270.74902,193.5587c0,0 -0.36036,-4.28168 0.18286,-6.39691c0.47259,-1.84022 2.89416,-5.58469 2.89416,-5.58469" fill="none" stroke-linecap="round"/><path d="M275.96497,193.85995c0,0 -0.06205,-4.73353 0.23428,-6.82497c0.23036,-1.62579 1.39621,-4.68229 1.39621,-4.68229" fill="none" stroke-linecap="round"/></g><path d="M289.51265,187.92614c2.32114,0.97047 3.53213,3.53988 2.7048,5.73898c-0.82732,2.19909 -2.81006,3.63863 -5.13121,2.66816c-2.32114,-0.97047 -4.10174,-3.98342 -3.27441,-6.18251c0.82732,-2.19909 3.37966,-3.19507 5.70082,-2.22462z" fill="#ffab19" stroke-linecap="butt"/></g></g></g></svg>