<svg version="1.1" xmlns="http://www.w3.org/2000/svg" xmlns:xlink="http://www.w3.org/1999/xlink" width="72.10568" height="104.24154" viewBox="0,0,72.10568,104.24154"><defs><radialGradient cx="265.94045" cy="175.99021" r="7.3567" gradientUnits="userSpaceOnUse" id="color-1"><stop offset="0" stop-color="#54606d"/><stop offset="1" stop-color="#2c3136"/></radialGradient></defs><g transform="translate(-208.02718,-135.99329)"><g data-paper-data="{&quot;isPaintingLayer&quot;:true}" fill-rule="nonzero" stroke-linejoin="miter" stroke-miterlimit="10" stroke-dasharray="" stroke-dashoffset="0" style="mix-blend-mode: normal"><g stroke="none" stroke-width="0.5" stroke-linecap="butt"><path d="M239.92711,201.18466c4.86188,5.2845 13.03641,5.88771 15.16606,-2.06957c0.28297,-3.02156 -3.0694,-3.78904 -5.69998,-3.73856c-0.86934,0.01669 -0.61359,1.04545 -1.0694,1.6943c-1.34118,1.90908 -3.62932,1.62322 -5.24789,0.41166c-1.33926,0.70633 -2.93163,1.16463 -4.45545,1.27328c0.71689,0.76273 1.03691,1.41161 1.30668,2.4289zM249.21702,193.88692c3.65837,-0.71624 7.70601,1.74448 7.3529,5.49124c-2.44619,9.32617 -12.37706,9.01229 -17.9572,2.52927c-0.27949,-0.90789 -0.42386,-1.46703 -1.09541,-2.13529l-0.33026,-1.01349c0,0 -0.0007,-0.00336 -0.00177,-0.00964c-0.86586,-0.07554 -1.6702,-0.28801 -2.34406,-0.6592c-2.40433,-1.32441 -1.83015,-6.39417 -0.65769,-8.92308c0.38413,-2.03275 2.60651,-3.83528 4.82866,-2.73226c1.51693,0.75296 1.55194,2.84048 2.3352,4.17408c1.21644,2.07112 2.66641,2.65134 4.85623,3.60517c-0.26515,0.9157 -0.93057,1.7472 -1.83073,2.44219c2.27561,1.5943 2.83108,-2.37486 4.8441,-2.76898zM235.10188,191.95493c-0.00539,0.22004 -0.00889,0.44957 -0.01705,0.69259c-0.03051,0.90913 -0.60221,2.29838 -0.46231,3.18687c0.15361,0.97562 1.6994,1.09262 2.38361,1.15637c2.10959,0.19655 3.79945,-0.33775 5.53957,-1.08183c0.16485,-0.15119 0.32761,-0.20466 0.47362,-0.2066c0.59559,-0.26424 1.20189,-0.54726 1.83733,-0.82862c-2.47238,0.2329 -4.42414,-2.40516 -5.23613,-4.47554c-0.2373,-0.60506 -0.6237,-2.35255 -1.25955,-2.61246c-0.87094,-0.356 -1.85733,0.13445 -2.41221,0.85387c0.02286,0.17826 -0.01579,0.32417 -0.01579,0.32417l-0.13551,0.36139c-0.11446,0.16999 -0.20961,0.33508 -0.28882,0.49731c0.00955,0.40172 0.20039,0.78237 0.64351,1.0618c0,0 0.60185,0.44752 0.15434,1.04937c-0.44752,0.60185 -1.04937,0.15434 -1.04937,0.15434c-0.05384,-0.04351 -0.10557,-0.08787 -0.15524,-0.13303z" fill="#000000"/><path d="M235.30609,192.09803c0,0 0.50507,0.42282 0.95258,-0.17904c0.44752,-0.60185 -0.15002,-1.0594 -0.15002,-1.0594c-0.44313,-0.27944 -0.631,-0.6647 -0.64055,-1.06643c0.07921,-0.16223 0.17755,-0.33129 0.29201,-0.50129l0.13765,-0.36366c0,0 0.04009,-0.1473 0.01724,-0.32556c0.55487,-0.71941 1.56023,-1.22074 2.43118,-0.86473c0.63586,0.25991 1.03009,2.00563 1.2674,2.6107c0.81199,2.07037 2.81753,4.77541 5.28992,4.54251c-0.63543,0.28136 -1.25092,0.57979 -1.84651,0.84403c-0.14599,0.00194 -0.31306,0.05977 -0.47791,0.21096c-1.74012,0.74408 -3.49362,1.28096 -5.6032,1.08441c-0.68421,-0.06375 -2.24416,-0.19761 -2.39777,-1.17323c-0.13989,-0.88849 0.42641,-2.30489 0.45692,-3.21401c0.00816,-0.243 0.01271,-0.47937 0.0181,-0.69941c0.04967,0.04516 0.19914,0.11063 0.25298,0.15413z" data-paper-data="{&quot;noHover&quot;:false,&quot;origItem&quot;:[&quot;Path&quot;,{&quot;applyMatrix&quot;:true,&quot;selected&quot;:true,&quot;segments&quot;:[[[235.10618,192.13453],[0.05114,0.04349],[0.0019,0.2201],7],[[235.11209,192.82729],[0.0001,-0.24314],[-0.00037,0.90964],7],[[234.75562,196.02773],[-0.16925,-0.88337],[0.18585,0.96999],7],[[237.17624,197.10449],[-0.68595,-0.04105],[2.11494,0.12655],7],[[242.67691,195.83971],[-1.71451,0.80133],[0.15975,-0.15657],7],[[243.14342,195.61752],[-0.14585,0.00678],[0.58651,-0.28383],7],[[244.95229,194.72849],[-0.62576,0.30226],[-2.46331,0.31469],7],[[239.57075,190.42889],[0.88014,2.04233],[-0.25722,-0.59687],7],[[238.22533,187.85961],[0.64412,0.2387],[-0.88226,-0.32695],7],[[235.84273,188.79292],[0.53073,-0.7374],[0.02875,0.1774],7],[[235.8377,189.11744],[0,0],[0,0],7],[[235.71424,189.48313],[0,0],[-0.10876,0.17369],7],[[235.44206,189.98973],[0.07379,-0.16477],[0.02285,0.40118],7],[[236.1204,191.02963],[-0.45215,-0.2646],[0,0],7],[[236.30942,192.07331],[0.42733,-0.61635],[-0.42733,0.61635],7],[[235.26574,192.26234],[0,0],[-0.05525,-0.0417],7]],&quot;closed&quot;:true}]}" fill="#0032ff"/><path d="M238.57072,198.75031c1.52383,-0.10865 3.12301,-0.58722 4.46228,-1.29355c1.61857,1.21156 3.97666,1.4811 5.31783,-0.42798c0.45583,-0.64883 0.19992,-1.67771 1.06926,-1.69439c2.63058,-0.05048 6.00594,0.75603 5.72297,3.77759c-2.12964,7.95729 -10.40281,7.36834 -15.26469,2.08384c-0.26977,-1.01729 -0.59075,-1.68279 -1.30764,-2.44552z" data-paper-data="{&quot;noHover&quot;:false,&quot;origItem&quot;:[&quot;Path&quot;,{&quot;applyMatrix&quot;:true,&quot;selected&quot;:true,&quot;segments&quot;:[[[240.23457,201.19932],[-0.30333,-1.00779],[5.0343,5.12051],7],[[255.32372,198.62839],[-1.86482,8.02348],[0.1827,-3.02928],7],[[249.503,195.08075],[2.62746,-0.13761],[-0.86831,0.04548],7],[[248.49032,196.80954],[0.43408,-0.66358],[-1.27719,1.95247],7],[[243.25895,197.39485],[1.65782,1.15727],[-1.31512,0.75032],7],[[238.84813,198.81506],[1.51939,-0.15908],[0.74177,0.73856],7]],&quot;closed&quot;:true}]}" fill="#fff1e2"/></g><g stroke="#001026" stroke-width="1.2"><path d="M251.72652,199.69088l4.6696,-21.68653l12.37566,4.64059l-10.01101,18.88463c0,0 -2.4662,0.92023 -3.60209,0.62331c-1.20481,-0.31493 -3.43217,-2.462 -3.43217,-2.462z" fill="#505a63" stroke-linecap="butt"/><path d="M256.17719,176.4574c1.42653,-3.80433 5.66699,-5.73191 9.47131,-4.30538c3.80433,1.42653 5.73191,5.667 4.30538,9.47131c-1.42653,3.80433 -5.667,5.73192 -9.47132,4.30538c-3.80433,-1.42653 -5.7319,-5.667 -4.30537,-9.47133z" fill="url(#color-1)" stroke-linecap="butt"/><path d="M257.92304,183.83218c0,0 0.74516,-4.57204 1.4799,-6.60132c0.6867,-1.89657 2.79416,-5.20315 2.79416,-5.20315" fill="none" stroke-linecap="round"/><path d="M264.3846,186.10275c0,0 0.81054,-5.70004 1.39485,-7.85391c0.43174,-1.59141 1.79395,-3.90044 1.79395,-3.90044" fill="none" stroke-linecap="round"/><path d="M255.96942,176.8531c0,0 4.95472,-0.82937 7.46017,-0.4816c2.17971,0.30255 6.73184,2.4515 6.73184,2.4515" fill="none" stroke-linecap="round"/><path d="M256.03632,182.36291c0,0 5.50452,-0.56365 7.96252,-0.47267c1.91074,0.07073 5.56161,0.9733 5.56161,0.9733" fill="none" stroke-linecap="round"/></g><g stroke="none" stroke-width="0.5" stroke-linecap="butt"><path d="M255.56964,198.64866c-0.07586,0.5227 -0.46642,0.62388 -0.69079,0.63799c-0.07822,0.48699 0.01804,1.05115 0.33947,1.65656c0.61566,1.15954 2.2665,0.7791 3.24099,0.50728c-1.33416,-0.87932 -2.14385,-2.4926 -1.83816,-3.81929c-0.44341,0.0888 -0.82766,0.27428 -1.12362,0.53586c0.06663,0.11938 0.10191,0.27619 0.07209,0.48159zM252.2328,193.88434l-0.00671,-0.02479c0,0 0.04024,-0.27723 0.24095,-0.46824c0.51964,-2.61946 3.84025,-3.15635 5.86052,-1.07972c2.8585,-1.94566 9.27997,0.34168 7.57621,4.47746c-0.32941,0.79963 -0.9281,1.26872 -1.64295,1.4851c0.53451,1.69328 -0.93397,3.59173 -3.39208,3.8105c-0.06802,0.00605 -0.13571,0.01013 -0.20302,0.0123c-0.45679,0.32774 -1.00956,0.55395 -1.53513,0.72207c-1.66552,0.53278 -4.10996,0.7497 -5.20501,-1.11502c-0.57556,-0.9801 -0.70278,-1.94511 -0.50447,-2.79187c-1.88987,-0.86335 -1.89146,-2.8068 -1.18832,-5.02779zM261.07557,200.37662c0.09208,0.05329 0.16355,0.11209 0.21838,0.17375c1.16102,-0.228 1.98316,-1.28355 1.3373,-2.16792c-1.15031,-0.14474 -2.31772,-0.69615 -3.05133,-1.42508c-0.24978,0.32361 -0.70153,0.25804 -0.70153,0.25804l0.13801,-0.03417c-2.42517,0.34987 -0.09121,2.93064 1.11216,3.30623c0.0133,0.00415 0.02661,0.00818 0.03992,0.01208c0.15825,-0.16512 0.47094,-0.37533 0.90707,-0.12292zM255.03488,196.72055c-0.12822,-0.0936 -0.25554,-0.19635 -0.38142,-0.30859l-0.06976,-1.36101c0,0 0.00167,-0.75 0.75168,-0.74832c0.75,0.00167 0.74832,0.75168 0.74832,0.75168l-0.0744,0.71603c0.27815,0.16498 0.53153,0.27552 0.75831,0.33896c0.17551,-0.02243 0.35477,-0.03489 0.53701,-0.03677l0.12691,0.08205c0.76997,-0.15739 0.9104,-1.16668 0.23248,-2.27264c-0.0595,-0.06415 -0.10133,-0.13043 -0.12953,-0.19662c-1.34054,-1.88223 -4.27462,-1.57277 -3.54867,1.18705c0,0 0.17563,0.72915 -0.55351,0.90478c-0.0558,0.01344 -0.10835,0.02158 -0.15784,0.02516c-0.12364,0.80198 0.01824,1.43933 0.79476,1.77785c0.26447,-0.33434 0.59133,-0.62505 0.96566,-0.85958zM262.49955,196.41256c0.31563,0.16045 0.58807,0.33846 0.81974,0.52952c0.56972,-0.02523 1.0418,-0.24473 1.2114,-0.75691c0.83631,-2.52576 -3.7981,-4.04265 -5.36744,-2.71456c0.16766,0.31542 0.28702,0.62028 0.36334,0.91149c0.09916,-0.03036 0.2178,-0.04081 0.3596,-0.02023c0.74222,0.10773 0.6345,0.84995 0.6345,0.84995l-0.15582,0.32951c0.14373,0.37829 0.63741,0.76028 1.2396,1.02999c0.35419,-0.43073 0.89509,-0.15877 0.89509,-0.15877z" fill="#000000"/><path d="M255.46577,198.12846c0.29596,-0.26157 0.70852,-0.45833 1.15193,-0.54714c-0.30569,1.32669 0.5423,3.0257 1.87646,3.90502c-0.9745,0.27182 -2.69924,0.64762 -3.3149,-0.51192c-0.32145,-0.60541 -0.42744,-1.21166 -0.34922,-1.69865c0.22437,-0.01412 0.6263,-0.13756 0.70217,-0.66026c0.02981,-0.2054 0.00019,-0.36767 -0.06644,-0.48705z" data-paper-data="{&quot;noHover&quot;:false,&quot;origItem&quot;:[&quot;Path&quot;,{&quot;applyMatrix&quot;:true,&quot;selected&quot;:true,&quot;segments&quot;:[[[254.46427,197.47825],[0,-0.20755],[0,0.52818],7],[[253.87228,198.20884],[0.22002,-0.0462],[-0.00746,0.49318],7],[[254.44617,199.79946],[-0.40507,-0.55296],[0.77583,1.05909],7],[[257.72642,199.83596],[-0.92535,0.40897],[-1.44663,-0.67857],7],[[255.35874,196.32031],[-0.11196,1.35684],[-0.42606,0.15157],7],[[254.32375,197.012],[0.25532,-0.30137],[0.08309,0.10857],7]],&quot;closed&quot;:true}]}" fill="#fff1e2"/><path d="M261.59713,196.62079c-0.60219,-0.26971 -1.13452,-0.68151 -1.27824,-1.0598l0.15307,-0.33796c0,0 0.10827,-0.76676 -0.63396,-0.87449c-0.1418,-0.02058 -0.26104,-0.00779 -0.36019,0.02258c-0.07632,-0.2912 -0.19101,-0.60863 -0.35867,-0.92405c1.56934,-1.32809 6.29299,0.23388 5.45667,2.75965c-0.1696,0.51218 -0.65755,0.7507 -1.22729,0.77593c-0.23167,-0.19107 -0.5136,-0.3637 -0.82923,-0.52416c0,0 -0.56798,-0.26844 -0.92217,0.1623z" data-paper-data="{&quot;noHover&quot;:false,&quot;origItem&quot;:[&quot;Path&quot;,{&quot;applyMatrix&quot;:true,&quot;selected&quot;:true,&quot;segments&quot;:[[[261.00115,194.26996],[0,0],[0.3354,0.11345],7],[[261.88845,194.67626],[-0.25671,-0.15581],[0.56019,-0.1068],7],[[262.97857,193.75319],[-0.09427,0.53123],[0.46485,-2.61969],7],[[257.27688,191.83774],[1.36231,-1.53973],[0.21123,0.28807],7],[[257.76737,192.68758],[-0.11736,-0.27722],[0.09377,-0.04429],7],[[258.12034,192.61592],[-0.14329,0],[0.75,0],7],[[258.87034,193.36592],[0,0],[0,0],7],[[258.76346,193.71439],[0,0],[0.19657,0.35372],7],[[260.13815,194.55566],[-0.63469,-0.18042],[0.28865,-0.47714],7]],&quot;closed&quot;:true}]}" fill="#fff1e2"/><path d="M260.16257,200.54918c-0.01331,-0.0039 -0.02781,-0.00808 -0.04111,-0.01223c-1.20337,-0.37559 -3.5623,-3.04418 -1.13713,-3.39406l-0.14021,0.03613c0,0 0.4663,0.05602 0.71608,-0.26758c0.73361,0.72893 1.96991,1.31719 3.12022,1.46193c0.64585,0.88437 -0.20213,1.99324 -1.36315,2.22125c-0.05484,-0.06167 -0.12922,-0.11904 -0.2213,-0.17233c-0.43613,-0.25241 -0.77515,-0.0382 -0.9334,0.12692z" data-paper-data="{&quot;noHover&quot;:false,&quot;origItem&quot;:[&quot;Path&quot;,{&quot;applyMatrix&quot;:true,&quot;selected&quot;:true,&quot;segments&quot;:[[[260.16131,198.39745],[-0.46786,-0.18715],[0.09878,0.03951],7],[[260.40238,198.53803],[-0.06313,-0.05315],[1.11623,-0.3924],7],[[261.41444,196.20051],[0.76618,0.78243],[-1.15917,0.02198],7],[[258.19006,195.22848],[0.8307,0.616],[-0.20071,0.35613],7],[[257.53286,195.58461],[0,0],[0,0],7],[[257.66454,195.53096],[0,0],[-2.34977,0.69458],7],[[259.24006,198.64316],[-1.24484,-0.19885],[0.01376,0.0022],7],[[259.2813,198.64938],[-0.01373,-0.00195],[0.13289,-0.18614],7]],&quot;closed&quot;:true}]}" fill="#fff1e2"/><path d="M254.04068,197.62119c-0.77652,-0.33852 -0.93831,-1.00456 -0.81467,-1.80654c0.04949,-0.00358 0.10212,-0.01142 0.15792,-0.02487c0.72915,-0.17563 0.55259,-0.92585 0.55259,-0.92585c-0.72596,-2.75982 2.29589,-3.09281 3.63643,-1.21057c0.0282,0.0662 0.07306,0.13653 0.13256,0.20067c0.67792,1.10595 0.5392,2.16828 -0.23077,2.32567l-0.12682,-0.08222c-0.18224,0.00187 -0.36792,0.02311 -0.54344,0.04555c-0.22677,-0.06344 -0.49673,-0.16205 -0.77487,-0.32703l0.00683,-0.74536c0,0 0.07016,-0.72108 -0.67984,-0.72276c-0.75,-0.00167 -0.72318,0.70825 -0.72318,0.70825l0.05303,1.31826c0.12588,0.11225 0.19939,0.29802 0.32761,0.39162c-0.37432,0.23455 -0.70892,0.52084 -0.9734,0.85517z" data-paper-data="{&quot;noHover&quot;:false,&quot;origItem&quot;:[&quot;Path&quot;,{&quot;applyMatrix&quot;:true,&quot;selected&quot;:true,&quot;segments&quot;:[[[253.65812,195.64694],[-0.33675,0.28588],[-0.14033,-0.07421],7],[[253.23633,195.39634],[0.1407,0.093],[0,0],7],[[252.97181,194.05946],[0,0],[0,0],7],[[253.60821,193.21093],[-0.74246,0.10607],[0.74246,-0.10607],7],[[254.45673,193.84733],[0,0],[0,0],7],[[254.48595,194.56662],[0,0],[0.29896,0.12332],7],[[255.28508,194.79314],[-0.23353,-0.03021],[0.17047,-0.04741],7],[[255.81124,194.67962],[-0.18008,0.02803],[0,0],7],[[255.94862,194.74259],[0,0],[0.73938,-0.26635],7],[[255.85226,192.46012],[0.82974,0.99711],[-0.0681,-0.05494],7],[[255.69583,192.28414],[0.03742,0.06146],[-1.59699,-1.67017],7],[[252.35447,193.96859],[-1.11484,-2.62693],[0,0],7],[[251.93665,194.94349],[0.69636,-0.27854],[-0.05329,0.02132],7],[[251.78406,194.99106],[0.04846,-0.01065],[-0.00717,0.81142],7],[[252.82594,196.63632],[-0.81709,-0.22347],[0.21371,-0.36886],7]],&quot;closed&quot;:true}]}" fill="#fff1e2"/></g><g stroke="none" stroke-width="0.5" stroke-linecap="butt"><path d="M225.91135,232.06939c-1.18188,1.31737 -3.16638,1.59422 -4.36664,2.69707c-1.76486,1.62163 -0.70296,3.97813 1.30643,3.96629c0.89884,-0.0053 1.79786,0 2.69672,0c3.76552,0 5.03951,-1.04182 6.36942,-4.80824c0.28503,-0.80722 0.90967,-1.9133 0.89735,-2.81329c-0.01455,-1.06246 -0.28371,-2.10571 -0.37473,-3.17369c-0.37083,0.13713 -0.7239,0.24991 -0.99913,0.35584c-1.20789,0.46487 -2.92699,1.2941 -4.47711,1.27777c-0.29069,0.82963 -0.46874,1.84779 -1.0523,2.49826zM233.78722,227.29263c-0.00313,1.28756 0.41648,2.54844 0.40451,3.81859c-0.05299,5.62175 -3.91795,9.12153 -8.64387,9.12153c-0.89887,0 -1.79787,0.00467 -2.69672,0c-3.30113,-0.01716 -4.80255,-4.0816 -2.1993,-6.60827c1.97958,-1.92135 3.79185,-1.65912 4.92889,-4.35327c-0.33367,-0.16051 -0.64497,-0.39275 -0.92425,-0.7139c-1.05976,-1.21862 -0.30071,-5.5106 -0.06449,-7.05442c0.00533,-3.55598 -0.69745,-7.18026 -1.33806,-10.66339c-0.18228,-0.99107 -1.0225,-3.53618 -0.44915,-4.50281c0.91143,-1.53661 4.87933,-1.82327 6.4053,-2.10792c3.70729,-0.67302 7.26721,-1.61629 10.81717,-2.90909l0.40451,-0.14687c0,0 0.65322,-0.23717 0.87096,0.47434c0.12877,0.42079 -0.04708,0.67568 -0.21229,0.81372c0.24762,0.21912 0.24762,0.5984 0.24762,0.5984c-0.00493,4.0294 0.51166,8.13657 0.91886,12.13043c0.11864,1.16366 0.70973,4.07172 0.2519,5.16657c-0.02322,0.05554 -0.04718,0.1095 -0.07186,0.16194c1.37064,-0.13239 2.78419,-0.57715 4.00173,-0.86192c0.68707,-0.1607 2.22126,-0.86391 2.91562,-0.56819c2.48629,1.05889 0.67655,6.94613 -0.54506,8.26971c-3.29245,0.95594 -6.70702,1.68375 -10.06907,2.29018c-1.02356,0.18462 -2.90124,0.46682 -3.7154,-0.51901c-0.44966,-0.54447 -0.6185,-1.42022 -0.69073,-2.35712c-0.14608,0.19332 -0.33419,0.36155 -0.54705,0.50971c0.00026,0.00719 0.00026,0.01106 0.00026,0.01106zM236.02669,228.09992c0.49097,0.66328 2.6765,0.06567 3.26906,-0.07289c2.93941,-0.68734 5.90008,-1.24634 8.83497,-1.97453c0.84482,-0.93377 0.86422,-2.51543 0.86422,-3.75342c0,-0.59459 0.48486,-1.79364 -0.06092,-1.78255c-2.72939,0.05548 -5.21571,1.69807 -7.9381,1.48928c-0.54218,0.27325 -1.15702,0.42246 -1.79513,0.57963c-0.80614,0.25102 -2.23599,0.85042 -3.63183,1.14411c0.08127,1.27356 -0.11308,3.59923 0.45773,4.37037zM239.05241,220.7401c0.21774,-0.71151 0.87096,-0.47434 0.87096,-0.47434c0.25774,0.09733 0.52423,0.16716 0.79723,0.21396c0.20414,-0.16016 0.37651,-0.36777 0.49663,-0.64387c0.35166,-0.8083 -0.23579,-3.56718 -0.32839,-4.47452c-0.41369,-4.05329 -0.92325,-8.21294 -0.9279,-12.30206c0,0 0,-0.05833 0.01493,-0.14245c-3.45961,1.22266 -6.92982,2.13625 -10.5394,2.79154c-1.04663,0.18375 -4.82361,0.48241 -5.46026,1.41693c-0.21079,0.30941 0.57518,3.13159 0.62954,3.42811c0.66473,3.62614 1.35419,7.36966 1.35865,11.07321c-0.11732,0.76676 -0.86335,5.38164 -0.33416,5.87004c0.27713,0.25577 0.58323,0.41606 0.9073,0.50384c0.10651,-0.01659 0.22789,-0.0019 0.36139,0.06823c1.37974,0.15578 2.99514,-0.77188 4.08226,-1.18934c0.38616,-0.14829 2.01385,-0.53662 2.30592,-1.08658c0.13114,-0.24695 -0.14536,-1.29958 -0.36355,-2.11568c-0.30413,-0.13289 -0.56528,-0.33226 -0.76648,-0.61499c-0.81704,-1.14814 -0.42112,-3.51776 -0.42112,-4.87536c0,-1.30313 0.02523,-2.5804 0.08256,-3.84601c-0.04227,-0.73616 -0.1045,-1.47235 -0.2093,-2.20779c-0.11922,-0.83662 -1.03383,-4.2517 -0.78108,-4.90706c0.3127,-0.81081 1.33723,-1.1949 2.19479,-1.13363c0.23308,-0.12576 0.46616,-0.25152 0.69924,-0.37728l0.07764,0.0171l-0.0053,-0.03463l0.79622,-0.14455c0.04085,-0.00823 0.08296,-0.01253 0.12599,-0.01253c0.38028,0 0.68855,0.33579 0.68855,0.75c0,0.3154 -0.17874,0.58533 -0.4319,0.69617l-0.92927,0.4338l-0.00721,-0.01833c-0.02322,0.0166 -0.04669,0.03285 -0.07042,0.04871c-0.05452,0.03645 -0.11778,0.06085 -0.18734,0.07604c-0.01131,2.65563 -0.38063,5.30213 -0.56435,7.97776c0.06569,2.32655 0.12348,4.62549 0.82183,6.9075c0.00186,0.01198 0.0038,0.02411 0.00583,0.03638c1.43877,0.02642 4.19745,-1.12336 4.81969,-1.3169c0.04919,-0.01168 0.09932,-0.02305 0.1502,-0.03433c-0.01128,-0.10286 -0.00144,-0.22134 0.0401,-0.35708zM232.28893,208.88354c0.06342,-0.48651 0.13308,-0.97433 0.20939,-1.46429c-0.22343,-0.00514 -0.37432,0.0557 -0.36515,0.28552c0.01439,0.36041 0.07329,0.75834 0.15576,1.17877z" fill="#000000"/><path d="M235.52328,223.72465c1.39584,-0.2937 2.83101,-0.91199 3.63715,-1.16301c0.6381,-0.15717 1.26929,-0.32517 1.81146,-0.59842c2.72239,0.20879 5.27291,-1.41538 8.0023,-1.47086c0.54578,-0.01109 0.06471,1.19777 0.06471,1.79236c0,1.23798 -0.01887,2.84633 -0.86369,3.7801c-2.93489,0.72819 -5.97153,1.31126 -8.91094,1.9986c-0.59256,0.13856 -2.78724,0.72306 -3.27821,0.05977c-0.57081,-0.77114 -0.38151,-3.12499 -0.46278,-4.39854z" data-paper-data="{&quot;noHover&quot;:false,&quot;origItem&quot;:[&quot;Path&quot;,{&quot;applyMatrix&quot;:true,&quot;segments&quot;:[[[236.02669,228.09992],[-0.57081,-0.77114],[0.49097,0.66328]],[[239.29575,228.02703],[-0.59256,0.13856],[2.93941,-0.68734]],[[248.13072,226.0525],[-2.93489,0.72819],[0.84482,-0.93377]],[[248.99494,222.29909],[0,1.23798],[0,-0.59459]],[[248.93402,220.51654],[0.54578,-0.01109],[-2.72939,0.05548]],[[240.99592,222.00581],[2.72239,0.20879],[-0.54218,0.27325]],[[239.20079,222.58544],[0.6381,-0.15717],[-0.80614,0.25102]],[[235.56896,223.72955],[1.39584,-0.2937],[0.08127,1.27356]]],&quot;closed&quot;:true}]}" fill="#424347"/><path d="M226.96672,229.52124c1.55012,0.01633 3.29888,-0.79806 4.50678,-1.26293c0.27523,-0.10593 0.63023,-0.21644 1.00106,-0.35357c0.09102,1.06798 0.36904,2.1281 0.38359,3.19056c0.01233,0.89998 -0.61018,2.02717 -0.89521,2.83439c-1.32991,3.76642 -2.66023,4.85168 -6.42575,4.85168c-0.89885,0 -1.81551,-0.01457 -2.71435,-0.00927c-2.00939,0.01185 -3.08748,-2.37174 -1.32262,-3.99337c1.20026,-1.10285 3.20277,-1.43282 4.38465,-2.75018c0.58357,-0.65047 0.79117,-1.67768 1.08186,-2.50731z" data-paper-data="{&quot;noHover&quot;:false,&quot;origItem&quot;:[&quot;Path&quot;,{&quot;applyMatrix&quot;:true,&quot;segments&quot;:[[[225.91135,232.06939],[0.58357,-0.65047],[-1.18188,1.31737]],[[221.54471,234.76646],[1.20026,-1.10285],[-1.76486,1.62163]],[[222.85114,238.73274],[-2.00939,0.01185],[0.89884,-0.0053]],[[225.54786,238.73274],[-0.89885,0],[3.76552,0]],[[231.91728,233.92451],[-1.32991,3.76642],[0.28503,-0.80722]],[[232.81463,231.11122],[0.01233,0.89998],[-0.01455,-1.06246]],[[232.43989,227.93753],[0.09102,1.06798],[-0.37083,0.13713]],[[231.44076,228.29337],[0.27523,-0.10593],[-1.20789,0.46487]],[[226.96365,229.57113],[1.55012,0.01633],[-0.29069,0.82963]]],&quot;closed&quot;:true}]}" fill="#424347"/><path d="M239.04806,221.12854c-0.05087,0.01128 -0.10143,0.02323 -0.15062,0.0349c-0.62224,0.19355 -3.40635,1.36022 -4.84512,1.33379c-0.00202,-0.01228 -0.02377,-0.12205 -0.02563,-0.13403c-0.69835,-2.28201 -0.79213,-4.53238 -0.85782,-6.85892c0.18372,-2.67564 0.59185,-5.27249 0.60316,-7.92812c0.06956,-0.01519 0.14805,-0.13819 0.20257,-0.17465c0.02373,-0.01586 0.04756,-0.03204 0.07078,-0.04864l0.00727,0.01834l0.93386,-0.43258c0.25317,-0.11084 0.40445,-0.28535 0.40445,-0.60075c0,-0.41421 -0.30417,-0.74876 -0.68445,-0.74876c-0.04303,0 -0.08457,0.00444 -0.12542,0.01267l-0.79247,0.14524l0.00525,0.03462l-0.07724,-0.01704c-0.23308,0.12576 -0.46271,0.25183 -0.69579,0.37759c-0.85756,-0.06127 -1.86941,0.32151 -2.18211,1.13232c-0.25275,0.65536 0.66569,4.06926 0.78491,4.90588c0.1048,0.73544 0.1805,1.46387 0.22276,2.20003c-0.05733,1.26561 -0.09475,2.4562 -0.09475,3.75933c0,1.3576 -0.40848,3.72432 0.40856,4.87246c0.2012,0.28273 0.45743,0.48202 0.76156,0.61491c0.21819,0.81609 0.49963,1.96858 0.36848,2.21552c-0.29207,0.54996 -1.9301,0.9378 -2.31626,1.08608c-1.08712,0.41746 -2.71578,1.34051 -4.09552,1.18473c-0.13349,-0.07013 -0.25598,-0.08544 -0.36249,-0.06885c-0.32407,-0.08777 -0.63327,-0.25003 -0.91039,-0.5058c-0.52918,-0.4884 0.20638,-5.11324 0.3237,-5.88c-0.00446,-3.70355 -0.69878,-7.50392 -1.36351,-11.13006c-0.05436,-0.29652 -0.83469,-3.12728 -0.62391,-3.43669c0.63665,-0.93452 4.43257,-1.24709 5.4792,-1.43083c3.60958,-0.65528 7.1198,-1.56397 10.5794,-2.78663c-0.01493,0.08412 -0.01477,0.14256 -0.01477,0.14256c0.00465,4.08912 0.53533,8.29008 0.94902,12.34337c0.0926,0.90733 0.6758,3.68803 0.32414,4.49633c-0.12012,0.27609 -0.29417,0.48728 -0.49831,0.64744c-0.27299,-0.0468 -0.54009,-0.1155 -0.79783,-0.21283c0,0 -0.65584,-0.23291 -0.87358,0.4786c-0.04154,0.13574 -0.05237,0.2556 -0.04109,0.35847z" data-paper-data="{&quot;noHover&quot;:false,&quot;origItem&quot;:[&quot;Path&quot;,{&quot;applyMatrix&quot;:true,&quot;segments&quot;:[[[239.05241,220.7401],[-0.04154,0.13574],[0.21774,-0.71151]],[[239.92337,220.26575],[0,0],[0.25774,0.09733]],[[240.7206,220.47971],[-0.27299,-0.0468],[0.20414,-0.16016]],[[241.21722,219.83584],[-0.12012,0.27609],[0.35166,-0.8083]],[[240.88883,215.36133],[0.0926,0.90733],[-0.41369,-4.05329]],[[239.96093,203.05926],[0.00465,4.08912],[0,0]],[[239.97586,202.91682],[-0.01493,0.08412],[-3.45961,1.22266]],[[229.43646,205.70835],[3.60958,-0.65528],[-1.04663,0.18375]],[[223.9762,207.12528],[0.63665,-0.93452],[-0.21079,0.30941]],[[224.60574,210.5534],[-0.05436,-0.29652],[0.66473,3.62614]],[[225.96439,221.6266],[-0.00446,-3.70355],[-0.11732,0.76676]],[[225.63023,227.49664],[-0.52918,-0.4884],[0.27713,0.25577]],[[226.53753,228.00048],[-0.32407,-0.08777],[0.10651,-0.01659]],[[226.89891,228.06871],[-0.13349,-0.07013],[1.37974,0.15578]],[[230.98118,226.87936],[-1.08712,0.41746],[0.38616,-0.14829]],[[233.28709,225.79278],[-0.29207,0.54996],[0.13114,-0.24695]],[[232.92354,223.67711],[0.21819,0.81609],[-0.30413,-0.13289]],[[232.15706,223.06212],[0.2012,0.28273],[-0.81704,-1.14814]],[[231.73594,218.18676],[0,1.3576],[0,-1.30313]],[[231.8185,214.34075],[-0.05733,1.26561],[-0.04227,-0.73616]],[[231.6092,212.13296],[0.1048,0.73544],[-0.11922,-0.83662]],[[230.82812,207.22589],[-0.25275,0.65536],[0.3127,-0.81081]],[[233.02291,206.09227],[-0.85756,-0.06127],[0.23308,-0.12576]],[[233.72215,205.71499],[-0.23308,0.12576],[0,0]],[233.79979,205.73208],[233.79449,205.69745],[[234.59071,205.55291],[0,0],[0.04085,-0.00823]],[[234.7167,205.54038],[-0.04303,0],[0.38028,0]],[[235.40525,206.29038],[0,-0.41421],[0,0.3154]],[[234.97335,206.98655],[0.25317,-0.11084],[0,0]],[234.04408,207.42034],[[234.03687,207.40201],[0,0],[-0.02322,0.0166]],[[233.96646,207.45073],[0.02373,-0.01586],[-0.05452,0.03645]],[[233.77912,207.52677],[0.06956,-0.01519],[-0.01131,2.65563]],[[233.21477,215.50453],[0.18372,-2.67564],[0.06569,2.32655]],[[234.03659,222.41203],[-0.69835,-2.28201],[0.00186,0.01198]],[[234.04242,222.44842],[-0.00202,-0.01228],[1.43877,0.02642]],[[238.86211,221.13151],[-0.62224,0.19355],[0.04919,-0.01168]],[[239.01231,221.09718],[-0.05087,0.01128],[-0.01128,-0.10286]]],&quot;closed&quot;:true}]}" fill="#3b3d48"/></g><g stroke="none" stroke-width="0.5" stroke-linecap="butt"><path d="M223.73648,181.74889c3.40058,-0.11206 7.19965,1.20654 10.35207,2.34376l0.15314,0.11193c0.35894,-0.46801 0.55441,-0.94179 0.89993,-1.69731c0,0 0.06314,-0.1379 0.19464,-0.26128c0.0017,-0.08372 0.01844,-0.17626 0.05521,-0.27822c0.25451,-0.7055 0.96,-0.45099 0.96,-0.45099c0.62121,0.22439 2.38206,0.50805 2.7305,1.06412c0.71701,1.14427 0.21974,2.36165 -0.66957,3.19381c0.03011,0.10735 0.03287,0.18785 0.03287,0.18785c0.06713,1.9571 0.13427,3.91421 0.2014,5.8713l0.00493,0.1436c0.07993,0.10742 0.1154,0.20279 0.1154,0.20279c0.50851,1.3704 1.47844,2.27827 2.02857,3.58983c0.71967,1.71579 0.18328,4.32738 -0.0511,6.10816l-0.33714,0.56579c0,0 -0.04352,0.0466 -0.11876,0.09995c-0.05547,1.10016 -0.29534,2.09144 -1.06405,3.14349c-3.3774,3.59821 -8.14848,3.76248 -12.76891,3.92098c-2.66919,0.09156 -5.10454,0.40989 -4.82608,-2.92295c-0.1464,-0.2048 -0.15477,-0.44878 -0.15477,-0.44878l0.01888,-1.01413c0.95439,-2.60995 1.31019,-7.09245 0.51624,-9.83207c-0.77038,-2.65827 -2.88932,-4.56602 -3.76022,-7.17445c-1.725,-0.42686 -3.16052,-1.07809 -3.04239,-2.34203c0.06849,-0.73277 1.53611,-1.83619 2.21135,-2.53331c-0.31968,-3.68063 2.96414,-2.73247 5.71125,-1.277c0.20526,-0.30106 0.6066,-0.31483 0.6066,-0.31483zM239.4895,199.72487c0.02103,-0.00072 0.04148,-0.00083 0.06138,-0.00036c0.16153,-1.20762 0.24026,-2.49884 -0.1503,-3.40302c-0.50086,-1.15953 -1.33511,-2.04694 -1.87091,-3.21333c-0.34682,-0.19342 -0.36199,-0.63573 -0.36199,-0.63573c-0.06006,-1.75095 -0.13625,-3.97186 -0.1997,-5.82182c-0.44105,0.14869 -0.88236,0.19611 -1.26735,0.11076l-0.35816,-0.12905c-0.12993,0.30074 -0.25337,0.60431 -0.36723,0.91135c0.50644,0.50461 0.60418,1.16121 -0.08376,1.88023c0.37094,2.04938 2.68413,4.23559 2.71183,6.26659c0.02468,1.81051 -2.92559,3.58072 -3.70653,5.28895c-0.21356,0.46714 -0.53699,1.93526 -1.12679,1.94233c-0.9667,0.0116 -1.89425,-2.17766 -2.33928,-2.87722c-0.29679,-1.01352 -1.34129,-2.85565 -1.49408,-3.76203c-0.27773,-1.64765 1.62631,-3.75657 2.15394,-5.34831c-0.08919,0.00228 -0.18174,0.00483 -0.27877,0.00843l-0.28369,-0.1412c0.00193,0.04434 0.00367,0.08937 0.00523,0.13509l0.01511,0.44035c0,0 0.02571,0.74956 -0.72385,0.77527c-0.74956,0.02571 -0.77527,-0.72385 -0.77527,-0.72385l-0.01511,-0.44035c-0.01687,-0.49189 0.16275,-1.00979 0.00648,-1.4765c-0.12186,-0.36394 -1.40196,-0.61323 -1.66708,-0.70886c-1.18166,-0.57159 -0.60244,1.09182 -2.06017,1.43883c-0.95436,0.22719 -1.3049,-0.55844 -1.96896,-0.89732c-0.63055,-0.32178 -1.95406,-0.51461 -3.35426,-0.76775c0.97493,2.21045 2.77335,3.98183 3.45465,6.37733c0.87799,3.08702 0.51379,7.82231 -0.54023,10.77791l0.06349,0.41602c0.19984,0.24509 0.16373,0.57926 0.16373,0.57926c-0.28055,2.38368 2.2642,1.41704 4.15301,1.35225c3.84584,-0.13192 7.99373,-0.33894 10.78831,-3.35312c0.92723,-1.20929 0.75261,-2.47253 0.70253,-3.93228l-0.01007,-0.29357c0,0 -0.02571,-0.74956 0.72385,-0.77527zM236.50547,183.1317c-0.37228,0.81224 -0.64784,1.38922 -1.06142,1.94283c0.00052,0.00018 0.00078,0.00027 0.00078,0.00027l0.72315,0.26121c0.77826,0.37752 1.97889,-1.6026 1.70144,-1.8721c-0.12998,-0.12626 -0.7973,-0.25945 -1.34761,-0.37383c-0.00948,0.02658 -0.01634,0.04159 -0.01634,0.04159zM232.563,191.25118c-0.29082,0.98245 -2.40533,3.8208 -2.16675,4.68572c0.27668,1.00302 1.07351,2.31761 1.39977,3.48647c0.10389,0.15702 0.48317,0.60889 0.72836,1.05314c0.21218,-0.54623 0.52428,-1.17519 0.72043,-1.51053c0.4079,-0.69733 2.93156,-2.48621 2.85937,-3.22405c-0.16852,-1.72248 -1.84118,-3.59364 -2.49805,-5.40122c-0.26677,0.13954 -0.54405,0.26006 -0.82828,0.35728c-0.03452,0.01181 -0.06847,0.02298 -0.10193,0.03355zM231.50984,189.28951c0.76031,-0.19207 1.84918,-0.52138 2.2435,-0.73863c-0.22015,-0.09715 -0.32818,-0.2505 -0.37772,-0.40261c-1.18237,-0.37374 -3.32747,-0.27243 -1.89848,1.09983c0,0 0.01311,0.01468 0.03271,0.04141zM225.29193,185.46847c0,0 -0.41507,-0.19004 -0.44929,-0.59742c-1.57468,-1.14304 -6.1849,-4.25747 -5.93816,-1.62953c0.07769,0.14708 0.08399,0.29405 0.06129,0.42059c0.00948,0.17713 -0.0175,0.61241 -0.48572,0.76198c-0.55945,0.63371 -1.1513,1.11934 -1.79392,1.70099c-0.26101,0.23625 0.67901,0.18669 1.0155,0.29017c0.80407,0.24724 1.52635,0.35314 2.36648,0.46616c1.22404,0.16467 2.82507,0.56609 3.9476,1.12126c0.38237,0.1891 0.61096,0.8571 1.02711,0.76338c0.41158,-0.09269 0.25182,-0.85256 0.56928,-1.13044c1.00106,-0.87623 1.25927,-0.55251 2.27053,-0.244c0.64098,0.23123 1.13136,0.44386 1.50531,0.69298c0.04337,-0.22676 0.12664,-0.42582 0.24237,-0.59895c-1.47458,-0.56792 -2.91533,-1.36561 -4.33838,-2.01714z" fill="#000000"/><path d="M231.43639,189.27708c-1.42898,-1.37227 0.80229,-1.52343 1.98466,-1.14969c0.04954,0.15212 0.1621,0.32436 0.38225,0.42151c-0.39431,0.21725 -1.57247,0.57943 -2.33277,0.7715c-0.0196,-0.02673 -0.03414,-0.04332 -0.03414,-0.04332z" data-paper-data="{&quot;noHover&quot;:false,&quot;origItem&quot;:[&quot;Path&quot;,{&quot;applyMatrix&quot;:true,&quot;segments&quot;:[[[467.52014,378.80687],[-0.03734,-0.05477],[1.53289,-0.33178]],[[472.05514,377.4843],[-0.80306,0.4072],[-0.43338,-0.20928]],[[471.32774,376.65365],[0.08859,0.30745],[-2.33771,-0.82811]],[[467.4576,378.72186],[-2.7622,-2.84089],[0,0]]],&quot;closed&quot;:true}]}" fill="#ff0000"/><path d="M232.67007,190.68188c0.03346,-0.01057 0.06852,-0.02187 0.10304,-0.03367c0.28422,-0.0972 0.56998,-0.21782 0.83676,-0.35736c0.65687,1.80757 2.37546,3.73445 2.54399,5.45692c0.07219,0.73784 -2.50089,2.57087 -2.9088,3.2682c-0.19616,0.33533 -0.51535,0.96382 -0.72754,1.51005c-0.24519,-0.44425 -0.63438,-0.89854 -0.73827,-1.05556c-0.32626,-1.16886 -1.15545,-2.52128 -1.43212,-3.5243c-0.23858,-0.86491 1.91714,-3.76189 2.20796,-4.74434z" data-paper-data="{&quot;noHover&quot;:false,&quot;origItem&quot;:[&quot;Path&quot;,{&quot;applyMatrix&quot;:true,&quot;segments&quot;:[[[469.49072,382.80012],[0,0],[-0.64867,1.94381]],[[464.83851,392.01747],[-0.41758,-1.74517],[0.48426,2.02384]],[[467.39735,399.08228],[-0.57199,-2.35872],[0.1969,0.32098]],[[468.78101,401.23726],[-0.45963,-0.90478],[0.46157,-1.07727]],[[470.3246,398.26738],[-0.41507,0.65682],[0.86314,-1.36588]],[[476.26104,392.01912],[0.0937,1.47976],[-0.21875,-3.45448]],[[471.63821,381.05177],[1.18903,3.65805],[-0.54281,0.26063]],[[469.95814,381.7091],[0.57477,-0.17481],[-0.0698,0.02123]],[[469.7521,381.76918],[0.0676,-0.01885],[0,0]]],&quot;closed&quot;:true}]}" fill="#ff0000"/><path d="M236.51521,183.04055c0.5503,0.11438 1.26634,0.27018 1.39632,0.39643c0.27745,0.26949 -0.98606,2.32205 -1.76433,1.94453l-0.74356,-0.27835c0,0 -0.00027,-0.00011 -0.00079,-0.00029c0.41357,-0.55362 0.72276,-1.20834 1.09504,-2.02058c0,0 0.00784,-0.01515 0.01732,-0.04174z" data-paper-data="{&quot;noHover&quot;:false,&quot;origItem&quot;:[&quot;Path&quot;,{&quot;applyMatrix&quot;:true,&quot;segments&quot;:[[[477.92773,366.84102],[0,0],[-0.79982,1.598]],[[475.67294,370.65163],[0.86461,-1.07823],[0.00102,0.0004]],[475.67448,370.65224],[[477.10202,371.22395],[0,0],[1.52973,0.80796]],[[480.63126,367.59862],[0.53609,0.55769],[-0.25116,-0.26128]],[[477.96326,366.759],[1.09212,0.26636],[-0.02077,0.05249]]],&quot;closed&quot;:true}]}" fill="#0032ff"/><path d="M229.6781,187.50035c-0.11573,0.17313 -0.20061,0.37664 -0.24398,0.6034c-0.37395,-0.24912 -0.8641,-0.46231 -1.50508,-0.69354c-1.01126,-0.3085 -1.27795,-0.61826 -2.27901,0.25797c-0.31746,0.27788 -0.17014,1.04818 -0.58172,1.14087c-0.41615,0.09373 -0.65306,-0.57032 -1.03542,-0.75943c-1.12252,-0.55516 -2.78602,-0.98236 -4.01007,-1.14703c-0.84013,-0.11302 -1.56637,-0.23146 -2.37043,-0.4787c-0.3365,-0.10347 -1.27701,-0.05747 -1.01601,-0.29372c0.64262,-0.58165 1.23544,-1.08343 1.7949,-1.71714c0.46823,-0.14957 0.49817,-0.59387 0.4887,-0.771c0.0227,-0.12653 0.01805,-0.27692 -0.05963,-0.42401c-0.24675,-2.62794 4.45494,0.49386 6.02962,1.6369c0.03423,0.40738 0.45196,0.61354 0.45196,0.61354c1.42305,0.65154 2.86159,1.46396 4.33617,2.03188z" data-paper-data="{&quot;noHover&quot;:false,&quot;origItem&quot;:[&quot;Path&quot;,{&quot;applyMatrix&quot;:true,&quot;segments&quot;:[[[455.35362,370.74296],[2.79975,1.39988],[0,0]],[[454.49653,369.51802],[0.04047,0.81662],[-3.06915,-2.3927]],[[442.73893,365.85372],[-0.31301,-5.2697],[0.14519,0.29933]],[[442.83261,366.6986],[0.05403,-0.25136],[0.0068,0.35469]],[[441.80948,368.18836],[0.94617,-0.26686],[-1.16169,1.22832]],[[438.10712,371.46534],[1.32437,-1.11857],[-0.53791,0.45432]],[[440.11705,372.11496],[-0.66551,-0.22989],[1.59024,0.54932]],[[444.81527,373.209],[-1.67151,-0.28352],[2.43537,0.41308]],[[452.62894,375.72086],[-2.20566,-1.18664],[0.75132,0.40421]],[[454.62961,377.31713],[-0.83824,0.15881],[0.82904,-0.15707]],[[455.845,375.09662],[-0.6536,0.53365],[2.06102,-1.6828]],[[460.40012,374.76457],[-2.00018,-0.68598],[1.26536,0.50614]],[[463.36146,376.25293],[-0.73039,-0.52358],[0.10223,-0.45029]],[[463.88698,375.07234],[-0.24319,0.33812],[-2.90847,-1.23628]]],&quot;closed&quot;:true}]}" fill="#0032ff"/><path d="M238.81294,200.5164l0.00958,0.29495c0.05007,1.45974 0.21516,2.73871 -0.71207,3.948c-2.79459,3.01419 -6.99206,3.23631 -10.8379,3.36823c-1.88882,0.06479 -4.45099,1.02314 -4.17044,-1.36054c0,0 0.03441,-0.33548 -0.16543,-0.58057l-0.06459,-0.41693c1.05402,-2.95559 1.40414,-7.74685 0.52616,-10.83388c-0.6813,-2.3955 -2.47042,-4.18213 -3.44535,-6.39257c1.4002,0.25315 2.72944,0.44049 3.35999,0.76228c0.66406,0.33888 1.01911,1.12124 1.97347,0.89405c1.45773,-0.34702 0.89121,-2.01629 2.07288,-1.4447c0.26511,0.09564 1.55375,0.34317 1.67561,0.7071c0.15627,0.46671 -0.01025,1.08375 0.00662,1.57564l0.00026,0.34145c0,0 0.03185,0.749 0.78141,0.72329c0.74956,-0.02571 0.72995,-0.77508 0.72995,-0.77508l-0.02392,-0.34074c-0.00157,-0.04572 0.00496,-0.19041 0.00303,-0.23474l0.28592,0.14143c0.09702,-0.0036 0.17494,0.09275 0.26414,0.09047c-0.52762,1.59173 -2.39046,3.68903 -2.11273,5.33668c0.15278,0.90638 1.1558,2.66159 1.45259,3.6751c0.44503,0.69955 1.3584,2.89357 2.3251,2.88197c0.5898,-0.00707 0.89875,-1.46402 1.11231,-1.93116c0.78094,-1.70822 3.71983,-3.43368 3.69514,-5.24419c-0.02769,-2.031 -2.31824,-4.18596 -2.68917,-6.23532c0.68794,-0.71902 0.59377,-1.37363 0.08733,-1.87825c0.11385,-0.30703 0.28189,-0.70011 0.41182,-1.00086l0.35955,0.12976c0.38498,0.08535 0.82986,0.04001 1.27091,-0.10866c0.06346,1.84995 0.15356,4.08429 0.21362,5.83524c0,0 0.01741,0.44585 0.36424,0.63927c0.5358,1.16639 1.37641,2.07276 1.87727,3.23228c0.39056,0.90418 0.31089,2.21293 0.14935,3.42054c-0.01991,-0.00047 -0.04037,-0.00029 -0.0614,0.00044c-0.74956,0.02571 -0.72522,0.78004 -0.72522,0.78004z" data-paper-data="{&quot;noHover&quot;:false,&quot;origItem&quot;:[&quot;Path&quot;,{&quot;applyMatrix&quot;:true,&quot;segments&quot;:[[[482.75458,400.21246],[-1.5,0],[0.04208,0]],[[482.8773,400.21594],[-0.03975,-0.00229],[0.40568,-2.40273]],[[482.81021,393.4036],[0.71867,1.83408],[-0.92163,-2.35203]],[[479.29091,386.85244],[0.991,2.36813],[-0.67997,-0.41039]],[[478.61094,385.55689],[0,0],[0,-3.50396]],[[478.61094,373.90641],[0,3.70209],[-0.89177,0.26695]],[[476.07015,374.04091],[0.76367,0.19701],[0,0]],[[475.36308,373.75841],[0,0],[-0.28033,0.59223]],[[474.56657,375.55486],[0.24863,-0.60591],[0.97768,1.04337]],[[474.27023,379.30737],[1.42437,-1.39002],[0.60092,4.12177]],[[479.26104,392.01912],[0.0839,-4.06152],[-0.07479,3.62058]],[[471.48969,402.33665],[1.67808,-3.36089],[-0.4589,0.91908]],[[469.10425,406.14178],[1.1794,0.0263],[-1.93306,-0.0431]],[[464.62571,400.23033],[0.84158,1.4288],[-0.52374,-2.04619]],[[461.89726,392.60825],[0.24324,1.82219],[-0.44216,-3.31241]],[[466.56932,382.06561],[-1.16377,3.14543],[-0.17844,-0.00156]],[[466.01153,382.06335],[0.19419,-0.00053],[0,0]],[[465.45416,381.76167],[0,0],[0.00081,0.08875]],[[465.45536,382.03204],[0,-0.0915],[0,0]],[465.45536,382.91325],[[463.95536,384.41325],[1.5,0],[-1.5,0]],[462.45536,382.91325],[[462.45536,382.03204],[0,0],[0,-0.98435]],[[462.56954,379.08121],[0.28036,0.94358],[-0.21862,-0.73579]],[[459.28595,377.55],[0.52336,0.20934],[-2.32275,-1.22352]],[[455.06937,380.28472],[2.93755,-0.59369],[-1.92318,0.38868]],[[451.19529,378.35613],[1.3041,0.7229],[-1.2383,-0.68643]],[[444.54335,376.59154],[2.78141,0.602],[1.79716,4.48514]],[[451.01133,389.57559],[-1.19756,-4.8349],[1.54327,6.23062]],[[449.1925,411.08168],[2.30947,-5.83544],[0,0]],[[449.29088,411.91757],[0,0],[0.38264,0.5036]],[[449.57845,413.08663],[0,0],[-0.7242,4.74532]],[[457.78687,416.0743],[-3.77985,0],[7.6962,0]],[[479.58072,410.11169],[-5.79255,5.83321],[1.93629,-2.35358]],[[481.25458,402.29994],[0,2.92119],[0,0]],[481.25458,401.71246]],&quot;closed&quot;:true}]}" fill="#0032ff"/></g><g stroke="none" stroke-width="0.5" stroke-linecap="butt"><path d="M262.9042,166.87907c0.74432,1.36841 0.41853,2.43803 0.11939,3.90469l-0.32261,0.73544c0,0 -0.09333,0.19833 -0.2863,0.3301c-0.2003,4.01343 -0.26804,8.13741 -1.64174,11.8839c-0.57648,1.57225 -1.37929,3.3201 -3.11882,4.00601c-1.20672,0.47581 -2.69318,0.58345 -3.97463,0.71955c-3.19419,0.60074 -6.02661,0.16527 -9.22593,0.18061c-5.86921,0.02813 -11.64143,-0.15436 -17.52013,-0.50361c-1.62577,-0.12739 -2.97272,-1.10438 -3.85415,-2.50565c-0.24709,-0.39281 -0.47681,-1.73272 -0.9125,-1.99479c-0.68673,-0.41307 -2.49601,-0.18192 -3.20378,-0.26055c-4.96664,-0.55178 -8.08531,-1.86164 -8.84457,-7.2011c-0.59055,-4.25039 -0.04309,-8.53896 0.211,-12.81582l0.02115,-0.35595c0,0 0.00063,-0.01052 0.00297,-0.02899c-1.53263,-1.72265 -2.3363,-4.64607 -2.28269,-6.66197c-0.21046,-4.11779 0.23395,-10.38952 3.70422,-13.24311c3.40451,-2.79953 8.28202,-4.02338 12.33733,-5.48308c8.872,-2.90255 19.31823,-1.05275 28.43281,-0.51124c4.52605,0.2689 9.71576,-0.1178 14.0765,1.13355c4.184,1.20064 7.72803,4.0297 11.96543,5.05736l0.84019,0.04992c0.41349,0.02457 0.72877,0.37967 0.7042,0.79316c-0.01228,0.20675 -0.1072,0.38894 -0.25074,0.51637l-0.94276,0.83702l-0.16386,-0.18456c-3.24182,2.94715 -8.72269,4.37789 -13.00527,4.55584c0.11823,0.25774 0.04473,0.53768 0.04473,0.53768c-0.66215,2.52108 -1.24621,5.09068 -1.73789,7.68446c0.40674,0.46815 0.73031,1.10636 0.97024,1.98158l0.07631,0.88545c0,0 0.06185,0.74744 -0.68559,0.80929c-0.74744,0.06185 -0.80929,-0.6856 -0.80929,-0.6856l-0.02463,-0.31288c-0.32691,1.99827 -0.59669,4.00582 -0.80289,6.01172c0.06851,0.07391 0.10435,0.13528 0.10435,0.13528zM214.86687,171.49459c0.73486,0.14992 0.58495,0.88477 0.58495,0.88477l-0.31769,1.12874c-0.93528,0.46938 -1.11164,0.73064 -2.15425,0.64946c-0.67234,-0.05235 -1.19695,-0.27459 -1.59443,-0.61179c0.03737,0.80867 0.10678,1.616 0.21869,2.42144c0.62981,4.65998 3.20305,5.43852 7.52227,5.91646c1.11871,0.12378 2.89043,-0.13634 3.89418,0.51835c1.75276,1.14323 1.2802,4.15073 4.00178,4.23636c5.84803,0.34743 11.58897,0.52823 17.42692,0.50098c3.13058,-0.0146 5.89204,0.42045 9.01237,-0.1647c1.16299,-0.12352 2.50261,-0.20588 3.60617,-0.61613c1.36044,-0.50575 1.88082,-2.00143 2.30865,-3.17299c1.43559,-3.93115 1.35192,-8.34395 1.60074,-12.53218c0.04587,-0.77201 0.10173,-1.54544 0.16724,-2.31965c-0.13659,0.24269 -0.30097,0.47438 -0.49954,0.69199c-1.04825,1.1489 -2.68496,1.54256 -3.56452,-0.0766c-0.57723,-1.0626 -0.20545,-2.59956 -0.32895,-3.75184c-0.26138,-2.43877 -0.40733,-4.62175 -0.01707,-7.01579c-3.04954,0.16255 -6.08029,1.01372 -7.56283,3.8384c0,0 -0.3503,0.66317 -1.01346,0.31288c-0.66316,-0.3503 -0.31287,-1.01347 -0.31287,-1.01347c2.23993,-4.21621 7.17518,-4.82836 11.59901,-4.63433c0.85154,0.03735 1.61501,0.07681 2.28986,0.19291c0.09925,-0.19273 0.29825,-0.39256 0.69562,-0.36896c0.16951,0.01007 0.29836,0.05624 0.39627,0.12165c0.44874,-2.23993 0.96406,-4.45912 1.5368,-6.64166c0,0 0.01626,-0.06194 0.05738,-0.14488c-2.40925,-0.06891 -4.87465,-0.61218 -7.25858,-0.28096c-2.5962,-0.14705 -5.06504,0.39262 -7.68809,0.38515c-6.483,-0.01848 -13.02002,-0.71875 -19.49136,-1.10322c-5.31156,-0.32756 -7.8236,3.37435 -9.03477,8.14676l0.01269,0.03201c0,0 -0.04149,0.69839 -0.71886,0.70604c-1.13717,2.14052 -2.67797,4.56561 -4.62258,5.83519c-1.47682,0.96418 -2.76138,1.01539 -3.83163,0.51572c-0.07091,1.07702 -0.15714,2.15529 -0.23418,3.23357c0.92356,-1.03255 2.22631,-1.01953 3.33709,1.56393c0,0 0.29504,0.68953 -0.3945,0.98457c-0.68953,0.29504 -0.98457,-0.3945 -0.98457,-0.3945c-1.56842,-3.68573 -3.00135,3.66749 0.46062,3.09211l0.01067,-0.48087c0,0 0.14992,-0.73486 0.88478,-0.58495zM258.29335,166.25512c0.0242,0.76807 -0.43886,2.0603 0.29559,2.2863c1.67239,0.51463 1.76635,-3.4628 1.80879,-4.18727c0.13547,-2.06054 0.8692,-3.99038 1.14146,-6.04885c-0.61926,-0.10186 -1.34701,-0.08559 -2.16282,-0.12188c-0.36628,-0.01629 -0.73926,-0.0277 -1.11593,-0.03171c-0.50747,2.80314 -0.05623,5.27513 0.03291,8.1034zM219.74755,155.74173c1.54802,-5.00854 4.54173,-8.72601 10.32353,-8.3941c6.44324,0.3828 12.95203,1.08096 19.40682,1.10058c2.60062,0.00791 5.04662,-0.54521 7.62465,-0.384c3.9848,-0.55364 8.21051,1.06099 12.17252,-0.13671c1.80322,-0.54511 3.8076,-1.11944 5.51007,-1.93111c0.91371,-0.43563 1.74385,-1.14657 2.68267,-1.49154c-3.92872,-1.18184 -7.31183,-3.71237 -11.26158,-4.85653c-4.23699,-1.22737 -9.34714,-0.81593 -13.75001,-1.0775c-8.82524,-0.52431 -19.27792,-2.4799 -27.85301,0.43131c-3.77613,1.35956 -10.14297,2.68914 -12.70255,6.10667c-2.21983,2.96391 -2.51251,7.64772 -2.32992,11.18545c-0.08021,2.51583 0.639,6.66612 4.10966,6.51969c2.45879,-0.10373 4.81018,-4.9056 5.71407,-6.71495c0,0 0.11775,-0.23517 0.35307,-0.35726z" fill="#000000"/><path d="M258.24856,158.10315c0.37669,0.004 0.75995,0.014 1.12623,0.0303c0.81581,0.03629 1.56341,0.02346 2.18267,0.12532c-0.27226,2.05847 -0.99103,4.07219 -1.1265,6.13274c-0.04244,0.72447 -0.17874,4.71372 -1.85113,4.19909c-0.73445,-0.22601 -0.28228,-1.52157 -0.30648,-2.28964c-0.08913,-2.82826 -0.53226,-5.39466 -0.0248,-8.1978z" data-paper-data="{&quot;noHover&quot;:false,&quot;origItem&quot;:[&quot;Path&quot;,{&quot;applyMatrix&quot;:true,&quot;segments&quot;:[[[513.43113,327.1896],[-0.51342,-5.636],[0.13943,1.53055]],[[514.29246,331.71909],[-1.49313,-0.3641],[3.39994,0.82908]],[[517.40701,323.14475],[0.0012,1.45142],[0.02605,-4.1299]],[[518.96845,310.93296],[-0.2994,4.14197],[-1.24843,-0.1299]],[[514.63597,310.94616],[1.63306,-0.02431],[-0.7332,0.01091]],[[512.40427,311.01523],[0.75251,-0.03669],[-0.68066,5.6566]]],&quot;closed&quot;:true}]}" fill="#00ffe2"/><path d="M214.03125,172.07039l-0.10878,0.50016c-3.46197,0.57539 -2.02994,-6.7843 -0.46152,-3.09856c0,0 0.29512,0.69054 0.98465,0.3955c0.68953,-0.29504 0.39435,-0.98665 0.39435,-0.98665c-1.11077,-2.58346 -2.41359,-2.59984 -3.33715,-1.56728c0.07704,-1.07828 0.16375,-2.1628 0.23467,-3.23982c1.07026,0.49967 2.3552,0.44614 3.83201,-0.51804c1.94461,-1.2696 3.4913,-3.71045 4.62845,-5.85096c0.67737,-0.00765 0.72016,-0.70815 0.72016,-0.70815l-0.01266,-0.03206c1.21117,-4.77241 3.74674,-8.4936 9.0583,-8.16603c6.47134,0.38447 13.05479,1.08983 19.5378,1.10831c2.62305,0.00748 5.10064,-0.52465 7.69684,-0.37762c2.38393,-0.33121 4.85422,0.21831 7.26347,0.28722c-0.04112,0.08294 -0.05731,0.14499 -0.05731,0.14499c-0.57274,2.18253 -1.08399,4.40923 -1.53273,6.64915c-0.09791,-0.0654 -0.31822,-0.07113 -0.48773,-0.0812c-0.39737,-0.02361 -0.5964,0.17614 -0.69565,0.36887c-0.67485,-0.1161 -1.43734,-0.15353 -2.28889,-0.19088c-4.42383,-0.19402 -9.27177,0.36956 -11.51171,4.58577c0,0 -0.34821,0.66692 0.31496,1.01722c0.66316,0.3503 0.92379,-0.26864 0.92379,-0.26864c1.48254,-2.82468 4.60311,-3.71982 7.65265,-3.88236c-0.39026,2.39403 -0.23956,4.59271 0.02182,7.03148c0.1235,1.15228 -0.24795,2.69884 0.32927,3.76145c0.87955,1.61916 2.41645,1.21951 3.4647,0.0706c0.19857,-0.21763 0.46284,-0.44514 0.59944,-0.68783c-0.0655,0.77422 -0.12174,1.55253 -0.1676,2.32454c-0.24882,4.18823 -0.17392,8.62365 -1.60951,12.55479c-0.42783,1.17155 -0.95282,2.67285 -2.31326,3.17859c-1.10355,0.41025 -2.44744,0.49662 -3.61043,0.62013c-3.12034,0.58516 -5.8968,0.15868 -9.02739,0.17329c-5.83795,0.02724 -11.61996,-0.15678 -17.46799,-0.50421c-2.72158,-0.08563 -2.25994,-3.10125 -4.01269,-4.24448c-1.00375,-0.65469 -2.77999,-0.39964 -3.8987,-0.52343c-4.31922,-0.47794 -6.90054,-1.27184 -7.53035,-5.93184c-0.11191,-0.80544 -0.18248,-1.61707 -0.21985,-2.42574c0.39748,0.33721 1.01923,0.53577 1.69157,0.58812c1.0426,0.08118 1.12222,-0.15475 2.05751,-0.62414l0.31718,-1.13092c0,0 0.1495,-0.73699 -0.58536,-0.8869c-0.73486,-0.14992 -0.78631,0.56753 -0.78631,0.56753z" data-paper-data="{&quot;noHover&quot;:false,&quot;origItem&quot;:[&quot;Path&quot;,{&quot;applyMatrix&quot;:true,&quot;segments&quot;:[[[427.35252,342.801],[-1.48492,-0.21213],[1.48492,0.21213]],[428.62531,344.49805],[[428.12493,346.78923],[0,0],[-1.81159,1.04805]],[[423.90106,348.34139],[2.09117,0.0384],[-1.34852,-0.02476]],[[420.64524,347.30908],[0.83355,0.62607],[0.17053,1.61006]],[[421.36905,352.1175],[-0.31896,-1.59478],[1.81014,9.22887]],[[437.08887,363.03736],[-8.67992,-0.44188],[2.24815,0.11445]],[[444.925,363.61034],[-2.08161,-1.18802],[3.63495,2.07455]],[[453.41696,371.59348],[-5.44374,0.15187],[11.71667,0]],[[488.26888,370.52663],[-11.65213,0.74685],[6.24841,-0.40049]],[[506.24236,369.12883],[-6.16028,1.53837],[2.30724,-0.38454]],[[513.36891,367.47101],[-2.15457,0.94995],[2.6561,-1.17108]],[[517.60173,360.86238],[-0.71519,2.38973],[2.39984,-8.01873]],[[519.31112,335.65228],[0,8.39121],[0,-1.54673]],[[519.36987,331.00131],[-0.03895,1.55348],[-0.24391,0.50073]],[[518.45463,332.44212],[0.37062,-0.45804],[-1.95655,2.4181]],[[511.32905,332.71198],[1.94807,3.12831],[-1.27845,-2.05301]],[[510.22729,325.26052],[0.38324,2.28586],[-0.81111,-4.83796]],[[509.36105,311.25566],[-0.49519,4.82593],[-6.06906,0.68623]],[[494.71729,319.816],[2.62481,-5.81527],[0,0]],[[492.73104,320.56085],[1.36555,0.6207],[-1.36555,-0.6207]],[[491.9862,318.57459],[0,0],[3.97189,-8.68326]],[[514.59369,307.94646],[-8.8551,0.13735],[1.70452,-0.02644]],[[519.18823,308.05999],[-1.3611,-0.15174],[0.1753,-0.39656]],[[520.53325,307.24087],[-0.79614,0],[0.33962,0]],[[521.33883,307.43673],[-0.20324,-0.11897],[0.63022,-4.5252]],[[523.61924,293.9945],[-0.88458,4.42533],[0,0]],[[523.71662,293.69845],[-0.07226,0.17045],[-4.8182,0.14819]],[[509.19169,293.99846],[4.72017,-0.94403],[-5.2007,0.01436]],[[493.88825,295.67931],[5.23776,-0.2962],[-12.94539,0.73206]],[[454.84329,295.78867],[12.96551,0],[-10.64329,-0.02396]],[[437.77186,313.12516],[1.85202,-9.67168],[0,0]],[437.80099,313.18757],[[436.44954,314.68243],[1.35144,-0.09562],[-2.01643,4.40839]],[[427.91277,326.88058],[3.73179,-2.76537],[-2.83408,2.10014]],[[420.32417,328.36468],[2.19601,0.87063],[-0.01383,2.15867]],[[420.24016,334.84822],[0.02592,-2.1619],[1.7214,-2.17101]],[[427.0881,337.57476],[-2.52407,-5.02607],[0,0]],[[426.41728,339.58723],[1.34164,-0.67082],[-1.34164,0.67082]],[[424.40482,338.91641],[0,0],[-3.5685,-7.17245]],[[425.6912,345.0351],[-6.84351,1.55937],[0,0]],[425.65546,344.07379]],&quot;closed&quot;:true}]}" fill="#fff1e2"/><path d="M219.44346,156.08893c-0.9039,1.80935 -3.35083,6.63949 -5.80961,6.74322c-3.47065,0.14643 -4.19274,-4.01462 -4.11253,-6.53045c-0.1826,-3.53773 0.11042,-8.2385 2.33026,-11.2024c2.55959,-3.41753 8.93358,-4.76485 12.70971,-6.12441c8.5751,-2.91122 19.09893,-0.96897 27.92417,-0.44466c4.40287,0.26158 9.52843,-0.13183 13.76542,1.09553c3.94975,1.14416 7.33731,3.68763 11.26603,4.86947c-0.93881,0.34497 -1.76869,1.05738 -2.6824,1.493c-1.70247,0.81167 -3.70658,1.38791 -5.50979,1.93302c-3.962,1.19771 -8.28609,-0.3996 -12.27088,0.15404c-2.57805,-0.16121 -5.02091,0.40128 -7.62152,0.39337c-6.45479,-0.01963 -12.86992,-0.72439 -19.31316,-1.10718c-5.7818,-0.33191 -8.77445,3.36223 -10.32247,8.37077c-0.2353,0.12209 -0.35319,0.35668 -0.35319,0.35668z" data-paper-data="{&quot;noHover&quot;:false,&quot;origItem&quot;:[&quot;Path&quot;,{&quot;applyMatrix&quot;:true,&quot;segments&quot;:[[[435.22821,310.77181],[-0.45531,0.27165],[2.49651,-10.18306]],[[454.84329,292.78867],[-11.58263,0.02314],[12.90919,0]],[[493.71915,292.68408],[-12.88919,0.72643],[5.19302,-0.29268]],[[508.89608,291.01306],[-5.16613,-0.01606],[7.8899,-1.57798]],[[533.18205,289.29631],[-7.768,2.86114],[3.53543,-1.30218]],[[543.95374,284.78733],[-3.30268,1.82242],[1.77254,-0.97809]],[[549.13272,281.49131],[-1.83341,0.80008],[-7.98378,-1.89352]],[[526.07315,273.1311],[8.02131,1.8158],[-8.60463,-1.94785]],[[498.49374,272.61079],[8.82125,0],[-17.68159,0]],[[442.93692,276.7756],[16.77469,-6.82929],[-7.3777,3.16222]],[[418.30087,290.47412],[4.7048,-7.12662],[-4.08031,6.18067]],[[414.97597,313.082],[-0.78417,-7.04133],[0.13829,5.03232]],[[423.95413,325.61097],[-6.91171,0.704],[4.89662,-0.49875]],[[434.56569,311.52694],[-1.58999,3.71954],[0,0]]],&quot;closed&quot;:true}]}" fill="#442300"/><path d="M233.74039,155.61902c0.74868,0.04448 0.7042,0.79316 0.7042,0.79316l-0.00138,0.01005c3.7267,0.23144 7.22093,1.37164 9.4233,3.5959c0.31563,0.4333 0.65127,0.85293 1.00764,1.25339l0.38509,0.56881c0,0 0.41362,0.62563 -0.21201,1.03926c-0.62563,0.41362 -1.03926,-0.21201 -1.03926,-0.21201l-0.25553,-0.40017c-0.36301,-0.40973 -0.70901,-0.83566 -1.02996,-1.27911c-0.2906,-0.29587 -0.61052,-0.56927 -0.9561,-0.82085c-0.25711,2.65718 -0.8901,5.30585 -1.50931,7.894c-0.19849,0.82969 -0.60889,2.73182 -1.42588,3.18849c-3.48728,1.94925 -4.61754,-3.73234 -4.90535,-5.79728c-0.09577,-2.3958 -0.35579,-5.1786 -0.83702,-7.5927c-4.54844,-0.00509 -9.29555,1.34543 -11.85106,3.65166c0,0 -0.56085,0.49794 -1.05879,-0.0629c-0.49794,-0.56085 0.0629,-1.05879 0.0629,-1.05879c2.90347,-2.54298 7.87877,-4.00295 12.70411,-4.01222l0.00123,-0.05447c0,0 0.04448,-0.74868 0.79316,-0.7042zM235.41989,165.31905c0.11234,0.81153 0.73579,5.68314 2.6191,4.65716c0.51244,-0.27917 0.83053,-2.68551 0.92786,-3.25456c0.42976,-2.51258 1.17937,-4.86066 1.36498,-7.4089c-1.63988,-0.79808 -3.62445,-1.25071 -5.7111,-1.39848c0.44155,2.39018 0.70375,5.06165 0.79916,7.40479z" fill="#000000"/><path d="M234.60175,157.868c2.08665,0.14777 4.11795,0.60507 5.75783,1.40315c-0.18562,2.54824 -0.93466,4.97912 -1.36441,7.4917c-0.09733,0.56905 -0.43629,2.98363 -0.94873,3.26279c-1.88331,1.02598 -2.55487,-3.86597 -2.66721,-4.6775c-0.09541,-2.34314 -0.33593,-5.08995 -0.77747,-7.48013z" data-paper-data="{&quot;noHover&quot;:false,&quot;origItem&quot;:[&quot;Path&quot;,{&quot;applyMatrix&quot;:true,&quot;segments&quot;:[[[467.65372,328.03382],[-0.4684,-4.66672],[0.32053,1.60687]],[[473.4351,337.02108],[-3.6383,2.27174],[0.98996,-0.61813]],[[474.90152,330.41336],[-0.12682,1.14764],[0.55997,-5.06727]],[[476.74791,315.45975],[-0.06834,5.10952],[-3.36864,-1.39885]],[[465.17993,313.3451],[4.18347,0.04753],[1.16504,4.71959]]],&quot;closed&quot;:true}]}" fill="#00ffe2"/><path d="M250.34512,172.94976c0.04298,-0.72341 0.74344,-0.70629 0.79066,-0.70432c0.28384,-0.18752 0.5396,-0.42199 0.76623,-0.6783l-0.12828,-0.14609c-0.38766,-0.52632 -0.75344,-1.06914 -1.10145,-1.62248c0,0 -0.39897,-0.63507 0.23611,-1.03404c0.63508,-0.39897 1.03405,0.23611 1.03405,0.23611c0.32764,0.52216 0.67241,1.03424 1.03855,1.53016l0.28442,0.31571c0,0 0.3248,0.36583 0.15429,0.76889c0.09286,0.35211 -0.15932,0.66423 -0.15932,0.66423c-0.44101,0.53389 -0.9629,1.01921 -1.55638,1.376l-0.65468,0.08729c0,0 -0.74868,-0.04448 -0.7042,-0.79316zM251.10335,172.26659l-0.15592,0.09382c0.05286,-0.02966 0.10484,-0.06097 0.15592,-0.09382z" fill="#000000"/></g><g stroke="none" stroke-width="0.5" stroke-linecap="butt"><path d="M249.25652,177.82636c0.66487,-0.34705 1.01192,0.31782 1.01192,0.31782l0.02315,0.29775c0.84674,0.48854 1.41505,0.82903 2.37426,0.99847c0,0 0.63464,0.11791 0.61699,0.72374c0.21646,0.0076 0.64401,0.09358 0.72048,0.64393c0.10322,0.74286 -0.63965,0.84607 -0.63965,0.84607c-2.65629,0.35902 -5.53733,-0.13578 -8.2099,-0.29455c-1.72788,-0.10265 -3.53787,-0.14339 -5.36164,-0.23338c-1.6065,2.32616 -3.42443,2.55268 -6.25451,3.45902c-3.25911,-0.15712 -7.07458,0.04516 -8.9715,-3.17341c-0.93946,-1.59402 -1.50372,-4.4642 -0.90185,-6.36877c-0.13597,0.1794 -0.4354,0.44756 -0.91211,0.22322c-0.67861,-0.31936 -0.35927,-0.99796 -0.35927,-0.99796c0.43517,-0.85225 1.21444,-1.58254 2.09051,-1.9675l1.03073,0.17545c0,0 0.73486,0.14992 0.58496,0.88478c-0.05981,0.29321 -0.21276,0.44557 -0.37498,0.52278c0.213,0.28084 0.405,0.60747 0.62309,0.8454c1.1665,1.27265 1.46561,2.00513 3.11813,2.82756c2.87183,1.45918 6.29704,1.8792 9.69557,2.05966l0.61775,-0.25746c0,0 0.3858,0.02292 0.58705,0.3128c1.6723,0.06669 3.32131,0.09801 4.87704,0.19043c1.70388,0.10123 3.52191,0.36494 5.29654,0.42227c-0.32017,-0.15818 -0.6429,-0.33911 -0.99689,-0.54306l-0.60369,-0.90314c0,0 -0.34705,-0.66487 0.31782,-1.01192zM237.97654,181.01643c-3.21276,-0.23734 -6.39794,-0.74143 -9.18282,-2.11841c-0.93241,-0.46945 -2.93988,-1.5914 -3.61267,-2.92594c0.0016,0.09041 0.00092,0.17085 -0.0025,0.23453c-0.09117,1.6995 -0.19929,2.92099 0.67981,4.44352c1.51717,2.62758 4.89103,2.25595 7.48347,2.44794c2.09343,-0.7282 3.43901,-0.81111 4.63472,-2.08163z" fill="#000000"/><path d="M233.36548,183.1421c-2.59245,-0.192 -6.03924,0.14403 -7.55641,-2.48356c-0.8791,-1.52252 -0.76551,-2.77651 -0.67434,-4.47602c0.00342,-0.06368 0.09105,-0.09475 0.08945,-0.18516c0.67279,1.33454 2.68518,2.44509 3.61759,2.91454c2.78488,1.37698 5.971,1.87726 9.18376,2.1146c-1.19571,1.27051 -2.5666,1.38739 -4.66003,2.11559z" data-paper-data="{&quot;noHover&quot;:false,&quot;origItem&quot;:[&quot;Path&quot;,{&quot;applyMatrix&quot;:true,&quot;segments&quot;:[[[474.61991,359.07007],[-2.23651,2.67839],[-6.44236,-0.09279]],[[456.03533,355.92989],[5.72328,2.41879],[-1.91721,-0.82666]],[[448.47564,350.51681],[1.50151,2.58458],[0.01392,0.18031]],[[448.49847,350.98535],[-0.00073,-0.12755],[0.01957,3.40385]],[[450.38274,359.7761],[-1.9357,-2.93541],[3.34066,5.06596]],[[465.6137,363.77573],[-5.19854,-0.07582],[4.09313,-1.70213]]],&quot;closed&quot;:true}]}" fill="#ffffff"/></g><g stroke="none" stroke-width="0.5" stroke-linecap="butt"><path d="M218.02073,197.30593c1.4007,4.15701 1.06107,10.63044 0.14443,14.89467c-0.35663,1.65905 -2.09196,3.65228 -1.39127,5.3326c0.72738,1.05549 1.47774,0.75406 2.23753,1.60772c1.03815,1.16643 0.12079,2.12813 2.11803,2.26156c1.12634,0.07525 2.18582,-1.57484 3.40209,-0.70375c0.46045,0.32978 0.14562,1.59564 0.29124,2.10448c0.08362,0.2922 0.34735,-0.49955 0.50153,-0.76148c0.3687,-0.62639 0.681,-1.28584 0.97236,-1.95174c0.7772,-1.77627 0.94576,-3.17685 0.67371,-5.08119c0.00812,-4.63643 -2.5532,-9.04371 -3.08132,-13.6271c-0.23299,-2.02207 -0.04341,-4.20592 -0.00971,-6.27201c-1.99197,0.38214 -3.88231,0.62179 -6.00108,0.62179c-0.0319,-0.00079 -0.06355,-0.00183 -0.09497,-0.00314c0.08508,0.52494 0.16382,1.05094 0.23743,1.5776zM225.37942,201.21197c0.531,4.61856 3.07931,9.00999 3.08718,13.69051c0.40298,2.82085 -0.27272,5.55065 -1.87879,7.94769c-0.40089,0.59833 -1.41114,1.92123 -2.43585,1.29469c-1.44439,-0.88315 -1.06701,-1.56146 -0.58998,-2.30159c0.28895,-0.44831 -0.83355,0.70637 -1.33945,0.87532c-0.91952,0.30709 -1.86645,0.21685 -2.75896,-0.1837c-1.45218,-0.65171 -0.79738,-1.47969 -1.5435,-2.36492c-0.62858,-0.74576 -1.7025,-0.87761 -2.46227,-1.91713c-0.95323,-2.43929 0.75431,-4.08401 1.25237,-6.41691c0.87136,-4.08138 1.16413,-10.20645 -0.14931,-14.18536c-0.09519,-0.65367 -0.19496,-1.30674 -0.3036,-1.95831l-0.0102,-0.27017c0,0 0,-0.01128 0.00138,-0.03108c-3.62703,-1.63688 -1.65973,-8.66703 1.51935,-10.58775c1.95753,-1.18268 4.1305,0.29998 6.07553,0.94832c0,0 0.71151,0.23717 0.47434,0.94868c-0.10013,0.30038 -0.2848,0.43168 -0.46478,0.48312c0.99362,1.62466 4.58481,4.94633 3.60613,7.04259c-0.14767,0.31631 -1.4913,0.48005 -2.07597,0.57955c-0.0184,2.09766 -0.2409,4.34267 -0.00363,6.40646zM222.12484,186.63532c-1.01317,-0.47668 -2.19204,-1.02816 -2.96009,-0.89926c-3.07465,0.51601 -5.17575,8.63015 -1.28647,8.49542c2.49615,0 4.62261,-0.34746 7.04385,-0.8655c0.42165,-0.09021 1.27988,0.45209 1.2934,0.02111c0.04811,-1.53352 -2.92338,-4.22964 -3.72186,-5.56265l-0.31821,-0.78907c0,0 -0.07346,-0.18365 -0.05062,-0.40005z" fill="#000000"/><path d="M222.19415,186.98899l0.32816,0.79447c0.79848,1.333 3.78318,4.09744 3.73507,5.63096c-0.01352,0.43098 -0.87575,-0.106 -1.2974,-0.01579c-2.42125,0.51803 -4.61508,0.87321 -7.11123,0.87321c-3.88928,0.13473 -1.77845,-8.06569 1.29621,-8.58171c0.76805,-0.1289 1.98279,0.42116 2.99595,0.89784c-0.02284,0.2164 0.05323,0.40102 0.05323,0.40102z" data-paper-data="{&quot;noHover&quot;:false,&quot;origItem&quot;:[&quot;Path&quot;,{&quot;applyMatrix&quot;:true,&quot;segments&quot;:[[[222.12484,186.63532],[-0.02284,0.2164],[-1.01317,-0.47668]],[[219.16474,185.73606],[0.76805,-0.1289],[-3.07465,0.51601]],[[217.87827,194.23148],[-3.88928,0.13473],[2.49615,0]],[[224.92212,193.36598],[-2.42125,0.51803],[0.42165,-0.09021]],[[226.21552,193.38708],[-0.01352,0.43098],[0.04811,-1.53352]],[[222.49366,187.82444],[0.79848,1.333],[0,0]],[222.17545,187.03536]],&quot;closed&quot;:true}]}" fill="#0032ff"/><path d="M217.76864,195.68053c0.03141,0.00131 0.06338,0.00226 0.09528,0.00305c2.11877,0 4.03069,-0.24122 6.02266,-0.62336c-0.0337,2.06609 -0.21757,4.25112 0.01542,6.27319c0.52811,4.58339 3.10888,9.07706 3.10076,13.71349c0.27205,1.90434 0.08968,3.31325 -0.68751,5.08952c-0.29136,0.66589 -0.60939,1.32725 -0.97809,1.95364c-0.15417,0.26193 -0.42025,1.05424 -0.50387,0.76204c-0.14561,-0.50884 0.16986,-1.77484 -0.29059,-2.10462c-1.21627,-0.87109 -2.28981,0.78017 -3.41615,0.70492c-1.99724,-0.13343 -1.09044,-1.0969 -2.12859,-2.26333c-0.75979,-0.85366 -1.52222,-0.55739 -2.2496,-1.61289c-0.7007,-1.68032 1.02248,-3.68367 1.37911,-5.34273c0.91664,-4.26423 1.27839,-10.81803 -0.12231,-14.97504c-0.0736,-0.52666 -0.15143,-1.05295 -0.23651,-1.57789z" data-paper-data="{&quot;noHover&quot;:false,&quot;origItem&quot;:[&quot;Path&quot;,{&quot;applyMatrix&quot;:true,&quot;segments&quot;:[[[218.02073,197.30593],[-0.0736,-0.52666],[1.4007,4.15701]],[[218.16516,212.20061],[0.91664,-4.26423],[-0.35663,1.65905]],[[216.77389,217.5332],[-0.7007,-1.68032],[0.72738,1.05549]],[[219.01142,219.14092],[-0.75979,-0.85366],[1.03815,1.16643]],[[221.12945,221.40249],[-1.99724,-0.13343],[1.12634,0.07525]],[[224.53154,220.69874],[-1.21627,-0.87109],[0.46045,0.32978]],[[224.82278,222.80322],[-0.14561,-0.50884],[0.08362,0.2922]],[[225.3243,222.04174],[-0.15417,0.26193],[0.3687,-0.62639]],[[226.29666,220.09],[-0.29136,0.66589],[0.7772,-1.77627]],[[226.97037,215.00881],[0.27205,1.90434],[0.00812,-4.63643]],[[223.88905,201.3817],[0.52811,4.58339],[-0.23299,-2.02207]],[[223.87934,195.10969],[-0.0337,2.06609],[-1.99197,0.38214]],[[217.87827,195.73148],[2.11877,0],[-0.0319,-0.00079]],[[217.7833,195.72833],[0.03141,0.00131],[0.08508,0.52494]]],&quot;closed&quot;:true}]}" fill="#fff1e2"/></g></g></g></svg>