<svg version="1.1" xmlns="http://www.w3.org/2000/svg" xmlns:xlink="http://www.w3.org/1999/xlink" width="126.77014" height="132.56206" viewBox="0,0,126.77014,132.56206"><g transform="translate(-176.61493,-113.71898)"><g data-paper-data="{&quot;isPaintingLayer&quot;:true}" fill-rule="nonzero" stroke="none" stroke-linecap="butt" stroke-linejoin="miter" stroke-miterlimit="10" stroke-dasharray="" stroke-dashoffset="0" style="mix-blend-mode: normal"><path d="M252.30231,204.76678c0,0 -0.19718,0.00013 -0.38914,0.10091c-0.92198,-0.19076 -1.85546,-0.38714 -2.65542,-0.79947c0,0 -0.67197,-0.33515 -1.00738,0.33567c-0.06587,0.13172 -0.09311,0.25056 -0.09407,0.35642c-0.72914,0.14651 -1.56779,0.53729 -2.37178,1.0882c-0.17747,-0.08012 -0.34669,-0.08007 -0.34669,-0.08007l-0.42903,0.00007c-1.40795,0 -2.82052,-0.00153 -4.22846,0.00299c-3.39946,-0.57764 -7.10572,-0.19953 -10.4428,-1.11848c-2.42393,-0.66749 -4.72994,-1.61952 -7.11587,-2.42006c-5.02671,-1.67352 -11.96293,-3.37174 -15.77784,-7.164c-4.36516,-2.92746 -7.51787,-6.9093 -10.21619,-11.34827c0.17767,-0.06649 0.43908,-0.1973 0.60947,-0.29789c0.58575,1.73105 1.43589,3.30486 2.675,4.54733l0.35852,0.49058c0,0 0.44952,0.59936 1.04952,0.14936c0.6,-0.45 0.07008,-0.9899 0.07008,-0.9899l-0.49877,-0.65249c-3.25971,-3.24997 -3.50156,-9.28668 -3.50156,-13.62648c0,-2.19356 -0.08262,-4.78847 0.1842,-7.29423c0.13425,-0.10956 0.24242,-0.2869 0.24242,-0.57184c0,-0.18594 -0.04616,-0.32632 -0.1155,-0.4315c0.09921,-0.66793 0.2277,-1.32772 0.39428,-1.96533c0.05769,-0.04863 0.11372,-0.11121 0.16642,-0.19026c0.18107,-0.2716 0.16508,-0.50465 0.08931,-0.6803c0.39669,-1.20415 0.95235,-2.32073 1.72941,-3.27226c0,0 0.4686,-0.58702 -0.11705,-1.05554c-0.58565,-0.46852 -0.95439,0.12375 -0.95439,0.12375c-0.74893,0.95149 -1.31289,2.01569 -1.73757,3.15696c-1.21787,-0.94292 -2.88532,-1.52177 -4.59809,-1.79839c0,-0.33918 0.00004,-0.67949 0.00004,-1.01867c0.57143,-0.10844 0.57148,-0.73493 0.57148,-0.73493c-0.00579,-1.80128 0.69788,-3.30632 0.99101,-5.02839c0.59398,-3.4895 0.97694,-6.78912 2.11738,-10.17969c2.07626,-6.27516 4.80753,-10.54654 8.85831,-15.61002c1.47556,-1.47556 2.8016,-3.37717 4.48465,-4.63193c3.26303,-2.43268 6.86231,-4.12622 10.30588,-6.2069c0.3136,-0.12435 1.61962,-0.83643 1.80355,-0.79508c0.10172,0.02286 1.35552,1.40029 1.50867,1.53813c1.58688,1.4282 3.03816,2.89063 4.54471,4.39904c0.43497,0.4355 1.51422,1.84546 2.1024,2.01926c1.77389,0.52418 2.79785,-1.40491 4.34041,-2.02194c3.44404,-2.05645 7.60572,-3.35255 11.59074,-3.63748c2.32303,-0.16609 3.3634,-1.07796 4.07714,1.41794c0.19949,1.18787 0.97624,5.38458 1.96559,6.12312c0.99136,0.74005 2.3484,-0.15697 3.15948,-0.64209c1.88546,-1.12773 6.38068,-3.84981 7.80564,-1.4492c2.38266,5.99765 7.89248,9.2336 11.09528,14.5716c3.45151,3.45151 5.80084,9.31449 6.57248,14.10702l-0.01007,0.59164c0,0 0.00018,0.75099 0.75018,0.75099c0.03809,0 0.07424,-0.00193 0.10857,-0.0056c-0.57557,0.25183 -1.13451,0.49091 -1.67275,0.70258c0,0 -0.20878,0.06021 -0.32392,0.15705c-0.69969,-0.96973 -1.45283,-1.87062 -2.25086,-2.68547c0,0 -0.43318,-0.55403 -0.96351,-0.0237c-0.53033,0.53033 0.0003,1.06195 0.0003,1.06195c3.45484,3.35892 6.00472,8.88792 6.79137,13.60948c0.52182,3.07091 0.66697,6.61468 0.14796,9.89351l-0.22655,0.1775c0,0 -0.52812,0.52877 -0.00417,1.05781c-0.21888,1.01182 -0.50915,1.99206 -0.87767,2.9122l-0.21354,0.29143c0,0 -0.4164,0.62485 0.20764,1.04087c0.62404,0.41602 0.94925,-0.24989 0.94925,-0.24989l0.19331,-0.1204c-0.79928,3.52489 -2.36994,6.77162 -3.64336,10.19889c-4.21473,4.02278 -9.01539,6.42871 -14.43328,8.60965c-3.96199,2.36276 -8.66626,5.21427 -13.39475,5.21427z" data-paper-data="{&quot;noHover&quot;:false,&quot;origItem&quot;:[&quot;Path&quot;,{&quot;applyMatrix&quot;:true,&quot;segments&quot;:[[[252.28761,204.719],[0,0],[4.72849,0]],[[265.66862,199.5114],[-3.96199,2.36276],[5.41789,-2.18094]],[[280.09005,190.91327],[-4.21473,4.02278],[1.27342,-3.42727]],[[283.7281,180.7235],[-0.79928,3.52489],[0,0]],[283.62594,180.88502],[[282.58588,181.09303],[0.62404,0.41602],[-0.62404,-0.41602]],[282.37787,180.05297],[[282.59126,179.76188],[0,0],[0.36852,-0.92014]],[[283.46775,176.85262],[-0.21888,1.01182],[-0.52395,-0.52904]],[283.47157,175.7958],[[283.69804,175.61854],[0,0],[0.51901,-3.27883]],[[283.54782,165.73515],[0.52182,3.07091],[-0.78665,-4.72156]],[[276.75728,152.14218],[3.45484,3.35892],[0,0]],[[276.75728,151.08152],[-0.53033,0.53033],[0.53033,-0.53033]],[[277.81794,151.08152],[0,0],[0.79803,0.81485]],[[280.06954,153.77066],[-0.69969,-0.96973],[0.11514,-0.09684]],[[280.29478,153.62978],[0,0],[0.53824,-0.21167]],[[281.96761,152.92767],[-0.57557,0.25183],[-0.03433,0.00367]],[[281.85904,152.93328],[0.03809,0],[-0.75,0]],[281.10904,152.18328],[[281.11924,151.59229],[0,0],[-0.77164,-4.79253]],[[274.5536,137.50198],[3.45151,3.45151],[-3.2028,-5.338]],[[263.47286,122.94512],[2.38266,5.99765],[-1.42496,-2.40061]],[[255.67347,124.39783],[1.88546,-1.12773],[-0.81108,0.48512]],[[252.51711,125.04126],[0.99136,0.74005],[-0.98935,-0.73854]],[[250.55597,118.91964],[0.19949,1.18787],[-0.71374,-2.4959]],[[246.48363,117.50282],[2.32303,-0.16609],[-3.98502,0.28493]],[[234.90659,121.14088],[3.44404,-2.05645],[-1.54256,0.61703]],[[230.57202,123.16191],[1.77389,0.52418],[-0.58818,-0.1738]],[[228.47156,121.14219],[0.43497,0.4355],[-1.50655,-1.50841]],[[223.93027,116.74213],[1.58688,1.4282],[-0.15315,-0.13784]],[[222.42252,115.20368],[0.10172,0.02286],[-0.18393,-0.04135]],[[220.62088,115.99803],[0.3136,-0.12435],[-3.44357,2.08068]],[[210.32595,122.19879],[3.26303,-2.43268],[-1.68305,1.25476]],[[205.84646,126.82633],[1.47556,-1.47556],[-4.05078,5.06348]],[[196.99912,142.42045],[2.07626,-6.27516],[-1.14044,3.39057]],[[194.88507,152.58913],[0.59398,-3.4895],[-0.29313,1.72207]],[[193.89475,157.61185],[-0.00579,-1.80128],[0,0]],[[193.32332,158.34593],[0.57143,-0.10844],[0,0.33918]],[[193.32332,159.36348],[0,-0.33918],[1.71277,0.27662]],[[197.82143,161.16143],[-1.21787,-0.94292],[0.42468,-1.14127]],[[199.5591,158.00047],[-0.74893,0.95149],[0,0]],[[200.61327,157.88334],[-0.58565,-0.46852],[0.58565,0.46852]],[[200.7304,158.93751],[0,0],[-0.77706,0.95153]],[[199.00099,162.20557],[0.39669,-1.20415],[0.07577,0.17565]],[[198.91164,162.88502],[0.18107,-0.2716],[-0.0527,0.07905]],[[198.74521,163.07506],[0.05769,-0.04863],[-0.16658,0.63761]],[[198.35072,165.03802],[0.09921,-0.66793],[0.06934,0.10518]],[[198.46616,165.46898],[0,-0.18594],[0,0.28494]],[[198.22366,166.04017],[0.13425,-0.10956],[-0.26682,2.50576]],[[198.0376,173.32613],[0,-2.19356],[0,4.3398]],[[201.53221,186.93866],[-3.25971,-3.24997],[0,0]],[202.03045,187.59042],[[201.88045,188.64042],[0.6,-0.45],[-0.6,0.45]],[200.83045,188.49042],[[200.47155,187.99932],[0,0],[-1.23911,-1.24247]],[[197.79353,183.44725],[0.58575,1.73105],[-0.17039,0.10059]],[[197.27128,183.69623],[0.17767,-0.06649],[2.69832,4.43897]],[[207.47737,195.03184],[-4.36516,-2.92746],[3.81491,3.79226]],[[223.23905,202.18605],[-5.02671,-1.67352],[2.38593,0.80054]],[[230.34683,204.60387],[-2.42393,-0.66749],[3.33708,0.91895]],[[240.77803,205.72154],[-3.39946,-0.57764],[1.40794,-0.00452]],[[245.00188,205.71898],[-1.40795,0],[0,0]],[245.43045,205.71898],[[245.77678,205.7991],[-0.17747,-0.08012],[0.80399,-0.55091]],[[248.14583,204.71141],[-0.72914,0.14651],[0.00096,-0.10586]],[[248.23972,204.35503],[-0.06587,0.13172],[0.33541,-0.67082]],[[249.24595,204.01962],[0,0],[0.79996,0.41233]],[[251.89888,204.81976],[-0.92198,-0.19076],[0.19196,-0.10078]],[252.2876,204.71898]],&quot;closed&quot;:true,&quot;fillColor&quot;:[0,0,0],&quot;strokeWidth&quot;:0.5}]}" fill="#9a8479" stroke-width="0.25"/><path d="M285.32666,174.88426c0.00133,0.00033 0.00267,0.00067 0.00399,0.00101c3.49539,-2.10996 7.4123,-4.36244 10.51373,-7.25055c-0.02105,-0.09644 -0.02105,-0.16571 -0.02105,-0.16571l0.0102,-0.44813c-0.17843,-1.10822 -0.64702,-1.83291 -1.2178,-2.79003c-1.83411,-4.6929 -6.96861,-6.18727 -11.44959,-4.9604c0.8789,2.04674 1.51963,4.16906 1.86127,6.21811c0.48242,2.94434 0.65283,6.24111 0.27968,9.39099c0.00648,0.00149 0.013,0.00306 0.01957,0.0047zM281.34232,191.73902c-4.22141,4.35846 -9.39159,6.8853 -15.00714,9.11616c-3.31909,2.00547 -7.13513,4.23124 -11.06722,5.04436c3.07977,1.52645 5.93293,4.51591 6.5854,7.7318c0.01954,5.12765 -6.01463,6.80732 -9.1238,2.82178l-0.3463,-0.17948c0,0 -0.34263,-0.22841 -0.35087,-0.60062c-0.99305,0.03666 -2.00056,-0.15868 -2.8887,-0.57194c0.87716,2.49691 1.2757,5.23991 1.2757,7.82857c0,2.36038 -0.02318,4.91823 0.44554,7.23612c0.3211,1.58787 1.73795,2.24636 1.63172,4.02136c-0.1814,3.03103 -3.36842,3.04595 -5.47284,2.00375c-4.33168,-2.22475 -4.53824,-8.20406 -4.56699,-12.81116c-1.48066,0.20463 -1.97116,0.29389 -1.97116,1.97561c0,4.01388 -0.28569,8.14006 0.44929,12.10618c0.38418,2.07315 1.94098,3.61526 1.9745,5.73528c-0.58558,4.10362 -5.27922,3.53792 -8.09347,1.61122c-3.26242,-2.23352 -3.97607,-5.1493 -3.43738,-8.86682c1.29093,-4.40161 1.95873,-10.21642 1.94715,-14.85954c0,-0.00009 0,-0.00012 0,-0.00012v-0.46203c0.00532,-2.1314 -0.44046,-3.67784 -1.28473,-5.27458c-0.06497,3.54836 -0.3596,7.15774 -0.33561,10.63073l0.03795,0.19937c0.5839,1.2001 0.54121,2.26036 0.54121,3.56964c0,0 0,0.6267 -0.57287,0.73435c-0.68657,0.35626 -1.64611,1.31982 -2.42152,1.29875c-0.15394,-0.00418 -0.7352,-0.41476 -1.17408,-0.80904c-0.13915,0.68887 -0.73797,1.63614 -0.84532,1.71563c-2.06021,1.5255 -5.12494,-0.25283 -4.7368,-2.61429c0,-5.01014 2.57047,-11.14 4.4107,-15.78887c-0.001,-0.21137 0.08384,-0.38106 0.08384,-0.38106c1.03243,-1.90754 0.32913,-4.62221 1.22396,-6.68872c0.27826,-0.6426 0.5906,-1.10895 0.91841,-1.38276c-2.16834,-0.64726 -4.25074,-1.50637 -6.40616,-2.21953c-5.16654,-1.72419 -12.3325,-3.48612 -16.23832,-7.41722c-4.61453,-3.05654 -7.92375,-7.35911 -10.73906,-12.05128c0,0 -0.04185,-0.06974 -0.07501,-0.17708c-0.64123,0.01954 -1.31046,-0.02954 -1.99616,-0.03022c-4.11265,-0.00406 -8.16198,-2.66167 -11.47549,-4.88428c-1.68819,-1.67427 -3.53874,-3.4227 -4.74394,-5.48811c-2.25424,-3.8632 0.1801,-8.98839 3.17948,-11.39184c2.5303,-1.97845 7.06718,-3.22069 11.14709,-2.97031c0,-0.51648 0,-1.026 0,-1.44404c0,0 0,-0.64348 0.59604,-0.73837c0.12831,-1.62996 0.72413,-3.05976 0.98507,-4.66748c0.5801,-3.57411 1.02477,-6.93449 2.17166,-10.40274c1.14462,-3.41143 2.37223,-7.07536 4.21639,-10.15713c1.32419,-2.21285 3.31748,-3.93953 4.93628,-5.96303c1.53883,-1.53883 2.91421,-3.4824 4.66336,-4.80103c3.33311,-2.51274 7.01728,-4.25662 10.56221,-6.37067c0.59957,-0.24152 2.15239,-1.05676 2.76979,-0.91994c0.49976,0.11075 1.78122,1.50734 2.20654,1.89012c1.96157,1.76541 3.97728,4.8211 6.21539,6.15165c0.21242,0.12628 2.50914,-1.74503 3.094,-1.97897c3.58895,-2.16461 7.97613,-3.49359 12.13725,-3.79052c1.14295,-0.08156 2.9372,-0.72455 4.05446,-0.23051c1.0961,0.48468 1.30442,1.82221 1.58749,2.81369c0.27522,1.66455 0.85395,3.85003 1.46742,5.30695c0.20934,0.49715 0.95292,-0.50692 1.41506,-0.78514c0.77678,-0.46765 1.53669,-0.95057 2.36434,-1.32677c2.601,-1.18227 5.85082,-2.31822 7.55055,0.49377c2.36552,5.87643 7.76717,9.04678 10.91927,14.30028c3.6402,3.64021 6.00027,9.73301 6.86293,14.76683l0.0102,0.83759c0,0 0,0.34169 -0.23064,0.56381c4.13329,-1.82379 9.04843,-4.14915 13.24462,-2.09177c2.03261,1.01773 6.68993,2.75216 7.51517,4.99399c1.0116,2.74811 -1.30599,7.19106 -2.95945,9.26237c-3.31281,4.97682 -9.21706,8.35742 -14.27215,11.37205c-0.05193,0.02095 -0.10386,0.04188 -0.15579,0.06282c-0.05916,5.56903 -2.3418,10.46518 -4.40849,15.39245zM252.28761,204.71901c4.72849,0 9.41902,-2.84484 13.38101,-5.2076c5.41789,-2.18094 10.2067,-4.57535 14.42143,-8.59813c1.27342,-3.42727 2.83877,-6.66488 3.63805,-10.18977l-0.10216,0.16152c0,0 -0.41602,0.62403 -1.04006,0.20801c-0.62404,-0.41602 -0.20801,-1.04006 -0.20801,-1.04006l0.21339,-0.29109c0.36852,-0.92014 0.65761,-1.89744 0.87649,-2.90926c-0.52395,-0.52904 0.00382,-1.05682 0.00382,-1.05682l0.22647,-0.17726c0.51901,-3.27883 0.3716,-6.81248 -0.15022,-9.88339c-0.78665,-4.72156 -3.3357,-10.23405 -6.79054,-13.59297c0,0 -0.53033,-0.53033 0,-1.06066c0.53033,-0.53033 1.06066,0 1.06066,0c0.79803,0.81485 1.55191,1.71941 2.2516,2.68914c0.11514,-0.09684 0.22524,-0.14088 0.22524,-0.14088c0.53824,-0.21167 1.09726,-0.45028 1.67283,-0.70211c-0.03433,0.00367 -0.07048,0.00561 -0.10857,0.00561c-0.75,0 -0.75,-0.75 -0.75,-0.75l0.0102,-0.59099c-0.77164,-4.79253 -3.11413,-10.6388 -6.56564,-14.09031c-3.2028,-5.338 -8.69808,-8.55921 -11.08074,-14.55686c-1.42496,-2.40061 -5.91393,0.32498 -7.79939,1.45271c-0.81108,0.48512 -2.165,1.38348 -3.15636,0.64343c-0.98935,-0.73854 -1.76165,-4.93375 -1.96114,-6.12162c-0.71374,-2.4959 -1.74931,-1.58291 -4.07234,-1.41682c-3.98502,0.28493 -8.133,1.58161 -11.57704,3.63806c-1.54256,0.61703 -2.56068,2.54521 -4.33457,2.02103c-0.58818,-0.1738 -1.66549,-1.58422 -2.10046,-2.01972c-1.50655,-1.50841 -2.95441,-2.97186 -4.54129,-4.40006c-0.15315,-0.13784 -1.40603,-1.51559 -1.50775,-1.53845c-0.18393,-0.04135 -1.48804,0.67 -1.80164,0.79435c-3.44357,2.08068 -7.0319,3.76808 -10.29493,6.20076c-1.68305,1.25476 -3.00393,3.15198 -4.47949,4.62754c-4.05078,5.06348 -6.77108,9.31896 -8.84734,15.59412c-1.14044,3.39057 -1.52007,6.67918 -2.11405,10.16868c-0.29313,1.72207 -0.99611,3.22144 -0.99032,5.02272c0,0 0,0.62564 -0.57143,0.73408c0,0.33918 0,0.67837 0,1.01755c1.71277,0.27662 3.28024,0.85503 4.49811,1.79795c0.42468,-1.14127 0.98874,-2.20947 1.73767,-3.16096c0,0 0.46852,-0.58565 1.05417,-0.11713c0.58565,0.46852 0.11713,1.05417 0.11713,1.05417c-0.77706,0.95153 -1.33272,2.06391 -1.72941,3.26806c0.07577,0.17565 0.09172,0.40785 -0.08935,0.67945c-0.0527,0.07905 -0.10874,0.14141 -0.16643,0.19004c-0.16658,0.63761 -0.29528,1.29503 -0.39449,1.96296c0.06934,0.10518 0.11544,0.24502 0.11544,0.43096c0,0.28494 -0.10825,0.46163 -0.2425,0.57119c-0.26682,2.50576 -0.18606,5.0924 -0.18606,7.28596c0,4.3398 0.2349,10.36256 3.49461,13.61253l0.49824,0.65176c0,0 0.45,0.6 -0.15,1.05c-0.6,0.45 -1.05,-0.15 -1.05,-0.15l-0.3589,-0.4911c-1.23911,-1.24247 -2.09227,-2.82102 -2.67802,-4.55207c-0.17039,0.10059 -0.34458,0.18249 -0.52225,0.24898c2.69832,4.43897 5.84093,8.40815 10.20609,11.33561c3.81491,3.79226 10.73497,5.48069 15.76168,7.15421c2.38593,0.80054 4.68385,1.75033 7.10778,2.41782c3.33708,0.91895 7.03174,0.54003 10.4312,1.11767c1.40794,-0.00452 2.8159,-0.00256 4.22385,-0.00256h0.42857c0,0 0.16886,0 0.34633,0.08012c0.80399,-0.55091 1.63991,-0.94118 2.36905,-1.08769c0.00096,-0.10586 0.02802,-0.22466 0.09389,-0.35638c0.33541,-0.67082 1.00623,-0.33541 1.00623,-0.33541c0.79996,0.41233 1.73095,0.60938 2.65293,0.80014c0.19196,-0.10078 0.38872,-0.10078 0.38872,-0.10078zM240.65433,207.21646c-3.1588,-0.51756 -6.53519,-0.29495 -9.69186,-0.92914c0.15853,0.22657 0.31282,0.50622 0.4607,0.84086l0.19329,0.95042c0,0 0.14709,0.73544 -0.58835,0.88253c-0.73543,0.14709 -0.88253,-0.58835 -0.88253,-0.58835l-0.16023,-0.81717c-0.01723,-0.05447 -0.0408,-0.13266 -0.06489,-0.21856c-0.14422,0.42512 -0.54855,0.93177 -0.60086,1.20725c-0.3607,1.8995 -0.10751,4.06761 -0.86904,5.84822c-0.00323,0.16925 -0.05487,0.29834 -0.05487,0.29834c-0.85504,2.10708 -1.86875,4.57735 -2.70437,7.11074c0.01119,0.00187 0.02251,0.00395 0.03398,0.00625c0.73543,0.14709 0.58835,0.88253 0.58835,0.88253c-0.20988,1.02583 -0.89084,4.33581 0.93569,2.78811l0.70704,-0.53028c0,0 0.6,-0.45 1.05,0.15c0.45,0.6 -0.15,1.05 -0.15,1.05l-0.70704,0.53028c-2.31414,1.61458 -3.22473,0.29875 -3.43658,-1.49c-0.42073,1.74239 -0.68607,3.45152 -0.68607,5.02939c-0.30344,1.19918 1.26468,1.95088 2.33361,1.27443c0.60303,-0.38162 -0.11757,-2.1383 0.59123,-2.5166c2.24347,-1.19738 1.16831,1.43702 2.33866,1.30207c0.32666,-0.03767 0.94835,-0.56992 1.41469,-0.91444c0.01915,-0.06059 0.04671,-0.12606 0.08639,-0.18904c0.01296,-0.8162 0.01078,-1.55656 -0.38954,-2.32844l-0.07049,-0.25182c-0.1242,-0.20394 -0.1242,-0.43011 -0.1242,-0.43011c0.03175,-3.99702 0.34652,-8.07136 0.34652,-12.12838v-0.23102c0,0 0,-0.3279 0.21682,-0.55008c-0.07949,-0.14678 -0.29445,-0.64661 0.23266,-0.99802c0.62404,-0.41602 1.04006,0.20801 1.04006,0.20801c1.80208,2.70311 2.77545,4.86277 2.78266,8.15509c0,0 0,0.46206 0,0.46212c-0.01051,4.79832 -0.70404,10.59966 -1.98013,15.17241c-0.4417,3.14302 0.06708,5.38539 2.80008,7.30435c1.77892,1.24907 5.3782,2.25345 5.76753,-0.46793c0.04656,-1.78973 -1.60863,-3.53643 -1.95278,-5.35352c-0.76763,-4.05295 -0.47478,-8.27779 -0.47478,-12.3816c0,-2.45439 1.06473,-3.08682 3.17515,-3.44175c0.17774,-0.08045 0.34705,-0.08045 0.34705,-0.08045c0.01703,0.00054 0.03411,0.00088 0.05121,0.00105c0.09809,-0.17792 0.28514,-0.34757 0.64184,-0.34757c0.17884,0 0.31505,0.04265 0.41877,0.1076c0.01829,-0.00921 0.03642,-0.01869 0.05438,-0.02842l0.69305,-0.34652c0,0 0.67082,-0.33541 1.00623,0.33541c0.33541,0.67082 -0.33541,1.00623 -0.33541,1.00623l-0.69305,0.34653c-0.13044,0.0618 -0.2647,0.11699 -0.40176,0.1655c-0.03605,3.97221 0.00882,9.97367 3.75151,11.77632c0.76262,0.38566 2.81982,1.099 3.23779,-0.1744c0.527,-1.60555 -1.19864,-2.6941 -1.53451,-4.19624c-0.53357,-2.38631 -0.47852,-5.11177 -0.47852,-7.54895c0,-3.11338 -0.60427,-6.46039 -1.99997,-9.25179l-0.05828,-0.41694c-0.06605,-0.0317 -0.12381,-0.04935 -0.17124,-0.04963c-1.29485,-0.00778 -3.08418,0.66301 -3.92971,-0.93823c-0.86318,-1.63467 -0.01918,-3.55118 1.37106,-5.05392c-1.15897,0.00025 -2.31794,0.00055 -3.4769,-0.00268zM192.57333,161.64759c-0.75,0 -0.75,-0.75 -0.75,-0.75c0,-0.07615 0,-0.15533 0,-0.23704c-3.77032,-0.22275 -8.11943,0.95571 -10.21005,2.67984c-2.38132,1.90214 -4.7865,6.31045 -2.82052,9.46531c0.72824,1.16861 1.63124,2.22324 2.58371,3.23085c0.89511,-4.7368 6.43409,-9.17857 10.75548,-10.39842c1.36319,-0.80372 3.18239,-0.90152 4.79424,-0.91643c0.10562,-0.67918 0.23941,-1.34944 0.40881,-2.00367l-0.00628,-0.0044c-0.95319,-0.99867 -2.37856,-1.59885 -4.00539,-1.88214v0.06609c0,0 0,0.75 -0.75,0.75zM192.72899,167.01419c-4.0998,1.18472 -9.98535,5.69161 -9.97709,10.31197c0,0 0,0.04334 -0.01041,0.10917c0.15045,0.15151 0.30066,0.30266 0.45019,0.45368c3.02131,1.99921 6.78241,4.54821 10.52451,4.5443c1.11418,-0.00116 2.82683,0.39454 3.61253,-0.49462c0,0 0.0078,-0.00781 0.02247,-0.02058c-0.69948,-2.85726 -0.81357,-5.96452 -0.81357,-8.59195c0,-2.20723 -0.04171,-4.67996 0.19953,-7.10643c-1.36318,0.01184 -2.89309,0.11245 -4.00815,0.79446zM295.9595,163.56432c0.56001,0.92683 0.99758,1.70191 1.24646,2.69867c0.64461,-0.70652 1.23684,-1.45012 1.76196,-2.23666c1.34161,-1.67325 3.55769,-5.61884 2.75483,-7.88048c-0.34071,-0.95978 -1.65194,-1.16287 -2.38417,-1.60025c-1.45286,-0.86783 -2.85341,-1.78328 -4.38637,-2.54862c-4.28019,-2.19304 -10.15634,1.41464 -14.04629,3.00354c0.59307,0.92523 1.13809,1.89585 1.62754,2.89352c5.22863,-1.50636 11.21411,0.25021 13.42604,5.67028zM253.92956,215.55313c2.07391,2.93401 6.41518,1.75931 6.4311,-1.77398c-1.09089,-5.57327 -6.71194,-6.25274 -10.94455,-8.03726c-0.18446,0.40562 -0.68232,0.40563 -0.68232,0.40563c-1.82371,-0.00822 -5.55939,3.17635 -4.63199,5.45472c0.3041,0.74711 2.38751,0.05763 2.78718,0.12232c1.17343,0.18996 1.82939,1.4935 2.88726,2.01691c1.02275,0.55355 2.5562,0.60097 3.62829,0.15122l0.4553,-0.05364c0,0 0.75,0 0.75,0.75c0,0.75 -0.75,0.75 -0.75,0.75l0.10178,-0.05364c-0.08776,0.03385 -0.17649,0.06548 -0.26605,0.0949z" fill="#000000" stroke-width="0.5"/><path d="M285.30354,174.92858c-0.00657,-0.00164 -0.01319,-0.00326 -0.01967,-0.00475c0.37315,-3.14988 0.17819,-6.5057 -0.30423,-9.45004c-0.34164,-2.04905 -0.96662,-4.195 -1.84552,-6.24174c4.48098,-1.22687 9.69191,0.28294 11.52602,4.97584c0.57078,0.95712 1.04494,1.70594 1.22337,2.81416l-0.01041,0.45166c0,0 -0.00014,0.07054 0.02091,0.16698c-3.10143,2.88811 -7.09109,5.17897 -10.58648,7.28893c-0.00132,-0.00034 -0.00268,-0.00069 -0.00401,-0.00102z" data-paper-data="{&quot;noHover&quot;:false,&quot;origItem&quot;:[&quot;Path&quot;,{&quot;applyMatrix&quot;:true,&quot;segments&quot;:[[[285.32666,174.88425],[0,0],[0.00133,0.00033]],[[285.33065,174.88526],[-0.00132,-0.00034],[3.49539,-2.10996]],[[295.84438,167.63471],[-3.10143,2.88811],[-0.02105,-0.09644]],[295.82333,167.469],[[295.83353,167.02087],[0,0],[-0.17843,-1.10822]],[[294.61573,164.23084],[0.57078,0.95712],[-1.83411,-4.6929]],[[283.16614,159.27044],[4.48098,-1.22687],[0.8789,2.04674]],[[285.02741,165.48855],[-0.34164,-2.04905],[0.48242,2.94434]],[[285.30709,174.87954],[0.37315,-3.14988],[0.00648,0.00149]],[[285.32666,174.88424],[-0.00657,-0.00164],[0,0]]],&quot;closed&quot;:true,&quot;fillColor&quot;:[0,0,0,1]}]}" fill="#ee4036" stroke-width="0.5"/><path d="M192.74614,166.96722c1.11506,-0.68201 2.65956,-0.77429 4.02274,-0.78613c-0.24124,2.42647 -0.18189,4.92991 -0.18189,7.13714c0,2.62743 0.0995,5.77856 0.79898,8.63582c-0.01467,0.01277 -0.02257,0.02068 -0.02257,0.02068c-0.7857,0.88916 -2.51231,0.50294 -3.62649,0.5041c-3.7421,0.00391 -7.56839,-2.56776 -10.5897,-4.56697c-0.14953,-0.15102 -0.30136,-0.30566 -0.45181,-0.45717c0.01041,-0.06583 0.01018,-0.10974 0.01018,-0.10974c-0.00826,-4.62036 5.94076,-9.193 10.04056,-10.37772z" data-paper-data="{&quot;noHover&quot;:false,&quot;origItem&quot;:[&quot;Path&quot;,{&quot;applyMatrix&quot;:true,&quot;segments&quot;:[[[192.72899,167.01418],[0,0],[-4.0998,1.18472]],[[182.7519,177.32615],[-0.00826,-4.62036],[0,0]],[[182.74149,177.43532],[0.01041,-0.06583],[0.15045,0.15151]],[[183.19168,177.889],[-0.14953,-0.15102],[3.02131,1.99921]],[[193.71619,182.4333],[-3.7421,0.00391],[1.11418,-0.00116]],[[197.32872,181.93868],[-0.7857,0.88916],[0,0]],[[197.35119,181.9181],[-0.01467,0.01277],[-0.69948,-2.85726]],[[196.53762,173.32615],[0,2.62743],[0,-2.20723]],[[196.73715,166.21972],[-0.24124,2.42647],[-1.36318,0.01184]],[[192.729,167.01418],[1.11506,-0.68201],[0,0]]],&quot;closed&quot;:true,&quot;fillColor&quot;:[0,0,0,1]}]}" fill="#ee4036" stroke-width="0.5"/><path d="M192.60277,161.60717c0.75,0 0.69041,-0.6697 0.69041,-0.6697l0.06013,-0.14599c1.62683,0.28329 3.0654,0.89827 4.01859,1.89694l0.0063,0.00443c-0.1694,0.65423 -0.29983,1.33144 -0.40545,2.01062c-1.61185,0.01491 -3.52031,0.15695 -4.8835,0.96067c-4.32139,1.21985 -9.8494,5.67426 -10.74451,10.41106c-0.95247,-1.00761 -1.86842,-2.07845 -2.59666,-3.24706c-1.96598,-3.15486 0.44523,-7.61731 2.82655,-9.51945c2.09062,-1.72413 6.50204,-2.91493 10.27236,-2.69218c0,0.08171 0.00058,0.16121 0.00058,0.23736c0,0 0.0052,0.75332 0.7552,0.75332z" data-paper-data="{&quot;noHover&quot;:false,&quot;origItem&quot;:[&quot;Path&quot;,{&quot;applyMatrix&quot;:true,&quot;segments&quot;:[[[192.57333,161.64758],[0,0],[-0.75,0]],[[191.82333,160.89758],[0,0],[0,-0.07615]],[[191.82333,160.66054],[0,0.08171],[-3.77032,-0.22275]],[[181.61328,163.34038],[2.09062,-1.72413],[-2.38132,1.90214]],[[178.79276,172.80569],[-1.96598,-3.15486],[0.72824,1.16861]],[[181.37647,176.03654],[-0.95247,-1.00761],[0.89511,-4.7368]],[[192.13195,165.63812],[-4.32139,1.21985],[1.36319,-0.80372]],[[196.92619,164.72169],[-1.61185,0.01491],[0.10562,-0.67918]],[[197.335,162.71802],[-0.1694,0.65423],[0,0]],[[197.32872,162.71362],[0,0],[-0.95319,-0.99867]],[[193.32333,160.83148],[1.62683,0.28329],[0,0]],[193.32333,160.89757],[[192.57333,161.64757],[0.75,0],[0,0]]],&quot;closed&quot;:true,&quot;fillColor&quot;:[0,0,0],&quot;strokeWidth&quot;:0.5}]}" fill="#9a8479" stroke-width="0.25"/><path d="M282.48371,157.88904c-0.48945,-0.99767 -1.03175,-1.98025 -1.62482,-2.90548c3.88995,-1.5889 9.83632,-5.22392 14.11651,-3.03088c1.53296,0.76534 2.95443,1.70154 4.40729,2.56937c0.73223,0.43738 2.0478,0.65164 2.38851,1.61142c0.80286,2.26164 -1.42055,6.24808 -2.76216,7.92133c-0.52512,0.78654 -1.12779,1.54117 -1.7724,2.24769c-0.24888,-0.99676 -0.6826,-1.77516 -1.24261,-2.70199c-2.21193,-5.42007 -8.28168,-7.21782 -13.51031,-5.71146z" data-paper-data="{&quot;noHover&quot;:false,&quot;origItem&quot;:[&quot;Path&quot;,{&quot;applyMatrix&quot;:true,&quot;segments&quot;:[[[295.9595,163.56431],[-2.21193,-5.42007],[0.56001,0.92683]],[[297.20596,166.26298],[-0.24888,-0.99676],[0.64461,-0.70652]],[[298.96792,164.02632],[-0.52512,0.78654],[1.34161,-1.67325]],[[301.72275,156.14584],[0.80286,2.26164],[-0.34071,-0.95978]],[[299.33858,154.54559],[0.73223,0.43738],[-1.45286,-0.86783]],[[294.95221,151.99697],[1.53296,0.76534],[-4.28019,-2.19304]],[[280.90592,155.00051],[3.88995,-1.5889],[0.59307,0.92523]],[[282.53346,157.89403],[-0.48945,-0.99767],[5.22863,-1.50636]]],&quot;closed&quot;:true,&quot;fillColor&quot;:[0,0,0],&quot;strokeWidth&quot;:0.5}]}" fill="#9a8479" stroke-width="0.25"/><path d="M253.67723,215.33379c0.08956,-0.02942 0.17521,-0.05972 0.26297,-0.09357l-0.10054,0.05307c0,0 0.73922,0.00648 0.73922,-0.74352c0,-0.75 -0.68982,-0.67017 -0.68982,-0.67017l-0.4616,0.05751c-1.07209,0.44975 -2.66472,0.39234 -3.68747,-0.16121c-1.05787,-0.52341 -1.72753,-1.85905 -2.90096,-2.04901c-0.39967,-0.06469 -2.48313,0.62323 -2.78723,-0.12388c-0.9274,-2.27837 2.83125,-5.50578 4.65496,-5.49756c0,0 0.50332,-0.00305 0.68778,-0.40867c4.23261,1.78452 9.92337,2.5226 11.01426,8.09587c-0.01592,3.53329 -4.3854,4.74034 -6.45931,1.80633z" data-paper-data="{&quot;noHover&quot;:false,&quot;origItem&quot;:[&quot;Path&quot;,{&quot;applyMatrix&quot;:true,&quot;segments&quot;:[[[253.92956,215.55312],[0,0],[2.07391,2.93401]],[[260.36066,213.77914],[-0.01592,3.53329],[-1.09089,-5.57327]],[[249.41611,205.74188],[4.23261,1.78452],[-0.18446,0.40562]],[[248.73379,206.14751],[0,0],[-1.82371,-0.00822]],[[244.1018,211.60223],[-0.9274,-2.27837],[0.3041,0.74711]],[[246.88898,211.72455],[-0.39967,-0.06469],[1.17343,0.18996]],[[249.77624,213.74146],[-1.05787,-0.52341],[1.02275,0.55355]],[[253.40453,213.89268],[-1.07209,0.44975],[0,0]],[253.85983,213.83904],[[254.60983,214.58904],[0,-0.75],[0,0.75]],[253.85983,215.33904],[[253.96161,215.2854],[0,0],[-0.08776,0.03385]],[[253.69556,215.3803],[0.08956,-0.02942],[0,0]]],&quot;closed&quot;:true,&quot;fillColor&quot;:[0,0,0],&quot;strokeWidth&quot;:0.5}]}" fill="#9a8479" stroke-width="0.25"/><path d="M237.44798,159.56942c-0.90983,1.32353 -1.64964,2.66059 -2.92496,3.81455c-0.44391,0.40166 -2.12701,0.87362 -2.3488,1.21053c-2.22548,3.38064 4.9163,3.09183 6.44532,2.83422c1.02202,-0.41346 1.89747,-1.04881 2.57844,-1.86262c-0.05032,1.59488 0.48696,3.75217 1.23621,4.1175c2.67231,1.303 8.63686,-1.5396 11.16858,-2.55229c3.00538,-1.20215 6.45247,-3.93031 9.58141,-4.52667c1.85111,-0.35281 4.24585,1.00399 5.74702,1.90416c5.04341,3.33565 5.09199,10.63066 2.57931,15.65603c-2.30639,5.80569 -6.37486,10.43434 -11.88491,13.20863c-6.02753,1.7077 -12.24934,3.82411 -18.62517,3.82411c-6.00804,0 -12.47558,-0.31452 -17.96135,-3.06785c-3.29911,-1.96991 -7.81593,-3.51815 -10.0302,-6.91586c-0.83373,-1.27933 -1.29651,-2.7333 -2.09875,-4.07037c-2.14797,-5.40688 -0.41368,-10.88876 3.74677,-15.04921c3.26208,-4.07759 10.33629,-6.38828 15.35537,-7.22479c2.61388,-0.86436 4.79003,-1.31157 7.41431,-1.39773z" data-paper-data="{&quot;noHover&quot;:false,&quot;origItem&quot;:[&quot;Path&quot;,{&quot;applyMatrix&quot;:true,&quot;segments&quot;:[[[237.43727,159.52059],[0,0],[-2.62428,0.08616]],[[230.03983,160.91118],[2.61388,-0.86436],[-5.01908,0.83651]],[[214.70361,168.11205],[3.26208,-4.07759],[-4.16045,4.16045]],[[210.95951,183.13573],[-2.14797,-5.40688],[0.80224,1.33707]],[[213.05661,187.199],[-0.83373,-1.27933],[2.21427,3.39771]],[[223.07711,194.09727],[-3.29911,-1.96991],[5.48577,2.75333]],[[241.00191,197.14758],[-6.00804,0],[6.37583,0]],[[259.58716,193.34145],[-6.02753,1.7077],[5.51005,-2.77429]],[[271.46059,180.16176],[-2.30639,5.80569],[2.51268,-5.02537]],[[268.88656,164.53133],[5.04341,3.33565],[-1.50117,-0.90017]],[[263.14374,162.63404],[1.85111,-0.35281],[-3.12894,0.59636]],[[253.56616,167.16536],[3.00538,-1.20215],[-2.53172,1.01269]],[[242.42918,169.73334],[2.67231,1.303],[-0.74925,-0.36533]],[[241.19941,165.61607],[-0.05032,1.59488],[-0.68097,0.81381]],[[238.63257,167.47698],[1.02202,-0.41346],[-1.52902,0.25761]],[[232.14601,164.55321],[-2.22548,3.38064],[0.22179,-0.33691]],[[234.50172,163.33873],[-0.44391,0.40166],[1.27532,-1.15396]],[[237.43727,159.52058],[-0.90983,1.32353],[0,0]]],&quot;closed&quot;:true,&quot;fillColor&quot;:[0,0,0,1]}]}" fill="#e6e7e8" stroke-width="0.5"/><path d="M240.66282,207.16723c1.15896,0.00323 2.32646,0.00518 3.48543,0.00493c-1.39024,1.50274 -2.23284,3.41978 -1.36966,5.05445c0.84553,1.60124 2.64632,0.93683 3.94117,0.94461c0.04743,0.00028 0.10562,0.01826 0.17167,0.04996l0.05906,0.41754c1.3957,2.7914 2.01765,6.16639 2.01765,9.27977c0,2.43718 -0.05759,5.19298 0.47598,7.57929c0.33587,1.50214 2.05667,2.59966 1.52967,4.20521c-0.41797,1.2734 -2.55346,0.49825 -3.31608,0.11259c-3.74269,-1.80265 -3.79728,-7.75241 -3.76123,-11.72462c0.13706,-0.04851 0.27134,-0.10364 0.40178,-0.16544l0.69321,-0.34611c0,0 0.67272,-0.33122 0.33731,-1.00204c-0.33541,-0.67082 -1.00393,-0.33136 -1.00393,-0.33136l-0.69277,0.34696c-0.01796,0.00973 -0.03607,0.01924 -0.05436,0.02845c-0.10372,-0.06495 -0.23865,-0.10572 -0.41749,-0.10572c-0.3567,0 -0.46281,0.11092 -0.5609,0.28884c-0.0171,-0.00017 -0.11454,0.059 -0.13157,0.05846c0,0 -0.16858,0.00096 -0.34632,0.08141c-2.11042,0.35493 -3.08622,0.94988 -3.08622,3.40427c0,4.10381 -0.35031,8.28594 0.41732,12.33889c0.34415,1.81709 2.01811,3.66197 1.97155,5.4517c-0.38933,2.72138 -4.00462,1.71793 -5.78354,0.46886c-2.733,-1.91896 -3.25661,-4.16523 -2.81491,-7.30825c1.27609,-4.57275 1.96387,-10.46279 1.97438,-15.26111c0,-0.00006 0.00184,-0.46317 0.00184,-0.46317c-0.00721,-3.29232 -0.93742,-5.36192 -2.7395,-8.06503c0,0 -0.41331,-0.62526 -1.03735,-0.20924c-0.52711,0.35141 -0.3101,0.85018 -0.23061,0.99696c-0.21682,0.22218 -0.21537,0.54926 -0.21537,0.54926l0.00038,0.2308c0,4.05702 -0.29079,8.0844 -0.32254,12.08142c0,0 -0.00034,0.22316 0.12386,0.4271l0.0702,0.25005c0.40032,0.77188 0.39732,1.49746 0.38436,2.31366c-0.03968,0.06298 -0.06763,0.12775 -0.08678,0.18834c-0.46634,0.34452 -1.17501,0.92611 -1.50167,0.96378c-1.17035,0.13495 -0.00428,-2.53978 -2.24775,-1.3424c-0.7088,0.3783 0.00837,2.12689 -0.59466,2.50851c-1.06893,0.67645 -2.72843,-0.0354 -2.42499,-1.23458c0,-1.57787 0.26261,-3.30477 0.68334,-5.04716c0.21185,1.78875 1.12278,3.11197 3.43692,1.49739l0.7068,-0.53282c0,0 0.59995,-0.4561 0.14995,-1.0561c-0.45,-0.6 -0.95017,-0.14416 -0.95017,-0.14416l-0.80694,0.52675c-1.82653,1.5477 -1.14401,-1.7743 -0.93413,-2.80013c0,0 0.14787,-0.7382 -0.58756,-0.88529c-0.01147,-0.0023 -0.0228,-0.00436 -0.03399,-0.00623c0.83562,-2.53339 1.86485,-5.02683 2.71989,-7.13391c0,0 0.05227,-0.12961 0.0555,-0.29886c0.76153,-1.78061 0.51816,-3.95495 0.87886,-5.85445c0.05231,-0.27548 0.4591,-0.78324 0.60332,-1.20836c0.02409,0.0859 0.08618,0.25637 0.10341,0.31084l0.16064,0.817c0,0 0.10921,0.64291 0.84464,0.49582c0.73544,-0.14709 0.59057,-0.88334 0.59057,-0.88334l-0.16163,-0.85557c-0.14788,-0.33464 -0.33394,-0.70911 -0.49247,-0.93568c3.15667,0.63419 6.5576,0.40964 9.7164,0.9272z" data-paper-data="{&quot;noHover&quot;:false,&quot;origItem&quot;:[&quot;Path&quot;,{&quot;applyMatrix&quot;:true,&quot;segments&quot;:[[[240.65433,207.21645],[0,0],[-3.1588,-0.51756]],[[230.96247,206.28731],[3.15667,0.63419],[0.15853,0.22657]],[[231.42317,207.12817],[-0.14788,-0.33464],[0,0]],[231.61646,208.07859],[[231.02811,208.96112],[0.73544,-0.14709],[-0.73543,0.14709]],[230.14558,208.37277],[[229.98535,207.5556],[0,0],[-0.01723,-0.05447]],[[229.92046,207.33704],[0.02409,0.0859],[-0.14422,0.42512]],[[229.3196,208.54429],[0.05231,-0.27548],[-0.3607,1.8995]],[[228.45056,214.39251],[0.76153,-1.78061],[-0.00323,0.16925]],[[228.39569,214.69085],[0,0],[-0.85504,2.10708]],[[225.69132,221.80159],[0.83562,-2.53339],[0.01119,0.00187]],[[225.7253,221.80784],[-0.01147,-0.0023],[0.73543,0.14709]],[[226.31365,222.69037],[0,0],[-0.20988,1.02583]],[[227.24934,225.47848],[-1.82653,1.5477],[0,0]],[227.95638,224.9482],[[229.00638,225.0982],[-0.45,-0.6],[0.45,0.6]],[228.85638,226.1482],[[228.14934,226.67848],[0,0],[-2.31414,1.61458]],[[224.71276,225.18848],[0.21185,1.78875],[-0.42073,1.74239]],[[224.02669,230.21787],[0,-1.57787],[-0.30344,1.19918]],[[226.3603,231.4923],[-1.06893,0.67645],[0.60303,-0.38162]],[[226.95153,228.9757],[-0.7088,0.3783],[2.24347,-1.19738]],[[229.29019,230.27777],[-1.17035,0.13495],[0.32666,-0.03767]],[[230.70488,229.36333],[-0.46634,0.34452],[0.01915,-0.06059]],[[230.79127,229.17429],[-0.03968,0.06298],[0.01296,-0.8162]],[[230.40173,226.84585],[0.40032,0.77188],[0,0]],[[230.33124,226.59403],[0,0],[-0.1242,-0.20394]],[[230.20704,226.16392],[0,0],[0.03175,-3.99702]],[[230.55356,214.03554],[0,4.05702],[0,0]],[230.55356,213.80452],[[230.77038,213.25444],[-0.21682,0.22218],[-0.07949,-0.14678]],[[231.00304,212.25642],[-0.52711,0.35141],[0.62404,-0.41602]],[[232.0431,212.46443],[0,0],[1.80208,2.70311]],[[234.82576,220.61952],[-0.00721,-3.29232],[0,0]],[[234.82576,221.08164],[0,-0.00006],[-0.01051,4.79832]],[[232.84563,236.25405],[1.27609,-4.57275],[-0.4417,3.14302]],[[235.64571,243.5584],[-2.733,-1.91896],[1.77892,1.24907]],[[241.41324,243.09047],[-0.38933,2.72138],[0.04656,-1.78973]],[[239.46046,237.73695],[0.34415,1.81709],[-0.76763,-4.05295]],[[238.98568,225.35535],[0,4.10381],[0,-2.45439]],[[242.16083,221.9136],[-2.11042,0.35493],[0.17774,-0.08045]],[[242.50788,221.83315],[0,0],[0.01703,0.00054]],[[242.55909,221.8342],[-0.0171,-0.00017],[0.09809,-0.17792]],[[243.20093,221.48663],[-0.3567,0],[0.17884,0]],[[243.6197,221.59423],[-0.10372,-0.06495],[0.01829,-0.00921]],[[243.67408,221.56581],[-0.01796,0.00973],[0,0]],[244.36713,221.21929],[[245.37336,221.5547],[-0.33541,-0.67082],[0.33541,0.67082]],[245.03795,222.56093],[[244.3449,222.90746],[0,0],[-0.13044,0.0618]],[[243.94314,223.07296],[0.13706,-0.04851],[-0.03605,3.97221]],[[247.69465,234.84928],[-3.74269,-1.80265],[0.76262,0.38566]],[[250.93244,234.67488],[-0.41797,1.2734],[0.527,-1.60555]],[[249.39793,230.47864],[0.33587,1.50214],[-0.53357,-2.38631]],[[248.91941,222.92969],[0,2.43718],[0,-3.11338]],[[246.91944,213.6779],[1.3957,2.7914],[0,0]],[[246.86116,213.26096],[0,0],[-0.06605,-0.0317]],[[246.68992,213.21133],[0.04743,0.00028],[-1.29485,-0.00778]],[[242.76021,212.2731],[0.84553,1.60124],[-0.86318,-1.63467]],[[244.13127,207.21918],[-1.39024,1.50274],[-1.15897,0.00025]],[[240.65437,207.2165],[1.15896,0.00323],[0,0]]],&quot;closed&quot;:true,&quot;fillColor&quot;:[0,0,0],&quot;strokeWidth&quot;:0.5}]}" fill="#9a8479" stroke-width="0.25"/><path d="M239.89476,158.75473c0,0.51302 -0.35093,0.67512 -0.57269,0.72634c-0.01239,0.01809 -0.02023,0.0279 -0.02023,0.0279c-1.34431,1.64615 -2.12474,3.47962 -3.79975,4.94747c-0.64461,0.56489 -0.86993,0.76403 -1.67079,1.00253c-0.18857,0.05616 -0.76041,0.05278 -0.57706,0.12418c1.60965,0.62688 3.24103,0.73379 4.97415,0.44932c1.15953,-0.4551 2.03244,-1.44694 2.57034,-2.5391l0.06554,-0.04876l-0.01944,-0.01555l0.5671,-0.70888c0.13732,-0.17469 0.35055,-0.28689 0.58998,-0.28689c0.37645,0 0.68812,0.27735 0.74182,0.63886l0.14084,0.84499l-0.13977,0.02329c0.13656,0.57084 0.14997,1.10388 0.14997,1.95714c0,0.27138 -0.19847,2.40471 0.10844,2.44995c3.06475,0.45176 7.20189,-1.45329 10.00587,-2.57488c3.08519,-1.23407 6.62044,-4.04241 9.851,-4.61153c2.28342,-0.40226 4.95494,0.97787 6.82861,2.1027c5.64477,3.78822 6.01272,11.76752 3.14026,17.51243c-2.48307,6.16844 -6.80468,11.03549 -12.698,13.96317c-6.19575,1.78423 -12.57101,3.90816 -19.12903,3.90816c-6.28101,0 -12.91253,-0.37754 -18.64662,-3.2354c-3.56604,-2.15079 -8.08642,-3.75853 -10.55094,-7.38744c-0.89072,-1.31155 -1.35894,-2.83968 -2.18861,-4.22246c-2.40133,-5.9654 -0.63055,-12.08988 3.97018,-16.6906c3.44673,-4.30842 10.77424,-6.76992 16.09234,-7.65627c3.03014,-1.01921 5.5576,-1.45068 8.75222,-1.45068h0.71428c0,0 0.75,0 0.75,0.75zM237.43727,159.52059c-2.62428,0.08616 -4.78356,0.52623 -7.39744,1.39059c-5.01908,0.83651 -12.07414,3.12328 -15.33622,7.20087c-4.16045,4.16045 -5.89207,9.6168 -3.7441,15.02368c0.80224,1.33707 1.26337,2.78394 2.0971,4.06327c2.21427,3.39771 6.72139,4.92836 10.0205,6.89827c5.48577,2.75333 11.91676,3.05031 17.9248,3.05031c6.37583,0 12.55772,-2.09843 18.58525,-3.80613c5.51005,-2.77429 9.56704,-7.374 11.87343,-13.17969c2.51268,-5.02537 2.46938,-12.29478 -2.57403,-15.63043c-1.50117,-0.90017 -3.89171,-2.2501 -5.74282,-1.89729c-3.12894,0.59636 -6.5722,3.32917 -9.57758,4.53132c-2.53172,1.01269 -8.46467,3.87098 -11.13698,2.56798c-0.74925,-0.36533 -1.28009,-2.52239 -1.22977,-4.11727c-0.68097,0.81381 -1.54482,1.44745 -2.56684,1.86091c-1.52902,0.25761 -8.71204,0.45687 -6.48656,-2.92377c0.22179,-0.33691 1.9118,-0.81282 2.35571,-1.21448c1.27532,-1.15396 2.02572,-2.49462 2.93555,-3.81815z" fill="#000000" stroke-width="0.5"/><path d="M231.20772,193.76724c-0.16064,0.07926 -0.37423,0.10487 -0.64079,-0.02841c-0.67082,-0.33541 -0.33541,-1.00623 -0.33541,-1.00623c2.06654,-4.11864 5.09356,-11.72234 10.60453,-11.73441c3.17523,0.00538 5.92012,1.17845 8.73553,2.37428c0.62472,0.26535 2.41376,0.65076 2.69326,1.42346c0.54877,1.51711 -2.81265,5.01669 -3.65002,6.27243c-0.68775,0.95812 -0.66478,2.23726 -1.25333,3.09258c-0.86638,1.25906 -2.69522,1.04317 -3.98425,1.04317c-3.79314,0 -7.25655,-0.50981 -10.9659,-1.07369c-0.26828,-0.13053 -0.53655,-0.26106 -0.80483,-0.39159l-0.12662,0.07918c0,0 -0.12456,-0.00001 -0.27215,-0.05077z" fill="#000000" stroke-width="0.5"/><path d="M224.28814,174.83643c-0.46787,0.03316 -0.92469,0.08211 -1.36533,0.14617c0,0 -0.74246,0.10606 -0.84853,-0.6364c-0.10607,-0.74246 0.63639,-0.84852 0.63639,-0.84852c3.46715,-0.48764 7.88959,-0.17122 11.03674,1.39628l0.81882,0.10235c0.37508,0.04137 0.66685,0.35934 0.66685,0.74544c0,0.3861 -0.29177,0.70407 -0.66685,0.74544l-0.91419,0.11427l-0.02638,-0.21105l-0.1493,-0.01866c-2.5702,0.51907 -5.16731,-0.54617 -7.87798,-0.92711l-0.71028,-0.11818c0,0 -0.47407,-0.07901 -0.59997,-0.49003z" fill="#000000" stroke-width="0.5"/><path d="M254.99708,176.94284c0.41602,-0.62404 1.04006,-0.20801 1.04006,-0.20801l0.0018,0.0085c0.0411,-0.00995 0.06669,-0.01316 0.06669,-0.01316c2.11355,-0.26406 4.22737,-0.34608 6.34763,-0.10947l0.04546,0.02568l0.00378,-0.01511l0.90884,0.22721c0.33399,0.07579 0.58332,0.37449 0.58332,0.73141c0,0.28397 -0.15782,0.53108 -0.39053,0.6584l-0.79592,0.45481l-0.18292,-0.32011c-2.00135,0.84894 -4.45461,0.23811 -6.75068,-0.0489l-0.66952,-0.35119c0,0 -0.62403,-0.41602 -0.20801,-1.04006z" fill="#000000" stroke-width="0.5"/><path d="M228.26787,168.01381c0.33541,-0.67082 1.00623,-0.33541 1.00623,-0.33541l0.46203,0.23102c1.38207,0.76932 2.21578,2.12976 0.18343,2.90237c-1.00518,0.38212 -2.74342,-0.03001 -3.79968,-0.09689c-2.79485,-0.17695 -5.49323,0.03629 -8.26055,-0.35262c0,0 -0.74246,-0.10607 -0.63639,-0.84853c0.10607,-0.74246 0.84853,-0.63639 0.84853,-0.63639c2.7231,0.3946 5.38606,0.17034 8.14163,0.34044c0.67687,0.04178 4.52606,0.6928 2.85222,0.03327l-0.46204,-0.23101c0,0 -0.67082,-0.33541 -0.33541,-1.00623z" fill="#000000" stroke-width="0.5"/><path d="M218.18697,178.81107c0.74246,0.10607 0.63639,0.84853 0.63639,0.84853l-0.1535,0.95985c-2.20184,3.17103 -4.95477,0.60224 -4.0823,-2.54254c0,0 0.20604,-0.72115 0.92719,-0.51511c0.72115,0.20604 0.5151,0.92719 0.5151,0.92719c-0.34742,1.1722 0.46028,3.32715 1.23108,1.61576l0.07752,-0.65727c0,0 0.10607,-0.74246 0.84852,-0.6364z" fill="#000000" stroke-width="0.5"/></g></g></svg>