<svg version="1.1" xmlns="http://www.w3.org/2000/svg" xmlns:xlink="http://www.w3.org/1999/xlink" width="112.02637" height="142.59854" viewBox="0,0,112.02637,142.59854"><g transform="translate(-178.40785,-99.25122)"><g data-paper-data="{&quot;isPaintingLayer&quot;:true}" fill-rule="nonzero" stroke-linejoin="miter" stroke-miterlimit="10" stroke-dasharray="" stroke-dashoffset="0" style="mix-blend-mode: normal"><g stroke="#0f002d" stroke-width="1.5"><path d="M260.18231,195.58702c-3.44942,2.18716 -10.92616,2.21125 -13.81914,-0.97447c-6.38873,-7.03522 -8.00113,-15.88386 -6.88267,-18.53589c1.11846,-2.65203 8.74383,2.13258 9.94257,10.43975c0.42571,0.33665 2.35952,-0.37454 2.64824,1.16309c0.14166,0.75443 0.59939,-1.88594 0.90526,-3.13015c0.70063,-2.84994 7.27094,0.12601 10.64913,1.13016c5.39206,1.60276 0.00601,7.72034 -3.44341,9.90752z" fill="#5e1284" stroke-linecap="round"/><g fill="#e9caf8" stroke-linecap="butt"><path d="M262.18266,173.90541c2.38008,1.16208 1.8216,2.55552 0.3301,2.99465c-1.4915,0.43912 -3.64368,-0.43735 -4.34752,-2.09294c-0.70384,-1.65558 -0.67716,-3.31407 0.81434,-3.75319c1.4915,-0.43912 3.32429,0.67193 3.20309,2.85149z" data-paper-data="{&quot;index&quot;:null}"/><path d="M267.84522,185.12584c-1.21644,3.23344 -3.55571,5.31538 -7.04942,5.35765c-3.49371,0.04227 -6.80591,-0.77058 -7.06016,-4.21575c-0.25425,-3.44517 -2.62306,-6.07312 2.22004,-6.68669c0.34014,-1.94656 -3.42172,-5.42718 6.41098,-3.74021c0.20149,-2.25593 -1.6887,-4.80468 -0.88318,-6.11156c1.38346,-2.24454 3.74393,-2.97998 8.06348,2.83788c1.86251,2.50853 -1.01209,10.72546 -1.70175,12.55868z"/></g></g><g stroke="#0f002d" stroke-width="1.5"><path d="M278.77856,226.99784c-4.84984,-1.25858 -18.22298,-1.13695 -18.23419,-3.55004c-0.01121,-2.41309 2.092,-7.64624 7.10962,-7.64624c1.48937,0 8.54283,0.01635 9.81466,0.74796c10.78257,6.17755 13.17413,8.23342 11.90803,10.17525c-1.18697,1.82047 -7.09047,1.18334 -10.59812,0.27307z" fill="#e9caf8" stroke-linecap="butt"/><path d="M232.25535,229.4643c0.33586,5.02543 -3.00509,10.96039 -13.51136,11.63546c-7.60392,0.48859 -9.51277,-3.66166 -9.53285,-7.98512c-0.02008,-4.32346 5.95982,-11.52695 10.60134,-12.31509c10.73298,-1.82245 11.97438,1.65461 12.44288,8.66474z" fill="#e9caf8" stroke-linecap="butt"/><g stroke-linecap="round"><path d="M279.2235,215.52933c-1.94417,0.12124 -19.85613,5.40913 -19.71918,4.25665c0.10716,-0.90173 -21.988,-29.54179 -22.80666,-29.18327c-0.61222,0.26811 9.08849,12.77897 9.60161,19.31014c0.82593,2.29263 -2.7297,4.05026 -4.88991,4.30025c-6.53312,0.75609 -7.67103,9.19517 -7.67103,9.19517c0,0 -7.74059,0.38022 -10.76049,0.00849c-2.54052,-0.31271 -6.17062,-2.09253 -6.17062,-2.09253c0,0 3.10114,-13.27732 10.38053,-17.23239c-6.0209,-8.98882 -5.9811,-17.10399 -5.17902,-17.29171c3.23385,-0.75687 18.00635,-7.0916 21.70536,-1.84418c0,0 36.23691,30.52799 35.50941,30.57336z" fill="#414ca9"/><path d="M234.79238,179.28426l2.92893,-0.90548" fill="none"/></g></g><g stroke="#0f002d"><path d="M233.71631,187.9904c-5.17329,0.90794 -10.09423,-0.58791 -10.7982,-1.07841c-2.38509,-1.66183 -4.44122,-7.40708 -3.73826,-10.60607c0.72619,-3.30468 5.08351,-9.74286 10.61102,-10.78002c5.52752,-1.03715 12.56246,1.91553 13.18386,4.67539c0.99853,4.435 -1.36857,6.18923 -1.36857,6.18923c0,0 2.76181,-2.19107 4.23017,5.80887c0.87932,4.79073 -9.08258,5.2579 -12.12003,5.79099z" fill="#8f21c6" stroke-width="1.5" stroke-linecap="round"/><path d="M242.54594,176.68403c1.87118,2.06007 -10.62442,0.88729 -13.24636,0.00725c-2.62194,-0.88005 -5.20485,-3.22711 -5.76908,-5.24229c-0.56423,-2.01518 6.10203,-5.86881 8.82098,-5.3323c14.83967,2.92815 10.54103,7.8641 10.19445,10.56736z" fill="#0f002d" stroke-width="1" stroke-linecap="butt"/><path d="M244.63017,181.01447c0.47163,0.44197 0.39776,4.58664 0.0835,4.84846c-0.26701,0.22246 -15.78393,3.12597 -16.20429,-1.08485c-0.47281,-5.67364 15.87697,-3.99208 16.12079,-3.7636z" fill="#c168ee" stroke-width="1" stroke-linecap="round"/><path d="M243.15,184.96923c-13.93584,1.37204 -11.43332,-10.43167 -11.43332,-10.43167" fill="none" stroke-width="1" stroke-linecap="round"/><path d="M253.4489,177.32298c-4.38647,1.53543 -10.95166,-4.53313 -10.95166,-4.53313" fill="none" stroke-width="1" stroke-linecap="round"/></g><g stroke="#0f002d" stroke-width="1.5"><g fill="#e9caf8"><path d="M211.5845,195.02931c-0.47027,2.86387 -3.0267,5.11986 -5.70995,5.03889c-2.68325,-0.08097 -4.47722,-2.46823 -4.00695,-5.3321c0.47027,-2.86387 3.0267,-5.11986 5.70995,-5.03889c2.68325,0.08097 4.47722,2.46823 4.00695,5.3321z" stroke-linecap="butt"/><path d="M206.23463,175.88492c0,0 6.64166,1.82512 10.86172,7.32114c2.56922,2.13873 5.05711,7.15515 4.56101,10.21742c-0.17482,1.07912 -2.02459,0.80062 -3.3382,1.26642c-1.88288,0.66767 -3.51146,1.81319 -4.71357,1.76041c-7.67709,-0.33702 -2.1644,-6.27397 -4.11169,-8.88661c0.68823,5.93776 -6.02896,9.21413 -15.5176,6.48891c-7.01736,0.91569 -6.67933,-7.36978 -4.7798,-10.27176c1.81931,-2.77943 -1.67061,-6.4223 -1.67061,-6.4223z" stroke-linecap="round"/></g><path d="M207.44049,175.82869c-5.7821,2.89347 -19.2053,3.87122 -23.03479,0.42057c-1.92953,-1.73862 -6.20629,-6.65418 -5.05381,-14.97939c3.84724,-12.6445 24.87245,-2.97133 38.63933,1.18018c-0.98675,-3.41288 1.83503,-3.94453 2.29613,-4.06759c3.37543,-0.90082 5.18805,5.63406 5.41184,8.81899c0.2238,3.18492 -4.12117,15.82558 -30.55729,-4.11354c15.36068,8.42033 13.50229,12.1384 12.29861,12.74076z" fill="#5e1284" stroke-linecap="round"/></g><g><path d="M218.06642,110.7736c9.76146,-7.38453 15.54439,-3.84474 15.54439,-3.84474c0,0 6.83936,-11.87838 24.81839,-4.52706c25.26953,-3.47565 23.93862,6.55254 23.93862,6.55254c0,0 6.75583,9.48111 5.68453,16.18835c-1.17433,7.35225 -9.86237,7.22353 -11.27133,9.29533c-0.92729,1.36355 1.24736,5.84709 0.79431,9.02301c-0.38705,2.71323 -3.34082,4.1595 -3.34082,4.1595c0,0 -0.29313,4.21977 -0.70417,5.23288c-0.65,1.60209 -5.06602,0.81785 -5.06602,0.81785l-1.4515,3.48578c0,0 -7.17868,5.42256 -21.48541,5.38252c-13.08611,-0.03663 -21.24637,-4.72932 -21.24637,-4.72932c0,0 -13.22223,-0.76708 -12.37102,-13.55339c-13.88994,-10.49965 -2.67988,-15.75347 -2.67988,-15.75347c0,0 1.10972,-11.8846 8.83627,-17.72976z" fill="#3d2747" stroke="#0f002d" stroke-width="1.5" stroke-linecap="round"/><g><g><path d="M249.44088,145.88485c-0.16689,3.39214 -6.92383,11.36081 -16.14761,9.64948c-7.78293,-1.78165 -7.29307,-6.36359 -7.41363,-9.75999c-0.12055,-3.39641 1.82736,-10.40867 7.29633,-8.29273c3.3699,1.3038 16.50818,3.4586 16.2649,8.40324z" fill="#2f1e38" stroke="none" stroke-width="0" stroke-linecap="butt"/><path d="M249.05065,143.74054c0,0 3.65769,4.13554 -5.41788,9.98445c-6.8818,4.43512 -14.4104,0.68328 -14.4104,0.68328" fill="none" stroke="#0f002d" stroke-width="1" stroke-linecap="round"/></g><path d="M277.51563,133.35162c0,0 -0.87226,6.65421 -7.50305,9.61438c-10.23457,4.56903 -14.66452,-1.87694 -14.66452,-1.87694c0,0 -17.88744,7.49127 -22.1219,-3.29565c-5.75879,-0.57562 -2.65514,-4.72848 -2.65514,-4.72848" fill="#3d2747" stroke="#0f002d" stroke-width="1.5" stroke-linecap="round"/></g></g><g stroke="#0f002d" stroke-linecap="round"><path d="M224.78611,150.6525c0.20983,-0.75662 3.67234,5.79372 9.94014,6.94193c5.88303,1.07772 14.05177,-1.87793 17.2157,-2.20487c1.89561,-0.18027 4.1303,1.4565 6.2539,2.0773c3.15965,0.92368 6.70488,0.52532 6.30186,0.74316c-1.14605,0.61943 -5.99564,8.19639 -12.14817,11.51562c-3.55562,1.9182 -15.35401,4.2033 -22.06635,2.55906c-7.29601,-1.78722 -6.7164,-7.65099 -5.49708,-21.63217z" fill="#e9caf8" stroke-width="1.5"/><g><path d="M225.02688,155.61227c0,0 4.36702,4.77902 9.7547,5.54897c3.34742,0.47839 6.85637,-0.5788 11.21105,-0.63133c2.22556,-0.02683 5.28505,0.55562 8.24164,0.64668c2.82846,0.08712 5.60581,-0.31754 5.60581,-0.31754c0,0 -3.0286,2.33858 -4.38917,3.64704c-1.74874,1.68178 -5.60758,5.93785 -5.60758,5.93785c0,0 -6.71671,2.07443 -12.86571,2.26863c-4.74136,0.14975 -9.03955,-1.27676 -10.93533,-2.36815c-4.01468,-2.3112 -1.0154,-14.73217 -1.0154,-14.73217z" fill="#ffffff" stroke-width="1.5"/><path d="M251.96934,161.59058l-5.59872,8.97399l-1.01693,-9.39859l-8.65907,10.85987l-1.00017,-10.06872l-9.23136,7.66798l2.20499,-10.44436l-4.1219,3.12842" fill="none" stroke-width="1"/><path d="M257.66128,161.9189l-5.60404,5.53839l0.28557,-6.19684z" fill="#0f002d" stroke-width="1"/></g></g></g></g></svg>