<svg version="1.1" xmlns="http://www.w3.org/2000/svg" xmlns:xlink="http://www.w3.org/1999/xlink" width="172.71245" height="190.70315" viewBox="0,0,172.71245,190.70315"><g transform="translate(-274.26413,-186.88865)"><g data-paper-data="{&quot;isPaintingLayer&quot;:true}" fill="#000000" fill-rule="nonzero" stroke="none" stroke-width="0.5" stroke-linecap="butt" stroke-linejoin="miter" stroke-miterlimit="10" stroke-dasharray="" stroke-dashoffset="0" style="mix-blend-mode: normal"><path d="M316.16177,348.36637c0,3.83473 -0.09301,7.57823 0.83034,11.34121c0.36514,1.48807 1.04493,2.90407 1.8489,4.20841c1.32153,2.14403 2.66682,4.80391 4.8293,6.266c7.58522,5.1285 16.419,3.78732 25.15323,3.78732c6.7996,0 13.94524,-0.64202 20.16545,-3.37583c1.58954,-0.69861 4.53391,-1.44202 5.92556,-2.73376c0.57746,-0.536 -0.82193,-1.34894 -1.31034,-1.96718c-0.9119,-1.15431 -1.84989,-2.25617 -2.8332,-3.32578c-0.22854,-0.05703 -0.37716,-0.13134 -0.37716,-0.13134l-1.53273,-0.82478c-0.70299,-0.60313 -1.40598,-1.20626 -2.10898,-1.80939c-10.71178,-10.72631 -25.022,-19.9851 -27.45409,-36.09021c-1.04003,0.05131 -2.08058,0.08432 -3.12158,0.08561c-3.4934,0 -7.28752,0.40763 -10.76068,-0.00852c-1.62538,-0.19475 -3.1669,-0.553 -4.64024,-1.04622c-4.48147,7.92944 -4.61379,16.71414 -4.61379,25.62446zM371.53156,358.3054c2.20545,2.20767 8.4726,7.46477 6.49508,11.15585c-1.20998,2.25845 -5.50166,3.40927 -7.60385,4.32506c-6.69783,2.91785 -14.29783,3.68299 -21.59925,3.68299c-9.49972,0 -18.97806,1.28194 -27.19971,-4.44797c-2.53973,-1.77001 -4.19099,-4.69953 -5.75893,-7.26341c-0.98718,-1.61422 -1.80309,-3.3694 -2.26875,-5.20335c-1.02395,-4.03275 -0.93437,-8.07343 -0.93437,-12.18821c0,-9.45914 0.33391,-18.52215 4.86576,-26.97037c-1.03937,-0.51403 -2.04676,-1.09243 -3.02891,-1.72297c-0.43073,0.28908 -1.31869,0.67548 -2.20664,-0.21248c-0.60582,-0.60582 -0.61845,-1.21165 -0.4735,-1.67226c-0.49064,-0.37383 -0.97611,-0.75874 -1.45736,-1.153c-2.21136,-1.81164 -3.90992,-2.54949 -5.44063,-5.24704c-0.84705,-1.49275 -1.22104,-3.28526 -1.37132,-5.14951c-4.48591,-2.20645 -7.92135,-5.6466 -11.52631,-9.10663c-5.54477,-5.32186 -11.82361,-10.99034 -14.8189,-18.24609c-1.67933,-4.06797 -1.99229,-8.82285 -2.7704,-13.1528c-0.01093,-5.24434 -0.37499,-10.66239 -0.00111,-15.88974c0.26688,-3.73126 2.07998,-7.86805 3.24946,-11.37651c2.51483,-7.54448 5.10496,-14.5406 9.07979,-21.48189c6.41428,-8.98723 12.54323,-18.57537 21.61714,-25.1746c5.05406,-3.6757 12.33784,-6.66075 18.43206,-3.74774c2.96151,0.84001 5.47155,2.20829 8.10521,3.58215c0.13099,-0.18794 0.26125,-0.37667 0.39072,-0.56626c1.62916,-2.38579 1.47236,-5.13038 5.3709,-3.59343c2.46882,0.9733 4.80646,3.73565 6.78842,6.3424c6.84169,0.12147 13.44724,5.2426 19.46386,8.11016c8.50584,4.05394 17.31768,7.33396 25.76808,11.56076c7.29574,3.20966 14.36337,6.83523 21.1633,10.99033c3.60284,2.20152 7.78158,4.0865 10.67561,7.27047c1.2307,1.354 2.23892,3.18531 3.16815,4.85799c3.54401,-0.84272 7.10935,-1.4319 10.76846,-2.16769c1.50071,-0.30177 6.1306,-2.10057 7.40656,-0.46524c3.14083,4.02542 -1.26531,8.41668 -3.24577,11.3832c-1.26563,1.89578 -2.12461,3.84058 -3.57468,5.65317c-1.56227,2.34206 -3.02636,4.74577 -5.45477,6.31399c-2.62283,1.69377 -5.30535,1.28538 -8.06688,0.61977c-0.03292,0.18011 -0.07594,0.29482 -0.07594,0.29482c-3.15615,8.41625 -7.7743,16.89154 -13.9221,23.55564c-4.52233,4.90212 -9.95826,8.92352 -14.32107,14.01835c-4.55652,5.4676 -9.10373,10.5132 -14.56046,15.03c-0.20404,1.24401 -0.45311,2.74839 -0.47113,2.78655c-1.5014,3.17975 -5.35868,5.06243 -8.34793,6.22565c-8.49602,3.3061 -17.9076,2.80654 -26.96597,3.33949c-1.35619,0.07979 -2.71352,0.18405 -4.07185,0.28277c2.37582,14.91844 16.37969,23.80958 26.32862,33.74542c0.22892,0.19602 0.45784,0.39204 0.68676,0.58807c0.93798,-0.29249 1.71459,0.48412 1.71459,0.48412zM421.93361,234.09866c-2.64497,-2.90885 -6.59883,-4.60739 -9.88935,-6.61846c-6.69434,-4.09139 -13.65293,-7.65121 -20.83428,-10.81377c-9.4296,-4.71305 -19.48823,-8.17816 -28.79113,-13.07191c-3.50395,-1.84324 -7.70064,-4.73764 -11.83225,-5.83121c1.85095,1.76272 3.23327,3.86065 5.04145,5.67217c2.65074,2.65564 5.91547,4.74049 8.58225,7.40625c4.39836,4.39668 8.53028,10.22462 14.41773,12.83063c1.78943,0.79207 3.70168,-1.39168 5.64685,-1.60565c0.95642,-0.10521 1.78948,0.70783 2.68422,1.06174c2.76373,1.39561 7.14016,3.52136 7.97939,6.75142c0.78098,3.00585 -1.013,7.05791 -1.43689,10.02765c-0.23103,1.61856 0.6898,3.94343 -1.65543,4.93238c-1.51998,0.64095 -4.43385,-1.77842 -5.51039,-2.5457c-5.5659,-3.96697 -10.62444,-7.94797 -16.93284,-10.66139c-9.80205,-2.93453 -18.49291,-7.69404 -27.56631,-12.44691c-5.49918,-2.8806 -11.36159,-5.04071 -16.51512,-8.50652c-0.09177,0.15633 -0.18267,0.31326 -0.27266,0.47079l-0.11579,0.73266c0,0 -0.42444,1.69775 -2.12219,1.27331c-1.69775,-0.42444 -1.27331,-2.12219 -1.27331,-2.12219l0.47244,-1.62028c0.18363,-0.32125 0.37036,-0.6394 0.55995,-0.9547c-0.26621,-0.44951 -0.44139,-1.1391 0.18119,-1.91733c0.4865,-0.60812 1.02711,-0.72912 1.47734,-0.67612c2.68105,-3.96628 5.737,-7.5618 8.60793,-11.3642c-2.35179,-1.23095 -4.62632,-2.40911 -7.29435,-3.17668c-4.86099,-2.56989 -11.08921,0.3961 -15.09735,3.31109c-8.70903,6.33381 -14.57231,15.61612 -20.7358,24.23716c-3.81654,6.69415 -6.28395,13.43286 -8.70662,20.70086c-1.06596,3.19789 -2.87438,7.14611 -3.08178,10.55839c-0.30682,5.04787 0.01052,10.22575 -0.00111,15.28673c0.88829,4.82433 1.09857,10.20802 3.57573,14.54183c3.22348,5.6395 8.32988,10.21034 12.95262,14.64753c2.87006,2.75486 5.64117,5.61442 9.03049,7.6284c0.02582,-1.14432 0.06941,-2.25412 0.07185,-3.27552l0.31197,-1.90806c0,0 0.2877,-1.72619 2.01389,-1.43849c0.40414,0.06736 0.6979,0.21357 0.9108,0.39801c0.21384,-0.65195 0.43409,-1.33901 0.64825,-2.09376c3.295,-11.61258 9.80861,-20.99297 15.1887,-31.60706c5.12908,-7.07206 11.07121,-12.87896 18.85919,-16.53135c0.00536,-0.04241 0.01067,-0.08485 0.01594,-0.12731c0,0 0.21706,-1.73649 1.95355,-1.51943c0.43889,0.05486 0.75299,0.20679 0.97734,0.4032c0.28714,-0.10821 0.57667,-0.21369 0.86863,-0.31639c2.89782,-1.01933 7.6906,-2.54952 10.52517,-0.28521c2.41011,1.92524 2.51255,6.99377 3.44035,9.79459c3.63807,7.32097 9.65841,11.15009 16.60107,13.57428c1.11228,-0.79964 2.36758,-1.6266 3.23243,-1.32456c1.01991,0.35619 1.34884,1.68857 1.64971,2.79011c9.18839,2.38474 19.31305,3.29354 27.44791,6.90904c0.85543,0.18792 1.71085,0.37583 2.56628,0.56375l0.07723,0.05342l0.00904,-0.02712l0.65033,0.21678c4.59155,-5.77518 8.1276,-12.65 10.67168,-19.42407c-4.73249,-1.44036 -9.50678,-3.74083 -14.22193,-4.46515l-0.41487,-0.57319c-0.26005,-0.02137 -0.43906,-0.08104 -0.43906,-0.08104c-3.13675,-1.06021 -5.65102,-2.90101 -8.29044,-4.86684c-0.86198,-0.642 -2.40804,-0.89582 -2.56044,-1.95975c-0.18697,-1.30531 1.10594,-2.39889 1.77319,-3.53625c1.45353,-2.47763 3.38168,-4.68646 4.87069,-7.15559c0.50215,-0.83268 0.51968,-2.07217 1.34295,-2.58959c1.04984,-0.65983 2.46611,-0.83357 3.67672,-0.56531c0.91162,0.20201 1.4009,1.2349 2.10623,1.84677c1.61034,1.39697 5.52037,3.37553 5.83918,5.75449c0.07748,0.57815 0.1143,1.04308 0.114,1.41663c1.76377,-0.92478 3.74632,-1.22139 5.79013,-1.94387c0.82428,-0.29138 1.64753,-0.55691 2.47064,-0.80162c-0.68057,-1.22899 -1.42201,-2.48477 -2.2929,-3.44255zM394.54578,293.56407c3.61297,-4.21132 7.93083,-7.70892 11.88955,-11.55107c-0.01757,0.00233 -0.03052,0.00401 -0.03846,0.005c-3.65199,0.45392 -8.38833,-0.57825 -11.83881,1.02879c-2.76599,1.28824 -3.73762,3.45996 -5.0641,5.98338c-2.93288,5.57935 -5.60425,10.69657 -6.36069,16.77582c4.13235,-3.76194 7.76172,-7.86081 11.4125,-12.24193zM342.69206,260.02527c-0.04559,1.07063 -0.04305,2.14277 -0.05979,3.21423c-0.0107,0.68537 -0.05967,1.37179 -0.02252,2.05623c0.02284,0.42075 0.09537,1.44211 0.43162,1.18816c4.29393,-3.24306 7.94636,-6.2071 13.08892,-8.12703c0.35667,-0.13316 0.86392,-0.30614 1.43503,-0.45952c-0.53952,-0.91185 -1.04454,-1.85195 -1.53505,-2.82807c-0.63401,-1.89246 -1.01855,-7.29725 -2.442,-8.4407c-1.588,-1.27564 -5.64503,0.36809 -7.12188,0.89126c-0.61788,0.21888 -1.22383,0.45101 -1.81834,0.69598c-0.68948,3.94049 -1.78408,7.77303 -1.95598,11.80945zM364.07794,267.92836c0.15979,0.90919 -0.56936,2.34701 0.25754,2.75737c1.14804,0.56972 2.54593,-0.33599 3.79186,-0.63639c1.07998,-0.26038 2.25303,-0.44342 3.39394,-0.70867c-2.85459,-1.03188 -5.56648,-2.36307 -7.96943,-4.27728c0.17891,0.95436 0.35802,1.90869 0.52608,2.86497zM380.60629,279.36191c0.00777,0.62901 1.1756,-0.48024 1.68584,-0.84818c0.50918,-0.36717 0.94085,-0.83964 1.47059,-1.17647c1.4549,-0.92508 3.00109,-1.70418 4.4349,-2.66161c0.41474,-0.23723 0.82948,-0.47446 1.24422,-0.71169c-2.04589,-0.44892 -4.06648,-0.89821 -6.02038,-1.3906c-0.74421,-0.18755 -1.49364,-0.36979 -2.24557,-0.55133c-0.02661,2.47182 -0.59622,5.18448 -0.56961,7.33988zM348.38321,319.48104c-0.30562,-0.65088 -0.32511,-1.85517 -1.04342,-1.88806c-1.18449,-0.05423 -3.56603,1.21744 -4.56646,2.50701c1.89525,-0.10556 3.7898,-0.24473 5.68389,-0.39503zM325.98054,313.16894c-0.01681,-0.31573 0.03924,-0.87873 -0.27562,-0.90761c-0.39676,-0.03639 -0.53983,0.60584 -0.88721,0.80095c-0.81589,0.45825 -1.72905,0.72015 -2.56605,1.13862c-1.89376,0.94682 -3.49829,1.89176 -5.01793,3.0679c2.56986,1.54597 5.3511,2.67112 8.52693,3.03637c0.13952,0.01605 0.27955,0.03075 0.42006,0.04419c-0.35927,-2.43393 -0.06995,-4.73406 -0.20019,-7.18041z"/><path d="M363.25,237.04664c0,-0.9665 0.7835,-1.75 1.75,-1.75c0.9665,0 1.75,0.7835 1.75,1.75c0,0.9665 -0.7835,1.75 -1.75,1.75c-0.9665,0 -1.75,-0.7835 -1.75,-1.75z"/><path d="M400.01471,252.92899c0,-0.9665 0.7835,-1.75 1.75,-1.75c0.9665,0 1.75,0.7835 1.75,1.75c0,0.9665 -0.7835,1.75 -1.75,1.75c-0.9665,0 -1.75,-0.7835 -1.75,-1.75z"/></g></g></svg>