<svg version="1.1" xmlns="http://www.w3.org/2000/svg" xmlns:xlink="http://www.w3.org/1999/xlink" width="128.67297" height="152.82373" viewBox="0,0,128.67297,152.82373"><defs><linearGradient x1="194.4596" y1="144.25333" x2="197.69756" y2="190.90645" gradientUnits="userSpaceOnUse" id="color-1"><stop offset="0" stop-color="#cc2981"/><stop offset="1" stop-color="#a92292"/></linearGradient><linearGradient x1="304.46976" y1="146.10427" x2="295.92768" y2="192.08286" gradientUnits="userSpaceOnUse" id="color-2"><stop offset="0" stop-color="#cc2981"/><stop offset="1" stop-color="#a92292"/></linearGradient><linearGradient x1="279.37407" y1="213.50219" x2="279.37407" y2="237.25864" gradientUnits="userSpaceOnUse" id="color-3"><stop offset="0" stop-color="#9966ff"/><stop offset="1" stop-color="#66ebff"/></linearGradient><linearGradient x1="309.929" y1="209.31827" x2="309.929" y2="237.33108" gradientUnits="userSpaceOnUse" id="color-4"><stop offset="0" stop-color="#9966ff"/><stop offset="1" stop-color="#66ebff"/></linearGradient><radialGradient cx="230.24877" cy="205.85558" r="5.02555" gradientUnits="userSpaceOnUse" id="color-5"><stop offset="0" stop-color="#54606d"/><stop offset="1" stop-color="#2c3136"/></radialGradient></defs><g transform="translate(-185.17384,-85.60676)"><g data-paper-data="{&quot;isPaintingLayer&quot;:true}" fill-rule="nonzero" stroke-miterlimit="10" stroke-dasharray="" stroke-dashoffset="0" style="mix-blend-mode: normal"><g data-paper-data="{&quot;index&quot;:null}" stroke="#000000" stroke-width="0.90024" stroke-linecap="round" stroke-linejoin="miter"><path d="M283.50658,164.17639c0,0 4.00659,-13.00597 4.26435,-13.65323c0.25771,-0.64713 1.74775,-6.38419 10.90796,-12.31365c0,0 6.55673,30.91863 -5.18328,44.06569c-0.00038,-0.00082 -2.28322,-8.66111 -9.98903,-18.09881zM283.66748,164.37598c-0.61855,-0.78892 -1.97662,-2.06063 -1.97662,-2.06063M293.77779,184.7467c0,0 -0.05275,-1.60217 -0.28256,-2.47231" fill="#be1e2d"/><path d="M297.32543,175.18524c0,0 -1.98881,-0.45541 -3.86378,-4.09486c-1.16675,-2.25586 -2.08308,-6.92545 -2.08308,-6.92545l-0.02024,0.17169c0.30144,-1.03764 0.58062,-2.21658 0.75732,-3.45059c0.30074,-2.08827 0.40876,-5.0627 0.43121,-7.95628l0.02206,-0.4073c0,0 0.97004,-5.66592 6.83175,-9.01614l0.08799,0.00617c0.66704,4.85142 1.43372,12.064 1.06606,17.39996c-0.41224,5.98553 -1.83595,10.84827 -3.29708,14.40989l0.06782,-0.13707v0v0v0v0v0zM289.99659,167.86857c0,0 1.18304,-3.07952 1.38199,-3.70365" fill="#929497"/></g><g data-paper-data="{&quot;index&quot;:null}" stroke="#000000" stroke-width="0.90024" stroke-linecap="round" stroke-linejoin="miter"><path d="M201.36665,181.683c-10.51117,-14.14777 -1.20446,-44.35272 -1.20446,-44.35272c8.59036,6.72893 9.55919,12.57662 9.75819,13.2435c0.19895,0.66697 3.02103,13.98101 3.02103,13.98101c-8.52342,8.70791 -11.57476,17.12821 -11.57476,17.12821zM214.91562,162.86461c0,0 -1.46678,1.14462 -2.1536,1.87485M201.36665,181.683c-0.30711,0.84593 -0.50344,2.43694 -0.50344,2.43694" fill="#be1e2d"/><path d="M198.24379,174.42114c-1.13494,-3.67921 -2.11544,-8.64972 -1.98981,-14.6478c0.11222,-5.34786 1.52438,-12.46195 2.62431,-17.23392l0.08827,0.00181c5.53751,3.86429 5.99447,9.59321 5.99447,9.59321l-0.01461,0.40764c-0.23758,2.88386 -0.39702,5.85602 -0.28503,7.96286c0.06515,1.24489 0.23735,2.44414 0.44438,3.50465l-0.00474,-0.17281c0,0 -1.33196,4.56844 -2.69667,6.71036c-2.19414,3.45643 -4.2159,3.73135 -4.2159,3.73135zM205.10103,163.83679c0.14209,0.63947 1.04381,3.81279 1.04381,3.81279" fill="#929497"/></g><path d="M203.03821,143.76541c0,0 4.29369,-39.1588 52.10901,-37.50525c32.81077,1.13467 42.85108,40.25888 42.85108,40.25888" data-paper-data="{&quot;index&quot;:null}" fill="none" stroke="#000000" stroke-width="7" stroke-linecap="round" stroke-linejoin="miter"/><path d="M243.37296,214.83396v0v0v0v0v0c-0.65353,1.7331 -2.41972,4.79054 -3.32155,5.48062c0,0 -3.65069,2.53988 -5.44999,0.91126c-0.76912,-0.69561 -0.9627,-1.6474 -0.71963,-2.78219c-0.35537,-0.21778 -0.82794,-0.6047 -0.93459,-1.22797c-0.17847,-1.03339 1.99919,-1.29088 1.99919,-1.29088l-0.00425,0.01842c0.1636,-0.27262 0.3322,-0.54326 0.52392,-0.82614c1.08952,-1.5966 3.14642,-3.63079 4.21524,-4.78494c0,0 0.9002,-1.02768 2.4465,-0.63804c1.64509,0.41426 1.89868,3.40676 1.24515,5.13985z" data-paper-data="{&quot;index&quot;:null}" fill="#be1e2d" stroke="#231f20" stroke-width="0.78672" stroke-linecap="round" stroke-linejoin="round"/><path d="M258.22143,217.36084v0v0v0v0c0,0 -3.46029,2.79337 -5.36972,1.29263c-0.82038,-0.6352 -1.07667,-1.57444 -0.91815,-2.72422c-0.37259,-0.19113 -0.86805,-0.5414 -1.02052,-1.15659c-0.25199,-1.01661 1.90166,-1.43279 1.90166,-1.43279l-0.00279,0.01787c0.14535,-0.28038 0.29365,-0.56521 0.46342,-0.86146c0.97422,-1.66721 2.87946,-3.84715 3.86174,-5.07474c0,0 1.28923,-1.15117 2.51557,-0.6503c1.2264,0.49988 1.65391,2.66047 1.40303,3.5905c-0.25169,0.93009 -1.35917,5.48766 -2.83423,6.99909z" data-paper-data="{&quot;index&quot;:null}" fill="#be1e2d" stroke="#231f20" stroke-width="0.78672" stroke-linecap="round" stroke-linejoin="round"/><path d="M252.91363,218.20271c1.58098,-0.36581 3.46597,0.19223 3.46597,0.19223c0,0 0.56085,5.18662 0.71651,7.06071c0.15651,1.87685 0.95861,4.84261 0.95861,4.84261c0,0 0.4701,0.31822 0.29134,1.07108c-0.18236,0.75085 -1.86057,0.80561 -3.97704,1.08774c-2.11262,0.27774 -3.8035,-0.15416 -4.09102,-0.92026c-0.29041,-0.76265 0.34728,-1.07532 0.34728,-1.07532c0,0 1.31474,-6.08433 0.54476,-8.24589c0.00424,0.00474 -0.27212,-3.54671 1.74359,-4.0129z" data-paper-data="{&quot;index&quot;:null}" fill="#be1e2d" stroke="#231f20" stroke-width="0.90024" stroke-linecap="round" stroke-linejoin="round"/><path d="M246.17528,218.40698v0v0v0v0v0c2.73305,1.44176 2.88852,4.03625 2.88927,4.03899c-0.67838,2.18579 0.81309,7.43393 0.81309,7.43393c0,0 0.65152,0.28141 0.39942,1.05634c-0.25589,0.77652 -1.92229,1.28462 -4.04977,1.09903c-2.12379,-0.18729 -3.80185,-0.16759 -4.01753,-0.91257c-0.21568,-0.74499 0.24129,-1.0821 0.24129,-1.0821c0,0 0.14699,-1.75636 0.21803,-3.63861c0.06884,-1.87697 0.04697,-7.0409 0.04697,-7.0409c0,0 1.66873,-1.89911 3.45924,-0.95411z" data-paper-data="{&quot;index&quot;:null}" fill="#be1e2d" stroke="#231f20" stroke-width="0.90024" stroke-linecap="round" stroke-linejoin="round"/><g data-paper-data="{&quot;index&quot;:null}" stroke-width="0.90024"><path d="M257.38982,211.83662v0v0v0v0v0c0.25922,2.82028 -0.69256,7.93472 -3.99813,9.56548c-3.26933,1.60933 -6.6187,1.1837 -9.97254,-1.38797c-2.77873,-2.13145 -2.39687,-7.76524 -1.9199,-10.90265v0c0,0 0.42446,-7.29579 6.61538,-7.85412c6.18901,-0.55833 8.72971,5.19879 9.01056,8.71805c0.11517,0.62313 0.20798,1.25765 0.26464,1.86121z" fill="#be1e2d" stroke="#000000" stroke-linecap="butt" stroke-linejoin="miter"/><path d="M255.25185,219.75878v0v0v0v0v0l-0.0232,0.14203c-0.50717,0.62467 -1.11659,1.14452 -1.83596,1.49953c-3.02831,1.49099 -6.12396,1.23638 -9.22949,-0.8536l-0.02527,-0.14562c0,0 -1.18601,-9.37426 4.75328,-9.4605c6.744,-0.09479 6.48897,7.26819 6.36065,8.81816z" fill="#e6e7e8" stroke="#231f20" stroke-linecap="round" stroke-linejoin="round"/></g><g data-paper-data="{&quot;index&quot;:null}" stroke="#000000" stroke-linecap="butt" stroke-linejoin="miter"><g><g stroke-width="0.4"><path d="M276.08468,234.41991l-0.04384,-0.00556c-1.44913,-0.13957 -3.3012,-0.8257 -3.97485,-1.45446l-0.10257,0.0956l-1.13897,-0.47477l0.31227,-0.24915c0.03465,-0.02906 3.49176,-2.82304 3.66823,-5.99681l0.01808,-0.32645l0.30467,0.11939c0.16202,0.06452 0.53244,0.23485 0.64257,0.48822l0.04444,0.01974c1.6936,0.75971 3.27891,0.75288 3.72483,0.73232l0.24121,-0.00359c0.11126,0.03183 0.4489,0.12701 0.47455,0.41645c0.02573,0.29135 -0.30925,0.47909 -0.49521,0.55203c-0.09051,0.00794 -0.18205,0.01406 -0.27558,0.01838c-1.33669,0.06163 -2.96784,-0.22667 -3.75747,-0.63994c-0.02764,0.16031 -0.0692,0.34683 -0.12968,0.55505c1.64471,0.70518 3.16177,0.69577 3.59631,0.67574l0.24416,-0.00177c0.11031,0.03182 0.44796,0.12705 0.4736,0.41644c0.02573,0.29136 -0.30829,0.47905 -0.49425,0.55199c-0.08955,0.00794 -0.18205,0.01406 -0.27558,0.01838c-1.44344,0.06656 -3.22944,-0.27421 -3.90955,-0.71431c-0.08215,0.1685 -0.17185,0.33736 -0.26922,0.50466c1.86024,0.94611 3.6043,0.91112 3.70717,0.92531c0.10786,0.03951 0.43806,0.15873 0.44206,0.45108c0.00404,0.2923 -0.34357,0.45226 -0.53494,0.51124c-1.51477,0.01779 -3.52674,-0.50192 -4.17202,-1.04871c-0.13376,0.17846 -0.28147,0.36324 -0.44136,0.54954c1.75436,0.96896 3.41106,1.03173 3.51039,1.0508c0.10625,0.04621 0.42885,0.18565 0.41768,0.4768c-0.01312,0.29029 -0.36818,0.43257 -0.56287,0.48035c-1.45887,-0.06337 -3.35093,-0.65111 -4.06257,-1.26201c-0.13585,0.13403 -0.27821,0.26937 -0.42896,0.4079c1.68258,1.03473 3.30362,1.18625 3.40225,1.21102c0.10272,0.05114 0.4166,0.20611 0.38926,0.49614c-0.02826,0.29098 -0.39084,0.41372 -0.50208,0.44441z" fill="#871212"/><path d="M275.04134,226.35036c-0.18394,3.3199 -3.7569,6.16753 -3.7569,6.16753l0.62935,0.26346l0.16886,-0.15734c0.00722,0.01292 0.00848,0.01949 0.01669,0.03427c0.3256,0.53215 2.36449,1.36871 3.96399,1.52595c0,0 0.69364,-0.19103 0.06971,-0.50023c0,0 -1.83895,-0.15567 -3.68707,-1.39197c0.30302,-0.2658 0.57514,-0.52353 0.82089,-0.7772c0.01134,0.01936 0.0158,0.03427 0.03102,0.05631c0.35317,0.51481 2.43424,1.23958 4.04016,1.30942c0,0 0.68144,-0.22926 0.04205,-0.50462c0,0 -1.86174,-0.05422 -3.78464,-1.20855c0.31068,-0.34566 0.57836,-0.6789 0.79846,-0.9967c0.01955,0.0341 0.03829,0.07018 0.07253,0.11499c0.3816,0.49452 2.49894,1.10311 4.10742,1.08482c0,0 0.66747,-0.26558 0.01465,-0.50336c0,0 -1.91643,0.05332 -3.93214,-1.04085c0,0 -0.01417,0.00066 -0.0341,-0.00033c0.22938,-0.36366 0.40114,-0.70292 0.5317,-1.01378c0.02024,0.02843 0.03572,0.05704 0.06668,0.09161c0.39498,0.43618 2.34489,0.86221 3.91018,0.79004c0.08972,-0.00413 0.17846,-0.01013 0.2661,-0.01794c0,0 0.64627,-0.31476 -0.0233,-0.50543c0,0 -0.05935,0.00655 -0.16891,0.0116c-0.51009,0.02351 -2.10721,0.0214 -3.83077,-0.75108c0,0 -0.00185,0.00009 -0.00566,0.00026c-0.01132,0.00052 -0.03863,0.00364 -0.07152,0.00897c0.16425,-0.4828 0.22574,-0.87376 0.24258,-1.14438c0.01008,0.0128 0.01324,0.01928 0.02431,0.03393c0.39498,0.43618 2.34489,0.86221 3.91018,0.79004c0.08972,-0.00413 0.17846,-0.01013 0.2661,-0.01794c0,0 0.64626,-0.31476 -0.02322,-0.50353c0,0 -0.05839,0.00651 -0.16605,0.01147c-0.50823,0.02344 -2.10725,0.02141 -3.83276,-0.75289c0,0 0,0 -0.00095,0.00004c-0.01037,0.00048 -0.10095,0.00652 -0.1819,0.03771c-0.00182,-0.01884 -0.0032,-0.02917 -0.0032,-0.02917c0.19509,-0.2438 -0.4905,-0.51511 -0.4905,-0.51511M274.60582,225.66995l0.60942,0.24174c0.21406,0.08477 0.55886,0.25346 0.72661,0.52501c1.63524,0.72545 3.15901,0.7177 3.58879,0.69788c0.08501,-0.00392 0.13399,-0.00995 0.13965,-0.01021l0.08955,-0.00794l0.08723,0.02344c0.50068,0.14164 0.62794,0.4169 0.64595,0.62246c0.03932,0.44218 -0.40634,0.69373 -0.54427,0.76068l-0.07869,0.03862l-0.0877,0.00786c-0.09337,0.00806 -0.18867,0.01437 -0.285,0.01881c-1.16856,0.05387 -2.67952,-0.15383 -3.59885,-0.52512c-0.00475,0.02009 -0.01032,0.04305 -0.01593,0.06509c1.52364,0.60474 2.89682,0.59629 3.30211,0.5776c0.08597,-0.00396 0.13593,-0.00812 0.14254,-0.00843l0.08946,-0.00985l0.08723,0.02344c0.49987,0.14358 0.62708,0.41885 0.64509,0.62441c0.03932,0.44218 -0.40634,0.69373 -0.54427,0.76068l-0.07869,0.03862l-0.0877,0.00786c-0.09332,0.00807 -0.18867,0.01437 -0.285,0.01881c-1.26776,0.05845 -2.93965,-0.19013 -3.82023,-0.62475c-0.01399,0.02435 -0.02694,0.05144 -0.04099,0.07574c1.71558,0.80508 3.26869,0.77699 3.28477,0.77625l0.08981,-0.00224l0.08472,0.03114c0.48817,0.1772 0.59411,0.46294 0.597,0.6692c0.00617,0.44181 -0.45709,0.66102 -0.59836,0.71774l-0.08163,0.03595l-0.08804,0.00025c-1.32936,0.0149 -3.24568,-0.40129 -4.12626,-0.95991c-0.03936,0.05006 -0.07962,0.10021 -0.12084,0.15131c1.6003,0.81039 3.0466,0.8668 3.06272,0.86797l0.08921,0.00437l0.08299,0.03498c0.47806,0.20517 0.5672,0.49546 0.55881,0.70318c-0.01933,0.44298 -0.49333,0.63427 -0.63875,0.6836l-0.08298,0.02747l-0.08723,-0.0026c-0.31591,-0.01475 -0.66329,-0.0546 -1.02205,-0.11568l0.04747,0.02337c0.46604,0.23219 0.54019,0.52602 0.52025,0.73052c-0.04207,0.44213 -0.52665,0.60836 -0.67441,0.6483l-0.0841,0.02375l-0.08658,-0.00926c-1.29898,-0.12661 -3.1151,-0.73106 -3.95105,-1.36941l-0.05353,0.05076l-0.28189,-0.11858l-0.62926,-0.26162l-0.73747,-0.30773l0.62454,-0.49835c0.03379,-0.02711 3.40954,-2.75865 3.57961,-5.82514l0.03621,-0.65206zM273.27002,232.17734c-0.01356,0.01387 -0.02718,0.0268 -0.04178,0.03887c1.42092,0.80065 2.7181,0.96996 2.91797,0.99293c-1.0934,-0.20517 -2.25399,-0.5947 -2.87619,-1.0318z" fill="#000000"/></g><path d="M252.20987,210.04988c0,0 5.7462,-0.6985 10.31301,3.3897c4.56689,4.09011 3.11153,8.45599 12.98144,12.93208c0,0 0.88252,2.8788 -3.75134,6.76078c0,0 -8.41203,-4.18828 -10.74375,-10.43191c-2.33164,-6.24179 -8.04881,-9.55276 -10.99893,-9.43757l-3.23627,-0.32033z" fill="#ba2915" stroke-width="0.4"/><g fill="#871212" stroke-width="0.4"><path d="M272.92476,225.12074c0,0 0.4049,3.87496 -4.02399,6.35023l-1.1282,-0.83688c0,0 4.0189,-4.3658 3.76954,-6.36596z"/><path d="M269.37462,222.59218c0,0 -0.13794,3.00346 -4.39261,5.68466l-1.36247,-1.31838c0,0 4.15229,-2.54107 4.58414,-5.63761z"/><path d="M266.8897,219.55438c0,0 -0.86555,3.07396 -5.38299,4.34722l-0.70817,-1.66473c0,0 4.71263,-1.72059 5.43825,-3.74296z"/><path d="M264.44138,215.58712c0,0 -0.69325,2.62203 -5.14654,3.7873l-1.05842,-1.35604c0,0 4.8398,-2.4535 5.31083,-3.55063z"/><path d="M259.77889,211.55916c0.33396,0.0982 1.62547,0.9872 1.62547,0.9872l-5.56652,3.05596l-1.64763,-1.32415c0,0 5.25473,-2.81722 5.58869,-2.71901z"/><path d="M256.27754,210.54106l-4.56799,2.90766l-2.23104,-0.24173l4.53814,-3.22622l2.2609,0.5603"/></g><path d="M271.78672,233.4121l-0.13846,-0.06747c-0.34692,-0.17338 -8.52152,-4.30347 -10.8596,-10.56197c-2.21388,-5.92535 -7.76444,-9.40114 -10.80156,-9.2838l-4.01326,-0.39716l6.2072,-3.28617c0,0 0.16852,-0.02103 0.47176,-0.03501c1.3688,-0.06312 6.13817,0.00097 10.02766,3.48332c1.6469,1.47279 2.54063,3.01344 3.40541,4.50242c1.57946,2.71889 3.2134,5.5318 9.51645,8.38979l0.0967,0.04378l0.0312,0.10178c0.03885,0.12412 0.87443,3.07324 -3.82499,7.01222l-0.11852,0.09824zM275.29799,226.53643c-6.35065,-2.90403 -8.01335,-5.76583 -9.62157,-8.5345c-0.88534,-1.52306 -1.72136,-2.96315 -3.31211,-4.38743c-3.75415,-3.36083 -8.36634,-3.42363 -9.6898,-3.36261c-0.22008,0.01109 -0.36425,0.02533 -0.37321,0.01625l-4.728,2.51652l2.42796,0.24208c3.08057,-0.12026 8.85143,3.22609 11.22949,9.59164c2.11021,5.64889 9.39688,9.65621 10.49023,10.23058c3.844,-3.27375 3.66438,-5.79307 3.57702,-6.31256z" fill="#000000" stroke-width="0.4"/><path d="M275.34504,226.55338c0.08736,0.51949 0.25357,3.05886 -3.59043,6.33261c-1.09335,-0.57437 -8.42373,-4.56973 -10.53394,-10.21862c-2.37806,-6.36555 -8.09872,-9.73103 -11.17929,-9.61077l-2.51036,-0.29862l4.73878,-2.52865c0.00896,0.00908 0.15395,-0.00582 0.37403,-0.01691c1.32346,-0.06102 5.97205,-0.00841 9.7262,3.35242c1.59076,1.42428 2.45937,2.88191 3.34471,4.40497c1.60821,2.76867 3.27964,5.67955 9.63029,8.58358z" data-paper-data="{&quot;noHover&quot;:true,&quot;origItem&quot;:[&quot;Path&quot;,{&quot;applyMatrix&quot;:true,&quot;segments&quot;:[[[431.94081,453.0728],[0,0],[-0.17472,1.03898]],[[439.09485,465.69792],[-7.688,-6.5475],[2.1867,-1.14874]],[[460.07531,445.23676],[-4.22042,11.29778],[4.75612,-12.7311]],[[482.53429,426.05348],[-6.16114,-0.24052],[0,0]],[487.39021,425.56932],[[477.93421,420.53628],[0,0],[-0.01792,0.01816]],[[477.18779,420.50378],[0.44016,0.02218],[-2.64692,-0.12204]],[[457.80819,427.229],[7.5083,-6.72166],[-3.1815,2.84856]],[[451.18397,436.00386],[1.77068,-3.04612],[-3.21644,5.53734]],[[431.94083,453.07286],[12.7013,-5.80806],[0,0]]],&quot;closed&quot;:true,&quot;fillColor&quot;:[0,0,0,1],&quot;strokeColor&quot;:[0,0,0],&quot;strokeWidth&quot;:0.4}]}" fill="#000000" stroke-width="0.2"/></g><g stroke-width="0.4"><path d="M238.67652,205.26938c0.00096,-0.00005 7.12995,-3.22932 16.96523,6.08011c0,0 -5.35796,2.73298 -10.73191,1.85616c-5.37486,-0.87683 -7.14924,-2.15723 -9.04628,-0.9442c0,0 -1.15521,-1.95743 2.26234,-3.53502c0,0 -1.29238,-2.36574 0.55063,-3.45705z" fill="#ba2915"/><g fill="#871212"><path d="M248.97082,206.56971c-2.30876,2.4258 -1.325,6.80227 -1.325,6.80227l-0.85019,0.0392c-1.30915,-5.15101 1.37623,-7.2524 1.37623,-7.2524z"/><path d="M245.11882,205.09068c0,0 -2.32087,2.0401 -1.61001,7.62293l-1.07914,-0.22476c0,0 -0.73081,-4.57846 1.43478,-7.66597z"/><path d="M252.13608,208.44962c-0.82937,0.61383 -1.13565,4.48368 -1.13565,4.48368l-0.60488,0.12353c-0.60234,-2.79708 1.06544,-5.12229 1.06544,-5.12229z"/><path d="M237.58311,211.67476c-0.00095,0.00004 -0.16135,-2.20588 1.23869,-3.27576c0.05682,-0.16357 0.01645,-2.72244 0.5953,-3.3701l1.33804,-0.25769c0,0 -1.30763,1.30705 -0.89432,3.45493c0,0 -1.56119,1.51659 -1.2849,3.40284l-0.99282,0.04578z"/></g><path d="M235.53851,210.81666c0.26387,-0.84711 1.02691,-1.5866 2.26904,-2.19957c-0.43607,-0.95686 -0.73849,-2.67056 0.77101,-3.5628c0.0436,-0.01907 1.05288,-0.46794 2.82977,-0.54987c3.19579,-0.14736 8.28556,0.89123 14.39598,6.67381l0.24346,0.23015l-0.29873,0.15199c-0.03609,0.01872 -3.65909,1.84335 -7.89018,2.03844c-1.04102,0.048 -2.04503,-0.0051 -2.98739,-0.15855c-1.81614,-0.29679 -3.22826,-0.63969 -4.36279,-0.91586c-2.20107,-0.53565 -3.39014,-0.78279 -4.51662,-0.06345l-0.20695,0.13164l-0.12425,-0.21105c-0.01643,-0.02767 -0.3961,-0.68604 -0.12235,-1.56488zM235.99223,210.94626c-0.13042,0.41497 -0.07752,0.76184 -0.01473,0.97387c1.18516,-0.63781 2.4596,-0.38702 4.64152,0.14383c1.12588,0.27371 2.5285,0.61519 4.32739,0.90806c0.909,0.14836 1.88267,0.20002 2.88967,0.15358c3.42438,-0.15789 6.44235,-1.4103 7.38995,-1.84117c-5.87587,-5.46015 -10.73811,-6.44958 -13.79693,-6.30854c-1.66257,0.07666 -2.62872,0.49608 -2.63248,0.49625c-1.33713,0.79151 -0.81956,2.34574 -0.56776,2.92106c0.56216,-0.20957 1.92098,-0.489 3.87273,0.59296c0,0 -2.02762,-0.90048 -4.05048,0.0476c-1.11357,0.54741 -1.83217,1.20342 -2.05887,1.9125z" fill="#000000"/></g><g stroke-width="0.4"><path d="M267.38118,206.72716c0.83242,1.38158 -0.62136,1.92198 -0.62136,1.92198c-18.11894,6.10169 -20.50031,0.64985 -23.01853,-1.83734c-2.51636,-2.48728 -5.06286,-1.54155 -5.06286,-1.54155c-1.60206,-3.94945 2.61531,-6.14607 2.61531,-6.14607l0.0558,1.2101c11.92262,8.36399 21.74876,-0.50962 21.74371,-0.61918c-0.00506,-0.10961 1.07874,0.29767 1.71809,1.33225c0.63939,1.03453 -0.50058,1.97509 -0.50058,1.97509c-0.1286,1.0709 2.23804,2.32309 3.07042,3.70472z" fill="#ba2915"/><g fill="#871212"><path d="M262.02236,200.59278c0,0 1.6371,0.5001 0.9312,3.15487c0,0 0.12747,1.49174 1.3655,2.67764c1.23797,1.18586 1.24953,2.07237 1.47816,2.53515l-1.86853,0.53774c0,0 -0.164,-1.6273 -0.97325,-2.50641c-0.8092,-0.87905 -1.01108,-2.19788 -1.11584,-2.7866c-0.10476,-0.58873 0.65646,-2.04384 -0.65806,-2.95923z"/><path d="M258.93092,202.44781c-0.02836,-0.24479 0.61786,0.99963 0.49834,2.67787c-0.11952,1.67824 0.923,2.48504 1.35859,3.57535c0.43554,1.09037 0.51139,1.56496 0.51139,1.56496l-1.36421,0.32703c0,0 -0.765,-2.3636 -1.37718,-3.32177c-0.61218,-0.95822 -0.34196,-1.93439 -0.38691,-2.90923c-0.04496,-0.97489 -0.36991,-1.3916 -0.36991,-1.3916z"/><path d="M255.28267,203.56176c0.00344,0.07465 0.75213,1.77536 0.43901,3.52503c-0.31317,1.74967 0.83939,3.87476 0.83939,3.87476l-1.3147,0.14772c0,0 -0.88868,-1.96596 -0.77343,-3.73678c0.11525,-1.77082 0.14564,-2.32225 -0.19855,-3.62884z"/><path d="M251.65806,203.8728c0,0 -0.77173,2.5206 0.06905,4.70078c0,0 -0.58845,1.34206 0.53798,2.67413l-0.70757,0.03262c0,0 -1.07521,-0.83748 -0.85685,-2.50702c0,0 -1.25178,-1.01297 -0.2763,-4.84269l1.23374,-0.05689z"/><path d="M247.74466,203.38206c0,0 -1.68904,2.33663 -0.70386,5.34795c0,0 -0.19545,0.46244 0.2555,1.25013l-1.05574,-0.64147c0,0 -0.2647,-0.52548 -0.21117,-0.72012c0.05348,-0.19465 -1.17526,-1.67251 0.35419,-5.62246z"/><path d="M243.52225,201.71279c0,0 -1.61762,1.27776 -1.07319,4.11255l-1.07015,-0.54235c0,0 -0.13703,-2.97185 1.25354,-4.04135z"/><path d="M241.1187,200.46039c0,0 -2.72956,0.99869 -2.33979,4.40194l0.00359,0.36526c0,0 -2.10439,-3.09988 2.51438,-6.0146z"/></g><path d="M238.45908,205.35892c-1.66401,-4.1018 2.68117,-6.42175 2.72455,-6.44554l0.32817,-0.17132l0.06747,1.46328c3.55688,2.46958 7.27041,3.63411 11.04146,3.46023c5.9088,-0.27245 9.82107,-3.66582 10.24338,-4.05353l0.00959,-0.14152l0.23616,-0.01088c0.2815,-0.01298 1.29842,0.48354 1.90205,1.46198c0.54832,0.88732 -0.00646,1.76963 -0.44907,2.1895l0.00852,0.02044c-0.00817,0.007 -0.01746,0.01124 -0.02567,0.01825c0.03942,0.48475 0.73862,1.11329 1.41897,1.72282c0.61326,0.55012 1.24721,1.1182 1.61823,1.73256c0.28911,0.47988 0.36373,0.92892 0.22251,1.33495c-0.2275,0.65044 -0.9336,0.91965 -0.9709,0.93272c-5.01702,1.68918 -9.24716,2.62358 -12.57425,2.77699c-6.18558,0.28521 -8.36238,-2.1259 -9.95066,-3.88635c-0.25332,-0.2799 -0.49283,-0.54622 -0.73478,-0.78403c-1.45703,-1.43992 -2.91601,-1.68979 -3.88239,-1.64523c-0.56865,0.02622 -0.92998,0.15649 -0.93369,0.15762l-0.2141,0.07895l-0.08552,-0.21188zM241.07561,199.52618c-0.91683,0.58567 -3.33124,2.46536 -2.25617,5.45552c0.715,-0.17876 2.95477,-0.44675 5.08729,1.66066c0.24792,0.24416 0.49334,0.51683 0.75273,0.80399c0.23943,0.26448 0.48869,0.53788 0.75693,0.81238c4.37699,1.22386 8.55453,-0.44083 8.55453,-0.44083c-2.91965,1.8443 -6.72636,1.26532 -7.96799,1.00734c1.52167,1.3631 3.76736,2.55837 8.23556,2.35234c3.28266,-0.15137 7.46967,-1.07715 12.43729,-2.74985c0.00558,-0.00216 0.53198,-0.20632 0.68397,-0.64688c0.09188,-0.2655 0.03104,-0.57888 -0.18117,-0.93166c-0.33413,-0.55355 -0.94145,-1.09827 -1.52898,-1.62407c-0.68432,-0.61406 -1.33142,-1.20047 -1.51861,-1.79017c-1.30375,0.79665 -2.89952,0.82384 -2.89952,0.82384c1.64907,-0.49354 2.47052,-1.01232 2.85102,-1.32144l0.00396,-0.03709l0.07298,-0.06019c0.04009,-0.03308 0.9721,-0.82389 0.45033,-1.6689c-0.49319,-0.7999 -1.25847,-1.17734 -1.44935,-1.23199c-0.86782,0.90903 -4.99924,3.94426 -10.51692,4.19868c-3.90991,0.18028 -7.75641,-1.0349 -11.43089,-3.61171l-0.09395,-0.06671l-0.04304,-0.93331z" fill="#000000"/></g></g><g data-paper-data="{&quot;index&quot;:null}" stroke="#000000" stroke-width="0.90024" stroke-linecap="round" stroke-linejoin="round"><path d="M295.32784,183.89099l-0.57936,1.53225c-3.19176,7.73203 -7.53726,12.10912 -7.53726,12.10912c0,0 0.19171,-1.39133 0.17577,-3.63613l-0.13011,-0.04969c-0.41398,1.16959 -1.08176,2.67407 -2.17287,4.52482c-2.39292,4.06445 -9.16852,7.33353 -9.16852,7.33353c0,0 0.4561,-1.40797 0.78347,-3.72386l-0.08325,-0.35816c-0.73965,0.53609 -1.50498,1.02631 -2.27802,1.5028c-0.22749,0.14117 -0.45477,0.27864 -0.68562,0.4115c-0.70266,0.40931 -1.41734,0.79835 -2.14562,1.16c-0.28771,0.14112 -0.58601,0.27123 -0.87724,0.40594c-0.53127,0.2467 -1.06942,0.4787 -1.61534,0.70247c-0.40097,0.16215 -0.80461,0.32341 -1.21521,0.47268c-0.42513,0.15704 -0.86146,0.29655 -1.29527,0.44254c-0.79736,0.2596 -1.60587,0.50006 -2.43187,0.71931c-0.26948,0.07142 -0.53907,0.14283 -0.81299,0.20872c-0.5886,0.1433 -1.18169,0.28277 -1.78496,0.40403l0.00175,0.00185c-3.02866,0.61377 -6.23368,0.97832 -9.65664,1.08975c-3.70322,0.11961 -7.05324,-0.01445 -10.17661,-0.32301v0c-2.47142,-0.24544 -4.78084,-0.60963 -6.96398,-1.07461c-0.10561,-0.02197 -0.21219,-0.04487 -0.3187,-0.06687c-0.67478,-0.14842 -1.33854,-0.30453 -1.98928,-0.47106c-0.22706,-0.05981 -0.4441,-0.12372 -0.67011,-0.1852c-0.86423,-0.23215 -1.7035,-0.48348 -2.53066,-0.74887c-0.52284,-0.16823 -1.04208,-0.34005 -1.54924,-0.52132c-0.30138,-0.10508 -0.60353,-0.21478 -0.89845,-0.32508c-0.80532,-0.30437 -1.60331,-0.61293 -2.37635,-0.94338l-0.13973,0.1265c0.23388,2.12237 0.92979,3.28093 1.49634,3.83949c1.15483,1.14035 3.43195,1.46939 3.43195,1.46939c0,0 -7.0122,0.77477 -10.65865,-4.72753c-0.38741,-0.58488 -0.77782,-1.19065 -1.14641,-1.8345l-0.15604,-0.36658c-0.81804,-0.30014 -1.64425,-0.69155 -2.4567,-1.18801c-4.95323,-3.04815 -5.51645,-5.46009 -5.51645,-5.46009l0.07982,0.88038c0.41879,2.30071 0.85024,3.75772 0.85024,3.75772c0,0 -5.91843,-3.99023 -8.4379,-9.78579c-2.03115,-4.67824 -2.12201,-7.47905 -2.12278,-7.94927l-0.15382,-1.68497c0.06022,-6.57912 0.68262,-13.94257 1.79654,-21.17202l0.06139,-0.1918c0.96801,-5.58549 0.45638,-14.90023 8.17396,-24.19234c14.46175,-17.40763 28.6904,-16.37537 37.59295,-29.29236c6.54839,-9.50268 5.26065,-20.6564 5.26065,-20.6564c0,0 3.68559,5.55296 5.12629,8.79288c1.39447,3.15745 2.86359,7.21774 2.86359,7.21774l0.05227,-0.0327c0.03848,-0.11603 0.07344,-0.23477 0.10389,-0.35364c0.47256,-1.85148 0.38684,-4.61173 0.38684,-4.61173c0,0 3.35285,10.84524 9.06441,18.05732c5.70806,7.20848 14.19485,9.46742 24.28449,33.87953c1.25579,3.03367 2.43078,5.59041 3.01748,8.40389l0.25574,1.61679c0.79469,5.05216 0.0223,18.9236 -2.12779,24.86397zM226.90079,158.28523c0,0 -7.19886,7.0565 -7.03106,17.17092c0.14846,8.94926 2.38473,11.77717 3.61277,12.50447c1.26278,0.74361 3.26447,0.38288 3.26447,0.38288c0,0 -5.71416,2.81716 -10.18446,-1.35987c-2.99012,-2.79214 -6.2284,-6.37601 -6.87821,-16.23859M284.58786,176.0683c0,0 0.79626,2.51063 -1.47089,7.64418c-2.55072,5.7837 -7.62721,7.44855 -7.62721,7.44855c0,0 4.43591,-8.89566 1.17861,-17.47488c-1.42145,-3.74818 -6.06037,-6.64395 -10.9297,-8.73497c-6.59858,-2.83565 -13.61931,-4.19202 -13.61931,-4.19202M287.29031,193.74936c-0.41079,1.18409 -1.08855,2.72519 -2.2118,4.62543c-2.39202,4.06447 -9.16762,7.33355 -9.16762,7.33355c0,0 1.32603,-4.10799 1.08021,-9.82422M210.89774,178.03377c-0.72261,1.25258 -1.28945,2.60142 -1.6264,4.03355c-2.11419,8.92877 0.86093,18.9174 0.86093,18.9174c0,0 -5.91668,-3.98847 -8.4379,-9.78589c-2.2347,-5.14524 -2.12074,-8.01944 -2.12074,-8.01944M294.74379,185.4294c-3.19356,7.73198 -7.53816,12.10909 -7.53816,12.10909c0,0 1.10017,-7.90433 -2.16439,-16.48466c-0.14722,-0.38793 -0.31554,-0.76567 -0.49487,-1.13292M252.12028,160.75917c0,0 1.18591,0.35142 4.26621,2.9526c3.0804,2.60118 4.16091,5.37306 4.16091,5.37306c0,0 -9.23888,-2.72204 -14.33956,-4.72523c-5.09523,-2.00483 -22.33352,-7.24019 -22.33352,-7.24019M221.55647,197.23429c2.40907,4.03802 4.97242,6.27116 4.97242,6.27116c0,0 -6.23125,1.73311 -11.81027,-1.69704c-4.95323,-3.04805 -5.51645,-5.46009 -5.51645,-5.46009M276.60925,201.62807c-6.8048,4.92813 -14.95209,7.20373 -24.79079,7.52359c-11.72988,0.38126 -20.23888,-1.5775 -27.47069,-4.65931M224.15505,203.96254c0.14787,2.54225 0.92501,3.88064 1.54762,4.49305c1.15573,1.14038 3.43285,1.46942 3.43285,1.46942c0,0 -7.014,0.77472 -10.65955,-4.72756c-0.38741,-0.58488 -0.77782,-1.19065 -1.14641,-1.8345M252.78738,161.07934c0,0 25.41377,3.85045 25.01012,17.7704" fill="#be1e2d"/><path d="M282.62175,185.01397c-1.2415,9.98341 -13.05273,20.0944 -29.9231,20.59051c-14.89399,0.44618 -36.67298,-6.87698 -39.50422,-19.28135c-0.28089,-1.24657 -0.41446,-2.44644 -0.42705,-3.59599l0.31623,0.24517c1.08052,1.68483 2.29764,2.91252 3.47884,4.01312c4.47036,4.17523 10.18451,1.35807 10.18451,1.35807c0,0 -2.00175,0.36253 -3.26453,-0.38108c-1.22803,-0.7273 -3.46431,-3.55521 -3.61277,-12.50447c-0.16775,-10.11621 7.03106,-17.17092 7.03106,-17.17092l0.03102,-0.2315c5.18799,1.60045 15.5227,4.82716 19.27427,6.30402c5.10065,2.00409 14.33956,4.72523 14.33956,4.72523c0,0 -1.08051,-2.77188 -4.16091,-5.37306c-1.54194,-1.30104 -2.6076,-2.03894 -3.2873,-2.45221l0.64498,0.12045c0,0 19.57955,3.47678 22.92783,12.30625c3.25637,8.58009 -1.17771,17.47491 -1.17771,17.47491c0,0 4.32275,-1.4192 6.98974,-6.17909z" fill="#e6e7e8"/></g><path d="M236.86734,180.09467v0v0v0v0v0c0.66081,0.34412 0.91558,1.15761 0.5696,1.81802c-0.34449,0.66257 -1.15445,0.91808 -1.82128,0.57638c-0.03792,-0.02086 -3.90262,-1.99768 -8.15585,-1.67268c-0.13071,0.00929 -0.25713,0.00201 -0.37954,-0.02375c-0.57257,-0.12047 -1.02187,-0.60873 -1.06888,-1.2202c-0.02882,-0.3575 0.09335,-0.69334 0.3061,-0.95218c-0.20197,-0.26885 -0.37733,-0.5982 -0.45828,-1.01826c-0.09609,-0.48753 0.2225,-0.96138 0.71163,-1.05632c0.48369,-0.09046 0.96116,0.21969 1.05746,0.71105c0.07586,0.3913 0.49288,0.58664 0.49779,0.58952c0.12345,0.05632 0.22446,0.14012 0.30591,0.23819c0.13619,0.00014 0.27335,-0.00044 0.40656,0.00461c-0.09264,-0.23286 -0.17038,-0.48844 -0.18692,-0.78633c-0.02591,-0.49759 0.35528,-0.91884 0.85307,-0.94563c0.50223,-0.03046 0.92023,0.35741 0.94563,0.85307c0.02056,0.39622 0.39444,0.65239 0.39758,0.65489c0.17748,0.1055 0.29061,0.26726 0.36076,0.44572c3.18646,0.51681 5.52597,1.71463 5.65865,1.78394z" data-paper-data="{&quot;index&quot;:null}" fill="#231f20" stroke="none" stroke-width="0.90024" stroke-linecap="butt" stroke-linejoin="miter"/><path d="M268.96544,178.15875v0v0v0v0v0c-0.06819,0.81565 -0.49342,1.34604 -0.85223,1.67701c0.12743,0.24031 0.20945,0.51108 0.17123,0.80153c-0.09757,0.73833 -0.75914,1.26179 -1.51468,1.16423c-2.86381,-0.37514 -6.49991,-0.22079 -7.14276,0.59943c-0.23233,0.29498 -0.56085,0.4677 -0.90888,0.50666c-0.34266,0.03835 -0.69627,-0.05347 -0.98737,-0.28262c-0.5859,-0.45988 -0.68808,-1.30807 -0.22674,-1.89605c1.24251,-1.58114 4.20524,-1.87566 6.6074,-1.8294c0.10427,-0.11219 0.26489,-0.33575 0.25133,-0.61871c-0.02984,-0.49394 0.30968,-0.94874 0.8437,-0.95227c0.49572,-0.03013 0.92103,0.34619 0.95226,0.84361c0.01696,0.31335 -0.03051,0.58502 -0.09938,0.83544c0.11987,0.01103 0.23408,0.01998 0.34153,0.0325c0.07699,-0.15362 0.17914,-0.29275 0.33918,-0.38492c0.02345,-0.01712 0.39773,-0.25835 0.43179,-0.64987c0.04421,-0.49499 0.47067,-0.86976 0.97351,-0.82009c0.49499,0.04421 0.86141,0.47703 0.82009,0.97351z" data-paper-data="{&quot;index&quot;:null}" fill="#231f20" stroke="none" stroke-width="0.90024" stroke-linecap="butt" stroke-linejoin="miter"/><g data-paper-data="{&quot;index&quot;:null}" stroke-linejoin="miter"><path d="M205.96668,167.66468c-0.52809,12.96794 -2.61608,23.41294 -7.9504,23.19571c-5.33433,-0.21723 -12.89418,-11.05512 -12.36608,-24.02306c0.52809,-12.96794 8.94417,-23.15525 14.2785,-22.93801c5.33433,0.21723 6.56609,10.79742 6.03799,23.76536z" fill="url(#color-1)" stroke="#000000" stroke-width="0.90024" stroke-linecap="butt"/><path d="M192.59478,152.16205l2.21423,-2.75993" fill="none" stroke="#ea42a4" stroke-width="2" stroke-linecap="round"/><path d="M199.15379,157.11981l3.39184,-0.2354" fill="none" stroke="#ea42a4" stroke-width="2" stroke-linecap="round"/><path d="M194.52584,162.65352l-0.47393,1.83722" fill="none" stroke="#ea42a4" stroke-width="2" stroke-linecap="round"/><path d="M192.19772,172.4382l1.56281,2.2973" fill="none" stroke="#ea42a4" stroke-width="2" stroke-linecap="round"/><path d="M201.70233,179.39681l1.59616,-0.11078" fill="none" stroke="#ea42a4" stroke-width="2" stroke-linecap="round"/><path d="M195.84389,187.4217l-1.82338,-0.27442" fill="none" stroke="#ea42a4" stroke-width="2" stroke-linecap="round"/><path d="M190.44612,178.97517l-1.17762,-2.52452" fill="none" stroke="#ea42a4" stroke-width="2" stroke-linecap="round"/><path d="M189.18853,166.63262l-1.3356,-1.91212" fill="none" stroke="#ea42a4" stroke-width="2" stroke-linecap="round"/><path d="M189.8097,155.36256l0.11078,1.59616" fill="none" stroke="#ea42a4" stroke-width="2" stroke-linecap="round"/><path d="M202.72057,147.8506l-2.59942,2.98715" fill="none" stroke="#ea42a4" stroke-width="2" stroke-linecap="round"/></g><g data-paper-data="{&quot;index&quot;:null}" stroke-linejoin="miter"><path d="M299.07684,145.12829c5.32426,0.39309 12.52247,11.47445 11.56688,24.41792c-0.9556,12.94347 -9.70314,22.84759 -15.02741,22.45451c-5.32426,-0.39309 -6.20634,-11.00815 -5.25074,-23.95161c0.9556,-12.94347 3.387,-23.3139 8.71126,-22.92081z" fill="url(#color-2)" stroke="#000000" stroke-width="0.90025" stroke-linecap="butt"/><path d="M305.41965,154.17416l-1.88471,-2.99464" fill="none" stroke="#ea42a4" stroke-width="2" stroke-linecap="round"/><path d="M298.33761,158.35083l-3.3428,-0.62103" fill="none" stroke="#ea42a4" stroke-width="2" stroke-linecap="round"/><path d="M302.56477,166.25593l-0.26112,-1.8793" fill="none" stroke="#ea42a4" stroke-width="2" stroke-linecap="round"/><path d="M301.68484,176.46701l1.81484,-2.1039" fill="none" stroke="#ea42a4" stroke-width="2" stroke-linecap="round"/><path d="M293.26288,180.19132l-1.57308,-0.29226" fill="none" stroke="#ea42a4" stroke-width="2" stroke-linecap="round"/><path d="M298.167,188.83247l1.84278,-0.06448" fill="none" stroke="#ea42a4" stroke-width="2" stroke-linecap="round"/><path d="M304.49364,181.05728l1.45808,-2.3736" fill="none" stroke="#ea42a4" stroke-width="2" stroke-linecap="round"/><path d="M307.15188,168.93896l1.54512,-1.74717" fill="none" stroke="#ea42a4" stroke-width="2" stroke-linecap="round"/><path d="M307.82121,157.67166l-0.29226,1.57309" fill="none" stroke="#ea42a4" stroke-width="2" stroke-linecap="round"/><path d="M295.85218,148.73506l2.24145,3.26434" fill="none" stroke="#ea42a4" stroke-width="2" stroke-linecap="round"/></g><path d="M250.34071,190.75271c-4.28056,0.16621 -5.32141,-2.92382 -5.32141,-2.92382c0,0 0.76699,-0.50042 3.92056,-0.63435c3.15293,-0.13245 5.55159,0.04603 5.55159,0.04603c0,0 0.12625,3.34668 -4.15073,3.51215z" data-paper-data="{&quot;index&quot;:null}" fill="#58595b" stroke="#231f20" stroke-width="0.9025" stroke-linecap="round" stroke-linejoin="miter"/><g stroke-linejoin="miter"><g stroke-linecap="butt"><g stroke="#000000" stroke-width="1"><path d="M251.22875,213.50219h56.29062v23.75644h-56.29062z" fill="url(#color-3)"/><path d="M256.22226,209.14685h56.29062l-4.99352,4.35535h-56.29063z" fill="#9966ff"/><path d="M307.7727,213.47565l4.76655,-4.15737l-0.68094,24.15238l-4.53957,3.86042z" fill="url(#color-4)"/></g><path d="M304.99104,214.34152c0.44577,0 0.80713,0.15759 0.80713,0.352c0,0.1944 -0.36136,0.35199 -0.80713,0.35199c-0.44577,0 -0.80714,-0.15758 -0.80714,-0.35199c0,-0.1944 0.36137,-0.352 0.80714,-0.352z" fill="#b9b9b9" stroke="none" stroke-width="0.5"/><path d="M304.63232,235.93013c0.44577,0 0.80713,0.15758 0.80713,0.35199c0,0.1944 -0.36136,0.35199 -0.80713,0.35199c-0.44577,0 -0.80714,-0.15758 -0.80714,-0.35199c0,-0.1944 0.36137,-0.35199 0.80714,-0.35199z" fill="#b9b9b9" stroke="none" stroke-width="0.5"/><path d="M253.1555,236.243c0.44576,0 0.80713,0.15759 0.80713,0.35199c0,0.1944 -0.36137,0.35199 -0.80713,0.35199c-0.44576,0 -0.80713,-0.15758 -0.80713,-0.35199c0,-0.1944 0.36137,-0.35199 0.80713,-0.35199z" fill="#b9b9b9" stroke="none" stroke-width="0.5"/><path d="M252.6174,214.18507c0.44576,0 0.80713,0.15758 0.80713,0.35199c0,0.1944 -0.36137,0.35199 -0.80713,0.35199c-0.44576,0 -0.80713,-0.15758 -0.80713,-0.35199c0,-0.1944 0.36137,-0.35199 0.80713,-0.35199z" fill="#b9b9b9" stroke="none" stroke-width="0.5"/></g><g stroke="#000000" stroke-width="1" stroke-linecap="butt"><path d="M255.88168,225.32245c0,-5.13026 4.26773,-9.28915 9.53222,-9.28915c5.26449,0 9.53222,4.1589 9.53222,9.28915c0,5.13026 -4.26773,9.28915 -9.53222,9.28915c-5.26449,0 -9.53222,-4.1589 -9.53222,-9.28915z" fill="#8499b1"/><path d="M259.14987,225.72056c0,-3.00486 2.49966,-5.44079 5.58316,-5.44079c3.08349,0 5.58316,2.43593 5.58316,5.44079c0,3.00486 -2.49967,5.44078 -5.58316,5.44078c-3.08349,0 -5.58316,-2.43592 -5.58316,-5.44078z" fill="#92c5ff"/></g><g stroke="#000000" stroke-width="1" stroke-linecap="butt"><path d="M280.14551,225.35763c0,-5.13026 4.26773,-9.28915 9.53222,-9.28915c5.26449,0 9.53222,4.1589 9.53222,9.28915c0,5.13026 -4.26773,9.28915 -9.53222,9.28915c-5.26449,0 -9.53222,-4.1589 -9.53222,-9.28915z" fill="#8499b1"/><path d="M283.4137,225.75575c0,-3.00486 2.49967,-5.44079 5.58316,-5.44079c3.08349,0 5.58316,2.43593 5.58316,5.44079c0,3.00486 -2.49967,5.44079 -5.58316,5.44079c-3.08349,0 -5.58316,-2.43592 -5.58316,-5.44079z" fill="#92c5ff"/></g><path d="M299.93209,211.21045l4.04397,-18.29681" fill="none" stroke="#000000" stroke-width="2" stroke-linecap="round"/></g><g data-paper-data="{&quot;index&quot;:null}" stroke="#001026" stroke-width="0.9" stroke-linejoin="miter"><g><path d="M240.90739,221.43793c0,0 -1.43134,1.55489 -2.24008,1.81875c-0.76247,0.24877 -2.4817,-0.27822 -2.4817,-0.27822l-7.59631,-12.46956l8.24993,-3.66887l4.06815,14.59791z" fill="#505a63" stroke-linecap="butt"/><path d="M236.92546,205.77621c1.12782,2.53606 -0.01377,5.50624 -2.54983,6.63406c-2.53606,1.12783 -5.50624,-0.01378 -6.63406,-2.54984c-1.12782,-2.53605 0.01378,-5.50623 2.54984,-6.63405c2.53606,-1.12782 5.50623,0.01378 6.63405,2.54984z" fill="url(#color-5)" stroke-linecap="butt"/><path d="M232.63989,203.00094c0,0 1.57187,2.16889 2.11744,3.43419c0.58374,1.35384 1.27822,4.44118 1.27822,4.44118" fill="none" stroke-linecap="round"/><path d="M229.06833,204.80257c0,0 1.02302,1.51903 1.38229,2.58663c0.48623,1.44493 1.27128,5.2988 1.27128,5.2988" fill="none" stroke-linecap="round"/><path d="M227.48591,207.95932c0,0 3.01655,-1.65093 4.49058,-1.94608c1.69431,-0.33927 5.10679,0.02434 5.10679,0.02434" fill="none" stroke-linecap="round"/><path d="M228.06041,210.69011c0,0 2.45277,-0.76427 3.75284,-0.89039c1.67242,-0.16222 5.44898,-0.00222 5.44898,-0.00222" fill="none" stroke-linecap="round"/></g><path d="M232.36758,219.39968c-0.74707,-1.69359 0.07777,-3.50558 1.84236,-4.0472c1.76458,-0.54162 4.1479,0.81284 4.89498,2.50642c0.74708,1.69359 -0.425,3.08497 -2.18958,3.62659c-1.76459,0.54162 -3.80068,-0.39223 -4.54776,-2.08581z" fill="#be1e2d" stroke-linecap="butt"/></g></g></g></svg>