<svg version="1.1" xmlns="http://www.w3.org/2000/svg" xmlns:xlink="http://www.w3.org/1999/xlink" width="167.66484" height="167.32143" viewBox="0,0,167.66484,167.32143"><g transform="translate(-156.16758,-96.3393)"><g data-paper-data="{&quot;isPaintingLayer&quot;:true}" fill-rule="nonzero" stroke-linejoin="miter" stroke-miterlimit="10" stroke-dasharray="" stroke-dashoffset="0" style="mix-blend-mode: normal"><path d="M323.83241,105.95469v157.70605h-167.66483v-157.70605z" fill="#ffffff" stroke="none" stroke-width="0" stroke-linecap="butt"/><path d="M156.16758,105.95469v-9.61538h167.66484v9.61538z" fill="#009cff" stroke="none" stroke-width="0" stroke-linecap="butt"/><g><path d="M314.72406,104.85193v-7.40987h7.40987v7.40987z" fill="#ff0000" stroke="none" stroke-width="0" stroke-linecap="butt"/><g fill="none" stroke="#ffffff" stroke-width="0.5" stroke-linecap="round"><path d="M315.89192,98.60992l5.07415,5.07415"/><path d="M320.96607,98.60992l-5.07415,5.07415" data-paper-data="{&quot;index&quot;:null}"/></g></g><text transform="translate(157.18603,102.69102) scale(0.13383,0.13383)" font-size="40" xml:space="preserve" fill="#ffffff" fill-rule="nonzero" stroke="none" stroke-width="1" stroke-linecap="butt" stroke-linejoin="miter" stroke-miterlimit="10" stroke-dasharray="" stroke-dashoffset="0" font-family="Sans Serif" font-weight="normal" text-anchor="start" style="mix-blend-mode: normal"><tspan x="0" dy="0">funo.exe</tspan></text><text transform="translate(163.56966,136.52663) scale(0.96194,0.80073)" font-size="40" xml:space="preserve" fill="#000000" fill-rule="nonzero" stroke="none" stroke-width="1" stroke-linecap="butt" stroke-linejoin="miter" stroke-miterlimit="10" stroke-dasharray="" stroke-dashoffset="0" font-family="Sans Serif" font-weight="normal" text-anchor="start" style="mix-blend-mode: normal"><tspan x="0" dy="0">hi</tspan><tspan x="0" dy="46.15px">hi</tspan><tspan x="0" dy="46.15px">hi</tspan><tspan x="0" dy="46.15px">hi</tspan></text><g stroke="none" stroke-width="0.5" stroke-linecap="butt"><path d="M260.05365,181.91622c0,1.56467 -0.00017,3.12932 -0.00315,4.694c0.90311,6.32181 0.82134,12.34996 2.5336,18.66183c1.86082,6.85952 4.93338,13.11758 4.45207,20.07502l0.3449,0.02156l-0.15537,2.486c-0.03573,0.65834 -0.58087,1.18116 -1.24813,1.18116c-0.31209,0 -0.59746,-0.11438 -0.81649,-0.30349l-1.10918,-0.94572l0.07637,-0.08956l-0.29882,-0.15846c-0.44512,-1.24083 -1.222,-3.20016 -1.76767,-5.19237c-0.41642,3.10635 -0.9647,6.32384 -2.07257,8.66187c-0.48797,1.02981 -0.84035,2.55866 -1.95272,2.80613c-1.34139,0.29842 -2.89494,-3.71587 -3.14748,-4.29837c-1.13072,-2.60806 -3.50854,-6.398 -4.42167,-9.82941c-0.59605,4.0136 -0.8171,8.43287 -2.19055,12.08659l0.39293,0.14735l-0.64193,1.7118c-0.17015,0.48815 -0.6345,0.83842 -1.18066,0.83842c-0.48514,0 -0.90573,-0.27638 -1.11291,-0.68027l-1.14064,-2.11959l0.00789,-0.00425l-0.02668,-0.03208c-1.76066,-3.87482 -2.56749,-8.12398 -3.51234,-12.2696c-0.23478,-1.03015 -0.60476,-2.07651 -0.70145,-3.11516c-1.84488,3.40167 -3.23214,6.74283 -4.73075,10.38375c-0.85602,0.32764 -1.7027,1.28502 -2.56806,0.98291c-0.75072,-0.26209 -0.67382,-1.44481 -0.92038,-2.20077c-0.72256,-2.21538 -1.03789,-4.81842 -1.19772,-7.12078c-0.6884,-9.91667 -0.34697,-19.91745 -0.34697,-29.85676c0,0 0,-0.03376 0.00555,-0.09019c-1.34278,-0.1752 -2.66186,-0.48699 -3.93117,-1.03258c-6.66433,-2.86453 -11.1517,-9.03507 -13.82644,-15.45699c-4.34587,-9.19477 -4.15284,-22.76005 2.66029,-30.72123c3.79388,-4.43318 9.05407,-7.73201 14.03478,-10.63766c14.29485,-8.29382 36.28603,-6.84017 44.26703,9.18626c5.97299,12.02092 5.10934,27.9254 -5.34402,37.24313c-2.3965,2.13616 -5.1447,3.30474 -8.04401,4.57063c-0.12192,0.04436 -0.24374,0.08894 -0.36549,0.13371zM233.09639,213.17754c0.11337,3.14602 1.09967,6.5182 1.40974,9.69184c1.2001,-3.10718 2.57326,-5.94356 4.27809,-8.92677l0.62842,-1.25684c0.20043,-0.42281 0.63114,-0.71521 1.13014,-0.71521c0.49901,0 0.92971,0.2924 1.13014,0.71521l0.85746,1.71491l-0.35824,0.17912c2.16926,4.45124 2.32927,9.90897 4.10336,14.64452c0.08881,-0.98772 0.33141,-1.99792 0.4413,-2.87465c0.42057,-3.35516 1.06215,-6.654 1.81176,-9.95078l0.53951,-2.41398c0.11525,-0.57128 0.62004,-1.00146 1.22529,-1.00146c0.56833,0 1.04808,0.37929 1.19992,0.89855l0.74863,2.35536l-0.25065,0.07967c1.19007,2.613 2.09287,5.30131 3.36011,7.97561c0.65822,1.38906 1.22474,2.81976 1.83258,4.23159c0.13742,0.31918 0.31223,0.62472 0.4802,0.93234c0.16327,-0.52465 0.38392,-1.06457 0.47628,-1.52754c0.76995,-3.85941 1.57332,-7.74778 2.21604,-11.62704l1.40906,-2.37224c1.07637,1.59216 1.7292,3.19688 2.22161,4.83761c-0.12339,-0.88866 -0.28033,-1.76299 -0.5176,-2.601c-1.6823,-5.94163 -3.88163,-11.54933 -4.93026,-17.67977c-0.67033,-3.91887 -0.42667,-7.80851 -0.98247,-11.69916c-0.00241,-1.40188 -0.00301,-2.80375 -0.00312,-4.20563c-4.06599,1.58542 -8.06934,3.32619 -12.151,4.86084c-0.77597,0.4309 -1.55697,0.69541 -2.35515,0.85667c-0.43489,0.15238 -0.87096,0.30167 -1.30837,0.44747l-0.83334,0.27778c0,0 -0.96212,0.32071 -1.44199,-0.48224c-0.47359,-0.00275 -0.95738,-0.00917 -1.45329,-0.00917c-1.61862,0 -3.27162,0.05854 -4.91341,0.00537c-0.0024,8.19511 -0.29583,16.4505 -0.00073,24.63902zM250.25089,182.13338c0.16899,0.2028 0.25947,0.39844 0.29706,0.58093c2.96647,-1.21307 5.92838,-2.44078 8.94287,-3.53623c2.6281,-1.15034 5.13521,-2.18033 7.30934,-4.11606c9.62016,-8.56526 10.24697,-23.24958 4.7684,-34.26353c-7.28357,-14.67697 -27.77947,-15.76363 -40.76874,-8.13975c-7.05892,4.11738 -16.90599,10.21021 -17.93736,19.24093c-0.36024,3.15431 -0.03153,6.64767 0.028,9.82407c0.06351,3.38876 0.78974,6.06805 2.23888,9.11849c3.71353,8.92381 10.43335,15.19091 20.3812,15.19091c1.0093,0 2.13471,0.09297 3.27625,0.13533c-5.19329,-1.69776 -9.69012,-6.63806 -12.85645,-10.43464c0,0 -0.80023,-0.96028 0.16004,-1.76051c0.96027,-0.80023 1.76051,0.16005 1.76051,0.16005c3.62082,4.34857 9.7107,11.3559 16.25105,9.96455c1.1695,-0.24879 2.23592,-0.84865 3.36338,-1.24669l1.02506,-0.87792c0,0 0.96028,-0.80022 1.76051,0.16005z" fill="#000000"/><path d="M233.06409,188.50098c1.64179,0.05318 3.30214,-0.01072 4.92076,-0.01072c0.49591,0 0.98246,0.00488 1.45605,0.00762c0.47987,0.80295 1.44457,0.48101 1.44457,0.48101l0.83551,-0.27868c0.43741,-0.1458 0.877,-0.29632 1.31189,-0.4487c0.79818,-0.16126 1.58567,-0.42729 2.36164,-0.85819c4.08166,-1.53465 8.11123,-3.27271 12.17722,-4.85814c0.00011,1.40188 0.004,2.80517 0.00641,4.20705c0.5558,3.89065 0.33082,7.79554 1.00115,11.71441c1.04863,6.13044 3.24934,11.79612 4.93164,17.73775c0.23728,0.83802 0.31418,1.65258 0.43757,2.54124c-0.49241,-1.64074 -1.14957,-3.23928 -2.22594,-4.83145l-1.3283,2.43054c-0.64272,3.87925 -1.46372,7.78065 -2.23367,11.64006c-0.09236,0.46296 -0.31494,1.00369 -0.47821,1.52834c-0.16797,-0.30763 -0.34298,-0.61309 -0.4804,-0.93226c-0.60784,-1.41183 -1.1748,-2.84237 -1.83302,-4.23143c-1.26724,-2.6743 -2.17149,-5.36208 -3.36156,-7.97508l0.21721,-0.17391l-0.71343,-2.26176c-0.15184,-0.51926 -0.63687,-0.89686 -1.20521,-0.89686c-0.60525,0 -1.11895,0.43166 -1.23421,1.00295l-0.54297,2.41412c-0.74961,3.29679 -1.39575,6.59543 -1.81632,9.9506c-0.10989,0.87673 -0.35291,1.88689 -0.44172,2.87461c-1.77409,-4.73555 -1.95902,-10.2028 -4.12828,-14.65404l0.35896,-0.1786l-0.86424,-1.7207c-0.20043,-0.42281 -0.63542,-0.72019 -1.13443,-0.72019c-0.49901,0 -0.84944,0.23277 -1.04987,0.65557l-0.62999,1.25482c-1.70483,2.9832 -3.14862,5.88972 -4.34871,8.9969c-0.31007,-3.17364 -1.30978,-6.56322 -1.42315,-9.70923c-0.2951,-8.18852 0.01063,-16.50254 0.01303,-24.69765z" data-paper-data="{&quot;noHover&quot;:false,&quot;origItem&quot;:[&quot;Path&quot;,{&quot;applyMatrix&quot;:true,&quot;segments&quot;:[[[457.95748,422.06976],[-0.5902,-16.37704],[0.22675,6.29203]],[[460.77696,441.45343],[-0.62013,-6.34728],[2.40019,-6.21435]],[[469.33313,423.5999],[-3.40966,5.96641],[0,0]],[[470.58997,421.08622],[0,0],[0.40086,-0.84561]],[[472.85026,419.65581],[-0.99801,0],[0.99801,0]],[[475.11055,421.08622],[-0.40086,-0.84561],[0,0]],[476.82546,424.51604],[[476.10898,424.87428],[0,0],[4.33853,8.90248]],[[484.31569,454.16333],[-3.54817,-9.4711],[0.17762,-1.97544]],[[485.1983,448.41403],[-0.21979,1.75346],[0.84113,-6.71033]],[[488.82181,428.51247],[-1.49922,6.59357],[0,0]],[[489.90084,423.6845],[0,0],[0.23051,-1.14257]],[[492.35142,421.68158],[-1.21051,0],[1.13667,0]],[[494.75125,423.47868],[-0.30367,-1.03852],[0,0]],[496.24852,428.18939],[[495.74721,428.34873],[0,0],[2.38014,5.226]],[[502.46743,444.29994],[-2.53448,-5.34859],[1.31644,2.77813]],[[506.13259,452.76312],[-1.21569,-2.82367],[0.27483,0.63835]],[[507.09298,454.62781],[-0.33594,-0.61525],[0.32655,-1.0493]],[[508.04554,451.57274],[-0.18472,0.92592],[1.53989,-7.71882]],[[512.47762,428.31867],[-1.28543,7.7585],[0,0]],[[515.29574,423.57419],[0,0],[2.15274,3.18433]],[[519.73896,433.24942],[-0.98481,-3.28147],[-0.24678,-1.77732]],[[518.70376,428.04741],[0.47455,1.67603],[-3.3646,-11.88326]],[[508.84324,392.68788],[2.09726,12.26088],[-1.34067,-7.83773]],[[506.87829,369.28955],[1.11161,7.7813],[-0.00482,-2.80376]],[[506.87205,360.87829],[0.00023,2.80376],[-8.13199,3.17085]],[[482.57004,370.59997],[8.16332,-3.0693],[-1.55194,0.8618]],[[477.85973,372.3133],[1.59636,-0.32252],[-0.86978,0.30475]],[[475.243,373.20825],[0.87482,-0.29161],[0,0]],[473.57633,373.76381],[[470.69234,372.79932],[0.95975,1.60591],[-0.94718,-0.00549]],[[467.78576,372.78099],[0.99183,0],[-3.23723,0]],[[457.95893,372.79172],[3.28358,0.10635],[-0.00479,16.39022]]],&quot;closed&quot;:true}]}" fill="#00c1ff"/><path d="M248.49952,182.02249l-1.02727,0.87827c-1.12747,0.39803 -2.20037,0.99838 -3.36986,1.24717c-6.54035,1.39135 -12.6649,-5.62954 -16.28573,-9.9781c0,0 -0.80225,-0.96228 -1.76253,-0.16205c-0.96027,0.80023 -0.08915,1.69002 -0.08915,1.69002c3.16632,3.79658 7.6371,8.72366 12.83039,10.42142c-1.14154,-0.04236 -2.2894,-0.03803 -3.2987,-0.03803c-9.94786,0 -16.69891,-6.29355 -20.41244,-15.21736c-1.44914,-3.05044 -2.17972,-5.74391 -2.24323,-9.13267c-0.05953,-3.1764 -0.38811,-6.68541 -0.02787,-9.83972c1.03137,-9.03072 10.90418,-15.1594 17.9631,-19.27678c12.98926,-7.62388 33.55185,-6.51847 40.83542,8.1585c5.47857,11.01395 4.84802,25.75445 -4.77215,34.31971c-2.17413,1.93572 -4.69173,2.97569 -7.31982,4.12603c-3.01449,1.09545 -5.99265,2.33073 -8.95912,3.54379c-0.03759,-0.18249 -0.12833,-0.37807 -0.29733,-0.58087c-0.80023,-0.96027 -1.76372,-0.15933 -1.76372,-0.15933z" data-paper-data="{&quot;noHover&quot;:false,&quot;origItem&quot;:[&quot;Path&quot;,{&quot;applyMatrix&quot;:true,&quot;segments&quot;:[[[492.26647,359.98144],[-1.60046,-1.92055],[0.33799,0.40559]],[[492.86059,361.14331],[-0.07518,-0.36498],[5.93294,-2.42613]],[[510.74632,354.07085],[-6.02897,2.1909],[5.25619,-2.30069]],[[525.36501,345.83874],[-4.34826,3.87145],[19.24033,-17.13052]],[[534.90181,277.31168],[10.95714,22.0279],[-14.56714,-29.35394]],[[453.36433,261.03219],[25.97853,-15.24776],[-14.11785,8.23475]],[[417.4896,299.51405],[2.06275,-18.06145],[-0.72049,6.30862]],[[417.5456,319.16219],[-0.11906,-6.35281],[0.12702,6.77752]],[[422.02335,337.39917],[-2.89827,-6.10088],[7.42705,17.84763]],[[462.78576,367.78099],[-19.89571,0],[2.0186,0]],[[469.33825,368.05164],[-2.28307,-0.08472],[-10.38657,-3.39552]],[[443.62536,347.18236],[6.33264,7.59316],[0,0]],[[443.94545,343.66134],[-1.92055,1.60046],[1.92055,-1.60046]],[[447.46647,343.98144],[0,0],[7.24165,8.69713]],[[479.96857,363.91054],[-13.0807,2.78269],[2.33899,-0.49758]],[[486.69534,361.41717],[-2.25494,0.79607],[0,0]],[488.74545,359.66134]],&quot;closed&quot;:true}]}" fill="#00c1ff"/><path d="M225.64061,149.73361c0,-0.69036 0.55964,-1.25 1.25,-1.25c0.69036,0 1.25,0.55964 1.25,1.25c0,0.69036 -0.55964,1.25 -1.25,1.25c-0.69036,0 -1.25,-0.55964 -1.25,-1.25z" fill="#000000"/><path d="M260.64061,146.13361c0,-0.69036 0.55964,-1.25 1.25,-1.25c0.69036,0 1.25,0.55964 1.25,1.25c0,0.69036 -0.55964,1.25 -1.25,1.25c-0.69036,0 -1.25,-0.55964 -1.25,-1.25z" fill="#000000"/><path d="M280.03233,195.14683c1.23299,-0.2055 1.43849,1.0275 1.43849,1.0275l0.15669,1.10946c0.00724,0.01046 0.01448,0.02089 0.02171,0.0313c0.49682,0.0113 1.01626,-0.02663 1.56493,-0.12279c0,0 1.233,-0.20549 1.43849,1.0275c0.15686,0.94118 -0.52445,1.28367 -0.85573,1.39306c0.89947,0.63365 1.93799,1.00313 3.33314,1.23566c7.78785,2.61524 13.97303,-6.69972 17.32101,-12.38635c0.9152,-1.5545 2.33158,-3.62005 2.10572,-5.59255c-0.07446,-0.6503 -1.28924,0.23515 -1.92167,0.40391c-0.56257,0.15011 -1.12687,0.29662 -1.69322,0.43476l0.079,0.20316l-2.30338,0.89576c-0.14771,0.06143 -0.30974,0.09535 -0.47969,0.09535c-0.69036,0 -1.25,-0.55964 -1.25,-1.25c0,-0.26266 0.08102,-0.5064 0.21942,-0.7076l0.80906,-1.21358c0.27069,-1.13075 0.39434,-2.31024 0.33672,-3.4711c-0.03405,-0.68593 -0.05128,-1.37965 -0.19613,-2.05097c-1.25901,-5.83485 -5.27838,1.13154 -6.60066,3.25908l-0.75979,2.27937c-0.15708,0.51078 -0.63267,0.88207 -1.19497,0.88207c-0.69036,0 -1.25,-0.55964 -1.25,-1.25c0,-0.0674 0.00534,-0.13356 0.0156,-0.19807l0.21478,-1.50349c-0.00107,-0.79645 -0.00384,-1.59291 -0.00312,-2.38935c0.00072,-0.78787 0.06234,-1.57765 0.00747,-2.36361c-0.19855,-2.8439 -1.20132,-1.91633 -2.19972,-0.0032c-1.30448,2.49965 -1.39585,5.71738 -2.17578,8.39811c-0.21794,0.7491 -0.28553,1.58876 -0.74633,2.21829c-0.02711,0.03703 -0.05502,0.0733 -0.08369,0.10885l0.01991,0.01195l-0.67003,1.11672c-0.21591,0.37446 -0.62034,0.62653 -1.08365,0.62653c-0.69036,0 -1.25,-0.55964 -1.25,-1.25c0,-0.03791 0.00168,-0.07543 0.00499,-0.11249l0.18579,-2.34984l0.0191,0.00151l-0.01215,-0.06728c0.67731,-3.6383 2.66394,-9.59713 -0.12264,-12.79311c-0.39784,-0.45629 -2.3864,-2.38247 -3.2836,-1.96125c-0.84626,0.3973 -0.72371,2.91701 -0.75272,3.48798c-0.16043,3.15718 0.04327,5.75962 0.61064,8.85331c0.40879,2.66416 1.52872,6.27109 1.30274,8.9544c-0.07266,0.8628 0.16519,2.15788 -0.62018,2.52245c-2.42065,1.12367 -3.14065,-2.53223 -5.80561,-0.74891c-1.45232,0.97186 -0.50015,1.58793 0.56939,2.2644c1.58515,1.00259 3.00281,1.9983 4.54954,2.58449l-0.03735,-0.2029c0,0 -0.20549,-1.23299 1.02749,-1.43849zM280.36628,199.68774c-2.59746,-0.39622 -4.76803,-1.77925 -7.22554,-3.38107c-1.98933,-1.29665 -3.24116,-2.69376 -1.92078,-5.12947c0.92838,-1.71257 3.60343,-2.64625 5.41239,-2.38407c0.09341,0.01354 0.67254,0.2291 1.16498,0.55849c-0.06815,-0.27438 -0.12292,-0.53442 -0.15481,-0.71301c-0.4174,-2.33783 -0.69968,-4.65989 -1.06146,-7.01184c-0.69411,-3.78252 -1.97416,-9.73424 0.04602,-13.32032c2.47114,-4.38658 7.83987,-0.11877 9.09068,3.06659c0.26416,0.6727 0.43805,1.37791 0.54133,2.1043c0.33646,-0.60868 0.75187,-1.15908 1.27667,-1.61777c3.0935,-2.70383 5.11464,-0.63912 5.53551,2.79295c0.00177,0.01444 0.00317,0.10637 0.00426,0.25626c1.9785,-2.49027 5.12516,-4.64649 7.38647,-3.21501c2.8884,1.82844 2.68658,6.8165 2.07241,10.00111c1.8243,-1.22244 4.79941,-2.25863 5.92993,-0.44121c1.65443,2.65966 -0.59891,6.32042 -1.85677,8.4732c-3.92028,6.70944 -11.06372,16.53211 -20.08014,13.54791c-2.80018,-0.46669 -4.57251,-1.60307 -6.16113,-3.58704z" fill="#000000"/><path d="M279.03914,196.54895l-0.03089,0.27599c-1.54674,-0.58619 -2.97344,-1.59309 -4.55859,-2.59567c-1.06953,-0.67647 -1.93282,-1.33789 -0.4805,-2.30975c2.66496,-1.78332 3.37902,1.86234 5.79967,0.73867c0.78537,-0.36457 0.46348,-1.60598 0.53614,-2.46878c0.22598,-2.68331 -0.897,-6.33059 -1.30579,-8.99475c-0.56737,-3.09369 -0.75742,-5.71655 -0.59699,-8.87373c0.02902,-0.57097 -0.08761,-3.09526 0.75865,-3.49256c0.8972,-0.42121 2.93642,1.59103 3.33426,2.04731c2.78658,3.19599 0.82591,9.12011 0.1486,12.75841l0.01223,0.06686l-0.01909,-0.00152l-0.18536,2.33411c-0.00331,0.03706 -0.00509,0.07385 -0.00509,0.11176c0,0.69036 0.55697,1.23964 1.24732,1.23964c0.4633,0 0.77352,-0.21861 0.98943,-0.59308l0.6679,-1.12588l-0.01993,-0.01211c0.02866,-0.03555 0.05645,-0.0729 0.08356,-0.10993c0.4608,-0.62953 0.53289,-1.496 0.75083,-2.2451c0.77992,-2.68073 0.9092,-5.92655 2.21368,-8.4262c0.9984,-1.91313 2.01194,-2.84111 2.21049,0.00278c0.05487,0.78596 -0.00575,1.57582 -0.00646,2.36369c-0.00072,0.79645 0.00403,1.59313 0.0051,2.38958l-0.22745,1.60268c-0.01027,0.06451 -0.00306,0.03146 -0.00306,0.09886c0,0.69036 0.58222,1.2588 1.27258,1.2588c0.5623,0 0.97592,-0.29297 1.133,-0.80375l0.82032,-2.35867c1.32228,-2.12754 5.35207,-9.08478 6.61107,-3.24993c0.14486,0.67132 0.16613,1.37044 0.20018,2.05638c0.05762,1.16087 -0.06045,2.35198 -0.33115,3.48274l-0.8078,1.21813c-0.1384,0.2012 -0.21876,0.44836 -0.21876,0.71102c0,0.69036 0.56022,1.25688 1.25057,1.25688c0.16995,0 0.232,-0.03203 0.37971,-0.09347l2.30356,-0.89256l-0.07893,-0.20237c0.56635,-0.13815 1.13076,-0.28379 1.69332,-0.4339c0.63243,-0.16876 1.94642,-1.0667 2.02088,-0.4164c0.22586,1.9725 -1.19141,4.05593 -2.10661,5.61042c-3.34798,5.68662 -9.59043,15.03946 -17.37828,12.42423c-1.39515,-0.23253 -2.44437,-0.60514 -3.34384,-1.23879c0.33128,-0.1094 1.01342,-0.45155 0.85655,-1.39273c-0.2055,-1.23299 -1.44411,-1.03014 -1.44411,-1.03014c-0.54867,0.09616 -1.0719,0.13179 -1.56872,0.12049c-0.00723,-0.0104 -0.01457,-0.0209 -0.02181,-0.03136l-0.15888,-1.11103c0,0 -0.21026,-1.23709 -1.44325,-1.03159c-1.23299,0.2055 -0.95826,1.36634 -0.95826,1.36634z" data-paper-data="{&quot;noHover&quot;:false,&quot;origItem&quot;:[&quot;Path&quot;,{&quot;applyMatrix&quot;:true,&quot;segments&quot;:[[[551.82935,386.00834],[-2.46598,0.411],[2.46598,-0.411]],[554.70633,388.06333],[[555.01971,390.28225],[0,0],[0.01448,0.02092]],[[555.06313,390.34484],[-0.01446,-0.02081],[0.99364,0.02261]],[[558.19298,390.09925],[-1.09734,0.19232],[0,0]],[[561.06997,392.15424],[-0.411,-2.46598],[0.31373,1.88237]],[[559.35852,394.94037],[0.66255,-0.21879],[1.79894,1.26729]],[[566.02479,397.41168],[-2.7903,-0.46505],[15.57569,5.23047]],[[600.66681,372.63899],[-6.69595,11.37325],[1.8304,-3.10899]],[[604.87825,361.4539],[0.45173,3.94499],[-0.14893,-1.3006]],[[601.03491,362.26171],[1.26485,-0.33751],[-1.12513,0.30022]],[[597.64847,363.13124],[1.13271,-0.2763],[0,0]],[597.80648,363.53756],[[593.19972,365.32908],[0,0],[-0.29542,0.12287]],[[592.24034,365.51978],[0.3399,0],[-1.38071,0]],[[589.74034,363.01978],[0,1.38071],[0,-0.52532]],[[590.17918,361.60459],[-0.27681,0.40239],[0,0]],[[591.79729,359.17743],[0,0],[0.54139,-2.26151]],[[592.47072,352.23522],[0.11524,2.32173],[-0.0681,-1.37186]],[[592.07846,348.13328],[0.28971,1.34265],[-2.51801,-11.66969]],[[578.87714,354.65145],[2.64456,-4.25509],[0,0]],[[577.35756,359.2102],[0,0],[-0.31417,1.02156]],[[574.96762,360.97433],[1.1246,0],[-1.38071,0]],[[572.46762,358.47433],[0,1.38071],[0,-0.1348]],[[572.49883,358.0782],[-0.02054,0.12902],[0,0]],[[572.92839,355.07122],[0,0],[-0.00214,-1.5929]],[[572.92216,350.29251],[-0.00144,1.5929],[0.00143,-1.57574]],[[572.93709,345.5653],[0.10974,1.57192],[-0.39709,-5.68779]],[[568.53766,345.5589],[1.9968,-3.82626],[-2.60897,4.99931]],[[564.1861,362.35511],[1.55985,-5.36146],[-0.43588,1.4982]],[[562.69344,366.79169],[0.92161,-1.25905],[-0.05421,0.07406]],[[562.52607,367.00939],[0.05733,-0.07111],[0,0]],[562.56589,367.03329],[[561.22583,369.26673],[0,0],[-0.43183,0.74893]],[[559.05853,370.51978],[0.92661,0],[-1.38071,0]],[[556.55853,368.01978],[0,1.38071],[0,-0.07583]],[[556.56851,367.7948],[-0.00661,0.07411],[0,0]],[556.94008,363.09513],[556.97828,363.09815],[[556.95398,362.96359],[0,0],[1.35462,-7.2766]],[[556.7087,337.37737],[5.57316,6.39197],[-0.79568,-0.91258]],[[550.1415,333.45486],[1.7944,-0.84243],[-1.69252,0.7946]],[[548.63605,340.43082],[0.05803,-1.14194],[-0.32086,6.31436]],[[549.85732,358.13744],[-1.13474,-6.18739],[0.81759,5.32833]],[[552.46279,376.04625],[0.45196,-5.36663],[-0.14532,1.7256]],[[551.22243,381.09115],[1.57073,-0.72914],[-4.8413,2.24734]],[[539.61121,379.59334],[5.32991,-3.56665],[-2.90464,1.94372]],[[540.74998,384.12214],[-2.13907,-1.35293],[3.17031,2.00517]],[[549.84907,389.29112],[-3.09347,-1.17237],[0,0]],[549.77436,388.88532]],&quot;closed&quot;:true}]}" fill="#00c1ff"/></g></g></g></svg>