<svg version="1.1" xmlns="http://www.w3.org/2000/svg" xmlns:xlink="http://www.w3.org/1999/xlink" width="74.40923" height="116.64101" viewBox="0,0,74.40923,116.64101"><g transform="translate(-216.59277,-124.21068)"><g data-paper-data="{&quot;isPaintingLayer&quot;:true}" fill-rule="nonzero" stroke="none" stroke-linecap="butt" stroke-linejoin="miter" stroke-miterlimit="10" stroke-dasharray="" stroke-dashoffset="0" style="mix-blend-mode: normal"><path d="M282.34554,182.99276c0.0753,0.40111 0.32921,0.54144 0.54416,0.58455c-0.01563,0.07693 -0.03136,0.15438 -0.04736,0.23123c-0.00383,0.31187 -0.02065,0.60529 -0.05084,0.87716l-0.1405,0.0392c0,0 -0.71417,0.23952 -0.48574,0.95103c0.06692,0.20844 0.17564,0.33662 0.29579,0.41204c-0.60867,1.51036 -1.92442,2.06613 -3.81239,2.19861c-0.20754,-0.31427 -0.62747,-0.31522 -0.62747,-0.31522c-6.5093,0 -12.37479,-0.63902 -18.38521,2.34783c-5.02931,2.52178 -11.93327,12.48619 -4.85958,15.96443c2.75016,0.47969 6.638,0.99511 9.38368,0.17414c2.29938,-0.68752 4.55454,-1.66392 6.92446,-2.07141l0.17812,0.0246c-2.31325,2.2536 -4.738,2.41865 -7.92424,3.9935c-6.19921,1.18228 -12.11668,2.01995 -17.62102,-2.16814c-1.67595,-0.97993 -1.7684,-2.79918 -2.43537,-4.4996c-1.83234,-4.67146 0.22722,-10.1935 1.07075,-14.90708c2.33454,-6.80474 7.28091,-11.24306 12.67911,-15.47195c5.03664,-2.98792 11.0195,-3.73137 16.27535,-6.10886c-0.47499,1.51755 -1.2915,2.98424 -2.02348,4.58818c-0.2099,0.45994 -1.26724,2.55094 -1.0212,2.95904c1.07704,1.78637 4.98615,-0.42589 6.23118,-1.04443c0.26959,-0.16095 1.84891,-1.12379 2.74654,-1.95446c-0.10676,0.30708 -0.18479,0.56128 -0.18676,0.56763c-0.24847,0.80226 -1.06298,3.61549 -0.42671,4.31464c0.90834,0.99811 2.05594,0.28239 2.87553,-0.17923c1.33921,-0.75429 2.48608,-1.98621 3.34654,-3.43632c-0.07225,0.33544 -0.07489,0.61394 -0.14045,0.95383c-0.63839,3.30968 -0.95341,6.71037 -1.53479,10.04238c-0.07737,0.0178 -0.15385,0.03398 -0.22931,0.04837c0,0 -0.73681,0.14885 -0.59876,0.88429z" data-paper-data="{&quot;noHover&quot;:false,&quot;origItem&quot;:[&quot;Path&quot;,{&quot;applyMatrix&quot;:true,&quot;segments&quot;:[[[282.29685,183.00404],[0,0],[-0.13805,-0.73544]],[[282.89605,182.12152],[0,0],[0.07546,-0.01439]],[[283.12535,182.07312],[-0.07737,0.0178],[0.58138,-3.33201]],[[284.66801,172.04716],[-0.63839,3.30968],[0.06556,-0.33989]],[[284.88849,171.03338],[-0.07225,0.33544],[-0.86046,1.45011]],[[281.46177,174.52943],[1.33921,-0.75429],[-0.81959,0.46162]],[[278.58867,174.71176],[0.90834,0.99811],[-0.63627,-0.69915]],[[279.01998,170.40187],[-0.24847,0.80226],[0.00197,-0.00635]],[[279.20713,169.83459],[-0.10676,0.30708],[-0.89763,0.83067]],[[276.46203,171.79028],[0.26959,-0.16095],[-1.24503,0.61854]],[[270.24205,172.84165],[1.07704,1.78637],[-0.24604,-0.4081]],[[271.30358,169.7911],[-0.2099,0.45994],[0.73198,-1.60394]],[[273.28734,165.29469],[-0.47499,1.51755],[-5.25585,2.37749]],[[257.05127,171.40377],[5.03664,-2.98792],[-5.3982,4.22889]],[[244.40277,186.83086],[2.33454,-6.80474],[-0.84353,4.71358]],[[243.32289,201.70789],[-1.83234,-4.67146],[0.66697,1.70042]],[[245.75188,206.2001],[-1.67595,-0.97993],[5.50434,4.18809]],[[263.33937,208.35446],[-6.19921,1.18228],[3.18624,-1.57485]],[[271.24253,204.36518],[-2.31325,2.2536],[0,0]],[[271.1043,204.43228],[0,0],[-2.36992,0.40749]],[[264.16118,206.50775],[2.29938,-0.68752],[-2.74568,0.82097]],[[254.75505,206.32883],[2.75016,0.47969],[-7.07369,-3.47824]],[[259.67629,190.2896],[-5.02931,2.52178],[6.01042,-2.98685]],[[277.97125,187.96904],[-6.5093,0],[0,0]],[[278.59877,188.28331],[-0.20754,-0.31427],[1.88797,-0.13248]],[[282.41116,186.09123],[-0.60867,1.51036],[-0.12015,-0.07542]],[[282.11546,185.68035],[0.06692,0.20844],[-0.22843,-0.71151]],[282.60146,184.73167],[[282.74197,184.69252],[0,0],[0.03019,-0.27187]],[[282.79316,183.81755],[-0.00383,0.31187],[0.016,-0.07685]],[[282.84062,183.58687],[-0.01563,0.07693],[-0.21495,-0.04311]],[[282.29683,183.00406],[0.0753,0.40111],[0,0]]],&quot;closed&quot;:true,&quot;fillColor&quot;:[0,0,0,1]}]}" fill="#e6e7e8" stroke-width="0.5"/><path d="M249.94826,216.4495c0,0.98907 0.1351,1.59139 0.3198,2.52484c0.09157,0.4628 -0.11492,1.75257 0.17346,2.16221c0.61377,0.87186 2.94543,-0.62621 3.26958,-1.22115c0.47782,-0.87698 0.2552,-4.02642 1.2378,-4.42326c0.57375,-0.23172 1.21958,0.21014 1.82937,0.31521c0.06781,0.50581 -0.23781,1.21941 0.1738,1.52111c0.23161,0.16977 1.38009,-0.91749 1.46286,-0.97895c1.35656,-1.00722 1.77216,-2.24441 3.54616,-2.77818c0.92454,-0.27818 2.11575,-0.92092 2.62598,0.67568c0.43146,1.35011 -1.76668,2.58294 -2.63699,3.15822c-0.00323,0.00214 -0.66976,0.49697 -1.09026,0.79682c0.31951,-0.00299 0.7653,0.05996 1.00718,0.07664c0.36875,0.50317 1.54071,2.98046 1.40811,3.76916c-0.23689,1.40909 -2.38028,1.70374 -3.48556,2.1059c-3.74567,1.36287 -7.62454,4.33707 -11.73839,3.5312c-0.9923,-0.19846 -2.27228,-0.20092 -2.85707,-1.23336c-0.34507,-0.60923 -0.2449,-2.46496 -0.24585,-3.16874c-0.00368,-2.73238 -0.95696,-6.92055 0.98805,-9.28955c1.71053,-2.08341 3.88753,0.11965 4.01195,1.95622z" fill="#9a8479" stroke-width="0.5"/><path d="M262.33513,180.72745c2.12075,-1.1796 5.44723,-1.19949 7.63652,-1.2067h0.86207c0.41422,0 0.74587,0.33578 0.74078,0.75c-0.00314,0.2552 -0.13337,0.48064 -0.32977,0.61611l-1.20928,0.85626l-0.18604,-0.26502c-0.01101,0.00696 -0.02203,0.01387 -0.03306,0.02076c-0.12331,0.55638 -0.73791,0.55638 -0.73791,0.55638c-0.11055,-0.00026 -0.22115,-0.00008 -0.3318,0.00047c-2.06266,0.87953 -4.39874,0.86159 -6.92018,0.86159h-0.86207c-0.41422,0 -0.74587,-0.33578 -0.74078,-0.75c0.00327,-0.26587 0.14448,-0.49942 0.35474,-0.63261c-0.00119,-0.01883 -0.00167,-0.03785 -0.00144,-0.05704c0.00509,-0.41422 0.345,-0.75 0.75922,-0.75h0.86207c0.04564,0 0.09129,-0.00007 0.13693,-0.0002z" fill="#000000" stroke-width="0.5"/><path d="M269.5855,174.64671c0.61893,0.41602 0.19523,1.04006 0.19523,1.04006l-0.52749,0.70121c-3.19031,2.37035 -7.57556,3.0729 -11.52235,3.08104c0,0 -0.75,0 -0.74078,-0.75c0.00922,-0.75 0.75922,-0.75 0.75922,-0.75c3.60846,0.00842 7.70407,-0.61459 10.61866,-2.78104l0.17489,-0.33327c0,0 0.42369,-0.62404 1.04262,-0.20801z" fill="#000000" stroke-width="0.5"/><path d="M250.40837,186.07247c0.75,0 0.74078,0.75 0.74078,0.75l-0.02124,0.54256c0.74927,4.18883 2.70026,-0.08812 2.67823,-2.09429c0,0 0.00922,-0.75 0.75922,-0.75c0.75,0 0.74078,0.75 0.74078,0.75c-0.11337,3.92065 -4.49646,8.32497 -5.65271,2.38846l-0.00429,-0.83674c0,0 0.00922,-0.75 0.75922,-0.75z" fill="#000000" stroke-width="0.5"/><path d="M258.12949,204.96908c0.34869,-1.7289 0.96595,-3.13766 2.03022,-4.54156c1.40891,-1.12326 3.02419,-1.57712 4.84705,-1.21449c1.64537,0.32733 3.33663,2.02932 5.14083,1.35198c0.4388,-0.16474 3.00905,-2.57828 1.69344,-3.12272c-0.25207,-0.10431 -3.11649,1.08775 -3.80944,1.09054c-2.4576,0 -3.29137,-1.09335 -5.40384,-1.87182c-0.93515,-0.34462 -2.1743,0.71177 -2.79431,1.20747c-1.98169,1.58438 -3.91407,4.45667 -3.88519,7.08102c0,0 0,0.02385 -0.00425,0.06304c0.67716,0.10323 1.4169,0.20781 2.17953,0.28935zM261.95769,195.20315c2.07898,-0.16341 3.72885,1.82968 6.0739,1.82968c1.13929,0.00548 3.60131,-1.45152 4.5239,-0.90946c2.60253,1.52911 -0.21907,5.25204 -1.97322,5.87728c-3.30182,1.17688 -6.23686,-3.02865 -9.34546,-0.52917c-0.86529,1.17096 -1.35331,2.36267 -1.63645,3.79177l0.0045,0.16044c1.48623,0.08061 2.96334,0.01932 4.15225,-0.35545c2.2578,-0.7117 4.56204,-1.68796 6.90086,-2.06246l0.58989,-0.30241c0,0 0.67494,-0.33541 1.00211,0.33541c0.02182,0.04474 0.03918,0.08798 0.05258,0.12973c0.01839,-0.0238 0.0368,-0.04777 0.0552,-0.07191l0.10442,-0.23024c0,0 0.34365,-0.67082 1.01035,-0.33541c0.6667,0.33541 0.32304,1.00623 0.32304,1.00623l-0.24888,0.45941c-0.52073,0.68311 -1.04044,1.24328 -1.56565,1.71406c-0.00462,0.00661 -0.00726,0.01008 -0.00726,0.01008c-3.34234,4.31532 -9.07112,6.30688 -14.34619,7.18426c-2.80432,0.55949 -5.49674,0.84468 -8.16711,0.88552c0.082,0.14594 0.16177,0.2985 0.23901,0.45729c0.01669,0.03432 0.6654,1.70956 0.69226,1.77886c0,0 0.26999,0.69636 -0.42979,0.9749c-0.69978,0.27855 -0.96976,-0.41782 -0.96976,-0.41782c-0.07614,-0.19637 -0.75263,-1.76376 -1.28821,-2.80135c-0.43289,-0.01056 -0.86571,-0.02739 -1.29886,-0.05037c-1.14496,2.239 -0.84413,6.9174 -0.86702,8.78008c-0.01299,1.05717 -0.14113,2.30113 0.23877,3.31456c0.34845,0.9295 1.92864,1.08757 2.86207,1.10585l0.00771,-0.62731c0,0 0.00922,-0.75 0.75922,-0.75l-0.00001,0.00002c0.75,0 0.74078,0.75 0.74078,0.75c-0.00201,0.16363 -0.0044,0.35831 -0.00703,0.57226c3.47975,-0.31211 5.90398,-1.85644 9.07054,-3.45163c1.008,-0.75501 3.39366,-1.64983 3.80005,-2.92236h-0.4388c-0.41422,0 -0.74587,-0.33578 -0.74078,-0.75c0.00211,-0.17157 0.06167,-0.32969 0.16016,-0.45606l0.5211,-0.68359l0.12354,0.09352c0.03097,-0.05353 0.06176,-0.10712 0.09218,-0.16086c0.27099,-0.47865 -1.01603,0.04826 -1.6262,0.19881c-0.09168,0.04952 -0.17343,0.09215 -0.24349,0.12728c0,0 -0.67494,0.33541 -1.00211,-0.33541c-0.32717,-0.67082 0.34778,-1.00623 0.34778,-1.00623c0.67606,-0.33238 2.9752,-2.57551 3.93861,-3.227c-0.45111,0.07228 -1.08744,0.15901 -1.38343,0.28039c-1.72147,0.70596 -2.73015,1.37823 -3.8601,2.86054l-0.32673,0.48326c0,0 -0.42362,0.62392 -1.04244,0.20813c-0.10771,0.0751 -0.25269,0.12584 -0.44778,0.12584c-0.75,0 -0.74078,-0.75 -0.74078,-0.75c0.02873,-1.1337 -1.29702,-3.47495 -1.7811,-1.207c-0.13816,0.64728 -0.09771,1.4256 -0.05755,2.16965c0.1864,-0.00725 0.40094,0.05958 0.58677,0.31148c0.44263,0.6 -0.1629,1.05 -0.1629,1.05c-0.07588,0.05612 -0.15183,0.11201 -0.22785,0.1677c0.02569,0.22033 -0.00096,0.6355 -0.51419,0.80588c-0.244,0.081 -0.4313,0.05134 -0.57218,-0.02283c-0.83854,0.59742 -1.67977,1.18726 -2.51279,1.80787l-0.73356,0.28392c0,0 -0.71442,0.23717 -0.94285,-0.47434c-0.22843,-0.71151 0.486,-0.94869 0.486,-0.94869l0.00101,-0.0002c-0.16634,-0.21745 -0.16293,-0.49518 -0.16293,-0.49518c0.01412,-0.83449 -0.04143,-1.33642 -0.41252,-2.07838l-0.07294,-0.50782c0,0 0.00922,-0.75 0.75922,-0.75c0.75,0 0.74078,0.75 0.74078,0.75l-0.05203,-0.10988c0.38787,0.82753 0.51906,1.50484 0.536,2.38087c0.59854,-0.42832 1.19727,-0.84851 1.79426,-1.2773c-0.01817,-1.64721 -0.40209,-4.29357 1.27937,-5.24888c1.97904,-1.12438 3.0935,0.71941 3.41989,2.3878c1.37484,-1.78936 3.34072,-3.34951 5.66908,-3.70051c0.74028,-0.1116 2.17719,-0.09769 2.54537,0.84798c0.43023,1.10506 -1.08873,2.56438 -2.62029,3.67732c0.66781,0.50888 1.17609,1.60368 0.60304,1.97073c1.3218,2.86784 -1.9062,3.88867 -3.95299,5.39952c-3.45058,1.68914 -6.06447,3.37806 -9.86198,3.68378c-0.00641,0.52138 -0.01249,1.01632 -0.01681,1.36789c0,0 -0.00345,0.28082 -0.17796,0.49879c-0.00701,1.45895 0.1366,2.86659 0.11863,4.3288c-0.00798,0.64942 -0.66962,1.81881 -0.03481,1.94822c0.75617,0.15416 2.41895,0.08871 2.57241,1.39399c0.15807,1.34448 -1.74788,2.01505 -2.64609,2.21025c-2.37393,0.78808 -4.63197,0.71935 -7.09783,0.71478c-0.8818,-0.00163 -2.39452,0.03373 -2.99912,-0.81062c-0.10697,0.07241 -0.24985,0.12097 -0.44069,0.12097c-0.75,0 -0.74078,-0.75 -0.74078,-0.75l0.01254,-0.60202c-0.19453,-1.84638 -0.62375,-3.79295 -0.6259,-5.60487c0,0 0.0028,-0.22796 0.131,-0.43253c-0.07048,-0.01208 -0.14111,-0.02501 -0.21194,-0.03893c-1.46623,-0.29905 -4.1086,-1.18373 -4.9385,-2.57694c-1.74796,-2.93443 1.94178,-7.8466 4.60675,-9.65157c-0.01962,0.00112 -0.0398,0.00169 -0.06055,0.00169c-0.75,0 -0.74078,-0.75 -0.74078,-0.75c0.03185,-2.59152 0.26048,-4.94452 1.32667,-7.15385c-2.3155,-0.58937 -4.42143,-1.8215 -6.54693,-2.90406l-0.91734,-0.73576c0,0 -0.35242,-0.28473 -0.28241,-0.68772c-2.06823,-1.73547 -3.23309,-5.14534 -3.67687,-7.50946l-0.01063,-0.3195c0,0 0.00333,-0.27107 0.16896,-0.48729c-0.64851,0.00423 -1.2827,-0.04368 -1.88684,-0.14458c-8.09533,-0.12381 -10.06839,-10.87099 -7.1154,-16.62559c1.01721,-1.62622 2.66346,-2.62151 4.60184,-3.19046c0.01487,-1.20959 0.03729,-3.03419 0.05171,-4.20725c0.05297,-3.51784 1.21849,-7.30647 2.23572,-10.57676c0.95011,-3.05451 1.44334,-6.35334 2.91462,-9.24141c1.58089,-3.05169 2.477,-6.54165 3.3398,-9.84538c0.5351,-2.04894 1.08727,-4.70049 2.68923,-6.26352c2.03413,-6.31082 10.49866,-10.58589 15.7368,-13.20869c2.49466,-0.93287 5.0857,-1.77061 7.72458,-2.10772c0.50771,-0.06486 1.16736,-0.56631 1.52214,-0.20285c0.5807,0.5949 -0.01576,2.20348 -0.35852,2.82997c-0.98409,1.79869 -1.66375,3.55397 -2.44814,5.44662c-0.10031,0.24206 -0.53875,1.82029 -0.73367,2.45637c0.35204,-0.35165 1.37051,-0.84834 1.49678,-0.94351c2.87893,-1.71631 5.84319,-3.83826 9.21528,-4.09168c0.51812,-0.03894 2.67912,-0.50342 3.05763,0.12449c0.57173,0.94844 -1.60196,4.53861 -2.04323,5.56625c-0.02792,0.06503 -0.41397,1.03633 -0.71334,1.5972c1.61617,-1.43041 5.70227,-5.45077 7.38491,-3.16675c0.7811,1.06026 -0.31774,4.66531 -0.82337,6.54351c1.01894,0.69821 1.48498,1.71515 2.23998,2.73731c2.31728,3.13726 4.52646,7.01689 4.47791,10.96734c0.34959,0.71679 0.51319,1.56066 0.61357,2.43717c0.06903,0.035 0.11022,0.06618 0.11022,0.06618c2.86194,2.25612 4.58681,6.04391 6.76423,8.9431l0.23758,0.45942c0,0 0.32717,0.67082 -0.34778,1.00623c-0.26853,0.13344 -0.482,0.10762 -0.64174,0.02813c-0.03509,0.16522 -0.07018,0.33044 -0.10528,0.49565c0.71765,1.44124 0.37472,2.8136 0.0564,4.44278c-0.05251,0.26874 -0.10268,0.53806 -0.15088,0.80788c3.81285,-0.40186 5.85837,4.38885 4.66986,7.92985c-0.18978,0.56543 -0.5394,1.09586 -0.9811,1.58396c0.04384,0.13817 0.08327,0.2865 0.11801,0.44557l0.01063,0.3195c0,0 -0.00922,0.75 -0.75922,0.75c-0.37173,0 -0.55696,-0.18424 -0.64923,-0.37009c-0.82402,0.6169 -1.72617,1.12444 -2.4775,1.49781c-0.73664,0.36607 -1.22022,0.60961 -1.89615,0.71333c-0.78855,2.92416 -3.33826,3.84496 -6.67264,3.84496l-0.933,-0.18333c0,0 -0.19262,-0.03862 -0.35945,-0.17521c-5.51259,-0.08923 -10.54782,-0.39789 -15.73442,2.17956c-3.57069,1.7555 -9.82192,9.57085 -5.85494,12.7794c0.33292,-3.67227 3.62908,-8.90463 7.48201,-9.20747zM244.39998,226.43894c-0.53227,-1.14556 -0.37693,-2.70305 -0.36189,-3.92682c0.0324,-2.63601 0.02702,-5.7822 0.82297,-8.31716c0.06203,-0.19754 0.12727,-0.3821 0.19541,-0.55405c-1.77717,-0.14562 -3.56644,-0.39195 -5.3942,-0.73019c-1.12705,2.10292 -1.30105,4.35216 -1.33166,6.84278c0,0 -0.00243,0.19764 -0.10625,0.39001c0.01702,-0.00895 0.03398,-0.01773 0.05085,-0.02635c0,0 0.67494,-0.33541 1.00211,0.33541c0.32717,0.67082 -0.34778,1.00623 -0.34778,1.00623c-1.76255,0.84375 -6.05075,5.70469 -4.62552,7.89482c0.65648,1.00879 2.87675,1.69068 3.97192,1.90582c0.40517,0.08315 0.80506,0.12823 1.20546,0.16672c0.06547,-0.22101 0.24248,-0.52611 0.72083,-0.52611c0.6213,0 0.72159,0.51469 0.73771,0.69133c0.00177,0.00029 0.00353,0.00059 0.0053,0.00088l0.80024,-0.00256c0,0 0.75,0 0.74078,0.75c-0.00922,0.75 -0.75922,0.75 -0.75922,0.75l-0.84169,-0.00233c-0.11374,2.0323 -0.3104,4.50888 0.19785,6.09941c0.06182,0.19346 1.64226,0.1618 1.77381,0.16154c2.34608,-0.0047 4.45633,0.08436 6.71222,-0.66453c0.53126,-0.09365 1.89027,-0.15674 1.52574,-0.54837c-0.2151,-0.23109 -1.76862,-0.24419 -1.88916,-0.33015c-1.36806,-0.97551 -0.79782,-6.11196 -0.77822,-7.70695l0.00848,-0.68966c0,0 0.00346,-0.28145 0.17855,-0.49952c0.00196,-0.15921 0.00391,-0.31842 0.00587,-0.47764c-1.56599,-0.03801 -3.50191,-0.44593 -4.22053,-1.99258zM240.85037,211.13281c-0.00235,0.19147 -0.05299,0.33405 -0.12709,0.44024c1.7683,0.30316 3.50076,0.51541 5.22478,0.62805c0.7178,-0.67729 1.55735,-0.57454 2.34094,0.09095c2.96993,0.03548 5.95179,-0.2371 9.0863,-0.86247c2.01299,-0.33481 4.15696,-0.83938 6.1907,-1.60647c-6.54853,1.33736 -12.87015,1.98833 -18.66639,-2.37826c-1.98503,-1.23213 -2.18295,-3.11182 -2.96959,-5.16296c-1.94123,-5.06178 0.10947,-10.71662 1.02143,-15.81263c2.50718,-7.21299 7.57122,-11.735 13.25864,-16.29705c5.36129,-3.20475 11.74653,-3.85751 17.24292,-6.60677c0,0 0.09199,-0.04572 0.22452,-0.06964c0.03738,-0.31697 0.05932,-0.64402 0.06349,-0.98368c0,0 0.00922,-0.75 0.75922,-0.75c0.75,0 0.74078,0.75 0.74078,0.75c-0.03408,2.77318 -1.09719,4.73561 -2.22333,7.2038c-0.09178,0.20115 -0.66559,1.57187 -1.06854,2.19234c0.27441,-0.04089 0.62728,-0.05533 0.82483,-0.11202c0.98052,-0.28138 2.06092,-0.86281 2.98239,-1.32088c0.81412,-0.48355 3.51381,-3.39489 4.36535,-3.17593c2.264,0.58217 -0.4411,5.17855 -0.36138,6.46134c0.02175,0.34989 0.63186,-0.31628 0.92849,-0.50733c0.59584,-0.38374 1.22841,-0.73316 1.73576,-1.22854c0.85009,-0.83005 1.80692,-2.68555 2.07995,-3.90044c-0.05422,-0.08029 -0.38957,-0.62414 0.16992,-1.03993c0.01836,-0.01364 0.03656,-0.02632 0.05461,-0.03808c0.00186,-0.00875 0.00372,-0.0175 0.00557,-0.02625l0.46589,-0.78618c0,0 0.03295,-0.04852 0.09389,-0.10949c-1.55086,-2.29672 -3.04783,-5.27143 -5.04263,-7.18964c0.04172,0.47101 0.09331,0.92974 0.1743,1.36117l0.00428,0.83674c0,0 -0.00922,0.75 -0.75922,0.75c-0.75,0 -0.74078,-0.75 -0.74078,-0.75l0.02123,-0.54257c-0.34452,-1.83538 -0.15269,-4.18718 -0.95724,-5.83684c0.04653,-3.78569 -2.00591,-7.40048 -4.22485,-10.41197c-0.46627,-0.63281 -0.80284,-1.3813 -1.32163,-1.94207c-0.10058,0.17717 -0.28963,0.34552 -0.64496,0.34552c-0.75,0 -0.74078,-0.75 -0.74078,-0.75l0.02484,-0.83674c0.35326,-1.62784 1.4477,-4.49871 1.22454,-6.15658c-0.06287,-0.46701 -0.86745,0.38408 -1.29223,0.59518c-1.95516,0.97161 -3.25424,2.69028 -5.20635,3.52746c-3.29388,-2.03147 1.29873,-5.51631 1.91405,-8.05697c0.03851,-0.159 -0.23456,0.25505 -0.39277,0.2969c-0.74125,0.19608 -1.53858,0.00378 -2.28997,0.1538c-2.65884,0.53084 -5.24273,2.47934 -7.55986,3.85797c-5.93224,4.35468 -2.48894,-5.44512 -1.15357,-7.87617c0.18525,-0.33725 0.39165,-0.93298 0.61499,-1.40479c-0.68664,0.17011 -1.56159,0.27476 -1.7501,0.32866c-1.74248,0.49823 -3.45286,0.97001 -5.15351,1.6036c-4.70943,2.32389 -9.28518,4.76508 -12.56992,9.07287c-0.53679,0.70398 -1.23046,1.41371 -1.75845,2.18693c0.02713,0.03871 0.05281,0.08224 0.07664,0.1311c0.32717,0.67082 -0.34778,1.00623 -0.34778,1.00623c-0.14373,0.06557 -0.27849,0.14561 -0.40513,0.23794c-0.02495,0.08987 -0.04613,0.18079 -0.06319,0.27281c0,0 -0.13467,0.63434 -0.74154,0.60694c-0.58062,0.8872 -0.91713,2.05078 -1.22243,2.93142c-1.4068,4.05806 -2.01688,8.29252 -3.98334,12.1672c-1.4487,2.80985 -1.89419,6.05638 -2.82724,9.03445c-0.9735,3.10721 -2.12602,6.76291 -2.15649,10.11289c-0.01483,1.2069 -0.02967,2.41379 -0.0445,3.62069l-0.00291,0.23642c3.54671,-0.63328 7.70746,-0.15816 10.77138,0.38656c0.12557,-1.26275 0.30626,-2.54361 0.54,-3.84972l-0.0096,-0.04911c0,0 0.00922,-0.75 0.75922,-0.75c0.75,0 0.74078,0.75 0.74078,0.75l-0.01383,0.29571c-0.2457,1.37296 -0.43126,2.7159 -0.55384,4.0381c0.1245,0.13412 0.21157,0.3374 0.14715,0.64086c-0.04297,0.20238 -0.12966,0.33793 -0.23276,0.42811c-0.32458,4.8224 0.21266,9.39822 1.75335,14.18764c0,0 0.22843,0.71151 -0.486,0.94868c-0.71442,0.23717 -0.94285,-0.47434 -0.94285,-0.47434c-0.03892,-0.12149 -0.07723,-0.24285 -0.11492,-0.36409c-0.01373,0.03795 -0.03076,0.07712 -0.05144,0.1175c-0.2191,0.42768 -0.56951,0.44636 -0.79473,0.40372c-1.78941,2.06983 -4.68803,3.27235 -7.4906,3.54278c0.20983,0.22208 0.20585,0.54568 0.20585,0.54568l-0.01487,0.02533c0.43138,2.29809 1.87484,6.88851 4.49383,7.34269c0,0 0.73363,0.14709 0.5775,0.88252c-0.01128,0.05316 -0.02559,0.10171 -0.04241,0.14603c1.83969,0.95117 3.67439,1.9794 5.6999,2.39914c0.12474,-0.18626 0.25675,-0.37159 0.39642,-0.55606l0.7761,-0.3c0,0 0.75,0 0.74078,0.75zM282.29685,183.00404c-0.13805,-0.73544 0.5992,-0.88252 0.5992,-0.88252c0.07546,-0.01439 0.15193,-0.0306 0.2293,-0.0484c0.58138,-3.33201 0.90427,-6.71628 1.54266,-10.02596c0.06556,-0.33989 0.14823,-0.67834 0.22048,-1.01378c-0.86046,1.45011 -2.08751,2.74176 -3.42672,3.49605c-0.81959,0.46162 -1.96476,1.18044 -2.8731,0.18233c-0.63627,-0.69915 0.18284,-3.50763 0.43131,-4.30989c0.00197,-0.00635 0.08039,-0.2602 0.18715,-0.56728c-0.89763,0.83067 -2.47551,1.79474 -2.7451,1.95569c-1.24503,0.61854 -5.14294,2.83774 -6.21998,1.05137c-0.24604,-0.4081 0.85163,-2.59061 1.06153,-3.05055c0.73198,-1.60394 1.50877,-2.97886 1.98376,-4.49641c-5.25585,2.37749 -11.19943,3.12116 -16.23607,6.10908c-5.3982,4.22889 -10.31396,8.62235 -12.6485,15.42709c-0.84353,4.71358 -2.91222,10.20557 -1.07988,14.87703c0.66697,1.70042 0.75304,3.51228 2.42899,4.49221c5.50434,4.18809 11.38828,3.33664 17.58749,2.15436c3.18624,-1.57485 5.58991,-1.73568 7.90316,-3.98928l-0.13823,0.0671c-2.36992,0.40749 -4.64374,1.38795 -6.94312,2.07547c-2.74568,0.82097 -6.65597,0.30077 -9.40613,-0.17892c-7.07369,-3.47824 -0.10807,-13.51745 4.92124,-16.03923c6.01042,-2.98685 11.78566,-2.32056 18.29496,-2.32056c0,0 0.41998,0 0.62752,0.31427c1.88797,-0.13248 3.20372,-0.68172 3.81239,-2.19208c-0.12015,-0.07542 -0.22878,-0.20244 -0.2957,-0.41088c-0.22843,-0.71151 0.486,-0.94868 0.486,-0.94868l0.14051,-0.03915c0.03019,-0.27187 0.04736,-0.5631 0.05119,-0.87497c0.016,-0.07685 0.03183,-0.15375 0.04746,-0.23068c-0.21495,-0.04311 -0.46849,-0.1817 -0.54379,-0.58281zM285.27194,183.91027c0.70577,-0.35073 1.61777,-0.84779 2.40303,-1.45725c-0.78742,-0.27257 -2.12355,0.26501 -3.22263,0.69839c-0.05355,0.27186 -0.10952,0.5432 -0.16827,0.81393c-0.00179,0.14604 -0.00653,0.28875 -0.01414,0.42818c0.30869,-0.10881 0.59163,-0.2793 1.00203,-0.48325zM289.24747,180.55082c0.92075,-2.54067 -0.53177,-6.50535 -3.37894,-5.92395c0,0 -0.05136,0.01025 -0.1295,0.01181c-0.35649,2.3069 -0.61843,4.63843 -1.00288,6.94429c1.5064,-0.50969 3.0764,-1.03977 4.10176,-0.28273c0.17513,-0.24008 0.31565,-0.4903 0.40955,-0.74942zM231.76954,181.53434c-3.87785,-0.31894 -10.1215,-1.7532 -12.57367,2.37318c-1.45918,2.85353 -1.75772,5.88038 -0.75115,8.54305c5.03789,-0.06574 13.05692,-2.7544 16.66024,1.89059c0.01675,-0.03164 0.0332,-0.06346 0.04936,-0.09547l0.49195,-0.53975c0,0 0.03199,-0.0316 0.08797,-0.07166c-1.01542,-4.02172 -1.35566,-7.95498 -1.09383,-12.0515c-0.95273,-0.06807 -1.89579,0.03176 -2.87087,-0.04844zM234.07305,195.45625c-2.87881,-4.03532 -10.35413,-1.8426 -14.91634,-1.53791c0.50342,0.83798 1.15586,1.62386 1.96272,2.33755c1.19242,1.05471 2.35691,2.09218 4.0279,2.06053c2.92153,0.48792 6.92557,-0.39398 9.08032,-2.7412c-0.05153,-0.03965 -0.10307,-0.07931 -0.15461,-0.11896zM264.34556,209.51357c0.31115,-0.13001 0.61888,-0.26665 0.92229,-0.41027c-0.30096,0.12743 -0.60818,0.26315 -0.92229,0.41027z" fill="#000000" stroke-width="0.5"/><path d="M258.08317,205.33141c-0.76263,-0.08154 -1.50674,-0.19328 -2.1839,-0.29651c0.00425,-0.03919 0.00412,-0.06331 0.00412,-0.06331c-0.02888,-2.62435 1.90789,-5.54808 3.88958,-7.13246c0.62001,-0.4957 1.88361,-1.57009 2.81876,-1.22547c2.11247,0.77847 3.00494,1.89312 5.46254,1.89312c0.69295,-0.00279 3.56027,-1.18936 3.81234,-1.08505c1.31561,0.54444 -1.25031,2.97541 -1.68911,3.14015c-1.8042,0.67734 -3.56896,-0.97742 -5.21433,-1.30475c-1.82286,-0.36263 -3.36497,0.05373 -4.77388,1.17699c-1.06427,1.4039 -1.68967,2.77808 -2.03836,4.50698z" data-paper-data="{&quot;noHover&quot;:false,&quot;origItem&quot;:[&quot;Path&quot;,{&quot;applyMatrix&quot;:true,&quot;segments&quot;:[[[258.12949,204.96908],[0,0],[0.34869,-1.7289]],[[260.15971,200.42752],[-1.06427,1.4039],[1.40891,-1.12326]],[[265.00676,199.21303],[-1.82286,-0.36263],[1.64537,0.32733]],[[270.14759,200.56501],[-1.8042,0.67734],[0.4388,-0.16474]],[[271.84103,197.44229],[1.31561,0.54444],[-0.25207,-0.10431]],[[268.03159,198.53283],[0.69295,-0.00279],[-2.4576,0]],[[262.62775,196.66101],[2.11247,0.77847],[-0.93515,-0.34462]],[[259.83344,197.86848],[0.62001,-0.4957],[-1.98169,1.58438]],[[255.94825,204.9495],[-0.02888,-2.62435],[0,0]],[[255.944,205.01254],[0.00425,-0.03919],[0.67716,0.10323]],[[258.12353,205.30189],[-0.76263,-0.08154],[0,0]]],&quot;closed&quot;:true,&quot;fillColor&quot;:[0,0,0,1]}]}" fill="#ff0000" stroke-width="0.5"/><path d="M285.23192,183.94022c-0.4104,0.20395 -0.69633,0.36995 -1.00502,0.47876c0.00761,-0.13943 0.00809,-0.29138 0.00988,-0.43742c0.05875,-0.27073 0.1126,-0.56593 0.16615,-0.83779c1.09908,-0.43338 2.52847,-0.98736 3.31589,-0.71479c-0.78526,0.60946 -1.78114,1.1605 -2.48691,1.51123z" data-paper-data="{&quot;noHover&quot;:false,&quot;origItem&quot;:[&quot;Path&quot;,{&quot;applyMatrix&quot;:true,&quot;segments&quot;:[[[285.27194,183.91027],[0,0],[0.70577,-0.35073]],[[287.67497,182.45302],[-0.78526,0.60946],[-0.78742,-0.27257]],[[284.45234,183.15141],[1.09908,-0.43338],[-0.05355,0.27186]],[[284.28407,183.96534],[0.05875,-0.27073],[-0.00179,0.14604]],[[284.26993,184.39352],[0.00761,-0.13943],[0.30869,-0.10881]],[[285.27196,183.91027],[-0.4104,0.20395],[0,0]]],&quot;closed&quot;:true,&quot;fillColor&quot;:[0,0,0,1]}]}" fill="#ee4036" stroke-width="0.5"/><path d="M234.123,195.45428c0.05154,0.03965 0.10311,0.08014 0.15464,0.11979c-2.15475,2.34722 -6.23455,3.27311 -9.15608,2.78519c-1.67099,0.03165 -2.8595,-1.04413 -4.05192,-2.09884c-0.80686,-0.71369 -1.45809,-1.5159 -1.96151,-2.35388c4.56221,-0.30469 12.13608,-2.48759 15.01489,1.54773z" data-paper-data="{&quot;noHover&quot;:false,&quot;origItem&quot;:[&quot;Path&quot;,{&quot;applyMatrix&quot;:true,&quot;segments&quot;:[[[234.07305,195.45625],[0,0],[-2.87881,-4.03532]],[[219.15671,193.91834],[4.56221,-0.30469],[0.50342,0.83798]],[[221.11943,196.25589],[-0.80686,-0.71369],[1.19242,1.05471]],[[225.14733,198.31642],[-1.67099,0.03165],[2.92153,0.48792]],[[234.22765,195.57522],[-2.15475,2.34722],[-0.05153,-0.03965]],[[234.07304,195.45626],[0.05154,0.03965],[0,0]]],&quot;closed&quot;:true,&quot;fillColor&quot;:[0,0,0,1]}]}" fill="#ee4036" stroke-width="0.5"/><path d="M244.44925,226.4473c0.71862,1.54665 2.55853,1.92837 4.12452,1.96638c-0.00196,0.15922 0.08821,0.35718 0.08625,0.51639c-0.17509,0.21807 -0.18034,0.50303 -0.18034,0.50303l-0.01074,0.69331c-0.0196,1.59499 -0.60654,6.74684 0.76152,7.72235c0.12054,0.08596 1.62049,0.01477 1.83559,0.24586c0.36453,0.39163 -0.94127,0.53921 -1.47253,0.63286c-2.25589,0.74889 -4.38942,0.66612 -6.7355,0.67082c-0.13155,0.00026 -1.71873,0.0316 -1.78055,-0.16186c-0.50825,-1.59053 -0.31775,-4.06821 -0.20401,-6.10051l0.85971,-0.09586c0,0 0.74305,0.09962 0.75227,-0.65038c0.00922,-0.75 -0.74759,-0.75058 -0.74759,-0.75058l-0.80702,0.00103c-0.00177,-0.00029 -0.00357,-0.0006 -0.00534,-0.00089c-0.01612,-0.17664 -0.12433,-0.69448 -0.74563,-0.69448c-0.47835,0 -0.65829,0.30351 -0.72376,0.52452c-0.4004,-0.03849 -0.80717,-0.08843 -1.21234,-0.17158c-1.09517,-0.21514 -3.32986,-0.91717 -3.98634,-1.92596c-1.42523,-2.19013 2.87874,-7.10857 4.64129,-7.95232c0,0 0.68059,-0.33924 0.35342,-1.01006c-0.32717,-0.67082 -0.94779,-0.25158 -0.94779,-0.25158c-0.01687,0.00862 -0.09242,-0.06364 -0.10944,-0.05469c0.10382,-0.19237 0.10794,-0.39119 0.10794,-0.39119c0.03061,-2.49062 0.22157,-4.74709 1.34862,-6.85001c1.82776,0.33824 3.63753,0.58434 5.4147,0.72996c-0.06814,0.17195 -0.13372,0.35644 -0.19575,0.55398c-0.79595,2.53496 -0.78132,5.68386 -0.81372,8.31987c-0.01504,1.22377 -0.13969,2.83606 0.39258,3.98162z" data-paper-data="{&quot;noHover&quot;:false,&quot;origItem&quot;:[&quot;Path&quot;,{&quot;applyMatrix&quot;:true,&quot;segments&quot;:[[[244.39998,226.43894],[0,0],[-0.53227,-1.14556]],[[244.03809,222.51212],[-0.01504,1.22377],[0.0324,-2.63601]],[[244.86106,214.19496],[-0.79595,2.53496],[0.06203,-0.19754]],[[245.05647,213.64091],[-0.06814,0.17195],[-1.77717,-0.14562]],[[239.66227,212.91072],[1.82776,0.33824],[-1.12705,2.10292]],[[238.33061,219.7535],[0.03061,-2.49062],[0,0]],[[238.22436,220.14351],[0.10382,-0.19237],[0.01702,-0.00895]],[[238.27521,220.11716],[-0.01687,0.00862],[0,0]],[[239.27732,220.45257],[-0.32717,-0.67082],[0.32717,0.67082]],[[238.92954,221.4588],[0,0],[-1.76255,0.84375]],[[234.30402,229.35362],[-1.42523,-2.19013],[0.65648,1.00879]],[[238.27594,231.25944],[-1.09517,-0.21514],[0.40517,0.08315]],[[239.4814,231.42616],[-0.4004,-0.03849],[0.06547,-0.22101]],[[240.20223,230.90005],[-0.47835,0],[0.6213,0]],[[240.93994,231.59138],[-0.01612,-0.17664],[0.00177,0.00029]],[[240.94524,231.59226],[-0.00177,-0.00029],[0,0]],[241.74548,231.5897],[[242.48626,232.3397],[0.00922,-0.75],[-0.00922,0.75]],[241.72704,233.0897],[[240.88535,233.08737],[0,0],[-0.11374,2.0323]],[[241.0832,239.18678],[-0.50825,-1.59053],[0.06182,0.19346]],[[242.85701,239.34832],[-0.13155,0.00026],[2.34608,-0.0047]],[[249.56923,238.68379],[-2.25589,0.74889],[0.53126,-0.09365]],[[251.09497,238.13542],[0.36453,0.39163],[-0.2151,-0.23109]],[[249.20581,237.80527],[0.12054,0.08596],[-1.36806,-0.97551]],[[248.42759,230.09832],[-0.0196,1.59499],[0,0]],[248.43607,229.40866],[[248.61462,228.90914],[-0.17509,0.21807],[0.00196,-0.15921]],[[248.62049,228.4315],[-0.00196,0.15922],[-1.56599,-0.03801]],[[244.39996,226.43892],[0.71862,1.54665],[0,0]]],&quot;closed&quot;:true,&quot;fillColor&quot;:[0,0,0],&quot;strokeWidth&quot;:0.5}]}" fill="#9a8479" stroke-width="0.25"/><path d="M289.27997,180.5888c-0.0939,0.25912 -0.24352,0.51553 -0.41865,0.75561c-1.02536,-0.75704 -2.64696,-0.22984 -4.15336,0.27985c0.38445,-2.30586 0.65583,-4.72504 1.01232,-7.03194c0.07814,-0.00156 0.13108,-0.01242 0.13108,-0.01242c2.84717,-0.5814 4.34937,3.46823 3.42862,6.0089z" data-paper-data="{&quot;noHover&quot;:false,&quot;origItem&quot;:[&quot;Path&quot;,{&quot;applyMatrix&quot;:true,&quot;segments&quot;:[[[289.24747,180.55082],[0,0],[0.92075,-2.54067]],[[285.86853,174.62687],[2.84717,-0.5814],[0,0]],[[285.73903,174.63868],[0.07814,-0.00156],[-0.35649,2.3069]],[[284.73615,181.58297],[0.38445,-2.30586],[1.5064,-0.50969]],[[288.83791,181.30024],[-1.02536,-0.75704],[0.17513,-0.24008]],[[289.24746,180.55082],[-0.0939,0.25912],[0,0]]],&quot;closed&quot;:true,&quot;fillColor&quot;:[0,0,0],&quot;strokeWidth&quot;:0.5}]}" fill="#9a8479" stroke-width="0.25"/><path d="M234.67987,181.55207c-0.26183,4.09652 0.08058,8.08818 1.096,12.1099c-0.05598,0.04006 -0.08825,0.07208 -0.08825,0.07208l-0.49396,0.5425c-0.01616,0.03201 -0.03292,0.06422 -0.04967,0.09586c-3.60332,-4.64499 -11.70481,-1.9628 -16.7427,-1.89706c-1.00657,-2.66267 -0.70937,-5.73657 0.74981,-8.5901c2.45217,-4.12638 8.77202,-2.70873 12.64987,-2.38979c0.97508,0.0802 1.92616,-0.01145 2.87889,0.05662z" data-paper-data="{&quot;noHover&quot;:false,&quot;origItem&quot;:[&quot;Path&quot;,{&quot;applyMatrix&quot;:true,&quot;segments&quot;:[[[231.76954,181.53434],[0.97508,0.0802],[-3.87785,-0.31894]],[[219.19587,183.90752],[2.45217,-4.12638],[-1.45918,2.85353]],[[218.44472,192.45057],[-1.00657,-2.66267],[5.03789,-0.06574]],[[235.10496,194.34116],[-3.60332,-4.64499],[0.01675,-0.03164]],[[235.15432,194.24569],[-0.01616,0.03201],[0,0]],[235.64627,193.70594],[[235.73424,193.63428],[-0.05598,0.04006],[-1.01542,-4.02172]],[[234.64041,181.58278],[-0.26183,4.09652],[-0.95273,-0.06807]]],&quot;closed&quot;:true,&quot;fillColor&quot;:[0,0,0],&quot;strokeWidth&quot;:0.5}]}" fill="#9a8479" stroke-width="0.25"/><path d="M240.8347,211.1803c0.00922,-0.75 -0.7418,-0.75035 -0.7418,-0.75035l-0.77677,0.29976c-0.13967,0.18447 -0.27187,0.36973 -0.39661,0.55599c-2.02551,-0.41974 -3.86647,-1.45081 -5.70616,-2.40198c0.01682,-0.04432 0.0311,-0.09289 0.04238,-0.14605c0.15613,-0.73543 -0.57841,-0.88303 -0.57841,-0.88303c-2.61899,-0.45418 -4.07003,-5.04989 -4.50141,-7.34798l0.01487,-0.02533c0,0 0.06902,-0.39955 -0.14081,-0.62163c2.80257,-0.27043 5.69723,-1.47605 7.48664,-3.54588c0.22522,0.04264 0.5751,0.02359 0.7942,-0.40409c0.02068,-0.04038 0.03774,-0.07953 0.05147,-0.11748c0.03769,0.12124 0.07562,0.24234 0.11454,0.36383c0,0 0.22708,0.71063 0.9415,0.47346c0.71443,-0.23717 0.43274,-0.86404 0.43274,-0.86404c-1.54069,-4.78942 -2.09283,-9.37977 -1.76825,-14.20217c0.1031,-0.09018 0.1895,-0.22616 0.23247,-0.42854c0.06442,-0.30346 -0.02341,-0.50795 -0.14791,-0.64207c0.12258,-1.3222 0.30444,-2.67247 0.55014,-4.04543l0.01357,-0.29636c0,0 0.00838,-0.75232 -0.74162,-0.75232c-0.75,0 -0.66471,0.71733 -0.66471,0.71733l0.00956,0.049c-0.23374,1.30611 -0.50535,2.62789 -0.63092,3.89064c-3.06392,-0.54472 -7.22809,-1.02764 -10.7748,-0.39436l0.0028,-0.23675c0.01483,-1.2069 0.02823,-2.41907 0.04306,-3.62597c0.03047,-3.34998 1.18225,-7.02235 2.15575,-10.12956c0.93305,-2.97807 1.38326,-6.24046 2.83196,-9.05031c1.96646,-3.87468 2.58851,-8.12476 3.99531,-12.18282c0.3053,-0.88064 0.64504,-2.04682 1.22566,-2.93402c0.60687,0.0274 0.74267,-0.60775 0.74267,-0.60775c0.01706,-0.09202 0.03849,-0.18311 0.06344,-0.27298c0.12664,-0.09233 0.26196,-0.17275 0.40569,-0.23832c0,0 0.67596,-0.33607 0.34879,-1.00689c-0.02383,-0.04886 -0.0495,-0.09239 -0.07663,-0.1311c0.52799,-0.77322 1.22481,-1.48479 1.7616,-2.18877c3.28474,-4.30779 7.87852,-6.75458 12.58795,-9.07847c1.70065,-0.63359 3.41723,-1.10568 5.15971,-1.60391c0.18851,-0.0539 1.06548,-0.15848 1.75212,-0.32859c-0.22334,0.47181 -0.43442,1.16743 -0.61967,1.50468c-1.33537,2.43105 -4.77247,12.13107 1.15977,7.77639c2.31713,-1.37863 4.91014,-3.3255 7.56898,-3.85634c0.75139,-0.15002 1.55132,0.04307 2.29257,-0.15301c0.15821,-0.04185 0.39915,-0.3612 0.36064,-0.2022c-0.61532,2.54066 -5.1743,5.93133 -1.88042,7.9628c1.95211,-0.83718 3.25569,-2.55392 5.21085,-3.52553c0.42478,-0.2111 1.23041,-1.06166 1.29328,-0.59465c0.22316,1.65787 -0.86894,4.53003 -1.2222,6.15787l-0.0243,0.83706c0,0 -0.00785,0.75086 0.74215,0.75086c0.35533,0 0.54484,-0.16805 0.64542,-0.34522c0.51879,0.56077 0.85818,1.31128 1.32445,1.94409c2.21894,3.01149 4.28341,6.63961 4.23688,10.4253c0.80455,1.64966 0.61733,4.01108 0.96185,5.84646l-0.02091,0.5435c0,0 -0.00868,0.75173 0.74132,0.75173c0.75,0 0.6635,-0.72106 0.6635,-0.72106l-0.00382,-0.83535c-0.08099,-0.43143 -0.0389,-0.92507 -0.08062,-1.39608c1.9948,1.91821 3.49511,4.90653 5.04597,7.20325c-0.06094,0.06097 -0.09387,0.10965 -0.09387,0.10965l-0.46579,0.7874c-0.00185,0.00875 -0.00371,0.01754 -0.00557,0.02629c-0.01805,0.01176 -0.03625,0.0245 -0.05461,0.03814c-0.55949,0.41579 -0.22405,0.96135 -0.16983,1.04164c-0.27303,1.21489 -1.23009,3.07725 -2.08018,3.9073c-0.50735,0.49538 -1.14026,0.84743 -1.7361,1.23117c-0.29663,0.19105 -1.00534,0.84058 -1.02709,0.49069c-0.07972,-1.28279 2.62471,-5.86652 0.36071,-6.44869c-0.85154,-0.21896 -3.45146,2.6917 -4.26558,3.17525c-0.92147,0.45807 -2.00229,1.04357 -2.98281,1.32495c-0.19755,0.05669 -0.64931,0.05628 -0.92372,0.09717c0.40295,-0.62047 0.97618,-1.98486 1.06796,-2.18601c1.12614,-2.46819 2.19167,-4.41377 2.22575,-7.18695c0,0 0.00995,-0.7479 -0.74005,-0.7479c-0.75,0 -0.6652,0.71595 -0.6652,0.71595c-0.00417,0.33966 -0.0254,0.66888 -0.06278,0.98585c-0.13253,0.02392 -0.22452,0.06965 -0.22452,0.06965c-5.49639,2.74926 -11.88712,3.44284 -17.24841,6.64759c-5.68742,4.56205 -10.76584,9.01617 -13.27302,16.22916c-0.91196,5.09601 -2.97275,10.74558 -1.03152,15.80736c0.78664,2.05114 0.97897,3.92905 2.964,5.16118c5.79624,4.36659 12.09479,3.71524 18.64332,2.37788c-2.03374,0.76709 -4.16376,1.37039 -6.17675,1.7052c-3.13451,0.62537 -6.12689,0.89752 -9.09682,0.86204c-0.78359,-0.66549 -1.62576,-0.7687 -2.34356,-0.09141c-1.72402,-0.11264 -3.46217,-0.3264 -5.23047,-0.62956c0.0741,-0.10619 0.12472,-0.24878 0.12707,-0.44025z" data-paper-data="{&quot;noHover&quot;:false,&quot;origItem&quot;:[&quot;Path&quot;,{&quot;applyMatrix&quot;:true,&quot;segments&quot;:[[[240.85037,211.13281],[0,0],[-0.00235,0.19147]],[[240.72328,211.57305],[0.0741,-0.10619],[1.7683,0.30316]],[[245.94806,212.2011],[-1.72402,-0.11264],[0.7178,-0.67729]],[[248.289,212.29205],[-0.78359,-0.66549],[2.96993,0.03548]],[[257.3753,211.42958],[-3.13451,0.62537],[2.01299,-0.33481]],[[263.566,209.82311],[-2.03374,0.76709],[-6.54853,1.33736]],[[244.89961,207.44485],[5.79624,4.36659],[-1.98503,-1.23213]],[[241.93002,202.28189],[0.78664,2.05114],[-1.94123,-5.06178]],[[242.95145,186.46926],[-0.91196,5.09601],[2.50718,-7.21299]],[[256.21009,170.17221],[-5.68742,4.56205],[5.36129,-3.20475]],[[273.45301,163.56544],[-5.49639,2.74926],[0,0]],[[273.67753,163.4958],[-0.13253,0.02392],[0.03738,-0.31697]],[[273.74102,162.51212],[-0.00417,0.33966],[0,0]],[[274.50024,161.76212],[-0.75,0],[0.75,0]],[[275.24102,162.51212],[0,0],[-0.03408,2.77318]],[[273.01769,169.71592],[1.12614,-2.46819],[-0.09178,0.20115]],[[271.94915,171.90826],[0.40295,-0.62047],[0.27441,-0.04089]],[[272.77398,171.79624],[-0.19755,0.05669],[0.98052,-0.28138]],[[275.75637,170.47536],[-0.92147,0.45807],[0.81412,-0.48355]],[[280.12172,167.29943],[-0.85154,-0.21896],[2.264,0.58217]],[[279.76034,173.76077],[-0.07972,-1.28279],[0.02175,0.34989]],[[280.68883,173.25344],[-0.29663,0.19105],[0.59584,-0.38374]],[[282.42459,172.0249],[-0.50735,0.49538],[0.85009,-0.83005]],[[284.50454,168.12446],[-0.27303,1.21489],[-0.05422,-0.08029]],[[284.67446,167.08453],[-0.55949,0.41579],[0.01836,-0.01364]],[[284.72907,167.04645],[-0.01805,0.01176],[0.00186,-0.00875]],[[284.73464,167.0202],[-0.00185,0.00875],[0,0]],[285.20053,166.23402],[[285.29442,166.12453],[-0.06094,0.06097],[-1.55086,-2.29672]],[[280.25179,158.93489],[1.9948,1.91821],[0.04172,0.47101]],[[280.42609,160.29606],[-0.08099,-0.43143],[0,0]],[280.43037,161.1328],[[279.67115,161.8828],[0.75,0],[-0.75,0]],[278.93037,161.1328],[[278.9516,160.59023],[0,0],[-0.34452,-1.83538]],[[277.99436,154.75339],[0.80455,1.64966],[0.04653,-3.78569]],[[273.76951,144.34142],[2.21894,3.01149],[-0.46627,-0.63281]],[[272.44788,142.39935],[0.51879,0.56077],[-0.10058,0.17717]],[[271.80292,142.74487],[0.35533,0],[-0.75,0]],[271.06214,141.99487],[[271.08698,141.15813],[0,0],[0.35326,-1.62784]],[[272.31152,135.00155],[0.22316,1.65787],[-0.06287,-0.46701]],[[271.01929,135.59673],[0.42478,-0.2111],[-1.95516,0.97161]],[[265.81294,139.12419],[1.95211,-0.83718],[-3.29388,-2.03147]],[[267.72699,131.06722],[-0.61532,2.54066],[0.03851,-0.159]],[[267.33422,131.36412],[0.15821,-0.04185],[-0.74125,0.19608]],[[265.04425,131.51792],[0.75139,-0.15002],[-2.65884,0.53084]],[[257.48439,135.37589],[2.31713,-1.37863],[-5.93224,4.35468]],[[256.33082,127.49972],[-1.33537,2.43105],[0.18525,-0.33725]],[[256.94581,126.09493],[-0.22334,0.47181],[-0.68664,0.17011]],[[255.19571,126.42359],[0.18851,-0.0539],[-1.74248,0.49823]],[[250.0422,128.02719],[1.70065,-0.63359],[-4.70943,2.32389]],[[237.47228,137.10006],[3.28474,-4.30779],[-0.53679,0.70398]],[[235.71383,139.28699],[0.52799,-0.77322],[0.02713,0.03871]],[[235.79047,139.41809],[-0.02383,-0.04886],[0.32717,0.67082]],[[235.44269,140.42432],[0,0],[-0.14373,0.06557]],[[235.03756,140.66226],[0.12664,-0.09233],[-0.02495,0.08987]],[[234.97437,140.93507],[0.01706,-0.09202],[0,0]],[[234.23283,141.54201],[0.60687,0.0274],[-0.58062,0.8872]],[[233.0104,144.47343],[0.3053,-0.88064],[-1.4068,4.05806]],[[229.02706,156.64063],[1.96646,-3.87468],[-1.4487,2.80985]],[[226.19982,165.67508],[0.93305,-2.97807],[-0.9735,3.10721]],[[224.04333,175.78797],[0.03047,-3.34998],[-0.01483,1.2069]],[[223.99883,179.40866],[0.01483,-1.2069],[0,0]],[[223.99592,179.64508],[0,0],[3.54671,-0.63328]],[[234.7673,180.03164],[-3.06392,-0.54472],[0.12557,-1.26275]],[[235.3073,176.18192],[-0.23374,1.30611],[0,0]],[235.2977,176.13281],[[236.05692,175.38281],[-0.75,0],[0.75,0]],[236.7977,176.13281],[[236.78387,176.42852],[0,0],[-0.2457,1.37296]],[[236.23003,180.46662],[0.12258,-1.3222],[0.1245,0.13412]],[[236.37718,181.10748],[0.06442,-0.30346],[-0.04297,0.20238]],[[236.14442,181.53559],[0.1031,-0.09018],[-0.32458,4.8224]],[[237.89777,195.72323],[-1.54069,-4.78942],[0,0]],[[237.41177,196.67191],[0.71443,-0.23717],[-0.71442,0.23717]],[[236.46892,196.19757],[0,0],[-0.03892,-0.12149]],[[236.354,195.83348],[0.03769,0.12124],[-0.01373,0.03795]],[[236.30256,195.95098],[0.02068,-0.04038],[-0.2191,0.42768]],[[235.50783,196.3547],[0.22522,0.04264],[-1.78941,2.06983]],[[228.01723,199.89748],[2.80257,-0.27043],[0.20983,0.22208]],[228.22308,200.44316],[[228.20821,200.46849],[0,0],[0.43138,2.29809]],[[232.70204,207.81118],[-2.61899,-0.45418],[0,0]],[[233.27954,208.6937],[0.15613,-0.73543],[-0.01128,0.05316]],[[233.23713,208.83973],[0.01682,-0.04432],[1.83969,0.95117]],[[238.93703,211.23887],[-2.02551,-0.41974],[0.12474,-0.18626]],[[239.33345,210.68281],[-0.13967,0.18447],[0,0]],[240.10955,210.38281],[[240.85033,211.13281],[0.00922,-0.75],[0,0]]],&quot;closed&quot;:true,&quot;fillColor&quot;:[0,0,0],&quot;strokeWidth&quot;:0.5}]}" fill="#9a8479" stroke-width="0.25"/><path d="M281.78159,192.9495c0,-0.33954 0.15372,-0.52536 0.32197,-0.62706c-0.04766,-0.47362 0.42595,-0.71043 0.42595,-0.71043c0.64389,-0.32154 1.27757,-0.66447 1.8983,-1.02872l0.13378,0.01621l-0.01042,-0.0521l0.81815,-0.16363c0.05225,-0.01153 0.10655,-0.0176 0.16227,-0.0176c0.41421,0 0.75,0.33579 0.75,0.75c0,0.23943 -0.1122,0.45266 -0.28689,0.58998l-0.82792,0.66234l-0.12617,-0.15771c-0.52053,0.47839 -1.07204,0.80111 -1.93082,1.36573l-0.5782,0.12299c0,0 -0.75,0 -0.75,-0.75z" fill="#77fff2" stroke-width="0.5"/><path d="M280.78223,201.40687c0,0 -0.62404,-0.41603 -0.20801,-1.04006c0.41603,-0.62404 1.04006,-0.20801 1.04006,-0.20801c0.5757,0.384 1.14689,0.77568 1.70064,1.1907l0.65968,0.49476c0.18613,0.13648 0.30698,0.35674 0.30698,0.60524c0,0.41421 -0.33579,0.75 -0.75,0.75c-0.17157,0 -0.32969,-0.05761 -0.45606,-0.15455l-0.66061,-0.49545c-0.53127,-0.39875 -1.0799,-0.77429 -1.63269,-1.14263z" fill="#77fff2" stroke-width="0.5"/><path d="M286.45657,198.41408c-0.01388,-0.01041 -0.02777,-0.02083 -0.04165,-0.03124c0,0 -0.6,-0.45 -0.15,-1.05c0.45,-0.6 1.05,-0.15 1.05,-0.15c0.22222,0.16667 0.44444,0.33333 0.66667,0.5l-0.78333,1.35c0,0 -0.65973,0 -0.74168,-0.61876z" fill="#77fff2" stroke-width="0.5"/></g></g></svg>