<svg version="1.1" xmlns="http://www.w3.org/2000/svg" xmlns:xlink="http://www.w3.org/1999/xlink" width="160.03218" height="209.83762" viewBox="0,0,160.03218,209.83762"><g transform="translate(-238.80624,-156.4842)"><g data-paper-data="{&quot;isPaintingLayer&quot;:true}" fill="#000000" fill-rule="nonzero" stroke="none" stroke-width="0.5" stroke-linecap="butt" stroke-linejoin="miter" stroke-miterlimit="10" stroke-dasharray="" stroke-dashoffset="0" style="mix-blend-mode: normal"><path d="M365,303.54412c0.55313,0 0.93143,0.17483 1.19016,0.41397c1.59208,-0.64342 3.15209,-1.43765 4.61074,-2.04547c5.80844,-2.42038 10.74073,-4.91077 14.90251,-9.78428c3.04798,-3.91915 4.29302,-7.45272 6.21328,-11.92541c0.8924,-2.07859 2.23229,-3.7314 2.8636,-5.95025c0.79517,-2.79473 0.52853,-5.80375 0.52853,-8.66444c0,-6.92635 -0.30176,-13.04591 -1.98903,-19.80484c-2.32522,-7.01929 -4.74111,-14.13008 -8.64255,-20.46897c-3.82499,-6.21467 -9.56657,-11.69229 -12.57082,-18.32361c-2.85565,1.12648 -5.71806,2.23405 -8.64804,3.21042c-4.42079,1.25548 -8.9778,1.47538 -13.50871,2.11993c-5.29695,0.75353 -10.53871,2.30249 -15.74129,3.50364c-2.42817,0.5606 -8.16158,2.88385 -10.46631,1.67434c-4.14815,-2.17694 -3.05788,-8.28028 -3.41236,-12.22956c-0.11021,-0.50176 -0.20128,-0.97975 -0.27632,-1.44448c-1.04783,-0.09797 -1.41947,-1.21288 -1.41947,-1.21288c-0.77096,-2.31288 -2.2351,-5.35189 -1.83561,-7.86875c0.55797,-3.51527 6.49959,-7.35716 9.92837,-7.37541c3.07124,-0.01635 3.98648,1.34792 4.69345,4.04478c0.41923,1.59922 0.53104,3.30846 0.32647,4.94901c-0.0427,0.34245 -1.0043,0.90624 -0.68438,0.77683c3.74872,-1.5164 7.33531,-4.64751 10.70645,-6.88756c2.23018,-1.11853 4.29424,-2.33557 6.31649,-3.59667c-2.81041,-1.64803 -6.45606,-2.56797 -9.49268,-2.86094c-3.76163,-0.63836 -7.71694,-0.2788 -11.53367,-0.2788c-7.00356,0 -13.87881,0.21754 -20.78317,1.46492c-4.84982,0.8762 -10.1434,1.53884 -14.02478,4.63703c0,0 -0.22866,0.17785 -0.57228,0.29579c0.06126,0.98003 0.06832,1.96219 0.06545,2.87894c-1.2329,7.3974 1.33003,15.65917 -0.63026,22.90971c-0.97841,3.61887 -4.23393,5.73269 -8.09231,5.44755c-2.25688,-0.16679 -4.67444,-2.59008 -6.40736,-3.85367c-2.57623,-1.87851 -5.53311,-3.31995 -8.31291,-4.86476c-4.72804,-2.36925 -8.38992,-5.3389 -11.72794,-8.76746c-0.77994,0.25137 -1.8208,0.61016 -2.23778,0.93344c-1.49793,1.16131 -1.43014,3.21827 -1.73288,4.84277c-1.04749,5.62077 -1.00365,11.0741 -0.28267,16.77918c0.99218,5.95308 2.28725,10.12863 7.26506,13.85664c1.27132,0.95213 2.55089,2.38475 4.22474,2.60957c4.0241,0.5405 7.27219,-0.6255 10.78598,-1.56239c-0.10453,-0.21954 -0.16924,-0.49134 -0.16924,-0.82785c0,-1.75 1.75,-1.75 1.75,-1.75h0.88235c6.38883,0 12.74528,-0.34605 19.10515,-0.70242c0.71167,-0.3452 1.54155,-0.49964 2.3036,-0.45857c0.22167,0.01195 0.50252,0.11671 0.8184,0.28429c5.71209,-0.31493 11.43165,-0.59389 17.18461,-0.59389c5.93156,0 11.8717,-0.09464 17.77111,0.29852c5.98739,0.39903 12.3563,2.43306 17.78615,4.93755c0.39018,-0.26635 0.95549,-0.42154 1.69595,-0.05132c0.67676,0.33838 0.91461,0.82306 0.96657,1.26428c4.72795,2.06912 9.08549,3.59247 13.44892,6.86552c7.96448,6.5485 16.81443,19.39613 9.78919,29.69757c-1.87016,2.74231 -4.02647,4.05328 -6.59984,5.54548c0.26172,0.32253 0.93303,1.34677 -0.09121,2.371c-1.23744,1.23744 -2.47487,0 -2.47487,0l-0.1499,-0.16503c-0.13175,-0.10541 -0.26319,-0.21118 -0.39432,-0.3173c-2.36953,1.55841 -4.58255,3.2365 -7.23487,4.38281c-6.38121,2.68871 -13.90072,1.9062 -20.68936,1.9062c-2.73533,0 -5.47688,0.03403 -8.21816,0.05432c-0.30869,0.49707 -0.85956,0.82804 -1.48772,0.82804c-0.51575,0 -0.9794,-0.22311 -1.29968,-0.57808l-0.21415,-0.23557c-6.59821,0.00933 -13.18106,-0.1622 -19.65786,-1.18173c-0.27779,0.45301 -0.89535,1.10691 -2.02877,0.7291c-1.09717,-0.36572 -1.22756,-1.21483 -1.18981,-1.74869c-5.3665,-1.95873 -10.66998,-3.98749 -15.79763,-6.57832c-1.19942,-0.60603 -4.58832,-2.96095 -5.5449,-3.68087c-0.61732,-0.4646 -1.16869,-1.01171 -1.77519,-1.49035c-0.16069,-0.12682 -0.55741,-0.52455 -0.52241,-0.32286c0.98961,5.70242 6.52517,11.22701 11.17384,14.31695c4.8811,4.5448 10.54461,6.20049 16.73894,7.92312c3.44746,0.95873 6.76199,2.34226 10.24534,3.22243c5.77548,1.45934 12.48965,0.83075 18.40169,0.83075c7.61685,0 15.69935,0.03935 23.24909,-0.85976c0.31211,-0.03717 0.6251,-0.09029 0.93845,-0.15687c0.1195,-0.51744 0.49771,-1.33632 1.69481,-1.33632zM362.76403,338.67749c-2.79361,5.58722 -5.5705,11.05585 -7.25497,17.08725c-0.5456,1.95356 -0.85047,3.9711 -1.11209,5.98247c-0.0598,0.45975 -0.49545,0.94562 -0.28868,1.36058c0.12894,0.25876 0.46988,-0.35896 0.74737,-0.44006c1.34591,-0.39336 2.28505,-0.29799 3.67375,-0.30008c5.22208,-0.00785 10.37867,-0.29412 15.58824,-0.29412c3.36722,0 6.68337,-0.04901 10.04294,-0.276c0.6392,-0.04319 1.37097,0.2694 1.92106,-0.05898c0.28526,-0.17029 -0.15627,-0.64889 -0.18019,-0.98025c-0.1386,-1.92052 -0.29765,-3.82578 -0.29852,-5.7583c-0.00214,-4.76857 -0.12459,-10.1913 -0.70906,-15.1354c-0.10413,-0.22788 -0.1393,-0.40375 -0.1393,-0.40375l-0.29412,-1.47059c-1.71448,-8.62486 -6.18621,-16.44022 -8.0289,-25.03799c-0.66745,-3.11425 -0.59775,-6.29054 -0.55262,-9.45752c-1.20615,0.57107 -2.45175,1.11529 -3.73865,1.65145c-1.7103,0.71257 -3.53056,1.61613 -5.38782,2.31765c0.02908,10.58282 0.23494,21.36807 -3.98843,31.21363zM387.90266,336.18289c1.1032,6.74749 0.70089,13.92875 1.19588,20.75188c0.12806,1.76526 1.10173,5.79123 -0.4743,7.20904c-1.01997,0.91758 -2.61438,0.85647 -3.96129,1.11749c-3.42399,0.66353 -7.07145,0.31224 -10.5453,0.31224c-5.64627,0 -11.57911,-0.19106 -17.2086,0.28815c-1.41125,0.12013 -3.96804,1.05573 -5.13498,-0.14595c-1.31762,-1.35683 -0.83689,-5.91669 -0.5551,-7.49697c1.33073,-7.46274 5.02152,-14.31706 8.36994,-21.0139c3.86507,-9.02711 3.71799,-19.02384 3.66896,-28.76051c-0.1102,0.01749 -0.22036,0.03343 -0.33049,0.04775c-7.7005,1.00138 -16.03312,0.90495 -23.80973,0.90495c-6.227,0 -13.15658,0.57438 -19.24537,-0.93396c-3.51791,-0.87147 -6.86664,-2.28374 -10.34289,-3.24816c-6.61941,-1.83643 -12.75403,-3.70929 -17.96694,-8.54747c-4.75878,-3.18164 -9.39516,-7.99829 -11.4463,-13.43327c-1.29465,-3.43048 -1.48953,-7.53885 3.86244,-6.69028c2.48849,0.39456 5.61383,4.23537 7.97402,5.41702c5.06727,2.53696 10.28462,4.53814 15.57192,6.48248c1.7169,-3.23844 3.61117,-6.34233 5.3485,-9.57106c0.95463,-1.77412 1.595,-5.24571 3.70732,-5.90673c1.24317,-0.38903 3.51784,3.18793 4.0509,4.09718c1.50713,2.57073 3.00603,5.08539 4.864,7.4462c1.39593,1.77372 2.86739,3.04666 3.83936,4.84172l0.19417,-0.17652l0.26435,0.29079c1.38287,-2.81941 3.08073,-6.23902 4.95194,-8.41294c1.01798,-1.18266 1.96231,-2.9074 3.51131,-3.09605c1.19152,-0.14512 1.85293,1.52777 2.74175,2.33449c3.34965,3.04025 6.98214,5.78144 10.42611,8.74521c0.67009,-3.40339 2.17906,-6.84974 4.15532,-9.67661c0.68877,-0.98522 1.17922,-2.39009 2.32366,-2.75794c1.32413,-0.4256 2.8267,0.16506 4.11537,0.6883c0.77297,0.31385 1.19714,1.16284 1.81751,1.72063c1.56687,1.40882 3.1064,2.82704 4.69293,4.19949c2.61417,-1.51746 4.61635,-2.41637 6.48367,-5.05995c6.03573,-8.54483 -2.64267,-19.76997 -9.03434,-25.00831c-4.01791,-3.01299 -8.02297,-4.42819 -12.36417,-6.28325c-1.43682,3.62085 -3.54156,7.29127 -6.20028,9.9676c-0.44588,0.44883 -3.17225,3.21578 -3.50892,3.32053c-1.20341,0.37441 -2.59427,0.3856 -3.78072,-0.03951c-0.38331,-0.13734 -2.5321,-2.88846 -2.96138,-3.42524c-2.72142,-3.40297 -6.80074,-7.83548 -8.63704,-12.22094c-0.44491,3.39283 -1.00878,6.71991 -1.49147,10.13562c-0.32047,2.26779 1.14191,4.49606 -1.71513,6.45462c-0.9341,0.64035 -6.16893,-3.47147 -6.96307,-4.06672c-5.77576,-4.32924 -11.7613,-8.52676 -17.16076,-13.31859c-0.75308,-0.6606 -1.50768,-1.31948 -2.25925,-1.9818c-0.11932,-0.10515 -0.28198,-0.29065 -0.44646,-0.47207c-0.23441,0.01304 -0.46882,0.02613 -0.70321,0.03923c-0.20366,3.83126 0.741,8.55909 -0.54504,12.2062c-0.58804,1.66764 -0.80731,4.00869 -2.42762,4.71677c-0.65006,0.28408 -4.95573,-3.52892 -5.59087,-4.12453c-3.61086,-3.38612 -6.75962,-7.30054 -10.77463,-10.21049c-5.23603,0.79496 -9.59018,3.23622 -15.19923,2.30042c-2.36014,-0.39376 -3.95059,-1.90242 -5.77526,-3.27278c-5.74115,-4.3117 -7.4725,-9.27459 -8.61729,-16.14336c-0.75335,-6.08611 -0.82668,-11.923 0.30557,-17.92671c0.48863,-2.59095 0.73042,-5.09687 2.973,-6.92194c0.50779,-0.41325 1.16747,-0.73714 1.8579,-1.0097c-1.491,-1.69536 -2.95442,-3.48119 -4.464,-5.34343c-3.94555,-4.86729 -6.2273,-11.01828 -10.28516,-15.87151c0,0 -1.12032,-1.34439 0.22406,-2.46471c1.34439,-1.12032 2.46471,0.22406 2.46471,0.22406c0.21592,0.25989 0.42682,0.52365 0.63322,0.79086c1.97556,-6.32701 6.91971,-9.99967 10.93312,-15.08084c1.04028,-1.31705 4.78794,-6.55605 6.79516,-6.63381c1.14974,-0.04454 1.92529,1.27719 2.77456,2.05348c2.24432,2.05144 3.67561,6.10133 4.49634,8.92164c0.40668,1.47373 1.3104,2.76261 1.95934,4.14686c2.26766,4.83711 3.40161,10.30154 7.30987,14.22274c0.80428,0.80694 1.37878,1.93384 2.40509,2.42851c0.73931,0.35634 -0.04589,-1.76811 0.45245,-2.42019c0.6014,-0.78692 3.67001,-2.89313 4.90616,-3.12974c3.83892,-0.73483 5.62274,0.97975 6.44739,3.47291c4.31624,-2.87792 9.45389,-3.71381 14.60771,-4.64603c7.11041,-1.28613 14.19357,-1.52075 21.40579,-1.52075c3.97882,0 8.06884,-0.33424 11.99574,0.30944c4.1294,0.42621 8.78458,1.84411 12.24989,4.2829c1.4835,-0.95258 2.98032,-1.91331 4.54022,-2.86038c7.1883,-4.3643 14.60446,-8.27474 21.78207,-12.65765c1.65979,-1.01353 6.10191,-3.31747 8.03128,-2.02789c1.6431,1.09824 1.37421,3.9704 1.38608,5.58595c0,6.56514 0.29412,13.12432 0.29412,19.70588c0,2.80517 0.42579,6.20032 -1.61453,8.5111c-1.67245,1.89414 -5.21648,2.86056 -7.45257,3.71208c-0.9731,0.37056 -1.94197,0.74819 -2.90898,1.12853c2.89383,6.40209 8.61907,11.80004 12.31355,17.80445c4.06554,6.60746 6.55714,13.99062 9.00451,21.29574c1.77073,7.0735 2.12861,13.53481 2.12861,20.7834c0,3.17465 0.24017,6.47305 -0.64794,9.57085c-0.68835,2.40104 -2.06316,4.16853 -3.01875,6.40269c-2.04426,4.77946 -3.46124,8.58081 -6.7279,12.78047c-2.71316,3.15504 -5.70334,5.4401 -9.01751,7.33092c-0.01107,3.50485 -0.29651,7.09319 0.45578,10.53949c1.72541,7.90424 5.59524,15.15893 7.56278,22.987c0.39486,0.42816 0.48737,0.98323 0.48737,0.98323zM340.33943,284.57058c-0.69057,-0.58714 -1.41492,-1.17114 -1.92579,-1.9199c-0.22759,-0.33357 0.15959,-1.37979 -0.19943,-1.19492c-0.5098,0.26251 -0.35717,1.09339 -0.60634,1.60983c-0.41085,0.85155 -0.91391,1.65545 -1.36894,2.48423c-0.92972,1.6934 -2.01804,3.22776 -2.97327,4.85913c3.33577,-0.03915 6.66591,-0.10012 9.96962,-0.10012c1.40325,0 2.85205,0.03887 4.31622,0.05678c-2.394,-1.95076 -4.86754,-3.80163 -7.21209,-5.79503zM319.73622,282.46466c-0.79995,-1.15824 -1.42581,-2.42754 -2.13217,-3.64512c-0.15925,-0.2745 -0.3804,-0.51791 -0.58448,-0.7684c-0.29456,1.59812 -1.53562,3.12229 -2.30551,4.35525c-1.42738,2.28592 -2.61221,4.62128 -3.79058,6.99565c5.0322,0.73757 10.16263,0.97849 15.31451,1.02843c-2.38946,-2.39091 -4.45523,-5.00264 -6.50177,-7.96582zM361.45802,281.57813c-0.17031,-0.15976 -1.56741,-2.06533 -2.30241,-1.70871c-0.44785,0.2173 -0.38807,0.91795 -0.61751,1.35971c-1.51897,2.92457 -3.17103,5.55494 -3.74376,8.78439c1.6659,-0.24935 3.2852,-0.66063 4.81043,-1.32791c2.12652,-0.90251 3.96585,-2.20717 5.84188,-3.49422c-1.35368,-1.17704 -2.67963,-2.3854 -3.98862,-3.61326zM289.17861,249.05668c1.5056,1.50615 3.40345,2.65067 4.66153,4.36895c0.04833,0.066 0.08583,0.16704 0.11464,0.28553c-0.09312,-3.23615 0.47169,-6.32943 0.47169,-9.59351c0,-0.56447 -0.03804,-1.62267 0.01317,-2.67978c-4.21933,0.23338 -8.4387,0.44886 -12.66876,0.54838c2.65464,2.14373 4.97725,4.63907 7.40773,7.07044zM303.51046,241.04044c4.29805,3.82695 9.03415,7.24043 13.62191,10.71857c1.73198,1.31308 3.54333,2.62159 5.33229,3.85956c0.34426,0.23823 0.74855,0.41095 1.11251,0.62617c-0.09929,-0.7625 -0.08506,-1.58089 -0.02332,-2.01735c0.58375,-4.12701 1.29388,-8.10082 1.75497,-12.24128v-1.39356c-2.94278,-0.03112 -5.88939,-0.01903 -8.83824,-0.01903c-4.36973,0 -8.72002,0.16095 -13.06241,0.37635c0.03794,0.03393 0.07213,0.06424 0.10228,0.09056zM330.70096,241.43084l-0.01135,0.01021c0.03192,0.02988 0.06367,0.05999 0.09523,0.09031c2.53635,2.43728 4.38529,6.59706 6.50962,9.49381c1.03358,1.4094 2.87587,4.99459 4.34597,5.92696c0.89928,0.57035 1.48939,-0.76525 1.82801,-1.13074c1.87931,-2.02847 2.97825,-3.12669 4.43462,-5.61568c0.92767,-1.58543 1.80179,-3.12837 2.4993,-4.79093c-4.99536,-2.28494 -10.92155,-4.23367 -16.40877,-4.55152c-1.31929,-0.07642 -2.63966,-0.13309 -3.96098,-0.17502z"/><path d="M272.07353,224.70588c0,-0.9665 0.7835,-1.75 1.75,-1.75c0.9665,0 1.75,0.7835 1.75,1.75c0,0.9665 -0.7835,1.75 -1.75,1.75c-0.9665,0 -1.75,-0.7835 -1.75,-1.75z"/><path d="M331.77941,224.41176c0,-0.9665 0.7835,-1.75 1.75,-1.75c0.9665,0 1.75,0.7835 1.75,1.75c0,0.9665 -0.7835,1.75 -1.75,1.75c-0.9665,0 -1.75,-0.7835 -1.75,-1.75z"/></g></g></svg>