<svg version="1.1" xmlns="http://www.w3.org/2000/svg" xmlns:xlink="http://www.w3.org/1999/xlink" width="67.90862" height="104.34726" viewBox="0,0,67.90862,104.34726"><g transform="translate(-202.06913,-126.90307)"><g data-paper-data="{&quot;isPaintingLayer&quot;:true}" fill-rule="nonzero" stroke="none" stroke-linecap="butt" stroke-linejoin="miter" stroke-miterlimit="10" stroke-dasharray="" stroke-dashoffset="0" style="mix-blend-mode: normal"><path d="M202.11721,180.20033l10.08114,-53.29727l55.16285,3.30212l-0.40221,50.52786l-17.09395,3.61166l5.89016,9.01209l-4.43152,6.18029l6.35145,15.96513l-8.74364,3.80153l1.96284,10.68492l-8.07367,1.26166l-7.76471,-16.4849l-1.69289,-27.28428z" fill="#ffffff" stroke-width="0"/><path d="M240.4945,186.4903c-0.00347,0.04514 -0.00695,0.09029 -0.01042,0.13543c0.2335,0.3856 0.28183,0.77225 0.28183,0.77225c0.13088,1.11889 0.40886,2.20916 0.76605,3.28354c0.33522,0.26401 0.49657,0.63343 0.57424,0.92788v0.00001c1.29059,1.34452 2.33663,1.8307 3.75588,1.52929c-0.373,-0.32093 -0.60919,-0.79643 -0.60919,-1.32709c0,-0.19903 0.03322,-0.39029 0.09443,-0.56856c-0.03324,-0.03327 -0.06485,-0.06899 -0.09469,-0.10739c-4.37114,-5.62319 6.36788,-8.35444 7.27449,-2.91797c0.03376,0.20242 0.01128,0.39461 -0.05006,0.57972c0.35275,0.216 0.66575,0.60079 0.74146,1.28219c0.06241,0.56168 -0.07672,0.96213 -0.29373,1.2469c0.42085,0.55528 0.53098,1.4142 0.86925,2.05018l0.13462,0.81296c0,0 0,0.671 -0.41549,1.18201c-0.00936,0.02887 -0.01953,0.05773 -0.03055,0.0866c-0.0517,0.1355 -0.11583,0.25754 -0.19096,0.36692c-0.22034,0.7144 -0.88582,1.23355 -1.67255,1.23355c-0.51252,0 -0.97358,-0.22032 -1.29364,-0.57142c-0.593,-0.13143 -1.18987,-0.35276 -1.71848,-0.62299c-1.73891,0.72792 -3.2703,0.9748 -4.70333,0.71198c0.1364,0.34603 0.26781,0.69289 0.39187,1.041c3.42247,1.5032 6.75648,3.79777 6.97102,7.92074c0.0173,0.33255 -1.18248,4.42374 -1.11095,4.49469c1.09131,1.0825 2.74026,1.81098 4.05721,2.73285c0.51157,0.10433 1.39446,0.46444 1.39446,1.70745c0,1.75 -1.75,1.75 -1.75,1.75l-1.37299,-0.38348c-1.40957,-1.13221 -4.41437,-2.36927 -5.27686,-3.92049c-1.97211,-3.54689 1.34703,-4.29237 0.253,-7.60856c-0.50668,-1.53582 -2.64369,-2.67886 -4.28675,-3.38296c0.75367,4.82574 1.77539,9.55388 2.48364,14.41356c0.65463,4.49176 0.89758,8.02685 2.68119,12.3075l0.12047,0.12201c0,0 0.97073,1.45609 -0.48536,2.42681c-1.45609,0.97073 -2.42681,-0.48536 -2.42681,-0.48536l-0.43907,-0.7173c-1.89078,-4.53786 -2.19684,-8.39703 -2.91423,-13.15163c-0.25492,-1.68948 -0.54239,-3.36377 -0.84049,-5.03218c-0.23191,0.39694 -0.53588,0.71747 -0.93321,0.92161c-2.20766,1.13423 -7.00062,-0.13265 -4.68629,-4.26323c0.45779,-0.81706 1.69163,-0.44148 2.74994,-0.33563c0.08731,-1.29727 0.21906,-2.63323 0.06618,-3.93324c-0.60385,-5.1346 -1.61421,-9.81437 -1.68583,-15.00467c-0.00125,-0.03562 -0.00143,-0.06608 -0.00115,-0.09036c-0.0019,-0.16294 -0.00288,-0.32639 -0.00288,-0.49038c0,0 0,-0.2164 0.0761,-0.49701c0.02298,-0.29872 0.04596,-0.59744 0.06894,-0.89617l-0.00515,-1.40452c0,0 0,-0.39758 0.18951,-0.81374c-2.61437,-0.41133 -5.26782,-1.15071 -7.75745,-2.23908c-0.15828,0.31596 -0.35568,0.51336 -0.35568,0.51336l-0.1172,0.09233c-4.16637,5.34375 -10.42594,5.59398 -15.99985,2.27465c-1.50459,-0.896 -3.15561,-1.66833 -4.10528,-3.2613c-1.27732,-2.14258 0.28948,-4.1993 -0.31853,-5.80305c-0.30381,-0.80137 -1.66908,-0.4008 -2.48013,-0.67772c-4.70249,-3.41666 -4.86303,-7.62417 -2.45587,-12.66412c0.28762,-0.60219 1.44165,-2.66737 1.8869,-3.2061c0.20588,-0.24912 0.88063,-0.27872 0.77407,-0.58383c-0.14103,-0.40381 -0.95184,-0.16631 -1.16547,-0.53688c-2.12028,-3.67786 0.96799,-9.11288 3.39258,-11.88834c1.49227,-1.70821 4.11305,-3.49766 6.20871,-4.35912c1.99091,-0.8184 3.92463,0.08954 3.92919,-1.74574c0.6003,-1.54223 1.37366,-3.03447 2.33552,-4.38119c4.77268,-6.68228 12.02615,-5.59756 19.24185,-4.19556c2.07805,0.40376 5.02473,1.70736 7.11719,1.52352c1.30488,-0.11464 2.16407,-1.58231 3.43058,-1.91668c4.42679,-1.16871 10.01048,1.37853 13.51494,3.75222c2.68309,3.24936 4.5966,7.4169 3.60465,11.7723c-0.46275,2.0318 -1.99323,3.41168 -2.75892,5.22382c-0.28154,0.6663 1.19916,0.81366 1.75364,1.27817c1.17136,0.98129 2.37568,2.55087 2.79601,4.05734c1.29704,4.64864 -1.55839,8.56956 -5.40328,10.56439c-0.14747,1.82699 -0.79303,3.60965 -1.73645,5.34128c-3.92037,7.19574 -12.26353,10.74776 -20.20237,11.31009c-0.51037,0.86469 -1.3826,0.82489 -1.81938,0.73925zM227.4822,173.65286c0,0 0.67308,-1.61538 2.28846,-0.94231c1.61538,0.67308 0.94231,2.28846 0.94231,2.28846c-1.01894,1.81404 0.65635,2.39248 2.27921,3.23493c1.94278,1.00852 4.08502,1.68075 6.1301,2.51678c0.31651,0.03195 0.63154,0.0584 0.9446,0.07942c6.39309,0.00472 14.623,-2.37668 18.34725,-8.03124c1.05166,-1.59675 1.9618,-3.26351 2.19421,-5.03113c-0.10983,-0.14697 -0.20722,-0.32704 -0.28575,-0.54693c-0.26364,-0.73818 -0.07855,-1.2638 0.20618,-1.61919c-0.09261,-0.43575 -0.23453,-0.87776 -0.43272,-1.32643c-0.2759,-0.62457 -0.72571,-1.20101 -1.23717,-1.74194c-1.54095,1.76989 -4.62354,2.33707 -6.63573,2.76175c-3.69702,0.01577 -7.85076,0.51915 -11.48684,-0.31437c-0.9442,-0.21644 -3.22361,-0.9851 -4.0474,-1.48453c-0.42706,-0.2589 -0.59501,-1.05032 -1.09372,-1.02394c-0.36369,0.01924 0.38145,0.74341 0.2205,1.07012c-0.41416,0.84069 -1.04559,1.60823 -1.80827,2.15284c-1.39115,0.99338 -3.30041,0.96741 -4.88585,0.86474c-3.4495,-0.22337 -9.07173,-2.45217 -9.33512,-6.37463c-0.58654,4.62968 0.54184,9.47368 3.64505,13.14108c1.06033,1.2531 2.30704,2.34036 3.67758,3.26923c-0.12363,-0.86085 -0.0202,-1.8337 0.37312,-2.94271zM264.2693,163.67839c0.34429,-0.33067 0.58236,-0.7598 0.82217,-1.17256c0.1098,-0.18901 1.24944,-2.36666 1.29262,-2.9004c0.33745,-4.17156 -5.19372,-4.10986 -4.89598,-8.25323c0.13855,-1.9281 2.38103,-3.75293 2.8365,-5.68725c0.70504,-2.99424 -0.73881,-6.12529 -2.5503,-8.37119c-2.49753,-1.62797 -7.14312,-3.88329 -10.26556,-2.96228c-1.38524,0.40859 -2.40911,1.83132 -3.84346,2.0001c-0.43201,0.05084 -5.45893,-0.93415 -5.77206,-0.99837c-6.26234,-1.28445 -13.90587,-3.80674 -18.22762,2.24312c-0.75993,1.06379 -1.39822,2.22969 -1.86103,3.45238c-0.37207,0.92067 -0.35755,2.12132 -1.11622,2.76202c-1.24013,1.04731 -3.24869,0.46225 -4.74657,1.08766c-1.67188,0.69807 -3.79599,2.10183 -4.98212,3.47446c-1.39066,1.60932 -3.14273,4.55705 -3.19474,6.73452c-0.02552,1.06813 1.68462,1.59866 1.78483,2.66237c0.10238,1.0868 -0.71898,2.06573 -1.18433,3.05319c-1.75752,3.7294 -5.26494,7.77043 -0.84874,10.98776c1.24264,0.40284 3.27474,0.90041 3.95459,2.11999c0.97666,1.75203 -0.851,3.94971 0.24101,5.66755c0.54281,0.85389 2.20027,1.64855 2.88898,2.05434c3.89946,2.29753 8.52345,2.72697 11.41768,-1.36237l0.12441,-0.13141c-2.03084,-1.22913 -3.86632,-2.73554 -5.36825,-4.53349c-6.63762,-7.9459 -5.90367,-20.16122 0.8726,-27.6359l1.91112,-1.0875c0,0 1.56525,-0.78263 2.34788,0.78262c0.78262,1.56525 -0.78262,2.34787 -0.78262,2.34787l-0.88659,0.31136c-1.95813,2.14735 -3.32404,4.80837 -4.03391,7.64151c0.33852,-0.61227 0.9833,-1.05025 1.43825,-1.59625c0,0 1.17068,-1.30077 2.47145,-0.13008c1.30077,1.17069 0.13008,2.47145 0.13008,2.47145c-3.12369,3.01271 4.57999,4.58873 6.81204,4.37595c2.37089,-0.22602 1.11121,-3.17618 3.01515,-3.76463c1.96267,-0.60661 5.41646,1.77464 7.44855,2.24763c3.24842,0.7561 7.03125,0.22836 10.33528,0.24517c1.43202,-0.31301 5.39842,-0.67922 3.70863,-2.55372l-0.53717,0.18352c0,0 -1.62484,-0.64993 -0.9749,-2.27477c0.64993,-1.62483 2.27477,-0.9749 2.27477,-0.9749l2.26054,1.3026c0.02206,0.04595 0.04538,0.09163 0.06974,0.13708c0.30546,0.15663 0.49539,0.34657 0.49539,0.34657c1.47587,1.47587 3.26058,2.89523 4.13429,4.85343c0.18419,0.41281 0.33673,0.8238 0.4597,1.2329c0.19526,-0.11567 0.37339,-0.24425 0.52393,-0.38884z" fill="#9966ff" stroke-width="0.5"/></g></g></svg>