<svg version="1.1" xmlns="http://www.w3.org/2000/svg" xmlns:xlink="http://www.w3.org/1999/xlink" width="97.63874" height="110.85163" viewBox="0,0,97.63874,110.85163"><defs><radialGradient cx="263.15066" cy="176.50096" r="7.3567" gradientUnits="userSpaceOnUse" id="color-1"><stop offset="0" stop-color="#54606d"/><stop offset="1" stop-color="#2c3136"/></radialGradient></defs><g transform="translate(-179.47574,-127.55632)"><g data-paper-data="{&quot;isPaintingLayer&quot;:true}" stroke-miterlimit="10" stroke-dasharray="" stroke-dashoffset="0" style="mix-blend-mode: normal"><path d="M238.51585,202.63438c0.30396,0.68152 0.89551,1.943 1.58685,3.64011c1.31287,3.22285 2.98567,8.01669 3.73239,13.39296l0.03151,0.4111c0.03151,0.4111 0.4909,0.69212 0.91877,0.56202c2.65107,-1.27351 7.90292,-3.52476 8.65662,2.18243c0.78724,5.51001 -14.77315,12.90558 -17.71652,8.14464c-1.06159,-2.10786 -0.08645,-3.66639 0.4588,-4.48659c0.281,-0.45938 0.36485,-0.95231 0.35011,-1.462c-0.19313,-1.25008 -0.61291,-3.55308 -1.21511,-5.37992c-1.44784,-4.60802 -2.16741,-5.74477 -3.31082,-7.96797c-1.14341,-2.2232 -4.01969,-7.37848 -0.2446,-10.48952c3.19834,-2.70196 5.85404,-0.42442 6.752,1.45273z" fill="#ffab19" fill-rule="evenodd" stroke="#001026" stroke-width="1.2" stroke-linecap="round" stroke-linejoin="round"/><path d="M222.62793,207.77317c0.11088,-2.07791 1.69228,-5.19867 5.68139,-3.92706c4.67855,1.42871 3.99511,7.2924 3.78997,9.78397c-0.20514,2.49157 0.36532,3.8172 0.79198,8.62844c0.14309,1.91821 -0.163,4.20645 0.13718,5.43523c0.10105,0.26525 0.99032,10.54547 -7.59827,10.10014c-7.58278,-0.39318 -1.39506,-12.24891 -1.39506,-12.24891c0,0 -1.45847,-10.32156 -1.4795,-13.8015c-0.01108,-1.83249 0.05244,-3.22433 0.07232,-3.9703z" data-paper-data="{&quot;index&quot;:null}" fill="#ffab19" fill-rule="evenodd" stroke="#001026" stroke-width="1.2" stroke-linecap="round" stroke-linejoin="round"/><g fill-rule="evenodd"><path d="M222.24438,202.03634c0.83863,0.31098 2.62612,1.02151 0.60859,4.6615c-2.01753,3.64 -8.80108,5.0834 -9.59638,5.17007c-3.07092,0.43525 -6.84856,0.84693 -11.17551,-0.08982c-12.56154,-2.65475 -14.08016,-15.66682 -10.43062,-18.17697c3.55013,-2.49932 6.11765,5.36884 12.11612,9.64415c2.62421,1.92704 5.59381,2.40816 8.03386,2.64521c3.44499,0.22813 9.49506,-4.2537 10.44393,-3.85414z" fill="#ffab19" stroke="#001026" stroke-width="1.2" stroke-linecap="round" stroke-linejoin="round"/><path d="M196.71283,196.67075c1.88309,2.51077 5.37652,5.95256 5.37652,5.95256c0,0 -3.77573,-0.49386 -5.67919,1.42364c-1.54916,1.47652 -0.91317,3.62024 -0.63851,4.29445c-1.43319,-1.15151 -3.21877,-2.76758 -4.59207,-6.13864c-1.37329,-3.37106 -0.83419,-7.65468 1.08904,-8.46782c1.94489,-0.61432 2.60446,0.82268 4.44421,2.93581z" fill="#ffffff" stroke="none" stroke-width="1" stroke-linecap="butt" stroke-linejoin="miter"/></g><path d="M241.66321,190.06152c0.54039,0.34348 7.38451,6.84025 9.17773,4.83417c2.15837,-2.34765 4.99477,-6.78103 8.93109,-3.89046c3.93632,2.89057 -2.21697,9.19429 -4.9374,10.99964c-6.52355,3.82928 -12.72977,-1.42932 -14.09605,-2.8899c-1.36628,-1.46058 -3.74642,-3.91718 -4.0281,-6.50188c-0.20393,-2.79435 3.10022,-3.85858 4.95272,-2.55158z" fill="#ffab19" fill-rule="evenodd" stroke="#001026" stroke-width="1.2" stroke-linecap="round" stroke-linejoin="round"/><g fill-rule="evenodd"><path d="M225.27028,209.08688c-11.03496,-4.40108 -6.00722,-10.2817 -5.35672,-15.75041c0.73454,-4.74558 2.05736,-4.42914 8.05832,-5.62437c3.33144,-0.8435 5.29338,-1.33426 7.28643,-2.27114c3.00877,-1.35915 4.29737,3.30342 4.42603,5.95736c0,0 0.12763,3.95395 -0.34339,6.20742c-0.59449,2.73799 -1.12672,4.58373 -1.88929,5.87543c0,0 -1.63835,2.77659 -3.76459,3.75506c-1.91126,0.87954 -8.4168,1.85065 -8.4168,1.85065z" fill="#ffab19" stroke="#001026" stroke-width="1.2" stroke-linecap="round" stroke-linejoin="round"/><path d="M236.58223,203.73432c0,0 -1.84573,-0.53223 -3.89897,-1.3031c-2.53775,-0.89432 -4.96034,-1.51163 -4.3036,-5.14188c0.74078,-2.9071 1.0821,-6.51452 6.35057,-5.56419c5.00703,0.84245 4.2123,3.88026 4.2123,3.88026c-0.30397,4.99976 -2.36031,8.12889 -2.36031,8.12889z" fill="#ffffff" stroke="none" stroke-width="1" stroke-linecap="butt" stroke-linejoin="miter"/></g><g fill-rule="evenodd"><path d="M243.79914,131.33053c0.30311,-0.19525 0.80148,-0.08738 0.89516,0.31414l2.4311,10.73964c0,0 6.32516,4.80025 8.17293,8.12977c3.11295,5.54973 3.14204,10.05075 3.14204,10.05075c0,0 7.06603,2.2116 8.17608,7.9298c1.11005,5.7182 -3.45956,16.44754 -22.31552,19.85088c-18.85596,3.40334 -33.87374,-1.93392 -40.79325,-13.44437c-6.91951,-11.51045 4.49337,-24.9323 3.88084,-24.14185c0,0 -0.78424,-15.95649 -0.38744,-15.75021l11.35153,5.42167c0,0 4.52623,-1.62889 9.22879,-1.75482c2.8028,-0.15586 5.19935,0.08193 7.49277,0.51811z" fill="#ffab19" stroke="#001026" stroke-width="1.2" stroke-linecap="butt" stroke-linejoin="miter"/><path d="M258.1341,160.96005c0,0 6.87078,1.90849 7.98083,7.62669c1.11005,5.7182 -3.85163,15.9413 -22.50604,19.2478c-24.27577,4.61811 -35.54747,-9.96129 -28.6813,-20.45442c6.86775,-10.59311 18.22295,-1.31306 26.63136,-1.78064c7.20698,-0.3865 8.10614,-6.67312 16.57515,-4.63943z" fill="#ffffff" stroke="none" stroke-width="1" stroke-linecap="butt" stroke-linejoin="miter"/><path d="M276.51449,162.34981c-4.75929,3.72548 -11.95997,3.71203 -11.95997,3.71203" fill="none" stroke="#001026" stroke-width="1.2" stroke-linecap="round" stroke-linejoin="round"/><path d="M275.03819,173.52794c-6.3071,0.40068 -10.17668,-1.56053 -10.17668,-1.56053" fill="none" stroke="#001026" stroke-width="1.2" stroke-linecap="round" stroke-linejoin="round"/><path d="M241.19996,162.9935c2.09974,0.03309 4.29632,0.26772 4.38527,0.96921c0.07793,1.4014 -1.466,4.17742 -3.06737,4.2522c-1.80293,0.17162 -5.96302,-2.39425 -5.93781,-3.99405c-0.08108,-1.20143 2.62016,-1.25888 4.61991,-1.22737z" fill="#001026" stroke="#001026" stroke-width="1.2" stroke-linecap="round" stroke-linejoin="round"/><path d="M196.22918,160.78471c0,0 8.55482,2.93515 12.00554,6.0899" fill="none" stroke="#001026" stroke-width="1.2" stroke-linecap="round" stroke-linejoin="round"/><path d="M208.47954,170.37891c-4.32625,1.63204 -11.708,0.41559 -11.708,0.41559" fill="none" stroke="#001026" stroke-width="1.2" stroke-linecap="round" stroke-linejoin="round"/><g><path d="M253.18283,151.48087c2.82874,4.54513 2.84838,9.64607 0.02037,11.40174c-2.82801,1.75566 -7.39435,-0.41655 -10.32308,-4.96326c-2.82874,-4.54513 -2.84838,-9.64607 -0.02037,-11.40174c2.82959,-1.85565 7.49434,0.41813 10.32308,4.96326z" fill="#ffffff" stroke="#001026" stroke-width="1.2" stroke-linecap="round" stroke-linejoin="round"/><path d="M253.44298,157.18567c-0.01733,1.09986 -0.83141,1.98715 -1.83129,1.97139c-0.99988,-0.01576 -1.7856,-0.92825 -1.76827,-2.02811c0.01733,-1.09986 0.83141,-1.98715 1.83129,-1.97139c0.99988,0.01576 1.7856,0.92825 1.76827,2.02811" fill="#001026" stroke="none" stroke-width="1" stroke-linecap="butt" stroke-linejoin="miter"/></g><g><path d="M228.34179,153.88979c2.93031,4.44672 2.64525,9.8429 -0.08435,11.70012c-3.32953,1.84777 -7.70692,0.37862 -10.63723,-4.0681c-3.03029,-4.44829 -3.14046,-10.15074 -0.00619,-12.30162c3.13585,-2.25087 7.79746,0.22288 10.72776,4.6696z" fill="#ffffff" stroke="#001026" stroke-width="1.2" stroke-linecap="round" stroke-linejoin="round"/><path d="M228.15043,159.6875c-0.01733,1.09986 -0.83141,1.98715 -1.83129,1.97139c-0.99988,-0.01576 -1.7856,-0.92825 -1.76827,-2.02811c0.01733,-1.09986 0.83141,-1.98715 1.83129,-1.97139c0.9983,0.11574 1.7856,0.92825 1.76827,2.02811" fill="#001026" stroke="none" stroke-width="1" stroke-linecap="butt" stroke-linejoin="miter"/></g></g><g fill-rule="nonzero" stroke="#001026" stroke-width="1.2" stroke-linejoin="miter"><g><path d="M249.55731,200.56292l4.10458,-21.80054l12.49206,4.31749l-9.51698,19.13836c0,0 -2.44146,0.98399 -3.58467,0.71669c-1.21258,-0.28352 -3.49497,-2.372 -3.49497,-2.372z" fill="#505a63" stroke-linecap="butt"/><path d="M253.40283,177.22165c1.32721,-3.84011 5.51615,-5.87721 9.35626,-4.55c3.84011,1.32721 5.87721,5.51616 4.55,9.35626c-1.32721,3.84011 -5.51616,5.87722 -9.35627,4.55c-3.84011,-1.32721 -5.8772,-5.51616 -4.54999,-9.35627z" fill="url(#color-1)" stroke-linecap="butt"/><path d="M255.3397,184.54858c0,0 0.62612,-4.58986 1.30789,-6.63754c0.63719,-1.91377 2.65803,-5.27399 2.65803,-5.27399" fill="none" stroke-linecap="round"/><path d="M261.85807,186.65051c0,0 0.66217,-5.71918 1.19032,-7.8875c0.39024,-1.60209 1.692,-3.94573 1.692,-3.94573" fill="none" stroke-linecap="round"/><path d="M253.20541,177.62262c0,0 4.9315,-0.95782 7.44513,-0.67526c2.18683,0.24581 6.79326,2.27577 6.79326,2.27577" fill="none" stroke-linecap="round"/><path d="M253.41544,183.12883c0,0 5.48801,-0.70648 7.94755,-0.67939c1.91193,0.02106 5.58502,0.82848 5.58502,0.82848" fill="none" stroke-linecap="round"/></g><path d="M261.75717,196.52031c-0.87744,2.56367 -3.73007,4.18075 -6.37155,3.61186c-2.64148,-0.56888 -4.52525,-2.45137 -3.64781,-5.01504c0.87744,-2.56367 4.18381,-4.8377 6.82527,-4.26881c2.64148,0.56888 4.07151,3.10831 3.19407,5.67199z" fill="#ffab19" stroke-linecap="butt"/></g><g fill-rule="nonzero" stroke="#001026" stroke-width="1.2" stroke-linecap="butt" stroke-linejoin="miter"><path d="M221.69138,145.90897c-1.84131,4.19122 -22.43216,10.17047 -22.43216,10.17047c0,0 -2.84413,-0.42815 -4.17603,-0.70059c-9.97502,-2.04032 -16.38058,-6.15208 -14.75616,-9.84959c1.84131,-4.19122 13.30292,-6.26305 25.60019,-4.62757c12.29728,1.63548 17.60548,0.81604 15.76416,5.00727z" fill="#00b0f7"/><path d="M206.87353,139.91055l-11.32633,-4.88209c0,0 15.04352,-4.89578 23.12144,-5.9095c9.76974,-1.22604 31.39254,-0.93166 31.39254,-0.93166l-15.75539,16.31499z" fill="#ff2b2b"/><path d="M196.66523,156.76672c0,0 -2.15707,-7.60506 -2.36155,-11.21157c-0.19836,-3.49882 1.15246,-10.11418 1.15246,-10.11418l26.45068,-1.49965c0,0 -0.21121,7.69032 -0.00395,11.34568c0.19504,3.44015 1.21305,9.98005 1.21305,9.98005z" data-paper-data="{&quot;index&quot;:null}" fill="#cc0000"/><path d="M222.6943,155.22583c0,0 -0.4173,-6.62125 -1.04254,-10.00972c-0.66436,-3.60045 -2.83341,-10.99567 -2.83341,-10.99567l31.89708,-5.88571c0,0 3.25922,6.03709 3.89513,9.48335c0.65549,3.55231 -0.01917,11.52203 -0.01917,11.52203z" fill="#f70000"/></g><path d="M221.89338,200.29473c-0.44261,4.11077 1.44944,7.93832 0.03296,10.04539c-0.92445,1.37517 -2.44217,2.33715 -3.46065,2.22749c-1.13517,-0.12222 -2.94473,-1.65294 -3.56306,-3.51403c-0.78649,-2.36723 -2.75835,-5.96104 -2.34884,-9.76445c0.36124,-3.35505 3.16369,-6.70121 4.22945,-8.83139c1.09229,-2.1832 3.02594,-2.63254 4.33132,-2.492c1.40931,0.15174 2.80547,1.19592 3.38172,3.88836c0.4783,2.23476 -2.27113,5.35935 -2.6029,8.44063z" fill="#ffab19" fill-rule="nonzero" stroke="#001026" stroke-width="1.2" stroke-linecap="butt" stroke-linejoin="miter"/><path d="M241.02517,178.71485c0,-1.79493 1.17525,-3.25 2.625,-3.25c1.44975,0 2.625,1.45507 2.625,3.25c0,1.79493 -1.17525,3.25 -2.625,3.25c-1.44975,0 -2.625,-1.45507 -2.625,-3.25z" fill="none" fill-rule="nonzero" stroke="#001026" stroke-width="1.2" stroke-linecap="butt" stroke-linejoin="miter"/></g></g></svg>