<svg version="1.1" xmlns="http://www.w3.org/2000/svg" xmlns:xlink="http://www.w3.org/1999/xlink" width="162.79379" height="70.44094" viewBox="0,0,162.79379,70.44094"><g transform="translate(-290.78783,-317.52676)"><g data-paper-data="{&quot;isPaintingLayer&quot;:true}" fill="#000000" fill-rule="nonzero" stroke="none" stroke-width="0.5" stroke-linecap="butt" stroke-linejoin="miter" stroke-miterlimit="10" stroke-dasharray="" stroke-dashoffset="0" style="mix-blend-mode: normal"><path d="M402.07353,377.63685c0,-0.17506 0.0257,-0.34411 0.07354,-0.50359c-0.5844,0.06301 -1.16976,0.12694 -1.75618,0.19209c-2.16487,0.00269 -4.91546,0.40979 -6.8666,-0.82728c-5.65773,-3.58714 -6.45076,-14.81993 -6.45076,-20.92004v-0.58824c0,0 0,-1.75 1.75,-1.75c1.58475,0 1.7344,1.4351 1.74853,1.70613c2.62235,-1.5594 5.27829,-2.83243 8.21779,-3.94484c1.6531,-0.62559 3.34358,-1.84024 5.2712,-0.78952c3.05268,1.66398 4.15709,8.03247 5.93857,10.88783c0.40345,0.64664 0.66141,2.19331 1.3424,1.851c1.67876,-0.84386 2.87748,-2.42402 4.41264,-3.50735c3.47805,-2.45439 7.09761,-4.73255 10.63973,-7.09386c6.17266,-3.96803 12.64966,-8.3203 19.36191,-11.30993c0.29177,-0.12995 1.13961,-0.36183 2.1521,-0.58519c-0.35595,-1.97186 -1.04892,-3.83244 -2.27624,-5.31722c-2.85958,-3.45947 -6.82938,-5.50155 -10.79465,-7.36614c-4.10427,-1.92995 -8.23654,-3.99425 -12.62998,-5.20466c-7.20444,-1.98486 -14.80577,-1.41434 -22.18575,-1.41463c-7.70857,0.19225 -15.43443,0.58589 -23.14391,0.58941c-9.85889,0.0045 -19.91431,-0.35579 -29.69803,1.13821c-5.67282,0.86626 -11.13867,2.74706 -16.62579,4.35896c-7.80141,2.92505 -16.36834,5.75684 -22.8,11.29543c-0.77039,0.66342 -1.51886,1.41729 -2.24191,2.2296c1.09424,0.3265 2.07944,1.16513 3.28506,1.81806c4.75648,2.57598 9.82307,4.69869 14.74536,6.93645c5.34851,2.23515 10.50678,4.93538 15.74393,7.4239c1.52798,0.72604 3.90473,2.03147 5.706,1.40287c1.17933,-0.41155 1.26931,-1.95952 1.62321,-2.84095c0.94798,-2.36102 1.96956,-6.77656 5.41578,-6.67512c0.996,0.02932 5.73791,2.56637 6.91539,3.09217c2.92306,1.30528 10.2608,2.04466 10.72654,6.05604c0.16318,1.40541 -0.73471,2.73265 -1.10207,4.09897c-1.1154,3.76249 -2.26407,10.11611 -4.90648,13.19017c-2.54381,2.95936 -8.31674,2.93977 -11.90017,2.94479c-0.88173,0.00123 -1.75731,-0.02973 -2.62751,-0.08905c0.56179,0.79536 0.07511,1.76873 0.07511,1.76873c-0.29412,0.58824 -0.58824,1.17647 -0.88235,1.76471l-3.03584,0.96738c0,0 -1.75,0 -1.75,-1.75c0,-1.75 1.75,-1.75 1.75,-1.75l-0.09466,0.96738c0.29412,-0.58824 0.58824,-1.17647 0.88235,-1.76471c0,0 0.11737,-0.23474 0.3521,-0.47695c-8.74043,-1.16165 -17.00536,-4.84218 -25.58711,-7.01877c-5.32801,-1.19112 -10.77731,-1.55187 -16.1762,-2.31209c-0.06295,0.51736 -0.34399,1.16558 -1.30498,1.40583c-1.69775,0.42444 -2.12219,-1.27331 -2.12219,-1.27331c-1.48573,-6.07093 -0.64555,-13.0172 -0.64049,-19.24797c0.00039,-0.47857 -0.01548,-1.15255 -0.00834,-1.90984c-0.36218,0.57117 -0.7107,1.13354 -1.04469,1.67903c-3.14599,5.13824 -5.67483,9.37673 -3.49351,15.221c0,0 0.59805,1.64464 -1.04659,2.24269c-0.28209,0.10258 -0.53338,0.13918 -0.75615,0.12941c-0.05027,1.74601 0.02096,3.49295 0.62784,5.03196c4.90882,12.44839 19.51222,10.70236 30.44601,12.01178c7.81893,0.93967 15.72,0.60868 23.58425,0.60868c15.24259,0 30.4116,-0.86611 45.48262,-3.29203c10.42415,-1.67669 21.83723,-2.67543 31.73576,-6.90796c-6.92165,1.16917 -13.79061,1.8482 -20.77286,2.57725c0.13782,0.25012 0.21624,0.53757 0.21624,0.84333c0,0.9665 -0.7835,1.75 -1.75,1.75c-0.9665,0 -1.75,-0.7835 -1.75,-1.75zM452.78795,340.04071c1.21336,1.25868 0.77278,4.52808 0.3898,6.21628c-1.31709,5.80576 -3.02521,11.84232 -5.36551,17.29589c-0.46908,1.41019 -0.5003,3.04955 -1.39875,4.23339c-1.75172,2.30815 -5.94248,3.49592 -9.53402,4.28355c-11.89254,9.01483 -27.69321,10.22017 -41.92926,12.50999c-15.25559,2.45203 -30.60914,3.33644 -46.03844,3.33644c-8.00651,0 -16.04008,0.31941 -24.00105,-0.63358c-12.48354,-1.49961 -27.8581,-0.09441 -33.31386,-14.27814c-1.21716,-3.16435 -0.69979,-6.74806 -0.69979,-10.07357v-1.76471c0,0 0,-1.10919 0.88306,-1.56145c0.15609,-4.24294 2.1713,-8.00122 4.78565,-12.26298c2.38959,-3.89535 5.43632,-8.45205 8.89924,-11.4561c6.76082,-5.86493 15.75019,-8.89041 23.98092,-11.96769c5.67836,-1.67208 11.33398,-3.60228 17.20556,-4.49889c9.96049,-1.521 20.18731,-1.17464 30.22492,-1.17832c7.69532,-0.00282 15.40732,-0.39792 23.10179,-0.58914c4.51881,-0.00017 9.14448,-0.28289 13.6536,0.00286c8.1736,0.51797 15.38263,3.50563 22.69589,6.94925c4.45437,2.09744 8.90377,4.46286 12.06992,8.38779c1.59356,1.97546 2.48583,4.37835 2.93166,6.90311c0.73343,-0.05756 1.29015,-0.02879 1.45865,0.14601z"/></g></g></svg>