<svg version="1.1" xmlns="http://www.w3.org/2000/svg" xmlns:xlink="http://www.w3.org/1999/xlink" width="103.10881" height="111.80013" viewBox="0,0,103.10881,111.80013"><defs><radialGradient cx="255.98673" cy="175.02835" r="7.73681" gradientUnits="userSpaceOnUse" id="color-1"><stop offset="0" stop-color="#54606d"/><stop offset="1" stop-color="#2c3136"/></radialGradient></defs><g transform="translate(-174.50719,-127.30683)"><g data-paper-data="{&quot;isPaintingLayer&quot;:true}" stroke-miterlimit="10" stroke-dasharray="" stroke-dashoffset="0" style="mix-blend-mode: normal"><path d="M238.59281,203.18672c0.33144,0.67533 0.97535,1.92487 1.73174,3.60764c1.4364,3.19562 3.27852,7.95356 4.15695,13.30816l0.04026,0.40986c0.04026,0.40986 0.5282,0.68283 0.97585,0.54592c2.76559,-1.31494 8.249,-3.64871 9.14051,2.03611c0.92335,5.48745 -15.31055,13.12627 -18.48813,8.42209c-1.15283,-2.08671 -0.15448,-3.65858 0.40464,-4.48633c0.28751,-0.4632 0.36714,-0.95666 0.3428,-1.46521c-0.22476,-1.24472 -0.7061,-3.5368 -1.37102,-5.35053c-1.60236,-4.57615 -2.3787,-5.69907 -3.61959,-7.89957c-1.24087,-2.2005 -4.35475,-7.29945 -0.43911,-10.4672c3.31627,-2.7499 6.14831,-0.52005 7.12509,1.33904z" fill="#ffab19" fill-rule="evenodd" stroke="#001026" stroke-width="1.2" stroke-linecap="round" stroke-linejoin="round"/><path d="M221.97539,208.57811c0.08056,-2.07611 1.68932,-5.21746 5.90602,-4.01375c4.94439,1.3492 4.32742,7.21391 4.15491,9.70452c-0.17251,2.49059 0.45034,3.80454 0.98242,8.60036c0.18373,1.91251 -0.09845,4.20181 0.2385,5.4235c0.11086,0.26313 1.22422,10.51079 -7.81463,10.20762c-7.9803,-0.26766 -1.67935,-12.20458 -1.67935,-12.20458c0,0 -1.71261,-10.27955 -1.79506,-13.75308c-0.04342,-1.82911 -0.00077,-3.21957 0.00719,-3.96457z" data-paper-data="{&quot;index&quot;:null}" fill="#ffab19" fill-rule="evenodd" stroke="#001026" stroke-width="1.2" stroke-linecap="round" stroke-linejoin="round"/><g fill-rule="evenodd"><path d="M219.30945,201.00835c0.92656,-0.12905 2.92341,-0.36183 2.71126,3.83789c-0.21216,4.19973 -5.88735,8.75239 -6.59067,9.21298c-2.66946,1.86763 -6.0101,4.05537 -10.48382,5.31305c-12.95788,3.70854 -20.35766,-7.09146 -18.10124,-11.07731c2.16852,-3.92828 8.18411,1.80646 15.75423,2.70121c3.33783,0.44167 6.33381,-0.56486 8.72278,-1.53218c3.3239,-1.46017 6.91718,-8.3519 7.98747,-8.45564z" fill="#ffab19" stroke="#001026" stroke-width="1.2" stroke-linecap="round" stroke-linejoin="round"/><path d="M192.98623,208.57281c2.91362,1.31667 7.75988,2.68145 7.75988,2.68145c0,0 -3.75508,1.38425 -4.65236,4.00224c-0.7689,2.0562 0.8107,3.64933 1.37723,4.11433c-1.86846,-0.32902 -4.27974,-0.89976 -7.11241,-3.2249c-2.83267,-2.32516 -4.29782,-6.38193 -2.87448,-8.03067c1.53498,-1.48298 2.81177,-0.52761 5.50211,0.45754z" fill="#ffffff" stroke="none" stroke-width="1" stroke-linecap="butt" stroke-linejoin="miter"/></g><path d="M241.68432,190.58397c0.57419,0.33398 7.88362,6.70676 9.73444,4.67465c2.22887,-2.37909 5.13454,-6.85144 9.3238,-4.03071c4.18927,2.82072 -2.17176,9.21476 -5.00105,11.06174c-6.79327,3.93 -13.41047,-1.21726 -14.87247,-2.65279c-1.46201,-1.43554 -4.00739,-3.84868 -4.3484,-6.42423c-0.2629,-2.78612 3.19304,-3.90289 5.16366,-2.62867z" fill="#ffab19" fill-rule="evenodd" stroke="#001026" stroke-width="1.2" stroke-linecap="round" stroke-linejoin="round"/><g fill-rule="evenodd"><path d="M224.77666,209.84603c-11.67986,-4.21174 -6.49504,-10.16487 -5.90585,-15.63476c0.69009,-4.7494 2.08656,-4.45528 8.37599,-5.74722c3.48847,-0.89688 5.54298,-1.41908 7.62248,-2.38713c3.14023,-1.40632 4.57608,3.22691 4.75739,5.87411c0,0 0.20277,3.94495 -0.25344,6.20225c-0.57764,2.743 -1.10528,4.59429 -1.88475,5.89628c0,0 -1.67461,2.79872 -3.89344,3.81048c-1.99449,0.90948 -8.81838,1.98598 -8.81838,1.98598z" fill="#ffab19" stroke="#001026" stroke-width="1.2" stroke-linecap="round" stroke-linejoin="round"/><path d="M236.57864,204.31658c0,0 -1.95007,-0.50091 -4.12246,-1.23663c-2.68401,-0.85098 -5.24214,-1.42733 -4.61451,-5.06207c0.72853,-2.91423 1.02488,-6.52098 6.5813,-5.65903c5.27962,0.75855 4.49663,3.80415 4.49663,3.80415c-0.23293,4.99604 -2.34096,8.15357 -2.34096,8.15357z" fill="#ffffff" stroke="none" stroke-width="1" stroke-linecap="butt" stroke-linejoin="miter"/></g><g fill-rule="evenodd"><path d="M245.72999,133.95804c0.3359,-0.1635 0.84729,-0.00604 0.90704,0.40247l1.52034,10.91916c0,0 6.16298,5.40862 7.77955,8.9041c2.72911,5.82969 2.33021,10.30615 2.33021,10.30615c0,0 7.18543,2.91047 7.80192,8.70568c0.6165,5.79519 -5.19019,15.99832 -25.25234,17.47989c-20.06216,1.48156 -35.27292,-5.33717 -41.41799,-17.47493c-6.14505,-12.13778 7.08168,-24.32705 6.36511,-23.60319c0,0 0.70116,-15.93812 1.09682,-15.6931l11.36507,6.533c0,0 4.89322,-1.16262 9.82764,-0.81369c2.94871,0.12766 5.43461,0.60562 7.79365,1.27034z" fill="#ffab19" stroke="#001026" stroke-width="1.2" stroke-linecap="butt" stroke-linejoin="miter"/><path d="M257.90886,164.85185c0,0 7.00996,2.58954 7.62645,8.38473c0.6165,5.79519 -5.55231,15.45565 -25.39424,16.86129c-25.85122,2.1425 -36.25919,-13.48426 -28.07111,-23.22109c8.19927,-9.83604 19.20016,0.53214 28.04628,0.91512c7.5808,0.34246 9.12166,-5.81514 17.79262,-2.94005z" fill="#ffffff" stroke="none" stroke-width="1" stroke-linecap="butt" stroke-linejoin="miter"/><path d="M277.016,168.08619c-5.33715,3.22291 -12.8732,2.4836 -12.8732,2.4836" fill="none" stroke="#001026" stroke-width="1.2" stroke-linecap="round" stroke-linejoin="round"/><path d="M274.40443,179.04722c-6.6402,-0.23764 -10.50361,-2.57698 -10.50361,-2.57698" fill="none" stroke="#001026" stroke-width="1.2" stroke-linecap="round" stroke-linejoin="round"/><path d="M239.98904,165.16565c2.19475,0.24457 4.47165,0.69922 4.49784,1.4054c-0.0521,1.4007 -1.93301,4.00411 -3.61638,3.91699c-1.9036,-0.01119 -6.01343,-2.9808 -5.83442,-4.5683c0.02973,-1.20227 2.86274,-0.98703 4.95296,-0.75411z" fill="#001026" stroke="#001026" stroke-width="1.2" stroke-linecap="round" stroke-linejoin="round"/><path d="M193.12648,158.43652c0,0 8.6748,3.7797 11.98592,7.26307" fill="none" stroke="#001026" stroke-width="1.2" stroke-linecap="round" stroke-linejoin="round"/><path d="M205.0344,169.20717c-4.68419,1.18592 -12.29501,-0.76731 -12.29501,-0.76731" fill="none" stroke="#001026" stroke-width="1.2" stroke-linecap="round" stroke-linejoin="round"/><g fill="#001026" stroke="none" stroke-width="1" stroke-linecap="butt" stroke-linejoin="miter"><path d="M253.35844,160.62758c-0.12304,1.09139 -1.05983,1.89119 -2.10495,1.77473c-1.04512,-0.11647 -1.78053,-1.1026 -1.65748,-2.194c0.12304,-1.09139 1.05983,-1.89119 2.10495,-1.77473c1.04512,0.11647 1.78053,1.1026 1.65748,2.194"/></g><g fill="#001026" stroke="none" stroke-width="1" stroke-linecap="butt" stroke-linejoin="miter"><path d="M226.64478,160.56421c-0.12304,1.09139 -1.05983,1.89119 -2.10495,1.77473c-1.04512,-0.11647 -1.78053,-1.1026 -1.65748,-2.194c0.12304,-1.09139 1.05983,-1.89119 2.10495,-1.77473c1.03393,0.21568 1.78053,1.1026 1.65748,2.194"/></g></g><g fill-rule="nonzero" stroke="#001026" stroke-width="1.2" stroke-linejoin="miter"><g><path d="M253.28057,202.79029l-5.37431,-21.52538l13.74534,-1.61463l-0.91826,21.50923c0,0 -1.90781,1.96827 -3.11128,2.23161c-1.27648,0.27931 -4.34147,-0.60082 -4.34147,-0.60082z" fill="#505a63" stroke-linecap="butt"/><path d="M247.00305,179.98623c-0.37081,-4.05855 2.75394,-7.75103 6.9793,-8.24738c4.22537,-0.49635 7.95131,2.39139 8.32211,6.44994c0.37081,4.05855 -2.75394,7.75104 -6.97931,8.24738c-4.22537,0.49635 -7.9513,-2.3914 -8.32211,-6.44995z" fill="url(#color-1)" stroke-linecap="butt"/><path d="M251.97014,185.75562c0,0 -1.35839,-4.42676 -1.58085,-6.57946c-0.2079,-2.01193 0.28681,-5.94297 0.28681,-5.94297" fill="none" stroke-linecap="round"/><path d="M259.07817,184.77662c0,0 -1.80509,-5.46384 -2.22536,-7.65776c-0.3105,-1.62101 -0.06812,-4.31519 -0.06812,-4.31519" fill="none" stroke-linecap="round"/><path d="M246.98568,180.436c0,0 4.29223,-3.04463 6.80834,-3.89956c2.18898,-0.7438 7.44408,-0.94324 7.44408,-0.94324" fill="none" stroke-linecap="round"/><path d="M249.53135,185.32194c0,0 4.92969,-3.0632 7.28543,-4.12524c1.83124,-0.82558 5.676,-1.71814 5.676,-1.71814" fill="none" stroke-linecap="round"/></g><path d="M263.18627,193.74551c0.25576,2.70569 -1.77427,5.42806 -4.5342,6.08057c-2.75992,0.65252 -5.35725,-0.21745 -5.61301,-2.92315c-0.25576,-2.70569 1.92689,-6.22252 4.68679,-6.87503c2.75992,-0.65252 5.20462,1.0119 5.46038,3.71761z" fill="#ffab19" stroke-linecap="butt"/></g><g fill-rule="nonzero" stroke="#001026" stroke-width="1.2" stroke-linecap="butt" stroke-linejoin="miter"><path d="M218.83587,146.40153c-1.81735,4.23408 -23.29529,10.77405 -23.29529,10.77405c0,0 -3.00209,-0.34819 -4.40998,-0.58307c-10.54421,-1.75887 -17.3944,-5.68433 -15.79112,-9.41965c1.81735,-4.23408 13.80823,-6.62052 26.78233,-5.33026c12.97413,1.29027 18.5314,0.32484 16.71404,4.55893z" fill="#00b0f7"/><path d="M203.08868,140.8271l-12.04507,-4.5574c0,0 15.67673,-5.30438 24.14026,-6.54071c10.23615,-1.49529 32.97615,-1.80278 32.97615,-1.80278l-16.10256,16.72067z" fill="#ff2b2b"/><path d="M192.83298,157.93362c0,0 -2.4825,-7.52994 -2.79934,-11.1236c-0.30735,-3.48634 0.92588,-10.1261 0.92588,-10.1261l27.76482,-2.23222c0,0 -0.00481,7.6809 0.31631,11.32322c0.30221,3.42788 1.55716,9.92646 1.55716,9.92646z" data-paper-data="{&quot;index&quot;:null}" fill="#cc0000"/><path d="M220.15338,155.67196c0,0 -0.62571,-6.59647 -1.37875,-9.96081c-0.80012,-3.57481 -3.28928,-10.895 -3.28928,-10.895l33.36661,-6.76101c0,0 3.59687,5.93445 4.36275,9.35615c0.78944,3.52702 0.30529,11.49964 0.30529,11.49964z" fill="#f70000"/></g><path d="M221.07329,201.1248c-0.39414,4.11089 1.66178,7.90062 0.20886,10.02733c-0.94824,1.388 -2.52747,2.37327 -3.60034,2.28058c-1.19578,-0.10332 -3.12513,-1.60159 -3.80759,-3.44925c-0.86807,-2.35016 -3.00385,-5.90524 -2.6392,-9.70876c0.32167,-3.35514 3.21049,-6.74161 4.29423,-8.88562c1.11071,-2.19737 3.1362,-2.67776 4.51128,-2.55896c1.48455,0.12827 2.97076,1.14765 3.6234,3.82591c0.54169,2.22299 -2.29521,5.38739 -2.59065,8.46876z" fill="#ffab19" fill-rule="nonzero" stroke="#001026" stroke-width="1.2" stroke-linecap="butt" stroke-linejoin="miter"/><path d="M238.33859,179.34149c-0.10106,0.89015 -3.63186,1.22502 -7.88624,0.74793c-4.25439,-0.47709 -7.62133,-1.58547 -7.52027,-2.47563c0.10106,-0.89015 3.63186,-1.22502 7.88624,-0.74793c4.25439,0.47709 7.62133,1.58547 7.52027,2.47563z" fill="none" fill-rule="nonzero" stroke="#001026" stroke-width="1.2" stroke-linecap="butt" stroke-linejoin="miter"/></g></g></svg>