<svg version="1.1" xmlns="http://www.w3.org/2000/svg" xmlns:xlink="http://www.w3.org/1999/xlink" width="131.17568" height="151.56728" viewBox="0,0,131.17568,151.56728"><defs><linearGradient x1="190.35142" y1="148.81557" x2="197.16612" y2="194.47836" gradientUnits="userSpaceOnUse" id="color-1"><stop offset="0" stop-color="#cc2981"/><stop offset="1" stop-color="#a92292"/></linearGradient><linearGradient x1="301.95276" y1="142.54438" x2="296.78093" y2="188.41004" gradientUnits="userSpaceOnUse" id="color-2"><stop offset="0" stop-color="#cc2981"/><stop offset="1" stop-color="#a92292"/></linearGradient><radialGradient cx="229.24994" cy="206.67233" r="5.10605" gradientUnits="userSpaceOnUse" id="color-3"><stop offset="0" stop-color="#54606d"/><stop offset="1" stop-color="#2c3136"/></radialGradient><linearGradient x1="279.37407" y1="213.85986" x2="279.37407" y2="237.25974" gradientUnits="userSpaceOnUse" id="color-4"><stop offset="0" stop-color="#9966ff"/><stop offset="1" stop-color="#66ebff"/></linearGradient><linearGradient x1="309.929" y1="209.73873" x2="309.929" y2="237.33109" gradientUnits="userSpaceOnUse" id="color-5"><stop offset="0" stop-color="#9966ff"/><stop offset="1" stop-color="#66ebff"/></linearGradient></defs><g transform="translate(-182.68648,-86.85256)"><g data-paper-data="{&quot;isPaintingLayer&quot;:true}" fill-rule="nonzero" stroke-miterlimit="10" stroke-dasharray="" stroke-dashoffset="0" style="mix-blend-mode: normal"><g data-paper-data="{&quot;index&quot;:null}" stroke="#000000" stroke-width="0.90024" stroke-linecap="round" stroke-linejoin="miter"><path d="M282.08207,161.86717c0,0 3.07421,-13.09101 3.28634,-13.74679c0.21208,-0.65565 1.28719,-6.40984 10.11906,-12.91751c0,0 8.98532,29.93786 -1.91362,43.73654c-0.00044,-0.00079 -2.96942,-8.35353 -11.49178,-17.07223zM282.2602,162.05171c-0.68647,-0.7307 -2.15879,-1.882 -2.15879,-1.882M294.04696,181.3503c0,0 -0.17482,-1.57246 -0.47357,-2.41166" fill="#be1e2d"/><path d="M296.91711,171.68203c0,0 -2.04953,-0.30177 -4.22492,-3.74462c-1.35302,-2.13366 -2.63517,-6.66057 -2.63517,-6.66057l-0.00751,0.17041c0.22682,-1.04309 0.42038,-2.22355 0.50593,-3.45067c0.14652,-2.07672 0.03064,-5.01114 -0.1658,-7.85973l-0.0085,-0.40236c0,0 0.55363,-5.64594 6.23887,-9.37332l0.08962,-0.00039c1.04334,4.72414 2.36649,11.76404 2.39818,17.04102c0.03573,5.91936 -1.0384,10.80843 -2.249,14.4201l0.05833,-0.13984v0v0v0v0v0zM288.93736,165.02243c0,0 0.96537,-3.11689 1.11966,-3.7456" fill="#929497"/></g><g data-paper-data="{&quot;index&quot;:null}" stroke="#000000" stroke-width="0.90024" stroke-linecap="round" stroke-linejoin="miter"><path d="M200.18492,185.13372c-11.72151,-13.14649 -4.5801,-43.54906 -4.5801,-43.54906c9.21338,5.98854 10.63795,11.6707 10.89011,12.31219c0.2521,0.64158 4.11995,13.53338 4.11995,13.53338c-7.9762,9.1945 -10.42995,17.7035 -10.42995,17.7035zM212.48705,165.62205c0,0 -1.39943,1.23406 -2.03999,2.00304M200.18492,185.13372c-0.24708,0.85488 -0.32548,2.43468 -0.32548,2.43468" fill="#be1e2d"/><path d="M196.47076,178.21866c-1.42861,-3.53641 -2.79858,-8.35466 -3.12564,-14.26528c-0.29141,-5.26989 0.60048,-12.37316 1.35343,-17.14912l0.08957,-0.00471c5.90327,3.39466 6.80023,8.99761 6.80023,8.99761l0.01607,0.40214c-0.02226,2.85484 0.04134,5.79081 0.3144,7.85545c0.16031,1.22002 0.42562,2.38726 0.71572,3.41546l-0.01789,-0.16968c0,0 -1.00347,4.59276 -2.22392,6.80053c-1.96125,3.56211 -3.98884,3.98131 -3.98884,3.98131zM202.61667,167.30051c0.1924,0.61871 1.34641,3.67454 1.34641,3.67454" fill="#929497"/></g><path d="M199.00419,147.37562c0,0 1.384,-38.84331 49.95523,-40.7337c33.32947,-1.29717 46.46592,36.45771 46.46592,36.45771" data-paper-data="{&quot;index&quot;:null}" fill="none" stroke="#000000" stroke-width="7" stroke-linecap="round" stroke-linejoin="miter"/><path d="M242.63833,215.45348v0v0v0v0v0c-0.65352,1.71372 -2.4295,4.74057 -3.34159,5.4267c0,0 -3.69376,2.52728 -5.53169,0.93102c-0.78563,-0.68179 -0.98806,-1.61969 -0.74795,-2.7407c-0.36237,-0.21278 -0.84484,-0.59175 -0.95696,-1.20604c-0.18757,-1.0185 2.02338,-1.28531 2.02338,-1.28531l-0.00421,0.01819c0.16457,-0.26993 0.33423,-0.53794 0.52731,-0.81815c1.09731,-1.58161 3.17483,-3.60061 4.25378,-4.74557c0,0 0.9084,-1.01919 2.48178,-0.64384c1.67391,0.39906 1.94964,3.34999 1.29611,5.06371z" data-paper-data="{&quot;index&quot;:null}" fill="#a61b29" stroke="#231f20" stroke-width="0.78672" stroke-linecap="round" stroke-linejoin="round"/><path d="M257.73963,217.85944v0v0v0v0c0,0 -3.49878,2.77625 -5.44782,1.30681c-0.83734,-0.62188 -1.1034,-1.54704 -0.9493,-2.68234c-0.37971,-0.18638 -0.8852,-0.52906 -1.04384,-1.13511c-0.26216,-1.00151 1.92343,-1.42475 1.92343,-1.42475l-0.00272,0.01765c0.14598,-0.27748 0.29493,-0.55937 0.46563,-0.85264c0.97974,-1.65059 2.90229,-3.81251 3.89288,-5.02942c0,0 1.3029,-1.14331 2.55189,-0.65634c1.24904,0.48599 1.69644,2.61514 1.44716,3.53419c-0.2501,0.91911 -1.34778,5.42213 -2.8373,6.92197z" data-paper-data="{&quot;index&quot;:null}" fill="#be1e2d" stroke="#231f20" stroke-width="0.78672" stroke-linecap="round" stroke-linejoin="round"/><path d="M252.34998,218.39228c1.60407,-0.37018 3.52258,0.16932 3.52258,0.16932c0,0 0.60115,5.11386 0.77062,6.96194c0.17035,1.8508 1.0032,4.77213 1.0032,4.77213c0,0 0.47954,0.3112 0.30247,1.05503c-0.18074,0.74186 -1.88547,0.80574 -4.0341,1.09649c-2.14474,0.28641 -3.86529,-0.12979 -4.16203,-0.88395c-0.29966,-0.75073 0.34634,-1.06296 0.34634,-1.06296c0,0 1.29903,-6.01055 0.50367,-8.13864c0.00434,0.00465 -0.2979,-3.49761 1.74724,-3.96938z" data-paper-data="{&quot;index&quot;:null}" fill="#be1e2d" stroke="#231f20" stroke-width="0.90024" stroke-linecap="round" stroke-linejoin="round"/><path d="M245.50505,218.63334v0v0v0v0v0c2.78548,1.40642 2.95911,3.96525 2.95989,3.96794c-0.67603,2.16049 0.871,7.3296 0.871,7.3296c0,0 0.66364,0.27382 0.41219,1.03985c-0.25529,0.76762 -1.94529,1.27868 -4.10793,1.10806c-2.1589,-0.17232 -3.86369,-0.14305 -4.08732,-0.87678c-0.22363,-0.73374 0.23861,-1.06903 0.23861,-1.06903c0,0 0.13874,-1.7337 0.19955,-3.59115c0.0586,-1.85224 0.0052,-6.94687 0.0052,-6.94687c0,0 1.68396,-1.88347 3.50883,-0.96162z" data-paper-data="{&quot;index&quot;:null}" fill="#a61b29" stroke="#231f20" stroke-width="0.90024" stroke-linecap="round" stroke-linejoin="round"/><g data-paper-data="{&quot;index&quot;:null}" stroke-width="0.90024"><path d="M256.86135,212.41408v0v0v0v0v0c0.2804,2.78099 -0.65572,7.83251 -4.00433,9.46082c-3.31192,1.60695 -6.71745,1.20666 -10.14047,-1.31089c-2.83606,-2.0866 -2.48212,-7.64717 -2.01647,-10.74536v0c0,0 0.38718,-7.20056 6.67379,-7.78773c6.28466,-0.58715 8.90078,5.07797 9.20737,8.54844c0.12077,0.6141 0.2189,1.23958 0.28012,1.83473z" fill="#a61b29" stroke="#000000" stroke-linecap="butt" stroke-linejoin="miter"/><path d="M254.73702,220.24268v0v0v0v0v0l-0.02272,0.14027c-0.51151,0.61927 -1.12755,1.13574 -1.85627,1.49022c-3.06775,1.48879 -6.21447,1.25574 -9.38231,-0.78804l-0.02656,-0.14352c0,0 -1.2616,-9.24175 4.77219,-9.36167c6.85133,-0.13308 6.63669,7.13279 6.51568,8.66275z" fill="#bfc9d4" stroke="#231f20" stroke-linecap="round" stroke-linejoin="round"/></g><g data-paper-data="{&quot;index&quot;:null}" stroke="#000000" stroke-linecap="butt" stroke-linejoin="miter"><g><g stroke-width="0.4"><path d="M275.99171,234.58525l-0.04457,-0.00523c-1.47315,-0.1292 -3.359,-0.79528 -4.04723,-1.41167l-0.10363,0.09492l-1.16006,-0.46173l0.31576,-0.24764c0.03503,-0.02888 3.53058,-2.80571 3.6907,-5.93801l0.0164,-0.32218l0.31026,0.11601c0.165,0.06271 0.54238,0.22858 0.6558,0.47791l0.04527,0.01922c1.72529,0.7396 3.33592,0.72357 3.78885,0.70067l0.24504,-0.00495c0.11324,0.03075 0.45685,0.12268 0.48466,0.40809c0.0279,0.2873 -0.31131,0.47449 -0.4998,0.54754c-0.09191,0.00837 -0.18487,0.01494 -0.27988,0.01975c-1.3577,0.06864 -3.01669,-0.20622 -3.82145,-0.60933c-0.02712,0.15832 -0.06822,0.3426 -0.1284,0.54838c1.67528,0.68609 3.21656,0.6679 3.65793,0.6456l0.24806,-0.00318c0.11227,0.03074 0.4559,0.12272 0.4837,0.40809c0.0279,0.2873 -0.31033,0.47444 -0.49882,0.5475c-0.09093,0.00836 -0.18487,0.01494 -0.27988,0.01975c-1.46613,0.07413 -3.28276,-0.2516 -3.97642,-0.68182c-0.08245,0.16673 -0.17256,0.33385 -0.27048,0.49948c1.89572,0.92253 3.66747,0.87778 3.77207,0.89118c0.10982,0.03835 0.44603,0.15403 0.45185,0.44244c0.00587,0.28836 -0.34634,0.44821 -0.54041,0.50753c-1.5389,0.02643 -3.5862,-0.47452 -4.2451,-1.01019c-0.13483,0.17685 -0.28378,0.36003 -0.44511,0.54476c1.78828,0.94569 3.47186,0.99791 3.5729,1.01613c0.10823,0.04497 0.43684,0.18065 0.42725,0.46797c-0.01157,0.28648 -0.37146,0.42893 -0.56897,0.47722c-1.48259,-0.05397 -3.40847,-0.62274 -4.13519,-1.22128c-0.13721,0.13304 -0.28103,0.26739 -0.43336,0.40495c1.71575,1.011 3.36364,1.15099 3.464,1.17484c0.10467,0.04985 0.42451,0.20091 0.39848,0.48721c-0.02695,0.28725 -0.39459,0.41048 -0.50743,0.44141z" fill="#871212"/><path d="M274.88294,226.62991c-0.16683,3.27651 -3.77976,6.10696 -3.77976,6.10696l0.64101,0.25624l0.17061,-0.15622c0.00742,0.01271 0.00874,0.01918 0.01716,0.03371c0.33403,0.52312 2.41058,1.33651 4.03663,1.48226c0,0 0.70358,-0.19254 0.06781,-0.49394c0,0 -1.86931,-0.1428 -3.75447,-1.3517c0.30626,-0.26402 0.58118,-0.51989 0.82933,-0.77161c0.01163,0.01903 0.01626,0.03372 0.03185,0.05537c0.36193,0.50584 2.48068,1.2087 4.11271,1.26819c0,0 0.69096,-0.23019 0.03968,-0.49811c0,0 -1.89185,-0.04257 -3.85249,-1.17017c0.31356,-0.34285 0.58351,-0.6732 0.80521,-0.98803c0.02007,0.03353 0.03933,0.06901 0.07438,0.11303c0.39069,0.48566 2.54558,1.07368 4.17969,1.0462c0,0 0.67655,-0.26593 0.01185,-0.49671c0,0 -1.94677,0.06384 -4.00134,-1.00385c0,0 -0.0144,0.00073 -0.03465,-0.00013c0.23085,-0.36014 0.40331,-0.69586 0.53408,-1.00332c0.02074,0.02793 0.03664,0.05607 0.0683,0.08999c0.40394,0.42802 2.38761,0.83691 3.97751,0.75652c0.09113,-0.0046 0.18126,-0.01104 0.27025,-0.01926c0,0 0.65471,-0.31434 -0.02672,-0.49852c0,0 -0.06026,0.00681 -0.17154,0.01243c-0.51811,0.02618 -2.1408,0.03348 -3.8966,-0.71856c0,0 -0.00188,0.0001 -0.00575,0.00029c-0.0115,0.00058 -0.03923,0.00382 -0.07261,0.00926c0.16396,-0.4773 0.22407,-0.86338 0.23955,-1.13047c0.01032,0.01257 0.01356,0.01894 0.0249,0.03333c0.40394,0.42802 2.38761,0.83691 3.97751,0.75652c0.09113,-0.0046 0.18126,-0.01104 0.27025,-0.01926c0,0 0.6547,-0.31434 -0.02663,-0.49665c0,0 -0.05928,0.00677 -0.16864,0.01229c-0.51622,0.02611 -2.14084,0.03349 -3.89863,-0.72032c0,0 0,0 -0.00097,0.00005c-0.01054,0.00053 -0.10253,0.00702 -0.18458,0.03827c-0.00196,-0.01858 -0.00342,-0.02876 -0.00342,-0.02876c0.19674,-0.24168 -0.50146,-0.50534 -0.50146,-0.50534M274.43634,225.96117l0.62063,0.23493c0.218,0.08238 0.56934,0.24678 0.74141,0.51372c1.66578,0.70615 3.21389,0.68956 3.65043,0.66748c0.08635,-0.00437 0.13608,-0.01061 0.14183,-0.01089l0.09093,-0.00836l0.08877,0.02261c0.50954,0.13681 0.64051,0.40763 0.66005,0.61034c0.04262,0.43603 -0.40865,0.68682 -0.54839,0.75368l-0.07972,0.03857l-0.08905,0.00827c-0.09481,0.00849 -0.1916,0.01528 -0.28944,0.02023c-1.18693,0.06001 -2.72332,-0.13606 -3.6596,-0.49698c-0.0047,0.01985 -0.01022,0.04253 -0.01579,0.06431c1.55167,0.5877 2.94676,0.57131 3.35843,0.5505c0.08732,-0.00441 0.13806,-0.00881 0.14477,-0.00916l0.09083,-0.01024l0.08877,0.02261c0.50873,0.13873 0.63964,0.40956 0.65918,0.61226c0.04262,0.43603 -0.40865,0.68682 -0.54839,0.75368l-0.07972,0.03857l-0.08905,0.00827c-0.09476,0.0085 -0.1916,0.01528 -0.28944,0.02023c-1.28769,0.06511 -2.98783,-0.17034 -3.88513,-0.59398c-0.01407,0.0241 -0.02706,0.05091 -0.04119,0.07496c1.7479,0.78424 3.32568,0.74742 3.34202,0.74659l0.09124,-0.00273l0.08626,0.03023c0.49705,0.17196 0.60641,0.45326 0.6106,0.65674c0.00894,0.43586 -0.46041,0.65485 -0.6036,0.71163l-0.08271,0.03594l-0.08945,0.00076c-1.35054,0.0225 -3.30003,-0.37688 -4.19807,-0.92285c-0.03969,0.04962 -0.08029,0.09933 -0.12186,0.15c1.6308,0.79015 3.10058,0.83732 3.11697,0.83838l0.09066,0.00379l0.08453,0.03403c0.48695,0.19961 0.57927,0.4855 0.572,0.69049c-0.01697,0.43716 -0.49739,0.62867 -0.64485,0.67819l-0.08415,0.02759l-0.08864,-0.00205c-0.32105,-0.0127 -0.67423,-0.04998 -1.0391,-0.10813l0.04837,0.02278c0.4749,0.22635 0.55201,0.51581 0.53298,0.71768c-0.04007,0.43645 -0.5314,0.6033 -0.68128,0.64357l-0.0853,0.02393l-0.08802,-0.00863c-1.32053,-0.1173 -3.16935,-0.703 -4.02253,-1.3279l-0.05408,0.0504l-0.28712,-0.11534l-0.6409,-0.25442l-0.75113,-0.29928l0.63153,-0.49533c0.03417,-0.02694 3.44743,-2.7417 3.6017,-5.76812l0.03285,-0.64354zM273.11847,232.38922c-0.0137,0.01376 -0.02745,0.0266 -0.04222,0.0386c1.44848,0.78159 2.76745,0.94103 2.97065,0.96252c-1.11213,-0.19601 -2.29365,-0.57351 -2.92844,-1.00111z" fill="#000000"/></g><path d="M251.58773,210.68166c0,0 5.83392,-0.72285 10.49849,3.28382c4.66466,4.00854 3.21238,8.32448 13.26723,12.68273c0,0 0.91403,2.83506 -3.77052,6.69223c0,0 -8.57191,-4.08285 -10.97864,-10.22918c-2.40664,-6.14452 -8.23528,-9.37761 -11.23191,-9.24666l-3.28999,-0.29706z" fill="#ba2915" stroke-width="0.4"/><g fill="#871212" stroke-width="0.4"><path d="M272.72507,225.42917c0,0 0.43478,3.82068 -4.05002,6.28878l-1.1513,-0.81906c0,0 4.05683,-4.33089 3.7914,-6.30281z"/><path d="M269.10286,222.9553c0,0 -0.122,2.96405 -4.42855,5.63428l-1.39223,-1.29273c0,0 4.20337,-2.53139 4.62344,-5.58899z"/><path d="M266.55984,219.97275c0,0 -0.86083,3.03786 -5.44285,4.32056l-0.72955,-1.63828c0,0 4.77764,-1.72518 5.50265,-3.72472z"/><path d="M264.04838,216.073c0,0 -0.6885,2.59097 -5.20601,3.76676l-1.08354,-1.33167c0,0 4.90242,-2.44903 5.37436,-3.53423z"/><path d="M259.28696,212.12633c0.3399,0.09492 1.65744,0.96444 1.65744,0.96444l-5.63713,3.04768l-1.68199,-1.29675c0,0 5.32179,-2.81031 5.66168,-2.71537z"/><path d="M255.72344,211.1424l-4.62351,2.8955l-2.2682,-0.2254l4.59126,-3.20963l2.30046,0.53954"/></g><path d="M271.6189,233.61616l-0.14108,-0.06576c-0.35351,-0.16902 -8.68385,-4.19586 -11.09713,-10.35682c-2.28508,-5.83301 -7.94545,-9.22969 -11.03045,-9.09611l-4.07987,-0.36831l6.28667,-3.27856c0,0 0.17109,-0.02174 0.47909,-0.0373c1.39032,-0.07031 6.23638,-0.03504 10.20913,3.37785c1.68215,1.4434 2.59948,2.95817 3.48708,4.42215c1.62115,2.67321 3.29823,5.43886 9.71937,8.22161l0.09851,0.04262l0.03231,0.10023c0.04022,0.12223 0.90698,3.02695 -3.84384,6.94073l-0.11982,0.09762zM275.14481,226.81198c-6.46979,-2.82789 -8.17638,-5.6416 -9.82705,-8.36376c-0.90871,-1.49747 -1.76679,-2.91337 -3.3916,-4.30924c-3.83451,-3.29379 -8.52087,-3.32871 -9.86514,-3.26074c-0.22353,0.01223 -0.36992,0.02712 -0.37909,0.01822l-4.78845,2.51054l2.46827,0.2246c3.12913,-0.13672 9.01253,3.13097 11.46709,9.39732c2.17809,5.56086 9.60554,9.47177 10.71986,10.03203c3.88573,-3.25245 3.68802,-5.73697 3.59612,-6.24899z" fill="#000000" stroke-width="0.4"/><path d="M275.19272,226.82843c0.0919,0.51202 0.2761,3.01641 -3.60962,6.26885c-1.11431,-0.56026 -8.58611,-4.45913 -10.76419,-10.01997c-2.45456,-6.26634 -8.28706,-9.5532 -11.41619,-9.41649l-2.55233,-0.2799l4.79932,-2.52257c0.00915,0.00891 0.15638,-0.00665 0.37991,-0.01887c1.34426,-0.06797 6.06754,-0.04332 9.90206,3.25047c1.62481,1.39588 2.51613,2.82889 3.42483,4.32636c1.65066,2.72215 3.36641,5.58424 9.8362,8.41213z" data-paper-data="{&quot;noHover&quot;:true,&quot;origItem&quot;:[&quot;Path&quot;,{&quot;applyMatrix&quot;:true,&quot;segments&quot;:[[[431.94081,453.0728],[0,0],[-0.17472,1.03898]],[[439.09485,465.69792],[-7.688,-6.5475],[2.1867,-1.14874]],[[460.07531,445.23676],[-4.22042,11.29778],[4.75612,-12.7311]],[[482.53429,426.05348],[-6.16114,-0.24052],[0,0]],[487.39021,425.56932],[[477.93421,420.53628],[0,0],[-0.01792,0.01816]],[[477.18779,420.50378],[0.44016,0.02218],[-2.64692,-0.12204]],[[457.80819,427.229],[7.5083,-6.72166],[-3.1815,2.84856]],[[451.18397,436.00386],[1.77068,-3.04612],[-3.21644,5.53734]],[[431.94083,453.07286],[12.7013,-5.80806],[0,0]]],&quot;closed&quot;:true,&quot;fillColor&quot;:[0,0,0,1],&quot;strokeColor&quot;:[0,0,0],&quot;strokeWidth&quot;:0.4}]}" fill="#000000" stroke-width="0.2"/></g><g stroke-width="0.4"><path d="M237.80899,206.04456c0.00098,-0.00006 7.22452,-3.22789 17.27338,5.89917c0,0 -5.42718,2.7278 -10.89241,1.89424c-5.46615,-0.83356 -7.27665,-2.0864 -9.19671,-0.8785c0,0 -1.18552,-1.92444 2.27719,-3.50095c0,0 -1.32735,-2.32648 0.53856,-3.41398z" fill="#ba2915"/><g fill="#871212"><path d="M248.27584,207.26708c-2.33105,2.40685 -1.30511,6.71894 -1.30511,6.71894l-0.86355,0.04366c-1.36121,-5.07434 1.35444,-7.16333 1.35444,-7.16333z"/><path d="M244.35328,205.83047c0,0 -2.34568,2.02639 -1.58973,7.53028l-1.09777,-0.21542c0,0 -0.77015,-4.51285 1.41144,-7.57171z"/><path d="M251.5031,209.10326c-0.83894,0.61047 -1.12674,4.43029 -1.12674,4.43029l-0.61382,0.12542c-0.62887,-2.75608 1.05155,-5.05993 1.05155,-5.05993z"/><path d="M236.73676,212.37054c-0.00097,0.00005 -0.17725,-2.17539 1.23873,-3.23916c0.05674,-0.16171 0.00027,-2.68607 0.58447,-3.32845l1.35789,-0.26209c0,0 -1.32066,1.29721 -0.88777,3.41391c0,0 -1.57701,1.50543 -1.28491,3.3648l-1.00843,0.05099z"/></g><path d="M234.65427,211.53594c0.26298,-0.83731 1.03376,-1.57138 2.29205,-2.18342c-0.44883,-0.94149 -0.76643,-2.63046 0.76183,-3.5196c0.04419,-0.01907 1.0669,-0.46785 2.87172,-0.5591c3.24603,-0.16412 8.4235,0.8307 14.66661,6.5l0.24874,0.22564l-0.30259,0.1517c-0.03656,0.01868 -3.7065,1.84012 -8.0041,2.05742c-1.05739,0.05347 -2.07778,0.00697 -3.03614,-0.13891c-1.84699,-0.28216 -3.28378,-0.61219 -4.43813,-0.87801c-2.23953,-0.51557 -3.4491,-0.75242 -4.58927,-0.03611l-0.20946,0.13109l-0.12751,-0.2075c-0.01686,-0.0272 -0.40658,-0.67453 -0.13376,-1.54321zM235.11603,211.66114c-0.13,0.41018 -0.07416,0.75209 -0.00908,0.96091c1.20027,-0.63621 2.49662,-0.39626 4.71665,0.11469c1.14555,0.26344 2.57267,0.59212 4.40211,0.87052c0.92444,0.14104 1.914,0.1863 2.93683,0.13458c3.47821,-0.17586 6.5369,-1.42919 7.49706,-1.85986c-6.00285,-5.35255 -10.94887,-6.30022 -14.05577,-6.14313c-1.6887,0.08538 -2.66778,0.50486 -2.6716,0.50504c-1.35374,0.78875 -0.8185,2.31913 -0.55921,2.88526c0.56988,-0.21006 1.94876,-0.49372 3.93828,0.56231c0,0 -2.0655,-0.87653 -4.115,0.07072c-1.12808,0.54661 -1.85421,1.19805 -2.08025,1.89896z" fill="#000000"/></g><g stroke-width="0.4"><path d="M266.98171,207.31446c0.85408,1.3582 -0.61969,1.89988 -0.61969,1.89988c-18.37198,6.12623 -20.82437,0.76138 -23.39791,-1.67773c-2.57164,-2.43921 -5.15317,-1.49121 -5.15317,-1.49121c-1.65155,-3.88716 2.62003,-6.07909 2.62003,-6.07909l0.064,1.19357c12.16389,8.18204 22.09365,-0.63034 22.08786,-0.73841c-0.0058,-0.10811 1.0978,0.28735 1.75363,1.30433c0.65587,1.01692 -0.49666,1.95157 -0.49666,1.95157c-0.12419,1.05732 2.28788,2.27885 3.14192,3.63709z" fill="#ba2915"/><g fill="#871212"><path d="M261.5001,201.29367c0,0 1.66631,0.4838 0.96516,3.10715c0,0 0.13852,1.47102 1.40352,2.63377c1.26494,1.16272 1.28204,2.03729 1.51712,2.49253l-1.89518,0.5415c0,0 -0.17645,-1.60455 -1.00396,-2.46713c-0.82745,-0.86253 -1.04053,-2.16251 -1.15052,-2.74274c-0.10999,-0.58023 0.65462,-2.02032 -0.68646,-2.91574z"/><path d="M258.3704,203.14199c-0.03029,-0.24135 0.63378,0.98262 0.52249,2.63908c-0.11129,1.65646 0.95278,2.44634 1.40192,3.51949c0.44909,1.07321 0.52902,1.541 0.52902,1.541l-1.38406,0.33065c0,0 -0.79152,-2.32746 -1.41927,-3.2692c-0.62777,-0.94179 -0.35911,-1.90647 -0.41067,-2.868c-0.05156,-0.96157 -0.38424,-1.3708 -0.38424,-1.3708z"/><path d="M254.6705,204.2624c0.00394,0.07363 0.77489,1.74717 0.46733,3.47524c-0.30761,1.72807 0.87622,3.81794 0.87622,3.81794l-1.33484,0.15345c0,0 -0.91477,-1.93441 -0.80837,-3.6822c0.1064,-1.74777 0.13394,-2.292 -0.22365,-3.57908z"/><path d="M250.98979,204.59054c0,0 -0.76885,2.49136 0.09854,4.63742c0,0 -0.58976,1.32753 0.56274,2.63515l-0.71869,0.03634c0,0 -1.09747,-0.81995 -0.8857,-2.46841c0,0 -1.27793,-0.99206 -0.30997,-4.77621l1.25314,-0.06336z"/><path d="M247.01081,204.12933c0,0 -1.70195,2.31524 -0.68282,5.28045c0,0 -0.19579,0.45739 0.26714,1.23189l-1.0765,-0.62668c0,0 -0.27211,-0.51689 -0.2189,-0.70923c0.05316,-0.19235 -1.20416,-1.64321 0.3259,-5.54924z"/><path d="M242.71076,202.50718c0,0 -1.63579,1.27013 -1.06552,4.06377l-1.09055,-0.52881c0,0 -0.15717,-2.93124 1.24918,-3.99457z"/><path d="M240.2612,201.28565c0,0 -2.7672,1.00132 -2.35064,4.3567l0.00585,0.36034c0,0 -2.15678,-3.04602 2.51828,-5.94879z"/></g><path d="M237.5886,206.13417c-1.7154,-4.03711 2.68528,-6.35146 2.72922,-6.37519l0.33239,-0.17095l0.07739,1.44328c3.62871,2.41564 7.40868,3.5428 11.23901,3.34912c6.00169,-0.30346 9.95606,-3.67433 10.38278,-4.05932l0.00889,-0.13968l0.23987,-0.01212c0.28593,-0.01445 1.32211,0.46945 1.94131,1.43125c0.56245,0.87222 0.00413,1.74597 -0.44303,2.16281l0.00878,0.02012c-0.00826,0.00696 -0.01767,0.01119 -0.02597,0.01815c0.04298,0.47803 0.75716,1.09405 1.45208,1.69142c0.62639,0.53915 1.27391,1.09591 1.65458,1.69986c0.29664,0.47175 0.37516,0.91434 0.23413,1.31576c-0.22721,0.64306 -0.94299,0.9128 -0.9808,0.92592c-5.08709,1.69598 -9.37926,2.64267 -12.75866,2.81355c-6.28283,0.31766 -8.50901,-2.04838 -10.13334,-3.77594c-0.25906,-0.27467 -0.50402,-0.53601 -0.75127,-0.76922c-1.48903,-1.41209 -2.97287,-1.65006 -3.95444,-1.60042c-0.57759,0.0292 -0.94391,0.15985 -0.94768,0.16099l-0.21705,0.07915l-0.08817,-0.20854zM240.21178,200.36421c-0.92796,0.5832 -3.36965,2.45188 -2.25932,5.39569c0.72535,-0.18056 2.99934,-0.4581 5.17871,1.60858c0.25336,0.23943 0.50435,0.50702 0.76963,0.78881c0.24486,0.25953 0.49976,0.52781 0.77395,0.79706c4.45441,1.1818 8.68874,-0.48509 8.68874,-0.48509c-2.95523,1.83672 -6.82634,1.28782 -8.08939,1.04058c1.55425,1.33592 3.84309,2.50201 8.38153,2.27253c3.33426,-0.16859 7.58268,-1.10653 12.61967,-2.78596c0.00566,-0.00216 0.53924,-0.20668 0.691,-0.64222c0.09175,-0.26248 0.02804,-0.5713 -0.18969,-0.91812c-0.34281,-0.54417 -0.96314,-1.07803 -1.56325,-1.59335c-0.69898,-0.60182 -1.35997,-1.17658 -1.55371,-1.75729c-1.3198,0.79363 -2.94093,0.82981 -2.94093,0.82981c1.67248,-0.4966 2.50393,-1.01325 2.88865,-1.32046l0.0038,-0.03661l0.07378,-0.05981c0.04053,-0.03287 0.98268,-0.81855 0.44745,-1.64919c-0.50592,-0.78629 -1.28572,-1.15419 -1.47998,-1.20699c-0.87621,0.90194 -5.05541,3.92075 -10.65983,4.20412c-3.97138,0.2008 -7.88675,-0.97554 -11.63559,-3.4963l-0.09585,-0.06527l-0.04937,-0.92056z" fill="#000000"/></g></g><g data-paper-data="{&quot;index&quot;:null}" stroke="#000000" stroke-width="0.90024" stroke-linecap="round" stroke-linejoin="round"><path d="M295.55265,180.39437l-0.47093,1.55016c-2.64815,7.84215 -6.7194,12.46834 -6.7194,12.46834c0,0 0.08885,-1.383 -0.09734,-3.59044l-0.1356,-0.03932c-0.33085,1.18119 -0.89346,2.71053 -1.85876,4.61171c-2.11659,4.17495 -8.73393,7.88973 -8.73393,7.88973c0,0 0.35546,-1.41882 0.51172,-3.72145l-0.11149,-0.34627c-0.7088,0.58186 -1.44708,1.12047 -2.19422,1.64615c-0.21979,0.15562 -0.43965,0.3076 -0.66349,0.4553c-0.68091,0.45439 -1.37555,0.88974 -2.08606,1.29913c-0.28082,0.16001 -0.57319,0.30996 -0.85806,0.46392c-0.51959,0.28182 -1.04727,0.54966 -1.58343,0.80998c-0.39397,0.18903 -0.79074,0.37738 -1.19544,0.55444c-0.41884,0.18578 -0.85036,0.35515 -1.27882,0.53069c-0.78822,0.31406 -1.58917,0.61013 -2.40946,0.8866c-0.26762,0.09009 -0.53536,0.1802 -0.80791,0.26517c-0.58551,0.18429 -1.17586,0.36513 -1.77789,0.52881l0.00191,0.0017c-3.02211,0.82667 -6.24179,1.42109 -9.70146,1.78252c-3.743,0.39009 -7.14737,0.50462 -10.3353,0.43079v0c-2.52261,-0.05968 -4.89007,-0.24813 -7.13723,-0.54501c-0.10866,-0.01384 -0.21839,-0.02853 -0.32797,-0.04234c-0.69493,-0.0964 -1.37926,-0.20115 -2.05121,-0.31713c-0.23459,-0.04214 -0.45932,-0.08905 -0.69297,-0.13292c-0.89322,-0.16484 -1.76259,-0.35037 -2.62076,-0.55064c-0.54247,-0.12706 -1.08158,-0.25791 -1.60917,-0.39896c-0.31331,-0.08122 -0.62777,-0.16692 -0.93493,-0.25374c-0.839,-0.24023 -1.67088,-0.48511 -2.47916,-0.75337l-0.13199,0.13474c0.39773,2.07094 1.1906,3.15963 1.80693,3.66751c1.25645,1.03702 3.58852,1.19325 3.58852,1.19325c0,0 -7.046,1.27809 -11.15734,-3.86727c-0.43683,-0.54694 -0.87827,-1.11423 -1.30049,-1.72059l-0.18586,-0.3492c-0.85156,-0.23512 -1.71833,-0.55946 -2.5791,-0.98813c-5.24947,-2.63465 -6.00282,-4.96628 -6.00282,-4.96628l0.14757,0.86032c0.59859,2.23281 1.14611,3.6346 1.14611,3.6346c0,0 -6.29876,-3.49054 -9.29047,-9.00734c-2.41232,-4.45341 -2.71654,-7.20237 -2.75294,-7.66495l-0.2835,-1.64649c-0.43734,-6.47748 -0.36455,-13.768 0.21642,-20.96283l0.04767,-0.19322c0.55766,-5.56664 -0.6663,-14.69358 6.44918,-24.40359c13.33383,-18.19079 27.82836,-18.22182 35.86985,-31.58542c5.91493,-9.83117 3.7653,-20.71034 3.7653,-20.71034c0,0 4.15485,5.19233 5.85997,8.27403c1.65204,3.00396 3.44812,6.89072 3.44812,6.89072l0.05048,-0.03602c0.03021,-0.11699 0.05662,-0.23639 0.07848,-0.35558c0.33855,-1.85638 0.04259,-4.56583 0.04259,-4.56583c0,0 4.21863,10.42375 10.55183,17.09943c6.32939,6.67239 15.09922,8.27063 27.17119,31.54696c1.50216,2.89239 2.88632,5.32147 3.69387,8.04644l0.3816,1.57192c1.18789,4.91225 1.45607,18.61686 -0.27237,24.61963zM224.28342,160.2349c0,0 -6.75927,7.47229 -5.82308,17.41129c0.82834,8.79407 3.30831,11.41188 4.60764,12.03713c1.33576,0.63874 3.33654,0.13657 3.33654,0.13657c0,0 -5.57612,3.19207 -10.42181,-0.58879c-3.24107,-2.52717 -6.79354,-5.81506 -8.199,-15.47084M284.07844,173.48782c0,0 0.99695,2.41159 -0.91124,7.62914c-2.14623,5.87808 -7.16356,7.88952 -7.16356,7.88952c0,0 3.82056,-9.07855 -0.12958,-17.27985c-1.72413,-3.58319 -6.64358,-6.09103 -11.73555,-7.79016c-6.9004,-2.30456 -14.11649,-3.12261 -14.11649,-3.12261M288.15589,190.68504c-0.32652,1.19522 -0.89647,2.76132 -1.89059,4.71356c-2.11567,4.1749 -8.73301,7.88969 -8.73301,7.88969c0,0 1.03233,-4.13929 0.35027,-9.74528M209.56527,180.84222c-0.63726,1.28554 -1.1094,2.65432 -1.3423,4.08817c-1.46572,8.94034 2.3053,18.54908 2.3053,18.54908c0,0 -6.29685,-3.48895 -9.29047,-9.00743c-2.65394,-4.89791 -2.7562,-7.73414 -2.7562,-7.73414M295.07743,181.95094c-2.64998,7.84224 -6.7203,12.46837 -6.7203,12.46837c0,0 0.51593,-7.85783 -3.44167,-16.05968c-0.17855,-0.37084 -0.3777,-0.73011 -0.58722,-1.07825M250.02295,160.81382c0,0 1.22817,0.25853 4.54614,2.59118c3.31807,2.33266 4.62281,4.98036 4.62281,4.98036c0,0 -9.56694,-1.99854 -14.88663,-3.59424c-5.31431,-1.59771 -23.17654,-5.48062 -23.17654,-5.48062M221.81904,198.94913c2.74673,3.79572 5.51305,5.80429 5.51305,5.80429c0,0 -6.18215,2.16354 -12.0946,-0.80092c-5.24945,-2.63455 -6.00282,-4.96628 -6.00282,-4.96628M277.93075,199.22243c-6.52125,5.34924 -14.60359,8.18746 -24.54784,9.22589c-11.85571,1.23797 -20.62531,-0.0633 -28.18596,-2.56347M224.96157,205.37777c0.3424,2.49039 1.23117,3.75003 1.90839,4.30676c1.25736,1.03698 3.58944,1.19321 3.58944,1.19321c0,0 -7.04783,1.27818 -11.15826,-3.86723c-0.43683,-0.54694 -0.87827,-1.11423 -1.30049,-1.72059M250.72309,161.07974c0,0 26.04063,1.91895 26.68612,15.64418" fill="#a61b29"/><path d="M282.76404,182.4339c-0.50162,9.91377 -11.70272,20.73059 -28.75802,22.45968c-15.05664,1.53458 -37.67762,-4.06845 -41.48584,-16.06459c-0.37902,-1.2058 -0.60525,-2.37651 -0.70508,-3.5066l0.33897,0.21795c1.22239,1.57818 2.54857,2.69656 3.82871,3.69253c4.84559,3.77909 10.42173,0.58701 10.42173,0.58701c0,0 -2.00069,0.50393 -3.33645,-0.1348c-1.29932,-0.62524 -3.77932,-3.24306 -4.60765,-12.03712c-0.93627,-9.94078 5.82309,-17.41129 5.82309,-17.41129l0.01389,-0.23005c5.37766,1.19302 16.0931,3.60749 20.00603,4.78458c5.31974,1.59657 14.88662,3.59424 14.88662,3.59424c0,0 -1.30474,-2.64771 -4.62281,-4.98037c-1.66083,-1.16664 -2.79643,-1.81425 -3.51642,-2.17087l0.66261,0.07106c0,0 20.10117,1.98047 24.16245,10.42128c3.94928,8.20223 0.13049,17.27981 0.13049,17.27981c0,0 4.27226,-1.7143 6.61386,-6.59364z" fill="#bfc9d4"/></g><path d="M242.08305,181.47984v0v0v0v0v0c0.74299,0.14063 1.22566,0.83898 1.07891,1.56063c-0.14468,0.72326 -0.86018,1.19167 -1.60833,1.05502c-0.04297,-0.00912 -4.37799,-0.79781 -8.4282,0.69997c-0.12468,0.04536 -0.24994,0.07386 -0.37663,0.08374c-0.59256,0.04627 -1.17102,-0.28993 -1.39306,-0.85529c-0.13111,-0.33016 -0.10888,-0.68209 0.02382,-0.98653c-0.27426,-0.19783 -0.54002,-0.46036 -0.73995,-0.83513c-0.23412,-0.43436 -0.06029,-0.97182 0.3889,-1.19854c0.44518,-0.22095 0.99976,-0.06114 1.23519,0.37678c0.18669,0.34898 0.64928,0.41709 0.65488,0.41844c0.13651,0.01874 0.25906,0.06974 0.36669,0.13974c0.13273,-0.03799 0.26619,-0.07692 0.39744,-0.10943c-0.15737,-0.19438 -0.30677,-0.41443 -0.40872,-0.69163c-0.16865,-0.46352 0.08133,-0.96874 0.5586,-1.13339c0.48055,-0.16936 0.99957,0.08061 1.16717,0.54244c0.13424,0.36912 0.57231,0.50683 0.5761,0.50832c0.20332,0.05014 0.36016,0.17152 0.47994,0.32074c3.25346,-0.40281 5.87804,0.07571 6.02727,0.10416z" data-paper-data="{&quot;index&quot;:null}" fill="#231f20" stroke="none" stroke-width="0.90024" stroke-linecap="butt" stroke-linejoin="miter"/><path d="M274.94422,180.50339v0v0v0v0v0c-0.24411,0.77196 -0.78098,1.19396 -1.20876,1.43767c0.07452,0.25843 0.0974,0.53667 -0.00338,0.80864c-0.25655,0.69127 -1.02654,1.05692 -1.75548,0.8042c-2.76184,-0.96313 -6.40489,-1.57805 -7.22046,-0.92237c-0.29444,0.23557 -0.65792,0.33307 -1.01184,0.29754c-0.34846,-0.035 -0.67964,-0.1978 -0.91907,-0.47982c-0.48216,-0.56638 -0.40017,-1.4055 0.185,-1.87543c1.57547,-1.26326 4.58035,-0.92491 6.95503,-0.37579c0.12777,-0.08626 0.33559,-0.26804 0.38332,-0.54365c0.07722,-0.48243 0.51263,-0.84955 1.04352,-0.74079c0.49864,0.07506 0.83945,0.52717 0.76288,1.01324c-0.05093,0.30564 -0.15682,0.55756 -0.27935,0.7845c0.11661,0.03581 0.22806,0.06842 0.33201,0.10306c0.10966,-0.13192 0.24116,-0.24459 0.41997,-0.29983c0.02698,-0.01157 0.45071,-0.16552 0.5692,-0.53579c0.15094,-0.46789 0.65537,-0.7396 1.14381,-0.58609c0.48183,0.14657 0.75197,0.64078 0.60357,1.11072z" data-paper-data="{&quot;index&quot;:null}" fill="#231f20" stroke="none" stroke-width="0.90024" stroke-linecap="butt" stroke-linejoin="miter"/><g data-paper-data="{&quot;index&quot;:null}" stroke-linejoin="miter"><path d="M203.78371,171.00303c0.44727,12.79772 -0.87704,23.22792 -6.29816,23.40658c-5.42115,0.17866 -13.90168,-9.92839 -14.34895,-22.72611c-0.44727,-12.79772 7.30809,-23.43987 12.72924,-23.61852c5.42115,-0.17866 7.47061,10.14033 7.91788,22.93806z" fill="url(#color-1)" stroke="#000000" stroke-width="0.90024" stroke-linecap="butt"/><path d="M189.0611,156.73396l2.03436,-2.87831" fill="none" stroke="#ea42a4" stroke-width="2" stroke-linecap="round"/><path d="M196.08218,161.12931l3.41875,-0.48111" fill="none" stroke="#ea42a4" stroke-width="2" stroke-linecap="round"/><path d="M191.81236,166.91425l-0.34102,1.84247" fill="none" stroke="#ea42a4" stroke-width="2" stroke-linecap="round"/><path d="M190.19474,176.71243l1.75745,2.14531" fill="none" stroke="#ea42a4" stroke-width="2" stroke-linecap="round"/><path d="M200.35184,182.8597l1.60881,-0.22641" fill="none" stroke="#ea42a4" stroke-width="2" stroke-linecap="round"/><path d="M193.15579,191.05029l1.86822,0.13587" fill="none" stroke="#ea42a4" stroke-width="2" stroke-linecap="round"/><path d="M188.91522,183.27285l-1.38439,-2.3972" fill="none" stroke="#ea42a4" stroke-width="2" stroke-linecap="round"/><path d="M185.20801,169.43876l1.49807,1.78305" fill="none" stroke="#ea42a4" stroke-width="2" stroke-linecap="round"/><path d="M186.48173,160.08774l0.23316,1.56227" fill="none" stroke="#ea42a4" stroke-width="2" stroke-linecap="round"/><path d="M198.99384,151.74718l-2.40741,3.1302" fill="none" stroke="#ea42a4" stroke-width="2" stroke-linecap="round"/></g><g data-paper-data="{&quot;index&quot;:null}" stroke-linejoin="miter"><path d="M296.41477,141.98083c5.42425,-0.0049 13.55683,10.36831 13.56913,23.1734c0.01228,12.80509 -8.10039,23.193 -13.52466,23.1979c-5.42425,0.0049 -7.12208,-10.37414 -7.13435,-23.17922c-0.01228,-12.80509 1.66563,-23.18717 7.08989,-23.19208z" fill="url(#color-2)" stroke="#000000" stroke-width="0.90025" stroke-linecap="butt"/><path d="M303.52647,150.41428l-2.13641,-2.80771" fill="none" stroke="#ea42a4" stroke-width="2" stroke-linecap="round"/><path d="M293.23349,154.67944l3.43393,0.36513" fill="none" stroke="#ea42a4" stroke-width="2" stroke-linecap="round"/><path d="M301.14223,160.68148l0.40693,1.82979" fill="none" stroke="#ea42a4" stroke-width="2" stroke-linecap="round"/><path d="M301.43112,172.62245l1.6794,-2.20348" fill="none" stroke="#ea42a4" stroke-width="2" stroke-linecap="round"/><path d="M291.56422,176.73441l1.61597,0.17183" fill="none" stroke="#ea42a4" stroke-width="2" stroke-linecap="round"/><path d="M298.80357,185.04733l1.8622,-0.199" fill="none" stroke="#ea42a4" stroke-width="2" stroke-linecap="round"/><path d="M305.92218,174.48952l-1.29751,2.44259" fill="none" stroke="#ea42a4" stroke-width="2" stroke-linecap="round"/><path d="M306.4,164.81361l1.43315,-1.83265" fill="none" stroke="#ea42a4" stroke-width="2" stroke-linecap="round"/><path d="M306.22465,153.67873l-0.17695,1.56923" fill="none" stroke="#ea42a4" stroke-width="2" stroke-linecap="round"/><path d="M295.93908,148.81349l-2.51829,-3.04683" fill="none" stroke="#ea42a4" stroke-width="2" stroke-linecap="round"/></g><g data-paper-data="{&quot;index&quot;:null}" stroke="#001026" stroke-width="0.9" stroke-linejoin="miter"><g><path d="M240.1732,221.98346c0,0 -1.44485,1.54246 -2.26494,1.80752c-0.77317,0.24991 -2.52309,-0.25994 -2.52309,-0.25994l-7.79316,-12.25799l8.35976,-3.66812l4.2214,14.37853z" fill="#505a63" stroke-linecap="butt"/><path d="M236.03297,206.55486c1.16119,2.49548 0.01926,5.43257 -2.55056,6.56016c-2.56982,1.1276 -5.59441,0.0187 -6.7556,-2.47678c-1.16119,-2.49547 -0.01925,-5.43256 2.55057,-6.56015c2.56982,-1.12759 5.5944,-0.0187 6.75559,2.47678z" fill="url(#color-3)" stroke-linecap="butt"/><path d="M231.66207,203.8419c0,0 1.61011,2.13062 2.17206,3.37577c0.60126,1.33229 1.3255,4.3742 1.3255,4.3742" fill="none" stroke-linecap="round"/><path d="M228.04425,205.64035c0,0 1.04856,1.49268 1.42003,2.54388c0.50274,1.42272 1.32363,5.22038 1.32363,5.22038" fill="none" stroke-linecap="round"/><path d="M226.45558,208.76409c0,0 3.05484,-1.64651 4.55067,-1.94635c1.71937,-0.34467 5.18864,-0.00594 5.18864,-0.00594" fill="none" stroke-linecap="round"/><path d="M227.05577,211.45494c0,0 2.48739,-0.76842 3.8075,-0.90047c1.6982,-0.16986 5.53615,-0.03415 5.53615,-0.03415" fill="none" stroke-linecap="round"/></g><path d="M231.48445,220.0226c-0.76925,-1.66653 0.05784,-3.45908 1.84739,-4.0038c1.78954,-0.54472 4.21917,0.77763 4.98843,2.44414c0.76926,1.66653 -0.41316,3.04614 -2.2027,3.59086c-1.78955,0.54472 -3.86385,-0.36469 -4.63312,-2.0312z" fill="#a61b29" stroke-linecap="butt"/></g><path d="M245.15332,190.60985l2.87866,-0.01661" fill="none" stroke="#231f20" stroke-width="1.5" stroke-linecap="round" stroke-linejoin="miter"/><g fill="none" stroke="#0016c6" stroke-width="3.5" stroke-linecap="round" stroke-linejoin="miter"><path d="M219.88089,164.56589l-1.362,9.87428"/><path d="M226.99168,164.3275l-1.96797,10.46976"/><path d="M234.01808,163.46041l-1.10502,8.0112"/></g><g stroke-linejoin="miter"><g stroke-linecap="butt"><g stroke="#000000" stroke-width="1"><path d="M251.22876,213.85986h56.29062v23.39987h-56.29062z" fill="url(#color-4)"/><path d="M256.22226,209.56989h56.29062l-4.99352,4.28998h-56.29063z" fill="#9966ff"/><path d="M307.7727,213.83371l4.76655,-4.09497l-0.68094,23.78988l-4.53957,3.80248z" fill="url(#color-5)"/></g><path d="M304.99105,214.68658c0.44577,0 0.80713,0.15523 0.80713,0.34671c0,0.19148 -0.36136,0.3467 -0.80713,0.3467c-0.44577,0 -0.80714,-0.15522 -0.80714,-0.3467c0,-0.19148 0.36137,-0.34671 0.80714,-0.34671z" fill="#b9b9b9" stroke="none" stroke-width="0.5"/><path d="M304.63233,235.95117c0.44577,0 0.80713,0.15522 0.80713,0.3467c0,0.19148 -0.36136,0.3467 -0.80713,0.3467c-0.44577,0 -0.80714,-0.15522 -0.80714,-0.3467c0,-0.19148 0.36137,-0.3467 0.80714,-0.3467z" fill="#b9b9b9" stroke="none" stroke-width="0.5"/><path d="M253.1555,236.25935c0.44576,0 0.80713,0.15523 0.80713,0.3467c0,0.19148 -0.36137,0.3467 -0.80713,0.3467c-0.44576,0 -0.80713,-0.15522 -0.80713,-0.3467c0,-0.19148 0.36137,-0.3467 0.80713,-0.3467z" fill="#b9b9b9" stroke="none" stroke-width="0.5"/><path d="M252.61741,214.53249c0.44576,0 0.80713,0.15522 0.80713,0.3467c0,0.19148 -0.36137,0.3467 -0.80713,0.3467c-0.44576,0 -0.80713,-0.15522 -0.80713,-0.3467c0,-0.19148 0.36137,-0.3467 0.80713,-0.3467z" fill="#b9b9b9" stroke="none" stroke-width="0.5"/></g><g stroke="#000000" stroke-width="1" stroke-linecap="butt"><path d="M255.88168,225.5027c0,-5.05326 4.26773,-9.14973 9.53222,-9.14973c5.26449,0 9.53222,4.09648 9.53222,9.14973c0,5.05326 -4.26773,9.14973 -9.53222,9.14973c-5.26449,0 -9.53222,-4.09648 -9.53222,-9.14973z" fill="#8499b1"/><path d="M259.14987,225.89483c0,-2.95976 2.49966,-5.35913 5.58316,-5.35913c3.08349,0 5.58316,2.39937 5.58316,5.35913c0,2.95976 -2.49967,5.35912 -5.58316,5.35912c-3.08349,0 -5.58316,-2.39936 -5.58316,-5.35912z" fill="#92c5ff"/></g><g stroke="#000000" stroke-width="1" stroke-linecap="butt"><path d="M280.14552,225.53736c0,-5.05326 4.26773,-9.14973 9.53222,-9.14973c5.26449,0 9.53222,4.09648 9.53222,9.14973c0,5.05326 -4.26773,9.14973 -9.53222,9.14973c-5.26449,0 -9.53222,-4.09648 -9.53222,-9.14973z" fill="#8499b1"/><path d="M283.4137,225.9295c0,-2.95976 2.49967,-5.35913 5.58316,-5.35913c3.08349,0 5.58316,2.39937 5.58316,5.35913c0,2.95976 -2.49967,5.35913 -5.58316,5.35913c-3.08349,0 -5.58316,-2.39936 -5.58316,-5.35913z" fill="#92c5ff"/></g><path d="M299.93209,211.60251l4.04397,-18.02219" fill="none" stroke="#000000" stroke-width="2" stroke-linecap="round"/></g></g></g></svg>