<svg version="1.1" xmlns="http://www.w3.org/2000/svg" xmlns:xlink="http://www.w3.org/1999/xlink" width="217.6417" height="118.41758" viewBox="0,0,217.6417,118.41758"><defs><radialGradient cx="327.81949" cy="130.68263" r="9.86662" gradientUnits="userSpaceOnUse" id="color-1"><stop offset="0" stop-color="#ff000d" stop-opacity="0.32941"></stop><stop offset="1" stop-color="#ff000d" stop-opacity="0"></stop></radialGradient><radialGradient cx="350.80318" cy="129.8493" r="8.36662" gradientUnits="userSpaceOnUse" id="color-2"><stop offset="0" stop-color="#ff000d" stop-opacity="0.32941"></stop><stop offset="1" stop-color="#ff000d" stop-opacity="0"></stop></radialGradient></defs><g transform="translate(-204.87682,-102.93205)"><g stroke-miterlimit="10"><path d="M253.8209,174.74781c-0.07221,6.06691 1.57628,17.72343 1.22902,21.63868c-0.02414,5.74886 -8.14447,8.60511 -10.77442,-0.10307c-0.63809,-5.54359 3.25646,-23.90363 3.25646,-23.90363c1.36085,-3.83146 5.35321,-3.53422 6.28894,2.36802z" fill="#ffab19" fill-rule="evenodd" stroke="#231f20" stroke-width="1.2" stroke-linecap="round" stroke-linejoin="round"></path><path d="M249.17272,183.05824c0,0 -0.19614,25.78013 0.5,25.5c4.73663,-1.90602 7.79455,4.22424 5.29392,6.83424c-2.50063,2.61 -9.15826,2.5055 -9.15826,2.5055c0,0 -6.96938,0.51644 -8.42844,-2.08219c-1.19287,-2.12455 -0.38923,-5.77465 2.29278,-6.00755c1.94705,-0.16908 0.75,-26.75 0.75,-26.75z" fill="#ffab19" fill-rule="nonzero" stroke="#001026" stroke-width="1.2" stroke-linecap="round" stroke-linejoin="miter"></path><g fill-rule="evenodd"><path d="M231.69751,184.44198c0.77926,-0.43905 2.47661,-1.34402 3.95073,2.54789c1.47413,3.89191 -1.80798,10.00156 -2.25577,10.6645c-1.65231,2.62485 -3.7793,5.7738 -7.29033,8.4706c-10.14345,7.87086 -21.05504,0.62119 -20.61228,-3.78607c0.38678,-4.3244 8.05058,-1.19928 15.18961,-3.01428c3.16645,-0.7574 5.45261,-2.71277 7.21031,-4.42171c2.40031,-2.48165 2.88962,-9.995 3.80772,-10.46093z" fill="#ffab19" stroke="#001026" stroke-width="1.2" stroke-linecap="round" stroke-linejoin="round"></path><path d="M211.10385,200.45919c3.13299,0.18542 8.01712,-0.25648 8.01712,-0.25648c0,0 -2.81682,2.56233 -2.58352,5.25408c0.12572,2.13639 2.17269,3.03633 2.86471,3.26242c-1.80493,0.34962 -4.19212,0.66797 -7.65221,-0.46243c-3.46008,-1.1304 -6.38076,-4.30997 -5.7585,-6.30315c0.788,-1.88125 2.31088,-1.45598 5.1124,-1.49446z" fill="#ffffff" stroke="none" stroke-width="1" stroke-linecap="butt" stroke-linejoin="miter"></path></g><g fill-rule="evenodd"><path d="M239.26356,189.98672c-11.64506,-2.35211 -7.75266,-9.0386 -8.0928,-14.53535c-0.12787,-4.80038 1.23026,-4.72615 6.91984,-6.97753c3.12633,-1.42692 4.96854,-2.26134 6.76141,-3.54025c2.71647,-1.87638 4.81984,2.47974 5.42207,5.06766c0,0 0.83419,3.86706 0.77467,6.16846c-0.09415,2.80021 -0.28698,4.71144 -0.80569,6.1189c0,0 -0.59925,2.77392 -1.51507,4.33442c-1.52722,2.71805 -9.46441,3.36369 -9.46441,3.36369z" fill="#ffab19" stroke="#001026" stroke-width="1.2" stroke-linecap="round" stroke-linejoin="round"></path><path d="M249.43307,182.69348c0,0 -1.91124,-0.19282 -4.06938,-0.58322c-2.65695,-0.42503 -5.15094,-0.59816 -5.15546,-4.28733c0.20776,-2.9928 -0.10297,-6.60298 5.25053,-6.61226c5.07694,-0.06857 4.83953,3.06251 4.83953,3.06251c0.59701,4.97329 -0.86522,8.4203 -0.86522,8.4203z" fill="#ffffff" stroke="none" stroke-width="1" stroke-linecap="butt" stroke-linejoin="miter"></path></g><path d="M239.92269,189.80824c0,0 -0.44613,19.03013 0.25,18.75c4.73663,-1.90602 7.79455,4.22424 5.29392,6.83424c-2.50063,2.61 -9.15826,2.5055 -9.15826,2.5055c0,0 -6.96939,0.51644 -8.42844,-2.08219c-1.19286,-2.12455 -0.38922,-5.77464 2.29279,-6.00755c1.94705,-0.16908 0.75,-26.75 0.75,-26.75" fill="#ffab19" fill-rule="nonzero" stroke="#001026" stroke-width="1.2" stroke-linecap="round" stroke-linejoin="miter"></path><path d="M235.5709,175.49781c-0.07221,6.06691 1.57628,17.72343 1.22902,21.63868c-0.02414,5.74886 -8.14447,8.60511 -10.77442,-0.10307c-0.63809,-5.54359 3.25646,-23.90363 3.25646,-23.90363c1.36085,-3.83146 5.35321,-3.53422 6.28894,2.36802z" fill="#ffab19" fill-rule="evenodd" stroke="#231f20" stroke-width="1.2" stroke-linecap="round" stroke-linejoin="round"></path><g><path d="M287.3934,145.93352c-4.86824,3.58195 -12.0653,3.35386 -12.0653,3.35386" fill="none" fill-rule="evenodd" stroke="#001026" stroke-width="1.2" stroke-linecap="round" stroke-linejoin="round"></path><path d="M285.5845,157.06268c-6.31624,0.21247 -10.12563,-1.86321 -10.12563,-1.86321" fill="none" fill-rule="evenodd" stroke="#001026" stroke-width="1.2" stroke-linecap="round" stroke-linejoin="round"></path><path d="M255.61731,113.95276c0.30881,-0.18614 0.80372,-0.06346 0.88539,0.34069l2.10986,10.80734c0,0 6.17925,4.98665 7.92694,8.3698c2.94613,5.64009 2.84102,10.13996 2.84102,10.13996c0,0 6.99697,2.42126 7.93606,8.17c0.9391,5.74877 -3.94836,16.3371 -22.89739,19.17681c-18.94904,2.83971 -33.80102,-2.94286 -40.37433,-14.65445c-6.57329,-11.7116 5.23464,-24.78727 4.5988,-24.01545l-1.28238,-17.97707c-0.08167,-0.40414 0.43147,-0.68105 0.82197,-0.46306l11.72755,8.44303c0,0 4.57278,-1.49324 9.277,-1.47893c2.8062,-0.07223 5.19459,0.23686 7.47398,0.74123z" fill="#ffab19" fill-rule="evenodd" stroke="none" stroke-width="0" stroke-linecap="butt" stroke-linejoin="miter"></path><path d="M255.61731,113.95276c0.30881,-0.18614 0.80372,-0.06346 0.88539,0.34069l2.10986,10.80734c0,0 6.17925,4.98665 7.92694,8.3698c2.94613,5.64009 2.84102,10.13996 2.84102,10.13996c0,0 6.99697,2.42126 7.93606,8.17c0.9391,5.74877 -3.94836,16.3371 -22.89739,19.17681c-18.94904,2.83971 -33.80102,-2.94286 -40.37433,-14.65445c-6.57329,-11.7116 5.23464,-24.78727 4.5988,-24.01545l-1.28238,-17.97707c-0.08167,-0.40414 0.43147,-0.68105 0.82197,-0.46306l11.72755,8.44303c0,0 4.57278,-1.49324 9.277,-1.47893c2.8062,-0.07223 5.19459,0.23686 7.47398,0.74123z" fill="none" fill-rule="evenodd" stroke="#001026" stroke-width="1.2" stroke-linecap="butt" stroke-linejoin="miter"></path><path d="M269.06253,143.99642c0,0 6.81086,2.11246 7.74992,7.86121c0.9391,5.74877 -4.32514,15.8194 -23.06982,18.5683c-24.40265,3.89237 -35.23471,-11.01656 -28.05879,-21.30034c7.18047,-10.38368 18.25399,-0.76925 26.67259,-0.98595c7.2153,-0.1715 8.30147,-6.42851 16.70609,-4.14325z" fill="#ffffff" fill-rule="evenodd" stroke="none" stroke-width="1" stroke-linecap="butt" stroke-linejoin="miter"></path><path d="M252.07545,145.52418c2.0978,0.09568 4.28641,0.39569 4.35444,1.09951c0.03614,1.40311 -1.58987,4.13187 -3.19276,4.15887c-1.80723,0.11781 -5.889,-2.57094 -5.81612,-4.16929c-0.04524,-1.20332 2.65653,-1.1802 4.65446,-1.0891z" fill="#001026" fill-rule="evenodd" stroke="#001026" stroke-width="1.2" stroke-linecap="round" stroke-linejoin="round"></path><path d="M207.19049,141.97573c0,0 8.46352,3.18888 11.81865,6.4451" fill="none" fill-rule="evenodd" stroke="#001026" stroke-width="1.2" stroke-linecap="round" stroke-linejoin="round"></path><path d="M219.1494,151.93087c-4.373,1.50234 -11.71518,0.06639 -11.71518,0.06639" fill="none" fill-rule="evenodd" stroke="#001026" stroke-width="1.2" stroke-linecap="round" stroke-linejoin="round"></path><path d="M264.3961,134.37387c2.692,4.62744 2.55956,9.7267 -0.31956,11.39728c-2.8791,1.67058 -7.37864,-0.63678 -10.17053,-5.26878c-2.692,-4.62744 -2.55956,-9.7267 0.31955,-11.39728c2.88365,-1.7705 7.47854,0.64134 10.17054,5.26878z" fill="#000000" fill-rule="evenodd" stroke="#000000" stroke-width="1.2" stroke-linecap="round" stroke-linejoin="round"></path><path d="M239.49433,136.04119c2.79645,4.53209 2.35065,9.91738 -0.43311,11.69239c-3.38313,1.74771 -7.71479,0.14872 -10.51122,-4.38338c-2.89636,-4.53663 -2.83649,-10.23983 0.36055,-12.29635c3.20156,-2.15639 7.78736,0.4552 10.58381,4.98731z" fill="#000000" fill-rule="evenodd" stroke="#000000" stroke-width="1.2" stroke-linecap="round" stroke-linejoin="round"></path><path d="M263.21916,139.63055c-0.11948,-4.08414 0.41301,-7.41339 0.41301,-7.41339c0,0 0.72623,3.29243 0.84571,7.37657c0.11948,4.08414 -0.41301,7.4134 -0.41301,7.4134c0,0 -0.72623,-3.29243 -0.84571,-7.37656z" fill="#ff0000" fill-rule="nonzero" stroke="none" stroke-width="0" stroke-linecap="butt" stroke-linejoin="miter"></path><path d="M238.21773,140.93836c-0.11948,-4.08414 0.41301,-7.41339 0.41301,-7.41339c0,0 0.72623,3.29243 0.84571,7.37657c0.11948,4.08414 -0.41301,7.4134 -0.41301,7.4134c0,0 -0.72623,-3.29243 -0.84571,-7.37656z" fill="#ff0000" fill-rule="nonzero" stroke="none" stroke-width="0" stroke-linecap="butt" stroke-linejoin="miter"></path><path d="M236.0006,151.98071c0,0 5.67615,2.89894 15.80872,3.23887c11.44953,-0.04345 16.23139,-2.78158 16.23139,-2.78158c0,0 -9.89161,15.99412 -21.38429,16.03845c-11.49266,0.0443 -10.65585,-16.4957 -10.65585,-16.4957z" fill="#000000" fill-rule="nonzero" stroke="#000000" stroke-width="1.2" stroke-linecap="round" stroke-linejoin="miter"></path></g><path d="M418.08833,165.14729c0,6.84833 -2.99969,12.4 -6.7,12.4c-3.70031,0 -6.7,-5.55167 -6.7,-12.4c0,-6.84833 2.99969,-12.4 6.7,-12.4c3.70031,0 6.7,5.55167 6.7,12.4z" fill="#641e0a" fill-rule="nonzero" stroke="none" stroke-width="0" stroke-linecap="butt" stroke-linejoin="miter"></path><path d="M403.68833,181.44729c0,7.5663 -2.37289,13.7 -5.3,13.7c-2.92711,0 -5.3,-6.1337 -5.3,-13.7c0,-7.5663 2.37289,-13.7 5.3,-13.7c2.92711,0 5.3,6.1337 5.3,13.7z" fill="#ffab19" fill-rule="nonzero" stroke="none" stroke-width="0" stroke-linecap="butt" stroke-linejoin="miter"></path><path d="M402.76852,182.58334c0,-5.38477 4.42119,-9.75 9.875,-9.75c5.45381,0 9.875,4.36523 9.875,9.75c0,5.38477 -4.42119,9.75 -9.875,9.75c-5.45381,0 -9.875,-4.36523 -9.875,-9.75z" fill="#9d4d0d" fill-rule="nonzero" stroke="none" stroke-width="0" stroke-linecap="butt" stroke-linejoin="miter"></path><g fill-rule="nonzero" stroke-linejoin="miter"><g><path d="M326.51027,203.83806l-4.51854,-4.63228c0,0 2.20708,0.21789 2.22921,0.22912c-2.16386,-4.52264 2.40893,-6.21403 3.33122,-11.21307c0,0 0.07906,-0.23717 0.31623,-0.15811c0.23717,0.07906 0.15811,0.31623 0.15811,0.31623c-0.12359,2.73518 -4.23878,4.76297 -2.5904,10.3809c0.0685,0.23346 0.87645,-1.23673 0.87645,-1.23673z" fill="#380910" stroke="none" stroke-width="0.5" stroke-linecap="butt"></path><path d="M331.14162,189.95111l-1.33333,-2.33333l-2.33333,2.33333l-0.66667,-3h-2.66667l7.33333,-5.33333z" fill="#641e0a" stroke="#000000" stroke-width="1.2" stroke-linecap="round"></path></g><g stroke-linecap="butt"><path d="M330.69687,177.10512c0.13533,-6.64844 1.66523,-13.32593 3.36228,-13.52771c2.96621,-0.35268 2.87225,7.25408 3.68505,13.17446c0.8128,5.92038 4.48216,14.42861 1.2223,18.84296c-3.22882,4.37232 -7.8947,-0.3507 -8.66922,-5.9923c-0.3314,-2.41388 0.29839,-7.52531 0.3996,-12.49741z" fill="#641e0a" stroke="#000000" stroke-width="1.2"></path><path d="M338.46217,190.89679c0,3.45225 -2.22074,4.9447 -4.03428,4.9447c-0.41071,0 -0.81344,-0.20096 -1.19073,-0.55195c-1.28868,-1.19885 -2.28062,-4.14804 -2.28062,-6.81846c0,-1.53777 0.37666,-5.61365 0.55219,-10.35628c0.1681,-4.54166 0.77495,-10.60167 1.98095,-10.07561c2.0288,0.88497 1.68694,6.13517 2.50531,9.6852c1.38324,6.00031 2.46717,11.00341 2.46717,13.1724z" fill="#9d4d0d" stroke="none" stroke-width="0"></path></g><g><path d="M337.24529,174.15796l2.3708,25.3784c0,0 7.4634,-1.14475 9.93998,0.42339c2.47658,1.56815 3.52393,5.1396 -0.14409,5.77928c-7.9583,1.38787 -15.63988,-0.00619 -16.57,-0.24565c-0.93012,-0.23946 -0.34323,-4.1087 -0.34323,-4.1087l-1.47755,-20.68879" fill="#641e0a" stroke="#000000" stroke-width="1.2" stroke-linecap="round"></path><path d="M334.43414,201.81449l-1.88694,-22.58799l2.63956,-2.93827l2.71779,24.52554c0,0 2.84238,0.02727 5.51985,-0.05119c2.89488,-0.08483 5.63445,-0.18332 5.421,2.48167c-0.21746,2.71509 -13.17631,2.0679 -14.21402,1.8749c-0.52129,-0.09695 -0.19723,-3.30468 -0.19723,-3.30468z" fill="#9d4d0d" stroke="none" stroke-width="0" stroke-linecap="butt"></path><path d="M336.9886,201.1174l-2.38205,-24.01004l1.94072,-2.29453l2.48611,25.2557c0,0 6.66284,-0.50786 8.61186,-0.26814c3.18621,0.39189 4.97029,5.06516 1.34037,5.3228c-0.75678,0.05372 -4.1735,0.2859 -7.51018,0.31436c-2.3589,0.02012 -4.43924,-0.207 -4.43924,-0.207z" fill="#ffab19" stroke="none" stroke-width="0" stroke-linecap="butt"></path></g><g><g><path d="M335.63419,166.41421c1.52496,3.98015 1.85299,8.18462 1.18692,11.30704c-0.71524,3.35294 -12.27101,4.78511 -12.74384,-1.2494c-0.3757,-4.79498 0.37833,-6.56861 0.93705,-9.37047c1.38432,-6.94201 8.59222,-5.97934 10.61987,-0.68716z" fill="#641e0a" stroke="#000000" stroke-width="1.2" stroke-linecap="round"></path><path d="M336.79418,175.12697c0,4.26048 -4.01168,4.86905 -6.65476,4.86905c-2.64308,0 -6.24059,-3.53794 -4.20238,-11.05952c1.37342,-5.06833 2.7356,-5.85644 5.36904,-5.63095c3.89308,0.33334 5.4881,7.56095 5.4881,11.82143z" fill="#9d4d0d" stroke="none" stroke-width="0" stroke-linecap="butt"></path><path d="M336.99061,174.39945c0,3.95804 -2.86671,5.41667 -5.375,5.41667c-2.50829,0 -4.79166,-2.20863 -4.79166,-6.16667c0,-2.64528 0.36394,-7.56019 2.98926,-9.01932c1.30286,-0.72412 3.91078,0.07631 4.44476,0.76827c1.98001,2.56575 2.73264,7.16069 2.73264,9.00105z" fill="#ffab19" stroke="none" stroke-width="0" stroke-linecap="butt"></path><path d="M332.79114,179.16662c-2.83197,0.28541 -4.85424,-1.99756 -5.11926,-4.62725c-0.26502,-2.62969 -0.06187,-8.41349 3.98537,-8.82137c4.04724,-0.40788 4.94674,5.84811 5.21177,8.47781c0.26502,2.6297 -1.2459,4.6854 -4.07788,4.97081z" fill="#ffffff" stroke="none" stroke-width="0" stroke-linecap="butt"></path></g><path d="M331.70237,180.66264l-0.02051,22.03134c0,0 7.72242,6.22871 9.3285,12.32705c1.63266,6.1993 -8.35062,7.62847 -12.24408,2.99855c-4.68649,-5.57296 -5.26413,-13.72339 -5.49734,-14.49299c-0.23321,-0.7696 0.49976,-1.99904 0.49976,-1.99904l0.24988,-26.29979" fill="#641e0a" stroke="#000000" stroke-width="1.2" stroke-linecap="round"></path><path d="M325.2305,201.67118l0.75,-25.16667l2.08334,1.41667l0.66666,24.75c0,0 20.55515,16.90832 6.67742,17.40912c-8.78737,0.3171 -10.34281,-14.37458 -10.91396,-16.15527c-0.14587,-0.45478 0.73654,-2.25385 0.73654,-2.25385z" fill="#9d4d0d" stroke="none" stroke-width="0" stroke-linecap="butt"></path><path d="M326.61767,205.7553c-0.87136,-2.00535 1.08333,-28.33333 1.08333,-28.33333l4.25,2.33333l-0.89006,0.15645l-0.10994,22.92689c0,0 3.42544,2.68499 6.2764,6.46175c2.61268,3.4611 4.96787,8.40295 2.46416,9.61373c-10.65558,5.15294 -11.59856,-9.76347 -13.07389,-13.15881z" fill="#ffab19" stroke="none" stroke-width="0" stroke-linecap="butt"></path></g><g stroke-linecap="butt"><path d="M319.27907,178.0962c0.97485,-7.16781 3.25054,-14.18784 4.85478,-14.18784c2.80399,0 1.74525,8.20882 1.74525,14.71164c0,6.50281 2.32652,16.16948 -1.26926,20.52133c-3.56155,4.31042 -7.29831,-1.39348 -7.29831,-7.59008c0,-2.65135 1.23848,-8.09453 1.96754,-13.45505z" fill="#641e0a" stroke="#000000" stroke-width="1.2"></path><path d="M325.18358,192.87824c0,3.75554 -2.01602,5.96667 -3.78333,5.96667c-1.76731,0 -3.53334,-3.3778 -3.53334,-7.13334c0,-3.75554 4.26603,-26.96667 6.03334,-26.96667c1.20273,0 0.76891,13.47994 1.16764,19.01673c0.18717,2.59907 0.11569,7.91686 0.11569,9.1166z" fill="#9d4d0d" stroke="none" stroke-width="0"></path><path d="M323.49161,191.91851c0,3.31371 -1.1566,6 -2.58334,6c-1.42674,0 -3.08333,-2.68629 -3.08333,-6c0,-0.92886 0.51653,-3.44535 0.84829,-6.58643c0.39527,-3.74239 1.33477,-8.70473 2.09325,-12.59163c0.87604,-4.48927 2.09146,-7.65526 2.64179,-7.65526c1.42674,0 0.08334,23.51962 0.08334,26.83333z" fill="#ffab19" stroke="none" stroke-width="0"></path></g><g><g fill="none" stroke="#001026" stroke-width="1.2" stroke-linecap="round"><path d="M367.76332,143.38522c-5.78359,1.17748 -8.28954,0.52831 -8.28954,0.52831"></path><path d="M368.42552,149.3479c-5.17536,2.59613 -9.29105,-0.79376 -9.29105,-0.79376"></path></g><path d="M302.16292,143.9837c-3.47067,-17.31981 7.26499,-29.32461 23.79889,-32.14502c11.72704,-2.00043 29.0833,7.17339 28.31919,21.70431c-0.04784,0.90965 0.28463,1.01017 0.9336,1.6814c16.03118,8.47786 6.59264,26.25301 -6.19763,27.68272c-26.31971,2.94205 -44.52263,-7.28881 -46.85406,-18.92341z" fill="#641e0a" stroke="#001026" stroke-width="1.2" stroke-linecap="butt"></path><path d="M338.11638,113.42052c0,0 15.02082,-5.28392 15.86593,-4.71019c1.22496,0.8316 -3.47067,13.63478 -3.47067,13.63478" fill="#641e0a" stroke="#001026" stroke-width="1.2" stroke-linecap="round"></path><path d="M308.44361,120.53331c0,0 -0.94419,-17.32384 0.74372,-17.60126c1.30647,-0.21473 15.37011,9.9162 15.37011,9.9162" fill="#641e0a" stroke="#001026" stroke-width="1.2" stroke-linecap="round"></path><path d="M353.6231,134.305c0,2.21785 8.13191,4.32364 9.16724,10.91c0.055,0.34992 0.12943,0.88089 0.10702,1.25942c-1.23629,20.88068 -28.15314,16.29853 -35.10759,14.99724c-17.81422,-3.33334 -24.5,-11.12858 -24.5,-20.33333c0,-5.07791 1.8491,-12.30746 7.18489,-17.99207c2.31002,-2.46103 1.01903,-13.64625 1.77344,-14.63112c0.60439,-0.78903 10.5831,7.26095 12.32457,6.97134c5.36326,-0.89192 11.05298,-0.07531 15.70864,1.39548c0.88732,0.28032 12.65019,-5.37083 12.65019,-5.37083c0,0 -3.18286,10.37016 -2.89464,10.70747c3.74209,4.37955 3.58625,9.07449 3.58625,12.0864z" fill="#9d4d0d" stroke="none" stroke-width="0" stroke-linecap="butt"></path><path d="M353.47498,141.74363c0,7.21422 -17.81808,20.43222 -25.6875,19.6875c-14.52958,-1.375 -23.1875,-10.59828 -23.1875,-17.8125c0,-2.94652 1.03062,-12.7663 8.56452,-19.43681c1.15528,-1.02289 1.59581,-8.95581 2.44434,-9.47702c0.66191,-0.40658 7.70098,4.1523 8.42865,3.97634c5.09841,-1.23291 11.82937,-0.86143 17.5726,0.72455c2.02434,0.55902 7.47369,-2.29222 8.59014,-2.38735c0.40908,-0.03486 -0.775,4.99135 -0.775,4.99135c0,0 1.13802,1.66815 1.51739,2.01586c3.01736,2.94268 2.7253,10.37285 2.95747,10.65608c4.02355,4.90829 -0.42511,6.8217 -0.42511,7.06201z" fill="#ffab19" stroke="none" stroke-width="0" stroke-linecap="butt"></path><path d="M335.64886,136.77101c0,0 15.53181,-3.71194 21.28435,0.18403c13.10083,8.87269 3.2334,24.01863 -9.95988,25.77901c-22.11696,2.95107 -44.86277,-9.72823 -41.17446,-19.98793c5.70182,-15.86061 29.84999,-5.97511 29.84999,-5.97511z" fill="#ffffff" stroke="none" stroke-width="0" stroke-linecap="butt"></path><path d="M351.54689,145.21935c0,0 -14.77177,17.11183 -26.58206,14.71445c-11.8103,-2.39737 -8.42039,-21.81961 -8.42039,-21.81961c0,0 -0.26483,2.3251 5.17117,4.87563c1.76123,0.82635 2.20929,0.37803 4.72168,1.27295c0.6424,0.22882 2.96963,1.44264 3.64812,1.63866c8.02759,2.31928 21.46149,-0.68209 21.46149,-0.68209z" fill="#000000" stroke="#000000" stroke-width="1.2" stroke-linecap="round"></path><path d="M342.32039,136.87198c-0.24791,0.72912 -1.5561,3.63191 -3.71857,3.96648c-1.02099,0.15795 -6.19763,-2.74155 -6.19763,-3.96648c0,-2.46445 10.70952,-2.33327 9.9162,0z" fill="#001026" stroke="#001026" stroke-width="1.2" stroke-linecap="butt"></path><path d="M348.33857,123.40286c4.01475,-0.1147 4.21438,6.4897 4.21438,9.29644c0,2.80674 -1.61301,4.09043 -4.21438,4.09043c-2.60138,0 -4.46229,-1.03579 -4.46229,-3.84253c0,-2.80674 0.44754,-9.42964 4.46229,-9.54434z" fill="#000000" stroke="#000000" stroke-width="1.2" stroke-linecap="butt"></path><path d="M325.02509,122.38001c4.77121,0.13632 5.63099,6.65028 5.63099,10.65991c0,4.00964 -2.65846,5.48934 -6.3747,5.48934c-3.71625,0 -6.02056,-1.83384 -6.02056,-5.84347c0,-4.00962 1.99306,-10.4421 6.76427,-10.30578z" fill="#000000" stroke="#000000" stroke-width="1.2" stroke-linecap="butt"></path><g fill="none" stroke="#001026" stroke-width="1.2" stroke-linecap="round"><path d="M303.46563,144.73753c0,0 -3.35683,-0.56446 -4.84623,-0.98736c-1.57229,-0.44643 -4.35229,-1.62447 -4.35229,-1.62447"></path><path d="M295.17494,135.40644c7.15859,0.62663 9.37369,5.09077 9.37369,5.09077"></path></g><g stroke="none" stroke-width="0" stroke-linecap="butt"><path d="M326.79821,120.816c0,0 1.63539,8.36566 1.63539,10.7951c0,2.42946 -1.22273,8.93815 -1.22273,8.93815c0,0 -0.39192,-5.88972 -0.39192,-8.31916c0,-2.42944 -0.02074,-11.41409 -0.02074,-11.41409z" fill="url(#color-1)"></path><path d="M327.13918,124.6161c0,0 1.01441,5.96125 1.01441,7.69244c0,1.7312 -0.72035,6.3692 -0.72035,6.3692c0,0 -0.27927,-4.19693 -0.27927,-5.92812c0,-1.73119 -0.01478,-8.13352 -0.01478,-8.13352z" fill="#ff000c"></path></g><g stroke="none" stroke-width="0" stroke-linecap="butt"><path d="M349.93717,121.48267c0,0 1.38677,7.09384 1.38677,9.15395c0,2.06011 -1.03685,7.5793 -1.03685,7.5793c0,0 -0.33234,-4.99432 -0.33234,-7.05442c0,-2.0601 -0.01759,-9.67883 -0.01759,-9.67883z" fill="url(#color-2)"></path><path d="M350.2263,124.70504c0,0 0.86019,5.05497 0.86019,6.52297c0,1.46801 -0.61084,5.40091 -0.61084,5.40091c0,0 -0.23682,-3.55888 -0.23682,-5.02688c0,-1.468 -0.01253,-6.897 -0.01253,-6.897z" fill="#ff000c"></path></g></g></g></g></g></svg>