<svg version="1.1" xmlns="http://www.w3.org/2000/svg" xmlns:xlink="http://www.w3.org/1999/xlink" width="165.43242" height="173.34616" viewBox="0,0,165.43242,173.34616"><g transform="translate(-313.36174,-193.6681)"><g data-paper-data="{&quot;isPaintingLayer&quot;:true}" fill-rule="nonzero" stroke="none" stroke-linecap="butt" stroke-linejoin="miter" stroke-miterlimit="10" stroke-dasharray="" stroke-dashoffset="0" style="mix-blend-mode: normal"><path d="M367.09545,361.27708l10.44636,-19.93412l-64.18007,-23.47521l2.41319,-124.19964l163.01923,15.30129l-5.65883,111.81163l-45.60625,21.10787l4.69457,25.12537z" fill="#ffffff" stroke-width="0"/><path d="M446.62058,314.28965c1.23744,-1.23744 2.47487,0 2.47487,0l-0.23744,0.48744c2.77129,0 7.87566,1.08744 10.12569,-1.18319c2.65557,-2.67989 1.45764,-8.35811 1.45764,-11.73347c0,-1.36354 0.22474,-2.74299 0.01692,-4.09061c-0.44277,-2.87122 -3.69715,-7.01668 -1.17102,-9.8135c0.96337,-1.0666 6.19108,-1.59337 7.80147,-2.1215c4.48915,-7.28573 3.58572,-16.17163 -2.20134,-22.47395c-1.62849,-1.77348 -3.29039,-3.37318 -5.3066,-4.6935c-0.88018,-0.57639 -2.13415,-0.75234 -2.69549,-1.64218c-0.81961,-1.29925 -1.62298,-2.99834 -1.1549,-4.46146c0.33958,-1.06143 3.015,0.06285 3.17751,-1.03967c0.1944,-1.31881 -0.13321,-2.6639 -0.13321,-3.99697c0,-1.78956 0.3176,-3.95709 0.02259,-5.71968c-1.57878,-9.43275 -9.33551,-14.80286 -17.56117,-17.97789c-2.60735,-1.00641 -5.71001,-2.53783 -8.49306,-2.5543c-0.25853,0.23561 -0.63485,0.4071 -1.18267,0.4071c-1.75,0 -1.75,-1.75 -1.75,-1.75v-0.23809c0,-3.15167 0.28248,-5.92193 -1.04435,-8.82375c-2.3576,-5.71842 -7.71288,-5.1863 -13.07085,-4.90462c-4.34681,0.22852 -8.16085,1.65284 -12.3308,2.58048c-6.48552,1.44276 -12.88125,2.55957 -18.91426,5.58764c-2.10412,0.93409 -4.34253,1.88755 -6.32448,3.0418c-1.56678,0.91246 -2.57058,2.68788 -4.22888,3.42095c-0.37556,0.16602 -3.80838,0.13321 -4.47922,0.13321c-2.69421,0 -5.68014,-0.32846 -8.35761,-0.01311c-7.26475,0.85565 -14.11346,4.92063 -20.38512,8.40055c-4.31617,1.92188 -7.47158,5.11414 -8.60171,10.02652c-0.5602,2.43508 0.28657,6.66654 0.5099,9.14602c0.29374,3.26127 4.70866,5.15812 1.62702,8.61029c-0.93223,1.04432 -3.55244,0.86518 -4.88156,1.16732c-2.1934,0.49861 -4.54181,1.86918 -6.35501,3.16169c-1.48833,1.71695 -4.34826,4.26772 -4.69114,6.63439c-0.7448,5.14084 0.70911,12.16642 3.34637,16.63832c1.91901,3.25399 5.75085,4.19838 7.82948,7.0438c0.84751,1.16015 2.41297,2.388 2.06671,3.78239c-0.28691,1.1554 -2.21771,0.86653 -3.32789,1.29638c-0.73606,0.285 -1.35109,0.89711 -1.78392,1.55716c-2.27896,5.03249 -0.06274,7.84055 2.97589,11.89114c5.67178,7.56065 15.61243,11.32676 25.07342,10.26308c0,0 1.73929,-0.19325 1.93255,1.54604c0.19326,1.7393 -1.54604,1.93255 -1.54604,1.93255c-10.68298,1.17415 -21.84356,-3.0846 -28.25993,-11.64168c-3.98212,-5.3107 -6.05845,-9.24683 -3.21458,-15.7279c0.9332,-1.25092 1.51585,-2.53886 2.95499,-3.01981c-0.29769,-0.24671 -0.57961,-0.49011 -0.80508,-0.65388c-3.49878,-2.54131 -6.48266,-4.93489 -7.997,-9.16668c-1.93002,-5.39341 -4.78853,-13.26191 -1.78743,-18.79865c1.19386,-2.20256 3.24081,-4.30705 4.88366,-6.17045c3.66501,-2.62149 6.8856,-3.3498 11.14439,-4.24242c0.60348,-0.12649 -0.87721,-0.87855 -1.21703,-1.39306c-0.40742,-0.61688 -0.65114,-1.3321 -0.88701,-2.03275c-0.96999,-2.88128 -0.9268,-6.69725 -1.04179,-9.75723c-0.25621,-6.81811 4.63685,-12.62822 10.49056,-15.22462c6.63268,-3.68956 13.83977,-7.83963 21.51964,-8.7423c2.82359,-0.33188 5.94358,-0.01311 8.78525,-0.01311c1.04755,0 2.2081,0.61202 3.13982,0.13321c1.49664,-0.76912 2.41908,-2.38729 3.86635,-3.24571c2.03249,-1.20554 4.36706,-2.18511 6.53266,-3.14869c6.28301,-3.13021 12.90747,-4.34282 19.65717,-5.84092c5.15335,-1.1438 9.76295,-2.65712 15.13732,-2.65979c6.46205,-0.00321 11.33103,0.44289 14.22292,7.00231c1.22989,2.83164 1.34002,5.44515 1.34104,8.34461c3.14249,0.24768 6.22182,1.61472 9.16513,2.74303c9.40134,3.60399 17.99895,10.01539 19.77215,20.68877c0.32379,1.94898 0.0226,4.29955 0.0226,6.28032c0,0.37183 0.0443,4.97231 -0.13321,5.33637c-0.42255,0.8666 -1.10868,1.87443 -1.88025,2.18599c0.41341,0.20378 0.818,0.42542 1.20737,0.67069c2.78017,1.75131 5.74261,4.41665 7.53018,7.19711c5.33852,8.30374 6.08907,17.27661 0.29521,25.63544c-1.58065,0.69352 -2.66788,1.25118 -4.34746,1.6728c-1.03168,0.25897 -2.24713,-0.29721 -3.1844,0.20571c-0.68583,0.368 0.50013,1.47413 0.75609,2.20916c0.82083,2.35708 1.41388,4.38196 1.42314,6.88673c0.02456,6.64448 1.8877,17.25427 -7.13635,18.7274c-2.50889,0.40956 -5.40098,0.0226 -7.94698,0.0226l-2.23744,-1.51256c0,0 -1.23744,-1.23744 0,-2.47487z" fill="#9966ff" stroke-width="0.5"/><path d="M433.85801,284.77708c1.75,0 1.75,1.75 1.75,1.75v1.66667c-0.05313,2.90114 0.49692,3.62358 -1.43231,5.81827c-2.03125,2.31075 -2.86026,1.87587 -5.88623,2.49787c-4.44693,0.91409 -10.19145,1.54149 -14.43146,-0.56614c-7.01967,3.83054 -13.37512,7.84155 -21.85762,6.65622c-2.95488,-0.41291 -3.59138,-0.65516 -5.93754,-2.21716c-1.14737,-0.76388 -2.25715,-2.96154 -3.45274,-2.27558c-0.32684,0.18752 -0.12028,0.76315 -0.31529,1.08557c-0.23566,0.38962 -3.13837,3.85115 -3.24094,3.94528c-3.20431,2.94057 -7.32605,2.47604 -11.3402,2.46638c-5.00705,-0.82039 -9.08537,-2.24142 -13.4363,-4.91834c-1.65927,-1.02087 -4.77535,-2.62397 -5.40053,-4.88599c0.22218,1.74811 0.6233,3.46966 1.34231,5.20547c4.73502,9.46588 9.15506,18.02275 18.524,23.54517c4.11455,2.42528 7.40713,5.72769 12.53403,4.91058c0,0 1.27172,-0.18167 1.79164,0.85587c0.50555,0.05852 1.01856,0.10404 1.54302,0.12872c6.13297,0.28858 12.90318,0.56513 18.99867,-0.31792l1.57095,-0.31694c0,0 1.71602,-0.3432 2.05922,1.37281c0.3432,1.71602 -1.37281,2.05922 -1.37281,2.05922l-1.76238,0.34973c-6.31913,0.89129 -13.31219,0.66884 -19.66799,0.34875c-2.99576,-0.15087 -5.60066,-1.01375 -8.57949,-0.99783c0,0 -1.29187,0 -1.65568,-1.10996c-1.46515,-0.64884 -2.88286,-1.52382 -4.35768,-2.54662c-2.4841,-1.72274 -5.40924,-2.81922 -7.76279,-4.74006c-7.11851,-5.80976 -11.04134,-14.07438 -15.04883,-22.09285c-1.64781,-4.03749 -1.92502,-7.96104 -1.92502,-12.2605c0,-3.02144 -0.5337,-6.69739 0.02654,-9.63696c1.42427,-7.47306 6.29036,-13.75605 11.94731,-18.38305c2.95059,-2.41338 5.18877,-4.79359 8.66019,-6.54523c6.24997,-3.12439 12.57179,-5.8881 19.39551,-7.47473c4.07939,-0.94853 8.72482,-0.70958 12.88711,-0.71002c3.59996,-0.00038 7.52035,-0.47421 11.07606,0.01692c5.21686,0.72057 10.48465,3.13784 15.14084,5.47c9.71262,3.87994 19.95671,10.69854 22.64041,21.47783c1.48864,5.97923 0.72603,12.66843 0.72603,18.78526c0,4.28733 0.68977,9.48258 -0.36816,13.66959c-0.44293,1.75301 -1.65339,3.21621 -2.50063,4.81352c-4.07179,7.67653 -10.79115,12.7419 -18.99448,15.51042l-0.43744,0.23839c0,0 -1.56525,0.78262 -2.34787,-0.78262c-0.78262,-1.56525 0.78262,-2.34787 0.78262,-2.34787l0.89589,-0.42828c7.35249,-2.41494 13.38934,-6.97877 17.00552,-13.82291c0.74353,-1.40724 1.87052,-2.66531 2.25138,-4.21066c0.94425,-3.83131 0.21316,-8.72667 0.21316,-12.63956c0,-5.77634 0.8099,-12.2397 -0.60731,-17.88141c-2.44641,-9.73886 -11.96,-15.69167 -20.69292,-19.18884c-4.36579,-2.17932 -9.3019,-4.52325 -14.1925,-5.19667c-3.38767,-0.46647 -7.15591,0.01728 -10.59061,0.01692c-3.8806,-0.00042 -8.31291,-0.28261 -12.11289,0.62331c-6.5504,1.56162 -12.59335,4.18578 -18.60449,7.19193c-3.23431,1.60022 -5.26343,3.87644 -8.00648,6.12143c-5.0075,4.09829 -9.45648,9.62571 -10.71936,16.28361c-0.52001,2.74149 0.02654,6.21255 0.02654,9.0297c0,1.53501 0.02341,3.02233 0.14988,4.48533c0.05895,-2.87403 2.67999,-2.39623 4.2379,-3.34152c5.74068,-3.48326 7.07909,-11.10242 11.20019,-15.94937c0,0 1.13888,-1.3287 2.46758,-0.18981c1.3287,1.13888 0.18981,2.46758 0.18981,2.46758c-3.39149,3.92021 -4.57331,9.13393 -8.02473,13.02823c-0.88613,0.99984 -3.26848,3.16555 -4.10842,3.68907c-0.55144,0.3437 -1.24228,0.38168 -1.86128,0.5793c-0.19634,0.06268 -0.69708,0.02888 -0.58453,0.20154c0.83645,1.28308 2.52205,1.74174 3.83089,2.53728c3.89723,2.36883 7.4329,3.65644 11.89704,4.415c2.82335,-0.00769 6.46294,0.64995 8.6598,-1.53362c0.98615,-0.98019 3.28923,-5.21978 4.44376,-5.63582c4.09404,-1.47529 7.32107,3.67933 11.27639,4.17392c5.46405,0.68325 10.21156,-0.96737 15.09475,-3.19137c2.39272,-1.08974 3.85082,-2.58735 6.38096,-3.48575c4.56086,1.56555 9.06567,1.53937 13.74649,0.63382c3.76237,-0.72787 4.6017,-0.9672 4.50351,-4.88382v-1.66667c0,0 0,-1.75 1.75,-1.75z" fill="#9966ff" stroke-width="0.5"/><path d="M420.94912,356.8915c-1.69775,0.42444 -2.12219,-1.27331 -2.12219,-1.27331l-0.09167,-0.78705c-2.91206,-4.36809 -5.42628,-8.98665 -8.33333,-13.33333c0,0 -0.97073,-1.45609 0.48536,-2.42681c1.45609,-0.97073 2.42681,0.48536 2.42681,0.48536c2.89669,4.35773 5.42006,8.96343 8.33333,13.33333l0.57499,1.87962c0,0 0.42444,1.69775 -1.27331,2.12219z" fill="#9966ff" stroke-width="0.5"/><path d="M379.28724,355.09785c-1.23744,-1.23744 0,-2.47487 0,-2.47487l1,-1c4.52965,-4.51977 10.67061,-6.89768 15,-11.33333c0,0 1.23744,-1.23744 2.47487,0c1.23744,1.23744 0,2.47487 0,2.47487c-4.48329,4.39639 -10.45954,6.7821 -15,11.33333l-1,1c0,0 -1.23744,1.23744 -2.47487,0z" fill="#9966ff" stroke-width="0.5"/><path d="M404.19135,356.94375c-1.75,0 -1.75,-1.75 -1.75,-1.75c0,-5 0,-11.66667 0,-16.66667c0,0 0,-1.75 1.75,-1.75c1.75,0 1.75,1.75 1.75,1.75c0,5 0,10 0,15v1.66667c0,0 0,1.75 -1.75,1.75z" fill="#9966ff" stroke-width="0.5"/></g></g></svg>