<svg version="1.1" xmlns="http://www.w3.org/2000/svg" xmlns:xlink="http://www.w3.org/1999/xlink" width="166.61008" height="105.09982" viewBox="0,0,166.61008,105.09982"><g transform="translate(-157.25319,-125.96255)"><g data-paper-data="{&quot;isPaintingLayer&quot;:true}" stroke-miterlimit="10" stroke-dasharray="" stroke-dashoffset="0" style="mix-blend-mode: normal"><g data-paper-data="{&quot;index&quot;:null}" fill-rule="evenodd" stroke="none"><path d="M189.97489,147.08344c0.83171,0.32902 2.60344,1.07801 0.50774,4.67356c-2.0957,3.59556 -8.90886,4.89206 -9.70583,4.96153c-3.07961,0.36881 -6.86525,0.69877 -11.17096,-0.33124c-12.50125,-2.92553 -13.73839,-15.96736 -10.03547,-18.39808c3.6033,-2.42203 6.00023,5.49975 11.90493,9.90366c2.58197,1.98329 5.54048,2.52845 7.97483,2.81816c3.43926,0.3025 9.58474,-4.04756 10.52476,-3.6276z" fill="#ffab19" stroke-width="0" stroke-linecap="round" stroke-linejoin="round"/><path d="M164.5652,141.16751c1.82841,2.55087 5.24666,6.06733 5.24666,6.06733c0,0 -3.76417,-0.57532 -5.70863,1.30061c-1.5807,1.44271 -0.99117,3.59966 -0.73115,4.27965c-1.40797,-1.18221 -3.15823,-2.83647 -4.45837,-6.23642c-1.30014,-3.39995 -0.66862,-7.67092 1.27173,-8.44232c1.95771,-0.57216 2.58607,0.87876 4.37975,3.03114z" fill="#ffffff" stroke-width="1" stroke-linecap="butt" stroke-linejoin="miter"/></g><text transform="translate(176.41156,159.27428) rotate(-2.38913) scale(0.67335,0.67335)" font-size="40" xml:space="preserve" fill="#bd7f13" fill-rule="nonzero" stroke="none" stroke-width="1" stroke-linecap="butt" stroke-linejoin="miter" stroke-miterlimit="10" stroke-dasharray="" stroke-dashoffset="0" font-family="Marker" font-weight="normal" text-anchor="start" style="mix-blend-mode: normal"><tspan x="0" dy="0">SCRATCH'S</tspan></text><text transform="translate(180.39658,158.92689) rotate(-2.38913) scale(0.67335,0.67335)" font-size="40" xml:space="preserve" fill="#ffab19" fill-rule="nonzero" stroke="none" stroke-width="1" stroke-linecap="butt" stroke-linejoin="miter" stroke-miterlimit="10" stroke-dasharray="" stroke-dashoffset="0" font-family="Marker" font-weight="normal" text-anchor="start" style="mix-blend-mode: normal"><tspan x="0" dy="0">SCRATCH'S</tspan></text><g fill-rule="nonzero" stroke-opacity="0" stroke="#000000" stroke-width="0" stroke-linecap="butt" stroke-linejoin="miter" font-family="Sans Serif" font-weight="normal" font-size="40" text-anchor="start"><text transform="translate(161.55504,188.39462) rotate(-2.38731) scale(0.80336,0.73294) skewX(0.00021)" font-size="40" xml:space="preserve" fill="#9719ff" fill-rule="nonzero" stroke-opacity="0" stroke="#000000" stroke-width="0" stroke-linecap="butt" stroke-linejoin="miter" stroke-miterlimit="10" stroke-dasharray="" stroke-dashoffset="0" font-family="Sans Serif" font-weight="normal" text-anchor="start" style="mix-blend-mode: normal"><tspan x="0" dy="0">  SMOOTH</tspan><tspan x="0" dy="46.150000000000006px">SATURDAY</tspan></text><text transform="translate(158.5561,188.47433) rotate(-2.38731) scale(0.80336,0.73294) skewX(0.00021)" font-size="40" xml:space="preserve" fill="#ff1919" fill-rule="nonzero" stroke-opacity="0" stroke="#000000" stroke-width="0" stroke-linecap="butt" stroke-linejoin="miter" stroke-miterlimit="10" stroke-dasharray="" stroke-dashoffset="0" font-family="Sans Serif" font-weight="normal" text-anchor="start" style="mix-blend-mode: normal"><tspan x="0" dy="0">  SMOOTH</tspan><tspan x="0" dy="46.150000000000006px">SATURDAY</tspan></text><text transform="translate(160.05572,188.43445) rotate(-2.38731) scale(0.80336,0.73294) skewX(0.00021)" font-size="40" xml:space="preserve" fill="#19bfff" fill-rule="nonzero" stroke-opacity="0" stroke="#000000" stroke-width="0" stroke-linecap="butt" stroke-linejoin="miter" stroke-miterlimit="10" stroke-dasharray="" stroke-dashoffset="0" font-family="Sans Serif" font-weight="normal" text-anchor="start" style="mix-blend-mode: normal"><tspan x="0" dy="0">  SMOOTH</tspan><tspan x="0" dy="46.150000000000006px">SATURDAY</tspan></text></g></g></g></svg>