<svg version="1.1" xmlns="http://www.w3.org/2000/svg" xmlns:xlink="http://www.w3.org/1999/xlink" width="106.43316" height="148.65156" viewBox="0,0,106.43316,148.65156"><g transform="translate(-158.18921,-91.28928)"><g data-paper-data="{&quot;isPaintingLayer&quot;:true}" fill-rule="nonzero" stroke="none" stroke-linecap="butt" stroke-linejoin="miter" stroke-miterlimit="10" stroke-dasharray="" stroke-dashoffset="0" style="mix-blend-mode: normal"><path d="M186.93498,199.75l-22.04527,-33.34463l-6.70051,-24.65537l16.83579,-50.46072l35.11376,32.96072l35.97015,13.94156l15.70164,27.0508l-10.39701,33.25764l5.97514,23.97656l-12.24254,17.46428l-27.0023,-1.092l-24.22142,-16.70706l7.53585,-20.97113z" fill="#ffffff" stroke-width="0"/><path d="M237.03462,183.64554c0.06837,-0.21594 0.24378,-0.48566 0.69355,-0.48566c0.75,0 0.76288,0.75 0.76288,0.75l-0.39964,0.87082c-0.82393,0.40251 -1.34851,0.9726 -2.17596,1.4c0,0 -0.47852,0.24133 -0.8355,-0.09484c-0.21536,0.17402 -0.49855,0.17402 -0.49855,0.17402c-1.91219,0 -3.74263,-0.17382 -5.59259,-0.62239l-0.78815,-0.19619c-0.33529,-0.07579 -0.58975,-0.37449 -0.59588,-0.73141c-0.00613,-0.35693 0.23807,-0.65562 0.57076,-0.73141l1.43381,-0.36l0.07186,0.26896c0.85299,-0.21144 1.64683,-0.24314 2.48136,-0.17879c0.10327,-0.28065 0.18913,-0.5681 0.25685,-0.85897l0.41756,-0.8752c0,0 0.32389,-0.67082 1.00047,-0.33541c0.67658,0.33541 0.35269,1.00623 0.35269,1.00623l-0.35497,0.7248c-0.04181,0.17955 -0.09119,0.35737 -0.14706,0.53321c0.49648,0.08023 1.02206,0.17429 1.59263,0.26887l0.01116,0.00642l0.00076,-0.00414l0.7676,0.15299c0.3199,-0.22689 0.62412,-0.46479 0.97435,-0.6819z" fill="#9966ff" stroke-width="0.5"/><path d="M209.84148,204.50113c0,0 -0.40842,-0.636 0.22076,-1.0335c0.62918,-0.3975 1.03759,0.2385 1.03759,0.2385c0.83175,1.30037 1.46772,2.62928 1.86963,4.11804l0.0031,0.04449c0.54161,0.18502 0.99916,0.39388 1.28443,0.61258c0.52495,0.40245 0.99534,1.13975 1.27125,1.94817c0.32879,-0.07232 0.62551,0.14739 0.62551,0.14739l0.632,0.49733c1.60297,1.96774 3.47415,3.41076 5.27755,5.18209c0,0 0.00291,0.00286 0.00808,0.00836c0.33723,0.20683 0.34474,0.64392 0.34474,0.64392l0.00209,0.12195c0.04366,2.54291 -0.3251,4.94359 -0.73565,7.43721c-0.41777,3.26635 -5.02199,8.94111 -2.17295,12.29824c0.8037,0.94704 3.59903,1.11831 4.66555,1.22551c1.16293,0.1169 2.41502,-0.00365 3.58239,-0.00365c0.1383,-0.00075 2.20635,-0.00461 2.33391,-0.03497c0.61708,-0.14685 0.57175,-3.43048 0.63778,-3.95525c0.50898,-4.04507 -0.50307,-8.29867 0.41394,-12.27096c0,0 0.02634,-0.11311 0.10303,-0.23899c-0.43447,-0.30119 -0.85061,-0.63255 -1.23591,-0.96977c0,0 -0.56911,-0.49827 -0.08046,-1.05883c0.48865,-0.56056 1.05776,-0.06228 1.05776,-0.06228c0.58442,0.51185 1.43648,1.21716 2.30221,1.63002l-0.18346,-0.42507c0,0 -0.2905,-0.69636 0.40107,-0.9749c0.69158,-0.27854 0.98207,0.41781 0.98207,0.41781l0.28728,0.7064c0.05099,0.19159 0.09901,0.3842 0.14422,0.57772c0.43582,-0.09551 0.82414,-0.38219 1.12011,-0.94585l0.20569,-0.66275c0,0 0.22495,-0.71151 0.94054,-0.47434c0.71558,0.23717 0.49063,0.94868 0.49063,0.94868l-0.25699,0.80066c-0.61346,1.07228 -1.38224,1.60022 -2.21781,1.75584c0.44644,2.691 0.45658,5.50535 0.50253,8.18194c0.02543,1.48128 -0.32229,3.76704 0.36133,5.1269c0.88404,1.75855 4.02798,1.32403 5.47786,1.20364c2.09517,-0.38382 3.35745,-2.95727 3.17234,-5.05786c-0.37164,-4.21735 -2.21966,-8.48803 -3.36747,-12.57363c-0.34613,-0.22692 -0.68712,-0.51533 -1.04724,-0.86346c-0.3107,-0.30035 -0.36982,-0.97924 -0.79685,-1.02214c-1.57907,-0.15865 -3.09457,1.01168 -4.79448,0.35044c-1.651,-0.64221 -3.3367,-2.65833 -4.40211,-4.8863c-0.15503,0.05778 -0.29081,0.05778 -0.29081,0.05778c-1.96165,-0.01033 -3.97973,-0.75426 -5.51453,-2.0031l-0.21962,-0.3579c-0.23241,0.07906 -0.46352,0.02153 -0.46352,0.02153l-0.57178,-0.14731c-0.09702,-0.03638 -0.19479,-0.07374 -0.29319,-0.11207c-0.56112,-0.01593 -1.11807,-0.06935 -1.66479,-0.1646c-0.12104,0.31684 -0.24215,0.63369 -0.36343,0.95053c0,0 -0.26658,0.69636 -0.96773,0.41781c-0.70114,-0.27854 -0.43455,-0.9749 -0.43455,-0.9749c0.09755,-0.25477 0.19498,-0.50954 0.29236,-0.7643c-0.07937,-0.02666 -0.15836,-0.05437 -0.23699,-0.08315c-0.62071,-0.22725 -1.16014,-0.53497 -1.61845,-0.90401c-0.11856,0.3123 -0.23314,0.62695 -0.34225,0.94485c0,0 -0.24421,0.70485 -0.95345,0.44854c-0.70925,-0.25631 -0.46504,-0.96115 -0.46504,-0.96115c0.19963,-0.57139 0.41585,-1.13169 0.64023,-1.68642c-0.19629,-0.31029 -0.3575,-0.63897 -0.48369,-0.98056c-0.27175,-0.22646 -0.52987,-0.45763 -0.7714,-0.69273c0,0 -0.53943,-0.53033 -0.01821,-1.06066c0.15258,-0.15525 0.30672,-0.2196 0.44843,-0.23297c0.00996,-1.34549 0.4802,-2.72872 1.40854,-3.88879c0.37374,-0.38041 0.74667,-0.75917 1.12556,-1.12859c-2.15771,0.37915 -4.74368,0.36622 -6.54487,-0.49971c0,0 -0.52709,-0.2613 -0.4281,-0.7839c-0.02041,-0.003 -0.04082,-0.00604 -0.06122,-0.0091c-0.71075,0.31153 -1.41735,0.62305 -2.00366,1.09339c0.12694,0.08301 0.25361,0.1737 0.37991,0.2724l0.40861,0.53548c0,0 0.42674,0.62404 -0.19015,1.04006c-0.6169,0.41603 -1.04363,-0.20801 -1.04363,-0.20801l-0.09176,-0.19623c-2.4736,-1.97565 -5.32461,0.78005 -6.69465,2.79953c-4.20536,5.15805 -8.45773,15.60967 -0.65032,19.55554c2.24546,0.25399 8.58082,0.59463 10.00128,-1.54998c0.74857,-1.13018 0.47466,-2.79917 1.19979,-3.83831c0.42983,-0.61597 1.80306,-0.28465 2.01923,-1.1844c0.25562,-1.06401 -0.80362,-2.49733 -1.30868,-3.31925c2.10339,-3.56835 -1.89932,-5.31002 -4.95616,-4.94905c-0.75339,0.08896 -1.25469,0.83834 -1.90327,1.22375c-2.13308,1.26755 -4.26615,2.5351 -6.39922,3.80265c0,0 -0.63992,0.38027 -1.03129,-0.26619c-0.39137,-0.64645 0.24856,-1.02672 0.24856,-1.02672c2.40599,-1.42973 6.18173,-4.83685 8.95732,-5.23001c0.61335,-0.08688 1.72266,0.02275 2.82965,0.24987c-0.35277,-1.03162 -0.84498,-1.98622 -1.44661,-2.919zM211.26493,197.07681l0.43075,-0.14811c0,0 0.61311,-0.20555 0.899,0.34013c0.77802,0.0799 1.56983,0.11376 2.36673,0.11036c-1.84268,-0.50222 -3.69778,-1.11033 -5.50318,-1.5764c-1.56052,-0.92677 -3.22082,-1.6405 -4.82688,-2.4892c0.41103,0.56715 0.85039,1.09437 1.31614,1.56681l0.70882,0.35139c0.15944,0.07497 0.28939,0.20364 0.3659,0.36247c1.29102,0.74346 2.72466,1.21619 4.23267,1.48706c0.00335,-0.0015 0.0067,-0.00301 0.01005,-0.00451zM232.86276,202.20259c-0.09683,-0.14201 -0.19604,-0.28061 -0.29756,-0.41618c0.03907,0.33371 0.05482,0.67091 0.05195,1.01012c0.17672,-0.10344 0.36039,-0.1972 0.55041,-0.28109zM229.89604,199.06332c0,0 -0.13716,-0.11586 -0.22251,-0.30054c-2.32753,-2.36942 -6.63014,-0.28234 -9.38548,1.78859c0.06363,0.0139 0.13128,0.03692 0.20302,0.07102c0.68193,0.32408 0.36947,1.00044 0.36947,1.00044l-0.08249,0.15353c-0.2197,0.8121 -0.4858,1.59605 -0.7763,2.36506c0.61517,0.23466 1.22473,0.48318 1.82763,0.74903c0.47188,-1.2154 0.94944,-2.42873 1.43761,-3.63865l0.09638,-0.31217c0,0 0.22495,-0.71151 0.94054,-0.47434c0.71558,0.23717 0.49063,0.94868 0.49063,0.94868l-0.13496,0.41954c-0.49439,1.22478 -0.97775,2.4531 -1.45528,3.68356l0.27834,0.05408c0,0 0.73073,0.1819 0.56132,0.90951c-0.16941,0.72761 -0.90014,0.54571 -0.90014,0.54571l-0.47198,-0.13092c-0.22475,0.58421 -0.44863,1.16879 -0.67219,1.75358c0.42007,0.19318 0.83518,0.37072 1.23744,0.53057c2.11883,0.01212 4.29851,-0.57202 6.10974,-1.42485c0.05502,-0.20137 0.12586,-0.39225 0.21352,-0.57086l0.07921,-0.96797c0,0 0.06342,-0.67505 0.71317,-0.66897c0.16462,-0.45419 0.37839,-0.86857 0.63524,-1.24091c0.16282,-1.08317 0.1993,-2.16636 -0.07393,-3.1811c-0.21906,-0.81352 -0.52386,-1.45797 -0.89531,-1.95761c-0.04074,-0.0347 -0.08163,-0.06937 -0.1227,-0.10402zM230.85266,197.92444c1.23367,1.04309 2.32989,2.11308 3.24388,3.4461l0.27647,0.25155c0,0 0.19869,0.19534 0.23839,0.46747c0.3806,-0.06327 0.77653,-0.0945 1.18456,-0.09252c-1.31136,-1.8485 -3.53297,-4.48079 -5.21799,-4.22872c-0.00109,0.00143 -0.00217,0.00286 -0.00327,0.00428c0.16606,0.05733 0.27795,0.15184 0.27795,0.15184zM229.73607,196.4409c3.16464,-0.92701 6.44252,3.31876 8.02203,5.80637c0.54265,0.1328 1.09635,0.31937 1.655,0.56193c2.42855,1.05444 2.07784,2.83096 4.77028,3.36262c2.213,0.40172 5.59057,0.73514 6.36753,3.32916c0.3049,1.01797 0.22257,1.94907 0.73403,2.92688c0.48586,0.92888 1.4254,2.17145 1.56314,3.35995c1.62842,0.56513 3.91936,1.48862 4.18924,2.47584c0.59939,2.19257 -0.52472,2.67805 -1.99424,2.49302c1.47599,1.37254 2.56072,3.26251 1.28723,5.00313c-1.33365,1.82284 -8.05214,3.93304 -2.67745,5.05072c1.60627,0.36278 3.34848,0.38215 4.94116,-0.03205c1.09656,-0.28518 3.47767,-1.5486 4.62702,-1.04488c1.67613,0.73459 1.7207,2.79743 0.8071,4.07687c-1.21741,1.70494 -3.36421,1.92372 -5.28598,2.13957l-1.13936,0.00117c0,0 -0.75,0 -0.76288,-0.75c-0.01288,-0.75 0.73712,-0.75 0.73712,-0.75l1.05576,0.00117c1.46557,-0.16444 3.19141,-0.25264 4.16341,-1.51897c0.27392,-0.35687 0.65597,-1.63718 -0.02509,-1.77678c-0.91819,-0.18821 -2.93321,0.85943 -3.78014,1.07499c-1.83435,0.46689 -3.78797,0.44569 -5.63839,0.0432c-1.53907,-0.35694 -4.47858,-1.6602 -3.34219,-3.81495c1.18456,-2.24606 8.38528,-3.08251 3.90612,-6.85797c-0.72442,-0.61061 -1.04309,-0.72672 -1.79235,-1.09572c0,0 -0.58432,-0.28968 -0.40696,-0.86903c-0.34038,-0.17128 -0.62536,-0.33363 -0.82392,-0.46372l-0.61011,-0.22733c-1.99115,0.80521 -4.6391,0.9708 -6.24513,1.26372c-0.33069,0.03937 -0.63441,0.04915 -0.91851,0.02987c0.26558,0.76102 0.55633,1.50377 0.82141,2.29548c1.54843,4.62472 4.82786,14.72331 -2.16087,16.21355c-2.17014,0.18192 -5.74215,0.45558 -7.01559,-1.96709c-0.74617,-1.41956 -0.51762,-3.44947 -0.54416,-4.99505c-0.05116,-2.97977 0.00267,-6.13326 -0.54346,-9.11257c-0.37017,-0.09342 -0.74292,-0.23444 -1.11175,-0.4104c-0.89794,4.05536 -0.00519,8.63217 -0.45325,12.78816c-0.1259,1.16783 0.07366,3.63141 -1.29647,4.22709c-0.5422,0.23573 -2.31622,0.20452 -3.02775,0.20894c-1.21888,0 -2.52053,0.11681 -3.73468,-0.00365c-0.9434,-0.09359 -1.87615,-0.29182 -2.80546,-0.48761c-7.99612,-1.68462 -1.58532,-10.42347 -1.04971,-14.76912c0.38739,-2.35276 0.74402,-4.61664 0.72286,-7.00873c-1.75476,-1.71379 -3.57012,-3.15472 -5.15033,-5.03887c-0.05613,0.5827 -0.2789,1.09876 -0.72782,1.43603c1.41412,0.81364 1.76651,3.73493 0.56099,4.83055c-0.43323,0.39373 -1.34836,0.15174 -1.62998,0.6658c-0.59101,1.07882 -0.28564,2.55764 -1.10943,3.72267c-1.94346,2.74852 -8.64578,2.50688 -11.64323,2.10855c-8.99786,-4.39379 -5.10988,-15.82874 -0.14268,-21.90788c1.58429,-2.22326 4.22125,-4.54522 6.92286,-3.97005c0.36913,-0.3818 0.77135,-0.68932 1.20117,-0.95683c-1.10803,-0.32725 -2.16859,-0.77557 -3.15841,-1.37042l-0.53359,0.10709l-0.05048,-0.23247c-2.38078,0.62159 -5.43863,0.53058 -7.64184,0.0335c-0.58478,-0.13193 -3.38803,-1.98339 -3.77663,-1.85508c-0.01335,0.00441 0.03649,1.54186 0.04191,1.86632l0.5282,0.85585c0.07373,0.11502 0.11753,0.25089 0.12003,0.39644c0.00711,0.41421 -0.32291,0.75 -0.73712,0.75c-0.04044,0 -0.08018,-0.0032 -0.119,-0.00936l-1.39063,-0.19818l0.02626,-0.20896c-4.41127,-0.5806 -7.35353,-3.73233 -9.09329,-7.81331c-0.26079,0.60801 -1.0427,0.62017 -2.26974,-0.16325c-3.59573,-2.29574 -4.69522,-8.21207 -3.83027,-11.93885l0.01549,-0.06652c-3.97309,-2.28348 -7.45907,-5.78996 -9.28766,-9.35728c-1.64648,-2.14617 -3.37837,-5.58609 -4.21579,-8.16355c-0.31055,-0.95581 -0.50047,-1.74978 0.38924,-2.60735c0.87731,-0.84562 3.0359,-0.94075 5.16283,-0.85175c-0.29131,-0.18133 -0.58026,-0.35603 -0.86756,-0.5142c-1.50218,-0.82703 -3.49955,-1.449 -4.66259,-2.77689c-1.83935,-2.10008 -2.81553,-6.09389 -3.31433,-8.75726c-0.50049,-2.75326 -0.34302,-5.73113 -0.35653,-8.5233c-0.00325,-0.67161 -0.7236,-1.46268 -0.32223,-1.9943c0.70402,-0.93246 4.17039,-0.21759 5.07131,0.08106c0.34957,0.11588 0.97949,0.67361 1.29177,0.96895c-0.90719,-1.05834 -0.56296,-3.54364 -0.29144,-4.71592c3.52627,-7.35565 10.51943,-12.79027 11.79197,-21.20165c-0.072,-3.70828 -1.05353,-7.17686 -1.77574,-10.80293c-0.26301,-1.32051 -1.01423,-3.7104 -0.44142,-5.02222c1.59071,-3.64297 3.24781,0.28555 3.28217,2.28701c0.02964,1.72652 0.12044,4.20158 1.1439,5.74378c0.80033,1.20598 3.2128,-0.30196 4.45084,1.24136c0.54494,0.67932 0.76988,2.3259 1.1218,3.12785c1.13761,2.59242 2.05179,5.29851 3.34487,7.8268c0.31369,1.17413 1.18479,3.64739 2.19491,4.44026c0.48281,0.37897 1.21205,-0.20289 1.57062,-0.30231c1.74672,-0.48433 4.73896,-1.28941 6.56054,-0.80768c2.57085,0.67989 4.17989,4.11523 4.67519,6.39473c0.29917,1.64487 0.26846,3.27185 0.29702,4.93521l0.0103,0.6c0,0 0.01288,0.75 -0.73712,0.75c-0.75,0 -0.76288,-0.75 -0.76288,-0.75l-0.0103,-0.6c-0.02693,-1.56828 0.02036,-3.11595 -0.2678,-4.66479c-0.16789,-0.77352 -0.28699,-1.83305 -0.73172,-2.52234c-2.19173,-3.39696 -5.08747,-2.8433 -8.60424,-1.89061c-1.17073,0.31715 -1.41548,0.94727 -2.82251,0.09769c-1.27105,-0.76747 -2.41609,-3.83544 -2.76991,-5.15974c-1.75454,-3.34786 -2.42331,-7.43962 -4.30417,-10.64535c-0.49142,-0.83758 -2.46001,0.00294 -3.21757,-0.30335c-0.98856,-0.39969 -1.60486,-1.3913 -1.99034,-2.5645c0.62213,2.88248 1.23515,5.71676 1.28055,8.71485c-1.28063,8.65525 -8.21952,14.08889 -11.87322,21.59835c-0.33191,1.41422 0.81268,4.62366 -0.21336,5.57778c-0.2856,0.26558 -3.23049,-1.00751 -3.7484,-1.10028c-0.06779,-0.01214 -1.33294,-0.18443 -1.93576,-0.35711c0.25634,0.72625 0.26394,2.85985 0.26668,3.0194c0.03573,2.08137 -0.08445,4.22414 0.29756,6.2767c0.42845,2.38149 1.33009,6.15772 2.9741,8.04274c1.00274,1.14974 2.91747,1.70296 4.22669,2.42311c0.96879,0.53289 2.2362,1.56655 3.4355,2.04917c0.48568,0.0344 0.90926,0.05829 1.23977,0.05829c1.24705,0.003 2.41837,0.13014 3.52389,0.36771c0.35615,-2.65035 2.41634,-5.63815 4.60348,-6.87516c0.90679,-0.51287 3.41505,-0.55564 3.94709,-1.40599c1.41308,-2.25849 0.2945,-4.4256 3.64652,-5.24255c4.18264,-2.13933 8.90764,-3.05109 12.99373,-5.34774c2.26584,-1.27356 3.46144,-3.42885 5.46382,-4.96866c2.60893,-1.56665 4.79811,-4.68643 7.69003,-5.69123c0.58876,-0.20457 2.66023,-0.83954 3.15065,-0.56012c2.53747,1.44571 -0.8563,3.36151 -0.74346,4.81353c0.03717,0.47825 0.95643,-0.04748 1.43323,-0.08723c1.39445,-0.11627 2.85892,-0.00256 4.26182,-0.00256c8.91199,0 15.07687,3.32315 20.75398,10.27162c2.78768,3.18826 5.35148,6.62379 7.80708,10.0452c0.89818,1.25143 2.55549,3.21489 2.61858,4.78797c0.0179,0.44628 0.00524,0.89544 -0.03033,1.34609c1.06763,-0.76365 1.39537,-3.02699 3.07257,-1.36244c0.37556,0.37272 0.20943,2.92421 0.21828,3.46156c0.07648,4.64767 -1.90982,8.90596 -3.87853,12.97645c-0.0646,0.09947 -0.12903,0.19916 -0.19301,0.29918c0.16637,0.93474 0.39724,1.89673 0.71835,2.91066c0.88334,2.78926 3.43085,5.19872 1.35187,7.88453c-0.74536,0.05204 -1.78465,-0.49099 -2.24059,0.0942c-1.86678,2.39602 -1.42664,6.38702 -4.08698,8.42613c-0.30536,0.23406 -1.98798,1.26667 -2.41432,1.13878c-0.83653,-0.25093 -0.56975,-2.23326 -1.43777,-2.2c-0.7075,0.02711 -1.81059,1.83534 -2.36028,2.28584c-0.62035,0.37687 -2.8399,2.01359 -3.60859,1.70432c-1.20227,-0.48372 -1.50511,-2.22786 -1.5893,-3.67197c-2.47615,1.52322 -5.44297,2.51016 -8.15262,3.2595c-0.63887,0.16113 -1.32206,0.34239 -2.03474,0.52825c0.31732,0.123 0.62691,0.26591 0.92482,0.42774zM229.21683,209.45985c-1.05196,0.43002 -2.18557,0.76939 -3.34631,0.97887c1.11232,0.7822 2.50855,1.27247 3.84663,1.32498c-0.26815,-0.78874 -0.44414,-1.57303 -0.50031,-2.30384zM250.57001,215.81768c0.13185,-0.41702 0.43223,-0.50815 0.6583,-0.51215c-0.31888,-0.81252 -1.0464,-1.76336 -1.27463,-2.20905c-0.60302,-1.17759 -0.36639,-3.30058 -1.45661,-4.14131c-1.16344,-0.89719 -3.18825,-1.05997 -4.56966,-1.30997c-0.85805,-0.17246 -2.25952,-0.37347 -2.95144,-0.9234c-1.16145,-0.92311 -0.56478,-1.85408 -2.15162,-2.54325c-0.55037,-0.23903 -1.09092,-0.4155 -1.61361,-0.5314c-0.04518,-0.00474 -0.088,-0.01428 -0.12832,-0.02731c-1.97422,-0.40259 -3.68129,0.06633 -4.68109,1.29679c-0.2105,1.19899 -0.53112,2.38549 -0.7587,3.49604l-0.14172,0.25704c0.01151,0.11196 0.02552,0.2256 0.04209,0.34089c0,0 0.10581,0.74421 -0.63681,0.83723c-0.09036,0.01132 -0.17129,0.01024 -0.24376,-0.00038c0.26384,1.87716 1.76893,3.63012 3.01474,5.12328c0.43361,0.51971 0.85855,1.48794 1.54598,1.7251c1.56079,0.53846 3.2073,-0.72307 4.70514,-0.38127c1.0334,0.23582 1.43162,1.26294 2.10327,1.91256c0.30616,0.02411 0.47765,0.23669 0.56407,0.39585c0.31249,0.14136 0.69035,0.19524 1.1767,0.10618c1.33442,-0.24338 4.07816,-0.37271 5.90519,-1.12462c0.11334,-0.11836 0.26613,-0.19872 0.43816,-0.22055l0.04744,-0.00679c0.33582,-0.17954 0.62384,-0.38822 0.84395,-0.63241c-0.16188,-0.07239 -0.62394,-0.33612 -0.43709,-0.92712zM219.45134,205.52666c-0.19349,0.46868 -0.39124,0.93471 -0.588,1.40123c0.56953,0.3734 1.17028,0.72501 1.77843,1.04866c0.21624,-0.56539 0.43281,-1.13057 0.65018,-1.69542c-0.60664,-0.26893 -1.22069,-0.51901 -1.84061,-0.75447zM219.32929,201.36203l0.02707,-0.06265c-0.30547,0.26273 -0.57686,0.51578 -0.80619,0.74903c-0.3416,0.40709 -0.60056,0.85347 -0.77815,1.31724c0.07256,0.01117 0.11872,0.02647 0.11872,0.02647c0.23404,0.0776 0.46746,0.15658 0.7002,0.23712c0.2757,-0.73685 0.52815,-1.48846 0.73835,-2.26721zM217.4808,204.82841c-0.00983,0.40498 0.03818,0.80624 0.14325,1.19033c0.14063,-0.33287 0.28074,-0.66599 0.41844,-1.00059c-0.18682,-0.06422 -0.37407,-0.12743 -0.56169,-0.18974zM173.91784,159.25989c-0.48476,-0.01227 -0.95717,-0.11436 -1.4194,-0.27521c-2.36968,-0.19012 -5.87819,-0.61263 -7.30052,0.3018c-0.45958,0.29547 0.36479,1.75965 0.43746,1.91616c1.0494,2.26038 2.14883,4.92686 3.6725,6.91294c1.7056,3.27299 4.9845,6.66491 8.71257,8.85575c0.10631,-0.02541 0.23303,-0.02654 0.38357,0.01094c0.3563,0.0887 0.49859,0.30713 0.55087,0.5077c2.25555,1.17864 4.63691,1.89434 6.90805,1.86991c0,0 0.75,0 0.76288,0.75c0.01288,0.75 -0.73712,0.75 -0.73712,0.75c-2.35976,-0.02071 -4.82694,-0.71703 -7.1763,-1.8653c-0.55023,2.66189 -0.05964,4.93534 1.32799,7.3544c0.47315,0.82485 0.9253,1.35615 1.54467,2.06951c0.31061,0.35775 0.82173,1.67104 0.75069,1.20552c-0.02839,-0.18603 -0.01407,-0.36794 0.03116,-0.54556l-0.20972,-0.10397l0.57238,-1.18547c0.1159,-0.25368 0.37131,-0.42912 0.67072,-0.42912c0.35693,0 0.6599,0.24933 0.74142,0.58332l0.20407,0.76384c0.40238,1.1502 0.61137,2.57816 1.19902,3.64443c1.53727,2.78937 4.76955,3.08315 7.09188,4.60629c-0.07025,-1.07041 -0.40997,-2.92255 0.7544,-3.52926c1.22303,-0.63728 3.5005,1.48926 4.68518,1.74492c1.24344,0.26833 4.31816,-0.23962 6.18373,0.04316c-0.92676,-1.07174 -1.73922,-2.32147 -2.42645,-3.64843l-0.61889,-0.45826c0,0 -0.60773,-0.45 -0.16803,-1.05c0.0154,-0.02101 0.031,-0.04074 0.04678,-0.05924c-0.64951,-1.51305 -1.14147,-3.07269 -1.46124,-4.54368c0,0 -0.15972,-0.73544 0.5732,-0.88252c0.73291,-0.14709 0.89262,0.58835 0.89262,0.58835c0.37748,1.73996 1.02363,3.64396 1.89959,5.41567c2.20463,1.60824 4.72141,2.47884 7.01087,3.83851c0.12149,0.02878 0.24299,0.05834 0.36451,0.08858c-0.09155,-5.49599 5.20428,-8.47105 10.445,-6.91458c2.02733,0.60211 2.95578,2 4.3748,3.38858c0.55938,0.5604 2.29533,1.3586 2.44177,2.17953c0.12065,0.67634 -0.17484,1.44204 -0.68157,2.17146c0.49493,-0.17138 0.98739,-0.35707 1.50179,-0.56054c0.08413,-0.19844 0.26727,-0.41012 0.66572,-0.41012c0.42772,0 0.61571,0.24393 0.69828,0.45356c0.06146,-0.01578 0.12244,-0.03135 0.18294,-0.0467c2.77853,-0.76084 6.0224,-1.7884 8.52129,-3.53675c0.02123,-0.19323 0.13421,-0.67012 0.73226,-0.67012c0.04731,0 0.09169,0.00298 0.13332,0.00858c1.95357,-1.63569 3.2663,-3.82945 3.19908,-6.85858c0,0 -0.01288,-0.75 0.73712,-0.75c0.09524,0 0.1786,0.01209 0.25155,0.03321c-0.10061,-4.86679 -0.14286,-9.29022 -1.78417,-13.9962c-0.29978,-0.58865 -0.69182,-1.13502 -1.13019,-1.63064c-0.32721,-0.36995 -0.76122,-1.66053 -0.88387,-1.1886c-0.68315,2.62853 -4.86601,6.51551 -7.91893,6.07775c-1.68579,-0.24173 -2.17754,-1.77555 -2.6754,-3.08752c-0.04065,-0.10713 -0.7655,-1.51073 -0.82427,-1.51503c-0.66666,-0.0488 -1.04758,0.84221 -1.66604,1.08317c-2.35256,2.42744 -6.84996,2.56472 -9.99385,2.08177c-1.4857,-0.22823 -2.1297,0.10356 -2.93195,-1.5077c-0.1326,-0.26632 0.4343,-1.05173 0.21646,-0.85582c-1.8161,1.63321 -3.91714,2.57268 -5.67474,4.35581c-0.9257,1.18136 -1.8116,2.71269 -2.07391,4.28884c2.44555,0.29651 6.01215,0.25445 6.85684,-2.06758l-0.05229,0.07854c0,0 -0.01288,-0.75 0.73712,-0.75c0.75,0 0.76288,0.75 0.76288,0.75l-0.04542,0.47854c-1.21299,3.05252 -5.18474,3.35433 -8.30259,3.00831c0.00158,0.01309 0.00322,0.02617 0.0049,0.03925c0.01213,0.09381 0.03201,0.19778 0.05704,0.30981c0.44816,-0.01981 0.68011,0.42869 0.68011,0.42869l0.20687,0.4c0.19743,0.38234 0.40819,0.758 0.62706,1.12897c0.3926,-0.04832 0.80158,-0.0687 1.22162,-0.06575c0.00146,-0.00417 0.00229,-0.00635 0.00229,-0.00635c0.12761,-0.33333 0.25522,-0.66667 0.38283,-1l0.17526,-0.55863c0,0 0.22495,-0.71151 0.94054,-0.47434c0.71558,0.23717 0.49063,0.94868 0.49063,0.94868l-0.20414,0.64137c-0.0709,0.1852 -0.1418,0.37039 -0.2127,0.55559c2.31937,0.27974 4.76644,1.05389 6.55678,1.64345l0.76728,0.191c0.33529,0.07579 0.58975,0.37449 0.59588,0.73141c0.00711,0.41421 -0.32291,0.75 -0.73712,0.75h-1l-0.00273,-0.15913c-1.41644,0.27729 -2.83682,0.24057 -4.34804,-0.05543l-0.25266,0.01456c0,0 -0.75,0 -0.76288,-0.75c-0.00135,-0.07856 0.00567,-0.14889 0.01932,-0.21185c-1.15851,-0.12552 -2.29887,-0.31666 -3.49308,-0.54708c-0.00112,0.00068 -0.00225,0.00137 -0.00337,0.00205c-0.51507,0.31226 -0.87326,-0.04932 -0.99117,-0.19864l-0.4836,-0.09639c-0.08452,0.11223 -0.19129,0.21145 -0.32425,0.29444c-0.60126,0.3753 -2.09659,-0.45576 -2.73551,-0.77171c-2.40894,-1.19123 -4.35498,-2.59116 -4.8962,-5.34752c0,0 -0.136,-0.7398 0.60168,-0.86309c0.73768,-0.1233 0.87367,0.6165 0.87367,0.6165c0.37551,2.23957 2.15292,3.30024 4.06862,4.25248c0.45765,0.22748 0.80312,0.95677 1.29196,0.82829c0.4664,-0.12258 -0.2676,-0.93593 -0.37279,-1.41038c-0.11781,-0.53138 -0.20479,-1.0729 -0.23604,-1.6153c-0.14277,-0.12915 -0.25529,-0.33408 -0.2073,-0.65509c0.0334,-0.22345 0.12441,-0.36816 0.23516,-0.46131c0.21872,-1.93659 1.2944,-3.84252 2.44661,-5.31558c1.48222,-1.51208 2.95933,-2.56568 4.69056,-3.73156c0.6998,-0.47127 1.43597,-1.25547 2.27675,-1.11263c0.88429,0.15023 0.6013,2.04919 1.4722,2.2684c3.08293,0.77602 7.89277,0.59931 10.23219,-1.75015c0.92371,-0.38274 1.7008,-1.50187 2.69275,-1.31683c2.21622,0.41341 1.55119,4.44031 3.45828,4.59744c2.20833,0.18195 4.6766,-2.37054 5.85807,-3.91379c0.47554,-0.62116 0.51,-1.67057 1.21698,-2.00846c1.29652,-0.61964 2.08127,0.86424 2.68312,1.51606c0.56605,0.61304 1.02643,1.32657 1.41271,2.0647c1.17327,3.33226 1.60178,6.54883 1.77709,9.86171c0.67816,-2.00343 1.55063,-3.99086 1.92547,-5.23912l0.34909,-1.16251c0,0 0.21466,-0.71484 0.9334,-0.48791c0.71874,0.22693 0.50408,0.94178 0.50408,0.94178l-0.34909,1.16251c-0.98139,3.26812 -1.67353,6.86813 -3.18083,9.95237l0.17557,0.05543l-0.42442,1.41337c-0.08567,0.31168 -0.36967,0.53938 -0.71076,0.53938c-0.0653,0 -0.12878,-0.00834 -0.18944,-0.02402c-0.40836,2.81621 -1.91581,4.91134 -3.95773,6.51085c-0.00547,0.97341 0.00275,2.94293 0.52391,3.24308c0.81363,0.46858 1.54504,-1.01704 2.33647,-1.49568c1.15391,-0.92352 1.67516,-2.78953 3.55732,-2.51416c1.3101,0.19167 0.98612,2.11928 1.43777,2.2c0.4771,0.08527 0.76814,-0.57339 1.15134,-0.86122c2.8862,-2.16784 1.92539,-9.47014 6.57713,-8.67967c0.82415,-1.38748 -1.62494,-4.65579 -2.08849,-6.11547c-0.15864,-0.49955 -0.29633,-0.98843 -0.41588,-1.46907l-0.15691,0.18569c0,0 -0.52123,0.53033 -1.06066,0c-0.53943,-0.53033 -0.01821,-1.06066 -0.01821,-1.06066l0.05942,-0.00508c0.22116,-0.45622 0.47191,-0.89743 0.73683,-1.32991c-0.43927,-2.90836 -0.33203,-5.6406 -0.38642,-8.80858c0.27974,-1.55717 0.71614,-3.1426 0.99736,-4.73701c-0.18244,-0.12949 -0.3676,-0.3655 -0.27318,-0.77099c0.07761,-0.33333 0.27302,-0.47578 0.46201,-0.53228c0.05218,-0.48004 0.08269,-0.96042 0.08309,-1.44061c0.00098,-1.1925 -1.64434,-3.05168 -2.3325,-4.01203c-2.43007,-3.39125 -4.97431,-6.7956 -7.73629,-9.9548c-5.40329,-6.61112 -11.11412,-9.72838 -19.58939,-9.72838c-1.5421,0 -6.34777,0.92209 -7.11869,-0.88979c-0.25275,-0.59404 0.49291,-1.98277 0.78803,-2.59562c0.2264,-0.47013 1.22209,-1.52843 0.71743,-1.39085c-3.80564,1.03749 -6.07013,4.14512 -9.34643,6.14865c-2.04205,1.52662 -3.24265,3.73804 -5.5645,5.03134c-4.16825,2.32178 -8.94283,3.32143 -13.22085,5.45226c-2.73117,0.58289 -1.58951,2.83393 -2.98179,4.75745c-0.87927,1.21477 -2.45639,0.9715 -3.70475,1.43997c-2.1361,0.80162 -4.43771,3.90043 -4.59026,6.30005c3.96678,1.26384 7.05507,4.02061 9.80147,7.52824c0.28136,-0.47565 0.59916,-0.9428 0.9563,-1.40023c0,0 0.45847,-0.58565 1.05216,-0.11713c0.59369,0.46852 0.13523,1.05417 0.13523,1.05417c-1.53605,1.95653 -2.26064,4.13528 -2.46202,6.40213c0.04096,0.01911 0.08186,0.03861 0.1227,0.05853c0,0 0.67658,0.33541 0.35269,1.00623c-0.14025,0.29047 -0.34663,0.39228 -0.53557,0.41434c0.01855,3.84842 1.32923,7.8626 2.57933,11.41307c0.25439,0.7264 0.52514,1.44785 0.82191,2.15863l0.03308,-0.05179c0,0 0.53943,0.53033 0.01821,1.06066c-0.52123,0.53033 -1.06066,0 -1.06066,0l-0.37379,-0.45179c-0.30771,-0.73823 -0.58909,-1.48723 -0.85363,-2.24137c-1.36759,-3.92115 -2.72171,-8.25761 -2.6385,-12.41196c-1.41035,-0.55376 -2.81711,-0.90649 -4.02939,-2.09488c-1.01506,-0.99508 -1.4235,-3.28757 -2.65815,-3.85313c-1.7392,-0.79667 -4.04866,-0.5272 -5.88672,-0.5272h-0.4c0,0 -0.75,0 -0.76288,-0.75c-0.01288,-0.75 0.73712,-0.75 0.73712,-0.75h0.4c2.01903,0 4.65822,-0.29878 6.53388,0.6728c1.6863,0.87348 1.78802,2.87287 3.0792,4.14687c0.91963,0.9074 1.99131,1.26461 3.08427,1.64327c0.14751,-1.32844 0.46409,-2.63013 0.99813,-3.88474l-0.2577,-0.37821c-3.40226,-4.46057 -7.36312,-7.72442 -13.21099,-7.8932c-0.21756,0.1932 -0.5212,0.1932 -0.5212,0.1932zM177.45268,98.95258c-0.12337,-1.001 -0.15377,-1.95381 -0.1656,-2.64269c-0.01309,-0.76215 0.04997,-1.55473 0.00828,-2.31349c-0.01325,-0.24128 -0.31598,0.37365 -0.39478,0.6005c-0.14296,0.41159 0.07355,0.87491 0.07963,1.31299c0.01393,1.00368 0.23918,1.87025 0.43689,2.86479c0.0118,0.05935 0.02366,0.11865 0.03557,0.1779zM256.48729,164.9291c0.34758,-1.4991 -0.10339,-3.5702 0.10509,-5.19633c-0.11838,0.2474 -0.25254,0.46151 -0.38747,0.56215c-0.62898,0.46913 -1.03384,0.59865 -1.45315,0.5803c-0.28413,1.52614 -0.70962,3.04708 -0.98242,4.50857c0.03902,2.27269 -0.01336,4.28355 0.13135,6.3097c1.03694,-2.17318 2.05021,-4.45098 2.58662,-6.76439zM211.87287,194.5242c0.26781,0.06667 0.76894,0.19141 1.03675,0.25808c1.82945,0.45541 4.9178,1.55475 7.43191,1.9357c0.54909,-0.01683 1.11414,-0.06506 1.68734,-0.13694c0.68735,-0.13564 1.35704,-0.28049 2.00236,-0.42777c1.0158,-0.72956 2.13351,-1.92772 2.13911,-2.69259c0.00599,-0.81627 -1.42838,-0.84759 -2.02004,-1.42047c-1.22286,-1.20717 -1.98966,-2.48716 -3.73508,-3.01142c-4.32026,-1.29766 -8.61914,0.999 -8.54219,5.48109c0,0 0.00009,0.00505 -0.00016,0.01431z" fill="#9966ff" stroke-width="0.5"/></g></g></svg>