<svg version="1.1" xmlns="http://www.w3.org/2000/svg" xmlns:xlink="http://www.w3.org/1999/xlink" width="30.79545" height="41.92999" viewBox="0,0,30.79545,41.92999"><g transform="translate(-225.50745,-160.26657)"><g data-paper-data="{&quot;isPaintingLayer&quot;:true}" fill-rule="nonzero" stroke="none" stroke-linecap="butt" stroke-linejoin="miter" stroke-miterlimit="10" stroke-dasharray="" stroke-dashoffset="0" style="mix-blend-mode: normal"><path d="M225.50745,180.90295l0.22727,-17.84091l25.34091,-2.5l5.22727,13.06818l-11.15303,15.51272l1.77504,13.05363l-8.03864,-3.42324l-7.69701,-12.98401z" fill="#ffffff" stroke-width="0"/><path d="M235.24723,185.62355c1.55642,0.93099 3.91297,-0.04871 4.57086,-1.72059c0,0 0.22629,-0.52803 0.74492,-0.46177c0.02076,-0.09924 0.06582,-0.20118 0.15012,-0.2946c0.0853,-0.11477 0.21599,-0.21468 0.41626,-0.2514c0.19555,-0.05672 0.35712,-0.0258 0.48474,0.0387c0.21381,0.08366 0.32343,0.25113 0.37964,0.40086c1.07331,2.13237 2.07736,2.97281 3.33795,0.55773c0.00509,-0.0405 0.01444,-0.0937 0.03163,-0.15246c-0.97503,-0.68259 -0.19261,-3.76328 2.14533,-3.24295c0.84091,0.18715 1.22528,0.48963 1.32272,0.84521c0.44243,0.3279 0.20632,0.87883 0.20632,0.87883c-0.41792,0.96291 -0.8969,1.65019 -1.6363,2.39398l-0.92935,0.31135c-1.30791,2.22087 -2.93047,2.36222 -4.31574,1.13882c0.00018,0.78344 0.00306,1.56643 0.11632,2.34526c0,0 0.07126,0.49884 -0.31193,0.73716c0.09633,1.89947 0.50027,3.71092 0.8725,5.58257c0.16582,0.83373 0.0299,2.39662 0.55275,3.11688c0.35306,0.48637 1.38637,0.92303 1.85637,1.38913l0.45454,0.45455c0,0 0.53033,0.53033 0,1.06066c-0.53033,0.53033 -1.06066,0 -1.06066,0l-0.45454,-0.45455c-0.54028,-0.54571 -1.57868,-0.97665 -2.00726,-1.56541c-0.70736,-0.97172 -0.58637,-2.58542 -0.81089,-3.70131c-0.35323,-1.75556 -0.71616,-3.46707 -0.85998,-5.23555c-0.07966,-0.09945 -0.11726,-0.18717 -0.11726,-0.18717c-0.13906,-0.32803 -0.29456,-0.62611 -0.46312,-0.91474c-0.02122,0.20138 -0.04035,0.39989 -0.03048,0.57783c0.11378,2.05347 1.00366,4.5545 -0.12481,6.3666l-0.49294,0.62068c0,0 -0.46852,0.58565 -1.05417,0.11713c-0.58565,-0.46852 -0.11713,-1.05417 -0.11713,-1.05417l0.41616,-0.51568c0.63241,-0.84692 0.17103,-1.70943 0.10276,-2.71919c-0.11551,-1.70858 -0.34982,-3.22523 -0.04326,-4.78635l-0.17792,-0.02541l0.05594,-0.39164c-2.25711,1.06534 -5.05827,1.10982 -5.39471,-1.76853c-0.02418,-0.20684 0.01554,-0.45668 0.10517,-0.71703c0.00615,-0.09226 0.04328,-0.3858 0.26731,-0.56873c0.51112,-0.85543 1.45797,-1.56845 2.33385,-0.96111c1.38027,0.95708 0.68633,2.46311 -0.52168,2.75643zM240.35596,186.62262l-0.01646,0.01645l0.06613,0.03839c0.09407,0.13986 0.18616,0.2771 0.27611,0.41315c-0.01057,-0.60163 0.00148,-1.20381 -0.01266,-1.80489c-0.24045,0.2745 -0.53322,0.54045 -0.86229,0.78773z" fill="#9966ff" stroke-width="0.5"/><path d="M249.67081,175.11286c0.36692,-0.32853 1.086,-0.10153 1.39586,-0.48435c0.48086,-0.59408 0.0201,-2.88016 -0.14734,-3.53157c-0.32987,-1.15398 -1.36431,-2.6908 -0.8226,-3.88375c0.43971,-0.96834 2.69816,-2.54267 0.47096,-3.85408c-1.29014,-0.75965 -2.68088,0.98808 -3.97727,0.34091c-1.36096,-0.67941 -0.83406,-1.95392 -2.78752,-1.93344c-1.63071,-0.01302 -2.76406,0.79036 -4.23932,1.11124c-1.66125,0.36134 -2.67479,-1.27367 -4.43454,-0.49353c-2.32347,1.03004 -3.12349,3.5722 -4.97486,4.91989c-0.62817,0.45727 -1.54228,0.41164 -2.21363,0.86118c-1.52423,1.76301 1.34015,1.90178 1.14812,3.88045c-0.13538,1.39497 -1.06413,1.90019 -0.49145,3.48329c0.22981,0.63527 1.69081,1.97031 2.07186,2.40837c0.00415,-0.1839 0.06342,-0.53453 0.43582,-0.67919c-0.34484,-1.38695 -0.43958,-2.92271 -0.43692,-4.47012c0.00376,-0.02989 0.00771,-0.05967 0.01187,-0.08935c-0.19184,-0.6913 0.04074,-1.53259 0.88874,-2.4363c2.70914,-4.30788 10.54904,-5.37674 15.06972,-4.57584c2.65889,2.49771 3.38066,7.07777 2.02918,10.52577c0.35118,-0.33169 0.65718,-0.78965 1.00333,-1.09958zM228.1314,177.65423c-1.01937,-1.13249 -1.54168,-3.04045 -1.1948,-4.53724c0.04093,-0.1766 0.88195,-1.32365 0.64319,-1.62131c-0.71729,-0.89425 -1.66181,-0.81671 -1.68587,-2.28479c-0.01844,-1.12493 0.40969,-1.38504 1.04406,-2.16127c0.68957,-0.45856 1.74251,-0.52921 2.33182,-0.95701c1.90794,-1.38502 2.79017,-4.04888 5.25241,-5.08011c0.93893,-0.39324 2.45005,-0.49343 3.41714,-0.12637c0.60483,0.22956 0.58588,0.77867 1.23922,0.54193c1.57328,-0.5701 2.88381,-1.15046 4.62432,-1.16149c1.99438,0.01607 2.49207,0.76398 3.57612,2.15747c0.40157,0.5162 1.22452,-0.55572 1.87843,-0.56656c1.8842,-0.03122 3.31219,0.86721 3.68923,2.87193c0.32387,1.72202 -0.67779,2.29326 -1.57397,3.27237c-0.03143,0.03434 0.92125,2.44688 0.99558,2.70716c0.29378,1.20215 0.71849,3.79122 -0.14734,4.87752c-0.35103,0.44041 -1.14203,0.2731 -1.55868,0.65202c-1.16639,1.06074 -0.83763,1.87525 -2.88209,1.89173h-0.11364c0,0 -0.02444,0 -0.0645,-0.00441c-0.58635,0.7671 -1.32339,1.4067 -2.21373,1.85705l-0.22727,0.11364c0,0 -0.67082,0.33541 -1.00623,-0.33541c-0.33541,-0.67082 0.33541,-1.00623 0.33541,-1.00623l0.22727,-0.11364c1.73916,-0.86118 2.71871,-2.67841 3.01704,-4.70114c-0.06634,0.02514 -0.13513,0.04895 -0.2064,0.07138c-0.86224,0.2713 -2.21229,0.17699 -3.05954,-0.12638c-0.71673,-0.25663 -1.22024,-1.27294 -1.20109,-0.60159c-1.22336,1.44887 -2.82393,1.85757 -4.68822,1.28989c-0.36911,-0.11239 -1.68682,-1.18832 -2.00396,-1.11925c-0.59736,0.1301 -1.20628,0.97136 -2.15106,1.03784c-0.83221,0.05856 -1.60651,-0.05927 -2.23661,-0.31393c0.07942,2.10205 0.41522,4.06761 1.70975,5.40116c-0.00223,-0.24109 0.00798,-0.47928 0.03172,-0.71405c-0.26058,-0.44585 0.0705,-0.81175 0.1652,-0.90288c0.155,-0.57097 0.40655,-1.11533 0.77271,-1.62437c-0.14621,-0.21856 -0.27695,-0.45376 -0.38984,-0.70769c0,0 -0.29544,-0.68936 0.39392,-0.9848c0.68936,-0.29544 0.9848,0.39392 0.9848,0.39392c0.88552,2.17781 9.60508,3.91928 5.21423,6.19353c-0.10556,0.05467 -0.21185,0.10791 -0.31873,0.15996c0.03228,0.08469 0.0515,0.18553 0.0515,0.30558c0,0.75 -0.75,0.75 -0.75,0.75c-0.09058,-0.00023 -0.18193,0.00165 -0.27393,0.0052c-0.09982,0.17353 -0.2864,0.33571 -0.63516,0.33571c-0.27919,0 -0.45445,-0.10393 -0.56447,-0.23442c-0.71404,0.07214 -1.43428,0.1308 -2.10784,-0.01292c-2.43025,-0.51856 -3.86823,-1.78662 -4.70481,-3.453c-0.8088,0.96343 -2.63341,-0.32169 -3.63528,-1.43475zM232.74232,171.206c-0.0341,0.03376 -0.06657,0.06706 -0.09744,0.09989c-0.19033,0.37195 -0.33286,0.77366 -0.4201,1.2072c0.31578,0.5869 1.64254,0.7114 2.71813,0.40124c0.51512,-0.14854 0.78344,-0.8554 1.31485,-0.92621c2.15649,-0.28734 3.84598,2.79594 5.80782,0.39792c0.30676,-0.3236 0.4782,-0.9127 0.92029,-0.97081c0.49436,-0.06498 0.89531,0.4396 1.3352,0.67435c0.9065,0.48375 4.53561,1.08874 3.06234,-0.88425l-0.12596,-0.52966c0,0 0,-0.3671 0.25683,-0.58764c-0.30531,-1.15963 -0.82611,-2.22932 -1.54678,-3.05973c-3.6516,-0.25859 -10.59523,0.25942 -12.99876,3.73675c-0.04367,0.25821 -0.22641,0.44094 -0.22641,0.44094zM238.35995,180.39157c-0.15033,0.17355 -0.32454,0.33312 -0.45639,0.37889c-0.34686,0.12042 -0.75438,0.30209 -1.12053,0.30443c0.011,0.00242 0.02204,0.00482 0.03309,0.00721c0.39198,0.08452 0.81915,0.08229 1.25489,0.04832c0.04754,-0.16823 0.15614,-0.2844 0.26439,-0.36214c0.00179,-0.13126 0.00901,-0.25954 0.02455,-0.37671zM236.34938,180.96404c-0.28239,-0.17299 -0.45675,-0.37594 -0.55377,-0.59257c0.02671,0.11314 0.02501,0.24763 -0.02426,0.40622c0.1859,0.07036 0.38132,0.13435 0.58676,0.19161c-0.00291,-0.00173 -0.00582,-0.00348 -0.00872,-0.00526zM235.72889,178.54936c-0.10065,0.07591 -0.19782,0.15621 -0.29383,0.23796c-0.05455,0.36435 -0.06181,0.74007 -0.03218,1.11423c0.10363,0.05567 0.2539,0.16017 0.34079,0.32921c-0.38164,-1.2949 1.65048,-2.93728 -0.01477,-1.6814zM237.29137,179.44844c0.19901,-0.20225 0.57029,-0.48009 0.94463,-0.68677c-0.22495,-0.09179 -0.44773,-0.18806 -0.6665,-0.29047c-0.07094,0.39253 -0.18796,0.74933 -0.27813,0.97724zM240.78647,179.83547c-0.29229,-0.06325 -0.69726,-0.27503 -0.98619,-0.43266c0.06101,0.2382 0.09447,0.50089 0.11124,0.76828c0.31041,-0.12287 0.63605,-0.24917 0.87495,-0.33562z" fill="#9966ff" stroke-width="0.5"/></g></g></svg>